<?xml version="1.0" encoding="utf-8"?>
<svg xmlns="http://www.w3.org/2000/svg" xmlns:xlink="http://www.w3.org/1999/xlink" width="600" height="400" viewBox="0 0 2400 1600">
<defs>
  <clipPath id="clip790">
    <rect x="0" y="0" width="2400" height="1600"/>
  </clipPath>
</defs>
<path clip-path="url(#clip790)" d="M0 1600 L2400 1600 L2400 0 L0 0  Z" fill="#ffffff" fill-rule="evenodd" fill-opacity="1"/>
<defs>
  <clipPath id="clip791">
    <rect x="480" y="0" width="1681" height="1600"/>
  </clipPath>
</defs>
<path clip-path="url(#clip790)" d="M255.977 1423.18 L2352.76 1423.18 L2352.76 47.2441 L255.977 47.2441  Z" fill="#ffffff" fill-rule="evenodd" fill-opacity="1"/>
<defs>
  <clipPath id="clip792">
    <rect x="255" y="47" width="2098" height="1377"/>
  </clipPath>
</defs>
<polyline clip-path="url(#clip792)" style="stroke:#000000; stroke-linecap:round; stroke-linejoin:round; stroke-width:2; stroke-opacity:0.1; fill:none" points="315.32,1423.18 315.32,47.2441 "/>
<polyline clip-path="url(#clip792)" style="stroke:#000000; stroke-linecap:round; stroke-linejoin:round; stroke-width:2; stroke-opacity:0.1; fill:none" points="711.731,1423.18 711.731,47.2441 "/>
<polyline clip-path="url(#clip792)" style="stroke:#000000; stroke-linecap:round; stroke-linejoin:round; stroke-width:2; stroke-opacity:0.1; fill:none" points="1108.14,1423.18 1108.14,47.2441 "/>
<polyline clip-path="url(#clip792)" style="stroke:#000000; stroke-linecap:round; stroke-linejoin:round; stroke-width:2; stroke-opacity:0.1; fill:none" points="1504.55,1423.18 1504.55,47.2441 "/>
<polyline clip-path="url(#clip792)" style="stroke:#000000; stroke-linecap:round; stroke-linejoin:round; stroke-width:2; stroke-opacity:0.1; fill:none" points="1900.97,1423.18 1900.97,47.2441 "/>
<polyline clip-path="url(#clip792)" style="stroke:#000000; stroke-linecap:round; stroke-linejoin:round; stroke-width:2; stroke-opacity:0.1; fill:none" points="2297.38,1423.18 2297.38,47.2441 "/>
<polyline clip-path="url(#clip792)" style="stroke:#000000; stroke-linecap:round; stroke-linejoin:round; stroke-width:2; stroke-opacity:0.1; fill:none" points="255.977,1413.43 2352.76,1413.43 "/>
<polyline clip-path="url(#clip792)" style="stroke:#000000; stroke-linecap:round; stroke-linejoin:round; stroke-width:2; stroke-opacity:0.1; fill:none" points="255.977,1093.43 2352.76,1093.43 "/>
<polyline clip-path="url(#clip792)" style="stroke:#000000; stroke-linecap:round; stroke-linejoin:round; stroke-width:2; stroke-opacity:0.1; fill:none" points="255.977,773.429 2352.76,773.429 "/>
<polyline clip-path="url(#clip792)" style="stroke:#000000; stroke-linecap:round; stroke-linejoin:round; stroke-width:2; stroke-opacity:0.1; fill:none" points="255.977,453.43 2352.76,453.43 "/>
<polyline clip-path="url(#clip792)" style="stroke:#000000; stroke-linecap:round; stroke-linejoin:round; stroke-width:2; stroke-opacity:0.1; fill:none" points="255.977,133.431 2352.76,133.431 "/>
<polyline clip-path="url(#clip790)" style="stroke:#000000; stroke-linecap:round; stroke-linejoin:round; stroke-width:4; stroke-opacity:1; fill:none" points="255.977,1423.18 2352.76,1423.18 "/>
<polyline clip-path="url(#clip790)" style="stroke:#000000; stroke-linecap:round; stroke-linejoin:round; stroke-width:4; stroke-opacity:1; fill:none" points="315.32,1423.18 315.32,1404.28 "/>
<polyline clip-path="url(#clip790)" style="stroke:#000000; stroke-linecap:round; stroke-linejoin:round; stroke-width:4; stroke-opacity:1; fill:none" points="711.731,1423.18 711.731,1404.28 "/>
<polyline clip-path="url(#clip790)" style="stroke:#000000; stroke-linecap:round; stroke-linejoin:round; stroke-width:4; stroke-opacity:1; fill:none" points="1108.14,1423.18 1108.14,1404.28 "/>
<polyline clip-path="url(#clip790)" style="stroke:#000000; stroke-linecap:round; stroke-linejoin:round; stroke-width:4; stroke-opacity:1; fill:none" points="1504.55,1423.18 1504.55,1404.28 "/>
<polyline clip-path="url(#clip790)" style="stroke:#000000; stroke-linecap:round; stroke-linejoin:round; stroke-width:4; stroke-opacity:1; fill:none" points="1900.97,1423.18 1900.97,1404.28 "/>
<polyline clip-path="url(#clip790)" style="stroke:#000000; stroke-linecap:round; stroke-linejoin:round; stroke-width:4; stroke-opacity:1; fill:none" points="2297.38,1423.18 2297.38,1404.28 "/>
<path clip-path="url(#clip790)" d="M315.32 1454.1 Q311.709 1454.1 309.88 1457.66 Q308.075 1461.2 308.075 1468.33 Q308.075 1475.44 309.88 1479.01 Q311.709 1482.55 315.32 1482.55 Q318.954 1482.55 320.76 1479.01 Q322.588 1475.44 322.588 1468.33 Q322.588 1461.2 320.76 1457.66 Q318.954 1454.1 315.32 1454.1 M315.32 1450.39 Q321.13 1450.39 324.186 1455 Q327.264 1459.58 327.264 1468.33 Q327.264 1477.06 324.186 1481.67 Q321.13 1486.25 315.32 1486.25 Q309.51 1486.25 306.431 1481.67 Q303.376 1477.06 303.376 1468.33 Q303.376 1459.58 306.431 1455 Q309.51 1450.39 315.32 1450.39 Z" fill="#000000" fill-rule="nonzero" fill-opacity="1" /><path clip-path="url(#clip790)" d="M702.113 1481.64 L709.752 1481.64 L709.752 1455.28 L701.442 1456.95 L701.442 1452.69 L709.706 1451.02 L714.382 1451.02 L714.382 1481.64 L722.021 1481.64 L722.021 1485.58 L702.113 1485.58 L702.113 1481.64 Z" fill="#000000" fill-rule="nonzero" fill-opacity="1" /><path clip-path="url(#clip790)" d="M1102.8 1481.64 L1119.12 1481.64 L1119.12 1485.58 L1097.17 1485.58 L1097.17 1481.64 Q1099.83 1478.89 1104.42 1474.26 Q1109.02 1469.61 1110.2 1468.27 Q1112.45 1465.74 1113.33 1464.01 Q1114.23 1462.25 1114.23 1460.56 Q1114.23 1457.8 1112.29 1456.07 Q1110.37 1454.33 1107.26 1454.33 Q1105.06 1454.33 1102.61 1455.09 Q1100.18 1455.86 1097.4 1457.41 L1097.4 1452.69 Q1100.23 1451.55 1102.68 1450.97 Q1105.13 1450.39 1107.17 1450.39 Q1112.54 1450.39 1115.74 1453.08 Q1118.93 1455.77 1118.93 1460.26 Q1118.93 1462.39 1118.12 1464.31 Q1117.33 1466.2 1115.23 1468.8 Q1114.65 1469.47 1111.55 1472.69 Q1108.44 1475.88 1102.8 1481.64 Z" fill="#000000" fill-rule="nonzero" fill-opacity="1" /><path clip-path="url(#clip790)" d="M1508.8 1466.95 Q1512.16 1467.66 1514.03 1469.93 Q1515.93 1472.2 1515.93 1475.53 Q1515.93 1480.65 1512.41 1483.45 Q1508.89 1486.25 1502.41 1486.25 Q1500.24 1486.25 1497.92 1485.81 Q1495.63 1485.39 1493.18 1484.54 L1493.18 1480.02 Q1495.12 1481.16 1497.44 1481.74 Q1499.75 1482.32 1502.27 1482.32 Q1506.67 1482.32 1508.96 1480.58 Q1511.28 1478.84 1511.28 1475.53 Q1511.28 1472.48 1509.13 1470.77 Q1507 1469.03 1503.18 1469.03 L1499.15 1469.03 L1499.15 1465.19 L1503.36 1465.19 Q1506.81 1465.19 1508.64 1463.82 Q1510.47 1462.43 1510.47 1459.84 Q1510.47 1457.18 1508.57 1455.77 Q1506.7 1454.33 1503.18 1454.33 Q1501.26 1454.33 1499.06 1454.75 Q1496.86 1455.16 1494.22 1456.04 L1494.22 1451.88 Q1496.88 1451.14 1499.2 1450.77 Q1501.53 1450.39 1503.59 1450.39 Q1508.92 1450.39 1512.02 1452.83 Q1515.12 1455.23 1515.12 1459.35 Q1515.12 1462.22 1513.48 1464.21 Q1511.83 1466.18 1508.8 1466.95 Z" fill="#000000" fill-rule="nonzero" fill-opacity="1" /><path clip-path="url(#clip790)" d="M1903.98 1455.09 L1892.17 1473.54 L1903.98 1473.54 L1903.98 1455.09 M1902.75 1451.02 L1908.63 1451.02 L1908.63 1473.54 L1913.56 1473.54 L1913.56 1477.43 L1908.63 1477.43 L1908.63 1485.58 L1903.98 1485.58 L1903.98 1477.43 L1888.37 1477.43 L1888.37 1472.92 L1902.75 1451.02 Z" fill="#000000" fill-rule="nonzero" fill-opacity="1" /><path clip-path="url(#clip790)" d="M2287.66 1451.02 L2306.01 1451.02 L2306.01 1454.96 L2291.94 1454.96 L2291.94 1463.43 Q2292.96 1463.08 2293.97 1462.92 Q2294.99 1462.73 2296.01 1462.73 Q2301.8 1462.73 2305.18 1465.9 Q2308.56 1469.08 2308.56 1474.49 Q2308.56 1480.07 2305.09 1483.17 Q2301.61 1486.25 2295.29 1486.25 Q2293.12 1486.25 2290.85 1485.88 Q2288.6 1485.51 2286.2 1484.77 L2286.2 1480.07 Q2288.28 1481.2 2290.5 1481.76 Q2292.72 1482.32 2295.2 1482.32 Q2299.21 1482.32 2301.54 1480.21 Q2303.88 1478.1 2303.88 1474.49 Q2303.88 1470.88 2301.54 1468.77 Q2299.21 1466.67 2295.2 1466.67 Q2293.33 1466.67 2291.45 1467.08 Q2289.6 1467.5 2287.66 1468.38 L2287.66 1451.02 Z" fill="#000000" fill-rule="nonzero" fill-opacity="1" /><path clip-path="url(#clip790)" d="M1174.54 1520.52 L1214.74 1520.52 L1214.74 1525.93 L1197.87 1525.93 L1197.87 1568.04 L1191.41 1568.04 L1191.41 1525.93 L1174.54 1525.93 L1174.54 1520.52 Z" fill="#000000" fill-rule="nonzero" fill-opacity="1" /><path clip-path="url(#clip790)" d="M1218.68 1532.4 L1224.54 1532.4 L1224.54 1568.04 L1218.68 1568.04 L1218.68 1532.4 M1218.68 1518.52 L1224.54 1518.52 L1224.54 1525.93 L1218.68 1525.93 L1218.68 1518.52 Z" fill="#000000" fill-rule="nonzero" fill-opacity="1" /><path clip-path="url(#clip790)" d="M1264.55 1539.24 Q1266.75 1535.29 1269.8 1533.41 Q1272.86 1531.54 1276.99 1531.54 Q1282.56 1531.54 1285.59 1535.45 Q1288.61 1539.33 1288.61 1546.53 L1288.61 1568.04 L1282.72 1568.04 L1282.72 1546.72 Q1282.72 1541.59 1280.91 1539.11 Q1279.09 1536.63 1275.37 1536.63 Q1270.82 1536.63 1268.18 1539.65 Q1265.54 1542.68 1265.54 1547.9 L1265.54 1568.04 L1259.65 1568.04 L1259.65 1546.72 Q1259.65 1541.56 1257.83 1539.11 Q1256.02 1536.63 1252.23 1536.63 Q1247.74 1536.63 1245.1 1539.68 Q1242.46 1542.71 1242.46 1547.9 L1242.46 1568.04 L1236.57 1568.04 L1236.57 1532.4 L1242.46 1532.4 L1242.46 1537.93 Q1244.47 1534.66 1247.27 1533.1 Q1250.07 1531.54 1253.92 1531.54 Q1257.8 1531.54 1260.51 1533.51 Q1263.24 1535.48 1264.55 1539.24 Z" fill="#000000" fill-rule="nonzero" fill-opacity="1" /><path clip-path="url(#clip790)" d="M1330.78 1548.76 L1330.78 1551.62 L1303.86 1551.62 Q1304.24 1557.67 1307.49 1560.85 Q1310.76 1564 1316.59 1564 Q1319.96 1564 1323.11 1563.17 Q1326.3 1562.35 1329.42 1560.69 L1329.42 1566.23 Q1326.26 1567.57 1322.95 1568.27 Q1319.64 1568.97 1316.24 1568.97 Q1307.71 1568.97 1302.71 1564 Q1297.75 1559.04 1297.75 1550.57 Q1297.75 1541.82 1302.46 1536.69 Q1307.2 1531.54 1315.22 1531.54 Q1322.41 1531.54 1326.58 1536.18 Q1330.78 1540.8 1330.78 1548.76 M1324.93 1547.04 Q1324.86 1542.23 1322.22 1539.37 Q1319.61 1536.5 1315.28 1536.5 Q1310.38 1536.5 1307.42 1539.27 Q1304.49 1542.04 1304.05 1547.07 L1324.93 1547.04 Z" fill="#000000" fill-rule="nonzero" fill-opacity="1" /><path clip-path="url(#clip790)" d="M1360.58 1518.52 L1374.07 1518.52 L1374.07 1523.07 L1366.43 1523.07 L1366.43 1572.09 L1374.07 1572.09 L1374.07 1576.64 L1360.58 1576.64 L1360.58 1518.52 Z" fill="#000000" fill-rule="nonzero" fill-opacity="1" /><path clip-path="url(#clip790)" d="M1409.27 1533.45 L1409.27 1538.98 Q1406.79 1537.71 1404.12 1537.07 Q1401.44 1536.44 1398.58 1536.44 Q1394.22 1536.44 1392.02 1537.77 Q1389.86 1539.11 1389.86 1541.79 Q1389.86 1543.82 1391.42 1545 Q1392.98 1546.15 1397.69 1547.2 L1399.69 1547.64 Q1405.93 1548.98 1408.54 1551.43 Q1411.18 1553.85 1411.18 1558.21 Q1411.18 1563.17 1407.24 1566.07 Q1403.32 1568.97 1396.45 1568.97 Q1393.58 1568.97 1390.46 1568.39 Q1387.38 1567.85 1383.94 1566.74 L1383.94 1560.69 Q1387.18 1562.38 1390.34 1563.24 Q1393.49 1564.07 1396.57 1564.07 Q1400.71 1564.07 1402.94 1562.66 Q1405.17 1561.23 1405.17 1558.65 Q1405.17 1556.27 1403.54 1554.99 Q1401.95 1553.72 1396.51 1552.54 L1394.47 1552.07 Q1389.03 1550.92 1386.61 1548.56 Q1384.19 1546.18 1384.19 1542.04 Q1384.19 1537.01 1387.76 1534.27 Q1391.32 1531.54 1397.88 1531.54 Q1401.13 1531.54 1403.99 1532.01 Q1406.85 1532.49 1409.27 1533.45 Z" fill="#000000" fill-rule="nonzero" fill-opacity="1" /><path clip-path="url(#clip790)" d="M1434.2 1518.52 L1434.2 1576.64 L1420.7 1576.64 L1420.7 1572.09 L1428.31 1572.09 L1428.31 1523.07 L1420.7 1523.07 L1420.7 1518.52 L1434.2 1518.52 Z" fill="#000000" fill-rule="nonzero" fill-opacity="1" /><polyline clip-path="url(#clip790)" style="stroke:#000000; stroke-linecap:round; stroke-linejoin:round; stroke-width:4; stroke-opacity:1; fill:none" points="255.977,1423.18 255.977,47.2441 "/>
<polyline clip-path="url(#clip790)" style="stroke:#000000; stroke-linecap:round; stroke-linejoin:round; stroke-width:4; stroke-opacity:1; fill:none" points="255.977,1413.43 274.875,1413.43 "/>
<polyline clip-path="url(#clip790)" style="stroke:#000000; stroke-linecap:round; stroke-linejoin:round; stroke-width:4; stroke-opacity:1; fill:none" points="255.977,1093.43 274.875,1093.43 "/>
<polyline clip-path="url(#clip790)" style="stroke:#000000; stroke-linecap:round; stroke-linejoin:round; stroke-width:4; stroke-opacity:1; fill:none" points="255.977,773.429 274.875,773.429 "/>
<polyline clip-path="url(#clip790)" style="stroke:#000000; stroke-linecap:round; stroke-linejoin:round; stroke-width:4; stroke-opacity:1; fill:none" points="255.977,453.43 274.875,453.43 "/>
<polyline clip-path="url(#clip790)" style="stroke:#000000; stroke-linecap:round; stroke-linejoin:round; stroke-width:4; stroke-opacity:1; fill:none" points="255.977,133.431 274.875,133.431 "/>
<path clip-path="url(#clip790)" d="M114.631 1413.88 L144.306 1413.88 L144.306 1417.81 L114.631 1417.81 L114.631 1413.88 Z" fill="#000000" fill-rule="nonzero" fill-opacity="1" /><path clip-path="url(#clip790)" d="M164.399 1399.22 Q160.788 1399.22 158.959 1402.79 Q157.153 1406.33 157.153 1413.46 Q157.153 1420.57 158.959 1424.13 Q160.788 1427.67 164.399 1427.67 Q168.033 1427.67 169.839 1424.13 Q171.667 1420.57 171.667 1413.46 Q171.667 1406.33 169.839 1402.79 Q168.033 1399.22 164.399 1399.22 M164.399 1395.52 Q170.209 1395.52 173.264 1400.13 Q176.343 1404.71 176.343 1413.46 Q176.343 1422.19 173.264 1426.79 Q170.209 1431.38 164.399 1431.38 Q158.589 1431.38 155.51 1426.79 Q152.454 1422.19 152.454 1413.46 Q152.454 1404.71 155.51 1400.13 Q158.589 1395.52 164.399 1395.52 Z" fill="#000000" fill-rule="nonzero" fill-opacity="1" /><path clip-path="url(#clip790)" d="M184.561 1424.83 L189.445 1424.83 L189.445 1430.71 L184.561 1430.71 L184.561 1424.83 Z" fill="#000000" fill-rule="nonzero" fill-opacity="1" /><path clip-path="url(#clip790)" d="M203.658 1426.77 L219.977 1426.77 L219.977 1430.71 L198.033 1430.71 L198.033 1426.77 Q200.695 1424.02 205.278 1419.39 Q209.885 1414.73 211.065 1413.39 Q213.311 1410.87 214.19 1409.13 Q215.093 1407.37 215.093 1405.68 Q215.093 1402.93 213.149 1401.19 Q211.227 1399.46 208.125 1399.46 Q205.926 1399.46 203.473 1400.22 Q201.042 1400.98 198.264 1402.53 L198.264 1397.81 Q201.088 1396.68 203.542 1396.1 Q205.996 1395.52 208.033 1395.52 Q213.403 1395.52 216.598 1398.21 Q219.792 1400.89 219.792 1405.38 Q219.792 1407.51 218.982 1409.43 Q218.195 1411.33 216.088 1413.92 Q215.51 1414.59 212.408 1417.81 Q209.306 1421.01 203.658 1426.77 Z" fill="#000000" fill-rule="nonzero" fill-opacity="1" /><path clip-path="url(#clip790)" d="M114.26 1093.88 L143.936 1093.88 L143.936 1097.81 L114.26 1097.81 L114.26 1093.88 Z" fill="#000000" fill-rule="nonzero" fill-opacity="1" /><path clip-path="url(#clip790)" d="M164.028 1079.23 Q160.417 1079.23 158.589 1082.79 Q156.783 1086.33 156.783 1093.46 Q156.783 1100.57 158.589 1104.13 Q160.417 1107.67 164.028 1107.67 Q167.663 1107.67 169.468 1104.13 Q171.297 1100.57 171.297 1093.46 Q171.297 1086.33 169.468 1082.79 Q167.663 1079.23 164.028 1079.23 M164.028 1075.52 Q169.839 1075.52 172.894 1080.13 Q175.973 1084.71 175.973 1093.46 Q175.973 1102.19 172.894 1106.8 Q169.839 1111.38 164.028 1111.38 Q158.218 1111.38 155.14 1106.8 Q152.084 1102.19 152.084 1093.46 Q152.084 1084.71 155.14 1080.13 Q158.218 1075.52 164.028 1075.52 Z" fill="#000000" fill-rule="nonzero" fill-opacity="1" /><path clip-path="url(#clip790)" d="M184.19 1104.83 L189.075 1104.83 L189.075 1110.71 L184.19 1110.71 L184.19 1104.83 Z" fill="#000000" fill-rule="nonzero" fill-opacity="1" /><path clip-path="url(#clip790)" d="M200.07 1106.77 L207.709 1106.77 L207.709 1080.41 L199.399 1082.07 L199.399 1077.81 L207.662 1076.15 L212.338 1076.15 L212.338 1106.77 L219.977 1106.77 L219.977 1110.71 L200.07 1110.71 L200.07 1106.77 Z" fill="#000000" fill-rule="nonzero" fill-opacity="1" /><path clip-path="url(#clip790)" d="M162.802 759.227 Q159.19 759.227 157.362 762.792 Q155.556 766.334 155.556 773.463 Q155.556 780.57 157.362 784.135 Q159.19 787.676 162.802 787.676 Q166.436 787.676 168.241 784.135 Q170.07 780.57 170.07 773.463 Q170.07 766.334 168.241 762.792 Q166.436 759.227 162.802 759.227 M162.802 755.524 Q168.612 755.524 171.667 760.13 Q174.746 764.713 174.746 773.463 Q174.746 782.19 171.667 786.797 Q168.612 791.38 162.802 791.38 Q156.991 791.38 153.913 786.797 Q150.857 782.19 150.857 773.463 Q150.857 764.713 153.913 760.13 Q156.991 755.524 162.802 755.524 Z" fill="#000000" fill-rule="nonzero" fill-opacity="1" /><path clip-path="url(#clip790)" d="M182.963 784.829 L187.848 784.829 L187.848 790.709 L182.963 790.709 L182.963 784.829 Z" fill="#000000" fill-rule="nonzero" fill-opacity="1" /><path clip-path="url(#clip790)" d="M208.033 759.227 Q204.422 759.227 202.593 762.792 Q200.787 766.334 200.787 773.463 Q200.787 780.57 202.593 784.135 Q204.422 787.676 208.033 787.676 Q211.667 787.676 213.473 784.135 Q215.301 780.57 215.301 773.463 Q215.301 766.334 213.473 762.792 Q211.667 759.227 208.033 759.227 M208.033 755.524 Q213.843 755.524 216.898 760.13 Q219.977 764.713 219.977 773.463 Q219.977 782.19 216.898 786.797 Q213.843 791.38 208.033 791.38 Q202.223 791.38 199.144 786.797 Q196.088 782.19 196.088 773.463 Q196.088 764.713 199.144 760.13 Q202.223 755.524 208.033 755.524 Z" fill="#000000" fill-rule="nonzero" fill-opacity="1" /><path clip-path="url(#clip790)" d="M164.028 439.229 Q160.417 439.229 158.589 442.793 Q156.783 446.335 156.783 453.465 Q156.783 460.571 158.589 464.136 Q160.417 467.677 164.028 467.677 Q167.663 467.677 169.468 464.136 Q171.297 460.571 171.297 453.465 Q171.297 446.335 169.468 442.793 Q167.663 439.229 164.028 439.229 M164.028 435.525 Q169.839 435.525 172.894 440.131 Q175.973 444.715 175.973 453.465 Q175.973 462.191 172.894 466.798 Q169.839 471.381 164.028 471.381 Q158.218 471.381 155.14 466.798 Q152.084 462.191 152.084 453.465 Q152.084 444.715 155.14 440.131 Q158.218 435.525 164.028 435.525 Z" fill="#000000" fill-rule="nonzero" fill-opacity="1" /><path clip-path="url(#clip790)" d="M184.19 464.83 L189.075 464.83 L189.075 470.71 L184.19 470.71 L184.19 464.83 Z" fill="#000000" fill-rule="nonzero" fill-opacity="1" /><path clip-path="url(#clip790)" d="M200.07 466.775 L207.709 466.775 L207.709 440.409 L199.399 442.076 L199.399 437.817 L207.662 436.15 L212.338 436.15 L212.338 466.775 L219.977 466.775 L219.977 470.71 L200.07 470.71 L200.07 466.775 Z" fill="#000000" fill-rule="nonzero" fill-opacity="1" /><path clip-path="url(#clip790)" d="M164.399 119.23 Q160.788 119.23 158.959 122.795 Q157.153 126.336 157.153 133.466 Q157.153 140.572 158.959 144.137 Q160.788 147.679 164.399 147.679 Q168.033 147.679 169.839 144.137 Q171.667 140.572 171.667 133.466 Q171.667 126.336 169.839 122.795 Q168.033 119.23 164.399 119.23 M164.399 115.526 Q170.209 115.526 173.264 120.133 Q176.343 124.716 176.343 133.466 Q176.343 142.193 173.264 146.799 Q170.209 151.382 164.399 151.382 Q158.589 151.382 155.51 146.799 Q152.454 142.193 152.454 133.466 Q152.454 124.716 155.51 120.133 Q158.589 115.526 164.399 115.526 Z" fill="#000000" fill-rule="nonzero" fill-opacity="1" /><path clip-path="url(#clip790)" d="M184.561 144.832 L189.445 144.832 L189.445 150.711 L184.561 150.711 L184.561 144.832 Z" fill="#000000" fill-rule="nonzero" fill-opacity="1" /><path clip-path="url(#clip790)" d="M203.658 146.776 L219.977 146.776 L219.977 150.711 L198.033 150.711 L198.033 146.776 Q200.695 144.021 205.278 139.392 Q209.885 134.739 211.065 133.396 Q213.311 130.873 214.19 129.137 Q215.093 127.378 215.093 125.688 Q215.093 122.934 213.149 121.197 Q211.227 119.461 208.125 119.461 Q205.926 119.461 203.473 120.225 Q201.042 120.989 198.264 122.54 L198.264 117.818 Q201.088 116.684 203.542 116.105 Q205.996 115.526 208.033 115.526 Q213.403 115.526 216.598 118.211 Q219.792 120.897 219.792 125.387 Q219.792 127.517 218.982 129.438 Q218.195 131.336 216.088 133.929 Q215.51 134.6 212.408 137.818 Q209.306 141.012 203.658 146.776 Z" fill="#000000" fill-rule="nonzero" fill-opacity="1" /><path clip-path="url(#clip790)" d="M20.8447 823.791 Q20.8447 830.793 26.0645 834.931 Q31.2844 839.037 40.2919 839.037 Q49.2675 839.037 54.4874 834.931 Q59.7073 830.793 59.7073 823.791 Q59.7073 816.788 54.4874 812.714 Q49.2675 808.609 40.2919 808.609 Q31.2844 808.609 26.0645 812.714 Q20.8447 816.788 20.8447 823.791 M15.6248 823.791 Q15.6248 813.797 22.3406 807.813 Q29.0246 801.829 40.2919 801.829 Q51.5274 801.829 58.2432 807.813 Q64.9272 813.797 64.9272 823.791 Q64.9272 833.817 58.2432 839.832 Q51.5592 845.816 40.2919 845.816 Q29.0246 845.816 22.3406 839.832 Q15.6248 833.817 15.6248 823.791 Z" fill="#000000" fill-rule="nonzero" fill-opacity="1" /><path clip-path="url(#clip790)" d="M49.9359 792.631 L28.3562 792.631 L28.3562 786.774 L49.7131 786.774 Q54.7739 786.774 57.3202 784.801 Q59.8346 782.827 59.8346 778.881 Q59.8346 774.138 56.8109 771.401 Q53.7872 768.632 48.5673 768.632 L28.3562 768.632 L28.3562 762.775 L64.0042 762.775 L64.0042 768.632 L58.5296 768.632 Q61.7762 770.764 63.3676 773.597 Q64.9272 776.398 64.9272 780.122 Q64.9272 786.265 61.1078 789.448 Q57.2883 792.631 49.9359 792.631 M27.4968 777.894 L27.4968 777.894 Z" fill="#000000" fill-rule="nonzero" fill-opacity="1" /><path clip-path="url(#clip790)" d="M18.2347 744.92 L28.3562 744.92 L28.3562 732.857 L32.9077 732.857 L32.9077 744.92 L52.2594 744.92 Q56.6199 744.92 57.8613 743.742 Q59.1026 742.533 59.1026 738.872 L59.1026 732.857 L64.0042 732.857 L64.0042 738.872 Q64.0042 745.652 61.4897 748.23 Q58.9434 750.808 52.2594 750.808 L32.9077 750.808 L32.9077 755.105 L28.3562 755.105 L28.3562 750.808 L18.2347 750.808 L18.2347 744.92 Z" fill="#000000" fill-rule="nonzero" fill-opacity="1" /><path clip-path="url(#clip790)" d="M58.657 719.489 L77.5631 719.489 L77.5631 725.377 L28.3562 725.377 L28.3562 719.489 L33.7671 719.489 Q30.5842 717.643 29.0564 714.842 Q27.4968 712.009 27.4968 708.094 Q27.4968 701.601 32.6531 697.559 Q37.8093 693.485 46.212 693.485 Q54.6147 693.485 59.771 697.559 Q64.9272 701.601 64.9272 708.094 Q64.9272 712.009 63.3994 714.842 Q61.8398 717.643 58.657 719.489 M46.212 699.564 Q39.7508 699.564 36.0905 702.238 Q32.3984 704.879 32.3984 709.526 Q32.3984 714.173 36.0905 716.847 Q39.7508 719.489 46.212 719.489 Q52.6732 719.489 56.3653 716.847 Q60.0256 714.173 60.0256 709.526 Q60.0256 704.879 56.3653 702.238 Q52.6732 699.564 46.212 699.564 Z" fill="#000000" fill-rule="nonzero" fill-opacity="1" /><path clip-path="url(#clip790)" d="M49.9359 684.382 L28.3562 684.382 L28.3562 678.525 L49.7131 678.525 Q54.7739 678.525 57.3202 676.552 Q59.8346 674.579 59.8346 670.632 Q59.8346 665.889 56.8109 663.152 Q53.7872 660.383 48.5673 660.383 L28.3562 660.383 L28.3562 654.527 L64.0042 654.527 L64.0042 660.383 L58.5296 660.383 Q61.7762 662.516 63.3676 665.348 Q64.9272 668.149 64.9272 671.873 Q64.9272 678.016 61.1078 681.199 Q57.2883 684.382 49.9359 684.382 M27.4968 669.645 L27.4968 669.645 Z" fill="#000000" fill-rule="nonzero" fill-opacity="1" /><path clip-path="url(#clip790)" d="M18.2347 636.671 L28.3562 636.671 L28.3562 624.608 L32.9077 624.608 L32.9077 636.671 L52.2594 636.671 Q56.6199 636.671 57.8613 635.493 Q59.1026 634.284 59.1026 630.623 L59.1026 624.608 L64.0042 624.608 L64.0042 630.623 Q64.0042 637.403 61.4897 639.981 Q58.9434 642.559 52.2594 642.559 L32.9077 642.559 L32.9077 646.856 L28.3562 646.856 L28.3562 642.559 L18.2347 642.559 L18.2347 636.671 Z" fill="#000000" fill-rule="nonzero" fill-opacity="1" /><polyline clip-path="url(#clip792)" style="stroke:#009af9; stroke-linecap:round; stroke-linejoin:round; stroke-width:4; stroke-opacity:1; fill:none" points="315.32,773.429 319.284,773.429 323.248,773.429 323.248,741.799 327.212,741.799 327.212,711.1 331.176,711.1 331.176,681.603 335.141,681.603 335.141,653.548 339.105,653.548 339.105,627.143 343.069,627.143 343.069,602.561 347.033,602.561 347.033,579.937 350.997,579.937 350.997,559.366 354.961,559.366 354.961,540.903 358.925,540.903 358.925,524.562 362.889,524.562 362.889,573.58 366.853,573.58 366.853,622.769 370.818,622.769 370.818,671.495 374.782,671.495 374.782,719.144 378.746,719.144 378.746,765.14 382.71,765.14 382.71,745.695 386.674,745.695 386.674,725.457 390.638,725.457 390.638,704.553 394.602,704.553 394.602,683.124 398.566,683.124 398.566,661.317 402.53,661.317 402.53,702.548 406.495,702.548 406.495,741.851 410.459,741.851 410.459,778.843 414.423,778.843 414.423,813.195 418.387,813.195 418.387,844.639 422.351,844.639 422.351,872.964 426.315,872.964 426.315,898.028 430.279,898.028 430.279,919.751 434.243,919.751 434.243,938.12 438.208,938.12 438.208,953.184 442.172,953.184 442.172,965.052 446.136,965.052 446.136,973.892 450.1,973.892 450.1,979.92 454.064,979.92 454.064,983.401 458.028,983.401 458.028,984.637 461.992,984.637 461.992,920.705 465.956,920.705 465.956,857.088 469.92,857.088 469.92,794.701 473.885,794.701 473.885,734.412 477.849,734.412 477.849,677.025 481.813,677.025 481.813,623.267 485.777,623.267 485.777,573.774 489.741,573.774 489.741,529.084 493.705,529.084 493.705,489.626 497.669,489.626 497.669,455.717 501.633,455.717 501.633,490.819 505.597,490.819 505.597,529.895 509.562,529.895 509.562,572.377 513.526,572.377 513.526,617.644 517.49,617.644 517.49,665.036 521.454,665.036 521.454,650.606 525.418,650.606 525.418,638.782 529.382,638.782 529.382,629.408 533.346,629.408 533.346,622.289 537.31,622.289 537.31,617.193 541.275,617.193 541.275,613.859 545.239,613.859 545.239,612.001 549.203,612.001 549.203,611.319 553.167,611.319 553.167,611.496 557.131,611.496 557.131,612.215 561.095,612.215 561.095,676.418 565.059,676.418 565.059,738.674 569.023,738.674 569.023,798.146 572.987,798.146 572.987,854.078 576.952,854.078 576.952,905.8 580.916,905.8 580.916,952.741 584.88,952.741 584.88,994.44 588.844,994.44 588.844,1030.55 592.808,1030.55 592.808,1060.83 596.772,1060.83 596.772,1085.18 600.736,1085.18 600.736,1040.33 604.7,1040.33 604.7,991.53 608.664,991.53 608.664,939.542 612.629,939.542 612.629,885.173 616.593,885.173 616.593,829.254 620.557,829.254 620.557,835.89 624.521,835.89 624.521,840.79 628.485,840.79 628.485,844.225 632.449,844.225 632.449,846.484 636.413,846.484 636.413,847.868 640.377,847.868 640.377,848.681 644.341,848.681 644.341,849.23 648.306,849.23 648.306,849.811 652.27,849.811 652.27,850.711 656.234,850.711 656.234,852.196 660.198,852.196 660.198,854.512 664.162,854.512 664.162,857.879 668.126,857.879 668.126,862.484 672.09,862.484 672.09,868.485 676.054,868.485 676.054,876.002 680.019,876.002 680.019,885.12 683.983,885.12 683.983,895.888 687.947,895.888 687.947,908.317 691.911,908.317 691.911,922.384 695.875,922.384 695.875,938.029 699.839,938.029 699.839,891.903 703.803,891.903 703.803,849.009 707.767,849.009 707.767,809.742 711.731,809.742 711.731,774.414 715.696,774.414 715.696,743.256 719.66,743.256 719.66,779.673 723.624,779.673 723.624,818.602 727.588,818.602 727.588,859.479 731.552,859.479 731.552,901.715 735.516,901.715 735.516,944.711 739.48,944.711 739.48,924.605 743.444,924.605 743.444,905.935 747.408,905.935 747.408,888.672 751.373,888.672 751.373,872.768 755.337,872.768 755.337,858.151 759.301,858.151 759.301,844.73 763.265,844.73 763.265,832.396 767.229,832.396 767.229,821.026 771.193,821.026 771.193,810.484 775.157,810.484 775.157,800.626 779.121,800.626 779.121,791.301 783.085,791.301 783.085,782.356 787.05,782.356 787.05,773.638 791.014,773.638 791.014,764.998 794.978,764.998 794.978,756.291 798.942,756.291 798.942,747.383 802.906,747.383 802.906,738.149 806.87,738.149 806.87,728.479 810.834,728.479 810.834,718.276 814.798,718.276 814.798,707.461 818.763,707.461 818.763,695.971 822.727,695.971 822.727,683.763 826.691,683.763 826.691,670.808 830.655,670.808 830.655,657.101 834.619,657.101 834.619,642.651 838.583,642.651 838.583,627.486 842.547,627.486 842.547,611.648 846.511,611.648 846.511,595.195 850.475,595.195 850.475,578.2 854.44,578.2 854.44,560.743 858.404,560.743 858.404,542.917 862.368,542.917 862.368,524.82 866.332,524.82 866.332,506.557 870.296,506.557 870.296,488.234 874.26,488.234 874.26,469.958 878.224,469.958 878.224,515.095 882.188,515.095 882.188,558.624 886.152,558.624 886.152,600.101 890.117,600.101 890.117,639.136 894.081,639.136 894.081,675.391 898.045,675.391 898.045,645.331 902.009,645.331 902.009,613.869 905.973,613.869 905.973,581.4 909.937,581.4 909.937,548.329 913.901,548.329 913.901,515.065 917.865,515.065 917.865,482.011 921.829,482.011 921.829,449.555 925.794,449.555 925.794,418.066 929.758,418.066 929.758,387.884 933.722,387.884 933.722,359.319 937.686,359.319 937.686,395.898 941.65,395.898 941.65,432.725 945.614,432.725 945.614,469.442 949.578,469.442 949.578,505.701 953.542,505.701 953.542,541.167 957.507,541.167 957.507,575.53 961.471,575.53 961.471,608.506 965.435,608.506 965.435,639.841 969.399,639.841 969.399,669.321 973.363,669.321 973.363,696.77 977.327,696.77 977.327,658.791 981.291,658.791 981.291,620.417 985.255,620.417 985.255,582.139 989.219,582.139 989.219,544.435 993.184,544.435 993.184,507.758 997.148,507.758 997.148,535.792 1001.11,535.792 1001.11,563.8 1005.08,563.8 1005.08,591.582 1009.04,591.582 1009.04,618.947 1013,618.947 1013,645.714 1016.97,645.714 1016.97,671.715 1020.93,671.715 1020.93,696.799 1024.9,696.799 1024.9,720.835 1028.86,720.835 1028.86,743.712 1032.82,743.712 1032.82,765.341 1036.79,765.341 1036.79,722.4 1040.75,722.4 1040.75,679.972 1044.72,679.972 1044.72,638.581 1048.68,638.581 1048.68,598.718 1052.65,598.718 1052.65,560.831 1056.61,560.831 1056.61,525.321 1060.57,525.321 1060.57,492.532 1064.54,492.532 1064.54,462.747 1068.5,462.747 1068.5,436.186 1072.47,436.186 1072.47,412.998 1076.43,412.998 1076.43,393.269 1080.39,393.269 1080.39,377.013 1084.36,377.013 1084.36,364.18 1088.32,364.18 1088.32,354.658 1092.29,354.658 1092.29,348.271 1096.25,348.271 1096.25,344.796 1100.21,344.796 1100.21,343.955 1104.18,343.955 1104.18,345.435 1108.14,345.435 1108.14,348.884 1112.11,348.884 1112.11,353.928 1116.07,353.928 1116.07,360.174 1120.04,360.174 1120.04,367.218 1124,367.218 1124,374.656 1127.96,374.656 1127.96,382.091 1131.93,382.091 1131.93,389.139 1135.89,389.139 1135.89,395.439 1139.86,395.439 1139.86,400.655 1143.82,400.655 1143.82,404.487 1147.78,404.487 1147.78,406.673 1151.75,406.673 1151.75,406.992 1155.71,406.992 1155.71,405.271 1159.68,405.271 1159.68,401.381 1163.64,401.381 1163.64,395.244 1167.6,395.244 1167.6,386.832 1171.57,386.832 1171.57,376.161 1175.53,376.161 1175.53,363.297 1179.5,363.297 1179.5,348.345 1183.46,348.345 1183.46,331.455 1187.43,331.455 1187.43,312.808 1191.39,312.808 1191.39,292.62 1195.35,292.62 1195.35,334.392 1199.32,334.392 1199.32,373.26 1203.28,373.26 1203.28,408.961 1207.25,408.961 1207.25,441.299 1211.21,441.299 1211.21,470.144 1215.17,470.144 1215.17,432.175 1219.14,432.175 1219.14,392.523 1223.1,392.523 1223.1,351.799 1227.07,351.799 1227.07,310.62 1231.03,310.62 1231.03,269.595 1234.99,269.595 1234.99,229.314 1238.96,229.314 1238.96,190.337 1242.92,190.337 1242.92,153.186 1246.89,153.186 1246.89,118.331 1250.85,118.331 1250.85,86.1857 1254.82,86.1857 1254.82,120.362 1258.78,120.362 1258.78,156.017 1262.74,156.017 1262.74,192.822 1266.71,192.822 1266.71,230.433 1270.67,230.433 1270.67,268.492 1274.64,268.492 1274.64,243.382 1278.6,243.382 1278.6,219.873 1282.56,219.873 1282.56,198.162 1286.53,198.162 1286.53,178.408 1290.49,178.408 1290.49,160.728 1294.46,160.728 1294.46,208.456 1298.42,208.456 1298.42,256.501 1302.38,256.501 1302.38,304.316 1306.35,304.316 1306.35,351.37 1310.31,351.37 1310.31,397.158 1314.28,397.158 1314.28,377.951 1318.24,377.951 1318.24,358.448 1322.21,358.448 1322.21,338.814 1326.17,338.814 1326.17,319.214 1330.13,319.214 1330.13,299.811 1334.1,299.811 1334.1,280.76 1338.06,280.76 1338.06,262.206 1342.03,262.206 1342.03,244.284 1345.99,244.284 1345.99,227.114 1349.95,227.114 1349.95,210.799 1353.92,210.799 1353.92,258.686 1357.88,258.686 1357.88,305.719 1361.85,305.719 1361.85,351.404 1365.81,351.404 1365.81,395.289 1369.77,395.289 1369.77,436.962 1373.74,436.962 1373.74,476.067 1377.7,476.067 1377.7,512.302 1381.67,512.302 1381.67,545.427 1385.63,545.427 1385.63,575.268 1389.6,575.268 1389.6,601.715 1393.56,601.715 1393.56,561.465 1397.52,561.465 1397.52,519.664 1401.49,519.664 1401.49,476.935 1405.45,476.935 1405.45,433.905 1409.42,433.905 1409.42,391.189 1413.38,391.189 1413.38,412.642 1417.34,412.642 1417.34,433.699 1421.31,433.699 1421.31,454.34 1425.27,454.34 1425.27,474.55 1429.24,474.55 1429.24,494.316 1433.2,494.316 1433.2,513.634 1437.16,513.634 1437.16,532.503 1441.13,532.503 1441.13,550.928 1445.09,550.928 1445.09,568.919 1449.06,568.919 1449.06,586.491 1453.02,586.491 1453.02,603.661 1456.98,603.661 1456.98,620.454 1460.95,620.454 1460.95,636.895 1464.91,636.895 1464.91,653.012 1468.88,653.012 1468.88,668.836 1472.84,668.836 1472.84,684.4 1476.81,684.4 1476.81,699.737 1480.77,699.737 1480.77,714.88 1484.73,714.88 1484.73,729.862 1488.7,729.862 1488.7,744.714 1492.66,744.714 1492.66,696.208 1496.63,696.208 1496.63,649.494 1500.59,649.494 1500.59,605.136 1504.55,605.136 1504.55,563.64 1508.52,563.64 1508.52,525.441 1512.48,525.441 1512.48,554.16 1516.45,554.16 1516.45,584.956 1520.41,584.956 1520.41,617.488 1524.37,617.488 1524.37,651.388 1528.34,651.388 1528.34,686.271 1532.3,686.271 1532.3,658.478 1536.27,658.478 1536.27,632.731 1540.23,632.731 1540.23,609.174 1544.2,609.174 1544.2,587.906 1548.16,587.906 1548.16,568.981 1552.12,568.981 1552.12,552.407 1556.09,552.407 1556.09,538.15 1560.05,538.15 1560.05,526.135 1564.02,526.135 1564.02,516.245 1567.98,516.245 1567.98,508.331 1571.94,508.331 1571.94,565.47 1575.91,565.47 1575.91,622.329 1579.87,622.329 1579.87,678.138 1583.84,678.138 1583.84,732.166 1587.8,732.166 1587.8,783.737 1591.76,783.737 1591.76,768.979 1595.73,768.979 1595.73,752.478 1599.69,752.478 1599.69,734.32 1603.66,734.32 1603.66,714.622 1607.62,714.622 1607.62,693.535 1611.59,693.535 1611.59,671.23 1615.55,671.23 1615.55,647.904 1619.51,647.904 1619.51,623.769 1623.48,623.769 1623.48,599.05 1627.44,599.05 1627.44,573.98 1631.41,573.98 1631.41,548.794 1635.37,548.794 1635.37,523.725 1639.33,523.725 1639.33,499 1643.3,499 1643.3,474.835 1647.26,474.835 1647.26,451.43 1651.23,451.43 1651.23,428.969 1655.19,428.969 1655.19,407.613 1659.15,407.613 1659.15,387.499 1663.12,387.499 1663.12,368.739 1667.08,368.739 1667.08,351.416 1671.05,351.416 1671.05,335.585 1675.01,335.585 1675.01,321.274 1678.98,321.274 1678.98,308.482 1682.94,308.482 1682.94,297.179 1686.9,297.179 1686.9,287.311 1690.87,287.311 1690.87,278.799 1694.83,278.799 1694.83,271.541 1698.8,271.541 1698.8,265.416 1702.76,265.416 1702.76,260.288 1706.72,260.288 1706.72,256.006 1710.69,256.006 1710.69,252.41 1714.65,252.41 1714.65,249.333 1718.62,249.333 1718.62,246.604 1722.58,246.604 1722.58,244.055 1726.54,244.055 1726.54,241.518 1730.51,241.518 1730.51,302.094 1734.47,302.094 1734.47,360.511 1738.44,360.511 1738.44,416.091 1742.4,416.091 1742.4,468.231 1746.37,468.231 1746.37,516.408 1750.33,516.408 1750.33,560.188 1754.29,560.188 1754.29,599.233 1758.26,599.233 1758.26,633.304 1762.22,633.304 1762.22,662.263 1766.19,662.263 1766.19,686.073 1770.15,686.073 1770.15,641.535 1774.11,641.535 1774.11,593.929 1778.08,593.929 1778.08,544.039 1782.04,544.039 1782.04,492.671 1786.01,492.671 1786.01,440.641 1789.97,440.641 1789.97,452.016 1793.93,452.016 1793.93,462.453 1797.9,462.453 1797.9,472.159 1801.86,472.159 1801.86,481.341 1805.83,481.341 1805.83,490.209 1809.79,490.209 1809.79,498.968 1813.76,498.968 1813.76,507.817 1817.72,507.817 1817.72,516.942 1821.68,516.942 1821.68,526.515 1825.65,526.515 1825.65,536.692 1829.61,536.692 1829.61,484.346 1833.58,484.346 1833.58,434.713 1837.54,434.713 1837.54,388.423 1841.5,388.423 1841.5,346.02 1845.47,346.02 1845.47,307.961 1849.43,307.961 1849.43,274.607 1853.4,274.607 1853.4,246.216 1857.36,246.216 1857.36,222.945 1861.32,222.945 1861.32,204.849 1865.29,204.849 1865.29,191.879 1869.25,191.879 1869.25,247.153 1873.22,247.153 1873.22,305.311 1877.18,305.311 1877.18,365.495 1881.15,365.495 1881.15,426.83 1885.11,426.83 1885.11,488.438 1889.07,488.438 1889.07,549.46 1893.04,549.46 1893.04,609.069 1897,609.069 1897,666.488 1900.97,666.488 1900.97,721.002 1904.93,721.002 1904.93,771.97 1908.89,771.97 1908.89,818.838 1912.86,818.838 1912.86,861.143 1916.82,861.143 1916.82,898.525 1920.79,898.525 1920.79,930.726 1924.75,930.726 1924.75,957.594 1928.71,957.594 1928.71,915.826 1932.68,915.826 1932.68,870.604 1936.64,870.604 1936.64,822.624 1940.61,822.624 1940.61,772.62 1944.57,772.62 1944.57,721.348 1948.54,721.348 1948.54,669.567 1952.5,669.567 1952.5,618.029 1956.46,618.029 1956.46,567.46 1960.43,567.46 1960.43,518.549 1964.39,518.549 1964.39,471.934 1968.36,471.934 1968.36,491.454 1972.32,491.454 1972.32,512.49 1976.28,512.49 1976.28,534.931 1980.25,534.931 1980.25,558.64 1984.21,558.64 1984.21,583.452 1988.18,583.452 1988.18,609.184 1992.14,609.184 1992.14,635.637 1996.1,635.637 1996.1,662.599 2000.07,662.599 2000.07,689.853 2004.03,689.853 2004.03,717.178 2008,717.178 2008,681.094 2011.96,681.094 2011.96,646.514 2015.93,646.514 2015.93,613.773 2019.89,613.773 2019.89,583.164 2023.85,583.164 2023.85,554.933 2027.82,554.933 2027.82,529.275 2031.78,529.275 2031.78,506.33 2035.75,506.33 2035.75,486.185 2039.71,486.185 2039.71,468.871 2043.67,468.871 2043.67,454.366 2047.64,454.366 2047.64,505.856 2051.6,505.856 2051.6,558.095 2055.57,558.095 2055.57,610.375 2059.53,610.375 2059.53,662.007 2063.49,662.007 2063.49,712.331 2067.46,712.331 2067.46,697.467 2071.42,697.467 2071.42,681.974 2075.39,681.974 2075.39,665.888 2079.35,665.888 2079.35,649.257 2083.32,649.257 2083.32,632.144 2087.28,632.144 2087.28,677.879 2091.24,677.879 2091.24,721.42 2095.21,721.42 2095.21,762.316 2099.17,762.316 2099.17,800.176 2103.14,800.176 2103.14,834.68 2107.1,834.68 2107.1,802.318 2111.06,802.318 2111.06,768.04 2115.03,768.04 2115.03,732.285 2118.99,732.285 2118.99,695.514 2122.96,695.514 2122.96,658.196 2126.92,658.196 2126.92,684.059 2130.88,684.059 2130.88,708.438 2134.85,708.438 2134.85,731.236 2138.81,731.236 2138.81,752.386 2142.78,752.386 2142.78,771.851 2146.74,771.851 2146.74,789.626 2150.7,789.626 2150.7,805.736 2154.67,805.736 2154.67,820.235 2158.63,820.235 2158.63,833.203 2162.6,833.203 2162.6,844.745 2166.56,844.745 2166.56,791.728 2170.53,791.728 2170.53,739.422 2174.49,739.422 2174.49,688.525 2178.45,688.525 2178.45,639.692 2182.42,639.692 2182.42,593.522 2186.38,593.522 2186.38,613.803 2190.35,613.803 2190.35,635.868 2194.31,635.868 2194.31,659.551 2198.27,659.551 2198.27,684.655 2202.24,684.655 2202.24,710.959 2206.2,710.959 2206.2,738.221 2210.17,738.221 2210.17,766.185 2214.13,766.185 2214.13,794.585 2218.09,794.585 2218.09,823.151 2222.06,823.151 2222.06,851.616 2226.02,851.616 2226.02,816.459 2229.99,816.459 2229.99,782.555 2233.95,782.555 2233.95,750.208 2237.92,750.208 2237.92,719.69 2241.88,719.69 2241.88,691.229 2245.84,691.229 2245.84,665.01 2249.81,665.01 2249.81,641.172 2253.77,641.172 2253.77,619.804 2257.74,619.804 2257.74,600.951 2261.7,600.951 2261.7,584.605 2265.66,584.605 2265.66,633.977 2269.63,633.977 2269.63,683.847 2273.59,683.847 2273.59,733.54 2277.56,733.54 2277.56,782.403 2281.52,782.403 2281.52,829.812 2285.48,829.812 2285.48,875.191 2289.45,875.191 2289.45,918.014 2293.41,918.014 2293.41,957.82 "/>
<polyline clip-path="url(#clip792)" style="stroke:#e26f46; stroke-linecap:round; stroke-linejoin:round; stroke-width:4; stroke-opacity:1; fill:none" points="315.32,769.971 319.284,899.95 323.248,859.765 327.212,816.535 331.176,774.718 335.141,734.44 339.105,695.706 343.069,658.514 347.033,622.863 350.997,588.747 354.961,556.16 358.925,525.346 362.889,559.771 366.853,594.959 370.818,629.178 374.782,662.369 378.746,694.265 382.71,661.383 386.674,628.175 390.638,596.355 394.602,565.962 398.566,537.243 402.53,573.663 406.495,610.749 410.459,646.768 414.423,681.662 418.387,715.421 422.351,748.036 426.315,779.503 430.279,809.815 434.243,838.974 438.208,866.977 442.172,893.826 446.136,919.526 450.1,944.081 454.064,967.498 458.028,989.531 461.992,946.713 465.956,903.518 469.92,861.674 473.885,821.238 477.849,782.219 481.813,744.622 485.777,708.449 489.741,673.701 493.705,640.375 497.669,608.723 501.633,642.213 505.597,676.378 509.562,709.488 513.526,741.49 517.49,772.123 521.454,737.906 525.418,703.298 529.382,670.017 533.346,638.107 537.31,607.565 541.275,578.385 545.239,550.559 549.203,524.077 553.167,498.928 557.131,475.353 561.095,516.813 565.059,558.831 569.023,599.672 572.987,639.275 576.952,677.625 580.916,714.712 584.88,750.528 588.844,785.068 592.808,818.327 596.772,850.051 600.736,816.765 604.7,782.93 608.664,750.272 612.629,718.837 616.593,688.882 620.557,723.882 624.521,759.373 628.485,793.631 632.449,826.608 636.413,858.302 640.377,888.713 644.341,917.845 648.306,945.702 652.27,972.291 656.234,997.62 660.198,1021.7 664.162,1044.54 668.126,1066.16 672.09,1086.56 676.054,1105.77 680.019,1123.79 683.983,1140.66 687.947,1156.39 691.911,1170.99 695.875,1184.23 699.839,1132.67 703.803,1080.79 707.767,1030.31 711.731,981.325 715.696,934.092 719.66,952.105 723.624,970.916 727.588,988.814 731.552,1005.76 735.516,1021.52 739.48,972.618 743.444,923.534 747.408,875.998 751.373,830.069 755.337,785.754 759.301,743.06 763.265,701.989 767.229,662.542 771.193,624.716 775.157,588.507 779.121,553.908 783.085,520.909 787.05,489.499 791.014,459.665 794.978,431.392 798.942,404.663 802.906,379.459 806.87,355.76 810.834,333.544 814.798,312.787 818.763,293.466 822.727,275.555 826.691,259.026 830.655,243.851 834.619,230.002 838.583,217.448 842.547,206.159 846.511,196.102 850.475,187.247 854.44,179.56 858.404,173.008 862.368,167.557 866.332,163.173 870.296,159.821 874.26,157.721 878.224,220.314 882.188,283.103 886.152,344.335 890.117,403.932 894.081,461.612 898.045,453.874 902.009,445.158 905.973,437.165 909.937,429.923 913.901,423.417 917.865,417.626 921.829,412.533 925.794,408.118 929.758,404.362 933.722,401.499 937.686,462.986 941.65,524.34 945.614,583.824 949.578,641.375 953.542,696.977 957.507,750.621 961.471,802.301 965.435,852.013 969.399,899.756 973.363,945.282 977.327,925.118 981.291,903.734 985.255,882.862 989.219,862.555 993.184,843.079 997.148,887.918 1001.11,932.617 1005.08,975.464 1009.04,1016.42 1013,1055.49 1016.97,1092.7 1020.93,1128.05 1024.9,1161.57 1028.86,1193.26 1032.82,1222.92 1036.79,1187.06 1040.75,1150.2 1044.72,1114.06 1048.68,1078.73 1052.65,1044.22 1056.61,1010.56 1060.57,977.765 1064.54,945.853 1068.5,914.837 1072.47,884.732 1076.43,855.548 1080.39,827.294 1084.36,799.977 1088.32,773.604 1092.29,748.177 1096.25,723.7 1100.21,700.173 1104.18,677.596 1108.14,655.966 1112.11,635.28 1116.07,615.534 1120.04,596.72 1124,578.833 1127.96,561.863 1131.93,545.801 1135.89,530.637 1139.86,516.36 1143.82,502.956 1147.78,490.413 1151.75,478.716 1155.71,467.852 1159.68,457.804 1163.64,448.556 1167.6,440.092 1171.57,432.394 1175.53,425.444 1179.5,419.225 1183.46,413.718 1187.43,408.903 1191.39,405.015 1195.35,465.51 1199.32,525.908 1203.28,584.469 1207.25,641.132 1211.21,695.627 1215.17,684.47 1219.14,672.113 1223.1,660.273 1227.07,648.991 1231.03,638.265 1234.99,628.089 1238.96,618.458 1242.92,609.366 1246.89,600.805 1250.85,593.022 1254.82,649.485 1258.78,705.724 1262.74,760.013 1266.71,812.299 1270.67,862.325 1274.64,846.615 1278.6,829.634 1282.56,813.107 1286.53,797.085 1290.49,781.829 1294.46,830.819 1298.42,879.595 1302.38,926.443 1306.35,971.321 1310.31,1013.98 1314.28,990.958 1318.24,966.725 1322.21,943.016 1326.17,919.89 1330.13,897.363 1334.1,875.445 1338.06,854.146 1342.03,833.475 1345.99,813.44 1349.95,794.3 1353.92,839.537 1357.88,884.692 1361.85,928.051 1365.81,969.571 1369.77,1009.26 1373.74,1047.13 1377.7,1083.18 1381.67,1117.45 1385.63,1149.93 1389.6,1180.4 1393.56,1145.41 1397.52,1109.43 1401.49,1074.21 1405.45,1039.81 1409.42,1006.52 1413.38,1037.83 1417.34,1069.29 1421.31,1099.2 1425.27,1127.53 1429.24,1154.29 1433.2,1179.51 1437.16,1203.2 1441.13,1225.4 1445.09,1246.11 1449.06,1265.37 1453.02,1283.21 1456.98,1299.65 1460.95,1314.72 1464.91,1328.46 1468.88,1340.88 1472.84,1352.03 1476.81,1361.93 1480.77,1370.62 1484.73,1378.13 1488.7,1384.24 1492.66,1325.51 1496.63,1266.44 1500.59,1208.78 1504.55,1152.6 1508.52,1098.2 1512.48,1109.06 1516.45,1120.76 1520.41,1131.6 1524.37,1141.54 1528.34,1150.34 1532.3,1094.57 1536.27,1038.68 1540.23,984.435 1544.2,931.886 1548.16,881.052 1552.12,831.944 1556.09,784.571 1560.05,738.939 1564.02,695.049 1567.98,653.157 1571.94,676.734 1575.91,701.315 1579.87,725.173 1583.84,748.256 1587.8,770.303 1591.76,727.835 1595.73,685.31 1599.69,644.444 1603.66,605.282 1607.62,567.817 1611.59,532.042 1615.55,497.946 1619.51,465.517 1623.48,434.74 1627.44,405.598 1631.41,378.073 1635.37,352.144 1639.33,327.79 1643.3,304.987 1647.26,283.711 1651.23,263.934 1655.19,245.629 1659.15,228.768 1663.12,213.32 1667.08,199.255 1671.05,186.541 1675.01,175.144 1678.98,165.033 1682.94,156.172 1686.9,148.527 1690.87,142.063 1694.83,136.743 1698.8,132.533 1702.76,129.396 1706.72,127.294 1710.69,126.192 1714.65,126.052 1718.62,126.838 1722.58,128.512 1726.54,131.292 1730.51,198.617 1734.47,265.988 1738.44,331.653 1742.4,395.531 1746.37,457.593 1750.33,517.814 1754.29,576.172 1758.26,632.652 1762.22,687.237 1766.19,739.666 1770.15,726.453 1774.11,712.056 1778.08,698.194 1782.04,684.91 1786.01,672.458 1789.97,724.31 1793.93,776.002 1797.9,825.811 1801.86,873.69 1805.83,919.639 1809.79,963.661 1813.76,1005.76 1817.72,1045.96 1821.68,1084.25 1825.65,1120.41 1829.61,1090.98 1833.58,1060.43 1837.54,1030.5 1841.5,1001.26 1845.47,972.735 1849.43,944.932 1853.4,917.87 1857.36,891.561 1861.32,866.016 1865.29,841.498 1869.25,881.492 1873.22,921.543 1877.18,959.938 1881.15,996.637 1885.11,1031.65 1889.07,1064.99 1893.04,1096.66 1897,1126.69 1900.97,1155.09 1904.93,1181.88 1908.89,1207.08 1912.86,1230.72 1916.82,1252.81 1920.79,1273.39 1924.75,1292.23 1928.71,1245.88 1932.68,1198.83 1936.64,1152.82 1940.61,1107.94 1944.57,1064.21 1948.54,1021.65 1952.5,980.286 1956.46,940.129 1960.43,901.196 1964.39,863.753 1968.36,891.287 1972.32,919.343 1976.28,946.209 1980.25,971.845 1984.21,996.259 1988.18,1019.46 1992.14,1041.46 1996.1,1062.27 2000.07,1081.91 2004.03,1100.13 2008,1053.48 2011.96,1006.44 2015.93,960.742 2019.89,916.447 2023.85,873.573 2027.82,832.129 2031.78,792.124 2035.75,753.564 2039.71,716.452 2043.67,681.042 2047.64,710.809 2051.6,741.289 2055.57,770.758 2059.53,799.165 2063.49,826.253 2067.46,788.546 2071.42,750.505 2075.39,713.851 2079.35,678.632 2083.32,645.099 2087.28,676.727 2091.24,709.047 2095.21,740.334 2099.17,770.536 2103.14,799.394 2107.1,763.429 2111.06,727.102 2115.03,692.131 2118.99,658.563 2122.96,626.649 2126.92,659.861 2130.88,693.73 2134.85,726.53 2138.81,758.208 2142.78,788.757 2146.74,818.174 2150.7,846.458 2154.67,873.609 2158.63,899.629 2162.6,924.27 2166.56,884.058 2170.53,843.464 2174.49,804.214 2178.45,766.359 2182.42,730.159 2186.38,759.092 2190.35,788.695 2194.31,817.249 2198.27,844.705 2202.24,871.063 2206.2,896.325 2210.17,920.495 2214.13,943.577 2218.09,965.579 2222.06,986.254 2226.02,942.136 2229.99,897.698 2233.95,854.668 2237.92,813.102 2241.88,773.01 2245.84,734.394 2249.81,697.258 2253.77,661.601 2257.74,627.42 2261.7,594.965 2265.66,627.705 2269.63,661.17 2273.59,693.631 2277.56,725.033 2281.52,755.368 2285.48,784.631 2289.45,812.817 2293.41,839.926 "/>
<polyline clip-path="url(#clip792)" style="stroke:#3da44d; stroke-linecap:round; stroke-linejoin:round; stroke-width:4; stroke-opacity:1; fill:none" points="315.32,773.429 319.284,773.429 323.248,741.799 327.212,711.1 331.176,681.603 335.141,653.548 339.105,627.143 343.069,602.561 347.033,579.937 350.997,559.366 354.961,540.903 358.925,524.562 362.889,573.58 366.853,622.769 370.818,671.495 374.782,719.144 378.746,765.14 382.71,745.695 386.674,725.457 390.638,704.553 394.602,683.124 398.566,661.317 402.53,702.548 406.495,741.851 410.459,778.843 414.423,813.195 418.387,844.639 422.351,872.964 426.315,898.028 430.279,919.751 434.243,938.12 438.208,953.184 442.172,965.052 446.136,973.892 450.1,979.92 454.064,983.401 458.028,984.637 461.992,920.705 465.956,857.088 469.92,794.701 473.885,734.412 477.849,677.025 481.813,623.267 485.777,573.774 489.741,529.084 493.705,489.626 497.669,455.717 501.633,490.819 505.597,529.895 509.562,572.377 513.526,617.644 517.49,665.036 521.454,650.606 525.418,638.782 529.382,629.408 533.346,622.289 537.31,617.193 541.275,613.859 545.239,612.001 549.203,611.319 553.167,611.496 557.131,612.215 561.095,676.418 565.059,738.674 569.023,798.146 572.987,854.078 576.952,905.8 580.916,952.741 584.88,994.44 588.844,1030.55 592.808,1060.83 596.772,1085.18 600.736,1040.33 604.7,991.53 608.664,939.542 612.629,885.173 616.593,829.254 620.557,835.89 624.521,840.79 628.485,844.225 632.449,846.484 636.413,847.868 640.377,848.681 644.341,849.23 648.306,849.811 652.27,850.711 656.234,852.196 660.198,854.512 664.162,857.879 668.126,862.484 672.09,868.485 676.054,876.002 680.019,885.12 683.983,895.888 687.947,908.317 691.911,922.384 695.875,938.029 699.839,891.903 703.803,849.009 707.767,809.742 711.731,774.414 715.696,743.256 719.66,779.673 723.624,818.602 727.588,859.479 731.552,901.715 735.516,944.711 739.48,924.605 743.444,905.935 747.408,888.672 751.373,872.768 755.337,858.151 759.301,844.73 763.265,832.396 767.229,821.026 771.193,810.484 775.157,800.626 779.121,791.301 783.085,782.356 787.05,773.638 791.014,764.998 794.978,756.291 798.942,747.383 802.906,738.149 806.87,728.479 810.834,718.276 814.798,707.461 818.763,695.971 822.727,683.763 826.691,670.808 830.655,657.101 834.619,642.651 838.583,627.486 842.547,611.648 846.511,595.195 850.475,578.2 854.44,560.743 858.404,542.917 862.368,524.82 866.332,506.557 870.296,488.234 874.26,469.958 878.224,515.095 882.188,558.624 886.152,600.101 890.117,639.136 894.081,675.391 898.045,645.331 902.009,613.869 905.973,581.4 909.937,548.329 913.901,515.065 917.865,482.011 921.829,449.555 925.794,418.066 929.758,387.884 933.722,359.319 937.686,395.898 941.65,432.725 945.614,469.442 949.578,505.701 953.542,541.167 957.507,575.53 961.471,608.506 965.435,639.841 969.399,669.321 973.363,696.77 977.327,658.791 981.291,620.417 985.255,582.139 989.219,544.435 993.184,507.758 997.148,535.792 1001.11,563.8 1005.08,591.582 1009.04,618.947 1013,645.714 1016.97,671.715 1020.93,696.799 1024.9,720.835 1028.86,743.712 1032.82,765.341 1036.79,722.4 1040.75,679.972 1044.72,638.581 1048.68,598.718 1052.65,560.831 1056.61,525.321 1060.57,492.532 1064.54,462.747 1068.5,436.186 1072.47,412.998 1076.43,393.269 1080.39,377.013 1084.36,364.18 1088.32,354.658 1092.29,348.271 1096.25,344.796 1100.21,343.955 1104.18,345.435 1108.14,348.884 1112.11,353.928 1116.07,360.174 1120.04,367.218 1124,374.656 1127.96,382.091 1131.93,389.139 1135.89,395.439 1139.86,400.655 1143.82,404.487 1147.78,406.673 1151.75,406.992 1155.71,405.271 1159.68,401.381 1163.64,395.244 1167.6,386.832 1171.57,376.161 1175.53,363.297 1179.5,348.345 1183.46,331.455 1187.43,312.808 1191.39,292.62 1195.35,334.392 1199.32,373.26 1203.28,408.961 1207.25,441.299 1211.21,470.144 1215.17,432.175 1219.14,392.523 1223.1,351.799 1227.07,310.62 1231.03,269.595 1234.99,229.314 1238.96,190.337 1242.92,153.186 1246.89,118.331 1250.85,86.1857 1254.82,120.362 1258.78,156.017 1262.74,192.822 1266.71,230.433 1270.67,268.492 1274.64,243.382 1278.6,219.873 1282.56,198.162 1286.53,178.408 1290.49,160.728 1294.46,208.456 1298.42,256.501 1302.38,304.316 1306.35,351.37 1310.31,397.158 1314.28,377.951 1318.24,358.448 1322.21,338.814 1326.17,319.214 1330.13,299.811 1334.1,280.76 1338.06,262.206 1342.03,244.284 1345.99,227.114 1349.95,210.799 1353.92,258.686 1357.88,305.719 1361.85,351.404 1365.81,395.289 1369.77,436.962 1373.74,476.067 1377.7,512.302 1381.67,545.427 1385.63,575.268 1389.6,601.715 1393.56,561.465 1397.52,519.664 1401.49,476.935 1405.45,433.905 1409.42,391.189 1413.38,412.642 1417.34,433.699 1421.31,454.34 1425.27,474.55 1429.24,494.316 1433.2,513.634 1437.16,532.503 1441.13,550.928 1445.09,568.919 1449.06,586.491 1453.02,603.661 1456.98,620.454 1460.95,636.895 1464.91,653.012 1468.88,668.836 1472.84,684.4 1476.81,699.737 1480.77,714.88 1484.73,729.862 1488.7,744.714 1492.66,696.208 1496.63,649.494 1500.59,605.136 1504.55,563.64 1508.52,525.441 1512.48,554.16 1516.45,584.956 1520.41,617.488 1524.37,651.388 1528.34,686.271 1532.3,658.478 1536.27,632.731 1540.23,609.174 1544.2,587.906 1548.16,568.981 1552.12,552.407 1556.09,538.15 1560.05,526.135 1564.02,516.245 1567.98,508.331 1571.94,565.47 1575.91,622.329 1579.87,678.138 1583.84,732.166 1587.8,783.737 1591.76,768.979 1595.73,752.478 1599.69,734.32 1603.66,714.622 1607.62,693.535 1611.59,671.23 1615.55,647.904 1619.51,623.769 1623.48,599.05 1627.44,573.98 1631.41,548.794 1635.37,523.725 1639.33,499 1643.3,474.835 1647.26,451.43 1651.23,428.969 1655.19,407.613 1659.15,387.499 1663.12,368.739 1667.08,351.416 1671.05,335.585 1675.01,321.274 1678.98,308.482 1682.94,297.179 1686.9,287.311 1690.87,278.799 1694.83,271.541 1698.8,265.416 1702.76,260.288 1706.72,256.006 1710.69,252.41 1714.65,249.333 1718.62,246.604 1722.58,244.055 1726.54,241.518 1730.51,302.094 1734.47,360.511 1738.44,416.091 1742.4,468.231 1746.37,516.408 1750.33,560.188 1754.29,599.233 1758.26,633.304 1762.22,662.263 1766.19,686.073 1770.15,641.535 1774.11,593.929 1778.08,544.039 1782.04,492.671 1786.01,440.641 1789.97,452.016 1793.93,462.453 1797.9,472.159 1801.86,481.341 1805.83,490.209 1809.79,498.968 1813.76,507.817 1817.72,516.942 1821.68,526.515 1825.65,536.692 1829.61,484.346 1833.58,434.713 1837.54,388.423 1841.5,346.02 1845.47,307.961 1849.43,274.607 1853.4,246.216 1857.36,222.945 1861.32,204.849 1865.29,191.879 1869.25,247.153 1873.22,305.311 1877.18,365.495 1881.15,426.83 1885.11,488.438 1889.07,549.46 1893.04,609.069 1897,666.488 1900.97,721.002 1904.93,771.97 1908.89,818.838 1912.86,861.143 1916.82,898.525 1920.79,930.726 1924.75,957.594 1928.71,915.826 1932.68,870.604 1936.64,822.624 1940.61,772.62 1944.57,721.348 1948.54,669.567 1952.5,618.029 1956.46,567.46 1960.43,518.549 1964.39,471.934 1968.36,491.454 1972.32,512.49 1976.28,534.931 1980.25,558.64 1984.21,583.452 1988.18,609.184 1992.14,635.637 1996.1,662.599 2000.07,689.853 2004.03,717.178 2008,681.094 2011.96,646.514 2015.93,613.773 2019.89,583.164 2023.85,554.933 2027.82,529.275 2031.78,506.33 2035.75,486.185 2039.71,468.871 2043.67,454.366 2047.64,505.856 2051.6,558.095 2055.57,610.375 2059.53,662.007 2063.49,712.331 2067.46,697.467 2071.42,681.974 2075.39,665.888 2079.35,649.257 2083.32,632.144 2087.28,677.879 2091.24,721.42 2095.21,762.316 2099.17,800.176 2103.14,834.68 2107.1,802.318 2111.06,768.04 2115.03,732.285 2118.99,695.514 2122.96,658.196 2126.92,684.059 2130.88,708.438 2134.85,731.236 2138.81,752.386 2142.78,771.851 2146.74,789.626 2150.7,805.736 2154.67,820.235 2158.63,833.203 2162.6,844.745 2166.56,791.728 2170.53,739.422 2174.49,688.525 2178.45,639.692 2182.42,593.522 2186.38,613.803 2190.35,635.868 2194.31,659.551 2198.27,684.655 2202.24,710.959 2206.2,738.221 2210.17,766.185 2214.13,794.585 2218.09,823.151 2222.06,851.616 2226.02,816.459 2229.99,782.555 2233.95,750.208 2237.92,719.69 2241.88,691.229 2245.84,665.01 2249.81,641.172 2253.77,619.804 2257.74,600.951 2261.7,584.605 2265.66,633.977 2269.63,683.847 2273.59,733.54 2277.56,782.403 2281.52,829.812 2285.48,875.191 2289.45,918.014 2293.41,957.82 "/>
<path clip-path="url(#clip790)" d="M325.87 300.469 L1442.86 300.469 L1442.86 93.1086 L325.87 93.1086  Z" fill="#ffffff" fill-rule="evenodd" fill-opacity="1"/>
<polyline clip-path="url(#clip790)" style="stroke:#000000; stroke-linecap:round; stroke-linejoin:round; stroke-width:4; stroke-opacity:1; fill:none" points="325.87,300.469 1442.86,300.469 1442.86,93.1086 325.87,93.1086 325.87,300.469 "/>
<polyline clip-path="url(#clip790)" style="stroke:#009af9; stroke-linecap:round; stroke-linejoin:round; stroke-width:4; stroke-opacity:1; fill:none" points="349.167,144.949 488.953,144.949 "/>
<path clip-path="url(#clip790)" d="M516.926 131.511 L516.926 158.386 L522.574 158.386 Q529.727 158.386 533.037 155.145 Q536.37 151.905 536.37 144.914 Q536.37 137.969 533.037 134.752 Q529.727 131.511 522.574 131.511 L516.926 131.511 M512.25 127.669 L521.857 127.669 Q531.903 127.669 536.602 131.858 Q541.301 136.025 541.301 144.914 Q541.301 153.849 536.579 158.039 Q531.857 162.229 521.857 162.229 L512.25 162.229 L512.25 127.669 Z" fill="#000000" fill-rule="nonzero" fill-opacity="1" /><path clip-path="url(#clip790)" d="M560.352 149.196 Q555.19 149.196 553.199 150.377 Q551.208 151.557 551.208 154.405 Q551.208 156.673 552.69 158.016 Q554.194 159.335 556.764 159.335 Q560.305 159.335 562.435 156.835 Q564.588 154.312 564.588 150.145 L564.588 149.196 L560.352 149.196 M568.847 147.437 L568.847 162.229 L564.588 162.229 L564.588 158.293 Q563.129 160.655 560.954 161.789 Q558.778 162.9 555.63 162.9 Q551.648 162.9 549.287 160.678 Q546.949 158.432 546.949 154.682 Q546.949 150.307 549.866 148.085 Q552.805 145.863 558.616 145.863 L564.588 145.863 L564.588 145.446 Q564.588 142.507 562.643 140.909 Q560.722 139.289 557.227 139.289 Q555.005 139.289 552.898 139.821 Q550.792 140.354 548.847 141.419 L548.847 137.483 Q551.185 136.581 553.384 136.141 Q555.583 135.678 557.667 135.678 Q563.292 135.678 566.069 138.594 Q568.847 141.511 568.847 147.437 Z" fill="#000000" fill-rule="nonzero" fill-opacity="1" /><path clip-path="url(#clip790)" d="M581.833 128.942 L581.833 136.303 L590.606 136.303 L590.606 139.613 L581.833 139.613 L581.833 153.687 Q581.833 156.858 582.69 157.761 Q583.569 158.664 586.231 158.664 L590.606 158.664 L590.606 162.229 L586.231 162.229 Q581.301 162.229 579.426 160.4 Q577.551 158.548 577.551 153.687 L577.551 139.613 L574.426 139.613 L574.426 136.303 L577.551 136.303 L577.551 128.942 L581.833 128.942 Z" fill="#000000" fill-rule="nonzero" fill-opacity="1" /><path clip-path="url(#clip790)" d="M607.99 149.196 Q602.828 149.196 600.838 150.377 Q598.847 151.557 598.847 154.405 Q598.847 156.673 600.328 158.016 Q601.833 159.335 604.402 159.335 Q607.944 159.335 610.074 156.835 Q612.226 154.312 612.226 150.145 L612.226 149.196 L607.99 149.196 M616.486 147.437 L616.486 162.229 L612.226 162.229 L612.226 158.293 Q610.768 160.655 608.592 161.789 Q606.416 162.9 603.268 162.9 Q599.287 162.9 596.926 160.678 Q594.588 158.432 594.588 154.682 Q594.588 150.307 597.504 148.085 Q600.444 145.863 606.254 145.863 L612.226 145.863 L612.226 145.446 Q612.226 142.507 610.282 140.909 Q608.361 139.289 604.865 139.289 Q602.643 139.289 600.537 139.821 Q598.43 140.354 596.486 141.419 L596.486 137.483 Q598.824 136.581 601.023 136.141 Q603.222 135.678 605.305 135.678 Q610.93 135.678 613.708 138.594 Q616.486 141.511 616.486 147.437 Z" fill="#000000" fill-rule="nonzero" fill-opacity="1" /><polyline clip-path="url(#clip790)" style="stroke:#e26f46; stroke-linecap:round; stroke-linejoin:round; stroke-width:4; stroke-opacity:1; fill:none" points="349.167,196.789 488.953,196.789 "/>
<path clip-path="url(#clip790)" d="M528.083 184.115 L521.741 201.314 L534.449 201.314 L528.083 184.115 M525.445 179.509 L530.745 179.509 L543.917 214.069 L539.056 214.069 L535.907 205.203 L520.329 205.203 L517.181 214.069 L512.25 214.069 L525.445 179.509 Z" fill="#000000" fill-rule="nonzero" fill-opacity="1" /><path clip-path="url(#clip790)" d="M565.352 197.865 Q566.856 198.374 568.268 200.041 Q569.704 201.708 571.139 204.624 L575.884 214.069 L570.861 214.069 L566.44 205.203 Q564.727 201.731 563.106 200.596 Q561.509 199.462 558.731 199.462 L553.639 199.462 L553.639 214.069 L548.963 214.069 L548.963 179.509 L559.518 179.509 Q565.444 179.509 568.361 181.985 Q571.278 184.462 571.278 189.462 Q571.278 192.726 569.75 194.879 Q568.245 197.032 565.352 197.865 M553.639 183.351 L553.639 195.62 L559.518 195.62 Q562.898 195.62 564.611 194.069 Q566.347 192.495 566.347 189.462 Q566.347 186.43 564.611 184.902 Q562.898 183.351 559.518 183.351 L553.639 183.351 Z" fill="#000000" fill-rule="nonzero" fill-opacity="1" /><path clip-path="url(#clip790)" d="M580.236 179.509 L585.259 179.509 L593.847 192.356 L602.481 179.509 L607.504 179.509 L596.393 196.106 L608.245 214.069 L603.222 214.069 L593.5 199.37 L583.708 214.069 L578.662 214.069 L591 195.62 L580.236 179.509 Z" fill="#000000" fill-rule="nonzero" fill-opacity="1" /><path clip-path="url(#clip790)" d="M649.448 193.12 Q651.046 190.249 653.268 188.884 Q655.49 187.518 658.499 187.518 Q662.55 187.518 664.749 190.365 Q666.948 193.189 666.948 198.421 L666.948 214.069 L662.666 214.069 L662.666 198.559 Q662.666 194.833 661.347 193.027 Q660.027 191.222 657.319 191.222 Q654.009 191.222 652.087 193.421 Q650.166 195.62 650.166 199.416 L650.166 214.069 L645.884 214.069 L645.884 198.559 Q645.884 194.809 644.564 193.027 Q643.245 191.222 640.49 191.222 Q637.226 191.222 635.305 193.444 Q633.384 195.643 633.384 199.416 L633.384 214.069 L629.101 214.069 L629.101 188.143 L633.384 188.143 L633.384 192.171 Q634.842 189.786 636.879 188.652 Q638.916 187.518 641.717 187.518 Q644.541 187.518 646.509 188.953 Q648.499 190.388 649.448 193.12 Z" fill="#000000" fill-rule="nonzero" fill-opacity="1" /><path clip-path="url(#clip790)" d="M685.49 191.129 Q682.064 191.129 680.073 193.814 Q678.083 196.476 678.083 201.129 Q678.083 205.782 680.05 208.467 Q682.041 211.129 685.49 211.129 Q688.893 211.129 690.883 208.444 Q692.874 205.758 692.874 201.129 Q692.874 196.522 690.883 193.837 Q688.893 191.129 685.49 191.129 M685.49 187.518 Q691.045 187.518 694.217 191.129 Q697.388 194.74 697.388 201.129 Q697.388 207.495 694.217 211.129 Q691.045 214.74 685.49 214.74 Q679.911 214.74 676.74 211.129 Q673.592 207.495 673.592 201.129 Q673.592 194.74 676.74 191.129 Q679.911 187.518 685.49 187.518 Z" fill="#000000" fill-rule="nonzero" fill-opacity="1" /><path clip-path="url(#clip790)" d="M721.508 192.078 L721.508 178.05 L725.768 178.05 L725.768 214.069 L721.508 214.069 L721.508 210.18 Q720.166 212.495 718.106 213.629 Q716.068 214.74 713.198 214.74 Q708.499 214.74 705.536 210.99 Q702.596 207.24 702.596 201.129 Q702.596 195.018 705.536 191.268 Q708.499 187.518 713.198 187.518 Q716.068 187.518 718.106 188.652 Q720.166 189.763 721.508 192.078 M706.994 201.129 Q706.994 205.828 708.916 208.513 Q710.86 211.175 714.24 211.175 Q717.619 211.175 719.564 208.513 Q721.508 205.828 721.508 201.129 Q721.508 196.43 719.564 193.768 Q717.619 191.083 714.24 191.083 Q710.86 191.083 708.916 193.768 Q706.994 196.43 706.994 201.129 Z" fill="#000000" fill-rule="nonzero" fill-opacity="1" /><path clip-path="url(#clip790)" d="M756.716 200.041 L756.716 202.124 L737.133 202.124 Q737.411 206.522 739.772 208.837 Q742.156 211.129 746.392 211.129 Q748.846 211.129 751.138 210.527 Q753.453 209.925 755.721 208.721 L755.721 212.749 Q753.429 213.721 751.022 214.231 Q748.615 214.74 746.138 214.74 Q739.934 214.74 736.3 211.129 Q732.689 207.518 732.689 201.36 Q732.689 194.995 736.115 191.268 Q739.564 187.518 745.397 187.518 Q750.628 187.518 753.661 190.897 Q756.716 194.254 756.716 200.041 M752.457 198.791 Q752.411 195.296 750.49 193.212 Q748.591 191.129 745.443 191.129 Q741.879 191.129 739.726 193.143 Q737.596 195.157 737.272 198.814 L752.457 198.791 Z" fill="#000000" fill-rule="nonzero" fill-opacity="1" /><path clip-path="url(#clip790)" d="M763.707 178.05 L767.966 178.05 L767.966 214.069 L763.707 214.069 L763.707 178.05 Z" fill="#000000" fill-rule="nonzero" fill-opacity="1" /><path clip-path="url(#clip790)" d="M808.475 188.907 L808.475 192.934 Q806.67 192.009 804.725 191.546 Q802.781 191.083 800.698 191.083 Q797.526 191.083 795.929 192.055 Q794.355 193.027 794.355 194.971 Q794.355 196.453 795.489 197.309 Q796.624 198.143 800.05 198.907 L801.508 199.231 Q806.045 200.203 807.943 201.985 Q809.864 203.745 809.864 206.916 Q809.864 210.527 806.994 212.633 Q804.147 214.74 799.147 214.74 Q797.063 214.74 794.795 214.323 Q792.55 213.93 790.05 213.12 L790.05 208.721 Q792.411 209.948 794.702 210.573 Q796.994 211.175 799.239 211.175 Q802.249 211.175 803.869 210.157 Q805.489 209.115 805.489 207.24 Q805.489 205.504 804.309 204.578 Q803.151 203.652 799.193 202.796 L797.712 202.448 Q793.753 201.615 791.994 199.902 Q790.235 198.166 790.235 195.157 Q790.235 191.499 792.827 189.509 Q795.42 187.518 800.188 187.518 Q802.55 187.518 804.633 187.865 Q806.716 188.212 808.475 188.907 Z" fill="#000000" fill-rule="nonzero" fill-opacity="1" /><path clip-path="url(#clip790)" d="M816.647 188.143 L820.906 188.143 L820.906 214.069 L816.647 214.069 L816.647 188.143 M816.647 178.05 L820.906 178.05 L820.906 183.444 L816.647 183.444 L816.647 178.05 Z" fill="#000000" fill-rule="nonzero" fill-opacity="1" /><path clip-path="url(#clip790)" d="M850.003 193.12 Q851.6 190.249 853.822 188.884 Q856.045 187.518 859.054 187.518 Q863.105 187.518 865.304 190.365 Q867.503 193.189 867.503 198.421 L867.503 214.069 L863.22 214.069 L863.22 198.559 Q863.22 194.833 861.901 193.027 Q860.582 191.222 857.873 191.222 Q854.563 191.222 852.642 193.421 Q850.721 195.62 850.721 199.416 L850.721 214.069 L846.438 214.069 L846.438 198.559 Q846.438 194.809 845.119 193.027 Q843.799 191.222 841.045 191.222 Q837.781 191.222 835.86 193.444 Q833.938 195.643 833.938 199.416 L833.938 214.069 L829.656 214.069 L829.656 188.143 L833.938 188.143 L833.938 192.171 Q835.397 189.786 837.434 188.652 Q839.471 187.518 842.272 187.518 Q845.096 187.518 847.063 188.953 Q849.054 190.388 850.003 193.12 Z" fill="#000000" fill-rule="nonzero" fill-opacity="1" /><path clip-path="url(#clip790)" d="M904.192 178.05 L904.192 181.592 L900.118 181.592 Q897.827 181.592 896.924 182.518 Q896.044 183.444 896.044 185.851 L896.044 188.143 L903.058 188.143 L903.058 191.453 L896.044 191.453 L896.044 214.069 L891.762 214.069 L891.762 191.453 L887.688 191.453 L887.688 188.143 L891.762 188.143 L891.762 186.337 Q891.762 182.009 893.776 180.041 Q895.79 178.05 900.165 178.05 L904.192 178.05 Z" fill="#000000" fill-rule="nonzero" fill-opacity="1" /><path clip-path="url(#clip790)" d="M907.757 188.143 L912.017 188.143 L912.017 214.069 L907.757 214.069 L907.757 188.143 M907.757 178.05 L912.017 178.05 L912.017 183.444 L907.757 183.444 L907.757 178.05 Z" fill="#000000" fill-rule="nonzero" fill-opacity="1" /><path clip-path="url(#clip790)" d="M925.141 180.782 L925.141 188.143 L933.915 188.143 L933.915 191.453 L925.141 191.453 L925.141 205.527 Q925.141 208.698 925.998 209.601 Q926.878 210.504 929.54 210.504 L933.915 210.504 L933.915 214.069 L929.54 214.069 Q924.609 214.069 922.734 212.24 Q920.859 210.388 920.859 205.527 L920.859 191.453 L917.734 191.453 L917.734 188.143 L920.859 188.143 L920.859 180.782 L925.141 180.782 Z" fill="#000000" fill-rule="nonzero" fill-opacity="1" /><path clip-path="url(#clip790)" d="M970.743 208.189 L975.627 208.189 L975.627 214.069 L970.743 214.069 L970.743 208.189 M970.743 189.555 L975.627 189.555 L975.627 195.434 L970.743 195.434 L970.743 189.555 Z" fill="#000000" fill-rule="nonzero" fill-opacity="1" /><path clip-path="url(#clip790)" d="M983.474 199.184 L995.951 199.184 L995.951 202.981 L983.474 202.981 L983.474 199.184 Z" fill="#000000" fill-rule="nonzero" fill-opacity="1" /><path clip-path="url(#clip790)" d="M1013.91 194.925 Q1010.77 194.925 1008.91 197.078 Q1007.09 199.231 1007.09 202.981 Q1007.09 206.708 1008.91 208.883 Q1010.77 211.036 1013.91 211.036 Q1017.06 211.036 1018.89 208.883 Q1020.74 206.708 1020.74 202.981 Q1020.74 199.231 1018.89 197.078 Q1017.06 194.925 1013.91 194.925 M1023.2 180.273 L1023.2 184.532 Q1021.44 183.698 1019.63 183.259 Q1017.85 182.819 1016.09 182.819 Q1011.46 182.819 1009.01 185.944 Q1006.58 189.069 1006.23 195.388 Q1007.59 193.374 1009.65 192.309 Q1011.72 191.222 1014.19 191.222 Q1019.4 191.222 1022.41 194.393 Q1025.44 197.541 1025.44 202.981 Q1025.44 208.305 1022.29 211.522 Q1019.15 214.74 1013.91 214.74 Q1007.92 214.74 1004.75 210.157 Q1001.58 205.55 1001.58 196.823 Q1001.58 188.629 1005.47 183.768 Q1009.35 178.884 1015.9 178.884 Q1017.66 178.884 1019.45 179.231 Q1021.25 179.578 1023.2 180.273 Z" fill="#000000" fill-rule="nonzero" fill-opacity="1" /><path clip-path="url(#clip790)" d="M1044.08 194.925 Q1040.93 194.925 1039.08 197.078 Q1037.25 199.231 1037.25 202.981 Q1037.25 206.708 1039.08 208.883 Q1040.93 211.036 1044.08 211.036 Q1047.22 211.036 1049.05 208.883 Q1050.9 206.708 1050.9 202.981 Q1050.9 199.231 1049.05 197.078 Q1047.22 194.925 1044.08 194.925 M1053.36 180.273 L1053.36 184.532 Q1051.6 183.698 1049.79 183.259 Q1048.01 182.819 1046.25 182.819 Q1041.62 182.819 1039.17 185.944 Q1036.74 189.069 1036.39 195.388 Q1037.76 193.374 1039.82 192.309 Q1041.88 191.222 1044.35 191.222 Q1049.56 191.222 1052.57 194.393 Q1055.6 197.541 1055.6 202.981 Q1055.6 208.305 1052.46 211.522 Q1049.31 214.74 1044.08 214.74 Q1038.08 214.74 1034.91 210.157 Q1031.74 205.55 1031.74 196.823 Q1031.74 188.629 1035.63 183.768 Q1039.52 178.884 1046.07 178.884 Q1047.83 178.884 1049.61 179.231 Q1051.41 179.578 1053.36 180.273 Z" fill="#000000" fill-rule="nonzero" fill-opacity="1" /><path clip-path="url(#clip790)" d="M1063.66 208.189 L1068.54 208.189 L1068.54 214.069 L1063.66 214.069 L1063.66 208.189 Z" fill="#000000" fill-rule="nonzero" fill-opacity="1" /><path clip-path="url(#clip790)" d="M1078.87 213.351 L1078.87 209.092 Q1080.63 209.925 1082.43 210.365 Q1084.24 210.805 1085.97 210.805 Q1090.6 210.805 1093.03 207.703 Q1095.49 204.578 1095.83 198.235 Q1094.49 200.226 1092.43 201.291 Q1090.37 202.356 1087.87 202.356 Q1082.69 202.356 1079.65 199.231 Q1076.65 196.083 1076.65 190.643 Q1076.65 185.319 1079.79 182.101 Q1082.94 178.884 1088.17 178.884 Q1094.17 178.884 1097.32 183.49 Q1100.49 188.073 1100.49 196.823 Q1100.49 204.995 1096.6 209.879 Q1092.73 214.74 1086.18 214.74 Q1084.42 214.74 1082.62 214.393 Q1080.81 214.045 1078.87 213.351 M1088.17 198.698 Q1091.32 198.698 1093.15 196.546 Q1095 194.393 1095 190.643 Q1095 186.916 1093.15 184.763 Q1091.32 182.587 1088.17 182.587 Q1085.02 182.587 1083.17 184.763 Q1081.34 186.916 1081.34 190.643 Q1081.34 194.393 1083.17 196.546 Q1085.02 198.698 1088.17 198.698 Z" fill="#000000" fill-rule="nonzero" fill-opacity="1" /><path clip-path="url(#clip790)" d="M1107.71 179.509 L1129.93 179.509 L1129.93 181.499 L1117.39 214.069 L1112.5 214.069 L1124.31 183.444 L1107.71 183.444 L1107.71 179.509 Z" fill="#000000" fill-rule="nonzero" fill-opacity="1" /><path clip-path="url(#clip790)" d="M1168.45 198.86 Q1166.44 198.86 1165.28 200.573 Q1164.14 202.286 1164.14 205.342 Q1164.14 208.351 1165.28 210.087 Q1166.44 211.8 1168.45 211.8 Q1170.42 211.8 1171.55 210.087 Q1172.71 208.351 1172.71 205.342 Q1172.71 202.309 1171.55 200.596 Q1170.42 198.86 1168.45 198.86 M1168.45 195.921 Q1172.11 195.921 1174.26 198.467 Q1176.41 201.013 1176.41 205.342 Q1176.41 209.67 1174.24 212.217 Q1172.08 214.74 1168.45 214.74 Q1164.75 214.74 1162.59 212.217 Q1160.44 209.67 1160.44 205.342 Q1160.44 200.99 1162.59 198.467 Q1164.77 195.921 1168.45 195.921 M1144.56 181.823 Q1142.57 181.823 1141.41 183.56 Q1140.28 185.272 1140.28 188.282 Q1140.28 191.337 1141.41 193.05 Q1142.55 194.763 1144.56 194.763 Q1146.58 194.763 1147.71 193.05 Q1148.87 191.337 1148.87 188.282 Q1148.87 185.296 1147.71 183.56 Q1146.55 181.823 1144.56 181.823 M1165.46 178.884 L1169.17 178.884 L1147.55 214.74 L1143.84 214.74 L1165.46 178.884 M1144.56 178.884 Q1148.22 178.884 1150.39 181.43 Q1152.57 183.953 1152.57 188.282 Q1152.57 192.657 1150.39 195.18 Q1148.24 197.703 1144.56 197.703 Q1140.88 197.703 1138.73 195.18 Q1136.6 192.634 1136.6 188.282 Q1136.6 183.976 1138.75 181.43 Q1140.9 178.884 1144.56 178.884 Z" fill="#000000" fill-rule="nonzero" fill-opacity="1" /><polyline clip-path="url(#clip790)" style="stroke:#3da44d; stroke-linecap:round; stroke-linejoin:round; stroke-width:4; stroke-opacity:1; fill:none" points="349.167,248.629 488.953,248.629 "/>
<path clip-path="url(#clip790)" d="M528.083 235.955 L521.741 253.154 L534.449 253.154 L528.083 235.955 M525.445 231.349 L530.745 231.349 L543.917 265.909 L539.056 265.909 L535.907 257.043 L520.329 257.043 L517.181 265.909 L512.25 265.909 L525.445 231.349 Z" fill="#000000" fill-rule="nonzero" fill-opacity="1" /><path clip-path="url(#clip790)" d="M565.352 249.705 Q566.856 250.214 568.268 251.881 Q569.704 253.548 571.139 256.464 L575.884 265.909 L570.861 265.909 L566.44 257.043 Q564.727 253.571 563.106 252.436 Q561.509 251.302 558.731 251.302 L553.639 251.302 L553.639 265.909 L548.963 265.909 L548.963 231.349 L559.518 231.349 Q565.444 231.349 568.361 233.825 Q571.278 236.302 571.278 241.302 Q571.278 244.566 569.75 246.719 Q568.245 248.872 565.352 249.705 M553.639 235.191 L553.639 247.46 L559.518 247.46 Q562.898 247.46 564.611 245.909 Q566.347 244.335 566.347 241.302 Q566.347 238.27 564.611 236.742 Q562.898 235.191 559.518 235.191 L553.639 235.191 Z" fill="#000000" fill-rule="nonzero" fill-opacity="1" /><path clip-path="url(#clip790)" d="M580.236 231.349 L585.259 231.349 L593.847 244.196 L602.481 231.349 L607.504 231.349 L596.393 247.946 L608.245 265.909 L603.222 265.909 L593.5 251.21 L583.708 265.909 L578.662 265.909 L591 247.46 L580.236 231.349 Z" fill="#000000" fill-rule="nonzero" fill-opacity="1" /><path clip-path="url(#clip790)" d="M649.448 244.96 Q651.046 242.089 653.268 240.724 Q655.49 239.358 658.499 239.358 Q662.55 239.358 664.749 242.205 Q666.948 245.029 666.948 250.261 L666.948 265.909 L662.666 265.909 L662.666 250.399 Q662.666 246.673 661.347 244.867 Q660.027 243.062 657.319 243.062 Q654.009 243.062 652.087 245.261 Q650.166 247.46 650.166 251.256 L650.166 265.909 L645.884 265.909 L645.884 250.399 Q645.884 246.649 644.564 244.867 Q643.245 243.062 640.49 243.062 Q637.226 243.062 635.305 245.284 Q633.384 247.483 633.384 251.256 L633.384 265.909 L629.101 265.909 L629.101 239.983 L633.384 239.983 L633.384 244.011 Q634.842 241.626 636.879 240.492 Q638.916 239.358 641.717 239.358 Q644.541 239.358 646.509 240.793 Q648.499 242.228 649.448 244.96 Z" fill="#000000" fill-rule="nonzero" fill-opacity="1" /><path clip-path="url(#clip790)" d="M685.49 242.969 Q682.064 242.969 680.073 245.654 Q678.083 248.316 678.083 252.969 Q678.083 257.622 680.05 260.307 Q682.041 262.969 685.49 262.969 Q688.893 262.969 690.883 260.284 Q692.874 257.598 692.874 252.969 Q692.874 248.362 690.883 245.677 Q688.893 242.969 685.49 242.969 M685.49 239.358 Q691.045 239.358 694.217 242.969 Q697.388 246.58 697.388 252.969 Q697.388 259.335 694.217 262.969 Q691.045 266.58 685.49 266.58 Q679.911 266.58 676.74 262.969 Q673.592 259.335 673.592 252.969 Q673.592 246.58 676.74 242.969 Q679.911 239.358 685.49 239.358 Z" fill="#000000" fill-rule="nonzero" fill-opacity="1" /><path clip-path="url(#clip790)" d="M721.508 243.918 L721.508 229.89 L725.768 229.89 L725.768 265.909 L721.508 265.909 L721.508 262.02 Q720.166 264.335 718.106 265.469 Q716.068 266.58 713.198 266.58 Q708.499 266.58 705.536 262.83 Q702.596 259.08 702.596 252.969 Q702.596 246.858 705.536 243.108 Q708.499 239.358 713.198 239.358 Q716.068 239.358 718.106 240.492 Q720.166 241.603 721.508 243.918 M706.994 252.969 Q706.994 257.668 708.916 260.353 Q710.86 263.015 714.24 263.015 Q717.619 263.015 719.564 260.353 Q721.508 257.668 721.508 252.969 Q721.508 248.27 719.564 245.608 Q717.619 242.923 714.24 242.923 Q710.86 242.923 708.916 245.608 Q706.994 248.27 706.994 252.969 Z" fill="#000000" fill-rule="nonzero" fill-opacity="1" /><path clip-path="url(#clip790)" d="M756.716 251.881 L756.716 253.964 L737.133 253.964 Q737.411 258.362 739.772 260.677 Q742.156 262.969 746.392 262.969 Q748.846 262.969 751.138 262.367 Q753.453 261.765 755.721 260.561 L755.721 264.589 Q753.429 265.561 751.022 266.071 Q748.615 266.58 746.138 266.58 Q739.934 266.58 736.3 262.969 Q732.689 259.358 732.689 253.2 Q732.689 246.835 736.115 243.108 Q739.564 239.358 745.397 239.358 Q750.628 239.358 753.661 242.737 Q756.716 246.094 756.716 251.881 M752.457 250.631 Q752.411 247.136 750.49 245.052 Q748.591 242.969 745.443 242.969 Q741.879 242.969 739.726 244.983 Q737.596 246.997 737.272 250.654 L752.457 250.631 Z" fill="#000000" fill-rule="nonzero" fill-opacity="1" /><path clip-path="url(#clip790)" d="M763.707 229.89 L767.966 229.89 L767.966 265.909 L763.707 265.909 L763.707 229.89 Z" fill="#000000" fill-rule="nonzero" fill-opacity="1" /><path clip-path="url(#clip790)" d="M789.471 239.983 L793.73 239.983 L799.054 260.214 L804.355 239.983 L809.378 239.983 L814.702 260.214 L820.003 239.983 L824.262 239.983 L817.48 265.909 L812.457 265.909 L806.878 244.659 L801.276 265.909 L796.253 265.909 L789.471 239.983 Z" fill="#000000" fill-rule="nonzero" fill-opacity="1" /><path clip-path="url(#clip790)" d="M830.721 239.983 L834.98 239.983 L834.98 265.909 L830.721 265.909 L830.721 239.983 M830.721 229.89 L834.98 229.89 L834.98 235.284 L830.721 235.284 L830.721 229.89 Z" fill="#000000" fill-rule="nonzero" fill-opacity="1" /><path clip-path="url(#clip790)" d="M848.105 232.622 L848.105 239.983 L856.878 239.983 L856.878 243.293 L848.105 243.293 L848.105 257.367 Q848.105 260.538 848.961 261.441 Q849.841 262.344 852.503 262.344 L856.878 262.344 L856.878 265.909 L852.503 265.909 Q847.572 265.909 845.697 264.08 Q843.822 262.228 843.822 257.367 L843.822 243.293 L840.697 243.293 L840.697 239.983 L843.822 239.983 L843.822 232.622 L848.105 232.622 Z" fill="#000000" fill-rule="nonzero" fill-opacity="1" /><path clip-path="url(#clip790)" d="M884.031 250.261 L884.031 265.909 L879.771 265.909 L879.771 250.399 Q879.771 246.719 878.336 244.89 Q876.901 243.062 874.031 243.062 Q870.582 243.062 868.591 245.261 Q866.6 247.46 866.6 251.256 L866.6 265.909 L862.318 265.909 L862.318 229.89 L866.6 229.89 L866.6 244.011 Q868.128 241.673 870.188 240.515 Q872.271 239.358 874.98 239.358 Q879.447 239.358 881.739 242.136 Q884.031 244.89 884.031 250.261 Z" fill="#000000" fill-rule="nonzero" fill-opacity="1" /><path clip-path="url(#clip790)" d="M924.655 243.918 L924.655 229.89 L928.915 229.89 L928.915 265.909 L924.655 265.909 L924.655 262.02 Q923.313 264.335 921.253 265.469 Q919.216 266.58 916.345 266.58 Q911.646 266.58 908.683 262.83 Q905.743 259.08 905.743 252.969 Q905.743 246.858 908.683 243.108 Q911.646 239.358 916.345 239.358 Q919.216 239.358 921.253 240.492 Q923.313 241.603 924.655 243.918 M910.142 252.969 Q910.142 257.668 912.063 260.353 Q914.007 263.015 917.387 263.015 Q920.766 263.015 922.711 260.353 Q924.655 257.668 924.655 252.969 Q924.655 248.27 922.711 245.608 Q920.766 242.923 917.387 242.923 Q914.007 242.923 912.063 245.608 Q910.142 248.27 910.142 252.969 Z" fill="#000000" fill-rule="nonzero" fill-opacity="1" /><path clip-path="url(#clip790)" d="M959.863 251.881 L959.863 253.964 L940.28 253.964 Q940.558 258.362 942.919 260.677 Q945.303 262.969 949.539 262.969 Q951.993 262.969 954.285 262.367 Q956.6 261.765 958.868 260.561 L958.868 264.589 Q956.576 265.561 954.169 266.071 Q951.762 266.58 949.285 266.58 Q943.081 266.58 939.447 262.969 Q935.836 259.358 935.836 253.2 Q935.836 246.835 939.262 243.108 Q942.711 239.358 948.544 239.358 Q953.776 239.358 956.808 242.737 Q959.863 246.094 959.863 251.881 M955.604 250.631 Q955.558 247.136 953.637 245.052 Q951.739 242.969 948.59 242.969 Q945.026 242.969 942.873 244.983 Q940.743 246.997 940.419 250.654 L955.604 250.631 Z" fill="#000000" fill-rule="nonzero" fill-opacity="1" /><path clip-path="url(#clip790)" d="M966.854 229.89 L971.113 229.89 L971.113 265.909 L966.854 265.909 L966.854 229.89 Z" fill="#000000" fill-rule="nonzero" fill-opacity="1" /><path clip-path="url(#clip790)" d="M991.808 252.876 Q986.646 252.876 984.655 254.057 Q982.664 255.237 982.664 258.085 Q982.664 260.353 984.146 261.696 Q985.65 263.015 988.22 263.015 Q991.761 263.015 993.891 260.515 Q996.044 257.992 996.044 253.825 L996.044 252.876 L991.808 252.876 M1000.3 251.117 L1000.3 265.909 L996.044 265.909 L996.044 261.973 Q994.586 264.335 992.41 265.469 Q990.234 266.58 987.086 266.58 Q983.104 266.58 980.743 264.358 Q978.405 262.112 978.405 258.362 Q978.405 253.987 981.322 251.765 Q984.261 249.543 990.072 249.543 L996.044 249.543 L996.044 249.126 Q996.044 246.187 994.099 244.589 Q992.178 242.969 988.683 242.969 Q986.461 242.969 984.354 243.501 Q982.248 244.034 980.303 245.099 L980.303 241.163 Q982.641 240.261 984.84 239.821 Q987.039 239.358 989.123 239.358 Q994.748 239.358 997.525 242.274 Q1000.3 245.191 1000.3 251.117 Z" fill="#000000" fill-rule="nonzero" fill-opacity="1" /><path clip-path="url(#clip790)" d="M1019.86 268.316 Q1018.06 272.946 1016.34 274.358 Q1014.63 275.77 1011.76 275.77 L1008.36 275.77 L1008.36 272.205 L1010.86 272.205 Q1012.62 272.205 1013.59 271.372 Q1014.56 270.538 1015.74 267.436 L1016.51 265.492 L1006.02 239.983 L1010.53 239.983 L1018.64 260.261 L1026.74 239.983 L1031.25 239.983 L1019.86 268.316 Z" fill="#000000" fill-rule="nonzero" fill-opacity="1" /><path clip-path="url(#clip790)" d="M1068.73 240.747 L1068.73 244.774 Q1066.92 243.849 1064.98 243.386 Q1063.03 242.923 1060.95 242.923 Q1057.78 242.923 1056.18 243.895 Q1054.61 244.867 1054.61 246.811 Q1054.61 248.293 1055.74 249.149 Q1056.88 249.983 1060.3 250.747 L1061.76 251.071 Q1066.3 252.043 1068.2 253.825 Q1070.12 255.585 1070.12 258.756 Q1070.12 262.367 1067.25 264.473 Q1064.4 266.58 1059.4 266.58 Q1057.32 266.58 1055.05 266.163 Q1052.8 265.77 1050.3 264.96 L1050.3 260.561 Q1052.66 261.788 1054.96 262.413 Q1057.25 263.015 1059.49 263.015 Q1062.5 263.015 1064.12 261.997 Q1065.74 260.955 1065.74 259.08 Q1065.74 257.344 1064.56 256.418 Q1063.4 255.492 1059.45 254.636 L1057.96 254.288 Q1054.01 253.455 1052.25 251.742 Q1050.49 250.006 1050.49 246.997 Q1050.49 243.339 1053.08 241.349 Q1055.67 239.358 1060.44 239.358 Q1062.8 239.358 1064.89 239.705 Q1066.97 240.052 1068.73 240.747 Z" fill="#000000" fill-rule="nonzero" fill-opacity="1" /><path clip-path="url(#clip790)" d="M1076.9 239.983 L1081.16 239.983 L1081.16 265.909 L1076.9 265.909 L1076.9 239.983 M1076.9 229.89 L1081.16 229.89 L1081.16 235.284 L1076.9 235.284 L1076.9 229.89 Z" fill="#000000" fill-rule="nonzero" fill-opacity="1" /><path clip-path="url(#clip790)" d="M1110.26 244.96 Q1111.85 242.089 1114.08 240.724 Q1116.3 239.358 1119.31 239.358 Q1123.36 239.358 1125.56 242.205 Q1127.76 245.029 1127.76 250.261 L1127.76 265.909 L1123.47 265.909 L1123.47 250.399 Q1123.47 246.673 1122.15 244.867 Q1120.83 243.062 1118.13 243.062 Q1114.82 243.062 1112.9 245.261 Q1110.97 247.46 1110.97 251.256 L1110.97 265.909 L1106.69 265.909 L1106.69 250.399 Q1106.69 246.649 1105.37 244.867 Q1104.05 243.062 1101.3 243.062 Q1098.03 243.062 1096.11 245.284 Q1094.19 247.483 1094.19 251.256 L1094.19 265.909 L1089.91 265.909 L1089.91 239.983 L1094.19 239.983 L1094.19 244.011 Q1095.65 241.626 1097.69 240.492 Q1099.72 239.358 1102.52 239.358 Q1105.35 239.358 1107.32 240.793 Q1109.31 242.228 1110.26 244.96 Z" fill="#000000" fill-rule="nonzero" fill-opacity="1" /><path clip-path="url(#clip790)" d="M1164.45 229.89 L1164.45 233.432 L1160.37 233.432 Q1158.08 233.432 1157.18 234.358 Q1156.3 235.284 1156.3 237.691 L1156.3 239.983 L1163.31 239.983 L1163.31 243.293 L1156.3 243.293 L1156.3 265.909 L1152.02 265.909 L1152.02 243.293 L1147.94 243.293 L1147.94 239.983 L1152.02 239.983 L1152.02 238.177 Q1152.02 233.849 1154.03 231.881 Q1156.04 229.89 1160.42 229.89 L1164.45 229.89 Z" fill="#000000" fill-rule="nonzero" fill-opacity="1" /><path clip-path="url(#clip790)" d="M1168.01 239.983 L1172.27 239.983 L1172.27 265.909 L1168.01 265.909 L1168.01 239.983 M1168.01 229.89 L1172.27 229.89 L1172.27 235.284 L1168.01 235.284 L1168.01 229.89 Z" fill="#000000" fill-rule="nonzero" fill-opacity="1" /><path clip-path="url(#clip790)" d="M1185.39 232.622 L1185.39 239.983 L1194.17 239.983 L1194.17 243.293 L1185.39 243.293 L1185.39 257.367 Q1185.39 260.538 1186.25 261.441 Q1187.13 262.344 1189.79 262.344 L1194.17 262.344 L1194.17 265.909 L1189.79 265.909 Q1184.86 265.909 1182.99 264.08 Q1181.11 262.228 1181.11 257.367 L1181.11 243.293 L1177.99 243.293 L1177.99 239.983 L1181.11 239.983 L1181.11 232.622 L1185.39 232.622 Z" fill="#000000" fill-rule="nonzero" fill-opacity="1" /><path clip-path="url(#clip790)" d="M1231 260.029 L1235.88 260.029 L1235.88 265.909 L1231 265.909 L1231 260.029 M1231 241.395 L1235.88 241.395 L1235.88 247.274 L1231 247.274 L1231 241.395 Z" fill="#000000" fill-rule="nonzero" fill-opacity="1" /><path clip-path="url(#clip790)" d="M1247.29 261.973 L1254.93 261.973 L1254.93 235.608 L1246.62 237.275 L1246.62 233.015 L1254.89 231.349 L1259.56 231.349 L1259.56 261.973 L1267.2 261.973 L1267.2 265.909 L1247.29 265.909 L1247.29 261.973 Z" fill="#000000" fill-rule="nonzero" fill-opacity="1" /><path clip-path="url(#clip790)" d="M1286.64 234.427 Q1283.03 234.427 1281.2 237.992 Q1279.4 241.534 1279.4 248.663 Q1279.4 255.77 1281.2 259.335 Q1283.03 262.876 1286.64 262.876 Q1290.28 262.876 1292.08 259.335 Q1293.91 255.77 1293.91 248.663 Q1293.91 241.534 1292.08 237.992 Q1290.28 234.427 1286.64 234.427 M1286.64 230.724 Q1292.45 230.724 1295.51 235.33 Q1298.59 239.913 1298.59 248.663 Q1298.59 257.39 1295.51 261.997 Q1292.45 266.58 1286.64 266.58 Q1280.83 266.58 1277.76 261.997 Q1274.7 257.39 1274.7 248.663 Q1274.7 239.913 1277.76 235.33 Q1280.83 230.724 1286.64 230.724 Z" fill="#000000" fill-rule="nonzero" fill-opacity="1" /><path clip-path="url(#clip790)" d="M1316.81 234.427 Q1313.19 234.427 1311.37 237.992 Q1309.56 241.534 1309.56 248.663 Q1309.56 255.77 1311.37 259.335 Q1313.19 262.876 1316.81 262.876 Q1320.44 262.876 1322.25 259.335 Q1324.07 255.77 1324.07 248.663 Q1324.07 241.534 1322.25 237.992 Q1320.44 234.427 1316.81 234.427 M1316.81 230.724 Q1322.62 230.724 1325.67 235.33 Q1328.75 239.913 1328.75 248.663 Q1328.75 257.39 1325.67 261.997 Q1322.62 266.58 1316.81 266.58 Q1311 266.58 1307.92 261.997 Q1304.86 257.39 1304.86 248.663 Q1304.86 239.913 1307.92 235.33 Q1311 230.724 1316.81 230.724 Z" fill="#000000" fill-rule="nonzero" fill-opacity="1" /><path clip-path="url(#clip790)" d="M1336.97 260.029 L1341.85 260.029 L1341.85 265.909 L1336.97 265.909 L1336.97 260.029 Z" fill="#000000" fill-rule="nonzero" fill-opacity="1" /><path clip-path="url(#clip790)" d="M1362.04 234.427 Q1358.43 234.427 1356.6 237.992 Q1354.79 241.534 1354.79 248.663 Q1354.79 255.77 1356.6 259.335 Q1358.43 262.876 1362.04 262.876 Q1365.67 262.876 1367.48 259.335 Q1369.31 255.77 1369.31 248.663 Q1369.31 241.534 1367.48 237.992 Q1365.67 234.427 1362.04 234.427 M1362.04 230.724 Q1367.85 230.724 1370.9 235.33 Q1373.98 239.913 1373.98 248.663 Q1373.98 257.39 1370.9 261.997 Q1367.85 266.58 1362.04 266.58 Q1356.23 266.58 1353.15 261.997 Q1350.09 257.39 1350.09 248.663 Q1350.09 239.913 1353.15 235.33 Q1356.23 230.724 1362.04 230.724 Z" fill="#000000" fill-rule="nonzero" fill-opacity="1" /><path clip-path="url(#clip790)" d="M1411.6 250.7 Q1409.58 250.7 1408.43 252.413 Q1407.29 254.126 1407.29 257.182 Q1407.29 260.191 1408.43 261.927 Q1409.58 263.64 1411.6 263.64 Q1413.56 263.64 1414.7 261.927 Q1415.86 260.191 1415.86 257.182 Q1415.86 254.149 1414.7 252.436 Q1413.56 250.7 1411.6 250.7 M1411.6 247.761 Q1415.25 247.761 1417.41 250.307 Q1419.56 252.853 1419.56 257.182 Q1419.56 261.51 1417.38 264.057 Q1415.23 266.58 1411.6 266.58 Q1407.89 266.58 1405.74 264.057 Q1403.59 261.51 1403.59 257.182 Q1403.59 252.83 1405.74 250.307 Q1407.92 247.761 1411.6 247.761 M1387.71 233.663 Q1385.72 233.663 1384.56 235.4 Q1383.43 237.112 1383.43 240.122 Q1383.43 243.177 1384.56 244.89 Q1385.69 246.603 1387.71 246.603 Q1389.72 246.603 1390.86 244.89 Q1392.01 243.177 1392.01 240.122 Q1392.01 237.136 1390.86 235.4 Q1389.7 233.663 1387.71 233.663 M1408.61 230.724 L1412.31 230.724 L1390.69 266.58 L1386.99 266.58 L1408.61 230.724 M1387.71 230.724 Q1391.37 230.724 1393.54 233.27 Q1395.72 235.793 1395.72 240.122 Q1395.72 244.497 1393.54 247.02 Q1391.39 249.543 1387.71 249.543 Q1384.03 249.543 1381.88 247.02 Q1379.75 244.474 1379.75 240.122 Q1379.75 235.816 1381.9 233.27 Q1384.05 230.724 1387.71 230.724 Z" fill="#000000" fill-rule="nonzero" fill-opacity="1" /></svg>
