<?xml version="1.0" encoding="utf-8"?>
<svg xmlns="http://www.w3.org/2000/svg" xmlns:xlink="http://www.w3.org/1999/xlink" width="600" height="400" viewBox="0 0 2400 1600">
<defs>
  <clipPath id="clip850">
    <rect x="0" y="0" width="2400" height="1600"/>
  </clipPath>
</defs>
<path clip-path="url(#clip850)" d="M0 1600 L2400 1600 L2400 0 L0 0  Z" fill="#ffffff" fill-rule="evenodd" fill-opacity="1"/>
<defs>
  <clipPath id="clip851">
    <rect x="480" y="0" width="1681" height="1600"/>
  </clipPath>
</defs>
<path clip-path="url(#clip850)" d="M255.977 1423.18 L2352.76 1423.18 L2352.76 47.2441 L255.977 47.2441  Z" fill="#ffffff" fill-rule="evenodd" fill-opacity="1"/>
<defs>
  <clipPath id="clip852">
    <rect x="255" y="47" width="2098" height="1377"/>
  </clipPath>
</defs>
<polyline clip-path="url(#clip852)" style="stroke:#000000; stroke-linecap:round; stroke-linejoin:round; stroke-width:2; stroke-opacity:0.1; fill:none" points="315.32,1423.18 315.32,47.2441 "/>
<polyline clip-path="url(#clip852)" style="stroke:#000000; stroke-linecap:round; stroke-linejoin:round; stroke-width:2; stroke-opacity:0.1; fill:none" points="711.731,1423.18 711.731,47.2441 "/>
<polyline clip-path="url(#clip852)" style="stroke:#000000; stroke-linecap:round; stroke-linejoin:round; stroke-width:2; stroke-opacity:0.1; fill:none" points="1108.14,1423.18 1108.14,47.2441 "/>
<polyline clip-path="url(#clip852)" style="stroke:#000000; stroke-linecap:round; stroke-linejoin:round; stroke-width:2; stroke-opacity:0.1; fill:none" points="1504.55,1423.18 1504.55,47.2441 "/>
<polyline clip-path="url(#clip852)" style="stroke:#000000; stroke-linecap:round; stroke-linejoin:round; stroke-width:2; stroke-opacity:0.1; fill:none" points="1900.97,1423.18 1900.97,47.2441 "/>
<polyline clip-path="url(#clip852)" style="stroke:#000000; stroke-linecap:round; stroke-linejoin:round; stroke-width:2; stroke-opacity:0.1; fill:none" points="2297.38,1423.18 2297.38,47.2441 "/>
<polyline clip-path="url(#clip852)" style="stroke:#000000; stroke-linecap:round; stroke-linejoin:round; stroke-width:2; stroke-opacity:0.1; fill:none" points="255.977,1394.96 2352.76,1394.96 "/>
<polyline clip-path="url(#clip852)" style="stroke:#000000; stroke-linecap:round; stroke-linejoin:round; stroke-width:2; stroke-opacity:0.1; fill:none" points="255.977,979.164 2352.76,979.164 "/>
<polyline clip-path="url(#clip852)" style="stroke:#000000; stroke-linecap:round; stroke-linejoin:round; stroke-width:2; stroke-opacity:0.1; fill:none" points="255.977,563.37 2352.76,563.37 "/>
<polyline clip-path="url(#clip852)" style="stroke:#000000; stroke-linecap:round; stroke-linejoin:round; stroke-width:2; stroke-opacity:0.1; fill:none" points="255.977,147.575 2352.76,147.575 "/>
<polyline clip-path="url(#clip850)" style="stroke:#000000; stroke-linecap:round; stroke-linejoin:round; stroke-width:4; stroke-opacity:1; fill:none" points="255.977,1423.18 2352.76,1423.18 "/>
<polyline clip-path="url(#clip850)" style="stroke:#000000; stroke-linecap:round; stroke-linejoin:round; stroke-width:4; stroke-opacity:1; fill:none" points="315.32,1423.18 315.32,1404.28 "/>
<polyline clip-path="url(#clip850)" style="stroke:#000000; stroke-linecap:round; stroke-linejoin:round; stroke-width:4; stroke-opacity:1; fill:none" points="711.731,1423.18 711.731,1404.28 "/>
<polyline clip-path="url(#clip850)" style="stroke:#000000; stroke-linecap:round; stroke-linejoin:round; stroke-width:4; stroke-opacity:1; fill:none" points="1108.14,1423.18 1108.14,1404.28 "/>
<polyline clip-path="url(#clip850)" style="stroke:#000000; stroke-linecap:round; stroke-linejoin:round; stroke-width:4; stroke-opacity:1; fill:none" points="1504.55,1423.18 1504.55,1404.28 "/>
<polyline clip-path="url(#clip850)" style="stroke:#000000; stroke-linecap:round; stroke-linejoin:round; stroke-width:4; stroke-opacity:1; fill:none" points="1900.97,1423.18 1900.97,1404.28 "/>
<polyline clip-path="url(#clip850)" style="stroke:#000000; stroke-linecap:round; stroke-linejoin:round; stroke-width:4; stroke-opacity:1; fill:none" points="2297.38,1423.18 2297.38,1404.28 "/>
<path clip-path="url(#clip850)" d="M315.32 1454.1 Q311.709 1454.1 309.88 1457.66 Q308.075 1461.2 308.075 1468.33 Q308.075 1475.44 309.88 1479.01 Q311.709 1482.55 315.32 1482.55 Q318.954 1482.55 320.76 1479.01 Q322.588 1475.44 322.588 1468.33 Q322.588 1461.2 320.76 1457.66 Q318.954 1454.1 315.32 1454.1 M315.32 1450.39 Q321.13 1450.39 324.186 1455 Q327.264 1459.58 327.264 1468.33 Q327.264 1477.06 324.186 1481.67 Q321.13 1486.25 315.32 1486.25 Q309.51 1486.25 306.431 1481.67 Q303.376 1477.06 303.376 1468.33 Q303.376 1459.58 306.431 1455 Q309.51 1450.39 315.32 1450.39 Z" fill="#000000" fill-rule="nonzero" fill-opacity="1" /><path clip-path="url(#clip850)" d="M702.113 1481.64 L709.752 1481.64 L709.752 1455.28 L701.442 1456.95 L701.442 1452.69 L709.706 1451.02 L714.382 1451.02 L714.382 1481.64 L722.021 1481.64 L722.021 1485.58 L702.113 1485.58 L702.113 1481.64 Z" fill="#000000" fill-rule="nonzero" fill-opacity="1" /><path clip-path="url(#clip850)" d="M1102.8 1481.64 L1119.12 1481.64 L1119.12 1485.58 L1097.17 1485.58 L1097.17 1481.64 Q1099.83 1478.89 1104.42 1474.26 Q1109.02 1469.61 1110.2 1468.27 Q1112.45 1465.74 1113.33 1464.01 Q1114.23 1462.25 1114.23 1460.56 Q1114.23 1457.8 1112.29 1456.07 Q1110.37 1454.33 1107.26 1454.33 Q1105.06 1454.33 1102.61 1455.09 Q1100.18 1455.86 1097.4 1457.41 L1097.4 1452.69 Q1100.23 1451.55 1102.68 1450.97 Q1105.13 1450.39 1107.17 1450.39 Q1112.54 1450.39 1115.74 1453.08 Q1118.93 1455.77 1118.93 1460.26 Q1118.93 1462.39 1118.12 1464.31 Q1117.33 1466.2 1115.23 1468.8 Q1114.65 1469.47 1111.55 1472.69 Q1108.44 1475.88 1102.8 1481.64 Z" fill="#000000" fill-rule="nonzero" fill-opacity="1" /><path clip-path="url(#clip850)" d="M1508.8 1466.95 Q1512.16 1467.66 1514.03 1469.93 Q1515.93 1472.2 1515.93 1475.53 Q1515.93 1480.65 1512.41 1483.45 Q1508.89 1486.25 1502.41 1486.25 Q1500.24 1486.25 1497.92 1485.81 Q1495.63 1485.39 1493.18 1484.54 L1493.18 1480.02 Q1495.12 1481.16 1497.44 1481.74 Q1499.75 1482.32 1502.27 1482.32 Q1506.67 1482.32 1508.96 1480.58 Q1511.28 1478.84 1511.28 1475.53 Q1511.28 1472.48 1509.13 1470.77 Q1507 1469.03 1503.18 1469.03 L1499.15 1469.03 L1499.15 1465.19 L1503.36 1465.19 Q1506.81 1465.19 1508.64 1463.82 Q1510.47 1462.43 1510.47 1459.84 Q1510.47 1457.18 1508.57 1455.77 Q1506.7 1454.33 1503.18 1454.33 Q1501.26 1454.33 1499.06 1454.75 Q1496.86 1455.16 1494.22 1456.04 L1494.22 1451.88 Q1496.88 1451.14 1499.2 1450.77 Q1501.53 1450.39 1503.59 1450.39 Q1508.92 1450.39 1512.02 1452.83 Q1515.12 1455.23 1515.12 1459.35 Q1515.12 1462.22 1513.48 1464.21 Q1511.83 1466.18 1508.8 1466.95 Z" fill="#000000" fill-rule="nonzero" fill-opacity="1" /><path clip-path="url(#clip850)" d="M1903.98 1455.09 L1892.17 1473.54 L1903.98 1473.54 L1903.98 1455.09 M1902.75 1451.02 L1908.63 1451.02 L1908.63 1473.54 L1913.56 1473.54 L1913.56 1477.43 L1908.63 1477.43 L1908.63 1485.58 L1903.98 1485.58 L1903.98 1477.43 L1888.37 1477.43 L1888.37 1472.92 L1902.75 1451.02 Z" fill="#000000" fill-rule="nonzero" fill-opacity="1" /><path clip-path="url(#clip850)" d="M2287.66 1451.02 L2306.01 1451.02 L2306.01 1454.96 L2291.94 1454.96 L2291.94 1463.43 Q2292.96 1463.08 2293.97 1462.92 Q2294.99 1462.73 2296.01 1462.73 Q2301.8 1462.73 2305.18 1465.9 Q2308.56 1469.08 2308.56 1474.49 Q2308.56 1480.07 2305.09 1483.17 Q2301.61 1486.25 2295.29 1486.25 Q2293.12 1486.25 2290.85 1485.88 Q2288.6 1485.51 2286.2 1484.77 L2286.2 1480.07 Q2288.28 1481.2 2290.5 1481.76 Q2292.72 1482.32 2295.2 1482.32 Q2299.21 1482.32 2301.54 1480.21 Q2303.88 1478.1 2303.88 1474.49 Q2303.88 1470.88 2301.54 1468.77 Q2299.21 1466.67 2295.2 1466.67 Q2293.33 1466.67 2291.45 1467.08 Q2289.6 1467.5 2287.66 1468.38 L2287.66 1451.02 Z" fill="#000000" fill-rule="nonzero" fill-opacity="1" /><path clip-path="url(#clip850)" d="M1174.54 1520.52 L1214.74 1520.52 L1214.74 1525.93 L1197.87 1525.93 L1197.87 1568.04 L1191.41 1568.04 L1191.41 1525.93 L1174.54 1525.93 L1174.54 1520.52 Z" fill="#000000" fill-rule="nonzero" fill-opacity="1" /><path clip-path="url(#clip850)" d="M1218.68 1532.4 L1224.54 1532.4 L1224.54 1568.04 L1218.68 1568.04 L1218.68 1532.4 M1218.68 1518.52 L1224.54 1518.52 L1224.54 1525.93 L1218.68 1525.93 L1218.68 1518.52 Z" fill="#000000" fill-rule="nonzero" fill-opacity="1" /><path clip-path="url(#clip850)" d="M1264.55 1539.24 Q1266.75 1535.29 1269.8 1533.41 Q1272.86 1531.54 1276.99 1531.54 Q1282.56 1531.54 1285.59 1535.45 Q1288.61 1539.33 1288.61 1546.53 L1288.61 1568.04 L1282.72 1568.04 L1282.72 1546.72 Q1282.72 1541.59 1280.91 1539.11 Q1279.09 1536.63 1275.37 1536.63 Q1270.82 1536.63 1268.18 1539.65 Q1265.54 1542.68 1265.54 1547.9 L1265.54 1568.04 L1259.65 1568.04 L1259.65 1546.72 Q1259.65 1541.56 1257.83 1539.11 Q1256.02 1536.63 1252.23 1536.63 Q1247.74 1536.63 1245.1 1539.68 Q1242.46 1542.71 1242.46 1547.9 L1242.46 1568.04 L1236.57 1568.04 L1236.57 1532.4 L1242.46 1532.4 L1242.46 1537.93 Q1244.47 1534.66 1247.27 1533.1 Q1250.07 1531.54 1253.92 1531.54 Q1257.8 1531.54 1260.51 1533.51 Q1263.24 1535.48 1264.55 1539.24 Z" fill="#000000" fill-rule="nonzero" fill-opacity="1" /><path clip-path="url(#clip850)" d="M1330.78 1548.76 L1330.78 1551.62 L1303.86 1551.62 Q1304.24 1557.67 1307.49 1560.85 Q1310.76 1564 1316.59 1564 Q1319.96 1564 1323.11 1563.17 Q1326.3 1562.35 1329.42 1560.69 L1329.42 1566.23 Q1326.26 1567.57 1322.95 1568.27 Q1319.64 1568.97 1316.24 1568.97 Q1307.71 1568.97 1302.71 1564 Q1297.75 1559.04 1297.75 1550.57 Q1297.75 1541.82 1302.46 1536.69 Q1307.2 1531.54 1315.22 1531.54 Q1322.41 1531.54 1326.58 1536.18 Q1330.78 1540.8 1330.78 1548.76 M1324.93 1547.04 Q1324.86 1542.23 1322.22 1539.37 Q1319.61 1536.5 1315.28 1536.5 Q1310.38 1536.5 1307.42 1539.27 Q1304.49 1542.04 1304.05 1547.07 L1324.93 1547.04 Z" fill="#000000" fill-rule="nonzero" fill-opacity="1" /><path clip-path="url(#clip850)" d="M1360.58 1518.52 L1374.07 1518.52 L1374.07 1523.07 L1366.43 1523.07 L1366.43 1572.09 L1374.07 1572.09 L1374.07 1576.64 L1360.58 1576.64 L1360.58 1518.52 Z" fill="#000000" fill-rule="nonzero" fill-opacity="1" /><path clip-path="url(#clip850)" d="M1409.27 1533.45 L1409.27 1538.98 Q1406.79 1537.71 1404.12 1537.07 Q1401.44 1536.44 1398.58 1536.44 Q1394.22 1536.44 1392.02 1537.77 Q1389.86 1539.11 1389.86 1541.79 Q1389.86 1543.82 1391.42 1545 Q1392.98 1546.15 1397.69 1547.2 L1399.69 1547.64 Q1405.93 1548.98 1408.54 1551.43 Q1411.18 1553.85 1411.18 1558.21 Q1411.18 1563.17 1407.24 1566.07 Q1403.32 1568.97 1396.45 1568.97 Q1393.58 1568.97 1390.46 1568.39 Q1387.38 1567.85 1383.94 1566.74 L1383.94 1560.69 Q1387.18 1562.38 1390.34 1563.24 Q1393.49 1564.07 1396.57 1564.07 Q1400.71 1564.07 1402.94 1562.66 Q1405.17 1561.23 1405.17 1558.65 Q1405.17 1556.27 1403.54 1554.99 Q1401.95 1553.72 1396.51 1552.54 L1394.47 1552.07 Q1389.03 1550.92 1386.61 1548.56 Q1384.19 1546.18 1384.19 1542.04 Q1384.19 1537.01 1387.76 1534.27 Q1391.32 1531.54 1397.88 1531.54 Q1401.13 1531.54 1403.99 1532.01 Q1406.85 1532.49 1409.27 1533.45 Z" fill="#000000" fill-rule="nonzero" fill-opacity="1" /><path clip-path="url(#clip850)" d="M1434.2 1518.52 L1434.2 1576.64 L1420.7 1576.64 L1420.7 1572.09 L1428.31 1572.09 L1428.31 1523.07 L1420.7 1523.07 L1420.7 1518.52 L1434.2 1518.52 Z" fill="#000000" fill-rule="nonzero" fill-opacity="1" /><polyline clip-path="url(#clip850)" style="stroke:#000000; stroke-linecap:round; stroke-linejoin:round; stroke-width:4; stroke-opacity:1; fill:none" points="255.977,1423.18 255.977,47.2441 "/>
<polyline clip-path="url(#clip850)" style="stroke:#000000; stroke-linecap:round; stroke-linejoin:round; stroke-width:4; stroke-opacity:1; fill:none" points="255.977,1394.96 274.875,1394.96 "/>
<polyline clip-path="url(#clip850)" style="stroke:#000000; stroke-linecap:round; stroke-linejoin:round; stroke-width:4; stroke-opacity:1; fill:none" points="255.977,979.164 274.875,979.164 "/>
<polyline clip-path="url(#clip850)" style="stroke:#000000; stroke-linecap:round; stroke-linejoin:round; stroke-width:4; stroke-opacity:1; fill:none" points="255.977,563.37 274.875,563.37 "/>
<polyline clip-path="url(#clip850)" style="stroke:#000000; stroke-linecap:round; stroke-linejoin:round; stroke-width:4; stroke-opacity:1; fill:none" points="255.977,147.575 274.875,147.575 "/>
<path clip-path="url(#clip850)" d="M114.26 1395.41 L143.936 1395.41 L143.936 1399.35 L114.26 1399.35 L114.26 1395.41 Z" fill="#000000" fill-rule="nonzero" fill-opacity="1" /><path clip-path="url(#clip850)" d="M164.028 1380.76 Q160.417 1380.76 158.589 1384.32 Q156.783 1387.86 156.783 1394.99 Q156.783 1402.1 158.589 1405.67 Q160.417 1409.21 164.028 1409.21 Q167.663 1409.21 169.468 1405.67 Q171.297 1402.1 171.297 1394.99 Q171.297 1387.86 169.468 1384.32 Q167.663 1380.76 164.028 1380.76 M164.028 1377.05 Q169.839 1377.05 172.894 1381.66 Q175.973 1386.24 175.973 1394.99 Q175.973 1403.72 172.894 1408.33 Q169.839 1412.91 164.028 1412.91 Q158.218 1412.91 155.14 1408.33 Q152.084 1403.72 152.084 1394.99 Q152.084 1386.24 155.14 1381.66 Q158.218 1377.05 164.028 1377.05 Z" fill="#000000" fill-rule="nonzero" fill-opacity="1" /><path clip-path="url(#clip850)" d="M184.19 1406.36 L189.075 1406.36 L189.075 1412.24 L184.19 1412.24 L184.19 1406.36 Z" fill="#000000" fill-rule="nonzero" fill-opacity="1" /><path clip-path="url(#clip850)" d="M200.07 1408.3 L207.709 1408.3 L207.709 1381.94 L199.399 1383.6 L199.399 1379.35 L207.662 1377.68 L212.338 1377.68 L212.338 1408.3 L219.977 1408.3 L219.977 1412.24 L200.07 1412.24 L200.07 1408.3 Z" fill="#000000" fill-rule="nonzero" fill-opacity="1" /><path clip-path="url(#clip850)" d="M162.802 964.963 Q159.19 964.963 157.362 968.528 Q155.556 972.069 155.556 979.199 Q155.556 986.305 157.362 989.87 Q159.19 993.412 162.802 993.412 Q166.436 993.412 168.241 989.87 Q170.07 986.305 170.07 979.199 Q170.07 972.069 168.241 968.528 Q166.436 964.963 162.802 964.963 M162.802 961.259 Q168.612 961.259 171.667 965.866 Q174.746 970.449 174.746 979.199 Q174.746 987.926 171.667 992.532 Q168.612 997.116 162.802 997.116 Q156.991 997.116 153.913 992.532 Q150.857 987.926 150.857 979.199 Q150.857 970.449 153.913 965.866 Q156.991 961.259 162.802 961.259 Z" fill="#000000" fill-rule="nonzero" fill-opacity="1" /><path clip-path="url(#clip850)" d="M182.963 990.565 L187.848 990.565 L187.848 996.444 L182.963 996.444 L182.963 990.565 Z" fill="#000000" fill-rule="nonzero" fill-opacity="1" /><path clip-path="url(#clip850)" d="M208.033 964.963 Q204.422 964.963 202.593 968.528 Q200.787 972.069 200.787 979.199 Q200.787 986.305 202.593 989.87 Q204.422 993.412 208.033 993.412 Q211.667 993.412 213.473 989.87 Q215.301 986.305 215.301 979.199 Q215.301 972.069 213.473 968.528 Q211.667 964.963 208.033 964.963 M208.033 961.259 Q213.843 961.259 216.898 965.866 Q219.977 970.449 219.977 979.199 Q219.977 987.926 216.898 992.532 Q213.843 997.116 208.033 997.116 Q202.223 997.116 199.144 992.532 Q196.088 987.926 196.088 979.199 Q196.088 970.449 199.144 965.866 Q202.223 961.259 208.033 961.259 Z" fill="#000000" fill-rule="nonzero" fill-opacity="1" /><path clip-path="url(#clip850)" d="M164.028 549.168 Q160.417 549.168 158.589 552.733 Q156.783 556.275 156.783 563.404 Q156.783 570.511 158.589 574.076 Q160.417 577.617 164.028 577.617 Q167.663 577.617 169.468 574.076 Q171.297 570.511 171.297 563.404 Q171.297 556.275 169.468 552.733 Q167.663 549.168 164.028 549.168 M164.028 545.465 Q169.839 545.465 172.894 550.071 Q175.973 554.654 175.973 563.404 Q175.973 572.131 172.894 576.738 Q169.839 581.321 164.028 581.321 Q158.218 581.321 155.14 576.738 Q152.084 572.131 152.084 563.404 Q152.084 554.654 155.14 550.071 Q158.218 545.465 164.028 545.465 Z" fill="#000000" fill-rule="nonzero" fill-opacity="1" /><path clip-path="url(#clip850)" d="M184.19 574.77 L189.075 574.77 L189.075 580.65 L184.19 580.65 L184.19 574.77 Z" fill="#000000" fill-rule="nonzero" fill-opacity="1" /><path clip-path="url(#clip850)" d="M200.07 576.714 L207.709 576.714 L207.709 550.349 L199.399 552.015 L199.399 547.756 L207.662 546.09 L212.338 546.09 L212.338 576.714 L219.977 576.714 L219.977 580.65 L200.07 580.65 L200.07 576.714 Z" fill="#000000" fill-rule="nonzero" fill-opacity="1" /><path clip-path="url(#clip850)" d="M164.399 133.373 Q160.788 133.373 158.959 136.938 Q157.153 140.48 157.153 147.61 Q157.153 154.716 158.959 158.281 Q160.788 161.822 164.399 161.822 Q168.033 161.822 169.839 158.281 Q171.667 154.716 171.667 147.61 Q171.667 140.48 169.839 136.938 Q168.033 133.373 164.399 133.373 M164.399 129.67 Q170.209 129.67 173.264 134.276 Q176.343 138.86 176.343 147.61 Q176.343 156.336 173.264 160.943 Q170.209 165.526 164.399 165.526 Q158.589 165.526 155.51 160.943 Q152.454 156.336 152.454 147.61 Q152.454 138.86 155.51 134.276 Q158.589 129.67 164.399 129.67 Z" fill="#000000" fill-rule="nonzero" fill-opacity="1" /><path clip-path="url(#clip850)" d="M184.561 158.975 L189.445 158.975 L189.445 164.855 L184.561 164.855 L184.561 158.975 Z" fill="#000000" fill-rule="nonzero" fill-opacity="1" /><path clip-path="url(#clip850)" d="M203.658 160.92 L219.977 160.92 L219.977 164.855 L198.033 164.855 L198.033 160.92 Q200.695 158.165 205.278 153.535 Q209.885 148.883 211.065 147.54 Q213.311 145.017 214.19 143.281 Q215.093 141.522 215.093 139.832 Q215.093 137.077 213.149 135.341 Q211.227 133.605 208.125 133.605 Q205.926 133.605 203.473 134.369 Q201.042 135.133 198.264 136.684 L198.264 131.961 Q201.088 130.827 203.542 130.248 Q205.996 129.67 208.033 129.67 Q213.403 129.67 216.598 132.355 Q219.792 135.04 219.792 139.531 Q219.792 141.66 218.982 143.582 Q218.195 145.48 216.088 148.072 Q215.51 148.744 212.408 151.961 Q209.306 155.156 203.658 160.92 Z" fill="#000000" fill-rule="nonzero" fill-opacity="1" /><path clip-path="url(#clip850)" d="M20.8447 823.791 Q20.8447 830.793 26.0645 834.931 Q31.2844 839.037 40.2919 839.037 Q49.2675 839.037 54.4874 834.931 Q59.7073 830.793 59.7073 823.791 Q59.7073 816.788 54.4874 812.714 Q49.2675 808.609 40.2919 808.609 Q31.2844 808.609 26.0645 812.714 Q20.8447 816.788 20.8447 823.791 M15.6248 823.791 Q15.6248 813.797 22.3406 807.813 Q29.0246 801.829 40.2919 801.829 Q51.5274 801.829 58.2432 807.813 Q64.9272 813.797 64.9272 823.791 Q64.9272 833.817 58.2432 839.832 Q51.5592 845.816 40.2919 845.816 Q29.0246 845.816 22.3406 839.832 Q15.6248 833.817 15.6248 823.791 Z" fill="#000000" fill-rule="nonzero" fill-opacity="1" /><path clip-path="url(#clip850)" d="M49.9359 792.631 L28.3562 792.631 L28.3562 786.774 L49.7131 786.774 Q54.7739 786.774 57.3202 784.801 Q59.8346 782.827 59.8346 778.881 Q59.8346 774.138 56.8109 771.401 Q53.7872 768.632 48.5673 768.632 L28.3562 768.632 L28.3562 762.775 L64.0042 762.775 L64.0042 768.632 L58.5296 768.632 Q61.7762 770.764 63.3676 773.597 Q64.9272 776.398 64.9272 780.122 Q64.9272 786.265 61.1078 789.448 Q57.2883 792.631 49.9359 792.631 M27.4968 777.894 L27.4968 777.894 Z" fill="#000000" fill-rule="nonzero" fill-opacity="1" /><path clip-path="url(#clip850)" d="M18.2347 744.92 L28.3562 744.92 L28.3562 732.857 L32.9077 732.857 L32.9077 744.92 L52.2594 744.92 Q56.6199 744.92 57.8613 743.742 Q59.1026 742.533 59.1026 738.872 L59.1026 732.857 L64.0042 732.857 L64.0042 738.872 Q64.0042 745.652 61.4897 748.23 Q58.9434 750.808 52.2594 750.808 L32.9077 750.808 L32.9077 755.105 L28.3562 755.105 L28.3562 750.808 L18.2347 750.808 L18.2347 744.92 Z" fill="#000000" fill-rule="nonzero" fill-opacity="1" /><path clip-path="url(#clip850)" d="M58.657 719.489 L77.5631 719.489 L77.5631 725.377 L28.3562 725.377 L28.3562 719.489 L33.7671 719.489 Q30.5842 717.643 29.0564 714.842 Q27.4968 712.009 27.4968 708.094 Q27.4968 701.601 32.6531 697.559 Q37.8093 693.485 46.212 693.485 Q54.6147 693.485 59.771 697.559 Q64.9272 701.601 64.9272 708.094 Q64.9272 712.009 63.3994 714.842 Q61.8398 717.643 58.657 719.489 M46.212 699.564 Q39.7508 699.564 36.0905 702.238 Q32.3984 704.879 32.3984 709.526 Q32.3984 714.173 36.0905 716.847 Q39.7508 719.489 46.212 719.489 Q52.6732 719.489 56.3653 716.847 Q60.0256 714.173 60.0256 709.526 Q60.0256 704.879 56.3653 702.238 Q52.6732 699.564 46.212 699.564 Z" fill="#000000" fill-rule="nonzero" fill-opacity="1" /><path clip-path="url(#clip850)" d="M49.9359 684.382 L28.3562 684.382 L28.3562 678.525 L49.7131 678.525 Q54.7739 678.525 57.3202 676.552 Q59.8346 674.579 59.8346 670.632 Q59.8346 665.889 56.8109 663.152 Q53.7872 660.383 48.5673 660.383 L28.3562 660.383 L28.3562 654.527 L64.0042 654.527 L64.0042 660.383 L58.5296 660.383 Q61.7762 662.516 63.3676 665.348 Q64.9272 668.149 64.9272 671.873 Q64.9272 678.016 61.1078 681.199 Q57.2883 684.382 49.9359 684.382 M27.4968 669.645 L27.4968 669.645 Z" fill="#000000" fill-rule="nonzero" fill-opacity="1" /><path clip-path="url(#clip850)" d="M18.2347 636.671 L28.3562 636.671 L28.3562 624.608 L32.9077 624.608 L32.9077 636.671 L52.2594 636.671 Q56.6199 636.671 57.8613 635.493 Q59.1026 634.284 59.1026 630.623 L59.1026 624.608 L64.0042 624.608 L64.0042 630.623 Q64.0042 637.403 61.4897 639.981 Q58.9434 642.559 52.2594 642.559 L32.9077 642.559 L32.9077 646.856 L28.3562 646.856 L28.3562 642.559 L18.2347 642.559 L18.2347 636.671 Z" fill="#000000" fill-rule="nonzero" fill-opacity="1" /><polyline clip-path="url(#clip852)" style="stroke:#009af9; stroke-linecap:round; stroke-linejoin:round; stroke-width:4; stroke-opacity:1; fill:none" points="315.32,979.164 319.284,979.164 323.248,979.164 323.248,938.065 327.212,938.065 327.212,898.177 331.176,898.177 331.176,859.849 335.141,859.849 335.141,823.395 339.105,823.395 339.105,789.086 343.069,789.086 343.069,757.145 347.033,757.145 347.033,727.748 350.997,727.748 350.997,701.019 354.961,701.019 354.961,677.028 358.925,677.028 358.925,655.796 362.889,655.796 362.889,719.488 366.853,719.488 366.853,783.403 370.818,783.403 370.818,846.715 374.782,846.715 374.782,908.628 378.746,908.628 378.746,968.395 382.71,968.395 382.71,943.129 386.674,943.129 386.674,916.832 390.638,916.832 390.638,889.67 394.602,889.67 394.602,861.826 398.566,861.826 398.566,833.491 402.53,833.491 402.53,887.065 406.495,887.065 406.495,938.133 410.459,938.133 410.459,986.199 414.423,986.199 414.423,1030.84 418.387,1030.84 418.387,1071.69 422.351,1071.69 422.351,1108.5 426.315,1108.5 426.315,1141.06 430.279,1141.06 430.279,1169.29 434.243,1169.29 434.243,1193.16 438.208,1193.16 438.208,1212.73 442.172,1212.73 442.172,1228.15 446.136,1228.15 446.136,1239.64 450.1,1239.64 450.1,1247.47 454.064,1247.47 454.064,1251.99 458.028,1251.99 458.028,1253.6 461.992,1253.6 461.992,1170.53 465.956,1170.53 465.956,1087.87 469.92,1087.87 469.92,1006.8 473.885,1006.8 473.885,928.467 477.849,928.467 477.849,853.901 481.813,853.901 481.813,784.05 485.777,784.05 485.777,719.741 489.741,719.741 489.741,661.672 493.705,661.672 493.705,610.401 497.669,610.401 497.669,566.341 501.633,566.341 501.633,611.952 505.597,611.952 505.597,662.726 509.562,662.726 509.562,717.925 513.526,717.925 513.526,776.743 517.49,776.743 517.49,838.322 521.454,838.322 521.454,819.573 525.418,819.573 525.418,804.209 529.382,804.209 529.382,792.029 533.346,792.029 533.346,782.779 537.31,782.779 537.31,776.157 541.275,776.157 541.275,771.825 545.239,771.825 545.239,769.412 549.203,769.412 549.203,768.524 553.167,768.524 553.167,768.755 557.131,768.755 557.131,769.689 561.095,769.689 561.095,853.113 565.059,853.113 565.059,934.005 569.023,934.005 569.023,1011.28 572.987,1011.28 572.987,1083.96 576.952,1083.96 576.952,1151.16 580.916,1151.16 580.916,1212.16 584.88,1212.16 584.88,1266.34 588.844,1266.34 588.844,1313.25 592.808,1313.25 592.808,1352.6 596.772,1352.6 596.772,1384.24 600.736,1384.24 600.736,1325.97 604.7,1325.97 604.7,1262.56 608.664,1262.56 608.664,1195.01 612.629,1195.01 612.629,1124.36 616.593,1124.36 616.593,1051.7 620.557,1051.7 620.557,1060.32 624.521,1060.32 624.521,1066.69 628.485,1066.69 628.485,1071.15 632.449,1071.15 632.449,1074.09 636.413,1074.09 636.413,1075.89 640.377,1075.89 640.377,1076.95 644.341,1076.95 644.341,1077.66 648.306,1077.66 648.306,1078.41 652.27,1078.41 652.27,1079.58 656.234,1079.58 656.234,1081.51 660.198,1081.51 660.198,1084.52 664.162,1084.52 664.162,1088.9 668.126,1088.9 668.126,1094.88 672.09,1094.88 672.09,1102.68 676.054,1102.68 676.054,1112.44 680.019,1112.44 680.019,1124.29 683.983,1124.29 683.983,1138.28 687.947,1138.28 687.947,1154.43 691.911,1154.43 691.911,1172.71 695.875,1172.71 695.875,1193.04 699.839,1193.04 699.839,1133.11 703.803,1133.11 703.803,1077.37 707.767,1077.37 707.767,1026.35 711.731,1026.35 711.731,980.444 715.696,980.444 715.696,939.959 719.66,939.959 719.66,987.279 723.624,987.279 723.624,1037.86 727.588,1037.86 727.588,1090.98 731.552,1090.98 731.552,1145.86 735.516,1145.86 735.516,1201.72 739.48,1201.72 739.48,1175.6 743.444,1175.6 743.444,1151.34 747.408,1151.34 747.408,1128.91 751.373,1128.91 751.373,1108.24 755.337,1108.24 755.337,1089.25 759.301,1089.25 759.301,1071.81 763.265,1071.81 763.265,1055.78 767.229,1055.78 767.229,1041.01 771.193,1041.01 771.193,1027.31 775.157,1027.31 775.157,1014.5 779.121,1014.5 779.121,1002.39 783.085,1002.39 783.085,990.764 787.05,990.764 787.05,979.437 791.014,979.437 791.014,968.21 794.978,968.21 794.978,956.896 798.942,956.896 798.942,945.321 802.906,945.321 802.906,933.323 806.87,933.323 806.87,920.758 810.834,920.758 810.834,907.501 814.798,907.501 814.798,893.449 818.763,893.449 818.763,878.519 822.727,878.519 822.727,862.655 826.691,862.655 826.691,845.823 830.655,845.823 830.655,828.013 834.619,828.013 834.619,809.237 838.583,809.237 838.583,789.531 842.547,789.531 842.547,768.952 846.511,768.952 846.511,747.575 850.475,747.575 850.475,725.491 854.44,725.491 854.44,702.808 858.404,702.808 858.404,679.646 862.368,679.646 862.368,656.132 866.332,656.132 866.332,632.401 870.296,632.401 870.296,608.593 874.26,608.593 874.26,584.846 878.224,584.846 878.224,643.495 882.188,643.495 882.188,700.055 886.152,700.055 886.152,753.949 890.117,753.949 890.117,804.67 894.081,804.67 894.081,851.778 898.045,851.778 898.045,812.719 902.009,812.719 902.009,771.839 905.973,771.839 905.973,729.649 909.937,729.649 909.937,686.678 913.901,686.678 913.901,643.456 917.865,643.456 917.865,600.506 921.829,600.506 921.829,558.334 925.794,558.334 925.794,517.418 929.758,517.418 929.758,478.202 933.722,478.202 933.722,441.085 937.686,441.085 937.686,488.615 941.65,488.615 941.65,536.466 945.614,536.466 945.614,584.175 949.578,584.175 949.578,631.288 953.542,631.288 953.542,677.372 957.507,677.372 957.507,722.022 961.471,722.022 961.471,764.869 965.435,764.869 965.435,805.586 969.399,805.586 969.399,843.891 973.363,843.891 973.363,879.556 977.327,879.556 977.327,830.208 981.291,830.208 981.291,780.347 985.255,780.347 985.255,730.61 989.219,730.61 989.219,681.618 993.184,681.618 993.184,633.961 997.148,633.961 997.148,670.388 1001.11,670.388 1001.11,706.78 1005.08,706.78 1005.08,742.879 1009.04,742.879 1009.04,778.436 1013,778.436 1013,813.216 1016.97,813.216 1016.97,847.001 1020.93,847.001 1020.93,879.594 1024.9,879.594 1024.9,910.826 1028.86,910.826 1028.86,940.551 1032.82,940.551 1032.82,968.656 1036.79,968.656 1036.79,912.86 1040.75,912.86 1040.75,857.731 1044.72,857.731 1044.72,803.949 1048.68,803.949 1048.68,752.151 1052.65,752.151 1052.65,702.923 1056.61,702.923 1056.61,656.782 1060.57,656.782 1060.57,614.178 1064.54,614.178 1064.54,575.476 1068.5,575.476 1068.5,540.963 1072.47,540.963 1072.47,510.834 1076.43,510.834 1076.43,485.198 1080.39,485.198 1080.39,464.076 1084.36,464.076 1084.36,447.402 1088.32,447.402 1088.32,435.028 1092.29,435.028 1092.29,426.73 1096.25,426.73 1096.25,422.214 1100.21,422.214 1100.21,421.122 1104.18,421.122 1104.18,423.044 1108.14,423.044 1108.14,427.527 1112.11,427.527 1112.11,434.081 1116.07,434.081 1116.07,442.196 1120.04,442.196 1120.04,451.349 1124,451.349 1124,461.014 1127.96,461.014 1127.96,470.674 1131.93,470.674 1131.93,479.833 1135.89,479.833 1135.89,488.018 1139.86,488.018 1139.86,494.796 1143.82,494.796 1143.82,499.775 1147.78,499.775 1147.78,502.615 1151.75,502.615 1151.75,503.03 1155.71,503.03 1155.71,500.793 1159.68,500.793 1159.68,495.739 1163.64,495.739 1163.64,487.766 1167.6,487.766 1167.6,476.835 1171.57,476.835 1171.57,462.97 1175.53,462.97 1175.53,446.254 1179.5,446.254 1179.5,426.826 1183.46,426.826 1183.46,404.879 1187.43,404.879 1187.43,380.651 1191.39,380.651 1191.39,354.42 1195.35,354.42 1195.35,408.696 1199.32,408.696 1199.32,459.199 1203.28,459.199 1203.28,505.588 1207.25,505.588 1207.25,547.607 1211.21,547.607 1211.21,585.087 1215.17,585.087 1215.17,535.752 1219.14,535.752 1219.14,484.23 1223.1,484.23 1223.1,431.315 1227.07,431.315 1227.07,377.808 1231.03,377.808 1231.03,324.501 1234.99,324.501 1234.99,272.161 1238.96,272.161 1238.96,221.516 1242.92,221.516 1242.92,173.243 1246.89,173.243 1246.89,127.954 1250.85,127.954 1250.85,86.1857 1254.82,86.1857 1254.82,130.593 1258.78,130.593 1258.78,176.922 1262.74,176.922 1262.74,224.746 1266.71,224.746 1266.71,273.615 1270.67,273.615 1270.67,323.068 1274.64,323.068 1274.64,290.441 1278.6,290.441 1278.6,259.894 1282.56,259.894 1282.56,231.684 1286.53,231.684 1286.53,206.016 1290.49,206.016 1290.49,183.043 1294.46,183.043 1294.46,245.059 1298.42,245.059 1298.42,307.487 1302.38,307.487 1302.38,369.617 1306.35,369.617 1306.35,430.757 1310.31,430.757 1310.31,490.252 1314.28,490.252 1314.28,465.295 1318.24,465.295 1318.24,439.953 1322.21,439.953 1322.21,414.442 1326.17,414.442 1326.17,388.975 1330.13,388.975 1330.13,363.763 1334.1,363.763 1334.1,339.008 1338.06,339.008 1338.06,314.9 1342.03,314.9 1342.03,291.613 1345.99,291.613 1345.99,269.303 1349.95,269.303 1349.95,248.104 1353.92,248.104 1353.92,310.327 1357.88,310.327 1357.88,371.439 1361.85,371.439 1361.85,430.801 1365.81,430.801 1365.81,487.823 1369.77,487.823 1369.77,541.972 1373.74,541.972 1373.74,592.783 1377.7,592.783 1377.7,639.866 1381.67,639.866 1381.67,682.907 1385.63,682.907 1385.63,721.681 1389.6,721.681 1389.6,756.046 1393.56,756.046 1393.56,703.746 1397.52,703.746 1397.52,649.432 1401.49,649.432 1401.49,593.912 1405.45,593.912 1405.45,538 1409.42,538 1409.42,482.497 1413.38,482.497 1413.38,510.371 1417.34,510.371 1417.34,537.732 1421.31,537.732 1421.31,564.553 1425.27,564.553 1425.27,590.812 1429.24,590.812 1429.24,616.496 1433.2,616.496 1433.2,641.597 1437.16,641.597 1437.16,666.115 1441.13,666.115 1441.13,690.056 1445.09,690.056 1445.09,713.432 1449.06,713.432 1449.06,736.264 1453.02,736.264 1453.02,758.575 1456.98,758.575 1456.98,780.395 1460.95,780.395 1460.95,801.757 1464.91,801.757 1464.91,822.699 1468.88,822.699 1468.88,843.261 1472.84,843.261 1472.84,863.484 1476.81,863.484 1476.81,883.412 1480.77,883.412 1480.77,903.088 1484.73,903.088 1484.73,922.555 1488.7,922.555 1488.7,941.854 1492.66,941.854 1492.66,878.826 1496.63,878.826 1496.63,818.128 1500.59,818.128 1500.59,760.491 1504.55,760.491 1504.55,706.573 1508.52,706.573 1508.52,656.938 1512.48,656.938 1512.48,694.255 1516.45,694.255 1516.45,734.27 1520.41,734.27 1520.41,776.54 1524.37,776.54 1524.37,820.59 1528.34,820.59 1528.34,865.915 1532.3,865.915 1532.3,829.801 1536.27,829.801 1536.27,796.347 1540.23,796.347 1540.23,765.738 1544.2,765.738 1544.2,738.103 1548.16,738.103 1548.16,713.512 1552.12,713.512 1552.12,691.977 1556.09,691.977 1556.09,673.452 1560.05,673.452 1560.05,657.84 1564.02,657.84 1564.02,644.989 1567.98,644.989 1567.98,634.706 1571.94,634.706 1571.94,708.95 1575.91,708.95 1575.91,782.83 1579.87,782.83 1579.87,855.347 1583.84,855.347 1583.84,925.549 1587.8,925.549 1587.8,992.559 1591.76,992.559 1591.76,973.383 1595.73,973.383 1595.73,951.942 1599.69,951.942 1599.69,928.348 1603.66,928.348 1603.66,902.754 1607.62,902.754 1607.62,875.353 1611.59,875.353 1611.59,846.371 1615.55,846.371 1615.55,816.062 1619.51,816.062 1619.51,784.702 1623.48,784.702 1623.48,752.583 1627.44,752.583 1627.44,720.008 1631.41,720.008 1631.41,687.282 1635.37,687.282 1635.37,654.708 1639.33,654.708 1639.33,622.582 1643.3,622.582 1643.3,591.182 1647.26,591.182 1647.26,560.771 1651.23,560.771 1651.23,531.587 1655.19,531.587 1655.19,503.837 1659.15,503.837 1659.15,477.702 1663.12,477.702 1663.12,453.325 1667.08,453.325 1667.08,430.816 1671.05,430.816 1671.05,410.246 1675.01,410.246 1675.01,391.651 1678.98,391.651 1678.98,375.03 1682.94,375.03 1682.94,360.343 1686.9,360.343 1686.9,347.521 1690.87,347.521 1690.87,336.46 1694.83,336.46 1694.83,327.029 1698.8,327.029 1698.8,319.071 1702.76,319.071 1702.76,312.408 1706.72,312.408 1706.72,306.845 1710.69,306.845 1710.69,302.172 1714.65,302.172 1714.65,298.173 1718.62,298.173 1718.62,294.628 1722.58,294.628 1722.58,291.315 1726.54,291.315 1726.54,288.018 1730.51,288.018 1730.51,366.729 1734.47,366.729 1734.47,442.634 1738.44,442.634 1738.44,514.853 1742.4,514.853 1742.4,582.602 1746.37,582.602 1746.37,645.201 1750.33,645.201 1750.33,702.088 1754.29,702.088 1754.29,752.821 1758.26,752.821 1758.26,797.092 1762.22,797.092 1762.22,834.72 1766.19,834.72 1766.19,865.658 1770.15,865.658 1770.15,807.787 1774.11,807.787 1774.11,745.93 1778.08,745.93 1778.08,681.104 1782.04,681.104 1782.04,614.358 1786.01,614.358 1786.01,546.752 1789.97,546.752 1789.97,561.532 1793.93,561.532 1793.93,575.094 1797.9,575.094 1797.9,587.705 1801.86,587.705 1801.86,599.636 1805.83,599.636 1805.83,611.159 1809.79,611.159 1809.79,622.54 1813.76,622.54 1813.76,634.038 1817.72,634.038 1817.72,645.895 1821.68,645.895 1821.68,658.334 1825.65,658.334 1825.65,671.557 1829.61,671.557 1829.61,603.54 1833.58,603.54 1833.58,539.05 1837.54,539.05 1837.54,478.901 1841.5,478.901 1841.5,423.805 1845.47,423.805 1845.47,374.353 1849.43,374.353 1849.43,331.013 1853.4,331.013 1853.4,294.123 1857.36,294.123 1857.36,263.886 1861.32,263.886 1861.32,240.372 1865.29,240.372 1865.29,223.52 1869.25,223.52 1869.25,295.341 1873.22,295.341 1873.22,370.909 1877.18,370.909 1877.18,449.11 1881.15,449.11 1881.15,528.806 1885.11,528.806 1885.11,608.857 1889.07,608.857 1889.07,688.147 1893.04,688.147 1893.04,765.601 1897,765.601 1897,840.21 1900.97,840.21 1900.97,911.043 1904.93,911.043 1904.93,977.269 1908.89,977.269 1908.89,1038.17 1912.86,1038.17 1912.86,1093.14 1916.82,1093.14 1916.82,1141.71 1920.79,1141.71 1920.79,1183.55 1924.75,1183.55 1924.75,1218.46 1928.71,1218.46 1928.71,1164.19 1932.68,1164.19 1932.68,1105.43 1936.64,1105.43 1936.64,1043.09 1940.61,1043.09 1940.61,978.114 1944.57,978.114 1944.57,911.493 1948.54,911.493 1948.54,844.211 1952.5,844.211 1952.5,777.244 1956.46,777.244 1956.46,711.537 1960.43,711.537 1960.43,647.983 1964.39,647.983 1964.39,587.414 1968.36,587.414 1968.36,612.776 1972.32,612.776 1972.32,640.11 1976.28,640.11 1976.28,669.269 1980.25,669.269 1980.25,700.075 1984.21,700.075 1984.21,732.315 1988.18,732.315 1988.18,765.75 1992.14,765.75 1992.14,800.122 1996.1,800.122 1996.1,835.156 2000.07,835.156 2000.07,870.569 2004.03,870.569 2004.03,906.074 2008,906.074 2008,859.189 2011.96,859.189 2011.96,814.256 2015.93,814.256 2015.93,771.713 2019.89,771.713 2019.89,731.941 2023.85,731.941 2023.85,695.259 2027.82,695.259 2027.82,661.92 2031.78,661.92 2031.78,632.106 2035.75,632.106 2035.75,605.93 2039.71,605.93 2039.71,583.433 2043.67,583.433 2043.67,564.586 2047.64,564.586 2047.64,631.491 2051.6,631.491 2051.6,699.367 2055.57,699.367 2055.57,767.299 2059.53,767.299 2059.53,834.387 2063.49,834.387 2063.49,899.776 2067.46,899.776 2067.46,880.462 2071.42,880.462 2071.42,860.332 2075.39,860.332 2075.39,839.43 2079.35,839.43 2079.35,817.821 2083.32,817.821 2083.32,795.584 2087.28,795.584 2087.28,855.011 2091.24,855.011 2091.24,911.586 2095.21,911.586 2095.21,964.724 2099.17,964.724 2099.17,1013.92 2103.14,1013.92 2103.14,1058.75 2107.1,1058.75 2107.1,1016.7 2111.06,1016.7 2111.06,972.162 2115.03,972.162 2115.03,925.704 2118.99,925.704 2118.99,877.925 2122.96,877.925 2122.96,829.435 2126.92,829.435 2126.92,863.04 2130.88,863.04 2130.88,894.718 2134.85,894.718 2134.85,924.341 2138.81,924.341 2138.81,951.822 2142.78,951.822 2142.78,977.115 2146.74,977.115 2146.74,1000.21 2150.7,1000.21 2150.7,1021.14 2154.67,1021.14 2154.67,1039.98 2158.63,1039.98 2158.63,1056.83 2162.6,1056.83 2162.6,1071.83 2166.56,1071.83 2166.56,1002.94 2170.53,1002.94 2170.53,934.977 2174.49,934.977 2174.49,868.844 2178.45,868.844 2178.45,805.392 2182.42,805.392 2182.42,745.4 2186.38,745.4 2186.38,771.753 2190.35,771.753 2190.35,800.423 2194.31,800.423 2194.31,831.196 2198.27,831.196 2198.27,863.815 2202.24,863.815 2202.24,897.993 2206.2,897.993 2206.2,933.417 2210.17,933.417 2210.17,969.752 2214.13,969.752 2214.13,1006.65 2218.09,1006.65 2218.09,1043.77 2222.06,1043.77 2222.06,1080.76 2226.02,1080.76 2226.02,1035.08 2229.99,1035.08 2229.99,991.022 2233.95,991.022 2233.95,948.993 2237.92,948.993 2237.92,909.338 2241.88,909.338 2241.88,872.357 2245.84,872.357 2245.84,838.289 2249.81,838.289 2249.81,807.314 2253.77,807.314 2253.77,779.551 2257.74,779.551 2257.74,755.053 2261.7,755.053 2261.7,733.814 2265.66,733.814 2265.66,797.966 2269.63,797.966 2269.63,862.765 2273.59,862.765 2273.59,927.335 2277.56,927.335 2277.56,990.825 2281.52,990.825 2281.52,1052.43 2285.48,1052.43 2285.48,1111.39 2289.45,1111.39 2289.45,1167.03 2293.41,1167.03 2293.41,1218.76 "/>
<polyline clip-path="url(#clip852)" style="stroke:#e26f46; stroke-linecap:round; stroke-linejoin:round; stroke-width:4; stroke-opacity:1; fill:none" points="315.32,1017.66 319.284,980.32 323.248,941.978 327.212,903.274 331.176,864.839 335.141,827.275 339.105,791.141 343.069,756.941 347.033,725.115 350.997,696.029 354.961,624.152 358.925,664.553 362.889,709.78 366.853,758.894 370.818,810.893 374.782,910.564 378.746,902.002 382.71,891.758 386.674,879.827 390.638,866.251 394.602,805.289 398.566,851.923 402.53,898.73 406.495,944.909 410.459,989.707 414.423,1032.43 418.387,1072.45 422.351,1109.25 426.315,1142.39 430.279,1171.53 434.243,1196.47 438.208,1217.07 442.172,1233.34 446.136,1245.37 450.1,1253.36 454.064,1303.41 458.028,1241.03 461.992,1174.2 465.956,1104.39 469.92,1033.08 473.885,961.729 477.849,891.732 481.813,824.412 485.777,760.975 489.741,702.485 493.705,604.03 497.669,621.206 501.633,646.985 505.597,680.744 509.562,721.687 513.526,814.692 517.49,803.839 521.454,795.554 525.418,789.612 529.382,785.745 533.346,783.641 537.31,782.965 541.275,783.357 545.239,784.45 549.203,785.874 553.167,741.448 557.131,805.693 561.095,870.715 565.059,935.248 569.023,998.086 572.987,1058.11 576.952,1114.3 580.916,1165.78 584.88,1211.83 588.844,1251.85 592.808,1331.26 596.772,1294.96 600.736,1250.45 604.7,1198.8 608.664,1141.21 612.629,1033.17 616.593,1030.91 620.557,1028.25 624.521,1025.62 628.485,1023.39 632.449,1021.94 636.413,1021.61 640.377,1022.67 644.341,1025.39 648.306,1029.95 652.27,1036.49 656.234,1045.09 660.198,1055.78 664.162,1068.55 668.126,1083.3 672.09,1099.93 676.054,1118.27 680.019,1138.1 683.983,1159.21 687.947,1181.34 691.911,1250.03 695.875,1210.14 699.839,1168.95 703.803,1127.17 707.767,1085.48 711.731,998.72 715.696,1022.38 719.66,1049.44 723.624,1079.43 727.588,1111.81 731.552,1191.83 735.516,1164.03 739.48,1135.37 743.444,1106.24 747.408,1077.01 751.373,1048.04 755.337,1019.68 759.301,992.257 763.265,966.057 767.229,941.328 771.193,918.275 775.157,897.057 779.121,877.785 783.085,860.517 787.05,845.264 791.014,831.991 794.978,820.615 798.942,811.014 802.906,803.027 806.87,796.466 810.834,791.112 814.798,786.731 818.763,783.075 822.727,779.889 826.691,776.917 830.655,773.914 834.619,770.64 838.583,766.879 842.547,762.433 846.511,757.131 850.475,750.831 854.44,743.421 858.404,734.825 862.368,724.997 866.332,713.927 870.296,655.815 874.26,705.578 878.224,755.724 882.188,805.38 886.152,853.719 890.117,945.793 894.081,926.051 898.045,901.469 902.009,872.529 905.973,839.803 909.937,803.934 913.901,765.618 917.865,725.586 921.829,684.583 925.794,643.349 929.758,556.787 933.722,580.442 937.686,607.371 941.65,637.162 945.614,669.344 949.578,703.407 953.542,738.812 957.507,775.006 961.471,811.438 965.435,847.568 969.399,928.704 973.363,899.506 977.327,867.119 981.291,832.148 985.255,795.24 989.219,711.244 993.184,735.703 997.148,761.71 1001.11,788.93 1005.08,817.009 1009.04,845.583 1013,874.29 1016.97,902.776 1020.93,930.704 1024.9,957.762 1028.86,1029.49 1032.82,990.773 1036.79,948.988 1040.75,904.95 1044.72,859.503 1048.68,813.493 1052.65,767.749 1056.61,723.062 1060.57,680.171 1064.54,639.743 1068.5,602.361 1072.47,568.513 1076.43,538.584 1080.39,512.852 1084.36,491.482 1088.32,474.53 1092.29,461.942 1096.25,453.565 1100.21,449.148 1104.18,448.357 1108.14,450.784 1112.11,455.96 1116.07,463.369 1120.04,472.462 1124,482.672 1127.96,493.429 1131.93,504.171 1135.89,514.363 1139.86,523.503 1143.82,531.135 1147.78,536.861 1151.75,540.343 1155.71,541.315 1159.68,539.582 1163.64,535.024 1167.6,527.595 1171.57,517.322 1175.53,504.303 1179.5,488.698 1183.46,470.727 1187.43,404.839 1191.39,446.211 1195.35,487.614 1199.32,528.44 1203.28,568.115 1207.25,651.933 1211.21,624.563 1215.17,593.178 1219.14,558.429 1223.1,521.028 1227.07,481.722 1231.03,441.279 1234.99,400.465 1238.96,360.027 1242.92,320.677 1246.89,237.253 1250.85,265.212 1254.82,297.496 1258.78,333.554 1262.74,372.764 1266.71,460.268 1270.67,440.488 1274.64,420.266 1278.6,399.848 1282.56,379.477 1286.53,313.568 1290.49,357.206 1294.46,403.018 1298.42,450.207 1302.38,497.967 1306.35,591.33 1310.31,574.675 1314.28,554.871 1318.24,532.255 1322.21,507.221 1326.17,480.207 1330.13,451.685 1334.1,422.146 1338.06,392.088 1342.03,362.004 1345.99,286.552 1349.95,321.043 1353.92,358.316 1357.88,397.76 1361.85,438.731 1365.81,480.571 1369.77,522.626 1373.74,564.258 1377.7,604.863 1381.67,643.882 1385.63,726.635 1389.6,697.824 1393.56,664.665 1397.52,627.858 1401.49,588.167 1405.45,500.579 1409.42,520.784 1413.38,542.037 1417.34,564.169 1421.31,586.993 1425.27,610.31 1429.24,633.917 1433.2,657.607 1437.16,681.179 1441.13,704.439 1445.09,727.208 1449.06,749.323 1453.02,770.64 1456.98,791.039 1460.95,810.426 1464.91,828.731 1468.88,845.913 1472.84,861.957 1476.81,876.874 1480.77,890.702 1484.73,949.318 1488.7,897.938 1492.66,844.234 1496.63,789.293 1500.59,734.196 1504.55,634.165 1508.52,645.049 1512.48,660.175 1516.45,679.369 1520.41,702.361 1524.37,774.618 1528.34,740.85 1532.3,708.144 1536.27,676.95 1540.23,647.661 1544.2,620.614 1548.16,596.077 1552.12,574.251 1556.09,555.263 1560.05,539.169 1564.02,480.134 1567.98,532.942 1571.94,589.872 1575.91,649.748 1579.87,711.361 1583.84,819.327 1587.8,817.607 1591.76,812.661 1595.73,804.434 1599.69,792.954 1603.66,778.331 1607.62,760.746 1611.59,740.448 1615.55,717.744 1619.51,692.987 1623.48,666.57 1627.44,638.912 1631.41,610.448 1635.37,581.614 1639.33,552.845 1643.3,524.555 1647.26,497.133 1651.23,470.935 1655.19,446.272 1659.15,423.41 1663.12,402.56 1667.08,383.88 1671.05,367.469 1675.01,353.37 1678.98,341.566 1682.94,331.992 1686.9,324.528 1690.87,319.011 1694.83,315.238 1698.8,312.973 1702.76,311.954 1706.72,311.9 1710.69,312.519 1714.65,313.516 1718.62,314.597 1722.58,269.662 1726.54,333.312 1730.51,397.732 1734.47,461.732 1738.44,524.178 1742.4,584.011 1746.37,640.278 1750.33,692.145 1754.29,738.917 1758.26,780.045 1762.22,860.956 1766.19,826.555 1770.15,784.339 1774.11,735.366 1778.08,680.818 1782.04,576.149 1786.01,577.553 1789.97,578.811 1793.93,580.287 1797.9,582.324 1801.86,585.237 1805.83,589.304 1809.79,594.764 1813.76,601.809 1817.72,610.584 1821.68,667.005 1825.65,616.251 1829.61,565.891 1833.58,516.85 1837.54,469.986 1841.5,426.075 1845.47,385.789 1849.43,349.69 1853.4,318.219 1857.36,291.687 1861.32,224.457 1865.29,271.444 1869.25,325.003 1873.22,383.964 1877.18,447.068 1881.15,513.005 1885.11,580.442 1889.07,648.06 1893.04,714.585 1897,778.816 1900.97,839.653 1904.93,896.118 1908.89,947.376 1912.86,992.746 1916.82,1031.72 1920.79,1109.77 1924.75,1071.88 1928.71,1025.62 1932.68,972.144 1936.64,912.73 1940.61,848.756 1944.57,781.66 1948.54,712.899 1952.5,643.918 1956.46,576.112 1960.43,464.976 1964.39,466.579 1968.36,474.42 1972.32,488.437 1976.28,508.419 1980.25,534.017 1984.21,564.758 1988.18,600.057 1992.14,639.243 1996.1,681.573 2000.07,772.072 2004.03,755.057 2008,737.27 2011.96,718.872 2015.93,700.034 2019.89,680.932 2023.85,661.745 2027.82,642.648 2031.78,623.806 2035.75,605.377 2039.71,541.683 2043.67,587.713 2047.64,635.999 2051.6,685.649 2055.57,735.769 2059.53,831.307 2063.49,816.566 2067.46,798.348 2071.42,776.934 2075.39,752.675 2079.35,680.158 2083.32,714.7 2087.28,749.214 2091.24,783.227 2095.21,816.295 2099.17,893.833 2103.14,860.616 2107.1,823.91 2111.06,784.445 2115.03,742.99 2118.99,654.515 2122.96,674.674 2126.92,696.668 2130.88,720.253 2134.85,745.157 2138.81,771.082 2142.78,797.718 2146.74,824.745 2150.7,851.845 2154.67,878.708 2158.63,950.861 2162.6,913.168 2166.56,872.956 2170.53,830.992 2174.49,788.056 2178.45,699.104 2182.42,719.753 2186.38,743.141 2190.35,768.947 2194.31,796.802 2198.27,826.298 2202.24,857.002 2206.2,888.467 2210.17,920.242 2214.13,951.886 2218.09,1028.79 2222.06,995.702 2226.02,959.826 2229.99,921.827 2233.95,882.391 2237.92,842.217 2241.88,801.997 2245.84,762.396 2249.81,724.043 2253.77,687.513 2257.74,607.496 2261.7,639.293 2265.66,675.685 2269.63,715.961 2273.59,759.343 2277.56,805.002 2281.52,852.089 2285.48,899.748 2289.45,947.14 2293.41,993.466 "/>
<polyline clip-path="url(#clip852)" style="stroke:#3da44d; stroke-linecap:round; stroke-linejoin:round; stroke-width:4; stroke-opacity:1; fill:none" points="315.32,1014.28 319.284,982.9 323.248,950.022 327.212,916.154 331.176,881.809 335.141,847.495 339.105,813.704 343.069,780.894 347.033,749.486 350.997,719.851 354.961,652.316 358.925,695.807 362.889,744.212 366.853,796.53 370.818,851.701 374.782,948.624 378.746,937.535 382.71,923.668 386.674,907.126 390.638,888.078 394.602,826.757 398.566,872.107 402.53,918.138 406.495,964.07 410.459,1009.15 414.423,1052.68 418.387,1094.01 422.351,1132.59 426.315,1167.93 430.279,1199.66 434.243,1227.49 438.208,1251.24 442.172,1270.84 446.136,1286.32 450.1,1297.8 454.064,1345.49 458.028,1281.02 461.992,1211.05 465.956,1137.13 469.92,1060.86 473.885,983.831 477.849,907.581 481.813,833.583 485.777,763.199 489.741,697.65 493.705,598.006 497.669,613.816 501.633,639.459 505.597,674.286 509.562,717.448 513.526,807.915 517.49,795.856 521.454,786.305 525.418,779.049 529.382,773.828 533.346,770.346 537.31,768.276 541.275,767.275 545.239,766.985 549.203,767.048 553.167,727.123 557.131,795.546 561.095,865.703 565.059,936.186 569.023,1005.63 572.987,1072.75 576.952,1136.36 580.916,1195.41 584.88,1248.99 588.844,1296.36 592.808,1376.95 596.772,1341.72 600.736,1296.77 604.7,1243.22 608.664,1182.36 612.629,1075.6 616.593,1073.13 620.557,1070.19 624.521,1067.24 628.485,1064.68 632.449,1062.93 636.413,1062.33 640.377,1063.2 644.341,1065.8 648.306,1070.35 652.27,1077.01 656.234,1085.85 660.198,1096.93 664.162,1110.21 668.126,1125.63 672.09,1143.06 676.054,1162.33 680.019,1183.21 683.983,1205.48 687.947,1228.86 691.911,1293.04 695.875,1249.07 699.839,1202.94 703.803,1155.47 707.767,1107.51 711.731,1019.86 715.696,1041.97 719.66,1068.28 723.624,1098.29 727.588,1131.47 731.552,1207.2 735.516,1176.16 739.48,1143.99 743.444,1111.14 747.408,1078.05 751.373,1045.18 755.337,1012.93 759.301,981.714 763.265,951.873 767.229,923.716 771.193,897.504 775.157,873.438 779.121,851.662 783.085,832.262 787.05,815.263 791.014,800.636 794.978,788.293 798.942,778.099 802.906,769.873 806.87,763.395 810.834,758.412 814.798,754.647 818.763,751.808 822.727,749.589 826.691,747.688 830.655,745.803 834.619,743.651 838.583,740.963 842.547,737.498 846.511,733.044 850.475,727.423 854.44,720.495 858.404,712.157 862.368,702.347 866.332,691.043 870.296,638.271 874.26,692.755 878.224,748.281 882.188,803.844 886.152,858.473 890.117,951.244 894.081,932.655 898.045,908.265 902.009,878.57 905.973,844.178 909.937,805.786 913.901,764.166 917.865,720.138 921.829,674.552 925.794,628.264 929.758,542.125 933.722,565.614 937.686,593.184 941.65,624.398 945.614,658.742 949.578,695.647 953.542,734.499 957.507,774.66 961.471,815.484 965.435,856.328 969.399,936.566 973.363,906.944 977.327,873.23 981.291,836.077 985.255,796.197 989.219,714.351 993.184,739.985 997.148,767.572 1001.11,796.742 1005.08,827.101 1009.04,858.239 1013,889.741 1016.97,921.196 1020.93,952.209 1024.9,982.41 1028.86,1051.45 1032.82,1010.36 1036.79,965.178 1040.75,916.832 1044.72,866.281 1048.68,814.506 1052.65,762.481 1056.61,711.15 1060.57,661.406 1064.54,614.071 1068.5,569.876 1072.47,529.454 1076.43,493.319 1080.39,461.865 1084.36,435.359 1088.32,413.939 1092.29,397.615 1096.25,386.276 1100.21,379.695 1104.18,377.54 1108.14,379.387 1112.11,384.732 1116.07,393.006 1120.04,403.595 1124,415.853 1127.96,429.119 1131.93,442.736 1135.89,456.064 1139.86,468.5 1143.82,479.482 1147.78,488.51 1151.75,495.152 1155.71,499.052 1159.68,499.935 1163.64,497.612 1167.6,491.98 1171.57,483.023 1175.53,470.807 1179.5,455.476 1183.46,437.246 1187.43,376.406 1191.39,421.96 1195.35,467.984 1199.32,513.766 1203.28,558.621 1207.25,641.905 1211.21,614.369 1215.17,581.812 1219.14,544.935 1223.1,504.52 1227.07,461.405 1231.03,416.464 1234.99,370.582 1238.96,324.634 1242.92,279.466 1246.89,195.881 1250.85,223.277 1254.82,255.999 1258.78,293.472 1262.74,335.024 1266.71,419.901 1270.67,398.631 1274.64,376.682 1278.6,354.335 1282.56,331.87 1286.53,269.572 1290.49,316.373 1294.46,366.215 1298.42,418.19 1302.38,471.375 1306.35,564.838 1310.31,549.013 1314.28,529.354 1318.24,506.204 1322.21,479.979 1326.17,451.155 1330.13,420.254 1334.1,387.829 1338.06,354.453 1342.03,320.698 1345.99,247.137 1349.95,282.977 1353.92,322.419 1357.88,364.79 1361.85,409.37 1365.81,455.414 1369.77,502.164 1373.74,548.874 1377.7,594.825 1381.67,639.343 1385.63,721.802 1389.6,692.985 1393.56,658.731 1397.52,619.791 1401.49,577.004 1405.45,491.28 1409.42,512.228 1413.38,534.501 1417.34,557.917 1421.31,582.271 1425.27,607.342 1429.24,632.898 1433.2,658.7 1437.16,684.513 1441.13,710.106 1445.09,735.262 1449.06,759.781 1453.02,783.483 1456.98,806.213 1460.95,827.843 1464.91,848.276 1468.88,867.445 1472.84,885.314 1476.81,901.879 1480.77,917.163 1484.73,971.211 1488.7,915.43 1492.66,856.224 1496.63,794.836 1500.59,732.522 1504.55,630.517 1508.52,638.67 1512.48,651.774 1516.45,669.697 1520.41,692.194 1524.37,758.905 1528.34,720.718 1532.3,683.419 1536.27,647.552 1540.23,613.61 1544.2,582.021 1548.16,553.141 1552.12,527.249 1556.09,504.541 1560.05,485.131 1564.02,429.06 1567.98,484.948 1571.94,546.37 1575.91,612.006 1579.87,680.48 1583.84,790.393 1587.8,791.697 1591.76,789.369 1595.73,783.287 1599.69,773.428 1603.66,759.861 1607.62,742.746 1611.59,722.324 1615.55,698.908 1619.51,672.876 1623.48,644.652 1627.44,614.702 1631.41,583.517 1635.37,551.599 1639.33,519.451 1643.3,487.564 1647.26,456.405 1651.23,426.407 1655.19,397.96 1659.15,371.402 1663.12,347.014 1667.08,325.016 1671.05,305.561 1675.01,288.737 1678.98,274.568 1682.94,263.011 1686.9,253.964 1690.87,247.271 1694.83,242.724 1698.8,240.074 1702.76,239.036 1706.72,239.3 1710.69,240.536 1714.65,242.405 1718.62,244.569 1722.58,206.704 1726.54,277.165 1730.51,349.356 1734.47,421.886 1738.44,493.408 1742.4,562.648 1746.37,628.434 1750.33,689.724 1754.29,745.618 1758.26,795.385 1762.22,878.455 1766.19,845.78 1770.15,803.468 1774.11,752.632 1778.08,694.55 1782.04,590.638 1786.01,591.062 1789.97,591.067 1793.93,591.081 1797.9,591.516 1801.86,592.753 1805.83,595.139 1809.79,598.975 1813.76,604.516 1817.72,611.961 1821.68,661.445 1825.65,604.384 1829.61,547.107 1833.58,490.713 1837.54,436.239 1841.5,384.635 1845.47,336.748 1849.43,293.303 1853.4,254.891 1857.36,221.958 1861.32,154.813 1865.29,202.276 1869.25,258.046 1873.22,320.856 1877.18,389.315 1881.15,461.947 1885.11,537.228 1889.07,613.629 1893.04,689.648 1897,763.85 1900.97,834.896 1904.93,901.575 1908.89,962.825 1912.86,1017.76 1916.82,1065.66 1920.79,1146.03 1924.75,1109.87 1928.71,1063.38 1932.68,1007.77 1936.64,944.43 1940.61,874.882 1944.57,800.743 1948.54,723.681 1952.5,645.371 1956.46,567.457 1960.43,451.519 1964.39,447.694 1968.36,451.007 1972.32,461.494 1976.28,479.015 1980.25,503.262 1984.21,533.772 1988.18,569.947 1992.14,611.074 1996.1,656.342 2000.07,744.862 2004.03,727.036 2008,708.213 2011.96,688.569 2015.93,668.295 2019.89,647.591 2023.85,626.661 2027.82,605.708 2031.78,584.931 2035.75,564.517 2039.71,504.65 2043.67,554.156 2047.64,606.867 2051.6,661.77 2055.57,717.834 2059.53,814.028 2063.49,800.695 2067.46,783.206 2071.42,761.831 2075.39,736.928 2079.35,668.937 2083.32,707.021 2087.28,745.414 2091.24,783.559 2095.21,820.926 2099.17,897.011 2103.14,862.695 2107.1,823.892 2111.06,781.4 2115.03,736.08 2118.99,648.839 2122.96,669.259 2126.92,691.941 2130.88,716.632 2134.85,743.038 2138.81,770.834 2142.78,799.669 2146.74,829.181 2150.7,859.001 2154.67,888.769 2158.63,958.123 2162.6,918.065 2166.56,874.596 2170.53,828.576 2174.49,780.894 2178.45,692.46 2182.42,712.826 2186.38,736.541 2190.35,763.272 2194.31,792.627 2198.27,824.161 2202.24,857.392 2206.2,891.814 2210.17,926.91 2214.13,962.163 2218.09,1037.06 2222.06,1002.46 2226.02,964.218 2229.99,923.068 2233.95,879.784 2237.92,835.165 2241.88,790.013 2245.84,745.113 2249.81,701.218 2253.77,659.026 2257.74,579.18 2261.7,610.904 2265.66,648.361 2269.63,690.792 2273.59,737.345 2277.56,787.099 2281.52,839.089 2285.48,892.33 2289.45,945.844 2293.41,998.681 "/>
<path clip-path="url(#clip850)" d="M325.87 300.469 L1334.52 300.469 L1334.52 93.1086 L325.87 93.1086  Z" fill="#ffffff" fill-rule="evenodd" fill-opacity="1"/>
<polyline clip-path="url(#clip850)" style="stroke:#000000; stroke-linecap:round; stroke-linejoin:round; stroke-width:4; stroke-opacity:1; fill:none" points="325.87,300.469 1334.52,300.469 1334.52,93.1086 325.87,93.1086 325.87,300.469 "/>
<polyline clip-path="url(#clip850)" style="stroke:#009af9; stroke-linecap:round; stroke-linejoin:round; stroke-width:4; stroke-opacity:1; fill:none" points="349.167,144.949 488.953,144.949 "/>
<path clip-path="url(#clip850)" d="M516.926 131.511 L516.926 158.386 L522.574 158.386 Q529.727 158.386 533.037 155.145 Q536.37 151.905 536.37 144.914 Q536.37 137.969 533.037 134.752 Q529.727 131.511 522.574 131.511 L516.926 131.511 M512.25 127.669 L521.857 127.669 Q531.903 127.669 536.602 131.858 Q541.301 136.025 541.301 144.914 Q541.301 153.849 536.579 158.039 Q531.857 162.229 521.857 162.229 L512.25 162.229 L512.25 127.669 Z" fill="#000000" fill-rule="nonzero" fill-opacity="1" /><path clip-path="url(#clip850)" d="M560.352 149.196 Q555.19 149.196 553.199 150.377 Q551.208 151.557 551.208 154.405 Q551.208 156.673 552.69 158.016 Q554.194 159.335 556.764 159.335 Q560.305 159.335 562.435 156.835 Q564.588 154.312 564.588 150.145 L564.588 149.196 L560.352 149.196 M568.847 147.437 L568.847 162.229 L564.588 162.229 L564.588 158.293 Q563.129 160.655 560.954 161.789 Q558.778 162.9 555.63 162.9 Q551.648 162.9 549.287 160.678 Q546.949 158.432 546.949 154.682 Q546.949 150.307 549.866 148.085 Q552.805 145.863 558.616 145.863 L564.588 145.863 L564.588 145.446 Q564.588 142.507 562.643 140.909 Q560.722 139.289 557.227 139.289 Q555.005 139.289 552.898 139.821 Q550.792 140.354 548.847 141.419 L548.847 137.483 Q551.185 136.581 553.384 136.141 Q555.583 135.678 557.667 135.678 Q563.292 135.678 566.069 138.594 Q568.847 141.511 568.847 147.437 Z" fill="#000000" fill-rule="nonzero" fill-opacity="1" /><path clip-path="url(#clip850)" d="M581.833 128.942 L581.833 136.303 L590.606 136.303 L590.606 139.613 L581.833 139.613 L581.833 153.687 Q581.833 156.858 582.69 157.761 Q583.569 158.664 586.231 158.664 L590.606 158.664 L590.606 162.229 L586.231 162.229 Q581.301 162.229 579.426 160.4 Q577.551 158.548 577.551 153.687 L577.551 139.613 L574.426 139.613 L574.426 136.303 L577.551 136.303 L577.551 128.942 L581.833 128.942 Z" fill="#000000" fill-rule="nonzero" fill-opacity="1" /><path clip-path="url(#clip850)" d="M607.99 149.196 Q602.828 149.196 600.838 150.377 Q598.847 151.557 598.847 154.405 Q598.847 156.673 600.328 158.016 Q601.833 159.335 604.402 159.335 Q607.944 159.335 610.074 156.835 Q612.226 154.312 612.226 150.145 L612.226 149.196 L607.99 149.196 M616.486 147.437 L616.486 162.229 L612.226 162.229 L612.226 158.293 Q610.768 160.655 608.592 161.789 Q606.416 162.9 603.268 162.9 Q599.287 162.9 596.926 160.678 Q594.588 158.432 594.588 154.682 Q594.588 150.307 597.504 148.085 Q600.444 145.863 606.254 145.863 L612.226 145.863 L612.226 145.446 Q612.226 142.507 610.282 140.909 Q608.361 139.289 604.865 139.289 Q602.643 139.289 600.537 139.821 Q598.43 140.354 596.486 141.419 L596.486 137.483 Q598.824 136.581 601.023 136.141 Q603.222 135.678 605.305 135.678 Q610.93 135.678 613.708 138.594 Q616.486 141.511 616.486 147.437 Z" fill="#000000" fill-rule="nonzero" fill-opacity="1" /><polyline clip-path="url(#clip850)" style="stroke:#e26f46; stroke-linecap:round; stroke-linejoin:round; stroke-width:4; stroke-opacity:1; fill:none" points="349.167,196.789 488.953,196.789 "/>
<path clip-path="url(#clip850)" d="M534.495 180.643 L534.495 185.203 Q531.833 183.93 529.472 183.305 Q527.111 182.68 524.912 182.68 Q521.093 182.68 519.009 184.161 Q516.949 185.643 516.949 188.374 Q516.949 190.666 518.315 191.847 Q519.704 193.004 523.546 193.722 L526.37 194.3 Q531.602 195.296 534.079 197.819 Q536.579 200.319 536.579 204.532 Q536.579 209.555 533.199 212.147 Q529.843 214.74 523.338 214.74 Q520.884 214.74 518.107 214.184 Q515.352 213.629 512.389 212.541 L512.389 207.726 Q515.236 209.323 517.968 210.133 Q520.699 210.944 523.338 210.944 Q527.343 210.944 529.519 209.37 Q531.694 207.796 531.694 204.879 Q531.694 202.333 530.12 200.897 Q528.569 199.462 525.005 198.745 L522.157 198.189 Q516.926 197.147 514.588 194.925 Q512.25 192.703 512.25 188.745 Q512.25 184.161 515.468 181.522 Q518.708 178.884 524.38 178.884 Q526.81 178.884 529.333 179.323 Q531.857 179.763 534.495 180.643 Z" fill="#000000" fill-rule="nonzero" fill-opacity="1" /><path clip-path="url(#clip850)" d="M543.685 188.143 L547.944 188.143 L547.944 214.069 L543.685 214.069 L543.685 188.143 M543.685 178.05 L547.944 178.05 L547.944 183.444 L543.685 183.444 L543.685 178.05 Z" fill="#000000" fill-rule="nonzero" fill-opacity="1" /><path clip-path="url(#clip850)" d="M577.041 193.12 Q578.639 190.249 580.861 188.884 Q583.083 187.518 586.092 187.518 Q590.143 187.518 592.342 190.365 Q594.541 193.189 594.541 198.421 L594.541 214.069 L590.259 214.069 L590.259 198.559 Q590.259 194.833 588.94 193.027 Q587.62 191.222 584.912 191.222 Q581.602 191.222 579.68 193.421 Q577.759 195.62 577.759 199.416 L577.759 214.069 L573.477 214.069 L573.477 198.559 Q573.477 194.809 572.157 193.027 Q570.838 191.222 568.083 191.222 Q564.819 191.222 562.898 193.444 Q560.977 195.643 560.977 199.416 L560.977 214.069 L556.694 214.069 L556.694 188.143 L560.977 188.143 L560.977 192.171 Q562.435 189.786 564.472 188.652 Q566.509 187.518 569.31 187.518 Q572.134 187.518 574.102 188.953 Q576.092 190.388 577.041 193.12 Z" fill="#000000" fill-rule="nonzero" fill-opacity="1" /><path clip-path="url(#clip850)" d="M602.597 203.837 L602.597 188.143 L606.856 188.143 L606.856 203.675 Q606.856 207.356 608.291 209.208 Q609.726 211.036 612.597 211.036 Q616.046 211.036 618.037 208.837 Q620.05 206.638 620.05 202.842 L620.05 188.143 L624.31 188.143 L624.31 214.069 L620.05 214.069 L620.05 210.087 Q618.5 212.448 616.439 213.606 Q614.402 214.74 611.694 214.74 Q607.226 214.74 604.912 211.962 Q602.597 209.184 602.597 203.837 M613.314 187.518 L613.314 187.518 Z" fill="#000000" fill-rule="nonzero" fill-opacity="1" /><path clip-path="url(#clip850)" d="M633.083 178.05 L637.342 178.05 L637.342 214.069 L633.083 214.069 L633.083 178.05 Z" fill="#000000" fill-rule="nonzero" fill-opacity="1" /><path clip-path="url(#clip850)" d="M658.036 201.036 Q652.874 201.036 650.884 202.217 Q648.893 203.397 648.893 206.245 Q648.893 208.513 650.374 209.856 Q651.879 211.175 654.448 211.175 Q657.99 211.175 660.12 208.675 Q662.272 206.152 662.272 201.985 L662.272 201.036 L658.036 201.036 M666.532 199.277 L666.532 214.069 L662.272 214.069 L662.272 210.133 Q660.814 212.495 658.638 213.629 Q656.462 214.74 653.314 214.74 Q649.333 214.74 646.972 212.518 Q644.634 210.272 644.634 206.522 Q644.634 202.147 647.55 199.925 Q650.49 197.703 656.3 197.703 L662.272 197.703 L662.272 197.286 Q662.272 194.347 660.328 192.749 Q658.407 191.129 654.911 191.129 Q652.689 191.129 650.583 191.661 Q648.476 192.194 646.532 193.259 L646.532 189.323 Q648.87 188.421 651.069 187.981 Q653.268 187.518 655.351 187.518 Q660.976 187.518 663.754 190.434 Q666.532 193.351 666.532 199.277 Z" fill="#000000" fill-rule="nonzero" fill-opacity="1" /><path clip-path="url(#clip850)" d="M679.518 180.782 L679.518 188.143 L688.291 188.143 L688.291 191.453 L679.518 191.453 L679.518 205.527 Q679.518 208.698 680.374 209.601 Q681.254 210.504 683.916 210.504 L688.291 210.504 L688.291 214.069 L683.916 214.069 Q678.985 214.069 677.11 212.24 Q675.235 210.388 675.235 205.527 L675.235 191.453 L672.11 191.453 L672.11 188.143 L675.235 188.143 L675.235 180.782 L679.518 180.782 Z" fill="#000000" fill-rule="nonzero" fill-opacity="1" /><path clip-path="url(#clip850)" d="M693.893 188.143 L698.152 188.143 L698.152 214.069 L693.893 214.069 L693.893 188.143 M693.893 178.05 L698.152 178.05 L698.152 183.444 L693.893 183.444 L693.893 178.05 Z" fill="#000000" fill-rule="nonzero" fill-opacity="1" /><path clip-path="url(#clip850)" d="M717.11 191.129 Q713.684 191.129 711.694 193.814 Q709.703 196.476 709.703 201.129 Q709.703 205.782 711.67 208.467 Q713.661 211.129 717.11 211.129 Q720.513 211.129 722.504 208.444 Q724.494 205.758 724.494 201.129 Q724.494 196.522 722.504 193.837 Q720.513 191.129 717.11 191.129 M717.11 187.518 Q722.666 187.518 725.837 191.129 Q729.008 194.74 729.008 201.129 Q729.008 207.495 725.837 211.129 Q722.666 214.74 717.11 214.74 Q711.531 214.74 708.36 211.129 Q705.212 207.495 705.212 201.129 Q705.212 194.74 708.36 191.129 Q711.531 187.518 717.11 187.518 Z" fill="#000000" fill-rule="nonzero" fill-opacity="1" /><path clip-path="url(#clip850)" d="M757.619 198.421 L757.619 214.069 L753.36 214.069 L753.36 198.559 Q753.36 194.879 751.925 193.05 Q750.49 191.222 747.619 191.222 Q744.17 191.222 742.179 193.421 Q740.189 195.62 740.189 199.416 L740.189 214.069 L735.906 214.069 L735.906 188.143 L740.189 188.143 L740.189 192.171 Q741.717 189.833 743.777 188.675 Q745.86 187.518 748.568 187.518 Q753.036 187.518 755.328 190.296 Q757.619 193.05 757.619 198.421 Z" fill="#000000" fill-rule="nonzero" fill-opacity="1" /><path clip-path="url(#clip850)" d="M801.369 193.12 Q802.966 190.249 805.188 188.884 Q807.411 187.518 810.42 187.518 Q814.471 187.518 816.67 190.365 Q818.869 193.189 818.869 198.421 L818.869 214.069 L814.586 214.069 L814.586 198.559 Q814.586 194.833 813.267 193.027 Q811.948 191.222 809.239 191.222 Q805.929 191.222 804.008 193.421 Q802.087 195.62 802.087 199.416 L802.087 214.069 L797.804 214.069 L797.804 198.559 Q797.804 194.809 796.485 193.027 Q795.165 191.222 792.411 191.222 Q789.147 191.222 787.226 193.444 Q785.304 195.643 785.304 199.416 L785.304 214.069 L781.022 214.069 L781.022 188.143 L785.304 188.143 L785.304 192.171 Q786.763 189.786 788.8 188.652 Q790.837 187.518 793.638 187.518 Q796.462 187.518 798.429 188.953 Q800.42 190.388 801.369 193.12 Z" fill="#000000" fill-rule="nonzero" fill-opacity="1" /><path clip-path="url(#clip850)" d="M837.41 191.129 Q833.985 191.129 831.994 193.814 Q830.003 196.476 830.003 201.129 Q830.003 205.782 831.971 208.467 Q833.961 211.129 837.41 211.129 Q840.813 211.129 842.804 208.444 Q844.795 205.758 844.795 201.129 Q844.795 196.522 842.804 193.837 Q840.813 191.129 837.41 191.129 M837.41 187.518 Q842.966 187.518 846.137 191.129 Q849.309 194.74 849.309 201.129 Q849.309 207.495 846.137 211.129 Q842.966 214.74 837.41 214.74 Q831.832 214.74 828.66 211.129 Q825.512 207.495 825.512 201.129 Q825.512 194.74 828.66 191.129 Q831.832 187.518 837.41 187.518 Z" fill="#000000" fill-rule="nonzero" fill-opacity="1" /><path clip-path="url(#clip850)" d="M873.429 192.078 L873.429 178.05 L877.688 178.05 L877.688 214.069 L873.429 214.069 L873.429 210.18 Q872.086 212.495 870.026 213.629 Q867.989 214.74 865.119 214.74 Q860.42 214.74 857.457 210.99 Q854.517 207.24 854.517 201.129 Q854.517 195.018 857.457 191.268 Q860.42 187.518 865.119 187.518 Q867.989 187.518 870.026 188.652 Q872.086 189.763 873.429 192.078 M858.915 201.129 Q858.915 205.828 860.836 208.513 Q862.781 211.175 866.16 211.175 Q869.54 211.175 871.484 208.513 Q873.429 205.828 873.429 201.129 Q873.429 196.43 871.484 193.768 Q869.54 191.083 866.16 191.083 Q862.781 191.083 860.836 193.768 Q858.915 196.43 858.915 201.129 Z" fill="#000000" fill-rule="nonzero" fill-opacity="1" /><path clip-path="url(#clip850)" d="M908.637 200.041 L908.637 202.124 L889.054 202.124 Q889.331 206.522 891.693 208.837 Q894.077 211.129 898.313 211.129 Q900.767 211.129 903.058 210.527 Q905.373 209.925 907.642 208.721 L907.642 212.749 Q905.35 213.721 902.942 214.231 Q900.535 214.74 898.058 214.74 Q891.855 214.74 888.22 211.129 Q884.609 207.518 884.609 201.36 Q884.609 194.995 888.035 191.268 Q891.484 187.518 897.318 187.518 Q902.549 187.518 905.581 190.897 Q908.637 194.254 908.637 200.041 M904.378 198.791 Q904.331 195.296 902.41 193.212 Q900.512 191.129 897.364 191.129 Q893.799 191.129 891.646 193.143 Q889.517 195.157 889.193 198.814 L904.378 198.791 Z" fill="#000000" fill-rule="nonzero" fill-opacity="1" /><path clip-path="url(#clip850)" d="M915.628 178.05 L919.887 178.05 L919.887 214.069 L915.628 214.069 L915.628 178.05 Z" fill="#000000" fill-rule="nonzero" fill-opacity="1" /><path clip-path="url(#clip850)" d="M960.396 188.907 L960.396 192.934 Q958.59 192.009 956.646 191.546 Q954.701 191.083 952.618 191.083 Q949.447 191.083 947.85 192.055 Q946.276 193.027 946.276 194.971 Q946.276 196.453 947.41 197.309 Q948.544 198.143 951.97 198.907 L953.428 199.231 Q957.965 200.203 959.863 201.985 Q961.785 203.745 961.785 206.916 Q961.785 210.527 958.914 212.633 Q956.067 214.74 951.067 214.74 Q948.984 214.74 946.715 214.323 Q944.47 213.93 941.97 213.12 L941.97 208.721 Q944.331 209.948 946.623 210.573 Q948.914 211.175 951.16 211.175 Q954.169 211.175 955.789 210.157 Q957.41 209.115 957.41 207.24 Q957.41 205.504 956.229 204.578 Q955.072 203.652 951.114 202.796 L949.632 202.448 Q945.674 201.615 943.914 199.902 Q942.155 198.166 942.155 195.157 Q942.155 191.499 944.748 189.509 Q947.34 187.518 952.109 187.518 Q954.47 187.518 956.553 187.865 Q958.637 188.212 960.396 188.907 Z" fill="#000000" fill-rule="nonzero" fill-opacity="1" /><path clip-path="url(#clip850)" d="M968.567 188.143 L972.826 188.143 L972.826 214.069 L968.567 214.069 L968.567 188.143 M968.567 178.05 L972.826 178.05 L972.826 183.444 L968.567 183.444 L968.567 178.05 Z" fill="#000000" fill-rule="nonzero" fill-opacity="1" /><path clip-path="url(#clip850)" d="M1001.92 193.12 Q1003.52 190.249 1005.74 188.884 Q1007.97 187.518 1010.97 187.518 Q1015.03 187.518 1017.22 190.365 Q1019.42 193.189 1019.42 198.421 L1019.42 214.069 L1015.14 214.069 L1015.14 198.559 Q1015.14 194.833 1013.82 193.027 Q1012.5 191.222 1009.79 191.222 Q1006.48 191.222 1004.56 193.421 Q1002.64 195.62 1002.64 199.416 L1002.64 214.069 L998.359 214.069 L998.359 198.559 Q998.359 194.809 997.039 193.027 Q995.72 191.222 992.965 191.222 Q989.701 191.222 987.78 193.444 Q985.859 195.643 985.859 199.416 L985.859 214.069 L981.576 214.069 L981.576 188.143 L985.859 188.143 L985.859 192.171 Q987.317 189.786 989.354 188.652 Q991.391 187.518 994.192 187.518 Q997.016 187.518 998.984 188.953 Q1000.97 190.388 1001.92 193.12 Z" fill="#000000" fill-rule="nonzero" fill-opacity="1" /><path clip-path="url(#clip850)" d="M1056.11 178.05 L1056.11 181.592 L1052.04 181.592 Q1049.75 181.592 1048.84 182.518 Q1047.96 183.444 1047.96 185.851 L1047.96 188.143 L1054.98 188.143 L1054.98 191.453 L1047.96 191.453 L1047.96 214.069 L1043.68 214.069 L1043.68 191.453 L1039.61 191.453 L1039.61 188.143 L1043.68 188.143 L1043.68 186.337 Q1043.68 182.009 1045.7 180.041 Q1047.71 178.05 1052.09 178.05 L1056.11 178.05 Z" fill="#000000" fill-rule="nonzero" fill-opacity="1" /><path clip-path="url(#clip850)" d="M1059.68 188.143 L1063.94 188.143 L1063.94 214.069 L1059.68 214.069 L1059.68 188.143 M1059.68 178.05 L1063.94 178.05 L1063.94 183.444 L1059.68 183.444 L1059.68 178.05 Z" fill="#000000" fill-rule="nonzero" fill-opacity="1" /><path clip-path="url(#clip850)" d="M1077.06 180.782 L1077.06 188.143 L1085.84 188.143 L1085.84 191.453 L1077.06 191.453 L1077.06 205.527 Q1077.06 208.698 1077.92 209.601 Q1078.8 210.504 1081.46 210.504 L1085.84 210.504 L1085.84 214.069 L1081.46 214.069 Q1076.53 214.069 1074.65 212.24 Q1072.78 210.388 1072.78 205.527 L1072.78 191.453 L1069.65 191.453 L1069.65 188.143 L1072.78 188.143 L1072.78 180.782 L1077.06 180.782 Z" fill="#000000" fill-rule="nonzero" fill-opacity="1" /><path clip-path="url(#clip850)" d="M1122.66 208.189 L1127.55 208.189 L1127.55 214.069 L1122.66 214.069 L1122.66 208.189 M1122.66 189.555 L1127.55 189.555 L1127.55 195.434 L1122.66 195.434 L1122.66 189.555 Z" fill="#000000" fill-rule="nonzero" fill-opacity="1" /><path clip-path="url(#clip850)" d="M1148.73 194.925 Q1145.58 194.925 1143.73 197.078 Q1141.9 199.231 1141.9 202.981 Q1141.9 206.708 1143.73 208.883 Q1145.58 211.036 1148.73 211.036 Q1151.88 211.036 1153.71 208.883 Q1155.56 206.708 1155.56 202.981 Q1155.56 199.231 1153.71 197.078 Q1151.88 194.925 1148.73 194.925 M1158.01 180.273 L1158.01 184.532 Q1156.25 183.698 1154.45 183.259 Q1152.66 182.819 1150.9 182.819 Q1146.27 182.819 1143.82 185.944 Q1141.39 189.069 1141.04 195.388 Q1142.41 193.374 1144.47 192.309 Q1146.53 191.222 1149.01 191.222 Q1154.21 191.222 1157.22 194.393 Q1160.26 197.541 1160.26 202.981 Q1160.26 208.305 1157.11 211.522 Q1153.96 214.74 1148.73 214.74 Q1142.73 214.74 1139.56 210.157 Q1136.39 205.55 1136.39 196.823 Q1136.39 188.629 1140.28 183.768 Q1144.17 178.884 1150.72 178.884 Q1152.48 178.884 1154.26 179.231 Q1156.07 179.578 1158.01 180.273 Z" fill="#000000" fill-rule="nonzero" fill-opacity="1" /><path clip-path="url(#clip850)" d="M1178.31 197.657 Q1174.98 197.657 1173.06 199.439 Q1171.16 201.221 1171.16 204.346 Q1171.16 207.471 1173.06 209.254 Q1174.98 211.036 1178.31 211.036 Q1181.64 211.036 1183.57 209.254 Q1185.49 207.448 1185.49 204.346 Q1185.49 201.221 1183.57 199.439 Q1181.67 197.657 1178.31 197.657 M1173.64 195.666 Q1170.63 194.925 1168.94 192.865 Q1167.27 190.805 1167.27 187.842 Q1167.27 183.698 1170.21 181.291 Q1173.17 178.884 1178.31 178.884 Q1183.47 178.884 1186.41 181.291 Q1189.35 183.698 1189.35 187.842 Q1189.35 190.805 1187.66 192.865 Q1186 194.925 1183.01 195.666 Q1186.39 196.453 1188.27 198.745 Q1190.16 201.036 1190.16 204.346 Q1190.16 209.37 1187.08 212.055 Q1184.03 214.74 1178.31 214.74 Q1172.59 214.74 1169.52 212.055 Q1166.46 209.37 1166.46 204.346 Q1166.46 201.036 1168.36 198.745 Q1170.26 196.453 1173.64 195.666 M1171.92 188.282 Q1171.92 190.967 1173.59 192.472 Q1175.28 193.976 1178.31 193.976 Q1181.32 193.976 1183.01 192.472 Q1184.72 190.967 1184.72 188.282 Q1184.72 185.597 1183.01 184.092 Q1181.32 182.587 1178.31 182.587 Q1175.28 182.587 1173.59 184.092 Q1171.92 185.597 1171.92 188.282 Z" fill="#000000" fill-rule="nonzero" fill-opacity="1" /><path clip-path="url(#clip850)" d="M1198.47 208.189 L1203.36 208.189 L1203.36 214.069 L1198.47 214.069 L1198.47 208.189 Z" fill="#000000" fill-rule="nonzero" fill-opacity="1" /><path clip-path="url(#clip850)" d="M1214.35 210.133 L1221.99 210.133 L1221.99 183.768 L1213.68 185.435 L1213.68 181.175 L1221.95 179.509 L1226.62 179.509 L1226.62 210.133 L1234.26 210.133 L1234.26 214.069 L1214.35 214.069 L1214.35 210.133 Z" fill="#000000" fill-rule="nonzero" fill-opacity="1" /><path clip-path="url(#clip850)" d="M1247.73 210.133 L1264.05 210.133 L1264.05 214.069 L1242.11 214.069 L1242.11 210.133 Q1244.77 207.379 1249.35 202.749 Q1253.96 198.096 1255.14 196.754 Q1257.39 194.231 1258.26 192.495 Q1259.17 190.735 1259.17 189.046 Q1259.17 186.291 1257.22 184.555 Q1255.3 182.819 1252.2 182.819 Q1250 182.819 1247.55 183.583 Q1245.12 184.347 1242.34 185.897 L1242.34 181.175 Q1245.16 180.041 1247.62 179.462 Q1250.07 178.884 1252.11 178.884 Q1257.48 178.884 1260.67 181.569 Q1263.87 184.254 1263.87 188.745 Q1263.87 190.874 1263.06 192.796 Q1262.27 194.694 1260.16 197.286 Q1259.58 197.958 1256.48 201.175 Q1253.38 204.37 1247.73 210.133 Z" fill="#000000" fill-rule="nonzero" fill-opacity="1" /><path clip-path="url(#clip850)" d="M1303.26 198.86 Q1301.25 198.86 1300.09 200.573 Q1298.96 202.286 1298.96 205.342 Q1298.96 208.351 1300.09 210.087 Q1301.25 211.8 1303.26 211.8 Q1305.23 211.8 1306.37 210.087 Q1307.52 208.351 1307.52 205.342 Q1307.52 202.309 1306.37 200.596 Q1305.23 198.86 1303.26 198.86 M1303.26 195.921 Q1306.92 195.921 1309.07 198.467 Q1311.23 201.013 1311.23 205.342 Q1311.23 209.67 1309.05 212.217 Q1306.9 214.74 1303.26 214.74 Q1299.56 214.74 1297.41 212.217 Q1295.26 209.67 1295.26 205.342 Q1295.26 200.99 1297.41 198.467 Q1299.58 195.921 1303.26 195.921 M1279.38 181.823 Q1277.38 181.823 1276.23 183.56 Q1275.09 185.272 1275.09 188.282 Q1275.09 191.337 1276.23 193.05 Q1277.36 194.763 1279.38 194.763 Q1281.39 194.763 1282.52 193.05 Q1283.68 191.337 1283.68 188.282 Q1283.68 185.296 1282.52 183.56 Q1281.37 181.823 1279.38 181.823 M1300.28 178.884 L1303.98 178.884 L1282.36 214.74 L1278.66 214.74 L1300.28 178.884 M1279.38 178.884 Q1283.03 178.884 1285.21 181.43 Q1287.38 183.953 1287.38 188.282 Q1287.38 192.657 1285.21 195.18 Q1283.06 197.703 1279.38 197.703 Q1275.7 197.703 1273.54 195.18 Q1271.41 192.634 1271.41 188.282 Q1271.41 183.976 1273.57 181.43 Q1275.72 178.884 1279.38 178.884 Z" fill="#000000" fill-rule="nonzero" fill-opacity="1" /><polyline clip-path="url(#clip850)" style="stroke:#3da44d; stroke-linecap:round; stroke-linejoin:round; stroke-width:4; stroke-opacity:1; fill:none" points="349.167,248.629 488.953,248.629 "/>
<path clip-path="url(#clip850)" d="M516.926 235.191 L516.926 248.177 L522.806 248.177 Q526.07 248.177 527.852 246.487 Q529.634 244.798 529.634 241.673 Q529.634 238.571 527.852 236.881 Q526.07 235.191 522.806 235.191 L516.926 235.191 M512.25 231.349 L522.806 231.349 Q528.616 231.349 531.579 233.987 Q534.565 236.603 534.565 241.673 Q534.565 246.788 531.579 249.404 Q528.616 252.02 522.806 252.02 L516.926 252.02 L516.926 265.909 L512.25 265.909 L512.25 231.349 Z" fill="#000000" fill-rule="nonzero" fill-opacity="1" /><path clip-path="url(#clip850)" d="M554.843 243.964 Q554.125 243.548 553.268 243.362 Q552.435 243.154 551.417 243.154 Q547.806 243.154 545.861 245.515 Q543.94 247.853 543.94 252.251 L543.94 265.909 L539.657 265.909 L539.657 239.983 L543.94 239.983 L543.94 244.011 Q545.282 241.649 547.435 240.515 Q549.588 239.358 552.667 239.358 Q553.106 239.358 553.639 239.427 Q554.171 239.474 554.819 239.589 L554.843 243.964 Z" fill="#000000" fill-rule="nonzero" fill-opacity="1" /><path clip-path="url(#clip850)" d="M580.444 251.881 L580.444 253.964 L560.861 253.964 Q561.139 258.362 563.5 260.677 Q565.884 262.969 570.12 262.969 Q572.574 262.969 574.866 262.367 Q577.18 261.765 579.449 260.561 L579.449 264.589 Q577.157 265.561 574.75 266.071 Q572.342 266.58 569.866 266.58 Q563.662 266.58 560.028 262.969 Q556.417 259.358 556.417 253.2 Q556.417 246.835 559.842 243.108 Q563.292 239.358 569.125 239.358 Q574.356 239.358 577.389 242.737 Q580.444 246.094 580.444 251.881 M576.185 250.631 Q576.139 247.136 574.217 245.052 Q572.319 242.969 569.171 242.969 Q565.606 242.969 563.454 244.983 Q561.324 246.997 561 250.654 L576.185 250.631 Z" fill="#000000" fill-rule="nonzero" fill-opacity="1" /><path clip-path="url(#clip850)" d="M604.495 243.918 L604.495 229.89 L608.754 229.89 L608.754 265.909 L604.495 265.909 L604.495 262.02 Q603.152 264.335 601.092 265.469 Q599.055 266.58 596.185 266.58 Q591.486 266.58 588.523 262.83 Q585.583 259.08 585.583 252.969 Q585.583 246.858 588.523 243.108 Q591.486 239.358 596.185 239.358 Q599.055 239.358 601.092 240.492 Q603.152 241.603 604.495 243.918 M589.981 252.969 Q589.981 257.668 591.902 260.353 Q593.847 263.015 597.227 263.015 Q600.606 263.015 602.551 260.353 Q604.495 257.668 604.495 252.969 Q604.495 248.27 602.551 245.608 Q600.606 242.923 597.227 242.923 Q593.847 242.923 591.902 245.608 Q589.981 248.27 589.981 252.969 Z" fill="#000000" fill-rule="nonzero" fill-opacity="1" /><path clip-path="url(#clip850)" d="M617.527 239.983 L621.787 239.983 L621.787 265.909 L617.527 265.909 L617.527 239.983 M617.527 229.89 L621.787 229.89 L621.787 235.284 L617.527 235.284 L617.527 229.89 Z" fill="#000000" fill-rule="nonzero" fill-opacity="1" /><path clip-path="url(#clip850)" d="M649.356 240.978 L649.356 244.96 Q647.55 243.964 645.722 243.478 Q643.916 242.969 642.064 242.969 Q637.921 242.969 635.629 245.608 Q633.337 248.224 633.337 252.969 Q633.337 257.714 635.629 260.353 Q637.921 262.969 642.064 262.969 Q643.916 262.969 645.722 262.483 Q647.55 261.973 649.356 260.978 L649.356 264.913 Q647.573 265.747 645.652 266.163 Q643.754 266.58 641.601 266.58 Q635.745 266.58 632.296 262.899 Q628.847 259.219 628.847 252.969 Q628.847 246.626 632.319 242.992 Q635.814 239.358 641.879 239.358 Q643.847 239.358 645.722 239.775 Q647.597 240.168 649.356 240.978 Z" fill="#000000" fill-rule="nonzero" fill-opacity="1" /><path clip-path="url(#clip850)" d="M660.976 232.622 L660.976 239.983 L669.749 239.983 L669.749 243.293 L660.976 243.293 L660.976 257.367 Q660.976 260.538 661.833 261.441 Q662.712 262.344 665.374 262.344 L669.749 262.344 L669.749 265.909 L665.374 265.909 Q660.444 265.909 658.569 264.08 Q656.694 262.228 656.694 257.367 L656.694 243.293 L653.569 243.293 L653.569 239.983 L656.694 239.983 L656.694 232.622 L660.976 232.622 Z" fill="#000000" fill-rule="nonzero" fill-opacity="1" /><path clip-path="url(#clip850)" d="M675.351 239.983 L679.61 239.983 L679.61 265.909 L675.351 265.909 L675.351 239.983 M675.351 229.89 L679.61 229.89 L679.61 235.284 L675.351 235.284 L675.351 229.89 Z" fill="#000000" fill-rule="nonzero" fill-opacity="1" /><path clip-path="url(#clip850)" d="M698.569 242.969 Q695.143 242.969 693.152 245.654 Q691.161 248.316 691.161 252.969 Q691.161 257.622 693.129 260.307 Q695.12 262.969 698.569 262.969 Q701.971 262.969 703.962 260.284 Q705.953 257.598 705.953 252.969 Q705.953 248.362 703.962 245.677 Q701.971 242.969 698.569 242.969 M698.569 239.358 Q704.124 239.358 707.295 242.969 Q710.467 246.58 710.467 252.969 Q710.467 259.335 707.295 262.969 Q704.124 266.58 698.569 266.58 Q692.99 266.58 689.819 262.969 Q686.671 259.335 686.671 252.969 Q686.671 246.58 689.819 242.969 Q692.99 239.358 698.569 239.358 Z" fill="#000000" fill-rule="nonzero" fill-opacity="1" /><path clip-path="url(#clip850)" d="M739.078 250.261 L739.078 265.909 L734.818 265.909 L734.818 250.399 Q734.818 246.719 733.383 244.89 Q731.948 243.062 729.078 243.062 Q725.629 243.062 723.638 245.261 Q721.647 247.46 721.647 251.256 L721.647 265.909 L717.365 265.909 L717.365 239.983 L721.647 239.983 L721.647 244.011 Q723.175 241.673 725.235 240.515 Q727.318 239.358 730.027 239.358 Q734.494 239.358 736.786 242.136 Q739.078 244.89 739.078 250.261 Z" fill="#000000" fill-rule="nonzero" fill-opacity="1" /><path clip-path="url(#clip850)" d="M782.827 244.96 Q784.425 242.089 786.647 240.724 Q788.869 239.358 791.878 239.358 Q795.929 239.358 798.128 242.205 Q800.327 245.029 800.327 250.261 L800.327 265.909 L796.045 265.909 L796.045 250.399 Q796.045 246.673 794.725 244.867 Q793.406 243.062 790.698 243.062 Q787.388 243.062 785.466 245.261 Q783.545 247.46 783.545 251.256 L783.545 265.909 L779.263 265.909 L779.263 250.399 Q779.263 246.649 777.943 244.867 Q776.624 243.062 773.869 243.062 Q770.605 243.062 768.684 245.284 Q766.763 247.483 766.763 251.256 L766.763 265.909 L762.48 265.909 L762.48 239.983 L766.763 239.983 L766.763 244.011 Q768.221 241.626 770.258 240.492 Q772.295 239.358 775.096 239.358 Q777.92 239.358 779.888 240.793 Q781.878 242.228 782.827 244.96 Z" fill="#000000" fill-rule="nonzero" fill-opacity="1" /><path clip-path="url(#clip850)" d="M818.869 242.969 Q815.443 242.969 813.452 245.654 Q811.461 248.316 811.461 252.969 Q811.461 257.622 813.429 260.307 Q815.42 262.969 818.869 262.969 Q822.272 262.969 824.262 260.284 Q826.253 257.598 826.253 252.969 Q826.253 248.362 824.262 245.677 Q822.272 242.969 818.869 242.969 M818.869 239.358 Q824.424 239.358 827.596 242.969 Q830.767 246.58 830.767 252.969 Q830.767 259.335 827.596 262.969 Q824.424 266.58 818.869 266.58 Q813.29 266.58 810.119 262.969 Q806.971 259.335 806.971 252.969 Q806.971 246.58 810.119 242.969 Q813.29 239.358 818.869 239.358 Z" fill="#000000" fill-rule="nonzero" fill-opacity="1" /><path clip-path="url(#clip850)" d="M854.887 243.918 L854.887 229.89 L859.146 229.89 L859.146 265.909 L854.887 265.909 L854.887 262.02 Q853.545 264.335 851.484 265.469 Q849.447 266.58 846.577 266.58 Q841.878 266.58 838.915 262.83 Q835.975 259.08 835.975 252.969 Q835.975 246.858 838.915 243.108 Q841.878 239.358 846.577 239.358 Q849.447 239.358 851.484 240.492 Q853.545 241.603 854.887 243.918 M840.373 252.969 Q840.373 257.668 842.295 260.353 Q844.239 263.015 847.619 263.015 Q850.998 263.015 852.943 260.353 Q854.887 257.668 854.887 252.969 Q854.887 248.27 852.943 245.608 Q850.998 242.923 847.619 242.923 Q844.239 242.923 842.295 245.608 Q840.373 248.27 840.373 252.969 Z" fill="#000000" fill-rule="nonzero" fill-opacity="1" /><path clip-path="url(#clip850)" d="M890.095 251.881 L890.095 253.964 L870.512 253.964 Q870.79 258.362 873.151 260.677 Q875.535 262.969 879.771 262.969 Q882.225 262.969 884.517 262.367 Q886.831 261.765 889.1 260.561 L889.1 264.589 Q886.808 265.561 884.401 266.071 Q881.994 266.58 879.517 266.58 Q873.313 266.58 869.679 262.969 Q866.068 259.358 866.068 253.2 Q866.068 246.835 869.494 243.108 Q872.943 239.358 878.776 239.358 Q884.007 239.358 887.04 242.737 Q890.095 246.094 890.095 251.881 M885.836 250.631 Q885.79 247.136 883.869 245.052 Q881.97 242.969 878.822 242.969 Q875.257 242.969 873.105 244.983 Q870.975 246.997 870.651 250.654 L885.836 250.631 Z" fill="#000000" fill-rule="nonzero" fill-opacity="1" /><path clip-path="url(#clip850)" d="M897.086 229.89 L901.345 229.89 L901.345 265.909 L897.086 265.909 L897.086 229.89 Z" fill="#000000" fill-rule="nonzero" fill-opacity="1" /><path clip-path="url(#clip850)" d="M941.854 240.747 L941.854 244.774 Q940.049 243.849 938.104 243.386 Q936.16 242.923 934.077 242.923 Q930.905 242.923 929.308 243.895 Q927.734 244.867 927.734 246.811 Q927.734 248.293 928.868 249.149 Q930.003 249.983 933.428 250.747 L934.887 251.071 Q939.424 252.043 941.322 253.825 Q943.243 255.585 943.243 258.756 Q943.243 262.367 940.373 264.473 Q937.526 266.58 932.526 266.58 Q930.442 266.58 928.174 266.163 Q925.928 265.77 923.428 264.96 L923.428 260.561 Q925.79 261.788 928.081 262.413 Q930.373 263.015 932.618 263.015 Q935.627 263.015 937.248 261.997 Q938.868 260.955 938.868 259.08 Q938.868 257.344 937.688 256.418 Q936.53 255.492 932.572 254.636 L931.09 254.288 Q927.132 253.455 925.373 251.742 Q923.614 250.006 923.614 246.997 Q923.614 243.339 926.206 241.349 Q928.799 239.358 933.567 239.358 Q935.928 239.358 938.012 239.705 Q940.095 240.052 941.854 240.747 Z" fill="#000000" fill-rule="nonzero" fill-opacity="1" /><path clip-path="url(#clip850)" d="M950.026 239.983 L954.285 239.983 L954.285 265.909 L950.026 265.909 L950.026 239.983 M950.026 229.89 L954.285 229.89 L954.285 235.284 L950.026 235.284 L950.026 229.89 Z" fill="#000000" fill-rule="nonzero" fill-opacity="1" /><path clip-path="url(#clip850)" d="M983.382 244.96 Q984.979 242.089 987.201 240.724 Q989.424 239.358 992.433 239.358 Q996.484 239.358 998.683 242.205 Q1000.88 245.029 1000.88 250.261 L1000.88 265.909 L996.599 265.909 L996.599 250.399 Q996.599 246.673 995.28 244.867 Q993.961 243.062 991.252 243.062 Q987.942 243.062 986.021 245.261 Q984.099 247.46 984.099 251.256 L984.099 265.909 L979.817 265.909 L979.817 250.399 Q979.817 246.649 978.498 244.867 Q977.178 243.062 974.424 243.062 Q971.16 243.062 969.238 245.284 Q967.317 247.483 967.317 251.256 L967.317 265.909 L963.035 265.909 L963.035 239.983 L967.317 239.983 L967.317 244.011 Q968.775 241.626 970.812 240.492 Q972.85 239.358 975.65 239.358 Q978.474 239.358 980.442 240.793 Q982.433 242.228 983.382 244.96 Z" fill="#000000" fill-rule="nonzero" fill-opacity="1" /><path clip-path="url(#clip850)" d="M1037.57 229.89 L1037.57 233.432 L1033.5 233.432 Q1031.21 233.432 1030.3 234.358 Q1029.42 235.284 1029.42 237.691 L1029.42 239.983 L1036.44 239.983 L1036.44 243.293 L1029.42 243.293 L1029.42 265.909 L1025.14 265.909 L1025.14 243.293 L1021.07 243.293 L1021.07 239.983 L1025.14 239.983 L1025.14 238.177 Q1025.14 233.849 1027.15 231.881 Q1029.17 229.89 1033.54 229.89 L1037.57 229.89 Z" fill="#000000" fill-rule="nonzero" fill-opacity="1" /><path clip-path="url(#clip850)" d="M1041.14 239.983 L1045.4 239.983 L1045.4 265.909 L1041.14 265.909 L1041.14 239.983 M1041.14 229.89 L1045.4 229.89 L1045.4 235.284 L1041.14 235.284 L1041.14 229.89 Z" fill="#000000" fill-rule="nonzero" fill-opacity="1" /><path clip-path="url(#clip850)" d="M1058.52 232.622 L1058.52 239.983 L1067.29 239.983 L1067.29 243.293 L1058.52 243.293 L1058.52 257.367 Q1058.52 260.538 1059.38 261.441 Q1060.26 262.344 1062.92 262.344 L1067.29 262.344 L1067.29 265.909 L1062.92 265.909 Q1057.99 265.909 1056.11 264.08 Q1054.24 262.228 1054.24 257.367 L1054.24 243.293 L1051.11 243.293 L1051.11 239.983 L1054.24 239.983 L1054.24 232.622 L1058.52 232.622 Z" fill="#000000" fill-rule="nonzero" fill-opacity="1" /><path clip-path="url(#clip850)" d="M1104.12 260.029 L1109.01 260.029 L1109.01 265.909 L1104.12 265.909 L1104.12 260.029 M1104.12 241.395 L1109.01 241.395 L1109.01 247.274 L1104.12 247.274 L1104.12 241.395 Z" fill="#000000" fill-rule="nonzero" fill-opacity="1" /><path clip-path="url(#clip850)" d="M1130.19 246.765 Q1127.04 246.765 1125.19 248.918 Q1123.36 251.071 1123.36 254.821 Q1123.36 258.548 1125.19 260.723 Q1127.04 262.876 1130.19 262.876 Q1133.33 262.876 1135.16 260.723 Q1137.02 258.548 1137.02 254.821 Q1137.02 251.071 1135.16 248.918 Q1133.33 246.765 1130.19 246.765 M1139.47 232.113 L1139.47 236.372 Q1137.71 235.538 1135.9 235.099 Q1134.12 234.659 1132.36 234.659 Q1127.73 234.659 1125.28 237.784 Q1122.85 240.909 1122.5 247.228 Q1123.87 245.214 1125.93 244.149 Q1127.99 243.062 1130.46 243.062 Q1135.67 243.062 1138.68 246.233 Q1141.71 249.381 1141.71 254.821 Q1141.71 260.145 1138.57 263.362 Q1135.42 266.58 1130.19 266.58 Q1124.19 266.58 1121.02 261.997 Q1117.85 257.39 1117.85 248.663 Q1117.85 240.469 1121.74 235.608 Q1125.63 230.724 1132.18 230.724 Q1133.94 230.724 1135.72 231.071 Q1137.52 231.418 1139.47 232.113 Z" fill="#000000" fill-rule="nonzero" fill-opacity="1" /><path clip-path="url(#clip850)" d="M1149.82 231.349 L1168.17 231.349 L1168.17 235.284 L1154.1 235.284 L1154.1 243.756 Q1155.12 243.409 1156.14 243.247 Q1157.15 243.062 1158.17 243.062 Q1163.96 243.062 1167.34 246.233 Q1170.72 249.404 1170.72 254.821 Q1170.72 260.399 1167.25 263.501 Q1163.77 266.58 1157.46 266.58 Q1155.28 266.58 1153.01 266.21 Q1150.77 265.839 1148.36 265.098 L1148.36 260.399 Q1150.44 261.534 1152.66 262.089 Q1154.89 262.645 1157.36 262.645 Q1161.37 262.645 1163.7 260.538 Q1166.04 258.432 1166.04 254.821 Q1166.04 251.21 1163.7 249.103 Q1161.37 246.997 1157.36 246.997 Q1155.49 246.997 1153.61 247.413 Q1151.76 247.83 1149.82 248.71 L1149.82 231.349 Z" fill="#000000" fill-rule="nonzero" fill-opacity="1" /><path clip-path="url(#clip850)" d="M1179.93 260.029 L1184.82 260.029 L1184.82 265.909 L1179.93 265.909 L1179.93 260.029 Z" fill="#000000" fill-rule="nonzero" fill-opacity="1" /><path clip-path="url(#clip850)" d="M1195.14 265.191 L1195.14 260.932 Q1196.9 261.765 1198.7 262.205 Q1200.51 262.645 1202.25 262.645 Q1206.88 262.645 1209.31 259.543 Q1211.76 256.418 1212.11 250.075 Q1210.76 252.066 1208.7 253.131 Q1206.64 254.196 1204.14 254.196 Q1198.96 254.196 1195.93 251.071 Q1192.92 247.923 1192.92 242.483 Q1192.92 237.159 1196.07 233.941 Q1199.21 230.724 1204.45 230.724 Q1210.44 230.724 1213.59 235.33 Q1216.76 239.913 1216.76 248.663 Q1216.76 256.835 1212.87 261.719 Q1209.01 266.58 1202.45 266.58 Q1200.7 266.58 1198.89 266.233 Q1197.08 265.885 1195.14 265.191 M1204.45 250.538 Q1207.59 250.538 1209.42 248.386 Q1211.27 246.233 1211.27 242.483 Q1211.27 238.756 1209.42 236.603 Q1207.59 234.427 1204.45 234.427 Q1201.3 234.427 1199.45 236.603 Q1197.62 238.756 1197.62 242.483 Q1197.62 246.233 1199.45 248.386 Q1201.3 250.538 1204.45 250.538 Z" fill="#000000" fill-rule="nonzero" fill-opacity="1" /><path clip-path="url(#clip850)" d="M1235.16 249.497 Q1231.83 249.497 1229.91 251.279 Q1228.01 253.061 1228.01 256.186 Q1228.01 259.311 1229.91 261.094 Q1231.83 262.876 1235.16 262.876 Q1238.5 262.876 1240.42 261.094 Q1242.34 259.288 1242.34 256.186 Q1242.34 253.061 1240.42 251.279 Q1238.52 249.497 1235.16 249.497 M1230.49 247.506 Q1227.48 246.765 1225.79 244.705 Q1224.12 242.645 1224.12 239.682 Q1224.12 235.538 1227.06 233.131 Q1230.02 230.724 1235.16 230.724 Q1240.32 230.724 1243.26 233.131 Q1246.2 235.538 1246.2 239.682 Q1246.2 242.645 1244.51 244.705 Q1242.85 246.765 1239.86 247.506 Q1243.24 248.293 1245.12 250.585 Q1247.01 252.876 1247.01 256.186 Q1247.01 261.21 1243.94 263.895 Q1240.88 266.58 1235.16 266.58 Q1229.45 266.58 1226.37 263.895 Q1223.31 261.21 1223.31 256.186 Q1223.31 252.876 1225.21 250.585 Q1227.11 248.293 1230.49 247.506 M1228.77 240.122 Q1228.77 242.807 1230.44 244.312 Q1232.13 245.816 1235.16 245.816 Q1238.17 245.816 1239.86 244.312 Q1241.57 242.807 1241.57 240.122 Q1241.57 237.437 1239.86 235.932 Q1238.17 234.427 1235.16 234.427 Q1232.13 234.427 1230.44 235.932 Q1228.77 237.437 1228.77 240.122 Z" fill="#000000" fill-rule="nonzero" fill-opacity="1" /><path clip-path="url(#clip850)" d="M1284.72 250.7 Q1282.71 250.7 1281.55 252.413 Q1280.42 254.126 1280.42 257.182 Q1280.42 260.191 1281.55 261.927 Q1282.71 263.64 1284.72 263.64 Q1286.69 263.64 1287.82 261.927 Q1288.98 260.191 1288.98 257.182 Q1288.98 254.149 1287.82 252.436 Q1286.69 250.7 1284.72 250.7 M1284.72 247.761 Q1288.38 247.761 1290.53 250.307 Q1292.69 252.853 1292.69 257.182 Q1292.69 261.51 1290.51 264.057 Q1288.36 266.58 1284.72 266.58 Q1281.02 266.58 1278.87 264.057 Q1276.71 261.51 1276.71 257.182 Q1276.71 252.83 1278.87 250.307 Q1281.04 247.761 1284.72 247.761 M1260.83 233.663 Q1258.84 233.663 1257.69 235.4 Q1256.55 237.112 1256.55 240.122 Q1256.55 243.177 1257.69 244.89 Q1258.82 246.603 1260.83 246.603 Q1262.85 246.603 1263.98 244.89 Q1265.14 243.177 1265.14 240.122 Q1265.14 237.136 1263.98 235.4 Q1262.82 233.663 1260.83 233.663 M1281.74 230.724 L1285.44 230.724 L1263.82 266.58 L1260.12 266.58 L1281.74 230.724 M1260.83 230.724 Q1264.49 230.724 1266.67 233.27 Q1268.84 235.793 1268.84 240.122 Q1268.84 244.497 1266.67 247.02 Q1264.51 249.543 1260.83 249.543 Q1257.15 249.543 1255 247.02 Q1252.87 244.474 1252.87 240.122 Q1252.87 235.816 1255.02 233.27 Q1257.18 230.724 1260.83 230.724 Z" fill="#000000" fill-rule="nonzero" fill-opacity="1" /></svg>
