<?xml version="1.0" encoding="utf-8"?>
<svg xmlns="http://www.w3.org/2000/svg" xmlns:xlink="http://www.w3.org/1999/xlink" width="600" height="400" viewBox="0 0 2400 1600">
<defs>
  <clipPath id="clip700">
    <rect x="0" y="0" width="2400" height="1600"/>
  </clipPath>
</defs>
<path clip-path="url(#clip700)" d="M0 1600 L2400 1600 L2400 0 L0 0  Z" fill="#ffffff" fill-rule="evenodd" fill-opacity="1"/>
<defs>
  <clipPath id="clip701">
    <rect x="480" y="0" width="1681" height="1600"/>
  </clipPath>
</defs>
<path clip-path="url(#clip700)" d="M257.204 623.18 L2352.76 623.18 L2352.76 47.2441 L257.204 47.2441  Z" fill="#ffffff" fill-rule="evenodd" fill-opacity="1"/>
<defs>
  <clipPath id="clip702">
    <rect x="257" y="47" width="2097" height="577"/>
  </clipPath>
</defs>
<polyline clip-path="url(#clip702)" style="stroke:#000000; stroke-linecap:round; stroke-linejoin:round; stroke-width:2; stroke-opacity:0.1; fill:none" points="316.512,623.18 316.512,47.2441 "/>
<polyline clip-path="url(#clip702)" style="stroke:#000000; stroke-linecap:round; stroke-linejoin:round; stroke-width:2; stroke-opacity:0.1; fill:none" points="712.692,623.18 712.692,47.2441 "/>
<polyline clip-path="url(#clip702)" style="stroke:#000000; stroke-linecap:round; stroke-linejoin:round; stroke-width:2; stroke-opacity:0.1; fill:none" points="1108.87,623.18 1108.87,47.2441 "/>
<polyline clip-path="url(#clip702)" style="stroke:#000000; stroke-linecap:round; stroke-linejoin:round; stroke-width:2; stroke-opacity:0.1; fill:none" points="1505.05,623.18 1505.05,47.2441 "/>
<polyline clip-path="url(#clip702)" style="stroke:#000000; stroke-linecap:round; stroke-linejoin:round; stroke-width:2; stroke-opacity:0.1; fill:none" points="1901.23,623.18 1901.23,47.2441 "/>
<polyline clip-path="url(#clip702)" style="stroke:#000000; stroke-linecap:round; stroke-linejoin:round; stroke-width:2; stroke-opacity:0.1; fill:none" points="2297.41,623.18 2297.41,47.2441 "/>
<polyline clip-path="url(#clip702)" style="stroke:#000000; stroke-linecap:round; stroke-linejoin:round; stroke-width:2; stroke-opacity:0.1; fill:none" points="257.204,611.367 2352.76,611.367 "/>
<polyline clip-path="url(#clip702)" style="stroke:#000000; stroke-linecap:round; stroke-linejoin:round; stroke-width:2; stroke-opacity:0.1; fill:none" points="257.204,437.325 2352.76,437.325 "/>
<polyline clip-path="url(#clip702)" style="stroke:#000000; stroke-linecap:round; stroke-linejoin:round; stroke-width:2; stroke-opacity:0.1; fill:none" points="257.204,263.283 2352.76,263.283 "/>
<polyline clip-path="url(#clip702)" style="stroke:#000000; stroke-linecap:round; stroke-linejoin:round; stroke-width:2; stroke-opacity:0.1; fill:none" points="257.204,89.2403 2352.76,89.2403 "/>
<polyline clip-path="url(#clip700)" style="stroke:#000000; stroke-linecap:round; stroke-linejoin:round; stroke-width:4; stroke-opacity:1; fill:none" points="257.204,623.18 2352.76,623.18 "/>
<polyline clip-path="url(#clip700)" style="stroke:#000000; stroke-linecap:round; stroke-linejoin:round; stroke-width:4; stroke-opacity:1; fill:none" points="316.512,623.18 316.512,604.282 "/>
<polyline clip-path="url(#clip700)" style="stroke:#000000; stroke-linecap:round; stroke-linejoin:round; stroke-width:4; stroke-opacity:1; fill:none" points="712.692,623.18 712.692,604.282 "/>
<polyline clip-path="url(#clip700)" style="stroke:#000000; stroke-linecap:round; stroke-linejoin:round; stroke-width:4; stroke-opacity:1; fill:none" points="1108.87,623.18 1108.87,604.282 "/>
<polyline clip-path="url(#clip700)" style="stroke:#000000; stroke-linecap:round; stroke-linejoin:round; stroke-width:4; stroke-opacity:1; fill:none" points="1505.05,623.18 1505.05,604.282 "/>
<polyline clip-path="url(#clip700)" style="stroke:#000000; stroke-linecap:round; stroke-linejoin:round; stroke-width:4; stroke-opacity:1; fill:none" points="1901.23,623.18 1901.23,604.282 "/>
<polyline clip-path="url(#clip700)" style="stroke:#000000; stroke-linecap:round; stroke-linejoin:round; stroke-width:4; stroke-opacity:1; fill:none" points="2297.41,623.18 2297.41,604.282 "/>
<path clip-path="url(#clip700)" d="M316.512 654.099 Q312.901 654.099 311.072 657.663 Q309.267 661.205 309.267 668.335 Q309.267 675.441 311.072 679.006 Q312.901 682.547 316.512 682.547 Q320.146 682.547 321.952 679.006 Q323.781 675.441 323.781 668.335 Q323.781 661.205 321.952 657.663 Q320.146 654.099 316.512 654.099 M316.512 650.395 Q322.322 650.395 325.378 655.001 Q328.456 659.585 328.456 668.335 Q328.456 677.061 325.378 681.668 Q322.322 686.251 316.512 686.251 Q310.702 686.251 307.623 681.668 Q304.568 677.061 304.568 668.335 Q304.568 659.585 307.623 655.001 Q310.702 650.395 316.512 650.395 Z" fill="#000000" fill-rule="nonzero" fill-opacity="1" /><path clip-path="url(#clip700)" d="M703.074 681.645 L710.712 681.645 L710.712 655.279 L702.402 656.946 L702.402 652.687 L710.666 651.02 L715.342 651.02 L715.342 681.645 L722.981 681.645 L722.981 685.58 L703.074 685.58 L703.074 681.645 Z" fill="#000000" fill-rule="nonzero" fill-opacity="1" /><path clip-path="url(#clip700)" d="M1103.52 681.645 L1119.84 681.645 L1119.84 685.58 L1097.9 685.58 L1097.9 681.645 Q1100.56 678.89 1105.14 674.26 Q1109.75 669.608 1110.93 668.265 Q1113.18 665.742 1114.06 664.006 Q1114.96 662.247 1114.96 660.557 Q1114.96 657.802 1113.01 656.066 Q1111.09 654.33 1107.99 654.33 Q1105.79 654.33 1103.34 655.094 Q1100.91 655.858 1098.13 657.409 L1098.13 652.687 Q1100.95 651.552 1103.41 650.974 Q1105.86 650.395 1107.9 650.395 Q1113.27 650.395 1116.46 653.08 Q1119.66 655.765 1119.66 660.256 Q1119.66 662.386 1118.85 664.307 Q1118.06 666.205 1115.95 668.798 Q1115.38 669.469 1112.27 672.686 Q1109.17 675.881 1103.52 681.645 Z" fill="#000000" fill-rule="nonzero" fill-opacity="1" /><path clip-path="url(#clip700)" d="M1509.3 666.946 Q1512.65 667.663 1514.53 669.932 Q1516.43 672.2 1516.43 675.534 Q1516.43 680.649 1512.91 683.45 Q1509.39 686.251 1502.91 686.251 Q1500.73 686.251 1498.42 685.811 Q1496.13 685.395 1493.67 684.538 L1493.67 680.024 Q1495.62 681.159 1497.93 681.737 Q1500.25 682.316 1502.77 682.316 Q1507.17 682.316 1509.46 680.58 Q1511.78 678.844 1511.78 675.534 Q1511.78 672.478 1509.62 670.765 Q1507.49 669.029 1503.67 669.029 L1499.65 669.029 L1499.65 665.186 L1503.86 665.186 Q1507.31 665.186 1509.14 663.821 Q1510.96 662.432 1510.96 659.839 Q1510.96 657.177 1509.07 655.765 Q1507.19 654.33 1503.67 654.33 Q1501.75 654.33 1499.55 654.747 Q1497.35 655.163 1494.72 656.043 L1494.72 651.876 Q1497.38 651.136 1499.69 650.765 Q1502.03 650.395 1504.09 650.395 Q1509.41 650.395 1512.52 652.825 Q1515.62 655.233 1515.62 659.353 Q1515.62 662.223 1513.97 664.214 Q1512.33 666.182 1509.3 666.946 Z" fill="#000000" fill-rule="nonzero" fill-opacity="1" /><path clip-path="url(#clip700)" d="M1904.24 655.094 L1892.43 673.543 L1904.24 673.543 L1904.24 655.094 M1903.01 651.02 L1908.89 651.02 L1908.89 673.543 L1913.82 673.543 L1913.82 677.432 L1908.89 677.432 L1908.89 685.58 L1904.24 685.58 L1904.24 677.432 L1888.64 677.432 L1888.64 672.918 L1903.01 651.02 Z" fill="#000000" fill-rule="nonzero" fill-opacity="1" /><path clip-path="url(#clip700)" d="M2287.69 651.02 L2306.04 651.02 L2306.04 654.955 L2291.97 654.955 L2291.97 663.427 Q2292.99 663.08 2294.01 662.918 Q2295.03 662.733 2296.04 662.733 Q2301.83 662.733 2305.21 665.904 Q2308.59 669.075 2308.59 674.492 Q2308.59 680.071 2305.12 683.172 Q2301.65 686.251 2295.33 686.251 Q2293.15 686.251 2290.88 685.881 Q2288.64 685.51 2286.23 684.77 L2286.23 680.071 Q2288.31 681.205 2290.53 681.76 Q2292.76 682.316 2295.23 682.316 Q2299.24 682.316 2301.58 680.21 Q2303.91 678.103 2303.91 674.492 Q2303.91 670.881 2301.58 668.774 Q2299.24 666.668 2295.23 666.668 Q2293.36 666.668 2291.48 667.085 Q2289.63 667.501 2287.69 668.381 L2287.69 651.02 Z" fill="#000000" fill-rule="nonzero" fill-opacity="1" /><path clip-path="url(#clip700)" d="M1175.15 720.524 L1215.35 720.524 L1215.35 725.935 L1198.48 725.935 L1198.48 768.044 L1192.02 768.044 L1192.02 725.935 L1175.15 725.935 L1175.15 720.524 Z" fill="#000000" fill-rule="nonzero" fill-opacity="1" /><path clip-path="url(#clip700)" d="M1219.3 732.396 L1225.15 732.396 L1225.15 768.044 L1219.3 768.044 L1219.3 732.396 M1219.3 718.519 L1225.15 718.519 L1225.15 725.935 L1219.3 725.935 L1219.3 718.519 Z" fill="#000000" fill-rule="nonzero" fill-opacity="1" /><path clip-path="url(#clip700)" d="M1265.16 739.239 Q1267.36 735.292 1270.41 733.414 Q1273.47 731.537 1277.61 731.537 Q1283.18 731.537 1286.2 735.451 Q1289.22 739.335 1289.22 746.528 L1289.22 768.044 L1283.34 768.044 L1283.34 746.719 Q1283.34 741.594 1281.52 739.112 Q1279.71 736.629 1275.98 736.629 Q1271.43 736.629 1268.79 739.653 Q1266.15 742.677 1266.15 747.896 L1266.15 768.044 L1260.26 768.044 L1260.26 746.719 Q1260.26 741.563 1258.45 739.112 Q1256.63 736.629 1252.84 736.629 Q1248.36 736.629 1245.72 739.685 Q1243.07 742.708 1243.07 747.896 L1243.07 768.044 L1237.19 768.044 L1237.19 732.396 L1243.07 732.396 L1243.07 737.934 Q1245.08 734.656 1247.88 733.096 Q1250.68 731.537 1254.53 731.537 Q1258.41 731.537 1261.12 733.51 Q1263.86 735.483 1265.16 739.239 Z" fill="#000000" fill-rule="nonzero" fill-opacity="1" /><path clip-path="url(#clip700)" d="M1331.4 748.756 L1331.4 751.62 L1304.47 751.62 Q1304.85 757.668 1308.1 760.851 Q1311.38 764.002 1317.2 764.002 Q1320.58 764.002 1323.73 763.174 Q1326.91 762.347 1330.03 760.691 L1330.03 766.23 Q1326.88 767.566 1323.57 768.267 Q1320.26 768.967 1316.85 768.967 Q1308.32 768.967 1303.32 764.002 Q1298.36 759.036 1298.36 750.57 Q1298.36 741.817 1303.07 736.693 Q1307.81 731.537 1315.83 731.537 Q1323.03 731.537 1327.2 736.183 Q1331.4 740.799 1331.4 748.756 M1325.54 747.037 Q1325.48 742.231 1322.84 739.366 Q1320.23 736.502 1315.9 736.502 Q1311 736.502 1308.04 739.271 Q1305.11 742.04 1304.66 747.069 L1325.54 747.037 Z" fill="#000000" fill-rule="nonzero" fill-opacity="1" /><path clip-path="url(#clip700)" d="M1375.8 718.582 Q1371.53 725.903 1369.46 733.064 Q1367.4 740.226 1367.4 747.578 Q1367.4 754.93 1369.46 762.156 Q1371.57 769.349 1375.8 776.638 L1370.71 776.638 Q1365.93 769.158 1363.54 761.933 Q1361.19 754.708 1361.19 747.578 Q1361.19 740.48 1363.54 733.287 Q1365.9 726.094 1370.71 718.582 L1375.8 718.582 Z" fill="#000000" fill-rule="nonzero" fill-opacity="1" /><path clip-path="url(#clip700)" d="M1409.89 733.446 L1409.89 738.984 Q1407.4 737.711 1404.73 737.075 Q1402.06 736.438 1399.19 736.438 Q1394.83 736.438 1392.64 737.775 Q1390.47 739.112 1390.47 741.785 Q1390.47 743.822 1392.03 745 Q1393.59 746.146 1398.3 747.196 L1400.31 747.642 Q1406.54 748.979 1409.15 751.429 Q1411.8 753.848 1411.8 758.209 Q1411.8 763.174 1407.85 766.07 Q1403.93 768.967 1397.06 768.967 Q1394.2 768.967 1391.08 768.394 Q1387.99 767.853 1384.55 766.739 L1384.55 760.691 Q1387.8 762.378 1390.95 763.238 Q1394.1 764.065 1397.19 764.065 Q1401.32 764.065 1403.55 762.665 Q1405.78 761.233 1405.78 758.654 Q1405.78 756.267 1404.16 754.994 Q1402.57 753.721 1397.12 752.543 L1395.09 752.066 Q1389.64 750.92 1387.22 748.565 Q1384.81 746.178 1384.81 742.04 Q1384.81 737.011 1388.37 734.274 Q1391.94 731.537 1398.49 731.537 Q1401.74 731.537 1404.6 732.014 Q1407.47 732.491 1409.89 733.446 Z" fill="#000000" fill-rule="nonzero" fill-opacity="1" /><path clip-path="url(#clip700)" d="M1420.2 718.582 L1425.29 718.582 Q1430.07 726.094 1432.42 733.287 Q1434.81 740.48 1434.81 747.578 Q1434.81 754.708 1432.42 761.933 Q1430.07 769.158 1425.29 776.638 L1420.2 776.638 Q1424.43 769.349 1426.5 762.156 Q1428.6 754.93 1428.6 747.578 Q1428.6 740.226 1426.5 733.064 Q1424.43 725.903 1420.2 718.582 Z" fill="#000000" fill-rule="nonzero" fill-opacity="1" /><polyline clip-path="url(#clip700)" style="stroke:#000000; stroke-linecap:round; stroke-linejoin:round; stroke-width:4; stroke-opacity:1; fill:none" points="257.204,623.18 257.204,47.2441 "/>
<polyline clip-path="url(#clip700)" style="stroke:#000000; stroke-linecap:round; stroke-linejoin:round; stroke-width:4; stroke-opacity:1; fill:none" points="257.204,611.367 276.102,611.367 "/>
<polyline clip-path="url(#clip700)" style="stroke:#000000; stroke-linecap:round; stroke-linejoin:round; stroke-width:4; stroke-opacity:1; fill:none" points="257.204,437.325 276.102,437.325 "/>
<polyline clip-path="url(#clip700)" style="stroke:#000000; stroke-linecap:round; stroke-linejoin:round; stroke-width:4; stroke-opacity:1; fill:none" points="257.204,263.283 276.102,263.283 "/>
<polyline clip-path="url(#clip700)" style="stroke:#000000; stroke-linecap:round; stroke-linejoin:round; stroke-width:4; stroke-opacity:1; fill:none" points="257.204,89.2403 276.102,89.2403 "/>
<path clip-path="url(#clip700)" d="M115.487 611.819 L145.163 611.819 L145.163 615.754 L115.487 615.754 L115.487 611.819 Z" fill="#000000" fill-rule="nonzero" fill-opacity="1" /><path clip-path="url(#clip700)" d="M165.255 597.166 Q161.644 597.166 159.815 600.731 Q158.01 604.272 158.01 611.402 Q158.01 618.508 159.815 622.073 Q161.644 625.615 165.255 625.615 Q168.889 625.615 170.695 622.073 Q172.524 618.508 172.524 611.402 Q172.524 604.272 170.695 600.731 Q168.889 597.166 165.255 597.166 M165.255 593.462 Q171.065 593.462 174.121 598.069 Q177.2 602.652 177.2 611.402 Q177.2 620.129 174.121 624.735 Q171.065 629.319 165.255 629.319 Q159.445 629.319 156.366 624.735 Q153.311 620.129 153.311 611.402 Q153.311 602.652 156.366 598.069 Q159.445 593.462 165.255 593.462 Z" fill="#000000" fill-rule="nonzero" fill-opacity="1" /><path clip-path="url(#clip700)" d="M185.417 622.768 L190.301 622.768 L190.301 628.647 L185.417 628.647 L185.417 622.768 Z" fill="#000000" fill-rule="nonzero" fill-opacity="1" /><path clip-path="url(#clip700)" d="M201.297 624.712 L208.936 624.712 L208.936 598.347 L200.625 600.013 L200.625 595.754 L208.889 594.087 L213.565 594.087 L213.565 624.712 L221.204 624.712 L221.204 628.647 L201.297 628.647 L201.297 624.712 Z" fill="#000000" fill-rule="nonzero" fill-opacity="1" /><path clip-path="url(#clip700)" d="M164.028 423.124 Q160.417 423.124 158.589 426.688 Q156.783 430.23 156.783 437.36 Q156.783 444.466 158.589 448.031 Q160.417 451.573 164.028 451.573 Q167.663 451.573 169.468 448.031 Q171.297 444.466 171.297 437.36 Q171.297 430.23 169.468 426.688 Q167.663 423.124 164.028 423.124 M164.028 419.42 Q169.839 419.42 172.894 424.026 Q175.973 428.61 175.973 437.36 Q175.973 446.086 172.894 450.693 Q169.839 455.276 164.028 455.276 Q158.218 455.276 155.14 450.693 Q152.084 446.086 152.084 437.36 Q152.084 428.61 155.14 424.026 Q158.218 419.42 164.028 419.42 Z" fill="#000000" fill-rule="nonzero" fill-opacity="1" /><path clip-path="url(#clip700)" d="M184.19 448.725 L189.075 448.725 L189.075 454.605 L184.19 454.605 L184.19 448.725 Z" fill="#000000" fill-rule="nonzero" fill-opacity="1" /><path clip-path="url(#clip700)" d="M209.26 423.124 Q205.649 423.124 203.82 426.688 Q202.014 430.23 202.014 437.36 Q202.014 444.466 203.82 448.031 Q205.649 451.573 209.26 451.573 Q212.894 451.573 214.699 448.031 Q216.528 444.466 216.528 437.36 Q216.528 430.23 214.699 426.688 Q212.894 423.124 209.26 423.124 M209.26 419.42 Q215.07 419.42 218.125 424.026 Q221.204 428.61 221.204 437.36 Q221.204 446.086 218.125 450.693 Q215.07 455.276 209.26 455.276 Q203.449 455.276 200.371 450.693 Q197.315 446.086 197.315 437.36 Q197.315 428.61 200.371 424.026 Q203.449 419.42 209.26 419.42 Z" fill="#000000" fill-rule="nonzero" fill-opacity="1" /><path clip-path="url(#clip700)" d="M165.255 249.081 Q161.644 249.081 159.815 252.646 Q158.01 256.188 158.01 263.317 Q158.01 270.424 159.815 273.989 Q161.644 277.53 165.255 277.53 Q168.889 277.53 170.695 273.989 Q172.524 270.424 172.524 263.317 Q172.524 256.188 170.695 252.646 Q168.889 249.081 165.255 249.081 M165.255 245.378 Q171.065 245.378 174.121 249.984 Q177.2 254.567 177.2 263.317 Q177.2 272.044 174.121 276.651 Q171.065 281.234 165.255 281.234 Q159.445 281.234 156.366 276.651 Q153.311 272.044 153.311 263.317 Q153.311 254.567 156.366 249.984 Q159.445 245.378 165.255 245.378 Z" fill="#000000" fill-rule="nonzero" fill-opacity="1" /><path clip-path="url(#clip700)" d="M185.417 274.683 L190.301 274.683 L190.301 280.563 L185.417 280.563 L185.417 274.683 Z" fill="#000000" fill-rule="nonzero" fill-opacity="1" /><path clip-path="url(#clip700)" d="M201.297 276.627 L208.936 276.627 L208.936 250.262 L200.625 251.928 L200.625 247.669 L208.889 246.003 L213.565 246.003 L213.565 276.627 L221.204 276.627 L221.204 280.563 L201.297 280.563 L201.297 276.627 Z" fill="#000000" fill-rule="nonzero" fill-opacity="1" /><path clip-path="url(#clip700)" d="M165.626 75.039 Q162.015 75.039 160.186 78.6037 Q158.38 82.1454 158.38 89.275 Q158.38 96.3814 160.186 99.9462 Q162.015 103.488 165.626 103.488 Q169.26 103.488 171.065 99.9462 Q172.894 96.3814 172.894 89.275 Q172.894 82.1454 171.065 78.6037 Q169.26 75.039 165.626 75.039 M165.626 71.3353 Q171.436 71.3353 174.491 75.9417 Q177.57 80.525 177.57 89.275 Q177.57 98.0018 174.491 102.608 Q171.436 107.192 165.626 107.192 Q159.815 107.192 156.737 102.608 Q153.681 98.0018 153.681 89.275 Q153.681 80.525 156.737 75.9417 Q159.815 71.3353 165.626 71.3353 Z" fill="#000000" fill-rule="nonzero" fill-opacity="1" /><path clip-path="url(#clip700)" d="M185.788 100.641 L190.672 100.641 L190.672 106.52 L185.788 106.52 L185.788 100.641 Z" fill="#000000" fill-rule="nonzero" fill-opacity="1" /><path clip-path="url(#clip700)" d="M204.885 102.585 L221.204 102.585 L221.204 106.52 L199.26 106.52 L199.26 102.585 Q201.922 99.8305 206.505 95.2009 Q211.111 90.5481 212.292 89.2055 Q214.537 86.6824 215.417 84.9463 Q216.32 83.1871 216.32 81.4973 Q216.32 78.7426 214.375 77.0065 Q212.454 75.2704 209.352 75.2704 Q207.153 75.2704 204.699 76.0343 Q202.269 76.7982 199.491 78.3491 L199.491 73.6269 Q202.315 72.4927 204.769 71.914 Q207.223 71.3353 209.26 71.3353 Q214.63 71.3353 217.824 74.0204 Q221.019 76.7056 221.019 81.1963 Q221.019 83.3259 220.209 85.2472 Q219.422 87.1454 217.315 89.7379 Q216.736 90.4092 213.635 93.6268 Q210.533 96.8212 204.885 102.585 Z" fill="#000000" fill-rule="nonzero" fill-opacity="1" /><path clip-path="url(#clip700)" d="M68.5412 333.525 Q74.9069 336.008 76.8484 338.363 Q78.79 340.718 78.79 344.665 L78.79 349.344 L73.8884 349.344 L73.8884 345.906 Q73.8884 343.487 72.7425 342.151 Q71.5967 340.814 67.3317 339.191 L64.6581 338.14 L29.583 352.559 L29.583 346.352 L57.4648 335.212 L29.583 324.072 L29.583 317.865 L68.5412 333.525 Z" fill="#000000" fill-rule="nonzero" fill-opacity="1" /><polyline clip-path="url(#clip702)" style="stroke:#009af9; stroke-linecap:round; stroke-linejoin:round; stroke-width:4; stroke-opacity:1; fill:none" points="316.512,437.325 320.474,437.325 324.436,437.325 324.436,420.122 328.397,420.122 328.397,403.426 332.359,403.426 332.359,387.382 336.321,387.382 336.321,372.124 340.283,372.124 340.283,357.762 344.245,357.762 344.245,344.393 348.206,344.393 348.206,332.088 352.168,332.088 352.168,320.899 356.13,320.899 356.13,310.858 360.092,310.858 360.092,301.97 364.054,301.97 364.054,328.63 368.015,328.63 368.015,355.384 371.977,355.384 371.977,381.885 375.939,381.885 375.939,407.8 379.901,407.8 379.901,432.817 383.863,432.817 383.863,422.241 387.824,422.241 387.824,411.234 391.786,411.234 391.786,399.865 395.748,399.865 395.748,388.21 399.71,388.21 399.71,376.349 403.672,376.349 403.672,398.774 407.633,398.774 407.633,420.15 411.595,420.15 411.595,440.269 415.557,440.269 415.557,458.953 419.519,458.953 419.519,476.055 423.481,476.055 423.481,491.461 427.442,491.461 427.442,505.093 431.404,505.093 431.404,516.908 435.366,516.908 435.366,526.898 439.328,526.898 439.328,535.091 443.29,535.091 443.29,541.546 447.251,541.546 447.251,546.354 451.213,546.354 451.213,549.632 455.175,549.632 455.175,551.526 459.137,551.526 459.137,552.198 463.099,552.198 463.099,517.426 467.06,517.426 467.06,482.826 471.022,482.826 471.022,448.895 474.984,448.895 474.984,416.104 478.946,416.104 478.946,384.893 482.907,384.893 482.907,355.654 486.869,355.654 486.869,328.736 490.831,328.736 490.831,304.43 494.793,304.43 494.793,282.969 498.755,282.969 498.755,264.526 502.716,264.526 502.716,283.618 506.678,283.618 506.678,304.871 510.64,304.871 510.64,327.976 514.602,327.976 514.602,352.596 518.564,352.596 518.564,378.372 522.525,378.372 522.525,370.524 526.487,370.524 526.487,364.093 530.449,364.093 530.449,358.994 534.411,358.994 534.411,355.122 538.373,355.122 538.373,352.351 542.334,352.351 542.334,350.537 546.296,350.537 546.296,349.527 550.258,349.527 550.258,349.156 554.22,349.156 554.22,349.252 558.182,349.252 558.182,349.643 562.143,349.643 562.143,384.563 566.105,384.563 566.105,418.422 570.067,418.422 570.067,450.769 574.029,450.769 574.029,481.189 577.991,481.189 577.991,509.32 581.952,509.32 581.952,534.85 585.914,534.85 585.914,557.53 589.876,557.53 589.876,577.167 593.838,577.167 593.838,593.638 597.8,593.638 597.8,606.88 601.761,606.88 601.761,582.488 605.723,582.488 605.723,555.947 609.685,555.947 609.685,527.672 613.647,527.672 613.647,498.101 617.609,498.101 617.609,467.688 621.57,467.688 621.57,471.297 625.532,471.297 625.532,473.961 629.494,473.961 629.494,475.83 633.456,475.83 633.456,477.059 637.418,477.059 637.418,477.811 641.379,477.811 641.379,478.254 645.341,478.254 645.341,478.552 649.303,478.552 649.303,478.868 653.265,478.868 653.265,479.357 657.226,479.357 657.226,480.165 661.188,480.165 661.188,481.425 665.15,481.425 665.15,483.256 669.112,483.256 669.112,485.761 673.074,485.761 673.074,489.024 677.035,489.024 677.035,493.113 680.997,493.113 680.997,498.072 684.959,498.072 684.959,503.929 688.921,503.929 688.921,510.689 692.883,510.689 692.883,518.339 696.844,518.339 696.844,526.849 700.806,526.849 700.806,501.761 704.768,501.761 704.768,478.432 708.73,478.432 708.73,457.075 712.692,457.075 712.692,437.861 716.653,437.861 716.653,420.914 720.615,420.914 720.615,440.721 724.577,440.721 724.577,461.894 728.539,461.894 728.539,484.126 732.501,484.126 732.501,507.098 736.462,507.098 736.462,530.483 740.424,530.483 740.424,519.548 744.386,519.548 744.386,509.393 748.348,509.393 748.348,500.004 752.31,500.004 752.31,491.354 756.271,491.354 756.271,483.404 760.233,483.404 760.233,476.105 764.195,476.105 764.195,469.396 768.157,469.396 768.157,463.212 772.119,463.212 772.119,457.479 776.08,457.479 776.08,452.117 780.042,452.117 780.042,447.045 784.004,447.045 784.004,442.18 787.966,442.18 787.966,437.439 791.928,437.439 791.928,432.74 795.889,432.74 795.889,428.004 799.851,428.004 799.851,423.159 803.813,423.159 803.813,418.137 807.775,418.137 807.775,412.878 811.736,412.878 811.736,407.328 815.698,407.328 815.698,401.446 819.66,401.446 819.66,395.197 823.622,395.197 823.622,388.557 827.584,388.557 827.584,381.511 831.545,381.511 831.545,374.056 835.507,374.056 835.507,366.197 839.469,366.197 839.469,357.949 843.431,357.949 843.431,349.335 847.393,349.335 847.393,340.387 851.354,340.387 851.354,331.143 855.316,331.143 855.316,321.649 859.278,321.649 859.278,311.953 863.24,311.953 863.24,302.111 867.202,302.111 867.202,292.178 871.163,292.178 871.163,282.212 875.125,282.212 875.125,272.272 879.087,272.272 879.087,296.821 883.049,296.821 883.049,320.496 887.011,320.496 887.011,343.055 890.972,343.055 890.972,364.285 894.934,364.285 894.934,384.004 898.896,384.004 898.896,367.655 902.858,367.655 902.858,350.543 906.82,350.543 906.82,332.883 910.781,332.883 910.781,314.897 914.743,314.897 914.743,296.805 918.705,296.805 918.705,278.827 922.667,278.827 922.667,261.175 926.629,261.175 926.629,244.049 930.59,244.049 930.59,227.633 934.552,227.633 934.552,212.097 938.514,212.097 938.514,231.992 942.476,231.992 942.476,252.022 946.438,252.022 946.438,271.991 950.399,271.991 950.399,291.712 954.361,291.712 954.361,311.002 958.323,311.002 958.323,329.691 962.285,329.691 962.285,347.626 966.246,347.626 966.246,364.669 970.208,364.669 970.208,380.703 974.17,380.703 974.17,395.631 978.132,395.631 978.132,374.975 982.094,374.975 982.094,354.104 986.055,354.104 986.055,333.286 990.017,333.286 990.017,312.779 993.979,312.779 993.979,292.831 997.941,292.831 997.941,308.078 1001.9,308.078 1001.9,323.311 1005.86,323.311 1005.86,338.421 1009.83,338.421 1009.83,353.305 1013.79,353.305 1013.79,367.863 1017.75,367.863 1017.75,382.004 1021.71,382.004 1021.71,395.647 1025.67,395.647 1025.67,408.72 1029.64,408.72 1029.64,421.162 1033.6,421.162 1033.6,432.926 1037.56,432.926 1037.56,409.571 1041.52,409.571 1041.52,386.496 1045.48,386.496 1045.48,363.984 1049.44,363.984 1049.44,342.302 1053.41,342.302 1053.41,321.696 1057.37,321.696 1057.37,302.383 1061.33,302.383 1061.33,284.55 1065.29,284.55 1065.29,268.35 1069.25,268.35 1069.25,253.904 1073.21,253.904 1073.21,241.292 1077.18,241.292 1077.18,230.562 1081.14,230.562 1081.14,221.721 1085.1,221.721 1085.1,214.741 1089.06,214.741 1089.06,209.562 1093.02,209.562 1093.02,206.089 1096.99,206.089 1096.99,204.198 1100.95,204.198 1100.95,203.741 1104.91,203.741 1104.91,204.546 1108.87,204.546 1108.87,206.422 1112.83,206.422 1112.83,209.165 1116.79,209.165 1116.79,212.562 1120.76,212.562 1120.76,216.393 1124.72,216.393 1124.72,220.439 1128.68,220.439 1128.68,224.483 1132.64,224.483 1132.64,228.316 1136.6,228.316 1136.6,231.742 1140.57,231.742 1140.57,234.579 1144.53,234.579 1144.53,236.663 1148.49,236.663 1148.49,237.852 1152.45,237.852 1152.45,238.026 1156.41,238.026 1156.41,237.089 1160.37,237.089 1160.37,234.974 1164.34,234.974 1164.34,231.636 1168.3,231.636 1168.3,227.061 1172.26,227.061 1172.26,221.257 1176.22,221.257 1176.22,214.261 1180.18,214.261 1180.18,206.129 1184.15,206.129 1184.15,196.942 1188.11,196.942 1188.11,186.801 1192.07,186.801 1192.07,175.821 1196.03,175.821 1196.03,198.54 1199.99,198.54 1199.99,219.679 1203.95,219.679 1203.95,239.097 1207.92,239.097 1207.92,256.685 1211.88,256.685 1211.88,272.373 1215.84,272.373 1215.84,251.722 1219.8,251.722 1219.8,230.156 1223.76,230.156 1223.76,208.007 1227.72,208.007 1227.72,185.611 1231.69,185.611 1231.69,163.297 1235.65,163.297 1235.65,141.389 1239.61,141.389 1239.61,120.191 1243.57,120.191 1243.57,99.9845 1247.53,99.9845 1247.53,81.0273 1251.5,81.0273 1251.5,63.5442 1255.46,63.5442 1255.46,82.1319 1259.42,82.1319 1259.42,101.524 1263.38,101.524 1263.38,121.542 1267.34,121.542 1267.34,141.998 1271.3,141.998 1271.3,162.698 1275.27,162.698 1275.27,149.041 1279.23,149.041 1279.23,136.255 1283.19,136.255 1283.19,124.447 1287.15,124.447 1287.15,113.703 1291.11,113.703 1291.11,104.086 1295.08,104.086 1295.08,130.045 1299.04,130.045 1299.04,156.176 1303,156.176 1303,182.182 1306.96,182.182 1306.96,207.774 1310.92,207.774 1310.92,232.677 1314.88,232.677 1314.88,222.231 1318.85,222.231 1318.85,211.623 1322.81,211.623 1322.81,200.945 1326.77,200.945 1326.77,190.285 1330.73,190.285 1330.73,179.732 1334.69,179.732 1334.69,169.37 1338.66,169.37 1338.66,159.279 1342.62,159.279 1342.62,149.531 1346.58,149.531 1346.58,140.193 1350.54,140.193 1350.54,131.32 1354.5,131.32 1354.5,157.365 1358.46,157.365 1358.46,182.945 1362.43,182.945 1362.43,207.792 1366.39,207.792 1366.39,231.661 1370.35,231.661 1370.35,254.326 1374.31,254.326 1374.31,275.595 1378.27,275.595 1378.27,295.302 1382.23,295.302 1382.23,313.318 1386.2,313.318 1386.2,329.548 1390.16,329.548 1390.16,343.932 1394.12,343.932 1394.12,322.041 1398.08,322.041 1398.08,299.306 1402.04,299.306 1402.04,276.067 1406.01,276.067 1406.01,252.663 1409.97,252.663 1409.97,229.431 1413.93,229.431 1413.93,241.098 1417.89,241.098 1417.89,252.551 1421.85,252.551 1421.85,263.778 1425.81,263.778 1425.81,274.769 1429.78,274.769 1429.78,285.52 1433.74,285.52 1433.74,296.027 1437.7,296.027 1437.7,306.289 1441.66,306.289 1441.66,316.311 1445.62,316.311 1445.62,326.096 1449.59,326.096 1449.59,335.652 1453.55,335.652 1453.55,344.991 1457.51,344.991 1457.51,354.125 1461.47,354.125 1461.47,363.066 1465.43,363.066 1465.43,371.832 1469.39,371.832 1469.39,380.439 1473.36,380.439 1473.36,388.904 1477.32,388.904 1477.32,397.245 1481.28,397.245 1481.28,405.481 1485.24,405.481 1485.24,413.63 1489.2,413.63 1489.2,421.708 1493.17,421.708 1493.17,395.326 1497.13,395.326 1497.13,369.919 1501.09,369.919 1501.09,345.793 1505.05,345.793 1505.05,323.224 1509.01,323.224 1509.01,302.448 1512.97,302.448 1512.97,318.068 1516.94,318.068 1516.94,334.818 1520.9,334.818 1520.9,352.511 1524.86,352.511 1524.86,370.949 1528.82,370.949 1528.82,389.921 1532.78,389.921 1532.78,374.805 1536.74,374.805 1536.74,360.802 1540.71,360.802 1540.71,347.99 1544.67,347.99 1544.67,336.422 1548.63,336.422 1548.63,326.129 1552.59,326.129 1552.59,317.115 1556.55,317.115 1556.55,309.361 1560.52,309.361 1560.52,302.826 1564.48,302.826 1564.48,297.447 1568.44,297.447 1568.44,293.142 1572.4,293.142 1572.4,324.219 1576.36,324.219 1576.36,355.144 1580.32,355.144 1580.32,385.498 1584.29,385.498 1584.29,414.883 1588.25,414.883 1588.25,442.932 1592.21,442.932 1592.21,434.905 1596.17,434.905 1596.17,425.93 1600.13,425.93 1600.13,416.054 1604.1,416.054 1604.1,405.341 1608.06,405.341 1608.06,393.872 1612.02,393.872 1612.02,381.741 1615.98,381.741 1615.98,369.054 1619.94,369.054 1619.94,355.927 1623.9,355.927 1623.9,342.483 1627.87,342.483 1627.87,328.848 1631.83,328.848 1631.83,315.15 1635.79,315.15 1635.79,301.515 1639.75,301.515 1639.75,288.067 1643.71,288.067 1643.71,274.924 1647.68,274.924 1647.68,262.195 1651.64,262.195 1651.64,249.979 1655.6,249.979 1655.6,238.364 1659.56,238.364 1659.56,227.424 1663.52,227.424 1663.52,217.22 1667.48,217.22 1667.48,207.799 1671.45,207.799 1671.45,199.189 1675.41,199.189 1675.41,191.405 1679.37,191.405 1679.37,184.448 1683.33,184.448 1683.33,178.3 1687.29,178.3 1687.29,172.933 1691.25,172.933 1691.25,168.304 1695.22,168.304 1695.22,164.356 1699.18,164.356 1699.18,161.025 1703.14,161.025 1703.14,158.236 1707.1,158.236 1707.1,155.907 1711.06,155.907 1711.06,153.951 1715.03,153.951 1715.03,152.277 1718.99,152.277 1718.99,150.793 1722.95,150.793 1722.95,149.407 1726.91,149.407 1726.91,148.027 1730.87,148.027 1730.87,180.973 1734.83,180.973 1734.83,212.745 1738.8,212.745 1738.8,242.975 1742.76,242.975 1742.76,271.333 1746.72,271.333 1746.72,297.536 1750.68,297.536 1750.68,321.347 1754.64,321.347 1754.64,342.583 1758.61,342.583 1758.61,361.113 1762.57,361.113 1762.57,376.864 1766.53,376.864 1766.53,389.814 1770.49,389.814 1770.49,365.59 1774.45,365.59 1774.45,339.698 1778.41,339.698 1778.41,312.563 1782.38,312.563 1782.38,284.625 1786.34,284.625 1786.34,256.327 1790.3,256.327 1790.3,262.513 1794.26,262.513 1794.26,268.19 1798.22,268.19 1798.22,273.469 1802.19,273.469 1802.19,278.463 1806.15,278.463 1806.15,283.286 1810.11,283.286 1810.11,288.05 1814.07,288.05 1814.07,292.863 1818.03,292.863 1818.03,297.826 1821.99,297.826 1821.99,303.033 1825.96,303.033 1825.96,308.567 1829.92,308.567 1829.92,280.097 1833.88,280.097 1833.88,253.103 1837.84,253.103 1837.84,227.926 1841.8,227.926 1841.8,204.864 1845.76,204.864 1845.76,184.164 1849.73,184.164 1849.73,166.023 1853.69,166.023 1853.69,150.582 1857.65,150.582 1857.65,137.926 1861.61,137.926 1861.61,128.083 1865.57,128.083 1865.57,121.029 1869.54,121.029 1869.54,151.092 1873.5,151.092 1873.5,182.723 1877.46,182.723 1877.46,215.456 1881.42,215.456 1881.42,248.815 1885.38,248.815 1885.38,282.323 1889.34,282.323 1889.34,315.512 1893.31,315.512 1893.31,347.932 1897.27,347.932 1897.27,379.162 1901.23,379.162 1901.23,408.811 1905.19,408.811 1905.19,436.532 1909.15,436.532 1909.15,462.022 1913.12,462.022 1913.12,485.031 1917.08,485.031 1917.08,505.363 1921.04,505.363 1921.04,522.876 1925,522.876 1925,537.49 1928.96,537.49 1928.96,514.773 1932.92,514.773 1932.92,490.177 1936.89,490.177 1936.89,464.081 1940.85,464.081 1940.85,436.885 1944.81,436.885 1944.81,408.999 1948.77,408.999 1948.77,380.836 1952.73,380.836 1952.73,352.806 1956.7,352.806 1956.7,325.302 1960.66,325.302 1960.66,298.7 1964.62,298.7 1964.62,273.347 1968.58,273.347 1968.58,283.963 1972.54,283.963 1972.54,295.404 1976.5,295.404 1976.5,307.61 1980.47,307.61 1980.47,320.504 1984.43,320.504 1984.43,333.999 1988.39,333.999 1988.39,347.995 1992.35,347.995 1992.35,362.382 1996.31,362.382 1996.31,377.046 2000.27,377.046 2000.27,391.869 2004.24,391.869 2004.24,406.731 2008.2,406.731 2008.2,387.106 2012.16,387.106 2012.16,368.298 2016.12,368.298 2016.12,350.491 2020.08,350.491 2020.08,333.843 2024.05,333.843 2024.05,318.489 2028.01,318.489 2028.01,304.534 2031.97,304.534 2031.97,292.054 2035.93,292.054 2035.93,281.098 2039.89,281.098 2039.89,271.681 2043.85,271.681 2043.85,263.792 2047.82,263.792 2047.82,291.797 2051.78,291.797 2051.78,320.208 2055.74,320.208 2055.74,348.643 2059.7,348.643 2059.7,376.725 2063.66,376.725 2063.66,404.095 2067.63,404.095 2067.63,396.011 2071.59,396.011 2071.59,387.584 2075.55,387.584 2075.55,378.835 2079.51,378.835 2079.51,369.79 2083.47,369.79 2083.47,360.482 2087.43,360.482 2087.43,385.357 2091.4,385.357 2091.4,409.038 2095.36,409.038 2095.36,431.281 2099.32,431.281 2099.32,451.872 2103.28,451.872 2103.28,470.639 2107.24,470.639 2107.24,453.038 2111.21,453.038 2111.21,434.394 2115.17,434.394 2115.17,414.948 2119.13,414.948 2119.13,394.949 2123.09,394.949 2123.09,374.652 2127.05,374.652 2127.05,388.718 2131.01,388.718 2131.01,401.978 2134.98,401.978 2134.98,414.377 2138.94,414.377 2138.94,425.88 2142.9,425.88 2142.9,436.467 2146.86,436.467 2146.86,446.135 2150.82,446.135 2150.82,454.897 2154.79,454.897 2154.79,462.782 2158.75,462.782 2158.75,469.835 2162.71,469.835 2162.71,476.113 2166.67,476.113 2166.67,447.278 2170.63,447.278 2170.63,418.829 2174.59,418.829 2174.59,391.147 2178.56,391.147 2178.56,364.588 2182.52,364.588 2182.52,339.476 2186.48,339.476 2186.48,350.507 2190.44,350.507 2190.44,362.508 2194.4,362.508 2194.4,375.389 2198.36,375.389 2198.36,389.042 2202.33,389.042 2202.33,403.349 2206.29,403.349 2206.29,418.176 2210.25,418.176 2210.25,433.385 2214.21,433.385 2214.21,448.831 2218.17,448.831 2218.17,464.368 2222.14,464.368 2222.14,479.85 2226.1,479.85 2226.1,460.729 2230.06,460.729 2230.06,442.288 2234.02,442.288 2234.02,424.696 2237.98,424.696 2237.98,408.097 2241.94,408.097 2241.94,392.618 2245.91,392.618 2245.91,378.358 2249.87,378.358 2249.87,365.392 2253.83,365.392 2253.83,353.771 2257.79,353.771 2257.79,343.517 2261.75,343.517 2261.75,334.627 2265.72,334.627 2265.72,361.479 2269.68,361.479 2269.68,388.603 2273.64,388.603 2273.64,415.63 2277.6,415.63 2277.6,442.206 2281.56,442.206 2281.56,467.991 2285.52,467.991 2285.52,492.672 2289.49,492.672 2289.49,515.963 2293.45,515.963 2293.45,537.613 "/>
<path clip-path="url(#clip700)" d="M257.204 1423.18 L2352.76 1423.18 L2352.76 847.244 L257.204 847.244  Z" fill="#ffffff" fill-rule="evenodd" fill-opacity="1"/>
<defs>
  <clipPath id="clip703">
    <rect x="257" y="847" width="2097" height="577"/>
  </clipPath>
</defs>
<polyline clip-path="url(#clip703)" style="stroke:#000000; stroke-linecap:round; stroke-linejoin:round; stroke-width:2; stroke-opacity:0.1; fill:none" points="316.512,1423.18 316.512,847.244 "/>
<polyline clip-path="url(#clip703)" style="stroke:#000000; stroke-linecap:round; stroke-linejoin:round; stroke-width:2; stroke-opacity:0.1; fill:none" points="712.692,1423.18 712.692,847.244 "/>
<polyline clip-path="url(#clip703)" style="stroke:#000000; stroke-linecap:round; stroke-linejoin:round; stroke-width:2; stroke-opacity:0.1; fill:none" points="1108.87,1423.18 1108.87,847.244 "/>
<polyline clip-path="url(#clip703)" style="stroke:#000000; stroke-linecap:round; stroke-linejoin:round; stroke-width:2; stroke-opacity:0.1; fill:none" points="1505.05,1423.18 1505.05,847.244 "/>
<polyline clip-path="url(#clip703)" style="stroke:#000000; stroke-linecap:round; stroke-linejoin:round; stroke-width:2; stroke-opacity:0.1; fill:none" points="1901.23,1423.18 1901.23,847.244 "/>
<polyline clip-path="url(#clip703)" style="stroke:#000000; stroke-linecap:round; stroke-linejoin:round; stroke-width:2; stroke-opacity:0.1; fill:none" points="2297.41,1423.18 2297.41,847.244 "/>
<polyline clip-path="url(#clip703)" style="stroke:#000000; stroke-linecap:round; stroke-linejoin:round; stroke-width:2; stroke-opacity:0.1; fill:none" points="257.204,1406.88 2352.76,1406.88 "/>
<polyline clip-path="url(#clip703)" style="stroke:#000000; stroke-linecap:round; stroke-linejoin:round; stroke-width:2; stroke-opacity:0.1; fill:none" points="257.204,1271.05 2352.76,1271.05 "/>
<polyline clip-path="url(#clip703)" style="stroke:#000000; stroke-linecap:round; stroke-linejoin:round; stroke-width:2; stroke-opacity:0.1; fill:none" points="257.204,1135.21 2352.76,1135.21 "/>
<polyline clip-path="url(#clip703)" style="stroke:#000000; stroke-linecap:round; stroke-linejoin:round; stroke-width:2; stroke-opacity:0.1; fill:none" points="257.204,999.378 2352.76,999.378 "/>
<polyline clip-path="url(#clip703)" style="stroke:#000000; stroke-linecap:round; stroke-linejoin:round; stroke-width:2; stroke-opacity:0.1; fill:none" points="257.204,863.544 2352.76,863.544 "/>
<polyline clip-path="url(#clip700)" style="stroke:#000000; stroke-linecap:round; stroke-linejoin:round; stroke-width:4; stroke-opacity:1; fill:none" points="257.204,1423.18 2352.76,1423.18 "/>
<polyline clip-path="url(#clip700)" style="stroke:#000000; stroke-linecap:round; stroke-linejoin:round; stroke-width:4; stroke-opacity:1; fill:none" points="316.512,1423.18 316.512,1404.28 "/>
<polyline clip-path="url(#clip700)" style="stroke:#000000; stroke-linecap:round; stroke-linejoin:round; stroke-width:4; stroke-opacity:1; fill:none" points="712.692,1423.18 712.692,1404.28 "/>
<polyline clip-path="url(#clip700)" style="stroke:#000000; stroke-linecap:round; stroke-linejoin:round; stroke-width:4; stroke-opacity:1; fill:none" points="1108.87,1423.18 1108.87,1404.28 "/>
<polyline clip-path="url(#clip700)" style="stroke:#000000; stroke-linecap:round; stroke-linejoin:round; stroke-width:4; stroke-opacity:1; fill:none" points="1505.05,1423.18 1505.05,1404.28 "/>
<polyline clip-path="url(#clip700)" style="stroke:#000000; stroke-linecap:round; stroke-linejoin:round; stroke-width:4; stroke-opacity:1; fill:none" points="1901.23,1423.18 1901.23,1404.28 "/>
<polyline clip-path="url(#clip700)" style="stroke:#000000; stroke-linecap:round; stroke-linejoin:round; stroke-width:4; stroke-opacity:1; fill:none" points="2297.41,1423.18 2297.41,1404.28 "/>
<path clip-path="url(#clip700)" d="M316.512 1454.1 Q312.901 1454.1 311.072 1457.66 Q309.267 1461.2 309.267 1468.33 Q309.267 1475.44 311.072 1479.01 Q312.901 1482.55 316.512 1482.55 Q320.146 1482.55 321.952 1479.01 Q323.781 1475.44 323.781 1468.33 Q323.781 1461.2 321.952 1457.66 Q320.146 1454.1 316.512 1454.1 M316.512 1450.39 Q322.322 1450.39 325.378 1455 Q328.456 1459.58 328.456 1468.33 Q328.456 1477.06 325.378 1481.67 Q322.322 1486.25 316.512 1486.25 Q310.702 1486.25 307.623 1481.67 Q304.568 1477.06 304.568 1468.33 Q304.568 1459.58 307.623 1455 Q310.702 1450.39 316.512 1450.39 Z" fill="#000000" fill-rule="nonzero" fill-opacity="1" /><path clip-path="url(#clip700)" d="M703.074 1481.64 L710.712 1481.64 L710.712 1455.28 L702.402 1456.95 L702.402 1452.69 L710.666 1451.02 L715.342 1451.02 L715.342 1481.64 L722.981 1481.64 L722.981 1485.58 L703.074 1485.58 L703.074 1481.64 Z" fill="#000000" fill-rule="nonzero" fill-opacity="1" /><path clip-path="url(#clip700)" d="M1103.52 1481.64 L1119.84 1481.64 L1119.84 1485.58 L1097.9 1485.58 L1097.9 1481.64 Q1100.56 1478.89 1105.14 1474.26 Q1109.75 1469.61 1110.93 1468.27 Q1113.18 1465.74 1114.06 1464.01 Q1114.96 1462.25 1114.96 1460.56 Q1114.96 1457.8 1113.01 1456.07 Q1111.09 1454.33 1107.99 1454.33 Q1105.79 1454.33 1103.34 1455.09 Q1100.91 1455.86 1098.13 1457.41 L1098.13 1452.69 Q1100.95 1451.55 1103.41 1450.97 Q1105.86 1450.39 1107.9 1450.39 Q1113.27 1450.39 1116.46 1453.08 Q1119.66 1455.77 1119.66 1460.26 Q1119.66 1462.39 1118.85 1464.31 Q1118.06 1466.2 1115.95 1468.8 Q1115.38 1469.47 1112.27 1472.69 Q1109.17 1475.88 1103.52 1481.64 Z" fill="#000000" fill-rule="nonzero" fill-opacity="1" /><path clip-path="url(#clip700)" d="M1509.3 1466.95 Q1512.65 1467.66 1514.53 1469.93 Q1516.43 1472.2 1516.43 1475.53 Q1516.43 1480.65 1512.91 1483.45 Q1509.39 1486.25 1502.91 1486.25 Q1500.73 1486.25 1498.42 1485.81 Q1496.13 1485.39 1493.67 1484.54 L1493.67 1480.02 Q1495.62 1481.16 1497.93 1481.74 Q1500.25 1482.32 1502.77 1482.32 Q1507.17 1482.32 1509.46 1480.58 Q1511.78 1478.84 1511.78 1475.53 Q1511.78 1472.48 1509.62 1470.77 Q1507.49 1469.03 1503.67 1469.03 L1499.65 1469.03 L1499.65 1465.19 L1503.86 1465.19 Q1507.31 1465.19 1509.14 1463.82 Q1510.96 1462.43 1510.96 1459.84 Q1510.96 1457.18 1509.07 1455.77 Q1507.19 1454.33 1503.67 1454.33 Q1501.75 1454.33 1499.55 1454.75 Q1497.35 1455.16 1494.72 1456.04 L1494.72 1451.88 Q1497.38 1451.14 1499.69 1450.77 Q1502.03 1450.39 1504.09 1450.39 Q1509.41 1450.39 1512.52 1452.83 Q1515.62 1455.23 1515.62 1459.35 Q1515.62 1462.22 1513.97 1464.21 Q1512.33 1466.18 1509.3 1466.95 Z" fill="#000000" fill-rule="nonzero" fill-opacity="1" /><path clip-path="url(#clip700)" d="M1904.24 1455.09 L1892.43 1473.54 L1904.24 1473.54 L1904.24 1455.09 M1903.01 1451.02 L1908.89 1451.02 L1908.89 1473.54 L1913.82 1473.54 L1913.82 1477.43 L1908.89 1477.43 L1908.89 1485.58 L1904.24 1485.58 L1904.24 1477.43 L1888.64 1477.43 L1888.64 1472.92 L1903.01 1451.02 Z" fill="#000000" fill-rule="nonzero" fill-opacity="1" /><path clip-path="url(#clip700)" d="M2287.69 1451.02 L2306.04 1451.02 L2306.04 1454.96 L2291.97 1454.96 L2291.97 1463.43 Q2292.99 1463.08 2294.01 1462.92 Q2295.03 1462.73 2296.04 1462.73 Q2301.83 1462.73 2305.21 1465.9 Q2308.59 1469.08 2308.59 1474.49 Q2308.59 1480.07 2305.12 1483.17 Q2301.65 1486.25 2295.33 1486.25 Q2293.15 1486.25 2290.88 1485.88 Q2288.64 1485.51 2286.23 1484.77 L2286.23 1480.07 Q2288.31 1481.2 2290.53 1481.76 Q2292.76 1482.32 2295.23 1482.32 Q2299.24 1482.32 2301.58 1480.21 Q2303.91 1478.1 2303.91 1474.49 Q2303.91 1470.88 2301.58 1468.77 Q2299.24 1466.67 2295.23 1466.67 Q2293.36 1466.67 2291.48 1467.08 Q2289.63 1467.5 2287.69 1468.38 L2287.69 1451.02 Z" fill="#000000" fill-rule="nonzero" fill-opacity="1" /><path clip-path="url(#clip700)" d="M1175.15 1520.52 L1215.35 1520.52 L1215.35 1525.93 L1198.48 1525.93 L1198.48 1568.04 L1192.02 1568.04 L1192.02 1525.93 L1175.15 1525.93 L1175.15 1520.52 Z" fill="#000000" fill-rule="nonzero" fill-opacity="1" /><path clip-path="url(#clip700)" d="M1219.3 1532.4 L1225.15 1532.4 L1225.15 1568.04 L1219.3 1568.04 L1219.3 1532.4 M1219.3 1518.52 L1225.15 1518.52 L1225.15 1525.93 L1219.3 1525.93 L1219.3 1518.52 Z" fill="#000000" fill-rule="nonzero" fill-opacity="1" /><path clip-path="url(#clip700)" d="M1265.16 1539.24 Q1267.36 1535.29 1270.41 1533.41 Q1273.47 1531.54 1277.61 1531.54 Q1283.18 1531.54 1286.2 1535.45 Q1289.22 1539.33 1289.22 1546.53 L1289.22 1568.04 L1283.34 1568.04 L1283.34 1546.72 Q1283.34 1541.59 1281.52 1539.11 Q1279.71 1536.63 1275.98 1536.63 Q1271.43 1536.63 1268.79 1539.65 Q1266.15 1542.68 1266.15 1547.9 L1266.15 1568.04 L1260.26 1568.04 L1260.26 1546.72 Q1260.26 1541.56 1258.45 1539.11 Q1256.63 1536.63 1252.84 1536.63 Q1248.36 1536.63 1245.72 1539.68 Q1243.07 1542.71 1243.07 1547.9 L1243.07 1568.04 L1237.19 1568.04 L1237.19 1532.4 L1243.07 1532.4 L1243.07 1537.93 Q1245.08 1534.66 1247.88 1533.1 Q1250.68 1531.54 1254.53 1531.54 Q1258.41 1531.54 1261.12 1533.51 Q1263.86 1535.48 1265.16 1539.24 Z" fill="#000000" fill-rule="nonzero" fill-opacity="1" /><path clip-path="url(#clip700)" d="M1331.4 1548.76 L1331.4 1551.62 L1304.47 1551.62 Q1304.85 1557.67 1308.1 1560.85 Q1311.38 1564 1317.2 1564 Q1320.58 1564 1323.73 1563.17 Q1326.91 1562.35 1330.03 1560.69 L1330.03 1566.23 Q1326.88 1567.57 1323.57 1568.27 Q1320.26 1568.97 1316.85 1568.97 Q1308.32 1568.97 1303.32 1564 Q1298.36 1559.04 1298.36 1550.57 Q1298.36 1541.82 1303.07 1536.69 Q1307.81 1531.54 1315.83 1531.54 Q1323.03 1531.54 1327.2 1536.18 Q1331.4 1540.8 1331.4 1548.76 M1325.54 1547.04 Q1325.48 1542.23 1322.84 1539.37 Q1320.23 1536.5 1315.9 1536.5 Q1311 1536.5 1308.04 1539.27 Q1305.11 1542.04 1304.66 1547.07 L1325.54 1547.04 Z" fill="#000000" fill-rule="nonzero" fill-opacity="1" /><path clip-path="url(#clip700)" d="M1375.8 1518.58 Q1371.53 1525.9 1369.46 1533.06 Q1367.4 1540.23 1367.4 1547.58 Q1367.4 1554.93 1369.46 1562.16 Q1371.57 1569.35 1375.8 1576.64 L1370.71 1576.64 Q1365.93 1569.16 1363.54 1561.93 Q1361.19 1554.71 1361.19 1547.58 Q1361.19 1540.48 1363.54 1533.29 Q1365.9 1526.09 1370.71 1518.58 L1375.8 1518.58 Z" fill="#000000" fill-rule="nonzero" fill-opacity="1" /><path clip-path="url(#clip700)" d="M1409.89 1533.45 L1409.89 1538.98 Q1407.4 1537.71 1404.73 1537.07 Q1402.06 1536.44 1399.19 1536.44 Q1394.83 1536.44 1392.64 1537.77 Q1390.47 1539.11 1390.47 1541.79 Q1390.47 1543.82 1392.03 1545 Q1393.59 1546.15 1398.3 1547.2 L1400.31 1547.64 Q1406.54 1548.98 1409.15 1551.43 Q1411.8 1553.85 1411.8 1558.21 Q1411.8 1563.17 1407.85 1566.07 Q1403.93 1568.97 1397.06 1568.97 Q1394.2 1568.97 1391.08 1568.39 Q1387.99 1567.85 1384.55 1566.74 L1384.55 1560.69 Q1387.8 1562.38 1390.95 1563.24 Q1394.1 1564.07 1397.19 1564.07 Q1401.32 1564.07 1403.55 1562.66 Q1405.78 1561.23 1405.78 1558.65 Q1405.78 1556.27 1404.16 1554.99 Q1402.57 1553.72 1397.12 1552.54 L1395.09 1552.07 Q1389.64 1550.92 1387.22 1548.56 Q1384.81 1546.18 1384.81 1542.04 Q1384.81 1537.01 1388.37 1534.27 Q1391.94 1531.54 1398.49 1531.54 Q1401.74 1531.54 1404.6 1532.01 Q1407.47 1532.49 1409.89 1533.45 Z" fill="#000000" fill-rule="nonzero" fill-opacity="1" /><path clip-path="url(#clip700)" d="M1420.2 1518.58 L1425.29 1518.58 Q1430.07 1526.09 1432.42 1533.29 Q1434.81 1540.48 1434.81 1547.58 Q1434.81 1554.71 1432.42 1561.93 Q1430.07 1569.16 1425.29 1576.64 L1420.2 1576.64 Q1424.43 1569.35 1426.5 1562.16 Q1428.6 1554.93 1428.6 1547.58 Q1428.6 1540.23 1426.5 1533.06 Q1424.43 1525.9 1420.2 1518.58 Z" fill="#000000" fill-rule="nonzero" fill-opacity="1" /><polyline clip-path="url(#clip700)" style="stroke:#000000; stroke-linecap:round; stroke-linejoin:round; stroke-width:4; stroke-opacity:1; fill:none" points="257.204,1423.18 257.204,847.244 "/>
<polyline clip-path="url(#clip700)" style="stroke:#000000; stroke-linecap:round; stroke-linejoin:round; stroke-width:4; stroke-opacity:1; fill:none" points="257.204,1406.88 276.102,1406.88 "/>
<polyline clip-path="url(#clip700)" style="stroke:#000000; stroke-linecap:round; stroke-linejoin:round; stroke-width:4; stroke-opacity:1; fill:none" points="257.204,1271.05 276.102,1271.05 "/>
<polyline clip-path="url(#clip700)" style="stroke:#000000; stroke-linecap:round; stroke-linejoin:round; stroke-width:4; stroke-opacity:1; fill:none" points="257.204,1135.21 276.102,1135.21 "/>
<polyline clip-path="url(#clip700)" style="stroke:#000000; stroke-linecap:round; stroke-linejoin:round; stroke-width:4; stroke-opacity:1; fill:none" points="257.204,999.378 276.102,999.378 "/>
<polyline clip-path="url(#clip700)" style="stroke:#000000; stroke-linecap:round; stroke-linejoin:round; stroke-width:4; stroke-opacity:1; fill:none" points="257.204,863.544 276.102,863.544 "/>
<path clip-path="url(#clip700)" d="M114.26 1407.33 L143.936 1407.33 L143.936 1411.27 L114.26 1411.27 L114.26 1407.33 Z" fill="#000000" fill-rule="nonzero" fill-opacity="1" /><path clip-path="url(#clip700)" d="M154.839 1420.22 L162.477 1420.22 L162.477 1393.86 L154.167 1395.53 L154.167 1391.27 L162.431 1389.6 L167.107 1389.6 L167.107 1420.22 L174.746 1420.22 L174.746 1424.16 L154.839 1424.16 L154.839 1420.22 Z" fill="#000000" fill-rule="nonzero" fill-opacity="1" /><path clip-path="url(#clip700)" d="M184.19 1418.28 L189.075 1418.28 L189.075 1424.16 L184.19 1424.16 L184.19 1418.28 Z" fill="#000000" fill-rule="nonzero" fill-opacity="1" /><path clip-path="url(#clip700)" d="M209.26 1392.68 Q205.649 1392.68 203.82 1396.24 Q202.014 1399.78 202.014 1406.91 Q202.014 1414.02 203.82 1417.59 Q205.649 1421.13 209.26 1421.13 Q212.894 1421.13 214.699 1417.59 Q216.528 1414.02 216.528 1406.91 Q216.528 1399.78 214.699 1396.24 Q212.894 1392.68 209.26 1392.68 M209.26 1388.97 Q215.07 1388.97 218.125 1393.58 Q221.204 1398.16 221.204 1406.91 Q221.204 1415.64 218.125 1420.25 Q215.07 1424.83 209.26 1424.83 Q203.449 1424.83 200.371 1420.25 Q197.315 1415.64 197.315 1406.91 Q197.315 1398.16 200.371 1393.58 Q203.449 1388.97 209.26 1388.97 Z" fill="#000000" fill-rule="nonzero" fill-opacity="1" /><path clip-path="url(#clip700)" d="M115.256 1271.5 L144.931 1271.5 L144.931 1275.43 L115.256 1275.43 L115.256 1271.5 Z" fill="#000000" fill-rule="nonzero" fill-opacity="1" /><path clip-path="url(#clip700)" d="M165.024 1256.84 Q161.413 1256.84 159.584 1260.41 Q157.778 1263.95 157.778 1271.08 Q157.778 1278.19 159.584 1281.75 Q161.413 1285.29 165.024 1285.29 Q168.658 1285.29 170.464 1281.75 Q172.292 1278.19 172.292 1271.08 Q172.292 1263.95 170.464 1260.41 Q168.658 1256.84 165.024 1256.84 M165.024 1253.14 Q170.834 1253.14 173.889 1257.75 Q176.968 1262.33 176.968 1271.08 Q176.968 1279.81 173.889 1284.41 Q170.834 1289 165.024 1289 Q159.214 1289 156.135 1284.41 Q153.079 1279.81 153.079 1271.08 Q153.079 1262.33 156.135 1257.75 Q159.214 1253.14 165.024 1253.14 Z" fill="#000000" fill-rule="nonzero" fill-opacity="1" /><path clip-path="url(#clip700)" d="M185.186 1282.45 L190.07 1282.45 L190.07 1288.33 L185.186 1288.33 L185.186 1282.45 Z" fill="#000000" fill-rule="nonzero" fill-opacity="1" /><path clip-path="url(#clip700)" d="M200.301 1253.77 L218.658 1253.77 L218.658 1257.7 L204.584 1257.7 L204.584 1266.17 Q205.602 1265.83 206.621 1265.66 Q207.639 1265.48 208.658 1265.48 Q214.445 1265.48 217.824 1268.65 Q221.204 1271.82 221.204 1277.24 Q221.204 1282.82 217.732 1285.92 Q214.26 1289 207.94 1289 Q205.764 1289 203.496 1288.63 Q201.25 1288.26 198.843 1287.52 L198.843 1282.82 Q200.926 1283.95 203.149 1284.51 Q205.371 1285.06 207.848 1285.06 Q211.852 1285.06 214.19 1282.96 Q216.528 1280.85 216.528 1277.24 Q216.528 1273.63 214.19 1271.52 Q211.852 1269.41 207.848 1269.41 Q205.973 1269.41 204.098 1269.83 Q202.246 1270.25 200.301 1271.13 L200.301 1253.77 Z" fill="#000000" fill-rule="nonzero" fill-opacity="1" /><path clip-path="url(#clip700)" d="M164.028 1121.01 Q160.417 1121.01 158.589 1124.58 Q156.783 1128.12 156.783 1135.25 Q156.783 1142.35 158.589 1145.92 Q160.417 1149.46 164.028 1149.46 Q167.663 1149.46 169.468 1145.92 Q171.297 1142.35 171.297 1135.25 Q171.297 1128.12 169.468 1124.58 Q167.663 1121.01 164.028 1121.01 M164.028 1117.31 Q169.839 1117.31 172.894 1121.91 Q175.973 1126.5 175.973 1135.25 Q175.973 1143.97 172.894 1148.58 Q169.839 1153.16 164.028 1153.16 Q158.218 1153.16 155.14 1148.58 Q152.084 1143.97 152.084 1135.25 Q152.084 1126.5 155.14 1121.91 Q158.218 1117.31 164.028 1117.31 Z" fill="#000000" fill-rule="nonzero" fill-opacity="1" /><path clip-path="url(#clip700)" d="M184.19 1146.61 L189.075 1146.61 L189.075 1152.49 L184.19 1152.49 L184.19 1146.61 Z" fill="#000000" fill-rule="nonzero" fill-opacity="1" /><path clip-path="url(#clip700)" d="M209.26 1121.01 Q205.649 1121.01 203.82 1124.58 Q202.014 1128.12 202.014 1135.25 Q202.014 1142.35 203.82 1145.92 Q205.649 1149.46 209.26 1149.46 Q212.894 1149.46 214.699 1145.92 Q216.528 1142.35 216.528 1135.25 Q216.528 1128.12 214.699 1124.58 Q212.894 1121.01 209.26 1121.01 M209.26 1117.31 Q215.07 1117.31 218.125 1121.91 Q221.204 1126.5 221.204 1135.25 Q221.204 1143.97 218.125 1148.58 Q215.07 1153.16 209.26 1153.16 Q203.449 1153.16 200.371 1148.58 Q197.315 1143.97 197.315 1135.25 Q197.315 1126.5 200.371 1121.91 Q203.449 1117.31 209.26 1117.31 Z" fill="#000000" fill-rule="nonzero" fill-opacity="1" /><path clip-path="url(#clip700)" d="M165.024 985.177 Q161.413 985.177 159.584 988.742 Q157.778 992.283 157.778 999.413 Q157.778 1006.52 159.584 1010.08 Q161.413 1013.63 165.024 1013.63 Q168.658 1013.63 170.464 1010.08 Q172.292 1006.52 172.292 999.413 Q172.292 992.283 170.464 988.742 Q168.658 985.177 165.024 985.177 M165.024 981.473 Q170.834 981.473 173.889 986.08 Q176.968 990.663 176.968 999.413 Q176.968 1008.14 173.889 1012.75 Q170.834 1017.33 165.024 1017.33 Q159.214 1017.33 156.135 1012.75 Q153.079 1008.14 153.079 999.413 Q153.079 990.663 156.135 986.08 Q159.214 981.473 165.024 981.473 Z" fill="#000000" fill-rule="nonzero" fill-opacity="1" /><path clip-path="url(#clip700)" d="M185.186 1010.78 L190.07 1010.78 L190.07 1016.66 L185.186 1016.66 L185.186 1010.78 Z" fill="#000000" fill-rule="nonzero" fill-opacity="1" /><path clip-path="url(#clip700)" d="M200.301 982.098 L218.658 982.098 L218.658 986.033 L204.584 986.033 L204.584 994.505 Q205.602 994.158 206.621 993.996 Q207.639 993.811 208.658 993.811 Q214.445 993.811 217.824 996.982 Q221.204 1000.15 221.204 1005.57 Q221.204 1011.15 217.732 1014.25 Q214.26 1017.33 207.94 1017.33 Q205.764 1017.33 203.496 1016.96 Q201.25 1016.59 198.843 1015.85 L198.843 1011.15 Q200.926 1012.28 203.149 1012.84 Q205.371 1013.39 207.848 1013.39 Q211.852 1013.39 214.19 1011.29 Q216.528 1009.18 216.528 1005.57 Q216.528 1001.96 214.19 999.853 Q211.852 997.746 207.848 997.746 Q205.973 997.746 204.098 998.163 Q202.246 998.579 200.301 999.459 L200.301 982.098 Z" fill="#000000" fill-rule="nonzero" fill-opacity="1" /><path clip-path="url(#clip700)" d="M154.839 876.889 L162.477 876.889 L162.477 850.523 L154.167 852.19 L154.167 847.931 L162.431 846.264 L167.107 846.264 L167.107 876.889 L174.746 876.889 L174.746 880.824 L154.839 880.824 L154.839 876.889 Z" fill="#000000" fill-rule="nonzero" fill-opacity="1" /><path clip-path="url(#clip700)" d="M184.19 874.945 L189.075 874.945 L189.075 880.824 L184.19 880.824 L184.19 874.945 Z" fill="#000000" fill-rule="nonzero" fill-opacity="1" /><path clip-path="url(#clip700)" d="M209.26 849.343 Q205.649 849.343 203.82 852.908 Q202.014 856.449 202.014 863.579 Q202.014 870.685 203.82 874.25 Q205.649 877.792 209.26 877.792 Q212.894 877.792 214.699 874.25 Q216.528 870.685 216.528 863.579 Q216.528 856.449 214.699 852.908 Q212.894 849.343 209.26 849.343 M209.26 845.639 Q215.07 845.639 218.125 850.246 Q221.204 854.829 221.204 863.579 Q221.204 872.306 218.125 876.912 Q215.07 881.495 209.26 881.495 Q203.449 881.495 200.371 876.912 Q197.315 872.306 197.315 863.579 Q197.315 854.829 200.371 850.246 Q203.449 845.639 209.26 845.639 Z" fill="#000000" fill-rule="nonzero" fill-opacity="1" /><path clip-path="url(#clip700)" d="M49.9359 1150.14 L28.3562 1150.14 L28.3562 1144.28 L49.7131 1144.28 Q54.7739 1144.28 57.3202 1142.31 Q59.8346 1140.34 59.8346 1136.39 Q59.8346 1131.65 56.8109 1128.91 Q53.7872 1126.14 48.5673 1126.14 L28.3562 1126.14 L28.3562 1120.28 L64.0042 1120.28 L64.0042 1126.14 L58.5296 1126.14 Q61.7762 1128.27 63.3676 1131.11 Q64.9272 1133.91 64.9272 1137.63 Q64.9272 1143.77 61.1078 1146.96 Q57.2883 1150.14 49.9359 1150.14 M27.4968 1135.4 L27.4968 1135.4 Z" fill="#000000" fill-rule="nonzero" fill-opacity="1" /><polyline clip-path="url(#clip703)" style="stroke:#009af9; stroke-linecap:round; stroke-linejoin:round; stroke-width:4; stroke-opacity:1; fill:none" points="316.512,863.544 320.474,863.544 324.436,863.544 328.397,863.544 332.359,863.544 336.321,863.544 340.283,863.544 344.245,863.544 348.206,863.544 352.168,863.544 356.13,863.544 356.13,1406.88 360.092,1406.88 364.054,1406.88 368.015,1406.88 371.977,1406.88 375.939,1406.88 375.939,863.544 379.901,863.544 383.863,863.544 387.824,863.544 391.786,863.544 395.748,863.544 395.748,1406.88 399.71,1406.88 403.672,1406.88 407.633,1406.88 411.595,1406.88 415.557,1406.88 419.519,1406.88 423.481,1406.88 427.442,1406.88 431.404,1406.88 435.366,1406.88 439.328,1406.88 443.29,1406.88 447.251,1406.88 451.213,1406.88 455.175,1406.88 455.175,863.544 459.137,863.544 463.099,863.544 467.06,863.544 471.022,863.544 474.984,863.544 478.946,863.544 482.907,863.544 486.869,863.544 490.831,863.544 494.793,863.544 494.793,1406.88 498.755,1406.88 502.716,1406.88 506.678,1406.88 510.64,1406.88 514.602,1406.88 514.602,863.544 518.564,863.544 522.525,863.544 526.487,863.544 530.449,863.544 534.411,863.544 538.373,863.544 542.334,863.544 546.296,863.544 550.258,863.544 554.22,863.544 554.22,1406.88 558.182,1406.88 562.143,1406.88 566.105,1406.88 570.067,1406.88 574.029,1406.88 577.991,1406.88 581.952,1406.88 585.914,1406.88 589.876,1406.88 593.838,1406.88 593.838,863.544 597.8,863.544 601.761,863.544 605.723,863.544 609.685,863.544 613.647,863.544 613.647,1406.88 617.609,1406.88 621.57,1406.88 625.532,1406.88 629.494,1406.88 633.456,1406.88 637.418,1406.88 641.379,1406.88 645.341,1406.88 649.303,1406.88 653.265,1406.88 657.226,1406.88 661.188,1406.88 665.15,1406.88 669.112,1406.88 673.074,1406.88 677.035,1406.88 680.997,1406.88 684.959,1406.88 688.921,1406.88 692.883,1406.88 692.883,863.544 696.844,863.544 700.806,863.544 704.768,863.544 708.73,863.544 712.692,863.544 712.692,1406.88 716.653,1406.88 720.615,1406.88 724.577,1406.88 728.539,1406.88 732.501,1406.88 732.501,863.544 736.462,863.544 740.424,863.544 744.386,863.544 748.348,863.544 752.31,863.544 756.271,863.544 760.233,863.544 764.195,863.544 768.157,863.544 772.119,863.544 776.08,863.544 780.042,863.544 784.004,863.544 787.966,863.544 791.928,863.544 795.889,863.544 799.851,863.544 803.813,863.544 807.775,863.544 811.736,863.544 815.698,863.544 819.66,863.544 823.622,863.544 827.584,863.544 831.545,863.544 835.507,863.544 839.469,863.544 843.431,863.544 847.393,863.544 851.354,863.544 855.316,863.544 859.278,863.544 863.24,863.544 867.202,863.544 871.163,863.544 871.163,1406.88 875.125,1406.88 879.087,1406.88 883.049,1406.88 887.011,1406.88 890.972,1406.88 890.972,863.544 894.934,863.544 898.896,863.544 902.858,863.544 906.82,863.544 910.781,863.544 914.743,863.544 918.705,863.544 922.667,863.544 926.629,863.544 930.59,863.544 930.59,1406.88 934.552,1406.88 938.514,1406.88 942.476,1406.88 946.438,1406.88 950.399,1406.88 954.361,1406.88 958.323,1406.88 962.285,1406.88 966.246,1406.88 970.208,1406.88 970.208,863.544 974.17,863.544 978.132,863.544 982.094,863.544 986.055,863.544 990.017,863.544 990.017,1406.88 993.979,1406.88 997.941,1406.88 1001.9,1406.88 1005.86,1406.88 1009.83,1406.88 1013.79,1406.88 1017.75,1406.88 1021.71,1406.88 1025.67,1406.88 1029.64,1406.88 1029.64,863.544 1033.6,863.544 1037.56,863.544 1041.52,863.544 1045.48,863.544 1049.44,863.544 1053.41,863.544 1057.37,863.544 1061.33,863.544 1065.29,863.544 1069.25,863.544 1073.21,863.544 1077.18,863.544 1081.14,863.544 1085.1,863.544 1089.06,863.544 1093.02,863.544 1096.99,863.544 1100.95,863.544 1104.91,863.544 1108.87,863.544 1112.83,863.544 1116.79,863.544 1120.76,863.544 1124.72,863.544 1128.68,863.544 1132.64,863.544 1136.6,863.544 1140.57,863.544 1144.53,863.544 1148.49,863.544 1152.45,863.544 1156.41,863.544 1160.37,863.544 1164.34,863.544 1168.3,863.544 1172.26,863.544 1176.22,863.544 1180.18,863.544 1184.15,863.544 1188.11,863.544 1188.11,1406.88 1192.07,1406.88 1196.03,1406.88 1199.99,1406.88 1203.95,1406.88 1207.92,1406.88 1207.92,863.544 1211.88,863.544 1215.84,863.544 1219.8,863.544 1223.76,863.544 1227.72,863.544 1231.69,863.544 1235.65,863.544 1239.61,863.544 1243.57,863.544 1247.53,863.544 1247.53,1406.88 1251.5,1406.88 1255.46,1406.88 1259.42,1406.88 1263.38,1406.88 1267.34,1406.88 1267.34,863.544 1271.3,863.544 1275.27,863.544 1279.23,863.544 1283.19,863.544 1287.15,863.544 1287.15,1406.88 1291.11,1406.88 1295.08,1406.88 1299.04,1406.88 1303,1406.88 1306.96,1406.88 1306.96,863.544 1310.92,863.544 1314.88,863.544 1318.85,863.544 1322.81,863.544 1326.77,863.544 1330.73,863.544 1334.69,863.544 1338.66,863.544 1342.62,863.544 1346.58,863.544 1346.58,1406.88 1350.54,1406.88 1354.5,1406.88 1358.46,1406.88 1362.43,1406.88 1366.39,1406.88 1370.35,1406.88 1374.31,1406.88 1378.27,1406.88 1382.23,1406.88 1386.2,1406.88 1386.2,863.544 1390.16,863.544 1394.12,863.544 1398.08,863.544 1402.04,863.544 1406.01,863.544 1406.01,1406.88 1409.97,1406.88 1413.93,1406.88 1417.89,1406.88 1421.85,1406.88 1425.81,1406.88 1429.78,1406.88 1433.74,1406.88 1437.7,1406.88 1441.66,1406.88 1445.62,1406.88 1449.59,1406.88 1453.55,1406.88 1457.51,1406.88 1461.47,1406.88 1465.43,1406.88 1469.39,1406.88 1473.36,1406.88 1477.32,1406.88 1481.28,1406.88 1485.24,1406.88 1485.24,863.544 1489.2,863.544 1493.17,863.544 1497.13,863.544 1501.09,863.544 1505.05,863.544 1505.05,1406.88 1509.01,1406.88 1512.97,1406.88 1516.94,1406.88 1520.9,1406.88 1524.86,1406.88 1524.86,863.544 1528.82,863.544 1532.78,863.544 1536.74,863.544 1540.71,863.544 1544.67,863.544 1548.63,863.544 1552.59,863.544 1556.55,863.544 1560.52,863.544 1564.48,863.544 1564.48,1406.88 1568.44,1406.88 1572.4,1406.88 1576.36,1406.88 1580.32,1406.88 1584.29,1406.88 1584.29,863.544 1588.25,863.544 1592.21,863.544 1596.17,863.544 1600.13,863.544 1604.1,863.544 1608.06,863.544 1612.02,863.544 1615.98,863.544 1619.94,863.544 1623.9,863.544 1627.87,863.544 1631.83,863.544 1635.79,863.544 1639.75,863.544 1643.71,863.544 1647.68,863.544 1651.64,863.544 1655.6,863.544 1659.56,863.544 1663.52,863.544 1667.48,863.544 1671.45,863.544 1675.41,863.544 1679.37,863.544 1683.33,863.544 1687.29,863.544 1691.25,863.544 1695.22,863.544 1699.18,863.544 1703.14,863.544 1707.1,863.544 1711.06,863.544 1715.03,863.544 1718.99,863.544 1722.95,863.544 1722.95,1406.88 1726.91,1406.88 1730.87,1406.88 1734.83,1406.88 1738.8,1406.88 1742.76,1406.88 1746.72,1406.88 1750.68,1406.88 1754.64,1406.88 1758.61,1406.88 1762.57,1406.88 1762.57,863.544 1766.53,863.544 1770.49,863.544 1774.45,863.544 1778.41,863.544 1782.38,863.544 1782.38,1406.88 1786.34,1406.88 1790.3,1406.88 1794.26,1406.88 1798.22,1406.88 1802.19,1406.88 1806.15,1406.88 1810.11,1406.88 1814.07,1406.88 1818.03,1406.88 1821.99,1406.88 1821.99,863.544 1825.96,863.544 1829.92,863.544 1833.88,863.544 1837.84,863.544 1841.8,863.544 1845.76,863.544 1849.73,863.544 1853.69,863.544 1857.65,863.544 1861.61,863.544 1861.61,1406.88 1865.57,1406.88 1869.54,1406.88 1873.5,1406.88 1877.46,1406.88 1881.42,1406.88 1885.38,1406.88 1889.34,1406.88 1893.31,1406.88 1897.27,1406.88 1901.23,1406.88 1905.19,1406.88 1909.15,1406.88 1913.12,1406.88 1917.08,1406.88 1921.04,1406.88 1921.04,863.544 1925,863.544 1928.96,863.544 1932.92,863.544 1936.89,863.544 1940.85,863.544 1944.81,863.544 1948.77,863.544 1952.73,863.544 1956.7,863.544 1960.66,863.544 1960.66,1406.88 1964.62,1406.88 1968.58,1406.88 1972.54,1406.88 1976.5,1406.88 1980.47,1406.88 1984.43,1406.88 1988.39,1406.88 1992.35,1406.88 1996.31,1406.88 2000.27,1406.88 2000.27,863.544 2004.24,863.544 2008.2,863.544 2012.16,863.544 2016.12,863.544 2020.08,863.544 2024.05,863.544 2028.01,863.544 2031.97,863.544 2035.93,863.544 2039.89,863.544 2039.89,1406.88 2043.85,1406.88 2047.82,1406.88 2051.78,1406.88 2055.74,1406.88 2059.7,1406.88 2059.7,863.544 2063.66,863.544 2067.63,863.544 2071.59,863.544 2075.55,863.544 2079.51,863.544 2079.51,1406.88 2083.47,1406.88 2087.43,1406.88 2091.4,1406.88 2095.36,1406.88 2099.32,1406.88 2099.32,863.544 2103.28,863.544 2107.24,863.544 2111.21,863.544 2115.17,863.544 2119.13,863.544 2119.13,1406.88 2123.09,1406.88 2127.05,1406.88 2131.01,1406.88 2134.98,1406.88 2138.94,1406.88 2142.9,1406.88 2146.86,1406.88 2150.82,1406.88 2154.79,1406.88 2158.75,1406.88 2158.75,863.544 2162.71,863.544 2166.67,863.544 2170.63,863.544 2174.59,863.544 2178.56,863.544 2178.56,1406.88 2182.52,1406.88 2186.48,1406.88 2190.44,1406.88 2194.4,1406.88 2198.36,1406.88 2202.33,1406.88 2206.29,1406.88 2210.25,1406.88 2214.21,1406.88 2218.17,1406.88 2218.17,863.544 2222.14,863.544 2226.1,863.544 2230.06,863.544 2234.02,863.544 2237.98,863.544 2241.94,863.544 2245.91,863.544 2249.87,863.544 2253.83,863.544 2257.79,863.544 2257.79,1406.88 2261.75,1406.88 2265.72,1406.88 2269.68,1406.88 2273.64,1406.88 2277.6,1406.88 2281.56,1406.88 2285.52,1406.88 2289.49,1406.88 2293.45,1406.88 "/>
</svg>
