<?xml version="1.0" encoding="utf-8"?>
<svg xmlns="http://www.w3.org/2000/svg" xmlns:xlink="http://www.w3.org/1999/xlink" width="600" height="400" viewBox="0 0 2400 1600">
<defs>
  <clipPath id="clip210">
    <rect x="0" y="0" width="2400" height="1600"/>
  </clipPath>
</defs>
<path clip-path="url(#clip210)" d="M0 1600 L2400 1600 L2400 0 L0 0  Z" fill="#ffffff" fill-rule="evenodd" fill-opacity="1"/>
<defs>
  <clipPath id="clip211">
    <rect x="480" y="0" width="1681" height="1600"/>
  </clipPath>
</defs>
<path clip-path="url(#clip210)" d="M282.894 1410.9 L2352.76 1410.9 L2352.76 123.472 L282.894 123.472  Z" fill="#ffffff" fill-rule="evenodd" fill-opacity="1"/>
<defs>
  <clipPath id="clip212">
    <rect x="282" y="123" width="2071" height="1288"/>
  </clipPath>
</defs>
<polyline clip-path="url(#clip212)" style="stroke:#000000; stroke-linecap:round; stroke-linejoin:round; stroke-width:2; stroke-opacity:0.1; fill:none" points="1022.46,1410.9 1022.46,123.472 "/>
<polyline clip-path="url(#clip212)" style="stroke:#000000; stroke-linecap:round; stroke-linejoin:round; stroke-width:2; stroke-opacity:0.1; fill:none" points="1871.88,1410.9 1871.88,123.472 "/>
<polyline clip-path="url(#clip212)" style="stroke:#000000; stroke-linecap:round; stroke-linejoin:round; stroke-width:2; stroke-opacity:0.1; fill:none" points="282.894,1110.74 2352.76,1110.74 "/>
<polyline clip-path="url(#clip212)" style="stroke:#000000; stroke-linecap:round; stroke-linejoin:round; stroke-width:2; stroke-opacity:0.1; fill:none" points="282.894,775.396 2352.76,775.396 "/>
<polyline clip-path="url(#clip212)" style="stroke:#000000; stroke-linecap:round; stroke-linejoin:round; stroke-width:2; stroke-opacity:0.1; fill:none" points="282.894,440.057 2352.76,440.057 "/>
<polyline clip-path="url(#clip210)" style="stroke:#000000; stroke-linecap:round; stroke-linejoin:round; stroke-width:4; stroke-opacity:1; fill:none" points="282.894,1410.9 2352.76,1410.9 "/>
<polyline clip-path="url(#clip210)" style="stroke:#000000; stroke-linecap:round; stroke-linejoin:round; stroke-width:4; stroke-opacity:1; fill:none" points="1022.46,1410.9 1022.46,1392 "/>
<polyline clip-path="url(#clip210)" style="stroke:#000000; stroke-linecap:round; stroke-linejoin:round; stroke-width:4; stroke-opacity:1; fill:none" points="1871.88,1410.9 1871.88,1392 "/>
<path clip-path="url(#clip210)" d="M972.576 1485.02 L980.215 1485.02 L980.215 1458.66 L971.905 1460.32 L971.905 1456.06 L980.168 1454.4 L984.844 1454.4 L984.844 1485.02 L992.483 1485.02 L992.483 1488.96 L972.576 1488.96 L972.576 1485.02 Z" fill="#000000" fill-rule="nonzero" fill-opacity="1" /><path clip-path="url(#clip210)" d="M1011.93 1457.48 Q1008.32 1457.48 1006.49 1461.04 Q1004.68 1464.58 1004.68 1471.71 Q1004.68 1478.82 1006.49 1482.38 Q1008.32 1485.92 1011.93 1485.92 Q1015.56 1485.92 1017.37 1482.38 Q1019.2 1478.82 1019.2 1471.71 Q1019.2 1464.58 1017.37 1461.04 Q1015.56 1457.48 1011.93 1457.48 M1011.93 1453.77 Q1017.74 1453.77 1020.79 1458.38 Q1023.87 1462.96 1023.87 1471.71 Q1023.87 1480.44 1020.79 1485.04 Q1017.74 1489.63 1011.93 1489.63 Q1006.12 1489.63 1003.04 1485.04 Q999.983 1480.44 999.983 1471.71 Q999.983 1462.96 1003.04 1458.38 Q1006.12 1453.77 1011.93 1453.77 Z" fill="#000000" fill-rule="nonzero" fill-opacity="1" /><path clip-path="url(#clip210)" d="M1023.87 1447.87 L1047.98 1447.87 L1047.98 1451.07 L1023.87 1451.07 L1023.87 1447.87 Z" fill="#000000" fill-rule="nonzero" fill-opacity="1" /><path clip-path="url(#clip210)" d="M1056.84 1458.35 L1063.05 1458.35 L1063.05 1436.93 L1056.3 1438.28 L1056.3 1434.82 L1063.01 1433.47 L1066.81 1433.47 L1066.81 1458.35 L1073.02 1458.35 L1073.02 1461.55 L1056.84 1461.55 L1056.84 1458.35 Z" fill="#000000" fill-rule="nonzero" fill-opacity="1" /><path clip-path="url(#clip210)" d="M1836.87 1485.02 L1844.51 1485.02 L1844.51 1458.66 L1836.2 1460.32 L1836.2 1456.06 L1844.46 1454.4 L1849.14 1454.4 L1849.14 1485.02 L1856.77 1485.02 L1856.77 1488.96 L1836.87 1488.96 L1836.87 1485.02 Z" fill="#000000" fill-rule="nonzero" fill-opacity="1" /><path clip-path="url(#clip210)" d="M1876.22 1457.48 Q1872.61 1457.48 1870.78 1461.04 Q1868.97 1464.58 1868.97 1471.71 Q1868.97 1478.82 1870.78 1482.38 Q1872.61 1485.92 1876.22 1485.92 Q1879.85 1485.92 1881.66 1482.38 Q1883.49 1478.82 1883.49 1471.71 Q1883.49 1464.58 1881.66 1461.04 Q1879.85 1457.48 1876.22 1457.48 M1876.22 1453.77 Q1882.03 1453.77 1885.08 1458.38 Q1888.16 1462.96 1888.16 1471.71 Q1888.16 1480.44 1885.08 1485.04 Q1882.03 1489.63 1876.22 1489.63 Q1870.41 1489.63 1867.33 1485.04 Q1864.27 1480.44 1864.27 1471.71 Q1864.27 1462.96 1867.33 1458.38 Q1870.41 1453.77 1876.22 1453.77 Z" fill="#000000" fill-rule="nonzero" fill-opacity="1" /><path clip-path="url(#clip210)" d="M1897.87 1435.97 Q1894.93 1435.97 1893.45 1438.86 Q1891.98 1441.74 1891.98 1447.53 Q1891.98 1453.31 1893.45 1456.2 Q1894.93 1459.08 1897.87 1459.08 Q1900.82 1459.08 1902.29 1456.2 Q1903.77 1453.31 1903.77 1447.53 Q1903.77 1441.74 1902.29 1438.86 Q1900.82 1435.97 1897.87 1435.97 M1897.87 1432.96 Q1902.59 1432.96 1905.07 1436.7 Q1907.57 1440.43 1907.57 1447.53 Q1907.57 1454.62 1905.07 1458.37 Q1902.59 1462.09 1897.87 1462.09 Q1893.15 1462.09 1890.65 1458.37 Q1888.16 1454.62 1888.16 1447.53 Q1888.16 1440.43 1890.65 1436.7 Q1893.15 1432.96 1897.87 1432.96 Z" fill="#000000" fill-rule="nonzero" fill-opacity="1" /><path clip-path="url(#clip210)" d="M1037.64 1526.67 L1064.95 1526.67 L1064.95 1532.08 L1044.07 1532.08 L1044.07 1546.08 L1062.91 1546.08 L1062.91 1551.49 L1044.07 1551.49 L1044.07 1574.19 L1037.64 1574.19 L1037.64 1526.67 Z" fill="#000000" fill-rule="nonzero" fill-opacity="1" /><path clip-path="url(#clip210)" d="M1090.79 1544.01 Q1089.81 1543.44 1088.63 1543.18 Q1087.48 1542.9 1086.08 1542.9 Q1081.12 1542.9 1078.44 1546.14 Q1075.8 1549.36 1075.8 1555.41 L1075.8 1574.19 L1069.91 1574.19 L1069.91 1538.54 L1075.8 1538.54 L1075.8 1544.08 Q1077.65 1540.83 1080.61 1539.27 Q1083.57 1537.68 1087.8 1537.68 Q1088.4 1537.68 1089.14 1537.77 Q1089.87 1537.84 1090.76 1538 L1090.79 1544.01 Z" fill="#000000" fill-rule="nonzero" fill-opacity="1" /><path clip-path="url(#clip210)" d="M1125.99 1554.9 L1125.99 1557.76 L1099.07 1557.76 Q1099.45 1563.81 1102.7 1566.99 Q1105.97 1570.14 1111.8 1570.14 Q1115.17 1570.14 1118.32 1569.32 Q1121.51 1568.49 1124.63 1566.83 L1124.63 1572.37 Q1121.47 1573.71 1118.16 1574.41 Q1114.85 1575.11 1111.45 1575.11 Q1102.92 1575.11 1097.92 1570.14 Q1092.96 1565.18 1092.96 1556.71 Q1092.96 1547.96 1097.67 1542.83 Q1102.41 1537.68 1110.43 1537.68 Q1117.62 1537.68 1121.79 1542.33 Q1125.99 1546.94 1125.99 1554.9 M1120.14 1553.18 Q1120.07 1548.37 1117.43 1545.51 Q1114.82 1542.64 1110.49 1542.64 Q1105.59 1542.64 1102.63 1545.41 Q1099.7 1548.18 1099.26 1553.21 L1120.14 1553.18 Z" fill="#000000" fill-rule="nonzero" fill-opacity="1" /><path clip-path="url(#clip210)" d="M1139.11 1556.39 Q1139.11 1562.85 1141.75 1566.55 Q1144.42 1570.21 1149.07 1570.21 Q1153.72 1570.21 1156.39 1566.55 Q1159.06 1562.85 1159.06 1556.39 Q1159.06 1549.93 1156.39 1546.27 Q1153.72 1542.58 1149.07 1542.58 Q1144.42 1542.58 1141.75 1546.27 Q1139.11 1549.93 1139.11 1556.39 M1159.06 1568.84 Q1157.22 1572.02 1154.39 1573.58 Q1151.58 1575.11 1147.64 1575.11 Q1141.18 1575.11 1137.1 1569.95 Q1133.06 1564.8 1133.06 1556.39 Q1133.06 1547.99 1137.1 1542.83 Q1141.18 1537.68 1147.64 1537.68 Q1151.58 1537.68 1154.39 1539.24 Q1157.22 1540.77 1159.06 1543.95 L1159.06 1538.54 L1164.92 1538.54 L1164.92 1587.74 L1159.06 1587.74 L1159.06 1568.84 Z" fill="#000000" fill-rule="nonzero" fill-opacity="1" /><path clip-path="url(#clip210)" d="M1176.38 1560.12 L1176.38 1538.54 L1182.24 1538.54 L1182.24 1559.89 Q1182.24 1564.96 1184.21 1567.5 Q1186.18 1570.02 1190.13 1570.02 Q1194.87 1570.02 1197.61 1566.99 Q1200.38 1563.97 1200.38 1558.75 L1200.38 1538.54 L1206.23 1538.54 L1206.23 1574.19 L1200.38 1574.19 L1200.38 1568.71 Q1198.25 1571.96 1195.41 1573.55 Q1192.61 1575.11 1188.89 1575.11 Q1182.74 1575.11 1179.56 1571.29 Q1176.38 1567.47 1176.38 1560.12 M1191.12 1537.68 L1191.12 1537.68 Z" fill="#000000" fill-rule="nonzero" fill-opacity="1" /><path clip-path="url(#clip210)" d="M1248.79 1554.9 L1248.79 1557.76 L1221.86 1557.76 Q1222.24 1563.81 1225.49 1566.99 Q1228.77 1570.14 1234.59 1570.14 Q1237.97 1570.14 1241.12 1569.32 Q1244.3 1568.49 1247.42 1566.83 L1247.42 1572.37 Q1244.27 1573.71 1240.96 1574.41 Q1237.65 1575.11 1234.24 1575.11 Q1225.71 1575.11 1220.72 1570.14 Q1215.75 1565.18 1215.75 1556.71 Q1215.75 1547.96 1220.46 1542.83 Q1225.2 1537.68 1233.22 1537.68 Q1240.42 1537.68 1244.59 1542.33 Q1248.79 1546.94 1248.79 1554.9 M1242.93 1553.18 Q1242.87 1548.37 1240.23 1545.51 Q1237.62 1542.64 1233.29 1542.64 Q1228.39 1542.64 1225.43 1545.41 Q1222.5 1548.18 1222.05 1553.21 L1242.93 1553.18 Z" fill="#000000" fill-rule="nonzero" fill-opacity="1" /><path clip-path="url(#clip210)" d="M1288.03 1552.67 L1288.03 1574.19 L1282.18 1574.19 L1282.18 1552.86 Q1282.18 1547.8 1280.2 1545.29 Q1278.23 1542.77 1274.28 1542.77 Q1269.54 1542.77 1266.8 1545.79 Q1264.07 1548.82 1264.07 1554.04 L1264.07 1574.19 L1258.18 1574.19 L1258.18 1538.54 L1264.07 1538.54 L1264.07 1544.08 Q1266.17 1540.86 1269 1539.27 Q1271.86 1537.68 1275.59 1537.68 Q1281.73 1537.68 1284.88 1541.5 Q1288.03 1545.29 1288.03 1552.67 Z" fill="#000000" fill-rule="nonzero" fill-opacity="1" /><path clip-path="url(#clip210)" d="M1325.37 1539.91 L1325.37 1545.38 Q1322.89 1544.01 1320.37 1543.34 Q1317.89 1542.64 1315.34 1542.64 Q1309.65 1542.64 1306.49 1546.27 Q1303.34 1549.87 1303.34 1556.39 Q1303.34 1562.92 1306.49 1566.55 Q1309.65 1570.14 1315.34 1570.14 Q1317.89 1570.14 1320.37 1569.47 Q1322.89 1568.77 1325.37 1567.41 L1325.37 1572.82 Q1322.92 1573.96 1320.28 1574.54 Q1317.67 1575.11 1314.71 1575.11 Q1306.65 1575.11 1301.91 1570.05 Q1297.17 1564.99 1297.17 1556.39 Q1297.17 1547.67 1301.94 1542.68 Q1306.75 1537.68 1315.09 1537.68 Q1317.79 1537.68 1320.37 1538.25 Q1322.95 1538.79 1325.37 1539.91 Z" fill="#000000" fill-rule="nonzero" fill-opacity="1" /><path clip-path="url(#clip210)" d="M1350.39 1577.5 Q1347.9 1583.86 1345.55 1585.8 Q1343.19 1587.74 1339.25 1587.74 L1334.57 1587.74 L1334.57 1582.84 L1338 1582.84 Q1340.42 1582.84 1341.76 1581.7 Q1343.1 1580.55 1344.72 1576.29 L1345.77 1573.61 L1331.35 1538.54 L1337.56 1538.54 L1348.7 1566.42 L1359.84 1538.54 L1366.05 1538.54 L1350.39 1577.5 Z" fill="#000000" fill-rule="nonzero" fill-opacity="1" /><path clip-path="url(#clip210)" d="M1394.31 1524.66 L1407.8 1524.66 L1407.8 1529.21 L1400.17 1529.21 L1400.17 1578.23 L1407.8 1578.23 L1407.8 1582.78 L1394.31 1582.78 L1394.31 1524.66 Z" fill="#000000" fill-rule="nonzero" fill-opacity="1" /><path clip-path="url(#clip210)" d="M1440.94 1544.01 Q1439.95 1543.44 1438.77 1543.18 Q1437.63 1542.9 1436.23 1542.9 Q1431.26 1542.9 1428.59 1546.14 Q1425.95 1549.36 1425.95 1555.41 L1425.95 1574.19 L1420.06 1574.19 L1420.06 1538.54 L1425.95 1538.54 L1425.95 1544.08 Q1427.79 1540.83 1430.75 1539.27 Q1433.71 1537.68 1437.95 1537.68 Q1438.55 1537.68 1439.28 1537.77 Q1440.01 1537.84 1440.91 1538 L1440.94 1544.01 Z" fill="#000000" fill-rule="nonzero" fill-opacity="1" /><path clip-path="url(#clip210)" d="M1463.28 1556.27 Q1456.18 1556.27 1453.45 1557.89 Q1450.71 1559.51 1450.71 1563.43 Q1450.71 1566.55 1452.75 1568.39 Q1454.81 1570.21 1458.35 1570.21 Q1463.22 1570.21 1466.15 1566.77 Q1469.11 1563.3 1469.11 1557.57 L1469.11 1556.27 L1463.28 1556.27 M1474.96 1553.85 L1474.96 1574.19 L1469.11 1574.19 L1469.11 1568.77 Q1467.1 1572.02 1464.11 1573.58 Q1461.12 1575.11 1456.79 1575.11 Q1451.31 1575.11 1448.07 1572.05 Q1444.85 1568.97 1444.85 1563.81 Q1444.85 1557.79 1448.86 1554.74 Q1452.91 1551.68 1460.89 1551.68 L1469.11 1551.68 L1469.11 1551.11 Q1469.11 1547.07 1466.43 1544.87 Q1463.79 1542.64 1458.98 1542.64 Q1455.93 1542.64 1453.03 1543.38 Q1450.14 1544.11 1447.46 1545.57 L1447.46 1540.16 Q1450.68 1538.92 1453.7 1538.31 Q1456.72 1537.68 1459.59 1537.68 Q1467.32 1537.68 1471.14 1541.69 Q1474.96 1545.7 1474.96 1553.85 Z" fill="#000000" fill-rule="nonzero" fill-opacity="1" /><path clip-path="url(#clip210)" d="M1510.48 1543.95 L1510.48 1524.66 L1516.34 1524.66 L1516.34 1574.19 L1510.48 1574.19 L1510.48 1568.84 Q1508.64 1572.02 1505.8 1573.58 Q1503 1575.11 1499.06 1575.11 Q1492.6 1575.11 1488.52 1569.95 Q1484.48 1564.8 1484.48 1556.39 Q1484.48 1547.99 1488.52 1542.83 Q1492.6 1537.68 1499.06 1537.68 Q1503 1537.68 1505.8 1539.24 Q1508.64 1540.77 1510.48 1543.95 M1490.53 1556.39 Q1490.53 1562.85 1493.17 1566.55 Q1495.84 1570.21 1500.49 1570.21 Q1505.14 1570.21 1507.81 1566.55 Q1510.48 1562.85 1510.48 1556.39 Q1510.48 1549.93 1507.81 1546.27 Q1505.14 1542.58 1500.49 1542.58 Q1495.84 1542.58 1493.17 1546.27 Q1490.53 1549.93 1490.53 1556.39 Z" fill="#000000" fill-rule="nonzero" fill-opacity="1" /><path clip-path="url(#clip210)" d="M1538.81 1526.67 L1544.22 1526.67 L1527.67 1580.23 L1522.26 1580.23 L1538.81 1526.67 Z" fill="#000000" fill-rule="nonzero" fill-opacity="1" /><path clip-path="url(#clip210)" d="M1573.09 1539.59 L1573.09 1545.13 Q1570.61 1543.85 1567.93 1543.22 Q1565.26 1542.58 1562.4 1542.58 Q1558.03 1542.58 1555.84 1543.92 Q1553.67 1545.25 1553.67 1547.93 Q1553.67 1549.96 1555.23 1551.14 Q1556.79 1552.29 1561.5 1553.34 L1563.51 1553.78 Q1569.75 1555.12 1572.36 1557.57 Q1575 1559.99 1575 1564.35 Q1575 1569.32 1571.05 1572.21 Q1567.14 1575.11 1560.26 1575.11 Q1557.4 1575.11 1554.28 1574.54 Q1551.19 1573.99 1547.75 1572.88 L1547.75 1566.83 Q1551 1568.52 1554.15 1569.38 Q1557.3 1570.21 1560.39 1570.21 Q1564.53 1570.21 1566.76 1568.81 Q1568.98 1567.37 1568.98 1564.8 Q1568.98 1562.41 1567.36 1561.14 Q1565.77 1559.86 1560.33 1558.68 L1558.29 1558.21 Q1552.85 1557.06 1550.43 1554.71 Q1548.01 1552.32 1548.01 1548.18 Q1548.01 1543.15 1551.57 1540.42 Q1555.14 1537.68 1561.7 1537.68 Q1564.94 1537.68 1567.81 1538.16 Q1570.67 1538.63 1573.09 1539.59 Z" fill="#000000" fill-rule="nonzero" fill-opacity="1" /><path clip-path="url(#clip210)" d="M1598.01 1524.66 L1598.01 1582.78 L1584.52 1582.78 L1584.52 1578.23 L1592.12 1578.23 L1592.12 1529.21 L1584.52 1529.21 L1584.52 1524.66 L1598.01 1524.66 Z" fill="#000000" fill-rule="nonzero" fill-opacity="1" /><polyline clip-path="url(#clip210)" style="stroke:#000000; stroke-linecap:round; stroke-linejoin:round; stroke-width:4; stroke-opacity:1; fill:none" points="282.894,1410.9 282.894,123.472 "/>
<polyline clip-path="url(#clip210)" style="stroke:#000000; stroke-linecap:round; stroke-linejoin:round; stroke-width:4; stroke-opacity:1; fill:none" points="282.894,1110.74 301.792,1110.74 "/>
<polyline clip-path="url(#clip210)" style="stroke:#000000; stroke-linecap:round; stroke-linejoin:round; stroke-width:4; stroke-opacity:1; fill:none" points="282.894,775.396 301.792,775.396 "/>
<polyline clip-path="url(#clip210)" style="stroke:#000000; stroke-linecap:round; stroke-linejoin:round; stroke-width:4; stroke-opacity:1; fill:none" points="282.894,440.057 301.792,440.057 "/>
<path clip-path="url(#clip210)" d="M115.74 1130.53 L123.379 1130.53 L123.379 1104.16 L115.069 1105.83 L115.069 1101.57 L123.333 1099.9 L128.009 1099.9 L128.009 1130.53 L135.647 1130.53 L135.647 1134.46 L115.74 1134.46 L115.74 1130.53 Z" fill="#000000" fill-rule="nonzero" fill-opacity="1" /><path clip-path="url(#clip210)" d="M155.092 1102.98 Q151.481 1102.98 149.652 1106.55 Q147.846 1110.09 147.846 1117.22 Q147.846 1124.32 149.652 1127.89 Q151.481 1131.43 155.092 1131.43 Q158.726 1131.43 160.532 1127.89 Q162.36 1124.32 162.36 1117.22 Q162.36 1110.09 160.532 1106.55 Q158.726 1102.98 155.092 1102.98 M155.092 1099.28 Q160.902 1099.28 163.958 1103.88 Q167.036 1108.47 167.036 1117.22 Q167.036 1125.94 163.958 1130.55 Q160.902 1135.13 155.092 1135.13 Q149.282 1135.13 146.203 1130.55 Q143.147 1125.94 143.147 1117.22 Q143.147 1108.47 146.203 1103.88 Q149.282 1099.28 155.092 1099.28 Z" fill="#000000" fill-rule="nonzero" fill-opacity="1" /><path clip-path="url(#clip210)" d="M176.741 1081.47 Q173.807 1081.47 172.321 1084.37 Q170.854 1087.25 170.854 1093.04 Q170.854 1098.81 172.321 1101.71 Q173.807 1104.59 176.741 1104.59 Q179.694 1104.59 181.161 1101.71 Q182.647 1098.81 182.647 1093.04 Q182.647 1087.25 181.161 1084.37 Q179.694 1081.47 176.741 1081.47 M176.741 1078.46 Q181.462 1078.46 183.944 1082.21 Q186.446 1085.93 186.446 1093.04 Q186.446 1100.13 183.944 1103.87 Q181.462 1107.6 176.741 1107.6 Q172.02 1107.6 169.519 1103.87 Q167.036 1100.13 167.036 1093.04 Q167.036 1085.93 169.519 1082.21 Q172.02 1078.46 176.741 1078.46 Z" fill="#000000" fill-rule="nonzero" fill-opacity="1" /><path clip-path="url(#clip210)" d="M193.123 1102.28 L197.091 1102.28 L197.091 1107.05 L193.123 1107.05 L193.123 1102.28 Z" fill="#000000" fill-rule="nonzero" fill-opacity="1" /><path clip-path="url(#clip210)" d="M208.639 1103.85 L221.898 1103.85 L221.898 1107.05 L204.069 1107.05 L204.069 1103.85 Q206.232 1101.62 209.956 1097.86 Q213.698 1094.07 214.657 1092.98 Q216.482 1090.93 217.197 1089.52 Q217.93 1088.09 217.93 1086.72 Q217.93 1084.48 216.35 1083.07 Q214.789 1081.66 212.269 1081.66 Q210.482 1081.66 208.489 1082.28 Q206.514 1082.9 204.257 1084.16 L204.257 1080.33 Q206.551 1079.4 208.545 1078.93 Q210.539 1078.46 212.194 1078.46 Q216.557 1078.46 219.153 1080.65 Q221.748 1082.83 221.748 1086.48 Q221.748 1088.21 221.09 1089.77 Q220.45 1091.31 218.739 1093.42 Q218.269 1093.96 215.748 1096.58 Q213.228 1099.17 208.639 1103.85 Z" fill="#000000" fill-rule="nonzero" fill-opacity="1" /><path clip-path="url(#clip210)" d="M229.911 1078.97 L244.825 1078.97 L244.825 1082.17 L233.39 1082.17 L233.39 1089.05 Q234.218 1088.77 235.045 1088.64 Q235.873 1088.49 236.7 1088.49 Q241.402 1088.49 244.148 1091.07 Q246.894 1093.64 246.894 1098.04 Q246.894 1102.58 244.073 1105.1 Q241.252 1107.6 236.117 1107.6 Q234.349 1107.6 232.506 1107.3 Q230.682 1107 228.726 1106.39 L228.726 1102.58 Q230.418 1103.5 232.224 1103.95 Q234.029 1104.4 236.042 1104.4 Q239.296 1104.4 241.195 1102.69 Q243.095 1100.98 243.095 1098.04 Q243.095 1095.11 241.195 1093.4 Q239.296 1091.69 236.042 1091.69 Q234.518 1091.69 232.995 1092.02 Q231.49 1092.36 229.911 1093.08 L229.911 1078.97 Z" fill="#000000" fill-rule="nonzero" fill-opacity="1" /><path clip-path="url(#clip210)" d="M114.931 795.189 L122.57 795.189 L122.57 768.823 L114.26 770.49 L114.26 766.23 L122.524 764.564 L127.2 764.564 L127.2 795.189 L134.839 795.189 L134.839 799.124 L114.931 799.124 L114.931 795.189 Z" fill="#000000" fill-rule="nonzero" fill-opacity="1" /><path clip-path="url(#clip210)" d="M154.283 767.642 Q150.672 767.642 148.843 771.207 Q147.038 774.749 147.038 781.878 Q147.038 788.985 148.843 792.55 Q150.672 796.091 154.283 796.091 Q157.917 796.091 159.723 792.55 Q161.552 788.985 161.552 781.878 Q161.552 774.749 159.723 771.207 Q157.917 767.642 154.283 767.642 M154.283 763.939 Q160.093 763.939 163.149 768.545 Q166.227 773.129 166.227 781.878 Q166.227 790.605 163.149 795.212 Q160.093 799.795 154.283 799.795 Q148.473 799.795 145.394 795.212 Q142.339 790.605 142.339 781.878 Q142.339 773.129 145.394 768.545 Q148.473 763.939 154.283 763.939 Z" fill="#000000" fill-rule="nonzero" fill-opacity="1" /><path clip-path="url(#clip210)" d="M175.932 746.135 Q172.998 746.135 171.512 749.031 Q170.045 751.909 170.045 757.702 Q170.045 763.476 171.512 766.372 Q172.998 769.25 175.932 769.25 Q178.885 769.25 180.352 766.372 Q181.838 763.476 181.838 757.702 Q181.838 751.909 180.352 749.031 Q178.885 746.135 175.932 746.135 M175.932 743.126 Q180.653 743.126 183.136 746.868 Q185.637 750.592 185.637 757.702 Q185.637 764.792 183.136 768.535 Q180.653 772.259 175.932 772.259 Q171.212 772.259 168.71 768.535 Q166.227 764.792 166.227 757.702 Q166.227 750.592 168.71 746.868 Q171.212 743.126 175.932 743.126 Z" fill="#000000" fill-rule="nonzero" fill-opacity="1" /><path clip-path="url(#clip210)" d="M192.314 766.936 L196.282 766.936 L196.282 771.713 L192.314 771.713 L192.314 766.936 Z" fill="#000000" fill-rule="nonzero" fill-opacity="1" /><path clip-path="url(#clip210)" d="M204.595 743.633 L219.51 743.633 L219.51 746.831 L208.075 746.831 L208.075 753.714 Q208.902 753.432 209.73 753.301 Q210.557 753.15 211.385 753.15 Q216.087 753.15 218.833 755.727 Q221.579 758.303 221.579 762.704 Q221.579 767.237 218.758 769.757 Q215.936 772.259 210.802 772.259 Q209.034 772.259 207.191 771.958 Q205.366 771.657 203.41 771.055 L203.41 767.237 Q205.103 768.159 206.909 768.61 Q208.714 769.061 210.727 769.061 Q213.98 769.061 215.88 767.35 Q217.78 765.638 217.78 762.704 Q217.78 759.77 215.88 758.059 Q213.98 756.347 210.727 756.347 Q209.203 756.347 207.68 756.686 Q206.175 757.024 204.595 757.739 L204.595 743.633 Z" fill="#000000" fill-rule="nonzero" fill-opacity="1" /><path clip-path="url(#clip210)" d="M237.189 746.135 Q234.255 746.135 232.769 749.031 Q231.302 751.909 231.302 757.702 Q231.302 763.476 232.769 766.372 Q234.255 769.25 237.189 769.25 Q240.142 769.25 241.609 766.372 Q243.095 763.476 243.095 757.702 Q243.095 751.909 241.609 749.031 Q240.142 746.135 237.189 746.135 M237.189 743.126 Q241.91 743.126 244.393 746.868 Q246.894 750.592 246.894 757.702 Q246.894 764.792 244.393 768.535 Q241.91 772.259 237.189 772.259 Q232.468 772.259 229.967 768.535 Q227.484 764.792 227.484 757.702 Q227.484 750.592 229.967 746.868 Q232.468 743.126 237.189 743.126 Z" fill="#000000" fill-rule="nonzero" fill-opacity="1" /><path clip-path="url(#clip210)" d="M115.74 459.85 L123.379 459.85 L123.379 433.484 L115.069 435.151 L115.069 430.891 L123.333 429.225 L128.009 429.225 L128.009 459.85 L135.647 459.85 L135.647 463.785 L115.74 463.785 L115.74 459.85 Z" fill="#000000" fill-rule="nonzero" fill-opacity="1" /><path clip-path="url(#clip210)" d="M155.092 432.304 Q151.481 432.304 149.652 435.868 Q147.846 439.41 147.846 446.54 Q147.846 453.646 149.652 457.211 Q151.481 460.752 155.092 460.752 Q158.726 460.752 160.532 457.211 Q162.36 453.646 162.36 446.54 Q162.36 439.41 160.532 435.868 Q158.726 432.304 155.092 432.304 M155.092 428.6 Q160.902 428.6 163.958 433.206 Q167.036 437.79 167.036 446.54 Q167.036 455.266 163.958 459.873 Q160.902 464.456 155.092 464.456 Q149.282 464.456 146.203 459.873 Q143.147 455.266 143.147 446.54 Q143.147 437.79 146.203 433.206 Q149.282 428.6 155.092 428.6 Z" fill="#000000" fill-rule="nonzero" fill-opacity="1" /><path clip-path="url(#clip210)" d="M176.741 410.796 Q173.807 410.796 172.321 413.692 Q170.854 416.57 170.854 422.363 Q170.854 428.137 172.321 431.033 Q173.807 433.911 176.741 433.911 Q179.694 433.911 181.161 431.033 Q182.647 428.137 182.647 422.363 Q182.647 416.57 181.161 413.692 Q179.694 410.796 176.741 410.796 M176.741 407.787 Q181.462 407.787 183.944 411.529 Q186.446 415.253 186.446 422.363 Q186.446 429.453 183.944 433.196 Q181.462 436.92 176.741 436.92 Q172.02 436.92 169.519 433.196 Q167.036 429.453 167.036 422.363 Q167.036 415.253 169.519 411.529 Q172.02 407.787 176.741 407.787 Z" fill="#000000" fill-rule="nonzero" fill-opacity="1" /><path clip-path="url(#clip210)" d="M193.123 431.597 L197.091 431.597 L197.091 436.374 L193.123 436.374 L193.123 431.597 Z" fill="#000000" fill-rule="nonzero" fill-opacity="1" /><path clip-path="url(#clip210)" d="M204.407 408.294 L222.463 408.294 L222.463 409.912 L212.269 436.374 L208.3 436.374 L217.892 411.492 L204.407 411.492 L204.407 408.294 Z" fill="#000000" fill-rule="nonzero" fill-opacity="1" /><path clip-path="url(#clip210)" d="M229.911 408.294 L244.825 408.294 L244.825 411.492 L233.39 411.492 L233.39 418.375 Q234.218 418.093 235.045 417.962 Q235.873 417.811 236.7 417.811 Q241.402 417.811 244.148 420.388 Q246.894 422.964 246.894 427.366 Q246.894 431.898 244.073 434.418 Q241.252 436.92 236.117 436.92 Q234.349 436.92 232.506 436.619 Q230.682 436.318 228.726 435.716 L228.726 431.898 Q230.418 432.82 232.224 433.271 Q234.029 433.723 236.042 433.723 Q239.296 433.723 241.195 432.011 Q243.095 430.3 243.095 427.366 Q243.095 424.431 241.195 422.72 Q239.296 421.008 236.042 421.008 Q234.518 421.008 232.995 421.347 Q231.49 421.686 229.911 422.4 L229.911 408.294 Z" fill="#000000" fill-rule="nonzero" fill-opacity="1" /><path clip-path="url(#clip210)" d="M18.0438 995.825 L24.314 995.825 Q22.5634 999.485 21.704 1002.73 Q20.8447 1005.98 20.8447 1009 Q20.8447 1014.25 22.8817 1017.12 Q24.9187 1019.95 28.6745 1019.95 Q31.8255 1019.95 33.4488 1018.07 Q35.0402 1016.16 36.0269 1010.88 L36.8226 1007 Q38.1912 999.803 41.6605 996.398 Q45.098 992.96 50.8908 992.96 Q57.7976 992.96 61.3624 997.607 Q64.9272 1002.22 64.9272 1011.17 Q64.9272 1014.54 64.1633 1018.36 Q63.3994 1022.15 61.9035 1026.22 L55.2831 1026.22 Q57.4793 1022.31 58.5933 1018.55 Q59.7073 1014.79 59.7073 1011.17 Q59.7073 1005.66 57.543 1002.67 Q55.3786 999.676 51.3682 999.676 Q47.8671 999.676 45.8937 1001.84 Q43.9204 1003.97 42.9337 1008.87 L42.1698 1012.79 Q40.7375 1019.98 37.682 1023.2 Q34.6264 1026.41 29.1837 1026.41 Q22.8817 1026.41 19.2532 1021.99 Q15.6248 1017.53 15.6248 1009.73 Q15.6248 1006.39 16.2295 1002.92 Q16.8343 999.453 18.0438 995.825 Z" fill="#000000" fill-rule="nonzero" fill-opacity="1" /><path clip-path="url(#clip210)" d="M28.3562 983.189 L28.3562 977.332 L64.0042 977.332 L64.0042 983.189 L28.3562 983.189 M14.479 983.189 L14.479 977.332 L21.895 977.332 L21.895 983.189 L14.479 983.189 Z" fill="#000000" fill-rule="nonzero" fill-opacity="1" /><path clip-path="url(#clip210)" d="M42.4881 935.446 L64.0042 935.446 L64.0042 941.302 L42.679 941.302 Q37.6183 941.302 35.1038 943.276 Q32.5894 945.249 32.5894 949.196 Q32.5894 953.938 35.6131 956.676 Q38.6368 959.413 43.8567 959.413 L64.0042 959.413 L64.0042 965.301 L28.3562 965.301 L28.3562 959.413 L33.8944 959.413 Q30.6797 957.312 29.0883 954.479 Q27.4968 951.615 27.4968 947.891 Q27.4968 941.748 31.3163 938.597 Q35.1038 935.446 42.4881 935.446 Z" fill="#000000" fill-rule="nonzero" fill-opacity="1" /><path clip-path="url(#clip210)" d="M45.7664 900.307 Q39.4007 900.307 35.8996 902.949 Q32.3984 905.559 32.3984 910.301 Q32.3984 915.012 35.8996 917.654 Q39.4007 920.264 45.7664 920.264 Q52.1003 920.264 55.6014 917.654 Q59.1026 915.012 59.1026 910.301 Q59.1026 905.559 55.6014 902.949 Q52.1003 900.307 45.7664 900.307 M59.58 894.451 Q68.683 894.451 73.1071 898.493 Q77.5631 902.535 77.5631 910.874 Q77.5631 913.962 77.0857 916.699 Q76.6401 919.436 75.6852 922.014 L69.9879 922.014 Q71.3884 919.436 72.0568 916.922 Q72.7252 914.407 72.7252 911.797 Q72.7252 906.036 69.7015 903.172 Q66.7096 900.307 60.6303 900.307 L57.7339 900.307 Q60.885 902.121 62.4446 904.954 Q64.0042 907.787 64.0042 911.734 Q64.0042 918.29 59.0071 922.301 Q54.01 926.311 45.7664 926.311 Q37.491 926.311 32.4939 922.301 Q27.4968 918.29 27.4968 911.734 Q27.4968 907.787 29.0564 904.954 Q30.616 902.121 33.7671 900.307 L28.3562 900.307 L28.3562 894.451 L59.58 894.451 Z" fill="#000000" fill-rule="nonzero" fill-opacity="1" /><path clip-path="url(#clip210)" d="M49.9359 882.993 L28.3562 882.993 L28.3562 877.136 L49.7131 877.136 Q54.7739 877.136 57.3202 875.163 Q59.8346 873.189 59.8346 869.243 Q59.8346 864.5 56.8109 861.763 Q53.7872 858.994 48.5673 858.994 L28.3562 858.994 L28.3562 853.137 L64.0042 853.137 L64.0042 858.994 L58.5296 858.994 Q61.7762 861.126 63.3676 863.959 Q64.9272 866.76 64.9272 870.484 Q64.9272 876.627 61.1078 879.81 Q57.2883 882.993 49.9359 882.993 M27.4968 868.256 L27.4968 868.256 Z" fill="#000000" fill-rule="nonzero" fill-opacity="1" /><path clip-path="url(#clip210)" d="M14.479 841.074 L14.479 835.218 L64.0042 835.218 L64.0042 841.074 L14.479 841.074 Z" fill="#000000" fill-rule="nonzero" fill-opacity="1" /><path clip-path="url(#clip210)" d="M46.0847 806.763 Q46.0847 813.861 47.7079 816.598 Q49.3312 819.335 53.2461 819.335 Q56.3653 819.335 58.2114 817.298 Q60.0256 815.23 60.0256 811.697 Q60.0256 806.827 56.5881 803.899 Q53.1188 800.939 47.3897 800.939 L46.0847 800.939 L46.0847 806.763 M43.6657 795.082 L64.0042 795.082 L64.0042 800.939 L58.5933 800.939 Q61.8398 802.944 63.3994 805.936 Q64.9272 808.928 64.9272 813.256 Q64.9272 818.731 61.8716 821.977 Q58.7843 825.192 53.6281 825.192 Q47.6125 825.192 44.5569 821.181 Q41.5014 817.139 41.5014 809.15 L41.5014 800.939 L40.9285 800.939 Q36.8862 800.939 34.6901 803.612 Q32.4621 806.254 32.4621 811.06 Q32.4621 814.116 33.1941 817.012 Q33.9262 819.908 35.3903 822.582 L29.9795 822.582 Q28.7381 819.367 28.1334 816.344 Q27.4968 813.32 27.4968 810.455 Q27.4968 802.721 31.5072 798.902 Q35.5176 795.082 43.6657 795.082 Z" fill="#000000" fill-rule="nonzero" fill-opacity="1" /><path clip-path="url(#clip210)" d="M33.8307 762.362 Q33.2578 763.349 33.0032 764.527 Q32.7167 765.673 32.7167 767.073 Q32.7167 772.038 35.9632 774.712 Q39.1779 777.354 45.2253 777.354 L64.0042 777.354 L64.0042 783.242 L28.3562 783.242 L28.3562 777.354 L33.8944 777.354 Q30.6479 775.508 29.0883 772.547 Q27.4968 769.587 27.4968 765.354 Q27.4968 764.75 27.5923 764.017 Q27.656 763.285 27.8151 762.394 L33.8307 762.362 Z" fill="#000000" fill-rule="nonzero" fill-opacity="1" /><path clip-path="url(#clip210)" d="M64.0042 722.99 L16.4842 741.133 L16.4842 734.417 L56.4926 719.362 L16.4842 704.275 L16.4842 697.591 L64.0042 715.702 L64.0042 722.99 Z" fill="#000000" fill-rule="nonzero" fill-opacity="1" /><path clip-path="url(#clip210)" d="M46.0847 679.767 Q46.0847 686.865 47.7079 689.602 Q49.3312 692.34 53.2461 692.34 Q56.3653 692.34 58.2114 690.303 Q60.0256 688.234 60.0256 684.701 Q60.0256 679.831 56.5881 676.903 Q53.1188 673.943 47.3897 673.943 L46.0847 673.943 L46.0847 679.767 M43.6657 668.086 L64.0042 668.086 L64.0042 673.943 L58.5933 673.943 Q61.8398 675.948 63.3994 678.94 Q64.9272 681.932 64.9272 686.26 Q64.9272 691.735 61.8716 694.981 Q58.7843 698.196 53.6281 698.196 Q47.6125 698.196 44.5569 694.186 Q41.5014 690.143 41.5014 682.154 L41.5014 673.943 L40.9285 673.943 Q36.8862 673.943 34.6901 676.616 Q32.4621 679.258 32.4621 684.064 Q32.4621 687.12 33.1941 690.016 Q33.9262 692.913 35.3903 695.586 L29.9795 695.586 Q28.7381 692.371 28.1334 689.348 Q27.4968 686.324 27.4968 683.459 Q27.4968 675.725 31.5072 671.906 Q35.5176 668.086 43.6657 668.086 Z" fill="#000000" fill-rule="nonzero" fill-opacity="1" /><path clip-path="url(#clip210)" d="M14.479 656.023 L14.479 650.167 L64.0042 650.167 L64.0042 656.023 L14.479 656.023 Z" fill="#000000" fill-rule="nonzero" fill-opacity="1" /><path clip-path="url(#clip210)" d="M49.9359 638.518 L28.3562 638.518 L28.3562 632.661 L49.7131 632.661 Q54.7739 632.661 57.3202 630.688 Q59.8346 628.714 59.8346 624.768 Q59.8346 620.025 56.8109 617.288 Q53.7872 614.519 48.5673 614.519 L28.3562 614.519 L28.3562 608.662 L64.0042 608.662 L64.0042 614.519 L58.5296 614.519 Q61.7762 616.651 63.3676 619.484 Q64.9272 622.285 64.9272 626.009 Q64.9272 632.152 61.1078 635.335 Q57.2883 638.518 49.9359 638.518 M27.4968 623.781 L27.4968 623.781 Z" fill="#000000" fill-rule="nonzero" fill-opacity="1" /><path clip-path="url(#clip210)" d="M44.7161 566.108 L47.5806 566.108 L47.5806 593.035 Q53.6281 592.653 56.8109 589.406 Q59.9619 586.128 59.9619 580.303 Q59.9619 576.929 59.1344 573.778 Q58.3069 570.595 56.6518 567.476 L62.1899 567.476 Q63.5267 570.627 64.227 573.937 Q64.9272 577.248 64.9272 580.653 Q64.9272 589.183 59.9619 594.18 Q54.9967 599.146 46.5303 599.146 Q37.7774 599.146 32.6531 594.435 Q27.4968 589.693 27.4968 581.672 Q27.4968 574.479 32.1438 570.309 Q36.7589 566.108 44.7161 566.108 M42.9973 571.964 Q38.1912 572.028 35.3266 574.67 Q32.4621 577.279 32.4621 581.608 Q32.4621 586.51 35.2312 589.47 Q38.0002 592.398 43.0292 592.844 L42.9973 571.964 Z" fill="#000000" fill-rule="nonzero" fill-opacity="1" /><path clip-path="url(#clip210)" d="M29.4065 533.77 L34.9447 533.77 Q33.6716 536.252 33.035 538.926 Q32.3984 541.6 32.3984 544.464 Q32.3984 548.825 33.7352 551.021 Q35.072 553.185 37.7456 553.185 Q39.7826 553.185 40.9603 551.626 Q42.1061 550.066 43.1565 545.355 L43.6021 543.35 Q44.9389 537.112 47.3897 534.502 Q49.8086 531.86 54.1691 531.86 Q59.1344 531.86 62.0308 535.807 Q64.9272 539.722 64.9272 546.597 Q64.9272 549.461 64.3543 552.58 Q63.8132 555.668 62.6992 559.105 L56.6518 559.105 Q58.3387 555.859 59.198 552.708 Q60.0256 549.557 60.0256 546.469 Q60.0256 542.332 58.6251 540.104 Q57.1929 537.876 54.6147 537.876 Q52.2276 537.876 50.9545 539.499 Q49.6813 541.09 48.5037 546.533 L48.0262 548.57 Q46.8804 554.013 44.5251 556.432 Q42.138 558.851 38.0002 558.851 Q32.9713 558.851 30.2341 555.286 Q27.4968 551.721 27.4968 545.164 Q27.4968 541.918 27.9743 539.053 Q28.4517 536.189 29.4065 533.77 Z" fill="#000000" fill-rule="nonzero" fill-opacity="1" /><path clip-path="url(#clip210)" d="M1139.1 14.0809 L1139.1 22.0612 Q1134.44 19.8332 1130.31 18.7395 Q1126.18 17.6457 1122.33 17.6457 Q1115.64 17.6457 1112 20.2383 Q1108.39 22.8309 1108.39 27.611 Q1108.39 31.6214 1110.78 33.6873 Q1113.21 35.7128 1119.94 36.9686 L1124.88 37.9813 Q1134.04 39.7232 1138.37 44.1387 Q1142.74 48.5136 1142.74 55.8863 Q1142.74 64.6767 1136.83 69.2137 Q1130.96 73.7508 1119.57 73.7508 Q1115.28 73.7508 1110.42 72.7785 Q1105.6 71.8063 1100.41 69.9024 L1100.41 61.4765 Q1105.4 64.2716 1110.18 65.6895 Q1114.96 67.1073 1119.57 67.1073 Q1126.58 67.1073 1130.39 64.3527 Q1134.2 61.598 1134.2 56.4939 Q1134.2 52.0379 1131.44 49.5264 Q1128.73 47.0148 1122.49 45.759 L1117.51 44.7868 Q1108.35 42.9639 1104.26 39.075 Q1100.17 35.1862 1100.17 28.2591 Q1100.17 20.2383 1105.8 15.6203 Q1111.47 11.0023 1121.4 11.0023 Q1125.65 11.0023 1130.07 11.7719 Q1134.48 12.5416 1139.1 14.0809 Z" fill="#000000" fill-rule="nonzero" fill-opacity="1" /><path clip-path="url(#clip210)" d="M1155.18 27.2059 L1162.63 27.2059 L1162.63 72.576 L1155.18 72.576 L1155.18 27.2059 M1155.18 9.54393 L1162.63 9.54393 L1162.63 18.9825 L1155.18 18.9825 L1155.18 9.54393 Z" fill="#000000" fill-rule="nonzero" fill-opacity="1" /><path clip-path="url(#clip210)" d="M1208.09 49.3643 Q1208.09 41.2625 1204.72 36.8065 Q1201.4 32.3505 1195.37 32.3505 Q1189.37 32.3505 1186.01 36.8065 Q1182.69 41.2625 1182.69 49.3643 Q1182.69 57.4256 1186.01 61.8816 Q1189.37 66.3376 1195.37 66.3376 Q1201.4 66.3376 1204.72 61.8816 Q1208.09 57.4256 1208.09 49.3643 M1215.54 66.9452 Q1215.54 78.5308 1210.39 84.1616 Q1205.25 89.8329 1194.64 89.8329 Q1190.71 89.8329 1187.22 89.2252 Q1183.74 88.6581 1180.46 87.4428 L1180.46 80.1917 Q1183.74 81.9741 1186.94 82.8248 Q1190.14 83.6755 1193.46 83.6755 Q1200.79 83.6755 1204.44 79.8271 Q1208.09 76.0193 1208.09 68.282 L1208.09 64.5957 Q1205.78 68.6061 1202.17 70.5911 Q1198.57 72.576 1193.54 72.576 Q1185.2 72.576 1180.09 66.2161 Q1174.99 59.8562 1174.99 49.3643 Q1174.99 38.832 1180.09 32.472 Q1185.2 26.1121 1193.54 26.1121 Q1198.57 26.1121 1202.17 28.0971 Q1205.78 30.082 1208.09 34.0924 L1208.09 27.2059 L1215.54 27.2059 L1215.54 66.9452 Z" fill="#000000" fill-rule="nonzero" fill-opacity="1" /><path clip-path="url(#clip210)" d="M1266.22 35.9153 Q1269.01 30.8922 1272.9 28.5022 Q1276.79 26.1121 1282.06 26.1121 Q1289.14 26.1121 1292.99 31.0947 Q1296.84 36.0368 1296.84 45.1919 L1296.84 72.576 L1289.35 72.576 L1289.35 45.4349 Q1289.35 38.913 1287.04 35.7533 Q1284.73 32.5936 1279.99 32.5936 Q1274.2 32.5936 1270.83 36.4419 Q1267.47 40.2903 1267.47 46.9338 L1267.47 72.576 L1259.98 72.576 L1259.98 45.4349 Q1259.98 38.8725 1257.67 35.7533 Q1255.36 32.5936 1250.54 32.5936 Q1244.83 32.5936 1241.47 36.4824 Q1238.1 40.3308 1238.1 46.9338 L1238.1 72.576 L1230.61 72.576 L1230.61 27.2059 L1238.1 27.2059 L1238.1 34.2544 Q1240.66 30.082 1244.22 28.0971 Q1247.78 26.1121 1252.69 26.1121 Q1257.63 26.1121 1261.07 28.6237 Q1264.56 31.1352 1266.22 35.9153 Z" fill="#000000" fill-rule="nonzero" fill-opacity="1" /><path clip-path="url(#clip210)" d="M1332.33 49.7694 Q1323.29 49.7694 1319.81 51.8354 Q1316.33 53.9013 1316.33 58.8839 Q1316.33 62.8538 1318.92 65.2034 Q1321.55 67.5124 1326.05 67.5124 Q1332.25 67.5124 1335.97 63.1374 Q1339.74 58.7219 1339.74 51.4303 L1339.74 49.7694 L1332.33 49.7694 M1347.19 46.6907 L1347.19 72.576 L1339.74 72.576 L1339.74 65.6895 Q1337.19 69.8214 1333.38 71.8063 Q1329.57 73.7508 1324.06 73.7508 Q1317.1 73.7508 1312.96 69.8619 Q1308.87 65.9325 1308.87 59.3701 Q1308.87 51.7138 1313.98 47.825 Q1319.12 43.9361 1329.29 43.9361 L1339.74 43.9361 L1339.74 43.2069 Q1339.74 38.0623 1336.34 35.2672 Q1332.98 32.4315 1326.86 32.4315 Q1322.97 32.4315 1319.28 33.3632 Q1315.6 34.295 1312.19 36.1584 L1312.19 29.2718 Q1316.29 27.692 1320.13 26.9223 Q1323.98 26.1121 1327.63 26.1121 Q1337.47 26.1121 1342.33 31.2163 Q1347.19 36.3204 1347.19 46.6907 Z" fill="#000000" fill-rule="nonzero" fill-opacity="1" /><path clip-path="url(#clip210)" d="M1397.43 18.8205 L1397.43 41.5461 L1407.71 41.5461 Q1413.43 41.5461 1416.55 38.5889 Q1419.66 35.6318 1419.66 30.163 Q1419.66 24.7348 1416.55 21.7777 Q1413.43 18.8205 1407.71 18.8205 L1397.43 18.8205 M1389.24 12.096 L1407.71 12.096 Q1417.88 12.096 1423.07 16.714 Q1428.29 21.2916 1428.29 30.163 Q1428.29 39.1155 1423.07 43.6931 Q1417.88 48.2706 1407.71 48.2706 L1397.43 48.2706 L1397.43 72.576 L1389.24 72.576 L1389.24 12.096 Z" fill="#000000" fill-rule="nonzero" fill-opacity="1" /><path clip-path="url(#clip210)" d="M1438.95 9.54393 L1446.4 9.54393 L1446.4 72.576 L1438.95 72.576 L1438.95 9.54393 Z" fill="#000000" fill-rule="nonzero" fill-opacity="1" /><path clip-path="url(#clip210)" d="M1479.58 32.4315 Q1473.58 32.4315 1470.1 37.1306 Q1466.61 41.7891 1466.61 49.9314 Q1466.61 58.0738 1470.06 62.7728 Q1473.54 67.4314 1479.58 67.4314 Q1485.53 67.4314 1489.02 62.7323 Q1492.5 58.0333 1492.5 49.9314 Q1492.5 41.8701 1489.02 37.1711 Q1485.53 32.4315 1479.58 32.4315 M1479.58 26.1121 Q1489.3 26.1121 1494.85 32.4315 Q1500.4 38.7509 1500.4 49.9314 Q1500.4 61.0714 1494.85 67.4314 Q1489.3 73.7508 1479.58 73.7508 Q1469.81 73.7508 1464.27 67.4314 Q1458.76 61.0714 1458.76 49.9314 Q1458.76 38.7509 1464.27 32.4315 Q1469.81 26.1121 1479.58 26.1121 Z" fill="#000000" fill-rule="nonzero" fill-opacity="1" /><path clip-path="url(#clip210)" d="M1520.13 14.324 L1520.13 27.2059 L1535.48 27.2059 L1535.48 32.9987 L1520.13 32.9987 L1520.13 57.6282 Q1520.13 63.1779 1521.63 64.7578 Q1523.17 66.3376 1527.82 66.3376 L1535.48 66.3376 L1535.48 72.576 L1527.82 72.576 Q1519.2 72.576 1515.91 69.3758 Q1512.63 66.1351 1512.63 57.6282 L1512.63 32.9987 L1507.16 32.9987 L1507.16 27.2059 L1512.63 27.2059 L1512.63 14.324 L1520.13 14.324 Z" fill="#000000" fill-rule="nonzero" fill-opacity="1" /><polyline clip-path="url(#clip212)" style="stroke:#009af9; stroke-linecap:round; stroke-linejoin:round; stroke-width:4; stroke-opacity:1; fill:none" points="341.475,519.054 597.177,535.14 746.753,559.576 852.879,589.682 935.197,622.877 1002.45,657.071 1059.32,690.758 1108.58,722.948 1152.03,753.042 1190.9,780.706 1226.06,805.777 1258.16,828.187 1287.68,847.913 1315.02,864.944 1340.47,879.258 1364.28,890.81 1386.65,899.53 1407.73,905.336 1427.68,908.167 1446.6,908.014 1464.6,904.962 1481.76,899.203 1498.16,891.022 1513.86,880.758 1528.92,868.759 1543.39,855.349 1557.31,840.808 1570.73,825.367 1583.67,809.212 1596.18,792.493 1608.27,775.323 1619.98,757.795 1631.34,739.981 1642.35,721.937 1653.04,703.71 1663.43,685.339 1673.54,666.854 1683.38,648.283 1692.96,629.65 1702.3,610.976 1711.41,592.282 1720.3,573.588 1728.98,554.914 1737.46,536.279 1745.75,517.706 1753.86,499.217 1761.79,480.836 1769.56,462.59 1777.17,444.506 1784.62,426.616 1791.93,408.953 1799.09,391.553 1806.12,374.455 1813.01,357.701 1819.78,341.333 1826.43,325.399 1832.96,309.947 1839.37,295.025 1845.68,280.684 1851.88,266.974 1857.98,253.944 1863.97,241.642 1869.88,230.111 1875.69,219.394 1881.41,209.524 1887.04,200.532 1892.59,192.44 1898.05,185.264 1903.44,179.01 1908.74,173.676 1913.98,169.253 1919.14,165.722 1924.23,163.058 1929.24,161.228 1934.2,160.193 1939.08,159.909 1943.9,160.328 1948.66,161.399 1953.36,163.07 1958,165.286 1962.59,167.994 1967.11,171.141 1971.59,174.674 1976,178.545 1980.37,182.705 1984.68,187.111 1988.95,191.72 1993.16,196.493 1997.33,201.394 2001.45,206.39 2005.53,211.451 2009.56,216.549 2013.55,221.659 2017.5,226.76 2021.4,231.83 2025.26,236.852 2029.09,241.81 2032.87,246.689 2036.61,251.478 2040.32,256.164 2043.99,260.738 2047.63,265.192 2051.23,269.519 2054.79,273.711 2058.32,277.764 2061.82,281.673 2065.28,285.433 2068.71,289.042 2072.11,292.497 2075.48,295.796 2078.82,298.937 2082.13,301.918 2085.41,304.739 2088.66,307.399 2091.88,309.898 2095.07,312.235 2098.24,314.412 2101.38,316.429 2104.49,318.286 2107.58,319.984 2110.64,321.524 2113.68,322.908 2116.69,324.137 2119.68,325.212 2122.64,326.136 2125.58,326.91 2128.5,327.535 2131.39,328.015 2134.26,328.352 2137.11,328.547 2139.94,328.604 2142.74,328.526 2145.52,328.314 2148.29,327.972 2151.03,327.503 2153.75,326.911 2156.46,326.199 2159.14,325.37 2161.8,324.429 2164.45,323.379 2167.07,322.225 2169.68,320.97 2172.27,319.62 2174.84,318.179 2177.39,316.652 2179.93,315.044 2182.45,313.361 2184.95,311.608 2187.43,309.79 2189.9,307.914 2192.35,305.986 2194.78,304.012 2197.2,301.999 2199.61,299.952 2201.99,297.88 2204.37,295.788 2206.72,293.685 2209.07,291.577 2211.39,289.47 2213.71,287.373 2216,285.293 2218.29,283.237 2220.56,281.211 2222.82,279.223 2225.06,277.28 2227.29,275.388 2229.5,273.552 2231.71,271.78 2233.89,270.076 2236.07,268.446 2238.23,266.894 2240.39,265.423 2242.52,264.038 2244.65,262.741 2246.76,261.533 2248.87,260.416 2250.96,259.391 2253.03,258.456 2255.1,257.612 2257.16,256.855 2259.2,256.184 2261.23,255.595 2263.25,255.084 2265.26,254.647 2267.26,254.278 2269.25,253.971 2271.23,253.721 2273.2,253.522 2275.16,253.368 2277.1,253.251 2279.04,253.167 2280.96,253.108 2282.88,253.069 2284.79,253.046 2286.68,253.034 2288.57,253.029 2290.45,253.027 2292.32,253.027 2294.17,253.027 "/>
<polyline clip-path="url(#clip212)" style="stroke:#009af9; stroke-linecap:round; stroke-linejoin:round; stroke-width:4; stroke-opacity:1; fill:none" points="341.475,1374.46 597.177,1370.71 746.753,1364.59 852.879,1356.3 935.197,1346.07 1002.45,1334.19 1059.32,1320.94 1108.58,1306.61 1152.03,1291.48 1190.9,1275.8 1226.06,1259.83 1258.16,1243.81 1287.68,1227.98 1315.02,1212.57 1340.47,1197.83 1364.28,1184.01 1386.65,1171.38 1407.73,1160.19 1427.68,1150.66 1446.6,1142.93 1464.6,1137.06 1481.76,1132.95 1498.16,1130.41 1513.86,1129.2 1528.92,1129.04 1543.39,1129.66 1557.31,1130.86 1570.73,1132.45 1583.67,1134.29 1596.18,1136.27 1608.27,1138.31 1619.98,1140.36 1631.34,1142.38 1642.35,1144.34 1653.04,1146.2 1663.43,1147.97 1673.54,1149.64 1683.38,1151.19 1692.96,1152.62 1702.3,1153.94 1711.41,1155.15 1720.3,1156.24 1728.98,1157.22 1737.46,1158.09 1745.75,1158.86 1753.86,1159.52 1761.79,1160.09 1769.56,1160.56 1777.17,1160.94 1784.62,1161.24 1791.93,1161.45 1799.09,1161.57 1806.12,1161.62 1813.01,1161.6 1819.78,1161.5 1826.43,1161.33 1832.96,1161.09 1839.37,1160.78 1845.68,1160.42 1851.88,1159.99 1857.98,1159.5 1863.97,1158.95 1869.88,1158.35 1875.69,1157.7 1881.41,1156.99 1887.04,1156.23 1892.59,1155.43 1898.05,1154.57 1903.44,1153.67 1908.74,1152.72 1913.98,1151.73 1919.14,1150.7 1924.23,1149.62 1929.24,1148.5 1934.2,1147.34 1939.08,1146.14 1943.9,1144.9 1948.66,1143.63 1953.36,1142.31 1958,1140.96 1962.59,1139.58 1967.11,1138.16 1971.59,1136.7 1976,1135.21 1980.37,1133.69 1984.68,1132.13 1988.95,1130.54 1993.16,1128.91 1997.33,1127.26 2001.45,1125.57 2005.53,1123.85 2009.56,1122.1 2013.55,1120.32 2017.5,1118.51 2021.4,1116.67 2025.26,1114.8 2029.09,1112.9 2032.87,1110.96 2036.61,1109 2040.32,1107.01 2043.99,1104.99 2047.63,1102.94 2051.23,1100.86 2054.79,1098.75 2058.32,1096.61 2061.82,1094.45 2065.28,1092.25 2068.71,1090.02 2072.11,1087.77 2075.48,1085.48 2078.82,1083.17 2082.13,1080.82 2085.41,1078.45 2088.66,1076.04 2091.88,1073.61 2095.07,1071.14 2098.24,1068.65 2101.38,1066.12 2104.49,1063.56 2107.58,1060.97 2110.64,1058.35 2113.68,1055.7 2116.69,1053.01 2119.68,1050.29 2122.64,1047.54 2125.58,1044.76 2128.5,1041.94 2131.39,1039.09 2134.26,1036.2 2137.11,1033.28 2139.94,1030.33 2142.74,1027.34 2145.52,1024.31 2148.29,1021.25 2151.03,1018.15 2153.75,1015.02 2156.46,1011.85 2159.14,1008.64 2161.8,1005.4 2164.45,1002.12 2167.07,998.805 2169.68,995.451 2172.27,992.062 2174.84,988.635 2177.39,985.172 2179.93,981.673 2182.45,978.137 2184.95,974.567 2187.43,970.962 2189.9,967.322 2192.35,963.649 2194.78,959.944 2197.2,956.207 2199.61,952.441 2201.99,948.645 2204.37,944.823 2206.72,940.974 2209.07,937.103 2211.39,933.21 2213.71,929.298 2216,925.37 2218.29,921.429 2220.56,917.478 2222.82,913.519 2225.06,909.558 2227.29,905.597 2229.5,901.641 2231.71,897.696 2233.89,893.765 2236.07,889.854 2238.23,885.969 2240.39,882.115 2242.52,878.299 2244.65,874.528 2246.76,870.808 2248.87,867.147 2250.96,863.552 2253.03,860.032 2255.1,856.594 2257.16,853.247 2259.2,849.998 2261.23,846.858 2263.25,843.835 2265.26,840.938 2267.26,838.175 2269.25,835.556 2271.23,833.089 2273.2,830.783 2275.16,828.646 2277.1,826.686 2279.04,824.91 2280.96,823.325 2282.88,821.938 2284.79,820.755 2286.68,819.78 2288.57,819.017 2290.45,818.469 2292.32,818.14 2294.17,818.03 "/>
<polyline clip-path="url(#clip212)" style="stroke:#e26f46; stroke-linecap:round; stroke-linejoin:round; stroke-width:4; stroke-opacity:1; fill:none" points="341.475,519.054 597.177,535.14 746.753,559.576 852.879,589.682 935.197,622.877 1002.45,657.071 1059.32,690.758 1108.58,722.948 1152.03,753.042 1190.9,780.706 1226.06,805.777 1258.16,828.187 1287.68,847.913 1315.02,864.944 1340.47,879.258 1364.28,890.81 1386.65,899.53 1407.73,905.336 1427.68,908.167 1446.6,908.014 1464.6,904.962 1481.76,899.203 1498.16,891.022 1513.86,880.758 1528.92,868.759 1543.39,855.349 1557.31,840.808 1570.73,825.367 1583.67,809.212 1596.18,792.493 1608.27,775.323 1619.98,757.795 1631.34,739.981 1642.35,721.937 1653.04,703.71 1663.43,685.339 1673.54,666.854 1683.38,648.283 1692.96,629.65 1702.3,610.976 1711.41,592.282 1720.3,573.588 1728.98,554.914 1737.46,536.279 1745.75,517.706 1753.86,499.217 1761.79,480.836 1769.56,462.59 1777.17,444.506 1784.62,426.616 1791.93,408.953 1799.09,391.553 1806.12,374.455 1813.01,357.701 1819.78,341.333 1826.43,325.399 1832.96,309.947 1839.37,295.025 1845.68,280.684 1851.88,266.974 1857.98,253.944 1863.97,241.642 1869.88,230.111 1875.69,219.394 1881.41,209.524 1887.04,200.532 1892.59,192.44 1898.05,185.264 1903.44,179.01 1908.74,173.676 1913.98,169.253 1919.14,165.722 1924.23,163.058 1929.24,161.228 1934.2,160.193 1939.08,159.909 1943.9,160.328 1948.66,161.399 1953.36,163.07 1958,165.286 1962.59,167.994 1967.11,171.141 1971.59,174.674 1976,178.545 1980.37,182.705 1984.68,187.111 1988.95,191.72 1993.16,196.493 1997.33,201.394 2001.45,206.39 2005.53,211.451 2009.56,216.549 2013.55,221.659 2017.5,226.76 2021.4,231.83 2025.26,236.852 2029.09,241.81 2032.87,246.689 2036.61,251.478 2040.32,256.164 2043.99,260.738 2047.63,265.192 2051.23,269.519 2054.79,273.711 2058.32,277.764 2061.82,281.673 2065.28,285.433 2068.71,289.042 2072.11,292.497 2075.48,295.796 2078.82,298.937 2082.13,301.918 2085.41,304.739 2088.66,307.399 2091.88,309.898 2095.07,312.235 2098.24,314.412 2101.38,316.429 2104.49,318.286 2107.58,319.984 2110.64,321.524 2113.68,322.908 2116.69,324.137 2119.68,325.212 2122.64,326.136 2125.58,326.91 2128.5,327.535 2131.39,328.015 2134.26,328.352 2137.11,328.547 2139.94,328.604 2142.74,328.526 2145.52,328.314 2148.29,327.972 2151.03,327.503 2153.75,326.911 2156.46,326.199 2159.14,325.37 2161.8,324.429 2164.45,323.379 2167.07,322.225 2169.68,320.97 2172.27,319.62 2174.84,318.179 2177.39,316.652 2179.93,315.044 2182.45,313.361 2184.95,311.608 2187.43,309.79 2189.9,307.914 2192.35,305.986 2194.78,304.012 2197.2,301.999 2199.61,299.952 2201.99,297.88 2204.37,295.788 2206.72,293.685 2209.07,291.577 2211.39,289.47 2213.71,287.373 2216,285.293 2218.29,283.237 2220.56,281.211 2222.82,279.223 2225.06,277.28 2227.29,275.388 2229.5,273.552 2231.71,271.78 2233.89,270.076 2236.07,268.446 2238.23,266.894 2240.39,265.423 2242.52,264.038 2244.65,262.741 2246.76,261.533 2248.87,260.416 2250.96,259.391 2253.03,258.456 2255.1,257.612 2257.16,256.855 2259.2,256.184 2261.23,255.595 2263.25,255.084 2265.26,254.647 2267.26,254.278 2269.25,253.971 2271.23,253.721 2273.2,253.522 2275.16,253.368 2277.1,253.251 2279.04,253.167 2280.96,253.108 2282.88,253.069 2284.79,253.046 2286.68,253.034 2288.57,253.029 2290.45,253.027 2292.32,253.027 2294.17,253.027 "/>
<polyline clip-path="url(#clip212)" style="stroke:#e26f46; stroke-linecap:round; stroke-linejoin:round; stroke-width:4; stroke-opacity:1; fill:none" points="341.475,1374.46 597.177,1370.71 746.753,1364.59 852.879,1356.3 935.197,1346.07 1002.45,1334.19 1059.32,1320.94 1108.58,1306.61 1152.03,1291.48 1190.9,1275.8 1226.06,1259.83 1258.16,1243.81 1287.68,1227.98 1315.02,1212.57 1340.47,1197.83 1364.28,1184.01 1386.65,1171.38 1407.73,1160.19 1427.68,1150.66 1446.6,1142.93 1464.6,1137.06 1481.76,1132.95 1498.16,1130.41 1513.86,1129.2 1528.92,1129.04 1543.39,1129.66 1557.31,1130.86 1570.73,1132.45 1583.67,1134.29 1596.18,1136.27 1608.27,1138.31 1619.98,1140.36 1631.34,1142.38 1642.35,1144.34 1653.04,1146.2 1663.43,1147.97 1673.54,1149.64 1683.38,1151.19 1692.96,1152.62 1702.3,1153.94 1711.41,1155.15 1720.3,1156.24 1728.98,1157.22 1737.46,1158.09 1745.75,1158.86 1753.86,1159.52 1761.79,1160.09 1769.56,1160.56 1777.17,1160.94 1784.62,1161.24 1791.93,1161.45 1799.09,1161.57 1806.12,1161.62 1813.01,1161.6 1819.78,1161.5 1826.43,1161.33 1832.96,1161.09 1839.37,1160.78 1845.68,1160.42 1851.88,1159.99 1857.98,1159.5 1863.97,1158.95 1869.88,1158.35 1875.69,1157.7 1881.41,1156.99 1887.04,1156.23 1892.59,1155.43 1898.05,1154.57 1903.44,1153.67 1908.74,1152.72 1913.98,1151.73 1919.14,1150.7 1924.23,1149.62 1929.24,1148.5 1934.2,1147.34 1939.08,1146.14 1943.9,1144.9 1948.66,1143.63 1953.36,1142.31 1958,1140.96 1962.59,1139.58 1967.11,1138.16 1971.59,1136.7 1976,1135.21 1980.37,1133.69 1984.68,1132.13 1988.95,1130.54 1993.16,1128.91 1997.33,1127.26 2001.45,1125.57 2005.53,1123.85 2009.56,1122.1 2013.55,1120.32 2017.5,1118.51 2021.4,1116.67 2025.26,1114.8 2029.09,1112.9 2032.87,1110.96 2036.61,1109 2040.32,1107.01 2043.99,1104.99 2047.63,1102.94 2051.23,1100.86 2054.79,1098.75 2058.32,1096.61 2061.82,1094.45 2065.28,1092.25 2068.71,1090.02 2072.11,1087.77 2075.48,1085.48 2078.82,1083.17 2082.13,1080.82 2085.41,1078.45 2088.66,1076.04 2091.88,1073.61 2095.07,1071.14 2098.24,1068.65 2101.38,1066.12 2104.49,1063.56 2107.58,1060.97 2110.64,1058.35 2113.68,1055.7 2116.69,1053.01 2119.68,1050.29 2122.64,1047.54 2125.58,1044.76 2128.5,1041.94 2131.39,1039.09 2134.26,1036.2 2137.11,1033.28 2139.94,1030.33 2142.74,1027.34 2145.52,1024.31 2148.29,1021.25 2151.03,1018.15 2153.75,1015.02 2156.46,1011.85 2159.14,1008.64 2161.8,1005.4 2164.45,1002.12 2167.07,998.805 2169.68,995.451 2172.27,992.062 2174.84,988.635 2177.39,985.172 2179.93,981.673 2182.45,978.137 2184.95,974.567 2187.43,970.962 2189.9,967.322 2192.35,963.649 2194.78,959.944 2197.2,956.207 2199.61,952.441 2201.99,948.645 2204.37,944.823 2206.72,940.974 2209.07,937.103 2211.39,933.21 2213.71,929.298 2216,925.37 2218.29,921.429 2220.56,917.478 2222.82,913.519 2225.06,909.558 2227.29,905.597 2229.5,901.641 2231.71,897.696 2233.89,893.765 2236.07,889.854 2238.23,885.969 2240.39,882.115 2242.52,878.299 2244.65,874.528 2246.76,870.808 2248.87,867.147 2250.96,863.552 2253.03,860.032 2255.1,856.594 2257.16,853.247 2259.2,849.998 2261.23,846.858 2263.25,843.835 2265.26,840.938 2267.26,838.175 2269.25,835.556 2271.23,833.089 2273.2,830.783 2275.16,828.646 2277.1,826.686 2279.04,824.91 2280.96,823.325 2282.88,821.938 2284.79,820.755 2286.68,819.78 2288.57,819.017 2290.45,818.469 2292.32,818.14 2294.17,818.03 "/>
<path clip-path="url(#clip210)" d="M351.889 321.906 L951.952 321.906 L951.952 166.386 L351.889 166.386  Z" fill="#ffffff" fill-rule="evenodd" fill-opacity="1"/>
<polyline clip-path="url(#clip210)" style="stroke:#000000; stroke-linecap:round; stroke-linejoin:round; stroke-width:4; stroke-opacity:1; fill:none" points="351.889,321.906 951.952,321.906 951.952,166.386 351.889,166.386 351.889,321.906 "/>
<polyline clip-path="url(#clip210)" style="stroke:#009af9; stroke-linecap:round; stroke-linejoin:round; stroke-width:4; stroke-opacity:1; fill:none" points="374.888,218.226 512.879,218.226 "/>
<path clip-path="url(#clip210)" d="M535.877 200.946 L565.113 200.946 L565.113 204.881 L552.845 204.881 L552.845 235.506 L548.146 235.506 L548.146 204.881 L535.877 204.881 L535.877 200.946 Z" fill="#000000" fill-rule="nonzero" fill-opacity="1" /><path clip-path="url(#clip210)" d="M577.497 213.562 Q576.78 213.145 575.923 212.96 Q575.09 212.752 574.071 212.752 Q570.46 212.752 568.516 215.113 Q566.595 217.451 566.595 221.849 L566.595 235.506 L562.312 235.506 L562.312 209.58 L566.595 209.58 L566.595 213.608 Q567.937 211.247 570.09 210.113 Q572.243 208.955 575.321 208.955 Q575.761 208.955 576.294 209.025 Q576.826 209.071 577.474 209.187 L577.497 213.562 Z" fill="#000000" fill-rule="nonzero" fill-opacity="1" /><path clip-path="url(#clip210)" d="M581.525 225.275 L581.525 209.58 L585.784 209.58 L585.784 225.113 Q585.784 228.793 587.219 230.645 Q588.655 232.474 591.525 232.474 Q594.974 232.474 596.965 230.275 Q598.979 228.076 598.979 224.279 L598.979 209.58 L603.238 209.58 L603.238 235.506 L598.979 235.506 L598.979 231.525 Q597.428 233.886 595.368 235.043 Q593.331 236.178 590.622 236.178 Q586.155 236.178 583.84 233.4 Q581.525 230.622 581.525 225.275 M592.243 208.955 L592.243 208.955 Z" fill="#000000" fill-rule="nonzero" fill-opacity="1" /><path clip-path="url(#clip210)" d="M634.187 221.479 L634.187 223.562 L614.604 223.562 Q614.881 227.96 617.242 230.275 Q619.627 232.566 623.863 232.566 Q626.316 232.566 628.608 231.965 Q630.923 231.363 633.191 230.159 L633.191 234.187 Q630.9 235.159 628.492 235.668 Q626.085 236.178 623.608 236.178 Q617.404 236.178 613.77 232.566 Q610.159 228.955 610.159 222.798 Q610.159 216.432 613.585 212.705 Q617.034 208.955 622.867 208.955 Q628.099 208.955 631.131 212.335 Q634.187 215.692 634.187 221.479 M629.928 220.229 Q629.881 216.733 627.96 214.65 Q626.062 212.567 622.914 212.567 Q619.349 212.567 617.196 214.58 Q615.067 216.594 614.742 220.252 L629.928 220.229 Z" fill="#000000" fill-rule="nonzero" fill-opacity="1" /><path clip-path="url(#clip210)" d="M672.775 210.344 L672.775 214.372 Q670.969 213.446 669.025 212.983 Q667.08 212.52 664.997 212.52 Q661.826 212.52 660.228 213.493 Q658.654 214.465 658.654 216.409 Q658.654 217.891 659.788 218.747 Q660.923 219.58 664.349 220.344 L665.807 220.668 Q670.344 221.641 672.242 223.423 Q674.163 225.182 674.163 228.354 Q674.163 231.965 671.293 234.071 Q668.446 236.178 663.446 236.178 Q661.363 236.178 659.094 235.761 Q656.849 235.367 654.349 234.557 L654.349 230.159 Q656.71 231.386 659.001 232.011 Q661.293 232.613 663.538 232.613 Q666.548 232.613 668.168 231.594 Q669.788 230.553 669.788 228.678 Q669.788 226.942 668.608 226.016 Q667.45 225.09 663.492 224.233 L662.011 223.886 Q658.052 223.053 656.293 221.34 Q654.534 219.604 654.534 216.594 Q654.534 212.937 657.126 210.946 Q659.719 208.955 664.488 208.955 Q666.849 208.955 668.932 209.303 Q671.015 209.65 672.775 210.344 Z" fill="#000000" fill-rule="nonzero" fill-opacity="1" /><path clip-path="url(#clip210)" d="M691.733 237.914 Q689.927 242.543 688.214 243.955 Q686.501 245.367 683.631 245.367 L680.228 245.367 L680.228 241.803 L682.728 241.803 Q684.487 241.803 685.46 240.969 Q686.432 240.136 687.612 237.034 L688.376 235.09 L677.89 209.58 L682.404 209.58 L690.506 229.858 L698.608 209.58 L703.122 209.58 L691.733 237.914 Z" fill="#000000" fill-rule="nonzero" fill-opacity="1" /><path clip-path="url(#clip210)" d="M725.529 210.344 L725.529 214.372 Q723.723 213.446 721.779 212.983 Q719.834 212.52 717.751 212.52 Q714.58 212.52 712.983 213.493 Q711.409 214.465 711.409 216.409 Q711.409 217.891 712.543 218.747 Q713.677 219.58 717.103 220.344 L718.561 220.668 Q723.098 221.641 724.996 223.423 Q726.918 225.182 726.918 228.354 Q726.918 231.965 724.047 234.071 Q721.2 236.178 716.2 236.178 Q714.117 236.178 711.848 235.761 Q709.603 235.367 707.103 234.557 L707.103 230.159 Q709.464 231.386 711.756 232.011 Q714.047 232.613 716.293 232.613 Q719.302 232.613 720.922 231.594 Q722.543 230.553 722.543 228.678 Q722.543 226.942 721.362 226.016 Q720.205 225.09 716.247 224.233 L714.765 223.886 Q710.807 223.053 709.047 221.34 Q707.288 219.604 707.288 216.594 Q707.288 212.937 709.881 210.946 Q712.473 208.955 717.242 208.955 Q719.603 208.955 721.686 209.303 Q723.77 209.65 725.529 210.344 Z" fill="#000000" fill-rule="nonzero" fill-opacity="1" /><path clip-path="url(#clip210)" d="M737.913 202.219 L737.913 209.58 L746.686 209.58 L746.686 212.891 L737.913 212.891 L737.913 226.965 Q737.913 230.136 738.77 231.039 Q739.649 231.941 742.311 231.941 L746.686 231.941 L746.686 235.506 L742.311 235.506 Q737.381 235.506 735.506 233.678 Q733.631 231.826 733.631 226.965 L733.631 212.891 L730.506 212.891 L730.506 209.58 L733.631 209.58 L733.631 202.219 L737.913 202.219 Z" fill="#000000" fill-rule="nonzero" fill-opacity="1" /><path clip-path="url(#clip210)" d="M774.464 221.479 L774.464 223.562 L754.881 223.562 Q755.158 227.96 757.519 230.275 Q759.904 232.566 764.14 232.566 Q766.593 232.566 768.885 231.965 Q771.2 231.363 773.468 230.159 L773.468 234.187 Q771.177 235.159 768.769 235.668 Q766.362 236.178 763.885 236.178 Q757.681 236.178 754.047 232.566 Q750.436 228.955 750.436 222.798 Q750.436 216.432 753.862 212.705 Q757.311 208.955 763.144 208.955 Q768.376 208.955 771.408 212.335 Q774.464 215.692 774.464 221.479 M770.205 220.229 Q770.158 216.733 768.237 214.65 Q766.339 212.567 763.191 212.567 Q759.626 212.567 757.473 214.58 Q755.344 216.594 755.019 220.252 L770.205 220.229 Z" fill="#000000" fill-rule="nonzero" fill-opacity="1" /><path clip-path="url(#clip210)" d="M801.64 214.557 Q803.237 211.687 805.459 210.321 Q807.681 208.955 810.69 208.955 Q814.741 208.955 816.94 211.803 Q819.139 214.627 819.139 219.858 L819.139 235.506 L814.857 235.506 L814.857 219.997 Q814.857 216.27 813.538 214.465 Q812.218 212.659 809.51 212.659 Q806.2 212.659 804.278 214.858 Q802.357 217.057 802.357 220.854 L802.357 235.506 L798.075 235.506 L798.075 219.997 Q798.075 216.247 796.755 214.465 Q795.436 212.659 792.681 212.659 Q789.417 212.659 787.496 214.881 Q785.575 217.08 785.575 220.854 L785.575 235.506 L781.292 235.506 L781.292 209.58 L785.575 209.58 L785.575 213.608 Q787.033 211.224 789.07 210.09 Q791.107 208.955 793.908 208.955 Q796.732 208.955 798.7 210.391 Q800.691 211.826 801.64 214.557 Z" fill="#000000" fill-rule="nonzero" fill-opacity="1" /><polyline clip-path="url(#clip210)" style="stroke:#e26f46; stroke-linecap:round; stroke-linejoin:round; stroke-width:4; stroke-opacity:1; fill:none" points="374.888,270.066 512.879,270.066 "/>
<path clip-path="url(#clip210)" d="M535.877 252.786 L557.729 252.786 L557.729 256.721 L540.553 256.721 L540.553 266.953 L557.011 266.953 L557.011 270.888 L540.553 270.888 L540.553 283.411 L558.146 283.411 L558.146 287.346 L535.877 287.346 L535.877 252.786 Z" fill="#000000" fill-rule="nonzero" fill-opacity="1" /><path clip-path="url(#clip210)" d="M582.173 262.184 L582.173 266.212 Q580.368 265.286 578.423 264.823 Q576.479 264.36 574.395 264.36 Q571.224 264.36 569.627 265.333 Q568.053 266.305 568.053 268.249 Q568.053 269.731 569.187 270.587 Q570.321 271.42 573.747 272.184 L575.206 272.508 Q579.743 273.481 581.641 275.263 Q583.562 277.022 583.562 280.194 Q583.562 283.805 580.692 285.911 Q577.844 288.018 572.845 288.018 Q570.761 288.018 568.493 287.601 Q566.247 287.207 563.747 286.397 L563.747 281.999 Q566.108 283.226 568.4 283.851 Q570.692 284.453 572.937 284.453 Q575.946 284.453 577.567 283.434 Q579.187 282.393 579.187 280.518 Q579.187 278.782 578.007 277.856 Q576.849 276.93 572.891 276.073 L571.409 275.726 Q567.451 274.893 565.692 273.18 Q563.933 271.444 563.933 268.434 Q563.933 264.777 566.525 262.786 Q569.118 260.795 573.886 260.795 Q576.247 260.795 578.331 261.143 Q580.414 261.49 582.173 262.184 Z" fill="#000000" fill-rule="nonzero" fill-opacity="1" /><path clip-path="url(#clip210)" d="M594.557 254.059 L594.557 261.42 L603.33 261.42 L603.33 264.731 L594.557 264.731 L594.557 278.805 Q594.557 281.976 595.414 282.879 Q596.293 283.781 598.955 283.781 L603.33 283.781 L603.33 287.346 L598.955 287.346 Q594.025 287.346 592.15 285.518 Q590.275 283.666 590.275 278.805 L590.275 264.731 L587.15 264.731 L587.15 261.42 L590.275 261.42 L590.275 254.059 L594.557 254.059 Z" fill="#000000" fill-rule="nonzero" fill-opacity="1" /><path clip-path="url(#clip210)" d="M608.932 261.42 L613.192 261.42 L613.192 287.346 L608.932 287.346 L608.932 261.42 M608.932 251.328 L613.192 251.328 L613.192 256.721 L608.932 256.721 L608.932 251.328 Z" fill="#000000" fill-rule="nonzero" fill-opacity="1" /><path clip-path="url(#clip210)" d="M642.289 266.397 Q643.886 263.527 646.108 262.161 Q648.33 260.795 651.339 260.795 Q655.39 260.795 657.589 263.643 Q659.788 266.467 659.788 271.698 L659.788 287.346 L655.506 287.346 L655.506 271.837 Q655.506 268.11 654.187 266.305 Q652.867 264.499 650.159 264.499 Q646.849 264.499 644.927 266.698 Q643.006 268.897 643.006 272.694 L643.006 287.346 L638.724 287.346 L638.724 271.837 Q638.724 268.087 637.404 266.305 Q636.085 264.499 633.33 264.499 Q630.066 264.499 628.145 266.721 Q626.224 268.92 626.224 272.694 L626.224 287.346 L621.941 287.346 L621.941 261.42 L626.224 261.42 L626.224 265.448 Q627.682 263.064 629.719 261.93 Q631.756 260.795 634.557 260.795 Q637.381 260.795 639.349 262.231 Q641.34 263.666 642.289 266.397 Z" fill="#000000" fill-rule="nonzero" fill-opacity="1" /><path clip-path="url(#clip210)" d="M680.066 274.314 Q674.904 274.314 672.913 275.494 Q670.923 276.675 670.923 279.522 Q670.923 281.791 672.404 283.133 Q673.909 284.453 676.478 284.453 Q680.02 284.453 682.149 281.953 Q684.302 279.43 684.302 275.263 L684.302 274.314 L680.066 274.314 M688.561 272.555 L688.561 287.346 L684.302 287.346 L684.302 283.411 Q682.844 285.772 680.668 286.906 Q678.492 288.018 675.344 288.018 Q671.363 288.018 669.001 285.795 Q666.663 283.55 666.663 279.8 Q666.663 275.425 669.58 273.203 Q672.52 270.981 678.33 270.981 L684.302 270.981 L684.302 270.564 Q684.302 267.624 682.358 266.027 Q680.437 264.407 676.941 264.407 Q674.719 264.407 672.612 264.939 Q670.506 265.471 668.562 266.536 L668.562 262.601 Q670.9 261.698 673.099 261.258 Q675.298 260.795 677.381 260.795 Q683.006 260.795 685.784 263.712 Q688.561 266.629 688.561 272.555 Z" fill="#000000" fill-rule="nonzero" fill-opacity="1" /><path clip-path="url(#clip210)" d="M701.548 254.059 L701.548 261.42 L710.321 261.42 L710.321 264.731 L701.548 264.731 L701.548 278.805 Q701.548 281.976 702.404 282.879 Q703.284 283.781 705.946 283.781 L710.321 283.781 L710.321 287.346 L705.946 287.346 Q701.015 287.346 699.14 285.518 Q697.265 283.666 697.265 278.805 L697.265 264.731 L694.14 264.731 L694.14 261.42 L697.265 261.42 L697.265 254.059 L701.548 254.059 Z" fill="#000000" fill-rule="nonzero" fill-opacity="1" /><path clip-path="url(#clip210)" d="M738.098 273.319 L738.098 275.402 L718.515 275.402 Q718.793 279.8 721.154 282.115 Q723.538 284.406 727.774 284.406 Q730.228 284.406 732.52 283.805 Q734.834 283.203 737.103 281.999 L737.103 286.027 Q734.811 286.999 732.404 287.508 Q729.996 288.018 727.52 288.018 Q721.316 288.018 717.682 284.406 Q714.071 280.795 714.071 274.638 Q714.071 268.272 717.497 264.545 Q720.946 260.795 726.779 260.795 Q732.01 260.795 735.043 264.175 Q738.098 267.532 738.098 273.319 M733.839 272.069 Q733.793 268.573 731.871 266.49 Q729.973 264.407 726.825 264.407 Q723.26 264.407 721.108 266.42 Q718.978 268.434 718.654 272.092 L733.839 272.069 Z" fill="#000000" fill-rule="nonzero" fill-opacity="1" /><path clip-path="url(#clip210)" d="M762.149 265.356 L762.149 251.328 L766.408 251.328 L766.408 287.346 L762.149 287.346 L762.149 283.457 Q760.806 285.772 758.746 286.906 Q756.709 288.018 753.839 288.018 Q749.14 288.018 746.177 284.268 Q743.237 280.518 743.237 274.407 Q743.237 268.295 746.177 264.545 Q749.14 260.795 753.839 260.795 Q756.709 260.795 758.746 261.93 Q760.806 263.041 762.149 265.356 M747.635 274.407 Q747.635 279.106 749.557 281.791 Q751.501 284.453 754.881 284.453 Q758.26 284.453 760.205 281.791 Q762.149 279.106 762.149 274.407 Q762.149 269.707 760.205 267.045 Q758.26 264.36 754.881 264.36 Q751.501 264.36 749.557 267.045 Q747.635 269.707 747.635 274.407 Z" fill="#000000" fill-rule="nonzero" fill-opacity="1" /><path clip-path="url(#clip210)" d="M810.436 266.397 Q812.033 263.527 814.255 262.161 Q816.477 260.795 819.487 260.795 Q823.538 260.795 825.737 263.643 Q827.936 266.467 827.936 271.698 L827.936 287.346 L823.653 287.346 L823.653 271.837 Q823.653 268.11 822.334 266.305 Q821.014 264.499 818.306 264.499 Q814.996 264.499 813.075 266.698 Q811.153 268.897 811.153 272.694 L811.153 287.346 L806.871 287.346 L806.871 271.837 Q806.871 268.087 805.552 266.305 Q804.232 264.499 801.478 264.499 Q798.214 264.499 796.292 266.721 Q794.371 268.92 794.371 272.694 L794.371 287.346 L790.089 287.346 L790.089 261.42 L794.371 261.42 L794.371 265.448 Q795.829 263.064 797.866 261.93 Q799.903 260.795 802.704 260.795 Q805.528 260.795 807.496 262.231 Q809.487 263.666 810.436 266.397 Z" fill="#000000" fill-rule="nonzero" fill-opacity="1" /><path clip-path="url(#clip210)" d="M846.477 264.407 Q843.051 264.407 841.061 267.092 Q839.07 269.754 839.07 274.407 Q839.07 279.059 841.038 281.744 Q843.028 284.406 846.477 284.406 Q849.88 284.406 851.871 281.721 Q853.862 279.036 853.862 274.407 Q853.862 269.8 851.871 267.115 Q849.88 264.407 846.477 264.407 M846.477 260.795 Q852.033 260.795 855.204 264.407 Q858.375 268.018 858.375 274.407 Q858.375 280.772 855.204 284.406 Q852.033 288.018 846.477 288.018 Q840.899 288.018 837.727 284.406 Q834.579 280.772 834.579 274.407 Q834.579 268.018 837.727 264.407 Q840.899 260.795 846.477 260.795 Z" fill="#000000" fill-rule="nonzero" fill-opacity="1" /><path clip-path="url(#clip210)" d="M882.496 265.356 L882.496 251.328 L886.755 251.328 L886.755 287.346 L882.496 287.346 L882.496 283.457 Q881.153 285.772 879.093 286.906 Q877.056 288.018 874.185 288.018 Q869.486 288.018 866.523 284.268 Q863.584 280.518 863.584 274.407 Q863.584 268.295 866.523 264.545 Q869.486 260.795 874.185 260.795 Q877.056 260.795 879.093 261.93 Q881.153 263.041 882.496 265.356 M867.982 274.407 Q867.982 279.106 869.903 281.791 Q871.848 284.453 875.227 284.453 Q878.607 284.453 880.551 281.791 Q882.496 279.106 882.496 274.407 Q882.496 269.707 880.551 267.045 Q878.607 264.36 875.227 264.36 Q871.848 264.36 869.903 267.045 Q867.982 269.707 867.982 274.407 Z" fill="#000000" fill-rule="nonzero" fill-opacity="1" /><path clip-path="url(#clip210)" d="M917.704 273.319 L917.704 275.402 L898.121 275.402 Q898.398 279.8 900.759 282.115 Q903.144 284.406 907.38 284.406 Q909.833 284.406 912.125 283.805 Q914.44 283.203 916.708 281.999 L916.708 286.027 Q914.417 286.999 912.009 287.508 Q909.602 288.018 907.125 288.018 Q900.921 288.018 897.287 284.406 Q893.676 280.795 893.676 274.638 Q893.676 268.272 897.102 264.545 Q900.551 260.795 906.384 260.795 Q911.616 260.795 914.648 264.175 Q917.704 267.532 917.704 273.319 M913.445 272.069 Q913.398 268.573 911.477 266.49 Q909.579 264.407 906.431 264.407 Q902.866 264.407 900.713 266.42 Q898.584 268.434 898.259 272.092 L913.445 272.069 Z" fill="#000000" fill-rule="nonzero" fill-opacity="1" /><path clip-path="url(#clip210)" d="M924.694 251.328 L928.954 251.328 L928.954 287.346 L924.694 287.346 L924.694 251.328 Z" fill="#000000" fill-rule="nonzero" fill-opacity="1" /></svg>
