<?xml version="1.0" encoding="utf-8"?>
<svg xmlns="http://www.w3.org/2000/svg" xmlns:xlink="http://www.w3.org/1999/xlink" width="600" height="400" viewBox="0 0 2400 1600">
<defs>
  <clipPath id="clip940">
    <rect x="0" y="0" width="2400" height="1600"/>
  </clipPath>
</defs>
<path clip-path="url(#clip940)" d="M0 1600 L2400 1600 L2400 0 L0 0  Z" fill="#ffffff" fill-rule="evenodd" fill-opacity="1"/>
<defs>
  <clipPath id="clip941">
    <rect x="480" y="0" width="1681" height="1600"/>
  </clipPath>
</defs>
<path clip-path="url(#clip940)" d="M251.372 1410.9 L2352.76 1410.9 L2352.76 123.472 L251.372 123.472  Z" fill="#ffffff" fill-rule="evenodd" fill-opacity="1"/>
<defs>
  <clipPath id="clip942">
    <rect x="251" y="123" width="2102" height="1288"/>
  </clipPath>
</defs>
<polyline clip-path="url(#clip942)" style="stroke:#000000; stroke-linecap:round; stroke-linejoin:round; stroke-width:2; stroke-opacity:0.1; fill:none" points="310.845,1410.9 310.845,123.472 "/>
<polyline clip-path="url(#clip942)" style="stroke:#000000; stroke-linecap:round; stroke-linejoin:round; stroke-width:2; stroke-opacity:0.1; fill:none" points="1104.73,1410.9 1104.73,123.472 "/>
<polyline clip-path="url(#clip942)" style="stroke:#000000; stroke-linecap:round; stroke-linejoin:round; stroke-width:2; stroke-opacity:0.1; fill:none" points="1898.61,1410.9 1898.61,123.472 "/>
<polyline clip-path="url(#clip942)" style="stroke:#000000; stroke-linecap:round; stroke-linejoin:round; stroke-width:2; stroke-opacity:0.1; fill:none" points="251.372,1087.35 2352.76,1087.35 "/>
<polyline clip-path="url(#clip942)" style="stroke:#000000; stroke-linecap:round; stroke-linejoin:round; stroke-width:2; stroke-opacity:0.1; fill:none" points="251.372,761.387 2352.76,761.387 "/>
<polyline clip-path="url(#clip942)" style="stroke:#000000; stroke-linecap:round; stroke-linejoin:round; stroke-width:2; stroke-opacity:0.1; fill:none" points="251.372,435.424 2352.76,435.424 "/>
<polyline clip-path="url(#clip940)" style="stroke:#000000; stroke-linecap:round; stroke-linejoin:round; stroke-width:4; stroke-opacity:1; fill:none" points="251.372,1410.9 2352.76,1410.9 "/>
<polyline clip-path="url(#clip940)" style="stroke:#000000; stroke-linecap:round; stroke-linejoin:round; stroke-width:4; stroke-opacity:1; fill:none" points="310.845,1410.9 310.845,1392 "/>
<polyline clip-path="url(#clip940)" style="stroke:#000000; stroke-linecap:round; stroke-linejoin:round; stroke-width:4; stroke-opacity:1; fill:none" points="1104.73,1410.9 1104.73,1392 "/>
<polyline clip-path="url(#clip940)" style="stroke:#000000; stroke-linecap:round; stroke-linejoin:round; stroke-width:4; stroke-opacity:1; fill:none" points="1898.61,1410.9 1898.61,1392 "/>
<path clip-path="url(#clip940)" d="M261.111 1485.02 L268.75 1485.02 L268.75 1458.66 L260.44 1460.32 L260.44 1456.06 L268.704 1454.4 L273.379 1454.4 L273.379 1485.02 L281.018 1485.02 L281.018 1488.96 L261.111 1488.96 L261.111 1485.02 Z" fill="#000000" fill-rule="nonzero" fill-opacity="1" /><path clip-path="url(#clip940)" d="M300.463 1457.48 Q296.852 1457.48 295.023 1461.04 Q293.217 1464.58 293.217 1471.71 Q293.217 1478.82 295.023 1482.38 Q296.852 1485.92 300.463 1485.92 Q304.097 1485.92 305.902 1482.38 Q307.731 1478.82 307.731 1471.71 Q307.731 1464.58 305.902 1461.04 Q304.097 1457.48 300.463 1457.48 M300.463 1453.77 Q306.273 1453.77 309.328 1458.38 Q312.407 1462.96 312.407 1471.71 Q312.407 1480.44 309.328 1485.04 Q306.273 1489.63 300.463 1489.63 Q294.653 1489.63 291.574 1485.04 Q288.518 1480.44 288.518 1471.71 Q288.518 1462.96 291.574 1458.38 Q294.653 1453.77 300.463 1453.77 Z" fill="#000000" fill-rule="nonzero" fill-opacity="1" /><path clip-path="url(#clip940)" d="M312.407 1447.87 L336.519 1447.87 L336.519 1451.07 L312.407 1451.07 L312.407 1447.87 Z" fill="#000000" fill-rule="nonzero" fill-opacity="1" /><path clip-path="url(#clip940)" d="M347.991 1458.35 L361.251 1458.35 L361.251 1461.55 L343.421 1461.55 L343.421 1458.35 Q345.584 1456.11 349.308 1452.35 Q353.051 1448.57 354.01 1447.48 Q355.834 1445.43 356.549 1444.02 Q357.282 1442.59 357.282 1441.22 Q357.282 1438.98 355.703 1437.57 Q354.142 1436.16 351.621 1436.16 Q349.835 1436.16 347.841 1436.78 Q345.866 1437.4 343.609 1438.66 L343.609 1434.82 Q345.904 1433.9 347.897 1433.43 Q349.891 1432.96 351.546 1432.96 Q355.909 1432.96 358.505 1435.14 Q361.1 1437.32 361.1 1440.97 Q361.1 1442.7 360.442 1444.26 Q359.803 1445.8 358.091 1447.91 Q357.621 1448.46 355.101 1451.07 Q352.58 1453.67 347.991 1458.35 Z" fill="#000000" fill-rule="nonzero" fill-opacity="1" /><path clip-path="url(#clip940)" d="M1054.84 1485.02 L1062.48 1485.02 L1062.48 1458.66 L1054.17 1460.32 L1054.17 1456.06 L1062.43 1454.4 L1067.11 1454.4 L1067.11 1485.02 L1074.75 1485.02 L1074.75 1488.96 L1054.84 1488.96 L1054.84 1485.02 Z" fill="#000000" fill-rule="nonzero" fill-opacity="1" /><path clip-path="url(#clip940)" d="M1094.19 1457.48 Q1090.58 1457.48 1088.75 1461.04 Q1086.95 1464.58 1086.95 1471.71 Q1086.95 1478.82 1088.75 1482.38 Q1090.58 1485.92 1094.19 1485.92 Q1097.83 1485.92 1099.63 1482.38 Q1101.46 1478.82 1101.46 1471.71 Q1101.46 1464.58 1099.63 1461.04 Q1097.83 1457.48 1094.19 1457.48 M1094.19 1453.77 Q1100 1453.77 1103.06 1458.38 Q1106.14 1462.96 1106.14 1471.71 Q1106.14 1480.44 1103.06 1485.04 Q1100 1489.63 1094.19 1489.63 Q1088.38 1489.63 1085.3 1485.04 Q1082.25 1480.44 1082.25 1471.71 Q1082.25 1462.96 1085.3 1458.38 Q1088.38 1453.77 1094.19 1453.77 Z" fill="#000000" fill-rule="nonzero" fill-opacity="1" /><path clip-path="url(#clip940)" d="M1106.14 1447.87 L1130.25 1447.87 L1130.25 1451.07 L1106.14 1451.07 L1106.14 1447.87 Z" fill="#000000" fill-rule="nonzero" fill-opacity="1" /><path clip-path="url(#clip940)" d="M1139.11 1458.35 L1145.31 1458.35 L1145.31 1436.93 L1138.56 1438.28 L1138.56 1434.82 L1145.28 1433.47 L1149.07 1433.47 L1149.07 1458.35 L1155.28 1458.35 L1155.28 1461.55 L1139.11 1461.55 L1139.11 1458.35 Z" fill="#000000" fill-rule="nonzero" fill-opacity="1" /><path clip-path="url(#clip940)" d="M1863.59 1485.02 L1871.23 1485.02 L1871.23 1458.66 L1862.92 1460.32 L1862.92 1456.06 L1871.18 1454.4 L1875.86 1454.4 L1875.86 1485.02 L1883.5 1485.02 L1883.5 1488.96 L1863.59 1488.96 L1863.59 1485.02 Z" fill="#000000" fill-rule="nonzero" fill-opacity="1" /><path clip-path="url(#clip940)" d="M1902.94 1457.48 Q1899.33 1457.48 1897.5 1461.04 Q1895.69 1464.58 1895.69 1471.71 Q1895.69 1478.82 1897.5 1482.38 Q1899.33 1485.92 1902.94 1485.92 Q1906.57 1485.92 1908.38 1482.38 Q1910.21 1478.82 1910.21 1471.71 Q1910.21 1464.58 1908.38 1461.04 Q1906.57 1457.48 1902.94 1457.48 M1902.94 1453.77 Q1908.75 1453.77 1911.81 1458.38 Q1914.88 1462.96 1914.88 1471.71 Q1914.88 1480.44 1911.81 1485.04 Q1908.75 1489.63 1902.94 1489.63 Q1897.13 1489.63 1894.05 1485.04 Q1891 1480.44 1891 1471.71 Q1891 1462.96 1894.05 1458.38 Q1897.13 1453.77 1902.94 1453.77 Z" fill="#000000" fill-rule="nonzero" fill-opacity="1" /><path clip-path="url(#clip940)" d="M1924.59 1435.97 Q1921.66 1435.97 1920.17 1438.86 Q1918.7 1441.74 1918.7 1447.53 Q1918.7 1453.31 1920.17 1456.2 Q1921.66 1459.08 1924.59 1459.08 Q1927.54 1459.08 1929.01 1456.2 Q1930.49 1453.31 1930.49 1447.53 Q1930.49 1441.74 1929.01 1438.86 Q1927.54 1435.97 1924.59 1435.97 M1924.59 1432.96 Q1929.31 1432.96 1931.79 1436.7 Q1934.29 1440.43 1934.29 1447.53 Q1934.29 1454.62 1931.79 1458.37 Q1929.31 1462.09 1924.59 1462.09 Q1919.87 1462.09 1917.37 1458.37 Q1914.88 1454.62 1914.88 1447.53 Q1914.88 1440.43 1917.37 1436.7 Q1919.87 1432.96 1924.59 1432.96 Z" fill="#000000" fill-rule="nonzero" fill-opacity="1" /><path clip-path="url(#clip940)" d="M1021.88 1526.67 L1049.19 1526.67 L1049.19 1532.08 L1028.31 1532.08 L1028.31 1546.08 L1047.15 1546.08 L1047.15 1551.49 L1028.31 1551.49 L1028.31 1574.19 L1021.88 1574.19 L1021.88 1526.67 Z" fill="#000000" fill-rule="nonzero" fill-opacity="1" /><path clip-path="url(#clip940)" d="M1075.03 1544.01 Q1074.04 1543.44 1072.87 1543.18 Q1071.72 1542.9 1070.32 1542.9 Q1065.36 1542.9 1062.68 1546.14 Q1060.04 1549.36 1060.04 1555.41 L1060.04 1574.19 L1054.15 1574.19 L1054.15 1538.54 L1060.04 1538.54 L1060.04 1544.08 Q1061.89 1540.83 1064.85 1539.27 Q1067.81 1537.68 1072.04 1537.68 Q1072.64 1537.68 1073.38 1537.77 Q1074.11 1537.84 1075 1538 L1075.03 1544.01 Z" fill="#000000" fill-rule="nonzero" fill-opacity="1" /><path clip-path="url(#clip940)" d="M1110.23 1554.9 L1110.23 1557.76 L1083.31 1557.76 Q1083.69 1563.81 1086.93 1566.99 Q1090.21 1570.14 1096.04 1570.14 Q1099.41 1570.14 1102.56 1569.32 Q1105.75 1568.49 1108.86 1566.83 L1108.86 1572.37 Q1105.71 1573.71 1102.4 1574.41 Q1099.09 1575.11 1095.69 1575.11 Q1087.16 1575.11 1082.16 1570.14 Q1077.2 1565.18 1077.2 1556.71 Q1077.2 1547.96 1081.91 1542.83 Q1086.65 1537.68 1094.67 1537.68 Q1101.86 1537.68 1106.03 1542.33 Q1110.23 1546.94 1110.23 1554.9 M1104.38 1553.18 Q1104.31 1548.37 1101.67 1545.51 Q1099.06 1542.64 1094.73 1542.64 Q1089.83 1542.64 1086.87 1545.41 Q1083.94 1548.18 1083.5 1553.21 L1104.38 1553.18 Z" fill="#000000" fill-rule="nonzero" fill-opacity="1" /><path clip-path="url(#clip940)" d="M1123.35 1556.39 Q1123.35 1562.85 1125.99 1566.55 Q1128.66 1570.21 1133.31 1570.21 Q1137.96 1570.21 1140.63 1566.55 Q1143.3 1562.85 1143.3 1556.39 Q1143.3 1549.93 1140.63 1546.27 Q1137.96 1542.58 1133.31 1542.58 Q1128.66 1542.58 1125.99 1546.27 Q1123.35 1549.93 1123.35 1556.39 M1143.3 1568.84 Q1141.46 1572.02 1138.62 1573.58 Q1135.82 1575.11 1131.88 1575.11 Q1125.42 1575.11 1121.34 1569.95 Q1117.3 1564.8 1117.3 1556.39 Q1117.3 1547.99 1121.34 1542.83 Q1125.42 1537.68 1131.88 1537.68 Q1135.82 1537.68 1138.62 1539.24 Q1141.46 1540.77 1143.3 1543.95 L1143.3 1538.54 L1149.16 1538.54 L1149.16 1587.74 L1143.3 1587.74 L1143.3 1568.84 Z" fill="#000000" fill-rule="nonzero" fill-opacity="1" /><path clip-path="url(#clip940)" d="M1160.62 1560.12 L1160.62 1538.54 L1166.47 1538.54 L1166.47 1559.89 Q1166.47 1564.96 1168.45 1567.5 Q1170.42 1570.02 1174.37 1570.02 Q1179.11 1570.02 1181.85 1566.99 Q1184.62 1563.97 1184.62 1558.75 L1184.62 1538.54 L1190.47 1538.54 L1190.47 1574.19 L1184.62 1574.19 L1184.62 1568.71 Q1182.48 1571.96 1179.65 1573.55 Q1176.85 1575.11 1173.13 1575.11 Q1166.98 1575.11 1163.8 1571.29 Q1160.62 1567.47 1160.62 1560.12 M1175.35 1537.68 L1175.35 1537.68 Z" fill="#000000" fill-rule="nonzero" fill-opacity="1" /><path clip-path="url(#clip940)" d="M1233.03 1554.9 L1233.03 1557.76 L1206.1 1557.76 Q1206.48 1563.81 1209.73 1566.99 Q1213.01 1570.14 1218.83 1570.14 Q1222.21 1570.14 1225.36 1569.32 Q1228.54 1568.49 1231.66 1566.83 L1231.66 1572.37 Q1228.51 1573.71 1225.2 1574.41 Q1221.89 1575.11 1218.48 1575.11 Q1209.95 1575.11 1204.96 1570.14 Q1199.99 1565.18 1199.99 1556.71 Q1199.99 1547.96 1204.7 1542.83 Q1209.44 1537.68 1217.46 1537.68 Q1224.66 1537.68 1228.83 1542.33 Q1233.03 1546.94 1233.03 1554.9 M1227.17 1553.18 Q1227.11 1548.37 1224.47 1545.51 Q1221.86 1542.64 1217.53 1542.64 Q1212.63 1542.64 1209.67 1545.41 Q1206.74 1548.18 1206.29 1553.21 L1227.17 1553.18 Z" fill="#000000" fill-rule="nonzero" fill-opacity="1" /><path clip-path="url(#clip940)" d="M1272.27 1552.67 L1272.27 1574.19 L1266.42 1574.19 L1266.42 1552.86 Q1266.42 1547.8 1264.44 1545.29 Q1262.47 1542.77 1258.52 1542.77 Q1253.78 1542.77 1251.04 1545.79 Q1248.31 1548.82 1248.31 1554.04 L1248.31 1574.19 L1242.42 1574.19 L1242.42 1538.54 L1248.31 1538.54 L1248.31 1544.08 Q1250.41 1540.86 1253.24 1539.27 Q1256.1 1537.68 1259.83 1537.68 Q1265.97 1537.68 1269.12 1541.5 Q1272.27 1545.29 1272.27 1552.67 Z" fill="#000000" fill-rule="nonzero" fill-opacity="1" /><path clip-path="url(#clip940)" d="M1309.61 1539.91 L1309.61 1545.38 Q1307.12 1544.01 1304.61 1543.34 Q1302.13 1542.64 1299.58 1542.64 Q1293.88 1542.64 1290.73 1546.27 Q1287.58 1549.87 1287.58 1556.39 Q1287.58 1562.92 1290.73 1566.55 Q1293.88 1570.14 1299.58 1570.14 Q1302.13 1570.14 1304.61 1569.47 Q1307.12 1568.77 1309.61 1567.41 L1309.61 1572.82 Q1307.16 1573.96 1304.51 1574.54 Q1301.9 1575.11 1298.94 1575.11 Q1290.89 1575.11 1286.15 1570.05 Q1281.41 1564.99 1281.41 1556.39 Q1281.41 1547.67 1286.18 1542.68 Q1290.99 1537.68 1299.33 1537.68 Q1302.03 1537.68 1304.61 1538.25 Q1307.19 1538.79 1309.61 1539.91 Z" fill="#000000" fill-rule="nonzero" fill-opacity="1" /><path clip-path="url(#clip940)" d="M1334.62 1577.5 Q1332.14 1583.86 1329.79 1585.8 Q1327.43 1587.74 1323.48 1587.74 L1318.81 1587.74 L1318.81 1582.84 L1322.24 1582.84 Q1324.66 1582.84 1326 1581.7 Q1327.34 1580.55 1328.96 1576.29 L1330.01 1573.61 L1315.59 1538.54 L1321.8 1538.54 L1332.94 1566.42 L1344.08 1538.54 L1350.28 1538.54 L1334.62 1577.5 Z" fill="#000000" fill-rule="nonzero" fill-opacity="1" /><path clip-path="url(#clip940)" d="M1378.55 1524.66 L1392.04 1524.66 L1392.04 1529.21 L1384.4 1529.21 L1384.4 1578.23 L1392.04 1578.23 L1392.04 1582.78 L1378.55 1582.78 L1378.55 1524.66 Z" fill="#000000" fill-rule="nonzero" fill-opacity="1" /><path clip-path="url(#clip940)" d="M1425.18 1544.01 Q1424.19 1543.44 1423.01 1543.18 Q1421.87 1542.9 1420.47 1542.9 Q1415.5 1542.9 1412.83 1546.14 Q1410.19 1549.36 1410.19 1555.41 L1410.19 1574.19 L1404.3 1574.19 L1404.3 1538.54 L1410.19 1538.54 L1410.19 1544.08 Q1412.03 1540.83 1414.99 1539.27 Q1417.95 1537.68 1422.18 1537.68 Q1422.79 1537.68 1423.52 1537.77 Q1424.25 1537.84 1425.14 1538 L1425.18 1544.01 Z" fill="#000000" fill-rule="nonzero" fill-opacity="1" /><path clip-path="url(#clip940)" d="M1447.52 1556.27 Q1440.42 1556.27 1437.69 1557.89 Q1434.95 1559.51 1434.95 1563.43 Q1434.95 1566.55 1436.99 1568.39 Q1439.05 1570.21 1442.59 1570.21 Q1447.46 1570.21 1450.39 1566.77 Q1453.35 1563.3 1453.35 1557.57 L1453.35 1556.27 L1447.52 1556.27 M1459.2 1553.85 L1459.2 1574.19 L1453.35 1574.19 L1453.35 1568.77 Q1451.34 1572.02 1448.35 1573.58 Q1445.36 1575.11 1441.03 1575.11 Q1435.55 1575.11 1432.31 1572.05 Q1429.09 1568.97 1429.09 1563.81 Q1429.09 1557.79 1433.1 1554.74 Q1437.14 1551.68 1445.13 1551.68 L1453.35 1551.68 L1453.35 1551.11 Q1453.35 1547.07 1450.67 1544.87 Q1448.03 1542.64 1443.22 1542.64 Q1440.17 1542.64 1437.27 1543.38 Q1434.38 1544.11 1431.7 1545.57 L1431.7 1540.16 Q1434.92 1538.92 1437.94 1538.31 Q1440.96 1537.68 1443.83 1537.68 Q1451.56 1537.68 1455.38 1541.69 Q1459.2 1545.7 1459.2 1553.85 Z" fill="#000000" fill-rule="nonzero" fill-opacity="1" /><path clip-path="url(#clip940)" d="M1494.72 1543.95 L1494.72 1524.66 L1500.58 1524.66 L1500.58 1574.19 L1494.72 1574.19 L1494.72 1568.84 Q1492.88 1572.02 1490.04 1573.58 Q1487.24 1575.11 1483.3 1575.11 Q1476.83 1575.11 1472.76 1569.95 Q1468.72 1564.8 1468.72 1556.39 Q1468.72 1547.99 1472.76 1542.83 Q1476.83 1537.68 1483.3 1537.68 Q1487.24 1537.68 1490.04 1539.24 Q1492.88 1540.77 1494.72 1543.95 M1474.77 1556.39 Q1474.77 1562.85 1477.41 1566.55 Q1480.08 1570.21 1484.73 1570.21 Q1489.37 1570.21 1492.05 1566.55 Q1494.72 1562.85 1494.72 1556.39 Q1494.72 1549.93 1492.05 1546.27 Q1489.37 1542.58 1484.73 1542.58 Q1480.08 1542.58 1477.41 1546.27 Q1474.77 1549.93 1474.77 1556.39 Z" fill="#000000" fill-rule="nonzero" fill-opacity="1" /><path clip-path="url(#clip940)" d="M1523.05 1526.67 L1528.46 1526.67 L1511.91 1580.23 L1506.5 1580.23 L1523.05 1526.67 Z" fill="#000000" fill-rule="nonzero" fill-opacity="1" /><path clip-path="url(#clip940)" d="M1557.33 1539.59 L1557.33 1545.13 Q1554.85 1543.85 1552.17 1543.22 Q1549.5 1542.58 1546.63 1542.58 Q1542.27 1542.58 1540.08 1543.92 Q1537.91 1545.25 1537.91 1547.93 Q1537.91 1549.96 1539.47 1551.14 Q1541.03 1552.29 1545.74 1553.34 L1547.75 1553.78 Q1553.99 1555.12 1556.6 1557.57 Q1559.24 1559.99 1559.24 1564.35 Q1559.24 1569.32 1555.29 1572.21 Q1551.38 1575.11 1544.5 1575.11 Q1541.64 1575.11 1538.52 1574.54 Q1535.43 1573.99 1531.99 1572.88 L1531.99 1566.83 Q1535.24 1568.52 1538.39 1569.38 Q1541.54 1570.21 1544.63 1570.21 Q1548.77 1570.21 1550.99 1568.81 Q1553.22 1567.37 1553.22 1564.8 Q1553.22 1562.41 1551.6 1561.14 Q1550.01 1559.86 1544.57 1558.68 L1542.53 1558.21 Q1537.09 1557.06 1534.67 1554.71 Q1532.25 1552.32 1532.25 1548.18 Q1532.25 1543.15 1535.81 1540.42 Q1539.38 1537.68 1545.93 1537.68 Q1549.18 1537.68 1552.05 1538.16 Q1554.91 1538.63 1557.33 1539.59 Z" fill="#000000" fill-rule="nonzero" fill-opacity="1" /><path clip-path="url(#clip940)" d="M1582.25 1524.66 L1582.25 1582.78 L1568.76 1582.78 L1568.76 1578.23 L1576.36 1578.23 L1576.36 1529.21 L1568.76 1529.21 L1568.76 1524.66 L1582.25 1524.66 Z" fill="#000000" fill-rule="nonzero" fill-opacity="1" /><polyline clip-path="url(#clip940)" style="stroke:#000000; stroke-linecap:round; stroke-linejoin:round; stroke-width:4; stroke-opacity:1; fill:none" points="251.372,1410.9 251.372,123.472 "/>
<polyline clip-path="url(#clip940)" style="stroke:#000000; stroke-linecap:round; stroke-linejoin:round; stroke-width:4; stroke-opacity:1; fill:none" points="251.372,1087.35 270.27,1087.35 "/>
<polyline clip-path="url(#clip940)" style="stroke:#000000; stroke-linecap:round; stroke-linejoin:round; stroke-width:4; stroke-opacity:1; fill:none" points="251.372,761.387 270.27,761.387 "/>
<polyline clip-path="url(#clip940)" style="stroke:#000000; stroke-linecap:round; stroke-linejoin:round; stroke-width:4; stroke-opacity:1; fill:none" points="251.372,435.424 270.27,435.424 "/>
<path clip-path="url(#clip940)" d="M115.232 1107.14 L122.871 1107.14 L122.871 1080.78 L114.561 1082.44 L114.561 1078.18 L122.825 1076.52 L127.501 1076.52 L127.501 1107.14 L135.14 1107.14 L135.14 1111.08 L115.232 1111.08 L115.232 1107.14 Z" fill="#000000" fill-rule="nonzero" fill-opacity="1" /><path clip-path="url(#clip940)" d="M154.584 1079.6 Q150.973 1079.6 149.144 1083.16 Q147.339 1086.7 147.339 1093.83 Q147.339 1100.94 149.144 1104.5 Q150.973 1108.05 154.584 1108.05 Q158.218 1108.05 160.024 1104.5 Q161.852 1100.94 161.852 1093.83 Q161.852 1086.7 160.024 1083.16 Q158.218 1079.6 154.584 1079.6 M154.584 1075.89 Q160.394 1075.89 163.45 1080.5 Q166.528 1085.08 166.528 1093.83 Q166.528 1102.56 163.45 1107.17 Q160.394 1111.75 154.584 1111.75 Q148.774 1111.75 145.695 1107.17 Q142.64 1102.56 142.64 1093.83 Q142.64 1085.08 145.695 1080.5 Q148.774 1075.89 154.584 1075.89 Z" fill="#000000" fill-rule="nonzero" fill-opacity="1" /><path clip-path="url(#clip940)" d="M166.528 1069.99 L190.64 1069.99 L190.64 1073.19 L166.528 1073.19 L166.528 1069.99 Z" fill="#000000" fill-rule="nonzero" fill-opacity="1" /><path clip-path="url(#clip940)" d="M202.113 1080.47 L215.372 1080.47 L215.372 1083.67 L197.542 1083.67 L197.542 1080.47 Q199.705 1078.23 203.429 1074.47 Q207.172 1070.69 208.131 1069.6 Q209.956 1067.55 210.67 1066.14 Q211.404 1064.71 211.404 1063.34 Q211.404 1061.1 209.824 1059.69 Q208.263 1058.28 205.743 1058.28 Q203.956 1058.28 201.962 1058.9 Q199.987 1059.52 197.73 1060.78 L197.73 1056.94 Q200.025 1056.02 202.019 1055.55 Q204.012 1055.08 205.667 1055.08 Q210.031 1055.08 212.626 1057.26 Q215.222 1059.44 215.222 1063.09 Q215.222 1064.82 214.563 1066.38 Q213.924 1067.92 212.212 1070.03 Q211.742 1070.58 209.222 1073.19 Q206.702 1075.79 202.113 1080.47 Z" fill="#000000" fill-rule="nonzero" fill-opacity="1" /><path clip-path="url(#clip940)" d="M114.931 781.179 L122.57 781.179 L122.57 754.814 L114.26 756.48 L114.26 752.221 L122.524 750.554 L127.2 750.554 L127.2 781.179 L134.839 781.179 L134.839 785.114 L114.931 785.114 L114.931 781.179 Z" fill="#000000" fill-rule="nonzero" fill-opacity="1" /><path clip-path="url(#clip940)" d="M154.283 753.633 Q150.672 753.633 148.843 757.198 Q147.038 760.74 147.038 767.869 Q147.038 774.976 148.843 778.54 Q150.672 782.082 154.283 782.082 Q157.917 782.082 159.723 778.54 Q161.552 774.976 161.552 767.869 Q161.552 760.74 159.723 757.198 Q157.917 753.633 154.283 753.633 M154.283 749.929 Q160.093 749.929 163.149 754.536 Q166.227 759.119 166.227 767.869 Q166.227 776.596 163.149 781.202 Q160.093 785.786 154.283 785.786 Q148.473 785.786 145.394 781.202 Q142.339 776.596 142.339 767.869 Q142.339 759.119 145.394 754.536 Q148.473 749.929 154.283 749.929 Z" fill="#000000" fill-rule="nonzero" fill-opacity="1" /><path clip-path="url(#clip940)" d="M166.227 744.031 L190.339 744.031 L190.339 747.228 L166.227 747.228 L166.227 744.031 Z" fill="#000000" fill-rule="nonzero" fill-opacity="1" /><path clip-path="url(#clip940)" d="M199.197 754.507 L205.404 754.507 L205.404 733.085 L198.652 734.439 L198.652 730.978 L205.366 729.624 L209.166 729.624 L209.166 754.507 L215.372 754.507 L215.372 757.704 L199.197 757.704 L199.197 754.507 Z" fill="#000000" fill-rule="nonzero" fill-opacity="1" /><path clip-path="url(#clip940)" d="M144.667 455.216 L152.305 455.216 L152.305 428.851 L143.995 430.517 L143.995 426.258 L152.259 424.591 L156.935 424.591 L156.935 455.216 L164.574 455.216 L164.574 459.151 L144.667 459.151 L144.667 455.216 Z" fill="#000000" fill-rule="nonzero" fill-opacity="1" /><path clip-path="url(#clip940)" d="M184.018 427.67 Q180.407 427.67 178.578 431.235 Q176.773 434.777 176.773 441.906 Q176.773 449.013 178.578 452.577 Q180.407 456.119 184.018 456.119 Q187.652 456.119 189.458 452.577 Q191.287 449.013 191.287 441.906 Q191.287 434.777 189.458 431.235 Q187.652 427.67 184.018 427.67 M184.018 423.966 Q189.828 423.966 192.884 428.573 Q195.963 433.156 195.963 441.906 Q195.963 450.633 192.884 455.239 Q189.828 459.823 184.018 459.823 Q178.208 459.823 175.129 455.239 Q172.074 450.633 172.074 441.906 Q172.074 433.156 175.129 428.573 Q178.208 423.966 184.018 423.966 Z" fill="#000000" fill-rule="nonzero" fill-opacity="1" /><path clip-path="url(#clip940)" d="M205.667 406.162 Q202.733 406.162 201.248 409.059 Q199.781 411.936 199.781 417.729 Q199.781 423.503 201.248 426.4 Q202.733 429.277 205.667 429.277 Q208.62 429.277 210.087 426.4 Q211.573 423.503 211.573 417.729 Q211.573 411.936 210.087 409.059 Q208.62 406.162 205.667 406.162 M205.667 403.153 Q210.388 403.153 212.871 406.896 Q215.372 410.62 215.372 417.729 Q215.372 424.82 212.871 428.563 Q210.388 432.286 205.667 432.286 Q200.947 432.286 198.445 428.563 Q195.963 424.82 195.963 417.729 Q195.963 410.62 198.445 406.896 Q200.947 403.153 205.667 403.153 Z" fill="#000000" fill-rule="nonzero" fill-opacity="1" /><path clip-path="url(#clip940)" d="M18.0438 995.825 L24.314 995.825 Q22.5634 999.485 21.704 1002.73 Q20.8447 1005.98 20.8447 1009 Q20.8447 1014.25 22.8817 1017.12 Q24.9187 1019.95 28.6745 1019.95 Q31.8255 1019.95 33.4488 1018.07 Q35.0402 1016.16 36.0269 1010.88 L36.8226 1007 Q38.1912 999.803 41.6605 996.398 Q45.098 992.96 50.8908 992.96 Q57.7976 992.96 61.3624 997.607 Q64.9272 1002.22 64.9272 1011.17 Q64.9272 1014.54 64.1633 1018.36 Q63.3994 1022.15 61.9035 1026.22 L55.2831 1026.22 Q57.4793 1022.31 58.5933 1018.55 Q59.7073 1014.79 59.7073 1011.17 Q59.7073 1005.66 57.543 1002.67 Q55.3786 999.676 51.3682 999.676 Q47.8671 999.676 45.8937 1001.84 Q43.9204 1003.97 42.9337 1008.87 L42.1698 1012.79 Q40.7375 1019.98 37.682 1023.2 Q34.6264 1026.41 29.1837 1026.41 Q22.8817 1026.41 19.2532 1021.99 Q15.6248 1017.53 15.6248 1009.73 Q15.6248 1006.39 16.2295 1002.92 Q16.8343 999.453 18.0438 995.825 Z" fill="#000000" fill-rule="nonzero" fill-opacity="1" /><path clip-path="url(#clip940)" d="M28.3562 983.189 L28.3562 977.332 L64.0042 977.332 L64.0042 983.189 L28.3562 983.189 M14.479 983.189 L14.479 977.332 L21.895 977.332 L21.895 983.189 L14.479 983.189 Z" fill="#000000" fill-rule="nonzero" fill-opacity="1" /><path clip-path="url(#clip940)" d="M42.4881 935.446 L64.0042 935.446 L64.0042 941.302 L42.679 941.302 Q37.6183 941.302 35.1038 943.276 Q32.5894 945.249 32.5894 949.196 Q32.5894 953.938 35.6131 956.676 Q38.6368 959.413 43.8567 959.413 L64.0042 959.413 L64.0042 965.301 L28.3562 965.301 L28.3562 959.413 L33.8944 959.413 Q30.6797 957.312 29.0883 954.479 Q27.4968 951.615 27.4968 947.891 Q27.4968 941.748 31.3163 938.597 Q35.1038 935.446 42.4881 935.446 Z" fill="#000000" fill-rule="nonzero" fill-opacity="1" /><path clip-path="url(#clip940)" d="M45.7664 900.307 Q39.4007 900.307 35.8996 902.949 Q32.3984 905.559 32.3984 910.301 Q32.3984 915.012 35.8996 917.654 Q39.4007 920.264 45.7664 920.264 Q52.1003 920.264 55.6014 917.654 Q59.1026 915.012 59.1026 910.301 Q59.1026 905.559 55.6014 902.949 Q52.1003 900.307 45.7664 900.307 M59.58 894.451 Q68.683 894.451 73.1071 898.493 Q77.5631 902.535 77.5631 910.874 Q77.5631 913.962 77.0857 916.699 Q76.6401 919.436 75.6852 922.014 L69.9879 922.014 Q71.3884 919.436 72.0568 916.922 Q72.7252 914.407 72.7252 911.797 Q72.7252 906.036 69.7015 903.172 Q66.7096 900.307 60.6303 900.307 L57.7339 900.307 Q60.885 902.121 62.4446 904.954 Q64.0042 907.787 64.0042 911.734 Q64.0042 918.29 59.0071 922.301 Q54.01 926.311 45.7664 926.311 Q37.491 926.311 32.4939 922.301 Q27.4968 918.29 27.4968 911.734 Q27.4968 907.787 29.0564 904.954 Q30.616 902.121 33.7671 900.307 L28.3562 900.307 L28.3562 894.451 L59.58 894.451 Z" fill="#000000" fill-rule="nonzero" fill-opacity="1" /><path clip-path="url(#clip940)" d="M49.9359 882.993 L28.3562 882.993 L28.3562 877.136 L49.7131 877.136 Q54.7739 877.136 57.3202 875.163 Q59.8346 873.189 59.8346 869.243 Q59.8346 864.5 56.8109 861.763 Q53.7872 858.994 48.5673 858.994 L28.3562 858.994 L28.3562 853.137 L64.0042 853.137 L64.0042 858.994 L58.5296 858.994 Q61.7762 861.126 63.3676 863.959 Q64.9272 866.76 64.9272 870.484 Q64.9272 876.627 61.1078 879.81 Q57.2883 882.993 49.9359 882.993 M27.4968 868.256 L27.4968 868.256 Z" fill="#000000" fill-rule="nonzero" fill-opacity="1" /><path clip-path="url(#clip940)" d="M14.479 841.074 L14.479 835.218 L64.0042 835.218 L64.0042 841.074 L14.479 841.074 Z" fill="#000000" fill-rule="nonzero" fill-opacity="1" /><path clip-path="url(#clip940)" d="M46.0847 806.763 Q46.0847 813.861 47.7079 816.598 Q49.3312 819.335 53.2461 819.335 Q56.3653 819.335 58.2114 817.298 Q60.0256 815.23 60.0256 811.697 Q60.0256 806.827 56.5881 803.899 Q53.1188 800.939 47.3897 800.939 L46.0847 800.939 L46.0847 806.763 M43.6657 795.082 L64.0042 795.082 L64.0042 800.939 L58.5933 800.939 Q61.8398 802.944 63.3994 805.936 Q64.9272 808.928 64.9272 813.256 Q64.9272 818.731 61.8716 821.977 Q58.7843 825.192 53.6281 825.192 Q47.6125 825.192 44.5569 821.181 Q41.5014 817.139 41.5014 809.15 L41.5014 800.939 L40.9285 800.939 Q36.8862 800.939 34.6901 803.612 Q32.4621 806.254 32.4621 811.06 Q32.4621 814.116 33.1941 817.012 Q33.9262 819.908 35.3903 822.582 L29.9795 822.582 Q28.7381 819.367 28.1334 816.344 Q27.4968 813.32 27.4968 810.455 Q27.4968 802.721 31.5072 798.902 Q35.5176 795.082 43.6657 795.082 Z" fill="#000000" fill-rule="nonzero" fill-opacity="1" /><path clip-path="url(#clip940)" d="M33.8307 762.362 Q33.2578 763.349 33.0032 764.527 Q32.7167 765.673 32.7167 767.073 Q32.7167 772.038 35.9632 774.712 Q39.1779 777.354 45.2253 777.354 L64.0042 777.354 L64.0042 783.242 L28.3562 783.242 L28.3562 777.354 L33.8944 777.354 Q30.6479 775.508 29.0883 772.547 Q27.4968 769.587 27.4968 765.354 Q27.4968 764.75 27.5923 764.017 Q27.656 763.285 27.8151 762.394 L33.8307 762.362 Z" fill="#000000" fill-rule="nonzero" fill-opacity="1" /><path clip-path="url(#clip940)" d="M64.0042 722.99 L16.4842 741.133 L16.4842 734.417 L56.4926 719.362 L16.4842 704.275 L16.4842 697.591 L64.0042 715.702 L64.0042 722.99 Z" fill="#000000" fill-rule="nonzero" fill-opacity="1" /><path clip-path="url(#clip940)" d="M46.0847 679.767 Q46.0847 686.865 47.7079 689.602 Q49.3312 692.34 53.2461 692.34 Q56.3653 692.34 58.2114 690.303 Q60.0256 688.234 60.0256 684.701 Q60.0256 679.831 56.5881 676.903 Q53.1188 673.943 47.3897 673.943 L46.0847 673.943 L46.0847 679.767 M43.6657 668.086 L64.0042 668.086 L64.0042 673.943 L58.5933 673.943 Q61.8398 675.948 63.3994 678.94 Q64.9272 681.932 64.9272 686.26 Q64.9272 691.735 61.8716 694.981 Q58.7843 698.196 53.6281 698.196 Q47.6125 698.196 44.5569 694.186 Q41.5014 690.143 41.5014 682.154 L41.5014 673.943 L40.9285 673.943 Q36.8862 673.943 34.6901 676.616 Q32.4621 679.258 32.4621 684.064 Q32.4621 687.12 33.1941 690.016 Q33.9262 692.913 35.3903 695.586 L29.9795 695.586 Q28.7381 692.371 28.1334 689.348 Q27.4968 686.324 27.4968 683.459 Q27.4968 675.725 31.5072 671.906 Q35.5176 668.086 43.6657 668.086 Z" fill="#000000" fill-rule="nonzero" fill-opacity="1" /><path clip-path="url(#clip940)" d="M14.479 656.023 L14.479 650.167 L64.0042 650.167 L64.0042 656.023 L14.479 656.023 Z" fill="#000000" fill-rule="nonzero" fill-opacity="1" /><path clip-path="url(#clip940)" d="M49.9359 638.518 L28.3562 638.518 L28.3562 632.661 L49.7131 632.661 Q54.7739 632.661 57.3202 630.688 Q59.8346 628.714 59.8346 624.768 Q59.8346 620.025 56.8109 617.288 Q53.7872 614.519 48.5673 614.519 L28.3562 614.519 L28.3562 608.662 L64.0042 608.662 L64.0042 614.519 L58.5296 614.519 Q61.7762 616.651 63.3676 619.484 Q64.9272 622.285 64.9272 626.009 Q64.9272 632.152 61.1078 635.335 Q57.2883 638.518 49.9359 638.518 M27.4968 623.781 L27.4968 623.781 Z" fill="#000000" fill-rule="nonzero" fill-opacity="1" /><path clip-path="url(#clip940)" d="M44.7161 566.108 L47.5806 566.108 L47.5806 593.035 Q53.6281 592.653 56.8109 589.406 Q59.9619 586.128 59.9619 580.303 Q59.9619 576.929 59.1344 573.778 Q58.3069 570.595 56.6518 567.476 L62.1899 567.476 Q63.5267 570.627 64.227 573.937 Q64.9272 577.248 64.9272 580.653 Q64.9272 589.183 59.9619 594.18 Q54.9967 599.146 46.5303 599.146 Q37.7774 599.146 32.6531 594.435 Q27.4968 589.693 27.4968 581.672 Q27.4968 574.479 32.1438 570.309 Q36.7589 566.108 44.7161 566.108 M42.9973 571.964 Q38.1912 572.028 35.3266 574.67 Q32.4621 577.279 32.4621 581.608 Q32.4621 586.51 35.2312 589.47 Q38.0002 592.398 43.0292 592.844 L42.9973 571.964 Z" fill="#000000" fill-rule="nonzero" fill-opacity="1" /><path clip-path="url(#clip940)" d="M29.4065 533.77 L34.9447 533.77 Q33.6716 536.252 33.035 538.926 Q32.3984 541.6 32.3984 544.464 Q32.3984 548.825 33.7352 551.021 Q35.072 553.185 37.7456 553.185 Q39.7826 553.185 40.9603 551.626 Q42.1061 550.066 43.1565 545.355 L43.6021 543.35 Q44.9389 537.112 47.3897 534.502 Q49.8086 531.86 54.1691 531.86 Q59.1344 531.86 62.0308 535.807 Q64.9272 539.722 64.9272 546.597 Q64.9272 549.461 64.3543 552.58 Q63.8132 555.668 62.6992 559.105 L56.6518 559.105 Q58.3387 555.859 59.198 552.708 Q60.0256 549.557 60.0256 546.469 Q60.0256 542.332 58.6251 540.104 Q57.1929 537.876 54.6147 537.876 Q52.2276 537.876 50.9545 539.499 Q49.6813 541.09 48.5037 546.533 L48.0262 548.57 Q46.8804 554.013 44.5251 556.432 Q42.138 558.851 38.0002 558.851 Q32.9713 558.851 30.2341 555.286 Q27.4968 551.721 27.4968 545.164 Q27.4968 541.918 27.9743 539.053 Q28.4517 536.189 29.4065 533.77 Z" fill="#000000" fill-rule="nonzero" fill-opacity="1" /><path clip-path="url(#clip940)" d="M1123.34 14.0809 L1123.34 22.0612 Q1118.68 19.8332 1114.55 18.7395 Q1110.42 17.6457 1106.57 17.6457 Q1099.88 17.6457 1096.24 20.2383 Q1092.63 22.8309 1092.63 27.611 Q1092.63 31.6214 1095.02 33.6873 Q1097.45 35.7128 1104.18 36.9686 L1109.12 37.9813 Q1118.27 39.7232 1122.61 44.1387 Q1126.98 48.5136 1126.98 55.8863 Q1126.98 64.6767 1121.07 69.2137 Q1115.2 73.7508 1103.81 73.7508 Q1099.52 73.7508 1094.66 72.7785 Q1089.84 71.8063 1084.65 69.9024 L1084.65 61.4765 Q1089.63 64.2716 1094.41 65.6895 Q1099.19 67.1073 1103.81 67.1073 Q1110.82 67.1073 1114.63 64.3527 Q1118.44 61.598 1118.44 56.4939 Q1118.44 52.0379 1115.68 49.5264 Q1112.97 47.0148 1106.73 45.759 L1101.75 44.7868 Q1092.59 42.9639 1088.5 39.075 Q1084.41 35.1862 1084.41 28.2591 Q1084.41 20.2383 1090.04 15.6203 Q1095.71 11.0023 1105.64 11.0023 Q1109.89 11.0023 1114.3 11.7719 Q1118.72 12.5416 1123.34 14.0809 Z" fill="#000000" fill-rule="nonzero" fill-opacity="1" /><path clip-path="url(#clip940)" d="M1139.42 27.2059 L1146.87 27.2059 L1146.87 72.576 L1139.42 72.576 L1139.42 27.2059 M1139.42 9.54393 L1146.87 9.54393 L1146.87 18.9825 L1139.42 18.9825 L1139.42 9.54393 Z" fill="#000000" fill-rule="nonzero" fill-opacity="1" /><path clip-path="url(#clip940)" d="M1192.33 49.3643 Q1192.33 41.2625 1188.96 36.8065 Q1185.64 32.3505 1179.61 32.3505 Q1173.61 32.3505 1170.25 36.8065 Q1166.93 41.2625 1166.93 49.3643 Q1166.93 57.4256 1170.25 61.8816 Q1173.61 66.3376 1179.61 66.3376 Q1185.64 66.3376 1188.96 61.8816 Q1192.33 57.4256 1192.33 49.3643 M1199.78 66.9452 Q1199.78 78.5308 1194.63 84.1616 Q1189.49 89.8329 1178.88 89.8329 Q1174.95 89.8329 1171.46 89.2252 Q1167.98 88.6581 1164.7 87.4428 L1164.7 80.1917 Q1167.98 81.9741 1171.18 82.8248 Q1174.38 83.6755 1177.7 83.6755 Q1185.03 83.6755 1188.68 79.8271 Q1192.33 76.0193 1192.33 68.282 L1192.33 64.5957 Q1190.02 68.6061 1186.41 70.5911 Q1182.81 72.576 1177.78 72.576 Q1169.44 72.576 1164.33 66.2161 Q1159.23 59.8562 1159.23 49.3643 Q1159.23 38.832 1164.33 32.472 Q1169.44 26.1121 1177.78 26.1121 Q1182.81 26.1121 1186.41 28.0971 Q1190.02 30.082 1192.33 34.0924 L1192.33 27.2059 L1199.78 27.2059 L1199.78 66.9452 Z" fill="#000000" fill-rule="nonzero" fill-opacity="1" /><path clip-path="url(#clip940)" d="M1250.46 35.9153 Q1253.25 30.8922 1257.14 28.5022 Q1261.03 26.1121 1266.29 26.1121 Q1273.38 26.1121 1277.23 31.0947 Q1281.08 36.0368 1281.08 45.1919 L1281.08 72.576 L1273.59 72.576 L1273.59 45.4349 Q1273.59 38.913 1271.28 35.7533 Q1268.97 32.5936 1264.23 32.5936 Q1258.44 32.5936 1255.07 36.4419 Q1251.71 40.2903 1251.71 46.9338 L1251.71 72.576 L1244.22 72.576 L1244.22 45.4349 Q1244.22 38.8725 1241.91 35.7533 Q1239.6 32.5936 1234.78 32.5936 Q1229.07 32.5936 1225.7 36.4824 Q1222.34 40.3308 1222.34 46.9338 L1222.34 72.576 L1214.85 72.576 L1214.85 27.2059 L1222.34 27.2059 L1222.34 34.2544 Q1224.89 30.082 1228.46 28.0971 Q1232.02 26.1121 1236.93 26.1121 Q1241.87 26.1121 1245.31 28.6237 Q1248.79 31.1352 1250.46 35.9153 Z" fill="#000000" fill-rule="nonzero" fill-opacity="1" /><path clip-path="url(#clip940)" d="M1316.57 49.7694 Q1307.53 49.7694 1304.05 51.8354 Q1300.57 53.9013 1300.57 58.8839 Q1300.57 62.8538 1303.16 65.2034 Q1305.79 67.5124 1310.29 67.5124 Q1316.49 67.5124 1320.21 63.1374 Q1323.98 58.7219 1323.98 51.4303 L1323.98 49.7694 L1316.57 49.7694 M1331.43 46.6907 L1331.43 72.576 L1323.98 72.576 L1323.98 65.6895 Q1321.43 69.8214 1317.62 71.8063 Q1313.81 73.7508 1308.3 73.7508 Q1301.33 73.7508 1297.2 69.8619 Q1293.11 65.9325 1293.11 59.3701 Q1293.11 51.7138 1298.22 47.825 Q1303.36 43.9361 1313.53 43.9361 L1323.98 43.9361 L1323.98 43.2069 Q1323.98 38.0623 1320.58 35.2672 Q1317.21 32.4315 1311.1 32.4315 Q1307.21 32.4315 1303.52 33.3632 Q1299.84 34.295 1296.43 36.1584 L1296.43 29.2718 Q1300.52 27.692 1304.37 26.9223 Q1308.22 26.1121 1311.87 26.1121 Q1321.71 26.1121 1326.57 31.2163 Q1331.43 36.3204 1331.43 46.6907 Z" fill="#000000" fill-rule="nonzero" fill-opacity="1" /><path clip-path="url(#clip940)" d="M1381.66 18.8205 L1381.66 41.5461 L1391.95 41.5461 Q1397.67 41.5461 1400.78 38.5889 Q1403.9 35.6318 1403.9 30.163 Q1403.9 24.7348 1400.78 21.7777 Q1397.67 18.8205 1391.95 18.8205 L1381.66 18.8205 M1373.48 12.096 L1391.95 12.096 Q1402.12 12.096 1407.31 16.714 Q1412.53 21.2916 1412.53 30.163 Q1412.53 39.1155 1407.31 43.6931 Q1402.12 48.2706 1391.95 48.2706 L1381.66 48.2706 L1381.66 72.576 L1373.48 72.576 L1373.48 12.096 Z" fill="#000000" fill-rule="nonzero" fill-opacity="1" /><path clip-path="url(#clip940)" d="M1423.19 9.54393 L1430.64 9.54393 L1430.64 72.576 L1423.19 72.576 L1423.19 9.54393 Z" fill="#000000" fill-rule="nonzero" fill-opacity="1" /><path clip-path="url(#clip940)" d="M1463.82 32.4315 Q1457.82 32.4315 1454.34 37.1306 Q1450.85 41.7891 1450.85 49.9314 Q1450.85 58.0738 1454.3 62.7728 Q1457.78 67.4314 1463.82 67.4314 Q1469.77 67.4314 1473.26 62.7323 Q1476.74 58.0333 1476.74 49.9314 Q1476.74 41.8701 1473.26 37.1711 Q1469.77 32.4315 1463.82 32.4315 M1463.82 26.1121 Q1473.54 26.1121 1479.09 32.4315 Q1484.64 38.7509 1484.64 49.9314 Q1484.64 61.0714 1479.09 67.4314 Q1473.54 73.7508 1463.82 73.7508 Q1454.05 73.7508 1448.5 67.4314 Q1442.99 61.0714 1442.99 49.9314 Q1442.99 38.7509 1448.5 32.4315 Q1454.05 26.1121 1463.82 26.1121 Z" fill="#000000" fill-rule="nonzero" fill-opacity="1" /><path clip-path="url(#clip940)" d="M1504.37 14.324 L1504.37 27.2059 L1519.72 27.2059 L1519.72 32.9987 L1504.37 32.9987 L1504.37 57.6282 Q1504.37 63.1779 1505.87 64.7578 Q1507.4 66.3376 1512.06 66.3376 L1519.72 66.3376 L1519.72 72.576 L1512.06 72.576 Q1503.43 72.576 1500.15 69.3758 Q1496.87 66.1351 1496.87 57.6282 L1496.87 32.9987 L1491.4 32.9987 L1491.4 27.2059 L1496.87 27.2059 L1496.87 14.324 L1504.37 14.324 Z" fill="#000000" fill-rule="nonzero" fill-opacity="1" /><polyline clip-path="url(#clip942)" style="stroke:#009af9; stroke-linecap:round; stroke-linejoin:round; stroke-width:4; stroke-opacity:1; fill:none" points="310.845,159.909 320.807,160.089 330.769,160.277 340.731,160.474 350.693,160.681 360.655,160.897 370.617,161.124 380.579,161.361 390.541,161.609 400.503,161.87 410.465,162.142 420.427,162.428 430.389,162.727 440.351,163.041 450.313,163.369 460.275,163.713 470.237,164.074 480.199,164.452 490.161,164.848 500.123,165.262 510.085,165.697 520.047,166.152 530.009,166.629 539.971,167.128 549.933,167.651 559.895,168.198 569.857,168.771 579.819,169.371 589.781,169.998 599.743,170.653 609.705,171.339 619.667,172.055 629.629,172.803 639.591,173.583 649.553,174.398 659.515,175.248 669.477,176.133 679.439,177.055 689.401,178.015 699.363,179.014 709.325,180.052 719.287,181.13 729.249,182.249 739.211,183.41 749.173,184.612 759.135,185.856 769.097,187.143 779.059,188.473 789.021,189.845 798.983,191.26 808.945,192.717 818.907,194.216 828.869,195.755 838.831,197.335 848.793,198.953 858.755,200.609 868.717,202.301 878.679,204.027 888.641,205.784 898.603,207.571 908.565,209.384 918.527,211.219 928.489,213.074 938.451,214.943 948.413,216.822 958.375,218.706 968.337,220.588 978.299,222.462 988.261,224.32 998.223,226.154 1008.19,227.954 1018.15,229.711 1028.11,231.413 1038.07,233.048 1048.03,234.603 1058,236.065 1067.96,237.418 1077.92,238.648 1087.88,239.741 1097.84,240.684 1107.81,241.464 1117.77,242.074 1127.73,242.508 1137.69,242.766 1147.65,242.855 1157.62,242.786 1167.58,242.58 1177.54,242.263 1187.5,241.869 1197.46,241.436 1207.43,241.009 1217.39,240.634 1227.35,240.361 1237.31,240.239 1247.27,240.313 1257.24,240.628 1267.2,241.222 1277.16,242.124 1287.12,243.36 1297.08,244.944 1307.05,246.882 1317.01,249.173 1326.97,251.81 1336.93,254.778 1346.89,258.057 1356.86,261.627 1366.82,265.464 1376.78,269.544 1386.74,273.842 1396.7,278.338 1406.67,283.009 1416.63,287.838 1426.59,292.81 1436.55,297.909 1446.51,303.125 1456.47,308.449 1466.44,313.874 1476.4,319.395 1486.36,325.009 1496.32,330.713 1506.28,336.507 1516.25,342.391 1526.21,348.365 1536.17,354.433 1546.13,360.596 1556.09,366.856 1566.06,373.217 1576.02,379.681 1585.98,386.251 1595.94,392.93 1605.9,399.719 1615.87,406.62 1625.83,413.634 1635.79,420.761 1645.75,428 1655.71,435.348 1665.68,442.802 1675.64,450.354 1685.6,457.997 1695.56,465.717 1705.52,473.499 1715.49,481.32 1725.45,489.154 1735.41,496.964 1745.37,504.707 1755.33,512.33 1765.3,519.772 1775.26,526.968 1785.22,533.851 1795.18,540.367 1805.14,546.475 1815.11,552.156 1825.07,557.413 1835.03,562.265 1844.99,566.74 1854.95,570.871 1864.92,574.692 1874.88,578.234 1884.84,581.525 1894.8,584.588 1904.76,587.447 1914.73,590.121 1924.69,592.627 1934.65,594.984 1944.61,597.207 1954.57,599.314 1964.54,601.32 1974.5,603.243 1984.46,605.099 1994.42,606.905 2004.38,608.679 2014.35,610.44 2024.31,612.205 2034.27,613.994 2044.23,615.827 2054.19,617.723 2064.16,619.704 2074.12,621.791 2084.08,624.006 2094.04,626.373 2104,628.916 2113.97,631.66 2123.93,634.632 2133.89,637.86 2143.85,641.372 2153.81,645.199 2163.78,649.369 2173.74,653.912 2183.7,658.852 2193.66,664.208 2203.62,669.987 2213.59,676.176 2223.55,682.731 2233.51,689.558 2243.47,696.495 2253.43,703.276 2263.4,709.515 2273.36,714.695 2283.32,718.21 2293.28,719.482 "/>
<polyline clip-path="url(#clip942)" style="stroke:#009af9; stroke-linecap:round; stroke-linejoin:round; stroke-width:4; stroke-opacity:1; fill:none" points="310.845,237.394 320.807,238.609 330.769,239.867 340.731,241.168 350.693,242.511 360.655,243.896 370.617,245.324 380.579,246.794 390.541,248.305 400.503,249.857 410.465,251.45 420.427,253.082 430.389,254.752 440.351,256.46 450.313,258.204 460.275,259.983 470.237,261.794 480.199,263.637 490.161,265.51 500.123,267.41 510.085,269.335 520.047,271.284 530.009,273.253 539.971,275.24 549.933,277.244 559.895,279.26 569.857,281.286 579.819,283.319 589.781,285.357 599.743,287.396 609.705,289.434 619.667,291.466 629.629,293.49 639.591,295.502 649.553,297.5 659.515,299.48 669.477,301.439 679.439,303.373 689.401,305.279 699.363,307.155 709.325,308.996 719.287,310.799 729.249,312.563 739.211,314.282 749.173,315.955 759.135,317.578 769.097,319.149 779.059,320.665 789.021,322.122 798.983,323.519 808.945,324.853 818.907,326.122 828.869,327.323 838.831,328.454 848.793,329.513 858.755,330.499 868.717,331.409 878.679,332.243 888.641,332.999 898.603,333.675 908.565,334.272 918.527,334.79 928.489,335.227 938.451,335.585 948.413,335.865 958.375,336.068 968.337,336.197 978.299,336.255 988.261,336.246 998.223,336.176 1008.19,336.052 1018.15,335.882 1028.11,335.675 1038.07,335.443 1048.03,335.199 1058,334.958 1067.96,334.737 1077.92,334.555 1087.88,334.432 1097.84,334.389 1107.81,334.446 1117.77,334.626 1127.73,334.946 1137.69,335.426 1147.65,336.08 1157.62,336.919 1167.58,337.951 1177.54,339.18 1187.5,340.606 1197.46,342.225 1207.43,344.034 1217.39,346.024 1227.35,348.187 1237.31,350.513 1247.27,352.993 1257.24,355.617 1267.2,358.376 1277.16,361.26 1287.12,364.261 1297.08,367.372 1307.05,370.585 1317.01,373.894 1326.97,377.292 1336.93,380.775 1346.89,384.336 1356.86,387.971 1366.82,391.677 1376.78,395.448 1386.74,399.282 1396.7,403.175 1406.67,407.124 1416.63,411.126 1426.59,415.178 1436.55,419.277 1446.51,423.422 1456.47,427.61 1466.44,431.838 1476.4,436.104 1486.36,440.407 1496.32,444.743 1506.28,449.113 1516.25,453.513 1526.21,457.941 1536.17,462.396 1546.13,466.877 1556.09,471.382 1566.06,475.908 1576.02,480.456 1585.98,485.023 1595.94,489.609 1605.9,494.213 1615.87,498.834 1625.83,503.473 1635.79,508.131 1645.75,512.808 1655.71,517.508 1665.68,522.235 1675.64,526.994 1685.6,531.792 1695.56,536.641 1705.52,541.556 1715.49,546.556 1725.45,551.666 1735.41,556.919 1745.37,562.355 1755.33,568.025 1765.3,573.986 1775.26,580.3 1785.22,587.028 1795.18,594.223 1805.14,601.919 1815.11,610.132 1825.07,618.855 1835.03,628.065 1844.99,637.727 1854.95,647.803 1864.92,658.256 1874.88,669.047 1884.84,680.144 1894.8,691.515 1904.76,703.132 1914.73,714.966 1924.69,726.993 1934.65,739.184 1944.61,751.513 1954.57,763.953 1964.54,776.474 1974.5,789.048 1984.46,801.642 1994.42,814.226 2004.38,826.767 2014.35,839.233 2024.31,851.594 2034.27,863.822 2044.23,875.893 2054.19,887.791 2064.16,899.504 2074.12,911.03 2084.08,922.373 2094.04,933.546 2104,944.566 2113.97,955.451 2123.93,966.215 2133.89,976.862 2143.85,987.376 2153.81,997.706 2163.78,1007.75 2173.74,1017.33 2183.7,1026.18 2193.66,1033.89 2203.62,1039.94 2213.59,1043.77 2223.55,1044.88 2233.51,1043.1 2243.47,1038.76 2253.43,1032.64 2263.4,1025.86 2273.36,1019.68 2283.32,1015.28 2293.28,1013.66 "/>
<polyline clip-path="url(#clip942)" style="stroke:#009af9; stroke-linecap:round; stroke-linejoin:round; stroke-width:4; stroke-opacity:1; fill:none" points="310.845,534.882 320.807,535.039 330.769,535.206 340.731,535.382 350.693,535.568 360.655,535.765 370.617,535.973 380.579,536.192 390.541,536.424 400.503,536.669 410.465,536.927 420.427,537.2 430.389,537.488 440.351,537.791 450.313,538.111 460.275,538.449 470.237,538.805 480.199,539.18 490.161,539.575 500.123,539.992 510.085,540.43 520.047,540.892 530.009,541.378 539.971,541.889 549.933,542.426 559.895,542.991 569.857,543.584 579.819,544.208 589.781,544.862 599.743,545.549 609.705,546.27 619.667,547.026 629.629,547.817 639.591,548.647 649.553,549.515 659.515,550.424 669.477,551.375 679.439,552.369 689.401,553.407 699.363,554.492 709.325,555.624 719.287,556.805 729.249,558.036 739.211,559.32 749.173,560.657 759.135,562.049 769.097,563.498 779.059,565.005 789.021,566.572 798.983,568.201 808.945,569.894 818.907,571.652 828.869,573.478 838.831,575.374 848.793,577.342 858.755,579.384 868.717,581.503 878.679,583.702 888.641,585.983 898.603,588.35 908.565,590.805 918.527,593.354 928.489,595.998 938.451,598.743 948.413,601.592 958.375,604.55 968.337,607.622 978.299,610.812 988.261,614.126 998.223,617.568 1008.19,621.146 1018.15,624.863 1028.11,628.726 1038.07,632.741 1048.03,636.914 1058,641.25 1067.96,645.756 1077.92,650.438 1087.88,655.3 1097.84,660.349 1107.81,665.591 1117.77,671.031 1127.73,676.673 1137.69,682.524 1147.65,688.587 1157.62,694.867 1167.58,701.37 1177.54,708.098 1187.5,715.058 1197.46,722.253 1207.43,729.687 1217.39,737.365 1227.35,745.293 1237.31,753.475 1247.27,761.917 1257.24,770.624 1267.2,779.604 1277.16,788.864 1287.12,798.411 1297.08,808.253 1307.05,818.399 1317.01,828.858 1326.97,839.638 1336.93,850.746 1346.89,862.189 1356.86,873.968 1366.82,886.079 1376.78,898.509 1386.74,911.232 1396.7,924.197 1406.67,937.328 1416.63,950.503 1426.59,963.543 1436.55,976.2 1446.51,988.146 1456.47,998.979 1466.44,1008.26 1476.4,1015.58 1486.36,1020.65 1496.32,1023.38 1506.28,1023.89 1516.25,1022.52 1526.21,1019.68 1536.17,1015.81 1546.13,1011.29 1556.09,1006.44 1566.06,1001.48 1576.02,996.581 1585.98,991.852 1595.94,987.362 1605.9,983.153 1615.87,979.247 1625.83,975.652 1635.79,972.37 1645.75,969.394 1655.71,966.717 1665.68,964.33 1675.64,962.22 1685.6,960.379 1695.56,958.795 1705.52,957.459 1715.49,956.361 1725.45,955.494 1735.41,954.851 1745.37,954.425 1755.33,954.211 1765.3,954.204 1775.26,954.402 1785.22,954.802 1795.18,955.403 1805.14,956.205 1815.11,957.208 1825.07,958.415 1835.03,959.828 1844.99,961.452 1854.95,963.292 1864.92,965.356 1874.88,967.652 1884.84,970.192 1894.8,972.986 1904.76,976.05 1914.73,979.401 1924.69,983.058 1934.65,987.043 1944.61,991.382 1954.57,996.105 1964.54,1001.25 1974.5,1006.84 1984.46,1012.93 1994.42,1019.57 2004.38,1026.8 2014.35,1034.68 2024.31,1043.28 2034.27,1052.67 2044.23,1062.92 2054.19,1074.1 2064.16,1086.32 2074.12,1099.67 2084.08,1114.28 2094.04,1130.28 2104,1147.87 2113.97,1167.27 2123.93,1188.81 2133.89,1212.91 2143.85,1240.05 2153.81,1270.75 2163.78,1304.97 2173.74,1340.37 2183.7,1368.14 2193.66,1374.46 2203.62,1360.07 2213.59,1339.76 2223.55,1322.92 2233.51,1312.13 2243.47,1307.15 2253.43,1306.69 2263.4,1309.05 2273.36,1312.51 2283.32,1315.45 2293.28,1316.61 "/>
<path clip-path="url(#clip940)" d="M1982.41 270.066 L2282.71 270.066 L2282.71 166.386 L1982.41 166.386  Z" fill="#ffffff" fill-rule="evenodd" fill-opacity="1"/>
<polyline clip-path="url(#clip940)" style="stroke:#000000; stroke-linecap:round; stroke-linejoin:round; stroke-width:4; stroke-opacity:1; fill:none" points="1982.41,270.066 2282.71,270.066 2282.71,166.386 1982.41,166.386 1982.41,270.066 "/>
<polyline clip-path="url(#clip940)" style="stroke:#009af9; stroke-linecap:round; stroke-linejoin:round; stroke-width:4; stroke-opacity:1; fill:none" points="2005.76,218.226 2145.85,218.226 "/>
<path clip-path="url(#clip940)" d="M2173.88 204.789 L2173.88 217.775 L2179.76 217.775 Q2183.02 217.775 2184.8 216.085 Q2186.58 214.395 2186.58 211.27 Q2186.58 208.168 2184.8 206.479 Q2183.02 204.789 2179.76 204.789 L2173.88 204.789 M2169.2 200.946 L2179.76 200.946 Q2185.57 200.946 2188.53 203.585 Q2191.51 206.201 2191.51 211.27 Q2191.51 216.386 2188.53 219.002 Q2185.57 221.617 2179.76 221.617 L2173.88 221.617 L2173.88 235.506 L2169.2 235.506 L2169.2 200.946 Z" fill="#000000" fill-rule="nonzero" fill-opacity="1" /><path clip-path="url(#clip940)" d="M2197.79 200.946 L2219.64 200.946 L2219.64 204.881 L2202.46 204.881 L2202.46 215.113 L2218.92 215.113 L2218.92 219.048 L2202.46 219.048 L2202.46 231.571 L2220.06 231.571 L2220.06 235.506 L2197.79 235.506 L2197.79 200.946 Z" fill="#000000" fill-rule="nonzero" fill-opacity="1" /><path clip-path="url(#clip940)" d="M2227.74 200.946 L2234.71 200.946 L2243.53 224.465 L2252.39 200.946 L2259.36 200.946 L2259.36 235.506 L2254.8 235.506 L2254.8 205.159 L2245.89 228.863 L2241.19 228.863 L2232.28 205.159 L2232.28 235.506 L2227.74 235.506 L2227.74 200.946 Z" fill="#000000" fill-rule="nonzero" fill-opacity="1" /></svg>
