<?xml version="1.0" encoding="utf-8"?>
<svg xmlns="http://www.w3.org/2000/svg" xmlns:xlink="http://www.w3.org/1999/xlink" width="600" height="400" viewBox="0 0 2400 1600">
<defs>
  <clipPath id="clip070">
    <rect x="0" y="0" width="2400" height="1600"/>
  </clipPath>
</defs>
<path clip-path="url(#clip070)" d="M0 1600 L2400 1600 L2400 0 L0 0  Z" fill="#ffffff" fill-rule="evenodd" fill-opacity="1"/>
<defs>
  <clipPath id="clip071">
    <rect x="480" y="0" width="1681" height="1600"/>
  </clipPath>
</defs>
<path clip-path="url(#clip070)" d="M282.894 1410.9 L2352.76 1410.9 L2352.76 123.472 L282.894 123.472  Z" fill="#ffffff" fill-rule="evenodd" fill-opacity="1"/>
<defs>
  <clipPath id="clip072">
    <rect x="282" y="123" width="2071" height="1288"/>
  </clipPath>
</defs>
<polyline clip-path="url(#clip072)" style="stroke:#000000; stroke-linecap:round; stroke-linejoin:round; stroke-width:2; stroke-opacity:0.1; fill:none" points="1022.46,1410.9 1022.46,123.472 "/>
<polyline clip-path="url(#clip072)" style="stroke:#000000; stroke-linecap:round; stroke-linejoin:round; stroke-width:2; stroke-opacity:0.1; fill:none" points="1871.88,1410.9 1871.88,123.472 "/>
<polyline clip-path="url(#clip072)" style="stroke:#000000; stroke-linecap:round; stroke-linejoin:round; stroke-width:2; stroke-opacity:0.1; fill:none" points="282.894,1213.85 2352.76,1213.85 "/>
<polyline clip-path="url(#clip072)" style="stroke:#000000; stroke-linecap:round; stroke-linejoin:round; stroke-width:2; stroke-opacity:0.1; fill:none" points="282.894,993.522 2352.76,993.522 "/>
<polyline clip-path="url(#clip072)" style="stroke:#000000; stroke-linecap:round; stroke-linejoin:round; stroke-width:2; stroke-opacity:0.1; fill:none" points="282.894,773.193 2352.76,773.193 "/>
<polyline clip-path="url(#clip072)" style="stroke:#000000; stroke-linecap:round; stroke-linejoin:round; stroke-width:2; stroke-opacity:0.1; fill:none" points="282.894,552.864 2352.76,552.864 "/>
<polyline clip-path="url(#clip072)" style="stroke:#000000; stroke-linecap:round; stroke-linejoin:round; stroke-width:2; stroke-opacity:0.1; fill:none" points="282.894,332.535 2352.76,332.535 "/>
<polyline clip-path="url(#clip070)" style="stroke:#000000; stroke-linecap:round; stroke-linejoin:round; stroke-width:4; stroke-opacity:1; fill:none" points="282.894,1410.9 2352.76,1410.9 "/>
<polyline clip-path="url(#clip070)" style="stroke:#000000; stroke-linecap:round; stroke-linejoin:round; stroke-width:4; stroke-opacity:1; fill:none" points="1022.46,1410.9 1022.46,1392 "/>
<polyline clip-path="url(#clip070)" style="stroke:#000000; stroke-linecap:round; stroke-linejoin:round; stroke-width:4; stroke-opacity:1; fill:none" points="1871.88,1410.9 1871.88,1392 "/>
<path clip-path="url(#clip070)" d="M972.576 1485.02 L980.215 1485.02 L980.215 1458.66 L971.905 1460.32 L971.905 1456.06 L980.168 1454.4 L984.844 1454.4 L984.844 1485.02 L992.483 1485.02 L992.483 1488.96 L972.576 1488.96 L972.576 1485.02 Z" fill="#000000" fill-rule="nonzero" fill-opacity="1" /><path clip-path="url(#clip070)" d="M1011.93 1457.48 Q1008.32 1457.48 1006.49 1461.04 Q1004.68 1464.58 1004.68 1471.71 Q1004.68 1478.82 1006.49 1482.38 Q1008.32 1485.92 1011.93 1485.92 Q1015.56 1485.92 1017.37 1482.38 Q1019.2 1478.82 1019.2 1471.71 Q1019.2 1464.58 1017.37 1461.04 Q1015.56 1457.48 1011.93 1457.48 M1011.93 1453.77 Q1017.74 1453.77 1020.79 1458.38 Q1023.87 1462.96 1023.87 1471.71 Q1023.87 1480.44 1020.79 1485.04 Q1017.74 1489.63 1011.93 1489.63 Q1006.12 1489.63 1003.04 1485.04 Q999.983 1480.44 999.983 1471.71 Q999.983 1462.96 1003.04 1458.38 Q1006.12 1453.77 1011.93 1453.77 Z" fill="#000000" fill-rule="nonzero" fill-opacity="1" /><path clip-path="url(#clip070)" d="M1023.87 1447.87 L1047.98 1447.87 L1047.98 1451.07 L1023.87 1451.07 L1023.87 1447.87 Z" fill="#000000" fill-rule="nonzero" fill-opacity="1" /><path clip-path="url(#clip070)" d="M1056.84 1458.35 L1063.05 1458.35 L1063.05 1436.93 L1056.3 1438.28 L1056.3 1434.82 L1063.01 1433.47 L1066.81 1433.47 L1066.81 1458.35 L1073.02 1458.35 L1073.02 1461.55 L1056.84 1461.55 L1056.84 1458.35 Z" fill="#000000" fill-rule="nonzero" fill-opacity="1" /><path clip-path="url(#clip070)" d="M1836.87 1485.02 L1844.51 1485.02 L1844.51 1458.66 L1836.2 1460.32 L1836.2 1456.06 L1844.46 1454.4 L1849.14 1454.4 L1849.14 1485.02 L1856.77 1485.02 L1856.77 1488.96 L1836.87 1488.96 L1836.87 1485.02 Z" fill="#000000" fill-rule="nonzero" fill-opacity="1" /><path clip-path="url(#clip070)" d="M1876.22 1457.48 Q1872.61 1457.48 1870.78 1461.04 Q1868.97 1464.58 1868.97 1471.71 Q1868.97 1478.82 1870.78 1482.38 Q1872.61 1485.92 1876.22 1485.92 Q1879.85 1485.92 1881.66 1482.38 Q1883.49 1478.82 1883.49 1471.71 Q1883.49 1464.58 1881.66 1461.04 Q1879.85 1457.48 1876.22 1457.48 M1876.22 1453.77 Q1882.03 1453.77 1885.08 1458.38 Q1888.16 1462.96 1888.16 1471.71 Q1888.16 1480.44 1885.08 1485.04 Q1882.03 1489.63 1876.22 1489.63 Q1870.41 1489.63 1867.33 1485.04 Q1864.27 1480.44 1864.27 1471.71 Q1864.27 1462.96 1867.33 1458.38 Q1870.41 1453.77 1876.22 1453.77 Z" fill="#000000" fill-rule="nonzero" fill-opacity="1" /><path clip-path="url(#clip070)" d="M1897.87 1435.97 Q1894.93 1435.97 1893.45 1438.86 Q1891.98 1441.74 1891.98 1447.53 Q1891.98 1453.31 1893.45 1456.2 Q1894.93 1459.08 1897.87 1459.08 Q1900.82 1459.08 1902.29 1456.2 Q1903.77 1453.31 1903.77 1447.53 Q1903.77 1441.74 1902.29 1438.86 Q1900.82 1435.97 1897.87 1435.97 M1897.87 1432.96 Q1902.59 1432.96 1905.07 1436.7 Q1907.57 1440.43 1907.57 1447.53 Q1907.57 1454.62 1905.07 1458.37 Q1902.59 1462.09 1897.87 1462.09 Q1893.15 1462.09 1890.65 1458.37 Q1888.16 1454.62 1888.16 1447.53 Q1888.16 1440.43 1890.65 1436.7 Q1893.15 1432.96 1897.87 1432.96 Z" fill="#000000" fill-rule="nonzero" fill-opacity="1" /><path clip-path="url(#clip070)" d="M1037.64 1526.67 L1064.95 1526.67 L1064.95 1532.08 L1044.07 1532.08 L1044.07 1546.08 L1062.91 1546.08 L1062.91 1551.49 L1044.07 1551.49 L1044.07 1574.19 L1037.64 1574.19 L1037.64 1526.67 Z" fill="#000000" fill-rule="nonzero" fill-opacity="1" /><path clip-path="url(#clip070)" d="M1090.79 1544.01 Q1089.81 1543.44 1088.63 1543.18 Q1087.48 1542.9 1086.08 1542.9 Q1081.12 1542.9 1078.44 1546.14 Q1075.8 1549.36 1075.8 1555.41 L1075.8 1574.19 L1069.91 1574.19 L1069.91 1538.54 L1075.8 1538.54 L1075.8 1544.08 Q1077.65 1540.83 1080.61 1539.27 Q1083.57 1537.68 1087.8 1537.68 Q1088.4 1537.68 1089.14 1537.77 Q1089.87 1537.84 1090.76 1538 L1090.79 1544.01 Z" fill="#000000" fill-rule="nonzero" fill-opacity="1" /><path clip-path="url(#clip070)" d="M1125.99 1554.9 L1125.99 1557.76 L1099.07 1557.76 Q1099.45 1563.81 1102.7 1566.99 Q1105.97 1570.14 1111.8 1570.14 Q1115.17 1570.14 1118.32 1569.32 Q1121.51 1568.49 1124.63 1566.83 L1124.63 1572.37 Q1121.47 1573.71 1118.16 1574.41 Q1114.85 1575.11 1111.45 1575.11 Q1102.92 1575.11 1097.92 1570.14 Q1092.96 1565.18 1092.96 1556.71 Q1092.96 1547.96 1097.67 1542.83 Q1102.41 1537.68 1110.43 1537.68 Q1117.62 1537.68 1121.79 1542.33 Q1125.99 1546.94 1125.99 1554.9 M1120.14 1553.18 Q1120.07 1548.37 1117.43 1545.51 Q1114.82 1542.64 1110.49 1542.64 Q1105.59 1542.64 1102.63 1545.41 Q1099.7 1548.18 1099.26 1553.21 L1120.14 1553.18 Z" fill="#000000" fill-rule="nonzero" fill-opacity="1" /><path clip-path="url(#clip070)" d="M1139.11 1556.39 Q1139.11 1562.85 1141.75 1566.55 Q1144.42 1570.21 1149.07 1570.21 Q1153.72 1570.21 1156.39 1566.55 Q1159.06 1562.85 1159.06 1556.39 Q1159.06 1549.93 1156.39 1546.27 Q1153.72 1542.58 1149.07 1542.58 Q1144.42 1542.58 1141.75 1546.27 Q1139.11 1549.93 1139.11 1556.39 M1159.06 1568.84 Q1157.22 1572.02 1154.39 1573.58 Q1151.58 1575.11 1147.64 1575.11 Q1141.18 1575.11 1137.1 1569.95 Q1133.06 1564.8 1133.06 1556.39 Q1133.06 1547.99 1137.1 1542.83 Q1141.18 1537.68 1147.64 1537.68 Q1151.58 1537.68 1154.39 1539.24 Q1157.22 1540.77 1159.06 1543.95 L1159.06 1538.54 L1164.92 1538.54 L1164.92 1587.74 L1159.06 1587.74 L1159.06 1568.84 Z" fill="#000000" fill-rule="nonzero" fill-opacity="1" /><path clip-path="url(#clip070)" d="M1176.38 1560.12 L1176.38 1538.54 L1182.24 1538.54 L1182.24 1559.89 Q1182.24 1564.96 1184.21 1567.5 Q1186.18 1570.02 1190.13 1570.02 Q1194.87 1570.02 1197.61 1566.99 Q1200.38 1563.97 1200.38 1558.75 L1200.38 1538.54 L1206.23 1538.54 L1206.23 1574.19 L1200.38 1574.19 L1200.38 1568.71 Q1198.25 1571.96 1195.41 1573.55 Q1192.61 1575.11 1188.89 1575.11 Q1182.74 1575.11 1179.56 1571.29 Q1176.38 1567.47 1176.38 1560.12 M1191.12 1537.68 L1191.12 1537.68 Z" fill="#000000" fill-rule="nonzero" fill-opacity="1" /><path clip-path="url(#clip070)" d="M1248.79 1554.9 L1248.79 1557.76 L1221.86 1557.76 Q1222.24 1563.81 1225.49 1566.99 Q1228.77 1570.14 1234.59 1570.14 Q1237.97 1570.14 1241.12 1569.32 Q1244.3 1568.49 1247.42 1566.83 L1247.42 1572.37 Q1244.27 1573.71 1240.96 1574.41 Q1237.65 1575.11 1234.24 1575.11 Q1225.71 1575.11 1220.72 1570.14 Q1215.75 1565.18 1215.75 1556.71 Q1215.75 1547.96 1220.46 1542.83 Q1225.2 1537.68 1233.22 1537.68 Q1240.42 1537.68 1244.59 1542.33 Q1248.79 1546.94 1248.79 1554.9 M1242.93 1553.18 Q1242.87 1548.37 1240.23 1545.51 Q1237.62 1542.64 1233.29 1542.64 Q1228.39 1542.64 1225.43 1545.41 Q1222.5 1548.18 1222.05 1553.21 L1242.93 1553.18 Z" fill="#000000" fill-rule="nonzero" fill-opacity="1" /><path clip-path="url(#clip070)" d="M1288.03 1552.67 L1288.03 1574.19 L1282.18 1574.19 L1282.18 1552.86 Q1282.18 1547.8 1280.2 1545.29 Q1278.23 1542.77 1274.28 1542.77 Q1269.54 1542.77 1266.8 1545.79 Q1264.07 1548.82 1264.07 1554.04 L1264.07 1574.19 L1258.18 1574.19 L1258.18 1538.54 L1264.07 1538.54 L1264.07 1544.08 Q1266.17 1540.86 1269 1539.27 Q1271.86 1537.68 1275.59 1537.68 Q1281.73 1537.68 1284.88 1541.5 Q1288.03 1545.29 1288.03 1552.67 Z" fill="#000000" fill-rule="nonzero" fill-opacity="1" /><path clip-path="url(#clip070)" d="M1325.37 1539.91 L1325.37 1545.38 Q1322.89 1544.01 1320.37 1543.34 Q1317.89 1542.64 1315.34 1542.64 Q1309.65 1542.64 1306.49 1546.27 Q1303.34 1549.87 1303.34 1556.39 Q1303.34 1562.92 1306.49 1566.55 Q1309.65 1570.14 1315.34 1570.14 Q1317.89 1570.14 1320.37 1569.47 Q1322.89 1568.77 1325.37 1567.41 L1325.37 1572.82 Q1322.92 1573.96 1320.28 1574.54 Q1317.67 1575.11 1314.71 1575.11 Q1306.65 1575.11 1301.91 1570.05 Q1297.17 1564.99 1297.17 1556.39 Q1297.17 1547.67 1301.94 1542.68 Q1306.75 1537.68 1315.09 1537.68 Q1317.79 1537.68 1320.37 1538.25 Q1322.95 1538.79 1325.37 1539.91 Z" fill="#000000" fill-rule="nonzero" fill-opacity="1" /><path clip-path="url(#clip070)" d="M1350.39 1577.5 Q1347.9 1583.86 1345.55 1585.8 Q1343.19 1587.74 1339.25 1587.74 L1334.57 1587.74 L1334.57 1582.84 L1338 1582.84 Q1340.42 1582.84 1341.76 1581.7 Q1343.1 1580.55 1344.72 1576.29 L1345.77 1573.61 L1331.35 1538.54 L1337.56 1538.54 L1348.7 1566.42 L1359.84 1538.54 L1366.05 1538.54 L1350.39 1577.5 Z" fill="#000000" fill-rule="nonzero" fill-opacity="1" /><path clip-path="url(#clip070)" d="M1394.31 1524.66 L1407.8 1524.66 L1407.8 1529.21 L1400.17 1529.21 L1400.17 1578.23 L1407.8 1578.23 L1407.8 1582.78 L1394.31 1582.78 L1394.31 1524.66 Z" fill="#000000" fill-rule="nonzero" fill-opacity="1" /><path clip-path="url(#clip070)" d="M1440.94 1544.01 Q1439.95 1543.44 1438.77 1543.18 Q1437.63 1542.9 1436.23 1542.9 Q1431.26 1542.9 1428.59 1546.14 Q1425.95 1549.36 1425.95 1555.41 L1425.95 1574.19 L1420.06 1574.19 L1420.06 1538.54 L1425.95 1538.54 L1425.95 1544.08 Q1427.79 1540.83 1430.75 1539.27 Q1433.71 1537.68 1437.95 1537.68 Q1438.55 1537.68 1439.28 1537.77 Q1440.01 1537.84 1440.91 1538 L1440.94 1544.01 Z" fill="#000000" fill-rule="nonzero" fill-opacity="1" /><path clip-path="url(#clip070)" d="M1463.28 1556.27 Q1456.18 1556.27 1453.45 1557.89 Q1450.71 1559.51 1450.71 1563.43 Q1450.71 1566.55 1452.75 1568.39 Q1454.81 1570.21 1458.35 1570.21 Q1463.22 1570.21 1466.15 1566.77 Q1469.11 1563.3 1469.11 1557.57 L1469.11 1556.27 L1463.28 1556.27 M1474.96 1553.85 L1474.96 1574.19 L1469.11 1574.19 L1469.11 1568.77 Q1467.1 1572.02 1464.11 1573.58 Q1461.12 1575.11 1456.79 1575.11 Q1451.31 1575.11 1448.07 1572.05 Q1444.85 1568.97 1444.85 1563.81 Q1444.85 1557.79 1448.86 1554.74 Q1452.91 1551.68 1460.89 1551.68 L1469.11 1551.68 L1469.11 1551.11 Q1469.11 1547.07 1466.43 1544.87 Q1463.79 1542.64 1458.98 1542.64 Q1455.93 1542.64 1453.03 1543.38 Q1450.14 1544.11 1447.46 1545.57 L1447.46 1540.16 Q1450.68 1538.92 1453.7 1538.31 Q1456.72 1537.68 1459.59 1537.68 Q1467.32 1537.68 1471.14 1541.69 Q1474.96 1545.7 1474.96 1553.85 Z" fill="#000000" fill-rule="nonzero" fill-opacity="1" /><path clip-path="url(#clip070)" d="M1510.48 1543.95 L1510.48 1524.66 L1516.34 1524.66 L1516.34 1574.19 L1510.48 1574.19 L1510.48 1568.84 Q1508.64 1572.02 1505.8 1573.58 Q1503 1575.11 1499.06 1575.11 Q1492.6 1575.11 1488.52 1569.95 Q1484.48 1564.8 1484.48 1556.39 Q1484.48 1547.99 1488.52 1542.83 Q1492.6 1537.68 1499.06 1537.68 Q1503 1537.68 1505.8 1539.24 Q1508.64 1540.77 1510.48 1543.95 M1490.53 1556.39 Q1490.53 1562.85 1493.17 1566.55 Q1495.84 1570.21 1500.49 1570.21 Q1505.14 1570.21 1507.81 1566.55 Q1510.48 1562.85 1510.48 1556.39 Q1510.48 1549.93 1507.81 1546.27 Q1505.14 1542.58 1500.49 1542.58 Q1495.84 1542.58 1493.17 1546.27 Q1490.53 1549.93 1490.53 1556.39 Z" fill="#000000" fill-rule="nonzero" fill-opacity="1" /><path clip-path="url(#clip070)" d="M1538.81 1526.67 L1544.22 1526.67 L1527.67 1580.23 L1522.26 1580.23 L1538.81 1526.67 Z" fill="#000000" fill-rule="nonzero" fill-opacity="1" /><path clip-path="url(#clip070)" d="M1573.09 1539.59 L1573.09 1545.13 Q1570.61 1543.85 1567.93 1543.22 Q1565.26 1542.58 1562.4 1542.58 Q1558.03 1542.58 1555.84 1543.92 Q1553.67 1545.25 1553.67 1547.93 Q1553.67 1549.96 1555.23 1551.14 Q1556.79 1552.29 1561.5 1553.34 L1563.51 1553.78 Q1569.75 1555.12 1572.36 1557.57 Q1575 1559.99 1575 1564.35 Q1575 1569.32 1571.05 1572.21 Q1567.14 1575.11 1560.26 1575.11 Q1557.4 1575.11 1554.28 1574.54 Q1551.19 1573.99 1547.75 1572.88 L1547.75 1566.83 Q1551 1568.52 1554.15 1569.38 Q1557.3 1570.21 1560.39 1570.21 Q1564.53 1570.21 1566.76 1568.81 Q1568.98 1567.37 1568.98 1564.8 Q1568.98 1562.41 1567.36 1561.14 Q1565.77 1559.86 1560.33 1558.68 L1558.29 1558.21 Q1552.85 1557.06 1550.43 1554.71 Q1548.01 1552.32 1548.01 1548.18 Q1548.01 1543.15 1551.57 1540.42 Q1555.14 1537.68 1561.7 1537.68 Q1564.94 1537.68 1567.81 1538.16 Q1570.67 1538.63 1573.09 1539.59 Z" fill="#000000" fill-rule="nonzero" fill-opacity="1" /><path clip-path="url(#clip070)" d="M1598.01 1524.66 L1598.01 1582.78 L1584.52 1582.78 L1584.52 1578.23 L1592.12 1578.23 L1592.12 1529.21 L1584.52 1529.21 L1584.52 1524.66 L1598.01 1524.66 Z" fill="#000000" fill-rule="nonzero" fill-opacity="1" /><polyline clip-path="url(#clip070)" style="stroke:#000000; stroke-linecap:round; stroke-linejoin:round; stroke-width:4; stroke-opacity:1; fill:none" points="282.894,1410.9 282.894,123.472 "/>
<polyline clip-path="url(#clip070)" style="stroke:#000000; stroke-linecap:round; stroke-linejoin:round; stroke-width:4; stroke-opacity:1; fill:none" points="282.894,1213.85 301.792,1213.85 "/>
<polyline clip-path="url(#clip070)" style="stroke:#000000; stroke-linecap:round; stroke-linejoin:round; stroke-width:4; stroke-opacity:1; fill:none" points="282.894,993.522 301.792,993.522 "/>
<polyline clip-path="url(#clip070)" style="stroke:#000000; stroke-linecap:round; stroke-linejoin:round; stroke-width:4; stroke-opacity:1; fill:none" points="282.894,773.193 301.792,773.193 "/>
<polyline clip-path="url(#clip070)" style="stroke:#000000; stroke-linecap:round; stroke-linejoin:round; stroke-width:4; stroke-opacity:1; fill:none" points="282.894,552.864 301.792,552.864 "/>
<polyline clip-path="url(#clip070)" style="stroke:#000000; stroke-linecap:round; stroke-linejoin:round; stroke-width:4; stroke-opacity:1; fill:none" points="282.894,332.535 301.792,332.535 "/>
<path clip-path="url(#clip070)" d="M114.931 1233.64 L122.57 1233.64 L122.57 1207.28 L114.26 1208.94 L114.26 1204.68 L122.524 1203.02 L127.2 1203.02 L127.2 1233.64 L134.839 1233.64 L134.839 1237.58 L114.931 1237.58 L114.931 1233.64 Z" fill="#000000" fill-rule="nonzero" fill-opacity="1" /><path clip-path="url(#clip070)" d="M154.283 1206.1 Q150.672 1206.1 148.843 1209.66 Q147.038 1213.2 147.038 1220.33 Q147.038 1227.44 148.843 1231 Q150.672 1234.55 154.283 1234.55 Q157.917 1234.55 159.723 1231 Q161.552 1227.44 161.552 1220.33 Q161.552 1213.2 159.723 1209.66 Q157.917 1206.1 154.283 1206.1 M154.283 1202.39 Q160.093 1202.39 163.149 1207 Q166.227 1211.58 166.227 1220.33 Q166.227 1229.06 163.149 1233.67 Q160.093 1238.25 154.283 1238.25 Q148.473 1238.25 145.394 1233.67 Q142.339 1229.06 142.339 1220.33 Q142.339 1211.58 145.394 1207 Q148.473 1202.39 154.283 1202.39 Z" fill="#000000" fill-rule="nonzero" fill-opacity="1" /><path clip-path="url(#clip070)" d="M175.932 1184.59 Q172.998 1184.59 171.512 1187.49 Q170.045 1190.36 170.045 1196.16 Q170.045 1201.93 171.512 1204.83 Q172.998 1207.7 175.932 1207.7 Q178.885 1207.7 180.352 1204.83 Q181.838 1201.93 181.838 1196.16 Q181.838 1190.36 180.352 1187.49 Q178.885 1184.59 175.932 1184.59 M175.932 1181.58 Q180.653 1181.58 183.136 1185.32 Q185.637 1189.05 185.637 1196.16 Q185.637 1203.25 183.136 1206.99 Q180.653 1210.71 175.932 1210.71 Q171.212 1210.71 168.71 1206.99 Q166.227 1203.25 166.227 1196.16 Q166.227 1189.05 168.71 1185.32 Q171.212 1181.58 175.932 1181.58 Z" fill="#000000" fill-rule="nonzero" fill-opacity="1" /><path clip-path="url(#clip070)" d="M192.314 1205.39 L196.282 1205.39 L196.282 1210.17 L192.314 1210.17 L192.314 1205.39 Z" fill="#000000" fill-rule="nonzero" fill-opacity="1" /><path clip-path="url(#clip070)" d="M212.683 1184.59 Q209.749 1184.59 208.263 1187.49 Q206.796 1190.36 206.796 1196.16 Q206.796 1201.93 208.263 1204.83 Q209.749 1207.7 212.683 1207.7 Q215.635 1207.7 217.102 1204.83 Q218.588 1201.93 218.588 1196.16 Q218.588 1190.36 217.102 1187.49 Q215.635 1184.59 212.683 1184.59 M212.683 1181.58 Q217.403 1181.58 219.886 1185.32 Q222.387 1189.05 222.387 1196.16 Q222.387 1203.25 219.886 1206.99 Q217.403 1210.71 212.683 1210.71 Q207.962 1210.71 205.46 1206.99 Q202.978 1203.25 202.978 1196.16 Q202.978 1189.05 205.46 1185.32 Q207.962 1181.58 212.683 1181.58 Z" fill="#000000" fill-rule="nonzero" fill-opacity="1" /><path clip-path="url(#clip070)" d="M237.189 1184.59 Q234.255 1184.59 232.769 1187.49 Q231.302 1190.36 231.302 1196.16 Q231.302 1201.93 232.769 1204.83 Q234.255 1207.7 237.189 1207.7 Q240.142 1207.7 241.609 1204.83 Q243.095 1201.93 243.095 1196.16 Q243.095 1190.36 241.609 1187.49 Q240.142 1184.59 237.189 1184.59 M237.189 1181.58 Q241.91 1181.58 244.393 1185.32 Q246.894 1189.05 246.894 1196.16 Q246.894 1203.25 244.393 1206.99 Q241.91 1210.71 237.189 1210.71 Q232.468 1210.71 229.967 1206.99 Q227.484 1203.25 227.484 1196.16 Q227.484 1189.05 229.967 1185.32 Q232.468 1181.58 237.189 1181.58 Z" fill="#000000" fill-rule="nonzero" fill-opacity="1" /><path clip-path="url(#clip070)" d="M115.74 1013.31 L123.379 1013.31 L123.379 986.949 L115.069 988.615 L115.069 984.356 L123.333 982.689 L128.009 982.689 L128.009 1013.31 L135.647 1013.31 L135.647 1017.25 L115.74 1017.25 L115.74 1013.31 Z" fill="#000000" fill-rule="nonzero" fill-opacity="1" /><path clip-path="url(#clip070)" d="M155.092 985.768 Q151.481 985.768 149.652 989.333 Q147.846 992.874 147.846 1000 Q147.846 1007.11 149.652 1010.68 Q151.481 1014.22 155.092 1014.22 Q158.726 1014.22 160.532 1010.68 Q162.36 1007.11 162.36 1000 Q162.36 992.874 160.532 989.333 Q158.726 985.768 155.092 985.768 M155.092 982.064 Q160.902 982.064 163.958 986.671 Q167.036 991.254 167.036 1000 Q167.036 1008.73 163.958 1013.34 Q160.902 1017.92 155.092 1017.92 Q149.282 1017.92 146.203 1013.34 Q143.147 1008.73 143.147 1000 Q143.147 991.254 146.203 986.671 Q149.282 982.064 155.092 982.064 Z" fill="#000000" fill-rule="nonzero" fill-opacity="1" /><path clip-path="url(#clip070)" d="M176.741 964.26 Q173.807 964.26 172.321 967.157 Q170.854 970.034 170.854 975.827 Q170.854 981.601 172.321 984.497 Q173.807 987.375 176.741 987.375 Q179.694 987.375 181.161 984.497 Q182.647 981.601 182.647 975.827 Q182.647 970.034 181.161 967.157 Q179.694 964.26 176.741 964.26 M176.741 961.251 Q181.462 961.251 183.944 964.994 Q186.446 968.718 186.446 975.827 Q186.446 982.918 183.944 986.66 Q181.462 990.384 176.741 990.384 Q172.02 990.384 169.519 986.66 Q167.036 982.918 167.036 975.827 Q167.036 968.718 169.519 964.994 Q172.02 961.251 176.741 961.251 Z" fill="#000000" fill-rule="nonzero" fill-opacity="1" /><path clip-path="url(#clip070)" d="M193.123 985.062 L197.091 985.062 L197.091 989.839 L193.123 989.839 L193.123 985.062 Z" fill="#000000" fill-rule="nonzero" fill-opacity="1" /><path clip-path="url(#clip070)" d="M208.639 986.642 L221.898 986.642 L221.898 989.839 L204.069 989.839 L204.069 986.642 Q206.232 984.403 209.956 980.642 Q213.698 976.862 214.657 975.771 Q216.482 973.721 217.197 972.31 Q217.93 970.881 217.93 969.508 Q217.93 967.27 216.35 965.859 Q214.789 964.448 212.269 964.448 Q210.482 964.448 208.489 965.069 Q206.514 965.69 204.257 966.95 L204.257 963.113 Q206.551 962.191 208.545 961.721 Q210.539 961.251 212.194 961.251 Q216.557 961.251 219.153 963.433 Q221.748 965.614 221.748 969.263 Q221.748 970.993 221.09 972.555 Q220.45 974.097 218.739 976.203 Q218.269 976.749 215.748 979.363 Q213.228 981.958 208.639 986.642 Z" fill="#000000" fill-rule="nonzero" fill-opacity="1" /><path clip-path="url(#clip070)" d="M229.911 961.759 L244.825 961.759 L244.825 964.956 L233.39 964.956 L233.39 971.84 Q234.218 971.558 235.045 971.426 Q235.873 971.276 236.7 971.276 Q241.402 971.276 244.148 973.852 Q246.894 976.429 246.894 980.83 Q246.894 985.363 244.073 987.883 Q241.252 990.384 236.117 990.384 Q234.349 990.384 232.506 990.083 Q230.682 989.782 228.726 989.181 L228.726 985.363 Q230.418 986.284 232.224 986.736 Q234.029 987.187 236.042 987.187 Q239.296 987.187 241.195 985.475 Q243.095 983.764 243.095 980.83 Q243.095 977.896 241.195 976.184 Q239.296 974.473 236.042 974.473 Q234.518 974.473 232.995 974.811 Q231.49 975.15 229.911 975.865 L229.911 961.759 Z" fill="#000000" fill-rule="nonzero" fill-opacity="1" /><path clip-path="url(#clip070)" d="M114.931 792.985 L122.57 792.985 L122.57 766.62 L114.26 768.286 L114.26 764.027 L122.524 762.361 L127.2 762.361 L127.2 792.985 L134.839 792.985 L134.839 796.921 L114.931 796.921 L114.931 792.985 Z" fill="#000000" fill-rule="nonzero" fill-opacity="1" /><path clip-path="url(#clip070)" d="M154.283 765.439 Q150.672 765.439 148.843 769.004 Q147.038 772.546 147.038 779.675 Q147.038 786.782 148.843 790.346 Q150.672 793.888 154.283 793.888 Q157.917 793.888 159.723 790.346 Q161.552 786.782 161.552 779.675 Q161.552 772.546 159.723 769.004 Q157.917 765.439 154.283 765.439 M154.283 761.736 Q160.093 761.736 163.149 766.342 Q166.227 770.925 166.227 779.675 Q166.227 788.402 163.149 793.008 Q160.093 797.592 154.283 797.592 Q148.473 797.592 145.394 793.008 Q142.339 788.402 142.339 779.675 Q142.339 770.925 145.394 766.342 Q148.473 761.736 154.283 761.736 Z" fill="#000000" fill-rule="nonzero" fill-opacity="1" /><path clip-path="url(#clip070)" d="M175.932 743.932 Q172.998 743.932 171.512 746.828 Q170.045 749.706 170.045 755.498 Q170.045 761.272 171.512 764.169 Q172.998 767.046 175.932 767.046 Q178.885 767.046 180.352 764.169 Q181.838 761.272 181.838 755.498 Q181.838 749.706 180.352 746.828 Q178.885 743.932 175.932 743.932 M175.932 740.922 Q180.653 740.922 183.136 744.665 Q185.637 748.389 185.637 755.498 Q185.637 762.589 183.136 766.332 Q180.653 770.056 175.932 770.056 Q171.212 770.056 168.71 766.332 Q166.227 762.589 166.227 755.498 Q166.227 748.389 168.71 744.665 Q171.212 740.922 175.932 740.922 Z" fill="#000000" fill-rule="nonzero" fill-opacity="1" /><path clip-path="url(#clip070)" d="M192.314 764.733 L196.282 764.733 L196.282 769.51 L192.314 769.51 L192.314 764.733 Z" fill="#000000" fill-rule="nonzero" fill-opacity="1" /><path clip-path="url(#clip070)" d="M204.595 741.43 L219.51 741.43 L219.51 744.627 L208.075 744.627 L208.075 751.511 Q208.902 751.229 209.73 751.097 Q210.557 750.947 211.385 750.947 Q216.087 750.947 218.833 753.524 Q221.579 756.1 221.579 760.501 Q221.579 765.034 218.758 767.554 Q215.936 770.056 210.802 770.056 Q209.034 770.056 207.191 769.755 Q205.366 769.454 203.41 768.852 L203.41 765.034 Q205.103 765.955 206.909 766.407 Q208.714 766.858 210.727 766.858 Q213.98 766.858 215.88 765.147 Q217.78 763.435 217.78 760.501 Q217.78 757.567 215.88 755.856 Q213.98 754.144 210.727 754.144 Q209.203 754.144 207.68 754.483 Q206.175 754.821 204.595 755.536 L204.595 741.43 Z" fill="#000000" fill-rule="nonzero" fill-opacity="1" /><path clip-path="url(#clip070)" d="M237.189 743.932 Q234.255 743.932 232.769 746.828 Q231.302 749.706 231.302 755.498 Q231.302 761.272 232.769 764.169 Q234.255 767.046 237.189 767.046 Q240.142 767.046 241.609 764.169 Q243.095 761.272 243.095 755.498 Q243.095 749.706 241.609 746.828 Q240.142 743.932 237.189 743.932 M237.189 740.922 Q241.91 740.922 244.393 744.665 Q246.894 748.389 246.894 755.498 Q246.894 762.589 244.393 766.332 Q241.91 770.056 237.189 770.056 Q232.468 770.056 229.967 766.332 Q227.484 762.589 227.484 755.498 Q227.484 748.389 229.967 744.665 Q232.468 740.922 237.189 740.922 Z" fill="#000000" fill-rule="nonzero" fill-opacity="1" /><path clip-path="url(#clip070)" d="M115.74 572.657 L123.379 572.657 L123.379 546.291 L115.069 547.958 L115.069 543.698 L123.333 542.032 L128.009 542.032 L128.009 572.657 L135.647 572.657 L135.647 576.592 L115.74 576.592 L115.74 572.657 Z" fill="#000000" fill-rule="nonzero" fill-opacity="1" /><path clip-path="url(#clip070)" d="M155.092 545.11 Q151.481 545.11 149.652 548.675 Q147.846 552.217 147.846 559.346 Q147.846 566.453 149.652 570.018 Q151.481 573.559 155.092 573.559 Q158.726 573.559 160.532 570.018 Q162.36 566.453 162.36 559.346 Q162.36 552.217 160.532 548.675 Q158.726 545.11 155.092 545.11 M155.092 541.407 Q160.902 541.407 163.958 546.013 Q167.036 550.597 167.036 559.346 Q167.036 568.073 163.958 572.68 Q160.902 577.263 155.092 577.263 Q149.282 577.263 146.203 572.68 Q143.147 568.073 143.147 559.346 Q143.147 550.597 146.203 546.013 Q149.282 541.407 155.092 541.407 Z" fill="#000000" fill-rule="nonzero" fill-opacity="1" /><path clip-path="url(#clip070)" d="M176.741 523.603 Q173.807 523.603 172.321 526.499 Q170.854 529.377 170.854 535.17 Q170.854 540.944 172.321 543.84 Q173.807 546.718 176.741 546.718 Q179.694 546.718 181.161 543.84 Q182.647 540.944 182.647 535.17 Q182.647 529.377 181.161 526.499 Q179.694 523.603 176.741 523.603 M176.741 520.594 Q181.462 520.594 183.944 524.336 Q186.446 528.06 186.446 535.17 Q186.446 542.26 183.944 546.003 Q181.462 549.727 176.741 549.727 Q172.02 549.727 169.519 546.003 Q167.036 542.26 167.036 535.17 Q167.036 528.06 169.519 524.336 Q172.02 520.594 176.741 520.594 Z" fill="#000000" fill-rule="nonzero" fill-opacity="1" /><path clip-path="url(#clip070)" d="M193.123 544.404 L197.091 544.404 L197.091 549.181 L193.123 549.181 L193.123 544.404 Z" fill="#000000" fill-rule="nonzero" fill-opacity="1" /><path clip-path="url(#clip070)" d="M204.407 521.101 L222.463 521.101 L222.463 522.719 L212.269 549.181 L208.3 549.181 L217.892 524.299 L204.407 524.299 L204.407 521.101 Z" fill="#000000" fill-rule="nonzero" fill-opacity="1" /><path clip-path="url(#clip070)" d="M229.911 521.101 L244.825 521.101 L244.825 524.299 L233.39 524.299 L233.39 531.182 Q234.218 530.9 235.045 530.769 Q235.873 530.618 236.7 530.618 Q241.402 530.618 244.148 533.195 Q246.894 535.771 246.894 540.172 Q246.894 544.705 244.073 547.225 Q241.252 549.727 236.117 549.727 Q234.349 549.727 232.506 549.426 Q230.682 549.125 228.726 548.523 L228.726 544.705 Q230.418 545.627 232.224 546.078 Q234.029 546.529 236.042 546.529 Q239.296 546.529 241.195 544.818 Q243.095 543.106 243.095 540.172 Q243.095 537.238 241.195 535.527 Q239.296 533.815 236.042 533.815 Q234.518 533.815 232.995 534.154 Q231.49 534.492 229.911 535.207 L229.911 521.101 Z" fill="#000000" fill-rule="nonzero" fill-opacity="1" /><path clip-path="url(#clip070)" d="M116.624 352.328 L124.263 352.328 L124.263 325.962 L115.953 327.629 L115.953 323.37 L124.217 321.703 L128.893 321.703 L128.893 352.328 L136.531 352.328 L136.531 356.263 L116.624 356.263 L116.624 352.328 Z" fill="#000000" fill-rule="nonzero" fill-opacity="1" /><path clip-path="url(#clip070)" d="M155.976 324.782 Q152.365 324.782 150.536 328.346 Q148.73 331.888 148.73 339.018 Q148.73 346.124 150.536 349.689 Q152.365 353.231 155.976 353.231 Q159.61 353.231 161.416 349.689 Q163.244 346.124 163.244 339.018 Q163.244 331.888 161.416 328.346 Q159.61 324.782 155.976 324.782 M155.976 321.078 Q161.786 321.078 164.841 325.684 Q167.92 330.268 167.92 339.018 Q167.92 347.745 164.841 352.351 Q161.786 356.934 155.976 356.934 Q150.166 356.934 147.087 352.351 Q144.031 347.745 144.031 339.018 Q144.031 330.268 147.087 325.684 Q150.166 321.078 155.976 321.078 Z" fill="#000000" fill-rule="nonzero" fill-opacity="1" /><path clip-path="url(#clip070)" d="M168.466 325.655 L174.672 325.655 L174.672 304.233 L167.92 305.587 L167.92 302.127 L174.635 300.773 L178.434 300.773 L178.434 325.655 L184.64 325.655 L184.64 328.853 L168.466 328.853 L168.466 325.655 Z" fill="#000000" fill-rule="nonzero" fill-opacity="1" /><path clip-path="url(#clip070)" d="M192.314 324.075 L196.282 324.075 L196.282 328.853 L192.314 328.853 L192.314 324.075 Z" fill="#000000" fill-rule="nonzero" fill-opacity="1" /><path clip-path="url(#clip070)" d="M212.683 303.274 Q209.749 303.274 208.263 306.17 Q206.796 309.048 206.796 314.841 Q206.796 320.615 208.263 323.511 Q209.749 326.389 212.683 326.389 Q215.635 326.389 217.102 323.511 Q218.588 320.615 218.588 314.841 Q218.588 309.048 217.102 306.17 Q215.635 303.274 212.683 303.274 M212.683 300.265 Q217.403 300.265 219.886 304.008 Q222.387 307.731 222.387 314.841 Q222.387 321.931 219.886 325.674 Q217.403 329.398 212.683 329.398 Q207.962 329.398 205.46 325.674 Q202.978 321.931 202.978 314.841 Q202.978 307.731 205.46 304.008 Q207.962 300.265 212.683 300.265 Z" fill="#000000" fill-rule="nonzero" fill-opacity="1" /><path clip-path="url(#clip070)" d="M237.189 303.274 Q234.255 303.274 232.769 306.17 Q231.302 309.048 231.302 314.841 Q231.302 320.615 232.769 323.511 Q234.255 326.389 237.189 326.389 Q240.142 326.389 241.609 323.511 Q243.095 320.615 243.095 314.841 Q243.095 309.048 241.609 306.17 Q240.142 303.274 237.189 303.274 M237.189 300.265 Q241.91 300.265 244.393 304.008 Q246.894 307.731 246.894 314.841 Q246.894 321.931 244.393 325.674 Q241.91 329.398 237.189 329.398 Q232.468 329.398 229.967 325.674 Q227.484 321.931 227.484 314.841 Q227.484 307.731 229.967 304.008 Q232.468 300.265 237.189 300.265 Z" fill="#000000" fill-rule="nonzero" fill-opacity="1" /><path clip-path="url(#clip070)" d="M18.0438 995.825 L24.314 995.825 Q22.5634 999.485 21.704 1002.73 Q20.8447 1005.98 20.8447 1009 Q20.8447 1014.25 22.8817 1017.12 Q24.9187 1019.95 28.6745 1019.95 Q31.8255 1019.95 33.4488 1018.07 Q35.0402 1016.16 36.0269 1010.88 L36.8226 1007 Q38.1912 999.803 41.6605 996.398 Q45.098 992.96 50.8908 992.96 Q57.7976 992.96 61.3624 997.607 Q64.9272 1002.22 64.9272 1011.17 Q64.9272 1014.54 64.1633 1018.36 Q63.3994 1022.15 61.9035 1026.22 L55.2831 1026.22 Q57.4793 1022.31 58.5933 1018.55 Q59.7073 1014.79 59.7073 1011.17 Q59.7073 1005.66 57.543 1002.67 Q55.3786 999.676 51.3682 999.676 Q47.8671 999.676 45.8937 1001.84 Q43.9204 1003.97 42.9337 1008.87 L42.1698 1012.79 Q40.7375 1019.98 37.682 1023.2 Q34.6264 1026.41 29.1837 1026.41 Q22.8817 1026.41 19.2532 1021.99 Q15.6248 1017.53 15.6248 1009.73 Q15.6248 1006.39 16.2295 1002.92 Q16.8343 999.453 18.0438 995.825 Z" fill="#000000" fill-rule="nonzero" fill-opacity="1" /><path clip-path="url(#clip070)" d="M28.3562 983.189 L28.3562 977.332 L64.0042 977.332 L64.0042 983.189 L28.3562 983.189 M14.479 983.189 L14.479 977.332 L21.895 977.332 L21.895 983.189 L14.479 983.189 Z" fill="#000000" fill-rule="nonzero" fill-opacity="1" /><path clip-path="url(#clip070)" d="M42.4881 935.446 L64.0042 935.446 L64.0042 941.302 L42.679 941.302 Q37.6183 941.302 35.1038 943.276 Q32.5894 945.249 32.5894 949.196 Q32.5894 953.938 35.6131 956.676 Q38.6368 959.413 43.8567 959.413 L64.0042 959.413 L64.0042 965.301 L28.3562 965.301 L28.3562 959.413 L33.8944 959.413 Q30.6797 957.312 29.0883 954.479 Q27.4968 951.615 27.4968 947.891 Q27.4968 941.748 31.3163 938.597 Q35.1038 935.446 42.4881 935.446 Z" fill="#000000" fill-rule="nonzero" fill-opacity="1" /><path clip-path="url(#clip070)" d="M45.7664 900.307 Q39.4007 900.307 35.8996 902.949 Q32.3984 905.559 32.3984 910.301 Q32.3984 915.012 35.8996 917.654 Q39.4007 920.264 45.7664 920.264 Q52.1003 920.264 55.6014 917.654 Q59.1026 915.012 59.1026 910.301 Q59.1026 905.559 55.6014 902.949 Q52.1003 900.307 45.7664 900.307 M59.58 894.451 Q68.683 894.451 73.1071 898.493 Q77.5631 902.535 77.5631 910.874 Q77.5631 913.962 77.0857 916.699 Q76.6401 919.436 75.6852 922.014 L69.9879 922.014 Q71.3884 919.436 72.0568 916.922 Q72.7252 914.407 72.7252 911.797 Q72.7252 906.036 69.7015 903.172 Q66.7096 900.307 60.6303 900.307 L57.7339 900.307 Q60.885 902.121 62.4446 904.954 Q64.0042 907.787 64.0042 911.734 Q64.0042 918.29 59.0071 922.301 Q54.01 926.311 45.7664 926.311 Q37.491 926.311 32.4939 922.301 Q27.4968 918.29 27.4968 911.734 Q27.4968 907.787 29.0564 904.954 Q30.616 902.121 33.7671 900.307 L28.3562 900.307 L28.3562 894.451 L59.58 894.451 Z" fill="#000000" fill-rule="nonzero" fill-opacity="1" /><path clip-path="url(#clip070)" d="M49.9359 882.993 L28.3562 882.993 L28.3562 877.136 L49.7131 877.136 Q54.7739 877.136 57.3202 875.163 Q59.8346 873.189 59.8346 869.243 Q59.8346 864.5 56.8109 861.763 Q53.7872 858.994 48.5673 858.994 L28.3562 858.994 L28.3562 853.137 L64.0042 853.137 L64.0042 858.994 L58.5296 858.994 Q61.7762 861.126 63.3676 863.959 Q64.9272 866.76 64.9272 870.484 Q64.9272 876.627 61.1078 879.81 Q57.2883 882.993 49.9359 882.993 M27.4968 868.256 L27.4968 868.256 Z" fill="#000000" fill-rule="nonzero" fill-opacity="1" /><path clip-path="url(#clip070)" d="M14.479 841.074 L14.479 835.218 L64.0042 835.218 L64.0042 841.074 L14.479 841.074 Z" fill="#000000" fill-rule="nonzero" fill-opacity="1" /><path clip-path="url(#clip070)" d="M46.0847 806.763 Q46.0847 813.861 47.7079 816.598 Q49.3312 819.335 53.2461 819.335 Q56.3653 819.335 58.2114 817.298 Q60.0256 815.23 60.0256 811.697 Q60.0256 806.827 56.5881 803.899 Q53.1188 800.939 47.3897 800.939 L46.0847 800.939 L46.0847 806.763 M43.6657 795.082 L64.0042 795.082 L64.0042 800.939 L58.5933 800.939 Q61.8398 802.944 63.3994 805.936 Q64.9272 808.928 64.9272 813.256 Q64.9272 818.731 61.8716 821.977 Q58.7843 825.192 53.6281 825.192 Q47.6125 825.192 44.5569 821.181 Q41.5014 817.139 41.5014 809.15 L41.5014 800.939 L40.9285 800.939 Q36.8862 800.939 34.6901 803.612 Q32.4621 806.254 32.4621 811.06 Q32.4621 814.116 33.1941 817.012 Q33.9262 819.908 35.3903 822.582 L29.9795 822.582 Q28.7381 819.367 28.1334 816.344 Q27.4968 813.32 27.4968 810.455 Q27.4968 802.721 31.5072 798.902 Q35.5176 795.082 43.6657 795.082 Z" fill="#000000" fill-rule="nonzero" fill-opacity="1" /><path clip-path="url(#clip070)" d="M33.8307 762.362 Q33.2578 763.349 33.0032 764.527 Q32.7167 765.673 32.7167 767.073 Q32.7167 772.038 35.9632 774.712 Q39.1779 777.354 45.2253 777.354 L64.0042 777.354 L64.0042 783.242 L28.3562 783.242 L28.3562 777.354 L33.8944 777.354 Q30.6479 775.508 29.0883 772.547 Q27.4968 769.587 27.4968 765.354 Q27.4968 764.75 27.5923 764.017 Q27.656 763.285 27.8151 762.394 L33.8307 762.362 Z" fill="#000000" fill-rule="nonzero" fill-opacity="1" /><path clip-path="url(#clip070)" d="M64.0042 722.99 L16.4842 741.133 L16.4842 734.417 L56.4926 719.362 L16.4842 704.275 L16.4842 697.591 L64.0042 715.702 L64.0042 722.99 Z" fill="#000000" fill-rule="nonzero" fill-opacity="1" /><path clip-path="url(#clip070)" d="M46.0847 679.767 Q46.0847 686.865 47.7079 689.602 Q49.3312 692.34 53.2461 692.34 Q56.3653 692.34 58.2114 690.303 Q60.0256 688.234 60.0256 684.701 Q60.0256 679.831 56.5881 676.903 Q53.1188 673.943 47.3897 673.943 L46.0847 673.943 L46.0847 679.767 M43.6657 668.086 L64.0042 668.086 L64.0042 673.943 L58.5933 673.943 Q61.8398 675.948 63.3994 678.94 Q64.9272 681.932 64.9272 686.26 Q64.9272 691.735 61.8716 694.981 Q58.7843 698.196 53.6281 698.196 Q47.6125 698.196 44.5569 694.186 Q41.5014 690.143 41.5014 682.154 L41.5014 673.943 L40.9285 673.943 Q36.8862 673.943 34.6901 676.616 Q32.4621 679.258 32.4621 684.064 Q32.4621 687.12 33.1941 690.016 Q33.9262 692.913 35.3903 695.586 L29.9795 695.586 Q28.7381 692.371 28.1334 689.348 Q27.4968 686.324 27.4968 683.459 Q27.4968 675.725 31.5072 671.906 Q35.5176 668.086 43.6657 668.086 Z" fill="#000000" fill-rule="nonzero" fill-opacity="1" /><path clip-path="url(#clip070)" d="M14.479 656.023 L14.479 650.167 L64.0042 650.167 L64.0042 656.023 L14.479 656.023 Z" fill="#000000" fill-rule="nonzero" fill-opacity="1" /><path clip-path="url(#clip070)" d="M49.9359 638.518 L28.3562 638.518 L28.3562 632.661 L49.7131 632.661 Q54.7739 632.661 57.3202 630.688 Q59.8346 628.714 59.8346 624.768 Q59.8346 620.025 56.8109 617.288 Q53.7872 614.519 48.5673 614.519 L28.3562 614.519 L28.3562 608.662 L64.0042 608.662 L64.0042 614.519 L58.5296 614.519 Q61.7762 616.651 63.3676 619.484 Q64.9272 622.285 64.9272 626.009 Q64.9272 632.152 61.1078 635.335 Q57.2883 638.518 49.9359 638.518 M27.4968 623.781 L27.4968 623.781 Z" fill="#000000" fill-rule="nonzero" fill-opacity="1" /><path clip-path="url(#clip070)" d="M44.7161 566.108 L47.5806 566.108 L47.5806 593.035 Q53.6281 592.653 56.8109 589.406 Q59.9619 586.128 59.9619 580.303 Q59.9619 576.929 59.1344 573.778 Q58.3069 570.595 56.6518 567.476 L62.1899 567.476 Q63.5267 570.627 64.227 573.937 Q64.9272 577.248 64.9272 580.653 Q64.9272 589.183 59.9619 594.18 Q54.9967 599.146 46.5303 599.146 Q37.7774 599.146 32.6531 594.435 Q27.4968 589.693 27.4968 581.672 Q27.4968 574.479 32.1438 570.309 Q36.7589 566.108 44.7161 566.108 M42.9973 571.964 Q38.1912 572.028 35.3266 574.67 Q32.4621 577.279 32.4621 581.608 Q32.4621 586.51 35.2312 589.47 Q38.0002 592.398 43.0292 592.844 L42.9973 571.964 Z" fill="#000000" fill-rule="nonzero" fill-opacity="1" /><path clip-path="url(#clip070)" d="M29.4065 533.77 L34.9447 533.77 Q33.6716 536.252 33.035 538.926 Q32.3984 541.6 32.3984 544.464 Q32.3984 548.825 33.7352 551.021 Q35.072 553.185 37.7456 553.185 Q39.7826 553.185 40.9603 551.626 Q42.1061 550.066 43.1565 545.355 L43.6021 543.35 Q44.9389 537.112 47.3897 534.502 Q49.8086 531.86 54.1691 531.86 Q59.1344 531.86 62.0308 535.807 Q64.9272 539.722 64.9272 546.597 Q64.9272 549.461 64.3543 552.58 Q63.8132 555.668 62.6992 559.105 L56.6518 559.105 Q58.3387 555.859 59.198 552.708 Q60.0256 549.557 60.0256 546.469 Q60.0256 542.332 58.6251 540.104 Q57.1929 537.876 54.6147 537.876 Q52.2276 537.876 50.9545 539.499 Q49.6813 541.09 48.5037 546.533 L48.0262 548.57 Q46.8804 554.013 44.5251 556.432 Q42.138 558.851 38.0002 558.851 Q32.9713 558.851 30.2341 555.286 Q27.4968 551.721 27.4968 545.164 Q27.4968 541.918 27.9743 539.053 Q28.4517 536.189 29.4065 533.77 Z" fill="#000000" fill-rule="nonzero" fill-opacity="1" /><path clip-path="url(#clip070)" d="M1139.1 14.0809 L1139.1 22.0612 Q1134.44 19.8332 1130.31 18.7395 Q1126.18 17.6457 1122.33 17.6457 Q1115.64 17.6457 1112 20.2383 Q1108.39 22.8309 1108.39 27.611 Q1108.39 31.6214 1110.78 33.6873 Q1113.21 35.7128 1119.94 36.9686 L1124.88 37.9813 Q1134.04 39.7232 1138.37 44.1387 Q1142.74 48.5136 1142.74 55.8863 Q1142.74 64.6767 1136.83 69.2137 Q1130.96 73.7508 1119.57 73.7508 Q1115.28 73.7508 1110.42 72.7785 Q1105.6 71.8063 1100.41 69.9024 L1100.41 61.4765 Q1105.4 64.2716 1110.18 65.6895 Q1114.96 67.1073 1119.57 67.1073 Q1126.58 67.1073 1130.39 64.3527 Q1134.2 61.598 1134.2 56.4939 Q1134.2 52.0379 1131.44 49.5264 Q1128.73 47.0148 1122.49 45.759 L1117.51 44.7868 Q1108.35 42.9639 1104.26 39.075 Q1100.17 35.1862 1100.17 28.2591 Q1100.17 20.2383 1105.8 15.6203 Q1111.47 11.0023 1121.4 11.0023 Q1125.65 11.0023 1130.07 11.7719 Q1134.48 12.5416 1139.1 14.0809 Z" fill="#000000" fill-rule="nonzero" fill-opacity="1" /><path clip-path="url(#clip070)" d="M1155.18 27.2059 L1162.63 27.2059 L1162.63 72.576 L1155.18 72.576 L1155.18 27.2059 M1155.18 9.54393 L1162.63 9.54393 L1162.63 18.9825 L1155.18 18.9825 L1155.18 9.54393 Z" fill="#000000" fill-rule="nonzero" fill-opacity="1" /><path clip-path="url(#clip070)" d="M1208.09 49.3643 Q1208.09 41.2625 1204.72 36.8065 Q1201.4 32.3505 1195.37 32.3505 Q1189.37 32.3505 1186.01 36.8065 Q1182.69 41.2625 1182.69 49.3643 Q1182.69 57.4256 1186.01 61.8816 Q1189.37 66.3376 1195.37 66.3376 Q1201.4 66.3376 1204.72 61.8816 Q1208.09 57.4256 1208.09 49.3643 M1215.54 66.9452 Q1215.54 78.5308 1210.39 84.1616 Q1205.25 89.8329 1194.64 89.8329 Q1190.71 89.8329 1187.22 89.2252 Q1183.74 88.6581 1180.46 87.4428 L1180.46 80.1917 Q1183.74 81.9741 1186.94 82.8248 Q1190.14 83.6755 1193.46 83.6755 Q1200.79 83.6755 1204.44 79.8271 Q1208.09 76.0193 1208.09 68.282 L1208.09 64.5957 Q1205.78 68.6061 1202.17 70.5911 Q1198.57 72.576 1193.54 72.576 Q1185.2 72.576 1180.09 66.2161 Q1174.99 59.8562 1174.99 49.3643 Q1174.99 38.832 1180.09 32.472 Q1185.2 26.1121 1193.54 26.1121 Q1198.57 26.1121 1202.17 28.0971 Q1205.78 30.082 1208.09 34.0924 L1208.09 27.2059 L1215.54 27.2059 L1215.54 66.9452 Z" fill="#000000" fill-rule="nonzero" fill-opacity="1" /><path clip-path="url(#clip070)" d="M1266.22 35.9153 Q1269.01 30.8922 1272.9 28.5022 Q1276.79 26.1121 1282.06 26.1121 Q1289.14 26.1121 1292.99 31.0947 Q1296.84 36.0368 1296.84 45.1919 L1296.84 72.576 L1289.35 72.576 L1289.35 45.4349 Q1289.35 38.913 1287.04 35.7533 Q1284.73 32.5936 1279.99 32.5936 Q1274.2 32.5936 1270.83 36.4419 Q1267.47 40.2903 1267.47 46.9338 L1267.47 72.576 L1259.98 72.576 L1259.98 45.4349 Q1259.98 38.8725 1257.67 35.7533 Q1255.36 32.5936 1250.54 32.5936 Q1244.83 32.5936 1241.47 36.4824 Q1238.1 40.3308 1238.1 46.9338 L1238.1 72.576 L1230.61 72.576 L1230.61 27.2059 L1238.1 27.2059 L1238.1 34.2544 Q1240.66 30.082 1244.22 28.0971 Q1247.78 26.1121 1252.69 26.1121 Q1257.63 26.1121 1261.07 28.6237 Q1264.56 31.1352 1266.22 35.9153 Z" fill="#000000" fill-rule="nonzero" fill-opacity="1" /><path clip-path="url(#clip070)" d="M1332.33 49.7694 Q1323.29 49.7694 1319.81 51.8354 Q1316.33 53.9013 1316.33 58.8839 Q1316.33 62.8538 1318.92 65.2034 Q1321.55 67.5124 1326.05 67.5124 Q1332.25 67.5124 1335.97 63.1374 Q1339.74 58.7219 1339.74 51.4303 L1339.74 49.7694 L1332.33 49.7694 M1347.19 46.6907 L1347.19 72.576 L1339.74 72.576 L1339.74 65.6895 Q1337.19 69.8214 1333.38 71.8063 Q1329.57 73.7508 1324.06 73.7508 Q1317.1 73.7508 1312.96 69.8619 Q1308.87 65.9325 1308.87 59.3701 Q1308.87 51.7138 1313.98 47.825 Q1319.12 43.9361 1329.29 43.9361 L1339.74 43.9361 L1339.74 43.2069 Q1339.74 38.0623 1336.34 35.2672 Q1332.98 32.4315 1326.86 32.4315 Q1322.97 32.4315 1319.28 33.3632 Q1315.6 34.295 1312.19 36.1584 L1312.19 29.2718 Q1316.29 27.692 1320.13 26.9223 Q1323.98 26.1121 1327.63 26.1121 Q1337.47 26.1121 1342.33 31.2163 Q1347.19 36.3204 1347.19 46.6907 Z" fill="#000000" fill-rule="nonzero" fill-opacity="1" /><path clip-path="url(#clip070)" d="M1397.43 18.8205 L1397.43 41.5461 L1407.71 41.5461 Q1413.43 41.5461 1416.55 38.5889 Q1419.66 35.6318 1419.66 30.163 Q1419.66 24.7348 1416.55 21.7777 Q1413.43 18.8205 1407.71 18.8205 L1397.43 18.8205 M1389.24 12.096 L1407.71 12.096 Q1417.88 12.096 1423.07 16.714 Q1428.29 21.2916 1428.29 30.163 Q1428.29 39.1155 1423.07 43.6931 Q1417.88 48.2706 1407.71 48.2706 L1397.43 48.2706 L1397.43 72.576 L1389.24 72.576 L1389.24 12.096 Z" fill="#000000" fill-rule="nonzero" fill-opacity="1" /><path clip-path="url(#clip070)" d="M1438.95 9.54393 L1446.4 9.54393 L1446.4 72.576 L1438.95 72.576 L1438.95 9.54393 Z" fill="#000000" fill-rule="nonzero" fill-opacity="1" /><path clip-path="url(#clip070)" d="M1479.58 32.4315 Q1473.58 32.4315 1470.1 37.1306 Q1466.61 41.7891 1466.61 49.9314 Q1466.61 58.0738 1470.06 62.7728 Q1473.54 67.4314 1479.58 67.4314 Q1485.53 67.4314 1489.02 62.7323 Q1492.5 58.0333 1492.5 49.9314 Q1492.5 41.8701 1489.02 37.1711 Q1485.53 32.4315 1479.58 32.4315 M1479.58 26.1121 Q1489.3 26.1121 1494.85 32.4315 Q1500.4 38.7509 1500.4 49.9314 Q1500.4 61.0714 1494.85 67.4314 Q1489.3 73.7508 1479.58 73.7508 Q1469.81 73.7508 1464.27 67.4314 Q1458.76 61.0714 1458.76 49.9314 Q1458.76 38.7509 1464.27 32.4315 Q1469.81 26.1121 1479.58 26.1121 Z" fill="#000000" fill-rule="nonzero" fill-opacity="1" /><path clip-path="url(#clip070)" d="M1520.13 14.324 L1520.13 27.2059 L1535.48 27.2059 L1535.48 32.9987 L1520.13 32.9987 L1520.13 57.6282 Q1520.13 63.1779 1521.63 64.7578 Q1523.17 66.3376 1527.82 66.3376 L1535.48 66.3376 L1535.48 72.576 L1527.82 72.576 Q1519.2 72.576 1515.91 69.3758 Q1512.63 66.1351 1512.63 57.6282 L1512.63 32.9987 L1507.16 32.9987 L1507.16 27.2059 L1512.63 27.2059 L1512.63 14.324 L1520.13 14.324 Z" fill="#000000" fill-rule="nonzero" fill-opacity="1" /><polyline clip-path="url(#clip072)" style="stroke:#009af9; stroke-linecap:round; stroke-linejoin:round; stroke-width:4; stroke-opacity:1; fill:none" points="341.475,357.639 597.177,357.846 746.753,358.188 852.879,358.663 935.197,359.265 1002.45,359.99 1059.32,360.831 1108.58,361.781 1152.03,362.833 1190.9,363.976 1226.06,365.205 1258.16,366.508 1287.68,367.879 1315.02,369.307 1340.47,370.786 1364.28,372.307 1386.65,373.862 1407.73,375.444 1427.68,377.047 1446.6,378.665 1464.6,380.292 1481.76,381.923 1498.16,383.554 1513.86,385.181 1528.92,386.8 1543.39,388.409 1557.31,390.005 1570.73,391.587 1583.67,393.151 1596.18,394.697 1608.27,396.223 1619.98,397.73 1631.34,399.215 1642.35,400.68 1653.04,402.122 1663.43,403.544 1673.54,404.943 1683.38,406.321 1692.96,407.677 1702.3,409.013 1711.41,410.327 1720.3,411.622 1728.98,412.896 1737.46,414.152 1745.75,415.388 1753.86,416.605 1761.79,417.805 1769.56,418.987 1777.17,420.152 1784.62,421.3 1791.93,422.433 1799.09,423.549 1806.12,424.65 1813.01,425.736 1819.78,426.807 1826.43,427.864 1832.96,428.907 1839.37,429.936 1845.68,430.952 1851.88,431.954 1857.98,432.944 1863.97,433.92 1869.88,434.884 1875.69,435.836 1881.41,436.774 1887.04,437.701 1892.59,438.614 1898.05,439.516 1903.44,440.405 1908.74,441.282 1913.98,442.146 1919.14,442.997 1924.23,443.836 1929.24,444.662 1934.2,445.474 1939.08,446.274 1943.9,447.06 1948.66,447.832 1953.36,448.59 1958,449.334 1962.59,450.062 1967.11,450.776 1971.59,451.474 1976,452.156 1980.37,452.821 1984.68,453.469 1988.95,454.099 1993.16,454.71 1997.33,455.302 2001.45,455.875 2005.53,456.426 2009.56,456.956 2013.55,457.463 2017.5,457.946 2021.4,458.404 2025.26,458.836 2029.09,459.241 2032.87,459.617 2036.61,459.962 2040.32,460.275 2043.99,460.554 2047.63,460.797 2051.23,461.002 2054.79,461.167 2058.32,461.288 2061.82,461.363 2065.28,461.39 2068.71,461.364 2072.11,461.281 2075.48,461.139 2078.82,460.931 2082.13,460.654 2085.41,460.301 2088.66,459.867 2091.88,459.344 2095.07,458.725 2098.24,458.002 2101.38,457.165 2104.49,456.204 2107.58,455.106 2110.64,453.858 2113.68,452.446 2116.69,450.852 2119.68,449.057 2122.64,447.04 2125.58,444.775 2128.5,442.236 2131.39,439.391 2134.26,436.204 2137.11,432.634 2139.94,428.635 2142.74,424.154 2145.52,419.134 2148.29,413.506 2151.03,407.197 2153.75,400.122 2156.46,392.19 2159.14,383.301 2161.8,373.348 2164.45,362.221 2167.07,349.812 2169.68,336.02 2172.27,320.769 2174.84,304.027 2177.39,285.836 2179.93,266.354 2182.45,245.923 2184.95,225.142 2187.43,204.949 2189.9,186.669 2192.35,171.96 2194.78,162.572 2197.2,159.909 2199.61,164.547 2201.99,175.999 2204.37,192.896 2206.72,213.449 2209.07,235.916 2211.39,258.875 2213.71,281.308 2216,302.56 2218.29,322.263 2220.56,340.249 2222.82,356.488 2225.06,371.033 2227.29,383.989 2229.5,395.483 2231.71,405.656 2233.89,414.644 2236.07,422.578 2238.23,429.578 2240.39,435.755 2242.52,441.205 2244.65,446.015 2246.76,450.26 2248.87,454.006 2250.96,457.313 2253.03,460.229 2255.1,462.8 2257.16,465.064 2259.2,467.055 2261.23,468.803 2263.25,470.334 2265.26,471.671 2267.26,472.836 2269.25,473.847 2271.23,474.721 2273.2,475.472 2275.16,476.114 2277.1,476.659 2279.04,477.118 2280.96,477.5 2282.88,477.815 2284.79,478.068 2286.68,478.267 2288.57,478.416 2290.45,478.52 2292.32,478.581 2294.17,478.601 "/>
<polyline clip-path="url(#clip072)" style="stroke:#009af9; stroke-linecap:round; stroke-linejoin:round; stroke-width:4; stroke-opacity:1; fill:none" points="341.475,1039.06 597.177,1039.36 746.753,1039.86 852.879,1040.56 935.197,1041.45 1002.45,1042.53 1059.32,1043.79 1108.58,1045.23 1152.03,1046.83 1190.9,1048.6 1226.06,1050.51 1258.16,1052.57 1287.68,1054.76 1315.02,1057.07 1340.47,1059.5 1364.28,1062.03 1386.65,1064.65 1407.73,1067.35 1427.68,1070.13 1446.6,1072.97 1464.6,1075.86 1481.76,1078.79 1498.16,1081.75 1513.86,1084.74 1528.92,1087.75 1543.39,1090.76 1557.31,1093.78 1570.73,1096.79 1583.67,1099.78 1596.18,1102.75 1608.27,1105.7 1619.98,1108.61 1631.34,1111.48 1642.35,1114.32 1653.04,1117.1 1663.43,1119.83 1673.54,1122.51 1683.38,1125.13 1692.96,1127.68 1702.3,1130.17 1711.41,1132.59 1720.3,1134.94 1728.98,1137.21 1737.46,1139.41 1745.75,1141.53 1753.86,1143.57 1761.79,1145.53 1769.56,1147.4 1777.17,1149.2 1784.62,1150.9 1791.93,1152.52 1799.09,1154.06 1806.12,1155.5 1813.01,1156.86 1819.78,1158.13 1826.43,1159.31 1832.96,1160.39 1839.37,1161.39 1845.68,1162.3 1851.88,1163.11 1857.98,1163.83 1863.97,1164.46 1869.88,1165 1875.69,1165.44 1881.41,1165.79 1887.04,1166.05 1892.59,1166.21 1898.05,1166.28 1903.44,1166.26 1908.74,1166.14 1913.98,1165.92 1919.14,1165.61 1924.23,1165.21 1929.24,1164.71 1934.2,1164.11 1939.08,1163.42 1943.9,1162.63 1948.66,1161.75 1953.36,1160.76 1958,1159.68 1962.59,1158.5 1967.11,1157.22 1971.59,1155.84 1976,1154.36 1980.37,1152.78 1984.68,1151.09 1988.95,1149.3 1993.16,1147.41 1997.33,1145.42 2001.45,1143.32 2005.53,1141.11 2009.56,1138.79 2013.55,1136.36 2017.5,1133.82 2021.4,1131.17 2025.26,1128.41 2029.09,1125.53 2032.87,1122.53 2036.61,1119.42 2040.32,1116.18 2043.99,1112.83 2047.63,1109.35 2051.23,1105.74 2054.79,1102 2058.32,1098.13 2061.82,1094.13 2065.28,1090 2068.71,1085.73 2072.11,1081.31 2075.48,1076.75 2078.82,1072.05 2082.13,1067.2 2085.41,1062.2 2088.66,1057.04 2091.88,1051.73 2095.07,1046.26 2098.24,1040.62 2101.38,1034.82 2104.49,1028.86 2107.58,1022.72 2110.64,1016.42 2113.68,1009.94 2116.69,1003.29 2119.68,996.475 2122.64,989.484 2125.58,982.324 2128.5,974.998 2131.39,967.512 2134.26,959.872 2137.11,952.088 2139.94,944.171 2142.74,936.137 2145.52,928.004 2148.29,919.796 2151.03,911.542 2153.75,903.274 2156.46,895.032 2159.14,886.864 2161.8,878.821 2164.45,870.965 2167.07,863.363 2169.68,856.089 2172.27,849.221 2174.84,842.843 2177.39,837.043 2179.93,831.907 2182.45,827.524 2184.95,823.978 2187.43,821.35 2189.9,819.717 2192.35,819.148 2194.78,819.705 2197.2,821.441 2199.61,824.401 2201.99,828.615 2204.37,834.103 2206.72,840.865 2209.07,848.885 2211.39,858.128 2213.71,868.536 2216,880.037 2218.29,892.538 2220.56,905.937 2222.82,920.124 2225.06,934.985 2227.29,950.41 2229.5,966.292 2231.71,982.534 2233.89,999.048 2236.07,1015.75 2238.23,1032.58 2240.39,1049.48 2242.52,1066.39 2244.65,1083.27 2246.76,1100.08 2248.87,1116.79 2250.96,1133.37 2253.03,1149.79 2255.1,1166.01 2257.16,1182.01 2259.2,1197.76 2261.23,1213.23 2263.25,1228.37 2265.26,1243.14 2267.26,1257.5 2269.25,1271.4 2271.23,1284.76 2273.2,1297.52 2275.16,1309.61 2277.1,1320.94 2279.04,1331.43 2280.96,1340.99 2282.88,1349.51 2284.79,1356.92 2286.68,1363.11 2288.57,1368.02 2290.45,1371.58 2292.32,1373.74 2294.17,1374.46 "/>
<polyline clip-path="url(#clip072)" style="stroke:#e26f46; stroke-linecap:round; stroke-linejoin:round; stroke-width:4; stroke-opacity:1; fill:none" points="341.475,357.639 597.177,357.846 746.753,358.188 852.879,358.663 935.197,359.265 1002.45,359.99 1059.32,360.831 1108.58,361.781 1152.03,362.833 1190.9,363.976 1226.06,365.205 1258.16,366.508 1287.68,367.879 1315.02,369.307 1340.47,370.786 1364.28,372.307 1386.65,373.862 1407.73,375.444 1427.68,377.047 1446.6,378.665 1464.6,380.292 1481.76,381.923 1498.16,383.554 1513.86,385.181 1528.92,386.8 1543.39,388.409 1557.31,390.005 1570.73,391.587 1583.67,393.151 1596.18,394.697 1608.27,396.223 1619.98,397.73 1631.34,399.215 1642.35,400.68 1653.04,402.122 1663.43,403.544 1673.54,404.943 1683.38,406.321 1692.96,407.677 1702.3,409.013 1711.41,410.327 1720.3,411.622 1728.98,412.896 1737.46,414.152 1745.75,415.388 1753.86,416.605 1761.79,417.805 1769.56,418.987 1777.17,420.152 1784.62,421.3 1791.93,422.433 1799.09,423.549 1806.12,424.65 1813.01,425.736 1819.78,426.807 1826.43,427.864 1832.96,428.907 1839.37,429.936 1845.68,430.952 1851.88,431.954 1857.98,432.944 1863.97,433.92 1869.88,434.884 1875.69,435.836 1881.41,436.774 1887.04,437.701 1892.59,438.614 1898.05,439.516 1903.44,440.405 1908.74,441.282 1913.98,442.146 1919.14,442.997 1924.23,443.836 1929.24,444.662 1934.2,445.474 1939.08,446.274 1943.9,447.06 1948.66,447.832 1953.36,448.59 1958,449.334 1962.59,450.062 1967.11,450.776 1971.59,451.474 1976,452.156 1980.37,452.821 1984.68,453.469 1988.95,454.099 1993.16,454.71 1997.33,455.302 2001.45,455.875 2005.53,456.426 2009.56,456.956 2013.55,457.463 2017.5,457.946 2021.4,458.404 2025.26,458.836 2029.09,459.241 2032.87,459.617 2036.61,459.962 2040.32,460.275 2043.99,460.554 2047.63,460.797 2051.23,461.002 2054.79,461.167 2058.32,461.288 2061.82,461.363 2065.28,461.39 2068.71,461.364 2072.11,461.281 2075.48,461.139 2078.82,460.931 2082.13,460.654 2085.41,460.301 2088.66,459.867 2091.88,459.344 2095.07,458.725 2098.24,458.002 2101.38,457.165 2104.49,456.204 2107.58,455.106 2110.64,453.858 2113.68,452.446 2116.69,450.852 2119.68,449.057 2122.64,447.04 2125.58,444.775 2128.5,442.236 2131.39,439.391 2134.26,436.204 2137.11,432.634 2139.94,428.635 2142.74,424.154 2145.52,419.134 2148.29,413.506 2151.03,407.197 2153.75,400.122 2156.46,392.19 2159.14,383.301 2161.8,373.348 2164.45,362.221 2167.07,349.812 2169.68,336.02 2172.27,320.769 2174.84,304.027 2177.39,285.836 2179.93,266.354 2182.45,245.923 2184.95,225.142 2187.43,204.949 2189.9,186.669 2192.35,171.96 2194.78,162.572 2197.2,159.909 2199.61,164.547 2201.99,175.999 2204.37,192.896 2206.72,213.449 2209.07,235.916 2211.39,258.875 2213.71,281.308 2216,302.56 2218.29,322.263 2220.56,340.249 2222.82,356.488 2225.06,371.033 2227.29,383.989 2229.5,395.483 2231.71,405.656 2233.89,414.644 2236.07,422.578 2238.23,429.578 2240.39,435.755 2242.52,441.205 2244.65,446.015 2246.76,450.26 2248.87,454.006 2250.96,457.313 2253.03,460.229 2255.1,462.8 2257.16,465.064 2259.2,467.055 2261.23,468.803 2263.25,470.334 2265.26,471.671 2267.26,472.836 2269.25,473.847 2271.23,474.721 2273.2,475.472 2275.16,476.114 2277.1,476.659 2279.04,477.118 2280.96,477.5 2282.88,477.815 2284.79,478.068 2286.68,478.267 2288.57,478.416 2290.45,478.52 2292.32,478.581 2294.17,478.601 "/>
<polyline clip-path="url(#clip072)" style="stroke:#e26f46; stroke-linecap:round; stroke-linejoin:round; stroke-width:4; stroke-opacity:1; fill:none" points="341.475,1039.06 597.177,1039.36 746.753,1039.86 852.879,1040.56 935.197,1041.45 1002.45,1042.53 1059.32,1043.79 1108.58,1045.23 1152.03,1046.83 1190.9,1048.6 1226.06,1050.51 1258.16,1052.57 1287.68,1054.76 1315.02,1057.07 1340.47,1059.5 1364.28,1062.03 1386.65,1064.65 1407.73,1067.35 1427.68,1070.13 1446.6,1072.97 1464.6,1075.86 1481.76,1078.79 1498.16,1081.75 1513.86,1084.74 1528.92,1087.75 1543.39,1090.76 1557.31,1093.78 1570.73,1096.79 1583.67,1099.78 1596.18,1102.75 1608.27,1105.7 1619.98,1108.61 1631.34,1111.48 1642.35,1114.32 1653.04,1117.1 1663.43,1119.83 1673.54,1122.51 1683.38,1125.13 1692.96,1127.68 1702.3,1130.17 1711.41,1132.59 1720.3,1134.94 1728.98,1137.21 1737.46,1139.41 1745.75,1141.53 1753.86,1143.57 1761.79,1145.53 1769.56,1147.4 1777.17,1149.2 1784.62,1150.9 1791.93,1152.52 1799.09,1154.06 1806.12,1155.5 1813.01,1156.86 1819.78,1158.13 1826.43,1159.31 1832.96,1160.39 1839.37,1161.39 1845.68,1162.3 1851.88,1163.11 1857.98,1163.83 1863.97,1164.46 1869.88,1165 1875.69,1165.44 1881.41,1165.79 1887.04,1166.05 1892.59,1166.21 1898.05,1166.28 1903.44,1166.26 1908.74,1166.14 1913.98,1165.92 1919.14,1165.61 1924.23,1165.21 1929.24,1164.71 1934.2,1164.11 1939.08,1163.42 1943.9,1162.63 1948.66,1161.75 1953.36,1160.76 1958,1159.68 1962.59,1158.5 1967.11,1157.22 1971.59,1155.84 1976,1154.36 1980.37,1152.78 1984.68,1151.09 1988.95,1149.3 1993.16,1147.41 1997.33,1145.42 2001.45,1143.32 2005.53,1141.11 2009.56,1138.79 2013.55,1136.36 2017.5,1133.82 2021.4,1131.17 2025.26,1128.41 2029.09,1125.53 2032.87,1122.53 2036.61,1119.42 2040.32,1116.18 2043.99,1112.83 2047.63,1109.35 2051.23,1105.74 2054.79,1102 2058.32,1098.13 2061.82,1094.13 2065.28,1090 2068.71,1085.73 2072.11,1081.31 2075.48,1076.75 2078.82,1072.05 2082.13,1067.2 2085.41,1062.2 2088.66,1057.04 2091.88,1051.73 2095.07,1046.26 2098.24,1040.62 2101.38,1034.82 2104.49,1028.86 2107.58,1022.72 2110.64,1016.42 2113.68,1009.94 2116.69,1003.29 2119.68,996.475 2122.64,989.484 2125.58,982.324 2128.5,974.998 2131.39,967.512 2134.26,959.872 2137.11,952.088 2139.94,944.171 2142.74,936.137 2145.52,928.004 2148.29,919.796 2151.03,911.542 2153.75,903.274 2156.46,895.032 2159.14,886.864 2161.8,878.821 2164.45,870.965 2167.07,863.363 2169.68,856.089 2172.27,849.221 2174.84,842.843 2177.39,837.043 2179.93,831.907 2182.45,827.524 2184.95,823.978 2187.43,821.35 2189.9,819.717 2192.35,819.148 2194.78,819.705 2197.2,821.441 2199.61,824.401 2201.99,828.615 2204.37,834.103 2206.72,840.865 2209.07,848.885 2211.39,858.128 2213.71,868.536 2216,880.037 2218.29,892.538 2220.56,905.937 2222.82,920.124 2225.06,934.985 2227.29,950.41 2229.5,966.292 2231.71,982.534 2233.89,999.048 2236.07,1015.75 2238.23,1032.58 2240.39,1049.48 2242.52,1066.39 2244.65,1083.27 2246.76,1100.08 2248.87,1116.79 2250.96,1133.37 2253.03,1149.79 2255.1,1166.01 2257.16,1182.01 2259.2,1197.76 2261.23,1213.23 2263.25,1228.37 2265.26,1243.14 2267.26,1257.5 2269.25,1271.4 2271.23,1284.76 2273.2,1297.52 2275.16,1309.61 2277.1,1320.94 2279.04,1331.43 2280.96,1340.99 2282.88,1349.51 2284.79,1356.92 2286.68,1363.11 2288.57,1368.02 2290.45,1371.58 2292.32,1373.74 2294.17,1374.46 "/>
<path clip-path="url(#clip070)" d="M1683.7 321.906 L2283.76 321.906 L2283.76 166.386 L1683.7 166.386  Z" fill="#ffffff" fill-rule="evenodd" fill-opacity="1"/>
<polyline clip-path="url(#clip070)" style="stroke:#000000; stroke-linecap:round; stroke-linejoin:round; stroke-width:4; stroke-opacity:1; fill:none" points="1683.7,321.906 2283.76,321.906 2283.76,166.386 1683.7,166.386 1683.7,321.906 "/>
<polyline clip-path="url(#clip070)" style="stroke:#009af9; stroke-linecap:round; stroke-linejoin:round; stroke-width:4; stroke-opacity:1; fill:none" points="1706.7,218.226 1844.69,218.226 "/>
<path clip-path="url(#clip070)" d="M1867.69 200.946 L1896.92 200.946 L1896.92 204.881 L1884.65 204.881 L1884.65 235.506 L1879.95 235.506 L1879.95 204.881 L1867.69 204.881 L1867.69 200.946 Z" fill="#000000" fill-rule="nonzero" fill-opacity="1" /><path clip-path="url(#clip070)" d="M1909.31 213.562 Q1908.59 213.145 1907.73 212.96 Q1906.9 212.752 1905.88 212.752 Q1902.27 212.752 1900.32 215.113 Q1898.4 217.451 1898.4 221.849 L1898.4 235.506 L1894.12 235.506 L1894.12 209.58 L1898.4 209.58 L1898.4 213.608 Q1899.75 211.247 1901.9 210.113 Q1904.05 208.955 1907.13 208.955 Q1907.57 208.955 1908.1 209.025 Q1908.63 209.071 1909.28 209.187 L1909.31 213.562 Z" fill="#000000" fill-rule="nonzero" fill-opacity="1" /><path clip-path="url(#clip070)" d="M1913.33 225.275 L1913.33 209.58 L1917.59 209.58 L1917.59 225.113 Q1917.59 228.793 1919.03 230.645 Q1920.46 232.474 1923.33 232.474 Q1926.78 232.474 1928.77 230.275 Q1930.79 228.076 1930.79 224.279 L1930.79 209.58 L1935.05 209.58 L1935.05 235.506 L1930.79 235.506 L1930.79 231.525 Q1929.24 233.886 1927.18 235.043 Q1925.14 236.178 1922.43 236.178 Q1917.96 236.178 1915.65 233.4 Q1913.33 230.622 1913.33 225.275 M1924.05 208.955 L1924.05 208.955 Z" fill="#000000" fill-rule="nonzero" fill-opacity="1" /><path clip-path="url(#clip070)" d="M1966 221.479 L1966 223.562 L1946.41 223.562 Q1946.69 227.96 1949.05 230.275 Q1951.43 232.566 1955.67 232.566 Q1958.12 232.566 1960.42 231.965 Q1962.73 231.363 1965 230.159 L1965 234.187 Q1962.71 235.159 1960.3 235.668 Q1957.89 236.178 1955.42 236.178 Q1949.21 236.178 1945.58 232.566 Q1941.97 228.955 1941.97 222.798 Q1941.97 216.432 1945.39 212.705 Q1948.84 208.955 1954.68 208.955 Q1959.91 208.955 1962.94 212.335 Q1966 215.692 1966 221.479 M1961.74 220.229 Q1961.69 216.733 1959.77 214.65 Q1957.87 212.567 1954.72 212.567 Q1951.16 212.567 1949 214.58 Q1946.87 216.594 1946.55 220.252 L1961.74 220.229 Z" fill="#000000" fill-rule="nonzero" fill-opacity="1" /><path clip-path="url(#clip070)" d="M2004.58 210.344 L2004.58 214.372 Q2002.78 213.446 2000.83 212.983 Q1998.89 212.52 1996.81 212.52 Q1993.63 212.52 1992.04 213.493 Q1990.46 214.465 1990.46 216.409 Q1990.46 217.891 1991.6 218.747 Q1992.73 219.58 1996.16 220.344 L1997.62 220.668 Q2002.15 221.641 2004.05 223.423 Q2005.97 225.182 2005.97 228.354 Q2005.97 231.965 2003.1 234.071 Q2000.25 236.178 1995.25 236.178 Q1993.17 236.178 1990.9 235.761 Q1988.66 235.367 1986.16 234.557 L1986.16 230.159 Q1988.52 231.386 1990.81 232.011 Q1993.1 232.613 1995.35 232.613 Q1998.36 232.613 1999.98 231.594 Q2001.6 230.553 2001.6 228.678 Q2001.6 226.942 2000.42 226.016 Q1999.26 225.09 1995.3 224.233 L1993.82 223.886 Q1989.86 223.053 1988.1 221.34 Q1986.34 219.604 1986.34 216.594 Q1986.34 212.937 1988.93 210.946 Q1991.53 208.955 1996.3 208.955 Q1998.66 208.955 2000.74 209.303 Q2002.82 209.65 2004.58 210.344 Z" fill="#000000" fill-rule="nonzero" fill-opacity="1" /><path clip-path="url(#clip070)" d="M2023.54 237.914 Q2021.74 242.543 2020.02 243.955 Q2018.31 245.367 2015.44 245.367 L2012.04 245.367 L2012.04 241.803 L2014.54 241.803 Q2016.3 241.803 2017.27 240.969 Q2018.24 240.136 2019.42 237.034 L2020.18 235.09 L2009.7 209.58 L2014.21 209.58 L2022.31 229.858 L2030.42 209.58 L2034.93 209.58 L2023.54 237.914 Z" fill="#000000" fill-rule="nonzero" fill-opacity="1" /><path clip-path="url(#clip070)" d="M2057.34 210.344 L2057.34 214.372 Q2055.53 213.446 2053.59 212.983 Q2051.64 212.52 2049.56 212.52 Q2046.39 212.52 2044.79 213.493 Q2043.22 214.465 2043.22 216.409 Q2043.22 217.891 2044.35 218.747 Q2045.49 219.58 2048.91 220.344 L2050.37 220.668 Q2054.91 221.641 2056.8 223.423 Q2058.73 225.182 2058.73 228.354 Q2058.73 231.965 2055.86 234.071 Q2053.01 236.178 2048.01 236.178 Q2045.93 236.178 2043.66 235.761 Q2041.41 235.367 2038.91 234.557 L2038.91 230.159 Q2041.27 231.386 2043.56 232.011 Q2045.86 232.613 2048.1 232.613 Q2051.11 232.613 2052.73 231.594 Q2054.35 230.553 2054.35 228.678 Q2054.35 226.942 2053.17 226.016 Q2052.01 225.09 2048.05 224.233 L2046.57 223.886 Q2042.62 223.053 2040.86 221.34 Q2039.1 219.604 2039.1 216.594 Q2039.1 212.937 2041.69 210.946 Q2044.28 208.955 2049.05 208.955 Q2051.41 208.955 2053.49 209.303 Q2055.58 209.65 2057.34 210.344 Z" fill="#000000" fill-rule="nonzero" fill-opacity="1" /><path clip-path="url(#clip070)" d="M2069.72 202.219 L2069.72 209.58 L2078.49 209.58 L2078.49 212.891 L2069.72 212.891 L2069.72 226.965 Q2069.72 230.136 2070.58 231.039 Q2071.46 231.941 2074.12 231.941 L2078.49 231.941 L2078.49 235.506 L2074.12 235.506 Q2069.19 235.506 2067.31 233.678 Q2065.44 231.826 2065.44 226.965 L2065.44 212.891 L2062.31 212.891 L2062.31 209.58 L2065.44 209.58 L2065.44 202.219 L2069.72 202.219 Z" fill="#000000" fill-rule="nonzero" fill-opacity="1" /><path clip-path="url(#clip070)" d="M2106.27 221.479 L2106.27 223.562 L2086.69 223.562 Q2086.97 227.96 2089.33 230.275 Q2091.71 232.566 2095.95 232.566 Q2098.4 232.566 2100.69 231.965 Q2103.01 231.363 2105.28 230.159 L2105.28 234.187 Q2102.99 235.159 2100.58 235.668 Q2098.17 236.178 2095.69 236.178 Q2089.49 236.178 2085.86 232.566 Q2082.24 228.955 2082.24 222.798 Q2082.24 216.432 2085.67 212.705 Q2089.12 208.955 2094.95 208.955 Q2100.18 208.955 2103.22 212.335 Q2106.27 215.692 2106.27 221.479 M2102.01 220.229 Q2101.97 216.733 2100.05 214.65 Q2098.15 212.567 2095 212.567 Q2091.43 212.567 2089.28 214.58 Q2087.15 216.594 2086.83 220.252 L2102.01 220.229 Z" fill="#000000" fill-rule="nonzero" fill-opacity="1" /><path clip-path="url(#clip070)" d="M2133.45 214.557 Q2135.05 211.687 2137.27 210.321 Q2139.49 208.955 2142.5 208.955 Q2146.55 208.955 2148.75 211.803 Q2150.95 214.627 2150.95 219.858 L2150.95 235.506 L2146.67 235.506 L2146.67 219.997 Q2146.67 216.27 2145.35 214.465 Q2144.03 212.659 2141.32 212.659 Q2138.01 212.659 2136.09 214.858 Q2134.17 217.057 2134.17 220.854 L2134.17 235.506 L2129.88 235.506 L2129.88 219.997 Q2129.88 216.247 2128.56 214.465 Q2127.24 212.659 2124.49 212.659 Q2121.23 212.659 2119.3 214.881 Q2117.38 217.08 2117.38 220.854 L2117.38 235.506 L2113.1 235.506 L2113.1 209.58 L2117.38 209.58 L2117.38 213.608 Q2118.84 211.224 2120.88 210.09 Q2122.92 208.955 2125.72 208.955 Q2128.54 208.955 2130.51 210.391 Q2132.5 211.826 2133.45 214.557 Z" fill="#000000" fill-rule="nonzero" fill-opacity="1" /><polyline clip-path="url(#clip070)" style="stroke:#e26f46; stroke-linecap:round; stroke-linejoin:round; stroke-width:4; stroke-opacity:1; fill:none" points="1706.7,270.066 1844.69,270.066 "/>
<path clip-path="url(#clip070)" d="M1867.69 252.786 L1889.54 252.786 L1889.54 256.721 L1872.36 256.721 L1872.36 266.953 L1888.82 266.953 L1888.82 270.888 L1872.36 270.888 L1872.36 283.411 L1889.95 283.411 L1889.95 287.346 L1867.69 287.346 L1867.69 252.786 Z" fill="#000000" fill-rule="nonzero" fill-opacity="1" /><path clip-path="url(#clip070)" d="M1913.98 262.184 L1913.98 266.212 Q1912.18 265.286 1910.23 264.823 Q1908.29 264.36 1906.2 264.36 Q1903.03 264.36 1901.44 265.333 Q1899.86 266.305 1899.86 268.249 Q1899.86 269.731 1901 270.587 Q1902.13 271.42 1905.56 272.184 L1907.01 272.508 Q1911.55 273.481 1913.45 275.263 Q1915.37 277.022 1915.37 280.194 Q1915.37 283.805 1912.5 285.911 Q1909.65 288.018 1904.65 288.018 Q1902.57 288.018 1900.3 287.601 Q1898.06 287.207 1895.56 286.397 L1895.56 281.999 Q1897.92 283.226 1900.21 283.851 Q1902.5 284.453 1904.75 284.453 Q1907.75 284.453 1909.38 283.434 Q1911 282.393 1911 280.518 Q1911 278.782 1909.81 277.856 Q1908.66 276.93 1904.7 276.073 L1903.22 275.726 Q1899.26 274.893 1897.5 273.18 Q1895.74 271.444 1895.74 268.434 Q1895.74 264.777 1898.33 262.786 Q1900.93 260.795 1905.69 260.795 Q1908.06 260.795 1910.14 261.143 Q1912.22 261.49 1913.98 262.184 Z" fill="#000000" fill-rule="nonzero" fill-opacity="1" /><path clip-path="url(#clip070)" d="M1926.37 254.059 L1926.37 261.42 L1935.14 261.42 L1935.14 264.731 L1926.37 264.731 L1926.37 278.805 Q1926.37 281.976 1927.22 282.879 Q1928.1 283.781 1930.76 283.781 L1935.14 283.781 L1935.14 287.346 L1930.76 287.346 Q1925.83 287.346 1923.96 285.518 Q1922.08 283.666 1922.08 278.805 L1922.08 264.731 L1918.96 264.731 L1918.96 261.42 L1922.08 261.42 L1922.08 254.059 L1926.37 254.059 Z" fill="#000000" fill-rule="nonzero" fill-opacity="1" /><path clip-path="url(#clip070)" d="M1940.74 261.42 L1945 261.42 L1945 287.346 L1940.74 287.346 L1940.74 261.42 M1940.74 251.328 L1945 251.328 L1945 256.721 L1940.74 256.721 L1940.74 251.328 Z" fill="#000000" fill-rule="nonzero" fill-opacity="1" /><path clip-path="url(#clip070)" d="M1974.1 266.397 Q1975.69 263.527 1977.92 262.161 Q1980.14 260.795 1983.15 260.795 Q1987.2 260.795 1989.4 263.643 Q1991.6 266.467 1991.6 271.698 L1991.6 287.346 L1987.31 287.346 L1987.31 271.837 Q1987.31 268.11 1985.99 266.305 Q1984.68 264.499 1981.97 264.499 Q1978.66 264.499 1976.74 266.698 Q1974.81 268.897 1974.81 272.694 L1974.81 287.346 L1970.53 287.346 L1970.53 271.837 Q1970.53 268.087 1969.21 266.305 Q1967.89 264.499 1965.14 264.499 Q1961.87 264.499 1959.95 266.721 Q1958.03 268.92 1958.03 272.694 L1958.03 287.346 L1953.75 287.346 L1953.75 261.42 L1958.03 261.42 L1958.03 265.448 Q1959.49 263.064 1961.53 261.93 Q1963.56 260.795 1966.37 260.795 Q1969.19 260.795 1971.16 262.231 Q1973.15 263.666 1974.1 266.397 Z" fill="#000000" fill-rule="nonzero" fill-opacity="1" /><path clip-path="url(#clip070)" d="M2011.87 274.314 Q2006.71 274.314 2004.72 275.494 Q2002.73 276.675 2002.73 279.522 Q2002.73 281.791 2004.21 283.133 Q2005.72 284.453 2008.29 284.453 Q2011.83 284.453 2013.96 281.953 Q2016.11 279.43 2016.11 275.263 L2016.11 274.314 L2011.87 274.314 M2020.37 272.555 L2020.37 287.346 L2016.11 287.346 L2016.11 283.411 Q2014.65 285.772 2012.48 286.906 Q2010.3 288.018 2007.15 288.018 Q2003.17 288.018 2000.81 285.795 Q1998.47 283.55 1998.47 279.8 Q1998.47 275.425 2001.39 273.203 Q2004.33 270.981 2010.14 270.981 L2016.11 270.981 L2016.11 270.564 Q2016.11 267.624 2014.17 266.027 Q2012.24 264.407 2008.75 264.407 Q2006.53 264.407 2004.42 264.939 Q2002.31 265.471 2000.37 266.536 L2000.37 262.601 Q2002.71 261.698 2004.91 261.258 Q2007.11 260.795 2009.19 260.795 Q2014.81 260.795 2017.59 263.712 Q2020.37 266.629 2020.37 272.555 Z" fill="#000000" fill-rule="nonzero" fill-opacity="1" /><path clip-path="url(#clip070)" d="M2033.36 254.059 L2033.36 261.42 L2042.13 261.42 L2042.13 264.731 L2033.36 264.731 L2033.36 278.805 Q2033.36 281.976 2034.21 282.879 Q2035.09 283.781 2037.75 283.781 L2042.13 283.781 L2042.13 287.346 L2037.75 287.346 Q2032.82 287.346 2030.95 285.518 Q2029.07 283.666 2029.07 278.805 L2029.07 264.731 L2025.95 264.731 L2025.95 261.42 L2029.07 261.42 L2029.07 254.059 L2033.36 254.059 Z" fill="#000000" fill-rule="nonzero" fill-opacity="1" /><path clip-path="url(#clip070)" d="M2069.91 273.319 L2069.91 275.402 L2050.32 275.402 Q2050.6 279.8 2052.96 282.115 Q2055.35 284.406 2059.58 284.406 Q2062.04 284.406 2064.33 283.805 Q2066.64 283.203 2068.91 281.999 L2068.91 286.027 Q2066.62 286.999 2064.21 287.508 Q2061.8 288.018 2059.33 288.018 Q2053.12 288.018 2049.49 284.406 Q2045.88 280.795 2045.88 274.638 Q2045.88 268.272 2049.3 264.545 Q2052.75 260.795 2058.59 260.795 Q2063.82 260.795 2066.85 264.175 Q2069.91 267.532 2069.91 273.319 M2065.65 272.069 Q2065.6 268.573 2063.68 266.49 Q2061.78 264.407 2058.63 264.407 Q2055.07 264.407 2052.92 266.42 Q2050.79 268.434 2050.46 272.092 L2065.65 272.069 Z" fill="#000000" fill-rule="nonzero" fill-opacity="1" /><path clip-path="url(#clip070)" d="M2093.96 265.356 L2093.96 251.328 L2098.22 251.328 L2098.22 287.346 L2093.96 287.346 L2093.96 283.457 Q2092.61 285.772 2090.55 286.906 Q2088.52 288.018 2085.65 288.018 Q2080.95 288.018 2077.99 284.268 Q2075.05 280.518 2075.05 274.407 Q2075.05 268.295 2077.99 264.545 Q2080.95 260.795 2085.65 260.795 Q2088.52 260.795 2090.55 261.93 Q2092.61 263.041 2093.96 265.356 M2079.44 274.407 Q2079.44 279.106 2081.36 281.791 Q2083.31 284.453 2086.69 284.453 Q2090.07 284.453 2092.01 281.791 Q2093.96 279.106 2093.96 274.407 Q2093.96 269.707 2092.01 267.045 Q2090.07 264.36 2086.69 264.36 Q2083.31 264.36 2081.36 267.045 Q2079.44 269.707 2079.44 274.407 Z" fill="#000000" fill-rule="nonzero" fill-opacity="1" /><path clip-path="url(#clip070)" d="M2142.24 266.397 Q2143.84 263.527 2146.06 262.161 Q2148.29 260.795 2151.3 260.795 Q2155.35 260.795 2157.55 263.643 Q2159.74 266.467 2159.74 271.698 L2159.74 287.346 L2155.46 287.346 L2155.46 271.837 Q2155.46 268.11 2154.14 266.305 Q2152.82 264.499 2150.11 264.499 Q2146.8 264.499 2144.88 266.698 Q2142.96 268.897 2142.96 272.694 L2142.96 287.346 L2138.68 287.346 L2138.68 271.837 Q2138.68 268.087 2137.36 266.305 Q2136.04 264.499 2133.29 264.499 Q2130.02 264.499 2128.1 266.721 Q2126.18 268.92 2126.18 272.694 L2126.18 287.346 L2121.9 287.346 L2121.9 261.42 L2126.18 261.42 L2126.18 265.448 Q2127.64 263.064 2129.67 261.93 Q2131.71 260.795 2134.51 260.795 Q2137.34 260.795 2139.3 262.231 Q2141.3 263.666 2142.24 266.397 Z" fill="#000000" fill-rule="nonzero" fill-opacity="1" /><path clip-path="url(#clip070)" d="M2178.29 264.407 Q2174.86 264.407 2172.87 267.092 Q2170.88 269.754 2170.88 274.407 Q2170.88 279.059 2172.85 281.744 Q2174.84 284.406 2178.29 284.406 Q2181.69 284.406 2183.68 281.721 Q2185.67 279.036 2185.67 274.407 Q2185.67 269.8 2183.68 267.115 Q2181.69 264.407 2178.29 264.407 M2178.29 260.795 Q2183.84 260.795 2187.01 264.407 Q2190.18 268.018 2190.18 274.407 Q2190.18 280.772 2187.01 284.406 Q2183.84 288.018 2178.29 288.018 Q2172.71 288.018 2169.54 284.406 Q2166.39 280.772 2166.39 274.407 Q2166.39 268.018 2169.54 264.407 Q2172.71 260.795 2178.29 260.795 Z" fill="#000000" fill-rule="nonzero" fill-opacity="1" /><path clip-path="url(#clip070)" d="M2214.3 265.356 L2214.3 251.328 L2218.56 251.328 L2218.56 287.346 L2214.3 287.346 L2214.3 283.457 Q2212.96 285.772 2210.9 286.906 Q2208.86 288.018 2205.99 288.018 Q2201.29 288.018 2198.33 284.268 Q2195.39 280.518 2195.39 274.407 Q2195.39 268.295 2198.33 264.545 Q2201.29 260.795 2205.99 260.795 Q2208.86 260.795 2210.9 261.93 Q2212.96 263.041 2214.3 265.356 M2199.79 274.407 Q2199.79 279.106 2201.71 281.791 Q2203.66 284.453 2207.04 284.453 Q2210.42 284.453 2212.36 281.791 Q2214.3 279.106 2214.3 274.407 Q2214.3 269.707 2212.36 267.045 Q2210.42 264.36 2207.04 264.36 Q2203.66 264.36 2201.71 267.045 Q2199.79 269.707 2199.79 274.407 Z" fill="#000000" fill-rule="nonzero" fill-opacity="1" /><path clip-path="url(#clip070)" d="M2249.51 273.319 L2249.51 275.402 L2229.93 275.402 Q2230.21 279.8 2232.57 282.115 Q2234.95 284.406 2239.19 284.406 Q2241.64 284.406 2243.93 283.805 Q2246.25 283.203 2248.52 281.999 L2248.52 286.027 Q2246.23 286.999 2243.82 287.508 Q2241.41 288.018 2238.93 288.018 Q2232.73 288.018 2229.1 284.406 Q2225.48 280.795 2225.48 274.638 Q2225.48 268.272 2228.91 264.545 Q2232.36 260.795 2238.19 260.795 Q2243.42 260.795 2246.46 264.175 Q2249.51 267.532 2249.51 273.319 M2245.25 272.069 Q2245.21 268.573 2243.29 266.49 Q2241.39 264.407 2238.24 264.407 Q2234.67 264.407 2232.52 266.42 Q2230.39 268.434 2230.07 272.092 L2245.25 272.069 Z" fill="#000000" fill-rule="nonzero" fill-opacity="1" /><path clip-path="url(#clip070)" d="M2256.5 251.328 L2260.76 251.328 L2260.76 287.346 L2256.5 287.346 L2256.5 251.328 Z" fill="#000000" fill-rule="nonzero" fill-opacity="1" /></svg>
