<?xml version="1.0" encoding="utf-8"?>
<svg xmlns="http://www.w3.org/2000/svg" xmlns:xlink="http://www.w3.org/1999/xlink" width="600" height="400" viewBox="0 0 2400 1600">
<defs>
  <clipPath id="clip980">
    <rect x="0" y="0" width="2400" height="1600"/>
  </clipPath>
</defs>
<path clip-path="url(#clip980)" d="M0 1600 L2400 1600 L2400 0 L0 0  Z" fill="#ffffff" fill-rule="evenodd" fill-opacity="1"/>
<defs>
  <clipPath id="clip981">
    <rect x="255" y="47" width="2098" height="1377"/>
  </clipPath>
</defs>
<path clip-path="url(#clip980)" d="M255.977 1423.18 L2352.76 1423.18 L2352.76 47.2441 L255.977 47.2441  Z" fill="#ffffff" fill-rule="evenodd" fill-opacity="1"/>
<polyline clip-path="url(#clip981)" style="stroke:#000000; stroke-linecap:round; stroke-linejoin:round; stroke-width:2; stroke-opacity:0.1; fill:none" points="315.32,1423.18 315.32,47.2441 "/>
<polyline clip-path="url(#clip981)" style="stroke:#000000; stroke-linecap:round; stroke-linejoin:round; stroke-width:2; stroke-opacity:0.1; fill:none" points="711.731,1423.18 711.731,47.2441 "/>
<polyline clip-path="url(#clip981)" style="stroke:#000000; stroke-linecap:round; stroke-linejoin:round; stroke-width:2; stroke-opacity:0.1; fill:none" points="1108.14,1423.18 1108.14,47.2441 "/>
<polyline clip-path="url(#clip981)" style="stroke:#000000; stroke-linecap:round; stroke-linejoin:round; stroke-width:2; stroke-opacity:0.1; fill:none" points="1504.55,1423.18 1504.55,47.2441 "/>
<polyline clip-path="url(#clip981)" style="stroke:#000000; stroke-linecap:round; stroke-linejoin:round; stroke-width:2; stroke-opacity:0.1; fill:none" points="1900.97,1423.18 1900.97,47.2441 "/>
<polyline clip-path="url(#clip981)" style="stroke:#000000; stroke-linecap:round; stroke-linejoin:round; stroke-width:2; stroke-opacity:0.1; fill:none" points="2297.38,1423.18 2297.38,47.2441 "/>
<polyline clip-path="url(#clip981)" style="stroke:#000000; stroke-linecap:round; stroke-linejoin:round; stroke-width:2; stroke-opacity:0.1; fill:none" points="255.977,1418.63 2352.76,1418.63 "/>
<polyline clip-path="url(#clip981)" style="stroke:#000000; stroke-linecap:round; stroke-linejoin:round; stroke-width:2; stroke-opacity:0.1; fill:none" points="255.977,1005.82 2352.76,1005.82 "/>
<polyline clip-path="url(#clip981)" style="stroke:#000000; stroke-linecap:round; stroke-linejoin:round; stroke-width:2; stroke-opacity:0.1; fill:none" points="255.977,593.006 2352.76,593.006 "/>
<polyline clip-path="url(#clip981)" style="stroke:#000000; stroke-linecap:round; stroke-linejoin:round; stroke-width:2; stroke-opacity:0.1; fill:none" points="255.977,180.192 2352.76,180.192 "/>
<polyline clip-path="url(#clip980)" style="stroke:#000000; stroke-linecap:round; stroke-linejoin:round; stroke-width:4; stroke-opacity:1; fill:none" points="255.977,1423.18 2352.76,1423.18 "/>
<polyline clip-path="url(#clip980)" style="stroke:#000000; stroke-linecap:round; stroke-linejoin:round; stroke-width:4; stroke-opacity:1; fill:none" points="315.32,1423.18 315.32,1404.28 "/>
<polyline clip-path="url(#clip980)" style="stroke:#000000; stroke-linecap:round; stroke-linejoin:round; stroke-width:4; stroke-opacity:1; fill:none" points="711.731,1423.18 711.731,1404.28 "/>
<polyline clip-path="url(#clip980)" style="stroke:#000000; stroke-linecap:round; stroke-linejoin:round; stroke-width:4; stroke-opacity:1; fill:none" points="1108.14,1423.18 1108.14,1404.28 "/>
<polyline clip-path="url(#clip980)" style="stroke:#000000; stroke-linecap:round; stroke-linejoin:round; stroke-width:4; stroke-opacity:1; fill:none" points="1504.55,1423.18 1504.55,1404.28 "/>
<polyline clip-path="url(#clip980)" style="stroke:#000000; stroke-linecap:round; stroke-linejoin:round; stroke-width:4; stroke-opacity:1; fill:none" points="1900.97,1423.18 1900.97,1404.28 "/>
<polyline clip-path="url(#clip980)" style="stroke:#000000; stroke-linecap:round; stroke-linejoin:round; stroke-width:4; stroke-opacity:1; fill:none" points="2297.38,1423.18 2297.38,1404.28 "/>
<path clip-path="url(#clip980)" d="M315.32 1454.1 Q311.709 1454.1 309.88 1457.66 Q308.075 1461.2 308.075 1468.33 Q308.075 1475.44 309.88 1479.01 Q311.709 1482.55 315.32 1482.55 Q318.954 1482.55 320.76 1479.01 Q322.588 1475.44 322.588 1468.33 Q322.588 1461.2 320.76 1457.66 Q318.954 1454.1 315.32 1454.1 M315.32 1450.39 Q321.13 1450.39 324.186 1455 Q327.264 1459.58 327.264 1468.33 Q327.264 1477.06 324.186 1481.67 Q321.13 1486.25 315.32 1486.25 Q309.51 1486.25 306.431 1481.67 Q303.376 1477.06 303.376 1468.33 Q303.376 1459.58 306.431 1455 Q309.51 1450.39 315.32 1450.39 Z" fill="#000000" fill-rule="nonzero" fill-opacity="1" /><path clip-path="url(#clip980)" d="M702.113 1481.64 L709.752 1481.64 L709.752 1455.28 L701.442 1456.95 L701.442 1452.69 L709.706 1451.02 L714.382 1451.02 L714.382 1481.64 L722.021 1481.64 L722.021 1485.58 L702.113 1485.58 L702.113 1481.64 Z" fill="#000000" fill-rule="nonzero" fill-opacity="1" /><path clip-path="url(#clip980)" d="M1102.8 1481.64 L1119.12 1481.64 L1119.12 1485.58 L1097.17 1485.58 L1097.17 1481.64 Q1099.83 1478.89 1104.42 1474.26 Q1109.02 1469.61 1110.2 1468.27 Q1112.45 1465.74 1113.33 1464.01 Q1114.23 1462.25 1114.23 1460.56 Q1114.23 1457.8 1112.29 1456.07 Q1110.37 1454.33 1107.26 1454.33 Q1105.06 1454.33 1102.61 1455.09 Q1100.18 1455.86 1097.4 1457.41 L1097.4 1452.69 Q1100.23 1451.55 1102.68 1450.97 Q1105.13 1450.39 1107.17 1450.39 Q1112.54 1450.39 1115.74 1453.08 Q1118.93 1455.77 1118.93 1460.26 Q1118.93 1462.39 1118.12 1464.31 Q1117.33 1466.2 1115.23 1468.8 Q1114.65 1469.47 1111.55 1472.69 Q1108.44 1475.88 1102.8 1481.64 Z" fill="#000000" fill-rule="nonzero" fill-opacity="1" /><path clip-path="url(#clip980)" d="M1508.8 1466.95 Q1512.16 1467.66 1514.03 1469.93 Q1515.93 1472.2 1515.93 1475.53 Q1515.93 1480.65 1512.41 1483.45 Q1508.89 1486.25 1502.41 1486.25 Q1500.24 1486.25 1497.92 1485.81 Q1495.63 1485.39 1493.18 1484.54 L1493.18 1480.02 Q1495.12 1481.16 1497.44 1481.74 Q1499.75 1482.32 1502.27 1482.32 Q1506.67 1482.32 1508.96 1480.58 Q1511.28 1478.84 1511.28 1475.53 Q1511.28 1472.48 1509.13 1470.77 Q1507 1469.03 1503.18 1469.03 L1499.15 1469.03 L1499.15 1465.19 L1503.36 1465.19 Q1506.81 1465.19 1508.64 1463.82 Q1510.47 1462.43 1510.47 1459.84 Q1510.47 1457.18 1508.57 1455.77 Q1506.7 1454.33 1503.18 1454.33 Q1501.26 1454.33 1499.06 1454.75 Q1496.86 1455.16 1494.22 1456.04 L1494.22 1451.88 Q1496.88 1451.14 1499.2 1450.77 Q1501.53 1450.39 1503.59 1450.39 Q1508.92 1450.39 1512.02 1452.83 Q1515.12 1455.23 1515.12 1459.35 Q1515.12 1462.22 1513.48 1464.21 Q1511.83 1466.18 1508.8 1466.95 Z" fill="#000000" fill-rule="nonzero" fill-opacity="1" /><path clip-path="url(#clip980)" d="M1903.98 1455.09 L1892.17 1473.54 L1903.98 1473.54 L1903.98 1455.09 M1902.75 1451.02 L1908.63 1451.02 L1908.63 1473.54 L1913.56 1473.54 L1913.56 1477.43 L1908.63 1477.43 L1908.63 1485.58 L1903.98 1485.58 L1903.98 1477.43 L1888.37 1477.43 L1888.37 1472.92 L1902.75 1451.02 Z" fill="#000000" fill-rule="nonzero" fill-opacity="1" /><path clip-path="url(#clip980)" d="M2287.66 1451.02 L2306.01 1451.02 L2306.01 1454.96 L2291.94 1454.96 L2291.94 1463.43 Q2292.96 1463.08 2293.97 1462.92 Q2294.99 1462.73 2296.01 1462.73 Q2301.8 1462.73 2305.18 1465.9 Q2308.56 1469.08 2308.56 1474.49 Q2308.56 1480.07 2305.09 1483.17 Q2301.61 1486.25 2295.29 1486.25 Q2293.12 1486.25 2290.85 1485.88 Q2288.6 1485.51 2286.2 1484.77 L2286.2 1480.07 Q2288.28 1481.2 2290.5 1481.76 Q2292.72 1482.32 2295.2 1482.32 Q2299.21 1482.32 2301.54 1480.21 Q2303.88 1478.1 2303.88 1474.49 Q2303.88 1470.88 2301.54 1468.77 Q2299.21 1466.67 2295.2 1466.67 Q2293.33 1466.67 2291.45 1467.08 Q2289.6 1467.5 2287.66 1468.38 L2287.66 1451.02 Z" fill="#000000" fill-rule="nonzero" fill-opacity="1" /><path clip-path="url(#clip980)" d="M1174.54 1520.52 L1214.74 1520.52 L1214.74 1525.93 L1197.87 1525.93 L1197.87 1568.04 L1191.41 1568.04 L1191.41 1525.93 L1174.54 1525.93 L1174.54 1520.52 Z" fill="#000000" fill-rule="nonzero" fill-opacity="1" /><path clip-path="url(#clip980)" d="M1218.68 1532.4 L1224.54 1532.4 L1224.54 1568.04 L1218.68 1568.04 L1218.68 1532.4 M1218.68 1518.52 L1224.54 1518.52 L1224.54 1525.93 L1218.68 1525.93 L1218.68 1518.52 Z" fill="#000000" fill-rule="nonzero" fill-opacity="1" /><path clip-path="url(#clip980)" d="M1264.55 1539.24 Q1266.75 1535.29 1269.8 1533.41 Q1272.86 1531.54 1276.99 1531.54 Q1282.56 1531.54 1285.59 1535.45 Q1288.61 1539.33 1288.61 1546.53 L1288.61 1568.04 L1282.72 1568.04 L1282.72 1546.72 Q1282.72 1541.59 1280.91 1539.11 Q1279.09 1536.63 1275.37 1536.63 Q1270.82 1536.63 1268.18 1539.65 Q1265.54 1542.68 1265.54 1547.9 L1265.54 1568.04 L1259.65 1568.04 L1259.65 1546.72 Q1259.65 1541.56 1257.83 1539.11 Q1256.02 1536.63 1252.23 1536.63 Q1247.74 1536.63 1245.1 1539.68 Q1242.46 1542.71 1242.46 1547.9 L1242.46 1568.04 L1236.57 1568.04 L1236.57 1532.4 L1242.46 1532.4 L1242.46 1537.93 Q1244.47 1534.66 1247.27 1533.1 Q1250.07 1531.54 1253.92 1531.54 Q1257.8 1531.54 1260.51 1533.51 Q1263.24 1535.48 1264.55 1539.24 Z" fill="#000000" fill-rule="nonzero" fill-opacity="1" /><path clip-path="url(#clip980)" d="M1330.78 1548.76 L1330.78 1551.62 L1303.86 1551.62 Q1304.24 1557.67 1307.49 1560.85 Q1310.76 1564 1316.59 1564 Q1319.96 1564 1323.11 1563.17 Q1326.3 1562.35 1329.42 1560.69 L1329.42 1566.23 Q1326.26 1567.57 1322.95 1568.27 Q1319.64 1568.97 1316.24 1568.97 Q1307.71 1568.97 1302.71 1564 Q1297.75 1559.04 1297.75 1550.57 Q1297.75 1541.82 1302.46 1536.69 Q1307.2 1531.54 1315.22 1531.54 Q1322.41 1531.54 1326.58 1536.18 Q1330.78 1540.8 1330.78 1548.76 M1324.93 1547.04 Q1324.86 1542.23 1322.22 1539.37 Q1319.61 1536.5 1315.28 1536.5 Q1310.38 1536.5 1307.42 1539.27 Q1304.49 1542.04 1304.05 1547.07 L1324.93 1547.04 Z" fill="#000000" fill-rule="nonzero" fill-opacity="1" /><path clip-path="url(#clip980)" d="M1360.58 1518.52 L1374.07 1518.52 L1374.07 1523.07 L1366.43 1523.07 L1366.43 1572.09 L1374.07 1572.09 L1374.07 1576.64 L1360.58 1576.64 L1360.58 1518.52 Z" fill="#000000" fill-rule="nonzero" fill-opacity="1" /><path clip-path="url(#clip980)" d="M1409.27 1533.45 L1409.27 1538.98 Q1406.79 1537.71 1404.12 1537.07 Q1401.44 1536.44 1398.58 1536.44 Q1394.22 1536.44 1392.02 1537.77 Q1389.86 1539.11 1389.86 1541.79 Q1389.86 1543.82 1391.42 1545 Q1392.98 1546.15 1397.69 1547.2 L1399.69 1547.64 Q1405.93 1548.98 1408.54 1551.43 Q1411.18 1553.85 1411.18 1558.21 Q1411.18 1563.17 1407.24 1566.07 Q1403.32 1568.97 1396.45 1568.97 Q1393.58 1568.97 1390.46 1568.39 Q1387.38 1567.85 1383.94 1566.74 L1383.94 1560.69 Q1387.18 1562.38 1390.34 1563.24 Q1393.49 1564.07 1396.57 1564.07 Q1400.71 1564.07 1402.94 1562.66 Q1405.17 1561.23 1405.17 1558.65 Q1405.17 1556.27 1403.54 1554.99 Q1401.95 1553.72 1396.51 1552.54 L1394.47 1552.07 Q1389.03 1550.92 1386.61 1548.56 Q1384.19 1546.18 1384.19 1542.04 Q1384.19 1537.01 1387.76 1534.27 Q1391.32 1531.54 1397.88 1531.54 Q1401.13 1531.54 1403.99 1532.01 Q1406.85 1532.49 1409.27 1533.45 Z" fill="#000000" fill-rule="nonzero" fill-opacity="1" /><path clip-path="url(#clip980)" d="M1434.2 1518.52 L1434.2 1576.64 L1420.7 1576.64 L1420.7 1572.09 L1428.31 1572.09 L1428.31 1523.07 L1420.7 1523.07 L1420.7 1518.52 L1434.2 1518.52 Z" fill="#000000" fill-rule="nonzero" fill-opacity="1" /><polyline clip-path="url(#clip980)" style="stroke:#000000; stroke-linecap:round; stroke-linejoin:round; stroke-width:4; stroke-opacity:1; fill:none" points="255.977,1423.18 255.977,47.2441 "/>
<polyline clip-path="url(#clip980)" style="stroke:#000000; stroke-linecap:round; stroke-linejoin:round; stroke-width:4; stroke-opacity:1; fill:none" points="255.977,1418.63 274.875,1418.63 "/>
<polyline clip-path="url(#clip980)" style="stroke:#000000; stroke-linecap:round; stroke-linejoin:round; stroke-width:4; stroke-opacity:1; fill:none" points="255.977,1005.82 274.875,1005.82 "/>
<polyline clip-path="url(#clip980)" style="stroke:#000000; stroke-linecap:round; stroke-linejoin:round; stroke-width:4; stroke-opacity:1; fill:none" points="255.977,593.006 274.875,593.006 "/>
<polyline clip-path="url(#clip980)" style="stroke:#000000; stroke-linecap:round; stroke-linejoin:round; stroke-width:4; stroke-opacity:1; fill:none" points="255.977,180.192 274.875,180.192 "/>
<path clip-path="url(#clip980)" d="M114.631 1419.08 L144.306 1419.08 L144.306 1423.02 L114.631 1423.02 L114.631 1419.08 Z" fill="#000000" fill-rule="nonzero" fill-opacity="1" /><path clip-path="url(#clip980)" d="M164.399 1404.43 Q160.788 1404.43 158.959 1408 Q157.153 1411.54 157.153 1418.67 Q157.153 1425.77 158.959 1429.34 Q160.788 1432.88 164.399 1432.88 Q168.033 1432.88 169.839 1429.34 Q171.667 1425.77 171.667 1418.67 Q171.667 1411.54 169.839 1408 Q168.033 1404.43 164.399 1404.43 M164.399 1400.73 Q170.209 1400.73 173.264 1405.33 Q176.343 1409.92 176.343 1418.67 Q176.343 1427.39 173.264 1432 Q170.209 1436.58 164.399 1436.58 Q158.589 1436.58 155.51 1432 Q152.454 1427.39 152.454 1418.67 Q152.454 1409.92 155.51 1405.33 Q158.589 1400.73 164.399 1400.73 Z" fill="#000000" fill-rule="nonzero" fill-opacity="1" /><path clip-path="url(#clip980)" d="M184.561 1430.03 L189.445 1430.03 L189.445 1435.91 L184.561 1435.91 L184.561 1430.03 Z" fill="#000000" fill-rule="nonzero" fill-opacity="1" /><path clip-path="url(#clip980)" d="M203.658 1431.98 L219.977 1431.98 L219.977 1435.91 L198.033 1435.91 L198.033 1431.98 Q200.695 1429.22 205.278 1424.59 Q209.885 1419.94 211.065 1418.6 Q213.311 1416.07 214.19 1414.34 Q215.093 1412.58 215.093 1410.89 Q215.093 1408.13 213.149 1406.4 Q211.227 1404.66 208.125 1404.66 Q205.926 1404.66 203.473 1405.43 Q201.042 1406.19 198.264 1407.74 L198.264 1403.02 Q201.088 1401.88 203.542 1401.31 Q205.996 1400.73 208.033 1400.73 Q213.403 1400.73 216.598 1403.41 Q219.792 1406.1 219.792 1410.59 Q219.792 1412.72 218.982 1414.64 Q218.195 1416.54 216.088 1419.13 Q215.51 1419.8 212.408 1423.02 Q209.306 1426.21 203.658 1431.98 Z" fill="#000000" fill-rule="nonzero" fill-opacity="1" /><path clip-path="url(#clip980)" d="M114.26 1006.27 L143.936 1006.27 L143.936 1010.21 L114.26 1010.21 L114.26 1006.27 Z" fill="#000000" fill-rule="nonzero" fill-opacity="1" /><path clip-path="url(#clip980)" d="M164.028 991.618 Q160.417 991.618 158.589 995.182 Q156.783 998.724 156.783 1005.85 Q156.783 1012.96 158.589 1016.52 Q160.417 1020.07 164.028 1020.07 Q167.663 1020.07 169.468 1016.52 Q171.297 1012.96 171.297 1005.85 Q171.297 998.724 169.468 995.182 Q167.663 991.618 164.028 991.618 M164.028 987.914 Q169.839 987.914 172.894 992.52 Q175.973 997.104 175.973 1005.85 Q175.973 1014.58 172.894 1019.19 Q169.839 1023.77 164.028 1023.77 Q158.218 1023.77 155.14 1019.19 Q152.084 1014.58 152.084 1005.85 Q152.084 997.104 155.14 992.52 Q158.218 987.914 164.028 987.914 Z" fill="#000000" fill-rule="nonzero" fill-opacity="1" /><path clip-path="url(#clip980)" d="M184.19 1017.22 L189.075 1017.22 L189.075 1023.1 L184.19 1023.1 L184.19 1017.22 Z" fill="#000000" fill-rule="nonzero" fill-opacity="1" /><path clip-path="url(#clip980)" d="M200.07 1019.16 L207.709 1019.16 L207.709 992.798 L199.399 994.465 L199.399 990.206 L207.662 988.539 L212.338 988.539 L212.338 1019.16 L219.977 1019.16 L219.977 1023.1 L200.07 1023.1 L200.07 1019.16 Z" fill="#000000" fill-rule="nonzero" fill-opacity="1" /><path clip-path="url(#clip980)" d="M162.802 578.804 Q159.19 578.804 157.362 582.369 Q155.556 585.911 155.556 593.04 Q155.556 600.147 157.362 603.712 Q159.19 607.253 162.802 607.253 Q166.436 607.253 168.241 603.712 Q170.07 600.147 170.07 593.04 Q170.07 585.911 168.241 582.369 Q166.436 578.804 162.802 578.804 M162.802 575.101 Q168.612 575.101 171.667 579.707 Q174.746 584.29 174.746 593.04 Q174.746 601.767 171.667 606.374 Q168.612 610.957 162.802 610.957 Q156.991 610.957 153.913 606.374 Q150.857 601.767 150.857 593.04 Q150.857 584.29 153.913 579.707 Q156.991 575.101 162.802 575.101 Z" fill="#000000" fill-rule="nonzero" fill-opacity="1" /><path clip-path="url(#clip980)" d="M182.963 604.406 L187.848 604.406 L187.848 610.286 L182.963 610.286 L182.963 604.406 Z" fill="#000000" fill-rule="nonzero" fill-opacity="1" /><path clip-path="url(#clip980)" d="M208.033 578.804 Q204.422 578.804 202.593 582.369 Q200.787 585.911 200.787 593.04 Q200.787 600.147 202.593 603.712 Q204.422 607.253 208.033 607.253 Q211.667 607.253 213.473 603.712 Q215.301 600.147 215.301 593.04 Q215.301 585.911 213.473 582.369 Q211.667 578.804 208.033 578.804 M208.033 575.101 Q213.843 575.101 216.898 579.707 Q219.977 584.29 219.977 593.04 Q219.977 601.767 216.898 606.374 Q213.843 610.957 208.033 610.957 Q202.223 610.957 199.144 606.374 Q196.088 601.767 196.088 593.04 Q196.088 584.29 199.144 579.707 Q202.223 575.101 208.033 575.101 Z" fill="#000000" fill-rule="nonzero" fill-opacity="1" /><path clip-path="url(#clip980)" d="M164.028 165.991 Q160.417 165.991 158.589 169.556 Q156.783 173.098 156.783 180.227 Q156.783 187.334 158.589 190.898 Q160.417 194.44 164.028 194.44 Q167.663 194.44 169.468 190.898 Q171.297 187.334 171.297 180.227 Q171.297 173.098 169.468 169.556 Q167.663 165.991 164.028 165.991 M164.028 162.287 Q169.839 162.287 172.894 166.894 Q175.973 171.477 175.973 180.227 Q175.973 188.954 172.894 193.56 Q169.839 198.144 164.028 198.144 Q158.218 198.144 155.14 193.56 Q152.084 188.954 152.084 180.227 Q152.084 171.477 155.14 166.894 Q158.218 162.287 164.028 162.287 Z" fill="#000000" fill-rule="nonzero" fill-opacity="1" /><path clip-path="url(#clip980)" d="M184.19 191.593 L189.075 191.593 L189.075 197.472 L184.19 197.472 L184.19 191.593 Z" fill="#000000" fill-rule="nonzero" fill-opacity="1" /><path clip-path="url(#clip980)" d="M200.07 193.537 L207.709 193.537 L207.709 167.172 L199.399 168.838 L199.399 164.579 L207.662 162.912 L212.338 162.912 L212.338 193.537 L219.977 193.537 L219.977 197.472 L200.07 197.472 L200.07 193.537 Z" fill="#000000" fill-rule="nonzero" fill-opacity="1" /><path clip-path="url(#clip980)" d="M20.8447 823.791 Q20.8447 830.793 26.0645 834.931 Q31.2844 839.037 40.2919 839.037 Q49.2675 839.037 54.4874 834.931 Q59.7073 830.793 59.7073 823.791 Q59.7073 816.788 54.4874 812.714 Q49.2675 808.609 40.2919 808.609 Q31.2844 808.609 26.0645 812.714 Q20.8447 816.788 20.8447 823.791 M15.6248 823.791 Q15.6248 813.797 22.3406 807.813 Q29.0246 801.829 40.2919 801.829 Q51.5274 801.829 58.2432 807.813 Q64.9272 813.797 64.9272 823.791 Q64.9272 833.817 58.2432 839.832 Q51.5592 845.816 40.2919 845.816 Q29.0246 845.816 22.3406 839.832 Q15.6248 833.817 15.6248 823.791 Z" fill="#000000" fill-rule="nonzero" fill-opacity="1" /><path clip-path="url(#clip980)" d="M49.9359 792.631 L28.3562 792.631 L28.3562 786.774 L49.7131 786.774 Q54.7739 786.774 57.3202 784.801 Q59.8346 782.827 59.8346 778.881 Q59.8346 774.138 56.8109 771.401 Q53.7872 768.632 48.5673 768.632 L28.3562 768.632 L28.3562 762.775 L64.0042 762.775 L64.0042 768.632 L58.5296 768.632 Q61.7762 770.764 63.3676 773.597 Q64.9272 776.398 64.9272 780.122 Q64.9272 786.265 61.1078 789.448 Q57.2883 792.631 49.9359 792.631 M27.4968 777.894 L27.4968 777.894 Z" fill="#000000" fill-rule="nonzero" fill-opacity="1" /><path clip-path="url(#clip980)" d="M18.2347 744.92 L28.3562 744.92 L28.3562 732.857 L32.9077 732.857 L32.9077 744.92 L52.2594 744.92 Q56.6199 744.92 57.8613 743.742 Q59.1026 742.533 59.1026 738.872 L59.1026 732.857 L64.0042 732.857 L64.0042 738.872 Q64.0042 745.652 61.4897 748.23 Q58.9434 750.808 52.2594 750.808 L32.9077 750.808 L32.9077 755.105 L28.3562 755.105 L28.3562 750.808 L18.2347 750.808 L18.2347 744.92 Z" fill="#000000" fill-rule="nonzero" fill-opacity="1" /><path clip-path="url(#clip980)" d="M58.657 719.489 L77.5631 719.489 L77.5631 725.377 L28.3562 725.377 L28.3562 719.489 L33.7671 719.489 Q30.5842 717.643 29.0564 714.842 Q27.4968 712.009 27.4968 708.094 Q27.4968 701.601 32.6531 697.559 Q37.8093 693.485 46.212 693.485 Q54.6147 693.485 59.771 697.559 Q64.9272 701.601 64.9272 708.094 Q64.9272 712.009 63.3994 714.842 Q61.8398 717.643 58.657 719.489 M46.212 699.564 Q39.7508 699.564 36.0905 702.238 Q32.3984 704.879 32.3984 709.526 Q32.3984 714.173 36.0905 716.847 Q39.7508 719.489 46.212 719.489 Q52.6732 719.489 56.3653 716.847 Q60.0256 714.173 60.0256 709.526 Q60.0256 704.879 56.3653 702.238 Q52.6732 699.564 46.212 699.564 Z" fill="#000000" fill-rule="nonzero" fill-opacity="1" /><path clip-path="url(#clip980)" d="M49.9359 684.382 L28.3562 684.382 L28.3562 678.525 L49.7131 678.525 Q54.7739 678.525 57.3202 676.552 Q59.8346 674.579 59.8346 670.632 Q59.8346 665.889 56.8109 663.152 Q53.7872 660.383 48.5673 660.383 L28.3562 660.383 L28.3562 654.527 L64.0042 654.527 L64.0042 660.383 L58.5296 660.383 Q61.7762 662.516 63.3676 665.348 Q64.9272 668.149 64.9272 671.873 Q64.9272 678.016 61.1078 681.199 Q57.2883 684.382 49.9359 684.382 M27.4968 669.645 L27.4968 669.645 Z" fill="#000000" fill-rule="nonzero" fill-opacity="1" /><path clip-path="url(#clip980)" d="M18.2347 636.671 L28.3562 636.671 L28.3562 624.608 L32.9077 624.608 L32.9077 636.671 L52.2594 636.671 Q56.6199 636.671 57.8613 635.493 Q59.1026 634.284 59.1026 630.623 L59.1026 624.608 L64.0042 624.608 L64.0042 630.623 Q64.0042 637.403 61.4897 639.981 Q58.9434 642.559 52.2594 642.559 L32.9077 642.559 L32.9077 646.856 L28.3562 646.856 L28.3562 642.559 L18.2347 642.559 L18.2347 636.671 Z" fill="#000000" fill-rule="nonzero" fill-opacity="1" /><polyline clip-path="url(#clip981)" style="stroke:#009af9; stroke-linecap:round; stroke-linejoin:round; stroke-width:4; stroke-opacity:1; fill:none" points="315.32,593.006 319.284,593.006 323.248,593.006 323.248,633.81 327.212,633.81 327.212,673.412 331.176,673.412 331.176,711.465 335.141,711.465 335.141,747.658 339.105,747.658 339.105,781.721 343.069,781.721 343.069,731.825 347.033,731.825 347.033,681.806 350.997,681.806 350.997,632.238 354.961,632.238 354.961,583.671 358.925,583.671 358.925,536.624 362.889,536.624 362.889,573.182 366.853,573.182 366.853,609.762 370.818,609.762 370.818,646.04 374.782,646.04 374.782,681.705 378.746,681.705 378.746,716.461 382.71,716.461 382.71,668.43 386.674,668.43 386.674,621.378 390.638,621.378 390.638,575.789 394.602,575.789 394.602,532.105 398.566,532.105 398.566,490.724 402.53,490.724 402.53,451.988 406.495,451.988 406.495,416.185 410.459,416.185 410.459,383.537 414.423,383.537 414.423,354.202 418.387,354.202 418.387,328.274 422.351,328.274 422.351,387.388 426.315,387.388 426.315,447.494 430.279,447.494 430.279,507.797 434.243,507.797 434.243,567.518 438.208,567.518 438.208,625.908 442.172,625.908 442.172,682.262 446.136,682.262 446.136,735.934 450.1,735.934 450.1,786.343 454.064,786.343 454.064,832.986 458.028,832.986 458.028,875.447 461.992,875.447 461.992,831.79 465.956,831.79 465.956,785.795 469.92,785.795 469.92,738.021 473.885,738.021 473.885,689.051 477.849,689.051 477.849,639.477 481.813,639.477 481.813,671.497 485.777,671.497 485.777,701.677 489.741,701.677 489.741,729.875 493.705,729.875 493.705,755.988 497.669,755.988 497.669,779.955 501.633,779.955 501.633,801.752 505.597,801.752 505.597,821.397 509.562,821.397 509.562,838.946 513.526,838.946 513.526,854.489 517.49,854.489 517.49,868.151 521.454,868.151 521.454,880.086 525.418,880.086 525.418,890.473 529.382,890.473 529.382,899.513 533.346,899.513 533.346,907.424 537.31,907.424 537.31,914.437 541.275,914.437 541.275,839.181 545.239,839.181 545.239,765.908 549.203,765.908 549.203,695.552 553.167,695.552 553.167,628.964 557.131,628.964 557.131,566.903 561.095,566.903 561.095,510.018 565.059,510.018 565.059,458.844 569.023,458.844 569.023,413.791 572.987,413.791 572.987,375.14 576.952,375.14 576.952,343.043 580.916,343.043 580.916,399.131 584.88,399.131 584.88,459.288 588.844,459.288 588.844,522.595 592.808,522.595 592.808,588.096 596.772,588.096 596.772,654.814 600.736,654.814 600.736,640.167 604.7,640.167 604.7,627.211 608.664,627.211 608.664,615.726 612.629,615.726 612.629,605.474 616.593,605.474 616.593,596.202 620.557,596.202 620.557,587.649 624.521,587.649 624.521,579.555 628.485,579.555 628.485,571.66 632.449,571.66 632.449,563.712 636.413,563.712 636.413,555.473 640.377,555.473 640.377,546.719 644.341,546.719 644.341,537.25 648.306,537.25 648.306,526.887 652.27,526.887 652.27,515.479 656.234,515.479 656.234,502.904 660.198,502.904 660.198,570.679 664.162,570.679 664.162,634.73 668.126,634.73 668.126,694.333 672.09,694.333 672.09,748.868 676.054,748.868 676.054,797.829 680.019,797.829 680.019,759.222 683.983,759.222 683.983,716.8 687.947,716.8 687.947,671.121 691.911,671.121 691.911,622.797 695.875,622.797 695.875,572.478 699.839,572.478 699.839,602.445 703.803,602.445 703.803,629.369 707.767,629.369 707.767,653.232 711.731,653.232 711.731,674.077 715.696,674.077 715.696,691.996 719.66,691.996 719.66,707.136 723.624,707.136 723.624,719.688 727.588,719.688 727.588,729.884 731.552,729.884 731.552,737.992 735.516,737.992 735.516,744.309 739.48,744.309 739.48,667.547 743.444,667.547 743.444,592.053 747.408,592.053 747.408,518.867 751.373,518.867 751.373,448.954 755.337,448.954 755.337,383.193 759.301,383.193 759.301,403.967 763.265,403.967 763.265,427.922 767.229,427.922 767.229,454.895 771.193,454.895 771.193,484.667 775.157,484.667 775.157,516.964 779.121,516.964 779.121,469.858 783.085,469.858 783.085,427.007 787.05,427.007 787.05,388.718 791.014,388.718 791.014,355.206 794.978,355.206 794.978,326.589 798.942,326.589 798.942,302.888 802.906,302.888 802.906,284.032 806.87,284.032 806.87,269.86 810.834,269.86 810.834,260.128 814.798,260.128 814.798,254.516 818.763,254.516 818.763,334.244 822.727,334.244 822.727,414.852 826.691,414.852 826.691,495.152 830.655,495.152 830.655,573.991 834.619,573.991 834.619,650.276 838.583,650.276 838.583,722.992 842.547,722.992 842.547,791.219 846.511,791.219 846.511,854.151 850.475,854.151 850.475,911.103 854.44,911.103 854.44,961.526 858.404,961.526 858.404,923.403 862.368,923.403 862.368,880.481 866.332,880.481 866.332,833.338 870.296,833.338 870.296,782.619 874.26,782.619 874.26,729.026 878.224,729.026 878.224,673.301 882.188,673.301 882.188,616.209 886.152,616.209 886.152,558.525 890.117,558.525 890.117,501.014 894.081,501.014 894.081,444.42 898.045,444.42 898.045,471.06 902.009,471.06 902.009,497.58 905.973,497.58 905.973,523.884 909.937,523.884 909.937,549.877 913.901,549.877 913.901,575.47 917.865,575.47 917.865,600.581 921.829,600.581 921.829,625.133 925.794,625.133 925.794,649.062 929.758,649.062 929.758,672.312 933.722,672.312 933.722,694.839 937.686,694.839 937.686,716.609 941.65,716.609 941.65,737.601 945.614,737.601 945.614,757.808 949.578,757.808 949.578,777.231 953.542,777.231 953.542,795.885 957.507,795.885 957.507,813.797 961.471,813.797 961.471,831.002 965.435,831.002 965.435,847.545 969.399,847.545 969.399,863.478 973.363,863.478 973.363,878.863 977.327,878.863 977.327,812.156 981.291,812.156 981.291,747.439 985.255,747.439 985.255,685.478 989.219,685.478 989.219,626.97 993.184,626.97 993.184,572.523 997.148,572.523 997.148,522.656 1001.11,522.656 1001.11,477.785 1005.08,477.785 1005.08,438.218 1009.04,438.218 1009.04,404.158 1013,404.158 1013,375.693 1016.97,375.693 1016.97,352.806 1020.93,352.806 1020.93,335.374 1024.9,335.374 1024.9,323.173 1028.86,323.173 1028.86,315.89 1032.82,315.89 1032.82,313.124 1036.79,313.124 1036.79,396.013 1040.75,396.013 1040.75,480.012 1044.72,480.012 1044.72,563.841 1048.68,563.841 1048.68,646.261 1052.65,646.261 1052.65,726.091 1056.61,726.091 1056.61,720.623 1060.57,720.623 1060.57,712.874 1064.54,712.874 1064.54,702.656 1068.5,702.656 1068.5,689.845 1072.47,689.845 1072.47,674.373 1076.43,674.373 1076.43,737.837 1080.39,737.837 1080.39,796.273 1084.36,796.273 1084.36,849.086 1088.32,849.086 1088.32,895.808 1092.29,895.808 1092.29,936.098 1096.25,936.098 1096.25,969.748 1100.21,969.748 1100.21,996.684 1104.18,996.684 1104.18,1016.96 1108.14,1016.96 1108.14,1030.76 1112.11,1030.76 1112.11,1038.39 1116.07,1038.39 1116.07,1040.24 1120.04,1040.24 1120.04,1036.83 1124,1036.83 1124,1028.75 1127.96,1028.75 1127.96,1016.66 1131.93,1016.66 1131.93,1001.27 1135.89,1001.27 1135.89,983.351 1139.86,983.351 1139.86,963.674 1143.82,963.674 1143.82,943.033 1147.78,943.033 1147.78,922.207 1151.75,922.207 1151.75,901.955 1155.71,901.955 1155.71,801.391 1159.68,801.391 1159.68,705.198 1163.64,705.198 1163.64,614.679 1167.6,614.679 1167.6,530.995 1171.57,530.995 1171.57,455.138 1175.53,455.138 1175.53,387.926 1179.5,387.926 1179.5,329.983 1183.46,329.983 1183.46,281.74 1187.43,281.74 1187.43,243.426 1191.39,243.426 1191.39,215.074 1195.35,215.074 1195.35,196.524 1199.32,196.524 1199.32,187.432 1203.28,187.432 1203.28,187.282 1207.25,187.282 1207.25,195.402 1211.21,195.402 1211.21,210.981 1215.17,210.981 1215.17,314.698 1219.14,314.698 1219.14,421.514 1223.1,421.514 1223.1,529.633 1227.07,529.633 1227.07,637.283 1231.03,637.283 1231.03,742.75 1234.99,742.75 1234.99,844.409 1238.96,844.409 1238.96,940.755 1242.92,940.755 1242.92,1030.43 1246.89,1030.43 1246.89,1112.23 1250.85,1112.23 1250.85,1185.17 1254.82,1185.17 1254.82,1166.81 1258.78,1166.81 1258.78,1140.59 1262.74,1140.59 1262.74,1106.81 1266.71,1106.81 1266.71,1065.94 1270.67,1065.94 1270.67,1018.56 1274.64,1018.56 1274.64,1046.99 1278.6,1046.99 1278.6,1068.02 1282.56,1068.02 1282.56,1081.83 1286.53,1081.83 1286.53,1088.74 1290.49,1088.74 1290.49,1089.19 1294.46,1089.19 1294.46,1083.74 1298.42,1083.74 1298.42,1073.03 1302.38,1073.03 1302.38,1057.78 1306.35,1057.78 1306.35,1038.8 1310.31,1038.8 1310.31,1016.91 1314.28,1016.91 1314.28,911.386 1318.24,911.386 1318.24,807.109 1322.21,807.109 1322.21,705.647 1326.17,705.647 1326.17,608.469 1330.13,608.469 1330.13,516.922 1334.1,516.922 1334.1,513.814 1338.06,513.814 1338.06,516.167 1342.03,516.167 1342.03,524.14 1345.99,524.14 1345.99,537.771 1349.95,537.771 1349.95,556.985 1353.92,556.985 1353.92,581.594 1357.88,581.594 1357.88,611.305 1361.85,611.305 1361.85,645.732 1365.81,645.732 1365.81,684.404 1369.77,684.404 1369.77,726.774 1373.74,726.774 1373.74,690.631 1377.7,690.631 1377.7,659.334 1381.67,659.334 1381.67,632.896 1385.63,632.896 1385.63,611.238 1389.6,611.238 1389.6,594.191 1393.56,594.191 1393.56,663.118 1397.52,663.118 1397.52,733.682 1401.49,733.682 1401.49,804.802 1405.45,804.802 1405.45,875.412 1409.42,875.412 1409.42,944.486 1413.38,944.486 1413.38,1011.05 1417.34,1011.05 1417.34,1074.22 1421.31,1074.22 1421.31,1133.17 1425.27,1133.17 1425.27,1187.22 1429.24,1187.22 1429.24,1235.77 1433.2,1235.77 1433.2,1278.35 1437.16,1278.35 1437.16,1314.63 1441.13,1314.63 1441.13,1344.4 1445.09,1344.4 1445.09,1367.59 1449.06,1367.59 1449.06,1384.24 1453.02,1384.24 1453.02,1312.92 1456.98,1312.92 1456.98,1237.95 1460.95,1237.95 1460.95,1160.41 1464.91,1160.41 1464.91,1081.42 1468.88,1081.42 1468.88,1002.1 1472.84,1002.1 1472.84,923.557 1476.81,923.557 1476.81,846.832 1480.77,846.832 1480.77,772.921 1484.73,772.921 1484.73,702.736 1488.7,702.736 1488.7,637.092 1492.66,637.092 1492.66,576.697 1496.63,576.697 1496.63,522.138 1500.59,522.138 1500.59,473.874 1504.55,473.874 1504.55,432.232 1508.52,432.232 1508.52,397.404 1512.48,397.404 1512.48,451.052 1516.45,451.052 1516.45,509.089 1520.41,509.089 1520.41,570.615 1524.37,570.615 1524.37,634.685 1528.34,634.685 1528.34,700.328 1532.3,700.328 1532.3,766.57 1536.27,766.57 1536.27,832.445 1540.23,832.445 1540.23,897.025 1544.2,897.025 1544.2,959.427 1548.16,959.427 1548.16,1018.84 1552.12,1018.84 1552.12,992.905 1556.09,992.905 1556.09,965.004 1560.05,965.004 1560.05,935.285 1564.02,935.285 1564.02,903.934 1567.98,903.934 1567.98,871.172 1571.94,871.172 1571.94,837.242 1575.91,837.242 1575.91,802.41 1579.87,802.41 1579.87,766.954 1583.84,766.954 1583.84,731.162 1587.8,731.162 1587.8,695.323 1591.76,695.323 1591.76,741.332 1595.73,741.332 1595.73,785.454 1599.69,785.454 1599.69,827.258 1603.66,827.258 1603.66,866.365 1607.62,866.365 1607.62,902.46 1611.59,902.46 1611.59,853.681 1615.55,853.681 1615.55,803.856 1619.51,803.856 1619.51,753.568 1623.48,753.568 1623.48,703.392 1627.44,703.392 1627.44,653.89 1631.41,653.89 1631.41,687.208 1635.37,687.208 1635.37,719.833 1639.33,719.833 1639.33,751.526 1643.3,751.526 1643.3,782.072 1647.26,782.072 1647.26,811.277 1651.23,811.277 1651.23,838.979 1655.19,838.979 1655.19,865.044 1659.15,865.044 1659.15,889.373 1663.12,889.373 1663.12,911.898 1667.08,911.898 1667.08,932.586 1671.05,932.586 1671.05,951.438 1675.01,951.438 1675.01,968.487 1678.98,968.487 1678.98,983.798 1682.94,983.798 1682.94,997.462 1686.9,997.462 1686.9,1009.6 1690.87,1009.6 1690.87,938.745 1694.83,938.745 1694.83,869.073 1698.8,869.073 1698.8,801.454 1702.76,801.454 1702.76,736.702 1706.72,736.702 1706.72,675.552 1710.69,675.552 1710.69,700.259 1714.65,700.259 1714.65,727.36 1718.62,727.36 1718.62,756.604 1722.58,756.604 1722.58,787.701 1726.54,787.701 1726.54,820.328 1730.51,820.328 1730.51,772.532 1734.47,772.532 1734.47,727.963 1738.44,727.963 1738.44,686.946 1742.4,686.946 1742.4,649.729 1746.37,649.729 1746.37,616.485 1750.33,616.485 1750.33,587.305 1754.29,587.305 1754.29,562.206 1758.26,562.206 1758.26,541.124 1762.22,541.124 1762.22,523.925 1766.19,523.925 1766.19,510.407 1770.15,510.407 1770.15,581.913 1774.11,581.913 1774.11,654.11 1778.08,654.11 1778.08,725.937 1782.04,725.937 1782.04,796.366 1786.01,796.366 1786.01,864.424 1789.97,864.424 1789.97,929.209 1793.93,929.209 1793.93,989.906 1797.9,989.906 1797.9,1045.8 1801.86,1045.8 1801.86,1096.3 1805.83,1096.3 1805.83,1140.91 1809.79,1140.91 1809.79,1097.68 1813.76,1097.68 1813.76,1050.39 1817.72,1050.39 1817.72,999.637 1821.68,999.637 1821.68,946.085 1825.65,946.085 1825.65,890.427 1829.61,890.427 1829.61,914.99 1833.58,914.99 1833.58,936.495 1837.54,936.495 1837.54,954.972 1841.5,954.972 1841.5,970.507 1845.47,970.507 1845.47,983.24 1849.43,983.24 1849.43,911.748 1853.4,911.748 1853.4,840.271 1857.36,840.271 1857.36,769.769 1861.32,769.769 1861.32,701.16 1865.29,701.16 1865.29,635.299 1869.25,635.299 1869.25,572.97 1873.22,572.97 1873.22,514.865 1877.18,514.865 1877.18,461.579 1881.15,461.579 1881.15,413.599 1885.11,413.599 1885.11,371.295 1889.07,371.295 1889.07,416.529 1893.04,416.529 1893.04,465.423 1897,465.423 1897,517.294 1900.97,517.294 1900.97,571.421 1904.93,571.421 1904.93,627.051 1908.89,627.051 1908.89,683.424 1912.86,683.424 1912.86,739.784 1916.82,739.784 1916.82,795.39 1920.79,795.39 1920.79,849.539 1924.75,849.539 1924.75,901.57 1928.71,901.57 1928.71,950.882 1932.68,950.882 1932.68,996.94 1936.64,996.94 1936.64,1039.29 1940.61,1039.29 1940.61,1077.55 1944.57,1077.55 1944.57,1111.43 1948.54,1111.43 1948.54,1140.75 1952.5,1140.75 1952.5,1165.39 1956.46,1165.39 1956.46,1185.35 1960.43,1185.35 1960.43,1200.7 1964.39,1200.7 1964.39,1211.61 1968.36,1211.61 1968.36,1136.7 1972.32,1136.7 1972.32,1060.31 1976.28,1060.31 1976.28,983.499 1980.25,983.499 1980.25,907.334 1984.21,907.334 1984.21,832.825 1988.18,832.825 1988.18,760.929 1992.14,760.929 1992.14,692.528 1996.1,692.528 1996.1,628.414 2000.07,628.414 2000.07,569.276 2004.03,569.276 2004.03,515.687 2008,515.687 2008,549.709 2011.96,549.709 2011.96,587.657 2015.93,587.657 2015.93,629.03 2019.89,629.03 2019.89,673.273 2023.85,673.273 2023.85,719.788 2027.82,719.788 2027.82,767.945 2031.78,767.945 2031.78,817.097 2035.75,817.097 2035.75,866.595 2039.71,866.595 2039.71,915.795 2043.67,915.795 2043.67,964.079 2047.64,964.079 2047.64,929.25 2051.6,929.25 2051.6,894.778 2055.57,894.778 2055.57,860.866 2059.53,860.866 2059.53,827.706 2063.49,827.706 2063.49,795.476 2067.46,795.476 2067.46,764.332 2071.42,764.332 2071.42,734.408 2075.39,734.408 2075.39,705.819 2079.35,705.819 2079.35,678.65 2083.32,678.65 2083.32,652.961 2087.28,652.961 2087.28,710.396 2091.24,710.396 2091.24,766.95 2095.21,766.95 2095.21,821.909 2099.17,821.909 2099.17,874.608 2103.14,874.608 2103.14,924.443 2107.1,924.443 2107.1,970.88 2111.06,970.88 2111.06,1013.47 2115.03,1013.47 2115.03,1051.83 2118.99,1051.83 2118.99,1085.69 2122.96,1085.69 2122.96,1114.87 2126.92,1114.87 2126.92,1057.66 2130.88,1057.66 2130.88,998.082 2134.85,998.082 2134.85,936.92 2138.81,936.92 2138.81,874.974 2142.78,874.974 2142.78,813.04 2146.74,813.04 2146.74,833.505 2150.7,833.505 2150.7,853.097 2154.67,853.097 2154.67,871.818 2158.63,871.818 2158.63,889.68 2162.6,889.68 2162.6,906.71 2166.56,906.71 2166.56,922.947 2170.53,922.947 2170.53,938.44 2174.49,938.44 2174.49,953.248 2178.45,953.248 2178.45,967.44 2182.42,967.44 2182.42,981.088 2186.38,981.088 2186.38,994.274 2190.35,994.274 2190.35,1007.08 2194.31,1007.08 2194.31,1019.59 2198.27,1019.59 2198.27,1031.89 2202.24,1031.89 2202.24,1044.06 2206.2,1044.06 2206.2,1056.18 2210.17,1056.18 2210.17,1068.34 2214.13,1068.34 2214.13,1080.59 2218.09,1080.59 2218.09,1093 2222.06,1093 2222.06,1105.62 2226.02,1105.62 2226.02,1118.51 2229.99,1118.51 2229.99,1131.69 2233.95,1131.69 2233.95,1145.19 2237.92,1145.19 2237.92,1159.04 2241.88,1159.04 2241.88,1173.23 2245.84,1173.23 2245.84,1106.15 2249.81,1106.15 2249.81,1041.8 2253.77,1041.8 2253.77,980.865 2257.74,980.865 2257.74,923.923 2261.7,923.923 2261.7,871.479 2265.66,871.479 2265.66,905.541 2269.63,905.541 2269.63,942.398 2273.59,942.398 2273.59,981.545 2277.56,981.545 2277.56,1022.45 2281.52,1022.45 2281.52,1064.55 2285.48,1064.55 2285.48,1025.67 2289.45,1025.67 2289.45,989.263 2293.41,989.263 2293.41,955.464 "/>
<polyline clip-path="url(#clip981)" style="stroke:#e26f46; stroke-linecap:round; stroke-linejoin:round; stroke-width:4; stroke-opacity:1; fill:none" points="315.32,579.878 319.284,612.729 323.248,646.161 327.212,679.535 331.176,712.242 335.141,805.79 339.105,773.606 343.069,737.904 347.033,699.527 350.997,659.338 354.961,556.131 358.925,576.811 362.889,599.524 366.853,623.803 370.818,649.168 374.782,737.205 378.746,701.375 382.71,663.882 386.674,625.515 390.638,587.044 394.602,549.2 398.566,512.664 402.53,478.052 406.495,445.902 410.459,416.669 414.423,328.652 418.387,368.189 422.351,412.801 426.315,461.36 430.279,512.702 434.243,565.659 438.208,619.088 442.172,671.889 446.136,723.037 450.1,771.595 454.064,878.801 458.028,857.879 461.992,830.907 465.956,798.655 469.92,761.976 473.885,659.719 477.849,678.898 481.813,697.819 485.777,716.22 489.741,733.864 493.705,750.544 497.669,766.086 501.633,780.351 505.597,793.236 509.562,804.676 513.526,814.644 517.49,823.144 521.454,830.218 525.418,835.937 529.382,840.4 533.346,905.796 537.31,846.197 541.275,784.415 545.239,721.826 549.203,659.756 553.167,599.451 557.131,542.052 561.095,488.573 565.059,439.888 569.023,396.713 572.987,297.536 576.952,328.81 580.916,368.099 584.88,414.245 588.844,465.991 592.808,584.082 596.772,581.094 600.736,578.329 604.7,575.675 608.664,573.026 612.629,570.279 616.593,567.339 620.557,564.122 624.521,560.552 628.485,556.568 632.449,552.12 636.413,547.172 640.377,541.702 644.341,535.698 648.306,529.167 652.27,460.056 656.234,514.463 660.198,569.771 664.162,624.817 668.126,678.505 672.09,791.89 676.054,778 680.019,758.707 683.983,734.571 687.947,706.236 691.911,612.344 695.875,639.717 699.839,666.48 703.803,692.207 707.767,716.52 711.731,739.091 715.696,759.649 719.66,777.986 723.624,793.952 727.588,807.463 731.552,880.56 735.516,827.208 739.48,770.148 743.444,710.727 747.408,650.278 751.373,528.022 755.337,531.245 759.301,538.414 763.265,549.323 767.229,563.691 771.193,643.236 775.157,601.488 779.121,560.654 783.085,521.47 787.05,484.595 791.014,450.599 794.978,419.96 798.942,393.05 802.906,370.139 806.87,351.388 810.834,274.79 814.798,326.372 818.763,383.343 822.727,444.274 826.691,507.713 830.655,572.229 834.619,636.435 838.583,699.025 842.547,758.797 846.511,814.676 850.475,927.795 854.44,911.315 858.404,887.286 862.368,856.487 866.332,819.815 870.296,778.256 874.26,732.858 878.224,684.707 882.188,634.894 886.152,584.493 890.117,472.473 894.081,485.873 898.045,502.927 902.009,523.216 905.973,546.269 909.937,571.572 913.901,598.589 917.865,626.767 921.829,655.56 925.794,684.431 929.758,712.871 933.722,740.406 937.686,766.608 941.65,791.102 945.614,813.57 949.578,833.759 953.542,851.48 957.507,866.612 961.471,879.099 965.435,888.95 969.399,958.299 973.363,901.202 977.327,840.486 981.291,777.578 985.255,713.88 989.219,650.744 993.184,589.437 997.148,531.12 1001.11,476.825 1005.08,427.44 1009.04,383.691 1013,346.138 1016.97,315.169 1020.93,291 1024.9,273.678 1028.86,201.025 1032.82,258.847 1036.79,324.091 1040.75,395.031 1044.72,469.897 1048.68,608.983 1052.65,624.491 1056.61,637.422 1060.57,647.447 1064.54,654.319 1068.5,595.812 1072.47,657.921 1076.43,718 1080.39,774.925 1084.36,827.704 1088.32,875.492 1092.29,917.6 1096.25,953.508 1100.21,982.865 1104.18,1005.49 1108.14,1021.37 1112.11,1030.64 1116.07,1033.59 1120.04,1030.63 1124,1022.3 1127.96,1009.23 1131.93,992.131 1135.89,971.757 1139.86,948.912 1143.82,924.412 1147.78,961.137 1151.75,873.808 1155.71,785.828 1159.68,699.101 1163.64,615.406 1167.6,536.359 1171.57,463.386 1175.53,397.7 1179.5,340.283 1183.46,291.877 1187.43,252.974 1191.39,223.825 1195.35,204.441 1199.32,194.605 1203.28,193.893 1207.25,139.625 1211.21,217.09 1215.17,302.717 1219.14,394.27 1223.1,489.49 1227.07,586.147 1231.03,682.096 1234.99,775.314 1238.96,863.947 1242.92,946.342 1246.89,1083.14 1250.85,1087.1 1254.82,1079.96 1258.78,1062.29 1262.74,1034.89 1266.71,936.64 1270.67,954.748 1274.64,967.8 1278.6,975.914 1282.56,979.319 1286.53,978.338 1290.49,973.38 1294.46,964.926 1298.42,953.511 1302.38,939.714 1306.35,986.201 1310.31,907.517 1314.28,826.923 1318.24,746.217 1322.21,667.108 1326.17,529.113 1330.13,519.731 1334.1,517.56 1338.06,522.441 1342.03,534.063 1345.99,551.971 1349.95,575.591 1353.92,604.244 1357.88,637.172 1361.85,673.555 1365.81,774.6 1369.77,753.365 1373.74,731.635 1377.7,709.771 1381.67,688.124 1385.63,604.952 1389.6,646.621 1393.56,690.741 1397.52,736.326 1401.49,782.409 1405.45,828.059 1409.42,872.403 1413.38,914.644 1417.34,954.073 1421.31,990.083 1425.27,1022.18 1429.24,1049.98 1433.2,1073.21 1437.16,1091.75 1441.13,1105.56 1445.09,1176.79 1449.06,1119.55 1453.02,1056.79 1456.98,990.061 1460.95,920.957 1464.91,851.031 1468.88,781.777 1472.84,714.597 1476.81,650.776 1480.77,591.452 1484.73,537.602 1488.7,490.027 1492.66,449.343 1496.63,415.971 1500.59,390.146 1504.55,309.848 1508.52,361.014 1512.48,420.695 1516.45,487.236 1520.41,558.907 1524.37,633.947 1528.34,710.611 1532.3,787.203 1536.27,862.114 1540.23,933.861 1544.2,1063.17 1548.16,1062.81 1552.12,1054.47 1556.09,1038.57 1560.05,1015.71 1564.02,986.606 1567.98,952.093 1571.94,913.081 1575.91,870.537 1579.87,825.463 1583.84,716.8 1587.8,731.611 1591.76,748.195 1595.73,766.239 1599.69,785.413 1603.66,867.442 1607.62,825.915 1611.59,783.151 1615.55,740.038 1619.51,697.428 1623.48,594.049 1627.44,616.697 1631.41,643.36 1635.37,673.376 1639.33,706.042 1643.3,740.625 1647.26,776.391 1651.23,812.61 1655.19,848.584 1659.15,883.654 1663.12,917.216 1667.08,948.731 1671.05,977.736 1675.01,1003.85 1678.98,1026.78 1682.94,1108.38 1686.9,1062.46 1690.87,1011.66 1694.83,957.218 1698.8,900.43 1702.76,780.495 1706.72,784.712 1710.69,791.591 1714.65,800.996 1718.62,812.742 1722.58,888.664 1726.54,842.423 1730.51,796.375 1734.47,751.411 1738.44,708.35 1742.4,667.926 1746.37,630.774 1750.33,597.421 1754.29,568.28 1758.26,543.645 1762.22,461.623 1766.19,508.342 1770.15,561.094 1774.11,618.511 1778.08,679.187 1782.04,741.711 1786.01,804.704 1789.97,866.846 1793.93,926.903 1797.9,983.754 1801.86,1098.47 1805.83,1084.15 1809.79,1062.76 1813.76,1034.98 1817.72,1001.63 1821.68,901.536 1825.65,921.715 1829.61,940.508 1833.58,957.715 1837.54,973.178 1841.5,1048.86 1845.47,998.62 1849.43,945.109 1853.4,889.566 1857.36,833.213 1861.32,777.231 1865.29,722.732 1869.25,670.735 1873.22,622.151 1877.18,577.763 1881.15,476.153 1885.11,503.893 1889.07,538.683 1893.04,579.518 1897,625.304 1900.97,674.889 1904.93,727.093 1908.89,780.735 1912.86,834.661 1916.82,887.769 1920.79,939.034 1924.75,987.525 1928.71,1032.42 1932.68,1073.03 1936.64,1108.8 1940.61,1139.3 1944.57,1164.26 1948.54,1183.54 1952.5,1197.16 1956.46,1205.24 1960.43,1270.12 1964.39,1206.07 1968.36,1136.23 1972.32,1062.33 1976.28,986.128 1980.25,909.338 1984.21,833.602 1988.18,760.452 1992.14,691.282 1996.1,627.323 2000.07,507.558 2004.03,518.903 2008,539.347 2011.96,568.113 2015.93,604.267 2019.89,646.756 2023.85,694.431 2027.82,746.086 2031.78,800.481 2035.75,856.377 2039.71,974.63 2043.67,968.017 2047.64,958.115 2051.6,945.155 2055.57,929.429 2059.53,911.277 2063.49,891.079 2067.46,869.24 2071.42,846.186 2075.39,822.347 2079.35,736.084 2083.32,773.879 2087.28,813.47 2091.24,854.011 2095.21,894.675 2099.17,934.676 2103.14,973.282 2107.1,1009.83 2111.06,1043.75 2115.03,1074.54 2118.99,1163.87 2122.96,1125.4 2126.92,1081.58 2130.88,1033.54 2134.85,982.433 2138.81,867.374 2142.78,875.588 2146.74,885.537 2150.7,897.063 2154.67,909.977 2158.63,924.07 2162.6,939.116 2166.56,954.877 2170.53,971.113 2174.49,987.582 2178.45,1004.05 2182.42,1020.3 2186.38,1036.13 2190.35,1051.34 2194.31,1065.78 2198.27,1079.31 2202.24,1091.84 2206.2,1103.26 2210.17,1113.55 2214.13,1122.68 2218.09,1130.65 2222.06,1137.5 2226.02,1143.28 2229.99,1148.09 2233.95,1152.01 2237.92,1217.22 2241.88,1157.78 2245.84,1096.48 2249.81,1034.66 2253.77,973.62 2257.74,852.49 2261.7,858.441 2265.66,869.791 2269.63,886.159 2273.59,907.07 2277.56,994.031 2281.52,960.351 2285.48,928.016 2289.45,897.538 2293.41,869.36 "/>
<polyline clip-path="url(#clip981)" style="stroke:#3da44d; stroke-linecap:round; stroke-linejoin:round; stroke-width:4; stroke-opacity:1; fill:none" points="315.32,563.187 319.284,596.263 323.248,630.608 327.212,665.542 331.176,700.406 335.141,776.199 339.105,744.338 343.069,708.537 347.033,669.646 350.997,628.543 354.961,544.49 358.925,566.365 362.889,590.773 366.853,617.199 370.818,645.107 374.782,715.578 378.746,680.068 382.71,642.289 386.674,603.052 390.638,563.16 394.602,523.388 398.566,484.471 402.53,447.086 406.495,411.838 410.459,379.255 414.423,308.151 418.387,346.879 422.351,391.453 426.315,440.723 430.279,493.488 434.243,548.528 438.208,604.634 442.172,660.632 446.136,715.414 450.1,767.952 454.064,858.95 458.028,839.597 461.992,813.458 465.956,781.305 469.92,744.01 473.885,660.897 477.849,680.97 481.813,701.015 485.777,720.749 489.741,739.912 493.705,758.269 497.669,775.616 501.633,791.783 505.597,806.635 509.562,820.076 513.526,832.046 517.49,842.523 521.454,851.519 525.418,859.082 529.382,865.289 533.346,911.867 537.31,850.935 541.275,786.873 545.239,721.142 549.203,655.167 553.167,590.307 557.131,527.824 561.095,468.86 565.059,414.421 569.023,365.351 572.987,280.709 576.952,309.008 580.916,346.343 584.88,391.568 588.844,443.411 592.808,542.136 596.772,538.322 600.736,534.773 604.7,531.377 608.664,528.025 612.629,524.611 616.593,521.039 620.557,517.219 624.521,513.071 628.485,508.529 632.449,503.539 636.413,498.058 640.377,492.06 644.341,485.529 648.306,478.465 652.27,429.257 656.234,485.936 660.198,544.304 664.162,603.104 668.126,661.134 672.09,758.893 676.054,747.351 680.019,729.837 683.983,706.884 687.947,679.121 691.911,605.636 695.875,635.204 699.839,664.399 703.803,692.746 707.767,719.812 711.731,745.216 715.696,768.636 719.66,789.811 723.624,808.547 727.588,824.713 731.552,879.871 735.516,826.012 739.48,767.43 743.444,705.543 747.408,641.77 751.373,535.882 755.337,537.218 759.301,542.793 763.265,552.439 767.229,565.905 771.193,624.483 775.157,579.776 779.121,535.569 783.085,492.681 787.05,451.856 791.014,413.752 794.978,378.932 798.942,347.853 802.906,320.863 806.87,298.196 810.834,238.354 814.798,289.36 818.763,346.891 822.727,409.464 826.691,475.551 830.655,543.625 834.619,612.188 838.583,679.809 842.547,745.152 846.511,807.002 850.475,905.91 854.44,892.954 858.404,871.629 862.368,842.677 866.332,806.977 870.296,765.523 874.26,719.388 878.224,669.7 882.188,617.609 886.152,564.266 890.117,469.165 894.081,481.38 898.045,497.668 902.009,517.624 905.973,540.777 909.937,566.608 913.901,594.562 917.865,624.063 921.829,654.529 925.794,685.386 929.758,716.079 933.722,746.086 937.686,774.927 941.65,802.175 945.614,827.46 949.578,850.476 953.542,870.988 957.507,888.827 961.471,903.896 965.435,916.169 969.399,967.306 973.363,909.398 977.327,846.832 981.291,781.115 985.255,713.747 989.219,646.191 993.184,579.838 997.148,515.98 1001.11,455.788 1005.08,400.285 1009.04,350.333 1013,306.625 1016.97,269.671 1020.93,239.799 1024.9,217.159 1028.86,160.099 1032.82,216.438 1036.79,281.6 1040.75,353.804 1044.72,431.199 1048.68,553.532 1052.65,570.935 1056.61,585.845 1060.57,597.865 1064.54,606.685 1068.5,570.463 1072.47,637.078 1076.43,702.258 1080.39,764.749 1084.36,823.422 1088.32,877.296 1092.29,925.55 1096.25,967.535 1100.21,1002.78 1104.18,1031 1108.14,1052.07 1112.11,1066.05 1116.07,1073.17 1120.04,1073.79 1124,1068.41 1127.96,1057.63 1131.93,1042.17 1135.89,1022.8 1139.86,1000.34 1143.82,975.649 1147.78,991.22 1151.75,899.89 1155.71,806.712 1159.68,713.753 1163.64,622.972 1167.6,536.175 1171.57,454.987 1175.53,380.815 1179.5,314.836 1183.46,257.975 1187.43,210.9 1191.39,174.017 1195.35,147.477 1199.32,131.183 1203.28,124.807 1207.25,86.1857 1211.21,162.597 1215.17,248.917 1219.14,342.821 1223.1,441.928 1227.07,543.856 1231.03,646.284 1234.99,746.996 1238.96,843.928 1242.92,935.212 1246.89,1060.83 1250.85,1071.37 1254.82,1069.97 1258.78,1057.07 1262.74,1033.39 1266.71,958.222 1270.67,980.679 1274.64,997.776 1278.6,1009.57 1282.56,1016.24 1286.53,1018.07 1290.49,1015.45 1294.46,1008.85 1298.42,998.793 1302.38,985.875 1306.35,1012.34 1310.31,930.828 1314.28,846.212 1318.24,760.429 1322.21,675.343 1326.17,551.082 1330.13,537.26 1334.1,531.076 1338.06,532.458 1342.03,541.167 1345.99,556.802 1349.95,578.827 1353.92,606.582 1357.88,639.31 1361.85,676.177 1365.81,757.919 1369.77,735.61 1373.74,712.559 1377.7,689.155 1381.67,665.777 1385.63,601.161 1389.6,643.645 1393.56,689.297 1397.52,737.076 1401.49,785.946 1405.45,834.9 1409.42,882.978 1413.38,929.291 1417.34,973.037 1421.31,1013.51 1425.27,1050.13 1429.24,1082.41 1433.2,1110.02 1437.16,1132.72 1441.13,1150.43 1445.09,1204.78 1449.06,1147.92 1453.02,1084.31 1456.98,1015.58 1460.95,943.418 1464.91,869.473 1468.88,795.369 1472.84,722.647 1476.81,652.735 1480.77,586.927 1484.73,526.351 1488.7,471.959 1492.66,424.512 1496.63,384.569 1500.59,352.489 1504.55,286.806 1508.52,335.495 1512.48,394.105 1516.45,460.949 1520.41,534.239 1524.37,612.127 1528.34,692.753 1532.3,774.291 1536.27,854.986 1540.23,933.192 1544.2,1049.03 1548.16,1053.15 1552.12,1048.65 1556.09,1035.89 1560.05,1015.41 1564.02,987.895 1567.98,954.161 1571.94,915.125 1575.91,871.783 1579.87,825.175 1583.84,734.743 1587.8,749.557 1591.76,766.418 1595.73,785.009 1599.69,804.991 1603.66,867.629 1607.62,824.555 1611.59,779.641 1615.55,733.84 1619.51,688.075 1623.48,601.599 1627.44,623.231 1631.41,649.468 1635.37,679.645 1639.33,713.039 1643.3,748.893 1647.26,786.429 1651.23,824.87 1655.19,863.459 1659.15,901.473 1663.12,938.241 1667.08,973.154 1671.05,1005.68 1675.01,1035.36 1678.98,1061.83 1682.94,1126.45 1686.9,1081.03 1690.87,1029.73 1694.83,973.835 1698.8,914.707 1702.76,812.07 1706.72,815.259 1710.69,821.315 1714.65,830.128 1718.62,841.53 1722.58,896.924 1726.54,848.041 1730.51,798.812 1734.47,750.212 1738.44,703.152 1742.4,658.459 1746.37,616.864 1750.33,578.989 1754.29,545.337 1758.26,516.289 1762.22,450.477 1766.19,496.038 1770.15,548.749 1774.11,607.202 1778.08,669.928 1782.04,735.435 1786.01,802.244 1789.97,868.92 1793.93,934.105 1797.9,996.546 1801.86,1096.74 1805.83,1085.7 1809.79,1066.83 1813.76,1040.8 1817.72,1008.4 1821.68,928.882 1825.65,951.249 1829.61,972.292 1833.58,991.771 1837.54,1009.49 1841.5,1066.94 1845.47,1016.01 1849.43,960.891 1853.4,902.896 1857.36,843.329 1861.32,783.468 1865.29,724.531 1869.25,667.651 1873.22,613.858 1877.18,564.055 1881.15,477.386 1885.11,502.478 1889.07,535.558 1893.04,575.632 1897,621.59 1900.97,672.247 1904.93,726.367 1908.89,782.699 1912.86,840.005 1916.82,897.086 1920.79,952.812 1924.75,1006.14 1928.71,1056.14 1932.68,1101.99 1936.64,1143.04 1940.61,1178.75 1944.57,1208.75 1948.54,1232.82 1952.5,1250.87 1956.46,1262.98 1960.43,1310.97 1964.39,1247.15 1968.36,1176.19 1972.32,1099.92 1976.28,1020.19 1980.25,938.831 1984.21,857.634 1988.18,778.284 1992.14,702.341 1996.1,631.203 2000.07,524.465 2004.03,531.152 2008,547.832 2011.96,573.785 2015.93,608.113 2019.89,649.769 2023.85,697.591 2027.82,750.335 2031.78,806.704 2035.75,865.387 2039.71,966.707 2043.67,961.399 2047.64,952.509 2051.6,940.243 2055.57,924.875 2059.53,906.739 2063.49,886.212 2067.46,863.71 2071.42,839.672 2075.39,814.551 2079.35,747.179 2083.32,786.011 2087.28,827.242 2091.24,869.974 2095.21,913.317 2099.17,956.415 2103.14,998.461 2107.1,1038.71 2111.06,1076.51 2115.03,1111.28 2118.99,1184.18 2122.96,1146.82 2126.92,1103.18 2130.88,1054.41 2134.85,1001.72 2138.81,904.715 2142.78,912.652 2146.74,922.501 2150.7,934.113 2154.67,947.306 2158.63,961.872 2162.6,977.578 2166.56,994.181 2170.53,1011.43 2174.49,1029.06 2178.45,1046.83 2182.42,1064.5 2186.38,1081.83 2190.35,1098.63 2194.31,1114.7 2198.27,1129.88 2202.24,1144.06 2206.2,1157.12 2210.17,1169.01 2214.13,1179.67 2218.09,1189.1 2222.06,1197.33 2226.02,1204.4 2229.99,1210.37 2233.95,1215.36 2237.92,1261.08 2241.88,1199.65 2245.84,1135.45 2249.81,1069.92 2253.77,1004.46 2257.74,898.766 2261.7,902.081 2265.66,911.277 2269.63,926.013 2273.59,945.841 2277.56,1011.84 2281.52,975.378 2285.48,940.007 2289.45,906.307 2293.41,874.786 "/>
<path clip-path="url(#clip980)" d="M325.87 1377.32 L1334.52 1377.32 L1334.52 1169.96 L325.87 1169.96  Z" fill="#ffffff" fill-rule="evenodd" fill-opacity="1"/>
<polyline clip-path="url(#clip980)" style="stroke:#000000; stroke-linecap:round; stroke-linejoin:round; stroke-width:4; stroke-opacity:1; fill:none" points="325.87,1377.32 1334.52,1377.32 1334.52,1169.96 325.87,1169.96 325.87,1377.32 "/>
<polyline clip-path="url(#clip980)" style="stroke:#009af9; stroke-linecap:round; stroke-linejoin:round; stroke-width:4; stroke-opacity:1; fill:none" points="349.167,1221.8 488.953,1221.8 "/>
<path clip-path="url(#clip980)" d="M516.926 1208.36 L516.926 1235.23 L522.574 1235.23 Q529.727 1235.23 533.037 1231.99 Q536.37 1228.75 536.37 1221.76 Q536.37 1214.82 533.037 1211.6 Q529.727 1208.36 522.574 1208.36 L516.926 1208.36 M512.25 1204.52 L521.857 1204.52 Q531.903 1204.52 536.602 1208.71 Q541.301 1212.87 541.301 1221.76 Q541.301 1230.7 536.579 1234.89 Q531.857 1239.08 521.857 1239.08 L512.25 1239.08 L512.25 1204.52 Z" fill="#000000" fill-rule="nonzero" fill-opacity="1" /><path clip-path="url(#clip980)" d="M560.352 1226.04 Q555.19 1226.04 553.199 1227.22 Q551.208 1228.4 551.208 1231.25 Q551.208 1233.52 552.69 1234.86 Q554.194 1236.18 556.764 1236.18 Q560.305 1236.18 562.435 1233.68 Q564.588 1231.16 564.588 1226.99 L564.588 1226.04 L560.352 1226.04 M568.847 1224.28 L568.847 1239.08 L564.588 1239.08 L564.588 1235.14 Q563.129 1237.5 560.954 1238.64 Q558.778 1239.75 555.63 1239.75 Q551.648 1239.75 549.287 1237.52 Q546.949 1235.28 546.949 1231.53 Q546.949 1227.15 549.866 1224.93 Q552.805 1222.71 558.616 1222.71 L564.588 1222.71 L564.588 1222.29 Q564.588 1219.35 562.643 1217.76 Q560.722 1216.14 557.227 1216.14 Q555.005 1216.14 552.898 1216.67 Q550.792 1217.2 548.847 1218.27 L548.847 1214.33 Q551.185 1213.43 553.384 1212.99 Q555.583 1212.52 557.667 1212.52 Q563.292 1212.52 566.069 1215.44 Q568.847 1218.36 568.847 1224.28 Z" fill="#000000" fill-rule="nonzero" fill-opacity="1" /><path clip-path="url(#clip980)" d="M581.833 1205.79 L581.833 1213.15 L590.606 1213.15 L590.606 1216.46 L581.833 1216.46 L581.833 1230.53 Q581.833 1233.7 582.69 1234.61 Q583.569 1235.51 586.231 1235.51 L590.606 1235.51 L590.606 1239.08 L586.231 1239.08 Q581.301 1239.08 579.426 1237.25 Q577.551 1235.39 577.551 1230.53 L577.551 1216.46 L574.426 1216.46 L574.426 1213.15 L577.551 1213.15 L577.551 1205.79 L581.833 1205.79 Z" fill="#000000" fill-rule="nonzero" fill-opacity="1" /><path clip-path="url(#clip980)" d="M607.99 1226.04 Q602.828 1226.04 600.838 1227.22 Q598.847 1228.4 598.847 1231.25 Q598.847 1233.52 600.328 1234.86 Q601.833 1236.18 604.402 1236.18 Q607.944 1236.18 610.074 1233.68 Q612.226 1231.16 612.226 1226.99 L612.226 1226.04 L607.99 1226.04 M616.486 1224.28 L616.486 1239.08 L612.226 1239.08 L612.226 1235.14 Q610.768 1237.5 608.592 1238.64 Q606.416 1239.75 603.268 1239.75 Q599.287 1239.75 596.926 1237.52 Q594.588 1235.28 594.588 1231.53 Q594.588 1227.15 597.504 1224.93 Q600.444 1222.71 606.254 1222.71 L612.226 1222.71 L612.226 1222.29 Q612.226 1219.35 610.282 1217.76 Q608.361 1216.14 604.865 1216.14 Q602.643 1216.14 600.537 1216.67 Q598.43 1217.2 596.486 1218.27 L596.486 1214.33 Q598.824 1213.43 601.023 1212.99 Q603.222 1212.52 605.305 1212.52 Q610.93 1212.52 613.708 1215.44 Q616.486 1218.36 616.486 1224.28 Z" fill="#000000" fill-rule="nonzero" fill-opacity="1" /><polyline clip-path="url(#clip980)" style="stroke:#e26f46; stroke-linecap:round; stroke-linejoin:round; stroke-width:4; stroke-opacity:1; fill:none" points="349.167,1273.64 488.953,1273.64 "/>
<path clip-path="url(#clip980)" d="M534.495 1257.49 L534.495 1262.05 Q531.833 1260.78 529.472 1260.15 Q527.111 1259.53 524.912 1259.53 Q521.093 1259.53 519.009 1261.01 Q516.949 1262.49 516.949 1265.22 Q516.949 1267.51 518.315 1268.69 Q519.704 1269.85 523.546 1270.57 L526.37 1271.15 Q531.602 1272.14 534.079 1274.67 Q536.579 1277.17 536.579 1281.38 Q536.579 1286.4 533.199 1288.99 Q529.843 1291.59 523.338 1291.59 Q520.884 1291.59 518.107 1291.03 Q515.352 1290.48 512.389 1289.39 L512.389 1284.57 Q515.236 1286.17 517.968 1286.98 Q520.699 1287.79 523.338 1287.79 Q527.343 1287.79 529.519 1286.22 Q531.694 1284.64 531.694 1281.73 Q531.694 1279.18 530.12 1277.74 Q528.569 1276.31 525.005 1275.59 L522.157 1275.04 Q516.926 1273.99 514.588 1271.77 Q512.25 1269.55 512.25 1265.59 Q512.25 1261.01 515.468 1258.37 Q518.708 1255.73 524.38 1255.73 Q526.81 1255.73 529.333 1256.17 Q531.857 1256.61 534.495 1257.49 Z" fill="#000000" fill-rule="nonzero" fill-opacity="1" /><path clip-path="url(#clip980)" d="M543.685 1264.99 L547.944 1264.99 L547.944 1290.92 L543.685 1290.92 L543.685 1264.99 M543.685 1254.9 L547.944 1254.9 L547.944 1260.29 L543.685 1260.29 L543.685 1254.9 Z" fill="#000000" fill-rule="nonzero" fill-opacity="1" /><path clip-path="url(#clip980)" d="M577.041 1269.97 Q578.639 1267.1 580.861 1265.73 Q583.083 1264.36 586.092 1264.36 Q590.143 1264.36 592.342 1267.21 Q594.541 1270.04 594.541 1275.27 L594.541 1290.92 L590.259 1290.92 L590.259 1275.41 Q590.259 1271.68 588.94 1269.87 Q587.62 1268.07 584.912 1268.07 Q581.602 1268.07 579.68 1270.27 Q577.759 1272.47 577.759 1276.26 L577.759 1290.92 L573.477 1290.92 L573.477 1275.41 Q573.477 1271.66 572.157 1269.87 Q570.838 1268.07 568.083 1268.07 Q564.819 1268.07 562.898 1270.29 Q560.977 1272.49 560.977 1276.26 L560.977 1290.92 L556.694 1290.92 L556.694 1264.99 L560.977 1264.99 L560.977 1269.02 Q562.435 1266.63 564.472 1265.5 Q566.509 1264.36 569.31 1264.36 Q572.134 1264.36 574.102 1265.8 Q576.092 1267.23 577.041 1269.97 Z" fill="#000000" fill-rule="nonzero" fill-opacity="1" /><path clip-path="url(#clip980)" d="M602.597 1280.68 L602.597 1264.99 L606.856 1264.99 L606.856 1280.52 Q606.856 1284.2 608.291 1286.05 Q609.726 1287.88 612.597 1287.88 Q616.046 1287.88 618.037 1285.68 Q620.05 1283.48 620.05 1279.69 L620.05 1264.99 L624.31 1264.99 L624.31 1290.92 L620.05 1290.92 L620.05 1286.93 Q618.5 1289.29 616.439 1290.45 Q614.402 1291.59 611.694 1291.59 Q607.226 1291.59 604.912 1288.81 Q602.597 1286.03 602.597 1280.68 M613.314 1264.36 L613.314 1264.36 Z" fill="#000000" fill-rule="nonzero" fill-opacity="1" /><path clip-path="url(#clip980)" d="M633.083 1254.9 L637.342 1254.9 L637.342 1290.92 L633.083 1290.92 L633.083 1254.9 Z" fill="#000000" fill-rule="nonzero" fill-opacity="1" /><path clip-path="url(#clip980)" d="M658.036 1277.88 Q652.874 1277.88 650.884 1279.06 Q648.893 1280.24 648.893 1283.09 Q648.893 1285.36 650.374 1286.7 Q651.879 1288.02 654.448 1288.02 Q657.99 1288.02 660.12 1285.52 Q662.272 1283 662.272 1278.83 L662.272 1277.88 L658.036 1277.88 M666.532 1276.12 L666.532 1290.92 L662.272 1290.92 L662.272 1286.98 Q660.814 1289.34 658.638 1290.48 Q656.462 1291.59 653.314 1291.59 Q649.333 1291.59 646.972 1289.36 Q644.634 1287.12 644.634 1283.37 Q644.634 1278.99 647.55 1276.77 Q650.49 1274.55 656.3 1274.55 L662.272 1274.55 L662.272 1274.13 Q662.272 1271.19 660.328 1269.6 Q658.407 1267.98 654.911 1267.98 Q652.689 1267.98 650.583 1268.51 Q648.476 1269.04 646.532 1270.11 L646.532 1266.17 Q648.87 1265.27 651.069 1264.83 Q653.268 1264.36 655.351 1264.36 Q660.976 1264.36 663.754 1267.28 Q666.532 1270.2 666.532 1276.12 Z" fill="#000000" fill-rule="nonzero" fill-opacity="1" /><path clip-path="url(#clip980)" d="M679.518 1257.63 L679.518 1264.99 L688.291 1264.99 L688.291 1268.3 L679.518 1268.3 L679.518 1282.37 Q679.518 1285.54 680.374 1286.45 Q681.254 1287.35 683.916 1287.35 L688.291 1287.35 L688.291 1290.92 L683.916 1290.92 Q678.985 1290.92 677.11 1289.09 Q675.235 1287.23 675.235 1282.37 L675.235 1268.3 L672.11 1268.3 L672.11 1264.99 L675.235 1264.99 L675.235 1257.63 L679.518 1257.63 Z" fill="#000000" fill-rule="nonzero" fill-opacity="1" /><path clip-path="url(#clip980)" d="M693.893 1264.99 L698.152 1264.99 L698.152 1290.92 L693.893 1290.92 L693.893 1264.99 M693.893 1254.9 L698.152 1254.9 L698.152 1260.29 L693.893 1260.29 L693.893 1254.9 Z" fill="#000000" fill-rule="nonzero" fill-opacity="1" /><path clip-path="url(#clip980)" d="M717.11 1267.98 Q713.684 1267.98 711.694 1270.66 Q709.703 1273.32 709.703 1277.98 Q709.703 1282.63 711.67 1285.31 Q713.661 1287.98 717.11 1287.98 Q720.513 1287.98 722.504 1285.29 Q724.494 1282.61 724.494 1277.98 Q724.494 1273.37 722.504 1270.68 Q720.513 1267.98 717.11 1267.98 M717.11 1264.36 Q722.666 1264.36 725.837 1267.98 Q729.008 1271.59 729.008 1277.98 Q729.008 1284.34 725.837 1287.98 Q722.666 1291.59 717.11 1291.59 Q711.531 1291.59 708.36 1287.98 Q705.212 1284.34 705.212 1277.98 Q705.212 1271.59 708.36 1267.98 Q711.531 1264.36 717.11 1264.36 Z" fill="#000000" fill-rule="nonzero" fill-opacity="1" /><path clip-path="url(#clip980)" d="M757.619 1275.27 L757.619 1290.92 L753.36 1290.92 L753.36 1275.41 Q753.36 1271.73 751.925 1269.9 Q750.49 1268.07 747.619 1268.07 Q744.17 1268.07 742.179 1270.27 Q740.189 1272.47 740.189 1276.26 L740.189 1290.92 L735.906 1290.92 L735.906 1264.99 L740.189 1264.99 L740.189 1269.02 Q741.717 1266.68 743.777 1265.52 Q745.86 1264.36 748.568 1264.36 Q753.036 1264.36 755.328 1267.14 Q757.619 1269.9 757.619 1275.27 Z" fill="#000000" fill-rule="nonzero" fill-opacity="1" /><path clip-path="url(#clip980)" d="M801.369 1269.97 Q802.966 1267.1 805.188 1265.73 Q807.411 1264.36 810.42 1264.36 Q814.471 1264.36 816.67 1267.21 Q818.869 1270.04 818.869 1275.27 L818.869 1290.92 L814.586 1290.92 L814.586 1275.41 Q814.586 1271.68 813.267 1269.87 Q811.948 1268.07 809.239 1268.07 Q805.929 1268.07 804.008 1270.27 Q802.087 1272.47 802.087 1276.26 L802.087 1290.92 L797.804 1290.92 L797.804 1275.41 Q797.804 1271.66 796.485 1269.87 Q795.165 1268.07 792.411 1268.07 Q789.147 1268.07 787.226 1270.29 Q785.304 1272.49 785.304 1276.26 L785.304 1290.92 L781.022 1290.92 L781.022 1264.99 L785.304 1264.99 L785.304 1269.02 Q786.763 1266.63 788.8 1265.5 Q790.837 1264.36 793.638 1264.36 Q796.462 1264.36 798.429 1265.8 Q800.42 1267.23 801.369 1269.97 Z" fill="#000000" fill-rule="nonzero" fill-opacity="1" /><path clip-path="url(#clip980)" d="M837.41 1267.98 Q833.985 1267.98 831.994 1270.66 Q830.003 1273.32 830.003 1277.98 Q830.003 1282.63 831.971 1285.31 Q833.961 1287.98 837.41 1287.98 Q840.813 1287.98 842.804 1285.29 Q844.795 1282.61 844.795 1277.98 Q844.795 1273.37 842.804 1270.68 Q840.813 1267.98 837.41 1267.98 M837.41 1264.36 Q842.966 1264.36 846.137 1267.98 Q849.309 1271.59 849.309 1277.98 Q849.309 1284.34 846.137 1287.98 Q842.966 1291.59 837.41 1291.59 Q831.832 1291.59 828.66 1287.98 Q825.512 1284.34 825.512 1277.98 Q825.512 1271.59 828.66 1267.98 Q831.832 1264.36 837.41 1264.36 Z" fill="#000000" fill-rule="nonzero" fill-opacity="1" /><path clip-path="url(#clip980)" d="M873.429 1268.92 L873.429 1254.9 L877.688 1254.9 L877.688 1290.92 L873.429 1290.92 L873.429 1287.03 Q872.086 1289.34 870.026 1290.48 Q867.989 1291.59 865.119 1291.59 Q860.42 1291.59 857.457 1287.84 Q854.517 1284.09 854.517 1277.98 Q854.517 1271.86 857.457 1268.11 Q860.42 1264.36 865.119 1264.36 Q867.989 1264.36 870.026 1265.5 Q872.086 1266.61 873.429 1268.92 M858.915 1277.98 Q858.915 1282.67 860.836 1285.36 Q862.781 1288.02 866.16 1288.02 Q869.54 1288.02 871.484 1285.36 Q873.429 1282.67 873.429 1277.98 Q873.429 1273.28 871.484 1270.61 Q869.54 1267.93 866.16 1267.93 Q862.781 1267.93 860.836 1270.61 Q858.915 1273.28 858.915 1277.98 Z" fill="#000000" fill-rule="nonzero" fill-opacity="1" /><path clip-path="url(#clip980)" d="M908.637 1276.89 L908.637 1278.97 L889.054 1278.97 Q889.331 1283.37 891.693 1285.68 Q894.077 1287.98 898.313 1287.98 Q900.767 1287.98 903.058 1287.37 Q905.373 1286.77 907.642 1285.57 L907.642 1289.6 Q905.35 1290.57 902.942 1291.08 Q900.535 1291.59 898.058 1291.59 Q891.855 1291.59 888.22 1287.98 Q884.609 1284.36 884.609 1278.21 Q884.609 1271.84 888.035 1268.11 Q891.484 1264.36 897.318 1264.36 Q902.549 1264.36 905.581 1267.74 Q908.637 1271.1 908.637 1276.89 M904.378 1275.64 Q904.331 1272.14 902.41 1270.06 Q900.512 1267.98 897.364 1267.98 Q893.799 1267.98 891.646 1269.99 Q889.517 1272 889.193 1275.66 L904.378 1275.64 Z" fill="#000000" fill-rule="nonzero" fill-opacity="1" /><path clip-path="url(#clip980)" d="M915.628 1254.9 L919.887 1254.9 L919.887 1290.92 L915.628 1290.92 L915.628 1254.9 Z" fill="#000000" fill-rule="nonzero" fill-opacity="1" /><path clip-path="url(#clip980)" d="M960.396 1265.75 L960.396 1269.78 Q958.59 1268.86 956.646 1268.39 Q954.701 1267.93 952.618 1267.93 Q949.447 1267.93 947.85 1268.9 Q946.276 1269.87 946.276 1271.82 Q946.276 1273.3 947.41 1274.16 Q948.544 1274.99 951.97 1275.75 L953.428 1276.08 Q957.965 1277.05 959.863 1278.83 Q961.785 1280.59 961.785 1283.76 Q961.785 1287.37 958.914 1289.48 Q956.067 1291.59 951.067 1291.59 Q948.984 1291.59 946.715 1291.17 Q944.47 1290.78 941.97 1289.97 L941.97 1285.57 Q944.331 1286.79 946.623 1287.42 Q948.914 1288.02 951.16 1288.02 Q954.169 1288.02 955.789 1287 Q957.41 1285.96 957.41 1284.09 Q957.41 1282.35 956.229 1281.42 Q955.072 1280.5 951.114 1279.64 L949.632 1279.3 Q945.674 1278.46 943.914 1276.75 Q942.155 1275.01 942.155 1272 Q942.155 1268.35 944.748 1266.36 Q947.34 1264.36 952.109 1264.36 Q954.47 1264.36 956.553 1264.71 Q958.637 1265.06 960.396 1265.75 Z" fill="#000000" fill-rule="nonzero" fill-opacity="1" /><path clip-path="url(#clip980)" d="M968.567 1264.99 L972.826 1264.99 L972.826 1290.92 L968.567 1290.92 L968.567 1264.99 M968.567 1254.9 L972.826 1254.9 L972.826 1260.29 L968.567 1260.29 L968.567 1254.9 Z" fill="#000000" fill-rule="nonzero" fill-opacity="1" /><path clip-path="url(#clip980)" d="M1001.92 1269.97 Q1003.52 1267.1 1005.74 1265.73 Q1007.97 1264.36 1010.97 1264.36 Q1015.03 1264.36 1017.22 1267.21 Q1019.42 1270.04 1019.42 1275.27 L1019.42 1290.92 L1015.14 1290.92 L1015.14 1275.41 Q1015.14 1271.68 1013.82 1269.87 Q1012.5 1268.07 1009.79 1268.07 Q1006.48 1268.07 1004.56 1270.27 Q1002.64 1272.47 1002.64 1276.26 L1002.64 1290.92 L998.359 1290.92 L998.359 1275.41 Q998.359 1271.66 997.039 1269.87 Q995.72 1268.07 992.965 1268.07 Q989.701 1268.07 987.78 1270.29 Q985.859 1272.49 985.859 1276.26 L985.859 1290.92 L981.576 1290.92 L981.576 1264.99 L985.859 1264.99 L985.859 1269.02 Q987.317 1266.63 989.354 1265.5 Q991.391 1264.36 994.192 1264.36 Q997.016 1264.36 998.984 1265.8 Q1000.97 1267.23 1001.92 1269.97 Z" fill="#000000" fill-rule="nonzero" fill-opacity="1" /><path clip-path="url(#clip980)" d="M1056.11 1254.9 L1056.11 1258.44 L1052.04 1258.44 Q1049.75 1258.44 1048.84 1259.36 Q1047.96 1260.29 1047.96 1262.7 L1047.96 1264.99 L1054.98 1264.99 L1054.98 1268.3 L1047.96 1268.3 L1047.96 1290.92 L1043.68 1290.92 L1043.68 1268.3 L1039.61 1268.3 L1039.61 1264.99 L1043.68 1264.99 L1043.68 1263.18 Q1043.68 1258.86 1045.7 1256.89 Q1047.71 1254.9 1052.09 1254.9 L1056.11 1254.9 Z" fill="#000000" fill-rule="nonzero" fill-opacity="1" /><path clip-path="url(#clip980)" d="M1059.68 1264.99 L1063.94 1264.99 L1063.94 1290.92 L1059.68 1290.92 L1059.68 1264.99 M1059.68 1254.9 L1063.94 1254.9 L1063.94 1260.29 L1059.68 1260.29 L1059.68 1254.9 Z" fill="#000000" fill-rule="nonzero" fill-opacity="1" /><path clip-path="url(#clip980)" d="M1077.06 1257.63 L1077.06 1264.99 L1085.84 1264.99 L1085.84 1268.3 L1077.06 1268.3 L1077.06 1282.37 Q1077.06 1285.54 1077.92 1286.45 Q1078.8 1287.35 1081.46 1287.35 L1085.84 1287.35 L1085.84 1290.92 L1081.46 1290.92 Q1076.53 1290.92 1074.65 1289.09 Q1072.78 1287.23 1072.78 1282.37 L1072.78 1268.3 L1069.65 1268.3 L1069.65 1264.99 L1072.78 1264.99 L1072.78 1257.63 L1077.06 1257.63 Z" fill="#000000" fill-rule="nonzero" fill-opacity="1" /><path clip-path="url(#clip980)" d="M1122.66 1285.04 L1127.55 1285.04 L1127.55 1290.92 L1122.66 1290.92 L1122.66 1285.04 M1122.66 1266.4 L1127.55 1266.4 L1127.55 1272.28 L1122.66 1272.28 L1122.66 1266.4 Z" fill="#000000" fill-rule="nonzero" fill-opacity="1" /><path clip-path="url(#clip980)" d="M1136.97 1256.36 L1159.19 1256.36 L1159.19 1258.35 L1146.64 1290.92 L1141.76 1290.92 L1153.57 1260.29 L1136.97 1260.29 L1136.97 1256.36 Z" fill="#000000" fill-rule="nonzero" fill-opacity="1" /><path clip-path="url(#clip980)" d="M1169.12 1286.98 L1176.76 1286.98 L1176.76 1260.61 L1168.45 1262.28 L1168.45 1258.02 L1176.71 1256.36 L1181.39 1256.36 L1181.39 1286.98 L1189.03 1286.98 L1189.03 1290.92 L1169.12 1290.92 L1169.12 1286.98 Z" fill="#000000" fill-rule="nonzero" fill-opacity="1" /><path clip-path="url(#clip980)" d="M1198.47 1285.04 L1203.36 1285.04 L1203.36 1290.92 L1198.47 1290.92 L1198.47 1285.04 Z" fill="#000000" fill-rule="nonzero" fill-opacity="1" /><path clip-path="url(#clip980)" d="M1217.57 1286.98 L1233.89 1286.98 L1233.89 1290.92 L1211.95 1290.92 L1211.95 1286.98 Q1214.61 1284.23 1219.19 1279.6 Q1223.8 1274.94 1224.98 1273.6 Q1227.22 1271.08 1228.1 1269.34 Q1229.01 1267.58 1229.01 1265.89 Q1229.01 1263.14 1227.06 1261.4 Q1225.14 1259.67 1222.04 1259.67 Q1219.84 1259.67 1217.39 1260.43 Q1214.95 1261.19 1212.18 1262.74 L1212.18 1258.02 Q1215 1256.89 1217.45 1256.31 Q1219.91 1255.73 1221.95 1255.73 Q1227.32 1255.73 1230.51 1258.42 Q1233.7 1261.1 1233.7 1265.59 Q1233.7 1267.72 1232.89 1269.64 Q1232.11 1271.54 1230 1274.13 Q1229.42 1274.8 1226.32 1278.02 Q1223.22 1281.22 1217.57 1286.98 Z" fill="#000000" fill-rule="nonzero" fill-opacity="1" /><path clip-path="url(#clip980)" d="M1256.55 1260.43 L1244.75 1278.88 L1256.55 1278.88 L1256.55 1260.43 M1255.32 1256.36 L1261.2 1256.36 L1261.2 1278.88 L1266.13 1278.88 L1266.13 1282.77 L1261.2 1282.77 L1261.2 1290.92 L1256.55 1290.92 L1256.55 1282.77 L1240.95 1282.77 L1240.95 1278.25 L1255.32 1256.36 Z" fill="#000000" fill-rule="nonzero" fill-opacity="1" /><path clip-path="url(#clip980)" d="M1303.26 1275.71 Q1301.25 1275.71 1300.09 1277.42 Q1298.96 1279.13 1298.96 1282.19 Q1298.96 1285.2 1300.09 1286.93 Q1301.25 1288.65 1303.26 1288.65 Q1305.23 1288.65 1306.37 1286.93 Q1307.52 1285.2 1307.52 1282.19 Q1307.52 1279.16 1306.37 1277.44 Q1305.23 1275.71 1303.26 1275.71 M1303.26 1272.77 Q1306.92 1272.77 1309.07 1275.31 Q1311.23 1277.86 1311.23 1282.19 Q1311.23 1286.52 1309.05 1289.06 Q1306.9 1291.59 1303.26 1291.59 Q1299.56 1291.59 1297.41 1289.06 Q1295.26 1286.52 1295.26 1282.19 Q1295.26 1277.84 1297.41 1275.31 Q1299.58 1272.77 1303.26 1272.77 M1279.38 1258.67 Q1277.38 1258.67 1276.23 1260.41 Q1275.09 1262.12 1275.09 1265.13 Q1275.09 1268.18 1276.23 1269.9 Q1277.36 1271.61 1279.38 1271.61 Q1281.39 1271.61 1282.52 1269.9 Q1283.68 1268.18 1283.68 1265.13 Q1283.68 1262.14 1282.52 1260.41 Q1281.37 1258.67 1279.38 1258.67 M1300.28 1255.73 L1303.98 1255.73 L1282.36 1291.59 L1278.66 1291.59 L1300.28 1255.73 M1279.38 1255.73 Q1283.03 1255.73 1285.21 1258.28 Q1287.38 1260.8 1287.38 1265.13 Q1287.38 1269.5 1285.21 1272.03 Q1283.06 1274.55 1279.38 1274.55 Q1275.7 1274.55 1273.54 1272.03 Q1271.41 1269.48 1271.41 1265.13 Q1271.41 1260.82 1273.57 1258.28 Q1275.72 1255.73 1279.38 1255.73 Z" fill="#000000" fill-rule="nonzero" fill-opacity="1" /><polyline clip-path="url(#clip980)" style="stroke:#3da44d; stroke-linecap:round; stroke-linejoin:round; stroke-width:4; stroke-opacity:1; fill:none" points="349.167,1325.48 488.953,1325.48 "/>
<path clip-path="url(#clip980)" d="M516.926 1312.04 L516.926 1325.02 L522.806 1325.02 Q526.07 1325.02 527.852 1323.33 Q529.634 1321.64 529.634 1318.52 Q529.634 1315.42 527.852 1313.73 Q526.07 1312.04 522.806 1312.04 L516.926 1312.04 M512.25 1308.2 L522.806 1308.2 Q528.616 1308.2 531.579 1310.83 Q534.565 1313.45 534.565 1318.52 Q534.565 1323.64 531.579 1326.25 Q528.616 1328.87 522.806 1328.87 L516.926 1328.87 L516.926 1342.76 L512.25 1342.76 L512.25 1308.2 Z" fill="#000000" fill-rule="nonzero" fill-opacity="1" /><path clip-path="url(#clip980)" d="M554.843 1320.81 Q554.125 1320.39 553.268 1320.21 Q552.435 1320 551.417 1320 Q547.806 1320 545.861 1322.36 Q543.94 1324.7 543.94 1329.1 L543.94 1342.76 L539.657 1342.76 L539.657 1316.83 L543.94 1316.83 L543.94 1320.86 Q545.282 1318.5 547.435 1317.36 Q549.588 1316.2 552.667 1316.2 Q553.106 1316.2 553.639 1316.27 Q554.171 1316.32 554.819 1316.44 L554.843 1320.81 Z" fill="#000000" fill-rule="nonzero" fill-opacity="1" /><path clip-path="url(#clip980)" d="M580.444 1328.73 L580.444 1330.81 L560.861 1330.81 Q561.139 1335.21 563.5 1337.52 Q565.884 1339.82 570.12 1339.82 Q572.574 1339.82 574.866 1339.21 Q577.18 1338.61 579.449 1337.41 L579.449 1341.44 Q577.157 1342.41 574.75 1342.92 Q572.342 1343.43 569.866 1343.43 Q563.662 1343.43 560.028 1339.82 Q556.417 1336.2 556.417 1330.05 Q556.417 1323.68 559.842 1319.95 Q563.292 1316.2 569.125 1316.2 Q574.356 1316.2 577.389 1319.58 Q580.444 1322.94 580.444 1328.73 M576.185 1327.48 Q576.139 1323.98 574.217 1321.9 Q572.319 1319.82 569.171 1319.82 Q565.606 1319.82 563.454 1321.83 Q561.324 1323.84 561 1327.5 L576.185 1327.48 Z" fill="#000000" fill-rule="nonzero" fill-opacity="1" /><path clip-path="url(#clip980)" d="M604.495 1320.76 L604.495 1306.74 L608.754 1306.74 L608.754 1342.76 L604.495 1342.76 L604.495 1338.87 Q603.152 1341.18 601.092 1342.32 Q599.055 1343.43 596.185 1343.43 Q591.486 1343.43 588.523 1339.68 Q585.583 1335.93 585.583 1329.82 Q585.583 1323.7 588.523 1319.95 Q591.486 1316.2 596.185 1316.2 Q599.055 1316.2 601.092 1317.34 Q603.152 1318.45 604.495 1320.76 M589.981 1329.82 Q589.981 1334.51 591.902 1337.2 Q593.847 1339.86 597.227 1339.86 Q600.606 1339.86 602.551 1337.2 Q604.495 1334.51 604.495 1329.82 Q604.495 1325.12 602.551 1322.45 Q600.606 1319.77 597.227 1319.77 Q593.847 1319.77 591.902 1322.45 Q589.981 1325.12 589.981 1329.82 Z" fill="#000000" fill-rule="nonzero" fill-opacity="1" /><path clip-path="url(#clip980)" d="M617.527 1316.83 L621.787 1316.83 L621.787 1342.76 L617.527 1342.76 L617.527 1316.83 M617.527 1306.74 L621.787 1306.74 L621.787 1312.13 L617.527 1312.13 L617.527 1306.74 Z" fill="#000000" fill-rule="nonzero" fill-opacity="1" /><path clip-path="url(#clip980)" d="M649.356 1317.82 L649.356 1321.81 Q647.55 1320.81 645.722 1320.32 Q643.916 1319.82 642.064 1319.82 Q637.921 1319.82 635.629 1322.45 Q633.337 1325.07 633.337 1329.82 Q633.337 1334.56 635.629 1337.2 Q637.921 1339.82 642.064 1339.82 Q643.916 1339.82 645.722 1339.33 Q647.55 1338.82 649.356 1337.82 L649.356 1341.76 Q647.573 1342.59 645.652 1343.01 Q643.754 1343.43 641.601 1343.43 Q635.745 1343.43 632.296 1339.75 Q628.847 1336.07 628.847 1329.82 Q628.847 1323.47 632.319 1319.84 Q635.814 1316.2 641.879 1316.2 Q643.847 1316.2 645.722 1316.62 Q647.597 1317.01 649.356 1317.82 Z" fill="#000000" fill-rule="nonzero" fill-opacity="1" /><path clip-path="url(#clip980)" d="M660.976 1309.47 L660.976 1316.83 L669.749 1316.83 L669.749 1320.14 L660.976 1320.14 L660.976 1334.21 Q660.976 1337.38 661.833 1338.29 Q662.712 1339.19 665.374 1339.19 L669.749 1339.19 L669.749 1342.76 L665.374 1342.76 Q660.444 1342.76 658.569 1340.93 Q656.694 1339.07 656.694 1334.21 L656.694 1320.14 L653.569 1320.14 L653.569 1316.83 L656.694 1316.83 L656.694 1309.47 L660.976 1309.47 Z" fill="#000000" fill-rule="nonzero" fill-opacity="1" /><path clip-path="url(#clip980)" d="M675.351 1316.83 L679.61 1316.83 L679.61 1342.76 L675.351 1342.76 L675.351 1316.83 M675.351 1306.74 L679.61 1306.74 L679.61 1312.13 L675.351 1312.13 L675.351 1306.74 Z" fill="#000000" fill-rule="nonzero" fill-opacity="1" /><path clip-path="url(#clip980)" d="M698.569 1319.82 Q695.143 1319.82 693.152 1322.5 Q691.161 1325.16 691.161 1329.82 Q691.161 1334.47 693.129 1337.15 Q695.12 1339.82 698.569 1339.82 Q701.971 1339.82 703.962 1337.13 Q705.953 1334.45 705.953 1329.82 Q705.953 1325.21 703.962 1322.52 Q701.971 1319.82 698.569 1319.82 M698.569 1316.2 Q704.124 1316.2 707.295 1319.82 Q710.467 1323.43 710.467 1329.82 Q710.467 1336.18 707.295 1339.82 Q704.124 1343.43 698.569 1343.43 Q692.99 1343.43 689.819 1339.82 Q686.671 1336.18 686.671 1329.82 Q686.671 1323.43 689.819 1319.82 Q692.99 1316.2 698.569 1316.2 Z" fill="#000000" fill-rule="nonzero" fill-opacity="1" /><path clip-path="url(#clip980)" d="M739.078 1327.11 L739.078 1342.76 L734.818 1342.76 L734.818 1327.25 Q734.818 1323.57 733.383 1321.74 Q731.948 1319.91 729.078 1319.91 Q725.629 1319.91 723.638 1322.11 Q721.647 1324.31 721.647 1328.1 L721.647 1342.76 L717.365 1342.76 L717.365 1316.83 L721.647 1316.83 L721.647 1320.86 Q723.175 1318.52 725.235 1317.36 Q727.318 1316.2 730.027 1316.2 Q734.494 1316.2 736.786 1318.98 Q739.078 1321.74 739.078 1327.11 Z" fill="#000000" fill-rule="nonzero" fill-opacity="1" /><path clip-path="url(#clip980)" d="M782.827 1321.81 Q784.425 1318.94 786.647 1317.57 Q788.869 1316.2 791.878 1316.2 Q795.929 1316.2 798.128 1319.05 Q800.327 1321.88 800.327 1327.11 L800.327 1342.76 L796.045 1342.76 L796.045 1327.25 Q796.045 1323.52 794.725 1321.71 Q793.406 1319.91 790.698 1319.91 Q787.388 1319.91 785.466 1322.11 Q783.545 1324.31 783.545 1328.1 L783.545 1342.76 L779.263 1342.76 L779.263 1327.25 Q779.263 1323.5 777.943 1321.71 Q776.624 1319.91 773.869 1319.91 Q770.605 1319.91 768.684 1322.13 Q766.763 1324.33 766.763 1328.1 L766.763 1342.76 L762.48 1342.76 L762.48 1316.83 L766.763 1316.83 L766.763 1320.86 Q768.221 1318.47 770.258 1317.34 Q772.295 1316.2 775.096 1316.2 Q777.92 1316.2 779.888 1317.64 Q781.878 1319.07 782.827 1321.81 Z" fill="#000000" fill-rule="nonzero" fill-opacity="1" /><path clip-path="url(#clip980)" d="M818.869 1319.82 Q815.443 1319.82 813.452 1322.5 Q811.461 1325.16 811.461 1329.82 Q811.461 1334.47 813.429 1337.15 Q815.42 1339.82 818.869 1339.82 Q822.272 1339.82 824.262 1337.13 Q826.253 1334.45 826.253 1329.82 Q826.253 1325.21 824.262 1322.52 Q822.272 1319.82 818.869 1319.82 M818.869 1316.2 Q824.424 1316.2 827.596 1319.82 Q830.767 1323.43 830.767 1329.82 Q830.767 1336.18 827.596 1339.82 Q824.424 1343.43 818.869 1343.43 Q813.29 1343.43 810.119 1339.82 Q806.971 1336.18 806.971 1329.82 Q806.971 1323.43 810.119 1319.82 Q813.29 1316.2 818.869 1316.2 Z" fill="#000000" fill-rule="nonzero" fill-opacity="1" /><path clip-path="url(#clip980)" d="M854.887 1320.76 L854.887 1306.74 L859.146 1306.74 L859.146 1342.76 L854.887 1342.76 L854.887 1338.87 Q853.545 1341.18 851.484 1342.32 Q849.447 1343.43 846.577 1343.43 Q841.878 1343.43 838.915 1339.68 Q835.975 1335.93 835.975 1329.82 Q835.975 1323.7 838.915 1319.95 Q841.878 1316.2 846.577 1316.2 Q849.447 1316.2 851.484 1317.34 Q853.545 1318.45 854.887 1320.76 M840.373 1329.82 Q840.373 1334.51 842.295 1337.2 Q844.239 1339.86 847.619 1339.86 Q850.998 1339.86 852.943 1337.2 Q854.887 1334.51 854.887 1329.82 Q854.887 1325.12 852.943 1322.45 Q850.998 1319.77 847.619 1319.77 Q844.239 1319.77 842.295 1322.45 Q840.373 1325.12 840.373 1329.82 Z" fill="#000000" fill-rule="nonzero" fill-opacity="1" /><path clip-path="url(#clip980)" d="M890.095 1328.73 L890.095 1330.81 L870.512 1330.81 Q870.79 1335.21 873.151 1337.52 Q875.535 1339.82 879.771 1339.82 Q882.225 1339.82 884.517 1339.21 Q886.831 1338.61 889.1 1337.41 L889.1 1341.44 Q886.808 1342.41 884.401 1342.92 Q881.994 1343.43 879.517 1343.43 Q873.313 1343.43 869.679 1339.82 Q866.068 1336.2 866.068 1330.05 Q866.068 1323.68 869.494 1319.95 Q872.943 1316.2 878.776 1316.2 Q884.007 1316.2 887.04 1319.58 Q890.095 1322.94 890.095 1328.73 M885.836 1327.48 Q885.79 1323.98 883.869 1321.9 Q881.97 1319.82 878.822 1319.82 Q875.257 1319.82 873.105 1321.83 Q870.975 1323.84 870.651 1327.5 L885.836 1327.48 Z" fill="#000000" fill-rule="nonzero" fill-opacity="1" /><path clip-path="url(#clip980)" d="M897.086 1306.74 L901.345 1306.74 L901.345 1342.76 L897.086 1342.76 L897.086 1306.74 Z" fill="#000000" fill-rule="nonzero" fill-opacity="1" /><path clip-path="url(#clip980)" d="M941.854 1317.59 L941.854 1321.62 Q940.049 1320.7 938.104 1320.23 Q936.16 1319.77 934.077 1319.77 Q930.905 1319.77 929.308 1320.74 Q927.734 1321.71 927.734 1323.66 Q927.734 1325.14 928.868 1326 Q930.003 1326.83 933.428 1327.59 L934.887 1327.92 Q939.424 1328.89 941.322 1330.67 Q943.243 1332.43 943.243 1335.6 Q943.243 1339.21 940.373 1341.32 Q937.526 1343.43 932.526 1343.43 Q930.442 1343.43 928.174 1343.01 Q925.928 1342.62 923.428 1341.81 L923.428 1337.41 Q925.79 1338.63 928.081 1339.26 Q930.373 1339.86 932.618 1339.86 Q935.627 1339.86 937.248 1338.84 Q938.868 1337.8 938.868 1335.93 Q938.868 1334.19 937.688 1333.26 Q936.53 1332.34 932.572 1331.48 L931.09 1331.14 Q927.132 1330.3 925.373 1328.59 Q923.614 1326.85 923.614 1323.84 Q923.614 1320.19 926.206 1318.2 Q928.799 1316.2 933.567 1316.2 Q935.928 1316.2 938.012 1316.55 Q940.095 1316.9 941.854 1317.59 Z" fill="#000000" fill-rule="nonzero" fill-opacity="1" /><path clip-path="url(#clip980)" d="M950.026 1316.83 L954.285 1316.83 L954.285 1342.76 L950.026 1342.76 L950.026 1316.83 M950.026 1306.74 L954.285 1306.74 L954.285 1312.13 L950.026 1312.13 L950.026 1306.74 Z" fill="#000000" fill-rule="nonzero" fill-opacity="1" /><path clip-path="url(#clip980)" d="M983.382 1321.81 Q984.979 1318.94 987.201 1317.57 Q989.424 1316.2 992.433 1316.2 Q996.484 1316.2 998.683 1319.05 Q1000.88 1321.88 1000.88 1327.11 L1000.88 1342.76 L996.599 1342.76 L996.599 1327.25 Q996.599 1323.52 995.28 1321.71 Q993.961 1319.91 991.252 1319.91 Q987.942 1319.91 986.021 1322.11 Q984.099 1324.31 984.099 1328.1 L984.099 1342.76 L979.817 1342.76 L979.817 1327.25 Q979.817 1323.5 978.498 1321.71 Q977.178 1319.91 974.424 1319.91 Q971.16 1319.91 969.238 1322.13 Q967.317 1324.33 967.317 1328.1 L967.317 1342.76 L963.035 1342.76 L963.035 1316.83 L967.317 1316.83 L967.317 1320.86 Q968.775 1318.47 970.812 1317.34 Q972.85 1316.2 975.65 1316.2 Q978.474 1316.2 980.442 1317.64 Q982.433 1319.07 983.382 1321.81 Z" fill="#000000" fill-rule="nonzero" fill-opacity="1" /><path clip-path="url(#clip980)" d="M1037.57 1306.74 L1037.57 1310.28 L1033.5 1310.28 Q1031.21 1310.28 1030.3 1311.2 Q1029.42 1312.13 1029.42 1314.54 L1029.42 1316.83 L1036.44 1316.83 L1036.44 1320.14 L1029.42 1320.14 L1029.42 1342.76 L1025.14 1342.76 L1025.14 1320.14 L1021.07 1320.14 L1021.07 1316.83 L1025.14 1316.83 L1025.14 1315.02 Q1025.14 1310.7 1027.15 1308.73 Q1029.17 1306.74 1033.54 1306.74 L1037.57 1306.74 Z" fill="#000000" fill-rule="nonzero" fill-opacity="1" /><path clip-path="url(#clip980)" d="M1041.14 1316.83 L1045.4 1316.83 L1045.4 1342.76 L1041.14 1342.76 L1041.14 1316.83 M1041.14 1306.74 L1045.4 1306.74 L1045.4 1312.13 L1041.14 1312.13 L1041.14 1306.74 Z" fill="#000000" fill-rule="nonzero" fill-opacity="1" /><path clip-path="url(#clip980)" d="M1058.52 1309.47 L1058.52 1316.83 L1067.29 1316.83 L1067.29 1320.14 L1058.52 1320.14 L1058.52 1334.21 Q1058.52 1337.38 1059.38 1338.29 Q1060.26 1339.19 1062.92 1339.19 L1067.29 1339.19 L1067.29 1342.76 L1062.92 1342.76 Q1057.99 1342.76 1056.11 1340.93 Q1054.24 1339.07 1054.24 1334.21 L1054.24 1320.14 L1051.11 1320.14 L1051.11 1316.83 L1054.24 1316.83 L1054.24 1309.47 L1058.52 1309.47 Z" fill="#000000" fill-rule="nonzero" fill-opacity="1" /><path clip-path="url(#clip980)" d="M1104.12 1336.88 L1109.01 1336.88 L1109.01 1342.76 L1104.12 1342.76 L1104.12 1336.88 M1104.12 1318.24 L1109.01 1318.24 L1109.01 1324.12 L1104.12 1324.12 L1104.12 1318.24 Z" fill="#000000" fill-rule="nonzero" fill-opacity="1" /><path clip-path="url(#clip980)" d="M1130.19 1323.61 Q1127.04 1323.61 1125.19 1325.76 Q1123.36 1327.92 1123.36 1331.67 Q1123.36 1335.39 1125.19 1337.57 Q1127.04 1339.72 1130.19 1339.72 Q1133.33 1339.72 1135.16 1337.57 Q1137.02 1335.39 1137.02 1331.67 Q1137.02 1327.92 1135.16 1325.76 Q1133.33 1323.61 1130.19 1323.61 M1139.47 1308.96 L1139.47 1313.22 Q1137.71 1312.39 1135.9 1311.95 Q1134.12 1311.51 1132.36 1311.51 Q1127.73 1311.51 1125.28 1314.63 Q1122.85 1317.76 1122.5 1324.07 Q1123.87 1322.06 1125.93 1321 Q1127.99 1319.91 1130.46 1319.91 Q1135.67 1319.91 1138.68 1323.08 Q1141.71 1326.23 1141.71 1331.67 Q1141.71 1336.99 1138.57 1340.21 Q1135.42 1343.43 1130.19 1343.43 Q1124.19 1343.43 1121.02 1338.84 Q1117.85 1334.24 1117.85 1325.51 Q1117.85 1317.32 1121.74 1312.45 Q1125.63 1307.57 1132.18 1307.57 Q1133.94 1307.57 1135.72 1307.92 Q1137.52 1308.26 1139.47 1308.96 Z" fill="#000000" fill-rule="nonzero" fill-opacity="1" /><path clip-path="url(#clip980)" d="M1149.91 1342.04 L1149.91 1337.78 Q1151.67 1338.61 1153.47 1339.05 Q1155.28 1339.49 1157.02 1339.49 Q1161.64 1339.49 1164.08 1336.39 Q1166.53 1333.26 1166.88 1326.92 Q1165.53 1328.91 1163.47 1329.98 Q1161.41 1331.04 1158.91 1331.04 Q1153.73 1331.04 1150.7 1327.92 Q1147.69 1324.77 1147.69 1319.33 Q1147.69 1314.01 1150.83 1310.79 Q1153.98 1307.57 1159.21 1307.57 Q1165.21 1307.57 1168.36 1312.18 Q1171.53 1316.76 1171.53 1325.51 Q1171.53 1333.68 1167.64 1338.57 Q1163.77 1343.43 1157.22 1343.43 Q1155.46 1343.43 1153.66 1343.08 Q1151.85 1342.73 1149.91 1342.04 M1159.21 1327.39 Q1162.36 1327.39 1164.19 1325.23 Q1166.04 1323.08 1166.04 1319.33 Q1166.04 1315.6 1164.19 1313.45 Q1162.36 1311.27 1159.21 1311.27 Q1156.07 1311.27 1154.21 1313.45 Q1152.39 1315.6 1152.39 1319.33 Q1152.39 1323.08 1154.21 1325.23 Q1156.07 1327.39 1159.21 1327.39 Z" fill="#000000" fill-rule="nonzero" fill-opacity="1" /><path clip-path="url(#clip980)" d="M1179.93 1336.88 L1184.82 1336.88 L1184.82 1342.76 L1179.93 1342.76 L1179.93 1336.88 Z" fill="#000000" fill-rule="nonzero" fill-opacity="1" /><path clip-path="url(#clip980)" d="M1205 1311.27 Q1201.39 1311.27 1199.56 1314.84 Q1197.76 1318.38 1197.76 1325.51 Q1197.76 1332.62 1199.56 1336.18 Q1201.39 1339.72 1205 1339.72 Q1208.64 1339.72 1210.44 1336.18 Q1212.27 1332.62 1212.27 1325.51 Q1212.27 1318.38 1210.44 1314.84 Q1208.64 1311.27 1205 1311.27 M1205 1307.57 Q1210.81 1307.57 1213.87 1312.18 Q1216.95 1316.76 1216.95 1325.51 Q1216.95 1334.24 1213.87 1338.84 Q1210.81 1343.43 1205 1343.43 Q1199.19 1343.43 1196.11 1338.84 Q1193.06 1334.24 1193.06 1325.51 Q1193.06 1316.76 1196.11 1312.18 Q1199.19 1307.57 1205 1307.57 Z" fill="#000000" fill-rule="nonzero" fill-opacity="1" /><path clip-path="url(#clip980)" d="M1225.21 1308.2 L1243.57 1308.2 L1243.57 1312.13 L1229.49 1312.13 L1229.49 1320.6 Q1230.51 1320.26 1231.53 1320.09 Q1232.55 1319.91 1233.57 1319.91 Q1239.35 1319.91 1242.73 1323.08 Q1246.11 1326.25 1246.11 1331.67 Q1246.11 1337.25 1242.64 1340.35 Q1239.17 1343.43 1232.85 1343.43 Q1230.67 1343.43 1228.4 1343.06 Q1226.16 1342.69 1223.75 1341.95 L1223.75 1337.25 Q1225.83 1338.38 1228.06 1338.94 Q1230.28 1339.49 1232.76 1339.49 Q1236.76 1339.49 1239.1 1337.38 Q1241.44 1335.28 1241.44 1331.67 Q1241.44 1328.06 1239.1 1325.95 Q1236.76 1323.84 1232.76 1323.84 Q1230.88 1323.84 1229.01 1324.26 Q1227.15 1324.68 1225.21 1325.56 L1225.21 1308.2 Z" fill="#000000" fill-rule="nonzero" fill-opacity="1" /><path clip-path="url(#clip980)" d="M1284.72 1327.55 Q1282.71 1327.55 1281.55 1329.26 Q1280.42 1330.97 1280.42 1334.03 Q1280.42 1337.04 1281.55 1338.77 Q1282.71 1340.49 1284.72 1340.49 Q1286.69 1340.49 1287.82 1338.77 Q1288.98 1337.04 1288.98 1334.03 Q1288.98 1331 1287.82 1329.28 Q1286.69 1327.55 1284.72 1327.55 M1284.72 1324.61 Q1288.38 1324.61 1290.53 1327.15 Q1292.69 1329.7 1292.69 1334.03 Q1292.69 1338.36 1290.51 1340.9 Q1288.36 1343.43 1284.72 1343.43 Q1281.02 1343.43 1278.87 1340.9 Q1276.71 1338.36 1276.71 1334.03 Q1276.71 1329.68 1278.87 1327.15 Q1281.04 1324.61 1284.72 1324.61 M1260.83 1310.51 Q1258.84 1310.51 1257.69 1312.25 Q1256.55 1313.96 1256.55 1316.97 Q1256.55 1320.02 1257.69 1321.74 Q1258.82 1323.45 1260.83 1323.45 Q1262.85 1323.45 1263.98 1321.74 Q1265.14 1320.02 1265.14 1316.97 Q1265.14 1313.98 1263.98 1312.25 Q1262.82 1310.51 1260.83 1310.51 M1281.74 1307.57 L1285.44 1307.57 L1263.82 1343.43 L1260.12 1343.43 L1281.74 1307.57 M1260.83 1307.57 Q1264.49 1307.57 1266.67 1310.12 Q1268.84 1312.64 1268.84 1316.97 Q1268.84 1321.34 1266.67 1323.87 Q1264.51 1326.39 1260.83 1326.39 Q1257.15 1326.39 1255 1323.87 Q1252.87 1321.32 1252.87 1316.97 Q1252.87 1312.66 1255.02 1310.12 Q1257.18 1307.57 1260.83 1307.57 Z" fill="#000000" fill-rule="nonzero" fill-opacity="1" /></svg>
