<?xml version="1.0" encoding="utf-8"?>
<svg xmlns="http://www.w3.org/2000/svg" xmlns:xlink="http://www.w3.org/1999/xlink" width="600" height="400" viewBox="0 0 2400 1600">
<defs>
  <clipPath id="clip920">
    <rect x="0" y="0" width="2400" height="1600"/>
  </clipPath>
</defs>
<path clip-path="url(#clip920)" d="M0 1600 L2400 1600 L2400 0 L0 0  Z" fill="#ffffff" fill-rule="evenodd" fill-opacity="1"/>
<defs>
  <clipPath id="clip921">
    <rect x="255" y="47" width="2098" height="1377"/>
  </clipPath>
</defs>
<path clip-path="url(#clip920)" d="M255.977 1423.18 L2352.76 1423.18 L2352.76 47.2441 L255.977 47.2441  Z" fill="#ffffff" fill-rule="evenodd" fill-opacity="1"/>
<polyline clip-path="url(#clip921)" style="stroke:#000000; stroke-linecap:round; stroke-linejoin:round; stroke-width:2; stroke-opacity:0.1; fill:none" points="315.32,1423.18 315.32,47.2441 "/>
<polyline clip-path="url(#clip921)" style="stroke:#000000; stroke-linecap:round; stroke-linejoin:round; stroke-width:2; stroke-opacity:0.1; fill:none" points="711.731,1423.18 711.731,47.2441 "/>
<polyline clip-path="url(#clip921)" style="stroke:#000000; stroke-linecap:round; stroke-linejoin:round; stroke-width:2; stroke-opacity:0.1; fill:none" points="1108.14,1423.18 1108.14,47.2441 "/>
<polyline clip-path="url(#clip921)" style="stroke:#000000; stroke-linecap:round; stroke-linejoin:round; stroke-width:2; stroke-opacity:0.1; fill:none" points="1504.55,1423.18 1504.55,47.2441 "/>
<polyline clip-path="url(#clip921)" style="stroke:#000000; stroke-linecap:round; stroke-linejoin:round; stroke-width:2; stroke-opacity:0.1; fill:none" points="1900.97,1423.18 1900.97,47.2441 "/>
<polyline clip-path="url(#clip921)" style="stroke:#000000; stroke-linecap:round; stroke-linejoin:round; stroke-width:2; stroke-opacity:0.1; fill:none" points="2297.38,1423.18 2297.38,47.2441 "/>
<polyline clip-path="url(#clip921)" style="stroke:#000000; stroke-linecap:round; stroke-linejoin:round; stroke-width:2; stroke-opacity:0.1; fill:none" points="255.977,1416.94 2352.76,1416.94 "/>
<polyline clip-path="url(#clip921)" style="stroke:#000000; stroke-linecap:round; stroke-linejoin:round; stroke-width:2; stroke-opacity:0.1; fill:none" points="255.977,1024.44 2352.76,1024.44 "/>
<polyline clip-path="url(#clip921)" style="stroke:#000000; stroke-linecap:round; stroke-linejoin:round; stroke-width:2; stroke-opacity:0.1; fill:none" points="255.977,631.945 2352.76,631.945 "/>
<polyline clip-path="url(#clip921)" style="stroke:#000000; stroke-linecap:round; stroke-linejoin:round; stroke-width:2; stroke-opacity:0.1; fill:none" points="255.977,239.448 2352.76,239.448 "/>
<polyline clip-path="url(#clip920)" style="stroke:#000000; stroke-linecap:round; stroke-linejoin:round; stroke-width:4; stroke-opacity:1; fill:none" points="255.977,1423.18 2352.76,1423.18 "/>
<polyline clip-path="url(#clip920)" style="stroke:#000000; stroke-linecap:round; stroke-linejoin:round; stroke-width:4; stroke-opacity:1; fill:none" points="315.32,1423.18 315.32,1404.28 "/>
<polyline clip-path="url(#clip920)" style="stroke:#000000; stroke-linecap:round; stroke-linejoin:round; stroke-width:4; stroke-opacity:1; fill:none" points="711.731,1423.18 711.731,1404.28 "/>
<polyline clip-path="url(#clip920)" style="stroke:#000000; stroke-linecap:round; stroke-linejoin:round; stroke-width:4; stroke-opacity:1; fill:none" points="1108.14,1423.18 1108.14,1404.28 "/>
<polyline clip-path="url(#clip920)" style="stroke:#000000; stroke-linecap:round; stroke-linejoin:round; stroke-width:4; stroke-opacity:1; fill:none" points="1504.55,1423.18 1504.55,1404.28 "/>
<polyline clip-path="url(#clip920)" style="stroke:#000000; stroke-linecap:round; stroke-linejoin:round; stroke-width:4; stroke-opacity:1; fill:none" points="1900.97,1423.18 1900.97,1404.28 "/>
<polyline clip-path="url(#clip920)" style="stroke:#000000; stroke-linecap:round; stroke-linejoin:round; stroke-width:4; stroke-opacity:1; fill:none" points="2297.38,1423.18 2297.38,1404.28 "/>
<path clip-path="url(#clip920)" d="M315.32 1454.1 Q311.709 1454.1 309.88 1457.66 Q308.075 1461.2 308.075 1468.33 Q308.075 1475.44 309.88 1479.01 Q311.709 1482.55 315.32 1482.55 Q318.954 1482.55 320.76 1479.01 Q322.588 1475.44 322.588 1468.33 Q322.588 1461.2 320.76 1457.66 Q318.954 1454.1 315.32 1454.1 M315.32 1450.39 Q321.13 1450.39 324.186 1455 Q327.264 1459.58 327.264 1468.33 Q327.264 1477.06 324.186 1481.67 Q321.13 1486.25 315.32 1486.25 Q309.51 1486.25 306.431 1481.67 Q303.376 1477.06 303.376 1468.33 Q303.376 1459.58 306.431 1455 Q309.51 1450.39 315.32 1450.39 Z" fill="#000000" fill-rule="nonzero" fill-opacity="1" /><path clip-path="url(#clip920)" d="M702.113 1481.64 L709.752 1481.64 L709.752 1455.28 L701.442 1456.95 L701.442 1452.69 L709.706 1451.02 L714.382 1451.02 L714.382 1481.64 L722.021 1481.64 L722.021 1485.58 L702.113 1485.58 L702.113 1481.64 Z" fill="#000000" fill-rule="nonzero" fill-opacity="1" /><path clip-path="url(#clip920)" d="M1102.8 1481.64 L1119.12 1481.64 L1119.12 1485.58 L1097.17 1485.58 L1097.17 1481.64 Q1099.83 1478.89 1104.42 1474.26 Q1109.02 1469.61 1110.2 1468.27 Q1112.45 1465.74 1113.33 1464.01 Q1114.23 1462.25 1114.23 1460.56 Q1114.23 1457.8 1112.29 1456.07 Q1110.37 1454.33 1107.26 1454.33 Q1105.06 1454.33 1102.61 1455.09 Q1100.18 1455.86 1097.4 1457.41 L1097.4 1452.69 Q1100.23 1451.55 1102.68 1450.97 Q1105.13 1450.39 1107.17 1450.39 Q1112.54 1450.39 1115.74 1453.08 Q1118.93 1455.77 1118.93 1460.26 Q1118.93 1462.39 1118.12 1464.31 Q1117.33 1466.2 1115.23 1468.8 Q1114.65 1469.47 1111.55 1472.69 Q1108.44 1475.88 1102.8 1481.64 Z" fill="#000000" fill-rule="nonzero" fill-opacity="1" /><path clip-path="url(#clip920)" d="M1508.8 1466.95 Q1512.16 1467.66 1514.03 1469.93 Q1515.93 1472.2 1515.93 1475.53 Q1515.93 1480.65 1512.41 1483.45 Q1508.89 1486.25 1502.41 1486.25 Q1500.24 1486.25 1497.92 1485.81 Q1495.63 1485.39 1493.18 1484.54 L1493.18 1480.02 Q1495.12 1481.16 1497.44 1481.74 Q1499.75 1482.32 1502.27 1482.32 Q1506.67 1482.32 1508.96 1480.58 Q1511.28 1478.84 1511.28 1475.53 Q1511.28 1472.48 1509.13 1470.77 Q1507 1469.03 1503.18 1469.03 L1499.15 1469.03 L1499.15 1465.19 L1503.36 1465.19 Q1506.81 1465.19 1508.64 1463.82 Q1510.47 1462.43 1510.47 1459.84 Q1510.47 1457.18 1508.57 1455.77 Q1506.7 1454.33 1503.18 1454.33 Q1501.26 1454.33 1499.06 1454.75 Q1496.86 1455.16 1494.22 1456.04 L1494.22 1451.88 Q1496.88 1451.14 1499.2 1450.77 Q1501.53 1450.39 1503.59 1450.39 Q1508.92 1450.39 1512.02 1452.83 Q1515.12 1455.23 1515.12 1459.35 Q1515.12 1462.22 1513.48 1464.21 Q1511.83 1466.18 1508.8 1466.95 Z" fill="#000000" fill-rule="nonzero" fill-opacity="1" /><path clip-path="url(#clip920)" d="M1903.98 1455.09 L1892.17 1473.54 L1903.98 1473.54 L1903.98 1455.09 M1902.75 1451.02 L1908.63 1451.02 L1908.63 1473.54 L1913.56 1473.54 L1913.56 1477.43 L1908.63 1477.43 L1908.63 1485.58 L1903.98 1485.58 L1903.98 1477.43 L1888.37 1477.43 L1888.37 1472.92 L1902.75 1451.02 Z" fill="#000000" fill-rule="nonzero" fill-opacity="1" /><path clip-path="url(#clip920)" d="M2287.66 1451.02 L2306.01 1451.02 L2306.01 1454.96 L2291.94 1454.96 L2291.94 1463.43 Q2292.96 1463.08 2293.97 1462.92 Q2294.99 1462.73 2296.01 1462.73 Q2301.8 1462.73 2305.18 1465.9 Q2308.56 1469.08 2308.56 1474.49 Q2308.56 1480.07 2305.09 1483.17 Q2301.61 1486.25 2295.29 1486.25 Q2293.12 1486.25 2290.85 1485.88 Q2288.6 1485.51 2286.2 1484.77 L2286.2 1480.07 Q2288.28 1481.2 2290.5 1481.76 Q2292.72 1482.32 2295.2 1482.32 Q2299.21 1482.32 2301.54 1480.21 Q2303.88 1478.1 2303.88 1474.49 Q2303.88 1470.88 2301.54 1468.77 Q2299.21 1466.67 2295.2 1466.67 Q2293.33 1466.67 2291.45 1467.08 Q2289.6 1467.5 2287.66 1468.38 L2287.66 1451.02 Z" fill="#000000" fill-rule="nonzero" fill-opacity="1" /><path clip-path="url(#clip920)" d="M1174.54 1520.52 L1214.74 1520.52 L1214.74 1525.93 L1197.87 1525.93 L1197.87 1568.04 L1191.41 1568.04 L1191.41 1525.93 L1174.54 1525.93 L1174.54 1520.52 Z" fill="#000000" fill-rule="nonzero" fill-opacity="1" /><path clip-path="url(#clip920)" d="M1218.68 1532.4 L1224.54 1532.4 L1224.54 1568.04 L1218.68 1568.04 L1218.68 1532.4 M1218.68 1518.52 L1224.54 1518.52 L1224.54 1525.93 L1218.68 1525.93 L1218.68 1518.52 Z" fill="#000000" fill-rule="nonzero" fill-opacity="1" /><path clip-path="url(#clip920)" d="M1264.55 1539.24 Q1266.75 1535.29 1269.8 1533.41 Q1272.86 1531.54 1276.99 1531.54 Q1282.56 1531.54 1285.59 1535.45 Q1288.61 1539.33 1288.61 1546.53 L1288.61 1568.04 L1282.72 1568.04 L1282.72 1546.72 Q1282.72 1541.59 1280.91 1539.11 Q1279.09 1536.63 1275.37 1536.63 Q1270.82 1536.63 1268.18 1539.65 Q1265.54 1542.68 1265.54 1547.9 L1265.54 1568.04 L1259.65 1568.04 L1259.65 1546.72 Q1259.65 1541.56 1257.83 1539.11 Q1256.02 1536.63 1252.23 1536.63 Q1247.74 1536.63 1245.1 1539.68 Q1242.46 1542.71 1242.46 1547.9 L1242.46 1568.04 L1236.57 1568.04 L1236.57 1532.4 L1242.46 1532.4 L1242.46 1537.93 Q1244.47 1534.66 1247.27 1533.1 Q1250.07 1531.54 1253.92 1531.54 Q1257.8 1531.54 1260.51 1533.51 Q1263.24 1535.48 1264.55 1539.24 Z" fill="#000000" fill-rule="nonzero" fill-opacity="1" /><path clip-path="url(#clip920)" d="M1330.78 1548.76 L1330.78 1551.62 L1303.86 1551.62 Q1304.24 1557.67 1307.49 1560.85 Q1310.76 1564 1316.59 1564 Q1319.96 1564 1323.11 1563.17 Q1326.3 1562.35 1329.42 1560.69 L1329.42 1566.23 Q1326.26 1567.57 1322.95 1568.27 Q1319.64 1568.97 1316.24 1568.97 Q1307.71 1568.97 1302.71 1564 Q1297.75 1559.04 1297.75 1550.57 Q1297.75 1541.82 1302.46 1536.69 Q1307.2 1531.54 1315.22 1531.54 Q1322.41 1531.54 1326.58 1536.18 Q1330.78 1540.8 1330.78 1548.76 M1324.93 1547.04 Q1324.86 1542.23 1322.22 1539.37 Q1319.61 1536.5 1315.28 1536.5 Q1310.38 1536.5 1307.42 1539.27 Q1304.49 1542.04 1304.05 1547.07 L1324.93 1547.04 Z" fill="#000000" fill-rule="nonzero" fill-opacity="1" /><path clip-path="url(#clip920)" d="M1360.58 1518.52 L1374.07 1518.52 L1374.07 1523.07 L1366.43 1523.07 L1366.43 1572.09 L1374.07 1572.09 L1374.07 1576.64 L1360.58 1576.64 L1360.58 1518.52 Z" fill="#000000" fill-rule="nonzero" fill-opacity="1" /><path clip-path="url(#clip920)" d="M1409.27 1533.45 L1409.27 1538.98 Q1406.79 1537.71 1404.12 1537.07 Q1401.44 1536.44 1398.58 1536.44 Q1394.22 1536.44 1392.02 1537.77 Q1389.86 1539.11 1389.86 1541.79 Q1389.86 1543.82 1391.42 1545 Q1392.98 1546.15 1397.69 1547.2 L1399.69 1547.64 Q1405.93 1548.98 1408.54 1551.43 Q1411.18 1553.85 1411.18 1558.21 Q1411.18 1563.17 1407.24 1566.07 Q1403.32 1568.97 1396.45 1568.97 Q1393.58 1568.97 1390.46 1568.39 Q1387.38 1567.85 1383.94 1566.74 L1383.94 1560.69 Q1387.18 1562.38 1390.34 1563.24 Q1393.49 1564.07 1396.57 1564.07 Q1400.71 1564.07 1402.94 1562.66 Q1405.17 1561.23 1405.17 1558.65 Q1405.17 1556.27 1403.54 1554.99 Q1401.95 1553.72 1396.51 1552.54 L1394.47 1552.07 Q1389.03 1550.92 1386.61 1548.56 Q1384.19 1546.18 1384.19 1542.04 Q1384.19 1537.01 1387.76 1534.27 Q1391.32 1531.54 1397.88 1531.54 Q1401.13 1531.54 1403.99 1532.01 Q1406.85 1532.49 1409.27 1533.45 Z" fill="#000000" fill-rule="nonzero" fill-opacity="1" /><path clip-path="url(#clip920)" d="M1434.2 1518.52 L1434.2 1576.64 L1420.7 1576.64 L1420.7 1572.09 L1428.31 1572.09 L1428.31 1523.07 L1420.7 1523.07 L1420.7 1518.52 L1434.2 1518.52 Z" fill="#000000" fill-rule="nonzero" fill-opacity="1" /><polyline clip-path="url(#clip920)" style="stroke:#000000; stroke-linecap:round; stroke-linejoin:round; stroke-width:4; stroke-opacity:1; fill:none" points="255.977,1423.18 255.977,47.2441 "/>
<polyline clip-path="url(#clip920)" style="stroke:#000000; stroke-linecap:round; stroke-linejoin:round; stroke-width:4; stroke-opacity:1; fill:none" points="255.977,1416.94 274.875,1416.94 "/>
<polyline clip-path="url(#clip920)" style="stroke:#000000; stroke-linecap:round; stroke-linejoin:round; stroke-width:4; stroke-opacity:1; fill:none" points="255.977,1024.44 274.875,1024.44 "/>
<polyline clip-path="url(#clip920)" style="stroke:#000000; stroke-linecap:round; stroke-linejoin:round; stroke-width:4; stroke-opacity:1; fill:none" points="255.977,631.945 274.875,631.945 "/>
<polyline clip-path="url(#clip920)" style="stroke:#000000; stroke-linecap:round; stroke-linejoin:round; stroke-width:4; stroke-opacity:1; fill:none" points="255.977,239.448 274.875,239.448 "/>
<path clip-path="url(#clip920)" d="M114.631 1417.39 L144.306 1417.39 L144.306 1421.33 L114.631 1421.33 L114.631 1417.39 Z" fill="#000000" fill-rule="nonzero" fill-opacity="1" /><path clip-path="url(#clip920)" d="M164.399 1402.74 Q160.788 1402.74 158.959 1406.3 Q157.153 1409.84 157.153 1416.97 Q157.153 1424.08 158.959 1427.65 Q160.788 1431.19 164.399 1431.19 Q168.033 1431.19 169.839 1427.65 Q171.667 1424.08 171.667 1416.97 Q171.667 1409.84 169.839 1406.3 Q168.033 1402.74 164.399 1402.74 M164.399 1399.03 Q170.209 1399.03 173.264 1403.64 Q176.343 1408.22 176.343 1416.97 Q176.343 1425.7 173.264 1430.31 Q170.209 1434.89 164.399 1434.89 Q158.589 1434.89 155.51 1430.31 Q152.454 1425.7 152.454 1416.97 Q152.454 1408.22 155.51 1403.64 Q158.589 1399.03 164.399 1399.03 Z" fill="#000000" fill-rule="nonzero" fill-opacity="1" /><path clip-path="url(#clip920)" d="M184.561 1428.34 L189.445 1428.34 L189.445 1434.22 L184.561 1434.22 L184.561 1428.34 Z" fill="#000000" fill-rule="nonzero" fill-opacity="1" /><path clip-path="url(#clip920)" d="M203.658 1430.28 L219.977 1430.28 L219.977 1434.22 L198.033 1434.22 L198.033 1430.28 Q200.695 1427.53 205.278 1422.9 Q209.885 1418.25 211.065 1416.9 Q213.311 1414.38 214.19 1412.65 Q215.093 1410.89 215.093 1409.2 Q215.093 1406.44 213.149 1404.71 Q211.227 1402.97 208.125 1402.97 Q205.926 1402.97 203.473 1403.73 Q201.042 1404.5 198.264 1406.05 L198.264 1401.33 Q201.088 1400.19 203.542 1399.61 Q205.996 1399.03 208.033 1399.03 Q213.403 1399.03 216.598 1401.72 Q219.792 1404.4 219.792 1408.9 Q219.792 1411.03 218.982 1412.95 Q218.195 1414.84 216.088 1417.44 Q215.51 1418.11 212.408 1421.33 Q209.306 1424.52 203.658 1430.28 Z" fill="#000000" fill-rule="nonzero" fill-opacity="1" /><path clip-path="url(#clip920)" d="M114.26 1024.89 L143.936 1024.89 L143.936 1028.83 L114.26 1028.83 L114.26 1024.89 Z" fill="#000000" fill-rule="nonzero" fill-opacity="1" /><path clip-path="url(#clip920)" d="M164.028 1010.24 Q160.417 1010.24 158.589 1013.81 Q156.783 1017.35 156.783 1024.48 Q156.783 1031.58 158.589 1035.15 Q160.417 1038.69 164.028 1038.69 Q167.663 1038.69 169.468 1035.15 Q171.297 1031.58 171.297 1024.48 Q171.297 1017.35 169.468 1013.81 Q167.663 1010.24 164.028 1010.24 M164.028 1006.54 Q169.839 1006.54 172.894 1011.14 Q175.973 1015.73 175.973 1024.48 Q175.973 1033.2 172.894 1037.81 Q169.839 1042.39 164.028 1042.39 Q158.218 1042.39 155.14 1037.81 Q152.084 1033.2 152.084 1024.48 Q152.084 1015.73 155.14 1011.14 Q158.218 1006.54 164.028 1006.54 Z" fill="#000000" fill-rule="nonzero" fill-opacity="1" /><path clip-path="url(#clip920)" d="M184.19 1035.84 L189.075 1035.84 L189.075 1041.72 L184.19 1041.72 L184.19 1035.84 Z" fill="#000000" fill-rule="nonzero" fill-opacity="1" /><path clip-path="url(#clip920)" d="M200.07 1037.79 L207.709 1037.79 L207.709 1011.42 L199.399 1013.09 L199.399 1008.83 L207.662 1007.16 L212.338 1007.16 L212.338 1037.79 L219.977 1037.79 L219.977 1041.72 L200.07 1041.72 L200.07 1037.79 Z" fill="#000000" fill-rule="nonzero" fill-opacity="1" /><path clip-path="url(#clip920)" d="M162.802 617.744 Q159.19 617.744 157.362 621.309 Q155.556 624.851 155.556 631.98 Q155.556 639.087 157.362 642.651 Q159.19 646.193 162.802 646.193 Q166.436 646.193 168.241 642.651 Q170.07 639.087 170.07 631.98 Q170.07 624.851 168.241 621.309 Q166.436 617.744 162.802 617.744 M162.802 614.04 Q168.612 614.04 171.667 618.647 Q174.746 623.23 174.746 631.98 Q174.746 640.707 171.667 645.313 Q168.612 649.897 162.802 649.897 Q156.991 649.897 153.913 645.313 Q150.857 640.707 150.857 631.98 Q150.857 623.23 153.913 618.647 Q156.991 614.04 162.802 614.04 Z" fill="#000000" fill-rule="nonzero" fill-opacity="1" /><path clip-path="url(#clip920)" d="M182.963 643.346 L187.848 643.346 L187.848 649.225 L182.963 649.225 L182.963 643.346 Z" fill="#000000" fill-rule="nonzero" fill-opacity="1" /><path clip-path="url(#clip920)" d="M208.033 617.744 Q204.422 617.744 202.593 621.309 Q200.787 624.851 200.787 631.98 Q200.787 639.087 202.593 642.651 Q204.422 646.193 208.033 646.193 Q211.667 646.193 213.473 642.651 Q215.301 639.087 215.301 631.98 Q215.301 624.851 213.473 621.309 Q211.667 617.744 208.033 617.744 M208.033 614.04 Q213.843 614.04 216.898 618.647 Q219.977 623.23 219.977 631.98 Q219.977 640.707 216.898 645.313 Q213.843 649.897 208.033 649.897 Q202.223 649.897 199.144 645.313 Q196.088 640.707 196.088 631.98 Q196.088 623.23 199.144 618.647 Q202.223 614.04 208.033 614.04 Z" fill="#000000" fill-rule="nonzero" fill-opacity="1" /><path clip-path="url(#clip920)" d="M164.028 225.247 Q160.417 225.247 158.589 228.812 Q156.783 232.353 156.783 239.483 Q156.783 246.589 158.589 250.154 Q160.417 253.696 164.028 253.696 Q167.663 253.696 169.468 250.154 Q171.297 246.589 171.297 239.483 Q171.297 232.353 169.468 228.812 Q167.663 225.247 164.028 225.247 M164.028 221.543 Q169.839 221.543 172.894 226.15 Q175.973 230.733 175.973 239.483 Q175.973 248.21 172.894 252.816 Q169.839 257.4 164.028 257.4 Q158.218 257.4 155.14 252.816 Q152.084 248.21 152.084 239.483 Q152.084 230.733 155.14 226.15 Q158.218 221.543 164.028 221.543 Z" fill="#000000" fill-rule="nonzero" fill-opacity="1" /><path clip-path="url(#clip920)" d="M184.19 250.849 L189.075 250.849 L189.075 256.728 L184.19 256.728 L184.19 250.849 Z" fill="#000000" fill-rule="nonzero" fill-opacity="1" /><path clip-path="url(#clip920)" d="M200.07 252.793 L207.709 252.793 L207.709 226.428 L199.399 228.094 L199.399 223.835 L207.662 222.168 L212.338 222.168 L212.338 252.793 L219.977 252.793 L219.977 256.728 L200.07 256.728 L200.07 252.793 Z" fill="#000000" fill-rule="nonzero" fill-opacity="1" /><path clip-path="url(#clip920)" d="M20.8447 823.791 Q20.8447 830.793 26.0645 834.931 Q31.2844 839.037 40.2919 839.037 Q49.2675 839.037 54.4874 834.931 Q59.7073 830.793 59.7073 823.791 Q59.7073 816.788 54.4874 812.714 Q49.2675 808.609 40.2919 808.609 Q31.2844 808.609 26.0645 812.714 Q20.8447 816.788 20.8447 823.791 M15.6248 823.791 Q15.6248 813.797 22.3406 807.813 Q29.0246 801.829 40.2919 801.829 Q51.5274 801.829 58.2432 807.813 Q64.9272 813.797 64.9272 823.791 Q64.9272 833.817 58.2432 839.832 Q51.5592 845.816 40.2919 845.816 Q29.0246 845.816 22.3406 839.832 Q15.6248 833.817 15.6248 823.791 Z" fill="#000000" fill-rule="nonzero" fill-opacity="1" /><path clip-path="url(#clip920)" d="M49.9359 792.631 L28.3562 792.631 L28.3562 786.774 L49.7131 786.774 Q54.7739 786.774 57.3202 784.801 Q59.8346 782.827 59.8346 778.881 Q59.8346 774.138 56.8109 771.401 Q53.7872 768.632 48.5673 768.632 L28.3562 768.632 L28.3562 762.775 L64.0042 762.775 L64.0042 768.632 L58.5296 768.632 Q61.7762 770.764 63.3676 773.597 Q64.9272 776.398 64.9272 780.122 Q64.9272 786.265 61.1078 789.448 Q57.2883 792.631 49.9359 792.631 M27.4968 777.894 L27.4968 777.894 Z" fill="#000000" fill-rule="nonzero" fill-opacity="1" /><path clip-path="url(#clip920)" d="M18.2347 744.92 L28.3562 744.92 L28.3562 732.857 L32.9077 732.857 L32.9077 744.92 L52.2594 744.92 Q56.6199 744.92 57.8613 743.742 Q59.1026 742.533 59.1026 738.872 L59.1026 732.857 L64.0042 732.857 L64.0042 738.872 Q64.0042 745.652 61.4897 748.23 Q58.9434 750.808 52.2594 750.808 L32.9077 750.808 L32.9077 755.105 L28.3562 755.105 L28.3562 750.808 L18.2347 750.808 L18.2347 744.92 Z" fill="#000000" fill-rule="nonzero" fill-opacity="1" /><path clip-path="url(#clip920)" d="M58.657 719.489 L77.5631 719.489 L77.5631 725.377 L28.3562 725.377 L28.3562 719.489 L33.7671 719.489 Q30.5842 717.643 29.0564 714.842 Q27.4968 712.009 27.4968 708.094 Q27.4968 701.601 32.6531 697.559 Q37.8093 693.485 46.212 693.485 Q54.6147 693.485 59.771 697.559 Q64.9272 701.601 64.9272 708.094 Q64.9272 712.009 63.3994 714.842 Q61.8398 717.643 58.657 719.489 M46.212 699.564 Q39.7508 699.564 36.0905 702.238 Q32.3984 704.879 32.3984 709.526 Q32.3984 714.173 36.0905 716.847 Q39.7508 719.489 46.212 719.489 Q52.6732 719.489 56.3653 716.847 Q60.0256 714.173 60.0256 709.526 Q60.0256 704.879 56.3653 702.238 Q52.6732 699.564 46.212 699.564 Z" fill="#000000" fill-rule="nonzero" fill-opacity="1" /><path clip-path="url(#clip920)" d="M49.9359 684.382 L28.3562 684.382 L28.3562 678.525 L49.7131 678.525 Q54.7739 678.525 57.3202 676.552 Q59.8346 674.579 59.8346 670.632 Q59.8346 665.889 56.8109 663.152 Q53.7872 660.383 48.5673 660.383 L28.3562 660.383 L28.3562 654.527 L64.0042 654.527 L64.0042 660.383 L58.5296 660.383 Q61.7762 662.516 63.3676 665.348 Q64.9272 668.149 64.9272 671.873 Q64.9272 678.016 61.1078 681.199 Q57.2883 684.382 49.9359 684.382 M27.4968 669.645 L27.4968 669.645 Z" fill="#000000" fill-rule="nonzero" fill-opacity="1" /><path clip-path="url(#clip920)" d="M18.2347 636.671 L28.3562 636.671 L28.3562 624.608 L32.9077 624.608 L32.9077 636.671 L52.2594 636.671 Q56.6199 636.671 57.8613 635.493 Q59.1026 634.284 59.1026 630.623 L59.1026 624.608 L64.0042 624.608 L64.0042 630.623 Q64.0042 637.403 61.4897 639.981 Q58.9434 642.559 52.2594 642.559 L32.9077 642.559 L32.9077 646.856 L28.3562 646.856 L28.3562 642.559 L18.2347 642.559 L18.2347 636.671 Z" fill="#000000" fill-rule="nonzero" fill-opacity="1" /><polyline clip-path="url(#clip921)" style="stroke:#009af9; stroke-linecap:round; stroke-linejoin:round; stroke-width:4; stroke-opacity:1; fill:none" points="315.32,631.945 319.284,631.945 323.248,631.945 323.248,670.741 327.212,670.741 327.212,708.395 331.176,708.395 331.176,744.575 335.141,744.575 335.141,778.986 339.105,778.986 339.105,811.374 343.069,811.374 343.069,763.932 347.033,763.932 347.033,716.376 350.997,716.376 350.997,669.247 354.961,669.247 354.961,623.07 358.925,623.07 358.925,578.339 362.889,578.339 362.889,613.098 366.853,613.098 366.853,647.877 370.818,647.877 370.818,682.37 374.782,682.37 374.782,716.279 378.746,716.279 378.746,749.325 382.71,749.325 382.71,703.657 386.674,703.657 386.674,658.921 390.638,658.921 390.638,615.576 394.602,615.576 394.602,574.042 398.566,574.042 398.566,534.697 402.53,534.697 402.53,497.868 406.495,497.868 406.495,463.827 410.459,463.827 410.459,432.785 414.423,432.785 414.423,404.894 418.387,404.894 418.387,380.242 422.351,380.242 422.351,436.447 426.315,436.447 426.315,493.595 430.279,493.595 430.279,550.93 434.243,550.93 434.243,607.712 438.208,607.712 438.208,663.228 442.172,663.228 442.172,716.81 446.136,716.81 446.136,767.84 450.1,767.84 450.1,815.768 454.064,815.768 454.064,860.115 458.028,860.115 458.028,900.486 461.992,900.486 461.992,858.978 465.956,858.978 465.956,815.247 469.92,815.247 469.92,769.824 473.885,769.824 473.885,723.264 477.849,723.264 477.849,676.13 481.813,676.13 481.813,706.574 485.777,706.574 485.777,735.269 489.741,735.269 489.741,762.079 493.705,762.079 493.705,786.907 497.669,786.907 497.669,809.694 501.633,809.694 501.633,830.418 505.597,830.418 505.597,849.097 509.562,849.097 509.562,865.782 513.526,865.782 513.526,880.56 517.49,880.56 517.49,893.55 521.454,893.55 521.454,904.897 525.418,904.897 525.418,914.773 529.382,914.773 529.382,923.368 533.346,923.368 533.346,930.89 537.31,930.89 537.31,937.558 541.275,937.558 541.275,866.005 545.239,866.005 545.239,796.339 549.203,796.339 549.203,729.445 553.167,729.445 553.167,666.134 557.131,666.134 557.131,607.127 561.095,607.127 561.095,553.042 565.059,553.042 565.059,504.387 569.023,504.387 569.023,461.551 572.987,461.551 572.987,424.802 576.952,424.802 576.952,394.284 580.916,394.284 580.916,447.612 584.88,447.612 584.88,504.808 588.844,504.808 588.844,565 592.808,565 592.808,627.278 596.772,627.278 596.772,690.712 600.736,690.712 600.736,676.785 604.7,676.785 604.7,664.467 608.664,664.467 608.664,653.548 612.629,653.548 612.629,643.8 616.593,643.8 616.593,634.984 620.557,634.984 620.557,626.853 624.521,626.853 624.521,619.157 628.485,619.157 628.485,611.65 632.449,611.65 632.449,604.094 636.413,604.094 636.413,596.26 640.377,596.26 640.377,587.937 644.341,587.937 644.341,578.933 648.306,578.933 648.306,569.081 652.27,569.081 652.27,558.234 656.234,558.234 656.234,546.278 660.198,546.278 660.198,610.718 664.162,610.718 664.162,671.616 668.126,671.616 668.126,728.286 672.09,728.286 672.09,780.137 676.054,780.137 676.054,826.688 680.019,826.688 680.019,789.982 683.983,789.982 683.983,749.647 687.947,749.647 687.947,706.216 691.911,706.216 691.911,660.271 695.875,660.271 695.875,612.428 699.839,612.428 699.839,640.92 703.803,640.92 703.803,666.519 707.767,666.519 707.767,689.208 711.731,689.208 711.731,709.027 715.696,709.027 715.696,726.064 719.66,726.064 719.66,740.459 723.624,740.459 723.624,752.393 727.588,752.393 727.588,762.087 731.552,762.087 731.552,769.796 735.516,769.796 735.516,775.803 739.48,775.803 739.48,702.818 743.444,702.818 743.444,631.04 747.408,631.04 747.408,561.455 751.373,561.455 751.373,494.983 755.337,494.983 755.337,432.459 759.301,432.459 759.301,452.21 763.265,452.21 763.265,474.986 767.229,474.986 767.229,500.632 771.193,500.632 771.193,528.938 775.157,528.938 775.157,559.646 779.121,559.646 779.121,514.859 783.085,514.859 783.085,474.116 787.05,474.116 787.05,437.712 791.014,437.712 791.014,405.849 794.978,405.849 794.978,378.64 798.942,378.64 798.942,356.105 802.906,356.105 802.906,338.177 806.87,338.177 806.87,324.703 810.834,324.703 810.834,315.45 814.798,315.45 814.798,310.114 818.763,310.114 818.763,385.918 822.727,385.918 822.727,462.559 826.691,462.559 826.691,538.907 830.655,538.907 830.655,613.866 834.619,613.866 834.619,686.397 838.583,686.397 838.583,755.534 842.547,755.534 842.547,820.404 846.511,820.404 846.511,880.238 850.475,880.238 850.475,934.388 854.44,934.388 854.44,982.329 858.404,982.329 858.404,946.082 862.368,946.082 862.368,905.273 866.332,905.273 866.332,860.45 870.296,860.45 870.296,812.227 874.26,812.227 874.26,761.272 878.224,761.272 878.224,708.289 882.188,708.289 882.188,654.007 886.152,654.007 886.152,599.162 890.117,599.162 890.117,544.481 894.081,544.481 894.081,490.672 898.045,490.672 898.045,516.001 902.009,516.001 902.009,541.216 905.973,541.216 905.973,566.226 909.937,566.226 909.937,590.939 913.901,590.939 913.901,615.273 917.865,615.273 917.865,639.148 921.829,639.148 921.829,662.492 925.794,662.492 925.794,685.243 929.758,685.243 929.758,707.349 933.722,707.349 933.722,728.767 937.686,728.767 937.686,749.466 941.65,749.466 941.65,769.425 945.614,769.425 945.614,788.637 949.578,788.637 949.578,807.104 953.542,807.104 953.542,824.841 957.507,824.841 957.507,841.871 961.471,841.871 961.471,858.229 965.435,858.229 965.435,873.957 969.399,873.957 969.399,889.107 973.363,889.107 973.363,903.735 977.327,903.735 977.327,840.31 981.291,840.31 981.291,778.778 985.255,778.778 985.255,719.867 989.219,719.867 989.219,664.238 993.184,664.238 993.184,612.471 997.148,612.471 997.148,565.058 1001.11,565.058 1001.11,522.395 1005.08,522.395 1005.08,484.776 1009.04,484.776 1009.04,452.391 1013,452.391 1013,425.327 1016.97,425.327 1016.97,403.567 1020.93,403.567 1020.93,386.993 1024.9,386.993 1024.9,375.393 1028.86,375.393 1028.86,368.467 1032.82,368.467 1032.82,365.838 1036.79,365.838 1036.79,444.648 1040.75,444.648 1040.75,524.512 1044.72,524.512 1044.72,604.216 1048.68,604.216 1048.68,682.58 1052.65,682.58 1052.65,758.481 1056.61,758.481 1056.61,753.283 1060.57,753.283 1060.57,745.914 1064.54,745.914 1064.54,736.2 1068.5,736.2 1068.5,724.019 1072.47,724.019 1072.47,709.308 1076.43,709.308 1076.43,769.649 1080.39,769.649 1080.39,825.209 1084.36,825.209 1084.36,875.423 1088.32,875.423 1088.32,919.845 1092.29,919.845 1092.29,958.152 1096.25,958.152 1096.25,990.147 1100.21,990.147 1100.21,1015.76 1104.18,1015.76 1104.18,1035.04 1108.14,1035.04 1108.14,1048.16 1112.11,1048.16 1112.11,1055.41 1116.07,1055.41 1116.07,1057.17 1120.04,1057.17 1120.04,1053.93 1124,1053.93 1124,1046.25 1127.96,1046.25 1127.96,1034.75 1131.93,1034.75 1131.93,1020.12 1135.89,1020.12 1135.89,1003.08 1139.86,1003.08 1139.86,984.372 1143.82,984.372 1143.82,964.746 1147.78,964.746 1147.78,944.945 1151.75,944.945 1151.75,925.69 1155.71,925.69 1155.71,830.075 1159.68,830.075 1159.68,738.616 1163.64,738.616 1163.64,652.552 1167.6,652.552 1167.6,572.986 1171.57,572.986 1171.57,500.863 1175.53,500.863 1175.53,436.958 1179.5,436.958 1179.5,381.867 1183.46,381.867 1183.46,335.998 1187.43,335.998 1187.43,299.57 1191.39,299.57 1191.39,272.613 1195.35,272.613 1195.35,254.976 1199.32,254.976 1199.32,246.332 1203.28,246.332 1203.28,246.189 1207.25,246.189 1207.25,253.91 1211.21,253.91 1211.21,268.722 1215.17,268.722 1215.17,367.335 1219.14,367.335 1219.14,468.894 1223.1,468.894 1223.1,571.692 1227.07,571.692 1227.07,674.044 1231.03,674.044 1231.03,774.32 1234.99,774.32 1234.99,870.976 1238.96,870.976 1238.96,962.581 1242.92,962.581 1242.92,1047.84 1246.89,1047.84 1246.89,1125.62 1250.85,1125.62 1250.85,1194.96 1254.82,1194.96 1254.82,1177.51 1258.78,1177.51 1258.78,1152.58 1262.74,1152.58 1262.74,1120.46 1266.71,1120.46 1266.71,1081.6 1270.67,1081.6 1270.67,1036.56 1274.64,1036.56 1274.64,1063.59 1278.6,1063.59 1278.6,1083.58 1282.56,1083.58 1282.56,1096.71 1286.53,1096.71 1286.53,1103.28 1290.49,1103.28 1290.49,1103.71 1294.46,1103.71 1294.46,1098.53 1298.42,1098.53 1298.42,1088.34 1302.38,1088.34 1302.38,1073.85 1306.35,1073.85 1306.35,1055.8 1310.31,1055.8 1310.31,1034.99 1314.28,1034.99 1314.28,934.657 1318.24,934.657 1318.24,835.512 1322.21,835.512 1322.21,739.043 1326.17,739.043 1326.17,646.648 1330.13,646.648 1330.13,559.606 1334.1,559.606 1334.1,556.651 1338.06,556.651 1338.06,558.889 1342.03,558.889 1342.03,566.469 1345.99,566.469 1345.99,579.429 1349.95,579.429 1349.95,597.698 1353.92,597.698 1353.92,621.095 1357.88,621.095 1357.88,649.344 1361.85,649.344 1361.85,682.077 1365.81,682.077 1365.81,718.845 1369.77,718.845 1369.77,759.131 1373.74,759.131 1373.74,724.766 1377.7,724.766 1377.7,695.01 1381.67,695.01 1381.67,669.873 1385.63,669.873 1385.63,649.28 1389.6,649.28 1389.6,633.073 1393.56,633.073 1393.56,698.607 1397.52,698.607 1397.52,765.699 1401.49,765.699 1401.49,833.319 1405.45,833.319 1405.45,900.454 1409.42,900.454 1409.42,966.128 1413.38,966.128 1413.38,1029.42 1417.34,1029.42 1417.34,1089.47 1421.31,1089.47 1421.31,1145.53 1425.27,1145.53 1425.27,1196.91 1429.24,1196.91 1429.24,1243.07 1433.2,1243.07 1433.2,1283.56 1437.16,1283.56 1437.16,1318.06 1441.13,1318.06 1441.13,1346.36 1445.09,1346.36 1445.09,1368.41 1449.06,1368.41 1449.06,1384.24 1453.02,1384.24 1453.02,1316.43 1456.98,1316.43 1456.98,1245.15 1460.95,1245.15 1460.95,1171.42 1464.91,1171.42 1464.91,1096.32 1468.88,1096.32 1468.88,1020.91 1472.84,1020.91 1472.84,946.229 1476.81,946.229 1476.81,873.28 1480.77,873.28 1480.77,803.007 1484.73,803.007 1484.73,736.276 1488.7,736.276 1488.7,673.862 1492.66,673.862 1492.66,616.44 1496.63,616.44 1496.63,564.565 1500.59,564.565 1500.59,518.677 1504.55,518.677 1504.55,479.084 1508.52,479.084 1508.52,445.97 1512.48,445.97 1512.48,496.978 1516.45,496.978 1516.45,552.159 1520.41,552.159 1520.41,610.656 1524.37,610.656 1524.37,671.573 1528.34,671.573 1528.34,733.986 1532.3,733.986 1532.3,796.968 1536.27,796.968 1536.27,859.601 1540.23,859.601 1540.23,921.003 1544.2,921.003 1544.2,980.333 1548.16,980.333 1548.16,1036.82 1552.12,1036.82 1552.12,1012.16 1556.09,1012.16 1556.09,985.636 1560.05,985.636 1560.05,957.379 1564.02,957.379 1564.02,927.572 1567.98,927.572 1567.98,896.422 1571.94,896.422 1571.94,864.162 1575.91,864.162 1575.91,831.044 1579.87,831.044 1579.87,797.333 1583.84,797.333 1583.84,763.302 1587.8,763.302 1587.8,729.227 1591.76,729.227 1591.76,772.972 1595.73,772.972 1595.73,814.923 1599.69,814.923 1599.69,854.669 1603.66,854.669 1603.66,891.852 1607.62,891.852 1607.62,926.17 1611.59,926.17 1611.59,879.792 1615.55,879.792 1615.55,832.419 1619.51,832.419 1619.51,784.606 1623.48,784.606 1623.48,736.899 1627.44,736.899 1627.44,689.834 1631.41,689.834 1631.41,721.511 1635.37,721.511 1635.37,752.531 1639.33,752.531 1639.33,782.665 1643.3,782.665 1643.3,811.707 1647.26,811.707 1647.26,839.475 1651.23,839.475 1651.23,865.813 1655.19,865.813 1655.19,890.596 1659.15,890.596 1659.15,913.727 1663.12,913.727 1663.12,935.144 1667.08,935.144 1667.08,954.814 1671.05,954.814 1671.05,972.738 1675.01,972.738 1675.01,988.948 1678.98,988.948 1678.98,1003.5 1682.94,1003.5 1682.94,1016.5 1686.9,1016.5 1686.9,1028.04 1690.87,1028.04 1690.87,960.67 1694.83,960.67 1694.83,894.426 1698.8,894.426 1698.8,830.135 1702.76,830.135 1702.76,768.57 1706.72,768.57 1706.72,710.429 1710.69,710.429 1710.69,733.92 1714.65,733.92 1714.65,759.688 1718.62,759.688 1718.62,787.493 1722.58,787.493 1722.58,817.059 1726.54,817.059 1726.54,848.08 1730.51,848.08 1730.51,802.637 1734.47,802.637 1734.47,760.261 1738.44,760.261 1738.44,721.263 1742.4,721.263 1742.4,685.877 1746.37,685.877 1746.37,654.269 1750.33,654.269 1750.33,626.526 1754.29,626.526 1754.29,602.661 1758.26,602.661 1758.26,582.617 1762.22,582.617 1762.22,566.264 1766.19,566.264 1766.19,553.412 1770.15,553.412 1770.15,621.398 1774.11,621.398 1774.11,690.043 1778.08,690.043 1778.08,758.335 1782.04,758.335 1782.04,825.298 1786.01,825.298 1786.01,890.006 1789.97,890.006 1789.97,951.602 1793.93,951.602 1793.93,1009.31 1797.9,1009.31 1797.9,1062.46 1801.86,1062.46 1801.86,1110.47 1805.83,1110.47 1805.83,1152.89 1809.79,1152.89 1809.79,1111.78 1813.76,1111.78 1813.76,1066.82 1817.72,1066.82 1817.72,1018.56 1821.68,1018.56 1821.68,967.649 1825.65,967.649 1825.65,914.729 1829.61,914.729 1829.61,938.084 1833.58,938.084 1833.58,958.53 1837.54,958.53 1837.54,976.098 1841.5,976.098 1841.5,990.869 1845.47,990.869 1845.47,1002.98 1849.43,1002.98 1849.43,935.001 1853.4,935.001 1853.4,867.042 1857.36,867.042 1857.36,800.01 1861.32,800.01 1861.32,734.777 1865.29,734.777 1865.29,672.157 1869.25,672.157 1869.25,612.896 1873.22,612.896 1873.22,557.65 1877.18,557.65 1877.18,506.987 1881.15,506.987 1881.15,461.368 1885.11,461.368 1885.11,421.146 1889.07,421.146 1889.07,464.154 1893.04,464.154 1893.04,510.642 1897,510.642 1897,559.96 1900.97,559.96 1900.97,611.423 1904.93,611.423 1904.93,664.315 1908.89,664.315 1908.89,717.914 1912.86,717.914 1912.86,771.5 1916.82,771.5 1916.82,824.37 1920.79,824.37 1920.79,875.854 1924.75,875.854 1924.75,925.324 1928.71,925.324 1928.71,972.209 1932.68,972.209 1932.68,1016 1936.64,1016 1936.64,1056.26 1940.61,1056.26 1940.61,1092.64 1944.57,1092.64 1944.57,1124.86 1948.54,1124.86 1948.54,1152.73 1952.5,1152.73 1952.5,1176.16 1956.46,1176.16 1956.46,1195.14 1960.43,1195.14 1960.43,1209.73 1964.39,1209.73 1964.39,1220.1 1968.36,1220.1 1968.36,1148.88 1972.32,1148.88 1972.32,1076.25 1976.28,1076.25 1976.28,1003.22 1980.25,1003.22 1980.25,930.804 1984.21,930.804 1984.21,859.962 1988.18,859.962 1988.18,791.604 1992.14,791.604 1992.14,726.57 1996.1,726.57 1996.1,665.611 2000.07,665.611 2000.07,609.383 2004.03,609.383 2004.03,558.432 2008,558.432 2008,590.78 2011.96,590.78 2011.96,626.86 2015.93,626.86 2015.93,666.197 2019.89,666.197 2019.89,708.263 2023.85,708.263 2023.85,752.488 2027.82,752.488 2027.82,798.275 2031.78,798.275 2031.78,845.009 2035.75,845.009 2035.75,892.07 2039.71,892.07 2039.71,938.849 2043.67,938.849 2043.67,984.757 2047.64,984.757 2047.64,951.642 2051.6,951.642 2051.6,918.866 2055.57,918.866 2055.57,886.623 2059.53,886.623 2059.53,855.096 2063.49,855.096 2063.49,824.451 2067.46,824.451 2067.46,794.84 2071.42,794.84 2071.42,766.389 2075.39,766.389 2075.39,739.207 2079.35,739.207 2079.35,713.375 2083.32,713.375 2083.32,688.95 2087.28,688.95 2087.28,743.559 2091.24,743.559 2091.24,797.329 2095.21,797.329 2095.21,849.583 2099.17,849.583 2099.17,899.689 2103.14,899.689 2103.14,947.071 2107.1,947.071 2107.1,991.223 2111.06,991.223 2111.06,1031.71 2115.03,1031.71 2115.03,1068.19 2118.99,1068.19 2118.99,1100.38 2122.96,1100.38 2122.96,1128.13 2126.92,1128.13 2126.92,1073.73 2130.88,1073.73 2130.88,1017.09 2134.85,1017.09 2134.85,958.934 2138.81,958.934 2138.81,900.037 2142.78,900.037 2142.78,841.151 2146.74,841.151 2146.74,860.608 2150.7,860.608 2150.7,879.237 2154.67,879.237 2154.67,897.036 2158.63,897.036 2158.63,914.019 2162.6,914.019 2162.6,930.211 2166.56,930.211 2166.56,945.649 2170.53,945.649 2170.53,960.38 2174.49,960.38 2174.49,974.459 2178.45,974.459 2178.45,987.952 2182.42,987.952 2182.42,1000.93 2186.38,1000.93 2186.38,1013.47 2190.35,1013.47 2190.35,1025.64 2194.31,1025.64 2194.31,1037.53 2198.27,1037.53 2198.27,1049.23 2202.24,1049.23 2202.24,1060.8 2206.2,1060.8 2206.2,1072.33 2210.17,1072.33 2210.17,1083.88 2214.13,1083.88 2214.13,1095.53 2218.09,1095.53 2218.09,1107.33 2222.06,1107.33 2222.06,1119.33 2226.02,1119.33 2226.02,1131.58 2229.99,1131.58 2229.99,1144.12 2233.95,1144.12 2233.95,1156.96 2237.92,1156.96 2237.92,1170.12 2241.88,1170.12 2241.88,1183.61 2245.84,1183.61 2245.84,1119.83 2249.81,1119.83 2249.81,1058.66 2253.77,1058.66 2253.77,1000.72 2257.74,1000.72 2257.74,946.577 2261.7,946.577 2261.7,896.714 2265.66,896.714 2265.66,929.1 2269.63,929.1 2269.63,964.143 2273.59,964.143 2273.59,1001.36 2277.56,1001.36 2277.56,1040.25 2281.52,1040.25 2281.52,1080.28 2285.48,1080.28 2285.48,1043.32 2289.45,1043.32 2289.45,1008.7 2293.41,1008.7 2293.41,976.566 "/>
<polyline clip-path="url(#clip921)" style="stroke:#e26f46; stroke-linecap:round; stroke-linejoin:round; stroke-width:4; stroke-opacity:1; fill:none" points="315.32,629.982 319.284,722.351 323.248,762.949 327.212,800.256 331.176,835.146 335.141,867.504 339.105,897.263 343.069,846.658 347.033,794.741 350.997,743.529 354.961,693.381 358.925,644.558 362.889,675.015 366.853,705.89 370.818,735.353 374.782,763.228 378.746,789.435 382.71,736.19 386.674,682.525 390.638,630.427 394.602,580.224 398.566,532.183 402.53,486.542 406.495,443.512 410.459,403.277 414.423,365.99 418.387,331.737 422.351,378.294 426.315,426.618 430.279,474.696 434.243,522.169 438.208,568.732 442.172,614.101 446.136,658.012 450.1,700.223 454.064,740.518 458.028,778.743 461.992,737.052 465.956,694.412 469.92,652.761 473.885,612.379 477.849,573.448 481.813,613.848 485.777,654.646 489.741,693.944 493.705,731.5 497.669,767.129 501.633,800.669 505.597,831.981 509.562,860.945 513.526,887.464 517.49,911.464 521.454,932.89 525.418,951.708 529.382,967.905 533.346,981.484 537.31,992.514 541.275,923.357 545.239,853.186 549.203,784.135 553.167,716.667 557.131,651.185 561.095,588.057 565.059,527.617 569.023,470.168 572.987,415.975 576.952,365.227 580.916,395.799 584.88,428.735 588.844,462.103 592.808,495.616 596.772,529.078 600.736,484.581 604.7,441.028 608.664,400.274 612.629,362.514 616.593,327.877 620.557,296.464 624.521,268.35 628.485,243.583 632.449,222.185 636.413,204.153 640.377,189.463 644.341,178.067 648.306,169.896 652.27,164.861 656.234,162.813 660.198,241.306 664.162,321.085 668.126,399.94 672.09,477.327 676.054,552.815 680.019,548.286 683.983,542.456 687.947,537.019 691.911,532.029 695.875,527.458 699.839,600.993 703.803,673.524 707.767,742.993 711.731,809.02 715.696,871.297 719.66,929.557 723.624,983.574 727.588,1033.16 731.552,1078.17 735.516,1118.54 739.48,1076.53 743.444,1031.2 747.408,984.636 751.373,937.239 755.337,889.339 759.301,918.966 763.265,947.344 767.229,972.735 771.193,995.062 775.157,1014.35 779.121,952.927 783.085,889.937 787.05,827.484 791.014,766.016 794.978,705.918 798.942,647.549 802.906,591.239 806.87,537.288 810.834,485.968 814.798,437.474 818.763,469.693 822.727,503.685 826.691,537.538 830.655,570.988 834.619,603.818 838.583,635.826 842.547,666.826 846.511,696.647 850.475,725.133 854.44,752.19 858.404,700.018 862.368,647.629 866.332,596.994 870.296,548.422 874.26,502.161 878.224,458.429 882.188,417.419 886.152,379.295 890.117,344.192 894.081,312.177 898.045,361.008 902.009,411.624 905.973,461.996 909.937,511.748 913.901,560.561 917.865,608.135 921.829,654.193 925.794,698.483 929.758,740.773 933.722,780.859 937.686,818.56 941.65,853.719 945.614,886.206 949.578,915.913 953.542,942.758 957.507,966.682 961.471,987.65 965.435,1005.65 969.399,1020.68 973.363,1032.83 977.327,964.46 981.291,894.752 985.255,825.852 989.219,758.237 993.184,692.324 997.148,628.497 1001.11,567.107 1005.08,508.474 1009.04,452.884 1013,400.588 1016.97,351.803 1020.93,306.712 1024.9,265.465 1028.86,228.175 1032.82,194.882 1036.79,243.312 1040.75,294.368 1044.72,345.98 1048.68,397.727 1052.65,449.286 1056.61,422.629 1060.57,396.545 1064.54,372.786 1068.5,351.447 1072.47,332.524 1076.43,393.717 1080.39,455.909 1084.36,517.026 1088.32,576.656 1092.29,634.447 1096.25,690.08 1100.21,743.261 1104.18,793.73 1108.14,841.256 1112.11,885.64 1116.07,926.713 1120.04,964.336 1124,998.403 1127.96,1028.84 1131.93,1055.58 1135.89,1078.63 1139.86,1097.97 1143.82,1113.65 1147.78,1125.71 1151.75,1134.29 1155.71,1061.8 1159.68,987.474 1163.64,913.518 1167.6,840.464 1171.57,768.781 1175.53,698.909 1179.5,631.255 1183.46,566.191 1187.43,504.057 1191.39,445.153 1195.35,389.747 1199.32,338.068 1203.28,290.309 1207.25,246.628 1211.21,207.102 1215.17,249.495 1219.14,294.743 1223.1,340.804 1227.07,387.287 1231.03,433.848 1234.99,480.156 1238.96,525.901 1242.92,570.787 1246.89,614.54 1250.85,656.949 1254.82,620.103 1258.78,582.909 1262.74,547.238 1266.71,513.303 1270.67,481.221 1274.64,528.808 1278.6,577.063 1282.56,624.023 1286.53,669.386 1290.49,712.904 1294.46,754.358 1298.42,793.55 1302.38,830.308 1306.35,864.485 1310.31,896.002 1314.28,847.085 1318.24,796.776 1322.21,747.086 1326.17,698.367 1330.13,650.873 1334.1,682.556 1338.06,714.549 1342.03,745.019 1345.99,773.787 1349.95,800.729 1353.92,825.739 1357.88,848.729 1361.85,869.628 1365.81,888.386 1369.77,905.011 1373.74,841.809 1377.7,777.896 1381.67,715.345 1385.63,654.567 1389.6,595.863 1393.56,617.225 1397.52,639.818 1401.49,661.833 1405.45,683.109 1409.42,703.53 1413.38,722.991 1417.34,741.4 1421.31,758.676 1425.27,774.747 1429.24,789.558 1433.2,803.06 1437.16,815.219 1441.13,826.009 1445.09,835.418 1449.06,843.485 1453.02,772.54 1456.98,701.717 1460.95,633.1 1464.91,567.103 1468.88,504.071 1472.84,444.31 1476.81,388.092 1480.77,335.648 1484.73,287.176 1488.7,242.836 1492.66,202.751 1496.63,167.01 1500.59,135.668 1504.55,108.745 1508.52,86.1857 1512.48,145.627 1516.45,207.881 1520.41,270.79 1524.37,333.852 1528.34,396.618 1532.3,458.663 1536.27,519.586 1540.23,579.011 1544.2,636.59 1548.16,692.049 1552.12,667.421 1556.09,641.563 1560.05,616.308 1564.02,591.838 1567.98,568.29 1571.94,545.787 1575.91,524.439 1579.87,504.343 1583.84,485.584 1587.8,468.188 1591.76,529.89 1595.73,591.618 1599.69,651.342 1603.66,708.704 1607.62,763.45 1611.59,737.642 1615.55,710.168 1619.51,682.889 1623.48,656.021 1627.44,629.69 1631.41,681.731 1635.37,733.171 1639.33,782.083 1643.3,828.204 1647.26,871.337 1651.23,911.315 1655.19,948.001 1659.15,981.286 1663.12,1011.09 1667.08,1037.37 1671.05,1060.08 1675.01,1079.25 1678.98,1094.88 1682.94,1107.04 1686.9,1115.83 1690.87,1043.67 1694.83,969.799 1698.8,896.395 1702.76,823.986 1706.72,752.991 1710.69,761.517 1714.65,770.844 1718.62,779.275 1722.58,786.758 1726.54,793.326 1730.51,721.3 1734.47,649.802 1738.44,580.904 1742.4,515.004 1746.37,452.427 1750.33,393.463 1754.29,338.36 1758.26,287.329 1762.22,240.545 1766.19,198.097 1770.15,237.763 1774.11,280.489 1778.08,324.241 1782.04,368.635 1786.01,413.33 1789.97,458.002 1793.93,502.337 1797.9,546.042 1801.86,588.841 1805.83,630.517 1809.79,593.157 1813.76,555.66 1817.72,519.89 1821.68,486.052 1825.65,454.253 1829.61,502.298 1833.58,551.176 1837.54,598.912 1841.5,645.191 1845.47,689.798 1849.43,654.823 1853.4,619.171 1857.36,584.72 1861.32,551.688 1865.29,520.245 1869.25,490.538 1873.22,462.696 1877.18,436.831 1881.15,413.034 1885.11,391.333 1889.07,449.462 1893.04,508.339 1897,565.924 1900.97,621.838 1904.93,675.766 1908.89,727.419 1912.86,776.54 1916.82,822.899 1920.79,866.296 1924.75,906.562 1928.71,943.556 1932.68,977.166 1936.64,1007.31 1940.61,1033.94 1944.57,1057.01 1948.54,1076.54 1952.5,1092.54 1956.46,1105.06 1960.43,1114.17 1964.39,1120.01 1968.36,1045 1972.32,968.393 1976.28,892.388 1980.25,817.524 1984.21,744.274 1988.18,673.076 1992.14,604.336 1996.1,538.424 2000.07,475.673 2004.03,416.335 2008,438.346 2011.96,462.809 2015.93,487.847 2019.89,513.226 2023.85,538.752 2027.82,564.241 2031.78,589.515 2035.75,614.407 2039.71,638.762 2043.67,662.477 2047.64,607.74 2051.6,553.547 2055.57,501.847 2059.53,452.923 2063.49,406.992 2067.46,364.242 2071.42,324.827 2075.39,288.872 2079.35,256.474 2083.32,227.654 2087.28,280.128 2091.24,334.788 2095.21,389.559 2099.17,444.018 2103.14,497.799 2107.1,550.556 2111.06,601.967 2115.03,651.733 2118.99,699.58 2122.96,745.305 2126.92,711.008 2130.88,675.612 2134.85,641.011 2138.81,607.443 2142.78,575.053 2146.74,621.689 2150.7,668.388 2154.67,713.224 2158.63,755.934 2162.6,796.315 2166.56,834.19 2170.53,869.406 2174.49,901.836 2178.45,931.381 2182.42,957.963 2186.38,981.53 2190.35,1002.05 2194.31,1019.53 2198.27,1033.96 2202.24,1045.4 2206.2,1053.89 2210.17,1059.52 2214.13,1062.36 2218.09,1062.52 2222.06,1060.13 2226.02,1055.32 2229.99,1048.22 2233.95,1038.99 2237.92,1027.8 2241.88,1014.84 2245.84,922.625 2249.81,830.438 2253.77,740.519 2257.74,653.43 2261.7,569.606 2265.66,567.163 2269.63,567.373 2273.59,568.52 2277.56,570.519 2281.52,573.361 2285.48,499.315 2289.45,427.439 2293.41,359.734 "/>
<polyline clip-path="url(#clip921)" style="stroke:#3da44d; stroke-linecap:round; stroke-linejoin:round; stroke-width:4; stroke-opacity:1; fill:none" points="315.32,631.945 319.284,631.945 323.248,670.741 327.212,708.395 331.176,744.575 335.141,778.986 339.105,811.374 343.069,763.932 347.033,716.376 350.997,669.247 354.961,623.07 358.925,578.339 362.889,613.098 366.853,647.877 370.818,682.37 374.782,716.279 378.746,749.325 382.71,703.657 386.674,658.921 390.638,615.576 394.602,574.042 398.566,534.697 402.53,497.868 406.495,463.827 410.459,432.785 414.423,404.894 418.387,380.242 422.351,436.447 426.315,493.595 430.279,550.93 434.243,607.712 438.208,663.228 442.172,716.81 446.136,767.84 450.1,815.768 454.064,860.115 458.028,900.486 461.992,858.978 465.956,815.247 469.92,769.824 473.885,723.264 477.849,676.13 481.813,706.574 485.777,735.269 489.741,762.079 493.705,786.907 497.669,809.694 501.633,830.418 505.597,849.097 509.562,865.782 513.526,880.56 517.49,893.55 521.454,904.897 525.418,914.773 529.382,923.368 533.346,930.89 537.31,937.558 541.275,866.005 545.239,796.339 549.203,729.445 553.167,666.134 557.131,607.127 561.095,553.042 565.059,504.387 569.023,461.551 572.987,424.802 576.952,394.284 580.916,447.612 584.88,504.808 588.844,565 592.808,627.278 596.772,690.712 600.736,676.785 604.7,664.467 608.664,653.548 612.629,643.8 616.593,634.984 620.557,626.853 624.521,619.157 628.485,611.65 632.449,604.094 636.413,596.26 640.377,587.937 644.341,578.933 648.306,569.081 652.27,558.234 656.234,546.278 660.198,610.718 664.162,671.616 668.126,728.286 672.09,780.137 676.054,826.688 680.019,789.982 683.983,749.647 687.947,706.216 691.911,660.271 695.875,612.428 699.839,640.92 703.803,666.519 707.767,689.208 711.731,709.027 715.696,726.064 719.66,740.459 723.624,752.393 727.588,762.087 731.552,769.796 735.516,775.803 739.48,702.818 743.444,631.04 747.408,561.455 751.373,494.983 755.337,432.459 759.301,452.21 763.265,474.986 767.229,500.632 771.193,528.938 775.157,559.646 779.121,514.859 783.085,474.116 787.05,437.712 791.014,405.849 794.978,378.64 798.942,356.105 802.906,338.177 806.87,324.703 810.834,315.45 814.798,310.114 818.763,385.918 822.727,462.559 826.691,538.907 830.655,613.866 834.619,686.397 838.583,755.534 842.547,820.404 846.511,880.238 850.475,934.388 854.44,982.329 858.404,946.082 862.368,905.273 866.332,860.45 870.296,812.227 874.26,761.272 878.224,708.289 882.188,654.007 886.152,599.162 890.117,544.481 894.081,490.672 898.045,516.001 902.009,541.216 905.973,566.226 909.937,590.939 913.901,615.273 917.865,639.148 921.829,662.492 925.794,685.243 929.758,707.349 933.722,728.767 937.686,749.466 941.65,769.425 945.614,788.637 949.578,807.104 953.542,824.841 957.507,841.871 961.471,858.229 965.435,873.957 969.399,889.107 973.363,903.735 977.327,840.31 981.291,778.778 985.255,719.867 989.219,664.238 993.184,612.471 997.148,565.058 1001.11,522.395 1005.08,484.776 1009.04,452.391 1013,425.327 1016.97,403.567 1020.93,386.993 1024.9,375.393 1028.86,368.467 1032.82,365.838 1036.79,444.648 1040.75,524.512 1044.72,604.216 1048.68,682.58 1052.65,758.481 1056.61,753.283 1060.57,745.914 1064.54,736.2 1068.5,724.019 1072.47,709.308 1076.43,769.649 1080.39,825.209 1084.36,875.423 1088.32,919.845 1092.29,958.152 1096.25,990.147 1100.21,1015.76 1104.18,1035.04 1108.14,1048.16 1112.11,1055.41 1116.07,1057.17 1120.04,1053.93 1124,1046.25 1127.96,1034.75 1131.93,1020.12 1135.89,1003.08 1139.86,984.372 1143.82,964.746 1147.78,944.945 1151.75,925.69 1155.71,830.075 1159.68,738.616 1163.64,652.552 1167.6,572.986 1171.57,500.863 1175.53,436.958 1179.5,381.867 1183.46,335.998 1187.43,299.57 1191.39,272.613 1195.35,254.976 1199.32,246.332 1203.28,246.189 1207.25,253.91 1211.21,268.722 1215.17,367.335 1219.14,468.894 1223.1,571.692 1227.07,674.044 1231.03,774.32 1234.99,870.976 1238.96,962.581 1242.92,1047.84 1246.89,1125.62 1250.85,1194.96 1254.82,1177.51 1258.78,1152.58 1262.74,1120.46 1266.71,1081.6 1270.67,1036.56 1274.64,1063.59 1278.6,1083.58 1282.56,1096.71 1286.53,1103.28 1290.49,1103.71 1294.46,1098.53 1298.42,1088.34 1302.38,1073.85 1306.35,1055.8 1310.31,1034.99 1314.28,934.657 1318.24,835.512 1322.21,739.043 1326.17,646.648 1330.13,559.606 1334.1,556.651 1338.06,558.889 1342.03,566.469 1345.99,579.429 1349.95,597.698 1353.92,621.095 1357.88,649.344 1361.85,682.077 1365.81,718.845 1369.77,759.131 1373.74,724.766 1377.7,695.01 1381.67,669.873 1385.63,649.28 1389.6,633.073 1393.56,698.607 1397.52,765.699 1401.49,833.319 1405.45,900.454 1409.42,966.128 1413.38,1029.42 1417.34,1089.47 1421.31,1145.53 1425.27,1196.91 1429.24,1243.07 1433.2,1283.56 1437.16,1318.06 1441.13,1346.36 1445.09,1368.41 1449.06,1384.24 1453.02,1316.43 1456.98,1245.15 1460.95,1171.42 1464.91,1096.32 1468.88,1020.91 1472.84,946.229 1476.81,873.28 1480.77,803.007 1484.73,736.276 1488.7,673.862 1492.66,616.44 1496.63,564.565 1500.59,518.677 1504.55,479.084 1508.52,445.97 1512.48,496.978 1516.45,552.159 1520.41,610.656 1524.37,671.573 1528.34,733.986 1532.3,796.968 1536.27,859.601 1540.23,921.003 1544.2,980.333 1548.16,1036.82 1552.12,1012.16 1556.09,985.636 1560.05,957.379 1564.02,927.572 1567.98,896.422 1571.94,864.162 1575.91,831.044 1579.87,797.333 1583.84,763.302 1587.8,729.227 1591.76,772.972 1595.73,814.923 1599.69,854.669 1603.66,891.852 1607.62,926.17 1611.59,879.792 1615.55,832.419 1619.51,784.606 1623.48,736.899 1627.44,689.834 1631.41,721.511 1635.37,752.531 1639.33,782.665 1643.3,811.707 1647.26,839.475 1651.23,865.813 1655.19,890.596 1659.15,913.727 1663.12,935.144 1667.08,954.814 1671.05,972.738 1675.01,988.948 1678.98,1003.5 1682.94,1016.5 1686.9,1028.04 1690.87,960.67 1694.83,894.426 1698.8,830.135 1702.76,768.57 1706.72,710.429 1710.69,733.92 1714.65,759.688 1718.62,787.493 1722.58,817.059 1726.54,848.08 1730.51,802.637 1734.47,760.261 1738.44,721.263 1742.4,685.877 1746.37,654.269 1750.33,626.526 1754.29,602.661 1758.26,582.617 1762.22,566.264 1766.19,553.412 1770.15,621.398 1774.11,690.043 1778.08,758.335 1782.04,825.298 1786.01,890.006 1789.97,951.602 1793.93,1009.31 1797.9,1062.46 1801.86,1110.47 1805.83,1152.89 1809.79,1111.78 1813.76,1066.82 1817.72,1018.56 1821.68,967.649 1825.65,914.729 1829.61,938.084 1833.58,958.53 1837.54,976.098 1841.5,990.869 1845.47,1002.98 1849.43,935.001 1853.4,867.042 1857.36,800.01 1861.32,734.777 1865.29,672.157 1869.25,612.896 1873.22,557.65 1877.18,506.987 1881.15,461.368 1885.11,421.146 1889.07,464.154 1893.04,510.642 1897,559.96 1900.97,611.423 1904.93,664.315 1908.89,717.914 1912.86,771.5 1916.82,824.37 1920.79,875.854 1924.75,925.324 1928.71,972.209 1932.68,1016 1936.64,1056.26 1940.61,1092.64 1944.57,1124.86 1948.54,1152.73 1952.5,1176.16 1956.46,1195.14 1960.43,1209.73 1964.39,1220.1 1968.36,1148.88 1972.32,1076.25 1976.28,1003.22 1980.25,930.804 1984.21,859.962 1988.18,791.604 1992.14,726.57 1996.1,665.611 2000.07,609.383 2004.03,558.432 2008,590.78 2011.96,626.86 2015.93,666.197 2019.89,708.263 2023.85,752.488 2027.82,798.275 2031.78,845.009 2035.75,892.07 2039.71,938.849 2043.67,984.757 2047.64,951.642 2051.6,918.866 2055.57,886.623 2059.53,855.096 2063.49,824.451 2067.46,794.84 2071.42,766.389 2075.39,739.207 2079.35,713.375 2083.32,688.95 2087.28,743.559 2091.24,797.329 2095.21,849.583 2099.17,899.689 2103.14,947.071 2107.1,991.223 2111.06,1031.71 2115.03,1068.19 2118.99,1100.38 2122.96,1128.13 2126.92,1073.73 2130.88,1017.09 2134.85,958.934 2138.81,900.037 2142.78,841.151 2146.74,860.608 2150.7,879.237 2154.67,897.036 2158.63,914.019 2162.6,930.211 2166.56,945.649 2170.53,960.38 2174.49,974.459 2178.45,987.952 2182.42,1000.93 2186.38,1013.47 2190.35,1025.64 2194.31,1037.53 2198.27,1049.23 2202.24,1060.8 2206.2,1072.33 2210.17,1083.88 2214.13,1095.53 2218.09,1107.33 2222.06,1119.33 2226.02,1131.58 2229.99,1144.12 2233.95,1156.96 2237.92,1170.12 2241.88,1183.61 2245.84,1119.83 2249.81,1058.66 2253.77,1000.72 2257.74,946.577 2261.7,896.714 2265.66,929.1 2269.63,964.143 2273.59,1001.36 2277.56,1040.25 2281.52,1080.28 2285.48,1043.32 2289.45,1008.7 2293.41,976.566 "/>
<path clip-path="url(#clip920)" d="M325.87 1377.32 L1442.86 1377.32 L1442.86 1169.96 L325.87 1169.96  Z" fill="#ffffff" fill-rule="evenodd" fill-opacity="1"/>
<polyline clip-path="url(#clip920)" style="stroke:#000000; stroke-linecap:round; stroke-linejoin:round; stroke-width:4; stroke-opacity:1; fill:none" points="325.87,1377.32 1442.86,1377.32 1442.86,1169.96 325.87,1169.96 325.87,1377.32 "/>
<polyline clip-path="url(#clip920)" style="stroke:#009af9; stroke-linecap:round; stroke-linejoin:round; stroke-width:4; stroke-opacity:1; fill:none" points="349.167,1221.8 488.953,1221.8 "/>
<path clip-path="url(#clip920)" d="M516.926 1208.36 L516.926 1235.23 L522.574 1235.23 Q529.727 1235.23 533.037 1231.99 Q536.37 1228.75 536.37 1221.76 Q536.37 1214.82 533.037 1211.6 Q529.727 1208.36 522.574 1208.36 L516.926 1208.36 M512.25 1204.52 L521.857 1204.52 Q531.903 1204.52 536.602 1208.71 Q541.301 1212.87 541.301 1221.76 Q541.301 1230.7 536.579 1234.89 Q531.857 1239.08 521.857 1239.08 L512.25 1239.08 L512.25 1204.52 Z" fill="#000000" fill-rule="nonzero" fill-opacity="1" /><path clip-path="url(#clip920)" d="M560.352 1226.04 Q555.19 1226.04 553.199 1227.22 Q551.208 1228.4 551.208 1231.25 Q551.208 1233.52 552.69 1234.86 Q554.194 1236.18 556.764 1236.18 Q560.305 1236.18 562.435 1233.68 Q564.588 1231.16 564.588 1226.99 L564.588 1226.04 L560.352 1226.04 M568.847 1224.28 L568.847 1239.08 L564.588 1239.08 L564.588 1235.14 Q563.129 1237.5 560.954 1238.64 Q558.778 1239.75 555.63 1239.75 Q551.648 1239.75 549.287 1237.52 Q546.949 1235.28 546.949 1231.53 Q546.949 1227.15 549.866 1224.93 Q552.805 1222.71 558.616 1222.71 L564.588 1222.71 L564.588 1222.29 Q564.588 1219.35 562.643 1217.76 Q560.722 1216.14 557.227 1216.14 Q555.005 1216.14 552.898 1216.67 Q550.792 1217.2 548.847 1218.27 L548.847 1214.33 Q551.185 1213.43 553.384 1212.99 Q555.583 1212.52 557.667 1212.52 Q563.292 1212.52 566.069 1215.44 Q568.847 1218.36 568.847 1224.28 Z" fill="#000000" fill-rule="nonzero" fill-opacity="1" /><path clip-path="url(#clip920)" d="M581.833 1205.79 L581.833 1213.15 L590.606 1213.15 L590.606 1216.46 L581.833 1216.46 L581.833 1230.53 Q581.833 1233.7 582.69 1234.61 Q583.569 1235.51 586.231 1235.51 L590.606 1235.51 L590.606 1239.08 L586.231 1239.08 Q581.301 1239.08 579.426 1237.25 Q577.551 1235.39 577.551 1230.53 L577.551 1216.46 L574.426 1216.46 L574.426 1213.15 L577.551 1213.15 L577.551 1205.79 L581.833 1205.79 Z" fill="#000000" fill-rule="nonzero" fill-opacity="1" /><path clip-path="url(#clip920)" d="M607.99 1226.04 Q602.828 1226.04 600.838 1227.22 Q598.847 1228.4 598.847 1231.25 Q598.847 1233.52 600.328 1234.86 Q601.833 1236.18 604.402 1236.18 Q607.944 1236.18 610.074 1233.68 Q612.226 1231.16 612.226 1226.99 L612.226 1226.04 L607.99 1226.04 M616.486 1224.28 L616.486 1239.08 L612.226 1239.08 L612.226 1235.14 Q610.768 1237.5 608.592 1238.64 Q606.416 1239.75 603.268 1239.75 Q599.287 1239.75 596.926 1237.52 Q594.588 1235.28 594.588 1231.53 Q594.588 1227.15 597.504 1224.93 Q600.444 1222.71 606.254 1222.71 L612.226 1222.71 L612.226 1222.29 Q612.226 1219.35 610.282 1217.76 Q608.361 1216.14 604.865 1216.14 Q602.643 1216.14 600.537 1216.67 Q598.43 1217.2 596.486 1218.27 L596.486 1214.33 Q598.824 1213.43 601.023 1212.99 Q603.222 1212.52 605.305 1212.52 Q610.93 1212.52 613.708 1215.44 Q616.486 1218.36 616.486 1224.28 Z" fill="#000000" fill-rule="nonzero" fill-opacity="1" /><polyline clip-path="url(#clip920)" style="stroke:#e26f46; stroke-linecap:round; stroke-linejoin:round; stroke-width:4; stroke-opacity:1; fill:none" points="349.167,1273.64 488.953,1273.64 "/>
<path clip-path="url(#clip920)" d="M528.083 1260.96 L521.741 1278.16 L534.449 1278.16 L528.083 1260.96 M525.445 1256.36 L530.745 1256.36 L543.917 1290.92 L539.056 1290.92 L535.907 1282.05 L520.329 1282.05 L517.181 1290.92 L512.25 1290.92 L525.445 1256.36 Z" fill="#000000" fill-rule="nonzero" fill-opacity="1" /><path clip-path="url(#clip920)" d="M565.352 1274.71 Q566.856 1275.22 568.268 1276.89 Q569.704 1278.55 571.139 1281.47 L575.884 1290.92 L570.861 1290.92 L566.44 1282.05 Q564.727 1278.58 563.106 1277.44 Q561.509 1276.31 558.731 1276.31 L553.639 1276.31 L553.639 1290.92 L548.963 1290.92 L548.963 1256.36 L559.518 1256.36 Q565.444 1256.36 568.361 1258.83 Q571.278 1261.31 571.278 1266.31 Q571.278 1269.57 569.75 1271.73 Q568.245 1273.88 565.352 1274.71 M553.639 1260.2 L553.639 1272.47 L559.518 1272.47 Q562.898 1272.47 564.611 1270.92 Q566.347 1269.34 566.347 1266.31 Q566.347 1263.28 564.611 1261.75 Q562.898 1260.2 559.518 1260.2 L553.639 1260.2 Z" fill="#000000" fill-rule="nonzero" fill-opacity="1" /><path clip-path="url(#clip920)" d="M580.236 1256.36 L585.259 1256.36 L593.847 1269.2 L602.481 1256.36 L607.504 1256.36 L596.393 1272.95 L608.245 1290.92 L603.222 1290.92 L593.5 1276.22 L583.708 1290.92 L578.662 1290.92 L591 1272.47 L580.236 1256.36 Z" fill="#000000" fill-rule="nonzero" fill-opacity="1" /><path clip-path="url(#clip920)" d="M649.448 1269.97 Q651.046 1267.1 653.268 1265.73 Q655.49 1264.36 658.499 1264.36 Q662.55 1264.36 664.749 1267.21 Q666.948 1270.04 666.948 1275.27 L666.948 1290.92 L662.666 1290.92 L662.666 1275.41 Q662.666 1271.68 661.347 1269.87 Q660.027 1268.07 657.319 1268.07 Q654.009 1268.07 652.087 1270.27 Q650.166 1272.47 650.166 1276.26 L650.166 1290.92 L645.884 1290.92 L645.884 1275.41 Q645.884 1271.66 644.564 1269.87 Q643.245 1268.07 640.49 1268.07 Q637.226 1268.07 635.305 1270.29 Q633.384 1272.49 633.384 1276.26 L633.384 1290.92 L629.101 1290.92 L629.101 1264.99 L633.384 1264.99 L633.384 1269.02 Q634.842 1266.63 636.879 1265.5 Q638.916 1264.36 641.717 1264.36 Q644.541 1264.36 646.509 1265.8 Q648.499 1267.23 649.448 1269.97 Z" fill="#000000" fill-rule="nonzero" fill-opacity="1" /><path clip-path="url(#clip920)" d="M685.49 1267.98 Q682.064 1267.98 680.073 1270.66 Q678.083 1273.32 678.083 1277.98 Q678.083 1282.63 680.05 1285.31 Q682.041 1287.98 685.49 1287.98 Q688.893 1287.98 690.883 1285.29 Q692.874 1282.61 692.874 1277.98 Q692.874 1273.37 690.883 1270.68 Q688.893 1267.98 685.49 1267.98 M685.49 1264.36 Q691.045 1264.36 694.217 1267.98 Q697.388 1271.59 697.388 1277.98 Q697.388 1284.34 694.217 1287.98 Q691.045 1291.59 685.49 1291.59 Q679.911 1291.59 676.74 1287.98 Q673.592 1284.34 673.592 1277.98 Q673.592 1271.59 676.74 1267.98 Q679.911 1264.36 685.49 1264.36 Z" fill="#000000" fill-rule="nonzero" fill-opacity="1" /><path clip-path="url(#clip920)" d="M721.508 1268.92 L721.508 1254.9 L725.768 1254.9 L725.768 1290.92 L721.508 1290.92 L721.508 1287.03 Q720.166 1289.34 718.106 1290.48 Q716.068 1291.59 713.198 1291.59 Q708.499 1291.59 705.536 1287.84 Q702.596 1284.09 702.596 1277.98 Q702.596 1271.86 705.536 1268.11 Q708.499 1264.36 713.198 1264.36 Q716.068 1264.36 718.106 1265.5 Q720.166 1266.61 721.508 1268.92 M706.994 1277.98 Q706.994 1282.67 708.916 1285.36 Q710.86 1288.02 714.24 1288.02 Q717.619 1288.02 719.564 1285.36 Q721.508 1282.67 721.508 1277.98 Q721.508 1273.28 719.564 1270.61 Q717.619 1267.93 714.24 1267.93 Q710.86 1267.93 708.916 1270.61 Q706.994 1273.28 706.994 1277.98 Z" fill="#000000" fill-rule="nonzero" fill-opacity="1" /><path clip-path="url(#clip920)" d="M756.716 1276.89 L756.716 1278.97 L737.133 1278.97 Q737.411 1283.37 739.772 1285.68 Q742.156 1287.98 746.392 1287.98 Q748.846 1287.98 751.138 1287.37 Q753.453 1286.77 755.721 1285.57 L755.721 1289.6 Q753.429 1290.57 751.022 1291.08 Q748.615 1291.59 746.138 1291.59 Q739.934 1291.59 736.3 1287.98 Q732.689 1284.36 732.689 1278.21 Q732.689 1271.84 736.115 1268.11 Q739.564 1264.36 745.397 1264.36 Q750.628 1264.36 753.661 1267.74 Q756.716 1271.1 756.716 1276.89 M752.457 1275.64 Q752.411 1272.14 750.49 1270.06 Q748.591 1267.98 745.443 1267.98 Q741.879 1267.98 739.726 1269.99 Q737.596 1272 737.272 1275.66 L752.457 1275.64 Z" fill="#000000" fill-rule="nonzero" fill-opacity="1" /><path clip-path="url(#clip920)" d="M763.707 1254.9 L767.966 1254.9 L767.966 1290.92 L763.707 1290.92 L763.707 1254.9 Z" fill="#000000" fill-rule="nonzero" fill-opacity="1" /><path clip-path="url(#clip920)" d="M808.475 1265.75 L808.475 1269.78 Q806.67 1268.86 804.725 1268.39 Q802.781 1267.93 800.698 1267.93 Q797.526 1267.93 795.929 1268.9 Q794.355 1269.87 794.355 1271.82 Q794.355 1273.3 795.489 1274.16 Q796.624 1274.99 800.05 1275.75 L801.508 1276.08 Q806.045 1277.05 807.943 1278.83 Q809.864 1280.59 809.864 1283.76 Q809.864 1287.37 806.994 1289.48 Q804.147 1291.59 799.147 1291.59 Q797.063 1291.59 794.795 1291.17 Q792.55 1290.78 790.05 1289.97 L790.05 1285.57 Q792.411 1286.79 794.702 1287.42 Q796.994 1288.02 799.239 1288.02 Q802.249 1288.02 803.869 1287 Q805.489 1285.96 805.489 1284.09 Q805.489 1282.35 804.309 1281.42 Q803.151 1280.5 799.193 1279.64 L797.712 1279.3 Q793.753 1278.46 791.994 1276.75 Q790.235 1275.01 790.235 1272 Q790.235 1268.35 792.827 1266.36 Q795.42 1264.36 800.188 1264.36 Q802.55 1264.36 804.633 1264.71 Q806.716 1265.06 808.475 1265.75 Z" fill="#000000" fill-rule="nonzero" fill-opacity="1" /><path clip-path="url(#clip920)" d="M816.647 1264.99 L820.906 1264.99 L820.906 1290.92 L816.647 1290.92 L816.647 1264.99 M816.647 1254.9 L820.906 1254.9 L820.906 1260.29 L816.647 1260.29 L816.647 1254.9 Z" fill="#000000" fill-rule="nonzero" fill-opacity="1" /><path clip-path="url(#clip920)" d="M850.003 1269.97 Q851.6 1267.1 853.822 1265.73 Q856.045 1264.36 859.054 1264.36 Q863.105 1264.36 865.304 1267.21 Q867.503 1270.04 867.503 1275.27 L867.503 1290.92 L863.22 1290.92 L863.22 1275.41 Q863.22 1271.68 861.901 1269.87 Q860.582 1268.07 857.873 1268.07 Q854.563 1268.07 852.642 1270.27 Q850.721 1272.47 850.721 1276.26 L850.721 1290.92 L846.438 1290.92 L846.438 1275.41 Q846.438 1271.66 845.119 1269.87 Q843.799 1268.07 841.045 1268.07 Q837.781 1268.07 835.86 1270.29 Q833.938 1272.49 833.938 1276.26 L833.938 1290.92 L829.656 1290.92 L829.656 1264.99 L833.938 1264.99 L833.938 1269.02 Q835.397 1266.63 837.434 1265.5 Q839.471 1264.36 842.272 1264.36 Q845.096 1264.36 847.063 1265.8 Q849.054 1267.23 850.003 1269.97 Z" fill="#000000" fill-rule="nonzero" fill-opacity="1" /><path clip-path="url(#clip920)" d="M904.192 1254.9 L904.192 1258.44 L900.118 1258.44 Q897.827 1258.44 896.924 1259.36 Q896.044 1260.29 896.044 1262.7 L896.044 1264.99 L903.058 1264.99 L903.058 1268.3 L896.044 1268.3 L896.044 1290.92 L891.762 1290.92 L891.762 1268.3 L887.688 1268.3 L887.688 1264.99 L891.762 1264.99 L891.762 1263.18 Q891.762 1258.86 893.776 1256.89 Q895.79 1254.9 900.165 1254.9 L904.192 1254.9 Z" fill="#000000" fill-rule="nonzero" fill-opacity="1" /><path clip-path="url(#clip920)" d="M907.757 1264.99 L912.017 1264.99 L912.017 1290.92 L907.757 1290.92 L907.757 1264.99 M907.757 1254.9 L912.017 1254.9 L912.017 1260.29 L907.757 1260.29 L907.757 1254.9 Z" fill="#000000" fill-rule="nonzero" fill-opacity="1" /><path clip-path="url(#clip920)" d="M925.141 1257.63 L925.141 1264.99 L933.915 1264.99 L933.915 1268.3 L925.141 1268.3 L925.141 1282.37 Q925.141 1285.54 925.998 1286.45 Q926.878 1287.35 929.54 1287.35 L933.915 1287.35 L933.915 1290.92 L929.54 1290.92 Q924.609 1290.92 922.734 1289.09 Q920.859 1287.23 920.859 1282.37 L920.859 1268.3 L917.734 1268.3 L917.734 1264.99 L920.859 1264.99 L920.859 1257.63 L925.141 1257.63 Z" fill="#000000" fill-rule="nonzero" fill-opacity="1" /><path clip-path="url(#clip920)" d="M970.743 1285.04 L975.627 1285.04 L975.627 1290.92 L970.743 1290.92 L970.743 1285.04 M970.743 1266.4 L975.627 1266.4 L975.627 1272.28 L970.743 1272.28 L970.743 1266.4 Z" fill="#000000" fill-rule="nonzero" fill-opacity="1" /><path clip-path="url(#clip920)" d="M983.474 1276.03 L995.951 1276.03 L995.951 1279.83 L983.474 1279.83 L983.474 1276.03 Z" fill="#000000" fill-rule="nonzero" fill-opacity="1" /><path clip-path="url(#clip920)" d="M1004.15 1286.98 L1011.78 1286.98 L1011.78 1260.61 L1003.47 1262.28 L1003.47 1258.02 L1011.74 1256.36 L1016.41 1256.36 L1016.41 1286.98 L1024.05 1286.98 L1024.05 1290.92 L1004.15 1290.92 L1004.15 1286.98 Z" fill="#000000" fill-rule="nonzero" fill-opacity="1" /><path clip-path="url(#clip920)" d="M1043.5 1274.5 Q1040.16 1274.5 1038.24 1276.29 Q1036.34 1278.07 1036.34 1281.19 Q1036.34 1284.32 1038.24 1286.1 Q1040.16 1287.88 1043.5 1287.88 Q1046.83 1287.88 1048.75 1286.1 Q1050.67 1284.29 1050.67 1281.19 Q1050.67 1278.07 1048.75 1276.29 Q1046.85 1274.5 1043.5 1274.5 M1038.82 1272.51 Q1035.81 1271.77 1034.12 1269.71 Q1032.46 1267.65 1032.46 1264.69 Q1032.46 1260.55 1035.4 1258.14 Q1038.36 1255.73 1043.5 1255.73 Q1048.66 1255.73 1051.6 1258.14 Q1054.54 1260.55 1054.54 1264.69 Q1054.54 1267.65 1052.85 1269.71 Q1051.18 1271.77 1048.2 1272.51 Q1051.58 1273.3 1053.45 1275.59 Q1055.35 1277.88 1055.35 1281.19 Q1055.35 1286.22 1052.27 1288.9 Q1049.21 1291.59 1043.5 1291.59 Q1037.78 1291.59 1034.7 1288.9 Q1031.65 1286.22 1031.65 1281.19 Q1031.65 1277.88 1033.54 1275.59 Q1035.44 1273.3 1038.82 1272.51 M1037.11 1265.13 Q1037.11 1267.81 1038.78 1269.32 Q1040.46 1270.82 1043.5 1270.82 Q1046.51 1270.82 1048.2 1269.32 Q1049.91 1267.81 1049.91 1265.13 Q1049.91 1262.44 1048.2 1260.94 Q1046.51 1259.43 1043.5 1259.43 Q1040.46 1259.43 1038.78 1260.94 Q1037.11 1262.44 1037.11 1265.13 Z" fill="#000000" fill-rule="nonzero" fill-opacity="1" /><path clip-path="url(#clip920)" d="M1063.66 1285.04 L1068.54 1285.04 L1068.54 1290.92 L1063.66 1290.92 L1063.66 1285.04 Z" fill="#000000" fill-rule="nonzero" fill-opacity="1" /><path clip-path="url(#clip920)" d="M1077.55 1256.36 L1099.77 1256.36 L1099.77 1258.35 L1087.22 1290.92 L1082.34 1290.92 L1094.15 1260.29 L1077.55 1260.29 L1077.55 1256.36 Z" fill="#000000" fill-rule="nonzero" fill-opacity="1" /><path clip-path="url(#clip920)" d="M1123.06 1272.28 Q1126.41 1273 1128.29 1275.27 Q1130.19 1277.54 1130.19 1280.87 Q1130.19 1285.98 1126.67 1288.79 Q1123.15 1291.59 1116.67 1291.59 Q1114.49 1291.59 1112.18 1291.15 Q1109.89 1290.73 1107.43 1289.87 L1107.43 1285.36 Q1109.38 1286.49 1111.69 1287.07 Q1114.01 1287.65 1116.53 1287.65 Q1120.93 1287.65 1123.22 1285.92 Q1125.53 1284.18 1125.53 1280.87 Q1125.53 1277.81 1123.38 1276.1 Q1121.25 1274.36 1117.43 1274.36 L1113.4 1274.36 L1113.4 1270.52 L1117.62 1270.52 Q1121.07 1270.52 1122.9 1269.16 Q1124.72 1267.77 1124.72 1265.17 Q1124.72 1262.51 1122.83 1261.1 Q1120.95 1259.67 1117.43 1259.67 Q1115.51 1259.67 1113.31 1260.08 Q1111.11 1260.5 1108.47 1261.38 L1108.47 1257.21 Q1111.14 1256.47 1113.45 1256.1 Q1115.79 1255.73 1117.85 1255.73 Q1123.17 1255.73 1126.27 1258.16 Q1129.38 1260.57 1129.38 1264.69 Q1129.38 1267.56 1127.73 1269.55 Q1126.09 1271.52 1123.06 1272.28 Z" fill="#000000" fill-rule="nonzero" fill-opacity="1" /><path clip-path="url(#clip920)" d="M1168.45 1275.71 Q1166.44 1275.71 1165.28 1277.42 Q1164.14 1279.13 1164.14 1282.19 Q1164.14 1285.2 1165.28 1286.93 Q1166.44 1288.65 1168.45 1288.65 Q1170.42 1288.65 1171.55 1286.93 Q1172.71 1285.2 1172.71 1282.19 Q1172.71 1279.16 1171.55 1277.44 Q1170.42 1275.71 1168.45 1275.71 M1168.45 1272.77 Q1172.11 1272.77 1174.26 1275.31 Q1176.41 1277.86 1176.41 1282.19 Q1176.41 1286.52 1174.24 1289.06 Q1172.08 1291.59 1168.45 1291.59 Q1164.75 1291.59 1162.59 1289.06 Q1160.44 1286.52 1160.44 1282.19 Q1160.44 1277.84 1162.59 1275.31 Q1164.77 1272.77 1168.45 1272.77 M1144.56 1258.67 Q1142.57 1258.67 1141.41 1260.41 Q1140.28 1262.12 1140.28 1265.13 Q1140.28 1268.18 1141.41 1269.9 Q1142.55 1271.61 1144.56 1271.61 Q1146.58 1271.61 1147.71 1269.9 Q1148.87 1268.18 1148.87 1265.13 Q1148.87 1262.14 1147.71 1260.41 Q1146.55 1258.67 1144.56 1258.67 M1165.46 1255.73 L1169.17 1255.73 L1147.55 1291.59 L1143.84 1291.59 L1165.46 1255.73 M1144.56 1255.73 Q1148.22 1255.73 1150.39 1258.28 Q1152.57 1260.8 1152.57 1265.13 Q1152.57 1269.5 1150.39 1272.03 Q1148.24 1274.55 1144.56 1274.55 Q1140.88 1274.55 1138.73 1272.03 Q1136.6 1269.48 1136.6 1265.13 Q1136.6 1260.82 1138.75 1258.28 Q1140.9 1255.73 1144.56 1255.73 Z" fill="#000000" fill-rule="nonzero" fill-opacity="1" /><polyline clip-path="url(#clip920)" style="stroke:#3da44d; stroke-linecap:round; stroke-linejoin:round; stroke-width:4; stroke-opacity:1; fill:none" points="349.167,1325.48 488.953,1325.48 "/>
<path clip-path="url(#clip920)" d="M528.083 1312.8 L521.741 1330 L534.449 1330 L528.083 1312.8 M525.445 1308.2 L530.745 1308.2 L543.917 1342.76 L539.056 1342.76 L535.907 1333.89 L520.329 1333.89 L517.181 1342.76 L512.25 1342.76 L525.445 1308.2 Z" fill="#000000" fill-rule="nonzero" fill-opacity="1" /><path clip-path="url(#clip920)" d="M565.352 1326.55 Q566.856 1327.06 568.268 1328.73 Q569.704 1330.39 571.139 1333.31 L575.884 1342.76 L570.861 1342.76 L566.44 1333.89 Q564.727 1330.42 563.106 1329.28 Q561.509 1328.15 558.731 1328.15 L553.639 1328.15 L553.639 1342.76 L548.963 1342.76 L548.963 1308.2 L559.518 1308.2 Q565.444 1308.2 568.361 1310.67 Q571.278 1313.15 571.278 1318.15 Q571.278 1321.41 569.75 1323.57 Q568.245 1325.72 565.352 1326.55 M553.639 1312.04 L553.639 1324.31 L559.518 1324.31 Q562.898 1324.31 564.611 1322.76 Q566.347 1321.18 566.347 1318.15 Q566.347 1315.12 564.611 1313.59 Q562.898 1312.04 559.518 1312.04 L553.639 1312.04 Z" fill="#000000" fill-rule="nonzero" fill-opacity="1" /><path clip-path="url(#clip920)" d="M580.236 1308.2 L585.259 1308.2 L593.847 1321.04 L602.481 1308.2 L607.504 1308.2 L596.393 1324.79 L608.245 1342.76 L603.222 1342.76 L593.5 1328.06 L583.708 1342.76 L578.662 1342.76 L591 1324.31 L580.236 1308.2 Z" fill="#000000" fill-rule="nonzero" fill-opacity="1" /><path clip-path="url(#clip920)" d="M649.448 1321.81 Q651.046 1318.94 653.268 1317.57 Q655.49 1316.2 658.499 1316.2 Q662.55 1316.2 664.749 1319.05 Q666.948 1321.88 666.948 1327.11 L666.948 1342.76 L662.666 1342.76 L662.666 1327.25 Q662.666 1323.52 661.347 1321.71 Q660.027 1319.91 657.319 1319.91 Q654.009 1319.91 652.087 1322.11 Q650.166 1324.31 650.166 1328.1 L650.166 1342.76 L645.884 1342.76 L645.884 1327.25 Q645.884 1323.5 644.564 1321.71 Q643.245 1319.91 640.49 1319.91 Q637.226 1319.91 635.305 1322.13 Q633.384 1324.33 633.384 1328.1 L633.384 1342.76 L629.101 1342.76 L629.101 1316.83 L633.384 1316.83 L633.384 1320.86 Q634.842 1318.47 636.879 1317.34 Q638.916 1316.2 641.717 1316.2 Q644.541 1316.2 646.509 1317.64 Q648.499 1319.07 649.448 1321.81 Z" fill="#000000" fill-rule="nonzero" fill-opacity="1" /><path clip-path="url(#clip920)" d="M685.49 1319.82 Q682.064 1319.82 680.073 1322.5 Q678.083 1325.16 678.083 1329.82 Q678.083 1334.47 680.05 1337.15 Q682.041 1339.82 685.49 1339.82 Q688.893 1339.82 690.883 1337.13 Q692.874 1334.45 692.874 1329.82 Q692.874 1325.21 690.883 1322.52 Q688.893 1319.82 685.49 1319.82 M685.49 1316.2 Q691.045 1316.2 694.217 1319.82 Q697.388 1323.43 697.388 1329.82 Q697.388 1336.18 694.217 1339.82 Q691.045 1343.43 685.49 1343.43 Q679.911 1343.43 676.74 1339.82 Q673.592 1336.18 673.592 1329.82 Q673.592 1323.43 676.74 1319.82 Q679.911 1316.2 685.49 1316.2 Z" fill="#000000" fill-rule="nonzero" fill-opacity="1" /><path clip-path="url(#clip920)" d="M721.508 1320.76 L721.508 1306.74 L725.768 1306.74 L725.768 1342.76 L721.508 1342.76 L721.508 1338.87 Q720.166 1341.18 718.106 1342.32 Q716.068 1343.43 713.198 1343.43 Q708.499 1343.43 705.536 1339.68 Q702.596 1335.93 702.596 1329.82 Q702.596 1323.7 705.536 1319.95 Q708.499 1316.2 713.198 1316.2 Q716.068 1316.2 718.106 1317.34 Q720.166 1318.45 721.508 1320.76 M706.994 1329.82 Q706.994 1334.51 708.916 1337.2 Q710.86 1339.86 714.24 1339.86 Q717.619 1339.86 719.564 1337.2 Q721.508 1334.51 721.508 1329.82 Q721.508 1325.12 719.564 1322.45 Q717.619 1319.77 714.24 1319.77 Q710.86 1319.77 708.916 1322.45 Q706.994 1325.12 706.994 1329.82 Z" fill="#000000" fill-rule="nonzero" fill-opacity="1" /><path clip-path="url(#clip920)" d="M756.716 1328.73 L756.716 1330.81 L737.133 1330.81 Q737.411 1335.21 739.772 1337.52 Q742.156 1339.82 746.392 1339.82 Q748.846 1339.82 751.138 1339.21 Q753.453 1338.61 755.721 1337.41 L755.721 1341.44 Q753.429 1342.41 751.022 1342.92 Q748.615 1343.43 746.138 1343.43 Q739.934 1343.43 736.3 1339.82 Q732.689 1336.2 732.689 1330.05 Q732.689 1323.68 736.115 1319.95 Q739.564 1316.2 745.397 1316.2 Q750.628 1316.2 753.661 1319.58 Q756.716 1322.94 756.716 1328.73 M752.457 1327.48 Q752.411 1323.98 750.49 1321.9 Q748.591 1319.82 745.443 1319.82 Q741.879 1319.82 739.726 1321.83 Q737.596 1323.84 737.272 1327.5 L752.457 1327.48 Z" fill="#000000" fill-rule="nonzero" fill-opacity="1" /><path clip-path="url(#clip920)" d="M763.707 1306.74 L767.966 1306.74 L767.966 1342.76 L763.707 1342.76 L763.707 1306.74 Z" fill="#000000" fill-rule="nonzero" fill-opacity="1" /><path clip-path="url(#clip920)" d="M789.471 1316.83 L793.73 1316.83 L799.054 1337.06 L804.355 1316.83 L809.378 1316.83 L814.702 1337.06 L820.003 1316.83 L824.262 1316.83 L817.48 1342.76 L812.457 1342.76 L806.878 1321.51 L801.276 1342.76 L796.253 1342.76 L789.471 1316.83 Z" fill="#000000" fill-rule="nonzero" fill-opacity="1" /><path clip-path="url(#clip920)" d="M830.721 1316.83 L834.98 1316.83 L834.98 1342.76 L830.721 1342.76 L830.721 1316.83 M830.721 1306.74 L834.98 1306.74 L834.98 1312.13 L830.721 1312.13 L830.721 1306.74 Z" fill="#000000" fill-rule="nonzero" fill-opacity="1" /><path clip-path="url(#clip920)" d="M848.105 1309.47 L848.105 1316.83 L856.878 1316.83 L856.878 1320.14 L848.105 1320.14 L848.105 1334.21 Q848.105 1337.38 848.961 1338.29 Q849.841 1339.19 852.503 1339.19 L856.878 1339.19 L856.878 1342.76 L852.503 1342.76 Q847.572 1342.76 845.697 1340.93 Q843.822 1339.07 843.822 1334.21 L843.822 1320.14 L840.697 1320.14 L840.697 1316.83 L843.822 1316.83 L843.822 1309.47 L848.105 1309.47 Z" fill="#000000" fill-rule="nonzero" fill-opacity="1" /><path clip-path="url(#clip920)" d="M884.031 1327.11 L884.031 1342.76 L879.771 1342.76 L879.771 1327.25 Q879.771 1323.57 878.336 1321.74 Q876.901 1319.91 874.031 1319.91 Q870.582 1319.91 868.591 1322.11 Q866.6 1324.31 866.6 1328.1 L866.6 1342.76 L862.318 1342.76 L862.318 1306.74 L866.6 1306.74 L866.6 1320.86 Q868.128 1318.52 870.188 1317.36 Q872.271 1316.2 874.98 1316.2 Q879.447 1316.2 881.739 1318.98 Q884.031 1321.74 884.031 1327.11 Z" fill="#000000" fill-rule="nonzero" fill-opacity="1" /><path clip-path="url(#clip920)" d="M924.655 1320.76 L924.655 1306.74 L928.915 1306.74 L928.915 1342.76 L924.655 1342.76 L924.655 1338.87 Q923.313 1341.18 921.253 1342.32 Q919.216 1343.43 916.345 1343.43 Q911.646 1343.43 908.683 1339.68 Q905.743 1335.93 905.743 1329.82 Q905.743 1323.7 908.683 1319.95 Q911.646 1316.2 916.345 1316.2 Q919.216 1316.2 921.253 1317.34 Q923.313 1318.45 924.655 1320.76 M910.142 1329.82 Q910.142 1334.51 912.063 1337.2 Q914.007 1339.86 917.387 1339.86 Q920.766 1339.86 922.711 1337.2 Q924.655 1334.51 924.655 1329.82 Q924.655 1325.12 922.711 1322.45 Q920.766 1319.77 917.387 1319.77 Q914.007 1319.77 912.063 1322.45 Q910.142 1325.12 910.142 1329.82 Z" fill="#000000" fill-rule="nonzero" fill-opacity="1" /><path clip-path="url(#clip920)" d="M959.863 1328.73 L959.863 1330.81 L940.28 1330.81 Q940.558 1335.21 942.919 1337.52 Q945.303 1339.82 949.539 1339.82 Q951.993 1339.82 954.285 1339.21 Q956.6 1338.61 958.868 1337.41 L958.868 1341.44 Q956.576 1342.41 954.169 1342.92 Q951.762 1343.43 949.285 1343.43 Q943.081 1343.43 939.447 1339.82 Q935.836 1336.2 935.836 1330.05 Q935.836 1323.68 939.262 1319.95 Q942.711 1316.2 948.544 1316.2 Q953.776 1316.2 956.808 1319.58 Q959.863 1322.94 959.863 1328.73 M955.604 1327.48 Q955.558 1323.98 953.637 1321.9 Q951.739 1319.82 948.59 1319.82 Q945.026 1319.82 942.873 1321.83 Q940.743 1323.84 940.419 1327.5 L955.604 1327.48 Z" fill="#000000" fill-rule="nonzero" fill-opacity="1" /><path clip-path="url(#clip920)" d="M966.854 1306.74 L971.113 1306.74 L971.113 1342.76 L966.854 1342.76 L966.854 1306.74 Z" fill="#000000" fill-rule="nonzero" fill-opacity="1" /><path clip-path="url(#clip920)" d="M991.808 1329.72 Q986.646 1329.72 984.655 1330.9 Q982.664 1332.08 982.664 1334.93 Q982.664 1337.2 984.146 1338.54 Q985.65 1339.86 988.22 1339.86 Q991.761 1339.86 993.891 1337.36 Q996.044 1334.84 996.044 1330.67 L996.044 1329.72 L991.808 1329.72 M1000.3 1327.96 L1000.3 1342.76 L996.044 1342.76 L996.044 1338.82 Q994.586 1341.18 992.41 1342.32 Q990.234 1343.43 987.086 1343.43 Q983.104 1343.43 980.743 1341.2 Q978.405 1338.96 978.405 1335.21 Q978.405 1330.83 981.322 1328.61 Q984.261 1326.39 990.072 1326.39 L996.044 1326.39 L996.044 1325.97 Q996.044 1323.03 994.099 1321.44 Q992.178 1319.82 988.683 1319.82 Q986.461 1319.82 984.354 1320.35 Q982.248 1320.88 980.303 1321.95 L980.303 1318.01 Q982.641 1317.11 984.84 1316.67 Q987.039 1316.2 989.123 1316.2 Q994.748 1316.2 997.525 1319.12 Q1000.3 1322.04 1000.3 1327.96 Z" fill="#000000" fill-rule="nonzero" fill-opacity="1" /><path clip-path="url(#clip920)" d="M1019.86 1345.16 Q1018.06 1349.79 1016.34 1351.2 Q1014.63 1352.62 1011.76 1352.62 L1008.36 1352.62 L1008.36 1349.05 L1010.86 1349.05 Q1012.62 1349.05 1013.59 1348.22 Q1014.56 1347.38 1015.74 1344.28 L1016.51 1342.34 L1006.02 1316.83 L1010.53 1316.83 L1018.64 1337.11 L1026.74 1316.83 L1031.25 1316.83 L1019.86 1345.16 Z" fill="#000000" fill-rule="nonzero" fill-opacity="1" /><path clip-path="url(#clip920)" d="M1068.73 1317.59 L1068.73 1321.62 Q1066.92 1320.7 1064.98 1320.23 Q1063.03 1319.77 1060.95 1319.77 Q1057.78 1319.77 1056.18 1320.74 Q1054.61 1321.71 1054.61 1323.66 Q1054.61 1325.14 1055.74 1326 Q1056.88 1326.83 1060.3 1327.59 L1061.76 1327.92 Q1066.3 1328.89 1068.2 1330.67 Q1070.12 1332.43 1070.12 1335.6 Q1070.12 1339.21 1067.25 1341.32 Q1064.4 1343.43 1059.4 1343.43 Q1057.32 1343.43 1055.05 1343.01 Q1052.8 1342.62 1050.3 1341.81 L1050.3 1337.41 Q1052.66 1338.63 1054.96 1339.26 Q1057.25 1339.86 1059.49 1339.86 Q1062.5 1339.86 1064.12 1338.84 Q1065.74 1337.8 1065.74 1335.93 Q1065.74 1334.19 1064.56 1333.26 Q1063.4 1332.34 1059.45 1331.48 L1057.96 1331.14 Q1054.01 1330.3 1052.25 1328.59 Q1050.49 1326.85 1050.49 1323.84 Q1050.49 1320.19 1053.08 1318.2 Q1055.67 1316.2 1060.44 1316.2 Q1062.8 1316.2 1064.89 1316.55 Q1066.97 1316.9 1068.73 1317.59 Z" fill="#000000" fill-rule="nonzero" fill-opacity="1" /><path clip-path="url(#clip920)" d="M1076.9 1316.83 L1081.16 1316.83 L1081.16 1342.76 L1076.9 1342.76 L1076.9 1316.83 M1076.9 1306.74 L1081.16 1306.74 L1081.16 1312.13 L1076.9 1312.13 L1076.9 1306.74 Z" fill="#000000" fill-rule="nonzero" fill-opacity="1" /><path clip-path="url(#clip920)" d="M1110.26 1321.81 Q1111.85 1318.94 1114.08 1317.57 Q1116.3 1316.2 1119.31 1316.2 Q1123.36 1316.2 1125.56 1319.05 Q1127.76 1321.88 1127.76 1327.11 L1127.76 1342.76 L1123.47 1342.76 L1123.47 1327.25 Q1123.47 1323.52 1122.15 1321.71 Q1120.83 1319.91 1118.13 1319.91 Q1114.82 1319.91 1112.9 1322.11 Q1110.97 1324.31 1110.97 1328.1 L1110.97 1342.76 L1106.69 1342.76 L1106.69 1327.25 Q1106.69 1323.5 1105.37 1321.71 Q1104.05 1319.91 1101.3 1319.91 Q1098.03 1319.91 1096.11 1322.13 Q1094.19 1324.33 1094.19 1328.1 L1094.19 1342.76 L1089.91 1342.76 L1089.91 1316.83 L1094.19 1316.83 L1094.19 1320.86 Q1095.65 1318.47 1097.69 1317.34 Q1099.72 1316.2 1102.52 1316.2 Q1105.35 1316.2 1107.32 1317.64 Q1109.31 1319.07 1110.26 1321.81 Z" fill="#000000" fill-rule="nonzero" fill-opacity="1" /><path clip-path="url(#clip920)" d="M1164.45 1306.74 L1164.45 1310.28 L1160.37 1310.28 Q1158.08 1310.28 1157.18 1311.2 Q1156.3 1312.13 1156.3 1314.54 L1156.3 1316.83 L1163.31 1316.83 L1163.31 1320.14 L1156.3 1320.14 L1156.3 1342.76 L1152.02 1342.76 L1152.02 1320.14 L1147.94 1320.14 L1147.94 1316.83 L1152.02 1316.83 L1152.02 1315.02 Q1152.02 1310.7 1154.03 1308.73 Q1156.04 1306.74 1160.42 1306.74 L1164.45 1306.74 Z" fill="#000000" fill-rule="nonzero" fill-opacity="1" /><path clip-path="url(#clip920)" d="M1168.01 1316.83 L1172.27 1316.83 L1172.27 1342.76 L1168.01 1342.76 L1168.01 1316.83 M1168.01 1306.74 L1172.27 1306.74 L1172.27 1312.13 L1168.01 1312.13 L1168.01 1306.74 Z" fill="#000000" fill-rule="nonzero" fill-opacity="1" /><path clip-path="url(#clip920)" d="M1185.39 1309.47 L1185.39 1316.83 L1194.17 1316.83 L1194.17 1320.14 L1185.39 1320.14 L1185.39 1334.21 Q1185.39 1337.38 1186.25 1338.29 Q1187.13 1339.19 1189.79 1339.19 L1194.17 1339.19 L1194.17 1342.76 L1189.79 1342.76 Q1184.86 1342.76 1182.99 1340.93 Q1181.11 1339.07 1181.11 1334.21 L1181.11 1320.14 L1177.99 1320.14 L1177.99 1316.83 L1181.11 1316.83 L1181.11 1309.47 L1185.39 1309.47 Z" fill="#000000" fill-rule="nonzero" fill-opacity="1" /><path clip-path="url(#clip920)" d="M1231 1336.88 L1235.88 1336.88 L1235.88 1342.76 L1231 1342.76 L1231 1336.88 M1231 1318.24 L1235.88 1318.24 L1235.88 1324.12 L1231 1324.12 L1231 1318.24 Z" fill="#000000" fill-rule="nonzero" fill-opacity="1" /><path clip-path="url(#clip920)" d="M1247.29 1338.82 L1254.93 1338.82 L1254.93 1312.45 L1246.62 1314.12 L1246.62 1309.86 L1254.89 1308.2 L1259.56 1308.2 L1259.56 1338.82 L1267.2 1338.82 L1267.2 1342.76 L1247.29 1342.76 L1247.29 1338.82 Z" fill="#000000" fill-rule="nonzero" fill-opacity="1" /><path clip-path="url(#clip920)" d="M1286.64 1311.27 Q1283.03 1311.27 1281.2 1314.84 Q1279.4 1318.38 1279.4 1325.51 Q1279.4 1332.62 1281.2 1336.18 Q1283.03 1339.72 1286.64 1339.72 Q1290.28 1339.72 1292.08 1336.18 Q1293.91 1332.62 1293.91 1325.51 Q1293.91 1318.38 1292.08 1314.84 Q1290.28 1311.27 1286.64 1311.27 M1286.64 1307.57 Q1292.45 1307.57 1295.51 1312.18 Q1298.59 1316.76 1298.59 1325.51 Q1298.59 1334.24 1295.51 1338.84 Q1292.45 1343.43 1286.64 1343.43 Q1280.83 1343.43 1277.76 1338.84 Q1274.7 1334.24 1274.7 1325.51 Q1274.7 1316.76 1277.76 1312.18 Q1280.83 1307.57 1286.64 1307.57 Z" fill="#000000" fill-rule="nonzero" fill-opacity="1" /><path clip-path="url(#clip920)" d="M1316.81 1311.27 Q1313.19 1311.27 1311.37 1314.84 Q1309.56 1318.38 1309.56 1325.51 Q1309.56 1332.62 1311.37 1336.18 Q1313.19 1339.72 1316.81 1339.72 Q1320.44 1339.72 1322.25 1336.18 Q1324.07 1332.62 1324.07 1325.51 Q1324.07 1318.38 1322.25 1314.84 Q1320.44 1311.27 1316.81 1311.27 M1316.81 1307.57 Q1322.62 1307.57 1325.67 1312.18 Q1328.75 1316.76 1328.75 1325.51 Q1328.75 1334.24 1325.67 1338.84 Q1322.62 1343.43 1316.81 1343.43 Q1311 1343.43 1307.92 1338.84 Q1304.86 1334.24 1304.86 1325.51 Q1304.86 1316.76 1307.92 1312.18 Q1311 1307.57 1316.81 1307.57 Z" fill="#000000" fill-rule="nonzero" fill-opacity="1" /><path clip-path="url(#clip920)" d="M1336.97 1336.88 L1341.85 1336.88 L1341.85 1342.76 L1336.97 1342.76 L1336.97 1336.88 Z" fill="#000000" fill-rule="nonzero" fill-opacity="1" /><path clip-path="url(#clip920)" d="M1362.04 1311.27 Q1358.43 1311.27 1356.6 1314.84 Q1354.79 1318.38 1354.79 1325.51 Q1354.79 1332.62 1356.6 1336.18 Q1358.43 1339.72 1362.04 1339.72 Q1365.67 1339.72 1367.48 1336.18 Q1369.31 1332.62 1369.31 1325.51 Q1369.31 1318.38 1367.48 1314.84 Q1365.67 1311.27 1362.04 1311.27 M1362.04 1307.57 Q1367.85 1307.57 1370.9 1312.18 Q1373.98 1316.76 1373.98 1325.51 Q1373.98 1334.24 1370.9 1338.84 Q1367.85 1343.43 1362.04 1343.43 Q1356.23 1343.43 1353.15 1338.84 Q1350.09 1334.24 1350.09 1325.51 Q1350.09 1316.76 1353.15 1312.18 Q1356.23 1307.57 1362.04 1307.57 Z" fill="#000000" fill-rule="nonzero" fill-opacity="1" /><path clip-path="url(#clip920)" d="M1411.6 1327.55 Q1409.58 1327.55 1408.43 1329.26 Q1407.29 1330.97 1407.29 1334.03 Q1407.29 1337.04 1408.43 1338.77 Q1409.58 1340.49 1411.6 1340.49 Q1413.56 1340.49 1414.7 1338.77 Q1415.86 1337.04 1415.86 1334.03 Q1415.86 1331 1414.7 1329.28 Q1413.56 1327.55 1411.6 1327.55 M1411.6 1324.61 Q1415.25 1324.61 1417.41 1327.15 Q1419.56 1329.7 1419.56 1334.03 Q1419.56 1338.36 1417.38 1340.9 Q1415.23 1343.43 1411.6 1343.43 Q1407.89 1343.43 1405.74 1340.9 Q1403.59 1338.36 1403.59 1334.03 Q1403.59 1329.68 1405.74 1327.15 Q1407.92 1324.61 1411.6 1324.61 M1387.71 1310.51 Q1385.72 1310.51 1384.56 1312.25 Q1383.43 1313.96 1383.43 1316.97 Q1383.43 1320.02 1384.56 1321.74 Q1385.69 1323.45 1387.71 1323.45 Q1389.72 1323.45 1390.86 1321.74 Q1392.01 1320.02 1392.01 1316.97 Q1392.01 1313.98 1390.86 1312.25 Q1389.7 1310.51 1387.71 1310.51 M1408.61 1307.57 L1412.31 1307.57 L1390.69 1343.43 L1386.99 1343.43 L1408.61 1307.57 M1387.71 1307.57 Q1391.37 1307.57 1393.54 1310.12 Q1395.72 1312.64 1395.72 1316.97 Q1395.72 1321.34 1393.54 1323.87 Q1391.39 1326.39 1387.71 1326.39 Q1384.03 1326.39 1381.88 1323.87 Q1379.75 1321.32 1379.75 1316.97 Q1379.75 1312.66 1381.9 1310.12 Q1384.05 1307.57 1387.71 1307.57 Z" fill="#000000" fill-rule="nonzero" fill-opacity="1" /></svg>
