<?xml version="1.0" encoding="utf-8"?>
<svg xmlns="http://www.w3.org/2000/svg" xmlns:xlink="http://www.w3.org/1999/xlink" width="600" height="400" viewBox="0 0 2400 1600">
<defs>
  <clipPath id="clip830">
    <rect x="0" y="0" width="2400" height="1600"/>
  </clipPath>
</defs>
<path clip-path="url(#clip830)" d="M0 1600 L2400 1600 L2400 0 L0 0  Z" fill="#ffffff" fill-rule="evenodd" fill-opacity="1"/>
<defs>
  <clipPath id="clip831">
    <rect x="257" y="847" width="2097" height="577"/>
  </clipPath>
</defs>
<path clip-path="url(#clip830)" d="M257.204 623.18 L2352.76 623.18 L2352.76 47.2441 L257.204 47.2441  Z" fill="#ffffff" fill-rule="evenodd" fill-opacity="1"/>
<defs>
  <clipPath id="clip832">
    <rect x="257" y="47" width="2097" height="577"/>
  </clipPath>
</defs>
<polyline clip-path="url(#clip832)" style="stroke:#000000; stroke-linecap:round; stroke-linejoin:round; stroke-width:2; stroke-opacity:0.1; fill:none" points="316.512,623.18 316.512,47.2441 "/>
<polyline clip-path="url(#clip832)" style="stroke:#000000; stroke-linecap:round; stroke-linejoin:round; stroke-width:2; stroke-opacity:0.1; fill:none" points="712.692,623.18 712.692,47.2441 "/>
<polyline clip-path="url(#clip832)" style="stroke:#000000; stroke-linecap:round; stroke-linejoin:round; stroke-width:2; stroke-opacity:0.1; fill:none" points="1108.87,623.18 1108.87,47.2441 "/>
<polyline clip-path="url(#clip832)" style="stroke:#000000; stroke-linecap:round; stroke-linejoin:round; stroke-width:2; stroke-opacity:0.1; fill:none" points="1505.05,623.18 1505.05,47.2441 "/>
<polyline clip-path="url(#clip832)" style="stroke:#000000; stroke-linecap:round; stroke-linejoin:round; stroke-width:2; stroke-opacity:0.1; fill:none" points="1901.23,623.18 1901.23,47.2441 "/>
<polyline clip-path="url(#clip832)" style="stroke:#000000; stroke-linecap:round; stroke-linejoin:round; stroke-width:2; stroke-opacity:0.1; fill:none" points="2297.41,623.18 2297.41,47.2441 "/>
<polyline clip-path="url(#clip832)" style="stroke:#000000; stroke-linecap:round; stroke-linejoin:round; stroke-width:2; stroke-opacity:0.1; fill:none" points="257.204,622.492 2352.76,622.492 "/>
<polyline clip-path="url(#clip832)" style="stroke:#000000; stroke-linecap:round; stroke-linejoin:round; stroke-width:2; stroke-opacity:0.1; fill:none" points="257.204,435.103 2352.76,435.103 "/>
<polyline clip-path="url(#clip832)" style="stroke:#000000; stroke-linecap:round; stroke-linejoin:round; stroke-width:2; stroke-opacity:0.1; fill:none" points="257.204,247.715 2352.76,247.715 "/>
<polyline clip-path="url(#clip832)" style="stroke:#000000; stroke-linecap:round; stroke-linejoin:round; stroke-width:2; stroke-opacity:0.1; fill:none" points="257.204,60.3259 2352.76,60.3259 "/>
<polyline clip-path="url(#clip830)" style="stroke:#000000; stroke-linecap:round; stroke-linejoin:round; stroke-width:4; stroke-opacity:1; fill:none" points="257.204,623.18 2352.76,623.18 "/>
<polyline clip-path="url(#clip830)" style="stroke:#000000; stroke-linecap:round; stroke-linejoin:round; stroke-width:4; stroke-opacity:1; fill:none" points="316.512,623.18 316.512,604.282 "/>
<polyline clip-path="url(#clip830)" style="stroke:#000000; stroke-linecap:round; stroke-linejoin:round; stroke-width:4; stroke-opacity:1; fill:none" points="712.692,623.18 712.692,604.282 "/>
<polyline clip-path="url(#clip830)" style="stroke:#000000; stroke-linecap:round; stroke-linejoin:round; stroke-width:4; stroke-opacity:1; fill:none" points="1108.87,623.18 1108.87,604.282 "/>
<polyline clip-path="url(#clip830)" style="stroke:#000000; stroke-linecap:round; stroke-linejoin:round; stroke-width:4; stroke-opacity:1; fill:none" points="1505.05,623.18 1505.05,604.282 "/>
<polyline clip-path="url(#clip830)" style="stroke:#000000; stroke-linecap:round; stroke-linejoin:round; stroke-width:4; stroke-opacity:1; fill:none" points="1901.23,623.18 1901.23,604.282 "/>
<polyline clip-path="url(#clip830)" style="stroke:#000000; stroke-linecap:round; stroke-linejoin:round; stroke-width:4; stroke-opacity:1; fill:none" points="2297.41,623.18 2297.41,604.282 "/>
<path clip-path="url(#clip830)" d="M316.512 654.099 Q312.901 654.099 311.072 657.663 Q309.267 661.205 309.267 668.335 Q309.267 675.441 311.072 679.006 Q312.901 682.547 316.512 682.547 Q320.146 682.547 321.952 679.006 Q323.781 675.441 323.781 668.335 Q323.781 661.205 321.952 657.663 Q320.146 654.099 316.512 654.099 M316.512 650.395 Q322.322 650.395 325.378 655.001 Q328.456 659.585 328.456 668.335 Q328.456 677.061 325.378 681.668 Q322.322 686.251 316.512 686.251 Q310.702 686.251 307.623 681.668 Q304.568 677.061 304.568 668.335 Q304.568 659.585 307.623 655.001 Q310.702 650.395 316.512 650.395 Z" fill="#000000" fill-rule="nonzero" fill-opacity="1" /><path clip-path="url(#clip830)" d="M703.074 681.645 L710.712 681.645 L710.712 655.279 L702.402 656.946 L702.402 652.687 L710.666 651.02 L715.342 651.02 L715.342 681.645 L722.981 681.645 L722.981 685.58 L703.074 685.58 L703.074 681.645 Z" fill="#000000" fill-rule="nonzero" fill-opacity="1" /><path clip-path="url(#clip830)" d="M1103.52 681.645 L1119.84 681.645 L1119.84 685.58 L1097.9 685.58 L1097.9 681.645 Q1100.56 678.89 1105.14 674.26 Q1109.75 669.608 1110.93 668.265 Q1113.18 665.742 1114.06 664.006 Q1114.96 662.247 1114.96 660.557 Q1114.96 657.802 1113.01 656.066 Q1111.09 654.33 1107.99 654.33 Q1105.79 654.33 1103.34 655.094 Q1100.91 655.858 1098.13 657.409 L1098.13 652.687 Q1100.95 651.552 1103.41 650.974 Q1105.86 650.395 1107.9 650.395 Q1113.27 650.395 1116.46 653.08 Q1119.66 655.765 1119.66 660.256 Q1119.66 662.386 1118.85 664.307 Q1118.06 666.205 1115.95 668.798 Q1115.38 669.469 1112.27 672.686 Q1109.17 675.881 1103.52 681.645 Z" fill="#000000" fill-rule="nonzero" fill-opacity="1" /><path clip-path="url(#clip830)" d="M1509.3 666.946 Q1512.65 667.663 1514.53 669.932 Q1516.43 672.2 1516.43 675.534 Q1516.43 680.649 1512.91 683.45 Q1509.39 686.251 1502.91 686.251 Q1500.73 686.251 1498.42 685.811 Q1496.13 685.395 1493.67 684.538 L1493.67 680.024 Q1495.62 681.159 1497.93 681.737 Q1500.25 682.316 1502.77 682.316 Q1507.17 682.316 1509.46 680.58 Q1511.78 678.844 1511.78 675.534 Q1511.78 672.478 1509.62 670.765 Q1507.49 669.029 1503.67 669.029 L1499.65 669.029 L1499.65 665.186 L1503.86 665.186 Q1507.31 665.186 1509.14 663.821 Q1510.96 662.432 1510.96 659.839 Q1510.96 657.177 1509.07 655.765 Q1507.19 654.33 1503.67 654.33 Q1501.75 654.33 1499.55 654.747 Q1497.35 655.163 1494.72 656.043 L1494.72 651.876 Q1497.38 651.136 1499.69 650.765 Q1502.03 650.395 1504.09 650.395 Q1509.41 650.395 1512.52 652.825 Q1515.62 655.233 1515.62 659.353 Q1515.62 662.223 1513.97 664.214 Q1512.33 666.182 1509.3 666.946 Z" fill="#000000" fill-rule="nonzero" fill-opacity="1" /><path clip-path="url(#clip830)" d="M1904.24 655.094 L1892.43 673.543 L1904.24 673.543 L1904.24 655.094 M1903.01 651.02 L1908.89 651.02 L1908.89 673.543 L1913.82 673.543 L1913.82 677.432 L1908.89 677.432 L1908.89 685.58 L1904.24 685.58 L1904.24 677.432 L1888.64 677.432 L1888.64 672.918 L1903.01 651.02 Z" fill="#000000" fill-rule="nonzero" fill-opacity="1" /><path clip-path="url(#clip830)" d="M2287.69 651.02 L2306.04 651.02 L2306.04 654.955 L2291.97 654.955 L2291.97 663.427 Q2292.99 663.08 2294.01 662.918 Q2295.03 662.733 2296.04 662.733 Q2301.83 662.733 2305.21 665.904 Q2308.59 669.075 2308.59 674.492 Q2308.59 680.071 2305.12 683.172 Q2301.65 686.251 2295.33 686.251 Q2293.15 686.251 2290.88 685.881 Q2288.64 685.51 2286.23 684.77 L2286.23 680.071 Q2288.31 681.205 2290.53 681.76 Q2292.76 682.316 2295.23 682.316 Q2299.24 682.316 2301.58 680.21 Q2303.91 678.103 2303.91 674.492 Q2303.91 670.881 2301.58 668.774 Q2299.24 666.668 2295.23 666.668 Q2293.36 666.668 2291.48 667.085 Q2289.63 667.501 2287.69 668.381 L2287.69 651.02 Z" fill="#000000" fill-rule="nonzero" fill-opacity="1" /><path clip-path="url(#clip830)" d="M1175.15 720.524 L1215.35 720.524 L1215.35 725.935 L1198.48 725.935 L1198.48 768.044 L1192.02 768.044 L1192.02 725.935 L1175.15 725.935 L1175.15 720.524 Z" fill="#000000" fill-rule="nonzero" fill-opacity="1" /><path clip-path="url(#clip830)" d="M1219.3 732.396 L1225.15 732.396 L1225.15 768.044 L1219.3 768.044 L1219.3 732.396 M1219.3 718.519 L1225.15 718.519 L1225.15 725.935 L1219.3 725.935 L1219.3 718.519 Z" fill="#000000" fill-rule="nonzero" fill-opacity="1" /><path clip-path="url(#clip830)" d="M1265.16 739.239 Q1267.36 735.292 1270.41 733.414 Q1273.47 731.537 1277.61 731.537 Q1283.18 731.537 1286.2 735.451 Q1289.22 739.335 1289.22 746.528 L1289.22 768.044 L1283.34 768.044 L1283.34 746.719 Q1283.34 741.594 1281.52 739.112 Q1279.71 736.629 1275.98 736.629 Q1271.43 736.629 1268.79 739.653 Q1266.15 742.677 1266.15 747.896 L1266.15 768.044 L1260.26 768.044 L1260.26 746.719 Q1260.26 741.563 1258.45 739.112 Q1256.63 736.629 1252.84 736.629 Q1248.36 736.629 1245.72 739.685 Q1243.07 742.708 1243.07 747.896 L1243.07 768.044 L1237.19 768.044 L1237.19 732.396 L1243.07 732.396 L1243.07 737.934 Q1245.08 734.656 1247.88 733.096 Q1250.68 731.537 1254.53 731.537 Q1258.41 731.537 1261.12 733.51 Q1263.86 735.483 1265.16 739.239 Z" fill="#000000" fill-rule="nonzero" fill-opacity="1" /><path clip-path="url(#clip830)" d="M1331.4 748.756 L1331.4 751.62 L1304.47 751.62 Q1304.85 757.668 1308.1 760.851 Q1311.38 764.002 1317.2 764.002 Q1320.58 764.002 1323.73 763.174 Q1326.91 762.347 1330.03 760.691 L1330.03 766.23 Q1326.88 767.566 1323.57 768.267 Q1320.26 768.967 1316.85 768.967 Q1308.32 768.967 1303.32 764.002 Q1298.36 759.036 1298.36 750.57 Q1298.36 741.817 1303.07 736.693 Q1307.81 731.537 1315.83 731.537 Q1323.03 731.537 1327.2 736.183 Q1331.4 740.799 1331.4 748.756 M1325.54 747.037 Q1325.48 742.231 1322.84 739.366 Q1320.23 736.502 1315.9 736.502 Q1311 736.502 1308.04 739.271 Q1305.11 742.04 1304.66 747.069 L1325.54 747.037 Z" fill="#000000" fill-rule="nonzero" fill-opacity="1" /><path clip-path="url(#clip830)" d="M1375.8 718.582 Q1371.53 725.903 1369.46 733.064 Q1367.4 740.226 1367.4 747.578 Q1367.4 754.93 1369.46 762.156 Q1371.57 769.349 1375.8 776.638 L1370.71 776.638 Q1365.93 769.158 1363.54 761.933 Q1361.19 754.708 1361.19 747.578 Q1361.19 740.48 1363.54 733.287 Q1365.9 726.094 1370.71 718.582 L1375.8 718.582 Z" fill="#000000" fill-rule="nonzero" fill-opacity="1" /><path clip-path="url(#clip830)" d="M1409.89 733.446 L1409.89 738.984 Q1407.4 737.711 1404.73 737.075 Q1402.06 736.438 1399.19 736.438 Q1394.83 736.438 1392.64 737.775 Q1390.47 739.112 1390.47 741.785 Q1390.47 743.822 1392.03 745 Q1393.59 746.146 1398.3 747.196 L1400.31 747.642 Q1406.54 748.979 1409.15 751.429 Q1411.8 753.848 1411.8 758.209 Q1411.8 763.174 1407.85 766.07 Q1403.93 768.967 1397.06 768.967 Q1394.2 768.967 1391.08 768.394 Q1387.99 767.853 1384.55 766.739 L1384.55 760.691 Q1387.8 762.378 1390.95 763.238 Q1394.1 764.065 1397.19 764.065 Q1401.32 764.065 1403.55 762.665 Q1405.78 761.233 1405.78 758.654 Q1405.78 756.267 1404.16 754.994 Q1402.57 753.721 1397.12 752.543 L1395.09 752.066 Q1389.64 750.92 1387.22 748.565 Q1384.81 746.178 1384.81 742.04 Q1384.81 737.011 1388.37 734.274 Q1391.94 731.537 1398.49 731.537 Q1401.74 731.537 1404.6 732.014 Q1407.47 732.491 1409.89 733.446 Z" fill="#000000" fill-rule="nonzero" fill-opacity="1" /><path clip-path="url(#clip830)" d="M1420.2 718.582 L1425.29 718.582 Q1430.07 726.094 1432.42 733.287 Q1434.81 740.48 1434.81 747.578 Q1434.81 754.708 1432.42 761.933 Q1430.07 769.158 1425.29 776.638 L1420.2 776.638 Q1424.43 769.349 1426.5 762.156 Q1428.6 754.93 1428.6 747.578 Q1428.6 740.226 1426.5 733.064 Q1424.43 725.903 1420.2 718.582 Z" fill="#000000" fill-rule="nonzero" fill-opacity="1" /><polyline clip-path="url(#clip830)" style="stroke:#000000; stroke-linecap:round; stroke-linejoin:round; stroke-width:4; stroke-opacity:1; fill:none" points="257.204,623.18 257.204,47.2441 "/>
<polyline clip-path="url(#clip830)" style="stroke:#000000; stroke-linecap:round; stroke-linejoin:round; stroke-width:4; stroke-opacity:1; fill:none" points="257.204,622.492 276.102,622.492 "/>
<polyline clip-path="url(#clip830)" style="stroke:#000000; stroke-linecap:round; stroke-linejoin:round; stroke-width:4; stroke-opacity:1; fill:none" points="257.204,435.103 276.102,435.103 "/>
<polyline clip-path="url(#clip830)" style="stroke:#000000; stroke-linecap:round; stroke-linejoin:round; stroke-width:4; stroke-opacity:1; fill:none" points="257.204,247.715 276.102,247.715 "/>
<polyline clip-path="url(#clip830)" style="stroke:#000000; stroke-linecap:round; stroke-linejoin:round; stroke-width:4; stroke-opacity:1; fill:none" points="257.204,60.3259 276.102,60.3259 "/>
<path clip-path="url(#clip830)" d="M115.857 622.944 L145.533 622.944 L145.533 626.879 L115.857 626.879 L115.857 622.944 Z" fill="#000000" fill-rule="nonzero" fill-opacity="1" /><path clip-path="url(#clip830)" d="M165.626 608.291 Q162.015 608.291 160.186 611.856 Q158.38 615.397 158.38 622.527 Q158.38 629.633 160.186 633.198 Q162.015 636.74 165.626 636.74 Q169.26 636.74 171.065 633.198 Q172.894 629.633 172.894 622.527 Q172.894 615.397 171.065 611.856 Q169.26 608.291 165.626 608.291 M165.626 604.587 Q171.436 604.587 174.491 609.194 Q177.57 613.777 177.57 622.527 Q177.57 631.254 174.491 635.86 Q171.436 640.444 165.626 640.444 Q159.815 640.444 156.737 635.86 Q153.681 631.254 153.681 622.527 Q153.681 613.777 156.737 609.194 Q159.815 604.587 165.626 604.587 Z" fill="#000000" fill-rule="nonzero" fill-opacity="1" /><path clip-path="url(#clip830)" d="M185.788 633.893 L190.672 633.893 L190.672 639.772 L185.788 639.772 L185.788 633.893 Z" fill="#000000" fill-rule="nonzero" fill-opacity="1" /><path clip-path="url(#clip830)" d="M204.885 635.837 L221.204 635.837 L221.204 639.772 L199.26 639.772 L199.26 635.837 Q201.922 633.082 206.505 628.453 Q211.111 623.8 212.292 622.458 Q214.537 619.934 215.417 618.198 Q216.32 616.439 216.32 614.749 Q216.32 611.995 214.375 610.259 Q212.454 608.522 209.352 608.522 Q207.153 608.522 204.699 609.286 Q202.269 610.05 199.491 611.601 L199.491 606.879 Q202.315 605.745 204.769 605.166 Q207.223 604.587 209.26 604.587 Q214.63 604.587 217.824 607.272 Q221.019 609.958 221.019 614.448 Q221.019 616.578 220.209 618.499 Q219.422 620.397 217.315 622.99 Q216.736 623.661 213.635 626.879 Q210.533 630.073 204.885 635.837 Z" fill="#000000" fill-rule="nonzero" fill-opacity="1" /><path clip-path="url(#clip830)" d="M115.487 435.555 L145.163 435.555 L145.163 439.49 L115.487 439.49 L115.487 435.555 Z" fill="#000000" fill-rule="nonzero" fill-opacity="1" /><path clip-path="url(#clip830)" d="M165.255 420.902 Q161.644 420.902 159.815 424.467 Q158.01 428.009 158.01 435.138 Q158.01 442.245 159.815 445.809 Q161.644 449.351 165.255 449.351 Q168.889 449.351 170.695 445.809 Q172.524 442.245 172.524 435.138 Q172.524 428.009 170.695 424.467 Q168.889 420.902 165.255 420.902 M165.255 417.198 Q171.065 417.198 174.121 421.805 Q177.2 426.388 177.2 435.138 Q177.2 443.865 174.121 448.471 Q171.065 453.055 165.255 453.055 Q159.445 453.055 156.366 448.471 Q153.311 443.865 153.311 435.138 Q153.311 426.388 156.366 421.805 Q159.445 417.198 165.255 417.198 Z" fill="#000000" fill-rule="nonzero" fill-opacity="1" /><path clip-path="url(#clip830)" d="M185.417 446.504 L190.301 446.504 L190.301 452.383 L185.417 452.383 L185.417 446.504 Z" fill="#000000" fill-rule="nonzero" fill-opacity="1" /><path clip-path="url(#clip830)" d="M201.297 448.448 L208.936 448.448 L208.936 422.083 L200.625 423.749 L200.625 419.49 L208.889 417.823 L213.565 417.823 L213.565 448.448 L221.204 448.448 L221.204 452.383 L201.297 452.383 L201.297 448.448 Z" fill="#000000" fill-rule="nonzero" fill-opacity="1" /><path clip-path="url(#clip830)" d="M164.028 233.513 Q160.417 233.513 158.589 237.078 Q156.783 240.62 156.783 247.749 Q156.783 254.856 158.589 258.421 Q160.417 261.962 164.028 261.962 Q167.663 261.962 169.468 258.421 Q171.297 254.856 171.297 247.749 Q171.297 240.62 169.468 237.078 Q167.663 233.513 164.028 233.513 M164.028 229.81 Q169.839 229.81 172.894 234.416 Q175.973 238.999 175.973 247.749 Q175.973 256.476 172.894 261.083 Q169.839 265.666 164.028 265.666 Q158.218 265.666 155.14 261.083 Q152.084 256.476 152.084 247.749 Q152.084 238.999 155.14 234.416 Q158.218 229.81 164.028 229.81 Z" fill="#000000" fill-rule="nonzero" fill-opacity="1" /><path clip-path="url(#clip830)" d="M184.19 259.115 L189.075 259.115 L189.075 264.995 L184.19 264.995 L184.19 259.115 Z" fill="#000000" fill-rule="nonzero" fill-opacity="1" /><path clip-path="url(#clip830)" d="M209.26 233.513 Q205.649 233.513 203.82 237.078 Q202.014 240.62 202.014 247.749 Q202.014 254.856 203.82 258.421 Q205.649 261.962 209.26 261.962 Q212.894 261.962 214.699 258.421 Q216.528 254.856 216.528 247.749 Q216.528 240.62 214.699 237.078 Q212.894 233.513 209.26 233.513 M209.26 229.81 Q215.07 229.81 218.125 234.416 Q221.204 238.999 221.204 247.749 Q221.204 256.476 218.125 261.083 Q215.07 265.666 209.26 265.666 Q203.449 265.666 200.371 261.083 Q197.315 256.476 197.315 247.749 Q197.315 238.999 200.371 234.416 Q203.449 229.81 209.26 229.81 Z" fill="#000000" fill-rule="nonzero" fill-opacity="1" /><path clip-path="url(#clip830)" d="M165.255 46.1246 Q161.644 46.1246 159.815 49.6894 Q158.01 53.231 158.01 60.3606 Q158.01 67.4671 159.815 71.0319 Q161.644 74.5735 165.255 74.5735 Q168.889 74.5735 170.695 71.0319 Q172.524 67.4671 172.524 60.3606 Q172.524 53.231 170.695 49.6894 Q168.889 46.1246 165.255 46.1246 M165.255 42.4209 Q171.065 42.4209 174.121 47.0274 Q177.2 51.6107 177.2 60.3606 Q177.2 69.0874 174.121 73.6939 Q171.065 78.2772 165.255 78.2772 Q159.445 78.2772 156.366 73.6939 Q153.311 69.0874 153.311 60.3606 Q153.311 51.6107 156.366 47.0274 Q159.445 42.4209 165.255 42.4209 Z" fill="#000000" fill-rule="nonzero" fill-opacity="1" /><path clip-path="url(#clip830)" d="M185.417 71.7263 L190.301 71.7263 L190.301 77.6059 L185.417 77.6059 L185.417 71.7263 Z" fill="#000000" fill-rule="nonzero" fill-opacity="1" /><path clip-path="url(#clip830)" d="M201.297 73.6707 L208.936 73.6707 L208.936 47.3051 L200.625 48.9718 L200.625 44.7126 L208.889 43.0459 L213.565 43.0459 L213.565 73.6707 L221.204 73.6707 L221.204 77.6059 L201.297 77.6059 L201.297 73.6707 Z" fill="#000000" fill-rule="nonzero" fill-opacity="1" /><path clip-path="url(#clip830)" d="M68.5412 333.525 Q74.9069 336.008 76.8484 338.363 Q78.79 340.718 78.79 344.665 L78.79 349.344 L73.8884 349.344 L73.8884 345.906 Q73.8884 343.487 72.7425 342.151 Q71.5967 340.814 67.3317 339.191 L64.6581 338.14 L29.583 352.559 L29.583 346.352 L57.4648 335.212 L29.583 324.072 L29.583 317.865 L68.5412 333.525 Z" fill="#000000" fill-rule="nonzero" fill-opacity="1" /><polyline clip-path="url(#clip832)" style="stroke:#009af9; stroke-linecap:round; stroke-linejoin:round; stroke-width:4; stroke-opacity:1; fill:none" points="316.512,247.715 320.474,247.715 324.436,247.715 324.436,266.237 328.397,266.237 328.397,284.214 332.359,284.214 332.359,301.487 336.321,301.487 336.321,317.916 340.283,317.916 340.283,333.379 344.245,333.379 344.245,310.729 348.206,310.729 348.206,288.024 352.168,288.024 352.168,265.524 356.13,265.524 356.13,243.478 360.092,243.478 360.092,222.121 364.054,222.121 364.054,238.716 368.015,238.716 368.015,255.321 371.977,255.321 371.977,271.789 375.939,271.789 375.939,287.978 379.901,287.978 379.901,303.755 383.863,303.755 383.863,281.952 387.824,281.952 387.824,260.594 391.786,260.594 391.786,239.899 395.748,239.899 395.748,220.07 399.71,220.07 399.71,201.286 403.672,201.286 403.672,183.703 407.633,183.703 407.633,167.45 411.595,167.45 411.595,152.63 415.557,152.63 415.557,139.314 419.519,139.314 419.519,127.545 423.481,127.545 423.481,154.379 427.442,154.379 427.442,181.662 431.404,181.662 431.404,209.036 435.366,209.036 435.366,236.145 439.328,236.145 439.328,262.65 443.29,262.65 443.29,288.231 447.251,288.231 447.251,312.594 451.213,312.594 451.213,335.476 455.175,335.476 455.175,356.649 459.137,356.649 459.137,375.923 463.099,375.923 463.099,356.106 467.06,356.106 467.06,335.228 471.022,335.228 471.022,313.542 474.984,313.542 474.984,291.313 478.946,291.313 478.946,268.809 482.907,268.809 482.907,283.344 486.869,283.344 486.869,297.044 490.831,297.044 490.831,309.844 494.793,309.844 494.793,321.698 498.755,321.698 498.755,332.577 502.716,332.577 502.716,342.471 506.678,342.471 506.678,351.389 510.64,351.389 510.64,359.355 514.602,359.355 514.602,366.41 518.564,366.41 518.564,372.612 522.525,372.612 522.525,378.029 526.487,378.029 526.487,382.744 530.449,382.744 530.449,386.848 534.411,386.848 534.411,390.439 538.373,390.439 538.373,393.622 542.334,393.622 542.334,359.461 546.296,359.461 546.296,326.201 550.258,326.201 550.258,294.264 554.22,294.264 554.22,264.037 558.182,264.037 558.182,235.866 562.143,235.866 562.143,210.044 566.105,210.044 566.105,186.815 570.067,186.815 570.067,166.364 574.029,166.364 574.029,148.819 577.991,148.819 577.991,134.249 581.952,134.249 581.952,159.709 585.914,159.709 585.914,187.016 589.876,187.016 589.876,215.753 593.838,215.753 593.838,245.486 597.8,245.486 597.8,275.772 601.761,275.772 601.761,269.123 605.723,269.123 605.723,263.242 609.685,263.242 609.685,258.028 613.647,258.028 613.647,253.374 617.609,253.374 617.609,249.165 621.57,249.165 621.57,245.283 625.532,245.283 625.532,241.609 629.494,241.609 629.494,238.025 633.456,238.025 633.456,234.418 637.418,234.418 637.418,230.677 641.379,230.677 641.379,226.704 645.341,226.704 645.341,222.405 649.303,222.405 649.303,217.701 653.265,217.701 653.265,212.523 657.226,212.523 657.226,206.815 661.188,206.815 661.188,237.58 665.15,237.58 665.15,266.655 669.112,266.655 669.112,293.71 673.074,293.71 673.074,318.465 677.035,318.465 677.035,340.69 680.997,340.69 680.997,323.166 684.959,323.166 684.959,303.909 688.921,303.909 688.921,283.174 692.883,283.174 692.883,261.238 696.844,261.238 696.844,238.397 700.806,238.397 700.806,252 704.768,252 704.768,264.221 708.73,264.221 708.73,275.053 712.692,275.053 712.692,284.515 716.653,284.515 716.653,292.65 720.615,292.65 720.615,299.522 724.577,299.522 724.577,305.22 728.539,305.22 728.539,309.848 732.501,309.848 732.501,313.528 736.462,313.528 736.462,316.396 740.424,316.396 740.424,281.551 744.386,281.551 744.386,247.282 748.348,247.282 748.348,214.061 752.31,214.061 752.31,182.325 756.271,182.325 756.271,152.474 760.233,152.474 760.233,161.904 764.195,161.904 764.195,172.778 768.157,172.778 768.157,185.022 772.119,185.022 772.119,198.536 776.08,198.536 776.08,213.197 780.042,213.197 780.042,191.814 784.004,191.814 784.004,172.363 787.966,172.363 787.966,154.982 791.928,154.982 791.928,139.77 795.889,139.77 795.889,126.78 799.851,126.78 799.851,116.021 803.813,116.021 803.813,107.462 807.775,107.462 807.775,101.029 811.736,101.029 811.736,96.6114 815.698,96.6114 815.698,94.0638 819.66,94.0638 819.66,130.255 823.622,130.255 823.622,166.845 827.584,166.845 827.584,203.296 831.545,203.296 831.545,239.083 835.507,239.083 835.507,273.711 839.469,273.711 839.469,306.719 843.431,306.719 843.431,337.69 847.393,337.69 847.393,366.257 851.354,366.257 851.354,392.109 855.316,392.109 855.316,414.998 859.278,414.998 859.278,397.692 863.24,397.692 863.24,378.209 867.202,378.209 867.202,356.809 871.163,356.809 871.163,333.786 875.125,333.786 875.125,309.459 879.087,309.459 879.087,284.163 883.049,284.163 883.049,258.248 887.011,258.248 887.011,232.063 890.972,232.063 890.972,205.957 894.934,205.957 894.934,180.267 898.896,180.267 898.896,192.36 902.858,192.36 902.858,204.398 906.82,204.398 906.82,216.338 910.781,216.338 910.781,228.137 914.743,228.137 914.743,239.755 918.705,239.755 918.705,251.153 922.667,251.153 922.667,262.298 926.629,262.298 926.629,273.161 930.59,273.161 930.59,283.715 934.552,283.715 934.552,293.94 938.514,293.94 938.514,303.822 942.476,303.822 942.476,313.351 946.438,313.351 946.438,322.523 950.399,322.523 950.399,331.34 954.361,331.34 954.361,339.808 958.323,339.808 958.323,347.939 962.285,347.939 962.285,355.749 966.246,355.749 966.246,363.258 970.208,363.258 970.208,370.491 974.17,370.491 974.17,377.474 978.132,377.474 978.132,347.194 982.094,347.194 982.094,317.817 986.055,317.817 986.055,289.691 990.017,289.691 990.017,263.132 993.979,263.132 993.979,238.417 997.941,238.417 997.941,215.781 1001.9,215.781 1001.9,195.412 1005.86,195.412 1005.86,177.452 1009.83,177.452 1009.83,161.991 1013.79,161.991 1013.79,149.07 1017.75,149.07 1017.75,138.681 1021.71,138.681 1021.71,130.768 1025.67,130.768 1025.67,125.229 1029.64,125.229 1029.64,121.923 1033.6,121.923 1033.6,120.668 1037.56,120.668 1037.56,158.294 1041.52,158.294 1041.52,196.423 1045.48,196.423 1045.48,234.476 1049.44,234.476 1049.44,271.889 1053.41,271.889 1053.41,308.126 1057.37,308.126 1057.37,305.644 1061.33,305.644 1061.33,302.126 1065.29,302.126 1065.29,297.489 1069.25,297.489 1069.25,291.673 1073.21,291.673 1073.21,284.65 1077.18,284.65 1077.18,313.458 1081.14,313.458 1081.14,339.984 1085.1,339.984 1085.1,363.958 1089.06,363.958 1089.06,385.166 1093.02,385.166 1093.02,403.455 1096.99,403.455 1096.99,418.73 1100.95,418.73 1100.95,430.957 1104.91,430.957 1104.91,440.162 1108.87,440.162 1108.87,446.426 1112.83,446.426 1112.83,449.887 1116.79,449.887 1116.79,450.729 1120.76,450.729 1120.76,449.181 1124.72,449.181 1124.72,445.513 1128.68,445.513 1128.68,440.024 1132.64,440.024 1132.64,433.04 1136.6,433.04 1136.6,424.904 1140.57,424.904 1140.57,415.973 1144.53,415.973 1144.53,406.603 1148.49,406.603 1148.49,397.149 1152.45,397.149 1152.45,387.956 1156.41,387.956 1156.41,342.307 1160.37,342.307 1160.37,298.642 1164.34,298.642 1164.34,257.553 1168.3,257.553 1168.3,219.566 1172.26,219.566 1172.26,185.132 1176.22,185.132 1176.22,154.623 1180.18,154.623 1180.18,128.321 1184.15,128.321 1184.15,106.421 1188.11,106.421 1188.11,89.0294 1192.07,89.0294 1192.07,76.1597 1196.03,76.1597 1196.03,67.7393 1199.99,67.7393 1199.99,63.6122 1203.95,63.6122 1203.95,63.5442 1207.92,63.5442 1207.92,67.2301 1211.88,67.2301 1211.88,74.302 1215.84,74.302 1215.84,121.382 1219.8,121.382 1219.8,169.869 1223.76,169.869 1223.76,218.948 1227.72,218.948 1227.72,267.814 1231.69,267.814 1231.69,315.688 1235.65,315.688 1235.65,361.835 1239.61,361.835 1239.61,405.569 1243.57,405.569 1243.57,446.274 1247.53,446.274 1247.53,483.408 1251.5,483.408 1251.5,516.514 1255.46,516.514 1255.46,508.183 1259.42,508.183 1259.42,496.279 1263.38,496.279 1263.38,480.946 1267.34,480.946 1267.34,462.393 1271.3,462.393 1271.3,440.886 1275.27,440.886 1275.27,453.792 1279.23,453.792 1279.23,463.337 1283.19,463.337 1283.19,469.606 1287.15,469.606 1287.15,472.743 1291.11,472.743 1291.11,472.949 1295.08,472.949 1295.08,470.473 1299.04,470.473 1299.04,465.611 1303,465.611 1303,458.691 1306.96,458.691 1306.96,450.073 1310.92,450.073 1310.92,440.139 1314.88,440.139 1314.88,392.238 1318.85,392.238 1318.85,344.903 1322.81,344.903 1322.81,298.846 1326.77,298.846 1326.77,254.734 1330.73,254.734 1330.73,213.178 1334.69,213.178 1334.69,211.767 1338.66,211.767 1338.66,212.835 1342.62,212.835 1342.62,216.454 1346.58,216.454 1346.58,222.642 1350.54,222.642 1350.54,231.364 1354.5,231.364 1354.5,242.534 1358.46,242.534 1358.46,256.021 1362.43,256.021 1362.43,271.649 1366.39,271.649 1366.39,289.203 1370.35,289.203 1370.35,308.436 1374.31,308.436 1374.31,292.03 1378.27,292.03 1378.27,277.823 1382.23,277.823 1382.23,265.822 1386.2,265.822 1386.2,255.991 1390.16,255.991 1390.16,248.253 1394.12,248.253 1394.12,279.541 1398.08,279.541 1398.08,311.572 1402.04,311.572 1402.04,343.856 1406.01,343.856 1406.01,375.908 1409.97,375.908 1409.97,407.262 1413.93,407.262 1413.93,437.479 1417.89,437.479 1417.89,466.151 1421.85,466.151 1421.85,492.913 1425.81,492.913 1425.81,517.446 1429.78,517.446 1429.78,539.483 1433.74,539.483 1433.74,558.813 1437.7,558.813 1437.7,575.282 1441.66,575.282 1441.66,588.797 1445.62,588.797 1445.62,599.321 1449.59,599.321 1449.59,606.88 1453.55,606.88 1453.55,574.508 1457.51,574.508 1457.51,540.474 1461.47,540.474 1461.47,505.276 1465.43,505.276 1465.43,469.421 1469.39,469.421 1469.39,433.417 1473.36,433.417 1473.36,397.762 1477.32,397.762 1477.32,362.934 1481.28,362.934 1481.28,329.384 1485.24,329.384 1485.24,297.525 1489.2,297.525 1489.2,267.727 1493.17,267.727 1493.17,240.312 1497.13,240.312 1497.13,215.546 1501.09,215.546 1501.09,193.637 1505.05,193.637 1505.05,174.735 1509.01,174.735 1509.01,158.925 1512.97,158.925 1512.97,183.278 1516.94,183.278 1516.94,209.622 1520.9,209.622 1520.9,237.551 1524.86,237.551 1524.86,266.634 1528.82,266.634 1528.82,296.432 1532.78,296.432 1532.78,326.501 1536.74,326.501 1536.74,356.404 1540.71,356.404 1540.71,385.718 1544.67,385.718 1544.67,414.045 1548.63,414.045 1548.63,441.012 1552.59,441.012 1552.59,429.241 1556.55,429.241 1556.55,416.576 1560.52,416.576 1560.52,403.086 1564.48,403.086 1564.48,388.855 1568.44,388.855 1568.44,373.983 1572.4,373.983 1572.4,358.581 1576.36,358.581 1576.36,342.77 1580.32,342.77 1580.32,326.675 1584.29,326.675 1584.29,310.428 1588.25,310.428 1588.25,294.16 1592.21,294.16 1592.21,315.045 1596.17,315.045 1596.17,335.073 1600.13,335.073 1600.13,354.049 1604.1,354.049 1604.1,371.801 1608.06,371.801 1608.06,388.186 1612.02,388.186 1612.02,366.043 1615.98,366.043 1615.98,343.426 1619.94,343.426 1619.94,320.599 1623.9,320.599 1623.9,297.822 1627.87,297.822 1627.87,275.352 1631.83,275.352 1631.83,290.476 1635.79,290.476 1635.79,305.285 1639.75,305.285 1639.75,319.672 1643.71,319.672 1643.71,333.538 1647.68,333.538 1647.68,346.795 1651.64,346.795 1651.64,359.37 1655.6,359.37 1655.6,371.202 1659.56,371.202 1659.56,382.245 1663.52,382.245 1663.52,392.47 1667.48,392.47 1667.48,401.861 1671.45,401.861 1671.45,410.418 1675.41,410.418 1675.41,418.157 1679.37,418.157 1679.37,425.107 1683.33,425.107 1683.33,431.31 1687.29,431.31 1687.29,436.82 1691.25,436.82 1691.25,404.657 1695.22,404.657 1695.22,373.03 1699.18,373.03 1699.18,342.336 1703.14,342.336 1703.14,312.943 1707.1,312.943 1707.1,285.185 1711.06,285.185 1711.06,296.4 1715.03,296.4 1715.03,308.702 1718.99,308.702 1718.99,321.977 1722.95,321.977 1722.95,336.093 1726.91,336.093 1726.91,350.903 1730.87,350.903 1730.87,329.207 1734.83,329.207 1734.83,308.976 1738.8,308.976 1738.8,290.357 1742.76,290.357 1742.76,273.463 1746.72,273.463 1746.72,258.373 1750.68,258.373 1750.68,245.127 1754.64,245.127 1754.64,233.734 1758.61,233.734 1758.61,224.164 1762.57,224.164 1762.57,216.357 1766.53,216.357 1766.53,210.221 1770.49,210.221 1770.49,242.679 1774.45,242.679 1774.45,275.452 1778.41,275.452 1778.41,308.057 1782.38,308.057 1782.38,340.026 1786.34,340.026 1786.34,370.92 1790.3,370.92 1790.3,400.328 1794.26,400.328 1794.26,427.88 1798.22,427.88 1798.22,453.254 1802.19,453.254 1802.19,476.175 1806.15,476.175 1806.15,496.426 1810.11,496.426 1810.11,476.801 1814.07,476.801 1814.07,455.334 1818.03,455.334 1818.03,432.297 1821.99,432.297 1821.99,407.989 1825.96,407.989 1825.96,382.723 1829.92,382.723 1829.92,393.874 1833.88,393.874 1833.88,403.635 1837.84,403.635 1837.84,412.022 1841.8,412.022 1841.8,419.074 1845.76,419.074 1845.76,424.854 1849.73,424.854 1849.73,392.402 1853.69,392.402 1853.69,359.956 1857.65,359.956 1857.65,327.953 1861.61,327.953 1861.61,296.809 1865.57,296.809 1865.57,266.913 1869.54,266.913 1869.54,238.62 1873.5,238.62 1873.5,212.244 1877.46,212.244 1877.46,188.056 1881.42,188.056 1881.42,166.276 1885.38,166.276 1885.38,147.073 1889.34,147.073 1889.34,167.607 1893.31,167.607 1893.31,189.801 1897.27,189.801 1897.27,213.347 1901.23,213.347 1901.23,237.917 1905.19,237.917 1905.19,263.169 1909.15,263.169 1909.15,288.759 1913.12,288.759 1913.12,314.342 1917.08,314.342 1917.08,339.583 1921.04,339.583 1921.04,364.163 1925,364.163 1925,387.782 1928.96,387.782 1928.96,410.166 1932.92,410.166 1932.92,431.073 1936.89,431.073 1936.89,450.295 1940.85,450.295 1940.85,467.662 1944.81,467.662 1944.81,483.044 1948.77,483.044 1948.77,496.352 1952.73,496.352 1952.73,507.539 1956.7,507.539 1956.7,516.598 1960.66,516.598 1960.66,523.566 1964.62,523.566 1964.62,528.517 1968.58,528.517 1968.58,494.514 1972.54,494.514 1972.54,459.837 1976.5,459.837 1976.5,424.972 1980.47,424.972 1980.47,390.398 1984.43,390.398 1984.43,356.576 1988.39,356.576 1988.39,323.94 1992.35,323.94 1992.35,292.891 1996.31,292.891 1996.31,263.788 2000.27,263.788 2000.27,236.943 2004.24,236.943 2004.24,212.617 2008.2,212.617 2008.2,228.061 2012.16,228.061 2012.16,245.287 2016.12,245.287 2016.12,264.067 2020.08,264.067 2020.08,284.151 2024.05,284.151 2024.05,305.265 2028.01,305.265 2028.01,327.125 2031.97,327.125 2031.97,349.437 2035.93,349.437 2035.93,371.905 2039.89,371.905 2039.89,394.239 2043.85,394.239 2043.85,416.156 2047.82,416.156 2047.82,400.347 2051.78,400.347 2051.78,384.698 2055.74,384.698 2055.74,369.305 2059.7,369.305 2059.7,354.253 2063.66,354.253 2063.66,339.622 2067.63,339.622 2067.63,325.485 2071.59,325.485 2071.59,311.902 2075.55,311.902 2075.55,298.924 2079.51,298.924 2079.51,286.591 2083.47,286.591 2083.47,274.93 2087.43,274.93 2087.43,301.002 2091.4,301.002 2091.4,326.673 2095.36,326.673 2095.36,351.621 2099.32,351.621 2099.32,375.543 2103.28,375.543 2103.28,398.164 2107.24,398.164 2107.24,419.244 2111.21,419.244 2111.21,438.574 2115.17,438.574 2115.17,455.989 2119.13,455.989 2119.13,471.36 2123.09,471.36 2123.09,484.605 2127.05,484.605 2127.05,458.636 2131.01,458.636 2131.01,431.591 2134.98,431.591 2134.98,403.828 2138.94,403.828 2138.94,375.709 2142.9,375.709 2142.9,347.595 2146.86,347.595 2146.86,356.885 2150.82,356.885 2150.82,365.778 2154.79,365.778 2154.79,374.276 2158.75,374.276 2158.75,382.384 2162.71,382.384 2162.71,390.115 2166.67,390.115 2166.67,397.485 2170.63,397.485 2170.63,404.518 2174.59,404.518 2174.59,411.24 2178.56,411.24 2178.56,417.682 2182.52,417.682 2182.52,423.878 2186.48,423.878 2186.48,429.863 2190.44,429.863 2190.44,435.676 2194.4,435.676 2194.4,441.354 2198.36,441.354 2198.36,446.937 2202.33,446.937 2202.33,452.462 2206.29,452.462 2206.29,457.966 2210.25,457.966 2210.25,463.482 2214.21,463.482 2214.21,469.042 2218.17,469.042 2218.17,474.676 2222.14,474.676 2222.14,480.406 2226.1,480.406 2226.1,486.255 2230.06,486.255 2230.06,492.239 2234.02,492.239 2234.02,498.369 2237.98,498.369 2237.98,504.654 2241.94,504.654 2241.94,511.095 2245.91,511.095 2245.91,480.646 2249.87,480.646 2249.87,451.438 2253.83,451.438 2253.83,423.776 2257.79,423.776 2257.79,397.929 2261.75,397.929 2261.75,374.122 2265.72,374.122 2265.72,389.584 2269.68,389.584 2269.68,406.315 2273.64,406.315 2273.64,424.085 2277.6,424.085 2277.6,442.652 2281.56,442.652 2281.56,461.763 2285.52,461.763 2285.52,444.116 2289.49,444.116 2289.49,427.588 2293.45,427.588 2293.45,412.246 "/>
<path clip-path="url(#clip830)" d="M257.204 1423.18 L2352.76 1423.18 L2352.76 847.244 L257.204 847.244  Z" fill="#ffffff" fill-rule="evenodd" fill-opacity="1"/>
<polyline clip-path="url(#clip831)" style="stroke:#000000; stroke-linecap:round; stroke-linejoin:round; stroke-width:2; stroke-opacity:0.1; fill:none" points="316.512,1423.18 316.512,847.244 "/>
<polyline clip-path="url(#clip831)" style="stroke:#000000; stroke-linecap:round; stroke-linejoin:round; stroke-width:2; stroke-opacity:0.1; fill:none" points="712.692,1423.18 712.692,847.244 "/>
<polyline clip-path="url(#clip831)" style="stroke:#000000; stroke-linecap:round; stroke-linejoin:round; stroke-width:2; stroke-opacity:0.1; fill:none" points="1108.87,1423.18 1108.87,847.244 "/>
<polyline clip-path="url(#clip831)" style="stroke:#000000; stroke-linecap:round; stroke-linejoin:round; stroke-width:2; stroke-opacity:0.1; fill:none" points="1505.05,1423.18 1505.05,847.244 "/>
<polyline clip-path="url(#clip831)" style="stroke:#000000; stroke-linecap:round; stroke-linejoin:round; stroke-width:2; stroke-opacity:0.1; fill:none" points="1901.23,1423.18 1901.23,847.244 "/>
<polyline clip-path="url(#clip831)" style="stroke:#000000; stroke-linecap:round; stroke-linejoin:round; stroke-width:2; stroke-opacity:0.1; fill:none" points="2297.41,1423.18 2297.41,847.244 "/>
<polyline clip-path="url(#clip831)" style="stroke:#000000; stroke-linecap:round; stroke-linejoin:round; stroke-width:2; stroke-opacity:0.1; fill:none" points="257.204,1406.88 2352.76,1406.88 "/>
<polyline clip-path="url(#clip831)" style="stroke:#000000; stroke-linecap:round; stroke-linejoin:round; stroke-width:2; stroke-opacity:0.1; fill:none" points="257.204,1271.05 2352.76,1271.05 "/>
<polyline clip-path="url(#clip831)" style="stroke:#000000; stroke-linecap:round; stroke-linejoin:round; stroke-width:2; stroke-opacity:0.1; fill:none" points="257.204,1135.21 2352.76,1135.21 "/>
<polyline clip-path="url(#clip831)" style="stroke:#000000; stroke-linecap:round; stroke-linejoin:round; stroke-width:2; stroke-opacity:0.1; fill:none" points="257.204,999.378 2352.76,999.378 "/>
<polyline clip-path="url(#clip831)" style="stroke:#000000; stroke-linecap:round; stroke-linejoin:round; stroke-width:2; stroke-opacity:0.1; fill:none" points="257.204,863.544 2352.76,863.544 "/>
<polyline clip-path="url(#clip830)" style="stroke:#000000; stroke-linecap:round; stroke-linejoin:round; stroke-width:4; stroke-opacity:1; fill:none" points="257.204,1423.18 2352.76,1423.18 "/>
<polyline clip-path="url(#clip830)" style="stroke:#000000; stroke-linecap:round; stroke-linejoin:round; stroke-width:4; stroke-opacity:1; fill:none" points="316.512,1423.18 316.512,1404.28 "/>
<polyline clip-path="url(#clip830)" style="stroke:#000000; stroke-linecap:round; stroke-linejoin:round; stroke-width:4; stroke-opacity:1; fill:none" points="712.692,1423.18 712.692,1404.28 "/>
<polyline clip-path="url(#clip830)" style="stroke:#000000; stroke-linecap:round; stroke-linejoin:round; stroke-width:4; stroke-opacity:1; fill:none" points="1108.87,1423.18 1108.87,1404.28 "/>
<polyline clip-path="url(#clip830)" style="stroke:#000000; stroke-linecap:round; stroke-linejoin:round; stroke-width:4; stroke-opacity:1; fill:none" points="1505.05,1423.18 1505.05,1404.28 "/>
<polyline clip-path="url(#clip830)" style="stroke:#000000; stroke-linecap:round; stroke-linejoin:round; stroke-width:4; stroke-opacity:1; fill:none" points="1901.23,1423.18 1901.23,1404.28 "/>
<polyline clip-path="url(#clip830)" style="stroke:#000000; stroke-linecap:round; stroke-linejoin:round; stroke-width:4; stroke-opacity:1; fill:none" points="2297.41,1423.18 2297.41,1404.28 "/>
<path clip-path="url(#clip830)" d="M316.512 1454.1 Q312.901 1454.1 311.072 1457.66 Q309.267 1461.2 309.267 1468.33 Q309.267 1475.44 311.072 1479.01 Q312.901 1482.55 316.512 1482.55 Q320.146 1482.55 321.952 1479.01 Q323.781 1475.44 323.781 1468.33 Q323.781 1461.2 321.952 1457.66 Q320.146 1454.1 316.512 1454.1 M316.512 1450.39 Q322.322 1450.39 325.378 1455 Q328.456 1459.58 328.456 1468.33 Q328.456 1477.06 325.378 1481.67 Q322.322 1486.25 316.512 1486.25 Q310.702 1486.25 307.623 1481.67 Q304.568 1477.06 304.568 1468.33 Q304.568 1459.58 307.623 1455 Q310.702 1450.39 316.512 1450.39 Z" fill="#000000" fill-rule="nonzero" fill-opacity="1" /><path clip-path="url(#clip830)" d="M703.074 1481.64 L710.712 1481.64 L710.712 1455.28 L702.402 1456.95 L702.402 1452.69 L710.666 1451.02 L715.342 1451.02 L715.342 1481.64 L722.981 1481.64 L722.981 1485.58 L703.074 1485.58 L703.074 1481.64 Z" fill="#000000" fill-rule="nonzero" fill-opacity="1" /><path clip-path="url(#clip830)" d="M1103.52 1481.64 L1119.84 1481.64 L1119.84 1485.58 L1097.9 1485.58 L1097.9 1481.64 Q1100.56 1478.89 1105.14 1474.26 Q1109.75 1469.61 1110.93 1468.27 Q1113.18 1465.74 1114.06 1464.01 Q1114.96 1462.25 1114.96 1460.56 Q1114.96 1457.8 1113.01 1456.07 Q1111.09 1454.33 1107.99 1454.33 Q1105.79 1454.33 1103.34 1455.09 Q1100.91 1455.86 1098.13 1457.41 L1098.13 1452.69 Q1100.95 1451.55 1103.41 1450.97 Q1105.86 1450.39 1107.9 1450.39 Q1113.27 1450.39 1116.46 1453.08 Q1119.66 1455.77 1119.66 1460.26 Q1119.66 1462.39 1118.85 1464.31 Q1118.06 1466.2 1115.95 1468.8 Q1115.38 1469.47 1112.27 1472.69 Q1109.17 1475.88 1103.52 1481.64 Z" fill="#000000" fill-rule="nonzero" fill-opacity="1" /><path clip-path="url(#clip830)" d="M1509.3 1466.95 Q1512.65 1467.66 1514.53 1469.93 Q1516.43 1472.2 1516.43 1475.53 Q1516.43 1480.65 1512.91 1483.45 Q1509.39 1486.25 1502.91 1486.25 Q1500.73 1486.25 1498.42 1485.81 Q1496.13 1485.39 1493.67 1484.54 L1493.67 1480.02 Q1495.62 1481.16 1497.93 1481.74 Q1500.25 1482.32 1502.77 1482.32 Q1507.17 1482.32 1509.46 1480.58 Q1511.78 1478.84 1511.78 1475.53 Q1511.78 1472.48 1509.62 1470.77 Q1507.49 1469.03 1503.67 1469.03 L1499.65 1469.03 L1499.65 1465.19 L1503.86 1465.19 Q1507.31 1465.19 1509.14 1463.82 Q1510.96 1462.43 1510.96 1459.84 Q1510.96 1457.18 1509.07 1455.77 Q1507.19 1454.33 1503.67 1454.33 Q1501.75 1454.33 1499.55 1454.75 Q1497.35 1455.16 1494.72 1456.04 L1494.72 1451.88 Q1497.38 1451.14 1499.69 1450.77 Q1502.03 1450.39 1504.09 1450.39 Q1509.41 1450.39 1512.52 1452.83 Q1515.62 1455.23 1515.62 1459.35 Q1515.62 1462.22 1513.97 1464.21 Q1512.33 1466.18 1509.3 1466.95 Z" fill="#000000" fill-rule="nonzero" fill-opacity="1" /><path clip-path="url(#clip830)" d="M1904.24 1455.09 L1892.43 1473.54 L1904.24 1473.54 L1904.24 1455.09 M1903.01 1451.02 L1908.89 1451.02 L1908.89 1473.54 L1913.82 1473.54 L1913.82 1477.43 L1908.89 1477.43 L1908.89 1485.58 L1904.24 1485.58 L1904.24 1477.43 L1888.64 1477.43 L1888.64 1472.92 L1903.01 1451.02 Z" fill="#000000" fill-rule="nonzero" fill-opacity="1" /><path clip-path="url(#clip830)" d="M2287.69 1451.02 L2306.04 1451.02 L2306.04 1454.96 L2291.97 1454.96 L2291.97 1463.43 Q2292.99 1463.08 2294.01 1462.92 Q2295.03 1462.73 2296.04 1462.73 Q2301.83 1462.73 2305.21 1465.9 Q2308.59 1469.08 2308.59 1474.49 Q2308.59 1480.07 2305.12 1483.17 Q2301.65 1486.25 2295.33 1486.25 Q2293.15 1486.25 2290.88 1485.88 Q2288.64 1485.51 2286.23 1484.77 L2286.23 1480.07 Q2288.31 1481.2 2290.53 1481.76 Q2292.76 1482.32 2295.23 1482.32 Q2299.24 1482.32 2301.58 1480.21 Q2303.91 1478.1 2303.91 1474.49 Q2303.91 1470.88 2301.58 1468.77 Q2299.24 1466.67 2295.23 1466.67 Q2293.36 1466.67 2291.48 1467.08 Q2289.63 1467.5 2287.69 1468.38 L2287.69 1451.02 Z" fill="#000000" fill-rule="nonzero" fill-opacity="1" /><path clip-path="url(#clip830)" d="M1175.15 1520.52 L1215.35 1520.52 L1215.35 1525.93 L1198.48 1525.93 L1198.48 1568.04 L1192.02 1568.04 L1192.02 1525.93 L1175.15 1525.93 L1175.15 1520.52 Z" fill="#000000" fill-rule="nonzero" fill-opacity="1" /><path clip-path="url(#clip830)" d="M1219.3 1532.4 L1225.15 1532.4 L1225.15 1568.04 L1219.3 1568.04 L1219.3 1532.4 M1219.3 1518.52 L1225.15 1518.52 L1225.15 1525.93 L1219.3 1525.93 L1219.3 1518.52 Z" fill="#000000" fill-rule="nonzero" fill-opacity="1" /><path clip-path="url(#clip830)" d="M1265.16 1539.24 Q1267.36 1535.29 1270.41 1533.41 Q1273.47 1531.54 1277.61 1531.54 Q1283.18 1531.54 1286.2 1535.45 Q1289.22 1539.33 1289.22 1546.53 L1289.22 1568.04 L1283.34 1568.04 L1283.34 1546.72 Q1283.34 1541.59 1281.52 1539.11 Q1279.71 1536.63 1275.98 1536.63 Q1271.43 1536.63 1268.79 1539.65 Q1266.15 1542.68 1266.15 1547.9 L1266.15 1568.04 L1260.26 1568.04 L1260.26 1546.72 Q1260.26 1541.56 1258.45 1539.11 Q1256.63 1536.63 1252.84 1536.63 Q1248.36 1536.63 1245.72 1539.68 Q1243.07 1542.71 1243.07 1547.9 L1243.07 1568.04 L1237.19 1568.04 L1237.19 1532.4 L1243.07 1532.4 L1243.07 1537.93 Q1245.08 1534.66 1247.88 1533.1 Q1250.68 1531.54 1254.53 1531.54 Q1258.41 1531.54 1261.12 1533.51 Q1263.86 1535.48 1265.16 1539.24 Z" fill="#000000" fill-rule="nonzero" fill-opacity="1" /><path clip-path="url(#clip830)" d="M1331.4 1548.76 L1331.4 1551.62 L1304.47 1551.62 Q1304.85 1557.67 1308.1 1560.85 Q1311.38 1564 1317.2 1564 Q1320.58 1564 1323.73 1563.17 Q1326.91 1562.35 1330.03 1560.69 L1330.03 1566.23 Q1326.88 1567.57 1323.57 1568.27 Q1320.26 1568.97 1316.85 1568.97 Q1308.32 1568.97 1303.32 1564 Q1298.36 1559.04 1298.36 1550.57 Q1298.36 1541.82 1303.07 1536.69 Q1307.81 1531.54 1315.83 1531.54 Q1323.03 1531.54 1327.2 1536.18 Q1331.4 1540.8 1331.4 1548.76 M1325.54 1547.04 Q1325.48 1542.23 1322.84 1539.37 Q1320.23 1536.5 1315.9 1536.5 Q1311 1536.5 1308.04 1539.27 Q1305.11 1542.04 1304.66 1547.07 L1325.54 1547.04 Z" fill="#000000" fill-rule="nonzero" fill-opacity="1" /><path clip-path="url(#clip830)" d="M1375.8 1518.58 Q1371.53 1525.9 1369.46 1533.06 Q1367.4 1540.23 1367.4 1547.58 Q1367.4 1554.93 1369.46 1562.16 Q1371.57 1569.35 1375.8 1576.64 L1370.71 1576.64 Q1365.93 1569.16 1363.54 1561.93 Q1361.19 1554.71 1361.19 1547.58 Q1361.19 1540.48 1363.54 1533.29 Q1365.9 1526.09 1370.71 1518.58 L1375.8 1518.58 Z" fill="#000000" fill-rule="nonzero" fill-opacity="1" /><path clip-path="url(#clip830)" d="M1409.89 1533.45 L1409.89 1538.98 Q1407.4 1537.71 1404.73 1537.07 Q1402.06 1536.44 1399.19 1536.44 Q1394.83 1536.44 1392.64 1537.77 Q1390.47 1539.11 1390.47 1541.79 Q1390.47 1543.82 1392.03 1545 Q1393.59 1546.15 1398.3 1547.2 L1400.31 1547.64 Q1406.54 1548.98 1409.15 1551.43 Q1411.8 1553.85 1411.8 1558.21 Q1411.8 1563.17 1407.85 1566.07 Q1403.93 1568.97 1397.06 1568.97 Q1394.2 1568.97 1391.08 1568.39 Q1387.99 1567.85 1384.55 1566.74 L1384.55 1560.69 Q1387.8 1562.38 1390.95 1563.24 Q1394.1 1564.07 1397.19 1564.07 Q1401.32 1564.07 1403.55 1562.66 Q1405.78 1561.23 1405.78 1558.65 Q1405.78 1556.27 1404.16 1554.99 Q1402.57 1553.72 1397.12 1552.54 L1395.09 1552.07 Q1389.64 1550.92 1387.22 1548.56 Q1384.81 1546.18 1384.81 1542.04 Q1384.81 1537.01 1388.37 1534.27 Q1391.94 1531.54 1398.49 1531.54 Q1401.74 1531.54 1404.6 1532.01 Q1407.47 1532.49 1409.89 1533.45 Z" fill="#000000" fill-rule="nonzero" fill-opacity="1" /><path clip-path="url(#clip830)" d="M1420.2 1518.58 L1425.29 1518.58 Q1430.07 1526.09 1432.42 1533.29 Q1434.81 1540.48 1434.81 1547.58 Q1434.81 1554.71 1432.42 1561.93 Q1430.07 1569.16 1425.29 1576.64 L1420.2 1576.64 Q1424.43 1569.35 1426.5 1562.16 Q1428.6 1554.93 1428.6 1547.58 Q1428.6 1540.23 1426.5 1533.06 Q1424.43 1525.9 1420.2 1518.58 Z" fill="#000000" fill-rule="nonzero" fill-opacity="1" /><polyline clip-path="url(#clip830)" style="stroke:#000000; stroke-linecap:round; stroke-linejoin:round; stroke-width:4; stroke-opacity:1; fill:none" points="257.204,1423.18 257.204,847.244 "/>
<polyline clip-path="url(#clip830)" style="stroke:#000000; stroke-linecap:round; stroke-linejoin:round; stroke-width:4; stroke-opacity:1; fill:none" points="257.204,1406.88 276.102,1406.88 "/>
<polyline clip-path="url(#clip830)" style="stroke:#000000; stroke-linecap:round; stroke-linejoin:round; stroke-width:4; stroke-opacity:1; fill:none" points="257.204,1271.05 276.102,1271.05 "/>
<polyline clip-path="url(#clip830)" style="stroke:#000000; stroke-linecap:round; stroke-linejoin:round; stroke-width:4; stroke-opacity:1; fill:none" points="257.204,1135.21 276.102,1135.21 "/>
<polyline clip-path="url(#clip830)" style="stroke:#000000; stroke-linecap:round; stroke-linejoin:round; stroke-width:4; stroke-opacity:1; fill:none" points="257.204,999.378 276.102,999.378 "/>
<polyline clip-path="url(#clip830)" style="stroke:#000000; stroke-linecap:round; stroke-linejoin:round; stroke-width:4; stroke-opacity:1; fill:none" points="257.204,863.544 276.102,863.544 "/>
<path clip-path="url(#clip830)" d="M114.26 1407.33 L143.936 1407.33 L143.936 1411.27 L114.26 1411.27 L114.26 1407.33 Z" fill="#000000" fill-rule="nonzero" fill-opacity="1" /><path clip-path="url(#clip830)" d="M154.839 1420.22 L162.477 1420.22 L162.477 1393.86 L154.167 1395.53 L154.167 1391.27 L162.431 1389.6 L167.107 1389.6 L167.107 1420.22 L174.746 1420.22 L174.746 1424.16 L154.839 1424.16 L154.839 1420.22 Z" fill="#000000" fill-rule="nonzero" fill-opacity="1" /><path clip-path="url(#clip830)" d="M184.19 1418.28 L189.075 1418.28 L189.075 1424.16 L184.19 1424.16 L184.19 1418.28 Z" fill="#000000" fill-rule="nonzero" fill-opacity="1" /><path clip-path="url(#clip830)" d="M209.26 1392.68 Q205.649 1392.68 203.82 1396.24 Q202.014 1399.78 202.014 1406.91 Q202.014 1414.02 203.82 1417.59 Q205.649 1421.13 209.26 1421.13 Q212.894 1421.13 214.699 1417.59 Q216.528 1414.02 216.528 1406.91 Q216.528 1399.78 214.699 1396.24 Q212.894 1392.68 209.26 1392.68 M209.26 1388.97 Q215.07 1388.97 218.125 1393.58 Q221.204 1398.16 221.204 1406.91 Q221.204 1415.64 218.125 1420.25 Q215.07 1424.83 209.26 1424.83 Q203.449 1424.83 200.371 1420.25 Q197.315 1415.64 197.315 1406.91 Q197.315 1398.16 200.371 1393.58 Q203.449 1388.97 209.26 1388.97 Z" fill="#000000" fill-rule="nonzero" fill-opacity="1" /><path clip-path="url(#clip830)" d="M115.256 1271.5 L144.931 1271.5 L144.931 1275.43 L115.256 1275.43 L115.256 1271.5 Z" fill="#000000" fill-rule="nonzero" fill-opacity="1" /><path clip-path="url(#clip830)" d="M165.024 1256.84 Q161.413 1256.84 159.584 1260.41 Q157.778 1263.95 157.778 1271.08 Q157.778 1278.19 159.584 1281.75 Q161.413 1285.29 165.024 1285.29 Q168.658 1285.29 170.464 1281.75 Q172.292 1278.19 172.292 1271.08 Q172.292 1263.95 170.464 1260.41 Q168.658 1256.84 165.024 1256.84 M165.024 1253.14 Q170.834 1253.14 173.889 1257.75 Q176.968 1262.33 176.968 1271.08 Q176.968 1279.81 173.889 1284.41 Q170.834 1289 165.024 1289 Q159.214 1289 156.135 1284.41 Q153.079 1279.81 153.079 1271.08 Q153.079 1262.33 156.135 1257.75 Q159.214 1253.14 165.024 1253.14 Z" fill="#000000" fill-rule="nonzero" fill-opacity="1" /><path clip-path="url(#clip830)" d="M185.186 1282.45 L190.07 1282.45 L190.07 1288.33 L185.186 1288.33 L185.186 1282.45 Z" fill="#000000" fill-rule="nonzero" fill-opacity="1" /><path clip-path="url(#clip830)" d="M200.301 1253.77 L218.658 1253.77 L218.658 1257.7 L204.584 1257.7 L204.584 1266.17 Q205.602 1265.83 206.621 1265.66 Q207.639 1265.48 208.658 1265.48 Q214.445 1265.48 217.824 1268.65 Q221.204 1271.82 221.204 1277.24 Q221.204 1282.82 217.732 1285.92 Q214.26 1289 207.94 1289 Q205.764 1289 203.496 1288.63 Q201.25 1288.26 198.843 1287.52 L198.843 1282.82 Q200.926 1283.95 203.149 1284.51 Q205.371 1285.06 207.848 1285.06 Q211.852 1285.06 214.19 1282.96 Q216.528 1280.85 216.528 1277.24 Q216.528 1273.63 214.19 1271.52 Q211.852 1269.41 207.848 1269.41 Q205.973 1269.41 204.098 1269.83 Q202.246 1270.25 200.301 1271.13 L200.301 1253.77 Z" fill="#000000" fill-rule="nonzero" fill-opacity="1" /><path clip-path="url(#clip830)" d="M164.028 1121.01 Q160.417 1121.01 158.589 1124.58 Q156.783 1128.12 156.783 1135.25 Q156.783 1142.35 158.589 1145.92 Q160.417 1149.46 164.028 1149.46 Q167.663 1149.46 169.468 1145.92 Q171.297 1142.35 171.297 1135.25 Q171.297 1128.12 169.468 1124.58 Q167.663 1121.01 164.028 1121.01 M164.028 1117.31 Q169.839 1117.31 172.894 1121.91 Q175.973 1126.5 175.973 1135.25 Q175.973 1143.97 172.894 1148.58 Q169.839 1153.16 164.028 1153.16 Q158.218 1153.16 155.14 1148.58 Q152.084 1143.97 152.084 1135.25 Q152.084 1126.5 155.14 1121.91 Q158.218 1117.31 164.028 1117.31 Z" fill="#000000" fill-rule="nonzero" fill-opacity="1" /><path clip-path="url(#clip830)" d="M184.19 1146.61 L189.075 1146.61 L189.075 1152.49 L184.19 1152.49 L184.19 1146.61 Z" fill="#000000" fill-rule="nonzero" fill-opacity="1" /><path clip-path="url(#clip830)" d="M209.26 1121.01 Q205.649 1121.01 203.82 1124.58 Q202.014 1128.12 202.014 1135.25 Q202.014 1142.35 203.82 1145.92 Q205.649 1149.46 209.26 1149.46 Q212.894 1149.46 214.699 1145.92 Q216.528 1142.35 216.528 1135.25 Q216.528 1128.12 214.699 1124.58 Q212.894 1121.01 209.26 1121.01 M209.26 1117.31 Q215.07 1117.31 218.125 1121.91 Q221.204 1126.5 221.204 1135.25 Q221.204 1143.97 218.125 1148.58 Q215.07 1153.16 209.26 1153.16 Q203.449 1153.16 200.371 1148.58 Q197.315 1143.97 197.315 1135.25 Q197.315 1126.5 200.371 1121.91 Q203.449 1117.31 209.26 1117.31 Z" fill="#000000" fill-rule="nonzero" fill-opacity="1" /><path clip-path="url(#clip830)" d="M165.024 985.177 Q161.413 985.177 159.584 988.742 Q157.778 992.283 157.778 999.413 Q157.778 1006.52 159.584 1010.08 Q161.413 1013.63 165.024 1013.63 Q168.658 1013.63 170.464 1010.08 Q172.292 1006.52 172.292 999.413 Q172.292 992.283 170.464 988.742 Q168.658 985.177 165.024 985.177 M165.024 981.473 Q170.834 981.473 173.889 986.08 Q176.968 990.663 176.968 999.413 Q176.968 1008.14 173.889 1012.75 Q170.834 1017.33 165.024 1017.33 Q159.214 1017.33 156.135 1012.75 Q153.079 1008.14 153.079 999.413 Q153.079 990.663 156.135 986.08 Q159.214 981.473 165.024 981.473 Z" fill="#000000" fill-rule="nonzero" fill-opacity="1" /><path clip-path="url(#clip830)" d="M185.186 1010.78 L190.07 1010.78 L190.07 1016.66 L185.186 1016.66 L185.186 1010.78 Z" fill="#000000" fill-rule="nonzero" fill-opacity="1" /><path clip-path="url(#clip830)" d="M200.301 982.098 L218.658 982.098 L218.658 986.033 L204.584 986.033 L204.584 994.505 Q205.602 994.158 206.621 993.996 Q207.639 993.811 208.658 993.811 Q214.445 993.811 217.824 996.982 Q221.204 1000.15 221.204 1005.57 Q221.204 1011.15 217.732 1014.25 Q214.26 1017.33 207.94 1017.33 Q205.764 1017.33 203.496 1016.96 Q201.25 1016.59 198.843 1015.85 L198.843 1011.15 Q200.926 1012.28 203.149 1012.84 Q205.371 1013.39 207.848 1013.39 Q211.852 1013.39 214.19 1011.29 Q216.528 1009.18 216.528 1005.57 Q216.528 1001.96 214.19 999.853 Q211.852 997.746 207.848 997.746 Q205.973 997.746 204.098 998.163 Q202.246 998.579 200.301 999.459 L200.301 982.098 Z" fill="#000000" fill-rule="nonzero" fill-opacity="1" /><path clip-path="url(#clip830)" d="M154.839 876.889 L162.477 876.889 L162.477 850.523 L154.167 852.19 L154.167 847.931 L162.431 846.264 L167.107 846.264 L167.107 876.889 L174.746 876.889 L174.746 880.824 L154.839 880.824 L154.839 876.889 Z" fill="#000000" fill-rule="nonzero" fill-opacity="1" /><path clip-path="url(#clip830)" d="M184.19 874.945 L189.075 874.945 L189.075 880.824 L184.19 880.824 L184.19 874.945 Z" fill="#000000" fill-rule="nonzero" fill-opacity="1" /><path clip-path="url(#clip830)" d="M209.26 849.343 Q205.649 849.343 203.82 852.908 Q202.014 856.449 202.014 863.579 Q202.014 870.685 203.82 874.25 Q205.649 877.792 209.26 877.792 Q212.894 877.792 214.699 874.25 Q216.528 870.685 216.528 863.579 Q216.528 856.449 214.699 852.908 Q212.894 849.343 209.26 849.343 M209.26 845.639 Q215.07 845.639 218.125 850.246 Q221.204 854.829 221.204 863.579 Q221.204 872.306 218.125 876.912 Q215.07 881.495 209.26 881.495 Q203.449 881.495 200.371 876.912 Q197.315 872.306 197.315 863.579 Q197.315 854.829 200.371 850.246 Q203.449 845.639 209.26 845.639 Z" fill="#000000" fill-rule="nonzero" fill-opacity="1" /><path clip-path="url(#clip830)" d="M49.9359 1150.14 L28.3562 1150.14 L28.3562 1144.28 L49.7131 1144.28 Q54.7739 1144.28 57.3202 1142.31 Q59.8346 1140.34 59.8346 1136.39 Q59.8346 1131.65 56.8109 1128.91 Q53.7872 1126.14 48.5673 1126.14 L28.3562 1126.14 L28.3562 1120.28 L64.0042 1120.28 L64.0042 1126.14 L58.5296 1126.14 Q61.7762 1128.27 63.3676 1131.11 Q64.9272 1133.91 64.9272 1137.63 Q64.9272 1143.77 61.1078 1146.96 Q57.2883 1150.14 49.9359 1150.14 M27.4968 1135.4 L27.4968 1135.4 Z" fill="#000000" fill-rule="nonzero" fill-opacity="1" /><polyline clip-path="url(#clip831)" style="stroke:#009af9; stroke-linecap:round; stroke-linejoin:round; stroke-width:4; stroke-opacity:1; fill:none" points="316.512,1406.88 320.474,1406.88 324.436,1406.88 328.397,1406.88 332.359,1406.88 336.321,1406.88 336.321,863.544 340.283,863.544 344.245,863.544 348.206,863.544 352.168,863.544 356.13,863.544 356.13,1406.88 360.092,1406.88 364.054,1406.88 368.015,1406.88 371.977,1406.88 375.939,1406.88 375.939,863.544 379.901,863.544 383.863,863.544 387.824,863.544 391.786,863.544 395.748,863.544 399.71,863.544 403.672,863.544 407.633,863.544 411.595,863.544 415.557,863.544 415.557,1406.88 419.519,1406.88 423.481,1406.88 427.442,1406.88 431.404,1406.88 435.366,1406.88 439.328,1406.88 443.29,1406.88 447.251,1406.88 451.213,1406.88 455.175,1406.88 455.175,863.544 459.137,863.544 463.099,863.544 467.06,863.544 471.022,863.544 474.984,863.544 474.984,1406.88 478.946,1406.88 482.907,1406.88 486.869,1406.88 490.831,1406.88 494.793,1406.88 498.755,1406.88 502.716,1406.88 506.678,1406.88 510.64,1406.88 514.602,1406.88 518.564,1406.88 522.525,1406.88 526.487,1406.88 530.449,1406.88 534.411,1406.88 534.411,863.544 538.373,863.544 542.334,863.544 546.296,863.544 550.258,863.544 554.22,863.544 558.182,863.544 562.143,863.544 566.105,863.544 570.067,863.544 574.029,863.544 574.029,1406.88 577.991,1406.88 581.952,1406.88 585.914,1406.88 589.876,1406.88 593.838,1406.88 593.838,863.544 597.8,863.544 601.761,863.544 605.723,863.544 609.685,863.544 613.647,863.544 617.609,863.544 621.57,863.544 625.532,863.544 629.494,863.544 633.456,863.544 637.418,863.544 641.379,863.544 645.341,863.544 649.303,863.544 653.265,863.544 653.265,1406.88 657.226,1406.88 661.188,1406.88 665.15,1406.88 669.112,1406.88 673.074,1406.88 673.074,863.544 677.035,863.544 680.997,863.544 684.959,863.544 688.921,863.544 692.883,863.544 692.883,1406.88 696.844,1406.88 700.806,1406.88 704.768,1406.88 708.73,1406.88 712.692,1406.88 716.653,1406.88 720.615,1406.88 724.577,1406.88 728.539,1406.88 732.501,1406.88 732.501,863.544 736.462,863.544 740.424,863.544 744.386,863.544 748.348,863.544 752.31,863.544 752.31,1406.88 756.271,1406.88 760.233,1406.88 764.195,1406.88 768.157,1406.88 772.119,1406.88 772.119,863.544 776.08,863.544 780.042,863.544 784.004,863.544 787.966,863.544 791.928,863.544 795.889,863.544 799.851,863.544 803.813,863.544 807.775,863.544 811.736,863.544 811.736,1406.88 815.698,1406.88 819.66,1406.88 823.622,1406.88 827.584,1406.88 831.545,1406.88 835.507,1406.88 839.469,1406.88 843.431,1406.88 847.393,1406.88 851.354,1406.88 851.354,863.544 855.316,863.544 859.278,863.544 863.24,863.544 867.202,863.544 871.163,863.544 875.125,863.544 879.087,863.544 883.049,863.544 887.011,863.544 890.972,863.544 890.972,1406.88 894.934,1406.88 898.896,1406.88 902.858,1406.88 906.82,1406.88 910.781,1406.88 914.743,1406.88 918.705,1406.88 922.667,1406.88 926.629,1406.88 930.59,1406.88 934.552,1406.88 938.514,1406.88 942.476,1406.88 946.438,1406.88 950.399,1406.88 954.361,1406.88 958.323,1406.88 962.285,1406.88 966.246,1406.88 970.208,1406.88 970.208,863.544 974.17,863.544 978.132,863.544 982.094,863.544 986.055,863.544 990.017,863.544 993.979,863.544 997.941,863.544 1001.9,863.544 1005.86,863.544 1009.83,863.544 1013.79,863.544 1017.75,863.544 1021.71,863.544 1025.67,863.544 1029.64,863.544 1029.64,1406.88 1033.6,1406.88 1037.56,1406.88 1041.52,1406.88 1045.48,1406.88 1049.44,1406.88 1049.44,863.544 1053.41,863.544 1057.37,863.544 1061.33,863.544 1065.29,863.544 1069.25,863.544 1069.25,1406.88 1073.21,1406.88 1077.18,1406.88 1081.14,1406.88 1085.1,1406.88 1089.06,1406.88 1093.02,1406.88 1096.99,1406.88 1100.95,1406.88 1104.91,1406.88 1108.87,1406.88 1112.83,1406.88 1116.79,1406.88 1120.76,1406.88 1124.72,1406.88 1128.68,1406.88 1132.64,1406.88 1136.6,1406.88 1140.57,1406.88 1144.53,1406.88 1148.49,1406.88 1148.49,863.544 1152.45,863.544 1156.41,863.544 1160.37,863.544 1164.34,863.544 1168.3,863.544 1172.26,863.544 1176.22,863.544 1180.18,863.544 1184.15,863.544 1188.11,863.544 1192.07,863.544 1196.03,863.544 1199.99,863.544 1203.95,863.544 1207.92,863.544 1207.92,1406.88 1211.88,1406.88 1215.84,1406.88 1219.8,1406.88 1223.76,1406.88 1227.72,1406.88 1231.69,1406.88 1235.65,1406.88 1239.61,1406.88 1243.57,1406.88 1247.53,1406.88 1247.53,863.544 1251.5,863.544 1255.46,863.544 1259.42,863.544 1263.38,863.544 1267.34,863.544 1267.34,1406.88 1271.3,1406.88 1275.27,1406.88 1279.23,1406.88 1283.19,1406.88 1287.15,1406.88 1291.11,1406.88 1295.08,1406.88 1299.04,1406.88 1303,1406.88 1306.96,1406.88 1306.96,863.544 1310.92,863.544 1314.88,863.544 1318.85,863.544 1322.81,863.544 1326.77,863.544 1326.77,1406.88 1330.73,1406.88 1334.69,1406.88 1338.66,1406.88 1342.62,1406.88 1346.58,1406.88 1350.54,1406.88 1354.5,1406.88 1358.46,1406.88 1362.43,1406.88 1366.39,1406.88 1366.39,863.544 1370.35,863.544 1374.31,863.544 1378.27,863.544 1382.23,863.544 1386.2,863.544 1386.2,1406.88 1390.16,1406.88 1394.12,1406.88 1398.08,1406.88 1402.04,1406.88 1406.01,1406.88 1409.97,1406.88 1413.93,1406.88 1417.89,1406.88 1421.85,1406.88 1425.81,1406.88 1429.78,1406.88 1433.74,1406.88 1437.7,1406.88 1441.66,1406.88 1445.62,1406.88 1445.62,863.544 1449.59,863.544 1453.55,863.544 1457.51,863.544 1461.47,863.544 1465.43,863.544 1469.39,863.544 1473.36,863.544 1477.32,863.544 1481.28,863.544 1485.24,863.544 1489.2,863.544 1493.17,863.544 1497.13,863.544 1501.09,863.544 1505.05,863.544 1505.05,1406.88 1509.01,1406.88 1512.97,1406.88 1516.94,1406.88 1520.9,1406.88 1524.86,1406.88 1528.82,1406.88 1532.78,1406.88 1536.74,1406.88 1540.71,1406.88 1544.67,1406.88 1544.67,863.544 1548.63,863.544 1552.59,863.544 1556.55,863.544 1560.52,863.544 1564.48,863.544 1568.44,863.544 1572.4,863.544 1576.36,863.544 1580.32,863.544 1584.29,863.544 1584.29,1406.88 1588.25,1406.88 1592.21,1406.88 1596.17,1406.88 1600.13,1406.88 1604.1,1406.88 1604.1,863.544 1608.06,863.544 1612.02,863.544 1615.98,863.544 1619.94,863.544 1623.9,863.544 1623.9,1406.88 1627.87,1406.88 1631.83,1406.88 1635.79,1406.88 1639.75,1406.88 1643.71,1406.88 1647.68,1406.88 1651.64,1406.88 1655.6,1406.88 1659.56,1406.88 1663.52,1406.88 1667.48,1406.88 1671.45,1406.88 1675.41,1406.88 1679.37,1406.88 1683.33,1406.88 1683.33,863.544 1687.29,863.544 1691.25,863.544 1695.22,863.544 1699.18,863.544 1703.14,863.544 1703.14,1406.88 1707.1,1406.88 1711.06,1406.88 1715.03,1406.88 1718.99,1406.88 1722.95,1406.88 1722.95,863.544 1726.91,863.544 1730.87,863.544 1734.83,863.544 1738.8,863.544 1742.76,863.544 1746.72,863.544 1750.68,863.544 1754.64,863.544 1758.61,863.544 1762.57,863.544 1762.57,1406.88 1766.53,1406.88 1770.49,1406.88 1774.45,1406.88 1778.41,1406.88 1782.38,1406.88 1786.34,1406.88 1790.3,1406.88 1794.26,1406.88 1798.22,1406.88 1802.19,1406.88 1802.19,863.544 1806.15,863.544 1810.11,863.544 1814.07,863.544 1818.03,863.544 1821.99,863.544 1821.99,1406.88 1825.96,1406.88 1829.92,1406.88 1833.88,1406.88 1837.84,1406.88 1841.8,1406.88 1841.8,863.544 1845.76,863.544 1849.73,863.544 1853.69,863.544 1857.65,863.544 1861.61,863.544 1865.57,863.544 1869.54,863.544 1873.5,863.544 1877.46,863.544 1881.42,863.544 1881.42,1406.88 1885.38,1406.88 1889.34,1406.88 1893.31,1406.88 1897.27,1406.88 1901.23,1406.88 1905.19,1406.88 1909.15,1406.88 1913.12,1406.88 1917.08,1406.88 1921.04,1406.88 1925,1406.88 1928.96,1406.88 1932.92,1406.88 1936.89,1406.88 1940.85,1406.88 1944.81,1406.88 1948.77,1406.88 1952.73,1406.88 1956.7,1406.88 1960.66,1406.88 1960.66,863.544 1964.62,863.544 1968.58,863.544 1972.54,863.544 1976.5,863.544 1980.47,863.544 1984.43,863.544 1988.39,863.544 1992.35,863.544 1996.31,863.544 2000.27,863.544 2000.27,1406.88 2004.24,1406.88 2008.2,1406.88 2012.16,1406.88 2016.12,1406.88 2020.08,1406.88 2024.05,1406.88 2028.01,1406.88 2031.97,1406.88 2035.93,1406.88 2039.89,1406.88 2039.89,863.544 2043.85,863.544 2047.82,863.544 2051.78,863.544 2055.74,863.544 2059.7,863.544 2063.66,863.544 2067.63,863.544 2071.59,863.544 2075.55,863.544 2079.51,863.544 2079.51,1406.88 2083.47,1406.88 2087.43,1406.88 2091.4,1406.88 2095.36,1406.88 2099.32,1406.88 2103.28,1406.88 2107.24,1406.88 2111.21,1406.88 2115.17,1406.88 2119.13,1406.88 2119.13,863.544 2123.09,863.544 2127.05,863.544 2131.01,863.544 2134.98,863.544 2138.94,863.544 2138.94,1406.88 2142.9,1406.88 2146.86,1406.88 2150.82,1406.88 2154.79,1406.88 2158.75,1406.88 2162.71,1406.88 2166.67,1406.88 2170.63,1406.88 2174.59,1406.88 2178.56,1406.88 2182.52,1406.88 2186.48,1406.88 2190.44,1406.88 2194.4,1406.88 2198.36,1406.88 2202.33,1406.88 2206.29,1406.88 2210.25,1406.88 2214.21,1406.88 2218.17,1406.88 2222.14,1406.88 2226.1,1406.88 2230.06,1406.88 2234.02,1406.88 2237.98,1406.88 2237.98,863.544 2241.94,863.544 2245.91,863.544 2249.87,863.544 2253.83,863.544 2257.79,863.544 2257.79,1406.88 2261.75,1406.88 2265.72,1406.88 2269.68,1406.88 2273.64,1406.88 2277.6,1406.88 2277.6,863.544 2281.56,863.544 2285.52,863.544 2289.49,863.544 2293.45,863.544 "/>
</svg>
