<?xml version="1.0" encoding="utf-8"?>
<svg xmlns="http://www.w3.org/2000/svg" xmlns:xlink="http://www.w3.org/1999/xlink" width="600" height="400" viewBox="0 0 2400 1600">
<defs>
  <clipPath id="clip420">
    <rect x="0" y="0" width="2400" height="1600"/>
  </clipPath>
</defs>
<path clip-path="url(#clip420)" d="M0 1600 L2400 1600 L2400 0 L0 0  Z" fill="#ffffff" fill-rule="evenodd" fill-opacity="1"/>
<defs>
  <clipPath id="clip421">
    <rect x="480" y="0" width="1681" height="1600"/>
  </clipPath>
</defs>
<path clip-path="url(#clip420)" d="M272.297 642.531 L2352.76 642.531 L2352.76 47.2441 L272.297 47.2441  Z" fill="#ffffff" fill-rule="evenodd" fill-opacity="1"/>
<defs>
  <clipPath id="clip422">
    <rect x="272" y="47" width="2081" height="596"/>
  </clipPath>
</defs>
<polyline clip-path="url(#clip422)" style="stroke:#000000; stroke-linecap:round; stroke-linejoin:round; stroke-width:2; stroke-opacity:0.1; fill:none" points="331.177,642.531 331.177,47.2441 "/>
<polyline clip-path="url(#clip422)" style="stroke:#000000; stroke-linecap:round; stroke-linejoin:round; stroke-width:2; stroke-opacity:0.1; fill:none" points="1453.63,642.531 1453.63,47.2441 "/>
<polyline clip-path="url(#clip422)" style="stroke:#000000; stroke-linecap:round; stroke-linejoin:round; stroke-width:2; stroke-opacity:0.1; fill:none" points="272.297,378.794 2352.76,378.794 "/>
<polyline clip-path="url(#clip422)" style="stroke:#000000; stroke-linecap:round; stroke-linejoin:round; stroke-width:2; stroke-opacity:0.1; fill:none" points="272.297,92.8022 2352.76,92.8022 "/>
<polyline clip-path="url(#clip420)" style="stroke:#000000; stroke-linecap:round; stroke-linejoin:round; stroke-width:4; stroke-opacity:1; fill:none" points="272.297,642.531 2352.76,642.531 "/>
<polyline clip-path="url(#clip420)" style="stroke:#000000; stroke-linecap:round; stroke-linejoin:round; stroke-width:4; stroke-opacity:1; fill:none" points="331.177,642.531 331.177,623.633 "/>
<polyline clip-path="url(#clip420)" style="stroke:#000000; stroke-linecap:round; stroke-linejoin:round; stroke-width:4; stroke-opacity:1; fill:none" points="1453.63,642.531 1453.63,623.633 "/>
<path clip-path="url(#clip420)" d="M281.443 716.655 L289.082 716.655 L289.082 690.29 L280.772 691.957 L280.772 687.697 L289.036 686.031 L293.712 686.031 L293.712 716.655 L301.351 716.655 L301.351 720.591 L281.443 720.591 L281.443 716.655 Z" fill="#000000" fill-rule="nonzero" fill-opacity="1" /><path clip-path="url(#clip420)" d="M320.795 689.109 Q317.184 689.109 315.355 692.674 Q313.55 696.216 313.55 703.345 Q313.55 710.452 315.355 714.017 Q317.184 717.558 320.795 717.558 Q324.429 717.558 326.235 714.017 Q328.063 710.452 328.063 703.345 Q328.063 696.216 326.235 692.674 Q324.429 689.109 320.795 689.109 M320.795 685.406 Q326.605 685.406 329.661 690.012 Q332.739 694.595 332.739 703.345 Q332.739 712.072 329.661 716.679 Q326.605 721.262 320.795 721.262 Q314.985 721.262 311.906 716.679 Q308.85 712.072 308.85 703.345 Q308.85 694.595 311.906 690.012 Q314.985 685.406 320.795 685.406 Z" fill="#000000" fill-rule="nonzero" fill-opacity="1" /><path clip-path="url(#clip420)" d="M332.739 679.507 L356.851 679.507 L356.851 682.704 L332.739 682.704 L332.739 679.507 Z" fill="#000000" fill-rule="nonzero" fill-opacity="1" /><path clip-path="url(#clip420)" d="M368.324 689.983 L381.583 689.983 L381.583 693.18 L363.753 693.18 L363.753 689.983 Q365.916 687.745 369.64 683.983 Q373.383 680.203 374.342 679.112 Q376.166 677.062 376.881 675.651 Q377.615 674.222 377.615 672.849 Q377.615 670.611 376.035 669.2 Q374.474 667.79 371.953 667.79 Q370.167 667.79 368.173 668.41 Q366.198 669.031 363.941 670.291 L363.941 666.454 Q366.236 665.533 368.229 665.063 Q370.223 664.592 371.878 664.592 Q376.242 664.592 378.837 666.774 Q381.433 668.956 381.433 672.605 Q381.433 674.335 380.774 675.896 Q380.135 677.438 378.423 679.545 Q377.953 680.09 375.433 682.704 Q372.913 685.3 368.324 689.983 Z" fill="#000000" fill-rule="nonzero" fill-opacity="1" /><path clip-path="url(#clip420)" d="M1418.62 716.655 L1426.25 716.655 L1426.25 690.29 L1417.94 691.957 L1417.94 687.697 L1426.21 686.031 L1430.88 686.031 L1430.88 716.655 L1438.52 716.655 L1438.52 720.591 L1418.62 720.591 L1418.62 716.655 Z" fill="#000000" fill-rule="nonzero" fill-opacity="1" /><path clip-path="url(#clip420)" d="M1457.97 689.109 Q1454.36 689.109 1452.53 692.674 Q1450.72 696.216 1450.72 703.345 Q1450.72 710.452 1452.53 714.017 Q1454.36 717.558 1457.97 717.558 Q1461.6 717.558 1463.41 714.017 Q1465.24 710.452 1465.24 703.345 Q1465.24 696.216 1463.41 692.674 Q1461.6 689.109 1457.97 689.109 M1457.97 685.406 Q1463.78 685.406 1466.83 690.012 Q1469.91 694.595 1469.91 703.345 Q1469.91 712.072 1466.83 716.679 Q1463.78 721.262 1457.97 721.262 Q1452.16 721.262 1449.08 716.679 Q1446.02 712.072 1446.02 703.345 Q1446.02 694.595 1449.08 690.012 Q1452.16 685.406 1457.97 685.406 Z" fill="#000000" fill-rule="nonzero" fill-opacity="1" /><path clip-path="url(#clip420)" d="M1479.62 667.602 Q1476.68 667.602 1475.2 670.498 Q1473.73 673.376 1473.73 679.168 Q1473.73 684.942 1475.2 687.839 Q1476.68 690.716 1479.62 690.716 Q1482.57 690.716 1484.04 687.839 Q1485.52 684.942 1485.52 679.168 Q1485.52 673.376 1484.04 670.498 Q1482.57 667.602 1479.62 667.602 M1479.62 664.592 Q1484.34 664.592 1486.82 668.335 Q1489.32 672.059 1489.32 679.168 Q1489.32 686.259 1486.82 690.002 Q1484.34 693.726 1479.62 693.726 Q1474.9 693.726 1472.39 690.002 Q1469.91 686.259 1469.91 679.168 Q1469.91 672.059 1472.39 668.335 Q1474.9 664.592 1479.62 664.592 Z" fill="#000000" fill-rule="nonzero" fill-opacity="1" /><polyline clip-path="url(#clip420)" style="stroke:#000000; stroke-linecap:round; stroke-linejoin:round; stroke-width:4; stroke-opacity:1; fill:none" points="272.297,642.531 272.297,47.2441 "/>
<polyline clip-path="url(#clip420)" style="stroke:#000000; stroke-linecap:round; stroke-linejoin:round; stroke-width:4; stroke-opacity:1; fill:none" points="272.297,378.794 291.194,378.794 "/>
<polyline clip-path="url(#clip420)" style="stroke:#000000; stroke-linecap:round; stroke-linejoin:round; stroke-width:4; stroke-opacity:1; fill:none" points="272.297,92.8022 291.194,92.8022 "/>
<path clip-path="url(#clip420)" d="M135.386 398.587 L143.024 398.587 L143.024 372.221 L134.714 373.888 L134.714 369.629 L142.978 367.962 L147.654 367.962 L147.654 398.587 L155.293 398.587 L155.293 402.522 L135.386 402.522 L135.386 398.587 Z" fill="#000000" fill-rule="nonzero" fill-opacity="1" /><path clip-path="url(#clip420)" d="M174.737 371.041 Q171.126 371.041 169.297 374.605 Q167.492 378.147 167.492 385.277 Q167.492 392.383 169.297 395.948 Q171.126 399.49 174.737 399.49 Q178.372 399.49 180.177 395.948 Q182.006 392.383 182.006 385.277 Q182.006 378.147 180.177 374.605 Q178.372 371.041 174.737 371.041 M174.737 367.337 Q180.547 367.337 183.603 371.943 Q186.682 376.527 186.682 385.277 Q186.682 394.004 183.603 398.61 Q180.547 403.193 174.737 403.193 Q168.927 403.193 165.848 398.61 Q162.793 394.004 162.793 385.277 Q162.793 376.527 165.848 371.943 Q168.927 367.337 174.737 367.337 Z" fill="#000000" fill-rule="nonzero" fill-opacity="1" /><path clip-path="url(#clip420)" d="M186.682 361.438 L210.793 361.438 L210.793 364.636 L186.682 364.636 L186.682 361.438 Z" fill="#000000" fill-rule="nonzero" fill-opacity="1" /><path clip-path="url(#clip420)" d="M230.504 359.971 Q233.231 360.554 234.754 362.398 Q236.297 364.241 236.297 366.949 Q236.297 371.106 233.438 373.381 Q230.579 375.657 225.313 375.657 Q223.545 375.657 221.664 375.3 Q219.802 374.961 217.809 374.265 L217.809 370.598 Q219.388 371.519 221.269 371.99 Q223.15 372.46 225.2 372.46 Q228.773 372.46 230.635 371.049 Q232.516 369.639 232.516 366.949 Q232.516 364.466 230.767 363.075 Q229.037 361.664 225.933 361.664 L222.661 361.664 L222.661 358.542 L226.084 358.542 Q228.886 358.542 230.372 357.432 Q231.858 356.304 231.858 354.197 Q231.858 352.034 230.316 350.887 Q228.792 349.721 225.933 349.721 Q224.372 349.721 222.586 350.06 Q220.799 350.398 218.655 351.113 L218.655 347.728 Q220.818 347.126 222.699 346.825 Q224.598 346.524 226.272 346.524 Q230.598 346.524 233.118 348.499 Q235.638 350.455 235.638 353.802 Q235.638 356.135 234.303 357.752 Q232.968 359.351 230.504 359.971 Z" fill="#000000" fill-rule="nonzero" fill-opacity="1" /><path clip-path="url(#clip420)" d="M165.591 112.595 L173.23 112.595 L173.23 86.229 L164.92 87.8957 L164.92 83.6364 L173.183 81.9698 L177.859 81.9698 L177.859 112.595 L185.498 112.595 L185.498 116.53 L165.591 116.53 L165.591 112.595 Z" fill="#000000" fill-rule="nonzero" fill-opacity="1" /><path clip-path="url(#clip420)" d="M204.943 85.0485 Q201.331 85.0485 199.503 88.6133 Q197.697 92.1549 197.697 99.2845 Q197.697 106.391 199.503 109.956 Q201.331 113.497 204.943 113.497 Q208.577 113.497 210.382 109.956 Q212.211 106.391 212.211 99.2845 Q212.211 92.1549 210.382 88.6133 Q208.577 85.0485 204.943 85.0485 M204.943 81.3448 Q210.753 81.3448 213.808 85.9512 Q216.887 90.5346 216.887 99.2845 Q216.887 108.011 213.808 112.618 Q210.753 117.201 204.943 117.201 Q199.132 117.201 196.054 112.618 Q192.998 108.011 192.998 99.2845 Q192.998 90.5346 196.054 85.9512 Q199.132 81.3448 204.943 81.3448 Z" fill="#000000" fill-rule="nonzero" fill-opacity="1" /><path clip-path="url(#clip420)" d="M226.592 63.5408 Q223.658 63.5408 222.172 66.4372 Q220.705 69.3148 220.705 75.1076 Q220.705 80.8816 222.172 83.778 Q223.658 86.6556 226.592 86.6556 Q229.545 86.6556 231.012 83.778 Q232.497 80.8816 232.497 75.1076 Q232.497 69.3148 231.012 66.4372 Q229.545 63.5408 226.592 63.5408 M226.592 60.5316 Q231.312 60.5316 233.795 64.2743 Q236.297 67.9983 236.297 75.1076 Q236.297 82.1981 233.795 85.9409 Q231.312 89.6648 226.592 89.6648 Q221.871 89.6648 219.37 85.9409 Q216.887 82.1981 216.887 75.1076 Q216.887 67.9983 219.37 64.2743 Q221.871 60.5316 226.592 60.5316 Z" fill="#000000" fill-rule="nonzero" fill-opacity="1" /><path clip-path="url(#clip420)" d="M36.9383 524.719 L36.9383 515.138 L69.2761 503.012 L36.9383 490.821 L36.9383 481.241 L84.4583 481.241 L84.4583 487.511 L42.7311 487.511 L75.3235 499.765 L75.3235 506.226 L42.7311 518.48 L84.4583 518.48 L84.4583 524.719 L36.9383 524.719 Z" fill="#000000" fill-rule="nonzero" fill-opacity="1" /><path clip-path="url(#clip420)" d="M66.5389 452.531 Q66.5389 459.629 68.1621 462.366 Q69.7854 465.104 73.7003 465.104 Q76.8195 465.104 78.6655 463.067 Q80.4798 460.998 80.4798 457.465 Q80.4798 452.595 77.0423 449.667 Q73.573 446.707 67.8438 446.707 L66.5389 446.707 L66.5389 452.531 M64.1199 440.85 L84.4583 440.85 L84.4583 446.707 L79.0475 446.707 Q82.294 448.712 83.8536 451.704 Q85.3814 454.696 85.3814 459.024 Q85.3814 464.499 82.3258 467.746 Q79.2385 470.96 74.0822 470.96 Q68.0666 470.96 65.0111 466.95 Q61.9556 462.908 61.9556 454.919 L61.9556 446.707 L61.3826 446.707 Q57.3404 446.707 55.1443 449.38 Q52.9163 452.022 52.9163 456.828 Q52.9163 459.884 53.6483 462.78 Q54.3804 465.677 55.8445 468.35 L50.4336 468.35 Q49.1923 465.136 48.5876 462.112 Q47.951 459.088 47.951 456.224 Q47.951 448.489 51.9614 444.67 Q55.9718 440.85 64.1199 440.85 Z" fill="#000000" fill-rule="nonzero" fill-opacity="1" /><path clip-path="url(#clip420)" d="M66.2206 405.33 Q59.8549 405.33 56.3537 407.972 Q52.8526 410.581 52.8526 415.324 Q52.8526 420.035 56.3537 422.676 Q59.8549 425.286 66.2206 425.286 Q72.5545 425.286 76.0556 422.676 Q79.5567 420.035 79.5567 415.324 Q79.5567 410.581 76.0556 407.972 Q72.5545 405.33 66.2206 405.33 M80.0342 399.473 Q89.1371 399.473 93.5613 403.516 Q98.0173 407.558 98.0173 415.897 Q98.0173 418.984 97.5399 421.721 Q97.0943 424.459 96.1394 427.037 L90.4421 427.037 Q91.8425 424.459 92.5109 421.944 Q93.1793 419.43 93.1793 416.82 Q93.1793 411.059 90.1556 408.194 Q87.1638 405.33 81.0845 405.33 L78.1881 405.33 Q81.3391 407.144 82.8987 409.977 Q84.4583 412.809 84.4583 416.756 Q84.4583 423.313 79.4613 427.323 Q74.4642 431.334 66.2206 431.334 Q57.9452 431.334 52.9481 427.323 Q47.951 423.313 47.951 416.756 Q47.951 412.809 49.5106 409.977 Q51.0702 407.144 54.2212 405.33 L48.8104 405.33 L48.8104 399.473 L80.0342 399.473 Z" fill="#000000" fill-rule="nonzero" fill-opacity="1" /><path clip-path="url(#clip420)" d="M62.9422 357.778 L84.4583 357.778 L84.4583 363.634 L63.1332 363.634 Q58.0725 363.634 55.558 365.608 Q53.0436 367.581 53.0436 371.528 Q53.0436 376.27 56.0673 379.008 Q59.091 381.745 64.3109 381.745 L84.4583 381.745 L84.4583 387.633 L48.8104 387.633 L48.8104 381.745 L54.3485 381.745 Q51.1339 379.644 49.5424 376.811 Q47.951 373.947 47.951 370.223 Q47.951 364.08 51.7704 360.929 Q55.558 357.778 62.9422 357.778 Z" fill="#000000" fill-rule="nonzero" fill-opacity="1" /><path clip-path="url(#clip420)" d="M48.8104 346.097 L48.8104 340.24 L84.4583 340.24 L84.4583 346.097 L48.8104 346.097 M34.9331 346.097 L34.9331 340.24 L42.3492 340.24 L42.3492 346.097 L34.9331 346.097 Z" fill="#000000" fill-rule="nonzero" fill-opacity="1" /><path clip-path="url(#clip420)" d="M38.6889 322.194 L48.8104 322.194 L48.8104 310.131 L53.3619 310.131 L53.3619 322.194 L72.7136 322.194 Q77.0741 322.194 78.3154 321.016 Q79.5567 319.806 79.5567 316.146 L79.5567 310.131 L84.4583 310.131 L84.4583 316.146 Q84.4583 322.926 81.9439 325.504 Q79.3976 328.082 72.7136 328.082 L53.3619 328.082 L53.3619 332.379 L48.8104 332.379 L48.8104 328.082 L38.6889 328.082 L38.6889 322.194 Z" fill="#000000" fill-rule="nonzero" fill-opacity="1" /><path clip-path="url(#clip420)" d="M70.3901 303.033 L48.8104 303.033 L48.8104 297.176 L70.1673 297.176 Q75.2281 297.176 77.7743 295.203 Q80.2888 293.23 80.2888 289.283 Q80.2888 284.54 77.2651 281.803 Q74.2414 279.034 69.0215 279.034 L48.8104 279.034 L48.8104 273.178 L84.4583 273.178 L84.4583 279.034 L78.9838 279.034 Q82.2303 281.167 83.8218 283.999 Q85.3814 286.8 85.3814 290.524 Q85.3814 296.667 81.5619 299.85 Q77.7425 303.033 70.3901 303.033 M47.951 288.296 L47.951 288.296 Z" fill="#000000" fill-rule="nonzero" fill-opacity="1" /><path clip-path="url(#clip420)" d="M54.2212 237.657 L34.9331 237.657 L34.9331 231.801 L84.4583 231.801 L84.4583 237.657 L79.1111 237.657 Q82.294 239.503 83.8536 242.336 Q85.3814 245.137 85.3814 249.083 Q85.3814 255.545 80.2251 259.619 Q75.0689 263.661 66.6662 263.661 Q58.2634 263.661 53.1072 259.619 Q47.951 255.545 47.951 249.083 Q47.951 245.137 49.5106 242.336 Q51.0384 239.503 54.2212 237.657 M66.6662 257.614 Q73.1274 257.614 76.8195 254.972 Q80.4798 252.298 80.4798 247.651 Q80.4798 243.004 76.8195 240.331 Q73.1274 237.657 66.6662 237.657 Q60.205 237.657 56.5447 240.331 Q52.8526 243.004 52.8526 247.651 Q52.8526 252.298 56.5447 254.972 Q60.205 257.614 66.6662 257.614 Z" fill="#000000" fill-rule="nonzero" fill-opacity="1" /><path clip-path="url(#clip420)" d="M65.1702 189.246 L68.0348 189.246 L68.0348 216.173 Q74.0822 215.791 77.2651 212.544 Q80.4161 209.266 80.4161 203.441 Q80.4161 200.068 79.5886 196.917 Q78.761 193.734 77.1059 190.614 L82.6441 190.614 Q83.9809 193.766 84.6811 197.076 Q85.3814 200.386 85.3814 203.791 Q85.3814 212.322 80.4161 217.319 Q75.4509 222.284 66.9845 222.284 Q58.2316 222.284 53.1072 217.573 Q47.951 212.831 47.951 204.81 Q47.951 197.617 52.598 193.447 Q57.2131 189.246 65.1702 189.246 M63.4515 195.102 Q58.6454 195.166 55.7808 197.808 Q52.9163 200.418 52.9163 204.746 Q52.9163 209.648 55.6853 212.608 Q58.4544 215.536 63.4833 215.982 L63.4515 195.102 Z" fill="#000000" fill-rule="nonzero" fill-opacity="1" /><polyline clip-path="url(#clip422)" style="stroke:#009af9; stroke-linecap:round; stroke-linejoin:round; stroke-width:4; stroke-opacity:1; fill:none" points="331.177,95.3087 340.568,95.3084 349.959,95.3081 359.35,95.3078 368.741,95.3075 378.132,95.3071 387.523,95.3067 396.914,95.3062 406.305,95.3058 415.696,95.3053 425.086,95.3047 434.477,95.3041 443.868,95.3035 453.259,95.3028 462.65,95.302 472.041,95.3012 481.432,95.3003 490.823,95.2994 500.214,95.2984 509.605,95.2973 518.995,95.2961 528.386,95.2948 537.777,95.2934 547.168,95.2919 556.559,95.2903 565.95,95.2885 575.341,95.2867 584.732,95.2846 594.123,95.2824 603.513,95.28 612.904,95.2775 622.295,95.2747 631.686,95.2717 641.077,95.2684 650.468,95.2649 659.859,95.2611 669.25,95.2571 678.641,95.2526 688.032,95.2479 697.422,95.2427 706.813,95.2371 716.204,95.2311 725.595,95.2246 734.986,95.2176 744.377,95.2101 753.768,95.2019 763.159,95.193 772.55,95.1835 781.941,95.1732 791.331,95.162 800.722,95.15 810.113,95.1369 819.504,95.1229 828.895,95.1077 838.286,95.0913 847.677,95.0736 857.068,95.0544 866.459,95.0337 875.85,95.0114 885.24,94.9872 894.631,94.9611 904.022,94.9329 913.413,94.9024 922.804,94.8695 932.195,94.8338 941.586,94.7954 950.977,94.7538 960.368,94.7088 969.758,94.6602 979.149,94.6077 988.54,94.5509 997.931,94.4895 1007.32,94.4231 1016.71,94.3513 1026.1,94.2736 1035.49,94.1896 1044.89,94.0988 1054.28,94.0005 1063.67,93.8941 1073.06,93.7791 1082.45,93.6545 1091.84,93.5197 1101.23,93.3738 1110.62,93.2158 1120.01,93.0447 1129.4,92.8593 1138.79,92.6584 1148.19,92.4408 1157.58,92.2048 1166.97,91.9489 1176.36,91.6714 1185.75,91.3704 1195.14,91.0436 1204.53,90.6888 1213.92,90.3035 1223.31,89.8849 1232.7,89.4299 1242.09,88.9352 1251.49,88.397 1260.88,87.8113 1270.27,87.1737 1279.66,86.4794 1289.05,85.723 1298.44,84.8989 1307.83,84.0009 1317.22,83.0227 1326.61,81.9575 1336,80.7987 1345.39,79.5401 1354.79,78.1767 1364.18,76.7058 1373.57,75.129 1382.96,73.4548 1392.35,71.7035 1401.74,69.9136 1411.13,68.1512 1420.52,66.5208 1429.91,65.1747 1439.3,64.3134 1448.69,64.1643 1458.09,64.9299 1467.48,66.7209 1476.87,69.5105 1486.26,73.1461 1495.65,77.4082 1505.04,82.0753 1514.43,86.9636 1523.82,91.9397 1533.21,96.9147 1542.6,101.834 1551.99,106.667 1561.38,111.399 1570.78,116.024 1580.17,120.542 1589.56,124.957 1598.95,129.275 1608.34,133.502 1617.73,137.645 1627.12,141.711 1636.51,145.705 1645.9,149.635 1655.29,153.505 1664.68,157.32 1674.08,161.086 1683.47,164.807 1692.86,168.486 1702.25,172.127 1711.64,175.734 1721.03,179.31 1730.42,182.857 1739.81,186.378 1749.2,189.875 1758.59,193.351 1767.98,196.807 1777.38,200.245 1786.77,203.667 1796.16,207.074 1805.55,210.468 1814.94,213.85 1824.33,217.222 1833.72,220.584 1843.11,223.939 1852.5,227.285 1861.89,230.626 1871.28,233.962 1880.68,237.293 1890.07,240.621 1899.46,243.947 1908.85,247.271 1918.24,250.595 1927.63,253.919 1937.02,257.244 1946.41,260.571 1955.8,263.902 1965.19,267.238 1974.58,270.578 1983.98,273.926 1993.37,277.281 2002.76,280.646 2012.15,284.022 2021.54,287.41 2030.93,290.813 2040.32,294.233 2049.71,297.672 2059.1,301.133 2068.49,304.619 2077.88,308.133 2087.28,311.681 2096.67,315.266 2106.06,318.894 2115.45,322.573 2124.84,326.31 2134.23,330.116 2143.62,334.001 2153.01,337.98 2162.4,342.071 2171.79,346.297 2181.18,350.686 2190.58,355.275 2199.97,360.112 2209.36,365.261 2218.75,370.813 2228.14,376.897 2237.53,383.701 2246.92,391.528 2256.31,400.884 2265.7,412.73 2275.09,429.228 2284.48,457.186 2293.87,538.991 "/>
<polyline clip-path="url(#clip422)" style="stroke:#e26f46; stroke-linecap:round; stroke-linejoin:round; stroke-width:4; stroke-opacity:1; fill:none" points="331.177,95.2866 340.568,95.2863 349.959,95.286 359.35,95.2857 368.741,95.2853 378.132,95.2849 387.523,95.2845 396.914,95.2841 406.305,95.2836 415.696,95.2831 425.086,95.2826 434.477,95.282 443.868,95.2813 453.259,95.2806 462.65,95.2799 472.041,95.2791 481.432,95.2782 490.823,95.2773 500.214,95.2762 509.605,95.2751 518.995,95.2739 528.386,95.2727 537.777,95.2713 547.168,95.2698 556.559,95.2682 565.95,95.2664 575.341,95.2645 584.732,95.2625 594.123,95.2603 603.513,95.2579 612.904,95.2553 622.295,95.2525 631.686,95.2495 641.077,95.2463 650.468,95.2428 659.859,95.239 669.25,95.2349 678.641,95.2305 688.032,95.2257 697.422,95.2206 706.813,95.215 716.204,95.209 725.595,95.2025 734.986,95.1955 744.377,95.1879 753.768,95.1797 763.159,95.1709 772.55,95.1613 781.941,95.151 791.331,95.1399 800.722,95.1278 810.113,95.1148 819.504,95.1008 828.895,95.0856 838.286,95.0692 847.677,95.0515 857.068,95.0323 866.459,95.0116 875.85,94.9893 885.24,94.9651 894.631,94.939 904.022,94.9108 913.413,94.8803 922.804,94.8474 932.195,94.8117 941.586,94.7733 950.977,94.7317 960.368,94.6867 969.758,94.6381 979.149,94.5856 988.54,94.5288 997.931,94.4674 1007.32,94.401 1016.71,94.3292 1026.1,94.2516 1035.49,94.1676 1044.89,94.0767 1054.28,93.9785 1063.67,93.8721 1073.06,93.7571 1082.45,93.6325 1091.84,93.4978 1101.23,93.3518 1110.62,93.1938 1120.01,93.0227 1129.4,92.8373 1138.79,92.6365 1148.19,92.4188 1157.58,92.1829 1166.97,91.9271 1176.36,91.6496 1185.75,91.3485 1195.14,91.0217 1204.53,90.667 1213.92,90.2817 1223.31,89.863 1232.7,89.408 1242.09,88.9132 1251.49,88.375 1260.88,87.7893 1270.27,87.1516 1279.66,86.4572 1289.05,85.7007 1298.44,84.8764 1307.83,83.9782 1317.22,82.9997 1326.61,81.9341 1336,80.7747 1345.39,79.5155 1354.79,78.1512 1364.18,76.6791 1373.57,75.1006 1382.96,73.4243 1392.35,71.6701 1401.74,69.8765 1411.13,68.1093 1420.52,66.4728 1429.91,65.1192 1439.3,64.2496 1448.69,64.0918 1458.09,64.8498 1467.48,66.6354 1476.87,69.4225 1486.26,73.0584 1495.65,77.3228 1505.04,81.9933 1514.43,86.8856 1523.82,91.8656 1533.21,96.8444 1542.6,101.767 1551.99,106.604 1561.38,111.338 1570.78,115.965 1580.17,120.485 1589.56,124.902 1598.95,129.222 1608.34,133.45 1617.73,137.594 1627.12,141.661 1636.51,145.656 1645.9,149.587 1655.29,153.457 1664.68,157.273 1674.08,161.04 1683.47,164.761 1692.86,168.441 1702.25,172.082 1711.64,175.69 1721.03,179.266 1730.42,182.813 1739.81,186.335 1749.2,189.832 1758.59,193.308 1767.98,196.764 1777.38,200.202 1786.77,203.625 1796.16,207.032 1805.55,210.426 1814.94,213.809 1824.33,217.181 1833.72,220.543 1843.11,223.897 1852.5,227.244 1861.89,230.585 1871.28,233.921 1880.68,237.252 1890.07,240.58 1899.46,243.906 1908.85,247.23 1918.24,250.554 1927.63,253.878 1937.02,257.203 1946.41,260.531 1955.8,263.862 1965.19,267.197 1974.58,270.538 1983.98,273.885 1993.37,277.241 2002.76,280.606 2012.15,283.982 2021.54,287.37 2030.93,290.773 2040.32,294.193 2049.71,297.632 2059.1,301.093 2068.49,304.579 2077.88,308.094 2087.28,311.641 2096.67,315.226 2106.06,318.855 2115.45,322.534 2124.84,326.271 2134.23,330.077 2143.62,333.962 2153.01,337.942 2162.4,342.034 2171.79,346.26 2181.18,350.649 2190.58,355.239 2199.97,360.076 2209.36,365.227 2218.75,370.78 2228.14,376.866 2237.53,383.674 2246.92,391.505 2256.31,400.871 2265.7,412.737 2275.09,429.291 2284.48,457.542 2293.87,625.683 "/>
<polyline clip-path="url(#clip422)" style="stroke:#3da44d; stroke-linecap:round; stroke-linejoin:round; stroke-width:4; stroke-opacity:1; fill:none" points="331.177,95.2743 340.568,95.274 349.959,95.2737 359.35,95.2734 368.741,95.273 378.132,95.2727 387.523,95.2723 396.914,95.2718 406.305,95.2713 415.696,95.2708 425.086,95.2703 434.477,95.2697 443.868,95.269 453.259,95.2684 462.65,95.2676 472.041,95.2668 481.432,95.2659 490.823,95.265 500.214,95.264 509.605,95.2629 518.995,95.2617 528.386,95.2604 537.777,95.259 547.168,95.2575 556.559,95.2559 565.95,95.2541 575.341,95.2522 584.732,95.2502 594.123,95.248 603.513,95.2456 612.904,95.243 622.295,95.2403 631.686,95.2373 641.077,95.234 650.468,95.2305 659.859,95.2267 669.25,95.2226 678.641,95.2182 688.032,95.2135 697.422,95.2083 706.813,95.2027 716.204,95.1967 725.595,95.1902 734.986,95.1832 744.377,95.1757 753.768,95.1675 763.159,95.1586 772.55,95.1491 781.941,95.1388 791.331,95.1276 800.722,95.1156 810.113,95.1026 819.504,95.0885 828.895,95.0734 838.286,95.057 847.677,95.0392 857.068,95.0201 866.459,94.9994 875.85,94.977 885.24,94.9529 894.631,94.9268 904.022,94.8986 913.413,94.8681 922.804,94.8352 932.195,94.7996 941.586,94.7611 950.977,94.7195 960.368,94.6746 969.758,94.626 979.149,94.5735 988.54,94.5167 997.931,94.4553 1007.32,94.389 1016.71,94.3172 1026.1,94.2396 1035.49,94.1556 1044.89,94.0648 1054.28,93.9665 1063.67,93.8602 1073.06,93.7452 1082.45,93.6207 1091.84,93.486 1101.23,93.3401 1110.62,93.1821 1120.01,93.0111 1129.4,92.8258 1138.79,92.625 1148.19,92.4074 1157.58,92.1715 1166.97,91.9158 1176.36,91.6384 1185.75,91.3374 1195.14,91.0108 1204.53,90.6561 1213.92,90.271 1223.31,89.8525 1232.7,89.3976 1242.09,88.9031 1251.49,88.3651 1260.88,87.7796 1270.27,87.1422 1279.66,86.4481 1289.05,85.692 1298.44,84.8681 1307.83,83.9704 1317.22,82.9925 1326.61,81.9275 1336,80.769 1345.39,79.5107 1354.79,78.1475 1364.18,76.6767 1373.57,75.0998 1382.96,73.4253 1392.35,71.6734 1401.74,69.8825 1411.13,68.1183 1420.52,66.4851 1429.91,65.1351 1439.3,64.2686 1448.69,64.1132 1458.09,64.8722 1467.48,66.6569 1476.87,69.4416 1486.26,73.074 1495.65,77.3346 1505.04,82.0013 1514.43,86.8903 1523.82,91.8674 1533.21,96.8437 1542.6,101.765 1551.99,106.599 1561.38,111.332 1570.78,115.958 1580.17,120.477 1589.56,124.893 1598.95,129.212 1608.34,133.44 1617.73,137.584 1627.12,141.65 1636.51,145.645 1645.9,149.575 1655.29,153.445 1664.68,157.261 1674.08,161.028 1683.47,164.748 1692.86,168.428 1702.25,172.07 1711.64,175.677 1721.03,179.253 1730.42,182.8 1739.81,186.321 1749.2,189.819 1758.59,193.295 1767.98,196.751 1777.38,200.189 1786.77,203.611 1796.16,207.018 1805.55,210.412 1814.94,213.795 1824.33,217.166 1833.72,220.529 1843.11,223.883 1852.5,227.23 1861.89,230.57 1871.28,233.906 1880.68,237.237 1890.07,240.565 1899.46,243.891 1908.85,247.215 1918.24,250.538 1927.63,253.862 1937.02,257.187 1946.41,260.515 1955.8,263.846 1965.19,267.181 1974.58,270.521 1983.98,273.868 1993.37,277.224 2002.76,280.588 2012.15,283.964 2021.54,287.352 2030.93,290.754 2040.32,294.174 2049.71,297.612 2059.1,301.072 2068.49,304.558 2077.88,308.071 2087.28,311.618 2096.67,315.202 2106.06,318.83 2115.45,322.507 2124.84,326.243 2134.23,330.046 2143.62,333.929 2153.01,337.906 2162.4,341.995 2171.79,346.217 2181.18,350.601 2190.58,355.184 2199.97,360.013 2209.36,365.152 2218.75,370.69 2228.14,376.754 2237.53,383.528 2246.92,391.305 2256.31,400.573 2265.7,412.232 2275.09,428.215 2284.48,453.686 2293.87,490.483 "/>
<path clip-path="url(#clip420)" d="M1856.54 274.447 L2283.41 274.447 L2283.41 67.087 L1856.54 67.087  Z" fill="#ffffff" fill-rule="evenodd" fill-opacity="1"/>
<polyline clip-path="url(#clip420)" style="stroke:#000000; stroke-linecap:round; stroke-linejoin:round; stroke-width:4; stroke-opacity:1; fill:none" points="1856.54,274.447 2283.41,274.447 2283.41,67.087 1856.54,67.087 1856.54,274.447 "/>
<polyline clip-path="url(#clip420)" style="stroke:#009af9; stroke-linecap:round; stroke-linejoin:round; stroke-width:4; stroke-opacity:1; fill:none" points="1879.66,118.927 2018.36,118.927 "/>
<path clip-path="url(#clip420)" d="M2041.47 101.647 L2070.71 101.647 L2070.71 105.582 L2058.44 105.582 L2058.44 136.207 L2053.74 136.207 L2053.74 105.582 L2041.47 105.582 L2041.47 101.647 Z" fill="#000000" fill-rule="nonzero" fill-opacity="1" /><path clip-path="url(#clip420)" d="M2083.09 114.263 Q2082.38 113.846 2081.52 113.661 Q2080.69 113.452 2079.67 113.452 Q2076.06 113.452 2074.11 115.814 Q2072.19 118.152 2072.19 122.55 L2072.19 136.207 L2067.91 136.207 L2067.91 110.281 L2072.19 110.281 L2072.19 114.309 Q2073.53 111.948 2075.69 110.814 Q2077.84 109.656 2080.92 109.656 Q2081.36 109.656 2081.89 109.726 Q2082.42 109.772 2083.07 109.888 L2083.09 114.263 Z" fill="#000000" fill-rule="nonzero" fill-opacity="1" /><path clip-path="url(#clip420)" d="M2087.12 125.976 L2087.12 110.281 L2091.38 110.281 L2091.38 125.814 Q2091.38 129.494 2092.82 131.346 Q2094.25 133.175 2097.12 133.175 Q2100.57 133.175 2102.56 130.976 Q2104.57 128.776 2104.57 124.98 L2104.57 110.281 L2108.83 110.281 L2108.83 136.207 L2104.57 136.207 L2104.57 132.226 Q2103.02 134.587 2100.96 135.744 Q2098.93 136.878 2096.22 136.878 Q2091.75 136.878 2089.44 134.101 Q2087.12 131.323 2087.12 125.976 M2097.84 109.656 L2097.84 109.656 Z" fill="#000000" fill-rule="nonzero" fill-opacity="1" /><path clip-path="url(#clip420)" d="M2139.78 122.179 L2139.78 124.263 L2120.2 124.263 Q2120.48 128.661 2122.84 130.976 Q2125.22 133.267 2129.46 133.267 Q2131.91 133.267 2134.2 132.665 Q2136.52 132.063 2138.79 130.86 L2138.79 134.888 Q2136.5 135.86 2134.09 136.369 Q2131.68 136.878 2129.2 136.878 Q2123 136.878 2119.37 133.267 Q2115.75 129.656 2115.75 123.499 Q2115.75 117.133 2119.18 113.406 Q2122.63 109.656 2128.46 109.656 Q2133.69 109.656 2136.73 113.036 Q2139.78 116.392 2139.78 122.179 M2135.52 120.929 Q2135.48 117.434 2133.56 115.351 Q2131.66 113.267 2128.51 113.267 Q2124.94 113.267 2122.79 115.281 Q2120.66 117.295 2120.34 120.952 L2135.52 120.929 Z" fill="#000000" fill-rule="nonzero" fill-opacity="1" /><polyline clip-path="url(#clip420)" style="stroke:#e26f46; stroke-linecap:round; stroke-linejoin:round; stroke-width:4; stroke-opacity:1; fill:none" points="1879.66,170.767 2018.36,170.767 "/>
<path clip-path="url(#clip420)" d="M2059.9 162.885 L2059.9 166.913 Q2058.09 165.987 2056.15 165.524 Q2054.2 165.061 2052.12 165.061 Q2048.95 165.061 2047.35 166.033 Q2045.78 167.005 2045.78 168.95 Q2045.78 170.431 2046.91 171.288 Q2048.05 172.121 2051.47 172.885 L2052.93 173.209 Q2057.47 174.181 2059.37 175.964 Q2061.29 177.723 2061.29 180.894 Q2061.29 184.505 2058.42 186.612 Q2055.57 188.718 2050.57 188.718 Q2048.49 188.718 2046.22 188.302 Q2043.97 187.908 2041.47 187.098 L2041.47 182.7 Q2043.83 183.927 2046.13 184.552 Q2048.42 185.153 2050.66 185.153 Q2053.67 185.153 2055.29 184.135 Q2056.91 183.093 2056.91 181.218 Q2056.91 179.482 2055.73 178.556 Q2054.57 177.63 2050.62 176.774 L2049.13 176.427 Q2045.18 175.593 2043.42 173.88 Q2041.66 172.144 2041.66 169.135 Q2041.66 165.478 2044.25 163.487 Q2046.84 161.496 2051.61 161.496 Q2053.97 161.496 2056.06 161.843 Q2058.14 162.191 2059.9 162.885 Z" fill="#000000" fill-rule="nonzero" fill-opacity="1" /><path clip-path="url(#clip420)" d="M2067.63 177.816 L2067.63 162.121 L2071.89 162.121 L2071.89 177.654 Q2071.89 181.334 2073.32 183.186 Q2074.76 185.015 2077.63 185.015 Q2081.08 185.015 2083.07 182.816 Q2085.08 180.616 2085.08 176.82 L2085.08 162.121 L2089.34 162.121 L2089.34 188.047 L2085.08 188.047 L2085.08 184.066 Q2083.53 186.427 2081.47 187.584 Q2079.44 188.718 2076.73 188.718 Q2072.26 188.718 2069.94 185.941 Q2067.63 183.163 2067.63 177.816 M2078.35 161.496 L2078.35 161.496 Z" fill="#000000" fill-rule="nonzero" fill-opacity="1" /><path clip-path="url(#clip420)" d="M2116.73 175.107 Q2116.73 170.408 2114.78 167.746 Q2112.86 165.061 2109.48 165.061 Q2106.1 165.061 2104.16 167.746 Q2102.24 170.408 2102.24 175.107 Q2102.24 179.806 2104.16 182.491 Q2106.1 185.153 2109.48 185.153 Q2112.86 185.153 2114.78 182.491 Q2116.73 179.806 2116.73 175.107 M2102.24 166.056 Q2103.58 163.742 2105.62 162.63 Q2107.68 161.496 2110.52 161.496 Q2115.25 161.496 2118.19 165.246 Q2121.15 168.996 2121.15 175.107 Q2121.15 181.218 2118.19 184.968 Q2115.25 188.718 2110.52 188.718 Q2107.68 188.718 2105.62 187.607 Q2103.58 186.473 2102.24 184.158 L2102.24 188.047 L2097.95 188.047 L2097.95 152.029 L2102.24 152.029 L2102.24 166.056 Z" fill="#000000" fill-rule="nonzero" fill-opacity="1" /><path clip-path="url(#clip420)" d="M2144.74 162.885 L2144.74 166.913 Q2142.93 165.987 2140.99 165.524 Q2139.04 165.061 2136.96 165.061 Q2133.79 165.061 2132.19 166.033 Q2130.62 167.005 2130.62 168.95 Q2130.62 170.431 2131.75 171.288 Q2132.88 172.121 2136.31 172.885 L2137.77 173.209 Q2142.31 174.181 2144.2 175.964 Q2146.12 177.723 2146.12 180.894 Q2146.12 184.505 2143.25 186.612 Q2140.41 188.718 2135.41 188.718 Q2133.32 188.718 2131.06 188.302 Q2128.81 187.908 2126.31 187.098 L2126.31 182.7 Q2128.67 183.927 2130.96 184.552 Q2133.25 185.153 2135.5 185.153 Q2138.51 185.153 2140.13 184.135 Q2141.75 183.093 2141.75 181.218 Q2141.75 179.482 2140.57 178.556 Q2139.41 177.63 2135.45 176.774 L2133.97 176.427 Q2130.01 175.593 2128.25 173.88 Q2126.5 172.144 2126.5 169.135 Q2126.5 165.478 2129.09 163.487 Q2131.68 161.496 2136.45 161.496 Q2138.81 161.496 2140.89 161.843 Q2142.98 162.191 2144.74 162.885 Z" fill="#000000" fill-rule="nonzero" fill-opacity="1" /><path clip-path="url(#clip420)" d="M2157.03 184.158 L2157.03 197.908 L2152.75 197.908 L2152.75 162.121 L2157.03 162.121 L2157.03 166.056 Q2158.37 163.742 2160.41 162.63 Q2162.47 161.496 2165.31 161.496 Q2170.04 161.496 2172.98 165.246 Q2175.94 168.996 2175.94 175.107 Q2175.94 181.218 2172.98 184.968 Q2170.04 188.718 2165.31 188.718 Q2162.47 188.718 2160.41 187.607 Q2158.37 186.473 2157.03 184.158 M2171.52 175.107 Q2171.52 170.408 2169.57 167.746 Q2167.65 165.061 2164.27 165.061 Q2160.89 165.061 2158.95 167.746 Q2157.03 170.408 2157.03 175.107 Q2157.03 179.806 2158.95 182.491 Q2160.89 185.153 2164.27 185.153 Q2167.65 185.153 2169.57 182.491 Q2171.52 179.806 2171.52 175.107 Z" fill="#000000" fill-rule="nonzero" fill-opacity="1" /><path clip-path="url(#clip420)" d="M2194.78 175.015 Q2189.62 175.015 2187.63 176.195 Q2185.64 177.376 2185.64 180.223 Q2185.64 182.491 2187.12 183.834 Q2188.62 185.153 2191.19 185.153 Q2194.74 185.153 2196.87 182.653 Q2199.02 180.13 2199.02 175.964 L2199.02 175.015 L2194.78 175.015 M2203.28 173.255 L2203.28 188.047 L2199.02 188.047 L2199.02 184.112 Q2197.56 186.473 2195.38 187.607 Q2193.21 188.718 2190.06 188.718 Q2186.08 188.718 2183.72 186.496 Q2181.38 184.251 2181.38 180.501 Q2181.38 176.126 2184.3 173.904 Q2187.24 171.681 2193.05 171.681 L2199.02 171.681 L2199.02 171.265 Q2199.02 168.325 2197.07 166.728 Q2195.15 165.107 2191.66 165.107 Q2189.43 165.107 2187.33 165.64 Q2185.22 166.172 2183.28 167.237 L2183.28 163.302 Q2185.62 162.399 2187.81 161.959 Q2190.01 161.496 2192.1 161.496 Q2197.72 161.496 2200.5 164.413 Q2203.28 167.329 2203.28 173.255 Z" fill="#000000" fill-rule="nonzero" fill-opacity="1" /><path clip-path="url(#clip420)" d="M2230.71 163.117 L2230.71 167.098 Q2228.9 166.103 2227.07 165.617 Q2225.27 165.107 2223.42 165.107 Q2219.27 165.107 2216.98 167.746 Q2214.69 170.362 2214.69 175.107 Q2214.69 179.853 2216.98 182.491 Q2219.27 185.107 2223.42 185.107 Q2225.27 185.107 2227.07 184.621 Q2228.9 184.112 2230.71 183.116 L2230.71 187.052 Q2228.93 187.885 2227 188.302 Q2225.11 188.718 2222.95 188.718 Q2217.1 188.718 2213.65 185.038 Q2210.2 181.357 2210.2 175.107 Q2210.2 168.765 2213.67 165.13 Q2217.17 161.496 2223.23 161.496 Q2225.2 161.496 2227.07 161.913 Q2228.95 162.306 2230.71 163.117 Z" fill="#000000" fill-rule="nonzero" fill-opacity="1" /><path clip-path="url(#clip420)" d="M2260.29 174.019 L2260.29 176.103 L2240.71 176.103 Q2240.99 180.501 2243.35 182.816 Q2245.73 185.107 2249.97 185.107 Q2252.42 185.107 2254.71 184.505 Q2257.03 183.903 2259.3 182.7 L2259.3 186.728 Q2257 187.7 2254.6 188.209 Q2252.19 188.718 2249.71 188.718 Q2243.51 188.718 2239.87 185.107 Q2236.26 181.496 2236.26 175.339 Q2236.26 168.973 2239.69 165.246 Q2243.14 161.496 2248.97 161.496 Q2254.2 161.496 2257.24 164.876 Q2260.29 168.232 2260.29 174.019 M2256.03 172.769 Q2255.99 169.274 2254.06 167.191 Q2252.17 165.107 2249.02 165.107 Q2245.45 165.107 2243.3 167.121 Q2241.17 169.135 2240.85 172.792 L2256.03 172.769 Z" fill="#000000" fill-rule="nonzero" fill-opacity="1" /><polyline clip-path="url(#clip420)" style="stroke:#3da44d; stroke-linecap:round; stroke-linejoin:round; stroke-width:4; stroke-opacity:1; fill:none" points="1879.66,222.607 2018.36,222.607 "/>
<path clip-path="url(#clip420)" d="M2063.19 224.239 L2063.19 239.887 L2058.93 239.887 L2058.93 224.378 Q2058.93 220.697 2057.49 218.869 Q2056.06 217.04 2053.19 217.04 Q2049.74 217.04 2047.75 219.239 Q2045.76 221.438 2045.76 225.234 L2045.76 239.887 L2041.47 239.887 L2041.47 213.961 L2045.76 213.961 L2045.76 217.989 Q2047.28 215.651 2049.34 214.494 Q2051.43 213.336 2054.13 213.336 Q2058.6 213.336 2060.89 216.114 Q2063.19 218.869 2063.19 224.239 Z" fill="#000000" fill-rule="nonzero" fill-opacity="1" /><path clip-path="url(#clip420)" d="M2085.13 209.401 L2073.32 227.85 L2085.13 227.85 L2085.13 209.401 M2083.9 205.327 L2089.78 205.327 L2089.78 227.85 L2094.71 227.85 L2094.71 231.739 L2089.78 231.739 L2089.78 239.887 L2085.13 239.887 L2085.13 231.739 L2069.53 231.739 L2069.53 227.225 L2083.9 205.327 Z" fill="#000000" fill-rule="nonzero" fill-opacity="1" /><path clip-path="url(#clip420)" d="M2118.37 214.725 L2118.37 218.753 Q2116.56 217.827 2114.62 217.364 Q2112.68 216.901 2110.59 216.901 Q2107.42 216.901 2105.82 217.873 Q2104.25 218.845 2104.25 220.79 Q2104.25 222.271 2105.38 223.128 Q2106.52 223.961 2109.94 224.725 L2111.4 225.049 Q2115.94 226.021 2117.84 227.804 Q2119.76 229.563 2119.76 232.734 Q2119.76 236.345 2116.89 238.452 Q2114.04 240.558 2109.04 240.558 Q2106.96 240.558 2104.69 240.142 Q2102.44 239.748 2099.94 238.938 L2099.94 234.54 Q2102.31 235.767 2104.6 236.392 Q2106.89 236.993 2109.13 236.993 Q2112.14 236.993 2113.76 235.975 Q2115.38 234.933 2115.38 233.058 Q2115.38 231.322 2114.2 230.396 Q2113.05 229.47 2109.09 228.614 L2107.61 228.267 Q2103.65 227.433 2101.89 225.72 Q2100.13 223.984 2100.13 220.975 Q2100.13 217.318 2102.72 215.327 Q2105.32 213.336 2110.08 213.336 Q2112.44 213.336 2114.53 213.683 Q2116.61 214.031 2118.37 214.725 Z" fill="#000000" fill-rule="nonzero" fill-opacity="1" /><path clip-path="url(#clip420)" d="M2126.54 213.961 L2130.8 213.961 L2130.8 239.887 L2126.54 239.887 L2126.54 213.961 M2126.54 203.869 L2130.8 203.869 L2130.8 209.262 L2126.54 209.262 L2126.54 203.869 Z" fill="#000000" fill-rule="nonzero" fill-opacity="1" /><path clip-path="url(#clip420)" d="M2156.77 217.896 L2156.77 203.869 L2161.03 203.869 L2161.03 239.887 L2156.77 239.887 L2156.77 235.998 Q2155.43 238.313 2153.37 239.447 Q2151.33 240.558 2148.46 240.558 Q2143.76 240.558 2140.8 236.808 Q2137.86 233.058 2137.86 226.947 Q2137.86 220.836 2140.8 217.086 Q2143.76 213.336 2148.46 213.336 Q2151.33 213.336 2153.37 214.47 Q2155.43 215.582 2156.77 217.896 M2142.26 226.947 Q2142.26 231.646 2144.18 234.331 Q2146.12 236.993 2149.5 236.993 Q2152.88 236.993 2154.83 234.331 Q2156.77 231.646 2156.77 226.947 Q2156.77 222.248 2154.83 219.586 Q2152.88 216.901 2149.5 216.901 Q2146.12 216.901 2144.18 219.586 Q2142.26 222.248 2142.26 226.947 Z" fill="#000000" fill-rule="nonzero" fill-opacity="1" /><path clip-path="url(#clip420)" d="M272.297 1410.9 L2352.76 1410.9 L2352.76 815.61 L272.297 815.61  Z" fill="#ffffff" fill-rule="evenodd" fill-opacity="1"/>
<defs>
  <clipPath id="clip423">
    <rect x="272" y="815" width="2081" height="596"/>
  </clipPath>
</defs>
<polyline clip-path="url(#clip423)" style="stroke:#000000; stroke-linecap:round; stroke-linejoin:round; stroke-width:2; stroke-opacity:0.1; fill:none" points="331.177,1410.9 331.177,815.61 "/>
<polyline clip-path="url(#clip423)" style="stroke:#000000; stroke-linecap:round; stroke-linejoin:round; stroke-width:2; stroke-opacity:0.1; fill:none" points="1453.63,1410.9 1453.63,815.61 "/>
<polyline clip-path="url(#clip423)" style="stroke:#000000; stroke-linecap:round; stroke-linejoin:round; stroke-width:2; stroke-opacity:0.1; fill:none" points="272.297,1361.18 2352.76,1361.18 "/>
<polyline clip-path="url(#clip423)" style="stroke:#000000; stroke-linecap:round; stroke-linejoin:round; stroke-width:2; stroke-opacity:0.1; fill:none" points="272.297,1255.31 2352.76,1255.31 "/>
<polyline clip-path="url(#clip423)" style="stroke:#000000; stroke-linecap:round; stroke-linejoin:round; stroke-width:2; stroke-opacity:0.1; fill:none" points="272.297,1149.44 2352.76,1149.44 "/>
<polyline clip-path="url(#clip423)" style="stroke:#000000; stroke-linecap:round; stroke-linejoin:round; stroke-width:2; stroke-opacity:0.1; fill:none" points="272.297,1043.57 2352.76,1043.57 "/>
<polyline clip-path="url(#clip423)" style="stroke:#000000; stroke-linecap:round; stroke-linejoin:round; stroke-width:2; stroke-opacity:0.1; fill:none" points="272.297,937.698 2352.76,937.698 "/>
<polyline clip-path="url(#clip423)" style="stroke:#000000; stroke-linecap:round; stroke-linejoin:round; stroke-width:2; stroke-opacity:0.1; fill:none" points="272.297,831.828 2352.76,831.828 "/>
<polyline clip-path="url(#clip420)" style="stroke:#000000; stroke-linecap:round; stroke-linejoin:round; stroke-width:4; stroke-opacity:1; fill:none" points="272.297,1410.9 2352.76,1410.9 "/>
<polyline clip-path="url(#clip420)" style="stroke:#000000; stroke-linecap:round; stroke-linejoin:round; stroke-width:4; stroke-opacity:1; fill:none" points="331.177,1410.9 331.177,1392 "/>
<polyline clip-path="url(#clip420)" style="stroke:#000000; stroke-linecap:round; stroke-linejoin:round; stroke-width:4; stroke-opacity:1; fill:none" points="1453.63,1410.9 1453.63,1392 "/>
<path clip-path="url(#clip420)" d="M281.443 1485.02 L289.082 1485.02 L289.082 1458.66 L280.772 1460.32 L280.772 1456.06 L289.036 1454.4 L293.712 1454.4 L293.712 1485.02 L301.351 1485.02 L301.351 1488.96 L281.443 1488.96 L281.443 1485.02 Z" fill="#000000" fill-rule="nonzero" fill-opacity="1" /><path clip-path="url(#clip420)" d="M320.795 1457.48 Q317.184 1457.48 315.355 1461.04 Q313.55 1464.58 313.55 1471.71 Q313.55 1478.82 315.355 1482.38 Q317.184 1485.92 320.795 1485.92 Q324.429 1485.92 326.235 1482.38 Q328.063 1478.82 328.063 1471.71 Q328.063 1464.58 326.235 1461.04 Q324.429 1457.48 320.795 1457.48 M320.795 1453.77 Q326.605 1453.77 329.661 1458.38 Q332.739 1462.96 332.739 1471.71 Q332.739 1480.44 329.661 1485.04 Q326.605 1489.63 320.795 1489.63 Q314.985 1489.63 311.906 1485.04 Q308.85 1480.44 308.85 1471.71 Q308.85 1462.96 311.906 1458.38 Q314.985 1453.77 320.795 1453.77 Z" fill="#000000" fill-rule="nonzero" fill-opacity="1" /><path clip-path="url(#clip420)" d="M332.739 1447.87 L356.851 1447.87 L356.851 1451.07 L332.739 1451.07 L332.739 1447.87 Z" fill="#000000" fill-rule="nonzero" fill-opacity="1" /><path clip-path="url(#clip420)" d="M368.324 1458.35 L381.583 1458.35 L381.583 1461.55 L363.753 1461.55 L363.753 1458.35 Q365.916 1456.11 369.64 1452.35 Q373.383 1448.57 374.342 1447.48 Q376.166 1445.43 376.881 1444.02 Q377.615 1442.59 377.615 1441.22 Q377.615 1438.98 376.035 1437.57 Q374.474 1436.16 371.953 1436.16 Q370.167 1436.16 368.173 1436.78 Q366.198 1437.4 363.941 1438.66 L363.941 1434.82 Q366.236 1433.9 368.229 1433.43 Q370.223 1432.96 371.878 1432.96 Q376.242 1432.96 378.837 1435.14 Q381.433 1437.32 381.433 1440.97 Q381.433 1442.7 380.774 1444.26 Q380.135 1445.8 378.423 1447.91 Q377.953 1448.46 375.433 1451.07 Q372.913 1453.67 368.324 1458.35 Z" fill="#000000" fill-rule="nonzero" fill-opacity="1" /><path clip-path="url(#clip420)" d="M1418.62 1485.02 L1426.25 1485.02 L1426.25 1458.66 L1417.94 1460.32 L1417.94 1456.06 L1426.21 1454.4 L1430.88 1454.4 L1430.88 1485.02 L1438.52 1485.02 L1438.52 1488.96 L1418.62 1488.96 L1418.62 1485.02 Z" fill="#000000" fill-rule="nonzero" fill-opacity="1" /><path clip-path="url(#clip420)" d="M1457.97 1457.48 Q1454.36 1457.48 1452.53 1461.04 Q1450.72 1464.58 1450.72 1471.71 Q1450.72 1478.82 1452.53 1482.38 Q1454.36 1485.92 1457.97 1485.92 Q1461.6 1485.92 1463.41 1482.38 Q1465.24 1478.82 1465.24 1471.71 Q1465.24 1464.58 1463.41 1461.04 Q1461.6 1457.48 1457.97 1457.48 M1457.97 1453.77 Q1463.78 1453.77 1466.83 1458.38 Q1469.91 1462.96 1469.91 1471.71 Q1469.91 1480.44 1466.83 1485.04 Q1463.78 1489.63 1457.97 1489.63 Q1452.16 1489.63 1449.08 1485.04 Q1446.02 1480.44 1446.02 1471.71 Q1446.02 1462.96 1449.08 1458.38 Q1452.16 1453.77 1457.97 1453.77 Z" fill="#000000" fill-rule="nonzero" fill-opacity="1" /><path clip-path="url(#clip420)" d="M1479.62 1435.97 Q1476.68 1435.97 1475.2 1438.86 Q1473.73 1441.74 1473.73 1447.53 Q1473.73 1453.31 1475.2 1456.2 Q1476.68 1459.08 1479.62 1459.08 Q1482.57 1459.08 1484.04 1456.2 Q1485.52 1453.31 1485.52 1447.53 Q1485.52 1441.74 1484.04 1438.86 Q1482.57 1435.97 1479.62 1435.97 M1479.62 1432.96 Q1484.34 1432.96 1486.82 1436.7 Q1489.32 1440.43 1489.32 1447.53 Q1489.32 1454.62 1486.82 1458.37 Q1484.34 1462.09 1479.62 1462.09 Q1474.9 1462.09 1472.39 1458.37 Q1469.91 1454.62 1469.91 1447.53 Q1469.91 1440.43 1472.39 1436.7 Q1474.9 1432.96 1479.62 1432.96 Z" fill="#000000" fill-rule="nonzero" fill-opacity="1" /><path clip-path="url(#clip420)" d="M1032.34 1526.67 L1059.65 1526.67 L1059.65 1532.08 L1038.77 1532.08 L1038.77 1546.08 L1057.61 1546.08 L1057.61 1551.49 L1038.77 1551.49 L1038.77 1574.19 L1032.34 1574.19 L1032.34 1526.67 Z" fill="#000000" fill-rule="nonzero" fill-opacity="1" /><path clip-path="url(#clip420)" d="M1085.49 1544.01 Q1084.51 1543.44 1083.33 1543.18 Q1082.18 1542.9 1080.78 1542.9 Q1075.82 1542.9 1073.14 1546.14 Q1070.5 1549.36 1070.5 1555.41 L1070.5 1574.19 L1064.61 1574.19 L1064.61 1538.54 L1070.5 1538.54 L1070.5 1544.08 Q1072.35 1540.83 1075.31 1539.27 Q1078.27 1537.68 1082.5 1537.68 Q1083.11 1537.68 1083.84 1537.77 Q1084.57 1537.84 1085.46 1538 L1085.49 1544.01 Z" fill="#000000" fill-rule="nonzero" fill-opacity="1" /><path clip-path="url(#clip420)" d="M1120.7 1554.9 L1120.7 1557.76 L1093.77 1557.76 Q1094.15 1563.81 1097.4 1566.99 Q1100.68 1570.14 1106.5 1570.14 Q1109.87 1570.14 1113.02 1569.32 Q1116.21 1568.49 1119.33 1566.83 L1119.33 1572.37 Q1116.18 1573.71 1112.87 1574.41 Q1109.56 1575.11 1106.15 1575.11 Q1097.62 1575.11 1092.62 1570.14 Q1087.66 1565.18 1087.66 1556.71 Q1087.66 1547.96 1092.37 1542.83 Q1097.11 1537.68 1105.13 1537.68 Q1112.32 1537.68 1116.49 1542.33 Q1120.7 1546.94 1120.7 1554.9 M1114.84 1553.18 Q1114.78 1548.37 1112.13 1545.51 Q1109.52 1542.64 1105.2 1542.64 Q1100.29 1542.64 1097.33 1545.41 Q1094.41 1548.18 1093.96 1553.21 L1114.84 1553.18 Z" fill="#000000" fill-rule="nonzero" fill-opacity="1" /><path clip-path="url(#clip420)" d="M1133.81 1556.39 Q1133.81 1562.85 1136.45 1566.55 Q1139.12 1570.21 1143.77 1570.21 Q1148.42 1570.21 1151.09 1566.55 Q1153.77 1562.85 1153.77 1556.39 Q1153.77 1549.93 1151.09 1546.27 Q1148.42 1542.58 1143.77 1542.58 Q1139.12 1542.58 1136.45 1546.27 Q1133.81 1549.93 1133.81 1556.39 M1153.77 1568.84 Q1151.92 1572.02 1149.09 1573.58 Q1146.29 1575.11 1142.34 1575.11 Q1135.88 1575.11 1131.8 1569.95 Q1127.76 1564.8 1127.76 1556.39 Q1127.76 1547.99 1131.8 1542.83 Q1135.88 1537.68 1142.34 1537.68 Q1146.29 1537.68 1149.09 1539.24 Q1151.92 1540.77 1153.77 1543.95 L1153.77 1538.54 L1159.62 1538.54 L1159.62 1587.74 L1153.77 1587.74 L1153.77 1568.84 Z" fill="#000000" fill-rule="nonzero" fill-opacity="1" /><path clip-path="url(#clip420)" d="M1171.08 1560.12 L1171.08 1538.54 L1176.94 1538.54 L1176.94 1559.89 Q1176.94 1564.96 1178.91 1567.5 Q1180.88 1570.02 1184.83 1570.02 Q1189.57 1570.02 1192.31 1566.99 Q1195.08 1563.97 1195.08 1558.75 L1195.08 1538.54 L1200.94 1538.54 L1200.94 1574.19 L1195.08 1574.19 L1195.08 1568.71 Q1192.95 1571.96 1190.11 1573.55 Q1187.31 1575.11 1183.59 1575.11 Q1177.45 1575.11 1174.26 1571.29 Q1171.08 1567.47 1171.08 1560.12 M1185.82 1537.68 L1185.82 1537.68 Z" fill="#000000" fill-rule="nonzero" fill-opacity="1" /><path clip-path="url(#clip420)" d="M1243.49 1554.9 L1243.49 1557.76 L1216.56 1557.76 Q1216.95 1563.81 1220.19 1566.99 Q1223.47 1570.14 1229.29 1570.14 Q1232.67 1570.14 1235.82 1569.32 Q1239 1568.49 1242.12 1566.83 L1242.12 1572.37 Q1238.97 1573.71 1235.66 1574.41 Q1232.35 1575.11 1228.94 1575.11 Q1220.41 1575.11 1215.42 1570.14 Q1210.45 1565.18 1210.45 1556.71 Q1210.45 1547.96 1215.16 1542.83 Q1219.91 1537.68 1227.93 1537.68 Q1235.12 1537.68 1239.29 1542.33 Q1243.49 1546.94 1243.49 1554.9 M1237.63 1553.18 Q1237.57 1548.37 1234.93 1545.51 Q1232.32 1542.64 1227.99 1542.64 Q1223.09 1542.64 1220.13 1545.41 Q1217.2 1548.18 1216.75 1553.21 L1237.63 1553.18 Z" fill="#000000" fill-rule="nonzero" fill-opacity="1" /><path clip-path="url(#clip420)" d="M1282.73 1552.67 L1282.73 1574.19 L1276.88 1574.19 L1276.88 1552.86 Q1276.88 1547.8 1274.9 1545.29 Q1272.93 1542.77 1268.98 1542.77 Q1264.24 1542.77 1261.51 1545.79 Q1258.77 1548.82 1258.77 1554.04 L1258.77 1574.19 L1252.88 1574.19 L1252.88 1538.54 L1258.77 1538.54 L1258.77 1544.08 Q1260.87 1540.86 1263.7 1539.27 Q1266.57 1537.68 1270.29 1537.68 Q1276.43 1537.68 1279.58 1541.5 Q1282.73 1545.29 1282.73 1552.67 Z" fill="#000000" fill-rule="nonzero" fill-opacity="1" /><path clip-path="url(#clip420)" d="M1320.07 1539.91 L1320.07 1545.38 Q1317.59 1544.01 1315.07 1543.34 Q1312.59 1542.64 1310.04 1542.64 Q1304.35 1542.64 1301.2 1546.27 Q1298.04 1549.87 1298.04 1556.39 Q1298.04 1562.92 1301.2 1566.55 Q1304.35 1570.14 1310.04 1570.14 Q1312.59 1570.14 1315.07 1569.47 Q1317.59 1568.77 1320.07 1567.41 L1320.07 1572.82 Q1317.62 1573.96 1314.98 1574.54 Q1312.37 1575.11 1309.41 1575.11 Q1301.35 1575.11 1296.61 1570.05 Q1291.87 1564.99 1291.87 1556.39 Q1291.87 1547.67 1296.64 1542.68 Q1301.45 1537.68 1309.79 1537.68 Q1312.49 1537.68 1315.07 1538.25 Q1317.65 1538.79 1320.07 1539.91 Z" fill="#000000" fill-rule="nonzero" fill-opacity="1" /><path clip-path="url(#clip420)" d="M1345.09 1577.5 Q1342.6 1583.86 1340.25 1585.8 Q1337.89 1587.74 1333.95 1587.74 L1329.27 1587.74 L1329.27 1582.84 L1332.71 1582.84 Q1335.12 1582.84 1336.46 1581.7 Q1337.8 1580.55 1339.42 1576.29 L1340.47 1573.61 L1326.05 1538.54 L1332.26 1538.54 L1343.4 1566.42 L1354.54 1538.54 L1360.75 1538.54 L1345.09 1577.5 Z" fill="#000000" fill-rule="nonzero" fill-opacity="1" /><path clip-path="url(#clip420)" d="M1389.01 1524.66 L1402.51 1524.66 L1402.51 1529.21 L1394.87 1529.21 L1394.87 1578.23 L1402.51 1578.23 L1402.51 1582.78 L1389.01 1582.78 L1389.01 1524.66 Z" fill="#000000" fill-rule="nonzero" fill-opacity="1" /><path clip-path="url(#clip420)" d="M1435.64 1544.01 Q1434.65 1543.44 1433.47 1543.18 Q1432.33 1542.9 1430.93 1542.9 Q1425.96 1542.9 1423.29 1546.14 Q1420.65 1549.36 1420.65 1555.41 L1420.65 1574.19 L1414.76 1574.19 L1414.76 1538.54 L1420.65 1538.54 L1420.65 1544.08 Q1422.49 1540.83 1425.45 1539.27 Q1428.41 1537.68 1432.65 1537.68 Q1433.25 1537.68 1433.98 1537.77 Q1434.72 1537.84 1435.61 1538 L1435.64 1544.01 Z" fill="#000000" fill-rule="nonzero" fill-opacity="1" /><path clip-path="url(#clip420)" d="M1457.98 1556.27 Q1450.88 1556.27 1448.15 1557.89 Q1445.41 1559.51 1445.41 1563.43 Q1445.41 1566.55 1447.45 1568.39 Q1449.52 1570.21 1453.05 1570.21 Q1457.92 1570.21 1460.85 1566.77 Q1463.81 1563.3 1463.81 1557.57 L1463.81 1556.27 L1457.98 1556.27 M1469.66 1553.85 L1469.66 1574.19 L1463.81 1574.19 L1463.81 1568.77 Q1461.8 1572.02 1458.81 1573.58 Q1455.82 1575.11 1451.49 1575.11 Q1446.02 1575.11 1442.77 1572.05 Q1439.55 1568.97 1439.55 1563.81 Q1439.55 1557.79 1443.56 1554.74 Q1447.61 1551.68 1455.6 1551.68 L1463.81 1551.68 L1463.81 1551.11 Q1463.81 1547.07 1461.13 1544.87 Q1458.49 1542.64 1453.69 1542.64 Q1450.63 1542.64 1447.73 1543.38 Q1444.84 1544.11 1442.16 1545.57 L1442.16 1540.16 Q1445.38 1538.92 1448.4 1538.31 Q1451.43 1537.68 1454.29 1537.68 Q1462.02 1537.68 1465.84 1541.69 Q1469.66 1545.7 1469.66 1553.85 Z" fill="#000000" fill-rule="nonzero" fill-opacity="1" /><path clip-path="url(#clip420)" d="M1505.18 1543.95 L1505.18 1524.66 L1511.04 1524.66 L1511.04 1574.19 L1505.18 1574.19 L1505.18 1568.84 Q1503.34 1572.02 1500.51 1573.58 Q1497.7 1575.11 1493.76 1575.11 Q1487.3 1575.11 1483.22 1569.95 Q1479.18 1564.8 1479.18 1556.39 Q1479.18 1547.99 1483.22 1542.83 Q1487.3 1537.68 1493.76 1537.68 Q1497.7 1537.68 1500.51 1539.24 Q1503.34 1540.77 1505.18 1543.95 M1485.23 1556.39 Q1485.23 1562.85 1487.87 1566.55 Q1490.54 1570.21 1495.19 1570.21 Q1499.84 1570.21 1502.51 1566.55 Q1505.18 1562.85 1505.18 1556.39 Q1505.18 1549.93 1502.51 1546.27 Q1499.84 1542.58 1495.19 1542.58 Q1490.54 1542.58 1487.87 1546.27 Q1485.23 1549.93 1485.23 1556.39 Z" fill="#000000" fill-rule="nonzero" fill-opacity="1" /><path clip-path="url(#clip420)" d="M1533.51 1526.67 L1538.92 1526.67 L1522.37 1580.23 L1516.96 1580.23 L1533.51 1526.67 Z" fill="#000000" fill-rule="nonzero" fill-opacity="1" /><path clip-path="url(#clip420)" d="M1567.79 1539.59 L1567.79 1545.13 Q1565.31 1543.85 1562.63 1543.22 Q1559.96 1542.58 1557.1 1542.58 Q1552.74 1542.58 1550.54 1543.92 Q1548.38 1545.25 1548.38 1547.93 Q1548.38 1549.96 1549.94 1551.14 Q1551.49 1552.29 1556.21 1553.34 L1558.21 1553.78 Q1564.45 1555.12 1567.06 1557.57 Q1569.7 1559.99 1569.7 1564.35 Q1569.7 1569.32 1565.75 1572.21 Q1561.84 1575.11 1554.96 1575.11 Q1552.1 1575.11 1548.98 1574.54 Q1545.89 1573.99 1542.46 1572.88 L1542.46 1566.83 Q1545.7 1568.52 1548.85 1569.38 Q1552 1570.21 1555.09 1570.21 Q1559.23 1570.21 1561.46 1568.81 Q1563.69 1567.37 1563.69 1564.8 Q1563.69 1562.41 1562.06 1561.14 Q1560.47 1559.86 1555.03 1558.68 L1552.99 1558.21 Q1547.55 1557.06 1545.13 1554.71 Q1542.71 1552.32 1542.71 1548.18 Q1542.71 1543.15 1546.27 1540.42 Q1549.84 1537.68 1556.4 1537.68 Q1559.64 1537.68 1562.51 1538.16 Q1565.37 1538.63 1567.79 1539.59 Z" fill="#000000" fill-rule="nonzero" fill-opacity="1" /><path clip-path="url(#clip420)" d="M1592.71 1524.66 L1592.71 1582.78 L1579.22 1582.78 L1579.22 1578.23 L1586.82 1578.23 L1586.82 1529.21 L1579.22 1529.21 L1579.22 1524.66 L1592.71 1524.66 Z" fill="#000000" fill-rule="nonzero" fill-opacity="1" /><polyline clip-path="url(#clip420)" style="stroke:#000000; stroke-linecap:round; stroke-linejoin:round; stroke-width:4; stroke-opacity:1; fill:none" points="272.297,1410.9 272.297,815.61 "/>
<polyline clip-path="url(#clip420)" style="stroke:#000000; stroke-linecap:round; stroke-linejoin:round; stroke-width:4; stroke-opacity:1; fill:none" points="272.297,1361.18 291.194,1361.18 "/>
<polyline clip-path="url(#clip420)" style="stroke:#000000; stroke-linecap:round; stroke-linejoin:round; stroke-width:4; stroke-opacity:1; fill:none" points="272.297,1255.31 291.194,1255.31 "/>
<polyline clip-path="url(#clip420)" style="stroke:#000000; stroke-linecap:round; stroke-linejoin:round; stroke-width:4; stroke-opacity:1; fill:none" points="272.297,1149.44 291.194,1149.44 "/>
<polyline clip-path="url(#clip420)" style="stroke:#000000; stroke-linecap:round; stroke-linejoin:round; stroke-width:4; stroke-opacity:1; fill:none" points="272.297,1043.57 291.194,1043.57 "/>
<polyline clip-path="url(#clip420)" style="stroke:#000000; stroke-linecap:round; stroke-linejoin:round; stroke-width:4; stroke-opacity:1; fill:none" points="272.297,937.698 291.194,937.698 "/>
<polyline clip-path="url(#clip420)" style="stroke:#000000; stroke-linecap:round; stroke-linejoin:round; stroke-width:4; stroke-opacity:1; fill:none" points="272.297,831.828 291.194,831.828 "/>
<path clip-path="url(#clip420)" d="M114.26 1361.63 L143.936 1361.63 L143.936 1365.56 L114.26 1365.56 L114.26 1361.63 Z" fill="#000000" fill-rule="nonzero" fill-opacity="1" /><path clip-path="url(#clip420)" d="M158.056 1374.52 L174.376 1374.52 L174.376 1378.46 L152.431 1378.46 L152.431 1374.52 Q155.093 1371.77 159.677 1367.14 Q164.283 1362.49 165.464 1361.14 Q167.709 1358.62 168.589 1356.88 Q169.491 1355.12 169.491 1353.43 Q169.491 1350.68 167.547 1348.94 Q165.626 1347.21 162.524 1347.21 Q160.325 1347.21 157.871 1347.97 Q155.44 1348.74 152.663 1350.29 L152.663 1345.56 Q155.487 1344.43 157.94 1343.85 Q160.394 1343.27 162.431 1343.27 Q167.802 1343.27 170.996 1345.96 Q174.19 1348.64 174.19 1353.13 Q174.19 1355.26 173.38 1357.18 Q172.593 1359.08 170.487 1361.68 Q169.908 1362.35 166.806 1365.56 Q163.704 1368.76 158.056 1374.52 Z" fill="#000000" fill-rule="nonzero" fill-opacity="1" /><path clip-path="url(#clip420)" d="M184.237 1343.9 L202.593 1343.9 L202.593 1347.83 L188.519 1347.83 L188.519 1356.31 Q189.538 1355.96 190.556 1355.8 Q191.575 1355.61 192.593 1355.61 Q198.38 1355.61 201.76 1358.78 Q205.139 1361.95 205.139 1367.37 Q205.139 1372.95 201.667 1376.05 Q198.195 1379.13 191.875 1379.13 Q189.7 1379.13 187.431 1378.76 Q185.186 1378.39 182.778 1377.65 L182.778 1372.95 Q184.862 1374.08 187.084 1374.64 Q189.306 1375.19 191.783 1375.19 Q195.787 1375.19 198.125 1373.09 Q200.463 1370.98 200.463 1367.37 Q200.463 1363.76 198.125 1361.65 Q195.787 1359.55 191.783 1359.55 Q189.908 1359.55 188.033 1359.96 Q186.181 1360.38 184.237 1361.26 L184.237 1343.9 Z" fill="#000000" fill-rule="nonzero" fill-opacity="1" /><path clip-path="url(#clip420)" d="M224.352 1346.98 Q220.741 1346.98 218.912 1350.54 Q217.107 1354.08 217.107 1361.21 Q217.107 1368.32 218.912 1371.88 Q220.741 1375.43 224.352 1375.43 Q227.986 1375.43 229.792 1371.88 Q231.621 1368.32 231.621 1361.21 Q231.621 1354.08 229.792 1350.54 Q227.986 1346.98 224.352 1346.98 M224.352 1343.27 Q230.162 1343.27 233.218 1347.88 Q236.297 1352.46 236.297 1361.21 Q236.297 1369.94 233.218 1374.55 Q230.162 1379.13 224.352 1379.13 Q218.542 1379.13 215.463 1374.55 Q212.408 1369.94 212.408 1361.21 Q212.408 1352.46 215.463 1347.88 Q218.542 1343.27 224.352 1343.27 Z" fill="#000000" fill-rule="nonzero" fill-opacity="1" /><path clip-path="url(#clip420)" d="M114.26 1255.76 L143.936 1255.76 L143.936 1259.69 L114.26 1259.69 L114.26 1255.76 Z" fill="#000000" fill-rule="nonzero" fill-opacity="1" /><path clip-path="url(#clip420)" d="M158.056 1268.65 L174.376 1268.65 L174.376 1272.59 L152.431 1272.59 L152.431 1268.65 Q155.093 1265.9 159.677 1261.27 Q164.283 1256.62 165.464 1255.27 Q167.709 1252.75 168.589 1251.01 Q169.491 1249.25 169.491 1247.56 Q169.491 1244.81 167.547 1243.07 Q165.626 1241.34 162.524 1241.34 Q160.325 1241.34 157.871 1242.1 Q155.44 1242.87 152.663 1244.42 L152.663 1239.69 Q155.487 1238.56 157.94 1237.98 Q160.394 1237.4 162.431 1237.4 Q167.802 1237.4 170.996 1240.09 Q174.19 1242.77 174.19 1247.26 Q174.19 1249.39 173.38 1251.31 Q172.593 1253.21 170.487 1255.81 Q169.908 1256.48 166.806 1259.69 Q163.704 1262.89 158.056 1268.65 Z" fill="#000000" fill-rule="nonzero" fill-opacity="1" /><path clip-path="url(#clip420)" d="M194.19 1241.11 Q190.579 1241.11 188.75 1244.67 Q186.945 1248.21 186.945 1255.34 Q186.945 1262.45 188.75 1266.01 Q190.579 1269.56 194.19 1269.56 Q197.825 1269.56 199.63 1266.01 Q201.459 1262.45 201.459 1255.34 Q201.459 1248.21 199.63 1244.67 Q197.825 1241.11 194.19 1241.11 M194.19 1237.4 Q200 1237.4 203.056 1242.01 Q206.135 1246.59 206.135 1255.34 Q206.135 1264.07 203.056 1268.68 Q200 1273.26 194.19 1273.26 Q188.38 1273.26 185.301 1268.68 Q182.246 1264.07 182.246 1255.34 Q182.246 1246.59 185.301 1242.01 Q188.38 1237.4 194.19 1237.4 Z" fill="#000000" fill-rule="nonzero" fill-opacity="1" /><path clip-path="url(#clip420)" d="M224.352 1241.11 Q220.741 1241.11 218.912 1244.67 Q217.107 1248.21 217.107 1255.34 Q217.107 1262.45 218.912 1266.01 Q220.741 1269.56 224.352 1269.56 Q227.986 1269.56 229.792 1266.01 Q231.621 1262.45 231.621 1255.34 Q231.621 1248.21 229.792 1244.67 Q227.986 1241.11 224.352 1241.11 M224.352 1237.4 Q230.162 1237.4 233.218 1242.01 Q236.297 1246.59 236.297 1255.34 Q236.297 1264.07 233.218 1268.68 Q230.162 1273.26 224.352 1273.26 Q218.542 1273.26 215.463 1268.68 Q212.408 1264.07 212.408 1255.34 Q212.408 1246.59 215.463 1242.01 Q218.542 1237.4 224.352 1237.4 Z" fill="#000000" fill-rule="nonzero" fill-opacity="1" /><path clip-path="url(#clip420)" d="M114.26 1149.89 L143.936 1149.89 L143.936 1153.82 L114.26 1153.82 L114.26 1149.89 Z" fill="#000000" fill-rule="nonzero" fill-opacity="1" /><path clip-path="url(#clip420)" d="M154.839 1162.78 L162.477 1162.78 L162.477 1136.42 L154.167 1138.08 L154.167 1133.82 L162.431 1132.16 L167.107 1132.16 L167.107 1162.78 L174.746 1162.78 L174.746 1166.72 L154.839 1166.72 L154.839 1162.78 Z" fill="#000000" fill-rule="nonzero" fill-opacity="1" /><path clip-path="url(#clip420)" d="M184.237 1132.16 L202.593 1132.16 L202.593 1136.09 L188.519 1136.09 L188.519 1144.57 Q189.538 1144.22 190.556 1144.06 Q191.575 1143.87 192.593 1143.87 Q198.38 1143.87 201.76 1147.04 Q205.139 1150.21 205.139 1155.63 Q205.139 1161.21 201.667 1164.31 Q198.195 1167.39 191.875 1167.39 Q189.7 1167.39 187.431 1167.02 Q185.186 1166.65 182.778 1165.91 L182.778 1161.21 Q184.862 1162.34 187.084 1162.9 Q189.306 1163.45 191.783 1163.45 Q195.787 1163.45 198.125 1161.35 Q200.463 1159.24 200.463 1155.63 Q200.463 1152.02 198.125 1149.91 Q195.787 1147.81 191.783 1147.81 Q189.908 1147.81 188.033 1148.22 Q186.181 1148.64 184.237 1149.52 L184.237 1132.16 Z" fill="#000000" fill-rule="nonzero" fill-opacity="1" /><path clip-path="url(#clip420)" d="M224.352 1135.24 Q220.741 1135.24 218.912 1138.8 Q217.107 1142.34 217.107 1149.47 Q217.107 1156.58 218.912 1160.14 Q220.741 1163.69 224.352 1163.69 Q227.986 1163.69 229.792 1160.14 Q231.621 1156.58 231.621 1149.47 Q231.621 1142.34 229.792 1138.8 Q227.986 1135.24 224.352 1135.24 M224.352 1131.53 Q230.162 1131.53 233.218 1136.14 Q236.297 1140.72 236.297 1149.47 Q236.297 1158.2 233.218 1162.81 Q230.162 1167.39 224.352 1167.39 Q218.542 1167.39 215.463 1162.81 Q212.408 1158.2 212.408 1149.47 Q212.408 1140.72 215.463 1136.14 Q218.542 1131.53 224.352 1131.53 Z" fill="#000000" fill-rule="nonzero" fill-opacity="1" /><path clip-path="url(#clip420)" d="M114.26 1044.02 L143.936 1044.02 L143.936 1047.95 L114.26 1047.95 L114.26 1044.02 Z" fill="#000000" fill-rule="nonzero" fill-opacity="1" /><path clip-path="url(#clip420)" d="M154.839 1056.91 L162.477 1056.91 L162.477 1030.55 L154.167 1032.21 L154.167 1027.95 L162.431 1026.29 L167.107 1026.29 L167.107 1056.91 L174.746 1056.91 L174.746 1060.85 L154.839 1060.85 L154.839 1056.91 Z" fill="#000000" fill-rule="nonzero" fill-opacity="1" /><path clip-path="url(#clip420)" d="M194.19 1029.37 Q190.579 1029.37 188.75 1032.93 Q186.945 1036.47 186.945 1043.6 Q186.945 1050.71 188.75 1054.27 Q190.579 1057.82 194.19 1057.82 Q197.825 1057.82 199.63 1054.27 Q201.459 1050.71 201.459 1043.6 Q201.459 1036.47 199.63 1032.93 Q197.825 1029.37 194.19 1029.37 M194.19 1025.66 Q200 1025.66 203.056 1030.27 Q206.135 1034.85 206.135 1043.6 Q206.135 1052.33 203.056 1056.94 Q200 1061.52 194.19 1061.52 Q188.38 1061.52 185.301 1056.94 Q182.246 1052.33 182.246 1043.6 Q182.246 1034.85 185.301 1030.27 Q188.38 1025.66 194.19 1025.66 Z" fill="#000000" fill-rule="nonzero" fill-opacity="1" /><path clip-path="url(#clip420)" d="M224.352 1029.37 Q220.741 1029.37 218.912 1032.93 Q217.107 1036.47 217.107 1043.6 Q217.107 1050.71 218.912 1054.27 Q220.741 1057.82 224.352 1057.82 Q227.986 1057.82 229.792 1054.27 Q231.621 1050.71 231.621 1043.6 Q231.621 1036.47 229.792 1032.93 Q227.986 1029.37 224.352 1029.37 M224.352 1025.66 Q230.162 1025.66 233.218 1030.27 Q236.297 1034.85 236.297 1043.6 Q236.297 1052.33 233.218 1056.94 Q230.162 1061.52 224.352 1061.52 Q218.542 1061.52 215.463 1056.94 Q212.408 1052.33 212.408 1043.6 Q212.408 1034.85 215.463 1030.27 Q218.542 1025.66 224.352 1025.66 Z" fill="#000000" fill-rule="nonzero" fill-opacity="1" /><path clip-path="url(#clip420)" d="M144.422 938.149 L174.098 938.149 L174.098 942.084 L144.422 942.084 L144.422 938.149 Z" fill="#000000" fill-rule="nonzero" fill-opacity="1" /><path clip-path="url(#clip420)" d="M184.237 920.418 L202.593 920.418 L202.593 924.353 L188.519 924.353 L188.519 932.825 Q189.538 932.478 190.556 932.316 Q191.575 932.131 192.593 932.131 Q198.38 932.131 201.76 935.302 Q205.139 938.473 205.139 943.89 Q205.139 949.468 201.667 952.57 Q198.195 955.649 191.875 955.649 Q189.7 955.649 187.431 955.279 Q185.186 954.908 182.778 954.168 L182.778 949.468 Q184.862 950.603 187.084 951.158 Q189.306 951.714 191.783 951.714 Q195.787 951.714 198.125 949.607 Q200.463 947.501 200.463 943.89 Q200.463 940.279 198.125 938.172 Q195.787 936.066 191.783 936.066 Q189.908 936.066 188.033 936.482 Q186.181 936.899 184.237 937.779 L184.237 920.418 Z" fill="#000000" fill-rule="nonzero" fill-opacity="1" /><path clip-path="url(#clip420)" d="M224.352 923.496 Q220.741 923.496 218.912 927.061 Q217.107 930.603 217.107 937.732 Q217.107 944.839 218.912 948.404 Q220.741 951.945 224.352 951.945 Q227.986 951.945 229.792 948.404 Q231.621 944.839 231.621 937.732 Q231.621 930.603 229.792 927.061 Q227.986 923.496 224.352 923.496 M224.352 919.793 Q230.162 919.793 233.218 924.399 Q236.297 928.982 236.297 937.732 Q236.297 946.459 233.218 951.066 Q230.162 955.649 224.352 955.649 Q218.542 955.649 215.463 951.066 Q212.408 946.459 212.408 937.732 Q212.408 928.982 215.463 924.399 Q218.542 919.793 224.352 919.793 Z" fill="#000000" fill-rule="nonzero" fill-opacity="1" /><path clip-path="url(#clip420)" d="M224.352 817.626 Q220.741 817.626 218.912 821.191 Q217.107 824.733 217.107 831.862 Q217.107 838.969 218.912 842.534 Q220.741 846.075 224.352 846.075 Q227.986 846.075 229.792 842.534 Q231.621 838.969 231.621 831.862 Q231.621 824.733 229.792 821.191 Q227.986 817.626 224.352 817.626 M224.352 813.923 Q230.162 813.923 233.218 818.529 Q236.297 823.112 236.297 831.862 Q236.297 840.589 233.218 845.196 Q230.162 849.779 224.352 849.779 Q218.542 849.779 215.463 845.196 Q212.408 840.589 212.408 831.862 Q212.408 823.112 215.463 818.529 Q218.542 813.923 224.352 813.923 Z" fill="#000000" fill-rule="nonzero" fill-opacity="1" /><path clip-path="url(#clip420)" d="M21.7677 1295.36 L39.6235 1295.36 L39.6235 1287.28 Q39.6235 1282.79 37.3 1280.34 Q34.9765 1277.89 30.6797 1277.89 Q26.4147 1277.89 24.0912 1280.34 Q21.7677 1282.79 21.7677 1287.28 L21.7677 1295.36 M16.4842 1301.79 L16.4842 1287.28 Q16.4842 1279.29 20.1126 1275.21 Q23.7092 1271.11 30.6797 1271.11 Q37.7138 1271.11 41.3104 1275.21 Q44.907 1279.29 44.907 1287.28 L44.907 1295.36 L64.0042 1295.36 L64.0042 1301.79 L16.4842 1301.79 Z" fill="#000000" fill-rule="nonzero" fill-opacity="1" /><path clip-path="url(#clip420)" d="M42.4881 1233.1 L64.0042 1233.1 L64.0042 1238.96 L42.679 1238.96 Q37.6183 1238.96 35.1038 1240.93 Q32.5894 1242.91 32.5894 1246.85 Q32.5894 1251.6 35.6131 1254.33 Q38.6368 1257.07 43.8567 1257.07 L64.0042 1257.07 L64.0042 1262.96 L14.479 1262.96 L14.479 1257.07 L33.8944 1257.07 Q30.6797 1254.97 29.0883 1252.14 Q27.4968 1249.27 27.4968 1245.55 Q27.4968 1239.41 31.3163 1236.25 Q35.1038 1233.1 42.4881 1233.1 Z" fill="#000000" fill-rule="nonzero" fill-opacity="1" /><path clip-path="url(#clip420)" d="M46.0847 1205.22 Q46.0847 1212.32 47.7079 1215.06 Q49.3312 1217.79 53.2461 1217.79 Q56.3653 1217.79 58.2114 1215.76 Q60.0256 1213.69 60.0256 1210.16 Q60.0256 1205.29 56.5881 1202.36 Q53.1188 1199.4 47.3897 1199.4 L46.0847 1199.4 L46.0847 1205.22 M43.6657 1193.54 L64.0042 1193.54 L64.0042 1199.4 L58.5933 1199.4 Q61.8398 1201.4 63.3994 1204.39 Q64.9272 1207.39 64.9272 1211.71 Q64.9272 1217.19 61.8716 1220.44 Q58.7843 1223.65 53.6281 1223.65 Q47.6125 1223.65 44.5569 1219.64 Q41.5014 1215.6 41.5014 1207.61 L41.5014 1199.4 L40.9285 1199.4 Q36.8862 1199.4 34.6901 1202.07 Q32.4621 1204.71 32.4621 1209.52 Q32.4621 1212.57 33.1941 1215.47 Q33.9262 1218.37 35.3903 1221.04 L29.9795 1221.04 Q28.7381 1217.83 28.1334 1214.8 Q27.4968 1211.78 27.4968 1208.91 Q27.4968 1201.18 31.5072 1197.36 Q35.5176 1193.54 43.6657 1193.54 Z" fill="#000000" fill-rule="nonzero" fill-opacity="1" /><path clip-path="url(#clip420)" d="M29.4065 1158.75 L34.9447 1158.75 Q33.6716 1161.23 33.035 1163.91 Q32.3984 1166.58 32.3984 1169.45 Q32.3984 1173.81 33.7352 1176 Q35.072 1178.17 37.7456 1178.17 Q39.7826 1178.17 40.9603 1176.61 Q42.1061 1175.05 43.1565 1170.34 L43.6021 1168.33 Q44.9389 1162.09 47.3897 1159.48 Q49.8086 1156.84 54.1691 1156.84 Q59.1344 1156.84 62.0308 1160.79 Q64.9272 1164.7 64.9272 1171.58 Q64.9272 1174.44 64.3543 1177.56 Q63.8132 1180.65 62.6992 1184.09 L56.6518 1184.09 Q58.3387 1180.84 59.198 1177.69 Q60.0256 1174.54 60.0256 1171.45 Q60.0256 1167.31 58.6251 1165.09 Q57.1929 1162.86 54.6147 1162.86 Q52.2276 1162.86 50.9545 1164.48 Q49.6813 1166.07 48.5037 1171.52 L48.0262 1173.55 Q46.8804 1179 44.5251 1181.41 Q42.138 1183.83 38.0002 1183.83 Q32.9713 1183.83 30.2341 1180.27 Q27.4968 1176.7 27.4968 1170.15 Q27.4968 1166.9 27.9743 1164.04 Q28.4517 1161.17 29.4065 1158.75 Z" fill="#000000" fill-rule="nonzero" fill-opacity="1" /><path clip-path="url(#clip420)" d="M44.7161 1117.03 L47.5806 1117.03 L47.5806 1143.95 Q53.6281 1143.57 56.8109 1140.32 Q59.9619 1137.05 59.9619 1131.22 Q59.9619 1127.85 59.1344 1124.7 Q58.3069 1121.51 56.6518 1118.39 L62.1899 1118.39 Q63.5267 1121.54 64.227 1124.85 Q64.9272 1128.17 64.9272 1131.57 Q64.9272 1140.1 59.9619 1145.1 Q54.9967 1150.06 46.5303 1150.06 Q37.7774 1150.06 32.6531 1145.35 Q27.4968 1140.61 27.4968 1132.59 Q27.4968 1125.4 32.1438 1121.23 Q36.7589 1117.03 44.7161 1117.03 M42.9973 1122.88 Q38.1912 1122.95 35.3266 1125.59 Q32.4621 1128.2 32.4621 1132.53 Q32.4621 1137.43 35.2312 1140.39 Q38.0002 1143.32 43.0292 1143.76 L42.9973 1122.88 Z" fill="#000000" fill-rule="nonzero" fill-opacity="1" /><path clip-path="url(#clip420)" d="M14.5426 1072.62 Q21.8632 1076.89 29.0246 1078.96 Q36.186 1081.03 43.5384 1081.03 Q50.8908 1081.03 58.1159 1078.96 Q65.3091 1076.86 72.5979 1072.62 L72.5979 1077.72 Q65.1182 1082.49 57.8931 1084.88 Q50.668 1087.23 43.5384 1087.23 Q36.4406 1087.23 29.2474 1084.88 Q22.0542 1082.52 14.5426 1077.72 L14.5426 1072.62 Z" fill="#000000" fill-rule="nonzero" fill-opacity="1" /><path clip-path="url(#clip420)" d="M33.7671 1037.8 L14.479 1037.8 L14.479 1031.95 L64.0042 1031.95 L64.0042 1037.8 L58.657 1037.8 Q61.8398 1039.65 63.3994 1042.48 Q64.9272 1045.28 64.9272 1049.23 Q64.9272 1055.69 59.771 1059.77 Q54.6147 1063.81 46.212 1063.81 Q37.8093 1063.81 32.6531 1059.77 Q27.4968 1055.69 27.4968 1049.23 Q27.4968 1045.28 29.0564 1042.48 Q30.5842 1039.65 33.7671 1037.8 M46.212 1057.76 Q52.6732 1057.76 56.3653 1055.12 Q60.0256 1052.44 60.0256 1047.8 Q60.0256 1043.15 56.3653 1040.48 Q52.6732 1037.8 46.212 1037.8 Q39.7508 1037.8 36.0905 1040.48 Q32.3984 1043.15 32.3984 1047.8 Q32.3984 1052.44 36.0905 1055.12 Q39.7508 1057.76 46.212 1057.76 Z" fill="#000000" fill-rule="nonzero" fill-opacity="1" /><path clip-path="url(#clip420)" d="M44.7161 989.393 L47.5806 989.393 L47.5806 1016.32 Q53.6281 1015.94 56.8109 1012.69 Q59.9619 1009.41 59.9619 1003.59 Q59.9619 1000.21 59.1344 997.063 Q58.3069 993.88 56.6518 990.761 L62.1899 990.761 Q63.5267 993.912 64.227 997.222 Q64.9272 1000.53 64.9272 1003.94 Q64.9272 1012.47 59.9619 1017.47 Q54.9967 1022.43 46.5303 1022.43 Q37.7774 1022.43 32.6531 1017.72 Q27.4968 1012.98 27.4968 1004.96 Q27.4968 997.764 32.1438 993.594 Q36.7589 989.393 44.7161 989.393 M42.9973 995.249 Q38.1912 995.313 35.3266 997.954 Q32.4621 1000.56 32.4621 1004.89 Q32.4621 1009.79 35.2312 1012.75 Q38.0002 1015.68 43.0292 1016.13 L42.9973 995.249 Z" fill="#000000" fill-rule="nonzero" fill-opacity="1" /><path clip-path="url(#clip420)" d="M45.7664 956.323 Q39.4007 956.323 35.8996 958.965 Q32.3984 961.574 32.3984 966.317 Q32.3984 971.028 35.8996 973.669 Q39.4007 976.279 45.7664 976.279 Q52.1003 976.279 55.6014 973.669 Q59.1026 971.028 59.1026 966.317 Q59.1026 961.574 55.6014 958.965 Q52.1003 956.323 45.7664 956.323 M59.58 950.466 Q68.683 950.466 73.1071 954.509 Q77.5631 958.551 77.5631 966.89 Q77.5631 969.977 77.0857 972.714 Q76.6401 975.452 75.6852 978.03 L69.9879 978.03 Q71.3884 975.452 72.0568 972.937 Q72.7252 970.423 72.7252 967.813 Q72.7252 962.052 69.7015 959.187 Q66.7096 956.323 60.6303 956.323 L57.7339 956.323 Q60.885 958.137 62.4446 960.97 Q64.0042 963.802 64.0042 967.749 Q64.0042 974.306 59.0071 978.316 Q54.01 982.327 45.7664 982.327 Q37.491 982.327 32.4939 978.316 Q27.4968 974.306 27.4968 967.749 Q27.4968 963.802 29.0564 960.97 Q30.616 958.137 33.7671 956.323 L28.3562 956.323 L28.3562 950.466 L59.58 950.466 Z" fill="#000000" fill-rule="nonzero" fill-opacity="1" /><path clip-path="url(#clip420)" d="M14.5426 939.326 L14.5426 934.234 Q22.0542 929.459 29.2474 927.104 Q36.4406 924.717 43.5384 924.717 Q50.668 924.717 57.8931 927.104 Q65.1182 929.459 72.5979 934.234 L72.5979 939.326 Q65.3091 935.093 58.1159 933.024 Q50.8908 930.924 43.5384 930.924 Q36.186 930.924 29.0246 933.024 Q21.8632 935.093 14.5426 939.326 Z" fill="#000000" fill-rule="nonzero" fill-opacity="1" /><polyline clip-path="url(#clip423)" style="stroke:#009af9; stroke-linecap:round; stroke-linejoin:round; stroke-width:4; stroke-opacity:1; fill:none" points="331.177,832.459 340.568,832.484 349.959,832.51 359.35,832.537 368.741,832.565 378.132,832.594 387.523,832.624 396.914,832.655 406.305,832.687 415.696,832.721 425.086,832.756 434.477,832.793 443.868,832.831 453.259,832.87 462.65,832.911 472.041,832.954 481.432,832.998 490.823,833.044 500.214,833.092 509.605,833.141 518.995,833.193 528.386,833.247 537.777,833.302 547.168,833.36 556.559,833.421 565.95,833.483 575.341,833.548 584.732,833.616 594.123,833.686 603.513,833.76 612.904,833.836 622.295,833.915 631.686,833.997 641.077,834.082 650.468,834.171 659.859,834.263 669.25,834.359 678.641,834.459 688.032,834.562 697.422,834.67 706.813,834.782 716.204,834.899 725.595,835.02 734.986,835.146 744.377,835.277 753.768,835.413 763.159,835.554 772.55,835.701 781.941,835.855 791.331,836.014 800.722,836.179 810.113,836.352 819.504,836.531 828.895,836.717 838.286,836.911 847.677,837.113 857.068,837.323 866.459,837.542 875.85,837.769 885.24,838.006 894.631,838.253 904.022,838.509 913.413,838.777 922.804,839.055 932.195,839.345 941.586,839.647 950.977,839.962 960.368,840.29 969.758,840.633 979.149,840.989 988.54,841.362 997.931,841.75 1007.32,842.156 1016.71,842.579 1026.1,843.021 1035.49,843.483 1044.89,843.967 1054.28,844.472 1063.67,845.001 1073.06,845.555 1082.45,846.135 1091.84,846.743 1101.23,847.381 1110.62,848.051 1120.01,848.755 1129.4,849.496 1138.79,850.276 1148.19,851.098 1157.58,851.965 1166.97,852.881 1176.36,853.85 1185.75,854.877 1195.14,855.966 1204.53,857.124 1213.92,858.357 1223.31,859.674 1232.7,861.081 1242.09,862.59 1251.49,864.212 1260.88,865.961 1270.27,867.851 1279.66,869.902 1289.05,872.136 1298.44,874.577 1307.83,877.258 1317.22,880.215 1326.61,883.493 1336,887.147 1345.39,891.244 1354.79,895.866 1364.18,901.113 1373.57,907.11 1382.96,914.005 1392.35,921.981 1401.74,931.246 1411.13,942.031 1420.52,954.559 1429.91,968.993 1439.3,985.348 1448.69,1003.39 1458.09,1022.55 1467.48,1042.01 1476.87,1060.86 1486.26,1078.36 1495.65,1094.06 1505.04,1107.85 1514.43,1119.8 1523.82,1130.1 1533.21,1138.99 1542.6,1146.69 1551.99,1153.41 1561.38,1159.3 1570.78,1164.51 1580.17,1169.16 1589.56,1173.34 1598.95,1177.12 1608.34,1180.58 1617.73,1183.74 1627.12,1186.67 1636.51,1189.4 1645.9,1191.95 1655.29,1194.35 1664.68,1196.63 1674.08,1198.79 1683.47,1200.86 1692.86,1202.85 1702.25,1204.76 1711.64,1206.62 1721.03,1208.43 1730.42,1210.19 1739.81,1211.92 1749.2,1213.62 1758.59,1215.3 1767.98,1216.96 1777.38,1218.6 1786.77,1220.24 1796.16,1221.88 1805.55,1223.52 1814.94,1225.16 1824.33,1226.81 1833.72,1228.48 1843.11,1230.16 1852.5,1231.85 1861.89,1233.57 1871.28,1235.32 1880.68,1237.09 1890.07,1238.9 1899.46,1240.74 1908.85,1242.62 1918.24,1244.54 1927.63,1246.5 1937.02,1248.52 1946.41,1250.58 1955.8,1252.7 1965.19,1254.87 1974.58,1257.1 1983.98,1259.4 1993.37,1261.77 2002.76,1264.2 2012.15,1266.72 2021.54,1269.31 2030.93,1271.98 2040.32,1274.74 2049.71,1277.59 2059.1,1280.53 2068.49,1283.57 2077.88,1286.72 2087.28,1289.97 2096.67,1293.33 2106.06,1296.82 2115.45,1300.42 2124.84,1304.15 2134.23,1308.01 2143.62,1312 2153.01,1316.14 2162.4,1320.42 2171.79,1324.86 2181.18,1329.44 2190.58,1334.18 2199.97,1339.08 2209.36,1344.14 2218.75,1349.35 2228.14,1354.7 2237.53,1360.16 2246.92,1365.7 2256.31,1371.18 2265.7,1376.36 2275.09,1380.41 2284.48,1379.24 2293.87,1212.96 "/>
<polyline clip-path="url(#clip423)" style="stroke:#e26f46; stroke-linecap:round; stroke-linejoin:round; stroke-width:4; stroke-opacity:1; fill:none" points="331.177,832.459 340.568,832.484 349.959,832.509 359.35,832.536 368.741,832.564 378.132,832.593 387.523,832.623 396.914,832.654 406.305,832.687 415.696,832.721 425.086,832.756 434.477,832.792 443.868,832.83 453.259,832.869 462.65,832.91 472.041,832.953 481.432,832.997 490.823,833.043 500.214,833.091 509.605,833.141 518.995,833.192 528.386,833.246 537.777,833.302 547.168,833.359 556.559,833.42 565.95,833.482 575.341,833.547 584.732,833.615 594.123,833.685 603.513,833.758 612.904,833.834 622.295,833.913 631.686,833.995 641.077,834.081 650.468,834.169 659.859,834.262 669.25,834.357 678.641,834.457 688.032,834.561 697.422,834.668 706.813,834.78 716.204,834.897 725.595,835.018 734.986,835.144 744.377,835.274 753.768,835.41 763.159,835.552 772.55,835.699 781.941,835.852 791.331,836.011 800.722,836.177 810.113,836.349 819.504,836.528 828.895,836.714 838.286,836.908 847.677,837.11 857.068,837.32 866.459,837.538 875.85,837.766 885.24,838.002 894.631,838.249 904.022,838.505 913.413,838.772 922.804,839.051 932.195,839.34 941.586,839.642 950.977,839.957 960.368,840.285 969.758,840.627 979.149,840.984 988.54,841.356 997.931,841.744 1007.32,842.149 1016.71,842.572 1026.1,843.014 1035.49,843.476 1044.89,843.959 1054.28,844.464 1063.67,844.992 1073.06,845.546 1082.45,846.125 1091.84,846.733 1101.23,847.371 1110.62,848.041 1120.01,848.744 1129.4,849.484 1138.79,850.263 1148.19,851.085 1157.58,851.951 1166.97,852.866 1176.36,853.835 1185.75,854.86 1195.14,855.949 1204.53,857.106 1213.92,858.338 1223.31,859.653 1232.7,861.06 1242.09,862.567 1251.49,864.188 1260.88,865.934 1270.27,867.823 1279.66,869.872 1289.05,872.103 1298.44,874.542 1307.83,877.219 1317.22,880.173 1326.61,883.448 1336,887.098 1345.39,891.19 1354.79,895.807 1364.18,901.048 1373.57,907.038 1382.96,913.926 1392.35,921.894 1401.74,931.152 1411.13,941.93 1420.52,954.452 1429.91,968.885 1439.3,985.245 1448.69,1003.3 1458.09,1022.48 1467.48,1041.97 1476.87,1060.84 1486.26,1078.37 1495.65,1094.1 1505.04,1107.9 1514.43,1119.87 1523.82,1130.18 1533.21,1139.08 1542.6,1146.79 1551.99,1153.51 1561.38,1159.41 1570.78,1164.62 1580.17,1169.27 1589.56,1173.45 1598.95,1177.24 1608.34,1180.69 1617.73,1183.86 1627.12,1186.8 1636.51,1189.52 1645.9,1192.08 1655.29,1194.48 1664.68,1196.76 1674.08,1198.93 1683.47,1201 1692.86,1202.99 1702.25,1204.91 1711.64,1206.77 1721.03,1208.58 1730.42,1210.35 1739.81,1212.08 1749.2,1213.79 1758.59,1215.47 1767.98,1217.14 1777.38,1218.79 1786.77,1220.44 1796.16,1222.08 1805.55,1223.72 1814.94,1225.37 1824.33,1227.03 1833.72,1228.7 1843.11,1230.39 1852.5,1232.1 1861.89,1233.83 1871.28,1235.58 1880.68,1237.37 1890.07,1239.18 1899.46,1241.04 1908.85,1242.93 1918.24,1244.86 1927.63,1246.84 1937.02,1248.86 1946.41,1250.94 1955.8,1253.07 1965.19,1255.26 1974.58,1257.51 1983.98,1259.83 1993.37,1262.21 2002.76,1264.67 2012.15,1267.2 2021.54,1269.81 2030.93,1272.51 2040.32,1275.29 2049.71,1278.17 2059.1,1281.14 2068.49,1284.21 2077.88,1287.39 2087.28,1290.68 2096.67,1294.08 2106.06,1297.61 2115.45,1301.26 2124.84,1305.04 2134.23,1308.95 2143.62,1313.01 2153.01,1317.22 2162.4,1321.58 2171.79,1326.1 2181.18,1330.79 2190.58,1335.65 2199.97,1340.7 2209.36,1345.93 2218.75,1351.35 2228.14,1356.97 2237.53,1362.8 2246.92,1368.84 2256.31,1375.07 2265.7,1381.48 2275.09,1387.97 2284.48,1394.05 2293.87,1212.96 "/>
<polyline clip-path="url(#clip423)" style="stroke:#3da44d; stroke-linecap:round; stroke-linejoin:round; stroke-width:4; stroke-opacity:1; fill:none" points="331.177,832.458 340.568,832.483 349.959,832.508 359.35,832.535 368.741,832.563 378.132,832.592 387.523,832.622 396.914,832.653 406.305,832.685 415.696,832.719 425.086,832.754 434.477,832.79 443.868,832.828 453.259,832.868 462.65,832.909 472.041,832.951 481.432,832.995 490.823,833.041 500.214,833.089 509.605,833.138 518.995,833.19 528.386,833.243 537.777,833.299 547.168,833.357 556.559,833.417 565.95,833.479 575.341,833.544 584.732,833.612 594.123,833.682 603.513,833.755 612.904,833.831 622.295,833.91 631.686,833.992 641.077,834.077 650.468,834.165 659.859,834.257 669.25,834.353 678.641,834.453 688.032,834.556 697.422,834.663 706.813,834.775 716.204,834.891 725.595,835.012 734.986,835.138 744.377,835.268 753.768,835.404 763.159,835.546 772.55,835.692 781.941,835.845 791.331,836.004 800.722,836.169 810.113,836.341 819.504,836.52 828.895,836.706 838.286,836.9 847.677,837.101 857.068,837.31 866.459,837.529 875.85,837.755 885.24,837.992 894.631,838.238 904.022,838.494 913.413,838.76 922.804,839.038 932.195,839.328 941.586,839.629 950.977,839.943 960.368,840.271 969.758,840.612 979.149,840.968 988.54,841.34 997.931,841.727 1007.32,842.132 1016.71,842.554 1026.1,842.995 1035.49,843.457 1044.89,843.939 1054.28,844.443 1063.67,844.971 1073.06,845.523 1082.45,846.102 1091.84,846.709 1101.23,847.346 1110.62,848.014 1120.01,848.717 1129.4,849.456 1138.79,850.234 1148.19,851.054 1157.58,851.919 1166.97,852.834 1176.36,853.801 1185.75,854.825 1195.14,855.913 1204.53,857.068 1213.92,858.299 1223.31,859.613 1232.7,861.018 1242.09,862.524 1251.49,864.143 1260.88,865.888 1270.27,867.775 1279.66,869.822 1289.05,872.052 1298.44,874.489 1307.83,877.165 1317.22,880.117 1326.61,883.39 1336,887.038 1345.39,891.129 1354.79,895.743 1364.18,900.982 1373.57,906.969 1382.96,913.855 1392.35,921.819 1401.74,931.072 1411.13,941.844 1420.52,954.358 1429.91,968.778 1439.3,985.123 1448.69,1003.15 1458.09,1022.32 1467.48,1041.78 1476.87,1060.64 1486.26,1078.14 1495.65,1093.86 1505.04,1107.66 1514.43,1119.61 1523.82,1129.92 1533.21,1138.81 1542.6,1146.51 1551.99,1153.22 1561.38,1159.11 1570.78,1164.32 1580.17,1168.97 1589.56,1173.14 1598.95,1176.92 1608.34,1180.36 1617.73,1183.52 1627.12,1186.44 1636.51,1189.16 1645.9,1191.7 1655.29,1194.1 1664.68,1196.36 1674.08,1198.51 1683.47,1200.57 1692.86,1202.55 1702.25,1204.45 1711.64,1206.3 1721.03,1208.09 1730.42,1209.84 1739.81,1211.55 1749.2,1213.24 1758.59,1214.9 1767.98,1216.55 1777.38,1218.18 1786.77,1219.8 1796.16,1221.42 1805.55,1223.04 1814.94,1224.66 1824.33,1226.29 1833.72,1227.93 1843.11,1229.59 1852.5,1231.26 1861.89,1232.96 1871.28,1234.68 1880.68,1236.43 1890.07,1238.21 1899.46,1240.02 1908.85,1241.87 1918.24,1243.76 1927.63,1245.69 1937.02,1247.66 1946.41,1249.69 1955.8,1251.77 1965.19,1253.9 1974.58,1256.09 1983.98,1258.34 1993.37,1260.66 2002.76,1263.05 2012.15,1265.5 2021.54,1268.04 2030.93,1270.65 2040.32,1273.34 2049.71,1276.12 2059.1,1278.99 2068.49,1281.96 2077.88,1285.02 2087.28,1288.18 2096.67,1291.44 2106.06,1294.82 2115.45,1298.3 2124.84,1301.9 2134.23,1305.62 2143.62,1309.46 2153.01,1313.42 2162.4,1317.5 2171.79,1321.7 2181.18,1326.02 2190.58,1330.46 2199.97,1334.99 2209.36,1339.61 2218.75,1344.28 2228.14,1348.94 2237.53,1353.49 2246.92,1357.77 2256.31,1361.4 2265.7,1363.52 2275.09,1361.66 2284.48,1344.64 2293.87,1212.96 "/>
</svg>
