<?xml version="1.0" encoding="utf-8"?>
<svg xmlns="http://www.w3.org/2000/svg" xmlns:xlink="http://www.w3.org/1999/xlink" width="600" height="400" viewBox="0 0 2400 1600">
<defs>
  <clipPath id="clip200">
    <rect x="0" y="0" width="2400" height="1600"/>
  </clipPath>
</defs>
<path clip-path="url(#clip200)" d="M0 1600 L2400 1600 L2400 0 L0 0  Z" fill="#ffffff" fill-rule="evenodd" fill-opacity="1"/>
<defs>
  <clipPath id="clip201">
    <rect x="480" y="0" width="1681" height="1600"/>
  </clipPath>
</defs>
<path clip-path="url(#clip200)" d="M251.372 1410.9 L2352.76 1410.9 L2352.76 123.472 L251.372 123.472  Z" fill="#ffffff" fill-rule="evenodd" fill-opacity="1"/>
<defs>
  <clipPath id="clip202">
    <rect x="251" y="123" width="2102" height="1288"/>
  </clipPath>
</defs>
<polyline clip-path="url(#clip202)" style="stroke:#000000; stroke-linecap:round; stroke-linejoin:round; stroke-width:2; stroke-opacity:0.1; fill:none" points="877.718,1410.9 877.718,123.472 "/>
<polyline clip-path="url(#clip202)" style="stroke:#000000; stroke-linecap:round; stroke-linejoin:round; stroke-width:2; stroke-opacity:0.1; fill:none" points="2011.46,1410.9 2011.46,123.472 "/>
<polyline clip-path="url(#clip202)" style="stroke:#000000; stroke-linecap:round; stroke-linejoin:round; stroke-width:2; stroke-opacity:0.1; fill:none" points="251.372,1407.88 2352.76,1407.88 "/>
<polyline clip-path="url(#clip202)" style="stroke:#000000; stroke-linecap:round; stroke-linejoin:round; stroke-width:2; stroke-opacity:0.1; fill:none" points="251.372,1123.65 2352.76,1123.65 "/>
<polyline clip-path="url(#clip202)" style="stroke:#000000; stroke-linecap:round; stroke-linejoin:round; stroke-width:2; stroke-opacity:0.1; fill:none" points="251.372,839.415 2352.76,839.415 "/>
<polyline clip-path="url(#clip202)" style="stroke:#000000; stroke-linecap:round; stroke-linejoin:round; stroke-width:2; stroke-opacity:0.1; fill:none" points="251.372,555.182 2352.76,555.182 "/>
<polyline clip-path="url(#clip202)" style="stroke:#000000; stroke-linecap:round; stroke-linejoin:round; stroke-width:2; stroke-opacity:0.1; fill:none" points="251.372,270.949 2352.76,270.949 "/>
<polyline clip-path="url(#clip200)" style="stroke:#000000; stroke-linecap:round; stroke-linejoin:round; stroke-width:4; stroke-opacity:1; fill:none" points="251.372,1410.9 2352.76,1410.9 "/>
<polyline clip-path="url(#clip200)" style="stroke:#000000; stroke-linecap:round; stroke-linejoin:round; stroke-width:4; stroke-opacity:1; fill:none" points="877.718,1410.9 877.718,1392 "/>
<polyline clip-path="url(#clip200)" style="stroke:#000000; stroke-linecap:round; stroke-linejoin:round; stroke-width:4; stroke-opacity:1; fill:none" points="2011.46,1410.9 2011.46,1392 "/>
<path clip-path="url(#clip200)" d="M827.983 1485.02 L835.622 1485.02 L835.622 1458.66 L827.312 1460.32 L827.312 1456.06 L835.576 1454.4 L840.252 1454.4 L840.252 1485.02 L847.891 1485.02 L847.891 1488.96 L827.983 1488.96 L827.983 1485.02 Z" fill="#000000" fill-rule="nonzero" fill-opacity="1" /><path clip-path="url(#clip200)" d="M867.335 1457.48 Q863.724 1457.48 861.895 1461.04 Q860.09 1464.58 860.09 1471.71 Q860.09 1478.82 861.895 1482.38 Q863.724 1485.92 867.335 1485.92 Q870.969 1485.92 872.775 1482.38 Q874.603 1478.82 874.603 1471.71 Q874.603 1464.58 872.775 1461.04 Q870.969 1457.48 867.335 1457.48 M867.335 1453.77 Q873.145 1453.77 876.201 1458.38 Q879.279 1462.96 879.279 1471.71 Q879.279 1480.44 876.201 1485.04 Q873.145 1489.63 867.335 1489.63 Q861.525 1489.63 858.446 1485.04 Q855.391 1480.44 855.391 1471.71 Q855.391 1462.96 858.446 1458.38 Q861.525 1453.77 867.335 1453.77 Z" fill="#000000" fill-rule="nonzero" fill-opacity="1" /><path clip-path="url(#clip200)" d="M879.279 1447.87 L903.391 1447.87 L903.391 1451.07 L879.279 1451.07 L879.279 1447.87 Z" fill="#000000" fill-rule="nonzero" fill-opacity="1" /><path clip-path="url(#clip200)" d="M914.864 1458.35 L928.123 1458.35 L928.123 1461.55 L910.293 1461.55 L910.293 1458.35 Q912.456 1456.11 916.18 1452.35 Q919.923 1448.57 920.882 1447.48 Q922.707 1445.43 923.421 1444.02 Q924.155 1442.59 924.155 1441.22 Q924.155 1438.98 922.575 1437.57 Q921.014 1436.16 918.494 1436.16 Q916.707 1436.16 914.713 1436.78 Q912.738 1437.4 910.481 1438.66 L910.481 1434.82 Q912.776 1433.9 914.77 1433.43 Q916.763 1432.96 918.418 1432.96 Q922.782 1432.96 925.377 1435.14 Q927.973 1437.32 927.973 1440.97 Q927.973 1442.7 927.314 1444.26 Q926.675 1445.8 924.963 1447.91 Q924.493 1448.46 921.973 1451.07 Q919.453 1453.67 914.864 1458.35 Z" fill="#000000" fill-rule="nonzero" fill-opacity="1" /><path clip-path="url(#clip200)" d="M1976.45 1485.02 L1984.08 1485.02 L1984.08 1458.66 L1975.77 1460.32 L1975.77 1456.06 L1984.04 1454.4 L1988.71 1454.4 L1988.71 1485.02 L1996.35 1485.02 L1996.35 1488.96 L1976.45 1488.96 L1976.45 1485.02 Z" fill="#000000" fill-rule="nonzero" fill-opacity="1" /><path clip-path="url(#clip200)" d="M2015.8 1457.48 Q2012.19 1457.48 2010.36 1461.04 Q2008.55 1464.58 2008.55 1471.71 Q2008.55 1478.82 2010.36 1482.38 Q2012.19 1485.92 2015.8 1485.92 Q2019.43 1485.92 2021.24 1482.38 Q2023.07 1478.82 2023.07 1471.71 Q2023.07 1464.58 2021.24 1461.04 Q2019.43 1457.48 2015.8 1457.48 M2015.8 1453.77 Q2021.61 1453.77 2024.66 1458.38 Q2027.74 1462.96 2027.74 1471.71 Q2027.74 1480.44 2024.66 1485.04 Q2021.61 1489.63 2015.8 1489.63 Q2009.99 1489.63 2006.91 1485.04 Q2003.85 1480.44 2003.85 1471.71 Q2003.85 1462.96 2006.91 1458.38 Q2009.99 1453.77 2015.8 1453.77 Z" fill="#000000" fill-rule="nonzero" fill-opacity="1" /><path clip-path="url(#clip200)" d="M2037.45 1435.97 Q2034.51 1435.97 2033.03 1438.86 Q2031.56 1441.74 2031.56 1447.53 Q2031.56 1453.31 2033.03 1456.2 Q2034.51 1459.08 2037.45 1459.08 Q2040.4 1459.08 2041.87 1456.2 Q2043.35 1453.31 2043.35 1447.53 Q2043.35 1441.74 2041.87 1438.86 Q2040.4 1435.97 2037.45 1435.97 M2037.45 1432.96 Q2042.17 1432.96 2044.65 1436.7 Q2047.15 1440.43 2047.15 1447.53 Q2047.15 1454.62 2044.65 1458.37 Q2042.17 1462.09 2037.45 1462.09 Q2032.73 1462.09 2030.22 1458.37 Q2027.74 1454.62 2027.74 1447.53 Q2027.74 1440.43 2030.22 1436.7 Q2032.73 1432.96 2037.45 1432.96 Z" fill="#000000" fill-rule="nonzero" fill-opacity="1" /><path clip-path="url(#clip200)" d="M1021.88 1526.67 L1049.19 1526.67 L1049.19 1532.08 L1028.31 1532.08 L1028.31 1546.08 L1047.15 1546.08 L1047.15 1551.49 L1028.31 1551.49 L1028.31 1574.19 L1021.88 1574.19 L1021.88 1526.67 Z" fill="#000000" fill-rule="nonzero" fill-opacity="1" /><path clip-path="url(#clip200)" d="M1075.03 1544.01 Q1074.04 1543.44 1072.87 1543.18 Q1071.72 1542.9 1070.32 1542.9 Q1065.36 1542.9 1062.68 1546.14 Q1060.04 1549.36 1060.04 1555.41 L1060.04 1574.19 L1054.15 1574.19 L1054.15 1538.54 L1060.04 1538.54 L1060.04 1544.08 Q1061.89 1540.83 1064.85 1539.27 Q1067.81 1537.68 1072.04 1537.68 Q1072.64 1537.68 1073.38 1537.77 Q1074.11 1537.84 1075 1538 L1075.03 1544.01 Z" fill="#000000" fill-rule="nonzero" fill-opacity="1" /><path clip-path="url(#clip200)" d="M1110.23 1554.9 L1110.23 1557.76 L1083.31 1557.76 Q1083.69 1563.81 1086.93 1566.99 Q1090.21 1570.14 1096.04 1570.14 Q1099.41 1570.14 1102.56 1569.32 Q1105.75 1568.49 1108.86 1566.83 L1108.86 1572.37 Q1105.71 1573.71 1102.4 1574.41 Q1099.09 1575.11 1095.69 1575.11 Q1087.16 1575.11 1082.16 1570.14 Q1077.2 1565.18 1077.2 1556.71 Q1077.2 1547.96 1081.91 1542.83 Q1086.65 1537.68 1094.67 1537.68 Q1101.86 1537.68 1106.03 1542.33 Q1110.23 1546.94 1110.23 1554.9 M1104.38 1553.18 Q1104.31 1548.37 1101.67 1545.51 Q1099.06 1542.64 1094.73 1542.64 Q1089.83 1542.64 1086.87 1545.41 Q1083.94 1548.18 1083.5 1553.21 L1104.38 1553.18 Z" fill="#000000" fill-rule="nonzero" fill-opacity="1" /><path clip-path="url(#clip200)" d="M1123.35 1556.39 Q1123.35 1562.85 1125.99 1566.55 Q1128.66 1570.21 1133.31 1570.21 Q1137.96 1570.21 1140.63 1566.55 Q1143.3 1562.85 1143.3 1556.39 Q1143.3 1549.93 1140.63 1546.27 Q1137.96 1542.58 1133.31 1542.58 Q1128.66 1542.58 1125.99 1546.27 Q1123.35 1549.93 1123.35 1556.39 M1143.3 1568.84 Q1141.46 1572.02 1138.62 1573.58 Q1135.82 1575.11 1131.88 1575.11 Q1125.42 1575.11 1121.34 1569.95 Q1117.3 1564.8 1117.3 1556.39 Q1117.3 1547.99 1121.34 1542.83 Q1125.42 1537.68 1131.88 1537.68 Q1135.82 1537.68 1138.62 1539.24 Q1141.46 1540.77 1143.3 1543.95 L1143.3 1538.54 L1149.16 1538.54 L1149.16 1587.74 L1143.3 1587.74 L1143.3 1568.84 Z" fill="#000000" fill-rule="nonzero" fill-opacity="1" /><path clip-path="url(#clip200)" d="M1160.62 1560.12 L1160.62 1538.54 L1166.47 1538.54 L1166.47 1559.89 Q1166.47 1564.96 1168.45 1567.5 Q1170.42 1570.02 1174.37 1570.02 Q1179.11 1570.02 1181.85 1566.99 Q1184.62 1563.97 1184.62 1558.75 L1184.62 1538.54 L1190.47 1538.54 L1190.47 1574.19 L1184.62 1574.19 L1184.62 1568.71 Q1182.48 1571.96 1179.65 1573.55 Q1176.85 1575.11 1173.13 1575.11 Q1166.98 1575.11 1163.8 1571.29 Q1160.62 1567.47 1160.62 1560.12 M1175.35 1537.68 L1175.35 1537.68 Z" fill="#000000" fill-rule="nonzero" fill-opacity="1" /><path clip-path="url(#clip200)" d="M1233.03 1554.9 L1233.03 1557.76 L1206.1 1557.76 Q1206.48 1563.81 1209.73 1566.99 Q1213.01 1570.14 1218.83 1570.14 Q1222.21 1570.14 1225.36 1569.32 Q1228.54 1568.49 1231.66 1566.83 L1231.66 1572.37 Q1228.51 1573.71 1225.2 1574.41 Q1221.89 1575.11 1218.48 1575.11 Q1209.95 1575.11 1204.96 1570.14 Q1199.99 1565.18 1199.99 1556.71 Q1199.99 1547.96 1204.7 1542.83 Q1209.44 1537.68 1217.46 1537.68 Q1224.66 1537.68 1228.83 1542.33 Q1233.03 1546.94 1233.03 1554.9 M1227.17 1553.18 Q1227.11 1548.37 1224.47 1545.51 Q1221.86 1542.64 1217.53 1542.64 Q1212.63 1542.64 1209.67 1545.41 Q1206.74 1548.18 1206.29 1553.21 L1227.17 1553.18 Z" fill="#000000" fill-rule="nonzero" fill-opacity="1" /><path clip-path="url(#clip200)" d="M1272.27 1552.67 L1272.27 1574.19 L1266.42 1574.19 L1266.42 1552.86 Q1266.42 1547.8 1264.44 1545.29 Q1262.47 1542.77 1258.52 1542.77 Q1253.78 1542.77 1251.04 1545.79 Q1248.31 1548.82 1248.31 1554.04 L1248.31 1574.19 L1242.42 1574.19 L1242.42 1538.54 L1248.31 1538.54 L1248.31 1544.08 Q1250.41 1540.86 1253.24 1539.27 Q1256.1 1537.68 1259.83 1537.68 Q1265.97 1537.68 1269.12 1541.5 Q1272.27 1545.29 1272.27 1552.67 Z" fill="#000000" fill-rule="nonzero" fill-opacity="1" /><path clip-path="url(#clip200)" d="M1309.61 1539.91 L1309.61 1545.38 Q1307.12 1544.01 1304.61 1543.34 Q1302.13 1542.64 1299.58 1542.64 Q1293.88 1542.64 1290.73 1546.27 Q1287.58 1549.87 1287.58 1556.39 Q1287.58 1562.92 1290.73 1566.55 Q1293.88 1570.14 1299.58 1570.14 Q1302.13 1570.14 1304.61 1569.47 Q1307.12 1568.77 1309.61 1567.41 L1309.61 1572.82 Q1307.16 1573.96 1304.51 1574.54 Q1301.9 1575.11 1298.94 1575.11 Q1290.89 1575.11 1286.15 1570.05 Q1281.41 1564.99 1281.41 1556.39 Q1281.41 1547.67 1286.18 1542.68 Q1290.99 1537.68 1299.33 1537.68 Q1302.03 1537.68 1304.61 1538.25 Q1307.19 1538.79 1309.61 1539.91 Z" fill="#000000" fill-rule="nonzero" fill-opacity="1" /><path clip-path="url(#clip200)" d="M1334.62 1577.5 Q1332.14 1583.86 1329.79 1585.8 Q1327.43 1587.74 1323.48 1587.74 L1318.81 1587.74 L1318.81 1582.84 L1322.24 1582.84 Q1324.66 1582.84 1326 1581.7 Q1327.34 1580.55 1328.96 1576.29 L1330.01 1573.61 L1315.59 1538.54 L1321.8 1538.54 L1332.94 1566.42 L1344.08 1538.54 L1350.28 1538.54 L1334.62 1577.5 Z" fill="#000000" fill-rule="nonzero" fill-opacity="1" /><path clip-path="url(#clip200)" d="M1378.55 1524.66 L1392.04 1524.66 L1392.04 1529.21 L1384.4 1529.21 L1384.4 1578.23 L1392.04 1578.23 L1392.04 1582.78 L1378.55 1582.78 L1378.55 1524.66 Z" fill="#000000" fill-rule="nonzero" fill-opacity="1" /><path clip-path="url(#clip200)" d="M1425.18 1544.01 Q1424.19 1543.44 1423.01 1543.18 Q1421.87 1542.9 1420.47 1542.9 Q1415.5 1542.9 1412.83 1546.14 Q1410.19 1549.36 1410.19 1555.41 L1410.19 1574.19 L1404.3 1574.19 L1404.3 1538.54 L1410.19 1538.54 L1410.19 1544.08 Q1412.03 1540.83 1414.99 1539.27 Q1417.95 1537.68 1422.18 1537.68 Q1422.79 1537.68 1423.52 1537.77 Q1424.25 1537.84 1425.14 1538 L1425.18 1544.01 Z" fill="#000000" fill-rule="nonzero" fill-opacity="1" /><path clip-path="url(#clip200)" d="M1447.52 1556.27 Q1440.42 1556.27 1437.69 1557.89 Q1434.95 1559.51 1434.95 1563.43 Q1434.95 1566.55 1436.99 1568.39 Q1439.05 1570.21 1442.59 1570.21 Q1447.46 1570.21 1450.39 1566.77 Q1453.35 1563.3 1453.35 1557.57 L1453.35 1556.27 L1447.52 1556.27 M1459.2 1553.85 L1459.2 1574.19 L1453.35 1574.19 L1453.35 1568.77 Q1451.34 1572.02 1448.35 1573.58 Q1445.36 1575.11 1441.03 1575.11 Q1435.55 1575.11 1432.31 1572.05 Q1429.09 1568.97 1429.09 1563.81 Q1429.09 1557.79 1433.1 1554.74 Q1437.14 1551.68 1445.13 1551.68 L1453.35 1551.68 L1453.35 1551.11 Q1453.35 1547.07 1450.67 1544.87 Q1448.03 1542.64 1443.22 1542.64 Q1440.17 1542.64 1437.27 1543.38 Q1434.38 1544.11 1431.7 1545.57 L1431.7 1540.16 Q1434.92 1538.92 1437.94 1538.31 Q1440.96 1537.68 1443.83 1537.68 Q1451.56 1537.68 1455.38 1541.69 Q1459.2 1545.7 1459.2 1553.85 Z" fill="#000000" fill-rule="nonzero" fill-opacity="1" /><path clip-path="url(#clip200)" d="M1494.72 1543.95 L1494.72 1524.66 L1500.58 1524.66 L1500.58 1574.19 L1494.72 1574.19 L1494.72 1568.84 Q1492.88 1572.02 1490.04 1573.58 Q1487.24 1575.11 1483.3 1575.11 Q1476.83 1575.11 1472.76 1569.95 Q1468.72 1564.8 1468.72 1556.39 Q1468.72 1547.99 1472.76 1542.83 Q1476.83 1537.68 1483.3 1537.68 Q1487.24 1537.68 1490.04 1539.24 Q1492.88 1540.77 1494.72 1543.95 M1474.77 1556.39 Q1474.77 1562.85 1477.41 1566.55 Q1480.08 1570.21 1484.73 1570.21 Q1489.37 1570.21 1492.05 1566.55 Q1494.72 1562.85 1494.72 1556.39 Q1494.72 1549.93 1492.05 1546.27 Q1489.37 1542.58 1484.73 1542.58 Q1480.08 1542.58 1477.41 1546.27 Q1474.77 1549.93 1474.77 1556.39 Z" fill="#000000" fill-rule="nonzero" fill-opacity="1" /><path clip-path="url(#clip200)" d="M1523.05 1526.67 L1528.46 1526.67 L1511.91 1580.23 L1506.5 1580.23 L1523.05 1526.67 Z" fill="#000000" fill-rule="nonzero" fill-opacity="1" /><path clip-path="url(#clip200)" d="M1557.33 1539.59 L1557.33 1545.13 Q1554.85 1543.85 1552.17 1543.22 Q1549.5 1542.58 1546.63 1542.58 Q1542.27 1542.58 1540.08 1543.92 Q1537.91 1545.25 1537.91 1547.93 Q1537.91 1549.96 1539.47 1551.14 Q1541.03 1552.29 1545.74 1553.34 L1547.75 1553.78 Q1553.99 1555.12 1556.6 1557.57 Q1559.24 1559.99 1559.24 1564.35 Q1559.24 1569.32 1555.29 1572.21 Q1551.38 1575.11 1544.5 1575.11 Q1541.64 1575.11 1538.52 1574.54 Q1535.43 1573.99 1531.99 1572.88 L1531.99 1566.83 Q1535.24 1568.52 1538.39 1569.38 Q1541.54 1570.21 1544.63 1570.21 Q1548.77 1570.21 1550.99 1568.81 Q1553.22 1567.37 1553.22 1564.8 Q1553.22 1562.41 1551.6 1561.14 Q1550.01 1559.86 1544.57 1558.68 L1542.53 1558.21 Q1537.09 1557.06 1534.67 1554.71 Q1532.25 1552.32 1532.25 1548.18 Q1532.25 1543.15 1535.81 1540.42 Q1539.38 1537.68 1545.93 1537.68 Q1549.18 1537.68 1552.05 1538.16 Q1554.91 1538.63 1557.33 1539.59 Z" fill="#000000" fill-rule="nonzero" fill-opacity="1" /><path clip-path="url(#clip200)" d="M1582.25 1524.66 L1582.25 1582.78 L1568.76 1582.78 L1568.76 1578.23 L1576.36 1578.23 L1576.36 1529.21 L1568.76 1529.21 L1568.76 1524.66 L1582.25 1524.66 Z" fill="#000000" fill-rule="nonzero" fill-opacity="1" /><polyline clip-path="url(#clip200)" style="stroke:#000000; stroke-linecap:round; stroke-linejoin:round; stroke-width:4; stroke-opacity:1; fill:none" points="251.372,1410.9 251.372,123.472 "/>
<polyline clip-path="url(#clip200)" style="stroke:#000000; stroke-linecap:round; stroke-linejoin:round; stroke-width:4; stroke-opacity:1; fill:none" points="251.372,1407.88 270.27,1407.88 "/>
<polyline clip-path="url(#clip200)" style="stroke:#000000; stroke-linecap:round; stroke-linejoin:round; stroke-width:4; stroke-opacity:1; fill:none" points="251.372,1123.65 270.27,1123.65 "/>
<polyline clip-path="url(#clip200)" style="stroke:#000000; stroke-linecap:round; stroke-linejoin:round; stroke-width:4; stroke-opacity:1; fill:none" points="251.372,839.415 270.27,839.415 "/>
<polyline clip-path="url(#clip200)" style="stroke:#000000; stroke-linecap:round; stroke-linejoin:round; stroke-width:4; stroke-opacity:1; fill:none" points="251.372,555.182 270.27,555.182 "/>
<polyline clip-path="url(#clip200)" style="stroke:#000000; stroke-linecap:round; stroke-linejoin:round; stroke-width:4; stroke-opacity:1; fill:none" points="251.372,270.949 270.27,270.949 "/>
<path clip-path="url(#clip200)" d="M115.232 1427.67 L122.871 1427.67 L122.871 1401.31 L114.561 1402.98 L114.561 1398.72 L122.825 1397.05 L127.501 1397.05 L127.501 1427.67 L135.14 1427.67 L135.14 1431.61 L115.232 1431.61 L115.232 1427.67 Z" fill="#000000" fill-rule="nonzero" fill-opacity="1" /><path clip-path="url(#clip200)" d="M154.584 1400.13 Q150.973 1400.13 149.144 1403.69 Q147.339 1407.23 147.339 1414.36 Q147.339 1421.47 149.144 1425.04 Q150.973 1428.58 154.584 1428.58 Q158.218 1428.58 160.024 1425.04 Q161.852 1421.47 161.852 1414.36 Q161.852 1407.23 160.024 1403.69 Q158.218 1400.13 154.584 1400.13 M154.584 1396.42 Q160.394 1396.42 163.45 1401.03 Q166.528 1405.61 166.528 1414.36 Q166.528 1423.09 163.45 1427.7 Q160.394 1432.28 154.584 1432.28 Q148.774 1432.28 145.695 1427.7 Q142.64 1423.09 142.64 1414.36 Q142.64 1405.61 145.695 1401.03 Q148.774 1396.42 154.584 1396.42 Z" fill="#000000" fill-rule="nonzero" fill-opacity="1" /><path clip-path="url(#clip200)" d="M166.528 1390.53 L190.64 1390.53 L190.64 1393.72 L166.528 1393.72 L166.528 1390.53 Z" fill="#000000" fill-rule="nonzero" fill-opacity="1" /><path clip-path="url(#clip200)" d="M202.113 1401 L215.372 1401 L215.372 1404.2 L197.542 1404.2 L197.542 1401 Q199.705 1398.76 203.429 1395 Q207.172 1391.22 208.131 1390.13 Q209.956 1388.08 210.67 1386.67 Q211.404 1385.24 211.404 1383.87 Q211.404 1381.63 209.824 1380.22 Q208.263 1378.81 205.743 1378.81 Q203.956 1378.81 201.962 1379.43 Q199.987 1380.05 197.73 1381.31 L197.73 1377.47 Q200.025 1376.55 202.019 1376.08 Q204.012 1375.61 205.667 1375.61 Q210.031 1375.61 212.626 1377.79 Q215.222 1379.97 215.222 1383.62 Q215.222 1385.35 214.563 1386.91 Q213.924 1388.46 212.212 1390.56 Q211.742 1391.11 209.222 1393.72 Q206.702 1396.32 202.113 1401 Z" fill="#000000" fill-rule="nonzero" fill-opacity="1" /><path clip-path="url(#clip200)" d="M114.931 1143.44 L122.57 1143.44 L122.57 1117.08 L114.26 1118.74 L114.26 1114.48 L122.524 1112.82 L127.2 1112.82 L127.2 1143.44 L134.839 1143.44 L134.839 1147.38 L114.931 1147.38 L114.931 1143.44 Z" fill="#000000" fill-rule="nonzero" fill-opacity="1" /><path clip-path="url(#clip200)" d="M154.283 1115.89 Q150.672 1115.89 148.843 1119.46 Q147.038 1123 147.038 1130.13 Q147.038 1137.24 148.843 1140.8 Q150.672 1144.34 154.283 1144.34 Q157.917 1144.34 159.723 1140.8 Q161.552 1137.24 161.552 1130.13 Q161.552 1123 159.723 1119.46 Q157.917 1115.89 154.283 1115.89 M154.283 1112.19 Q160.093 1112.19 163.149 1116.8 Q166.227 1121.38 166.227 1130.13 Q166.227 1138.86 163.149 1143.46 Q160.093 1148.05 154.283 1148.05 Q148.473 1148.05 145.394 1143.46 Q142.339 1138.86 142.339 1130.13 Q142.339 1121.38 145.394 1116.8 Q148.473 1112.19 154.283 1112.19 Z" fill="#000000" fill-rule="nonzero" fill-opacity="1" /><path clip-path="url(#clip200)" d="M166.227 1106.29 L190.339 1106.29 L190.339 1109.49 L166.227 1109.49 L166.227 1106.29 Z" fill="#000000" fill-rule="nonzero" fill-opacity="1" /><path clip-path="url(#clip200)" d="M199.197 1116.77 L205.404 1116.77 L205.404 1095.35 L198.652 1096.7 L198.652 1093.24 L205.366 1091.89 L209.166 1091.89 L209.166 1116.77 L215.372 1116.77 L215.372 1119.97 L199.197 1119.97 L199.197 1116.77 Z" fill="#000000" fill-rule="nonzero" fill-opacity="1" /><path clip-path="url(#clip200)" d="M144.667 859.208 L152.305 859.208 L152.305 832.842 L143.995 834.509 L143.995 830.25 L152.259 828.583 L156.935 828.583 L156.935 859.208 L164.574 859.208 L164.574 863.143 L144.667 863.143 L144.667 859.208 Z" fill="#000000" fill-rule="nonzero" fill-opacity="1" /><path clip-path="url(#clip200)" d="M184.018 831.662 Q180.407 831.662 178.578 835.226 Q176.773 838.768 176.773 845.898 Q176.773 853.004 178.578 856.569 Q180.407 860.11 184.018 860.11 Q187.652 860.11 189.458 856.569 Q191.287 853.004 191.287 845.898 Q191.287 838.768 189.458 835.226 Q187.652 831.662 184.018 831.662 M184.018 827.958 Q189.828 827.958 192.884 832.564 Q195.963 837.148 195.963 845.898 Q195.963 854.624 192.884 859.231 Q189.828 863.814 184.018 863.814 Q178.208 863.814 175.129 859.231 Q172.074 854.624 172.074 845.898 Q172.074 837.148 175.129 832.564 Q178.208 827.958 184.018 827.958 Z" fill="#000000" fill-rule="nonzero" fill-opacity="1" /><path clip-path="url(#clip200)" d="M205.667 810.154 Q202.733 810.154 201.248 813.05 Q199.781 815.928 199.781 821.721 Q199.781 827.495 201.248 830.391 Q202.733 833.269 205.667 833.269 Q208.62 833.269 210.087 830.391 Q211.573 827.495 211.573 821.721 Q211.573 815.928 210.087 813.05 Q208.62 810.154 205.667 810.154 M205.667 807.145 Q210.388 807.145 212.871 810.887 Q215.372 814.611 215.372 821.721 Q215.372 828.811 212.871 832.554 Q210.388 836.278 205.667 836.278 Q200.947 836.278 198.445 832.554 Q195.963 828.811 195.963 821.721 Q195.963 814.611 198.445 810.887 Q200.947 807.145 205.667 807.145 Z" fill="#000000" fill-rule="nonzero" fill-opacity="1" /><path clip-path="url(#clip200)" d="M147.356 574.974 L154.995 574.974 L154.995 548.609 L146.685 550.275 L146.685 546.016 L154.949 544.349 L159.624 544.349 L159.624 574.974 L167.263 574.974 L167.263 578.909 L147.356 578.909 L147.356 574.974 Z" fill="#000000" fill-rule="nonzero" fill-opacity="1" /><path clip-path="url(#clip200)" d="M186.708 547.428 Q183.097 547.428 181.268 550.993 Q179.462 554.535 179.462 561.664 Q179.462 568.771 181.268 572.335 Q183.097 575.877 186.708 575.877 Q190.342 575.877 192.147 572.335 Q193.976 568.771 193.976 561.664 Q193.976 554.535 192.147 550.993 Q190.342 547.428 186.708 547.428 M186.708 543.725 Q192.518 543.725 195.573 548.331 Q198.652 552.914 198.652 561.664 Q198.652 570.391 195.573 574.997 Q192.518 579.581 186.708 579.581 Q180.898 579.581 177.819 574.997 Q174.763 570.391 174.763 561.664 Q174.763 552.914 177.819 548.331 Q180.898 543.725 186.708 543.725 Z" fill="#000000" fill-rule="nonzero" fill-opacity="1" /><path clip-path="url(#clip200)" d="M199.197 548.302 L205.404 548.302 L205.404 526.88 L198.652 528.234 L198.652 524.773 L205.366 523.419 L209.166 523.419 L209.166 548.302 L215.372 548.302 L215.372 551.499 L199.197 551.499 L199.197 548.302 Z" fill="#000000" fill-rule="nonzero" fill-opacity="1" /><path clip-path="url(#clip200)" d="M146.246 290.741 L153.885 290.741 L153.885 264.375 L145.575 266.042 L145.575 261.783 L153.839 260.116 L158.515 260.116 L158.515 290.741 L166.154 290.741 L166.154 294.676 L146.246 294.676 L146.246 290.741 Z" fill="#000000" fill-rule="nonzero" fill-opacity="1" /><path clip-path="url(#clip200)" d="M185.598 263.195 Q181.987 263.195 180.158 266.76 Q178.353 270.301 178.353 277.431 Q178.353 284.537 180.158 288.102 Q181.987 291.644 185.598 291.644 Q189.232 291.644 191.038 288.102 Q192.867 284.537 192.867 277.431 Q192.867 270.301 191.038 266.76 Q189.232 263.195 185.598 263.195 M185.598 259.491 Q191.408 259.491 194.464 264.098 Q197.542 268.681 197.542 277.431 Q197.542 286.158 194.464 290.764 Q191.408 295.347 185.598 295.347 Q179.788 295.347 176.709 290.764 Q173.654 286.158 173.654 277.431 Q173.654 268.681 176.709 264.098 Q179.788 259.491 185.598 259.491 Z" fill="#000000" fill-rule="nonzero" fill-opacity="1" /><path clip-path="url(#clip200)" d="M202.113 264.068 L215.372 264.068 L215.372 267.266 L197.542 267.266 L197.542 264.068 Q199.705 261.83 203.429 258.069 Q207.172 254.288 208.131 253.198 Q209.956 251.147 210.67 249.737 Q211.404 248.308 211.404 246.935 Q211.404 244.696 209.824 243.286 Q208.263 241.875 205.743 241.875 Q203.956 241.875 201.962 242.496 Q199.987 243.117 197.73 244.377 L197.73 240.54 Q200.025 239.618 202.019 239.148 Q204.012 238.678 205.667 238.678 Q210.031 238.678 212.626 240.86 Q215.222 243.041 215.222 246.69 Q215.222 248.42 214.563 249.981 Q213.924 251.524 212.212 253.63 Q211.742 254.176 209.222 256.79 Q206.702 259.385 202.113 264.068 Z" fill="#000000" fill-rule="nonzero" fill-opacity="1" /><path clip-path="url(#clip200)" d="M18.0438 995.825 L24.314 995.825 Q22.5634 999.485 21.704 1002.73 Q20.8447 1005.98 20.8447 1009 Q20.8447 1014.25 22.8817 1017.12 Q24.9187 1019.95 28.6745 1019.95 Q31.8255 1019.95 33.4488 1018.07 Q35.0402 1016.16 36.0269 1010.88 L36.8226 1007 Q38.1912 999.803 41.6605 996.398 Q45.098 992.96 50.8908 992.96 Q57.7976 992.96 61.3624 997.607 Q64.9272 1002.22 64.9272 1011.17 Q64.9272 1014.54 64.1633 1018.36 Q63.3994 1022.15 61.9035 1026.22 L55.2831 1026.22 Q57.4793 1022.31 58.5933 1018.55 Q59.7073 1014.79 59.7073 1011.17 Q59.7073 1005.66 57.543 1002.67 Q55.3786 999.676 51.3682 999.676 Q47.8671 999.676 45.8937 1001.84 Q43.9204 1003.97 42.9337 1008.87 L42.1698 1012.79 Q40.7375 1019.98 37.682 1023.2 Q34.6264 1026.41 29.1837 1026.41 Q22.8817 1026.41 19.2532 1021.99 Q15.6248 1017.53 15.6248 1009.73 Q15.6248 1006.39 16.2295 1002.92 Q16.8343 999.453 18.0438 995.825 Z" fill="#000000" fill-rule="nonzero" fill-opacity="1" /><path clip-path="url(#clip200)" d="M28.3562 983.189 L28.3562 977.332 L64.0042 977.332 L64.0042 983.189 L28.3562 983.189 M14.479 983.189 L14.479 977.332 L21.895 977.332 L21.895 983.189 L14.479 983.189 Z" fill="#000000" fill-rule="nonzero" fill-opacity="1" /><path clip-path="url(#clip200)" d="M42.4881 935.446 L64.0042 935.446 L64.0042 941.302 L42.679 941.302 Q37.6183 941.302 35.1038 943.276 Q32.5894 945.249 32.5894 949.196 Q32.5894 953.938 35.6131 956.676 Q38.6368 959.413 43.8567 959.413 L64.0042 959.413 L64.0042 965.301 L28.3562 965.301 L28.3562 959.413 L33.8944 959.413 Q30.6797 957.312 29.0883 954.479 Q27.4968 951.615 27.4968 947.891 Q27.4968 941.748 31.3163 938.597 Q35.1038 935.446 42.4881 935.446 Z" fill="#000000" fill-rule="nonzero" fill-opacity="1" /><path clip-path="url(#clip200)" d="M45.7664 900.307 Q39.4007 900.307 35.8996 902.949 Q32.3984 905.559 32.3984 910.301 Q32.3984 915.012 35.8996 917.654 Q39.4007 920.264 45.7664 920.264 Q52.1003 920.264 55.6014 917.654 Q59.1026 915.012 59.1026 910.301 Q59.1026 905.559 55.6014 902.949 Q52.1003 900.307 45.7664 900.307 M59.58 894.451 Q68.683 894.451 73.1071 898.493 Q77.5631 902.535 77.5631 910.874 Q77.5631 913.962 77.0857 916.699 Q76.6401 919.436 75.6852 922.014 L69.9879 922.014 Q71.3884 919.436 72.0568 916.922 Q72.7252 914.407 72.7252 911.797 Q72.7252 906.036 69.7015 903.172 Q66.7096 900.307 60.6303 900.307 L57.7339 900.307 Q60.885 902.121 62.4446 904.954 Q64.0042 907.787 64.0042 911.734 Q64.0042 918.29 59.0071 922.301 Q54.01 926.311 45.7664 926.311 Q37.491 926.311 32.4939 922.301 Q27.4968 918.29 27.4968 911.734 Q27.4968 907.787 29.0564 904.954 Q30.616 902.121 33.7671 900.307 L28.3562 900.307 L28.3562 894.451 L59.58 894.451 Z" fill="#000000" fill-rule="nonzero" fill-opacity="1" /><path clip-path="url(#clip200)" d="M49.9359 882.993 L28.3562 882.993 L28.3562 877.136 L49.7131 877.136 Q54.7739 877.136 57.3202 875.163 Q59.8346 873.189 59.8346 869.243 Q59.8346 864.5 56.8109 861.763 Q53.7872 858.994 48.5673 858.994 L28.3562 858.994 L28.3562 853.137 L64.0042 853.137 L64.0042 858.994 L58.5296 858.994 Q61.7762 861.126 63.3676 863.959 Q64.9272 866.76 64.9272 870.484 Q64.9272 876.627 61.1078 879.81 Q57.2883 882.993 49.9359 882.993 M27.4968 868.256 L27.4968 868.256 Z" fill="#000000" fill-rule="nonzero" fill-opacity="1" /><path clip-path="url(#clip200)" d="M14.479 841.074 L14.479 835.218 L64.0042 835.218 L64.0042 841.074 L14.479 841.074 Z" fill="#000000" fill-rule="nonzero" fill-opacity="1" /><path clip-path="url(#clip200)" d="M46.0847 806.763 Q46.0847 813.861 47.7079 816.598 Q49.3312 819.335 53.2461 819.335 Q56.3653 819.335 58.2114 817.298 Q60.0256 815.23 60.0256 811.697 Q60.0256 806.827 56.5881 803.899 Q53.1188 800.939 47.3897 800.939 L46.0847 800.939 L46.0847 806.763 M43.6657 795.082 L64.0042 795.082 L64.0042 800.939 L58.5933 800.939 Q61.8398 802.944 63.3994 805.936 Q64.9272 808.928 64.9272 813.256 Q64.9272 818.731 61.8716 821.977 Q58.7843 825.192 53.6281 825.192 Q47.6125 825.192 44.5569 821.181 Q41.5014 817.139 41.5014 809.15 L41.5014 800.939 L40.9285 800.939 Q36.8862 800.939 34.6901 803.612 Q32.4621 806.254 32.4621 811.06 Q32.4621 814.116 33.1941 817.012 Q33.9262 819.908 35.3903 822.582 L29.9795 822.582 Q28.7381 819.367 28.1334 816.344 Q27.4968 813.32 27.4968 810.455 Q27.4968 802.721 31.5072 798.902 Q35.5176 795.082 43.6657 795.082 Z" fill="#000000" fill-rule="nonzero" fill-opacity="1" /><path clip-path="url(#clip200)" d="M33.8307 762.362 Q33.2578 763.349 33.0032 764.527 Q32.7167 765.673 32.7167 767.073 Q32.7167 772.038 35.9632 774.712 Q39.1779 777.354 45.2253 777.354 L64.0042 777.354 L64.0042 783.242 L28.3562 783.242 L28.3562 777.354 L33.8944 777.354 Q30.6479 775.508 29.0883 772.547 Q27.4968 769.587 27.4968 765.354 Q27.4968 764.75 27.5923 764.017 Q27.656 763.285 27.8151 762.394 L33.8307 762.362 Z" fill="#000000" fill-rule="nonzero" fill-opacity="1" /><path clip-path="url(#clip200)" d="M64.0042 722.99 L16.4842 741.133 L16.4842 734.417 L56.4926 719.362 L16.4842 704.275 L16.4842 697.591 L64.0042 715.702 L64.0042 722.99 Z" fill="#000000" fill-rule="nonzero" fill-opacity="1" /><path clip-path="url(#clip200)" d="M46.0847 679.767 Q46.0847 686.865 47.7079 689.602 Q49.3312 692.34 53.2461 692.34 Q56.3653 692.34 58.2114 690.303 Q60.0256 688.234 60.0256 684.701 Q60.0256 679.831 56.5881 676.903 Q53.1188 673.943 47.3897 673.943 L46.0847 673.943 L46.0847 679.767 M43.6657 668.086 L64.0042 668.086 L64.0042 673.943 L58.5933 673.943 Q61.8398 675.948 63.3994 678.94 Q64.9272 681.932 64.9272 686.26 Q64.9272 691.735 61.8716 694.981 Q58.7843 698.196 53.6281 698.196 Q47.6125 698.196 44.5569 694.186 Q41.5014 690.143 41.5014 682.154 L41.5014 673.943 L40.9285 673.943 Q36.8862 673.943 34.6901 676.616 Q32.4621 679.258 32.4621 684.064 Q32.4621 687.12 33.1941 690.016 Q33.9262 692.913 35.3903 695.586 L29.9795 695.586 Q28.7381 692.371 28.1334 689.348 Q27.4968 686.324 27.4968 683.459 Q27.4968 675.725 31.5072 671.906 Q35.5176 668.086 43.6657 668.086 Z" fill="#000000" fill-rule="nonzero" fill-opacity="1" /><path clip-path="url(#clip200)" d="M14.479 656.023 L14.479 650.167 L64.0042 650.167 L64.0042 656.023 L14.479 656.023 Z" fill="#000000" fill-rule="nonzero" fill-opacity="1" /><path clip-path="url(#clip200)" d="M49.9359 638.518 L28.3562 638.518 L28.3562 632.661 L49.7131 632.661 Q54.7739 632.661 57.3202 630.688 Q59.8346 628.714 59.8346 624.768 Q59.8346 620.025 56.8109 617.288 Q53.7872 614.519 48.5673 614.519 L28.3562 614.519 L28.3562 608.662 L64.0042 608.662 L64.0042 614.519 L58.5296 614.519 Q61.7762 616.651 63.3676 619.484 Q64.9272 622.285 64.9272 626.009 Q64.9272 632.152 61.1078 635.335 Q57.2883 638.518 49.9359 638.518 M27.4968 623.781 L27.4968 623.781 Z" fill="#000000" fill-rule="nonzero" fill-opacity="1" /><path clip-path="url(#clip200)" d="M44.7161 566.108 L47.5806 566.108 L47.5806 593.035 Q53.6281 592.653 56.8109 589.406 Q59.9619 586.128 59.9619 580.303 Q59.9619 576.929 59.1344 573.778 Q58.3069 570.595 56.6518 567.476 L62.1899 567.476 Q63.5267 570.627 64.227 573.937 Q64.9272 577.248 64.9272 580.653 Q64.9272 589.183 59.9619 594.18 Q54.9967 599.146 46.5303 599.146 Q37.7774 599.146 32.6531 594.435 Q27.4968 589.693 27.4968 581.672 Q27.4968 574.479 32.1438 570.309 Q36.7589 566.108 44.7161 566.108 M42.9973 571.964 Q38.1912 572.028 35.3266 574.67 Q32.4621 577.279 32.4621 581.608 Q32.4621 586.51 35.2312 589.47 Q38.0002 592.398 43.0292 592.844 L42.9973 571.964 Z" fill="#000000" fill-rule="nonzero" fill-opacity="1" /><path clip-path="url(#clip200)" d="M29.4065 533.77 L34.9447 533.77 Q33.6716 536.252 33.035 538.926 Q32.3984 541.6 32.3984 544.464 Q32.3984 548.825 33.7352 551.021 Q35.072 553.185 37.7456 553.185 Q39.7826 553.185 40.9603 551.626 Q42.1061 550.066 43.1565 545.355 L43.6021 543.35 Q44.9389 537.112 47.3897 534.502 Q49.8086 531.86 54.1691 531.86 Q59.1344 531.86 62.0308 535.807 Q64.9272 539.722 64.9272 546.597 Q64.9272 549.461 64.3543 552.58 Q63.8132 555.668 62.6992 559.105 L56.6518 559.105 Q58.3387 555.859 59.198 552.708 Q60.0256 549.557 60.0256 546.469 Q60.0256 542.332 58.6251 540.104 Q57.1929 537.876 54.6147 537.876 Q52.2276 537.876 50.9545 539.499 Q49.6813 541.09 48.5037 546.533 L48.0262 548.57 Q46.8804 554.013 44.5251 556.432 Q42.138 558.851 38.0002 558.851 Q32.9713 558.851 30.2341 555.286 Q27.4968 551.721 27.4968 545.164 Q27.4968 541.918 27.9743 539.053 Q28.4517 536.189 29.4065 533.77 Z" fill="#000000" fill-rule="nonzero" fill-opacity="1" /><path clip-path="url(#clip200)" d="M1123.34 14.0809 L1123.34 22.0612 Q1118.68 19.8332 1114.55 18.7395 Q1110.42 17.6457 1106.57 17.6457 Q1099.88 17.6457 1096.24 20.2383 Q1092.63 22.8309 1092.63 27.611 Q1092.63 31.6214 1095.02 33.6873 Q1097.45 35.7128 1104.18 36.9686 L1109.12 37.9813 Q1118.27 39.7232 1122.61 44.1387 Q1126.98 48.5136 1126.98 55.8863 Q1126.98 64.6767 1121.07 69.2137 Q1115.2 73.7508 1103.81 73.7508 Q1099.52 73.7508 1094.66 72.7785 Q1089.84 71.8063 1084.65 69.9024 L1084.65 61.4765 Q1089.63 64.2716 1094.41 65.6895 Q1099.19 67.1073 1103.81 67.1073 Q1110.82 67.1073 1114.63 64.3527 Q1118.44 61.598 1118.44 56.4939 Q1118.44 52.0379 1115.68 49.5264 Q1112.97 47.0148 1106.73 45.759 L1101.75 44.7868 Q1092.59 42.9639 1088.5 39.075 Q1084.41 35.1862 1084.41 28.2591 Q1084.41 20.2383 1090.04 15.6203 Q1095.71 11.0023 1105.64 11.0023 Q1109.89 11.0023 1114.3 11.7719 Q1118.72 12.5416 1123.34 14.0809 Z" fill="#000000" fill-rule="nonzero" fill-opacity="1" /><path clip-path="url(#clip200)" d="M1139.42 27.2059 L1146.87 27.2059 L1146.87 72.576 L1139.42 72.576 L1139.42 27.2059 M1139.42 9.54393 L1146.87 9.54393 L1146.87 18.9825 L1139.42 18.9825 L1139.42 9.54393 Z" fill="#000000" fill-rule="nonzero" fill-opacity="1" /><path clip-path="url(#clip200)" d="M1192.33 49.3643 Q1192.33 41.2625 1188.96 36.8065 Q1185.64 32.3505 1179.61 32.3505 Q1173.61 32.3505 1170.25 36.8065 Q1166.93 41.2625 1166.93 49.3643 Q1166.93 57.4256 1170.25 61.8816 Q1173.61 66.3376 1179.61 66.3376 Q1185.64 66.3376 1188.96 61.8816 Q1192.33 57.4256 1192.33 49.3643 M1199.78 66.9452 Q1199.78 78.5308 1194.63 84.1616 Q1189.49 89.8329 1178.88 89.8329 Q1174.95 89.8329 1171.46 89.2252 Q1167.98 88.6581 1164.7 87.4428 L1164.7 80.1917 Q1167.98 81.9741 1171.18 82.8248 Q1174.38 83.6755 1177.7 83.6755 Q1185.03 83.6755 1188.68 79.8271 Q1192.33 76.0193 1192.33 68.282 L1192.33 64.5957 Q1190.02 68.6061 1186.41 70.5911 Q1182.81 72.576 1177.78 72.576 Q1169.44 72.576 1164.33 66.2161 Q1159.23 59.8562 1159.23 49.3643 Q1159.23 38.832 1164.33 32.472 Q1169.44 26.1121 1177.78 26.1121 Q1182.81 26.1121 1186.41 28.0971 Q1190.02 30.082 1192.33 34.0924 L1192.33 27.2059 L1199.78 27.2059 L1199.78 66.9452 Z" fill="#000000" fill-rule="nonzero" fill-opacity="1" /><path clip-path="url(#clip200)" d="M1250.46 35.9153 Q1253.25 30.8922 1257.14 28.5022 Q1261.03 26.1121 1266.29 26.1121 Q1273.38 26.1121 1277.23 31.0947 Q1281.08 36.0368 1281.08 45.1919 L1281.08 72.576 L1273.59 72.576 L1273.59 45.4349 Q1273.59 38.913 1271.28 35.7533 Q1268.97 32.5936 1264.23 32.5936 Q1258.44 32.5936 1255.07 36.4419 Q1251.71 40.2903 1251.71 46.9338 L1251.71 72.576 L1244.22 72.576 L1244.22 45.4349 Q1244.22 38.8725 1241.91 35.7533 Q1239.6 32.5936 1234.78 32.5936 Q1229.07 32.5936 1225.7 36.4824 Q1222.34 40.3308 1222.34 46.9338 L1222.34 72.576 L1214.85 72.576 L1214.85 27.2059 L1222.34 27.2059 L1222.34 34.2544 Q1224.89 30.082 1228.46 28.0971 Q1232.02 26.1121 1236.93 26.1121 Q1241.87 26.1121 1245.31 28.6237 Q1248.79 31.1352 1250.46 35.9153 Z" fill="#000000" fill-rule="nonzero" fill-opacity="1" /><path clip-path="url(#clip200)" d="M1316.57 49.7694 Q1307.53 49.7694 1304.05 51.8354 Q1300.57 53.9013 1300.57 58.8839 Q1300.57 62.8538 1303.16 65.2034 Q1305.79 67.5124 1310.29 67.5124 Q1316.49 67.5124 1320.21 63.1374 Q1323.98 58.7219 1323.98 51.4303 L1323.98 49.7694 L1316.57 49.7694 M1331.43 46.6907 L1331.43 72.576 L1323.98 72.576 L1323.98 65.6895 Q1321.43 69.8214 1317.62 71.8063 Q1313.81 73.7508 1308.3 73.7508 Q1301.33 73.7508 1297.2 69.8619 Q1293.11 65.9325 1293.11 59.3701 Q1293.11 51.7138 1298.22 47.825 Q1303.36 43.9361 1313.53 43.9361 L1323.98 43.9361 L1323.98 43.2069 Q1323.98 38.0623 1320.58 35.2672 Q1317.21 32.4315 1311.1 32.4315 Q1307.21 32.4315 1303.52 33.3632 Q1299.84 34.295 1296.43 36.1584 L1296.43 29.2718 Q1300.52 27.692 1304.37 26.9223 Q1308.22 26.1121 1311.87 26.1121 Q1321.71 26.1121 1326.57 31.2163 Q1331.43 36.3204 1331.43 46.6907 Z" fill="#000000" fill-rule="nonzero" fill-opacity="1" /><path clip-path="url(#clip200)" d="M1381.66 18.8205 L1381.66 41.5461 L1391.95 41.5461 Q1397.67 41.5461 1400.78 38.5889 Q1403.9 35.6318 1403.9 30.163 Q1403.9 24.7348 1400.78 21.7777 Q1397.67 18.8205 1391.95 18.8205 L1381.66 18.8205 M1373.48 12.096 L1391.95 12.096 Q1402.12 12.096 1407.31 16.714 Q1412.53 21.2916 1412.53 30.163 Q1412.53 39.1155 1407.31 43.6931 Q1402.12 48.2706 1391.95 48.2706 L1381.66 48.2706 L1381.66 72.576 L1373.48 72.576 L1373.48 12.096 Z" fill="#000000" fill-rule="nonzero" fill-opacity="1" /><path clip-path="url(#clip200)" d="M1423.19 9.54393 L1430.64 9.54393 L1430.64 72.576 L1423.19 72.576 L1423.19 9.54393 Z" fill="#000000" fill-rule="nonzero" fill-opacity="1" /><path clip-path="url(#clip200)" d="M1463.82 32.4315 Q1457.82 32.4315 1454.34 37.1306 Q1450.85 41.7891 1450.85 49.9314 Q1450.85 58.0738 1454.3 62.7728 Q1457.78 67.4314 1463.82 67.4314 Q1469.77 67.4314 1473.26 62.7323 Q1476.74 58.0333 1476.74 49.9314 Q1476.74 41.8701 1473.26 37.1711 Q1469.77 32.4315 1463.82 32.4315 M1463.82 26.1121 Q1473.54 26.1121 1479.09 32.4315 Q1484.64 38.7509 1484.64 49.9314 Q1484.64 61.0714 1479.09 67.4314 Q1473.54 73.7508 1463.82 73.7508 Q1454.05 73.7508 1448.5 67.4314 Q1442.99 61.0714 1442.99 49.9314 Q1442.99 38.7509 1448.5 32.4315 Q1454.05 26.1121 1463.82 26.1121 Z" fill="#000000" fill-rule="nonzero" fill-opacity="1" /><path clip-path="url(#clip200)" d="M1504.37 14.324 L1504.37 27.2059 L1519.72 27.2059 L1519.72 32.9987 L1504.37 32.9987 L1504.37 57.6282 Q1504.37 63.1779 1505.87 64.7578 Q1507.4 66.3376 1512.06 66.3376 L1519.72 66.3376 L1519.72 72.576 L1512.06 72.576 Q1503.43 72.576 1500.15 69.3758 Q1496.87 66.1351 1496.87 57.6282 L1496.87 32.9987 L1491.4 32.9987 L1491.4 27.2059 L1496.87 27.2059 L1496.87 14.324 L1504.37 14.324 Z" fill="#000000" fill-rule="nonzero" fill-opacity="1" /><polyline clip-path="url(#clip202)" style="stroke:#009af9; stroke-linecap:round; stroke-linejoin:round; stroke-width:4; stroke-opacity:1; fill:none" points="310.845,436.9 320.807,436.895 330.769,436.89 340.731,436.884 350.693,436.877 360.655,436.87 370.617,436.863 380.579,436.854 390.541,436.845 400.503,436.836 410.465,436.825 420.427,436.814 430.389,436.801 440.351,436.787 450.313,436.772 460.275,436.756 470.237,436.738 480.199,436.719 490.161,436.698 500.123,436.675 510.085,436.65 520.047,436.623 530.009,436.593 539.971,436.561 549.933,436.525 559.895,436.487 569.857,436.444 579.819,436.397 589.781,436.346 599.743,436.291 609.705,436.229 619.667,436.162 629.629,436.088 639.591,436.006 649.553,435.917 659.515,435.818 669.477,435.709 679.439,435.589 689.401,435.456 699.363,435.31 709.325,435.148 719.287,434.968 729.249,434.769 739.211,434.548 749.173,434.303 759.135,434.031 769.097,433.728 779.059,433.391 789.021,433.016 798.983,432.598 808.945,432.131 818.907,431.61 828.869,431.028 838.831,430.377 848.793,429.649 858.755,428.834 868.717,427.921 878.679,426.898 888.641,425.749 898.603,424.46 908.565,423.01 918.527,421.379 928.489,419.541 938.451,417.467 948.413,415.124 958.375,412.471 968.337,409.46 978.299,406.034 988.261,402.123 998.223,397.641 1008.19,392.481 1018.15,386.507 1028.11,379.546 1038.07,371.364 1048.03,361.652 1058,349.971 1067.96,335.693 1077.92,317.858 1087.88,294.936 1097.84,264.349 1107.81,221.893 1117.77,167.292 1127.73,159.909 1137.69,223.138 1147.65,279.732 1157.62,323.039 1167.58,357.415 1177.54,385.692 1187.5,409.47 1197.46,429.663 1207.43,446.804 1217.39,461.228 1227.35,473.21 1237.31,483.068 1247.27,491.204 1257.24,498.069 1267.2,504.08 1277.16,509.571 1287.12,514.778 1297.08,519.848 1307.05,524.865 1317.01,529.868 1326.97,534.867 1336.93,539.858 1346.89,544.827 1356.86,549.758 1366.82,554.636 1376.78,559.445 1386.74,564.177 1396.7,568.822 1406.67,573.378 1416.63,577.843 1426.59,582.219 1436.55,586.509 1446.51,590.72 1456.47,594.859 1466.44,598.933 1476.4,602.954 1486.36,606.93 1496.32,610.872 1506.28,614.79 1516.25,618.696 1526.21,622.599 1536.17,626.509 1546.13,630.436 1556.09,634.39 1566.06,638.379 1576.02,642.412 1585.98,646.495 1595.94,650.636 1605.9,654.84 1615.87,659.113 1625.83,663.46 1635.79,667.884 1645.75,672.388 1655.71,676.975 1665.68,681.645 1675.64,686.398 1685.6,691.236 1695.56,696.156 1705.52,701.156 1715.49,706.234 1725.45,711.386 1735.41,716.609 1745.37,721.897 1755.33,727.244 1765.3,732.644 1775.26,738.091 1785.22,743.577 1795.18,749.093 1805.14,754.632 1815.11,760.185 1825.07,765.741 1835.03,771.292 1844.99,776.828 1854.95,782.337 1864.92,787.811 1874.88,793.239 1884.84,798.61 1894.8,803.915 1904.76,809.143 1914.73,814.286 1924.69,819.334 1934.65,824.279 1944.61,829.113 1954.57,833.829 1964.54,838.42 1974.5,842.883 1984.46,847.211 1994.42,851.402 2004.38,855.452 2014.35,859.359 2024.31,863.123 2034.27,866.744 2044.23,870.22 2054.19,873.553 2064.16,876.744 2074.12,879.794 2084.08,882.706 2094.04,885.481 2104,888.121 2113.97,890.628 2123.93,893.004 2133.89,895.252 2143.85,897.373 2153.81,899.368 2163.78,901.24 2173.74,902.989 2183.7,904.615 2193.66,906.12 2203.62,907.503 2213.59,908.763 2223.55,909.899 2233.51,910.907 2243.47,911.785 2253.43,912.526 2263.4,913.124 2273.36,913.569 2283.32,913.848 2293.28,913.946 "/>
<polyline clip-path="url(#clip202)" style="stroke:#009af9; stroke-linecap:round; stroke-linejoin:round; stroke-width:4; stroke-opacity:1; fill:none" points="310.845,665.421 320.807,665.396 330.769,665.37 340.731,665.341 350.693,665.31 360.655,665.276 370.617,665.24 380.579,665.2 390.541,665.158 400.503,665.111 410.465,665.061 420.427,665.007 430.389,664.948 440.351,664.884 450.313,664.815 460.275,664.74 470.237,664.659 480.199,664.572 490.161,664.477 500.123,664.374 510.085,664.263 520.047,664.143 530.009,664.014 539.971,663.873 549.933,663.722 559.895,663.558 569.857,663.381 579.819,663.19 589.781,662.984 599.743,662.761 609.705,662.521 619.667,662.262 629.629,661.982 639.591,661.681 649.553,661.357 659.515,661.008 669.477,660.633 679.439,660.229 689.401,659.795 699.363,659.328 709.325,658.827 719.287,658.29 729.249,657.714 739.211,657.097 749.173,656.436 759.135,655.729 769.097,654.974 779.059,654.167 789.021,653.305 798.983,652.386 808.945,651.408 818.907,650.366 828.869,649.257 838.831,648.079 848.793,646.828 858.755,645.5 868.717,644.092 878.679,642.601 888.641,641.023 898.603,639.353 908.565,637.588 918.527,635.724 928.489,633.756 938.451,631.68 948.413,629.493 958.375,627.189 968.337,624.764 978.299,622.214 988.261,619.535 998.223,616.725 1008.19,613.78 1018.15,610.698 1028.11,607.48 1038.07,604.127 1048.03,600.643 1058,597.037 1067.96,593.319 1077.92,589.506 1087.88,585.622 1097.84,581.697 1107.81,577.772 1117.77,573.896 1127.73,570.134 1137.69,566.56 1147.65,563.269 1157.62,560.369 1167.58,557.993 1177.54,556.293 1187.5,555.451 1197.46,555.67 1207.43,557.161 1217.39,560.115 1227.35,564.635 1237.31,570.682 1247.27,578.055 1257.24,586.451 1267.2,595.549 1277.16,605.072 1287.12,614.817 1297.08,624.641 1307.05,634.453 1317.01,644.195 1326.97,653.833 1336.93,663.346 1346.89,672.723 1356.86,681.958 1366.82,691.049 1376.78,699.994 1386.74,708.793 1396.7,717.444 1406.67,725.946 1416.63,734.297 1426.59,742.496 1436.55,750.54 1446.51,758.424 1456.47,766.147 1466.44,773.704 1476.4,781.091 1486.36,788.304 1496.32,795.34 1506.28,802.195 1516.25,808.866 1526.21,815.35 1536.17,821.646 1546.13,827.752 1556.09,833.668 1566.06,839.395 1576.02,844.933 1585.98,850.284 1595.94,855.453 1605.9,860.444 1615.87,865.261 1625.83,869.911 1635.79,874.401 1645.75,878.738 1655.71,882.931 1665.68,886.989 1675.64,890.921 1685.6,894.738 1695.56,898.451 1705.52,902.07 1715.49,905.607 1725.45,909.074 1735.41,912.482 1745.37,915.843 1755.33,919.169 1765.3,922.473 1775.26,925.766 1785.22,929.061 1795.18,932.371 1805.14,935.706 1815.11,939.081 1825.07,942.506 1835.03,945.994 1844.99,949.557 1854.95,953.207 1864.92,956.955 1874.88,960.812 1884.84,964.791 1894.8,968.901 1904.76,973.153 1914.73,977.557 1924.69,982.123 1934.65,986.86 1944.61,991.775 1954.57,996.876 1964.54,1002.17 1974.5,1007.66 1984.46,1013.36 1994.42,1019.26 2004.38,1025.38 2014.35,1031.71 2024.31,1038.26 2034.27,1045.02 2044.23,1052 2054.19,1059.2 2064.16,1066.6 2074.12,1074.22 2084.08,1082.05 2094.04,1090.08 2104,1098.3 2113.97,1106.71 2123.93,1115.29 2133.89,1124.02 2143.85,1132.88 2153.81,1141.85 2163.78,1150.9 2173.74,1159.97 2183.7,1169.02 2193.66,1177.97 2203.62,1186.76 2213.59,1195.29 2223.55,1203.44 2233.51,1211.08 2243.47,1218.07 2253.43,1224.23 2263.4,1229.4 2273.36,1233.35 2283.32,1235.89 2293.28,1236.79 "/>
<polyline clip-path="url(#clip202)" style="stroke:#009af9; stroke-linecap:round; stroke-linejoin:round; stroke-width:4; stroke-opacity:1; fill:none" points="310.845,920.038 320.807,920.063 330.769,920.09 340.731,920.12 350.693,920.152 360.655,920.187 370.617,920.224 380.579,920.265 390.541,920.309 400.503,920.357 410.465,920.408 420.427,920.464 430.389,920.525 440.351,920.59 450.313,920.661 460.275,920.737 470.237,920.82 480.199,920.909 490.161,921.006 500.123,921.11 510.085,921.223 520.047,921.345 530.009,921.476 539.971,921.618 549.933,921.77 559.895,921.935 569.857,922.113 579.819,922.304 589.781,922.51 599.743,922.731 609.705,922.969 619.667,923.224 629.629,923.498 639.591,923.793 649.553,924.108 659.515,924.445 669.477,924.806 679.439,925.192 689.401,925.603 699.363,926.041 709.325,926.507 719.287,927.003 729.249,927.529 739.211,928.086 749.173,928.675 759.135,929.296 769.097,929.95 779.059,930.638 789.021,931.358 798.983,932.111 808.945,932.897 818.907,933.713 828.869,934.56 838.831,935.434 848.793,936.334 858.755,937.257 868.717,938.2 878.679,939.159 888.641,940.13 898.603,941.108 908.565,942.089 918.527,943.068 928.489,944.038 938.451,944.994 948.413,945.931 958.375,946.842 968.337,947.723 978.299,948.568 988.261,949.372 998.223,950.132 1008.19,950.845 1018.15,951.509 1028.11,952.122 1038.07,952.685 1048.03,953.199 1058,953.667 1067.96,954.092 1077.92,954.48 1087.88,954.837 1097.84,955.169 1107.81,955.485 1117.77,955.793 1127.73,956.104 1137.69,956.425 1147.65,956.768 1157.62,957.142 1167.58,957.557 1177.54,958.023 1187.5,958.55 1197.46,959.146 1207.43,959.82 1217.39,960.581 1227.35,961.435 1237.31,962.389 1247.27,963.45 1257.24,964.624 1267.2,965.914 1277.16,967.326 1287.12,968.863 1297.08,970.529 1307.05,972.326 1317.01,974.256 1326.97,976.322 1336.93,978.524 1346.89,980.864 1356.86,983.342 1366.82,985.96 1376.78,988.718 1386.74,991.617 1396.7,994.657 1406.67,997.838 1416.63,1001.16 1426.59,1004.63 1436.55,1008.24 1446.51,1011.99 1456.47,1015.89 1466.44,1019.94 1476.4,1024.13 1486.36,1028.47 1496.32,1032.97 1506.28,1037.61 1516.25,1042.41 1526.21,1047.36 1536.17,1052.46 1546.13,1057.72 1556.09,1063.13 1566.06,1068.7 1576.02,1074.41 1585.98,1080.27 1595.94,1086.28 1605.9,1092.44 1615.87,1098.72 1625.83,1105.15 1635.79,1111.7 1645.75,1118.37 1655.71,1125.15 1665.68,1132.04 1675.64,1139.03 1685.6,1146.11 1695.56,1153.26 1705.52,1160.49 1715.49,1167.78 1725.45,1175.11 1735.41,1182.49 1745.37,1189.89 1755.33,1197.3 1765.3,1204.71 1775.26,1212.11 1785.22,1219.49 1795.18,1226.82 1805.14,1234.11 1815.11,1241.32 1825.07,1248.45 1835.03,1255.49 1844.99,1262.41 1854.95,1269.21 1864.92,1275.86 1874.88,1282.36 1884.84,1288.69 1894.8,1294.83 1904.76,1300.78 1914.73,1306.51 1924.69,1312.03 1934.65,1317.33 1944.61,1322.38 1954.57,1327.2 1964.54,1331.77 1974.5,1336.09 1984.46,1340.16 1994.42,1343.97 2004.38,1347.55 2014.35,1350.87 2024.31,1353.96 2034.27,1356.81 2044.23,1359.42 2054.19,1361.81 2064.16,1363.99 2074.12,1365.94 2084.08,1367.69 2094.04,1369.24 2104,1370.58 2113.97,1371.72 2123.93,1372.67 2133.89,1373.42 2143.85,1373.97 2153.81,1374.32 2163.78,1374.46 2173.74,1374.4 2183.7,1374.13 2193.66,1373.65 2203.62,1372.97 2213.59,1372.1 2223.55,1371.07 2233.51,1369.91 2243.47,1368.68 2253.43,1367.46 2263.4,1366.32 2273.36,1365.38 2283.32,1364.74 2293.28,1364.51 "/>
<path clip-path="url(#clip200)" d="M1911.99 270.066 L2282.71 270.066 L2282.71 166.386 L1911.99 166.386  Z" fill="#ffffff" fill-rule="evenodd" fill-opacity="1"/>
<polyline clip-path="url(#clip200)" style="stroke:#000000; stroke-linecap:round; stroke-linejoin:round; stroke-width:4; stroke-opacity:1; fill:none" points="1911.99,270.066 2282.71,270.066 2282.71,166.386 1911.99,166.386 1911.99,270.066 "/>
<polyline clip-path="url(#clip200)" style="stroke:#009af9; stroke-linecap:round; stroke-linejoin:round; stroke-width:4; stroke-opacity:1; fill:none" points="1935.34,218.226 2075.43,218.226 "/>
<path clip-path="url(#clip200)" d="M2098.78 200.946 L2105.75 200.946 L2114.57 224.465 L2123.44 200.946 L2130.4 200.946 L2130.4 235.506 L2125.84 235.506 L2125.84 205.159 L2116.93 228.863 L2112.23 228.863 L2103.32 205.159 L2103.32 235.506 L2098.78 235.506 L2098.78 200.946 Z" fill="#000000" fill-rule="nonzero" fill-opacity="1" /><path clip-path="url(#clip200)" d="M2153.71 204.118 Q2148.62 204.118 2145.61 207.914 Q2142.63 211.71 2142.63 218.261 Q2142.63 224.789 2145.61 228.585 Q2148.62 232.381 2153.71 232.381 Q2158.81 232.381 2161.77 228.585 Q2164.76 224.789 2164.76 218.261 Q2164.76 211.71 2161.77 207.914 Q2158.81 204.118 2153.71 204.118 M2153.71 200.321 Q2160.98 200.321 2165.33 205.206 Q2169.69 210.067 2169.69 218.261 Q2169.69 226.432 2165.33 231.316 Q2160.98 236.178 2153.71 236.178 Q2146.42 236.178 2142.05 231.316 Q2137.7 226.455 2137.7 218.261 Q2137.7 210.067 2142.05 205.206 Q2146.42 200.321 2153.71 200.321 Z" fill="#000000" fill-rule="nonzero" fill-opacity="1" /><path clip-path="url(#clip200)" d="M2177 200.946 L2198.85 200.946 L2198.85 204.881 L2181.68 204.881 L2181.68 215.113 L2198.13 215.113 L2198.13 219.048 L2181.68 219.048 L2181.68 231.571 L2199.27 231.571 L2199.27 235.506 L2177 235.506 L2177 200.946 Z" fill="#000000" fill-rule="nonzero" fill-opacity="1" /><path clip-path="url(#clip200)" d="M2227.67 202.081 L2227.67 206.641 Q2225.01 205.368 2222.65 204.743 Q2220.29 204.118 2218.09 204.118 Q2214.27 204.118 2212.19 205.599 Q2210.13 207.081 2210.13 209.812 Q2210.13 212.104 2211.49 213.284 Q2212.88 214.442 2216.72 215.159 L2219.55 215.738 Q2224.78 216.733 2227.25 219.256 Q2229.75 221.756 2229.75 225.969 Q2229.75 230.992 2226.38 233.585 Q2223.02 236.178 2216.51 236.178 Q2214.06 236.178 2211.28 235.622 Q2208.53 235.066 2205.57 233.979 L2205.57 229.164 Q2208.41 230.761 2211.14 231.571 Q2213.88 232.381 2216.51 232.381 Q2220.52 232.381 2222.69 230.807 Q2224.87 229.233 2224.87 226.317 Q2224.87 223.77 2223.3 222.335 Q2221.75 220.9 2218.18 220.182 L2215.33 219.627 Q2210.1 218.585 2207.76 216.363 Q2205.43 214.141 2205.43 210.182 Q2205.43 205.599 2208.64 202.96 Q2211.88 200.321 2217.56 200.321 Q2219.99 200.321 2222.51 200.761 Q2225.03 201.201 2227.67 202.081 Z" fill="#000000" fill-rule="nonzero" fill-opacity="1" /><path clip-path="url(#clip200)" d="M2241.72 204.789 L2241.72 217.775 L2247.6 217.775 Q2250.87 217.775 2252.65 216.085 Q2254.43 214.395 2254.43 211.27 Q2254.43 208.168 2252.65 206.479 Q2250.87 204.789 2247.6 204.789 L2241.72 204.789 M2237.05 200.946 L2247.6 200.946 Q2253.41 200.946 2256.37 203.585 Q2259.36 206.201 2259.36 211.27 Q2259.36 216.386 2256.37 219.002 Q2253.41 221.617 2247.6 221.617 L2241.72 221.617 L2241.72 235.506 L2237.05 235.506 L2237.05 200.946 Z" fill="#000000" fill-rule="nonzero" fill-opacity="1" /></svg>
