<?xml version="1.0" encoding="utf-8"?>
<svg xmlns="http://www.w3.org/2000/svg" xmlns:xlink="http://www.w3.org/1999/xlink" width="600" height="400" viewBox="0 0 2400 1600">
<defs>
  <clipPath id="clip580">
    <rect x="0" y="0" width="2400" height="1600"/>
  </clipPath>
</defs>
<path clip-path="url(#clip580)" d="M0 1600 L2400 1600 L2400 0 L0 0  Z" fill="#ffffff" fill-rule="evenodd" fill-opacity="1"/>
<defs>
  <clipPath id="clip581">
    <rect x="480" y="0" width="1681" height="1600"/>
  </clipPath>
</defs>
<path clip-path="url(#clip580)" d="M223.103 1423.18 L2352.76 1423.18 L2352.76 123.472 L223.103 123.472  Z" fill="#ffffff" fill-rule="evenodd" fill-opacity="1"/>
<defs>
  <clipPath id="clip582">
    <rect x="223" y="123" width="2131" height="1301"/>
  </clipPath>
</defs>
<polyline clip-path="url(#clip582)" style="stroke:#000000; stroke-linecap:round; stroke-linejoin:round; stroke-width:2; stroke-opacity:0.1; fill:none" points="551.257,1423.18 551.257,123.472 "/>
<polyline clip-path="url(#clip582)" style="stroke:#000000; stroke-linecap:round; stroke-linejoin:round; stroke-width:2; stroke-opacity:0.1; fill:none" points="953.078,1423.18 953.078,123.472 "/>
<polyline clip-path="url(#clip582)" style="stroke:#000000; stroke-linecap:round; stroke-linejoin:round; stroke-width:2; stroke-opacity:0.1; fill:none" points="1354.9,1423.18 1354.9,123.472 "/>
<polyline clip-path="url(#clip582)" style="stroke:#000000; stroke-linecap:round; stroke-linejoin:round; stroke-width:2; stroke-opacity:0.1; fill:none" points="1756.72,1423.18 1756.72,123.472 "/>
<polyline clip-path="url(#clip582)" style="stroke:#000000; stroke-linecap:round; stroke-linejoin:round; stroke-width:2; stroke-opacity:0.1; fill:none" points="2158.54,1423.18 2158.54,123.472 "/>
<polyline clip-path="url(#clip582)" style="stroke:#000000; stroke-linecap:round; stroke-linejoin:round; stroke-width:2; stroke-opacity:0.1; fill:none" points="223.103,1138.91 2352.76,1138.91 "/>
<polyline clip-path="url(#clip582)" style="stroke:#000000; stroke-linecap:round; stroke-linejoin:round; stroke-width:2; stroke-opacity:0.1; fill:none" points="223.103,852.432 2352.76,852.432 "/>
<polyline clip-path="url(#clip582)" style="stroke:#000000; stroke-linecap:round; stroke-linejoin:round; stroke-width:2; stroke-opacity:0.1; fill:none" points="223.103,565.954 2352.76,565.954 "/>
<polyline clip-path="url(#clip582)" style="stroke:#000000; stroke-linecap:round; stroke-linejoin:round; stroke-width:2; stroke-opacity:0.1; fill:none" points="223.103,279.476 2352.76,279.476 "/>
<polyline clip-path="url(#clip580)" style="stroke:#000000; stroke-linecap:round; stroke-linejoin:round; stroke-width:4; stroke-opacity:1; fill:none" points="223.103,852.432 2352.76,852.432 "/>
<polyline clip-path="url(#clip580)" style="stroke:#000000; stroke-linecap:round; stroke-linejoin:round; stroke-width:4; stroke-opacity:0; fill:none" points="551.257,852.432 551.257,852.432 "/>
<polyline clip-path="url(#clip580)" style="stroke:#000000; stroke-linecap:round; stroke-linejoin:round; stroke-width:4; stroke-opacity:0; fill:none" points="953.078,852.432 953.078,852.432 "/>
<polyline clip-path="url(#clip580)" style="stroke:#000000; stroke-linecap:round; stroke-linejoin:round; stroke-width:4; stroke-opacity:0; fill:none" points="1354.9,852.432 1354.9,852.432 "/>
<polyline clip-path="url(#clip580)" style="stroke:#000000; stroke-linecap:round; stroke-linejoin:round; stroke-width:4; stroke-opacity:0; fill:none" points="1756.72,852.432 1756.72,852.432 "/>
<polyline clip-path="url(#clip580)" style="stroke:#000000; stroke-linecap:round; stroke-linejoin:round; stroke-width:4; stroke-opacity:0; fill:none" points="2158.54,852.432 2158.54,852.432 "/>
<path clip-path="url(#clip580)" d="M520.724 1468.75 L550.4 1468.75 L550.4 1472.69 L520.724 1472.69 L520.724 1468.75 Z" fill="#000000" fill-rule="nonzero" fill-opacity="1" /><path clip-path="url(#clip580)" d="M574.659 1466.95 Q578.016 1467.66 579.891 1469.93 Q581.789 1472.2 581.789 1475.53 Q581.789 1480.65 578.27 1483.45 Q574.752 1486.25 568.27 1486.25 Q566.095 1486.25 563.78 1485.81 Q561.488 1485.39 559.034 1484.54 L559.034 1480.02 Q560.979 1481.16 563.294 1481.74 Q565.608 1482.32 568.132 1482.32 Q572.53 1482.32 574.821 1480.58 Q577.136 1478.84 577.136 1475.53 Q577.136 1472.48 574.983 1470.77 Q572.854 1469.03 569.034 1469.03 L565.007 1469.03 L565.007 1465.19 L569.22 1465.19 Q572.669 1465.19 574.497 1463.82 Q576.326 1462.43 576.326 1459.84 Q576.326 1457.18 574.428 1455.77 Q572.553 1454.33 569.034 1454.33 Q567.113 1454.33 564.914 1454.75 Q562.715 1455.16 560.076 1456.04 L560.076 1451.88 Q562.738 1451.14 565.053 1450.77 Q567.391 1450.39 569.451 1450.39 Q574.775 1450.39 577.877 1452.83 Q580.979 1455.23 580.979 1459.35 Q580.979 1462.22 579.335 1464.21 Q577.692 1466.18 574.659 1466.95 Z" fill="#000000" fill-rule="nonzero" fill-opacity="1" /><path clip-path="url(#clip580)" d="M953.078 1454.1 Q949.467 1454.1 947.638 1457.66 Q945.833 1461.2 945.833 1468.33 Q945.833 1475.44 947.638 1479.01 Q949.467 1482.55 953.078 1482.55 Q956.712 1482.55 958.518 1479.01 Q960.347 1475.44 960.347 1468.33 Q960.347 1461.2 958.518 1457.66 Q956.712 1454.1 953.078 1454.1 M953.078 1450.39 Q958.888 1450.39 961.944 1455 Q965.022 1459.58 965.022 1468.33 Q965.022 1477.06 961.944 1481.67 Q958.888 1486.25 953.078 1486.25 Q947.268 1486.25 944.189 1481.67 Q941.134 1477.06 941.134 1468.33 Q941.134 1459.58 944.189 1455 Q947.268 1450.39 953.078 1450.39 Z" fill="#000000" fill-rule="nonzero" fill-opacity="1" /><path clip-path="url(#clip580)" d="M1359.15 1466.95 Q1362.5 1467.66 1364.38 1469.93 Q1366.28 1472.2 1366.28 1475.53 Q1366.28 1480.65 1362.76 1483.45 Q1359.24 1486.25 1352.76 1486.25 Q1350.58 1486.25 1348.27 1485.81 Q1345.98 1485.39 1343.52 1484.54 L1343.52 1480.02 Q1345.47 1481.16 1347.78 1481.74 Q1350.1 1482.32 1352.62 1482.32 Q1357.02 1482.32 1359.31 1480.58 Q1361.62 1478.84 1361.62 1475.53 Q1361.62 1472.48 1359.47 1470.77 Q1357.34 1469.03 1353.52 1469.03 L1349.49 1469.03 L1349.49 1465.19 L1353.71 1465.19 Q1357.16 1465.19 1358.99 1463.82 Q1360.81 1462.43 1360.81 1459.84 Q1360.81 1457.18 1358.92 1455.77 Q1357.04 1454.33 1353.52 1454.33 Q1351.6 1454.33 1349.4 1454.75 Q1347.2 1455.16 1344.56 1456.04 L1344.56 1451.88 Q1347.23 1451.14 1349.54 1450.77 Q1351.88 1450.39 1353.94 1450.39 Q1359.26 1450.39 1362.36 1452.83 Q1365.47 1455.23 1365.47 1459.35 Q1365.47 1462.22 1363.82 1464.21 Q1362.18 1466.18 1359.15 1466.95 Z" fill="#000000" fill-rule="nonzero" fill-opacity="1" /><path clip-path="url(#clip580)" d="M1757.13 1466.44 Q1753.98 1466.44 1752.13 1468.59 Q1750.3 1470.74 1750.3 1474.49 Q1750.3 1478.22 1752.13 1480.39 Q1753.98 1482.55 1757.13 1482.55 Q1760.27 1482.55 1762.1 1480.39 Q1763.95 1478.22 1763.95 1474.49 Q1763.95 1470.74 1762.1 1468.59 Q1760.27 1466.44 1757.13 1466.44 M1766.41 1451.78 L1766.41 1456.04 Q1764.65 1455.21 1762.84 1454.77 Q1761.06 1454.33 1759.3 1454.33 Q1754.67 1454.33 1752.22 1457.45 Q1749.79 1460.58 1749.44 1466.9 Q1750.81 1464.89 1752.87 1463.82 Q1754.93 1462.73 1757.4 1462.73 Q1762.61 1462.73 1765.62 1465.9 Q1768.65 1469.05 1768.65 1474.49 Q1768.65 1479.82 1765.51 1483.03 Q1762.36 1486.25 1757.13 1486.25 Q1751.13 1486.25 1747.96 1481.67 Q1744.79 1477.06 1744.79 1468.33 Q1744.79 1460.14 1748.68 1455.28 Q1752.57 1450.39 1759.12 1450.39 Q1760.88 1450.39 1762.66 1450.74 Q1764.46 1451.09 1766.41 1451.78 Z" fill="#000000" fill-rule="nonzero" fill-opacity="1" /><path clip-path="url(#clip580)" d="M2148.84 1484.86 L2148.84 1480.6 Q2150.6 1481.44 2152.41 1481.88 Q2154.21 1482.32 2155.95 1482.32 Q2160.58 1482.32 2163.01 1479.21 Q2165.46 1476.09 2165.81 1469.75 Q2164.47 1471.74 2162.41 1472.8 Q2160.35 1473.87 2157.85 1473.87 Q2152.66 1473.87 2149.63 1470.74 Q2146.62 1467.59 2146.62 1462.15 Q2146.62 1456.83 2149.77 1453.61 Q2152.92 1450.39 2158.15 1450.39 Q2164.14 1450.39 2167.29 1455 Q2170.46 1459.58 2170.46 1468.33 Q2170.46 1476.51 2166.57 1481.39 Q2162.71 1486.25 2156.16 1486.25 Q2154.4 1486.25 2152.59 1485.9 Q2150.79 1485.56 2148.84 1484.86 M2158.15 1470.21 Q2161.3 1470.21 2163.13 1468.06 Q2164.98 1465.9 2164.98 1462.15 Q2164.98 1458.43 2163.13 1456.27 Q2161.3 1454.1 2158.15 1454.1 Q2155 1454.1 2153.15 1456.27 Q2151.32 1458.43 2151.32 1462.15 Q2151.32 1465.9 2153.15 1468.06 Q2155 1470.21 2158.15 1470.21 Z" fill="#000000" fill-rule="nonzero" fill-opacity="1" /><path clip-path="url(#clip580)" d="M1182.34 1520.52 L1188.77 1520.52 L1188.77 1562.63 L1211.91 1562.63 L1211.91 1568.04 L1182.34 1568.04 L1182.34 1520.52 Z" fill="#000000" fill-rule="nonzero" fill-opacity="1" /><path clip-path="url(#clip580)" d="M1234.6 1550.12 Q1227.5 1550.12 1224.77 1551.75 Q1222.03 1553.37 1222.03 1557.29 Q1222.03 1560.4 1224.07 1562.25 Q1226.13 1564.07 1229.67 1564.07 Q1234.54 1564.07 1237.47 1560.63 Q1240.43 1557.16 1240.43 1551.43 L1240.43 1550.12 L1234.6 1550.12 M1246.28 1547.71 L1246.28 1568.04 L1240.43 1568.04 L1240.43 1562.63 Q1238.42 1565.88 1235.43 1567.44 Q1232.44 1568.97 1228.11 1568.97 Q1222.63 1568.97 1219.39 1565.91 Q1216.17 1562.82 1216.17 1557.67 Q1216.17 1551.65 1220.18 1548.6 Q1224.22 1545.54 1232.21 1545.54 L1240.43 1545.54 L1240.43 1544.97 Q1240.43 1540.93 1237.75 1538.73 Q1235.11 1536.5 1230.3 1536.5 Q1227.25 1536.5 1224.35 1537.23 Q1221.46 1537.97 1218.78 1539.43 L1218.78 1534.02 Q1222 1532.78 1225.02 1532.17 Q1228.04 1531.54 1230.91 1531.54 Q1238.64 1531.54 1242.46 1535.55 Q1246.28 1539.56 1246.28 1547.71 Z" fill="#000000" fill-rule="nonzero" fill-opacity="1" /><path clip-path="url(#clip580)" d="M1281.8 1549.81 Q1281.8 1543.44 1279.16 1539.94 Q1276.55 1536.44 1271.81 1536.44 Q1267.1 1536.44 1264.46 1539.94 Q1261.85 1543.44 1261.85 1549.81 Q1261.85 1556.14 1264.46 1559.64 Q1267.1 1563.14 1271.81 1563.14 Q1276.55 1563.14 1279.16 1559.64 Q1281.8 1556.14 1281.8 1549.81 M1287.66 1563.62 Q1287.66 1572.72 1283.62 1577.15 Q1279.57 1581.6 1271.24 1581.6 Q1268.15 1581.6 1265.41 1581.13 Q1262.67 1580.68 1260.1 1579.72 L1260.1 1574.03 Q1262.67 1575.43 1265.19 1576.1 Q1267.7 1576.76 1270.31 1576.76 Q1276.07 1576.76 1278.94 1573.74 Q1281.8 1570.75 1281.8 1564.67 L1281.8 1561.77 Q1279.99 1564.92 1277.16 1566.48 Q1274.32 1568.04 1270.38 1568.04 Q1263.82 1568.04 1259.81 1563.05 Q1255.8 1558.05 1255.8 1549.81 Q1255.8 1541.53 1259.81 1536.53 Q1263.82 1531.54 1270.38 1531.54 Q1274.32 1531.54 1277.16 1533.1 Q1279.99 1534.66 1281.8 1537.81 L1281.8 1532.4 L1287.66 1532.4 L1287.66 1563.62 Z" fill="#000000" fill-rule="nonzero" fill-opacity="1" /><path clip-path="url(#clip580)" d="M1319.9 1518.52 L1333.4 1518.52 L1333.4 1523.07 L1325.76 1523.07 L1325.76 1572.09 L1333.4 1572.09 L1333.4 1576.64 L1319.9 1576.64 L1319.9 1518.52 Z" fill="#000000" fill-rule="nonzero" fill-opacity="1" /><path clip-path="url(#clip580)" d="M1368.6 1533.45 L1368.6 1538.98 Q1366.12 1537.71 1363.44 1537.07 Q1360.77 1536.44 1357.9 1536.44 Q1353.54 1536.44 1351.35 1537.77 Q1349.18 1539.11 1349.18 1541.79 Q1349.18 1543.82 1350.74 1545 Q1352.3 1546.15 1357.01 1547.2 L1359.02 1547.64 Q1365.26 1548.98 1367.87 1551.43 Q1370.51 1553.85 1370.51 1558.21 Q1370.51 1563.17 1366.56 1566.07 Q1362.65 1568.97 1355.77 1568.97 Q1352.91 1568.97 1349.79 1568.39 Q1346.7 1567.85 1343.26 1566.74 L1343.26 1560.69 Q1346.51 1562.38 1349.66 1563.24 Q1352.81 1564.07 1355.9 1564.07 Q1360.04 1564.07 1362.26 1562.66 Q1364.49 1561.23 1364.49 1558.65 Q1364.49 1556.27 1362.87 1554.99 Q1361.28 1553.72 1355.84 1552.54 L1353.8 1552.07 Q1348.36 1550.92 1345.94 1548.56 Q1343.52 1546.18 1343.52 1542.04 Q1343.52 1537.01 1347.08 1534.27 Q1350.65 1531.54 1357.2 1531.54 Q1360.45 1531.54 1363.32 1532.01 Q1366.18 1532.49 1368.6 1533.45 Z" fill="#000000" fill-rule="nonzero" fill-opacity="1" /><path clip-path="url(#clip580)" d="M1393.52 1518.52 L1393.52 1576.64 L1380.03 1576.64 L1380.03 1572.09 L1387.63 1572.09 L1387.63 1523.07 L1380.03 1523.07 L1380.03 1518.52 L1393.52 1518.52 Z" fill="#000000" fill-rule="nonzero" fill-opacity="1" /><polyline clip-path="url(#clip580)" style="stroke:#000000; stroke-linecap:round; stroke-linejoin:round; stroke-width:4; stroke-opacity:1; fill:none" points="953.078,1423.18 953.078,123.472 "/>
<polyline clip-path="url(#clip580)" style="stroke:#000000; stroke-linecap:round; stroke-linejoin:round; stroke-width:4; stroke-opacity:0; fill:none" points="953.078,1138.91 953.078,1138.91 "/>
<polyline clip-path="url(#clip580)" style="stroke:#000000; stroke-linecap:round; stroke-linejoin:round; stroke-width:4; stroke-opacity:0; fill:none" points="953.078,852.432 953.078,852.432 "/>
<polyline clip-path="url(#clip580)" style="stroke:#000000; stroke-linecap:round; stroke-linejoin:round; stroke-width:4; stroke-opacity:0; fill:none" points="953.078,565.954 953.078,565.954 "/>
<polyline clip-path="url(#clip580)" style="stroke:#000000; stroke-linecap:round; stroke-linejoin:round; stroke-width:4; stroke-opacity:0; fill:none" points="953.078,279.476 953.078,279.476 "/>
<path clip-path="url(#clip580)" d="M50.9921 1139.36 L80.6679 1139.36 L80.6679 1143.3 L50.9921 1143.3 L50.9921 1139.36 Z" fill="#000000" fill-rule="nonzero" fill-opacity="1" /><path clip-path="url(#clip580)" d="M100.76 1124.71 Q97.1493 1124.71 95.3206 1128.27 Q93.515 1131.81 93.515 1138.94 Q93.515 1146.05 95.3206 1149.62 Q97.1493 1153.16 100.76 1153.16 Q104.395 1153.16 106.2 1149.62 Q108.029 1146.05 108.029 1138.94 Q108.029 1131.81 106.2 1128.27 Q104.395 1124.71 100.76 1124.71 M100.76 1121 Q106.571 1121 109.626 1125.61 Q112.705 1130.19 112.705 1138.94 Q112.705 1147.67 109.626 1152.28 Q106.571 1156.86 100.76 1156.86 Q94.9502 1156.86 91.8715 1152.28 Q88.816 1147.67 88.816 1138.94 Q88.816 1130.19 91.8715 1125.61 Q94.9502 1121 100.76 1121 Z" fill="#000000" fill-rule="nonzero" fill-opacity="1" /><path clip-path="url(#clip580)" d="M120.922 1150.31 L125.807 1150.31 L125.807 1156.19 L120.922 1156.19 L120.922 1150.31 Z" fill="#000000" fill-rule="nonzero" fill-opacity="1" /><path clip-path="url(#clip580)" d="M140.019 1152.25 L156.339 1152.25 L156.339 1156.19 L134.394 1156.19 L134.394 1152.25 Q137.056 1149.5 141.64 1144.87 Q146.246 1140.22 147.427 1138.87 Q149.672 1136.35 150.552 1134.62 Q151.455 1132.86 151.455 1131.17 Q151.455 1128.41 149.51 1126.68 Q147.589 1124.94 144.487 1124.94 Q142.288 1124.94 139.834 1125.7 Q137.404 1126.47 134.626 1128.02 L134.626 1123.3 Q137.45 1122.16 139.904 1121.58 Q142.357 1121 144.394 1121 Q149.765 1121 152.959 1123.69 Q156.154 1126.37 156.154 1130.87 Q156.154 1133 155.343 1134.92 Q154.556 1136.81 152.45 1139.41 Q151.871 1140.08 148.769 1143.3 Q145.668 1146.49 140.019 1152.25 Z" fill="#000000" fill-rule="nonzero" fill-opacity="1" /><path clip-path="url(#clip580)" d="M166.2 1121.63 L184.556 1121.63 L184.556 1125.56 L170.482 1125.56 L170.482 1134.04 Q171.501 1133.69 172.519 1133.53 Q173.538 1133.34 174.556 1133.34 Q180.343 1133.34 183.723 1136.51 Q187.103 1139.68 187.103 1145.1 Q187.103 1150.68 183.63 1153.78 Q180.158 1156.86 173.839 1156.86 Q171.663 1156.86 169.394 1156.49 Q167.149 1156.12 164.742 1155.38 L164.742 1150.68 Q166.825 1151.81 169.047 1152.37 Q171.269 1152.93 173.746 1152.93 Q177.751 1152.93 180.089 1150.82 Q182.427 1148.71 182.427 1145.1 Q182.427 1141.49 180.089 1139.38 Q177.751 1137.28 173.746 1137.28 Q171.871 1137.28 169.996 1137.69 Q168.144 1138.11 166.2 1138.99 L166.2 1121.63 Z" fill="#000000" fill-rule="nonzero" fill-opacity="1" /><path clip-path="url(#clip580)" d="M99.765 838.23 Q96.1539 838.23 94.3252 841.795 Q92.5197 845.337 92.5197 852.466 Q92.5197 859.573 94.3252 863.138 Q96.1539 866.679 99.765 866.679 Q103.399 866.679 105.205 863.138 Q107.033 859.573 107.033 852.466 Q107.033 845.337 105.205 841.795 Q103.399 838.23 99.765 838.23 M99.765 834.527 Q105.575 834.527 108.631 839.133 Q111.709 843.716 111.709 852.466 Q111.709 861.193 108.631 865.8 Q105.575 870.383 99.765 870.383 Q93.9549 870.383 90.8762 865.8 Q87.8206 861.193 87.8206 852.466 Q87.8206 843.716 90.8762 839.133 Q93.9549 834.527 99.765 834.527 Z" fill="#000000" fill-rule="nonzero" fill-opacity="1" /><path clip-path="url(#clip580)" d="M119.927 863.832 L124.811 863.832 L124.811 869.712 L119.927 869.712 L119.927 863.832 Z" fill="#000000" fill-rule="nonzero" fill-opacity="1" /><path clip-path="url(#clip580)" d="M144.996 838.23 Q141.385 838.23 139.556 841.795 Q137.751 845.337 137.751 852.466 Q137.751 859.573 139.556 863.138 Q141.385 866.679 144.996 866.679 Q148.63 866.679 150.436 863.138 Q152.265 859.573 152.265 852.466 Q152.265 845.337 150.436 841.795 Q148.63 838.23 144.996 838.23 M144.996 834.527 Q150.806 834.527 153.862 839.133 Q156.941 843.716 156.941 852.466 Q156.941 861.193 153.862 865.8 Q150.806 870.383 144.996 870.383 Q139.186 870.383 136.107 865.8 Q133.052 861.193 133.052 852.466 Q133.052 843.716 136.107 839.133 Q139.186 834.527 144.996 834.527 Z" fill="#000000" fill-rule="nonzero" fill-opacity="1" /><path clip-path="url(#clip580)" d="M175.158 838.23 Q171.547 838.23 169.718 841.795 Q167.913 845.337 167.913 852.466 Q167.913 859.573 169.718 863.138 Q171.547 866.679 175.158 866.679 Q178.792 866.679 180.598 863.138 Q182.427 859.573 182.427 852.466 Q182.427 845.337 180.598 841.795 Q178.792 838.23 175.158 838.23 M175.158 834.527 Q180.968 834.527 184.024 839.133 Q187.103 843.716 187.103 852.466 Q187.103 861.193 184.024 865.8 Q180.968 870.383 175.158 870.383 Q169.348 870.383 166.269 865.8 Q163.214 861.193 163.214 852.466 Q163.214 843.716 166.269 839.133 Q169.348 834.527 175.158 834.527 Z" fill="#000000" fill-rule="nonzero" fill-opacity="1" /><path clip-path="url(#clip580)" d="M100.76 551.753 Q97.1493 551.753 95.3206 555.317 Q93.515 558.859 93.515 565.989 Q93.515 573.095 95.3206 576.66 Q97.1493 580.201 100.76 580.201 Q104.395 580.201 106.2 576.66 Q108.029 573.095 108.029 565.989 Q108.029 558.859 106.2 555.317 Q104.395 551.753 100.76 551.753 M100.76 548.049 Q106.571 548.049 109.626 552.655 Q112.705 557.239 112.705 565.989 Q112.705 574.715 109.626 579.322 Q106.571 583.905 100.76 583.905 Q94.9502 583.905 91.8715 579.322 Q88.816 574.715 88.816 565.989 Q88.816 557.239 91.8715 552.655 Q94.9502 548.049 100.76 548.049 Z" fill="#000000" fill-rule="nonzero" fill-opacity="1" /><path clip-path="url(#clip580)" d="M120.922 577.354 L125.807 577.354 L125.807 583.234 L120.922 583.234 L120.922 577.354 Z" fill="#000000" fill-rule="nonzero" fill-opacity="1" /><path clip-path="url(#clip580)" d="M140.019 579.299 L156.339 579.299 L156.339 583.234 L134.394 583.234 L134.394 579.299 Q137.056 576.544 141.64 571.914 Q146.246 567.262 147.427 565.919 Q149.672 563.396 150.552 561.66 Q151.455 559.901 151.455 558.211 Q151.455 555.456 149.51 553.72 Q147.589 551.984 144.487 551.984 Q142.288 551.984 139.834 552.748 Q137.404 553.512 134.626 555.063 L134.626 550.341 Q137.45 549.206 139.904 548.628 Q142.357 548.049 144.394 548.049 Q149.765 548.049 152.959 550.734 Q156.154 553.419 156.154 557.91 Q156.154 560.04 155.343 561.961 Q154.556 563.859 152.45 566.452 Q151.871 567.123 148.769 570.34 Q145.668 573.535 140.019 579.299 Z" fill="#000000" fill-rule="nonzero" fill-opacity="1" /><path clip-path="url(#clip580)" d="M166.2 548.674 L184.556 548.674 L184.556 552.609 L170.482 552.609 L170.482 561.081 Q171.501 560.734 172.519 560.572 Q173.538 560.387 174.556 560.387 Q180.343 560.387 183.723 563.558 Q187.103 566.729 187.103 572.146 Q187.103 577.725 183.63 580.826 Q180.158 583.905 173.839 583.905 Q171.663 583.905 169.394 583.535 Q167.149 583.164 164.742 582.424 L164.742 577.725 Q166.825 578.859 169.047 579.414 Q171.269 579.97 173.746 579.97 Q177.751 579.97 180.089 577.864 Q182.427 575.757 182.427 572.146 Q182.427 568.535 180.089 566.428 Q177.751 564.322 173.746 564.322 Q171.871 564.322 169.996 564.739 Q168.144 565.155 166.2 566.035 L166.2 548.674 Z" fill="#000000" fill-rule="nonzero" fill-opacity="1" /><path clip-path="url(#clip580)" d="M99.765 265.275 Q96.1539 265.275 94.3252 268.84 Q92.5197 272.381 92.5197 279.511 Q92.5197 286.617 94.3252 290.182 Q96.1539 293.724 99.765 293.724 Q103.399 293.724 105.205 290.182 Q107.033 286.617 107.033 279.511 Q107.033 272.381 105.205 268.84 Q103.399 265.275 99.765 265.275 M99.765 261.571 Q105.575 261.571 108.631 266.178 Q111.709 270.761 111.709 279.511 Q111.709 288.238 108.631 292.844 Q105.575 297.427 99.765 297.427 Q93.9549 297.427 90.8762 292.844 Q87.8206 288.238 87.8206 279.511 Q87.8206 270.761 90.8762 266.178 Q93.9549 261.571 99.765 261.571 Z" fill="#000000" fill-rule="nonzero" fill-opacity="1" /><path clip-path="url(#clip580)" d="M119.927 290.877 L124.811 290.877 L124.811 296.756 L119.927 296.756 L119.927 290.877 Z" fill="#000000" fill-rule="nonzero" fill-opacity="1" /><path clip-path="url(#clip580)" d="M135.043 262.196 L153.399 262.196 L153.399 266.131 L139.325 266.131 L139.325 274.603 Q140.343 274.256 141.362 274.094 Q142.381 273.909 143.399 273.909 Q149.186 273.909 152.566 277.08 Q155.945 280.252 155.945 285.668 Q155.945 291.247 152.473 294.349 Q149.001 297.427 142.681 297.427 Q140.506 297.427 138.237 297.057 Q135.992 296.687 133.584 295.946 L133.584 291.247 Q135.668 292.381 137.89 292.937 Q140.112 293.492 142.589 293.492 Q146.593 293.492 148.931 291.386 Q151.269 289.279 151.269 285.668 Q151.269 282.057 148.931 279.951 Q146.593 277.844 142.589 277.844 Q140.714 277.844 138.839 278.261 Q136.987 278.678 135.043 279.557 L135.043 262.196 Z" fill="#000000" fill-rule="nonzero" fill-opacity="1" /><path clip-path="url(#clip580)" d="M175.158 265.275 Q171.547 265.275 169.718 268.84 Q167.913 272.381 167.913 279.511 Q167.913 286.617 169.718 290.182 Q171.547 293.724 175.158 293.724 Q178.792 293.724 180.598 290.182 Q182.427 286.617 182.427 279.511 Q182.427 272.381 180.598 268.84 Q178.792 265.275 175.158 265.275 M175.158 261.571 Q180.968 261.571 184.024 266.178 Q187.103 270.761 187.103 279.511 Q187.103 288.238 184.024 292.844 Q180.968 297.427 175.158 297.427 Q169.348 297.427 166.269 292.844 Q163.214 288.238 163.214 279.511 Q163.214 270.761 166.269 266.178 Q169.348 261.571 175.158 261.571 Z" fill="#000000" fill-rule="nonzero" fill-opacity="1" /><path clip-path="url(#clip580)" d="M671.402 12.096 L679.585 12.096 L679.585 72.576 L671.402 72.576 L671.402 12.096 Z" fill="#000000" fill-rule="nonzero" fill-opacity="1" /><path clip-path="url(#clip580)" d="M733.259 45.1919 L733.259 72.576 L725.805 72.576 L725.805 45.4349 Q725.805 38.994 723.294 35.7938 Q720.782 32.5936 715.759 32.5936 Q709.723 32.5936 706.24 36.4419 Q702.756 40.2903 702.756 46.9338 L702.756 72.576 L695.262 72.576 L695.262 27.2059 L702.756 27.2059 L702.756 34.2544 Q705.429 30.163 709.035 28.1376 Q712.681 26.1121 717.42 26.1121 Q725.238 26.1121 729.249 30.9732 Q733.259 35.7938 733.259 45.1919 Z" fill="#000000" fill-rule="nonzero" fill-opacity="1" /><path clip-path="url(#clip580)" d="M755.337 65.7705 L755.337 89.8329 L747.842 89.8329 L747.842 27.2059 L755.337 27.2059 L755.337 34.0924 Q757.686 30.0415 761.251 28.0971 Q764.856 26.1121 769.839 26.1121 Q778.103 26.1121 783.247 32.6746 Q788.432 39.2371 788.432 49.9314 Q788.432 60.6258 783.247 67.1883 Q778.103 73.7508 769.839 73.7508 Q764.856 73.7508 761.251 71.8063 Q757.686 69.8214 755.337 65.7705 M780.695 49.9314 Q780.695 41.7081 777.292 37.0496 Q773.93 32.3505 768.016 32.3505 Q762.102 32.3505 758.699 37.0496 Q755.337 41.7081 755.337 49.9314 Q755.337 58.1548 758.699 62.8538 Q762.102 67.5124 768.016 67.5124 Q773.93 67.5124 777.292 62.8538 Q780.695 58.1548 780.695 49.9314 Z" fill="#000000" fill-rule="nonzero" fill-opacity="1" /><path clip-path="url(#clip580)" d="M800.018 54.671 L800.018 27.2059 L807.472 27.2059 L807.472 54.3874 Q807.472 60.8284 809.983 64.0691 Q812.495 67.2693 817.518 67.2693 Q823.554 67.2693 827.038 63.421 Q830.562 59.5726 830.562 52.9291 L830.562 27.2059 L838.016 27.2059 L838.016 72.576 L830.562 72.576 L830.562 65.6084 Q827.848 69.7404 824.242 71.7658 Q820.678 73.7508 815.938 73.7508 Q808.12 73.7508 804.069 68.8897 Q800.018 64.0286 800.018 54.671 M818.774 26.1121 L818.774 26.1121 Z" fill="#000000" fill-rule="nonzero" fill-opacity="1" /><path clip-path="url(#clip580)" d="M860.741 14.324 L860.741 27.2059 L876.094 27.2059 L876.094 32.9987 L860.741 32.9987 L860.741 57.6282 Q860.741 63.1779 862.24 64.7578 Q863.779 66.3376 868.438 66.3376 L876.094 66.3376 L876.094 72.576 L868.438 72.576 Q859.809 72.576 856.528 69.3758 Q853.247 66.1351 853.247 57.6282 L853.247 32.9987 L847.778 32.9987 L847.778 27.2059 L853.247 27.2059 L853.247 14.324 L860.741 14.324 Z" fill="#000000" fill-rule="nonzero" fill-opacity="1" /><path clip-path="url(#clip580)" d="M882.13 46.5287 L903.964 46.5287 L903.964 53.1722 L882.13 53.1722 L882.13 46.5287 Z" fill="#000000" fill-rule="nonzero" fill-opacity="1" /><path clip-path="url(#clip580)" d="M943.015 17.6457 Q934.103 17.6457 928.837 24.2892 Q923.611 30.9327 923.611 42.3968 Q923.611 53.8203 928.837 60.4638 Q934.103 67.1073 943.015 67.1073 Q951.927 67.1073 957.112 60.4638 Q962.338 53.8203 962.338 42.3968 Q962.338 30.9327 957.112 24.2892 Q951.927 17.6457 943.015 17.6457 M943.015 11.0023 Q955.735 11.0023 963.351 19.5497 Q970.966 28.0566 970.966 42.3968 Q970.966 56.6965 963.351 65.2439 Q955.735 73.7508 943.015 73.7508 Q930.255 73.7508 922.598 65.2439 Q914.983 56.737 914.983 42.3968 Q914.983 28.0566 922.598 19.5497 Q930.255 11.0023 943.015 11.0023 Z" fill="#000000" fill-rule="nonzero" fill-opacity="1" /><path clip-path="url(#clip580)" d="M982.673 54.671 L982.673 27.2059 L990.127 27.2059 L990.127 54.3874 Q990.127 60.8284 992.639 64.0691 Q995.15 67.2693 1000.17 67.2693 Q1006.21 67.2693 1009.69 63.421 Q1013.22 59.5726 1013.22 52.9291 L1013.22 27.2059 L1020.67 27.2059 L1020.67 72.576 L1013.22 72.576 L1013.22 65.6084 Q1010.5 69.7404 1006.9 71.7658 Q1003.33 73.7508 998.593 73.7508 Q990.775 73.7508 986.724 68.8897 Q982.673 64.0286 982.673 54.671 M1001.43 26.1121 L1001.43 26.1121 Z" fill="#000000" fill-rule="nonzero" fill-opacity="1" /><path clip-path="url(#clip580)" d="M1043.4 14.324 L1043.4 27.2059 L1058.75 27.2059 L1058.75 32.9987 L1043.4 32.9987 L1043.4 57.6282 Q1043.4 63.1779 1044.9 64.7578 Q1046.43 66.3376 1051.09 66.3376 L1058.75 66.3376 L1058.75 72.576 L1051.09 72.576 Q1042.46 72.576 1039.18 69.3758 Q1035.9 66.1351 1035.9 57.6282 L1035.9 32.9987 L1030.43 32.9987 L1030.43 27.2059 L1035.9 27.2059 L1035.9 14.324 L1043.4 14.324 Z" fill="#000000" fill-rule="nonzero" fill-opacity="1" /><path clip-path="url(#clip580)" d="M1075.76 65.7705 L1075.76 89.8329 L1068.27 89.8329 L1068.27 27.2059 L1075.76 27.2059 L1075.76 34.0924 Q1078.11 30.0415 1081.68 28.0971 Q1085.28 26.1121 1090.27 26.1121 Q1098.53 26.1121 1103.67 32.6746 Q1108.86 39.2371 1108.86 49.9314 Q1108.86 60.6258 1103.67 67.1883 Q1098.53 73.7508 1090.27 73.7508 Q1085.28 73.7508 1081.68 71.8063 Q1078.11 69.8214 1075.76 65.7705 M1101.12 49.9314 Q1101.12 41.7081 1097.72 37.0496 Q1094.36 32.3505 1088.44 32.3505 Q1082.53 32.3505 1079.13 37.0496 Q1075.76 41.7081 1075.76 49.9314 Q1075.76 58.1548 1079.13 62.8538 Q1082.53 67.5124 1088.44 67.5124 Q1094.36 67.5124 1097.72 62.8538 Q1101.12 58.1548 1101.12 49.9314 Z" fill="#000000" fill-rule="nonzero" fill-opacity="1" /><path clip-path="url(#clip580)" d="M1120.44 54.671 L1120.44 27.2059 L1127.9 27.2059 L1127.9 54.3874 Q1127.9 60.8284 1130.41 64.0691 Q1132.92 67.2693 1137.94 67.2693 Q1143.98 67.2693 1147.46 63.421 Q1150.99 59.5726 1150.99 52.9291 L1150.99 27.2059 L1158.44 27.2059 L1158.44 72.576 L1150.99 72.576 L1150.99 65.6084 Q1148.27 69.7404 1144.67 71.7658 Q1141.1 73.7508 1136.36 73.7508 Q1128.55 73.7508 1124.5 68.8897 Q1120.44 64.0286 1120.44 54.671 M1139.2 26.1121 L1139.2 26.1121 Z" fill="#000000" fill-rule="nonzero" fill-opacity="1" /><path clip-path="url(#clip580)" d="M1181.17 14.324 L1181.17 27.2059 L1196.52 27.2059 L1196.52 32.9987 L1181.17 32.9987 L1181.17 57.6282 Q1181.17 63.1779 1182.67 64.7578 Q1184.21 66.3376 1188.86 66.3376 L1196.52 66.3376 L1196.52 72.576 L1188.86 72.576 Q1180.24 72.576 1176.95 69.3758 Q1173.67 66.1351 1173.67 57.6282 L1173.67 32.9987 L1168.2 32.9987 L1168.2 27.2059 L1173.67 27.2059 L1173.67 14.324 L1181.17 14.324 Z" fill="#000000" fill-rule="nonzero" fill-opacity="1" /><path clip-path="url(#clip580)" d="M1265.35 28.9478 L1265.35 35.9153 Q1262.19 34.1734 1258.99 33.3227 Q1255.83 32.4315 1252.59 32.4315 Q1245.33 32.4315 1241.32 37.0496 Q1237.31 41.6271 1237.31 49.9314 Q1237.31 58.2358 1241.32 62.8538 Q1245.33 67.4314 1252.59 67.4314 Q1255.83 67.4314 1258.99 66.5807 Q1262.19 65.6895 1265.35 63.9476 L1265.35 70.8341 Q1262.23 72.2924 1258.86 73.0216 Q1255.54 73.7508 1251.77 73.7508 Q1241.53 73.7508 1235.49 67.3098 Q1229.45 60.8689 1229.45 49.9314 Q1229.45 38.832 1235.53 32.472 Q1241.65 26.1121 1252.26 26.1121 Q1255.7 26.1121 1258.99 26.8413 Q1262.27 27.5299 1265.35 28.9478 Z" fill="#000000" fill-rule="nonzero" fill-opacity="1" /><path clip-path="url(#clip580)" d="M1304.6 34.1734 Q1303.34 33.4443 1301.84 33.1202 Q1300.39 32.7556 1298.6 32.7556 Q1292.28 32.7556 1288.88 36.8875 Q1285.52 40.9789 1285.52 48.6757 L1285.52 72.576 L1278.02 72.576 L1278.02 27.2059 L1285.52 27.2059 L1285.52 34.2544 Q1287.87 30.1225 1291.64 28.1376 Q1295.4 26.1121 1300.79 26.1121 Q1301.56 26.1121 1302.49 26.2337 Q1303.42 26.3147 1304.56 26.5172 L1304.6 34.1734 Z" fill="#000000" fill-rule="nonzero" fill-opacity="1" /><path clip-path="url(#clip580)" d="M1328.17 32.4315 Q1322.18 32.4315 1318.7 37.1306 Q1315.21 41.7891 1315.21 49.9314 Q1315.21 58.0738 1318.66 62.7728 Q1322.14 67.4314 1328.17 67.4314 Q1334.13 67.4314 1337.61 62.7323 Q1341.1 58.0333 1341.1 49.9314 Q1341.1 41.8701 1337.61 37.1711 Q1334.13 32.4315 1328.17 32.4315 M1328.17 26.1121 Q1337.9 26.1121 1343.45 32.4315 Q1349 38.7509 1349 49.9314 Q1349 61.0714 1343.45 67.4314 Q1337.9 73.7508 1328.17 73.7508 Q1318.41 73.7508 1312.86 67.4314 Q1307.35 61.0714 1307.35 49.9314 Q1307.35 38.7509 1312.86 32.4315 Q1318.41 26.1121 1328.17 26.1121 Z" fill="#000000" fill-rule="nonzero" fill-opacity="1" /><path clip-path="url(#clip580)" d="M1390.28 28.5427 L1390.28 35.5912 Q1387.12 33.9709 1383.71 33.1607 Q1380.31 32.3505 1376.66 32.3505 Q1371.11 32.3505 1368.32 34.0519 Q1365.56 35.7533 1365.56 39.156 Q1365.56 41.7486 1367.55 43.2475 Q1369.53 44.7058 1375.53 46.0426 L1378.08 46.6097 Q1386.02 48.3111 1389.34 51.4303 Q1392.71 54.509 1392.71 60.0587 Q1392.71 66.3781 1387.68 70.0644 Q1382.7 73.7508 1373.95 73.7508 Q1370.3 73.7508 1366.33 73.0216 Q1362.41 72.3329 1358.03 70.9151 L1358.03 63.2184 Q1362.16 65.3654 1366.17 66.4591 Q1370.18 67.5124 1374.11 67.5124 Q1379.38 67.5124 1382.21 65.73 Q1385.05 63.9071 1385.05 60.6258 Q1385.05 57.5877 1382.98 55.9673 Q1380.96 54.3469 1374.03 52.8481 L1371.44 52.2405 Q1364.51 50.7821 1361.43 47.7845 Q1358.35 44.7463 1358.35 39.4801 Q1358.35 33.0797 1362.89 29.5959 Q1367.43 26.1121 1375.77 26.1121 Q1379.9 26.1121 1383.55 26.7198 Q1387.2 27.3274 1390.28 28.5427 Z" fill="#000000" fill-rule="nonzero" fill-opacity="1" /><path clip-path="url(#clip580)" d="M1433.5 28.5427 L1433.5 35.5912 Q1430.34 33.9709 1426.94 33.1607 Q1423.53 32.3505 1419.89 32.3505 Q1414.34 32.3505 1411.54 34.0519 Q1408.79 35.7533 1408.79 39.156 Q1408.79 41.7486 1410.77 43.2475 Q1412.76 44.7058 1418.75 46.0426 L1421.31 46.6097 Q1429.25 48.3111 1432.57 51.4303 Q1435.93 54.509 1435.93 60.0587 Q1435.93 66.3781 1430.91 70.0644 Q1425.92 73.7508 1417.17 73.7508 Q1413.53 73.7508 1409.56 73.0216 Q1405.63 72.3329 1401.25 70.9151 L1401.25 63.2184 Q1405.39 65.3654 1409.4 66.4591 Q1413.41 67.5124 1417.34 67.5124 Q1422.6 67.5124 1425.44 65.73 Q1428.27 63.9071 1428.27 60.6258 Q1428.27 57.5877 1426.21 55.9673 Q1424.18 54.3469 1417.25 52.8481 L1414.66 52.2405 Q1407.73 50.7821 1404.66 47.7845 Q1401.58 44.7463 1401.58 39.4801 Q1401.58 33.0797 1406.11 29.5959 Q1410.65 26.1121 1419 26.1121 Q1423.13 26.1121 1426.77 26.7198 Q1430.42 27.3274 1433.5 28.5427 Z" fill="#000000" fill-rule="nonzero" fill-opacity="1" /><path clip-path="url(#clip580)" d="M1506.82 28.9478 L1506.82 35.9153 Q1503.66 34.1734 1500.46 33.3227 Q1497.3 32.4315 1494.06 32.4315 Q1486.81 32.4315 1482.8 37.0496 Q1478.79 41.6271 1478.79 49.9314 Q1478.79 58.2358 1482.8 62.8538 Q1486.81 67.4314 1494.06 67.4314 Q1497.3 67.4314 1500.46 66.5807 Q1503.66 65.6895 1506.82 63.9476 L1506.82 70.8341 Q1503.7 72.2924 1500.34 73.0216 Q1497.02 73.7508 1493.25 73.7508 Q1483 73.7508 1476.96 67.3098 Q1470.93 60.8689 1470.93 49.9314 Q1470.93 38.832 1477.01 32.472 Q1483.12 26.1121 1493.74 26.1121 Q1497.18 26.1121 1500.46 26.8413 Q1503.74 27.5299 1506.82 28.9478 Z" fill="#000000" fill-rule="nonzero" fill-opacity="1" /><path clip-path="url(#clip580)" d="M1537.36 32.4315 Q1531.37 32.4315 1527.88 37.1306 Q1524.4 41.7891 1524.4 49.9314 Q1524.4 58.0738 1527.84 62.7728 Q1531.33 67.4314 1537.36 67.4314 Q1543.32 67.4314 1546.8 62.7323 Q1550.29 58.0333 1550.29 49.9314 Q1550.29 41.8701 1546.8 37.1711 Q1543.32 32.4315 1537.36 32.4315 M1537.36 26.1121 Q1547.09 26.1121 1552.64 32.4315 Q1558.19 38.7509 1558.19 49.9314 Q1558.19 61.0714 1552.64 67.4314 Q1547.09 73.7508 1537.36 73.7508 Q1527.6 73.7508 1522.05 67.4314 Q1516.54 61.0714 1516.54 49.9314 Q1516.54 38.7509 1522.05 32.4315 Q1527.6 26.1121 1537.36 26.1121 Z" fill="#000000" fill-rule="nonzero" fill-opacity="1" /><path clip-path="url(#clip580)" d="M1596.83 34.1734 Q1595.58 33.4443 1594.08 33.1202 Q1592.62 32.7556 1590.84 32.7556 Q1584.52 32.7556 1581.11 36.8875 Q1577.75 40.9789 1577.75 48.6757 L1577.75 72.576 L1570.26 72.576 L1570.26 27.2059 L1577.75 27.2059 L1577.75 34.2544 Q1580.1 30.1225 1583.87 28.1376 Q1587.64 26.1121 1593.02 26.1121 Q1593.79 26.1121 1594.72 26.2337 Q1595.66 26.3147 1596.79 26.5172 L1596.83 34.1734 Z" fill="#000000" fill-rule="nonzero" fill-opacity="1" /><path clip-path="url(#clip580)" d="M1629.48 34.1734 Q1628.23 33.4443 1626.73 33.1202 Q1625.27 32.7556 1623.49 32.7556 Q1617.17 32.7556 1613.76 36.8875 Q1610.4 40.9789 1610.4 48.6757 L1610.4 72.576 L1602.91 72.576 L1602.91 27.2059 L1610.4 27.2059 L1610.4 34.2544 Q1612.75 30.1225 1616.52 28.1376 Q1620.29 26.1121 1625.67 26.1121 Q1626.44 26.1121 1627.37 26.2337 Q1628.31 26.3147 1629.44 26.5172 L1629.48 34.1734 Z" fill="#000000" fill-rule="nonzero" fill-opacity="1" /><path clip-path="url(#clip580)" d="M1674.28 48.0275 L1674.28 51.6733 L1640.01 51.6733 Q1640.5 59.3701 1644.63 63.421 Q1648.8 67.4314 1656.22 67.4314 Q1660.51 67.4314 1664.52 66.3781 Q1668.57 65.3249 1672.54 63.2184 L1672.54 70.267 Q1668.53 71.9684 1664.32 72.8596 Q1660.11 73.7508 1655.77 73.7508 Q1644.92 73.7508 1638.56 67.4314 Q1632.24 61.1119 1632.24 50.3365 Q1632.24 39.1965 1638.23 32.6746 Q1644.27 26.1121 1654.48 26.1121 Q1663.63 26.1121 1668.94 32.0264 Q1674.28 37.9003 1674.28 48.0275 M1666.83 45.84 Q1666.75 39.7232 1663.39 36.0774 Q1660.07 32.4315 1654.56 32.4315 Q1648.32 32.4315 1644.55 35.9558 Q1640.82 39.4801 1640.26 45.8805 L1666.83 45.84 Z" fill="#000000" fill-rule="nonzero" fill-opacity="1" /><path clip-path="url(#clip580)" d="M1686.52 9.54393 L1693.97 9.54393 L1693.97 72.576 L1686.52 72.576 L1686.52 9.54393 Z" fill="#000000" fill-rule="nonzero" fill-opacity="1" /><path clip-path="url(#clip580)" d="M1730.19 49.7694 Q1721.15 49.7694 1717.67 51.8354 Q1714.19 53.9013 1714.19 58.8839 Q1714.19 62.8538 1716.78 65.2034 Q1719.41 67.5124 1723.91 67.5124 Q1730.11 67.5124 1733.83 63.1374 Q1737.6 58.7219 1737.6 51.4303 L1737.6 49.7694 L1730.19 49.7694 M1745.05 46.6907 L1745.05 72.576 L1737.6 72.576 L1737.6 65.6895 Q1735.05 69.8214 1731.24 71.8063 Q1727.43 73.7508 1721.92 73.7508 Q1714.96 73.7508 1710.82 69.8619 Q1706.73 65.9325 1706.73 59.3701 Q1706.73 51.7138 1711.84 47.825 Q1716.98 43.9361 1727.15 43.9361 L1737.6 43.9361 L1737.6 43.2069 Q1737.6 38.0623 1734.2 35.2672 Q1730.83 32.4315 1724.72 32.4315 Q1720.83 32.4315 1717.14 33.3632 Q1713.46 34.295 1710.05 36.1584 L1710.05 29.2718 Q1714.15 27.692 1717.99 26.9223 Q1721.84 26.1121 1725.49 26.1121 Q1735.33 26.1121 1740.19 31.2163 Q1745.05 36.3204 1745.05 46.6907 Z" fill="#000000" fill-rule="nonzero" fill-opacity="1" /><path clip-path="url(#clip580)" d="M1767.78 14.324 L1767.78 27.2059 L1783.13 27.2059 L1783.13 32.9987 L1767.78 32.9987 L1767.78 57.6282 Q1767.78 63.1779 1769.28 64.7578 Q1770.82 66.3376 1775.48 66.3376 L1783.13 66.3376 L1783.13 72.576 L1775.48 72.576 Q1766.85 72.576 1763.57 69.3758 Q1760.28 66.1351 1760.28 57.6282 L1760.28 32.9987 L1754.82 32.9987 L1754.82 27.2059 L1760.28 27.2059 L1760.28 14.324 L1767.78 14.324 Z" fill="#000000" fill-rule="nonzero" fill-opacity="1" /><path clip-path="url(#clip580)" d="M1792.94 27.2059 L1800.39 27.2059 L1800.39 72.576 L1792.94 72.576 L1792.94 27.2059 M1792.94 9.54393 L1800.39 9.54393 L1800.39 18.9825 L1792.94 18.9825 L1792.94 9.54393 Z" fill="#000000" fill-rule="nonzero" fill-opacity="1" /><path clip-path="url(#clip580)" d="M1833.57 32.4315 Q1827.57 32.4315 1824.09 37.1306 Q1820.6 41.7891 1820.6 49.9314 Q1820.6 58.0738 1824.05 62.7728 Q1827.53 67.4314 1833.57 67.4314 Q1839.52 67.4314 1843 62.7323 Q1846.49 58.0333 1846.49 49.9314 Q1846.49 41.8701 1843 37.1711 Q1839.52 32.4315 1833.57 32.4315 M1833.57 26.1121 Q1843.29 26.1121 1848.84 32.4315 Q1854.39 38.7509 1854.39 49.9314 Q1854.39 61.0714 1848.84 67.4314 Q1843.29 73.7508 1833.57 73.7508 Q1823.8 73.7508 1818.25 67.4314 Q1812.74 61.0714 1812.74 49.9314 Q1812.74 38.7509 1818.25 32.4315 Q1823.8 26.1121 1833.57 26.1121 Z" fill="#000000" fill-rule="nonzero" fill-opacity="1" /><path clip-path="url(#clip580)" d="M1904.46 45.1919 L1904.46 72.576 L1897 72.576 L1897 45.4349 Q1897 38.994 1894.49 35.7938 Q1891.98 32.5936 1886.96 32.5936 Q1880.92 32.5936 1877.44 36.4419 Q1873.95 40.2903 1873.95 46.9338 L1873.95 72.576 L1866.46 72.576 L1866.46 27.2059 L1873.95 27.2059 L1873.95 34.2544 Q1876.63 30.163 1880.23 28.1376 Q1883.88 26.1121 1888.62 26.1121 Q1896.44 26.1121 1900.45 30.9732 Q1904.46 35.7938 1904.46 45.1919 Z" fill="#000000" fill-rule="nonzero" fill-opacity="1" /><circle clip-path="url(#clip582)" cx="283.376" cy="827.265" r="14.4" fill="#009af9" fill-rule="evenodd" fill-opacity="1" stroke="#000000" stroke-opacity="1" stroke-width="3.2"/>
<circle clip-path="url(#clip582)" cx="417.316" cy="842.662" r="14.4" fill="#009af9" fill-rule="evenodd" fill-opacity="1" stroke="#000000" stroke-opacity="1" stroke-width="3.2"/>
<circle clip-path="url(#clip582)" cx="551.257" cy="926.735" r="14.4" fill="#009af9" fill-rule="evenodd" fill-opacity="1" stroke="#000000" stroke-opacity="1" stroke-width="3.2"/>
<circle clip-path="url(#clip582)" cx="685.197" cy="867.129" r="14.4" fill="#009af9" fill-rule="evenodd" fill-opacity="1" stroke="#000000" stroke-opacity="1" stroke-width="3.2"/>
<circle clip-path="url(#clip582)" cx="819.138" cy="1044.77" r="14.4" fill="#009af9" fill-rule="evenodd" fill-opacity="1" stroke="#000000" stroke-opacity="1" stroke-width="3.2"/>
<circle clip-path="url(#clip582)" cx="953.078" cy="1386.4" r="14.4" fill="#009af9" fill-rule="evenodd" fill-opacity="1" stroke="#000000" stroke-opacity="1" stroke-width="3.2"/>
<circle clip-path="url(#clip582)" cx="1087.02" cy="160.256" r="14.4" fill="#009af9" fill-rule="evenodd" fill-opacity="1" stroke="#000000" stroke-opacity="1" stroke-width="3.2"/>
<circle clip-path="url(#clip582)" cx="1220.96" cy="592.194" r="14.4" fill="#009af9" fill-rule="evenodd" fill-opacity="1" stroke="#000000" stroke-opacity="1" stroke-width="3.2"/>
<circle clip-path="url(#clip582)" cx="1354.9" cy="795.744" r="14.4" fill="#009af9" fill-rule="evenodd" fill-opacity="1" stroke="#000000" stroke-opacity="1" stroke-width="3.2"/>
<circle clip-path="url(#clip582)" cx="1488.84" cy="758.594" r="14.4" fill="#009af9" fill-rule="evenodd" fill-opacity="1" stroke="#000000" stroke-opacity="1" stroke-width="3.2"/>
<circle clip-path="url(#clip582)" cx="1622.78" cy="861.588" r="14.4" fill="#009af9" fill-rule="evenodd" fill-opacity="1" stroke="#000000" stroke-opacity="1" stroke-width="3.2"/>
<circle clip-path="url(#clip582)" cx="1756.72" cy="861.002" r="14.4" fill="#009af9" fill-rule="evenodd" fill-opacity="1" stroke="#000000" stroke-opacity="1" stroke-width="3.2"/>
<circle clip-path="url(#clip582)" cx="1890.66" cy="790.132" r="14.4" fill="#009af9" fill-rule="evenodd" fill-opacity="1" stroke="#000000" stroke-opacity="1" stroke-width="3.2"/>
<circle clip-path="url(#clip582)" cx="2024.6" cy="914.127" r="14.4" fill="#009af9" fill-rule="evenodd" fill-opacity="1" stroke="#000000" stroke-opacity="1" stroke-width="3.2"/>
<circle clip-path="url(#clip582)" cx="2158.54" cy="861.735" r="14.4" fill="#009af9" fill-rule="evenodd" fill-opacity="1" stroke="#000000" stroke-opacity="1" stroke-width="3.2"/>
<circle clip-path="url(#clip582)" cx="2292.48" cy="786.829" r="14.4" fill="#009af9" fill-rule="evenodd" fill-opacity="1" stroke="#000000" stroke-opacity="1" stroke-width="3.2"/>
<polyline clip-path="url(#clip582)" style="stroke:#009af9; stroke-linecap:round; stroke-linejoin:round; stroke-width:4; stroke-opacity:1; fill:none" points="283.376,852.432 283.376,827.265 "/>
<polyline clip-path="url(#clip582)" style="stroke:#009af9; stroke-linecap:round; stroke-linejoin:round; stroke-width:4; stroke-opacity:1; fill:none" points="417.316,852.432 417.316,842.662 "/>
<polyline clip-path="url(#clip582)" style="stroke:#009af9; stroke-linecap:round; stroke-linejoin:round; stroke-width:4; stroke-opacity:1; fill:none" points="551.257,852.432 551.257,926.735 "/>
<polyline clip-path="url(#clip582)" style="stroke:#009af9; stroke-linecap:round; stroke-linejoin:round; stroke-width:4; stroke-opacity:1; fill:none" points="685.197,852.432 685.197,867.129 "/>
<polyline clip-path="url(#clip582)" style="stroke:#009af9; stroke-linecap:round; stroke-linejoin:round; stroke-width:4; stroke-opacity:1; fill:none" points="819.138,852.432 819.138,1044.77 "/>
<polyline clip-path="url(#clip582)" style="stroke:#009af9; stroke-linecap:round; stroke-linejoin:round; stroke-width:4; stroke-opacity:1; fill:none" points="953.078,852.432 953.078,1386.4 "/>
<polyline clip-path="url(#clip582)" style="stroke:#009af9; stroke-linecap:round; stroke-linejoin:round; stroke-width:4; stroke-opacity:1; fill:none" points="1087.02,852.432 1087.02,160.256 "/>
<polyline clip-path="url(#clip582)" style="stroke:#009af9; stroke-linecap:round; stroke-linejoin:round; stroke-width:4; stroke-opacity:1; fill:none" points="1220.96,852.432 1220.96,592.194 "/>
<polyline clip-path="url(#clip582)" style="stroke:#009af9; stroke-linecap:round; stroke-linejoin:round; stroke-width:4; stroke-opacity:1; fill:none" points="1354.9,852.432 1354.9,795.744 "/>
<polyline clip-path="url(#clip582)" style="stroke:#009af9; stroke-linecap:round; stroke-linejoin:round; stroke-width:4; stroke-opacity:1; fill:none" points="1488.84,852.432 1488.84,758.594 "/>
<polyline clip-path="url(#clip582)" style="stroke:#009af9; stroke-linecap:round; stroke-linejoin:round; stroke-width:4; stroke-opacity:1; fill:none" points="1622.78,852.432 1622.78,861.588 "/>
<polyline clip-path="url(#clip582)" style="stroke:#009af9; stroke-linecap:round; stroke-linejoin:round; stroke-width:4; stroke-opacity:1; fill:none" points="1756.72,852.432 1756.72,861.002 "/>
<polyline clip-path="url(#clip582)" style="stroke:#009af9; stroke-linecap:round; stroke-linejoin:round; stroke-width:4; stroke-opacity:1; fill:none" points="1890.66,852.432 1890.66,790.132 "/>
<polyline clip-path="url(#clip582)" style="stroke:#009af9; stroke-linecap:round; stroke-linejoin:round; stroke-width:4; stroke-opacity:1; fill:none" points="2024.6,852.432 2024.6,914.127 "/>
<polyline clip-path="url(#clip582)" style="stroke:#009af9; stroke-linecap:round; stroke-linejoin:round; stroke-width:4; stroke-opacity:1; fill:none" points="2158.54,852.432 2158.54,861.735 "/>
<polyline clip-path="url(#clip582)" style="stroke:#009af9; stroke-linecap:round; stroke-linejoin:round; stroke-width:4; stroke-opacity:1; fill:none" points="2292.48,852.432 2292.48,786.829 "/>
<polyline clip-path="url(#clip582)" style="stroke:#000000; stroke-linecap:round; stroke-linejoin:round; stroke-width:4; stroke-opacity:1; fill:none" stroke-dasharray="16, 10" points="-1906.55,749.938 4482.41,749.938 "/>
<polyline clip-path="url(#clip582)" style="stroke:#000000; stroke-linecap:round; stroke-linejoin:round; stroke-width:4; stroke-opacity:1; fill:none" stroke-dasharray="16, 10" points="-1906.55,954.925 4482.41,954.925 "/>
</svg>
