<?xml version="1.0" encoding="utf-8"?>
<svg xmlns="http://www.w3.org/2000/svg" xmlns:xlink="http://www.w3.org/1999/xlink" width="600" height="400" viewBox="0 0 2400 1600">
<defs>
  <clipPath id="clip290">
    <rect x="0" y="0" width="2400" height="1600"/>
  </clipPath>
</defs>
<path clip-path="url(#clip290)" d="M0 1600 L2400 1600 L2400 0 L0 0  Z" fill="#ffffff" fill-rule="evenodd" fill-opacity="1"/>
<defs>
  <clipPath id="clip291">
    <rect x="480" y="0" width="1681" height="1600"/>
  </clipPath>
</defs>
<path clip-path="url(#clip290)" d="M255.977 1423.18 L2352.76 1423.18 L2352.76 47.2441 L255.977 47.2441  Z" fill="#ffffff" fill-rule="evenodd" fill-opacity="1"/>
<defs>
  <clipPath id="clip292">
    <rect x="255" y="47" width="2098" height="1377"/>
  </clipPath>
</defs>
<polyline clip-path="url(#clip292)" style="stroke:#000000; stroke-linecap:round; stroke-linejoin:round; stroke-width:2; stroke-opacity:0.1; fill:none" points="315.32,1423.18 315.32,47.2441 "/>
<polyline clip-path="url(#clip292)" style="stroke:#000000; stroke-linecap:round; stroke-linejoin:round; stroke-width:2; stroke-opacity:0.1; fill:none" points="711.731,1423.18 711.731,47.2441 "/>
<polyline clip-path="url(#clip292)" style="stroke:#000000; stroke-linecap:round; stroke-linejoin:round; stroke-width:2; stroke-opacity:0.1; fill:none" points="1108.14,1423.18 1108.14,47.2441 "/>
<polyline clip-path="url(#clip292)" style="stroke:#000000; stroke-linecap:round; stroke-linejoin:round; stroke-width:2; stroke-opacity:0.1; fill:none" points="1504.55,1423.18 1504.55,47.2441 "/>
<polyline clip-path="url(#clip292)" style="stroke:#000000; stroke-linecap:round; stroke-linejoin:round; stroke-width:2; stroke-opacity:0.1; fill:none" points="1900.97,1423.18 1900.97,47.2441 "/>
<polyline clip-path="url(#clip292)" style="stroke:#000000; stroke-linecap:round; stroke-linejoin:round; stroke-width:2; stroke-opacity:0.1; fill:none" points="2297.38,1423.18 2297.38,47.2441 "/>
<polyline clip-path="url(#clip292)" style="stroke:#000000; stroke-linecap:round; stroke-linejoin:round; stroke-width:2; stroke-opacity:0.1; fill:none" points="255.977,1161.98 2352.76,1161.98 "/>
<polyline clip-path="url(#clip292)" style="stroke:#000000; stroke-linecap:round; stroke-linejoin:round; stroke-width:2; stroke-opacity:0.1; fill:none" points="255.977,849.788 2352.76,849.788 "/>
<polyline clip-path="url(#clip292)" style="stroke:#000000; stroke-linecap:round; stroke-linejoin:round; stroke-width:2; stroke-opacity:0.1; fill:none" points="255.977,537.6 2352.76,537.6 "/>
<polyline clip-path="url(#clip292)" style="stroke:#000000; stroke-linecap:round; stroke-linejoin:round; stroke-width:2; stroke-opacity:0.1; fill:none" points="255.977,225.411 2352.76,225.411 "/>
<polyline clip-path="url(#clip290)" style="stroke:#000000; stroke-linecap:round; stroke-linejoin:round; stroke-width:4; stroke-opacity:1; fill:none" points="255.977,1423.18 2352.76,1423.18 "/>
<polyline clip-path="url(#clip290)" style="stroke:#000000; stroke-linecap:round; stroke-linejoin:round; stroke-width:4; stroke-opacity:1; fill:none" points="315.32,1423.18 315.32,1404.28 "/>
<polyline clip-path="url(#clip290)" style="stroke:#000000; stroke-linecap:round; stroke-linejoin:round; stroke-width:4; stroke-opacity:1; fill:none" points="711.731,1423.18 711.731,1404.28 "/>
<polyline clip-path="url(#clip290)" style="stroke:#000000; stroke-linecap:round; stroke-linejoin:round; stroke-width:4; stroke-opacity:1; fill:none" points="1108.14,1423.18 1108.14,1404.28 "/>
<polyline clip-path="url(#clip290)" style="stroke:#000000; stroke-linecap:round; stroke-linejoin:round; stroke-width:4; stroke-opacity:1; fill:none" points="1504.55,1423.18 1504.55,1404.28 "/>
<polyline clip-path="url(#clip290)" style="stroke:#000000; stroke-linecap:round; stroke-linejoin:round; stroke-width:4; stroke-opacity:1; fill:none" points="1900.97,1423.18 1900.97,1404.28 "/>
<polyline clip-path="url(#clip290)" style="stroke:#000000; stroke-linecap:round; stroke-linejoin:round; stroke-width:4; stroke-opacity:1; fill:none" points="2297.38,1423.18 2297.38,1404.28 "/>
<path clip-path="url(#clip290)" d="M315.32 1454.1 Q311.709 1454.1 309.88 1457.66 Q308.075 1461.2 308.075 1468.33 Q308.075 1475.44 309.88 1479.01 Q311.709 1482.55 315.32 1482.55 Q318.954 1482.55 320.76 1479.01 Q322.588 1475.44 322.588 1468.33 Q322.588 1461.2 320.76 1457.66 Q318.954 1454.1 315.32 1454.1 M315.32 1450.39 Q321.13 1450.39 324.186 1455 Q327.264 1459.58 327.264 1468.33 Q327.264 1477.06 324.186 1481.67 Q321.13 1486.25 315.32 1486.25 Q309.51 1486.25 306.431 1481.67 Q303.376 1477.06 303.376 1468.33 Q303.376 1459.58 306.431 1455 Q309.51 1450.39 315.32 1450.39 Z" fill="#000000" fill-rule="nonzero" fill-opacity="1" /><path clip-path="url(#clip290)" d="M702.113 1481.64 L709.752 1481.64 L709.752 1455.28 L701.442 1456.95 L701.442 1452.69 L709.706 1451.02 L714.382 1451.02 L714.382 1481.64 L722.021 1481.64 L722.021 1485.58 L702.113 1485.58 L702.113 1481.64 Z" fill="#000000" fill-rule="nonzero" fill-opacity="1" /><path clip-path="url(#clip290)" d="M1102.8 1481.64 L1119.12 1481.64 L1119.12 1485.58 L1097.17 1485.58 L1097.17 1481.64 Q1099.83 1478.89 1104.42 1474.26 Q1109.02 1469.61 1110.2 1468.27 Q1112.45 1465.74 1113.33 1464.01 Q1114.23 1462.25 1114.23 1460.56 Q1114.23 1457.8 1112.29 1456.07 Q1110.37 1454.33 1107.26 1454.33 Q1105.06 1454.33 1102.61 1455.09 Q1100.18 1455.86 1097.4 1457.41 L1097.4 1452.69 Q1100.23 1451.55 1102.68 1450.97 Q1105.13 1450.39 1107.17 1450.39 Q1112.54 1450.39 1115.74 1453.08 Q1118.93 1455.77 1118.93 1460.26 Q1118.93 1462.39 1118.12 1464.31 Q1117.33 1466.2 1115.23 1468.8 Q1114.65 1469.47 1111.55 1472.69 Q1108.44 1475.88 1102.8 1481.64 Z" fill="#000000" fill-rule="nonzero" fill-opacity="1" /><path clip-path="url(#clip290)" d="M1508.8 1466.95 Q1512.16 1467.66 1514.03 1469.93 Q1515.93 1472.2 1515.93 1475.53 Q1515.93 1480.65 1512.41 1483.45 Q1508.89 1486.25 1502.41 1486.25 Q1500.24 1486.25 1497.92 1485.81 Q1495.63 1485.39 1493.18 1484.54 L1493.18 1480.02 Q1495.12 1481.16 1497.44 1481.74 Q1499.75 1482.32 1502.27 1482.32 Q1506.67 1482.32 1508.96 1480.58 Q1511.28 1478.84 1511.28 1475.53 Q1511.28 1472.48 1509.13 1470.77 Q1507 1469.03 1503.18 1469.03 L1499.15 1469.03 L1499.15 1465.19 L1503.36 1465.19 Q1506.81 1465.19 1508.64 1463.82 Q1510.47 1462.43 1510.47 1459.84 Q1510.47 1457.18 1508.57 1455.77 Q1506.7 1454.33 1503.18 1454.33 Q1501.26 1454.33 1499.06 1454.75 Q1496.86 1455.16 1494.22 1456.04 L1494.22 1451.88 Q1496.88 1451.14 1499.2 1450.77 Q1501.53 1450.39 1503.59 1450.39 Q1508.92 1450.39 1512.02 1452.83 Q1515.12 1455.23 1515.12 1459.35 Q1515.12 1462.22 1513.48 1464.21 Q1511.83 1466.18 1508.8 1466.95 Z" fill="#000000" fill-rule="nonzero" fill-opacity="1" /><path clip-path="url(#clip290)" d="M1903.98 1455.09 L1892.17 1473.54 L1903.98 1473.54 L1903.98 1455.09 M1902.75 1451.02 L1908.63 1451.02 L1908.63 1473.54 L1913.56 1473.54 L1913.56 1477.43 L1908.63 1477.43 L1908.63 1485.58 L1903.98 1485.58 L1903.98 1477.43 L1888.37 1477.43 L1888.37 1472.92 L1902.75 1451.02 Z" fill="#000000" fill-rule="nonzero" fill-opacity="1" /><path clip-path="url(#clip290)" d="M2287.66 1451.02 L2306.01 1451.02 L2306.01 1454.96 L2291.94 1454.96 L2291.94 1463.43 Q2292.96 1463.08 2293.97 1462.92 Q2294.99 1462.73 2296.01 1462.73 Q2301.8 1462.73 2305.18 1465.9 Q2308.56 1469.08 2308.56 1474.49 Q2308.56 1480.07 2305.09 1483.17 Q2301.61 1486.25 2295.29 1486.25 Q2293.12 1486.25 2290.85 1485.88 Q2288.6 1485.51 2286.2 1484.77 L2286.2 1480.07 Q2288.28 1481.2 2290.5 1481.76 Q2292.72 1482.32 2295.2 1482.32 Q2299.21 1482.32 2301.54 1480.21 Q2303.88 1478.1 2303.88 1474.49 Q2303.88 1470.88 2301.54 1468.77 Q2299.21 1466.67 2295.2 1466.67 Q2293.33 1466.67 2291.45 1467.08 Q2289.6 1467.5 2287.66 1468.38 L2287.66 1451.02 Z" fill="#000000" fill-rule="nonzero" fill-opacity="1" /><path clip-path="url(#clip290)" d="M1174.54 1520.52 L1214.74 1520.52 L1214.74 1525.93 L1197.87 1525.93 L1197.87 1568.04 L1191.41 1568.04 L1191.41 1525.93 L1174.54 1525.93 L1174.54 1520.52 Z" fill="#000000" fill-rule="nonzero" fill-opacity="1" /><path clip-path="url(#clip290)" d="M1218.68 1532.4 L1224.54 1532.4 L1224.54 1568.04 L1218.68 1568.04 L1218.68 1532.4 M1218.68 1518.52 L1224.54 1518.52 L1224.54 1525.93 L1218.68 1525.93 L1218.68 1518.52 Z" fill="#000000" fill-rule="nonzero" fill-opacity="1" /><path clip-path="url(#clip290)" d="M1264.55 1539.24 Q1266.75 1535.29 1269.8 1533.41 Q1272.86 1531.54 1276.99 1531.54 Q1282.56 1531.54 1285.59 1535.45 Q1288.61 1539.33 1288.61 1546.53 L1288.61 1568.04 L1282.72 1568.04 L1282.72 1546.72 Q1282.72 1541.59 1280.91 1539.11 Q1279.09 1536.63 1275.37 1536.63 Q1270.82 1536.63 1268.18 1539.65 Q1265.54 1542.68 1265.54 1547.9 L1265.54 1568.04 L1259.65 1568.04 L1259.65 1546.72 Q1259.65 1541.56 1257.83 1539.11 Q1256.02 1536.63 1252.23 1536.63 Q1247.74 1536.63 1245.1 1539.68 Q1242.46 1542.71 1242.46 1547.9 L1242.46 1568.04 L1236.57 1568.04 L1236.57 1532.4 L1242.46 1532.4 L1242.46 1537.93 Q1244.47 1534.66 1247.27 1533.1 Q1250.07 1531.54 1253.92 1531.54 Q1257.8 1531.54 1260.51 1533.51 Q1263.24 1535.48 1264.55 1539.24 Z" fill="#000000" fill-rule="nonzero" fill-opacity="1" /><path clip-path="url(#clip290)" d="M1330.78 1548.76 L1330.78 1551.62 L1303.86 1551.62 Q1304.24 1557.67 1307.49 1560.85 Q1310.76 1564 1316.59 1564 Q1319.96 1564 1323.11 1563.17 Q1326.3 1562.35 1329.42 1560.69 L1329.42 1566.23 Q1326.26 1567.57 1322.95 1568.27 Q1319.64 1568.97 1316.24 1568.97 Q1307.71 1568.97 1302.71 1564 Q1297.75 1559.04 1297.75 1550.57 Q1297.75 1541.82 1302.46 1536.69 Q1307.2 1531.54 1315.22 1531.54 Q1322.41 1531.54 1326.58 1536.18 Q1330.78 1540.8 1330.78 1548.76 M1324.93 1547.04 Q1324.86 1542.23 1322.22 1539.37 Q1319.61 1536.5 1315.28 1536.5 Q1310.38 1536.5 1307.42 1539.27 Q1304.49 1542.04 1304.05 1547.07 L1324.93 1547.04 Z" fill="#000000" fill-rule="nonzero" fill-opacity="1" /><path clip-path="url(#clip290)" d="M1360.58 1518.52 L1374.07 1518.52 L1374.07 1523.07 L1366.43 1523.07 L1366.43 1572.09 L1374.07 1572.09 L1374.07 1576.64 L1360.58 1576.64 L1360.58 1518.52 Z" fill="#000000" fill-rule="nonzero" fill-opacity="1" /><path clip-path="url(#clip290)" d="M1409.27 1533.45 L1409.27 1538.98 Q1406.79 1537.71 1404.12 1537.07 Q1401.44 1536.44 1398.58 1536.44 Q1394.22 1536.44 1392.02 1537.77 Q1389.86 1539.11 1389.86 1541.79 Q1389.86 1543.82 1391.42 1545 Q1392.98 1546.15 1397.69 1547.2 L1399.69 1547.64 Q1405.93 1548.98 1408.54 1551.43 Q1411.18 1553.85 1411.18 1558.21 Q1411.18 1563.17 1407.24 1566.07 Q1403.32 1568.97 1396.45 1568.97 Q1393.58 1568.97 1390.46 1568.39 Q1387.38 1567.85 1383.94 1566.74 L1383.94 1560.69 Q1387.18 1562.38 1390.34 1563.24 Q1393.49 1564.07 1396.57 1564.07 Q1400.71 1564.07 1402.94 1562.66 Q1405.17 1561.23 1405.17 1558.65 Q1405.17 1556.27 1403.54 1554.99 Q1401.95 1553.72 1396.51 1552.54 L1394.47 1552.07 Q1389.03 1550.92 1386.61 1548.56 Q1384.19 1546.18 1384.19 1542.04 Q1384.19 1537.01 1387.76 1534.27 Q1391.32 1531.54 1397.88 1531.54 Q1401.13 1531.54 1403.99 1532.01 Q1406.85 1532.49 1409.27 1533.45 Z" fill="#000000" fill-rule="nonzero" fill-opacity="1" /><path clip-path="url(#clip290)" d="M1434.2 1518.52 L1434.2 1576.64 L1420.7 1576.64 L1420.7 1572.09 L1428.31 1572.09 L1428.31 1523.07 L1420.7 1523.07 L1420.7 1518.52 L1434.2 1518.52 Z" fill="#000000" fill-rule="nonzero" fill-opacity="1" /><polyline clip-path="url(#clip290)" style="stroke:#000000; stroke-linecap:round; stroke-linejoin:round; stroke-width:4; stroke-opacity:1; fill:none" points="255.977,1423.18 255.977,47.2441 "/>
<polyline clip-path="url(#clip290)" style="stroke:#000000; stroke-linecap:round; stroke-linejoin:round; stroke-width:4; stroke-opacity:1; fill:none" points="255.977,1161.98 274.875,1161.98 "/>
<polyline clip-path="url(#clip290)" style="stroke:#000000; stroke-linecap:round; stroke-linejoin:round; stroke-width:4; stroke-opacity:1; fill:none" points="255.977,849.788 274.875,849.788 "/>
<polyline clip-path="url(#clip290)" style="stroke:#000000; stroke-linecap:round; stroke-linejoin:round; stroke-width:4; stroke-opacity:1; fill:none" points="255.977,537.6 274.875,537.6 "/>
<polyline clip-path="url(#clip290)" style="stroke:#000000; stroke-linecap:round; stroke-linejoin:round; stroke-width:4; stroke-opacity:1; fill:none" points="255.977,225.411 274.875,225.411 "/>
<path clip-path="url(#clip290)" d="M114.631 1162.43 L144.306 1162.43 L144.306 1166.36 L114.631 1166.36 L114.631 1162.43 Z" fill="#000000" fill-rule="nonzero" fill-opacity="1" /><path clip-path="url(#clip290)" d="M164.399 1147.77 Q160.788 1147.77 158.959 1151.34 Q157.153 1154.88 157.153 1162.01 Q157.153 1169.12 158.959 1172.68 Q160.788 1176.22 164.399 1176.22 Q168.033 1176.22 169.839 1172.68 Q171.667 1169.12 171.667 1162.01 Q171.667 1154.88 169.839 1151.34 Q168.033 1147.77 164.399 1147.77 M164.399 1144.07 Q170.209 1144.07 173.264 1148.68 Q176.343 1153.26 176.343 1162.01 Q176.343 1170.74 173.264 1175.34 Q170.209 1179.93 164.399 1179.93 Q158.589 1179.93 155.51 1175.34 Q152.454 1170.74 152.454 1162.01 Q152.454 1153.26 155.51 1148.68 Q158.589 1144.07 164.399 1144.07 Z" fill="#000000" fill-rule="nonzero" fill-opacity="1" /><path clip-path="url(#clip290)" d="M184.561 1173.38 L189.445 1173.38 L189.445 1179.26 L184.561 1179.26 L184.561 1173.38 Z" fill="#000000" fill-rule="nonzero" fill-opacity="1" /><path clip-path="url(#clip290)" d="M203.658 1175.32 L219.977 1175.32 L219.977 1179.26 L198.033 1179.26 L198.033 1175.32 Q200.695 1172.57 205.278 1167.94 Q209.885 1163.28 211.065 1161.94 Q213.311 1159.42 214.19 1157.68 Q215.093 1155.92 215.093 1154.23 Q215.093 1151.48 213.149 1149.74 Q211.227 1148.01 208.125 1148.01 Q205.926 1148.01 203.473 1148.77 Q201.042 1149.53 198.264 1151.08 L198.264 1146.36 Q201.088 1145.23 203.542 1144.65 Q205.996 1144.07 208.033 1144.07 Q213.403 1144.07 216.598 1146.76 Q219.792 1149.44 219.792 1153.93 Q219.792 1156.06 218.982 1157.98 Q218.195 1159.88 216.088 1162.47 Q215.51 1163.15 212.408 1166.36 Q209.306 1169.56 203.658 1175.32 Z" fill="#000000" fill-rule="nonzero" fill-opacity="1" /><path clip-path="url(#clip290)" d="M114.26 850.239 L143.936 850.239 L143.936 854.174 L114.26 854.174 L114.26 850.239 Z" fill="#000000" fill-rule="nonzero" fill-opacity="1" /><path clip-path="url(#clip290)" d="M164.028 835.586 Q160.417 835.586 158.589 839.151 Q156.783 842.693 156.783 849.823 Q156.783 856.929 158.589 860.494 Q160.417 864.035 164.028 864.035 Q167.663 864.035 169.468 860.494 Q171.297 856.929 171.297 849.823 Q171.297 842.693 169.468 839.151 Q167.663 835.586 164.028 835.586 M164.028 831.883 Q169.839 831.883 172.894 836.489 Q175.973 841.073 175.973 849.823 Q175.973 858.549 172.894 863.156 Q169.839 867.739 164.028 867.739 Q158.218 867.739 155.14 863.156 Q152.084 858.549 152.084 849.823 Q152.084 841.073 155.14 836.489 Q158.218 831.883 164.028 831.883 Z" fill="#000000" fill-rule="nonzero" fill-opacity="1" /><path clip-path="url(#clip290)" d="M184.19 861.188 L189.075 861.188 L189.075 867.068 L184.19 867.068 L184.19 861.188 Z" fill="#000000" fill-rule="nonzero" fill-opacity="1" /><path clip-path="url(#clip290)" d="M200.07 863.133 L207.709 863.133 L207.709 836.767 L199.399 838.434 L199.399 834.174 L207.662 832.508 L212.338 832.508 L212.338 863.133 L219.977 863.133 L219.977 867.068 L200.07 867.068 L200.07 863.133 Z" fill="#000000" fill-rule="nonzero" fill-opacity="1" /><path clip-path="url(#clip290)" d="M162.802 523.398 Q159.19 523.398 157.362 526.963 Q155.556 530.505 155.556 537.634 Q155.556 544.741 157.362 548.305 Q159.19 551.847 162.802 551.847 Q166.436 551.847 168.241 548.305 Q170.07 544.741 170.07 537.634 Q170.07 530.505 168.241 526.963 Q166.436 523.398 162.802 523.398 M162.802 519.695 Q168.612 519.695 171.667 524.301 Q174.746 528.884 174.746 537.634 Q174.746 546.361 171.667 550.968 Q168.612 555.551 162.802 555.551 Q156.991 555.551 153.913 550.968 Q150.857 546.361 150.857 537.634 Q150.857 528.884 153.913 524.301 Q156.991 519.695 162.802 519.695 Z" fill="#000000" fill-rule="nonzero" fill-opacity="1" /><path clip-path="url(#clip290)" d="M182.963 549 L187.848 549 L187.848 554.88 L182.963 554.88 L182.963 549 Z" fill="#000000" fill-rule="nonzero" fill-opacity="1" /><path clip-path="url(#clip290)" d="M208.033 523.398 Q204.422 523.398 202.593 526.963 Q200.787 530.505 200.787 537.634 Q200.787 544.741 202.593 548.305 Q204.422 551.847 208.033 551.847 Q211.667 551.847 213.473 548.305 Q215.301 544.741 215.301 537.634 Q215.301 530.505 213.473 526.963 Q211.667 523.398 208.033 523.398 M208.033 519.695 Q213.843 519.695 216.898 524.301 Q219.977 528.884 219.977 537.634 Q219.977 546.361 216.898 550.968 Q213.843 555.551 208.033 555.551 Q202.223 555.551 199.144 550.968 Q196.088 546.361 196.088 537.634 Q196.088 528.884 199.144 524.301 Q202.223 519.695 208.033 519.695 Z" fill="#000000" fill-rule="nonzero" fill-opacity="1" /><path clip-path="url(#clip290)" d="M164.028 211.21 Q160.417 211.21 158.589 214.775 Q156.783 218.316 156.783 225.446 Q156.783 232.552 158.589 236.117 Q160.417 239.659 164.028 239.659 Q167.663 239.659 169.468 236.117 Q171.297 232.552 171.297 225.446 Q171.297 218.316 169.468 214.775 Q167.663 211.21 164.028 211.21 M164.028 207.506 Q169.839 207.506 172.894 212.113 Q175.973 216.696 175.973 225.446 Q175.973 234.173 172.894 238.779 Q169.839 243.363 164.028 243.363 Q158.218 243.363 155.14 238.779 Q152.084 234.173 152.084 225.446 Q152.084 216.696 155.14 212.113 Q158.218 207.506 164.028 207.506 Z" fill="#000000" fill-rule="nonzero" fill-opacity="1" /><path clip-path="url(#clip290)" d="M184.19 236.812 L189.075 236.812 L189.075 242.691 L184.19 242.691 L184.19 236.812 Z" fill="#000000" fill-rule="nonzero" fill-opacity="1" /><path clip-path="url(#clip290)" d="M200.07 238.756 L207.709 238.756 L207.709 212.391 L199.399 214.057 L199.399 209.798 L207.662 208.131 L212.338 208.131 L212.338 238.756 L219.977 238.756 L219.977 242.691 L200.07 242.691 L200.07 238.756 Z" fill="#000000" fill-rule="nonzero" fill-opacity="1" /><path clip-path="url(#clip290)" d="M20.8447 823.791 Q20.8447 830.793 26.0645 834.931 Q31.2844 839.037 40.2919 839.037 Q49.2675 839.037 54.4874 834.931 Q59.7073 830.793 59.7073 823.791 Q59.7073 816.788 54.4874 812.714 Q49.2675 808.609 40.2919 808.609 Q31.2844 808.609 26.0645 812.714 Q20.8447 816.788 20.8447 823.791 M15.6248 823.791 Q15.6248 813.797 22.3406 807.813 Q29.0246 801.829 40.2919 801.829 Q51.5274 801.829 58.2432 807.813 Q64.9272 813.797 64.9272 823.791 Q64.9272 833.817 58.2432 839.832 Q51.5592 845.816 40.2919 845.816 Q29.0246 845.816 22.3406 839.832 Q15.6248 833.817 15.6248 823.791 Z" fill="#000000" fill-rule="nonzero" fill-opacity="1" /><path clip-path="url(#clip290)" d="M49.9359 792.631 L28.3562 792.631 L28.3562 786.774 L49.7131 786.774 Q54.7739 786.774 57.3202 784.801 Q59.8346 782.827 59.8346 778.881 Q59.8346 774.138 56.8109 771.401 Q53.7872 768.632 48.5673 768.632 L28.3562 768.632 L28.3562 762.775 L64.0042 762.775 L64.0042 768.632 L58.5296 768.632 Q61.7762 770.764 63.3676 773.597 Q64.9272 776.398 64.9272 780.122 Q64.9272 786.265 61.1078 789.448 Q57.2883 792.631 49.9359 792.631 M27.4968 777.894 L27.4968 777.894 Z" fill="#000000" fill-rule="nonzero" fill-opacity="1" /><path clip-path="url(#clip290)" d="M18.2347 744.92 L28.3562 744.92 L28.3562 732.857 L32.9077 732.857 L32.9077 744.92 L52.2594 744.92 Q56.6199 744.92 57.8613 743.742 Q59.1026 742.533 59.1026 738.872 L59.1026 732.857 L64.0042 732.857 L64.0042 738.872 Q64.0042 745.652 61.4897 748.23 Q58.9434 750.808 52.2594 750.808 L32.9077 750.808 L32.9077 755.105 L28.3562 755.105 L28.3562 750.808 L18.2347 750.808 L18.2347 744.92 Z" fill="#000000" fill-rule="nonzero" fill-opacity="1" /><path clip-path="url(#clip290)" d="M58.657 719.489 L77.5631 719.489 L77.5631 725.377 L28.3562 725.377 L28.3562 719.489 L33.7671 719.489 Q30.5842 717.643 29.0564 714.842 Q27.4968 712.009 27.4968 708.094 Q27.4968 701.601 32.6531 697.559 Q37.8093 693.485 46.212 693.485 Q54.6147 693.485 59.771 697.559 Q64.9272 701.601 64.9272 708.094 Q64.9272 712.009 63.3994 714.842 Q61.8398 717.643 58.657 719.489 M46.212 699.564 Q39.7508 699.564 36.0905 702.238 Q32.3984 704.879 32.3984 709.526 Q32.3984 714.173 36.0905 716.847 Q39.7508 719.489 46.212 719.489 Q52.6732 719.489 56.3653 716.847 Q60.0256 714.173 60.0256 709.526 Q60.0256 704.879 56.3653 702.238 Q52.6732 699.564 46.212 699.564 Z" fill="#000000" fill-rule="nonzero" fill-opacity="1" /><path clip-path="url(#clip290)" d="M49.9359 684.382 L28.3562 684.382 L28.3562 678.525 L49.7131 678.525 Q54.7739 678.525 57.3202 676.552 Q59.8346 674.579 59.8346 670.632 Q59.8346 665.889 56.8109 663.152 Q53.7872 660.383 48.5673 660.383 L28.3562 660.383 L28.3562 654.527 L64.0042 654.527 L64.0042 660.383 L58.5296 660.383 Q61.7762 662.516 63.3676 665.348 Q64.9272 668.149 64.9272 671.873 Q64.9272 678.016 61.1078 681.199 Q57.2883 684.382 49.9359 684.382 M27.4968 669.645 L27.4968 669.645 Z" fill="#000000" fill-rule="nonzero" fill-opacity="1" /><path clip-path="url(#clip290)" d="M18.2347 636.671 L28.3562 636.671 L28.3562 624.608 L32.9077 624.608 L32.9077 636.671 L52.2594 636.671 Q56.6199 636.671 57.8613 635.493 Q59.1026 634.284 59.1026 630.623 L59.1026 624.608 L64.0042 624.608 L64.0042 630.623 Q64.0042 637.403 61.4897 639.981 Q58.9434 642.559 52.2594 642.559 L32.9077 642.559 L32.9077 646.856 L28.3562 646.856 L28.3562 642.559 L18.2347 642.559 L18.2347 636.671 Z" fill="#000000" fill-rule="nonzero" fill-opacity="1" /><polyline clip-path="url(#clip292)" style="stroke:#009af9; stroke-linecap:round; stroke-linejoin:round; stroke-width:4; stroke-opacity:1; fill:none" points="315.32,537.6 319.284,537.6 323.248,537.6 323.248,568.458 327.212,568.458 327.212,598.407 331.176,598.407 331.176,627.184 335.141,627.184 335.141,654.554 339.105,654.554 339.105,680.315 343.069,680.315 343.069,642.581 347.033,642.581 347.033,604.755 350.997,604.755 350.997,567.269 354.961,567.269 354.961,530.54 358.925,530.54 358.925,494.961 362.889,494.961 362.889,522.608 366.853,522.608 366.853,550.272 370.818,550.272 370.818,577.707 374.782,577.707 374.782,604.678 378.746,604.678 378.746,630.962 382.71,630.962 382.71,656.355 386.674,656.355 386.674,680.67 390.638,680.67 390.638,703.748 394.602,703.748 394.602,725.453 398.566,725.453 398.566,745.68 402.53,745.68 402.53,702.634 406.495,702.634 406.495,659.804 410.459,659.804 410.459,617.697 414.423,617.697 414.423,576.797 418.387,576.797 418.387,537.551 422.351,537.551 422.351,562.082 426.315,562.082 426.315,587.211 430.279,587.211 430.279,612.714 434.243,612.714 434.243,638.363 438.208,638.363 438.208,663.93 442.172,663.93 442.172,689.195 446.136,689.195 446.136,713.946 450.1,713.946 450.1,737.984 454.064,737.984 454.064,761.129 458.028,761.129 458.028,783.219 461.992,783.219 461.992,742.402 465.956,742.402 465.956,702.097 469.92,702.097 469.92,662.744 473.885,662.744 473.885,624.753 477.849,624.753 477.849,588.5 481.813,588.5 481.813,554.317 485.777,554.317 485.777,522.491 489.741,522.491 489.741,493.255 493.705,493.255 493.705,466.789 497.669,466.789 497.669,443.216 501.633,443.216 501.633,422.602 505.597,422.602 505.597,404.954 509.562,404.954 509.562,390.227 513.526,390.227 513.526,378.319 517.49,378.319 517.49,369.082 521.454,369.082 521.454,362.321 525.418,362.321 525.418,357.801 529.382,357.801 529.382,355.253 533.346,355.253 533.346,354.381 537.31,354.381 537.31,354.866 541.275,354.866 541.275,418.093 545.239,418.093 545.239,480.186 549.203,480.186 549.203,540.279 553.167,540.279 553.167,597.569 557.131,597.569 557.131,651.326 561.095,651.326 561.095,639.192 565.059,639.192 565.059,624.161 569.023,624.161 569.023,606.318 572.987,606.318 572.987,585.81 576.952,585.81 576.952,562.829 580.916,562.829 580.916,537.618 584.88,537.618 584.88,510.457 588.844,510.457 588.844,481.659 592.808,481.659 592.808,451.562 596.772,451.562 596.772,420.525 600.736,420.525 600.736,388.914 604.7,388.914 604.7,357.101 608.664,357.101 608.664,325.453 612.629,325.453 612.629,294.324 616.593,294.324 616.593,264.052 620.557,264.052 620.557,296.666 624.521,296.666 624.521,328.914 628.485,328.914 628.485,360.521 632.449,360.521 632.449,391.226 636.413,391.226 636.413,420.792 640.377,420.792 640.377,449.008 644.341,449.008 644.341,475.691 648.306,475.691 648.306,500.692 652.27,500.692 652.27,523.896 656.234,523.896 656.234,545.222 660.198,545.222 660.198,502.91 664.162,502.91 664.162,460.486 668.126,460.486 668.126,418.503 672.09,418.503 672.09,377.492 676.054,377.492 676.054,337.95 680.019,337.95 680.019,300.336 683.983,300.336 683.983,265.058 687.947,265.058 687.947,232.471 691.911,232.471 691.911,202.866 695.875,202.866 695.875,176.472 699.839,176.472 699.839,153.451 703.803,153.451 703.803,133.894 707.767,133.894 707.767,117.826 711.731,117.826 711.731,105.205 715.696,105.205 715.696,95.9238 719.66,95.9238 719.66,89.8161 723.624,89.8161 723.624,86.6603 727.588,86.6603 727.588,86.1857 731.552,86.1857 731.552,88.0794 735.516,88.0794 735.516,91.9937 739.48,91.9937 739.48,97.5537 743.444,97.5537 743.444,104.365 747.408,104.365 747.408,112.024 751.373,112.024 751.373,120.124 755.337,120.124 755.337,128.263 759.301,128.263 759.301,136.053 763.265,136.053 763.265,143.128 767.229,143.128 767.229,149.147 771.193,149.147 771.193,153.802 775.157,153.802 775.157,156.826 779.121,156.826 779.121,219.708 783.085,219.708 783.085,278.731 787.05,278.731 787.05,333.237 791.014,333.237 791.014,382.67 794.978,382.67 794.978,426.589 798.942,426.589 798.942,464.668 802.906,464.668 802.906,496.704 806.87,496.704 806.87,522.614 810.834,522.614 810.834,542.434 814.798,542.434 814.798,556.315 818.763,556.315 818.763,502.802 822.727,502.802 822.727,445.79 826.691,445.79 826.691,386.256 830.655,386.256 830.655,325.198 834.619,325.198 834.619,263.621 838.583,263.621 838.583,264.226 842.547,264.226 842.547,264.428 846.511,264.428 846.511,264.599 850.475,264.599 850.475,265.095 854.44,265.095 854.44,266.253 858.404,266.253 858.404,268.382 862.368,268.382 862.368,271.761 866.332,271.761 866.332,276.631 870.296,276.631 870.296,283.194 874.26,283.194 874.26,291.609 878.224,291.609 878.224,301.991 882.188,301.991 882.188,314.409 886.152,314.409 886.152,328.887 890.117,328.887 890.117,345.405 894.081,345.405 894.081,363.898 898.045,363.898 898.045,384.264 902.009,384.264 902.009,406.362 905.973,406.362 905.973,430.018 909.937,430.018 909.937,455.031 913.901,455.031 913.901,481.174 917.865,481.174 917.865,508.202 921.829,508.202 921.829,535.858 925.794,535.858 925.794,563.877 929.758,563.877 929.758,591.991 933.722,591.991 933.722,619.934 937.686,619.934 937.686,647.451 941.65,647.451 941.65,674.299 945.614,674.299 945.614,700.251 949.578,700.251 949.578,725.104 953.542,725.104 953.542,748.678 957.507,748.678 957.507,709.105 961.471,709.105 961.471,669.798 965.435,669.798 965.435,631.192 969.399,631.192 969.399,593.698 973.363,593.698 973.363,557.699 977.327,557.699 977.327,585.252 981.291,585.252 981.291,613.126 985.255,613.126 985.255,641.047 989.219,641.047 989.219,668.746 993.184,668.746 993.184,695.965 997.148,695.965 997.148,660.743 1001.11,660.743 1001.11,626.388 1005.08,626.388 1005.08,593.222 1009.04,593.222 1009.04,561.537 1013,561.537 1013,531.593 1016.97,531.593 1016.97,565.323 1020.93,565.323 1020.93,599.373 1024.9,599.373 1024.9,633.349 1028.86,633.349 1028.86,666.869 1032.82,666.869 1032.82,699.57 1036.79,699.57 1036.79,731.11 1040.75,731.11 1040.75,761.179 1044.72,761.179 1044.72,789.502 1048.68,789.502 1048.68,815.845 1052.65,815.845 1052.65,840.014 1056.61,840.014 1056.61,861.864 1060.57,861.864 1060.57,881.295 1064.54,881.295 1064.54,898.257 1068.5,898.257 1068.5,912.747 1072.47,912.747 1072.47,924.805 1076.43,924.805 1076.43,934.521 1080.39,934.521 1080.39,942.02 1084.36,942.02 1084.36,947.468 1088.32,947.468 1088.32,951.063 1092.29,951.063 1092.29,953.031 1096.25,953.031 1096.25,891.906 1100.21,891.906 1100.21,831.487 1104.18,831.487 1104.18,772.578 1108.14,772.578 1108.14,715.934 1112.11,715.934 1112.11,662.244 1116.07,662.244 1116.07,673.84 1120.04,673.84 1120.04,687.72 1124,687.72 1124,703.795 1127.96,703.795 1127.96,721.934 1131.93,721.934 1131.93,741.967 1135.89,741.967 1135.89,701.974 1139.86,701.974 1139.86,665.254 1143.82,665.254 1143.82,632.074 1147.78,632.074 1147.78,602.628 1151.75,602.628 1151.75,577.032 1155.71,577.032 1155.71,617.044 1159.68,617.044 1159.68,659.099 1163.64,659.099 1163.64,702.566 1167.6,702.566 1167.6,746.803 1171.57,746.803 1171.57,791.172 1175.53,791.172 1175.53,835.044 1179.5,835.044 1179.5,877.821 1183.46,877.821 1183.46,918.937 1187.43,918.937 1187.43,957.877 1191.39,957.877 1191.39,994.179 1195.35,994.179 1195.35,1027.44 1199.32,1027.44 1199.32,1057.35 1203.28,1057.35 1203.28,1083.63 1207.25,1083.63 1207.25,1106.11 1211.21,1106.11 1211.21,1124.69 1215.17,1124.69 1215.17,1139.34 1219.14,1139.34 1219.14,1150.13 1223.1,1150.13 1223.1,1157.16 1227.07,1157.16 1227.07,1160.64 1231.03,1160.64 1231.03,1160.82 1234.99,1160.82 1234.99,1096.29 1238.96,1096.29 1238.96,1030.94 1242.92,1030.94 1242.92,965.702 1246.89,965.702 1246.89,901.46 1250.85,901.46 1250.85,839.073 1254.82,839.073 1254.82,841.053 1258.78,841.053 1258.78,844.59 1262.74,844.59 1262.74,849.798 1266.71,849.798 1266.71,856.754 1270.67,856.754 1270.67,865.495 1274.64,865.495 1274.64,876.018 1278.6,876.018 1278.6,888.286 1282.56,888.286 1282.56,902.224 1286.53,902.224 1286.53,917.726 1290.49,917.726 1290.49,934.654 1294.46,934.654 1294.46,952.846 1298.42,952.846 1298.42,972.118 1302.38,972.118 1302.38,992.265 1306.35,992.265 1306.35,1013.07 1310.31,1013.07 1310.31,1034.32 1314.28,1034.32 1314.28,994.05 1318.24,994.05 1318.24,955.58 1322.21,955.58 1322.21,919.209 1326.17,919.209 1326.17,885.195 1330.13,885.195 1330.13,853.742 1334.1,853.742 1334.1,886.722 1338.06,886.722 1338.06,920.699 1342.03,920.699 1342.03,955.195 1345.99,955.195 1345.99,989.73 1349.95,989.73 1349.95,1023.84 1353.92,1023.84 1353.92,1057.07 1357.88,1057.07 1357.88,1089.01 1361.85,1089.01 1361.85,1119.27 1365.81,1119.27 1365.81,1147.51 1369.77,1147.51 1369.77,1173.44 1373.74,1173.44 1373.74,1135.11 1377.7,1135.11 1377.7,1095.85 1381.67,1095.85 1381.67,1056.08 1385.63,1056.08 1385.63,1016.18 1389.6,1016.18 1389.6,976.55 1393.56,976.55 1393.56,999.292 1397.52,999.292 1397.52,1021.23 1401.49,1021.23 1401.49,1042.17 1405.45,1042.17 1405.45,1061.95 1409.42,1061.95 1409.42,1080.43 1413.38,1080.43 1413.38,1097.48 1417.34,1097.48 1417.34,1113.03 1421.31,1113.03 1421.31,1127.02 1425.27,1127.02 1425.27,1139.42 1429.24,1139.42 1429.24,1150.24 1433.2,1150.24 1433.2,1159.51 1437.16,1159.51 1437.16,1167.29 1441.13,1167.29 1441.13,1173.67 1445.09,1173.67 1445.09,1178.77 1449.06,1178.77 1449.06,1182.7 1453.02,1182.7 1453.02,1185.62 1456.98,1185.62 1456.98,1187.69 1460.95,1187.69 1460.95,1189.07 1464.91,1189.07 1464.91,1189.95 1468.88,1189.95 1468.88,1190.51 1472.84,1190.51 1472.84,1190.92 1476.81,1190.92 1476.81,1191.36 1480.77,1191.36 1480.77,1192 1484.73,1192 1484.73,1192.99 1488.7,1192.99 1488.7,1194.49 1492.66,1194.49 1492.66,1196.61 1496.63,1196.61 1496.63,1199.46 1500.59,1199.46 1500.59,1203.15 1504.55,1203.15 1504.55,1207.73 1508.52,1207.73 1508.52,1213.25 1512.48,1213.25 1512.48,1219.75 1516.45,1219.75 1516.45,1227.23 1520.41,1227.23 1520.41,1235.67 1524.37,1235.67 1524.37,1245.04 1528.34,1245.04 1528.34,1255.28 1532.3,1255.28 1532.3,1266.32 1536.27,1266.32 1536.27,1278.07 1540.23,1278.07 1540.23,1290.44 1544.2,1290.44 1544.2,1303.31 1548.16,1303.31 1548.16,1316.57 1552.12,1316.57 1552.12,1330.09 1556.09,1330.09 1556.09,1343.74 1560.05,1343.74 1560.05,1357.4 1564.02,1357.4 1564.02,1370.94 1567.98,1370.94 1567.98,1384.24 1571.94,1384.24 1571.94,1335.47 1575.91,1335.47 1575.91,1288.06 1579.87,1288.06 1579.87,1242.45 1583.84,1242.45 1583.84,1199.01 1587.8,1199.01 1587.8,1158.09 1591.76,1158.09 1591.76,1119.97 1595.73,1119.97 1595.73,1084.88 1599.69,1084.88 1599.69,1052.98 1603.66,1052.98 1603.66,1024.36 1607.62,1024.36 1607.62,999.067 1611.59,999.067 1611.59,977.07 1615.55,977.07 1615.55,958.284 1619.51,958.284 1619.51,942.567 1623.48,942.567 1623.48,929.724 1627.44,929.724 1627.44,919.514 1631.41,919.514 1631.41,911.656 1635.37,911.656 1635.37,905.834 1639.33,905.834 1639.33,901.706 1643.3,901.706 1643.3,898.909 1647.26,898.909 1647.26,897.072 1651.23,897.072 1651.23,957.532 1655.19,957.532 1655.19,1016.38 1659.15,1016.38 1659.15,1072.74 1663.12,1072.74 1663.12,1125.77 1667.08,1125.77 1667.08,1174.77 1671.05,1174.77 1671.05,1157.38 1675.01,1157.38 1675.01,1136.62 1678.98,1136.62 1678.98,1112.6 1682.94,1112.6 1682.94,1085.51 1686.9,1085.51 1686.9,1055.6 1690.87,1055.6 1690.87,1023.15 1694.83,1023.15 1694.83,988.514 1698.8,988.514 1698.8,952.063 1702.76,952.063 1702.76,914.203 1706.72,914.203 1706.72,875.358 1710.69,875.358 1710.69,897.679 1714.65,897.679 1714.65,918.069 1718.62,918.069 1718.62,936.431 1722.58,936.431 1722.58,952.709 1726.54,952.709 1726.54,966.888 1730.51,966.888 1730.51,978.991 1734.47,978.991 1734.47,989.079 1738.44,989.079 1738.44,997.25 1742.4,997.25 1742.4,1003.63 1746.37,1003.63 1746.37,1008.38 1750.33,1008.38 1750.33,949.97 1754.29,949.97 1754.29,892.132 1758.26,892.132 1758.26,835.616 1762.22,835.616 1762.22,781.122 1766.19,781.122 1766.19,729.296 1770.15,729.296 1770.15,680.713 1774.11,680.713 1774.11,635.875 1778.08,635.875 1778.08,595.195 1782.04,595.195 1782.04,558.998 1786.01,558.998 1786.01,527.515 1789.97,527.515 1789.97,562.595 1793.93,562.595 1793.93,600.742 1797.9,600.742 1797.9,641.375 1801.86,641.375 1801.86,683.879 1805.83,683.879 1805.83,727.617 1809.79,727.617 1809.79,710.228 1813.76,710.228 1813.76,694.606 1817.72,694.606 1817.72,680.655 1821.68,680.655 1821.68,668.252 1825.65,668.252 1825.65,657.25 1829.61,657.25 1829.61,709.198 1833.58,709.198 1833.58,760.38 1837.54,760.38 1837.54,810.077 1841.5,810.077 1841.5,857.616 1845.47,857.616 1845.47,902.386 1849.43,902.386 1849.43,943.843 1853.4,943.843 1853.4,981.524 1857.36,981.524 1857.36,1015.05 1861.32,1015.05 1861.32,1044.14 1865.29,1044.14 1865.29,1068.59 1869.25,1068.59 1869.25,1026.58 1873.22,1026.58 1873.22,981.654 1877.18,981.654 1877.18,934.411 1881.15,934.411 1881.15,885.496 1885.11,885.496 1885.11,835.568 1889.07,835.568 1889.07,847.004 1893.04,847.004 1893.04,856.926 1897,856.926 1897,865.439 1900.97,865.439 1900.97,872.671 1904.93,872.671 1904.93,878.77 1908.89,878.77 1908.89,883.898 1912.86,883.898 1912.86,888.23 1916.82,888.23 1916.82,891.948 1920.79,891.948 1920.79,895.239 1924.75,895.239 1924.75,898.291 1928.71,898.291 1928.71,901.286 1932.68,901.286 1932.68,904.403 1936.64,904.403 1936.64,907.808 1940.61,907.808 1940.61,911.657 1944.57,911.657 1944.57,916.088 1948.54,916.088 1948.54,921.221 1952.5,921.221 1952.5,927.16 1956.46,927.16 1956.46,933.982 1960.43,933.982 1960.43,941.748 1964.39,941.748 1964.39,950.493 1968.36,950.493 1968.36,960.231 1972.32,960.231 1972.32,970.952 1976.28,970.952 1976.28,982.627 1980.25,982.627 1980.25,995.207 1984.21,995.207 1984.21,1008.62 1988.18,1008.62 1988.18,1022.79 1992.14,1022.79 1992.14,1037.61 1996.1,1037.61 1996.1,1052.97 2000.07,1052.97 2000.07,1068.75 2004.03,1068.75 2004.03,1084.83 2008,1084.83 2008,1039.35 2011.96,1039.35 2011.96,995.723 2015.93,995.723 2015.93,954.34 2019.89,954.34 2019.89,915.543 2023.85,915.543 2023.85,879.62 2027.82,879.62 2027.82,846.794 2031.78,846.794 2031.78,817.228 2035.75,817.228 2035.75,791.017 2039.71,791.017 2039.71,768.194 2043.67,768.194 2043.67,748.726 2047.64,748.726 2047.64,732.52 2051.6,732.52 2051.6,719.423 2055.57,719.423 2055.57,709.233 2059.53,709.233 2059.53,701.698 2063.49,701.698 2063.49,696.524 2067.46,696.524 2067.46,693.385 2071.42,693.385 2071.42,691.927 2075.39,691.927 2075.39,691.778 2079.35,691.778 2079.35,692.553 2083.32,692.553 2083.32,693.864 2087.28,693.864 2087.28,695.33 2091.24,695.33 2091.24,696.578 2095.21,696.578 2095.21,697.255 2099.17,697.255 2099.17,697.035 2103.14,697.035 2103.14,695.619 2107.1,695.619 2107.1,692.746 2111.06,692.746 2111.06,688.195 2115.03,688.195 2115.03,681.785 2118.99,681.785 2118.99,673.384 2122.96,673.384 2122.96,662.902 2126.92,662.902 2126.92,650.299 2130.88,650.299 2130.88,635.579 2134.85,635.579 2134.85,618.793 2138.81,618.793 2138.81,600.03 2142.78,600.03 2142.78,579.422 2146.74,579.422 2146.74,618.852 2150.7,618.852 2150.7,654.981 2154.67,654.981 2154.67,687.508 2158.63,687.508 2158.63,716.207 2162.6,716.207 2162.6,740.932 2166.56,740.932 2166.56,761.615 2170.53,761.615 2170.53,778.267 2174.49,778.267 2174.49,790.976 2178.45,790.976 2178.45,799.902 2182.42,799.902 2182.42,805.269 2186.38,805.269 2186.38,807.365 2190.35,807.365 2190.35,806.529 2194.31,806.529 2194.31,803.146 2198.27,803.146 2198.27,797.636 2202.24,797.636 2202.24,790.446 2206.2,790.446 2206.2,720.323 2210.17,720.323 2210.17,651.274 2214.13,651.274 2214.13,584.294 2218.09,584.294 2218.09,520.31 2222.06,520.31 2222.06,460.168 2226.02,460.168 2226.02,404.617 2229.99,404.617 2229.99,354.294 2233.95,354.294 2233.95,309.72 2237.92,309.72 2237.92,271.289 2241.88,271.289 2241.88,239.268 2245.84,239.268 2245.84,213.791 2249.81,213.791 2249.81,194.862 2253.77,194.862 2253.77,182.361 2257.74,182.361 2257.74,176.046 2261.7,176.046 2261.7,175.566 2265.66,175.566 2265.66,242.182 2269.63,242.182 2269.63,311.817 2273.59,311.817 2273.59,383.326 2277.56,383.326 2277.56,455.557 2281.52,455.557 2281.52,527.376 2285.48,527.376 2285.48,535.97 2289.45,535.97 2289.45,543.837 2293.41,543.837 2293.41,550.543 "/>
<polyline clip-path="url(#clip292)" style="stroke:#e26f46; stroke-linecap:round; stroke-linejoin:round; stroke-width:4; stroke-opacity:1; fill:none" points="315.32,508.461 319.284,528.905 323.248,550.5 327.212,572.954 331.176,595.965 335.141,646.753 339.105,618.945 343.069,589.761 347.033,559.68 350.997,529.188 354.961,471.234 358.925,492.35 362.889,515.457 366.853,540.192 370.818,566.169 374.782,592.979 378.746,620.209 382.71,647.449 386.674,674.301 390.638,700.391 394.602,752.906 398.566,725.474 402.53,695.345 406.495,663.064 410.459,629.212 414.423,566.856 418.387,582.667 422.351,599.724 426.315,617.835 430.279,636.789 434.243,656.36 438.208,676.314 442.172,696.413 446.136,716.425 450.1,736.125 454.064,782.834 458.028,750.292 461.992,715.844 465.956,680.103 469.92,643.696 473.885,607.241 477.849,571.337 481.813,536.551 485.777,503.399 489.741,472.342 493.705,443.772 497.669,418.006 501.633,395.284 505.597,375.76 509.562,359.509 513.526,346.519 517.49,336.703 521.454,329.901 525.418,325.883 529.382,324.363 533.346,297.476 537.31,350.915 541.275,406.766 545.239,463.854 549.203,521.014 553.167,604.654 557.131,607.647 561.095,606.539 565.059,601.23 569.023,591.728 572.987,578.148 576.952,560.702 580.916,539.693 584.88,515.501 588.844,488.572 592.808,459.408 596.772,428.544 600.736,396.542 604.7,363.972 608.664,331.397 612.629,271.833 616.593,291.861 620.557,314.436 624.521,339.219 628.485,365.826 632.449,393.84 636.413,422.823 640.377,452.329 644.341,481.911 648.306,511.138 652.27,567.131 656.234,543.444 660.198,517.253 664.162,489.025 668.126,459.259 672.09,428.479 676.054,397.213 680.019,365.984 683.983,335.296 687.947,305.621 691.911,277.391 695.875,250.988 699.839,226.735 703.803,204.891 707.767,185.648 711.731,169.128 715.696,155.383 719.66,144.393 723.624,136.077 727.588,130.287 731.552,126.825 735.516,125.441 739.48,125.845 743.444,127.717 747.408,130.711 751.373,134.471 755.337,138.636 759.301,142.85 763.265,146.77 767.229,150.076 771.193,124.947 775.157,177.194 779.121,229.09 783.085,279.706 787.05,328.178 791.014,373.728 794.978,415.675 798.942,453.451 802.906,486.613 806.87,514.843 810.834,565.489 814.798,532.428 818.763,493.248 822.727,448.9 826.691,400.43 830.655,321.417 834.619,319.074 838.583,317.037 842.547,315.675 846.511,315.325 850.475,316.282 854.44,318.799 858.404,323.076 862.368,329.26 866.332,337.444 870.296,347.666 874.26,359.91 878.224,374.107 882.188,390.143 886.152,407.859 890.117,427.059 894.081,447.515 898.045,468.976 902.009,491.173 905.973,513.826 909.937,536.654 913.901,559.38 917.865,581.737 921.829,603.477 925.794,624.373 929.758,644.229 933.722,662.876 937.686,680.182 941.65,696.051 945.614,710.425 949.578,750.812 953.542,711.158 957.507,669.026 961.471,625.253 965.435,580.687 969.399,508.637 973.363,515.978 977.327,525.955 981.291,538.504 985.255,553.499 989.219,598.283 993.184,566.551 997.148,535.538 1001.11,505.684 1005.08,477.389 1009.04,423.468 1013,450.28 1016.97,480.537 1020.93,513.643 1024.9,548.951 1028.86,585.783 1032.82,623.447 1036.79,661.255 1040.75,698.539 1044.72,734.668 1048.68,769.062 1052.65,801.204 1056.61,830.649 1060.57,857.037 1064.54,880.093 1068.5,899.634 1072.47,915.57 1076.43,927.901 1080.39,936.716 1084.36,942.184 1088.32,972.08 1092.29,920.647 1096.25,865.762 1100.21,808.591 1104.18,750.316 1108.14,664.571 1112.11,658.548 1116.07,655.788 1120.04,656.494 1124,660.775 1127.96,696.177 1131.93,656.552 1135.89,619.252 1139.86,584.791 1143.82,553.595 1147.78,498.465 1151.75,525.704 1155.71,557.93 1159.68,594.418 1163.64,634.363 1167.6,676.903 1171.57,721.142 1175.53,766.175 1179.5,811.111 1183.46,855.092 1187.43,897.315 1191.39,937.048 1195.35,973.65 1199.32,1006.58 1203.28,1035.4 1207.25,1059.79 1211.21,1079.56 1215.17,1094.64 1219.14,1105.06 1223.1,1110.99 1227.07,1140.19 1231.03,1086.97 1234.99,1029.26 1238.96,968.324 1242.92,905.447 1246.89,814.393 1250.85,802.492 1254.82,793.434 1258.78,787.575 1262.74,785.18 1266.71,786.413 1270.67,791.344 1274.64,799.945 1278.6,812.098 1282.56,827.598 1286.53,846.166 1290.49,867.455 1294.46,891.062 1298.42,916.54 1302.38,943.413 1306.35,998.715 1310.31,975.877 1314.28,951.918 1318.24,927.121 1322.21,901.778 1326.17,848.661 1330.13,874.133 1334.1,900.968 1338.06,928.681 1342.03,956.78 1345.99,984.783 1349.95,1012.22 1353.92,1038.67 1357.88,1063.72 1361.85,1087.04 1365.81,1135.86 1369.77,1103.88 1373.74,1068.45 1377.7,1030.21 1381.67,989.857 1385.63,920.598 1389.6,929.233 1393.56,938.977 1397.52,949.773 1401.49,961.539 1405.45,974.171 1409.42,987.546 1413.38,1001.53 1417.34,1015.96 1421.31,1030.7 1425.27,1045.57 1429.24,1060.43 1433.2,1075.12 1437.16,1089.49 1441.13,1103.42 1445.09,1116.77 1449.06,1129.47 1453.02,1141.41 1456.98,1152.55 1460.95,1162.84 1464.91,1172.26 1468.88,1180.81 1472.84,1188.52 1476.81,1195.42 1480.77,1201.58 1484.73,1207.07 1488.7,1211.97 1492.66,1216.37 1496.63,1220.39 1500.59,1224.13 1504.55,1227.7 1508.52,1231.2 1512.48,1234.74 1516.45,1238.42 1520.41,1242.33 1524.37,1246.54 1528.34,1251.13 1532.3,1256.16 1536.27,1261.65 1540.23,1267.64 1544.2,1274.14 1548.16,1281.15 1552.12,1288.66 1556.09,1296.62 1560.05,1305.01 1564.02,1341.3 1567.98,1299.37 1571.94,1256.66 1575.91,1213.86 1579.87,1171.63 1583.84,1130.6 1587.8,1091.34 1591.76,1054.37 1595.73,1020.12 1599.69,988.962 1603.66,961.157 1607.62,936.887 1611.59,916.239 1615.55,899.21 1619.51,885.711 1623.48,875.57 1627.44,868.54 1631.41,864.311 1635.37,862.515 1639.33,862.743 1643.3,837.021 1647.26,890.955 1651.23,946.564 1655.19,1002.62 1659.15,1057.95 1663.12,1138.94 1667.08,1138.49 1671.05,1133.19 1675.01,1122.97 1678.98,1107.94 1682.94,1088.28 1686.9,1064.3 1690.87,1036.41 1694.83,1005.09 1698.8,970.907 1702.76,906.937 1706.72,919.895 1710.69,932.93 1714.65,945.952 1718.62,958.87 1722.58,971.598 1726.54,984.06 1730.51,996.183 1734.47,1007.91 1738.44,1019.18 1742.4,1057.5 1746.37,1016.76 1750.33,974.472 1754.29,931.377 1758.26,888.225 1762.22,845.739 1766.19,804.6 1770.15,765.43 1774.11,728.784 1778.08,695.132 1782.04,637.329 1786.01,661.729 1789.97,691.008 1793.93,724.497 1797.9,761.448 1801.86,828.582 1805.83,818.987 1809.79,809.315 1813.76,799.469 1817.72,789.364 1821.68,751.396 1825.65,791.571 1829.61,832.332 1833.58,872.891 1837.54,912.494 1841.5,950.437 1845.47,986.085 1849.43,1018.88 1853.4,1048.35 1857.36,1074.13 1861.32,1123.48 1865.29,1090.19 1869.25,1051.69 1873.22,1008.81 1877.18,962.424 1881.15,885.95 1885.11,886.428 1889.07,887.322 1893.04,888.834 1897,891.142 1900.97,894.396 1904.93,898.714 1908.89,904.183 1912.86,910.856 1916.82,918.754 1920.79,927.865 1924.75,938.144 1928.71,949.52 1932.68,961.895 1936.64,975.148 1940.61,989.14 1944.57,1003.72 1948.54,1018.72 1952.5,1033.97 1956.46,1049.3 1960.43,1064.55 1964.39,1079.55 1968.36,1094.16 1972.32,1108.24 1976.28,1121.67 1980.25,1134.34 1984.21,1146.19 1988.18,1157.16 1992.14,1167.21 1996.1,1176.34 2000.07,1212.07 2004.03,1168.38 2008,1122.84 2011.96,1076.25 2015.93,1029.45 2019.89,983.234 2023.85,938.353 2027.82,895.505 2031.78,855.312 2035.75,818.308 2039.71,784.932 2043.67,755.516 2047.64,730.286 2051.6,709.358 2055.57,692.737 2059.53,680.327 2063.49,671.93 2067.46,667.261 2071.42,665.954 2075.39,667.576 2079.35,671.642 2083.32,677.623 2087.28,684.968 2091.24,693.115 2095.21,701.503 2099.17,709.59 2103.14,716.865 2107.1,722.857 2111.06,727.147 2115.03,729.376 2118.99,729.251 2122.96,726.552 2126.92,721.132 2130.88,712.917 2134.85,701.912 2138.81,660.657 2142.78,695.362 2146.74,728.715 2150.7,760.214 2154.67,789.42 2158.63,815.967 2162.6,839.564 2166.56,860.007 2170.53,877.171 2174.49,891.019 2178.45,901.594 2182.42,909.017 2186.38,913.482 2190.35,915.246 2194.31,914.621 2198.27,939.497 2202.24,884.196 2206.2,826.651 2210.17,768.044 2214.13,709.546 2218.09,652.281 2222.06,597.301 2226.02,545.566 2229.99,497.919 2233.95,455.073 2237.92,417.598 2241.88,385.911 2245.84,360.27 2249.81,340.777 2253.77,327.381 2257.74,292.352 2261.7,341.424 2265.66,396.626 2269.63,456.637 2273.59,520.065 2277.56,613.014 2281.52,627.992 2285.48,641.127 2289.45,651.859 2293.41,659.712 "/>
<polyline clip-path="url(#clip292)" style="stroke:#3da44d; stroke-linecap:round; stroke-linejoin:round; stroke-width:4; stroke-opacity:1; fill:none" points="315.32,511.238 319.284,530.939 323.248,551.961 327.212,574 331.176,596.738 335.141,652.801 339.105,625.656 343.069,597.027 347.033,567.402 350.997,537.275 354.961,474.188 358.925,494.823 362.889,517.588 366.853,542.107 370.818,567.972 374.782,594.759 378.746,622.032 382.71,649.359 386.674,676.322 390.638,702.526 394.602,760.556 398.566,733.879 402.53,704.259 406.495,672.253 410.459,638.46 414.423,570.553 418.387,585.37 422.351,601.493 426.315,618.733 430.279,636.881 434.243,655.71 438.208,674.985 442.172,694.466 446.136,713.916 450.1,733.105 454.064,784.767 458.028,752.494 461.992,718.152 465.956,682.376 469.92,645.815 473.885,609.114 477.849,572.9 481.813,537.765 485.777,504.255 489.741,472.855 493.705,443.983 497.669,417.98 501.633,395.104 505.597,375.528 509.562,359.339 513.526,346.539 517.49,337.045 521.454,330.701 525.418,327.277 529.382,326.483 533.346,295.028 537.31,348.735 541.275,405.15 545.239,463.053 549.203,521.233 553.167,611.464 557.131,616.426 561.095,617.139 565.059,613.48 569.023,605.439 572.987,593.118 576.952,576.721 580.916,556.549 584.88,532.985 588.844,506.483 592.808,477.557 596.772,446.76 600.736,414.673 604.7,381.89 608.664,348.999 612.629,283.622 616.593,302.509 620.557,324.117 624.521,348.102 628.485,374.074 632.449,401.607 636.413,430.251 640.377,459.541 644.341,489.014 648.306,518.217 652.27,579.671 656.234,556.766 660.198,531.184 664.162,503.398 668.126,473.922 672.09,443.29 676.054,412.05 680.019,380.743 683.983,349.895 687.947,320.002 691.911,291.517 695.875,264.845 699.839,240.332 703.803,218.257 707.767,198.834 711.731,182.199 715.696,168.421 719.66,157.493 723.624,149.341 727.588,143.827 731.552,140.753 735.516,139.87 739.48,140.888 743.444,143.478 747.408,147.289 751.373,151.954 755.337,157.1 759.301,162.357 763.265,167.368 767.229,171.799 771.193,142.391 775.157,195.083 779.121,247.603 783.085,298.98 787.05,348.304 791.014,394.752 794.978,437.597 798.942,476.23 802.906,510.166 806.87,539.052 810.834,595.623 814.798,563.588 818.763,525.041 822.727,480.949 826.691,432.377 830.655,347.517 834.619,343.759 838.583,340.255 842.547,337.391 846.511,335.521 850.475,334.962 854.44,335.981 858.404,338.795 862.368,343.567 866.332,350.404 870.296,359.354 874.26,370.411 878.224,383.513 882.188,398.551 886.152,415.367 890.117,433.765 894.081,453.515 898.045,474.36 902.009,496.025 905.973,518.223 909.937,540.661 913.901,563.051 917.865,585.117 921.829,606.595 925.794,627.249 929.758,646.867 933.722,665.27 937.686,682.316 941.65,697.896 945.614,711.945 949.578,757.382 953.542,718.007 957.507,675.905 961.471,631.939 965.435,586.99 969.399,508.978 973.363,514.958 977.327,523.685 981.291,535.104 985.255,549.094 989.219,598.423 993.184,566.644 997.148,535.515 1001.11,505.5 1005.08,477.023 1009.04,417.502 1013,443.456 1016.97,473.093 1020.93,505.803 1024.9,540.925 1028.86,577.76 1032.82,615.592 1036.79,653.704 1040.75,691.401 1044.72,728.019 1048.68,762.947 1052.65,795.636 1056.61,825.612 1060.57,852.484 1064.54,875.953 1068.5,895.811 1072.47,911.947 1076.43,924.347 1080.39,933.085 1084.36,938.323 1088.32,973.251 1092.29,921.971 1096.25,866.893 1100.21,809.22 1104.18,750.175 1108.14,658.023 1112.11,650.147 1116.07,645.614 1120.04,644.651 1124,647.39 1127.96,686.813 1131.93,646.647 1135.89,608.779 1139.86,573.756 1143.82,542.039 1147.78,481.04 1151.75,507.227 1155.71,538.716 1159.68,574.772 1163.64,614.572 1167.6,657.232 1171.57,701.828 1175.53,747.421 1179.5,793.082 1183.46,837.914 1187.43,881.073 1191.39,921.786 1195.35,959.37 1199.32,993.242 1203.28,1022.93 1207.25,1048.09 1211.21,1068.49 1215.17,1084.03 1219.14,1094.74 1223.1,1100.74 1227.07,1135.25 1231.03,1082.4 1234.99,1024.66 1238.96,963.325 1242.92,899.732 1246.89,802.271 1250.85,788.469 1254.82,777.545 1258.78,769.885 1262.74,765.782 1266.71,765.424 1270.67,768.901 1274.64,776.202 1278.6,787.22 1282.56,801.76 1286.53,819.545 1290.49,840.226 1294.46,863.394 1298.42,888.595 1302.38,915.338 1306.35,976.062 1310.31,954.037 1314.28,930.79 1318.24,906.611 1322.21,881.804 1326.17,823.727 1330.13,848.899 1334.1,875.58 1338.06,903.267 1342.03,931.45 1345.99,959.627 1349.95,987.312 1353.92,1014.05 1357.88,1039.42 1361.85,1063.05 1365.81,1117.59 1369.77,1086.57 1373.74,1051.84 1377.7,1014.06 1381.67,973.962 1385.63,899.335 1389.6,907.156 1393.56,916.139 1397.52,926.231 1401.49,937.352 1405.45,949.398 1409.42,962.244 1413.38,975.751 1417.34,989.764 1421.31,1004.12 1425.27,1018.66 1429.24,1033.22 1433.2,1047.63 1437.16,1061.75 1441.13,1075.43 1445.09,1088.56 1449.06,1101.01 1453.02,1112.71 1456.98,1123.59 1460.95,1133.59 1464.91,1142.71 1468.88,1150.93 1472.84,1158.27 1476.81,1164.77 1480.77,1170.5 1484.73,1175.52 1488.7,1179.92 1492.66,1183.79 1496.63,1187.25 1500.59,1190.39 1504.55,1193.35 1508.52,1196.22 1512.48,1199.12 1516.45,1202.15 1520.41,1205.41 1524.37,1208.98 1528.34,1212.92 1532.3,1217.32 1536.27,1222.19 1540.23,1227.59 1544.2,1233.51 1548.16,1239.97 1552.12,1246.95 1556.09,1254.42 1560.05,1262.34 1564.02,1303.62 1567.98,1261.97 1571.94,1219.38 1575.91,1176.56 1579.87,1134.2 1583.84,1092.96 1587.8,1053.44 1591.76,1016.2 1595.73,981.699 1599.69,950.326 1603.66,922.379 1607.62,898.061 1611.59,877.48 1615.55,860.649 1619.51,847.491 1623.48,837.842 1627.44,831.462 1631.41,828.038 1635.37,827.2 1639.33,828.529 1643.3,798.622 1647.26,853.212 1651.23,909.772 1655.19,967.031 1659.15,1023.75 1663.12,1111.7 1667.08,1113.56 1671.05,1110.41 1675.01,1102.16 1678.98,1088.87 1682.94,1070.74 1686.9,1048.05 1690.87,1021.21 1694.83,990.722 1698.8,957.143 1702.76,888.148 1706.72,900.613 1710.69,913.181 1714.65,925.758 1718.62,938.249 1722.58,950.566 1726.54,962.626 1730.51,974.353 1734.47,985.683 1738.44,996.562 1742.4,1039.9 1746.37,999.447 1750.33,957.236 1754.29,914.044 1758.26,870.647 1762.22,827.801 1766.19,786.218 1770.15,746.558 1774.11,709.409 1778.08,675.275 1782.04,611.622 1786.01,634.974 1789.97,663.503 1793.93,696.536 1797.9,733.307 1801.86,805.94 1805.83,797.353 1809.79,788.696 1813.76,779.868 1817.72,770.778 1821.68,728.397 1825.65,768.868 1829.61,810.101 1833.58,851.275 1837.54,891.601 1841.5,930.338 1845.47,966.814 1849.43,1000.43 1853.4,1030.69 1857.36,1057.2 1861.32,1112.59 1865.29,1080.49 1869.25,1042.85 1873.22,1000.5 1877.18,954.342 1881.15,872.391 1885.11,871.865 1889.07,871.736 1893.04,872.218 1897,873.501 1900.97,875.744 1904.93,879.077 1908.89,883.597 1912.86,889.363 1916.82,896.404 1920.79,904.713 1924.75,914.249 1928.71,924.944 1932.68,936.7 1936.64,949.396 1940.61,962.891 1944.57,977.028 1948.54,991.639 1952.5,1006.55 1956.46,1021.58 1960.43,1036.56 1964.39,1051.32 1968.36,1065.7 1972.32,1079.56 1976.28,1092.78 1980.25,1105.24 1984.21,1116.86 1988.18,1127.58 1992.14,1137.35 1996.1,1146.17 2000.07,1186.99 2004.03,1143.64 2008,1098.19 2011.96,1051.5 2015.93,1004.43 2019.89,957.806 2023.85,912.424 2027.82,869.017 2031.78,828.244 2035.75,790.676 2039.71,756.785 2043.67,726.939 2047.64,701.39 2051.6,680.279 2055.57,663.633 2059.53,651.369 2063.49,643.301 2067.46,639.149 2071.42,638.548 2075.39,641.06 2079.35,646.19 2083.32,653.399 2087.28,662.118 2091.24,671.763 2095.21,681.754 2099.17,691.524 2103.14,700.536 2107.1,708.294 2111.06,714.352 2115.03,718.326 2118.99,719.902 2122.96,718.837 2126.92,714.963 2130.88,708.193 2134.85,698.515 2138.81,653.041 2142.78,688.116 2146.74,721.895 2150.7,753.847 2154.67,783.505 2158.63,810.476 2162.6,834.443 2166.56,855.177 2170.53,872.536 2174.49,886.464 2178.45,896.991 2182.42,904.229 2186.38,908.364 2190.35,909.654 2194.31,908.411 2198.27,937.951 2202.24,882.465 2206.2,824.422 2210.17,765.051 2214.13,705.57 2218.09,647.155 2222.06,590.912 2226.02,537.854 2229.99,488.881 2233.95,444.755 2237.92,406.096 2241.88,373.363 2245.84,346.856 2249.81,326.709 2253.77,312.896 2257.74,272.288 2261.7,320.771 2265.66,375.851 2269.63,436.177 2273.59,500.315 2277.56,599.74 2281.52,616.763 2285.48,631.98 2289.45,644.795 2293.41,654.7 "/>
<path clip-path="url(#clip290)" d="M325.87 1377.32 L1334.52 1377.32 L1334.52 1169.96 L325.87 1169.96  Z" fill="#ffffff" fill-rule="evenodd" fill-opacity="1"/>
<polyline clip-path="url(#clip290)" style="stroke:#000000; stroke-linecap:round; stroke-linejoin:round; stroke-width:4; stroke-opacity:1; fill:none" points="325.87,1377.32 1334.52,1377.32 1334.52,1169.96 325.87,1169.96 325.87,1377.32 "/>
<polyline clip-path="url(#clip290)" style="stroke:#009af9; stroke-linecap:round; stroke-linejoin:round; stroke-width:4; stroke-opacity:1; fill:none" points="349.167,1221.8 488.953,1221.8 "/>
<path clip-path="url(#clip290)" d="M516.926 1208.36 L516.926 1235.23 L522.574 1235.23 Q529.727 1235.23 533.037 1231.99 Q536.37 1228.75 536.37 1221.76 Q536.37 1214.82 533.037 1211.6 Q529.727 1208.36 522.574 1208.36 L516.926 1208.36 M512.25 1204.52 L521.857 1204.52 Q531.903 1204.52 536.602 1208.71 Q541.301 1212.87 541.301 1221.76 Q541.301 1230.7 536.579 1234.89 Q531.857 1239.08 521.857 1239.08 L512.25 1239.08 L512.25 1204.52 Z" fill="#000000" fill-rule="nonzero" fill-opacity="1" /><path clip-path="url(#clip290)" d="M560.352 1226.04 Q555.19 1226.04 553.199 1227.22 Q551.208 1228.4 551.208 1231.25 Q551.208 1233.52 552.69 1234.86 Q554.194 1236.18 556.764 1236.18 Q560.305 1236.18 562.435 1233.68 Q564.588 1231.16 564.588 1226.99 L564.588 1226.04 L560.352 1226.04 M568.847 1224.28 L568.847 1239.08 L564.588 1239.08 L564.588 1235.14 Q563.129 1237.5 560.954 1238.64 Q558.778 1239.75 555.63 1239.75 Q551.648 1239.75 549.287 1237.52 Q546.949 1235.28 546.949 1231.53 Q546.949 1227.15 549.866 1224.93 Q552.805 1222.71 558.616 1222.71 L564.588 1222.71 L564.588 1222.29 Q564.588 1219.35 562.643 1217.76 Q560.722 1216.14 557.227 1216.14 Q555.005 1216.14 552.898 1216.67 Q550.792 1217.2 548.847 1218.27 L548.847 1214.33 Q551.185 1213.43 553.384 1212.99 Q555.583 1212.52 557.667 1212.52 Q563.292 1212.52 566.069 1215.44 Q568.847 1218.36 568.847 1224.28 Z" fill="#000000" fill-rule="nonzero" fill-opacity="1" /><path clip-path="url(#clip290)" d="M581.833 1205.79 L581.833 1213.15 L590.606 1213.15 L590.606 1216.46 L581.833 1216.46 L581.833 1230.53 Q581.833 1233.7 582.69 1234.61 Q583.569 1235.51 586.231 1235.51 L590.606 1235.51 L590.606 1239.08 L586.231 1239.08 Q581.301 1239.08 579.426 1237.25 Q577.551 1235.39 577.551 1230.53 L577.551 1216.46 L574.426 1216.46 L574.426 1213.15 L577.551 1213.15 L577.551 1205.79 L581.833 1205.79 Z" fill="#000000" fill-rule="nonzero" fill-opacity="1" /><path clip-path="url(#clip290)" d="M607.99 1226.04 Q602.828 1226.04 600.838 1227.22 Q598.847 1228.4 598.847 1231.25 Q598.847 1233.52 600.328 1234.86 Q601.833 1236.18 604.402 1236.18 Q607.944 1236.18 610.074 1233.68 Q612.226 1231.16 612.226 1226.99 L612.226 1226.04 L607.99 1226.04 M616.486 1224.28 L616.486 1239.08 L612.226 1239.08 L612.226 1235.14 Q610.768 1237.5 608.592 1238.64 Q606.416 1239.75 603.268 1239.75 Q599.287 1239.75 596.926 1237.52 Q594.588 1235.28 594.588 1231.53 Q594.588 1227.15 597.504 1224.93 Q600.444 1222.71 606.254 1222.71 L612.226 1222.71 L612.226 1222.29 Q612.226 1219.35 610.282 1217.76 Q608.361 1216.14 604.865 1216.14 Q602.643 1216.14 600.537 1216.67 Q598.43 1217.2 596.486 1218.27 L596.486 1214.33 Q598.824 1213.43 601.023 1212.99 Q603.222 1212.52 605.305 1212.52 Q610.93 1212.52 613.708 1215.44 Q616.486 1218.36 616.486 1224.28 Z" fill="#000000" fill-rule="nonzero" fill-opacity="1" /><polyline clip-path="url(#clip290)" style="stroke:#e26f46; stroke-linecap:round; stroke-linejoin:round; stroke-width:4; stroke-opacity:1; fill:none" points="349.167,1273.64 488.953,1273.64 "/>
<path clip-path="url(#clip290)" d="M534.495 1257.49 L534.495 1262.05 Q531.833 1260.78 529.472 1260.15 Q527.111 1259.53 524.912 1259.53 Q521.093 1259.53 519.009 1261.01 Q516.949 1262.49 516.949 1265.22 Q516.949 1267.51 518.315 1268.69 Q519.704 1269.85 523.546 1270.57 L526.37 1271.15 Q531.602 1272.14 534.079 1274.67 Q536.579 1277.17 536.579 1281.38 Q536.579 1286.4 533.199 1288.99 Q529.843 1291.59 523.338 1291.59 Q520.884 1291.59 518.107 1291.03 Q515.352 1290.48 512.389 1289.39 L512.389 1284.57 Q515.236 1286.17 517.968 1286.98 Q520.699 1287.79 523.338 1287.79 Q527.343 1287.79 529.519 1286.22 Q531.694 1284.64 531.694 1281.73 Q531.694 1279.18 530.12 1277.74 Q528.569 1276.31 525.005 1275.59 L522.157 1275.04 Q516.926 1273.99 514.588 1271.77 Q512.25 1269.55 512.25 1265.59 Q512.25 1261.01 515.468 1258.37 Q518.708 1255.73 524.38 1255.73 Q526.81 1255.73 529.333 1256.17 Q531.857 1256.61 534.495 1257.49 Z" fill="#000000" fill-rule="nonzero" fill-opacity="1" /><path clip-path="url(#clip290)" d="M543.685 1264.99 L547.944 1264.99 L547.944 1290.92 L543.685 1290.92 L543.685 1264.99 M543.685 1254.9 L547.944 1254.9 L547.944 1260.29 L543.685 1260.29 L543.685 1254.9 Z" fill="#000000" fill-rule="nonzero" fill-opacity="1" /><path clip-path="url(#clip290)" d="M577.041 1269.97 Q578.639 1267.1 580.861 1265.73 Q583.083 1264.36 586.092 1264.36 Q590.143 1264.36 592.342 1267.21 Q594.541 1270.04 594.541 1275.27 L594.541 1290.92 L590.259 1290.92 L590.259 1275.41 Q590.259 1271.68 588.94 1269.87 Q587.62 1268.07 584.912 1268.07 Q581.602 1268.07 579.68 1270.27 Q577.759 1272.47 577.759 1276.26 L577.759 1290.92 L573.477 1290.92 L573.477 1275.41 Q573.477 1271.66 572.157 1269.87 Q570.838 1268.07 568.083 1268.07 Q564.819 1268.07 562.898 1270.29 Q560.977 1272.49 560.977 1276.26 L560.977 1290.92 L556.694 1290.92 L556.694 1264.99 L560.977 1264.99 L560.977 1269.02 Q562.435 1266.63 564.472 1265.5 Q566.509 1264.36 569.31 1264.36 Q572.134 1264.36 574.102 1265.8 Q576.092 1267.23 577.041 1269.97 Z" fill="#000000" fill-rule="nonzero" fill-opacity="1" /><path clip-path="url(#clip290)" d="M602.597 1280.68 L602.597 1264.99 L606.856 1264.99 L606.856 1280.52 Q606.856 1284.2 608.291 1286.05 Q609.726 1287.88 612.597 1287.88 Q616.046 1287.88 618.037 1285.68 Q620.05 1283.48 620.05 1279.69 L620.05 1264.99 L624.31 1264.99 L624.31 1290.92 L620.05 1290.92 L620.05 1286.93 Q618.5 1289.29 616.439 1290.45 Q614.402 1291.59 611.694 1291.59 Q607.226 1291.59 604.912 1288.81 Q602.597 1286.03 602.597 1280.68 M613.314 1264.36 L613.314 1264.36 Z" fill="#000000" fill-rule="nonzero" fill-opacity="1" /><path clip-path="url(#clip290)" d="M633.083 1254.9 L637.342 1254.9 L637.342 1290.92 L633.083 1290.92 L633.083 1254.9 Z" fill="#000000" fill-rule="nonzero" fill-opacity="1" /><path clip-path="url(#clip290)" d="M658.036 1277.88 Q652.874 1277.88 650.884 1279.06 Q648.893 1280.24 648.893 1283.09 Q648.893 1285.36 650.374 1286.7 Q651.879 1288.02 654.448 1288.02 Q657.99 1288.02 660.12 1285.52 Q662.272 1283 662.272 1278.83 L662.272 1277.88 L658.036 1277.88 M666.532 1276.12 L666.532 1290.92 L662.272 1290.92 L662.272 1286.98 Q660.814 1289.34 658.638 1290.48 Q656.462 1291.59 653.314 1291.59 Q649.333 1291.59 646.972 1289.36 Q644.634 1287.12 644.634 1283.37 Q644.634 1278.99 647.55 1276.77 Q650.49 1274.55 656.3 1274.55 L662.272 1274.55 L662.272 1274.13 Q662.272 1271.19 660.328 1269.6 Q658.407 1267.98 654.911 1267.98 Q652.689 1267.98 650.583 1268.51 Q648.476 1269.04 646.532 1270.11 L646.532 1266.17 Q648.87 1265.27 651.069 1264.83 Q653.268 1264.36 655.351 1264.36 Q660.976 1264.36 663.754 1267.28 Q666.532 1270.2 666.532 1276.12 Z" fill="#000000" fill-rule="nonzero" fill-opacity="1" /><path clip-path="url(#clip290)" d="M679.518 1257.63 L679.518 1264.99 L688.291 1264.99 L688.291 1268.3 L679.518 1268.3 L679.518 1282.37 Q679.518 1285.54 680.374 1286.45 Q681.254 1287.35 683.916 1287.35 L688.291 1287.35 L688.291 1290.92 L683.916 1290.92 Q678.985 1290.92 677.11 1289.09 Q675.235 1287.23 675.235 1282.37 L675.235 1268.3 L672.11 1268.3 L672.11 1264.99 L675.235 1264.99 L675.235 1257.63 L679.518 1257.63 Z" fill="#000000" fill-rule="nonzero" fill-opacity="1" /><path clip-path="url(#clip290)" d="M693.893 1264.99 L698.152 1264.99 L698.152 1290.92 L693.893 1290.92 L693.893 1264.99 M693.893 1254.9 L698.152 1254.9 L698.152 1260.29 L693.893 1260.29 L693.893 1254.9 Z" fill="#000000" fill-rule="nonzero" fill-opacity="1" /><path clip-path="url(#clip290)" d="M717.11 1267.98 Q713.684 1267.98 711.694 1270.66 Q709.703 1273.32 709.703 1277.98 Q709.703 1282.63 711.67 1285.31 Q713.661 1287.98 717.11 1287.98 Q720.513 1287.98 722.504 1285.29 Q724.494 1282.61 724.494 1277.98 Q724.494 1273.37 722.504 1270.68 Q720.513 1267.98 717.11 1267.98 M717.11 1264.36 Q722.666 1264.36 725.837 1267.98 Q729.008 1271.59 729.008 1277.98 Q729.008 1284.34 725.837 1287.98 Q722.666 1291.59 717.11 1291.59 Q711.531 1291.59 708.36 1287.98 Q705.212 1284.34 705.212 1277.98 Q705.212 1271.59 708.36 1267.98 Q711.531 1264.36 717.11 1264.36 Z" fill="#000000" fill-rule="nonzero" fill-opacity="1" /><path clip-path="url(#clip290)" d="M757.619 1275.27 L757.619 1290.92 L753.36 1290.92 L753.36 1275.41 Q753.36 1271.73 751.925 1269.9 Q750.49 1268.07 747.619 1268.07 Q744.17 1268.07 742.179 1270.27 Q740.189 1272.47 740.189 1276.26 L740.189 1290.92 L735.906 1290.92 L735.906 1264.99 L740.189 1264.99 L740.189 1269.02 Q741.717 1266.68 743.777 1265.52 Q745.86 1264.36 748.568 1264.36 Q753.036 1264.36 755.328 1267.14 Q757.619 1269.9 757.619 1275.27 Z" fill="#000000" fill-rule="nonzero" fill-opacity="1" /><path clip-path="url(#clip290)" d="M801.369 1269.97 Q802.966 1267.1 805.188 1265.73 Q807.411 1264.36 810.42 1264.36 Q814.471 1264.36 816.67 1267.21 Q818.869 1270.04 818.869 1275.27 L818.869 1290.92 L814.586 1290.92 L814.586 1275.41 Q814.586 1271.68 813.267 1269.87 Q811.948 1268.07 809.239 1268.07 Q805.929 1268.07 804.008 1270.27 Q802.087 1272.47 802.087 1276.26 L802.087 1290.92 L797.804 1290.92 L797.804 1275.41 Q797.804 1271.66 796.485 1269.87 Q795.165 1268.07 792.411 1268.07 Q789.147 1268.07 787.226 1270.29 Q785.304 1272.49 785.304 1276.26 L785.304 1290.92 L781.022 1290.92 L781.022 1264.99 L785.304 1264.99 L785.304 1269.02 Q786.763 1266.63 788.8 1265.5 Q790.837 1264.36 793.638 1264.36 Q796.462 1264.36 798.429 1265.8 Q800.42 1267.23 801.369 1269.97 Z" fill="#000000" fill-rule="nonzero" fill-opacity="1" /><path clip-path="url(#clip290)" d="M837.41 1267.98 Q833.985 1267.98 831.994 1270.66 Q830.003 1273.32 830.003 1277.98 Q830.003 1282.63 831.971 1285.31 Q833.961 1287.98 837.41 1287.98 Q840.813 1287.98 842.804 1285.29 Q844.795 1282.61 844.795 1277.98 Q844.795 1273.37 842.804 1270.68 Q840.813 1267.98 837.41 1267.98 M837.41 1264.36 Q842.966 1264.36 846.137 1267.98 Q849.309 1271.59 849.309 1277.98 Q849.309 1284.34 846.137 1287.98 Q842.966 1291.59 837.41 1291.59 Q831.832 1291.59 828.66 1287.98 Q825.512 1284.34 825.512 1277.98 Q825.512 1271.59 828.66 1267.98 Q831.832 1264.36 837.41 1264.36 Z" fill="#000000" fill-rule="nonzero" fill-opacity="1" /><path clip-path="url(#clip290)" d="M873.429 1268.92 L873.429 1254.9 L877.688 1254.9 L877.688 1290.92 L873.429 1290.92 L873.429 1287.03 Q872.086 1289.34 870.026 1290.48 Q867.989 1291.59 865.119 1291.59 Q860.42 1291.59 857.457 1287.84 Q854.517 1284.09 854.517 1277.98 Q854.517 1271.86 857.457 1268.11 Q860.42 1264.36 865.119 1264.36 Q867.989 1264.36 870.026 1265.5 Q872.086 1266.61 873.429 1268.92 M858.915 1277.98 Q858.915 1282.67 860.836 1285.36 Q862.781 1288.02 866.16 1288.02 Q869.54 1288.02 871.484 1285.36 Q873.429 1282.67 873.429 1277.98 Q873.429 1273.28 871.484 1270.61 Q869.54 1267.93 866.16 1267.93 Q862.781 1267.93 860.836 1270.61 Q858.915 1273.28 858.915 1277.98 Z" fill="#000000" fill-rule="nonzero" fill-opacity="1" /><path clip-path="url(#clip290)" d="M908.637 1276.89 L908.637 1278.97 L889.054 1278.97 Q889.331 1283.37 891.693 1285.68 Q894.077 1287.98 898.313 1287.98 Q900.767 1287.98 903.058 1287.37 Q905.373 1286.77 907.642 1285.57 L907.642 1289.6 Q905.35 1290.57 902.942 1291.08 Q900.535 1291.59 898.058 1291.59 Q891.855 1291.59 888.22 1287.98 Q884.609 1284.36 884.609 1278.21 Q884.609 1271.84 888.035 1268.11 Q891.484 1264.36 897.318 1264.36 Q902.549 1264.36 905.581 1267.74 Q908.637 1271.1 908.637 1276.89 M904.378 1275.64 Q904.331 1272.14 902.41 1270.06 Q900.512 1267.98 897.364 1267.98 Q893.799 1267.98 891.646 1269.99 Q889.517 1272 889.193 1275.66 L904.378 1275.64 Z" fill="#000000" fill-rule="nonzero" fill-opacity="1" /><path clip-path="url(#clip290)" d="M915.628 1254.9 L919.887 1254.9 L919.887 1290.92 L915.628 1290.92 L915.628 1254.9 Z" fill="#000000" fill-rule="nonzero" fill-opacity="1" /><path clip-path="url(#clip290)" d="M960.396 1265.75 L960.396 1269.78 Q958.59 1268.86 956.646 1268.39 Q954.701 1267.93 952.618 1267.93 Q949.447 1267.93 947.85 1268.9 Q946.276 1269.87 946.276 1271.82 Q946.276 1273.3 947.41 1274.16 Q948.544 1274.99 951.97 1275.75 L953.428 1276.08 Q957.965 1277.05 959.863 1278.83 Q961.785 1280.59 961.785 1283.76 Q961.785 1287.37 958.914 1289.48 Q956.067 1291.59 951.067 1291.59 Q948.984 1291.59 946.715 1291.17 Q944.47 1290.78 941.97 1289.97 L941.97 1285.57 Q944.331 1286.79 946.623 1287.42 Q948.914 1288.02 951.16 1288.02 Q954.169 1288.02 955.789 1287 Q957.41 1285.96 957.41 1284.09 Q957.41 1282.35 956.229 1281.42 Q955.072 1280.5 951.114 1279.64 L949.632 1279.3 Q945.674 1278.46 943.914 1276.75 Q942.155 1275.01 942.155 1272 Q942.155 1268.35 944.748 1266.36 Q947.34 1264.36 952.109 1264.36 Q954.47 1264.36 956.553 1264.71 Q958.637 1265.06 960.396 1265.75 Z" fill="#000000" fill-rule="nonzero" fill-opacity="1" /><path clip-path="url(#clip290)" d="M968.567 1264.99 L972.826 1264.99 L972.826 1290.92 L968.567 1290.92 L968.567 1264.99 M968.567 1254.9 L972.826 1254.9 L972.826 1260.29 L968.567 1260.29 L968.567 1254.9 Z" fill="#000000" fill-rule="nonzero" fill-opacity="1" /><path clip-path="url(#clip290)" d="M1001.92 1269.97 Q1003.52 1267.1 1005.74 1265.73 Q1007.97 1264.36 1010.97 1264.36 Q1015.03 1264.36 1017.22 1267.21 Q1019.42 1270.04 1019.42 1275.27 L1019.42 1290.92 L1015.14 1290.92 L1015.14 1275.41 Q1015.14 1271.68 1013.82 1269.87 Q1012.5 1268.07 1009.79 1268.07 Q1006.48 1268.07 1004.56 1270.27 Q1002.64 1272.47 1002.64 1276.26 L1002.64 1290.92 L998.359 1290.92 L998.359 1275.41 Q998.359 1271.66 997.039 1269.87 Q995.72 1268.07 992.965 1268.07 Q989.701 1268.07 987.78 1270.29 Q985.859 1272.49 985.859 1276.26 L985.859 1290.92 L981.576 1290.92 L981.576 1264.99 L985.859 1264.99 L985.859 1269.02 Q987.317 1266.63 989.354 1265.5 Q991.391 1264.36 994.192 1264.36 Q997.016 1264.36 998.984 1265.8 Q1000.97 1267.23 1001.92 1269.97 Z" fill="#000000" fill-rule="nonzero" fill-opacity="1" /><path clip-path="url(#clip290)" d="M1056.11 1254.9 L1056.11 1258.44 L1052.04 1258.44 Q1049.75 1258.44 1048.84 1259.36 Q1047.96 1260.29 1047.96 1262.7 L1047.96 1264.99 L1054.98 1264.99 L1054.98 1268.3 L1047.96 1268.3 L1047.96 1290.92 L1043.68 1290.92 L1043.68 1268.3 L1039.61 1268.3 L1039.61 1264.99 L1043.68 1264.99 L1043.68 1263.18 Q1043.68 1258.86 1045.7 1256.89 Q1047.71 1254.9 1052.09 1254.9 L1056.11 1254.9 Z" fill="#000000" fill-rule="nonzero" fill-opacity="1" /><path clip-path="url(#clip290)" d="M1059.68 1264.99 L1063.94 1264.99 L1063.94 1290.92 L1059.68 1290.92 L1059.68 1264.99 M1059.68 1254.9 L1063.94 1254.9 L1063.94 1260.29 L1059.68 1260.29 L1059.68 1254.9 Z" fill="#000000" fill-rule="nonzero" fill-opacity="1" /><path clip-path="url(#clip290)" d="M1077.06 1257.63 L1077.06 1264.99 L1085.84 1264.99 L1085.84 1268.3 L1077.06 1268.3 L1077.06 1282.37 Q1077.06 1285.54 1077.92 1286.45 Q1078.8 1287.35 1081.46 1287.35 L1085.84 1287.35 L1085.84 1290.92 L1081.46 1290.92 Q1076.53 1290.92 1074.65 1289.09 Q1072.78 1287.23 1072.78 1282.37 L1072.78 1268.3 L1069.65 1268.3 L1069.65 1264.99 L1072.78 1264.99 L1072.78 1257.63 L1077.06 1257.63 Z" fill="#000000" fill-rule="nonzero" fill-opacity="1" /><path clip-path="url(#clip290)" d="M1122.66 1285.04 L1127.55 1285.04 L1127.55 1290.92 L1122.66 1290.92 L1122.66 1285.04 M1122.66 1266.4 L1127.55 1266.4 L1127.55 1272.28 L1122.66 1272.28 L1122.66 1266.4 Z" fill="#000000" fill-rule="nonzero" fill-opacity="1" /><path clip-path="url(#clip290)" d="M1136.97 1256.36 L1159.19 1256.36 L1159.19 1258.35 L1146.64 1290.92 L1141.76 1290.92 L1153.57 1260.29 L1136.97 1260.29 L1136.97 1256.36 Z" fill="#000000" fill-rule="nonzero" fill-opacity="1" /><path clip-path="url(#clip290)" d="M1178.31 1274.5 Q1174.98 1274.5 1173.06 1276.29 Q1171.16 1278.07 1171.16 1281.19 Q1171.16 1284.32 1173.06 1286.1 Q1174.98 1287.88 1178.31 1287.88 Q1181.64 1287.88 1183.57 1286.1 Q1185.49 1284.29 1185.49 1281.19 Q1185.49 1278.07 1183.57 1276.29 Q1181.67 1274.5 1178.31 1274.5 M1173.64 1272.51 Q1170.63 1271.77 1168.94 1269.71 Q1167.27 1267.65 1167.27 1264.69 Q1167.27 1260.55 1170.21 1258.14 Q1173.17 1255.73 1178.31 1255.73 Q1183.47 1255.73 1186.41 1258.14 Q1189.35 1260.55 1189.35 1264.69 Q1189.35 1267.65 1187.66 1269.71 Q1186 1271.77 1183.01 1272.51 Q1186.39 1273.3 1188.27 1275.59 Q1190.16 1277.88 1190.16 1281.19 Q1190.16 1286.22 1187.08 1288.9 Q1184.03 1291.59 1178.31 1291.59 Q1172.59 1291.59 1169.52 1288.9 Q1166.46 1286.22 1166.46 1281.19 Q1166.46 1277.88 1168.36 1275.59 Q1170.26 1273.3 1173.64 1272.51 M1171.92 1265.13 Q1171.92 1267.81 1173.59 1269.32 Q1175.28 1270.82 1178.31 1270.82 Q1181.32 1270.82 1183.01 1269.32 Q1184.72 1267.81 1184.72 1265.13 Q1184.72 1262.44 1183.01 1260.94 Q1181.32 1259.43 1178.31 1259.43 Q1175.28 1259.43 1173.59 1260.94 Q1171.92 1262.44 1171.92 1265.13 Z" fill="#000000" fill-rule="nonzero" fill-opacity="1" /><path clip-path="url(#clip290)" d="M1198.47 1285.04 L1203.36 1285.04 L1203.36 1290.92 L1198.47 1290.92 L1198.47 1285.04 Z" fill="#000000" fill-rule="nonzero" fill-opacity="1" /><path clip-path="url(#clip290)" d="M1226.39 1260.43 L1214.58 1278.88 L1226.39 1278.88 L1226.39 1260.43 M1225.16 1256.36 L1231.04 1256.36 L1231.04 1278.88 L1235.97 1278.88 L1235.97 1282.77 L1231.04 1282.77 L1231.04 1290.92 L1226.39 1290.92 L1226.39 1282.77 L1210.79 1282.77 L1210.79 1278.25 L1225.16 1256.36 Z" fill="#000000" fill-rule="nonzero" fill-opacity="1" /><path clip-path="url(#clip290)" d="M1243.84 1290.2 L1243.84 1285.94 Q1245.6 1286.77 1247.41 1287.21 Q1249.21 1287.65 1250.95 1287.65 Q1255.58 1287.65 1258.01 1284.55 Q1260.46 1281.42 1260.81 1275.08 Q1259.47 1277.07 1257.41 1278.14 Q1255.35 1279.2 1252.85 1279.2 Q1247.66 1279.2 1244.63 1276.08 Q1241.62 1272.93 1241.62 1267.49 Q1241.62 1262.17 1244.77 1258.95 Q1247.92 1255.73 1253.15 1255.73 Q1259.14 1255.73 1262.29 1260.34 Q1265.46 1264.92 1265.46 1273.67 Q1265.46 1281.84 1261.57 1286.73 Q1257.71 1291.59 1251.16 1291.59 Q1249.4 1291.59 1247.59 1291.24 Q1245.79 1290.89 1243.84 1290.2 M1253.15 1275.55 Q1256.3 1275.55 1258.13 1273.39 Q1259.98 1271.24 1259.98 1267.49 Q1259.98 1263.76 1258.13 1261.61 Q1256.3 1259.43 1253.15 1259.43 Q1250 1259.43 1248.15 1261.61 Q1246.32 1263.76 1246.32 1267.49 Q1246.32 1271.24 1248.15 1273.39 Q1250 1275.55 1253.15 1275.55 Z" fill="#000000" fill-rule="nonzero" fill-opacity="1" /><path clip-path="url(#clip290)" d="M1303.26 1275.71 Q1301.25 1275.71 1300.09 1277.42 Q1298.96 1279.13 1298.96 1282.19 Q1298.96 1285.2 1300.09 1286.93 Q1301.25 1288.65 1303.26 1288.65 Q1305.23 1288.65 1306.37 1286.93 Q1307.52 1285.2 1307.52 1282.19 Q1307.52 1279.16 1306.37 1277.44 Q1305.23 1275.71 1303.26 1275.71 M1303.26 1272.77 Q1306.92 1272.77 1309.07 1275.31 Q1311.23 1277.86 1311.23 1282.19 Q1311.23 1286.52 1309.05 1289.06 Q1306.9 1291.59 1303.26 1291.59 Q1299.56 1291.59 1297.41 1289.06 Q1295.26 1286.52 1295.26 1282.19 Q1295.26 1277.84 1297.41 1275.31 Q1299.58 1272.77 1303.26 1272.77 M1279.38 1258.67 Q1277.38 1258.67 1276.23 1260.41 Q1275.09 1262.12 1275.09 1265.13 Q1275.09 1268.18 1276.23 1269.9 Q1277.36 1271.61 1279.38 1271.61 Q1281.39 1271.61 1282.52 1269.9 Q1283.68 1268.18 1283.68 1265.13 Q1283.68 1262.14 1282.52 1260.41 Q1281.37 1258.67 1279.38 1258.67 M1300.28 1255.73 L1303.98 1255.73 L1282.36 1291.59 L1278.66 1291.59 L1300.28 1255.73 M1279.38 1255.73 Q1283.03 1255.73 1285.21 1258.28 Q1287.38 1260.8 1287.38 1265.13 Q1287.38 1269.5 1285.21 1272.03 Q1283.06 1274.55 1279.38 1274.55 Q1275.7 1274.55 1273.54 1272.03 Q1271.41 1269.48 1271.41 1265.13 Q1271.41 1260.82 1273.57 1258.28 Q1275.72 1255.73 1279.38 1255.73 Z" fill="#000000" fill-rule="nonzero" fill-opacity="1" /><polyline clip-path="url(#clip290)" style="stroke:#3da44d; stroke-linecap:round; stroke-linejoin:round; stroke-width:4; stroke-opacity:1; fill:none" points="349.167,1325.48 488.953,1325.48 "/>
<path clip-path="url(#clip290)" d="M516.926 1312.04 L516.926 1325.02 L522.806 1325.02 Q526.07 1325.02 527.852 1323.33 Q529.634 1321.64 529.634 1318.52 Q529.634 1315.42 527.852 1313.73 Q526.07 1312.04 522.806 1312.04 L516.926 1312.04 M512.25 1308.2 L522.806 1308.2 Q528.616 1308.2 531.579 1310.83 Q534.565 1313.45 534.565 1318.52 Q534.565 1323.64 531.579 1326.25 Q528.616 1328.87 522.806 1328.87 L516.926 1328.87 L516.926 1342.76 L512.25 1342.76 L512.25 1308.2 Z" fill="#000000" fill-rule="nonzero" fill-opacity="1" /><path clip-path="url(#clip290)" d="M554.843 1320.81 Q554.125 1320.39 553.268 1320.21 Q552.435 1320 551.417 1320 Q547.806 1320 545.861 1322.36 Q543.94 1324.7 543.94 1329.1 L543.94 1342.76 L539.657 1342.76 L539.657 1316.83 L543.94 1316.83 L543.94 1320.86 Q545.282 1318.5 547.435 1317.36 Q549.588 1316.2 552.667 1316.2 Q553.106 1316.2 553.639 1316.27 Q554.171 1316.32 554.819 1316.44 L554.843 1320.81 Z" fill="#000000" fill-rule="nonzero" fill-opacity="1" /><path clip-path="url(#clip290)" d="M580.444 1328.73 L580.444 1330.81 L560.861 1330.81 Q561.139 1335.21 563.5 1337.52 Q565.884 1339.82 570.12 1339.82 Q572.574 1339.82 574.866 1339.21 Q577.18 1338.61 579.449 1337.41 L579.449 1341.44 Q577.157 1342.41 574.75 1342.92 Q572.342 1343.43 569.866 1343.43 Q563.662 1343.43 560.028 1339.82 Q556.417 1336.2 556.417 1330.05 Q556.417 1323.68 559.842 1319.95 Q563.292 1316.2 569.125 1316.2 Q574.356 1316.2 577.389 1319.58 Q580.444 1322.94 580.444 1328.73 M576.185 1327.48 Q576.139 1323.98 574.217 1321.9 Q572.319 1319.82 569.171 1319.82 Q565.606 1319.82 563.454 1321.83 Q561.324 1323.84 561 1327.5 L576.185 1327.48 Z" fill="#000000" fill-rule="nonzero" fill-opacity="1" /><path clip-path="url(#clip290)" d="M604.495 1320.76 L604.495 1306.74 L608.754 1306.74 L608.754 1342.76 L604.495 1342.76 L604.495 1338.87 Q603.152 1341.18 601.092 1342.32 Q599.055 1343.43 596.185 1343.43 Q591.486 1343.43 588.523 1339.68 Q585.583 1335.93 585.583 1329.82 Q585.583 1323.7 588.523 1319.95 Q591.486 1316.2 596.185 1316.2 Q599.055 1316.2 601.092 1317.34 Q603.152 1318.45 604.495 1320.76 M589.981 1329.82 Q589.981 1334.51 591.902 1337.2 Q593.847 1339.86 597.227 1339.86 Q600.606 1339.86 602.551 1337.2 Q604.495 1334.51 604.495 1329.82 Q604.495 1325.12 602.551 1322.45 Q600.606 1319.77 597.227 1319.77 Q593.847 1319.77 591.902 1322.45 Q589.981 1325.12 589.981 1329.82 Z" fill="#000000" fill-rule="nonzero" fill-opacity="1" /><path clip-path="url(#clip290)" d="M617.527 1316.83 L621.787 1316.83 L621.787 1342.76 L617.527 1342.76 L617.527 1316.83 M617.527 1306.74 L621.787 1306.74 L621.787 1312.13 L617.527 1312.13 L617.527 1306.74 Z" fill="#000000" fill-rule="nonzero" fill-opacity="1" /><path clip-path="url(#clip290)" d="M649.356 1317.82 L649.356 1321.81 Q647.55 1320.81 645.722 1320.32 Q643.916 1319.82 642.064 1319.82 Q637.921 1319.82 635.629 1322.45 Q633.337 1325.07 633.337 1329.82 Q633.337 1334.56 635.629 1337.2 Q637.921 1339.82 642.064 1339.82 Q643.916 1339.82 645.722 1339.33 Q647.55 1338.82 649.356 1337.82 L649.356 1341.76 Q647.573 1342.59 645.652 1343.01 Q643.754 1343.43 641.601 1343.43 Q635.745 1343.43 632.296 1339.75 Q628.847 1336.07 628.847 1329.82 Q628.847 1323.47 632.319 1319.84 Q635.814 1316.2 641.879 1316.2 Q643.847 1316.2 645.722 1316.62 Q647.597 1317.01 649.356 1317.82 Z" fill="#000000" fill-rule="nonzero" fill-opacity="1" /><path clip-path="url(#clip290)" d="M660.976 1309.47 L660.976 1316.83 L669.749 1316.83 L669.749 1320.14 L660.976 1320.14 L660.976 1334.21 Q660.976 1337.38 661.833 1338.29 Q662.712 1339.19 665.374 1339.19 L669.749 1339.19 L669.749 1342.76 L665.374 1342.76 Q660.444 1342.76 658.569 1340.93 Q656.694 1339.07 656.694 1334.21 L656.694 1320.14 L653.569 1320.14 L653.569 1316.83 L656.694 1316.83 L656.694 1309.47 L660.976 1309.47 Z" fill="#000000" fill-rule="nonzero" fill-opacity="1" /><path clip-path="url(#clip290)" d="M675.351 1316.83 L679.61 1316.83 L679.61 1342.76 L675.351 1342.76 L675.351 1316.83 M675.351 1306.74 L679.61 1306.74 L679.61 1312.13 L675.351 1312.13 L675.351 1306.74 Z" fill="#000000" fill-rule="nonzero" fill-opacity="1" /><path clip-path="url(#clip290)" d="M698.569 1319.82 Q695.143 1319.82 693.152 1322.5 Q691.161 1325.16 691.161 1329.82 Q691.161 1334.47 693.129 1337.15 Q695.12 1339.82 698.569 1339.82 Q701.971 1339.82 703.962 1337.13 Q705.953 1334.45 705.953 1329.82 Q705.953 1325.21 703.962 1322.52 Q701.971 1319.82 698.569 1319.82 M698.569 1316.2 Q704.124 1316.2 707.295 1319.82 Q710.467 1323.43 710.467 1329.82 Q710.467 1336.18 707.295 1339.82 Q704.124 1343.43 698.569 1343.43 Q692.99 1343.43 689.819 1339.82 Q686.671 1336.18 686.671 1329.82 Q686.671 1323.43 689.819 1319.82 Q692.99 1316.2 698.569 1316.2 Z" fill="#000000" fill-rule="nonzero" fill-opacity="1" /><path clip-path="url(#clip290)" d="M739.078 1327.11 L739.078 1342.76 L734.818 1342.76 L734.818 1327.25 Q734.818 1323.57 733.383 1321.74 Q731.948 1319.91 729.078 1319.91 Q725.629 1319.91 723.638 1322.11 Q721.647 1324.31 721.647 1328.1 L721.647 1342.76 L717.365 1342.76 L717.365 1316.83 L721.647 1316.83 L721.647 1320.86 Q723.175 1318.52 725.235 1317.36 Q727.318 1316.2 730.027 1316.2 Q734.494 1316.2 736.786 1318.98 Q739.078 1321.74 739.078 1327.11 Z" fill="#000000" fill-rule="nonzero" fill-opacity="1" /><path clip-path="url(#clip290)" d="M782.827 1321.81 Q784.425 1318.94 786.647 1317.57 Q788.869 1316.2 791.878 1316.2 Q795.929 1316.2 798.128 1319.05 Q800.327 1321.88 800.327 1327.11 L800.327 1342.76 L796.045 1342.76 L796.045 1327.25 Q796.045 1323.52 794.725 1321.71 Q793.406 1319.91 790.698 1319.91 Q787.388 1319.91 785.466 1322.11 Q783.545 1324.31 783.545 1328.1 L783.545 1342.76 L779.263 1342.76 L779.263 1327.25 Q779.263 1323.5 777.943 1321.71 Q776.624 1319.91 773.869 1319.91 Q770.605 1319.91 768.684 1322.13 Q766.763 1324.33 766.763 1328.1 L766.763 1342.76 L762.48 1342.76 L762.48 1316.83 L766.763 1316.83 L766.763 1320.86 Q768.221 1318.47 770.258 1317.34 Q772.295 1316.2 775.096 1316.2 Q777.92 1316.2 779.888 1317.64 Q781.878 1319.07 782.827 1321.81 Z" fill="#000000" fill-rule="nonzero" fill-opacity="1" /><path clip-path="url(#clip290)" d="M818.869 1319.82 Q815.443 1319.82 813.452 1322.5 Q811.461 1325.16 811.461 1329.82 Q811.461 1334.47 813.429 1337.15 Q815.42 1339.82 818.869 1339.82 Q822.272 1339.82 824.262 1337.13 Q826.253 1334.45 826.253 1329.82 Q826.253 1325.21 824.262 1322.52 Q822.272 1319.82 818.869 1319.82 M818.869 1316.2 Q824.424 1316.2 827.596 1319.82 Q830.767 1323.43 830.767 1329.82 Q830.767 1336.18 827.596 1339.82 Q824.424 1343.43 818.869 1343.43 Q813.29 1343.43 810.119 1339.82 Q806.971 1336.18 806.971 1329.82 Q806.971 1323.43 810.119 1319.82 Q813.29 1316.2 818.869 1316.2 Z" fill="#000000" fill-rule="nonzero" fill-opacity="1" /><path clip-path="url(#clip290)" d="M854.887 1320.76 L854.887 1306.74 L859.146 1306.74 L859.146 1342.76 L854.887 1342.76 L854.887 1338.87 Q853.545 1341.18 851.484 1342.32 Q849.447 1343.43 846.577 1343.43 Q841.878 1343.43 838.915 1339.68 Q835.975 1335.93 835.975 1329.82 Q835.975 1323.7 838.915 1319.95 Q841.878 1316.2 846.577 1316.2 Q849.447 1316.2 851.484 1317.34 Q853.545 1318.45 854.887 1320.76 M840.373 1329.82 Q840.373 1334.51 842.295 1337.2 Q844.239 1339.86 847.619 1339.86 Q850.998 1339.86 852.943 1337.2 Q854.887 1334.51 854.887 1329.82 Q854.887 1325.12 852.943 1322.45 Q850.998 1319.77 847.619 1319.77 Q844.239 1319.77 842.295 1322.45 Q840.373 1325.12 840.373 1329.82 Z" fill="#000000" fill-rule="nonzero" fill-opacity="1" /><path clip-path="url(#clip290)" d="M890.095 1328.73 L890.095 1330.81 L870.512 1330.81 Q870.79 1335.21 873.151 1337.52 Q875.535 1339.82 879.771 1339.82 Q882.225 1339.82 884.517 1339.21 Q886.831 1338.61 889.1 1337.41 L889.1 1341.44 Q886.808 1342.41 884.401 1342.92 Q881.994 1343.43 879.517 1343.43 Q873.313 1343.43 869.679 1339.82 Q866.068 1336.2 866.068 1330.05 Q866.068 1323.68 869.494 1319.95 Q872.943 1316.2 878.776 1316.2 Q884.007 1316.2 887.04 1319.58 Q890.095 1322.94 890.095 1328.73 M885.836 1327.48 Q885.79 1323.98 883.869 1321.9 Q881.97 1319.82 878.822 1319.82 Q875.257 1319.82 873.105 1321.83 Q870.975 1323.84 870.651 1327.5 L885.836 1327.48 Z" fill="#000000" fill-rule="nonzero" fill-opacity="1" /><path clip-path="url(#clip290)" d="M897.086 1306.74 L901.345 1306.74 L901.345 1342.76 L897.086 1342.76 L897.086 1306.74 Z" fill="#000000" fill-rule="nonzero" fill-opacity="1" /><path clip-path="url(#clip290)" d="M941.854 1317.59 L941.854 1321.62 Q940.049 1320.7 938.104 1320.23 Q936.16 1319.77 934.077 1319.77 Q930.905 1319.77 929.308 1320.74 Q927.734 1321.71 927.734 1323.66 Q927.734 1325.14 928.868 1326 Q930.003 1326.83 933.428 1327.59 L934.887 1327.92 Q939.424 1328.89 941.322 1330.67 Q943.243 1332.43 943.243 1335.6 Q943.243 1339.21 940.373 1341.32 Q937.526 1343.43 932.526 1343.43 Q930.442 1343.43 928.174 1343.01 Q925.928 1342.62 923.428 1341.81 L923.428 1337.41 Q925.79 1338.63 928.081 1339.26 Q930.373 1339.86 932.618 1339.86 Q935.627 1339.86 937.248 1338.84 Q938.868 1337.8 938.868 1335.93 Q938.868 1334.19 937.688 1333.26 Q936.53 1332.34 932.572 1331.48 L931.09 1331.14 Q927.132 1330.3 925.373 1328.59 Q923.614 1326.85 923.614 1323.84 Q923.614 1320.19 926.206 1318.2 Q928.799 1316.2 933.567 1316.2 Q935.928 1316.2 938.012 1316.55 Q940.095 1316.9 941.854 1317.59 Z" fill="#000000" fill-rule="nonzero" fill-opacity="1" /><path clip-path="url(#clip290)" d="M950.026 1316.83 L954.285 1316.83 L954.285 1342.76 L950.026 1342.76 L950.026 1316.83 M950.026 1306.74 L954.285 1306.74 L954.285 1312.13 L950.026 1312.13 L950.026 1306.74 Z" fill="#000000" fill-rule="nonzero" fill-opacity="1" /><path clip-path="url(#clip290)" d="M983.382 1321.81 Q984.979 1318.94 987.201 1317.57 Q989.424 1316.2 992.433 1316.2 Q996.484 1316.2 998.683 1319.05 Q1000.88 1321.88 1000.88 1327.11 L1000.88 1342.76 L996.599 1342.76 L996.599 1327.25 Q996.599 1323.52 995.28 1321.71 Q993.961 1319.91 991.252 1319.91 Q987.942 1319.91 986.021 1322.11 Q984.099 1324.31 984.099 1328.1 L984.099 1342.76 L979.817 1342.76 L979.817 1327.25 Q979.817 1323.5 978.498 1321.71 Q977.178 1319.91 974.424 1319.91 Q971.16 1319.91 969.238 1322.13 Q967.317 1324.33 967.317 1328.1 L967.317 1342.76 L963.035 1342.76 L963.035 1316.83 L967.317 1316.83 L967.317 1320.86 Q968.775 1318.47 970.812 1317.34 Q972.85 1316.2 975.65 1316.2 Q978.474 1316.2 980.442 1317.64 Q982.433 1319.07 983.382 1321.81 Z" fill="#000000" fill-rule="nonzero" fill-opacity="1" /><path clip-path="url(#clip290)" d="M1037.57 1306.74 L1037.57 1310.28 L1033.5 1310.28 Q1031.21 1310.28 1030.3 1311.2 Q1029.42 1312.13 1029.42 1314.54 L1029.42 1316.83 L1036.44 1316.83 L1036.44 1320.14 L1029.42 1320.14 L1029.42 1342.76 L1025.14 1342.76 L1025.14 1320.14 L1021.07 1320.14 L1021.07 1316.83 L1025.14 1316.83 L1025.14 1315.02 Q1025.14 1310.7 1027.15 1308.73 Q1029.17 1306.74 1033.54 1306.74 L1037.57 1306.74 Z" fill="#000000" fill-rule="nonzero" fill-opacity="1" /><path clip-path="url(#clip290)" d="M1041.14 1316.83 L1045.4 1316.83 L1045.4 1342.76 L1041.14 1342.76 L1041.14 1316.83 M1041.14 1306.74 L1045.4 1306.74 L1045.4 1312.13 L1041.14 1312.13 L1041.14 1306.74 Z" fill="#000000" fill-rule="nonzero" fill-opacity="1" /><path clip-path="url(#clip290)" d="M1058.52 1309.47 L1058.52 1316.83 L1067.29 1316.83 L1067.29 1320.14 L1058.52 1320.14 L1058.52 1334.21 Q1058.52 1337.38 1059.38 1338.29 Q1060.26 1339.19 1062.92 1339.19 L1067.29 1339.19 L1067.29 1342.76 L1062.92 1342.76 Q1057.99 1342.76 1056.11 1340.93 Q1054.24 1339.07 1054.24 1334.21 L1054.24 1320.14 L1051.11 1320.14 L1051.11 1316.83 L1054.24 1316.83 L1054.24 1309.47 L1058.52 1309.47 Z" fill="#000000" fill-rule="nonzero" fill-opacity="1" /><path clip-path="url(#clip290)" d="M1104.12 1336.88 L1109.01 1336.88 L1109.01 1342.76 L1104.12 1342.76 L1104.12 1336.88 M1104.12 1318.24 L1109.01 1318.24 L1109.01 1324.12 L1104.12 1324.12 L1104.12 1318.24 Z" fill="#000000" fill-rule="nonzero" fill-opacity="1" /><path clip-path="url(#clip290)" d="M1118.43 1308.2 L1140.65 1308.2 L1140.65 1310.19 L1128.1 1342.76 L1123.22 1342.76 L1135.02 1312.13 L1118.43 1312.13 L1118.43 1308.2 Z" fill="#000000" fill-rule="nonzero" fill-opacity="1" /><path clip-path="url(#clip290)" d="M1148.59 1308.2 L1170.81 1308.2 L1170.81 1310.19 L1158.27 1342.76 L1153.38 1342.76 L1165.19 1312.13 L1148.59 1312.13 L1148.59 1308.2 Z" fill="#000000" fill-rule="nonzero" fill-opacity="1" /><path clip-path="url(#clip290)" d="M1179.93 1336.88 L1184.82 1336.88 L1184.82 1342.76 L1179.93 1342.76 L1179.93 1336.88 Z" fill="#000000" fill-rule="nonzero" fill-opacity="1" /><path clip-path="url(#clip290)" d="M1195.05 1308.2 L1213.4 1308.2 L1213.4 1312.13 L1199.33 1312.13 L1199.33 1320.6 Q1200.35 1320.26 1201.37 1320.09 Q1202.39 1319.91 1203.4 1319.91 Q1209.19 1319.91 1212.57 1323.08 Q1215.95 1326.25 1215.95 1331.67 Q1215.95 1337.25 1212.48 1340.35 Q1209.01 1343.43 1202.69 1343.43 Q1200.51 1343.43 1198.24 1343.06 Q1196 1342.69 1193.59 1341.95 L1193.59 1337.25 Q1195.67 1338.38 1197.89 1338.94 Q1200.12 1339.49 1202.59 1339.49 Q1206.6 1339.49 1208.94 1337.38 Q1211.27 1335.28 1211.27 1331.67 Q1211.27 1328.06 1208.94 1325.95 Q1206.6 1323.84 1202.59 1323.84 Q1200.72 1323.84 1198.84 1324.26 Q1196.99 1324.68 1195.05 1325.56 L1195.05 1308.2 Z" fill="#000000" fill-rule="nonzero" fill-opacity="1" /><path clip-path="url(#clip290)" d="M1254.56 1327.55 Q1252.55 1327.55 1251.39 1329.26 Q1250.26 1330.97 1250.26 1334.03 Q1250.26 1337.04 1251.39 1338.77 Q1252.55 1340.49 1254.56 1340.49 Q1256.53 1340.49 1257.66 1338.77 Q1258.82 1337.04 1258.82 1334.03 Q1258.82 1331 1257.66 1329.28 Q1256.53 1327.55 1254.56 1327.55 M1254.56 1324.61 Q1258.22 1324.61 1260.37 1327.15 Q1262.52 1329.7 1262.52 1334.03 Q1262.52 1338.36 1260.35 1340.9 Q1258.2 1343.43 1254.56 1343.43 Q1250.86 1343.43 1248.7 1340.9 Q1246.55 1338.36 1246.55 1334.03 Q1246.55 1329.68 1248.7 1327.15 Q1250.88 1324.61 1254.56 1324.61 M1230.67 1310.51 Q1228.68 1310.51 1227.52 1312.25 Q1226.39 1313.96 1226.39 1316.97 Q1226.39 1320.02 1227.52 1321.74 Q1228.66 1323.45 1230.67 1323.45 Q1232.69 1323.45 1233.82 1321.74 Q1234.98 1320.02 1234.98 1316.97 Q1234.98 1313.98 1233.82 1312.25 Q1232.66 1310.51 1230.67 1310.51 M1251.57 1307.57 L1255.28 1307.57 L1233.66 1343.43 L1229.95 1343.43 L1251.57 1307.57 M1230.67 1307.57 Q1234.33 1307.57 1236.51 1310.12 Q1238.68 1312.64 1238.68 1316.97 Q1238.68 1321.34 1236.51 1323.87 Q1234.35 1326.39 1230.67 1326.39 Q1226.99 1326.39 1224.84 1323.87 Q1222.71 1321.32 1222.71 1316.97 Q1222.71 1312.66 1224.86 1310.12 Q1227.01 1307.57 1230.67 1307.57 Z" fill="#000000" fill-rule="nonzero" fill-opacity="1" /></svg>
