<?xml version="1.0" encoding="utf-8"?>
<svg xmlns="http://www.w3.org/2000/svg" xmlns:xlink="http://www.w3.org/1999/xlink" width="600" height="400" viewBox="0 0 2400 1600">
<defs>
  <clipPath id="clip140">
    <rect x="0" y="0" width="2400" height="1600"/>
  </clipPath>
</defs>
<path clip-path="url(#clip140)" d="M0 1600 L2400 1600 L2400 0 L0 0  Z" fill="#ffffff" fill-rule="evenodd" fill-opacity="1"/>
<defs>
  <clipPath id="clip141">
    <rect x="480" y="0" width="1681" height="1600"/>
  </clipPath>
</defs>
<path clip-path="url(#clip140)" d="M257.204 623.18 L2352.76 623.18 L2352.76 47.2441 L257.204 47.2441  Z" fill="#ffffff" fill-rule="evenodd" fill-opacity="1"/>
<defs>
  <clipPath id="clip142">
    <rect x="257" y="47" width="2097" height="577"/>
  </clipPath>
</defs>
<polyline clip-path="url(#clip142)" style="stroke:#000000; stroke-linecap:round; stroke-linejoin:round; stroke-width:2; stroke-opacity:0.1; fill:none" points="316.512,623.18 316.512,47.2441 "/>
<polyline clip-path="url(#clip142)" style="stroke:#000000; stroke-linecap:round; stroke-linejoin:round; stroke-width:2; stroke-opacity:0.1; fill:none" points="712.692,623.18 712.692,47.2441 "/>
<polyline clip-path="url(#clip142)" style="stroke:#000000; stroke-linecap:round; stroke-linejoin:round; stroke-width:2; stroke-opacity:0.1; fill:none" points="1108.87,623.18 1108.87,47.2441 "/>
<polyline clip-path="url(#clip142)" style="stroke:#000000; stroke-linecap:round; stroke-linejoin:round; stroke-width:2; stroke-opacity:0.1; fill:none" points="1505.05,623.18 1505.05,47.2441 "/>
<polyline clip-path="url(#clip142)" style="stroke:#000000; stroke-linecap:round; stroke-linejoin:round; stroke-width:2; stroke-opacity:0.1; fill:none" points="1901.23,623.18 1901.23,47.2441 "/>
<polyline clip-path="url(#clip142)" style="stroke:#000000; stroke-linecap:round; stroke-linejoin:round; stroke-width:2; stroke-opacity:0.1; fill:none" points="2297.41,623.18 2297.41,47.2441 "/>
<polyline clip-path="url(#clip142)" style="stroke:#000000; stroke-linecap:round; stroke-linejoin:round; stroke-width:2; stroke-opacity:0.1; fill:none" points="257.204,513.846 2352.76,513.846 "/>
<polyline clip-path="url(#clip142)" style="stroke:#000000; stroke-linecap:round; stroke-linejoin:round; stroke-width:2; stroke-opacity:0.1; fill:none" points="257.204,383.171 2352.76,383.171 "/>
<polyline clip-path="url(#clip142)" style="stroke:#000000; stroke-linecap:round; stroke-linejoin:round; stroke-width:2; stroke-opacity:0.1; fill:none" points="257.204,252.496 2352.76,252.496 "/>
<polyline clip-path="url(#clip142)" style="stroke:#000000; stroke-linecap:round; stroke-linejoin:round; stroke-width:2; stroke-opacity:0.1; fill:none" points="257.204,121.821 2352.76,121.821 "/>
<polyline clip-path="url(#clip140)" style="stroke:#000000; stroke-linecap:round; stroke-linejoin:round; stroke-width:4; stroke-opacity:1; fill:none" points="257.204,623.18 2352.76,623.18 "/>
<polyline clip-path="url(#clip140)" style="stroke:#000000; stroke-linecap:round; stroke-linejoin:round; stroke-width:4; stroke-opacity:1; fill:none" points="316.512,623.18 316.512,604.282 "/>
<polyline clip-path="url(#clip140)" style="stroke:#000000; stroke-linecap:round; stroke-linejoin:round; stroke-width:4; stroke-opacity:1; fill:none" points="712.692,623.18 712.692,604.282 "/>
<polyline clip-path="url(#clip140)" style="stroke:#000000; stroke-linecap:round; stroke-linejoin:round; stroke-width:4; stroke-opacity:1; fill:none" points="1108.87,623.18 1108.87,604.282 "/>
<polyline clip-path="url(#clip140)" style="stroke:#000000; stroke-linecap:round; stroke-linejoin:round; stroke-width:4; stroke-opacity:1; fill:none" points="1505.05,623.18 1505.05,604.282 "/>
<polyline clip-path="url(#clip140)" style="stroke:#000000; stroke-linecap:round; stroke-linejoin:round; stroke-width:4; stroke-opacity:1; fill:none" points="1901.23,623.18 1901.23,604.282 "/>
<polyline clip-path="url(#clip140)" style="stroke:#000000; stroke-linecap:round; stroke-linejoin:round; stroke-width:4; stroke-opacity:1; fill:none" points="2297.41,623.18 2297.41,604.282 "/>
<path clip-path="url(#clip140)" d="M316.512 654.099 Q312.901 654.099 311.072 657.663 Q309.267 661.205 309.267 668.335 Q309.267 675.441 311.072 679.006 Q312.901 682.547 316.512 682.547 Q320.146 682.547 321.952 679.006 Q323.781 675.441 323.781 668.335 Q323.781 661.205 321.952 657.663 Q320.146 654.099 316.512 654.099 M316.512 650.395 Q322.322 650.395 325.378 655.001 Q328.456 659.585 328.456 668.335 Q328.456 677.061 325.378 681.668 Q322.322 686.251 316.512 686.251 Q310.702 686.251 307.623 681.668 Q304.568 677.061 304.568 668.335 Q304.568 659.585 307.623 655.001 Q310.702 650.395 316.512 650.395 Z" fill="#000000" fill-rule="nonzero" fill-opacity="1" /><path clip-path="url(#clip140)" d="M703.074 681.645 L710.712 681.645 L710.712 655.279 L702.402 656.946 L702.402 652.687 L710.666 651.02 L715.342 651.02 L715.342 681.645 L722.981 681.645 L722.981 685.58 L703.074 685.58 L703.074 681.645 Z" fill="#000000" fill-rule="nonzero" fill-opacity="1" /><path clip-path="url(#clip140)" d="M1103.52 681.645 L1119.84 681.645 L1119.84 685.58 L1097.9 685.58 L1097.9 681.645 Q1100.56 678.89 1105.14 674.26 Q1109.75 669.608 1110.93 668.265 Q1113.18 665.742 1114.06 664.006 Q1114.96 662.247 1114.96 660.557 Q1114.96 657.802 1113.01 656.066 Q1111.09 654.33 1107.99 654.33 Q1105.79 654.33 1103.34 655.094 Q1100.91 655.858 1098.13 657.409 L1098.13 652.687 Q1100.95 651.552 1103.41 650.974 Q1105.86 650.395 1107.9 650.395 Q1113.27 650.395 1116.46 653.08 Q1119.66 655.765 1119.66 660.256 Q1119.66 662.386 1118.85 664.307 Q1118.06 666.205 1115.95 668.798 Q1115.38 669.469 1112.27 672.686 Q1109.17 675.881 1103.52 681.645 Z" fill="#000000" fill-rule="nonzero" fill-opacity="1" /><path clip-path="url(#clip140)" d="M1509.3 666.946 Q1512.65 667.663 1514.53 669.932 Q1516.43 672.2 1516.43 675.534 Q1516.43 680.649 1512.91 683.45 Q1509.39 686.251 1502.91 686.251 Q1500.73 686.251 1498.42 685.811 Q1496.13 685.395 1493.67 684.538 L1493.67 680.024 Q1495.62 681.159 1497.93 681.737 Q1500.25 682.316 1502.77 682.316 Q1507.17 682.316 1509.46 680.58 Q1511.78 678.844 1511.78 675.534 Q1511.78 672.478 1509.62 670.765 Q1507.49 669.029 1503.67 669.029 L1499.65 669.029 L1499.65 665.186 L1503.86 665.186 Q1507.31 665.186 1509.14 663.821 Q1510.96 662.432 1510.96 659.839 Q1510.96 657.177 1509.07 655.765 Q1507.19 654.33 1503.67 654.33 Q1501.75 654.33 1499.55 654.747 Q1497.35 655.163 1494.72 656.043 L1494.72 651.876 Q1497.38 651.136 1499.69 650.765 Q1502.03 650.395 1504.09 650.395 Q1509.41 650.395 1512.52 652.825 Q1515.62 655.233 1515.62 659.353 Q1515.62 662.223 1513.97 664.214 Q1512.33 666.182 1509.3 666.946 Z" fill="#000000" fill-rule="nonzero" fill-opacity="1" /><path clip-path="url(#clip140)" d="M1904.24 655.094 L1892.43 673.543 L1904.24 673.543 L1904.24 655.094 M1903.01 651.02 L1908.89 651.02 L1908.89 673.543 L1913.82 673.543 L1913.82 677.432 L1908.89 677.432 L1908.89 685.58 L1904.24 685.58 L1904.24 677.432 L1888.64 677.432 L1888.64 672.918 L1903.01 651.02 Z" fill="#000000" fill-rule="nonzero" fill-opacity="1" /><path clip-path="url(#clip140)" d="M2287.69 651.02 L2306.04 651.02 L2306.04 654.955 L2291.97 654.955 L2291.97 663.427 Q2292.99 663.08 2294.01 662.918 Q2295.03 662.733 2296.04 662.733 Q2301.83 662.733 2305.21 665.904 Q2308.59 669.075 2308.59 674.492 Q2308.59 680.071 2305.12 683.172 Q2301.65 686.251 2295.33 686.251 Q2293.15 686.251 2290.88 685.881 Q2288.64 685.51 2286.23 684.77 L2286.23 680.071 Q2288.31 681.205 2290.53 681.76 Q2292.76 682.316 2295.23 682.316 Q2299.24 682.316 2301.58 680.21 Q2303.91 678.103 2303.91 674.492 Q2303.91 670.881 2301.58 668.774 Q2299.24 666.668 2295.23 666.668 Q2293.36 666.668 2291.48 667.085 Q2289.63 667.501 2287.69 668.381 L2287.69 651.02 Z" fill="#000000" fill-rule="nonzero" fill-opacity="1" /><path clip-path="url(#clip140)" d="M1175.15 720.524 L1215.35 720.524 L1215.35 725.935 L1198.48 725.935 L1198.48 768.044 L1192.02 768.044 L1192.02 725.935 L1175.15 725.935 L1175.15 720.524 Z" fill="#000000" fill-rule="nonzero" fill-opacity="1" /><path clip-path="url(#clip140)" d="M1219.3 732.396 L1225.15 732.396 L1225.15 768.044 L1219.3 768.044 L1219.3 732.396 M1219.3 718.519 L1225.15 718.519 L1225.15 725.935 L1219.3 725.935 L1219.3 718.519 Z" fill="#000000" fill-rule="nonzero" fill-opacity="1" /><path clip-path="url(#clip140)" d="M1265.16 739.239 Q1267.36 735.292 1270.41 733.414 Q1273.47 731.537 1277.61 731.537 Q1283.18 731.537 1286.2 735.451 Q1289.22 739.335 1289.22 746.528 L1289.22 768.044 L1283.34 768.044 L1283.34 746.719 Q1283.34 741.594 1281.52 739.112 Q1279.71 736.629 1275.98 736.629 Q1271.43 736.629 1268.79 739.653 Q1266.15 742.677 1266.15 747.896 L1266.15 768.044 L1260.26 768.044 L1260.26 746.719 Q1260.26 741.563 1258.45 739.112 Q1256.63 736.629 1252.84 736.629 Q1248.36 736.629 1245.72 739.685 Q1243.07 742.708 1243.07 747.896 L1243.07 768.044 L1237.19 768.044 L1237.19 732.396 L1243.07 732.396 L1243.07 737.934 Q1245.08 734.656 1247.88 733.096 Q1250.68 731.537 1254.53 731.537 Q1258.41 731.537 1261.12 733.51 Q1263.86 735.483 1265.16 739.239 Z" fill="#000000" fill-rule="nonzero" fill-opacity="1" /><path clip-path="url(#clip140)" d="M1331.4 748.756 L1331.4 751.62 L1304.47 751.62 Q1304.85 757.668 1308.1 760.851 Q1311.38 764.002 1317.2 764.002 Q1320.58 764.002 1323.73 763.174 Q1326.91 762.347 1330.03 760.691 L1330.03 766.23 Q1326.88 767.566 1323.57 768.267 Q1320.26 768.967 1316.85 768.967 Q1308.32 768.967 1303.32 764.002 Q1298.36 759.036 1298.36 750.57 Q1298.36 741.817 1303.07 736.693 Q1307.81 731.537 1315.83 731.537 Q1323.03 731.537 1327.2 736.183 Q1331.4 740.799 1331.4 748.756 M1325.54 747.037 Q1325.48 742.231 1322.84 739.366 Q1320.23 736.502 1315.9 736.502 Q1311 736.502 1308.04 739.271 Q1305.11 742.04 1304.66 747.069 L1325.54 747.037 Z" fill="#000000" fill-rule="nonzero" fill-opacity="1" /><path clip-path="url(#clip140)" d="M1375.8 718.582 Q1371.53 725.903 1369.46 733.064 Q1367.4 740.226 1367.4 747.578 Q1367.4 754.93 1369.46 762.156 Q1371.57 769.349 1375.8 776.638 L1370.71 776.638 Q1365.93 769.158 1363.54 761.933 Q1361.19 754.708 1361.19 747.578 Q1361.19 740.48 1363.54 733.287 Q1365.9 726.094 1370.71 718.582 L1375.8 718.582 Z" fill="#000000" fill-rule="nonzero" fill-opacity="1" /><path clip-path="url(#clip140)" d="M1409.89 733.446 L1409.89 738.984 Q1407.4 737.711 1404.73 737.075 Q1402.06 736.438 1399.19 736.438 Q1394.83 736.438 1392.64 737.775 Q1390.47 739.112 1390.47 741.785 Q1390.47 743.822 1392.03 745 Q1393.59 746.146 1398.3 747.196 L1400.31 747.642 Q1406.54 748.979 1409.15 751.429 Q1411.8 753.848 1411.8 758.209 Q1411.8 763.174 1407.85 766.07 Q1403.93 768.967 1397.06 768.967 Q1394.2 768.967 1391.08 768.394 Q1387.99 767.853 1384.55 766.739 L1384.55 760.691 Q1387.8 762.378 1390.95 763.238 Q1394.1 764.065 1397.19 764.065 Q1401.32 764.065 1403.55 762.665 Q1405.78 761.233 1405.78 758.654 Q1405.78 756.267 1404.16 754.994 Q1402.57 753.721 1397.12 752.543 L1395.09 752.066 Q1389.64 750.92 1387.22 748.565 Q1384.81 746.178 1384.81 742.04 Q1384.81 737.011 1388.37 734.274 Q1391.94 731.537 1398.49 731.537 Q1401.74 731.537 1404.6 732.014 Q1407.47 732.491 1409.89 733.446 Z" fill="#000000" fill-rule="nonzero" fill-opacity="1" /><path clip-path="url(#clip140)" d="M1420.2 718.582 L1425.29 718.582 Q1430.07 726.094 1432.42 733.287 Q1434.81 740.48 1434.81 747.578 Q1434.81 754.708 1432.42 761.933 Q1430.07 769.158 1425.29 776.638 L1420.2 776.638 Q1424.43 769.349 1426.5 762.156 Q1428.6 754.93 1428.6 747.578 Q1428.6 740.226 1426.5 733.064 Q1424.43 725.903 1420.2 718.582 Z" fill="#000000" fill-rule="nonzero" fill-opacity="1" /><polyline clip-path="url(#clip140)" style="stroke:#000000; stroke-linecap:round; stroke-linejoin:round; stroke-width:4; stroke-opacity:1; fill:none" points="257.204,623.18 257.204,47.2441 "/>
<polyline clip-path="url(#clip140)" style="stroke:#000000; stroke-linecap:round; stroke-linejoin:round; stroke-width:4; stroke-opacity:1; fill:none" points="257.204,513.846 276.102,513.846 "/>
<polyline clip-path="url(#clip140)" style="stroke:#000000; stroke-linecap:round; stroke-linejoin:round; stroke-width:4; stroke-opacity:1; fill:none" points="257.204,383.171 276.102,383.171 "/>
<polyline clip-path="url(#clip140)" style="stroke:#000000; stroke-linecap:round; stroke-linejoin:round; stroke-width:4; stroke-opacity:1; fill:none" points="257.204,252.496 276.102,252.496 "/>
<polyline clip-path="url(#clip140)" style="stroke:#000000; stroke-linecap:round; stroke-linejoin:round; stroke-width:4; stroke-opacity:1; fill:none" points="257.204,121.821 276.102,121.821 "/>
<path clip-path="url(#clip140)" d="M115.857 514.297 L145.533 514.297 L145.533 518.232 L115.857 518.232 L115.857 514.297 Z" fill="#000000" fill-rule="nonzero" fill-opacity="1" /><path clip-path="url(#clip140)" d="M165.626 499.644 Q162.015 499.644 160.186 503.209 Q158.38 506.751 158.38 513.881 Q158.38 520.987 160.186 524.552 Q162.015 528.093 165.626 528.093 Q169.26 528.093 171.065 524.552 Q172.894 520.987 172.894 513.881 Q172.894 506.751 171.065 503.209 Q169.26 499.644 165.626 499.644 M165.626 495.941 Q171.436 495.941 174.491 500.547 Q177.57 505.131 177.57 513.881 Q177.57 522.607 174.491 527.214 Q171.436 531.797 165.626 531.797 Q159.815 531.797 156.737 527.214 Q153.681 522.607 153.681 513.881 Q153.681 505.131 156.737 500.547 Q159.815 495.941 165.626 495.941 Z" fill="#000000" fill-rule="nonzero" fill-opacity="1" /><path clip-path="url(#clip140)" d="M185.788 525.246 L190.672 525.246 L190.672 531.126 L185.788 531.126 L185.788 525.246 Z" fill="#000000" fill-rule="nonzero" fill-opacity="1" /><path clip-path="url(#clip140)" d="M204.885 527.191 L221.204 527.191 L221.204 531.126 L199.26 531.126 L199.26 527.191 Q201.922 524.436 206.505 519.806 Q211.111 515.154 212.292 513.811 Q214.537 511.288 215.417 509.552 Q216.32 507.793 216.32 506.103 Q216.32 503.348 214.375 501.612 Q212.454 499.876 209.352 499.876 Q207.153 499.876 204.699 500.64 Q202.269 501.404 199.491 502.955 L199.491 498.232 Q202.315 497.098 204.769 496.52 Q207.223 495.941 209.26 495.941 Q214.63 495.941 217.824 498.626 Q221.019 501.311 221.019 505.802 Q221.019 507.931 220.209 509.853 Q219.422 511.751 217.315 514.343 Q216.736 515.015 213.635 518.232 Q210.533 521.427 204.885 527.191 Z" fill="#000000" fill-rule="nonzero" fill-opacity="1" /><path clip-path="url(#clip140)" d="M115.487 383.622 L145.163 383.622 L145.163 387.557 L115.487 387.557 L115.487 383.622 Z" fill="#000000" fill-rule="nonzero" fill-opacity="1" /><path clip-path="url(#clip140)" d="M165.255 368.97 Q161.644 368.97 159.815 372.534 Q158.01 376.076 158.01 383.206 Q158.01 390.312 159.815 393.877 Q161.644 397.418 165.255 397.418 Q168.889 397.418 170.695 393.877 Q172.524 390.312 172.524 383.206 Q172.524 376.076 170.695 372.534 Q168.889 368.97 165.255 368.97 M165.255 365.266 Q171.065 365.266 174.121 369.872 Q177.2 374.456 177.2 383.206 Q177.2 391.932 174.121 396.539 Q171.065 401.122 165.255 401.122 Q159.445 401.122 156.366 396.539 Q153.311 391.932 153.311 383.206 Q153.311 374.456 156.366 369.872 Q159.445 365.266 165.255 365.266 Z" fill="#000000" fill-rule="nonzero" fill-opacity="1" /><path clip-path="url(#clip140)" d="M185.417 394.571 L190.301 394.571 L190.301 400.451 L185.417 400.451 L185.417 394.571 Z" fill="#000000" fill-rule="nonzero" fill-opacity="1" /><path clip-path="url(#clip140)" d="M201.297 396.516 L208.936 396.516 L208.936 370.15 L200.625 371.817 L200.625 367.557 L208.889 365.891 L213.565 365.891 L213.565 396.516 L221.204 396.516 L221.204 400.451 L201.297 400.451 L201.297 396.516 Z" fill="#000000" fill-rule="nonzero" fill-opacity="1" /><path clip-path="url(#clip140)" d="M164.028 238.295 Q160.417 238.295 158.589 241.859 Q156.783 245.401 156.783 252.531 Q156.783 259.637 158.589 263.202 Q160.417 266.743 164.028 266.743 Q167.663 266.743 169.468 263.202 Q171.297 259.637 171.297 252.531 Q171.297 245.401 169.468 241.859 Q167.663 238.295 164.028 238.295 M164.028 234.591 Q169.839 234.591 172.894 239.197 Q175.973 243.781 175.973 252.531 Q175.973 261.257 172.894 265.864 Q169.839 270.447 164.028 270.447 Q158.218 270.447 155.14 265.864 Q152.084 261.257 152.084 252.531 Q152.084 243.781 155.14 239.197 Q158.218 234.591 164.028 234.591 Z" fill="#000000" fill-rule="nonzero" fill-opacity="1" /><path clip-path="url(#clip140)" d="M184.19 263.896 L189.075 263.896 L189.075 269.776 L184.19 269.776 L184.19 263.896 Z" fill="#000000" fill-rule="nonzero" fill-opacity="1" /><path clip-path="url(#clip140)" d="M209.26 238.295 Q205.649 238.295 203.82 241.859 Q202.014 245.401 202.014 252.531 Q202.014 259.637 203.82 263.202 Q205.649 266.743 209.26 266.743 Q212.894 266.743 214.699 263.202 Q216.528 259.637 216.528 252.531 Q216.528 245.401 214.699 241.859 Q212.894 238.295 209.26 238.295 M209.26 234.591 Q215.07 234.591 218.125 239.197 Q221.204 243.781 221.204 252.531 Q221.204 261.257 218.125 265.864 Q215.07 270.447 209.26 270.447 Q203.449 270.447 200.371 265.864 Q197.315 261.257 197.315 252.531 Q197.315 243.781 200.371 239.197 Q203.449 234.591 209.26 234.591 Z" fill="#000000" fill-rule="nonzero" fill-opacity="1" /><path clip-path="url(#clip140)" d="M165.255 107.62 Q161.644 107.62 159.815 111.184 Q158.01 114.726 158.01 121.856 Q158.01 128.962 159.815 132.527 Q161.644 136.068 165.255 136.068 Q168.889 136.068 170.695 132.527 Q172.524 128.962 172.524 121.856 Q172.524 114.726 170.695 111.184 Q168.889 107.62 165.255 107.62 M165.255 103.916 Q171.065 103.916 174.121 108.522 Q177.2 113.106 177.2 121.856 Q177.2 130.582 174.121 135.189 Q171.065 139.772 165.255 139.772 Q159.445 139.772 156.366 135.189 Q153.311 130.582 153.311 121.856 Q153.311 113.106 156.366 108.522 Q159.445 103.916 165.255 103.916 Z" fill="#000000" fill-rule="nonzero" fill-opacity="1" /><path clip-path="url(#clip140)" d="M185.417 133.221 L190.301 133.221 L190.301 139.101 L185.417 139.101 L185.417 133.221 Z" fill="#000000" fill-rule="nonzero" fill-opacity="1" /><path clip-path="url(#clip140)" d="M201.297 135.166 L208.936 135.166 L208.936 108.8 L200.625 110.467 L200.625 106.208 L208.889 104.541 L213.565 104.541 L213.565 135.166 L221.204 135.166 L221.204 139.101 L201.297 139.101 L201.297 135.166 Z" fill="#000000" fill-rule="nonzero" fill-opacity="1" /><path clip-path="url(#clip140)" d="M68.5412 333.525 Q74.9069 336.008 76.8484 338.363 Q78.79 340.718 78.79 344.665 L78.79 349.344 L73.8884 349.344 L73.8884 345.906 Q73.8884 343.487 72.7425 342.151 Q71.5967 340.814 67.3317 339.191 L64.6581 338.14 L29.583 352.559 L29.583 346.352 L57.4648 335.212 L29.583 324.072 L29.583 317.865 L68.5412 333.525 Z" fill="#000000" fill-rule="nonzero" fill-opacity="1" /><polyline clip-path="url(#clip142)" style="stroke:#009af9; stroke-linecap:round; stroke-linejoin:round; stroke-width:4; stroke-opacity:1; fill:none" points="316.512,252.496 320.474,252.496 324.436,252.496 324.436,265.412 328.397,265.412 328.397,277.948 332.359,277.948 332.359,289.994 336.321,289.994 336.321,301.451 340.283,301.451 340.283,312.233 344.245,312.233 344.245,296.439 348.206,296.439 348.206,280.605 352.168,280.605 352.168,264.915 356.13,264.915 356.13,249.541 360.092,249.541 360.092,234.648 364.054,234.648 364.054,246.221 368.015,246.221 368.015,257.8 371.977,257.8 371.977,269.284 375.939,269.284 375.939,280.573 379.901,280.573 379.901,291.575 383.863,291.575 383.863,302.204 387.824,302.204 387.824,312.382 391.786,312.382 391.786,322.042 395.748,322.042 395.748,331.127 399.71,331.127 399.71,339.594 403.672,339.594 403.672,321.576 407.633,321.576 407.633,303.648 411.595,303.648 411.595,286.023 415.557,286.023 415.557,268.903 419.519,268.903 419.519,252.476 423.481,252.476 423.481,262.744 427.442,262.744 427.442,273.262 431.404,273.262 431.404,283.937 435.366,283.937 435.366,294.673 439.328,294.673 439.328,305.375 443.29,305.375 443.29,315.95 447.251,315.95 447.251,326.31 451.213,326.31 451.213,336.372 455.175,336.372 455.175,346.06 459.137,346.06 459.137,355.307 463.099,355.307 463.099,338.221 467.06,338.221 467.06,321.351 471.022,321.351 471.022,304.878 474.984,304.878 474.984,288.976 478.946,288.976 478.946,273.802 482.907,273.802 482.907,259.494 486.869,259.494 486.869,246.172 490.831,246.172 490.831,233.934 494.793,233.934 494.793,222.856 498.755,222.856 498.755,212.989 502.716,212.989 502.716,204.36 506.678,204.36 506.678,196.974 510.64,196.974 510.64,190.809 514.602,190.809 514.602,185.825 518.564,185.825 518.564,181.958 522.525,181.958 522.525,179.128 526.487,179.128 526.487,177.236 530.449,177.236 530.449,176.17 534.411,176.17 534.411,175.805 538.373,175.805 538.373,176.008 542.334,176.008 542.334,202.473 546.296,202.473 546.296,228.464 550.258,228.464 550.258,253.618 554.22,253.618 554.22,277.598 558.182,277.598 558.182,300.099 562.143,300.099 562.143,295.02 566.105,295.02 566.105,288.728 570.067,288.728 570.067,281.26 574.029,281.26 574.029,272.675 577.991,272.675 577.991,263.056 581.952,263.056 581.952,252.504 585.914,252.504 585.914,241.135 589.876,241.135 589.876,229.08 593.838,229.08 593.838,216.483 597.8,216.483 597.8,203.491 601.761,203.491 601.761,190.259 605.723,190.259 605.723,176.943 609.685,176.943 609.685,163.696 613.647,163.696 613.647,150.666 617.609,150.666 617.609,137.995 621.57,137.995 621.57,151.646 625.532,151.646 625.532,165.145 629.494,165.145 629.494,178.375 633.456,178.375 633.456,191.227 637.418,191.227 637.418,203.603 641.379,203.603 641.379,215.413 645.341,215.413 645.341,226.582 649.303,226.582 649.303,237.047 653.265,237.047 653.265,246.76 657.226,246.76 657.226,255.686 661.188,255.686 661.188,237.975 665.15,237.975 665.15,220.218 669.112,220.218 669.112,202.645 673.074,202.645 673.074,185.478 677.035,185.478 677.035,168.927 680.997,168.927 680.997,153.183 684.959,153.183 684.959,138.416 688.921,138.416 688.921,124.776 692.883,124.776 692.883,112.384 696.844,112.384 696.844,101.336 700.806,101.336 700.806,91.6997 704.768,91.6997 704.768,83.5137 708.73,83.5137 708.73,76.7882 712.692,76.7882 712.692,71.5052 716.653,71.5052 716.653,67.6203 720.615,67.6203 720.615,65.0638 724.577,65.0638 724.577,63.7428 728.539,63.7428 728.539,63.5442 732.501,63.5442 732.501,64.3369 736.462,64.3369 736.462,65.9753 740.424,65.9753 740.424,68.3026 744.386,68.3026 744.386,71.1538 748.348,71.1538 748.348,74.3597 752.31,74.3597 752.31,77.75 756.271,77.75 756.271,81.1568 760.233,81.1568 760.233,84.4176 764.195,84.4176 764.195,87.3789 768.157,87.3789 768.157,89.8982 772.119,89.8982 772.119,91.847 776.08,91.847 776.08,93.1127 780.042,93.1127 780.042,119.433 784.004,119.433 784.004,144.139 787.966,144.139 787.966,166.954 791.928,166.954 791.928,187.646 795.889,187.646 795.889,206.029 799.851,206.029 799.851,221.969 803.813,221.969 803.813,235.378 807.775,235.378 807.775,246.223 811.736,246.223 811.736,254.519 815.698,254.519 815.698,260.33 819.66,260.33 819.66,237.931 823.622,237.931 823.622,214.067 827.584,214.067 827.584,189.147 831.545,189.147 831.545,163.59 835.507,163.59 835.507,137.815 839.469,137.815 839.469,138.068 843.431,138.068 843.431,138.152 847.393,138.152 847.393,138.224 851.354,138.224 851.354,138.432 855.316,138.432 855.316,138.916 859.278,138.916 859.278,139.808 863.24,139.808 863.24,141.222 867.202,141.222 867.202,143.26 871.163,143.26 871.163,146.007 875.125,146.007 875.125,149.53 879.087,149.53 879.087,153.875 883.049,153.875 883.049,159.073 887.011,159.073 887.011,165.134 890.972,165.134 890.972,172.047 894.934,172.047 894.934,179.788 898.896,179.788 898.896,188.313 902.858,188.313 902.858,197.563 906.82,197.563 906.82,207.465 910.781,207.465 910.781,217.935 914.743,217.935 914.743,228.877 918.705,228.877 918.705,240.191 922.667,240.191 922.667,251.767 926.629,251.767 926.629,263.495 930.59,263.495 930.59,275.263 934.552,275.263 934.552,286.959 938.514,286.959 938.514,298.477 942.476,298.477 942.476,309.715 946.438,309.715 946.438,320.578 950.399,320.578 950.399,330.981 954.361,330.981 954.361,340.848 958.323,340.848 958.323,324.284 962.285,324.284 962.285,307.831 966.246,307.831 966.246,291.671 970.208,291.671 970.208,275.978 974.17,275.978 974.17,260.909 978.132,260.909 978.132,272.442 982.094,272.442 982.094,284.11 986.055,284.11 986.055,295.797 990.017,295.797 990.017,307.391 993.979,307.391 993.979,318.784 997.941,318.784 997.941,304.041 1001.9,304.041 1001.9,289.661 1005.86,289.661 1005.86,275.778 1009.83,275.778 1009.83,262.516 1013.79,262.516 1013.79,249.982 1017.75,249.982 1017.75,264.1 1021.71,264.1 1021.71,278.353 1025.67,278.353 1025.67,292.574 1029.64,292.574 1029.64,306.605 1033.6,306.605 1033.6,320.293 1037.56,320.293 1037.56,333.495 1041.52,333.495 1041.52,346.081 1045.48,346.081 1045.48,357.937 1049.44,357.937 1049.44,368.963 1053.41,368.963 1053.41,379.08 1057.37,379.08 1057.37,388.226 1061.33,388.226 1061.33,396.359 1065.29,396.359 1065.29,403.459 1069.25,403.459 1069.25,409.524 1073.21,409.524 1073.21,414.572 1077.18,414.572 1077.18,418.638 1081.14,418.638 1081.14,421.777 1085.1,421.777 1085.1,424.058 1089.06,424.058 1089.06,425.562 1093.02,425.562 1093.02,426.386 1096.99,426.386 1096.99,400.8 1100.95,400.8 1100.95,375.51 1104.91,375.51 1104.91,350.853 1108.87,350.853 1108.87,327.143 1112.83,327.143 1112.83,304.669 1116.79,304.669 1116.79,309.523 1120.76,309.523 1120.76,315.333 1124.72,315.333 1124.72,322.061 1128.68,322.061 1128.68,329.654 1132.64,329.654 1132.64,338.04 1136.6,338.04 1136.6,321.299 1140.57,321.299 1140.57,305.929 1144.53,305.929 1144.53,292.041 1148.49,292.041 1148.49,279.715 1152.45,279.715 1152.45,269.001 1156.41,269.001 1156.41,285.75 1160.37,285.75 1160.37,303.353 1164.34,303.353 1164.34,321.547 1168.3,321.547 1168.3,340.064 1172.26,340.064 1172.26,358.635 1176.22,358.635 1176.22,377 1180.18,377 1180.18,394.905 1184.15,394.905 1184.15,412.115 1188.11,412.115 1188.11,428.415 1192.07,428.415 1192.07,443.61 1196.03,443.61 1196.03,457.534 1199.99,457.534 1199.99,470.05 1203.95,470.05 1203.95,481.05 1207.92,481.05 1207.92,490.46 1211.88,490.46 1211.88,498.238 1215.84,498.238 1215.84,504.372 1219.8,504.372 1219.8,508.886 1223.76,508.886 1223.76,511.832 1227.72,511.832 1227.72,513.288 1231.69,513.288 1231.69,513.363 1235.65,513.363 1235.65,486.352 1239.61,486.352 1239.61,458.999 1243.57,458.999 1243.57,431.69 1247.53,431.69 1247.53,404.8 1251.5,404.8 1251.5,378.686 1255.46,378.686 1255.46,379.515 1259.42,379.515 1259.42,380.995 1263.38,380.995 1263.38,383.175 1267.34,383.175 1267.34,386.087 1271.3,386.087 1271.3,389.745 1275.27,389.745 1275.27,394.15 1279.23,394.15 1279.23,399.285 1283.19,399.285 1283.19,405.119 1287.15,405.119 1287.15,411.608 1291.11,411.608 1291.11,418.694 1295.08,418.694 1295.08,426.309 1299.04,426.309 1299.04,434.375 1303,434.375 1303,442.809 1306.96,442.809 1306.96,451.518 1310.92,451.518 1310.92,460.41 1314.88,460.41 1314.88,443.556 1318.85,443.556 1318.85,427.453 1322.81,427.453 1322.81,412.229 1326.77,412.229 1326.77,397.991 1330.73,397.991 1330.73,384.826 1334.69,384.826 1334.69,398.631 1338.66,398.631 1338.66,412.853 1342.62,412.853 1342.62,427.292 1346.58,427.292 1346.58,441.747 1350.54,441.747 1350.54,456.024 1354.5,456.024 1354.5,469.934 1358.46,469.934 1358.46,483.302 1362.43,483.302 1362.43,495.969 1366.39,495.969 1366.39,507.791 1370.35,507.791 1370.35,518.646 1374.31,518.646 1374.31,502.599 1378.27,502.599 1378.27,486.168 1382.23,486.168 1382.23,469.518 1386.2,469.518 1386.2,452.818 1390.16,452.818 1390.16,436.23 1394.12,436.23 1394.12,445.75 1398.08,445.75 1398.08,454.933 1402.04,454.933 1402.04,463.699 1406.01,463.699 1406.01,471.979 1409.97,471.979 1409.97,479.712 1413.93,479.712 1413.93,486.851 1417.89,486.851 1417.89,493.359 1421.85,493.359 1421.85,499.213 1425.81,499.213 1425.81,504.404 1429.78,504.404 1429.78,508.932 1433.74,508.932 1433.74,512.813 1437.7,512.813 1437.7,516.071 1441.66,516.071 1441.66,518.743 1445.62,518.743 1445.62,520.875 1449.59,520.875 1449.59,522.521 1453.55,522.521 1453.55,523.743 1457.51,523.743 1457.51,524.608 1461.47,524.608 1461.47,525.187 1465.43,525.187 1465.43,525.556 1469.39,525.556 1469.39,525.789 1473.36,525.789 1473.36,525.961 1477.32,525.961 1477.32,526.146 1481.28,526.146 1481.28,526.413 1485.24,526.413 1485.24,526.83 1489.2,526.83 1489.2,527.455 1493.17,527.455 1493.17,528.342 1497.13,528.342 1497.13,529.537 1501.09,529.537 1501.09,531.079 1505.05,531.079 1505.05,532.996 1509.01,532.996 1509.01,535.31 1512.97,535.31 1512.97,538.03 1516.94,538.03 1516.94,541.16 1520.9,541.16 1520.9,544.693 1524.86,544.693 1524.86,548.613 1528.82,548.613 1528.82,552.899 1532.78,552.899 1532.78,557.52 1536.74,557.52 1536.74,562.44 1540.71,562.44 1540.71,567.617 1544.67,567.617 1544.67,573.005 1548.63,573.005 1548.63,578.554 1552.59,578.554 1552.59,584.213 1556.55,584.213 1556.55,589.927 1560.52,589.927 1560.52,595.645 1564.48,595.645 1564.48,601.312 1568.44,601.312 1568.44,606.88 1572.4,606.88 1572.4,586.467 1576.36,586.467 1576.36,566.623 1580.32,566.623 1580.32,547.529 1584.29,547.529 1584.29,529.348 1588.25,529.348 1588.25,512.22 1592.21,512.22 1592.21,496.265 1596.17,496.265 1596.17,481.576 1600.13,481.576 1600.13,468.222 1604.1,468.222 1604.1,456.243 1608.06,456.243 1608.06,445.656 1612.02,445.656 1612.02,436.448 1615.98,436.448 1615.98,428.585 1619.94,428.585 1619.94,422.006 1623.9,422.006 1623.9,416.63 1627.87,416.63 1627.87,412.357 1631.83,412.357 1631.83,409.068 1635.79,409.068 1635.79,406.631 1639.75,406.631 1639.75,404.902 1643.71,404.902 1643.71,403.732 1647.68,403.732 1647.68,402.963 1651.64,402.963 1651.64,428.27 1655.6,428.27 1655.6,452.904 1659.56,452.904 1659.56,476.492 1663.52,476.492 1663.52,498.692 1667.48,498.692 1667.48,519.201 1671.45,519.201 1671.45,511.922 1675.41,511.922 1675.41,503.231 1679.37,503.231 1679.37,493.178 1683.33,493.178 1683.33,481.839 1687.29,481.839 1687.29,469.318 1691.25,469.318 1691.25,455.737 1695.22,455.737 1695.22,441.239 1699.18,441.239 1699.18,425.981 1703.14,425.981 1703.14,410.134 1707.1,410.134 1707.1,393.874 1711.06,393.874 1711.06,403.217 1715.03,403.217 1715.03,411.752 1718.99,411.752 1718.99,419.438 1722.95,419.438 1722.95,426.251 1726.91,426.251 1726.91,432.186 1730.87,432.186 1730.87,437.252 1734.83,437.252 1734.83,441.475 1738.8,441.475 1738.8,444.895 1742.76,444.895 1742.76,447.566 1746.72,447.566 1746.72,449.555 1750.68,449.555 1750.68,425.105 1754.64,425.105 1754.64,400.895 1758.61,400.895 1758.61,377.239 1762.57,377.239 1762.57,354.429 1766.53,354.429 1766.53,332.735 1770.49,332.735 1770.49,312.4 1774.45,312.4 1774.45,293.632 1778.41,293.632 1778.41,276.604 1782.38,276.604 1782.38,261.453 1786.34,261.453 1786.34,248.275 1790.3,248.275 1790.3,262.958 1794.26,262.958 1794.26,278.926 1798.22,278.926 1798.22,295.934 1802.19,295.934 1802.19,313.725 1806.15,313.725 1806.15,332.033 1810.11,332.033 1810.11,324.754 1814.07,324.754 1814.07,318.215 1818.03,318.215 1818.03,312.376 1821.99,312.376 1821.99,307.184 1825.96,307.184 1825.96,302.579 1829.92,302.579 1829.92,324.323 1833.88,324.323 1833.88,345.747 1837.84,345.747 1837.84,366.549 1841.8,366.549 1841.8,386.448 1845.76,386.448 1845.76,405.187 1849.73,405.187 1849.73,422.54 1853.69,422.54 1853.69,438.313 1857.65,438.313 1857.65,452.346 1861.61,452.346 1861.61,464.521 1865.57,464.521 1865.57,474.754 1869.54,474.754 1869.54,457.173 1873.5,457.173 1873.5,438.367 1877.46,438.367 1877.46,418.592 1881.42,418.592 1881.42,398.118 1885.38,398.118 1885.38,377.219 1889.34,377.219 1889.34,382.006 1893.31,382.006 1893.31,386.159 1897.27,386.159 1897.27,389.722 1901.23,389.722 1901.23,392.749 1905.19,392.749 1905.19,395.302 1909.15,395.302 1909.15,397.449 1913.12,397.449 1913.12,399.262 1917.08,399.262 1917.08,400.818 1921.04,400.818 1921.04,402.196 1925,402.196 1925,403.473 1928.96,403.473 1928.96,404.727 1932.92,404.727 1932.92,406.031 1936.89,406.031 1936.89,407.457 1940.85,407.457 1940.85,409.068 1944.81,409.068 1944.81,410.922 1948.77,410.922 1948.77,413.071 1952.73,413.071 1952.73,415.557 1956.7,415.557 1956.7,418.413 1960.66,418.413 1960.66,421.663 1964.62,421.663 1964.62,425.324 1968.58,425.324 1968.58,429.4 1972.54,429.4 1972.54,433.887 1976.5,433.887 1976.5,438.774 1980.47,438.774 1980.47,444.04 1984.43,444.04 1984.43,449.655 1988.39,449.655 1988.39,455.585 1992.35,455.585 1992.35,461.788 1996.31,461.788 1996.31,468.218 2000.27,468.218 2000.27,474.824 2004.24,474.824 2004.24,481.553 2008.2,481.553 2008.2,462.518 2012.16,462.518 2012.16,444.256 2016.12,444.256 2016.12,426.934 2020.08,426.934 2020.08,410.695 2024.05,410.695 2024.05,395.658 2028.01,395.658 2028.01,381.918 2031.97,381.918 2031.97,369.542 2035.93,369.542 2035.93,358.571 2039.89,358.571 2039.89,349.018 2043.85,349.018 2043.85,340.869 2047.82,340.869 2047.82,334.085 2051.78,334.085 2051.78,328.603 2055.74,328.603 2055.74,324.338 2059.7,324.338 2059.7,321.184 2063.66,321.184 2063.66,319.018 2067.63,319.018 2067.63,317.704 2071.59,317.704 2071.59,317.094 2075.55,317.094 2075.55,317.031 2079.51,317.031 2079.51,317.356 2083.47,317.356 2083.47,317.905 2087.43,317.905 2087.43,318.518 2091.4,318.518 2091.4,319.041 2095.36,319.041 2095.36,319.324 2099.32,319.324 2099.32,319.232 2103.28,319.232 2103.28,318.639 2107.24,318.639 2107.24,317.437 2111.21,317.437 2111.21,315.532 2115.17,315.532 2115.17,312.849 2119.13,312.849 2119.13,309.332 2123.09,309.332 2123.09,304.945 2127.05,304.945 2127.05,299.669 2131.01,299.669 2131.01,293.508 2134.98,293.508 2134.98,286.481 2138.94,286.481 2138.94,278.628 2142.9,278.628 2142.9,270.002 2146.86,270.002 2146.86,286.506 2150.82,286.506 2150.82,301.629 2154.79,301.629 2154.79,315.244 2158.75,315.244 2158.75,327.257 2162.71,327.257 2162.71,337.606 2166.67,337.606 2166.67,346.264 2170.63,346.264 2170.63,353.234 2174.59,353.234 2174.59,358.554 2178.56,358.554 2178.56,362.29 2182.52,362.29 2182.52,364.536 2186.48,364.536 2186.48,365.414 2190.44,365.414 2190.44,365.064 2194.4,365.064 2194.4,363.648 2198.36,363.648 2198.36,361.341 2202.33,361.341 2202.33,358.332 2206.29,358.332 2206.29,328.98 2210.25,328.98 2210.25,300.078 2214.21,300.078 2214.21,272.041 2218.17,272.041 2218.17,245.259 2222.14,245.259 2222.14,220.085 2226.1,220.085 2226.1,196.832 2230.06,196.832 2230.06,175.768 2234.02,175.768 2234.02,157.11 2237.98,157.11 2237.98,141.024 2241.94,141.024 2241.94,127.621 2245.91,127.621 2245.91,116.957 2249.87,116.957 2249.87,109.033 2253.83,109.033 2253.83,103.801 2257.79,103.801 2257.79,101.158 2261.75,101.158 2261.75,100.957 2265.72,100.957 2265.72,128.841 2269.68,128.841 2269.68,157.988 2273.64,157.988 2273.64,187.92 2277.6,187.92 2277.6,218.155 2281.56,218.155 2281.56,248.217 2285.52,248.217 2285.52,251.814 2289.49,251.814 2289.49,255.107 2293.45,255.107 2293.45,257.914 "/>
<path clip-path="url(#clip140)" d="M257.204 1423.18 L2352.76 1423.18 L2352.76 847.244 L257.204 847.244  Z" fill="#ffffff" fill-rule="evenodd" fill-opacity="1"/>
<defs>
  <clipPath id="clip143">
    <rect x="257" y="847" width="2097" height="577"/>
  </clipPath>
</defs>
<polyline clip-path="url(#clip143)" style="stroke:#000000; stroke-linecap:round; stroke-linejoin:round; stroke-width:2; stroke-opacity:0.1; fill:none" points="316.512,1423.18 316.512,847.244 "/>
<polyline clip-path="url(#clip143)" style="stroke:#000000; stroke-linecap:round; stroke-linejoin:round; stroke-width:2; stroke-opacity:0.1; fill:none" points="712.692,1423.18 712.692,847.244 "/>
<polyline clip-path="url(#clip143)" style="stroke:#000000; stroke-linecap:round; stroke-linejoin:round; stroke-width:2; stroke-opacity:0.1; fill:none" points="1108.87,1423.18 1108.87,847.244 "/>
<polyline clip-path="url(#clip143)" style="stroke:#000000; stroke-linecap:round; stroke-linejoin:round; stroke-width:2; stroke-opacity:0.1; fill:none" points="1505.05,1423.18 1505.05,847.244 "/>
<polyline clip-path="url(#clip143)" style="stroke:#000000; stroke-linecap:round; stroke-linejoin:round; stroke-width:2; stroke-opacity:0.1; fill:none" points="1901.23,1423.18 1901.23,847.244 "/>
<polyline clip-path="url(#clip143)" style="stroke:#000000; stroke-linecap:round; stroke-linejoin:round; stroke-width:2; stroke-opacity:0.1; fill:none" points="2297.41,1423.18 2297.41,847.244 "/>
<polyline clip-path="url(#clip143)" style="stroke:#000000; stroke-linecap:round; stroke-linejoin:round; stroke-width:2; stroke-opacity:0.1; fill:none" points="257.204,1406.88 2352.76,1406.88 "/>
<polyline clip-path="url(#clip143)" style="stroke:#000000; stroke-linecap:round; stroke-linejoin:round; stroke-width:2; stroke-opacity:0.1; fill:none" points="257.204,1271.05 2352.76,1271.05 "/>
<polyline clip-path="url(#clip143)" style="stroke:#000000; stroke-linecap:round; stroke-linejoin:round; stroke-width:2; stroke-opacity:0.1; fill:none" points="257.204,1135.21 2352.76,1135.21 "/>
<polyline clip-path="url(#clip143)" style="stroke:#000000; stroke-linecap:round; stroke-linejoin:round; stroke-width:2; stroke-opacity:0.1; fill:none" points="257.204,999.378 2352.76,999.378 "/>
<polyline clip-path="url(#clip143)" style="stroke:#000000; stroke-linecap:round; stroke-linejoin:round; stroke-width:2; stroke-opacity:0.1; fill:none" points="257.204,863.544 2352.76,863.544 "/>
<polyline clip-path="url(#clip140)" style="stroke:#000000; stroke-linecap:round; stroke-linejoin:round; stroke-width:4; stroke-opacity:1; fill:none" points="257.204,1423.18 2352.76,1423.18 "/>
<polyline clip-path="url(#clip140)" style="stroke:#000000; stroke-linecap:round; stroke-linejoin:round; stroke-width:4; stroke-opacity:1; fill:none" points="316.512,1423.18 316.512,1404.28 "/>
<polyline clip-path="url(#clip140)" style="stroke:#000000; stroke-linecap:round; stroke-linejoin:round; stroke-width:4; stroke-opacity:1; fill:none" points="712.692,1423.18 712.692,1404.28 "/>
<polyline clip-path="url(#clip140)" style="stroke:#000000; stroke-linecap:round; stroke-linejoin:round; stroke-width:4; stroke-opacity:1; fill:none" points="1108.87,1423.18 1108.87,1404.28 "/>
<polyline clip-path="url(#clip140)" style="stroke:#000000; stroke-linecap:round; stroke-linejoin:round; stroke-width:4; stroke-opacity:1; fill:none" points="1505.05,1423.18 1505.05,1404.28 "/>
<polyline clip-path="url(#clip140)" style="stroke:#000000; stroke-linecap:round; stroke-linejoin:round; stroke-width:4; stroke-opacity:1; fill:none" points="1901.23,1423.18 1901.23,1404.28 "/>
<polyline clip-path="url(#clip140)" style="stroke:#000000; stroke-linecap:round; stroke-linejoin:round; stroke-width:4; stroke-opacity:1; fill:none" points="2297.41,1423.18 2297.41,1404.28 "/>
<path clip-path="url(#clip140)" d="M316.512 1454.1 Q312.901 1454.1 311.072 1457.66 Q309.267 1461.2 309.267 1468.33 Q309.267 1475.44 311.072 1479.01 Q312.901 1482.55 316.512 1482.55 Q320.146 1482.55 321.952 1479.01 Q323.781 1475.44 323.781 1468.33 Q323.781 1461.2 321.952 1457.66 Q320.146 1454.1 316.512 1454.1 M316.512 1450.39 Q322.322 1450.39 325.378 1455 Q328.456 1459.58 328.456 1468.33 Q328.456 1477.06 325.378 1481.67 Q322.322 1486.25 316.512 1486.25 Q310.702 1486.25 307.623 1481.67 Q304.568 1477.06 304.568 1468.33 Q304.568 1459.58 307.623 1455 Q310.702 1450.39 316.512 1450.39 Z" fill="#000000" fill-rule="nonzero" fill-opacity="1" /><path clip-path="url(#clip140)" d="M703.074 1481.64 L710.712 1481.64 L710.712 1455.28 L702.402 1456.95 L702.402 1452.69 L710.666 1451.02 L715.342 1451.02 L715.342 1481.64 L722.981 1481.64 L722.981 1485.58 L703.074 1485.58 L703.074 1481.64 Z" fill="#000000" fill-rule="nonzero" fill-opacity="1" /><path clip-path="url(#clip140)" d="M1103.52 1481.64 L1119.84 1481.64 L1119.84 1485.58 L1097.9 1485.58 L1097.9 1481.64 Q1100.56 1478.89 1105.14 1474.26 Q1109.75 1469.61 1110.93 1468.27 Q1113.18 1465.74 1114.06 1464.01 Q1114.96 1462.25 1114.96 1460.56 Q1114.96 1457.8 1113.01 1456.07 Q1111.09 1454.33 1107.99 1454.33 Q1105.79 1454.33 1103.34 1455.09 Q1100.91 1455.86 1098.13 1457.41 L1098.13 1452.69 Q1100.95 1451.55 1103.41 1450.97 Q1105.86 1450.39 1107.9 1450.39 Q1113.27 1450.39 1116.46 1453.08 Q1119.66 1455.77 1119.66 1460.26 Q1119.66 1462.39 1118.85 1464.31 Q1118.06 1466.2 1115.95 1468.8 Q1115.38 1469.47 1112.27 1472.69 Q1109.17 1475.88 1103.52 1481.64 Z" fill="#000000" fill-rule="nonzero" fill-opacity="1" /><path clip-path="url(#clip140)" d="M1509.3 1466.95 Q1512.65 1467.66 1514.53 1469.93 Q1516.43 1472.2 1516.43 1475.53 Q1516.43 1480.65 1512.91 1483.45 Q1509.39 1486.25 1502.91 1486.25 Q1500.73 1486.25 1498.42 1485.81 Q1496.13 1485.39 1493.67 1484.54 L1493.67 1480.02 Q1495.62 1481.16 1497.93 1481.74 Q1500.25 1482.32 1502.77 1482.32 Q1507.17 1482.32 1509.46 1480.58 Q1511.78 1478.84 1511.78 1475.53 Q1511.78 1472.48 1509.62 1470.77 Q1507.49 1469.03 1503.67 1469.03 L1499.65 1469.03 L1499.65 1465.19 L1503.86 1465.19 Q1507.31 1465.19 1509.14 1463.82 Q1510.96 1462.43 1510.96 1459.84 Q1510.96 1457.18 1509.07 1455.77 Q1507.19 1454.33 1503.67 1454.33 Q1501.75 1454.33 1499.55 1454.75 Q1497.35 1455.16 1494.72 1456.04 L1494.72 1451.88 Q1497.38 1451.14 1499.69 1450.77 Q1502.03 1450.39 1504.09 1450.39 Q1509.41 1450.39 1512.52 1452.83 Q1515.62 1455.23 1515.62 1459.35 Q1515.62 1462.22 1513.97 1464.21 Q1512.33 1466.18 1509.3 1466.95 Z" fill="#000000" fill-rule="nonzero" fill-opacity="1" /><path clip-path="url(#clip140)" d="M1904.24 1455.09 L1892.43 1473.54 L1904.24 1473.54 L1904.24 1455.09 M1903.01 1451.02 L1908.89 1451.02 L1908.89 1473.54 L1913.82 1473.54 L1913.82 1477.43 L1908.89 1477.43 L1908.89 1485.58 L1904.24 1485.58 L1904.24 1477.43 L1888.64 1477.43 L1888.64 1472.92 L1903.01 1451.02 Z" fill="#000000" fill-rule="nonzero" fill-opacity="1" /><path clip-path="url(#clip140)" d="M2287.69 1451.02 L2306.04 1451.02 L2306.04 1454.96 L2291.97 1454.96 L2291.97 1463.43 Q2292.99 1463.08 2294.01 1462.92 Q2295.03 1462.73 2296.04 1462.73 Q2301.83 1462.73 2305.21 1465.9 Q2308.59 1469.08 2308.59 1474.49 Q2308.59 1480.07 2305.12 1483.17 Q2301.65 1486.25 2295.33 1486.25 Q2293.15 1486.25 2290.88 1485.88 Q2288.64 1485.51 2286.23 1484.77 L2286.23 1480.07 Q2288.31 1481.2 2290.53 1481.76 Q2292.76 1482.32 2295.23 1482.32 Q2299.24 1482.32 2301.58 1480.21 Q2303.91 1478.1 2303.91 1474.49 Q2303.91 1470.88 2301.58 1468.77 Q2299.24 1466.67 2295.23 1466.67 Q2293.36 1466.67 2291.48 1467.08 Q2289.63 1467.5 2287.69 1468.38 L2287.69 1451.02 Z" fill="#000000" fill-rule="nonzero" fill-opacity="1" /><path clip-path="url(#clip140)" d="M1175.15 1520.52 L1215.35 1520.52 L1215.35 1525.93 L1198.48 1525.93 L1198.48 1568.04 L1192.02 1568.04 L1192.02 1525.93 L1175.15 1525.93 L1175.15 1520.52 Z" fill="#000000" fill-rule="nonzero" fill-opacity="1" /><path clip-path="url(#clip140)" d="M1219.3 1532.4 L1225.15 1532.4 L1225.15 1568.04 L1219.3 1568.04 L1219.3 1532.4 M1219.3 1518.52 L1225.15 1518.52 L1225.15 1525.93 L1219.3 1525.93 L1219.3 1518.52 Z" fill="#000000" fill-rule="nonzero" fill-opacity="1" /><path clip-path="url(#clip140)" d="M1265.16 1539.24 Q1267.36 1535.29 1270.41 1533.41 Q1273.47 1531.54 1277.61 1531.54 Q1283.18 1531.54 1286.2 1535.45 Q1289.22 1539.33 1289.22 1546.53 L1289.22 1568.04 L1283.34 1568.04 L1283.34 1546.72 Q1283.34 1541.59 1281.52 1539.11 Q1279.71 1536.63 1275.98 1536.63 Q1271.43 1536.63 1268.79 1539.65 Q1266.15 1542.68 1266.15 1547.9 L1266.15 1568.04 L1260.26 1568.04 L1260.26 1546.72 Q1260.26 1541.56 1258.45 1539.11 Q1256.63 1536.63 1252.84 1536.63 Q1248.36 1536.63 1245.72 1539.68 Q1243.07 1542.71 1243.07 1547.9 L1243.07 1568.04 L1237.19 1568.04 L1237.19 1532.4 L1243.07 1532.4 L1243.07 1537.93 Q1245.08 1534.66 1247.88 1533.1 Q1250.68 1531.54 1254.53 1531.54 Q1258.41 1531.54 1261.12 1533.51 Q1263.86 1535.48 1265.16 1539.24 Z" fill="#000000" fill-rule="nonzero" fill-opacity="1" /><path clip-path="url(#clip140)" d="M1331.4 1548.76 L1331.4 1551.62 L1304.47 1551.62 Q1304.85 1557.67 1308.1 1560.85 Q1311.38 1564 1317.2 1564 Q1320.58 1564 1323.73 1563.17 Q1326.91 1562.35 1330.03 1560.69 L1330.03 1566.23 Q1326.88 1567.57 1323.57 1568.27 Q1320.26 1568.97 1316.85 1568.97 Q1308.32 1568.97 1303.32 1564 Q1298.36 1559.04 1298.36 1550.57 Q1298.36 1541.82 1303.07 1536.69 Q1307.81 1531.54 1315.83 1531.54 Q1323.03 1531.54 1327.2 1536.18 Q1331.4 1540.8 1331.4 1548.76 M1325.54 1547.04 Q1325.48 1542.23 1322.84 1539.37 Q1320.23 1536.5 1315.9 1536.5 Q1311 1536.5 1308.04 1539.27 Q1305.11 1542.04 1304.66 1547.07 L1325.54 1547.04 Z" fill="#000000" fill-rule="nonzero" fill-opacity="1" /><path clip-path="url(#clip140)" d="M1375.8 1518.58 Q1371.53 1525.9 1369.46 1533.06 Q1367.4 1540.23 1367.4 1547.58 Q1367.4 1554.93 1369.46 1562.16 Q1371.57 1569.35 1375.8 1576.64 L1370.71 1576.64 Q1365.93 1569.16 1363.54 1561.93 Q1361.19 1554.71 1361.19 1547.58 Q1361.19 1540.48 1363.54 1533.29 Q1365.9 1526.09 1370.71 1518.58 L1375.8 1518.58 Z" fill="#000000" fill-rule="nonzero" fill-opacity="1" /><path clip-path="url(#clip140)" d="M1409.89 1533.45 L1409.89 1538.98 Q1407.4 1537.71 1404.73 1537.07 Q1402.06 1536.44 1399.19 1536.44 Q1394.83 1536.44 1392.64 1537.77 Q1390.47 1539.11 1390.47 1541.79 Q1390.47 1543.82 1392.03 1545 Q1393.59 1546.15 1398.3 1547.2 L1400.31 1547.64 Q1406.54 1548.98 1409.15 1551.43 Q1411.8 1553.85 1411.8 1558.21 Q1411.8 1563.17 1407.85 1566.07 Q1403.93 1568.97 1397.06 1568.97 Q1394.2 1568.97 1391.08 1568.39 Q1387.99 1567.85 1384.55 1566.74 L1384.55 1560.69 Q1387.8 1562.38 1390.95 1563.24 Q1394.1 1564.07 1397.19 1564.07 Q1401.32 1564.07 1403.55 1562.66 Q1405.78 1561.23 1405.78 1558.65 Q1405.78 1556.27 1404.16 1554.99 Q1402.57 1553.72 1397.12 1552.54 L1395.09 1552.07 Q1389.64 1550.92 1387.22 1548.56 Q1384.81 1546.18 1384.81 1542.04 Q1384.81 1537.01 1388.37 1534.27 Q1391.94 1531.54 1398.49 1531.54 Q1401.74 1531.54 1404.6 1532.01 Q1407.47 1532.49 1409.89 1533.45 Z" fill="#000000" fill-rule="nonzero" fill-opacity="1" /><path clip-path="url(#clip140)" d="M1420.2 1518.58 L1425.29 1518.58 Q1430.07 1526.09 1432.42 1533.29 Q1434.81 1540.48 1434.81 1547.58 Q1434.81 1554.71 1432.42 1561.93 Q1430.07 1569.16 1425.29 1576.64 L1420.2 1576.64 Q1424.43 1569.35 1426.5 1562.16 Q1428.6 1554.93 1428.6 1547.58 Q1428.6 1540.23 1426.5 1533.06 Q1424.43 1525.9 1420.2 1518.58 Z" fill="#000000" fill-rule="nonzero" fill-opacity="1" /><polyline clip-path="url(#clip140)" style="stroke:#000000; stroke-linecap:round; stroke-linejoin:round; stroke-width:4; stroke-opacity:1; fill:none" points="257.204,1423.18 257.204,847.244 "/>
<polyline clip-path="url(#clip140)" style="stroke:#000000; stroke-linecap:round; stroke-linejoin:round; stroke-width:4; stroke-opacity:1; fill:none" points="257.204,1406.88 276.102,1406.88 "/>
<polyline clip-path="url(#clip140)" style="stroke:#000000; stroke-linecap:round; stroke-linejoin:round; stroke-width:4; stroke-opacity:1; fill:none" points="257.204,1271.05 276.102,1271.05 "/>
<polyline clip-path="url(#clip140)" style="stroke:#000000; stroke-linecap:round; stroke-linejoin:round; stroke-width:4; stroke-opacity:1; fill:none" points="257.204,1135.21 276.102,1135.21 "/>
<polyline clip-path="url(#clip140)" style="stroke:#000000; stroke-linecap:round; stroke-linejoin:round; stroke-width:4; stroke-opacity:1; fill:none" points="257.204,999.378 276.102,999.378 "/>
<polyline clip-path="url(#clip140)" style="stroke:#000000; stroke-linecap:round; stroke-linejoin:round; stroke-width:4; stroke-opacity:1; fill:none" points="257.204,863.544 276.102,863.544 "/>
<path clip-path="url(#clip140)" d="M114.26 1407.33 L143.936 1407.33 L143.936 1411.27 L114.26 1411.27 L114.26 1407.33 Z" fill="#000000" fill-rule="nonzero" fill-opacity="1" /><path clip-path="url(#clip140)" d="M154.839 1420.22 L162.477 1420.22 L162.477 1393.86 L154.167 1395.53 L154.167 1391.27 L162.431 1389.6 L167.107 1389.6 L167.107 1420.22 L174.746 1420.22 L174.746 1424.16 L154.839 1424.16 L154.839 1420.22 Z" fill="#000000" fill-rule="nonzero" fill-opacity="1" /><path clip-path="url(#clip140)" d="M184.19 1418.28 L189.075 1418.28 L189.075 1424.16 L184.19 1424.16 L184.19 1418.28 Z" fill="#000000" fill-rule="nonzero" fill-opacity="1" /><path clip-path="url(#clip140)" d="M209.26 1392.68 Q205.649 1392.68 203.82 1396.24 Q202.014 1399.78 202.014 1406.91 Q202.014 1414.02 203.82 1417.59 Q205.649 1421.13 209.26 1421.13 Q212.894 1421.13 214.699 1417.59 Q216.528 1414.02 216.528 1406.91 Q216.528 1399.78 214.699 1396.24 Q212.894 1392.68 209.26 1392.68 M209.26 1388.97 Q215.07 1388.97 218.125 1393.58 Q221.204 1398.16 221.204 1406.91 Q221.204 1415.64 218.125 1420.25 Q215.07 1424.83 209.26 1424.83 Q203.449 1424.83 200.371 1420.25 Q197.315 1415.64 197.315 1406.91 Q197.315 1398.16 200.371 1393.58 Q203.449 1388.97 209.26 1388.97 Z" fill="#000000" fill-rule="nonzero" fill-opacity="1" /><path clip-path="url(#clip140)" d="M115.256 1271.5 L144.931 1271.5 L144.931 1275.43 L115.256 1275.43 L115.256 1271.5 Z" fill="#000000" fill-rule="nonzero" fill-opacity="1" /><path clip-path="url(#clip140)" d="M165.024 1256.84 Q161.413 1256.84 159.584 1260.41 Q157.778 1263.95 157.778 1271.08 Q157.778 1278.19 159.584 1281.75 Q161.413 1285.29 165.024 1285.29 Q168.658 1285.29 170.464 1281.75 Q172.292 1278.19 172.292 1271.08 Q172.292 1263.95 170.464 1260.41 Q168.658 1256.84 165.024 1256.84 M165.024 1253.14 Q170.834 1253.14 173.889 1257.75 Q176.968 1262.33 176.968 1271.08 Q176.968 1279.81 173.889 1284.41 Q170.834 1289 165.024 1289 Q159.214 1289 156.135 1284.41 Q153.079 1279.81 153.079 1271.08 Q153.079 1262.33 156.135 1257.75 Q159.214 1253.14 165.024 1253.14 Z" fill="#000000" fill-rule="nonzero" fill-opacity="1" /><path clip-path="url(#clip140)" d="M185.186 1282.45 L190.07 1282.45 L190.07 1288.33 L185.186 1288.33 L185.186 1282.45 Z" fill="#000000" fill-rule="nonzero" fill-opacity="1" /><path clip-path="url(#clip140)" d="M200.301 1253.77 L218.658 1253.77 L218.658 1257.7 L204.584 1257.7 L204.584 1266.17 Q205.602 1265.83 206.621 1265.66 Q207.639 1265.48 208.658 1265.48 Q214.445 1265.48 217.824 1268.65 Q221.204 1271.82 221.204 1277.24 Q221.204 1282.82 217.732 1285.92 Q214.26 1289 207.94 1289 Q205.764 1289 203.496 1288.63 Q201.25 1288.26 198.843 1287.52 L198.843 1282.82 Q200.926 1283.95 203.149 1284.51 Q205.371 1285.06 207.848 1285.06 Q211.852 1285.06 214.19 1282.96 Q216.528 1280.85 216.528 1277.24 Q216.528 1273.63 214.19 1271.52 Q211.852 1269.41 207.848 1269.41 Q205.973 1269.41 204.098 1269.83 Q202.246 1270.25 200.301 1271.13 L200.301 1253.77 Z" fill="#000000" fill-rule="nonzero" fill-opacity="1" /><path clip-path="url(#clip140)" d="M164.028 1121.01 Q160.417 1121.01 158.589 1124.58 Q156.783 1128.12 156.783 1135.25 Q156.783 1142.35 158.589 1145.92 Q160.417 1149.46 164.028 1149.46 Q167.663 1149.46 169.468 1145.92 Q171.297 1142.35 171.297 1135.25 Q171.297 1128.12 169.468 1124.58 Q167.663 1121.01 164.028 1121.01 M164.028 1117.31 Q169.839 1117.31 172.894 1121.91 Q175.973 1126.5 175.973 1135.25 Q175.973 1143.97 172.894 1148.58 Q169.839 1153.16 164.028 1153.16 Q158.218 1153.16 155.14 1148.58 Q152.084 1143.97 152.084 1135.25 Q152.084 1126.5 155.14 1121.91 Q158.218 1117.31 164.028 1117.31 Z" fill="#000000" fill-rule="nonzero" fill-opacity="1" /><path clip-path="url(#clip140)" d="M184.19 1146.61 L189.075 1146.61 L189.075 1152.49 L184.19 1152.49 L184.19 1146.61 Z" fill="#000000" fill-rule="nonzero" fill-opacity="1" /><path clip-path="url(#clip140)" d="M209.26 1121.01 Q205.649 1121.01 203.82 1124.58 Q202.014 1128.12 202.014 1135.25 Q202.014 1142.35 203.82 1145.92 Q205.649 1149.46 209.26 1149.46 Q212.894 1149.46 214.699 1145.92 Q216.528 1142.35 216.528 1135.25 Q216.528 1128.12 214.699 1124.58 Q212.894 1121.01 209.26 1121.01 M209.26 1117.31 Q215.07 1117.31 218.125 1121.91 Q221.204 1126.5 221.204 1135.25 Q221.204 1143.97 218.125 1148.58 Q215.07 1153.16 209.26 1153.16 Q203.449 1153.16 200.371 1148.58 Q197.315 1143.97 197.315 1135.25 Q197.315 1126.5 200.371 1121.91 Q203.449 1117.31 209.26 1117.31 Z" fill="#000000" fill-rule="nonzero" fill-opacity="1" /><path clip-path="url(#clip140)" d="M165.024 985.177 Q161.413 985.177 159.584 988.742 Q157.778 992.283 157.778 999.413 Q157.778 1006.52 159.584 1010.08 Q161.413 1013.63 165.024 1013.63 Q168.658 1013.63 170.464 1010.08 Q172.292 1006.52 172.292 999.413 Q172.292 992.283 170.464 988.742 Q168.658 985.177 165.024 985.177 M165.024 981.473 Q170.834 981.473 173.889 986.08 Q176.968 990.663 176.968 999.413 Q176.968 1008.14 173.889 1012.75 Q170.834 1017.33 165.024 1017.33 Q159.214 1017.33 156.135 1012.75 Q153.079 1008.14 153.079 999.413 Q153.079 990.663 156.135 986.08 Q159.214 981.473 165.024 981.473 Z" fill="#000000" fill-rule="nonzero" fill-opacity="1" /><path clip-path="url(#clip140)" d="M185.186 1010.78 L190.07 1010.78 L190.07 1016.66 L185.186 1016.66 L185.186 1010.78 Z" fill="#000000" fill-rule="nonzero" fill-opacity="1" /><path clip-path="url(#clip140)" d="M200.301 982.098 L218.658 982.098 L218.658 986.033 L204.584 986.033 L204.584 994.505 Q205.602 994.158 206.621 993.996 Q207.639 993.811 208.658 993.811 Q214.445 993.811 217.824 996.982 Q221.204 1000.15 221.204 1005.57 Q221.204 1011.15 217.732 1014.25 Q214.26 1017.33 207.94 1017.33 Q205.764 1017.33 203.496 1016.96 Q201.25 1016.59 198.843 1015.85 L198.843 1011.15 Q200.926 1012.28 203.149 1012.84 Q205.371 1013.39 207.848 1013.39 Q211.852 1013.39 214.19 1011.29 Q216.528 1009.18 216.528 1005.57 Q216.528 1001.96 214.19 999.853 Q211.852 997.746 207.848 997.746 Q205.973 997.746 204.098 998.163 Q202.246 998.579 200.301 999.459 L200.301 982.098 Z" fill="#000000" fill-rule="nonzero" fill-opacity="1" /><path clip-path="url(#clip140)" d="M154.839 876.889 L162.477 876.889 L162.477 850.523 L154.167 852.19 L154.167 847.931 L162.431 846.264 L167.107 846.264 L167.107 876.889 L174.746 876.889 L174.746 880.824 L154.839 880.824 L154.839 876.889 Z" fill="#000000" fill-rule="nonzero" fill-opacity="1" /><path clip-path="url(#clip140)" d="M184.19 874.945 L189.075 874.945 L189.075 880.824 L184.19 880.824 L184.19 874.945 Z" fill="#000000" fill-rule="nonzero" fill-opacity="1" /><path clip-path="url(#clip140)" d="M209.26 849.343 Q205.649 849.343 203.82 852.908 Q202.014 856.449 202.014 863.579 Q202.014 870.685 203.82 874.25 Q205.649 877.792 209.26 877.792 Q212.894 877.792 214.699 874.25 Q216.528 870.685 216.528 863.579 Q216.528 856.449 214.699 852.908 Q212.894 849.343 209.26 849.343 M209.26 845.639 Q215.07 845.639 218.125 850.246 Q221.204 854.829 221.204 863.579 Q221.204 872.306 218.125 876.912 Q215.07 881.495 209.26 881.495 Q203.449 881.495 200.371 876.912 Q197.315 872.306 197.315 863.579 Q197.315 854.829 200.371 850.246 Q203.449 845.639 209.26 845.639 Z" fill="#000000" fill-rule="nonzero" fill-opacity="1" /><path clip-path="url(#clip140)" d="M49.9359 1150.14 L28.3562 1150.14 L28.3562 1144.28 L49.7131 1144.28 Q54.7739 1144.28 57.3202 1142.31 Q59.8346 1140.34 59.8346 1136.39 Q59.8346 1131.65 56.8109 1128.91 Q53.7872 1126.14 48.5673 1126.14 L28.3562 1126.14 L28.3562 1120.28 L64.0042 1120.28 L64.0042 1126.14 L58.5296 1126.14 Q61.7762 1128.27 63.3676 1131.11 Q64.9272 1133.91 64.9272 1137.63 Q64.9272 1143.77 61.1078 1146.96 Q57.2883 1150.14 49.9359 1150.14 M27.4968 1135.4 L27.4968 1135.4 Z" fill="#000000" fill-rule="nonzero" fill-opacity="1" /><polyline clip-path="url(#clip143)" style="stroke:#009af9; stroke-linecap:round; stroke-linejoin:round; stroke-width:4; stroke-opacity:1; fill:none" points="316.512,1406.88 320.474,1406.88 324.436,1406.88 328.397,1406.88 332.359,1406.88 336.321,1406.88 336.321,863.544 340.283,863.544 344.245,863.544 348.206,863.544 352.168,863.544 356.13,863.544 356.13,1406.88 360.092,1406.88 364.054,1406.88 368.015,1406.88 371.977,1406.88 375.939,1406.88 379.901,1406.88 383.863,1406.88 387.824,1406.88 391.786,1406.88 395.748,1406.88 395.748,863.544 399.71,863.544 403.672,863.544 407.633,863.544 411.595,863.544 415.557,863.544 415.557,1406.88 419.519,1406.88 423.481,1406.88 427.442,1406.88 431.404,1406.88 435.366,1406.88 439.328,1406.88 443.29,1406.88 447.251,1406.88 451.213,1406.88 455.175,1406.88 455.175,863.544 459.137,863.544 463.099,863.544 467.06,863.544 471.022,863.544 474.984,863.544 478.946,863.544 482.907,863.544 486.869,863.544 490.831,863.544 494.793,863.544 498.755,863.544 502.716,863.544 506.678,863.544 510.64,863.544 514.602,863.544 518.564,863.544 522.525,863.544 526.487,863.544 530.449,863.544 534.411,863.544 534.411,1406.88 538.373,1406.88 542.334,1406.88 546.296,1406.88 550.258,1406.88 554.22,1406.88 554.22,863.544 558.182,863.544 562.143,863.544 566.105,863.544 570.067,863.544 574.029,863.544 577.991,863.544 581.952,863.544 585.914,863.544 589.876,863.544 593.838,863.544 597.8,863.544 601.761,863.544 605.723,863.544 609.685,863.544 613.647,863.544 613.647,1406.88 617.609,1406.88 621.57,1406.88 625.532,1406.88 629.494,1406.88 633.456,1406.88 637.418,1406.88 641.379,1406.88 645.341,1406.88 649.303,1406.88 653.265,1406.88 653.265,863.544 657.226,863.544 661.188,863.544 665.15,863.544 669.112,863.544 673.074,863.544 677.035,863.544 680.997,863.544 684.959,863.544 688.921,863.544 692.883,863.544 696.844,863.544 700.806,863.544 704.768,863.544 708.73,863.544 712.692,863.544 716.653,863.544 720.615,863.544 724.577,863.544 728.539,863.544 732.501,863.544 736.462,863.544 740.424,863.544 744.386,863.544 748.348,863.544 752.31,863.544 756.271,863.544 760.233,863.544 764.195,863.544 768.157,863.544 772.119,863.544 772.119,1406.88 776.08,1406.88 780.042,1406.88 784.004,1406.88 787.966,1406.88 791.928,1406.88 795.889,1406.88 799.851,1406.88 803.813,1406.88 807.775,1406.88 811.736,1406.88 811.736,863.544 815.698,863.544 819.66,863.544 823.622,863.544 827.584,863.544 831.545,863.544 831.545,1406.88 835.507,1406.88 839.469,1406.88 843.431,1406.88 847.393,1406.88 851.354,1406.88 855.316,1406.88 859.278,1406.88 863.24,1406.88 867.202,1406.88 871.163,1406.88 875.125,1406.88 879.087,1406.88 883.049,1406.88 887.011,1406.88 890.972,1406.88 894.934,1406.88 898.896,1406.88 902.858,1406.88 906.82,1406.88 910.781,1406.88 914.743,1406.88 918.705,1406.88 922.667,1406.88 926.629,1406.88 930.59,1406.88 934.552,1406.88 938.514,1406.88 942.476,1406.88 946.438,1406.88 950.399,1406.88 950.399,863.544 954.361,863.544 958.323,863.544 962.285,863.544 966.246,863.544 970.208,863.544 970.208,1406.88 974.17,1406.88 978.132,1406.88 982.094,1406.88 986.055,1406.88 990.017,1406.88 990.017,863.544 993.979,863.544 997.941,863.544 1001.9,863.544 1005.86,863.544 1009.83,863.544 1009.83,1406.88 1013.79,1406.88 1017.75,1406.88 1021.71,1406.88 1025.67,1406.88 1029.64,1406.88 1033.6,1406.88 1037.56,1406.88 1041.52,1406.88 1045.48,1406.88 1049.44,1406.88 1053.41,1406.88 1057.37,1406.88 1061.33,1406.88 1065.29,1406.88 1069.25,1406.88 1073.21,1406.88 1077.18,1406.88 1081.14,1406.88 1085.1,1406.88 1089.06,1406.88 1089.06,863.544 1093.02,863.544 1096.99,863.544 1100.95,863.544 1104.91,863.544 1108.87,863.544 1108.87,1406.88 1112.83,1406.88 1116.79,1406.88 1120.76,1406.88 1124.72,1406.88 1128.68,1406.88 1128.68,863.544 1132.64,863.544 1136.6,863.544 1140.57,863.544 1144.53,863.544 1148.49,863.544 1148.49,1406.88 1152.45,1406.88 1156.41,1406.88 1160.37,1406.88 1164.34,1406.88 1168.3,1406.88 1172.26,1406.88 1176.22,1406.88 1180.18,1406.88 1184.15,1406.88 1188.11,1406.88 1192.07,1406.88 1196.03,1406.88 1199.99,1406.88 1203.95,1406.88 1207.92,1406.88 1211.88,1406.88 1215.84,1406.88 1219.8,1406.88 1223.76,1406.88 1227.72,1406.88 1227.72,863.544 1231.69,863.544 1235.65,863.544 1239.61,863.544 1243.57,863.544 1247.53,863.544 1247.53,1406.88 1251.5,1406.88 1255.46,1406.88 1259.42,1406.88 1263.38,1406.88 1267.34,1406.88 1271.3,1406.88 1275.27,1406.88 1279.23,1406.88 1283.19,1406.88 1287.15,1406.88 1291.11,1406.88 1295.08,1406.88 1299.04,1406.88 1303,1406.88 1306.96,1406.88 1306.96,863.544 1310.92,863.544 1314.88,863.544 1318.85,863.544 1322.81,863.544 1326.77,863.544 1326.77,1406.88 1330.73,1406.88 1334.69,1406.88 1338.66,1406.88 1342.62,1406.88 1346.58,1406.88 1350.54,1406.88 1354.5,1406.88 1358.46,1406.88 1362.43,1406.88 1366.39,1406.88 1366.39,863.544 1370.35,863.544 1374.31,863.544 1378.27,863.544 1382.23,863.544 1386.2,863.544 1386.2,1406.88 1390.16,1406.88 1394.12,1406.88 1398.08,1406.88 1402.04,1406.88 1406.01,1406.88 1409.97,1406.88 1413.93,1406.88 1417.89,1406.88 1421.85,1406.88 1425.81,1406.88 1429.78,1406.88 1433.74,1406.88 1437.7,1406.88 1441.66,1406.88 1445.62,1406.88 1449.59,1406.88 1453.55,1406.88 1457.51,1406.88 1461.47,1406.88 1465.43,1406.88 1469.39,1406.88 1473.36,1406.88 1477.32,1406.88 1481.28,1406.88 1485.24,1406.88 1489.2,1406.88 1493.17,1406.88 1497.13,1406.88 1501.09,1406.88 1505.05,1406.88 1509.01,1406.88 1512.97,1406.88 1516.94,1406.88 1520.9,1406.88 1524.86,1406.88 1528.82,1406.88 1532.78,1406.88 1536.74,1406.88 1540.71,1406.88 1544.67,1406.88 1548.63,1406.88 1552.59,1406.88 1556.55,1406.88 1560.52,1406.88 1564.48,1406.88 1564.48,863.544 1568.44,863.544 1572.4,863.544 1576.36,863.544 1580.32,863.544 1584.29,863.544 1588.25,863.544 1592.21,863.544 1596.17,863.544 1600.13,863.544 1604.1,863.544 1608.06,863.544 1612.02,863.544 1615.98,863.544 1619.94,863.544 1623.9,863.544 1627.87,863.544 1631.83,863.544 1635.79,863.544 1639.75,863.544 1643.71,863.544 1643.71,1406.88 1647.68,1406.88 1651.64,1406.88 1655.6,1406.88 1659.56,1406.88 1663.52,1406.88 1663.52,863.544 1667.48,863.544 1671.45,863.544 1675.41,863.544 1679.37,863.544 1683.33,863.544 1687.29,863.544 1691.25,863.544 1695.22,863.544 1699.18,863.544 1703.14,863.544 1703.14,1406.88 1707.1,1406.88 1711.06,1406.88 1715.03,1406.88 1718.99,1406.88 1722.95,1406.88 1726.91,1406.88 1730.87,1406.88 1734.83,1406.88 1738.8,1406.88 1742.76,1406.88 1742.76,863.544 1746.72,863.544 1750.68,863.544 1754.64,863.544 1758.61,863.544 1762.57,863.544 1766.53,863.544 1770.49,863.544 1774.45,863.544 1778.41,863.544 1782.38,863.544 1782.38,1406.88 1786.34,1406.88 1790.3,1406.88 1794.26,1406.88 1798.22,1406.88 1802.19,1406.88 1802.19,863.544 1806.15,863.544 1810.11,863.544 1814.07,863.544 1818.03,863.544 1821.99,863.544 1821.99,1406.88 1825.96,1406.88 1829.92,1406.88 1833.88,1406.88 1837.84,1406.88 1841.8,1406.88 1845.76,1406.88 1849.73,1406.88 1853.69,1406.88 1857.65,1406.88 1861.61,1406.88 1861.61,863.544 1865.57,863.544 1869.54,863.544 1873.5,863.544 1877.46,863.544 1881.42,863.544 1881.42,1406.88 1885.38,1406.88 1889.34,1406.88 1893.31,1406.88 1897.27,1406.88 1901.23,1406.88 1905.19,1406.88 1909.15,1406.88 1913.12,1406.88 1917.08,1406.88 1921.04,1406.88 1925,1406.88 1928.96,1406.88 1932.92,1406.88 1936.89,1406.88 1940.85,1406.88 1944.81,1406.88 1948.77,1406.88 1952.73,1406.88 1956.7,1406.88 1960.66,1406.88 1964.62,1406.88 1968.58,1406.88 1972.54,1406.88 1976.5,1406.88 1980.47,1406.88 1984.43,1406.88 1988.39,1406.88 1992.35,1406.88 1996.31,1406.88 2000.27,1406.88 2000.27,863.544 2004.24,863.544 2008.2,863.544 2012.16,863.544 2016.12,863.544 2020.08,863.544 2024.05,863.544 2028.01,863.544 2031.97,863.544 2035.93,863.544 2039.89,863.544 2043.85,863.544 2047.82,863.544 2051.78,863.544 2055.74,863.544 2059.7,863.544 2063.66,863.544 2067.63,863.544 2071.59,863.544 2075.55,863.544 2079.51,863.544 2083.47,863.544 2087.43,863.544 2091.4,863.544 2095.36,863.544 2099.32,863.544 2103.28,863.544 2107.24,863.544 2111.21,863.544 2115.17,863.544 2119.13,863.544 2123.09,863.544 2127.05,863.544 2131.01,863.544 2134.98,863.544 2138.94,863.544 2138.94,1406.88 2142.9,1406.88 2146.86,1406.88 2150.82,1406.88 2154.79,1406.88 2158.75,1406.88 2162.71,1406.88 2166.67,1406.88 2170.63,1406.88 2174.59,1406.88 2178.56,1406.88 2182.52,1406.88 2186.48,1406.88 2190.44,1406.88 2194.4,1406.88 2198.36,1406.88 2198.36,863.544 2202.33,863.544 2206.29,863.544 2210.25,863.544 2214.21,863.544 2218.17,863.544 2222.14,863.544 2226.1,863.544 2230.06,863.544 2234.02,863.544 2237.98,863.544 2241.94,863.544 2245.91,863.544 2249.87,863.544 2253.83,863.544 2257.79,863.544 2257.79,1406.88 2261.75,1406.88 2265.72,1406.88 2269.68,1406.88 2273.64,1406.88 2277.6,1406.88 2277.6,863.544 2281.56,863.544 2285.52,863.544 2289.49,863.544 2293.45,863.544 "/>
</svg>
