<?xml version="1.0" encoding="utf-8"?>
<svg xmlns="http://www.w3.org/2000/svg" xmlns:xlink="http://www.w3.org/1999/xlink" width="600" height="400" viewBox="0 0 2400 1600">
<defs>
  <clipPath id="clip230">
    <rect x="0" y="0" width="2400" height="1600"/>
  </clipPath>
</defs>
<path clip-path="url(#clip230)" d="M0 1600 L2400 1600 L2400 0 L0 0  Z" fill="#ffffff" fill-rule="evenodd" fill-opacity="1"/>
<defs>
  <clipPath id="clip231">
    <rect x="480" y="0" width="1681" height="1600"/>
  </clipPath>
</defs>
<path clip-path="url(#clip230)" d="M255.977 1423.18 L2352.76 1423.18 L2352.76 47.2441 L255.977 47.2441  Z" fill="#ffffff" fill-rule="evenodd" fill-opacity="1"/>
<defs>
  <clipPath id="clip232">
    <rect x="255" y="47" width="2098" height="1377"/>
  </clipPath>
</defs>
<polyline clip-path="url(#clip232)" style="stroke:#000000; stroke-linecap:round; stroke-linejoin:round; stroke-width:2; stroke-opacity:0.1; fill:none" points="315.32,1423.18 315.32,47.2441 "/>
<polyline clip-path="url(#clip232)" style="stroke:#000000; stroke-linecap:round; stroke-linejoin:round; stroke-width:2; stroke-opacity:0.1; fill:none" points="711.731,1423.18 711.731,47.2441 "/>
<polyline clip-path="url(#clip232)" style="stroke:#000000; stroke-linecap:round; stroke-linejoin:round; stroke-width:2; stroke-opacity:0.1; fill:none" points="1108.14,1423.18 1108.14,47.2441 "/>
<polyline clip-path="url(#clip232)" style="stroke:#000000; stroke-linecap:round; stroke-linejoin:round; stroke-width:2; stroke-opacity:0.1; fill:none" points="1504.55,1423.18 1504.55,47.2441 "/>
<polyline clip-path="url(#clip232)" style="stroke:#000000; stroke-linecap:round; stroke-linejoin:round; stroke-width:2; stroke-opacity:0.1; fill:none" points="1900.97,1423.18 1900.97,47.2441 "/>
<polyline clip-path="url(#clip232)" style="stroke:#000000; stroke-linecap:round; stroke-linejoin:round; stroke-width:2; stroke-opacity:0.1; fill:none" points="2297.38,1423.18 2297.38,47.2441 "/>
<polyline clip-path="url(#clip232)" style="stroke:#000000; stroke-linecap:round; stroke-linejoin:round; stroke-width:2; stroke-opacity:0.1; fill:none" points="255.977,1205.92 2352.76,1205.92 "/>
<polyline clip-path="url(#clip232)" style="stroke:#000000; stroke-linecap:round; stroke-linejoin:round; stroke-width:2; stroke-opacity:0.1; fill:none" points="255.977,955.454 2352.76,955.454 "/>
<polyline clip-path="url(#clip232)" style="stroke:#000000; stroke-linecap:round; stroke-linejoin:round; stroke-width:2; stroke-opacity:0.1; fill:none" points="255.977,704.988 2352.76,704.988 "/>
<polyline clip-path="url(#clip232)" style="stroke:#000000; stroke-linecap:round; stroke-linejoin:round; stroke-width:2; stroke-opacity:0.1; fill:none" points="255.977,454.523 2352.76,454.523 "/>
<polyline clip-path="url(#clip232)" style="stroke:#000000; stroke-linecap:round; stroke-linejoin:round; stroke-width:2; stroke-opacity:0.1; fill:none" points="255.977,204.057 2352.76,204.057 "/>
<polyline clip-path="url(#clip230)" style="stroke:#000000; stroke-linecap:round; stroke-linejoin:round; stroke-width:4; stroke-opacity:1; fill:none" points="255.977,1423.18 2352.76,1423.18 "/>
<polyline clip-path="url(#clip230)" style="stroke:#000000; stroke-linecap:round; stroke-linejoin:round; stroke-width:4; stroke-opacity:1; fill:none" points="315.32,1423.18 315.32,1404.28 "/>
<polyline clip-path="url(#clip230)" style="stroke:#000000; stroke-linecap:round; stroke-linejoin:round; stroke-width:4; stroke-opacity:1; fill:none" points="711.731,1423.18 711.731,1404.28 "/>
<polyline clip-path="url(#clip230)" style="stroke:#000000; stroke-linecap:round; stroke-linejoin:round; stroke-width:4; stroke-opacity:1; fill:none" points="1108.14,1423.18 1108.14,1404.28 "/>
<polyline clip-path="url(#clip230)" style="stroke:#000000; stroke-linecap:round; stroke-linejoin:round; stroke-width:4; stroke-opacity:1; fill:none" points="1504.55,1423.18 1504.55,1404.28 "/>
<polyline clip-path="url(#clip230)" style="stroke:#000000; stroke-linecap:round; stroke-linejoin:round; stroke-width:4; stroke-opacity:1; fill:none" points="1900.97,1423.18 1900.97,1404.28 "/>
<polyline clip-path="url(#clip230)" style="stroke:#000000; stroke-linecap:round; stroke-linejoin:round; stroke-width:4; stroke-opacity:1; fill:none" points="2297.38,1423.18 2297.38,1404.28 "/>
<path clip-path="url(#clip230)" d="M315.32 1454.1 Q311.709 1454.1 309.88 1457.66 Q308.075 1461.2 308.075 1468.33 Q308.075 1475.44 309.88 1479.01 Q311.709 1482.55 315.32 1482.55 Q318.954 1482.55 320.76 1479.01 Q322.588 1475.44 322.588 1468.33 Q322.588 1461.2 320.76 1457.66 Q318.954 1454.1 315.32 1454.1 M315.32 1450.39 Q321.13 1450.39 324.186 1455 Q327.264 1459.58 327.264 1468.33 Q327.264 1477.06 324.186 1481.67 Q321.13 1486.25 315.32 1486.25 Q309.51 1486.25 306.431 1481.67 Q303.376 1477.06 303.376 1468.33 Q303.376 1459.58 306.431 1455 Q309.51 1450.39 315.32 1450.39 Z" fill="#000000" fill-rule="nonzero" fill-opacity="1" /><path clip-path="url(#clip230)" d="M702.113 1481.64 L709.752 1481.64 L709.752 1455.28 L701.442 1456.95 L701.442 1452.69 L709.706 1451.02 L714.382 1451.02 L714.382 1481.64 L722.021 1481.64 L722.021 1485.58 L702.113 1485.58 L702.113 1481.64 Z" fill="#000000" fill-rule="nonzero" fill-opacity="1" /><path clip-path="url(#clip230)" d="M1102.8 1481.64 L1119.12 1481.64 L1119.12 1485.58 L1097.17 1485.58 L1097.17 1481.64 Q1099.83 1478.89 1104.42 1474.26 Q1109.02 1469.61 1110.2 1468.27 Q1112.45 1465.74 1113.33 1464.01 Q1114.23 1462.25 1114.23 1460.56 Q1114.23 1457.8 1112.29 1456.07 Q1110.37 1454.33 1107.26 1454.33 Q1105.06 1454.33 1102.61 1455.09 Q1100.18 1455.86 1097.4 1457.41 L1097.4 1452.69 Q1100.23 1451.55 1102.68 1450.97 Q1105.13 1450.39 1107.17 1450.39 Q1112.54 1450.39 1115.74 1453.08 Q1118.93 1455.77 1118.93 1460.26 Q1118.93 1462.39 1118.12 1464.31 Q1117.33 1466.2 1115.23 1468.8 Q1114.65 1469.47 1111.55 1472.69 Q1108.44 1475.88 1102.8 1481.64 Z" fill="#000000" fill-rule="nonzero" fill-opacity="1" /><path clip-path="url(#clip230)" d="M1508.8 1466.95 Q1512.16 1467.66 1514.03 1469.93 Q1515.93 1472.2 1515.93 1475.53 Q1515.93 1480.65 1512.41 1483.45 Q1508.89 1486.25 1502.41 1486.25 Q1500.24 1486.25 1497.92 1485.81 Q1495.63 1485.39 1493.18 1484.54 L1493.18 1480.02 Q1495.12 1481.16 1497.44 1481.74 Q1499.75 1482.32 1502.27 1482.32 Q1506.67 1482.32 1508.96 1480.58 Q1511.28 1478.84 1511.28 1475.53 Q1511.28 1472.48 1509.13 1470.77 Q1507 1469.03 1503.18 1469.03 L1499.15 1469.03 L1499.15 1465.19 L1503.36 1465.19 Q1506.81 1465.19 1508.64 1463.82 Q1510.47 1462.43 1510.47 1459.84 Q1510.47 1457.18 1508.57 1455.77 Q1506.7 1454.33 1503.18 1454.33 Q1501.26 1454.33 1499.06 1454.75 Q1496.86 1455.16 1494.22 1456.04 L1494.22 1451.88 Q1496.88 1451.14 1499.2 1450.77 Q1501.53 1450.39 1503.59 1450.39 Q1508.92 1450.39 1512.02 1452.83 Q1515.12 1455.23 1515.12 1459.35 Q1515.12 1462.22 1513.48 1464.21 Q1511.83 1466.18 1508.8 1466.95 Z" fill="#000000" fill-rule="nonzero" fill-opacity="1" /><path clip-path="url(#clip230)" d="M1903.98 1455.09 L1892.17 1473.54 L1903.98 1473.54 L1903.98 1455.09 M1902.75 1451.02 L1908.63 1451.02 L1908.63 1473.54 L1913.56 1473.54 L1913.56 1477.43 L1908.63 1477.43 L1908.63 1485.58 L1903.98 1485.58 L1903.98 1477.43 L1888.37 1477.43 L1888.37 1472.92 L1902.75 1451.02 Z" fill="#000000" fill-rule="nonzero" fill-opacity="1" /><path clip-path="url(#clip230)" d="M2287.66 1451.02 L2306.01 1451.02 L2306.01 1454.96 L2291.94 1454.96 L2291.94 1463.43 Q2292.96 1463.08 2293.97 1462.92 Q2294.99 1462.73 2296.01 1462.73 Q2301.8 1462.73 2305.18 1465.9 Q2308.56 1469.08 2308.56 1474.49 Q2308.56 1480.07 2305.09 1483.17 Q2301.61 1486.25 2295.29 1486.25 Q2293.12 1486.25 2290.85 1485.88 Q2288.6 1485.51 2286.2 1484.77 L2286.2 1480.07 Q2288.28 1481.2 2290.5 1481.76 Q2292.72 1482.32 2295.2 1482.32 Q2299.21 1482.32 2301.54 1480.21 Q2303.88 1478.1 2303.88 1474.49 Q2303.88 1470.88 2301.54 1468.77 Q2299.21 1466.67 2295.2 1466.67 Q2293.33 1466.67 2291.45 1467.08 Q2289.6 1467.5 2287.66 1468.38 L2287.66 1451.02 Z" fill="#000000" fill-rule="nonzero" fill-opacity="1" /><path clip-path="url(#clip230)" d="M1174.54 1520.52 L1214.74 1520.52 L1214.74 1525.93 L1197.87 1525.93 L1197.87 1568.04 L1191.41 1568.04 L1191.41 1525.93 L1174.54 1525.93 L1174.54 1520.52 Z" fill="#000000" fill-rule="nonzero" fill-opacity="1" /><path clip-path="url(#clip230)" d="M1218.68 1532.4 L1224.54 1532.4 L1224.54 1568.04 L1218.68 1568.04 L1218.68 1532.4 M1218.68 1518.52 L1224.54 1518.52 L1224.54 1525.93 L1218.68 1525.93 L1218.68 1518.52 Z" fill="#000000" fill-rule="nonzero" fill-opacity="1" /><path clip-path="url(#clip230)" d="M1264.55 1539.24 Q1266.75 1535.29 1269.8 1533.41 Q1272.86 1531.54 1276.99 1531.54 Q1282.56 1531.54 1285.59 1535.45 Q1288.61 1539.33 1288.61 1546.53 L1288.61 1568.04 L1282.72 1568.04 L1282.72 1546.72 Q1282.72 1541.59 1280.91 1539.11 Q1279.09 1536.63 1275.37 1536.63 Q1270.82 1536.63 1268.18 1539.65 Q1265.54 1542.68 1265.54 1547.9 L1265.54 1568.04 L1259.65 1568.04 L1259.65 1546.72 Q1259.65 1541.56 1257.83 1539.11 Q1256.02 1536.63 1252.23 1536.63 Q1247.74 1536.63 1245.1 1539.68 Q1242.46 1542.71 1242.46 1547.9 L1242.46 1568.04 L1236.57 1568.04 L1236.57 1532.4 L1242.46 1532.4 L1242.46 1537.93 Q1244.47 1534.66 1247.27 1533.1 Q1250.07 1531.54 1253.92 1531.54 Q1257.8 1531.54 1260.51 1533.51 Q1263.24 1535.48 1264.55 1539.24 Z" fill="#000000" fill-rule="nonzero" fill-opacity="1" /><path clip-path="url(#clip230)" d="M1330.78 1548.76 L1330.78 1551.62 L1303.86 1551.62 Q1304.24 1557.67 1307.49 1560.85 Q1310.76 1564 1316.59 1564 Q1319.96 1564 1323.11 1563.17 Q1326.3 1562.35 1329.42 1560.69 L1329.42 1566.23 Q1326.26 1567.57 1322.95 1568.27 Q1319.64 1568.97 1316.24 1568.97 Q1307.71 1568.97 1302.71 1564 Q1297.75 1559.04 1297.75 1550.57 Q1297.75 1541.82 1302.46 1536.69 Q1307.2 1531.54 1315.22 1531.54 Q1322.41 1531.54 1326.58 1536.18 Q1330.78 1540.8 1330.78 1548.76 M1324.93 1547.04 Q1324.86 1542.23 1322.22 1539.37 Q1319.61 1536.5 1315.28 1536.5 Q1310.38 1536.5 1307.42 1539.27 Q1304.49 1542.04 1304.05 1547.07 L1324.93 1547.04 Z" fill="#000000" fill-rule="nonzero" fill-opacity="1" /><path clip-path="url(#clip230)" d="M1360.58 1518.52 L1374.07 1518.52 L1374.07 1523.07 L1366.43 1523.07 L1366.43 1572.09 L1374.07 1572.09 L1374.07 1576.64 L1360.58 1576.64 L1360.58 1518.52 Z" fill="#000000" fill-rule="nonzero" fill-opacity="1" /><path clip-path="url(#clip230)" d="M1409.27 1533.45 L1409.27 1538.98 Q1406.79 1537.71 1404.12 1537.07 Q1401.44 1536.44 1398.58 1536.44 Q1394.22 1536.44 1392.02 1537.77 Q1389.86 1539.11 1389.86 1541.79 Q1389.86 1543.82 1391.42 1545 Q1392.98 1546.15 1397.69 1547.2 L1399.69 1547.64 Q1405.93 1548.98 1408.54 1551.43 Q1411.18 1553.85 1411.18 1558.21 Q1411.18 1563.17 1407.24 1566.07 Q1403.32 1568.97 1396.45 1568.97 Q1393.58 1568.97 1390.46 1568.39 Q1387.38 1567.85 1383.94 1566.74 L1383.94 1560.69 Q1387.18 1562.38 1390.34 1563.24 Q1393.49 1564.07 1396.57 1564.07 Q1400.71 1564.07 1402.94 1562.66 Q1405.17 1561.23 1405.17 1558.65 Q1405.17 1556.27 1403.54 1554.99 Q1401.95 1553.72 1396.51 1552.54 L1394.47 1552.07 Q1389.03 1550.92 1386.61 1548.56 Q1384.19 1546.18 1384.19 1542.04 Q1384.19 1537.01 1387.76 1534.27 Q1391.32 1531.54 1397.88 1531.54 Q1401.13 1531.54 1403.99 1532.01 Q1406.85 1532.49 1409.27 1533.45 Z" fill="#000000" fill-rule="nonzero" fill-opacity="1" /><path clip-path="url(#clip230)" d="M1434.2 1518.52 L1434.2 1576.64 L1420.7 1576.64 L1420.7 1572.09 L1428.31 1572.09 L1428.31 1523.07 L1420.7 1523.07 L1420.7 1518.52 L1434.2 1518.52 Z" fill="#000000" fill-rule="nonzero" fill-opacity="1" /><polyline clip-path="url(#clip230)" style="stroke:#000000; stroke-linecap:round; stroke-linejoin:round; stroke-width:4; stroke-opacity:1; fill:none" points="255.977,1423.18 255.977,47.2441 "/>
<polyline clip-path="url(#clip230)" style="stroke:#000000; stroke-linecap:round; stroke-linejoin:round; stroke-width:4; stroke-opacity:1; fill:none" points="255.977,1205.92 274.875,1205.92 "/>
<polyline clip-path="url(#clip230)" style="stroke:#000000; stroke-linecap:round; stroke-linejoin:round; stroke-width:4; stroke-opacity:1; fill:none" points="255.977,955.454 274.875,955.454 "/>
<polyline clip-path="url(#clip230)" style="stroke:#000000; stroke-linecap:round; stroke-linejoin:round; stroke-width:4; stroke-opacity:1; fill:none" points="255.977,704.988 274.875,704.988 "/>
<polyline clip-path="url(#clip230)" style="stroke:#000000; stroke-linecap:round; stroke-linejoin:round; stroke-width:4; stroke-opacity:1; fill:none" points="255.977,454.523 274.875,454.523 "/>
<polyline clip-path="url(#clip230)" style="stroke:#000000; stroke-linecap:round; stroke-linejoin:round; stroke-width:4; stroke-opacity:1; fill:none" points="255.977,204.057 274.875,204.057 "/>
<path clip-path="url(#clip230)" d="M114.631 1206.37 L144.306 1206.37 L144.306 1210.31 L114.631 1210.31 L114.631 1206.37 Z" fill="#000000" fill-rule="nonzero" fill-opacity="1" /><path clip-path="url(#clip230)" d="M164.399 1191.72 Q160.788 1191.72 158.959 1195.28 Q157.153 1198.82 157.153 1205.95 Q157.153 1213.06 158.959 1216.63 Q160.788 1220.17 164.399 1220.17 Q168.033 1220.17 169.839 1216.63 Q171.667 1213.06 171.667 1205.95 Q171.667 1198.82 169.839 1195.28 Q168.033 1191.72 164.399 1191.72 M164.399 1188.01 Q170.209 1188.01 173.264 1192.62 Q176.343 1197.2 176.343 1205.95 Q176.343 1214.68 173.264 1219.29 Q170.209 1223.87 164.399 1223.87 Q158.589 1223.87 155.51 1219.29 Q152.454 1214.68 152.454 1205.95 Q152.454 1197.2 155.51 1192.62 Q158.589 1188.01 164.399 1188.01 Z" fill="#000000" fill-rule="nonzero" fill-opacity="1" /><path clip-path="url(#clip230)" d="M184.561 1217.32 L189.445 1217.32 L189.445 1223.2 L184.561 1223.2 L184.561 1217.32 Z" fill="#000000" fill-rule="nonzero" fill-opacity="1" /><path clip-path="url(#clip230)" d="M203.658 1219.26 L219.977 1219.26 L219.977 1223.2 L198.033 1223.2 L198.033 1219.26 Q200.695 1216.51 205.278 1211.88 Q209.885 1207.23 211.065 1205.88 Q213.311 1203.36 214.19 1201.63 Q215.093 1199.87 215.093 1198.18 Q215.093 1195.42 213.149 1193.69 Q211.227 1191.95 208.125 1191.95 Q205.926 1191.95 203.473 1192.71 Q201.042 1193.48 198.264 1195.03 L198.264 1190.31 Q201.088 1189.17 203.542 1188.59 Q205.996 1188.01 208.033 1188.01 Q213.403 1188.01 216.598 1190.7 Q219.792 1193.38 219.792 1197.88 Q219.792 1200.01 218.982 1201.93 Q218.195 1203.82 216.088 1206.42 Q215.51 1207.09 212.408 1210.31 Q209.306 1213.5 203.658 1219.26 Z" fill="#000000" fill-rule="nonzero" fill-opacity="1" /><path clip-path="url(#clip230)" d="M114.26 955.905 L143.936 955.905 L143.936 959.84 L114.26 959.84 L114.26 955.905 Z" fill="#000000" fill-rule="nonzero" fill-opacity="1" /><path clip-path="url(#clip230)" d="M164.028 941.252 Q160.417 941.252 158.589 944.817 Q156.783 948.359 156.783 955.489 Q156.783 962.595 158.589 966.16 Q160.417 969.701 164.028 969.701 Q167.663 969.701 169.468 966.16 Q171.297 962.595 171.297 955.489 Q171.297 948.359 169.468 944.817 Q167.663 941.252 164.028 941.252 M164.028 937.549 Q169.839 937.549 172.894 942.155 Q175.973 946.739 175.973 955.489 Q175.973 964.215 172.894 968.822 Q169.839 973.405 164.028 973.405 Q158.218 973.405 155.14 968.822 Q152.084 964.215 152.084 955.489 Q152.084 946.739 155.14 942.155 Q158.218 937.549 164.028 937.549 Z" fill="#000000" fill-rule="nonzero" fill-opacity="1" /><path clip-path="url(#clip230)" d="M184.19 966.854 L189.075 966.854 L189.075 972.734 L184.19 972.734 L184.19 966.854 Z" fill="#000000" fill-rule="nonzero" fill-opacity="1" /><path clip-path="url(#clip230)" d="M200.07 968.799 L207.709 968.799 L207.709 942.433 L199.399 944.1 L199.399 939.84 L207.662 938.174 L212.338 938.174 L212.338 968.799 L219.977 968.799 L219.977 972.734 L200.07 972.734 L200.07 968.799 Z" fill="#000000" fill-rule="nonzero" fill-opacity="1" /><path clip-path="url(#clip230)" d="M162.802 690.787 Q159.19 690.787 157.362 694.352 Q155.556 697.893 155.556 705.023 Q155.556 712.129 157.362 715.694 Q159.19 719.236 162.802 719.236 Q166.436 719.236 168.241 715.694 Q170.07 712.129 170.07 705.023 Q170.07 697.893 168.241 694.352 Q166.436 690.787 162.802 690.787 M162.802 687.083 Q168.612 687.083 171.667 691.69 Q174.746 696.273 174.746 705.023 Q174.746 713.75 171.667 718.356 Q168.612 722.939 162.802 722.939 Q156.991 722.939 153.913 718.356 Q150.857 713.75 150.857 705.023 Q150.857 696.273 153.913 691.69 Q156.991 687.083 162.802 687.083 Z" fill="#000000" fill-rule="nonzero" fill-opacity="1" /><path clip-path="url(#clip230)" d="M182.963 716.389 L187.848 716.389 L187.848 722.268 L182.963 722.268 L182.963 716.389 Z" fill="#000000" fill-rule="nonzero" fill-opacity="1" /><path clip-path="url(#clip230)" d="M208.033 690.787 Q204.422 690.787 202.593 694.352 Q200.787 697.893 200.787 705.023 Q200.787 712.129 202.593 715.694 Q204.422 719.236 208.033 719.236 Q211.667 719.236 213.473 715.694 Q215.301 712.129 215.301 705.023 Q215.301 697.893 213.473 694.352 Q211.667 690.787 208.033 690.787 M208.033 687.083 Q213.843 687.083 216.898 691.69 Q219.977 696.273 219.977 705.023 Q219.977 713.75 216.898 718.356 Q213.843 722.939 208.033 722.939 Q202.223 722.939 199.144 718.356 Q196.088 713.75 196.088 705.023 Q196.088 696.273 199.144 691.69 Q202.223 687.083 208.033 687.083 Z" fill="#000000" fill-rule="nonzero" fill-opacity="1" /><path clip-path="url(#clip230)" d="M164.028 440.321 Q160.417 440.321 158.589 443.886 Q156.783 447.428 156.783 454.557 Q156.783 461.664 158.589 465.228 Q160.417 468.77 164.028 468.77 Q167.663 468.77 169.468 465.228 Q171.297 461.664 171.297 454.557 Q171.297 447.428 169.468 443.886 Q167.663 440.321 164.028 440.321 M164.028 436.618 Q169.839 436.618 172.894 441.224 Q175.973 445.807 175.973 454.557 Q175.973 463.284 172.894 467.891 Q169.839 472.474 164.028 472.474 Q158.218 472.474 155.14 467.891 Q152.084 463.284 152.084 454.557 Q152.084 445.807 155.14 441.224 Q158.218 436.618 164.028 436.618 Z" fill="#000000" fill-rule="nonzero" fill-opacity="1" /><path clip-path="url(#clip230)" d="M184.19 465.923 L189.075 465.923 L189.075 471.803 L184.19 471.803 L184.19 465.923 Z" fill="#000000" fill-rule="nonzero" fill-opacity="1" /><path clip-path="url(#clip230)" d="M200.07 467.867 L207.709 467.867 L207.709 441.502 L199.399 443.168 L199.399 438.909 L207.662 437.243 L212.338 437.243 L212.338 467.867 L219.977 467.867 L219.977 471.803 L200.07 471.803 L200.07 467.867 Z" fill="#000000" fill-rule="nonzero" fill-opacity="1" /><path clip-path="url(#clip230)" d="M164.399 189.856 Q160.788 189.856 158.959 193.42 Q157.153 196.962 157.153 204.092 Q157.153 211.198 158.959 214.763 Q160.788 218.305 164.399 218.305 Q168.033 218.305 169.839 214.763 Q171.667 211.198 171.667 204.092 Q171.667 196.962 169.839 193.42 Q168.033 189.856 164.399 189.856 M164.399 186.152 Q170.209 186.152 173.264 190.758 Q176.343 195.342 176.343 204.092 Q176.343 212.818 173.264 217.425 Q170.209 222.008 164.399 222.008 Q158.589 222.008 155.51 217.425 Q152.454 212.818 152.454 204.092 Q152.454 195.342 155.51 190.758 Q158.589 186.152 164.399 186.152 Z" fill="#000000" fill-rule="nonzero" fill-opacity="1" /><path clip-path="url(#clip230)" d="M184.561 215.457 L189.445 215.457 L189.445 221.337 L184.561 221.337 L184.561 215.457 Z" fill="#000000" fill-rule="nonzero" fill-opacity="1" /><path clip-path="url(#clip230)" d="M203.658 217.402 L219.977 217.402 L219.977 221.337 L198.033 221.337 L198.033 217.402 Q200.695 214.647 205.278 210.018 Q209.885 205.365 211.065 204.022 Q213.311 201.499 214.19 199.763 Q215.093 198.004 215.093 196.314 Q215.093 193.559 213.149 191.823 Q211.227 190.087 208.125 190.087 Q205.926 190.087 203.473 190.851 Q201.042 191.615 198.264 193.166 L198.264 188.444 Q201.088 187.309 203.542 186.731 Q205.996 186.152 208.033 186.152 Q213.403 186.152 216.598 188.837 Q219.792 191.522 219.792 196.013 Q219.792 198.143 218.982 200.064 Q218.195 201.962 216.088 204.555 Q215.51 205.226 212.408 208.443 Q209.306 211.638 203.658 217.402 Z" fill="#000000" fill-rule="nonzero" fill-opacity="1" /><path clip-path="url(#clip230)" d="M20.8447 823.791 Q20.8447 830.793 26.0645 834.931 Q31.2844 839.037 40.2919 839.037 Q49.2675 839.037 54.4874 834.931 Q59.7073 830.793 59.7073 823.791 Q59.7073 816.788 54.4874 812.714 Q49.2675 808.609 40.2919 808.609 Q31.2844 808.609 26.0645 812.714 Q20.8447 816.788 20.8447 823.791 M15.6248 823.791 Q15.6248 813.797 22.3406 807.813 Q29.0246 801.829 40.2919 801.829 Q51.5274 801.829 58.2432 807.813 Q64.9272 813.797 64.9272 823.791 Q64.9272 833.817 58.2432 839.832 Q51.5592 845.816 40.2919 845.816 Q29.0246 845.816 22.3406 839.832 Q15.6248 833.817 15.6248 823.791 Z" fill="#000000" fill-rule="nonzero" fill-opacity="1" /><path clip-path="url(#clip230)" d="M49.9359 792.631 L28.3562 792.631 L28.3562 786.774 L49.7131 786.774 Q54.7739 786.774 57.3202 784.801 Q59.8346 782.827 59.8346 778.881 Q59.8346 774.138 56.8109 771.401 Q53.7872 768.632 48.5673 768.632 L28.3562 768.632 L28.3562 762.775 L64.0042 762.775 L64.0042 768.632 L58.5296 768.632 Q61.7762 770.764 63.3676 773.597 Q64.9272 776.398 64.9272 780.122 Q64.9272 786.265 61.1078 789.448 Q57.2883 792.631 49.9359 792.631 M27.4968 777.894 L27.4968 777.894 Z" fill="#000000" fill-rule="nonzero" fill-opacity="1" /><path clip-path="url(#clip230)" d="M18.2347 744.92 L28.3562 744.92 L28.3562 732.857 L32.9077 732.857 L32.9077 744.92 L52.2594 744.92 Q56.6199 744.92 57.8613 743.742 Q59.1026 742.533 59.1026 738.872 L59.1026 732.857 L64.0042 732.857 L64.0042 738.872 Q64.0042 745.652 61.4897 748.23 Q58.9434 750.808 52.2594 750.808 L32.9077 750.808 L32.9077 755.105 L28.3562 755.105 L28.3562 750.808 L18.2347 750.808 L18.2347 744.92 Z" fill="#000000" fill-rule="nonzero" fill-opacity="1" /><path clip-path="url(#clip230)" d="M58.657 719.489 L77.5631 719.489 L77.5631 725.377 L28.3562 725.377 L28.3562 719.489 L33.7671 719.489 Q30.5842 717.643 29.0564 714.842 Q27.4968 712.009 27.4968 708.094 Q27.4968 701.601 32.6531 697.559 Q37.8093 693.485 46.212 693.485 Q54.6147 693.485 59.771 697.559 Q64.9272 701.601 64.9272 708.094 Q64.9272 712.009 63.3994 714.842 Q61.8398 717.643 58.657 719.489 M46.212 699.564 Q39.7508 699.564 36.0905 702.238 Q32.3984 704.879 32.3984 709.526 Q32.3984 714.173 36.0905 716.847 Q39.7508 719.489 46.212 719.489 Q52.6732 719.489 56.3653 716.847 Q60.0256 714.173 60.0256 709.526 Q60.0256 704.879 56.3653 702.238 Q52.6732 699.564 46.212 699.564 Z" fill="#000000" fill-rule="nonzero" fill-opacity="1" /><path clip-path="url(#clip230)" d="M49.9359 684.382 L28.3562 684.382 L28.3562 678.525 L49.7131 678.525 Q54.7739 678.525 57.3202 676.552 Q59.8346 674.579 59.8346 670.632 Q59.8346 665.889 56.8109 663.152 Q53.7872 660.383 48.5673 660.383 L28.3562 660.383 L28.3562 654.527 L64.0042 654.527 L64.0042 660.383 L58.5296 660.383 Q61.7762 662.516 63.3676 665.348 Q64.9272 668.149 64.9272 671.873 Q64.9272 678.016 61.1078 681.199 Q57.2883 684.382 49.9359 684.382 M27.4968 669.645 L27.4968 669.645 Z" fill="#000000" fill-rule="nonzero" fill-opacity="1" /><path clip-path="url(#clip230)" d="M18.2347 636.671 L28.3562 636.671 L28.3562 624.608 L32.9077 624.608 L32.9077 636.671 L52.2594 636.671 Q56.6199 636.671 57.8613 635.493 Q59.1026 634.284 59.1026 630.623 L59.1026 624.608 L64.0042 624.608 L64.0042 630.623 Q64.0042 637.403 61.4897 639.981 Q58.9434 642.559 52.2594 642.559 L32.9077 642.559 L32.9077 646.856 L28.3562 646.856 L28.3562 642.559 L18.2347 642.559 L18.2347 636.671 Z" fill="#000000" fill-rule="nonzero" fill-opacity="1" /><polyline clip-path="url(#clip232)" style="stroke:#009af9; stroke-linecap:round; stroke-linejoin:round; stroke-width:4; stroke-opacity:1; fill:none" points="315.32,704.988 319.284,704.988 323.248,704.988 323.248,729.745 327.212,729.745 327.212,753.773 331.176,753.773 331.176,776.861 335.141,776.861 335.141,798.82 339.105,798.82 339.105,819.487 343.069,819.487 343.069,789.214 347.033,789.214 347.033,758.866 350.997,758.866 350.997,728.792 354.961,728.792 354.961,699.325 358.925,699.325 358.925,670.78 362.889,670.78 362.889,692.961 366.853,692.961 366.853,715.155 370.818,715.155 370.818,737.166 374.782,737.166 374.782,758.804 378.746,758.804 378.746,779.892 382.71,779.892 382.71,800.264 386.674,800.264 386.674,819.772 390.638,819.772 390.638,838.287 394.602,838.287 394.602,855.702 398.566,855.702 398.566,871.929 402.53,871.929 402.53,837.394 406.495,837.394 406.495,803.031 410.459,803.031 410.459,769.25 414.423,769.25 414.423,736.436 418.387,736.436 418.387,704.95 422.351,704.95 422.351,724.63 426.315,724.63 426.315,744.791 430.279,744.791 430.279,765.252 434.243,765.252 434.243,785.829 438.208,785.829 438.208,806.342 442.172,806.342 442.172,826.612 446.136,826.612 446.136,846.469 450.1,846.469 450.1,865.755 454.064,865.755 454.064,884.323 458.028,884.323 458.028,902.046 461.992,902.046 461.992,869.299 465.956,869.299 465.956,836.963 469.92,836.963 469.92,805.39 473.885,805.39 473.885,774.911 477.849,774.911 477.849,745.825 481.813,745.825 481.813,718.401 485.777,718.401 485.777,692.867 489.741,692.867 489.741,669.411 493.705,669.411 493.705,648.178 497.669,648.178 497.669,629.265 501.633,629.265 501.633,612.726 505.597,612.726 505.597,598.568 509.562,598.568 509.562,586.752 513.526,586.752 513.526,577.199 517.49,577.199 517.49,569.788 521.454,569.788 521.454,564.364 525.418,564.364 525.418,560.737 529.382,560.737 529.382,558.693 533.346,558.693 533.346,557.994 537.31,557.994 537.31,558.383 541.275,558.383 541.275,609.109 545.239,609.109 545.239,658.926 549.203,658.926 549.203,707.138 553.167,707.138 553.167,753.101 557.131,753.101 557.131,796.229 561.095,796.229 561.095,786.495 565.059,786.495 565.059,774.435 569.023,774.435 569.023,760.121 572.987,760.121 572.987,743.667 576.952,743.667 576.952,725.23 580.916,725.23 580.916,705.003 584.88,705.003 584.88,683.212 588.844,683.212 588.844,660.108 592.808,660.108 592.808,635.961 596.772,635.961 596.772,611.06 600.736,611.06 600.736,585.699 604.7,585.699 604.7,560.176 608.664,560.176 608.664,534.785 612.629,534.785 612.629,509.811 616.593,509.811 616.593,485.524 620.557,485.524 620.557,511.689 624.521,511.689 624.521,537.562 628.485,537.562 628.485,562.92 632.449,562.92 632.449,587.554 636.413,587.554 636.413,611.275 640.377,611.275 640.377,633.912 644.341,633.912 644.341,655.32 648.306,655.32 648.306,675.378 652.27,675.378 652.27,693.994 656.234,693.994 656.234,711.103 660.198,711.103 660.198,677.157 664.162,677.157 664.162,643.121 668.126,643.121 668.126,609.438 672.09,609.438 672.09,576.535 676.054,576.535 676.054,544.812 680.019,544.812 680.019,514.634 683.983,514.634 683.983,486.331 687.947,486.331 687.947,460.186 691.911,460.186 691.911,436.434 695.875,436.434 695.875,415.259 699.839,415.259 699.839,396.789 703.803,396.789 703.803,381.099 707.767,381.099 707.767,368.208 711.731,368.208 711.731,358.082 715.696,358.082 715.696,350.636 719.66,350.636 719.66,345.736 723.624,345.736 723.624,343.204 727.588,343.204 727.588,342.823 731.552,342.823 731.552,344.343 735.516,344.343 735.516,347.483 739.48,347.483 739.48,351.944 743.444,351.944 743.444,357.409 747.408,357.409 747.408,363.553 751.373,363.553 751.373,370.052 755.337,370.052 755.337,376.581 759.301,376.581 759.301,382.831 763.265,382.831 763.265,388.507 767.229,388.507 767.229,393.336 771.193,393.336 771.193,397.071 775.157,397.071 775.157,399.497 779.121,399.497 779.121,449.946 783.085,449.946 783.085,497.3 787.05,497.3 787.05,541.03 791.014,541.03 791.014,580.69 794.978,580.69 794.978,615.925 798.942,615.925 798.942,646.476 802.906,646.476 802.906,672.178 806.87,672.178 806.87,692.965 810.834,692.965 810.834,708.866 814.798,708.866 814.798,720.003 818.763,720.003 818.763,677.071 822.727,677.071 822.727,631.331 826.691,631.331 826.691,583.566 830.655,583.566 830.655,534.581 834.619,534.581 834.619,485.178 838.583,485.178 838.583,485.663 842.547,485.663 842.547,485.825 846.511,485.825 846.511,485.962 850.475,485.962 850.475,486.361 854.44,486.361 854.44,487.29 858.404,487.29 858.404,488.998 862.368,488.998 862.368,491.709 866.332,491.709 866.332,495.616 870.296,495.616 870.296,500.881 874.26,500.881 874.26,507.632 878.224,507.632 878.224,515.962 882.188,515.962 882.188,525.925 886.152,525.925 886.152,537.54 890.117,537.54 890.117,550.792 894.081,550.792 894.081,565.629 898.045,565.629 898.045,581.969 902.009,581.969 902.009,599.698 905.973,599.698 905.973,618.677 909.937,618.677 909.937,638.744 913.901,638.744 913.901,659.718 917.865,659.718 917.865,681.403 921.829,681.403 921.829,703.591 925.794,703.591 925.794,726.07 929.758,726.07 929.758,748.626 933.722,748.626 933.722,771.044 937.686,771.044 937.686,793.121 941.65,793.121 941.65,814.661 945.614,814.661 945.614,835.482 949.578,835.482 949.578,855.421 953.542,855.421 953.542,874.334 957.507,874.334 957.507,842.585 961.471,842.585 961.471,811.05 965.435,811.05 965.435,780.076 969.399,780.076 969.399,749.996 973.363,749.996 973.363,721.113 977.327,721.113 977.327,743.219 981.291,743.219 981.291,765.582 985.255,765.582 985.255,787.983 989.219,787.983 989.219,810.206 993.184,810.206 993.184,832.044 997.148,832.044 997.148,803.785 1001.11,803.785 1001.11,776.222 1005.08,776.222 1005.08,749.613 1009.04,749.613 1009.04,724.193 1013,724.193 1013,700.169 1016.97,700.169 1016.97,727.231 1020.93,727.231 1020.93,754.548 1024.9,754.548 1024.9,781.807 1028.86,781.807 1028.86,808.7 1032.82,808.7 1032.82,834.935 1036.79,834.935 1036.79,860.239 1040.75,860.239 1040.75,884.364 1044.72,884.364 1044.72,907.087 1048.68,907.087 1048.68,928.221 1052.65,928.221 1052.65,947.612 1056.61,947.612 1056.61,965.142 1060.57,965.142 1060.57,980.732 1064.54,980.732 1064.54,994.34 1068.5,994.34 1068.5,1005.96 1072.47,1005.96 1072.47,1015.64 1076.43,1015.64 1076.43,1023.43 1080.39,1023.43 1080.39,1029.45 1084.36,1029.45 1084.36,1033.82 1088.32,1033.82 1088.32,1036.71 1092.29,1036.71 1092.29,1038.29 1096.25,1038.29 1096.25,989.245 1100.21,989.245 1100.21,940.771 1104.18,940.771 1104.18,893.509 1108.14,893.509 1108.14,848.064 1112.11,848.064 1112.11,804.989 1116.07,804.989 1116.07,814.293 1120.04,814.293 1120.04,825.428 1124,825.428 1124,838.325 1127.96,838.325 1127.96,852.878 1131.93,852.878 1131.93,868.951 1135.89,868.951 1135.89,836.864 1139.86,836.864 1139.86,807.404 1143.82,807.404 1143.82,780.784 1147.78,780.784 1147.78,757.16 1151.75,757.16 1151.75,736.624 1155.71,736.624 1155.71,768.726 1159.68,768.726 1159.68,802.466 1163.64,802.466 1163.64,837.339 1167.6,837.339 1167.6,872.83 1171.57,872.83 1171.57,908.427 1175.53,908.427 1175.53,943.625 1179.5,943.625 1179.5,977.944 1183.46,977.944 1183.46,1010.93 1187.43,1010.93 1187.43,1042.17 1191.39,1042.17 1191.39,1071.3 1195.35,1071.3 1195.35,1097.99 1199.32,1097.99 1199.32,1121.97 1203.28,1121.97 1203.28,1143.06 1207.25,1143.06 1207.25,1161.1 1211.21,1161.1 1211.21,1176 1215.17,1176 1215.17,1187.76 1219.14,1187.76 1219.14,1196.41 1223.1,1196.41 1223.1,1202.06 1227.07,1202.06 1227.07,1204.85 1231.03,1204.85 1231.03,1204.99 1234.99,1204.99 1234.99,1153.22 1238.96,1153.22 1238.96,1100.79 1242.92,1100.79 1242.92,1048.45 1246.89,1048.45 1246.89,996.91 1250.85,996.91 1250.85,946.857 1254.82,946.857 1254.82,948.446 1258.78,948.446 1258.78,951.284 1262.74,951.284 1262.74,955.462 1266.71,955.462 1266.71,961.043 1270.67,961.043 1270.67,968.055 1274.64,968.055 1274.64,976.498 1278.6,976.498 1278.6,986.34 1282.56,986.34 1282.56,997.523 1286.53,997.523 1286.53,1009.96 1290.49,1009.96 1290.49,1023.54 1294.46,1023.54 1294.46,1038.14 1298.42,1038.14 1298.42,1053.6 1302.38,1053.6 1302.38,1069.76 1306.35,1069.76 1306.35,1086.46 1310.31,1086.46 1310.31,1103.5 1314.28,1103.5 1314.28,1071.19 1318.24,1071.19 1318.24,1040.33 1322.21,1040.33 1322.21,1011.15 1326.17,1011.15 1326.17,983.86 1330.13,983.86 1330.13,958.626 1334.1,958.626 1334.1,985.086 1338.06,985.086 1338.06,1012.35 1342.03,1012.35 1342.03,1040.02 1345.99,1040.02 1345.99,1067.73 1349.95,1067.73 1349.95,1095.09 1353.92,1095.09 1353.92,1121.75 1357.88,1121.75 1357.88,1147.38 1361.85,1147.38 1361.85,1171.65 1365.81,1171.65 1365.81,1194.31 1369.77,1194.31 1369.77,1215.12 1373.74,1215.12 1373.74,1184.36 1377.7,1184.36 1377.7,1152.87 1381.67,1152.87 1381.67,1120.96 1385.63,1120.96 1385.63,1088.95 1389.6,1088.95 1389.6,1057.15 1393.56,1057.15 1393.56,1075.4 1397.52,1075.4 1397.52,1093 1401.49,1093 1401.49,1109.8 1405.45,1109.8 1405.45,1125.67 1409.42,1125.67 1409.42,1140.5 1413.38,1140.5 1413.38,1154.18 1417.34,1154.18 1417.34,1166.65 1421.31,1166.65 1421.31,1177.87 1425.27,1177.87 1425.27,1187.82 1429.24,1187.82 1429.24,1196.5 1433.2,1196.5 1433.2,1203.94 1437.16,1203.94 1437.16,1210.18 1441.13,1210.18 1441.13,1215.31 1445.09,1215.31 1445.09,1219.39 1449.06,1219.39 1449.06,1222.55 1453.02,1222.55 1453.02,1224.89 1456.98,1224.89 1456.98,1226.55 1460.95,1226.55 1460.95,1227.66 1464.91,1227.66 1464.91,1228.36 1468.88,1228.36 1468.88,1228.81 1472.84,1228.81 1472.84,1229.14 1476.81,1229.14 1476.81,1229.49 1480.77,1229.49 1480.77,1230.01 1484.73,1230.01 1484.73,1230.81 1488.7,1230.81 1488.7,1232 1492.66,1232 1492.66,1233.7 1496.63,1233.7 1496.63,1236 1500.59,1236 1500.59,1238.95 1504.55,1238.95 1504.55,1242.63 1508.52,1242.63 1508.52,1247.06 1512.48,1247.06 1512.48,1252.27 1516.45,1252.27 1516.45,1258.27 1520.41,1258.27 1520.41,1265.04 1524.37,1265.04 1524.37,1272.56 1528.34,1272.56 1528.34,1280.77 1532.3,1280.77 1532.3,1289.63 1536.27,1289.63 1536.27,1299.06 1540.23,1299.06 1540.23,1308.98 1544.2,1308.98 1544.2,1319.31 1548.16,1319.31 1548.16,1329.95 1552.12,1329.95 1552.12,1340.79 1556.09,1340.79 1556.09,1351.75 1560.05,1351.75 1560.05,1362.7 1564.02,1362.7 1564.02,1373.57 1567.98,1373.57 1567.98,1384.24 1571.94,1384.24 1571.94,1345.11 1575.91,1345.11 1575.91,1307.08 1579.87,1307.08 1579.87,1270.48 1583.84,1270.48 1583.84,1235.63 1587.8,1235.63 1587.8,1202.8 1591.76,1202.8 1591.76,1172.22 1595.73,1172.22 1595.73,1144.07 1599.69,1144.07 1599.69,1118.47 1603.66,1118.47 1603.66,1095.51 1607.62,1095.51 1607.62,1075.22 1611.59,1075.22 1611.59,1057.57 1615.55,1057.57 1615.55,1042.5 1619.51,1042.5 1619.51,1029.89 1623.48,1029.89 1623.48,1019.59 1627.44,1019.59 1627.44,1011.39 1631.41,1011.39 1631.41,1005.09 1635.37,1005.09 1635.37,1000.42 1639.33,1000.42 1639.33,997.107 1643.3,997.107 1643.3,994.863 1647.26,994.863 1647.26,993.389 1651.23,993.389 1651.23,1041.9 1655.19,1041.9 1655.19,1089.11 1659.15,1089.11 1659.15,1134.32 1663.12,1134.32 1663.12,1176.87 1667.08,1176.87 1667.08,1216.18 1671.05,1216.18 1671.05,1202.23 1675.01,1202.23 1675.01,1185.57 1678.98,1185.57 1678.98,1166.3 1682.94,1166.3 1682.94,1144.57 1686.9,1144.57 1686.9,1120.57 1690.87,1120.57 1690.87,1094.54 1694.83,1094.54 1694.83,1066.75 1698.8,1066.75 1698.8,1037.51 1702.76,1037.51 1702.76,1007.13 1706.72,1007.13 1706.72,975.968 1710.69,975.968 1710.69,993.876 1714.65,993.876 1714.65,1010.23 1718.62,1010.23 1718.62,1024.97 1722.58,1024.97 1722.58,1038.03 1726.54,1038.03 1726.54,1049.4 1730.51,1049.4 1730.51,1059.11 1734.47,1059.11 1734.47,1067.21 1738.44,1067.21 1738.44,1073.76 1742.4,1073.76 1742.4,1078.88 1746.37,1078.88 1746.37,1082.69 1750.33,1082.69 1750.33,1035.83 1754.29,1035.83 1754.29,989.426 1758.26,989.426 1758.26,944.084 1762.22,944.084 1762.22,900.364 1766.19,900.364 1766.19,858.784 1770.15,858.784 1770.15,819.807 1774.11,819.807 1774.11,783.833 1778.08,783.833 1778.08,751.197 1782.04,751.197 1782.04,722.156 1786.01,722.156 1786.01,696.897 1789.97,696.897 1789.97,725.042 1793.93,725.042 1793.93,755.647 1797.9,755.647 1797.9,788.246 1801.86,788.246 1801.86,822.347 1805.83,822.347 1805.83,857.437 1809.79,857.437 1809.79,843.486 1813.76,843.486 1813.76,830.953 1817.72,830.953 1817.72,819.761 1821.68,819.761 1821.68,809.809 1825.65,809.809 1825.65,800.982 1829.61,800.982 1829.61,842.66 1833.58,842.66 1833.58,883.723 1837.54,883.723 1837.54,923.594 1841.5,923.594 1841.5,961.734 1845.47,961.734 1845.47,997.652 1849.43,997.652 1849.43,1030.91 1853.4,1030.91 1853.4,1061.14 1857.36,1061.14 1857.36,1088.04 1861.32,1088.04 1861.32,1111.38 1865.29,1111.38 1865.29,1130.99 1869.25,1130.99 1869.25,1097.29 1873.22,1097.29 1873.22,1061.25 1877.18,1061.25 1877.18,1023.35 1881.15,1023.35 1881.15,984.103 1885.11,984.103 1885.11,944.045 1889.07,944.045 1889.07,953.221 1893.04,953.221 1893.04,961.181 1897,961.181 1897,968.01 1900.97,968.01 1900.97,973.813 1904.93,973.813 1904.93,978.706 1908.89,978.706 1908.89,982.82 1912.86,982.82 1912.86,986.296 1916.82,986.296 1916.82,989.279 1920.79,989.279 1920.79,991.919 1924.75,991.919 1924.75,994.367 1928.71,994.367 1928.71,996.77 1932.68,996.77 1932.68,999.271 1936.64,999.271 1936.64,1002 1940.61,1002 1940.61,1005.09 1944.57,1005.09 1944.57,1008.65 1948.54,1008.65 1948.54,1012.76 1952.5,1012.76 1952.5,1017.53 1956.46,1017.53 1956.46,1023 1960.43,1023 1960.43,1029.23 1964.39,1029.23 1964.39,1036.25 1968.36,1036.25 1968.36,1044.06 1972.32,1044.06 1972.32,1052.66 1976.28,1052.66 1976.28,1062.03 1980.25,1062.03 1980.25,1072.12 1984.21,1072.12 1984.21,1082.89 1988.18,1082.89 1988.18,1094.25 1992.14,1094.25 1992.14,1106.14 1996.1,1106.14 1996.1,1118.46 2000.07,1118.46 2000.07,1131.13 2004.03,1131.13 2004.03,1144.02 2008,1144.02 2008,1107.54 2011.96,1107.54 2011.96,1072.54 2015.93,1072.54 2015.93,1039.33 2019.89,1039.33 2019.89,1008.21 2023.85,1008.21 2023.85,979.387 2027.82,979.387 2027.82,953.052 2031.78,953.052 2031.78,929.331 2035.75,929.331 2035.75,908.303 2039.71,908.303 2039.71,889.992 2043.67,889.992 2043.67,874.373 2047.64,874.373 2047.64,861.371 2051.6,861.371 2051.6,850.864 2055.57,850.864 2055.57,842.688 2059.53,842.688 2059.53,836.642 2063.49,836.642 2063.49,832.492 2067.46,832.492 2067.46,829.973 2071.42,829.973 2071.42,828.804 2075.39,828.804 2075.39,828.684 2079.35,828.684 2079.35,829.305 2083.32,829.305 2083.32,830.358 2087.28,830.358 2087.28,831.534 2091.24,831.534 2091.24,832.535 2095.21,832.535 2095.21,833.078 2099.17,833.078 2099.17,832.901 2103.14,832.901 2103.14,831.766 2107.1,831.766 2107.1,829.461 2111.06,829.461 2111.06,825.809 2115.03,825.809 2115.03,820.667 2118.99,820.667 2118.99,813.926 2122.96,813.926 2122.96,805.517 2126.92,805.517 2126.92,795.406 2130.88,795.406 2130.88,783.596 2134.85,783.596 2134.85,770.129 2138.81,770.129 2138.81,755.076 2142.78,755.076 2142.78,738.542 2146.74,738.542 2146.74,770.176 2150.7,770.176 2150.7,799.162 2154.67,799.162 2154.67,825.258 2158.63,825.258 2158.63,848.283 2162.6,848.283 2162.6,868.12 2166.56,868.12 2166.56,884.713 2170.53,884.713 2170.53,898.073 2174.49,898.073 2174.49,908.27 2178.45,908.27 2178.45,915.431 2182.42,915.431 2182.42,919.737 2186.38,919.737 2186.38,921.418 2190.35,921.418 2190.35,920.748 2194.31,920.748 2194.31,918.034 2198.27,918.034 2198.27,913.613 2202.24,913.613 2202.24,907.844 2206.2,907.844 2206.2,851.586 2210.17,851.586 2210.17,796.188 2214.13,796.188 2214.13,742.45 2218.09,742.45 2218.09,691.117 2222.06,691.117 2222.06,642.866 2226.02,642.866 2226.02,598.297 2229.99,598.297 2229.99,557.924 2233.95,557.924 2233.95,522.162 2237.92,522.162 2237.92,491.33 2241.88,491.33 2241.88,465.64 2245.84,465.64 2245.84,445.199 2249.81,445.199 2249.81,430.013 2253.77,430.013 2253.77,419.983 2257.74,419.983 2257.74,414.917 2261.7,414.917 2261.7,414.532 2265.66,414.532 2265.66,467.978 2269.63,467.978 2269.63,523.845 2273.59,523.845 2273.59,581.216 2277.56,581.216 2277.56,639.166 2281.52,639.166 2281.52,696.786 2285.48,696.786 2285.48,703.681 2289.45,703.681 2289.45,709.992 2293.41,709.992 2293.41,715.372 "/>
<polyline clip-path="url(#clip232)" style="stroke:#e26f46; stroke-linecap:round; stroke-linejoin:round; stroke-width:4; stroke-opacity:1; fill:none" points="315.32,703.925 319.284,734.23 323.248,761.666 327.212,787.814 331.176,812.754 335.141,836.516 339.105,859.027 343.069,830.624 347.033,801.598 350.997,773.685 354.961,746.924 358.925,721.392 362.889,746.754 366.853,772.723 370.818,797.568 374.782,821.25 378.746,843.795 382.71,865.227 386.674,885.572 390.638,904.855 394.602,923.101 398.566,940.237 402.53,906.6 406.495,872.478 410.459,839.606 414.423,808.022 418.387,777.802 422.351,798.609 426.315,820.156 430.279,840.708 434.243,860.226 438.208,878.734 442.172,896.255 446.136,912.812 450.1,928.43 454.064,943.13 458.028,956.839 461.992,919.891 465.956,882.574 469.92,846.619 473.885,812.064 477.849,778.883 481.813,747.052 485.777,716.542 489.741,687.33 493.705,659.388 497.669,632.689 501.633,607.209 505.597,582.92 509.562,559.797 513.526,537.813 517.49,516.943 521.454,497.16 525.418,478.44 529.382,460.756 533.346,444.083 537.31,428.494 541.275,463.652 545.239,499.268 549.203,533.607 553.167,566.632 557.131,598.266 561.095,578.845 565.059,558.658 569.023,539.439 572.987,521.226 576.952,503.996 580.916,487.726 584.88,472.393 588.844,457.973 592.808,444.443 596.772,431.78 600.736,419.96 604.7,408.962 608.664,398.762 612.629,389.338 616.593,380.767 620.557,422.715 624.521,464.896 628.485,505.579 632.449,544.729 636.413,582.372 640.377,618.536 644.341,653.247 648.306,686.535 652.27,718.426 656.234,748.851 660.198,728.149 664.162,706.613 668.126,685.98 672.09,666.292 676.054,647.531 680.019,629.676 683.983,612.706 687.947,596.602 691.911,581.343 695.875,566.909 699.839,553.281 703.803,540.438 707.767,528.361 711.731,517.03 715.696,506.426 719.66,496.529 723.624,487.322 727.588,478.784 731.552,470.897 735.516,463.643 739.48,457.003 743.444,450.959 747.408,445.494 751.373,440.59 755.337,436.229 759.301,432.395 763.265,429.07 767.229,426.238 771.193,423.882 775.157,422.084 779.121,470.517 783.085,518.9 787.05,565.508 791.014,610.313 794.978,653.346 798.942,694.64 802.906,734.228 806.87,772.145 810.834,808.423 814.798,843 818.763,826.219 822.727,808.378 826.691,791.223 830.655,774.798 834.619,759.189 838.583,794.071 842.547,829.163 846.511,862.74 850.475,894.775 854.44,925.299 858.404,954.344 862.368,981.945 866.332,1008.13 870.296,1032.94 874.26,1056.41 878.224,1078.56 882.188,1099.43 886.152,1119.05 890.117,1137.46 894.081,1154.68 898.045,1170.74 902.009,1185.68 905.973,1199.53 909.937,1212.32 913.901,1224.08 917.865,1234.84 921.829,1244.62 925.794,1253.46 929.758,1261.39 933.722,1268.43 937.686,1274.62 941.65,1279.97 945.614,1284.52 949.578,1288.3 953.542,1291.23 957.507,1243.64 961.471,1195.84 965.435,1149.55 969.399,1104.82 973.363,1061.71 977.327,1069.9 981.291,1079.1 985.255,1087.56 989.219,1095.26 993.184,1102.11 997.148,1058.45 1001.11,1014.56 1005.08,972.185 1009.04,931.352 1013,892.137 1016.97,904.201 1020.93,917.252 1024.9,929.554 1028.86,941.065 1032.82,951.806 1036.79,961.796 1040.75,971.056 1044.72,979.606 1048.68,987.467 1052.65,994.659 1056.61,1001.2 1060.57,1007.11 1064.54,1012.41 1068.5,1017.12 1072.47,1021.26 1076.43,1024.84 1080.39,1027.88 1084.36,1030.41 1088.32,1032.43 1092.29,1033.87 1096.25,985.062 1100.21,936.28 1104.18,889.252 1108.14,844.008 1112.11,800.617 1116.07,808.734 1120.04,818.062 1124,826.859 1127.96,835.079 1131.93,842.636 1135.89,799.859 1139.86,757.026 1143.82,715.863 1147.78,676.397 1151.75,638.696 1155.71,652.415 1159.68,667.255 1163.64,681.473 1167.6,695.022 1171.57,707.914 1175.53,720.165 1179.5,731.79 1183.46,742.802 1187.43,753.216 1191.39,763.047 1195.35,772.31 1199.32,781.018 1203.28,789.186 1207.25,796.827 1211.21,803.956 1215.17,810.587 1219.14,816.733 1223.1,822.407 1227.07,827.624 1231.03,832.297 1234.99,786.753 1238.96,741.269 1242.92,697.566 1246.89,655.672 1250.85,615.651 1254.82,627.154 1258.78,639.883 1262.74,652.09 1266.71,663.728 1270.67,674.806 1274.64,685.337 1278.6,695.333 1282.56,704.807 1286.53,713.772 1290.49,722.239 1294.46,730.22 1298.42,737.728 1302.38,744.776 1306.35,751.374 1310.31,757.436 1314.28,713.287 1318.24,669.201 1322.21,626.901 1326.17,586.412 1330.13,547.795 1334.1,560.704 1338.06,574.837 1342.03,588.446 1345.99,601.482 1349.95,613.954 1353.92,625.874 1357.88,637.253 1361.85,648.103 1365.81,658.435 1369.77,668.163 1373.74,627.61 1377.7,587.053 1381.67,548.211 1385.63,511.11 1389.6,475.814 1393.56,491.972 1397.52,509.286 1401.49,526.007 1405.45,542.085 1409.42,557.531 1413.38,572.357 1417.34,586.573 1421.31,600.193 1425.27,613.228 1429.24,625.689 1433.2,637.59 1437.16,648.941 1441.13,659.756 1445.09,670.044 1449.06,679.82 1453.02,689.093 1456.98,697.877 1460.95,706.183 1464.91,714.021 1468.88,721.405 1472.84,728.345 1476.81,734.852 1480.77,740.938 1484.73,746.615 1488.7,751.893 1492.66,756.782 1496.63,761.295 1500.59,765.442 1504.55,769.233 1508.52,772.678 1512.48,775.789 1516.45,778.576 1520.41,781.048 1524.37,783.215 1528.34,785.088 1532.3,786.676 1536.27,787.988 1540.23,789.034 1544.2,789.824 1548.16,790.365 1552.12,790.668 1556.09,790.741 1560.05,790.593 1564.02,790.232 1567.98,789.568 1571.94,738.921 1575.91,688.565 1579.87,640.216 1583.84,593.895 1587.8,549.565 1591.76,507.184 1595.73,466.712 1599.69,428.109 1603.66,391.333 1607.62,356.345 1611.59,323.103 1615.55,291.568 1619.51,261.701 1623.48,233.46 1627.44,206.808 1631.41,181.703 1635.37,158.109 1639.33,135.985 1643.3,115.293 1647.26,96.0941 1651.23,128.038 1655.19,160.824 1659.15,192.703 1663.12,223.628 1667.08,253.509 1671.05,232.67 1675.01,211.389 1678.98,191.388 1682.94,172.694 1686.9,155.274 1690.87,139.094 1694.83,124.119 1698.8,110.315 1702.76,97.6489 1706.72,86.1857 1710.69,125.581 1714.65,165.537 1718.62,204.313 1722.58,241.864 1726.54,278.204 1730.51,313.351 1734.47,347.323 1738.44,380.138 1742.4,411.814 1746.37,442.27 1750.33,421.839 1754.29,400.801 1758.26,380.887 1762.22,362.128 1766.19,344.499 1770.15,327.969 1774.11,312.509 1778.08,298.093 1782.04,284.691 1786.01,272.374 1789.97,310.802 1793.93,349.683 1797.9,387.281 1801.86,423.555 1805.83,458.427 1809.79,442.232 1813.76,425.254 1817.72,409.227 1821.68,394.187 1825.65,380.208 1829.61,416.953 1833.58,454.132 1837.54,490.01 1841.5,524.55 1845.47,557.772 1849.43,589.702 1853.4,620.362 1857.36,649.777 1861.32,677.971 1865.29,704.87 1869.25,680.81 1873.22,656.079 1877.18,632.413 1881.15,609.847 1885.11,588.459 1889.07,617.913 1893.04,647.919 1897,676.746 1900.97,704.354 1904.93,730.767 1908.89,756.01 1912.86,780.106 1916.82,803.081 1920.79,824.958 1924.75,845.763 1928.71,865.52 1932.68,884.252 1936.64,901.985 1940.61,918.741 1944.57,934.545 1948.54,949.421 1952.5,963.391 1956.46,976.48 1960.43,988.711 1964.39,1000.11 1968.36,1010.69 1972.32,1020.48 1976.28,1029.5 1980.25,1037.78 1984.21,1045.33 1988.18,1052.18 1992.14,1058.35 1996.1,1063.86 2000.07,1068.72 2004.03,1072.87 2008,1026.64 2011.96,980.299 2015.93,935.59 2019.89,892.54 2023.85,851.124 2027.82,811.312 2031.78,773.075 2035.75,736.382 2039.71,701.204 2043.67,667.511 2047.64,635.273 2051.6,604.46 2055.57,575.043 2059.53,546.992 2063.49,520.276 2067.46,494.867 2071.42,470.734 2075.39,447.849 2079.35,426.181 2083.32,405.702 2087.28,386.383 2091.24,368.195 2095.21,351.109 2099.17,335.097 2103.14,320.131 2107.1,306.183 2111.06,293.225 2115.03,281.231 2118.99,270.172 2122.96,260.023 2126.92,250.757 2130.88,242.347 2134.85,234.768 2138.81,227.994 2142.78,222.098 2146.74,266.744 2150.7,311.643 2154.67,355.06 2158.63,396.959 2162.6,437.362 2166.56,476.294 2170.53,513.781 2174.49,549.847 2178.45,584.519 2182.42,617.822 2186.38,649.781 2190.35,680.424 2194.31,709.775 2198.27,737.86 2202.24,764.608 2206.2,740.356 2210.17,715.394 2214.13,691.459 2218.09,668.589 2222.06,646.764 2226.02,625.962 2229.99,606.159 2233.95,587.335 2237.92,569.465 2241.88,552.529 2245.84,536.504 2249.81,521.369 2253.77,507.1 2257.74,493.678 2261.7,481.177 2265.66,519.266 2269.63,557.659 2273.59,594.624 2277.56,630.128 2281.52,664.097 2285.48,646.873 2289.45,628.745 2293.41,611.454 "/>
<polyline clip-path="url(#clip232)" style="stroke:#3da44d; stroke-linecap:round; stroke-linejoin:round; stroke-width:4; stroke-opacity:1; fill:none" points="315.32,704.988 319.284,704.988 323.248,729.745 327.212,753.773 331.176,776.861 335.141,798.82 339.105,819.487 343.069,789.214 347.033,758.866 350.997,728.792 354.961,699.325 358.925,670.78 362.889,692.961 366.853,715.155 370.818,737.166 374.782,758.804 378.746,779.892 382.71,800.264 386.674,819.772 390.638,838.287 394.602,855.702 398.566,871.929 402.53,837.394 406.495,803.031 410.459,769.25 414.423,736.436 418.387,704.95 422.351,724.63 426.315,744.791 430.279,765.252 434.243,785.829 438.208,806.342 442.172,826.612 446.136,846.469 450.1,865.755 454.064,884.323 458.028,902.046 461.992,869.299 465.956,836.963 469.92,805.39 473.885,774.911 477.849,745.825 481.813,718.401 485.777,692.867 489.741,669.411 493.705,648.178 497.669,629.265 501.633,612.726 505.597,598.568 509.562,586.752 513.526,577.199 517.49,569.788 521.454,564.364 525.418,560.737 529.382,558.693 533.346,557.994 537.31,558.383 541.275,609.109 545.239,658.926 549.203,707.138 553.167,753.101 557.131,796.229 561.095,786.495 565.059,774.435 569.023,760.121 572.987,743.667 576.952,725.23 580.916,705.003 584.88,683.212 588.844,660.108 592.808,635.961 596.772,611.06 600.736,585.699 604.7,560.176 608.664,534.785 612.629,509.811 616.593,485.524 620.557,511.689 624.521,537.562 628.485,562.92 632.449,587.554 636.413,611.275 640.377,633.912 644.341,655.32 648.306,675.378 652.27,693.994 656.234,711.103 660.198,677.157 664.162,643.121 668.126,609.438 672.09,576.535 676.054,544.812 680.019,514.634 683.983,486.331 687.947,460.186 691.911,436.434 695.875,415.259 699.839,396.789 703.803,381.099 707.767,368.208 711.731,358.082 715.696,350.636 719.66,345.736 723.624,343.204 727.588,342.823 731.552,344.343 735.516,347.483 739.48,351.944 743.444,357.409 747.408,363.553 751.373,370.052 755.337,376.581 759.301,382.831 763.265,388.507 767.229,393.336 771.193,397.071 775.157,399.497 779.121,449.946 783.085,497.3 787.05,541.03 791.014,580.69 794.978,615.925 798.942,646.476 802.906,672.178 806.87,692.965 810.834,708.866 814.798,720.003 818.763,677.071 822.727,631.331 826.691,583.566 830.655,534.581 834.619,485.178 838.583,485.663 842.547,485.825 846.511,485.962 850.475,486.361 854.44,487.29 858.404,488.998 862.368,491.709 866.332,495.616 870.296,500.881 874.26,507.632 878.224,515.962 882.188,525.925 886.152,537.54 890.117,550.792 894.081,565.629 898.045,581.969 902.009,599.698 905.973,618.677 909.937,638.744 913.901,659.718 917.865,681.403 921.829,703.591 925.794,726.07 929.758,748.626 933.722,771.044 937.686,793.121 941.65,814.661 945.614,835.482 949.578,855.421 953.542,874.334 957.507,842.585 961.471,811.05 965.435,780.076 969.399,749.996 973.363,721.113 977.327,743.219 981.291,765.582 985.255,787.983 989.219,810.206 993.184,832.044 997.148,803.785 1001.11,776.222 1005.08,749.613 1009.04,724.193 1013,700.169 1016.97,727.231 1020.93,754.548 1024.9,781.807 1028.86,808.7 1032.82,834.935 1036.79,860.239 1040.75,884.364 1044.72,907.087 1048.68,928.221 1052.65,947.612 1056.61,965.142 1060.57,980.732 1064.54,994.34 1068.5,1005.96 1072.47,1015.64 1076.43,1023.43 1080.39,1029.45 1084.36,1033.82 1088.32,1036.71 1092.29,1038.29 1096.25,989.245 1100.21,940.771 1104.18,893.509 1108.14,848.064 1112.11,804.989 1116.07,814.293 1120.04,825.428 1124,838.325 1127.96,852.878 1131.93,868.951 1135.89,836.864 1139.86,807.404 1143.82,780.784 1147.78,757.16 1151.75,736.624 1155.71,768.726 1159.68,802.466 1163.64,837.339 1167.6,872.83 1171.57,908.427 1175.53,943.625 1179.5,977.944 1183.46,1010.93 1187.43,1042.17 1191.39,1071.3 1195.35,1097.99 1199.32,1121.97 1203.28,1143.06 1207.25,1161.1 1211.21,1176 1215.17,1187.76 1219.14,1196.41 1223.1,1202.06 1227.07,1204.85 1231.03,1204.99 1234.99,1153.22 1238.96,1100.79 1242.92,1048.45 1246.89,996.91 1250.85,946.857 1254.82,948.446 1258.78,951.284 1262.74,955.462 1266.71,961.043 1270.67,968.055 1274.64,976.498 1278.6,986.34 1282.56,997.523 1286.53,1009.96 1290.49,1023.54 1294.46,1038.14 1298.42,1053.6 1302.38,1069.76 1306.35,1086.46 1310.31,1103.5 1314.28,1071.19 1318.24,1040.33 1322.21,1011.15 1326.17,983.86 1330.13,958.626 1334.1,985.086 1338.06,1012.35 1342.03,1040.02 1345.99,1067.73 1349.95,1095.09 1353.92,1121.75 1357.88,1147.38 1361.85,1171.65 1365.81,1194.31 1369.77,1215.12 1373.74,1184.36 1377.7,1152.87 1381.67,1120.96 1385.63,1088.95 1389.6,1057.15 1393.56,1075.4 1397.52,1093 1401.49,1109.8 1405.45,1125.67 1409.42,1140.5 1413.38,1154.18 1417.34,1166.65 1421.31,1177.87 1425.27,1187.82 1429.24,1196.5 1433.2,1203.94 1437.16,1210.18 1441.13,1215.31 1445.09,1219.39 1449.06,1222.55 1453.02,1224.89 1456.98,1226.55 1460.95,1227.66 1464.91,1228.36 1468.88,1228.81 1472.84,1229.14 1476.81,1229.49 1480.77,1230.01 1484.73,1230.81 1488.7,1232 1492.66,1233.7 1496.63,1236 1500.59,1238.95 1504.55,1242.63 1508.52,1247.06 1512.48,1252.27 1516.45,1258.27 1520.41,1265.04 1524.37,1272.56 1528.34,1280.77 1532.3,1289.63 1536.27,1299.06 1540.23,1308.98 1544.2,1319.31 1548.16,1329.95 1552.12,1340.79 1556.09,1351.75 1560.05,1362.7 1564.02,1373.57 1567.98,1384.24 1571.94,1345.11 1575.91,1307.08 1579.87,1270.48 1583.84,1235.63 1587.8,1202.8 1591.76,1172.22 1595.73,1144.07 1599.69,1118.47 1603.66,1095.51 1607.62,1075.22 1611.59,1057.57 1615.55,1042.5 1619.51,1029.89 1623.48,1019.59 1627.44,1011.39 1631.41,1005.09 1635.37,1000.42 1639.33,997.107 1643.3,994.863 1647.26,993.389 1651.23,1041.9 1655.19,1089.11 1659.15,1134.32 1663.12,1176.87 1667.08,1216.18 1671.05,1202.23 1675.01,1185.57 1678.98,1166.3 1682.94,1144.57 1686.9,1120.57 1690.87,1094.54 1694.83,1066.75 1698.8,1037.51 1702.76,1007.13 1706.72,975.968 1710.69,993.876 1714.65,1010.23 1718.62,1024.97 1722.58,1038.03 1726.54,1049.4 1730.51,1059.11 1734.47,1067.21 1738.44,1073.76 1742.4,1078.88 1746.37,1082.69 1750.33,1035.83 1754.29,989.426 1758.26,944.084 1762.22,900.364 1766.19,858.784 1770.15,819.807 1774.11,783.833 1778.08,751.197 1782.04,722.156 1786.01,696.897 1789.97,725.042 1793.93,755.647 1797.9,788.246 1801.86,822.347 1805.83,857.437 1809.79,843.486 1813.76,830.953 1817.72,819.761 1821.68,809.809 1825.65,800.982 1829.61,842.66 1833.58,883.723 1837.54,923.594 1841.5,961.734 1845.47,997.652 1849.43,1030.91 1853.4,1061.14 1857.36,1088.04 1861.32,1111.38 1865.29,1130.99 1869.25,1097.29 1873.22,1061.25 1877.18,1023.35 1881.15,984.103 1885.11,944.045 1889.07,953.221 1893.04,961.181 1897,968.01 1900.97,973.813 1904.93,978.706 1908.89,982.82 1912.86,986.296 1916.82,989.279 1920.79,991.919 1924.75,994.367 1928.71,996.77 1932.68,999.271 1936.64,1002 1940.61,1005.09 1944.57,1008.65 1948.54,1012.76 1952.5,1017.53 1956.46,1023 1960.43,1029.23 1964.39,1036.25 1968.36,1044.06 1972.32,1052.66 1976.28,1062.03 1980.25,1072.12 1984.21,1082.89 1988.18,1094.25 1992.14,1106.14 1996.1,1118.46 2000.07,1131.13 2004.03,1144.02 2008,1107.54 2011.96,1072.54 2015.93,1039.33 2019.89,1008.21 2023.85,979.387 2027.82,953.052 2031.78,929.331 2035.75,908.303 2039.71,889.992 2043.67,874.373 2047.64,861.371 2051.6,850.864 2055.57,842.688 2059.53,836.642 2063.49,832.492 2067.46,829.973 2071.42,828.804 2075.39,828.684 2079.35,829.305 2083.32,830.358 2087.28,831.534 2091.24,832.535 2095.21,833.078 2099.17,832.901 2103.14,831.766 2107.1,829.461 2111.06,825.809 2115.03,820.667 2118.99,813.926 2122.96,805.517 2126.92,795.406 2130.88,783.596 2134.85,770.129 2138.81,755.076 2142.78,738.542 2146.74,770.176 2150.7,799.162 2154.67,825.258 2158.63,848.283 2162.6,868.12 2166.56,884.713 2170.53,898.073 2174.49,908.27 2178.45,915.431 2182.42,919.737 2186.38,921.418 2190.35,920.748 2194.31,918.034 2198.27,913.613 2202.24,907.844 2206.2,851.586 2210.17,796.188 2214.13,742.45 2218.09,691.117 2222.06,642.866 2226.02,598.297 2229.99,557.924 2233.95,522.162 2237.92,491.33 2241.88,465.64 2245.84,445.199 2249.81,430.013 2253.77,419.983 2257.74,414.917 2261.7,414.532 2265.66,467.978 2269.63,523.845 2273.59,581.216 2277.56,639.166 2281.52,696.786 2285.48,703.681 2289.45,709.992 2293.41,715.372 "/>
<path clip-path="url(#clip230)" d="M325.87 1377.32 L1442.86 1377.32 L1442.86 1169.96 L325.87 1169.96  Z" fill="#ffffff" fill-rule="evenodd" fill-opacity="1"/>
<polyline clip-path="url(#clip230)" style="stroke:#000000; stroke-linecap:round; stroke-linejoin:round; stroke-width:4; stroke-opacity:1; fill:none" points="325.87,1377.32 1442.86,1377.32 1442.86,1169.96 325.87,1169.96 325.87,1377.32 "/>
<polyline clip-path="url(#clip230)" style="stroke:#009af9; stroke-linecap:round; stroke-linejoin:round; stroke-width:4; stroke-opacity:1; fill:none" points="349.167,1221.8 488.953,1221.8 "/>
<path clip-path="url(#clip230)" d="M516.926 1208.36 L516.926 1235.23 L522.574 1235.23 Q529.727 1235.23 533.037 1231.99 Q536.37 1228.75 536.37 1221.76 Q536.37 1214.82 533.037 1211.6 Q529.727 1208.36 522.574 1208.36 L516.926 1208.36 M512.25 1204.52 L521.857 1204.52 Q531.903 1204.52 536.602 1208.71 Q541.301 1212.87 541.301 1221.76 Q541.301 1230.7 536.579 1234.89 Q531.857 1239.08 521.857 1239.08 L512.25 1239.08 L512.25 1204.52 Z" fill="#000000" fill-rule="nonzero" fill-opacity="1" /><path clip-path="url(#clip230)" d="M560.352 1226.04 Q555.19 1226.04 553.199 1227.22 Q551.208 1228.4 551.208 1231.25 Q551.208 1233.52 552.69 1234.86 Q554.194 1236.18 556.764 1236.18 Q560.305 1236.18 562.435 1233.68 Q564.588 1231.16 564.588 1226.99 L564.588 1226.04 L560.352 1226.04 M568.847 1224.28 L568.847 1239.08 L564.588 1239.08 L564.588 1235.14 Q563.129 1237.5 560.954 1238.64 Q558.778 1239.75 555.63 1239.75 Q551.648 1239.75 549.287 1237.52 Q546.949 1235.28 546.949 1231.53 Q546.949 1227.15 549.866 1224.93 Q552.805 1222.71 558.616 1222.71 L564.588 1222.71 L564.588 1222.29 Q564.588 1219.35 562.643 1217.76 Q560.722 1216.14 557.227 1216.14 Q555.005 1216.14 552.898 1216.67 Q550.792 1217.2 548.847 1218.27 L548.847 1214.33 Q551.185 1213.43 553.384 1212.99 Q555.583 1212.52 557.667 1212.52 Q563.292 1212.52 566.069 1215.44 Q568.847 1218.36 568.847 1224.28 Z" fill="#000000" fill-rule="nonzero" fill-opacity="1" /><path clip-path="url(#clip230)" d="M581.833 1205.79 L581.833 1213.15 L590.606 1213.15 L590.606 1216.46 L581.833 1216.46 L581.833 1230.53 Q581.833 1233.7 582.69 1234.61 Q583.569 1235.51 586.231 1235.51 L590.606 1235.51 L590.606 1239.08 L586.231 1239.08 Q581.301 1239.08 579.426 1237.25 Q577.551 1235.39 577.551 1230.53 L577.551 1216.46 L574.426 1216.46 L574.426 1213.15 L577.551 1213.15 L577.551 1205.79 L581.833 1205.79 Z" fill="#000000" fill-rule="nonzero" fill-opacity="1" /><path clip-path="url(#clip230)" d="M607.99 1226.04 Q602.828 1226.04 600.838 1227.22 Q598.847 1228.4 598.847 1231.25 Q598.847 1233.52 600.328 1234.86 Q601.833 1236.18 604.402 1236.18 Q607.944 1236.18 610.074 1233.68 Q612.226 1231.16 612.226 1226.99 L612.226 1226.04 L607.99 1226.04 M616.486 1224.28 L616.486 1239.08 L612.226 1239.08 L612.226 1235.14 Q610.768 1237.5 608.592 1238.64 Q606.416 1239.75 603.268 1239.75 Q599.287 1239.75 596.926 1237.52 Q594.588 1235.28 594.588 1231.53 Q594.588 1227.15 597.504 1224.93 Q600.444 1222.71 606.254 1222.71 L612.226 1222.71 L612.226 1222.29 Q612.226 1219.35 610.282 1217.76 Q608.361 1216.14 604.865 1216.14 Q602.643 1216.14 600.537 1216.67 Q598.43 1217.2 596.486 1218.27 L596.486 1214.33 Q598.824 1213.43 601.023 1212.99 Q603.222 1212.52 605.305 1212.52 Q610.93 1212.52 613.708 1215.44 Q616.486 1218.36 616.486 1224.28 Z" fill="#000000" fill-rule="nonzero" fill-opacity="1" /><polyline clip-path="url(#clip230)" style="stroke:#e26f46; stroke-linecap:round; stroke-linejoin:round; stroke-width:4; stroke-opacity:1; fill:none" points="349.167,1273.64 488.953,1273.64 "/>
<path clip-path="url(#clip230)" d="M528.083 1260.96 L521.741 1278.16 L534.449 1278.16 L528.083 1260.96 M525.445 1256.36 L530.745 1256.36 L543.917 1290.92 L539.056 1290.92 L535.907 1282.05 L520.329 1282.05 L517.181 1290.92 L512.25 1290.92 L525.445 1256.36 Z" fill="#000000" fill-rule="nonzero" fill-opacity="1" /><path clip-path="url(#clip230)" d="M565.352 1274.71 Q566.856 1275.22 568.268 1276.89 Q569.704 1278.55 571.139 1281.47 L575.884 1290.92 L570.861 1290.92 L566.44 1282.05 Q564.727 1278.58 563.106 1277.44 Q561.509 1276.31 558.731 1276.31 L553.639 1276.31 L553.639 1290.92 L548.963 1290.92 L548.963 1256.36 L559.518 1256.36 Q565.444 1256.36 568.361 1258.83 Q571.278 1261.31 571.278 1266.31 Q571.278 1269.57 569.75 1271.73 Q568.245 1273.88 565.352 1274.71 M553.639 1260.2 L553.639 1272.47 L559.518 1272.47 Q562.898 1272.47 564.611 1270.92 Q566.347 1269.34 566.347 1266.31 Q566.347 1263.28 564.611 1261.75 Q562.898 1260.2 559.518 1260.2 L553.639 1260.2 Z" fill="#000000" fill-rule="nonzero" fill-opacity="1" /><path clip-path="url(#clip230)" d="M580.236 1256.36 L585.259 1256.36 L593.847 1269.2 L602.481 1256.36 L607.504 1256.36 L596.393 1272.95 L608.245 1290.92 L603.222 1290.92 L593.5 1276.22 L583.708 1290.92 L578.662 1290.92 L591 1272.47 L580.236 1256.36 Z" fill="#000000" fill-rule="nonzero" fill-opacity="1" /><path clip-path="url(#clip230)" d="M649.448 1269.97 Q651.046 1267.1 653.268 1265.73 Q655.49 1264.36 658.499 1264.36 Q662.55 1264.36 664.749 1267.21 Q666.948 1270.04 666.948 1275.27 L666.948 1290.92 L662.666 1290.92 L662.666 1275.41 Q662.666 1271.68 661.347 1269.87 Q660.027 1268.07 657.319 1268.07 Q654.009 1268.07 652.087 1270.27 Q650.166 1272.47 650.166 1276.26 L650.166 1290.92 L645.884 1290.92 L645.884 1275.41 Q645.884 1271.66 644.564 1269.87 Q643.245 1268.07 640.49 1268.07 Q637.226 1268.07 635.305 1270.29 Q633.384 1272.49 633.384 1276.26 L633.384 1290.92 L629.101 1290.92 L629.101 1264.99 L633.384 1264.99 L633.384 1269.02 Q634.842 1266.63 636.879 1265.5 Q638.916 1264.36 641.717 1264.36 Q644.541 1264.36 646.509 1265.8 Q648.499 1267.23 649.448 1269.97 Z" fill="#000000" fill-rule="nonzero" fill-opacity="1" /><path clip-path="url(#clip230)" d="M685.49 1267.98 Q682.064 1267.98 680.073 1270.66 Q678.083 1273.32 678.083 1277.98 Q678.083 1282.63 680.05 1285.31 Q682.041 1287.98 685.49 1287.98 Q688.893 1287.98 690.883 1285.29 Q692.874 1282.61 692.874 1277.98 Q692.874 1273.37 690.883 1270.68 Q688.893 1267.98 685.49 1267.98 M685.49 1264.36 Q691.045 1264.36 694.217 1267.98 Q697.388 1271.59 697.388 1277.98 Q697.388 1284.34 694.217 1287.98 Q691.045 1291.59 685.49 1291.59 Q679.911 1291.59 676.74 1287.98 Q673.592 1284.34 673.592 1277.98 Q673.592 1271.59 676.74 1267.98 Q679.911 1264.36 685.49 1264.36 Z" fill="#000000" fill-rule="nonzero" fill-opacity="1" /><path clip-path="url(#clip230)" d="M721.508 1268.92 L721.508 1254.9 L725.768 1254.9 L725.768 1290.92 L721.508 1290.92 L721.508 1287.03 Q720.166 1289.34 718.106 1290.48 Q716.068 1291.59 713.198 1291.59 Q708.499 1291.59 705.536 1287.84 Q702.596 1284.09 702.596 1277.98 Q702.596 1271.86 705.536 1268.11 Q708.499 1264.36 713.198 1264.36 Q716.068 1264.36 718.106 1265.5 Q720.166 1266.61 721.508 1268.92 M706.994 1277.98 Q706.994 1282.67 708.916 1285.36 Q710.86 1288.02 714.24 1288.02 Q717.619 1288.02 719.564 1285.36 Q721.508 1282.67 721.508 1277.98 Q721.508 1273.28 719.564 1270.61 Q717.619 1267.93 714.24 1267.93 Q710.86 1267.93 708.916 1270.61 Q706.994 1273.28 706.994 1277.98 Z" fill="#000000" fill-rule="nonzero" fill-opacity="1" /><path clip-path="url(#clip230)" d="M756.716 1276.89 L756.716 1278.97 L737.133 1278.97 Q737.411 1283.37 739.772 1285.68 Q742.156 1287.98 746.392 1287.98 Q748.846 1287.98 751.138 1287.37 Q753.453 1286.77 755.721 1285.57 L755.721 1289.6 Q753.429 1290.57 751.022 1291.08 Q748.615 1291.59 746.138 1291.59 Q739.934 1291.59 736.3 1287.98 Q732.689 1284.36 732.689 1278.21 Q732.689 1271.84 736.115 1268.11 Q739.564 1264.36 745.397 1264.36 Q750.628 1264.36 753.661 1267.74 Q756.716 1271.1 756.716 1276.89 M752.457 1275.64 Q752.411 1272.14 750.49 1270.06 Q748.591 1267.98 745.443 1267.98 Q741.879 1267.98 739.726 1269.99 Q737.596 1272 737.272 1275.66 L752.457 1275.64 Z" fill="#000000" fill-rule="nonzero" fill-opacity="1" /><path clip-path="url(#clip230)" d="M763.707 1254.9 L767.966 1254.9 L767.966 1290.92 L763.707 1290.92 L763.707 1254.9 Z" fill="#000000" fill-rule="nonzero" fill-opacity="1" /><path clip-path="url(#clip230)" d="M808.475 1265.75 L808.475 1269.78 Q806.67 1268.86 804.725 1268.39 Q802.781 1267.93 800.698 1267.93 Q797.526 1267.93 795.929 1268.9 Q794.355 1269.87 794.355 1271.82 Q794.355 1273.3 795.489 1274.16 Q796.624 1274.99 800.05 1275.75 L801.508 1276.08 Q806.045 1277.05 807.943 1278.83 Q809.864 1280.59 809.864 1283.76 Q809.864 1287.37 806.994 1289.48 Q804.147 1291.59 799.147 1291.59 Q797.063 1291.59 794.795 1291.17 Q792.55 1290.78 790.05 1289.97 L790.05 1285.57 Q792.411 1286.79 794.702 1287.42 Q796.994 1288.02 799.239 1288.02 Q802.249 1288.02 803.869 1287 Q805.489 1285.96 805.489 1284.09 Q805.489 1282.35 804.309 1281.42 Q803.151 1280.5 799.193 1279.64 L797.712 1279.3 Q793.753 1278.46 791.994 1276.75 Q790.235 1275.01 790.235 1272 Q790.235 1268.35 792.827 1266.36 Q795.42 1264.36 800.188 1264.36 Q802.55 1264.36 804.633 1264.71 Q806.716 1265.06 808.475 1265.75 Z" fill="#000000" fill-rule="nonzero" fill-opacity="1" /><path clip-path="url(#clip230)" d="M816.647 1264.99 L820.906 1264.99 L820.906 1290.92 L816.647 1290.92 L816.647 1264.99 M816.647 1254.9 L820.906 1254.9 L820.906 1260.29 L816.647 1260.29 L816.647 1254.9 Z" fill="#000000" fill-rule="nonzero" fill-opacity="1" /><path clip-path="url(#clip230)" d="M850.003 1269.97 Q851.6 1267.1 853.822 1265.73 Q856.045 1264.36 859.054 1264.36 Q863.105 1264.36 865.304 1267.21 Q867.503 1270.04 867.503 1275.27 L867.503 1290.92 L863.22 1290.92 L863.22 1275.41 Q863.22 1271.68 861.901 1269.87 Q860.582 1268.07 857.873 1268.07 Q854.563 1268.07 852.642 1270.27 Q850.721 1272.47 850.721 1276.26 L850.721 1290.92 L846.438 1290.92 L846.438 1275.41 Q846.438 1271.66 845.119 1269.87 Q843.799 1268.07 841.045 1268.07 Q837.781 1268.07 835.86 1270.29 Q833.938 1272.49 833.938 1276.26 L833.938 1290.92 L829.656 1290.92 L829.656 1264.99 L833.938 1264.99 L833.938 1269.02 Q835.397 1266.63 837.434 1265.5 Q839.471 1264.36 842.272 1264.36 Q845.096 1264.36 847.063 1265.8 Q849.054 1267.23 850.003 1269.97 Z" fill="#000000" fill-rule="nonzero" fill-opacity="1" /><path clip-path="url(#clip230)" d="M904.192 1254.9 L904.192 1258.44 L900.118 1258.44 Q897.827 1258.44 896.924 1259.36 Q896.044 1260.29 896.044 1262.7 L896.044 1264.99 L903.058 1264.99 L903.058 1268.3 L896.044 1268.3 L896.044 1290.92 L891.762 1290.92 L891.762 1268.3 L887.688 1268.3 L887.688 1264.99 L891.762 1264.99 L891.762 1263.18 Q891.762 1258.86 893.776 1256.89 Q895.79 1254.9 900.165 1254.9 L904.192 1254.9 Z" fill="#000000" fill-rule="nonzero" fill-opacity="1" /><path clip-path="url(#clip230)" d="M907.757 1264.99 L912.017 1264.99 L912.017 1290.92 L907.757 1290.92 L907.757 1264.99 M907.757 1254.9 L912.017 1254.9 L912.017 1260.29 L907.757 1260.29 L907.757 1254.9 Z" fill="#000000" fill-rule="nonzero" fill-opacity="1" /><path clip-path="url(#clip230)" d="M925.141 1257.63 L925.141 1264.99 L933.915 1264.99 L933.915 1268.3 L925.141 1268.3 L925.141 1282.37 Q925.141 1285.54 925.998 1286.45 Q926.878 1287.35 929.54 1287.35 L933.915 1287.35 L933.915 1290.92 L929.54 1290.92 Q924.609 1290.92 922.734 1289.09 Q920.859 1287.23 920.859 1282.37 L920.859 1268.3 L917.734 1268.3 L917.734 1264.99 L920.859 1264.99 L920.859 1257.63 L925.141 1257.63 Z" fill="#000000" fill-rule="nonzero" fill-opacity="1" /><path clip-path="url(#clip230)" d="M970.743 1285.04 L975.627 1285.04 L975.627 1290.92 L970.743 1290.92 L970.743 1285.04 M970.743 1266.4 L975.627 1266.4 L975.627 1272.28 L970.743 1272.28 L970.743 1266.4 Z" fill="#000000" fill-rule="nonzero" fill-opacity="1" /><path clip-path="url(#clip230)" d="M983.474 1276.03 L995.951 1276.03 L995.951 1279.83 L983.474 1279.83 L983.474 1276.03 Z" fill="#000000" fill-rule="nonzero" fill-opacity="1" /><path clip-path="url(#clip230)" d="M1013.91 1271.77 Q1010.77 1271.77 1008.91 1273.92 Q1007.09 1276.08 1007.09 1279.83 Q1007.09 1283.55 1008.91 1285.73 Q1010.77 1287.88 1013.91 1287.88 Q1017.06 1287.88 1018.89 1285.73 Q1020.74 1283.55 1020.74 1279.83 Q1020.74 1276.08 1018.89 1273.92 Q1017.06 1271.77 1013.91 1271.77 M1023.2 1257.12 L1023.2 1261.38 Q1021.44 1260.55 1019.63 1260.11 Q1017.85 1259.67 1016.09 1259.67 Q1011.46 1259.67 1009.01 1262.79 Q1006.58 1265.92 1006.23 1272.23 Q1007.59 1270.22 1009.65 1269.16 Q1011.72 1268.07 1014.19 1268.07 Q1019.4 1268.07 1022.41 1271.24 Q1025.44 1274.39 1025.44 1279.83 Q1025.44 1285.15 1022.29 1288.37 Q1019.15 1291.59 1013.91 1291.59 Q1007.92 1291.59 1004.75 1287 Q1001.58 1282.4 1001.58 1273.67 Q1001.58 1265.48 1005.47 1260.61 Q1009.35 1255.73 1015.9 1255.73 Q1017.66 1255.73 1019.45 1256.08 Q1021.25 1256.42 1023.2 1257.12 Z" fill="#000000" fill-rule="nonzero" fill-opacity="1" /><path clip-path="url(#clip230)" d="M1047.66 1272.28 Q1051.02 1273 1052.9 1275.27 Q1054.79 1277.54 1054.79 1280.87 Q1054.79 1285.98 1051.28 1288.79 Q1047.76 1291.59 1041.28 1291.59 Q1039.1 1291.59 1036.78 1291.15 Q1034.49 1290.73 1032.04 1289.87 L1032.04 1285.36 Q1033.98 1286.49 1036.3 1287.07 Q1038.61 1287.65 1041.14 1287.65 Q1045.53 1287.65 1047.83 1285.92 Q1050.14 1284.18 1050.14 1280.87 Q1050.14 1277.81 1047.99 1276.1 Q1045.86 1274.36 1042.04 1274.36 L1038.01 1274.36 L1038.01 1270.52 L1042.22 1270.52 Q1045.67 1270.52 1047.5 1269.16 Q1049.33 1267.77 1049.33 1265.17 Q1049.33 1262.51 1047.43 1261.1 Q1045.56 1259.67 1042.04 1259.67 Q1040.12 1259.67 1037.92 1260.08 Q1035.72 1260.5 1033.08 1261.38 L1033.08 1257.21 Q1035.74 1256.47 1038.06 1256.1 Q1040.4 1255.73 1042.46 1255.73 Q1047.78 1255.73 1050.88 1258.16 Q1053.98 1260.57 1053.98 1264.69 Q1053.98 1267.56 1052.34 1269.55 Q1050.7 1271.52 1047.66 1272.28 Z" fill="#000000" fill-rule="nonzero" fill-opacity="1" /><path clip-path="url(#clip230)" d="M1063.66 1285.04 L1068.54 1285.04 L1068.54 1290.92 L1063.66 1290.92 L1063.66 1285.04 Z" fill="#000000" fill-rule="nonzero" fill-opacity="1" /><path clip-path="url(#clip230)" d="M1089.31 1271.77 Q1086.16 1271.77 1084.31 1273.92 Q1082.48 1276.08 1082.48 1279.83 Q1082.48 1283.55 1084.31 1285.73 Q1086.16 1287.88 1089.31 1287.88 Q1092.46 1287.88 1094.28 1285.73 Q1096.14 1283.55 1096.14 1279.83 Q1096.14 1276.08 1094.28 1273.92 Q1092.46 1271.77 1089.31 1271.77 M1098.59 1257.12 L1098.59 1261.38 Q1096.83 1260.55 1095.02 1260.11 Q1093.24 1259.67 1091.48 1259.67 Q1086.85 1259.67 1084.4 1262.79 Q1081.97 1265.92 1081.62 1272.23 Q1082.99 1270.22 1085.05 1269.16 Q1087.11 1268.07 1089.59 1268.07 Q1094.79 1268.07 1097.8 1271.24 Q1100.83 1274.39 1100.83 1279.83 Q1100.83 1285.15 1097.69 1288.37 Q1094.54 1291.59 1089.31 1291.59 Q1083.31 1291.59 1080.14 1287 Q1076.97 1282.4 1076.97 1273.67 Q1076.97 1265.48 1080.86 1260.61 Q1084.75 1255.73 1091.3 1255.73 Q1093.06 1255.73 1094.84 1256.08 Q1096.65 1256.42 1098.59 1257.12 Z" fill="#000000" fill-rule="nonzero" fill-opacity="1" /><path clip-path="url(#clip230)" d="M1138.29 1275.71 Q1136.27 1275.71 1135.12 1277.42 Q1133.98 1279.13 1133.98 1282.19 Q1133.98 1285.2 1135.12 1286.93 Q1136.27 1288.65 1138.29 1288.65 Q1140.26 1288.65 1141.39 1286.93 Q1142.55 1285.2 1142.55 1282.19 Q1142.55 1279.16 1141.39 1277.44 Q1140.26 1275.71 1138.29 1275.71 M1138.29 1272.77 Q1141.95 1272.77 1144.1 1275.31 Q1146.25 1277.86 1146.25 1282.19 Q1146.25 1286.52 1144.08 1289.06 Q1141.92 1291.59 1138.29 1291.59 Q1134.58 1291.59 1132.43 1289.06 Q1130.28 1286.52 1130.28 1282.19 Q1130.28 1277.84 1132.43 1275.31 Q1134.61 1272.77 1138.29 1272.77 M1114.4 1258.67 Q1112.41 1258.67 1111.25 1260.41 Q1110.12 1262.12 1110.12 1265.13 Q1110.12 1268.18 1111.25 1269.9 Q1112.39 1271.61 1114.4 1271.61 Q1116.41 1271.61 1117.55 1269.9 Q1118.71 1268.18 1118.71 1265.13 Q1118.71 1262.14 1117.55 1260.41 Q1116.39 1258.67 1114.4 1258.67 M1135.3 1255.73 L1139.01 1255.73 L1117.39 1291.59 L1113.68 1291.59 L1135.3 1255.73 M1114.4 1255.73 Q1118.06 1255.73 1120.23 1258.28 Q1122.41 1260.8 1122.41 1265.13 Q1122.41 1269.5 1120.23 1272.03 Q1118.08 1274.55 1114.4 1274.55 Q1110.72 1274.55 1108.57 1272.03 Q1106.44 1269.48 1106.44 1265.13 Q1106.44 1260.82 1108.59 1258.28 Q1110.74 1255.73 1114.4 1255.73 Z" fill="#000000" fill-rule="nonzero" fill-opacity="1" /><polyline clip-path="url(#clip230)" style="stroke:#3da44d; stroke-linecap:round; stroke-linejoin:round; stroke-width:4; stroke-opacity:1; fill:none" points="349.167,1325.48 488.953,1325.48 "/>
<path clip-path="url(#clip230)" d="M528.083 1312.8 L521.741 1330 L534.449 1330 L528.083 1312.8 M525.445 1308.2 L530.745 1308.2 L543.917 1342.76 L539.056 1342.76 L535.907 1333.89 L520.329 1333.89 L517.181 1342.76 L512.25 1342.76 L525.445 1308.2 Z" fill="#000000" fill-rule="nonzero" fill-opacity="1" /><path clip-path="url(#clip230)" d="M565.352 1326.55 Q566.856 1327.06 568.268 1328.73 Q569.704 1330.39 571.139 1333.31 L575.884 1342.76 L570.861 1342.76 L566.44 1333.89 Q564.727 1330.42 563.106 1329.28 Q561.509 1328.15 558.731 1328.15 L553.639 1328.15 L553.639 1342.76 L548.963 1342.76 L548.963 1308.2 L559.518 1308.2 Q565.444 1308.2 568.361 1310.67 Q571.278 1313.15 571.278 1318.15 Q571.278 1321.41 569.75 1323.57 Q568.245 1325.72 565.352 1326.55 M553.639 1312.04 L553.639 1324.31 L559.518 1324.31 Q562.898 1324.31 564.611 1322.76 Q566.347 1321.18 566.347 1318.15 Q566.347 1315.12 564.611 1313.59 Q562.898 1312.04 559.518 1312.04 L553.639 1312.04 Z" fill="#000000" fill-rule="nonzero" fill-opacity="1" /><path clip-path="url(#clip230)" d="M580.236 1308.2 L585.259 1308.2 L593.847 1321.04 L602.481 1308.2 L607.504 1308.2 L596.393 1324.79 L608.245 1342.76 L603.222 1342.76 L593.5 1328.06 L583.708 1342.76 L578.662 1342.76 L591 1324.31 L580.236 1308.2 Z" fill="#000000" fill-rule="nonzero" fill-opacity="1" /><path clip-path="url(#clip230)" d="M649.448 1321.81 Q651.046 1318.94 653.268 1317.57 Q655.49 1316.2 658.499 1316.2 Q662.55 1316.2 664.749 1319.05 Q666.948 1321.88 666.948 1327.11 L666.948 1342.76 L662.666 1342.76 L662.666 1327.25 Q662.666 1323.52 661.347 1321.71 Q660.027 1319.91 657.319 1319.91 Q654.009 1319.91 652.087 1322.11 Q650.166 1324.31 650.166 1328.1 L650.166 1342.76 L645.884 1342.76 L645.884 1327.25 Q645.884 1323.5 644.564 1321.71 Q643.245 1319.91 640.49 1319.91 Q637.226 1319.91 635.305 1322.13 Q633.384 1324.33 633.384 1328.1 L633.384 1342.76 L629.101 1342.76 L629.101 1316.83 L633.384 1316.83 L633.384 1320.86 Q634.842 1318.47 636.879 1317.34 Q638.916 1316.2 641.717 1316.2 Q644.541 1316.2 646.509 1317.64 Q648.499 1319.07 649.448 1321.81 Z" fill="#000000" fill-rule="nonzero" fill-opacity="1" /><path clip-path="url(#clip230)" d="M685.49 1319.82 Q682.064 1319.82 680.073 1322.5 Q678.083 1325.16 678.083 1329.82 Q678.083 1334.47 680.05 1337.15 Q682.041 1339.82 685.49 1339.82 Q688.893 1339.82 690.883 1337.13 Q692.874 1334.45 692.874 1329.82 Q692.874 1325.21 690.883 1322.52 Q688.893 1319.82 685.49 1319.82 M685.49 1316.2 Q691.045 1316.2 694.217 1319.82 Q697.388 1323.43 697.388 1329.82 Q697.388 1336.18 694.217 1339.82 Q691.045 1343.43 685.49 1343.43 Q679.911 1343.43 676.74 1339.82 Q673.592 1336.18 673.592 1329.82 Q673.592 1323.43 676.74 1319.82 Q679.911 1316.2 685.49 1316.2 Z" fill="#000000" fill-rule="nonzero" fill-opacity="1" /><path clip-path="url(#clip230)" d="M721.508 1320.76 L721.508 1306.74 L725.768 1306.74 L725.768 1342.76 L721.508 1342.76 L721.508 1338.87 Q720.166 1341.18 718.106 1342.32 Q716.068 1343.43 713.198 1343.43 Q708.499 1343.43 705.536 1339.68 Q702.596 1335.93 702.596 1329.82 Q702.596 1323.7 705.536 1319.95 Q708.499 1316.2 713.198 1316.2 Q716.068 1316.2 718.106 1317.34 Q720.166 1318.45 721.508 1320.76 M706.994 1329.82 Q706.994 1334.51 708.916 1337.2 Q710.86 1339.86 714.24 1339.86 Q717.619 1339.86 719.564 1337.2 Q721.508 1334.51 721.508 1329.82 Q721.508 1325.12 719.564 1322.45 Q717.619 1319.77 714.24 1319.77 Q710.86 1319.77 708.916 1322.45 Q706.994 1325.12 706.994 1329.82 Z" fill="#000000" fill-rule="nonzero" fill-opacity="1" /><path clip-path="url(#clip230)" d="M756.716 1328.73 L756.716 1330.81 L737.133 1330.81 Q737.411 1335.21 739.772 1337.52 Q742.156 1339.82 746.392 1339.82 Q748.846 1339.82 751.138 1339.21 Q753.453 1338.61 755.721 1337.41 L755.721 1341.44 Q753.429 1342.41 751.022 1342.92 Q748.615 1343.43 746.138 1343.43 Q739.934 1343.43 736.3 1339.82 Q732.689 1336.2 732.689 1330.05 Q732.689 1323.68 736.115 1319.95 Q739.564 1316.2 745.397 1316.2 Q750.628 1316.2 753.661 1319.58 Q756.716 1322.94 756.716 1328.73 M752.457 1327.48 Q752.411 1323.98 750.49 1321.9 Q748.591 1319.82 745.443 1319.82 Q741.879 1319.82 739.726 1321.83 Q737.596 1323.84 737.272 1327.5 L752.457 1327.48 Z" fill="#000000" fill-rule="nonzero" fill-opacity="1" /><path clip-path="url(#clip230)" d="M763.707 1306.74 L767.966 1306.74 L767.966 1342.76 L763.707 1342.76 L763.707 1306.74 Z" fill="#000000" fill-rule="nonzero" fill-opacity="1" /><path clip-path="url(#clip230)" d="M789.471 1316.83 L793.73 1316.83 L799.054 1337.06 L804.355 1316.83 L809.378 1316.83 L814.702 1337.06 L820.003 1316.83 L824.262 1316.83 L817.48 1342.76 L812.457 1342.76 L806.878 1321.51 L801.276 1342.76 L796.253 1342.76 L789.471 1316.83 Z" fill="#000000" fill-rule="nonzero" fill-opacity="1" /><path clip-path="url(#clip230)" d="M830.721 1316.83 L834.98 1316.83 L834.98 1342.76 L830.721 1342.76 L830.721 1316.83 M830.721 1306.74 L834.98 1306.74 L834.98 1312.13 L830.721 1312.13 L830.721 1306.74 Z" fill="#000000" fill-rule="nonzero" fill-opacity="1" /><path clip-path="url(#clip230)" d="M848.105 1309.47 L848.105 1316.83 L856.878 1316.83 L856.878 1320.14 L848.105 1320.14 L848.105 1334.21 Q848.105 1337.38 848.961 1338.29 Q849.841 1339.19 852.503 1339.19 L856.878 1339.19 L856.878 1342.76 L852.503 1342.76 Q847.572 1342.76 845.697 1340.93 Q843.822 1339.07 843.822 1334.21 L843.822 1320.14 L840.697 1320.14 L840.697 1316.83 L843.822 1316.83 L843.822 1309.47 L848.105 1309.47 Z" fill="#000000" fill-rule="nonzero" fill-opacity="1" /><path clip-path="url(#clip230)" d="M884.031 1327.11 L884.031 1342.76 L879.771 1342.76 L879.771 1327.25 Q879.771 1323.57 878.336 1321.74 Q876.901 1319.91 874.031 1319.91 Q870.582 1319.91 868.591 1322.11 Q866.6 1324.31 866.6 1328.1 L866.6 1342.76 L862.318 1342.76 L862.318 1306.74 L866.6 1306.74 L866.6 1320.86 Q868.128 1318.52 870.188 1317.36 Q872.271 1316.2 874.98 1316.2 Q879.447 1316.2 881.739 1318.98 Q884.031 1321.74 884.031 1327.11 Z" fill="#000000" fill-rule="nonzero" fill-opacity="1" /><path clip-path="url(#clip230)" d="M924.655 1320.76 L924.655 1306.74 L928.915 1306.74 L928.915 1342.76 L924.655 1342.76 L924.655 1338.87 Q923.313 1341.18 921.253 1342.32 Q919.216 1343.43 916.345 1343.43 Q911.646 1343.43 908.683 1339.68 Q905.743 1335.93 905.743 1329.82 Q905.743 1323.7 908.683 1319.95 Q911.646 1316.2 916.345 1316.2 Q919.216 1316.2 921.253 1317.34 Q923.313 1318.45 924.655 1320.76 M910.142 1329.82 Q910.142 1334.51 912.063 1337.2 Q914.007 1339.86 917.387 1339.86 Q920.766 1339.86 922.711 1337.2 Q924.655 1334.51 924.655 1329.82 Q924.655 1325.12 922.711 1322.45 Q920.766 1319.77 917.387 1319.77 Q914.007 1319.77 912.063 1322.45 Q910.142 1325.12 910.142 1329.82 Z" fill="#000000" fill-rule="nonzero" fill-opacity="1" /><path clip-path="url(#clip230)" d="M959.863 1328.73 L959.863 1330.81 L940.28 1330.81 Q940.558 1335.21 942.919 1337.52 Q945.303 1339.82 949.539 1339.82 Q951.993 1339.82 954.285 1339.21 Q956.6 1338.61 958.868 1337.41 L958.868 1341.44 Q956.576 1342.41 954.169 1342.92 Q951.762 1343.43 949.285 1343.43 Q943.081 1343.43 939.447 1339.82 Q935.836 1336.2 935.836 1330.05 Q935.836 1323.68 939.262 1319.95 Q942.711 1316.2 948.544 1316.2 Q953.776 1316.2 956.808 1319.58 Q959.863 1322.94 959.863 1328.73 M955.604 1327.48 Q955.558 1323.98 953.637 1321.9 Q951.739 1319.82 948.59 1319.82 Q945.026 1319.82 942.873 1321.83 Q940.743 1323.84 940.419 1327.5 L955.604 1327.48 Z" fill="#000000" fill-rule="nonzero" fill-opacity="1" /><path clip-path="url(#clip230)" d="M966.854 1306.74 L971.113 1306.74 L971.113 1342.76 L966.854 1342.76 L966.854 1306.74 Z" fill="#000000" fill-rule="nonzero" fill-opacity="1" /><path clip-path="url(#clip230)" d="M991.808 1329.72 Q986.646 1329.72 984.655 1330.9 Q982.664 1332.08 982.664 1334.93 Q982.664 1337.2 984.146 1338.54 Q985.65 1339.86 988.22 1339.86 Q991.761 1339.86 993.891 1337.36 Q996.044 1334.84 996.044 1330.67 L996.044 1329.72 L991.808 1329.72 M1000.3 1327.96 L1000.3 1342.76 L996.044 1342.76 L996.044 1338.82 Q994.586 1341.18 992.41 1342.32 Q990.234 1343.43 987.086 1343.43 Q983.104 1343.43 980.743 1341.2 Q978.405 1338.96 978.405 1335.21 Q978.405 1330.83 981.322 1328.61 Q984.261 1326.39 990.072 1326.39 L996.044 1326.39 L996.044 1325.97 Q996.044 1323.03 994.099 1321.44 Q992.178 1319.82 988.683 1319.82 Q986.461 1319.82 984.354 1320.35 Q982.248 1320.88 980.303 1321.95 L980.303 1318.01 Q982.641 1317.11 984.84 1316.67 Q987.039 1316.2 989.123 1316.2 Q994.748 1316.2 997.525 1319.12 Q1000.3 1322.04 1000.3 1327.96 Z" fill="#000000" fill-rule="nonzero" fill-opacity="1" /><path clip-path="url(#clip230)" d="M1019.86 1345.16 Q1018.06 1349.79 1016.34 1351.2 Q1014.63 1352.62 1011.76 1352.62 L1008.36 1352.62 L1008.36 1349.05 L1010.86 1349.05 Q1012.62 1349.05 1013.59 1348.22 Q1014.56 1347.38 1015.74 1344.28 L1016.51 1342.34 L1006.02 1316.83 L1010.53 1316.83 L1018.64 1337.11 L1026.74 1316.83 L1031.25 1316.83 L1019.86 1345.16 Z" fill="#000000" fill-rule="nonzero" fill-opacity="1" /><path clip-path="url(#clip230)" d="M1068.73 1317.59 L1068.73 1321.62 Q1066.92 1320.7 1064.98 1320.23 Q1063.03 1319.77 1060.95 1319.77 Q1057.78 1319.77 1056.18 1320.74 Q1054.61 1321.71 1054.61 1323.66 Q1054.61 1325.14 1055.74 1326 Q1056.88 1326.83 1060.3 1327.59 L1061.76 1327.92 Q1066.3 1328.89 1068.2 1330.67 Q1070.12 1332.43 1070.12 1335.6 Q1070.12 1339.21 1067.25 1341.32 Q1064.4 1343.43 1059.4 1343.43 Q1057.32 1343.43 1055.05 1343.01 Q1052.8 1342.62 1050.3 1341.81 L1050.3 1337.41 Q1052.66 1338.63 1054.96 1339.26 Q1057.25 1339.86 1059.49 1339.86 Q1062.5 1339.86 1064.12 1338.84 Q1065.74 1337.8 1065.74 1335.93 Q1065.74 1334.19 1064.56 1333.26 Q1063.4 1332.34 1059.45 1331.48 L1057.96 1331.14 Q1054.01 1330.3 1052.25 1328.59 Q1050.49 1326.85 1050.49 1323.84 Q1050.49 1320.19 1053.08 1318.2 Q1055.67 1316.2 1060.44 1316.2 Q1062.8 1316.2 1064.89 1316.55 Q1066.97 1316.9 1068.73 1317.59 Z" fill="#000000" fill-rule="nonzero" fill-opacity="1" /><path clip-path="url(#clip230)" d="M1076.9 1316.83 L1081.16 1316.83 L1081.16 1342.76 L1076.9 1342.76 L1076.9 1316.83 M1076.9 1306.74 L1081.16 1306.74 L1081.16 1312.13 L1076.9 1312.13 L1076.9 1306.74 Z" fill="#000000" fill-rule="nonzero" fill-opacity="1" /><path clip-path="url(#clip230)" d="M1110.26 1321.81 Q1111.85 1318.94 1114.08 1317.57 Q1116.3 1316.2 1119.31 1316.2 Q1123.36 1316.2 1125.56 1319.05 Q1127.76 1321.88 1127.76 1327.11 L1127.76 1342.76 L1123.47 1342.76 L1123.47 1327.25 Q1123.47 1323.52 1122.15 1321.71 Q1120.83 1319.91 1118.13 1319.91 Q1114.82 1319.91 1112.9 1322.11 Q1110.97 1324.31 1110.97 1328.1 L1110.97 1342.76 L1106.69 1342.76 L1106.69 1327.25 Q1106.69 1323.5 1105.37 1321.71 Q1104.05 1319.91 1101.3 1319.91 Q1098.03 1319.91 1096.11 1322.13 Q1094.19 1324.33 1094.19 1328.1 L1094.19 1342.76 L1089.91 1342.76 L1089.91 1316.83 L1094.19 1316.83 L1094.19 1320.86 Q1095.65 1318.47 1097.69 1317.34 Q1099.72 1316.2 1102.52 1316.2 Q1105.35 1316.2 1107.32 1317.64 Q1109.31 1319.07 1110.26 1321.81 Z" fill="#000000" fill-rule="nonzero" fill-opacity="1" /><path clip-path="url(#clip230)" d="M1164.45 1306.74 L1164.45 1310.28 L1160.37 1310.28 Q1158.08 1310.28 1157.18 1311.2 Q1156.3 1312.13 1156.3 1314.54 L1156.3 1316.83 L1163.31 1316.83 L1163.31 1320.14 L1156.3 1320.14 L1156.3 1342.76 L1152.02 1342.76 L1152.02 1320.14 L1147.94 1320.14 L1147.94 1316.83 L1152.02 1316.83 L1152.02 1315.02 Q1152.02 1310.7 1154.03 1308.73 Q1156.04 1306.74 1160.42 1306.74 L1164.45 1306.74 Z" fill="#000000" fill-rule="nonzero" fill-opacity="1" /><path clip-path="url(#clip230)" d="M1168.01 1316.83 L1172.27 1316.83 L1172.27 1342.76 L1168.01 1342.76 L1168.01 1316.83 M1168.01 1306.74 L1172.27 1306.74 L1172.27 1312.13 L1168.01 1312.13 L1168.01 1306.74 Z" fill="#000000" fill-rule="nonzero" fill-opacity="1" /><path clip-path="url(#clip230)" d="M1185.39 1309.47 L1185.39 1316.83 L1194.17 1316.83 L1194.17 1320.14 L1185.39 1320.14 L1185.39 1334.21 Q1185.39 1337.38 1186.25 1338.29 Q1187.13 1339.19 1189.79 1339.19 L1194.17 1339.19 L1194.17 1342.76 L1189.79 1342.76 Q1184.86 1342.76 1182.99 1340.93 Q1181.11 1339.07 1181.11 1334.21 L1181.11 1320.14 L1177.99 1320.14 L1177.99 1316.83 L1181.11 1316.83 L1181.11 1309.47 L1185.39 1309.47 Z" fill="#000000" fill-rule="nonzero" fill-opacity="1" /><path clip-path="url(#clip230)" d="M1231 1336.88 L1235.88 1336.88 L1235.88 1342.76 L1231 1342.76 L1231 1336.88 M1231 1318.24 L1235.88 1318.24 L1235.88 1324.12 L1231 1324.12 L1231 1318.24 Z" fill="#000000" fill-rule="nonzero" fill-opacity="1" /><path clip-path="url(#clip230)" d="M1247.29 1338.82 L1254.93 1338.82 L1254.93 1312.45 L1246.62 1314.12 L1246.62 1309.86 L1254.89 1308.2 L1259.56 1308.2 L1259.56 1338.82 L1267.2 1338.82 L1267.2 1342.76 L1247.29 1342.76 L1247.29 1338.82 Z" fill="#000000" fill-rule="nonzero" fill-opacity="1" /><path clip-path="url(#clip230)" d="M1286.64 1311.27 Q1283.03 1311.27 1281.2 1314.84 Q1279.4 1318.38 1279.4 1325.51 Q1279.4 1332.62 1281.2 1336.18 Q1283.03 1339.72 1286.64 1339.72 Q1290.28 1339.72 1292.08 1336.18 Q1293.91 1332.62 1293.91 1325.51 Q1293.91 1318.38 1292.08 1314.84 Q1290.28 1311.27 1286.64 1311.27 M1286.64 1307.57 Q1292.45 1307.57 1295.51 1312.18 Q1298.59 1316.76 1298.59 1325.51 Q1298.59 1334.24 1295.51 1338.84 Q1292.45 1343.43 1286.64 1343.43 Q1280.83 1343.43 1277.76 1338.84 Q1274.7 1334.24 1274.7 1325.51 Q1274.7 1316.76 1277.76 1312.18 Q1280.83 1307.57 1286.64 1307.57 Z" fill="#000000" fill-rule="nonzero" fill-opacity="1" /><path clip-path="url(#clip230)" d="M1316.81 1311.27 Q1313.19 1311.27 1311.37 1314.84 Q1309.56 1318.38 1309.56 1325.51 Q1309.56 1332.62 1311.37 1336.18 Q1313.19 1339.72 1316.81 1339.72 Q1320.44 1339.72 1322.25 1336.18 Q1324.07 1332.62 1324.07 1325.51 Q1324.07 1318.38 1322.25 1314.84 Q1320.44 1311.27 1316.81 1311.27 M1316.81 1307.57 Q1322.62 1307.57 1325.67 1312.18 Q1328.75 1316.76 1328.75 1325.51 Q1328.75 1334.24 1325.67 1338.84 Q1322.62 1343.43 1316.81 1343.43 Q1311 1343.43 1307.92 1338.84 Q1304.86 1334.24 1304.86 1325.51 Q1304.86 1316.76 1307.92 1312.18 Q1311 1307.57 1316.81 1307.57 Z" fill="#000000" fill-rule="nonzero" fill-opacity="1" /><path clip-path="url(#clip230)" d="M1336.97 1336.88 L1341.85 1336.88 L1341.85 1342.76 L1336.97 1342.76 L1336.97 1336.88 Z" fill="#000000" fill-rule="nonzero" fill-opacity="1" /><path clip-path="url(#clip230)" d="M1362.04 1311.27 Q1358.43 1311.27 1356.6 1314.84 Q1354.79 1318.38 1354.79 1325.51 Q1354.79 1332.62 1356.6 1336.18 Q1358.43 1339.72 1362.04 1339.72 Q1365.67 1339.72 1367.48 1336.18 Q1369.31 1332.62 1369.31 1325.51 Q1369.31 1318.38 1367.48 1314.84 Q1365.67 1311.27 1362.04 1311.27 M1362.04 1307.57 Q1367.85 1307.57 1370.9 1312.18 Q1373.98 1316.76 1373.98 1325.51 Q1373.98 1334.24 1370.9 1338.84 Q1367.85 1343.43 1362.04 1343.43 Q1356.23 1343.43 1353.15 1338.84 Q1350.09 1334.24 1350.09 1325.51 Q1350.09 1316.76 1353.15 1312.18 Q1356.23 1307.57 1362.04 1307.57 Z" fill="#000000" fill-rule="nonzero" fill-opacity="1" /><path clip-path="url(#clip230)" d="M1411.6 1327.55 Q1409.58 1327.55 1408.43 1329.26 Q1407.29 1330.97 1407.29 1334.03 Q1407.29 1337.04 1408.43 1338.77 Q1409.58 1340.49 1411.6 1340.49 Q1413.56 1340.49 1414.7 1338.77 Q1415.86 1337.04 1415.86 1334.03 Q1415.86 1331 1414.7 1329.28 Q1413.56 1327.55 1411.6 1327.55 M1411.6 1324.61 Q1415.25 1324.61 1417.41 1327.15 Q1419.56 1329.7 1419.56 1334.03 Q1419.56 1338.36 1417.38 1340.9 Q1415.23 1343.43 1411.6 1343.43 Q1407.89 1343.43 1405.74 1340.9 Q1403.59 1338.36 1403.59 1334.03 Q1403.59 1329.68 1405.74 1327.15 Q1407.92 1324.61 1411.6 1324.61 M1387.71 1310.51 Q1385.72 1310.51 1384.56 1312.25 Q1383.43 1313.96 1383.43 1316.97 Q1383.43 1320.02 1384.56 1321.74 Q1385.69 1323.45 1387.71 1323.45 Q1389.72 1323.45 1390.86 1321.74 Q1392.01 1320.02 1392.01 1316.97 Q1392.01 1313.98 1390.86 1312.25 Q1389.7 1310.51 1387.71 1310.51 M1408.61 1307.57 L1412.31 1307.57 L1390.69 1343.43 L1386.99 1343.43 L1408.61 1307.57 M1387.71 1307.57 Q1391.37 1307.57 1393.54 1310.12 Q1395.72 1312.64 1395.72 1316.97 Q1395.72 1321.34 1393.54 1323.87 Q1391.39 1326.39 1387.71 1326.39 Q1384.03 1326.39 1381.88 1323.87 Q1379.75 1321.32 1379.75 1316.97 Q1379.75 1312.66 1381.9 1310.12 Q1384.05 1307.57 1387.71 1307.57 Z" fill="#000000" fill-rule="nonzero" fill-opacity="1" /></svg>
