<?xml version="1.0" encoding="utf-8"?>
<svg xmlns="http://www.w3.org/2000/svg" xmlns:xlink="http://www.w3.org/1999/xlink" width="600" height="400" viewBox="0 0 2400 1600">
<defs>
  <clipPath id="clip310">
    <rect x="0" y="0" width="2400" height="1600"/>
  </clipPath>
</defs>
<path clip-path="url(#clip310)" d="M0 1600 L2400 1600 L2400 0 L0 0  Z" fill="#ffffff" fill-rule="evenodd" fill-opacity="1"/>
<defs>
  <clipPath id="clip311">
    <rect x="480" y="0" width="1681" height="1600"/>
  </clipPath>
</defs>
<path clip-path="url(#clip310)" d="M255.977 1423.18 L2352.76 1423.18 L2352.76 47.2441 L255.977 47.2441  Z" fill="#ffffff" fill-rule="evenodd" fill-opacity="1"/>
<defs>
  <clipPath id="clip312">
    <rect x="255" y="47" width="2098" height="1377"/>
  </clipPath>
</defs>
<polyline clip-path="url(#clip312)" style="stroke:#000000; stroke-linecap:round; stroke-linejoin:round; stroke-width:2; stroke-opacity:0.1; fill:none" points="315.32,1423.18 315.32,47.2441 "/>
<polyline clip-path="url(#clip312)" style="stroke:#000000; stroke-linecap:round; stroke-linejoin:round; stroke-width:2; stroke-opacity:0.1; fill:none" points="711.731,1423.18 711.731,47.2441 "/>
<polyline clip-path="url(#clip312)" style="stroke:#000000; stroke-linecap:round; stroke-linejoin:round; stroke-width:2; stroke-opacity:0.1; fill:none" points="1108.14,1423.18 1108.14,47.2441 "/>
<polyline clip-path="url(#clip312)" style="stroke:#000000; stroke-linecap:round; stroke-linejoin:round; stroke-width:2; stroke-opacity:0.1; fill:none" points="1504.55,1423.18 1504.55,47.2441 "/>
<polyline clip-path="url(#clip312)" style="stroke:#000000; stroke-linecap:round; stroke-linejoin:round; stroke-width:2; stroke-opacity:0.1; fill:none" points="1900.97,1423.18 1900.97,47.2441 "/>
<polyline clip-path="url(#clip312)" style="stroke:#000000; stroke-linecap:round; stroke-linejoin:round; stroke-width:2; stroke-opacity:0.1; fill:none" points="2297.38,1423.18 2297.38,47.2441 "/>
<polyline clip-path="url(#clip312)" style="stroke:#000000; stroke-linecap:round; stroke-linejoin:round; stroke-width:2; stroke-opacity:0.1; fill:none" points="255.977,1403.69 2352.76,1403.69 "/>
<polyline clip-path="url(#clip312)" style="stroke:#000000; stroke-linecap:round; stroke-linejoin:round; stroke-width:2; stroke-opacity:0.1; fill:none" points="255.977,1098.36 2352.76,1098.36 "/>
<polyline clip-path="url(#clip312)" style="stroke:#000000; stroke-linecap:round; stroke-linejoin:round; stroke-width:2; stroke-opacity:0.1; fill:none" points="255.977,793.029 2352.76,793.029 "/>
<polyline clip-path="url(#clip312)" style="stroke:#000000; stroke-linecap:round; stroke-linejoin:round; stroke-width:2; stroke-opacity:0.1; fill:none" points="255.977,487.701 2352.76,487.701 "/>
<polyline clip-path="url(#clip312)" style="stroke:#000000; stroke-linecap:round; stroke-linejoin:round; stroke-width:2; stroke-opacity:0.1; fill:none" points="255.977,182.373 2352.76,182.373 "/>
<polyline clip-path="url(#clip310)" style="stroke:#000000; stroke-linecap:round; stroke-linejoin:round; stroke-width:4; stroke-opacity:1; fill:none" points="255.977,1423.18 2352.76,1423.18 "/>
<polyline clip-path="url(#clip310)" style="stroke:#000000; stroke-linecap:round; stroke-linejoin:round; stroke-width:4; stroke-opacity:1; fill:none" points="315.32,1423.18 315.32,1404.28 "/>
<polyline clip-path="url(#clip310)" style="stroke:#000000; stroke-linecap:round; stroke-linejoin:round; stroke-width:4; stroke-opacity:1; fill:none" points="711.731,1423.18 711.731,1404.28 "/>
<polyline clip-path="url(#clip310)" style="stroke:#000000; stroke-linecap:round; stroke-linejoin:round; stroke-width:4; stroke-opacity:1; fill:none" points="1108.14,1423.18 1108.14,1404.28 "/>
<polyline clip-path="url(#clip310)" style="stroke:#000000; stroke-linecap:round; stroke-linejoin:round; stroke-width:4; stroke-opacity:1; fill:none" points="1504.55,1423.18 1504.55,1404.28 "/>
<polyline clip-path="url(#clip310)" style="stroke:#000000; stroke-linecap:round; stroke-linejoin:round; stroke-width:4; stroke-opacity:1; fill:none" points="1900.97,1423.18 1900.97,1404.28 "/>
<polyline clip-path="url(#clip310)" style="stroke:#000000; stroke-linecap:round; stroke-linejoin:round; stroke-width:4; stroke-opacity:1; fill:none" points="2297.38,1423.18 2297.38,1404.28 "/>
<path clip-path="url(#clip310)" d="M315.32 1454.1 Q311.709 1454.1 309.88 1457.66 Q308.075 1461.2 308.075 1468.33 Q308.075 1475.44 309.88 1479.01 Q311.709 1482.55 315.32 1482.55 Q318.954 1482.55 320.76 1479.01 Q322.588 1475.44 322.588 1468.33 Q322.588 1461.2 320.76 1457.66 Q318.954 1454.1 315.32 1454.1 M315.32 1450.39 Q321.13 1450.39 324.186 1455 Q327.264 1459.58 327.264 1468.33 Q327.264 1477.06 324.186 1481.67 Q321.13 1486.25 315.32 1486.25 Q309.51 1486.25 306.431 1481.67 Q303.376 1477.06 303.376 1468.33 Q303.376 1459.58 306.431 1455 Q309.51 1450.39 315.32 1450.39 Z" fill="#000000" fill-rule="nonzero" fill-opacity="1" /><path clip-path="url(#clip310)" d="M702.113 1481.64 L709.752 1481.64 L709.752 1455.28 L701.442 1456.95 L701.442 1452.69 L709.706 1451.02 L714.382 1451.02 L714.382 1481.64 L722.021 1481.64 L722.021 1485.58 L702.113 1485.58 L702.113 1481.64 Z" fill="#000000" fill-rule="nonzero" fill-opacity="1" /><path clip-path="url(#clip310)" d="M1102.8 1481.64 L1119.12 1481.64 L1119.12 1485.58 L1097.17 1485.58 L1097.17 1481.64 Q1099.83 1478.89 1104.42 1474.26 Q1109.02 1469.61 1110.2 1468.27 Q1112.45 1465.74 1113.33 1464.01 Q1114.23 1462.25 1114.23 1460.56 Q1114.23 1457.8 1112.29 1456.07 Q1110.37 1454.33 1107.26 1454.33 Q1105.06 1454.33 1102.61 1455.09 Q1100.18 1455.86 1097.4 1457.41 L1097.4 1452.69 Q1100.23 1451.55 1102.68 1450.97 Q1105.13 1450.39 1107.17 1450.39 Q1112.54 1450.39 1115.74 1453.08 Q1118.93 1455.77 1118.93 1460.26 Q1118.93 1462.39 1118.12 1464.31 Q1117.33 1466.2 1115.23 1468.8 Q1114.65 1469.47 1111.55 1472.69 Q1108.44 1475.88 1102.8 1481.64 Z" fill="#000000" fill-rule="nonzero" fill-opacity="1" /><path clip-path="url(#clip310)" d="M1508.8 1466.95 Q1512.16 1467.66 1514.03 1469.93 Q1515.93 1472.2 1515.93 1475.53 Q1515.93 1480.65 1512.41 1483.45 Q1508.89 1486.25 1502.41 1486.25 Q1500.24 1486.25 1497.92 1485.81 Q1495.63 1485.39 1493.18 1484.54 L1493.18 1480.02 Q1495.12 1481.16 1497.44 1481.74 Q1499.75 1482.32 1502.27 1482.32 Q1506.67 1482.32 1508.96 1480.58 Q1511.28 1478.84 1511.28 1475.53 Q1511.28 1472.48 1509.13 1470.77 Q1507 1469.03 1503.18 1469.03 L1499.15 1469.03 L1499.15 1465.19 L1503.36 1465.19 Q1506.81 1465.19 1508.64 1463.82 Q1510.47 1462.43 1510.47 1459.84 Q1510.47 1457.18 1508.57 1455.77 Q1506.7 1454.33 1503.18 1454.33 Q1501.26 1454.33 1499.06 1454.75 Q1496.86 1455.16 1494.22 1456.04 L1494.22 1451.88 Q1496.88 1451.14 1499.2 1450.77 Q1501.53 1450.39 1503.59 1450.39 Q1508.92 1450.39 1512.02 1452.83 Q1515.12 1455.23 1515.12 1459.35 Q1515.12 1462.22 1513.48 1464.21 Q1511.83 1466.18 1508.8 1466.95 Z" fill="#000000" fill-rule="nonzero" fill-opacity="1" /><path clip-path="url(#clip310)" d="M1903.98 1455.09 L1892.17 1473.54 L1903.98 1473.54 L1903.98 1455.09 M1902.75 1451.02 L1908.63 1451.02 L1908.63 1473.54 L1913.56 1473.54 L1913.56 1477.43 L1908.63 1477.43 L1908.63 1485.58 L1903.98 1485.58 L1903.98 1477.43 L1888.37 1477.43 L1888.37 1472.92 L1902.75 1451.02 Z" fill="#000000" fill-rule="nonzero" fill-opacity="1" /><path clip-path="url(#clip310)" d="M2287.66 1451.02 L2306.01 1451.02 L2306.01 1454.96 L2291.94 1454.96 L2291.94 1463.43 Q2292.96 1463.08 2293.97 1462.92 Q2294.99 1462.73 2296.01 1462.73 Q2301.8 1462.73 2305.18 1465.9 Q2308.56 1469.08 2308.56 1474.49 Q2308.56 1480.07 2305.09 1483.17 Q2301.61 1486.25 2295.29 1486.25 Q2293.12 1486.25 2290.85 1485.88 Q2288.6 1485.51 2286.2 1484.77 L2286.2 1480.07 Q2288.28 1481.2 2290.5 1481.76 Q2292.72 1482.32 2295.2 1482.32 Q2299.21 1482.32 2301.54 1480.21 Q2303.88 1478.1 2303.88 1474.49 Q2303.88 1470.88 2301.54 1468.77 Q2299.21 1466.67 2295.2 1466.67 Q2293.33 1466.67 2291.45 1467.08 Q2289.6 1467.5 2287.66 1468.38 L2287.66 1451.02 Z" fill="#000000" fill-rule="nonzero" fill-opacity="1" /><path clip-path="url(#clip310)" d="M1174.54 1520.52 L1214.74 1520.52 L1214.74 1525.93 L1197.87 1525.93 L1197.87 1568.04 L1191.41 1568.04 L1191.41 1525.93 L1174.54 1525.93 L1174.54 1520.52 Z" fill="#000000" fill-rule="nonzero" fill-opacity="1" /><path clip-path="url(#clip310)" d="M1218.68 1532.4 L1224.54 1532.4 L1224.54 1568.04 L1218.68 1568.04 L1218.68 1532.4 M1218.68 1518.52 L1224.54 1518.52 L1224.54 1525.93 L1218.68 1525.93 L1218.68 1518.52 Z" fill="#000000" fill-rule="nonzero" fill-opacity="1" /><path clip-path="url(#clip310)" d="M1264.55 1539.24 Q1266.75 1535.29 1269.8 1533.41 Q1272.86 1531.54 1276.99 1531.54 Q1282.56 1531.54 1285.59 1535.45 Q1288.61 1539.33 1288.61 1546.53 L1288.61 1568.04 L1282.72 1568.04 L1282.72 1546.72 Q1282.72 1541.59 1280.91 1539.11 Q1279.09 1536.63 1275.37 1536.63 Q1270.82 1536.63 1268.18 1539.65 Q1265.54 1542.68 1265.54 1547.9 L1265.54 1568.04 L1259.65 1568.04 L1259.65 1546.72 Q1259.65 1541.56 1257.83 1539.11 Q1256.02 1536.63 1252.23 1536.63 Q1247.74 1536.63 1245.1 1539.68 Q1242.46 1542.71 1242.46 1547.9 L1242.46 1568.04 L1236.57 1568.04 L1236.57 1532.4 L1242.46 1532.4 L1242.46 1537.93 Q1244.47 1534.66 1247.27 1533.1 Q1250.07 1531.54 1253.92 1531.54 Q1257.8 1531.54 1260.51 1533.51 Q1263.24 1535.48 1264.55 1539.24 Z" fill="#000000" fill-rule="nonzero" fill-opacity="1" /><path clip-path="url(#clip310)" d="M1330.78 1548.76 L1330.78 1551.62 L1303.86 1551.62 Q1304.24 1557.67 1307.49 1560.85 Q1310.76 1564 1316.59 1564 Q1319.96 1564 1323.11 1563.17 Q1326.3 1562.35 1329.42 1560.69 L1329.42 1566.23 Q1326.26 1567.57 1322.95 1568.27 Q1319.64 1568.97 1316.24 1568.97 Q1307.71 1568.97 1302.71 1564 Q1297.75 1559.04 1297.75 1550.57 Q1297.75 1541.82 1302.46 1536.69 Q1307.2 1531.54 1315.22 1531.54 Q1322.41 1531.54 1326.58 1536.18 Q1330.78 1540.8 1330.78 1548.76 M1324.93 1547.04 Q1324.86 1542.23 1322.22 1539.37 Q1319.61 1536.5 1315.28 1536.5 Q1310.38 1536.5 1307.42 1539.27 Q1304.49 1542.04 1304.05 1547.07 L1324.93 1547.04 Z" fill="#000000" fill-rule="nonzero" fill-opacity="1" /><path clip-path="url(#clip310)" d="M1360.58 1518.52 L1374.07 1518.52 L1374.07 1523.07 L1366.43 1523.07 L1366.43 1572.09 L1374.07 1572.09 L1374.07 1576.64 L1360.58 1576.64 L1360.58 1518.52 Z" fill="#000000" fill-rule="nonzero" fill-opacity="1" /><path clip-path="url(#clip310)" d="M1409.27 1533.45 L1409.27 1538.98 Q1406.79 1537.71 1404.12 1537.07 Q1401.44 1536.44 1398.58 1536.44 Q1394.22 1536.44 1392.02 1537.77 Q1389.86 1539.11 1389.86 1541.79 Q1389.86 1543.82 1391.42 1545 Q1392.98 1546.15 1397.69 1547.2 L1399.69 1547.64 Q1405.93 1548.98 1408.54 1551.43 Q1411.18 1553.85 1411.18 1558.21 Q1411.18 1563.17 1407.24 1566.07 Q1403.32 1568.97 1396.45 1568.97 Q1393.58 1568.97 1390.46 1568.39 Q1387.38 1567.85 1383.94 1566.74 L1383.94 1560.69 Q1387.18 1562.38 1390.34 1563.24 Q1393.49 1564.07 1396.57 1564.07 Q1400.71 1564.07 1402.94 1562.66 Q1405.17 1561.23 1405.17 1558.65 Q1405.17 1556.27 1403.54 1554.99 Q1401.95 1553.72 1396.51 1552.54 L1394.47 1552.07 Q1389.03 1550.92 1386.61 1548.56 Q1384.19 1546.18 1384.19 1542.04 Q1384.19 1537.01 1387.76 1534.27 Q1391.32 1531.54 1397.88 1531.54 Q1401.13 1531.54 1403.99 1532.01 Q1406.85 1532.49 1409.27 1533.45 Z" fill="#000000" fill-rule="nonzero" fill-opacity="1" /><path clip-path="url(#clip310)" d="M1434.2 1518.52 L1434.2 1576.64 L1420.7 1576.64 L1420.7 1572.09 L1428.31 1572.09 L1428.31 1523.07 L1420.7 1523.07 L1420.7 1518.52 L1434.2 1518.52 Z" fill="#000000" fill-rule="nonzero" fill-opacity="1" /><polyline clip-path="url(#clip310)" style="stroke:#000000; stroke-linecap:round; stroke-linejoin:round; stroke-width:4; stroke-opacity:1; fill:none" points="255.977,1423.18 255.977,47.2441 "/>
<polyline clip-path="url(#clip310)" style="stroke:#000000; stroke-linecap:round; stroke-linejoin:round; stroke-width:4; stroke-opacity:1; fill:none" points="255.977,1403.69 274.875,1403.69 "/>
<polyline clip-path="url(#clip310)" style="stroke:#000000; stroke-linecap:round; stroke-linejoin:round; stroke-width:4; stroke-opacity:1; fill:none" points="255.977,1098.36 274.875,1098.36 "/>
<polyline clip-path="url(#clip310)" style="stroke:#000000; stroke-linecap:round; stroke-linejoin:round; stroke-width:4; stroke-opacity:1; fill:none" points="255.977,793.029 274.875,793.029 "/>
<polyline clip-path="url(#clip310)" style="stroke:#000000; stroke-linecap:round; stroke-linejoin:round; stroke-width:4; stroke-opacity:1; fill:none" points="255.977,487.701 274.875,487.701 "/>
<polyline clip-path="url(#clip310)" style="stroke:#000000; stroke-linecap:round; stroke-linejoin:round; stroke-width:4; stroke-opacity:1; fill:none" points="255.977,182.373 274.875,182.373 "/>
<path clip-path="url(#clip310)" d="M114.631 1404.14 L144.306 1404.14 L144.306 1408.07 L114.631 1408.07 L114.631 1404.14 Z" fill="#000000" fill-rule="nonzero" fill-opacity="1" /><path clip-path="url(#clip310)" d="M164.399 1389.48 Q160.788 1389.48 158.959 1393.05 Q157.153 1396.59 157.153 1403.72 Q157.153 1410.83 158.959 1414.39 Q160.788 1417.93 164.399 1417.93 Q168.033 1417.93 169.839 1414.39 Q171.667 1410.83 171.667 1403.72 Q171.667 1396.59 169.839 1393.05 Q168.033 1389.48 164.399 1389.48 M164.399 1385.78 Q170.209 1385.78 173.264 1390.39 Q176.343 1394.97 176.343 1403.72 Q176.343 1412.45 173.264 1417.05 Q170.209 1421.64 164.399 1421.64 Q158.589 1421.64 155.51 1417.05 Q152.454 1412.45 152.454 1403.72 Q152.454 1394.97 155.51 1390.39 Q158.589 1385.78 164.399 1385.78 Z" fill="#000000" fill-rule="nonzero" fill-opacity="1" /><path clip-path="url(#clip310)" d="M184.561 1415.09 L189.445 1415.09 L189.445 1420.97 L184.561 1420.97 L184.561 1415.09 Z" fill="#000000" fill-rule="nonzero" fill-opacity="1" /><path clip-path="url(#clip310)" d="M203.658 1417.03 L219.977 1417.03 L219.977 1420.97 L198.033 1420.97 L198.033 1417.03 Q200.695 1414.28 205.278 1409.65 Q209.885 1404.99 211.065 1403.65 Q213.311 1401.13 214.19 1399.39 Q215.093 1397.63 215.093 1395.94 Q215.093 1393.19 213.149 1391.45 Q211.227 1389.72 208.125 1389.72 Q205.926 1389.72 203.473 1390.48 Q201.042 1391.24 198.264 1392.79 L198.264 1388.07 Q201.088 1386.94 203.542 1386.36 Q205.996 1385.78 208.033 1385.78 Q213.403 1385.78 216.598 1388.47 Q219.792 1391.15 219.792 1395.64 Q219.792 1397.77 218.982 1399.69 Q218.195 1401.59 216.088 1404.18 Q215.51 1404.85 212.408 1408.07 Q209.306 1411.27 203.658 1417.03 Z" fill="#000000" fill-rule="nonzero" fill-opacity="1" /><path clip-path="url(#clip310)" d="M114.26 1098.81 L143.936 1098.81 L143.936 1102.74 L114.26 1102.74 L114.26 1098.81 Z" fill="#000000" fill-rule="nonzero" fill-opacity="1" /><path clip-path="url(#clip310)" d="M164.028 1084.16 Q160.417 1084.16 158.589 1087.72 Q156.783 1091.26 156.783 1098.39 Q156.783 1105.5 158.589 1109.06 Q160.417 1112.6 164.028 1112.6 Q167.663 1112.6 169.468 1109.06 Q171.297 1105.5 171.297 1098.39 Q171.297 1091.26 169.468 1087.72 Q167.663 1084.16 164.028 1084.16 M164.028 1080.45 Q169.839 1080.45 172.894 1085.06 Q175.973 1089.64 175.973 1098.39 Q175.973 1107.12 172.894 1111.73 Q169.839 1116.31 164.028 1116.31 Q158.218 1116.31 155.14 1111.73 Q152.084 1107.12 152.084 1098.39 Q152.084 1089.64 155.14 1085.06 Q158.218 1080.45 164.028 1080.45 Z" fill="#000000" fill-rule="nonzero" fill-opacity="1" /><path clip-path="url(#clip310)" d="M184.19 1109.76 L189.075 1109.76 L189.075 1115.64 L184.19 1115.64 L184.19 1109.76 Z" fill="#000000" fill-rule="nonzero" fill-opacity="1" /><path clip-path="url(#clip310)" d="M200.07 1111.7 L207.709 1111.7 L207.709 1085.34 L199.399 1087 L199.399 1082.74 L207.662 1081.08 L212.338 1081.08 L212.338 1111.7 L219.977 1111.7 L219.977 1115.64 L200.07 1115.64 L200.07 1111.7 Z" fill="#000000" fill-rule="nonzero" fill-opacity="1" /><path clip-path="url(#clip310)" d="M162.802 778.828 Q159.19 778.828 157.362 782.393 Q155.556 785.934 155.556 793.064 Q155.556 800.17 157.362 803.735 Q159.19 807.277 162.802 807.277 Q166.436 807.277 168.241 803.735 Q170.07 800.17 170.07 793.064 Q170.07 785.934 168.241 782.393 Q166.436 778.828 162.802 778.828 M162.802 775.124 Q168.612 775.124 171.667 779.731 Q174.746 784.314 174.746 793.064 Q174.746 801.791 171.667 806.397 Q168.612 810.98 162.802 810.98 Q156.991 810.98 153.913 806.397 Q150.857 801.791 150.857 793.064 Q150.857 784.314 153.913 779.731 Q156.991 775.124 162.802 775.124 Z" fill="#000000" fill-rule="nonzero" fill-opacity="1" /><path clip-path="url(#clip310)" d="M182.963 804.429 L187.848 804.429 L187.848 810.309 L182.963 810.309 L182.963 804.429 Z" fill="#000000" fill-rule="nonzero" fill-opacity="1" /><path clip-path="url(#clip310)" d="M208.033 778.828 Q204.422 778.828 202.593 782.393 Q200.787 785.934 200.787 793.064 Q200.787 800.17 202.593 803.735 Q204.422 807.277 208.033 807.277 Q211.667 807.277 213.473 803.735 Q215.301 800.17 215.301 793.064 Q215.301 785.934 213.473 782.393 Q211.667 778.828 208.033 778.828 M208.033 775.124 Q213.843 775.124 216.898 779.731 Q219.977 784.314 219.977 793.064 Q219.977 801.791 216.898 806.397 Q213.843 810.98 208.033 810.98 Q202.223 810.98 199.144 806.397 Q196.088 801.791 196.088 793.064 Q196.088 784.314 199.144 779.731 Q202.223 775.124 208.033 775.124 Z" fill="#000000" fill-rule="nonzero" fill-opacity="1" /><path clip-path="url(#clip310)" d="M164.028 473.5 Q160.417 473.5 158.589 477.064 Q156.783 480.606 156.783 487.736 Q156.783 494.842 158.589 498.407 Q160.417 501.949 164.028 501.949 Q167.663 501.949 169.468 498.407 Q171.297 494.842 171.297 487.736 Q171.297 480.606 169.468 477.064 Q167.663 473.5 164.028 473.5 M164.028 469.796 Q169.839 469.796 172.894 474.402 Q175.973 478.986 175.973 487.736 Q175.973 496.462 172.894 501.069 Q169.839 505.652 164.028 505.652 Q158.218 505.652 155.14 501.069 Q152.084 496.462 152.084 487.736 Q152.084 478.986 155.14 474.402 Q158.218 469.796 164.028 469.796 Z" fill="#000000" fill-rule="nonzero" fill-opacity="1" /><path clip-path="url(#clip310)" d="M184.19 499.101 L189.075 499.101 L189.075 504.981 L184.19 504.981 L184.19 499.101 Z" fill="#000000" fill-rule="nonzero" fill-opacity="1" /><path clip-path="url(#clip310)" d="M200.07 501.046 L207.709 501.046 L207.709 474.68 L199.399 476.347 L199.399 472.088 L207.662 470.421 L212.338 470.421 L212.338 501.046 L219.977 501.046 L219.977 504.981 L200.07 504.981 L200.07 501.046 Z" fill="#000000" fill-rule="nonzero" fill-opacity="1" /><path clip-path="url(#clip310)" d="M164.399 168.172 Q160.788 168.172 158.959 171.736 Q157.153 175.278 157.153 182.408 Q157.153 189.514 158.959 193.079 Q160.788 196.62 164.399 196.62 Q168.033 196.62 169.839 193.079 Q171.667 189.514 171.667 182.408 Q171.667 175.278 169.839 171.736 Q168.033 168.172 164.399 168.172 M164.399 164.468 Q170.209 164.468 173.264 169.074 Q176.343 173.658 176.343 182.408 Q176.343 191.134 173.264 195.741 Q170.209 200.324 164.399 200.324 Q158.589 200.324 155.51 195.741 Q152.454 191.134 152.454 182.408 Q152.454 173.658 155.51 169.074 Q158.589 164.468 164.399 164.468 Z" fill="#000000" fill-rule="nonzero" fill-opacity="1" /><path clip-path="url(#clip310)" d="M184.561 193.773 L189.445 193.773 L189.445 199.653 L184.561 199.653 L184.561 193.773 Z" fill="#000000" fill-rule="nonzero" fill-opacity="1" /><path clip-path="url(#clip310)" d="M203.658 195.718 L219.977 195.718 L219.977 199.653 L198.033 199.653 L198.033 195.718 Q200.695 192.963 205.278 188.333 Q209.885 183.681 211.065 182.338 Q213.311 179.815 214.19 178.079 Q215.093 176.32 215.093 174.63 Q215.093 171.875 213.149 170.139 Q211.227 168.403 208.125 168.403 Q205.926 168.403 203.473 169.167 Q201.042 169.931 198.264 171.482 L198.264 166.759 Q201.088 165.625 203.542 165.047 Q205.996 164.468 208.033 164.468 Q213.403 164.468 216.598 167.153 Q219.792 169.838 219.792 174.329 Q219.792 176.458 218.982 178.38 Q218.195 180.278 216.088 182.871 Q215.51 183.542 212.408 186.759 Q209.306 189.954 203.658 195.718 Z" fill="#000000" fill-rule="nonzero" fill-opacity="1" /><path clip-path="url(#clip310)" d="M20.8447 823.791 Q20.8447 830.793 26.0645 834.931 Q31.2844 839.037 40.2919 839.037 Q49.2675 839.037 54.4874 834.931 Q59.7073 830.793 59.7073 823.791 Q59.7073 816.788 54.4874 812.714 Q49.2675 808.609 40.2919 808.609 Q31.2844 808.609 26.0645 812.714 Q20.8447 816.788 20.8447 823.791 M15.6248 823.791 Q15.6248 813.797 22.3406 807.813 Q29.0246 801.829 40.2919 801.829 Q51.5274 801.829 58.2432 807.813 Q64.9272 813.797 64.9272 823.791 Q64.9272 833.817 58.2432 839.832 Q51.5592 845.816 40.2919 845.816 Q29.0246 845.816 22.3406 839.832 Q15.6248 833.817 15.6248 823.791 Z" fill="#000000" fill-rule="nonzero" fill-opacity="1" /><path clip-path="url(#clip310)" d="M49.9359 792.631 L28.3562 792.631 L28.3562 786.774 L49.7131 786.774 Q54.7739 786.774 57.3202 784.801 Q59.8346 782.827 59.8346 778.881 Q59.8346 774.138 56.8109 771.401 Q53.7872 768.632 48.5673 768.632 L28.3562 768.632 L28.3562 762.775 L64.0042 762.775 L64.0042 768.632 L58.5296 768.632 Q61.7762 770.764 63.3676 773.597 Q64.9272 776.398 64.9272 780.122 Q64.9272 786.265 61.1078 789.448 Q57.2883 792.631 49.9359 792.631 M27.4968 777.894 L27.4968 777.894 Z" fill="#000000" fill-rule="nonzero" fill-opacity="1" /><path clip-path="url(#clip310)" d="M18.2347 744.92 L28.3562 744.92 L28.3562 732.857 L32.9077 732.857 L32.9077 744.92 L52.2594 744.92 Q56.6199 744.92 57.8613 743.742 Q59.1026 742.533 59.1026 738.872 L59.1026 732.857 L64.0042 732.857 L64.0042 738.872 Q64.0042 745.652 61.4897 748.23 Q58.9434 750.808 52.2594 750.808 L32.9077 750.808 L32.9077 755.105 L28.3562 755.105 L28.3562 750.808 L18.2347 750.808 L18.2347 744.92 Z" fill="#000000" fill-rule="nonzero" fill-opacity="1" /><path clip-path="url(#clip310)" d="M58.657 719.489 L77.5631 719.489 L77.5631 725.377 L28.3562 725.377 L28.3562 719.489 L33.7671 719.489 Q30.5842 717.643 29.0564 714.842 Q27.4968 712.009 27.4968 708.094 Q27.4968 701.601 32.6531 697.559 Q37.8093 693.485 46.212 693.485 Q54.6147 693.485 59.771 697.559 Q64.9272 701.601 64.9272 708.094 Q64.9272 712.009 63.3994 714.842 Q61.8398 717.643 58.657 719.489 M46.212 699.564 Q39.7508 699.564 36.0905 702.238 Q32.3984 704.879 32.3984 709.526 Q32.3984 714.173 36.0905 716.847 Q39.7508 719.489 46.212 719.489 Q52.6732 719.489 56.3653 716.847 Q60.0256 714.173 60.0256 709.526 Q60.0256 704.879 56.3653 702.238 Q52.6732 699.564 46.212 699.564 Z" fill="#000000" fill-rule="nonzero" fill-opacity="1" /><path clip-path="url(#clip310)" d="M49.9359 684.382 L28.3562 684.382 L28.3562 678.525 L49.7131 678.525 Q54.7739 678.525 57.3202 676.552 Q59.8346 674.579 59.8346 670.632 Q59.8346 665.889 56.8109 663.152 Q53.7872 660.383 48.5673 660.383 L28.3562 660.383 L28.3562 654.527 L64.0042 654.527 L64.0042 660.383 L58.5296 660.383 Q61.7762 662.516 63.3676 665.348 Q64.9272 668.149 64.9272 671.873 Q64.9272 678.016 61.1078 681.199 Q57.2883 684.382 49.9359 684.382 M27.4968 669.645 L27.4968 669.645 Z" fill="#000000" fill-rule="nonzero" fill-opacity="1" /><path clip-path="url(#clip310)" d="M18.2347 636.671 L28.3562 636.671 L28.3562 624.608 L32.9077 624.608 L32.9077 636.671 L52.2594 636.671 Q56.6199 636.671 57.8613 635.493 Q59.1026 634.284 59.1026 630.623 L59.1026 624.608 L64.0042 624.608 L64.0042 630.623 Q64.0042 637.403 61.4897 639.981 Q58.9434 642.559 52.2594 642.559 L32.9077 642.559 L32.9077 646.856 L28.3562 646.856 L28.3562 642.559 L18.2347 642.559 L18.2347 636.671 Z" fill="#000000" fill-rule="nonzero" fill-opacity="1" /><polyline clip-path="url(#clip312)" style="stroke:#009af9; stroke-linecap:round; stroke-linejoin:round; stroke-width:4; stroke-opacity:1; fill:none" points="315.32,793.029 319.284,793.029 323.248,793.029 323.248,823.209 327.212,823.209 327.212,852.5 331.176,852.5 331.176,880.645 335.141,880.645 335.141,907.414 339.105,907.414 339.105,932.608 343.069,932.608 343.069,956.063 347.033,956.063 347.033,977.65 350.997,977.65 350.997,997.278 354.961,997.278 354.961,1014.89 358.925,1014.89 358.925,1030.49 362.889,1030.49 362.889,1044.08 366.853,1044.08 366.853,1055.72 370.818,1055.72 370.818,1065.52 374.782,1065.52 374.782,1073.6 378.746,1073.6 378.746,1080.1 382.71,1080.1 382.71,1085.2 386.674,1085.2 386.674,1089.1 390.638,1089.1 390.638,1092.01 394.602,1092.01 394.602,1094.16 398.566,1094.16 398.566,1095.76 402.53,1095.76 402.53,1036.68 406.495,1036.68 406.495,979.305 410.459,979.305 410.459,924.35 414.423,924.35 414.423,872.486 418.387,872.486 418.387,824.303 422.351,824.303 422.351,840.664 426.315,840.664 426.315,859.841 430.279,859.841 430.279,881.63 434.243,881.63 434.243,905.778 438.208,905.778 438.208,931.994 442.172,931.994 442.172,959.949 446.136,959.949 446.136,989.289 450.1,989.289 450.1,1019.64 454.064,1019.64 454.064,1050.61 458.028,1050.61 458.028,1081.83 461.992,1081.83 461.992,1052.53 465.956,1052.53 465.956,1024.5 469.92,1024.5 469.92,997.883 473.885,997.883 473.885,972.818 477.849,972.818 477.849,949.406 481.813,949.406 481.813,988.073 485.777,988.073 485.777,1026.72 489.741,1026.72 489.741,1064.83 493.705,1064.83 493.705,1101.93 497.669,1101.93 497.669,1137.55 501.633,1137.55 501.633,1171.29 505.597,1171.29 505.597,1202.77 509.562,1202.77 509.562,1231.67 513.526,1231.67 513.526,1257.75 517.49,1257.75 517.49,1280.8 521.454,1280.8 521.454,1240.33 525.418,1240.33 525.418,1198.41 529.382,1198.41 529.382,1155.54 533.346,1155.54 533.346,1112.25 537.31,1112.25 537.31,1069.04 541.275,1069.04 541.275,1026.4 545.239,1026.4 545.239,984.826 549.203,984.826 549.203,944.749 553.167,944.749 553.167,906.576 557.131,906.576 557.131,870.667 561.095,870.667 561.095,897.689 565.059,897.689 565.059,925.755 569.023,925.755 569.023,954.541 572.987,954.541 572.987,983.718 576.952,983.718 576.952,1012.95 580.916,1012.95 580.916,1041.93 584.88,1041.93 584.88,1070.32 588.844,1070.32 588.844,1097.85 592.808,1097.85 592.808,1124.23 596.772,1124.23 596.772,1149.23 600.736,1149.23 600.736,1172.63 604.7,1172.63 604.7,1194.26 608.664,1194.26 608.664,1213.98 612.629,1213.98 612.629,1231.7 616.593,1231.7 616.593,1247.34 620.557,1247.34 620.557,1260.91 624.521,1260.91 624.521,1272.41 628.485,1272.41 628.485,1281.9 632.449,1281.9 632.449,1289.49 636.413,1289.49 636.413,1295.29 640.377,1295.29 640.377,1239.1 644.341,1239.1 644.341,1183.24 648.306,1183.24 648.306,1128.43 652.27,1128.43 652.27,1075.34 656.234,1075.34 656.234,1024.6 660.198,1024.6 660.198,976.786 664.162,976.786 664.162,932.385 668.126,932.385 668.126,891.817 672.09,891.817 672.09,855.415 676.054,855.415 676.054,823.424 680.019,823.424 680.019,796 683.983,796 683.983,773.206 687.947,773.206 687.947,755.016 691.911,755.016 691.911,741.318 695.875,741.318 695.875,731.918 699.839,731.918 699.839,786.906 703.803,786.906 703.803,843.807 707.767,843.807 707.767,901.709 711.731,901.709 711.731,959.707 715.696,959.707 715.696,1016.92 719.66,1016.92 719.66,1072.49 723.624,1072.49 723.624,1125.64 727.588,1125.64 727.588,1175.65 731.552,1175.65 731.552,1221.87 735.516,1221.87 735.516,1263.74 739.48,1263.74 739.48,1240.48 743.444,1240.48 743.444,1213.85 747.408,1213.85 747.408,1184.14 751.373,1184.14 751.373,1151.69 755.337,1151.69 755.337,1116.87 759.301,1116.87 759.301,1080.1 763.265,1080.1 763.265,1041.83 767.229,1041.83 767.229,1002.53 771.193,1002.53 771.193,962.676 775.157,962.676 775.157,922.744 779.121,922.744 779.121,943.564 783.085,943.564 783.085,963.446 787.05,963.446 787.05,982.301 791.014,982.301 791.014,1000.06 794.978,1000.06 794.978,1016.67 798.942,1016.67 798.942,971.738 802.906,971.738 802.906,927.405 806.87,927.405 806.87,884.195 810.834,884.195 810.834,842.602 814.798,842.602 814.798,803.074 818.763,803.074 818.763,826.373 822.727,826.373 822.727,850.703 826.691,850.703 826.691,875.83 830.655,875.83 830.655,901.507 834.619,901.507 834.619,927.485 838.583,927.485 838.583,953.51 842.547,953.51 842.547,979.333 846.511,979.333 846.511,1004.71 850.475,1004.71 850.475,1029.42 854.44,1029.42 854.44,1053.26 858.404,1053.26 858.404,1076.02 862.368,1076.02 862.368,1097.55 866.332,1097.55 866.332,1117.71 870.296,1117.71 870.296,1136.4 874.26,1136.4 874.26,1153.52 878.224,1153.52 878.224,1169.03 882.188,1169.03 882.188,1182.91 886.152,1182.91 886.152,1195.18 890.117,1195.18 890.117,1205.88 894.081,1205.88 894.081,1215.07 898.045,1215.07 898.045,1162.48 902.009,1162.48 902.009,1110.38 905.973,1110.38 905.973,1059.41 909.937,1059.41 909.937,1010.19 913.901,1010.19 913.901,963.267 917.865,963.267 917.865,919.161 921.829,919.161 921.829,878.305 925.794,878.305 925.794,841.065 929.758,841.065 929.758,807.727 933.722,807.727 933.722,778.494 937.686,778.494 937.686,813.848 941.65,813.848 941.65,851.689 945.614,851.689 945.614,891.458 949.578,891.458 949.578,932.572 953.542,932.572 953.542,974.439 957.507,974.439 957.507,956.104 961.471,956.104 961.471,939.123 965.435,939.123 965.435,923.451 969.399,923.451 969.399,909.023 973.363,909.023 973.363,895.753 977.327,895.753 977.327,943.9 981.291,943.9 981.291,991.209 985.255,991.209 985.255,1037.04 989.219,1037.04 989.219,1080.79 993.184,1080.79 993.184,1121.92 997.148,1121.92 997.148,1099.6 1001.11,1099.6 1001.11,1075.56 1005.08,1075.56 1005.08,1049.99 1009.04,1049.99 1009.04,1023.1 1013,1023.1 1013,995.135 1016.97,995.135 1016.97,966.353 1020.93,966.353 1020.93,937.02 1024.9,937.02 1024.9,907.412 1028.86,907.412 1028.86,877.802 1032.82,877.802 1032.82,848.461 1036.79,848.461 1036.79,880.008 1040.75,880.008 1040.75,910.551 1044.72,910.551 1044.72,939.801 1048.68,939.801 1048.68,967.501 1052.65,967.501 1052.65,993.427 1056.61,993.427 1056.61,1017.4 1060.57,1017.4 1060.57,1039.27 1064.54,1039.27 1064.54,1058.94 1068.5,1058.94 1068.5,1076.36 1072.47,1076.36 1072.47,1091.52 1076.43,1091.52 1076.43,1044.08 1080.39,1044.08 1080.39,996.244 1084.36,996.244 1084.36,948.646 1088.32,948.646 1088.32,901.884 1092.29,901.884 1092.29,856.53 1096.25,856.53 1096.25,873.473 1100.21,873.473 1100.21,891.056 1104.18,891.056 1104.18,909.185 1108.14,909.185 1108.14,927.756 1112.11,927.756 1112.11,946.658 1116.07,946.658 1116.07,905.413 1120.04,905.413 1120.04,866.037 1124,866.037 1124,828.923 1127.96,828.923 1127.96,794.409 1131.93,794.409 1131.93,762.778 1135.89,762.778 1135.89,734.247 1139.86,734.247 1139.86,708.973 1143.82,708.973 1143.82,687.045 1147.78,687.045 1147.78,668.487 1151.75,668.487 1151.75,653.26 1155.71,653.26 1155.71,641.262 1159.68,641.262 1159.68,632.335 1163.64,632.335 1163.64,626.268 1167.6,626.268 1167.6,622.802 1171.57,622.802 1171.57,621.639 1175.53,621.639 1175.53,622.445 1179.5,622.445 1179.5,624.863 1183.46,624.863 1183.46,628.515 1187.43,628.515 1187.43,633.014 1191.39,633.014 1191.39,637.971 1195.35,637.971 1195.35,703.361 1199.32,703.361 1199.32,766.675 1203.28,766.675 1203.28,827.045 1207.25,827.045 1207.25,883.687 1211.21,883.687 1211.21,935.908 1215.17,935.908 1215.17,983.119 1219.14,983.119 1219.14,1024.85 1223.1,1024.85 1223.1,1060.73 1227.07,1060.73 1227.07,1090.54 1231.03,1090.54 1231.03,1114.17 1234.99,1114.17 1234.99,1131.62 1238.96,1131.62 1238.96,1143.03 1242.92,1143.03 1242.92,1148.63 1246.89,1148.63 1246.89,1148.78 1250.85,1148.78 1250.85,1143.91 1254.82,1143.91 1254.82,1134.55 1258.78,1134.55 1258.78,1121.28 1262.74,1121.28 1262.74,1104.77 1266.71,1104.77 1266.71,1085.7 1270.67,1085.7 1270.67,1064.79 1274.64,1064.79 1274.64,1042.76 1278.6,1042.76 1278.6,1020.36 1282.56,1020.36 1282.56,998.295 1286.53,998.295 1286.53,977.24 1290.49,977.24 1290.49,957.838 1294.46,957.838 1294.46,940.674 1298.42,940.674 1298.42,926.27 1302.38,926.27 1302.38,915.074 1306.35,915.074 1306.35,907.459 1310.31,907.459 1310.31,903.709 1314.28,903.709 1314.28,904.025 1318.24,904.025 1318.24,908.518 1322.21,908.518 1322.21,917.212 1326.17,917.212 1326.17,930.044 1330.13,930.044 1330.13,946.871 1334.1,946.871 1334.1,907.112 1338.06,907.112 1338.06,872.614 1342.03,872.614 1342.03,843.54 1345.99,843.54 1345.99,819.941 1349.95,819.941 1349.95,801.766 1353.92,801.766 1353.92,788.862 1357.88,788.862 1357.88,780.978 1361.85,780.978 1361.85,777.777 1365.81,777.777 1365.81,778.842 1369.77,778.842 1369.77,783.691 1373.74,783.691 1373.74,852.14 1377.7,852.14 1377.7,921.468 1381.67,921.468 1381.67,990.542 1385.63,990.542 1385.63,1058.27 1389.6,1058.27 1389.6,1123.6 1393.56,1123.6 1393.56,1185.59 1397.52,1185.59 1397.52,1243.35 1401.49,1243.35 1401.49,1296.12 1405.45,1296.12 1405.45,1343.26 1409.42,1343.26 1409.42,1384.24 1413.38,1384.24 1413.38,1358.32 1417.34,1358.32 1417.34,1327.38 1421.31,1327.38 1421.31,1291.84 1425.27,1291.84 1425.27,1252.18 1429.24,1252.18 1429.24,1208.95 1433.2,1208.95 1433.2,1223.14 1437.16,1223.14 1437.16,1233.25 1441.13,1233.25 1441.13,1239.47 1445.09,1239.47 1445.09,1242.03 1449.06,1242.03 1449.06,1241.24 1453.02,1241.24 1453.02,1177.09 1456.98,1177.09 1456.98,1112.13 1460.95,1112.13 1460.95,1047.32 1464.91,1047.32 1464.91,983.57 1468.88,983.57 1468.88,921.774 1472.84,921.774 1472.84,862.751 1476.81,862.751 1476.81,807.246 1480.77,807.246 1480.77,755.917 1484.73,755.917 1484.73,709.324 1488.7,709.324 1488.7,667.919 1492.66,667.919 1492.66,632.043 1496.63,632.043 1496.63,601.922 1500.59,601.922 1500.59,577.663 1504.55,577.663 1504.55,559.26 1508.52,559.26 1508.52,546.594 1512.48,546.594 1512.48,539.44 1516.45,539.44 1516.45,537.474 1520.41,537.474 1520.41,540.282 1524.37,540.282 1524.37,547.373 1528.34,547.373 1528.34,558.188 1532.3,558.188 1532.3,572.114 1536.27,572.114 1536.27,588.498 1540.23,588.498 1540.23,606.661 1544.2,606.661 1544.2,625.913 1548.16,625.913 1548.16,645.563 1552.12,645.563 1552.12,725.297 1556.09,725.297 1556.09,802.333 1560.05,802.333 1560.05,875.549 1564.02,875.549 1564.02,943.931 1567.98,943.931 1567.98,1006.59 1571.94,1006.59 1571.94,1062.76 1575.91,1062.76 1575.91,1111.83 1579.87,1111.83 1579.87,1153.36 1583.84,1153.36 1583.84,1187.04 1587.8,1187.04 1587.8,1212.73 1591.76,1212.73 1591.76,1170.11 1595.73,1170.11 1595.73,1121.48 1599.69,1121.48 1599.69,1067.67 1603.66,1067.67 1603.66,1009.6 1607.62,1009.6 1607.62,948.243 1611.59,948.243 1611.59,944.973 1615.55,944.973 1615.55,938.681 1619.51,938.681 1619.51,929.881 1623.48,929.881 1623.48,919.116 1627.44,919.116 1627.44,906.951 1631.41,906.951 1631.41,893.957 1635.37,893.957 1635.37,880.703 1639.33,880.703 1639.33,867.743 1643.3,867.743 1643.3,855.606 1647.26,855.606 1647.26,844.785 1651.23,844.785 1651.23,835.732 1655.19,835.732 1655.19,828.847 1659.15,828.847 1659.15,824.473 1663.12,824.473 1663.12,822.89 1667.08,822.89 1667.08,824.313 1671.05,824.313 1671.05,768.529 1675.01,768.529 1675.01,717.754 1678.98,717.754 1678.98,672.51 1682.94,672.51 1682.94,633.201 1686.9,633.201 1686.9,600.103 1690.87,600.103 1690.87,573.366 1694.83,573.366 1694.83,553.012 1698.8,553.012 1698.8,538.943 1702.76,538.943 1702.76,530.941 1706.72,530.941 1706.72,528.679 1710.69,528.679 1710.69,531.729 1714.65,531.729 1714.65,539.575 1718.62,539.575 1718.62,551.625 1722.58,551.625 1722.58,567.224 1726.54,567.224 1726.54,585.67 1730.51,585.67 1730.51,666.589 1734.47,666.589 1734.47,747.09 1738.44,747.09 1738.44,825.908 1742.4,825.908 1742.4,901.841 1746.37,901.841 1746.37,973.78 1750.33,973.78 1750.33,980.363 1754.29,980.363 1754.29,982.85 1758.26,982.85 1758.26,981.017 1762.22,981.017 1762.22,974.733 1766.19,974.733 1766.19,963.964 1770.15,963.964 1770.15,1009.13 1774.11,1009.13 1774.11,1048.23 1778.08,1048.23 1778.08,1080.98 1782.04,1080.98 1782.04,1107.22 1786.01,1107.22 1786.01,1126.94 1789.97,1126.94 1789.97,1079.86 1793.93,1079.86 1793.93,1028.35 1797.9,1028.35 1797.9,973.253 1801.86,973.253 1801.86,915.467 1805.83,915.467 1805.83,855.916 1809.79,855.916 1809.79,795.535 1813.76,795.535 1813.76,735.252 1817.72,735.252 1817.72,675.966 1821.68,675.966 1821.68,618.534 1825.65,618.534 1825.65,563.756 1829.61,563.756 1829.61,572.714 1833.58,572.714 1833.58,583.912 1837.54,583.912 1837.54,597.38 1841.5,597.38 1841.5,613.1 1845.47,613.1 1845.47,631.006 1849.43,631.006 1849.43,650.99 1853.4,650.99 1853.4,672.902 1857.36,672.902 1857.36,696.554 1861.32,696.554 1861.32,721.73 1865.29,721.73 1865.29,748.184 1869.25,748.184 1869.25,715.29 1873.22,715.29 1873.22,684.908 1877.18,684.908 1877.18,657.26 1881.15,657.26 1881.15,632.514 1885.11,632.514 1885.11,610.778 1889.07,610.778 1889.07,592.101 1893.04,592.101 1893.04,576.472 1897,576.472 1897,563.824 1900.97,563.824 1900.97,554.037 1904.93,554.037 1904.93,546.94 1908.89,546.94 1908.89,542.317 1912.86,542.317 1912.86,539.913 1916.82,539.913 1916.82,539.438 1920.79,539.438 1920.79,540.579 1924.75,540.579 1924.75,542.998 1928.71,542.998 1928.71,546.349 1932.68,546.349 1932.68,550.278 1936.64,550.278 1936.64,554.434 1940.61,554.434 1940.61,558.473 1944.57,558.473 1944.57,562.067 1948.54,562.067 1948.54,564.91 1952.5,564.91 1952.5,566.719 1956.46,566.719 1956.46,567.246 1960.43,567.246 1960.43,566.276 1964.39,566.276 1964.39,563.632 1968.36,563.632 1968.36,559.178 1972.32,559.178 1972.32,552.82 1976.28,552.82 1976.28,544.507 1980.25,544.507 1980.25,534.229 1984.21,534.229 1984.21,522.019 1988.18,522.019 1988.18,507.948 1992.14,507.948 1992.14,492.124 1996.1,492.124 1996.1,474.689 2000.07,474.689 2000.07,455.814 2004.03,455.814 2004.03,435.696 2008,435.696 2008,414.552 2011.96,414.552 2011.96,392.617 2015.93,392.617 2015.93,370.133 2019.89,370.133 2019.89,347.352 2023.85,347.352 2023.85,324.524 2027.82,324.524 2027.82,301.894 2031.78,301.894 2031.78,279.699 2035.75,279.699 2035.75,258.164 2039.71,258.164 2039.71,237.493 2043.67,237.493 2043.67,217.872 2047.64,217.872 2047.64,199.46 2051.6,199.46 2051.6,182.392 2055.57,182.392 2055.57,166.774 2059.53,166.774 2059.53,152.68 2063.49,152.68 2063.49,140.157 2067.46,140.157 2067.46,129.218 2071.42,129.218 2071.42,119.851 2075.39,119.851 2075.39,112.01 2079.35,112.01 2079.35,105.626 2083.32,105.626 2083.32,100.603 2087.28,100.603 2087.28,96.8245 2091.24,96.8245 2091.24,94.1534 2095.21,94.1534 2095.21,92.4372 2099.17,92.4372 2099.17,91.5106 2103.14,91.5106 2103.14,91.1995 2107.1,91.1995 2107.1,91.3245 2111.06,91.3245 2111.06,91.7046 2115.03,91.7046 2115.03,92.1607 2118.99,92.1607 2118.99,92.5192 2122.96,92.5192 2122.96,92.6152 2126.92,92.6152 2126.92,152.655 2130.88,152.655 2130.88,210.362 2134.85,210.362 2134.85,265.1 2138.81,265.1 2138.81,316.305 2142.78,316.305 2142.78,363.495 2146.74,363.495 2146.74,406.278 2150.7,406.278 2150.7,444.356 2154.67,444.356 2154.67,477.527 2158.63,477.527 2158.63,505.688 2162.6,505.688 2162.6,528.835 2166.56,528.835 2166.56,486.696 2170.53,486.696 2170.53,441.59 2174.49,441.59 2174.49,394.295 2178.45,394.295 2178.45,345.61 2182.42,345.61 2182.42,296.342 2186.38,296.342 2186.38,307.645 2190.35,307.645 2190.35,318.151 2194.31,318.151 2194.31,328.076 2198.27,328.076 2198.27,337.636 2202.24,337.636 2202.24,347.043 2206.2,347.043 2206.2,356.505 2210.17,356.505 2210.17,366.216 2214.13,366.216 2214.13,376.357 2218.09,376.357 2218.09,387.09 2222.06,387.09 2222.06,398.559 2226.02,398.559 2226.02,410.885 2229.99,410.885 2229.99,424.163 2233.95,424.163 2233.95,438.464 2237.92,438.464 2237.92,453.834 2241.88,453.834 2241.88,470.293 2245.84,470.293 2245.84,487.834 2249.81,487.834 2249.81,506.426 2253.77,506.426 2253.77,526.017 2257.74,526.017 2257.74,546.529 2261.7,546.529 2261.7,567.87 2265.66,567.87 2265.66,589.927 2269.63,589.927 2269.63,612.574 2273.59,612.574 2273.59,635.676 2277.56,635.676 2277.56,659.086 2281.52,659.086 2281.52,682.656 2285.48,682.656 2285.48,706.233 2289.45,706.233 2289.45,729.667 2293.41,729.667 2293.41,752.811 "/>
<polyline clip-path="url(#clip312)" style="stroke:#e26f46; stroke-linecap:round; stroke-linejoin:round; stroke-width:4; stroke-opacity:1; fill:none" points="315.32,714.842 319.284,724.709 323.248,735.297 327.212,746.624 331.176,758.69 335.141,771.478 339.105,784.953 343.069,799.062 347.033,813.741 350.997,828.914 354.961,844.492 358.925,860.382 362.889,876.485 366.853,892.699 370.818,908.922 374.782,925.054 378.746,941 382.71,956.672 386.674,971.989 390.638,986.88 394.602,1017.74 398.566,975.097 402.53,930.994 406.495,886.202 410.459,841.482 414.423,781.117 418.387,795.21 422.351,812.323 426.315,832.222 430.279,854.616 434.243,879.166 438.208,905.497 442.172,933.202 446.136,961.859 450.1,991.038 454.064,1036.76 458.028,1009.2 461.992,980.029 465.956,949.679 469.92,918.592 473.885,870.765 477.849,896.047 481.813,922.789 485.777,950.588 489.741,979.03 493.705,1007.7 497.669,1036.19 501.633,1064.12 505.597,1091.13 509.562,1116.88 513.526,1157.54 517.49,1123.44 521.454,1086.47 525.418,1047.27 529.382,1006.52 533.346,964.919 537.31,923.146 541.275,881.87 545.239,841.723 549.203,803.288 553.167,750.642 557.131,773.653 561.095,800.631 565.059,831.078 569.023,864.432 572.987,900.084 576.952,937.395 580.916,975.708 584.88,1014.37 588.844,1052.74 592.808,1090.2 596.772,1126.19 600.736,1160.18 604.7,1191.74 608.664,1220.47 612.629,1246.07 616.593,1268.33 620.557,1287.1 624.521,1302.33 628.485,1314.04 632.449,1338.8 636.413,1287.36 640.377,1232.04 644.341,1173.95 648.306,1114.19 652.27,1053.9 656.234,994.167 660.198,936.028 664.162,880.454 668.126,828.321 672.09,780.392 676.054,737.312 680.019,699.588 683.983,667.588 687.947,641.54 691.911,605.074 695.875,647.548 699.839,696.701 703.803,751.423 707.767,810.518 711.731,872.73 715.696,936.779 719.66,1001.39 723.624,1065.31 727.588,1127.36 731.552,1202.9 735.516,1201.51 739.48,1194.4 743.444,1181.65 747.408,1163.44 751.373,1140.1 755.337,1112.06 759.301,1079.83 763.265,1044.01 767.229,1005.25 771.193,947.816 775.157,961.846 779.121,976.008 783.085,990.24 787.05,1004.47 791.014,1035.1 794.978,992.638 798.942,949.101 802.906,905.231 806.87,861.75 810.834,802.899 814.798,818.732 818.763,837.759 822.727,859.692 826.691,884.186 830.655,910.846 834.619,939.246 838.583,968.929 842.547,999.428 846.511,1030.27 850.475,1061 854.44,1091.16 858.404,1120.35 862.368,1148.18 866.332,1174.31 870.296,1198.47 874.26,1220.42 878.224,1239.98 882.188,1257.05 886.152,1271.57 890.117,1299.99 894.081,1252.98 898.045,1202.7 902.009,1150.12 905.973,1096.23 909.937,1041.99 913.901,988.344 917.865,936.203 921.829,886.397 925.794,839.678 929.758,780.25 933.722,798.073 937.686,821.506 941.65,850.063 945.614,883.155 949.578,936.559 953.542,920.124 957.507,905.137 961.471,891.584 965.435,879.42 969.399,852.121 973.363,899.001 977.327,947.871 981.291,997.794 985.255,1047.84 989.219,1113.57 993.184,1104.72 997.148,1092.57 1001.11,1077.22 1005.08,1058.85 1009.04,1037.68 1013,1014.01 1016.97,988.165 1020.93,960.531 1024.9,931.509 1028.86,885.073 1032.82,911.069 1036.79,937.856 1040.75,965.057 1044.72,992.296 1048.68,1019.21 1052.65,1045.46 1056.61,1070.72 1060.57,1094.71 1064.54,1117.2 1068.5,1154.41 1072.47,1116.79 1076.43,1076.28 1080.39,1033.63 1084.36,989.596 1088.32,928.481 1092.29,940.452 1096.25,954.162 1100.21,969.491 1104.18,986.288 1108.14,1020.82 1112.11,983.469 1116.07,946.078 1120.04,909.206 1124,873.379 1127.96,839.084 1131.93,806.752 1135.89,776.758 1139.86,749.41 1143.82,724.945 1147.78,703.528 1151.75,685.246 1155.71,670.117 1159.68,658.085 1163.64,649.025 1167.6,642.753 1171.57,639.026 1175.53,637.557 1179.5,638.016 1183.46,640.043 1187.43,626.808 1191.39,687.33 1195.35,749.147 1199.32,811.076 1203.28,871.972 1207.25,930.757 1211.21,986.44 1215.17,1038.13 1219.14,1085.08 1223.1,1126.64 1227.07,1162.34 1231.03,1191.85 1234.99,1214.99 1238.96,1231.73 1242.92,1242.19 1246.89,1246.63 1250.85,1245.44 1254.82,1239.1 1258.78,1228.22 1262.74,1213.47 1266.71,1195.6 1270.67,1175.38 1274.64,1153.63 1278.6,1131.15 1282.56,1108.74 1286.53,1087.16 1290.49,1067.13 1294.46,1049.3 1298.42,1034.24 1302.38,1022.46 1306.35,1014.33 1310.31,1010.17 1314.28,1010.17 1318.24,1014.41 1322.21,1022.88 1326.17,1051.93 1330.13,1011.94 1334.1,974.693 1338.06,940.626 1342.03,910.089 1345.99,883.338 1349.95,860.534 1353.92,841.745 1357.88,826.944 1361.85,816.017 1365.81,792.314 1369.77,844.978 1373.74,901.599 1377.7,960.986 1381.67,1021.93 1385.63,1083.22 1389.6,1143.7 1393.56,1202.25 1397.52,1257.86 1401.49,1309.59 1405.45,1373.11 1409.42,1358.34 1413.38,1336.82 1417.34,1308.99 1421.31,1275.41 1425.27,1220.29 1429.24,1233.82 1433.2,1244.76 1437.16,1253.2 1441.13,1259.3 1445.09,1279.7 1449.06,1225.21 1453.02,1168.17 1456.98,1109.67 1460.95,1050.79 1464.91,992.598 1468.88,936.082 1472.84,882.173 1476.81,831.706 1480.77,785.408 1484.73,743.884 1488.7,707.61 1492.66,676.925 1496.63,652.027 1500.59,632.98 1504.55,619.709 1508.52,612.013 1512.48,609.57 1516.45,611.953 1520.41,618.641 1524.37,629.034 1528.34,642.472 1532.3,658.25 1536.27,675.638 1540.23,693.894 1544.2,695.84 1548.16,770.182 1552.12,844.188 1556.09,916.451 1560.05,985.655 1564.02,1050.6 1567.98,1110.24 1571.94,1163.66 1575.91,1210.14 1579.87,1249.15 1583.84,1296.79 1587.8,1263.47 1591.76,1221.3 1595.73,1171.29 1599.69,1114.57 1603.66,1035.96 1607.62,1026.22 1611.59,1014.65 1615.55,1001.86 1619.51,988.47 1623.48,975.063 1627.44,962.219 1631.41,950.478 1635.37,940.331 1639.33,932.217 1643.3,926.508 1647.26,923.508 1651.23,923.445 1655.19,926.47 1659.15,932.658 1663.12,958.457 1667.08,914.376 1671.05,872.339 1675.01,832.932 1678.98,796.662 1682.94,763.945 1686.9,735.103 1690.87,710.358 1694.83,689.831 1698.8,673.545 1702.76,661.424 1706.72,653.304 1710.69,648.933 1714.65,647.986 1718.62,650.072 1722.58,638.298 1726.54,701.592 1730.51,767.37 1734.47,834.307 1738.44,901.098 1742.4,982.939 1746.37,989.239 1750.33,990.99 1754.29,988.034 1758.26,980.326 1762.22,951.483 1766.19,991.095 1770.15,1027.36 1774.11,1059.85 1778.08,1088.24 1782.04,1128.73 1786.01,1091.8 1789.97,1049.5 1793.93,1002.71 1797.9,952.386 1801.86,899.523 1805.83,845.144 1809.79,790.269 1813.76,735.895 1817.72,682.971 1821.68,615.927 1825.65,624.975 1829.61,638.745 1833.58,657.026 1837.54,679.513 1841.5,705.813 1845.47,735.459 1849.43,767.924 1853.4,802.633 1857.36,838.981 1861.32,892.797 1865.29,874.042 1869.25,854.175 1873.22,833.404 1877.18,811.955 1881.15,790.06 1885.11,767.954 1889.07,745.872 1893.04,724.038 1897,702.666 1900.97,681.95 1904.93,662.066 1908.89,643.165 1912.86,625.369 1916.82,608.775 1920.79,593.447 1924.75,579.421 1928.71,566.702 1932.68,555.267 1936.64,545.065 1940.61,536.02 1944.57,528.034 1948.54,520.989 1952.5,514.752 1956.46,509.176 1960.43,504.107 1964.39,499.385 1968.36,494.851 1972.32,490.348 1976.28,485.723 1980.25,480.837 1984.21,475.559 1988.18,469.776 1992.14,463.391 1996.1,456.324 2000.07,448.518 2004.03,439.933 2008,430.551 2011.96,420.374 2015.93,409.424 2019.89,397.739 2023.85,385.376 2027.82,372.404 2031.78,358.907 2035.75,344.977 2039.71,330.716 2043.67,316.228 2047.64,301.622 2051.6,287.006 2055.57,272.484 2059.53,258.157 2063.49,244.119 2067.46,230.452 2071.42,217.231 2075.39,204.517 2079.35,192.361 2083.32,180.795 2087.28,169.844 2091.24,159.514 2095.21,149.799 2099.17,140.682 2103.14,132.131 2107.1,124.106 2111.06,116.555 2115.03,109.42 2118.99,86.1857 2122.96,136.196 2126.92,187.311 2130.88,238.661 2134.85,289.403 2138.81,338.738 2142.78,385.925 2146.74,430.3 2150.7,471.285 2154.67,508.401 2158.63,557.721 2162.6,529.566 2166.56,495.851 2170.53,457.326 2174.49,414.828 2178.45,352.801 2182.42,361.595 2186.38,370.091 2190.35,378.439 2194.31,386.784 2198.27,395.265 2202.24,404.011 2206.2,413.137 2210.17,422.747 2214.13,432.925 2218.09,443.739 2222.06,455.238 2226.02,467.453 2229.99,480.395 2233.95,494.056 2237.92,508.412 2241.88,523.419 2245.84,539.023 2249.81,555.154 2253.77,571.73 2257.74,588.664 2261.7,605.858 2265.66,623.214 2269.63,640.632 2273.59,658.01 2277.56,675.251 2281.52,692.265 2285.48,708.967 2289.45,725.281 2293.41,741.142 "/>
<polyline clip-path="url(#clip312)" style="stroke:#3da44d; stroke-linecap:round; stroke-linejoin:round; stroke-width:4; stroke-opacity:1; fill:none" points="315.32,759.694 319.284,764.171 323.248,769.648 327.212,776.203 331.176,783.887 335.141,792.72 339.105,802.695 343.069,813.779 347.033,825.913 350.997,839.013 354.961,852.978 358.925,867.687 362.889,883.007 366.853,898.796 370.818,914.902 374.782,931.173 378.746,947.456 382.71,963.604 386.674,979.477 390.638,994.944 394.602,1040.87 398.566,1004.74 402.53,966.702 406.495,927.457 410.459,887.695 414.423,817.117 418.387,828.79 422.351,843.084 426.315,859.801 430.279,878.692 434.243,899.467 438.208,921.803 442.172,945.352 446.136,969.749 450.1,994.622 454.064,1050.58 458.028,1024.86 461.992,997.349 465.956,968.494 469.92,938.749 473.885,877.596 477.849,897.902 481.813,919.865 485.777,943.142 489.741,967.371 493.705,992.18 497.669,1017.2 501.633,1042.06 505.597,1066.41 509.562,1089.94 513.526,1143.33 517.49,1113.89 521.454,1081.66 525.418,1047.22 529.382,1011.18 533.346,974.164 537.31,936.802 541.275,899.706 545.239,863.464 549.203,828.621 553.167,764.693 557.131,784.527 561.095,808.248 565.059,835.394 569.023,865.435 572.987,897.8 576.952,931.878 580.916,967.045 584.88,1002.67 588.844,1038.14 592.808,1072.87 596.772,1106.29 600.736,1137.9 604.7,1167.27 608.664,1194 612.629,1217.8 616.593,1238.43 620.557,1255.76 624.521,1269.7 628.485,1280.28 632.449,1318.56 636.413,1272.29 640.377,1221.92 644.341,1168.5 648.306,1113.09 652.27,1056.78 656.234,1000.62 660.198,945.627 664.162,892.759 668.126,842.888 672.09,796.786 676.054,755.113 680.019,718.402 683.983,687.057 687.947,661.343 691.911,610.407 695.875,646.656 699.839,689.711 703.803,738.556 707.767,792.077 711.731,849.095 715.696,908.393 719.66,968.744 723.624,1028.94 727.588,1087.83 731.552,1175.3 735.516,1177.94 739.48,1175.12 743.444,1166.85 747.408,1153.24 751.373,1134.57 755.337,1111.18 759.301,1083.52 763.265,1052.15 767.229,1017.65 771.193,949.706 775.157,961.417 779.121,973.245 783.085,985.138 787.05,997.043 791.014,1039.89 794.978,1001.21 798.942,961.193 802.906,920.561 806.87,880.012 810.834,809.241 814.798,821.294 818.763,836.513 822.727,854.653 826.691,875.415 830.655,898.446 834.619,923.357 838.583,949.726 842.547,977.113 846.511,1005.07 850.475,1033.15 854.44,1060.93 858.404,1087.98 862.368,1113.94 866.332,1138.45 870.296,1161.23 874.26,1182.02 878.224,1200.63 882.188,1216.92 886.152,1230.81 890.117,1273.26 894.081,1231.88 898.045,1187.01 902.009,1139.52 905.973,1090.35 909.937,1040.4 913.901,990.603 917.865,941.817 921.829,894.866 925.794,850.497 929.758,778.393 933.722,791.531 937.686,810.13 941.65,833.777 945.614,861.959 949.578,925.056 953.542,909.986 957.507,896.272 961.471,883.917 965.435,872.895 969.399,832.172 973.363,874.08 977.327,918.276 981.291,963.878 985.255,1010.01 989.219,1086.78 993.184,1080.96 997.148,1072.02 1001.11,1060.02 1005.08,1045.1 1009.04,1027.44 1013,1007.3 1016.97,984.97 1020.93,960.794 1024.9,935.143 1028.86,877.427 1032.82,900.462 1036.79,924.414 1040.75,948.922 1044.72,973.627 1048.68,998.178 1052.65,1022.24 1056.61,1045.49 1060.57,1067.66 1064.54,1088.48 1068.5,1138.74 1072.47,1105.84 1076.43,1069.9 1080.39,1031.6 1084.36,991.655 1088.32,919.797 1092.29,929.159 1096.25,940.198 1100.21,952.816 1104.18,966.886 1108.14,1013.23 1112.11,979.247 1116.07,944.979 1120.04,910.963 1124,877.715 1127.96,845.714 1131.93,815.393 1135.89,787.135 1139.86,761.26 1143.82,738.023 1147.78,717.612 1151.75,700.142 1155.71,685.661 1159.68,674.144 1163.64,665.503 1167.6,659.588 1171.57,656.192 1175.53,655.061 1179.5,655.897 1183.46,658.372 1187.43,631.152 1191.39,686.28 1195.35,743.14 1199.32,800.605 1203.28,857.569 1207.25,912.983 1211.21,965.868 1215.17,1015.34 1219.14,1060.62 1223.1,1101.05 1227.07,1136.13 1231.03,1165.47 1234.99,1188.84 1238.96,1206.14 1242.92,1217.44 1246.89,1222.92 1250.85,1222.89 1254.82,1217.77 1258.78,1208.1 1262.74,1194.48 1266.71,1177.6 1270.67,1158.16 1274.64,1136.94 1278.6,1114.69 1282.56,1092.18 1286.53,1070.16 1290.49,1049.31 1294.46,1030.29 1298.42,1013.67 1302.38,999.956 1306.35,989.565 1310.31,982.818 1314.28,979.943 1318.24,981.069 1322.21,986.226 1326.17,1026.33 1330.13,988.822 1334.1,953.699 1338.06,921.413 1342.03,892.328 1345.99,866.728 1349.95,844.802 1353.92,826.655 1357.88,812.299 1361.85,801.661 1365.81,763.606 1369.77,810.32 1373.74,861.264 1377.7,915.331 1381.67,971.377 1385.63,1028.26 1389.6,1084.85 1393.56,1140.08 1397.52,1192.93 1401.49,1242.5 1405.45,1318.95 1409.42,1309.19 1413.38,1292.9 1417.34,1270.44 1421.31,1242.27 1425.27,1178.02 1429.24,1190.77 1433.2,1201.06 1437.16,1208.96 1441.13,1214.56 1445.09,1249.03 1449.06,1200.15 1453.02,1148.4 1456.98,1094.81 1460.95,1040.42 1464.91,986.222 1468.88,933.203 1472.84,882.271 1476.81,834.255 1480.77,789.89 1484.73,749.8 1488.7,714.492 1492.66,684.342 1496.63,659.598 1500.59,640.375 1504.55,626.66 1508.52,618.312 1512.48,615.078 1516.45,616.595 1520.41,622.408 1524.37,631.978 1528.34,644.705 1532.3,659.938 1536.27,676.994 1540.23,695.175 1544.2,682.802 1548.16,751.61 1552.12,820.709 1556.09,888.739 1560.05,954.416 1564.02,1016.55 1567.98,1074.09 1571.94,1126.11 1575.91,1171.85 1579.87,1210.72 1583.84,1273.3 1587.8,1246.93 1591.76,1211.82 1595.73,1168.84 1599.69,1119.02 1603.66,1032.53 1607.62,1023.03 1611.59,1011.56 1615.55,998.688 1619.51,984.995 1623.48,971.049 1627.44,957.406 1631.41,944.592 1635.37,933.095 1639.33,923.352 1643.3,915.743 1647.26,910.587 1651.23,908.129 1655.19,908.546 1659.15,911.939 1663.12,949.32 1667.08,908.231 1671.05,868.806 1675.01,831.629 1678.98,797.213 1682.94,765.991 1686.9,738.308 1690.87,714.414 1694.83,694.467 1698.8,678.529 1702.76,666.568 1706.72,658.465 1710.69,654.017 1714.65,652.946 1718.62,654.908 1722.58,628.524 1726.54,685.764 1730.51,745.909 1734.47,807.706 1738.44,869.909 1742.4,962.288 1746.37,971.279 1750.33,976.061 1754.29,976.436 1758.26,972.314 1762.22,932.733 1766.19,970.227 1770.15,1004.77 1774.11,1035.92 1778.08,1063.31 1782.04,1117.67 1786.01,1086.42 1789.97,1049.74 1793.93,1008.43 1797.9,963.367 1801.86,915.479 1805.83,865.724 1809.79,815.074 1813.76,764.481 1817.72,714.867 1821.68,636.114 1825.65,641.428 1829.61,651.272 1833.58,665.489 1837.54,683.829 1841.5,705.955 1845.47,731.456 1849.43,759.855 1853.4,790.627 1857.36,823.211 1861.32,888.002 1865.29,871.997 1869.25,854.852 1873.22,836.758 1877.18,817.921 1881.15,798.558 1885.11,778.893 1889.07,759.147 1893.04,739.538 1897,720.273 1900.97,701.545 1904.93,683.527 1908.89,666.373 1912.86,650.212 1916.82,635.145 1920.79,621.248 1924.75,608.565 1928.71,597.114 1932.68,586.886 1936.64,577.843 1940.61,569.924 1944.57,563.044 1948.54,557.101 1952.5,551.974 1956.46,547.53 1960.43,543.625 1964.39,540.111 1968.36,536.836 1972.32,533.649 1976.28,530.406 1980.25,526.966 1984.21,523.204 1988.18,519.005 1992.14,514.269 1996.1,508.915 2000.07,502.877 2004.03,496.112 2008,488.594 2011.96,480.316 2015.93,471.29 2019.89,461.546 2023.85,451.13 2027.82,440.104 2031.78,428.539 2035.75,416.521 2039.71,404.141 2043.67,391.499 2047.64,378.695 2051.6,365.831 2055.57,353.009 2059.53,340.325 2063.49,327.872 2067.46,315.732 2071.42,303.98 2075.39,292.679 2079.35,281.881 2083.32,271.626 2087.28,261.939 2091.24,252.833 2095.21,244.31 2099.17,236.356 2103.14,228.949 2107.1,222.052 2111.06,215.622 2115.03,209.606 2118.99,172.966 2122.96,218.049 2126.92,264.549 2130.88,311.637 2134.85,358.504 2138.81,404.374 2142.78,448.519 2146.74,490.277 2150.7,529.064 2154.67,564.386 2158.63,626.821 2162.6,603.66 2166.56,574.952 2170.53,541.365 2174.49,503.657 2178.45,431.675 2182.42,438.7 2186.38,445.39 2190.35,451.883 2194.31,458.321 2198.27,464.838 2202.24,471.559 2206.2,478.601 2210.17,486.066 2214.13,494.042 2218.09,502.6 2222.06,511.795 2226.02,521.663 2229.99,532.223 2233.95,543.475 2237.92,555.403 2241.88,567.974 2245.84,581.14 2249.81,594.842 2253.77,609.006 2257.74,623.552 2261.7,638.392 2265.66,653.433 2269.63,668.58 2273.59,683.738 2277.56,698.812 2281.52,713.715 2285.48,728.363 2289.45,742.68 2293.41,756.601 "/>
<path clip-path="url(#clip310)" d="M325.87 300.469 L1334.52 300.469 L1334.52 93.1086 L325.87 93.1086  Z" fill="#ffffff" fill-rule="evenodd" fill-opacity="1"/>
<polyline clip-path="url(#clip310)" style="stroke:#000000; stroke-linecap:round; stroke-linejoin:round; stroke-width:4; stroke-opacity:1; fill:none" points="325.87,300.469 1334.52,300.469 1334.52,93.1086 325.87,93.1086 325.87,300.469 "/>
<polyline clip-path="url(#clip310)" style="stroke:#009af9; stroke-linecap:round; stroke-linejoin:round; stroke-width:4; stroke-opacity:1; fill:none" points="349.167,144.949 488.953,144.949 "/>
<path clip-path="url(#clip310)" d="M516.926 131.511 L516.926 158.386 L522.574 158.386 Q529.727 158.386 533.037 155.145 Q536.37 151.905 536.37 144.914 Q536.37 137.969 533.037 134.752 Q529.727 131.511 522.574 131.511 L516.926 131.511 M512.25 127.669 L521.857 127.669 Q531.903 127.669 536.602 131.858 Q541.301 136.025 541.301 144.914 Q541.301 153.849 536.579 158.039 Q531.857 162.229 521.857 162.229 L512.25 162.229 L512.25 127.669 Z" fill="#000000" fill-rule="nonzero" fill-opacity="1" /><path clip-path="url(#clip310)" d="M560.352 149.196 Q555.19 149.196 553.199 150.377 Q551.208 151.557 551.208 154.405 Q551.208 156.673 552.69 158.016 Q554.194 159.335 556.764 159.335 Q560.305 159.335 562.435 156.835 Q564.588 154.312 564.588 150.145 L564.588 149.196 L560.352 149.196 M568.847 147.437 L568.847 162.229 L564.588 162.229 L564.588 158.293 Q563.129 160.655 560.954 161.789 Q558.778 162.9 555.63 162.9 Q551.648 162.9 549.287 160.678 Q546.949 158.432 546.949 154.682 Q546.949 150.307 549.866 148.085 Q552.805 145.863 558.616 145.863 L564.588 145.863 L564.588 145.446 Q564.588 142.507 562.643 140.909 Q560.722 139.289 557.227 139.289 Q555.005 139.289 552.898 139.821 Q550.792 140.354 548.847 141.419 L548.847 137.483 Q551.185 136.581 553.384 136.141 Q555.583 135.678 557.667 135.678 Q563.292 135.678 566.069 138.594 Q568.847 141.511 568.847 147.437 Z" fill="#000000" fill-rule="nonzero" fill-opacity="1" /><path clip-path="url(#clip310)" d="M581.833 128.942 L581.833 136.303 L590.606 136.303 L590.606 139.613 L581.833 139.613 L581.833 153.687 Q581.833 156.858 582.69 157.761 Q583.569 158.664 586.231 158.664 L590.606 158.664 L590.606 162.229 L586.231 162.229 Q581.301 162.229 579.426 160.4 Q577.551 158.548 577.551 153.687 L577.551 139.613 L574.426 139.613 L574.426 136.303 L577.551 136.303 L577.551 128.942 L581.833 128.942 Z" fill="#000000" fill-rule="nonzero" fill-opacity="1" /><path clip-path="url(#clip310)" d="M607.99 149.196 Q602.828 149.196 600.838 150.377 Q598.847 151.557 598.847 154.405 Q598.847 156.673 600.328 158.016 Q601.833 159.335 604.402 159.335 Q607.944 159.335 610.074 156.835 Q612.226 154.312 612.226 150.145 L612.226 149.196 L607.99 149.196 M616.486 147.437 L616.486 162.229 L612.226 162.229 L612.226 158.293 Q610.768 160.655 608.592 161.789 Q606.416 162.9 603.268 162.9 Q599.287 162.9 596.926 160.678 Q594.588 158.432 594.588 154.682 Q594.588 150.307 597.504 148.085 Q600.444 145.863 606.254 145.863 L612.226 145.863 L612.226 145.446 Q612.226 142.507 610.282 140.909 Q608.361 139.289 604.865 139.289 Q602.643 139.289 600.537 139.821 Q598.43 140.354 596.486 141.419 L596.486 137.483 Q598.824 136.581 601.023 136.141 Q603.222 135.678 605.305 135.678 Q610.93 135.678 613.708 138.594 Q616.486 141.511 616.486 147.437 Z" fill="#000000" fill-rule="nonzero" fill-opacity="1" /><polyline clip-path="url(#clip310)" style="stroke:#e26f46; stroke-linecap:round; stroke-linejoin:round; stroke-width:4; stroke-opacity:1; fill:none" points="349.167,196.789 488.953,196.789 "/>
<path clip-path="url(#clip310)" d="M534.495 180.643 L534.495 185.203 Q531.833 183.93 529.472 183.305 Q527.111 182.68 524.912 182.68 Q521.093 182.68 519.009 184.161 Q516.949 185.643 516.949 188.374 Q516.949 190.666 518.315 191.847 Q519.704 193.004 523.546 193.722 L526.37 194.3 Q531.602 195.296 534.079 197.819 Q536.579 200.319 536.579 204.532 Q536.579 209.555 533.199 212.147 Q529.843 214.74 523.338 214.74 Q520.884 214.74 518.107 214.184 Q515.352 213.629 512.389 212.541 L512.389 207.726 Q515.236 209.323 517.968 210.133 Q520.699 210.944 523.338 210.944 Q527.343 210.944 529.519 209.37 Q531.694 207.796 531.694 204.879 Q531.694 202.333 530.12 200.897 Q528.569 199.462 525.005 198.745 L522.157 198.189 Q516.926 197.147 514.588 194.925 Q512.25 192.703 512.25 188.745 Q512.25 184.161 515.468 181.522 Q518.708 178.884 524.38 178.884 Q526.81 178.884 529.333 179.323 Q531.857 179.763 534.495 180.643 Z" fill="#000000" fill-rule="nonzero" fill-opacity="1" /><path clip-path="url(#clip310)" d="M543.685 188.143 L547.944 188.143 L547.944 214.069 L543.685 214.069 L543.685 188.143 M543.685 178.05 L547.944 178.05 L547.944 183.444 L543.685 183.444 L543.685 178.05 Z" fill="#000000" fill-rule="nonzero" fill-opacity="1" /><path clip-path="url(#clip310)" d="M577.041 193.12 Q578.639 190.249 580.861 188.884 Q583.083 187.518 586.092 187.518 Q590.143 187.518 592.342 190.365 Q594.541 193.189 594.541 198.421 L594.541 214.069 L590.259 214.069 L590.259 198.559 Q590.259 194.833 588.94 193.027 Q587.62 191.222 584.912 191.222 Q581.602 191.222 579.68 193.421 Q577.759 195.62 577.759 199.416 L577.759 214.069 L573.477 214.069 L573.477 198.559 Q573.477 194.809 572.157 193.027 Q570.838 191.222 568.083 191.222 Q564.819 191.222 562.898 193.444 Q560.977 195.643 560.977 199.416 L560.977 214.069 L556.694 214.069 L556.694 188.143 L560.977 188.143 L560.977 192.171 Q562.435 189.786 564.472 188.652 Q566.509 187.518 569.31 187.518 Q572.134 187.518 574.102 188.953 Q576.092 190.388 577.041 193.12 Z" fill="#000000" fill-rule="nonzero" fill-opacity="1" /><path clip-path="url(#clip310)" d="M602.597 203.837 L602.597 188.143 L606.856 188.143 L606.856 203.675 Q606.856 207.356 608.291 209.208 Q609.726 211.036 612.597 211.036 Q616.046 211.036 618.037 208.837 Q620.05 206.638 620.05 202.842 L620.05 188.143 L624.31 188.143 L624.31 214.069 L620.05 214.069 L620.05 210.087 Q618.5 212.448 616.439 213.606 Q614.402 214.74 611.694 214.74 Q607.226 214.74 604.912 211.962 Q602.597 209.184 602.597 203.837 M613.314 187.518 L613.314 187.518 Z" fill="#000000" fill-rule="nonzero" fill-opacity="1" /><path clip-path="url(#clip310)" d="M633.083 178.05 L637.342 178.05 L637.342 214.069 L633.083 214.069 L633.083 178.05 Z" fill="#000000" fill-rule="nonzero" fill-opacity="1" /><path clip-path="url(#clip310)" d="M658.036 201.036 Q652.874 201.036 650.884 202.217 Q648.893 203.397 648.893 206.245 Q648.893 208.513 650.374 209.856 Q651.879 211.175 654.448 211.175 Q657.99 211.175 660.12 208.675 Q662.272 206.152 662.272 201.985 L662.272 201.036 L658.036 201.036 M666.532 199.277 L666.532 214.069 L662.272 214.069 L662.272 210.133 Q660.814 212.495 658.638 213.629 Q656.462 214.74 653.314 214.74 Q649.333 214.74 646.972 212.518 Q644.634 210.272 644.634 206.522 Q644.634 202.147 647.55 199.925 Q650.49 197.703 656.3 197.703 L662.272 197.703 L662.272 197.286 Q662.272 194.347 660.328 192.749 Q658.407 191.129 654.911 191.129 Q652.689 191.129 650.583 191.661 Q648.476 192.194 646.532 193.259 L646.532 189.323 Q648.87 188.421 651.069 187.981 Q653.268 187.518 655.351 187.518 Q660.976 187.518 663.754 190.434 Q666.532 193.351 666.532 199.277 Z" fill="#000000" fill-rule="nonzero" fill-opacity="1" /><path clip-path="url(#clip310)" d="M679.518 180.782 L679.518 188.143 L688.291 188.143 L688.291 191.453 L679.518 191.453 L679.518 205.527 Q679.518 208.698 680.374 209.601 Q681.254 210.504 683.916 210.504 L688.291 210.504 L688.291 214.069 L683.916 214.069 Q678.985 214.069 677.11 212.24 Q675.235 210.388 675.235 205.527 L675.235 191.453 L672.11 191.453 L672.11 188.143 L675.235 188.143 L675.235 180.782 L679.518 180.782 Z" fill="#000000" fill-rule="nonzero" fill-opacity="1" /><path clip-path="url(#clip310)" d="M693.893 188.143 L698.152 188.143 L698.152 214.069 L693.893 214.069 L693.893 188.143 M693.893 178.05 L698.152 178.05 L698.152 183.444 L693.893 183.444 L693.893 178.05 Z" fill="#000000" fill-rule="nonzero" fill-opacity="1" /><path clip-path="url(#clip310)" d="M717.11 191.129 Q713.684 191.129 711.694 193.814 Q709.703 196.476 709.703 201.129 Q709.703 205.782 711.67 208.467 Q713.661 211.129 717.11 211.129 Q720.513 211.129 722.504 208.444 Q724.494 205.758 724.494 201.129 Q724.494 196.522 722.504 193.837 Q720.513 191.129 717.11 191.129 M717.11 187.518 Q722.666 187.518 725.837 191.129 Q729.008 194.74 729.008 201.129 Q729.008 207.495 725.837 211.129 Q722.666 214.74 717.11 214.74 Q711.531 214.74 708.36 211.129 Q705.212 207.495 705.212 201.129 Q705.212 194.74 708.36 191.129 Q711.531 187.518 717.11 187.518 Z" fill="#000000" fill-rule="nonzero" fill-opacity="1" /><path clip-path="url(#clip310)" d="M757.619 198.421 L757.619 214.069 L753.36 214.069 L753.36 198.559 Q753.36 194.879 751.925 193.05 Q750.49 191.222 747.619 191.222 Q744.17 191.222 742.179 193.421 Q740.189 195.62 740.189 199.416 L740.189 214.069 L735.906 214.069 L735.906 188.143 L740.189 188.143 L740.189 192.171 Q741.717 189.833 743.777 188.675 Q745.86 187.518 748.568 187.518 Q753.036 187.518 755.328 190.296 Q757.619 193.05 757.619 198.421 Z" fill="#000000" fill-rule="nonzero" fill-opacity="1" /><path clip-path="url(#clip310)" d="M801.369 193.12 Q802.966 190.249 805.188 188.884 Q807.411 187.518 810.42 187.518 Q814.471 187.518 816.67 190.365 Q818.869 193.189 818.869 198.421 L818.869 214.069 L814.586 214.069 L814.586 198.559 Q814.586 194.833 813.267 193.027 Q811.948 191.222 809.239 191.222 Q805.929 191.222 804.008 193.421 Q802.087 195.62 802.087 199.416 L802.087 214.069 L797.804 214.069 L797.804 198.559 Q797.804 194.809 796.485 193.027 Q795.165 191.222 792.411 191.222 Q789.147 191.222 787.226 193.444 Q785.304 195.643 785.304 199.416 L785.304 214.069 L781.022 214.069 L781.022 188.143 L785.304 188.143 L785.304 192.171 Q786.763 189.786 788.8 188.652 Q790.837 187.518 793.638 187.518 Q796.462 187.518 798.429 188.953 Q800.42 190.388 801.369 193.12 Z" fill="#000000" fill-rule="nonzero" fill-opacity="1" /><path clip-path="url(#clip310)" d="M837.41 191.129 Q833.985 191.129 831.994 193.814 Q830.003 196.476 830.003 201.129 Q830.003 205.782 831.971 208.467 Q833.961 211.129 837.41 211.129 Q840.813 211.129 842.804 208.444 Q844.795 205.758 844.795 201.129 Q844.795 196.522 842.804 193.837 Q840.813 191.129 837.41 191.129 M837.41 187.518 Q842.966 187.518 846.137 191.129 Q849.309 194.74 849.309 201.129 Q849.309 207.495 846.137 211.129 Q842.966 214.74 837.41 214.74 Q831.832 214.74 828.66 211.129 Q825.512 207.495 825.512 201.129 Q825.512 194.74 828.66 191.129 Q831.832 187.518 837.41 187.518 Z" fill="#000000" fill-rule="nonzero" fill-opacity="1" /><path clip-path="url(#clip310)" d="M873.429 192.078 L873.429 178.05 L877.688 178.05 L877.688 214.069 L873.429 214.069 L873.429 210.18 Q872.086 212.495 870.026 213.629 Q867.989 214.74 865.119 214.74 Q860.42 214.74 857.457 210.99 Q854.517 207.24 854.517 201.129 Q854.517 195.018 857.457 191.268 Q860.42 187.518 865.119 187.518 Q867.989 187.518 870.026 188.652 Q872.086 189.763 873.429 192.078 M858.915 201.129 Q858.915 205.828 860.836 208.513 Q862.781 211.175 866.16 211.175 Q869.54 211.175 871.484 208.513 Q873.429 205.828 873.429 201.129 Q873.429 196.43 871.484 193.768 Q869.54 191.083 866.16 191.083 Q862.781 191.083 860.836 193.768 Q858.915 196.43 858.915 201.129 Z" fill="#000000" fill-rule="nonzero" fill-opacity="1" /><path clip-path="url(#clip310)" d="M908.637 200.041 L908.637 202.124 L889.054 202.124 Q889.331 206.522 891.693 208.837 Q894.077 211.129 898.313 211.129 Q900.767 211.129 903.058 210.527 Q905.373 209.925 907.642 208.721 L907.642 212.749 Q905.35 213.721 902.942 214.231 Q900.535 214.74 898.058 214.74 Q891.855 214.74 888.22 211.129 Q884.609 207.518 884.609 201.36 Q884.609 194.995 888.035 191.268 Q891.484 187.518 897.318 187.518 Q902.549 187.518 905.581 190.897 Q908.637 194.254 908.637 200.041 M904.378 198.791 Q904.331 195.296 902.41 193.212 Q900.512 191.129 897.364 191.129 Q893.799 191.129 891.646 193.143 Q889.517 195.157 889.193 198.814 L904.378 198.791 Z" fill="#000000" fill-rule="nonzero" fill-opacity="1" /><path clip-path="url(#clip310)" d="M915.628 178.05 L919.887 178.05 L919.887 214.069 L915.628 214.069 L915.628 178.05 Z" fill="#000000" fill-rule="nonzero" fill-opacity="1" /><path clip-path="url(#clip310)" d="M960.396 188.907 L960.396 192.934 Q958.59 192.009 956.646 191.546 Q954.701 191.083 952.618 191.083 Q949.447 191.083 947.85 192.055 Q946.276 193.027 946.276 194.971 Q946.276 196.453 947.41 197.309 Q948.544 198.143 951.97 198.907 L953.428 199.231 Q957.965 200.203 959.863 201.985 Q961.785 203.745 961.785 206.916 Q961.785 210.527 958.914 212.633 Q956.067 214.74 951.067 214.74 Q948.984 214.74 946.715 214.323 Q944.47 213.93 941.97 213.12 L941.97 208.721 Q944.331 209.948 946.623 210.573 Q948.914 211.175 951.16 211.175 Q954.169 211.175 955.789 210.157 Q957.41 209.115 957.41 207.24 Q957.41 205.504 956.229 204.578 Q955.072 203.652 951.114 202.796 L949.632 202.448 Q945.674 201.615 943.914 199.902 Q942.155 198.166 942.155 195.157 Q942.155 191.499 944.748 189.509 Q947.34 187.518 952.109 187.518 Q954.47 187.518 956.553 187.865 Q958.637 188.212 960.396 188.907 Z" fill="#000000" fill-rule="nonzero" fill-opacity="1" /><path clip-path="url(#clip310)" d="M968.567 188.143 L972.826 188.143 L972.826 214.069 L968.567 214.069 L968.567 188.143 M968.567 178.05 L972.826 178.05 L972.826 183.444 L968.567 183.444 L968.567 178.05 Z" fill="#000000" fill-rule="nonzero" fill-opacity="1" /><path clip-path="url(#clip310)" d="M1001.92 193.12 Q1003.52 190.249 1005.74 188.884 Q1007.97 187.518 1010.97 187.518 Q1015.03 187.518 1017.22 190.365 Q1019.42 193.189 1019.42 198.421 L1019.42 214.069 L1015.14 214.069 L1015.14 198.559 Q1015.14 194.833 1013.82 193.027 Q1012.5 191.222 1009.79 191.222 Q1006.48 191.222 1004.56 193.421 Q1002.64 195.62 1002.64 199.416 L1002.64 214.069 L998.359 214.069 L998.359 198.559 Q998.359 194.809 997.039 193.027 Q995.72 191.222 992.965 191.222 Q989.701 191.222 987.78 193.444 Q985.859 195.643 985.859 199.416 L985.859 214.069 L981.576 214.069 L981.576 188.143 L985.859 188.143 L985.859 192.171 Q987.317 189.786 989.354 188.652 Q991.391 187.518 994.192 187.518 Q997.016 187.518 998.984 188.953 Q1000.97 190.388 1001.92 193.12 Z" fill="#000000" fill-rule="nonzero" fill-opacity="1" /><path clip-path="url(#clip310)" d="M1056.11 178.05 L1056.11 181.592 L1052.04 181.592 Q1049.75 181.592 1048.84 182.518 Q1047.96 183.444 1047.96 185.851 L1047.96 188.143 L1054.98 188.143 L1054.98 191.453 L1047.96 191.453 L1047.96 214.069 L1043.68 214.069 L1043.68 191.453 L1039.61 191.453 L1039.61 188.143 L1043.68 188.143 L1043.68 186.337 Q1043.68 182.009 1045.7 180.041 Q1047.71 178.05 1052.09 178.05 L1056.11 178.05 Z" fill="#000000" fill-rule="nonzero" fill-opacity="1" /><path clip-path="url(#clip310)" d="M1059.68 188.143 L1063.94 188.143 L1063.94 214.069 L1059.68 214.069 L1059.68 188.143 M1059.68 178.05 L1063.94 178.05 L1063.94 183.444 L1059.68 183.444 L1059.68 178.05 Z" fill="#000000" fill-rule="nonzero" fill-opacity="1" /><path clip-path="url(#clip310)" d="M1077.06 180.782 L1077.06 188.143 L1085.84 188.143 L1085.84 191.453 L1077.06 191.453 L1077.06 205.527 Q1077.06 208.698 1077.92 209.601 Q1078.8 210.504 1081.46 210.504 L1085.84 210.504 L1085.84 214.069 L1081.46 214.069 Q1076.53 214.069 1074.65 212.24 Q1072.78 210.388 1072.78 205.527 L1072.78 191.453 L1069.65 191.453 L1069.65 188.143 L1072.78 188.143 L1072.78 180.782 L1077.06 180.782 Z" fill="#000000" fill-rule="nonzero" fill-opacity="1" /><path clip-path="url(#clip310)" d="M1122.66 208.189 L1127.55 208.189 L1127.55 214.069 L1122.66 214.069 L1122.66 208.189 M1122.66 189.555 L1127.55 189.555 L1127.55 195.434 L1122.66 195.434 L1122.66 189.555 Z" fill="#000000" fill-rule="nonzero" fill-opacity="1" /><path clip-path="url(#clip310)" d="M1136.97 179.509 L1159.19 179.509 L1159.19 181.499 L1146.64 214.069 L1141.76 214.069 L1153.57 183.444 L1136.97 183.444 L1136.97 179.509 Z" fill="#000000" fill-rule="nonzero" fill-opacity="1" /><path clip-path="url(#clip310)" d="M1181.16 183.583 L1169.35 202.032 L1181.16 202.032 L1181.16 183.583 M1179.93 179.509 L1185.81 179.509 L1185.81 202.032 L1190.74 202.032 L1190.74 205.921 L1185.81 205.921 L1185.81 214.069 L1181.16 214.069 L1181.16 205.921 L1165.56 205.921 L1165.56 201.407 L1179.93 179.509 Z" fill="#000000" fill-rule="nonzero" fill-opacity="1" /><path clip-path="url(#clip310)" d="M1198.47 208.189 L1203.36 208.189 L1203.36 214.069 L1198.47 214.069 L1198.47 208.189 Z" fill="#000000" fill-rule="nonzero" fill-opacity="1" /><path clip-path="url(#clip310)" d="M1226.39 183.583 L1214.58 202.032 L1226.39 202.032 L1226.39 183.583 M1225.16 179.509 L1231.04 179.509 L1231.04 202.032 L1235.97 202.032 L1235.97 205.921 L1231.04 205.921 L1231.04 214.069 L1226.39 214.069 L1226.39 205.921 L1210.79 205.921 L1210.79 201.407 L1225.16 179.509 Z" fill="#000000" fill-rule="nonzero" fill-opacity="1" /><path clip-path="url(#clip310)" d="M1257.87 195.434 Q1261.23 196.152 1263.1 198.421 Q1265 200.689 1265 204.022 Q1265 209.138 1261.48 211.939 Q1257.96 214.74 1251.48 214.74 Q1249.31 214.74 1246.99 214.3 Q1244.7 213.883 1242.25 213.027 L1242.25 208.513 Q1244.19 209.647 1246.51 210.226 Q1248.82 210.805 1251.34 210.805 Q1255.74 210.805 1258.03 209.069 Q1260.35 207.333 1260.35 204.022 Q1260.35 200.967 1258.2 199.254 Q1256.07 197.518 1252.25 197.518 L1248.22 197.518 L1248.22 193.675 L1252.43 193.675 Q1255.88 193.675 1257.71 192.309 Q1259.54 190.921 1259.54 188.328 Q1259.54 185.666 1257.64 184.254 Q1255.76 182.819 1252.25 182.819 Q1250.32 182.819 1248.13 183.235 Q1245.93 183.652 1243.29 184.532 L1243.29 180.365 Q1245.95 179.624 1248.26 179.254 Q1250.6 178.884 1252.66 178.884 Q1257.99 178.884 1261.09 181.314 Q1264.19 183.722 1264.19 187.842 Q1264.19 190.712 1262.55 192.703 Q1260.9 194.671 1257.87 195.434 Z" fill="#000000" fill-rule="nonzero" fill-opacity="1" /><path clip-path="url(#clip310)" d="M1303.26 198.86 Q1301.25 198.86 1300.09 200.573 Q1298.96 202.286 1298.96 205.342 Q1298.96 208.351 1300.09 210.087 Q1301.25 211.8 1303.26 211.8 Q1305.23 211.8 1306.37 210.087 Q1307.52 208.351 1307.52 205.342 Q1307.52 202.309 1306.37 200.596 Q1305.23 198.86 1303.26 198.86 M1303.26 195.921 Q1306.92 195.921 1309.07 198.467 Q1311.23 201.013 1311.23 205.342 Q1311.23 209.67 1309.05 212.217 Q1306.9 214.74 1303.26 214.74 Q1299.56 214.74 1297.41 212.217 Q1295.26 209.67 1295.26 205.342 Q1295.26 200.99 1297.41 198.467 Q1299.58 195.921 1303.26 195.921 M1279.38 181.823 Q1277.38 181.823 1276.23 183.56 Q1275.09 185.272 1275.09 188.282 Q1275.09 191.337 1276.23 193.05 Q1277.36 194.763 1279.38 194.763 Q1281.39 194.763 1282.52 193.05 Q1283.68 191.337 1283.68 188.282 Q1283.68 185.296 1282.52 183.56 Q1281.37 181.823 1279.38 181.823 M1300.28 178.884 L1303.98 178.884 L1282.36 214.74 L1278.66 214.74 L1300.28 178.884 M1279.38 178.884 Q1283.03 178.884 1285.21 181.43 Q1287.38 183.953 1287.38 188.282 Q1287.38 192.657 1285.21 195.18 Q1283.06 197.703 1279.38 197.703 Q1275.7 197.703 1273.54 195.18 Q1271.41 192.634 1271.41 188.282 Q1271.41 183.976 1273.57 181.43 Q1275.72 178.884 1279.38 178.884 Z" fill="#000000" fill-rule="nonzero" fill-opacity="1" /><polyline clip-path="url(#clip310)" style="stroke:#3da44d; stroke-linecap:round; stroke-linejoin:round; stroke-width:4; stroke-opacity:1; fill:none" points="349.167,248.629 488.953,248.629 "/>
<path clip-path="url(#clip310)" d="M516.926 235.191 L516.926 248.177 L522.806 248.177 Q526.07 248.177 527.852 246.487 Q529.634 244.798 529.634 241.673 Q529.634 238.571 527.852 236.881 Q526.07 235.191 522.806 235.191 L516.926 235.191 M512.25 231.349 L522.806 231.349 Q528.616 231.349 531.579 233.987 Q534.565 236.603 534.565 241.673 Q534.565 246.788 531.579 249.404 Q528.616 252.02 522.806 252.02 L516.926 252.02 L516.926 265.909 L512.25 265.909 L512.25 231.349 Z" fill="#000000" fill-rule="nonzero" fill-opacity="1" /><path clip-path="url(#clip310)" d="M554.843 243.964 Q554.125 243.548 553.268 243.362 Q552.435 243.154 551.417 243.154 Q547.806 243.154 545.861 245.515 Q543.94 247.853 543.94 252.251 L543.94 265.909 L539.657 265.909 L539.657 239.983 L543.94 239.983 L543.94 244.011 Q545.282 241.649 547.435 240.515 Q549.588 239.358 552.667 239.358 Q553.106 239.358 553.639 239.427 Q554.171 239.474 554.819 239.589 L554.843 243.964 Z" fill="#000000" fill-rule="nonzero" fill-opacity="1" /><path clip-path="url(#clip310)" d="M580.444 251.881 L580.444 253.964 L560.861 253.964 Q561.139 258.362 563.5 260.677 Q565.884 262.969 570.12 262.969 Q572.574 262.969 574.866 262.367 Q577.18 261.765 579.449 260.561 L579.449 264.589 Q577.157 265.561 574.75 266.071 Q572.342 266.58 569.866 266.58 Q563.662 266.58 560.028 262.969 Q556.417 259.358 556.417 253.2 Q556.417 246.835 559.842 243.108 Q563.292 239.358 569.125 239.358 Q574.356 239.358 577.389 242.737 Q580.444 246.094 580.444 251.881 M576.185 250.631 Q576.139 247.136 574.217 245.052 Q572.319 242.969 569.171 242.969 Q565.606 242.969 563.454 244.983 Q561.324 246.997 561 250.654 L576.185 250.631 Z" fill="#000000" fill-rule="nonzero" fill-opacity="1" /><path clip-path="url(#clip310)" d="M604.495 243.918 L604.495 229.89 L608.754 229.89 L608.754 265.909 L604.495 265.909 L604.495 262.02 Q603.152 264.335 601.092 265.469 Q599.055 266.58 596.185 266.58 Q591.486 266.58 588.523 262.83 Q585.583 259.08 585.583 252.969 Q585.583 246.858 588.523 243.108 Q591.486 239.358 596.185 239.358 Q599.055 239.358 601.092 240.492 Q603.152 241.603 604.495 243.918 M589.981 252.969 Q589.981 257.668 591.902 260.353 Q593.847 263.015 597.227 263.015 Q600.606 263.015 602.551 260.353 Q604.495 257.668 604.495 252.969 Q604.495 248.27 602.551 245.608 Q600.606 242.923 597.227 242.923 Q593.847 242.923 591.902 245.608 Q589.981 248.27 589.981 252.969 Z" fill="#000000" fill-rule="nonzero" fill-opacity="1" /><path clip-path="url(#clip310)" d="M617.527 239.983 L621.787 239.983 L621.787 265.909 L617.527 265.909 L617.527 239.983 M617.527 229.89 L621.787 229.89 L621.787 235.284 L617.527 235.284 L617.527 229.89 Z" fill="#000000" fill-rule="nonzero" fill-opacity="1" /><path clip-path="url(#clip310)" d="M649.356 240.978 L649.356 244.96 Q647.55 243.964 645.722 243.478 Q643.916 242.969 642.064 242.969 Q637.921 242.969 635.629 245.608 Q633.337 248.224 633.337 252.969 Q633.337 257.714 635.629 260.353 Q637.921 262.969 642.064 262.969 Q643.916 262.969 645.722 262.483 Q647.55 261.973 649.356 260.978 L649.356 264.913 Q647.573 265.747 645.652 266.163 Q643.754 266.58 641.601 266.58 Q635.745 266.58 632.296 262.899 Q628.847 259.219 628.847 252.969 Q628.847 246.626 632.319 242.992 Q635.814 239.358 641.879 239.358 Q643.847 239.358 645.722 239.775 Q647.597 240.168 649.356 240.978 Z" fill="#000000" fill-rule="nonzero" fill-opacity="1" /><path clip-path="url(#clip310)" d="M660.976 232.622 L660.976 239.983 L669.749 239.983 L669.749 243.293 L660.976 243.293 L660.976 257.367 Q660.976 260.538 661.833 261.441 Q662.712 262.344 665.374 262.344 L669.749 262.344 L669.749 265.909 L665.374 265.909 Q660.444 265.909 658.569 264.08 Q656.694 262.228 656.694 257.367 L656.694 243.293 L653.569 243.293 L653.569 239.983 L656.694 239.983 L656.694 232.622 L660.976 232.622 Z" fill="#000000" fill-rule="nonzero" fill-opacity="1" /><path clip-path="url(#clip310)" d="M675.351 239.983 L679.61 239.983 L679.61 265.909 L675.351 265.909 L675.351 239.983 M675.351 229.89 L679.61 229.89 L679.61 235.284 L675.351 235.284 L675.351 229.89 Z" fill="#000000" fill-rule="nonzero" fill-opacity="1" /><path clip-path="url(#clip310)" d="M698.569 242.969 Q695.143 242.969 693.152 245.654 Q691.161 248.316 691.161 252.969 Q691.161 257.622 693.129 260.307 Q695.12 262.969 698.569 262.969 Q701.971 262.969 703.962 260.284 Q705.953 257.598 705.953 252.969 Q705.953 248.362 703.962 245.677 Q701.971 242.969 698.569 242.969 M698.569 239.358 Q704.124 239.358 707.295 242.969 Q710.467 246.58 710.467 252.969 Q710.467 259.335 707.295 262.969 Q704.124 266.58 698.569 266.58 Q692.99 266.58 689.819 262.969 Q686.671 259.335 686.671 252.969 Q686.671 246.58 689.819 242.969 Q692.99 239.358 698.569 239.358 Z" fill="#000000" fill-rule="nonzero" fill-opacity="1" /><path clip-path="url(#clip310)" d="M739.078 250.261 L739.078 265.909 L734.818 265.909 L734.818 250.399 Q734.818 246.719 733.383 244.89 Q731.948 243.062 729.078 243.062 Q725.629 243.062 723.638 245.261 Q721.647 247.46 721.647 251.256 L721.647 265.909 L717.365 265.909 L717.365 239.983 L721.647 239.983 L721.647 244.011 Q723.175 241.673 725.235 240.515 Q727.318 239.358 730.027 239.358 Q734.494 239.358 736.786 242.136 Q739.078 244.89 739.078 250.261 Z" fill="#000000" fill-rule="nonzero" fill-opacity="1" /><path clip-path="url(#clip310)" d="M782.827 244.96 Q784.425 242.089 786.647 240.724 Q788.869 239.358 791.878 239.358 Q795.929 239.358 798.128 242.205 Q800.327 245.029 800.327 250.261 L800.327 265.909 L796.045 265.909 L796.045 250.399 Q796.045 246.673 794.725 244.867 Q793.406 243.062 790.698 243.062 Q787.388 243.062 785.466 245.261 Q783.545 247.46 783.545 251.256 L783.545 265.909 L779.263 265.909 L779.263 250.399 Q779.263 246.649 777.943 244.867 Q776.624 243.062 773.869 243.062 Q770.605 243.062 768.684 245.284 Q766.763 247.483 766.763 251.256 L766.763 265.909 L762.48 265.909 L762.48 239.983 L766.763 239.983 L766.763 244.011 Q768.221 241.626 770.258 240.492 Q772.295 239.358 775.096 239.358 Q777.92 239.358 779.888 240.793 Q781.878 242.228 782.827 244.96 Z" fill="#000000" fill-rule="nonzero" fill-opacity="1" /><path clip-path="url(#clip310)" d="M818.869 242.969 Q815.443 242.969 813.452 245.654 Q811.461 248.316 811.461 252.969 Q811.461 257.622 813.429 260.307 Q815.42 262.969 818.869 262.969 Q822.272 262.969 824.262 260.284 Q826.253 257.598 826.253 252.969 Q826.253 248.362 824.262 245.677 Q822.272 242.969 818.869 242.969 M818.869 239.358 Q824.424 239.358 827.596 242.969 Q830.767 246.58 830.767 252.969 Q830.767 259.335 827.596 262.969 Q824.424 266.58 818.869 266.58 Q813.29 266.58 810.119 262.969 Q806.971 259.335 806.971 252.969 Q806.971 246.58 810.119 242.969 Q813.29 239.358 818.869 239.358 Z" fill="#000000" fill-rule="nonzero" fill-opacity="1" /><path clip-path="url(#clip310)" d="M854.887 243.918 L854.887 229.89 L859.146 229.89 L859.146 265.909 L854.887 265.909 L854.887 262.02 Q853.545 264.335 851.484 265.469 Q849.447 266.58 846.577 266.58 Q841.878 266.58 838.915 262.83 Q835.975 259.08 835.975 252.969 Q835.975 246.858 838.915 243.108 Q841.878 239.358 846.577 239.358 Q849.447 239.358 851.484 240.492 Q853.545 241.603 854.887 243.918 M840.373 252.969 Q840.373 257.668 842.295 260.353 Q844.239 263.015 847.619 263.015 Q850.998 263.015 852.943 260.353 Q854.887 257.668 854.887 252.969 Q854.887 248.27 852.943 245.608 Q850.998 242.923 847.619 242.923 Q844.239 242.923 842.295 245.608 Q840.373 248.27 840.373 252.969 Z" fill="#000000" fill-rule="nonzero" fill-opacity="1" /><path clip-path="url(#clip310)" d="M890.095 251.881 L890.095 253.964 L870.512 253.964 Q870.79 258.362 873.151 260.677 Q875.535 262.969 879.771 262.969 Q882.225 262.969 884.517 262.367 Q886.831 261.765 889.1 260.561 L889.1 264.589 Q886.808 265.561 884.401 266.071 Q881.994 266.58 879.517 266.58 Q873.313 266.58 869.679 262.969 Q866.068 259.358 866.068 253.2 Q866.068 246.835 869.494 243.108 Q872.943 239.358 878.776 239.358 Q884.007 239.358 887.04 242.737 Q890.095 246.094 890.095 251.881 M885.836 250.631 Q885.79 247.136 883.869 245.052 Q881.97 242.969 878.822 242.969 Q875.257 242.969 873.105 244.983 Q870.975 246.997 870.651 250.654 L885.836 250.631 Z" fill="#000000" fill-rule="nonzero" fill-opacity="1" /><path clip-path="url(#clip310)" d="M897.086 229.89 L901.345 229.89 L901.345 265.909 L897.086 265.909 L897.086 229.89 Z" fill="#000000" fill-rule="nonzero" fill-opacity="1" /><path clip-path="url(#clip310)" d="M941.854 240.747 L941.854 244.774 Q940.049 243.849 938.104 243.386 Q936.16 242.923 934.077 242.923 Q930.905 242.923 929.308 243.895 Q927.734 244.867 927.734 246.811 Q927.734 248.293 928.868 249.149 Q930.003 249.983 933.428 250.747 L934.887 251.071 Q939.424 252.043 941.322 253.825 Q943.243 255.585 943.243 258.756 Q943.243 262.367 940.373 264.473 Q937.526 266.58 932.526 266.58 Q930.442 266.58 928.174 266.163 Q925.928 265.77 923.428 264.96 L923.428 260.561 Q925.79 261.788 928.081 262.413 Q930.373 263.015 932.618 263.015 Q935.627 263.015 937.248 261.997 Q938.868 260.955 938.868 259.08 Q938.868 257.344 937.688 256.418 Q936.53 255.492 932.572 254.636 L931.09 254.288 Q927.132 253.455 925.373 251.742 Q923.614 250.006 923.614 246.997 Q923.614 243.339 926.206 241.349 Q928.799 239.358 933.567 239.358 Q935.928 239.358 938.012 239.705 Q940.095 240.052 941.854 240.747 Z" fill="#000000" fill-rule="nonzero" fill-opacity="1" /><path clip-path="url(#clip310)" d="M950.026 239.983 L954.285 239.983 L954.285 265.909 L950.026 265.909 L950.026 239.983 M950.026 229.89 L954.285 229.89 L954.285 235.284 L950.026 235.284 L950.026 229.89 Z" fill="#000000" fill-rule="nonzero" fill-opacity="1" /><path clip-path="url(#clip310)" d="M983.382 244.96 Q984.979 242.089 987.201 240.724 Q989.424 239.358 992.433 239.358 Q996.484 239.358 998.683 242.205 Q1000.88 245.029 1000.88 250.261 L1000.88 265.909 L996.599 265.909 L996.599 250.399 Q996.599 246.673 995.28 244.867 Q993.961 243.062 991.252 243.062 Q987.942 243.062 986.021 245.261 Q984.099 247.46 984.099 251.256 L984.099 265.909 L979.817 265.909 L979.817 250.399 Q979.817 246.649 978.498 244.867 Q977.178 243.062 974.424 243.062 Q971.16 243.062 969.238 245.284 Q967.317 247.483 967.317 251.256 L967.317 265.909 L963.035 265.909 L963.035 239.983 L967.317 239.983 L967.317 244.011 Q968.775 241.626 970.812 240.492 Q972.85 239.358 975.65 239.358 Q978.474 239.358 980.442 240.793 Q982.433 242.228 983.382 244.96 Z" fill="#000000" fill-rule="nonzero" fill-opacity="1" /><path clip-path="url(#clip310)" d="M1037.57 229.89 L1037.57 233.432 L1033.5 233.432 Q1031.21 233.432 1030.3 234.358 Q1029.42 235.284 1029.42 237.691 L1029.42 239.983 L1036.44 239.983 L1036.44 243.293 L1029.42 243.293 L1029.42 265.909 L1025.14 265.909 L1025.14 243.293 L1021.07 243.293 L1021.07 239.983 L1025.14 239.983 L1025.14 238.177 Q1025.14 233.849 1027.15 231.881 Q1029.17 229.89 1033.54 229.89 L1037.57 229.89 Z" fill="#000000" fill-rule="nonzero" fill-opacity="1" /><path clip-path="url(#clip310)" d="M1041.14 239.983 L1045.4 239.983 L1045.4 265.909 L1041.14 265.909 L1041.14 239.983 M1041.14 229.89 L1045.4 229.89 L1045.4 235.284 L1041.14 235.284 L1041.14 229.89 Z" fill="#000000" fill-rule="nonzero" fill-opacity="1" /><path clip-path="url(#clip310)" d="M1058.52 232.622 L1058.52 239.983 L1067.29 239.983 L1067.29 243.293 L1058.52 243.293 L1058.52 257.367 Q1058.52 260.538 1059.38 261.441 Q1060.26 262.344 1062.92 262.344 L1067.29 262.344 L1067.29 265.909 L1062.92 265.909 Q1057.99 265.909 1056.11 264.08 Q1054.24 262.228 1054.24 257.367 L1054.24 243.293 L1051.11 243.293 L1051.11 239.983 L1054.24 239.983 L1054.24 232.622 L1058.52 232.622 Z" fill="#000000" fill-rule="nonzero" fill-opacity="1" /><path clip-path="url(#clip310)" d="M1104.12 260.029 L1109.01 260.029 L1109.01 265.909 L1104.12 265.909 L1104.12 260.029 M1104.12 241.395 L1109.01 241.395 L1109.01 247.274 L1104.12 247.274 L1104.12 241.395 Z" fill="#000000" fill-rule="nonzero" fill-opacity="1" /><path clip-path="url(#clip310)" d="M1118.43 231.349 L1140.65 231.349 L1140.65 233.339 L1128.1 265.909 L1123.22 265.909 L1135.02 235.284 L1118.43 235.284 L1118.43 231.349 Z" fill="#000000" fill-rule="nonzero" fill-opacity="1" /><path clip-path="url(#clip310)" d="M1150.58 261.973 L1158.22 261.973 L1158.22 235.608 L1149.91 237.275 L1149.91 233.015 L1158.17 231.349 L1162.85 231.349 L1162.85 261.973 L1170.49 261.973 L1170.49 265.909 L1150.58 265.909 L1150.58 261.973 Z" fill="#000000" fill-rule="nonzero" fill-opacity="1" /><path clip-path="url(#clip310)" d="M1179.93 260.029 L1184.82 260.029 L1184.82 265.909 L1179.93 265.909 L1179.93 260.029 Z" fill="#000000" fill-rule="nonzero" fill-opacity="1" /><path clip-path="url(#clip310)" d="M1195.14 265.191 L1195.14 260.932 Q1196.9 261.765 1198.7 262.205 Q1200.51 262.645 1202.25 262.645 Q1206.88 262.645 1209.31 259.543 Q1211.76 256.418 1212.11 250.075 Q1210.76 252.066 1208.7 253.131 Q1206.64 254.196 1204.14 254.196 Q1198.96 254.196 1195.93 251.071 Q1192.92 247.923 1192.92 242.483 Q1192.92 237.159 1196.07 233.941 Q1199.21 230.724 1204.45 230.724 Q1210.44 230.724 1213.59 235.33 Q1216.76 239.913 1216.76 248.663 Q1216.76 256.835 1212.87 261.719 Q1209.01 266.58 1202.45 266.58 Q1200.7 266.58 1198.89 266.233 Q1197.08 265.885 1195.14 265.191 M1204.45 250.538 Q1207.59 250.538 1209.42 248.386 Q1211.27 246.233 1211.27 242.483 Q1211.27 238.756 1209.42 236.603 Q1207.59 234.427 1204.45 234.427 Q1201.3 234.427 1199.45 236.603 Q1197.62 238.756 1197.62 242.483 Q1197.62 246.233 1199.45 248.386 Q1201.3 250.538 1204.45 250.538 Z" fill="#000000" fill-rule="nonzero" fill-opacity="1" /><path clip-path="url(#clip310)" d="M1239.33 247.274 Q1242.69 247.992 1244.56 250.261 Q1246.46 252.529 1246.46 255.862 Q1246.46 260.978 1242.94 263.779 Q1239.42 266.58 1232.94 266.58 Q1230.76 266.58 1228.45 266.14 Q1226.16 265.723 1223.7 264.867 L1223.7 260.353 Q1225.65 261.487 1227.96 262.066 Q1230.28 262.645 1232.8 262.645 Q1237.2 262.645 1239.49 260.909 Q1241.81 259.173 1241.81 255.862 Q1241.81 252.807 1239.65 251.094 Q1237.52 249.358 1233.7 249.358 L1229.68 249.358 L1229.68 245.515 L1233.89 245.515 Q1237.34 245.515 1239.17 244.149 Q1241 242.761 1241 240.168 Q1241 237.506 1239.1 236.094 Q1237.22 234.659 1233.7 234.659 Q1231.78 234.659 1229.58 235.075 Q1227.39 235.492 1224.75 236.372 L1224.75 232.205 Q1227.41 231.464 1229.72 231.094 Q1232.06 230.724 1234.12 230.724 Q1239.45 230.724 1242.55 233.154 Q1245.65 235.562 1245.65 239.682 Q1245.65 242.552 1244.01 244.543 Q1242.36 246.511 1239.33 247.274 Z" fill="#000000" fill-rule="nonzero" fill-opacity="1" /><path clip-path="url(#clip310)" d="M1284.72 250.7 Q1282.71 250.7 1281.55 252.413 Q1280.42 254.126 1280.42 257.182 Q1280.42 260.191 1281.55 261.927 Q1282.71 263.64 1284.72 263.64 Q1286.69 263.64 1287.82 261.927 Q1288.98 260.191 1288.98 257.182 Q1288.98 254.149 1287.82 252.436 Q1286.69 250.7 1284.72 250.7 M1284.72 247.761 Q1288.38 247.761 1290.53 250.307 Q1292.69 252.853 1292.69 257.182 Q1292.69 261.51 1290.51 264.057 Q1288.36 266.58 1284.72 266.58 Q1281.02 266.58 1278.87 264.057 Q1276.71 261.51 1276.71 257.182 Q1276.71 252.83 1278.87 250.307 Q1281.04 247.761 1284.72 247.761 M1260.83 233.663 Q1258.84 233.663 1257.69 235.4 Q1256.55 237.112 1256.55 240.122 Q1256.55 243.177 1257.69 244.89 Q1258.82 246.603 1260.83 246.603 Q1262.85 246.603 1263.98 244.89 Q1265.14 243.177 1265.14 240.122 Q1265.14 237.136 1263.98 235.4 Q1262.82 233.663 1260.83 233.663 M1281.74 230.724 L1285.44 230.724 L1263.82 266.58 L1260.12 266.58 L1281.74 230.724 M1260.83 230.724 Q1264.49 230.724 1266.67 233.27 Q1268.84 235.793 1268.84 240.122 Q1268.84 244.497 1266.67 247.02 Q1264.51 249.543 1260.83 249.543 Q1257.15 249.543 1255 247.02 Q1252.87 244.474 1252.87 240.122 Q1252.87 235.816 1255.02 233.27 Q1257.18 230.724 1260.83 230.724 Z" fill="#000000" fill-rule="nonzero" fill-opacity="1" /></svg>
