<?xml version="1.0" encoding="utf-8"?>
<svg xmlns="http://www.w3.org/2000/svg" xmlns:xlink="http://www.w3.org/1999/xlink" width="600" height="400" viewBox="0 0 2400 1600">
<defs>
  <clipPath id="clip250">
    <rect x="0" y="0" width="2400" height="1600"/>
  </clipPath>
</defs>
<path clip-path="url(#clip250)" d="M0 1600 L2400 1600 L2400 0 L0 0  Z" fill="#ffffff" fill-rule="evenodd" fill-opacity="1"/>
<defs>
  <clipPath id="clip251">
    <rect x="480" y="0" width="1681" height="1600"/>
  </clipPath>
</defs>
<path clip-path="url(#clip250)" d="M255.977 1423.18 L2352.76 1423.18 L2352.76 47.2441 L255.977 47.2441  Z" fill="#ffffff" fill-rule="evenodd" fill-opacity="1"/>
<defs>
  <clipPath id="clip252">
    <rect x="255" y="47" width="2098" height="1377"/>
  </clipPath>
</defs>
<polyline clip-path="url(#clip252)" style="stroke:#000000; stroke-linecap:round; stroke-linejoin:round; stroke-width:2; stroke-opacity:0.1; fill:none" points="315.32,1423.18 315.32,47.2441 "/>
<polyline clip-path="url(#clip252)" style="stroke:#000000; stroke-linecap:round; stroke-linejoin:round; stroke-width:2; stroke-opacity:0.1; fill:none" points="711.731,1423.18 711.731,47.2441 "/>
<polyline clip-path="url(#clip252)" style="stroke:#000000; stroke-linecap:round; stroke-linejoin:round; stroke-width:2; stroke-opacity:0.1; fill:none" points="1108.14,1423.18 1108.14,47.2441 "/>
<polyline clip-path="url(#clip252)" style="stroke:#000000; stroke-linecap:round; stroke-linejoin:round; stroke-width:2; stroke-opacity:0.1; fill:none" points="1504.55,1423.18 1504.55,47.2441 "/>
<polyline clip-path="url(#clip252)" style="stroke:#000000; stroke-linecap:round; stroke-linejoin:round; stroke-width:2; stroke-opacity:0.1; fill:none" points="1900.97,1423.18 1900.97,47.2441 "/>
<polyline clip-path="url(#clip252)" style="stroke:#000000; stroke-linecap:round; stroke-linejoin:round; stroke-width:2; stroke-opacity:0.1; fill:none" points="2297.38,1423.18 2297.38,47.2441 "/>
<polyline clip-path="url(#clip252)" style="stroke:#000000; stroke-linecap:round; stroke-linejoin:round; stroke-width:2; stroke-opacity:0.1; fill:none" points="255.977,1354.6 2352.76,1354.6 "/>
<polyline clip-path="url(#clip252)" style="stroke:#000000; stroke-linecap:round; stroke-linejoin:round; stroke-width:2; stroke-opacity:0.1; fill:none" points="255.977,1059.53 2352.76,1059.53 "/>
<polyline clip-path="url(#clip252)" style="stroke:#000000; stroke-linecap:round; stroke-linejoin:round; stroke-width:2; stroke-opacity:0.1; fill:none" points="255.977,764.449 2352.76,764.449 "/>
<polyline clip-path="url(#clip252)" style="stroke:#000000; stroke-linecap:round; stroke-linejoin:round; stroke-width:2; stroke-opacity:0.1; fill:none" points="255.977,469.374 2352.76,469.374 "/>
<polyline clip-path="url(#clip252)" style="stroke:#000000; stroke-linecap:round; stroke-linejoin:round; stroke-width:2; stroke-opacity:0.1; fill:none" points="255.977,174.298 2352.76,174.298 "/>
<polyline clip-path="url(#clip250)" style="stroke:#000000; stroke-linecap:round; stroke-linejoin:round; stroke-width:4; stroke-opacity:1; fill:none" points="255.977,1423.18 2352.76,1423.18 "/>
<polyline clip-path="url(#clip250)" style="stroke:#000000; stroke-linecap:round; stroke-linejoin:round; stroke-width:4; stroke-opacity:1; fill:none" points="315.32,1423.18 315.32,1404.28 "/>
<polyline clip-path="url(#clip250)" style="stroke:#000000; stroke-linecap:round; stroke-linejoin:round; stroke-width:4; stroke-opacity:1; fill:none" points="711.731,1423.18 711.731,1404.28 "/>
<polyline clip-path="url(#clip250)" style="stroke:#000000; stroke-linecap:round; stroke-linejoin:round; stroke-width:4; stroke-opacity:1; fill:none" points="1108.14,1423.18 1108.14,1404.28 "/>
<polyline clip-path="url(#clip250)" style="stroke:#000000; stroke-linecap:round; stroke-linejoin:round; stroke-width:4; stroke-opacity:1; fill:none" points="1504.55,1423.18 1504.55,1404.28 "/>
<polyline clip-path="url(#clip250)" style="stroke:#000000; stroke-linecap:round; stroke-linejoin:round; stroke-width:4; stroke-opacity:1; fill:none" points="1900.97,1423.18 1900.97,1404.28 "/>
<polyline clip-path="url(#clip250)" style="stroke:#000000; stroke-linecap:round; stroke-linejoin:round; stroke-width:4; stroke-opacity:1; fill:none" points="2297.38,1423.18 2297.38,1404.28 "/>
<path clip-path="url(#clip250)" d="M315.32 1454.1 Q311.709 1454.1 309.88 1457.66 Q308.075 1461.2 308.075 1468.33 Q308.075 1475.44 309.88 1479.01 Q311.709 1482.55 315.32 1482.55 Q318.954 1482.55 320.76 1479.01 Q322.588 1475.44 322.588 1468.33 Q322.588 1461.2 320.76 1457.66 Q318.954 1454.1 315.32 1454.1 M315.32 1450.39 Q321.13 1450.39 324.186 1455 Q327.264 1459.58 327.264 1468.33 Q327.264 1477.06 324.186 1481.67 Q321.13 1486.25 315.32 1486.25 Q309.51 1486.25 306.431 1481.67 Q303.376 1477.06 303.376 1468.33 Q303.376 1459.58 306.431 1455 Q309.51 1450.39 315.32 1450.39 Z" fill="#000000" fill-rule="nonzero" fill-opacity="1" /><path clip-path="url(#clip250)" d="M702.113 1481.64 L709.752 1481.64 L709.752 1455.28 L701.442 1456.95 L701.442 1452.69 L709.706 1451.02 L714.382 1451.02 L714.382 1481.64 L722.021 1481.64 L722.021 1485.58 L702.113 1485.58 L702.113 1481.64 Z" fill="#000000" fill-rule="nonzero" fill-opacity="1" /><path clip-path="url(#clip250)" d="M1102.8 1481.64 L1119.12 1481.64 L1119.12 1485.58 L1097.17 1485.58 L1097.17 1481.64 Q1099.83 1478.89 1104.42 1474.26 Q1109.02 1469.61 1110.2 1468.27 Q1112.45 1465.74 1113.33 1464.01 Q1114.23 1462.25 1114.23 1460.56 Q1114.23 1457.8 1112.29 1456.07 Q1110.37 1454.33 1107.26 1454.33 Q1105.06 1454.33 1102.61 1455.09 Q1100.18 1455.86 1097.4 1457.41 L1097.4 1452.69 Q1100.23 1451.55 1102.68 1450.97 Q1105.13 1450.39 1107.17 1450.39 Q1112.54 1450.39 1115.74 1453.08 Q1118.93 1455.77 1118.93 1460.26 Q1118.93 1462.39 1118.12 1464.31 Q1117.33 1466.2 1115.23 1468.8 Q1114.65 1469.47 1111.55 1472.69 Q1108.44 1475.88 1102.8 1481.64 Z" fill="#000000" fill-rule="nonzero" fill-opacity="1" /><path clip-path="url(#clip250)" d="M1508.8 1466.95 Q1512.16 1467.66 1514.03 1469.93 Q1515.93 1472.2 1515.93 1475.53 Q1515.93 1480.65 1512.41 1483.45 Q1508.89 1486.25 1502.41 1486.25 Q1500.24 1486.25 1497.92 1485.81 Q1495.63 1485.39 1493.18 1484.54 L1493.18 1480.02 Q1495.12 1481.16 1497.44 1481.74 Q1499.75 1482.32 1502.27 1482.32 Q1506.67 1482.32 1508.96 1480.58 Q1511.28 1478.84 1511.28 1475.53 Q1511.28 1472.48 1509.13 1470.77 Q1507 1469.03 1503.18 1469.03 L1499.15 1469.03 L1499.15 1465.19 L1503.36 1465.19 Q1506.81 1465.19 1508.64 1463.82 Q1510.47 1462.43 1510.47 1459.84 Q1510.47 1457.18 1508.57 1455.77 Q1506.7 1454.33 1503.18 1454.33 Q1501.26 1454.33 1499.06 1454.75 Q1496.86 1455.16 1494.22 1456.04 L1494.22 1451.88 Q1496.88 1451.14 1499.2 1450.77 Q1501.53 1450.39 1503.59 1450.39 Q1508.92 1450.39 1512.02 1452.83 Q1515.12 1455.23 1515.12 1459.35 Q1515.12 1462.22 1513.48 1464.21 Q1511.83 1466.18 1508.8 1466.95 Z" fill="#000000" fill-rule="nonzero" fill-opacity="1" /><path clip-path="url(#clip250)" d="M1903.98 1455.09 L1892.17 1473.54 L1903.98 1473.54 L1903.98 1455.09 M1902.75 1451.02 L1908.63 1451.02 L1908.63 1473.54 L1913.56 1473.54 L1913.56 1477.43 L1908.63 1477.43 L1908.63 1485.58 L1903.98 1485.58 L1903.98 1477.43 L1888.37 1477.43 L1888.37 1472.92 L1902.75 1451.02 Z" fill="#000000" fill-rule="nonzero" fill-opacity="1" /><path clip-path="url(#clip250)" d="M2287.66 1451.02 L2306.01 1451.02 L2306.01 1454.96 L2291.94 1454.96 L2291.94 1463.43 Q2292.96 1463.08 2293.97 1462.92 Q2294.99 1462.73 2296.01 1462.73 Q2301.8 1462.73 2305.18 1465.9 Q2308.56 1469.08 2308.56 1474.49 Q2308.56 1480.07 2305.09 1483.17 Q2301.61 1486.25 2295.29 1486.25 Q2293.12 1486.25 2290.85 1485.88 Q2288.6 1485.51 2286.2 1484.77 L2286.2 1480.07 Q2288.28 1481.2 2290.5 1481.76 Q2292.72 1482.32 2295.2 1482.32 Q2299.21 1482.32 2301.54 1480.21 Q2303.88 1478.1 2303.88 1474.49 Q2303.88 1470.88 2301.54 1468.77 Q2299.21 1466.67 2295.2 1466.67 Q2293.33 1466.67 2291.45 1467.08 Q2289.6 1467.5 2287.66 1468.38 L2287.66 1451.02 Z" fill="#000000" fill-rule="nonzero" fill-opacity="1" /><path clip-path="url(#clip250)" d="M1174.54 1520.52 L1214.74 1520.52 L1214.74 1525.93 L1197.87 1525.93 L1197.87 1568.04 L1191.41 1568.04 L1191.41 1525.93 L1174.54 1525.93 L1174.54 1520.52 Z" fill="#000000" fill-rule="nonzero" fill-opacity="1" /><path clip-path="url(#clip250)" d="M1218.68 1532.4 L1224.54 1532.4 L1224.54 1568.04 L1218.68 1568.04 L1218.68 1532.4 M1218.68 1518.52 L1224.54 1518.52 L1224.54 1525.93 L1218.68 1525.93 L1218.68 1518.52 Z" fill="#000000" fill-rule="nonzero" fill-opacity="1" /><path clip-path="url(#clip250)" d="M1264.55 1539.24 Q1266.75 1535.29 1269.8 1533.41 Q1272.86 1531.54 1276.99 1531.54 Q1282.56 1531.54 1285.59 1535.45 Q1288.61 1539.33 1288.61 1546.53 L1288.61 1568.04 L1282.72 1568.04 L1282.72 1546.72 Q1282.72 1541.59 1280.91 1539.11 Q1279.09 1536.63 1275.37 1536.63 Q1270.82 1536.63 1268.18 1539.65 Q1265.54 1542.68 1265.54 1547.9 L1265.54 1568.04 L1259.65 1568.04 L1259.65 1546.72 Q1259.65 1541.56 1257.83 1539.11 Q1256.02 1536.63 1252.23 1536.63 Q1247.74 1536.63 1245.1 1539.68 Q1242.46 1542.71 1242.46 1547.9 L1242.46 1568.04 L1236.57 1568.04 L1236.57 1532.4 L1242.46 1532.4 L1242.46 1537.93 Q1244.47 1534.66 1247.27 1533.1 Q1250.07 1531.54 1253.92 1531.54 Q1257.8 1531.54 1260.51 1533.51 Q1263.24 1535.48 1264.55 1539.24 Z" fill="#000000" fill-rule="nonzero" fill-opacity="1" /><path clip-path="url(#clip250)" d="M1330.78 1548.76 L1330.78 1551.62 L1303.86 1551.62 Q1304.24 1557.67 1307.49 1560.85 Q1310.76 1564 1316.59 1564 Q1319.96 1564 1323.11 1563.17 Q1326.3 1562.35 1329.42 1560.69 L1329.42 1566.23 Q1326.26 1567.57 1322.95 1568.27 Q1319.64 1568.97 1316.24 1568.97 Q1307.71 1568.97 1302.71 1564 Q1297.75 1559.04 1297.75 1550.57 Q1297.75 1541.82 1302.46 1536.69 Q1307.2 1531.54 1315.22 1531.54 Q1322.41 1531.54 1326.58 1536.18 Q1330.78 1540.8 1330.78 1548.76 M1324.93 1547.04 Q1324.86 1542.23 1322.22 1539.37 Q1319.61 1536.5 1315.28 1536.5 Q1310.38 1536.5 1307.42 1539.27 Q1304.49 1542.04 1304.05 1547.07 L1324.93 1547.04 Z" fill="#000000" fill-rule="nonzero" fill-opacity="1" /><path clip-path="url(#clip250)" d="M1360.58 1518.52 L1374.07 1518.52 L1374.07 1523.07 L1366.43 1523.07 L1366.43 1572.09 L1374.07 1572.09 L1374.07 1576.64 L1360.58 1576.64 L1360.58 1518.52 Z" fill="#000000" fill-rule="nonzero" fill-opacity="1" /><path clip-path="url(#clip250)" d="M1409.27 1533.45 L1409.27 1538.98 Q1406.79 1537.71 1404.12 1537.07 Q1401.44 1536.44 1398.58 1536.44 Q1394.22 1536.44 1392.02 1537.77 Q1389.86 1539.11 1389.86 1541.79 Q1389.86 1543.82 1391.42 1545 Q1392.98 1546.15 1397.69 1547.2 L1399.69 1547.64 Q1405.93 1548.98 1408.54 1551.43 Q1411.18 1553.85 1411.18 1558.21 Q1411.18 1563.17 1407.24 1566.07 Q1403.32 1568.97 1396.45 1568.97 Q1393.58 1568.97 1390.46 1568.39 Q1387.38 1567.85 1383.94 1566.74 L1383.94 1560.69 Q1387.18 1562.38 1390.34 1563.24 Q1393.49 1564.07 1396.57 1564.07 Q1400.71 1564.07 1402.94 1562.66 Q1405.17 1561.23 1405.17 1558.65 Q1405.17 1556.27 1403.54 1554.99 Q1401.95 1553.72 1396.51 1552.54 L1394.47 1552.07 Q1389.03 1550.92 1386.61 1548.56 Q1384.19 1546.18 1384.19 1542.04 Q1384.19 1537.01 1387.76 1534.27 Q1391.32 1531.54 1397.88 1531.54 Q1401.13 1531.54 1403.99 1532.01 Q1406.85 1532.49 1409.27 1533.45 Z" fill="#000000" fill-rule="nonzero" fill-opacity="1" /><path clip-path="url(#clip250)" d="M1434.2 1518.52 L1434.2 1576.64 L1420.7 1576.64 L1420.7 1572.09 L1428.31 1572.09 L1428.31 1523.07 L1420.7 1523.07 L1420.7 1518.52 L1434.2 1518.52 Z" fill="#000000" fill-rule="nonzero" fill-opacity="1" /><polyline clip-path="url(#clip250)" style="stroke:#000000; stroke-linecap:round; stroke-linejoin:round; stroke-width:4; stroke-opacity:1; fill:none" points="255.977,1423.18 255.977,47.2441 "/>
<polyline clip-path="url(#clip250)" style="stroke:#000000; stroke-linecap:round; stroke-linejoin:round; stroke-width:4; stroke-opacity:1; fill:none" points="255.977,1354.6 274.875,1354.6 "/>
<polyline clip-path="url(#clip250)" style="stroke:#000000; stroke-linecap:round; stroke-linejoin:round; stroke-width:4; stroke-opacity:1; fill:none" points="255.977,1059.53 274.875,1059.53 "/>
<polyline clip-path="url(#clip250)" style="stroke:#000000; stroke-linecap:round; stroke-linejoin:round; stroke-width:4; stroke-opacity:1; fill:none" points="255.977,764.449 274.875,764.449 "/>
<polyline clip-path="url(#clip250)" style="stroke:#000000; stroke-linecap:round; stroke-linejoin:round; stroke-width:4; stroke-opacity:1; fill:none" points="255.977,469.374 274.875,469.374 "/>
<polyline clip-path="url(#clip250)" style="stroke:#000000; stroke-linecap:round; stroke-linejoin:round; stroke-width:4; stroke-opacity:1; fill:none" points="255.977,174.298 274.875,174.298 "/>
<path clip-path="url(#clip250)" d="M114.631 1355.05 L144.306 1355.05 L144.306 1358.99 L114.631 1358.99 L114.631 1355.05 Z" fill="#000000" fill-rule="nonzero" fill-opacity="1" /><path clip-path="url(#clip250)" d="M164.399 1340.4 Q160.788 1340.4 158.959 1343.96 Q157.153 1347.51 157.153 1354.64 Q157.153 1361.74 158.959 1365.31 Q160.788 1368.85 164.399 1368.85 Q168.033 1368.85 169.839 1365.31 Q171.667 1361.74 171.667 1354.64 Q171.667 1347.51 169.839 1343.96 Q168.033 1340.4 164.399 1340.4 M164.399 1336.7 Q170.209 1336.7 173.264 1341.3 Q176.343 1345.89 176.343 1354.64 Q176.343 1363.36 173.264 1367.97 Q170.209 1372.55 164.399 1372.55 Q158.589 1372.55 155.51 1367.97 Q152.454 1363.36 152.454 1354.64 Q152.454 1345.89 155.51 1341.3 Q158.589 1336.7 164.399 1336.7 Z" fill="#000000" fill-rule="nonzero" fill-opacity="1" /><path clip-path="url(#clip250)" d="M184.561 1366 L189.445 1366 L189.445 1371.88 L184.561 1371.88 L184.561 1366 Z" fill="#000000" fill-rule="nonzero" fill-opacity="1" /><path clip-path="url(#clip250)" d="M203.658 1367.95 L219.977 1367.95 L219.977 1371.88 L198.033 1371.88 L198.033 1367.95 Q200.695 1365.19 205.278 1360.56 Q209.885 1355.91 211.065 1354.57 Q213.311 1352.04 214.19 1350.31 Q215.093 1348.55 215.093 1346.86 Q215.093 1344.1 213.149 1342.37 Q211.227 1340.63 208.125 1340.63 Q205.926 1340.63 203.473 1341.4 Q201.042 1342.16 198.264 1343.71 L198.264 1338.99 Q201.088 1337.85 203.542 1337.28 Q205.996 1336.7 208.033 1336.7 Q213.403 1336.7 216.598 1339.38 Q219.792 1342.07 219.792 1346.56 Q219.792 1348.69 218.982 1350.61 Q218.195 1352.51 216.088 1355.1 Q215.51 1355.77 212.408 1358.99 Q209.306 1362.18 203.658 1367.95 Z" fill="#000000" fill-rule="nonzero" fill-opacity="1" /><path clip-path="url(#clip250)" d="M114.26 1059.98 L143.936 1059.98 L143.936 1063.91 L114.26 1063.91 L114.26 1059.98 Z" fill="#000000" fill-rule="nonzero" fill-opacity="1" /><path clip-path="url(#clip250)" d="M164.028 1045.32 Q160.417 1045.32 158.589 1048.89 Q156.783 1052.43 156.783 1059.56 Q156.783 1066.67 158.589 1070.23 Q160.417 1073.77 164.028 1073.77 Q167.663 1073.77 169.468 1070.23 Q171.297 1066.67 171.297 1059.56 Q171.297 1052.43 169.468 1048.89 Q167.663 1045.32 164.028 1045.32 M164.028 1041.62 Q169.839 1041.62 172.894 1046.23 Q175.973 1050.81 175.973 1059.56 Q175.973 1068.29 172.894 1072.89 Q169.839 1077.48 164.028 1077.48 Q158.218 1077.48 155.14 1072.89 Q152.084 1068.29 152.084 1059.56 Q152.084 1050.81 155.14 1046.23 Q158.218 1041.62 164.028 1041.62 Z" fill="#000000" fill-rule="nonzero" fill-opacity="1" /><path clip-path="url(#clip250)" d="M184.19 1070.93 L189.075 1070.93 L189.075 1076.81 L184.19 1076.81 L184.19 1070.93 Z" fill="#000000" fill-rule="nonzero" fill-opacity="1" /><path clip-path="url(#clip250)" d="M200.07 1072.87 L207.709 1072.87 L207.709 1046.5 L199.399 1048.17 L199.399 1043.91 L207.662 1042.25 L212.338 1042.25 L212.338 1072.87 L219.977 1072.87 L219.977 1076.81 L200.07 1076.81 L200.07 1072.87 Z" fill="#000000" fill-rule="nonzero" fill-opacity="1" /><path clip-path="url(#clip250)" d="M162.802 750.248 Q159.19 750.248 157.362 753.813 Q155.556 757.355 155.556 764.484 Q155.556 771.591 157.362 775.155 Q159.19 778.697 162.802 778.697 Q166.436 778.697 168.241 775.155 Q170.07 771.591 170.07 764.484 Q170.07 757.355 168.241 753.813 Q166.436 750.248 162.802 750.248 M162.802 746.544 Q168.612 746.544 171.667 751.151 Q174.746 755.734 174.746 764.484 Q174.746 773.211 171.667 777.817 Q168.612 782.401 162.802 782.401 Q156.991 782.401 153.913 777.817 Q150.857 773.211 150.857 764.484 Q150.857 755.734 153.913 751.151 Q156.991 746.544 162.802 746.544 Z" fill="#000000" fill-rule="nonzero" fill-opacity="1" /><path clip-path="url(#clip250)" d="M182.963 775.85 L187.848 775.85 L187.848 781.729 L182.963 781.729 L182.963 775.85 Z" fill="#000000" fill-rule="nonzero" fill-opacity="1" /><path clip-path="url(#clip250)" d="M208.033 750.248 Q204.422 750.248 202.593 753.813 Q200.787 757.355 200.787 764.484 Q200.787 771.591 202.593 775.155 Q204.422 778.697 208.033 778.697 Q211.667 778.697 213.473 775.155 Q215.301 771.591 215.301 764.484 Q215.301 757.355 213.473 753.813 Q211.667 750.248 208.033 750.248 M208.033 746.544 Q213.843 746.544 216.898 751.151 Q219.977 755.734 219.977 764.484 Q219.977 773.211 216.898 777.817 Q213.843 782.401 208.033 782.401 Q202.223 782.401 199.144 777.817 Q196.088 773.211 196.088 764.484 Q196.088 755.734 199.144 751.151 Q202.223 746.544 208.033 746.544 Z" fill="#000000" fill-rule="nonzero" fill-opacity="1" /><path clip-path="url(#clip250)" d="M164.028 455.172 Q160.417 455.172 158.589 458.737 Q156.783 462.279 156.783 469.408 Q156.783 476.515 158.589 480.08 Q160.417 483.621 164.028 483.621 Q167.663 483.621 169.468 480.08 Q171.297 476.515 171.297 469.408 Q171.297 462.279 169.468 458.737 Q167.663 455.172 164.028 455.172 M164.028 451.469 Q169.839 451.469 172.894 456.075 Q175.973 460.658 175.973 469.408 Q175.973 478.135 172.894 482.742 Q169.839 487.325 164.028 487.325 Q158.218 487.325 155.14 482.742 Q152.084 478.135 152.084 469.408 Q152.084 460.658 155.14 456.075 Q158.218 451.469 164.028 451.469 Z" fill="#000000" fill-rule="nonzero" fill-opacity="1" /><path clip-path="url(#clip250)" d="M184.19 480.774 L189.075 480.774 L189.075 486.654 L184.19 486.654 L184.19 480.774 Z" fill="#000000" fill-rule="nonzero" fill-opacity="1" /><path clip-path="url(#clip250)" d="M200.07 482.718 L207.709 482.718 L207.709 456.353 L199.399 458.019 L199.399 453.76 L207.662 452.094 L212.338 452.094 L212.338 482.718 L219.977 482.718 L219.977 486.654 L200.07 486.654 L200.07 482.718 Z" fill="#000000" fill-rule="nonzero" fill-opacity="1" /><path clip-path="url(#clip250)" d="M164.399 160.096 Q160.788 160.096 158.959 163.661 Q157.153 167.203 157.153 174.332 Q157.153 181.439 158.959 185.004 Q160.788 188.545 164.399 188.545 Q168.033 188.545 169.839 185.004 Q171.667 181.439 171.667 174.332 Q171.667 167.203 169.839 163.661 Q168.033 160.096 164.399 160.096 M164.399 156.393 Q170.209 156.393 173.264 160.999 Q176.343 165.582 176.343 174.332 Q176.343 183.059 173.264 187.666 Q170.209 192.249 164.399 192.249 Q158.589 192.249 155.51 187.666 Q152.454 183.059 152.454 174.332 Q152.454 165.582 155.51 160.999 Q158.589 156.393 164.399 156.393 Z" fill="#000000" fill-rule="nonzero" fill-opacity="1" /><path clip-path="url(#clip250)" d="M184.561 185.698 L189.445 185.698 L189.445 191.578 L184.561 191.578 L184.561 185.698 Z" fill="#000000" fill-rule="nonzero" fill-opacity="1" /><path clip-path="url(#clip250)" d="M203.658 187.642 L219.977 187.642 L219.977 191.578 L198.033 191.578 L198.033 187.642 Q200.695 184.888 205.278 180.258 Q209.885 175.605 211.065 174.263 Q213.311 171.74 214.19 170.004 Q215.093 168.244 215.093 166.555 Q215.093 163.8 213.149 162.064 Q211.227 160.328 208.125 160.328 Q205.926 160.328 203.473 161.092 Q201.042 161.856 198.264 163.406 L198.264 158.684 Q201.088 157.55 203.542 156.971 Q205.996 156.393 208.033 156.393 Q213.403 156.393 216.598 159.078 Q219.792 161.763 219.792 166.254 Q219.792 168.383 218.982 170.305 Q218.195 172.203 216.088 174.795 Q215.51 175.467 212.408 178.684 Q209.306 181.879 203.658 187.642 Z" fill="#000000" fill-rule="nonzero" fill-opacity="1" /><path clip-path="url(#clip250)" d="M20.8447 823.791 Q20.8447 830.793 26.0645 834.931 Q31.2844 839.037 40.2919 839.037 Q49.2675 839.037 54.4874 834.931 Q59.7073 830.793 59.7073 823.791 Q59.7073 816.788 54.4874 812.714 Q49.2675 808.609 40.2919 808.609 Q31.2844 808.609 26.0645 812.714 Q20.8447 816.788 20.8447 823.791 M15.6248 823.791 Q15.6248 813.797 22.3406 807.813 Q29.0246 801.829 40.2919 801.829 Q51.5274 801.829 58.2432 807.813 Q64.9272 813.797 64.9272 823.791 Q64.9272 833.817 58.2432 839.832 Q51.5592 845.816 40.2919 845.816 Q29.0246 845.816 22.3406 839.832 Q15.6248 833.817 15.6248 823.791 Z" fill="#000000" fill-rule="nonzero" fill-opacity="1" /><path clip-path="url(#clip250)" d="M49.9359 792.631 L28.3562 792.631 L28.3562 786.774 L49.7131 786.774 Q54.7739 786.774 57.3202 784.801 Q59.8346 782.827 59.8346 778.881 Q59.8346 774.138 56.8109 771.401 Q53.7872 768.632 48.5673 768.632 L28.3562 768.632 L28.3562 762.775 L64.0042 762.775 L64.0042 768.632 L58.5296 768.632 Q61.7762 770.764 63.3676 773.597 Q64.9272 776.398 64.9272 780.122 Q64.9272 786.265 61.1078 789.448 Q57.2883 792.631 49.9359 792.631 M27.4968 777.894 L27.4968 777.894 Z" fill="#000000" fill-rule="nonzero" fill-opacity="1" /><path clip-path="url(#clip250)" d="M18.2347 744.92 L28.3562 744.92 L28.3562 732.857 L32.9077 732.857 L32.9077 744.92 L52.2594 744.92 Q56.6199 744.92 57.8613 743.742 Q59.1026 742.533 59.1026 738.872 L59.1026 732.857 L64.0042 732.857 L64.0042 738.872 Q64.0042 745.652 61.4897 748.23 Q58.9434 750.808 52.2594 750.808 L32.9077 750.808 L32.9077 755.105 L28.3562 755.105 L28.3562 750.808 L18.2347 750.808 L18.2347 744.92 Z" fill="#000000" fill-rule="nonzero" fill-opacity="1" /><path clip-path="url(#clip250)" d="M58.657 719.489 L77.5631 719.489 L77.5631 725.377 L28.3562 725.377 L28.3562 719.489 L33.7671 719.489 Q30.5842 717.643 29.0564 714.842 Q27.4968 712.009 27.4968 708.094 Q27.4968 701.601 32.6531 697.559 Q37.8093 693.485 46.212 693.485 Q54.6147 693.485 59.771 697.559 Q64.9272 701.601 64.9272 708.094 Q64.9272 712.009 63.3994 714.842 Q61.8398 717.643 58.657 719.489 M46.212 699.564 Q39.7508 699.564 36.0905 702.238 Q32.3984 704.879 32.3984 709.526 Q32.3984 714.173 36.0905 716.847 Q39.7508 719.489 46.212 719.489 Q52.6732 719.489 56.3653 716.847 Q60.0256 714.173 60.0256 709.526 Q60.0256 704.879 56.3653 702.238 Q52.6732 699.564 46.212 699.564 Z" fill="#000000" fill-rule="nonzero" fill-opacity="1" /><path clip-path="url(#clip250)" d="M49.9359 684.382 L28.3562 684.382 L28.3562 678.525 L49.7131 678.525 Q54.7739 678.525 57.3202 676.552 Q59.8346 674.579 59.8346 670.632 Q59.8346 665.889 56.8109 663.152 Q53.7872 660.383 48.5673 660.383 L28.3562 660.383 L28.3562 654.527 L64.0042 654.527 L64.0042 660.383 L58.5296 660.383 Q61.7762 662.516 63.3676 665.348 Q64.9272 668.149 64.9272 671.873 Q64.9272 678.016 61.1078 681.199 Q57.2883 684.382 49.9359 684.382 M27.4968 669.645 L27.4968 669.645 Z" fill="#000000" fill-rule="nonzero" fill-opacity="1" /><path clip-path="url(#clip250)" d="M18.2347 636.671 L28.3562 636.671 L28.3562 624.608 L32.9077 624.608 L32.9077 636.671 L52.2594 636.671 Q56.6199 636.671 57.8613 635.493 Q59.1026 634.284 59.1026 630.623 L59.1026 624.608 L64.0042 624.608 L64.0042 630.623 Q64.0042 637.403 61.4897 639.981 Q58.9434 642.559 52.2594 642.559 L32.9077 642.559 L32.9077 646.856 L28.3562 646.856 L28.3562 642.559 L18.2347 642.559 L18.2347 636.671 Z" fill="#000000" fill-rule="nonzero" fill-opacity="1" /><polyline clip-path="url(#clip252)" style="stroke:#009af9; stroke-linecap:round; stroke-linejoin:round; stroke-width:4; stroke-opacity:1; fill:none" points="315.32,764.449 319.284,764.449 323.248,764.449 323.248,793.616 327.212,793.616 327.212,821.923 331.176,821.923 331.176,849.123 335.141,849.123 335.141,874.994 339.105,874.994 339.105,899.342 343.069,899.342 343.069,922.009 347.033,922.009 347.033,942.871 350.997,942.871 350.997,961.84 354.961,961.84 354.961,978.865 358.925,978.865 358.925,993.933 362.889,993.933 362.889,1007.07 366.853,1007.07 366.853,1018.32 370.818,1018.32 370.818,1027.79 374.782,1027.79 374.782,1035.59 378.746,1035.59 378.746,1041.88 382.71,1041.88 382.71,1046.81 386.674,1046.81 386.674,1050.58 390.638,1050.58 390.638,1053.39 394.602,1053.39 394.602,1055.46 398.566,1055.46 398.566,1057.01 402.53,1057.01 402.53,999.924 406.495,999.924 406.495,944.471 410.459,944.471 410.459,891.361 414.423,891.361 414.423,841.238 418.387,841.238 418.387,794.673 422.351,794.673 422.351,810.485 426.315,810.485 426.315,829.018 430.279,829.018 430.279,850.075 434.243,850.075 434.243,873.413 438.208,873.413 438.208,898.748 442.172,898.748 442.172,925.765 446.136,925.765 446.136,954.119 450.1,954.119 450.1,983.451 454.064,983.451 454.064,1013.39 458.028,1013.39 458.028,1043.55 461.992,1043.55 461.992,1015.24 465.956,1015.24 465.956,988.147 469.92,988.147 469.92,962.425 473.885,962.425 473.885,938.202 477.849,938.202 477.849,915.575 481.813,915.575 481.813,952.945 485.777,952.945 485.777,990.293 489.741,990.293 489.741,1027.13 493.705,1027.13 493.705,1062.98 497.669,1062.98 497.669,1097.41 501.633,1097.41 501.633,1130.01 505.597,1130.01 505.597,1160.43 509.562,1160.43 509.562,1188.36 513.526,1188.36 513.526,1213.57 517.49,1213.57 517.49,1235.84 521.454,1235.84 521.454,1196.73 525.418,1196.73 525.418,1156.22 529.382,1156.22 529.382,1114.79 533.346,1114.79 533.346,1072.95 537.31,1072.95 537.31,1031.19 541.275,1031.19 541.275,989.987 545.239,989.987 545.239,949.806 549.203,949.806 549.203,911.075 553.167,911.075 553.167,874.184 557.131,874.184 557.131,839.481 561.095,839.481 561.095,865.595 565.059,865.595 565.059,892.719 569.023,892.719 569.023,920.538 572.987,920.538 572.987,948.736 576.952,948.736 576.952,976.991 580.916,976.991 580.916,1004.99 584.88,1004.99 584.88,1032.43 588.844,1032.43 588.844,1059.03 592.808,1059.03 592.808,1084.53 596.772,1084.53 596.772,1108.69 600.736,1108.69 600.736,1131.3 604.7,1131.3 604.7,1152.21 608.664,1152.21 608.664,1171.27 612.629,1171.27 612.629,1188.39 616.593,1188.39 616.593,1203.51 620.557,1203.51 620.557,1216.62 624.521,1216.62 624.521,1227.73 628.485,1227.73 628.485,1236.91 632.449,1236.91 632.449,1244.24 636.413,1244.24 636.413,1249.84 640.377,1249.84 640.377,1195.54 644.341,1195.54 644.341,1141.56 648.306,1141.56 648.306,1088.58 652.27,1088.58 652.27,1037.28 656.234,1037.28 656.234,988.247 660.198,988.247 660.198,942.036 664.162,942.036 664.162,899.126 668.126,899.126 668.126,859.92 672.09,859.92 672.09,824.74 676.054,824.74 676.054,793.824 680.019,793.824 680.019,767.321 683.983,767.321 683.983,745.292 687.947,745.292 687.947,727.713 691.911,727.713 691.911,714.475 695.875,714.475 695.875,705.39 699.839,705.39 699.839,758.532 703.803,758.532 703.803,813.522 707.767,813.522 707.767,869.48 711.731,869.48 711.731,925.531 715.696,925.531 715.696,980.819 719.66,980.819 719.66,1034.53 723.624,1034.53 723.624,1085.89 727.588,1085.89 727.588,1134.22 731.552,1134.22 731.552,1178.89 735.516,1178.89 735.516,1219.36 739.48,1219.36 739.48,1196.87 743.444,1196.87 743.444,1171.14 747.408,1171.14 747.408,1142.43 751.373,1142.43 751.373,1111.07 755.337,1111.07 755.337,1077.42 759.301,1077.42 759.301,1041.88 763.265,1041.88 763.265,1004.9 767.229,1004.9 767.229,966.917 771.193,966.917 771.193,928.4 775.157,928.4 775.157,889.809 779.121,889.809 779.121,909.929 783.085,909.929 783.085,929.144 787.05,929.144 787.05,947.366 791.014,947.366 791.014,964.526 794.978,964.526 794.978,980.577 798.942,980.577 798.942,937.158 802.906,937.158 802.906,894.314 806.87,894.314 806.87,852.555 810.834,852.555 810.834,812.357 814.798,812.357 814.798,774.158 818.763,774.158 818.763,796.674 822.727,796.674 822.727,820.187 826.691,820.187 826.691,844.47 830.655,844.47 830.655,869.285 834.619,869.285 834.619,894.391 838.583,894.391 838.583,919.542 842.547,919.542 842.547,944.497 846.511,944.497 846.511,969.026 850.475,969.026 850.475,992.907 854.44,992.907 854.44,1015.94 858.404,1015.94 858.404,1037.94 862.368,1037.94 862.368,1058.75 866.332,1058.75 866.332,1078.23 870.296,1078.23 870.296,1096.29 874.26,1096.29 874.26,1112.83 878.224,1112.83 878.224,1127.82 882.188,1127.82 882.188,1141.24 886.152,1141.24 886.152,1153.1 890.117,1153.1 890.117,1163.44 894.081,1163.44 894.081,1172.32 898.045,1172.32 898.045,1121.5 902.009,1121.5 902.009,1071.15 905.973,1071.15 905.973,1021.89 909.937,1021.89 909.937,974.314 913.901,974.314 913.901,928.971 917.865,928.971 917.865,886.346 921.829,886.346 921.829,846.862 925.794,846.862 925.794,810.873 929.758,810.873 929.758,778.653 933.722,778.653 933.722,750.402 937.686,750.402 937.686,784.569 941.65,784.569 941.65,821.139 945.614,821.139 945.614,859.573 949.578,859.573 949.578,899.307 953.542,899.307 953.542,939.768 957.507,939.768 957.507,922.049 961.471,922.049 961.471,905.638 965.435,905.638 965.435,890.492 969.399,890.492 969.399,876.549 973.363,876.549 973.363,863.725 977.327,863.725 977.327,910.255 981.291,910.255 981.291,955.975 985.255,955.975 985.255,1000.26 989.219,1000.26 989.219,1042.55 993.184,1042.55 993.184,1082.3 997.148,1082.3 997.148,1060.73 1001.11,1060.73 1001.11,1037.49 1005.08,1037.49 1005.08,1012.78 1009.04,1012.78 1009.04,986.793 1013,986.793 1013,959.769 1016.97,959.769 1016.97,931.954 1020.93,931.954 1020.93,903.606 1024.9,903.606 1024.9,874.991 1028.86,874.991 1028.86,846.376 1032.82,846.376 1032.82,818.02 1036.79,818.02 1036.79,848.508 1040.75,848.508 1040.75,878.026 1044.72,878.026 1044.72,906.293 1048.68,906.293 1048.68,933.063 1052.65,933.063 1052.65,958.119 1056.61,958.119 1056.61,981.284 1060.57,981.284 1060.57,1002.42 1064.54,1002.42 1064.54,1021.44 1068.5,1021.44 1068.5,1038.27 1072.47,1038.27 1072.47,1052.92 1076.43,1052.92 1076.43,1007.07 1080.39,1007.07 1080.39,960.841 1084.36,960.841 1084.36,914.841 1088.32,914.841 1088.32,869.649 1092.29,869.649 1092.29,825.818 1096.25,825.818 1096.25,842.192 1100.21,842.192 1100.21,859.185 1104.18,859.185 1104.18,876.705 1108.14,876.705 1108.14,894.653 1112.11,894.653 1112.11,912.92 1116.07,912.92 1116.07,873.06 1120.04,873.06 1120.04,835.006 1124,835.006 1124,799.138 1127.96,799.138 1127.96,765.783 1131.93,765.783 1131.93,735.214 1135.89,735.214 1135.89,707.641 1139.86,707.641 1139.86,683.216 1143.82,683.216 1143.82,662.024 1147.78,662.024 1147.78,644.089 1151.75,644.089 1151.75,629.373 1155.71,629.373 1155.71,617.778 1159.68,617.778 1159.68,609.151 1163.64,609.151 1163.64,603.288 1167.6,603.288 1167.6,599.938 1171.57,599.938 1171.57,598.814 1175.53,598.814 1175.53,599.593 1179.5,599.593 1179.5,601.93 1183.46,601.93 1183.46,605.459 1187.43,605.459 1187.43,609.808 1191.39,609.808 1191.39,614.598 1195.35,614.598 1195.35,677.792 1199.32,677.792 1199.32,738.98 1203.28,738.98 1203.28,797.323 1207.25,797.323 1207.25,852.063 1211.21,852.063 1211.21,902.531 1215.17,902.531 1215.17,948.157 1219.14,948.157 1219.14,988.482 1223.1,988.482 1223.1,1023.16 1227.07,1023.16 1227.07,1051.97 1231.03,1051.97 1231.03,1074.81 1234.99,1074.81 1234.99,1091.67 1238.96,1091.67 1238.96,1102.69 1242.92,1102.69 1242.92,1108.11 1246.89,1108.11 1246.89,1108.25 1250.85,1108.25 1250.85,1103.55 1254.82,1103.55 1254.82,1094.5 1258.78,1094.5 1258.78,1081.68 1262.74,1081.68 1262.74,1065.72 1266.71,1065.72 1266.71,1047.29 1270.67,1047.29 1270.67,1027.08 1274.64,1027.08 1274.64,1005.8 1278.6,1005.8 1278.6,984.151 1282.56,984.151 1282.56,962.823 1286.53,962.823 1286.53,942.475 1290.49,942.475 1290.49,923.724 1294.46,923.724 1294.46,907.137 1298.42,907.137 1298.42,893.216 1302.38,893.216 1302.38,882.397 1306.35,882.397 1306.35,875.037 1310.31,875.037 1310.31,871.413 1314.28,871.413 1314.28,871.718 1318.24,871.718 1318.24,876.06 1322.21,876.06 1322.21,884.462 1326.17,884.462 1326.17,896.864 1330.13,896.864 1330.13,913.126 1334.1,913.126 1334.1,874.702 1338.06,874.702 1338.06,841.362 1342.03,841.362 1342.03,813.264 1345.99,813.264 1345.99,790.458 1349.95,790.458 1349.95,772.893 1353.92,772.893 1353.92,760.422 1357.88,760.422 1357.88,752.803 1361.85,752.803 1361.85,749.709 1365.81,749.709 1365.81,750.739 1369.77,750.739 1369.77,755.425 1373.74,755.425 1373.74,821.576 1377.7,821.576 1377.7,888.576 1381.67,888.576 1381.67,955.33 1385.63,955.33 1385.63,1020.78 1389.6,1020.78 1389.6,1083.92 1393.56,1083.92 1393.56,1143.83 1397.52,1143.83 1397.52,1199.65 1401.49,1199.65 1401.49,1250.65 1405.45,1250.65 1405.45,1296.2 1409.42,1296.2 1409.42,1335.81 1413.38,1335.81 1413.38,1310.76 1417.34,1310.76 1417.34,1280.86 1421.31,1280.86 1421.31,1246.51 1425.27,1246.51 1425.27,1208.18 1429.24,1208.18 1429.24,1166.41 1433.2,1166.41 1433.2,1180.12 1437.16,1180.12 1437.16,1189.89 1441.13,1189.89 1441.13,1195.9 1445.09,1195.9 1445.09,1198.38 1449.06,1198.38 1449.06,1197.61 1453.02,1197.61 1453.02,1135.62 1456.98,1135.62 1456.98,1072.84 1460.95,1072.84 1460.95,1010.2 1464.91,1010.2 1464.91,948.592 1468.88,948.592 1468.88,888.871 1472.84,888.871 1472.84,831.83 1476.81,831.83 1476.81,778.189 1480.77,778.189 1480.77,728.584 1484.73,728.584 1484.73,683.555 1488.7,683.555 1488.7,643.54 1492.66,643.54 1492.66,608.869 1496.63,608.869 1496.63,579.759 1500.59,579.759 1500.59,556.315 1504.55,556.315 1504.55,538.53 1508.52,538.53 1508.52,526.289 1512.48,526.289 1512.48,519.376 1516.45,519.376 1516.45,517.475 1520.41,517.475 1520.41,520.189 1524.37,520.189 1524.37,527.042 1528.34,527.042 1528.34,537.494 1532.3,537.494 1532.3,550.952 1536.27,550.952 1536.27,566.786 1540.23,566.786 1540.23,584.339 1544.2,584.339 1544.2,602.944 1548.16,602.944 1548.16,621.935 1552.12,621.935 1552.12,698.992 1556.09,698.992 1556.09,773.441 1560.05,773.441 1560.05,844.199 1564.02,844.199 1564.02,910.284 1567.98,910.284 1567.98,970.835 1571.94,970.835 1571.94,1025.12 1575.91,1025.12 1575.91,1072.55 1579.87,1072.55 1579.87,1112.68 1583.84,1112.68 1583.84,1145.23 1587.8,1145.23 1587.8,1170.06 1591.76,1170.06 1591.76,1128.87 1595.73,1128.87 1595.73,1081.87 1599.69,1081.87 1599.69,1029.87 1603.66,1029.87 1603.66,973.747 1607.62,973.747 1607.62,914.452 1611.59,914.452 1611.59,911.291 1615.55,911.291 1615.55,905.211 1619.51,905.211 1619.51,896.706 1623.48,896.706 1623.48,886.303 1627.44,886.303 1627.44,874.546 1631.41,874.546 1631.41,861.989 1635.37,861.989 1635.37,849.18 1639.33,849.18 1639.33,836.655 1643.3,836.655 1643.3,824.925 1647.26,824.925 1647.26,814.468 1651.23,814.468 1651.23,805.719 1655.19,805.719 1655.19,799.065 1659.15,799.065 1659.15,794.837 1663.12,794.837 1663.12,793.307 1667.08,793.307 1667.08,794.683 1671.05,794.683 1671.05,740.772 1675.01,740.772 1675.01,691.702 1678.98,691.702 1678.98,647.978 1682.94,647.978 1682.94,609.988 1686.9,609.988 1686.9,578.001 1690.87,578.001 1690.87,552.162 1694.83,552.162 1694.83,532.492 1698.8,532.492 1698.8,518.895 1702.76,518.895 1702.76,511.162 1706.72,511.162 1706.72,508.976 1710.69,508.976 1710.69,511.923 1714.65,511.923 1714.65,519.506 1718.62,519.506 1718.62,531.151 1722.58,531.151 1722.58,546.227 1726.54,546.227 1726.54,564.053 1730.51,564.053 1730.51,642.255 1734.47,642.255 1734.47,720.053 1738.44,720.053 1738.44,796.224 1742.4,796.224 1742.4,869.608 1746.37,869.608 1746.37,939.131 1750.33,939.131 1750.33,945.493 1754.29,945.493 1754.29,947.897 1758.26,947.897 1758.26,946.125 1762.22,946.125 1762.22,940.053 1766.19,940.053 1766.19,929.645 1770.15,929.645 1770.15,973.29 1774.11,973.29 1774.11,1011.08 1778.08,1011.08 1778.08,1042.73 1782.04,1042.73 1782.04,1068.09 1786.01,1068.09 1786.01,1087.14 1789.97,1087.14 1789.97,1041.65 1793.93,1041.65 1793.93,991.867 1797.9,991.867 1797.9,938.622 1801.86,938.622 1801.86,882.776 1805.83,882.776 1805.83,825.225 1809.79,825.225 1809.79,766.871 1813.76,766.871 1813.76,708.612 1817.72,708.612 1817.72,651.317 1821.68,651.317 1821.68,595.814 1825.65,595.814 1825.65,542.875 1829.61,542.875 1829.61,551.532 1833.58,551.532 1833.58,562.354 1837.54,562.354 1837.54,575.37 1841.5,575.37 1841.5,590.562 1845.47,590.562 1845.47,607.867 1849.43,607.867 1849.43,627.18 1853.4,627.18 1853.4,648.356 1857.36,648.356 1857.36,671.214 1861.32,671.214 1861.32,695.544 1865.29,695.544 1865.29,721.11 1869.25,721.11 1869.25,689.321 1873.22,689.321 1873.22,659.959 1877.18,659.959 1877.18,633.239 1881.15,633.239 1881.15,609.324 1885.11,609.324 1885.11,588.318 1889.07,588.318 1889.07,570.268 1893.04,570.268 1893.04,555.164 1897,555.164 1897,542.941 1900.97,542.941 1900.97,533.482 1904.93,533.482 1904.93,526.623 1908.89,526.623 1908.89,522.156 1912.86,522.156 1912.86,519.832 1916.82,519.832 1916.82,519.374 1920.79,519.374 1920.79,520.476 1924.75,520.476 1924.75,522.814 1928.71,522.814 1928.71,526.052 1932.68,526.052 1932.68,529.85 1936.64,529.85 1936.64,533.866 1940.61,533.866 1940.61,537.769 1944.57,537.769 1944.57,541.243 1948.54,541.243 1948.54,543.99 1952.5,543.99 1952.5,545.739 1956.46,545.739 1956.46,546.248 1960.43,546.248 1960.43,545.31 1964.39,545.31 1964.39,542.755 1968.36,542.755 1968.36,538.45 1972.32,538.45 1972.32,532.306 1976.28,532.306 1976.28,524.272 1980.25,524.272 1980.25,514.339 1984.21,514.339 1984.21,502.539 1988.18,502.539 1988.18,488.941 1992.14,488.941 1992.14,473.648 1996.1,473.648 1996.1,456.798 2000.07,456.798 2000.07,438.557 2004.03,438.557 2004.03,419.115 2008,419.115 2008,398.681 2011.96,398.681 2011.96,377.482 2015.93,377.482 2015.93,355.754 2019.89,355.754 2019.89,333.737 2023.85,333.737 2023.85,311.675 2027.82,311.675 2027.82,289.805 2031.78,289.805 2031.78,268.356 2035.75,268.356 2035.75,247.544 2039.71,247.544 2039.71,227.567 2043.67,227.567 2043.67,208.605 2047.64,208.605 2047.64,190.811 2051.6,190.811 2051.6,174.317 2055.57,174.317 2055.57,159.222 2059.53,159.222 2059.53,145.602 2063.49,145.602 2063.49,133.499 2067.46,133.499 2067.46,122.928 2071.42,122.928 2071.42,113.875 2075.39,113.875 2075.39,106.297 2079.35,106.297 2079.35,100.128 2083.32,100.128 2083.32,95.2735 2087.28,95.2735 2087.28,91.6218 2091.24,91.6218 2091.24,89.0404 2095.21,89.0404 2095.21,87.3818 2099.17,87.3818 2099.17,86.4863 2103.14,86.4863 2103.14,86.1857 2107.1,86.1857 2107.1,86.3065 2111.06,86.3065 2111.06,86.6738 2115.03,86.6738 2115.03,87.1146 2118.99,87.1146 2118.99,87.4611 2122.96,87.4611 2122.96,87.5538 2126.92,87.5538 2126.92,145.578 2130.88,145.578 2130.88,201.347 2134.85,201.347 2134.85,254.247 2138.81,254.247 2138.81,303.732 2142.78,303.732 2142.78,349.338 2146.74,349.338 2146.74,390.685 2150.7,390.685 2150.7,427.484 2154.67,427.484 2154.67,459.541 2158.63,459.541 2158.63,486.757 2162.6,486.757 2162.6,509.126 2166.56,509.126 2166.56,468.402 2170.53,468.402 2170.53,424.811 2174.49,424.811 2174.49,379.104 2178.45,379.104 2178.45,332.054 2182.42,332.054 2182.42,284.44 2186.38,284.44 2186.38,295.363 2190.35,295.363 2190.35,305.517 2194.31,305.517 2194.31,315.108 2198.27,315.108 2198.27,324.347 2202.24,324.347 2202.24,333.439 2206.2,333.439 2206.2,342.583 2210.17,342.583 2210.17,351.968 2214.13,351.968 2214.13,361.768 2218.09,361.768 2218.09,372.141 2222.06,372.141 2222.06,383.225 2226.02,383.225 2226.02,395.137 2229.99,395.137 2229.99,407.969 2233.95,407.969 2233.95,421.79 2237.92,421.79 2237.92,436.644 2241.88,436.644 2241.88,452.55 2245.84,452.55 2245.84,469.502 2249.81,469.502 2249.81,487.47 2253.77,487.47 2253.77,506.403 2257.74,506.403 2257.74,526.227 2261.7,526.227 2261.7,546.851 2265.66,546.851 2265.66,568.167 2269.63,568.167 2269.63,590.054 2273.59,590.054 2273.59,612.38 2277.56,612.38 2277.56,635.004 2281.52,635.004 2281.52,657.782 2285.48,657.782 2285.48,680.568 2289.45,680.568 2289.45,703.215 2293.41,703.215 2293.41,725.582 "/>
<polyline clip-path="url(#clip252)" style="stroke:#e26f46; stroke-linecap:round; stroke-linejoin:round; stroke-width:4; stroke-opacity:1; fill:none" points="315.32,777.541 319.284,460.229 323.248,491.315 327.212,535.572 331.176,579.078 335.141,621.182 339.105,661.789 343.069,700.833 347.033,738.256 350.997,774.011 354.961,808.056 358.925,840.356 362.889,870.884 366.853,899.62 370.818,926.55 374.782,951.667 378.746,974.97 382.71,996.462 386.674,1016.16 390.638,1034.06 394.602,1050.21 398.566,1064.76 402.53,1019.29 406.495,972.693 410.459,927.482 414.423,883.839 418.387,841.692 422.351,859.563 426.315,878.646 430.279,896.51 434.243,913.057 438.208,928.286 442.172,942.206 446.136,954.83 450.1,966.174 454.064,976.257 458.028,985.247 461.992,934.712 465.956,883.54 469.92,834.239 473.885,786.982 477.849,741.688 481.813,756.869 485.777,773.707 489.741,789.76 493.705,804.915 497.669,819.159 501.633,832.486 505.597,844.892 509.562,856.38 513.526,866.951 517.49,876.757 521.454,827.349 525.418,777.598 529.382,729.995 533.346,684.695 537.31,641.744 541.275,601.18 545.239,563.026 549.203,527.3 553.167,494.011 557.131,463.013 561.095,492.757 565.059,524.368 569.023,555.347 572.987,585.526 576.952,614.841 580.916,643.234 584.88,670.656 588.844,697.061 592.808,722.408 596.772,746.664 600.736,769.798 604.7,791.785 608.664,812.605 612.629,832.242 616.593,850.685 620.557,867.927 624.521,883.965 628.485,898.801 632.449,912.439 636.413,925.033 640.377,878.138 644.341,830.627 648.306,784.998 652.27,741.409 656.234,699.915 660.198,660.556 664.162,623.367 668.126,588.37 672.09,555.583 676.054,525.014 680.019,496.664 683.983,470.527 687.947,446.589 691.911,424.832 695.875,405.086 699.839,445.776 703.803,488.006 707.767,529.257 711.731,569.344 715.696,608.187 719.66,645.714 723.624,681.864 727.588,716.581 731.552,749.816 735.516,781.672 739.48,753.658 743.444,724.604 747.408,696.966 751.373,670.865 755.337,646.322 759.301,623.347 763.265,601.947 767.229,582.12 771.193,563.861 775.157,547.016 779.121,590.028 783.085,634.017 787.05,676.484 791.014,717.265 794.978,756.442 798.942,735.509 802.906,713.287 806.87,692.218 810.834,672.416 814.798,653.748 818.763,694.675 822.727,736.336 826.691,776.249 830.655,814.268 834.619,850.349 838.583,884.462 842.547,916.583 846.511,946.697 850.475,974.794 854.44,1000.87 858.404,1024.94 862.368,1047 866.332,1067.08 870.296,1085.19 874.26,1101.37 878.224,1115.64 882.188,1128.05 886.152,1138.63 890.117,1147.44 894.081,1154.66 898.045,1101.89 902.009,1048.05 905.973,995.667 909.937,944.948 913.901,895.984 917.865,848.855 921.829,803.632 925.794,760.376 929.758,719.14 933.722,679.822 937.686,700.916 941.65,723.588 945.614,745.381 949.578,766.168 953.542,786.067 957.507,746.602 961.471,706.618 965.435,668.584 969.399,632.631 973.363,598.643 977.327,625.094 981.291,653.132 985.255,680.282 989.219,706.4 993.184,731.589 997.148,697.357 1001.11,662.536 1005.08,629.581 1009.04,598.61 1013,569.641 1016.97,542.678 1020.93,517.72 1024.9,494.76 1028.86,473.784 1032.82,454.628 1036.79,495.724 1040.75,538.183 1044.72,579.493 1048.68,619.476 1052.65,658.059 1056.61,695.178 1060.57,730.78 1064.54,764.816 1068.5,797.246 1072.47,828.181 1076.43,799.136 1080.39,768.952 1084.36,740.09 1088.32,712.682 1092.29,686.61 1096.25,720.351 1100.21,755.057 1104.18,788.259 1108.14,819.82 1112.11,849.853 1116.07,819.876 1120.04,788.733 1124,758.892 1127.96,730.486 1131.93,703.548 1135.89,678.101 1139.86,654.16 1143.82,631.737 1147.78,610.836 1151.75,591.459 1155.71,573.6 1159.68,557.252 1163.64,542.399 1167.6,529.026 1171.57,517.108 1175.53,506.623 1179.5,497.539 1183.46,489.827 1187.43,483.449 1191.39,478.224 1195.35,532.57 1199.32,587.583 1203.28,640.742 1207.25,691.862 1211.21,740.865 1215.17,787.686 1219.14,832.271 1223.1,874.574 1227.07,914.561 1231.03,952.204 1234.99,987.484 1238.96,1020.39 1242.92,1050.93 1246.89,1079.1 1250.85,1104.91 1254.82,1128.39 1258.78,1149.56 1262.74,1168.45 1266.71,1185.11 1270.67,1199.58 1274.64,1211.91 1278.6,1222.14 1282.56,1230.35 1286.53,1236.59 1290.49,1240.92 1294.46,1243.43 1298.42,1244.17 1302.38,1243.22 1306.35,1240.67 1310.31,1236.58 1314.28,1231.04 1318.24,1224.13 1322.21,1215.93 1326.17,1206.52 1330.13,1196.13 1334.1,1126.39 1338.06,1056.23 1342.03,988.227 1345.99,922.586 1349.95,859.421 1353.92,798.827 1357.88,740.885 1361.85,685.666 1365.81,633.226 1369.77,583.467 1373.74,594.883 1377.7,608.638 1381.67,622.27 1385.63,635.644 1389.6,648.726 1393.56,661.485 1397.52,673.896 1401.49,685.934 1405.45,697.576 1409.42,708.948 1413.38,661.574 1417.34,614.298 1421.31,569.584 1425.27,527.559 1429.24,488.098 1433.2,509.669 1437.16,533.408 1441.13,556.829 1445.09,579.775 1449.06,602.335 1453.02,566.002 1456.98,529.591 1460.95,495.54 1464.91,463.949 1468.88,434.817 1472.84,408.129 1476.81,383.864 1480.77,361.995 1484.73,342.486 1488.7,325.298 1492.66,310.383 1496.63,297.691 1500.59,287.166 1504.55,278.746 1508.52,272.366 1512.48,267.959 1516.45,265.452 1520.41,264.77 1524.37,265.837 1528.34,268.572 1532.3,272.894 1536.27,278.72 1540.23,285.966 1544.2,294.547 1548.16,304.233 1552.12,373.395 1556.09,443.088 1560.05,510.748 1564.02,576.153 1567.98,639.188 1571.94,699.755 1575.91,757.768 1579.87,813.152 1583.84,865.845 1587.8,915.941 1591.76,904.942 1595.73,891.679 1599.69,878.609 1603.66,865.862 1607.62,853.323 1611.59,899.474 1615.55,945.477 1619.51,988.875 1623.48,1029.55 1627.44,1067.48 1631.41,1102.67 1635.37,1135.12 1639.33,1164.85 1643.3,1191.89 1647.26,1216.26 1651.23,1238 1655.19,1257.16 1659.15,1273.79 1663.12,1287.94 1667.08,1299.83 1671.05,1251.06 1675.01,1200.57 1678.98,1150.91 1682.94,1102.29 1686.9,1054.83 1690.87,1008.64 1694.83,963.796 1698.8,920.394 1702.76,878.507 1706.72,838.203 1710.69,799.541 1714.65,762.573 1718.62,727.344 1722.58,693.89 1726.54,662.097 1730.51,690.444 1734.47,720.087 1738.44,748.558 1742.4,775.721 1746.37,801.688 1750.33,767.977 1754.29,733.428 1758.26,700.507 1762.22,669.341 1766.19,639.815 1770.15,670.401 1774.11,702.25 1778.08,732.888 1782.04,762.173 1786.01,790.214 1789.97,758.522 1793.93,725.935 1797.9,694.913 1801.86,665.583 1805.83,637.969 1809.79,612.083 1813.76,587.935 1817.72,565.524 1821.68,544.847 1825.65,525.75 1829.61,566.676 1833.58,608.745 1837.54,649.457 1841.5,688.644 1845.47,726.244 1849.43,762.207 1853.4,796.487 1857.36,829.05 1861.32,859.865 1865.29,889.056 1869.25,858.149 1873.22,825.994 1877.18,795.066 1881.15,765.505 1885.11,737.351 1889.07,710.632 1893.04,685.371 1897,661.585 1900.97,639.286 1904.93,618.48 1908.89,599.169 1912.86,581.35 1916.82,565.014 1920.79,550.148 1924.75,536.737 1928.71,524.76 1932.68,514.192 1936.64,505.007 1940.61,497.172 1944.57,490.654 1948.54,485.417 1952.5,481.422 1956.46,478.626 1960.43,476.988 1964.39,476.461 1968.36,476.999 1972.32,478.554 1976.28,481.077 1980.25,484.517 1984.21,488.823 1988.18,493.944 1992.14,499.827 1996.1,506.422 2000.07,513.676 2004.03,521.536 2008,529.952 2011.96,538.872 2015.93,548.246 2019.89,558.024 2023.85,568.157 2027.82,578.598 2031.78,589.299 2035.75,600.216 2039.71,611.303 2043.67,622.518 2047.64,633.819 2051.6,645.168 2055.57,656.524 2059.53,667.852 2063.49,679.117 2067.46,690.286 2071.42,701.326 2075.39,712.209 2079.35,722.906 2083.32,733.392 2087.28,743.641 2091.24,753.632 2095.21,763.344 2099.17,772.758 2103.14,781.857 2107.1,790.626 2111.06,799.05 2115.03,807.118 2118.99,814.821 2122.96,822.003 2126.92,887.117 2130.88,951.296 2134.85,1012.06 2138.81,1069.27 2142.78,1122.88 2146.74,1172.9 2150.7,1219.31 2154.67,1262.12 2158.63,1301.35 2162.6,1337.18 2166.56,1311.19 2170.53,1282.29 2174.49,1253.02 2178.45,1223.58 2182.42,1193.94 2186.38,1222.64 2190.35,1250.92 2194.31,1276.39 2198.27,1299 2202.24,1318.79 2206.2,1335.83 2210.17,1350.18 2214.13,1361.91 2218.09,1371.09 2222.06,1377.82 2226.02,1382.17 2229.99,1384.24 2233.95,1384.11 2237.92,1381.89 2241.88,1377.67 2245.84,1371.55 2249.81,1363.64 2253.77,1354.04 2257.74,1342.85 2261.7,1330.17 2265.66,1316.12 2269.63,1300.8 2273.59,1284.31 2277.56,1266.75 2281.52,1248.24 2285.48,1228.86 2289.45,1208.72 2293.41,1187.92 "/>
<polyline clip-path="url(#clip252)" style="stroke:#3da44d; stroke-linecap:round; stroke-linejoin:round; stroke-width:4; stroke-opacity:1; fill:none" points="315.32,764.449 319.284,764.449 323.248,793.616 327.212,821.923 331.176,849.123 335.141,874.994 339.105,899.342 343.069,922.009 347.033,942.871 350.997,961.84 354.961,978.865 358.925,993.933 362.889,1007.07 366.853,1018.32 370.818,1027.79 374.782,1035.59 378.746,1041.88 382.71,1046.81 386.674,1050.58 390.638,1053.39 394.602,1055.46 398.566,1057.01 402.53,999.924 406.495,944.471 410.459,891.361 414.423,841.238 418.387,794.673 422.351,810.485 426.315,829.018 430.279,850.075 434.243,873.413 438.208,898.748 442.172,925.765 446.136,954.119 450.1,983.451 454.064,1013.39 458.028,1043.55 461.992,1015.24 465.956,988.147 469.92,962.425 473.885,938.202 477.849,915.575 481.813,952.945 485.777,990.293 489.741,1027.13 493.705,1062.98 497.669,1097.41 501.633,1130.01 505.597,1160.43 509.562,1188.36 513.526,1213.57 517.49,1235.84 521.454,1196.73 525.418,1156.22 529.382,1114.79 533.346,1072.95 537.31,1031.19 541.275,989.987 545.239,949.806 549.203,911.075 553.167,874.184 557.131,839.481 561.095,865.595 565.059,892.719 569.023,920.538 572.987,948.736 576.952,976.991 580.916,1004.99 584.88,1032.43 588.844,1059.03 592.808,1084.53 596.772,1108.69 600.736,1131.3 604.7,1152.21 608.664,1171.27 612.629,1188.39 616.593,1203.51 620.557,1216.62 624.521,1227.73 628.485,1236.91 632.449,1244.24 636.413,1249.84 640.377,1195.54 644.341,1141.56 648.306,1088.58 652.27,1037.28 656.234,988.247 660.198,942.036 664.162,899.126 668.126,859.92 672.09,824.74 676.054,793.824 680.019,767.321 683.983,745.292 687.947,727.713 691.911,714.475 695.875,705.39 699.839,758.532 703.803,813.522 707.767,869.48 711.731,925.531 715.696,980.819 719.66,1034.53 723.624,1085.89 727.588,1134.22 731.552,1178.89 735.516,1219.36 739.48,1196.87 743.444,1171.14 747.408,1142.43 751.373,1111.07 755.337,1077.42 759.301,1041.88 763.265,1004.9 767.229,966.917 771.193,928.4 775.157,889.809 779.121,909.929 783.085,929.144 787.05,947.366 791.014,964.526 794.978,980.577 798.942,937.158 802.906,894.314 806.87,852.555 810.834,812.357 814.798,774.158 818.763,796.674 822.727,820.187 826.691,844.47 830.655,869.285 834.619,894.391 838.583,919.542 842.547,944.497 846.511,969.026 850.475,992.907 854.44,1015.94 858.404,1037.94 862.368,1058.75 866.332,1078.23 870.296,1096.29 874.26,1112.83 878.224,1127.82 882.188,1141.24 886.152,1153.1 890.117,1163.44 894.081,1172.32 898.045,1121.5 902.009,1071.15 905.973,1021.89 909.937,974.314 913.901,928.971 917.865,886.346 921.829,846.862 925.794,810.873 929.758,778.653 933.722,750.402 937.686,784.569 941.65,821.139 945.614,859.573 949.578,899.307 953.542,939.768 957.507,922.049 961.471,905.638 965.435,890.492 969.399,876.549 973.363,863.725 977.327,910.255 981.291,955.975 985.255,1000.26 989.219,1042.55 993.184,1082.3 997.148,1060.73 1001.11,1037.49 1005.08,1012.78 1009.04,986.793 1013,959.769 1016.97,931.954 1020.93,903.606 1024.9,874.991 1028.86,846.376 1032.82,818.02 1036.79,848.508 1040.75,878.026 1044.72,906.293 1048.68,933.063 1052.65,958.119 1056.61,981.284 1060.57,1002.42 1064.54,1021.44 1068.5,1038.27 1072.47,1052.92 1076.43,1007.07 1080.39,960.841 1084.36,914.841 1088.32,869.649 1092.29,825.818 1096.25,842.192 1100.21,859.185 1104.18,876.705 1108.14,894.653 1112.11,912.92 1116.07,873.06 1120.04,835.006 1124,799.138 1127.96,765.783 1131.93,735.214 1135.89,707.641 1139.86,683.216 1143.82,662.024 1147.78,644.089 1151.75,629.373 1155.71,617.778 1159.68,609.151 1163.64,603.288 1167.6,599.938 1171.57,598.814 1175.53,599.593 1179.5,601.93 1183.46,605.459 1187.43,609.808 1191.39,614.598 1195.35,677.792 1199.32,738.98 1203.28,797.323 1207.25,852.063 1211.21,902.531 1215.17,948.157 1219.14,988.482 1223.1,1023.16 1227.07,1051.97 1231.03,1074.81 1234.99,1091.67 1238.96,1102.69 1242.92,1108.11 1246.89,1108.25 1250.85,1103.55 1254.82,1094.5 1258.78,1081.68 1262.74,1065.72 1266.71,1047.29 1270.67,1027.08 1274.64,1005.8 1278.6,984.151 1282.56,962.823 1286.53,942.475 1290.49,923.724 1294.46,907.137 1298.42,893.216 1302.38,882.397 1306.35,875.037 1310.31,871.413 1314.28,871.718 1318.24,876.06 1322.21,884.462 1326.17,896.864 1330.13,913.126 1334.1,874.702 1338.06,841.362 1342.03,813.264 1345.99,790.458 1349.95,772.893 1353.92,760.422 1357.88,752.803 1361.85,749.709 1365.81,750.739 1369.77,755.425 1373.74,821.576 1377.7,888.576 1381.67,955.33 1385.63,1020.78 1389.6,1083.92 1393.56,1143.83 1397.52,1199.65 1401.49,1250.65 1405.45,1296.2 1409.42,1335.81 1413.38,1310.76 1417.34,1280.86 1421.31,1246.51 1425.27,1208.18 1429.24,1166.41 1433.2,1180.12 1437.16,1189.89 1441.13,1195.9 1445.09,1198.38 1449.06,1197.61 1453.02,1135.62 1456.98,1072.84 1460.95,1010.2 1464.91,948.592 1468.88,888.871 1472.84,831.83 1476.81,778.189 1480.77,728.584 1484.73,683.555 1488.7,643.54 1492.66,608.869 1496.63,579.759 1500.59,556.315 1504.55,538.53 1508.52,526.289 1512.48,519.376 1516.45,517.475 1520.41,520.189 1524.37,527.042 1528.34,537.494 1532.3,550.952 1536.27,566.786 1540.23,584.339 1544.2,602.944 1548.16,621.935 1552.12,698.992 1556.09,773.441 1560.05,844.199 1564.02,910.284 1567.98,970.835 1571.94,1025.12 1575.91,1072.55 1579.87,1112.68 1583.84,1145.23 1587.8,1170.06 1591.76,1128.87 1595.73,1081.87 1599.69,1029.87 1603.66,973.747 1607.62,914.452 1611.59,911.291 1615.55,905.211 1619.51,896.706 1623.48,886.303 1627.44,874.546 1631.41,861.989 1635.37,849.18 1639.33,836.655 1643.3,824.925 1647.26,814.468 1651.23,805.719 1655.19,799.065 1659.15,794.837 1663.12,793.307 1667.08,794.683 1671.05,740.772 1675.01,691.702 1678.98,647.978 1682.94,609.988 1686.9,578.001 1690.87,552.162 1694.83,532.492 1698.8,518.895 1702.76,511.162 1706.72,508.976 1710.69,511.923 1714.65,519.506 1718.62,531.151 1722.58,546.227 1726.54,564.053 1730.51,642.255 1734.47,720.053 1738.44,796.224 1742.4,869.608 1746.37,939.131 1750.33,945.493 1754.29,947.897 1758.26,946.125 1762.22,940.053 1766.19,929.645 1770.15,973.29 1774.11,1011.08 1778.08,1042.73 1782.04,1068.09 1786.01,1087.14 1789.97,1041.65 1793.93,991.867 1797.9,938.622 1801.86,882.776 1805.83,825.225 1809.79,766.871 1813.76,708.612 1817.72,651.317 1821.68,595.814 1825.65,542.875 1829.61,551.532 1833.58,562.354 1837.54,575.37 1841.5,590.562 1845.47,607.867 1849.43,627.18 1853.4,648.356 1857.36,671.214 1861.32,695.544 1865.29,721.11 1869.25,689.321 1873.22,659.959 1877.18,633.239 1881.15,609.324 1885.11,588.318 1889.07,570.268 1893.04,555.164 1897,542.941 1900.97,533.482 1904.93,526.623 1908.89,522.156 1912.86,519.832 1916.82,519.374 1920.79,520.476 1924.75,522.814 1928.71,526.052 1932.68,529.85 1936.64,533.866 1940.61,537.769 1944.57,541.243 1948.54,543.99 1952.5,545.739 1956.46,546.248 1960.43,545.31 1964.39,542.755 1968.36,538.45 1972.32,532.306 1976.28,524.272 1980.25,514.339 1984.21,502.539 1988.18,488.941 1992.14,473.648 1996.1,456.798 2000.07,438.557 2004.03,419.115 2008,398.681 2011.96,377.482 2015.93,355.754 2019.89,333.737 2023.85,311.675 2027.82,289.805 2031.78,268.356 2035.75,247.544 2039.71,227.567 2043.67,208.605 2047.64,190.811 2051.6,174.317 2055.57,159.222 2059.53,145.602 2063.49,133.499 2067.46,122.928 2071.42,113.875 2075.39,106.297 2079.35,100.128 2083.32,95.2735 2087.28,91.6218 2091.24,89.0404 2095.21,87.3818 2099.17,86.4863 2103.14,86.1857 2107.1,86.3065 2111.06,86.6738 2115.03,87.1146 2118.99,87.4611 2122.96,87.5538 2126.92,145.578 2130.88,201.347 2134.85,254.247 2138.81,303.732 2142.78,349.338 2146.74,390.685 2150.7,427.484 2154.67,459.541 2158.63,486.757 2162.6,509.126 2166.56,468.402 2170.53,424.811 2174.49,379.104 2178.45,332.054 2182.42,284.44 2186.38,295.363 2190.35,305.517 2194.31,315.108 2198.27,324.347 2202.24,333.439 2206.2,342.583 2210.17,351.968 2214.13,361.768 2218.09,372.141 2222.06,383.225 2226.02,395.137 2229.99,407.969 2233.95,421.79 2237.92,436.644 2241.88,452.55 2245.84,469.502 2249.81,487.47 2253.77,506.403 2257.74,526.227 2261.7,546.851 2265.66,568.167 2269.63,590.054 2273.59,612.38 2277.56,635.004 2281.52,657.782 2285.48,680.568 2289.45,703.215 2293.41,725.582 "/>
<path clip-path="url(#clip250)" d="M325.87 300.469 L1442.86 300.469 L1442.86 93.1086 L325.87 93.1086  Z" fill="#ffffff" fill-rule="evenodd" fill-opacity="1"/>
<polyline clip-path="url(#clip250)" style="stroke:#000000; stroke-linecap:round; stroke-linejoin:round; stroke-width:4; stroke-opacity:1; fill:none" points="325.87,300.469 1442.86,300.469 1442.86,93.1086 325.87,93.1086 325.87,300.469 "/>
<polyline clip-path="url(#clip250)" style="stroke:#009af9; stroke-linecap:round; stroke-linejoin:round; stroke-width:4; stroke-opacity:1; fill:none" points="349.167,144.949 488.953,144.949 "/>
<path clip-path="url(#clip250)" d="M516.926 131.511 L516.926 158.386 L522.574 158.386 Q529.727 158.386 533.037 155.145 Q536.37 151.905 536.37 144.914 Q536.37 137.969 533.037 134.752 Q529.727 131.511 522.574 131.511 L516.926 131.511 M512.25 127.669 L521.857 127.669 Q531.903 127.669 536.602 131.858 Q541.301 136.025 541.301 144.914 Q541.301 153.849 536.579 158.039 Q531.857 162.229 521.857 162.229 L512.25 162.229 L512.25 127.669 Z" fill="#000000" fill-rule="nonzero" fill-opacity="1" /><path clip-path="url(#clip250)" d="M560.352 149.196 Q555.19 149.196 553.199 150.377 Q551.208 151.557 551.208 154.405 Q551.208 156.673 552.69 158.016 Q554.194 159.335 556.764 159.335 Q560.305 159.335 562.435 156.835 Q564.588 154.312 564.588 150.145 L564.588 149.196 L560.352 149.196 M568.847 147.437 L568.847 162.229 L564.588 162.229 L564.588 158.293 Q563.129 160.655 560.954 161.789 Q558.778 162.9 555.63 162.9 Q551.648 162.9 549.287 160.678 Q546.949 158.432 546.949 154.682 Q546.949 150.307 549.866 148.085 Q552.805 145.863 558.616 145.863 L564.588 145.863 L564.588 145.446 Q564.588 142.507 562.643 140.909 Q560.722 139.289 557.227 139.289 Q555.005 139.289 552.898 139.821 Q550.792 140.354 548.847 141.419 L548.847 137.483 Q551.185 136.581 553.384 136.141 Q555.583 135.678 557.667 135.678 Q563.292 135.678 566.069 138.594 Q568.847 141.511 568.847 147.437 Z" fill="#000000" fill-rule="nonzero" fill-opacity="1" /><path clip-path="url(#clip250)" d="M581.833 128.942 L581.833 136.303 L590.606 136.303 L590.606 139.613 L581.833 139.613 L581.833 153.687 Q581.833 156.858 582.69 157.761 Q583.569 158.664 586.231 158.664 L590.606 158.664 L590.606 162.229 L586.231 162.229 Q581.301 162.229 579.426 160.4 Q577.551 158.548 577.551 153.687 L577.551 139.613 L574.426 139.613 L574.426 136.303 L577.551 136.303 L577.551 128.942 L581.833 128.942 Z" fill="#000000" fill-rule="nonzero" fill-opacity="1" /><path clip-path="url(#clip250)" d="M607.99 149.196 Q602.828 149.196 600.838 150.377 Q598.847 151.557 598.847 154.405 Q598.847 156.673 600.328 158.016 Q601.833 159.335 604.402 159.335 Q607.944 159.335 610.074 156.835 Q612.226 154.312 612.226 150.145 L612.226 149.196 L607.99 149.196 M616.486 147.437 L616.486 162.229 L612.226 162.229 L612.226 158.293 Q610.768 160.655 608.592 161.789 Q606.416 162.9 603.268 162.9 Q599.287 162.9 596.926 160.678 Q594.588 158.432 594.588 154.682 Q594.588 150.307 597.504 148.085 Q600.444 145.863 606.254 145.863 L612.226 145.863 L612.226 145.446 Q612.226 142.507 610.282 140.909 Q608.361 139.289 604.865 139.289 Q602.643 139.289 600.537 139.821 Q598.43 140.354 596.486 141.419 L596.486 137.483 Q598.824 136.581 601.023 136.141 Q603.222 135.678 605.305 135.678 Q610.93 135.678 613.708 138.594 Q616.486 141.511 616.486 147.437 Z" fill="#000000" fill-rule="nonzero" fill-opacity="1" /><polyline clip-path="url(#clip250)" style="stroke:#e26f46; stroke-linecap:round; stroke-linejoin:round; stroke-width:4; stroke-opacity:1; fill:none" points="349.167,196.789 488.953,196.789 "/>
<path clip-path="url(#clip250)" d="M528.083 184.115 L521.741 201.314 L534.449 201.314 L528.083 184.115 M525.445 179.509 L530.745 179.509 L543.917 214.069 L539.056 214.069 L535.907 205.203 L520.329 205.203 L517.181 214.069 L512.25 214.069 L525.445 179.509 Z" fill="#000000" fill-rule="nonzero" fill-opacity="1" /><path clip-path="url(#clip250)" d="M565.352 197.865 Q566.856 198.374 568.268 200.041 Q569.704 201.708 571.139 204.624 L575.884 214.069 L570.861 214.069 L566.44 205.203 Q564.727 201.731 563.106 200.596 Q561.509 199.462 558.731 199.462 L553.639 199.462 L553.639 214.069 L548.963 214.069 L548.963 179.509 L559.518 179.509 Q565.444 179.509 568.361 181.985 Q571.278 184.462 571.278 189.462 Q571.278 192.726 569.75 194.879 Q568.245 197.032 565.352 197.865 M553.639 183.351 L553.639 195.62 L559.518 195.62 Q562.898 195.62 564.611 194.069 Q566.347 192.495 566.347 189.462 Q566.347 186.43 564.611 184.902 Q562.898 183.351 559.518 183.351 L553.639 183.351 Z" fill="#000000" fill-rule="nonzero" fill-opacity="1" /><path clip-path="url(#clip250)" d="M580.236 179.509 L585.259 179.509 L593.847 192.356 L602.481 179.509 L607.504 179.509 L596.393 196.106 L608.245 214.069 L603.222 214.069 L593.5 199.37 L583.708 214.069 L578.662 214.069 L591 195.62 L580.236 179.509 Z" fill="#000000" fill-rule="nonzero" fill-opacity="1" /><path clip-path="url(#clip250)" d="M649.448 193.12 Q651.046 190.249 653.268 188.884 Q655.49 187.518 658.499 187.518 Q662.55 187.518 664.749 190.365 Q666.948 193.189 666.948 198.421 L666.948 214.069 L662.666 214.069 L662.666 198.559 Q662.666 194.833 661.347 193.027 Q660.027 191.222 657.319 191.222 Q654.009 191.222 652.087 193.421 Q650.166 195.62 650.166 199.416 L650.166 214.069 L645.884 214.069 L645.884 198.559 Q645.884 194.809 644.564 193.027 Q643.245 191.222 640.49 191.222 Q637.226 191.222 635.305 193.444 Q633.384 195.643 633.384 199.416 L633.384 214.069 L629.101 214.069 L629.101 188.143 L633.384 188.143 L633.384 192.171 Q634.842 189.786 636.879 188.652 Q638.916 187.518 641.717 187.518 Q644.541 187.518 646.509 188.953 Q648.499 190.388 649.448 193.12 Z" fill="#000000" fill-rule="nonzero" fill-opacity="1" /><path clip-path="url(#clip250)" d="M685.49 191.129 Q682.064 191.129 680.073 193.814 Q678.083 196.476 678.083 201.129 Q678.083 205.782 680.05 208.467 Q682.041 211.129 685.49 211.129 Q688.893 211.129 690.883 208.444 Q692.874 205.758 692.874 201.129 Q692.874 196.522 690.883 193.837 Q688.893 191.129 685.49 191.129 M685.49 187.518 Q691.045 187.518 694.217 191.129 Q697.388 194.74 697.388 201.129 Q697.388 207.495 694.217 211.129 Q691.045 214.74 685.49 214.74 Q679.911 214.74 676.74 211.129 Q673.592 207.495 673.592 201.129 Q673.592 194.74 676.74 191.129 Q679.911 187.518 685.49 187.518 Z" fill="#000000" fill-rule="nonzero" fill-opacity="1" /><path clip-path="url(#clip250)" d="M721.508 192.078 L721.508 178.05 L725.768 178.05 L725.768 214.069 L721.508 214.069 L721.508 210.18 Q720.166 212.495 718.106 213.629 Q716.068 214.74 713.198 214.74 Q708.499 214.74 705.536 210.99 Q702.596 207.24 702.596 201.129 Q702.596 195.018 705.536 191.268 Q708.499 187.518 713.198 187.518 Q716.068 187.518 718.106 188.652 Q720.166 189.763 721.508 192.078 M706.994 201.129 Q706.994 205.828 708.916 208.513 Q710.86 211.175 714.24 211.175 Q717.619 211.175 719.564 208.513 Q721.508 205.828 721.508 201.129 Q721.508 196.43 719.564 193.768 Q717.619 191.083 714.24 191.083 Q710.86 191.083 708.916 193.768 Q706.994 196.43 706.994 201.129 Z" fill="#000000" fill-rule="nonzero" fill-opacity="1" /><path clip-path="url(#clip250)" d="M756.716 200.041 L756.716 202.124 L737.133 202.124 Q737.411 206.522 739.772 208.837 Q742.156 211.129 746.392 211.129 Q748.846 211.129 751.138 210.527 Q753.453 209.925 755.721 208.721 L755.721 212.749 Q753.429 213.721 751.022 214.231 Q748.615 214.74 746.138 214.74 Q739.934 214.74 736.3 211.129 Q732.689 207.518 732.689 201.36 Q732.689 194.995 736.115 191.268 Q739.564 187.518 745.397 187.518 Q750.628 187.518 753.661 190.897 Q756.716 194.254 756.716 200.041 M752.457 198.791 Q752.411 195.296 750.49 193.212 Q748.591 191.129 745.443 191.129 Q741.879 191.129 739.726 193.143 Q737.596 195.157 737.272 198.814 L752.457 198.791 Z" fill="#000000" fill-rule="nonzero" fill-opacity="1" /><path clip-path="url(#clip250)" d="M763.707 178.05 L767.966 178.05 L767.966 214.069 L763.707 214.069 L763.707 178.05 Z" fill="#000000" fill-rule="nonzero" fill-opacity="1" /><path clip-path="url(#clip250)" d="M808.475 188.907 L808.475 192.934 Q806.67 192.009 804.725 191.546 Q802.781 191.083 800.698 191.083 Q797.526 191.083 795.929 192.055 Q794.355 193.027 794.355 194.971 Q794.355 196.453 795.489 197.309 Q796.624 198.143 800.05 198.907 L801.508 199.231 Q806.045 200.203 807.943 201.985 Q809.864 203.745 809.864 206.916 Q809.864 210.527 806.994 212.633 Q804.147 214.74 799.147 214.74 Q797.063 214.74 794.795 214.323 Q792.55 213.93 790.05 213.12 L790.05 208.721 Q792.411 209.948 794.702 210.573 Q796.994 211.175 799.239 211.175 Q802.249 211.175 803.869 210.157 Q805.489 209.115 805.489 207.24 Q805.489 205.504 804.309 204.578 Q803.151 203.652 799.193 202.796 L797.712 202.448 Q793.753 201.615 791.994 199.902 Q790.235 198.166 790.235 195.157 Q790.235 191.499 792.827 189.509 Q795.42 187.518 800.188 187.518 Q802.55 187.518 804.633 187.865 Q806.716 188.212 808.475 188.907 Z" fill="#000000" fill-rule="nonzero" fill-opacity="1" /><path clip-path="url(#clip250)" d="M816.647 188.143 L820.906 188.143 L820.906 214.069 L816.647 214.069 L816.647 188.143 M816.647 178.05 L820.906 178.05 L820.906 183.444 L816.647 183.444 L816.647 178.05 Z" fill="#000000" fill-rule="nonzero" fill-opacity="1" /><path clip-path="url(#clip250)" d="M850.003 193.12 Q851.6 190.249 853.822 188.884 Q856.045 187.518 859.054 187.518 Q863.105 187.518 865.304 190.365 Q867.503 193.189 867.503 198.421 L867.503 214.069 L863.22 214.069 L863.22 198.559 Q863.22 194.833 861.901 193.027 Q860.582 191.222 857.873 191.222 Q854.563 191.222 852.642 193.421 Q850.721 195.62 850.721 199.416 L850.721 214.069 L846.438 214.069 L846.438 198.559 Q846.438 194.809 845.119 193.027 Q843.799 191.222 841.045 191.222 Q837.781 191.222 835.86 193.444 Q833.938 195.643 833.938 199.416 L833.938 214.069 L829.656 214.069 L829.656 188.143 L833.938 188.143 L833.938 192.171 Q835.397 189.786 837.434 188.652 Q839.471 187.518 842.272 187.518 Q845.096 187.518 847.063 188.953 Q849.054 190.388 850.003 193.12 Z" fill="#000000" fill-rule="nonzero" fill-opacity="1" /><path clip-path="url(#clip250)" d="M904.192 178.05 L904.192 181.592 L900.118 181.592 Q897.827 181.592 896.924 182.518 Q896.044 183.444 896.044 185.851 L896.044 188.143 L903.058 188.143 L903.058 191.453 L896.044 191.453 L896.044 214.069 L891.762 214.069 L891.762 191.453 L887.688 191.453 L887.688 188.143 L891.762 188.143 L891.762 186.337 Q891.762 182.009 893.776 180.041 Q895.79 178.05 900.165 178.05 L904.192 178.05 Z" fill="#000000" fill-rule="nonzero" fill-opacity="1" /><path clip-path="url(#clip250)" d="M907.757 188.143 L912.017 188.143 L912.017 214.069 L907.757 214.069 L907.757 188.143 M907.757 178.05 L912.017 178.05 L912.017 183.444 L907.757 183.444 L907.757 178.05 Z" fill="#000000" fill-rule="nonzero" fill-opacity="1" /><path clip-path="url(#clip250)" d="M925.141 180.782 L925.141 188.143 L933.915 188.143 L933.915 191.453 L925.141 191.453 L925.141 205.527 Q925.141 208.698 925.998 209.601 Q926.878 210.504 929.54 210.504 L933.915 210.504 L933.915 214.069 L929.54 214.069 Q924.609 214.069 922.734 212.24 Q920.859 210.388 920.859 205.527 L920.859 191.453 L917.734 191.453 L917.734 188.143 L920.859 188.143 L920.859 180.782 L925.141 180.782 Z" fill="#000000" fill-rule="nonzero" fill-opacity="1" /><path clip-path="url(#clip250)" d="M970.743 208.189 L975.627 208.189 L975.627 214.069 L970.743 214.069 L970.743 208.189 M970.743 189.555 L975.627 189.555 L975.627 195.434 L970.743 195.434 L970.743 189.555 Z" fill="#000000" fill-rule="nonzero" fill-opacity="1" /><path clip-path="url(#clip250)" d="M983.474 199.184 L995.951 199.184 L995.951 202.981 L983.474 202.981 L983.474 199.184 Z" fill="#000000" fill-rule="nonzero" fill-opacity="1" /><path clip-path="url(#clip250)" d="M1017.5 195.434 Q1020.86 196.152 1022.73 198.421 Q1024.63 200.689 1024.63 204.022 Q1024.63 209.138 1021.11 211.939 Q1017.59 214.74 1011.11 214.74 Q1008.94 214.74 1006.62 214.3 Q1004.33 213.883 1001.88 213.027 L1001.88 208.513 Q1003.82 209.647 1006.14 210.226 Q1008.45 210.805 1010.97 210.805 Q1015.37 210.805 1017.66 209.069 Q1019.98 207.333 1019.98 204.022 Q1019.98 200.967 1017.83 199.254 Q1015.7 197.518 1011.88 197.518 L1007.85 197.518 L1007.85 193.675 L1012.06 193.675 Q1015.51 193.675 1017.34 192.309 Q1019.17 190.921 1019.17 188.328 Q1019.17 185.666 1017.27 184.254 Q1015.4 182.819 1011.88 182.819 Q1009.96 182.819 1007.76 183.235 Q1005.56 183.652 1002.92 184.532 L1002.92 180.365 Q1005.58 179.624 1007.9 179.254 Q1010.23 178.884 1012.29 178.884 Q1017.62 178.884 1020.72 181.314 Q1023.82 183.722 1023.82 187.842 Q1023.82 190.712 1022.18 192.703 Q1020.53 194.671 1017.5 195.434 Z" fill="#000000" fill-rule="nonzero" fill-opacity="1" /><path clip-path="url(#clip250)" d="M1033.54 179.509 L1051.9 179.509 L1051.9 183.444 L1037.83 183.444 L1037.83 191.916 Q1038.84 191.569 1039.86 191.407 Q1040.88 191.222 1041.9 191.222 Q1047.69 191.222 1051.07 194.393 Q1054.45 197.564 1054.45 202.981 Q1054.45 208.559 1050.97 211.661 Q1047.5 214.74 1041.18 214.74 Q1039.01 214.74 1036.74 214.37 Q1034.49 213.999 1032.09 213.258 L1032.09 208.559 Q1034.17 209.694 1036.39 210.249 Q1038.61 210.805 1041.09 210.805 Q1045.09 210.805 1047.43 208.698 Q1049.77 206.592 1049.77 202.981 Q1049.77 199.37 1047.43 197.263 Q1045.09 195.157 1041.09 195.157 Q1039.21 195.157 1037.34 195.573 Q1035.49 195.99 1033.54 196.87 L1033.54 179.509 Z" fill="#000000" fill-rule="nonzero" fill-opacity="1" /><path clip-path="url(#clip250)" d="M1063.66 208.189 L1068.54 208.189 L1068.54 214.069 L1063.66 214.069 L1063.66 208.189 Z" fill="#000000" fill-rule="nonzero" fill-opacity="1" /><path clip-path="url(#clip250)" d="M1078.77 179.509 L1097.13 179.509 L1097.13 183.444 L1083.06 183.444 L1083.06 191.916 Q1084.08 191.569 1085.09 191.407 Q1086.11 191.222 1087.13 191.222 Q1092.92 191.222 1096.3 194.393 Q1099.68 197.564 1099.68 202.981 Q1099.68 208.559 1096.21 211.661 Q1092.73 214.74 1086.41 214.74 Q1084.24 214.74 1081.97 214.37 Q1079.72 213.999 1077.32 213.258 L1077.32 208.559 Q1079.4 209.694 1081.62 210.249 Q1083.84 210.805 1086.32 210.805 Q1090.33 210.805 1092.66 208.698 Q1095 206.592 1095 202.981 Q1095 199.37 1092.66 197.263 Q1090.33 195.157 1086.32 195.157 Q1084.45 195.157 1082.57 195.573 Q1080.72 195.99 1078.77 196.87 L1078.77 179.509 Z" fill="#000000" fill-rule="nonzero" fill-opacity="1" /><path clip-path="url(#clip250)" d="M1118.89 197.657 Q1115.56 197.657 1113.64 199.439 Q1111.74 201.221 1111.74 204.346 Q1111.74 207.471 1113.64 209.254 Q1115.56 211.036 1118.89 211.036 Q1122.22 211.036 1124.15 209.254 Q1126.07 207.448 1126.07 204.346 Q1126.07 201.221 1124.15 199.439 Q1122.25 197.657 1118.89 197.657 M1114.21 195.666 Q1111.21 194.925 1109.52 192.865 Q1107.85 190.805 1107.85 187.842 Q1107.85 183.698 1110.79 181.291 Q1113.75 178.884 1118.89 178.884 Q1124.05 178.884 1126.99 181.291 Q1129.93 183.698 1129.93 187.842 Q1129.93 190.805 1128.24 192.865 Q1126.58 194.925 1123.59 195.666 Q1126.97 196.453 1128.84 198.745 Q1130.74 201.036 1130.74 204.346 Q1130.74 209.37 1127.66 212.055 Q1124.61 214.74 1118.89 214.74 Q1113.17 214.74 1110.09 212.055 Q1107.04 209.37 1107.04 204.346 Q1107.04 201.036 1108.94 198.745 Q1110.83 196.453 1114.21 195.666 M1112.5 188.282 Q1112.5 190.967 1114.17 192.472 Q1115.86 193.976 1118.89 193.976 Q1121.9 193.976 1123.59 192.472 Q1125.3 190.967 1125.3 188.282 Q1125.3 185.597 1123.59 184.092 Q1121.9 182.587 1118.89 182.587 Q1115.86 182.587 1114.17 184.092 Q1112.5 185.597 1112.5 188.282 Z" fill="#000000" fill-rule="nonzero" fill-opacity="1" /><path clip-path="url(#clip250)" d="M1168.45 198.86 Q1166.44 198.86 1165.28 200.573 Q1164.14 202.286 1164.14 205.342 Q1164.14 208.351 1165.28 210.087 Q1166.44 211.8 1168.45 211.8 Q1170.42 211.8 1171.55 210.087 Q1172.71 208.351 1172.71 205.342 Q1172.71 202.309 1171.55 200.596 Q1170.42 198.86 1168.45 198.86 M1168.45 195.921 Q1172.11 195.921 1174.26 198.467 Q1176.41 201.013 1176.41 205.342 Q1176.41 209.67 1174.24 212.217 Q1172.08 214.74 1168.45 214.74 Q1164.75 214.74 1162.59 212.217 Q1160.44 209.67 1160.44 205.342 Q1160.44 200.99 1162.59 198.467 Q1164.77 195.921 1168.45 195.921 M1144.56 181.823 Q1142.57 181.823 1141.41 183.56 Q1140.28 185.272 1140.28 188.282 Q1140.28 191.337 1141.41 193.05 Q1142.55 194.763 1144.56 194.763 Q1146.58 194.763 1147.71 193.05 Q1148.87 191.337 1148.87 188.282 Q1148.87 185.296 1147.71 183.56 Q1146.55 181.823 1144.56 181.823 M1165.46 178.884 L1169.17 178.884 L1147.55 214.74 L1143.84 214.74 L1165.46 178.884 M1144.56 178.884 Q1148.22 178.884 1150.39 181.43 Q1152.57 183.953 1152.57 188.282 Q1152.57 192.657 1150.39 195.18 Q1148.24 197.703 1144.56 197.703 Q1140.88 197.703 1138.73 195.18 Q1136.6 192.634 1136.6 188.282 Q1136.6 183.976 1138.75 181.43 Q1140.9 178.884 1144.56 178.884 Z" fill="#000000" fill-rule="nonzero" fill-opacity="1" /><polyline clip-path="url(#clip250)" style="stroke:#3da44d; stroke-linecap:round; stroke-linejoin:round; stroke-width:4; stroke-opacity:1; fill:none" points="349.167,248.629 488.953,248.629 "/>
<path clip-path="url(#clip250)" d="M528.083 235.955 L521.741 253.154 L534.449 253.154 L528.083 235.955 M525.445 231.349 L530.745 231.349 L543.917 265.909 L539.056 265.909 L535.907 257.043 L520.329 257.043 L517.181 265.909 L512.25 265.909 L525.445 231.349 Z" fill="#000000" fill-rule="nonzero" fill-opacity="1" /><path clip-path="url(#clip250)" d="M565.352 249.705 Q566.856 250.214 568.268 251.881 Q569.704 253.548 571.139 256.464 L575.884 265.909 L570.861 265.909 L566.44 257.043 Q564.727 253.571 563.106 252.436 Q561.509 251.302 558.731 251.302 L553.639 251.302 L553.639 265.909 L548.963 265.909 L548.963 231.349 L559.518 231.349 Q565.444 231.349 568.361 233.825 Q571.278 236.302 571.278 241.302 Q571.278 244.566 569.75 246.719 Q568.245 248.872 565.352 249.705 M553.639 235.191 L553.639 247.46 L559.518 247.46 Q562.898 247.46 564.611 245.909 Q566.347 244.335 566.347 241.302 Q566.347 238.27 564.611 236.742 Q562.898 235.191 559.518 235.191 L553.639 235.191 Z" fill="#000000" fill-rule="nonzero" fill-opacity="1" /><path clip-path="url(#clip250)" d="M580.236 231.349 L585.259 231.349 L593.847 244.196 L602.481 231.349 L607.504 231.349 L596.393 247.946 L608.245 265.909 L603.222 265.909 L593.5 251.21 L583.708 265.909 L578.662 265.909 L591 247.46 L580.236 231.349 Z" fill="#000000" fill-rule="nonzero" fill-opacity="1" /><path clip-path="url(#clip250)" d="M649.448 244.96 Q651.046 242.089 653.268 240.724 Q655.49 239.358 658.499 239.358 Q662.55 239.358 664.749 242.205 Q666.948 245.029 666.948 250.261 L666.948 265.909 L662.666 265.909 L662.666 250.399 Q662.666 246.673 661.347 244.867 Q660.027 243.062 657.319 243.062 Q654.009 243.062 652.087 245.261 Q650.166 247.46 650.166 251.256 L650.166 265.909 L645.884 265.909 L645.884 250.399 Q645.884 246.649 644.564 244.867 Q643.245 243.062 640.49 243.062 Q637.226 243.062 635.305 245.284 Q633.384 247.483 633.384 251.256 L633.384 265.909 L629.101 265.909 L629.101 239.983 L633.384 239.983 L633.384 244.011 Q634.842 241.626 636.879 240.492 Q638.916 239.358 641.717 239.358 Q644.541 239.358 646.509 240.793 Q648.499 242.228 649.448 244.96 Z" fill="#000000" fill-rule="nonzero" fill-opacity="1" /><path clip-path="url(#clip250)" d="M685.49 242.969 Q682.064 242.969 680.073 245.654 Q678.083 248.316 678.083 252.969 Q678.083 257.622 680.05 260.307 Q682.041 262.969 685.49 262.969 Q688.893 262.969 690.883 260.284 Q692.874 257.598 692.874 252.969 Q692.874 248.362 690.883 245.677 Q688.893 242.969 685.49 242.969 M685.49 239.358 Q691.045 239.358 694.217 242.969 Q697.388 246.58 697.388 252.969 Q697.388 259.335 694.217 262.969 Q691.045 266.58 685.49 266.58 Q679.911 266.58 676.74 262.969 Q673.592 259.335 673.592 252.969 Q673.592 246.58 676.74 242.969 Q679.911 239.358 685.49 239.358 Z" fill="#000000" fill-rule="nonzero" fill-opacity="1" /><path clip-path="url(#clip250)" d="M721.508 243.918 L721.508 229.89 L725.768 229.89 L725.768 265.909 L721.508 265.909 L721.508 262.02 Q720.166 264.335 718.106 265.469 Q716.068 266.58 713.198 266.58 Q708.499 266.58 705.536 262.83 Q702.596 259.08 702.596 252.969 Q702.596 246.858 705.536 243.108 Q708.499 239.358 713.198 239.358 Q716.068 239.358 718.106 240.492 Q720.166 241.603 721.508 243.918 M706.994 252.969 Q706.994 257.668 708.916 260.353 Q710.86 263.015 714.24 263.015 Q717.619 263.015 719.564 260.353 Q721.508 257.668 721.508 252.969 Q721.508 248.27 719.564 245.608 Q717.619 242.923 714.24 242.923 Q710.86 242.923 708.916 245.608 Q706.994 248.27 706.994 252.969 Z" fill="#000000" fill-rule="nonzero" fill-opacity="1" /><path clip-path="url(#clip250)" d="M756.716 251.881 L756.716 253.964 L737.133 253.964 Q737.411 258.362 739.772 260.677 Q742.156 262.969 746.392 262.969 Q748.846 262.969 751.138 262.367 Q753.453 261.765 755.721 260.561 L755.721 264.589 Q753.429 265.561 751.022 266.071 Q748.615 266.58 746.138 266.58 Q739.934 266.58 736.3 262.969 Q732.689 259.358 732.689 253.2 Q732.689 246.835 736.115 243.108 Q739.564 239.358 745.397 239.358 Q750.628 239.358 753.661 242.737 Q756.716 246.094 756.716 251.881 M752.457 250.631 Q752.411 247.136 750.49 245.052 Q748.591 242.969 745.443 242.969 Q741.879 242.969 739.726 244.983 Q737.596 246.997 737.272 250.654 L752.457 250.631 Z" fill="#000000" fill-rule="nonzero" fill-opacity="1" /><path clip-path="url(#clip250)" d="M763.707 229.89 L767.966 229.89 L767.966 265.909 L763.707 265.909 L763.707 229.89 Z" fill="#000000" fill-rule="nonzero" fill-opacity="1" /><path clip-path="url(#clip250)" d="M789.471 239.983 L793.73 239.983 L799.054 260.214 L804.355 239.983 L809.378 239.983 L814.702 260.214 L820.003 239.983 L824.262 239.983 L817.48 265.909 L812.457 265.909 L806.878 244.659 L801.276 265.909 L796.253 265.909 L789.471 239.983 Z" fill="#000000" fill-rule="nonzero" fill-opacity="1" /><path clip-path="url(#clip250)" d="M830.721 239.983 L834.98 239.983 L834.98 265.909 L830.721 265.909 L830.721 239.983 M830.721 229.89 L834.98 229.89 L834.98 235.284 L830.721 235.284 L830.721 229.89 Z" fill="#000000" fill-rule="nonzero" fill-opacity="1" /><path clip-path="url(#clip250)" d="M848.105 232.622 L848.105 239.983 L856.878 239.983 L856.878 243.293 L848.105 243.293 L848.105 257.367 Q848.105 260.538 848.961 261.441 Q849.841 262.344 852.503 262.344 L856.878 262.344 L856.878 265.909 L852.503 265.909 Q847.572 265.909 845.697 264.08 Q843.822 262.228 843.822 257.367 L843.822 243.293 L840.697 243.293 L840.697 239.983 L843.822 239.983 L843.822 232.622 L848.105 232.622 Z" fill="#000000" fill-rule="nonzero" fill-opacity="1" /><path clip-path="url(#clip250)" d="M884.031 250.261 L884.031 265.909 L879.771 265.909 L879.771 250.399 Q879.771 246.719 878.336 244.89 Q876.901 243.062 874.031 243.062 Q870.582 243.062 868.591 245.261 Q866.6 247.46 866.6 251.256 L866.6 265.909 L862.318 265.909 L862.318 229.89 L866.6 229.89 L866.6 244.011 Q868.128 241.673 870.188 240.515 Q872.271 239.358 874.98 239.358 Q879.447 239.358 881.739 242.136 Q884.031 244.89 884.031 250.261 Z" fill="#000000" fill-rule="nonzero" fill-opacity="1" /><path clip-path="url(#clip250)" d="M924.655 243.918 L924.655 229.89 L928.915 229.89 L928.915 265.909 L924.655 265.909 L924.655 262.02 Q923.313 264.335 921.253 265.469 Q919.216 266.58 916.345 266.58 Q911.646 266.58 908.683 262.83 Q905.743 259.08 905.743 252.969 Q905.743 246.858 908.683 243.108 Q911.646 239.358 916.345 239.358 Q919.216 239.358 921.253 240.492 Q923.313 241.603 924.655 243.918 M910.142 252.969 Q910.142 257.668 912.063 260.353 Q914.007 263.015 917.387 263.015 Q920.766 263.015 922.711 260.353 Q924.655 257.668 924.655 252.969 Q924.655 248.27 922.711 245.608 Q920.766 242.923 917.387 242.923 Q914.007 242.923 912.063 245.608 Q910.142 248.27 910.142 252.969 Z" fill="#000000" fill-rule="nonzero" fill-opacity="1" /><path clip-path="url(#clip250)" d="M959.863 251.881 L959.863 253.964 L940.28 253.964 Q940.558 258.362 942.919 260.677 Q945.303 262.969 949.539 262.969 Q951.993 262.969 954.285 262.367 Q956.6 261.765 958.868 260.561 L958.868 264.589 Q956.576 265.561 954.169 266.071 Q951.762 266.58 949.285 266.58 Q943.081 266.58 939.447 262.969 Q935.836 259.358 935.836 253.2 Q935.836 246.835 939.262 243.108 Q942.711 239.358 948.544 239.358 Q953.776 239.358 956.808 242.737 Q959.863 246.094 959.863 251.881 M955.604 250.631 Q955.558 247.136 953.637 245.052 Q951.739 242.969 948.59 242.969 Q945.026 242.969 942.873 244.983 Q940.743 246.997 940.419 250.654 L955.604 250.631 Z" fill="#000000" fill-rule="nonzero" fill-opacity="1" /><path clip-path="url(#clip250)" d="M966.854 229.89 L971.113 229.89 L971.113 265.909 L966.854 265.909 L966.854 229.89 Z" fill="#000000" fill-rule="nonzero" fill-opacity="1" /><path clip-path="url(#clip250)" d="M991.808 252.876 Q986.646 252.876 984.655 254.057 Q982.664 255.237 982.664 258.085 Q982.664 260.353 984.146 261.696 Q985.65 263.015 988.22 263.015 Q991.761 263.015 993.891 260.515 Q996.044 257.992 996.044 253.825 L996.044 252.876 L991.808 252.876 M1000.3 251.117 L1000.3 265.909 L996.044 265.909 L996.044 261.973 Q994.586 264.335 992.41 265.469 Q990.234 266.58 987.086 266.58 Q983.104 266.58 980.743 264.358 Q978.405 262.112 978.405 258.362 Q978.405 253.987 981.322 251.765 Q984.261 249.543 990.072 249.543 L996.044 249.543 L996.044 249.126 Q996.044 246.187 994.099 244.589 Q992.178 242.969 988.683 242.969 Q986.461 242.969 984.354 243.501 Q982.248 244.034 980.303 245.099 L980.303 241.163 Q982.641 240.261 984.84 239.821 Q987.039 239.358 989.123 239.358 Q994.748 239.358 997.525 242.274 Q1000.3 245.191 1000.3 251.117 Z" fill="#000000" fill-rule="nonzero" fill-opacity="1" /><path clip-path="url(#clip250)" d="M1019.86 268.316 Q1018.06 272.946 1016.34 274.358 Q1014.63 275.77 1011.76 275.77 L1008.36 275.77 L1008.36 272.205 L1010.86 272.205 Q1012.62 272.205 1013.59 271.372 Q1014.56 270.538 1015.74 267.436 L1016.51 265.492 L1006.02 239.983 L1010.53 239.983 L1018.64 260.261 L1026.74 239.983 L1031.25 239.983 L1019.86 268.316 Z" fill="#000000" fill-rule="nonzero" fill-opacity="1" /><path clip-path="url(#clip250)" d="M1068.73 240.747 L1068.73 244.774 Q1066.92 243.849 1064.98 243.386 Q1063.03 242.923 1060.95 242.923 Q1057.78 242.923 1056.18 243.895 Q1054.61 244.867 1054.61 246.811 Q1054.61 248.293 1055.74 249.149 Q1056.88 249.983 1060.3 250.747 L1061.76 251.071 Q1066.3 252.043 1068.2 253.825 Q1070.12 255.585 1070.12 258.756 Q1070.12 262.367 1067.25 264.473 Q1064.4 266.58 1059.4 266.58 Q1057.32 266.58 1055.05 266.163 Q1052.8 265.77 1050.3 264.96 L1050.3 260.561 Q1052.66 261.788 1054.96 262.413 Q1057.25 263.015 1059.49 263.015 Q1062.5 263.015 1064.12 261.997 Q1065.74 260.955 1065.74 259.08 Q1065.74 257.344 1064.56 256.418 Q1063.4 255.492 1059.45 254.636 L1057.96 254.288 Q1054.01 253.455 1052.25 251.742 Q1050.49 250.006 1050.49 246.997 Q1050.49 243.339 1053.08 241.349 Q1055.67 239.358 1060.44 239.358 Q1062.8 239.358 1064.89 239.705 Q1066.97 240.052 1068.73 240.747 Z" fill="#000000" fill-rule="nonzero" fill-opacity="1" /><path clip-path="url(#clip250)" d="M1076.9 239.983 L1081.16 239.983 L1081.16 265.909 L1076.9 265.909 L1076.9 239.983 M1076.9 229.89 L1081.16 229.89 L1081.16 235.284 L1076.9 235.284 L1076.9 229.89 Z" fill="#000000" fill-rule="nonzero" fill-opacity="1" /><path clip-path="url(#clip250)" d="M1110.26 244.96 Q1111.85 242.089 1114.08 240.724 Q1116.3 239.358 1119.31 239.358 Q1123.36 239.358 1125.56 242.205 Q1127.76 245.029 1127.76 250.261 L1127.76 265.909 L1123.47 265.909 L1123.47 250.399 Q1123.47 246.673 1122.15 244.867 Q1120.83 243.062 1118.13 243.062 Q1114.82 243.062 1112.9 245.261 Q1110.97 247.46 1110.97 251.256 L1110.97 265.909 L1106.69 265.909 L1106.69 250.399 Q1106.69 246.649 1105.37 244.867 Q1104.05 243.062 1101.3 243.062 Q1098.03 243.062 1096.11 245.284 Q1094.19 247.483 1094.19 251.256 L1094.19 265.909 L1089.91 265.909 L1089.91 239.983 L1094.19 239.983 L1094.19 244.011 Q1095.65 241.626 1097.69 240.492 Q1099.72 239.358 1102.52 239.358 Q1105.35 239.358 1107.32 240.793 Q1109.31 242.228 1110.26 244.96 Z" fill="#000000" fill-rule="nonzero" fill-opacity="1" /><path clip-path="url(#clip250)" d="M1164.45 229.89 L1164.45 233.432 L1160.37 233.432 Q1158.08 233.432 1157.18 234.358 Q1156.3 235.284 1156.3 237.691 L1156.3 239.983 L1163.31 239.983 L1163.31 243.293 L1156.3 243.293 L1156.3 265.909 L1152.02 265.909 L1152.02 243.293 L1147.94 243.293 L1147.94 239.983 L1152.02 239.983 L1152.02 238.177 Q1152.02 233.849 1154.03 231.881 Q1156.04 229.89 1160.42 229.89 L1164.45 229.89 Z" fill="#000000" fill-rule="nonzero" fill-opacity="1" /><path clip-path="url(#clip250)" d="M1168.01 239.983 L1172.27 239.983 L1172.27 265.909 L1168.01 265.909 L1168.01 239.983 M1168.01 229.89 L1172.27 229.89 L1172.27 235.284 L1168.01 235.284 L1168.01 229.89 Z" fill="#000000" fill-rule="nonzero" fill-opacity="1" /><path clip-path="url(#clip250)" d="M1185.39 232.622 L1185.39 239.983 L1194.17 239.983 L1194.17 243.293 L1185.39 243.293 L1185.39 257.367 Q1185.39 260.538 1186.25 261.441 Q1187.13 262.344 1189.79 262.344 L1194.17 262.344 L1194.17 265.909 L1189.79 265.909 Q1184.86 265.909 1182.99 264.08 Q1181.11 262.228 1181.11 257.367 L1181.11 243.293 L1177.99 243.293 L1177.99 239.983 L1181.11 239.983 L1181.11 232.622 L1185.39 232.622 Z" fill="#000000" fill-rule="nonzero" fill-opacity="1" /><path clip-path="url(#clip250)" d="M1231 260.029 L1235.88 260.029 L1235.88 265.909 L1231 265.909 L1231 260.029 M1231 241.395 L1235.88 241.395 L1235.88 247.274 L1231 247.274 L1231 241.395 Z" fill="#000000" fill-rule="nonzero" fill-opacity="1" /><path clip-path="url(#clip250)" d="M1247.29 261.973 L1254.93 261.973 L1254.93 235.608 L1246.62 237.275 L1246.62 233.015 L1254.89 231.349 L1259.56 231.349 L1259.56 261.973 L1267.2 261.973 L1267.2 265.909 L1247.29 265.909 L1247.29 261.973 Z" fill="#000000" fill-rule="nonzero" fill-opacity="1" /><path clip-path="url(#clip250)" d="M1286.64 234.427 Q1283.03 234.427 1281.2 237.992 Q1279.4 241.534 1279.4 248.663 Q1279.4 255.77 1281.2 259.335 Q1283.03 262.876 1286.64 262.876 Q1290.28 262.876 1292.08 259.335 Q1293.91 255.77 1293.91 248.663 Q1293.91 241.534 1292.08 237.992 Q1290.28 234.427 1286.64 234.427 M1286.64 230.724 Q1292.45 230.724 1295.51 235.33 Q1298.59 239.913 1298.59 248.663 Q1298.59 257.39 1295.51 261.997 Q1292.45 266.58 1286.64 266.58 Q1280.83 266.58 1277.76 261.997 Q1274.7 257.39 1274.7 248.663 Q1274.7 239.913 1277.76 235.33 Q1280.83 230.724 1286.64 230.724 Z" fill="#000000" fill-rule="nonzero" fill-opacity="1" /><path clip-path="url(#clip250)" d="M1316.81 234.427 Q1313.19 234.427 1311.37 237.992 Q1309.56 241.534 1309.56 248.663 Q1309.56 255.77 1311.37 259.335 Q1313.19 262.876 1316.81 262.876 Q1320.44 262.876 1322.25 259.335 Q1324.07 255.77 1324.07 248.663 Q1324.07 241.534 1322.25 237.992 Q1320.44 234.427 1316.81 234.427 M1316.81 230.724 Q1322.62 230.724 1325.67 235.33 Q1328.75 239.913 1328.75 248.663 Q1328.75 257.39 1325.67 261.997 Q1322.62 266.58 1316.81 266.58 Q1311 266.58 1307.92 261.997 Q1304.86 257.39 1304.86 248.663 Q1304.86 239.913 1307.92 235.33 Q1311 230.724 1316.81 230.724 Z" fill="#000000" fill-rule="nonzero" fill-opacity="1" /><path clip-path="url(#clip250)" d="M1336.97 260.029 L1341.85 260.029 L1341.85 265.909 L1336.97 265.909 L1336.97 260.029 Z" fill="#000000" fill-rule="nonzero" fill-opacity="1" /><path clip-path="url(#clip250)" d="M1362.04 234.427 Q1358.43 234.427 1356.6 237.992 Q1354.79 241.534 1354.79 248.663 Q1354.79 255.77 1356.6 259.335 Q1358.43 262.876 1362.04 262.876 Q1365.67 262.876 1367.48 259.335 Q1369.31 255.77 1369.31 248.663 Q1369.31 241.534 1367.48 237.992 Q1365.67 234.427 1362.04 234.427 M1362.04 230.724 Q1367.85 230.724 1370.9 235.33 Q1373.98 239.913 1373.98 248.663 Q1373.98 257.39 1370.9 261.997 Q1367.85 266.58 1362.04 266.58 Q1356.23 266.58 1353.15 261.997 Q1350.09 257.39 1350.09 248.663 Q1350.09 239.913 1353.15 235.33 Q1356.23 230.724 1362.04 230.724 Z" fill="#000000" fill-rule="nonzero" fill-opacity="1" /><path clip-path="url(#clip250)" d="M1411.6 250.7 Q1409.58 250.7 1408.43 252.413 Q1407.29 254.126 1407.29 257.182 Q1407.29 260.191 1408.43 261.927 Q1409.58 263.64 1411.6 263.64 Q1413.56 263.64 1414.7 261.927 Q1415.86 260.191 1415.86 257.182 Q1415.86 254.149 1414.7 252.436 Q1413.56 250.7 1411.6 250.7 M1411.6 247.761 Q1415.25 247.761 1417.41 250.307 Q1419.56 252.853 1419.56 257.182 Q1419.56 261.51 1417.38 264.057 Q1415.23 266.58 1411.6 266.58 Q1407.89 266.58 1405.74 264.057 Q1403.59 261.51 1403.59 257.182 Q1403.59 252.83 1405.74 250.307 Q1407.92 247.761 1411.6 247.761 M1387.71 233.663 Q1385.72 233.663 1384.56 235.4 Q1383.43 237.112 1383.43 240.122 Q1383.43 243.177 1384.56 244.89 Q1385.69 246.603 1387.71 246.603 Q1389.72 246.603 1390.86 244.89 Q1392.01 243.177 1392.01 240.122 Q1392.01 237.136 1390.86 235.4 Q1389.7 233.663 1387.71 233.663 M1408.61 230.724 L1412.31 230.724 L1390.69 266.58 L1386.99 266.58 L1408.61 230.724 M1387.71 230.724 Q1391.37 230.724 1393.54 233.27 Q1395.72 235.793 1395.72 240.122 Q1395.72 244.497 1393.54 247.02 Q1391.39 249.543 1387.71 249.543 Q1384.03 249.543 1381.88 247.02 Q1379.75 244.474 1379.75 240.122 Q1379.75 235.816 1381.9 233.27 Q1384.05 230.724 1387.71 230.724 Z" fill="#000000" fill-rule="nonzero" fill-opacity="1" /></svg>
