<?xml version="1.0" encoding="utf-8"?>
<svg xmlns="http://www.w3.org/2000/svg" xmlns:xlink="http://www.w3.org/1999/xlink" width="600" height="400" viewBox="0 0 2400 1600">
<defs>
  <clipPath id="clip160">
    <rect x="0" y="0" width="2400" height="1600"/>
  </clipPath>
</defs>
<path clip-path="url(#clip160)" d="M0 1600 L2400 1600 L2400 0 L0 0  Z" fill="#ffffff" fill-rule="evenodd" fill-opacity="1"/>
<defs>
  <clipPath id="clip161">
    <rect x="480" y="0" width="1681" height="1600"/>
  </clipPath>
</defs>
<path clip-path="url(#clip160)" d="M257.204 623.18 L2352.76 623.18 L2352.76 47.2441 L257.204 47.2441  Z" fill="#ffffff" fill-rule="evenodd" fill-opacity="1"/>
<defs>
  <clipPath id="clip162">
    <rect x="257" y="47" width="2097" height="577"/>
  </clipPath>
</defs>
<polyline clip-path="url(#clip162)" style="stroke:#000000; stroke-linecap:round; stroke-linejoin:round; stroke-width:2; stroke-opacity:0.1; fill:none" points="316.512,623.18 316.512,47.2441 "/>
<polyline clip-path="url(#clip162)" style="stroke:#000000; stroke-linecap:round; stroke-linejoin:round; stroke-width:2; stroke-opacity:0.1; fill:none" points="712.692,623.18 712.692,47.2441 "/>
<polyline clip-path="url(#clip162)" style="stroke:#000000; stroke-linecap:round; stroke-linejoin:round; stroke-width:2; stroke-opacity:0.1; fill:none" points="1108.87,623.18 1108.87,47.2441 "/>
<polyline clip-path="url(#clip162)" style="stroke:#000000; stroke-linecap:round; stroke-linejoin:round; stroke-width:2; stroke-opacity:0.1; fill:none" points="1505.05,623.18 1505.05,47.2441 "/>
<polyline clip-path="url(#clip162)" style="stroke:#000000; stroke-linecap:round; stroke-linejoin:round; stroke-width:2; stroke-opacity:0.1; fill:none" points="1901.23,623.18 1901.23,47.2441 "/>
<polyline clip-path="url(#clip162)" style="stroke:#000000; stroke-linecap:round; stroke-linejoin:round; stroke-width:2; stroke-opacity:0.1; fill:none" points="2297.41,623.18 2297.41,47.2441 "/>
<polyline clip-path="url(#clip162)" style="stroke:#000000; stroke-linecap:round; stroke-linejoin:round; stroke-width:2; stroke-opacity:0.1; fill:none" points="257.204,615.051 2352.76,615.051 "/>
<polyline clip-path="url(#clip162)" style="stroke:#000000; stroke-linecap:round; stroke-linejoin:round; stroke-width:2; stroke-opacity:0.1; fill:none" points="257.204,486.752 2352.76,486.752 "/>
<polyline clip-path="url(#clip162)" style="stroke:#000000; stroke-linecap:round; stroke-linejoin:round; stroke-width:2; stroke-opacity:0.1; fill:none" points="257.204,358.453 2352.76,358.453 "/>
<polyline clip-path="url(#clip162)" style="stroke:#000000; stroke-linecap:round; stroke-linejoin:round; stroke-width:2; stroke-opacity:0.1; fill:none" points="257.204,230.154 2352.76,230.154 "/>
<polyline clip-path="url(#clip162)" style="stroke:#000000; stroke-linecap:round; stroke-linejoin:round; stroke-width:2; stroke-opacity:0.1; fill:none" points="257.204,101.855 2352.76,101.855 "/>
<polyline clip-path="url(#clip160)" style="stroke:#000000; stroke-linecap:round; stroke-linejoin:round; stroke-width:4; stroke-opacity:1; fill:none" points="257.204,623.18 2352.76,623.18 "/>
<polyline clip-path="url(#clip160)" style="stroke:#000000; stroke-linecap:round; stroke-linejoin:round; stroke-width:4; stroke-opacity:1; fill:none" points="316.512,623.18 316.512,604.282 "/>
<polyline clip-path="url(#clip160)" style="stroke:#000000; stroke-linecap:round; stroke-linejoin:round; stroke-width:4; stroke-opacity:1; fill:none" points="712.692,623.18 712.692,604.282 "/>
<polyline clip-path="url(#clip160)" style="stroke:#000000; stroke-linecap:round; stroke-linejoin:round; stroke-width:4; stroke-opacity:1; fill:none" points="1108.87,623.18 1108.87,604.282 "/>
<polyline clip-path="url(#clip160)" style="stroke:#000000; stroke-linecap:round; stroke-linejoin:round; stroke-width:4; stroke-opacity:1; fill:none" points="1505.05,623.18 1505.05,604.282 "/>
<polyline clip-path="url(#clip160)" style="stroke:#000000; stroke-linecap:round; stroke-linejoin:round; stroke-width:4; stroke-opacity:1; fill:none" points="1901.23,623.18 1901.23,604.282 "/>
<polyline clip-path="url(#clip160)" style="stroke:#000000; stroke-linecap:round; stroke-linejoin:round; stroke-width:4; stroke-opacity:1; fill:none" points="2297.41,623.18 2297.41,604.282 "/>
<path clip-path="url(#clip160)" d="M316.512 654.099 Q312.901 654.099 311.072 657.663 Q309.267 661.205 309.267 668.335 Q309.267 675.441 311.072 679.006 Q312.901 682.547 316.512 682.547 Q320.146 682.547 321.952 679.006 Q323.781 675.441 323.781 668.335 Q323.781 661.205 321.952 657.663 Q320.146 654.099 316.512 654.099 M316.512 650.395 Q322.322 650.395 325.378 655.001 Q328.456 659.585 328.456 668.335 Q328.456 677.061 325.378 681.668 Q322.322 686.251 316.512 686.251 Q310.702 686.251 307.623 681.668 Q304.568 677.061 304.568 668.335 Q304.568 659.585 307.623 655.001 Q310.702 650.395 316.512 650.395 Z" fill="#000000" fill-rule="nonzero" fill-opacity="1" /><path clip-path="url(#clip160)" d="M703.074 681.645 L710.712 681.645 L710.712 655.279 L702.402 656.946 L702.402 652.687 L710.666 651.02 L715.342 651.02 L715.342 681.645 L722.981 681.645 L722.981 685.58 L703.074 685.58 L703.074 681.645 Z" fill="#000000" fill-rule="nonzero" fill-opacity="1" /><path clip-path="url(#clip160)" d="M1103.52 681.645 L1119.84 681.645 L1119.84 685.58 L1097.9 685.58 L1097.9 681.645 Q1100.56 678.89 1105.14 674.26 Q1109.75 669.608 1110.93 668.265 Q1113.18 665.742 1114.06 664.006 Q1114.96 662.247 1114.96 660.557 Q1114.96 657.802 1113.01 656.066 Q1111.09 654.33 1107.99 654.33 Q1105.79 654.33 1103.34 655.094 Q1100.91 655.858 1098.13 657.409 L1098.13 652.687 Q1100.95 651.552 1103.41 650.974 Q1105.86 650.395 1107.9 650.395 Q1113.27 650.395 1116.46 653.08 Q1119.66 655.765 1119.66 660.256 Q1119.66 662.386 1118.85 664.307 Q1118.06 666.205 1115.95 668.798 Q1115.38 669.469 1112.27 672.686 Q1109.17 675.881 1103.52 681.645 Z" fill="#000000" fill-rule="nonzero" fill-opacity="1" /><path clip-path="url(#clip160)" d="M1509.3 666.946 Q1512.65 667.663 1514.53 669.932 Q1516.43 672.2 1516.43 675.534 Q1516.43 680.649 1512.91 683.45 Q1509.39 686.251 1502.91 686.251 Q1500.73 686.251 1498.42 685.811 Q1496.13 685.395 1493.67 684.538 L1493.67 680.024 Q1495.62 681.159 1497.93 681.737 Q1500.25 682.316 1502.77 682.316 Q1507.17 682.316 1509.46 680.58 Q1511.78 678.844 1511.78 675.534 Q1511.78 672.478 1509.62 670.765 Q1507.49 669.029 1503.67 669.029 L1499.65 669.029 L1499.65 665.186 L1503.86 665.186 Q1507.31 665.186 1509.14 663.821 Q1510.96 662.432 1510.96 659.839 Q1510.96 657.177 1509.07 655.765 Q1507.19 654.33 1503.67 654.33 Q1501.75 654.33 1499.55 654.747 Q1497.35 655.163 1494.72 656.043 L1494.72 651.876 Q1497.38 651.136 1499.69 650.765 Q1502.03 650.395 1504.09 650.395 Q1509.41 650.395 1512.52 652.825 Q1515.62 655.233 1515.62 659.353 Q1515.62 662.223 1513.97 664.214 Q1512.33 666.182 1509.3 666.946 Z" fill="#000000" fill-rule="nonzero" fill-opacity="1" /><path clip-path="url(#clip160)" d="M1904.24 655.094 L1892.43 673.543 L1904.24 673.543 L1904.24 655.094 M1903.01 651.02 L1908.89 651.02 L1908.89 673.543 L1913.82 673.543 L1913.82 677.432 L1908.89 677.432 L1908.89 685.58 L1904.24 685.58 L1904.24 677.432 L1888.64 677.432 L1888.64 672.918 L1903.01 651.02 Z" fill="#000000" fill-rule="nonzero" fill-opacity="1" /><path clip-path="url(#clip160)" d="M2287.69 651.02 L2306.04 651.02 L2306.04 654.955 L2291.97 654.955 L2291.97 663.427 Q2292.99 663.08 2294.01 662.918 Q2295.03 662.733 2296.04 662.733 Q2301.83 662.733 2305.21 665.904 Q2308.59 669.075 2308.59 674.492 Q2308.59 680.071 2305.12 683.172 Q2301.65 686.251 2295.33 686.251 Q2293.15 686.251 2290.88 685.881 Q2288.64 685.51 2286.23 684.77 L2286.23 680.071 Q2288.31 681.205 2290.53 681.76 Q2292.76 682.316 2295.23 682.316 Q2299.24 682.316 2301.58 680.21 Q2303.91 678.103 2303.91 674.492 Q2303.91 670.881 2301.58 668.774 Q2299.24 666.668 2295.23 666.668 Q2293.36 666.668 2291.48 667.085 Q2289.63 667.501 2287.69 668.381 L2287.69 651.02 Z" fill="#000000" fill-rule="nonzero" fill-opacity="1" /><path clip-path="url(#clip160)" d="M1175.15 720.524 L1215.35 720.524 L1215.35 725.935 L1198.48 725.935 L1198.48 768.044 L1192.02 768.044 L1192.02 725.935 L1175.15 725.935 L1175.15 720.524 Z" fill="#000000" fill-rule="nonzero" fill-opacity="1" /><path clip-path="url(#clip160)" d="M1219.3 732.396 L1225.15 732.396 L1225.15 768.044 L1219.3 768.044 L1219.3 732.396 M1219.3 718.519 L1225.15 718.519 L1225.15 725.935 L1219.3 725.935 L1219.3 718.519 Z" fill="#000000" fill-rule="nonzero" fill-opacity="1" /><path clip-path="url(#clip160)" d="M1265.16 739.239 Q1267.36 735.292 1270.41 733.414 Q1273.47 731.537 1277.61 731.537 Q1283.18 731.537 1286.2 735.451 Q1289.22 739.335 1289.22 746.528 L1289.22 768.044 L1283.34 768.044 L1283.34 746.719 Q1283.34 741.594 1281.52 739.112 Q1279.71 736.629 1275.98 736.629 Q1271.43 736.629 1268.79 739.653 Q1266.15 742.677 1266.15 747.896 L1266.15 768.044 L1260.26 768.044 L1260.26 746.719 Q1260.26 741.563 1258.45 739.112 Q1256.63 736.629 1252.84 736.629 Q1248.36 736.629 1245.72 739.685 Q1243.07 742.708 1243.07 747.896 L1243.07 768.044 L1237.19 768.044 L1237.19 732.396 L1243.07 732.396 L1243.07 737.934 Q1245.08 734.656 1247.88 733.096 Q1250.68 731.537 1254.53 731.537 Q1258.41 731.537 1261.12 733.51 Q1263.86 735.483 1265.16 739.239 Z" fill="#000000" fill-rule="nonzero" fill-opacity="1" /><path clip-path="url(#clip160)" d="M1331.4 748.756 L1331.4 751.62 L1304.47 751.62 Q1304.85 757.668 1308.1 760.851 Q1311.38 764.002 1317.2 764.002 Q1320.58 764.002 1323.73 763.174 Q1326.91 762.347 1330.03 760.691 L1330.03 766.23 Q1326.88 767.566 1323.57 768.267 Q1320.26 768.967 1316.85 768.967 Q1308.32 768.967 1303.32 764.002 Q1298.36 759.036 1298.36 750.57 Q1298.36 741.817 1303.07 736.693 Q1307.81 731.537 1315.83 731.537 Q1323.03 731.537 1327.2 736.183 Q1331.4 740.799 1331.4 748.756 M1325.54 747.037 Q1325.48 742.231 1322.84 739.366 Q1320.23 736.502 1315.9 736.502 Q1311 736.502 1308.04 739.271 Q1305.11 742.04 1304.66 747.069 L1325.54 747.037 Z" fill="#000000" fill-rule="nonzero" fill-opacity="1" /><path clip-path="url(#clip160)" d="M1375.8 718.582 Q1371.53 725.903 1369.46 733.064 Q1367.4 740.226 1367.4 747.578 Q1367.4 754.93 1369.46 762.156 Q1371.57 769.349 1375.8 776.638 L1370.71 776.638 Q1365.93 769.158 1363.54 761.933 Q1361.19 754.708 1361.19 747.578 Q1361.19 740.48 1363.54 733.287 Q1365.9 726.094 1370.71 718.582 L1375.8 718.582 Z" fill="#000000" fill-rule="nonzero" fill-opacity="1" /><path clip-path="url(#clip160)" d="M1409.89 733.446 L1409.89 738.984 Q1407.4 737.711 1404.73 737.075 Q1402.06 736.438 1399.19 736.438 Q1394.83 736.438 1392.64 737.775 Q1390.47 739.112 1390.47 741.785 Q1390.47 743.822 1392.03 745 Q1393.59 746.146 1398.3 747.196 L1400.31 747.642 Q1406.54 748.979 1409.15 751.429 Q1411.8 753.848 1411.8 758.209 Q1411.8 763.174 1407.85 766.07 Q1403.93 768.967 1397.06 768.967 Q1394.2 768.967 1391.08 768.394 Q1387.99 767.853 1384.55 766.739 L1384.55 760.691 Q1387.8 762.378 1390.95 763.238 Q1394.1 764.065 1397.19 764.065 Q1401.32 764.065 1403.55 762.665 Q1405.78 761.233 1405.78 758.654 Q1405.78 756.267 1404.16 754.994 Q1402.57 753.721 1397.12 752.543 L1395.09 752.066 Q1389.64 750.92 1387.22 748.565 Q1384.81 746.178 1384.81 742.04 Q1384.81 737.011 1388.37 734.274 Q1391.94 731.537 1398.49 731.537 Q1401.74 731.537 1404.6 732.014 Q1407.47 732.491 1409.89 733.446 Z" fill="#000000" fill-rule="nonzero" fill-opacity="1" /><path clip-path="url(#clip160)" d="M1420.2 718.582 L1425.29 718.582 Q1430.07 726.094 1432.42 733.287 Q1434.81 740.48 1434.81 747.578 Q1434.81 754.708 1432.42 761.933 Q1430.07 769.158 1425.29 776.638 L1420.2 776.638 Q1424.43 769.349 1426.5 762.156 Q1428.6 754.93 1428.6 747.578 Q1428.6 740.226 1426.5 733.064 Q1424.43 725.903 1420.2 718.582 Z" fill="#000000" fill-rule="nonzero" fill-opacity="1" /><polyline clip-path="url(#clip160)" style="stroke:#000000; stroke-linecap:round; stroke-linejoin:round; stroke-width:4; stroke-opacity:1; fill:none" points="257.204,623.18 257.204,47.2441 "/>
<polyline clip-path="url(#clip160)" style="stroke:#000000; stroke-linecap:round; stroke-linejoin:round; stroke-width:4; stroke-opacity:1; fill:none" points="257.204,615.051 276.102,615.051 "/>
<polyline clip-path="url(#clip160)" style="stroke:#000000; stroke-linecap:round; stroke-linejoin:round; stroke-width:4; stroke-opacity:1; fill:none" points="257.204,486.752 276.102,486.752 "/>
<polyline clip-path="url(#clip160)" style="stroke:#000000; stroke-linecap:round; stroke-linejoin:round; stroke-width:4; stroke-opacity:1; fill:none" points="257.204,358.453 276.102,358.453 "/>
<polyline clip-path="url(#clip160)" style="stroke:#000000; stroke-linecap:round; stroke-linejoin:round; stroke-width:4; stroke-opacity:1; fill:none" points="257.204,230.154 276.102,230.154 "/>
<polyline clip-path="url(#clip160)" style="stroke:#000000; stroke-linecap:round; stroke-linejoin:round; stroke-width:4; stroke-opacity:1; fill:none" points="257.204,101.855 276.102,101.855 "/>
<path clip-path="url(#clip160)" d="M115.857 615.503 L145.533 615.503 L145.533 619.438 L115.857 619.438 L115.857 615.503 Z" fill="#000000" fill-rule="nonzero" fill-opacity="1" /><path clip-path="url(#clip160)" d="M165.626 600.85 Q162.015 600.85 160.186 604.415 Q158.38 607.957 158.38 615.086 Q158.38 622.193 160.186 625.757 Q162.015 629.299 165.626 629.299 Q169.26 629.299 171.065 625.757 Q172.894 622.193 172.894 615.086 Q172.894 607.957 171.065 604.415 Q169.26 600.85 165.626 600.85 M165.626 597.146 Q171.436 597.146 174.491 601.753 Q177.57 606.336 177.57 615.086 Q177.57 623.813 174.491 628.419 Q171.436 633.003 165.626 633.003 Q159.815 633.003 156.737 628.419 Q153.681 623.813 153.681 615.086 Q153.681 606.336 156.737 601.753 Q159.815 597.146 165.626 597.146 Z" fill="#000000" fill-rule="nonzero" fill-opacity="1" /><path clip-path="url(#clip160)" d="M185.788 626.452 L190.672 626.452 L190.672 632.331 L185.788 632.331 L185.788 626.452 Z" fill="#000000" fill-rule="nonzero" fill-opacity="1" /><path clip-path="url(#clip160)" d="M204.885 628.396 L221.204 628.396 L221.204 632.331 L199.26 632.331 L199.26 628.396 Q201.922 625.642 206.505 621.012 Q211.111 616.359 212.292 615.017 Q214.537 612.494 215.417 610.758 Q216.32 608.998 216.32 607.308 Q216.32 604.554 214.375 602.818 Q212.454 601.082 209.352 601.082 Q207.153 601.082 204.699 601.846 Q202.269 602.609 199.491 604.16 L199.491 599.438 Q202.315 598.304 204.769 597.725 Q207.223 597.146 209.26 597.146 Q214.63 597.146 217.824 599.832 Q221.019 602.517 221.019 607.008 Q221.019 609.137 220.209 611.058 Q219.422 612.957 217.315 615.549 Q216.736 616.22 213.635 619.438 Q210.533 622.632 204.885 628.396 Z" fill="#000000" fill-rule="nonzero" fill-opacity="1" /><path clip-path="url(#clip160)" d="M115.487 487.204 L145.163 487.204 L145.163 491.139 L115.487 491.139 L115.487 487.204 Z" fill="#000000" fill-rule="nonzero" fill-opacity="1" /><path clip-path="url(#clip160)" d="M165.255 472.551 Q161.644 472.551 159.815 476.116 Q158.01 479.658 158.01 486.787 Q158.01 493.894 159.815 497.458 Q161.644 501 165.255 501 Q168.889 501 170.695 497.458 Q172.524 493.894 172.524 486.787 Q172.524 479.658 170.695 476.116 Q168.889 472.551 165.255 472.551 M165.255 468.847 Q171.065 468.847 174.121 473.454 Q177.2 478.037 177.2 486.787 Q177.2 495.514 174.121 500.12 Q171.065 504.704 165.255 504.704 Q159.445 504.704 156.366 500.12 Q153.311 495.514 153.311 486.787 Q153.311 478.037 156.366 473.454 Q159.445 468.847 165.255 468.847 Z" fill="#000000" fill-rule="nonzero" fill-opacity="1" /><path clip-path="url(#clip160)" d="M185.417 498.153 L190.301 498.153 L190.301 504.032 L185.417 504.032 L185.417 498.153 Z" fill="#000000" fill-rule="nonzero" fill-opacity="1" /><path clip-path="url(#clip160)" d="M201.297 500.097 L208.936 500.097 L208.936 473.732 L200.625 475.398 L200.625 471.139 L208.889 469.472 L213.565 469.472 L213.565 500.097 L221.204 500.097 L221.204 504.032 L201.297 504.032 L201.297 500.097 Z" fill="#000000" fill-rule="nonzero" fill-opacity="1" /><path clip-path="url(#clip160)" d="M164.028 344.252 Q160.417 344.252 158.589 347.817 Q156.783 351.358 156.783 358.488 Q156.783 365.595 158.589 369.159 Q160.417 372.701 164.028 372.701 Q167.663 372.701 169.468 369.159 Q171.297 365.595 171.297 358.488 Q171.297 351.358 169.468 347.817 Q167.663 344.252 164.028 344.252 M164.028 340.548 Q169.839 340.548 172.894 345.155 Q175.973 349.738 175.973 358.488 Q175.973 367.215 172.894 371.821 Q169.839 376.405 164.028 376.405 Q158.218 376.405 155.14 371.821 Q152.084 367.215 152.084 358.488 Q152.084 349.738 155.14 345.155 Q158.218 340.548 164.028 340.548 Z" fill="#000000" fill-rule="nonzero" fill-opacity="1" /><path clip-path="url(#clip160)" d="M184.19 369.854 L189.075 369.854 L189.075 375.733 L184.19 375.733 L184.19 369.854 Z" fill="#000000" fill-rule="nonzero" fill-opacity="1" /><path clip-path="url(#clip160)" d="M209.26 344.252 Q205.649 344.252 203.82 347.817 Q202.014 351.358 202.014 358.488 Q202.014 365.595 203.82 369.159 Q205.649 372.701 209.26 372.701 Q212.894 372.701 214.699 369.159 Q216.528 365.595 216.528 358.488 Q216.528 351.358 214.699 347.817 Q212.894 344.252 209.26 344.252 M209.26 340.548 Q215.07 340.548 218.125 345.155 Q221.204 349.738 221.204 358.488 Q221.204 367.215 218.125 371.821 Q215.07 376.405 209.26 376.405 Q203.449 376.405 200.371 371.821 Q197.315 367.215 197.315 358.488 Q197.315 349.738 200.371 345.155 Q203.449 340.548 209.26 340.548 Z" fill="#000000" fill-rule="nonzero" fill-opacity="1" /><path clip-path="url(#clip160)" d="M165.255 215.953 Q161.644 215.953 159.815 219.518 Q158.01 223.059 158.01 230.189 Q158.01 237.295 159.815 240.86 Q161.644 244.402 165.255 244.402 Q168.889 244.402 170.695 240.86 Q172.524 237.295 172.524 230.189 Q172.524 223.059 170.695 219.518 Q168.889 215.953 165.255 215.953 M165.255 212.249 Q171.065 212.249 174.121 216.856 Q177.2 221.439 177.2 230.189 Q177.2 238.916 174.121 243.522 Q171.065 248.106 165.255 248.106 Q159.445 248.106 156.366 243.522 Q153.311 238.916 153.311 230.189 Q153.311 221.439 156.366 216.856 Q159.445 212.249 165.255 212.249 Z" fill="#000000" fill-rule="nonzero" fill-opacity="1" /><path clip-path="url(#clip160)" d="M185.417 241.555 L190.301 241.555 L190.301 247.434 L185.417 247.434 L185.417 241.555 Z" fill="#000000" fill-rule="nonzero" fill-opacity="1" /><path clip-path="url(#clip160)" d="M201.297 243.499 L208.936 243.499 L208.936 217.134 L200.625 218.8 L200.625 214.541 L208.889 212.874 L213.565 212.874 L213.565 243.499 L221.204 243.499 L221.204 247.434 L201.297 247.434 L201.297 243.499 Z" fill="#000000" fill-rule="nonzero" fill-opacity="1" /><path clip-path="url(#clip160)" d="M165.626 87.6539 Q162.015 87.6539 160.186 91.2187 Q158.38 94.7604 158.38 101.89 Q158.38 108.996 160.186 112.561 Q162.015 116.103 165.626 116.103 Q169.26 116.103 171.065 112.561 Q172.894 108.996 172.894 101.89 Q172.894 94.7604 171.065 91.2187 Q169.26 87.6539 165.626 87.6539 M165.626 83.9502 Q171.436 83.9502 174.491 88.5567 Q177.57 93.14 177.57 101.89 Q177.57 110.617 174.491 115.223 Q171.436 119.807 165.626 119.807 Q159.815 119.807 156.737 115.223 Q153.681 110.617 153.681 101.89 Q153.681 93.14 156.737 88.5567 Q159.815 83.9502 165.626 83.9502 Z" fill="#000000" fill-rule="nonzero" fill-opacity="1" /><path clip-path="url(#clip160)" d="M185.788 113.256 L190.672 113.256 L190.672 119.135 L185.788 119.135 L185.788 113.256 Z" fill="#000000" fill-rule="nonzero" fill-opacity="1" /><path clip-path="url(#clip160)" d="M204.885 115.2 L221.204 115.2 L221.204 119.135 L199.26 119.135 L199.26 115.2 Q201.922 112.445 206.505 107.816 Q211.111 103.163 212.292 101.821 Q214.537 99.2974 215.417 97.5613 Q216.32 95.802 216.32 94.1122 Q216.32 91.3576 214.375 89.6215 Q212.454 87.8854 209.352 87.8854 Q207.153 87.8854 204.699 88.6493 Q202.269 89.4132 199.491 90.9641 L199.491 86.2419 Q202.315 85.1077 204.769 84.5289 Q207.223 83.9502 209.26 83.9502 Q214.63 83.9502 217.824 86.6354 Q221.019 89.3206 221.019 93.8113 Q221.019 95.9409 220.209 97.8622 Q219.422 99.7603 217.315 102.353 Q216.736 103.024 213.635 106.242 Q210.533 109.436 204.885 115.2 Z" fill="#000000" fill-rule="nonzero" fill-opacity="1" /><path clip-path="url(#clip160)" d="M68.5412 333.525 Q74.9069 336.008 76.8484 338.363 Q78.79 340.718 78.79 344.665 L78.79 349.344 L73.8884 349.344 L73.8884 345.906 Q73.8884 343.487 72.7425 342.151 Q71.5967 340.814 67.3317 339.191 L64.6581 338.14 L29.583 352.559 L29.583 346.352 L57.4648 335.212 L29.583 324.072 L29.583 317.865 L68.5412 333.525 Z" fill="#000000" fill-rule="nonzero" fill-opacity="1" /><polyline clip-path="url(#clip162)" style="stroke:#009af9; stroke-linecap:round; stroke-linejoin:round; stroke-width:4; stroke-opacity:1; fill:none" points="316.512,358.453 320.474,358.453 324.436,358.453 324.436,371.135 328.397,371.135 328.397,383.443 332.359,383.443 332.359,395.27 336.321,395.27 336.321,406.518 340.283,406.518 340.283,417.105 344.245,417.105 344.245,426.96 348.206,426.96 348.206,436.031 352.168,436.031 352.168,444.279 356.13,444.279 356.13,451.681 360.092,451.681 360.092,458.233 364.054,458.233 364.054,463.943 368.015,463.943 368.015,468.838 371.977,468.838 371.977,472.955 375.939,472.955 375.939,476.347 379.901,476.347 379.901,479.079 383.863,479.079 383.863,481.224 387.824,481.224 387.824,482.863 391.786,482.863 391.786,484.087 395.748,484.087 395.748,484.987 399.71,484.987 399.71,485.659 403.672,485.659 403.672,460.838 407.633,460.838 407.633,436.727 411.595,436.727 411.595,413.634 415.557,413.634 415.557,391.841 419.519,391.841 419.519,371.595 423.481,371.595 423.481,378.47 427.442,378.47 427.442,386.528 431.404,386.528 431.404,395.683 435.366,395.683 435.366,405.831 439.328,405.831 439.328,416.847 443.29,416.847 443.29,428.593 447.251,428.593 447.251,440.922 451.213,440.922 451.213,453.675 455.175,453.675 455.175,466.691 459.137,466.691 459.137,479.807 463.099,479.807 463.099,467.497 467.06,467.497 467.06,455.717 471.022,455.717 471.022,444.533 474.984,444.533 474.984,434.001 478.946,434.001 478.946,424.163 482.907,424.163 482.907,440.411 486.869,440.411 486.869,456.65 490.831,456.65 490.831,472.666 494.793,472.666 494.793,488.254 498.755,488.254 498.755,503.223 502.716,503.223 502.716,517.398 506.678,517.398 506.678,530.625 510.64,530.625 510.64,542.772 514.602,542.772 514.602,553.729 518.564,553.729 518.564,563.415 522.525,563.415 522.525,546.41 526.487,546.41 526.487,528.794 530.449,528.794 530.449,510.782 534.411,510.782 534.411,492.59 538.373,492.59 538.373,474.432 542.334,474.432 542.334,456.517 546.296,456.517 546.296,439.046 550.258,439.046 550.258,422.206 554.22,422.206 554.22,406.166 558.182,406.166 558.182,391.077 562.143,391.077 562.143,402.432 566.105,402.432 566.105,414.225 570.067,414.225 570.067,426.321 574.029,426.321 574.029,438.581 577.991,438.581 577.991,450.866 581.952,450.866 581.952,463.04 585.914,463.04 585.914,474.972 589.876,474.972 589.876,486.538 593.838,486.538 593.838,497.624 597.8,497.624 597.8,508.128 601.761,508.128 601.761,517.961 605.723,517.961 605.723,527.05 609.685,527.05 609.685,535.338 613.647,535.338 613.647,542.781 617.609,542.781 617.609,549.357 621.57,549.357 621.57,555.056 625.532,555.056 625.532,559.889 629.494,559.889 629.494,563.878 633.456,563.878 633.456,567.065 637.418,567.065 637.418,569.502 641.379,569.502 641.379,545.891 645.341,545.891 645.341,522.419 649.303,522.419 649.303,499.387 653.265,499.387 653.265,477.08 657.226,477.08 657.226,455.761 661.188,455.761 661.188,435.668 665.15,435.668 665.15,417.011 669.112,417.011 669.112,399.964 673.074,399.964 673.074,384.668 677.035,384.668 677.035,371.225 680.997,371.225 680.997,359.702 684.959,359.702 684.959,350.124 688.921,350.124 688.921,342.48 692.883,342.48 692.883,336.724 696.844,336.724 696.844,332.774 700.806,332.774 700.806,355.88 704.768,355.88 704.768,379.79 708.73,379.79 708.73,404.121 712.692,404.121 712.692,428.492 716.653,428.492 716.653,452.531 720.615,452.531 720.615,475.884 724.577,475.884 724.577,498.218 728.539,498.218 728.539,519.23 732.501,519.23 732.501,538.65 736.462,538.65 736.462,556.248 740.424,556.248 740.424,546.471 744.386,546.471 744.386,535.282 748.348,535.282 748.348,522.8 752.31,522.8 752.31,509.163 756.271,509.163 756.271,494.531 760.233,494.531 760.233,479.081 764.195,479.081 764.195,463.001 768.157,463.001 768.157,446.486 772.119,446.486 772.119,429.739 776.08,429.739 776.08,412.96 780.042,412.96 780.042,421.708 784.004,421.708 784.004,430.063 787.966,430.063 787.966,437.985 791.928,437.985 791.928,445.447 795.889,445.447 795.889,452.426 799.851,452.426 799.851,433.547 803.813,433.547 803.813,414.918 807.775,414.918 807.775,396.761 811.736,396.761 811.736,379.284 815.698,379.284 815.698,362.674 819.66,362.674 819.66,372.465 823.622,372.465 823.622,382.688 827.584,382.688 827.584,393.246 831.545,393.246 831.545,404.036 835.507,404.036 835.507,414.952 839.469,414.952 839.469,425.887 843.431,425.887 843.431,436.738 847.393,436.738 847.393,447.403 851.354,447.403 851.354,457.787 855.316,457.787 855.316,467.801 859.278,467.801 859.278,477.367 863.24,477.367 863.24,486.415 867.202,486.415 867.202,494.886 871.163,494.886 871.163,502.736 875.125,502.736 875.125,509.931 879.087,509.931 879.087,516.449 883.049,516.449 883.049,522.284 887.011,522.284 887.011,527.439 890.972,527.439 890.972,531.933 894.934,531.933 894.934,535.794 898.896,535.794 898.896,513.699 902.858,513.699 902.858,491.805 906.82,491.805 906.82,470.387 910.781,470.387 910.781,449.703 914.743,449.703 914.743,429.987 918.705,429.987 918.705,411.454 922.667,411.454 922.667,394.286 926.629,394.286 926.629,378.638 930.59,378.638 930.59,364.629 934.552,364.629 934.552,352.346 938.514,352.346 938.514,367.202 942.476,367.202 942.476,383.102 946.438,383.102 946.438,399.813 950.399,399.813 950.399,417.09 954.361,417.09 954.361,434.682 958.323,434.682 958.323,426.977 962.285,426.977 962.285,419.842 966.246,419.842 966.246,413.257 970.208,413.257 970.208,407.194 974.17,407.194 974.17,401.618 978.132,401.618 978.132,421.849 982.094,421.849 982.094,441.729 986.055,441.729 986.055,460.986 990.017,460.986 990.017,479.37 993.979,479.37 993.979,496.654 997.941,496.654 997.941,487.274 1001.9,487.274 1001.9,477.172 1005.86,477.172 1005.86,466.427 1009.83,466.427 1009.83,455.128 1013.79,455.128 1013.79,443.378 1017.75,443.378 1017.75,431.284 1021.71,431.284 1021.71,418.959 1025.67,418.959 1025.67,406.517 1029.64,406.517 1029.64,394.075 1033.6,394.075 1033.6,381.746 1037.56,381.746 1037.56,395.002 1041.52,395.002 1041.52,407.836 1045.48,407.836 1045.48,420.127 1049.44,420.127 1049.44,431.766 1053.41,431.766 1053.41,442.661 1057.37,442.661 1057.37,452.733 1061.33,452.733 1061.33,461.924 1065.29,461.924 1065.29,470.191 1069.25,470.191 1069.25,477.511 1073.21,477.511 1073.21,483.879 1077.18,483.879 1077.18,463.943 1081.14,463.943 1081.14,443.844 1085.1,443.844 1085.1,423.844 1089.06,423.844 1089.06,404.194 1093.02,404.194 1093.02,385.136 1096.99,385.136 1096.99,392.256 1100.95,392.256 1100.95,399.644 1104.91,399.644 1104.91,407.262 1108.87,407.262 1108.87,415.066 1112.83,415.066 1112.83,423.008 1116.79,423.008 1116.79,405.677 1120.76,405.677 1120.76,389.131 1124.72,389.131 1124.72,373.536 1128.68,373.536 1128.68,359.033 1132.64,359.033 1132.64,345.742 1136.6,345.742 1136.6,333.753 1140.57,333.753 1140.57,323.133 1144.53,323.133 1144.53,313.919 1148.49,313.919 1148.49,306.121 1152.45,306.121 1152.45,299.722 1156.41,299.722 1156.41,294.681 1160.37,294.681 1160.37,290.93 1164.34,290.93 1164.34,288.38 1168.3,288.38 1168.3,286.924 1172.26,286.924 1172.26,286.435 1176.22,286.435 1176.22,286.774 1180.18,286.774 1180.18,287.79 1184.15,287.79 1184.15,289.324 1188.11,289.324 1188.11,291.215 1192.07,291.215 1192.07,293.298 1196.03,293.298 1196.03,320.775 1199.99,320.775 1199.99,347.379 1203.95,347.379 1203.95,372.747 1207.92,372.747 1207.92,396.548 1211.88,396.548 1211.88,418.491 1215.84,418.491 1215.84,438.329 1219.8,438.329 1219.8,455.863 1223.76,455.863 1223.76,470.942 1227.72,470.942 1227.72,483.469 1231.69,483.469 1231.69,493.396 1235.65,493.396 1235.65,500.729 1239.61,500.729 1239.61,505.522 1243.57,505.522 1243.57,507.877 1247.53,507.877 1247.53,507.939 1251.5,507.939 1251.5,505.893 1255.46,505.893 1255.46,501.959 1259.42,501.959 1259.42,496.386 1263.38,496.386 1263.38,489.447 1267.34,489.447 1267.34,481.433 1271.3,481.433 1271.3,472.646 1275.27,472.646 1275.27,463.392 1279.23,463.392 1279.23,453.98 1283.19,453.98 1283.19,444.706 1287.15,444.706 1287.15,435.859 1291.11,435.859 1291.11,427.706 1295.08,427.706 1295.08,420.494 1299.04,420.494 1299.04,414.441 1303,414.441 1303,409.737 1306.96,409.737 1306.96,406.537 1310.92,406.537 1310.92,404.961 1314.88,404.961 1314.88,405.094 1318.85,405.094 1318.85,406.982 1322.81,406.982 1322.81,410.635 1326.77,410.635 1326.77,416.027 1330.73,416.027 1330.73,423.098 1334.69,423.098 1334.69,406.391 1338.66,406.391 1338.66,391.895 1342.62,391.895 1342.62,379.678 1346.58,379.678 1346.58,369.762 1350.54,369.762 1350.54,362.125 1354.5,362.125 1354.5,356.702 1358.46,356.702 1358.46,353.389 1362.43,353.389 1362.43,352.044 1366.39,352.044 1366.39,352.492 1370.35,352.492 1370.35,354.529 1374.31,354.529 1374.31,383.292 1378.27,383.292 1378.27,412.423 1382.23,412.423 1382.23,441.448 1386.2,441.448 1386.2,469.906 1390.16,469.906 1390.16,497.361 1394.12,497.361 1394.12,523.407 1398.08,523.407 1398.08,547.679 1402.04,547.679 1402.04,569.854 1406.01,569.854 1406.01,589.66 1409.97,589.66 1409.97,606.88 1413.93,606.88 1413.93,595.987 1417.89,595.987 1417.89,582.989 1421.85,582.989 1421.85,568.054 1425.81,568.054 1425.81,551.388 1429.78,551.388 1429.78,533.225 1433.74,533.225 1433.74,539.185 1437.7,539.185 1437.7,543.436 1441.66,543.436 1441.66,546.048 1445.62,546.048 1445.62,547.124 1449.59,547.124 1449.59,546.792 1453.55,546.792 1453.55,519.837 1457.51,519.837 1457.51,492.541 1461.47,492.541 1461.47,465.305 1465.43,465.305 1465.43,438.519 1469.39,438.519 1469.39,412.552 1473.36,412.552 1473.36,387.75 1477.32,387.75 1477.32,364.427 1481.28,364.427 1481.28,342.859 1485.24,342.859 1485.24,323.28 1489.2,323.28 1489.2,305.882 1493.17,305.882 1493.17,290.807 1497.13,290.807 1497.13,278.15 1501.09,278.15 1501.09,267.956 1505.05,267.956 1505.05,260.224 1509.01,260.224 1509.01,254.901 1512.97,254.901 1512.97,251.895 1516.94,251.895 1516.94,251.069 1520.9,251.069 1520.9,252.249 1524.86,252.249 1524.86,255.229 1528.82,255.229 1528.82,259.773 1532.78,259.773 1532.78,265.625 1536.74,265.625 1536.74,272.509 1540.71,272.509 1540.71,280.141 1544.67,280.141 1544.67,288.231 1548.63,288.231 1548.63,296.488 1552.59,296.488 1552.59,329.992 1556.55,329.992 1556.55,362.363 1560.52,362.363 1560.52,393.128 1564.48,393.128 1564.48,421.862 1568.44,421.862 1568.44,448.19 1572.4,448.19 1572.4,471.793 1576.36,471.793 1576.36,492.415 1580.32,492.415 1580.32,509.864 1584.29,509.864 1584.29,524.016 1588.25,524.016 1588.25,534.813 1592.21,534.813 1592.21,516.902 1596.17,516.902 1596.17,496.467 1600.13,496.467 1600.13,473.856 1604.1,473.856 1604.1,449.456 1608.06,449.456 1608.06,423.674 1612.02,423.674 1612.02,422.3 1615.98,422.3 1615.98,419.656 1619.94,419.656 1619.94,415.959 1623.9,415.959 1623.9,411.435 1627.87,411.435 1627.87,406.323 1631.83,406.323 1631.83,400.863 1635.79,400.863 1635.79,395.294 1639.75,395.294 1639.75,389.848 1643.71,389.848 1643.71,384.748 1647.68,384.748 1647.68,380.201 1651.64,380.201 1651.64,376.397 1655.6,376.397 1655.6,373.504 1659.56,373.504 1659.56,371.666 1663.52,371.666 1663.52,371.001 1667.48,371.001 1667.48,371.599 1671.45,371.599 1671.45,348.158 1675.41,348.158 1675.41,326.823 1679.37,326.823 1679.37,307.811 1683.33,307.811 1683.33,291.294 1687.29,291.294 1687.29,277.386 1691.25,277.386 1691.25,266.151 1695.22,266.151 1695.22,257.598 1699.18,257.598 1699.18,251.686 1703.14,251.686 1703.14,248.324 1707.1,248.324 1707.1,247.373 1711.06,247.373 1711.06,248.655 1715.03,248.655 1715.03,251.952 1718.99,251.952 1718.99,257.015 1722.95,257.015 1722.95,263.57 1726.91,263.57 1726.91,271.321 1730.87,271.321 1730.87,305.323 1734.83,305.323 1734.83,339.15 1738.8,339.15 1738.8,372.269 1742.76,372.269 1742.76,404.176 1746.72,404.176 1746.72,434.405 1750.68,434.405 1750.68,437.171 1754.64,437.171 1754.64,438.216 1758.61,438.216 1758.61,437.446 1762.57,437.446 1762.57,434.806 1766.53,434.806 1766.53,430.28 1770.49,430.28 1770.49,449.257 1774.45,449.257 1774.45,465.687 1778.41,465.687 1778.41,479.449 1782.38,479.449 1782.38,490.477 1786.34,490.477 1786.34,498.761 1790.3,498.761 1790.3,478.979 1794.26,478.979 1794.26,457.335 1798.22,457.335 1798.22,434.183 1802.19,434.183 1802.19,409.902 1806.15,409.902 1806.15,384.878 1810.11,384.878 1810.11,359.506 1814.07,359.506 1814.07,334.175 1818.03,334.175 1818.03,309.263 1821.99,309.263 1821.99,285.131 1825.96,285.131 1825.96,262.113 1829.92,262.113 1829.92,265.877 1833.88,265.877 1833.88,270.582 1837.84,270.582 1837.84,276.242 1841.8,276.242 1841.8,282.847 1845.76,282.847 1845.76,290.371 1849.73,290.371 1849.73,298.769 1853.69,298.769 1853.69,307.976 1857.65,307.976 1857.65,317.915 1861.61,317.915 1861.61,328.493 1865.57,328.493 1865.57,339.609 1869.54,339.609 1869.54,325.788 1873.5,325.788 1873.5,313.021 1877.46,313.021 1877.46,301.403 1881.42,301.403 1881.42,291.005 1885.38,291.005 1885.38,281.871 1889.34,281.871 1889.34,274.023 1893.31,274.023 1893.31,267.456 1897.27,267.456 1897.27,262.141 1901.23,262.141 1901.23,258.029 1905.19,258.029 1905.19,255.047 1909.15,255.047 1909.15,253.104 1913.12,253.104 1913.12,252.094 1917.08,252.094 1917.08,251.894 1921.04,251.894 1921.04,252.373 1925,252.373 1925,253.39 1928.96,253.39 1928.96,254.798 1932.92,254.798 1932.92,256.449 1936.89,256.449 1936.89,258.196 1940.85,258.196 1940.85,259.893 1944.81,259.893 1944.81,261.403 1948.77,261.403 1948.77,262.597 1952.73,262.597 1952.73,263.358 1956.7,263.358 1956.7,263.579 1960.66,263.579 1960.66,263.172 1964.62,263.172 1964.62,262.06 1968.58,262.06 1968.58,260.189 1972.54,260.189 1972.54,257.517 1976.5,257.517 1976.5,254.024 1980.47,254.024 1980.47,249.705 1984.43,249.705 1984.43,244.575 1988.39,244.575 1988.39,238.662 1992.35,238.662 1992.35,232.013 1996.31,232.013 1996.31,224.687 2000.27,224.687 2000.27,216.755 2004.24,216.755 2004.24,208.302 2008.2,208.302 2008.2,199.417 2012.16,199.417 2012.16,190.2 2016.12,190.2 2016.12,180.752 2020.08,180.752 2020.08,171.18 2024.05,171.18 2024.05,161.587 2028.01,161.587 2028.01,152.078 2031.97,152.078 2031.97,142.752 2035.93,142.752 2035.93,133.703 2039.89,133.703 2039.89,125.017 2043.85,125.017 2043.85,116.772 2047.82,116.772 2047.82,109.035 2051.78,109.035 2051.78,101.863 2055.74,101.863 2055.74,95.3005 2059.7,95.3005 2059.7,89.3783 2063.66,89.3783 2063.66,84.116 2067.63,84.116 2067.63,79.5197 2071.59,79.5197 2071.59,75.5834 2075.55,75.5834 2075.55,72.2887 2079.51,72.2887 2079.51,69.6061 2083.47,69.6061 2083.47,67.4956 2087.43,67.4956 2087.43,65.9078 2091.4,65.9078 2091.4,64.7854 2095.36,64.7854 2095.36,64.0642 2099.32,64.0642 2099.32,63.6749 2103.28,63.6749 2103.28,63.5442 2107.24,63.5442 2107.24,63.5967 2111.21,63.5967 2111.21,63.7564 2115.17,63.7564 2115.17,63.9481 2119.13,63.9481 2119.13,64.0987 2123.09,64.0987 2123.09,64.139 2127.05,64.139 2127.05,89.3678 2131.01,89.3678 2131.01,113.616 2134.98,113.616 2134.98,136.617 2138.94,136.617 2138.94,158.134 2142.9,158.134 2142.9,177.963 2146.86,177.963 2146.86,195.94 2150.82,195.94 2150.82,211.941 2154.79,211.941 2154.79,225.879 2158.75,225.879 2158.75,237.712 2162.71,237.712 2162.71,247.439 2166.67,247.439 2166.67,229.732 2170.63,229.732 2170.63,210.778 2174.59,210.778 2174.59,190.905 2178.56,190.905 2178.56,170.448 2182.52,170.448 2182.52,149.745 2186.48,149.745 2186.48,154.495 2190.44,154.495 2190.44,158.909 2194.4,158.909 2194.4,163.08 2198.36,163.08 2198.36,167.097 2202.33,167.097 2202.33,171.05 2206.29,171.05 2206.29,175.026 2210.25,175.026 2210.25,179.106 2214.21,179.106 2214.21,183.367 2218.17,183.367 2218.17,187.878 2222.14,187.878 2222.14,192.697 2226.1,192.697 2226.1,197.876 2230.06,197.876 2230.06,203.455 2234.02,203.455 2234.02,209.465 2237.98,209.465 2237.98,215.923 2241.94,215.923 2241.94,222.839 2245.91,222.839 2245.91,230.21 2249.87,230.21 2249.87,238.023 2253.83,238.023 2253.83,246.255 2257.79,246.255 2257.79,254.874 2261.75,254.874 2261.75,263.841 2265.72,263.841 2265.72,273.11 2269.68,273.11 2269.68,282.626 2273.64,282.626 2273.64,292.333 2277.6,292.333 2277.6,302.17 2281.56,302.17 2281.56,312.074 2285.52,312.074 2285.52,321.982 2289.49,321.982 2289.49,331.829 2293.45,331.829 2293.45,341.554 "/>
<path clip-path="url(#clip160)" d="M257.204 1423.18 L2352.76 1423.18 L2352.76 847.244 L257.204 847.244  Z" fill="#ffffff" fill-rule="evenodd" fill-opacity="1"/>
<defs>
  <clipPath id="clip163">
    <rect x="257" y="847" width="2097" height="577"/>
  </clipPath>
</defs>
<polyline clip-path="url(#clip163)" style="stroke:#000000; stroke-linecap:round; stroke-linejoin:round; stroke-width:2; stroke-opacity:0.1; fill:none" points="316.512,1423.18 316.512,847.244 "/>
<polyline clip-path="url(#clip163)" style="stroke:#000000; stroke-linecap:round; stroke-linejoin:round; stroke-width:2; stroke-opacity:0.1; fill:none" points="712.692,1423.18 712.692,847.244 "/>
<polyline clip-path="url(#clip163)" style="stroke:#000000; stroke-linecap:round; stroke-linejoin:round; stroke-width:2; stroke-opacity:0.1; fill:none" points="1108.87,1423.18 1108.87,847.244 "/>
<polyline clip-path="url(#clip163)" style="stroke:#000000; stroke-linecap:round; stroke-linejoin:round; stroke-width:2; stroke-opacity:0.1; fill:none" points="1505.05,1423.18 1505.05,847.244 "/>
<polyline clip-path="url(#clip163)" style="stroke:#000000; stroke-linecap:round; stroke-linejoin:round; stroke-width:2; stroke-opacity:0.1; fill:none" points="1901.23,1423.18 1901.23,847.244 "/>
<polyline clip-path="url(#clip163)" style="stroke:#000000; stroke-linecap:round; stroke-linejoin:round; stroke-width:2; stroke-opacity:0.1; fill:none" points="2297.41,1423.18 2297.41,847.244 "/>
<polyline clip-path="url(#clip163)" style="stroke:#000000; stroke-linecap:round; stroke-linejoin:round; stroke-width:2; stroke-opacity:0.1; fill:none" points="257.204,1406.88 2352.76,1406.88 "/>
<polyline clip-path="url(#clip163)" style="stroke:#000000; stroke-linecap:round; stroke-linejoin:round; stroke-width:2; stroke-opacity:0.1; fill:none" points="257.204,1271.05 2352.76,1271.05 "/>
<polyline clip-path="url(#clip163)" style="stroke:#000000; stroke-linecap:round; stroke-linejoin:round; stroke-width:2; stroke-opacity:0.1; fill:none" points="257.204,1135.21 2352.76,1135.21 "/>
<polyline clip-path="url(#clip163)" style="stroke:#000000; stroke-linecap:round; stroke-linejoin:round; stroke-width:2; stroke-opacity:0.1; fill:none" points="257.204,999.378 2352.76,999.378 "/>
<polyline clip-path="url(#clip163)" style="stroke:#000000; stroke-linecap:round; stroke-linejoin:round; stroke-width:2; stroke-opacity:0.1; fill:none" points="257.204,863.544 2352.76,863.544 "/>
<polyline clip-path="url(#clip160)" style="stroke:#000000; stroke-linecap:round; stroke-linejoin:round; stroke-width:4; stroke-opacity:1; fill:none" points="257.204,1423.18 2352.76,1423.18 "/>
<polyline clip-path="url(#clip160)" style="stroke:#000000; stroke-linecap:round; stroke-linejoin:round; stroke-width:4; stroke-opacity:1; fill:none" points="316.512,1423.18 316.512,1404.28 "/>
<polyline clip-path="url(#clip160)" style="stroke:#000000; stroke-linecap:round; stroke-linejoin:round; stroke-width:4; stroke-opacity:1; fill:none" points="712.692,1423.18 712.692,1404.28 "/>
<polyline clip-path="url(#clip160)" style="stroke:#000000; stroke-linecap:round; stroke-linejoin:round; stroke-width:4; stroke-opacity:1; fill:none" points="1108.87,1423.18 1108.87,1404.28 "/>
<polyline clip-path="url(#clip160)" style="stroke:#000000; stroke-linecap:round; stroke-linejoin:round; stroke-width:4; stroke-opacity:1; fill:none" points="1505.05,1423.18 1505.05,1404.28 "/>
<polyline clip-path="url(#clip160)" style="stroke:#000000; stroke-linecap:round; stroke-linejoin:round; stroke-width:4; stroke-opacity:1; fill:none" points="1901.23,1423.18 1901.23,1404.28 "/>
<polyline clip-path="url(#clip160)" style="stroke:#000000; stroke-linecap:round; stroke-linejoin:round; stroke-width:4; stroke-opacity:1; fill:none" points="2297.41,1423.18 2297.41,1404.28 "/>
<path clip-path="url(#clip160)" d="M316.512 1454.1 Q312.901 1454.1 311.072 1457.66 Q309.267 1461.2 309.267 1468.33 Q309.267 1475.44 311.072 1479.01 Q312.901 1482.55 316.512 1482.55 Q320.146 1482.55 321.952 1479.01 Q323.781 1475.44 323.781 1468.33 Q323.781 1461.2 321.952 1457.66 Q320.146 1454.1 316.512 1454.1 M316.512 1450.39 Q322.322 1450.39 325.378 1455 Q328.456 1459.58 328.456 1468.33 Q328.456 1477.06 325.378 1481.67 Q322.322 1486.25 316.512 1486.25 Q310.702 1486.25 307.623 1481.67 Q304.568 1477.06 304.568 1468.33 Q304.568 1459.58 307.623 1455 Q310.702 1450.39 316.512 1450.39 Z" fill="#000000" fill-rule="nonzero" fill-opacity="1" /><path clip-path="url(#clip160)" d="M703.074 1481.64 L710.712 1481.64 L710.712 1455.28 L702.402 1456.95 L702.402 1452.69 L710.666 1451.02 L715.342 1451.02 L715.342 1481.64 L722.981 1481.64 L722.981 1485.58 L703.074 1485.58 L703.074 1481.64 Z" fill="#000000" fill-rule="nonzero" fill-opacity="1" /><path clip-path="url(#clip160)" d="M1103.52 1481.64 L1119.84 1481.64 L1119.84 1485.58 L1097.9 1485.58 L1097.9 1481.64 Q1100.56 1478.89 1105.14 1474.26 Q1109.75 1469.61 1110.93 1468.27 Q1113.18 1465.74 1114.06 1464.01 Q1114.96 1462.25 1114.96 1460.56 Q1114.96 1457.8 1113.01 1456.07 Q1111.09 1454.33 1107.99 1454.33 Q1105.79 1454.33 1103.34 1455.09 Q1100.91 1455.86 1098.13 1457.41 L1098.13 1452.69 Q1100.95 1451.55 1103.41 1450.97 Q1105.86 1450.39 1107.9 1450.39 Q1113.27 1450.39 1116.46 1453.08 Q1119.66 1455.77 1119.66 1460.26 Q1119.66 1462.39 1118.85 1464.31 Q1118.06 1466.2 1115.95 1468.8 Q1115.38 1469.47 1112.27 1472.69 Q1109.17 1475.88 1103.52 1481.64 Z" fill="#000000" fill-rule="nonzero" fill-opacity="1" /><path clip-path="url(#clip160)" d="M1509.3 1466.95 Q1512.65 1467.66 1514.53 1469.93 Q1516.43 1472.2 1516.43 1475.53 Q1516.43 1480.65 1512.91 1483.45 Q1509.39 1486.25 1502.91 1486.25 Q1500.73 1486.25 1498.42 1485.81 Q1496.13 1485.39 1493.67 1484.54 L1493.67 1480.02 Q1495.62 1481.16 1497.93 1481.74 Q1500.25 1482.32 1502.77 1482.32 Q1507.17 1482.32 1509.46 1480.58 Q1511.78 1478.84 1511.78 1475.53 Q1511.78 1472.48 1509.62 1470.77 Q1507.49 1469.03 1503.67 1469.03 L1499.65 1469.03 L1499.65 1465.19 L1503.86 1465.19 Q1507.31 1465.19 1509.14 1463.82 Q1510.96 1462.43 1510.96 1459.84 Q1510.96 1457.18 1509.07 1455.77 Q1507.19 1454.33 1503.67 1454.33 Q1501.75 1454.33 1499.55 1454.75 Q1497.35 1455.16 1494.72 1456.04 L1494.72 1451.88 Q1497.38 1451.14 1499.69 1450.77 Q1502.03 1450.39 1504.09 1450.39 Q1509.41 1450.39 1512.52 1452.83 Q1515.62 1455.23 1515.62 1459.35 Q1515.62 1462.22 1513.97 1464.21 Q1512.33 1466.18 1509.3 1466.95 Z" fill="#000000" fill-rule="nonzero" fill-opacity="1" /><path clip-path="url(#clip160)" d="M1904.24 1455.09 L1892.43 1473.54 L1904.24 1473.54 L1904.24 1455.09 M1903.01 1451.02 L1908.89 1451.02 L1908.89 1473.54 L1913.82 1473.54 L1913.82 1477.43 L1908.89 1477.43 L1908.89 1485.58 L1904.24 1485.58 L1904.24 1477.43 L1888.64 1477.43 L1888.64 1472.92 L1903.01 1451.02 Z" fill="#000000" fill-rule="nonzero" fill-opacity="1" /><path clip-path="url(#clip160)" d="M2287.69 1451.02 L2306.04 1451.02 L2306.04 1454.96 L2291.97 1454.96 L2291.97 1463.43 Q2292.99 1463.08 2294.01 1462.92 Q2295.03 1462.73 2296.04 1462.73 Q2301.83 1462.73 2305.21 1465.9 Q2308.59 1469.08 2308.59 1474.49 Q2308.59 1480.07 2305.12 1483.17 Q2301.65 1486.25 2295.33 1486.25 Q2293.15 1486.25 2290.88 1485.88 Q2288.64 1485.51 2286.23 1484.77 L2286.23 1480.07 Q2288.31 1481.2 2290.53 1481.76 Q2292.76 1482.32 2295.23 1482.32 Q2299.24 1482.32 2301.58 1480.21 Q2303.91 1478.1 2303.91 1474.49 Q2303.91 1470.88 2301.58 1468.77 Q2299.24 1466.67 2295.23 1466.67 Q2293.36 1466.67 2291.48 1467.08 Q2289.63 1467.5 2287.69 1468.38 L2287.69 1451.02 Z" fill="#000000" fill-rule="nonzero" fill-opacity="1" /><path clip-path="url(#clip160)" d="M1175.15 1520.52 L1215.35 1520.52 L1215.35 1525.93 L1198.48 1525.93 L1198.48 1568.04 L1192.02 1568.04 L1192.02 1525.93 L1175.15 1525.93 L1175.15 1520.52 Z" fill="#000000" fill-rule="nonzero" fill-opacity="1" /><path clip-path="url(#clip160)" d="M1219.3 1532.4 L1225.15 1532.4 L1225.15 1568.04 L1219.3 1568.04 L1219.3 1532.4 M1219.3 1518.52 L1225.15 1518.52 L1225.15 1525.93 L1219.3 1525.93 L1219.3 1518.52 Z" fill="#000000" fill-rule="nonzero" fill-opacity="1" /><path clip-path="url(#clip160)" d="M1265.16 1539.24 Q1267.36 1535.29 1270.41 1533.41 Q1273.47 1531.54 1277.61 1531.54 Q1283.18 1531.54 1286.2 1535.45 Q1289.22 1539.33 1289.22 1546.53 L1289.22 1568.04 L1283.34 1568.04 L1283.34 1546.72 Q1283.34 1541.59 1281.52 1539.11 Q1279.71 1536.63 1275.98 1536.63 Q1271.43 1536.63 1268.79 1539.65 Q1266.15 1542.68 1266.15 1547.9 L1266.15 1568.04 L1260.26 1568.04 L1260.26 1546.72 Q1260.26 1541.56 1258.45 1539.11 Q1256.63 1536.63 1252.84 1536.63 Q1248.36 1536.63 1245.72 1539.68 Q1243.07 1542.71 1243.07 1547.9 L1243.07 1568.04 L1237.19 1568.04 L1237.19 1532.4 L1243.07 1532.4 L1243.07 1537.93 Q1245.08 1534.66 1247.88 1533.1 Q1250.68 1531.54 1254.53 1531.54 Q1258.41 1531.54 1261.12 1533.51 Q1263.86 1535.48 1265.16 1539.24 Z" fill="#000000" fill-rule="nonzero" fill-opacity="1" /><path clip-path="url(#clip160)" d="M1331.4 1548.76 L1331.4 1551.62 L1304.47 1551.62 Q1304.85 1557.67 1308.1 1560.85 Q1311.38 1564 1317.2 1564 Q1320.58 1564 1323.73 1563.17 Q1326.91 1562.35 1330.03 1560.69 L1330.03 1566.23 Q1326.88 1567.57 1323.57 1568.27 Q1320.26 1568.97 1316.85 1568.97 Q1308.32 1568.97 1303.32 1564 Q1298.36 1559.04 1298.36 1550.57 Q1298.36 1541.82 1303.07 1536.69 Q1307.81 1531.54 1315.83 1531.54 Q1323.03 1531.54 1327.2 1536.18 Q1331.4 1540.8 1331.4 1548.76 M1325.54 1547.04 Q1325.48 1542.23 1322.84 1539.37 Q1320.23 1536.5 1315.9 1536.5 Q1311 1536.5 1308.04 1539.27 Q1305.11 1542.04 1304.66 1547.07 L1325.54 1547.04 Z" fill="#000000" fill-rule="nonzero" fill-opacity="1" /><path clip-path="url(#clip160)" d="M1375.8 1518.58 Q1371.53 1525.9 1369.46 1533.06 Q1367.4 1540.23 1367.4 1547.58 Q1367.4 1554.93 1369.46 1562.16 Q1371.57 1569.35 1375.8 1576.64 L1370.71 1576.64 Q1365.93 1569.16 1363.54 1561.93 Q1361.19 1554.71 1361.19 1547.58 Q1361.19 1540.48 1363.54 1533.29 Q1365.9 1526.09 1370.71 1518.58 L1375.8 1518.58 Z" fill="#000000" fill-rule="nonzero" fill-opacity="1" /><path clip-path="url(#clip160)" d="M1409.89 1533.45 L1409.89 1538.98 Q1407.4 1537.71 1404.73 1537.07 Q1402.06 1536.44 1399.19 1536.44 Q1394.83 1536.44 1392.64 1537.77 Q1390.47 1539.11 1390.47 1541.79 Q1390.47 1543.82 1392.03 1545 Q1393.59 1546.15 1398.3 1547.2 L1400.31 1547.64 Q1406.54 1548.98 1409.15 1551.43 Q1411.8 1553.85 1411.8 1558.21 Q1411.8 1563.17 1407.85 1566.07 Q1403.93 1568.97 1397.06 1568.97 Q1394.2 1568.97 1391.08 1568.39 Q1387.99 1567.85 1384.55 1566.74 L1384.55 1560.69 Q1387.8 1562.38 1390.95 1563.24 Q1394.1 1564.07 1397.19 1564.07 Q1401.32 1564.07 1403.55 1562.66 Q1405.78 1561.23 1405.78 1558.65 Q1405.78 1556.27 1404.16 1554.99 Q1402.57 1553.72 1397.12 1552.54 L1395.09 1552.07 Q1389.64 1550.92 1387.22 1548.56 Q1384.81 1546.18 1384.81 1542.04 Q1384.81 1537.01 1388.37 1534.27 Q1391.94 1531.54 1398.49 1531.54 Q1401.74 1531.54 1404.6 1532.01 Q1407.47 1532.49 1409.89 1533.45 Z" fill="#000000" fill-rule="nonzero" fill-opacity="1" /><path clip-path="url(#clip160)" d="M1420.2 1518.58 L1425.29 1518.58 Q1430.07 1526.09 1432.42 1533.29 Q1434.81 1540.48 1434.81 1547.58 Q1434.81 1554.71 1432.42 1561.93 Q1430.07 1569.16 1425.29 1576.64 L1420.2 1576.64 Q1424.43 1569.35 1426.5 1562.16 Q1428.6 1554.93 1428.6 1547.58 Q1428.6 1540.23 1426.5 1533.06 Q1424.43 1525.9 1420.2 1518.58 Z" fill="#000000" fill-rule="nonzero" fill-opacity="1" /><polyline clip-path="url(#clip160)" style="stroke:#000000; stroke-linecap:round; stroke-linejoin:round; stroke-width:4; stroke-opacity:1; fill:none" points="257.204,1423.18 257.204,847.244 "/>
<polyline clip-path="url(#clip160)" style="stroke:#000000; stroke-linecap:round; stroke-linejoin:round; stroke-width:4; stroke-opacity:1; fill:none" points="257.204,1406.88 276.102,1406.88 "/>
<polyline clip-path="url(#clip160)" style="stroke:#000000; stroke-linecap:round; stroke-linejoin:round; stroke-width:4; stroke-opacity:1; fill:none" points="257.204,1271.05 276.102,1271.05 "/>
<polyline clip-path="url(#clip160)" style="stroke:#000000; stroke-linecap:round; stroke-linejoin:round; stroke-width:4; stroke-opacity:1; fill:none" points="257.204,1135.21 276.102,1135.21 "/>
<polyline clip-path="url(#clip160)" style="stroke:#000000; stroke-linecap:round; stroke-linejoin:round; stroke-width:4; stroke-opacity:1; fill:none" points="257.204,999.378 276.102,999.378 "/>
<polyline clip-path="url(#clip160)" style="stroke:#000000; stroke-linecap:round; stroke-linejoin:round; stroke-width:4; stroke-opacity:1; fill:none" points="257.204,863.544 276.102,863.544 "/>
<path clip-path="url(#clip160)" d="M114.26 1407.33 L143.936 1407.33 L143.936 1411.27 L114.26 1411.27 L114.26 1407.33 Z" fill="#000000" fill-rule="nonzero" fill-opacity="1" /><path clip-path="url(#clip160)" d="M154.839 1420.22 L162.477 1420.22 L162.477 1393.86 L154.167 1395.53 L154.167 1391.27 L162.431 1389.6 L167.107 1389.6 L167.107 1420.22 L174.746 1420.22 L174.746 1424.16 L154.839 1424.16 L154.839 1420.22 Z" fill="#000000" fill-rule="nonzero" fill-opacity="1" /><path clip-path="url(#clip160)" d="M184.19 1418.28 L189.075 1418.28 L189.075 1424.16 L184.19 1424.16 L184.19 1418.28 Z" fill="#000000" fill-rule="nonzero" fill-opacity="1" /><path clip-path="url(#clip160)" d="M209.26 1392.68 Q205.649 1392.68 203.82 1396.24 Q202.014 1399.78 202.014 1406.91 Q202.014 1414.02 203.82 1417.59 Q205.649 1421.13 209.26 1421.13 Q212.894 1421.13 214.699 1417.59 Q216.528 1414.02 216.528 1406.91 Q216.528 1399.78 214.699 1396.24 Q212.894 1392.68 209.26 1392.68 M209.26 1388.97 Q215.07 1388.97 218.125 1393.58 Q221.204 1398.16 221.204 1406.91 Q221.204 1415.64 218.125 1420.25 Q215.07 1424.83 209.26 1424.83 Q203.449 1424.83 200.371 1420.25 Q197.315 1415.64 197.315 1406.91 Q197.315 1398.16 200.371 1393.58 Q203.449 1388.97 209.26 1388.97 Z" fill="#000000" fill-rule="nonzero" fill-opacity="1" /><path clip-path="url(#clip160)" d="M115.256 1271.5 L144.931 1271.5 L144.931 1275.43 L115.256 1275.43 L115.256 1271.5 Z" fill="#000000" fill-rule="nonzero" fill-opacity="1" /><path clip-path="url(#clip160)" d="M165.024 1256.84 Q161.413 1256.84 159.584 1260.41 Q157.778 1263.95 157.778 1271.08 Q157.778 1278.19 159.584 1281.75 Q161.413 1285.29 165.024 1285.29 Q168.658 1285.29 170.464 1281.75 Q172.292 1278.19 172.292 1271.08 Q172.292 1263.95 170.464 1260.41 Q168.658 1256.84 165.024 1256.84 M165.024 1253.14 Q170.834 1253.14 173.889 1257.75 Q176.968 1262.33 176.968 1271.08 Q176.968 1279.81 173.889 1284.41 Q170.834 1289 165.024 1289 Q159.214 1289 156.135 1284.41 Q153.079 1279.81 153.079 1271.08 Q153.079 1262.33 156.135 1257.75 Q159.214 1253.14 165.024 1253.14 Z" fill="#000000" fill-rule="nonzero" fill-opacity="1" /><path clip-path="url(#clip160)" d="M185.186 1282.45 L190.07 1282.45 L190.07 1288.33 L185.186 1288.33 L185.186 1282.45 Z" fill="#000000" fill-rule="nonzero" fill-opacity="1" /><path clip-path="url(#clip160)" d="M200.301 1253.77 L218.658 1253.77 L218.658 1257.7 L204.584 1257.7 L204.584 1266.17 Q205.602 1265.83 206.621 1265.66 Q207.639 1265.48 208.658 1265.48 Q214.445 1265.48 217.824 1268.65 Q221.204 1271.82 221.204 1277.24 Q221.204 1282.82 217.732 1285.92 Q214.26 1289 207.94 1289 Q205.764 1289 203.496 1288.63 Q201.25 1288.26 198.843 1287.52 L198.843 1282.82 Q200.926 1283.95 203.149 1284.51 Q205.371 1285.06 207.848 1285.06 Q211.852 1285.06 214.19 1282.96 Q216.528 1280.85 216.528 1277.24 Q216.528 1273.63 214.19 1271.52 Q211.852 1269.41 207.848 1269.41 Q205.973 1269.41 204.098 1269.83 Q202.246 1270.25 200.301 1271.13 L200.301 1253.77 Z" fill="#000000" fill-rule="nonzero" fill-opacity="1" /><path clip-path="url(#clip160)" d="M164.028 1121.01 Q160.417 1121.01 158.589 1124.58 Q156.783 1128.12 156.783 1135.25 Q156.783 1142.35 158.589 1145.92 Q160.417 1149.46 164.028 1149.46 Q167.663 1149.46 169.468 1145.92 Q171.297 1142.35 171.297 1135.25 Q171.297 1128.12 169.468 1124.58 Q167.663 1121.01 164.028 1121.01 M164.028 1117.31 Q169.839 1117.31 172.894 1121.91 Q175.973 1126.5 175.973 1135.25 Q175.973 1143.97 172.894 1148.58 Q169.839 1153.16 164.028 1153.16 Q158.218 1153.16 155.14 1148.58 Q152.084 1143.97 152.084 1135.25 Q152.084 1126.5 155.14 1121.91 Q158.218 1117.31 164.028 1117.31 Z" fill="#000000" fill-rule="nonzero" fill-opacity="1" /><path clip-path="url(#clip160)" d="M184.19 1146.61 L189.075 1146.61 L189.075 1152.49 L184.19 1152.49 L184.19 1146.61 Z" fill="#000000" fill-rule="nonzero" fill-opacity="1" /><path clip-path="url(#clip160)" d="M209.26 1121.01 Q205.649 1121.01 203.82 1124.58 Q202.014 1128.12 202.014 1135.25 Q202.014 1142.35 203.82 1145.92 Q205.649 1149.46 209.26 1149.46 Q212.894 1149.46 214.699 1145.92 Q216.528 1142.35 216.528 1135.25 Q216.528 1128.12 214.699 1124.58 Q212.894 1121.01 209.26 1121.01 M209.26 1117.31 Q215.07 1117.31 218.125 1121.91 Q221.204 1126.5 221.204 1135.25 Q221.204 1143.97 218.125 1148.58 Q215.07 1153.16 209.26 1153.16 Q203.449 1153.16 200.371 1148.58 Q197.315 1143.97 197.315 1135.25 Q197.315 1126.5 200.371 1121.91 Q203.449 1117.31 209.26 1117.31 Z" fill="#000000" fill-rule="nonzero" fill-opacity="1" /><path clip-path="url(#clip160)" d="M165.024 985.177 Q161.413 985.177 159.584 988.742 Q157.778 992.283 157.778 999.413 Q157.778 1006.52 159.584 1010.08 Q161.413 1013.63 165.024 1013.63 Q168.658 1013.63 170.464 1010.08 Q172.292 1006.52 172.292 999.413 Q172.292 992.283 170.464 988.742 Q168.658 985.177 165.024 985.177 M165.024 981.473 Q170.834 981.473 173.889 986.08 Q176.968 990.663 176.968 999.413 Q176.968 1008.14 173.889 1012.75 Q170.834 1017.33 165.024 1017.33 Q159.214 1017.33 156.135 1012.75 Q153.079 1008.14 153.079 999.413 Q153.079 990.663 156.135 986.08 Q159.214 981.473 165.024 981.473 Z" fill="#000000" fill-rule="nonzero" fill-opacity="1" /><path clip-path="url(#clip160)" d="M185.186 1010.78 L190.07 1010.78 L190.07 1016.66 L185.186 1016.66 L185.186 1010.78 Z" fill="#000000" fill-rule="nonzero" fill-opacity="1" /><path clip-path="url(#clip160)" d="M200.301 982.098 L218.658 982.098 L218.658 986.033 L204.584 986.033 L204.584 994.505 Q205.602 994.158 206.621 993.996 Q207.639 993.811 208.658 993.811 Q214.445 993.811 217.824 996.982 Q221.204 1000.15 221.204 1005.57 Q221.204 1011.15 217.732 1014.25 Q214.26 1017.33 207.94 1017.33 Q205.764 1017.33 203.496 1016.96 Q201.25 1016.59 198.843 1015.85 L198.843 1011.15 Q200.926 1012.28 203.149 1012.84 Q205.371 1013.39 207.848 1013.39 Q211.852 1013.39 214.19 1011.29 Q216.528 1009.18 216.528 1005.57 Q216.528 1001.96 214.19 999.853 Q211.852 997.746 207.848 997.746 Q205.973 997.746 204.098 998.163 Q202.246 998.579 200.301 999.459 L200.301 982.098 Z" fill="#000000" fill-rule="nonzero" fill-opacity="1" /><path clip-path="url(#clip160)" d="M154.839 876.889 L162.477 876.889 L162.477 850.523 L154.167 852.19 L154.167 847.931 L162.431 846.264 L167.107 846.264 L167.107 876.889 L174.746 876.889 L174.746 880.824 L154.839 880.824 L154.839 876.889 Z" fill="#000000" fill-rule="nonzero" fill-opacity="1" /><path clip-path="url(#clip160)" d="M184.19 874.945 L189.075 874.945 L189.075 880.824 L184.19 880.824 L184.19 874.945 Z" fill="#000000" fill-rule="nonzero" fill-opacity="1" /><path clip-path="url(#clip160)" d="M209.26 849.343 Q205.649 849.343 203.82 852.908 Q202.014 856.449 202.014 863.579 Q202.014 870.685 203.82 874.25 Q205.649 877.792 209.26 877.792 Q212.894 877.792 214.699 874.25 Q216.528 870.685 216.528 863.579 Q216.528 856.449 214.699 852.908 Q212.894 849.343 209.26 849.343 M209.26 845.639 Q215.07 845.639 218.125 850.246 Q221.204 854.829 221.204 863.579 Q221.204 872.306 218.125 876.912 Q215.07 881.495 209.26 881.495 Q203.449 881.495 200.371 876.912 Q197.315 872.306 197.315 863.579 Q197.315 854.829 200.371 850.246 Q203.449 845.639 209.26 845.639 Z" fill="#000000" fill-rule="nonzero" fill-opacity="1" /><path clip-path="url(#clip160)" d="M49.9359 1150.14 L28.3562 1150.14 L28.3562 1144.28 L49.7131 1144.28 Q54.7739 1144.28 57.3202 1142.31 Q59.8346 1140.34 59.8346 1136.39 Q59.8346 1131.65 56.8109 1128.91 Q53.7872 1126.14 48.5673 1126.14 L28.3562 1126.14 L28.3562 1120.28 L64.0042 1120.28 L64.0042 1126.14 L58.5296 1126.14 Q61.7762 1128.27 63.3676 1131.11 Q64.9272 1133.91 64.9272 1137.63 Q64.9272 1143.77 61.1078 1146.96 Q57.2883 1150.14 49.9359 1150.14 M27.4968 1135.4 L27.4968 1135.4 Z" fill="#000000" fill-rule="nonzero" fill-opacity="1" /><polyline clip-path="url(#clip163)" style="stroke:#009af9; stroke-linecap:round; stroke-linejoin:round; stroke-width:4; stroke-opacity:1; fill:none" points="316.512,1406.88 320.474,1406.88 324.436,1406.88 328.397,1406.88 332.359,1406.88 336.321,1406.88 340.283,1406.88 344.245,1406.88 348.206,1406.88 352.168,1406.88 356.13,1406.88 360.092,1406.88 364.054,1406.88 368.015,1406.88 371.977,1406.88 375.939,1406.88 379.901,1406.88 383.863,1406.88 387.824,1406.88 391.786,1406.88 395.748,1406.88 395.748,863.544 399.71,863.544 403.672,863.544 407.633,863.544 411.595,863.544 415.557,863.544 415.557,1406.88 419.519,1406.88 423.481,1406.88 427.442,1406.88 431.404,1406.88 435.366,1406.88 439.328,1406.88 443.29,1406.88 447.251,1406.88 451.213,1406.88 455.175,1406.88 455.175,863.544 459.137,863.544 463.099,863.544 467.06,863.544 471.022,863.544 474.984,863.544 474.984,1406.88 478.946,1406.88 482.907,1406.88 486.869,1406.88 490.831,1406.88 494.793,1406.88 498.755,1406.88 502.716,1406.88 506.678,1406.88 510.64,1406.88 514.602,1406.88 514.602,863.544 518.564,863.544 522.525,863.544 526.487,863.544 530.449,863.544 534.411,863.544 538.373,863.544 542.334,863.544 546.296,863.544 550.258,863.544 554.22,863.544 554.22,1406.88 558.182,1406.88 562.143,1406.88 566.105,1406.88 570.067,1406.88 574.029,1406.88 577.991,1406.88 581.952,1406.88 585.914,1406.88 589.876,1406.88 593.838,1406.88 597.8,1406.88 601.761,1406.88 605.723,1406.88 609.685,1406.88 613.647,1406.88 617.609,1406.88 621.57,1406.88 625.532,1406.88 629.494,1406.88 633.456,1406.88 633.456,863.544 637.418,863.544 641.379,863.544 645.341,863.544 649.303,863.544 653.265,863.544 657.226,863.544 661.188,863.544 665.15,863.544 669.112,863.544 673.074,863.544 677.035,863.544 680.997,863.544 684.959,863.544 688.921,863.544 692.883,863.544 692.883,1406.88 696.844,1406.88 700.806,1406.88 704.768,1406.88 708.73,1406.88 712.692,1406.88 716.653,1406.88 720.615,1406.88 724.577,1406.88 728.539,1406.88 732.501,1406.88 732.501,863.544 736.462,863.544 740.424,863.544 744.386,863.544 748.348,863.544 752.31,863.544 756.271,863.544 760.233,863.544 764.195,863.544 768.157,863.544 772.119,863.544 772.119,1406.88 776.08,1406.88 780.042,1406.88 784.004,1406.88 787.966,1406.88 791.928,1406.88 791.928,863.544 795.889,863.544 799.851,863.544 803.813,863.544 807.775,863.544 811.736,863.544 811.736,1406.88 815.698,1406.88 819.66,1406.88 823.622,1406.88 827.584,1406.88 831.545,1406.88 835.507,1406.88 839.469,1406.88 843.431,1406.88 847.393,1406.88 851.354,1406.88 855.316,1406.88 859.278,1406.88 863.24,1406.88 867.202,1406.88 871.163,1406.88 875.125,1406.88 879.087,1406.88 883.049,1406.88 887.011,1406.88 890.972,1406.88 890.972,863.544 894.934,863.544 898.896,863.544 902.858,863.544 906.82,863.544 910.781,863.544 914.743,863.544 918.705,863.544 922.667,863.544 926.629,863.544 930.59,863.544 930.59,1406.88 934.552,1406.88 938.514,1406.88 942.476,1406.88 946.438,1406.88 950.399,1406.88 950.399,863.544 954.361,863.544 958.323,863.544 962.285,863.544 966.246,863.544 970.208,863.544 970.208,1406.88 974.17,1406.88 978.132,1406.88 982.094,1406.88 986.055,1406.88 990.017,1406.88 990.017,863.544 993.979,863.544 997.941,863.544 1001.9,863.544 1005.86,863.544 1009.83,863.544 1013.79,863.544 1017.75,863.544 1021.71,863.544 1025.67,863.544 1029.64,863.544 1029.64,1406.88 1033.6,1406.88 1037.56,1406.88 1041.52,1406.88 1045.48,1406.88 1049.44,1406.88 1053.41,1406.88 1057.37,1406.88 1061.33,1406.88 1065.29,1406.88 1069.25,1406.88 1069.25,863.544 1073.21,863.544 1077.18,863.544 1081.14,863.544 1085.1,863.544 1089.06,863.544 1089.06,1406.88 1093.02,1406.88 1096.99,1406.88 1100.95,1406.88 1104.91,1406.88 1108.87,1406.88 1108.87,863.544 1112.83,863.544 1116.79,863.544 1120.76,863.544 1124.72,863.544 1128.68,863.544 1132.64,863.544 1136.6,863.544 1140.57,863.544 1144.53,863.544 1148.49,863.544 1152.45,863.544 1156.41,863.544 1160.37,863.544 1164.34,863.544 1168.3,863.544 1172.26,863.544 1176.22,863.544 1180.18,863.544 1184.15,863.544 1188.11,863.544 1188.11,1406.88 1192.07,1406.88 1196.03,1406.88 1199.99,1406.88 1203.95,1406.88 1207.92,1406.88 1211.88,1406.88 1215.84,1406.88 1219.8,1406.88 1223.76,1406.88 1227.72,1406.88 1231.69,1406.88 1235.65,1406.88 1239.61,1406.88 1243.57,1406.88 1247.53,1406.88 1251.5,1406.88 1255.46,1406.88 1259.42,1406.88 1263.38,1406.88 1267.34,1406.88 1271.3,1406.88 1275.27,1406.88 1279.23,1406.88 1283.19,1406.88 1287.15,1406.88 1291.11,1406.88 1295.08,1406.88 1299.04,1406.88 1303,1406.88 1306.96,1406.88 1310.92,1406.88 1314.88,1406.88 1318.85,1406.88 1322.81,1406.88 1326.77,1406.88 1326.77,863.544 1330.73,863.544 1334.69,863.544 1338.66,863.544 1342.62,863.544 1346.58,863.544 1350.54,863.544 1354.5,863.544 1358.46,863.544 1362.43,863.544 1366.39,863.544 1366.39,1406.88 1370.35,1406.88 1374.31,1406.88 1378.27,1406.88 1382.23,1406.88 1386.2,1406.88 1390.16,1406.88 1394.12,1406.88 1398.08,1406.88 1402.04,1406.88 1406.01,1406.88 1406.01,863.544 1409.97,863.544 1413.93,863.544 1417.89,863.544 1421.85,863.544 1425.81,863.544 1425.81,1406.88 1429.78,1406.88 1433.74,1406.88 1437.7,1406.88 1441.66,1406.88 1445.62,1406.88 1445.62,863.544 1449.59,863.544 1453.55,863.544 1457.51,863.544 1461.47,863.544 1465.43,863.544 1469.39,863.544 1473.36,863.544 1477.32,863.544 1481.28,863.544 1485.24,863.544 1489.2,863.544 1493.17,863.544 1497.13,863.544 1501.09,863.544 1505.05,863.544 1509.01,863.544 1512.97,863.544 1516.94,863.544 1520.9,863.544 1524.86,863.544 1528.82,863.544 1532.78,863.544 1536.74,863.544 1540.71,863.544 1544.67,863.544 1544.67,1406.88 1548.63,1406.88 1552.59,1406.88 1556.55,1406.88 1560.52,1406.88 1564.48,1406.88 1568.44,1406.88 1572.4,1406.88 1576.36,1406.88 1580.32,1406.88 1584.29,1406.88 1584.29,863.544 1588.25,863.544 1592.21,863.544 1596.17,863.544 1600.13,863.544 1604.1,863.544 1604.1,1406.88 1608.06,1406.88 1612.02,1406.88 1615.98,1406.88 1619.94,1406.88 1623.9,1406.88 1627.87,1406.88 1631.83,1406.88 1635.79,1406.88 1639.75,1406.88 1643.71,1406.88 1647.68,1406.88 1651.64,1406.88 1655.6,1406.88 1659.56,1406.88 1663.52,1406.88 1663.52,863.544 1667.48,863.544 1671.45,863.544 1675.41,863.544 1679.37,863.544 1683.33,863.544 1687.29,863.544 1691.25,863.544 1695.22,863.544 1699.18,863.544 1703.14,863.544 1707.1,863.544 1711.06,863.544 1715.03,863.544 1718.99,863.544 1722.95,863.544 1722.95,1406.88 1726.91,1406.88 1730.87,1406.88 1734.83,1406.88 1738.8,1406.88 1742.76,1406.88 1742.76,863.544 1746.72,863.544 1750.68,863.544 1754.64,863.544 1758.61,863.544 1762.57,863.544 1762.57,1406.88 1766.53,1406.88 1770.49,1406.88 1774.45,1406.88 1778.41,1406.88 1782.38,1406.88 1782.38,863.544 1786.34,863.544 1790.3,863.544 1794.26,863.544 1798.22,863.544 1802.19,863.544 1806.15,863.544 1810.11,863.544 1814.07,863.544 1818.03,863.544 1821.99,863.544 1821.99,1406.88 1825.96,1406.88 1829.92,1406.88 1833.88,1406.88 1837.84,1406.88 1841.8,1406.88 1845.76,1406.88 1849.73,1406.88 1853.69,1406.88 1857.65,1406.88 1861.61,1406.88 1861.61,863.544 1865.57,863.544 1869.54,863.544 1873.5,863.544 1877.46,863.544 1881.42,863.544 1885.38,863.544 1889.34,863.544 1893.31,863.544 1897.27,863.544 1901.23,863.544 1905.19,863.544 1909.15,863.544 1913.12,863.544 1917.08,863.544 1921.04,863.544 1925,863.544 1928.96,863.544 1932.92,863.544 1936.89,863.544 1940.85,863.544 1944.81,863.544 1948.77,863.544 1952.73,863.544 1956.7,863.544 1960.66,863.544 1964.62,863.544 1968.58,863.544 1972.54,863.544 1976.5,863.544 1980.47,863.544 1984.43,863.544 1988.39,863.544 1992.35,863.544 1996.31,863.544 2000.27,863.544 2004.24,863.544 2008.2,863.544 2012.16,863.544 2016.12,863.544 2020.08,863.544 2024.05,863.544 2028.01,863.544 2031.97,863.544 2035.93,863.544 2039.89,863.544 2043.85,863.544 2047.82,863.544 2051.78,863.544 2055.74,863.544 2059.7,863.544 2063.66,863.544 2067.63,863.544 2071.59,863.544 2075.55,863.544 2079.51,863.544 2083.47,863.544 2087.43,863.544 2091.4,863.544 2095.36,863.544 2099.32,863.544 2103.28,863.544 2107.24,863.544 2111.21,863.544 2115.17,863.544 2119.13,863.544 2119.13,1406.88 2123.09,1406.88 2127.05,1406.88 2131.01,1406.88 2134.98,1406.88 2138.94,1406.88 2142.9,1406.88 2146.86,1406.88 2150.82,1406.88 2154.79,1406.88 2158.75,1406.88 2158.75,863.544 2162.71,863.544 2166.67,863.544 2170.63,863.544 2174.59,863.544 2178.56,863.544 2178.56,1406.88 2182.52,1406.88 2186.48,1406.88 2190.44,1406.88 2194.4,1406.88 2198.36,1406.88 2202.33,1406.88 2206.29,1406.88 2210.25,1406.88 2214.21,1406.88 2218.17,1406.88 2222.14,1406.88 2226.1,1406.88 2230.06,1406.88 2234.02,1406.88 2237.98,1406.88 2241.94,1406.88 2245.91,1406.88 2249.87,1406.88 2253.83,1406.88 2257.79,1406.88 2261.75,1406.88 2265.72,1406.88 2269.68,1406.88 2273.64,1406.88 2277.6,1406.88 2281.56,1406.88 2285.52,1406.88 2289.49,1406.88 2293.45,1406.88 "/>
</svg>
