<?xml version="1.0" encoding="utf-8"?>
<svg xmlns="http://www.w3.org/2000/svg" xmlns:xlink="http://www.w3.org/1999/xlink" width="600" height="400" viewBox="0 0 2400 1600">
<defs>
  <clipPath id="clip100">
    <rect x="0" y="0" width="2400" height="1600"/>
  </clipPath>
</defs>
<path clip-path="url(#clip100)" d="M0 1600 L2400 1600 L2400 0 L0 0  Z" fill="#ffffff" fill-rule="evenodd" fill-opacity="1"/>
<defs>
  <clipPath id="clip101">
    <rect x="480" y="0" width="1681" height="1600"/>
  </clipPath>
</defs>
<path clip-path="url(#clip100)" d="M287.366 1423.18 L2352.76 1423.18 L2352.76 47.2441 L287.366 47.2441  Z" fill="#ffffff" fill-rule="evenodd" fill-opacity="1"/>
<defs>
  <clipPath id="clip102">
    <rect x="287" y="47" width="2066" height="1377"/>
  </clipPath>
</defs>
<polyline clip-path="url(#clip102)" style="stroke:#000000; stroke-linecap:round; stroke-linejoin:round; stroke-width:2; stroke-opacity:0.1; fill:none" points="345.82,1423.18 345.82,47.2441 "/>
<polyline clip-path="url(#clip102)" style="stroke:#000000; stroke-linecap:round; stroke-linejoin:round; stroke-width:2; stroke-opacity:0.1; fill:none" points="736.298,1423.18 736.298,47.2441 "/>
<polyline clip-path="url(#clip102)" style="stroke:#000000; stroke-linecap:round; stroke-linejoin:round; stroke-width:2; stroke-opacity:0.1; fill:none" points="1126.77,1423.18 1126.77,47.2441 "/>
<polyline clip-path="url(#clip102)" style="stroke:#000000; stroke-linecap:round; stroke-linejoin:round; stroke-width:2; stroke-opacity:0.1; fill:none" points="1517.25,1423.18 1517.25,47.2441 "/>
<polyline clip-path="url(#clip102)" style="stroke:#000000; stroke-linecap:round; stroke-linejoin:round; stroke-width:2; stroke-opacity:0.1; fill:none" points="1907.73,1423.18 1907.73,47.2441 "/>
<polyline clip-path="url(#clip102)" style="stroke:#000000; stroke-linecap:round; stroke-linejoin:round; stroke-width:2; stroke-opacity:0.1; fill:none" points="2298.21,1423.18 2298.21,47.2441 "/>
<polyline clip-path="url(#clip102)" style="stroke:#000000; stroke-linecap:round; stroke-linejoin:round; stroke-width:2; stroke-opacity:0.1; fill:none" points="287.366,1368.51 2352.76,1368.51 "/>
<polyline clip-path="url(#clip102)" style="stroke:#000000; stroke-linecap:round; stroke-linejoin:round; stroke-width:2; stroke-opacity:0.1; fill:none" points="287.366,1160.35 2352.76,1160.35 "/>
<polyline clip-path="url(#clip102)" style="stroke:#000000; stroke-linecap:round; stroke-linejoin:round; stroke-width:2; stroke-opacity:0.1; fill:none" points="287.366,952.2 2352.76,952.2 "/>
<polyline clip-path="url(#clip102)" style="stroke:#000000; stroke-linecap:round; stroke-linejoin:round; stroke-width:2; stroke-opacity:0.1; fill:none" points="287.366,744.048 2352.76,744.048 "/>
<polyline clip-path="url(#clip102)" style="stroke:#000000; stroke-linecap:round; stroke-linejoin:round; stroke-width:2; stroke-opacity:0.1; fill:none" points="287.366,535.896 2352.76,535.896 "/>
<polyline clip-path="url(#clip102)" style="stroke:#000000; stroke-linecap:round; stroke-linejoin:round; stroke-width:2; stroke-opacity:0.1; fill:none" points="287.366,327.743 2352.76,327.743 "/>
<polyline clip-path="url(#clip102)" style="stroke:#000000; stroke-linecap:round; stroke-linejoin:round; stroke-width:2; stroke-opacity:0.1; fill:none" points="287.366,119.591 2352.76,119.591 "/>
<polyline clip-path="url(#clip100)" style="stroke:#000000; stroke-linecap:round; stroke-linejoin:round; stroke-width:4; stroke-opacity:1; fill:none" points="287.366,1423.18 2352.76,1423.18 "/>
<polyline clip-path="url(#clip100)" style="stroke:#000000; stroke-linecap:round; stroke-linejoin:round; stroke-width:4; stroke-opacity:1; fill:none" points="345.82,1423.18 345.82,1404.28 "/>
<polyline clip-path="url(#clip100)" style="stroke:#000000; stroke-linecap:round; stroke-linejoin:round; stroke-width:4; stroke-opacity:1; fill:none" points="736.298,1423.18 736.298,1404.28 "/>
<polyline clip-path="url(#clip100)" style="stroke:#000000; stroke-linecap:round; stroke-linejoin:round; stroke-width:4; stroke-opacity:1; fill:none" points="1126.77,1423.18 1126.77,1404.28 "/>
<polyline clip-path="url(#clip100)" style="stroke:#000000; stroke-linecap:round; stroke-linejoin:round; stroke-width:4; stroke-opacity:1; fill:none" points="1517.25,1423.18 1517.25,1404.28 "/>
<polyline clip-path="url(#clip100)" style="stroke:#000000; stroke-linecap:round; stroke-linejoin:round; stroke-width:4; stroke-opacity:1; fill:none" points="1907.73,1423.18 1907.73,1404.28 "/>
<polyline clip-path="url(#clip100)" style="stroke:#000000; stroke-linecap:round; stroke-linejoin:round; stroke-width:4; stroke-opacity:1; fill:none" points="2298.21,1423.18 2298.21,1404.28 "/>
<path clip-path="url(#clip100)" d="M345.82 1454.1 Q342.209 1454.1 340.381 1457.66 Q338.575 1461.2 338.575 1468.33 Q338.575 1475.44 340.381 1479.01 Q342.209 1482.55 345.82 1482.55 Q349.455 1482.55 351.26 1479.01 Q353.089 1475.44 353.089 1468.33 Q353.089 1461.2 351.26 1457.66 Q349.455 1454.1 345.82 1454.1 M345.82 1450.39 Q351.63 1450.39 354.686 1455 Q357.765 1459.58 357.765 1468.33 Q357.765 1477.06 354.686 1481.67 Q351.63 1486.25 345.82 1486.25 Q340.01 1486.25 336.931 1481.67 Q333.876 1477.06 333.876 1468.33 Q333.876 1459.58 336.931 1455 Q340.01 1450.39 345.82 1450.39 Z" fill="#000000" fill-rule="nonzero" fill-opacity="1" /><path clip-path="url(#clip100)" d="M726.68 1481.64 L734.318 1481.64 L734.318 1455.28 L726.008 1456.95 L726.008 1452.69 L734.272 1451.02 L738.948 1451.02 L738.948 1481.64 L746.587 1481.64 L746.587 1485.58 L726.68 1485.58 L726.68 1481.64 Z" fill="#000000" fill-rule="nonzero" fill-opacity="1" /><path clip-path="url(#clip100)" d="M1121.43 1481.64 L1137.75 1481.64 L1137.75 1485.58 L1115.8 1485.58 L1115.8 1481.64 Q1118.46 1478.89 1123.05 1474.26 Q1127.65 1469.61 1128.83 1468.27 Q1131.08 1465.74 1131.96 1464.01 Q1132.86 1462.25 1132.86 1460.56 Q1132.86 1457.8 1130.92 1456.07 Q1129 1454.33 1125.9 1454.33 Q1123.7 1454.33 1121.24 1455.09 Q1118.81 1455.86 1116.03 1457.41 L1116.03 1452.69 Q1118.86 1451.55 1121.31 1450.97 Q1123.77 1450.39 1125.8 1450.39 Q1131.17 1450.39 1134.37 1453.08 Q1137.56 1455.77 1137.56 1460.26 Q1137.56 1462.39 1136.75 1464.31 Q1135.96 1466.2 1133.86 1468.8 Q1133.28 1469.47 1130.18 1472.69 Q1127.08 1475.88 1121.43 1481.64 Z" fill="#000000" fill-rule="nonzero" fill-opacity="1" /><path clip-path="url(#clip100)" d="M1521.5 1466.95 Q1524.86 1467.66 1526.73 1469.93 Q1528.63 1472.2 1528.63 1475.53 Q1528.63 1480.65 1525.11 1483.45 Q1521.59 1486.25 1515.11 1486.25 Q1512.93 1486.25 1510.62 1485.81 Q1508.33 1485.39 1505.87 1484.54 L1505.87 1480.02 Q1507.82 1481.16 1510.13 1481.74 Q1512.45 1482.32 1514.97 1482.32 Q1519.37 1482.32 1521.66 1480.58 Q1523.98 1478.84 1523.98 1475.53 Q1523.98 1472.48 1521.82 1470.77 Q1519.69 1469.03 1515.87 1469.03 L1511.85 1469.03 L1511.85 1465.19 L1516.06 1465.19 Q1519.51 1465.19 1521.34 1463.82 Q1523.17 1462.43 1523.17 1459.84 Q1523.17 1457.18 1521.27 1455.77 Q1519.39 1454.33 1515.87 1454.33 Q1513.95 1454.33 1511.75 1454.75 Q1509.56 1455.16 1506.92 1456.04 L1506.92 1451.88 Q1509.58 1451.14 1511.89 1450.77 Q1514.23 1450.39 1516.29 1450.39 Q1521.62 1450.39 1524.72 1452.83 Q1527.82 1455.23 1527.82 1459.35 Q1527.82 1462.22 1526.18 1464.21 Q1524.53 1466.18 1521.5 1466.95 Z" fill="#000000" fill-rule="nonzero" fill-opacity="1" /><path clip-path="url(#clip100)" d="M1910.74 1455.09 L1898.93 1473.54 L1910.74 1473.54 L1910.74 1455.09 M1909.51 1451.02 L1915.39 1451.02 L1915.39 1473.54 L1920.32 1473.54 L1920.32 1477.43 L1915.39 1477.43 L1915.39 1485.58 L1910.74 1485.58 L1910.74 1477.43 L1895.14 1477.43 L1895.14 1472.92 L1909.51 1451.02 Z" fill="#000000" fill-rule="nonzero" fill-opacity="1" /><path clip-path="url(#clip100)" d="M2288.48 1451.02 L2306.84 1451.02 L2306.84 1454.96 L2292.77 1454.96 L2292.77 1463.43 Q2293.78 1463.08 2294.8 1462.92 Q2295.82 1462.73 2296.84 1462.73 Q2302.63 1462.73 2306.01 1465.9 Q2309.39 1469.08 2309.39 1474.49 Q2309.39 1480.07 2305.91 1483.17 Q2302.44 1486.25 2296.12 1486.25 Q2293.95 1486.25 2291.68 1485.88 Q2289.43 1485.51 2287.03 1484.77 L2287.03 1480.07 Q2289.11 1481.2 2291.33 1481.76 Q2293.55 1482.32 2296.03 1482.32 Q2300.03 1482.32 2302.37 1480.21 Q2304.71 1478.1 2304.71 1474.49 Q2304.71 1470.88 2302.37 1468.77 Q2300.03 1466.67 2296.03 1466.67 Q2294.16 1466.67 2292.28 1467.08 Q2290.43 1467.5 2288.48 1468.38 L2288.48 1451.02 Z" fill="#000000" fill-rule="nonzero" fill-opacity="1" /><path clip-path="url(#clip100)" d="M1190.23 1520.52 L1230.43 1520.52 L1230.43 1525.93 L1213.56 1525.93 L1213.56 1568.04 L1207.1 1568.04 L1207.1 1525.93 L1190.23 1525.93 L1190.23 1520.52 Z" fill="#000000" fill-rule="nonzero" fill-opacity="1" /><path clip-path="url(#clip100)" d="M1234.38 1532.4 L1240.23 1532.4 L1240.23 1568.04 L1234.38 1568.04 L1234.38 1532.4 M1234.38 1518.52 L1240.23 1518.52 L1240.23 1525.93 L1234.38 1525.93 L1234.38 1518.52 Z" fill="#000000" fill-rule="nonzero" fill-opacity="1" /><path clip-path="url(#clip100)" d="M1280.24 1539.24 Q1282.44 1535.29 1285.5 1533.41 Q1288.55 1531.54 1292.69 1531.54 Q1298.26 1531.54 1301.28 1535.45 Q1304.31 1539.33 1304.31 1546.53 L1304.31 1568.04 L1298.42 1568.04 L1298.42 1546.72 Q1298.42 1541.59 1296.6 1539.11 Q1294.79 1536.63 1291.07 1536.63 Q1286.51 1536.63 1283.87 1539.65 Q1281.23 1542.68 1281.23 1547.9 L1281.23 1568.04 L1275.34 1568.04 L1275.34 1546.72 Q1275.34 1541.56 1273.53 1539.11 Q1271.71 1536.63 1267.93 1536.63 Q1263.44 1536.63 1260.8 1539.68 Q1258.15 1542.71 1258.15 1547.9 L1258.15 1568.04 L1252.27 1568.04 L1252.27 1532.4 L1258.15 1532.4 L1258.15 1537.93 Q1260.16 1534.66 1262.96 1533.1 Q1265.76 1531.54 1269.61 1531.54 Q1273.5 1531.54 1276.2 1533.51 Q1278.94 1535.48 1280.24 1539.24 Z" fill="#000000" fill-rule="nonzero" fill-opacity="1" /><path clip-path="url(#clip100)" d="M1346.48 1548.76 L1346.48 1551.62 L1319.55 1551.62 Q1319.93 1557.67 1323.18 1560.85 Q1326.46 1564 1332.28 1564 Q1335.66 1564 1338.81 1563.17 Q1341.99 1562.35 1345.11 1560.69 L1345.11 1566.23 Q1341.96 1567.57 1338.65 1568.27 Q1335.34 1568.97 1331.93 1568.97 Q1323.4 1568.97 1318.41 1564 Q1313.44 1559.04 1313.44 1550.57 Q1313.44 1541.82 1318.15 1536.69 Q1322.89 1531.54 1330.91 1531.54 Q1338.11 1531.54 1342.28 1536.18 Q1346.48 1540.8 1346.48 1548.76 M1340.62 1547.04 Q1340.56 1542.23 1337.92 1539.37 Q1335.31 1536.5 1330.98 1536.5 Q1326.08 1536.5 1323.12 1539.27 Q1320.19 1542.04 1319.74 1547.07 L1340.62 1547.04 Z" fill="#000000" fill-rule="nonzero" fill-opacity="1" /><path clip-path="url(#clip100)" d="M1376.27 1518.52 L1389.77 1518.52 L1389.77 1523.07 L1382.13 1523.07 L1382.13 1572.09 L1389.77 1572.09 L1389.77 1576.64 L1376.27 1576.64 L1376.27 1518.52 Z" fill="#000000" fill-rule="nonzero" fill-opacity="1" /><path clip-path="url(#clip100)" d="M1424.97 1533.45 L1424.97 1538.98 Q1422.49 1537.71 1419.81 1537.07 Q1417.14 1536.44 1414.27 1536.44 Q1409.91 1536.44 1407.72 1537.77 Q1405.55 1539.11 1405.55 1541.79 Q1405.55 1543.82 1407.11 1545 Q1408.67 1546.15 1413.38 1547.2 L1415.39 1547.64 Q1421.63 1548.98 1424.24 1551.43 Q1426.88 1553.85 1426.88 1558.21 Q1426.88 1563.17 1422.93 1566.07 Q1419.02 1568.97 1412.14 1568.97 Q1409.28 1568.97 1406.16 1568.39 Q1403.07 1567.85 1399.63 1566.74 L1399.63 1560.69 Q1402.88 1562.38 1406.03 1563.24 Q1409.18 1564.07 1412.27 1564.07 Q1416.41 1564.07 1418.63 1562.66 Q1420.86 1561.23 1420.86 1558.65 Q1420.86 1556.27 1419.24 1554.99 Q1417.65 1553.72 1412.2 1552.54 L1410.17 1552.07 Q1404.72 1550.92 1402.31 1548.56 Q1399.89 1546.18 1399.89 1542.04 Q1399.89 1537.01 1403.45 1534.27 Q1407.02 1531.54 1413.57 1531.54 Q1416.82 1531.54 1419.68 1532.01 Q1422.55 1532.49 1424.97 1533.45 Z" fill="#000000" fill-rule="nonzero" fill-opacity="1" /><path clip-path="url(#clip100)" d="M1449.89 1518.52 L1449.89 1576.64 L1436.39 1576.64 L1436.39 1572.09 L1444 1572.09 L1444 1523.07 L1436.39 1523.07 L1436.39 1518.52 L1449.89 1518.52 Z" fill="#000000" fill-rule="nonzero" fill-opacity="1" /><polyline clip-path="url(#clip100)" style="stroke:#000000; stroke-linecap:round; stroke-linejoin:round; stroke-width:4; stroke-opacity:1; fill:none" points="287.366,1423.18 287.366,47.2441 "/>
<polyline clip-path="url(#clip100)" style="stroke:#000000; stroke-linecap:round; stroke-linejoin:round; stroke-width:4; stroke-opacity:1; fill:none" points="287.366,1368.51 306.264,1368.51 "/>
<polyline clip-path="url(#clip100)" style="stroke:#000000; stroke-linecap:round; stroke-linejoin:round; stroke-width:4; stroke-opacity:1; fill:none" points="287.366,1160.35 306.264,1160.35 "/>
<polyline clip-path="url(#clip100)" style="stroke:#000000; stroke-linecap:round; stroke-linejoin:round; stroke-width:4; stroke-opacity:1; fill:none" points="287.366,952.2 306.264,952.2 "/>
<polyline clip-path="url(#clip100)" style="stroke:#000000; stroke-linecap:round; stroke-linejoin:round; stroke-width:4; stroke-opacity:1; fill:none" points="287.366,744.048 306.264,744.048 "/>
<polyline clip-path="url(#clip100)" style="stroke:#000000; stroke-linecap:round; stroke-linejoin:round; stroke-width:4; stroke-opacity:1; fill:none" points="287.366,535.896 306.264,535.896 "/>
<polyline clip-path="url(#clip100)" style="stroke:#000000; stroke-linecap:round; stroke-linejoin:round; stroke-width:4; stroke-opacity:1; fill:none" points="287.366,327.743 306.264,327.743 "/>
<polyline clip-path="url(#clip100)" style="stroke:#000000; stroke-linecap:round; stroke-linejoin:round; stroke-width:4; stroke-opacity:1; fill:none" points="287.366,119.591 306.264,119.591 "/>
<path clip-path="url(#clip100)" d="M115.256 1368.96 L144.931 1368.96 L144.931 1372.89 L115.256 1372.89 L115.256 1368.96 Z" fill="#000000" fill-rule="nonzero" fill-opacity="1" /><path clip-path="url(#clip100)" d="M165.024 1354.3 Q161.413 1354.3 159.584 1357.87 Q157.778 1361.41 157.778 1368.54 Q157.778 1375.65 159.584 1379.21 Q161.413 1382.75 165.024 1382.75 Q168.658 1382.75 170.464 1379.21 Q172.292 1375.65 172.292 1368.54 Q172.292 1361.41 170.464 1357.87 Q168.658 1354.3 165.024 1354.3 M165.024 1350.6 Q170.834 1350.6 173.889 1355.21 Q176.968 1359.79 176.968 1368.54 Q176.968 1377.27 173.889 1381.87 Q170.834 1386.46 165.024 1386.46 Q159.214 1386.46 156.135 1381.87 Q153.079 1377.27 153.079 1368.54 Q153.079 1359.79 156.135 1355.21 Q159.214 1350.6 165.024 1350.6 Z" fill="#000000" fill-rule="nonzero" fill-opacity="1" /><path clip-path="url(#clip100)" d="M185.186 1379.91 L190.07 1379.91 L190.07 1385.79 L185.186 1385.79 L185.186 1379.91 Z" fill="#000000" fill-rule="nonzero" fill-opacity="1" /><path clip-path="url(#clip100)" d="M201.065 1381.85 L208.704 1381.85 L208.704 1355.48 L200.394 1357.15 L200.394 1352.89 L208.658 1351.23 L213.334 1351.23 L213.334 1381.85 L220.973 1381.85 L220.973 1385.79 L201.065 1385.79 L201.065 1381.85 Z" fill="#000000" fill-rule="nonzero" fill-opacity="1" /><path clip-path="url(#clip100)" d="M230.463 1351.23 L248.82 1351.23 L248.82 1355.16 L234.746 1355.16 L234.746 1363.63 Q235.764 1363.29 236.783 1363.12 Q237.801 1362.94 238.82 1362.94 Q244.607 1362.94 247.986 1366.11 Q251.366 1369.28 251.366 1374.7 Q251.366 1380.28 247.894 1383.38 Q244.421 1386.46 238.102 1386.46 Q235.926 1386.46 233.658 1386.09 Q231.412 1385.72 229.005 1384.98 L229.005 1380.28 Q231.088 1381.41 233.31 1381.97 Q235.533 1382.52 238.009 1382.52 Q242.014 1382.52 244.352 1380.41 Q246.69 1378.31 246.69 1374.7 Q246.69 1371.09 244.352 1368.98 Q242.014 1366.87 238.009 1366.87 Q236.135 1366.87 234.26 1367.29 Q232.408 1367.71 230.463 1368.59 L230.463 1351.23 Z" fill="#000000" fill-rule="nonzero" fill-opacity="1" /><path clip-path="url(#clip100)" d="M114.26 1160.8 L143.936 1160.8 L143.936 1164.74 L114.26 1164.74 L114.26 1160.8 Z" fill="#000000" fill-rule="nonzero" fill-opacity="1" /><path clip-path="url(#clip100)" d="M164.028 1146.15 Q160.417 1146.15 158.589 1149.72 Q156.783 1153.26 156.783 1160.39 Q156.783 1167.49 158.589 1171.06 Q160.417 1174.6 164.028 1174.6 Q167.663 1174.6 169.468 1171.06 Q171.297 1167.49 171.297 1160.39 Q171.297 1153.26 169.468 1149.72 Q167.663 1146.15 164.028 1146.15 M164.028 1142.45 Q169.839 1142.45 172.894 1147.05 Q175.973 1151.64 175.973 1160.39 Q175.973 1169.11 172.894 1173.72 Q169.839 1178.3 164.028 1178.3 Q158.218 1178.3 155.14 1173.72 Q152.084 1169.11 152.084 1160.39 Q152.084 1151.64 155.14 1147.05 Q158.218 1142.45 164.028 1142.45 Z" fill="#000000" fill-rule="nonzero" fill-opacity="1" /><path clip-path="url(#clip100)" d="M184.19 1171.75 L189.075 1171.75 L189.075 1177.63 L184.19 1177.63 L184.19 1171.75 Z" fill="#000000" fill-rule="nonzero" fill-opacity="1" /><path clip-path="url(#clip100)" d="M200.07 1173.7 L207.709 1173.7 L207.709 1147.33 L199.399 1149 L199.399 1144.74 L207.662 1143.07 L212.338 1143.07 L212.338 1173.7 L219.977 1173.7 L219.977 1177.63 L200.07 1177.63 L200.07 1173.7 Z" fill="#000000" fill-rule="nonzero" fill-opacity="1" /><path clip-path="url(#clip100)" d="M239.422 1146.15 Q235.81 1146.15 233.982 1149.72 Q232.176 1153.26 232.176 1160.39 Q232.176 1167.49 233.982 1171.06 Q235.81 1174.6 239.422 1174.6 Q243.056 1174.6 244.861 1171.06 Q246.69 1167.49 246.69 1160.39 Q246.69 1153.26 244.861 1149.72 Q243.056 1146.15 239.422 1146.15 M239.422 1142.45 Q245.232 1142.45 248.287 1147.05 Q251.366 1151.64 251.366 1160.39 Q251.366 1169.11 248.287 1173.72 Q245.232 1178.3 239.422 1178.3 Q233.611 1178.3 230.533 1173.72 Q227.477 1169.11 227.477 1160.39 Q227.477 1151.64 230.533 1147.05 Q233.611 1142.45 239.422 1142.45 Z" fill="#000000" fill-rule="nonzero" fill-opacity="1" /><path clip-path="url(#clip100)" d="M115.256 952.652 L144.931 952.652 L144.931 956.587 L115.256 956.587 L115.256 952.652 Z" fill="#000000" fill-rule="nonzero" fill-opacity="1" /><path clip-path="url(#clip100)" d="M165.024 937.999 Q161.413 937.999 159.584 941.564 Q157.778 945.106 157.778 952.235 Q157.778 959.342 159.584 962.906 Q161.413 966.448 165.024 966.448 Q168.658 966.448 170.464 962.906 Q172.292 959.342 172.292 952.235 Q172.292 945.106 170.464 941.564 Q168.658 937.999 165.024 937.999 M165.024 934.296 Q170.834 934.296 173.889 938.902 Q176.968 943.485 176.968 952.235 Q176.968 960.962 173.889 965.568 Q170.834 970.152 165.024 970.152 Q159.214 970.152 156.135 965.568 Q153.079 960.962 153.079 952.235 Q153.079 943.485 156.135 938.902 Q159.214 934.296 165.024 934.296 Z" fill="#000000" fill-rule="nonzero" fill-opacity="1" /><path clip-path="url(#clip100)" d="M185.186 963.601 L190.07 963.601 L190.07 969.48 L185.186 969.48 L185.186 963.601 Z" fill="#000000" fill-rule="nonzero" fill-opacity="1" /><path clip-path="url(#clip100)" d="M210.255 937.999 Q206.644 937.999 204.815 941.564 Q203.01 945.106 203.01 952.235 Q203.01 959.342 204.815 962.906 Q206.644 966.448 210.255 966.448 Q213.889 966.448 215.695 962.906 Q217.523 959.342 217.523 952.235 Q217.523 945.106 215.695 941.564 Q213.889 937.999 210.255 937.999 M210.255 934.296 Q216.065 934.296 219.121 938.902 Q222.199 943.485 222.199 952.235 Q222.199 960.962 219.121 965.568 Q216.065 970.152 210.255 970.152 Q204.445 970.152 201.366 965.568 Q198.311 960.962 198.311 952.235 Q198.311 943.485 201.366 938.902 Q204.445 934.296 210.255 934.296 Z" fill="#000000" fill-rule="nonzero" fill-opacity="1" /><path clip-path="url(#clip100)" d="M230.463 934.92 L248.82 934.92 L248.82 938.856 L234.746 938.856 L234.746 947.328 Q235.764 946.981 236.783 946.819 Q237.801 946.633 238.82 946.633 Q244.607 946.633 247.986 949.805 Q251.366 952.976 251.366 958.393 Q251.366 963.971 247.894 967.073 Q244.421 970.152 238.102 970.152 Q235.926 970.152 233.658 969.781 Q231.412 969.411 229.005 968.67 L229.005 963.971 Q231.088 965.106 233.31 965.661 Q235.533 966.217 238.009 966.217 Q242.014 966.217 244.352 964.11 Q246.69 962.004 246.69 958.393 Q246.69 954.782 244.352 952.675 Q242.014 950.569 238.009 950.569 Q236.135 950.569 234.26 950.985 Q232.408 951.402 230.463 952.282 L230.463 934.92 Z" fill="#000000" fill-rule="nonzero" fill-opacity="1" /><path clip-path="url(#clip100)" d="M164.028 729.847 Q160.417 729.847 158.589 733.412 Q156.783 736.953 156.783 744.083 Q156.783 751.189 158.589 754.754 Q160.417 758.296 164.028 758.296 Q167.663 758.296 169.468 754.754 Q171.297 751.189 171.297 744.083 Q171.297 736.953 169.468 733.412 Q167.663 729.847 164.028 729.847 M164.028 726.143 Q169.839 726.143 172.894 730.75 Q175.973 735.333 175.973 744.083 Q175.973 752.81 172.894 757.416 Q169.839 761.999 164.028 761.999 Q158.218 761.999 155.14 757.416 Q152.084 752.81 152.084 744.083 Q152.084 735.333 155.14 730.75 Q158.218 726.143 164.028 726.143 Z" fill="#000000" fill-rule="nonzero" fill-opacity="1" /><path clip-path="url(#clip100)" d="M184.19 755.449 L189.075 755.449 L189.075 761.328 L184.19 761.328 L184.19 755.449 Z" fill="#000000" fill-rule="nonzero" fill-opacity="1" /><path clip-path="url(#clip100)" d="M209.26 729.847 Q205.649 729.847 203.82 733.412 Q202.014 736.953 202.014 744.083 Q202.014 751.189 203.82 754.754 Q205.649 758.296 209.26 758.296 Q212.894 758.296 214.699 754.754 Q216.528 751.189 216.528 744.083 Q216.528 736.953 214.699 733.412 Q212.894 729.847 209.26 729.847 M209.26 726.143 Q215.07 726.143 218.125 730.75 Q221.204 735.333 221.204 744.083 Q221.204 752.81 218.125 757.416 Q215.07 761.999 209.26 761.999 Q203.449 761.999 200.371 757.416 Q197.315 752.81 197.315 744.083 Q197.315 735.333 200.371 730.75 Q203.449 726.143 209.26 726.143 Z" fill="#000000" fill-rule="nonzero" fill-opacity="1" /><path clip-path="url(#clip100)" d="M239.422 729.847 Q235.81 729.847 233.982 733.412 Q232.176 736.953 232.176 744.083 Q232.176 751.189 233.982 754.754 Q235.81 758.296 239.422 758.296 Q243.056 758.296 244.861 754.754 Q246.69 751.189 246.69 744.083 Q246.69 736.953 244.861 733.412 Q243.056 729.847 239.422 729.847 M239.422 726.143 Q245.232 726.143 248.287 730.75 Q251.366 735.333 251.366 744.083 Q251.366 752.81 248.287 757.416 Q245.232 761.999 239.422 761.999 Q233.611 761.999 230.533 757.416 Q227.477 752.81 227.477 744.083 Q227.477 735.333 230.533 730.75 Q233.611 726.143 239.422 726.143 Z" fill="#000000" fill-rule="nonzero" fill-opacity="1" /><path clip-path="url(#clip100)" d="M165.024 521.694 Q161.413 521.694 159.584 525.259 Q157.778 528.801 157.778 535.93 Q157.778 543.037 159.584 546.602 Q161.413 550.143 165.024 550.143 Q168.658 550.143 170.464 546.602 Q172.292 543.037 172.292 535.93 Q172.292 528.801 170.464 525.259 Q168.658 521.694 165.024 521.694 M165.024 517.991 Q170.834 517.991 173.889 522.597 Q176.968 527.181 176.968 535.93 Q176.968 544.657 173.889 549.264 Q170.834 553.847 165.024 553.847 Q159.214 553.847 156.135 549.264 Q153.079 544.657 153.079 535.93 Q153.079 527.181 156.135 522.597 Q159.214 517.991 165.024 517.991 Z" fill="#000000" fill-rule="nonzero" fill-opacity="1" /><path clip-path="url(#clip100)" d="M185.186 547.296 L190.07 547.296 L190.07 553.176 L185.186 553.176 L185.186 547.296 Z" fill="#000000" fill-rule="nonzero" fill-opacity="1" /><path clip-path="url(#clip100)" d="M210.255 521.694 Q206.644 521.694 204.815 525.259 Q203.01 528.801 203.01 535.93 Q203.01 543.037 204.815 546.602 Q206.644 550.143 210.255 550.143 Q213.889 550.143 215.695 546.602 Q217.523 543.037 217.523 535.93 Q217.523 528.801 215.695 525.259 Q213.889 521.694 210.255 521.694 M210.255 517.991 Q216.065 517.991 219.121 522.597 Q222.199 527.181 222.199 535.93 Q222.199 544.657 219.121 549.264 Q216.065 553.847 210.255 553.847 Q204.445 553.847 201.366 549.264 Q198.311 544.657 198.311 535.93 Q198.311 527.181 201.366 522.597 Q204.445 517.991 210.255 517.991 Z" fill="#000000" fill-rule="nonzero" fill-opacity="1" /><path clip-path="url(#clip100)" d="M230.463 518.616 L248.82 518.616 L248.82 522.551 L234.746 522.551 L234.746 531.023 Q235.764 530.676 236.783 530.514 Q237.801 530.329 238.82 530.329 Q244.607 530.329 247.986 533.5 Q251.366 536.671 251.366 542.088 Q251.366 547.667 247.894 550.768 Q244.421 553.847 238.102 553.847 Q235.926 553.847 233.658 553.477 Q231.412 553.106 229.005 552.366 L229.005 547.667 Q231.088 548.801 233.31 549.356 Q235.533 549.912 238.009 549.912 Q242.014 549.912 244.352 547.805 Q246.69 545.699 246.69 542.088 Q246.69 538.477 244.352 536.37 Q242.014 534.264 238.009 534.264 Q236.135 534.264 234.26 534.681 Q232.408 535.097 230.463 535.977 L230.463 518.616 Z" fill="#000000" fill-rule="nonzero" fill-opacity="1" /><path clip-path="url(#clip100)" d="M164.028 313.542 Q160.417 313.542 158.589 317.107 Q156.783 320.649 156.783 327.778 Q156.783 334.885 158.589 338.449 Q160.417 341.991 164.028 341.991 Q167.663 341.991 169.468 338.449 Q171.297 334.885 171.297 327.778 Q171.297 320.649 169.468 317.107 Q167.663 313.542 164.028 313.542 M164.028 309.838 Q169.839 309.838 172.894 314.445 Q175.973 319.028 175.973 327.778 Q175.973 336.505 172.894 341.111 Q169.839 345.695 164.028 345.695 Q158.218 345.695 155.14 341.111 Q152.084 336.505 152.084 327.778 Q152.084 319.028 155.14 314.445 Q158.218 309.838 164.028 309.838 Z" fill="#000000" fill-rule="nonzero" fill-opacity="1" /><path clip-path="url(#clip100)" d="M184.19 339.144 L189.075 339.144 L189.075 345.023 L184.19 345.023 L184.19 339.144 Z" fill="#000000" fill-rule="nonzero" fill-opacity="1" /><path clip-path="url(#clip100)" d="M200.07 341.088 L207.709 341.088 L207.709 314.723 L199.399 316.389 L199.399 312.13 L207.662 310.463 L212.338 310.463 L212.338 341.088 L219.977 341.088 L219.977 345.023 L200.07 345.023 L200.07 341.088 Z" fill="#000000" fill-rule="nonzero" fill-opacity="1" /><path clip-path="url(#clip100)" d="M239.422 313.542 Q235.81 313.542 233.982 317.107 Q232.176 320.649 232.176 327.778 Q232.176 334.885 233.982 338.449 Q235.81 341.991 239.422 341.991 Q243.056 341.991 244.861 338.449 Q246.69 334.885 246.69 327.778 Q246.69 320.649 244.861 317.107 Q243.056 313.542 239.422 313.542 M239.422 309.838 Q245.232 309.838 248.287 314.445 Q251.366 319.028 251.366 327.778 Q251.366 336.505 248.287 341.111 Q245.232 345.695 239.422 345.695 Q233.611 345.695 230.533 341.111 Q227.477 336.505 227.477 327.778 Q227.477 319.028 230.533 314.445 Q233.611 309.838 239.422 309.838 Z" fill="#000000" fill-rule="nonzero" fill-opacity="1" /><path clip-path="url(#clip100)" d="M165.024 105.39 Q161.413 105.39 159.584 108.955 Q157.778 112.496 157.778 119.626 Q157.778 126.732 159.584 130.297 Q161.413 133.839 165.024 133.839 Q168.658 133.839 170.464 130.297 Q172.292 126.732 172.292 119.626 Q172.292 112.496 170.464 108.955 Q168.658 105.39 165.024 105.39 M165.024 101.686 Q170.834 101.686 173.889 106.293 Q176.968 110.876 176.968 119.626 Q176.968 128.353 173.889 132.959 Q170.834 137.542 165.024 137.542 Q159.214 137.542 156.135 132.959 Q153.079 128.353 153.079 119.626 Q153.079 110.876 156.135 106.293 Q159.214 101.686 165.024 101.686 Z" fill="#000000" fill-rule="nonzero" fill-opacity="1" /><path clip-path="url(#clip100)" d="M185.186 130.991 L190.07 130.991 L190.07 136.871 L185.186 136.871 L185.186 130.991 Z" fill="#000000" fill-rule="nonzero" fill-opacity="1" /><path clip-path="url(#clip100)" d="M201.065 132.936 L208.704 132.936 L208.704 106.57 L200.394 108.237 L200.394 103.978 L208.658 102.311 L213.334 102.311 L213.334 132.936 L220.973 132.936 L220.973 136.871 L201.065 136.871 L201.065 132.936 Z" fill="#000000" fill-rule="nonzero" fill-opacity="1" /><path clip-path="url(#clip100)" d="M230.463 102.311 L248.82 102.311 L248.82 106.246 L234.746 106.246 L234.746 114.718 Q235.764 114.371 236.783 114.209 Q237.801 114.024 238.82 114.024 Q244.607 114.024 247.986 117.195 Q251.366 120.367 251.366 125.783 Q251.366 131.362 247.894 134.464 Q244.421 137.542 238.102 137.542 Q235.926 137.542 233.658 137.172 Q231.412 136.802 229.005 136.061 L229.005 131.362 Q231.088 132.496 233.31 133.052 Q235.533 133.607 238.009 133.607 Q242.014 133.607 244.352 131.501 Q246.69 129.394 246.69 125.783 Q246.69 122.172 244.352 120.066 Q242.014 117.959 238.009 117.959 Q236.135 117.959 234.26 118.376 Q232.408 118.792 230.463 119.672 L230.463 102.311 Z" fill="#000000" fill-rule="nonzero" fill-opacity="1" /><path clip-path="url(#clip100)" d="M20.8447 823.791 Q20.8447 830.793 26.0645 834.931 Q31.2844 839.037 40.2919 839.037 Q49.2675 839.037 54.4874 834.931 Q59.7073 830.793 59.7073 823.791 Q59.7073 816.788 54.4874 812.714 Q49.2675 808.609 40.2919 808.609 Q31.2844 808.609 26.0645 812.714 Q20.8447 816.788 20.8447 823.791 M15.6248 823.791 Q15.6248 813.797 22.3406 807.813 Q29.0246 801.829 40.2919 801.829 Q51.5274 801.829 58.2432 807.813 Q64.9272 813.797 64.9272 823.791 Q64.9272 833.817 58.2432 839.832 Q51.5592 845.816 40.2919 845.816 Q29.0246 845.816 22.3406 839.832 Q15.6248 833.817 15.6248 823.791 Z" fill="#000000" fill-rule="nonzero" fill-opacity="1" /><path clip-path="url(#clip100)" d="M49.9359 792.631 L28.3562 792.631 L28.3562 786.774 L49.7131 786.774 Q54.7739 786.774 57.3202 784.801 Q59.8346 782.827 59.8346 778.881 Q59.8346 774.138 56.8109 771.401 Q53.7872 768.632 48.5673 768.632 L28.3562 768.632 L28.3562 762.775 L64.0042 762.775 L64.0042 768.632 L58.5296 768.632 Q61.7762 770.764 63.3676 773.597 Q64.9272 776.398 64.9272 780.122 Q64.9272 786.265 61.1078 789.448 Q57.2883 792.631 49.9359 792.631 M27.4968 777.894 L27.4968 777.894 Z" fill="#000000" fill-rule="nonzero" fill-opacity="1" /><path clip-path="url(#clip100)" d="M18.2347 744.92 L28.3562 744.92 L28.3562 732.857 L32.9077 732.857 L32.9077 744.92 L52.2594 744.92 Q56.6199 744.92 57.8613 743.742 Q59.1026 742.533 59.1026 738.872 L59.1026 732.857 L64.0042 732.857 L64.0042 738.872 Q64.0042 745.652 61.4897 748.23 Q58.9434 750.808 52.2594 750.808 L32.9077 750.808 L32.9077 755.105 L28.3562 755.105 L28.3562 750.808 L18.2347 750.808 L18.2347 744.92 Z" fill="#000000" fill-rule="nonzero" fill-opacity="1" /><path clip-path="url(#clip100)" d="M58.657 719.489 L77.5631 719.489 L77.5631 725.377 L28.3562 725.377 L28.3562 719.489 L33.7671 719.489 Q30.5842 717.643 29.0564 714.842 Q27.4968 712.009 27.4968 708.094 Q27.4968 701.601 32.6531 697.559 Q37.8093 693.485 46.212 693.485 Q54.6147 693.485 59.771 697.559 Q64.9272 701.601 64.9272 708.094 Q64.9272 712.009 63.3994 714.842 Q61.8398 717.643 58.657 719.489 M46.212 699.564 Q39.7508 699.564 36.0905 702.238 Q32.3984 704.879 32.3984 709.526 Q32.3984 714.173 36.0905 716.847 Q39.7508 719.489 46.212 719.489 Q52.6732 719.489 56.3653 716.847 Q60.0256 714.173 60.0256 709.526 Q60.0256 704.879 56.3653 702.238 Q52.6732 699.564 46.212 699.564 Z" fill="#000000" fill-rule="nonzero" fill-opacity="1" /><path clip-path="url(#clip100)" d="M49.9359 684.382 L28.3562 684.382 L28.3562 678.525 L49.7131 678.525 Q54.7739 678.525 57.3202 676.552 Q59.8346 674.579 59.8346 670.632 Q59.8346 665.889 56.8109 663.152 Q53.7872 660.383 48.5673 660.383 L28.3562 660.383 L28.3562 654.527 L64.0042 654.527 L64.0042 660.383 L58.5296 660.383 Q61.7762 662.516 63.3676 665.348 Q64.9272 668.149 64.9272 671.873 Q64.9272 678.016 61.1078 681.199 Q57.2883 684.382 49.9359 684.382 M27.4968 669.645 L27.4968 669.645 Z" fill="#000000" fill-rule="nonzero" fill-opacity="1" /><path clip-path="url(#clip100)" d="M18.2347 636.671 L28.3562 636.671 L28.3562 624.608 L32.9077 624.608 L32.9077 636.671 L52.2594 636.671 Q56.6199 636.671 57.8613 635.493 Q59.1026 634.284 59.1026 630.623 L59.1026 624.608 L64.0042 624.608 L64.0042 630.623 Q64.0042 637.403 61.4897 639.981 Q58.9434 642.559 52.2594 642.559 L32.9077 642.559 L32.9077 646.856 L28.3562 646.856 L28.3562 642.559 L18.2347 642.559 L18.2347 636.671 Z" fill="#000000" fill-rule="nonzero" fill-opacity="1" /><polyline clip-path="url(#clip102)" style="stroke:#009af9; stroke-linecap:round; stroke-linejoin:round; stroke-width:4; stroke-opacity:1; fill:none" points="345.82,744.048 349.725,744.048 353.63,744.048 353.63,702.899 357.535,702.899 357.535,662.962 361.439,662.962 361.439,624.587 365.344,624.587 365.344,588.088 369.249,588.088 369.249,553.736 373.154,553.736 373.154,521.756 377.059,521.756 377.059,492.324 380.963,492.324 380.963,465.561 384.868,465.561 384.868,441.542 388.773,441.542 388.773,420.283 392.678,420.283 392.678,401.754 396.582,401.754 396.582,385.874 400.487,385.874 400.487,372.514 404.392,372.514 404.392,361.506 408.297,361.506 408.297,352.642 412.201,352.642 412.201,427.982 416.106,427.982 416.106,502.536 420.011,502.536 420.011,575.316 423.916,575.316 423.916,645.392 427.821,645.392 427.821,711.913 431.725,711.913 431.725,691.818 435.63,691.818 435.63,669.17 439.535,669.17 439.535,644.125 443.44,644.125 443.44,616.885 447.344,616.885 447.344,587.69 451.249,587.69 451.249,639.118 455.154,639.118 455.154,686.749 459.059,686.749 459.059,730.211 462.963,730.211 462.963,769.217 466.868,769.217 466.868,803.573 470.773,803.573 470.773,833.179 474.678,833.179 474.678,858.025 478.583,858.025 478.583,878.193 482.487,878.193 482.487,893.847 486.392,893.847 486.392,905.233 490.297,905.233 490.297,912.67 494.202,912.67 494.202,916.54 498.106,916.54 498.106,917.28 502.011,917.28 502.011,915.371 505.916,915.371 505.916,911.329 509.821,911.329 509.821,823.393 513.726,823.393 513.726,736.836 517.63,736.836 517.63,652.91 521.535,652.91 521.535,572.78 525.44,572.78 525.44,497.507 529.345,497.507 529.345,428.031 533.249,428.031 533.249,365.152 537.154,365.152 537.154,309.521 541.059,309.521 541.059,261.631 544.964,261.631 544.964,221.812 548.868,221.812 548.868,190.23 552.773,190.23 552.773,166.887 556.678,166.887 556.678,151.628 560.583,151.628 560.583,144.144 564.488,144.144 564.488,143.991 568.392,143.991 568.392,150.592 572.297,150.592 572.297,163.262 576.202,163.262 576.202,181.218 580.107,181.218 580.107,203.601 584.011,203.601 584.011,229.494 587.916,229.494 587.916,257.939 591.821,257.939 591.821,287.963 595.726,287.963 595.726,318.592 599.631,318.592 599.631,348.872 603.535,348.872 603.535,377.888 607.44,377.888 607.44,487.08 611.345,487.08 611.345,590.935 615.25,590.935 615.25,688.047 619.154,688.047 619.154,777.178 623.059,777.178 623.059,857.281 626.964,857.281 626.964,845.213 630.869,845.213 630.869,825.066 634.773,825.066 634.773,797.133 638.678,797.133 638.678,761.853 642.583,761.853 642.583,719.8 646.488,719.8 646.488,753.969 650.393,753.969 650.393,780.432 654.297,780.432 654.297,799.368 658.202,799.368 658.202,811.096 662.107,811.096 662.107,816.059 666.012,816.059 666.012,814.819 669.916,814.819 669.916,808.037 673.821,808.037 673.821,796.459 677.726,796.459 677.726,780.899 681.631,780.899 681.631,762.221 685.535,762.221 685.535,741.321 689.44,741.321 689.44,719.106 693.345,719.106 693.345,696.479 697.25,696.479 697.25,674.322 701.155,674.322 701.155,653.473 705.059,653.473 705.059,552.422 708.964,552.422 708.964,456.607 712.869,456.607 712.869,367.367 716.774,367.367 716.774,285.875 720.678,285.875 720.678,213.119 724.583,213.119 724.583,232.19 728.488,232.19 728.488,258.952 732.393,258.952 732.393,293.075 736.298,293.075 736.298,334.092 740.202,334.092 740.202,381.41 744.107,381.41 744.107,434.325 748.012,434.325 748.012,492.038 751.917,492.038 751.917,553.678 755.821,553.678 755.821,618.317 759.726,618.317 759.726,684.991 763.631,684.991 763.631,752.722 767.536,752.722 767.536,820.534 771.44,820.534 771.44,887.477 775.345,887.477 775.345,952.641 779.25,952.641 779.25,1015.17 783.155,1015.17 783.155,1074.3 787.06,1074.3 787.06,1129.32 790.964,1129.32 790.964,1179.64 794.869,1179.64 794.869,1224.78 798.774,1224.78 798.774,1264.35 802.679,1264.35 802.679,1215.81 806.583,1215.81 806.583,1163.73 810.488,1163.73 810.488,1108.8 814.393,1108.8 814.393,1051.73 818.298,1051.73 818.298,993.259 822.202,993.259 822.202,1016.45 826.107,1016.45 826.107,1037.33 830.012,1037.33 830.012,1055.92 833.917,1055.92 833.917,1072.29 837.822,1072.29 837.822,1086.56 841.726,1086.56 841.726,1016.55 845.631,1016.55 845.631,947.166 849.536,947.166 849.536,879.311 853.441,879.311 853.441,813.829 857.345,813.829 857.345,751.501 861.25,751.501 861.25,693.026 865.155,693.026 865.155,639.013 869.06,639.013 869.06,589.967 872.965,589.967 872.965,546.285 876.869,546.285 876.869,508.252 880.774,508.252 880.774,558.337 884.679,558.337 884.679,611.869 888.584,611.869 888.584,668.088 892.488,668.088 892.488,726.2 896.393,726.2 896.393,785.394 900.298,785.394 900.298,844.855 904.203,844.855 904.203,903.785 908.107,903.785 908.107,961.417 912.012,961.417 912.012,1017.03 915.917,1017.03 915.917,1069.95 919.822,1069.95 919.822,1037.28 923.727,1037.28 923.727,1003.24 927.631,1003.24 927.631,968.09 931.536,968.09 931.536,932.113 935.441,932.113 935.441,895.612 939.346,895.612 939.346,941.191 943.25,941.191 943.25,984.431 947.155,984.431 947.155,1024.93 951.06,1024.93 951.06,1062.35 954.965,1062.35 954.965,1096.41 958.87,1096.41 958.87,1126.91 962.774,1126.91 962.774,1153.72 966.679,1153.72 966.679,1176.78 970.584,1176.78 970.584,1196.11 974.489,1196.11 974.489,1211.79 978.393,1211.79 978.393,1223.96 982.298,1223.96 982.298,1232.85 986.203,1232.85 986.203,1238.7 990.108,1238.7 990.108,1241.84 994.012,1241.84 994.012,1242.63 997.917,1242.63 997.917,1159.14 1001.82,1159.14 1001.82,1076.52 1005.73,1076.52 1005.73,995.882 1009.63,995.882 1009.63,918.297 1013.54,918.297 1013.54,844.734 1017.44,844.734 1017.44,858.361 1021.35,858.361 1021.35,875.207 1025.25,875.207 1025.25,895.194 1029.16,895.194 1029.16,918.183 1033.06,918.183 1033.06,943.974 1036.96,943.974 1036.96,972.316 1040.87,972.316 1040.87,1002.91 1044.77,1002.91 1044.77,1035.42 1048.68,1035.42 1048.68,1069.49 1052.58,1069.49 1052.58,1104.71 1056.49,1104.71 1056.49,1058.38 1060.39,1058.38 1060.39,1014.82 1064.3,1014.82 1064.3,974.328 1068.2,974.328 1068.2,937.118 1072.11,937.118 1072.11,903.358 1076.01,903.358 1076.01,873.14 1079.92,873.14 1079.92,846.49 1083.82,846.49 1083.82,823.369 1087.73,823.369 1087.73,803.671 1091.63,803.671 1091.63,787.234 1095.54,787.234 1095.54,856.136 1099.44,856.136 1099.44,925.387 1103.35,925.387 1103.35,993.976 1107.25,993.976 1107.25,1060.93 1111.16,1060.93 1111.16,1125.34 1115.06,1125.34 1115.06,1186.36 1118.97,1186.36 1118.97,1243.24 1122.87,1243.24 1122.87,1295.33 1126.77,1295.33 1126.77,1342.08 1130.68,1342.08 1130.68,1383.08 1134.58,1383.08 1134.58,1335.71 1138.49,1335.71 1138.49,1284.53 1142.39,1284.53 1142.39,1230.18 1146.3,1230.18 1146.3,1173.36 1150.2,1173.36 1150.2,1114.79 1154.11,1114.79 1154.11,1055.23 1158.01,1055.23 1158.01,995.426 1161.92,995.426 1161.92,936.107 1165.82,936.107 1165.82,877.983 1169.73,877.983 1169.73,821.724 1173.63,821.724 1173.63,767.946 1177.54,767.946 1177.54,717.202 1181.44,717.202 1181.44,669.976 1185.35,669.976 1185.35,626.669 1189.25,626.669 1189.25,587.599 1193.16,587.599 1193.16,635.295 1197.06,635.295 1197.06,685.173 1200.97,685.173 1200.97,736.579 1204.87,736.579 1204.87,788.847 1208.77,788.847 1208.77,841.309 1212.68,841.309 1212.68,893.307 1216.58,893.307 1216.58,944.211 1220.49,944.211 1220.49,993.425 1224.39,993.425 1224.39,1040.4 1228.3,1040.4 1228.3,1084.65 1232.2,1084.65 1232.2,1043.44 1236.11,1043.44 1236.11,1001.14 1240.01,1001.14 1240.01,958.18 1243.92,958.18 1243.92,914.976 1247.82,914.976 1247.82,871.954 1251.73,871.954 1251.73,911.824 1255.63,911.824 1255.63,950.254 1259.54,950.254 1259.54,986.908 1263.44,986.908 1263.44,1021.49 1267.35,1021.49 1267.35,1053.75 1271.25,1053.75 1271.25,1001.2 1275.16,1001.2 1275.16,948.394 1279.06,948.394 1279.06,895.953 1282.97,895.953 1282.97,844.46 1286.87,844.46 1286.87,794.467 1290.78,794.467 1290.78,746.488 1294.68,746.488 1294.68,700.982 1298.58,700.982 1298.58,658.355 1302.49,658.355 1302.49,618.945 1306.39,618.945 1306.39,583.022 1310.3,583.022 1310.3,633.083 1314.2,633.083 1314.2,684.528 1318.11,684.528 1318.11,736.704 1322.01,736.704 1322.01,788.961 1325.92,788.961 1325.92,840.66 1329.82,840.66 1329.82,891.19 1333.73,891.19 1333.73,939.977 1337.63,939.977 1337.63,986.494 1341.54,986.494 1341.54,1030.27 1345.44,1030.27 1345.44,1070.9 1349.35,1070.9 1349.35,1108.04 1353.25,1108.04 1353.25,1141.44 1357.16,1141.44 1357.16,1170.91 1361.06,1170.91 1361.06,1196.34 1364.97,1196.34 1364.97,1217.72 1368.87,1217.72 1368.87,1152.79 1372.78,1152.79 1372.78,1086.4 1376.68,1086.4 1376.68,1019.45 1380.58,1019.45 1380.58,952.814 1384.49,952.814 1384.49,887.358 1388.39,887.358 1388.39,906.191 1392.3,906.191 1392.3,925.342 1396.2,925.342 1396.2,944.793 1400.11,944.793 1400.11,964.515 1404.01,964.515 1404.01,984.473 1407.92,984.473 1407.92,1004.62 1411.82,1004.62 1411.82,1024.91 1415.73,1024.91 1415.73,1045.29 1419.63,1045.29 1419.63,1065.7 1423.54,1065.7 1423.54,1086.08 1427.44,1086.08 1427.44,1024.07 1431.35,1024.07 1431.35,964.334 1435.25,964.334 1435.25,907.509 1439.16,907.509 1439.16,854.167 1443.06,854.167 1443.06,804.797 1446.97,804.797 1446.97,842.099 1450.87,842.099 1450.87,881.657 1454.78,881.657 1454.78,922.981 1458.68,922.981 1458.68,965.558 1462.59,965.558 1462.59,1008.86 1466.49,1008.86 1466.49,1052.36 1470.39,1052.36 1470.39,1095.53 1474.3,1095.53 1474.3,1137.88 1478.2,1137.88 1478.2,1178.93 1482.11,1178.93 1482.11,1218.24 1486.01,1218.24 1486.01,1173.12 1489.92,1173.12 1489.92,1127.95 1493.82,1127.95 1493.82,1083.13 1497.73,1083.13 1497.73,1039.08 1501.63,1039.08 1501.63,996.153 1505.54,996.153 1505.54,1037.01 1509.44,1037.01 1509.44,1077.24 1513.35,1077.24 1513.35,1116.41 1517.25,1116.41 1517.25,1154.12 1521.16,1154.12 1521.16,1190.01 1525.06,1190.01 1525.06,1223.77 1528.97,1223.77 1528.97,1255.12 1532.87,1255.12 1532.87,1283.84 1536.78,1283.84 1536.78,1309.78 1540.68,1309.78 1540.68,1332.82 1544.59,1332.82 1544.59,1270.62 1548.49,1270.62 1548.49,1207.91 1552.39,1207.91 1552.39,1145.44 1556.3,1145.44 1556.3,1083.97 1560.2,1083.97 1560.2,1024.18 1564.11,1024.18 1564.11,1049.03 1568.01,1049.03 1568.01,1074.4 1571.92,1074.4 1571.92,1100.09 1575.82,1100.09 1575.82,1125.94 1579.73,1125.94 1579.73,1151.76 1583.63,1151.76 1583.63,1095.06 1587.54,1095.06 1587.54,1040.39 1591.44,1040.39 1591.44,988.289 1595.35,988.289 1595.35,939.233 1599.25,939.233 1599.25,893.626 1603.16,893.626 1603.16,851.795 1607.06,851.795 1607.06,813.993 1610.97,813.993 1610.97,780.387 1614.87,780.387 1614.87,751.062 1618.78,751.062 1618.78,726.021 1622.68,726.021 1622.68,705.188 1626.59,705.188 1626.59,688.41 1630.49,688.41 1630.49,675.463 1634.4,675.463 1634.4,666.058 1638.3,666.058 1638.3,659.851 1642.2,659.851 1642.2,656.448 1646.11,656.448 1646.11,655.416 1650.01,655.416 1650.01,656.292 1653.92,656.292 1653.92,658.594 1657.82,658.594 1657.82,661.83 1661.73,661.83 1661.73,665.508 1665.63,665.508 1665.63,669.146 1669.54,669.146 1669.54,672.281 1673.44,672.281 1673.44,674.477 1677.35,674.477 1677.35,675.334 1681.25,675.334 1681.25,756.793 1685.16,756.793 1685.16,833.818 1689.06,833.818 1689.06,905.453 1692.97,905.453 1692.97,970.867 1696.87,970.867 1696.87,1029.37 1700.78,1029.37 1700.78,998.142 1704.68,998.142 1704.68,961.517 1708.59,961.517 1708.59,919.985 1712.49,919.985 1712.49,874.118 1716.4,874.118 1716.4,824.558 1720.3,824.558 1720.3,772.009 1724.2,772.009 1724.2,717.212 1728.11,717.212 1728.11,660.937 1732.01,660.937 1732.01,603.963 1735.92,603.963 1735.92,547.064 1739.82,547.064 1739.82,490.994 1743.73,490.994 1743.73,436.469 1747.63,436.469 1747.63,384.161 1751.54,384.161 1751.54,334.679 1755.44,334.679 1755.44,288.563 1759.35,288.563 1759.35,328.574 1763.25,328.574 1763.25,370.364 1767.16,370.364 1767.16,413.519 1771.06,413.519 1771.06,457.603 1774.97,457.603 1774.97,502.172 1778.87,502.172 1778.87,546.781 1782.78,546.781 1782.78,590.993 1786.68,590.993 1786.68,634.385 1790.59,634.385 1790.59,676.563 1794.49,676.563 1794.49,717.159 1798.4,717.159 1798.4,673.548 1802.3,673.548 1802.3,630.167 1806.2,630.167 1806.2,587.48 1810.11,587.48 1810.11,545.927 1814.01,545.927 1814.01,505.916 1817.92,505.916 1817.92,550.116 1821.82,550.116 1821.82,594.128 1825.73,594.128 1825.73,637.527 1829.63,637.527 1829.63,679.906 1833.54,679.906 1833.54,720.889 1837.44,720.889 1837.44,677.832 1841.35,677.832 1841.35,635.156 1845.25,635.156 1845.25,593.304 1849.16,593.304 1849.16,552.691 1853.06,552.691 1853.06,513.704 1856.97,513.704 1856.97,476.685 1860.87,476.685 1860.87,441.936 1864.78,441.936 1864.78,409.705 1868.68,409.705 1868.68,380.189 1872.59,380.189 1872.59,353.529 1876.49,353.529 1876.49,412.108 1880.4,412.108 1880.4,471.229 1884.3,471.229 1884.3,530.165 1888.21,530.165 1888.21,588.205 1892.11,588.205 1892.11,644.677 1896.01,644.677 1896.01,698.951 1899.92,698.951 1899.92,750.458 1903.82,750.458 1903.82,798.693 1907.73,798.693 1907.73,843.229 1911.63,843.229 1911.63,883.718 1915.54,883.718 1915.54,919.897 1919.44,919.897 1919.44,951.595 1923.35,951.595 1923.35,978.727 1927.25,978.727 1927.25,1001.3 1931.16,1001.3 1931.16,1019.39 1935.06,1019.39 1935.06,950.891 1938.97,950.891 1938.97,880.758 1942.87,880.758 1942.87,810.012 1946.78,810.012 1946.78,739.654 1950.68,739.654 1950.68,670.653 1954.59,670.653 1954.59,603.927 1958.49,603.927 1958.49,540.327 1962.4,540.327 1962.4,480.619 1966.3,480.619 1966.3,425.475 1970.21,425.475 1970.21,375.461 1974.11,375.461 1974.11,331.03 1978.01,331.03 1978.01,292.515 1981.92,292.515 1981.92,260.125 1985.82,260.125 1985.82,233.949 1989.73,233.949 1989.73,213.952 1993.63,213.952 1993.63,199.985 1997.54,199.985 1997.54,191.785 2001.44,191.785 2001.44,188.989 2005.35,188.989 2005.35,191.142 2009.25,191.142 2009.25,197.709 2013.16,197.709 2013.16,208.085 2017.06,208.085 2017.06,221.614 2020.97,221.614 2020.97,237.6 2024.87,237.6 2024.87,255.322 2028.78,255.322 2028.78,274.049 2032.68,274.049 2032.68,293.058 2036.59,293.058 2036.59,311.641 2040.49,311.641 2040.49,329.126 2044.4,329.126 2044.4,344.883 2048.3,344.883 2048.3,358.34 2052.21,358.34 2052.21,451.288 2056.11,451.288 2056.11,538.568 2060.02,538.568 2060.02,619.127 2063.92,619.127 2063.92,692.066 2067.82,692.066 2067.82,756.66 2071.73,756.66 2071.73,812.364 2075.63,812.364 2075.63,858.819 2079.54,858.819 2079.54,895.856 2083.44,895.856 2083.44,923.488 2087.35,923.488 2087.35,941.911 2091.25,941.911 2091.25,951.49 2095.16,951.49 2095.16,952.749 2099.06,952.749 2099.06,946.356 2102.97,946.356 2102.97,933.106 2106.87,933.106 2106.87,913.899 2110.78,913.899 2110.78,807.424 2114.68,807.424 2114.68,699.457 2118.59,699.457 2118.59,591.79 2122.49,591.79 2122.49,486.164 2126.4,486.164 2126.4,384.229 2130.3,384.229 2130.3,369.817 2134.21,369.817 2134.21,359.595 2138.11,359.595 2138.11,354.082 2142.02,354.082 2142.02,353.688 2145.92,353.688 2145.92,358.702 2149.82,358.702 2149.82,286.997 2153.73,286.997 2153.73,223.35 2157.63,223.35 2157.63,168.397 2161.54,168.397 2161.54,122.588 2165.44,122.588 2165.44,86.1857 2169.35,86.1857 2169.35,141.56 2173.25,141.56 2173.25,203.875 2177.16,203.875 2177.16,272.14 2181.06,272.14 2181.06,345.272 2184.97,345.272 2184.97,422.12 2188.87,422.12 2188.87,501.49 2192.78,501.49 2192.78,582.168 2196.68,582.168 2196.68,662.948 2200.59,662.948 2200.59,742.651 2204.49,742.651 2204.49,820.153 2208.4,820.153 2208.4,894.399 2212.3,894.399 2212.3,964.428 2216.21,964.428 2216.21,1029.38 2220.11,1029.38 2220.11,1088.54 2224.02,1088.54 2224.02,1141.28 2227.92,1141.28 2227.92,1104.85 2231.83,1104.85 2231.83,1063.67 2235.73,1063.67 2235.73,1018.25 2239.63,1018.25 2239.63,969.206 2243.54,969.206 2243.54,917.193 2247.44,917.193 2247.44,862.916 2251.35,862.916 2251.35,807.105 2255.25,807.105 2255.25,750.504 2259.16,750.504 2259.16,693.855 2263.06,693.855 2263.06,637.881 2266.97,637.881 2266.97,665.575 2270.87,665.575 2270.87,692.864 2274.78,692.864 2274.78,719.641 2278.68,719.641 2278.68,745.81 2282.59,745.81 2282.59,771.283 2286.49,771.283 2286.49,795.987 2290.4,795.987 2290.4,819.862 2294.3,819.862 2294.3,842.859 "/>
<polyline clip-path="url(#clip102)" style="stroke:#e26f46; stroke-linecap:round; stroke-linejoin:round; stroke-width:4; stroke-opacity:1; fill:none" points="345.82,739.721 349.725,705.487 353.63,670.596 357.535,635.54 361.439,600.794 365.344,566.806 369.249,533.986 373.154,502.7 377.059,473.263 380.963,445.932 384.868,420.907 388.773,398.324 392.678,378.26 396.582,360.729 400.487,345.687 404.392,292.135 408.297,354.89 412.201,421.152 416.106,489.59 420.011,558.882 423.916,668.648 427.821,662.709 431.725,652.549 435.63,638.265 439.535,620.044 443.44,557.253 447.344,605.203 451.249,651.692 455.154,696.075 459.059,737.783 462.963,776.333 466.868,811.338 470.773,842.509 474.678,869.658 478.583,892.696 482.487,911.636 486.392,926.579 490.297,937.716 494.202,945.317 498.106,949.716 502.011,992.212 505.916,918.28 509.821,840.998 513.726,761.966 517.63,682.746 521.535,604.838 525.44,529.642 529.345,458.432 533.249,392.332 537.154,332.297 541.059,279.1 544.964,233.321 548.868,195.341 552.773,165.345 556.678,143.328 560.583,129.098 564.488,122.295 568.392,122.404 572.297,128.776 576.202,140.645 580.107,157.157 584.011,177.391 587.916,200.38 591.821,225.142 595.726,250.699 599.631,235.199 603.535,332.704 607.44,429.773 611.345,524.551 615.25,615.321 619.154,741.44 623.059,746.593 626.964,742.262 630.869,728.657 634.773,706.197 638.678,634.582 642.583,669.548 646.488,699.392 650.393,724.033 654.297,743.509 658.202,757.976 662.107,767.699 666.012,773.036 669.916,774.432 673.821,772.401 677.726,767.509 681.631,760.365 685.535,751.598 689.44,741.844 693.345,731.735 697.25,762.78 701.155,680.586 705.059,598.288 708.964,517.458 712.869,439.561 716.774,325.029 720.678,330.001 724.583,342.863 728.488,363.314 732.393,390.89 736.298,424.982 740.202,464.857 744.107,509.682 748.012,558.544 751.917,610.48 755.821,664.497 759.726,719.6 763.631,774.812 767.536,829.2 771.44,881.888 775.345,932.082 779.25,979.079 783.155,1022.28 787.06,1061.21 790.964,1095.49 794.869,1165.8 798.774,1117.05 802.679,1061.85 806.583,1001.43 810.488,937.054 814.393,829.155 818.298,834.014 822.202,840.316 826.107,848.189 830.012,857.722 833.917,909.859 837.822,849.638 841.726,789.625 845.631,730.846 849.536,674.25 853.441,620.697 857.345,570.933 861.25,525.586 865.155,485.156 869.06,450.002 872.965,379.448 876.869,428.546 880.774,484.644 884.679,546.472 888.584,612.68 892.488,681.882 896.393,752.684 900.298,823.716 904.203,893.668 908.107,961.311 912.012,1066.43 915.917,1053.07 919.822,1033 923.727,1006.63 927.631,974.513 931.536,896.403 935.441,928.009 939.346,957.535 943.25,984.737 947.155,1009.43 951.06,1031.51 954.965,1050.91 958.87,1067.66 962.774,1081.82 966.679,1093.52 970.584,1102.94 974.489,1110.29 978.393,1115.85 982.298,1119.89 986.203,1122.72 990.108,1165.56 994.012,1093.78 997.917,1020.3 1001.82,946.537 1005.73,873.846 1009.63,762.597 1013.54,768.913 1017.44,781.214 1021.35,799.271 1025.25,822.734 1029.16,851.142 1033.06,883.938 1036.96,920.49 1040.87,960.107 1044.77,1002.06 1048.68,1086.49 1052.58,1057.68 1056.49,1027.5 1060.39,996.344 1064.3,964.602 1068.2,932.672 1072.11,900.936 1076.01,869.755 1079.92,839.462 1083.82,810.353 1087.73,741.786 1091.63,788.939 1095.54,839.371 1099.44,892.099 1103.35,946.128 1107.25,1000.48 1111.16,1054.22 1115.06,1106.44 1118.97,1156.36 1122.87,1203.23 1126.77,1287.36 1130.68,1253.26 1134.58,1213.15 1138.49,1167.87 1142.39,1118.34 1146.3,1065.53 1150.2,1010.46 1154.11,954.139 1158.01,897.562 1161.92,841.692 1165.82,787.429 1169.73,735.597 1173.63,686.925 1177.54,642.038 1181.44,601.445 1185.35,524.631 1189.25,566.825 1193.16,615.556 1197.06,669.736 1200.97,728.2 1204.87,789.737 1208.77,853.117 1212.68,917.125 1216.58,980.587 1220.49,1042.39 1224.39,1142.42 1228.3,1124.8 1232.2,1101.34 1236.11,1072.5 1240.01,1038.82 1243.92,960.057 1247.82,991.876 1251.73,1022.43 1255.63,1051.41 1259.54,1078.55 1263.44,1144.54 1267.35,1094.27 1271.25,1040.24 1275.16,983.511 1279.06,925.168 1282.97,866.273 1286.87,807.856 1290.78,750.892 1294.68,696.276 1298.58,644.809 1302.49,556.283 1306.39,586.236 1310.3,622.507 1314.2,664.307 1318.11,710.754 1322.01,760.9 1325.92,813.753 1329.82,868.3 1333.73,923.54 1337.63,978.495 1341.54,1032.24 1345.44,1083.93 1349.35,1132.78 1353.25,1178.12 1357.16,1219.41 1361.06,1297.1 1364.97,1255.9 1368.87,1208.24 1372.78,1155.16 1376.68,1097.75 1380.58,996.289 1384.49,1006.92 1388.39,1018.22 1392.3,1030.22 1396.2,1042.94 1400.11,1056.38 1404.01,1070.53 1407.92,1085.36 1411.82,1100.82 1415.73,1116.83 1419.63,1174.25 1423.54,1118.01 1427.44,1060.64 1431.35,1003.14 1435.25,946.491 1439.16,850.682 1443.06,871.507 1446.97,897.084 1450.87,926.93 1454.78,960.484 1458.68,997.123 1462.59,1036.18 1466.49,1076.96 1470.39,1118.77 1474.3,1160.91 1478.2,1243.61 1482.11,1211.27 1486.01,1175.92 1489.92,1138.15 1493.82,1098.55 1497.73,1016.86 1501.63,1048.67 1505.54,1081.98 1509.44,1116.28 1513.35,1151.05 1517.25,1185.79 1521.16,1220 1525.06,1253.24 1528.97,1285.11 1532.87,1315.24 1536.78,1384.24 1540.68,1336.89 1544.59,1285.63 1548.49,1231.45 1552.39,1175.34 1556.3,1077.43 1560.2,1093.66 1564.11,1112.36 1568.01,1133.31 1571.92,1156.23 1575.82,1221.72 1579.73,1174.49 1583.63,1126.8 1587.54,1079.38 1591.44,1032.96 1595.35,988.179 1599.25,945.627 1603.16,905.813 1607.06,869.161 1610.97,836.001 1614.87,806.571 1618.78,781.011 1622.68,759.369 1626.59,741.597 1630.49,727.565 1634.4,717.061 1638.3,709.803 1642.2,705.448 1646.11,703.603 1650.01,703.837 1653.92,705.689 1657.82,708.687 1661.73,712.351 1665.63,716.212 1669.54,719.818 1673.44,681.842 1677.35,756.863 1681.25,831.928 1685.16,905.64 1689.06,976.698 1692.97,1084.82 1696.87,1074 1700.78,1055.98 1704.68,1031.13 1708.59,999.998 1712.49,963.243 1716.4,921.621 1720.3,875.969 1724.2,827.181 1728.11,776.182 1732.01,723.908 1735.92,671.282 1739.82,619.194 1743.73,568.481 1747.63,519.912 1751.54,433.269 1755.44,464.105 1759.35,500.297 1763.25,541.114 1767.16,585.752 1771.06,633.353 1774.97,683.029 1778.87,733.885 1782.78,785.037 1786.68,835.635 1790.59,925.782 1794.49,899.779 1798.4,869.582 1802.3,835.735 1806.2,798.84 1810.11,718.643 1814.01,750.783 1817.92,783.336 1821.82,815.88 1825.73,848.007 1829.63,920.241 1833.54,877.275 1837.44,831.412 1841.35,783.498 1845.25,734.388 1849.16,684.928 1853.06,635.933 1856.97,588.17 1860.87,542.346 1864.78,499.089 1868.68,418.039 1872.59,454.607 1876.49,496.53 1880.4,542.945 1884.3,592.924 1888.21,645.497 1892.11,699.678 1896.01,754.489 1899.92,808.98 1903.82,862.252 1907.73,913.472 1911.63,961.895 1915.54,1006.87 1919.44,1047.86 1923.35,1084.45 1927.25,1157.22 1931.16,1111.03 1935.06,1058.43 1938.97,1000.58 1942.87,938.698 1946.78,874.057 1950.68,807.926 1954.59,741.555 1958.49,676.142 1962.4,612.808 1966.3,552.578 1970.21,496.357 1974.11,444.917 1978.01,398.885 1981.92,358.737 1985.82,324.789 1989.73,297.202 1993.63,275.983 1997.54,260.992 2001.44,251.954 2005.35,248.467 2009.25,250.022 2013.16,256.019 2017.06,265.781 2020.97,278.579 2024.87,293.645 2028.78,310.199 2032.68,327.46 2036.59,344.67 2040.49,361.106 2044.4,335.196 2048.3,421.301 2052.21,506.286 2056.11,588.604 2060.02,666.841 2063.92,739.743 2067.82,806.232 2071.73,865.431 2075.63,916.668 2079.54,959.486 2083.44,993.643 2087.35,1019.11 2091.25,1036.05 2095.16,1044.82 2099.06,1045.96 2102.97,1081.05 2106.87,995.922 2110.78,904.108 2114.68,807.699 2118.59,708.798 2122.49,568.57 2126.4,543.962 2130.3,524.223 2134.21,509.943 2138.11,501.558 2142.02,540.248 2145.92,471.17 2149.82,406.9 2153.73,348.364 2157.63,296.316 2161.54,210.421 2165.44,246.024 2169.35,290.711 2173.25,343.387 2177.16,402.821 2181.06,467.681 2184.97,536.571 2188.87,608.063 2192.78,680.736 2196.68,753.202 2200.59,824.145 2204.49,892.339 2208.4,956.681 2212.3,1016.2 2216.21,1070.1 2220.11,1158.62 2224.02,1126.33 2227.92,1085.55 2231.83,1037.26 2235.73,982.57 2239.63,922.694 2243.54,858.908 2247.44,792.522 2251.35,724.847 2255.25,657.163 2259.16,549.792 2263.06,558.839 2266.97,572.732 2270.87,591.277 2274.78,614.182 2278.68,641.066 2282.59,671.47 2286.49,704.877 2290.4,740.721 2294.3,778.406 "/>
<polyline clip-path="url(#clip102)" style="stroke:#3da44d; stroke-linecap:round; stroke-linejoin:round; stroke-width:4; stroke-opacity:1; fill:none" points="345.82,737.409 349.725,705.01 353.63,671.913 357.535,638.628 361.439,605.651 365.344,573.445 369.249,542.437 373.154,513.007 377.059,485.481 380.963,460.129 384.868,437.157 388.773,416.708 392.678,398.862 396.582,383.634 400.487,370.981 404.392,319.132 408.297,378.525 412.201,442.189 416.106,508.753 420.011,576.844 423.916,686.784 427.821,686.692 431.725,682.136 435.63,673.149 439.535,659.866 443.44,600.847 447.344,646.997 451.249,691.929 455.154,734.959 459.059,775.48 462.963,812.967 466.868,846.989 470.773,877.216 474.678,903.418 478.583,925.469 482.487,943.343 486.392,957.112 490.297,966.937 494.202,973.064 498.106,975.812 502.011,1017.23 505.916,947.159 509.821,872.844 513.726,795.914 517.63,717.981 521.535,640.611 525.44,565.284 529.345,493.366 533.249,426.08 537.154,364.491 541.059,309.479 544.964,261.736 548.868,221.753 552.773,189.821 556.678,166.03 560.583,150.281 564.488,142.292 568.392,141.616 572.297,147.66 576.202,159.701 580.107,176.913 584.011,198.388 587.916,223.163 591.821,250.244 595.726,278.63 599.631,265.665 603.535,360.997 607.44,456.963 611.345,551.622 615.25,643.151 619.154,771.552 623.059,784.753 626.964,788.26 630.869,782.167 634.773,766.787 638.678,700.967 642.583,735.993 646.488,765.941 650.393,790.66 654.297,810.125 658.202,824.434 662.107,833.797 666.012,838.53 669.916,839.039 673.821,835.809 677.726,829.388 681.631,820.37 685.535,809.384 689.44,797.073 693.345,784.079 697.25,812.7 701.155,732.946 705.059,652.148 708.964,571.945 712.869,493.886 716.774,377.731 720.678,375.353 724.583,381.09 728.488,394.734 732.393,415.901 736.298,444.052 740.202,478.51 744.107,518.48 748.012,563.077 751.917,611.349 755.821,662.3 759.726,714.919 763.631,768.2 767.536,821.168 771.44,872.899 775.345,922.54 779.25,969.323 783.155,1012.58 787.06,1051.76 790.964,1086.43 794.869,1157.93 798.774,1115.5 802.679,1065.84 806.583,1010.15 810.488,949.685 814.393,844.114 818.298,845.371 822.202,848.015 826.107,852.204 830.012,858.055 833.917,907.306 837.822,849.392 841.726,791.072 845.631,733.419 849.536,677.444 853.441,624.073 857.345,574.129 861.25,528.321 865.155,487.229 869.06,451.298 872.965,379.166 876.869,421.591 880.774,471.828 884.679,528.643 888.584,590.707 892.488,656.63 896.393,724.994 900.298,794.389 904.203,863.447 908.107,930.868 912.012,1037.12 915.917,1030.52 919.822,1016.92 923.727,996.643 927.631,970.181 931.536,896.468 935.441,926.803 939.346,955.199 943.25,981.374 947.155,1005.11 951.06,1026.24 954.965,1044.7 958.87,1060.44 962.774,1073.52 966.679,1084.03 970.584,1092.12 974.489,1098 978.393,1101.9 982.298,1104.11 986.203,1104.93 990.108,1146.33 994.012,1078.07 997.917,1007.24 1001.82,935.296 1005.73,863.656 1009.63,751.992 1013.54,752.141 1017.44,758.449 1021.35,770.761 1025.25,788.793 1029.16,812.138 1033.06,840.283 1036.96,872.63 1040.87,908.507 1044.77,947.192 1048.68,1029.6 1052.58,1004.37 1056.49,977.514 1060.39,949.42 1064.3,920.491 1068.2,891.13 1072.11,861.732 1076.01,832.676 1079.92,804.318 1083.82,776.981 1087.73,709.282 1091.63,752.055 1095.54,798.723 1099.44,848.304 1103.35,899.793 1107.25,952.184 1111.16,1004.5 1115.06,1055.8 1118.97,1105.22 1122.87,1151.98 1126.77,1237.05 1130.68,1209.27 1134.58,1174.94 1138.49,1134.85 1142.39,1089.89 1146.3,1041.03 1150.2,989.268 1154.11,935.634 1158.01,881.157 1161.92,826.835 1165.82,773.62 1169.73,722.396 1173.63,673.958 1177.54,629.003 1181.44,588.118 1185.35,510.097 1189.25,545.87 1193.16,588.877 1197.06,638.072 1200.97,692.311 1204.87,750.39 1208.77,811.067 1212.68,873.096 1216.58,935.258 1220.49,996.386 1224.39,1097.06 1228.3,1085.69 1232.2,1068.18 1236.11,1044.91 1240.01,1016.39 1243.92,941.563 1247.82,971.689 1251.73,1000.75 1255.63,1028.39 1259.54,1054.32 1263.44,1119.96 1267.35,1074.53 1271.25,1024.68 1275.16,971.454 1279.06,915.951 1282.97,859.26 1286.87,802.449 1290.78,746.543 1294.68,692.498 1298.58,641.187 1302.49,551.708 1306.39,575.306 1310.3,605.734 1314.2,642.257 1318.11,684.032 1322.01,730.132 1325.92,779.572 1329.82,831.333 1333.73,884.39 1337.63,937.733 1341.54,990.39 1345.44,1041.45 1349.35,1090.08 1353.25,1135.55 1357.16,1177.21 1361.06,1256.22 1364.97,1221.6 1368.87,1179.86 1372.78,1131.97 1376.68,1079.03 1380.58,980.537 1384.49,988.26 1388.39,996.633 1392.3,1005.71 1396.2,1015.51 1400.11,1026.06 1404.01,1037.35 1407.92,1049.35 1411.82,1062.03 1415.73,1075.32 1419.63,1130.84 1423.54,1077.91 1427.44,1023.22 1431.35,967.805 1435.25,912.679 1439.16,817.129 1443.06,832.63 1446.97,853.204 1450.87,878.414 1454.78,907.731 1458.68,940.559 1462.59,976.244 1466.49,1014.1 1470.39,1053.41 1474.3,1093.46 1478.2,1175.24 1482.11,1147.48 1486.01,1116.33 1489.92,1082.37 1493.82,1046.18 1497.73,966.747 1501.63,995.285 1505.54,1025.66 1509.44,1057.34 1513.35,1089.81 1517.25,1122.55 1521.16,1155.05 1525.06,1186.82 1528.97,1217.44 1532.87,1246.51 1536.78,1315.36 1540.68,1273.12 1544.59,1226.33 1548.49,1175.99 1552.39,1123.09 1556.3,1027.01 1560.2,1039.35 1564.11,1054.32 1568.01,1071.72 1571.92,1091.29 1575.82,1154.42 1579.73,1110.18 1583.63,1065.02 1587.54,1019.7 1591.44,974.969 1595.35,931.522 1599.25,889.993 1603.16,850.947 1607.06,814.864 1610.97,782.134 1614.87,753.055 1618.78,727.824 1622.68,706.543 1626.59,689.221 1630.49,675.771 1634.4,666.026 1638.3,659.74 1642.2,656.598 1646.11,656.23 1650.01,658.218 1653.92,662.111 1657.82,667.434 1661.73,673.704 1665.63,680.437 1669.54,687.164 1673.44,651.766 1677.35,724.419 1681.25,797.974 1685.16,870.97 1689.06,942.028 1692.97,1051.54 1696.87,1047.78 1700.78,1036.53 1704.68,1018.1 1708.59,992.961 1712.49,961.7 1716.4,925.036 1720.3,883.776 1724.2,838.796 1728.11,791.02 1732.01,741.394 1735.92,690.866 1739.82,640.361 1743.73,590.761 1747.63,542.89 1751.54,455.822 1755.44,480.804 1759.35,511.616 1763.25,547.568 1767.16,587.886 1771.06,631.726 1774.97,678.202 1778.87,726.408 1782.78,775.436 1786.68,824.402 1790.59,914.132 1794.49,893.25 1798.4,867.819 1802.3,838.348 1806.2,805.415 1810.11,727.986 1814.01,757.323 1817.92,787.341 1821.82,817.604 1825.73,847.687 1829.63,918.859 1833.54,880.159 1837.44,838.029 1841.35,793.311 1845.25,746.872 1849.16,699.577 1853.06,652.273 1856.97,605.77 1860.87,560.823 1864.78,518.115 1868.68,436.581 1872.59,467.32 1876.49,503.968 1880.4,545.698 1884.3,591.604 1888.21,640.721 1892.11,692.056 1896.01,744.609 1899.92,797.395 1903.82,849.47 1907.73,899.948 1911.63,948.02 1915.54,992.969 1919.44,1034.18 1923.35,1071.16 1927.25,1145.2 1931.16,1105.44 1935.06,1058.54 1938.97,1005.6 1942.87,947.852 1946.78,886.545 1950.68,822.977 1954.59,758.43 1958.49,694.155 1962.4,631.338 1966.3,571.077 1970.21,514.364 1974.11,462.062 1978.01,414.893 1981.92,373.429 1985.82,338.084 1989.73,309.112 1993.63,286.61 1997.54,270.52 2001.44,260.64 2005.35,256.634 2009.25,258.049 2013.16,264.323 2017.06,274.814 2020.97,288.809 2024.87,305.549 2028.78,324.247 2032.68,344.109 2036.59,364.348 2040.49,384.21 2044.4,361.313 2048.3,445.595 2052.21,529.699 2056.11,611.994 2060.02,690.965 2063.92,765.241 2067.82,833.622 2071.73,895.101 2075.63,948.872 2079.54,994.349 2083.44,1031.16 2087.35,1059.15 2091.25,1078.37 2095.16,1089.08 2099.06,1091.72 2102.97,1128.56 2106.87,1049.77 2110.78,962.982 2114.68,870.292 2118.59,773.838 2122.49,634.076 2126.4,603.664 2130.3,577.79 2134.21,557.141 2138.11,542.249 2142.02,575.16 2145.92,505.495 2149.82,440.086 2153.73,379.969 2157.63,326.011 2161.54,237.228 2165.44,264.707 2169.35,301.979 2173.25,348.027 2177.16,401.677 2181.06,461.633 2184.97,526.509 2188.87,594.871 2192.78,665.268 2196.68,736.267 2200.59,806.488 2204.49,874.63 2208.4,939.499 2212.3,1000.03 2216.21,1055.31 2220.11,1146.26 2224.02,1121.7 2227.92,1088 2231.83,1046.08 2235.73,996.995 2239.63,941.917 2243.54,882.11 2247.44,818.887 2251.35,753.584 2255.25,687.52 2259.16,580.307 2263.06,583.743 2266.97,592.17 2270.87,605.454 2274.78,623.355 2278.68,645.537 2282.59,671.577 2286.49,700.983 2290.4,733.208 2294.3,767.66 "/>
<path clip-path="url(#clip100)" d="M356.212 1377.32 L1361.73 1377.32 L1361.73 1169.96 L356.212 1169.96  Z" fill="#ffffff" fill-rule="evenodd" fill-opacity="1"/>
<polyline clip-path="url(#clip100)" style="stroke:#000000; stroke-linecap:round; stroke-linejoin:round; stroke-width:4; stroke-opacity:1; fill:none" points="356.212,1377.32 1361.73,1377.32 1361.73,1169.96 356.212,1169.96 356.212,1377.32 "/>
<polyline clip-path="url(#clip100)" style="stroke:#009af9; stroke-linecap:round; stroke-linejoin:round; stroke-width:4; stroke-opacity:1; fill:none" points="379.161,1221.8 516.854,1221.8 "/>
<path clip-path="url(#clip100)" d="M544.478 1208.36 L544.478 1235.23 L550.126 1235.23 Q557.279 1235.23 560.589 1231.99 Q563.923 1228.75 563.923 1221.76 Q563.923 1214.82 560.589 1211.6 Q557.279 1208.36 550.126 1208.36 L544.478 1208.36 M539.802 1204.52 L549.409 1204.52 Q559.455 1204.52 564.154 1208.71 Q568.853 1212.87 568.853 1221.76 Q568.853 1230.7 564.131 1234.89 Q559.409 1239.08 549.409 1239.08 L539.802 1239.08 L539.802 1204.52 Z" fill="#000000" fill-rule="nonzero" fill-opacity="1" /><path clip-path="url(#clip100)" d="M587.904 1226.04 Q582.742 1226.04 580.751 1227.22 Q578.761 1228.4 578.761 1231.25 Q578.761 1233.52 580.242 1234.86 Q581.747 1236.18 584.316 1236.18 Q587.858 1236.18 589.987 1233.68 Q592.14 1231.16 592.14 1226.99 L592.14 1226.04 L587.904 1226.04 M596.399 1224.28 L596.399 1239.08 L592.14 1239.08 L592.14 1235.14 Q590.682 1237.5 588.506 1238.64 Q586.33 1239.75 583.182 1239.75 Q579.2 1239.75 576.839 1237.52 Q574.501 1235.28 574.501 1231.53 Q574.501 1227.15 577.418 1224.93 Q580.358 1222.71 586.168 1222.71 L592.14 1222.71 L592.14 1222.29 Q592.14 1219.35 590.196 1217.76 Q588.274 1216.14 584.779 1216.14 Q582.557 1216.14 580.45 1216.67 Q578.344 1217.2 576.399 1218.27 L576.399 1214.33 Q578.737 1213.43 580.936 1212.99 Q583.136 1212.52 585.219 1212.52 Q590.844 1212.52 593.622 1215.44 Q596.399 1218.36 596.399 1224.28 Z" fill="#000000" fill-rule="nonzero" fill-opacity="1" /><path clip-path="url(#clip100)" d="M609.385 1205.79 L609.385 1213.15 L618.159 1213.15 L618.159 1216.46 L609.385 1216.46 L609.385 1230.53 Q609.385 1233.7 610.242 1234.61 Q611.122 1235.51 613.784 1235.51 L618.159 1235.51 L618.159 1239.08 L613.784 1239.08 Q608.853 1239.08 606.978 1237.25 Q605.103 1235.39 605.103 1230.53 L605.103 1216.46 L601.978 1216.46 L601.978 1213.15 L605.103 1213.15 L605.103 1205.79 L609.385 1205.79 Z" fill="#000000" fill-rule="nonzero" fill-opacity="1" /><path clip-path="url(#clip100)" d="M635.543 1226.04 Q630.381 1226.04 628.39 1227.22 Q626.399 1228.4 626.399 1231.25 Q626.399 1233.52 627.881 1234.86 Q629.385 1236.18 631.955 1236.18 Q635.496 1236.18 637.626 1233.68 Q639.779 1231.16 639.779 1226.99 L639.779 1226.04 L635.543 1226.04 M644.038 1224.28 L644.038 1239.08 L639.779 1239.08 L639.779 1235.14 Q638.32 1237.5 636.145 1238.64 Q633.969 1239.75 630.82 1239.75 Q626.839 1239.75 624.478 1237.52 Q622.14 1235.28 622.14 1231.53 Q622.14 1227.15 625.057 1224.93 Q627.996 1222.71 633.807 1222.71 L639.779 1222.71 L639.779 1222.29 Q639.779 1219.35 637.834 1217.76 Q635.913 1216.14 632.418 1216.14 Q630.195 1216.14 628.089 1216.67 Q625.983 1217.2 624.038 1218.27 L624.038 1214.33 Q626.376 1213.43 628.575 1212.99 Q630.774 1212.52 632.858 1212.52 Q638.482 1212.52 641.26 1215.44 Q644.038 1218.36 644.038 1224.28 Z" fill="#000000" fill-rule="nonzero" fill-opacity="1" /><polyline clip-path="url(#clip100)" style="stroke:#e26f46; stroke-linecap:round; stroke-linejoin:round; stroke-width:4; stroke-opacity:1; fill:none" points="379.161,1273.64 516.854,1273.64 "/>
<path clip-path="url(#clip100)" d="M562.048 1257.49 L562.048 1262.05 Q559.386 1260.78 557.025 1260.15 Q554.663 1259.53 552.464 1259.53 Q548.645 1259.53 546.562 1261.01 Q544.502 1262.49 544.502 1265.22 Q544.502 1267.51 545.867 1268.69 Q547.256 1269.85 551.099 1270.57 L553.923 1271.15 Q559.154 1272.14 561.631 1274.67 Q564.131 1277.17 564.131 1281.38 Q564.131 1286.4 560.751 1288.99 Q557.395 1291.59 550.89 1291.59 Q548.437 1291.59 545.659 1291.03 Q542.904 1290.48 539.941 1289.39 L539.941 1284.57 Q542.789 1286.17 545.52 1286.98 Q548.251 1287.79 550.89 1287.79 Q554.895 1287.79 557.071 1286.22 Q559.247 1284.64 559.247 1281.73 Q559.247 1279.18 557.673 1277.74 Q556.122 1276.31 552.557 1275.59 L549.71 1275.04 Q544.478 1273.99 542.14 1271.77 Q539.802 1269.55 539.802 1265.59 Q539.802 1261.01 543.02 1258.37 Q546.261 1255.73 551.932 1255.73 Q554.363 1255.73 556.886 1256.17 Q559.409 1256.61 562.048 1257.49 Z" fill="#000000" fill-rule="nonzero" fill-opacity="1" /><path clip-path="url(#clip100)" d="M571.237 1264.99 L575.497 1264.99 L575.497 1290.92 L571.237 1290.92 L571.237 1264.99 M571.237 1254.9 L575.497 1254.9 L575.497 1260.29 L571.237 1260.29 L571.237 1254.9 Z" fill="#000000" fill-rule="nonzero" fill-opacity="1" /><path clip-path="url(#clip100)" d="M604.594 1269.97 Q606.191 1267.1 608.413 1265.73 Q610.635 1264.36 613.645 1264.36 Q617.696 1264.36 619.895 1267.21 Q622.094 1270.04 622.094 1275.27 L622.094 1290.92 L617.811 1290.92 L617.811 1275.41 Q617.811 1271.68 616.492 1269.87 Q615.172 1268.07 612.464 1268.07 Q609.154 1268.07 607.233 1270.27 Q605.311 1272.47 605.311 1276.26 L605.311 1290.92 L601.029 1290.92 L601.029 1275.41 Q601.029 1271.66 599.71 1269.87 Q598.39 1268.07 595.635 1268.07 Q592.372 1268.07 590.45 1270.29 Q588.529 1272.49 588.529 1276.26 L588.529 1290.92 L584.247 1290.92 L584.247 1264.99 L588.529 1264.99 L588.529 1269.02 Q589.987 1266.63 592.024 1265.5 Q594.061 1264.36 596.862 1264.36 Q599.686 1264.36 601.654 1265.8 Q603.645 1267.23 604.594 1269.97 Z" fill="#000000" fill-rule="nonzero" fill-opacity="1" /><path clip-path="url(#clip100)" d="M630.149 1280.68 L630.149 1264.99 L634.408 1264.99 L634.408 1280.52 Q634.408 1284.2 635.844 1286.05 Q637.279 1287.88 640.149 1287.88 Q643.598 1287.88 645.589 1285.68 Q647.603 1283.48 647.603 1279.69 L647.603 1264.99 L651.862 1264.99 L651.862 1290.92 L647.603 1290.92 L647.603 1286.93 Q646.052 1289.29 643.992 1290.45 Q641.955 1291.59 639.246 1291.59 Q634.779 1291.59 632.464 1288.81 Q630.149 1286.03 630.149 1280.68 M640.867 1264.36 L640.867 1264.36 Z" fill="#000000" fill-rule="nonzero" fill-opacity="1" /><path clip-path="url(#clip100)" d="M660.635 1254.9 L664.894 1254.9 L664.894 1290.92 L660.635 1290.92 L660.635 1254.9 Z" fill="#000000" fill-rule="nonzero" fill-opacity="1" /><path clip-path="url(#clip100)" d="M685.589 1277.88 Q680.427 1277.88 678.436 1279.06 Q676.445 1280.24 676.445 1283.09 Q676.445 1285.36 677.927 1286.7 Q679.431 1288.02 682.001 1288.02 Q685.542 1288.02 687.672 1285.52 Q689.825 1283 689.825 1278.83 L689.825 1277.88 L685.589 1277.88 M694.084 1276.12 L694.084 1290.92 L689.825 1290.92 L689.825 1286.98 Q688.366 1289.34 686.191 1290.48 Q684.015 1291.59 680.867 1291.59 Q676.885 1291.59 674.524 1289.36 Q672.186 1287.12 672.186 1283.37 Q672.186 1278.99 675.103 1276.77 Q678.042 1274.55 683.853 1274.55 L689.825 1274.55 L689.825 1274.13 Q689.825 1271.19 687.88 1269.6 Q685.959 1267.98 682.464 1267.98 Q680.242 1267.98 678.135 1268.51 Q676.029 1269.04 674.084 1270.11 L674.084 1266.17 Q676.422 1265.27 678.621 1264.83 Q680.82 1264.36 682.904 1264.36 Q688.529 1264.36 691.306 1267.28 Q694.084 1270.2 694.084 1276.12 Z" fill="#000000" fill-rule="nonzero" fill-opacity="1" /><path clip-path="url(#clip100)" d="M707.07 1257.63 L707.07 1264.99 L715.843 1264.99 L715.843 1268.3 L707.07 1268.3 L707.07 1282.37 Q707.07 1285.54 707.927 1286.45 Q708.806 1287.35 711.468 1287.35 L715.843 1287.35 L715.843 1290.92 L711.468 1290.92 Q706.538 1290.92 704.663 1289.09 Q702.788 1287.23 702.788 1282.37 L702.788 1268.3 L699.663 1268.3 L699.663 1264.99 L702.788 1264.99 L702.788 1257.63 L707.07 1257.63 Z" fill="#000000" fill-rule="nonzero" fill-opacity="1" /><path clip-path="url(#clip100)" d="M721.445 1264.99 L725.704 1264.99 L725.704 1290.92 L721.445 1290.92 L721.445 1264.99 M721.445 1254.9 L725.704 1254.9 L725.704 1260.29 L721.445 1260.29 L721.445 1254.9 Z" fill="#000000" fill-rule="nonzero" fill-opacity="1" /><path clip-path="url(#clip100)" d="M744.662 1267.98 Q741.237 1267.98 739.246 1270.66 Q737.255 1273.32 737.255 1277.98 Q737.255 1282.63 739.223 1285.31 Q741.213 1287.98 744.662 1287.98 Q748.065 1287.98 750.056 1285.29 Q752.047 1282.61 752.047 1277.98 Q752.047 1273.37 750.056 1270.68 Q748.065 1267.98 744.662 1267.98 M744.662 1264.36 Q750.218 1264.36 753.389 1267.98 Q756.561 1271.59 756.561 1277.98 Q756.561 1284.34 753.389 1287.98 Q750.218 1291.59 744.662 1291.59 Q739.084 1291.59 735.913 1287.98 Q732.764 1284.34 732.764 1277.98 Q732.764 1271.59 735.913 1267.98 Q739.084 1264.36 744.662 1264.36 Z" fill="#000000" fill-rule="nonzero" fill-opacity="1" /><path clip-path="url(#clip100)" d="M785.172 1275.27 L785.172 1290.92 L780.912 1290.92 L780.912 1275.41 Q780.912 1271.73 779.477 1269.9 Q778.042 1268.07 775.172 1268.07 Q771.723 1268.07 769.732 1270.27 Q767.741 1272.47 767.741 1276.26 L767.741 1290.92 L763.459 1290.92 L763.459 1264.99 L767.741 1264.99 L767.741 1269.02 Q769.269 1266.68 771.329 1265.52 Q773.412 1264.36 776.121 1264.36 Q780.588 1264.36 782.88 1267.14 Q785.172 1269.9 785.172 1275.27 Z" fill="#000000" fill-rule="nonzero" fill-opacity="1" /><path clip-path="url(#clip100)" d="M828.921 1269.97 Q830.518 1267.1 832.741 1265.73 Q834.963 1264.36 837.972 1264.36 Q842.023 1264.36 844.222 1267.21 Q846.421 1270.04 846.421 1275.27 L846.421 1290.92 L842.139 1290.92 L842.139 1275.41 Q842.139 1271.68 840.819 1269.87 Q839.5 1268.07 836.792 1268.07 Q833.481 1268.07 831.56 1270.27 Q829.639 1272.47 829.639 1276.26 L829.639 1290.92 L825.356 1290.92 L825.356 1275.41 Q825.356 1271.66 824.037 1269.87 Q822.718 1268.07 819.963 1268.07 Q816.699 1268.07 814.778 1270.29 Q812.857 1272.49 812.857 1276.26 L812.857 1290.92 L808.574 1290.92 L808.574 1264.99 L812.857 1264.99 L812.857 1269.02 Q814.315 1266.63 816.352 1265.5 Q818.389 1264.36 821.19 1264.36 Q824.014 1264.36 825.981 1265.8 Q827.972 1267.23 828.921 1269.97 Z" fill="#000000" fill-rule="nonzero" fill-opacity="1" /><path clip-path="url(#clip100)" d="M864.963 1267.98 Q861.537 1267.98 859.546 1270.66 Q857.555 1273.32 857.555 1277.98 Q857.555 1282.63 859.523 1285.31 Q861.514 1287.98 864.963 1287.98 Q868.366 1287.98 870.356 1285.29 Q872.347 1282.61 872.347 1277.98 Q872.347 1273.37 870.356 1270.68 Q868.366 1267.98 864.963 1267.98 M864.963 1264.36 Q870.518 1264.36 873.69 1267.98 Q876.861 1271.59 876.861 1277.98 Q876.861 1284.34 873.69 1287.98 Q870.518 1291.59 864.963 1291.59 Q859.384 1291.59 856.213 1287.98 Q853.065 1284.34 853.065 1277.98 Q853.065 1271.59 856.213 1267.98 Q859.384 1264.36 864.963 1264.36 Z" fill="#000000" fill-rule="nonzero" fill-opacity="1" /><path clip-path="url(#clip100)" d="M900.981 1268.92 L900.981 1254.9 L905.24 1254.9 L905.24 1290.92 L900.981 1290.92 L900.981 1287.03 Q899.638 1289.34 897.578 1290.48 Q895.541 1291.59 892.671 1291.59 Q887.972 1291.59 885.009 1287.84 Q882.069 1284.09 882.069 1277.98 Q882.069 1271.86 885.009 1268.11 Q887.972 1264.36 892.671 1264.36 Q895.541 1264.36 897.578 1265.5 Q899.638 1266.61 900.981 1268.92 M886.467 1277.98 Q886.467 1282.67 888.389 1285.36 Q890.333 1288.02 893.713 1288.02 Q897.092 1288.02 899.037 1285.36 Q900.981 1282.67 900.981 1277.98 Q900.981 1273.28 899.037 1270.61 Q897.092 1267.93 893.713 1267.93 Q890.333 1267.93 888.389 1270.61 Q886.467 1273.28 886.467 1277.98 Z" fill="#000000" fill-rule="nonzero" fill-opacity="1" /><path clip-path="url(#clip100)" d="M936.189 1276.89 L936.189 1278.97 L916.606 1278.97 Q916.884 1283.37 919.245 1285.68 Q921.629 1287.98 925.865 1287.98 Q928.319 1287.98 930.611 1287.37 Q932.925 1286.77 935.194 1285.57 L935.194 1289.6 Q932.902 1290.57 930.495 1291.08 Q928.087 1291.59 925.611 1291.59 Q919.407 1291.59 915.773 1287.98 Q912.162 1284.36 912.162 1278.21 Q912.162 1271.84 915.587 1268.11 Q919.037 1264.36 924.87 1264.36 Q930.101 1264.36 933.134 1267.74 Q936.189 1271.1 936.189 1276.89 M931.93 1275.64 Q931.884 1272.14 929.962 1270.06 Q928.064 1267.98 924.916 1267.98 Q921.351 1267.98 919.199 1269.99 Q917.069 1272 916.745 1275.66 L931.93 1275.64 Z" fill="#000000" fill-rule="nonzero" fill-opacity="1" /><path clip-path="url(#clip100)" d="M943.18 1254.9 L947.439 1254.9 L947.439 1290.92 L943.18 1290.92 L943.18 1254.9 Z" fill="#000000" fill-rule="nonzero" fill-opacity="1" /><path clip-path="url(#clip100)" d="M987.948 1265.75 L987.948 1269.78 Q986.143 1268.86 984.198 1268.39 Q982.254 1267.93 980.17 1267.93 Q976.999 1267.93 975.402 1268.9 Q973.828 1269.87 973.828 1271.82 Q973.828 1273.3 974.962 1274.16 Q976.096 1274.99 979.522 1275.75 L980.981 1276.08 Q985.518 1277.05 987.416 1278.83 Q989.337 1280.59 989.337 1283.76 Q989.337 1287.37 986.467 1289.48 Q983.62 1291.59 978.62 1291.59 Q976.536 1291.59 974.268 1291.17 Q972.022 1290.78 969.522 1289.97 L969.522 1285.57 Q971.883 1286.79 974.175 1287.42 Q976.467 1288.02 978.712 1288.02 Q981.721 1288.02 983.342 1287 Q984.962 1285.96 984.962 1284.09 Q984.962 1282.35 983.782 1281.42 Q982.624 1280.5 978.666 1279.64 L977.184 1279.3 Q973.226 1278.46 971.467 1276.75 Q969.708 1275.01 969.708 1272 Q969.708 1268.35 972.3 1266.36 Q974.893 1264.36 979.661 1264.36 Q982.022 1264.36 984.106 1264.71 Q986.189 1265.06 987.948 1265.75 Z" fill="#000000" fill-rule="nonzero" fill-opacity="1" /><path clip-path="url(#clip100)" d="M996.119 1264.99 L1000.38 1264.99 L1000.38 1290.92 L996.119 1290.92 L996.119 1264.99 M996.119 1254.9 L1000.38 1254.9 L1000.38 1260.29 L996.119 1260.29 L996.119 1254.9 Z" fill="#000000" fill-rule="nonzero" fill-opacity="1" /><path clip-path="url(#clip100)" d="M1029.48 1269.97 Q1031.07 1267.1 1033.3 1265.73 Q1035.52 1264.36 1038.53 1264.36 Q1042.58 1264.36 1044.78 1267.21 Q1046.98 1270.04 1046.98 1275.27 L1046.98 1290.92 L1042.69 1290.92 L1042.69 1275.41 Q1042.69 1271.68 1041.37 1269.87 Q1040.05 1268.07 1037.35 1268.07 Q1034.04 1268.07 1032.11 1270.27 Q1030.19 1272.47 1030.19 1276.26 L1030.19 1290.92 L1025.91 1290.92 L1025.91 1275.41 Q1025.91 1271.66 1024.59 1269.87 Q1023.27 1268.07 1020.52 1268.07 Q1017.25 1268.07 1015.33 1270.29 Q1013.41 1272.49 1013.41 1276.26 L1013.41 1290.92 L1009.13 1290.92 L1009.13 1264.99 L1013.41 1264.99 L1013.41 1269.02 Q1014.87 1266.63 1016.91 1265.5 Q1018.94 1264.36 1021.74 1264.36 Q1024.57 1264.36 1026.54 1265.8 Q1028.53 1267.23 1029.48 1269.97 Z" fill="#000000" fill-rule="nonzero" fill-opacity="1" /><path clip-path="url(#clip100)" d="M1083.67 1254.9 L1083.67 1258.44 L1079.59 1258.44 Q1077.3 1258.44 1076.4 1259.36 Q1075.52 1260.29 1075.52 1262.7 L1075.52 1264.99 L1082.53 1264.99 L1082.53 1268.3 L1075.52 1268.3 L1075.52 1290.92 L1071.23 1290.92 L1071.23 1268.3 L1067.16 1268.3 L1067.16 1264.99 L1071.23 1264.99 L1071.23 1263.18 Q1071.23 1258.86 1073.25 1256.89 Q1075.26 1254.9 1079.64 1254.9 L1083.67 1254.9 Z" fill="#000000" fill-rule="nonzero" fill-opacity="1" /><path clip-path="url(#clip100)" d="M1087.23 1264.99 L1091.49 1264.99 L1091.49 1290.92 L1087.23 1290.92 L1087.23 1264.99 M1087.23 1254.9 L1091.49 1254.9 L1091.49 1260.29 L1087.23 1260.29 L1087.23 1254.9 Z" fill="#000000" fill-rule="nonzero" fill-opacity="1" /><path clip-path="url(#clip100)" d="M1104.61 1257.63 L1104.61 1264.99 L1113.39 1264.99 L1113.39 1268.3 L1104.61 1268.3 L1104.61 1282.37 Q1104.61 1285.54 1105.47 1286.45 Q1106.35 1287.35 1109.01 1287.35 L1113.39 1287.35 L1113.39 1290.92 L1109.01 1290.92 Q1104.08 1290.92 1102.21 1289.09 Q1100.33 1287.23 1100.33 1282.37 L1100.33 1268.3 L1097.21 1268.3 L1097.21 1264.99 L1100.33 1264.99 L1100.33 1257.63 L1104.61 1257.63 Z" fill="#000000" fill-rule="nonzero" fill-opacity="1" /><path clip-path="url(#clip100)" d="M1150.22 1285.04 L1155.1 1285.04 L1155.1 1290.92 L1150.22 1290.92 L1150.22 1285.04 M1150.22 1266.4 L1155.1 1266.4 L1155.1 1272.28 L1150.22 1272.28 L1150.22 1266.4 Z" fill="#000000" fill-rule="nonzero" fill-opacity="1" /><path clip-path="url(#clip100)" d="M1176.28 1271.77 Q1173.13 1271.77 1171.28 1273.92 Q1169.45 1276.08 1169.45 1279.83 Q1169.45 1283.55 1171.28 1285.73 Q1173.13 1287.88 1176.28 1287.88 Q1179.43 1287.88 1181.26 1285.73 Q1183.11 1283.55 1183.11 1279.83 Q1183.11 1276.08 1181.26 1273.92 Q1179.43 1271.77 1176.28 1271.77 M1185.56 1257.12 L1185.56 1261.38 Q1183.8 1260.55 1182 1260.11 Q1180.22 1259.67 1178.46 1259.67 Q1173.83 1259.67 1171.37 1262.79 Q1168.94 1265.92 1168.6 1272.23 Q1169.96 1270.22 1172.02 1269.16 Q1174.08 1268.07 1176.56 1268.07 Q1181.77 1268.07 1184.78 1271.24 Q1187.81 1274.39 1187.81 1279.83 Q1187.81 1285.15 1184.66 1288.37 Q1181.51 1291.59 1176.28 1291.59 Q1170.29 1291.59 1167.11 1287 Q1163.94 1282.4 1163.94 1273.67 Q1163.94 1265.48 1167.83 1260.61 Q1171.72 1255.73 1178.27 1255.73 Q1180.03 1255.73 1181.81 1256.08 Q1183.62 1256.42 1185.56 1257.12 Z" fill="#000000" fill-rule="nonzero" fill-opacity="1" /><path clip-path="url(#clip100)" d="M1196 1290.2 L1196 1285.94 Q1197.76 1286.77 1199.57 1287.21 Q1201.37 1287.65 1203.11 1287.65 Q1207.74 1287.65 1210.17 1284.55 Q1212.62 1281.42 1212.97 1275.08 Q1211.63 1277.07 1209.57 1278.14 Q1207.51 1279.2 1205.01 1279.2 Q1199.82 1279.2 1196.79 1276.08 Q1193.78 1272.93 1193.78 1267.49 Q1193.78 1262.17 1196.93 1258.95 Q1200.08 1255.73 1205.31 1255.73 Q1211.3 1255.73 1214.45 1260.34 Q1217.62 1264.92 1217.62 1273.67 Q1217.62 1281.84 1213.73 1286.73 Q1209.87 1291.59 1203.32 1291.59 Q1201.56 1291.59 1199.75 1291.24 Q1197.95 1290.89 1196 1290.2 M1205.31 1275.55 Q1208.46 1275.55 1210.28 1273.39 Q1212.14 1271.24 1212.14 1267.49 Q1212.14 1263.76 1210.28 1261.61 Q1208.46 1259.43 1205.31 1259.43 Q1202.16 1259.43 1200.31 1261.61 Q1198.48 1263.76 1198.48 1267.49 Q1198.48 1271.24 1200.31 1273.39 Q1202.16 1275.55 1205.31 1275.55 Z" fill="#000000" fill-rule="nonzero" fill-opacity="1" /><path clip-path="url(#clip100)" d="M1226.03 1285.04 L1230.91 1285.04 L1230.91 1290.92 L1226.03 1290.92 L1226.03 1285.04 Z" fill="#000000" fill-rule="nonzero" fill-opacity="1" /><path clip-path="url(#clip100)" d="M1253.94 1260.43 L1242.14 1278.88 L1253.94 1278.88 L1253.94 1260.43 M1252.72 1256.36 L1258.59 1256.36 L1258.59 1278.88 L1263.53 1278.88 L1263.53 1282.77 L1258.59 1282.77 L1258.59 1290.92 L1253.94 1290.92 L1253.94 1282.77 L1238.34 1282.77 L1238.34 1278.25 L1252.72 1256.36 Z" fill="#000000" fill-rule="nonzero" fill-opacity="1" /><path clip-path="url(#clip100)" d="M1271.3 1256.36 L1289.66 1256.36 L1289.66 1260.29 L1275.59 1260.29 L1275.59 1268.76 Q1276.6 1268.42 1277.62 1268.25 Q1278.64 1268.07 1279.66 1268.07 Q1285.45 1268.07 1288.83 1271.24 Q1292.21 1274.41 1292.21 1279.83 Q1292.21 1285.41 1288.73 1288.51 Q1285.26 1291.59 1278.94 1291.59 Q1276.77 1291.59 1274.5 1291.22 Q1272.25 1290.85 1269.84 1290.11 L1269.84 1285.41 Q1271.93 1286.54 1274.15 1287.1 Q1276.37 1287.65 1278.85 1287.65 Q1282.85 1287.65 1285.19 1285.54 Q1287.53 1283.44 1287.53 1279.83 Q1287.53 1276.22 1285.19 1274.11 Q1282.85 1272 1278.85 1272 Q1276.97 1272 1275.1 1272.42 Q1273.25 1272.84 1271.3 1273.72 L1271.3 1256.36 Z" fill="#000000" fill-rule="nonzero" fill-opacity="1" /><path clip-path="url(#clip100)" d="M1330.82 1275.71 Q1328.8 1275.71 1327.65 1277.42 Q1326.51 1279.13 1326.51 1282.19 Q1326.51 1285.2 1327.65 1286.93 Q1328.8 1288.65 1330.82 1288.65 Q1332.78 1288.65 1333.92 1286.93 Q1335.08 1285.2 1335.08 1282.19 Q1335.08 1279.16 1333.92 1277.44 Q1332.78 1275.71 1330.82 1275.71 M1330.82 1272.77 Q1334.47 1272.77 1336.63 1275.31 Q1338.78 1277.86 1338.78 1282.19 Q1338.78 1286.52 1336.6 1289.06 Q1334.45 1291.59 1330.82 1291.59 Q1327.11 1291.59 1324.96 1289.06 Q1322.81 1286.52 1322.81 1282.19 Q1322.81 1277.84 1324.96 1275.31 Q1327.14 1272.77 1330.82 1272.77 M1306.93 1258.67 Q1304.94 1258.67 1303.78 1260.41 Q1302.65 1262.12 1302.65 1265.13 Q1302.65 1268.18 1303.78 1269.9 Q1304.91 1271.61 1306.93 1271.61 Q1308.94 1271.61 1310.08 1269.9 Q1311.23 1268.18 1311.23 1265.13 Q1311.23 1262.14 1310.08 1260.41 Q1308.92 1258.67 1306.93 1258.67 M1327.83 1255.73 L1331.53 1255.73 L1309.91 1291.59 L1306.21 1291.59 L1327.83 1255.73 M1306.93 1255.73 Q1310.59 1255.73 1312.76 1258.28 Q1314.94 1260.8 1314.94 1265.13 Q1314.94 1269.5 1312.76 1272.03 Q1310.61 1274.55 1306.93 1274.55 Q1303.25 1274.55 1301.09 1272.03 Q1298.97 1269.48 1298.97 1265.13 Q1298.97 1260.82 1301.12 1258.28 Q1303.27 1255.73 1306.93 1255.73 Z" fill="#000000" fill-rule="nonzero" fill-opacity="1" /><polyline clip-path="url(#clip100)" style="stroke:#3da44d; stroke-linecap:round; stroke-linejoin:round; stroke-width:4; stroke-opacity:1; fill:none" points="379.161,1325.48 516.854,1325.48 "/>
<path clip-path="url(#clip100)" d="M544.478 1312.04 L544.478 1325.02 L550.358 1325.02 Q553.622 1325.02 555.404 1323.33 Q557.187 1321.64 557.187 1318.52 Q557.187 1315.42 555.404 1313.73 Q553.622 1312.04 550.358 1312.04 L544.478 1312.04 M539.802 1308.2 L550.358 1308.2 Q556.168 1308.2 559.131 1310.83 Q562.117 1313.45 562.117 1318.52 Q562.117 1323.64 559.131 1326.25 Q556.168 1328.87 550.358 1328.87 L544.478 1328.87 L544.478 1342.76 L539.802 1342.76 L539.802 1308.2 Z" fill="#000000" fill-rule="nonzero" fill-opacity="1" /><path clip-path="url(#clip100)" d="M582.395 1320.81 Q581.677 1320.39 580.821 1320.21 Q579.987 1320 578.969 1320 Q575.358 1320 573.413 1322.36 Q571.492 1324.7 571.492 1329.1 L571.492 1342.76 L567.21 1342.76 L567.21 1316.83 L571.492 1316.83 L571.492 1320.86 Q572.835 1318.5 574.987 1317.36 Q577.14 1316.2 580.219 1316.2 Q580.659 1316.2 581.191 1316.27 Q581.724 1316.32 582.372 1316.44 L582.395 1320.81 Z" fill="#000000" fill-rule="nonzero" fill-opacity="1" /><path clip-path="url(#clip100)" d="M607.997 1328.73 L607.997 1330.81 L588.413 1330.81 Q588.691 1335.21 591.052 1337.52 Q593.436 1339.82 597.673 1339.82 Q600.126 1339.82 602.418 1339.21 Q604.733 1338.61 607.001 1337.41 L607.001 1341.44 Q604.71 1342.41 602.302 1342.92 Q599.895 1343.43 597.418 1343.43 Q591.214 1343.43 587.58 1339.82 Q583.969 1336.2 583.969 1330.05 Q583.969 1323.68 587.395 1319.95 Q590.844 1316.2 596.677 1316.2 Q601.909 1316.2 604.941 1319.58 Q607.997 1322.94 607.997 1328.73 M603.737 1327.48 Q603.691 1323.98 601.77 1321.9 Q599.872 1319.82 596.723 1319.82 Q593.159 1319.82 591.006 1321.83 Q588.876 1323.84 588.552 1327.5 L603.737 1327.48 Z" fill="#000000" fill-rule="nonzero" fill-opacity="1" /><path clip-path="url(#clip100)" d="M632.047 1320.76 L632.047 1306.74 L636.307 1306.74 L636.307 1342.76 L632.047 1342.76 L632.047 1338.87 Q630.705 1341.18 628.645 1342.32 Q626.608 1343.43 623.737 1343.43 Q619.038 1343.43 616.075 1339.68 Q613.135 1335.93 613.135 1329.82 Q613.135 1323.7 616.075 1319.95 Q619.038 1316.2 623.737 1316.2 Q626.608 1316.2 628.645 1317.34 Q630.705 1318.45 632.047 1320.76 M617.534 1329.82 Q617.534 1334.51 619.455 1337.2 Q621.399 1339.86 624.779 1339.86 Q628.158 1339.86 630.103 1337.2 Q632.047 1334.51 632.047 1329.82 Q632.047 1325.12 630.103 1322.45 Q628.158 1319.77 624.779 1319.77 Q621.399 1319.77 619.455 1322.45 Q617.534 1325.12 617.534 1329.82 Z" fill="#000000" fill-rule="nonzero" fill-opacity="1" /><path clip-path="url(#clip100)" d="M645.08 1316.83 L649.339 1316.83 L649.339 1342.76 L645.08 1342.76 L645.08 1316.83 M645.08 1306.74 L649.339 1306.74 L649.339 1312.13 L645.08 1312.13 L645.08 1306.74 Z" fill="#000000" fill-rule="nonzero" fill-opacity="1" /><path clip-path="url(#clip100)" d="M676.908 1317.82 L676.908 1321.81 Q675.103 1320.81 673.274 1320.32 Q671.468 1319.82 669.617 1319.82 Q665.473 1319.82 663.181 1322.45 Q660.89 1325.07 660.89 1329.82 Q660.89 1334.56 663.181 1337.2 Q665.473 1339.82 669.617 1339.82 Q671.468 1339.82 673.274 1339.33 Q675.103 1338.82 676.908 1337.82 L676.908 1341.76 Q675.126 1342.59 673.205 1343.01 Q671.306 1343.43 669.154 1343.43 Q663.297 1343.43 659.848 1339.75 Q656.399 1336.07 656.399 1329.82 Q656.399 1323.47 659.871 1319.84 Q663.367 1316.2 669.431 1316.2 Q671.399 1316.2 673.274 1316.62 Q675.149 1317.01 676.908 1317.82 Z" fill="#000000" fill-rule="nonzero" fill-opacity="1" /><path clip-path="url(#clip100)" d="M688.529 1309.47 L688.529 1316.83 L697.302 1316.83 L697.302 1320.14 L688.529 1320.14 L688.529 1334.21 Q688.529 1337.38 689.385 1338.29 Q690.265 1339.19 692.927 1339.19 L697.302 1339.19 L697.302 1342.76 L692.927 1342.76 Q687.996 1342.76 686.121 1340.93 Q684.246 1339.07 684.246 1334.21 L684.246 1320.14 L681.121 1320.14 L681.121 1316.83 L684.246 1316.83 L684.246 1309.47 L688.529 1309.47 Z" fill="#000000" fill-rule="nonzero" fill-opacity="1" /><path clip-path="url(#clip100)" d="M702.903 1316.83 L707.163 1316.83 L707.163 1342.76 L702.903 1342.76 L702.903 1316.83 M702.903 1306.74 L707.163 1306.74 L707.163 1312.13 L702.903 1312.13 L702.903 1306.74 Z" fill="#000000" fill-rule="nonzero" fill-opacity="1" /><path clip-path="url(#clip100)" d="M726.121 1319.82 Q722.695 1319.82 720.704 1322.5 Q718.714 1325.16 718.714 1329.82 Q718.714 1334.47 720.681 1337.15 Q722.672 1339.82 726.121 1339.82 Q729.524 1339.82 731.514 1337.13 Q733.505 1334.45 733.505 1329.82 Q733.505 1325.21 731.514 1322.52 Q729.524 1319.82 726.121 1319.82 M726.121 1316.2 Q731.676 1316.2 734.848 1319.82 Q738.019 1323.43 738.019 1329.82 Q738.019 1336.18 734.848 1339.82 Q731.676 1343.43 726.121 1343.43 Q720.542 1343.43 717.371 1339.82 Q714.223 1336.18 714.223 1329.82 Q714.223 1323.43 717.371 1319.82 Q720.542 1316.2 726.121 1316.2 Z" fill="#000000" fill-rule="nonzero" fill-opacity="1" /><path clip-path="url(#clip100)" d="M766.63 1327.11 L766.63 1342.76 L762.371 1342.76 L762.371 1327.25 Q762.371 1323.57 760.936 1321.74 Q759.5 1319.91 756.63 1319.91 Q753.181 1319.91 751.19 1322.11 Q749.199 1324.31 749.199 1328.1 L749.199 1342.76 L744.917 1342.76 L744.917 1316.83 L749.199 1316.83 L749.199 1320.86 Q750.727 1318.52 752.787 1317.36 Q754.871 1316.2 757.579 1316.2 Q762.047 1316.2 764.338 1318.98 Q766.63 1321.74 766.63 1327.11 Z" fill="#000000" fill-rule="nonzero" fill-opacity="1" /><path clip-path="url(#clip100)" d="M810.38 1321.81 Q811.977 1318.94 814.199 1317.57 Q816.421 1316.2 819.431 1316.2 Q823.481 1316.2 825.681 1319.05 Q827.88 1321.88 827.88 1327.11 L827.88 1342.76 L823.597 1342.76 L823.597 1327.25 Q823.597 1323.52 822.278 1321.71 Q820.958 1319.91 818.25 1319.91 Q814.94 1319.91 813.019 1322.11 Q811.097 1324.31 811.097 1328.1 L811.097 1342.76 L806.815 1342.76 L806.815 1327.25 Q806.815 1323.5 805.495 1321.71 Q804.176 1319.91 801.421 1319.91 Q798.158 1319.91 796.236 1322.13 Q794.315 1324.33 794.315 1328.1 L794.315 1342.76 L790.033 1342.76 L790.033 1316.83 L794.315 1316.83 L794.315 1320.86 Q795.773 1318.47 797.81 1317.34 Q799.847 1316.2 802.648 1316.2 Q805.472 1316.2 807.44 1317.64 Q809.431 1319.07 810.38 1321.81 Z" fill="#000000" fill-rule="nonzero" fill-opacity="1" /><path clip-path="url(#clip100)" d="M846.421 1319.82 Q842.995 1319.82 841.005 1322.5 Q839.014 1325.16 839.014 1329.82 Q839.014 1334.47 840.981 1337.15 Q842.972 1339.82 846.421 1339.82 Q849.824 1339.82 851.815 1337.13 Q853.805 1334.45 853.805 1329.82 Q853.805 1325.21 851.815 1322.52 Q849.824 1319.82 846.421 1319.82 M846.421 1316.2 Q851.977 1316.2 855.148 1319.82 Q858.319 1323.43 858.319 1329.82 Q858.319 1336.18 855.148 1339.82 Q851.977 1343.43 846.421 1343.43 Q840.843 1343.43 837.671 1339.82 Q834.523 1336.18 834.523 1329.82 Q834.523 1323.43 837.671 1319.82 Q840.843 1316.2 846.421 1316.2 Z" fill="#000000" fill-rule="nonzero" fill-opacity="1" /><path clip-path="url(#clip100)" d="M882.44 1320.76 L882.44 1306.74 L886.699 1306.74 L886.699 1342.76 L882.44 1342.76 L882.44 1338.87 Q881.097 1341.18 879.037 1342.32 Q877 1343.43 874.129 1343.43 Q869.43 1343.43 866.467 1339.68 Q863.528 1335.93 863.528 1329.82 Q863.528 1323.7 866.467 1319.95 Q869.43 1316.2 874.129 1316.2 Q877 1316.2 879.037 1317.34 Q881.097 1318.45 882.44 1320.76 M867.926 1329.82 Q867.926 1334.51 869.847 1337.2 Q871.791 1339.86 875.171 1339.86 Q878.551 1339.86 880.495 1337.2 Q882.44 1334.51 882.44 1329.82 Q882.44 1325.12 880.495 1322.45 Q878.551 1319.77 875.171 1319.77 Q871.791 1319.77 869.847 1322.45 Q867.926 1325.12 867.926 1329.82 Z" fill="#000000" fill-rule="nonzero" fill-opacity="1" /><path clip-path="url(#clip100)" d="M917.648 1328.73 L917.648 1330.81 L898.064 1330.81 Q898.342 1335.21 900.703 1337.52 Q903.088 1339.82 907.324 1339.82 Q909.777 1339.82 912.069 1339.21 Q914.384 1338.61 916.652 1337.41 L916.652 1341.44 Q914.361 1342.41 911.953 1342.92 Q909.546 1343.43 907.069 1343.43 Q900.865 1343.43 897.231 1339.82 Q893.62 1336.2 893.62 1330.05 Q893.62 1323.68 897.046 1319.95 Q900.495 1316.2 906.328 1316.2 Q911.56 1316.2 914.592 1319.58 Q917.648 1322.94 917.648 1328.73 M913.388 1327.48 Q913.342 1323.98 911.421 1321.9 Q909.523 1319.82 906.375 1319.82 Q902.81 1319.82 900.657 1321.83 Q898.527 1323.84 898.203 1327.5 L913.388 1327.48 Z" fill="#000000" fill-rule="nonzero" fill-opacity="1" /><path clip-path="url(#clip100)" d="M924.638 1306.74 L928.898 1306.74 L928.898 1342.76 L924.638 1342.76 L924.638 1306.74 Z" fill="#000000" fill-rule="nonzero" fill-opacity="1" /><path clip-path="url(#clip100)" d="M969.407 1317.59 L969.407 1321.62 Q967.601 1320.7 965.657 1320.23 Q963.712 1319.77 961.629 1319.77 Q958.458 1319.77 956.86 1320.74 Q955.286 1321.71 955.286 1323.66 Q955.286 1325.14 956.421 1326 Q957.555 1326.83 960.981 1327.59 L962.439 1327.92 Q966.976 1328.89 968.874 1330.67 Q970.796 1332.43 970.796 1335.6 Q970.796 1339.21 967.925 1341.32 Q965.078 1343.43 960.078 1343.43 Q957.995 1343.43 955.726 1343.01 Q953.481 1342.62 950.981 1341.81 L950.981 1337.41 Q953.342 1338.63 955.634 1339.26 Q957.925 1339.86 960.171 1339.86 Q963.18 1339.86 964.8 1338.84 Q966.421 1337.8 966.421 1335.93 Q966.421 1334.19 965.24 1333.26 Q964.083 1332.34 960.124 1331.48 L958.643 1331.14 Q954.684 1330.3 952.925 1328.59 Q951.166 1326.85 951.166 1323.84 Q951.166 1320.19 953.759 1318.2 Q956.351 1316.2 961.12 1316.2 Q963.481 1316.2 965.564 1316.55 Q967.647 1316.9 969.407 1317.59 Z" fill="#000000" fill-rule="nonzero" fill-opacity="1" /><path clip-path="url(#clip100)" d="M977.578 1316.83 L981.837 1316.83 L981.837 1342.76 L977.578 1342.76 L977.578 1316.83 M977.578 1306.74 L981.837 1306.74 L981.837 1312.13 L977.578 1312.13 L977.578 1306.74 Z" fill="#000000" fill-rule="nonzero" fill-opacity="1" /><path clip-path="url(#clip100)" d="M1010.93 1321.81 Q1012.53 1318.94 1014.75 1317.57 Q1016.98 1316.2 1019.99 1316.2 Q1024.04 1316.2 1026.24 1319.05 Q1028.43 1321.88 1028.43 1327.11 L1028.43 1342.76 L1024.15 1342.76 L1024.15 1327.25 Q1024.15 1323.52 1022.83 1321.71 Q1021.51 1319.91 1018.8 1319.91 Q1015.49 1319.91 1013.57 1322.11 Q1011.65 1324.31 1011.65 1328.1 L1011.65 1342.76 L1007.37 1342.76 L1007.37 1327.25 Q1007.37 1323.5 1006.05 1321.71 Q1004.73 1319.91 1001.98 1319.91 Q998.712 1319.91 996.791 1322.13 Q994.869 1324.33 994.869 1328.1 L994.869 1342.76 L990.587 1342.76 L990.587 1316.83 L994.869 1316.83 L994.869 1320.86 Q996.328 1318.47 998.365 1317.34 Q1000.4 1316.2 1003.2 1316.2 Q1006.03 1316.2 1007.99 1317.64 Q1009.99 1319.07 1010.93 1321.81 Z" fill="#000000" fill-rule="nonzero" fill-opacity="1" /><path clip-path="url(#clip100)" d="M1065.12 1306.74 L1065.12 1310.28 L1061.05 1310.28 Q1058.76 1310.28 1057.86 1311.2 Q1056.98 1312.13 1056.98 1314.54 L1056.98 1316.83 L1063.99 1316.83 L1063.99 1320.14 L1056.98 1320.14 L1056.98 1342.76 L1052.69 1342.76 L1052.69 1320.14 L1048.62 1320.14 L1048.62 1316.83 L1052.69 1316.83 L1052.69 1315.02 Q1052.69 1310.7 1054.71 1308.73 Q1056.72 1306.74 1061.1 1306.74 L1065.12 1306.74 Z" fill="#000000" fill-rule="nonzero" fill-opacity="1" /><path clip-path="url(#clip100)" d="M1068.69 1316.83 L1072.95 1316.83 L1072.95 1342.76 L1068.69 1342.76 L1068.69 1316.83 M1068.69 1306.74 L1072.95 1306.74 L1072.95 1312.13 L1068.69 1312.13 L1068.69 1306.74 Z" fill="#000000" fill-rule="nonzero" fill-opacity="1" /><path clip-path="url(#clip100)" d="M1086.07 1309.47 L1086.07 1316.83 L1094.85 1316.83 L1094.85 1320.14 L1086.07 1320.14 L1086.07 1334.21 Q1086.07 1337.38 1086.93 1338.29 Q1087.81 1339.19 1090.47 1339.19 L1094.85 1339.19 L1094.85 1342.76 L1090.47 1342.76 Q1085.54 1342.76 1083.67 1340.93 Q1081.79 1339.07 1081.79 1334.21 L1081.79 1320.14 L1078.67 1320.14 L1078.67 1316.83 L1081.79 1316.83 L1081.79 1309.47 L1086.07 1309.47 Z" fill="#000000" fill-rule="nonzero" fill-opacity="1" /><path clip-path="url(#clip100)" d="M1131.67 1336.88 L1136.56 1336.88 L1136.56 1342.76 L1131.67 1342.76 L1131.67 1336.88 M1131.67 1318.24 L1136.56 1318.24 L1136.56 1324.12 L1131.67 1324.12 L1131.67 1318.24 Z" fill="#000000" fill-rule="nonzero" fill-opacity="1" /><path clip-path="url(#clip100)" d="M1157.74 1323.61 Q1154.59 1323.61 1152.74 1325.76 Q1150.91 1327.92 1150.91 1331.67 Q1150.91 1335.39 1152.74 1337.57 Q1154.59 1339.72 1157.74 1339.72 Q1160.89 1339.72 1162.72 1337.57 Q1164.57 1335.39 1164.57 1331.67 Q1164.57 1327.92 1162.72 1325.76 Q1160.89 1323.61 1157.74 1323.61 M1167.02 1308.96 L1167.02 1313.22 Q1165.26 1312.39 1163.46 1311.95 Q1161.67 1311.51 1159.91 1311.51 Q1155.29 1311.51 1152.83 1314.63 Q1150.4 1317.76 1150.05 1324.07 Q1151.42 1322.06 1153.48 1321 Q1155.54 1319.91 1158.02 1319.91 Q1163.23 1319.91 1166.23 1323.08 Q1169.27 1326.23 1169.27 1331.67 Q1169.27 1336.99 1166.12 1340.21 Q1162.97 1343.43 1157.74 1343.43 Q1151.74 1343.43 1148.57 1338.84 Q1145.4 1334.24 1145.4 1325.51 Q1145.4 1317.32 1149.29 1312.45 Q1153.18 1307.57 1159.73 1307.57 Q1161.49 1307.57 1163.27 1307.92 Q1165.08 1308.26 1167.02 1308.96 Z" fill="#000000" fill-rule="nonzero" fill-opacity="1" /><path clip-path="url(#clip100)" d="M1176.14 1308.2 L1198.36 1308.2 L1198.36 1310.19 L1185.82 1342.76 L1180.93 1342.76 L1192.74 1312.13 L1176.14 1312.13 L1176.14 1308.2 Z" fill="#000000" fill-rule="nonzero" fill-opacity="1" /><path clip-path="url(#clip100)" d="M1207.48 1336.88 L1212.37 1336.88 L1212.37 1342.76 L1207.48 1342.76 L1207.48 1336.88 Z" fill="#000000" fill-rule="nonzero" fill-opacity="1" /><path clip-path="url(#clip100)" d="M1236.72 1324.12 Q1240.08 1324.84 1241.95 1327.11 Q1243.85 1329.38 1243.85 1332.71 Q1243.85 1337.82 1240.33 1340.63 Q1236.81 1343.43 1230.33 1343.43 Q1228.16 1343.43 1225.84 1342.99 Q1223.55 1342.57 1221.1 1341.71 L1221.1 1337.2 Q1223.04 1338.33 1225.35 1338.91 Q1227.67 1339.49 1230.19 1339.49 Q1234.59 1339.49 1236.88 1337.76 Q1239.2 1336.02 1239.2 1332.71 Q1239.2 1329.65 1237.04 1327.94 Q1234.91 1326.2 1231.1 1326.2 L1227.07 1326.2 L1227.07 1322.36 L1231.28 1322.36 Q1234.73 1322.36 1236.56 1321 Q1238.39 1319.61 1238.39 1317.01 Q1238.39 1314.35 1236.49 1312.94 Q1234.61 1311.51 1231.1 1311.51 Q1229.17 1311.51 1226.97 1311.92 Q1224.78 1312.34 1222.14 1313.22 L1222.14 1309.05 Q1224.8 1308.31 1227.11 1307.94 Q1229.45 1307.57 1231.51 1307.57 Q1236.84 1307.57 1239.94 1310 Q1243.04 1312.41 1243.04 1316.53 Q1243.04 1319.4 1241.4 1321.39 Q1239.75 1323.36 1236.72 1324.12 Z" fill="#000000" fill-rule="nonzero" fill-opacity="1" /><path clip-path="url(#clip100)" d="M1252.76 1308.2 L1271.12 1308.2 L1271.12 1312.13 L1257.04 1312.13 L1257.04 1320.6 Q1258.06 1320.26 1259.08 1320.09 Q1260.1 1319.91 1261.12 1319.91 Q1266.91 1319.91 1270.28 1323.08 Q1273.66 1326.25 1273.66 1331.67 Q1273.66 1337.25 1270.19 1340.35 Q1266.72 1343.43 1260.4 1343.43 Q1258.22 1343.43 1255.96 1343.06 Q1253.71 1342.69 1251.3 1341.95 L1251.3 1337.25 Q1253.39 1338.38 1255.61 1338.94 Q1257.83 1339.49 1260.31 1339.49 Q1264.31 1339.49 1266.65 1337.38 Q1268.99 1335.28 1268.99 1331.67 Q1268.99 1328.06 1266.65 1325.95 Q1264.31 1323.84 1260.31 1323.84 Q1258.43 1323.84 1256.56 1324.26 Q1254.71 1324.68 1252.76 1325.56 L1252.76 1308.2 Z" fill="#000000" fill-rule="nonzero" fill-opacity="1" /><path clip-path="url(#clip100)" d="M1312.28 1327.55 Q1310.26 1327.55 1309.1 1329.26 Q1307.97 1330.97 1307.97 1334.03 Q1307.97 1337.04 1309.1 1338.77 Q1310.26 1340.49 1312.28 1340.49 Q1314.24 1340.49 1315.38 1338.77 Q1316.53 1337.04 1316.53 1334.03 Q1316.53 1331 1315.38 1329.28 Q1314.24 1327.55 1312.28 1327.55 M1312.28 1324.61 Q1315.93 1324.61 1318.09 1327.15 Q1320.24 1329.7 1320.24 1334.03 Q1320.24 1338.36 1318.06 1340.9 Q1315.91 1343.43 1312.28 1343.43 Q1308.57 1343.43 1306.42 1340.9 Q1304.27 1338.36 1304.27 1334.03 Q1304.27 1329.68 1306.42 1327.15 Q1308.59 1324.61 1312.28 1324.61 M1288.39 1310.51 Q1286.4 1310.51 1285.24 1312.25 Q1284.1 1313.96 1284.1 1316.97 Q1284.1 1320.02 1285.24 1321.74 Q1286.37 1323.45 1288.39 1323.45 Q1290.4 1323.45 1291.53 1321.74 Q1292.69 1320.02 1292.69 1316.97 Q1292.69 1313.98 1291.53 1312.25 Q1290.38 1310.51 1288.39 1310.51 M1309.29 1307.57 L1312.99 1307.57 L1291.37 1343.43 L1287.67 1343.43 L1309.29 1307.57 M1288.39 1307.57 Q1292.04 1307.57 1294.22 1310.12 Q1296.4 1312.64 1296.4 1316.97 Q1296.4 1321.34 1294.22 1323.87 Q1292.07 1326.39 1288.39 1326.39 Q1284.71 1326.39 1282.55 1323.87 Q1280.42 1321.32 1280.42 1316.97 Q1280.42 1312.66 1282.58 1310.12 Q1284.73 1307.57 1288.39 1307.57 Z" fill="#000000" fill-rule="nonzero" fill-opacity="1" /></svg>
