<?xml version="1.0" encoding="utf-8"?>
<svg xmlns="http://www.w3.org/2000/svg" xmlns:xlink="http://www.w3.org/1999/xlink" width="600" height="400" viewBox="0 0 2400 1600">
<defs>
  <clipPath id="clip040">
    <rect x="0" y="0" width="2400" height="1600"/>
  </clipPath>
</defs>
<path clip-path="url(#clip040)" d="M0 1600 L2400 1600 L2400 0 L0 0  Z" fill="#ffffff" fill-rule="evenodd" fill-opacity="1"/>
<defs>
  <clipPath id="clip041">
    <rect x="480" y="0" width="1681" height="1600"/>
  </clipPath>
</defs>
<path clip-path="url(#clip040)" d="M255.977 1423.18 L2352.76 1423.18 L2352.76 47.2441 L255.977 47.2441  Z" fill="#ffffff" fill-rule="evenodd" fill-opacity="1"/>
<defs>
  <clipPath id="clip042">
    <rect x="255" y="47" width="2098" height="1377"/>
  </clipPath>
</defs>
<polyline clip-path="url(#clip042)" style="stroke:#000000; stroke-linecap:round; stroke-linejoin:round; stroke-width:2; stroke-opacity:0.1; fill:none" points="315.32,1423.18 315.32,47.2441 "/>
<polyline clip-path="url(#clip042)" style="stroke:#000000; stroke-linecap:round; stroke-linejoin:round; stroke-width:2; stroke-opacity:0.1; fill:none" points="711.731,1423.18 711.731,47.2441 "/>
<polyline clip-path="url(#clip042)" style="stroke:#000000; stroke-linecap:round; stroke-linejoin:round; stroke-width:2; stroke-opacity:0.1; fill:none" points="1108.14,1423.18 1108.14,47.2441 "/>
<polyline clip-path="url(#clip042)" style="stroke:#000000; stroke-linecap:round; stroke-linejoin:round; stroke-width:2; stroke-opacity:0.1; fill:none" points="1504.55,1423.18 1504.55,47.2441 "/>
<polyline clip-path="url(#clip042)" style="stroke:#000000; stroke-linecap:round; stroke-linejoin:round; stroke-width:2; stroke-opacity:0.1; fill:none" points="1900.97,1423.18 1900.97,47.2441 "/>
<polyline clip-path="url(#clip042)" style="stroke:#000000; stroke-linecap:round; stroke-linejoin:round; stroke-width:2; stroke-opacity:0.1; fill:none" points="2297.38,1423.18 2297.38,47.2441 "/>
<polyline clip-path="url(#clip042)" style="stroke:#000000; stroke-linecap:round; stroke-linejoin:round; stroke-width:2; stroke-opacity:0.1; fill:none" points="255.977,1416.1 2352.76,1416.1 "/>
<polyline clip-path="url(#clip042)" style="stroke:#000000; stroke-linecap:round; stroke-linejoin:round; stroke-width:2; stroke-opacity:0.1; fill:none" points="255.977,1057.08 2352.76,1057.08 "/>
<polyline clip-path="url(#clip042)" style="stroke:#000000; stroke-linecap:round; stroke-linejoin:round; stroke-width:2; stroke-opacity:0.1; fill:none" points="255.977,698.063 2352.76,698.063 "/>
<polyline clip-path="url(#clip042)" style="stroke:#000000; stroke-linecap:round; stroke-linejoin:round; stroke-width:2; stroke-opacity:0.1; fill:none" points="255.977,339.045 2352.76,339.045 "/>
<polyline clip-path="url(#clip040)" style="stroke:#000000; stroke-linecap:round; stroke-linejoin:round; stroke-width:4; stroke-opacity:1; fill:none" points="255.977,1423.18 2352.76,1423.18 "/>
<polyline clip-path="url(#clip040)" style="stroke:#000000; stroke-linecap:round; stroke-linejoin:round; stroke-width:4; stroke-opacity:1; fill:none" points="315.32,1423.18 315.32,1404.28 "/>
<polyline clip-path="url(#clip040)" style="stroke:#000000; stroke-linecap:round; stroke-linejoin:round; stroke-width:4; stroke-opacity:1; fill:none" points="711.731,1423.18 711.731,1404.28 "/>
<polyline clip-path="url(#clip040)" style="stroke:#000000; stroke-linecap:round; stroke-linejoin:round; stroke-width:4; stroke-opacity:1; fill:none" points="1108.14,1423.18 1108.14,1404.28 "/>
<polyline clip-path="url(#clip040)" style="stroke:#000000; stroke-linecap:round; stroke-linejoin:round; stroke-width:4; stroke-opacity:1; fill:none" points="1504.55,1423.18 1504.55,1404.28 "/>
<polyline clip-path="url(#clip040)" style="stroke:#000000; stroke-linecap:round; stroke-linejoin:round; stroke-width:4; stroke-opacity:1; fill:none" points="1900.97,1423.18 1900.97,1404.28 "/>
<polyline clip-path="url(#clip040)" style="stroke:#000000; stroke-linecap:round; stroke-linejoin:round; stroke-width:4; stroke-opacity:1; fill:none" points="2297.38,1423.18 2297.38,1404.28 "/>
<path clip-path="url(#clip040)" d="M315.32 1454.1 Q311.709 1454.1 309.88 1457.66 Q308.075 1461.2 308.075 1468.33 Q308.075 1475.44 309.88 1479.01 Q311.709 1482.55 315.32 1482.55 Q318.954 1482.55 320.76 1479.01 Q322.588 1475.44 322.588 1468.33 Q322.588 1461.2 320.76 1457.66 Q318.954 1454.1 315.32 1454.1 M315.32 1450.39 Q321.13 1450.39 324.186 1455 Q327.264 1459.58 327.264 1468.33 Q327.264 1477.06 324.186 1481.67 Q321.13 1486.25 315.32 1486.25 Q309.51 1486.25 306.431 1481.67 Q303.376 1477.06 303.376 1468.33 Q303.376 1459.58 306.431 1455 Q309.51 1450.39 315.32 1450.39 Z" fill="#000000" fill-rule="nonzero" fill-opacity="1" /><path clip-path="url(#clip040)" d="M702.113 1481.64 L709.752 1481.64 L709.752 1455.28 L701.442 1456.95 L701.442 1452.69 L709.706 1451.02 L714.382 1451.02 L714.382 1481.64 L722.021 1481.64 L722.021 1485.58 L702.113 1485.58 L702.113 1481.64 Z" fill="#000000" fill-rule="nonzero" fill-opacity="1" /><path clip-path="url(#clip040)" d="M1102.8 1481.64 L1119.12 1481.64 L1119.12 1485.58 L1097.17 1485.58 L1097.17 1481.64 Q1099.83 1478.89 1104.42 1474.26 Q1109.02 1469.61 1110.2 1468.27 Q1112.45 1465.74 1113.33 1464.01 Q1114.23 1462.25 1114.23 1460.56 Q1114.23 1457.8 1112.29 1456.07 Q1110.37 1454.33 1107.26 1454.33 Q1105.06 1454.33 1102.61 1455.09 Q1100.18 1455.86 1097.4 1457.41 L1097.4 1452.69 Q1100.23 1451.55 1102.68 1450.97 Q1105.13 1450.39 1107.17 1450.39 Q1112.54 1450.39 1115.74 1453.08 Q1118.93 1455.77 1118.93 1460.26 Q1118.93 1462.39 1118.12 1464.31 Q1117.33 1466.2 1115.23 1468.8 Q1114.65 1469.47 1111.55 1472.69 Q1108.44 1475.88 1102.8 1481.64 Z" fill="#000000" fill-rule="nonzero" fill-opacity="1" /><path clip-path="url(#clip040)" d="M1508.8 1466.95 Q1512.16 1467.66 1514.03 1469.93 Q1515.93 1472.2 1515.93 1475.53 Q1515.93 1480.65 1512.41 1483.45 Q1508.89 1486.25 1502.41 1486.25 Q1500.24 1486.25 1497.92 1485.81 Q1495.63 1485.39 1493.18 1484.54 L1493.18 1480.02 Q1495.12 1481.16 1497.44 1481.74 Q1499.75 1482.32 1502.27 1482.32 Q1506.67 1482.32 1508.96 1480.58 Q1511.28 1478.84 1511.28 1475.53 Q1511.28 1472.48 1509.13 1470.77 Q1507 1469.03 1503.18 1469.03 L1499.15 1469.03 L1499.15 1465.19 L1503.36 1465.19 Q1506.81 1465.19 1508.64 1463.82 Q1510.47 1462.43 1510.47 1459.84 Q1510.47 1457.18 1508.57 1455.77 Q1506.7 1454.33 1503.18 1454.33 Q1501.26 1454.33 1499.06 1454.75 Q1496.86 1455.16 1494.22 1456.04 L1494.22 1451.88 Q1496.88 1451.14 1499.2 1450.77 Q1501.53 1450.39 1503.59 1450.39 Q1508.92 1450.39 1512.02 1452.83 Q1515.12 1455.23 1515.12 1459.35 Q1515.12 1462.22 1513.48 1464.21 Q1511.83 1466.18 1508.8 1466.95 Z" fill="#000000" fill-rule="nonzero" fill-opacity="1" /><path clip-path="url(#clip040)" d="M1903.98 1455.09 L1892.17 1473.54 L1903.98 1473.54 L1903.98 1455.09 M1902.75 1451.02 L1908.63 1451.02 L1908.63 1473.54 L1913.56 1473.54 L1913.56 1477.43 L1908.63 1477.43 L1908.63 1485.58 L1903.98 1485.58 L1903.98 1477.43 L1888.37 1477.43 L1888.37 1472.92 L1902.75 1451.02 Z" fill="#000000" fill-rule="nonzero" fill-opacity="1" /><path clip-path="url(#clip040)" d="M2287.66 1451.02 L2306.01 1451.02 L2306.01 1454.96 L2291.94 1454.96 L2291.94 1463.43 Q2292.96 1463.08 2293.97 1462.92 Q2294.99 1462.73 2296.01 1462.73 Q2301.8 1462.73 2305.18 1465.9 Q2308.56 1469.08 2308.56 1474.49 Q2308.56 1480.07 2305.09 1483.17 Q2301.61 1486.25 2295.29 1486.25 Q2293.12 1486.25 2290.85 1485.88 Q2288.6 1485.51 2286.2 1484.77 L2286.2 1480.07 Q2288.28 1481.2 2290.5 1481.76 Q2292.72 1482.32 2295.2 1482.32 Q2299.21 1482.32 2301.54 1480.21 Q2303.88 1478.1 2303.88 1474.49 Q2303.88 1470.88 2301.54 1468.77 Q2299.21 1466.67 2295.2 1466.67 Q2293.33 1466.67 2291.45 1467.08 Q2289.6 1467.5 2287.66 1468.38 L2287.66 1451.02 Z" fill="#000000" fill-rule="nonzero" fill-opacity="1" /><path clip-path="url(#clip040)" d="M1174.54 1520.52 L1214.74 1520.52 L1214.74 1525.93 L1197.87 1525.93 L1197.87 1568.04 L1191.41 1568.04 L1191.41 1525.93 L1174.54 1525.93 L1174.54 1520.52 Z" fill="#000000" fill-rule="nonzero" fill-opacity="1" /><path clip-path="url(#clip040)" d="M1218.68 1532.4 L1224.54 1532.4 L1224.54 1568.04 L1218.68 1568.04 L1218.68 1532.4 M1218.68 1518.52 L1224.54 1518.52 L1224.54 1525.93 L1218.68 1525.93 L1218.68 1518.52 Z" fill="#000000" fill-rule="nonzero" fill-opacity="1" /><path clip-path="url(#clip040)" d="M1264.55 1539.24 Q1266.75 1535.29 1269.8 1533.41 Q1272.86 1531.54 1276.99 1531.54 Q1282.56 1531.54 1285.59 1535.45 Q1288.61 1539.33 1288.61 1546.53 L1288.61 1568.04 L1282.72 1568.04 L1282.72 1546.72 Q1282.72 1541.59 1280.91 1539.11 Q1279.09 1536.63 1275.37 1536.63 Q1270.82 1536.63 1268.18 1539.65 Q1265.54 1542.68 1265.54 1547.9 L1265.54 1568.04 L1259.65 1568.04 L1259.65 1546.72 Q1259.65 1541.56 1257.83 1539.11 Q1256.02 1536.63 1252.23 1536.63 Q1247.74 1536.63 1245.1 1539.68 Q1242.46 1542.71 1242.46 1547.9 L1242.46 1568.04 L1236.57 1568.04 L1236.57 1532.4 L1242.46 1532.4 L1242.46 1537.93 Q1244.47 1534.66 1247.27 1533.1 Q1250.07 1531.54 1253.92 1531.54 Q1257.8 1531.54 1260.51 1533.51 Q1263.24 1535.48 1264.55 1539.24 Z" fill="#000000" fill-rule="nonzero" fill-opacity="1" /><path clip-path="url(#clip040)" d="M1330.78 1548.76 L1330.78 1551.62 L1303.86 1551.62 Q1304.24 1557.67 1307.49 1560.85 Q1310.76 1564 1316.59 1564 Q1319.96 1564 1323.11 1563.17 Q1326.3 1562.35 1329.42 1560.69 L1329.42 1566.23 Q1326.26 1567.57 1322.95 1568.27 Q1319.64 1568.97 1316.24 1568.97 Q1307.71 1568.97 1302.71 1564 Q1297.75 1559.04 1297.75 1550.57 Q1297.75 1541.82 1302.46 1536.69 Q1307.2 1531.54 1315.22 1531.54 Q1322.41 1531.54 1326.58 1536.18 Q1330.78 1540.8 1330.78 1548.76 M1324.93 1547.04 Q1324.86 1542.23 1322.22 1539.37 Q1319.61 1536.5 1315.28 1536.5 Q1310.38 1536.5 1307.42 1539.27 Q1304.49 1542.04 1304.05 1547.07 L1324.93 1547.04 Z" fill="#000000" fill-rule="nonzero" fill-opacity="1" /><path clip-path="url(#clip040)" d="M1360.58 1518.52 L1374.07 1518.52 L1374.07 1523.07 L1366.43 1523.07 L1366.43 1572.09 L1374.07 1572.09 L1374.07 1576.64 L1360.58 1576.64 L1360.58 1518.52 Z" fill="#000000" fill-rule="nonzero" fill-opacity="1" /><path clip-path="url(#clip040)" d="M1409.27 1533.45 L1409.27 1538.98 Q1406.79 1537.71 1404.12 1537.07 Q1401.44 1536.44 1398.58 1536.44 Q1394.22 1536.44 1392.02 1537.77 Q1389.86 1539.11 1389.86 1541.79 Q1389.86 1543.82 1391.42 1545 Q1392.98 1546.15 1397.69 1547.2 L1399.69 1547.64 Q1405.93 1548.98 1408.54 1551.43 Q1411.18 1553.85 1411.18 1558.21 Q1411.18 1563.17 1407.24 1566.07 Q1403.32 1568.97 1396.45 1568.97 Q1393.58 1568.97 1390.46 1568.39 Q1387.38 1567.85 1383.94 1566.74 L1383.94 1560.69 Q1387.18 1562.38 1390.34 1563.24 Q1393.49 1564.07 1396.57 1564.07 Q1400.71 1564.07 1402.94 1562.66 Q1405.17 1561.23 1405.17 1558.65 Q1405.17 1556.27 1403.54 1554.99 Q1401.95 1553.72 1396.51 1552.54 L1394.47 1552.07 Q1389.03 1550.92 1386.61 1548.56 Q1384.19 1546.18 1384.19 1542.04 Q1384.19 1537.01 1387.76 1534.27 Q1391.32 1531.54 1397.88 1531.54 Q1401.13 1531.54 1403.99 1532.01 Q1406.85 1532.49 1409.27 1533.45 Z" fill="#000000" fill-rule="nonzero" fill-opacity="1" /><path clip-path="url(#clip040)" d="M1434.2 1518.52 L1434.2 1576.64 L1420.7 1576.64 L1420.7 1572.09 L1428.31 1572.09 L1428.31 1523.07 L1420.7 1523.07 L1420.7 1518.52 L1434.2 1518.52 Z" fill="#000000" fill-rule="nonzero" fill-opacity="1" /><polyline clip-path="url(#clip040)" style="stroke:#000000; stroke-linecap:round; stroke-linejoin:round; stroke-width:4; stroke-opacity:1; fill:none" points="255.977,1423.18 255.977,47.2441 "/>
<polyline clip-path="url(#clip040)" style="stroke:#000000; stroke-linecap:round; stroke-linejoin:round; stroke-width:4; stroke-opacity:1; fill:none" points="255.977,1416.1 274.875,1416.1 "/>
<polyline clip-path="url(#clip040)" style="stroke:#000000; stroke-linecap:round; stroke-linejoin:round; stroke-width:4; stroke-opacity:1; fill:none" points="255.977,1057.08 274.875,1057.08 "/>
<polyline clip-path="url(#clip040)" style="stroke:#000000; stroke-linecap:round; stroke-linejoin:round; stroke-width:4; stroke-opacity:1; fill:none" points="255.977,698.063 274.875,698.063 "/>
<polyline clip-path="url(#clip040)" style="stroke:#000000; stroke-linecap:round; stroke-linejoin:round; stroke-width:4; stroke-opacity:1; fill:none" points="255.977,339.045 274.875,339.045 "/>
<path clip-path="url(#clip040)" d="M114.631 1416.55 L144.306 1416.55 L144.306 1420.49 L114.631 1420.49 L114.631 1416.55 Z" fill="#000000" fill-rule="nonzero" fill-opacity="1" /><path clip-path="url(#clip040)" d="M164.399 1401.9 Q160.788 1401.9 158.959 1405.46 Q157.153 1409.01 157.153 1416.14 Q157.153 1423.24 158.959 1426.81 Q160.788 1430.35 164.399 1430.35 Q168.033 1430.35 169.839 1426.81 Q171.667 1423.24 171.667 1416.14 Q171.667 1409.01 169.839 1405.46 Q168.033 1401.9 164.399 1401.9 M164.399 1398.2 Q170.209 1398.2 173.264 1402.8 Q176.343 1407.39 176.343 1416.14 Q176.343 1424.86 173.264 1429.47 Q170.209 1434.05 164.399 1434.05 Q158.589 1434.05 155.51 1429.47 Q152.454 1424.86 152.454 1416.14 Q152.454 1407.39 155.51 1402.8 Q158.589 1398.2 164.399 1398.2 Z" fill="#000000" fill-rule="nonzero" fill-opacity="1" /><path clip-path="url(#clip040)" d="M184.561 1427.5 L189.445 1427.5 L189.445 1433.38 L184.561 1433.38 L184.561 1427.5 Z" fill="#000000" fill-rule="nonzero" fill-opacity="1" /><path clip-path="url(#clip040)" d="M203.658 1429.45 L219.977 1429.45 L219.977 1433.38 L198.033 1433.38 L198.033 1429.45 Q200.695 1426.69 205.278 1422.06 Q209.885 1417.41 211.065 1416.07 Q213.311 1413.54 214.19 1411.81 Q215.093 1410.05 215.093 1408.36 Q215.093 1405.6 213.149 1403.87 Q211.227 1402.13 208.125 1402.13 Q205.926 1402.13 203.473 1402.9 Q201.042 1403.66 198.264 1405.21 L198.264 1400.49 Q201.088 1399.35 203.542 1398.77 Q205.996 1398.2 208.033 1398.2 Q213.403 1398.2 216.598 1400.88 Q219.792 1403.57 219.792 1408.06 Q219.792 1410.19 218.982 1412.11 Q218.195 1414.01 216.088 1416.6 Q215.51 1417.27 212.408 1420.49 Q209.306 1423.68 203.658 1429.45 Z" fill="#000000" fill-rule="nonzero" fill-opacity="1" /><path clip-path="url(#clip040)" d="M114.26 1057.53 L143.936 1057.53 L143.936 1061.47 L114.26 1061.47 L114.26 1057.53 Z" fill="#000000" fill-rule="nonzero" fill-opacity="1" /><path clip-path="url(#clip040)" d="M164.028 1042.88 Q160.417 1042.88 158.589 1046.45 Q156.783 1049.99 156.783 1057.12 Q156.783 1064.22 158.589 1067.79 Q160.417 1071.33 164.028 1071.33 Q167.663 1071.33 169.468 1067.79 Q171.297 1064.22 171.297 1057.12 Q171.297 1049.99 169.468 1046.45 Q167.663 1042.88 164.028 1042.88 M164.028 1039.18 Q169.839 1039.18 172.894 1043.78 Q175.973 1048.37 175.973 1057.12 Q175.973 1065.84 172.894 1070.45 Q169.839 1075.03 164.028 1075.03 Q158.218 1075.03 155.14 1070.45 Q152.084 1065.84 152.084 1057.12 Q152.084 1048.37 155.14 1043.78 Q158.218 1039.18 164.028 1039.18 Z" fill="#000000" fill-rule="nonzero" fill-opacity="1" /><path clip-path="url(#clip040)" d="M184.19 1068.48 L189.075 1068.48 L189.075 1074.36 L184.19 1074.36 L184.19 1068.48 Z" fill="#000000" fill-rule="nonzero" fill-opacity="1" /><path clip-path="url(#clip040)" d="M200.07 1070.43 L207.709 1070.43 L207.709 1044.06 L199.399 1045.73 L199.399 1041.47 L207.662 1039.8 L212.338 1039.8 L212.338 1070.43 L219.977 1070.43 L219.977 1074.36 L200.07 1074.36 L200.07 1070.43 Z" fill="#000000" fill-rule="nonzero" fill-opacity="1" /><path clip-path="url(#clip040)" d="M162.802 683.862 Q159.19 683.862 157.362 687.427 Q155.556 690.969 155.556 698.098 Q155.556 705.205 157.362 708.769 Q159.19 712.311 162.802 712.311 Q166.436 712.311 168.241 708.769 Q170.07 705.205 170.07 698.098 Q170.07 690.969 168.241 687.427 Q166.436 683.862 162.802 683.862 M162.802 680.158 Q168.612 680.158 171.667 684.765 Q174.746 689.348 174.746 698.098 Q174.746 706.825 171.667 711.431 Q168.612 716.015 162.802 716.015 Q156.991 716.015 153.913 711.431 Q150.857 706.825 150.857 698.098 Q150.857 689.348 153.913 684.765 Q156.991 680.158 162.802 680.158 Z" fill="#000000" fill-rule="nonzero" fill-opacity="1" /><path clip-path="url(#clip040)" d="M182.963 709.464 L187.848 709.464 L187.848 715.343 L182.963 715.343 L182.963 709.464 Z" fill="#000000" fill-rule="nonzero" fill-opacity="1" /><path clip-path="url(#clip040)" d="M208.033 683.862 Q204.422 683.862 202.593 687.427 Q200.787 690.969 200.787 698.098 Q200.787 705.205 202.593 708.769 Q204.422 712.311 208.033 712.311 Q211.667 712.311 213.473 708.769 Q215.301 705.205 215.301 698.098 Q215.301 690.969 213.473 687.427 Q211.667 683.862 208.033 683.862 M208.033 680.158 Q213.843 680.158 216.898 684.765 Q219.977 689.348 219.977 698.098 Q219.977 706.825 216.898 711.431 Q213.843 716.015 208.033 716.015 Q202.223 716.015 199.144 711.431 Q196.088 706.825 196.088 698.098 Q196.088 689.348 199.144 684.765 Q202.223 680.158 208.033 680.158 Z" fill="#000000" fill-rule="nonzero" fill-opacity="1" /><path clip-path="url(#clip040)" d="M164.028 324.843 Q160.417 324.843 158.589 328.408 Q156.783 331.95 156.783 339.079 Q156.783 346.186 158.589 349.751 Q160.417 353.292 164.028 353.292 Q167.663 353.292 169.468 349.751 Q171.297 346.186 171.297 339.079 Q171.297 331.95 169.468 328.408 Q167.663 324.843 164.028 324.843 M164.028 321.14 Q169.839 321.14 172.894 325.746 Q175.973 330.329 175.973 339.079 Q175.973 347.806 172.894 352.413 Q169.839 356.996 164.028 356.996 Q158.218 356.996 155.14 352.413 Q152.084 347.806 152.084 339.079 Q152.084 330.329 155.14 325.746 Q158.218 321.14 164.028 321.14 Z" fill="#000000" fill-rule="nonzero" fill-opacity="1" /><path clip-path="url(#clip040)" d="M184.19 350.445 L189.075 350.445 L189.075 356.325 L184.19 356.325 L184.19 350.445 Z" fill="#000000" fill-rule="nonzero" fill-opacity="1" /><path clip-path="url(#clip040)" d="M200.07 352.389 L207.709 352.389 L207.709 326.024 L199.399 327.69 L199.399 323.431 L207.662 321.765 L212.338 321.765 L212.338 352.389 L219.977 352.389 L219.977 356.325 L200.07 356.325 L200.07 352.389 Z" fill="#000000" fill-rule="nonzero" fill-opacity="1" /><path clip-path="url(#clip040)" d="M20.8447 823.791 Q20.8447 830.793 26.0645 834.931 Q31.2844 839.037 40.2919 839.037 Q49.2675 839.037 54.4874 834.931 Q59.7073 830.793 59.7073 823.791 Q59.7073 816.788 54.4874 812.714 Q49.2675 808.609 40.2919 808.609 Q31.2844 808.609 26.0645 812.714 Q20.8447 816.788 20.8447 823.791 M15.6248 823.791 Q15.6248 813.797 22.3406 807.813 Q29.0246 801.829 40.2919 801.829 Q51.5274 801.829 58.2432 807.813 Q64.9272 813.797 64.9272 823.791 Q64.9272 833.817 58.2432 839.832 Q51.5592 845.816 40.2919 845.816 Q29.0246 845.816 22.3406 839.832 Q15.6248 833.817 15.6248 823.791 Z" fill="#000000" fill-rule="nonzero" fill-opacity="1" /><path clip-path="url(#clip040)" d="M49.9359 792.631 L28.3562 792.631 L28.3562 786.774 L49.7131 786.774 Q54.7739 786.774 57.3202 784.801 Q59.8346 782.827 59.8346 778.881 Q59.8346 774.138 56.8109 771.401 Q53.7872 768.632 48.5673 768.632 L28.3562 768.632 L28.3562 762.775 L64.0042 762.775 L64.0042 768.632 L58.5296 768.632 Q61.7762 770.764 63.3676 773.597 Q64.9272 776.398 64.9272 780.122 Q64.9272 786.265 61.1078 789.448 Q57.2883 792.631 49.9359 792.631 M27.4968 777.894 L27.4968 777.894 Z" fill="#000000" fill-rule="nonzero" fill-opacity="1" /><path clip-path="url(#clip040)" d="M18.2347 744.92 L28.3562 744.92 L28.3562 732.857 L32.9077 732.857 L32.9077 744.92 L52.2594 744.92 Q56.6199 744.92 57.8613 743.742 Q59.1026 742.533 59.1026 738.872 L59.1026 732.857 L64.0042 732.857 L64.0042 738.872 Q64.0042 745.652 61.4897 748.23 Q58.9434 750.808 52.2594 750.808 L32.9077 750.808 L32.9077 755.105 L28.3562 755.105 L28.3562 750.808 L18.2347 750.808 L18.2347 744.92 Z" fill="#000000" fill-rule="nonzero" fill-opacity="1" /><path clip-path="url(#clip040)" d="M58.657 719.489 L77.5631 719.489 L77.5631 725.377 L28.3562 725.377 L28.3562 719.489 L33.7671 719.489 Q30.5842 717.643 29.0564 714.842 Q27.4968 712.009 27.4968 708.094 Q27.4968 701.601 32.6531 697.559 Q37.8093 693.485 46.212 693.485 Q54.6147 693.485 59.771 697.559 Q64.9272 701.601 64.9272 708.094 Q64.9272 712.009 63.3994 714.842 Q61.8398 717.643 58.657 719.489 M46.212 699.564 Q39.7508 699.564 36.0905 702.238 Q32.3984 704.879 32.3984 709.526 Q32.3984 714.173 36.0905 716.847 Q39.7508 719.489 46.212 719.489 Q52.6732 719.489 56.3653 716.847 Q60.0256 714.173 60.0256 709.526 Q60.0256 704.879 56.3653 702.238 Q52.6732 699.564 46.212 699.564 Z" fill="#000000" fill-rule="nonzero" fill-opacity="1" /><path clip-path="url(#clip040)" d="M49.9359 684.382 L28.3562 684.382 L28.3562 678.525 L49.7131 678.525 Q54.7739 678.525 57.3202 676.552 Q59.8346 674.579 59.8346 670.632 Q59.8346 665.889 56.8109 663.152 Q53.7872 660.383 48.5673 660.383 L28.3562 660.383 L28.3562 654.527 L64.0042 654.527 L64.0042 660.383 L58.5296 660.383 Q61.7762 662.516 63.3676 665.348 Q64.9272 668.149 64.9272 671.873 Q64.9272 678.016 61.1078 681.199 Q57.2883 684.382 49.9359 684.382 M27.4968 669.645 L27.4968 669.645 Z" fill="#000000" fill-rule="nonzero" fill-opacity="1" /><path clip-path="url(#clip040)" d="M18.2347 636.671 L28.3562 636.671 L28.3562 624.608 L32.9077 624.608 L32.9077 636.671 L52.2594 636.671 Q56.6199 636.671 57.8613 635.493 Q59.1026 634.284 59.1026 630.623 L59.1026 624.608 L64.0042 624.608 L64.0042 630.623 Q64.0042 637.403 61.4897 639.981 Q58.9434 642.559 52.2594 642.559 L32.9077 642.559 L32.9077 646.856 L28.3562 646.856 L28.3562 642.559 L18.2347 642.559 L18.2347 636.671 Z" fill="#000000" fill-rule="nonzero" fill-opacity="1" /><polyline clip-path="url(#clip042)" style="stroke:#009af9; stroke-linecap:round; stroke-linejoin:round; stroke-width:4; stroke-opacity:1; fill:none" points="315.32,698.063 319.284,698.063 323.248,698.063 323.248,662.577 327.212,662.577 327.212,628.135 331.176,628.135 331.176,595.041 335.141,595.041 335.141,563.565 339.105,563.565 339.105,533.94 343.069,533.94 343.069,506.36 347.033,506.36 347.033,480.978 350.997,480.978 350.997,457.898 354.961,457.898 354.961,437.184 358.925,437.184 358.925,418.851 362.889,418.851 362.889,402.871 366.853,402.871 366.853,389.176 370.818,389.176 370.818,377.654 374.782,377.654 374.782,368.161 378.746,368.161 378.746,360.517 382.71,360.517 382.71,425.49 386.674,425.49 386.674,489.785 390.638,489.785 390.638,552.55 394.602,552.55 394.602,612.983 398.566,612.983 398.566,670.35 402.53,670.35 402.53,653.02 406.495,653.02 406.495,633.489 410.459,633.489 410.459,611.891 414.423,611.891 414.423,588.398 418.387,588.398 418.387,563.221 422.351,563.221 422.351,607.572 426.315,607.572 426.315,648.649 430.279,648.649 430.279,686.13 434.243,686.13 434.243,719.769 438.208,719.769 438.208,749.397 442.172,749.397 442.172,774.929 446.136,774.929 446.136,796.357 450.1,796.357 450.1,813.749 454.064,813.749 454.064,827.249 458.028,827.249 458.028,837.069 461.992,837.069 461.992,843.482 465.956,843.482 465.956,846.82 469.92,846.82 469.92,847.458 473.885,847.458 473.885,845.811 477.849,845.811 477.849,842.325 481.813,842.325 481.813,766.49 485.777,766.49 485.777,691.844 489.741,691.844 489.741,619.466 493.705,619.466 493.705,550.363 497.669,550.363 497.669,485.448 501.633,485.448 501.633,425.532 505.597,425.532 505.597,371.306 509.562,371.306 509.562,323.33 513.526,323.33 513.526,282.029 517.49,282.029 517.49,247.69 521.454,247.69 521.454,220.454 525.418,220.454 525.418,200.323 529.382,200.323 529.382,187.163 533.346,187.163 533.346,180.71 537.31,180.71 537.31,180.577 541.275,180.577 541.275,186.27 545.239,186.27 545.239,197.197 549.203,197.197 549.203,212.682 553.167,212.682 553.167,231.985 557.131,231.985 557.131,254.315 561.095,254.315 561.095,278.846 565.059,278.846 565.059,304.738 569.023,304.738 569.023,331.152 572.987,331.152 572.987,357.265 576.952,357.265 576.952,382.289 580.916,382.289 580.916,476.456 584.88,476.456 584.88,566.02 588.844,566.02 588.844,649.768 592.808,649.768 592.808,726.635 596.772,726.635 596.772,795.715 600.736,795.715 600.736,785.307 604.7,785.307 604.7,767.933 608.664,767.933 608.664,743.843 612.629,743.843 612.629,713.418 616.593,713.418 616.593,677.152 620.557,677.152 620.557,706.619 624.521,706.619 624.521,729.44 628.485,729.44 628.485,745.771 632.449,745.771 632.449,755.885 636.413,755.885 636.413,760.165 640.377,760.165 640.377,759.096 644.341,759.096 644.341,753.247 648.306,753.247 648.306,743.262 652.27,743.262 652.27,729.843 656.234,729.843 656.234,713.736 660.198,713.736 660.198,695.711 664.162,695.711 664.162,676.553 668.126,676.553 668.126,657.04 672.09,657.04 672.09,637.932 676.054,637.932 676.054,619.952 680.019,619.952 680.019,532.806 683.983,532.806 683.983,450.176 687.947,450.176 687.947,373.216 691.911,373.216 691.911,302.937 695.875,302.937 695.875,240.193 699.839,240.193 699.839,256.64 703.803,256.64 703.803,279.719 707.767,279.719 707.767,309.147 711.731,309.147 711.731,344.52 715.696,344.52 715.696,385.327 719.66,385.327 719.66,430.96 723.624,430.96 723.624,480.731 727.588,480.731 727.588,533.889 731.552,533.889 731.552,589.633 735.516,589.633 735.516,647.133 739.48,647.133 739.48,705.543 743.444,705.543 743.444,764.025 747.408,764.025 747.408,821.756 751.373,821.756 751.373,877.953 755.337,877.953 755.337,931.881 759.301,931.881 759.301,982.868 763.265,982.868 763.265,1030.32 767.229,1030.32 767.229,1073.72 771.193,1073.72 771.193,1112.64 775.157,1112.64 775.157,1146.77 779.121,1146.77 779.121,1104.91 783.085,1104.91 783.085,1060 787.05,1060 787.05,1012.62 791.014,1012.62 791.014,963.403 794.978,963.403 794.978,912.981 798.942,912.981 798.942,932.982 802.906,932.982 802.906,950.987 806.87,950.987 806.87,967.02 810.834,967.02 810.834,981.141 814.798,981.141 814.798,993.44 818.763,993.44 818.763,933.065 822.727,933.065 822.727,873.231 826.691,873.231 826.691,814.713 830.655,814.713 830.655,758.242 834.619,758.242 834.619,704.49 838.583,704.49 838.583,654.063 842.547,654.063 842.547,607.482 846.511,607.482 846.511,565.184 850.475,565.184 850.475,527.514 854.44,527.514 854.44,494.715 858.404,494.715 858.404,537.907 862.368,537.907 862.368,584.073 866.332,584.073 866.332,632.556 870.296,632.556 870.296,682.672 874.26,682.672 874.26,733.72 878.224,733.72 878.224,784.998 882.188,784.998 882.188,835.82 886.152,835.82 886.152,885.521 890.117,885.521 890.117,933.478 894.081,933.478 894.081,979.117 898.045,979.117 898.045,950.949 902.009,950.949 902.009,921.591 905.973,921.591 905.973,891.276 909.937,891.276 909.937,860.25 913.901,860.25 913.901,828.772 917.865,828.772 917.865,868.079 921.829,868.079 921.829,905.368 925.794,905.368 925.794,940.294 929.758,940.294 929.758,972.562 933.722,972.562 933.722,1001.94 937.686,1001.94 937.686,1028.24 941.65,1028.24 941.65,1051.36 945.614,1051.36 945.614,1071.25 949.578,1071.25 949.578,1087.92 953.542,1087.92 953.542,1101.44 957.507,1101.44 957.507,1111.94 961.471,1111.94 961.471,1119.6 965.435,1119.6 965.435,1124.65 969.399,1124.65 969.399,1127.36 973.363,1127.36 973.363,1128.04 977.327,1128.04 977.327,1056.04 981.291,1056.04 981.291,984.782 985.255,984.782 985.255,915.244 989.219,915.244 989.219,848.335 993.184,848.335 993.184,784.894 997.148,784.894 997.148,796.646 1001.11,796.646 1001.11,811.174 1005.08,811.174 1005.08,828.411 1009.04,828.411 1009.04,848.237 1013,848.237 1013,870.479 1016.97,870.479 1016.97,894.921 1020.93,894.921 1020.93,921.306 1024.9,921.306 1024.9,949.344 1028.86,949.344 1028.86,978.719 1032.82,978.719 1032.82,1009.09 1036.79,1009.09 1036.79,969.143 1040.75,969.143 1040.75,931.58 1044.72,931.58 1044.72,896.655 1048.68,896.655 1048.68,864.566 1052.65,864.566 1052.65,835.451 1056.61,835.451 1056.61,809.391 1060.57,809.391 1060.57,786.409 1064.54,786.409 1064.54,766.469 1068.5,766.469 1068.5,749.482 1072.47,749.482 1072.47,735.306 1076.43,735.306 1076.43,794.727 1080.39,794.727 1080.39,854.449 1084.36,854.449 1084.36,913.6 1088.32,913.6 1088.32,971.343 1092.29,971.343 1092.29,1026.89 1096.25,1026.89 1096.25,1079.51 1100.21,1079.51 1100.21,1128.57 1104.18,1128.57 1104.18,1173.49 1108.14,1173.49 1108.14,1213.81 1112.11,1213.81 1112.11,1249.16 1116.07,1249.16 1116.07,1208.31 1120.04,1208.31 1120.04,1164.17 1124,1164.17 1124,1117.3 1127.96,1117.3 1127.96,1068.3 1131.93,1068.3 1131.93,1017.79 1135.89,1017.79 1135.89,966.428 1139.86,966.428 1139.86,914.851 1143.82,914.851 1143.82,863.694 1147.78,863.694 1147.78,813.568 1151.75,813.568 1151.75,765.051 1155.71,765.051 1155.71,718.673 1159.68,718.673 1159.68,674.912 1163.64,674.912 1163.64,634.184 1167.6,634.184 1167.6,596.836 1171.57,596.836 1171.57,563.143 1175.53,563.143 1175.53,604.275 1179.5,604.275 1179.5,647.29 1183.46,647.29 1183.46,691.622 1187.43,691.622 1187.43,736.698 1191.39,736.698 1191.39,781.94 1195.35,781.94 1195.35,826.784 1199.32,826.784 1199.32,870.683 1203.28,870.683 1203.28,913.124 1207.25,913.124 1207.25,953.636 1211.21,953.636 1211.21,991.794 1215.17,991.794 1215.17,956.256 1219.14,956.256 1219.14,919.78 1223.1,919.78 1223.1,882.729 1227.07,882.729 1227.07,845.471 1231.03,845.471 1231.03,808.369 1234.99,808.369 1234.99,842.753 1238.96,842.753 1238.96,875.895 1242.92,875.895 1242.92,907.505 1246.89,907.505 1246.89,937.328 1250.85,937.328 1250.85,965.151 1254.82,965.151 1254.82,919.826 1258.78,919.826 1258.78,874.29 1262.74,874.29 1262.74,829.066 1266.71,829.066 1266.71,784.658 1270.67,784.658 1270.67,741.545 1274.64,741.545 1274.64,700.167 1278.6,700.167 1278.6,660.924 1282.56,660.924 1282.56,624.162 1286.53,624.162 1286.53,590.175 1290.49,590.175 1290.49,559.196 1294.46,559.196 1294.46,602.368 1298.42,602.368 1298.42,646.734 1302.38,646.734 1302.38,691.73 1306.35,691.73 1306.35,736.796 1310.31,736.796 1310.31,781.381 1314.28,781.381 1314.28,824.958 1318.24,824.958 1318.24,867.032 1322.21,867.032 1322.21,907.147 1326.17,907.147 1326.17,944.899 1330.13,944.899 1330.13,979.936 1334.1,979.936 1334.1,1011.97 1338.06,1011.97 1338.06,1040.77 1342.03,1040.77 1342.03,1066.19 1345.99,1066.19 1345.99,1088.12 1349.95,1088.12 1349.95,1106.56 1353.92,1106.56 1353.92,1050.56 1357.88,1050.56 1357.88,993.306 1361.85,993.306 1361.85,935.566 1365.81,935.566 1365.81,878.102 1369.77,878.102 1369.77,821.653 1373.74,821.653 1373.74,837.894 1377.7,837.894 1377.7,854.41 1381.67,854.41 1381.67,871.185 1385.63,871.185 1385.63,888.193 1389.6,888.193 1389.6,905.404 1393.56,905.404 1393.56,922.781 1397.52,922.781 1397.52,940.28 1401.49,940.28 1401.49,957.856 1405.45,957.856 1405.45,975.457 1409.42,975.457 1409.42,993.032 1413.38,993.032 1413.38,939.555 1417.34,939.555 1417.34,888.037 1421.31,888.037 1421.31,839.032 1425.27,839.032 1425.27,793.03 1429.24,793.03 1429.24,750.453 1433.2,750.453 1433.2,782.622 1437.16,782.622 1437.16,816.736 1441.13,816.736 1441.13,852.374 1445.09,852.374 1445.09,889.092 1449.06,889.092 1449.06,926.436 1453.02,926.436 1453.02,963.949 1456.98,963.949 1456.98,1001.18 1460.95,1001.18 1460.95,1037.7 1464.91,1037.7 1464.91,1073.1 1468.88,1073.1 1468.88,1107.01 1472.84,1107.01 1472.84,1068.09 1476.81,1068.09 1476.81,1029.14 1480.77,1029.14 1480.77,990.488 1484.73,990.488 1484.73,952.494 1488.7,952.494 1488.7,915.477 1492.66,915.477 1492.66,950.712 1496.63,950.712 1496.63,985.404 1500.59,985.404 1500.59,1019.18 1504.55,1019.18 1504.55,1051.7 1508.52,1051.7 1508.52,1082.66 1512.48,1082.66 1512.48,1111.77 1516.45,1111.77 1516.45,1138.8 1520.41,1138.8 1520.41,1163.58 1524.37,1163.58 1524.37,1185.95 1528.34,1185.95 1528.34,1205.82 1532.3,1205.82 1532.3,1152.18 1536.27,1152.18 1536.27,1098.09 1540.23,1098.09 1540.23,1044.22 1544.2,1044.22 1544.2,991.206 1548.16,991.206 1548.16,939.645 1552.12,939.645 1552.12,961.078 1556.09,961.078 1556.09,982.953 1560.05,982.953 1560.05,1005.12 1564.02,1005.12 1564.02,1027.41 1567.98,1027.41 1567.98,1049.67 1571.94,1049.67 1571.94,1000.77 1575.91,1000.77 1575.91,953.625 1579.87,953.625 1579.87,908.695 1583.84,908.695 1583.84,866.39 1587.8,866.39 1587.8,827.058 1591.76,827.058 1591.76,790.984 1595.73,790.984 1595.73,758.383 1599.69,758.383 1599.69,729.402 1603.66,729.402 1603.66,704.112 1607.62,704.112 1607.62,682.517 1611.59,682.517 1611.59,664.551 1615.55,664.551 1615.55,650.082 1619.51,650.082 1619.51,638.916 1623.48,638.916 1623.48,630.806 1627.44,630.806 1627.44,625.453 1631.41,625.453 1631.41,622.518 1635.37,622.518 1635.37,621.628 1639.33,621.628 1639.33,622.383 1643.3,622.383 1643.3,624.369 1647.26,624.369 1647.26,627.159 1651.23,627.159 1651.23,630.331 1655.19,630.331 1655.19,633.469 1659.15,633.469 1659.15,636.172 1663.12,636.172 1663.12,638.066 1667.08,638.066 1667.08,638.805 1671.05,638.805 1671.05,709.054 1675.01,709.054 1675.01,775.481 1678.98,775.481 1678.98,837.258 1682.94,837.258 1682.94,893.671 1686.9,893.671 1686.9,944.127 1690.87,944.127 1690.87,917.193 1694.83,917.193 1694.83,885.608 1698.8,885.608 1698.8,849.791 1702.76,849.791 1702.76,810.235 1706.72,810.235 1706.72,767.495 1710.69,767.495 1710.69,722.176 1714.65,722.176 1714.65,674.92 1718.62,674.92 1718.62,626.389 1722.58,626.389 1722.58,577.255 1726.54,577.255 1726.54,528.186 1730.51,528.186 1730.51,479.831 1734.47,479.831 1734.47,432.809 1738.44,432.809 1738.44,387.698 1742.4,387.698 1742.4,345.025 1746.37,345.025 1746.37,305.256 1750.33,305.256 1750.33,339.761 1754.29,339.761 1754.29,375.801 1758.26,375.801 1758.26,413.017 1762.22,413.017 1762.22,451.035 1766.19,451.035 1766.19,489.471 1770.15,489.471 1770.15,527.942 1774.11,527.942 1774.11,566.069 1778.08,566.069 1778.08,603.491 1782.04,603.491 1782.04,639.864 1786.01,639.864 1786.01,674.874 1789.97,674.874 1789.97,637.264 1793.93,637.264 1793.93,599.853 1797.9,599.853 1797.9,563.04 1801.86,563.04 1801.86,527.205 1805.83,527.205 1805.83,492.7 1809.79,492.7 1809.79,530.817 1813.76,530.817 1813.76,568.773 1817.72,568.773 1817.72,606.2 1821.68,606.2 1821.68,642.748 1825.65,642.748 1825.65,678.091 1829.61,678.091 1829.61,640.959 1833.58,640.959 1833.58,604.156 1837.54,604.156 1837.54,568.062 1841.5,568.062 1841.5,533.038 1845.47,533.038 1845.47,499.416 1849.43,499.416 1849.43,467.491 1853.4,467.491 1853.4,437.523 1857.36,437.523 1857.36,409.728 1861.32,409.728 1861.32,384.273 1865.29,384.273 1865.29,361.282 1869.25,361.282 1869.25,411.8 1873.22,411.8 1873.22,462.786 1877.18,462.786 1877.18,513.611 1881.15,513.611 1881.15,563.665 1885.11,563.665 1885.11,612.366 1889.07,612.366 1889.07,659.172 1893.04,659.172 1893.04,703.591 1897,703.591 1897,745.189 1900.97,745.189 1900.97,783.596 1904.93,783.596 1904.93,818.514 1908.89,818.514 1908.89,849.715 1912.86,849.715 1912.86,877.051 1916.82,877.051 1916.82,900.449 1920.79,900.449 1920.79,919.913 1924.75,919.913 1924.75,935.52 1928.71,935.52 1928.71,876.444 1932.68,876.444 1932.68,815.962 1936.64,815.962 1936.64,754.95 1940.61,754.95 1940.61,694.274 1944.57,694.274 1944.57,634.768 1948.54,634.768 1948.54,577.224 1952.5,577.224 1952.5,522.375 1956.46,522.375 1956.46,470.883 1960.43,470.883 1960.43,423.328 1964.39,423.328 1964.39,380.196 1968.36,380.196 1968.36,341.879 1972.32,341.879 1972.32,308.664 1976.28,308.664 1976.28,280.731 1980.25,280.731 1980.25,258.157 1984.21,258.157 1984.21,240.912 1988.18,240.912 1988.18,228.866 1992.14,228.866 1992.14,221.794 1996.1,221.794 1996.1,219.383 2000.07,219.383 2000.07,221.24 2004.03,221.24 2004.03,226.903 2008,226.903 2008,235.852 2011.96,235.852 2011.96,247.519 2015.93,247.519 2015.93,261.305 2019.89,261.305 2019.89,276.589 2023.85,276.589 2023.85,292.739 2027.82,292.739 2027.82,309.132 2031.78,309.132 2031.78,325.158 2035.75,325.158 2035.75,340.237 2039.71,340.237 2039.71,353.826 2043.67,353.826 2043.67,365.431 2047.64,365.431 2047.64,445.588 2051.6,445.588 2051.6,520.859 2055.57,520.859 2055.57,590.332 2059.53,590.332 2059.53,653.234 2063.49,653.234 2063.49,708.939 2067.46,708.939 2067.46,756.978 2071.42,756.978 2071.42,797.042 2075.39,797.042 2075.39,828.982 2079.35,828.982 2079.35,852.812 2083.32,852.812 2083.32,868.699 2087.28,868.699 2087.28,876.96 2091.24,876.96 2091.24,878.046 2095.21,878.046 2095.21,872.533 2099.17,872.533 2099.17,861.106 2103.14,861.106 2103.14,844.542 2107.1,844.542 2107.1,752.719 2111.06,752.719 2111.06,659.608 2115.03,659.608 2115.03,566.757 2118.99,566.757 2118.99,475.666 2122.96,475.666 2122.96,387.758 2126.92,387.758 2126.92,375.329 2130.88,375.329 2130.88,366.513 2134.85,366.513 2134.85,361.759 2138.81,361.759 2138.81,361.419 2142.78,361.419 2142.78,365.743 2146.74,365.743 2146.74,303.905 2150.7,303.905 2150.7,249.017 2154.67,249.017 2154.67,201.625 2158.63,201.625 2158.63,162.12 2162.6,162.12 2162.6,130.727 2166.56,130.727 2166.56,178.481 2170.53,178.481 2170.53,232.221 2174.49,232.221 2174.49,291.092 2178.45,291.092 2178.45,354.161 2182.42,354.161 2182.42,420.435 2186.38,420.435 2186.38,488.883 2190.35,488.883 2190.35,558.459 2194.31,558.459 2194.31,628.123 2198.27,628.123 2198.27,696.859 2202.24,696.859 2202.24,763.696 2206.2,763.696 2206.2,827.725 2210.17,827.725 2210.17,888.118 2214.13,888.118 2214.13,944.136 2218.09,944.136 2218.09,995.147 2222.06,995.147 2222.06,1040.63 2226.02,1040.63 2226.02,1009.22 2229.99,1009.22 2229.99,973.702 2233.95,973.702 2233.95,934.535 2237.92,934.535 2237.92,892.239 2241.88,892.239 2241.88,847.383 2245.84,847.383 2245.84,800.574 2249.81,800.574 2249.81,752.443 2253.77,752.443 2253.77,703.631 2257.74,703.631 2257.74,654.777 2261.7,654.777 2261.7,606.505 2265.66,606.505 2265.66,630.389 2269.63,630.389 2269.63,653.922 2273.59,653.922 2273.59,677.015 2277.56,677.015 2277.56,699.582 2281.52,699.582 2281.52,721.551 2285.48,721.551 2285.48,742.856 2289.45,742.856 2289.45,763.445 2293.41,763.445 2293.41,783.277 "/>
<polyline clip-path="url(#clip042)" style="stroke:#e26f46; stroke-linecap:round; stroke-linejoin:round; stroke-width:4; stroke-opacity:1; fill:none" points="315.32,691.609 319.284,955.41 323.248,898.834 327.212,835.539 331.176,773.6 335.141,713.57 339.105,655.793 343.069,600.574 347.033,548.193 350.997,498.893 354.961,452.89 358.925,410.366 362.889,371.47 366.853,336.321 370.818,305.007 374.782,277.586 378.746,253.897 382.71,304.984 386.674,358.551 390.638,412.434 394.602,466.204 398.566,519.676 402.53,501.458 406.495,483.486 410.459,467.563 414.423,453.756 418.387,441.885 422.351,502.987 426.315,564.771 430.279,625.092 434.243,683.549 438.208,739.814 442.172,793.586 446.136,844.596 450.1,892.604 454.064,937.402 458.028,978.812 461.992,1016.69 465.956,1050.92 469.92,1081.41 473.885,1108.11 477.849,1131.19 481.813,1079.59 485.777,1025.61 489.741,971.415 493.705,917.434 497.669,864.032 501.633,811.557 505.597,760.336 509.562,710.672 513.526,662.846 517.49,617.113 521.454,573.705 525.418,532.826 529.382,494.654 533.346,459.342 537.31,427.015 541.275,397.774 545.239,371.693 549.203,348.821 553.167,329.182 557.131,312.778 561.095,299.588 565.059,289.568 569.023,282.656 572.987,278.77 576.952,277.622 580.916,350.141 584.88,423.927 588.844,496.728 592.808,568.036 596.772,637.604 600.736,633.985 604.7,629.08 608.664,624.663 612.629,620.786 616.593,617.268 620.557,685.151 624.521,752.165 628.485,816.192 632.449,876.872 636.413,933.919 640.377,987.091 644.341,1036.18 648.306,1081.01 652.27,1121.46 656.234,1157.42 660.198,1188.83 664.162,1215.66 668.126,1237.93 672.09,1255.66 676.054,1269.1 680.019,1207.32 683.983,1142.7 687.947,1077.49 691.911,1012.22 695.875,947.156 699.839,953.775 703.803,960.222 707.767,964.771 711.731,967.43 715.696,968.258 719.66,967.326 723.624,964.714 727.588,960.51 731.552,954.811 735.516,947.719 739.48,939.342 743.444,929.791 747.408,919.183 751.373,907.635 755.337,895.268 759.301,882.201 763.265,868.555 767.229,854.449 771.193,840.001 775.157,825.511 779.121,740.05 783.085,655.992 787.05,575.551 791.014,499.176 794.978,427.042 798.942,430.51 802.906,437.578 806.87,446.359 810.834,456.681 814.798,468.592 818.763,410.908 822.727,355.755 826.691,305.098 830.655,259.141 834.619,218.008 838.583,181.785 842.547,150.517 846.511,124.215 850.475,102.853 854.44,86.1857 858.404,145.168 862.368,207.411 866.332,270.658 870.296,334.386 874.26,398.131 878.224,461.447 882.188,523.913 886.152,585.129 890.117,644.721 894.081,702.53 898.045,687.193 902.009,670.691 905.973,654.873 909.937,639.862 913.901,625.543 917.865,683.021 921.829,740.081 925.794,794.655 929.758,846.426 933.722,895.152 937.686,940.619 941.65,982.649 945.614,1021.09 949.578,1055.83 953.542,1086.78 957.507,1113.89 961.471,1137.11 965.435,1156.47 969.399,1171.98 973.363,1183.88 977.327,1121.21 981.291,1056.34 985.255,991.496 989.219,927.169 993.184,863.601 997.148,872.236 1001.11,881.181 1005.08,888.675 1009.04,894.684 1013,899.228 1016.97,902.336 1020.93,904.048 1024.9,904.41 1028.86,903.475 1032.82,901.492 1036.79,827.483 1040.75,753.79 1044.72,682.599 1048.68,614.342 1052.65,549.372 1056.61,488.004 1060.57,430.513 1064.54,377.137 1068.5,328.076 1072.47,283.303 1076.43,313.984 1080.39,347.938 1084.36,383.103 1088.32,419.142 1092.29,455.768 1096.25,492.701 1100.21,529.67 1104.18,566.418 1108.14,602.697 1112.11,638.462 1116.07,602.451 1120.04,566.73 1124,533.222 1127.96,502.109 1131.93,473.507 1135.89,447.512 1139.86,424.195 1143.82,403.605 1147.78,385.772 1151.75,370.704 1155.71,358.391 1159.68,348.802 1163.64,341.891 1167.6,337.593 1171.57,335.642 1175.53,406.987 1179.5,479.254 1183.46,550.213 1187.43,619.385 1191.39,686.361 1195.35,750.768 1199.32,812.265 1203.28,870.546 1207.25,925.34 1211.21,976.599 1215.17,953.08 1219.14,926.887 1223.1,900.002 1227.07,872.682 1231.03,844.949 1234.99,888.048 1238.96,929.904 1242.92,968.59 1246.89,1003.93 1250.85,1036 1254.82,993.685 1258.78,949.201 1262.74,904.634 1266.71,860.342 1270.67,816.62 1274.64,773.75 1278.6,731.994 1282.56,691.597 1286.53,652.781 1290.49,615.565 1294.46,651.175 1298.42,687.503 1302.38,722.581 1306.35,756.174 1310.31,788.111 1314.28,818.238 1318.24,846.422 1322.21,872.547 1326.17,896.519 1330.13,918.26 1334.1,937.713 1338.06,954.838 1342.03,969.614 1345.99,982.037 1349.95,992.304 1353.92,929.401 1357.88,865.639 1361.85,803.184 1365.81,742.459 1369.77,683.626 1373.74,698.051 1377.7,713.756 1381.67,728.891 1385.63,743.334 1389.6,757.011 1393.56,769.86 1397.52,781.826 1401.49,792.863 1405.45,802.933 1409.42,812.193 1413.38,749.578 1417.34,687.343 1421.31,627.593 1425.27,570.681 1429.24,516.697 1433.2,536.929 1437.16,559.319 1441.13,581.934 1445.09,604.566 1449.06,627.055 1453.02,649.252 1456.98,671.013 1460.95,692.205 1464.91,712.706 1468.88,732.588 1472.84,680.704 1476.81,629.23 1480.77,580.194 1484.73,533.877 1488.7,490.3 1492.66,520.688 1496.63,552.921 1500.59,585.011 1504.55,616.7 1508.52,647.782 1512.48,678.067 1516.45,707.377 1520.41,735.55 1524.37,762.437 1528.34,788.091 1532.3,741.351 1536.27,694.384 1540.23,649.213 1544.2,606.118 1548.16,565.126 1552.12,597.469 1556.09,631.042 1560.05,663.872 1564.02,695.72 1567.98,726.593 1571.94,685.281 1575.91,643.904 1579.87,604.441 1583.84,567.126 1587.8,532.13 1591.76,499.6 1595.73,469.66 1599.69,442.408 1603.66,417.922 1607.62,396.256 1611.59,377.443 1615.55,361.495 1619.51,348.402 1623.48,338.136 1627.44,330.65 1631.41,325.879 1635.37,323.744 1639.33,324.148 1643.3,326.982 1647.26,332.125 1651.23,339.444 1655.19,348.798 1659.15,360.035 1663.12,372.999 1667.08,387.341 1671.05,473.936 1675.01,560.348 1678.98,644.296 1682.94,725.257 1686.9,802.979 1690.87,806.023 1694.83,806.303 1698.8,805.622 1702.76,804.064 1706.72,801.68 1710.69,798.519 1714.65,794.636 1718.62,790.089 1722.58,784.938 1726.54,779.242 1730.51,773.066 1734.47,766.471 1738.44,759.521 1742.4,752.28 1746.37,744.624 1750.33,807.656 1754.29,869.17 1758.26,927.113 1762.22,981.191 1766.19,1031.19 1770.15,1076.93 1774.11,1118.27 1778.08,1155.11 1782.04,1187.38 1786.01,1215.24 1789.97,1167.64 1793.93,1116.87 1797.9,1065.13 1801.86,1012.84 1805.83,960.21 1809.79,978.653 1813.76,996.254 1817.72,1011.24 1821.68,1023.58 1825.65,1033.47 1829.61,969.924 1833.58,905.263 1837.54,841.672 1841.5,779.59 1845.47,719.386 1849.43,661.4 1853.4,605.944 1857.36,553.297 1861.32,503.708 1865.29,457.207 1869.25,485.023 1873.22,515.04 1877.18,545.271 1881.15,575.455 1885.11,605.382 1889.07,634.856 1893.04,663.69 1897,691.71 1900.97,718.755 1904.93,744.679 1908.89,769.347 1912.86,792.64 1916.82,814.454 1920.79,834.7 1924.75,853.488 1928.71,799.715 1932.68,745.603 1936.64,693.23 1940.61,642.929 1944.57,594.963 1948.54,549.569 1952.5,506.955 1956.46,467.302 1960.43,430.76 1964.39,397.455 1968.36,367.482 1972.32,340.91 1976.28,317.781 1980.25,298.114 1984.21,281.898 1988.18,269.103 1992.14,259.674 1996.1,253.536 2000.07,250.594 2004.03,250.734 2008,253.827 2011.96,259.726 2015.93,268.274 2019.89,279.3 2023.85,292.623 2027.82,308.055 2031.78,325.4 2035.75,344.456 2039.71,365.02 2043.67,386.699 2047.64,480.328 2051.6,573.435 2055.57,663.707 2059.53,750.591 2063.49,833.626 2067.46,912.394 2071.42,986.525 2075.39,1055.7 2079.35,1119.64 2083.32,1178.12 2087.28,1230.97 2091.24,1278.05 2095.21,1319.28 2099.17,1354.61 2103.14,1384.24 2107.1,1337.15 2111.06,1285.71 2115.03,1232.14 2118.99,1176.93 2122.96,1120.37 2126.92,1133.93 2130.88,1145.77 2134.85,1154.19 2138.81,1159.25 2142.78,1161.22 2146.74,1089.2 2150.7,1015.59 2154.67,942.655 2158.63,870.917 2162.6,800.639 2166.56,803.285 2170.53,806.971 2174.49,809.942 2178.45,812.166 2182.42,813.658 2186.38,814.438 2190.35,814.531 2194.31,813.963 2198.27,812.768 2202.24,810.98 2206.2,808.636 2210.17,805.775 2214.13,802.439 2218.09,798.672 2222.06,794.704 2226.02,719.538 2229.99,645.486 2233.95,574.705 2237.92,507.592 2241.88,444.461 2245.84,385.584 2249.81,331.194 2253.77,281.48 2257.74,236.592 2261.7,196.455 2265.66,232.182 2269.63,271.539 2273.59,312.413 2277.56,354.415 2281.52,397.203 2285.48,440.448 2289.45,483.828 2293.41,527.038 "/>
<polyline clip-path="url(#clip042)" style="stroke:#3da44d; stroke-linecap:round; stroke-linejoin:round; stroke-width:4; stroke-opacity:1; fill:none" points="315.32,698.063 319.284,698.063 323.248,662.577 327.212,628.135 331.176,595.041 335.141,563.565 339.105,533.94 343.069,506.36 347.033,480.978 350.997,457.898 354.961,437.184 358.925,418.851 362.889,402.871 366.853,389.176 370.818,377.654 374.782,368.161 378.746,360.517 382.71,425.49 386.674,489.785 390.638,552.55 394.602,612.983 398.566,670.35 402.53,653.02 406.495,633.489 410.459,611.891 414.423,588.398 418.387,563.221 422.351,607.572 426.315,648.649 430.279,686.13 434.243,719.769 438.208,749.397 442.172,774.929 446.136,796.357 450.1,813.749 454.064,827.249 458.028,837.069 461.992,843.482 465.956,846.82 469.92,847.458 473.885,845.811 477.849,842.325 481.813,766.49 485.777,691.844 489.741,619.466 493.705,550.363 497.669,485.448 501.633,425.532 505.597,371.306 509.562,323.33 513.526,282.029 517.49,247.69 521.454,220.454 525.418,200.323 529.382,187.163 533.346,180.71 537.31,180.577 541.275,186.27 545.239,197.197 549.203,212.682 553.167,231.985 557.131,254.315 561.095,278.846 565.059,304.738 569.023,331.152 572.987,357.265 576.952,382.289 580.916,476.456 584.88,566.02 588.844,649.768 592.808,726.635 596.772,795.715 600.736,785.307 604.7,767.933 608.664,743.843 612.629,713.418 616.593,677.152 620.557,706.619 624.521,729.44 628.485,745.771 632.449,755.885 636.413,760.165 640.377,759.096 644.341,753.247 648.306,743.262 652.27,729.843 656.234,713.736 660.198,695.711 664.162,676.553 668.126,657.04 672.09,637.932 676.054,619.952 680.019,532.806 683.983,450.176 687.947,373.216 691.911,302.937 695.875,240.193 699.839,256.64 703.803,279.719 707.767,309.147 711.731,344.52 715.696,385.327 719.66,430.96 723.624,480.731 727.588,533.889 731.552,589.633 735.516,647.133 739.48,705.543 743.444,764.025 747.408,821.756 751.373,877.953 755.337,931.881 759.301,982.868 763.265,1030.32 767.229,1073.72 771.193,1112.64 775.157,1146.77 779.121,1104.91 783.085,1060 787.05,1012.62 791.014,963.403 794.978,912.981 798.942,932.982 802.906,950.987 806.87,967.02 810.834,981.141 814.798,993.44 818.763,933.065 822.727,873.231 826.691,814.713 830.655,758.242 834.619,704.49 838.583,654.063 842.547,607.482 846.511,565.184 850.475,527.514 854.44,494.715 858.404,537.907 862.368,584.073 866.332,632.556 870.296,682.672 874.26,733.72 878.224,784.998 882.188,835.82 886.152,885.521 890.117,933.478 894.081,979.117 898.045,950.949 902.009,921.591 905.973,891.276 909.937,860.25 913.901,828.772 917.865,868.079 921.829,905.368 925.794,940.294 929.758,972.562 933.722,1001.94 937.686,1028.24 941.65,1051.36 945.614,1071.25 949.578,1087.92 953.542,1101.44 957.507,1111.94 961.471,1119.6 965.435,1124.65 969.399,1127.36 973.363,1128.04 977.327,1056.04 981.291,984.782 985.255,915.244 989.219,848.335 993.184,784.894 997.148,796.646 1001.11,811.174 1005.08,828.411 1009.04,848.237 1013,870.479 1016.97,894.921 1020.93,921.306 1024.9,949.344 1028.86,978.719 1032.82,1009.09 1036.79,969.143 1040.75,931.58 1044.72,896.655 1048.68,864.566 1052.65,835.451 1056.61,809.391 1060.57,786.409 1064.54,766.469 1068.5,749.482 1072.47,735.306 1076.43,794.727 1080.39,854.449 1084.36,913.6 1088.32,971.343 1092.29,1026.89 1096.25,1079.51 1100.21,1128.57 1104.18,1173.49 1108.14,1213.81 1112.11,1249.16 1116.07,1208.31 1120.04,1164.17 1124,1117.3 1127.96,1068.3 1131.93,1017.79 1135.89,966.428 1139.86,914.851 1143.82,863.694 1147.78,813.568 1151.75,765.051 1155.71,718.673 1159.68,674.912 1163.64,634.184 1167.6,596.836 1171.57,563.143 1175.53,604.275 1179.5,647.29 1183.46,691.622 1187.43,736.698 1191.39,781.94 1195.35,826.784 1199.32,870.683 1203.28,913.124 1207.25,953.636 1211.21,991.794 1215.17,956.256 1219.14,919.78 1223.1,882.729 1227.07,845.471 1231.03,808.369 1234.99,842.753 1238.96,875.895 1242.92,907.505 1246.89,937.328 1250.85,965.151 1254.82,919.826 1258.78,874.29 1262.74,829.066 1266.71,784.658 1270.67,741.545 1274.64,700.167 1278.6,660.924 1282.56,624.162 1286.53,590.175 1290.49,559.196 1294.46,602.368 1298.42,646.734 1302.38,691.73 1306.35,736.796 1310.31,781.381 1314.28,824.958 1318.24,867.032 1322.21,907.147 1326.17,944.899 1330.13,979.936 1334.1,1011.97 1338.06,1040.77 1342.03,1066.19 1345.99,1088.12 1349.95,1106.56 1353.92,1050.56 1357.88,993.306 1361.85,935.566 1365.81,878.102 1369.77,821.653 1373.74,837.894 1377.7,854.41 1381.67,871.185 1385.63,888.193 1389.6,905.404 1393.56,922.781 1397.52,940.28 1401.49,957.856 1405.45,975.457 1409.42,993.032 1413.38,939.555 1417.34,888.037 1421.31,839.032 1425.27,793.03 1429.24,750.453 1433.2,782.622 1437.16,816.736 1441.13,852.374 1445.09,889.092 1449.06,926.436 1453.02,963.949 1456.98,1001.18 1460.95,1037.7 1464.91,1073.1 1468.88,1107.01 1472.84,1068.09 1476.81,1029.14 1480.77,990.488 1484.73,952.494 1488.7,915.477 1492.66,950.712 1496.63,985.404 1500.59,1019.18 1504.55,1051.7 1508.52,1082.66 1512.48,1111.77 1516.45,1138.8 1520.41,1163.58 1524.37,1185.95 1528.34,1205.82 1532.3,1152.18 1536.27,1098.09 1540.23,1044.22 1544.2,991.206 1548.16,939.645 1552.12,961.078 1556.09,982.953 1560.05,1005.12 1564.02,1027.41 1567.98,1049.67 1571.94,1000.77 1575.91,953.625 1579.87,908.695 1583.84,866.39 1587.8,827.058 1591.76,790.984 1595.73,758.383 1599.69,729.402 1603.66,704.112 1607.62,682.517 1611.59,664.551 1615.55,650.082 1619.51,638.916 1623.48,630.806 1627.44,625.453 1631.41,622.518 1635.37,621.628 1639.33,622.383 1643.3,624.369 1647.26,627.159 1651.23,630.331 1655.19,633.469 1659.15,636.172 1663.12,638.066 1667.08,638.805 1671.05,709.054 1675.01,775.481 1678.98,837.258 1682.94,893.671 1686.9,944.127 1690.87,917.193 1694.83,885.608 1698.8,849.791 1702.76,810.235 1706.72,767.495 1710.69,722.176 1714.65,674.92 1718.62,626.389 1722.58,577.255 1726.54,528.186 1730.51,479.831 1734.47,432.809 1738.44,387.698 1742.4,345.025 1746.37,305.256 1750.33,339.761 1754.29,375.801 1758.26,413.017 1762.22,451.035 1766.19,489.471 1770.15,527.942 1774.11,566.069 1778.08,603.491 1782.04,639.864 1786.01,674.874 1789.97,637.264 1793.93,599.853 1797.9,563.04 1801.86,527.205 1805.83,492.7 1809.79,530.817 1813.76,568.773 1817.72,606.2 1821.68,642.748 1825.65,678.091 1829.61,640.959 1833.58,604.156 1837.54,568.062 1841.5,533.038 1845.47,499.416 1849.43,467.491 1853.4,437.523 1857.36,409.728 1861.32,384.273 1865.29,361.282 1869.25,411.8 1873.22,462.786 1877.18,513.611 1881.15,563.665 1885.11,612.366 1889.07,659.172 1893.04,703.591 1897,745.189 1900.97,783.596 1904.93,818.514 1908.89,849.715 1912.86,877.051 1916.82,900.449 1920.79,919.913 1924.75,935.52 1928.71,876.444 1932.68,815.962 1936.64,754.95 1940.61,694.274 1944.57,634.768 1948.54,577.224 1952.5,522.375 1956.46,470.883 1960.43,423.328 1964.39,380.196 1968.36,341.879 1972.32,308.664 1976.28,280.731 1980.25,258.157 1984.21,240.912 1988.18,228.866 1992.14,221.794 1996.1,219.383 2000.07,221.24 2004.03,226.903 2008,235.852 2011.96,247.519 2015.93,261.305 2019.89,276.589 2023.85,292.739 2027.82,309.132 2031.78,325.158 2035.75,340.237 2039.71,353.826 2043.67,365.431 2047.64,445.588 2051.6,520.859 2055.57,590.332 2059.53,653.234 2063.49,708.939 2067.46,756.978 2071.42,797.042 2075.39,828.982 2079.35,852.812 2083.32,868.699 2087.28,876.96 2091.24,878.046 2095.21,872.533 2099.17,861.106 2103.14,844.542 2107.1,752.719 2111.06,659.608 2115.03,566.757 2118.99,475.666 2122.96,387.758 2126.92,375.329 2130.88,366.513 2134.85,361.759 2138.81,361.419 2142.78,365.743 2146.74,303.905 2150.7,249.017 2154.67,201.625 2158.63,162.12 2162.6,130.727 2166.56,178.481 2170.53,232.221 2174.49,291.092 2178.45,354.161 2182.42,420.435 2186.38,488.883 2190.35,558.459 2194.31,628.123 2198.27,696.859 2202.24,763.696 2206.2,827.725 2210.17,888.118 2214.13,944.136 2218.09,995.147 2222.06,1040.63 2226.02,1009.22 2229.99,973.702 2233.95,934.535 2237.92,892.239 2241.88,847.383 2245.84,800.574 2249.81,752.443 2253.77,703.631 2257.74,654.777 2261.7,606.505 2265.66,630.389 2269.63,653.922 2273.59,677.015 2277.56,699.582 2281.52,721.551 2285.48,742.856 2289.45,763.445 2293.41,783.277 "/>
<path clip-path="url(#clip040)" d="M325.87 1377.32 L1442.86 1377.32 L1442.86 1169.96 L325.87 1169.96  Z" fill="#ffffff" fill-rule="evenodd" fill-opacity="1"/>
<polyline clip-path="url(#clip040)" style="stroke:#000000; stroke-linecap:round; stroke-linejoin:round; stroke-width:4; stroke-opacity:1; fill:none" points="325.87,1377.32 1442.86,1377.32 1442.86,1169.96 325.87,1169.96 325.87,1377.32 "/>
<polyline clip-path="url(#clip040)" style="stroke:#009af9; stroke-linecap:round; stroke-linejoin:round; stroke-width:4; stroke-opacity:1; fill:none" points="349.167,1221.8 488.953,1221.8 "/>
<path clip-path="url(#clip040)" d="M516.926 1208.36 L516.926 1235.23 L522.574 1235.23 Q529.727 1235.23 533.037 1231.99 Q536.37 1228.75 536.37 1221.76 Q536.37 1214.82 533.037 1211.6 Q529.727 1208.36 522.574 1208.36 L516.926 1208.36 M512.25 1204.52 L521.857 1204.52 Q531.903 1204.52 536.602 1208.71 Q541.301 1212.87 541.301 1221.76 Q541.301 1230.7 536.579 1234.89 Q531.857 1239.08 521.857 1239.08 L512.25 1239.08 L512.25 1204.52 Z" fill="#000000" fill-rule="nonzero" fill-opacity="1" /><path clip-path="url(#clip040)" d="M560.352 1226.04 Q555.19 1226.04 553.199 1227.22 Q551.208 1228.4 551.208 1231.25 Q551.208 1233.52 552.69 1234.86 Q554.194 1236.18 556.764 1236.18 Q560.305 1236.18 562.435 1233.68 Q564.588 1231.16 564.588 1226.99 L564.588 1226.04 L560.352 1226.04 M568.847 1224.28 L568.847 1239.08 L564.588 1239.08 L564.588 1235.14 Q563.129 1237.5 560.954 1238.64 Q558.778 1239.75 555.63 1239.75 Q551.648 1239.75 549.287 1237.52 Q546.949 1235.28 546.949 1231.53 Q546.949 1227.15 549.866 1224.93 Q552.805 1222.71 558.616 1222.71 L564.588 1222.71 L564.588 1222.29 Q564.588 1219.35 562.643 1217.76 Q560.722 1216.14 557.227 1216.14 Q555.005 1216.14 552.898 1216.67 Q550.792 1217.2 548.847 1218.27 L548.847 1214.33 Q551.185 1213.43 553.384 1212.99 Q555.583 1212.52 557.667 1212.52 Q563.292 1212.52 566.069 1215.44 Q568.847 1218.36 568.847 1224.28 Z" fill="#000000" fill-rule="nonzero" fill-opacity="1" /><path clip-path="url(#clip040)" d="M581.833 1205.79 L581.833 1213.15 L590.606 1213.15 L590.606 1216.46 L581.833 1216.46 L581.833 1230.53 Q581.833 1233.7 582.69 1234.61 Q583.569 1235.51 586.231 1235.51 L590.606 1235.51 L590.606 1239.08 L586.231 1239.08 Q581.301 1239.08 579.426 1237.25 Q577.551 1235.39 577.551 1230.53 L577.551 1216.46 L574.426 1216.46 L574.426 1213.15 L577.551 1213.15 L577.551 1205.79 L581.833 1205.79 Z" fill="#000000" fill-rule="nonzero" fill-opacity="1" /><path clip-path="url(#clip040)" d="M607.99 1226.04 Q602.828 1226.04 600.838 1227.22 Q598.847 1228.4 598.847 1231.25 Q598.847 1233.52 600.328 1234.86 Q601.833 1236.18 604.402 1236.18 Q607.944 1236.18 610.074 1233.68 Q612.226 1231.16 612.226 1226.99 L612.226 1226.04 L607.99 1226.04 M616.486 1224.28 L616.486 1239.08 L612.226 1239.08 L612.226 1235.14 Q610.768 1237.5 608.592 1238.64 Q606.416 1239.75 603.268 1239.75 Q599.287 1239.75 596.926 1237.52 Q594.588 1235.28 594.588 1231.53 Q594.588 1227.15 597.504 1224.93 Q600.444 1222.71 606.254 1222.71 L612.226 1222.71 L612.226 1222.29 Q612.226 1219.35 610.282 1217.76 Q608.361 1216.14 604.865 1216.14 Q602.643 1216.14 600.537 1216.67 Q598.43 1217.2 596.486 1218.27 L596.486 1214.33 Q598.824 1213.43 601.023 1212.99 Q603.222 1212.52 605.305 1212.52 Q610.93 1212.52 613.708 1215.44 Q616.486 1218.36 616.486 1224.28 Z" fill="#000000" fill-rule="nonzero" fill-opacity="1" /><polyline clip-path="url(#clip040)" style="stroke:#e26f46; stroke-linecap:round; stroke-linejoin:round; stroke-width:4; stroke-opacity:1; fill:none" points="349.167,1273.64 488.953,1273.64 "/>
<path clip-path="url(#clip040)" d="M528.083 1260.96 L521.741 1278.16 L534.449 1278.16 L528.083 1260.96 M525.445 1256.36 L530.745 1256.36 L543.917 1290.92 L539.056 1290.92 L535.907 1282.05 L520.329 1282.05 L517.181 1290.92 L512.25 1290.92 L525.445 1256.36 Z" fill="#000000" fill-rule="nonzero" fill-opacity="1" /><path clip-path="url(#clip040)" d="M565.352 1274.71 Q566.856 1275.22 568.268 1276.89 Q569.704 1278.55 571.139 1281.47 L575.884 1290.92 L570.861 1290.92 L566.44 1282.05 Q564.727 1278.58 563.106 1277.44 Q561.509 1276.31 558.731 1276.31 L553.639 1276.31 L553.639 1290.92 L548.963 1290.92 L548.963 1256.36 L559.518 1256.36 Q565.444 1256.36 568.361 1258.83 Q571.278 1261.31 571.278 1266.31 Q571.278 1269.57 569.75 1271.73 Q568.245 1273.88 565.352 1274.71 M553.639 1260.2 L553.639 1272.47 L559.518 1272.47 Q562.898 1272.47 564.611 1270.92 Q566.347 1269.34 566.347 1266.31 Q566.347 1263.28 564.611 1261.75 Q562.898 1260.2 559.518 1260.2 L553.639 1260.2 Z" fill="#000000" fill-rule="nonzero" fill-opacity="1" /><path clip-path="url(#clip040)" d="M580.236 1256.36 L585.259 1256.36 L593.847 1269.2 L602.481 1256.36 L607.504 1256.36 L596.393 1272.95 L608.245 1290.92 L603.222 1290.92 L593.5 1276.22 L583.708 1290.92 L578.662 1290.92 L591 1272.47 L580.236 1256.36 Z" fill="#000000" fill-rule="nonzero" fill-opacity="1" /><path clip-path="url(#clip040)" d="M649.448 1269.97 Q651.046 1267.1 653.268 1265.73 Q655.49 1264.36 658.499 1264.36 Q662.55 1264.36 664.749 1267.21 Q666.948 1270.04 666.948 1275.27 L666.948 1290.92 L662.666 1290.92 L662.666 1275.41 Q662.666 1271.68 661.347 1269.87 Q660.027 1268.07 657.319 1268.07 Q654.009 1268.07 652.087 1270.27 Q650.166 1272.47 650.166 1276.26 L650.166 1290.92 L645.884 1290.92 L645.884 1275.41 Q645.884 1271.66 644.564 1269.87 Q643.245 1268.07 640.49 1268.07 Q637.226 1268.07 635.305 1270.29 Q633.384 1272.49 633.384 1276.26 L633.384 1290.92 L629.101 1290.92 L629.101 1264.99 L633.384 1264.99 L633.384 1269.02 Q634.842 1266.63 636.879 1265.5 Q638.916 1264.36 641.717 1264.36 Q644.541 1264.36 646.509 1265.8 Q648.499 1267.23 649.448 1269.97 Z" fill="#000000" fill-rule="nonzero" fill-opacity="1" /><path clip-path="url(#clip040)" d="M685.49 1267.98 Q682.064 1267.98 680.073 1270.66 Q678.083 1273.32 678.083 1277.98 Q678.083 1282.63 680.05 1285.31 Q682.041 1287.98 685.49 1287.98 Q688.893 1287.98 690.883 1285.29 Q692.874 1282.61 692.874 1277.98 Q692.874 1273.37 690.883 1270.68 Q688.893 1267.98 685.49 1267.98 M685.49 1264.36 Q691.045 1264.36 694.217 1267.98 Q697.388 1271.59 697.388 1277.98 Q697.388 1284.34 694.217 1287.98 Q691.045 1291.59 685.49 1291.59 Q679.911 1291.59 676.74 1287.98 Q673.592 1284.34 673.592 1277.98 Q673.592 1271.59 676.74 1267.98 Q679.911 1264.36 685.49 1264.36 Z" fill="#000000" fill-rule="nonzero" fill-opacity="1" /><path clip-path="url(#clip040)" d="M721.508 1268.92 L721.508 1254.9 L725.768 1254.9 L725.768 1290.92 L721.508 1290.92 L721.508 1287.03 Q720.166 1289.34 718.106 1290.48 Q716.068 1291.59 713.198 1291.59 Q708.499 1291.59 705.536 1287.84 Q702.596 1284.09 702.596 1277.98 Q702.596 1271.86 705.536 1268.11 Q708.499 1264.36 713.198 1264.36 Q716.068 1264.36 718.106 1265.5 Q720.166 1266.61 721.508 1268.92 M706.994 1277.98 Q706.994 1282.67 708.916 1285.36 Q710.86 1288.02 714.24 1288.02 Q717.619 1288.02 719.564 1285.36 Q721.508 1282.67 721.508 1277.98 Q721.508 1273.28 719.564 1270.61 Q717.619 1267.93 714.24 1267.93 Q710.86 1267.93 708.916 1270.61 Q706.994 1273.28 706.994 1277.98 Z" fill="#000000" fill-rule="nonzero" fill-opacity="1" /><path clip-path="url(#clip040)" d="M756.716 1276.89 L756.716 1278.97 L737.133 1278.97 Q737.411 1283.37 739.772 1285.68 Q742.156 1287.98 746.392 1287.98 Q748.846 1287.98 751.138 1287.37 Q753.453 1286.77 755.721 1285.57 L755.721 1289.6 Q753.429 1290.57 751.022 1291.08 Q748.615 1291.59 746.138 1291.59 Q739.934 1291.59 736.3 1287.98 Q732.689 1284.36 732.689 1278.21 Q732.689 1271.84 736.115 1268.11 Q739.564 1264.36 745.397 1264.36 Q750.628 1264.36 753.661 1267.74 Q756.716 1271.1 756.716 1276.89 M752.457 1275.64 Q752.411 1272.14 750.49 1270.06 Q748.591 1267.98 745.443 1267.98 Q741.879 1267.98 739.726 1269.99 Q737.596 1272 737.272 1275.66 L752.457 1275.64 Z" fill="#000000" fill-rule="nonzero" fill-opacity="1" /><path clip-path="url(#clip040)" d="M763.707 1254.9 L767.966 1254.9 L767.966 1290.92 L763.707 1290.92 L763.707 1254.9 Z" fill="#000000" fill-rule="nonzero" fill-opacity="1" /><path clip-path="url(#clip040)" d="M808.475 1265.75 L808.475 1269.78 Q806.67 1268.86 804.725 1268.39 Q802.781 1267.93 800.698 1267.93 Q797.526 1267.93 795.929 1268.9 Q794.355 1269.87 794.355 1271.82 Q794.355 1273.3 795.489 1274.16 Q796.624 1274.99 800.05 1275.75 L801.508 1276.08 Q806.045 1277.05 807.943 1278.83 Q809.864 1280.59 809.864 1283.76 Q809.864 1287.37 806.994 1289.48 Q804.147 1291.59 799.147 1291.59 Q797.063 1291.59 794.795 1291.17 Q792.55 1290.78 790.05 1289.97 L790.05 1285.57 Q792.411 1286.79 794.702 1287.42 Q796.994 1288.02 799.239 1288.02 Q802.249 1288.02 803.869 1287 Q805.489 1285.96 805.489 1284.09 Q805.489 1282.35 804.309 1281.42 Q803.151 1280.5 799.193 1279.64 L797.712 1279.3 Q793.753 1278.46 791.994 1276.75 Q790.235 1275.01 790.235 1272 Q790.235 1268.35 792.827 1266.36 Q795.42 1264.36 800.188 1264.36 Q802.55 1264.36 804.633 1264.71 Q806.716 1265.06 808.475 1265.75 Z" fill="#000000" fill-rule="nonzero" fill-opacity="1" /><path clip-path="url(#clip040)" d="M816.647 1264.99 L820.906 1264.99 L820.906 1290.92 L816.647 1290.92 L816.647 1264.99 M816.647 1254.9 L820.906 1254.9 L820.906 1260.29 L816.647 1260.29 L816.647 1254.9 Z" fill="#000000" fill-rule="nonzero" fill-opacity="1" /><path clip-path="url(#clip040)" d="M850.003 1269.97 Q851.6 1267.1 853.822 1265.73 Q856.045 1264.36 859.054 1264.36 Q863.105 1264.36 865.304 1267.21 Q867.503 1270.04 867.503 1275.27 L867.503 1290.92 L863.22 1290.92 L863.22 1275.41 Q863.22 1271.68 861.901 1269.87 Q860.582 1268.07 857.873 1268.07 Q854.563 1268.07 852.642 1270.27 Q850.721 1272.47 850.721 1276.26 L850.721 1290.92 L846.438 1290.92 L846.438 1275.41 Q846.438 1271.66 845.119 1269.87 Q843.799 1268.07 841.045 1268.07 Q837.781 1268.07 835.86 1270.29 Q833.938 1272.49 833.938 1276.26 L833.938 1290.92 L829.656 1290.92 L829.656 1264.99 L833.938 1264.99 L833.938 1269.02 Q835.397 1266.63 837.434 1265.5 Q839.471 1264.36 842.272 1264.36 Q845.096 1264.36 847.063 1265.8 Q849.054 1267.23 850.003 1269.97 Z" fill="#000000" fill-rule="nonzero" fill-opacity="1" /><path clip-path="url(#clip040)" d="M904.192 1254.9 L904.192 1258.44 L900.118 1258.44 Q897.827 1258.44 896.924 1259.36 Q896.044 1260.29 896.044 1262.7 L896.044 1264.99 L903.058 1264.99 L903.058 1268.3 L896.044 1268.3 L896.044 1290.92 L891.762 1290.92 L891.762 1268.3 L887.688 1268.3 L887.688 1264.99 L891.762 1264.99 L891.762 1263.18 Q891.762 1258.86 893.776 1256.89 Q895.79 1254.9 900.165 1254.9 L904.192 1254.9 Z" fill="#000000" fill-rule="nonzero" fill-opacity="1" /><path clip-path="url(#clip040)" d="M907.757 1264.99 L912.017 1264.99 L912.017 1290.92 L907.757 1290.92 L907.757 1264.99 M907.757 1254.9 L912.017 1254.9 L912.017 1260.29 L907.757 1260.29 L907.757 1254.9 Z" fill="#000000" fill-rule="nonzero" fill-opacity="1" /><path clip-path="url(#clip040)" d="M925.141 1257.63 L925.141 1264.99 L933.915 1264.99 L933.915 1268.3 L925.141 1268.3 L925.141 1282.37 Q925.141 1285.54 925.998 1286.45 Q926.878 1287.35 929.54 1287.35 L933.915 1287.35 L933.915 1290.92 L929.54 1290.92 Q924.609 1290.92 922.734 1289.09 Q920.859 1287.23 920.859 1282.37 L920.859 1268.3 L917.734 1268.3 L917.734 1264.99 L920.859 1264.99 L920.859 1257.63 L925.141 1257.63 Z" fill="#000000" fill-rule="nonzero" fill-opacity="1" /><path clip-path="url(#clip040)" d="M970.743 1285.04 L975.627 1285.04 L975.627 1290.92 L970.743 1290.92 L970.743 1285.04 M970.743 1266.4 L975.627 1266.4 L975.627 1272.28 L970.743 1272.28 L970.743 1266.4 Z" fill="#000000" fill-rule="nonzero" fill-opacity="1" /><path clip-path="url(#clip040)" d="M983.474 1276.03 L995.951 1276.03 L995.951 1279.83 L983.474 1279.83 L983.474 1276.03 Z" fill="#000000" fill-rule="nonzero" fill-opacity="1" /><path clip-path="url(#clip040)" d="M1007.36 1286.98 L1023.68 1286.98 L1023.68 1290.92 L1001.74 1290.92 L1001.74 1286.98 Q1004.4 1284.23 1008.98 1279.6 Q1013.59 1274.94 1014.77 1273.6 Q1017.02 1271.08 1017.9 1269.34 Q1018.8 1267.58 1018.8 1265.89 Q1018.8 1263.14 1016.85 1261.4 Q1014.93 1259.67 1011.83 1259.67 Q1009.63 1259.67 1007.18 1260.43 Q1004.75 1261.19 1001.97 1262.74 L1001.97 1258.02 Q1004.79 1256.89 1007.25 1256.31 Q1009.7 1255.73 1011.74 1255.73 Q1017.11 1255.73 1020.3 1258.42 Q1023.5 1261.1 1023.5 1265.59 Q1023.5 1267.72 1022.69 1269.64 Q1021.9 1271.54 1019.79 1274.13 Q1019.22 1274.8 1016.11 1278.02 Q1013.01 1281.22 1007.36 1286.98 Z" fill="#000000" fill-rule="nonzero" fill-opacity="1" /><path clip-path="url(#clip040)" d="M1033.64 1290.2 L1033.64 1285.94 Q1035.4 1286.77 1037.2 1287.21 Q1039.01 1287.65 1040.74 1287.65 Q1045.37 1287.65 1047.8 1284.55 Q1050.26 1281.42 1050.6 1275.08 Q1049.26 1277.07 1047.2 1278.14 Q1045.14 1279.2 1042.64 1279.2 Q1037.46 1279.2 1034.42 1276.08 Q1031.41 1272.93 1031.41 1267.49 Q1031.41 1262.17 1034.56 1258.95 Q1037.71 1255.73 1042.94 1255.73 Q1048.94 1255.73 1052.09 1260.34 Q1055.26 1264.92 1055.26 1273.67 Q1055.26 1281.84 1051.37 1286.73 Q1047.5 1291.59 1040.95 1291.59 Q1039.19 1291.59 1037.39 1291.24 Q1035.58 1290.89 1033.64 1290.2 M1042.94 1275.55 Q1046.09 1275.55 1047.92 1273.39 Q1049.77 1271.24 1049.77 1267.49 Q1049.77 1263.76 1047.92 1261.61 Q1046.09 1259.43 1042.94 1259.43 Q1039.79 1259.43 1037.94 1261.61 Q1036.11 1263.76 1036.11 1267.49 Q1036.11 1271.24 1037.94 1273.39 Q1039.79 1275.55 1042.94 1275.55 Z" fill="#000000" fill-rule="nonzero" fill-opacity="1" /><path clip-path="url(#clip040)" d="M1063.66 1285.04 L1068.54 1285.04 L1068.54 1290.92 L1063.66 1290.92 L1063.66 1285.04 Z" fill="#000000" fill-rule="nonzero" fill-opacity="1" /><path clip-path="url(#clip040)" d="M1088.73 1274.5 Q1085.4 1274.5 1083.47 1276.29 Q1081.58 1278.07 1081.58 1281.19 Q1081.58 1284.32 1083.47 1286.1 Q1085.4 1287.88 1088.73 1287.88 Q1092.06 1287.88 1093.98 1286.1 Q1095.9 1284.29 1095.9 1281.19 Q1095.9 1278.07 1093.98 1276.29 Q1092.08 1274.5 1088.73 1274.5 M1084.05 1272.51 Q1081.04 1271.77 1079.35 1269.71 Q1077.69 1267.65 1077.69 1264.69 Q1077.69 1260.55 1080.63 1258.14 Q1083.59 1255.73 1088.73 1255.73 Q1093.89 1255.73 1096.83 1258.14 Q1099.77 1260.55 1099.77 1264.69 Q1099.77 1267.65 1098.08 1269.71 Q1096.41 1271.77 1093.43 1272.51 Q1096.81 1273.3 1098.68 1275.59 Q1100.58 1277.88 1100.58 1281.19 Q1100.58 1286.22 1097.5 1288.9 Q1094.45 1291.59 1088.73 1291.59 Q1083.01 1291.59 1079.93 1288.9 Q1076.88 1286.22 1076.88 1281.19 Q1076.88 1277.88 1078.77 1275.59 Q1080.67 1273.3 1084.05 1272.51 M1082.34 1265.13 Q1082.34 1267.81 1084.01 1269.32 Q1085.7 1270.82 1088.73 1270.82 Q1091.74 1270.82 1093.43 1269.32 Q1095.14 1267.81 1095.14 1265.13 Q1095.14 1262.44 1093.43 1260.94 Q1091.74 1259.43 1088.73 1259.43 Q1085.7 1259.43 1084.01 1260.94 Q1082.34 1262.44 1082.34 1265.13 Z" fill="#000000" fill-rule="nonzero" fill-opacity="1" /><path clip-path="url(#clip040)" d="M1109.7 1286.98 L1117.34 1286.98 L1117.34 1260.61 L1109.03 1262.28 L1109.03 1258.02 L1117.29 1256.36 L1121.97 1256.36 L1121.97 1286.98 L1129.61 1286.98 L1129.61 1290.92 L1109.7 1290.92 L1109.7 1286.98 Z" fill="#000000" fill-rule="nonzero" fill-opacity="1" /><path clip-path="url(#clip040)" d="M1168.45 1275.71 Q1166.44 1275.71 1165.28 1277.42 Q1164.14 1279.13 1164.14 1282.19 Q1164.14 1285.2 1165.28 1286.93 Q1166.44 1288.65 1168.45 1288.65 Q1170.42 1288.65 1171.55 1286.93 Q1172.71 1285.2 1172.71 1282.19 Q1172.71 1279.16 1171.55 1277.44 Q1170.42 1275.71 1168.45 1275.71 M1168.45 1272.77 Q1172.11 1272.77 1174.26 1275.31 Q1176.41 1277.86 1176.41 1282.19 Q1176.41 1286.52 1174.24 1289.06 Q1172.08 1291.59 1168.45 1291.59 Q1164.75 1291.59 1162.59 1289.06 Q1160.44 1286.52 1160.44 1282.19 Q1160.44 1277.84 1162.59 1275.31 Q1164.77 1272.77 1168.45 1272.77 M1144.56 1258.67 Q1142.57 1258.67 1141.41 1260.41 Q1140.28 1262.12 1140.28 1265.13 Q1140.28 1268.18 1141.41 1269.9 Q1142.55 1271.61 1144.56 1271.61 Q1146.58 1271.61 1147.71 1269.9 Q1148.87 1268.18 1148.87 1265.13 Q1148.87 1262.14 1147.71 1260.41 Q1146.55 1258.67 1144.56 1258.67 M1165.46 1255.73 L1169.17 1255.73 L1147.55 1291.59 L1143.84 1291.59 L1165.46 1255.73 M1144.56 1255.73 Q1148.22 1255.73 1150.39 1258.28 Q1152.57 1260.8 1152.57 1265.13 Q1152.57 1269.5 1150.39 1272.03 Q1148.24 1274.55 1144.56 1274.55 Q1140.88 1274.55 1138.73 1272.03 Q1136.6 1269.48 1136.6 1265.13 Q1136.6 1260.82 1138.75 1258.28 Q1140.9 1255.73 1144.56 1255.73 Z" fill="#000000" fill-rule="nonzero" fill-opacity="1" /><polyline clip-path="url(#clip040)" style="stroke:#3da44d; stroke-linecap:round; stroke-linejoin:round; stroke-width:4; stroke-opacity:1; fill:none" points="349.167,1325.48 488.953,1325.48 "/>
<path clip-path="url(#clip040)" d="M528.083 1312.8 L521.741 1330 L534.449 1330 L528.083 1312.8 M525.445 1308.2 L530.745 1308.2 L543.917 1342.76 L539.056 1342.76 L535.907 1333.89 L520.329 1333.89 L517.181 1342.76 L512.25 1342.76 L525.445 1308.2 Z" fill="#000000" fill-rule="nonzero" fill-opacity="1" /><path clip-path="url(#clip040)" d="M565.352 1326.55 Q566.856 1327.06 568.268 1328.73 Q569.704 1330.39 571.139 1333.31 L575.884 1342.76 L570.861 1342.76 L566.44 1333.89 Q564.727 1330.42 563.106 1329.28 Q561.509 1328.15 558.731 1328.15 L553.639 1328.15 L553.639 1342.76 L548.963 1342.76 L548.963 1308.2 L559.518 1308.2 Q565.444 1308.2 568.361 1310.67 Q571.278 1313.15 571.278 1318.15 Q571.278 1321.41 569.75 1323.57 Q568.245 1325.72 565.352 1326.55 M553.639 1312.04 L553.639 1324.31 L559.518 1324.31 Q562.898 1324.31 564.611 1322.76 Q566.347 1321.18 566.347 1318.15 Q566.347 1315.12 564.611 1313.59 Q562.898 1312.04 559.518 1312.04 L553.639 1312.04 Z" fill="#000000" fill-rule="nonzero" fill-opacity="1" /><path clip-path="url(#clip040)" d="M580.236 1308.2 L585.259 1308.2 L593.847 1321.04 L602.481 1308.2 L607.504 1308.2 L596.393 1324.79 L608.245 1342.76 L603.222 1342.76 L593.5 1328.06 L583.708 1342.76 L578.662 1342.76 L591 1324.31 L580.236 1308.2 Z" fill="#000000" fill-rule="nonzero" fill-opacity="1" /><path clip-path="url(#clip040)" d="M649.448 1321.81 Q651.046 1318.94 653.268 1317.57 Q655.49 1316.2 658.499 1316.2 Q662.55 1316.2 664.749 1319.05 Q666.948 1321.88 666.948 1327.11 L666.948 1342.76 L662.666 1342.76 L662.666 1327.25 Q662.666 1323.52 661.347 1321.71 Q660.027 1319.91 657.319 1319.91 Q654.009 1319.91 652.087 1322.11 Q650.166 1324.31 650.166 1328.1 L650.166 1342.76 L645.884 1342.76 L645.884 1327.25 Q645.884 1323.5 644.564 1321.71 Q643.245 1319.91 640.49 1319.91 Q637.226 1319.91 635.305 1322.13 Q633.384 1324.33 633.384 1328.1 L633.384 1342.76 L629.101 1342.76 L629.101 1316.83 L633.384 1316.83 L633.384 1320.86 Q634.842 1318.47 636.879 1317.34 Q638.916 1316.2 641.717 1316.2 Q644.541 1316.2 646.509 1317.64 Q648.499 1319.07 649.448 1321.81 Z" fill="#000000" fill-rule="nonzero" fill-opacity="1" /><path clip-path="url(#clip040)" d="M685.49 1319.82 Q682.064 1319.82 680.073 1322.5 Q678.083 1325.16 678.083 1329.82 Q678.083 1334.47 680.05 1337.15 Q682.041 1339.82 685.49 1339.82 Q688.893 1339.82 690.883 1337.13 Q692.874 1334.45 692.874 1329.82 Q692.874 1325.21 690.883 1322.52 Q688.893 1319.82 685.49 1319.82 M685.49 1316.2 Q691.045 1316.2 694.217 1319.82 Q697.388 1323.43 697.388 1329.82 Q697.388 1336.18 694.217 1339.82 Q691.045 1343.43 685.49 1343.43 Q679.911 1343.43 676.74 1339.82 Q673.592 1336.18 673.592 1329.82 Q673.592 1323.43 676.74 1319.82 Q679.911 1316.2 685.49 1316.2 Z" fill="#000000" fill-rule="nonzero" fill-opacity="1" /><path clip-path="url(#clip040)" d="M721.508 1320.76 L721.508 1306.74 L725.768 1306.74 L725.768 1342.76 L721.508 1342.76 L721.508 1338.87 Q720.166 1341.18 718.106 1342.32 Q716.068 1343.43 713.198 1343.43 Q708.499 1343.43 705.536 1339.68 Q702.596 1335.93 702.596 1329.82 Q702.596 1323.7 705.536 1319.95 Q708.499 1316.2 713.198 1316.2 Q716.068 1316.2 718.106 1317.34 Q720.166 1318.45 721.508 1320.76 M706.994 1329.82 Q706.994 1334.51 708.916 1337.2 Q710.86 1339.86 714.24 1339.86 Q717.619 1339.86 719.564 1337.2 Q721.508 1334.51 721.508 1329.82 Q721.508 1325.12 719.564 1322.45 Q717.619 1319.77 714.24 1319.77 Q710.86 1319.77 708.916 1322.45 Q706.994 1325.12 706.994 1329.82 Z" fill="#000000" fill-rule="nonzero" fill-opacity="1" /><path clip-path="url(#clip040)" d="M756.716 1328.73 L756.716 1330.81 L737.133 1330.81 Q737.411 1335.21 739.772 1337.52 Q742.156 1339.82 746.392 1339.82 Q748.846 1339.82 751.138 1339.21 Q753.453 1338.61 755.721 1337.41 L755.721 1341.44 Q753.429 1342.41 751.022 1342.92 Q748.615 1343.43 746.138 1343.43 Q739.934 1343.43 736.3 1339.82 Q732.689 1336.2 732.689 1330.05 Q732.689 1323.68 736.115 1319.95 Q739.564 1316.2 745.397 1316.2 Q750.628 1316.2 753.661 1319.58 Q756.716 1322.94 756.716 1328.73 M752.457 1327.48 Q752.411 1323.98 750.49 1321.9 Q748.591 1319.82 745.443 1319.82 Q741.879 1319.82 739.726 1321.83 Q737.596 1323.84 737.272 1327.5 L752.457 1327.48 Z" fill="#000000" fill-rule="nonzero" fill-opacity="1" /><path clip-path="url(#clip040)" d="M763.707 1306.74 L767.966 1306.74 L767.966 1342.76 L763.707 1342.76 L763.707 1306.74 Z" fill="#000000" fill-rule="nonzero" fill-opacity="1" /><path clip-path="url(#clip040)" d="M789.471 1316.83 L793.73 1316.83 L799.054 1337.06 L804.355 1316.83 L809.378 1316.83 L814.702 1337.06 L820.003 1316.83 L824.262 1316.83 L817.48 1342.76 L812.457 1342.76 L806.878 1321.51 L801.276 1342.76 L796.253 1342.76 L789.471 1316.83 Z" fill="#000000" fill-rule="nonzero" fill-opacity="1" /><path clip-path="url(#clip040)" d="M830.721 1316.83 L834.98 1316.83 L834.98 1342.76 L830.721 1342.76 L830.721 1316.83 M830.721 1306.74 L834.98 1306.74 L834.98 1312.13 L830.721 1312.13 L830.721 1306.74 Z" fill="#000000" fill-rule="nonzero" fill-opacity="1" /><path clip-path="url(#clip040)" d="M848.105 1309.47 L848.105 1316.83 L856.878 1316.83 L856.878 1320.14 L848.105 1320.14 L848.105 1334.21 Q848.105 1337.38 848.961 1338.29 Q849.841 1339.19 852.503 1339.19 L856.878 1339.19 L856.878 1342.76 L852.503 1342.76 Q847.572 1342.76 845.697 1340.93 Q843.822 1339.07 843.822 1334.21 L843.822 1320.14 L840.697 1320.14 L840.697 1316.83 L843.822 1316.83 L843.822 1309.47 L848.105 1309.47 Z" fill="#000000" fill-rule="nonzero" fill-opacity="1" /><path clip-path="url(#clip040)" d="M884.031 1327.11 L884.031 1342.76 L879.771 1342.76 L879.771 1327.25 Q879.771 1323.57 878.336 1321.74 Q876.901 1319.91 874.031 1319.91 Q870.582 1319.91 868.591 1322.11 Q866.6 1324.31 866.6 1328.1 L866.6 1342.76 L862.318 1342.76 L862.318 1306.74 L866.6 1306.74 L866.6 1320.86 Q868.128 1318.52 870.188 1317.36 Q872.271 1316.2 874.98 1316.2 Q879.447 1316.2 881.739 1318.98 Q884.031 1321.74 884.031 1327.11 Z" fill="#000000" fill-rule="nonzero" fill-opacity="1" /><path clip-path="url(#clip040)" d="M924.655 1320.76 L924.655 1306.74 L928.915 1306.74 L928.915 1342.76 L924.655 1342.76 L924.655 1338.87 Q923.313 1341.18 921.253 1342.32 Q919.216 1343.43 916.345 1343.43 Q911.646 1343.43 908.683 1339.68 Q905.743 1335.93 905.743 1329.82 Q905.743 1323.7 908.683 1319.95 Q911.646 1316.2 916.345 1316.2 Q919.216 1316.2 921.253 1317.34 Q923.313 1318.45 924.655 1320.76 M910.142 1329.82 Q910.142 1334.51 912.063 1337.2 Q914.007 1339.86 917.387 1339.86 Q920.766 1339.86 922.711 1337.2 Q924.655 1334.51 924.655 1329.82 Q924.655 1325.12 922.711 1322.45 Q920.766 1319.77 917.387 1319.77 Q914.007 1319.77 912.063 1322.45 Q910.142 1325.12 910.142 1329.82 Z" fill="#000000" fill-rule="nonzero" fill-opacity="1" /><path clip-path="url(#clip040)" d="M959.863 1328.73 L959.863 1330.81 L940.28 1330.81 Q940.558 1335.21 942.919 1337.52 Q945.303 1339.82 949.539 1339.82 Q951.993 1339.82 954.285 1339.21 Q956.6 1338.61 958.868 1337.41 L958.868 1341.44 Q956.576 1342.41 954.169 1342.92 Q951.762 1343.43 949.285 1343.43 Q943.081 1343.43 939.447 1339.82 Q935.836 1336.2 935.836 1330.05 Q935.836 1323.68 939.262 1319.95 Q942.711 1316.2 948.544 1316.2 Q953.776 1316.2 956.808 1319.58 Q959.863 1322.94 959.863 1328.73 M955.604 1327.48 Q955.558 1323.98 953.637 1321.9 Q951.739 1319.82 948.59 1319.82 Q945.026 1319.82 942.873 1321.83 Q940.743 1323.84 940.419 1327.5 L955.604 1327.48 Z" fill="#000000" fill-rule="nonzero" fill-opacity="1" /><path clip-path="url(#clip040)" d="M966.854 1306.74 L971.113 1306.74 L971.113 1342.76 L966.854 1342.76 L966.854 1306.74 Z" fill="#000000" fill-rule="nonzero" fill-opacity="1" /><path clip-path="url(#clip040)" d="M991.808 1329.72 Q986.646 1329.72 984.655 1330.9 Q982.664 1332.08 982.664 1334.93 Q982.664 1337.2 984.146 1338.54 Q985.65 1339.86 988.22 1339.86 Q991.761 1339.86 993.891 1337.36 Q996.044 1334.84 996.044 1330.67 L996.044 1329.72 L991.808 1329.72 M1000.3 1327.96 L1000.3 1342.76 L996.044 1342.76 L996.044 1338.82 Q994.586 1341.18 992.41 1342.32 Q990.234 1343.43 987.086 1343.43 Q983.104 1343.43 980.743 1341.2 Q978.405 1338.96 978.405 1335.21 Q978.405 1330.83 981.322 1328.61 Q984.261 1326.39 990.072 1326.39 L996.044 1326.39 L996.044 1325.97 Q996.044 1323.03 994.099 1321.44 Q992.178 1319.82 988.683 1319.82 Q986.461 1319.82 984.354 1320.35 Q982.248 1320.88 980.303 1321.95 L980.303 1318.01 Q982.641 1317.11 984.84 1316.67 Q987.039 1316.2 989.123 1316.2 Q994.748 1316.2 997.525 1319.12 Q1000.3 1322.04 1000.3 1327.96 Z" fill="#000000" fill-rule="nonzero" fill-opacity="1" /><path clip-path="url(#clip040)" d="M1019.86 1345.16 Q1018.06 1349.79 1016.34 1351.2 Q1014.63 1352.62 1011.76 1352.62 L1008.36 1352.62 L1008.36 1349.05 L1010.86 1349.05 Q1012.62 1349.05 1013.59 1348.22 Q1014.56 1347.38 1015.74 1344.28 L1016.51 1342.34 L1006.02 1316.83 L1010.53 1316.83 L1018.64 1337.11 L1026.74 1316.83 L1031.25 1316.83 L1019.86 1345.16 Z" fill="#000000" fill-rule="nonzero" fill-opacity="1" /><path clip-path="url(#clip040)" d="M1068.73 1317.59 L1068.73 1321.62 Q1066.92 1320.7 1064.98 1320.23 Q1063.03 1319.77 1060.95 1319.77 Q1057.78 1319.77 1056.18 1320.74 Q1054.61 1321.71 1054.61 1323.66 Q1054.61 1325.14 1055.74 1326 Q1056.88 1326.83 1060.3 1327.59 L1061.76 1327.92 Q1066.3 1328.89 1068.2 1330.67 Q1070.12 1332.43 1070.12 1335.6 Q1070.12 1339.21 1067.25 1341.32 Q1064.4 1343.43 1059.4 1343.43 Q1057.32 1343.43 1055.05 1343.01 Q1052.8 1342.62 1050.3 1341.81 L1050.3 1337.41 Q1052.66 1338.63 1054.96 1339.26 Q1057.25 1339.86 1059.49 1339.86 Q1062.5 1339.86 1064.12 1338.84 Q1065.74 1337.8 1065.74 1335.93 Q1065.74 1334.19 1064.56 1333.26 Q1063.4 1332.34 1059.45 1331.48 L1057.96 1331.14 Q1054.01 1330.3 1052.25 1328.59 Q1050.49 1326.85 1050.49 1323.84 Q1050.49 1320.19 1053.08 1318.2 Q1055.67 1316.2 1060.44 1316.2 Q1062.8 1316.2 1064.89 1316.55 Q1066.97 1316.9 1068.73 1317.59 Z" fill="#000000" fill-rule="nonzero" fill-opacity="1" /><path clip-path="url(#clip040)" d="M1076.9 1316.83 L1081.16 1316.83 L1081.16 1342.76 L1076.9 1342.76 L1076.9 1316.83 M1076.9 1306.74 L1081.16 1306.74 L1081.16 1312.13 L1076.9 1312.13 L1076.9 1306.74 Z" fill="#000000" fill-rule="nonzero" fill-opacity="1" /><path clip-path="url(#clip040)" d="M1110.26 1321.81 Q1111.85 1318.94 1114.08 1317.57 Q1116.3 1316.2 1119.31 1316.2 Q1123.36 1316.2 1125.56 1319.05 Q1127.76 1321.88 1127.76 1327.11 L1127.76 1342.76 L1123.47 1342.76 L1123.47 1327.25 Q1123.47 1323.52 1122.15 1321.71 Q1120.83 1319.91 1118.13 1319.91 Q1114.82 1319.91 1112.9 1322.11 Q1110.97 1324.31 1110.97 1328.1 L1110.97 1342.76 L1106.69 1342.76 L1106.69 1327.25 Q1106.69 1323.5 1105.37 1321.71 Q1104.05 1319.91 1101.3 1319.91 Q1098.03 1319.91 1096.11 1322.13 Q1094.19 1324.33 1094.19 1328.1 L1094.19 1342.76 L1089.91 1342.76 L1089.91 1316.83 L1094.19 1316.83 L1094.19 1320.86 Q1095.65 1318.47 1097.69 1317.34 Q1099.72 1316.2 1102.52 1316.2 Q1105.35 1316.2 1107.32 1317.64 Q1109.31 1319.07 1110.26 1321.81 Z" fill="#000000" fill-rule="nonzero" fill-opacity="1" /><path clip-path="url(#clip040)" d="M1164.45 1306.74 L1164.45 1310.28 L1160.37 1310.28 Q1158.08 1310.28 1157.18 1311.2 Q1156.3 1312.13 1156.3 1314.54 L1156.3 1316.83 L1163.31 1316.83 L1163.31 1320.14 L1156.3 1320.14 L1156.3 1342.76 L1152.02 1342.76 L1152.02 1320.14 L1147.94 1320.14 L1147.94 1316.83 L1152.02 1316.83 L1152.02 1315.02 Q1152.02 1310.7 1154.03 1308.73 Q1156.04 1306.74 1160.42 1306.74 L1164.45 1306.74 Z" fill="#000000" fill-rule="nonzero" fill-opacity="1" /><path clip-path="url(#clip040)" d="M1168.01 1316.83 L1172.27 1316.83 L1172.27 1342.76 L1168.01 1342.76 L1168.01 1316.83 M1168.01 1306.74 L1172.27 1306.74 L1172.27 1312.13 L1168.01 1312.13 L1168.01 1306.74 Z" fill="#000000" fill-rule="nonzero" fill-opacity="1" /><path clip-path="url(#clip040)" d="M1185.39 1309.47 L1185.39 1316.83 L1194.17 1316.83 L1194.17 1320.14 L1185.39 1320.14 L1185.39 1334.21 Q1185.39 1337.38 1186.25 1338.29 Q1187.13 1339.19 1189.79 1339.19 L1194.17 1339.19 L1194.17 1342.76 L1189.79 1342.76 Q1184.86 1342.76 1182.99 1340.93 Q1181.11 1339.07 1181.11 1334.21 L1181.11 1320.14 L1177.99 1320.14 L1177.99 1316.83 L1181.11 1316.83 L1181.11 1309.47 L1185.39 1309.47 Z" fill="#000000" fill-rule="nonzero" fill-opacity="1" /><path clip-path="url(#clip040)" d="M1231 1336.88 L1235.88 1336.88 L1235.88 1342.76 L1231 1342.76 L1231 1336.88 M1231 1318.24 L1235.88 1318.24 L1235.88 1324.12 L1231 1324.12 L1231 1318.24 Z" fill="#000000" fill-rule="nonzero" fill-opacity="1" /><path clip-path="url(#clip040)" d="M1247.29 1338.82 L1254.93 1338.82 L1254.93 1312.45 L1246.62 1314.12 L1246.62 1309.86 L1254.89 1308.2 L1259.56 1308.2 L1259.56 1338.82 L1267.2 1338.82 L1267.2 1342.76 L1247.29 1342.76 L1247.29 1338.82 Z" fill="#000000" fill-rule="nonzero" fill-opacity="1" /><path clip-path="url(#clip040)" d="M1286.64 1311.27 Q1283.03 1311.27 1281.2 1314.84 Q1279.4 1318.38 1279.4 1325.51 Q1279.4 1332.62 1281.2 1336.18 Q1283.03 1339.72 1286.64 1339.72 Q1290.28 1339.72 1292.08 1336.18 Q1293.91 1332.62 1293.91 1325.51 Q1293.91 1318.38 1292.08 1314.84 Q1290.28 1311.27 1286.64 1311.27 M1286.64 1307.57 Q1292.45 1307.57 1295.51 1312.18 Q1298.59 1316.76 1298.59 1325.51 Q1298.59 1334.24 1295.51 1338.84 Q1292.45 1343.43 1286.64 1343.43 Q1280.83 1343.43 1277.76 1338.84 Q1274.7 1334.24 1274.7 1325.51 Q1274.7 1316.76 1277.76 1312.18 Q1280.83 1307.57 1286.64 1307.57 Z" fill="#000000" fill-rule="nonzero" fill-opacity="1" /><path clip-path="url(#clip040)" d="M1316.81 1311.27 Q1313.19 1311.27 1311.37 1314.84 Q1309.56 1318.38 1309.56 1325.51 Q1309.56 1332.62 1311.37 1336.18 Q1313.19 1339.72 1316.81 1339.72 Q1320.44 1339.72 1322.25 1336.18 Q1324.07 1332.62 1324.07 1325.51 Q1324.07 1318.38 1322.25 1314.84 Q1320.44 1311.27 1316.81 1311.27 M1316.81 1307.57 Q1322.62 1307.57 1325.67 1312.18 Q1328.75 1316.76 1328.75 1325.51 Q1328.75 1334.24 1325.67 1338.84 Q1322.62 1343.43 1316.81 1343.43 Q1311 1343.43 1307.92 1338.84 Q1304.86 1334.24 1304.86 1325.51 Q1304.86 1316.76 1307.92 1312.18 Q1311 1307.57 1316.81 1307.57 Z" fill="#000000" fill-rule="nonzero" fill-opacity="1" /><path clip-path="url(#clip040)" d="M1336.97 1336.88 L1341.85 1336.88 L1341.85 1342.76 L1336.97 1342.76 L1336.97 1336.88 Z" fill="#000000" fill-rule="nonzero" fill-opacity="1" /><path clip-path="url(#clip040)" d="M1362.04 1311.27 Q1358.43 1311.27 1356.6 1314.84 Q1354.79 1318.38 1354.79 1325.51 Q1354.79 1332.62 1356.6 1336.18 Q1358.43 1339.72 1362.04 1339.72 Q1365.67 1339.72 1367.48 1336.18 Q1369.31 1332.62 1369.31 1325.51 Q1369.31 1318.38 1367.48 1314.84 Q1365.67 1311.27 1362.04 1311.27 M1362.04 1307.57 Q1367.85 1307.57 1370.9 1312.18 Q1373.98 1316.76 1373.98 1325.51 Q1373.98 1334.24 1370.9 1338.84 Q1367.85 1343.43 1362.04 1343.43 Q1356.23 1343.43 1353.15 1338.84 Q1350.09 1334.24 1350.09 1325.51 Q1350.09 1316.76 1353.15 1312.18 Q1356.23 1307.57 1362.04 1307.57 Z" fill="#000000" fill-rule="nonzero" fill-opacity="1" /><path clip-path="url(#clip040)" d="M1411.6 1327.55 Q1409.58 1327.55 1408.43 1329.26 Q1407.29 1330.97 1407.29 1334.03 Q1407.29 1337.04 1408.43 1338.77 Q1409.58 1340.49 1411.6 1340.49 Q1413.56 1340.49 1414.7 1338.77 Q1415.86 1337.04 1415.86 1334.03 Q1415.86 1331 1414.7 1329.28 Q1413.56 1327.55 1411.6 1327.55 M1411.6 1324.61 Q1415.25 1324.61 1417.41 1327.15 Q1419.56 1329.7 1419.56 1334.03 Q1419.56 1338.36 1417.38 1340.9 Q1415.23 1343.43 1411.6 1343.43 Q1407.89 1343.43 1405.74 1340.9 Q1403.59 1338.36 1403.59 1334.03 Q1403.59 1329.68 1405.74 1327.15 Q1407.92 1324.61 1411.6 1324.61 M1387.71 1310.51 Q1385.72 1310.51 1384.56 1312.25 Q1383.43 1313.96 1383.43 1316.97 Q1383.43 1320.02 1384.56 1321.74 Q1385.69 1323.45 1387.71 1323.45 Q1389.72 1323.45 1390.86 1321.74 Q1392.01 1320.02 1392.01 1316.97 Q1392.01 1313.98 1390.86 1312.25 Q1389.7 1310.51 1387.71 1310.51 M1408.61 1307.57 L1412.31 1307.57 L1390.69 1343.43 L1386.99 1343.43 L1408.61 1307.57 M1387.71 1307.57 Q1391.37 1307.57 1393.54 1310.12 Q1395.72 1312.64 1395.72 1316.97 Q1395.72 1321.34 1393.54 1323.87 Q1391.39 1326.39 1387.71 1326.39 Q1384.03 1326.39 1381.88 1323.87 Q1379.75 1321.32 1379.75 1316.97 Q1379.75 1312.66 1381.9 1310.12 Q1384.05 1307.57 1387.71 1307.57 Z" fill="#000000" fill-rule="nonzero" fill-opacity="1" /></svg>
