<?xml version="1.0" encoding="utf-8"?>
<svg xmlns="http://www.w3.org/2000/svg" xmlns:xlink="http://www.w3.org/1999/xlink" width="600" height="400" viewBox="0 0 2400 1600">
<defs>
  <clipPath id="clip950">
    <rect x="0" y="0" width="2400" height="1600"/>
  </clipPath>
</defs>
<path clip-path="url(#clip950)" d="M0 1600 L2400 1600 L2400 0 L0 0  Z" fill="#ffffff" fill-rule="evenodd" fill-opacity="1"/>
<defs>
  <clipPath id="clip951">
    <rect x="480" y="0" width="1681" height="1600"/>
  </clipPath>
</defs>
<path clip-path="url(#clip950)" d="M287.366 623.18 L2352.76 623.18 L2352.76 47.2441 L287.366 47.2441  Z" fill="#ffffff" fill-rule="evenodd" fill-opacity="1"/>
<defs>
  <clipPath id="clip952">
    <rect x="287" y="47" width="2066" height="577"/>
  </clipPath>
</defs>
<polyline clip-path="url(#clip952)" style="stroke:#000000; stroke-linecap:round; stroke-linejoin:round; stroke-width:2; stroke-opacity:0.1; fill:none" points="345.82,623.18 345.82,47.2441 "/>
<polyline clip-path="url(#clip952)" style="stroke:#000000; stroke-linecap:round; stroke-linejoin:round; stroke-width:2; stroke-opacity:0.1; fill:none" points="736.298,623.18 736.298,47.2441 "/>
<polyline clip-path="url(#clip952)" style="stroke:#000000; stroke-linecap:round; stroke-linejoin:round; stroke-width:2; stroke-opacity:0.1; fill:none" points="1126.77,623.18 1126.77,47.2441 "/>
<polyline clip-path="url(#clip952)" style="stroke:#000000; stroke-linecap:round; stroke-linejoin:round; stroke-width:2; stroke-opacity:0.1; fill:none" points="1517.25,623.18 1517.25,47.2441 "/>
<polyline clip-path="url(#clip952)" style="stroke:#000000; stroke-linecap:round; stroke-linejoin:round; stroke-width:2; stroke-opacity:0.1; fill:none" points="1907.73,623.18 1907.73,47.2441 "/>
<polyline clip-path="url(#clip952)" style="stroke:#000000; stroke-linecap:round; stroke-linejoin:round; stroke-width:2; stroke-opacity:0.1; fill:none" points="2298.21,623.18 2298.21,47.2441 "/>
<polyline clip-path="url(#clip952)" style="stroke:#000000; stroke-linecap:round; stroke-linejoin:round; stroke-width:2; stroke-opacity:0.1; fill:none" points="287.366,600.775 2352.76,600.775 "/>
<polyline clip-path="url(#clip952)" style="stroke:#000000; stroke-linecap:round; stroke-linejoin:round; stroke-width:2; stroke-opacity:0.1; fill:none" points="287.366,513.569 2352.76,513.569 "/>
<polyline clip-path="url(#clip952)" style="stroke:#000000; stroke-linecap:round; stroke-linejoin:round; stroke-width:2; stroke-opacity:0.1; fill:none" points="287.366,426.363 2352.76,426.363 "/>
<polyline clip-path="url(#clip952)" style="stroke:#000000; stroke-linecap:round; stroke-linejoin:round; stroke-width:2; stroke-opacity:0.1; fill:none" points="287.366,339.157 2352.76,339.157 "/>
<polyline clip-path="url(#clip952)" style="stroke:#000000; stroke-linecap:round; stroke-linejoin:round; stroke-width:2; stroke-opacity:0.1; fill:none" points="287.366,251.951 2352.76,251.951 "/>
<polyline clip-path="url(#clip952)" style="stroke:#000000; stroke-linecap:round; stroke-linejoin:round; stroke-width:2; stroke-opacity:0.1; fill:none" points="287.366,164.745 2352.76,164.745 "/>
<polyline clip-path="url(#clip952)" style="stroke:#000000; stroke-linecap:round; stroke-linejoin:round; stroke-width:2; stroke-opacity:0.1; fill:none" points="287.366,77.5394 2352.76,77.5394 "/>
<polyline clip-path="url(#clip950)" style="stroke:#000000; stroke-linecap:round; stroke-linejoin:round; stroke-width:4; stroke-opacity:1; fill:none" points="287.366,623.18 2352.76,623.18 "/>
<polyline clip-path="url(#clip950)" style="stroke:#000000; stroke-linecap:round; stroke-linejoin:round; stroke-width:4; stroke-opacity:1; fill:none" points="345.82,623.18 345.82,604.282 "/>
<polyline clip-path="url(#clip950)" style="stroke:#000000; stroke-linecap:round; stroke-linejoin:round; stroke-width:4; stroke-opacity:1; fill:none" points="736.298,623.18 736.298,604.282 "/>
<polyline clip-path="url(#clip950)" style="stroke:#000000; stroke-linecap:round; stroke-linejoin:round; stroke-width:4; stroke-opacity:1; fill:none" points="1126.77,623.18 1126.77,604.282 "/>
<polyline clip-path="url(#clip950)" style="stroke:#000000; stroke-linecap:round; stroke-linejoin:round; stroke-width:4; stroke-opacity:1; fill:none" points="1517.25,623.18 1517.25,604.282 "/>
<polyline clip-path="url(#clip950)" style="stroke:#000000; stroke-linecap:round; stroke-linejoin:round; stroke-width:4; stroke-opacity:1; fill:none" points="1907.73,623.18 1907.73,604.282 "/>
<polyline clip-path="url(#clip950)" style="stroke:#000000; stroke-linecap:round; stroke-linejoin:round; stroke-width:4; stroke-opacity:1; fill:none" points="2298.21,623.18 2298.21,604.282 "/>
<path clip-path="url(#clip950)" d="M345.82 654.099 Q342.209 654.099 340.381 657.663 Q338.575 661.205 338.575 668.335 Q338.575 675.441 340.381 679.006 Q342.209 682.547 345.82 682.547 Q349.455 682.547 351.26 679.006 Q353.089 675.441 353.089 668.335 Q353.089 661.205 351.26 657.663 Q349.455 654.099 345.82 654.099 M345.82 650.395 Q351.63 650.395 354.686 655.001 Q357.765 659.585 357.765 668.335 Q357.765 677.061 354.686 681.668 Q351.63 686.251 345.82 686.251 Q340.01 686.251 336.931 681.668 Q333.876 677.061 333.876 668.335 Q333.876 659.585 336.931 655.001 Q340.01 650.395 345.82 650.395 Z" fill="#000000" fill-rule="nonzero" fill-opacity="1" /><path clip-path="url(#clip950)" d="M726.68 681.645 L734.318 681.645 L734.318 655.279 L726.008 656.946 L726.008 652.687 L734.272 651.02 L738.948 651.02 L738.948 681.645 L746.587 681.645 L746.587 685.58 L726.68 685.58 L726.68 681.645 Z" fill="#000000" fill-rule="nonzero" fill-opacity="1" /><path clip-path="url(#clip950)" d="M1121.43 681.645 L1137.75 681.645 L1137.75 685.58 L1115.8 685.58 L1115.8 681.645 Q1118.46 678.89 1123.05 674.26 Q1127.65 669.608 1128.83 668.265 Q1131.08 665.742 1131.96 664.006 Q1132.86 662.247 1132.86 660.557 Q1132.86 657.802 1130.92 656.066 Q1129 654.33 1125.9 654.33 Q1123.7 654.33 1121.24 655.094 Q1118.81 655.858 1116.03 657.409 L1116.03 652.687 Q1118.86 651.552 1121.31 650.974 Q1123.77 650.395 1125.8 650.395 Q1131.17 650.395 1134.37 653.08 Q1137.56 655.765 1137.56 660.256 Q1137.56 662.386 1136.75 664.307 Q1135.96 666.205 1133.86 668.798 Q1133.28 669.469 1130.18 672.686 Q1127.08 675.881 1121.43 681.645 Z" fill="#000000" fill-rule="nonzero" fill-opacity="1" /><path clip-path="url(#clip950)" d="M1521.5 666.946 Q1524.86 667.663 1526.73 669.932 Q1528.63 672.2 1528.63 675.534 Q1528.63 680.649 1525.11 683.45 Q1521.59 686.251 1515.11 686.251 Q1512.93 686.251 1510.62 685.811 Q1508.33 685.395 1505.87 684.538 L1505.87 680.024 Q1507.82 681.159 1510.13 681.737 Q1512.45 682.316 1514.97 682.316 Q1519.37 682.316 1521.66 680.58 Q1523.98 678.844 1523.98 675.534 Q1523.98 672.478 1521.82 670.765 Q1519.69 669.029 1515.87 669.029 L1511.85 669.029 L1511.85 665.186 L1516.06 665.186 Q1519.51 665.186 1521.34 663.821 Q1523.17 662.432 1523.17 659.839 Q1523.17 657.177 1521.27 655.765 Q1519.39 654.33 1515.87 654.33 Q1513.95 654.33 1511.75 654.747 Q1509.56 655.163 1506.92 656.043 L1506.92 651.876 Q1509.58 651.136 1511.89 650.765 Q1514.23 650.395 1516.29 650.395 Q1521.62 650.395 1524.72 652.825 Q1527.82 655.233 1527.82 659.353 Q1527.82 662.223 1526.18 664.214 Q1524.53 666.182 1521.5 666.946 Z" fill="#000000" fill-rule="nonzero" fill-opacity="1" /><path clip-path="url(#clip950)" d="M1910.74 655.094 L1898.93 673.543 L1910.74 673.543 L1910.74 655.094 M1909.51 651.02 L1915.39 651.02 L1915.39 673.543 L1920.32 673.543 L1920.32 677.432 L1915.39 677.432 L1915.39 685.58 L1910.74 685.58 L1910.74 677.432 L1895.14 677.432 L1895.14 672.918 L1909.51 651.02 Z" fill="#000000" fill-rule="nonzero" fill-opacity="1" /><path clip-path="url(#clip950)" d="M2288.48 651.02 L2306.84 651.02 L2306.84 654.955 L2292.77 654.955 L2292.77 663.427 Q2293.78 663.08 2294.8 662.918 Q2295.82 662.733 2296.84 662.733 Q2302.63 662.733 2306.01 665.904 Q2309.39 669.075 2309.39 674.492 Q2309.39 680.071 2305.91 683.172 Q2302.44 686.251 2296.12 686.251 Q2293.95 686.251 2291.68 685.881 Q2289.43 685.51 2287.03 684.77 L2287.03 680.071 Q2289.11 681.205 2291.33 681.76 Q2293.55 682.316 2296.03 682.316 Q2300.03 682.316 2302.37 680.21 Q2304.71 678.103 2304.71 674.492 Q2304.71 670.881 2302.37 668.774 Q2300.03 666.668 2296.03 666.668 Q2294.16 666.668 2292.28 667.085 Q2290.43 667.501 2288.48 668.381 L2288.48 651.02 Z" fill="#000000" fill-rule="nonzero" fill-opacity="1" /><path clip-path="url(#clip950)" d="M1190.23 720.524 L1230.43 720.524 L1230.43 725.935 L1213.56 725.935 L1213.56 768.044 L1207.1 768.044 L1207.1 725.935 L1190.23 725.935 L1190.23 720.524 Z" fill="#000000" fill-rule="nonzero" fill-opacity="1" /><path clip-path="url(#clip950)" d="M1234.38 732.396 L1240.23 732.396 L1240.23 768.044 L1234.38 768.044 L1234.38 732.396 M1234.38 718.519 L1240.23 718.519 L1240.23 725.935 L1234.38 725.935 L1234.38 718.519 Z" fill="#000000" fill-rule="nonzero" fill-opacity="1" /><path clip-path="url(#clip950)" d="M1280.24 739.239 Q1282.44 735.292 1285.5 733.414 Q1288.55 731.537 1292.69 731.537 Q1298.26 731.537 1301.28 735.451 Q1304.31 739.335 1304.31 746.528 L1304.31 768.044 L1298.42 768.044 L1298.42 746.719 Q1298.42 741.594 1296.6 739.112 Q1294.79 736.629 1291.07 736.629 Q1286.51 736.629 1283.87 739.653 Q1281.23 742.677 1281.23 747.896 L1281.23 768.044 L1275.34 768.044 L1275.34 746.719 Q1275.34 741.563 1273.53 739.112 Q1271.71 736.629 1267.93 736.629 Q1263.44 736.629 1260.8 739.685 Q1258.15 742.708 1258.15 747.896 L1258.15 768.044 L1252.27 768.044 L1252.27 732.396 L1258.15 732.396 L1258.15 737.934 Q1260.16 734.656 1262.96 733.096 Q1265.76 731.537 1269.61 731.537 Q1273.5 731.537 1276.2 733.51 Q1278.94 735.483 1280.24 739.239 Z" fill="#000000" fill-rule="nonzero" fill-opacity="1" /><path clip-path="url(#clip950)" d="M1346.48 748.756 L1346.48 751.62 L1319.55 751.62 Q1319.93 757.668 1323.18 760.851 Q1326.46 764.002 1332.28 764.002 Q1335.66 764.002 1338.81 763.174 Q1341.99 762.347 1345.11 760.691 L1345.11 766.23 Q1341.96 767.566 1338.65 768.267 Q1335.34 768.967 1331.93 768.967 Q1323.4 768.967 1318.41 764.002 Q1313.44 759.036 1313.44 750.57 Q1313.44 741.817 1318.15 736.693 Q1322.89 731.537 1330.91 731.537 Q1338.11 731.537 1342.28 736.183 Q1346.48 740.799 1346.48 748.756 M1340.62 747.037 Q1340.56 742.231 1337.92 739.366 Q1335.31 736.502 1330.98 736.502 Q1326.08 736.502 1323.12 739.271 Q1320.19 742.04 1319.74 747.069 L1340.62 747.037 Z" fill="#000000" fill-rule="nonzero" fill-opacity="1" /><path clip-path="url(#clip950)" d="M1390.88 718.582 Q1386.61 725.903 1384.55 733.064 Q1382.48 740.226 1382.48 747.578 Q1382.48 754.93 1384.55 762.156 Q1386.65 769.349 1390.88 776.638 L1385.79 776.638 Q1381.01 769.158 1378.63 761.933 Q1376.27 754.708 1376.27 747.578 Q1376.27 740.48 1378.63 733.287 Q1380.98 726.094 1385.79 718.582 L1390.88 718.582 Z" fill="#000000" fill-rule="nonzero" fill-opacity="1" /><path clip-path="url(#clip950)" d="M1424.97 733.446 L1424.97 738.984 Q1422.49 737.711 1419.81 737.075 Q1417.14 736.438 1414.27 736.438 Q1409.91 736.438 1407.72 737.775 Q1405.55 739.112 1405.55 741.785 Q1405.55 743.822 1407.11 745 Q1408.67 746.146 1413.38 747.196 L1415.39 747.642 Q1421.63 748.979 1424.24 751.429 Q1426.88 753.848 1426.88 758.209 Q1426.88 763.174 1422.93 766.07 Q1419.02 768.967 1412.14 768.967 Q1409.28 768.967 1406.16 768.394 Q1403.07 767.853 1399.63 766.739 L1399.63 760.691 Q1402.88 762.378 1406.03 763.238 Q1409.18 764.065 1412.27 764.065 Q1416.41 764.065 1418.63 762.665 Q1420.86 761.233 1420.86 758.654 Q1420.86 756.267 1419.24 754.994 Q1417.65 753.721 1412.2 752.543 L1410.17 752.066 Q1404.72 750.92 1402.31 748.565 Q1399.89 746.178 1399.89 742.04 Q1399.89 737.011 1403.45 734.274 Q1407.02 731.537 1413.57 731.537 Q1416.82 731.537 1419.68 732.014 Q1422.55 732.491 1424.97 733.446 Z" fill="#000000" fill-rule="nonzero" fill-opacity="1" /><path clip-path="url(#clip950)" d="M1435.28 718.582 L1440.37 718.582 Q1445.15 726.094 1447.5 733.287 Q1449.89 740.48 1449.89 747.578 Q1449.89 754.708 1447.5 761.933 Q1445.15 769.158 1440.37 776.638 L1435.28 776.638 Q1439.51 769.349 1441.58 762.156 Q1443.68 754.93 1443.68 747.578 Q1443.68 740.226 1441.58 733.064 Q1439.51 725.903 1435.28 718.582 Z" fill="#000000" fill-rule="nonzero" fill-opacity="1" /><polyline clip-path="url(#clip950)" style="stroke:#000000; stroke-linecap:round; stroke-linejoin:round; stroke-width:4; stroke-opacity:1; fill:none" points="287.366,623.18 287.366,47.2441 "/>
<polyline clip-path="url(#clip950)" style="stroke:#000000; stroke-linecap:round; stroke-linejoin:round; stroke-width:4; stroke-opacity:1; fill:none" points="287.366,600.775 306.264,600.775 "/>
<polyline clip-path="url(#clip950)" style="stroke:#000000; stroke-linecap:round; stroke-linejoin:round; stroke-width:4; stroke-opacity:1; fill:none" points="287.366,513.569 306.264,513.569 "/>
<polyline clip-path="url(#clip950)" style="stroke:#000000; stroke-linecap:round; stroke-linejoin:round; stroke-width:4; stroke-opacity:1; fill:none" points="287.366,426.363 306.264,426.363 "/>
<polyline clip-path="url(#clip950)" style="stroke:#000000; stroke-linecap:round; stroke-linejoin:round; stroke-width:4; stroke-opacity:1; fill:none" points="287.366,339.157 306.264,339.157 "/>
<polyline clip-path="url(#clip950)" style="stroke:#000000; stroke-linecap:round; stroke-linejoin:round; stroke-width:4; stroke-opacity:1; fill:none" points="287.366,251.951 306.264,251.951 "/>
<polyline clip-path="url(#clip950)" style="stroke:#000000; stroke-linecap:round; stroke-linejoin:round; stroke-width:4; stroke-opacity:1; fill:none" points="287.366,164.745 306.264,164.745 "/>
<polyline clip-path="url(#clip950)" style="stroke:#000000; stroke-linecap:round; stroke-linejoin:round; stroke-width:4; stroke-opacity:1; fill:none" points="287.366,77.5394 306.264,77.5394 "/>
<path clip-path="url(#clip950)" d="M115.256 601.226 L144.931 601.226 L144.931 605.161 L115.256 605.161 L115.256 601.226 Z" fill="#000000" fill-rule="nonzero" fill-opacity="1" /><path clip-path="url(#clip950)" d="M165.024 586.573 Q161.413 586.573 159.584 590.138 Q157.778 593.68 157.778 600.809 Q157.778 607.916 159.584 611.481 Q161.413 615.022 165.024 615.022 Q168.658 615.022 170.464 611.481 Q172.292 607.916 172.292 600.809 Q172.292 593.68 170.464 590.138 Q168.658 586.573 165.024 586.573 M165.024 582.87 Q170.834 582.87 173.889 587.476 Q176.968 592.059 176.968 600.809 Q176.968 609.536 173.889 614.143 Q170.834 618.726 165.024 618.726 Q159.214 618.726 156.135 614.143 Q153.079 609.536 153.079 600.809 Q153.079 592.059 156.135 587.476 Q159.214 582.87 165.024 582.87 Z" fill="#000000" fill-rule="nonzero" fill-opacity="1" /><path clip-path="url(#clip950)" d="M185.186 612.175 L190.07 612.175 L190.07 618.055 L185.186 618.055 L185.186 612.175 Z" fill="#000000" fill-rule="nonzero" fill-opacity="1" /><path clip-path="url(#clip950)" d="M201.065 614.119 L208.704 614.119 L208.704 587.754 L200.394 589.42 L200.394 585.161 L208.658 583.495 L213.334 583.495 L213.334 614.119 L220.973 614.119 L220.973 618.055 L201.065 618.055 L201.065 614.119 Z" fill="#000000" fill-rule="nonzero" fill-opacity="1" /><path clip-path="url(#clip950)" d="M230.463 583.495 L248.82 583.495 L248.82 587.43 L234.746 587.43 L234.746 595.902 Q235.764 595.555 236.783 595.393 Q237.801 595.208 238.82 595.208 Q244.607 595.208 247.986 598.379 Q251.366 601.55 251.366 606.967 Q251.366 612.545 247.894 615.647 Q244.421 618.726 238.102 618.726 Q235.926 618.726 233.658 618.356 Q231.412 617.985 229.005 617.244 L229.005 612.545 Q231.088 613.68 233.31 614.235 Q235.533 614.791 238.009 614.791 Q242.014 614.791 244.352 612.684 Q246.69 610.578 246.69 606.967 Q246.69 603.356 244.352 601.249 Q242.014 599.143 238.009 599.143 Q236.135 599.143 234.26 599.559 Q232.408 599.976 230.463 600.856 L230.463 583.495 Z" fill="#000000" fill-rule="nonzero" fill-opacity="1" /><path clip-path="url(#clip950)" d="M114.26 514.02 L143.936 514.02 L143.936 517.955 L114.26 517.955 L114.26 514.02 Z" fill="#000000" fill-rule="nonzero" fill-opacity="1" /><path clip-path="url(#clip950)" d="M164.028 499.367 Q160.417 499.367 158.589 502.932 Q156.783 506.474 156.783 513.603 Q156.783 520.71 158.589 524.275 Q160.417 527.816 164.028 527.816 Q167.663 527.816 169.468 524.275 Q171.297 520.71 171.297 513.603 Q171.297 506.474 169.468 502.932 Q167.663 499.367 164.028 499.367 M164.028 495.664 Q169.839 495.664 172.894 500.27 Q175.973 504.854 175.973 513.603 Q175.973 522.33 172.894 526.937 Q169.839 531.52 164.028 531.52 Q158.218 531.52 155.14 526.937 Q152.084 522.33 152.084 513.603 Q152.084 504.854 155.14 500.27 Q158.218 495.664 164.028 495.664 Z" fill="#000000" fill-rule="nonzero" fill-opacity="1" /><path clip-path="url(#clip950)" d="M184.19 524.969 L189.075 524.969 L189.075 530.849 L184.19 530.849 L184.19 524.969 Z" fill="#000000" fill-rule="nonzero" fill-opacity="1" /><path clip-path="url(#clip950)" d="M200.07 526.914 L207.709 526.914 L207.709 500.548 L199.399 502.215 L199.399 497.955 L207.662 496.289 L212.338 496.289 L212.338 526.914 L219.977 526.914 L219.977 530.849 L200.07 530.849 L200.07 526.914 Z" fill="#000000" fill-rule="nonzero" fill-opacity="1" /><path clip-path="url(#clip950)" d="M239.422 499.367 Q235.81 499.367 233.982 502.932 Q232.176 506.474 232.176 513.603 Q232.176 520.71 233.982 524.275 Q235.81 527.816 239.422 527.816 Q243.056 527.816 244.861 524.275 Q246.69 520.71 246.69 513.603 Q246.69 506.474 244.861 502.932 Q243.056 499.367 239.422 499.367 M239.422 495.664 Q245.232 495.664 248.287 500.27 Q251.366 504.854 251.366 513.603 Q251.366 522.33 248.287 526.937 Q245.232 531.52 239.422 531.52 Q233.611 531.52 230.533 526.937 Q227.477 522.33 227.477 513.603 Q227.477 504.854 230.533 500.27 Q233.611 495.664 239.422 495.664 Z" fill="#000000" fill-rule="nonzero" fill-opacity="1" /><path clip-path="url(#clip950)" d="M115.256 426.814 L144.931 426.814 L144.931 430.749 L115.256 430.749 L115.256 426.814 Z" fill="#000000" fill-rule="nonzero" fill-opacity="1" /><path clip-path="url(#clip950)" d="M165.024 412.162 Q161.413 412.162 159.584 415.726 Q157.778 419.268 157.778 426.398 Q157.778 433.504 159.584 437.069 Q161.413 440.61 165.024 440.61 Q168.658 440.61 170.464 437.069 Q172.292 433.504 172.292 426.398 Q172.292 419.268 170.464 415.726 Q168.658 412.162 165.024 412.162 M165.024 408.458 Q170.834 408.458 173.889 413.064 Q176.968 417.648 176.968 426.398 Q176.968 435.124 173.889 439.731 Q170.834 444.314 165.024 444.314 Q159.214 444.314 156.135 439.731 Q153.079 435.124 153.079 426.398 Q153.079 417.648 156.135 413.064 Q159.214 408.458 165.024 408.458 Z" fill="#000000" fill-rule="nonzero" fill-opacity="1" /><path clip-path="url(#clip950)" d="M185.186 437.763 L190.07 437.763 L190.07 443.643 L185.186 443.643 L185.186 437.763 Z" fill="#000000" fill-rule="nonzero" fill-opacity="1" /><path clip-path="url(#clip950)" d="M210.255 412.162 Q206.644 412.162 204.815 415.726 Q203.01 419.268 203.01 426.398 Q203.01 433.504 204.815 437.069 Q206.644 440.61 210.255 440.61 Q213.889 440.61 215.695 437.069 Q217.523 433.504 217.523 426.398 Q217.523 419.268 215.695 415.726 Q213.889 412.162 210.255 412.162 M210.255 408.458 Q216.065 408.458 219.121 413.064 Q222.199 417.648 222.199 426.398 Q222.199 435.124 219.121 439.731 Q216.065 444.314 210.255 444.314 Q204.445 444.314 201.366 439.731 Q198.311 435.124 198.311 426.398 Q198.311 417.648 201.366 413.064 Q204.445 408.458 210.255 408.458 Z" fill="#000000" fill-rule="nonzero" fill-opacity="1" /><path clip-path="url(#clip950)" d="M230.463 409.083 L248.82 409.083 L248.82 413.018 L234.746 413.018 L234.746 421.49 Q235.764 421.143 236.783 420.981 Q237.801 420.796 238.82 420.796 Q244.607 420.796 247.986 423.967 Q251.366 427.138 251.366 432.555 Q251.366 438.134 247.894 441.235 Q244.421 444.314 238.102 444.314 Q235.926 444.314 233.658 443.944 Q231.412 443.573 229.005 442.833 L229.005 438.134 Q231.088 439.268 233.31 439.823 Q235.533 440.379 238.009 440.379 Q242.014 440.379 244.352 438.273 Q246.69 436.166 246.69 432.555 Q246.69 428.944 244.352 426.837 Q242.014 424.731 238.009 424.731 Q236.135 424.731 234.26 425.148 Q232.408 425.564 230.463 426.444 L230.463 409.083 Z" fill="#000000" fill-rule="nonzero" fill-opacity="1" /><path clip-path="url(#clip950)" d="M164.028 324.956 Q160.417 324.956 158.589 328.52 Q156.783 332.062 156.783 339.192 Q156.783 346.298 158.589 349.863 Q160.417 353.405 164.028 353.405 Q167.663 353.405 169.468 349.863 Q171.297 346.298 171.297 339.192 Q171.297 332.062 169.468 328.52 Q167.663 324.956 164.028 324.956 M164.028 321.252 Q169.839 321.252 172.894 325.858 Q175.973 330.442 175.973 339.192 Q175.973 347.919 172.894 352.525 Q169.839 357.108 164.028 357.108 Q158.218 357.108 155.14 352.525 Q152.084 347.919 152.084 339.192 Q152.084 330.442 155.14 325.858 Q158.218 321.252 164.028 321.252 Z" fill="#000000" fill-rule="nonzero" fill-opacity="1" /><path clip-path="url(#clip950)" d="M184.19 350.557 L189.075 350.557 L189.075 356.437 L184.19 356.437 L184.19 350.557 Z" fill="#000000" fill-rule="nonzero" fill-opacity="1" /><path clip-path="url(#clip950)" d="M209.26 324.956 Q205.649 324.956 203.82 328.52 Q202.014 332.062 202.014 339.192 Q202.014 346.298 203.82 349.863 Q205.649 353.405 209.26 353.405 Q212.894 353.405 214.699 349.863 Q216.528 346.298 216.528 339.192 Q216.528 332.062 214.699 328.52 Q212.894 324.956 209.26 324.956 M209.26 321.252 Q215.07 321.252 218.125 325.858 Q221.204 330.442 221.204 339.192 Q221.204 347.919 218.125 352.525 Q215.07 357.108 209.26 357.108 Q203.449 357.108 200.371 352.525 Q197.315 347.919 197.315 339.192 Q197.315 330.442 200.371 325.858 Q203.449 321.252 209.26 321.252 Z" fill="#000000" fill-rule="nonzero" fill-opacity="1" /><path clip-path="url(#clip950)" d="M239.422 324.956 Q235.81 324.956 233.982 328.52 Q232.176 332.062 232.176 339.192 Q232.176 346.298 233.982 349.863 Q235.81 353.405 239.422 353.405 Q243.056 353.405 244.861 349.863 Q246.69 346.298 246.69 339.192 Q246.69 332.062 244.861 328.52 Q243.056 324.956 239.422 324.956 M239.422 321.252 Q245.232 321.252 248.287 325.858 Q251.366 330.442 251.366 339.192 Q251.366 347.919 248.287 352.525 Q245.232 357.108 239.422 357.108 Q233.611 357.108 230.533 352.525 Q227.477 347.919 227.477 339.192 Q227.477 330.442 230.533 325.858 Q233.611 321.252 239.422 321.252 Z" fill="#000000" fill-rule="nonzero" fill-opacity="1" /><path clip-path="url(#clip950)" d="M165.024 237.75 Q161.413 237.75 159.584 241.315 Q157.778 244.856 157.778 251.986 Q157.778 259.092 159.584 262.657 Q161.413 266.199 165.024 266.199 Q168.658 266.199 170.464 262.657 Q172.292 259.092 172.292 251.986 Q172.292 244.856 170.464 241.315 Q168.658 237.75 165.024 237.75 M165.024 234.046 Q170.834 234.046 173.889 238.653 Q176.968 243.236 176.968 251.986 Q176.968 260.713 173.889 265.319 Q170.834 269.902 165.024 269.902 Q159.214 269.902 156.135 265.319 Q153.079 260.713 153.079 251.986 Q153.079 243.236 156.135 238.653 Q159.214 234.046 165.024 234.046 Z" fill="#000000" fill-rule="nonzero" fill-opacity="1" /><path clip-path="url(#clip950)" d="M185.186 263.352 L190.07 263.352 L190.07 269.231 L185.186 269.231 L185.186 263.352 Z" fill="#000000" fill-rule="nonzero" fill-opacity="1" /><path clip-path="url(#clip950)" d="M210.255 237.75 Q206.644 237.75 204.815 241.315 Q203.01 244.856 203.01 251.986 Q203.01 259.092 204.815 262.657 Q206.644 266.199 210.255 266.199 Q213.889 266.199 215.695 262.657 Q217.523 259.092 217.523 251.986 Q217.523 244.856 215.695 241.315 Q213.889 237.75 210.255 237.75 M210.255 234.046 Q216.065 234.046 219.121 238.653 Q222.199 243.236 222.199 251.986 Q222.199 260.713 219.121 265.319 Q216.065 269.902 210.255 269.902 Q204.445 269.902 201.366 265.319 Q198.311 260.713 198.311 251.986 Q198.311 243.236 201.366 238.653 Q204.445 234.046 210.255 234.046 Z" fill="#000000" fill-rule="nonzero" fill-opacity="1" /><path clip-path="url(#clip950)" d="M230.463 234.671 L248.82 234.671 L248.82 238.606 L234.746 238.606 L234.746 247.078 Q235.764 246.731 236.783 246.569 Q237.801 246.384 238.82 246.384 Q244.607 246.384 247.986 249.555 Q251.366 252.727 251.366 258.143 Q251.366 263.722 247.894 266.824 Q244.421 269.902 238.102 269.902 Q235.926 269.902 233.658 269.532 Q231.412 269.162 229.005 268.421 L229.005 263.722 Q231.088 264.856 233.31 265.412 Q235.533 265.967 238.009 265.967 Q242.014 265.967 244.352 263.861 Q246.69 261.754 246.69 258.143 Q246.69 254.532 244.352 252.426 Q242.014 250.319 238.009 250.319 Q236.135 250.319 234.26 250.736 Q232.408 251.153 230.463 252.032 L230.463 234.671 Z" fill="#000000" fill-rule="nonzero" fill-opacity="1" /><path clip-path="url(#clip950)" d="M164.028 150.544 Q160.417 150.544 158.589 154.109 Q156.783 157.65 156.783 164.78 Q156.783 171.886 158.589 175.451 Q160.417 178.993 164.028 178.993 Q167.663 178.993 169.468 175.451 Q171.297 171.886 171.297 164.78 Q171.297 157.65 169.468 154.109 Q167.663 150.544 164.028 150.544 M164.028 146.84 Q169.839 146.84 172.894 151.447 Q175.973 156.03 175.973 164.78 Q175.973 173.507 172.894 178.113 Q169.839 182.697 164.028 182.697 Q158.218 182.697 155.14 178.113 Q152.084 173.507 152.084 164.78 Q152.084 156.03 155.14 151.447 Q158.218 146.84 164.028 146.84 Z" fill="#000000" fill-rule="nonzero" fill-opacity="1" /><path clip-path="url(#clip950)" d="M184.19 176.146 L189.075 176.146 L189.075 182.025 L184.19 182.025 L184.19 176.146 Z" fill="#000000" fill-rule="nonzero" fill-opacity="1" /><path clip-path="url(#clip950)" d="M200.07 178.09 L207.709 178.09 L207.709 151.725 L199.399 153.391 L199.399 149.132 L207.662 147.465 L212.338 147.465 L212.338 178.09 L219.977 178.09 L219.977 182.025 L200.07 182.025 L200.07 178.09 Z" fill="#000000" fill-rule="nonzero" fill-opacity="1" /><path clip-path="url(#clip950)" d="M239.422 150.544 Q235.81 150.544 233.982 154.109 Q232.176 157.65 232.176 164.78 Q232.176 171.886 233.982 175.451 Q235.81 178.993 239.422 178.993 Q243.056 178.993 244.861 175.451 Q246.69 171.886 246.69 164.78 Q246.69 157.65 244.861 154.109 Q243.056 150.544 239.422 150.544 M239.422 146.84 Q245.232 146.84 248.287 151.447 Q251.366 156.03 251.366 164.78 Q251.366 173.507 248.287 178.113 Q245.232 182.697 239.422 182.697 Q233.611 182.697 230.533 178.113 Q227.477 173.507 227.477 164.78 Q227.477 156.03 230.533 151.447 Q233.611 146.84 239.422 146.84 Z" fill="#000000" fill-rule="nonzero" fill-opacity="1" /><path clip-path="url(#clip950)" d="M165.024 63.3381 Q161.413 63.3381 159.584 66.9029 Q157.778 70.4445 157.778 77.5741 Q157.778 84.6806 159.584 88.2454 Q161.413 91.787 165.024 91.787 Q168.658 91.787 170.464 88.2454 Q172.292 84.6806 172.292 77.5741 Q172.292 70.4445 170.464 66.9029 Q168.658 63.3381 165.024 63.3381 M165.024 59.6344 Q170.834 59.6344 173.889 64.2409 Q176.968 68.8242 176.968 77.5741 Q176.968 86.3009 173.889 90.9074 Q170.834 95.4907 165.024 95.4907 Q159.214 95.4907 156.135 90.9074 Q153.079 86.3009 153.079 77.5741 Q153.079 68.8242 156.135 64.2409 Q159.214 59.6344 165.024 59.6344 Z" fill="#000000" fill-rule="nonzero" fill-opacity="1" /><path clip-path="url(#clip950)" d="M185.186 88.9398 L190.07 88.9398 L190.07 94.8194 L185.186 94.8194 L185.186 88.9398 Z" fill="#000000" fill-rule="nonzero" fill-opacity="1" /><path clip-path="url(#clip950)" d="M201.065 90.8843 L208.704 90.8843 L208.704 64.5187 L200.394 66.1853 L200.394 61.9261 L208.658 60.2594 L213.334 60.2594 L213.334 90.8843 L220.973 90.8843 L220.973 94.8194 L201.065 94.8194 L201.065 90.8843 Z" fill="#000000" fill-rule="nonzero" fill-opacity="1" /><path clip-path="url(#clip950)" d="M230.463 60.2594 L248.82 60.2594 L248.82 64.1946 L234.746 64.1946 L234.746 72.6668 Q235.764 72.3195 236.783 72.1575 Q237.801 71.9723 238.82 71.9723 Q244.607 71.9723 247.986 75.1436 Q251.366 78.3149 251.366 83.7315 Q251.366 89.3102 247.894 92.412 Q244.421 95.4907 238.102 95.4907 Q235.926 95.4907 233.658 95.1203 Q231.412 94.75 229.005 94.0092 L229.005 89.3102 Q231.088 90.4444 233.31 91 Q235.533 91.5555 238.009 91.5555 Q242.014 91.5555 244.352 89.4491 Q246.69 87.3426 246.69 83.7315 Q246.69 80.1204 244.352 78.014 Q242.014 75.9075 238.009 75.9075 Q236.135 75.9075 234.26 76.3241 Q232.408 76.7408 230.463 77.6204 L230.463 60.2594 Z" fill="#000000" fill-rule="nonzero" fill-opacity="1" /><path clip-path="url(#clip950)" d="M67.3143 333.525 Q73.68 336.008 75.6216 338.363 Q77.5631 340.718 77.5631 344.665 L77.5631 349.344 L72.6615 349.344 L72.6615 345.906 Q72.6615 343.487 71.5157 342.151 Q70.3699 340.814 66.1048 339.191 L63.4312 338.14 L28.3562 352.559 L28.3562 346.352 L56.238 335.212 L28.3562 324.072 L28.3562 317.865 L67.3143 333.525 Z" fill="#000000" fill-rule="nonzero" fill-opacity="1" /><polyline clip-path="url(#clip952)" style="stroke:#009af9; stroke-linecap:round; stroke-linejoin:round; stroke-width:4; stroke-opacity:1; fill:none" points="345.82,339.157 349.725,339.157 353.63,339.157 353.63,321.917 357.535,321.917 357.535,305.186 361.439,305.186 361.439,289.109 365.344,289.109 365.344,273.817 369.249,273.817 369.249,259.426 373.154,259.426 373.154,246.027 377.059,246.027 377.059,233.696 380.963,233.696 380.963,222.484 384.868,222.484 384.868,212.421 388.773,212.421 388.773,203.515 392.678,203.515 392.678,195.752 396.582,195.752 396.582,189.099 400.487,189.099 400.487,183.502 404.392,183.502 404.392,178.89 408.297,178.89 408.297,175.177 412.201,175.177 412.201,206.741 416.106,206.741 416.106,237.975 420.011,237.975 420.011,268.466 423.916,268.466 423.916,297.825 427.821,297.825 427.821,325.694 431.725,325.694 431.725,317.275 435.63,317.275 435.63,307.787 439.535,307.787 439.535,297.294 443.44,297.294 443.44,285.882 447.344,285.882 447.344,273.651 451.249,273.651 451.249,295.196 455.154,295.196 455.154,315.151 459.059,315.151 459.059,333.36 462.963,333.36 462.963,349.701 466.868,349.701 466.868,364.095 470.773,364.095 470.773,376.499 474.678,376.499 474.678,386.908 478.583,386.908 478.583,395.357 482.487,395.357 482.487,401.915 486.392,401.915 486.392,406.686 490.297,406.686 490.297,409.802 494.202,409.802 494.202,411.423 498.106,411.423 498.106,411.733 502.011,411.733 502.011,410.933 505.916,410.933 505.916,409.24 509.821,409.24 509.821,372.399 513.726,372.399 513.726,336.136 517.63,336.136 517.63,300.974 521.535,300.974 521.535,267.404 525.44,267.404 525.44,235.868 529.345,235.868 529.345,206.761 533.249,206.761 533.249,180.418 537.154,180.418 537.154,157.111 541.059,157.111 541.059,137.047 544.964,137.047 544.964,120.365 548.868,120.365 548.868,107.134 552.773,107.134 552.773,97.3542 556.678,97.3542 556.678,90.9612 560.583,90.9612 560.583,87.8261 564.488,87.8261 564.488,87.7617 568.392,87.7617 568.392,90.5273 572.297,90.5273 572.297,95.8354 576.202,95.8354 576.202,103.358 580.107,103.358 580.107,112.736 584.011,112.736 584.011,123.583 587.916,123.583 587.916,135.501 591.821,135.501 591.821,148.079 595.726,148.079 595.726,160.911 599.631,160.911 599.631,173.597 603.535,173.597 603.535,185.754 607.44,185.754 607.44,231.5 611.345,231.5 611.345,275.01 615.25,275.01 615.25,315.695 619.154,315.695 619.154,353.037 623.059,353.037 623.059,386.596 626.964,386.596 626.964,381.54 630.869,381.54 630.869,373.1 634.773,373.1 634.773,361.397 638.678,361.397 638.678,346.616 642.583,346.616 642.583,328.998 646.488,328.998 646.488,343.313 650.393,343.313 650.393,354.4 654.297,354.4 654.297,362.333 658.202,362.333 658.202,367.247 662.107,367.247 662.107,369.326 666.012,369.326 666.012,368.807 669.916,368.807 669.916,365.965 673.821,365.965 673.821,361.115 677.726,361.115 677.726,354.596 681.631,354.596 681.631,346.771 685.535,346.771 685.535,338.014 689.44,338.014 689.44,328.707 693.345,328.707 693.345,319.228 697.25,319.228 697.25,309.945 701.155,309.945 701.155,301.211 705.059,301.211 705.059,258.875 708.964,258.875 708.964,218.733 712.869,218.733 712.869,181.346 716.774,181.346 716.774,147.204 720.678,147.204 720.678,116.723 724.583,116.723 724.583,124.713 728.488,124.713 728.488,135.925 732.393,135.925 732.393,150.221 736.298,150.221 736.298,167.405 740.202,167.405 740.202,187.229 744.107,187.229 744.107,209.398 748.012,209.398 748.012,233.577 751.917,233.577 751.917,259.401 755.821,259.401 755.821,286.482 759.726,286.482 759.726,314.415 763.631,314.415 763.631,342.791 767.536,342.791 767.536,371.201 771.44,371.201 771.44,399.247 775.345,399.247 775.345,426.548 779.25,426.548 779.25,452.746 783.155,452.746 783.155,477.515 787.06,477.515 787.06,500.566 790.964,500.566 790.964,521.649 794.869,521.649 794.869,540.56 798.774,540.56 798.774,557.14 802.679,557.14 802.679,536.803 806.583,536.803 806.583,514.985 810.488,514.985 810.488,491.97 814.393,491.97 814.393,468.059 818.298,468.059 818.298,443.564 822.202,443.564 822.202,453.281 826.107,453.281 826.107,462.028 830.012,462.028 830.012,469.817 833.917,469.817 833.917,476.676 837.822,476.676 837.822,482.651 841.726,482.651 841.726,453.321 845.631,453.321 845.631,424.254 849.536,424.254 849.536,395.825 853.441,395.825 853.441,368.392 857.345,368.392 857.345,342.279 861.25,342.279 861.25,317.781 865.155,317.781 865.155,295.152 869.06,295.152 869.06,274.604 872.965,274.604 872.965,256.304 876.869,256.304 876.869,240.37 880.774,240.37 880.774,261.353 884.679,261.353 884.679,283.78 888.584,283.78 888.584,307.333 892.488,307.333 892.488,331.68 896.393,331.68 896.393,356.479 900.298,356.479 900.298,381.39 904.203,381.39 904.203,406.079 908.107,406.079 908.107,430.224 912.012,430.224 912.012,453.522 915.917,453.522 915.917,475.693 919.822,475.693 919.822,462.009 923.727,462.009 923.727,447.747 927.631,447.747 927.631,433.02 931.536,433.02 931.536,417.947 935.441,417.947 935.441,402.655 939.346,402.655 939.346,421.75 943.25,421.75 943.25,439.866 947.155,439.866 947.155,456.833 951.06,456.833 951.06,472.509 954.965,472.509 954.965,486.778 958.87,486.778 958.87,499.557 962.774,499.557 962.774,510.789 966.679,510.789 966.679,520.452 970.584,520.452 970.584,528.549 974.489,528.549 974.489,535.117 978.393,535.117 978.393,540.218 982.298,540.218 982.298,543.94 986.203,543.94 986.203,546.393 990.108,546.393 990.108,547.71 994.012,547.71 994.012,548.038 997.917,548.038 997.917,513.061 1001.82,513.061 1001.82,478.445 1005.73,478.445 1005.73,444.663 1009.63,444.663 1009.63,412.159 1013.54,412.159 1013.54,381.34 1017.44,381.34 1017.44,387.049 1021.35,387.049 1021.35,394.106 1025.25,394.106 1025.25,402.48 1029.16,402.48 1029.16,412.111 1033.06,412.111 1033.06,422.917 1036.96,422.917 1036.96,434.79 1040.87,434.79 1040.87,447.608 1044.77,447.608 1044.77,461.229 1048.68,461.229 1048.68,475.5 1052.58,475.5 1052.58,490.255 1056.49,490.255 1056.49,470.848 1060.39,470.848 1060.39,452.599 1064.3,452.599 1064.3,435.633 1068.2,435.633 1068.2,420.044 1072.11,420.044 1072.11,405.9 1076.01,405.9 1076.01,393.24 1079.92,393.24 1079.92,382.075 1083.82,382.075 1083.82,372.389 1087.73,372.389 1087.73,364.136 1091.63,364.136 1091.63,357.25 1095.54,357.25 1095.54,386.116 1099.44,386.116 1099.44,415.129 1103.35,415.129 1103.35,443.865 1107.25,443.865 1107.25,471.917 1111.16,471.917 1111.16,498.901 1115.06,498.901 1115.06,524.466 1118.97,524.466 1118.97,548.296 1122.87,548.296 1122.87,570.119 1126.77,570.119 1126.77,589.706 1130.68,589.706 1130.68,606.88 1134.58,606.88 1134.58,587.035 1138.49,587.035 1138.49,565.592 1142.39,565.592 1142.39,542.822 1146.3,542.822 1146.3,519.016 1150.2,519.016 1150.2,494.481 1154.11,494.481 1154.11,469.529 1158.01,469.529 1158.01,444.472 1161.92,444.472 1161.92,419.62 1165.82,419.62 1165.82,395.269 1169.73,395.269 1169.73,371.699 1173.63,371.699 1173.63,349.169 1177.54,349.169 1177.54,327.91 1181.44,327.91 1181.44,308.124 1185.35,308.124 1185.35,289.981 1189.25,289.981 1189.25,273.612 1193.16,273.612 1193.16,293.595 1197.06,293.595 1197.06,314.491 1200.97,314.491 1200.97,336.028 1204.87,336.028 1204.87,357.926 1208.77,357.926 1208.77,379.905 1212.68,379.905 1212.68,401.689 1216.58,401.689 1216.58,423.016 1220.49,423.016 1220.49,443.634 1224.39,443.634 1224.39,463.314 1228.3,463.314 1228.3,481.852 1232.2,481.852 1232.2,464.587 1236.11,464.587 1236.11,446.867 1240.01,446.867 1240.01,428.868 1243.92,428.868 1243.92,410.768 1247.82,410.768 1247.82,392.744 1251.73,392.744 1251.73,409.447 1255.63,409.447 1255.63,425.548 1259.54,425.548 1259.54,440.904 1263.44,440.904 1263.44,455.392 1267.35,455.392 1267.35,468.908 1271.25,468.908 1271.25,446.889 1275.16,446.889 1275.16,424.768 1279.06,424.768 1279.06,402.798 1282.97,402.798 1282.97,381.225 1286.87,381.225 1286.87,360.28 1290.78,360.28 1290.78,340.179 1294.68,340.179 1294.68,321.114 1298.58,321.114 1298.58,303.256 1302.49,303.256 1302.49,286.745 1306.39,286.745 1306.39,271.695 1310.3,271.695 1310.3,292.668 1314.2,292.668 1314.2,314.221 1318.11,314.221 1318.11,336.08 1322.01,336.08 1322.01,357.973 1325.92,357.973 1325.92,379.633 1329.82,379.633 1329.82,400.803 1333.73,400.803 1333.73,421.242 1337.63,421.242 1337.63,440.73 1341.54,440.73 1341.54,459.07 1345.44,459.07 1345.44,476.091 1349.35,476.091 1349.35,491.653 1353.25,491.653 1353.25,505.645 1357.16,505.645 1357.16,517.991 1361.06,517.991 1361.06,528.648 1364.97,528.648 1364.97,537.603 1368.87,537.603 1368.87,510.4 1372.78,510.4 1372.78,482.586 1376.68,482.586 1376.68,454.536 1380.58,454.536 1380.58,426.62 1384.49,426.62 1384.49,399.197 1388.39,399.197 1388.39,407.087 1392.3,407.087 1392.3,415.11 1396.2,415.11 1396.2,423.259 1400.11,423.259 1400.11,431.522 1404.01,431.522 1404.01,439.883 1407.92,439.883 1407.92,448.325 1411.82,448.325 1411.82,456.826 1415.73,456.826 1415.73,465.364 1419.63,465.364 1419.63,473.915 1423.54,473.915 1423.54,482.453 1427.44,482.453 1427.44,456.474 1431.35,456.474 1431.35,431.446 1435.25,431.446 1435.25,407.639 1439.16,407.639 1439.16,385.292 1443.06,385.292 1443.06,364.608 1446.97,364.608 1446.97,380.236 1450.87,380.236 1450.87,396.808 1454.78,396.808 1454.78,414.121 1458.68,414.121 1458.68,431.959 1462.59,431.959 1462.59,450.1 1466.49,450.1 1466.49,468.324 1470.39,468.324 1470.39,486.413 1474.3,486.413 1474.3,504.155 1478.2,504.155 1478.2,521.353 1482.11,521.353 1482.11,537.822 1486.01,537.822 1486.01,518.918 1489.92,518.918 1489.92,499.992 1493.82,499.992 1493.82,481.217 1497.73,481.217 1497.73,462.759 1501.63,462.759 1501.63,444.777 1505.54,444.777 1505.54,461.894 1509.44,461.894 1509.44,478.747 1513.35,478.747 1513.35,495.157 1517.25,495.157 1517.25,510.956 1521.16,510.956 1521.16,525.993 1525.06,525.993 1525.06,540.135 1528.97,540.135 1528.97,553.27 1532.87,553.27 1532.87,565.304 1536.78,565.304 1536.78,576.171 1540.68,576.171 1540.68,585.825 1544.59,585.825 1544.59,559.766 1548.49,559.766 1548.49,533.492 1552.39,533.492 1552.39,507.322 1556.3,507.322 1556.3,481.566 1560.2,481.566 1560.2,456.517 1564.11,456.517 1564.11,466.93 1568.01,466.93 1568.01,477.557 1571.92,477.557 1571.92,488.323 1575.82,488.323 1575.82,499.152 1579.73,499.152 1579.73,509.967 1583.63,509.967 1583.63,486.212 1587.54,486.212 1587.54,463.309 1591.44,463.309 1591.44,441.482 1595.35,441.482 1595.35,420.93 1599.25,420.93 1599.25,401.823 1603.16,401.823 1603.16,384.298 1607.06,384.298 1607.06,368.461 1610.97,368.461 1610.97,354.381 1614.87,354.381 1614.87,342.095 1618.78,342.095 1618.78,331.605 1622.68,331.605 1622.68,322.877 1626.59,322.877 1626.59,315.847 1630.49,315.847 1630.49,310.423 1634.4,310.423 1634.4,306.483 1638.3,306.483 1638.3,303.883 1642.2,303.883 1642.2,302.457 1646.11,302.457 1646.11,302.024 1650.01,302.024 1650.01,302.391 1653.92,302.391 1653.92,303.356 1657.82,303.356 1657.82,304.712 1661.73,304.712 1661.73,306.253 1665.63,306.253 1665.63,307.777 1669.54,307.777 1669.54,309.09 1673.44,309.09 1673.44,310.01 1677.35,310.01 1677.35,310.369 1681.25,310.369 1681.25,344.496 1685.16,344.496 1685.16,376.766 1689.06,376.766 1689.06,406.778 1692.97,406.778 1692.97,434.183 1696.87,434.183 1696.87,458.695 1700.78,458.695 1700.78,445.61 1704.68,445.61 1704.68,430.266 1708.59,430.266 1708.59,412.866 1712.49,412.866 1712.49,393.65 1716.4,393.65 1716.4,372.887 1720.3,372.887 1720.3,350.871 1724.2,350.871 1724.2,327.914 1728.11,327.914 1728.11,304.337 1732.01,304.337 1732.01,280.468 1735.92,280.468 1735.92,256.63 1739.82,256.63 1739.82,233.139 1743.73,233.139 1743.73,210.296 1747.63,210.296 1747.63,188.381 1751.54,188.381 1751.54,167.651 1755.44,167.651 1755.44,148.331 1759.35,148.331 1759.35,165.093 1763.25,165.093 1763.25,182.601 1767.16,182.601 1767.16,200.681 1771.06,200.681 1771.06,219.15 1774.97,219.15 1774.97,237.823 1778.87,237.823 1778.87,256.512 1782.78,256.512 1782.78,275.034 1786.68,275.034 1786.68,293.214 1790.59,293.214 1790.59,310.884 1794.49,310.884 1794.49,327.892 1798.4,327.892 1798.4,309.621 1802.3,309.621 1802.3,291.446 1806.2,291.446 1806.2,273.562 1810.11,273.562 1810.11,256.154 1814.01,256.154 1814.01,239.391 1817.92,239.391 1817.92,257.909 1821.82,257.909 1821.82,276.348 1825.73,276.348 1825.73,294.53 1829.63,294.53 1829.63,312.285 1833.54,312.285 1833.54,329.454 1837.44,329.454 1837.44,311.416 1841.35,311.416 1841.35,293.537 1845.25,293.537 1845.25,276.002 1849.16,276.002 1849.16,258.988 1853.06,258.988 1853.06,242.654 1856.97,242.654 1856.97,227.145 1860.87,227.145 1860.87,212.586 1864.78,212.586 1864.78,199.083 1868.68,199.083 1868.68,186.717 1872.59,186.717 1872.59,175.548 1876.49,175.548 1876.49,200.09 1880.4,200.09 1880.4,224.859 1884.3,224.859 1884.3,249.55 1888.21,249.55 1888.21,273.866 1892.11,273.866 1892.11,297.525 1896.01,297.525 1896.01,320.263 1899.92,320.263 1899.92,341.842 1903.82,341.842 1903.82,362.051 1907.73,362.051 1907.73,380.709 1911.63,380.709 1911.63,397.672 1915.54,397.672 1915.54,412.829 1919.44,412.829 1919.44,426.109 1923.35,426.109 1923.35,437.476 1927.25,437.476 1927.25,446.932 1931.16,446.932 1931.16,454.514 1935.06,454.514 1935.06,425.814 1938.97,425.814 1938.97,396.432 1942.87,396.432 1942.87,366.793 1946.78,366.793 1946.78,337.316 1950.68,337.316 1950.68,308.408 1954.59,308.408 1954.59,280.453 1958.49,280.453 1958.49,253.808 1962.4,253.808 1962.4,228.793 1966.3,228.793 1966.3,205.69 1970.21,205.69 1970.21,184.737 1974.11,184.737 1974.11,166.122 1978.01,166.122 1978.01,149.986 1981.92,149.986 1981.92,136.417 1985.82,136.417 1985.82,125.45 1989.73,125.45 1989.73,117.072 1993.63,117.072 1993.63,111.22 1997.54,111.22 1997.54,107.785 2001.44,107.785 2001.44,106.614 2005.35,106.614 2005.35,107.516 2009.25,107.516 2009.25,110.267 2013.16,110.267 2013.16,114.614 2017.06,114.614 2017.06,120.282 2020.97,120.282 2020.97,126.979 2024.87,126.979 2024.87,134.404 2028.78,134.404 2028.78,142.25 2032.68,142.25 2032.68,150.214 2036.59,150.214 2036.59,157.999 2040.49,157.999 2040.49,165.324 2044.4,165.324 2044.4,171.926 2048.3,171.926 2048.3,177.564 2052.21,177.564 2052.21,216.504 2056.11,216.504 2056.11,253.071 2060.02,253.071 2060.02,286.821 2063.92,286.821 2063.92,317.379 2067.82,317.379 2067.82,344.441 2071.73,344.441 2071.73,367.778 2075.63,367.778 2075.63,387.241 2079.54,387.241 2079.54,402.757 2083.44,402.757 2083.44,414.334 2087.35,414.334 2087.35,422.052 2091.25,422.052 2091.25,426.065 2095.16,426.065 2095.16,426.593 2099.06,426.593 2099.06,423.914 2102.97,423.914 2102.97,418.363 2106.87,418.363 2106.87,410.316 2110.78,410.316 2110.78,365.709 2114.68,365.709 2114.68,320.475 2118.59,320.475 2118.59,275.368 2122.49,275.368 2122.49,231.116 2126.4,231.116 2126.4,188.41 2130.3,188.41 2130.3,182.372 2134.21,182.372 2134.21,178.09 2138.11,178.09 2138.11,175.78 2142.02,175.78 2142.02,175.615 2145.92,175.615 2145.92,177.715 2149.82,177.715 2149.82,147.675 2153.73,147.675 2153.73,121.01 2157.63,121.01 2157.63,97.9868 2161.54,97.9868 2161.54,78.7952 2165.44,78.7952 2165.44,63.5442 2169.35,63.5442 2169.35,86.7432 2173.25,86.7432 2173.25,112.85 2177.16,112.85 2177.16,141.45 2181.06,141.45 2181.06,172.089 2184.97,172.089 2184.97,204.285 2188.87,204.285 2188.87,237.537 2192.78,237.537 2192.78,271.337 2196.68,271.337 2196.68,305.18 2200.59,305.18 2200.59,338.572 2204.49,338.572 2204.49,371.041 2208.4,371.041 2208.4,402.147 2212.3,402.147 2212.3,431.485 2216.21,431.485 2216.21,458.699 2220.11,458.699 2220.11,483.481 2224.02,483.481 2224.02,505.578 2227.92,505.578 2227.92,490.318 2231.83,490.318 2231.83,473.063 2235.73,473.063 2235.73,454.035 2239.63,454.035 2239.63,433.488 2243.54,433.488 2243.54,411.697 2247.44,411.697 2247.44,388.957 2251.35,388.957 2251.35,365.575 2255.25,365.575 2255.25,341.862 2259.16,341.862 2259.16,318.128 2263.06,318.128 2263.06,294.678 2266.97,294.678 2266.97,306.281 2270.87,306.281 2270.87,317.713 2274.78,317.713 2274.78,328.932 2278.68,328.932 2278.68,339.895 2282.59,339.895 2282.59,350.567 2286.49,350.567 2286.49,360.917 2290.4,360.917 2290.4,370.919 2294.3,370.919 2294.3,380.554 "/>
<path clip-path="url(#clip950)" d="M287.366 1423.18 L2352.76 1423.18 L2352.76 847.244 L287.366 847.244  Z" fill="#ffffff" fill-rule="evenodd" fill-opacity="1"/>
<defs>
  <clipPath id="clip953">
    <rect x="287" y="847" width="2066" height="577"/>
  </clipPath>
</defs>
<polyline clip-path="url(#clip953)" style="stroke:#000000; stroke-linecap:round; stroke-linejoin:round; stroke-width:2; stroke-opacity:0.1; fill:none" points="345.82,1423.18 345.82,847.244 "/>
<polyline clip-path="url(#clip953)" style="stroke:#000000; stroke-linecap:round; stroke-linejoin:round; stroke-width:2; stroke-opacity:0.1; fill:none" points="736.298,1423.18 736.298,847.244 "/>
<polyline clip-path="url(#clip953)" style="stroke:#000000; stroke-linecap:round; stroke-linejoin:round; stroke-width:2; stroke-opacity:0.1; fill:none" points="1126.77,1423.18 1126.77,847.244 "/>
<polyline clip-path="url(#clip953)" style="stroke:#000000; stroke-linecap:round; stroke-linejoin:round; stroke-width:2; stroke-opacity:0.1; fill:none" points="1517.25,1423.18 1517.25,847.244 "/>
<polyline clip-path="url(#clip953)" style="stroke:#000000; stroke-linecap:round; stroke-linejoin:round; stroke-width:2; stroke-opacity:0.1; fill:none" points="1907.73,1423.18 1907.73,847.244 "/>
<polyline clip-path="url(#clip953)" style="stroke:#000000; stroke-linecap:round; stroke-linejoin:round; stroke-width:2; stroke-opacity:0.1; fill:none" points="2298.21,1423.18 2298.21,847.244 "/>
<polyline clip-path="url(#clip953)" style="stroke:#000000; stroke-linecap:round; stroke-linejoin:round; stroke-width:2; stroke-opacity:0.1; fill:none" points="287.366,1406.88 2352.76,1406.88 "/>
<polyline clip-path="url(#clip953)" style="stroke:#000000; stroke-linecap:round; stroke-linejoin:round; stroke-width:2; stroke-opacity:0.1; fill:none" points="287.366,1271.05 2352.76,1271.05 "/>
<polyline clip-path="url(#clip953)" style="stroke:#000000; stroke-linecap:round; stroke-linejoin:round; stroke-width:2; stroke-opacity:0.1; fill:none" points="287.366,1135.21 2352.76,1135.21 "/>
<polyline clip-path="url(#clip953)" style="stroke:#000000; stroke-linecap:round; stroke-linejoin:round; stroke-width:2; stroke-opacity:0.1; fill:none" points="287.366,999.378 2352.76,999.378 "/>
<polyline clip-path="url(#clip953)" style="stroke:#000000; stroke-linecap:round; stroke-linejoin:round; stroke-width:2; stroke-opacity:0.1; fill:none" points="287.366,863.544 2352.76,863.544 "/>
<polyline clip-path="url(#clip950)" style="stroke:#000000; stroke-linecap:round; stroke-linejoin:round; stroke-width:4; stroke-opacity:1; fill:none" points="287.366,1423.18 2352.76,1423.18 "/>
<polyline clip-path="url(#clip950)" style="stroke:#000000; stroke-linecap:round; stroke-linejoin:round; stroke-width:4; stroke-opacity:1; fill:none" points="345.82,1423.18 345.82,1404.28 "/>
<polyline clip-path="url(#clip950)" style="stroke:#000000; stroke-linecap:round; stroke-linejoin:round; stroke-width:4; stroke-opacity:1; fill:none" points="736.298,1423.18 736.298,1404.28 "/>
<polyline clip-path="url(#clip950)" style="stroke:#000000; stroke-linecap:round; stroke-linejoin:round; stroke-width:4; stroke-opacity:1; fill:none" points="1126.77,1423.18 1126.77,1404.28 "/>
<polyline clip-path="url(#clip950)" style="stroke:#000000; stroke-linecap:round; stroke-linejoin:round; stroke-width:4; stroke-opacity:1; fill:none" points="1517.25,1423.18 1517.25,1404.28 "/>
<polyline clip-path="url(#clip950)" style="stroke:#000000; stroke-linecap:round; stroke-linejoin:round; stroke-width:4; stroke-opacity:1; fill:none" points="1907.73,1423.18 1907.73,1404.28 "/>
<polyline clip-path="url(#clip950)" style="stroke:#000000; stroke-linecap:round; stroke-linejoin:round; stroke-width:4; stroke-opacity:1; fill:none" points="2298.21,1423.18 2298.21,1404.28 "/>
<path clip-path="url(#clip950)" d="M345.82 1454.1 Q342.209 1454.1 340.381 1457.66 Q338.575 1461.2 338.575 1468.33 Q338.575 1475.44 340.381 1479.01 Q342.209 1482.55 345.82 1482.55 Q349.455 1482.55 351.26 1479.01 Q353.089 1475.44 353.089 1468.33 Q353.089 1461.2 351.26 1457.66 Q349.455 1454.1 345.82 1454.1 M345.82 1450.39 Q351.63 1450.39 354.686 1455 Q357.765 1459.58 357.765 1468.33 Q357.765 1477.06 354.686 1481.67 Q351.63 1486.25 345.82 1486.25 Q340.01 1486.25 336.931 1481.67 Q333.876 1477.06 333.876 1468.33 Q333.876 1459.58 336.931 1455 Q340.01 1450.39 345.82 1450.39 Z" fill="#000000" fill-rule="nonzero" fill-opacity="1" /><path clip-path="url(#clip950)" d="M726.68 1481.64 L734.318 1481.64 L734.318 1455.28 L726.008 1456.95 L726.008 1452.69 L734.272 1451.02 L738.948 1451.02 L738.948 1481.64 L746.587 1481.64 L746.587 1485.58 L726.68 1485.58 L726.68 1481.64 Z" fill="#000000" fill-rule="nonzero" fill-opacity="1" /><path clip-path="url(#clip950)" d="M1121.43 1481.64 L1137.75 1481.64 L1137.75 1485.58 L1115.8 1485.58 L1115.8 1481.64 Q1118.46 1478.89 1123.05 1474.26 Q1127.65 1469.61 1128.83 1468.27 Q1131.08 1465.74 1131.96 1464.01 Q1132.86 1462.25 1132.86 1460.56 Q1132.86 1457.8 1130.92 1456.07 Q1129 1454.33 1125.9 1454.33 Q1123.7 1454.33 1121.24 1455.09 Q1118.81 1455.86 1116.03 1457.41 L1116.03 1452.69 Q1118.86 1451.55 1121.31 1450.97 Q1123.77 1450.39 1125.8 1450.39 Q1131.17 1450.39 1134.37 1453.08 Q1137.56 1455.77 1137.56 1460.26 Q1137.56 1462.39 1136.75 1464.31 Q1135.96 1466.2 1133.86 1468.8 Q1133.28 1469.47 1130.18 1472.69 Q1127.08 1475.88 1121.43 1481.64 Z" fill="#000000" fill-rule="nonzero" fill-opacity="1" /><path clip-path="url(#clip950)" d="M1521.5 1466.95 Q1524.86 1467.66 1526.73 1469.93 Q1528.63 1472.2 1528.63 1475.53 Q1528.63 1480.65 1525.11 1483.45 Q1521.59 1486.25 1515.11 1486.25 Q1512.93 1486.25 1510.62 1485.81 Q1508.33 1485.39 1505.87 1484.54 L1505.87 1480.02 Q1507.82 1481.16 1510.13 1481.74 Q1512.45 1482.32 1514.97 1482.32 Q1519.37 1482.32 1521.66 1480.58 Q1523.98 1478.84 1523.98 1475.53 Q1523.98 1472.48 1521.82 1470.77 Q1519.69 1469.03 1515.87 1469.03 L1511.85 1469.03 L1511.85 1465.19 L1516.06 1465.19 Q1519.51 1465.19 1521.34 1463.82 Q1523.17 1462.43 1523.17 1459.84 Q1523.17 1457.18 1521.27 1455.77 Q1519.39 1454.33 1515.87 1454.33 Q1513.95 1454.33 1511.75 1454.75 Q1509.56 1455.16 1506.92 1456.04 L1506.92 1451.88 Q1509.58 1451.14 1511.89 1450.77 Q1514.23 1450.39 1516.29 1450.39 Q1521.62 1450.39 1524.72 1452.83 Q1527.82 1455.23 1527.82 1459.35 Q1527.82 1462.22 1526.18 1464.21 Q1524.53 1466.18 1521.5 1466.95 Z" fill="#000000" fill-rule="nonzero" fill-opacity="1" /><path clip-path="url(#clip950)" d="M1910.74 1455.09 L1898.93 1473.54 L1910.74 1473.54 L1910.74 1455.09 M1909.51 1451.02 L1915.39 1451.02 L1915.39 1473.54 L1920.32 1473.54 L1920.32 1477.43 L1915.39 1477.43 L1915.39 1485.58 L1910.74 1485.58 L1910.74 1477.43 L1895.14 1477.43 L1895.14 1472.92 L1909.51 1451.02 Z" fill="#000000" fill-rule="nonzero" fill-opacity="1" /><path clip-path="url(#clip950)" d="M2288.48 1451.02 L2306.84 1451.02 L2306.84 1454.96 L2292.77 1454.96 L2292.77 1463.43 Q2293.78 1463.08 2294.8 1462.92 Q2295.82 1462.73 2296.84 1462.73 Q2302.63 1462.73 2306.01 1465.9 Q2309.39 1469.08 2309.39 1474.49 Q2309.39 1480.07 2305.91 1483.17 Q2302.44 1486.25 2296.12 1486.25 Q2293.95 1486.25 2291.68 1485.88 Q2289.43 1485.51 2287.03 1484.77 L2287.03 1480.07 Q2289.11 1481.2 2291.33 1481.76 Q2293.55 1482.32 2296.03 1482.32 Q2300.03 1482.32 2302.37 1480.21 Q2304.71 1478.1 2304.71 1474.49 Q2304.71 1470.88 2302.37 1468.77 Q2300.03 1466.67 2296.03 1466.67 Q2294.16 1466.67 2292.28 1467.08 Q2290.43 1467.5 2288.48 1468.38 L2288.48 1451.02 Z" fill="#000000" fill-rule="nonzero" fill-opacity="1" /><path clip-path="url(#clip950)" d="M1190.23 1520.52 L1230.43 1520.52 L1230.43 1525.93 L1213.56 1525.93 L1213.56 1568.04 L1207.1 1568.04 L1207.1 1525.93 L1190.23 1525.93 L1190.23 1520.52 Z" fill="#000000" fill-rule="nonzero" fill-opacity="1" /><path clip-path="url(#clip950)" d="M1234.38 1532.4 L1240.23 1532.4 L1240.23 1568.04 L1234.38 1568.04 L1234.38 1532.4 M1234.38 1518.52 L1240.23 1518.52 L1240.23 1525.93 L1234.38 1525.93 L1234.38 1518.52 Z" fill="#000000" fill-rule="nonzero" fill-opacity="1" /><path clip-path="url(#clip950)" d="M1280.24 1539.24 Q1282.44 1535.29 1285.5 1533.41 Q1288.55 1531.54 1292.69 1531.54 Q1298.26 1531.54 1301.28 1535.45 Q1304.31 1539.33 1304.31 1546.53 L1304.31 1568.04 L1298.42 1568.04 L1298.42 1546.72 Q1298.42 1541.59 1296.6 1539.11 Q1294.79 1536.63 1291.07 1536.63 Q1286.51 1536.63 1283.87 1539.65 Q1281.23 1542.68 1281.23 1547.9 L1281.23 1568.04 L1275.34 1568.04 L1275.34 1546.72 Q1275.34 1541.56 1273.53 1539.11 Q1271.71 1536.63 1267.93 1536.63 Q1263.44 1536.63 1260.8 1539.68 Q1258.15 1542.71 1258.15 1547.9 L1258.15 1568.04 L1252.27 1568.04 L1252.27 1532.4 L1258.15 1532.4 L1258.15 1537.93 Q1260.16 1534.66 1262.96 1533.1 Q1265.76 1531.54 1269.61 1531.54 Q1273.5 1531.54 1276.2 1533.51 Q1278.94 1535.48 1280.24 1539.24 Z" fill="#000000" fill-rule="nonzero" fill-opacity="1" /><path clip-path="url(#clip950)" d="M1346.48 1548.76 L1346.48 1551.62 L1319.55 1551.62 Q1319.93 1557.67 1323.18 1560.85 Q1326.46 1564 1332.28 1564 Q1335.66 1564 1338.81 1563.17 Q1341.99 1562.35 1345.11 1560.69 L1345.11 1566.23 Q1341.96 1567.57 1338.65 1568.27 Q1335.34 1568.97 1331.93 1568.97 Q1323.4 1568.97 1318.41 1564 Q1313.44 1559.04 1313.44 1550.57 Q1313.44 1541.82 1318.15 1536.69 Q1322.89 1531.54 1330.91 1531.54 Q1338.11 1531.54 1342.28 1536.18 Q1346.48 1540.8 1346.48 1548.76 M1340.62 1547.04 Q1340.56 1542.23 1337.92 1539.37 Q1335.31 1536.5 1330.98 1536.5 Q1326.08 1536.5 1323.12 1539.27 Q1320.19 1542.04 1319.74 1547.07 L1340.62 1547.04 Z" fill="#000000" fill-rule="nonzero" fill-opacity="1" /><path clip-path="url(#clip950)" d="M1390.88 1518.58 Q1386.61 1525.9 1384.55 1533.06 Q1382.48 1540.23 1382.48 1547.58 Q1382.48 1554.93 1384.55 1562.16 Q1386.65 1569.35 1390.88 1576.64 L1385.79 1576.64 Q1381.01 1569.16 1378.63 1561.93 Q1376.27 1554.71 1376.27 1547.58 Q1376.27 1540.48 1378.63 1533.29 Q1380.98 1526.09 1385.79 1518.58 L1390.88 1518.58 Z" fill="#000000" fill-rule="nonzero" fill-opacity="1" /><path clip-path="url(#clip950)" d="M1424.97 1533.45 L1424.97 1538.98 Q1422.49 1537.71 1419.81 1537.07 Q1417.14 1536.44 1414.27 1536.44 Q1409.91 1536.44 1407.72 1537.77 Q1405.55 1539.11 1405.55 1541.79 Q1405.55 1543.82 1407.11 1545 Q1408.67 1546.15 1413.38 1547.2 L1415.39 1547.64 Q1421.63 1548.98 1424.24 1551.43 Q1426.88 1553.85 1426.88 1558.21 Q1426.88 1563.17 1422.93 1566.07 Q1419.02 1568.97 1412.14 1568.97 Q1409.28 1568.97 1406.16 1568.39 Q1403.07 1567.85 1399.63 1566.74 L1399.63 1560.69 Q1402.88 1562.38 1406.03 1563.24 Q1409.18 1564.07 1412.27 1564.07 Q1416.41 1564.07 1418.63 1562.66 Q1420.86 1561.23 1420.86 1558.65 Q1420.86 1556.27 1419.24 1554.99 Q1417.65 1553.72 1412.2 1552.54 L1410.17 1552.07 Q1404.72 1550.92 1402.31 1548.56 Q1399.89 1546.18 1399.89 1542.04 Q1399.89 1537.01 1403.45 1534.27 Q1407.02 1531.54 1413.57 1531.54 Q1416.82 1531.54 1419.68 1532.01 Q1422.55 1532.49 1424.97 1533.45 Z" fill="#000000" fill-rule="nonzero" fill-opacity="1" /><path clip-path="url(#clip950)" d="M1435.28 1518.58 L1440.37 1518.58 Q1445.15 1526.09 1447.5 1533.29 Q1449.89 1540.48 1449.89 1547.58 Q1449.89 1554.71 1447.5 1561.93 Q1445.15 1569.16 1440.37 1576.64 L1435.28 1576.64 Q1439.51 1569.35 1441.58 1562.16 Q1443.68 1554.93 1443.68 1547.58 Q1443.68 1540.23 1441.58 1533.06 Q1439.51 1525.9 1435.28 1518.58 Z" fill="#000000" fill-rule="nonzero" fill-opacity="1" /><polyline clip-path="url(#clip950)" style="stroke:#000000; stroke-linecap:round; stroke-linejoin:round; stroke-width:4; stroke-opacity:1; fill:none" points="287.366,1423.18 287.366,847.244 "/>
<polyline clip-path="url(#clip950)" style="stroke:#000000; stroke-linecap:round; stroke-linejoin:round; stroke-width:4; stroke-opacity:1; fill:none" points="287.366,1406.88 306.264,1406.88 "/>
<polyline clip-path="url(#clip950)" style="stroke:#000000; stroke-linecap:round; stroke-linejoin:round; stroke-width:4; stroke-opacity:1; fill:none" points="287.366,1271.05 306.264,1271.05 "/>
<polyline clip-path="url(#clip950)" style="stroke:#000000; stroke-linecap:round; stroke-linejoin:round; stroke-width:4; stroke-opacity:1; fill:none" points="287.366,1135.21 306.264,1135.21 "/>
<polyline clip-path="url(#clip950)" style="stroke:#000000; stroke-linecap:round; stroke-linejoin:round; stroke-width:4; stroke-opacity:1; fill:none" points="287.366,999.378 306.264,999.378 "/>
<polyline clip-path="url(#clip950)" style="stroke:#000000; stroke-linecap:round; stroke-linejoin:round; stroke-width:4; stroke-opacity:1; fill:none" points="287.366,863.544 306.264,863.544 "/>
<path clip-path="url(#clip950)" d="M144.422 1407.33 L174.098 1407.33 L174.098 1411.27 L144.422 1411.27 L144.422 1407.33 Z" fill="#000000" fill-rule="nonzero" fill-opacity="1" /><path clip-path="url(#clip950)" d="M185.001 1420.22 L192.639 1420.22 L192.639 1393.86 L184.329 1395.53 L184.329 1391.27 L192.593 1389.6 L197.269 1389.6 L197.269 1420.22 L204.908 1420.22 L204.908 1424.16 L185.001 1424.16 L185.001 1420.22 Z" fill="#000000" fill-rule="nonzero" fill-opacity="1" /><path clip-path="url(#clip950)" d="M214.352 1418.28 L219.236 1418.28 L219.236 1424.16 L214.352 1424.16 L214.352 1418.28 Z" fill="#000000" fill-rule="nonzero" fill-opacity="1" /><path clip-path="url(#clip950)" d="M239.422 1392.68 Q235.81 1392.68 233.982 1396.24 Q232.176 1399.78 232.176 1406.91 Q232.176 1414.02 233.982 1417.59 Q235.81 1421.13 239.422 1421.13 Q243.056 1421.13 244.861 1417.59 Q246.69 1414.02 246.69 1406.91 Q246.69 1399.78 244.861 1396.24 Q243.056 1392.68 239.422 1392.68 M239.422 1388.97 Q245.232 1388.97 248.287 1393.58 Q251.366 1398.16 251.366 1406.91 Q251.366 1415.64 248.287 1420.25 Q245.232 1424.83 239.422 1424.83 Q233.611 1424.83 230.533 1420.25 Q227.477 1415.64 227.477 1406.91 Q227.477 1398.16 230.533 1393.58 Q233.611 1388.97 239.422 1388.97 Z" fill="#000000" fill-rule="nonzero" fill-opacity="1" /><path clip-path="url(#clip950)" d="M145.417 1271.5 L175.093 1271.5 L175.093 1275.43 L145.417 1275.43 L145.417 1271.5 Z" fill="#000000" fill-rule="nonzero" fill-opacity="1" /><path clip-path="url(#clip950)" d="M195.186 1256.84 Q191.575 1256.84 189.746 1260.41 Q187.94 1263.95 187.94 1271.08 Q187.94 1278.19 189.746 1281.75 Q191.575 1285.29 195.186 1285.29 Q198.82 1285.29 200.625 1281.75 Q202.454 1278.19 202.454 1271.08 Q202.454 1263.95 200.625 1260.41 Q198.82 1256.84 195.186 1256.84 M195.186 1253.14 Q200.996 1253.14 204.051 1257.75 Q207.13 1262.33 207.13 1271.08 Q207.13 1279.81 204.051 1284.41 Q200.996 1289 195.186 1289 Q189.375 1289 186.297 1284.41 Q183.241 1279.81 183.241 1271.08 Q183.241 1262.33 186.297 1257.75 Q189.375 1253.14 195.186 1253.14 Z" fill="#000000" fill-rule="nonzero" fill-opacity="1" /><path clip-path="url(#clip950)" d="M215.348 1282.45 L220.232 1282.45 L220.232 1288.33 L215.348 1288.33 L215.348 1282.45 Z" fill="#000000" fill-rule="nonzero" fill-opacity="1" /><path clip-path="url(#clip950)" d="M230.463 1253.77 L248.82 1253.77 L248.82 1257.7 L234.746 1257.7 L234.746 1266.17 Q235.764 1265.83 236.783 1265.66 Q237.801 1265.48 238.82 1265.48 Q244.607 1265.48 247.986 1268.65 Q251.366 1271.82 251.366 1277.24 Q251.366 1282.82 247.894 1285.92 Q244.421 1289 238.102 1289 Q235.926 1289 233.658 1288.63 Q231.412 1288.26 229.005 1287.52 L229.005 1282.82 Q231.088 1283.95 233.31 1284.51 Q235.533 1285.06 238.009 1285.06 Q242.014 1285.06 244.352 1282.96 Q246.69 1280.85 246.69 1277.24 Q246.69 1273.63 244.352 1271.52 Q242.014 1269.41 238.009 1269.41 Q236.135 1269.41 234.26 1269.83 Q232.408 1270.25 230.463 1271.13 L230.463 1253.77 Z" fill="#000000" fill-rule="nonzero" fill-opacity="1" /><path clip-path="url(#clip950)" d="M194.19 1121.01 Q190.579 1121.01 188.75 1124.58 Q186.945 1128.12 186.945 1135.25 Q186.945 1142.35 188.75 1145.92 Q190.579 1149.46 194.19 1149.46 Q197.825 1149.46 199.63 1145.92 Q201.459 1142.35 201.459 1135.25 Q201.459 1128.12 199.63 1124.58 Q197.825 1121.01 194.19 1121.01 M194.19 1117.31 Q200 1117.31 203.056 1121.91 Q206.135 1126.5 206.135 1135.25 Q206.135 1143.97 203.056 1148.58 Q200 1153.16 194.19 1153.16 Q188.38 1153.16 185.301 1148.58 Q182.246 1143.97 182.246 1135.25 Q182.246 1126.5 185.301 1121.91 Q188.38 1117.31 194.19 1117.31 Z" fill="#000000" fill-rule="nonzero" fill-opacity="1" /><path clip-path="url(#clip950)" d="M214.352 1146.61 L219.236 1146.61 L219.236 1152.49 L214.352 1152.49 L214.352 1146.61 Z" fill="#000000" fill-rule="nonzero" fill-opacity="1" /><path clip-path="url(#clip950)" d="M239.422 1121.01 Q235.81 1121.01 233.982 1124.58 Q232.176 1128.12 232.176 1135.25 Q232.176 1142.35 233.982 1145.92 Q235.81 1149.46 239.422 1149.46 Q243.056 1149.46 244.861 1145.92 Q246.69 1142.35 246.69 1135.25 Q246.69 1128.12 244.861 1124.58 Q243.056 1121.01 239.422 1121.01 M239.422 1117.31 Q245.232 1117.31 248.287 1121.91 Q251.366 1126.5 251.366 1135.25 Q251.366 1143.97 248.287 1148.58 Q245.232 1153.16 239.422 1153.16 Q233.611 1153.16 230.533 1148.58 Q227.477 1143.97 227.477 1135.25 Q227.477 1126.5 230.533 1121.91 Q233.611 1117.31 239.422 1117.31 Z" fill="#000000" fill-rule="nonzero" fill-opacity="1" /><path clip-path="url(#clip950)" d="M195.186 985.177 Q191.575 985.177 189.746 988.742 Q187.94 992.283 187.94 999.413 Q187.94 1006.52 189.746 1010.08 Q191.575 1013.63 195.186 1013.63 Q198.82 1013.63 200.625 1010.08 Q202.454 1006.52 202.454 999.413 Q202.454 992.283 200.625 988.742 Q198.82 985.177 195.186 985.177 M195.186 981.473 Q200.996 981.473 204.051 986.08 Q207.13 990.663 207.13 999.413 Q207.13 1008.14 204.051 1012.75 Q200.996 1017.33 195.186 1017.33 Q189.375 1017.33 186.297 1012.75 Q183.241 1008.14 183.241 999.413 Q183.241 990.663 186.297 986.08 Q189.375 981.473 195.186 981.473 Z" fill="#000000" fill-rule="nonzero" fill-opacity="1" /><path clip-path="url(#clip950)" d="M215.348 1010.78 L220.232 1010.78 L220.232 1016.66 L215.348 1016.66 L215.348 1010.78 Z" fill="#000000" fill-rule="nonzero" fill-opacity="1" /><path clip-path="url(#clip950)" d="M230.463 982.098 L248.82 982.098 L248.82 986.033 L234.746 986.033 L234.746 994.505 Q235.764 994.158 236.783 993.996 Q237.801 993.811 238.82 993.811 Q244.607 993.811 247.986 996.982 Q251.366 1000.15 251.366 1005.57 Q251.366 1011.15 247.894 1014.25 Q244.421 1017.33 238.102 1017.33 Q235.926 1017.33 233.658 1016.96 Q231.412 1016.59 229.005 1015.85 L229.005 1011.15 Q231.088 1012.28 233.31 1012.84 Q235.533 1013.39 238.009 1013.39 Q242.014 1013.39 244.352 1011.29 Q246.69 1009.18 246.69 1005.57 Q246.69 1001.96 244.352 999.853 Q242.014 997.746 238.009 997.746 Q236.135 997.746 234.26 998.163 Q232.408 998.579 230.463 999.459 L230.463 982.098 Z" fill="#000000" fill-rule="nonzero" fill-opacity="1" /><path clip-path="url(#clip950)" d="M185.001 876.889 L192.639 876.889 L192.639 850.523 L184.329 852.19 L184.329 847.931 L192.593 846.264 L197.269 846.264 L197.269 876.889 L204.908 876.889 L204.908 880.824 L185.001 880.824 L185.001 876.889 Z" fill="#000000" fill-rule="nonzero" fill-opacity="1" /><path clip-path="url(#clip950)" d="M214.352 874.945 L219.236 874.945 L219.236 880.824 L214.352 880.824 L214.352 874.945 Z" fill="#000000" fill-rule="nonzero" fill-opacity="1" /><path clip-path="url(#clip950)" d="M239.422 849.343 Q235.81 849.343 233.982 852.908 Q232.176 856.449 232.176 863.579 Q232.176 870.685 233.982 874.25 Q235.81 877.792 239.422 877.792 Q243.056 877.792 244.861 874.25 Q246.69 870.685 246.69 863.579 Q246.69 856.449 244.861 852.908 Q243.056 849.343 239.422 849.343 M239.422 845.639 Q245.232 845.639 248.287 850.246 Q251.366 854.829 251.366 863.579 Q251.366 872.306 248.287 876.912 Q245.232 881.495 239.422 881.495 Q233.611 881.495 230.533 876.912 Q227.477 872.306 227.477 863.579 Q227.477 854.829 230.533 850.246 Q233.611 845.639 239.422 845.639 Z" fill="#000000" fill-rule="nonzero" fill-opacity="1" /><path clip-path="url(#clip950)" d="M80.0978 1150.14 L58.5181 1150.14 L58.5181 1144.28 L79.875 1144.28 Q84.9358 1144.28 87.482 1142.31 Q89.9965 1140.34 89.9965 1136.39 Q89.9965 1131.65 86.9728 1128.91 Q83.9491 1126.14 78.7292 1126.14 L58.5181 1126.14 L58.5181 1120.28 L94.166 1120.28 L94.166 1126.14 L88.6915 1126.14 Q91.938 1128.27 93.5295 1131.11 Q95.0891 1133.91 95.0891 1137.63 Q95.0891 1143.77 91.2696 1146.96 Q87.4502 1150.14 80.0978 1150.14 M57.6587 1135.4 L57.6587 1135.4 Z" fill="#000000" fill-rule="nonzero" fill-opacity="1" /><polyline clip-path="url(#clip953)" style="stroke:#009af9; stroke-linecap:round; stroke-linejoin:round; stroke-width:4; stroke-opacity:1; fill:none" points="345.82,863.544 349.725,863.544 353.63,863.544 357.535,863.544 361.439,863.544 365.344,863.544 369.249,863.544 373.154,863.544 377.059,863.544 380.963,863.544 384.868,863.544 388.773,863.544 392.678,863.544 396.582,863.544 400.487,863.544 404.392,863.544 404.392,1406.88 408.297,1406.88 412.201,1406.88 416.106,1406.88 420.011,1406.88 423.916,1406.88 423.916,863.544 427.821,863.544 431.725,863.544 435.63,863.544 439.535,863.544 443.44,863.544 443.44,1406.88 447.344,1406.88 451.249,1406.88 455.154,1406.88 459.059,1406.88 462.963,1406.88 466.868,1406.88 470.773,1406.88 474.678,1406.88 478.583,1406.88 482.487,1406.88 486.392,1406.88 490.297,1406.88 494.202,1406.88 498.106,1406.88 502.011,1406.88 502.011,863.544 505.916,863.544 509.821,863.544 513.726,863.544 517.63,863.544 521.535,863.544 525.44,863.544 529.345,863.544 533.249,863.544 537.154,863.544 541.059,863.544 544.964,863.544 548.868,863.544 552.773,863.544 556.678,863.544 560.583,863.544 564.488,863.544 568.392,863.544 572.297,863.544 576.202,863.544 580.107,863.544 584.011,863.544 587.916,863.544 591.821,863.544 595.726,863.544 599.631,863.544 599.631,1406.88 603.535,1406.88 607.44,1406.88 611.345,1406.88 615.25,1406.88 619.154,1406.88 619.154,863.544 623.059,863.544 626.964,863.544 630.869,863.544 634.773,863.544 638.678,863.544 638.678,1406.88 642.583,1406.88 646.488,1406.88 650.393,1406.88 654.297,1406.88 658.202,1406.88 662.107,1406.88 666.012,1406.88 669.916,1406.88 673.821,1406.88 677.726,1406.88 681.631,1406.88 685.535,1406.88 689.44,1406.88 693.345,1406.88 697.25,1406.88 697.25,863.544 701.155,863.544 705.059,863.544 708.964,863.544 712.869,863.544 716.774,863.544 716.774,1406.88 720.678,1406.88 724.583,1406.88 728.488,1406.88 732.393,1406.88 736.298,1406.88 740.202,1406.88 744.107,1406.88 748.012,1406.88 751.917,1406.88 755.821,1406.88 759.726,1406.88 763.631,1406.88 767.536,1406.88 771.44,1406.88 775.345,1406.88 779.25,1406.88 783.155,1406.88 787.06,1406.88 790.964,1406.88 794.869,1406.88 794.869,863.544 798.774,863.544 802.679,863.544 806.583,863.544 810.488,863.544 814.393,863.544 814.393,1406.88 818.298,1406.88 822.202,1406.88 826.107,1406.88 830.012,1406.88 833.917,1406.88 833.917,863.544 837.822,863.544 841.726,863.544 845.631,863.544 849.536,863.544 853.441,863.544 857.345,863.544 861.25,863.544 865.155,863.544 869.06,863.544 872.965,863.544 872.965,1406.88 876.869,1406.88 880.774,1406.88 884.679,1406.88 888.584,1406.88 892.488,1406.88 896.393,1406.88 900.298,1406.88 904.203,1406.88 908.107,1406.88 912.012,1406.88 912.012,863.544 915.917,863.544 919.822,863.544 923.727,863.544 927.631,863.544 931.536,863.544 931.536,1406.88 935.441,1406.88 939.346,1406.88 943.25,1406.88 947.155,1406.88 951.06,1406.88 954.965,1406.88 958.87,1406.88 962.774,1406.88 966.679,1406.88 970.584,1406.88 974.489,1406.88 978.393,1406.88 982.298,1406.88 986.203,1406.88 990.108,1406.88 990.108,863.544 994.012,863.544 997.917,863.544 1001.82,863.544 1005.73,863.544 1009.63,863.544 1009.63,1406.88 1013.54,1406.88 1017.44,1406.88 1021.35,1406.88 1025.25,1406.88 1029.16,1406.88 1033.06,1406.88 1036.96,1406.88 1040.87,1406.88 1044.77,1406.88 1048.68,1406.88 1048.68,863.544 1052.58,863.544 1056.49,863.544 1060.39,863.544 1064.3,863.544 1068.2,863.544 1072.11,863.544 1076.01,863.544 1079.92,863.544 1083.82,863.544 1087.73,863.544 1087.73,1406.88 1091.63,1406.88 1095.54,1406.88 1099.44,1406.88 1103.35,1406.88 1107.25,1406.88 1111.16,1406.88 1115.06,1406.88 1118.97,1406.88 1122.87,1406.88 1126.77,1406.88 1126.77,863.544 1130.68,863.544 1134.58,863.544 1138.49,863.544 1142.39,863.544 1146.3,863.544 1150.2,863.544 1154.11,863.544 1158.01,863.544 1161.92,863.544 1165.82,863.544 1169.73,863.544 1173.63,863.544 1177.54,863.544 1181.44,863.544 1185.35,863.544 1185.35,1406.88 1189.25,1406.88 1193.16,1406.88 1197.06,1406.88 1200.97,1406.88 1204.87,1406.88 1208.77,1406.88 1212.68,1406.88 1216.58,1406.88 1220.49,1406.88 1224.39,1406.88 1224.39,863.544 1228.3,863.544 1232.2,863.544 1236.11,863.544 1240.01,863.544 1243.92,863.544 1243.92,1406.88 1247.82,1406.88 1251.73,1406.88 1255.63,1406.88 1259.54,1406.88 1263.44,1406.88 1263.44,863.544 1267.35,863.544 1271.25,863.544 1275.16,863.544 1279.06,863.544 1282.97,863.544 1286.87,863.544 1290.78,863.544 1294.68,863.544 1298.58,863.544 1302.49,863.544 1302.49,1406.88 1306.39,1406.88 1310.3,1406.88 1314.2,1406.88 1318.11,1406.88 1322.01,1406.88 1325.92,1406.88 1329.82,1406.88 1333.73,1406.88 1337.63,1406.88 1341.54,1406.88 1345.44,1406.88 1349.35,1406.88 1353.25,1406.88 1357.16,1406.88 1361.06,1406.88 1361.06,863.544 1364.97,863.544 1368.87,863.544 1372.78,863.544 1376.68,863.544 1380.58,863.544 1380.58,1406.88 1384.49,1406.88 1388.39,1406.88 1392.3,1406.88 1396.2,1406.88 1400.11,1406.88 1404.01,1406.88 1407.92,1406.88 1411.82,1406.88 1415.73,1406.88 1419.63,1406.88 1419.63,863.544 1423.54,863.544 1427.44,863.544 1431.35,863.544 1435.25,863.544 1439.16,863.544 1439.16,1406.88 1443.06,1406.88 1446.97,1406.88 1450.87,1406.88 1454.78,1406.88 1458.68,1406.88 1462.59,1406.88 1466.49,1406.88 1470.39,1406.88 1474.3,1406.88 1478.2,1406.88 1478.2,863.544 1482.11,863.544 1486.01,863.544 1489.92,863.544 1493.82,863.544 1497.73,863.544 1497.73,1406.88 1501.63,1406.88 1505.54,1406.88 1509.44,1406.88 1513.35,1406.88 1517.25,1406.88 1521.16,1406.88 1525.06,1406.88 1528.97,1406.88 1532.87,1406.88 1536.78,1406.88 1536.78,863.544 1540.68,863.544 1544.59,863.544 1548.49,863.544 1552.39,863.544 1556.3,863.544 1556.3,1406.88 1560.2,1406.88 1564.11,1406.88 1568.01,1406.88 1571.92,1406.88 1575.82,1406.88 1575.82,863.544 1579.73,863.544 1583.63,863.544 1587.54,863.544 1591.44,863.544 1595.35,863.544 1599.25,863.544 1603.16,863.544 1607.06,863.544 1610.97,863.544 1614.87,863.544 1618.78,863.544 1622.68,863.544 1626.59,863.544 1630.49,863.544 1634.4,863.544 1638.3,863.544 1642.2,863.544 1646.11,863.544 1650.01,863.544 1653.92,863.544 1657.82,863.544 1661.73,863.544 1665.63,863.544 1669.54,863.544 1673.44,863.544 1673.44,1406.88 1677.35,1406.88 1681.25,1406.88 1685.16,1406.88 1689.06,1406.88 1692.97,1406.88 1692.97,863.544 1696.87,863.544 1700.78,863.544 1704.68,863.544 1708.59,863.544 1712.49,863.544 1716.4,863.544 1720.3,863.544 1724.2,863.544 1728.11,863.544 1732.01,863.544 1735.92,863.544 1739.82,863.544 1743.73,863.544 1747.63,863.544 1751.54,863.544 1751.54,1406.88 1755.44,1406.88 1759.35,1406.88 1763.25,1406.88 1767.16,1406.88 1771.06,1406.88 1774.97,1406.88 1778.87,1406.88 1782.78,1406.88 1786.68,1406.88 1790.59,1406.88 1790.59,863.544 1794.49,863.544 1798.4,863.544 1802.3,863.544 1806.2,863.544 1810.11,863.544 1810.11,1406.88 1814.01,1406.88 1817.92,1406.88 1821.82,1406.88 1825.73,1406.88 1829.63,1406.88 1829.63,863.544 1833.54,863.544 1837.44,863.544 1841.35,863.544 1845.25,863.544 1849.16,863.544 1853.06,863.544 1856.97,863.544 1860.87,863.544 1864.78,863.544 1868.68,863.544 1868.68,1406.88 1872.59,1406.88 1876.49,1406.88 1880.4,1406.88 1884.3,1406.88 1888.21,1406.88 1892.11,1406.88 1896.01,1406.88 1899.92,1406.88 1903.82,1406.88 1907.73,1406.88 1911.63,1406.88 1915.54,1406.88 1919.44,1406.88 1923.35,1406.88 1927.25,1406.88 1927.25,863.544 1931.16,863.544 1935.06,863.544 1938.97,863.544 1942.87,863.544 1946.78,863.544 1950.68,863.544 1954.59,863.544 1958.49,863.544 1962.4,863.544 1966.3,863.544 1970.21,863.544 1974.11,863.544 1978.01,863.544 1981.92,863.544 1985.82,863.544 1989.73,863.544 1993.63,863.544 1997.54,863.544 2001.44,863.544 2005.35,863.544 2009.25,863.544 2013.16,863.544 2017.06,863.544 2020.97,863.544 2024.87,863.544 2028.78,863.544 2032.68,863.544 2036.59,863.544 2040.49,863.544 2044.4,863.544 2044.4,1406.88 2048.3,1406.88 2052.21,1406.88 2056.11,1406.88 2060.02,1406.88 2063.92,1406.88 2067.82,1406.88 2071.73,1406.88 2075.63,1406.88 2079.54,1406.88 2083.44,1406.88 2087.35,1406.88 2091.25,1406.88 2095.16,1406.88 2099.06,1406.88 2102.97,1406.88 2102.97,863.544 2106.87,863.544 2110.78,863.544 2114.68,863.544 2118.59,863.544 2122.49,863.544 2122.49,1406.88 2126.4,1406.88 2130.3,1406.88 2134.21,1406.88 2138.11,1406.88 2142.02,1406.88 2142.02,863.544 2145.92,863.544 2149.82,863.544 2153.73,863.544 2157.63,863.544 2161.54,863.544 2161.54,1406.88 2165.44,1406.88 2169.35,1406.88 2173.25,1406.88 2177.16,1406.88 2181.06,1406.88 2184.97,1406.88 2188.87,1406.88 2192.78,1406.88 2196.68,1406.88 2200.59,1406.88 2204.49,1406.88 2208.4,1406.88 2212.3,1406.88 2216.21,1406.88 2220.11,1406.88 2220.11,863.544 2224.02,863.544 2227.92,863.544 2231.83,863.544 2235.73,863.544 2239.63,863.544 2243.54,863.544 2247.44,863.544 2251.35,863.544 2255.25,863.544 2259.16,863.544 2259.16,1406.88 2263.06,1406.88 2266.97,1406.88 2270.87,1406.88 2274.78,1406.88 2278.68,1406.88 2282.59,1406.88 2286.49,1406.88 2290.4,1406.88 2294.3,1406.88 "/>
</svg>
