<?xml version="1.0" encoding="utf-8"?>
<svg xmlns="http://www.w3.org/2000/svg" xmlns:xlink="http://www.w3.org/1999/xlink" width="600" height="400" viewBox="0 0 2400 1600">
<defs>
  <clipPath id="clip530">
    <rect x="0" y="0" width="2400" height="1600"/>
  </clipPath>
</defs>
<path clip-path="url(#clip530)" d="M0 1600 L2400 1600 L2400 0 L0 0  Z" fill="#ffffff" fill-rule="evenodd" fill-opacity="1"/>
<defs>
  <clipPath id="clip531">
    <rect x="480" y="0" width="1681" height="1600"/>
  </clipPath>
</defs>
<path clip-path="url(#clip530)" d="M276.876 1423.18 L2352.76 1423.18 L2352.76 47.2441 L276.876 47.2441  Z" fill="#ffffff" fill-rule="evenodd" fill-opacity="1"/>
<defs>
  <clipPath id="clip532">
    <rect x="276" y="47" width="2077" height="1377"/>
  </clipPath>
</defs>
<polyline clip-path="url(#clip532)" style="stroke:#000000; stroke-linecap:round; stroke-linejoin:round; stroke-width:2; stroke-opacity:0.1; fill:none" points="1511.17,1423.18 1511.17,47.2441 "/>
<polyline clip-path="url(#clip532)" style="stroke:#000000; stroke-linecap:round; stroke-linejoin:round; stroke-width:2; stroke-opacity:0.1; fill:none" points="1734.01,1423.18 1734.01,47.2441 "/>
<polyline clip-path="url(#clip532)" style="stroke:#000000; stroke-linecap:round; stroke-linejoin:round; stroke-width:2; stroke-opacity:0.1; fill:none" points="1902.59,1423.18 1902.59,47.2441 "/>
<polyline clip-path="url(#clip532)" style="stroke:#000000; stroke-linecap:round; stroke-linejoin:round; stroke-width:2; stroke-opacity:0.1; fill:none" points="2071.16,1423.18 2071.16,47.2441 "/>
<polyline clip-path="url(#clip532)" style="stroke:#000000; stroke-linecap:round; stroke-linejoin:round; stroke-width:2; stroke-opacity:0.1; fill:none" points="2294,1423.18 2294,47.2441 "/>
<polyline clip-path="url(#clip532)" style="stroke:#000000; stroke-linecap:round; stroke-linejoin:round; stroke-width:2; stroke-opacity:0.1; fill:none" points="276.876,1399.46 2352.76,1399.46 "/>
<polyline clip-path="url(#clip532)" style="stroke:#000000; stroke-linecap:round; stroke-linejoin:round; stroke-width:2; stroke-opacity:0.1; fill:none" points="276.876,824.946 2352.76,824.946 "/>
<polyline clip-path="url(#clip532)" style="stroke:#000000; stroke-linecap:round; stroke-linejoin:round; stroke-width:2; stroke-opacity:0.1; fill:none" points="276.876,250.43 2352.76,250.43 "/>
<polyline clip-path="url(#clip530)" style="stroke:#000000; stroke-linecap:round; stroke-linejoin:round; stroke-width:4; stroke-opacity:1; fill:none" points="276.876,1423.18 2352.76,1423.18 "/>
<polyline clip-path="url(#clip530)" style="stroke:#000000; stroke-linecap:round; stroke-linejoin:round; stroke-width:4; stroke-opacity:1; fill:none" points="1511.17,1423.18 1511.17,1404.28 "/>
<polyline clip-path="url(#clip530)" style="stroke:#000000; stroke-linecap:round; stroke-linejoin:round; stroke-width:4; stroke-opacity:1; fill:none" points="1734.01,1423.18 1734.01,1404.28 "/>
<polyline clip-path="url(#clip530)" style="stroke:#000000; stroke-linecap:round; stroke-linejoin:round; stroke-width:4; stroke-opacity:1; fill:none" points="1902.59,1423.18 1902.59,1404.28 "/>
<polyline clip-path="url(#clip530)" style="stroke:#000000; stroke-linecap:round; stroke-linejoin:round; stroke-width:4; stroke-opacity:1; fill:none" points="2071.16,1423.18 2071.16,1404.28 "/>
<polyline clip-path="url(#clip530)" style="stroke:#000000; stroke-linecap:round; stroke-linejoin:round; stroke-width:4; stroke-opacity:1; fill:none" points="2294,1423.18 2294,1404.28 "/>
<path clip-path="url(#clip530)" d="M1505.82 1481.64 L1522.14 1481.64 L1522.14 1485.58 L1500.2 1485.58 L1500.2 1481.64 Q1502.86 1478.89 1507.44 1474.26 Q1512.05 1469.61 1513.23 1468.27 Q1515.47 1465.74 1516.35 1464.01 Q1517.26 1462.25 1517.26 1460.56 Q1517.26 1457.8 1515.31 1456.07 Q1513.39 1454.33 1510.29 1454.33 Q1508.09 1454.33 1505.64 1455.09 Q1503.21 1455.86 1500.43 1457.41 L1500.43 1452.69 Q1503.25 1451.55 1505.71 1450.97 Q1508.16 1450.39 1510.2 1450.39 Q1515.57 1450.39 1518.76 1453.08 Q1521.96 1455.77 1521.96 1460.26 Q1521.96 1462.39 1521.15 1464.31 Q1520.36 1466.2 1518.25 1468.8 Q1517.67 1469.47 1514.57 1472.69 Q1511.47 1475.88 1505.82 1481.64 Z" fill="#000000" fill-rule="nonzero" fill-opacity="1" /><path clip-path="url(#clip530)" d="M1724.29 1451.02 L1742.65 1451.02 L1742.65 1454.96 L1728.57 1454.96 L1728.57 1463.43 Q1729.59 1463.08 1730.61 1462.92 Q1731.63 1462.73 1732.65 1462.73 Q1738.43 1462.73 1741.81 1465.9 Q1745.19 1469.08 1745.19 1474.49 Q1745.19 1480.07 1741.72 1483.17 Q1738.25 1486.25 1731.93 1486.25 Q1729.75 1486.25 1727.48 1485.88 Q1725.24 1485.51 1722.83 1484.77 L1722.83 1480.07 Q1724.91 1481.2 1727.14 1481.76 Q1729.36 1482.32 1731.84 1482.32 Q1735.84 1482.32 1738.18 1480.21 Q1740.52 1478.1 1740.52 1474.49 Q1740.52 1470.88 1738.18 1468.77 Q1735.84 1466.67 1731.84 1466.67 Q1729.96 1466.67 1728.09 1467.08 Q1726.23 1467.5 1724.29 1468.38 L1724.29 1451.02 Z" fill="#000000" fill-rule="nonzero" fill-opacity="1" /><path clip-path="url(#clip530)" d="M1877.27 1481.64 L1884.91 1481.64 L1884.91 1455.28 L1876.6 1456.95 L1876.6 1452.69 L1884.87 1451.02 L1889.54 1451.02 L1889.54 1481.64 L1897.18 1481.64 L1897.18 1485.58 L1877.27 1485.58 L1877.27 1481.64 Z" fill="#000000" fill-rule="nonzero" fill-opacity="1" /><path clip-path="url(#clip530)" d="M1916.63 1454.1 Q1913.01 1454.1 1911.19 1457.66 Q1909.38 1461.2 1909.38 1468.33 Q1909.38 1475.44 1911.19 1479.01 Q1913.01 1482.55 1916.63 1482.55 Q1920.26 1482.55 1922.07 1479.01 Q1923.89 1475.44 1923.89 1468.33 Q1923.89 1461.2 1922.07 1457.66 Q1920.26 1454.1 1916.63 1454.1 M1916.63 1450.39 Q1922.44 1450.39 1925.49 1455 Q1928.57 1459.58 1928.57 1468.33 Q1928.57 1477.06 1925.49 1481.67 Q1922.44 1486.25 1916.63 1486.25 Q1910.82 1486.25 1907.74 1481.67 Q1904.68 1477.06 1904.68 1468.33 Q1904.68 1459.58 1907.74 1455 Q1910.82 1450.39 1916.63 1450.39 Z" fill="#000000" fill-rule="nonzero" fill-opacity="1" /><path clip-path="url(#clip530)" d="M2049.93 1481.64 L2066.25 1481.64 L2066.25 1485.58 L2044.31 1485.58 L2044.31 1481.64 Q2046.97 1478.89 2051.55 1474.26 Q2056.16 1469.61 2057.34 1468.27 Q2059.59 1465.74 2060.47 1464.01 Q2061.37 1462.25 2061.37 1460.56 Q2061.37 1457.8 2059.43 1456.07 Q2057.5 1454.33 2054.4 1454.33 Q2052.2 1454.33 2049.75 1455.09 Q2047.32 1455.86 2044.54 1457.41 L2044.54 1452.69 Q2047.36 1451.55 2049.82 1450.97 Q2052.27 1450.39 2054.31 1450.39 Q2059.68 1450.39 2062.87 1453.08 Q2066.07 1455.77 2066.07 1460.26 Q2066.07 1462.39 2065.26 1464.31 Q2064.47 1466.2 2062.36 1468.8 Q2061.79 1469.47 2058.68 1472.69 Q2055.58 1475.88 2049.93 1481.64 Z" fill="#000000" fill-rule="nonzero" fill-opacity="1" /><path clip-path="url(#clip530)" d="M2086.07 1454.1 Q2082.46 1454.1 2080.63 1457.66 Q2078.82 1461.2 2078.82 1468.33 Q2078.82 1475.44 2080.63 1479.01 Q2082.46 1482.55 2086.07 1482.55 Q2089.7 1482.55 2091.51 1479.01 Q2093.34 1475.44 2093.34 1468.33 Q2093.34 1461.2 2091.51 1457.66 Q2089.7 1454.1 2086.07 1454.1 M2086.07 1450.39 Q2091.88 1450.39 2094.93 1455 Q2098.01 1459.58 2098.01 1468.33 Q2098.01 1477.06 2094.93 1481.67 Q2091.88 1486.25 2086.07 1486.25 Q2080.26 1486.25 2077.18 1481.67 Q2074.12 1477.06 2074.12 1468.33 Q2074.12 1459.58 2077.18 1455 Q2080.26 1450.39 2086.07 1450.39 Z" fill="#000000" fill-rule="nonzero" fill-opacity="1" /><path clip-path="url(#clip530)" d="M2268.7 1451.02 L2287.06 1451.02 L2287.06 1454.96 L2272.99 1454.96 L2272.99 1463.43 Q2274 1463.08 2275.02 1462.92 Q2276.04 1462.73 2277.06 1462.73 Q2282.85 1462.73 2286.23 1465.9 Q2289.61 1469.08 2289.61 1474.49 Q2289.61 1480.07 2286.13 1483.17 Q2282.66 1486.25 2276.34 1486.25 Q2274.17 1486.25 2271.9 1485.88 Q2269.65 1485.51 2267.25 1484.77 L2267.25 1480.07 Q2269.33 1481.2 2271.55 1481.76 Q2273.77 1482.32 2276.25 1482.32 Q2280.25 1482.32 2282.59 1480.21 Q2284.93 1478.1 2284.93 1474.49 Q2284.93 1470.88 2282.59 1468.77 Q2280.25 1466.67 2276.25 1466.67 Q2274.38 1466.67 2272.5 1467.08 Q2270.65 1467.5 2268.7 1468.38 L2268.7 1451.02 Z" fill="#000000" fill-rule="nonzero" fill-opacity="1" /><path clip-path="url(#clip530)" d="M2308.82 1454.1 Q2305.21 1454.1 2303.38 1457.66 Q2301.57 1461.2 2301.57 1468.33 Q2301.57 1475.44 2303.38 1479.01 Q2305.21 1482.55 2308.82 1482.55 Q2312.45 1482.55 2314.26 1479.01 Q2316.09 1475.44 2316.09 1468.33 Q2316.09 1461.2 2314.26 1457.66 Q2312.45 1454.1 2308.82 1454.1 M2308.82 1450.39 Q2314.63 1450.39 2317.69 1455 Q2320.76 1459.58 2320.76 1468.33 Q2320.76 1477.06 2317.69 1481.67 Q2314.63 1486.25 2308.82 1486.25 Q2303.01 1486.25 2299.93 1481.67 Q2296.87 1477.06 2296.87 1468.33 Q2296.87 1459.58 2299.93 1455 Q2303.01 1450.39 2308.82 1450.39 Z" fill="#000000" fill-rule="nonzero" fill-opacity="1" /><path clip-path="url(#clip530)" d="M1075.04 1520.52 L1102.34 1520.52 L1102.34 1525.93 L1081.46 1525.93 L1081.46 1539.94 L1100.31 1539.94 L1100.31 1545.35 L1081.46 1545.35 L1081.46 1568.04 L1075.04 1568.04 L1075.04 1520.52 Z" fill="#000000" fill-rule="nonzero" fill-opacity="1" /><path clip-path="url(#clip530)" d="M1128.19 1537.87 Q1127.2 1537.3 1126.02 1537.04 Q1124.88 1536.76 1123.48 1536.76 Q1118.51 1536.76 1115.84 1540 Q1113.2 1543.22 1113.2 1549.27 L1113.2 1568.04 L1107.31 1568.04 L1107.31 1532.4 L1113.2 1532.4 L1113.2 1537.93 Q1115.04 1534.69 1118 1533.13 Q1120.96 1531.54 1125.2 1531.54 Q1125.8 1531.54 1126.53 1531.63 Q1127.27 1531.7 1128.16 1531.85 L1128.19 1537.87 Z" fill="#000000" fill-rule="nonzero" fill-opacity="1" /><path clip-path="url(#clip530)" d="M1163.39 1548.76 L1163.39 1551.62 L1136.46 1551.62 Q1136.85 1557.67 1140.09 1560.85 Q1143.37 1564 1149.2 1564 Q1152.57 1564 1155.72 1563.17 Q1158.9 1562.35 1162.02 1560.69 L1162.02 1566.23 Q1158.87 1567.57 1155.56 1568.27 Q1152.25 1568.97 1148.85 1568.97 Q1140.32 1568.97 1135.32 1564 Q1130.35 1559.04 1130.35 1550.57 Q1130.35 1541.82 1135.06 1536.69 Q1139.81 1531.54 1147.83 1531.54 Q1155.02 1531.54 1159.19 1536.18 Q1163.39 1540.8 1163.39 1548.76 M1157.54 1547.04 Q1157.47 1542.23 1154.83 1539.37 Q1152.22 1536.5 1147.89 1536.5 Q1142.99 1536.5 1140.03 1539.27 Q1137.1 1542.04 1136.66 1547.07 L1157.54 1547.04 Z" fill="#000000" fill-rule="nonzero" fill-opacity="1" /><path clip-path="url(#clip530)" d="M1176.5 1550.25 Q1176.5 1556.71 1179.15 1560.4 Q1181.82 1564.07 1186.47 1564.07 Q1191.11 1564.07 1193.79 1560.4 Q1196.46 1556.71 1196.46 1550.25 Q1196.46 1543.79 1193.79 1540.13 Q1191.11 1536.44 1186.47 1536.44 Q1181.82 1536.44 1179.15 1540.13 Q1176.5 1543.79 1176.5 1550.25 M1196.46 1562.7 Q1194.62 1565.88 1191.78 1567.44 Q1188.98 1568.97 1185.03 1568.97 Q1178.57 1568.97 1174.5 1563.81 Q1170.46 1558.65 1170.46 1550.25 Q1170.46 1541.85 1174.5 1536.69 Q1178.57 1531.54 1185.03 1531.54 Q1188.98 1531.54 1191.78 1533.1 Q1194.62 1534.62 1196.46 1537.81 L1196.46 1532.4 L1202.32 1532.4 L1202.32 1581.6 L1196.46 1581.6 L1196.46 1562.7 Z" fill="#000000" fill-rule="nonzero" fill-opacity="1" /><path clip-path="url(#clip530)" d="M1213.78 1553.98 L1213.78 1532.4 L1219.63 1532.4 L1219.63 1553.75 Q1219.63 1558.81 1221.61 1561.36 Q1223.58 1563.87 1227.53 1563.87 Q1232.27 1563.87 1235.01 1560.85 Q1237.77 1557.83 1237.77 1552.61 L1237.77 1532.4 L1243.63 1532.4 L1243.63 1568.04 L1237.77 1568.04 L1237.77 1562.57 Q1235.64 1565.82 1232.81 1567.41 Q1230.01 1568.97 1226.28 1568.97 Q1220.14 1568.97 1216.96 1565.15 Q1213.78 1561.33 1213.78 1553.98 M1228.51 1531.54 L1228.51 1531.54 Z" fill="#000000" fill-rule="nonzero" fill-opacity="1" /><path clip-path="url(#clip530)" d="M1286.19 1548.76 L1286.19 1551.62 L1259.26 1551.62 Q1259.64 1557.67 1262.89 1560.85 Q1266.17 1564 1271.99 1564 Q1275.36 1564 1278.52 1563.17 Q1281.7 1562.35 1284.82 1560.69 L1284.82 1566.23 Q1281.67 1567.57 1278.36 1568.27 Q1275.05 1568.97 1271.64 1568.97 Q1263.11 1568.97 1258.11 1564 Q1253.15 1559.04 1253.15 1550.57 Q1253.15 1541.82 1257.86 1536.69 Q1262.6 1531.54 1270.62 1531.54 Q1277.82 1531.54 1281.98 1536.18 Q1286.19 1540.8 1286.19 1548.76 M1280.33 1547.04 Q1280.27 1542.23 1277.62 1539.37 Q1275.01 1536.5 1270.69 1536.5 Q1265.78 1536.5 1262.82 1539.27 Q1259.9 1542.04 1259.45 1547.07 L1280.33 1547.04 Z" fill="#000000" fill-rule="nonzero" fill-opacity="1" /><path clip-path="url(#clip530)" d="M1325.43 1546.53 L1325.43 1568.04 L1319.57 1568.04 L1319.57 1546.72 Q1319.57 1541.66 1317.6 1539.14 Q1315.63 1536.63 1311.68 1536.63 Q1306.94 1536.63 1304.2 1539.65 Q1301.46 1542.68 1301.46 1547.9 L1301.46 1568.04 L1295.58 1568.04 L1295.58 1532.4 L1301.46 1532.4 L1301.46 1537.93 Q1303.56 1534.72 1306.4 1533.13 Q1309.26 1531.54 1312.99 1531.54 Q1319.13 1531.54 1322.28 1535.36 Q1325.43 1539.14 1325.43 1546.53 Z" fill="#000000" fill-rule="nonzero" fill-opacity="1" /><path clip-path="url(#clip530)" d="M1362.77 1533.76 L1362.77 1539.24 Q1360.28 1537.87 1357.77 1537.2 Q1355.29 1536.5 1352.74 1536.5 Q1347.04 1536.5 1343.89 1540.13 Q1340.74 1543.73 1340.74 1550.25 Q1340.74 1556.78 1343.89 1560.4 Q1347.04 1564 1352.74 1564 Q1355.29 1564 1357.77 1563.33 Q1360.28 1562.63 1362.77 1561.26 L1362.77 1566.68 Q1360.31 1567.82 1357.67 1568.39 Q1355.06 1568.97 1352.1 1568.97 Q1344.05 1568.97 1339.31 1563.91 Q1334.57 1558.85 1334.57 1550.25 Q1334.57 1541.53 1339.34 1536.53 Q1344.15 1531.54 1352.48 1531.54 Q1355.19 1531.54 1357.77 1532.11 Q1360.35 1532.65 1362.77 1533.76 Z" fill="#000000" fill-rule="nonzero" fill-opacity="1" /><path clip-path="url(#clip530)" d="M1387.78 1571.35 Q1385.3 1577.72 1382.94 1579.66 Q1380.59 1581.6 1376.64 1581.6 L1371.96 1581.6 L1371.96 1576.7 L1375.4 1576.7 Q1377.82 1576.7 1379.16 1575.56 Q1380.49 1574.41 1382.12 1570.14 L1383.17 1567.47 L1368.75 1532.4 L1374.96 1532.4 L1386.1 1560.28 L1397.24 1532.4 L1403.44 1532.4 L1387.78 1571.35 Z" fill="#000000" fill-rule="nonzero" fill-opacity="1" /><path clip-path="url(#clip530)" d="M1431.71 1518.52 L1445.2 1518.52 L1445.2 1523.07 L1437.56 1523.07 L1437.56 1572.09 L1445.2 1572.09 L1445.2 1576.64 L1431.71 1576.64 L1431.71 1518.52 Z" fill="#000000" fill-rule="nonzero" fill-opacity="1" /><path clip-path="url(#clip530)" d="M1457.93 1520.52 L1464.36 1520.52 L1464.36 1540 L1487.72 1540 L1487.72 1520.52 L1494.15 1520.52 L1494.15 1568.04 L1487.72 1568.04 L1487.72 1545.41 L1464.36 1545.41 L1464.36 1568.04 L1457.93 1568.04 L1457.93 1520.52 Z" fill="#000000" fill-rule="nonzero" fill-opacity="1" /><path clip-path="url(#clip530)" d="M1504.15 1532.4 L1531.97 1532.4 L1531.97 1537.74 L1509.94 1563.37 L1531.97 1563.37 L1531.97 1568.04 L1503.35 1568.04 L1503.35 1562.7 L1525.38 1537.07 L1504.15 1537.07 L1504.15 1532.4 Z" fill="#000000" fill-rule="nonzero" fill-opacity="1" /><path clip-path="url(#clip530)" d="M1554.6 1518.52 L1554.6 1576.64 L1541.1 1576.64 L1541.1 1572.09 L1548.71 1572.09 L1548.71 1523.07 L1541.1 1523.07 L1541.1 1518.52 L1554.6 1518.52 Z" fill="#000000" fill-rule="nonzero" fill-opacity="1" /><polyline clip-path="url(#clip530)" style="stroke:#000000; stroke-linecap:round; stroke-linejoin:round; stroke-width:4; stroke-opacity:1; fill:none" points="276.876,1423.18 276.876,47.2441 "/>
<polyline clip-path="url(#clip530)" style="stroke:#000000; stroke-linecap:round; stroke-linejoin:round; stroke-width:4; stroke-opacity:1; fill:none" points="276.876,1399.46 295.773,1399.46 "/>
<polyline clip-path="url(#clip530)" style="stroke:#000000; stroke-linecap:round; stroke-linejoin:round; stroke-width:4; stroke-opacity:1; fill:none" points="276.876,824.946 295.773,824.946 "/>
<polyline clip-path="url(#clip530)" style="stroke:#000000; stroke-linecap:round; stroke-linejoin:round; stroke-width:4; stroke-opacity:1; fill:none" points="276.876,250.43 295.773,250.43 "/>
<path clip-path="url(#clip530)" d="M114.931 1419.26 L122.57 1419.26 L122.57 1392.89 L114.26 1394.56 L114.26 1390.3 L122.524 1388.63 L127.2 1388.63 L127.2 1419.26 L134.839 1419.26 L134.839 1423.19 L114.931 1423.19 L114.931 1419.26 Z" fill="#000000" fill-rule="nonzero" fill-opacity="1" /><path clip-path="url(#clip530)" d="M154.283 1391.71 Q150.672 1391.71 148.843 1395.27 Q147.038 1398.82 147.038 1405.95 Q147.038 1413.05 148.843 1416.62 Q150.672 1420.16 154.283 1420.16 Q157.917 1420.16 159.723 1416.62 Q161.552 1413.05 161.552 1405.95 Q161.552 1398.82 159.723 1395.27 Q157.917 1391.71 154.283 1391.71 M154.283 1388.01 Q160.093 1388.01 163.149 1392.61 Q166.227 1397.2 166.227 1405.95 Q166.227 1414.67 163.149 1419.28 Q160.093 1423.86 154.283 1423.86 Q148.473 1423.86 145.394 1419.28 Q142.339 1414.67 142.339 1405.95 Q142.339 1397.2 145.394 1392.61 Q148.473 1388.01 154.283 1388.01 Z" fill="#000000" fill-rule="nonzero" fill-opacity="1" /><path clip-path="url(#clip530)" d="M166.227 1382.11 L190.339 1382.11 L190.339 1385.3 L166.227 1385.3 L166.227 1382.11 Z" fill="#000000" fill-rule="nonzero" fill-opacity="1" /><path clip-path="url(#clip530)" d="M199.197 1392.58 L205.404 1392.58 L205.404 1371.16 L198.652 1372.51 L198.652 1369.05 L205.366 1367.7 L209.166 1367.7 L209.166 1392.58 L215.372 1392.58 L215.372 1395.78 L199.197 1395.78 L199.197 1392.58 Z" fill="#000000" fill-rule="nonzero" fill-opacity="1" /><path clip-path="url(#clip530)" d="M231.171 1370.2 Q228.237 1370.2 226.751 1373.1 Q225.284 1375.98 225.284 1381.77 Q225.284 1387.54 226.751 1390.44 Q228.237 1393.32 231.171 1393.32 Q234.124 1393.32 235.591 1390.44 Q237.076 1387.54 237.076 1381.77 Q237.076 1375.98 235.591 1373.1 Q234.124 1370.2 231.171 1370.2 M231.171 1367.19 Q235.891 1367.19 238.374 1370.94 Q240.876 1374.66 240.876 1381.77 Q240.876 1388.86 238.374 1392.6 Q235.891 1396.33 231.171 1396.33 Q226.45 1396.33 223.949 1392.6 Q221.466 1388.86 221.466 1381.77 Q221.466 1374.66 223.949 1370.94 Q226.45 1367.19 231.171 1367.19 Z" fill="#000000" fill-rule="nonzero" fill-opacity="1" /><path clip-path="url(#clip530)" d="M140.247 844.739 L147.886 844.739 L147.886 818.373 L139.575 820.04 L139.575 815.781 L147.839 814.114 L152.515 814.114 L152.515 844.739 L160.154 844.739 L160.154 848.674 L140.247 848.674 L140.247 844.739 Z" fill="#000000" fill-rule="nonzero" fill-opacity="1" /><path clip-path="url(#clip530)" d="M179.598 817.193 Q175.987 817.193 174.159 820.757 Q172.353 824.299 172.353 831.429 Q172.353 838.535 174.159 842.1 Q175.987 845.642 179.598 845.642 Q183.233 845.642 185.038 842.1 Q186.867 838.535 186.867 831.429 Q186.867 824.299 185.038 820.757 Q183.233 817.193 179.598 817.193 M179.598 813.489 Q185.409 813.489 188.464 818.095 Q191.543 822.679 191.543 831.429 Q191.543 840.155 188.464 844.762 Q185.409 849.345 179.598 849.345 Q173.788 849.345 170.71 844.762 Q167.654 840.155 167.654 831.429 Q167.654 822.679 170.71 818.095 Q173.788 813.489 179.598 813.489 Z" fill="#000000" fill-rule="nonzero" fill-opacity="1" /><path clip-path="url(#clip530)" d="M191.543 807.59 L215.654 807.59 L215.654 810.788 L191.543 810.788 L191.543 807.59 Z" fill="#000000" fill-rule="nonzero" fill-opacity="1" /><path clip-path="url(#clip530)" d="M223.892 793.184 L238.807 793.184 L238.807 796.381 L227.372 796.381 L227.372 803.264 Q228.199 802.982 229.027 802.851 Q229.854 802.7 230.682 802.7 Q235.384 802.7 238.13 805.277 Q240.876 807.854 240.876 812.255 Q240.876 816.787 238.054 819.308 Q235.233 821.809 230.099 821.809 Q228.331 821.809 226.488 821.508 Q224.663 821.207 222.707 820.605 L222.707 816.787 Q224.4 817.709 226.205 818.16 Q228.011 818.612 230.023 818.612 Q233.277 818.612 235.177 816.9 Q237.076 815.189 237.076 812.255 Q237.076 809.321 235.177 807.609 Q233.277 805.898 230.023 805.898 Q228.5 805.898 226.977 806.236 Q225.472 806.575 223.892 807.289 L223.892 793.184 Z" fill="#000000" fill-rule="nonzero" fill-opacity="1" /><path clip-path="url(#clip530)" d="M170.17 270.222 L177.809 270.222 L177.809 243.857 L169.499 245.523 L169.499 241.264 L177.762 239.597 L182.438 239.597 L182.438 270.222 L190.077 270.222 L190.077 274.157 L170.17 274.157 L170.17 270.222 Z" fill="#000000" fill-rule="nonzero" fill-opacity="1" /><path clip-path="url(#clip530)" d="M209.522 242.676 Q205.91 242.676 204.082 246.241 Q202.276 249.782 202.276 256.912 Q202.276 264.018 204.082 267.583 Q205.91 271.125 209.522 271.125 Q213.156 271.125 214.961 267.583 Q216.79 264.018 216.79 256.912 Q216.79 249.782 214.961 246.241 Q213.156 242.676 209.522 242.676 M209.522 238.972 Q215.332 238.972 218.387 243.579 Q221.466 248.162 221.466 256.912 Q221.466 265.639 218.387 270.245 Q215.332 274.829 209.522 274.829 Q203.711 274.829 200.633 270.245 Q197.577 265.639 197.577 256.912 Q197.577 248.162 200.633 243.579 Q203.711 238.972 209.522 238.972 Z" fill="#000000" fill-rule="nonzero" fill-opacity="1" /><path clip-path="url(#clip530)" d="M231.171 221.168 Q228.237 221.168 226.751 224.065 Q225.284 226.942 225.284 232.735 Q225.284 238.509 226.751 241.405 Q228.237 244.283 231.171 244.283 Q234.124 244.283 235.591 241.405 Q237.076 238.509 237.076 232.735 Q237.076 226.942 235.591 224.065 Q234.124 221.168 231.171 221.168 M231.171 218.159 Q235.891 218.159 238.374 221.902 Q240.876 225.626 240.876 232.735 Q240.876 239.826 238.374 243.568 Q235.891 247.292 231.171 247.292 Q226.45 247.292 223.949 243.568 Q221.466 239.826 221.466 232.735 Q221.466 225.626 223.949 221.902 Q226.45 218.159 231.171 218.159 Z" fill="#000000" fill-rule="nonzero" fill-opacity="1" /><path clip-path="url(#clip530)" d="M16.4842 902.948 L16.4842 893.368 L48.8219 881.241 L16.4842 869.051 L16.4842 859.471 L64.0042 859.471 L64.0042 865.741 L22.277 865.741 L54.8694 877.995 L54.8694 884.456 L22.277 896.71 L64.0042 896.71 L64.0042 902.948 L16.4842 902.948 Z" fill="#000000" fill-rule="nonzero" fill-opacity="1" /><path clip-path="url(#clip530)" d="M46.0847 830.761 Q46.0847 837.859 47.7079 840.596 Q49.3312 843.333 53.2461 843.333 Q56.3653 843.333 58.2114 841.296 Q60.0256 839.228 60.0256 835.695 Q60.0256 830.825 56.5881 827.897 Q53.1188 824.937 47.3897 824.937 L46.0847 824.937 L46.0847 830.761 M43.6657 819.08 L64.0042 819.08 L64.0042 824.937 L58.5933 824.937 Q61.8398 826.942 63.3994 829.934 Q64.9272 832.926 64.9272 837.254 Q64.9272 842.729 61.8716 845.975 Q58.7843 849.19 53.6281 849.19 Q47.6125 849.19 44.5569 845.18 Q41.5014 841.137 41.5014 833.148 L41.5014 824.937 L40.9285 824.937 Q36.8862 824.937 34.6901 827.61 Q32.4621 830.252 32.4621 835.058 Q32.4621 838.114 33.1941 841.01 Q33.9262 843.906 35.3903 846.58 L29.9795 846.58 Q28.7381 843.365 28.1334 840.342 Q27.4968 837.318 27.4968 834.453 Q27.4968 826.719 31.5072 822.9 Q35.5176 819.08 43.6657 819.08 Z" fill="#000000" fill-rule="nonzero" fill-opacity="1" /><path clip-path="url(#clip530)" d="M45.7664 783.56 Q39.4007 783.56 35.8996 786.201 Q32.3984 788.811 32.3984 793.554 Q32.3984 798.264 35.8996 800.906 Q39.4007 803.516 45.7664 803.516 Q52.1003 803.516 55.6014 800.906 Q59.1026 798.264 59.1026 793.554 Q59.1026 788.811 55.6014 786.201 Q52.1003 783.56 45.7664 783.56 M59.58 777.703 Q68.683 777.703 73.1071 781.745 Q77.5631 785.788 77.5631 794.127 Q77.5631 797.214 77.0857 799.951 Q76.6401 802.688 75.6852 805.267 L69.9879 805.267 Q71.3884 802.688 72.0568 800.174 Q72.7252 797.66 72.7252 795.05 Q72.7252 789.289 69.7015 786.424 Q66.7096 783.56 60.6303 783.56 L57.7339 783.56 Q60.885 785.374 62.4446 788.206 Q64.0042 791.039 64.0042 794.986 Q64.0042 801.543 59.0071 805.553 Q54.01 809.563 45.7664 809.563 Q37.491 809.563 32.4939 805.553 Q27.4968 801.543 27.4968 794.986 Q27.4968 791.039 29.0564 788.206 Q30.616 785.374 33.7671 783.56 L28.3562 783.56 L28.3562 777.703 L59.58 777.703 Z" fill="#000000" fill-rule="nonzero" fill-opacity="1" /><path clip-path="url(#clip530)" d="M42.4881 736.008 L64.0042 736.008 L64.0042 741.864 L42.679 741.864 Q37.6183 741.864 35.1038 743.838 Q32.5894 745.811 32.5894 749.758 Q32.5894 754.5 35.6131 757.237 Q38.6368 759.975 43.8567 759.975 L64.0042 759.975 L64.0042 765.863 L28.3562 765.863 L28.3562 759.975 L33.8944 759.975 Q30.6797 757.874 29.0883 755.041 Q27.4968 752.177 27.4968 748.453 Q27.4968 742.31 31.3163 739.159 Q35.1038 736.008 42.4881 736.008 Z" fill="#000000" fill-rule="nonzero" fill-opacity="1" /><path clip-path="url(#clip530)" d="M28.3562 724.327 L28.3562 718.47 L64.0042 718.47 L64.0042 724.327 L28.3562 724.327 M14.479 724.327 L14.479 718.47 L21.895 718.47 L21.895 724.327 L14.479 724.327 Z" fill="#000000" fill-rule="nonzero" fill-opacity="1" /><path clip-path="url(#clip530)" d="M18.2347 700.423 L28.3562 700.423 L28.3562 688.36 L32.9077 688.36 L32.9077 700.423 L52.2594 700.423 Q56.6199 700.423 57.8613 699.246 Q59.1026 698.036 59.1026 694.376 L59.1026 688.36 L64.0042 688.36 L64.0042 694.376 Q64.0042 701.155 61.4897 703.734 Q58.9434 706.312 52.2594 706.312 L32.9077 706.312 L32.9077 710.609 L28.3562 710.609 L28.3562 706.312 L18.2347 706.312 L18.2347 700.423 Z" fill="#000000" fill-rule="nonzero" fill-opacity="1" /><path clip-path="url(#clip530)" d="M49.9359 681.263 L28.3562 681.263 L28.3562 675.406 L49.7131 675.406 Q54.7739 675.406 57.3202 673.433 Q59.8346 671.459 59.8346 667.513 Q59.8346 662.77 56.8109 660.033 Q53.7872 657.264 48.5673 657.264 L28.3562 657.264 L28.3562 651.407 L64.0042 651.407 L64.0042 657.264 L58.5296 657.264 Q61.7762 659.396 63.3676 662.229 Q64.9272 665.03 64.9272 668.754 Q64.9272 674.897 61.1078 678.08 Q57.2883 681.263 49.9359 681.263 M27.4968 666.526 L27.4968 666.526 Z" fill="#000000" fill-rule="nonzero" fill-opacity="1" /><path clip-path="url(#clip530)" d="M33.7671 615.887 L14.479 615.887 L14.479 610.03 L64.0042 610.03 L64.0042 615.887 L58.657 615.887 Q61.8398 617.733 63.3994 620.566 Q64.9272 623.367 64.9272 627.313 Q64.9272 633.774 59.771 637.848 Q54.6147 641.891 46.212 641.891 Q37.8093 641.891 32.6531 637.848 Q27.4968 633.774 27.4968 627.313 Q27.4968 623.367 29.0564 620.566 Q30.5842 617.733 33.7671 615.887 M46.212 635.843 Q52.6732 635.843 56.3653 633.202 Q60.0256 630.528 60.0256 625.881 Q60.0256 621.234 56.3653 618.56 Q52.6732 615.887 46.212 615.887 Q39.7508 615.887 36.0905 618.56 Q32.3984 621.234 32.3984 625.881 Q32.3984 630.528 36.0905 633.202 Q39.7508 635.843 46.212 635.843 Z" fill="#000000" fill-rule="nonzero" fill-opacity="1" /><path clip-path="url(#clip530)" d="M44.7161 567.476 L47.5806 567.476 L47.5806 594.403 Q53.6281 594.021 56.8109 590.774 Q59.9619 587.496 59.9619 581.671 Q59.9619 578.297 59.1344 575.146 Q58.3069 571.963 56.6518 568.844 L62.1899 568.844 Q63.5267 571.995 64.227 575.305 Q64.9272 578.616 64.9272 582.021 Q64.9272 590.551 59.9619 595.548 Q54.9967 600.514 46.5303 600.514 Q37.7774 600.514 32.6531 595.803 Q27.4968 591.061 27.4968 583.04 Q27.4968 575.847 32.1438 571.677 Q36.7589 567.476 44.7161 567.476 M42.9973 573.332 Q38.1912 573.396 35.3266 576.037 Q32.4621 578.647 32.4621 582.976 Q32.4621 587.878 35.2312 590.838 Q38.0002 593.766 43.0292 594.212 L42.9973 573.332 Z" fill="#000000" fill-rule="nonzero" fill-opacity="1" /><polyline clip-path="url(#clip532)" style="stroke:#009af9; stroke-linecap:round; stroke-linejoin:round; stroke-width:4; stroke-opacity:1; fill:none" points="335.627,422.143 975.298,421.648 1221.33,418.476 1309.9,414.759 1388.62,408.665 1457.51,399.836 1516.56,388.473 1555.92,378.286 1585.45,368.897 1614.97,357.631 1644.49,343.941 1674.02,326.86 1693.7,312.687 1713.38,294.983 1723.22,284.094 1733.06,271.098 1742.9,254.829 1752.74,232.701 1762.59,196.67 1772.43,86.1857 1782.27,189.545 1792.11,221.815 1801.95,239.39 1811.79,250.838 1821.63,258.828 1831.47,264.525 1841.31,268.528 1851.16,271.166 1870.84,272.961 1890.52,270.24 1900.36,266.905 1910.2,261.85 1920.04,254.446 1929.88,243.454 1939.73,225.976 1949.57,192.293 1959.41,115.385 1969.25,210.223 1979.09,245.174 1988.93,267.632 1998.77,284.638 2008.61,298.57 2018.45,310.524 2038.14,330.658 2067.66,355.29 2097.18,376.187 2126.71,394.97 2195.59,435.102 2254.64,467.663 2274.32,476.106 2284.16,478.733 2294,479.697 "/>
<polyline clip-path="url(#clip532)" style="stroke:#e26f46; stroke-linecap:round; stroke-linejoin:round; stroke-width:4; stroke-opacity:1; fill:none" points="335.627,353.047 1211.48,354.099 1368.94,357.135 1467.35,363.368 1506.72,368.669 1536.24,375.083 1565.76,385.72 1585.45,397.705 1595.29,406.658 1605.13,419.366 1614.97,439.566 1624.81,481.291 1634.65,496.212 1644.49,434.932 1654.33,403.656 1664.17,381.32 1674.02,363.024 1683.86,346.83 1713.38,302.076 1733.06,269.03 1742.9,248.636 1752.74,222.053 1762.59,178.672 1772.43,91.4055 1782.27,184.422 1792.11,211.364 1801.95,226.251 1811.79,235.892 1821.63,242.565 1841.31,250.63 1851.16,252.858 1870.84,254.581 1890.52,252.816 1910.2,246.614 1920.04,240.929 1929.88,232.294 1939.73,218.332 1949.57,191.702 1959.41,95.94 1969.25,196.906 1979.09,240.763 1988.93,270.007 2018.45,340.841 2028.3,368.281 2038.14,406.613 2047.98,504.999 2057.82,434.654 2067.66,401.222 2077.5,384.527 2087.34,374.021 2097.18,366.688 2107.02,361.25 2126.71,353.724 2166.07,345.383 2225.12,339.81 2294,337.883 "/>
<polyline clip-path="url(#clip532)" style="stroke:#3da44d; stroke-linecap:round; stroke-linejoin:round; stroke-width:4; stroke-opacity:1; fill:none" points="608.497,365.273 777.071,365.045 875.681,364.698 945.646,364.255 999.915,363.74 1044.26,363.193 1081.75,362.678 1114.22,362.255 1142.87,361.959 1168.49,361.794 1191.67,361.748 1212.83,361.805 1232.3,361.949 1250.32,362.166 1267.1,362.437 1282.79,362.741 1297.54,363.06 1311.44,363.383 1324.59,363.716 1337.06,364.079 1348.93,364.489 1360.24,364.948 1371.05,365.44 1381.4,365.945 1391.33,366.452 1400.87,366.957 1410.05,367.459 1418.89,367.961 1427.43,368.465 1435.67,368.973 1443.65,369.491 1451.37,370.028 1458.85,370.599 1466.11,371.221 1473.16,371.911 1480.01,372.677 1486.68,373.528 1493.16,374.471 1499.48,375.519 1505.64,376.684 1511.64,377.961 1517.5,379.315 1523.23,380.664 1528.82,381.909 1534.28,382.981 1539.63,383.911 1544.86,384.848 1549.98,386.038 1554.99,387.783 1559.91,390.377 1564.72,393.985 1569.45,398.486 1574.08,403.439 1578.62,408.31 1583.09,412.793 1587.47,416.947 1591.77,421.122 1596,425.812 1600.16,431.494 1604.25,438.483 1608.27,446.879 1612.22,456.722 1616.11,468.366 1619.94,483.098 1623.71,504.355 1627.43,537.665 1631.08,525.631 1634.69,486.604 1638.24,460.47 1641.74,441.709 1645.19,427.588 1648.59,416.629 1651.94,407.729 1655.25,399.978 1658.52,392.736 1661.74,385.736 1664.92,379.077 1668.06,373.027 1671.15,367.751 1674.21,363.19 1677.23,359.11 1680.22,355.218 1683.17,351.241 1686.08,346.994 1688.96,342.429 1691.8,337.68 1694.61,333.008 1697.39,328.673 1700.14,324.801 1702.86,321.362 1705.55,318.234 1708.2,315.258 1710.83,312.254 1713.43,308.999 1716.01,305.185 1718.55,300.466 1721.07,294.674 1723.57,288.132 1726.04,281.63 1728.48,275.901 1730.9,271.194 1733.3,267.343 1735.67,264.044 1738.02,261.018 1740.35,258.052 1742.65,254.972 1744.94,251.626 1747.2,247.878 1749.44,243.63 1751.66,238.85 1753.86,233.593 1756.04,228.003 1758.21,222.327 1760.35,216.987 1762.47,212.842 1764.58,211.942 1766.67,219.746 1768.74,253.984 1770.79,262.124 1772.82,214.643 1774.84,199.817 1776.84,195.618 1778.83,195.479 1780.8,196.946 1782.75,199.076 1784.69,201.531 1786.61,204.219 1788.52,207.144 1790.41,210.321 1792.29,213.722 1794.15,217.231 1796,220.652 1797.84,223.781 1799.66,226.494 1801.47,228.782 1803.26,230.733 1805.04,232.476 1806.81,234.139 1808.57,235.799 1810.31,237.451 1812.04,239.012 1813.76,240.379 1815.47,241.504 1817.16,242.42 1818.85,243.207 1820.52,243.957 1822.18,244.738 1823.83,245.573 1825.46,246.438 1827.09,247.279 1828.71,248.048 1830.31,248.728 1831.91,249.33 1833.49,249.871 1835.07,250.361 1836.63,250.795 1838.18,251.161 1839.73,251.457 1841.26,251.695 1842.79,251.899 1844.3,252.096 1845.81,252.314 1847.31,252.576 1848.79,252.898 1850.27,253.282 1851.74,253.7 1853.2,254.104 1854.65,254.448 1856.1,254.71 1857.53,254.894 1858.96,255.015 1860.38,255.088 1861.79,255.127 1863.19,255.145 1864.58,255.152 1865.97,255.161 1867.34,255.178 1868.72,255.207 1870.08,255.244 1871.43,255.279 1872.78,255.296 1874.12,255.277 1875.45,255.206 1876.78,255.072 1878.1,254.874 1879.41,254.622 1880.71,254.335 1882.01,254.042 1883.3,253.77 1884.58,253.541 1885.86,253.36 1887.13,253.219 1888.39,253.1 1889.65,252.983 1890.9,252.847 1892.14,252.676 1893.38,252.457 1894.61,252.183 1895.84,251.85 1897.06,251.455 1898.27,251.009 1899.48,250.537 1900.68,250.081 1901.87,249.678 1903.06,249.333 1904.25,249.018 1905.42,248.677 1906.59,248.251 1907.76,247.698 1908.92,247.023 1910.08,246.284 1911.23,245.556 1912.37,244.889 1913.51,244.296 1914.64,243.757 1915.77,243.245 1916.9,242.72 1918.01,242.138 1919.13,241.446 1920.24,240.586 1921.34,239.516 1922.44,238.243 1923.53,236.841 1924.62,235.435 1925.7,234.14 1926.78,233.008 1927.85,232.022 1928.92,231.119 1929.99,230.209 1931.05,229.188 1932.1,227.962 1933.15,226.489 1934.2,224.825 1935.24,223.091 1936.28,221.382 1937.31,219.708 1938.34,218.019 1939.36,216.254 1940.38,214.37 1941.4,212.347 1942.41,210.173 1943.42,207.83 1944.42,205.292 1945.42,202.534 1946.41,199.534 1947.4,196.266 1948.39,192.694 1949.37,188.772 1950.35,184.486 1951.33,179.904 1952.3,175.194 1953.26,170.605 1954.23,166.414 1955.19,162.926 1956.14,160.521 1957.09,159.715 1958.04,160.932 1958.99,163.413 1959.93,163.847 1960.86,160.089 1961.8,155.598 1962.73,153.774 1963.65,155.22 1964.58,159.316 1965.5,165.214 1966.41,172.089 1967.32,179.2 1968.23,185.959 1969.14,192.003 1970.04,197.22 1970.94,201.687 1971.84,205.579 1972.73,209.094 1973.62,212.426 1974.5,215.759 1975.39,219.247 1976.27,222.977 1977.14,226.888 1978.02,230.755 1978.89,234.292 1979.75,237.313 1980.62,239.805 1981.48,241.885 1982.34,243.719 1983.19,245.469 1984.04,247.269 1984.89,249.227 1985.74,251.431 1986.58,253.962 1987.42,256.888 1988.26,260.217 1989.09,263.822 1989.92,267.413 1990.75,270.655 1991.58,273.34 1992.4,275.462 1993.22,277.156 1994.04,278.594 1994.85,279.911 1995.67,281.178 1996.48,282.416 1997.28,283.628 1998.09,284.837 1998.89,286.086 1999.69,287.427 2000.48,288.906 2001.28,290.569 2002.07,292.462 2002.85,294.643 2003.64,297.173 2004.42,300.075 2005.2,303.256 2005.98,306.467 2006.76,309.388 2007.53,311.811 2008.3,313.713 2009.07,315.203 2009.84,316.424 2010.6,317.503 2011.36,318.536 2012.12,319.594 2012.88,320.743 2013.63,322.05 2014.38,323.573 2015.13,325.354 2015.88,327.398 2016.62,329.68 2017.37,332.158 2018.11,334.782 2018.85,337.49 2019.58,340.181 2020.32,342.715 2021.05,344.975 2021.78,346.926 2022.5,348.605 2023.23,350.074 2023.95,351.396 2024.67,352.661 2025.39,354.024 2026.11,355.721 2026.82,358.011 2027.53,361.042 2028.24,364.71 2028.95,368.65 2029.66,372.413 2030.36,375.701 2031.06,378.447 2031.76,380.762 2032.46,382.865 2033.16,385.025 2033.85,387.539 2034.54,390.683 2035.23,394.651 2035.92,399.496 2036.61,405.103 2037.29,411.19 2037.97,417.322 2038.65,422.973 2039.33,427.705 2040.01,431.424 2040.68,434.486 2041.35,437.531 2042.03,441.146 2042.69,445.615 2043.36,450.869 2044.03,456.665 2044.69,462.821 2045.35,469.175 2046.01,474.873 2046.67,477.22 2047.33,473.044 2047.98,463.487 2048.63,452.484 2049.29,442.296 2049.93,433.471 2050.58,425.965 2051.23,419.689 2051.87,414.629 2052.52,410.79 2053.16,408.095 2053.8,406.325 2054.43,405.099 2055.07,403.918 2055.7,402.299 2056.34,399.97 2056.97,396.993 2057.6,393.685 2058.22,390.405 2058.85,387.396 2059.47,384.769 2060.1,382.554 2060.72,380.735 2061.34,379.246 2061.96,377.976 2062.57,376.789 2063.19,375.57 2063.8,374.256 2064.41,372.826 2065.02,371.259 2065.63,369.508 2066.24,367.483 2066.84,365.072 2067.45,362.171 2068.05,358.752 2068.65,354.932 2069.25,350.978 2069.85,347.192 2070.45,343.777 2071.04,340.808 2071.64,338.303 2072.23,336.283 2072.82,334.766 2073.41,333.724 2074,333.063 2074.58,332.635 2075.17,332.276 2075.75,331.828 2076.34,331.159 2076.92,330.179 2077.5,328.858 2078.08,327.239 2078.65,325.428 2079.23,323.544 2079.8,321.695 2080.37,319.976 2080.95,318.445 2081.52,317.1 2082.09,315.869 2082.65,314.648 2083.22,313.357 2083.78,311.976 2084.35,310.551 2084.91,309.175 2085.47,307.951 2086.03,306.962 2086.59,306.242 2087.15,305.771 2087.7,305.489 2088.26,305.318 2088.81,305.183 2089.36,305.016 2089.91,304.764 2090.46,304.401 2091.01,303.936 2091.56,303.411 2092.1,302.89 2092.65,302.431 2093.19,302.059 2093.73,301.758 2094.28,301.474 2094.82,301.142 2095.35,300.716 2095.89,300.185 2096.43,299.593 2096.96,299.021 2097.5,298.557 2098.03,298.241 2098.56,298.047 2099.09,297.9 2099.62,297.709 2100.15,297.411 2100.68,296.988 2101.2,296.463 2101.73,295.892 2102.25,295.345 2102.77,294.883 2103.29,294.546 2103.81,294.339 2104.33,294.234 2104.85,294.181 2105.37,294.126 2105.88,294.03 2106.4,293.876 2106.91,293.672 2107.43,293.437 2107.94,293.198 2108.45,292.971 2108.96,292.756 2109.46,292.546 2109.97,292.323 2110.48,292.076 2110.98,291.802 2111.49,291.507 2111.99,291.209 2112.49,290.926 2112.99,290.668 2113.49,290.439 2113.99,290.229 2114.49,290.027 2114.99,289.822 2115.48,289.617 2115.98,289.417 2116.47,289.234 2116.96,289.074 2117.46,288.936 2117.95,288.811 2118.44,288.689 2118.92,288.559 2119.41,288.414 2119.9,288.255 2120.39,288.087 2120.87,287.918 2121.35,287.755 2121.84,287.605 2122.32,287.468 2122.8,287.344 2123.28,287.234 2123.76,287.134 2124.24,287.042 2124.72,286.949 2125.19,286.847 2125.67,286.727 2126.14,286.587 2126.62,286.43 2127.09,286.262 2127.56,286.094 2128.03,285.934 2128.5,285.787 2128.97,285.656 2129.44,285.541 2129.91,285.44 2130.37,285.349 2130.84,285.261 2131.3,285.17 2131.77,285.069 2132.23,284.958 2132.69,284.841 2133.15,284.728 2133.61,284.622 2134.07,284.526 2134.53,284.437 2134.99,284.345 2135.44,284.247 2135.9,284.136 2136.35,284.014 2136.81,283.885 2137.26,283.754 2137.71,283.628 2138.17,283.513 2138.62,283.411 2139.07,283.324 2139.52,283.247 2139.96,283.18 2140.41,283.117 2140.86,283.058 2141.3,283.001 2141.75,282.945 2142.19,282.889 2142.64,282.83 2143.08,282.766 2143.52,282.697 2143.96,282.62 2144.4,282.537 2144.84,282.45 2145.28,282.361 2145.72,282.272 2146.16,282.186 2146.59,282.106 2147.03,282.034 2147.46,281.969 2147.9,281.91 2148.33,281.855 2148.76,281.804 2149.19,281.754 2149.62,281.706 2150.05,281.657 2150.48,281.608 2150.91,281.556 2151.34,281.499 2151.77,281.436 2152.19,281.365 2152.62,281.287 2153.04,281.204 2153.47,281.123 2153.89,281.048 2154.31,280.983 2154.73,280.928 2155.16,280.881 2155.58,280.836 2156,280.789 2156.41,280.738 2156.83,280.685 2157.25,280.632 2157.67,280.583 2158.08,280.537 2158.5,280.492 2158.91,280.445 2159.33,280.393 2159.74,280.335 2160.15,280.275 2160.56,280.216 2160.98,280.161 2161.39,280.112 2161.8,280.069 2162.21,280.03 2162.61,279.99 2163.02,279.949 2163.43,279.904 2163.83,279.855 2164.24,279.802 2164.65,279.747 2165.05,279.693 2165.45,279.639 2165.86,279.589 2166.26,279.543 2166.66,279.5 2167.06,279.459 2167.46,279.42 2167.86,279.382 2168.26,279.346 2168.66,279.31 2169.06,279.275 2169.45,279.241 2169.85,279.207 2170.25,279.171 2170.64,279.133 2171.04,279.094 2171.43,279.054 2171.82,279.014 2172.22,278.974 2172.61,278.934 2173,278.894 2173.39,278.853 2173.78,278.811 2174.17,278.767 2174.56,278.722 2174.95,278.679 2175.33,278.638 2175.72,278.601 2176.11,278.568 2176.49,278.538 2176.88,278.511 2177.26,278.487 2177.65,278.467 2178.03,278.45 2178.41,278.436 2178.79,278.422 2179.18,278.405 2179.56,278.383 2179.94,278.353 2180.32,278.314 2180.7,278.267 2181.07,278.215 2181.45,278.161 2181.83,278.11 2182.21,278.064 2182.58,278.027 2182.96,278 2183.33,277.982 2183.71,277.969 2184.08,277.955 2184.45,277.939 2184.83,277.917 2185.2,277.892 2185.57,277.867 2185.94,277.843 2186.31,277.823 2186.68,277.804 2187.05,277.782 2187.42,277.756 2187.79,277.724 2188.16,277.685 2188.52,277.643 2188.89,277.599 2189.26,277.557 2189.62,277.519 2189.99,277.488 2190.35,277.464 2190.71,277.447 2191.08,277.436 2191.44,277.426 2191.8,277.415 2192.16,277.403 2192.53,277.389 2192.89,277.377 2193.25,277.368 2193.61,277.361 2193.96,277.353 2194.32,277.342 2194.68,277.325 2195.04,277.307 2195.39,277.294 2195.75,277.296 2196.11,277.318 2196.46,277.359 2196.82,277.41 2197.17,277.454 2197.53,277.473 2197.88,277.45 2198.23,277.371 2198.58,277.232 2198.93,277.038 2199.29,276.809 2199.64,276.578 2199.99,276.384 2200.34,276.258 2200.69,276.214 2201.03,276.243 2201.38,276.32 2201.73,276.413 2202.08,276.497 2202.42,276.555 2202.77,276.583 2203.12,276.584 2203.46,276.565 2203.81,276.533 2204.15,276.497 2204.49,276.463 2204.84,276.434 2205.18,276.415 2205.52,276.406 2205.86,276.406 2206.21,276.412 2206.55,276.418 2206.89,276.421 2207.23,276.416 2207.57,276.405 2207.91,276.387 2208.24,276.367 2208.58,276.347 2208.92,276.329 2209.26,276.314 2209.59,276.301 2209.93,276.289 2210.26,276.277 2210.6,276.265 2210.93,276.251 2211.27,276.235 2211.6,276.216 2211.94,276.194 2212.27,276.17 2212.6,276.145 2212.93,276.12 2213.27,276.097 2213.6,276.077 2213.93,276.059 2214.26,276.044 2214.59,276.031 2214.92,276.018 2215.25,276.004 2215.57,275.991 2215.9,275.979 2216.23,275.969 2216.56,275.962 2216.88,275.958 2217.21,275.956 2217.53,275.952 2217.86,275.946 2218.19,275.937 2218.51,275.924 2218.83,275.909 2219.16,275.891 2219.48,275.874 2219.8,275.856 2220.13,275.838 2220.45,275.821 2220.77,275.804 2221.09,275.789 2221.41,275.774 2221.73,275.76 2222.05,275.747 2222.37,275.736 2222.69,275.725 2223.01,275.714 2223.33,275.702 2223.64,275.69 2223.96,275.677 2224.28,275.663 2224.59,275.648 2224.91,275.633 2225.23,275.618 2225.54,275.604 2225.86,275.59 2226.17,275.577 2226.48,275.564 2226.8,275.551 2227.11,275.539 2227.42,275.527 2227.74,275.517 2228.05,275.508 2228.36,275.5 2228.67,275.493 2228.98,275.486 2229.29,275.477 2229.6,275.466 2229.91,275.453 2230.22,275.441 2230.53,275.428 2230.84,275.416 2231.15,275.406 2231.45,275.396 2231.76,275.387 2232.07,275.378 2232.37,275.369 2232.68,275.36 2232.99,275.351 2233.29,275.341 2233.6,275.331 2233.9,275.321 2234.21,275.31 2234.51,275.3 2234.81,275.29 2235.12,275.28 2235.42,275.27 2235.72,275.26 2236.02,275.25 2236.32,275.239 2236.63,275.228 2236.93,275.218 2237.23,275.208 2237.53,275.198 2237.83,275.19 2238.13,275.182 2238.42,275.175 2238.72,275.169 2239.02,275.162 2239.32,275.155 2239.62,275.148 2239.91,275.14 2240.21,275.132 2240.51,275.124 2240.8,275.116 2241.1,275.108 2241.39,275.1 2241.69,275.092 2241.98,275.083 2242.28,275.074 2242.57,275.066 2242.87,275.057 2243.16,275.048 2243.45,275.04 2243.74,275.032 2244.04,275.024 2244.33,275.016 2244.62,275.008 2244.91,275.001 2245.2,274.993 2245.49,274.985 2245.78,274.977 2246.07,274.969 2246.36,274.961 2246.65,274.953 2246.94,274.946 2247.23,274.939 2247.51,274.932 2247.8,274.926 2248.09,274.92 2248.38,274.913 2248.66,274.907 2248.95,274.9 2249.24,274.894 2249.52,274.887 2249.81,274.88 2250.09,274.873 2250.38,274.866 2250.66,274.859 2250.94,274.852 2251.23,274.846 2251.51,274.84 2251.79,274.834 2252.08,274.828 2252.36,274.822 2252.64,274.817 2252.92,274.811 2253.2,274.806 2253.48,274.8 2253.77,274.794 2254.05,274.788 2254.33,274.782 2254.61,274.777 2254.88,274.771 2255.16,274.765 2255.44,274.759 2255.72,274.754 2256,274.748 2256.28,274.743 2256.55,274.737 2256.83,274.732 2257.11,274.727 2257.39,274.722 2257.66,274.717 2257.94,274.712 2258.21,274.707 2258.49,274.701 2258.76,274.696 2259.04,274.691 2259.31,274.685 2259.59,274.68 2259.86,274.674 2260.13,274.669 2260.41,274.664 2260.68,274.658 2260.95,274.653 2261.22,274.649 2261.5,274.644 2261.77,274.64 2262.04,274.635 2262.31,274.631 2262.58,274.628 2262.85,274.624 2263.12,274.62 2263.39,274.616 2263.66,274.612 2263.93,274.608 2264.2,274.604 2264.47,274.599 2264.73,274.595 2265,274.591 2265.27,274.587 2265.54,274.583 2265.8,274.579 2266.07,274.575 2266.34,274.571 2266.6,274.567 2266.87,274.563 2267.14,274.559 2267.4,274.555 2267.67,274.551 2267.93,274.547 2268.2,274.543 2268.46,274.54 2268.72,274.536 2268.99,274.532 2269.25,274.529 2269.51,274.525 2269.78,274.522 2270.04,274.519 2270.3,274.516 2270.56,274.512 2270.82,274.509 2271.09,274.506 2271.35,274.503 2271.61,274.5 2271.87,274.497 2272.13,274.494 2272.39,274.491 2272.65,274.488 2272.91,274.485 2273.17,274.482 2273.43,274.479 2273.68,274.476 2273.94,274.473 2274.2,274.47 2274.46,274.467 2274.72,274.464 2274.97,274.461 2275.23,274.458 2275.49,274.455 2275.74,274.453 2276,274.45 2276.26,274.448 2276.51,274.446 2276.77,274.444 2277.02,274.441 2277.28,274.439 2277.53,274.437 2277.79,274.434 2278.04,274.432 2278.29,274.43 2278.55,274.428 2278.8,274.425 2279.05,274.423 2279.31,274.421 2279.56,274.419 2279.81,274.417 2280.06,274.415 2280.31,274.414 2280.56,274.412 2280.82,274.41 2281.07,274.409 2281.32,274.407 2281.57,274.406 2281.82,274.404 2282.07,274.402 2282.32,274.4 2282.57,274.399 2282.82,274.397 2283.06,274.395 2283.31,274.394 2283.56,274.392 2283.81,274.391 2284.06,274.39 2284.3,274.388 2284.55,274.387 2284.8,274.386 2285.05,274.385 2285.29,274.383 2285.54,274.382 2285.78,274.381 2286.03,274.38 2286.28,274.379 2286.52,274.378 2286.77,274.376 2287.01,274.375 2287.26,274.374 2287.5,274.373 2287.74,274.373 2287.99,274.372 2288.23,274.371 2288.47,274.37 2288.72,274.369 2288.96,274.369 2289.2,274.368 2289.45,274.367 2289.69,274.367 2289.93,274.366 2290.17,274.366 2290.41,274.365 2290.65,274.365 2290.89,274.364 2291.13,274.363 2291.38,274.363 2291.62,274.363 2291.86,274.362 2292.1,274.362 2292.33,274.362 2292.57,274.362 2292.81,274.362 2293.05,274.361 2293.29,274.361 2293.53,274.361 2293.77,274.361 2294,274.361 "/>
<polyline clip-path="url(#clip532)" style="stroke:#c271d2; stroke-linecap:round; stroke-linejoin:round; stroke-width:4; stroke-opacity:1; fill:none" points="608.497,945.825 777.071,943.858 875.681,940.284 945.646,935.235 999.915,929.457 1044.26,924.018 1081.75,919.701 1114.22,916.579 1142.87,914.053 1168.49,911.253 1191.67,907.588 1212.83,903.124 1232.3,898.546 1250.32,894.726 1267.1,892.257 1282.79,891.195 1297.54,891.013 1311.44,890.795 1324.59,889.615 1337.06,886.929 1348.93,882.718 1360.24,877.427 1371.05,871.831 1381.4,866.839 1391.33,863.23 1400.87,861.418 1410.05,861.336 1418.89,862.42 1427.43,863.729 1435.67,864.285 1443.65,863.539 1451.37,861.62 1458.85,859.099 1466.11,856.478 1473.16,853.802 1480.01,850.63 1486.68,846.394 1493.16,840.983 1499.48,835.057 1505.64,829.804 1511.64,826.415 1517.5,825.679 1523.23,827.699 1528.82,831.644 1534.28,835.586 1539.63,836.885 1544.86,833.459 1549.98,825.266 1554.99,814.403 1559.91,803.79 1564.72,795.905 1569.45,792.137 1574.08,792.502 1578.62,795.653 1583.09,799.252 1587.47,800.748 1591.77,798.581 1596,793.094 1600.16,786.12 1604.25,779.657 1608.27,774.9 1612.22,771.966 1616.11,770.075 1619.94,767.982 1623.71,764.614 1627.43,759.665 1631.08,753.754 1634.69,748.077 1638.24,743.845 1641.74,741.774 1645.19,741.713 1648.59,742.573 1651.94,742.745 1655.25,740.94 1658.52,736.945 1661.74,731.613 1664.92,726.116 1668.06,721.136 1671.15,716.598 1674.21,712.003 1677.23,706.878 1680.22,700.969 1683.17,694.302 1686.08,687.29 1688.96,680.751 1691.8,675.599 1694.61,672.351 1697.39,670.846 1700.14,670.404 1702.86,670.21 1705.55,669.551 1708.2,667.682 1710.83,663.558 1713.43,655.969 1716.01,644.488 1718.55,630.432 1721.07,616.474 1723.57,605.162 1726.04,597.681 1728.48,593.549 1730.9,591.262 1733.3,589.267 1735.67,586.412 1738.02,581.821 1740.35,574.825 1742.65,565.329 1744.94,554.119 1747.2,542.522 1749.44,531.727 1751.66,522.338 1753.86,514.242 1756.04,506.633 1758.21,498.185 1760.35,487.522 1762.47,473.908 1764.58,457.765 1766.67,441.022 1768.74,427.512 1770.79,421.826 1772.82,425.341 1774.84,435.279 1776.84,448.415 1778.83,462.89 1780.8,477.638 1782.75,491.623 1784.69,503.643 1786.61,512.73 1788.52,518.797 1790.41,522.832 1792.29,526.392 1794.15,530.94 1796,537.414 1797.84,546.072 1799.66,556.527 1801.47,567.871 1803.26,578.811 1805.04,587.977 1806.81,594.646 1808.57,599.532 1810.31,604.591 1812.04,611.762 1813.76,621.841 1815.47,634.054 1817.16,646.174 1818.85,655.394 1820.52,660.292 1822.18,662.156 1823.83,663.706 1825.46,667.045 1827.09,672.842 1828.71,680.491 1830.31,688.68 1831.91,696.191 1833.49,702.604 1835.07,708.429 1836.63,714.561 1838.18,721.565 1839.73,729.252 1841.26,736.635 1842.79,742.255 1844.3,744.891 1845.81,744.364 1847.31,741.688 1848.79,738.436 1850.27,736.022 1851.74,735.32 1853.2,736.536 1854.65,739.277 1856.1,742.807 1857.53,746.315 1858.96,749.096 1860.38,750.728 1861.79,751.183 1863.19,750.686 1864.58,749.387 1865.97,747.184 1867.34,743.926 1868.72,739.742 1870.08,735.12 1871.43,730.636 1872.78,726.624 1874.12,723.062 1875.45,719.755 1876.78,716.641 1878.1,713.929 1879.41,711.947 1880.71,710.916 1882.01,710.836 1883.3,711.409 1884.58,711.894 1885.86,711.266 1887.13,708.913 1888.39,705.189 1889.65,701.08 1890.9,697.478 1892.14,694.774 1893.38,692.784 1894.61,690.845 1895.84,688.153 1897.06,684.358 1898.27,679.939 1899.48,675.858 1900.68,672.762 1901.87,670.531 1903.06,668.444 1904.25,665.642 1905.42,661.512 1906.59,655.984 1907.76,649.713 1908.92,643.858 1910.08,639.44 1911.23,636.862 1912.37,635.915 1913.51,635.974 1914.64,636.09 1915.77,635.052 1916.9,631.677 1918.01,625.325 1919.13,616.287 1920.24,605.724 1921.34,595.275 1922.44,586.571 1923.53,580.792 1924.62,578.335 1925.7,578.709 1926.78,580.663 1927.85,582.448 1928.92,582.212 1929.99,578.682 1931.05,571.913 1932.1,563.303 1933.15,554.594 1934.2,546.63 1935.24,538.753 1936.28,529.392 1937.31,517.58 1938.34,503.876 1939.36,489.755 1940.38,476.542 1941.4,464.924 1942.41,454.947 1943.42,446.142 1944.42,437.593 1945.42,428.051 1946.41,416.299 1947.4,401.826 1948.39,385.21 1949.37,367.659 1950.35,350.161 1951.33,332.941 1952.3,315.459 1953.26,296.933 1954.23,277.144 1955.19,256.817 1956.14,237.254 1957.09,219.813 1958.04,205.759 1958.99,196.324 1959.93,192.541 1960.86,194.773 1961.8,202.392 1962.73,214.046 1963.65,228.302 1964.58,244.155 1965.5,261.173 1966.41,279.298 1967.32,298.5 1968.23,318.543 1969.14,338.924 1970.04,358.968 1970.94,377.998 1971.84,395.469 1972.73,411.017 1973.62,424.385 1974.5,435.396 1975.39,444.148 1976.27,451.352 1977.14,458.312 1978.02,466.347 1978.89,476.145 1979.75,487.592 1980.62,500.036 1981.48,512.604 1982.34,524.396 1983.19,534.575 1984.04,542.471 1984.89,547.748 1985.74,550.554 1986.58,551.537 1987.42,551.814 1988.26,552.844 1989.09,556.069 1989.92,562.391 1990.75,571.777 1991.58,583.193 1992.4,594.867 1993.22,604.891 1994.04,612.103 1994.85,616.598 1995.67,619.287 1996.48,621.044 1997.28,622.264 1998.09,622.939 1998.89,622.999 1999.69,622.567 2000.48,621.942 2001.28,621.386 2002.07,620.958 2002.85,620.576 2003.64,620.281 2004.42,620.489 2005.2,621.926 2005.98,625.184 2006.76,630.26 2007.53,636.514 2008.3,643.063 2009.07,649.221 2009.84,654.627 2010.6,659.031 2011.36,662.09 2012.12,663.483 2012.88,663.247 2013.63,661.906 2014.38,660.27 2015.13,659.117 2015.88,658.95 2016.62,659.847 2017.37,661.47 2018.11,663.336 2018.85,665.242 2019.58,667.472 2020.32,670.498 2021.05,674.418 2021.78,678.716 2022.5,682.573 2023.23,685.446 2023.95,687.339 2024.67,688.469 2025.39,688.729 2026.11,687.661 2026.82,685.201 2027.53,682.375 2028.24,680.878 2028.95,681.98 2029.66,685.898 2030.36,691.833 2031.06,698.31 2031.76,703.66 2032.46,706.677 2033.16,707.188 2033.85,705.993 2034.54,704.264 2035.23,702.98 2035.92,702.707 2036.61,703.6 2037.29,705.526 2037.97,708.196 2038.65,711.271 2039.33,714.436 2040.01,717.456 2040.68,720.195 2041.35,722.603 2042.03,724.725 2042.69,726.693 2043.36,728.582 2044.03,730.169 2044.69,730.924 2045.35,730.411 2046.01,728.772 2046.67,726.761 2047.33,725.274 2047.98,724.85 2048.63,725.492 2049.29,726.838 2049.93,728.486 2050.58,730.243 2051.23,732.127 2051.87,734.137 2052.52,736.066 2053.16,737.542 2053.8,738.259 2054.43,738.131 2055.07,737.213 2055.7,735.609 2056.34,733.525 2056.97,731.352 2057.6,729.563 2058.22,728.541 2058.85,728.505 2059.47,729.504 2060.1,731.385 2060.72,733.765 2061.34,736.125 2061.96,738.052 2062.57,739.474 2063.19,740.669 2063.8,742.057 2064.41,743.984 2065.02,746.647 2065.63,750.139 2066.24,754.558 2066.84,760.08 2067.45,766.954 2068.05,775.397 2068.65,785.419 2069.25,796.654 2069.85,808.418 2070.45,820.137 2071.04,831.774 2071.64,843.593 2072.23,855.213 2072.82,864.666 2073.41,868.682 2074,865.279 2074.58,855.945 2075.17,844.006 2075.75,832.204 2076.34,822.156 2076.92,814.691 2077.5,810.174 2078.08,808.732 2078.65,810.444 2079.23,815.447 2079.8,823.845 2080.37,835.397 2080.95,849.097 2081.52,862.909 2082.09,874.261 2082.65,881.776 2083.22,886.574 2083.78,891.191 2084.35,897.721 2084.91,907.019 2085.47,918.543 2086.03,930.223 2086.59,938.759 2087.15,941.408 2087.7,938.227 2088.26,931.777 2088.81,925.025 2089.36,920.14 2089.91,918.355 2090.46,920.169 2091.01,925.584 2091.56,934.249 2092.1,945.412 2092.65,957.631 2093.19,968.476 2093.73,975.04 2094.28,975.821 2094.82,972.076 2095.35,966.64 2095.89,962.052 2096.43,959.805 2096.96,960.347 2097.5,963.292 2098.03,967.773 2098.56,972.844 2099.09,977.689 2099.62,981.647 2100.15,984.39 2100.68,986.18 2101.2,987.721 2101.73,989.661 2102.25,992.215 2102.77,995.202 2103.29,998.373 2103.81,1001.79 2104.33,1005.94 2104.85,1011.44 2105.37,1018.68 2105.88,1027.58 2106.4,1037.65 2106.91,1048.05 2107.43,1057.83 2107.94,1066.11 2108.45,1072.37 2108.96,1076.48 2109.46,1078.37 2109.97,1077.89 2110.48,1075.15 2110.98,1070.96 2111.49,1066.53 2111.99,1062.93 2112.49,1060.85 2112.99,1060.64 2113.49,1062.35 2113.99,1065.84 2114.49,1070.89 2114.99,1077.38 2115.48,1085.29 2115.98,1094.55 2116.47,1104.62 2116.96,1114.32 2117.46,1122.01 2117.95,1126.51 2118.44,1127.98 2118.92,1127.75 2119.41,1127.39 2119.9,1127.96 2120.39,1129.82 2120.87,1132.63 2121.35,1135.57 2121.84,1137.9 2122.32,1139.63 2122.8,1141.48 2123.28,1144.1 2123.76,1147.25 2124.24,1149.55 2124.72,1149.22 2125.19,1145.55 2125.67,1139.72 2126.14,1133.88 2126.62,1129.82 2127.09,1128.52 2127.56,1130.08 2128.03,1133.95 2128.5,1139.15 2128.97,1144.58 2129.44,1149.4 2129.91,1153.01 2130.37,1154.99 2130.84,1155.23 2131.3,1154.28 2131.77,1153.34 2132.23,1153.73 2132.69,1156.36 2133.15,1161.38 2133.61,1168.04 2134.07,1174.79 2134.53,1179.71 2134.99,1181.49 2135.44,1180.35 2135.9,1177.79 2136.35,1175.6 2136.81,1175.15 2137.26,1177.23 2137.71,1182.17 2138.17,1189.86 2138.62,1199.76 2139.07,1210.83 2139.52,1221.58 2139.96,1230.36 2140.41,1236.08 2140.86,1238.5 2141.3,1238 2141.75,1235.15 2142.19,1230.67 2142.64,1225.53 2143.08,1220.72 2143.52,1216.99 2143.96,1214.71 2144.4,1213.96 2144.84,1214.65 2145.28,1216.75 2145.72,1220.31 2146.16,1225.34 2146.59,1231.69 2147.03,1238.83 2147.46,1245.81 2147.9,1251.49 2148.33,1254.97 2148.76,1256.12 2149.19,1255.43 2149.62,1253.58 2150.05,1250.91 2150.48,1247.36 2150.91,1242.71 2151.34,1237 2151.77,1230.76 2152.19,1224.97 2152.62,1220.72 2153.04,1218.83 2153.47,1219.66 2153.89,1222.85 2154.31,1227.25 2154.73,1231.04 2155.16,1232.58 2155.58,1231.64 2156,1229.6 2156.41,1228.4 2156.83,1229.32 2157.25,1232.46 2157.67,1236.59 2158.08,1239.46 2158.5,1239.1 2158.91,1235.49 2159.33,1230.64 2159.74,1226.94 2160.15,1225.96 2160.56,1228.13 2160.98,1232.85 2161.39,1238.65 2161.8,1243.52 2162.21,1245.88 2162.61,1245.54 2163.02,1243.67 2163.43,1241.68 2163.83,1240.38 2164.24,1239.91 2164.65,1240.04 2165.05,1240.5 2165.45,1241.23 2165.86,1242.43 2166.26,1244.5 2166.66,1247.89 2167.06,1252.82 2167.46,1259.06 2167.86,1265.88 2168.26,1272.1 2168.66,1276.23 2169.06,1276.96 2169.45,1273.93 2169.85,1268.16 2170.25,1261.53 2170.64,1255.78 2171.04,1252.07 2171.43,1250.87 2171.82,1252.06 2172.22,1254.98 2172.61,1258.65 2173,1261.99 2173.39,1264.35 2173.78,1265.7 2174.17,1266.6 2174.56,1267.74 2174.95,1269.63 2175.33,1272.42 2175.72,1275.95 2176.11,1279.77 2176.49,1283.29 2176.88,1285.93 2177.26,1287.17 2177.65,1286.65 2178.03,1284.15 2178.41,1279.76 2178.79,1273.96 2179.18,1267.58 2179.56,1261.55 2179.94,1256.62 2180.32,1253.27 2180.7,1251.61 2181.07,1251.47 2181.45,1252.51 2181.83,1254.4 2182.21,1256.77 2182.58,1259.13 2182.96,1260.8 2183.33,1261.09 2183.71,1259.68 2184.08,1256.77 2184.45,1253.05 2184.83,1249.44 2185.2,1246.68 2185.57,1244.98 2185.94,1244.04 2186.31,1243.24 2186.68,1242.11 2187.05,1240.7 2187.42,1239.56 2187.79,1239.47 2188.16,1241.11 2188.52,1244.85 2188.89,1250.69 2189.26,1258.31 2189.62,1267.06 2189.99,1275.8 2190.35,1282.65 2190.71,1285.36 2191.08,1282.85 2191.44,1276.33 2191.8,1268.21 2192.16,1260.41 2192.53,1253.77 2192.89,1248.38 2193.25,1244.04 2193.61,1240.55 2193.96,1237.78 2194.32,1235.41 2194.68,1232.69 2195.04,1228.5 2195.39,1221.83 2195.75,1212.48 2196.11,1201.11 2196.46,1188.52 2196.82,1175.04 2197.17,1160.66 2197.53,1145.59 2197.88,1130.5 2198.23,1116.4 2198.58,1104.3 2198.93,1095.06 2199.29,1089.23 2199.64,1087.01 2199.99,1088.21 2200.34,1092.3 2200.69,1098.67 2201.03,1106.92 2201.38,1116.89 2201.73,1128.54 2202.08,1141.69 2202.42,1156.14 2202.77,1171.72 2203.12,1188.34 2203.46,1205.77 2203.81,1223.51 2204.15,1240.77 2204.49,1256.71 2204.84,1270.53 2205.18,1281.65 2205.52,1289.78 2205.86,1295.06 2206.21,1298.09 2206.55,1299.58 2206.89,1300.16 2207.23,1300.5 2207.57,1301.4 2207.91,1303.68 2208.24,1307.83 2208.58,1313.82 2208.92,1321.01 2209.26,1328.3 2209.59,1334.34 2209.93,1337.97 2210.26,1338.64 2210.6,1336.48 2210.93,1332.19 2211.27,1326.7 2211.6,1320.94 2211.94,1315.75 2212.27,1311.8 2212.6,1309.54 2212.93,1309.21 2213.27,1310.76 2213.6,1313.88 2213.93,1317.96 2214.26,1322.22 2214.59,1326.01 2214.92,1329.02 2215.25,1331.38 2215.57,1333.47 2215.9,1335.42 2216.23,1336.9 2216.56,1337.21 2216.88,1335.72 2217.21,1332.45 2217.53,1328.12 2217.86,1323.84 2218.19,1320.64 2218.51,1319.12 2218.83,1319.4 2219.16,1321.1 2219.48,1323.54 2219.8,1325.95 2220.13,1327.83 2220.45,1329.12 2220.77,1330.14 2221.09,1331.32 2221.41,1332.9 2221.73,1334.72 2222.05,1336.3 2222.37,1337.08 2222.69,1336.72 2223.01,1335.32 2223.33,1333.25 2223.64,1330.98 2223.96,1328.85 2224.28,1327.03 2224.59,1325.6 2224.91,1324.62 2225.23,1324.13 2225.54,1324.16 2225.86,1324.74 2226.17,1325.85 2226.48,1327.44 2226.8,1329.43 2227.11,1331.72 2227.42,1334.17 2227.74,1336.54 2228.05,1338.48 2228.36,1339.63 2228.67,1339.78 2228.98,1339.08 2229.29,1338.03 2229.6,1337.25 2229.91,1337.27 2230.22,1338.28 2230.53,1340.11 2230.84,1342.28 2231.15,1344.22 2231.45,1345.52 2231.76,1346.12 2232.07,1346.2 2232.37,1346.05 2232.68,1345.87 2232.99,1345.75 2233.29,1345.66 2233.6,1345.57 2233.9,1345.46 2234.21,1345.38 2234.51,1345.33 2234.81,1345.3 2235.12,1345.19 2235.42,1344.9 2235.72,1344.41 2236.02,1343.8 2236.32,1343.31 2236.63,1343.25 2236.93,1343.92 2237.23,1345.44 2237.53,1347.72 2237.83,1350.44 2238.13,1353.12 2238.42,1355.31 2238.72,1356.78 2239.02,1357.54 2239.32,1357.83 2239.62,1357.9 2239.91,1357.91 2240.21,1357.89 2240.51,1357.77 2240.8,1357.47 2241.1,1356.96 2241.39,1356.31 2241.69,1355.61 2241.98,1354.97 2242.28,1354.48 2242.57,1354.2 2242.87,1354.14 2243.16,1354.27 2243.45,1354.48 2243.74,1354.64 2244.04,1354.65 2244.33,1354.46 2244.62,1354.18 2244.91,1353.98 2245.2,1354.07 2245.49,1354.6 2245.78,1355.57 2246.07,1356.85 2246.36,1358.19 2246.65,1359.32 2246.94,1360.08 2247.23,1360.4 2247.51,1360.35 2247.8,1360.08 2248.09,1359.71 2248.38,1359.38 2248.66,1359.16 2248.95,1359.08 2249.24,1359.16 2249.52,1359.4 2249.81,1359.8 2250.09,1360.38 2250.38,1361.12 2250.66,1361.99 2250.94,1362.92 2251.23,1363.83 2251.51,1364.64 2251.79,1365.29 2252.08,1365.71 2252.36,1365.88 2252.64,1365.83 2252.92,1365.66 2253.2,1365.48 2253.48,1365.39 2253.77,1365.43 2254.05,1365.6 2254.33,1365.84 2254.61,1366.08 2254.88,1366.28 2255.16,1366.45 2255.44,1366.59 2255.72,1366.73 2256,1366.91 2256.28,1367.17 2256.55,1367.54 2256.83,1368.03 2257.11,1368.58 2257.39,1369.09 2257.66,1369.41 2257.94,1369.46 2258.21,1369.25 2258.49,1368.87 2258.76,1368.51 2259.04,1368.32 2259.31,1368.35 2259.59,1368.58 2259.86,1368.91 2260.13,1369.24 2260.41,1369.53 2260.68,1369.78 2260.95,1370.05 2261.22,1370.38 2261.5,1370.79 2261.77,1371.28 2262.04,1371.82 2262.31,1372.37 2262.58,1372.88 2262.85,1373.3 2263.12,1373.6 2263.39,1373.75 2263.66,1373.74 2263.93,1373.62 2264.2,1373.44 2264.47,1373.25 2264.73,1373.11 2265,1373.05 2265.27,1373.07 2265.54,1373.18 2265.8,1373.36 2266.07,1373.58 2266.34,1373.83 2266.6,1374.07 2266.87,1374.28 2267.14,1374.47 2267.4,1374.63 2267.67,1374.78 2267.93,1374.94 2268.2,1375.1 2268.46,1375.28 2268.72,1375.46 2268.99,1375.61 2269.25,1375.75 2269.51,1375.87 2269.78,1376 2270.04,1376.17 2270.3,1376.4 2270.56,1376.69 2270.82,1377.01 2271.09,1377.35 2271.35,1377.66 2271.61,1377.92 2271.87,1378.09 2272.13,1378.19 2272.39,1378.24 2272.65,1378.28 2272.91,1378.34 2273.17,1378.45 2273.43,1378.6 2273.68,1378.8 2273.94,1379.03 2274.2,1379.28 2274.46,1379.52 2274.72,1379.74 2274.97,1379.91 2275.23,1380.04 2275.49,1380.14 2275.74,1380.24 2276,1380.36 2276.26,1380.5 2276.51,1380.66 2276.77,1380.79 2277.02,1380.89 2277.28,1380.96 2277.53,1380.99 2277.79,1381 2278.04,1381.02 2278.29,1381.04 2278.55,1381.05 2278.8,1381.07 2279.05,1381.09 2279.31,1381.12 2279.56,1381.17 2279.81,1381.23 2280.06,1381.28 2280.31,1381.32 2280.56,1381.35 2280.82,1381.37 2281.07,1381.39 2281.32,1381.45 2281.57,1381.53 2281.82,1381.66 2282.07,1381.81 2282.32,1381.98 2282.57,1382.16 2282.82,1382.33 2283.06,1382.48 2283.31,1382.6 2283.56,1382.7 2283.81,1382.78 2284.06,1382.86 2284.3,1382.96 2284.55,1383.05 2284.8,1383.15 2285.05,1383.23 2285.29,1383.28 2285.54,1383.32 2285.78,1383.34 2286.03,1383.37 2286.28,1383.4 2286.52,1383.43 2286.77,1383.45 2287.01,1383.44 2287.26,1383.41 2287.5,1383.37 2287.74,1383.34 2287.99,1383.34 2288.23,1383.4 2288.47,1383.5 2288.72,1383.64 2288.96,1383.79 2289.2,1383.94 2289.45,1384.05 2289.69,1384.11 2289.93,1384.11 2290.17,1384.06 2290.41,1383.99 2290.65,1383.93 2290.89,1383.89 2291.13,1383.9 2291.38,1383.95 2291.62,1384.03 2291.86,1384.12 2292.1,1384.2 2292.33,1384.24 2292.57,1384.22 2292.81,1384.13 2293.05,1383.98 2293.29,1383.81 2293.53,1383.64 2293.77,1383.51 2294,1383.45 "/>
<path clip-path="url(#clip530)" d="M346.072 1377.32 L857.038 1377.32 L857.038 1118.12 L346.072 1118.12  Z" fill="#ffffff" fill-rule="evenodd" fill-opacity="1"/>
<polyline clip-path="url(#clip530)" style="stroke:#000000; stroke-linecap:round; stroke-linejoin:round; stroke-width:4; stroke-opacity:1; fill:none" points="346.072,1377.32 857.038,1377.32 857.038,1118.12 346.072,1118.12 346.072,1377.32 "/>
<polyline clip-path="url(#clip530)" style="stroke:#009af9; stroke-linecap:round; stroke-linejoin:round; stroke-width:4; stroke-opacity:1; fill:none" points="369.137,1169.96 507.529,1169.96 "/>
<path clip-path="url(#clip530)" d="M535.27 1156.52 L535.27 1169.5 L541.15 1169.5 Q544.414 1169.5 546.196 1167.81 Q547.978 1166.12 547.978 1163 Q547.978 1159.9 546.196 1158.21 Q544.414 1156.52 541.15 1156.52 L535.27 1156.52 M530.594 1152.68 L541.15 1152.68 Q546.96 1152.68 549.923 1155.31 Q552.909 1157.93 552.909 1163 Q552.909 1168.12 549.923 1170.73 Q546.96 1173.35 541.15 1173.35 L535.27 1173.35 L535.27 1187.24 L530.594 1187.24 L530.594 1152.68 Z" fill="#000000" fill-rule="nonzero" fill-opacity="1" /><path clip-path="url(#clip530)" d="M559.182 1152.68 L581.034 1152.68 L581.034 1156.61 L563.858 1156.61 L563.858 1166.84 L580.316 1166.84 L580.316 1170.78 L563.858 1170.78 L563.858 1183.3 L581.45 1183.3 L581.45 1187.24 L559.182 1187.24 L559.182 1152.68 Z" fill="#000000" fill-rule="nonzero" fill-opacity="1" /><path clip-path="url(#clip530)" d="M589.136 1152.68 L596.103 1152.68 L604.923 1176.19 L613.788 1152.68 L620.756 1152.68 L620.756 1187.24 L616.196 1187.24 L616.196 1156.89 L607.284 1180.59 L602.585 1180.59 L593.673 1156.89 L593.673 1187.24 L589.136 1187.24 L589.136 1152.68 Z" fill="#000000" fill-rule="nonzero" fill-opacity="1" /><polyline clip-path="url(#clip530)" style="stroke:#e26f46; stroke-linecap:round; stroke-linejoin:round; stroke-width:4; stroke-opacity:1; fill:none" points="369.137,1221.8 507.529,1221.8 "/>
<path clip-path="url(#clip530)" d="M552.839 1205.65 L552.839 1210.21 Q550.177 1208.94 547.816 1208.31 Q545.455 1207.69 543.256 1207.69 Q539.437 1207.69 537.353 1209.17 Q535.293 1210.65 535.293 1213.38 Q535.293 1215.67 536.659 1216.85 Q538.048 1218.01 541.89 1218.73 L544.715 1219.31 Q549.946 1220.3 552.423 1222.83 Q554.923 1225.33 554.923 1229.54 Q554.923 1234.56 551.543 1237.15 Q548.187 1239.75 541.682 1239.75 Q539.228 1239.75 536.451 1239.19 Q533.696 1238.64 530.733 1237.55 L530.733 1232.73 Q533.58 1234.33 536.312 1235.14 Q539.043 1235.95 541.682 1235.95 Q545.687 1235.95 547.863 1234.38 Q550.039 1232.8 550.039 1229.89 Q550.039 1227.34 548.464 1225.9 Q546.914 1224.47 543.349 1223.75 L540.502 1223.2 Q535.27 1222.15 532.932 1219.93 Q530.594 1217.71 530.594 1213.75 Q530.594 1209.17 533.812 1206.53 Q537.053 1203.89 542.724 1203.89 Q545.154 1203.89 547.677 1204.33 Q550.201 1204.77 552.839 1205.65 Z" fill="#000000" fill-rule="nonzero" fill-opacity="1" /><path clip-path="url(#clip530)" d="M561.589 1228.84 L561.589 1213.15 L565.849 1213.15 L565.849 1228.68 Q565.849 1232.36 567.284 1234.21 Q568.719 1236.04 571.589 1236.04 Q575.038 1236.04 577.029 1233.84 Q579.043 1231.64 579.043 1227.85 L579.043 1213.15 L583.302 1213.15 L583.302 1239.08 L579.043 1239.08 L579.043 1235.09 Q577.492 1237.45 575.432 1238.61 Q573.395 1239.75 570.687 1239.75 Q566.219 1239.75 563.904 1236.97 Q561.589 1234.19 561.589 1228.84 M572.307 1212.52 L572.307 1212.52 Z" fill="#000000" fill-rule="nonzero" fill-opacity="1" /><path clip-path="url(#clip530)" d="M610.686 1226.14 Q610.686 1221.44 608.742 1218.77 Q606.821 1216.09 603.441 1216.09 Q600.061 1216.09 598.117 1218.77 Q596.196 1221.44 596.196 1226.14 Q596.196 1230.83 598.117 1233.52 Q600.061 1236.18 603.441 1236.18 Q606.821 1236.18 608.742 1233.52 Q610.686 1230.83 610.686 1226.14 M596.196 1217.08 Q597.538 1214.77 599.575 1213.66 Q601.636 1212.52 604.483 1212.52 Q609.205 1212.52 612.145 1216.27 Q615.108 1220.02 615.108 1226.14 Q615.108 1232.25 612.145 1236 Q609.205 1239.75 604.483 1239.75 Q601.636 1239.75 599.575 1238.64 Q597.538 1237.5 596.196 1235.19 L596.196 1239.08 L591.913 1239.08 L591.913 1203.06 L596.196 1203.06 L596.196 1217.08 Z" fill="#000000" fill-rule="nonzero" fill-opacity="1" /><path clip-path="url(#clip530)" d="M638.695 1213.91 L638.695 1217.94 Q636.89 1217.02 634.946 1216.55 Q633.001 1216.09 630.918 1216.09 Q627.746 1216.09 626.149 1217.06 Q624.575 1218.03 624.575 1219.98 Q624.575 1221.46 625.709 1222.32 Q626.844 1223.15 630.27 1223.91 L631.728 1224.24 Q636.265 1225.21 638.163 1226.99 Q640.084 1228.75 640.084 1231.92 Q640.084 1235.53 637.214 1237.64 Q634.367 1239.75 629.367 1239.75 Q627.284 1239.75 625.015 1239.33 Q622.77 1238.94 620.27 1238.13 L620.27 1233.73 Q622.631 1234.95 624.922 1235.58 Q627.214 1236.18 629.459 1236.18 Q632.469 1236.18 634.089 1235.16 Q635.709 1234.12 635.709 1232.25 Q635.709 1230.51 634.529 1229.58 Q633.371 1228.66 629.413 1227.8 L627.932 1227.46 Q623.973 1226.62 622.214 1224.91 Q620.455 1223.17 620.455 1220.16 Q620.455 1216.51 623.047 1214.52 Q625.64 1212.52 630.409 1212.52 Q632.77 1212.52 634.853 1212.87 Q636.936 1213.22 638.695 1213.91 Z" fill="#000000" fill-rule="nonzero" fill-opacity="1" /><path clip-path="url(#clip530)" d="M650.987 1235.19 L650.987 1248.94 L646.705 1248.94 L646.705 1213.15 L650.987 1213.15 L650.987 1217.08 Q652.33 1214.77 654.367 1213.66 Q656.427 1212.52 659.274 1212.52 Q663.996 1212.52 666.936 1216.27 Q669.899 1220.02 669.899 1226.14 Q669.899 1232.25 666.936 1236 Q663.996 1239.75 659.274 1239.75 Q656.427 1239.75 654.367 1238.64 Q652.33 1237.5 650.987 1235.19 M665.478 1226.14 Q665.478 1221.44 663.533 1218.77 Q661.612 1216.09 658.232 1216.09 Q654.853 1216.09 652.908 1218.77 Q650.987 1221.44 650.987 1226.14 Q650.987 1230.83 652.908 1233.52 Q654.853 1236.18 658.232 1236.18 Q661.612 1236.18 663.533 1233.52 Q665.478 1230.83 665.478 1226.14 Z" fill="#000000" fill-rule="nonzero" fill-opacity="1" /><path clip-path="url(#clip530)" d="M688.742 1226.04 Q683.58 1226.04 681.589 1227.22 Q679.598 1228.4 679.598 1231.25 Q679.598 1233.52 681.08 1234.86 Q682.584 1236.18 685.154 1236.18 Q688.695 1236.18 690.825 1233.68 Q692.978 1231.16 692.978 1226.99 L692.978 1226.04 L688.742 1226.04 M697.237 1224.28 L697.237 1239.08 L692.978 1239.08 L692.978 1235.14 Q691.519 1237.5 689.343 1238.64 Q687.167 1239.75 684.019 1239.75 Q680.038 1239.75 677.677 1237.52 Q675.339 1235.28 675.339 1231.53 Q675.339 1227.15 678.255 1224.93 Q681.195 1222.71 687.005 1222.71 L692.978 1222.71 L692.978 1222.29 Q692.978 1219.35 691.033 1217.76 Q689.112 1216.14 685.617 1216.14 Q683.394 1216.14 681.288 1216.67 Q679.181 1217.2 677.237 1218.27 L677.237 1214.33 Q679.575 1213.43 681.774 1212.99 Q683.973 1212.52 686.056 1212.52 Q691.681 1212.52 694.459 1215.44 Q697.237 1218.36 697.237 1224.28 Z" fill="#000000" fill-rule="nonzero" fill-opacity="1" /><path clip-path="url(#clip530)" d="M724.667 1214.14 L724.667 1218.13 Q722.862 1217.13 721.033 1216.64 Q719.227 1216.14 717.376 1216.14 Q713.232 1216.14 710.94 1218.77 Q708.649 1221.39 708.649 1226.14 Q708.649 1230.88 710.94 1233.52 Q713.232 1236.14 717.376 1236.14 Q719.227 1236.14 721.033 1235.65 Q722.862 1235.14 724.667 1234.14 L724.667 1238.08 Q722.885 1238.91 720.964 1239.33 Q719.065 1239.75 716.913 1239.75 Q711.056 1239.75 707.607 1236.07 Q704.158 1232.39 704.158 1226.14 Q704.158 1219.79 707.63 1216.16 Q711.126 1212.52 717.19 1212.52 Q719.158 1212.52 721.033 1212.94 Q722.908 1213.33 724.667 1214.14 Z" fill="#000000" fill-rule="nonzero" fill-opacity="1" /><path clip-path="url(#clip530)" d="M754.25 1225.05 L754.25 1227.13 L734.667 1227.13 Q734.945 1231.53 737.306 1233.84 Q739.69 1236.14 743.926 1236.14 Q746.38 1236.14 748.672 1235.53 Q750.987 1234.93 753.255 1233.73 L753.255 1237.76 Q750.963 1238.73 748.556 1239.24 Q746.149 1239.75 743.672 1239.75 Q737.468 1239.75 733.834 1236.14 Q730.223 1232.52 730.223 1226.37 Q730.223 1220 733.649 1216.27 Q737.098 1212.52 742.931 1212.52 Q748.163 1212.52 751.195 1215.9 Q754.25 1219.26 754.25 1225.05 M749.991 1223.8 Q749.945 1220.3 748.024 1218.22 Q746.125 1216.14 742.977 1216.14 Q739.413 1216.14 737.26 1218.15 Q735.13 1220.16 734.806 1223.82 L749.991 1223.8 Z" fill="#000000" fill-rule="nonzero" fill-opacity="1" /><polyline clip-path="url(#clip530)" style="stroke:#3da44d; stroke-linecap:round; stroke-linejoin:round; stroke-width:4; stroke-opacity:1; fill:none" points="369.137,1273.64 507.529,1273.64 "/>
<path clip-path="url(#clip530)" d="M530.594 1256.36 L552.446 1256.36 L552.446 1260.29 L535.27 1260.29 L535.27 1270.52 L551.728 1270.52 L551.728 1274.46 L535.27 1274.46 L535.27 1286.98 L552.863 1286.98 L552.863 1290.92 L530.594 1290.92 L530.594 1256.36 Z" fill="#000000" fill-rule="nonzero" fill-opacity="1" /><path clip-path="url(#clip530)" d="M576.89 1265.75 L576.89 1269.78 Q575.085 1268.86 573.14 1268.39 Q571.196 1267.93 569.113 1267.93 Q565.941 1267.93 564.344 1268.9 Q562.77 1269.87 562.77 1271.82 Q562.77 1273.3 563.904 1274.16 Q565.038 1274.99 568.464 1275.75 L569.923 1276.08 Q574.46 1277.05 576.358 1278.83 Q578.279 1280.59 578.279 1283.76 Q578.279 1287.37 575.409 1289.48 Q572.562 1291.59 567.562 1291.59 Q565.478 1291.59 563.21 1291.17 Q560.964 1290.78 558.464 1289.97 L558.464 1285.57 Q560.826 1286.79 563.117 1287.42 Q565.409 1288.02 567.654 1288.02 Q570.663 1288.02 572.284 1287 Q573.904 1285.96 573.904 1284.09 Q573.904 1282.35 572.724 1281.42 Q571.566 1280.5 567.608 1279.64 L566.126 1279.3 Q562.168 1278.46 560.409 1276.75 Q558.65 1275.01 558.65 1272 Q558.65 1268.35 561.242 1266.36 Q563.835 1264.36 568.603 1264.36 Q570.964 1264.36 573.048 1264.71 Q575.131 1265.06 576.89 1265.75 Z" fill="#000000" fill-rule="nonzero" fill-opacity="1" /><path clip-path="url(#clip530)" d="M589.274 1257.63 L589.274 1264.99 L598.048 1264.99 L598.048 1268.3 L589.274 1268.3 L589.274 1282.37 Q589.274 1285.54 590.131 1286.45 Q591.011 1287.35 593.673 1287.35 L598.048 1287.35 L598.048 1290.92 L593.673 1290.92 Q588.742 1290.92 586.867 1289.09 Q584.992 1287.23 584.992 1282.37 L584.992 1268.3 L581.867 1268.3 L581.867 1264.99 L584.992 1264.99 L584.992 1257.63 L589.274 1257.63 Z" fill="#000000" fill-rule="nonzero" fill-opacity="1" /><path clip-path="url(#clip530)" d="M603.649 1264.99 L607.909 1264.99 L607.909 1290.92 L603.649 1290.92 L603.649 1264.99 M603.649 1254.9 L607.909 1254.9 L607.909 1260.29 L603.649 1260.29 L603.649 1254.9 Z" fill="#000000" fill-rule="nonzero" fill-opacity="1" /><path clip-path="url(#clip530)" d="M637.006 1269.97 Q638.603 1267.1 640.825 1265.73 Q643.047 1264.36 646.057 1264.36 Q650.107 1264.36 652.307 1267.21 Q654.506 1270.04 654.506 1275.27 L654.506 1290.92 L650.223 1290.92 L650.223 1275.41 Q650.223 1271.68 648.904 1269.87 Q647.584 1268.07 644.876 1268.07 Q641.566 1268.07 639.645 1270.27 Q637.723 1272.47 637.723 1276.26 L637.723 1290.92 L633.441 1290.92 L633.441 1275.41 Q633.441 1271.66 632.121 1269.87 Q630.802 1268.07 628.047 1268.07 Q624.784 1268.07 622.862 1270.29 Q620.941 1272.49 620.941 1276.26 L620.941 1290.92 L616.659 1290.92 L616.659 1264.99 L620.941 1264.99 L620.941 1269.02 Q622.399 1266.63 624.436 1265.5 Q626.473 1264.36 629.274 1264.36 Q632.098 1264.36 634.066 1265.8 Q636.057 1267.23 637.006 1269.97 Z" fill="#000000" fill-rule="nonzero" fill-opacity="1" /><path clip-path="url(#clip530)" d="M674.783 1277.88 Q669.621 1277.88 667.631 1279.06 Q665.64 1280.24 665.64 1283.09 Q665.64 1285.36 667.121 1286.7 Q668.626 1288.02 671.195 1288.02 Q674.737 1288.02 676.867 1285.52 Q679.019 1283 679.019 1278.83 L679.019 1277.88 L674.783 1277.88 M683.279 1276.12 L683.279 1290.92 L679.019 1290.92 L679.019 1286.98 Q677.561 1289.34 675.385 1290.48 Q673.209 1291.59 670.061 1291.59 Q666.08 1291.59 663.719 1289.36 Q661.381 1287.12 661.381 1283.37 Q661.381 1278.99 664.297 1276.77 Q667.237 1274.55 673.047 1274.55 L679.019 1274.55 L679.019 1274.13 Q679.019 1271.19 677.075 1269.6 Q675.154 1267.98 671.658 1267.98 Q669.436 1267.98 667.33 1268.51 Q665.223 1269.04 663.279 1270.11 L663.279 1266.17 Q665.617 1265.27 667.816 1264.83 Q670.015 1264.36 672.098 1264.36 Q677.723 1264.36 680.501 1267.28 Q683.279 1270.2 683.279 1276.12 Z" fill="#000000" fill-rule="nonzero" fill-opacity="1" /><path clip-path="url(#clip530)" d="M696.265 1257.63 L696.265 1264.99 L705.038 1264.99 L705.038 1268.3 L696.265 1268.3 L696.265 1282.37 Q696.265 1285.54 697.121 1286.45 Q698.001 1287.35 700.663 1287.35 L705.038 1287.35 L705.038 1290.92 L700.663 1290.92 Q695.732 1290.92 693.857 1289.09 Q691.982 1287.23 691.982 1282.37 L691.982 1268.3 L688.857 1268.3 L688.857 1264.99 L691.982 1264.99 L691.982 1257.63 L696.265 1257.63 Z" fill="#000000" fill-rule="nonzero" fill-opacity="1" /><path clip-path="url(#clip530)" d="M732.815 1276.89 L732.815 1278.97 L713.232 1278.97 Q713.51 1283.37 715.871 1285.68 Q718.255 1287.98 722.491 1287.98 Q724.945 1287.98 727.237 1287.37 Q729.551 1286.77 731.82 1285.57 L731.82 1289.6 Q729.528 1290.57 727.121 1291.08 Q724.714 1291.59 722.237 1291.59 Q716.033 1291.59 712.399 1287.98 Q708.788 1284.36 708.788 1278.21 Q708.788 1271.84 712.214 1268.11 Q715.663 1264.36 721.496 1264.36 Q726.727 1264.36 729.76 1267.74 Q732.815 1271.1 732.815 1276.89 M728.556 1275.64 Q728.51 1272.14 726.589 1270.06 Q724.69 1267.98 721.542 1267.98 Q717.977 1267.98 715.825 1269.99 Q713.695 1272 713.371 1275.66 L728.556 1275.64 Z" fill="#000000" fill-rule="nonzero" fill-opacity="1" /><path clip-path="url(#clip530)" d="M756.866 1268.92 L756.866 1254.9 L761.125 1254.9 L761.125 1290.92 L756.866 1290.92 L756.866 1287.03 Q755.524 1289.34 753.463 1290.48 Q751.426 1291.59 748.556 1291.59 Q743.857 1291.59 740.894 1287.84 Q737.954 1284.09 737.954 1277.98 Q737.954 1271.86 740.894 1268.11 Q743.857 1264.36 748.556 1264.36 Q751.426 1264.36 753.463 1265.5 Q755.524 1266.61 756.866 1268.92 M742.352 1277.98 Q742.352 1282.67 744.274 1285.36 Q746.218 1288.02 749.598 1288.02 Q752.977 1288.02 754.922 1285.36 Q756.866 1282.67 756.866 1277.98 Q756.866 1273.28 754.922 1270.61 Q752.977 1267.93 749.598 1267.93 Q746.218 1267.93 744.274 1270.61 Q742.352 1273.28 742.352 1277.98 Z" fill="#000000" fill-rule="nonzero" fill-opacity="1" /><path clip-path="url(#clip530)" d="M780.361 1256.36 L809.597 1256.36 L809.597 1260.29 L797.329 1260.29 L797.329 1290.92 L792.63 1290.92 L792.63 1260.29 L780.361 1260.29 L780.361 1256.36 Z" fill="#000000" fill-rule="nonzero" fill-opacity="1" /><path clip-path="url(#clip530)" d="M814.111 1256.36 L833.972 1256.36 L833.972 1260.29 L818.787 1260.29 L818.787 1270.48 L832.491 1270.48 L832.491 1274.41 L818.787 1274.41 L818.787 1290.92 L814.111 1290.92 L814.111 1256.36 Z" fill="#000000" fill-rule="nonzero" fill-opacity="1" /><polyline clip-path="url(#clip530)" style="stroke:#c271d2; stroke-linecap:round; stroke-linejoin:round; stroke-width:4; stroke-opacity:1; fill:none" points="369.137,1325.48 507.529,1325.48 "/>
<path clip-path="url(#clip530)" d="M530.594 1308.2 L536.89 1308.2 L552.214 1337.11 L552.214 1308.2 L556.751 1308.2 L556.751 1342.76 L550.455 1342.76 L535.131 1313.84 L535.131 1342.76 L530.594 1342.76 L530.594 1308.2 Z" fill="#000000" fill-rule="nonzero" fill-opacity="1" /><path clip-path="url(#clip530)" d="M575.918 1319.82 Q572.492 1319.82 570.501 1322.5 Q568.511 1325.16 568.511 1329.82 Q568.511 1334.47 570.478 1337.15 Q572.469 1339.82 575.918 1339.82 Q579.321 1339.82 581.312 1337.13 Q583.302 1334.45 583.302 1329.82 Q583.302 1325.21 581.312 1322.52 Q579.321 1319.82 575.918 1319.82 M575.918 1316.2 Q581.474 1316.2 584.645 1319.82 Q587.816 1323.43 587.816 1329.82 Q587.816 1336.18 584.645 1339.82 Q581.474 1343.43 575.918 1343.43 Q570.339 1343.43 567.168 1339.82 Q564.02 1336.18 564.02 1329.82 Q564.02 1323.43 567.168 1319.82 Q570.339 1316.2 575.918 1316.2 Z" fill="#000000" fill-rule="nonzero" fill-opacity="1" /><path clip-path="url(#clip530)" d="M594.876 1316.83 L599.136 1316.83 L599.136 1342.76 L594.876 1342.76 L594.876 1316.83 M594.876 1306.74 L599.136 1306.74 L599.136 1312.13 L594.876 1312.13 L594.876 1306.74 Z" fill="#000000" fill-rule="nonzero" fill-opacity="1" /><path clip-path="url(#clip530)" d="M624.575 1317.59 L624.575 1321.62 Q622.77 1320.7 620.825 1320.23 Q618.881 1319.77 616.797 1319.77 Q613.626 1319.77 612.029 1320.74 Q610.455 1321.71 610.455 1323.66 Q610.455 1325.14 611.589 1326 Q612.723 1326.83 616.149 1327.59 L617.608 1327.92 Q622.145 1328.89 624.043 1330.67 Q625.964 1332.43 625.964 1335.6 Q625.964 1339.21 623.094 1341.32 Q620.247 1343.43 615.247 1343.43 Q613.163 1343.43 610.895 1343.01 Q608.649 1342.62 606.149 1341.81 L606.149 1337.41 Q608.51 1338.63 610.802 1339.26 Q613.094 1339.86 615.339 1339.86 Q618.348 1339.86 619.969 1338.84 Q621.589 1337.8 621.589 1335.93 Q621.589 1334.19 620.409 1333.26 Q619.251 1332.34 615.293 1331.48 L613.811 1331.14 Q609.853 1330.3 608.094 1328.59 Q606.335 1326.85 606.335 1323.84 Q606.335 1320.19 608.927 1318.2 Q611.52 1316.2 616.288 1316.2 Q618.649 1316.2 620.733 1316.55 Q622.816 1316.9 624.575 1317.59 Z" fill="#000000" fill-rule="nonzero" fill-opacity="1" /><path clip-path="url(#clip530)" d="M654.922 1328.73 L654.922 1330.81 L635.339 1330.81 Q635.617 1335.21 637.978 1337.52 Q640.362 1339.82 644.598 1339.82 Q647.052 1339.82 649.344 1339.21 Q651.658 1338.61 653.927 1337.41 L653.927 1341.44 Q651.635 1342.41 649.228 1342.92 Q646.82 1343.43 644.344 1343.43 Q638.14 1343.43 634.506 1339.82 Q630.895 1336.2 630.895 1330.05 Q630.895 1323.68 634.321 1319.95 Q637.77 1316.2 643.603 1316.2 Q648.834 1316.2 651.867 1319.58 Q654.922 1322.94 654.922 1328.73 M650.663 1327.48 Q650.617 1323.98 648.695 1321.9 Q646.797 1319.82 643.649 1319.82 Q640.084 1319.82 637.932 1321.83 Q635.802 1323.84 635.478 1327.5 L650.663 1327.48 Z" fill="#000000" fill-rule="nonzero" fill-opacity="1" /></svg>
