<?xml version="1.0" encoding="utf-8"?>
<svg xmlns="http://www.w3.org/2000/svg" xmlns:xlink="http://www.w3.org/1999/xlink" width="600" height="400" viewBox="0 0 2400 1600">
<defs>
  <clipPath id="clip450">
    <rect x="0" y="0" width="2400" height="1600"/>
  </clipPath>
</defs>
<path clip-path="url(#clip450)" d="M0 1600 L2400 1600 L2400 0 L0 0  Z" fill="#ffffff" fill-rule="evenodd" fill-opacity="1"/>
<defs>
  <clipPath id="clip451">
    <rect x="287" y="847" width="2066" height="577"/>
  </clipPath>
</defs>
<path clip-path="url(#clip450)" d="M287.366 623.18 L2352.76 623.18 L2352.76 47.2441 L287.366 47.2441  Z" fill="#ffffff" fill-rule="evenodd" fill-opacity="1"/>
<defs>
  <clipPath id="clip452">
    <rect x="287" y="47" width="2066" height="577"/>
  </clipPath>
</defs>
<polyline clip-path="url(#clip452)" style="stroke:#000000; stroke-linecap:round; stroke-linejoin:round; stroke-width:2; stroke-opacity:0.1; fill:none" points="345.82,623.18 345.82,47.2441 "/>
<polyline clip-path="url(#clip452)" style="stroke:#000000; stroke-linecap:round; stroke-linejoin:round; stroke-width:2; stroke-opacity:0.1; fill:none" points="736.298,623.18 736.298,47.2441 "/>
<polyline clip-path="url(#clip452)" style="stroke:#000000; stroke-linecap:round; stroke-linejoin:round; stroke-width:2; stroke-opacity:0.1; fill:none" points="1126.77,623.18 1126.77,47.2441 "/>
<polyline clip-path="url(#clip452)" style="stroke:#000000; stroke-linecap:round; stroke-linejoin:round; stroke-width:2; stroke-opacity:0.1; fill:none" points="1517.25,623.18 1517.25,47.2441 "/>
<polyline clip-path="url(#clip452)" style="stroke:#000000; stroke-linecap:round; stroke-linejoin:round; stroke-width:2; stroke-opacity:0.1; fill:none" points="1907.73,623.18 1907.73,47.2441 "/>
<polyline clip-path="url(#clip452)" style="stroke:#000000; stroke-linecap:round; stroke-linejoin:round; stroke-width:2; stroke-opacity:0.1; fill:none" points="2298.21,623.18 2298.21,47.2441 "/>
<polyline clip-path="url(#clip452)" style="stroke:#000000; stroke-linecap:round; stroke-linejoin:round; stroke-width:2; stroke-opacity:0.1; fill:none" points="287.366,562.185 2352.76,562.185 "/>
<polyline clip-path="url(#clip452)" style="stroke:#000000; stroke-linecap:round; stroke-linejoin:round; stroke-width:2; stroke-opacity:0.1; fill:none" points="287.366,464.94 2352.76,464.94 "/>
<polyline clip-path="url(#clip452)" style="stroke:#000000; stroke-linecap:round; stroke-linejoin:round; stroke-width:2; stroke-opacity:0.1; fill:none" points="287.366,367.694 2352.76,367.694 "/>
<polyline clip-path="url(#clip452)" style="stroke:#000000; stroke-linecap:round; stroke-linejoin:round; stroke-width:2; stroke-opacity:0.1; fill:none" points="287.366,270.449 2352.76,270.449 "/>
<polyline clip-path="url(#clip452)" style="stroke:#000000; stroke-linecap:round; stroke-linejoin:round; stroke-width:2; stroke-opacity:0.1; fill:none" points="287.366,173.203 2352.76,173.203 "/>
<polyline clip-path="url(#clip452)" style="stroke:#000000; stroke-linecap:round; stroke-linejoin:round; stroke-width:2; stroke-opacity:0.1; fill:none" points="287.366,75.9573 2352.76,75.9573 "/>
<polyline clip-path="url(#clip450)" style="stroke:#000000; stroke-linecap:round; stroke-linejoin:round; stroke-width:4; stroke-opacity:1; fill:none" points="287.366,623.18 2352.76,623.18 "/>
<polyline clip-path="url(#clip450)" style="stroke:#000000; stroke-linecap:round; stroke-linejoin:round; stroke-width:4; stroke-opacity:1; fill:none" points="345.82,623.18 345.82,604.282 "/>
<polyline clip-path="url(#clip450)" style="stroke:#000000; stroke-linecap:round; stroke-linejoin:round; stroke-width:4; stroke-opacity:1; fill:none" points="736.298,623.18 736.298,604.282 "/>
<polyline clip-path="url(#clip450)" style="stroke:#000000; stroke-linecap:round; stroke-linejoin:round; stroke-width:4; stroke-opacity:1; fill:none" points="1126.77,623.18 1126.77,604.282 "/>
<polyline clip-path="url(#clip450)" style="stroke:#000000; stroke-linecap:round; stroke-linejoin:round; stroke-width:4; stroke-opacity:1; fill:none" points="1517.25,623.18 1517.25,604.282 "/>
<polyline clip-path="url(#clip450)" style="stroke:#000000; stroke-linecap:round; stroke-linejoin:round; stroke-width:4; stroke-opacity:1; fill:none" points="1907.73,623.18 1907.73,604.282 "/>
<polyline clip-path="url(#clip450)" style="stroke:#000000; stroke-linecap:round; stroke-linejoin:round; stroke-width:4; stroke-opacity:1; fill:none" points="2298.21,623.18 2298.21,604.282 "/>
<path clip-path="url(#clip450)" d="M345.82 654.099 Q342.209 654.099 340.381 657.663 Q338.575 661.205 338.575 668.335 Q338.575 675.441 340.381 679.006 Q342.209 682.547 345.82 682.547 Q349.455 682.547 351.26 679.006 Q353.089 675.441 353.089 668.335 Q353.089 661.205 351.26 657.663 Q349.455 654.099 345.82 654.099 M345.82 650.395 Q351.63 650.395 354.686 655.001 Q357.765 659.585 357.765 668.335 Q357.765 677.061 354.686 681.668 Q351.63 686.251 345.82 686.251 Q340.01 686.251 336.931 681.668 Q333.876 677.061 333.876 668.335 Q333.876 659.585 336.931 655.001 Q340.01 650.395 345.82 650.395 Z" fill="#000000" fill-rule="nonzero" fill-opacity="1" /><path clip-path="url(#clip450)" d="M726.68 681.645 L734.318 681.645 L734.318 655.279 L726.008 656.946 L726.008 652.687 L734.272 651.02 L738.948 651.02 L738.948 681.645 L746.587 681.645 L746.587 685.58 L726.68 685.58 L726.68 681.645 Z" fill="#000000" fill-rule="nonzero" fill-opacity="1" /><path clip-path="url(#clip450)" d="M1121.43 681.645 L1137.75 681.645 L1137.75 685.58 L1115.8 685.58 L1115.8 681.645 Q1118.46 678.89 1123.05 674.26 Q1127.65 669.608 1128.83 668.265 Q1131.08 665.742 1131.96 664.006 Q1132.86 662.247 1132.86 660.557 Q1132.86 657.802 1130.92 656.066 Q1129 654.33 1125.9 654.33 Q1123.7 654.33 1121.24 655.094 Q1118.81 655.858 1116.03 657.409 L1116.03 652.687 Q1118.86 651.552 1121.31 650.974 Q1123.77 650.395 1125.8 650.395 Q1131.17 650.395 1134.37 653.08 Q1137.56 655.765 1137.56 660.256 Q1137.56 662.386 1136.75 664.307 Q1135.96 666.205 1133.86 668.798 Q1133.28 669.469 1130.18 672.686 Q1127.08 675.881 1121.43 681.645 Z" fill="#000000" fill-rule="nonzero" fill-opacity="1" /><path clip-path="url(#clip450)" d="M1521.5 666.946 Q1524.86 667.663 1526.73 669.932 Q1528.63 672.2 1528.63 675.534 Q1528.63 680.649 1525.11 683.45 Q1521.59 686.251 1515.11 686.251 Q1512.93 686.251 1510.62 685.811 Q1508.33 685.395 1505.87 684.538 L1505.87 680.024 Q1507.82 681.159 1510.13 681.737 Q1512.45 682.316 1514.97 682.316 Q1519.37 682.316 1521.66 680.58 Q1523.98 678.844 1523.98 675.534 Q1523.98 672.478 1521.82 670.765 Q1519.69 669.029 1515.87 669.029 L1511.85 669.029 L1511.85 665.186 L1516.06 665.186 Q1519.51 665.186 1521.34 663.821 Q1523.17 662.432 1523.17 659.839 Q1523.17 657.177 1521.27 655.765 Q1519.39 654.33 1515.87 654.33 Q1513.95 654.33 1511.75 654.747 Q1509.56 655.163 1506.92 656.043 L1506.92 651.876 Q1509.58 651.136 1511.89 650.765 Q1514.23 650.395 1516.29 650.395 Q1521.62 650.395 1524.72 652.825 Q1527.82 655.233 1527.82 659.353 Q1527.82 662.223 1526.18 664.214 Q1524.53 666.182 1521.5 666.946 Z" fill="#000000" fill-rule="nonzero" fill-opacity="1" /><path clip-path="url(#clip450)" d="M1910.74 655.094 L1898.93 673.543 L1910.74 673.543 L1910.74 655.094 M1909.51 651.02 L1915.39 651.02 L1915.39 673.543 L1920.32 673.543 L1920.32 677.432 L1915.39 677.432 L1915.39 685.58 L1910.74 685.58 L1910.74 677.432 L1895.14 677.432 L1895.14 672.918 L1909.51 651.02 Z" fill="#000000" fill-rule="nonzero" fill-opacity="1" /><path clip-path="url(#clip450)" d="M2288.48 651.02 L2306.84 651.02 L2306.84 654.955 L2292.77 654.955 L2292.77 663.427 Q2293.78 663.08 2294.8 662.918 Q2295.82 662.733 2296.84 662.733 Q2302.63 662.733 2306.01 665.904 Q2309.39 669.075 2309.39 674.492 Q2309.39 680.071 2305.91 683.172 Q2302.44 686.251 2296.12 686.251 Q2293.95 686.251 2291.68 685.881 Q2289.43 685.51 2287.03 684.77 L2287.03 680.071 Q2289.11 681.205 2291.33 681.76 Q2293.55 682.316 2296.03 682.316 Q2300.03 682.316 2302.37 680.21 Q2304.71 678.103 2304.71 674.492 Q2304.71 670.881 2302.37 668.774 Q2300.03 666.668 2296.03 666.668 Q2294.16 666.668 2292.28 667.085 Q2290.43 667.501 2288.48 668.381 L2288.48 651.02 Z" fill="#000000" fill-rule="nonzero" fill-opacity="1" /><path clip-path="url(#clip450)" d="M1190.23 720.524 L1230.43 720.524 L1230.43 725.935 L1213.56 725.935 L1213.56 768.044 L1207.1 768.044 L1207.1 725.935 L1190.23 725.935 L1190.23 720.524 Z" fill="#000000" fill-rule="nonzero" fill-opacity="1" /><path clip-path="url(#clip450)" d="M1234.38 732.396 L1240.23 732.396 L1240.23 768.044 L1234.38 768.044 L1234.38 732.396 M1234.38 718.519 L1240.23 718.519 L1240.23 725.935 L1234.38 725.935 L1234.38 718.519 Z" fill="#000000" fill-rule="nonzero" fill-opacity="1" /><path clip-path="url(#clip450)" d="M1280.24 739.239 Q1282.44 735.292 1285.5 733.414 Q1288.55 731.537 1292.69 731.537 Q1298.26 731.537 1301.28 735.451 Q1304.31 739.335 1304.31 746.528 L1304.31 768.044 L1298.42 768.044 L1298.42 746.719 Q1298.42 741.594 1296.6 739.112 Q1294.79 736.629 1291.07 736.629 Q1286.51 736.629 1283.87 739.653 Q1281.23 742.677 1281.23 747.896 L1281.23 768.044 L1275.34 768.044 L1275.34 746.719 Q1275.34 741.563 1273.53 739.112 Q1271.71 736.629 1267.93 736.629 Q1263.44 736.629 1260.8 739.685 Q1258.15 742.708 1258.15 747.896 L1258.15 768.044 L1252.27 768.044 L1252.27 732.396 L1258.15 732.396 L1258.15 737.934 Q1260.16 734.656 1262.96 733.096 Q1265.76 731.537 1269.61 731.537 Q1273.5 731.537 1276.2 733.51 Q1278.94 735.483 1280.24 739.239 Z" fill="#000000" fill-rule="nonzero" fill-opacity="1" /><path clip-path="url(#clip450)" d="M1346.48 748.756 L1346.48 751.62 L1319.55 751.62 Q1319.93 757.668 1323.18 760.851 Q1326.46 764.002 1332.28 764.002 Q1335.66 764.002 1338.81 763.174 Q1341.99 762.347 1345.11 760.691 L1345.11 766.23 Q1341.96 767.566 1338.65 768.267 Q1335.34 768.967 1331.93 768.967 Q1323.4 768.967 1318.41 764.002 Q1313.44 759.036 1313.44 750.57 Q1313.44 741.817 1318.15 736.693 Q1322.89 731.537 1330.91 731.537 Q1338.11 731.537 1342.28 736.183 Q1346.48 740.799 1346.48 748.756 M1340.62 747.037 Q1340.56 742.231 1337.92 739.366 Q1335.31 736.502 1330.98 736.502 Q1326.08 736.502 1323.12 739.271 Q1320.19 742.04 1319.74 747.069 L1340.62 747.037 Z" fill="#000000" fill-rule="nonzero" fill-opacity="1" /><path clip-path="url(#clip450)" d="M1390.88 718.582 Q1386.61 725.903 1384.55 733.064 Q1382.48 740.226 1382.48 747.578 Q1382.48 754.93 1384.55 762.156 Q1386.65 769.349 1390.88 776.638 L1385.79 776.638 Q1381.01 769.158 1378.63 761.933 Q1376.27 754.708 1376.27 747.578 Q1376.27 740.48 1378.63 733.287 Q1380.98 726.094 1385.79 718.582 L1390.88 718.582 Z" fill="#000000" fill-rule="nonzero" fill-opacity="1" /><path clip-path="url(#clip450)" d="M1424.97 733.446 L1424.97 738.984 Q1422.49 737.711 1419.81 737.075 Q1417.14 736.438 1414.27 736.438 Q1409.91 736.438 1407.72 737.775 Q1405.55 739.112 1405.55 741.785 Q1405.55 743.822 1407.11 745 Q1408.67 746.146 1413.38 747.196 L1415.39 747.642 Q1421.63 748.979 1424.24 751.429 Q1426.88 753.848 1426.88 758.209 Q1426.88 763.174 1422.93 766.07 Q1419.02 768.967 1412.14 768.967 Q1409.28 768.967 1406.16 768.394 Q1403.07 767.853 1399.63 766.739 L1399.63 760.691 Q1402.88 762.378 1406.03 763.238 Q1409.18 764.065 1412.27 764.065 Q1416.41 764.065 1418.63 762.665 Q1420.86 761.233 1420.86 758.654 Q1420.86 756.267 1419.24 754.994 Q1417.65 753.721 1412.2 752.543 L1410.17 752.066 Q1404.72 750.92 1402.31 748.565 Q1399.89 746.178 1399.89 742.04 Q1399.89 737.011 1403.45 734.274 Q1407.02 731.537 1413.57 731.537 Q1416.82 731.537 1419.68 732.014 Q1422.55 732.491 1424.97 733.446 Z" fill="#000000" fill-rule="nonzero" fill-opacity="1" /><path clip-path="url(#clip450)" d="M1435.28 718.582 L1440.37 718.582 Q1445.15 726.094 1447.5 733.287 Q1449.89 740.48 1449.89 747.578 Q1449.89 754.708 1447.5 761.933 Q1445.15 769.158 1440.37 776.638 L1435.28 776.638 Q1439.51 769.349 1441.58 762.156 Q1443.68 754.93 1443.68 747.578 Q1443.68 740.226 1441.58 733.064 Q1439.51 725.903 1435.28 718.582 Z" fill="#000000" fill-rule="nonzero" fill-opacity="1" /><polyline clip-path="url(#clip450)" style="stroke:#000000; stroke-linecap:round; stroke-linejoin:round; stroke-width:4; stroke-opacity:1; fill:none" points="287.366,623.18 287.366,47.2441 "/>
<polyline clip-path="url(#clip450)" style="stroke:#000000; stroke-linecap:round; stroke-linejoin:round; stroke-width:4; stroke-opacity:1; fill:none" points="287.366,562.185 306.264,562.185 "/>
<polyline clip-path="url(#clip450)" style="stroke:#000000; stroke-linecap:round; stroke-linejoin:round; stroke-width:4; stroke-opacity:1; fill:none" points="287.366,464.94 306.264,464.94 "/>
<polyline clip-path="url(#clip450)" style="stroke:#000000; stroke-linecap:round; stroke-linejoin:round; stroke-width:4; stroke-opacity:1; fill:none" points="287.366,367.694 306.264,367.694 "/>
<polyline clip-path="url(#clip450)" style="stroke:#000000; stroke-linecap:round; stroke-linejoin:round; stroke-width:4; stroke-opacity:1; fill:none" points="287.366,270.449 306.264,270.449 "/>
<polyline clip-path="url(#clip450)" style="stroke:#000000; stroke-linecap:round; stroke-linejoin:round; stroke-width:4; stroke-opacity:1; fill:none" points="287.366,173.203 306.264,173.203 "/>
<polyline clip-path="url(#clip450)" style="stroke:#000000; stroke-linecap:round; stroke-linejoin:round; stroke-width:4; stroke-opacity:1; fill:none" points="287.366,75.9573 306.264,75.9573 "/>
<path clip-path="url(#clip450)" d="M114.26 562.637 L143.936 562.637 L143.936 566.572 L114.26 566.572 L114.26 562.637 Z" fill="#000000" fill-rule="nonzero" fill-opacity="1" /><path clip-path="url(#clip450)" d="M164.028 547.984 Q160.417 547.984 158.589 551.549 Q156.783 555.091 156.783 562.22 Q156.783 569.327 158.589 572.891 Q160.417 576.433 164.028 576.433 Q167.663 576.433 169.468 572.891 Q171.297 569.327 171.297 562.22 Q171.297 555.091 169.468 551.549 Q167.663 547.984 164.028 547.984 M164.028 544.28 Q169.839 544.28 172.894 548.887 Q175.973 553.47 175.973 562.22 Q175.973 570.947 172.894 575.553 Q169.839 580.137 164.028 580.137 Q158.218 580.137 155.14 575.553 Q152.084 570.947 152.084 562.22 Q152.084 553.47 155.14 548.887 Q158.218 544.28 164.028 544.28 Z" fill="#000000" fill-rule="nonzero" fill-opacity="1" /><path clip-path="url(#clip450)" d="M184.19 573.586 L189.075 573.586 L189.075 579.465 L184.19 579.465 L184.19 573.586 Z" fill="#000000" fill-rule="nonzero" fill-opacity="1" /><path clip-path="url(#clip450)" d="M200.07 575.53 L207.709 575.53 L207.709 549.165 L199.399 550.831 L199.399 546.572 L207.662 544.905 L212.338 544.905 L212.338 575.53 L219.977 575.53 L219.977 579.465 L200.07 579.465 L200.07 575.53 Z" fill="#000000" fill-rule="nonzero" fill-opacity="1" /><path clip-path="url(#clip450)" d="M239.422 547.984 Q235.81 547.984 233.982 551.549 Q232.176 555.091 232.176 562.22 Q232.176 569.327 233.982 572.891 Q235.81 576.433 239.422 576.433 Q243.056 576.433 244.861 572.891 Q246.69 569.327 246.69 562.22 Q246.69 555.091 244.861 551.549 Q243.056 547.984 239.422 547.984 M239.422 544.28 Q245.232 544.28 248.287 548.887 Q251.366 553.47 251.366 562.22 Q251.366 570.947 248.287 575.553 Q245.232 580.137 239.422 580.137 Q233.611 580.137 230.533 575.553 Q227.477 570.947 227.477 562.22 Q227.477 553.47 230.533 548.887 Q233.611 544.28 239.422 544.28 Z" fill="#000000" fill-rule="nonzero" fill-opacity="1" /><path clip-path="url(#clip450)" d="M115.256 465.391 L144.931 465.391 L144.931 469.326 L115.256 469.326 L115.256 465.391 Z" fill="#000000" fill-rule="nonzero" fill-opacity="1" /><path clip-path="url(#clip450)" d="M165.024 450.738 Q161.413 450.738 159.584 454.303 Q157.778 457.845 157.778 464.974 Q157.778 472.081 159.584 475.646 Q161.413 479.187 165.024 479.187 Q168.658 479.187 170.464 475.646 Q172.292 472.081 172.292 464.974 Q172.292 457.845 170.464 454.303 Q168.658 450.738 165.024 450.738 M165.024 447.035 Q170.834 447.035 173.889 451.641 Q176.968 456.225 176.968 464.974 Q176.968 473.701 173.889 478.308 Q170.834 482.891 165.024 482.891 Q159.214 482.891 156.135 478.308 Q153.079 473.701 153.079 464.974 Q153.079 456.225 156.135 451.641 Q159.214 447.035 165.024 447.035 Z" fill="#000000" fill-rule="nonzero" fill-opacity="1" /><path clip-path="url(#clip450)" d="M185.186 476.34 L190.07 476.34 L190.07 482.22 L185.186 482.22 L185.186 476.34 Z" fill="#000000" fill-rule="nonzero" fill-opacity="1" /><path clip-path="url(#clip450)" d="M210.255 450.738 Q206.644 450.738 204.815 454.303 Q203.01 457.845 203.01 464.974 Q203.01 472.081 204.815 475.646 Q206.644 479.187 210.255 479.187 Q213.889 479.187 215.695 475.646 Q217.523 472.081 217.523 464.974 Q217.523 457.845 215.695 454.303 Q213.889 450.738 210.255 450.738 M210.255 447.035 Q216.065 447.035 219.121 451.641 Q222.199 456.225 222.199 464.974 Q222.199 473.701 219.121 478.308 Q216.065 482.891 210.255 482.891 Q204.445 482.891 201.366 478.308 Q198.311 473.701 198.311 464.974 Q198.311 456.225 201.366 451.641 Q204.445 447.035 210.255 447.035 Z" fill="#000000" fill-rule="nonzero" fill-opacity="1" /><path clip-path="url(#clip450)" d="M230.463 447.66 L248.82 447.66 L248.82 451.595 L234.746 451.595 L234.746 460.067 Q235.764 459.72 236.783 459.558 Q237.801 459.373 238.82 459.373 Q244.607 459.373 247.986 462.544 Q251.366 465.715 251.366 471.132 Q251.366 476.711 247.894 479.812 Q244.421 482.891 238.102 482.891 Q235.926 482.891 233.658 482.521 Q231.412 482.15 229.005 481.41 L229.005 476.711 Q231.088 477.845 233.31 478.4 Q235.533 478.956 238.009 478.956 Q242.014 478.956 244.352 476.849 Q246.69 474.743 246.69 471.132 Q246.69 467.521 244.352 465.414 Q242.014 463.308 238.009 463.308 Q236.135 463.308 234.26 463.724 Q232.408 464.141 230.463 465.021 L230.463 447.66 Z" fill="#000000" fill-rule="nonzero" fill-opacity="1" /><path clip-path="url(#clip450)" d="M164.028 353.493 Q160.417 353.493 158.589 357.058 Q156.783 360.599 156.783 367.729 Q156.783 374.835 158.589 378.4 Q160.417 381.942 164.028 381.942 Q167.663 381.942 169.468 378.4 Q171.297 374.835 171.297 367.729 Q171.297 360.599 169.468 357.058 Q167.663 353.493 164.028 353.493 M164.028 349.789 Q169.839 349.789 172.894 354.396 Q175.973 358.979 175.973 367.729 Q175.973 376.456 172.894 381.062 Q169.839 385.645 164.028 385.645 Q158.218 385.645 155.14 381.062 Q152.084 376.456 152.084 367.729 Q152.084 358.979 155.14 354.396 Q158.218 349.789 164.028 349.789 Z" fill="#000000" fill-rule="nonzero" fill-opacity="1" /><path clip-path="url(#clip450)" d="M184.19 379.095 L189.075 379.095 L189.075 384.974 L184.19 384.974 L184.19 379.095 Z" fill="#000000" fill-rule="nonzero" fill-opacity="1" /><path clip-path="url(#clip450)" d="M209.26 353.493 Q205.649 353.493 203.82 357.058 Q202.014 360.599 202.014 367.729 Q202.014 374.835 203.82 378.4 Q205.649 381.942 209.26 381.942 Q212.894 381.942 214.699 378.4 Q216.528 374.835 216.528 367.729 Q216.528 360.599 214.699 357.058 Q212.894 353.493 209.26 353.493 M209.26 349.789 Q215.07 349.789 218.125 354.396 Q221.204 358.979 221.204 367.729 Q221.204 376.456 218.125 381.062 Q215.07 385.645 209.26 385.645 Q203.449 385.645 200.371 381.062 Q197.315 376.456 197.315 367.729 Q197.315 358.979 200.371 354.396 Q203.449 349.789 209.26 349.789 Z" fill="#000000" fill-rule="nonzero" fill-opacity="1" /><path clip-path="url(#clip450)" d="M239.422 353.493 Q235.81 353.493 233.982 357.058 Q232.176 360.599 232.176 367.729 Q232.176 374.835 233.982 378.4 Q235.81 381.942 239.422 381.942 Q243.056 381.942 244.861 378.4 Q246.69 374.835 246.69 367.729 Q246.69 360.599 244.861 357.058 Q243.056 353.493 239.422 353.493 M239.422 349.789 Q245.232 349.789 248.287 354.396 Q251.366 358.979 251.366 367.729 Q251.366 376.456 248.287 381.062 Q245.232 385.645 239.422 385.645 Q233.611 385.645 230.533 381.062 Q227.477 376.456 227.477 367.729 Q227.477 358.979 230.533 354.396 Q233.611 349.789 239.422 349.789 Z" fill="#000000" fill-rule="nonzero" fill-opacity="1" /><path clip-path="url(#clip450)" d="M165.024 256.247 Q161.413 256.247 159.584 259.812 Q157.778 263.354 157.778 270.483 Q157.778 277.59 159.584 281.154 Q161.413 284.696 165.024 284.696 Q168.658 284.696 170.464 281.154 Q172.292 277.59 172.292 270.483 Q172.292 263.354 170.464 259.812 Q168.658 256.247 165.024 256.247 M165.024 252.544 Q170.834 252.544 173.889 257.15 Q176.968 261.733 176.968 270.483 Q176.968 279.21 173.889 283.817 Q170.834 288.4 165.024 288.4 Q159.214 288.4 156.135 283.817 Q153.079 279.21 153.079 270.483 Q153.079 261.733 156.135 257.15 Q159.214 252.544 165.024 252.544 Z" fill="#000000" fill-rule="nonzero" fill-opacity="1" /><path clip-path="url(#clip450)" d="M185.186 281.849 L190.07 281.849 L190.07 287.729 L185.186 287.729 L185.186 281.849 Z" fill="#000000" fill-rule="nonzero" fill-opacity="1" /><path clip-path="url(#clip450)" d="M210.255 256.247 Q206.644 256.247 204.815 259.812 Q203.01 263.354 203.01 270.483 Q203.01 277.59 204.815 281.154 Q206.644 284.696 210.255 284.696 Q213.889 284.696 215.695 281.154 Q217.523 277.59 217.523 270.483 Q217.523 263.354 215.695 259.812 Q213.889 256.247 210.255 256.247 M210.255 252.544 Q216.065 252.544 219.121 257.15 Q222.199 261.733 222.199 270.483 Q222.199 279.21 219.121 283.817 Q216.065 288.4 210.255 288.4 Q204.445 288.4 201.366 283.817 Q198.311 279.21 198.311 270.483 Q198.311 261.733 201.366 257.15 Q204.445 252.544 210.255 252.544 Z" fill="#000000" fill-rule="nonzero" fill-opacity="1" /><path clip-path="url(#clip450)" d="M230.463 253.169 L248.82 253.169 L248.82 257.104 L234.746 257.104 L234.746 265.576 Q235.764 265.229 236.783 265.067 Q237.801 264.881 238.82 264.881 Q244.607 264.881 247.986 268.053 Q251.366 271.224 251.366 276.641 Q251.366 282.219 247.894 285.321 Q244.421 288.4 238.102 288.4 Q235.926 288.4 233.658 288.029 Q231.412 287.659 229.005 286.918 L229.005 282.219 Q231.088 283.354 233.31 283.909 Q235.533 284.465 238.009 284.465 Q242.014 284.465 244.352 282.358 Q246.69 280.252 246.69 276.641 Q246.69 273.03 244.352 270.923 Q242.014 268.817 238.009 268.817 Q236.135 268.817 234.26 269.233 Q232.408 269.65 230.463 270.53 L230.463 253.169 Z" fill="#000000" fill-rule="nonzero" fill-opacity="1" /><path clip-path="url(#clip450)" d="M164.028 159.002 Q160.417 159.002 158.589 162.566 Q156.783 166.108 156.783 173.238 Q156.783 180.344 158.589 183.909 Q160.417 187.451 164.028 187.451 Q167.663 187.451 169.468 183.909 Q171.297 180.344 171.297 173.238 Q171.297 166.108 169.468 162.566 Q167.663 159.002 164.028 159.002 M164.028 155.298 Q169.839 155.298 172.894 159.904 Q175.973 164.488 175.973 173.238 Q175.973 181.964 172.894 186.571 Q169.839 191.154 164.028 191.154 Q158.218 191.154 155.14 186.571 Q152.084 181.964 152.084 173.238 Q152.084 164.488 155.14 159.904 Q158.218 155.298 164.028 155.298 Z" fill="#000000" fill-rule="nonzero" fill-opacity="1" /><path clip-path="url(#clip450)" d="M184.19 184.603 L189.075 184.603 L189.075 190.483 L184.19 190.483 L184.19 184.603 Z" fill="#000000" fill-rule="nonzero" fill-opacity="1" /><path clip-path="url(#clip450)" d="M200.07 186.548 L207.709 186.548 L207.709 160.182 L199.399 161.849 L199.399 157.59 L207.662 155.923 L212.338 155.923 L212.338 186.548 L219.977 186.548 L219.977 190.483 L200.07 190.483 L200.07 186.548 Z" fill="#000000" fill-rule="nonzero" fill-opacity="1" /><path clip-path="url(#clip450)" d="M239.422 159.002 Q235.81 159.002 233.982 162.566 Q232.176 166.108 232.176 173.238 Q232.176 180.344 233.982 183.909 Q235.81 187.451 239.422 187.451 Q243.056 187.451 244.861 183.909 Q246.69 180.344 246.69 173.238 Q246.69 166.108 244.861 162.566 Q243.056 159.002 239.422 159.002 M239.422 155.298 Q245.232 155.298 248.287 159.904 Q251.366 164.488 251.366 173.238 Q251.366 181.964 248.287 186.571 Q245.232 191.154 239.422 191.154 Q233.611 191.154 230.533 186.571 Q227.477 181.964 227.477 173.238 Q227.477 164.488 230.533 159.904 Q233.611 155.298 239.422 155.298 Z" fill="#000000" fill-rule="nonzero" fill-opacity="1" /><path clip-path="url(#clip450)" d="M165.024 61.756 Q161.413 61.756 159.584 65.3208 Q157.778 68.8624 157.778 75.992 Q157.778 83.0984 159.584 86.6632 Q161.413 90.2049 165.024 90.2049 Q168.658 90.2049 170.464 86.6632 Q172.292 83.0984 172.292 75.992 Q172.292 68.8624 170.464 65.3208 Q168.658 61.756 165.024 61.756 M165.024 58.0523 Q170.834 58.0523 173.889 62.6587 Q176.968 67.242 176.968 75.992 Q176.968 84.7188 173.889 89.3253 Q170.834 93.9086 165.024 93.9086 Q159.214 93.9086 156.135 89.3253 Q153.079 84.7188 153.079 75.992 Q153.079 67.242 156.135 62.6587 Q159.214 58.0523 165.024 58.0523 Z" fill="#000000" fill-rule="nonzero" fill-opacity="1" /><path clip-path="url(#clip450)" d="M185.186 87.3577 L190.07 87.3577 L190.07 93.2373 L185.186 93.2373 L185.186 87.3577 Z" fill="#000000" fill-rule="nonzero" fill-opacity="1" /><path clip-path="url(#clip450)" d="M201.065 89.3021 L208.704 89.3021 L208.704 62.9365 L200.394 64.6032 L200.394 60.3439 L208.658 58.6773 L213.334 58.6773 L213.334 89.3021 L220.973 89.3021 L220.973 93.2373 L201.065 93.2373 L201.065 89.3021 Z" fill="#000000" fill-rule="nonzero" fill-opacity="1" /><path clip-path="url(#clip450)" d="M230.463 58.6773 L248.82 58.6773 L248.82 62.6124 L234.746 62.6124 L234.746 71.0846 Q235.764 70.7374 236.783 70.5754 Q237.801 70.3902 238.82 70.3902 Q244.607 70.3902 247.986 73.5615 Q251.366 76.7327 251.366 82.1494 Q251.366 87.728 247.894 90.8299 Q244.421 93.9086 238.102 93.9086 Q235.926 93.9086 233.658 93.5382 Q231.412 93.1678 229.005 92.4271 L229.005 87.728 Q231.088 88.8623 233.31 89.4178 Q235.533 89.9734 238.009 89.9734 Q242.014 89.9734 244.352 87.8669 Q246.69 85.7605 246.69 82.1494 Q246.69 78.5383 244.352 76.4318 Q242.014 74.3253 238.009 74.3253 Q236.135 74.3253 234.26 74.742 Q232.408 75.1587 230.463 76.0383 L230.463 58.6773 Z" fill="#000000" fill-rule="nonzero" fill-opacity="1" /><path clip-path="url(#clip450)" d="M67.3143 333.525 Q73.68 336.008 75.6216 338.363 Q77.5631 340.718 77.5631 344.665 L77.5631 349.344 L72.6615 349.344 L72.6615 345.906 Q72.6615 343.487 71.5157 342.151 Q70.3699 340.814 66.1048 339.191 L63.4312 338.14 L28.3562 352.559 L28.3562 346.352 L56.238 335.212 L28.3562 324.072 L28.3562 317.865 L67.3143 333.525 Z" fill="#000000" fill-rule="nonzero" fill-opacity="1" /><polyline clip-path="url(#clip452)" style="stroke:#009af9; stroke-linecap:round; stroke-linejoin:round; stroke-width:4; stroke-opacity:1; fill:none" points="345.82,367.694 349.725,367.694 353.63,367.694 353.63,386.918 357.535,386.918 357.535,405.577 361.439,405.577 361.439,423.505 365.344,423.505 365.344,440.556 369.249,440.556 369.249,456.605 373.154,456.605 373.154,433.097 377.059,433.097 377.059,409.531 380.963,409.531 380.963,386.178 384.868,386.178 384.868,363.296 388.773,363.296 388.773,341.131 392.678,341.131 392.678,358.355 396.582,358.355 396.582,375.589 400.487,375.589 400.487,392.681 404.392,392.681 404.392,409.483 408.297,409.483 408.297,425.858 412.201,425.858 412.201,441.678 416.106,441.678 416.106,456.826 420.011,456.826 420.011,471.204 423.916,471.204 423.916,484.726 427.821,484.726 427.821,497.327 431.725,497.327 431.725,470.51 435.63,470.51 435.63,443.827 439.535,443.827 439.535,417.594 443.44,417.594 443.44,392.114 447.344,392.114 447.344,367.664 451.249,367.664 451.249,344.498 455.154,344.498 455.154,322.837 459.059,322.837 459.059,302.869 462.963,302.869 462.963,284.745 466.868,284.745 466.868,268.576 470.773,268.576 470.773,292.883 474.678,292.883 474.678,318.118 478.583,318.118 478.583,343.944 482.487,343.944 482.487,370.023 486.392,370.023 486.392,396.019 490.297,396.019 490.297,421.607 494.202,421.607 494.202,446.476 498.106,446.476 498.106,470.338 502.011,470.338 502.011,492.931 505.916,492.931 505.916,514.024 509.821,514.024 509.821,494.972 513.726,494.972 513.726,475.197 517.63,475.197 517.63,454.906 521.535,454.906 521.535,434.315 525.44,434.315 525.44,413.637 529.345,413.637 529.345,393.087 533.249,393.087 533.249,372.87 537.154,372.87 537.154,353.181 541.059,353.181 541.059,334.201 544.964,334.201 544.964,316.094 548.868,316.094 548.868,299.004 552.773,299.004 552.773,283.051 556.678,283.051 556.678,268.333 560.583,268.333 560.583,254.921 564.488,254.921 564.488,242.861 568.392,242.861 568.392,232.172 572.297,232.172 572.297,222.848 576.202,222.848 576.202,214.859 580.107,214.859 580.107,208.148 584.011,208.148 584.011,202.64 587.916,202.64 587.916,236.686 591.821,236.686 591.821,270.593 595.726,270.593 595.726,303.905 599.631,303.905 599.631,336.189 603.535,336.189 603.535,367.043 607.44,367.043 607.44,357.657 611.345,357.657 611.345,347.291 615.25,347.291 615.25,336.003 619.154,336.003 619.154,323.867 623.059,323.867 623.059,310.975 626.964,310.975 626.964,335.882 630.869,335.882 630.869,359.122 634.773,359.122 634.773,380.493 638.678,380.493 638.678,399.834 642.583,399.834 642.583,417.027 646.488,417.027 646.488,393.547 650.393,393.547 650.393,368.945 654.297,368.945 654.297,343.561 658.202,343.561 658.202,317.742 662.107,317.742 662.107,291.834 666.012,291.834 666.012,304.626 669.916,304.626 669.916,316.864 673.821,316.864 673.821,328.528 677.726,328.528 677.726,339.608 681.631,339.608 681.631,350.104 685.535,350.104 685.535,360.025 689.44,360.025 689.44,369.388 693.345,369.388 693.345,378.222 697.25,378.222 697.25,386.56 701.155,386.56 701.155,394.443 705.059,394.443 705.059,363.47 708.964,363.47 708.964,333.274 712.869,333.274 712.869,304.238 716.774,304.238 716.774,276.713 720.678,276.713 720.678,251.01 724.583,251.01 724.583,227.399 728.488,227.399 728.488,206.102 732.393,206.102 732.393,187.291 736.298,187.291 736.298,171.084 740.202,171.084 740.202,157.549 744.107,157.549 744.107,146.698 748.012,146.698 748.012,138.495 751.917,138.495 751.917,132.851 755.821,132.851 755.821,129.634 759.726,129.634 759.726,128.668 763.631,128.668 763.631,129.741 767.536,129.741 767.536,132.608 771.44,132.608 771.44,136.998 775.345,136.998 775.345,142.618 779.25,142.618 779.25,149.163 783.155,149.163 783.155,194.769 787.06,194.769 787.06,239.54 790.964,239.54 790.964,282.839 794.869,282.839 794.869,324.074 798.774,324.074 798.774,362.711 802.679,362.711 802.679,359.83 806.583,359.83 806.583,354.614 810.488,354.614 810.488,347.07 814.393,347.07 814.393,337.252 818.298,337.252 818.298,325.258 822.202,325.258 822.202,311.23 826.107,311.23 826.107,295.344 830.012,295.344 830.012,277.813 833.917,277.813 833.917,258.873 837.822,258.873 837.822,238.786 841.726,238.786 841.726,217.828 845.631,217.828 845.631,196.288 849.536,196.288 849.536,174.457 853.441,174.457 853.441,152.625 857.345,152.625 857.345,131.076 861.25,131.076 861.25,148.529 865.155,148.529 865.155,165.657 869.06,165.657 869.06,182.363 872.965,182.363 872.965,198.561 876.869,198.561 876.869,214.173 880.774,214.173 880.774,229.135 884.679,229.135 884.679,243.393 888.584,243.393 888.584,256.908 892.488,256.908 892.488,269.654 896.393,269.654 896.393,281.619 900.298,281.619 900.298,254.354 904.203,254.354 904.203,227.457 908.107,227.457 908.107,201.281 912.012,201.281 912.012,176.158 915.917,176.158 915.917,152.39 919.822,152.39 919.822,168.695 923.727,168.695 923.727,185.721 927.631,185.721 927.631,203.33 931.536,203.33 931.536,221.372 935.441,221.372 935.441,239.695 939.346,239.695 939.346,219.69 943.25,219.69 943.25,200.781 947.155,200.781 947.155,183.143 951.06,183.143 951.06,166.919 954.965,166.919 954.965,152.223 958.87,152.223 958.87,139.139 962.774,139.139 962.774,127.715 966.679,127.715 966.679,117.97 970.584,117.97 970.584,109.888 974.489,109.888 974.489,103.425 978.393,103.425 978.393,98.5059 982.298,98.5059 982.298,95.0298 986.203,95.0298 986.203,92.8719 990.108,92.8719 990.108,91.8868 994.012,91.8868 994.012,91.9114 997.917,91.9114 997.917,92.7695 1001.82,92.7695 1001.82,94.2747 1005.73,94.2747 1005.73,96.2353 1009.63,96.2353 1009.63,98.4573 1013.54,98.4573 1013.54,100.749 1017.44,100.749 1017.44,102.924 1021.35,102.924 1021.35,104.806 1025.25,104.806 1025.25,106.23 1029.16,106.23 1029.16,107.046 1033.06,107.046 1033.06,107.124 1036.96,107.124 1036.96,144.799 1040.87,144.799 1040.87,180.401 1044.77,180.401 1044.77,213.533 1048.68,213.533 1048.68,243.858 1052.58,243.858 1052.58,271.101 1056.49,271.101 1056.49,295.053 1060.39,295.053 1060.39,315.575 1064.3,315.575 1064.3,332.597 1068.2,332.597 1068.2,346.115 1072.11,346.115 1072.11,356.195 1076.01,356.195 1076.01,362.964 1079.92,362.964 1079.92,366.611 1083.82,366.611 1083.82,367.376 1087.73,367.376 1087.73,365.547 1091.63,365.547 1091.63,361.453 1095.54,361.453 1095.54,355.454 1099.44,355.454 1099.44,347.938 1103.35,347.938 1103.35,339.307 1107.25,339.307 1107.25,329.97 1111.16,329.97 1111.16,320.337 1115.06,320.337 1115.06,272.362 1118.97,272.362 1118.97,226.012 1122.87,226.012 1122.87,181.976 1126.77,181.976 1126.77,140.88 1130.68,140.88 1130.68,103.275 1134.58,103.275 1134.58,108.079 1138.49,108.079 1138.49,116.087 1142.39,116.087 1142.39,127.255 1146.3,127.255 1146.3,141.476 1150.2,141.476 1150.2,158.584 1154.11,158.584 1154.11,178.358 1158.01,178.358 1158.01,200.531 1161.92,200.531 1161.92,224.793 1165.82,224.793 1165.82,250.8 1169.73,250.8 1169.73,278.185 1173.63,278.185 1173.63,306.558 1177.54,306.558 1177.54,335.523 1181.44,335.523 1181.44,364.68 1185.35,364.68 1185.35,393.637 1189.25,393.637 1189.25,422.014 1193.16,422.014 1193.16,411.005 1197.06,411.005 1197.06,399.857 1200.97,399.857 1200.97,388.602 1204.87,388.602 1204.87,377.272 1208.77,377.272 1208.77,365.9 1212.68,365.9 1212.68,354.524 1216.58,354.524 1216.58,343.18 1220.49,343.18 1220.49,331.907 1224.39,331.907 1224.39,320.741 1228.3,320.741 1228.3,309.717 1232.2,309.717 1232.2,298.869 1236.11,298.869 1236.11,288.228 1240.01,288.228 1240.01,277.82 1243.92,277.82 1243.92,267.67 1247.82,267.67 1247.82,257.798 1251.73,257.798 1251.73,248.219 1255.63,248.219 1255.63,238.944 1259.54,238.944 1259.54,229.979 1263.44,229.979 1263.44,221.325 1267.35,221.325 1267.35,212.981 1271.25,212.981 1271.25,204.939 1275.16,204.939 1275.16,197.188 1279.06,197.188 1279.06,189.712 1282.97,189.712 1282.97,182.492 1286.87,182.492 1286.87,175.509 1290.78,175.509 1290.78,207.185 1294.68,207.185 1294.68,237.915 1298.58,237.915 1298.58,267.343 1302.49,267.343 1302.49,295.149 1306.39,295.149 1306.39,321.052 1310.3,321.052 1310.3,344.812 1314.2,344.812 1314.2,366.24 1318.11,366.24 1318.11,385.194 1322.01,385.194 1322.01,401.583 1325.92,401.583 1325.92,415.368 1329.82,415.368 1329.82,388.11 1333.73,388.11 1333.73,359.449 1337.63,359.449 1337.63,329.82 1341.54,329.82 1341.54,299.662 1345.44,299.662 1345.44,269.415 1349.35,269.415 1349.35,277.959 1353.25,277.959 1353.25,286.124 1357.16,286.124 1357.16,293.971 1361.06,293.971 1361.06,301.562 1364.97,301.562 1364.97,308.959 1368.87,308.959 1368.87,277.777 1372.78,277.777 1372.78,247.66 1376.68,247.66 1376.68,218.995 1380.58,218.995 1380.58,192.128 1384.49,192.128 1384.49,167.367 1388.39,167.367 1388.39,144.965 1392.3,144.965 1392.3,125.127 1396.2,125.127 1396.2,108.002 1400.11,108.002 1400.11,93.6816 1404.01,93.6816 1404.01,82.2031 1407.92,82.2031 1407.92,73.5472 1411.82,73.5472 1411.82,67.6416 1415.73,67.6416 1415.73,64.3637 1419.63,64.3637 1419.63,63.5442 1423.54,63.5442 1423.54,64.9721 1427.44,64.9721 1427.44,106.849 1431.35,106.849 1431.35,149.315 1435.25,149.315 1435.25,191.741 1439.16,191.741 1439.16,233.514 1443.06,233.514 1443.06,274.052 1446.97,274.052 1446.97,274.361 1450.87,274.361 1450.87,273.526 1454.78,273.526 1454.78,271.438 1458.68,271.438 1458.68,268.016 1462.59,268.016 1462.59,263.208 1466.49,263.208 1466.49,256.993 1470.39,256.993 1470.39,249.383 1474.3,249.383 1474.3,240.413 1478.2,240.413 1478.2,230.15 1482.11,230.15 1482.11,218.684 1486.01,218.684 1486.01,206.128 1489.92,206.128 1489.92,192.613 1493.82,192.613 1493.82,178.288 1497.73,178.288 1497.73,163.315 1501.63,163.315 1501.63,147.866 1505.54,147.866 1505.54,170.565 1509.44,170.565 1509.44,192.01 1513.35,192.01 1513.35,212.051 1517.25,212.051 1517.25,230.569 1521.16,230.569 1521.16,247.473 1525.06,247.473 1525.06,262.706 1528.97,262.706 1528.97,276.245 1532.87,276.245 1532.87,288.095 1536.78,288.095 1536.78,298.295 1540.68,298.295 1540.68,306.912 1544.59,306.912 1544.59,314.04 1548.49,314.04 1548.49,319.796 1552.39,319.796 1552.39,324.322 1556.3,324.322 1556.3,327.773 1560.2,327.773 1560.2,330.323 1564.11,330.323 1564.11,293.705 1568.01,293.705 1568.01,257.69 1571.92,257.69 1571.92,222.798 1575.82,222.798 1575.82,189.511 1579.73,189.511 1579.73,158.271 1583.63,158.271 1583.63,167.912 1587.54,167.912 1587.54,179.185 1591.44,179.185 1591.44,192.03 1595.35,192.03 1595.35,206.356 1599.25,206.356 1599.25,222.044 1603.16,222.044 1603.16,238.949 1607.06,238.949 1607.06,256.904 1610.97,256.904 1610.97,275.726 1614.87,275.726 1614.87,295.217 1618.78,295.217 1618.78,315.169 1622.68,315.169 1622.68,335.372 1626.59,335.372 1626.59,355.611 1630.49,355.611 1630.49,375.679 1634.4,375.679 1634.4,395.375 1638.3,395.375 1638.3,414.507 1642.2,414.507 1642.2,394.454 1646.11,394.454 1646.11,374.638 1650.01,374.638 1650.01,355.251 1653.92,355.251 1653.92,336.471 1657.82,336.471 1657.82,318.461 1661.73,318.461 1661.73,301.367 1665.63,301.367 1665.63,285.313 1669.54,285.313 1669.54,270.401 1673.44,270.401 1673.44,256.711 1677.35,256.711 1677.35,244.296 1681.25,244.296 1681.25,271.634 1685.16,271.634 1685.16,299.149 1689.06,299.149 1689.06,326.493 1692.97,326.493 1692.97,353.331 1696.87,353.331 1696.87,379.345 1700.78,379.345 1700.78,404.242 1704.68,404.242 1704.68,427.756 1708.59,427.756 1708.59,449.656 1712.49,449.656 1712.49,469.745 1716.4,469.745 1716.4,487.869 1720.3,487.869 1720.3,465.463 1724.2,465.463 1724.2,442.038 1728.11,442.038 1728.11,417.891 1732.01,417.891 1732.01,393.329 1735.92,393.329 1735.92,368.657 1739.82,368.657 1739.82,344.177 1743.73,344.177 1743.73,320.18 1747.63,320.18 1747.63,296.94 1751.54,296.94 1751.54,274.71 1755.44,274.71 1755.44,253.719 1759.35,253.719 1759.35,272.612 1763.25,272.612 1763.25,291.976 1767.16,291.976 1767.16,311.614 1771.06,311.614 1771.06,331.328 1774.97,331.328 1774.97,350.923 1778.87,350.923 1778.87,370.21 1782.78,370.21 1782.78,389.009 1786.68,389.009 1786.68,407.155 1790.59,407.155 1790.59,424.496 1794.49,424.496 1794.49,440.901 1798.4,440.901 1798.4,417.81 1802.3,417.81 1802.3,394.713 1806.2,394.713 1806.2,371.873 1810.11,371.873 1810.11,349.54 1814.01,349.54 1814.01,327.948 1817.92,327.948 1817.92,307.313 1821.82,307.313 1821.82,287.826 1825.73,287.826 1825.73,269.654 1829.63,269.654 1829.63,252.932 1833.54,252.932 1833.54,237.766 1837.44,237.766 1837.44,262.68 1841.35,262.68 1841.35,288.133 1845.25,288.133 1845.25,313.806 1849.16,313.806 1849.16,339.385 1853.06,339.385 1853.06,364.564 1856.97,364.564 1856.97,389.05 1860.87,389.05 1860.87,412.575 1864.78,412.575 1864.78,434.89 1868.68,434.89 1868.68,455.781 1872.59,455.781 1872.59,475.064 1876.49,475.064 1876.49,492.588 1880.4,492.588 1880.4,508.243 1884.3,508.243 1884.3,521.956 1888.21,521.956 1888.21,533.691 1892.11,533.691 1892.11,543.452 1896.01,543.452 1896.01,551.279 1899.92,551.279 1899.92,557.249 1903.82,557.249 1903.82,561.468 1907.73,561.468 1907.73,564.075 1911.63,564.075 1911.63,565.233 1915.54,565.233 1915.54,565.127 1919.44,565.127 1919.44,563.962 1923.35,563.962 1923.35,561.953 1927.25,561.953 1927.25,559.326 1931.16,559.326 1931.16,556.309 1935.06,556.309 1935.06,514.683 1938.97,514.683 1938.97,474.251 1942.87,474.251 1942.87,435.555 1946.78,435.555 1946.78,399.089 1950.68,399.089 1950.68,365.289 1954.59,365.289 1954.59,334.528 1958.49,334.528 1958.49,307.113 1962.4,307.113 1962.4,283.275 1966.3,283.275 1966.3,263.172 1970.21,263.172 1970.21,246.884 1974.11,246.884 1974.11,272.867 1978.01,272.867 1978.01,301.47 1981.92,301.47 1981.92,332.23 1985.82,332.23 1985.82,364.65 1989.73,364.65 1989.73,398.216 1993.63,398.216 1993.63,432.404 1997.54,432.404 1997.54,466.691 2001.44,466.691 2001.44,500.566 2005.35,500.566 2005.35,533.54 2009.25,533.54 2009.25,565.155 2013.16,565.155 2013.16,556.542 2017.06,556.542 2017.06,546.907 2020.97,546.907 2020.97,536.257 2024.87,536.257 2024.87,524.617 2028.78,524.617 2028.78,512.036 2032.68,512.036 2032.68,498.582 2036.59,498.582 2036.59,484.337 2040.49,484.337 2040.49,469.402 2044.4,469.402 2044.4,453.889 2048.3,453.889 2048.3,437.919 2052.21,437.919 2052.21,460.072 2056.11,460.072 2056.11,480.899 2060.02,480.899 2060.02,500.21 2063.92,500.21 2063.92,517.846 2067.82,517.846 2067.82,533.685 2071.73,533.685 2071.73,509.194 2075.63,509.194 2075.63,483.908 2079.54,483.908 2079.54,458.143 2083.44,458.143 2083.44,432.22 2087.35,432.22 2087.35,406.455 2091.25,406.455 2091.25,381.153 2095.16,381.153 2095.16,356.604 2099.06,356.604 2099.06,333.074 2102.97,333.074 2102.97,310.805 2106.87,310.805 2106.87,290.009 2110.78,290.009 2110.78,309.313 2114.68,309.313 2114.68,329.278 2118.59,329.278 2118.59,349.681 2122.49,349.681 2122.49,370.295 2126.4,370.295 2126.4,390.896 2130.3,390.896 2130.3,411.26 2134.21,411.26 2134.21,431.178 2138.11,431.178 2138.11,450.451 2142.02,450.451 2142.02,468.896 2145.92,468.896 2145.92,486.354 2149.82,486.354 2149.82,502.683 2153.73,502.683 2153.73,517.77 2157.63,517.77 2157.63,531.527 2161.54,531.527 2161.54,543.89 2165.44,543.89 2165.44,554.827 2169.35,554.827 2169.35,564.332 2173.25,564.332 2173.25,572.423 2177.16,572.423 2177.16,579.147 2181.06,579.147 2181.06,584.574 2184.97,584.574 2184.97,588.794 2188.87,588.794 2188.87,553.471 2192.78,553.471 2192.78,518.313 2196.68,518.313 2196.68,483.789 2200.59,483.789 2200.59,450.343 2204.49,450.343 2204.49,418.387 2208.4,418.387 2208.4,426.744 2212.3,426.744 2212.3,436.16 2216.21,436.16 2216.21,446.584 2220.11,446.584 2220.11,457.945 2224.02,457.945 2224.02,470.154 2227.92,470.154 2227.92,444.659 2231.83,444.659 2231.83,420.923 2235.73,420.923 2235.73,399.146 2239.63,399.146 2239.63,379.485 2243.54,379.485 2243.54,362.053 2247.44,362.053 2247.44,385.366 2251.35,385.366 2251.35,409.867 2255.25,409.867 2255.25,435.206 2259.16,435.206 2259.16,461.027 2263.06,461.027 2263.06,486.973 2266.97,486.973 2266.97,512.692 2270.87,512.692 2270.87,537.848 2274.78,537.848 2274.78,562.121 2278.68,562.121 2278.68,585.219 2282.59,585.219 2282.59,606.88 2286.49,606.88 2286.49,588.425 2290.4,588.425 2290.4,569.247 2294.3,569.247 2294.3,549.523 "/>
<path clip-path="url(#clip450)" d="M287.366 1423.18 L2352.76 1423.18 L2352.76 847.244 L287.366 847.244  Z" fill="#ffffff" fill-rule="evenodd" fill-opacity="1"/>
<polyline clip-path="url(#clip451)" style="stroke:#000000; stroke-linecap:round; stroke-linejoin:round; stroke-width:2; stroke-opacity:0.1; fill:none" points="345.82,1423.18 345.82,847.244 "/>
<polyline clip-path="url(#clip451)" style="stroke:#000000; stroke-linecap:round; stroke-linejoin:round; stroke-width:2; stroke-opacity:0.1; fill:none" points="736.298,1423.18 736.298,847.244 "/>
<polyline clip-path="url(#clip451)" style="stroke:#000000; stroke-linecap:round; stroke-linejoin:round; stroke-width:2; stroke-opacity:0.1; fill:none" points="1126.77,1423.18 1126.77,847.244 "/>
<polyline clip-path="url(#clip451)" style="stroke:#000000; stroke-linecap:round; stroke-linejoin:round; stroke-width:2; stroke-opacity:0.1; fill:none" points="1517.25,1423.18 1517.25,847.244 "/>
<polyline clip-path="url(#clip451)" style="stroke:#000000; stroke-linecap:round; stroke-linejoin:round; stroke-width:2; stroke-opacity:0.1; fill:none" points="1907.73,1423.18 1907.73,847.244 "/>
<polyline clip-path="url(#clip451)" style="stroke:#000000; stroke-linecap:round; stroke-linejoin:round; stroke-width:2; stroke-opacity:0.1; fill:none" points="2298.21,1423.18 2298.21,847.244 "/>
<polyline clip-path="url(#clip451)" style="stroke:#000000; stroke-linecap:round; stroke-linejoin:round; stroke-width:2; stroke-opacity:0.1; fill:none" points="287.366,1406.88 2352.76,1406.88 "/>
<polyline clip-path="url(#clip451)" style="stroke:#000000; stroke-linecap:round; stroke-linejoin:round; stroke-width:2; stroke-opacity:0.1; fill:none" points="287.366,1271.05 2352.76,1271.05 "/>
<polyline clip-path="url(#clip451)" style="stroke:#000000; stroke-linecap:round; stroke-linejoin:round; stroke-width:2; stroke-opacity:0.1; fill:none" points="287.366,1135.21 2352.76,1135.21 "/>
<polyline clip-path="url(#clip451)" style="stroke:#000000; stroke-linecap:round; stroke-linejoin:round; stroke-width:2; stroke-opacity:0.1; fill:none" points="287.366,999.378 2352.76,999.378 "/>
<polyline clip-path="url(#clip451)" style="stroke:#000000; stroke-linecap:round; stroke-linejoin:round; stroke-width:2; stroke-opacity:0.1; fill:none" points="287.366,863.544 2352.76,863.544 "/>
<polyline clip-path="url(#clip450)" style="stroke:#000000; stroke-linecap:round; stroke-linejoin:round; stroke-width:4; stroke-opacity:1; fill:none" points="287.366,1423.18 2352.76,1423.18 "/>
<polyline clip-path="url(#clip450)" style="stroke:#000000; stroke-linecap:round; stroke-linejoin:round; stroke-width:4; stroke-opacity:1; fill:none" points="345.82,1423.18 345.82,1404.28 "/>
<polyline clip-path="url(#clip450)" style="stroke:#000000; stroke-linecap:round; stroke-linejoin:round; stroke-width:4; stroke-opacity:1; fill:none" points="736.298,1423.18 736.298,1404.28 "/>
<polyline clip-path="url(#clip450)" style="stroke:#000000; stroke-linecap:round; stroke-linejoin:round; stroke-width:4; stroke-opacity:1; fill:none" points="1126.77,1423.18 1126.77,1404.28 "/>
<polyline clip-path="url(#clip450)" style="stroke:#000000; stroke-linecap:round; stroke-linejoin:round; stroke-width:4; stroke-opacity:1; fill:none" points="1517.25,1423.18 1517.25,1404.28 "/>
<polyline clip-path="url(#clip450)" style="stroke:#000000; stroke-linecap:round; stroke-linejoin:round; stroke-width:4; stroke-opacity:1; fill:none" points="1907.73,1423.18 1907.73,1404.28 "/>
<polyline clip-path="url(#clip450)" style="stroke:#000000; stroke-linecap:round; stroke-linejoin:round; stroke-width:4; stroke-opacity:1; fill:none" points="2298.21,1423.18 2298.21,1404.28 "/>
<path clip-path="url(#clip450)" d="M345.82 1454.1 Q342.209 1454.1 340.381 1457.66 Q338.575 1461.2 338.575 1468.33 Q338.575 1475.44 340.381 1479.01 Q342.209 1482.55 345.82 1482.55 Q349.455 1482.55 351.26 1479.01 Q353.089 1475.44 353.089 1468.33 Q353.089 1461.2 351.26 1457.66 Q349.455 1454.1 345.82 1454.1 M345.82 1450.39 Q351.63 1450.39 354.686 1455 Q357.765 1459.58 357.765 1468.33 Q357.765 1477.06 354.686 1481.67 Q351.63 1486.25 345.82 1486.25 Q340.01 1486.25 336.931 1481.67 Q333.876 1477.06 333.876 1468.33 Q333.876 1459.58 336.931 1455 Q340.01 1450.39 345.82 1450.39 Z" fill="#000000" fill-rule="nonzero" fill-opacity="1" /><path clip-path="url(#clip450)" d="M726.68 1481.64 L734.318 1481.64 L734.318 1455.28 L726.008 1456.95 L726.008 1452.69 L734.272 1451.02 L738.948 1451.02 L738.948 1481.64 L746.587 1481.64 L746.587 1485.58 L726.68 1485.58 L726.68 1481.64 Z" fill="#000000" fill-rule="nonzero" fill-opacity="1" /><path clip-path="url(#clip450)" d="M1121.43 1481.64 L1137.75 1481.64 L1137.75 1485.58 L1115.8 1485.58 L1115.8 1481.64 Q1118.46 1478.89 1123.05 1474.26 Q1127.65 1469.61 1128.83 1468.27 Q1131.08 1465.74 1131.96 1464.01 Q1132.86 1462.25 1132.86 1460.56 Q1132.86 1457.8 1130.92 1456.07 Q1129 1454.33 1125.9 1454.33 Q1123.7 1454.33 1121.24 1455.09 Q1118.81 1455.86 1116.03 1457.41 L1116.03 1452.69 Q1118.86 1451.55 1121.31 1450.97 Q1123.77 1450.39 1125.8 1450.39 Q1131.17 1450.39 1134.37 1453.08 Q1137.56 1455.77 1137.56 1460.26 Q1137.56 1462.39 1136.75 1464.31 Q1135.96 1466.2 1133.86 1468.8 Q1133.28 1469.47 1130.18 1472.69 Q1127.08 1475.88 1121.43 1481.64 Z" fill="#000000" fill-rule="nonzero" fill-opacity="1" /><path clip-path="url(#clip450)" d="M1521.5 1466.95 Q1524.86 1467.66 1526.73 1469.93 Q1528.63 1472.2 1528.63 1475.53 Q1528.63 1480.65 1525.11 1483.45 Q1521.59 1486.25 1515.11 1486.25 Q1512.93 1486.25 1510.62 1485.81 Q1508.33 1485.39 1505.87 1484.54 L1505.87 1480.02 Q1507.82 1481.16 1510.13 1481.74 Q1512.45 1482.32 1514.97 1482.32 Q1519.37 1482.32 1521.66 1480.58 Q1523.98 1478.84 1523.98 1475.53 Q1523.98 1472.48 1521.82 1470.77 Q1519.69 1469.03 1515.87 1469.03 L1511.85 1469.03 L1511.85 1465.19 L1516.06 1465.19 Q1519.51 1465.19 1521.34 1463.82 Q1523.17 1462.43 1523.17 1459.84 Q1523.17 1457.18 1521.27 1455.77 Q1519.39 1454.33 1515.87 1454.33 Q1513.95 1454.33 1511.75 1454.75 Q1509.56 1455.16 1506.92 1456.04 L1506.92 1451.88 Q1509.58 1451.14 1511.89 1450.77 Q1514.23 1450.39 1516.29 1450.39 Q1521.62 1450.39 1524.72 1452.83 Q1527.82 1455.23 1527.82 1459.35 Q1527.82 1462.22 1526.18 1464.21 Q1524.53 1466.18 1521.5 1466.95 Z" fill="#000000" fill-rule="nonzero" fill-opacity="1" /><path clip-path="url(#clip450)" d="M1910.74 1455.09 L1898.93 1473.54 L1910.74 1473.54 L1910.74 1455.09 M1909.51 1451.02 L1915.39 1451.02 L1915.39 1473.54 L1920.32 1473.54 L1920.32 1477.43 L1915.39 1477.43 L1915.39 1485.58 L1910.74 1485.58 L1910.74 1477.43 L1895.14 1477.43 L1895.14 1472.92 L1909.51 1451.02 Z" fill="#000000" fill-rule="nonzero" fill-opacity="1" /><path clip-path="url(#clip450)" d="M2288.48 1451.02 L2306.84 1451.02 L2306.84 1454.96 L2292.77 1454.96 L2292.77 1463.43 Q2293.78 1463.08 2294.8 1462.92 Q2295.82 1462.73 2296.84 1462.73 Q2302.63 1462.73 2306.01 1465.9 Q2309.39 1469.08 2309.39 1474.49 Q2309.39 1480.07 2305.91 1483.17 Q2302.44 1486.25 2296.12 1486.25 Q2293.95 1486.25 2291.68 1485.88 Q2289.43 1485.51 2287.03 1484.77 L2287.03 1480.07 Q2289.11 1481.2 2291.33 1481.76 Q2293.55 1482.32 2296.03 1482.32 Q2300.03 1482.32 2302.37 1480.21 Q2304.71 1478.1 2304.71 1474.49 Q2304.71 1470.88 2302.37 1468.77 Q2300.03 1466.67 2296.03 1466.67 Q2294.16 1466.67 2292.28 1467.08 Q2290.43 1467.5 2288.48 1468.38 L2288.48 1451.02 Z" fill="#000000" fill-rule="nonzero" fill-opacity="1" /><path clip-path="url(#clip450)" d="M1190.23 1520.52 L1230.43 1520.52 L1230.43 1525.93 L1213.56 1525.93 L1213.56 1568.04 L1207.1 1568.04 L1207.1 1525.93 L1190.23 1525.93 L1190.23 1520.52 Z" fill="#000000" fill-rule="nonzero" fill-opacity="1" /><path clip-path="url(#clip450)" d="M1234.38 1532.4 L1240.23 1532.4 L1240.23 1568.04 L1234.38 1568.04 L1234.38 1532.4 M1234.38 1518.52 L1240.23 1518.52 L1240.23 1525.93 L1234.38 1525.93 L1234.38 1518.52 Z" fill="#000000" fill-rule="nonzero" fill-opacity="1" /><path clip-path="url(#clip450)" d="M1280.24 1539.24 Q1282.44 1535.29 1285.5 1533.41 Q1288.55 1531.54 1292.69 1531.54 Q1298.26 1531.54 1301.28 1535.45 Q1304.31 1539.33 1304.31 1546.53 L1304.31 1568.04 L1298.42 1568.04 L1298.42 1546.72 Q1298.42 1541.59 1296.6 1539.11 Q1294.79 1536.63 1291.07 1536.63 Q1286.51 1536.63 1283.87 1539.65 Q1281.23 1542.68 1281.23 1547.9 L1281.23 1568.04 L1275.34 1568.04 L1275.34 1546.72 Q1275.34 1541.56 1273.53 1539.11 Q1271.71 1536.63 1267.93 1536.63 Q1263.44 1536.63 1260.8 1539.68 Q1258.15 1542.71 1258.15 1547.9 L1258.15 1568.04 L1252.27 1568.04 L1252.27 1532.4 L1258.15 1532.4 L1258.15 1537.93 Q1260.16 1534.66 1262.96 1533.1 Q1265.76 1531.54 1269.61 1531.54 Q1273.5 1531.54 1276.2 1533.51 Q1278.94 1535.48 1280.24 1539.24 Z" fill="#000000" fill-rule="nonzero" fill-opacity="1" /><path clip-path="url(#clip450)" d="M1346.48 1548.76 L1346.48 1551.62 L1319.55 1551.62 Q1319.93 1557.67 1323.18 1560.85 Q1326.46 1564 1332.28 1564 Q1335.66 1564 1338.81 1563.17 Q1341.99 1562.35 1345.11 1560.69 L1345.11 1566.23 Q1341.96 1567.57 1338.65 1568.27 Q1335.34 1568.97 1331.93 1568.97 Q1323.4 1568.97 1318.41 1564 Q1313.44 1559.04 1313.44 1550.57 Q1313.44 1541.82 1318.15 1536.69 Q1322.89 1531.54 1330.91 1531.54 Q1338.11 1531.54 1342.28 1536.18 Q1346.48 1540.8 1346.48 1548.76 M1340.62 1547.04 Q1340.56 1542.23 1337.92 1539.37 Q1335.31 1536.5 1330.98 1536.5 Q1326.08 1536.5 1323.12 1539.27 Q1320.19 1542.04 1319.74 1547.07 L1340.62 1547.04 Z" fill="#000000" fill-rule="nonzero" fill-opacity="1" /><path clip-path="url(#clip450)" d="M1390.88 1518.58 Q1386.61 1525.9 1384.55 1533.06 Q1382.48 1540.23 1382.48 1547.58 Q1382.48 1554.93 1384.55 1562.16 Q1386.65 1569.35 1390.88 1576.64 L1385.79 1576.64 Q1381.01 1569.16 1378.63 1561.93 Q1376.27 1554.71 1376.27 1547.58 Q1376.27 1540.48 1378.63 1533.29 Q1380.98 1526.09 1385.79 1518.58 L1390.88 1518.58 Z" fill="#000000" fill-rule="nonzero" fill-opacity="1" /><path clip-path="url(#clip450)" d="M1424.97 1533.45 L1424.97 1538.98 Q1422.49 1537.71 1419.81 1537.07 Q1417.14 1536.44 1414.27 1536.44 Q1409.91 1536.44 1407.72 1537.77 Q1405.55 1539.11 1405.55 1541.79 Q1405.55 1543.82 1407.11 1545 Q1408.67 1546.15 1413.38 1547.2 L1415.39 1547.64 Q1421.63 1548.98 1424.24 1551.43 Q1426.88 1553.85 1426.88 1558.21 Q1426.88 1563.17 1422.93 1566.07 Q1419.02 1568.97 1412.14 1568.97 Q1409.28 1568.97 1406.16 1568.39 Q1403.07 1567.85 1399.63 1566.74 L1399.63 1560.69 Q1402.88 1562.38 1406.03 1563.24 Q1409.18 1564.07 1412.27 1564.07 Q1416.41 1564.07 1418.63 1562.66 Q1420.86 1561.23 1420.86 1558.65 Q1420.86 1556.27 1419.24 1554.99 Q1417.65 1553.72 1412.2 1552.54 L1410.17 1552.07 Q1404.72 1550.92 1402.31 1548.56 Q1399.89 1546.18 1399.89 1542.04 Q1399.89 1537.01 1403.45 1534.27 Q1407.02 1531.54 1413.57 1531.54 Q1416.82 1531.54 1419.68 1532.01 Q1422.55 1532.49 1424.97 1533.45 Z" fill="#000000" fill-rule="nonzero" fill-opacity="1" /><path clip-path="url(#clip450)" d="M1435.28 1518.58 L1440.37 1518.58 Q1445.15 1526.09 1447.5 1533.29 Q1449.89 1540.48 1449.89 1547.58 Q1449.89 1554.71 1447.5 1561.93 Q1445.15 1569.16 1440.37 1576.64 L1435.28 1576.64 Q1439.51 1569.35 1441.58 1562.16 Q1443.68 1554.93 1443.68 1547.58 Q1443.68 1540.23 1441.58 1533.06 Q1439.51 1525.9 1435.28 1518.58 Z" fill="#000000" fill-rule="nonzero" fill-opacity="1" /><polyline clip-path="url(#clip450)" style="stroke:#000000; stroke-linecap:round; stroke-linejoin:round; stroke-width:4; stroke-opacity:1; fill:none" points="287.366,1423.18 287.366,847.244 "/>
<polyline clip-path="url(#clip450)" style="stroke:#000000; stroke-linecap:round; stroke-linejoin:round; stroke-width:4; stroke-opacity:1; fill:none" points="287.366,1406.88 306.264,1406.88 "/>
<polyline clip-path="url(#clip450)" style="stroke:#000000; stroke-linecap:round; stroke-linejoin:round; stroke-width:4; stroke-opacity:1; fill:none" points="287.366,1271.05 306.264,1271.05 "/>
<polyline clip-path="url(#clip450)" style="stroke:#000000; stroke-linecap:round; stroke-linejoin:round; stroke-width:4; stroke-opacity:1; fill:none" points="287.366,1135.21 306.264,1135.21 "/>
<polyline clip-path="url(#clip450)" style="stroke:#000000; stroke-linecap:round; stroke-linejoin:round; stroke-width:4; stroke-opacity:1; fill:none" points="287.366,999.378 306.264,999.378 "/>
<polyline clip-path="url(#clip450)" style="stroke:#000000; stroke-linecap:round; stroke-linejoin:round; stroke-width:4; stroke-opacity:1; fill:none" points="287.366,863.544 306.264,863.544 "/>
<path clip-path="url(#clip450)" d="M144.422 1407.33 L174.098 1407.33 L174.098 1411.27 L144.422 1411.27 L144.422 1407.33 Z" fill="#000000" fill-rule="nonzero" fill-opacity="1" /><path clip-path="url(#clip450)" d="M185.001 1420.22 L192.639 1420.22 L192.639 1393.86 L184.329 1395.53 L184.329 1391.27 L192.593 1389.6 L197.269 1389.6 L197.269 1420.22 L204.908 1420.22 L204.908 1424.16 L185.001 1424.16 L185.001 1420.22 Z" fill="#000000" fill-rule="nonzero" fill-opacity="1" /><path clip-path="url(#clip450)" d="M214.352 1418.28 L219.236 1418.28 L219.236 1424.16 L214.352 1424.16 L214.352 1418.28 Z" fill="#000000" fill-rule="nonzero" fill-opacity="1" /><path clip-path="url(#clip450)" d="M239.422 1392.68 Q235.81 1392.68 233.982 1396.24 Q232.176 1399.78 232.176 1406.91 Q232.176 1414.02 233.982 1417.59 Q235.81 1421.13 239.422 1421.13 Q243.056 1421.13 244.861 1417.59 Q246.69 1414.02 246.69 1406.91 Q246.69 1399.78 244.861 1396.24 Q243.056 1392.68 239.422 1392.68 M239.422 1388.97 Q245.232 1388.97 248.287 1393.58 Q251.366 1398.16 251.366 1406.91 Q251.366 1415.64 248.287 1420.25 Q245.232 1424.83 239.422 1424.83 Q233.611 1424.83 230.533 1420.25 Q227.477 1415.64 227.477 1406.91 Q227.477 1398.16 230.533 1393.58 Q233.611 1388.97 239.422 1388.97 Z" fill="#000000" fill-rule="nonzero" fill-opacity="1" /><path clip-path="url(#clip450)" d="M145.417 1271.5 L175.093 1271.5 L175.093 1275.43 L145.417 1275.43 L145.417 1271.5 Z" fill="#000000" fill-rule="nonzero" fill-opacity="1" /><path clip-path="url(#clip450)" d="M195.186 1256.84 Q191.575 1256.84 189.746 1260.41 Q187.94 1263.95 187.94 1271.08 Q187.94 1278.19 189.746 1281.75 Q191.575 1285.29 195.186 1285.29 Q198.82 1285.29 200.625 1281.75 Q202.454 1278.19 202.454 1271.08 Q202.454 1263.95 200.625 1260.41 Q198.82 1256.84 195.186 1256.84 M195.186 1253.14 Q200.996 1253.14 204.051 1257.75 Q207.13 1262.33 207.13 1271.08 Q207.13 1279.81 204.051 1284.41 Q200.996 1289 195.186 1289 Q189.375 1289 186.297 1284.41 Q183.241 1279.81 183.241 1271.08 Q183.241 1262.33 186.297 1257.75 Q189.375 1253.14 195.186 1253.14 Z" fill="#000000" fill-rule="nonzero" fill-opacity="1" /><path clip-path="url(#clip450)" d="M215.348 1282.45 L220.232 1282.45 L220.232 1288.33 L215.348 1288.33 L215.348 1282.45 Z" fill="#000000" fill-rule="nonzero" fill-opacity="1" /><path clip-path="url(#clip450)" d="M230.463 1253.77 L248.82 1253.77 L248.82 1257.7 L234.746 1257.7 L234.746 1266.17 Q235.764 1265.83 236.783 1265.66 Q237.801 1265.48 238.82 1265.48 Q244.607 1265.48 247.986 1268.65 Q251.366 1271.82 251.366 1277.24 Q251.366 1282.82 247.894 1285.92 Q244.421 1289 238.102 1289 Q235.926 1289 233.658 1288.63 Q231.412 1288.26 229.005 1287.52 L229.005 1282.82 Q231.088 1283.95 233.31 1284.51 Q235.533 1285.06 238.009 1285.06 Q242.014 1285.06 244.352 1282.96 Q246.69 1280.85 246.69 1277.24 Q246.69 1273.63 244.352 1271.52 Q242.014 1269.41 238.009 1269.41 Q236.135 1269.41 234.26 1269.83 Q232.408 1270.25 230.463 1271.13 L230.463 1253.77 Z" fill="#000000" fill-rule="nonzero" fill-opacity="1" /><path clip-path="url(#clip450)" d="M194.19 1121.01 Q190.579 1121.01 188.75 1124.58 Q186.945 1128.12 186.945 1135.25 Q186.945 1142.35 188.75 1145.92 Q190.579 1149.46 194.19 1149.46 Q197.825 1149.46 199.63 1145.92 Q201.459 1142.35 201.459 1135.25 Q201.459 1128.12 199.63 1124.58 Q197.825 1121.01 194.19 1121.01 M194.19 1117.31 Q200 1117.31 203.056 1121.91 Q206.135 1126.5 206.135 1135.25 Q206.135 1143.97 203.056 1148.58 Q200 1153.16 194.19 1153.16 Q188.38 1153.16 185.301 1148.58 Q182.246 1143.97 182.246 1135.25 Q182.246 1126.5 185.301 1121.91 Q188.38 1117.31 194.19 1117.31 Z" fill="#000000" fill-rule="nonzero" fill-opacity="1" /><path clip-path="url(#clip450)" d="M214.352 1146.61 L219.236 1146.61 L219.236 1152.49 L214.352 1152.49 L214.352 1146.61 Z" fill="#000000" fill-rule="nonzero" fill-opacity="1" /><path clip-path="url(#clip450)" d="M239.422 1121.01 Q235.81 1121.01 233.982 1124.58 Q232.176 1128.12 232.176 1135.25 Q232.176 1142.35 233.982 1145.92 Q235.81 1149.46 239.422 1149.46 Q243.056 1149.46 244.861 1145.92 Q246.69 1142.35 246.69 1135.25 Q246.69 1128.12 244.861 1124.58 Q243.056 1121.01 239.422 1121.01 M239.422 1117.31 Q245.232 1117.31 248.287 1121.91 Q251.366 1126.5 251.366 1135.25 Q251.366 1143.97 248.287 1148.58 Q245.232 1153.16 239.422 1153.16 Q233.611 1153.16 230.533 1148.58 Q227.477 1143.97 227.477 1135.25 Q227.477 1126.5 230.533 1121.91 Q233.611 1117.31 239.422 1117.31 Z" fill="#000000" fill-rule="nonzero" fill-opacity="1" /><path clip-path="url(#clip450)" d="M195.186 985.177 Q191.575 985.177 189.746 988.742 Q187.94 992.283 187.94 999.413 Q187.94 1006.52 189.746 1010.08 Q191.575 1013.63 195.186 1013.63 Q198.82 1013.63 200.625 1010.08 Q202.454 1006.52 202.454 999.413 Q202.454 992.283 200.625 988.742 Q198.82 985.177 195.186 985.177 M195.186 981.473 Q200.996 981.473 204.051 986.08 Q207.13 990.663 207.13 999.413 Q207.13 1008.14 204.051 1012.75 Q200.996 1017.33 195.186 1017.33 Q189.375 1017.33 186.297 1012.75 Q183.241 1008.14 183.241 999.413 Q183.241 990.663 186.297 986.08 Q189.375 981.473 195.186 981.473 Z" fill="#000000" fill-rule="nonzero" fill-opacity="1" /><path clip-path="url(#clip450)" d="M215.348 1010.78 L220.232 1010.78 L220.232 1016.66 L215.348 1016.66 L215.348 1010.78 Z" fill="#000000" fill-rule="nonzero" fill-opacity="1" /><path clip-path="url(#clip450)" d="M230.463 982.098 L248.82 982.098 L248.82 986.033 L234.746 986.033 L234.746 994.505 Q235.764 994.158 236.783 993.996 Q237.801 993.811 238.82 993.811 Q244.607 993.811 247.986 996.982 Q251.366 1000.15 251.366 1005.57 Q251.366 1011.15 247.894 1014.25 Q244.421 1017.33 238.102 1017.33 Q235.926 1017.33 233.658 1016.96 Q231.412 1016.59 229.005 1015.85 L229.005 1011.15 Q231.088 1012.28 233.31 1012.84 Q235.533 1013.39 238.009 1013.39 Q242.014 1013.39 244.352 1011.29 Q246.69 1009.18 246.69 1005.57 Q246.69 1001.96 244.352 999.853 Q242.014 997.746 238.009 997.746 Q236.135 997.746 234.26 998.163 Q232.408 998.579 230.463 999.459 L230.463 982.098 Z" fill="#000000" fill-rule="nonzero" fill-opacity="1" /><path clip-path="url(#clip450)" d="M185.001 876.889 L192.639 876.889 L192.639 850.523 L184.329 852.19 L184.329 847.931 L192.593 846.264 L197.269 846.264 L197.269 876.889 L204.908 876.889 L204.908 880.824 L185.001 880.824 L185.001 876.889 Z" fill="#000000" fill-rule="nonzero" fill-opacity="1" /><path clip-path="url(#clip450)" d="M214.352 874.945 L219.236 874.945 L219.236 880.824 L214.352 880.824 L214.352 874.945 Z" fill="#000000" fill-rule="nonzero" fill-opacity="1" /><path clip-path="url(#clip450)" d="M239.422 849.343 Q235.81 849.343 233.982 852.908 Q232.176 856.449 232.176 863.579 Q232.176 870.685 233.982 874.25 Q235.81 877.792 239.422 877.792 Q243.056 877.792 244.861 874.25 Q246.69 870.685 246.69 863.579 Q246.69 856.449 244.861 852.908 Q243.056 849.343 239.422 849.343 M239.422 845.639 Q245.232 845.639 248.287 850.246 Q251.366 854.829 251.366 863.579 Q251.366 872.306 248.287 876.912 Q245.232 881.495 239.422 881.495 Q233.611 881.495 230.533 876.912 Q227.477 872.306 227.477 863.579 Q227.477 854.829 230.533 850.246 Q233.611 845.639 239.422 845.639 Z" fill="#000000" fill-rule="nonzero" fill-opacity="1" /><path clip-path="url(#clip450)" d="M80.0978 1150.14 L58.5181 1150.14 L58.5181 1144.28 L79.875 1144.28 Q84.9358 1144.28 87.482 1142.31 Q89.9965 1140.34 89.9965 1136.39 Q89.9965 1131.65 86.9728 1128.91 Q83.9491 1126.14 78.7292 1126.14 L58.5181 1126.14 L58.5181 1120.28 L94.166 1120.28 L94.166 1126.14 L88.6915 1126.14 Q91.938 1128.27 93.5295 1131.11 Q95.0891 1133.91 95.0891 1137.63 Q95.0891 1143.77 91.2696 1146.96 Q87.4502 1150.14 80.0978 1150.14 M57.6587 1135.4 L57.6587 1135.4 Z" fill="#000000" fill-rule="nonzero" fill-opacity="1" /><polyline clip-path="url(#clip451)" style="stroke:#009af9; stroke-linecap:round; stroke-linejoin:round; stroke-width:4; stroke-opacity:1; fill:none" points="345.82,1406.88 349.725,1406.88 353.63,1406.88 357.535,1406.88 361.439,1406.88 365.344,1406.88 365.344,863.544 369.249,863.544 373.154,863.544 377.059,863.544 380.963,863.544 384.868,863.544 384.868,1406.88 388.773,1406.88 392.678,1406.88 396.582,1406.88 400.487,1406.88 404.392,1406.88 408.297,1406.88 412.201,1406.88 416.106,1406.88 420.011,1406.88 423.916,1406.88 423.916,863.544 427.821,863.544 431.725,863.544 435.63,863.544 439.535,863.544 443.44,863.544 447.344,863.544 451.249,863.544 455.154,863.544 459.059,863.544 462.963,863.544 462.963,1406.88 466.868,1406.88 470.773,1406.88 474.678,1406.88 478.583,1406.88 482.487,1406.88 486.392,1406.88 490.297,1406.88 494.202,1406.88 498.106,1406.88 502.011,1406.88 502.011,863.544 505.916,863.544 509.821,863.544 513.726,863.544 517.63,863.544 521.535,863.544 525.44,863.544 529.345,863.544 533.249,863.544 537.154,863.544 541.059,863.544 544.964,863.544 548.868,863.544 552.773,863.544 556.678,863.544 560.583,863.544 564.488,863.544 568.392,863.544 572.297,863.544 576.202,863.544 580.107,863.544 580.107,1406.88 584.011,1406.88 587.916,1406.88 591.821,1406.88 595.726,1406.88 599.631,1406.88 599.631,863.544 603.535,863.544 607.44,863.544 611.345,863.544 615.25,863.544 619.154,863.544 619.154,1406.88 623.059,1406.88 626.964,1406.88 630.869,1406.88 634.773,1406.88 638.678,1406.88 638.678,863.544 642.583,863.544 646.488,863.544 650.393,863.544 654.297,863.544 658.202,863.544 658.202,1406.88 662.107,1406.88 666.012,1406.88 669.916,1406.88 673.821,1406.88 677.726,1406.88 681.631,1406.88 685.535,1406.88 689.44,1406.88 693.345,1406.88 697.25,1406.88 697.25,863.544 701.155,863.544 705.059,863.544 708.964,863.544 712.869,863.544 716.774,863.544 720.678,863.544 724.583,863.544 728.488,863.544 732.393,863.544 736.298,863.544 740.202,863.544 744.107,863.544 748.012,863.544 751.917,863.544 755.821,863.544 759.726,863.544 763.631,863.544 767.536,863.544 771.44,863.544 775.345,863.544 775.345,1406.88 779.25,1406.88 783.155,1406.88 787.06,1406.88 790.964,1406.88 794.869,1406.88 794.869,863.544 798.774,863.544 802.679,863.544 806.583,863.544 810.488,863.544 814.393,863.544 818.298,863.544 822.202,863.544 826.107,863.544 830.012,863.544 833.917,863.544 837.822,863.544 841.726,863.544 845.631,863.544 849.536,863.544 853.441,863.544 853.441,1406.88 857.345,1406.88 861.25,1406.88 865.155,1406.88 869.06,1406.88 872.965,1406.88 876.869,1406.88 880.774,1406.88 884.679,1406.88 888.584,1406.88 892.488,1406.88 892.488,863.544 896.393,863.544 900.298,863.544 904.203,863.544 908.107,863.544 912.012,863.544 912.012,1406.88 915.917,1406.88 919.822,1406.88 923.727,1406.88 927.631,1406.88 931.536,1406.88 931.536,863.544 935.441,863.544 939.346,863.544 943.25,863.544 947.155,863.544 951.06,863.544 954.965,863.544 958.87,863.544 962.774,863.544 966.679,863.544 970.584,863.544 974.489,863.544 978.393,863.544 982.298,863.544 986.203,863.544 990.108,863.544 994.012,863.544 997.917,863.544 1001.82,863.544 1005.73,863.544 1009.63,863.544 1013.54,863.544 1017.44,863.544 1021.35,863.544 1025.25,863.544 1029.16,863.544 1029.16,1406.88 1033.06,1406.88 1036.96,1406.88 1040.87,1406.88 1044.77,1406.88 1048.68,1406.88 1052.58,1406.88 1056.49,1406.88 1060.39,1406.88 1064.3,1406.88 1068.2,1406.88 1072.11,1406.88 1076.01,1406.88 1079.92,1406.88 1083.82,1406.88 1087.73,1406.88 1091.63,1406.88 1095.54,1406.88 1099.44,1406.88 1103.35,1406.88 1107.25,1406.88 1107.25,863.544 1111.16,863.544 1115.06,863.544 1118.97,863.544 1122.87,863.544 1126.77,863.544 1126.77,1406.88 1130.68,1406.88 1134.58,1406.88 1138.49,1406.88 1142.39,1406.88 1146.3,1406.88 1150.2,1406.88 1154.11,1406.88 1158.01,1406.88 1161.92,1406.88 1165.82,1406.88 1169.73,1406.88 1173.63,1406.88 1177.54,1406.88 1181.44,1406.88 1185.35,1406.88 1185.35,863.544 1189.25,863.544 1193.16,863.544 1197.06,863.544 1200.97,863.544 1204.87,863.544 1208.77,863.544 1212.68,863.544 1216.58,863.544 1220.49,863.544 1224.39,863.544 1228.3,863.544 1232.2,863.544 1236.11,863.544 1240.01,863.544 1243.92,863.544 1247.82,863.544 1251.73,863.544 1255.63,863.544 1259.54,863.544 1263.44,863.544 1267.35,863.544 1271.25,863.544 1275.16,863.544 1279.06,863.544 1282.97,863.544 1282.97,1406.88 1286.87,1406.88 1290.78,1406.88 1294.68,1406.88 1298.58,1406.88 1302.49,1406.88 1306.39,1406.88 1310.3,1406.88 1314.2,1406.88 1318.11,1406.88 1322.01,1406.88 1322.01,863.544 1325.92,863.544 1329.82,863.544 1333.73,863.544 1337.63,863.544 1341.54,863.544 1341.54,1406.88 1345.44,1406.88 1349.35,1406.88 1353.25,1406.88 1357.16,1406.88 1361.06,1406.88 1361.06,863.544 1364.97,863.544 1368.87,863.544 1372.78,863.544 1376.68,863.544 1380.58,863.544 1384.49,863.544 1388.39,863.544 1392.3,863.544 1396.2,863.544 1400.11,863.544 1404.01,863.544 1407.92,863.544 1411.82,863.544 1415.73,863.544 1419.63,863.544 1419.63,1406.88 1423.54,1406.88 1427.44,1406.88 1431.35,1406.88 1435.25,1406.88 1439.16,1406.88 1439.16,863.544 1443.06,863.544 1446.97,863.544 1450.87,863.544 1454.78,863.544 1458.68,863.544 1462.59,863.544 1466.49,863.544 1470.39,863.544 1474.3,863.544 1478.2,863.544 1482.11,863.544 1486.01,863.544 1489.92,863.544 1493.82,863.544 1497.73,863.544 1497.73,1406.88 1501.63,1406.88 1505.54,1406.88 1509.44,1406.88 1513.35,1406.88 1517.25,1406.88 1521.16,1406.88 1525.06,1406.88 1528.97,1406.88 1532.87,1406.88 1536.78,1406.88 1540.68,1406.88 1544.59,1406.88 1548.49,1406.88 1552.39,1406.88 1556.3,1406.88 1556.3,863.544 1560.2,863.544 1564.11,863.544 1568.01,863.544 1571.92,863.544 1575.82,863.544 1575.82,1406.88 1579.73,1406.88 1583.63,1406.88 1587.54,1406.88 1591.44,1406.88 1595.35,1406.88 1599.25,1406.88 1603.16,1406.88 1607.06,1406.88 1610.97,1406.88 1614.87,1406.88 1618.78,1406.88 1622.68,1406.88 1626.59,1406.88 1630.49,1406.88 1634.4,1406.88 1634.4,863.544 1638.3,863.544 1642.2,863.544 1646.11,863.544 1650.01,863.544 1653.92,863.544 1657.82,863.544 1661.73,863.544 1665.63,863.544 1669.54,863.544 1673.44,863.544 1673.44,1406.88 1677.35,1406.88 1681.25,1406.88 1685.16,1406.88 1689.06,1406.88 1692.97,1406.88 1696.87,1406.88 1700.78,1406.88 1704.68,1406.88 1708.59,1406.88 1712.49,1406.88 1712.49,863.544 1716.4,863.544 1720.3,863.544 1724.2,863.544 1728.11,863.544 1732.01,863.544 1735.92,863.544 1739.82,863.544 1743.73,863.544 1747.63,863.544 1751.54,863.544 1751.54,1406.88 1755.44,1406.88 1759.35,1406.88 1763.25,1406.88 1767.16,1406.88 1771.06,1406.88 1774.97,1406.88 1778.87,1406.88 1782.78,1406.88 1786.68,1406.88 1790.59,1406.88 1790.59,863.544 1794.49,863.544 1798.4,863.544 1802.3,863.544 1806.2,863.544 1810.11,863.544 1814.01,863.544 1817.92,863.544 1821.82,863.544 1825.73,863.544 1829.63,863.544 1829.63,1406.88 1833.54,1406.88 1837.44,1406.88 1841.35,1406.88 1845.25,1406.88 1849.16,1406.88 1853.06,1406.88 1856.97,1406.88 1860.87,1406.88 1864.78,1406.88 1868.68,1406.88 1872.59,1406.88 1876.49,1406.88 1880.4,1406.88 1884.3,1406.88 1888.21,1406.88 1892.11,1406.88 1896.01,1406.88 1899.92,1406.88 1903.82,1406.88 1907.73,1406.88 1911.63,1406.88 1915.54,1406.88 1919.44,1406.88 1923.35,1406.88 1927.25,1406.88 1927.25,863.544 1931.16,863.544 1935.06,863.544 1938.97,863.544 1942.87,863.544 1946.78,863.544 1950.68,863.544 1954.59,863.544 1958.49,863.544 1962.4,863.544 1966.3,863.544 1966.3,1406.88 1970.21,1406.88 1974.11,1406.88 1978.01,1406.88 1981.92,1406.88 1985.82,1406.88 1989.73,1406.88 1993.63,1406.88 1997.54,1406.88 2001.44,1406.88 2005.35,1406.88 2005.35,863.544 2009.25,863.544 2013.16,863.544 2017.06,863.544 2020.97,863.544 2024.87,863.544 2028.78,863.544 2032.68,863.544 2036.59,863.544 2040.49,863.544 2044.4,863.544 2044.4,1406.88 2048.3,1406.88 2052.21,1406.88 2056.11,1406.88 2060.02,1406.88 2063.92,1406.88 2063.92,863.544 2067.82,863.544 2071.73,863.544 2075.63,863.544 2079.54,863.544 2083.44,863.544 2087.35,863.544 2091.25,863.544 2095.16,863.544 2099.06,863.544 2102.97,863.544 2102.97,1406.88 2106.87,1406.88 2110.78,1406.88 2114.68,1406.88 2118.59,1406.88 2122.49,1406.88 2126.4,1406.88 2130.3,1406.88 2134.21,1406.88 2138.11,1406.88 2142.02,1406.88 2145.92,1406.88 2149.82,1406.88 2153.73,1406.88 2157.63,1406.88 2161.54,1406.88 2165.44,1406.88 2169.35,1406.88 2173.25,1406.88 2177.16,1406.88 2181.06,1406.88 2181.06,863.544 2184.97,863.544 2188.87,863.544 2192.78,863.544 2196.68,863.544 2200.59,863.544 2200.59,1406.88 2204.49,1406.88 2208.4,1406.88 2212.3,1406.88 2216.21,1406.88 2220.11,1406.88 2220.11,863.544 2224.02,863.544 2227.92,863.544 2231.83,863.544 2235.73,863.544 2239.63,863.544 2239.63,1406.88 2243.54,1406.88 2247.44,1406.88 2251.35,1406.88 2255.25,1406.88 2259.16,1406.88 2263.06,1406.88 2266.97,1406.88 2270.87,1406.88 2274.78,1406.88 2278.68,1406.88 2278.68,863.544 2282.59,863.544 2286.49,863.544 2290.4,863.544 2294.3,863.544 "/>
</svg>
