<?xml version="1.0" encoding="utf-8"?>
<svg xmlns="http://www.w3.org/2000/svg" xmlns:xlink="http://www.w3.org/1999/xlink" width="600" height="400" viewBox="0 0 2400 1600">
<defs>
  <clipPath id="clip300">
    <rect x="0" y="0" width="2400" height="1600"/>
  </clipPath>
</defs>
<path clip-path="url(#clip300)" d="M0 1600 L2400 1600 L2400 0 L0 0  Z" fill="#ffffff" fill-rule="evenodd" fill-opacity="1"/>
<defs>
  <clipPath id="clip301">
    <rect x="480" y="0" width="1681" height="1600"/>
  </clipPath>
</defs>
<path clip-path="url(#clip300)" d="M287.366 1423.18 L2352.76 1423.18 L2352.76 47.2441 L287.366 47.2441  Z" fill="#ffffff" fill-rule="evenodd" fill-opacity="1"/>
<defs>
  <clipPath id="clip302">
    <rect x="287" y="47" width="2066" height="1377"/>
  </clipPath>
</defs>
<polyline clip-path="url(#clip302)" style="stroke:#000000; stroke-linecap:round; stroke-linejoin:round; stroke-width:2; stroke-opacity:0.1; fill:none" points="345.82,1423.18 345.82,47.2441 "/>
<polyline clip-path="url(#clip302)" style="stroke:#000000; stroke-linecap:round; stroke-linejoin:round; stroke-width:2; stroke-opacity:0.1; fill:none" points="736.298,1423.18 736.298,47.2441 "/>
<polyline clip-path="url(#clip302)" style="stroke:#000000; stroke-linecap:round; stroke-linejoin:round; stroke-width:2; stroke-opacity:0.1; fill:none" points="1126.77,1423.18 1126.77,47.2441 "/>
<polyline clip-path="url(#clip302)" style="stroke:#000000; stroke-linecap:round; stroke-linejoin:round; stroke-width:2; stroke-opacity:0.1; fill:none" points="1517.25,1423.18 1517.25,47.2441 "/>
<polyline clip-path="url(#clip302)" style="stroke:#000000; stroke-linecap:round; stroke-linejoin:round; stroke-width:2; stroke-opacity:0.1; fill:none" points="1907.73,1423.18 1907.73,47.2441 "/>
<polyline clip-path="url(#clip302)" style="stroke:#000000; stroke-linecap:round; stroke-linejoin:round; stroke-width:2; stroke-opacity:0.1; fill:none" points="2298.21,1423.18 2298.21,47.2441 "/>
<polyline clip-path="url(#clip302)" style="stroke:#000000; stroke-linecap:round; stroke-linejoin:round; stroke-width:2; stroke-opacity:0.1; fill:none" points="287.366,1247.39 2352.76,1247.39 "/>
<polyline clip-path="url(#clip302)" style="stroke:#000000; stroke-linecap:round; stroke-linejoin:round; stroke-width:2; stroke-opacity:0.1; fill:none" points="287.366,1046.85 2352.76,1046.85 "/>
<polyline clip-path="url(#clip302)" style="stroke:#000000; stroke-linecap:round; stroke-linejoin:round; stroke-width:2; stroke-opacity:0.1; fill:none" points="287.366,846.313 2352.76,846.313 "/>
<polyline clip-path="url(#clip302)" style="stroke:#000000; stroke-linecap:round; stroke-linejoin:round; stroke-width:2; stroke-opacity:0.1; fill:none" points="287.366,645.773 2352.76,645.773 "/>
<polyline clip-path="url(#clip302)" style="stroke:#000000; stroke-linecap:round; stroke-linejoin:round; stroke-width:2; stroke-opacity:0.1; fill:none" points="287.366,445.234 2352.76,445.234 "/>
<polyline clip-path="url(#clip302)" style="stroke:#000000; stroke-linecap:round; stroke-linejoin:round; stroke-width:2; stroke-opacity:0.1; fill:none" points="287.366,244.694 2352.76,244.694 "/>
<polyline clip-path="url(#clip300)" style="stroke:#000000; stroke-linecap:round; stroke-linejoin:round; stroke-width:4; stroke-opacity:1; fill:none" points="287.366,1423.18 2352.76,1423.18 "/>
<polyline clip-path="url(#clip300)" style="stroke:#000000; stroke-linecap:round; stroke-linejoin:round; stroke-width:4; stroke-opacity:1; fill:none" points="345.82,1423.18 345.82,1404.28 "/>
<polyline clip-path="url(#clip300)" style="stroke:#000000; stroke-linecap:round; stroke-linejoin:round; stroke-width:4; stroke-opacity:1; fill:none" points="736.298,1423.18 736.298,1404.28 "/>
<polyline clip-path="url(#clip300)" style="stroke:#000000; stroke-linecap:round; stroke-linejoin:round; stroke-width:4; stroke-opacity:1; fill:none" points="1126.77,1423.18 1126.77,1404.28 "/>
<polyline clip-path="url(#clip300)" style="stroke:#000000; stroke-linecap:round; stroke-linejoin:round; stroke-width:4; stroke-opacity:1; fill:none" points="1517.25,1423.18 1517.25,1404.28 "/>
<polyline clip-path="url(#clip300)" style="stroke:#000000; stroke-linecap:round; stroke-linejoin:round; stroke-width:4; stroke-opacity:1; fill:none" points="1907.73,1423.18 1907.73,1404.28 "/>
<polyline clip-path="url(#clip300)" style="stroke:#000000; stroke-linecap:round; stroke-linejoin:round; stroke-width:4; stroke-opacity:1; fill:none" points="2298.21,1423.18 2298.21,1404.28 "/>
<path clip-path="url(#clip300)" d="M345.82 1454.1 Q342.209 1454.1 340.381 1457.66 Q338.575 1461.2 338.575 1468.33 Q338.575 1475.44 340.381 1479.01 Q342.209 1482.55 345.82 1482.55 Q349.455 1482.55 351.26 1479.01 Q353.089 1475.44 353.089 1468.33 Q353.089 1461.2 351.26 1457.66 Q349.455 1454.1 345.82 1454.1 M345.82 1450.39 Q351.63 1450.39 354.686 1455 Q357.765 1459.58 357.765 1468.33 Q357.765 1477.06 354.686 1481.67 Q351.63 1486.25 345.82 1486.25 Q340.01 1486.25 336.931 1481.67 Q333.876 1477.06 333.876 1468.33 Q333.876 1459.58 336.931 1455 Q340.01 1450.39 345.82 1450.39 Z" fill="#000000" fill-rule="nonzero" fill-opacity="1" /><path clip-path="url(#clip300)" d="M726.68 1481.64 L734.318 1481.64 L734.318 1455.28 L726.008 1456.95 L726.008 1452.69 L734.272 1451.02 L738.948 1451.02 L738.948 1481.64 L746.587 1481.64 L746.587 1485.58 L726.68 1485.58 L726.68 1481.64 Z" fill="#000000" fill-rule="nonzero" fill-opacity="1" /><path clip-path="url(#clip300)" d="M1121.43 1481.64 L1137.75 1481.64 L1137.75 1485.58 L1115.8 1485.58 L1115.8 1481.64 Q1118.46 1478.89 1123.05 1474.26 Q1127.65 1469.61 1128.83 1468.27 Q1131.08 1465.74 1131.96 1464.01 Q1132.86 1462.25 1132.86 1460.56 Q1132.86 1457.8 1130.92 1456.07 Q1129 1454.33 1125.9 1454.33 Q1123.7 1454.33 1121.24 1455.09 Q1118.81 1455.86 1116.03 1457.41 L1116.03 1452.69 Q1118.86 1451.55 1121.31 1450.97 Q1123.77 1450.39 1125.8 1450.39 Q1131.17 1450.39 1134.37 1453.08 Q1137.56 1455.77 1137.56 1460.26 Q1137.56 1462.39 1136.75 1464.31 Q1135.96 1466.2 1133.86 1468.8 Q1133.28 1469.47 1130.18 1472.69 Q1127.08 1475.88 1121.43 1481.64 Z" fill="#000000" fill-rule="nonzero" fill-opacity="1" /><path clip-path="url(#clip300)" d="M1521.5 1466.95 Q1524.86 1467.66 1526.73 1469.93 Q1528.63 1472.2 1528.63 1475.53 Q1528.63 1480.65 1525.11 1483.45 Q1521.59 1486.25 1515.11 1486.25 Q1512.93 1486.25 1510.62 1485.81 Q1508.33 1485.39 1505.87 1484.54 L1505.87 1480.02 Q1507.82 1481.16 1510.13 1481.74 Q1512.45 1482.32 1514.97 1482.32 Q1519.37 1482.32 1521.66 1480.58 Q1523.98 1478.84 1523.98 1475.53 Q1523.98 1472.48 1521.82 1470.77 Q1519.69 1469.03 1515.87 1469.03 L1511.85 1469.03 L1511.85 1465.19 L1516.06 1465.19 Q1519.51 1465.19 1521.34 1463.82 Q1523.17 1462.43 1523.17 1459.84 Q1523.17 1457.18 1521.27 1455.77 Q1519.39 1454.33 1515.87 1454.33 Q1513.95 1454.33 1511.75 1454.75 Q1509.56 1455.16 1506.92 1456.04 L1506.92 1451.88 Q1509.58 1451.14 1511.89 1450.77 Q1514.23 1450.39 1516.29 1450.39 Q1521.62 1450.39 1524.72 1452.83 Q1527.82 1455.23 1527.82 1459.35 Q1527.82 1462.22 1526.18 1464.21 Q1524.53 1466.18 1521.5 1466.95 Z" fill="#000000" fill-rule="nonzero" fill-opacity="1" /><path clip-path="url(#clip300)" d="M1910.74 1455.09 L1898.93 1473.54 L1910.74 1473.54 L1910.74 1455.09 M1909.51 1451.02 L1915.39 1451.02 L1915.39 1473.54 L1920.32 1473.54 L1920.32 1477.43 L1915.39 1477.43 L1915.39 1485.58 L1910.74 1485.58 L1910.74 1477.43 L1895.14 1477.43 L1895.14 1472.92 L1909.51 1451.02 Z" fill="#000000" fill-rule="nonzero" fill-opacity="1" /><path clip-path="url(#clip300)" d="M2288.48 1451.02 L2306.84 1451.02 L2306.84 1454.96 L2292.77 1454.96 L2292.77 1463.43 Q2293.78 1463.08 2294.8 1462.92 Q2295.82 1462.73 2296.84 1462.73 Q2302.63 1462.73 2306.01 1465.9 Q2309.39 1469.08 2309.39 1474.49 Q2309.39 1480.07 2305.91 1483.17 Q2302.44 1486.25 2296.12 1486.25 Q2293.95 1486.25 2291.68 1485.88 Q2289.43 1485.51 2287.03 1484.77 L2287.03 1480.07 Q2289.11 1481.2 2291.33 1481.76 Q2293.55 1482.32 2296.03 1482.32 Q2300.03 1482.32 2302.37 1480.21 Q2304.71 1478.1 2304.71 1474.49 Q2304.71 1470.88 2302.37 1468.77 Q2300.03 1466.67 2296.03 1466.67 Q2294.16 1466.67 2292.28 1467.08 Q2290.43 1467.5 2288.48 1468.38 L2288.48 1451.02 Z" fill="#000000" fill-rule="nonzero" fill-opacity="1" /><path clip-path="url(#clip300)" d="M1190.23 1520.52 L1230.43 1520.52 L1230.43 1525.93 L1213.56 1525.93 L1213.56 1568.04 L1207.1 1568.04 L1207.1 1525.93 L1190.23 1525.93 L1190.23 1520.52 Z" fill="#000000" fill-rule="nonzero" fill-opacity="1" /><path clip-path="url(#clip300)" d="M1234.38 1532.4 L1240.23 1532.4 L1240.23 1568.04 L1234.38 1568.04 L1234.38 1532.4 M1234.38 1518.52 L1240.23 1518.52 L1240.23 1525.93 L1234.38 1525.93 L1234.38 1518.52 Z" fill="#000000" fill-rule="nonzero" fill-opacity="1" /><path clip-path="url(#clip300)" d="M1280.24 1539.24 Q1282.44 1535.29 1285.5 1533.41 Q1288.55 1531.54 1292.69 1531.54 Q1298.26 1531.54 1301.28 1535.45 Q1304.31 1539.33 1304.31 1546.53 L1304.31 1568.04 L1298.42 1568.04 L1298.42 1546.72 Q1298.42 1541.59 1296.6 1539.11 Q1294.79 1536.63 1291.07 1536.63 Q1286.51 1536.63 1283.87 1539.65 Q1281.23 1542.68 1281.23 1547.9 L1281.23 1568.04 L1275.34 1568.04 L1275.34 1546.72 Q1275.34 1541.56 1273.53 1539.11 Q1271.71 1536.63 1267.93 1536.63 Q1263.44 1536.63 1260.8 1539.68 Q1258.15 1542.71 1258.15 1547.9 L1258.15 1568.04 L1252.27 1568.04 L1252.27 1532.4 L1258.15 1532.4 L1258.15 1537.93 Q1260.16 1534.66 1262.96 1533.1 Q1265.76 1531.54 1269.61 1531.54 Q1273.5 1531.54 1276.2 1533.51 Q1278.94 1535.48 1280.24 1539.24 Z" fill="#000000" fill-rule="nonzero" fill-opacity="1" /><path clip-path="url(#clip300)" d="M1346.48 1548.76 L1346.48 1551.62 L1319.55 1551.62 Q1319.93 1557.67 1323.18 1560.85 Q1326.46 1564 1332.28 1564 Q1335.66 1564 1338.81 1563.17 Q1341.99 1562.35 1345.11 1560.69 L1345.11 1566.23 Q1341.96 1567.57 1338.65 1568.27 Q1335.34 1568.97 1331.93 1568.97 Q1323.4 1568.97 1318.41 1564 Q1313.44 1559.04 1313.44 1550.57 Q1313.44 1541.82 1318.15 1536.69 Q1322.89 1531.54 1330.91 1531.54 Q1338.11 1531.54 1342.28 1536.18 Q1346.48 1540.8 1346.48 1548.76 M1340.62 1547.04 Q1340.56 1542.23 1337.92 1539.37 Q1335.31 1536.5 1330.98 1536.5 Q1326.08 1536.5 1323.12 1539.27 Q1320.19 1542.04 1319.74 1547.07 L1340.62 1547.04 Z" fill="#000000" fill-rule="nonzero" fill-opacity="1" /><path clip-path="url(#clip300)" d="M1376.27 1518.52 L1389.77 1518.52 L1389.77 1523.07 L1382.13 1523.07 L1382.13 1572.09 L1389.77 1572.09 L1389.77 1576.64 L1376.27 1576.64 L1376.27 1518.52 Z" fill="#000000" fill-rule="nonzero" fill-opacity="1" /><path clip-path="url(#clip300)" d="M1424.97 1533.45 L1424.97 1538.98 Q1422.49 1537.71 1419.81 1537.07 Q1417.14 1536.44 1414.27 1536.44 Q1409.91 1536.44 1407.72 1537.77 Q1405.55 1539.11 1405.55 1541.79 Q1405.55 1543.82 1407.11 1545 Q1408.67 1546.15 1413.38 1547.2 L1415.39 1547.64 Q1421.63 1548.98 1424.24 1551.43 Q1426.88 1553.85 1426.88 1558.21 Q1426.88 1563.17 1422.93 1566.07 Q1419.02 1568.97 1412.14 1568.97 Q1409.28 1568.97 1406.16 1568.39 Q1403.07 1567.85 1399.63 1566.74 L1399.63 1560.69 Q1402.88 1562.38 1406.03 1563.24 Q1409.18 1564.07 1412.27 1564.07 Q1416.41 1564.07 1418.63 1562.66 Q1420.86 1561.23 1420.86 1558.65 Q1420.86 1556.27 1419.24 1554.99 Q1417.65 1553.72 1412.2 1552.54 L1410.17 1552.07 Q1404.72 1550.92 1402.31 1548.56 Q1399.89 1546.18 1399.89 1542.04 Q1399.89 1537.01 1403.45 1534.27 Q1407.02 1531.54 1413.57 1531.54 Q1416.82 1531.54 1419.68 1532.01 Q1422.55 1532.49 1424.97 1533.45 Z" fill="#000000" fill-rule="nonzero" fill-opacity="1" /><path clip-path="url(#clip300)" d="M1449.89 1518.52 L1449.89 1576.64 L1436.39 1576.64 L1436.39 1572.09 L1444 1572.09 L1444 1523.07 L1436.39 1523.07 L1436.39 1518.52 L1449.89 1518.52 Z" fill="#000000" fill-rule="nonzero" fill-opacity="1" /><polyline clip-path="url(#clip300)" style="stroke:#000000; stroke-linecap:round; stroke-linejoin:round; stroke-width:4; stroke-opacity:1; fill:none" points="287.366,1423.18 287.366,47.2441 "/>
<polyline clip-path="url(#clip300)" style="stroke:#000000; stroke-linecap:round; stroke-linejoin:round; stroke-width:4; stroke-opacity:1; fill:none" points="287.366,1247.39 306.264,1247.39 "/>
<polyline clip-path="url(#clip300)" style="stroke:#000000; stroke-linecap:round; stroke-linejoin:round; stroke-width:4; stroke-opacity:1; fill:none" points="287.366,1046.85 306.264,1046.85 "/>
<polyline clip-path="url(#clip300)" style="stroke:#000000; stroke-linecap:round; stroke-linejoin:round; stroke-width:4; stroke-opacity:1; fill:none" points="287.366,846.313 306.264,846.313 "/>
<polyline clip-path="url(#clip300)" style="stroke:#000000; stroke-linecap:round; stroke-linejoin:round; stroke-width:4; stroke-opacity:1; fill:none" points="287.366,645.773 306.264,645.773 "/>
<polyline clip-path="url(#clip300)" style="stroke:#000000; stroke-linecap:round; stroke-linejoin:round; stroke-width:4; stroke-opacity:1; fill:none" points="287.366,445.234 306.264,445.234 "/>
<polyline clip-path="url(#clip300)" style="stroke:#000000; stroke-linecap:round; stroke-linejoin:round; stroke-width:4; stroke-opacity:1; fill:none" points="287.366,244.694 306.264,244.694 "/>
<path clip-path="url(#clip300)" d="M114.26 1247.84 L143.936 1247.84 L143.936 1251.78 L114.26 1251.78 L114.26 1247.84 Z" fill="#000000" fill-rule="nonzero" fill-opacity="1" /><path clip-path="url(#clip300)" d="M164.028 1233.19 Q160.417 1233.19 158.589 1236.76 Q156.783 1240.3 156.783 1247.43 Q156.783 1254.53 158.589 1258.1 Q160.417 1261.64 164.028 1261.64 Q167.663 1261.64 169.468 1258.1 Q171.297 1254.53 171.297 1247.43 Q171.297 1240.3 169.468 1236.76 Q167.663 1233.19 164.028 1233.19 M164.028 1229.49 Q169.839 1229.49 172.894 1234.09 Q175.973 1238.68 175.973 1247.43 Q175.973 1256.15 172.894 1260.76 Q169.839 1265.34 164.028 1265.34 Q158.218 1265.34 155.14 1260.76 Q152.084 1256.15 152.084 1247.43 Q152.084 1238.68 155.14 1234.09 Q158.218 1229.49 164.028 1229.49 Z" fill="#000000" fill-rule="nonzero" fill-opacity="1" /><path clip-path="url(#clip300)" d="M184.19 1258.79 L189.075 1258.79 L189.075 1264.67 L184.19 1264.67 L184.19 1258.79 Z" fill="#000000" fill-rule="nonzero" fill-opacity="1" /><path clip-path="url(#clip300)" d="M200.07 1260.74 L207.709 1260.74 L207.709 1234.37 L199.399 1236.04 L199.399 1231.78 L207.662 1230.11 L212.338 1230.11 L212.338 1260.74 L219.977 1260.74 L219.977 1264.67 L200.07 1264.67 L200.07 1260.74 Z" fill="#000000" fill-rule="nonzero" fill-opacity="1" /><path clip-path="url(#clip300)" d="M239.422 1233.19 Q235.81 1233.19 233.982 1236.76 Q232.176 1240.3 232.176 1247.43 Q232.176 1254.53 233.982 1258.1 Q235.81 1261.64 239.422 1261.64 Q243.056 1261.64 244.861 1258.1 Q246.69 1254.53 246.69 1247.43 Q246.69 1240.3 244.861 1236.76 Q243.056 1233.19 239.422 1233.19 M239.422 1229.49 Q245.232 1229.49 248.287 1234.09 Q251.366 1238.68 251.366 1247.43 Q251.366 1256.15 248.287 1260.76 Q245.232 1265.34 239.422 1265.34 Q233.611 1265.34 230.533 1260.76 Q227.477 1256.15 227.477 1247.43 Q227.477 1238.68 230.533 1234.09 Q233.611 1229.49 239.422 1229.49 Z" fill="#000000" fill-rule="nonzero" fill-opacity="1" /><path clip-path="url(#clip300)" d="M115.256 1047.3 L144.931 1047.3 L144.931 1051.24 L115.256 1051.24 L115.256 1047.3 Z" fill="#000000" fill-rule="nonzero" fill-opacity="1" /><path clip-path="url(#clip300)" d="M165.024 1032.65 Q161.413 1032.65 159.584 1036.22 Q157.778 1039.76 157.778 1046.89 Q157.778 1053.99 159.584 1057.56 Q161.413 1061.1 165.024 1061.1 Q168.658 1061.1 170.464 1057.56 Q172.292 1053.99 172.292 1046.89 Q172.292 1039.76 170.464 1036.22 Q168.658 1032.65 165.024 1032.65 M165.024 1028.95 Q170.834 1028.95 173.889 1033.55 Q176.968 1038.14 176.968 1046.89 Q176.968 1055.61 173.889 1060.22 Q170.834 1064.8 165.024 1064.8 Q159.214 1064.8 156.135 1060.22 Q153.079 1055.61 153.079 1046.89 Q153.079 1038.14 156.135 1033.55 Q159.214 1028.95 165.024 1028.95 Z" fill="#000000" fill-rule="nonzero" fill-opacity="1" /><path clip-path="url(#clip300)" d="M185.186 1058.25 L190.07 1058.25 L190.07 1064.13 L185.186 1064.13 L185.186 1058.25 Z" fill="#000000" fill-rule="nonzero" fill-opacity="1" /><path clip-path="url(#clip300)" d="M210.255 1032.65 Q206.644 1032.65 204.815 1036.22 Q203.01 1039.76 203.01 1046.89 Q203.01 1053.99 204.815 1057.56 Q206.644 1061.1 210.255 1061.1 Q213.889 1061.1 215.695 1057.56 Q217.523 1053.99 217.523 1046.89 Q217.523 1039.76 215.695 1036.22 Q213.889 1032.65 210.255 1032.65 M210.255 1028.95 Q216.065 1028.95 219.121 1033.55 Q222.199 1038.14 222.199 1046.89 Q222.199 1055.61 219.121 1060.22 Q216.065 1064.8 210.255 1064.8 Q204.445 1064.8 201.366 1060.22 Q198.311 1055.61 198.311 1046.89 Q198.311 1038.14 201.366 1033.55 Q204.445 1028.95 210.255 1028.95 Z" fill="#000000" fill-rule="nonzero" fill-opacity="1" /><path clip-path="url(#clip300)" d="M230.463 1029.57 L248.82 1029.57 L248.82 1033.51 L234.746 1033.51 L234.746 1041.98 Q235.764 1041.63 236.783 1041.47 Q237.801 1041.29 238.82 1041.29 Q244.607 1041.29 247.986 1044.46 Q251.366 1047.63 251.366 1053.04 Q251.366 1058.62 247.894 1061.72 Q244.421 1064.8 238.102 1064.8 Q235.926 1064.8 233.658 1064.43 Q231.412 1064.06 229.005 1063.32 L229.005 1058.62 Q231.088 1059.76 233.31 1060.31 Q235.533 1060.87 238.009 1060.87 Q242.014 1060.87 244.352 1058.76 Q246.69 1056.66 246.69 1053.04 Q246.69 1049.43 244.352 1047.33 Q242.014 1045.22 238.009 1045.22 Q236.135 1045.22 234.26 1045.64 Q232.408 1046.05 230.463 1046.93 L230.463 1029.57 Z" fill="#000000" fill-rule="nonzero" fill-opacity="1" /><path clip-path="url(#clip300)" d="M164.028 832.111 Q160.417 832.111 158.589 835.676 Q156.783 839.218 156.783 846.348 Q156.783 853.454 158.589 857.019 Q160.417 860.56 164.028 860.56 Q167.663 860.56 169.468 857.019 Q171.297 853.454 171.297 846.348 Q171.297 839.218 169.468 835.676 Q167.663 832.111 164.028 832.111 M164.028 828.408 Q169.839 828.408 172.894 833.014 Q175.973 837.598 175.973 846.348 Q175.973 855.074 172.894 859.681 Q169.839 864.264 164.028 864.264 Q158.218 864.264 155.14 859.681 Q152.084 855.074 152.084 846.348 Q152.084 837.598 155.14 833.014 Q158.218 828.408 164.028 828.408 Z" fill="#000000" fill-rule="nonzero" fill-opacity="1" /><path clip-path="url(#clip300)" d="M184.19 857.713 L189.075 857.713 L189.075 863.593 L184.19 863.593 L184.19 857.713 Z" fill="#000000" fill-rule="nonzero" fill-opacity="1" /><path clip-path="url(#clip300)" d="M209.26 832.111 Q205.649 832.111 203.82 835.676 Q202.014 839.218 202.014 846.348 Q202.014 853.454 203.82 857.019 Q205.649 860.56 209.26 860.56 Q212.894 860.56 214.699 857.019 Q216.528 853.454 216.528 846.348 Q216.528 839.218 214.699 835.676 Q212.894 832.111 209.26 832.111 M209.26 828.408 Q215.07 828.408 218.125 833.014 Q221.204 837.598 221.204 846.348 Q221.204 855.074 218.125 859.681 Q215.07 864.264 209.26 864.264 Q203.449 864.264 200.371 859.681 Q197.315 855.074 197.315 846.348 Q197.315 837.598 200.371 833.014 Q203.449 828.408 209.26 828.408 Z" fill="#000000" fill-rule="nonzero" fill-opacity="1" /><path clip-path="url(#clip300)" d="M239.422 832.111 Q235.81 832.111 233.982 835.676 Q232.176 839.218 232.176 846.348 Q232.176 853.454 233.982 857.019 Q235.81 860.56 239.422 860.56 Q243.056 860.56 244.861 857.019 Q246.69 853.454 246.69 846.348 Q246.69 839.218 244.861 835.676 Q243.056 832.111 239.422 832.111 M239.422 828.408 Q245.232 828.408 248.287 833.014 Q251.366 837.598 251.366 846.348 Q251.366 855.074 248.287 859.681 Q245.232 864.264 239.422 864.264 Q233.611 864.264 230.533 859.681 Q227.477 855.074 227.477 846.348 Q227.477 837.598 230.533 833.014 Q233.611 828.408 239.422 828.408 Z" fill="#000000" fill-rule="nonzero" fill-opacity="1" /><path clip-path="url(#clip300)" d="M165.024 631.572 Q161.413 631.572 159.584 635.137 Q157.778 638.678 157.778 645.808 Q157.778 652.914 159.584 656.479 Q161.413 660.021 165.024 660.021 Q168.658 660.021 170.464 656.479 Q172.292 652.914 172.292 645.808 Q172.292 638.678 170.464 635.137 Q168.658 631.572 165.024 631.572 M165.024 627.868 Q170.834 627.868 173.889 632.475 Q176.968 637.058 176.968 645.808 Q176.968 654.535 173.889 659.141 Q170.834 663.725 165.024 663.725 Q159.214 663.725 156.135 659.141 Q153.079 654.535 153.079 645.808 Q153.079 637.058 156.135 632.475 Q159.214 627.868 165.024 627.868 Z" fill="#000000" fill-rule="nonzero" fill-opacity="1" /><path clip-path="url(#clip300)" d="M185.186 657.174 L190.07 657.174 L190.07 663.053 L185.186 663.053 L185.186 657.174 Z" fill="#000000" fill-rule="nonzero" fill-opacity="1" /><path clip-path="url(#clip300)" d="M210.255 631.572 Q206.644 631.572 204.815 635.137 Q203.01 638.678 203.01 645.808 Q203.01 652.914 204.815 656.479 Q206.644 660.021 210.255 660.021 Q213.889 660.021 215.695 656.479 Q217.523 652.914 217.523 645.808 Q217.523 638.678 215.695 635.137 Q213.889 631.572 210.255 631.572 M210.255 627.868 Q216.065 627.868 219.121 632.475 Q222.199 637.058 222.199 645.808 Q222.199 654.535 219.121 659.141 Q216.065 663.725 210.255 663.725 Q204.445 663.725 201.366 659.141 Q198.311 654.535 198.311 645.808 Q198.311 637.058 201.366 632.475 Q204.445 627.868 210.255 627.868 Z" fill="#000000" fill-rule="nonzero" fill-opacity="1" /><path clip-path="url(#clip300)" d="M230.463 628.493 L248.82 628.493 L248.82 632.428 L234.746 632.428 L234.746 640.901 Q235.764 640.553 236.783 640.391 Q237.801 640.206 238.82 640.206 Q244.607 640.206 247.986 643.377 Q251.366 646.549 251.366 651.965 Q251.366 657.544 247.894 660.646 Q244.421 663.725 238.102 663.725 Q235.926 663.725 233.658 663.354 Q231.412 662.984 229.005 662.243 L229.005 657.544 Q231.088 658.678 233.31 659.234 Q235.533 659.789 238.009 659.789 Q242.014 659.789 244.352 657.683 Q246.69 655.576 246.69 651.965 Q246.69 648.354 244.352 646.248 Q242.014 644.141 238.009 644.141 Q236.135 644.141 234.26 644.558 Q232.408 644.975 230.463 645.854 L230.463 628.493 Z" fill="#000000" fill-rule="nonzero" fill-opacity="1" /><path clip-path="url(#clip300)" d="M164.028 431.032 Q160.417 431.032 158.589 434.597 Q156.783 438.139 156.783 445.269 Q156.783 452.375 158.589 455.94 Q160.417 459.481 164.028 459.481 Q167.663 459.481 169.468 455.94 Q171.297 452.375 171.297 445.269 Q171.297 438.139 169.468 434.597 Q167.663 431.032 164.028 431.032 M164.028 427.329 Q169.839 427.329 172.894 431.935 Q175.973 436.519 175.973 445.269 Q175.973 453.995 172.894 458.602 Q169.839 463.185 164.028 463.185 Q158.218 463.185 155.14 458.602 Q152.084 453.995 152.084 445.269 Q152.084 436.519 155.14 431.935 Q158.218 427.329 164.028 427.329 Z" fill="#000000" fill-rule="nonzero" fill-opacity="1" /><path clip-path="url(#clip300)" d="M184.19 456.634 L189.075 456.634 L189.075 462.514 L184.19 462.514 L184.19 456.634 Z" fill="#000000" fill-rule="nonzero" fill-opacity="1" /><path clip-path="url(#clip300)" d="M200.07 458.579 L207.709 458.579 L207.709 432.213 L199.399 433.88 L199.399 429.62 L207.662 427.954 L212.338 427.954 L212.338 458.579 L219.977 458.579 L219.977 462.514 L200.07 462.514 L200.07 458.579 Z" fill="#000000" fill-rule="nonzero" fill-opacity="1" /><path clip-path="url(#clip300)" d="M239.422 431.032 Q235.81 431.032 233.982 434.597 Q232.176 438.139 232.176 445.269 Q232.176 452.375 233.982 455.94 Q235.81 459.481 239.422 459.481 Q243.056 459.481 244.861 455.94 Q246.69 452.375 246.69 445.269 Q246.69 438.139 244.861 434.597 Q243.056 431.032 239.422 431.032 M239.422 427.329 Q245.232 427.329 248.287 431.935 Q251.366 436.519 251.366 445.269 Q251.366 453.995 248.287 458.602 Q245.232 463.185 239.422 463.185 Q233.611 463.185 230.533 458.602 Q227.477 453.995 227.477 445.269 Q227.477 436.519 230.533 431.935 Q233.611 427.329 239.422 427.329 Z" fill="#000000" fill-rule="nonzero" fill-opacity="1" /><path clip-path="url(#clip300)" d="M165.024 230.493 Q161.413 230.493 159.584 234.058 Q157.778 237.599 157.778 244.729 Q157.778 251.835 159.584 255.4 Q161.413 258.942 165.024 258.942 Q168.658 258.942 170.464 255.4 Q172.292 251.835 172.292 244.729 Q172.292 237.599 170.464 234.058 Q168.658 230.493 165.024 230.493 M165.024 226.789 Q170.834 226.789 173.889 231.396 Q176.968 235.979 176.968 244.729 Q176.968 253.456 173.889 258.062 Q170.834 262.646 165.024 262.646 Q159.214 262.646 156.135 258.062 Q153.079 253.456 153.079 244.729 Q153.079 235.979 156.135 231.396 Q159.214 226.789 165.024 226.789 Z" fill="#000000" fill-rule="nonzero" fill-opacity="1" /><path clip-path="url(#clip300)" d="M185.186 256.095 L190.07 256.095 L190.07 261.974 L185.186 261.974 L185.186 256.095 Z" fill="#000000" fill-rule="nonzero" fill-opacity="1" /><path clip-path="url(#clip300)" d="M201.065 258.039 L208.704 258.039 L208.704 231.674 L200.394 233.34 L200.394 229.081 L208.658 227.414 L213.334 227.414 L213.334 258.039 L220.973 258.039 L220.973 261.974 L201.065 261.974 L201.065 258.039 Z" fill="#000000" fill-rule="nonzero" fill-opacity="1" /><path clip-path="url(#clip300)" d="M230.463 227.414 L248.82 227.414 L248.82 231.349 L234.746 231.349 L234.746 239.822 Q235.764 239.474 236.783 239.312 Q237.801 239.127 238.82 239.127 Q244.607 239.127 247.986 242.298 Q251.366 245.47 251.366 250.886 Q251.366 256.465 247.894 259.567 Q244.421 262.646 238.102 262.646 Q235.926 262.646 233.658 262.275 Q231.412 261.905 229.005 261.164 L229.005 256.465 Q231.088 257.599 233.31 258.155 Q235.533 258.71 238.009 258.71 Q242.014 258.71 244.352 256.604 Q246.69 254.498 246.69 250.886 Q246.69 247.275 244.352 245.169 Q242.014 243.062 238.009 243.062 Q236.135 243.062 234.26 243.479 Q232.408 243.896 230.463 244.775 L230.463 227.414 Z" fill="#000000" fill-rule="nonzero" fill-opacity="1" /><path clip-path="url(#clip300)" d="M20.8447 823.791 Q20.8447 830.793 26.0645 834.931 Q31.2844 839.037 40.2919 839.037 Q49.2675 839.037 54.4874 834.931 Q59.7073 830.793 59.7073 823.791 Q59.7073 816.788 54.4874 812.714 Q49.2675 808.609 40.2919 808.609 Q31.2844 808.609 26.0645 812.714 Q20.8447 816.788 20.8447 823.791 M15.6248 823.791 Q15.6248 813.797 22.3406 807.813 Q29.0246 801.829 40.2919 801.829 Q51.5274 801.829 58.2432 807.813 Q64.9272 813.797 64.9272 823.791 Q64.9272 833.817 58.2432 839.832 Q51.5592 845.816 40.2919 845.816 Q29.0246 845.816 22.3406 839.832 Q15.6248 833.817 15.6248 823.791 Z" fill="#000000" fill-rule="nonzero" fill-opacity="1" /><path clip-path="url(#clip300)" d="M49.9359 792.631 L28.3562 792.631 L28.3562 786.774 L49.7131 786.774 Q54.7739 786.774 57.3202 784.801 Q59.8346 782.827 59.8346 778.881 Q59.8346 774.138 56.8109 771.401 Q53.7872 768.632 48.5673 768.632 L28.3562 768.632 L28.3562 762.775 L64.0042 762.775 L64.0042 768.632 L58.5296 768.632 Q61.7762 770.764 63.3676 773.597 Q64.9272 776.398 64.9272 780.122 Q64.9272 786.265 61.1078 789.448 Q57.2883 792.631 49.9359 792.631 M27.4968 777.894 L27.4968 777.894 Z" fill="#000000" fill-rule="nonzero" fill-opacity="1" /><path clip-path="url(#clip300)" d="M18.2347 744.92 L28.3562 744.92 L28.3562 732.857 L32.9077 732.857 L32.9077 744.92 L52.2594 744.92 Q56.6199 744.92 57.8613 743.742 Q59.1026 742.533 59.1026 738.872 L59.1026 732.857 L64.0042 732.857 L64.0042 738.872 Q64.0042 745.652 61.4897 748.23 Q58.9434 750.808 52.2594 750.808 L32.9077 750.808 L32.9077 755.105 L28.3562 755.105 L28.3562 750.808 L18.2347 750.808 L18.2347 744.92 Z" fill="#000000" fill-rule="nonzero" fill-opacity="1" /><path clip-path="url(#clip300)" d="M58.657 719.489 L77.5631 719.489 L77.5631 725.377 L28.3562 725.377 L28.3562 719.489 L33.7671 719.489 Q30.5842 717.643 29.0564 714.842 Q27.4968 712.009 27.4968 708.094 Q27.4968 701.601 32.6531 697.559 Q37.8093 693.485 46.212 693.485 Q54.6147 693.485 59.771 697.559 Q64.9272 701.601 64.9272 708.094 Q64.9272 712.009 63.3994 714.842 Q61.8398 717.643 58.657 719.489 M46.212 699.564 Q39.7508 699.564 36.0905 702.238 Q32.3984 704.879 32.3984 709.526 Q32.3984 714.173 36.0905 716.847 Q39.7508 719.489 46.212 719.489 Q52.6732 719.489 56.3653 716.847 Q60.0256 714.173 60.0256 709.526 Q60.0256 704.879 56.3653 702.238 Q52.6732 699.564 46.212 699.564 Z" fill="#000000" fill-rule="nonzero" fill-opacity="1" /><path clip-path="url(#clip300)" d="M49.9359 684.382 L28.3562 684.382 L28.3562 678.525 L49.7131 678.525 Q54.7739 678.525 57.3202 676.552 Q59.8346 674.579 59.8346 670.632 Q59.8346 665.889 56.8109 663.152 Q53.7872 660.383 48.5673 660.383 L28.3562 660.383 L28.3562 654.527 L64.0042 654.527 L64.0042 660.383 L58.5296 660.383 Q61.7762 662.516 63.3676 665.348 Q64.9272 668.149 64.9272 671.873 Q64.9272 678.016 61.1078 681.199 Q57.2883 684.382 49.9359 684.382 M27.4968 669.645 L27.4968 669.645 Z" fill="#000000" fill-rule="nonzero" fill-opacity="1" /><path clip-path="url(#clip300)" d="M18.2347 636.671 L28.3562 636.671 L28.3562 624.608 L32.9077 624.608 L32.9077 636.671 L52.2594 636.671 Q56.6199 636.671 57.8613 635.493 Q59.1026 634.284 59.1026 630.623 L59.1026 624.608 L64.0042 624.608 L64.0042 630.623 Q64.0042 637.403 61.4897 639.981 Q58.9434 642.559 52.2594 642.559 L32.9077 642.559 L32.9077 646.856 L28.3562 646.856 L28.3562 642.559 L18.2347 642.559 L18.2347 636.671 Z" fill="#000000" fill-rule="nonzero" fill-opacity="1" /><polyline clip-path="url(#clip302)" style="stroke:#009af9; stroke-linecap:round; stroke-linejoin:round; stroke-width:4; stroke-opacity:1; fill:none" points="345.82,846.313 349.725,846.313 353.63,846.313 353.63,885.957 357.535,885.957 357.535,924.434 361.439,924.434 361.439,961.405 365.344,961.405 365.344,996.569 369.249,996.569 369.249,1029.66 373.154,1029.66 373.154,981.186 377.059,981.186 377.059,932.589 380.963,932.589 380.963,884.43 384.868,884.43 384.868,837.244 388.773,837.244 388.773,791.534 392.678,791.534 392.678,747.764 396.582,747.764 396.582,706.351 400.487,706.351 400.487,667.656 404.392,667.656 404.392,631.979 408.297,631.979 408.297,599.556 412.201,599.556 412.201,649.847 416.106,649.847 416.106,701.326 420.011,701.326 420.011,753.351 423.916,753.351 423.916,805.281 427.821,805.281 427.821,856.496 431.725,856.496 431.725,827.112 435.63,827.112 435.63,798.2 439.535,798.2 439.535,769.928 443.44,769.928 443.44,742.454 447.344,742.454 447.344,715.917 451.249,715.917 451.249,690.437 455.154,690.437 455.154,666.116 459.059,666.116 459.059,643.032 462.963,643.032 462.963,621.238 466.868,621.238 466.868,600.768 470.773,600.768 470.773,581.63 474.678,581.63 474.678,563.808 478.583,563.808 478.583,547.267 482.487,547.267 482.487,531.949 486.392,531.949 486.392,517.778 490.297,517.778 490.297,583.95 494.202,583.95 494.202,648.733 498.106,648.733 498.106,711.332 502.011,711.332 502.011,771.014 505.916,771.014 505.916,827.12 509.821,827.12 509.821,799.789 513.726,799.789 513.726,770.168 517.63,770.168 517.63,738.554 521.535,738.554 521.535,705.278 525.44,705.278 525.44,670.699 529.345,670.699 529.345,714.483 533.249,714.483 533.249,755.39 537.154,755.39 537.154,793.137 541.059,793.137 541.059,827.504 544.964,827.504 544.964,858.34 548.868,858.34 548.868,806.275 552.773,806.275 552.773,752.922 556.678,752.922 556.678,699.012 560.583,699.012 560.583,645.269 564.488,645.269 564.488,592.396 568.392,592.396 568.392,620.349 572.297,620.349 572.297,648.126 576.202,648.126 576.202,675.616 580.107,675.616 580.107,702.714 584.011,702.714 584.011,729.318 587.916,729.318 587.916,676.05 591.821,676.05 591.821,624.452 595.726,624.452 595.726,575.13 599.631,575.13 599.631,528.63 603.535,528.63 603.535,485.431 607.44,485.431 607.44,445.934 611.345,445.934 611.345,410.463 615.25,410.463 615.25,379.252 619.154,379.252 619.154,352.451 623.059,352.451 623.059,330.121 626.964,330.121 626.964,391.525 630.869,391.525 630.869,454.93 634.773,454.93 634.773,519.473 638.678,519.473 638.678,584.29 642.583,584.29 642.583,648.533 646.488,648.533 646.488,632.098 650.393,632.098 650.393,615.838 654.297,615.838 654.297,599.722 658.202,599.722 658.202,583.718 662.107,583.718 662.107,567.796 666.012,567.796 666.012,631.22 669.916,631.22 669.916,692.341 673.821,692.341 673.821,750.464 677.726,750.464 677.726,804.969 681.631,804.969 681.631,855.321 685.535,855.321 685.535,821.788 689.44,821.788 689.44,785.654 693.345,785.654 693.345,747.354 697.25,747.354 697.25,707.356 701.155,707.356 701.155,666.153 705.059,666.153 705.059,703.538 708.964,703.538 708.964,738.393 712.869,738.393 712.869,770.543 716.774,770.543 716.774,799.864 720.678,799.864 720.678,826.29 724.583,826.29 724.583,770.52 728.488,770.52 728.488,714.219 732.393,714.219 732.393,658.154 736.298,658.154 736.298,603.068 740.202,603.068 740.202,549.668 744.107,549.668 744.107,498.608 748.012,498.608 748.012,450.481 751.917,450.481 751.917,405.809 755.821,405.809 755.821,365.033 759.726,365.033 759.726,328.508 763.631,328.508 763.631,375.788 767.536,375.788 767.536,425.418 771.44,425.418 771.44,476.8 775.345,476.8 775.345,529.314 779.25,529.314 779.25,582.333 783.155,582.333 783.155,635.233 787.06,635.233 787.06,687.407 790.964,687.407 790.964,738.275 794.869,738.275 794.869,787.296 798.774,787.296 798.774,833.978 802.679,833.978 802.679,798.597 806.583,798.597 806.583,762.402 810.488,762.402 810.488,725.767 814.393,725.767 814.393,689.062 818.298,689.062 818.298,652.656 822.202,652.656 822.202,696.189 826.107,696.189 826.107,738.373 830.012,738.373 830.012,778.838 833.917,778.838 833.917,817.258 837.822,817.258 837.822,853.353 841.726,853.353 841.726,886.89 845.631,886.89 845.631,917.692 849.536,917.692 849.536,945.636 853.441,945.636 853.441,970.654 857.345,970.654 857.345,992.735 861.25,992.735 861.25,932.632 865.155,932.632 865.155,872.064 869.06,872.064 869.06,811.849 872.965,811.849 872.965,752.778 876.869,752.778 876.869,695.6 880.774,695.6 880.774,720.296 884.679,720.296 884.679,745.867 888.584,745.867 888.584,772.187 892.488,772.187 892.488,799.112 896.393,799.112 896.393,826.488 900.298,826.488 900.298,774.863 904.203,774.863 904.203,725.696 908.107,725.696 908.107,679.492 912.012,679.492 912.012,636.689 915.917,636.689 915.917,597.648 919.822,597.648 919.822,641.939 923.727,641.939 923.727,688.134 927.631,688.134 927.631,735.667 931.536,735.667 931.536,783.962 935.441,783.962 935.441,832.437 939.346,832.437 939.346,801.236 943.25,801.236 943.25,771.431 947.155,771.431 947.155,743.18 951.06,743.18 951.06,716.607 954.965,716.607 954.965,691.806 958.87,691.806 958.87,668.835 962.774,668.835 962.774,647.719 966.679,647.719 966.679,628.448 970.584,628.448 970.584,610.981 974.489,610.981 974.489,595.246 978.393,595.246 978.393,660.432 982.298,660.432 982.298,724.79 986.203,724.79 986.203,787.494 990.108,787.494 990.108,847.775 994.012,847.775 994.012,904.928 997.917,904.928 997.917,958.327 1001.82,958.327 1001.82,1007.43 1005.73,1007.43 1005.73,1051.81 1009.63,1051.81 1009.63,1091.11 1013.54,1091.11 1013.54,1125.1 1017.44,1125.1 1017.44,1074.38 1021.35,1074.38 1021.35,1020.53 1025.25,1020.53 1025.25,964.337 1029.16,964.337 1029.16,906.57 1033.06,906.57 1033.06,848.035 1036.96,848.035 1036.96,868.814 1040.87,868.814 1040.87,888.057 1044.77,888.057 1044.77,905.828 1048.68,905.828 1048.68,922.215 1052.58,922.215 1052.58,937.325 1056.49,937.325 1056.49,951.284 1060.39,951.284 1060.39,964.235 1064.3,964.235 1064.3,976.328 1068.2,976.328 1068.2,987.727 1072.11,987.727 1072.11,998.598 1076.01,998.598 1076.01,929.821 1079.92,929.821 1079.92,863.186 1083.82,863.186 1083.82,799.532 1087.73,799.532 1087.73,739.617 1091.63,739.617 1091.63,684.106 1095.54,684.106 1095.54,633.564 1099.44,633.564 1099.44,588.443 1103.35,588.443 1103.35,549.083 1107.25,549.083 1107.25,515.699 1111.16,515.699 1111.16,488.391 1115.06,488.391 1115.06,467.137 1118.97,467.137 1118.97,451.802 1122.87,451.802 1122.87,442.142 1126.77,442.142 1126.77,437.811 1130.68,437.811 1130.68,438.374 1134.58,438.374 1134.58,522.604 1138.49,522.604 1138.49,608.293 1142.39,608.293 1142.39,694.13 1146.3,694.13 1146.3,778.834 1150.2,778.834 1150.2,861.181 1154.11,861.181 1154.11,940.024 1158.01,940.024 1158.01,1014.32 1161.92,1014.32 1161.92,1083.13 1165.82,1083.13 1165.82,1145.66 1169.73,1145.66 1169.73,1201.26 1173.63,1201.26 1173.63,1170.13 1177.54,1170.13 1177.54,1133.54 1181.44,1133.54 1181.44,1091.99 1185.35,1091.99 1185.35,1046.06 1189.25,1046.06 1189.25,996.386 1193.16,996.386 1193.16,1022.97 1197.06,1022.97 1197.06,1044.93 1200.97,1044.93 1200.97,1062.38 1204.87,1062.38 1204.87,1075.49 1208.77,1075.49 1208.77,1084.52 1212.68,1084.52 1212.68,1089.8 1216.58,1089.8 1216.58,1091.72 1220.49,1091.72 1220.49,1090.72 1224.39,1090.72 1224.39,1087.27 1228.3,1087.27 1228.3,1081.88 1232.2,1081.88 1232.2,1075.09 1236.11,1075.09 1236.11,1067.43 1240.01,1067.43 1240.01,1059.43 1243.92,1059.43 1243.92,1051.63 1247.82,1051.63 1247.82,1044.5 1251.73,1044.5 1251.73,959.244 1255.63,959.244 1255.63,877.904 1259.54,877.904 1259.54,801.536 1263.44,801.536 1263.44,731.072 1267.35,731.072 1267.35,667.304 1271.25,667.304 1271.25,690.16 1275.16,690.16 1275.16,718.498 1279.06,718.498 1279.06,751.961 1282.97,751.961 1282.97,790.096 1286.87,790.096 1286.87,832.371 1290.78,832.371 1290.78,798.893 1294.68,798.893 1294.68,770.63 1298.58,770.63 1298.58,747.557 1302.49,747.557 1302.49,729.554 1306.39,729.554 1306.39,716.408 1310.3,716.408 1310.3,707.822 1314.2,707.822 1314.2,703.422 1318.11,703.422 1318.11,702.765 1322.01,702.765 1322.01,705.354 1325.92,705.354 1325.92,710.645 1329.82,710.645 1329.82,718.062 1333.73,718.062 1333.73,727.007 1337.63,727.007 1337.63,736.874 1341.54,736.874 1341.54,747.062 1345.44,747.062 1345.44,756.982 1349.35,756.982 1349.35,766.075 1353.25,766.075 1353.25,773.816 1357.16,773.816 1357.16,779.727 1361.06,779.727 1361.06,783.384 1364.97,783.384 1364.97,784.422 1368.87,784.422 1368.87,861.831 1372.78,861.831 1372.78,933.76 1376.68,933.76 1376.68,999.376 1380.58,999.376 1380.58,1057.99 1384.49,1057.99 1384.49,1109.08 1388.39,1109.08 1388.39,1152.25 1392.3,1152.25 1392.3,1187.31 1396.2,1187.31 1396.2,1214.21 1400.11,1214.21 1400.11,1233.04 1404.01,1233.04 1404.01,1244.08 1407.92,1244.08 1407.92,1168.44 1411.82,1168.44 1411.82,1088.27 1415.73,1088.27 1415.73,1004.89 1419.63,1004.89 1419.63,919.662 1423.54,919.662 1423.54,833.928 1427.44,833.928 1427.44,828.304 1431.35,828.304 1431.35,822.437 1435.25,822.437 1435.25,816.852 1439.16,816.852 1439.16,812.045 1443.06,812.045 1443.06,808.48 1446.97,808.48 1446.97,727.29 1450.87,727.29 1450.87,650.472 1454.78,650.472 1454.78,579.02 1458.68,579.02 1458.68,513.794 1462.59,513.794 1462.59,455.513 1466.49,455.513 1466.49,484.03 1470.39,484.03 1470.39,518.123 1474.3,518.123 1474.3,557.356 1478.2,557.356 1478.2,601.201 1482.11,601.201 1482.11,649.052 1486.01,649.052 1486.01,700.236 1489.92,700.236 1489.92,754.031 1493.82,754.031 1493.82,809.683 1497.73,809.683 1497.73,866.419 1501.63,866.419 1501.63,923.462 1505.54,923.462 1505.54,980.051 1509.44,980.051 1509.44,1035.45 1513.35,1035.45 1513.35,1088.97 1517.25,1088.97 1517.25,1139.96 1521.16,1139.96 1521.16,1187.86 1525.06,1187.86 1525.06,1152.88 1528.97,1152.88 1528.97,1116.22 1532.87,1116.22 1532.87,1078.22 1536.78,1078.22 1536.78,1039.26 1540.68,1039.26 1540.68,999.713 1544.59,999.713 1544.59,1039.25 1548.49,1039.25 1548.49,1076.61 1552.39,1076.61 1552.39,1111.51 1556.3,1111.51 1556.3,1143.69 1560.2,1143.69 1560.2,1172.95 1564.11,1172.95 1564.11,1119.87 1568.01,1119.87 1568.01,1065.99 1571.92,1065.99 1571.92,1011.99 1575.82,1011.99 1575.82,958.502 1579.73,958.502 1579.73,906.153 1583.63,906.153 1583.63,934.817 1587.54,934.817 1587.54,963.41 1591.44,963.41 1591.44,991.739 1595.35,991.739 1595.35,1019.62 1599.25,1019.62 1599.25,1046.87 1603.16,1046.87 1603.16,1073.34 1607.06,1073.34 1607.06,1098.87 1610.97,1098.87 1610.97,1123.36 1614.87,1123.36 1614.87,1146.68 1618.78,1146.68 1618.78,1168.76 1622.68,1168.76 1622.68,1110.25 1626.59,1110.25 1626.59,1052.74 1630.49,1052.74 1630.49,996.897 1634.4,996.897 1634.4,943.337 1638.3,943.337 1638.3,892.617 1642.2,892.617 1642.2,845.226 1646.11,845.226 1646.11,801.58 1650.01,801.58 1650.01,762.01 1653.92,762.01 1653.92,726.762 1657.82,726.762 1657.82,695.995 1661.73,695.995 1661.73,749.067 1665.63,749.067 1665.63,804.335 1669.54,804.335 1669.54,861.022 1673.44,861.022 1673.44,918.341 1677.35,918.341 1677.35,975.512 1681.25,975.512 1681.25,952.49 1685.16,952.49 1685.16,930.178 1689.06,930.178 1689.06,908.581 1692.97,908.581 1692.97,887.692 1696.87,887.692 1696.87,867.497 1700.78,867.497 1700.78,847.97 1704.68,847.97 1704.68,829.079 1708.59,829.079 1708.59,810.783 1712.49,810.783 1712.49,793.035 1716.4,793.035 1716.4,775.782 1720.3,775.782 1720.3,758.967 1724.2,758.967 1724.2,742.53 1728.11,742.53 1728.11,726.41 1732.01,726.41 1732.01,710.542 1735.92,710.542 1735.92,694.865 1739.82,694.865 1739.82,679.319 1743.73,679.319 1743.73,663.845 1747.63,663.845 1747.63,648.391 1751.54,648.391 1751.54,632.907 1755.44,632.907 1755.44,617.35 1759.35,617.35 1759.35,680.971 1763.25,680.971 1763.25,742.115 1767.16,742.115 1767.16,800.084 1771.06,800.084 1771.06,854.257 1774.97,854.257 1774.97,904.104 1778.87,904.104 1778.87,949.19 1782.78,949.19 1782.78,989.182 1786.68,989.182 1786.68,1023.86 1790.59,1023.86 1790.59,1053.09 1794.49,1053.09 1794.49,1076.87 1798.4,1076.87 1798.4,1016.01 1802.3,1016.01 1802.3,952.304 1806.2,952.304 1806.2,886.725 1810.11,886.725 1810.11,820.238 1814.01,820.238 1814.01,753.805 1817.92,753.805 1817.92,688.363 1821.82,688.363 1821.82,624.805 1825.73,624.805 1825.73,563.965 1829.63,563.965 1829.63,506.602 1833.54,506.602 1833.54,453.388 1837.44,453.388 1837.44,404.895 1841.35,404.895 1841.35,361.592 1845.25,361.592 1845.25,323.833 1849.16,323.833 1849.16,291.857 1853.06,291.857 1853.06,265.786 1856.97,265.786 1856.97,245.624 1860.87,245.624 1860.87,231.264 1864.78,231.264 1864.78,222.489 1868.68,222.489 1868.68,218.984 1872.59,218.984 1872.59,220.342 1876.49,220.342 1876.49,305.364 1880.4,305.364 1880.4,391.87 1884.3,391.87 1884.3,478.572 1888.21,478.572 1888.21,564.214 1892.11,564.214 1892.11,647.591 1896.01,647.591 1896.01,648.288 1899.92,648.288 1899.92,646.896 1903.82,646.896 1903.82,643.171 1907.73,643.171 1907.73,636.925 1911.63,636.925 1911.63,628.029 1915.54,628.029 1915.54,695.701 1919.44,695.701 1919.44,758.307 1923.35,758.307 1923.35,815.217 1927.25,815.217 1927.25,865.928 1931.16,865.928 1931.16,910.07 1935.06,910.07 1935.06,868.117 1938.97,868.117 1938.97,821.597 1942.87,821.597 1942.87,771.22 1946.78,771.22 1946.78,717.756 1950.68,717.756 1950.68,662.015 1954.59,662.015 1954.59,604.832 1958.49,604.832 1958.49,547.049 1962.4,547.049 1962.4,489.497 1966.3,489.497 1966.3,432.983 1970.21,432.983 1970.21,378.272 1974.11,378.272 1974.11,326.073 1978.01,326.073 1978.01,277.029 1981.92,277.029 1981.92,231.705 1985.82,231.705 1985.82,190.579 1989.73,190.579 1989.73,154.035 1993.63,154.035 1993.63,201.647 1997.54,201.647 1997.54,251.977 2001.44,251.977 2001.44,304.43 2005.35,304.43 2005.35,358.386 2009.25,358.386 2009.25,413.207 2013.16,413.207 2013.16,388.964 2017.06,388.964 2017.06,366.65 2020.97,366.65 2020.97,346.333 2024.87,346.333 2024.87,328.041 2028.78,328.041 2028.78,311.765 2032.68,311.765 2032.68,297.461 2036.59,297.461 2036.59,285.048 2040.49,285.048 2040.49,274.415 2044.4,274.415 2044.4,265.422 2048.3,265.422 2048.3,257.904 2052.21,257.904 2052.21,251.674 2056.11,251.674 2056.11,246.529 2060.02,246.529 2060.02,242.252 2063.92,242.252 2063.92,238.62 2067.82,238.62 2067.82,235.406 2071.73,235.406 2071.73,311.673 2075.63,311.673 2075.63,385.576 2079.54,385.576 2079.54,456.23 2083.44,456.23 2083.44,522.834 2087.35,522.834 2087.35,584.686 2091.25,584.686 2091.25,561.906 2095.16,561.906 2095.16,535.641 2099.06,535.641 2099.06,506.217 2102.97,506.217 2102.97,474.013 2106.87,474.013 2106.87,439.454 2110.78,439.454 2110.78,482.294 2114.68,482.294 2114.68,521.395 2118.59,521.395 2118.59,556.587 2122.49,556.587 2122.49,587.779 2126.4,587.779 2126.4,614.952 2130.3,614.952 2130.3,638.165 2134.21,638.165 2134.21,657.547 2138.11,657.547 2138.11,673.296 2142.02,673.296 2142.02,685.668 2145.92,685.668 2145.92,694.976 2149.82,694.976 2149.82,622.288 2153.73,622.288 2153.73,549.626 2157.63,549.626 2157.63,478.091 2161.54,478.091 2161.54,408.732 2165.44,408.732 2165.44,342.529 2169.35,342.529 2169.35,280.371 2173.25,280.371 2173.25,223.048 2177.16,223.048 2177.16,171.233 2181.06,171.233 2181.06,125.474 2184.97,125.474 2184.97,86.1857 2188.87,86.1857 2188.87,132.937 2192.78,132.937 2192.78,184.245 2196.68,184.245 2196.68,239.438 2200.59,239.438 2200.59,297.784 2204.49,297.784 2204.49,358.506 2208.4,358.506 2208.4,420.799 2212.3,420.799 2212.3,483.845 2216.21,483.845 2216.21,546.831 2220.11,546.831 2220.11,608.967 2224.02,608.967 2224.02,669.496 2227.92,669.496 2227.92,727.711 2231.83,727.711 2231.83,782.969 2235.73,782.969 2235.73,834.697 2239.63,834.697 2239.63,882.407 2243.54,882.407 2243.54,925.697 2247.44,925.697 2247.44,884.975 2251.35,884.975 2251.35,841.656 2255.25,841.656 2255.25,796.307 2259.16,796.307 2259.16,749.521 2263.06,749.521 2263.06,701.907 2266.97,701.907 2266.97,733.361 2270.87,733.361 2270.87,762.861 2274.78,762.861 2274.78,790.306 2278.68,790.306 2278.68,815.64 2282.59,815.64 2282.59,838.842 2286.49,838.842 2286.49,859.932 2290.4,859.932 2290.4,878.965 2294.3,878.965 2294.3,896.032 "/>
<polyline clip-path="url(#clip302)" style="stroke:#e26f46; stroke-linecap:round; stroke-linejoin:round; stroke-width:4; stroke-opacity:1; fill:none" points="345.82,846.703 349.725,828.006 353.63,883.67 357.535,938.637 361.439,991.108 365.344,1040.86 369.249,1087.81 373.154,1052.39 377.059,1015.42 380.963,978.829 384.868,942.824 388.773,907.581 392.678,873.262 396.582,840.016 400.487,807.983 404.392,777.287 408.297,747.966 412.201,799.554 416.106,851.183 420.011,900.923 423.916,948.543 427.821,993.945 431.725,957.541 435.63,920.15 439.535,883.664 443.44,848.278 447.344,814.144 451.249,781.397 455.154,750.161 459.059,720.546 462.963,692.649 466.868,666.554 470.773,642.332 474.678,620.042 478.583,599.728 482.487,581.423 486.392,565.07 490.297,630.11 494.202,695.583 498.106,759.469 502.011,821.448 505.916,881.337 509.821,859.462 513.726,836.564 517.63,814.455 521.535,793.26 525.44,772.98 529.345,833.118 533.249,892.78 537.154,950.013 541.059,1004.57 544.964,1056.32 548.868,1025.69 552.773,993.472 556.678,961.558 560.583,930.143 564.488,899.301 568.392,948.606 572.297,997.232 576.202,1043.3 580.107,1086.61 584.011,1127.13 587.916,1085.3 591.821,1042.01 595.726,999.199 599.631,957.107 603.535,915.937 607.44,875.878 611.345,837.104 615.25,799.774 619.154,764.035 623.059,729.939 626.964,777.037 630.869,824.475 634.773,870.332 638.678,914.388 642.583,956.552 646.488,917.239 650.393,877.272 654.297,838.542 658.202,801.247 662.107,765.455 666.012,810.73 669.916,856.233 673.821,900.06 677.726,942.003 681.631,981.987 685.535,940.441 689.44,898.203 693.345,857.179 697.25,817.577 701.155,779.48 705.059,822.464 708.964,865.703 712.869,907.303 716.774,947.067 720.678,984.929 724.583,941.33 728.488,897.114 732.393,854.194 736.298,812.788 740.202,773.062 744.107,735.165 748.012,699.232 751.917,665.38 755.821,633.711 759.726,604.234 763.631,656.452 767.536,709.463 771.44,761.3 775.345,811.693 779.25,860.423 783.155,907.292 787.06,952.118 790.964,994.738 794.869,1035.01 798.774,1072.88 802.679,1028.81 806.583,983.667 810.488,939.389 814.393,896.214 818.298,854.257 822.202,893.128 826.107,932.03 830.012,969.103 833.917,1004.18 837.822,1037.16 841.726,1067.93 845.631,1096.41 849.536,1122.55 853.441,1146.29 857.345,1167.68 861.25,1107.25 865.155,1045.97 869.06,985.848 872.965,927.199 876.869,870.205 880.774,894.541 884.679,919.471 888.584,943.188 892.488,965.576 896.393,986.642 900.298,926.896 904.203,867.244 908.107,809.656 912.012,754.399 915.917,701.602 919.822,730.885 923.727,761.457 927.631,791.452 931.536,820.695 935.441,849.135 939.346,797.219 943.25,745.795 947.155,696.771 951.06,650.354 954.965,606.694 958.87,565.922 962.774,528.143 966.679,493.448 970.584,461.902 974.489,433.474 978.393,487.628 982.298,543.415 986.203,598.82 990.108,653.522 994.012,707.252 997.917,759.756 1001.82,810.797 1005.73,860.155 1009.63,907.629 1013.54,953.113 1017.44,917.009 1021.35,880.126 1025.25,844.345 1029.16,809.851 1033.06,776.703 1036.96,824.458 1040.87,872.269 1044.77,918.226 1048.68,962.118 1052.58,1003.79 1056.49,1043.09 1060.39,1079.91 1064.3,1114.15 1068.2,1145.72 1072.11,1174.62 1076.01,1121.39 1079.92,1066.94 1083.82,1013.27 1087.73,960.666 1091.63,909.381 1095.54,859.638 1099.44,811.647 1103.35,765.601 1107.25,721.672 1111.16,680.016 1115.06,640.77 1118.97,604.053 1122.87,569.965 1126.77,538.587 1130.68,509.905 1134.58,563.4 1138.49,618.142 1142.39,672.138 1146.3,725.089 1150.2,776.747 1154.11,826.883 1158.01,875.285 1161.92,921.758 1165.82,966.125 1169.73,1008.31 1173.63,968.729 1177.54,928.23 1181.44,888.712 1185.35,850.387 1189.25,813.338 1193.16,857.146 1197.06,900.988 1200.97,942.976 1204.87,982.92 1208.77,1020.68 1212.68,1056.14 1216.58,1089.2 1220.49,1119.77 1224.39,1147.78 1228.3,1173.18 1232.2,1195.94 1236.11,1216.03 1240.01,1233.46 1243.92,1248.22 1247.82,1260.43 1251.73,1190.69 1255.63,1120 1259.54,1050.44 1263.44,982.371 1267.35,916.027 1271.25,931.13 1275.16,946.991 1279.06,961.845 1282.97,975.616 1286.87,988.349 1290.78,920.587 1294.68,853.268 1298.58,788.388 1302.49,726.24 1306.39,667.055 1310.3,611.037 1314.2,558.366 1318.11,509.197 1322.01,463.66 1325.92,421.86 1329.82,383.876 1333.73,349.765 1337.63,319.561 1341.54,293.275 1345.44,270.895 1349.35,252.39 1353.25,237.708 1357.16,226.779 1361.06,219.516 1364.97,215.736 1368.87,294.751 1372.78,375.473 1376.68,455.747 1380.58,535.12 1384.49,613.196 1388.39,689.602 1392.3,763.989 1396.2,836.032 1400.11,905.432 1404.01,971.995 1407.92,956.042 1411.82,938.308 1415.73,920.609 1419.63,903.075 1423.54,885.716 1427.44,948.05 1431.35,1009.2 1435.25,1067.23 1439.16,1121.91 1443.06,1173.15 1446.97,1141.39 1450.87,1107.46 1454.78,1073.28 1458.68,1039.09 1462.59,1004.98 1466.49,1050.58 1470.39,1095.09 1474.3,1136.67 1478.2,1175.16 1482.11,1210.49 1486.01,1242.58 1489.92,1271.39 1493.82,1296.89 1497.73,1319.07 1501.63,1337.94 1505.54,1353.53 1509.44,1365.87 1513.35,1375.04 1517.25,1381.11 1521.16,1384.24 1525.06,1305.1 1528.97,1224.76 1532.87,1145.36 1536.78,1067.32 1540.68,990.94 1544.59,995.992 1548.49,1001.84 1552.39,1006.78 1556.3,1010.78 1560.2,1013.94 1564.11,936.832 1568.01,860.449 1571.92,786.822 1575.82,716.277 1579.73,649 1583.63,664.656 1587.54,682.495 1591.44,700.684 1595.35,719.076 1599.25,737.563 1603.16,756.041 1607.06,774.41 1610.97,792.574 1614.87,810.443 1618.78,828.011 1622.68,765.763 1626.59,704.583 1630.49,646.408 1634.4,591.473 1638.3,539.949 1642.2,491.983 1646.11,447.694 1650.01,407.179 1653.92,370.51 1657.82,337.657 1661.73,388.077 1665.63,440.818 1669.54,493.854 1673.44,546.849 1677.35,599.597 1681.25,572.39 1685.16,545.926 1689.06,521.969 1692.97,500.585 1696.87,481.791 1700.78,465.586 1704.68,451.958 1708.59,440.878 1712.49,432.308 1716.4,426.196 1720.3,422.478 1724.2,421.081 1728.11,421.921 1732.01,424.906 1735.92,429.936 1739.82,436.903 1743.73,445.694 1747.63,456.19 1751.54,468.266 1755.44,481.716 1759.35,575.844 1763.25,669.56 1767.16,760.723 1771.06,848.903 1774.97,933.738 1778.87,1014.9 1782.78,1092.09 1786.68,1165.04 1790.59,1233.53 1794.49,1297.44 1798.4,1277.17 1802.3,1253.55 1806.2,1228.48 1810.11,1202.19 1814.01,1174.88 1817.92,1146.73 1821.82,1117.93 1825.73,1088.66 1829.63,1059.09 1833.54,1029.4 1837.44,999.761 1841.35,970.323 1845.25,941.24 1849.16,912.657 1853.06,884.709 1856.97,857.523 1860.87,831.216 1864.78,805.898 1868.68,781.665 1872.59,758.53 1876.49,816.004 1880.4,873.199 1884.3,928.167 1888.21,980.662 1892.11,1030.57 1896.01,998.305 1899.92,964.666 1903.82,931.542 1907.73,899.128 1911.63,867.494 1915.54,916.21 1919.44,964.447 1923.35,1010.31 1927.25,1053.62 1931.16,1094.3 1935.06,1052.82 1938.97,1010.04 1942.87,967.882 1946.78,926.591 1950.68,886.358 1954.59,847.359 1958.49,809.758 1962.4,773.704 1966.3,739.332 1970.21,706.763 1974.11,676.103 1978.01,647.442 1981.92,620.86 1985.82,596.417 1989.73,574.085 1993.63,633.331 1997.54,693.221 2001.44,751.755 2005.35,808.634 2009.25,863.692 2013.16,837.272 2017.06,810.127 2020.97,784.081 2024.87,759.267 2028.78,735.774 2032.68,713.676 2036.59,693.039 2040.49,673.917 2044.4,656.356 2048.3,640.388 2052.21,626.039 2056.11,613.322 2060.02,602.243 2063.92,592.798 2067.82,584.895 2071.73,657.946 2075.63,730.966 2079.54,801.911 2083.44,870.441 2087.35,936.359 2091.25,919.979 2095.16,902.031 2099.06,884.323 2102.97,866.977 2106.87,849.995 2110.78,912.884 2114.68,974.757 2118.59,1033.67 2122.49,1089.38 2126.4,1141.71 2130.3,1190.52 2134.21,1235.67 2138.11,1277.06 2142.02,1314.61 2145.92,1348.36 2149.82,1298.83 2153.73,1246.98 2157.63,1194.83 2161.54,1142.7 2165.44,1090.89 2169.35,1039.65 2173.25,989.241 2177.16,939.91 2181.06,891.88 2184.97,845.282 2188.87,879.741 2192.78,914.478 2196.68,947.644 2200.59,979.087 2204.49,1008.7 2208.4,1036.4 2212.3,1062.1 2216.21,1085.76 2220.11,1107.31 2224.02,1126.72 2227.92,1143.98 2231.83,1159.07 2235.73,1172 2239.63,1182.78 2243.54,1191.51 2247.44,1118.8 2251.35,1045.65 2255.25,974.131 2259.16,904.592 2263.06,837.259 2266.97,851.84 2270.87,867.629 2274.78,882.844 2278.68,897.391 2282.59,911.215 2286.49,924.271 2290.4,936.517 2294.3,947.919 "/>
<polyline clip-path="url(#clip302)" style="stroke:#3da44d; stroke-linecap:round; stroke-linejoin:round; stroke-width:4; stroke-opacity:1; fill:none" points="345.82,846.313 349.725,846.313 353.63,885.957 357.535,924.434 361.439,961.405 365.344,996.569 369.249,1029.66 373.154,981.186 377.059,932.589 380.963,884.43 384.868,837.244 388.773,791.534 392.678,747.764 396.582,706.351 400.487,667.656 404.392,631.979 408.297,599.556 412.201,649.847 416.106,701.326 420.011,753.351 423.916,805.281 427.821,856.496 431.725,827.112 435.63,798.2 439.535,769.928 443.44,742.454 447.344,715.917 451.249,690.437 455.154,666.116 459.059,643.032 462.963,621.238 466.868,600.768 470.773,581.63 474.678,563.808 478.583,547.267 482.487,531.949 486.392,517.778 490.297,583.95 494.202,648.733 498.106,711.332 502.011,771.014 505.916,827.12 509.821,799.789 513.726,770.168 517.63,738.554 521.535,705.278 525.44,670.699 529.345,714.483 533.249,755.39 537.154,793.137 541.059,827.504 544.964,858.34 548.868,806.275 552.773,752.922 556.678,699.012 560.583,645.269 564.488,592.396 568.392,620.349 572.297,648.126 576.202,675.616 580.107,702.714 584.011,729.318 587.916,676.05 591.821,624.452 595.726,575.13 599.631,528.63 603.535,485.431 607.44,445.934 611.345,410.463 615.25,379.252 619.154,352.451 623.059,330.121 626.964,391.525 630.869,454.93 634.773,519.473 638.678,584.29 642.583,648.533 646.488,632.098 650.393,615.838 654.297,599.722 658.202,583.718 662.107,567.796 666.012,631.22 669.916,692.341 673.821,750.464 677.726,804.969 681.631,855.321 685.535,821.788 689.44,785.654 693.345,747.354 697.25,707.356 701.155,666.153 705.059,703.538 708.964,738.393 712.869,770.543 716.774,799.864 720.678,826.29 724.583,770.52 728.488,714.219 732.393,658.154 736.298,603.068 740.202,549.668 744.107,498.608 748.012,450.481 751.917,405.809 755.821,365.033 759.726,328.508 763.631,375.788 767.536,425.418 771.44,476.8 775.345,529.314 779.25,582.333 783.155,635.233 787.06,687.407 790.964,738.275 794.869,787.296 798.774,833.978 802.679,798.597 806.583,762.402 810.488,725.767 814.393,689.062 818.298,652.656 822.202,696.189 826.107,738.373 830.012,778.838 833.917,817.258 837.822,853.353 841.726,886.89 845.631,917.692 849.536,945.636 853.441,970.654 857.345,992.735 861.25,932.632 865.155,872.064 869.06,811.849 872.965,752.778 876.869,695.6 880.774,720.296 884.679,745.867 888.584,772.187 892.488,799.112 896.393,826.488 900.298,774.863 904.203,725.696 908.107,679.492 912.012,636.689 915.917,597.648 919.822,641.939 923.727,688.134 927.631,735.667 931.536,783.962 935.441,832.437 939.346,801.236 943.25,771.431 947.155,743.18 951.06,716.607 954.965,691.806 958.87,668.835 962.774,647.719 966.679,628.448 970.584,610.981 974.489,595.246 978.393,660.432 982.298,724.79 986.203,787.494 990.108,847.775 994.012,904.928 997.917,958.327 1001.82,1007.43 1005.73,1051.81 1009.63,1091.11 1013.54,1125.1 1017.44,1074.38 1021.35,1020.53 1025.25,964.337 1029.16,906.57 1033.06,848.035 1036.96,868.814 1040.87,888.057 1044.77,905.828 1048.68,922.215 1052.58,937.325 1056.49,951.284 1060.39,964.235 1064.3,976.328 1068.2,987.727 1072.11,998.598 1076.01,929.821 1079.92,863.186 1083.82,799.532 1087.73,739.617 1091.63,684.106 1095.54,633.564 1099.44,588.443 1103.35,549.083 1107.25,515.699 1111.16,488.391 1115.06,467.137 1118.97,451.802 1122.87,442.142 1126.77,437.811 1130.68,438.374 1134.58,522.604 1138.49,608.293 1142.39,694.13 1146.3,778.834 1150.2,861.181 1154.11,940.024 1158.01,1014.32 1161.92,1083.13 1165.82,1145.66 1169.73,1201.26 1173.63,1170.13 1177.54,1133.54 1181.44,1091.99 1185.35,1046.06 1189.25,996.386 1193.16,1022.97 1197.06,1044.93 1200.97,1062.38 1204.87,1075.49 1208.77,1084.52 1212.68,1089.8 1216.58,1091.72 1220.49,1090.72 1224.39,1087.27 1228.3,1081.88 1232.2,1075.09 1236.11,1067.43 1240.01,1059.43 1243.92,1051.63 1247.82,1044.5 1251.73,959.244 1255.63,877.904 1259.54,801.536 1263.44,731.072 1267.35,667.304 1271.25,690.16 1275.16,718.498 1279.06,751.961 1282.97,790.096 1286.87,832.371 1290.78,798.893 1294.68,770.63 1298.58,747.557 1302.49,729.554 1306.39,716.408 1310.3,707.822 1314.2,703.422 1318.11,702.765 1322.01,705.354 1325.92,710.645 1329.82,718.062 1333.73,727.007 1337.63,736.874 1341.54,747.062 1345.44,756.982 1349.35,766.075 1353.25,773.816 1357.16,779.727 1361.06,783.384 1364.97,784.422 1368.87,861.831 1372.78,933.76 1376.68,999.376 1380.58,1057.99 1384.49,1109.08 1388.39,1152.25 1392.3,1187.31 1396.2,1214.21 1400.11,1233.04 1404.01,1244.08 1407.92,1168.44 1411.82,1088.27 1415.73,1004.89 1419.63,919.662 1423.54,833.928 1427.44,828.304 1431.35,822.437 1435.25,816.852 1439.16,812.045 1443.06,808.48 1446.97,727.29 1450.87,650.472 1454.78,579.02 1458.68,513.794 1462.59,455.513 1466.49,484.03 1470.39,518.123 1474.3,557.356 1478.2,601.201 1482.11,649.052 1486.01,700.236 1489.92,754.031 1493.82,809.683 1497.73,866.419 1501.63,923.462 1505.54,980.051 1509.44,1035.45 1513.35,1088.97 1517.25,1139.96 1521.16,1187.86 1525.06,1152.88 1528.97,1116.22 1532.87,1078.22 1536.78,1039.26 1540.68,999.713 1544.59,1039.25 1548.49,1076.61 1552.39,1111.51 1556.3,1143.69 1560.2,1172.95 1564.11,1119.87 1568.01,1065.99 1571.92,1011.99 1575.82,958.502 1579.73,906.153 1583.63,934.817 1587.54,963.41 1591.44,991.739 1595.35,1019.62 1599.25,1046.87 1603.16,1073.34 1607.06,1098.87 1610.97,1123.36 1614.87,1146.68 1618.78,1168.76 1622.68,1110.25 1626.59,1052.74 1630.49,996.897 1634.4,943.337 1638.3,892.617 1642.2,845.226 1646.11,801.58 1650.01,762.01 1653.92,726.762 1657.82,695.995 1661.73,749.067 1665.63,804.335 1669.54,861.022 1673.44,918.341 1677.35,975.512 1681.25,952.49 1685.16,930.178 1689.06,908.581 1692.97,887.692 1696.87,867.497 1700.78,847.97 1704.68,829.079 1708.59,810.783 1712.49,793.035 1716.4,775.782 1720.3,758.967 1724.2,742.53 1728.11,726.41 1732.01,710.542 1735.92,694.865 1739.82,679.319 1743.73,663.845 1747.63,648.391 1751.54,632.907 1755.44,617.35 1759.35,680.971 1763.25,742.115 1767.16,800.084 1771.06,854.257 1774.97,904.104 1778.87,949.19 1782.78,989.182 1786.68,1023.86 1790.59,1053.09 1794.49,1076.87 1798.4,1016.01 1802.3,952.304 1806.2,886.725 1810.11,820.238 1814.01,753.805 1817.92,688.363 1821.82,624.805 1825.73,563.965 1829.63,506.602 1833.54,453.388 1837.44,404.895 1841.35,361.592 1845.25,323.833 1849.16,291.857 1853.06,265.786 1856.97,245.624 1860.87,231.264 1864.78,222.489 1868.68,218.984 1872.59,220.342 1876.49,305.364 1880.4,391.87 1884.3,478.572 1888.21,564.214 1892.11,647.591 1896.01,648.288 1899.92,646.896 1903.82,643.171 1907.73,636.925 1911.63,628.029 1915.54,695.701 1919.44,758.307 1923.35,815.217 1927.25,865.928 1931.16,910.07 1935.06,868.117 1938.97,821.597 1942.87,771.22 1946.78,717.756 1950.68,662.015 1954.59,604.832 1958.49,547.049 1962.4,489.497 1966.3,432.983 1970.21,378.272 1974.11,326.073 1978.01,277.029 1981.92,231.705 1985.82,190.579 1989.73,154.035 1993.63,201.647 1997.54,251.977 2001.44,304.43 2005.35,358.386 2009.25,413.207 2013.16,388.964 2017.06,366.65 2020.97,346.333 2024.87,328.041 2028.78,311.765 2032.68,297.461 2036.59,285.048 2040.49,274.415 2044.4,265.422 2048.3,257.904 2052.21,251.674 2056.11,246.529 2060.02,242.252 2063.92,238.62 2067.82,235.406 2071.73,311.673 2075.63,385.576 2079.54,456.23 2083.44,522.834 2087.35,584.686 2091.25,561.906 2095.16,535.641 2099.06,506.217 2102.97,474.013 2106.87,439.454 2110.78,482.294 2114.68,521.395 2118.59,556.587 2122.49,587.779 2126.4,614.952 2130.3,638.165 2134.21,657.547 2138.11,673.296 2142.02,685.668 2145.92,694.976 2149.82,622.288 2153.73,549.626 2157.63,478.091 2161.54,408.732 2165.44,342.529 2169.35,280.371 2173.25,223.048 2177.16,171.233 2181.06,125.474 2184.97,86.1857 2188.87,132.937 2192.78,184.245 2196.68,239.438 2200.59,297.784 2204.49,358.506 2208.4,420.799 2212.3,483.845 2216.21,546.831 2220.11,608.967 2224.02,669.496 2227.92,727.711 2231.83,782.969 2235.73,834.697 2239.63,882.407 2243.54,925.697 2247.44,884.975 2251.35,841.656 2255.25,796.307 2259.16,749.521 2263.06,701.907 2266.97,733.361 2270.87,762.861 2274.78,790.306 2278.68,815.64 2282.59,838.842 2286.49,859.932 2290.4,878.965 2294.3,896.032 "/>
<path clip-path="url(#clip300)" d="M356.212 1377.32 L1470.06 1377.32 L1470.06 1169.96 L356.212 1169.96  Z" fill="#ffffff" fill-rule="evenodd" fill-opacity="1"/>
<polyline clip-path="url(#clip300)" style="stroke:#000000; stroke-linecap:round; stroke-linejoin:round; stroke-width:4; stroke-opacity:1; fill:none" points="356.212,1377.32 1470.06,1377.32 1470.06,1169.96 356.212,1169.96 356.212,1377.32 "/>
<polyline clip-path="url(#clip300)" style="stroke:#009af9; stroke-linecap:round; stroke-linejoin:round; stroke-width:4; stroke-opacity:1; fill:none" points="379.161,1221.8 516.854,1221.8 "/>
<path clip-path="url(#clip300)" d="M544.478 1208.36 L544.478 1235.23 L550.126 1235.23 Q557.279 1235.23 560.589 1231.99 Q563.923 1228.75 563.923 1221.76 Q563.923 1214.82 560.589 1211.6 Q557.279 1208.36 550.126 1208.36 L544.478 1208.36 M539.802 1204.52 L549.409 1204.52 Q559.455 1204.52 564.154 1208.71 Q568.853 1212.87 568.853 1221.76 Q568.853 1230.7 564.131 1234.89 Q559.409 1239.08 549.409 1239.08 L539.802 1239.08 L539.802 1204.52 Z" fill="#000000" fill-rule="nonzero" fill-opacity="1" /><path clip-path="url(#clip300)" d="M587.904 1226.04 Q582.742 1226.04 580.751 1227.22 Q578.761 1228.4 578.761 1231.25 Q578.761 1233.52 580.242 1234.86 Q581.747 1236.18 584.316 1236.18 Q587.858 1236.18 589.987 1233.68 Q592.14 1231.16 592.14 1226.99 L592.14 1226.04 L587.904 1226.04 M596.399 1224.28 L596.399 1239.08 L592.14 1239.08 L592.14 1235.14 Q590.682 1237.5 588.506 1238.64 Q586.33 1239.75 583.182 1239.75 Q579.2 1239.75 576.839 1237.52 Q574.501 1235.28 574.501 1231.53 Q574.501 1227.15 577.418 1224.93 Q580.358 1222.71 586.168 1222.71 L592.14 1222.71 L592.14 1222.29 Q592.14 1219.35 590.196 1217.76 Q588.274 1216.14 584.779 1216.14 Q582.557 1216.14 580.45 1216.67 Q578.344 1217.2 576.399 1218.27 L576.399 1214.33 Q578.737 1213.43 580.936 1212.99 Q583.136 1212.52 585.219 1212.52 Q590.844 1212.52 593.622 1215.44 Q596.399 1218.36 596.399 1224.28 Z" fill="#000000" fill-rule="nonzero" fill-opacity="1" /><path clip-path="url(#clip300)" d="M609.385 1205.79 L609.385 1213.15 L618.159 1213.15 L618.159 1216.46 L609.385 1216.46 L609.385 1230.53 Q609.385 1233.7 610.242 1234.61 Q611.122 1235.51 613.784 1235.51 L618.159 1235.51 L618.159 1239.08 L613.784 1239.08 Q608.853 1239.08 606.978 1237.25 Q605.103 1235.39 605.103 1230.53 L605.103 1216.46 L601.978 1216.46 L601.978 1213.15 L605.103 1213.15 L605.103 1205.79 L609.385 1205.79 Z" fill="#000000" fill-rule="nonzero" fill-opacity="1" /><path clip-path="url(#clip300)" d="M635.543 1226.04 Q630.381 1226.04 628.39 1227.22 Q626.399 1228.4 626.399 1231.25 Q626.399 1233.52 627.881 1234.86 Q629.385 1236.18 631.955 1236.18 Q635.496 1236.18 637.626 1233.68 Q639.779 1231.16 639.779 1226.99 L639.779 1226.04 L635.543 1226.04 M644.038 1224.28 L644.038 1239.08 L639.779 1239.08 L639.779 1235.14 Q638.32 1237.5 636.145 1238.64 Q633.969 1239.75 630.82 1239.75 Q626.839 1239.75 624.478 1237.52 Q622.14 1235.28 622.14 1231.53 Q622.14 1227.15 625.057 1224.93 Q627.996 1222.71 633.807 1222.71 L639.779 1222.71 L639.779 1222.29 Q639.779 1219.35 637.834 1217.76 Q635.913 1216.14 632.418 1216.14 Q630.195 1216.14 628.089 1216.67 Q625.983 1217.2 624.038 1218.27 L624.038 1214.33 Q626.376 1213.43 628.575 1212.99 Q630.774 1212.52 632.858 1212.52 Q638.482 1212.52 641.26 1215.44 Q644.038 1218.36 644.038 1224.28 Z" fill="#000000" fill-rule="nonzero" fill-opacity="1" /><polyline clip-path="url(#clip300)" style="stroke:#e26f46; stroke-linecap:round; stroke-linejoin:round; stroke-width:4; stroke-opacity:1; fill:none" points="379.161,1273.64 516.854,1273.64 "/>
<path clip-path="url(#clip300)" d="M555.636 1260.96 L549.293 1278.16 L562.001 1278.16 L555.636 1260.96 M552.997 1256.36 L558.298 1256.36 L571.469 1290.92 L566.608 1290.92 L563.46 1282.05 L547.881 1282.05 L544.733 1290.92 L539.802 1290.92 L552.997 1256.36 Z" fill="#000000" fill-rule="nonzero" fill-opacity="1" /><path clip-path="url(#clip300)" d="M592.904 1274.71 Q594.409 1275.22 595.821 1276.89 Q597.256 1278.55 598.691 1281.47 L603.436 1290.92 L598.413 1290.92 L593.992 1282.05 Q592.279 1278.58 590.659 1277.44 Q589.061 1276.31 586.284 1276.31 L581.191 1276.31 L581.191 1290.92 L576.515 1290.92 L576.515 1256.36 L587.071 1256.36 Q592.997 1256.36 595.913 1258.83 Q598.83 1261.31 598.83 1266.31 Q598.83 1269.57 597.302 1271.73 Q595.798 1273.88 592.904 1274.71 M581.191 1260.2 L581.191 1272.47 L587.071 1272.47 Q590.45 1272.47 592.163 1270.92 Q593.899 1269.34 593.899 1266.31 Q593.899 1263.28 592.163 1261.75 Q590.45 1260.2 587.071 1260.2 L581.191 1260.2 Z" fill="#000000" fill-rule="nonzero" fill-opacity="1" /><path clip-path="url(#clip300)" d="M607.788 1256.36 L612.811 1256.36 L621.399 1269.2 L630.033 1256.36 L635.057 1256.36 L623.946 1272.95 L635.797 1290.92 L630.774 1290.92 L621.052 1276.22 L611.26 1290.92 L606.214 1290.92 L618.552 1272.47 L607.788 1256.36 Z" fill="#000000" fill-rule="nonzero" fill-opacity="1" /><path clip-path="url(#clip300)" d="M677.001 1269.97 Q678.598 1267.1 680.82 1265.73 Q683.042 1264.36 686.052 1264.36 Q690.103 1264.36 692.302 1267.21 Q694.501 1270.04 694.501 1275.27 L694.501 1290.92 L690.218 1290.92 L690.218 1275.41 Q690.218 1271.68 688.899 1269.87 Q687.579 1268.07 684.871 1268.07 Q681.561 1268.07 679.64 1270.27 Q677.718 1272.47 677.718 1276.26 L677.718 1290.92 L673.436 1290.92 L673.436 1275.41 Q673.436 1271.66 672.117 1269.87 Q670.797 1268.07 668.043 1268.07 Q664.779 1268.07 662.857 1270.29 Q660.936 1272.49 660.936 1276.26 L660.936 1290.92 L656.654 1290.92 L656.654 1264.99 L660.936 1264.99 L660.936 1269.02 Q662.394 1266.63 664.431 1265.5 Q666.468 1264.36 669.269 1264.36 Q672.093 1264.36 674.061 1265.8 Q676.052 1267.23 677.001 1269.97 Z" fill="#000000" fill-rule="nonzero" fill-opacity="1" /><path clip-path="url(#clip300)" d="M713.042 1267.98 Q709.616 1267.98 707.626 1270.66 Q705.635 1273.32 705.635 1277.98 Q705.635 1282.63 707.602 1285.31 Q709.593 1287.98 713.042 1287.98 Q716.445 1287.98 718.436 1285.29 Q720.426 1282.61 720.426 1277.98 Q720.426 1273.37 718.436 1270.68 Q716.445 1267.98 713.042 1267.98 M713.042 1264.36 Q718.598 1264.36 721.769 1267.98 Q724.94 1271.59 724.94 1277.98 Q724.94 1284.34 721.769 1287.98 Q718.598 1291.59 713.042 1291.59 Q707.464 1291.59 704.292 1287.98 Q701.144 1284.34 701.144 1277.98 Q701.144 1271.59 704.292 1267.98 Q707.464 1264.36 713.042 1264.36 Z" fill="#000000" fill-rule="nonzero" fill-opacity="1" /><path clip-path="url(#clip300)" d="M749.061 1268.92 L749.061 1254.9 L753.32 1254.9 L753.32 1290.92 L749.061 1290.92 L749.061 1287.03 Q747.718 1289.34 745.658 1290.48 Q743.621 1291.59 740.75 1291.59 Q736.051 1291.59 733.088 1287.84 Q730.149 1284.09 730.149 1277.98 Q730.149 1271.86 733.088 1268.11 Q736.051 1264.36 740.75 1264.36 Q743.621 1264.36 745.658 1265.5 Q747.718 1266.61 749.061 1268.92 M734.547 1277.98 Q734.547 1282.67 736.468 1285.36 Q738.413 1288.02 741.792 1288.02 Q745.172 1288.02 747.116 1285.36 Q749.061 1282.67 749.061 1277.98 Q749.061 1273.28 747.116 1270.61 Q745.172 1267.93 741.792 1267.93 Q738.413 1267.93 736.468 1270.61 Q734.547 1273.28 734.547 1277.98 Z" fill="#000000" fill-rule="nonzero" fill-opacity="1" /><path clip-path="url(#clip300)" d="M784.269 1276.89 L784.269 1278.97 L764.686 1278.97 Q764.963 1283.37 767.324 1285.68 Q769.709 1287.98 773.945 1287.98 Q776.398 1287.98 778.69 1287.37 Q781.005 1286.77 783.273 1285.57 L783.273 1289.6 Q780.982 1290.57 778.574 1291.08 Q776.167 1291.59 773.69 1291.59 Q767.486 1291.59 763.852 1287.98 Q760.241 1284.36 760.241 1278.21 Q760.241 1271.84 763.667 1268.11 Q767.116 1264.36 772.949 1264.36 Q778.181 1264.36 781.213 1267.74 Q784.269 1271.1 784.269 1276.89 M780.01 1275.64 Q779.963 1272.14 778.042 1270.06 Q776.144 1267.98 772.996 1267.98 Q769.431 1267.98 767.278 1269.99 Q765.148 1272 764.824 1275.66 L780.01 1275.64 Z" fill="#000000" fill-rule="nonzero" fill-opacity="1" /><path clip-path="url(#clip300)" d="M791.259 1254.9 L795.519 1254.9 L795.519 1290.92 L791.259 1290.92 L791.259 1254.9 Z" fill="#000000" fill-rule="nonzero" fill-opacity="1" /><path clip-path="url(#clip300)" d="M836.028 1265.75 L836.028 1269.78 Q834.222 1268.86 832.278 1268.39 Q830.333 1267.93 828.25 1267.93 Q825.079 1267.93 823.481 1268.9 Q821.907 1269.87 821.907 1271.82 Q821.907 1273.3 823.042 1274.16 Q824.176 1274.99 827.602 1275.75 L829.06 1276.08 Q833.597 1277.05 835.495 1278.83 Q837.417 1280.59 837.417 1283.76 Q837.417 1287.37 834.546 1289.48 Q831.699 1291.59 826.699 1291.59 Q824.616 1291.59 822.347 1291.17 Q820.102 1290.78 817.602 1289.97 L817.602 1285.57 Q819.963 1286.79 822.255 1287.42 Q824.546 1288.02 826.792 1288.02 Q829.801 1288.02 831.421 1287 Q833.042 1285.96 833.042 1284.09 Q833.042 1282.35 831.861 1281.42 Q830.704 1280.5 826.745 1279.64 L825.264 1279.3 Q821.306 1278.46 819.546 1276.75 Q817.787 1275.01 817.787 1272 Q817.787 1268.35 820.38 1266.36 Q822.972 1264.36 827.741 1264.36 Q830.102 1264.36 832.185 1264.71 Q834.268 1265.06 836.028 1265.75 Z" fill="#000000" fill-rule="nonzero" fill-opacity="1" /><path clip-path="url(#clip300)" d="M844.199 1264.99 L848.458 1264.99 L848.458 1290.92 L844.199 1290.92 L844.199 1264.99 M844.199 1254.9 L848.458 1254.9 L848.458 1260.29 L844.199 1260.29 L844.199 1254.9 Z" fill="#000000" fill-rule="nonzero" fill-opacity="1" /><path clip-path="url(#clip300)" d="M877.555 1269.97 Q879.152 1267.1 881.375 1265.73 Q883.597 1264.36 886.606 1264.36 Q890.657 1264.36 892.856 1267.21 Q895.055 1270.04 895.055 1275.27 L895.055 1290.92 L890.773 1290.92 L890.773 1275.41 Q890.773 1271.68 889.453 1269.87 Q888.134 1268.07 885.426 1268.07 Q882.115 1268.07 880.194 1270.27 Q878.273 1272.47 878.273 1276.26 L878.273 1290.92 L873.99 1290.92 L873.99 1275.41 Q873.99 1271.66 872.671 1269.87 Q871.352 1268.07 868.597 1268.07 Q865.333 1268.07 863.412 1270.29 Q861.491 1272.49 861.491 1276.26 L861.491 1290.92 L857.208 1290.92 L857.208 1264.99 L861.491 1264.99 L861.491 1269.02 Q862.949 1266.63 864.986 1265.5 Q867.023 1264.36 869.824 1264.36 Q872.648 1264.36 874.615 1265.8 Q876.606 1267.23 877.555 1269.97 Z" fill="#000000" fill-rule="nonzero" fill-opacity="1" /><path clip-path="url(#clip300)" d="M931.745 1254.9 L931.745 1258.44 L927.671 1258.44 Q925.379 1258.44 924.476 1259.36 Q923.597 1260.29 923.597 1262.7 L923.597 1264.99 L930.611 1264.99 L930.611 1268.3 L923.597 1268.3 L923.597 1290.92 L919.314 1290.92 L919.314 1268.3 L915.24 1268.3 L915.24 1264.99 L919.314 1264.99 L919.314 1263.18 Q919.314 1258.86 921.328 1256.89 Q923.342 1254.9 927.717 1254.9 L931.745 1254.9 Z" fill="#000000" fill-rule="nonzero" fill-opacity="1" /><path clip-path="url(#clip300)" d="M935.31 1264.99 L939.569 1264.99 L939.569 1290.92 L935.31 1290.92 L935.31 1264.99 M935.31 1254.9 L939.569 1254.9 L939.569 1260.29 L935.31 1260.29 L935.31 1254.9 Z" fill="#000000" fill-rule="nonzero" fill-opacity="1" /><path clip-path="url(#clip300)" d="M952.694 1257.63 L952.694 1264.99 L961.467 1264.99 L961.467 1268.3 L952.694 1268.3 L952.694 1282.37 Q952.694 1285.54 953.55 1286.45 Q954.43 1287.35 957.092 1287.35 L961.467 1287.35 L961.467 1290.92 L957.092 1290.92 Q952.161 1290.92 950.286 1289.09 Q948.411 1287.23 948.411 1282.37 L948.411 1268.3 L945.286 1268.3 L945.286 1264.99 L948.411 1264.99 L948.411 1257.63 L952.694 1257.63 Z" fill="#000000" fill-rule="nonzero" fill-opacity="1" /><path clip-path="url(#clip300)" d="M998.295 1285.04 L1003.18 1285.04 L1003.18 1290.92 L998.295 1290.92 L998.295 1285.04 M998.295 1266.4 L1003.18 1266.4 L1003.18 1272.28 L998.295 1272.28 L998.295 1266.4 Z" fill="#000000" fill-rule="nonzero" fill-opacity="1" /><path clip-path="url(#clip300)" d="M1011.03 1276.03 L1023.5 1276.03 L1023.5 1279.83 L1011.03 1279.83 L1011.03 1276.03 Z" fill="#000000" fill-rule="nonzero" fill-opacity="1" /><path clip-path="url(#clip300)" d="M1045.05 1272.28 Q1048.41 1273 1050.29 1275.27 Q1052.18 1277.54 1052.18 1280.87 Q1052.18 1285.98 1048.67 1288.79 Q1045.15 1291.59 1038.67 1291.59 Q1036.49 1291.59 1034.17 1291.15 Q1031.88 1290.73 1029.43 1289.87 L1029.43 1285.36 Q1031.37 1286.49 1033.69 1287.07 Q1036 1287.65 1038.53 1287.65 Q1042.92 1287.65 1045.22 1285.92 Q1047.53 1284.18 1047.53 1280.87 Q1047.53 1277.81 1045.38 1276.1 Q1043.25 1274.36 1039.43 1274.36 L1035.4 1274.36 L1035.4 1270.52 L1039.61 1270.52 Q1043.06 1270.52 1044.89 1269.16 Q1046.72 1267.77 1046.72 1265.17 Q1046.72 1262.51 1044.82 1261.1 Q1042.95 1259.67 1039.43 1259.67 Q1037.51 1259.67 1035.31 1260.08 Q1033.11 1260.5 1030.47 1261.38 L1030.47 1257.21 Q1033.13 1256.47 1035.45 1256.1 Q1037.79 1255.73 1039.85 1255.73 Q1045.17 1255.73 1048.27 1258.16 Q1051.37 1260.57 1051.37 1264.69 Q1051.37 1267.56 1049.73 1269.55 Q1048.09 1271.52 1045.05 1272.28 Z" fill="#000000" fill-rule="nonzero" fill-opacity="1" /><path clip-path="url(#clip300)" d="M1065.08 1286.98 L1081.4 1286.98 L1081.4 1290.92 L1059.45 1290.92 L1059.45 1286.98 Q1062.11 1284.23 1066.7 1279.6 Q1071.3 1274.94 1072.48 1273.6 Q1074.73 1271.08 1075.61 1269.34 Q1076.51 1267.58 1076.51 1265.89 Q1076.51 1263.14 1074.57 1261.4 Q1072.65 1259.67 1069.54 1259.67 Q1067.35 1259.67 1064.89 1260.43 Q1062.46 1261.19 1059.68 1262.74 L1059.68 1258.02 Q1062.51 1256.89 1064.96 1256.31 Q1067.42 1255.73 1069.45 1255.73 Q1074.82 1255.73 1078.02 1258.42 Q1081.21 1261.1 1081.21 1265.59 Q1081.21 1267.72 1080.4 1269.64 Q1079.61 1271.54 1077.51 1274.13 Q1076.93 1274.8 1073.83 1278.02 Q1070.73 1281.22 1065.08 1286.98 Z" fill="#000000" fill-rule="nonzero" fill-opacity="1" /><path clip-path="url(#clip300)" d="M1091.21 1285.04 L1096.1 1285.04 L1096.1 1290.92 L1091.21 1290.92 L1091.21 1285.04 Z" fill="#000000" fill-rule="nonzero" fill-opacity="1" /><path clip-path="url(#clip300)" d="M1105.1 1256.36 L1127.32 1256.36 L1127.32 1258.35 L1114.78 1290.92 L1109.89 1290.92 L1121.7 1260.29 L1105.1 1260.29 L1105.1 1256.36 Z" fill="#000000" fill-rule="nonzero" fill-opacity="1" /><path clip-path="url(#clip300)" d="M1136.58 1290.2 L1136.58 1285.94 Q1138.34 1286.77 1140.15 1287.21 Q1141.95 1287.65 1143.69 1287.65 Q1148.32 1287.65 1150.75 1284.55 Q1153.2 1281.42 1153.55 1275.08 Q1152.21 1277.07 1150.15 1278.14 Q1148.09 1279.2 1145.59 1279.2 Q1140.4 1279.2 1137.37 1276.08 Q1134.36 1272.93 1134.36 1267.49 Q1134.36 1262.17 1137.51 1258.95 Q1140.66 1255.73 1145.89 1255.73 Q1151.88 1255.73 1155.03 1260.34 Q1158.2 1264.92 1158.2 1273.67 Q1158.2 1281.84 1154.31 1286.73 Q1150.45 1291.59 1143.9 1291.59 Q1142.14 1291.59 1140.33 1291.24 Q1138.53 1290.89 1136.58 1290.2 M1145.89 1275.55 Q1149.04 1275.55 1150.86 1273.39 Q1152.72 1271.24 1152.72 1267.49 Q1152.72 1263.76 1150.86 1261.61 Q1149.04 1259.43 1145.89 1259.43 Q1142.74 1259.43 1140.89 1261.61 Q1139.06 1263.76 1139.06 1267.49 Q1139.06 1271.24 1140.89 1273.39 Q1142.74 1275.55 1145.89 1275.55 Z" fill="#000000" fill-rule="nonzero" fill-opacity="1" /><path clip-path="url(#clip300)" d="M1196 1275.71 Q1193.99 1275.71 1192.83 1277.42 Q1191.7 1279.13 1191.7 1282.19 Q1191.7 1285.2 1192.83 1286.93 Q1193.99 1288.65 1196 1288.65 Q1197.97 1288.65 1199.1 1286.93 Q1200.26 1285.2 1200.26 1282.19 Q1200.26 1279.16 1199.1 1277.44 Q1197.97 1275.71 1196 1275.71 M1196 1272.77 Q1199.66 1272.77 1201.81 1275.31 Q1203.97 1277.86 1203.97 1282.19 Q1203.97 1286.52 1201.79 1289.06 Q1199.64 1291.59 1196 1291.59 Q1192.3 1291.59 1190.15 1289.06 Q1187.99 1286.52 1187.99 1282.19 Q1187.99 1277.84 1190.15 1275.31 Q1192.32 1272.77 1196 1272.77 M1172.11 1258.67 Q1170.12 1258.67 1168.97 1260.41 Q1167.83 1262.12 1167.83 1265.13 Q1167.83 1268.18 1168.97 1269.9 Q1170.1 1271.61 1172.11 1271.61 Q1174.13 1271.61 1175.26 1269.9 Q1176.42 1268.18 1176.42 1265.13 Q1176.42 1262.14 1175.26 1260.41 Q1174.1 1258.67 1172.11 1258.67 M1193.02 1255.73 L1196.72 1255.73 L1175.1 1291.59 L1171.4 1291.59 L1193.02 1255.73 M1172.11 1255.73 Q1175.77 1255.73 1177.95 1258.28 Q1180.12 1260.8 1180.12 1265.13 Q1180.12 1269.5 1177.95 1272.03 Q1175.79 1274.55 1172.11 1274.55 Q1168.43 1274.55 1166.28 1272.03 Q1164.15 1269.48 1164.15 1265.13 Q1164.15 1260.82 1166.3 1258.28 Q1168.46 1255.73 1172.11 1255.73 Z" fill="#000000" fill-rule="nonzero" fill-opacity="1" /><polyline clip-path="url(#clip300)" style="stroke:#3da44d; stroke-linecap:round; stroke-linejoin:round; stroke-width:4; stroke-opacity:1; fill:none" points="379.161,1325.48 516.854,1325.48 "/>
<path clip-path="url(#clip300)" d="M555.636 1312.8 L549.293 1330 L562.001 1330 L555.636 1312.8 M552.997 1308.2 L558.298 1308.2 L571.469 1342.76 L566.608 1342.76 L563.46 1333.89 L547.881 1333.89 L544.733 1342.76 L539.802 1342.76 L552.997 1308.2 Z" fill="#000000" fill-rule="nonzero" fill-opacity="1" /><path clip-path="url(#clip300)" d="M592.904 1326.55 Q594.409 1327.06 595.821 1328.73 Q597.256 1330.39 598.691 1333.31 L603.436 1342.76 L598.413 1342.76 L593.992 1333.89 Q592.279 1330.42 590.659 1329.28 Q589.061 1328.15 586.284 1328.15 L581.191 1328.15 L581.191 1342.76 L576.515 1342.76 L576.515 1308.2 L587.071 1308.2 Q592.997 1308.2 595.913 1310.67 Q598.83 1313.15 598.83 1318.15 Q598.83 1321.41 597.302 1323.57 Q595.798 1325.72 592.904 1326.55 M581.191 1312.04 L581.191 1324.31 L587.071 1324.31 Q590.45 1324.31 592.163 1322.76 Q593.899 1321.18 593.899 1318.15 Q593.899 1315.12 592.163 1313.59 Q590.45 1312.04 587.071 1312.04 L581.191 1312.04 Z" fill="#000000" fill-rule="nonzero" fill-opacity="1" /><path clip-path="url(#clip300)" d="M607.788 1308.2 L612.811 1308.2 L621.399 1321.04 L630.033 1308.2 L635.057 1308.2 L623.946 1324.79 L635.797 1342.76 L630.774 1342.76 L621.052 1328.06 L611.26 1342.76 L606.214 1342.76 L618.552 1324.31 L607.788 1308.2 Z" fill="#000000" fill-rule="nonzero" fill-opacity="1" /><path clip-path="url(#clip300)" d="M677.001 1321.81 Q678.598 1318.94 680.82 1317.57 Q683.042 1316.2 686.052 1316.2 Q690.103 1316.2 692.302 1319.05 Q694.501 1321.88 694.501 1327.11 L694.501 1342.76 L690.218 1342.76 L690.218 1327.25 Q690.218 1323.52 688.899 1321.71 Q687.579 1319.91 684.871 1319.91 Q681.561 1319.91 679.64 1322.11 Q677.718 1324.31 677.718 1328.1 L677.718 1342.76 L673.436 1342.76 L673.436 1327.25 Q673.436 1323.5 672.117 1321.71 Q670.797 1319.91 668.043 1319.91 Q664.779 1319.91 662.857 1322.13 Q660.936 1324.33 660.936 1328.1 L660.936 1342.76 L656.654 1342.76 L656.654 1316.83 L660.936 1316.83 L660.936 1320.86 Q662.394 1318.47 664.431 1317.34 Q666.468 1316.2 669.269 1316.2 Q672.093 1316.2 674.061 1317.64 Q676.052 1319.07 677.001 1321.81 Z" fill="#000000" fill-rule="nonzero" fill-opacity="1" /><path clip-path="url(#clip300)" d="M713.042 1319.82 Q709.616 1319.82 707.626 1322.5 Q705.635 1325.16 705.635 1329.82 Q705.635 1334.47 707.602 1337.15 Q709.593 1339.82 713.042 1339.82 Q716.445 1339.82 718.436 1337.13 Q720.426 1334.45 720.426 1329.82 Q720.426 1325.21 718.436 1322.52 Q716.445 1319.82 713.042 1319.82 M713.042 1316.2 Q718.598 1316.2 721.769 1319.82 Q724.94 1323.43 724.94 1329.82 Q724.94 1336.18 721.769 1339.82 Q718.598 1343.43 713.042 1343.43 Q707.464 1343.43 704.292 1339.82 Q701.144 1336.18 701.144 1329.82 Q701.144 1323.43 704.292 1319.82 Q707.464 1316.2 713.042 1316.2 Z" fill="#000000" fill-rule="nonzero" fill-opacity="1" /><path clip-path="url(#clip300)" d="M749.061 1320.76 L749.061 1306.74 L753.32 1306.74 L753.32 1342.76 L749.061 1342.76 L749.061 1338.87 Q747.718 1341.18 745.658 1342.32 Q743.621 1343.43 740.75 1343.43 Q736.051 1343.43 733.088 1339.68 Q730.149 1335.93 730.149 1329.82 Q730.149 1323.7 733.088 1319.95 Q736.051 1316.2 740.75 1316.2 Q743.621 1316.2 745.658 1317.34 Q747.718 1318.45 749.061 1320.76 M734.547 1329.82 Q734.547 1334.51 736.468 1337.2 Q738.413 1339.86 741.792 1339.86 Q745.172 1339.86 747.116 1337.2 Q749.061 1334.51 749.061 1329.82 Q749.061 1325.12 747.116 1322.45 Q745.172 1319.77 741.792 1319.77 Q738.413 1319.77 736.468 1322.45 Q734.547 1325.12 734.547 1329.82 Z" fill="#000000" fill-rule="nonzero" fill-opacity="1" /><path clip-path="url(#clip300)" d="M784.269 1328.73 L784.269 1330.81 L764.686 1330.81 Q764.963 1335.21 767.324 1337.52 Q769.709 1339.82 773.945 1339.82 Q776.398 1339.82 778.69 1339.21 Q781.005 1338.61 783.273 1337.41 L783.273 1341.44 Q780.982 1342.41 778.574 1342.92 Q776.167 1343.43 773.69 1343.43 Q767.486 1343.43 763.852 1339.82 Q760.241 1336.2 760.241 1330.05 Q760.241 1323.68 763.667 1319.95 Q767.116 1316.2 772.949 1316.2 Q778.181 1316.2 781.213 1319.58 Q784.269 1322.94 784.269 1328.73 M780.01 1327.48 Q779.963 1323.98 778.042 1321.9 Q776.144 1319.82 772.996 1319.82 Q769.431 1319.82 767.278 1321.83 Q765.148 1323.84 764.824 1327.5 L780.01 1327.48 Z" fill="#000000" fill-rule="nonzero" fill-opacity="1" /><path clip-path="url(#clip300)" d="M791.259 1306.74 L795.519 1306.74 L795.519 1342.76 L791.259 1342.76 L791.259 1306.74 Z" fill="#000000" fill-rule="nonzero" fill-opacity="1" /><path clip-path="url(#clip300)" d="M817.023 1316.83 L821.282 1316.83 L826.606 1337.06 L831.907 1316.83 L836.93 1316.83 L842.255 1337.06 L847.555 1316.83 L851.815 1316.83 L845.032 1342.76 L840.009 1342.76 L834.431 1321.51 L828.829 1342.76 L823.806 1342.76 L817.023 1316.83 Z" fill="#000000" fill-rule="nonzero" fill-opacity="1" /><path clip-path="url(#clip300)" d="M858.273 1316.83 L862.532 1316.83 L862.532 1342.76 L858.273 1342.76 L858.273 1316.83 M858.273 1306.74 L862.532 1306.74 L862.532 1312.13 L858.273 1312.13 L858.273 1306.74 Z" fill="#000000" fill-rule="nonzero" fill-opacity="1" /><path clip-path="url(#clip300)" d="M875.657 1309.47 L875.657 1316.83 L884.43 1316.83 L884.43 1320.14 L875.657 1320.14 L875.657 1334.21 Q875.657 1337.38 876.514 1338.29 Q877.393 1339.19 880.055 1339.19 L884.43 1339.19 L884.43 1342.76 L880.055 1342.76 Q875.125 1342.76 873.25 1340.93 Q871.375 1339.07 871.375 1334.21 L871.375 1320.14 L868.25 1320.14 L868.25 1316.83 L871.375 1316.83 L871.375 1309.47 L875.657 1309.47 Z" fill="#000000" fill-rule="nonzero" fill-opacity="1" /><path clip-path="url(#clip300)" d="M911.583 1327.11 L911.583 1342.76 L907.324 1342.76 L907.324 1327.25 Q907.324 1323.57 905.888 1321.74 Q904.453 1319.91 901.583 1319.91 Q898.134 1319.91 896.143 1322.11 Q894.152 1324.31 894.152 1328.1 L894.152 1342.76 L889.87 1342.76 L889.87 1306.74 L894.152 1306.74 L894.152 1320.86 Q895.68 1318.52 897.74 1317.36 Q899.824 1316.2 902.532 1316.2 Q907 1316.2 909.291 1318.98 Q911.583 1321.74 911.583 1327.11 Z" fill="#000000" fill-rule="nonzero" fill-opacity="1" /><path clip-path="url(#clip300)" d="M952.208 1320.76 L952.208 1306.74 L956.467 1306.74 L956.467 1342.76 L952.208 1342.76 L952.208 1338.87 Q950.865 1341.18 948.805 1342.32 Q946.768 1343.43 943.898 1343.43 Q939.198 1343.43 936.236 1339.68 Q933.296 1335.93 933.296 1329.82 Q933.296 1323.7 936.236 1319.95 Q939.198 1316.2 943.898 1316.2 Q946.768 1316.2 948.805 1317.34 Q950.865 1318.45 952.208 1320.76 M937.694 1329.82 Q937.694 1334.51 939.615 1337.2 Q941.56 1339.86 944.939 1339.86 Q948.319 1339.86 950.263 1337.2 Q952.208 1334.51 952.208 1329.82 Q952.208 1325.12 950.263 1322.45 Q948.319 1319.77 944.939 1319.77 Q941.56 1319.77 939.615 1322.45 Q937.694 1325.12 937.694 1329.82 Z" fill="#000000" fill-rule="nonzero" fill-opacity="1" /><path clip-path="url(#clip300)" d="M987.416 1328.73 L987.416 1330.81 L967.833 1330.81 Q968.11 1335.21 970.471 1337.52 Q972.856 1339.82 977.092 1339.82 Q979.545 1339.82 981.837 1339.21 Q984.152 1338.61 986.42 1337.41 L986.42 1341.44 Q984.129 1342.41 981.721 1342.92 Q979.314 1343.43 976.837 1343.43 Q970.633 1343.43 966.999 1339.82 Q963.388 1336.2 963.388 1330.05 Q963.388 1323.68 966.814 1319.95 Q970.263 1316.2 976.096 1316.2 Q981.328 1316.2 984.36 1319.58 Q987.416 1322.94 987.416 1328.73 M983.157 1327.48 Q983.11 1323.98 981.189 1321.9 Q979.291 1319.82 976.143 1319.82 Q972.578 1319.82 970.425 1321.83 Q968.296 1323.84 967.971 1327.5 L983.157 1327.48 Z" fill="#000000" fill-rule="nonzero" fill-opacity="1" /><path clip-path="url(#clip300)" d="M994.407 1306.74 L998.666 1306.74 L998.666 1342.76 L994.407 1342.76 L994.407 1306.74 Z" fill="#000000" fill-rule="nonzero" fill-opacity="1" /><path clip-path="url(#clip300)" d="M1019.36 1329.72 Q1014.2 1329.72 1012.21 1330.9 Q1010.22 1332.08 1010.22 1334.93 Q1010.22 1337.2 1011.7 1338.54 Q1013.2 1339.86 1015.77 1339.86 Q1019.31 1339.86 1021.44 1337.36 Q1023.6 1334.84 1023.6 1330.67 L1023.6 1329.72 L1019.36 1329.72 M1027.86 1327.96 L1027.86 1342.76 L1023.6 1342.76 L1023.6 1338.82 Q1022.14 1341.18 1019.96 1342.32 Q1017.79 1343.43 1014.64 1343.43 Q1010.66 1343.43 1008.3 1341.2 Q1005.96 1338.96 1005.96 1335.21 Q1005.96 1330.83 1008.87 1328.61 Q1011.81 1326.39 1017.62 1326.39 L1023.6 1326.39 L1023.6 1325.97 Q1023.6 1323.03 1021.65 1321.44 Q1019.73 1319.82 1016.24 1319.82 Q1014.01 1319.82 1011.91 1320.35 Q1009.8 1320.88 1007.86 1321.95 L1007.86 1318.01 Q1010.19 1317.11 1012.39 1316.67 Q1014.59 1316.2 1016.67 1316.2 Q1022.3 1316.2 1025.08 1319.12 Q1027.86 1322.04 1027.86 1327.96 Z" fill="#000000" fill-rule="nonzero" fill-opacity="1" /><path clip-path="url(#clip300)" d="M1047.42 1345.16 Q1045.61 1349.79 1043.9 1351.2 Q1042.18 1352.62 1039.31 1352.62 L1035.91 1352.62 L1035.91 1349.05 L1038.41 1349.05 Q1040.17 1349.05 1041.14 1348.22 Q1042.11 1347.38 1043.3 1344.28 L1044.06 1342.34 L1033.57 1316.83 L1038.09 1316.83 L1046.19 1337.11 L1054.29 1316.83 L1058.8 1316.83 L1047.42 1345.16 Z" fill="#000000" fill-rule="nonzero" fill-opacity="1" /><path clip-path="url(#clip300)" d="M1096.28 1317.59 L1096.28 1321.62 Q1094.48 1320.7 1092.53 1320.23 Q1090.59 1319.77 1088.5 1319.77 Q1085.33 1319.77 1083.73 1320.74 Q1082.16 1321.71 1082.16 1323.66 Q1082.16 1325.14 1083.29 1326 Q1084.43 1326.83 1087.86 1327.59 L1089.31 1327.92 Q1093.85 1328.89 1095.75 1330.67 Q1097.67 1332.43 1097.67 1335.6 Q1097.67 1339.21 1094.8 1341.32 Q1091.95 1343.43 1086.95 1343.43 Q1084.87 1343.43 1082.6 1343.01 Q1080.36 1342.62 1077.86 1341.81 L1077.86 1337.41 Q1080.22 1338.63 1082.51 1339.26 Q1084.8 1339.86 1087.04 1339.86 Q1090.05 1339.86 1091.67 1338.84 Q1093.29 1337.8 1093.29 1335.93 Q1093.29 1334.19 1092.11 1333.26 Q1090.96 1332.34 1087 1331.48 L1085.52 1331.14 Q1081.56 1330.3 1079.8 1328.59 Q1078.04 1326.85 1078.04 1323.84 Q1078.04 1320.19 1080.63 1318.2 Q1083.23 1316.2 1087.99 1316.2 Q1090.36 1316.2 1092.44 1316.55 Q1094.52 1316.9 1096.28 1317.59 Z" fill="#000000" fill-rule="nonzero" fill-opacity="1" /><path clip-path="url(#clip300)" d="M1104.45 1316.83 L1108.71 1316.83 L1108.71 1342.76 L1104.45 1342.76 L1104.45 1316.83 M1104.45 1306.74 L1108.71 1306.74 L1108.71 1312.13 L1104.45 1312.13 L1104.45 1306.74 Z" fill="#000000" fill-rule="nonzero" fill-opacity="1" /><path clip-path="url(#clip300)" d="M1137.81 1321.81 Q1139.41 1318.94 1141.63 1317.57 Q1143.85 1316.2 1146.86 1316.2 Q1150.91 1316.2 1153.11 1319.05 Q1155.31 1321.88 1155.31 1327.11 L1155.31 1342.76 L1151.03 1342.76 L1151.03 1327.25 Q1151.03 1323.52 1149.71 1321.71 Q1148.39 1319.91 1145.68 1319.91 Q1142.37 1319.91 1140.45 1322.11 Q1138.53 1324.31 1138.53 1328.1 L1138.53 1342.76 L1134.24 1342.76 L1134.24 1327.25 Q1134.24 1323.5 1132.92 1321.71 Q1131.6 1319.91 1128.85 1319.91 Q1125.59 1319.91 1123.67 1322.13 Q1121.74 1324.33 1121.74 1328.1 L1121.74 1342.76 L1117.46 1342.76 L1117.46 1316.83 L1121.74 1316.83 L1121.74 1320.86 Q1123.2 1318.47 1125.24 1317.34 Q1127.28 1316.2 1130.08 1316.2 Q1132.9 1316.2 1134.87 1317.64 Q1136.86 1319.07 1137.81 1321.81 Z" fill="#000000" fill-rule="nonzero" fill-opacity="1" /><path clip-path="url(#clip300)" d="M1192 1306.74 L1192 1310.28 L1187.92 1310.28 Q1185.63 1310.28 1184.73 1311.2 Q1183.85 1312.13 1183.85 1314.54 L1183.85 1316.83 L1190.86 1316.83 L1190.86 1320.14 L1183.85 1320.14 L1183.85 1342.76 L1179.57 1342.76 L1179.57 1320.14 L1175.49 1320.14 L1175.49 1316.83 L1179.57 1316.83 L1179.57 1315.02 Q1179.57 1310.7 1181.58 1308.73 Q1183.6 1306.74 1187.97 1306.74 L1192 1306.74 Z" fill="#000000" fill-rule="nonzero" fill-opacity="1" /><path clip-path="url(#clip300)" d="M1195.56 1316.83 L1199.82 1316.83 L1199.82 1342.76 L1195.56 1342.76 L1195.56 1316.83 M1195.56 1306.74 L1199.82 1306.74 L1199.82 1312.13 L1195.56 1312.13 L1195.56 1306.74 Z" fill="#000000" fill-rule="nonzero" fill-opacity="1" /><path clip-path="url(#clip300)" d="M1212.95 1309.47 L1212.95 1316.83 L1221.72 1316.83 L1221.72 1320.14 L1212.95 1320.14 L1212.95 1334.21 Q1212.95 1337.38 1213.8 1338.29 Q1214.68 1339.19 1217.35 1339.19 L1221.72 1339.19 L1221.72 1342.76 L1217.35 1342.76 Q1212.41 1342.76 1210.54 1340.93 Q1208.66 1339.07 1208.66 1334.21 L1208.66 1320.14 L1205.54 1320.14 L1205.54 1316.83 L1208.66 1316.83 L1208.66 1309.47 L1212.95 1309.47 Z" fill="#000000" fill-rule="nonzero" fill-opacity="1" /><path clip-path="url(#clip300)" d="M1258.55 1336.88 L1263.43 1336.88 L1263.43 1342.76 L1258.55 1342.76 L1258.55 1336.88 M1258.55 1318.24 L1263.43 1318.24 L1263.43 1324.12 L1258.55 1324.12 L1258.55 1318.24 Z" fill="#000000" fill-rule="nonzero" fill-opacity="1" /><path clip-path="url(#clip300)" d="M1274.84 1338.82 L1282.48 1338.82 L1282.48 1312.45 L1274.17 1314.12 L1274.17 1309.86 L1282.44 1308.2 L1287.11 1308.2 L1287.11 1338.82 L1294.75 1338.82 L1294.75 1342.76 L1274.84 1342.76 L1274.84 1338.82 Z" fill="#000000" fill-rule="nonzero" fill-opacity="1" /><path clip-path="url(#clip300)" d="M1314.2 1311.27 Q1310.59 1311.27 1308.76 1314.84 Q1306.95 1318.38 1306.95 1325.51 Q1306.95 1332.62 1308.76 1336.18 Q1310.59 1339.72 1314.2 1339.72 Q1317.83 1339.72 1319.64 1336.18 Q1321.46 1332.62 1321.46 1325.51 Q1321.46 1318.38 1319.64 1314.84 Q1317.83 1311.27 1314.2 1311.27 M1314.2 1307.57 Q1320.01 1307.57 1323.06 1312.18 Q1326.14 1316.76 1326.14 1325.51 Q1326.14 1334.24 1323.06 1338.84 Q1320.01 1343.43 1314.2 1343.43 Q1308.39 1343.43 1305.31 1338.84 Q1302.25 1334.24 1302.25 1325.51 Q1302.25 1316.76 1305.31 1312.18 Q1308.39 1307.57 1314.2 1307.57 Z" fill="#000000" fill-rule="nonzero" fill-opacity="1" /><path clip-path="url(#clip300)" d="M1344.36 1311.27 Q1340.75 1311.27 1338.92 1314.84 Q1337.11 1318.38 1337.11 1325.51 Q1337.11 1332.62 1338.92 1336.18 Q1340.75 1339.72 1344.36 1339.72 Q1347.99 1339.72 1349.8 1336.18 Q1351.63 1332.62 1351.63 1325.51 Q1351.63 1318.38 1349.8 1314.84 Q1347.99 1311.27 1344.36 1311.27 M1344.36 1307.57 Q1350.17 1307.57 1353.22 1312.18 Q1356.3 1316.76 1356.3 1325.51 Q1356.3 1334.24 1353.22 1338.84 Q1350.17 1343.43 1344.36 1343.43 Q1338.55 1343.43 1335.47 1338.84 Q1332.41 1334.24 1332.41 1325.51 Q1332.41 1316.76 1335.47 1312.18 Q1338.55 1307.57 1344.36 1307.57 Z" fill="#000000" fill-rule="nonzero" fill-opacity="1" /><path clip-path="url(#clip300)" d="M1364.52 1336.88 L1369.4 1336.88 L1369.4 1342.76 L1364.52 1342.76 L1364.52 1336.88 Z" fill="#000000" fill-rule="nonzero" fill-opacity="1" /><path clip-path="url(#clip300)" d="M1389.59 1311.27 Q1385.98 1311.27 1384.15 1314.84 Q1382.34 1318.38 1382.34 1325.51 Q1382.34 1332.62 1384.15 1336.18 Q1385.98 1339.72 1389.59 1339.72 Q1393.22 1339.72 1395.03 1336.18 Q1396.86 1332.62 1396.86 1325.51 Q1396.86 1318.38 1395.03 1314.84 Q1393.22 1311.27 1389.59 1311.27 M1389.59 1307.57 Q1395.4 1307.57 1398.46 1312.18 Q1401.53 1316.76 1401.53 1325.51 Q1401.53 1334.24 1398.46 1338.84 Q1395.4 1343.43 1389.59 1343.43 Q1383.78 1343.43 1380.7 1338.84 Q1377.65 1334.24 1377.65 1325.51 Q1377.65 1316.76 1380.7 1312.18 Q1383.78 1307.57 1389.59 1307.57 Z" fill="#000000" fill-rule="nonzero" fill-opacity="1" /><path clip-path="url(#clip300)" d="M1439.15 1327.55 Q1437.14 1327.55 1435.98 1329.26 Q1434.84 1330.97 1434.84 1334.03 Q1434.84 1337.04 1435.98 1338.77 Q1437.14 1340.49 1439.15 1340.49 Q1441.12 1340.49 1442.25 1338.77 Q1443.41 1337.04 1443.41 1334.03 Q1443.41 1331 1442.25 1329.28 Q1441.12 1327.55 1439.15 1327.55 M1439.15 1324.61 Q1442.81 1324.61 1444.96 1327.15 Q1447.11 1329.7 1447.11 1334.03 Q1447.11 1338.36 1444.94 1340.9 Q1442.78 1343.43 1439.15 1343.43 Q1435.45 1343.43 1433.29 1340.9 Q1431.14 1338.36 1431.14 1334.03 Q1431.14 1329.68 1433.29 1327.15 Q1435.47 1324.61 1439.15 1324.61 M1415.26 1310.51 Q1413.27 1310.51 1412.11 1312.25 Q1410.98 1313.96 1410.98 1316.97 Q1410.98 1320.02 1412.11 1321.74 Q1413.25 1323.45 1415.26 1323.45 Q1417.27 1323.45 1418.41 1321.74 Q1419.57 1320.02 1419.57 1316.97 Q1419.57 1313.98 1418.41 1312.25 Q1417.25 1310.51 1415.26 1310.51 M1436.16 1307.57 L1439.87 1307.57 L1418.25 1343.43 L1414.54 1343.43 L1436.16 1307.57 M1415.26 1307.57 Q1418.92 1307.57 1421.09 1310.12 Q1423.27 1312.64 1423.27 1316.97 Q1423.27 1321.34 1421.09 1323.87 Q1418.94 1326.39 1415.26 1326.39 Q1411.58 1326.39 1409.43 1323.87 Q1407.3 1321.32 1407.3 1316.97 Q1407.3 1312.66 1409.45 1310.12 Q1411.6 1307.57 1415.26 1307.57 Z" fill="#000000" fill-rule="nonzero" fill-opacity="1" /></svg>
