<?xml version="1.0" encoding="utf-8"?>
<svg xmlns="http://www.w3.org/2000/svg" xmlns:xlink="http://www.w3.org/1999/xlink" width="600" height="400" viewBox="0 0 2400 1600">
<defs>
  <clipPath id="clip210">
    <rect x="0" y="0" width="2400" height="1600"/>
  </clipPath>
</defs>
<path clip-path="url(#clip210)" d="M0 1600 L2400 1600 L2400 0 L0 0  Z" fill="#ffffff" fill-rule="evenodd" fill-opacity="1"/>
<defs>
  <clipPath id="clip211">
    <rect x="480" y="0" width="1681" height="1600"/>
  </clipPath>
</defs>
<path clip-path="url(#clip210)" d="M287.366 623.18 L2352.76 623.18 L2352.76 47.2441 L287.366 47.2441  Z" fill="#ffffff" fill-rule="evenodd" fill-opacity="1"/>
<defs>
  <clipPath id="clip212">
    <rect x="287" y="47" width="2066" height="577"/>
  </clipPath>
</defs>
<polyline clip-path="url(#clip212)" style="stroke:#000000; stroke-linecap:round; stroke-linejoin:round; stroke-width:2; stroke-opacity:0.1; fill:none" points="345.82,623.18 345.82,47.2441 "/>
<polyline clip-path="url(#clip212)" style="stroke:#000000; stroke-linecap:round; stroke-linejoin:round; stroke-width:2; stroke-opacity:0.1; fill:none" points="736.298,623.18 736.298,47.2441 "/>
<polyline clip-path="url(#clip212)" style="stroke:#000000; stroke-linecap:round; stroke-linejoin:round; stroke-width:2; stroke-opacity:0.1; fill:none" points="1126.77,623.18 1126.77,47.2441 "/>
<polyline clip-path="url(#clip212)" style="stroke:#000000; stroke-linecap:round; stroke-linejoin:round; stroke-width:2; stroke-opacity:0.1; fill:none" points="1517.25,623.18 1517.25,47.2441 "/>
<polyline clip-path="url(#clip212)" style="stroke:#000000; stroke-linecap:round; stroke-linejoin:round; stroke-width:2; stroke-opacity:0.1; fill:none" points="1907.73,623.18 1907.73,47.2441 "/>
<polyline clip-path="url(#clip212)" style="stroke:#000000; stroke-linecap:round; stroke-linejoin:round; stroke-width:2; stroke-opacity:0.1; fill:none" points="2298.21,623.18 2298.21,47.2441 "/>
<polyline clip-path="url(#clip212)" style="stroke:#000000; stroke-linecap:round; stroke-linejoin:round; stroke-width:2; stroke-opacity:0.1; fill:none" points="287.366,608.432 2352.76,608.432 "/>
<polyline clip-path="url(#clip212)" style="stroke:#000000; stroke-linecap:round; stroke-linejoin:round; stroke-width:2; stroke-opacity:0.1; fill:none" points="287.366,514.33 2352.76,514.33 "/>
<polyline clip-path="url(#clip212)" style="stroke:#000000; stroke-linecap:round; stroke-linejoin:round; stroke-width:2; stroke-opacity:0.1; fill:none" points="287.366,420.229 2352.76,420.229 "/>
<polyline clip-path="url(#clip212)" style="stroke:#000000; stroke-linecap:round; stroke-linejoin:round; stroke-width:2; stroke-opacity:0.1; fill:none" points="287.366,326.127 2352.76,326.127 "/>
<polyline clip-path="url(#clip212)" style="stroke:#000000; stroke-linecap:round; stroke-linejoin:round; stroke-width:2; stroke-opacity:0.1; fill:none" points="287.366,232.025 2352.76,232.025 "/>
<polyline clip-path="url(#clip212)" style="stroke:#000000; stroke-linecap:round; stroke-linejoin:round; stroke-width:2; stroke-opacity:0.1; fill:none" points="287.366,137.923 2352.76,137.923 "/>
<polyline clip-path="url(#clip210)" style="stroke:#000000; stroke-linecap:round; stroke-linejoin:round; stroke-width:4; stroke-opacity:1; fill:none" points="287.366,623.18 2352.76,623.18 "/>
<polyline clip-path="url(#clip210)" style="stroke:#000000; stroke-linecap:round; stroke-linejoin:round; stroke-width:4; stroke-opacity:1; fill:none" points="345.82,623.18 345.82,604.282 "/>
<polyline clip-path="url(#clip210)" style="stroke:#000000; stroke-linecap:round; stroke-linejoin:round; stroke-width:4; stroke-opacity:1; fill:none" points="736.298,623.18 736.298,604.282 "/>
<polyline clip-path="url(#clip210)" style="stroke:#000000; stroke-linecap:round; stroke-linejoin:round; stroke-width:4; stroke-opacity:1; fill:none" points="1126.77,623.18 1126.77,604.282 "/>
<polyline clip-path="url(#clip210)" style="stroke:#000000; stroke-linecap:round; stroke-linejoin:round; stroke-width:4; stroke-opacity:1; fill:none" points="1517.25,623.18 1517.25,604.282 "/>
<polyline clip-path="url(#clip210)" style="stroke:#000000; stroke-linecap:round; stroke-linejoin:round; stroke-width:4; stroke-opacity:1; fill:none" points="1907.73,623.18 1907.73,604.282 "/>
<polyline clip-path="url(#clip210)" style="stroke:#000000; stroke-linecap:round; stroke-linejoin:round; stroke-width:4; stroke-opacity:1; fill:none" points="2298.21,623.18 2298.21,604.282 "/>
<path clip-path="url(#clip210)" d="M345.82 654.099 Q342.209 654.099 340.381 657.663 Q338.575 661.205 338.575 668.335 Q338.575 675.441 340.381 679.006 Q342.209 682.547 345.82 682.547 Q349.455 682.547 351.26 679.006 Q353.089 675.441 353.089 668.335 Q353.089 661.205 351.26 657.663 Q349.455 654.099 345.82 654.099 M345.82 650.395 Q351.63 650.395 354.686 655.001 Q357.765 659.585 357.765 668.335 Q357.765 677.061 354.686 681.668 Q351.63 686.251 345.82 686.251 Q340.01 686.251 336.931 681.668 Q333.876 677.061 333.876 668.335 Q333.876 659.585 336.931 655.001 Q340.01 650.395 345.82 650.395 Z" fill="#000000" fill-rule="nonzero" fill-opacity="1" /><path clip-path="url(#clip210)" d="M726.68 681.645 L734.318 681.645 L734.318 655.279 L726.008 656.946 L726.008 652.687 L734.272 651.02 L738.948 651.02 L738.948 681.645 L746.587 681.645 L746.587 685.58 L726.68 685.58 L726.68 681.645 Z" fill="#000000" fill-rule="nonzero" fill-opacity="1" /><path clip-path="url(#clip210)" d="M1121.43 681.645 L1137.75 681.645 L1137.75 685.58 L1115.8 685.58 L1115.8 681.645 Q1118.46 678.89 1123.05 674.26 Q1127.65 669.608 1128.83 668.265 Q1131.08 665.742 1131.96 664.006 Q1132.86 662.247 1132.86 660.557 Q1132.86 657.802 1130.92 656.066 Q1129 654.33 1125.9 654.33 Q1123.7 654.33 1121.24 655.094 Q1118.81 655.858 1116.03 657.409 L1116.03 652.687 Q1118.86 651.552 1121.31 650.974 Q1123.77 650.395 1125.8 650.395 Q1131.17 650.395 1134.37 653.08 Q1137.56 655.765 1137.56 660.256 Q1137.56 662.386 1136.75 664.307 Q1135.96 666.205 1133.86 668.798 Q1133.28 669.469 1130.18 672.686 Q1127.08 675.881 1121.43 681.645 Z" fill="#000000" fill-rule="nonzero" fill-opacity="1" /><path clip-path="url(#clip210)" d="M1521.5 666.946 Q1524.86 667.663 1526.73 669.932 Q1528.63 672.2 1528.63 675.534 Q1528.63 680.649 1525.11 683.45 Q1521.59 686.251 1515.11 686.251 Q1512.93 686.251 1510.62 685.811 Q1508.33 685.395 1505.87 684.538 L1505.87 680.024 Q1507.82 681.159 1510.13 681.737 Q1512.45 682.316 1514.97 682.316 Q1519.37 682.316 1521.66 680.58 Q1523.98 678.844 1523.98 675.534 Q1523.98 672.478 1521.82 670.765 Q1519.69 669.029 1515.87 669.029 L1511.85 669.029 L1511.85 665.186 L1516.06 665.186 Q1519.51 665.186 1521.34 663.821 Q1523.17 662.432 1523.17 659.839 Q1523.17 657.177 1521.27 655.765 Q1519.39 654.33 1515.87 654.33 Q1513.95 654.33 1511.75 654.747 Q1509.56 655.163 1506.92 656.043 L1506.92 651.876 Q1509.58 651.136 1511.89 650.765 Q1514.23 650.395 1516.29 650.395 Q1521.62 650.395 1524.72 652.825 Q1527.82 655.233 1527.82 659.353 Q1527.82 662.223 1526.18 664.214 Q1524.53 666.182 1521.5 666.946 Z" fill="#000000" fill-rule="nonzero" fill-opacity="1" /><path clip-path="url(#clip210)" d="M1910.74 655.094 L1898.93 673.543 L1910.74 673.543 L1910.74 655.094 M1909.51 651.02 L1915.39 651.02 L1915.39 673.543 L1920.32 673.543 L1920.32 677.432 L1915.39 677.432 L1915.39 685.58 L1910.74 685.58 L1910.74 677.432 L1895.14 677.432 L1895.14 672.918 L1909.51 651.02 Z" fill="#000000" fill-rule="nonzero" fill-opacity="1" /><path clip-path="url(#clip210)" d="M2288.48 651.02 L2306.84 651.02 L2306.84 654.955 L2292.77 654.955 L2292.77 663.427 Q2293.78 663.08 2294.8 662.918 Q2295.82 662.733 2296.84 662.733 Q2302.63 662.733 2306.01 665.904 Q2309.39 669.075 2309.39 674.492 Q2309.39 680.071 2305.91 683.172 Q2302.44 686.251 2296.12 686.251 Q2293.95 686.251 2291.68 685.881 Q2289.43 685.51 2287.03 684.77 L2287.03 680.071 Q2289.11 681.205 2291.33 681.76 Q2293.55 682.316 2296.03 682.316 Q2300.03 682.316 2302.37 680.21 Q2304.71 678.103 2304.71 674.492 Q2304.71 670.881 2302.37 668.774 Q2300.03 666.668 2296.03 666.668 Q2294.16 666.668 2292.28 667.085 Q2290.43 667.501 2288.48 668.381 L2288.48 651.02 Z" fill="#000000" fill-rule="nonzero" fill-opacity="1" /><path clip-path="url(#clip210)" d="M1190.23 720.524 L1230.43 720.524 L1230.43 725.935 L1213.56 725.935 L1213.56 768.044 L1207.1 768.044 L1207.1 725.935 L1190.23 725.935 L1190.23 720.524 Z" fill="#000000" fill-rule="nonzero" fill-opacity="1" /><path clip-path="url(#clip210)" d="M1234.38 732.396 L1240.23 732.396 L1240.23 768.044 L1234.38 768.044 L1234.38 732.396 M1234.38 718.519 L1240.23 718.519 L1240.23 725.935 L1234.38 725.935 L1234.38 718.519 Z" fill="#000000" fill-rule="nonzero" fill-opacity="1" /><path clip-path="url(#clip210)" d="M1280.24 739.239 Q1282.44 735.292 1285.5 733.414 Q1288.55 731.537 1292.69 731.537 Q1298.26 731.537 1301.28 735.451 Q1304.31 739.335 1304.31 746.528 L1304.31 768.044 L1298.42 768.044 L1298.42 746.719 Q1298.42 741.594 1296.6 739.112 Q1294.79 736.629 1291.07 736.629 Q1286.51 736.629 1283.87 739.653 Q1281.23 742.677 1281.23 747.896 L1281.23 768.044 L1275.34 768.044 L1275.34 746.719 Q1275.34 741.563 1273.53 739.112 Q1271.71 736.629 1267.93 736.629 Q1263.44 736.629 1260.8 739.685 Q1258.15 742.708 1258.15 747.896 L1258.15 768.044 L1252.27 768.044 L1252.27 732.396 L1258.15 732.396 L1258.15 737.934 Q1260.16 734.656 1262.96 733.096 Q1265.76 731.537 1269.61 731.537 Q1273.5 731.537 1276.2 733.51 Q1278.94 735.483 1280.24 739.239 Z" fill="#000000" fill-rule="nonzero" fill-opacity="1" /><path clip-path="url(#clip210)" d="M1346.48 748.756 L1346.48 751.62 L1319.55 751.62 Q1319.93 757.668 1323.18 760.851 Q1326.46 764.002 1332.28 764.002 Q1335.66 764.002 1338.81 763.174 Q1341.99 762.347 1345.11 760.691 L1345.11 766.23 Q1341.96 767.566 1338.65 768.267 Q1335.34 768.967 1331.93 768.967 Q1323.4 768.967 1318.41 764.002 Q1313.44 759.036 1313.44 750.57 Q1313.44 741.817 1318.15 736.693 Q1322.89 731.537 1330.91 731.537 Q1338.11 731.537 1342.28 736.183 Q1346.48 740.799 1346.48 748.756 M1340.62 747.037 Q1340.56 742.231 1337.92 739.366 Q1335.31 736.502 1330.98 736.502 Q1326.08 736.502 1323.12 739.271 Q1320.19 742.04 1319.74 747.069 L1340.62 747.037 Z" fill="#000000" fill-rule="nonzero" fill-opacity="1" /><path clip-path="url(#clip210)" d="M1390.88 718.582 Q1386.61 725.903 1384.55 733.064 Q1382.48 740.226 1382.48 747.578 Q1382.48 754.93 1384.55 762.156 Q1386.65 769.349 1390.88 776.638 L1385.79 776.638 Q1381.01 769.158 1378.63 761.933 Q1376.27 754.708 1376.27 747.578 Q1376.27 740.48 1378.63 733.287 Q1380.98 726.094 1385.79 718.582 L1390.88 718.582 Z" fill="#000000" fill-rule="nonzero" fill-opacity="1" /><path clip-path="url(#clip210)" d="M1424.97 733.446 L1424.97 738.984 Q1422.49 737.711 1419.81 737.075 Q1417.14 736.438 1414.27 736.438 Q1409.91 736.438 1407.72 737.775 Q1405.55 739.112 1405.55 741.785 Q1405.55 743.822 1407.11 745 Q1408.67 746.146 1413.38 747.196 L1415.39 747.642 Q1421.63 748.979 1424.24 751.429 Q1426.88 753.848 1426.88 758.209 Q1426.88 763.174 1422.93 766.07 Q1419.02 768.967 1412.14 768.967 Q1409.28 768.967 1406.16 768.394 Q1403.07 767.853 1399.63 766.739 L1399.63 760.691 Q1402.88 762.378 1406.03 763.238 Q1409.18 764.065 1412.27 764.065 Q1416.41 764.065 1418.63 762.665 Q1420.86 761.233 1420.86 758.654 Q1420.86 756.267 1419.24 754.994 Q1417.65 753.721 1412.2 752.543 L1410.17 752.066 Q1404.72 750.92 1402.31 748.565 Q1399.89 746.178 1399.89 742.04 Q1399.89 737.011 1403.45 734.274 Q1407.02 731.537 1413.57 731.537 Q1416.82 731.537 1419.68 732.014 Q1422.55 732.491 1424.97 733.446 Z" fill="#000000" fill-rule="nonzero" fill-opacity="1" /><path clip-path="url(#clip210)" d="M1435.28 718.582 L1440.37 718.582 Q1445.15 726.094 1447.5 733.287 Q1449.89 740.48 1449.89 747.578 Q1449.89 754.708 1447.5 761.933 Q1445.15 769.158 1440.37 776.638 L1435.28 776.638 Q1439.51 769.349 1441.58 762.156 Q1443.68 754.93 1443.68 747.578 Q1443.68 740.226 1441.58 733.064 Q1439.51 725.903 1435.28 718.582 Z" fill="#000000" fill-rule="nonzero" fill-opacity="1" /><polyline clip-path="url(#clip210)" style="stroke:#000000; stroke-linecap:round; stroke-linejoin:round; stroke-width:4; stroke-opacity:1; fill:none" points="287.366,623.18 287.366,47.2441 "/>
<polyline clip-path="url(#clip210)" style="stroke:#000000; stroke-linecap:round; stroke-linejoin:round; stroke-width:4; stroke-opacity:1; fill:none" points="287.366,608.432 306.264,608.432 "/>
<polyline clip-path="url(#clip210)" style="stroke:#000000; stroke-linecap:round; stroke-linejoin:round; stroke-width:4; stroke-opacity:1; fill:none" points="287.366,514.33 306.264,514.33 "/>
<polyline clip-path="url(#clip210)" style="stroke:#000000; stroke-linecap:round; stroke-linejoin:round; stroke-width:4; stroke-opacity:1; fill:none" points="287.366,420.229 306.264,420.229 "/>
<polyline clip-path="url(#clip210)" style="stroke:#000000; stroke-linecap:round; stroke-linejoin:round; stroke-width:4; stroke-opacity:1; fill:none" points="287.366,326.127 306.264,326.127 "/>
<polyline clip-path="url(#clip210)" style="stroke:#000000; stroke-linecap:round; stroke-linejoin:round; stroke-width:4; stroke-opacity:1; fill:none" points="287.366,232.025 306.264,232.025 "/>
<polyline clip-path="url(#clip210)" style="stroke:#000000; stroke-linecap:round; stroke-linejoin:round; stroke-width:4; stroke-opacity:1; fill:none" points="287.366,137.923 306.264,137.923 "/>
<path clip-path="url(#clip210)" d="M114.26 608.884 L143.936 608.884 L143.936 612.819 L114.26 612.819 L114.26 608.884 Z" fill="#000000" fill-rule="nonzero" fill-opacity="1" /><path clip-path="url(#clip210)" d="M164.028 594.231 Q160.417 594.231 158.589 597.796 Q156.783 601.337 156.783 608.467 Q156.783 615.573 158.589 619.138 Q160.417 622.68 164.028 622.68 Q167.663 622.68 169.468 619.138 Q171.297 615.573 171.297 608.467 Q171.297 601.337 169.468 597.796 Q167.663 594.231 164.028 594.231 M164.028 590.527 Q169.839 590.527 172.894 595.134 Q175.973 599.717 175.973 608.467 Q175.973 617.194 172.894 621.8 Q169.839 626.384 164.028 626.384 Q158.218 626.384 155.14 621.8 Q152.084 617.194 152.084 608.467 Q152.084 599.717 155.14 595.134 Q158.218 590.527 164.028 590.527 Z" fill="#000000" fill-rule="nonzero" fill-opacity="1" /><path clip-path="url(#clip210)" d="M184.19 619.833 L189.075 619.833 L189.075 625.712 L184.19 625.712 L184.19 619.833 Z" fill="#000000" fill-rule="nonzero" fill-opacity="1" /><path clip-path="url(#clip210)" d="M200.07 621.777 L207.709 621.777 L207.709 595.411 L199.399 597.078 L199.399 592.819 L207.662 591.152 L212.338 591.152 L212.338 621.777 L219.977 621.777 L219.977 625.712 L200.07 625.712 L200.07 621.777 Z" fill="#000000" fill-rule="nonzero" fill-opacity="1" /><path clip-path="url(#clip210)" d="M239.422 594.231 Q235.81 594.231 233.982 597.796 Q232.176 601.337 232.176 608.467 Q232.176 615.573 233.982 619.138 Q235.81 622.68 239.422 622.68 Q243.056 622.68 244.861 619.138 Q246.69 615.573 246.69 608.467 Q246.69 601.337 244.861 597.796 Q243.056 594.231 239.422 594.231 M239.422 590.527 Q245.232 590.527 248.287 595.134 Q251.366 599.717 251.366 608.467 Q251.366 617.194 248.287 621.8 Q245.232 626.384 239.422 626.384 Q233.611 626.384 230.533 621.8 Q227.477 617.194 227.477 608.467 Q227.477 599.717 230.533 595.134 Q233.611 590.527 239.422 590.527 Z" fill="#000000" fill-rule="nonzero" fill-opacity="1" /><path clip-path="url(#clip210)" d="M115.256 514.782 L144.931 514.782 L144.931 518.717 L115.256 518.717 L115.256 514.782 Z" fill="#000000" fill-rule="nonzero" fill-opacity="1" /><path clip-path="url(#clip210)" d="M165.024 500.129 Q161.413 500.129 159.584 503.694 Q157.778 507.236 157.778 514.365 Q157.778 521.472 159.584 525.036 Q161.413 528.578 165.024 528.578 Q168.658 528.578 170.464 525.036 Q172.292 521.472 172.292 514.365 Q172.292 507.236 170.464 503.694 Q168.658 500.129 165.024 500.129 M165.024 496.425 Q170.834 496.425 173.889 501.032 Q176.968 505.615 176.968 514.365 Q176.968 523.092 173.889 527.698 Q170.834 532.282 165.024 532.282 Q159.214 532.282 156.135 527.698 Q153.079 523.092 153.079 514.365 Q153.079 505.615 156.135 501.032 Q159.214 496.425 165.024 496.425 Z" fill="#000000" fill-rule="nonzero" fill-opacity="1" /><path clip-path="url(#clip210)" d="M185.186 525.731 L190.07 525.731 L190.07 531.61 L185.186 531.61 L185.186 525.731 Z" fill="#000000" fill-rule="nonzero" fill-opacity="1" /><path clip-path="url(#clip210)" d="M210.255 500.129 Q206.644 500.129 204.815 503.694 Q203.01 507.236 203.01 514.365 Q203.01 521.472 204.815 525.036 Q206.644 528.578 210.255 528.578 Q213.889 528.578 215.695 525.036 Q217.523 521.472 217.523 514.365 Q217.523 507.236 215.695 503.694 Q213.889 500.129 210.255 500.129 M210.255 496.425 Q216.065 496.425 219.121 501.032 Q222.199 505.615 222.199 514.365 Q222.199 523.092 219.121 527.698 Q216.065 532.282 210.255 532.282 Q204.445 532.282 201.366 527.698 Q198.311 523.092 198.311 514.365 Q198.311 505.615 201.366 501.032 Q204.445 496.425 210.255 496.425 Z" fill="#000000" fill-rule="nonzero" fill-opacity="1" /><path clip-path="url(#clip210)" d="M230.463 497.05 L248.82 497.05 L248.82 500.986 L234.746 500.986 L234.746 509.458 Q235.764 509.111 236.783 508.949 Q237.801 508.763 238.82 508.763 Q244.607 508.763 247.986 511.935 Q251.366 515.106 251.366 520.523 Q251.366 526.101 247.894 529.203 Q244.421 532.282 238.102 532.282 Q235.926 532.282 233.658 531.911 Q231.412 531.541 229.005 530.8 L229.005 526.101 Q231.088 527.235 233.31 527.791 Q235.533 528.347 238.009 528.347 Q242.014 528.347 244.352 526.24 Q246.69 524.134 246.69 520.523 Q246.69 516.911 244.352 514.805 Q242.014 512.699 238.009 512.699 Q236.135 512.699 234.26 513.115 Q232.408 513.532 230.463 514.411 L230.463 497.05 Z" fill="#000000" fill-rule="nonzero" fill-opacity="1" /><path clip-path="url(#clip210)" d="M164.028 406.027 Q160.417 406.027 158.589 409.592 Q156.783 413.134 156.783 420.263 Q156.783 427.37 158.589 430.935 Q160.417 434.476 164.028 434.476 Q167.663 434.476 169.468 430.935 Q171.297 427.37 171.297 420.263 Q171.297 413.134 169.468 409.592 Q167.663 406.027 164.028 406.027 M164.028 402.324 Q169.839 402.324 172.894 406.93 Q175.973 411.513 175.973 420.263 Q175.973 428.99 172.894 433.597 Q169.839 438.18 164.028 438.18 Q158.218 438.18 155.14 433.597 Q152.084 428.99 152.084 420.263 Q152.084 411.513 155.14 406.93 Q158.218 402.324 164.028 402.324 Z" fill="#000000" fill-rule="nonzero" fill-opacity="1" /><path clip-path="url(#clip210)" d="M184.19 431.629 L189.075 431.629 L189.075 437.509 L184.19 437.509 L184.19 431.629 Z" fill="#000000" fill-rule="nonzero" fill-opacity="1" /><path clip-path="url(#clip210)" d="M209.26 406.027 Q205.649 406.027 203.82 409.592 Q202.014 413.134 202.014 420.263 Q202.014 427.37 203.82 430.935 Q205.649 434.476 209.26 434.476 Q212.894 434.476 214.699 430.935 Q216.528 427.37 216.528 420.263 Q216.528 413.134 214.699 409.592 Q212.894 406.027 209.26 406.027 M209.26 402.324 Q215.07 402.324 218.125 406.93 Q221.204 411.513 221.204 420.263 Q221.204 428.99 218.125 433.597 Q215.07 438.18 209.26 438.18 Q203.449 438.18 200.371 433.597 Q197.315 428.99 197.315 420.263 Q197.315 411.513 200.371 406.93 Q203.449 402.324 209.26 402.324 Z" fill="#000000" fill-rule="nonzero" fill-opacity="1" /><path clip-path="url(#clip210)" d="M239.422 406.027 Q235.81 406.027 233.982 409.592 Q232.176 413.134 232.176 420.263 Q232.176 427.37 233.982 430.935 Q235.81 434.476 239.422 434.476 Q243.056 434.476 244.861 430.935 Q246.69 427.37 246.69 420.263 Q246.69 413.134 244.861 409.592 Q243.056 406.027 239.422 406.027 M239.422 402.324 Q245.232 402.324 248.287 406.93 Q251.366 411.513 251.366 420.263 Q251.366 428.99 248.287 433.597 Q245.232 438.18 239.422 438.18 Q233.611 438.18 230.533 433.597 Q227.477 428.99 227.477 420.263 Q227.477 411.513 230.533 406.93 Q233.611 402.324 239.422 402.324 Z" fill="#000000" fill-rule="nonzero" fill-opacity="1" /><path clip-path="url(#clip210)" d="M165.024 311.926 Q161.413 311.926 159.584 315.49 Q157.778 319.032 157.778 326.162 Q157.778 333.268 159.584 336.833 Q161.413 340.374 165.024 340.374 Q168.658 340.374 170.464 336.833 Q172.292 333.268 172.292 326.162 Q172.292 319.032 170.464 315.49 Q168.658 311.926 165.024 311.926 M165.024 308.222 Q170.834 308.222 173.889 312.828 Q176.968 317.412 176.968 326.162 Q176.968 334.888 173.889 339.495 Q170.834 344.078 165.024 344.078 Q159.214 344.078 156.135 339.495 Q153.079 334.888 153.079 326.162 Q153.079 317.412 156.135 312.828 Q159.214 308.222 165.024 308.222 Z" fill="#000000" fill-rule="nonzero" fill-opacity="1" /><path clip-path="url(#clip210)" d="M185.186 337.527 L190.07 337.527 L190.07 343.407 L185.186 343.407 L185.186 337.527 Z" fill="#000000" fill-rule="nonzero" fill-opacity="1" /><path clip-path="url(#clip210)" d="M210.255 311.926 Q206.644 311.926 204.815 315.49 Q203.01 319.032 203.01 326.162 Q203.01 333.268 204.815 336.833 Q206.644 340.374 210.255 340.374 Q213.889 340.374 215.695 336.833 Q217.523 333.268 217.523 326.162 Q217.523 319.032 215.695 315.49 Q213.889 311.926 210.255 311.926 M210.255 308.222 Q216.065 308.222 219.121 312.828 Q222.199 317.412 222.199 326.162 Q222.199 334.888 219.121 339.495 Q216.065 344.078 210.255 344.078 Q204.445 344.078 201.366 339.495 Q198.311 334.888 198.311 326.162 Q198.311 317.412 201.366 312.828 Q204.445 308.222 210.255 308.222 Z" fill="#000000" fill-rule="nonzero" fill-opacity="1" /><path clip-path="url(#clip210)" d="M230.463 308.847 L248.82 308.847 L248.82 312.782 L234.746 312.782 L234.746 321.254 Q235.764 320.907 236.783 320.745 Q237.801 320.56 238.82 320.56 Q244.607 320.56 247.986 323.731 Q251.366 326.902 251.366 332.319 Q251.366 337.898 247.894 340.999 Q244.421 344.078 238.102 344.078 Q235.926 344.078 233.658 343.708 Q231.412 343.337 229.005 342.597 L229.005 337.898 Q231.088 339.032 233.31 339.587 Q235.533 340.143 238.009 340.143 Q242.014 340.143 244.352 338.037 Q246.69 335.93 246.69 332.319 Q246.69 328.708 244.352 326.601 Q242.014 324.495 238.009 324.495 Q236.135 324.495 234.26 324.912 Q232.408 325.328 230.463 326.208 L230.463 308.847 Z" fill="#000000" fill-rule="nonzero" fill-opacity="1" /><path clip-path="url(#clip210)" d="M164.028 217.824 Q160.417 217.824 158.589 221.389 Q156.783 224.93 156.783 232.06 Q156.783 239.166 158.589 242.731 Q160.417 246.273 164.028 246.273 Q167.663 246.273 169.468 242.731 Q171.297 239.166 171.297 232.06 Q171.297 224.93 169.468 221.389 Q167.663 217.824 164.028 217.824 M164.028 214.12 Q169.839 214.12 172.894 218.727 Q175.973 223.31 175.973 232.06 Q175.973 240.787 172.894 245.393 Q169.839 249.976 164.028 249.976 Q158.218 249.976 155.14 245.393 Q152.084 240.787 152.084 232.06 Q152.084 223.31 155.14 218.727 Q158.218 214.12 164.028 214.12 Z" fill="#000000" fill-rule="nonzero" fill-opacity="1" /><path clip-path="url(#clip210)" d="M184.19 243.425 L189.075 243.425 L189.075 249.305 L184.19 249.305 L184.19 243.425 Z" fill="#000000" fill-rule="nonzero" fill-opacity="1" /><path clip-path="url(#clip210)" d="M200.07 245.37 L207.709 245.37 L207.709 219.004 L199.399 220.671 L199.399 216.412 L207.662 214.745 L212.338 214.745 L212.338 245.37 L219.977 245.37 L219.977 249.305 L200.07 249.305 L200.07 245.37 Z" fill="#000000" fill-rule="nonzero" fill-opacity="1" /><path clip-path="url(#clip210)" d="M239.422 217.824 Q235.81 217.824 233.982 221.389 Q232.176 224.93 232.176 232.06 Q232.176 239.166 233.982 242.731 Q235.81 246.273 239.422 246.273 Q243.056 246.273 244.861 242.731 Q246.69 239.166 246.69 232.06 Q246.69 224.93 244.861 221.389 Q243.056 217.824 239.422 217.824 M239.422 214.12 Q245.232 214.12 248.287 218.727 Q251.366 223.31 251.366 232.06 Q251.366 240.787 248.287 245.393 Q245.232 249.976 239.422 249.976 Q233.611 249.976 230.533 245.393 Q227.477 240.787 227.477 232.06 Q227.477 223.31 230.533 218.727 Q233.611 214.12 239.422 214.12 Z" fill="#000000" fill-rule="nonzero" fill-opacity="1" /><path clip-path="url(#clip210)" d="M165.024 123.722 Q161.413 123.722 159.584 127.287 Q157.778 130.828 157.778 137.958 Q157.778 145.064 159.584 148.629 Q161.413 152.171 165.024 152.171 Q168.658 152.171 170.464 148.629 Q172.292 145.064 172.292 137.958 Q172.292 130.828 170.464 127.287 Q168.658 123.722 165.024 123.722 M165.024 120.018 Q170.834 120.018 173.889 124.625 Q176.968 129.208 176.968 137.958 Q176.968 146.685 173.889 151.291 Q170.834 155.875 165.024 155.875 Q159.214 155.875 156.135 151.291 Q153.079 146.685 153.079 137.958 Q153.079 129.208 156.135 124.625 Q159.214 120.018 165.024 120.018 Z" fill="#000000" fill-rule="nonzero" fill-opacity="1" /><path clip-path="url(#clip210)" d="M185.186 149.324 L190.07 149.324 L190.07 155.203 L185.186 155.203 L185.186 149.324 Z" fill="#000000" fill-rule="nonzero" fill-opacity="1" /><path clip-path="url(#clip210)" d="M201.065 151.268 L208.704 151.268 L208.704 124.903 L200.394 126.569 L200.394 122.31 L208.658 120.643 L213.334 120.643 L213.334 151.268 L220.973 151.268 L220.973 155.203 L201.065 155.203 L201.065 151.268 Z" fill="#000000" fill-rule="nonzero" fill-opacity="1" /><path clip-path="url(#clip210)" d="M230.463 120.643 L248.82 120.643 L248.82 124.578 L234.746 124.578 L234.746 133.051 Q235.764 132.703 236.783 132.541 Q237.801 132.356 238.82 132.356 Q244.607 132.356 247.986 135.527 Q251.366 138.699 251.366 144.115 Q251.366 149.694 247.894 152.796 Q244.421 155.875 238.102 155.875 Q235.926 155.875 233.658 155.504 Q231.412 155.134 229.005 154.393 L229.005 149.694 Q231.088 150.828 233.31 151.384 Q235.533 151.939 238.009 151.939 Q242.014 151.939 244.352 149.833 Q246.69 147.726 246.69 144.115 Q246.69 140.504 244.352 138.398 Q242.014 136.291 238.009 136.291 Q236.135 136.291 234.26 136.708 Q232.408 137.125 230.463 138.004 L230.463 120.643 Z" fill="#000000" fill-rule="nonzero" fill-opacity="1" /><path clip-path="url(#clip210)" d="M67.3143 333.525 Q73.68 336.008 75.6216 338.363 Q77.5631 340.718 77.5631 344.665 L77.5631 349.344 L72.6615 349.344 L72.6615 345.906 Q72.6615 343.487 71.5157 342.151 Q70.3699 340.814 66.1048 339.191 L63.4312 338.14 L28.3562 352.559 L28.3562 346.352 L56.238 335.212 L28.3562 324.072 L28.3562 317.865 L67.3143 333.525 Z" fill="#000000" fill-rule="nonzero" fill-opacity="1" /><polyline clip-path="url(#clip212)" style="stroke:#009af9; stroke-linecap:round; stroke-linejoin:round; stroke-width:4; stroke-opacity:1; fill:none" points="345.82,420.229 349.725,420.229 353.63,420.229 353.63,438.832 357.535,438.832 357.535,456.886 361.439,456.886 361.439,474.235 365.344,474.235 365.344,490.735 369.249,490.735 369.249,506.265 373.154,506.265 373.154,483.517 377.059,483.517 377.059,460.713 380.963,460.713 380.963,438.115 384.868,438.115 384.868,415.973 388.773,415.973 388.773,394.524 392.678,394.524 392.678,373.985 396.582,373.985 396.582,354.553 400.487,354.553 400.487,336.395 404.392,336.395 404.392,319.654 408.297,319.654 408.297,304.44 412.201,304.44 412.201,328.038 416.106,328.038 416.106,352.195 420.011,352.195 420.011,376.607 423.916,376.607 423.916,400.975 427.821,400.975 427.821,425.007 431.725,425.007 431.725,411.219 435.63,411.219 435.63,397.652 439.535,397.652 439.535,384.386 443.44,384.386 443.44,371.494 447.344,371.494 447.344,359.041 451.249,359.041 451.249,347.085 455.154,347.085 455.154,335.673 459.059,335.673 459.059,324.84 462.963,324.84 462.963,314.614 466.868,314.614 466.868,305.009 470.773,305.009 470.773,296.028 474.678,296.028 474.678,287.665 478.583,287.665 478.583,279.903 482.487,279.903 482.487,272.716 486.392,272.716 486.392,266.066 490.297,266.066 490.297,297.117 494.202,297.117 494.202,327.516 498.106,327.516 498.106,356.89 502.011,356.89 502.011,384.895 505.916,384.895 505.916,411.223 509.821,411.223 509.821,398.398 513.726,398.398 513.726,384.498 517.63,384.498 517.63,369.664 521.535,369.664 521.535,354.049 525.44,354.049 525.44,337.823 529.345,337.823 529.345,358.368 533.249,358.368 533.249,377.564 537.154,377.564 537.154,395.276 541.059,395.276 541.059,411.403 544.964,411.403 544.964,425.872 548.868,425.872 548.868,401.441 552.773,401.441 552.773,376.406 556.678,376.406 556.678,351.109 560.583,351.109 560.583,325.89 564.488,325.89 564.488,301.08 568.392,301.08 568.392,314.197 572.297,314.197 572.297,327.231 576.202,327.231 576.202,340.131 580.107,340.131 580.107,352.846 584.011,352.846 584.011,365.33 587.916,365.33 587.916,340.334 591.821,340.334 591.821,316.122 595.726,316.122 595.726,292.978 599.631,292.978 599.631,271.158 603.535,271.158 603.535,250.887 607.44,250.887 607.44,232.354 611.345,232.354 611.345,215.709 615.25,215.709 615.25,201.064 619.154,201.064 619.154,188.487 623.059,188.487 623.059,178.009 626.964,178.009 626.964,206.822 630.869,206.822 630.869,236.575 634.773,236.575 634.773,266.861 638.678,266.861 638.678,297.276 642.583,297.276 642.583,327.422 646.488,327.422 646.488,319.71 650.393,319.71 650.393,312.08 654.297,312.08 654.297,304.518 658.202,304.518 658.202,297.008 662.107,297.008 662.107,289.537 666.012,289.537 666.012,319.298 669.916,319.298 669.916,347.978 673.821,347.978 673.821,375.252 677.726,375.252 677.726,400.828 681.631,400.828 681.631,424.455 685.535,424.455 685.535,408.721 689.44,408.721 689.44,391.765 693.345,391.765 693.345,373.793 697.25,373.793 697.25,355.024 701.155,355.024 701.155,335.69 705.059,335.69 705.059,353.233 708.964,353.233 708.964,369.588 712.869,369.588 712.869,384.674 716.774,384.674 716.774,398.433 720.678,398.433 720.678,410.833 724.583,410.833 724.583,384.663 728.488,384.663 728.488,358.245 732.393,358.245 732.393,331.936 736.298,331.936 736.298,306.088 740.202,306.088 740.202,281.03 744.107,281.03 744.107,257.07 748.012,257.07 748.012,234.487 751.917,234.487 751.917,213.525 755.821,213.525 755.821,194.391 759.726,194.391 759.726,177.252 763.631,177.252 763.631,199.438 767.536,199.438 767.536,222.726 771.44,222.726 771.44,246.837 775.345,246.837 775.345,271.479 779.25,271.479 779.25,296.358 783.155,296.358 783.155,321.181 787.06,321.181 787.06,345.663 790.964,345.663 790.964,369.533 794.869,369.533 794.869,392.536 798.774,392.536 798.774,414.441 802.679,414.441 802.679,397.838 806.583,397.838 806.583,380.854 810.488,380.854 810.488,363.663 814.393,363.663 814.393,346.44 818.298,346.44 818.298,329.356 822.202,329.356 822.202,349.784 826.107,349.784 826.107,369.578 830.012,369.578 830.012,388.566 833.917,388.566 833.917,406.595 837.822,406.595 837.822,423.532 841.726,423.532 841.726,439.269 845.631,439.269 845.631,453.723 849.536,453.723 849.536,466.835 853.441,466.835 853.441,478.575 857.345,478.575 857.345,488.936 861.25,488.936 861.25,460.733 865.155,460.733 865.155,432.312 869.06,432.312 869.06,404.057 872.965,404.057 872.965,376.338 876.869,376.338 876.869,349.508 880.774,349.508 880.774,361.096 884.679,361.096 884.679,373.095 888.584,373.095 888.584,385.446 892.488,385.446 892.488,398.08 896.393,398.08 896.393,410.926 900.298,410.926 900.298,386.701 904.203,386.701 904.203,363.63 908.107,363.63 908.107,341.949 912.012,341.949 912.012,321.864 915.917,321.864 915.917,303.545 919.822,303.545 919.822,324.328 923.727,324.328 923.727,346.004 927.631,346.004 927.631,368.309 931.536,368.309 931.536,390.971 935.441,390.971 935.441,413.718 939.346,413.718 939.346,399.076 943.25,399.076 943.25,385.091 947.155,385.091 947.155,371.834 951.06,371.834 951.06,359.365 954.965,359.365 954.965,347.728 958.87,347.728 958.87,336.949 962.774,336.949 962.774,327.04 966.679,327.04 966.679,317.997 970.584,317.997 970.584,309.801 974.489,309.801 974.489,302.417 978.393,302.417 978.393,333.006 982.298,333.006 982.298,363.205 986.203,363.205 986.203,392.628 990.108,392.628 990.108,420.915 994.012,420.915 994.012,447.733 997.917,447.733 997.917,472.79 1001.82,472.79 1001.82,495.834 1005.73,495.834 1005.73,516.656 1009.63,516.656 1009.63,535.097 1013.54,535.097 1013.54,551.049 1017.44,551.049 1017.44,527.246 1021.35,527.246 1021.35,501.981 1025.25,501.981 1025.25,475.611 1029.16,475.611 1029.16,448.504 1033.06,448.504 1033.06,421.037 1036.96,421.037 1036.96,430.787 1040.87,430.787 1040.87,439.817 1044.77,439.817 1044.77,448.156 1048.68,448.156 1048.68,455.845 1052.58,455.845 1052.58,462.935 1056.49,462.935 1056.49,469.486 1060.39,469.486 1060.39,475.563 1064.3,475.563 1064.3,481.238 1068.2,481.238 1068.2,486.587 1072.11,486.587 1072.11,491.688 1076.01,491.688 1076.01,459.414 1079.92,459.414 1079.92,428.146 1083.82,428.146 1083.82,398.277 1087.73,398.277 1087.73,370.162 1091.63,370.162 1091.63,344.114 1095.54,344.114 1095.54,320.398 1099.44,320.398 1099.44,299.225 1103.35,299.225 1103.35,280.755 1107.25,280.755 1107.25,265.091 1111.16,265.091 1111.16,252.276 1115.06,252.276 1115.06,242.303 1118.97,242.303 1118.97,235.107 1122.87,235.107 1122.87,230.574 1126.77,230.574 1126.77,228.542 1130.68,228.542 1130.68,228.806 1134.58,228.806 1134.58,268.331 1138.49,268.331 1138.49,308.54 1142.39,308.54 1142.39,348.818 1146.3,348.818 1146.3,388.565 1150.2,388.565 1150.2,427.205 1154.11,427.205 1154.11,464.202 1158.01,464.202 1158.01,499.064 1161.92,499.064 1161.92,531.353 1165.82,531.353 1165.82,560.696 1169.73,560.696 1169.73,586.784 1173.63,586.784 1173.63,572.175 1177.54,572.175 1177.54,555.009 1181.44,555.009 1181.44,535.513 1185.35,535.513 1185.35,513.959 1189.25,513.959 1189.25,490.649 1193.16,490.649 1193.16,503.123 1197.06,503.123 1197.06,513.429 1200.97,513.429 1200.97,521.616 1204.87,521.616 1204.87,527.767 1208.77,527.767 1208.77,532.006 1212.68,532.006 1212.68,534.485 1216.58,534.485 1216.58,535.386 1220.49,535.386 1220.49,534.914 1224.39,534.914 1224.39,533.296 1228.3,533.296 1228.3,530.769 1232.2,530.769 1232.2,527.582 1236.11,527.582 1236.11,523.987 1240.01,523.987 1240.01,520.235 1243.92,520.235 1243.92,516.57 1247.82,516.57 1247.82,513.228 1251.73,513.228 1251.73,473.221 1255.63,473.221 1255.63,435.052 1259.54,435.052 1259.54,399.217 1263.44,399.217 1263.44,366.153 1267.35,366.153 1267.35,336.23 1271.25,336.23 1271.25,346.955 1275.16,346.955 1275.16,360.253 1279.06,360.253 1279.06,375.955 1282.97,375.955 1282.97,393.849 1286.87,393.849 1286.87,413.686 1290.78,413.686 1290.78,397.977 1294.68,397.977 1294.68,384.715 1298.58,384.715 1298.58,373.888 1302.49,373.888 1302.49,365.44 1306.39,365.44 1306.39,359.272 1310.3,359.272 1310.3,355.243 1314.2,355.243 1314.2,353.178 1318.11,353.178 1318.11,352.87 1322.01,352.87 1322.01,354.085 1325.92,354.085 1325.92,356.568 1329.82,356.568 1329.82,360.048 1333.73,360.048 1333.73,364.245 1337.63,364.245 1337.63,368.875 1341.54,368.875 1341.54,373.656 1345.44,373.656 1345.44,378.311 1349.35,378.311 1349.35,382.578 1353.25,382.578 1353.25,386.21 1357.16,386.21 1357.16,388.984 1361.06,388.984 1361.06,390.7 1364.97,390.7 1364.97,391.187 1368.87,391.187 1368.87,427.511 1372.78,427.511 1372.78,461.263 1376.68,461.263 1376.68,492.053 1380.58,492.053 1380.58,519.558 1384.49,519.558 1384.49,543.529 1388.39,543.529 1388.39,563.789 1392.3,563.789 1392.3,580.241 1396.2,580.241 1396.2,592.861 1400.11,592.861 1400.11,601.7 1404.01,601.7 1404.01,606.88 1407.92,606.88 1407.92,571.384 1411.82,571.384 1411.82,533.765 1415.73,533.765 1415.73,494.641 1419.63,494.641 1419.63,454.647 1423.54,454.647 1423.54,414.417 1427.44,414.417 1427.44,411.778 1431.35,411.778 1431.35,409.025 1435.25,409.025 1435.25,406.404 1439.16,406.404 1439.16,404.149 1443.06,404.149 1443.06,402.476 1446.97,402.476 1446.97,364.378 1450.87,364.378 1450.87,328.332 1454.78,328.332 1454.78,294.803 1458.68,294.803 1458.68,264.197 1462.59,264.197 1462.59,236.849 1466.49,236.849 1466.49,250.23 1470.39,250.23 1470.39,266.228 1474.3,266.228 1474.3,284.638 1478.2,284.638 1478.2,305.212 1482.11,305.212 1482.11,327.665 1486.01,327.665 1486.01,351.683 1489.92,351.683 1489.92,376.926 1493.82,376.926 1493.82,403.041 1497.73,403.041 1497.73,429.663 1501.63,429.663 1501.63,456.43 1505.54,456.43 1505.54,482.984 1509.44,482.984 1509.44,508.98 1513.35,508.98 1513.35,534.093 1517.25,534.093 1517.25,558.022 1521.16,558.022 1521.16,580.499 1525.06,580.499 1525.06,564.083 1528.97,564.083 1528.97,546.88 1532.87,546.88 1532.87,529.052 1536.78,529.052 1536.78,510.77 1540.68,510.77 1540.68,492.211 1544.59,492.211 1544.59,510.761 1548.49,510.761 1548.49,528.296 1552.39,528.296 1552.39,544.672 1556.3,544.672 1556.3,559.771 1560.2,559.771 1560.2,573.501 1564.11,573.501 1564.11,548.593 1568.01,548.593 1568.01,523.313 1571.92,523.313 1571.92,497.972 1575.82,497.972 1575.82,472.873 1579.73,472.873 1579.73,448.308 1583.63,448.308 1583.63,461.759 1587.54,461.759 1587.54,475.176 1591.44,475.176 1591.44,488.469 1595.35,488.469 1595.35,501.551 1599.25,501.551 1599.25,514.339 1603.16,514.339 1603.16,526.759 1607.06,526.759 1607.06,538.742 1610.97,538.742 1610.97,550.229 1614.87,550.229 1614.87,561.173 1618.78,561.173 1618.78,571.534 1622.68,571.534 1622.68,544.078 1626.59,544.078 1626.59,517.093 1630.49,517.093 1630.49,490.889 1634.4,490.889 1634.4,465.757 1638.3,465.757 1638.3,441.956 1642.2,441.956 1642.2,419.719 1646.11,419.719 1646.11,399.238 1650.01,399.238 1650.01,380.67 1653.92,380.67 1653.92,364.13 1657.82,364.13 1657.82,349.693 1661.73,349.693 1661.73,374.597 1665.63,374.597 1665.63,400.531 1669.54,400.531 1669.54,427.131 1673.44,427.131 1673.44,454.027 1677.35,454.027 1677.35,480.855 1681.25,480.855 1681.25,470.052 1685.16,470.052 1685.16,459.582 1689.06,459.582 1689.06,449.447 1692.97,449.447 1692.97,439.646 1696.87,439.646 1696.87,430.169 1700.78,430.169 1700.78,421.006 1704.68,421.006 1704.68,412.142 1708.59,412.142 1708.59,403.556 1712.49,403.556 1712.49,395.228 1716.4,395.228 1716.4,387.133 1720.3,387.133 1720.3,379.242 1724.2,379.242 1724.2,371.529 1728.11,371.529 1728.11,363.965 1732.01,363.965 1732.01,356.519 1735.92,356.519 1735.92,349.163 1739.82,349.163 1739.82,341.868 1743.73,341.868 1743.73,334.607 1747.63,334.607 1747.63,327.355 1751.54,327.355 1751.54,320.09 1755.44,320.09 1755.44,312.789 1759.35,312.789 1759.35,342.643 1763.25,342.643 1763.25,371.335 1767.16,371.335 1767.16,398.536 1771.06,398.536 1771.06,423.957 1774.97,423.957 1774.97,447.347 1778.87,447.347 1778.87,468.503 1782.78,468.503 1782.78,487.269 1786.68,487.269 1786.68,503.539 1790.59,503.539 1790.59,517.257 1794.49,517.257 1794.49,528.417 1798.4,528.417 1798.4,499.856 1802.3,499.856 1802.3,469.965 1806.2,469.965 1806.2,439.192 1810.11,439.192 1810.11,407.993 1814.01,407.993 1814.01,376.82 1817.92,376.82 1817.92,346.112 1821.82,346.112 1821.82,316.288 1825.73,316.288 1825.73,287.739 1829.63,287.739 1829.63,260.822 1833.54,260.822 1833.54,235.851 1837.44,235.851 1837.44,213.096 1841.35,213.096 1841.35,192.777 1845.25,192.777 1845.25,175.058 1849.16,175.058 1849.16,160.054 1853.06,160.054 1853.06,147.82 1856.97,147.82 1856.97,138.359 1860.87,138.359 1860.87,131.621 1864.78,131.621 1864.78,127.504 1868.68,127.504 1868.68,125.859 1872.59,125.859 1872.59,126.496 1876.49,126.496 1876.49,166.392 1880.4,166.392 1880.4,206.984 1884.3,206.984 1884.3,247.669 1888.21,247.669 1888.21,287.856 1892.11,287.856 1892.11,326.98 1896.01,326.98 1896.01,327.307 1899.92,327.307 1899.92,326.654 1903.82,326.654 1903.82,324.906 1907.73,324.906 1907.73,321.975 1911.63,321.975 1911.63,317.8 1915.54,317.8 1915.54,349.555 1919.44,349.555 1919.44,378.933 1923.35,378.933 1923.35,405.637 1927.25,405.637 1927.25,429.433 1931.16,429.433 1931.16,450.146 1935.06,450.146 1935.06,430.46 1938.97,430.46 1938.97,408.631 1942.87,408.631 1942.87,384.992 1946.78,384.992 1946.78,359.904 1950.68,359.904 1950.68,333.748 1954.59,333.748 1954.59,306.915 1958.49,306.915 1958.49,279.801 1962.4,279.801 1962.4,252.795 1966.3,252.795 1966.3,226.277 1970.21,226.277 1970.21,200.604 1974.11,200.604 1974.11,176.109 1978.01,176.109 1978.01,153.096 1981.92,153.096 1981.92,131.828 1985.82,131.828 1985.82,112.53 1989.73,112.53 1989.73,95.3819 1993.63,95.3819 1993.63,117.724 1997.54,117.724 1997.54,141.341 2001.44,141.341 2001.44,165.954 2005.35,165.954 2005.35,191.272 2009.25,191.272 2009.25,216.997 2013.16,216.997 2013.16,205.621 2017.06,205.621 2017.06,195.15 2020.97,195.15 2020.97,185.617 2024.87,185.617 2024.87,177.033 2028.78,177.033 2028.78,169.396 2032.68,169.396 2032.68,162.684 2036.59,162.684 2036.59,156.859 2040.49,156.859 2040.49,151.87 2044.4,151.87 2044.4,147.65 2048.3,147.65 2048.3,144.122 2052.21,144.122 2052.21,141.198 2056.11,141.198 2056.11,138.784 2060.02,138.784 2060.02,136.777 2063.92,136.777 2063.92,135.073 2067.82,135.073 2067.82,133.565 2071.73,133.565 2071.73,169.352 2075.63,169.352 2075.63,204.031 2079.54,204.031 2079.54,237.185 2083.44,237.185 2083.44,268.438 2087.35,268.438 2087.35,297.462 2091.25,297.462 2091.25,286.772 2095.16,286.772 2095.16,274.448 2099.06,274.448 2099.06,260.641 2102.97,260.641 2102.97,245.529 2106.87,245.529 2106.87,229.313 2110.78,229.313 2110.78,249.415 2114.68,249.415 2114.68,267.763 2118.59,267.763 2118.59,284.277 2122.49,284.277 2122.49,298.913 2126.4,298.913 2126.4,311.664 2130.3,311.664 2130.3,322.557 2134.21,322.557 2134.21,331.652 2138.11,331.652 2138.11,339.042 2142.02,339.042 2142.02,344.847 2145.92,344.847 2145.92,349.215 2149.82,349.215 2149.82,315.107 2153.73,315.107 2153.73,281.011 2157.63,281.011 2157.63,247.443 2161.54,247.443 2161.54,214.897 2165.44,214.897 2165.44,183.831 2169.35,183.831 2169.35,154.664 2173.25,154.664 2173.25,127.766 2177.16,127.766 2177.16,103.452 2181.06,103.452 2181.06,81.9798 2184.97,81.9798 2184.97,63.5442 2188.87,63.5442 2188.87,85.4819 2192.78,85.4819 2192.78,109.558 2196.68,109.558 2196.68,135.457 2200.59,135.457 2200.59,162.835 2204.49,162.835 2204.49,191.329 2208.4,191.329 2208.4,220.559 2212.3,220.559 2212.3,250.143 2216.21,250.143 2216.21,279.699 2220.11,279.699 2220.11,308.856 2224.02,308.856 2224.02,337.258 2227.92,337.258 2227.92,364.576 2231.83,364.576 2231.83,390.505 2235.73,390.505 2235.73,414.778 2239.63,414.778 2239.63,437.165 2243.54,437.165 2243.54,457.479 2247.44,457.479 2247.44,438.371 2251.35,438.371 2251.35,418.043 2255.25,418.043 2255.25,396.764 2259.16,396.764 2259.16,374.81 2263.06,374.81 2263.06,352.467 2266.97,352.467 2266.97,367.227 2270.87,367.227 2270.87,381.069 2274.78,381.069 2274.78,393.948 2278.68,393.948 2278.68,405.836 2282.59,405.836 2282.59,416.723 2286.49,416.723 2286.49,426.62 2290.4,426.62 2290.4,435.551 2294.3,435.551 2294.3,443.559 "/>
<path clip-path="url(#clip210)" d="M287.366 1423.18 L2352.76 1423.18 L2352.76 847.244 L287.366 847.244  Z" fill="#ffffff" fill-rule="evenodd" fill-opacity="1"/>
<defs>
  <clipPath id="clip213">
    <rect x="287" y="847" width="2066" height="577"/>
  </clipPath>
</defs>
<polyline clip-path="url(#clip213)" style="stroke:#000000; stroke-linecap:round; stroke-linejoin:round; stroke-width:2; stroke-opacity:0.1; fill:none" points="345.82,1423.18 345.82,847.244 "/>
<polyline clip-path="url(#clip213)" style="stroke:#000000; stroke-linecap:round; stroke-linejoin:round; stroke-width:2; stroke-opacity:0.1; fill:none" points="736.298,1423.18 736.298,847.244 "/>
<polyline clip-path="url(#clip213)" style="stroke:#000000; stroke-linecap:round; stroke-linejoin:round; stroke-width:2; stroke-opacity:0.1; fill:none" points="1126.77,1423.18 1126.77,847.244 "/>
<polyline clip-path="url(#clip213)" style="stroke:#000000; stroke-linecap:round; stroke-linejoin:round; stroke-width:2; stroke-opacity:0.1; fill:none" points="1517.25,1423.18 1517.25,847.244 "/>
<polyline clip-path="url(#clip213)" style="stroke:#000000; stroke-linecap:round; stroke-linejoin:round; stroke-width:2; stroke-opacity:0.1; fill:none" points="1907.73,1423.18 1907.73,847.244 "/>
<polyline clip-path="url(#clip213)" style="stroke:#000000; stroke-linecap:round; stroke-linejoin:round; stroke-width:2; stroke-opacity:0.1; fill:none" points="2298.21,1423.18 2298.21,847.244 "/>
<polyline clip-path="url(#clip213)" style="stroke:#000000; stroke-linecap:round; stroke-linejoin:round; stroke-width:2; stroke-opacity:0.1; fill:none" points="287.366,1406.88 2352.76,1406.88 "/>
<polyline clip-path="url(#clip213)" style="stroke:#000000; stroke-linecap:round; stroke-linejoin:round; stroke-width:2; stroke-opacity:0.1; fill:none" points="287.366,1271.05 2352.76,1271.05 "/>
<polyline clip-path="url(#clip213)" style="stroke:#000000; stroke-linecap:round; stroke-linejoin:round; stroke-width:2; stroke-opacity:0.1; fill:none" points="287.366,1135.21 2352.76,1135.21 "/>
<polyline clip-path="url(#clip213)" style="stroke:#000000; stroke-linecap:round; stroke-linejoin:round; stroke-width:2; stroke-opacity:0.1; fill:none" points="287.366,999.378 2352.76,999.378 "/>
<polyline clip-path="url(#clip213)" style="stroke:#000000; stroke-linecap:round; stroke-linejoin:round; stroke-width:2; stroke-opacity:0.1; fill:none" points="287.366,863.544 2352.76,863.544 "/>
<polyline clip-path="url(#clip210)" style="stroke:#000000; stroke-linecap:round; stroke-linejoin:round; stroke-width:4; stroke-opacity:1; fill:none" points="287.366,1423.18 2352.76,1423.18 "/>
<polyline clip-path="url(#clip210)" style="stroke:#000000; stroke-linecap:round; stroke-linejoin:round; stroke-width:4; stroke-opacity:1; fill:none" points="345.82,1423.18 345.82,1404.28 "/>
<polyline clip-path="url(#clip210)" style="stroke:#000000; stroke-linecap:round; stroke-linejoin:round; stroke-width:4; stroke-opacity:1; fill:none" points="736.298,1423.18 736.298,1404.28 "/>
<polyline clip-path="url(#clip210)" style="stroke:#000000; stroke-linecap:round; stroke-linejoin:round; stroke-width:4; stroke-opacity:1; fill:none" points="1126.77,1423.18 1126.77,1404.28 "/>
<polyline clip-path="url(#clip210)" style="stroke:#000000; stroke-linecap:round; stroke-linejoin:round; stroke-width:4; stroke-opacity:1; fill:none" points="1517.25,1423.18 1517.25,1404.28 "/>
<polyline clip-path="url(#clip210)" style="stroke:#000000; stroke-linecap:round; stroke-linejoin:round; stroke-width:4; stroke-opacity:1; fill:none" points="1907.73,1423.18 1907.73,1404.28 "/>
<polyline clip-path="url(#clip210)" style="stroke:#000000; stroke-linecap:round; stroke-linejoin:round; stroke-width:4; stroke-opacity:1; fill:none" points="2298.21,1423.18 2298.21,1404.28 "/>
<path clip-path="url(#clip210)" d="M345.82 1454.1 Q342.209 1454.1 340.381 1457.66 Q338.575 1461.2 338.575 1468.33 Q338.575 1475.44 340.381 1479.01 Q342.209 1482.55 345.82 1482.55 Q349.455 1482.55 351.26 1479.01 Q353.089 1475.44 353.089 1468.33 Q353.089 1461.2 351.26 1457.66 Q349.455 1454.1 345.82 1454.1 M345.82 1450.39 Q351.63 1450.39 354.686 1455 Q357.765 1459.58 357.765 1468.33 Q357.765 1477.06 354.686 1481.67 Q351.63 1486.25 345.82 1486.25 Q340.01 1486.25 336.931 1481.67 Q333.876 1477.06 333.876 1468.33 Q333.876 1459.58 336.931 1455 Q340.01 1450.39 345.82 1450.39 Z" fill="#000000" fill-rule="nonzero" fill-opacity="1" /><path clip-path="url(#clip210)" d="M726.68 1481.64 L734.318 1481.64 L734.318 1455.28 L726.008 1456.95 L726.008 1452.69 L734.272 1451.02 L738.948 1451.02 L738.948 1481.64 L746.587 1481.64 L746.587 1485.58 L726.68 1485.58 L726.68 1481.64 Z" fill="#000000" fill-rule="nonzero" fill-opacity="1" /><path clip-path="url(#clip210)" d="M1121.43 1481.64 L1137.75 1481.64 L1137.75 1485.58 L1115.8 1485.58 L1115.8 1481.64 Q1118.46 1478.89 1123.05 1474.26 Q1127.65 1469.61 1128.83 1468.27 Q1131.08 1465.74 1131.96 1464.01 Q1132.86 1462.25 1132.86 1460.56 Q1132.86 1457.8 1130.92 1456.07 Q1129 1454.33 1125.9 1454.33 Q1123.7 1454.33 1121.24 1455.09 Q1118.81 1455.86 1116.03 1457.41 L1116.03 1452.69 Q1118.86 1451.55 1121.31 1450.97 Q1123.77 1450.39 1125.8 1450.39 Q1131.17 1450.39 1134.37 1453.08 Q1137.56 1455.77 1137.56 1460.26 Q1137.56 1462.39 1136.75 1464.31 Q1135.96 1466.2 1133.86 1468.8 Q1133.28 1469.47 1130.18 1472.69 Q1127.08 1475.88 1121.43 1481.64 Z" fill="#000000" fill-rule="nonzero" fill-opacity="1" /><path clip-path="url(#clip210)" d="M1521.5 1466.95 Q1524.86 1467.66 1526.73 1469.93 Q1528.63 1472.2 1528.63 1475.53 Q1528.63 1480.65 1525.11 1483.45 Q1521.59 1486.25 1515.11 1486.25 Q1512.93 1486.25 1510.62 1485.81 Q1508.33 1485.39 1505.87 1484.54 L1505.87 1480.02 Q1507.82 1481.16 1510.13 1481.74 Q1512.45 1482.32 1514.97 1482.32 Q1519.37 1482.32 1521.66 1480.58 Q1523.98 1478.84 1523.98 1475.53 Q1523.98 1472.48 1521.82 1470.77 Q1519.69 1469.03 1515.87 1469.03 L1511.85 1469.03 L1511.85 1465.19 L1516.06 1465.19 Q1519.51 1465.19 1521.34 1463.82 Q1523.17 1462.43 1523.17 1459.84 Q1523.17 1457.18 1521.27 1455.77 Q1519.39 1454.33 1515.87 1454.33 Q1513.95 1454.33 1511.75 1454.75 Q1509.56 1455.16 1506.92 1456.04 L1506.92 1451.88 Q1509.58 1451.14 1511.89 1450.77 Q1514.23 1450.39 1516.29 1450.39 Q1521.62 1450.39 1524.72 1452.83 Q1527.82 1455.23 1527.82 1459.35 Q1527.82 1462.22 1526.18 1464.21 Q1524.53 1466.18 1521.5 1466.95 Z" fill="#000000" fill-rule="nonzero" fill-opacity="1" /><path clip-path="url(#clip210)" d="M1910.74 1455.09 L1898.93 1473.54 L1910.74 1473.54 L1910.74 1455.09 M1909.51 1451.02 L1915.39 1451.02 L1915.39 1473.54 L1920.32 1473.54 L1920.32 1477.43 L1915.39 1477.43 L1915.39 1485.58 L1910.74 1485.58 L1910.74 1477.43 L1895.14 1477.43 L1895.14 1472.92 L1909.51 1451.02 Z" fill="#000000" fill-rule="nonzero" fill-opacity="1" /><path clip-path="url(#clip210)" d="M2288.48 1451.02 L2306.84 1451.02 L2306.84 1454.96 L2292.77 1454.96 L2292.77 1463.43 Q2293.78 1463.08 2294.8 1462.92 Q2295.82 1462.73 2296.84 1462.73 Q2302.63 1462.73 2306.01 1465.9 Q2309.39 1469.08 2309.39 1474.49 Q2309.39 1480.07 2305.91 1483.17 Q2302.44 1486.25 2296.12 1486.25 Q2293.95 1486.25 2291.68 1485.88 Q2289.43 1485.51 2287.03 1484.77 L2287.03 1480.07 Q2289.11 1481.2 2291.33 1481.76 Q2293.55 1482.32 2296.03 1482.32 Q2300.03 1482.32 2302.37 1480.21 Q2304.71 1478.1 2304.71 1474.49 Q2304.71 1470.88 2302.37 1468.77 Q2300.03 1466.67 2296.03 1466.67 Q2294.16 1466.67 2292.28 1467.08 Q2290.43 1467.5 2288.48 1468.38 L2288.48 1451.02 Z" fill="#000000" fill-rule="nonzero" fill-opacity="1" /><path clip-path="url(#clip210)" d="M1190.23 1520.52 L1230.43 1520.52 L1230.43 1525.93 L1213.56 1525.93 L1213.56 1568.04 L1207.1 1568.04 L1207.1 1525.93 L1190.23 1525.93 L1190.23 1520.52 Z" fill="#000000" fill-rule="nonzero" fill-opacity="1" /><path clip-path="url(#clip210)" d="M1234.38 1532.4 L1240.23 1532.4 L1240.23 1568.04 L1234.38 1568.04 L1234.38 1532.4 M1234.38 1518.52 L1240.23 1518.52 L1240.23 1525.93 L1234.38 1525.93 L1234.38 1518.52 Z" fill="#000000" fill-rule="nonzero" fill-opacity="1" /><path clip-path="url(#clip210)" d="M1280.24 1539.24 Q1282.44 1535.29 1285.5 1533.41 Q1288.55 1531.54 1292.69 1531.54 Q1298.26 1531.54 1301.28 1535.45 Q1304.31 1539.33 1304.31 1546.53 L1304.31 1568.04 L1298.42 1568.04 L1298.42 1546.72 Q1298.42 1541.59 1296.6 1539.11 Q1294.79 1536.63 1291.07 1536.63 Q1286.51 1536.63 1283.87 1539.65 Q1281.23 1542.68 1281.23 1547.9 L1281.23 1568.04 L1275.34 1568.04 L1275.34 1546.72 Q1275.34 1541.56 1273.53 1539.11 Q1271.71 1536.63 1267.93 1536.63 Q1263.44 1536.63 1260.8 1539.68 Q1258.15 1542.71 1258.15 1547.9 L1258.15 1568.04 L1252.27 1568.04 L1252.27 1532.4 L1258.15 1532.4 L1258.15 1537.93 Q1260.16 1534.66 1262.96 1533.1 Q1265.76 1531.54 1269.61 1531.54 Q1273.5 1531.54 1276.2 1533.51 Q1278.94 1535.48 1280.24 1539.24 Z" fill="#000000" fill-rule="nonzero" fill-opacity="1" /><path clip-path="url(#clip210)" d="M1346.48 1548.76 L1346.48 1551.62 L1319.55 1551.62 Q1319.93 1557.67 1323.18 1560.85 Q1326.46 1564 1332.28 1564 Q1335.66 1564 1338.81 1563.17 Q1341.99 1562.35 1345.11 1560.69 L1345.11 1566.23 Q1341.96 1567.57 1338.65 1568.27 Q1335.34 1568.97 1331.93 1568.97 Q1323.4 1568.97 1318.41 1564 Q1313.44 1559.04 1313.44 1550.57 Q1313.44 1541.82 1318.15 1536.69 Q1322.89 1531.54 1330.91 1531.54 Q1338.11 1531.54 1342.28 1536.18 Q1346.48 1540.8 1346.48 1548.76 M1340.62 1547.04 Q1340.56 1542.23 1337.92 1539.37 Q1335.31 1536.5 1330.98 1536.5 Q1326.08 1536.5 1323.12 1539.27 Q1320.19 1542.04 1319.74 1547.07 L1340.62 1547.04 Z" fill="#000000" fill-rule="nonzero" fill-opacity="1" /><path clip-path="url(#clip210)" d="M1390.88 1518.58 Q1386.61 1525.9 1384.55 1533.06 Q1382.48 1540.23 1382.48 1547.58 Q1382.48 1554.93 1384.55 1562.16 Q1386.65 1569.35 1390.88 1576.64 L1385.79 1576.64 Q1381.01 1569.16 1378.63 1561.93 Q1376.27 1554.71 1376.27 1547.58 Q1376.27 1540.48 1378.63 1533.29 Q1380.98 1526.09 1385.79 1518.58 L1390.88 1518.58 Z" fill="#000000" fill-rule="nonzero" fill-opacity="1" /><path clip-path="url(#clip210)" d="M1424.97 1533.45 L1424.97 1538.98 Q1422.49 1537.71 1419.81 1537.07 Q1417.14 1536.44 1414.27 1536.44 Q1409.91 1536.44 1407.72 1537.77 Q1405.55 1539.11 1405.55 1541.79 Q1405.55 1543.82 1407.11 1545 Q1408.67 1546.15 1413.38 1547.2 L1415.39 1547.64 Q1421.63 1548.98 1424.24 1551.43 Q1426.88 1553.85 1426.88 1558.21 Q1426.88 1563.17 1422.93 1566.07 Q1419.02 1568.97 1412.14 1568.97 Q1409.28 1568.97 1406.16 1568.39 Q1403.07 1567.85 1399.63 1566.74 L1399.63 1560.69 Q1402.88 1562.38 1406.03 1563.24 Q1409.18 1564.07 1412.27 1564.07 Q1416.41 1564.07 1418.63 1562.66 Q1420.86 1561.23 1420.86 1558.65 Q1420.86 1556.27 1419.24 1554.99 Q1417.65 1553.72 1412.2 1552.54 L1410.17 1552.07 Q1404.72 1550.92 1402.31 1548.56 Q1399.89 1546.18 1399.89 1542.04 Q1399.89 1537.01 1403.45 1534.27 Q1407.02 1531.54 1413.57 1531.54 Q1416.82 1531.54 1419.68 1532.01 Q1422.55 1532.49 1424.97 1533.45 Z" fill="#000000" fill-rule="nonzero" fill-opacity="1" /><path clip-path="url(#clip210)" d="M1435.28 1518.58 L1440.37 1518.58 Q1445.15 1526.09 1447.5 1533.29 Q1449.89 1540.48 1449.89 1547.58 Q1449.89 1554.71 1447.5 1561.93 Q1445.15 1569.16 1440.37 1576.64 L1435.28 1576.64 Q1439.51 1569.35 1441.58 1562.16 Q1443.68 1554.93 1443.68 1547.58 Q1443.68 1540.23 1441.58 1533.06 Q1439.51 1525.9 1435.28 1518.58 Z" fill="#000000" fill-rule="nonzero" fill-opacity="1" /><polyline clip-path="url(#clip210)" style="stroke:#000000; stroke-linecap:round; stroke-linejoin:round; stroke-width:4; stroke-opacity:1; fill:none" points="287.366,1423.18 287.366,847.244 "/>
<polyline clip-path="url(#clip210)" style="stroke:#000000; stroke-linecap:round; stroke-linejoin:round; stroke-width:4; stroke-opacity:1; fill:none" points="287.366,1406.88 306.264,1406.88 "/>
<polyline clip-path="url(#clip210)" style="stroke:#000000; stroke-linecap:round; stroke-linejoin:round; stroke-width:4; stroke-opacity:1; fill:none" points="287.366,1271.05 306.264,1271.05 "/>
<polyline clip-path="url(#clip210)" style="stroke:#000000; stroke-linecap:round; stroke-linejoin:round; stroke-width:4; stroke-opacity:1; fill:none" points="287.366,1135.21 306.264,1135.21 "/>
<polyline clip-path="url(#clip210)" style="stroke:#000000; stroke-linecap:round; stroke-linejoin:round; stroke-width:4; stroke-opacity:1; fill:none" points="287.366,999.378 306.264,999.378 "/>
<polyline clip-path="url(#clip210)" style="stroke:#000000; stroke-linecap:round; stroke-linejoin:round; stroke-width:4; stroke-opacity:1; fill:none" points="287.366,863.544 306.264,863.544 "/>
<path clip-path="url(#clip210)" d="M144.422 1407.33 L174.098 1407.33 L174.098 1411.27 L144.422 1411.27 L144.422 1407.33 Z" fill="#000000" fill-rule="nonzero" fill-opacity="1" /><path clip-path="url(#clip210)" d="M185.001 1420.22 L192.639 1420.22 L192.639 1393.86 L184.329 1395.53 L184.329 1391.27 L192.593 1389.6 L197.269 1389.6 L197.269 1420.22 L204.908 1420.22 L204.908 1424.16 L185.001 1424.16 L185.001 1420.22 Z" fill="#000000" fill-rule="nonzero" fill-opacity="1" /><path clip-path="url(#clip210)" d="M214.352 1418.28 L219.236 1418.28 L219.236 1424.16 L214.352 1424.16 L214.352 1418.28 Z" fill="#000000" fill-rule="nonzero" fill-opacity="1" /><path clip-path="url(#clip210)" d="M239.422 1392.68 Q235.81 1392.68 233.982 1396.24 Q232.176 1399.78 232.176 1406.91 Q232.176 1414.02 233.982 1417.59 Q235.81 1421.13 239.422 1421.13 Q243.056 1421.13 244.861 1417.59 Q246.69 1414.02 246.69 1406.91 Q246.69 1399.78 244.861 1396.24 Q243.056 1392.68 239.422 1392.68 M239.422 1388.97 Q245.232 1388.97 248.287 1393.58 Q251.366 1398.16 251.366 1406.91 Q251.366 1415.64 248.287 1420.25 Q245.232 1424.83 239.422 1424.83 Q233.611 1424.83 230.533 1420.25 Q227.477 1415.64 227.477 1406.91 Q227.477 1398.16 230.533 1393.58 Q233.611 1388.97 239.422 1388.97 Z" fill="#000000" fill-rule="nonzero" fill-opacity="1" /><path clip-path="url(#clip210)" d="M145.417 1271.5 L175.093 1271.5 L175.093 1275.43 L145.417 1275.43 L145.417 1271.5 Z" fill="#000000" fill-rule="nonzero" fill-opacity="1" /><path clip-path="url(#clip210)" d="M195.186 1256.84 Q191.575 1256.84 189.746 1260.41 Q187.94 1263.95 187.94 1271.08 Q187.94 1278.19 189.746 1281.75 Q191.575 1285.29 195.186 1285.29 Q198.82 1285.29 200.625 1281.75 Q202.454 1278.19 202.454 1271.08 Q202.454 1263.95 200.625 1260.41 Q198.82 1256.84 195.186 1256.84 M195.186 1253.14 Q200.996 1253.14 204.051 1257.75 Q207.13 1262.33 207.13 1271.08 Q207.13 1279.81 204.051 1284.41 Q200.996 1289 195.186 1289 Q189.375 1289 186.297 1284.41 Q183.241 1279.81 183.241 1271.08 Q183.241 1262.33 186.297 1257.75 Q189.375 1253.14 195.186 1253.14 Z" fill="#000000" fill-rule="nonzero" fill-opacity="1" /><path clip-path="url(#clip210)" d="M215.348 1282.45 L220.232 1282.45 L220.232 1288.33 L215.348 1288.33 L215.348 1282.45 Z" fill="#000000" fill-rule="nonzero" fill-opacity="1" /><path clip-path="url(#clip210)" d="M230.463 1253.77 L248.82 1253.77 L248.82 1257.7 L234.746 1257.7 L234.746 1266.17 Q235.764 1265.83 236.783 1265.66 Q237.801 1265.48 238.82 1265.48 Q244.607 1265.48 247.986 1268.65 Q251.366 1271.82 251.366 1277.24 Q251.366 1282.82 247.894 1285.92 Q244.421 1289 238.102 1289 Q235.926 1289 233.658 1288.63 Q231.412 1288.26 229.005 1287.52 L229.005 1282.82 Q231.088 1283.95 233.31 1284.51 Q235.533 1285.06 238.009 1285.06 Q242.014 1285.06 244.352 1282.96 Q246.69 1280.85 246.69 1277.24 Q246.69 1273.63 244.352 1271.52 Q242.014 1269.41 238.009 1269.41 Q236.135 1269.41 234.26 1269.83 Q232.408 1270.25 230.463 1271.13 L230.463 1253.77 Z" fill="#000000" fill-rule="nonzero" fill-opacity="1" /><path clip-path="url(#clip210)" d="M194.19 1121.01 Q190.579 1121.01 188.75 1124.58 Q186.945 1128.12 186.945 1135.25 Q186.945 1142.35 188.75 1145.92 Q190.579 1149.46 194.19 1149.46 Q197.825 1149.46 199.63 1145.92 Q201.459 1142.35 201.459 1135.25 Q201.459 1128.12 199.63 1124.58 Q197.825 1121.01 194.19 1121.01 M194.19 1117.31 Q200 1117.31 203.056 1121.91 Q206.135 1126.5 206.135 1135.25 Q206.135 1143.97 203.056 1148.58 Q200 1153.16 194.19 1153.16 Q188.38 1153.16 185.301 1148.58 Q182.246 1143.97 182.246 1135.25 Q182.246 1126.5 185.301 1121.91 Q188.38 1117.31 194.19 1117.31 Z" fill="#000000" fill-rule="nonzero" fill-opacity="1" /><path clip-path="url(#clip210)" d="M214.352 1146.61 L219.236 1146.61 L219.236 1152.49 L214.352 1152.49 L214.352 1146.61 Z" fill="#000000" fill-rule="nonzero" fill-opacity="1" /><path clip-path="url(#clip210)" d="M239.422 1121.01 Q235.81 1121.01 233.982 1124.58 Q232.176 1128.12 232.176 1135.25 Q232.176 1142.35 233.982 1145.92 Q235.81 1149.46 239.422 1149.46 Q243.056 1149.46 244.861 1145.92 Q246.69 1142.35 246.69 1135.25 Q246.69 1128.12 244.861 1124.58 Q243.056 1121.01 239.422 1121.01 M239.422 1117.31 Q245.232 1117.31 248.287 1121.91 Q251.366 1126.5 251.366 1135.25 Q251.366 1143.97 248.287 1148.58 Q245.232 1153.16 239.422 1153.16 Q233.611 1153.16 230.533 1148.58 Q227.477 1143.97 227.477 1135.25 Q227.477 1126.5 230.533 1121.91 Q233.611 1117.31 239.422 1117.31 Z" fill="#000000" fill-rule="nonzero" fill-opacity="1" /><path clip-path="url(#clip210)" d="M195.186 985.177 Q191.575 985.177 189.746 988.742 Q187.94 992.283 187.94 999.413 Q187.94 1006.52 189.746 1010.08 Q191.575 1013.63 195.186 1013.63 Q198.82 1013.63 200.625 1010.08 Q202.454 1006.52 202.454 999.413 Q202.454 992.283 200.625 988.742 Q198.82 985.177 195.186 985.177 M195.186 981.473 Q200.996 981.473 204.051 986.08 Q207.13 990.663 207.13 999.413 Q207.13 1008.14 204.051 1012.75 Q200.996 1017.33 195.186 1017.33 Q189.375 1017.33 186.297 1012.75 Q183.241 1008.14 183.241 999.413 Q183.241 990.663 186.297 986.08 Q189.375 981.473 195.186 981.473 Z" fill="#000000" fill-rule="nonzero" fill-opacity="1" /><path clip-path="url(#clip210)" d="M215.348 1010.78 L220.232 1010.78 L220.232 1016.66 L215.348 1016.66 L215.348 1010.78 Z" fill="#000000" fill-rule="nonzero" fill-opacity="1" /><path clip-path="url(#clip210)" d="M230.463 982.098 L248.82 982.098 L248.82 986.033 L234.746 986.033 L234.746 994.505 Q235.764 994.158 236.783 993.996 Q237.801 993.811 238.82 993.811 Q244.607 993.811 247.986 996.982 Q251.366 1000.15 251.366 1005.57 Q251.366 1011.15 247.894 1014.25 Q244.421 1017.33 238.102 1017.33 Q235.926 1017.33 233.658 1016.96 Q231.412 1016.59 229.005 1015.85 L229.005 1011.15 Q231.088 1012.28 233.31 1012.84 Q235.533 1013.39 238.009 1013.39 Q242.014 1013.39 244.352 1011.29 Q246.69 1009.18 246.69 1005.57 Q246.69 1001.96 244.352 999.853 Q242.014 997.746 238.009 997.746 Q236.135 997.746 234.26 998.163 Q232.408 998.579 230.463 999.459 L230.463 982.098 Z" fill="#000000" fill-rule="nonzero" fill-opacity="1" /><path clip-path="url(#clip210)" d="M185.001 876.889 L192.639 876.889 L192.639 850.523 L184.329 852.19 L184.329 847.931 L192.593 846.264 L197.269 846.264 L197.269 876.889 L204.908 876.889 L204.908 880.824 L185.001 880.824 L185.001 876.889 Z" fill="#000000" fill-rule="nonzero" fill-opacity="1" /><path clip-path="url(#clip210)" d="M214.352 874.945 L219.236 874.945 L219.236 880.824 L214.352 880.824 L214.352 874.945 Z" fill="#000000" fill-rule="nonzero" fill-opacity="1" /><path clip-path="url(#clip210)" d="M239.422 849.343 Q235.81 849.343 233.982 852.908 Q232.176 856.449 232.176 863.579 Q232.176 870.685 233.982 874.25 Q235.81 877.792 239.422 877.792 Q243.056 877.792 244.861 874.25 Q246.69 870.685 246.69 863.579 Q246.69 856.449 244.861 852.908 Q243.056 849.343 239.422 849.343 M239.422 845.639 Q245.232 845.639 248.287 850.246 Q251.366 854.829 251.366 863.579 Q251.366 872.306 248.287 876.912 Q245.232 881.495 239.422 881.495 Q233.611 881.495 230.533 876.912 Q227.477 872.306 227.477 863.579 Q227.477 854.829 230.533 850.246 Q233.611 845.639 239.422 845.639 Z" fill="#000000" fill-rule="nonzero" fill-opacity="1" /><path clip-path="url(#clip210)" d="M80.0978 1150.14 L58.5181 1150.14 L58.5181 1144.28 L79.875 1144.28 Q84.9358 1144.28 87.482 1142.31 Q89.9965 1140.34 89.9965 1136.39 Q89.9965 1131.65 86.9728 1128.91 Q83.9491 1126.14 78.7292 1126.14 L58.5181 1126.14 L58.5181 1120.28 L94.166 1120.28 L94.166 1126.14 L88.6915 1126.14 Q91.938 1128.27 93.5295 1131.11 Q95.0891 1133.91 95.0891 1137.63 Q95.0891 1143.77 91.2696 1146.96 Q87.4502 1150.14 80.0978 1150.14 M57.6587 1135.4 L57.6587 1135.4 Z" fill="#000000" fill-rule="nonzero" fill-opacity="1" /><polyline clip-path="url(#clip213)" style="stroke:#009af9; stroke-linecap:round; stroke-linejoin:round; stroke-width:4; stroke-opacity:1; fill:none" points="345.82,1406.88 349.725,1406.88 353.63,1406.88 357.535,1406.88 361.439,1406.88 365.344,1406.88 365.344,863.544 369.249,863.544 373.154,863.544 377.059,863.544 380.963,863.544 384.868,863.544 388.773,863.544 392.678,863.544 396.582,863.544 400.487,863.544 404.392,863.544 404.392,1406.88 408.297,1406.88 412.201,1406.88 416.106,1406.88 420.011,1406.88 423.916,1406.88 423.916,863.544 427.821,863.544 431.725,863.544 435.63,863.544 439.535,863.544 443.44,863.544 447.344,863.544 451.249,863.544 455.154,863.544 459.059,863.544 462.963,863.544 466.868,863.544 470.773,863.544 474.678,863.544 478.583,863.544 482.487,863.544 482.487,1406.88 486.392,1406.88 490.297,1406.88 494.202,1406.88 498.106,1406.88 502.011,1406.88 502.011,863.544 505.916,863.544 509.821,863.544 513.726,863.544 517.63,863.544 521.535,863.544 521.535,1406.88 525.44,1406.88 529.345,1406.88 533.249,1406.88 537.154,1406.88 541.059,1406.88 541.059,863.544 544.964,863.544 548.868,863.544 552.773,863.544 556.678,863.544 560.583,863.544 560.583,1406.88 564.488,1406.88 568.392,1406.88 572.297,1406.88 576.202,1406.88 580.107,1406.88 580.107,863.544 584.011,863.544 587.916,863.544 591.821,863.544 595.726,863.544 599.631,863.544 603.535,863.544 607.44,863.544 611.345,863.544 615.25,863.544 619.154,863.544 619.154,1406.88 623.059,1406.88 626.964,1406.88 630.869,1406.88 634.773,1406.88 638.678,1406.88 638.678,863.544 642.583,863.544 646.488,863.544 650.393,863.544 654.297,863.544 658.202,863.544 658.202,1406.88 662.107,1406.88 666.012,1406.88 669.916,1406.88 673.821,1406.88 677.726,1406.88 677.726,863.544 681.631,863.544 685.535,863.544 689.44,863.544 693.345,863.544 697.25,863.544 697.25,1406.88 701.155,1406.88 705.059,1406.88 708.964,1406.88 712.869,1406.88 716.774,1406.88 716.774,863.544 720.678,863.544 724.583,863.544 728.488,863.544 732.393,863.544 736.298,863.544 740.202,863.544 744.107,863.544 748.012,863.544 751.917,863.544 755.821,863.544 755.821,1406.88 759.726,1406.88 763.631,1406.88 767.536,1406.88 771.44,1406.88 775.345,1406.88 779.25,1406.88 783.155,1406.88 787.06,1406.88 790.964,1406.88 794.869,1406.88 794.869,863.544 798.774,863.544 802.679,863.544 806.583,863.544 810.488,863.544 814.393,863.544 814.393,1406.88 818.298,1406.88 822.202,1406.88 826.107,1406.88 830.012,1406.88 833.917,1406.88 837.822,1406.88 841.726,1406.88 845.631,1406.88 849.536,1406.88 853.441,1406.88 853.441,863.544 857.345,863.544 861.25,863.544 865.155,863.544 869.06,863.544 872.965,863.544 872.965,1406.88 876.869,1406.88 880.774,1406.88 884.679,1406.88 888.584,1406.88 892.488,1406.88 892.488,863.544 896.393,863.544 900.298,863.544 904.203,863.544 908.107,863.544 912.012,863.544 912.012,1406.88 915.917,1406.88 919.822,1406.88 923.727,1406.88 927.631,1406.88 931.536,1406.88 931.536,863.544 935.441,863.544 939.346,863.544 943.25,863.544 947.155,863.544 951.06,863.544 954.965,863.544 958.87,863.544 962.774,863.544 966.679,863.544 970.584,863.544 970.584,1406.88 974.489,1406.88 978.393,1406.88 982.298,1406.88 986.203,1406.88 990.108,1406.88 994.012,1406.88 997.917,1406.88 1001.82,1406.88 1005.73,1406.88 1009.63,1406.88 1009.63,863.544 1013.54,863.544 1017.44,863.544 1021.35,863.544 1025.25,863.544 1029.16,863.544 1029.16,1406.88 1033.06,1406.88 1036.96,1406.88 1040.87,1406.88 1044.77,1406.88 1048.68,1406.88 1052.58,1406.88 1056.49,1406.88 1060.39,1406.88 1064.3,1406.88 1068.2,1406.88 1068.2,863.544 1072.11,863.544 1076.01,863.544 1079.92,863.544 1083.82,863.544 1087.73,863.544 1091.63,863.544 1095.54,863.544 1099.44,863.544 1103.35,863.544 1107.25,863.544 1111.16,863.544 1115.06,863.544 1118.97,863.544 1122.87,863.544 1126.77,863.544 1126.77,1406.88 1130.68,1406.88 1134.58,1406.88 1138.49,1406.88 1142.39,1406.88 1146.3,1406.88 1150.2,1406.88 1154.11,1406.88 1158.01,1406.88 1161.92,1406.88 1165.82,1406.88 1165.82,863.544 1169.73,863.544 1173.63,863.544 1177.54,863.544 1181.44,863.544 1185.35,863.544 1185.35,1406.88 1189.25,1406.88 1193.16,1406.88 1197.06,1406.88 1200.97,1406.88 1204.87,1406.88 1208.77,1406.88 1212.68,1406.88 1216.58,1406.88 1220.49,1406.88 1224.39,1406.88 1228.3,1406.88 1232.2,1406.88 1236.11,1406.88 1240.01,1406.88 1243.92,1406.88 1243.92,863.544 1247.82,863.544 1251.73,863.544 1255.63,863.544 1259.54,863.544 1263.44,863.544 1263.44,1406.88 1267.35,1406.88 1271.25,1406.88 1275.16,1406.88 1279.06,1406.88 1282.97,1406.88 1282.97,863.544 1286.87,863.544 1290.78,863.544 1294.68,863.544 1298.58,863.544 1302.49,863.544 1306.39,863.544 1310.3,863.544 1314.2,863.544 1318.11,863.544 1322.01,863.544 1325.92,863.544 1329.82,863.544 1333.73,863.544 1337.63,863.544 1341.54,863.544 1345.44,863.544 1349.35,863.544 1353.25,863.544 1357.16,863.544 1361.06,863.544 1361.06,1406.88 1364.97,1406.88 1368.87,1406.88 1372.78,1406.88 1376.68,1406.88 1380.58,1406.88 1384.49,1406.88 1388.39,1406.88 1392.3,1406.88 1396.2,1406.88 1400.11,1406.88 1400.11,863.544 1404.01,863.544 1407.92,863.544 1411.82,863.544 1415.73,863.544 1419.63,863.544 1419.63,1406.88 1423.54,1406.88 1427.44,1406.88 1431.35,1406.88 1435.25,1406.88 1439.16,1406.88 1439.16,863.544 1443.06,863.544 1446.97,863.544 1450.87,863.544 1454.78,863.544 1458.68,863.544 1458.68,1406.88 1462.59,1406.88 1466.49,1406.88 1470.39,1406.88 1474.3,1406.88 1478.2,1406.88 1482.11,1406.88 1486.01,1406.88 1489.92,1406.88 1493.82,1406.88 1497.73,1406.88 1501.63,1406.88 1505.54,1406.88 1509.44,1406.88 1513.35,1406.88 1517.25,1406.88 1517.25,863.544 1521.16,863.544 1525.06,863.544 1528.97,863.544 1532.87,863.544 1536.78,863.544 1536.78,1406.88 1540.68,1406.88 1544.59,1406.88 1548.49,1406.88 1552.39,1406.88 1556.3,1406.88 1556.3,863.544 1560.2,863.544 1564.11,863.544 1568.01,863.544 1571.92,863.544 1575.82,863.544 1575.82,1406.88 1579.73,1406.88 1583.63,1406.88 1587.54,1406.88 1591.44,1406.88 1595.35,1406.88 1599.25,1406.88 1603.16,1406.88 1607.06,1406.88 1610.97,1406.88 1614.87,1406.88 1614.87,863.544 1618.78,863.544 1622.68,863.544 1626.59,863.544 1630.49,863.544 1634.4,863.544 1638.3,863.544 1642.2,863.544 1646.11,863.544 1650.01,863.544 1653.92,863.544 1653.92,1406.88 1657.82,1406.88 1661.73,1406.88 1665.63,1406.88 1669.54,1406.88 1673.44,1406.88 1673.44,863.544 1677.35,863.544 1681.25,863.544 1685.16,863.544 1689.06,863.544 1692.97,863.544 1696.87,863.544 1700.78,863.544 1704.68,863.544 1708.59,863.544 1712.49,863.544 1716.4,863.544 1720.3,863.544 1724.2,863.544 1728.11,863.544 1732.01,863.544 1735.92,863.544 1739.82,863.544 1743.73,863.544 1747.63,863.544 1751.54,863.544 1751.54,1406.88 1755.44,1406.88 1759.35,1406.88 1763.25,1406.88 1767.16,1406.88 1771.06,1406.88 1774.97,1406.88 1778.87,1406.88 1782.78,1406.88 1786.68,1406.88 1790.59,1406.88 1790.59,863.544 1794.49,863.544 1798.4,863.544 1802.3,863.544 1806.2,863.544 1810.11,863.544 1814.01,863.544 1817.92,863.544 1821.82,863.544 1825.73,863.544 1829.63,863.544 1833.54,863.544 1837.44,863.544 1841.35,863.544 1845.25,863.544 1849.16,863.544 1853.06,863.544 1856.97,863.544 1860.87,863.544 1864.78,863.544 1868.68,863.544 1868.68,1406.88 1872.59,1406.88 1876.49,1406.88 1880.4,1406.88 1884.3,1406.88 1888.21,1406.88 1888.21,863.544 1892.11,863.544 1896.01,863.544 1899.92,863.544 1903.82,863.544 1907.73,863.544 1907.73,1406.88 1911.63,1406.88 1915.54,1406.88 1919.44,1406.88 1923.35,1406.88 1927.25,1406.88 1927.25,863.544 1931.16,863.544 1935.06,863.544 1938.97,863.544 1942.87,863.544 1946.78,863.544 1950.68,863.544 1954.59,863.544 1958.49,863.544 1962.4,863.544 1966.3,863.544 1970.21,863.544 1974.11,863.544 1978.01,863.544 1981.92,863.544 1985.82,863.544 1985.82,1406.88 1989.73,1406.88 1993.63,1406.88 1997.54,1406.88 2001.44,1406.88 2005.35,1406.88 2005.35,863.544 2009.25,863.544 2013.16,863.544 2017.06,863.544 2020.97,863.544 2024.87,863.544 2028.78,863.544 2032.68,863.544 2036.59,863.544 2040.49,863.544 2044.4,863.544 2048.3,863.544 2052.21,863.544 2056.11,863.544 2060.02,863.544 2063.92,863.544 2063.92,1406.88 2067.82,1406.88 2071.73,1406.88 2075.63,1406.88 2079.54,1406.88 2083.44,1406.88 2083.44,863.544 2087.35,863.544 2091.25,863.544 2095.16,863.544 2099.06,863.544 2102.97,863.544 2102.97,1406.88 2106.87,1406.88 2110.78,1406.88 2114.68,1406.88 2118.59,1406.88 2122.49,1406.88 2126.4,1406.88 2130.3,1406.88 2134.21,1406.88 2138.11,1406.88 2142.02,1406.88 2142.02,863.544 2145.92,863.544 2149.82,863.544 2153.73,863.544 2157.63,863.544 2161.54,863.544 2165.44,863.544 2169.35,863.544 2173.25,863.544 2177.16,863.544 2181.06,863.544 2181.06,1406.88 2184.97,1406.88 2188.87,1406.88 2192.78,1406.88 2196.68,1406.88 2200.59,1406.88 2204.49,1406.88 2208.4,1406.88 2212.3,1406.88 2216.21,1406.88 2220.11,1406.88 2224.02,1406.88 2227.92,1406.88 2231.83,1406.88 2235.73,1406.88 2239.63,1406.88 2239.63,863.544 2243.54,863.544 2247.44,863.544 2251.35,863.544 2255.25,863.544 2259.16,863.544 2259.16,1406.88 2263.06,1406.88 2266.97,1406.88 2270.87,1406.88 2274.78,1406.88 2278.68,1406.88 2282.59,1406.88 2286.49,1406.88 2290.4,1406.88 2294.3,1406.88 "/>
</svg>
