<?xml version="1.0" encoding="utf-8"?>
<svg xmlns="http://www.w3.org/2000/svg" xmlns:xlink="http://www.w3.org/1999/xlink" width="600" height="400" viewBox="0 0 2400 1600">
<defs>
  <clipPath id="clip360">
    <rect x="0" y="0" width="2400" height="1600"/>
  </clipPath>
</defs>
<path clip-path="url(#clip360)" d="M0 1600 L2400 1600 L2400 0 L0 0  Z" fill="#ffffff" fill-rule="evenodd" fill-opacity="1"/>
<defs>
  <clipPath id="clip361">
    <rect x="480" y="0" width="1681" height="1600"/>
  </clipPath>
</defs>
<path clip-path="url(#clip360)" d="M287.366 1423.18 L2352.76 1423.18 L2352.76 47.2441 L287.366 47.2441  Z" fill="#ffffff" fill-rule="evenodd" fill-opacity="1"/>
<defs>
  <clipPath id="clip362">
    <rect x="287" y="47" width="2066" height="1377"/>
  </clipPath>
</defs>
<polyline clip-path="url(#clip362)" style="stroke:#000000; stroke-linecap:round; stroke-linejoin:round; stroke-width:2; stroke-opacity:0.1; fill:none" points="345.82,1423.18 345.82,47.2441 "/>
<polyline clip-path="url(#clip362)" style="stroke:#000000; stroke-linecap:round; stroke-linejoin:round; stroke-width:2; stroke-opacity:0.1; fill:none" points="736.298,1423.18 736.298,47.2441 "/>
<polyline clip-path="url(#clip362)" style="stroke:#000000; stroke-linecap:round; stroke-linejoin:round; stroke-width:2; stroke-opacity:0.1; fill:none" points="1126.77,1423.18 1126.77,47.2441 "/>
<polyline clip-path="url(#clip362)" style="stroke:#000000; stroke-linecap:round; stroke-linejoin:round; stroke-width:2; stroke-opacity:0.1; fill:none" points="1517.25,1423.18 1517.25,47.2441 "/>
<polyline clip-path="url(#clip362)" style="stroke:#000000; stroke-linecap:round; stroke-linejoin:round; stroke-width:2; stroke-opacity:0.1; fill:none" points="1907.73,1423.18 1907.73,47.2441 "/>
<polyline clip-path="url(#clip362)" style="stroke:#000000; stroke-linecap:round; stroke-linejoin:round; stroke-width:2; stroke-opacity:0.1; fill:none" points="2298.21,1423.18 2298.21,47.2441 "/>
<polyline clip-path="url(#clip362)" style="stroke:#000000; stroke-linecap:round; stroke-linejoin:round; stroke-width:2; stroke-opacity:0.1; fill:none" points="287.366,1387.95 2352.76,1387.95 "/>
<polyline clip-path="url(#clip362)" style="stroke:#000000; stroke-linecap:round; stroke-linejoin:round; stroke-width:2; stroke-opacity:0.1; fill:none" points="287.366,1163.13 2352.76,1163.13 "/>
<polyline clip-path="url(#clip362)" style="stroke:#000000; stroke-linecap:round; stroke-linejoin:round; stroke-width:2; stroke-opacity:0.1; fill:none" points="287.366,938.321 2352.76,938.321 "/>
<polyline clip-path="url(#clip362)" style="stroke:#000000; stroke-linecap:round; stroke-linejoin:round; stroke-width:2; stroke-opacity:0.1; fill:none" points="287.366,713.507 2352.76,713.507 "/>
<polyline clip-path="url(#clip362)" style="stroke:#000000; stroke-linecap:round; stroke-linejoin:round; stroke-width:2; stroke-opacity:0.1; fill:none" points="287.366,488.694 2352.76,488.694 "/>
<polyline clip-path="url(#clip362)" style="stroke:#000000; stroke-linecap:round; stroke-linejoin:round; stroke-width:2; stroke-opacity:0.1; fill:none" points="287.366,263.881 2352.76,263.881 "/>
<polyline clip-path="url(#clip360)" style="stroke:#000000; stroke-linecap:round; stroke-linejoin:round; stroke-width:4; stroke-opacity:1; fill:none" points="287.366,1423.18 2352.76,1423.18 "/>
<polyline clip-path="url(#clip360)" style="stroke:#000000; stroke-linecap:round; stroke-linejoin:round; stroke-width:4; stroke-opacity:1; fill:none" points="345.82,1423.18 345.82,1404.28 "/>
<polyline clip-path="url(#clip360)" style="stroke:#000000; stroke-linecap:round; stroke-linejoin:round; stroke-width:4; stroke-opacity:1; fill:none" points="736.298,1423.18 736.298,1404.28 "/>
<polyline clip-path="url(#clip360)" style="stroke:#000000; stroke-linecap:round; stroke-linejoin:round; stroke-width:4; stroke-opacity:1; fill:none" points="1126.77,1423.18 1126.77,1404.28 "/>
<polyline clip-path="url(#clip360)" style="stroke:#000000; stroke-linecap:round; stroke-linejoin:round; stroke-width:4; stroke-opacity:1; fill:none" points="1517.25,1423.18 1517.25,1404.28 "/>
<polyline clip-path="url(#clip360)" style="stroke:#000000; stroke-linecap:round; stroke-linejoin:round; stroke-width:4; stroke-opacity:1; fill:none" points="1907.73,1423.18 1907.73,1404.28 "/>
<polyline clip-path="url(#clip360)" style="stroke:#000000; stroke-linecap:round; stroke-linejoin:round; stroke-width:4; stroke-opacity:1; fill:none" points="2298.21,1423.18 2298.21,1404.28 "/>
<path clip-path="url(#clip360)" d="M345.82 1454.1 Q342.209 1454.1 340.381 1457.66 Q338.575 1461.2 338.575 1468.33 Q338.575 1475.44 340.381 1479.01 Q342.209 1482.55 345.82 1482.55 Q349.455 1482.55 351.26 1479.01 Q353.089 1475.44 353.089 1468.33 Q353.089 1461.2 351.26 1457.66 Q349.455 1454.1 345.82 1454.1 M345.82 1450.39 Q351.63 1450.39 354.686 1455 Q357.765 1459.58 357.765 1468.33 Q357.765 1477.06 354.686 1481.67 Q351.63 1486.25 345.82 1486.25 Q340.01 1486.25 336.931 1481.67 Q333.876 1477.06 333.876 1468.33 Q333.876 1459.58 336.931 1455 Q340.01 1450.39 345.82 1450.39 Z" fill="#000000" fill-rule="nonzero" fill-opacity="1" /><path clip-path="url(#clip360)" d="M726.68 1481.64 L734.318 1481.64 L734.318 1455.28 L726.008 1456.95 L726.008 1452.69 L734.272 1451.02 L738.948 1451.02 L738.948 1481.64 L746.587 1481.64 L746.587 1485.58 L726.68 1485.58 L726.68 1481.64 Z" fill="#000000" fill-rule="nonzero" fill-opacity="1" /><path clip-path="url(#clip360)" d="M1121.43 1481.64 L1137.75 1481.64 L1137.75 1485.58 L1115.8 1485.58 L1115.8 1481.64 Q1118.46 1478.89 1123.05 1474.26 Q1127.65 1469.61 1128.83 1468.27 Q1131.08 1465.74 1131.96 1464.01 Q1132.86 1462.25 1132.86 1460.56 Q1132.86 1457.8 1130.92 1456.07 Q1129 1454.33 1125.9 1454.33 Q1123.7 1454.33 1121.24 1455.09 Q1118.81 1455.86 1116.03 1457.41 L1116.03 1452.69 Q1118.86 1451.55 1121.31 1450.97 Q1123.77 1450.39 1125.8 1450.39 Q1131.17 1450.39 1134.37 1453.08 Q1137.56 1455.77 1137.56 1460.26 Q1137.56 1462.39 1136.75 1464.31 Q1135.96 1466.2 1133.86 1468.8 Q1133.28 1469.47 1130.18 1472.69 Q1127.08 1475.88 1121.43 1481.64 Z" fill="#000000" fill-rule="nonzero" fill-opacity="1" /><path clip-path="url(#clip360)" d="M1521.5 1466.95 Q1524.86 1467.66 1526.73 1469.93 Q1528.63 1472.2 1528.63 1475.53 Q1528.63 1480.65 1525.11 1483.45 Q1521.59 1486.25 1515.11 1486.25 Q1512.93 1486.25 1510.62 1485.81 Q1508.33 1485.39 1505.87 1484.54 L1505.87 1480.02 Q1507.82 1481.16 1510.13 1481.74 Q1512.45 1482.32 1514.97 1482.32 Q1519.37 1482.32 1521.66 1480.58 Q1523.98 1478.84 1523.98 1475.53 Q1523.98 1472.48 1521.82 1470.77 Q1519.69 1469.03 1515.87 1469.03 L1511.85 1469.03 L1511.85 1465.19 L1516.06 1465.19 Q1519.51 1465.19 1521.34 1463.82 Q1523.17 1462.43 1523.17 1459.84 Q1523.17 1457.18 1521.27 1455.77 Q1519.39 1454.33 1515.87 1454.33 Q1513.95 1454.33 1511.75 1454.75 Q1509.56 1455.16 1506.92 1456.04 L1506.92 1451.88 Q1509.58 1451.14 1511.89 1450.77 Q1514.23 1450.39 1516.29 1450.39 Q1521.62 1450.39 1524.72 1452.83 Q1527.82 1455.23 1527.82 1459.35 Q1527.82 1462.22 1526.18 1464.21 Q1524.53 1466.18 1521.5 1466.95 Z" fill="#000000" fill-rule="nonzero" fill-opacity="1" /><path clip-path="url(#clip360)" d="M1910.74 1455.09 L1898.93 1473.54 L1910.74 1473.54 L1910.74 1455.09 M1909.51 1451.02 L1915.39 1451.02 L1915.39 1473.54 L1920.32 1473.54 L1920.32 1477.43 L1915.39 1477.43 L1915.39 1485.58 L1910.74 1485.58 L1910.74 1477.43 L1895.14 1477.43 L1895.14 1472.92 L1909.51 1451.02 Z" fill="#000000" fill-rule="nonzero" fill-opacity="1" /><path clip-path="url(#clip360)" d="M2288.48 1451.02 L2306.84 1451.02 L2306.84 1454.96 L2292.77 1454.96 L2292.77 1463.43 Q2293.78 1463.08 2294.8 1462.92 Q2295.82 1462.73 2296.84 1462.73 Q2302.63 1462.73 2306.01 1465.9 Q2309.39 1469.08 2309.39 1474.49 Q2309.39 1480.07 2305.91 1483.17 Q2302.44 1486.25 2296.12 1486.25 Q2293.95 1486.25 2291.68 1485.88 Q2289.43 1485.51 2287.03 1484.77 L2287.03 1480.07 Q2289.11 1481.2 2291.33 1481.76 Q2293.55 1482.32 2296.03 1482.32 Q2300.03 1482.32 2302.37 1480.21 Q2304.71 1478.1 2304.71 1474.49 Q2304.71 1470.88 2302.37 1468.77 Q2300.03 1466.67 2296.03 1466.67 Q2294.16 1466.67 2292.28 1467.08 Q2290.43 1467.5 2288.48 1468.38 L2288.48 1451.02 Z" fill="#000000" fill-rule="nonzero" fill-opacity="1" /><path clip-path="url(#clip360)" d="M1190.23 1520.52 L1230.43 1520.52 L1230.43 1525.93 L1213.56 1525.93 L1213.56 1568.04 L1207.1 1568.04 L1207.1 1525.93 L1190.23 1525.93 L1190.23 1520.52 Z" fill="#000000" fill-rule="nonzero" fill-opacity="1" /><path clip-path="url(#clip360)" d="M1234.38 1532.4 L1240.23 1532.4 L1240.23 1568.04 L1234.38 1568.04 L1234.38 1532.4 M1234.38 1518.52 L1240.23 1518.52 L1240.23 1525.93 L1234.38 1525.93 L1234.38 1518.52 Z" fill="#000000" fill-rule="nonzero" fill-opacity="1" /><path clip-path="url(#clip360)" d="M1280.24 1539.24 Q1282.44 1535.29 1285.5 1533.41 Q1288.55 1531.54 1292.69 1531.54 Q1298.26 1531.54 1301.28 1535.45 Q1304.31 1539.33 1304.31 1546.53 L1304.31 1568.04 L1298.42 1568.04 L1298.42 1546.72 Q1298.42 1541.59 1296.6 1539.11 Q1294.79 1536.63 1291.07 1536.63 Q1286.51 1536.63 1283.87 1539.65 Q1281.23 1542.68 1281.23 1547.9 L1281.23 1568.04 L1275.34 1568.04 L1275.34 1546.72 Q1275.34 1541.56 1273.53 1539.11 Q1271.71 1536.63 1267.93 1536.63 Q1263.44 1536.63 1260.8 1539.68 Q1258.15 1542.71 1258.15 1547.9 L1258.15 1568.04 L1252.27 1568.04 L1252.27 1532.4 L1258.15 1532.4 L1258.15 1537.93 Q1260.16 1534.66 1262.96 1533.1 Q1265.76 1531.54 1269.61 1531.54 Q1273.5 1531.54 1276.2 1533.51 Q1278.94 1535.48 1280.24 1539.24 Z" fill="#000000" fill-rule="nonzero" fill-opacity="1" /><path clip-path="url(#clip360)" d="M1346.48 1548.76 L1346.48 1551.62 L1319.55 1551.62 Q1319.93 1557.67 1323.18 1560.85 Q1326.46 1564 1332.28 1564 Q1335.66 1564 1338.81 1563.17 Q1341.99 1562.35 1345.11 1560.69 L1345.11 1566.23 Q1341.96 1567.57 1338.65 1568.27 Q1335.34 1568.97 1331.93 1568.97 Q1323.4 1568.97 1318.41 1564 Q1313.44 1559.04 1313.44 1550.57 Q1313.44 1541.82 1318.15 1536.69 Q1322.89 1531.54 1330.91 1531.54 Q1338.11 1531.54 1342.28 1536.18 Q1346.48 1540.8 1346.48 1548.76 M1340.62 1547.04 Q1340.56 1542.23 1337.92 1539.37 Q1335.31 1536.5 1330.98 1536.5 Q1326.08 1536.5 1323.12 1539.27 Q1320.19 1542.04 1319.74 1547.07 L1340.62 1547.04 Z" fill="#000000" fill-rule="nonzero" fill-opacity="1" /><path clip-path="url(#clip360)" d="M1376.27 1518.52 L1389.77 1518.52 L1389.77 1523.07 L1382.13 1523.07 L1382.13 1572.09 L1389.77 1572.09 L1389.77 1576.64 L1376.27 1576.64 L1376.27 1518.52 Z" fill="#000000" fill-rule="nonzero" fill-opacity="1" /><path clip-path="url(#clip360)" d="M1424.97 1533.45 L1424.97 1538.98 Q1422.49 1537.71 1419.81 1537.07 Q1417.14 1536.44 1414.27 1536.44 Q1409.91 1536.44 1407.72 1537.77 Q1405.55 1539.11 1405.55 1541.79 Q1405.55 1543.82 1407.11 1545 Q1408.67 1546.15 1413.38 1547.2 L1415.39 1547.64 Q1421.63 1548.98 1424.24 1551.43 Q1426.88 1553.85 1426.88 1558.21 Q1426.88 1563.17 1422.93 1566.07 Q1419.02 1568.97 1412.14 1568.97 Q1409.28 1568.97 1406.16 1568.39 Q1403.07 1567.85 1399.63 1566.74 L1399.63 1560.69 Q1402.88 1562.38 1406.03 1563.24 Q1409.18 1564.07 1412.27 1564.07 Q1416.41 1564.07 1418.63 1562.66 Q1420.86 1561.23 1420.86 1558.65 Q1420.86 1556.27 1419.24 1554.99 Q1417.65 1553.72 1412.2 1552.54 L1410.17 1552.07 Q1404.72 1550.92 1402.31 1548.56 Q1399.89 1546.18 1399.89 1542.04 Q1399.89 1537.01 1403.45 1534.27 Q1407.02 1531.54 1413.57 1531.54 Q1416.82 1531.54 1419.68 1532.01 Q1422.55 1532.49 1424.97 1533.45 Z" fill="#000000" fill-rule="nonzero" fill-opacity="1" /><path clip-path="url(#clip360)" d="M1449.89 1518.52 L1449.89 1576.64 L1436.39 1576.64 L1436.39 1572.09 L1444 1572.09 L1444 1523.07 L1436.39 1523.07 L1436.39 1518.52 L1449.89 1518.52 Z" fill="#000000" fill-rule="nonzero" fill-opacity="1" /><polyline clip-path="url(#clip360)" style="stroke:#000000; stroke-linecap:round; stroke-linejoin:round; stroke-width:4; stroke-opacity:1; fill:none" points="287.366,1423.18 287.366,47.2441 "/>
<polyline clip-path="url(#clip360)" style="stroke:#000000; stroke-linecap:round; stroke-linejoin:round; stroke-width:4; stroke-opacity:1; fill:none" points="287.366,1387.95 306.264,1387.95 "/>
<polyline clip-path="url(#clip360)" style="stroke:#000000; stroke-linecap:round; stroke-linejoin:round; stroke-width:4; stroke-opacity:1; fill:none" points="287.366,1163.13 306.264,1163.13 "/>
<polyline clip-path="url(#clip360)" style="stroke:#000000; stroke-linecap:round; stroke-linejoin:round; stroke-width:4; stroke-opacity:1; fill:none" points="287.366,938.321 306.264,938.321 "/>
<polyline clip-path="url(#clip360)" style="stroke:#000000; stroke-linecap:round; stroke-linejoin:round; stroke-width:4; stroke-opacity:1; fill:none" points="287.366,713.507 306.264,713.507 "/>
<polyline clip-path="url(#clip360)" style="stroke:#000000; stroke-linecap:round; stroke-linejoin:round; stroke-width:4; stroke-opacity:1; fill:none" points="287.366,488.694 306.264,488.694 "/>
<polyline clip-path="url(#clip360)" style="stroke:#000000; stroke-linecap:round; stroke-linejoin:round; stroke-width:4; stroke-opacity:1; fill:none" points="287.366,263.881 306.264,263.881 "/>
<path clip-path="url(#clip360)" d="M114.26 1388.4 L143.936 1388.4 L143.936 1392.33 L114.26 1392.33 L114.26 1388.4 Z" fill="#000000" fill-rule="nonzero" fill-opacity="1" /><path clip-path="url(#clip360)" d="M164.028 1373.75 Q160.417 1373.75 158.589 1377.31 Q156.783 1380.85 156.783 1387.98 Q156.783 1395.09 158.589 1398.65 Q160.417 1402.19 164.028 1402.19 Q167.663 1402.19 169.468 1398.65 Q171.297 1395.09 171.297 1387.98 Q171.297 1380.85 169.468 1377.31 Q167.663 1373.75 164.028 1373.75 M164.028 1370.04 Q169.839 1370.04 172.894 1374.65 Q175.973 1379.23 175.973 1387.98 Q175.973 1396.71 172.894 1401.32 Q169.839 1405.9 164.028 1405.9 Q158.218 1405.9 155.14 1401.32 Q152.084 1396.71 152.084 1387.98 Q152.084 1379.23 155.14 1374.65 Q158.218 1370.04 164.028 1370.04 Z" fill="#000000" fill-rule="nonzero" fill-opacity="1" /><path clip-path="url(#clip360)" d="M184.19 1399.35 L189.075 1399.35 L189.075 1405.23 L184.19 1405.23 L184.19 1399.35 Z" fill="#000000" fill-rule="nonzero" fill-opacity="1" /><path clip-path="url(#clip360)" d="M200.07 1401.29 L207.709 1401.29 L207.709 1374.93 L199.399 1376.59 L199.399 1372.33 L207.662 1370.67 L212.338 1370.67 L212.338 1401.29 L219.977 1401.29 L219.977 1405.23 L200.07 1405.23 L200.07 1401.29 Z" fill="#000000" fill-rule="nonzero" fill-opacity="1" /><path clip-path="url(#clip360)" d="M239.422 1373.75 Q235.81 1373.75 233.982 1377.31 Q232.176 1380.85 232.176 1387.98 Q232.176 1395.09 233.982 1398.65 Q235.81 1402.19 239.422 1402.19 Q243.056 1402.19 244.861 1398.65 Q246.69 1395.09 246.69 1387.98 Q246.69 1380.85 244.861 1377.31 Q243.056 1373.75 239.422 1373.75 M239.422 1370.04 Q245.232 1370.04 248.287 1374.65 Q251.366 1379.23 251.366 1387.98 Q251.366 1396.71 248.287 1401.32 Q245.232 1405.9 239.422 1405.9 Q233.611 1405.9 230.533 1401.32 Q227.477 1396.71 227.477 1387.98 Q227.477 1379.23 230.533 1374.65 Q233.611 1370.04 239.422 1370.04 Z" fill="#000000" fill-rule="nonzero" fill-opacity="1" /><path clip-path="url(#clip360)" d="M115.256 1163.59 L144.931 1163.59 L144.931 1167.52 L115.256 1167.52 L115.256 1163.59 Z" fill="#000000" fill-rule="nonzero" fill-opacity="1" /><path clip-path="url(#clip360)" d="M165.024 1148.93 Q161.413 1148.93 159.584 1152.5 Q157.778 1156.04 157.778 1163.17 Q157.778 1170.28 159.584 1173.84 Q161.413 1177.38 165.024 1177.38 Q168.658 1177.38 170.464 1173.84 Q172.292 1170.28 172.292 1163.17 Q172.292 1156.04 170.464 1152.5 Q168.658 1148.93 165.024 1148.93 M165.024 1145.23 Q170.834 1145.23 173.889 1149.84 Q176.968 1154.42 176.968 1163.17 Q176.968 1171.9 173.889 1176.5 Q170.834 1181.09 165.024 1181.09 Q159.214 1181.09 156.135 1176.5 Q153.079 1171.9 153.079 1163.17 Q153.079 1154.42 156.135 1149.84 Q159.214 1145.23 165.024 1145.23 Z" fill="#000000" fill-rule="nonzero" fill-opacity="1" /><path clip-path="url(#clip360)" d="M185.186 1174.53 L190.07 1174.53 L190.07 1180.41 L185.186 1180.41 L185.186 1174.53 Z" fill="#000000" fill-rule="nonzero" fill-opacity="1" /><path clip-path="url(#clip360)" d="M210.255 1148.93 Q206.644 1148.93 204.815 1152.5 Q203.01 1156.04 203.01 1163.17 Q203.01 1170.28 204.815 1173.84 Q206.644 1177.38 210.255 1177.38 Q213.889 1177.38 215.695 1173.84 Q217.523 1170.28 217.523 1163.17 Q217.523 1156.04 215.695 1152.5 Q213.889 1148.93 210.255 1148.93 M210.255 1145.23 Q216.065 1145.23 219.121 1149.84 Q222.199 1154.42 222.199 1163.17 Q222.199 1171.9 219.121 1176.5 Q216.065 1181.09 210.255 1181.09 Q204.445 1181.09 201.366 1176.5 Q198.311 1171.9 198.311 1163.17 Q198.311 1154.42 201.366 1149.84 Q204.445 1145.23 210.255 1145.23 Z" fill="#000000" fill-rule="nonzero" fill-opacity="1" /><path clip-path="url(#clip360)" d="M230.463 1145.85 L248.82 1145.85 L248.82 1149.79 L234.746 1149.79 L234.746 1158.26 Q235.764 1157.91 236.783 1157.75 Q237.801 1157.57 238.82 1157.57 Q244.607 1157.57 247.986 1160.74 Q251.366 1163.91 251.366 1169.33 Q251.366 1174.9 247.894 1178.01 Q244.421 1181.09 238.102 1181.09 Q235.926 1181.09 233.658 1180.71 Q231.412 1180.34 229.005 1179.6 L229.005 1174.9 Q231.088 1176.04 233.31 1176.59 Q235.533 1177.15 238.009 1177.15 Q242.014 1177.15 244.352 1175.04 Q246.69 1172.94 246.69 1169.33 Q246.69 1165.71 244.352 1163.61 Q242.014 1161.5 238.009 1161.5 Q236.135 1161.5 234.26 1161.92 Q232.408 1162.34 230.463 1163.21 L230.463 1145.85 Z" fill="#000000" fill-rule="nonzero" fill-opacity="1" /><path clip-path="url(#clip360)" d="M164.028 924.119 Q160.417 924.119 158.589 927.684 Q156.783 931.226 156.783 938.355 Q156.783 945.462 158.589 949.027 Q160.417 952.568 164.028 952.568 Q167.663 952.568 169.468 949.027 Q171.297 945.462 171.297 938.355 Q171.297 931.226 169.468 927.684 Q167.663 924.119 164.028 924.119 M164.028 920.416 Q169.839 920.416 172.894 925.022 Q175.973 929.605 175.973 938.355 Q175.973 947.082 172.894 951.689 Q169.839 956.272 164.028 956.272 Q158.218 956.272 155.14 951.689 Q152.084 947.082 152.084 938.355 Q152.084 929.605 155.14 925.022 Q158.218 920.416 164.028 920.416 Z" fill="#000000" fill-rule="nonzero" fill-opacity="1" /><path clip-path="url(#clip360)" d="M184.19 949.721 L189.075 949.721 L189.075 955.601 L184.19 955.601 L184.19 949.721 Z" fill="#000000" fill-rule="nonzero" fill-opacity="1" /><path clip-path="url(#clip360)" d="M209.26 924.119 Q205.649 924.119 203.82 927.684 Q202.014 931.226 202.014 938.355 Q202.014 945.462 203.82 949.027 Q205.649 952.568 209.26 952.568 Q212.894 952.568 214.699 949.027 Q216.528 945.462 216.528 938.355 Q216.528 931.226 214.699 927.684 Q212.894 924.119 209.26 924.119 M209.26 920.416 Q215.07 920.416 218.125 925.022 Q221.204 929.605 221.204 938.355 Q221.204 947.082 218.125 951.689 Q215.07 956.272 209.26 956.272 Q203.449 956.272 200.371 951.689 Q197.315 947.082 197.315 938.355 Q197.315 929.605 200.371 925.022 Q203.449 920.416 209.26 920.416 Z" fill="#000000" fill-rule="nonzero" fill-opacity="1" /><path clip-path="url(#clip360)" d="M239.422 924.119 Q235.81 924.119 233.982 927.684 Q232.176 931.226 232.176 938.355 Q232.176 945.462 233.982 949.027 Q235.81 952.568 239.422 952.568 Q243.056 952.568 244.861 949.027 Q246.69 945.462 246.69 938.355 Q246.69 931.226 244.861 927.684 Q243.056 924.119 239.422 924.119 M239.422 920.416 Q245.232 920.416 248.287 925.022 Q251.366 929.605 251.366 938.355 Q251.366 947.082 248.287 951.689 Q245.232 956.272 239.422 956.272 Q233.611 956.272 230.533 951.689 Q227.477 947.082 227.477 938.355 Q227.477 929.605 230.533 925.022 Q233.611 920.416 239.422 920.416 Z" fill="#000000" fill-rule="nonzero" fill-opacity="1" /><path clip-path="url(#clip360)" d="M165.024 699.306 Q161.413 699.306 159.584 702.871 Q157.778 706.412 157.778 713.542 Q157.778 720.648 159.584 724.213 Q161.413 727.755 165.024 727.755 Q168.658 727.755 170.464 724.213 Q172.292 720.648 172.292 713.542 Q172.292 706.412 170.464 702.871 Q168.658 699.306 165.024 699.306 M165.024 695.602 Q170.834 695.602 173.889 700.209 Q176.968 704.792 176.968 713.542 Q176.968 722.269 173.889 726.875 Q170.834 731.459 165.024 731.459 Q159.214 731.459 156.135 726.875 Q153.079 722.269 153.079 713.542 Q153.079 704.792 156.135 700.209 Q159.214 695.602 165.024 695.602 Z" fill="#000000" fill-rule="nonzero" fill-opacity="1" /><path clip-path="url(#clip360)" d="M185.186 724.908 L190.07 724.908 L190.07 730.787 L185.186 730.787 L185.186 724.908 Z" fill="#000000" fill-rule="nonzero" fill-opacity="1" /><path clip-path="url(#clip360)" d="M210.255 699.306 Q206.644 699.306 204.815 702.871 Q203.01 706.412 203.01 713.542 Q203.01 720.648 204.815 724.213 Q206.644 727.755 210.255 727.755 Q213.889 727.755 215.695 724.213 Q217.523 720.648 217.523 713.542 Q217.523 706.412 215.695 702.871 Q213.889 699.306 210.255 699.306 M210.255 695.602 Q216.065 695.602 219.121 700.209 Q222.199 704.792 222.199 713.542 Q222.199 722.269 219.121 726.875 Q216.065 731.459 210.255 731.459 Q204.445 731.459 201.366 726.875 Q198.311 722.269 198.311 713.542 Q198.311 704.792 201.366 700.209 Q204.445 695.602 210.255 695.602 Z" fill="#000000" fill-rule="nonzero" fill-opacity="1" /><path clip-path="url(#clip360)" d="M230.463 696.227 L248.82 696.227 L248.82 700.162 L234.746 700.162 L234.746 708.635 Q235.764 708.287 236.783 708.125 Q237.801 707.94 238.82 707.94 Q244.607 707.94 247.986 711.111 Q251.366 714.283 251.366 719.699 Q251.366 725.278 247.894 728.38 Q244.421 731.459 238.102 731.459 Q235.926 731.459 233.658 731.088 Q231.412 730.718 229.005 729.977 L229.005 725.278 Q231.088 726.412 233.31 726.968 Q235.533 727.523 238.009 727.523 Q242.014 727.523 244.352 725.417 Q246.69 723.31 246.69 719.699 Q246.69 716.088 244.352 713.982 Q242.014 711.875 238.009 711.875 Q236.135 711.875 234.26 712.292 Q232.408 712.709 230.463 713.588 L230.463 696.227 Z" fill="#000000" fill-rule="nonzero" fill-opacity="1" /><path clip-path="url(#clip360)" d="M164.028 474.493 Q160.417 474.493 158.589 478.057 Q156.783 481.599 156.783 488.729 Q156.783 495.835 158.589 499.4 Q160.417 502.942 164.028 502.942 Q167.663 502.942 169.468 499.4 Q171.297 495.835 171.297 488.729 Q171.297 481.599 169.468 478.057 Q167.663 474.493 164.028 474.493 M164.028 470.789 Q169.839 470.789 172.894 475.395 Q175.973 479.979 175.973 488.729 Q175.973 497.455 172.894 502.062 Q169.839 506.645 164.028 506.645 Q158.218 506.645 155.14 502.062 Q152.084 497.455 152.084 488.729 Q152.084 479.979 155.14 475.395 Q158.218 470.789 164.028 470.789 Z" fill="#000000" fill-rule="nonzero" fill-opacity="1" /><path clip-path="url(#clip360)" d="M184.19 500.094 L189.075 500.094 L189.075 505.974 L184.19 505.974 L184.19 500.094 Z" fill="#000000" fill-rule="nonzero" fill-opacity="1" /><path clip-path="url(#clip360)" d="M200.07 502.039 L207.709 502.039 L207.709 475.673 L199.399 477.34 L199.399 473.081 L207.662 471.414 L212.338 471.414 L212.338 502.039 L219.977 502.039 L219.977 505.974 L200.07 505.974 L200.07 502.039 Z" fill="#000000" fill-rule="nonzero" fill-opacity="1" /><path clip-path="url(#clip360)" d="M239.422 474.493 Q235.81 474.493 233.982 478.057 Q232.176 481.599 232.176 488.729 Q232.176 495.835 233.982 499.4 Q235.81 502.942 239.422 502.942 Q243.056 502.942 244.861 499.4 Q246.69 495.835 246.69 488.729 Q246.69 481.599 244.861 478.057 Q243.056 474.493 239.422 474.493 M239.422 470.789 Q245.232 470.789 248.287 475.395 Q251.366 479.979 251.366 488.729 Q251.366 497.455 248.287 502.062 Q245.232 506.645 239.422 506.645 Q233.611 506.645 230.533 502.062 Q227.477 497.455 227.477 488.729 Q227.477 479.979 230.533 475.395 Q233.611 470.789 239.422 470.789 Z" fill="#000000" fill-rule="nonzero" fill-opacity="1" /><path clip-path="url(#clip360)" d="M165.024 249.679 Q161.413 249.679 159.584 253.244 Q157.778 256.786 157.778 263.915 Q157.778 271.022 159.584 274.587 Q161.413 278.128 165.024 278.128 Q168.658 278.128 170.464 274.587 Q172.292 271.022 172.292 263.915 Q172.292 256.786 170.464 253.244 Q168.658 249.679 165.024 249.679 M165.024 245.976 Q170.834 245.976 173.889 250.582 Q176.968 255.165 176.968 263.915 Q176.968 272.642 173.889 277.249 Q170.834 281.832 165.024 281.832 Q159.214 281.832 156.135 277.249 Q153.079 272.642 153.079 263.915 Q153.079 255.165 156.135 250.582 Q159.214 245.976 165.024 245.976 Z" fill="#000000" fill-rule="nonzero" fill-opacity="1" /><path clip-path="url(#clip360)" d="M185.186 275.281 L190.07 275.281 L190.07 281.161 L185.186 281.161 L185.186 275.281 Z" fill="#000000" fill-rule="nonzero" fill-opacity="1" /><path clip-path="url(#clip360)" d="M201.065 277.225 L208.704 277.225 L208.704 250.86 L200.394 252.527 L200.394 248.267 L208.658 246.601 L213.334 246.601 L213.334 277.225 L220.973 277.225 L220.973 281.161 L201.065 281.161 L201.065 277.225 Z" fill="#000000" fill-rule="nonzero" fill-opacity="1" /><path clip-path="url(#clip360)" d="M230.463 246.601 L248.82 246.601 L248.82 250.536 L234.746 250.536 L234.746 259.008 Q235.764 258.661 236.783 258.499 Q237.801 258.314 238.82 258.314 Q244.607 258.314 247.986 261.485 Q251.366 264.656 251.366 270.073 Q251.366 275.651 247.894 278.753 Q244.421 281.832 238.102 281.832 Q235.926 281.832 233.658 281.462 Q231.412 281.091 229.005 280.35 L229.005 275.651 Q231.088 276.786 233.31 277.341 Q235.533 277.897 238.009 277.897 Q242.014 277.897 244.352 275.79 Q246.69 273.684 246.69 270.073 Q246.69 266.462 244.352 264.355 Q242.014 262.249 238.009 262.249 Q236.135 262.249 234.26 262.665 Q232.408 263.082 230.463 263.962 L230.463 246.601 Z" fill="#000000" fill-rule="nonzero" fill-opacity="1" /><path clip-path="url(#clip360)" d="M20.8447 823.791 Q20.8447 830.793 26.0645 834.931 Q31.2844 839.037 40.2919 839.037 Q49.2675 839.037 54.4874 834.931 Q59.7073 830.793 59.7073 823.791 Q59.7073 816.788 54.4874 812.714 Q49.2675 808.609 40.2919 808.609 Q31.2844 808.609 26.0645 812.714 Q20.8447 816.788 20.8447 823.791 M15.6248 823.791 Q15.6248 813.797 22.3406 807.813 Q29.0246 801.829 40.2919 801.829 Q51.5274 801.829 58.2432 807.813 Q64.9272 813.797 64.9272 823.791 Q64.9272 833.817 58.2432 839.832 Q51.5592 845.816 40.2919 845.816 Q29.0246 845.816 22.3406 839.832 Q15.6248 833.817 15.6248 823.791 Z" fill="#000000" fill-rule="nonzero" fill-opacity="1" /><path clip-path="url(#clip360)" d="M49.9359 792.631 L28.3562 792.631 L28.3562 786.774 L49.7131 786.774 Q54.7739 786.774 57.3202 784.801 Q59.8346 782.827 59.8346 778.881 Q59.8346 774.138 56.8109 771.401 Q53.7872 768.632 48.5673 768.632 L28.3562 768.632 L28.3562 762.775 L64.0042 762.775 L64.0042 768.632 L58.5296 768.632 Q61.7762 770.764 63.3676 773.597 Q64.9272 776.398 64.9272 780.122 Q64.9272 786.265 61.1078 789.448 Q57.2883 792.631 49.9359 792.631 M27.4968 777.894 L27.4968 777.894 Z" fill="#000000" fill-rule="nonzero" fill-opacity="1" /><path clip-path="url(#clip360)" d="M18.2347 744.92 L28.3562 744.92 L28.3562 732.857 L32.9077 732.857 L32.9077 744.92 L52.2594 744.92 Q56.6199 744.92 57.8613 743.742 Q59.1026 742.533 59.1026 738.872 L59.1026 732.857 L64.0042 732.857 L64.0042 738.872 Q64.0042 745.652 61.4897 748.23 Q58.9434 750.808 52.2594 750.808 L32.9077 750.808 L32.9077 755.105 L28.3562 755.105 L28.3562 750.808 L18.2347 750.808 L18.2347 744.92 Z" fill="#000000" fill-rule="nonzero" fill-opacity="1" /><path clip-path="url(#clip360)" d="M58.657 719.489 L77.5631 719.489 L77.5631 725.377 L28.3562 725.377 L28.3562 719.489 L33.7671 719.489 Q30.5842 717.643 29.0564 714.842 Q27.4968 712.009 27.4968 708.094 Q27.4968 701.601 32.6531 697.559 Q37.8093 693.485 46.212 693.485 Q54.6147 693.485 59.771 697.559 Q64.9272 701.601 64.9272 708.094 Q64.9272 712.009 63.3994 714.842 Q61.8398 717.643 58.657 719.489 M46.212 699.564 Q39.7508 699.564 36.0905 702.238 Q32.3984 704.879 32.3984 709.526 Q32.3984 714.173 36.0905 716.847 Q39.7508 719.489 46.212 719.489 Q52.6732 719.489 56.3653 716.847 Q60.0256 714.173 60.0256 709.526 Q60.0256 704.879 56.3653 702.238 Q52.6732 699.564 46.212 699.564 Z" fill="#000000" fill-rule="nonzero" fill-opacity="1" /><path clip-path="url(#clip360)" d="M49.9359 684.382 L28.3562 684.382 L28.3562 678.525 L49.7131 678.525 Q54.7739 678.525 57.3202 676.552 Q59.8346 674.579 59.8346 670.632 Q59.8346 665.889 56.8109 663.152 Q53.7872 660.383 48.5673 660.383 L28.3562 660.383 L28.3562 654.527 L64.0042 654.527 L64.0042 660.383 L58.5296 660.383 Q61.7762 662.516 63.3676 665.348 Q64.9272 668.149 64.9272 671.873 Q64.9272 678.016 61.1078 681.199 Q57.2883 684.382 49.9359 684.382 M27.4968 669.645 L27.4968 669.645 Z" fill="#000000" fill-rule="nonzero" fill-opacity="1" /><path clip-path="url(#clip360)" d="M18.2347 636.671 L28.3562 636.671 L28.3562 624.608 L32.9077 624.608 L32.9077 636.671 L52.2594 636.671 Q56.6199 636.671 57.8613 635.493 Q59.1026 634.284 59.1026 630.623 L59.1026 624.608 L64.0042 624.608 L64.0042 630.623 Q64.0042 637.403 61.4897 639.981 Q58.9434 642.559 52.2594 642.559 L32.9077 642.559 L32.9077 646.856 L28.3562 646.856 L28.3562 642.559 L18.2347 642.559 L18.2347 636.671 Z" fill="#000000" fill-rule="nonzero" fill-opacity="1" /><polyline clip-path="url(#clip362)" style="stroke:#009af9; stroke-linecap:round; stroke-linejoin:round; stroke-width:4; stroke-opacity:1; fill:none" points="345.82,938.321 349.725,938.321 353.63,938.321 353.63,982.764 357.535,982.764 357.535,1025.9 361.439,1025.9 361.439,1067.34 365.344,1067.34 365.344,1106.76 369.249,1106.76 369.249,1143.87 373.154,1143.87 373.154,1089.52 377.059,1089.52 377.059,1035.04 380.963,1035.04 380.963,981.052 384.868,981.052 384.868,928.154 388.773,928.154 388.773,876.911 392.678,876.911 392.678,827.844 396.582,827.844 396.582,781.418 400.487,781.418 400.487,738.038 404.392,738.038 404.392,698.043 408.297,698.043 408.297,661.696 412.201,661.696 412.201,718.074 416.106,718.074 416.106,775.784 420.011,775.784 420.011,834.106 423.916,834.106 423.916,892.323 427.821,892.323 427.821,949.737 431.725,949.737 431.725,916.796 435.63,916.796 435.63,884.384 439.535,884.384 439.535,852.69 443.44,852.69 443.44,821.89 447.344,821.89 447.344,792.141 451.249,792.141 451.249,763.578 455.154,763.578 455.154,736.313 459.059,736.313 459.059,710.434 462.963,710.434 462.963,686.002 466.868,686.002 466.868,663.055 470.773,663.055 470.773,641.6 474.678,641.6 474.678,621.621 478.583,621.621 478.583,603.078 482.487,603.078 482.487,585.906 486.392,585.906 486.392,570.02 490.297,570.02 490.297,644.201 494.202,644.201 494.202,716.826 498.106,716.826 498.106,787.001 502.011,787.001 502.011,853.907 505.916,853.907 505.916,916.804 509.821,916.804 509.821,886.166 513.726,886.166 513.726,852.959 517.63,852.959 517.63,817.518 521.535,817.518 521.535,780.215 525.44,780.215 525.44,741.451 529.345,741.451 529.345,790.533 533.249,790.533 533.249,836.393 537.154,836.393 537.154,878.709 541.059,878.709 541.059,917.235 544.964,917.235 544.964,951.804 548.868,951.804 548.868,893.437 552.773,893.437 552.773,833.626 556.678,833.626 556.678,773.191 560.583,773.191 560.583,712.942 564.488,712.942 564.488,653.669 568.392,653.669 568.392,685.005 572.297,685.005 572.297,716.145 576.202,716.145 576.202,746.963 580.107,746.963 580.107,777.34 584.011,777.34 584.011,807.164 587.916,807.164 587.916,747.448 591.821,747.448 591.821,689.605 595.726,689.605 595.726,634.313 599.631,634.313 599.631,582.185 603.535,582.185 603.535,533.756 607.44,533.756 607.44,489.479 611.345,489.479 611.345,449.714 615.25,449.714 615.25,414.726 619.154,414.726 619.154,384.681 623.059,384.681 623.059,359.647 626.964,359.647 626.964,428.484 630.869,428.484 630.869,499.563 634.773,499.563 634.773,571.919 638.678,571.919 638.678,644.582 642.583,644.582 642.583,716.602 646.488,716.602 646.488,698.176 650.393,698.176 650.393,679.949 654.297,679.949 654.297,661.882 658.202,661.882 658.202,643.94 662.107,643.94 662.107,626.092 666.012,626.092 666.012,697.192 669.916,697.192 669.916,765.712 673.821,765.712 673.821,830.87 677.726,830.87 677.726,891.972 681.631,891.972 681.631,948.419 685.535,948.419 685.535,910.828 689.44,910.828 689.44,870.32 693.345,870.32 693.345,827.384 697.25,827.384 697.25,782.544 701.155,782.544 701.155,736.354 705.059,736.354 705.059,778.264 708.964,778.264 708.964,817.338 712.869,817.338 712.869,853.379 716.774,853.379 716.774,886.249 720.678,886.249 720.678,915.874 724.583,915.874 724.583,853.354 728.488,853.354 728.488,790.238 732.393,790.238 732.393,727.387 736.298,727.387 736.298,665.633 740.202,665.633 740.202,605.769 744.107,605.769 744.107,548.528 748.012,548.528 748.012,494.576 751.917,494.576 751.917,444.497 755.821,444.497 755.821,398.785 759.726,398.785 759.726,357.84 763.631,357.84 763.631,410.842 767.536,410.842 767.536,466.479 771.44,466.479 771.44,524.081 775.345,524.081 775.345,582.952 779.25,582.952 779.25,642.388 783.155,642.388 783.155,701.692 787.06,701.692 787.06,760.18 790.964,760.18 790.964,817.205 794.869,817.205 794.869,872.16 798.774,872.16 798.774,924.493 802.679,924.493 802.679,884.829 806.583,884.829 806.583,844.253 810.488,844.253 810.488,803.183 814.393,803.183 814.393,762.036 818.298,762.036 818.298,721.223 822.202,721.223 822.202,770.026 826.107,770.026 826.107,817.315 830.012,817.315 830.012,862.678 833.917,862.678 833.917,905.749 837.822,905.749 837.822,946.213 841.726,946.213 841.726,983.81 845.631,983.81 845.631,1018.34 849.536,1018.34 849.536,1049.67 853.441,1049.67 853.441,1077.71 857.345,1077.71 857.345,1102.47 861.25,1102.47 861.25,1035.09 865.155,1035.09 865.155,967.189 869.06,967.189 869.06,899.685 872.965,899.685 872.965,833.464 876.869,833.464 876.869,769.365 880.774,769.365 880.774,797.05 884.679,797.05 884.679,825.717 888.584,825.717 888.584,855.222 892.488,855.222 892.488,885.406 896.393,885.406 896.393,916.096 900.298,916.096 900.298,858.223 904.203,858.223 904.203,803.104 908.107,803.104 908.107,751.307 912.012,751.307 912.012,703.323 915.917,703.323 915.917,659.557 919.822,659.557 919.822,709.209 923.727,709.209 923.727,760.995 927.631,760.995 927.631,814.282 931.536,814.282 931.536,868.422 935.441,868.422 935.441,922.766 939.346,922.766 939.346,887.787 943.25,887.787 943.25,854.375 947.155,854.375 947.155,822.704 951.06,822.704 951.06,792.915 954.965,792.915 954.965,765.112 958.87,765.112 958.87,739.361 962.774,739.361 962.774,715.688 966.679,715.688 966.679,694.084 970.584,694.084 970.584,674.503 974.489,674.503 974.489,656.864 978.393,656.864 978.393,729.941 982.298,729.941 982.298,802.088 986.203,802.088 986.203,872.382 990.108,872.382 990.108,939.959 994.012,939.959 994.012,1004.03 997.917,1004.03 997.917,1063.89 1001.82,1063.89 1001.82,1118.94 1005.73,1118.94 1005.73,1168.69 1009.63,1168.69 1009.63,1212.75 1013.54,1212.75 1013.54,1250.86 1017.44,1250.86 1017.44,1193.99 1021.35,1193.99 1021.35,1133.63 1025.25,1133.63 1025.25,1070.63 1029.16,1070.63 1029.16,1005.87 1033.06,1005.87 1033.06,940.251 1036.96,940.251 1036.96,963.545 1040.87,963.545 1040.87,985.117 1044.77,985.117 1044.77,1005.04 1048.68,1005.04 1048.68,1023.41 1052.58,1023.41 1052.58,1040.35 1056.49,1040.35 1056.49,1056 1060.39,1056 1060.39,1070.52 1064.3,1070.52 1064.3,1084.07 1068.2,1084.07 1068.2,1096.85 1072.11,1096.85 1072.11,1109.04 1076.01,1109.04 1076.01,1031.94 1079.92,1031.94 1079.92,957.237 1083.82,957.237 1083.82,885.878 1087.73,885.878 1087.73,818.71 1091.63,818.71 1091.63,756.48 1095.54,756.48 1095.54,699.82 1099.44,699.82 1099.44,649.238 1103.35,649.238 1103.35,605.113 1107.25,605.113 1107.25,567.689 1111.16,567.689 1111.16,537.075 1115.06,537.075 1115.06,513.249 1118.97,513.249 1118.97,496.058 1122.87,496.058 1122.87,485.228 1126.77,485.228 1126.77,480.373 1130.68,480.373 1130.68,481.004 1134.58,481.004 1134.58,575.429 1138.49,575.429 1138.49,671.491 1142.39,671.491 1142.39,767.717 1146.3,767.717 1146.3,862.674 1150.2,862.674 1150.2,954.988 1154.11,954.988 1154.11,1043.37 1158.01,1043.37 1158.01,1126.66 1161.92,1126.66 1161.92,1203.8 1165.82,1203.8 1165.82,1273.9 1169.73,1273.9 1169.73,1336.23 1173.63,1336.23 1173.63,1301.33 1177.54,1301.33 1177.54,1260.32 1181.44,1260.32 1181.44,1213.74 1185.35,1213.74 1185.35,1162.25 1189.25,1162.25 1189.25,1106.56 1193.16,1106.56 1193.16,1136.36 1197.06,1136.36 1197.06,1160.98 1200.97,1160.98 1200.97,1180.54 1204.87,1180.54 1204.87,1195.24 1208.77,1195.24 1208.77,1205.36 1212.68,1205.36 1212.68,1211.28 1216.58,1211.28 1216.58,1213.44 1220.49,1213.44 1220.49,1212.31 1224.39,1212.31 1224.39,1208.44 1228.3,1208.44 1228.3,1202.41 1232.2,1202.41 1232.2,1194.79 1236.11,1194.79 1236.11,1186.2 1240.01,1186.2 1240.01,1177.24 1243.92,1177.24 1243.92,1168.48 1247.82,1168.48 1247.82,1160.5 1251.73,1160.5 1251.73,1064.92 1255.63,1064.92 1255.63,973.735 1259.54,973.735 1259.54,888.124 1263.44,888.124 1263.44,809.131 1267.35,809.131 1267.35,737.644 1271.25,737.644 1271.25,763.267 1275.16,763.267 1275.16,795.035 1279.06,795.035 1279.06,832.548 1282.97,832.548 1282.97,875.299 1286.87,875.299 1286.87,922.691 1290.78,922.691 1290.78,885.161 1294.68,885.161 1294.68,853.476 1298.58,853.476 1298.58,827.611 1302.49,827.611 1302.49,807.428 1306.39,807.428 1306.39,792.692 1310.3,792.692 1310.3,783.067 1314.2,783.067 1314.2,778.134 1318.11,778.134 1318.11,777.398 1322.01,777.398 1322.01,780.3 1325.92,780.3 1325.92,786.232 1329.82,786.232 1329.82,794.546 1333.73,794.546 1333.73,804.574 1337.63,804.574 1337.63,815.635 1341.54,815.635 1341.54,827.056 1345.44,827.056 1345.44,838.177 1349.35,838.177 1349.35,848.371 1353.25,848.371 1353.25,857.049 1357.16,857.049 1357.16,863.675 1361.06,863.675 1361.06,867.775 1364.97,867.775 1364.97,868.938 1368.87,868.938 1368.87,955.718 1372.78,955.718 1372.78,1036.35 1376.68,1036.35 1376.68,1109.91 1380.58,1109.91 1380.58,1175.62 1384.49,1175.62 1384.49,1232.89 1388.39,1232.89 1388.39,1281.29 1392.3,1281.29 1392.3,1320.6 1396.2,1320.6 1396.2,1350.75 1400.11,1350.75 1400.11,1371.86 1404.01,1371.86 1404.01,1384.24 1407.92,1384.24 1407.92,1299.44 1411.82,1299.44 1411.82,1209.56 1415.73,1209.56 1415.73,1116.1 1419.63,1116.1 1419.63,1020.55 1423.54,1020.55 1423.54,924.437 1427.44,924.437 1427.44,918.131 1431.35,918.131 1431.35,911.555 1435.25,911.555 1435.25,905.293 1439.16,905.293 1439.16,899.905 1443.06,899.905 1443.06,895.908 1446.97,895.908 1446.97,804.891 1450.87,804.891 1450.87,718.775 1454.78,718.775 1454.78,638.674 1458.68,638.674 1458.68,565.553 1462.59,565.553 1462.59,500.218 1466.49,500.218 1466.49,532.186 1470.39,532.186 1470.39,570.405 1474.3,570.405 1474.3,614.387 1478.2,614.387 1478.2,663.54 1482.11,663.54 1482.11,717.183 1486.01,717.183 1486.01,774.562 1489.92,774.562 1489.92,834.869 1493.82,834.869 1493.82,897.257 1497.73,897.257 1497.73,960.86 1501.63,960.86 1501.63,1024.81 1505.54,1024.81 1505.54,1088.25 1509.44,1088.25 1509.44,1150.35 1513.35,1150.35 1513.35,1210.35 1517.25,1210.35 1517.25,1267.52 1521.16,1267.52 1521.16,1321.21 1525.06,1321.21 1525.06,1282 1528.97,1282 1528.97,1240.9 1532.87,1240.9 1532.87,1198.3 1536.78,1198.3 1536.78,1154.63 1540.68,1154.63 1540.68,1110.29 1544.59,1110.29 1544.59,1154.61 1548.49,1154.61 1548.49,1196.5 1552.39,1196.5 1552.39,1235.62 1556.3,1235.62 1556.3,1271.69 1560.2,1271.69 1560.2,1304.49 1564.11,1304.49 1564.11,1244.99 1568.01,1244.99 1568.01,1184.59 1571.92,1184.59 1571.92,1124.05 1575.82,1124.05 1575.82,1064.09 1579.73,1064.09 1579.73,1005.4 1583.63,1005.4 1583.63,1037.54 1587.54,1037.54 1587.54,1069.59 1591.44,1069.59 1591.44,1101.35 1595.35,1101.35 1595.35,1132.6 1599.25,1132.6 1599.25,1163.15 1603.16,1163.15 1603.16,1192.83 1607.06,1192.83 1607.06,1221.45 1610.97,1221.45 1610.97,1248.9 1614.87,1248.9 1614.87,1275.04 1618.78,1275.04 1618.78,1299.79 1622.68,1299.79 1622.68,1234.2 1626.59,1234.2 1626.59,1169.73 1630.49,1169.73 1630.49,1107.13 1634.4,1107.13 1634.4,1047.09 1638.3,1047.09 1638.3,990.229 1642.2,990.229 1642.2,937.103 1646.11,937.103 1646.11,888.173 1650.01,888.173 1650.01,843.813 1653.92,843.813 1653.92,804.299 1657.82,804.299 1657.82,769.808 1661.73,769.808 1661.73,829.304 1665.63,829.304 1665.63,891.262 1669.54,891.262 1669.54,954.81 1673.44,954.81 1673.44,1019.07 1677.35,1019.07 1677.35,1083.16 1681.25,1083.16 1681.25,1057.35 1685.16,1057.35 1685.16,1032.34 1689.06,1032.34 1689.06,1008.13 1692.97,1008.13 1692.97,984.708 1696.87,984.708 1696.87,962.068 1700.78,962.068 1700.78,940.178 1704.68,940.178 1704.68,919.001 1708.59,919.001 1708.59,898.49 1712.49,898.49 1712.49,878.594 1716.4,878.594 1716.4,859.252 1720.3,859.252 1720.3,840.402 1724.2,840.402 1724.2,821.976 1728.11,821.976 1728.11,803.904 1732.01,803.904 1732.01,786.115 1735.92,786.115 1735.92,768.541 1739.82,768.541 1739.82,751.113 1743.73,751.113 1743.73,733.767 1747.63,733.767 1747.63,716.442 1751.54,716.442 1751.54,699.084 1755.44,699.084 1755.44,681.644 1759.35,681.644 1759.35,752.965 1763.25,752.965 1763.25,821.511 1767.16,821.511 1767.16,886.496 1771.06,886.496 1771.06,947.227 1774.97,947.227 1774.97,1003.11 1778.87,1003.11 1778.87,1053.65 1782.78,1053.65 1782.78,1098.48 1786.68,1098.48 1786.68,1137.35 1790.59,1137.35 1790.59,1170.13 1794.49,1170.13 1794.49,1196.79 1798.4,1196.79 1798.4,1128.55 1802.3,1128.55 1802.3,1057.14 1806.2,1057.14 1806.2,983.625 1810.11,983.625 1810.11,909.089 1814.01,909.089 1814.01,834.615 1817.92,834.615 1817.92,761.252 1821.82,761.252 1821.82,690.001 1825.73,690.001 1825.73,621.797 1829.63,621.797 1829.63,557.491 1833.54,557.491 1833.54,497.835 1837.44,497.835 1837.44,443.472 1841.35,443.472 1841.35,394.927 1845.25,394.927 1845.25,352.598 1849.16,352.598 1849.16,316.752 1853.06,316.752 1853.06,287.525 1856.97,287.525 1856.97,264.923 1860.87,264.923 1860.87,248.824 1864.78,248.824 1864.78,238.988 1868.68,238.988 1868.68,235.059 1872.59,235.059 1872.59,236.581 1876.49,236.581 1876.49,331.894 1880.4,331.894 1880.4,428.87 1884.3,428.87 1884.3,526.067 1888.21,526.067 1888.21,622.075 1892.11,622.075 1892.11,715.545 1896.01,715.545 1896.01,716.327 1899.92,716.327 1899.92,714.766 1903.82,714.766 1903.82,710.59 1907.73,710.59 1907.73,703.587 1911.63,703.587 1911.63,693.615 1915.54,693.615 1915.54,769.479 1919.44,769.479 1919.44,839.663 1923.35,839.663 1923.35,903.461 1927.25,903.461 1927.25,960.31 1931.16,960.31 1931.16,1009.79 1935.06,1009.79 1935.06,962.764 1938.97,962.764 1938.97,910.613 1942.87,910.613 1942.87,854.139 1946.78,854.139 1946.78,794.203 1950.68,794.203 1950.68,731.715 1954.59,731.715 1954.59,667.61 1958.49,667.61 1958.49,602.833 1962.4,602.833 1962.4,538.315 1966.3,538.315 1966.3,474.96 1970.21,474.96 1970.21,413.626 1974.11,413.626 1974.11,355.109 1978.01,355.109 1978.01,300.129 1981.92,300.129 1981.92,249.319 1985.82,249.319 1985.82,203.215 1989.73,203.215 1989.73,162.247 1993.63,162.247 1993.63,215.623 1997.54,215.623 1997.54,272.045 2001.44,272.045 2001.44,330.847 2005.35,330.847 2005.35,391.334 2009.25,391.334 2009.25,452.791 2013.16,452.791 2013.16,425.613 2017.06,425.613 2017.06,400.598 2020.97,400.598 2020.97,377.822 2024.87,377.822 2024.87,357.316 2028.78,357.316 2028.78,339.07 2032.68,339.07 2032.68,323.034 2036.59,323.034 2036.59,309.119 2040.49,309.119 2040.49,297.199 2044.4,297.199 2044.4,287.118 2048.3,287.118 2048.3,278.689 2052.21,278.689 2052.21,271.705 2056.11,271.705 2056.11,265.937 2060.02,265.937 2060.02,261.142 2063.92,261.142 2063.92,257.071 2067.82,257.071 2067.82,253.468 2071.73,253.468 2071.73,338.966 2075.63,338.966 2075.63,421.815 2079.54,421.815 2079.54,501.021 2083.44,501.021 2083.44,575.687 2087.35,575.687 2087.35,645.026 2091.25,645.026 2091.25,619.488 2095.16,619.488 2095.16,590.044 2099.06,590.044 2099.06,557.059 2102.97,557.059 2102.97,520.956 2106.87,520.956 2106.87,482.215 2110.78,482.215 2110.78,530.24 2114.68,530.24 2114.68,574.073 2118.59,574.073 2118.59,613.526 2122.49,613.526 2122.49,648.493 2126.4,648.493 2126.4,678.955 2130.3,678.955 2130.3,704.978 2134.21,704.978 2134.21,726.706 2138.11,726.706 2138.11,744.361 2142.02,744.361 2142.02,758.231 2145.92,758.231 2145.92,768.665 2149.82,768.665 2149.82,687.179 2153.73,687.179 2153.73,605.723 2157.63,605.723 2157.63,525.529 2161.54,525.529 2161.54,447.774 2165.44,447.774 2165.44,373.557 2169.35,373.557 2169.35,303.876 2173.25,303.876 2173.25,239.614 2177.16,239.614 2177.16,181.527 2181.06,181.527 2181.06,130.229 2184.97,130.229 2184.97,86.1857 2188.87,86.1857 2188.87,138.596 2192.78,138.596 2192.78,196.114 2196.68,196.114 2196.68,257.988 2200.59,257.988 2200.59,323.396 2204.49,323.396 2204.49,391.468 2208.4,391.468 2208.4,461.301 2212.3,461.301 2212.3,531.978 2216.21,531.978 2216.21,602.589 2220.11,602.589 2220.11,672.246 2224.02,672.246 2224.02,740.101 2227.92,740.101 2227.92,805.363 2231.83,805.363 2231.83,867.309 2235.73,867.309 2235.73,925.299 2239.63,925.299 2239.63,978.783 2243.54,978.783 2243.54,1027.31 2247.44,1027.31 2247.44,981.662 2251.35,981.662 2251.35,933.1 2255.25,933.1 2255.25,882.262 2259.16,882.262 2259.16,829.813 2263.06,829.813 2263.06,776.435 2266.97,776.435 2266.97,811.697 2270.87,811.697 2270.87,844.767 2274.78,844.767 2274.78,875.535 2278.68,875.535 2278.68,903.935 2282.59,903.935 2282.59,929.946 2286.49,929.946 2286.49,953.589 2290.4,953.589 2290.4,974.925 2294.3,974.925 2294.3,994.058 "/>
<polyline clip-path="url(#clip362)" style="stroke:#e26f46; stroke-linecap:round; stroke-linejoin:round; stroke-width:4; stroke-opacity:1; fill:none" points="345.82,857.616 349.725,900.087 353.63,946.09 357.535,994.719 361.439,1045.05 365.344,1132.13 369.249,1098.95 373.154,1063.14 377.059,1025.31 380.963,986.086 384.868,946.086 388.773,905.927 392.678,866.193 396.582,827.433 400.487,790.145 404.392,718.794 408.297,769.887 412.201,825.235 416.106,883.68 420.011,944.046 423.916,1041.15 427.821,1017.72 431.725,991.215 435.63,962.033 439.535,930.636 443.44,897.511 447.344,863.164 451.249,828.104 455.154,792.833 459.059,757.834 462.963,723.557 466.868,690.418 470.773,658.781 474.678,628.961 478.583,601.214 482.487,539.76 486.392,600.868 490.297,666.117 494.202,734.132 498.106,803.542 502.011,908.984 505.916,893.053 509.821,873.063 513.726,849.336 517.63,822.266 521.535,756.336 525.44,808.185 529.345,859.854 533.249,910.511 537.154,959.39 541.059,1041.78 544.964,1000.94 548.868,954.878 552.773,904.589 556.678,851.123 560.583,759.578 564.488,787.158 568.392,816.411 572.297,846.941 576.202,878.34 580.107,946.172 584.011,893.9 587.916,839.634 591.821,784.4 595.726,729.197 599.631,674.974 603.535,622.608 607.44,572.889 611.345,526.505 615.25,484.031 619.154,409.95 623.059,460.724 626.964,518.066 630.869,580.669 634.773,647.167 638.678,752.144 642.583,738.084 646.488,722.142 650.393,704.437 654.297,685.126 658.202,628.424 662.107,690.679 666.012,753.632 669.916,816.143 673.821,877.141 677.726,971.614 681.631,942.554 685.535,907.699 689.44,867.817 693.345,823.756 697.25,740.447 701.155,774.965 705.059,809.764 708.964,844.392 712.869,878.423 716.774,947.439 720.678,894.954 724.583,839.157 728.488,781.184 732.393,722.166 736.298,663.2 740.202,605.328 744.107,549.515 748.012,496.628 751.917,447.42 755.821,366.55 759.726,410.65 763.631,461.587 767.536,518.197 771.44,579.24 775.345,643.432 779.25,709.479 783.155,776.109 787.06,842.099 790.964,906.302 794.869,1003.65 798.774,977.066 802.679,944.262 806.583,905.973 810.488,863.031 814.393,780.364 818.298,815.052 822.202,849.57 826.107,883.492 830.012,916.431 833.917,948.037 837.822,978.011 841.726,1006.11 845.631,1032.13 849.536,1055.95 853.441,1113.47 857.345,1048.52 861.25,979.641 865.155,908.292 869.06,835.929 872.965,727.984 876.869,741.917 880.774,760.455 884.679,783.3 888.584,810.068 892.488,876.272 896.393,825.256 900.298,774.948 904.203,726.137 908.107,679.542 912.012,599.818 915.917,643.629 919.822,692.912 923.727,746.594 927.631,803.557 931.536,898.63 935.441,874.543 939.346,848.683 943.25,821.39 947.155,793.02 951.06,763.939 954.965,734.511 958.87,705.091 962.774,676.019 966.679,647.608 970.584,584.168 974.489,642.084 978.393,703.072 982.298,765.914 986.203,829.41 990.108,892.403 994.012,953.806 997.917,1012.62 1001.82,1067.97 1005.73,1119.1 1009.63,1201.35 1013.54,1158.12 1017.44,1107.56 1021.35,1050.9 1025.25,989.417 1029.16,888.48 1033.06,905.582 1036.96,923.569 1040.87,942.347 1044.77,961.806 1048.68,981.824 1052.58,1002.27 1056.49,1023.01 1060.39,1043.91 1064.3,1064.84 1068.2,1121.63 1072.11,1058.03 1076.01,992.424 1079.92,926.092 1083.82,860.273 1087.73,796.13 1091.63,734.73 1095.54,677.019 1099.44,623.81 1103.35,575.769 1107.25,533.407 1111.16,497.074 1115.06,466.963 1118.97,443.108 1122.87,425.397 1126.77,377.605 1130.68,455.492 1134.58,540.079 1138.49,629.402 1142.39,721.485 1146.3,814.387 1150.2,906.242 1154.11,995.307 1158.01,1079.99 1161.92,1158.89 1165.82,1266.77 1169.73,1246.54 1173.63,1215.93 1177.54,1175.85 1181.44,1127.36 1185.35,1035.71 1189.25,1058.35 1193.16,1078.19 1197.06,1095.29 1200.97,1109.75 1204.87,1121.74 1208.77,1131.48 1212.68,1139.21 1216.58,1145.23 1220.49,1149.85 1224.39,1153.4 1228.3,1156.21 1232.2,1158.63 1236.11,1160.97 1240.01,1163.56 1243.92,1202.63 1247.82,1122.33 1251.73,1041.37 1255.63,961.316 1259.54,883.644 1263.44,773.722 1267.35,788.872 1271.25,811.613 1275.16,841.383 1279.06,877.476 1282.97,955.05 1286.87,917.059 1290.78,881.023 1294.68,847.317 1298.58,816.243 1302.49,788.026 1306.39,762.815 1310.3,740.678 1314.2,721.611 1318.11,705.538 1322.01,692.317 1325.92,681.746 1329.82,673.575 1333.73,667.508 1337.63,663.217 1341.54,660.35 1345.44,658.541 1349.35,657.417 1353.25,656.612 1357.16,655.769 1361.06,618.583 1364.97,700.88 1368.87,783.896 1372.78,866.01 1376.68,945.705 1380.58,1021.6 1384.49,1092.46 1388.39,1157.26 1392.3,1215.13 1396.2,1265.45 1400.11,1343.74 1404.01,1293.67 1407.92,1233.69 1411.82,1165.37 1415.73,1090.39 1419.63,974.532 1423.54,975.713 1427.44,977.206 1431.35,979.337 1435.25,982.395 1439.16,1022.61 1443.06,944.05 1446.97,865.378 1450.87,788.095 1454.78,713.595 1458.68,607.164 1462.59,626.036 1466.49,652.644 1470.39,686.338 1474.3,726.329 1478.2,771.722 1482.11,821.536 1486.01,874.736 1489.92,930.257 1493.82,987.033 1497.73,1044.02 1501.63,1100.23 1505.54,1154.72 1509.44,1206.67 1513.35,1255.32 1517.25,1336.04 1521.16,1292.18 1525.06,1241.87 1528.97,1186.24 1532.87,1126.51 1536.78,1027.95 1540.68,1047.96 1544.59,1069.26 1548.49,1091.66 1552.39,1114.93 1556.3,1174.8 1560.2,1114.91 1564.11,1053.49 1568.01,991.715 1571.92,930.679 1575.82,835.443 1579.73,863.081 1583.63,895.929 1587.54,933.305 1591.44,974.454 1595.35,1018.57 1599.25,1064.81 1603.16,1112.34 1607.06,1160.31 1610.97,1207.93 1614.87,1290.41 1618.78,1250.93 1622.68,1207.36 1626.59,1160.55 1630.49,1111.41 1634.4,1060.82 1638.3,1009.69 1642.2,958.87 1646.11,909.17 1650.01,861.335 1653.92,780.053 1657.82,822.03 1661.73,869.243 1665.63,920.671 1669.54,975.242 1673.44,1067.84 1677.35,1041.23 1681.25,1012.87 1685.16,983.129 1689.06,952.409 1692.97,921.113 1696.87,889.638 1700.78,858.367 1704.68,827.657 1708.59,797.838 1712.49,769.202 1716.4,741.999 1720.3,716.435 1724.2,692.665 1728.11,670.798 1732.01,650.891 1735.92,632.956 1739.82,616.956 1743.73,602.812 1747.63,590.408 1751.54,543.619 1755.44,618.401 1759.35,696.061 1763.25,774.995 1767.16,853.65 1771.06,930.558 1774.97,1004.37 1778.87,1073.86 1782.78,1138 1786.68,1195.91 1790.59,1282.88 1794.49,1242.31 1798.4,1192.38 1802.3,1134.41 1806.2,1069.81 1810.11,1000.09 1814.01,926.798 1817.92,851.497 1821.82,775.712 1825.73,700.906 1829.63,628.443 1833.54,559.565 1837.44,495.365 1841.35,436.77 1845.25,384.532 1849.16,339.209 1853.06,301.174 1856.97,270.605 1860.87,247.498 1864.78,231.671 1868.68,186.811 1872.59,268.564 1876.49,357.826 1880.4,452.492 1884.3,550.437 1888.21,685.539 1892.11,699.642 1896.01,709.344 1899.92,714.291 1903.82,714.263 1907.73,673.199 1911.63,747.269 1915.54,818.138 1919.44,884.685 1923.35,945.948 1927.25,1037.11 1931.16,1001.43 1935.06,956.979 1938.97,904.911 1942.87,846.504 1946.78,783.118 1950.68,716.165 1954.59,647.07 1958.49,577.237 1962.4,508.017 1966.3,440.678 1970.21,376.38 1974.11,316.151 1978.01,260.875 1981.92,211.271 1985.82,131.916 1989.73,179.323 1993.63,235.203 1997.54,298.201 2001.44,366.867 2005.35,475.657 2009.25,466.9 2013.16,457.565 2017.06,447.565 2020.97,436.835 2024.87,425.331 2028.78,413.031 2032.68,399.935 2036.59,386.061 2040.49,371.449 2044.4,356.151 2048.3,340.239 2052.21,323.792 2056.11,306.902 2060.02,289.666 2063.92,236.215 2067.82,302.788 2071.73,370.996 2075.63,439.557 2079.54,507.241 2083.44,608.875 2087.35,587.284 2091.25,560.042 2095.16,527.755 2099.06,491.12 2102.97,414.931 2106.87,456.133 2110.78,497.074 2114.68,537.211 2118.59,576.047 2122.49,613.139 2126.4,648.107 2130.3,680.639 2134.21,710.497 2138.11,737.515 2142.02,797.575 2145.92,734.524 2149.82,666.902 2153.73,596.21 2157.63,523.944 2161.54,451.563 2165.44,380.454 2169.35,311.905 2173.25,247.079 2177.16,186.991 2181.06,96.5203 2184.97,132.481 2188.87,176.877 2192.78,228.637 2196.68,286.566 2200.59,349.386 2204.49,415.764 2208.4,484.35 2212.3,553.812 2216.21,622.862 2220.11,690.286 2224.02,754.971 2227.92,815.922 2231.83,872.285 2235.73,923.354 2239.63,1004.56 2243.54,959.383 2247.44,906.103 2251.35,846.051 2255.25,780.652 2259.16,675.412 2263.06,687.963 2266.97,701.294 2270.87,715.443 2274.78,730.428 2278.68,746.245 2282.59,762.868 2286.49,780.252 2290.4,798.336 2294.3,817.044 "/>
<polyline clip-path="url(#clip362)" style="stroke:#3da44d; stroke-linecap:round; stroke-linejoin:round; stroke-width:4; stroke-opacity:1; fill:none" points="345.82,793.236 349.725,835.551 353.63,881.17 357.535,929.087 361.439,978.294 365.344,1071.82 369.249,1049.9 373.154,1023.36 377.059,992.837 380.963,959.005 384.868,922.596 388.773,884.362 392.678,845.063 396.582,805.444 400.487,766.222 404.392,684.042 408.297,718.351 412.201,757.961 416.106,801.912 420.011,849.187 423.916,942.767 427.821,922.774 431.725,899.915 435.63,874.637 439.535,847.425 443.44,818.783 447.344,789.227 451.249,759.267 455.154,729.398 459.059,700.088 462.963,671.769 466.868,644.827 470.773,619.598 474.678,596.36 478.583,575.332 482.487,512.644 486.392,567.221 490.297,627.364 494.202,691.622 498.106,758.515 502.011,870.604 505.916,867.637 509.821,860 513.726,847.882 517.63,831.568 521.535,767.405 525.44,814.669 529.345,862.134 533.249,908.922 537.154,954.213 541.059,1041.29 544.964,1010.67 548.868,973.523 552.773,930.837 556.678,883.673 560.583,789.123 564.488,807.158 568.392,827.186 572.297,848.884 576.202,871.908 580.107,939.922 584.011,893.728 587.916,844.693 591.821,793.89 595.726,742.382 599.631,691.193 603.535,641.289 607.44,593.557 611.345,548.788 615.25,507.663 619.154,426.717 623.059,465.216 626.964,511.735 630.869,565.02 634.773,623.72 638.678,730.449 642.583,724.939 646.488,717.497 650.393,708.168 654.297,697.041 658.202,640.22 662.107,696.701 666.012,754.945 669.916,813.74 673.821,871.924 677.726,972.431 681.631,955.432 685.535,931.774 689.44,902.129 693.345,867.277 697.25,784.058 701.155,812.227 705.059,841.016 708.964,869.968 712.869,898.647 716.774,970.667 720.678,926.822 724.583,878.511 728.488,826.875 732.393,773.08 736.298,718.281 740.202,663.599 744.107,610.098 748.012,558.757 751.917,510.456 755.821,421.935 759.726,452.663 763.631,491.409 767.536,537.106 771.44,588.578 775.345,644.567 779.25,703.776 783.155,764.894 787.06,826.633 790.964,887.755 794.869,991.123 798.774,976.843 802.679,955.704 806.583,928.325 810.488,895.446 814.393,813.872 818.298,843.336 822.202,873.054 826.107,902.565 830.012,931.437 833.917,959.273 837.822,985.72 841.726,1010.48 845.631,1033.29 849.536,1053.98 853.441,1116.43 857.345,1061.74 861.25,1001.62 865.155,937.546 869.06,870.994 872.965,759.411 876.869,763.047 880.774,771.513 884.679,784.611 888.584,802.045 892.488,867.454 896.393,821.544 900.298,775.525 904.203,730.254 908.107,686.531 912.012,601.053 915.917,633.284 919.822,672.028 923.727,716.286 927.631,764.978 931.536,860.995 935.441,844.355 939.346,825.64 943.25,805.163 947.155,783.263 951.06,760.297 954.965,736.629 958.87,712.624 962.774,688.633 966.679,664.994 970.584,597.993 974.489,646.743 978.393,699.761 982.298,755.827 986.203,813.712 990.108,872.205 994.012,930.142 997.917,986.431 1001.82,1040.07 1005.73,1090.18 1009.63,1180.03 1013.54,1150.16 1017.44,1111.83 1021.35,1066.15 1025.25,1014.33 1029.16,913.67 1033.06,924.342 1036.96,935.989 1040.87,948.538 1044.77,961.894 1048.68,975.947 1052.58,990.578 1056.49,1005.66 1060.39,1021.05 1064.3,1036.62 1068.2,1096.26 1072.11,1041 1076.01,982.465 1079.92,921.953 1083.82,860.762 1087.73,800.135 1091.63,741.241 1095.54,685.146 1099.44,632.8 1103.35,585.013 1107.25,542.448 1111.16,505.61 1115.06,474.845 1118.97,450.336 1122.87,432.112 1126.77,376.025 1130.68,440.649 1134.58,513.869 1138.49,593.764 1142.39,678.355 1146.3,765.649 1150.2,853.691 1154.11,940.61 1158.01,1024.65 1161.92,1104.23 1165.82,1221.95 1169.73,1217.78 1173.63,1202.49 1177.54,1176.78 1181.44,1141.53 1185.35,1053.82 1189.25,1073.72 1193.16,1090.82 1197.06,1105.13 1200.97,1116.69 1204.87,1125.61 1208.77,1132.08 1212.68,1136.3 1216.58,1138.54 1220.49,1139.09 1224.39,1138.27 1228.3,1136.41 1232.2,1133.84 1236.11,1130.91 1240.01,1127.95 1243.92,1169.28 1247.82,1096.37 1251.73,1021.2 1255.63,945.423 1259.54,870.616 1263.44,754.232 1267.35,756.449 1271.25,766.726 1275.16,784.647 1279.06,809.637 1282.97,885.006 1286.87,851.091 1290.78,818.701 1294.68,788.279 1298.58,760.199 1302.49,734.761 1306.39,712.189 1310.3,692.627 1314.2,676.141 1318.11,662.724 1322.01,652.295 1325.92,644.709 1329.82,639.761 1333.73,637.195 1337.63,636.712 1341.54,637.98 1345.44,640.646 1349.35,644.338 1353.25,648.683 1357.16,653.312 1361.06,613.844 1364.97,688.776 1368.87,766.072 1372.78,844.034 1376.68,921.035 1380.58,995.551 1384.49,1066.2 1388.39,1131.75 1392.3,1191.16 1396.2,1243.58 1400.11,1332.41 1404.01,1298.39 1407.92,1253.04 1411.82,1197.75 1415.73,1134.13 1419.63,1019.84 1423.54,1015.48 1427.44,1011.12 1431.35,1007.11 1435.25,1003.77 1439.16,1045.43 1443.06,973.494 1446.97,899.912 1450.87,826.267 1454.78,754.07 1458.68,640.695 1462.59,646.234 1466.49,660.06 1470.39,681.67 1474.3,710.401 1478.2,745.456 1482.11,785.925 1486.01,830.819 1489.92,879.092 1493.82,929.671 1497.73,981.483 1501.63,1033.48 1505.54,1084.66 1509.44,1134.1 1513.35,1180.95 1517.25,1268.49 1521.16,1237.28 1525.06,1198.54 1528.97,1153.33 1532.87,1102.8 1536.78,1004.16 1540.68,1017.48 1544.59,1032.32 1548.49,1048.48 1552.39,1065.74 1556.3,1127.91 1560.2,1075.92 1564.11,1021.25 1568.01,965.089 1571.92,908.595 1575.82,808.854 1579.73,825.733 1583.63,848.446 1587.54,876.396 1591.44,908.892 1595.35,945.171 1599.25,984.418 1603.16,1025.79 1607.06,1068.43 1610.97,1111.5 1614.87,1198.22 1618.78,1169 1622.68,1134.87 1626.59,1096.64 1630.49,1055.17 1634.4,1011.37 1638.3,966.135 1642.2,920.372 1646.11,874.942 1650.01,830.657 1653.92,744.239 1657.82,775.183 1661.73,812.331 1665.63,854.726 1669.54,901.336 1673.44,995.103 1677.35,976.095 1681.25,954.947 1685.16,932.022 1689.06,907.708 1692.97,882.408 1696.87,856.526 1700.78,830.462 1704.68,804.601 1708.59,779.302 1712.49,754.896 1716.4,731.675 1720.3,709.889 1724.2,689.742 1728.11,671.39 1732.01,654.939 1735.92,640.445 1739.82,627.918 1743.73,617.318 1747.63,608.564 1751.54,557.514 1755.44,622.844 1759.35,692.647 1763.25,765.293 1767.16,839.168 1771.06,912.711 1774.97,984.448 1778.87,1053.02 1782.78,1117.22 1786.68,1175.99 1790.59,1272.5 1794.49,1247.23 1798.4,1211.44 1802.3,1166.28 1806.2,1113.05 1810.11,1053.2 1814.01,988.238 1817.92,919.737 1821.82,849.263 1825.73,778.354 1829.63,708.477 1833.54,641.004 1837.44,577.176 1841.35,518.089 1845.25,464.669 1849.16,417.663 1853.06,377.628 1856.97,344.926 1860.87,319.73 1864.78,302.028 1868.68,247.604 1872.59,314.941 1876.49,391.812 1880.4,476.169 1884.3,565.892 1888.21,702.863 1892.11,726.141 1896.01,745.426 1899.92,760.239 1903.82,770.231 1907.73,731.163 1911.63,801.783 1915.54,870.406 1919.44,935.769 1923.35,996.75 1927.25,1096.41 1931.16,1075.14 1935.06,1044.05 1938.97,1004.16 1942.87,956.632 1946.78,902.765 1950.68,843.931 1954.59,781.552 1958.49,717.064 1962.4,651.879 1966.3,587.354 1970.21,524.763 1974.11,465.268 1978.01,409.899 1981.92,359.539 1985.82,270.879 1989.73,303.3 1993.63,345.444 1997.54,396.082 2001.44,453.847 2005.35,561.295 2009.25,558.066 2013.16,554.339 2017.06,550.008 2020.97,544.986 2024.87,539.208 2028.78,532.631 2032.68,525.235 2036.59,517.019 2040.49,508.004 2044.4,498.23 2048.3,487.751 2052.21,476.638 2056.11,464.975 2060.02,452.852 2063.92,396.345 2067.82,454.389 2071.73,515.362 2075.63,577.944 2079.54,640.843 2083.44,746.849 2087.35,735.98 2091.25,718.92 2095.16,696.176 2099.06,668.365 2102.97,592.167 2106.87,627.189 2110.78,662.524 2114.68,697.59 2118.59,731.843 2122.49,764.786 2126.4,795.973 2130.3,825.027 2134.21,851.636 2138.11,875.562 2142.02,940.667 2145.92,888.029 2149.82,829.362 2153.73,766.144 2157.63,699.886 2161.54,632.094 2165.44,564.235 2169.35,497.703 2173.25,433.789 2177.16,373.659 2181.06,274.303 2184.97,295.405 2188.87,325.912 2192.78,364.891 2196.68,411.255 2200.59,463.797 2204.49,521.224 2208.4,582.193 2212.3,645.346 2216.21,709.339 2220.11,772.88 2224.02,834.749 2227.92,893.831 2231.83,949.129 2235.73,999.79 2239.63,1089.13 2243.54,1057.79 2247.44,1017.11 2251.35,968.302 2255.25,912.723 2259.16,807.784 2263.06,813.809 2266.97,820.579 2270.87,828.156 2274.78,836.579 2278.68,845.866 2282.59,856.01 2286.49,866.984 2290.4,878.744 2294.3,891.225 "/>
<path clip-path="url(#clip360)" d="M1278.39 1377.32 L2283.91 1377.32 L2283.91 1169.96 L1278.39 1169.96  Z" fill="#ffffff" fill-rule="evenodd" fill-opacity="1"/>
<polyline clip-path="url(#clip360)" style="stroke:#000000; stroke-linecap:round; stroke-linejoin:round; stroke-width:4; stroke-opacity:1; fill:none" points="1278.39,1377.32 2283.91,1377.32 2283.91,1169.96 1278.39,1169.96 1278.39,1377.32 "/>
<polyline clip-path="url(#clip360)" style="stroke:#009af9; stroke-linecap:round; stroke-linejoin:round; stroke-width:4; stroke-opacity:1; fill:none" points="1301.34,1221.8 1439.03,1221.8 "/>
<path clip-path="url(#clip360)" d="M1466.66 1208.36 L1466.66 1235.23 L1472.31 1235.23 Q1479.46 1235.23 1482.77 1231.99 Q1486.1 1228.75 1486.1 1221.76 Q1486.1 1214.82 1482.77 1211.6 Q1479.46 1208.36 1472.31 1208.36 L1466.66 1208.36 M1461.98 1204.52 L1471.59 1204.52 Q1481.64 1204.52 1486.34 1208.71 Q1491.03 1212.87 1491.03 1221.76 Q1491.03 1230.7 1486.31 1234.89 Q1481.59 1239.08 1471.59 1239.08 L1461.98 1239.08 L1461.98 1204.52 Z" fill="#000000" fill-rule="nonzero" fill-opacity="1" /><path clip-path="url(#clip360)" d="M1510.09 1226.04 Q1504.92 1226.04 1502.93 1227.22 Q1500.94 1228.4 1500.94 1231.25 Q1500.94 1233.52 1502.42 1234.86 Q1503.93 1236.18 1506.5 1236.18 Q1510.04 1236.18 1512.17 1233.68 Q1514.32 1231.16 1514.32 1226.99 L1514.32 1226.04 L1510.09 1226.04 M1518.58 1224.28 L1518.58 1239.08 L1514.32 1239.08 L1514.32 1235.14 Q1512.86 1237.5 1510.69 1238.64 Q1508.51 1239.75 1505.36 1239.75 Q1501.38 1239.75 1499.02 1237.52 Q1496.68 1235.28 1496.68 1231.53 Q1496.68 1227.15 1499.6 1224.93 Q1502.54 1222.71 1508.35 1222.71 L1514.32 1222.71 L1514.32 1222.29 Q1514.32 1219.35 1512.38 1217.76 Q1510.46 1216.14 1506.96 1216.14 Q1504.74 1216.14 1502.63 1216.67 Q1500.53 1217.2 1498.58 1218.27 L1498.58 1214.33 Q1500.92 1213.43 1503.12 1212.99 Q1505.32 1212.52 1507.4 1212.52 Q1513.02 1212.52 1515.8 1215.44 Q1518.58 1218.36 1518.58 1224.28 Z" fill="#000000" fill-rule="nonzero" fill-opacity="1" /><path clip-path="url(#clip360)" d="M1531.57 1205.79 L1531.57 1213.15 L1540.34 1213.15 L1540.34 1216.46 L1531.57 1216.46 L1531.57 1230.53 Q1531.57 1233.7 1532.42 1234.61 Q1533.3 1235.51 1535.96 1235.51 L1540.34 1235.51 L1540.34 1239.08 L1535.96 1239.08 Q1531.03 1239.08 1529.16 1237.25 Q1527.28 1235.39 1527.28 1230.53 L1527.28 1216.46 L1524.16 1216.46 L1524.16 1213.15 L1527.28 1213.15 L1527.28 1205.79 L1531.57 1205.79 Z" fill="#000000" fill-rule="nonzero" fill-opacity="1" /><path clip-path="url(#clip360)" d="M1557.72 1226.04 Q1552.56 1226.04 1550.57 1227.22 Q1548.58 1228.4 1548.58 1231.25 Q1548.58 1233.52 1550.06 1234.86 Q1551.57 1236.18 1554.14 1236.18 Q1557.68 1236.18 1559.81 1233.68 Q1561.96 1231.16 1561.96 1226.99 L1561.96 1226.04 L1557.72 1226.04 M1566.22 1224.28 L1566.22 1239.08 L1561.96 1239.08 L1561.96 1235.14 Q1560.5 1237.5 1558.33 1238.64 Q1556.15 1239.75 1553 1239.75 Q1549.02 1239.75 1546.66 1237.52 Q1544.32 1235.28 1544.32 1231.53 Q1544.32 1227.15 1547.24 1224.93 Q1550.18 1222.71 1555.99 1222.71 L1561.96 1222.71 L1561.96 1222.29 Q1561.96 1219.35 1560.02 1217.76 Q1558.09 1216.14 1554.6 1216.14 Q1552.38 1216.14 1550.27 1216.67 Q1548.16 1217.2 1546.22 1218.27 L1546.22 1214.33 Q1548.56 1213.43 1550.76 1212.99 Q1552.96 1212.52 1555.04 1212.52 Q1560.66 1212.52 1563.44 1215.44 Q1566.22 1218.36 1566.22 1224.28 Z" fill="#000000" fill-rule="nonzero" fill-opacity="1" /><polyline clip-path="url(#clip360)" style="stroke:#e26f46; stroke-linecap:round; stroke-linejoin:round; stroke-width:4; stroke-opacity:1; fill:none" points="1301.34,1273.64 1439.03,1273.64 "/>
<path clip-path="url(#clip360)" d="M1484.23 1257.49 L1484.23 1262.05 Q1481.57 1260.78 1479.21 1260.15 Q1476.84 1259.53 1474.65 1259.53 Q1470.83 1259.53 1468.74 1261.01 Q1466.68 1262.49 1466.68 1265.22 Q1466.68 1267.51 1468.05 1268.69 Q1469.44 1269.85 1473.28 1270.57 L1476.1 1271.15 Q1481.34 1272.14 1483.81 1274.67 Q1486.31 1277.17 1486.31 1281.38 Q1486.31 1286.4 1482.93 1288.99 Q1479.58 1291.59 1473.07 1291.59 Q1470.62 1291.59 1467.84 1291.03 Q1465.09 1290.48 1462.12 1289.39 L1462.12 1284.57 Q1464.97 1286.17 1467.7 1286.98 Q1470.43 1287.79 1473.07 1287.79 Q1477.08 1287.79 1479.25 1286.22 Q1481.43 1284.64 1481.43 1281.73 Q1481.43 1279.18 1479.85 1277.74 Q1478.3 1276.31 1474.74 1275.59 L1471.89 1275.04 Q1466.66 1273.99 1464.32 1271.77 Q1461.98 1269.55 1461.98 1265.59 Q1461.98 1261.01 1465.2 1258.37 Q1468.44 1255.73 1474.11 1255.73 Q1476.54 1255.73 1479.07 1256.17 Q1481.59 1256.61 1484.23 1257.49 Z" fill="#000000" fill-rule="nonzero" fill-opacity="1" /><path clip-path="url(#clip360)" d="M1493.42 1264.99 L1497.68 1264.99 L1497.68 1290.92 L1493.42 1290.92 L1493.42 1264.99 M1493.42 1254.9 L1497.68 1254.9 L1497.68 1260.29 L1493.42 1260.29 L1493.42 1254.9 Z" fill="#000000" fill-rule="nonzero" fill-opacity="1" /><path clip-path="url(#clip360)" d="M1526.77 1269.97 Q1528.37 1267.1 1530.59 1265.73 Q1532.82 1264.36 1535.83 1264.36 Q1539.88 1264.36 1542.08 1267.21 Q1544.27 1270.04 1544.27 1275.27 L1544.27 1290.92 L1539.99 1290.92 L1539.99 1275.41 Q1539.99 1271.68 1538.67 1269.87 Q1537.35 1268.07 1534.65 1268.07 Q1531.34 1268.07 1529.41 1270.27 Q1527.49 1272.47 1527.49 1276.26 L1527.49 1290.92 L1523.21 1290.92 L1523.21 1275.41 Q1523.21 1271.66 1521.89 1269.87 Q1520.57 1268.07 1517.82 1268.07 Q1514.55 1268.07 1512.63 1270.29 Q1510.71 1272.49 1510.71 1276.26 L1510.71 1290.92 L1506.43 1290.92 L1506.43 1264.99 L1510.71 1264.99 L1510.71 1269.02 Q1512.17 1266.63 1514.21 1265.5 Q1516.24 1264.36 1519.04 1264.36 Q1521.87 1264.36 1523.84 1265.8 Q1525.83 1267.23 1526.77 1269.97 Z" fill="#000000" fill-rule="nonzero" fill-opacity="1" /><path clip-path="url(#clip360)" d="M1552.33 1280.68 L1552.33 1264.99 L1556.59 1264.99 L1556.59 1280.52 Q1556.59 1284.2 1558.02 1286.05 Q1559.46 1287.88 1562.33 1287.88 Q1565.78 1287.88 1567.77 1285.68 Q1569.78 1283.48 1569.78 1279.69 L1569.78 1264.99 L1574.04 1264.99 L1574.04 1290.92 L1569.78 1290.92 L1569.78 1286.93 Q1568.23 1289.29 1566.17 1290.45 Q1564.14 1291.59 1561.43 1291.59 Q1556.96 1291.59 1554.65 1288.81 Q1552.33 1286.03 1552.33 1280.68 M1563.05 1264.36 L1563.05 1264.36 Z" fill="#000000" fill-rule="nonzero" fill-opacity="1" /><path clip-path="url(#clip360)" d="M1582.82 1254.9 L1587.08 1254.9 L1587.08 1290.92 L1582.82 1290.92 L1582.82 1254.9 Z" fill="#000000" fill-rule="nonzero" fill-opacity="1" /><path clip-path="url(#clip360)" d="M1607.77 1277.88 Q1602.61 1277.88 1600.62 1279.06 Q1598.63 1280.24 1598.63 1283.09 Q1598.63 1285.36 1600.11 1286.7 Q1601.61 1288.02 1604.18 1288.02 Q1607.72 1288.02 1609.85 1285.52 Q1612.01 1283 1612.01 1278.83 L1612.01 1277.88 L1607.77 1277.88 M1616.27 1276.12 L1616.27 1290.92 L1612.01 1290.92 L1612.01 1286.98 Q1610.55 1289.34 1608.37 1290.48 Q1606.2 1291.59 1603.05 1291.59 Q1599.07 1291.59 1596.71 1289.36 Q1594.37 1287.12 1594.37 1283.37 Q1594.37 1278.99 1597.28 1276.77 Q1600.22 1274.55 1606.03 1274.55 L1612.01 1274.55 L1612.01 1274.13 Q1612.01 1271.19 1610.06 1269.6 Q1608.14 1267.98 1604.64 1267.98 Q1602.42 1267.98 1600.32 1268.51 Q1598.21 1269.04 1596.27 1270.11 L1596.27 1266.17 Q1598.6 1265.27 1600.8 1264.83 Q1603 1264.36 1605.08 1264.36 Q1610.71 1264.36 1613.49 1267.28 Q1616.27 1270.2 1616.27 1276.12 Z" fill="#000000" fill-rule="nonzero" fill-opacity="1" /><path clip-path="url(#clip360)" d="M1629.25 1257.63 L1629.25 1264.99 L1638.02 1264.99 L1638.02 1268.3 L1629.25 1268.3 L1629.25 1282.37 Q1629.25 1285.54 1630.11 1286.45 Q1630.99 1287.35 1633.65 1287.35 L1638.02 1287.35 L1638.02 1290.92 L1633.65 1290.92 Q1628.72 1290.92 1626.84 1289.09 Q1624.97 1287.23 1624.97 1282.37 L1624.97 1268.3 L1621.84 1268.3 L1621.84 1264.99 L1624.97 1264.99 L1624.97 1257.63 L1629.25 1257.63 Z" fill="#000000" fill-rule="nonzero" fill-opacity="1" /><path clip-path="url(#clip360)" d="M1643.63 1264.99 L1647.89 1264.99 L1647.89 1290.92 L1643.63 1290.92 L1643.63 1264.99 M1643.63 1254.9 L1647.89 1254.9 L1647.89 1260.29 L1643.63 1260.29 L1643.63 1254.9 Z" fill="#000000" fill-rule="nonzero" fill-opacity="1" /><path clip-path="url(#clip360)" d="M1666.84 1267.98 Q1663.42 1267.98 1661.43 1270.66 Q1659.44 1273.32 1659.44 1277.98 Q1659.44 1282.63 1661.4 1285.31 Q1663.39 1287.98 1666.84 1287.98 Q1670.25 1287.98 1672.24 1285.29 Q1674.23 1282.61 1674.23 1277.98 Q1674.23 1273.37 1672.24 1270.68 Q1670.25 1267.98 1666.84 1267.98 M1666.84 1264.36 Q1672.4 1264.36 1675.57 1267.98 Q1678.74 1271.59 1678.74 1277.98 Q1678.74 1284.34 1675.57 1287.98 Q1672.4 1291.59 1666.84 1291.59 Q1661.26 1291.59 1658.09 1287.98 Q1654.95 1284.34 1654.95 1277.98 Q1654.95 1271.59 1658.09 1267.98 Q1661.26 1264.36 1666.84 1264.36 Z" fill="#000000" fill-rule="nonzero" fill-opacity="1" /><path clip-path="url(#clip360)" d="M1707.35 1275.27 L1707.35 1290.92 L1703.09 1290.92 L1703.09 1275.41 Q1703.09 1271.73 1701.66 1269.9 Q1700.22 1268.07 1697.35 1268.07 Q1693.9 1268.07 1691.91 1270.27 Q1689.92 1272.47 1689.92 1276.26 L1689.92 1290.92 L1685.64 1290.92 L1685.64 1264.99 L1689.92 1264.99 L1689.92 1269.02 Q1691.45 1266.68 1693.51 1265.52 Q1695.59 1264.36 1698.3 1264.36 Q1702.77 1264.36 1705.06 1267.14 Q1707.35 1269.9 1707.35 1275.27 Z" fill="#000000" fill-rule="nonzero" fill-opacity="1" /><path clip-path="url(#clip360)" d="M1751.1 1269.97 Q1752.7 1267.1 1754.92 1265.73 Q1757.14 1264.36 1760.15 1264.36 Q1764.2 1264.36 1766.4 1267.21 Q1768.6 1270.04 1768.6 1275.27 L1768.6 1290.92 L1764.32 1290.92 L1764.32 1275.41 Q1764.32 1271.68 1763 1269.87 Q1761.68 1268.07 1758.97 1268.07 Q1755.66 1268.07 1753.74 1270.27 Q1751.82 1272.47 1751.82 1276.26 L1751.82 1290.92 L1747.54 1290.92 L1747.54 1275.41 Q1747.54 1271.66 1746.22 1269.87 Q1744.9 1268.07 1742.14 1268.07 Q1738.88 1268.07 1736.96 1270.29 Q1735.04 1272.49 1735.04 1276.26 L1735.04 1290.92 L1730.76 1290.92 L1730.76 1264.99 L1735.04 1264.99 L1735.04 1269.02 Q1736.5 1266.63 1738.53 1265.5 Q1740.57 1264.36 1743.37 1264.36 Q1746.2 1264.36 1748.16 1265.8 Q1750.15 1267.23 1751.1 1269.97 Z" fill="#000000" fill-rule="nonzero" fill-opacity="1" /><path clip-path="url(#clip360)" d="M1787.14 1267.98 Q1783.72 1267.98 1781.73 1270.66 Q1779.74 1273.32 1779.74 1277.98 Q1779.74 1282.63 1781.7 1285.31 Q1783.69 1287.98 1787.14 1287.98 Q1790.55 1287.98 1792.54 1285.29 Q1794.53 1282.61 1794.53 1277.98 Q1794.53 1273.37 1792.54 1270.68 Q1790.55 1267.98 1787.14 1267.98 M1787.14 1264.36 Q1792.7 1264.36 1795.87 1267.98 Q1799.04 1271.59 1799.04 1277.98 Q1799.04 1284.34 1795.87 1287.98 Q1792.7 1291.59 1787.14 1291.59 Q1781.57 1291.59 1778.39 1287.98 Q1775.25 1284.34 1775.25 1277.98 Q1775.25 1271.59 1778.39 1267.98 Q1781.57 1264.36 1787.14 1264.36 Z" fill="#000000" fill-rule="nonzero" fill-opacity="1" /><path clip-path="url(#clip360)" d="M1823.16 1268.92 L1823.16 1254.9 L1827.42 1254.9 L1827.42 1290.92 L1823.16 1290.92 L1823.16 1287.03 Q1821.82 1289.34 1819.76 1290.48 Q1817.72 1291.59 1814.85 1291.59 Q1810.15 1291.59 1807.19 1287.84 Q1804.25 1284.09 1804.25 1277.98 Q1804.25 1271.86 1807.19 1268.11 Q1810.15 1264.36 1814.85 1264.36 Q1817.72 1264.36 1819.76 1265.5 Q1821.82 1266.61 1823.16 1268.92 M1808.65 1277.98 Q1808.65 1282.67 1810.57 1285.36 Q1812.51 1288.02 1815.89 1288.02 Q1819.27 1288.02 1821.22 1285.36 Q1823.16 1282.67 1823.16 1277.98 Q1823.16 1273.28 1821.22 1270.61 Q1819.27 1267.93 1815.89 1267.93 Q1812.51 1267.93 1810.57 1270.61 Q1808.65 1273.28 1808.65 1277.98 Z" fill="#000000" fill-rule="nonzero" fill-opacity="1" /><path clip-path="url(#clip360)" d="M1858.37 1276.89 L1858.37 1278.97 L1838.79 1278.97 Q1839.06 1283.37 1841.43 1285.68 Q1843.81 1287.98 1848.05 1287.98 Q1850.5 1287.98 1852.79 1287.37 Q1855.11 1286.77 1857.37 1285.57 L1857.37 1289.6 Q1855.08 1290.57 1852.68 1291.08 Q1850.27 1291.59 1847.79 1291.59 Q1841.59 1291.59 1837.95 1287.98 Q1834.34 1284.36 1834.34 1278.21 Q1834.34 1271.84 1837.77 1268.11 Q1841.22 1264.36 1847.05 1264.36 Q1852.28 1264.36 1855.31 1267.74 Q1858.37 1271.1 1858.37 1276.89 M1854.11 1275.64 Q1854.06 1272.14 1852.14 1270.06 Q1850.25 1267.98 1847.1 1267.98 Q1843.53 1267.98 1841.38 1269.99 Q1839.25 1272 1838.93 1275.66 L1854.11 1275.64 Z" fill="#000000" fill-rule="nonzero" fill-opacity="1" /><path clip-path="url(#clip360)" d="M1865.36 1254.9 L1869.62 1254.9 L1869.62 1290.92 L1865.36 1290.92 L1865.36 1254.9 Z" fill="#000000" fill-rule="nonzero" fill-opacity="1" /><path clip-path="url(#clip360)" d="M1910.13 1265.75 L1910.13 1269.78 Q1908.32 1268.86 1906.38 1268.39 Q1904.43 1267.93 1902.35 1267.93 Q1899.18 1267.93 1897.58 1268.9 Q1896.01 1269.87 1896.01 1271.82 Q1896.01 1273.3 1897.14 1274.16 Q1898.28 1274.99 1901.7 1275.75 L1903.16 1276.08 Q1907.7 1277.05 1909.6 1278.83 Q1911.52 1280.59 1911.52 1283.76 Q1911.52 1287.37 1908.65 1289.48 Q1905.8 1291.59 1900.8 1291.59 Q1898.72 1291.59 1896.45 1291.17 Q1894.2 1290.78 1891.7 1289.97 L1891.7 1285.57 Q1894.06 1286.79 1896.36 1287.42 Q1898.65 1288.02 1900.89 1288.02 Q1903.9 1288.02 1905.52 1287 Q1907.14 1285.96 1907.14 1284.09 Q1907.14 1282.35 1905.96 1281.42 Q1904.81 1280.5 1900.85 1279.64 L1899.37 1279.3 Q1895.41 1278.46 1893.65 1276.75 Q1891.89 1275.01 1891.89 1272 Q1891.89 1268.35 1894.48 1266.36 Q1897.07 1264.36 1901.84 1264.36 Q1904.2 1264.36 1906.29 1264.71 Q1908.37 1265.06 1910.13 1265.75 Z" fill="#000000" fill-rule="nonzero" fill-opacity="1" /><path clip-path="url(#clip360)" d="M1918.3 1264.99 L1922.56 1264.99 L1922.56 1290.92 L1918.3 1290.92 L1918.3 1264.99 M1918.3 1254.9 L1922.56 1254.9 L1922.56 1260.29 L1918.3 1260.29 L1918.3 1254.9 Z" fill="#000000" fill-rule="nonzero" fill-opacity="1" /><path clip-path="url(#clip360)" d="M1951.66 1269.97 Q1953.25 1267.1 1955.48 1265.73 Q1957.7 1264.36 1960.71 1264.36 Q1964.76 1264.36 1966.96 1267.21 Q1969.16 1270.04 1969.16 1275.27 L1969.16 1290.92 L1964.87 1290.92 L1964.87 1275.41 Q1964.87 1271.68 1963.55 1269.87 Q1962.24 1268.07 1959.53 1268.07 Q1956.22 1268.07 1954.3 1270.27 Q1952.37 1272.47 1952.37 1276.26 L1952.37 1290.92 L1948.09 1290.92 L1948.09 1275.41 Q1948.09 1271.66 1946.77 1269.87 Q1945.45 1268.07 1942.7 1268.07 Q1939.43 1268.07 1937.51 1270.29 Q1935.59 1272.49 1935.59 1276.26 L1935.59 1290.92 L1931.31 1290.92 L1931.31 1264.99 L1935.59 1264.99 L1935.59 1269.02 Q1937.05 1266.63 1939.09 1265.5 Q1941.12 1264.36 1943.93 1264.36 Q1946.75 1264.36 1948.72 1265.8 Q1950.71 1267.23 1951.66 1269.97 Z" fill="#000000" fill-rule="nonzero" fill-opacity="1" /><path clip-path="url(#clip360)" d="M2005.85 1254.9 L2005.85 1258.44 L2001.77 1258.44 Q1999.48 1258.44 1998.58 1259.36 Q1997.7 1260.29 1997.7 1262.7 L1997.7 1264.99 L2004.71 1264.99 L2004.71 1268.3 L1997.7 1268.3 L1997.7 1290.92 L1993.42 1290.92 L1993.42 1268.3 L1989.34 1268.3 L1989.34 1264.99 L1993.42 1264.99 L1993.42 1263.18 Q1993.42 1258.86 1995.43 1256.89 Q1997.44 1254.9 2001.82 1254.9 L2005.85 1254.9 Z" fill="#000000" fill-rule="nonzero" fill-opacity="1" /><path clip-path="url(#clip360)" d="M2009.41 1264.99 L2013.67 1264.99 L2013.67 1290.92 L2009.41 1290.92 L2009.41 1264.99 M2009.41 1254.9 L2013.67 1254.9 L2013.67 1260.29 L2009.41 1260.29 L2009.41 1254.9 Z" fill="#000000" fill-rule="nonzero" fill-opacity="1" /><path clip-path="url(#clip360)" d="M2026.8 1257.63 L2026.8 1264.99 L2035.57 1264.99 L2035.57 1268.3 L2026.8 1268.3 L2026.8 1282.37 Q2026.8 1285.54 2027.65 1286.45 Q2028.53 1287.35 2031.19 1287.35 L2035.57 1287.35 L2035.57 1290.92 L2031.19 1290.92 Q2026.26 1290.92 2024.39 1289.09 Q2022.51 1287.23 2022.51 1282.37 L2022.51 1268.3 L2019.39 1268.3 L2019.39 1264.99 L2022.51 1264.99 L2022.51 1257.63 L2026.8 1257.63 Z" fill="#000000" fill-rule="nonzero" fill-opacity="1" /><path clip-path="url(#clip360)" d="M2072.4 1285.04 L2077.28 1285.04 L2077.28 1290.92 L2072.4 1290.92 L2072.4 1285.04 M2072.4 1266.4 L2077.28 1266.4 L2077.28 1272.28 L2072.4 1272.28 L2072.4 1266.4 Z" fill="#000000" fill-rule="nonzero" fill-opacity="1" /><path clip-path="url(#clip360)" d="M2086.7 1256.36 L2108.92 1256.36 L2108.92 1258.35 L2096.38 1290.92 L2091.49 1290.92 L2103.3 1260.29 L2086.7 1260.29 L2086.7 1256.36 Z" fill="#000000" fill-rule="nonzero" fill-opacity="1" /><path clip-path="url(#clip360)" d="M2122.07 1286.98 L2138.39 1286.98 L2138.39 1290.92 L2116.45 1290.92 L2116.45 1286.98 Q2119.11 1284.23 2123.69 1279.6 Q2128.3 1274.94 2129.48 1273.6 Q2131.73 1271.08 2132.61 1269.34 Q2133.51 1267.58 2133.51 1265.89 Q2133.51 1263.14 2131.56 1261.4 Q2129.64 1259.67 2126.54 1259.67 Q2124.34 1259.67 2121.89 1260.43 Q2119.46 1261.19 2116.68 1262.74 L2116.68 1258.02 Q2119.5 1256.89 2121.96 1256.31 Q2124.41 1255.73 2126.45 1255.73 Q2131.82 1255.73 2135.01 1258.42 Q2138.21 1261.1 2138.21 1265.59 Q2138.21 1267.72 2137.4 1269.64 Q2136.61 1271.54 2134.5 1274.13 Q2133.92 1274.8 2130.82 1278.02 Q2127.72 1281.22 2122.07 1286.98 Z" fill="#000000" fill-rule="nonzero" fill-opacity="1" /><path clip-path="url(#clip360)" d="M2148.21 1285.04 L2153.09 1285.04 L2153.09 1290.92 L2148.21 1290.92 L2148.21 1285.04 Z" fill="#000000" fill-rule="nonzero" fill-opacity="1" /><path clip-path="url(#clip360)" d="M2163.32 1256.36 L2181.68 1256.36 L2181.68 1260.29 L2167.6 1260.29 L2167.6 1268.76 Q2168.62 1268.42 2169.64 1268.25 Q2170.66 1268.07 2171.68 1268.07 Q2177.47 1268.07 2180.85 1271.24 Q2184.23 1274.41 2184.23 1279.83 Q2184.23 1285.41 2180.75 1288.51 Q2177.28 1291.59 2170.96 1291.59 Q2168.79 1291.59 2166.52 1291.22 Q2164.27 1290.85 2161.86 1290.11 L2161.86 1285.41 Q2163.95 1286.54 2166.17 1287.1 Q2168.39 1287.65 2170.87 1287.65 Q2174.87 1287.65 2177.21 1285.54 Q2179.55 1283.44 2179.55 1279.83 Q2179.55 1276.22 2177.21 1274.11 Q2174.87 1272 2170.87 1272 Q2168.99 1272 2167.12 1272.42 Q2165.27 1272.84 2163.32 1273.72 L2163.32 1256.36 Z" fill="#000000" fill-rule="nonzero" fill-opacity="1" /><path clip-path="url(#clip360)" d="M2197.47 1286.98 L2213.79 1286.98 L2213.79 1290.92 L2191.84 1290.92 L2191.84 1286.98 Q2194.5 1284.23 2199.09 1279.6 Q2203.69 1274.94 2204.87 1273.6 Q2207.12 1271.08 2208 1269.34 Q2208.9 1267.58 2208.9 1265.89 Q2208.9 1263.14 2206.96 1261.4 Q2205.04 1259.67 2201.93 1259.67 Q2199.73 1259.67 2197.28 1260.43 Q2194.85 1261.19 2192.07 1262.74 L2192.07 1258.02 Q2194.9 1256.89 2197.35 1256.31 Q2199.8 1255.73 2201.84 1255.73 Q2207.21 1255.73 2210.41 1258.42 Q2213.6 1261.1 2213.6 1265.59 Q2213.6 1267.72 2212.79 1269.64 Q2212 1271.54 2209.9 1274.13 Q2209.32 1274.8 2206.22 1278.02 Q2203.11 1281.22 2197.47 1286.98 Z" fill="#000000" fill-rule="nonzero" fill-opacity="1" /><path clip-path="url(#clip360)" d="M2253 1275.71 Q2250.98 1275.71 2249.83 1277.42 Q2248.69 1279.13 2248.69 1282.19 Q2248.69 1285.2 2249.83 1286.93 Q2250.98 1288.65 2253 1288.65 Q2254.97 1288.65 2256.1 1286.93 Q2257.26 1285.2 2257.26 1282.19 Q2257.26 1279.16 2256.1 1277.44 Q2254.97 1275.71 2253 1275.71 M2253 1272.77 Q2256.66 1272.77 2258.81 1275.31 Q2260.96 1277.86 2260.96 1282.19 Q2260.96 1286.52 2258.78 1289.06 Q2256.63 1291.59 2253 1291.59 Q2249.29 1291.59 2247.14 1289.06 Q2244.99 1286.52 2244.99 1282.19 Q2244.99 1277.84 2247.14 1275.31 Q2249.32 1272.77 2253 1272.77 M2229.11 1258.67 Q2227.12 1258.67 2225.96 1260.41 Q2224.83 1262.12 2224.83 1265.13 Q2224.83 1268.18 2225.96 1269.9 Q2227.1 1271.61 2229.11 1271.61 Q2231.12 1271.61 2232.26 1269.9 Q2233.41 1268.18 2233.41 1265.13 Q2233.41 1262.14 2232.26 1260.41 Q2231.1 1258.67 2229.11 1258.67 M2250.01 1255.73 L2253.72 1255.73 L2232.1 1291.59 L2228.39 1291.59 L2250.01 1255.73 M2229.11 1255.73 Q2232.77 1255.73 2234.94 1258.28 Q2237.12 1260.8 2237.12 1265.13 Q2237.12 1269.5 2234.94 1272.03 Q2232.79 1274.55 2229.11 1274.55 Q2225.43 1274.55 2223.28 1272.03 Q2221.15 1269.48 2221.15 1265.13 Q2221.15 1260.82 2223.3 1258.28 Q2225.45 1255.73 2229.11 1255.73 Z" fill="#000000" fill-rule="nonzero" fill-opacity="1" /><polyline clip-path="url(#clip360)" style="stroke:#3da44d; stroke-linecap:round; stroke-linejoin:round; stroke-width:4; stroke-opacity:1; fill:none" points="1301.34,1325.48 1439.03,1325.48 "/>
<path clip-path="url(#clip360)" d="M1466.66 1312.04 L1466.66 1325.02 L1472.54 1325.02 Q1475.8 1325.02 1477.59 1323.33 Q1479.37 1321.64 1479.37 1318.52 Q1479.37 1315.42 1477.59 1313.73 Q1475.8 1312.04 1472.54 1312.04 L1466.66 1312.04 M1461.98 1308.2 L1472.54 1308.2 Q1478.35 1308.2 1481.31 1310.83 Q1484.3 1313.45 1484.3 1318.52 Q1484.3 1323.64 1481.31 1326.25 Q1478.35 1328.87 1472.54 1328.87 L1466.66 1328.87 L1466.66 1342.76 L1461.98 1342.76 L1461.98 1308.2 Z" fill="#000000" fill-rule="nonzero" fill-opacity="1" /><path clip-path="url(#clip360)" d="M1504.58 1320.81 Q1503.86 1320.39 1503 1320.21 Q1502.17 1320 1501.15 1320 Q1497.54 1320 1495.59 1322.36 Q1493.67 1324.7 1493.67 1329.1 L1493.67 1342.76 L1489.39 1342.76 L1489.39 1316.83 L1493.67 1316.83 L1493.67 1320.86 Q1495.02 1318.5 1497.17 1317.36 Q1499.32 1316.2 1502.4 1316.2 Q1502.84 1316.2 1503.37 1316.27 Q1503.9 1316.32 1504.55 1316.44 L1504.58 1320.81 Z" fill="#000000" fill-rule="nonzero" fill-opacity="1" /><path clip-path="url(#clip360)" d="M1530.18 1328.73 L1530.18 1330.81 L1510.59 1330.81 Q1510.87 1335.21 1513.23 1337.52 Q1515.62 1339.82 1519.85 1339.82 Q1522.31 1339.82 1524.6 1339.21 Q1526.91 1338.61 1529.18 1337.41 L1529.18 1341.44 Q1526.89 1342.41 1524.48 1342.92 Q1522.08 1343.43 1519.6 1343.43 Q1513.4 1343.43 1509.76 1339.82 Q1506.15 1336.2 1506.15 1330.05 Q1506.15 1323.68 1509.58 1319.95 Q1513.02 1316.2 1518.86 1316.2 Q1524.09 1316.2 1527.12 1319.58 Q1530.18 1322.94 1530.18 1328.73 M1525.92 1327.48 Q1525.87 1323.98 1523.95 1321.9 Q1522.05 1319.82 1518.9 1319.82 Q1515.34 1319.82 1513.19 1321.83 Q1511.06 1323.84 1510.73 1327.5 L1525.92 1327.48 Z" fill="#000000" fill-rule="nonzero" fill-opacity="1" /><path clip-path="url(#clip360)" d="M1554.23 1320.76 L1554.23 1306.74 L1558.49 1306.74 L1558.49 1342.76 L1554.23 1342.76 L1554.23 1338.87 Q1552.89 1341.18 1550.83 1342.32 Q1548.79 1343.43 1545.92 1343.43 Q1541.22 1343.43 1538.26 1339.68 Q1535.32 1335.93 1535.32 1329.82 Q1535.32 1323.7 1538.26 1319.95 Q1541.22 1316.2 1545.92 1316.2 Q1548.79 1316.2 1550.83 1317.34 Q1552.89 1318.45 1554.23 1320.76 M1539.71 1329.82 Q1539.71 1334.51 1541.64 1337.2 Q1543.58 1339.86 1546.96 1339.86 Q1550.34 1339.86 1552.28 1337.2 Q1554.23 1334.51 1554.23 1329.82 Q1554.23 1325.12 1552.28 1322.45 Q1550.34 1319.77 1546.96 1319.77 Q1543.58 1319.77 1541.64 1322.45 Q1539.71 1325.12 1539.71 1329.82 Z" fill="#000000" fill-rule="nonzero" fill-opacity="1" /><path clip-path="url(#clip360)" d="M1567.26 1316.83 L1571.52 1316.83 L1571.52 1342.76 L1567.26 1342.76 L1567.26 1316.83 M1567.26 1306.74 L1571.52 1306.74 L1571.52 1312.13 L1567.26 1312.13 L1567.26 1306.74 Z" fill="#000000" fill-rule="nonzero" fill-opacity="1" /><path clip-path="url(#clip360)" d="M1599.09 1317.82 L1599.09 1321.81 Q1597.28 1320.81 1595.46 1320.32 Q1593.65 1319.82 1591.8 1319.82 Q1587.65 1319.82 1585.36 1322.45 Q1583.07 1325.07 1583.07 1329.82 Q1583.07 1334.56 1585.36 1337.2 Q1587.65 1339.82 1591.8 1339.82 Q1593.65 1339.82 1595.46 1339.33 Q1597.28 1338.82 1599.09 1337.82 L1599.09 1341.76 Q1597.31 1342.59 1595.39 1343.01 Q1593.49 1343.43 1591.33 1343.43 Q1585.48 1343.43 1582.03 1339.75 Q1578.58 1336.07 1578.58 1329.82 Q1578.58 1323.47 1582.05 1319.84 Q1585.55 1316.2 1591.61 1316.2 Q1593.58 1316.2 1595.46 1316.62 Q1597.33 1317.01 1599.09 1317.82 Z" fill="#000000" fill-rule="nonzero" fill-opacity="1" /><path clip-path="url(#clip360)" d="M1610.71 1309.47 L1610.71 1316.83 L1619.48 1316.83 L1619.48 1320.14 L1610.71 1320.14 L1610.71 1334.21 Q1610.71 1337.38 1611.57 1338.29 Q1612.45 1339.19 1615.11 1339.19 L1619.48 1339.19 L1619.48 1342.76 L1615.11 1342.76 Q1610.18 1342.76 1608.3 1340.93 Q1606.43 1339.07 1606.43 1334.21 L1606.43 1320.14 L1603.3 1320.14 L1603.3 1316.83 L1606.43 1316.83 L1606.43 1309.47 L1610.71 1309.47 Z" fill="#000000" fill-rule="nonzero" fill-opacity="1" /><path clip-path="url(#clip360)" d="M1625.08 1316.83 L1629.34 1316.83 L1629.34 1342.76 L1625.08 1342.76 L1625.08 1316.83 M1625.08 1306.74 L1629.34 1306.74 L1629.34 1312.13 L1625.08 1312.13 L1625.08 1306.74 Z" fill="#000000" fill-rule="nonzero" fill-opacity="1" /><path clip-path="url(#clip360)" d="M1648.3 1319.82 Q1644.88 1319.82 1642.89 1322.5 Q1640.89 1325.16 1640.89 1329.82 Q1640.89 1334.47 1642.86 1337.15 Q1644.85 1339.82 1648.3 1339.82 Q1651.7 1339.82 1653.7 1337.13 Q1655.69 1334.45 1655.69 1329.82 Q1655.69 1325.21 1653.7 1322.52 Q1651.7 1319.82 1648.3 1319.82 M1648.3 1316.2 Q1653.86 1316.2 1657.03 1319.82 Q1660.2 1323.43 1660.2 1329.82 Q1660.2 1336.18 1657.03 1339.82 Q1653.86 1343.43 1648.3 1343.43 Q1642.72 1343.43 1639.55 1339.82 Q1636.4 1336.18 1636.4 1329.82 Q1636.4 1323.43 1639.55 1319.82 Q1642.72 1316.2 1648.3 1316.2 Z" fill="#000000" fill-rule="nonzero" fill-opacity="1" /><path clip-path="url(#clip360)" d="M1688.81 1327.11 L1688.81 1342.76 L1684.55 1342.76 L1684.55 1327.25 Q1684.55 1323.57 1683.12 1321.74 Q1681.68 1319.91 1678.81 1319.91 Q1675.36 1319.91 1673.37 1322.11 Q1671.38 1324.31 1671.38 1328.1 L1671.38 1342.76 L1667.1 1342.76 L1667.1 1316.83 L1671.38 1316.83 L1671.38 1320.86 Q1672.91 1318.52 1674.97 1317.36 Q1677.05 1316.2 1679.76 1316.2 Q1684.23 1316.2 1686.52 1318.98 Q1688.81 1321.74 1688.81 1327.11 Z" fill="#000000" fill-rule="nonzero" fill-opacity="1" /><path clip-path="url(#clip360)" d="M1732.56 1321.81 Q1734.16 1318.94 1736.38 1317.57 Q1738.6 1316.2 1741.61 1316.2 Q1745.66 1316.2 1747.86 1319.05 Q1750.06 1321.88 1750.06 1327.11 L1750.06 1342.76 L1745.78 1342.76 L1745.78 1327.25 Q1745.78 1323.52 1744.46 1321.71 Q1743.14 1319.91 1740.43 1319.91 Q1737.12 1319.91 1735.2 1322.11 Q1733.28 1324.31 1733.28 1328.1 L1733.28 1342.76 L1729 1342.76 L1729 1327.25 Q1729 1323.5 1727.68 1321.71 Q1726.36 1319.91 1723.6 1319.91 Q1720.34 1319.91 1718.42 1322.13 Q1716.5 1324.33 1716.5 1328.1 L1716.5 1342.76 L1712.21 1342.76 L1712.21 1316.83 L1716.5 1316.83 L1716.5 1320.86 Q1717.95 1318.47 1719.99 1317.34 Q1722.03 1316.2 1724.83 1316.2 Q1727.65 1316.2 1729.62 1317.64 Q1731.61 1319.07 1732.56 1321.81 Z" fill="#000000" fill-rule="nonzero" fill-opacity="1" /><path clip-path="url(#clip360)" d="M1768.6 1319.82 Q1765.18 1319.82 1763.19 1322.5 Q1761.19 1325.16 1761.19 1329.82 Q1761.19 1334.47 1763.16 1337.15 Q1765.15 1339.82 1768.6 1339.82 Q1772.01 1339.82 1774 1337.13 Q1775.99 1334.45 1775.99 1329.82 Q1775.99 1325.21 1774 1322.52 Q1772.01 1319.82 1768.6 1319.82 M1768.6 1316.2 Q1774.16 1316.2 1777.33 1319.82 Q1780.5 1323.43 1780.5 1329.82 Q1780.5 1336.18 1777.33 1339.82 Q1774.16 1343.43 1768.6 1343.43 Q1763.02 1343.43 1759.85 1339.82 Q1756.7 1336.18 1756.7 1329.82 Q1756.7 1323.43 1759.85 1319.82 Q1763.02 1316.2 1768.6 1316.2 Z" fill="#000000" fill-rule="nonzero" fill-opacity="1" /><path clip-path="url(#clip360)" d="M1804.62 1320.76 L1804.62 1306.74 L1808.88 1306.74 L1808.88 1342.76 L1804.62 1342.76 L1804.62 1338.87 Q1803.28 1341.18 1801.22 1342.32 Q1799.18 1343.43 1796.31 1343.43 Q1791.61 1343.43 1788.65 1339.68 Q1785.71 1335.93 1785.71 1329.82 Q1785.71 1323.7 1788.65 1319.95 Q1791.61 1316.2 1796.31 1316.2 Q1799.18 1316.2 1801.22 1317.34 Q1803.28 1318.45 1804.62 1320.76 M1790.11 1329.82 Q1790.11 1334.51 1792.03 1337.2 Q1793.97 1339.86 1797.35 1339.86 Q1800.73 1339.86 1802.68 1337.2 Q1804.62 1334.51 1804.62 1329.82 Q1804.62 1325.12 1802.68 1322.45 Q1800.73 1319.77 1797.35 1319.77 Q1793.97 1319.77 1792.03 1322.45 Q1790.11 1325.12 1790.11 1329.82 Z" fill="#000000" fill-rule="nonzero" fill-opacity="1" /><path clip-path="url(#clip360)" d="M1839.83 1328.73 L1839.83 1330.81 L1820.25 1330.81 Q1820.52 1335.21 1822.88 1337.52 Q1825.27 1339.82 1829.5 1339.82 Q1831.96 1339.82 1834.25 1339.21 Q1836.56 1338.61 1838.83 1337.41 L1838.83 1341.44 Q1836.54 1342.41 1834.13 1342.92 Q1831.73 1343.43 1829.25 1343.43 Q1823.05 1343.43 1819.41 1339.82 Q1815.8 1336.2 1815.8 1330.05 Q1815.8 1323.68 1819.23 1319.95 Q1822.68 1316.2 1828.51 1316.2 Q1833.74 1316.2 1836.77 1319.58 Q1839.83 1322.94 1839.83 1328.73 M1835.57 1327.48 Q1835.52 1323.98 1833.6 1321.9 Q1831.7 1319.82 1828.56 1319.82 Q1824.99 1319.82 1822.84 1321.83 Q1820.71 1323.84 1820.38 1327.5 L1835.57 1327.48 Z" fill="#000000" fill-rule="nonzero" fill-opacity="1" /><path clip-path="url(#clip360)" d="M1846.82 1306.74 L1851.08 1306.74 L1851.08 1342.76 L1846.82 1342.76 L1846.82 1306.74 Z" fill="#000000" fill-rule="nonzero" fill-opacity="1" /><path clip-path="url(#clip360)" d="M1891.59 1317.59 L1891.59 1321.62 Q1889.78 1320.7 1887.84 1320.23 Q1885.89 1319.77 1883.81 1319.77 Q1880.64 1319.77 1879.04 1320.74 Q1877.47 1321.71 1877.47 1323.66 Q1877.47 1325.14 1878.6 1326 Q1879.74 1326.83 1883.16 1327.59 L1884.62 1327.92 Q1889.16 1328.89 1891.06 1330.67 Q1892.98 1332.43 1892.98 1335.6 Q1892.98 1339.21 1890.11 1341.32 Q1887.26 1343.43 1882.26 1343.43 Q1880.18 1343.43 1877.91 1343.01 Q1875.66 1342.62 1873.16 1341.81 L1873.16 1337.41 Q1875.52 1338.63 1877.81 1339.26 Q1880.11 1339.86 1882.35 1339.86 Q1885.36 1339.86 1886.98 1338.84 Q1888.6 1337.8 1888.6 1335.93 Q1888.6 1334.19 1887.42 1333.26 Q1886.26 1332.34 1882.31 1331.48 L1880.82 1331.14 Q1876.87 1330.3 1875.11 1328.59 Q1873.35 1326.85 1873.35 1323.84 Q1873.35 1320.19 1875.94 1318.2 Q1878.53 1316.2 1883.3 1316.2 Q1885.66 1316.2 1887.75 1316.55 Q1889.83 1316.9 1891.59 1317.59 Z" fill="#000000" fill-rule="nonzero" fill-opacity="1" /><path clip-path="url(#clip360)" d="M1899.76 1316.83 L1904.02 1316.83 L1904.02 1342.76 L1899.76 1342.76 L1899.76 1316.83 M1899.76 1306.74 L1904.02 1306.74 L1904.02 1312.13 L1899.76 1312.13 L1899.76 1306.74 Z" fill="#000000" fill-rule="nonzero" fill-opacity="1" /><path clip-path="url(#clip360)" d="M1933.12 1321.81 Q1934.71 1318.94 1936.93 1317.57 Q1939.16 1316.2 1942.17 1316.2 Q1946.22 1316.2 1948.42 1319.05 Q1950.62 1321.88 1950.62 1327.11 L1950.62 1342.76 L1946.33 1342.76 L1946.33 1327.25 Q1946.33 1323.52 1945.01 1321.71 Q1943.69 1319.91 1940.99 1319.91 Q1937.68 1319.91 1935.75 1322.11 Q1933.83 1324.31 1933.83 1328.1 L1933.83 1342.76 L1929.55 1342.76 L1929.55 1327.25 Q1929.55 1323.5 1928.23 1321.71 Q1926.91 1319.91 1924.16 1319.91 Q1920.89 1319.91 1918.97 1322.13 Q1917.05 1324.33 1917.05 1328.1 L1917.05 1342.76 L1912.77 1342.76 L1912.77 1316.83 L1917.05 1316.83 L1917.05 1320.86 Q1918.51 1318.47 1920.55 1317.34 Q1922.58 1316.2 1925.38 1316.2 Q1928.21 1316.2 1930.18 1317.64 Q1932.17 1319.07 1933.12 1321.81 Z" fill="#000000" fill-rule="nonzero" fill-opacity="1" /><path clip-path="url(#clip360)" d="M1987.3 1306.74 L1987.3 1310.28 L1983.23 1310.28 Q1980.94 1310.28 1980.04 1311.2 Q1979.16 1312.13 1979.16 1314.54 L1979.16 1316.83 L1986.17 1316.83 L1986.17 1320.14 L1979.16 1320.14 L1979.16 1342.76 L1974.87 1342.76 L1974.87 1320.14 L1970.8 1320.14 L1970.8 1316.83 L1974.87 1316.83 L1974.87 1315.02 Q1974.87 1310.7 1976.89 1308.73 Q1978.9 1306.74 1983.28 1306.74 L1987.3 1306.74 Z" fill="#000000" fill-rule="nonzero" fill-opacity="1" /><path clip-path="url(#clip360)" d="M1990.87 1316.83 L1995.13 1316.83 L1995.13 1342.76 L1990.87 1342.76 L1990.87 1316.83 M1990.87 1306.74 L1995.13 1306.74 L1995.13 1312.13 L1990.87 1312.13 L1990.87 1306.74 Z" fill="#000000" fill-rule="nonzero" fill-opacity="1" /><path clip-path="url(#clip360)" d="M2008.25 1309.47 L2008.25 1316.83 L2017.03 1316.83 L2017.03 1320.14 L2008.25 1320.14 L2008.25 1334.21 Q2008.25 1337.38 2009.11 1338.29 Q2009.99 1339.19 2012.65 1339.19 L2017.03 1339.19 L2017.03 1342.76 L2012.65 1342.76 Q2007.72 1342.76 2005.85 1340.93 Q2003.97 1339.07 2003.97 1334.21 L2003.97 1320.14 L2000.85 1320.14 L2000.85 1316.83 L2003.97 1316.83 L2003.97 1309.47 L2008.25 1309.47 Z" fill="#000000" fill-rule="nonzero" fill-opacity="1" /><path clip-path="url(#clip360)" d="M2053.86 1336.88 L2058.74 1336.88 L2058.74 1342.76 L2053.86 1342.76 L2053.86 1336.88 M2053.86 1318.24 L2058.74 1318.24 L2058.74 1324.12 L2053.86 1324.12 L2053.86 1318.24 Z" fill="#000000" fill-rule="nonzero" fill-opacity="1" /><path clip-path="url(#clip360)" d="M2079.92 1323.61 Q2076.77 1323.61 2074.92 1325.76 Q2073.09 1327.92 2073.09 1331.67 Q2073.09 1335.39 2074.92 1337.57 Q2076.77 1339.72 2079.92 1339.72 Q2083.07 1339.72 2084.9 1337.57 Q2086.75 1335.39 2086.75 1331.67 Q2086.75 1327.92 2084.9 1325.76 Q2083.07 1323.61 2079.92 1323.61 M2089.2 1308.96 L2089.2 1313.22 Q2087.44 1312.39 2085.64 1311.95 Q2083.86 1311.51 2082.1 1311.51 Q2077.47 1311.51 2075.01 1314.63 Q2072.58 1317.76 2072.23 1324.07 Q2073.6 1322.06 2075.66 1321 Q2077.72 1319.91 2080.2 1319.91 Q2085.41 1319.91 2088.42 1323.08 Q2091.45 1326.23 2091.45 1331.67 Q2091.45 1336.99 2088.3 1340.21 Q2085.15 1343.43 2079.92 1343.43 Q2073.92 1343.43 2070.75 1338.84 Q2067.58 1334.24 2067.58 1325.51 Q2067.58 1317.32 2071.47 1312.45 Q2075.36 1307.57 2081.91 1307.57 Q2083.67 1307.57 2085.45 1307.92 Q2087.26 1308.26 2089.2 1308.96 Z" fill="#000000" fill-rule="nonzero" fill-opacity="1" /><path clip-path="url(#clip360)" d="M2103.53 1338.82 L2119.85 1338.82 L2119.85 1342.76 L2097.91 1342.76 L2097.91 1338.82 Q2100.57 1336.07 2105.15 1331.44 Q2109.76 1326.78 2110.94 1325.44 Q2113.18 1322.92 2114.06 1321.18 Q2114.97 1319.42 2114.97 1317.73 Q2114.97 1314.98 2113.02 1313.24 Q2111.1 1311.51 2108 1311.51 Q2105.8 1311.51 2103.35 1312.27 Q2100.92 1313.03 2098.14 1314.58 L2098.14 1309.86 Q2100.96 1308.73 2103.42 1308.15 Q2105.87 1307.57 2107.91 1307.57 Q2113.28 1307.57 2116.47 1310.26 Q2119.67 1312.94 2119.67 1317.43 Q2119.67 1319.56 2118.86 1321.48 Q2118.07 1323.38 2115.96 1325.97 Q2115.38 1326.64 2112.28 1329.86 Q2109.18 1333.06 2103.53 1338.82 Z" fill="#000000" fill-rule="nonzero" fill-opacity="1" /><path clip-path="url(#clip360)" d="M2129.67 1336.88 L2134.55 1336.88 L2134.55 1342.76 L2129.67 1342.76 L2129.67 1336.88 Z" fill="#000000" fill-rule="nonzero" fill-opacity="1" /><path clip-path="url(#clip360)" d="M2155.31 1323.61 Q2152.17 1323.61 2150.31 1325.76 Q2148.48 1327.92 2148.48 1331.67 Q2148.48 1335.39 2150.31 1337.57 Q2152.17 1339.72 2155.31 1339.72 Q2158.46 1339.72 2160.29 1337.57 Q2162.14 1335.39 2162.14 1331.67 Q2162.14 1327.92 2160.29 1325.76 Q2158.46 1323.61 2155.31 1323.61 M2164.6 1308.96 L2164.6 1313.22 Q2162.84 1312.39 2161.03 1311.95 Q2159.25 1311.51 2157.49 1311.51 Q2152.86 1311.51 2150.41 1314.63 Q2147.98 1317.76 2147.63 1324.07 Q2148.99 1322.06 2151.05 1321 Q2153.11 1319.91 2155.59 1319.91 Q2160.8 1319.91 2163.81 1323.08 Q2166.84 1326.23 2166.84 1331.67 Q2166.84 1336.99 2163.69 1340.21 Q2160.54 1343.43 2155.31 1343.43 Q2149.32 1343.43 2146.15 1338.84 Q2142.98 1334.24 2142.98 1325.51 Q2142.98 1317.32 2146.86 1312.45 Q2150.75 1307.57 2157.3 1307.57 Q2159.06 1307.57 2160.85 1307.92 Q2162.65 1308.26 2164.6 1308.96 Z" fill="#000000" fill-rule="nonzero" fill-opacity="1" /><path clip-path="url(#clip360)" d="M2185.48 1323.61 Q2182.33 1323.61 2180.48 1325.76 Q2178.65 1327.92 2178.65 1331.67 Q2178.65 1335.39 2180.48 1337.57 Q2182.33 1339.72 2185.48 1339.72 Q2188.62 1339.72 2190.45 1337.57 Q2192.3 1335.39 2192.3 1331.67 Q2192.3 1327.92 2190.45 1325.76 Q2188.62 1323.61 2185.48 1323.61 M2194.76 1308.96 L2194.76 1313.22 Q2193 1312.39 2191.19 1311.95 Q2189.41 1311.51 2187.65 1311.51 Q2183.02 1311.51 2180.57 1314.63 Q2178.14 1317.76 2177.79 1324.07 Q2179.16 1322.06 2181.22 1321 Q2183.28 1319.91 2185.75 1319.91 Q2190.96 1319.91 2193.97 1323.08 Q2197 1326.23 2197 1331.67 Q2197 1336.99 2193.85 1340.21 Q2190.71 1343.43 2185.48 1343.43 Q2179.48 1343.43 2176.31 1338.84 Q2173.14 1334.24 2173.14 1325.51 Q2173.14 1317.32 2177.03 1312.45 Q2180.91 1307.57 2187.47 1307.57 Q2189.23 1307.57 2191.01 1307.92 Q2192.81 1308.26 2194.76 1308.96 Z" fill="#000000" fill-rule="nonzero" fill-opacity="1" /><path clip-path="url(#clip360)" d="M2234.46 1327.55 Q2232.44 1327.55 2231.29 1329.26 Q2230.15 1330.97 2230.15 1334.03 Q2230.15 1337.04 2231.29 1338.77 Q2232.44 1340.49 2234.46 1340.49 Q2236.42 1340.49 2237.56 1338.77 Q2238.72 1337.04 2238.72 1334.03 Q2238.72 1331 2237.56 1329.28 Q2236.42 1327.55 2234.46 1327.55 M2234.46 1324.61 Q2238.11 1324.61 2240.27 1327.15 Q2242.42 1329.7 2242.42 1334.03 Q2242.42 1338.36 2240.24 1340.9 Q2238.09 1343.43 2234.46 1343.43 Q2230.75 1343.43 2228.6 1340.9 Q2226.45 1338.36 2226.45 1334.03 Q2226.45 1329.68 2228.6 1327.15 Q2230.78 1324.61 2234.46 1324.61 M2210.57 1310.51 Q2208.58 1310.51 2207.42 1312.25 Q2206.29 1313.96 2206.29 1316.97 Q2206.29 1320.02 2207.42 1321.74 Q2208.55 1323.45 2210.57 1323.45 Q2212.58 1323.45 2213.72 1321.74 Q2214.87 1320.02 2214.87 1316.97 Q2214.87 1313.98 2213.72 1312.25 Q2212.56 1310.51 2210.57 1310.51 M2231.47 1307.57 L2235.17 1307.57 L2213.55 1343.43 L2209.85 1343.43 L2231.47 1307.57 M2210.57 1307.57 Q2214.22 1307.57 2216.4 1310.12 Q2218.58 1312.64 2218.58 1316.97 Q2218.58 1321.34 2216.4 1323.87 Q2214.25 1326.39 2210.57 1326.39 Q2206.89 1326.39 2204.73 1323.87 Q2202.6 1321.32 2202.6 1316.97 Q2202.6 1312.66 2204.76 1310.12 Q2206.91 1307.57 2210.57 1307.57 Z" fill="#000000" fill-rule="nonzero" fill-opacity="1" /></svg>
