<?xml version="1.0" encoding="utf-8"?>
<svg xmlns="http://www.w3.org/2000/svg" xmlns:xlink="http://www.w3.org/1999/xlink" width="600" height="400" viewBox="0 0 2400 1600">
<defs>
  <clipPath id="clip070">
    <rect x="0" y="0" width="2400" height="1600"/>
  </clipPath>
</defs>
<path clip-path="url(#clip070)" d="M0 1600 L2400 1600 L2400 0 L0 0  Z" fill="#ffffff" fill-rule="evenodd" fill-opacity="1"/>
<defs>
  <clipPath id="clip071">
    <rect x="480" y="0" width="1681" height="1600"/>
  </clipPath>
</defs>
<path clip-path="url(#clip070)" d="M223.103 1423.18 L2352.76 1423.18 L2352.76 123.472 L223.103 123.472  Z" fill="#ffffff" fill-rule="evenodd" fill-opacity="1"/>
<defs>
  <clipPath id="clip072">
    <rect x="223" y="123" width="2131" height="1301"/>
  </clipPath>
</defs>
<polyline clip-path="url(#clip072)" style="stroke:#000000; stroke-linecap:round; stroke-linejoin:round; stroke-width:2; stroke-opacity:0.1; fill:none" points="551.257,1423.18 551.257,123.472 "/>
<polyline clip-path="url(#clip072)" style="stroke:#000000; stroke-linecap:round; stroke-linejoin:round; stroke-width:2; stroke-opacity:0.1; fill:none" points="953.078,1423.18 953.078,123.472 "/>
<polyline clip-path="url(#clip072)" style="stroke:#000000; stroke-linecap:round; stroke-linejoin:round; stroke-width:2; stroke-opacity:0.1; fill:none" points="1354.9,1423.18 1354.9,123.472 "/>
<polyline clip-path="url(#clip072)" style="stroke:#000000; stroke-linecap:round; stroke-linejoin:round; stroke-width:2; stroke-opacity:0.1; fill:none" points="1756.72,1423.18 1756.72,123.472 "/>
<polyline clip-path="url(#clip072)" style="stroke:#000000; stroke-linecap:round; stroke-linejoin:round; stroke-width:2; stroke-opacity:0.1; fill:none" points="2158.54,1423.18 2158.54,123.472 "/>
<polyline clip-path="url(#clip070)" style="stroke:#000000; stroke-linecap:round; stroke-linejoin:round; stroke-width:4; stroke-opacity:1; fill:none" points="223.103,863.053 2352.76,863.053 "/>
<polyline clip-path="url(#clip070)" style="stroke:#000000; stroke-linecap:round; stroke-linejoin:round; stroke-width:4; stroke-opacity:0; fill:none" points="551.257,863.053 551.257,863.053 "/>
<polyline clip-path="url(#clip070)" style="stroke:#000000; stroke-linecap:round; stroke-linejoin:round; stroke-width:4; stroke-opacity:0; fill:none" points="953.078,863.053 953.078,863.053 "/>
<polyline clip-path="url(#clip070)" style="stroke:#000000; stroke-linecap:round; stroke-linejoin:round; stroke-width:4; stroke-opacity:0; fill:none" points="1354.9,863.053 1354.9,863.053 "/>
<polyline clip-path="url(#clip070)" style="stroke:#000000; stroke-linecap:round; stroke-linejoin:round; stroke-width:4; stroke-opacity:0; fill:none" points="1756.72,863.053 1756.72,863.053 "/>
<polyline clip-path="url(#clip070)" style="stroke:#000000; stroke-linecap:round; stroke-linejoin:round; stroke-width:4; stroke-opacity:0; fill:none" points="2158.54,863.053 2158.54,863.053 "/>
<path clip-path="url(#clip070)" d="M520.724 1468.75 L550.4 1468.75 L550.4 1472.69 L520.724 1472.69 L520.724 1468.75 Z" fill="#000000" fill-rule="nonzero" fill-opacity="1" /><path clip-path="url(#clip070)" d="M574.659 1466.95 Q578.016 1467.66 579.891 1469.93 Q581.789 1472.2 581.789 1475.53 Q581.789 1480.65 578.27 1483.45 Q574.752 1486.25 568.27 1486.25 Q566.095 1486.25 563.78 1485.81 Q561.488 1485.39 559.034 1484.54 L559.034 1480.02 Q560.979 1481.16 563.294 1481.74 Q565.608 1482.32 568.132 1482.32 Q572.53 1482.32 574.821 1480.58 Q577.136 1478.84 577.136 1475.53 Q577.136 1472.48 574.983 1470.77 Q572.854 1469.03 569.034 1469.03 L565.007 1469.03 L565.007 1465.19 L569.22 1465.19 Q572.669 1465.19 574.497 1463.82 Q576.326 1462.43 576.326 1459.84 Q576.326 1457.18 574.428 1455.77 Q572.553 1454.33 569.034 1454.33 Q567.113 1454.33 564.914 1454.75 Q562.715 1455.16 560.076 1456.04 L560.076 1451.88 Q562.738 1451.14 565.053 1450.77 Q567.391 1450.39 569.451 1450.39 Q574.775 1450.39 577.877 1452.83 Q580.979 1455.23 580.979 1459.35 Q580.979 1462.22 579.335 1464.21 Q577.692 1466.18 574.659 1466.95 Z" fill="#000000" fill-rule="nonzero" fill-opacity="1" /><path clip-path="url(#clip070)" d="M953.078 1454.1 Q949.467 1454.1 947.638 1457.66 Q945.833 1461.2 945.833 1468.33 Q945.833 1475.44 947.638 1479.01 Q949.467 1482.55 953.078 1482.55 Q956.712 1482.55 958.518 1479.01 Q960.347 1475.44 960.347 1468.33 Q960.347 1461.2 958.518 1457.66 Q956.712 1454.1 953.078 1454.1 M953.078 1450.39 Q958.888 1450.39 961.944 1455 Q965.022 1459.58 965.022 1468.33 Q965.022 1477.06 961.944 1481.67 Q958.888 1486.25 953.078 1486.25 Q947.268 1486.25 944.189 1481.67 Q941.134 1477.06 941.134 1468.33 Q941.134 1459.58 944.189 1455 Q947.268 1450.39 953.078 1450.39 Z" fill="#000000" fill-rule="nonzero" fill-opacity="1" /><path clip-path="url(#clip070)" d="M1359.15 1466.95 Q1362.5 1467.66 1364.38 1469.93 Q1366.28 1472.2 1366.28 1475.53 Q1366.28 1480.65 1362.76 1483.45 Q1359.24 1486.25 1352.76 1486.25 Q1350.58 1486.25 1348.27 1485.81 Q1345.98 1485.39 1343.52 1484.54 L1343.52 1480.02 Q1345.47 1481.16 1347.78 1481.74 Q1350.1 1482.32 1352.62 1482.32 Q1357.02 1482.32 1359.31 1480.58 Q1361.62 1478.84 1361.62 1475.53 Q1361.62 1472.48 1359.47 1470.77 Q1357.34 1469.03 1353.52 1469.03 L1349.49 1469.03 L1349.49 1465.19 L1353.71 1465.19 Q1357.16 1465.19 1358.99 1463.82 Q1360.81 1462.43 1360.81 1459.84 Q1360.81 1457.18 1358.92 1455.77 Q1357.04 1454.33 1353.52 1454.33 Q1351.6 1454.33 1349.4 1454.75 Q1347.2 1455.16 1344.56 1456.04 L1344.56 1451.88 Q1347.23 1451.14 1349.54 1450.77 Q1351.88 1450.39 1353.94 1450.39 Q1359.26 1450.39 1362.36 1452.83 Q1365.47 1455.23 1365.47 1459.35 Q1365.47 1462.22 1363.82 1464.21 Q1362.18 1466.18 1359.15 1466.95 Z" fill="#000000" fill-rule="nonzero" fill-opacity="1" /><path clip-path="url(#clip070)" d="M1757.13 1466.44 Q1753.98 1466.44 1752.13 1468.59 Q1750.3 1470.74 1750.3 1474.49 Q1750.3 1478.22 1752.13 1480.39 Q1753.98 1482.55 1757.13 1482.55 Q1760.27 1482.55 1762.1 1480.39 Q1763.95 1478.22 1763.95 1474.49 Q1763.95 1470.74 1762.1 1468.59 Q1760.27 1466.44 1757.13 1466.44 M1766.41 1451.78 L1766.41 1456.04 Q1764.65 1455.21 1762.84 1454.77 Q1761.06 1454.33 1759.3 1454.33 Q1754.67 1454.33 1752.22 1457.45 Q1749.79 1460.58 1749.44 1466.9 Q1750.81 1464.89 1752.87 1463.82 Q1754.93 1462.73 1757.4 1462.73 Q1762.61 1462.73 1765.62 1465.9 Q1768.65 1469.05 1768.65 1474.49 Q1768.65 1479.82 1765.51 1483.03 Q1762.36 1486.25 1757.13 1486.25 Q1751.13 1486.25 1747.96 1481.67 Q1744.79 1477.06 1744.79 1468.33 Q1744.79 1460.14 1748.68 1455.28 Q1752.57 1450.39 1759.12 1450.39 Q1760.88 1450.39 1762.66 1450.74 Q1764.46 1451.09 1766.41 1451.78 Z" fill="#000000" fill-rule="nonzero" fill-opacity="1" /><path clip-path="url(#clip070)" d="M2148.84 1484.86 L2148.84 1480.6 Q2150.6 1481.44 2152.41 1481.88 Q2154.21 1482.32 2155.95 1482.32 Q2160.58 1482.32 2163.01 1479.21 Q2165.46 1476.09 2165.81 1469.75 Q2164.47 1471.74 2162.41 1472.8 Q2160.35 1473.87 2157.85 1473.87 Q2152.66 1473.87 2149.63 1470.74 Q2146.62 1467.59 2146.62 1462.15 Q2146.62 1456.83 2149.77 1453.61 Q2152.92 1450.39 2158.15 1450.39 Q2164.14 1450.39 2167.29 1455 Q2170.46 1459.58 2170.46 1468.33 Q2170.46 1476.51 2166.57 1481.39 Q2162.71 1486.25 2156.16 1486.25 Q2154.4 1486.25 2152.59 1485.9 Q2150.79 1485.56 2148.84 1484.86 M2158.15 1470.21 Q2161.3 1470.21 2163.13 1468.06 Q2164.98 1465.9 2164.98 1462.15 Q2164.98 1458.43 2163.13 1456.27 Q2161.3 1454.1 2158.15 1454.1 Q2155 1454.1 2153.15 1456.27 Q2151.32 1458.43 2151.32 1462.15 Q2151.32 1465.9 2153.15 1468.06 Q2155 1470.21 2158.15 1470.21 Z" fill="#000000" fill-rule="nonzero" fill-opacity="1" /><path clip-path="url(#clip070)" d="M1182.34 1520.52 L1188.77 1520.52 L1188.77 1562.63 L1211.91 1562.63 L1211.91 1568.04 L1182.34 1568.04 L1182.34 1520.52 Z" fill="#000000" fill-rule="nonzero" fill-opacity="1" /><path clip-path="url(#clip070)" d="M1234.6 1550.12 Q1227.5 1550.12 1224.77 1551.75 Q1222.03 1553.37 1222.03 1557.29 Q1222.03 1560.4 1224.07 1562.25 Q1226.13 1564.07 1229.67 1564.07 Q1234.54 1564.07 1237.47 1560.63 Q1240.43 1557.16 1240.43 1551.43 L1240.43 1550.12 L1234.6 1550.12 M1246.28 1547.71 L1246.28 1568.04 L1240.43 1568.04 L1240.43 1562.63 Q1238.42 1565.88 1235.43 1567.44 Q1232.44 1568.97 1228.11 1568.97 Q1222.63 1568.97 1219.39 1565.91 Q1216.17 1562.82 1216.17 1557.67 Q1216.17 1551.65 1220.18 1548.6 Q1224.22 1545.54 1232.21 1545.54 L1240.43 1545.54 L1240.43 1544.97 Q1240.43 1540.93 1237.75 1538.73 Q1235.11 1536.5 1230.3 1536.5 Q1227.25 1536.5 1224.35 1537.23 Q1221.46 1537.97 1218.78 1539.43 L1218.78 1534.02 Q1222 1532.78 1225.02 1532.17 Q1228.04 1531.54 1230.91 1531.54 Q1238.64 1531.54 1242.46 1535.55 Q1246.28 1539.56 1246.28 1547.71 Z" fill="#000000" fill-rule="nonzero" fill-opacity="1" /><path clip-path="url(#clip070)" d="M1281.8 1549.81 Q1281.8 1543.44 1279.16 1539.94 Q1276.55 1536.44 1271.81 1536.44 Q1267.1 1536.44 1264.46 1539.94 Q1261.85 1543.44 1261.85 1549.81 Q1261.85 1556.14 1264.46 1559.64 Q1267.1 1563.14 1271.81 1563.14 Q1276.55 1563.14 1279.16 1559.64 Q1281.8 1556.14 1281.8 1549.81 M1287.66 1563.62 Q1287.66 1572.72 1283.62 1577.15 Q1279.57 1581.6 1271.24 1581.6 Q1268.15 1581.6 1265.41 1581.13 Q1262.67 1580.68 1260.1 1579.72 L1260.1 1574.03 Q1262.67 1575.43 1265.19 1576.1 Q1267.7 1576.76 1270.31 1576.76 Q1276.07 1576.76 1278.94 1573.74 Q1281.8 1570.75 1281.8 1564.67 L1281.8 1561.77 Q1279.99 1564.92 1277.16 1566.48 Q1274.32 1568.04 1270.38 1568.04 Q1263.82 1568.04 1259.81 1563.05 Q1255.8 1558.05 1255.8 1549.81 Q1255.8 1541.53 1259.81 1536.53 Q1263.82 1531.54 1270.38 1531.54 Q1274.32 1531.54 1277.16 1533.1 Q1279.99 1534.66 1281.8 1537.81 L1281.8 1532.4 L1287.66 1532.4 L1287.66 1563.62 Z" fill="#000000" fill-rule="nonzero" fill-opacity="1" /><path clip-path="url(#clip070)" d="M1319.9 1518.52 L1333.4 1518.52 L1333.4 1523.07 L1325.76 1523.07 L1325.76 1572.09 L1333.4 1572.09 L1333.4 1576.64 L1319.9 1576.64 L1319.9 1518.52 Z" fill="#000000" fill-rule="nonzero" fill-opacity="1" /><path clip-path="url(#clip070)" d="M1368.6 1533.45 L1368.6 1538.98 Q1366.12 1537.71 1363.44 1537.07 Q1360.77 1536.44 1357.9 1536.44 Q1353.54 1536.44 1351.35 1537.77 Q1349.18 1539.11 1349.18 1541.79 Q1349.18 1543.82 1350.74 1545 Q1352.3 1546.15 1357.01 1547.2 L1359.02 1547.64 Q1365.26 1548.98 1367.87 1551.43 Q1370.51 1553.85 1370.51 1558.21 Q1370.51 1563.17 1366.56 1566.07 Q1362.65 1568.97 1355.77 1568.97 Q1352.91 1568.97 1349.79 1568.39 Q1346.7 1567.85 1343.26 1566.74 L1343.26 1560.69 Q1346.51 1562.38 1349.66 1563.24 Q1352.81 1564.07 1355.9 1564.07 Q1360.04 1564.07 1362.26 1562.66 Q1364.49 1561.23 1364.49 1558.65 Q1364.49 1556.27 1362.87 1554.99 Q1361.28 1553.72 1355.84 1552.54 L1353.8 1552.07 Q1348.36 1550.92 1345.94 1548.56 Q1343.52 1546.18 1343.52 1542.04 Q1343.52 1537.01 1347.08 1534.27 Q1350.65 1531.54 1357.2 1531.54 Q1360.45 1531.54 1363.32 1532.01 Q1366.18 1532.49 1368.6 1533.45 Z" fill="#000000" fill-rule="nonzero" fill-opacity="1" /><path clip-path="url(#clip070)" d="M1393.52 1518.52 L1393.52 1576.64 L1380.03 1576.64 L1380.03 1572.09 L1387.63 1572.09 L1387.63 1523.07 L1380.03 1523.07 L1380.03 1518.52 L1393.52 1518.52 Z" fill="#000000" fill-rule="nonzero" fill-opacity="1" /><polyline clip-path="url(#clip072)" style="stroke:#000000; stroke-linecap:round; stroke-linejoin:round; stroke-width:2; stroke-opacity:0.1; fill:none" points="223.103,1168.67 2352.76,1168.67 "/>
<polyline clip-path="url(#clip072)" style="stroke:#000000; stroke-linecap:round; stroke-linejoin:round; stroke-width:2; stroke-opacity:0.1; fill:none" points="223.103,863.053 2352.76,863.053 "/>
<polyline clip-path="url(#clip072)" style="stroke:#000000; stroke-linecap:round; stroke-linejoin:round; stroke-width:2; stroke-opacity:0.1; fill:none" points="223.103,557.438 2352.76,557.438 "/>
<polyline clip-path="url(#clip072)" style="stroke:#000000; stroke-linecap:round; stroke-linejoin:round; stroke-width:2; stroke-opacity:0.1; fill:none" points="223.103,251.824 2352.76,251.824 "/>
<polyline clip-path="url(#clip070)" style="stroke:#000000; stroke-linecap:round; stroke-linejoin:round; stroke-width:4; stroke-opacity:1; fill:none" points="953.078,1423.18 953.078,123.472 "/>
<polyline clip-path="url(#clip070)" style="stroke:#000000; stroke-linecap:round; stroke-linejoin:round; stroke-width:4; stroke-opacity:0; fill:none" points="953.078,1168.67 953.078,1168.67 "/>
<polyline clip-path="url(#clip070)" style="stroke:#000000; stroke-linecap:round; stroke-linejoin:round; stroke-width:4; stroke-opacity:0; fill:none" points="953.078,863.053 953.078,863.053 "/>
<polyline clip-path="url(#clip070)" style="stroke:#000000; stroke-linecap:round; stroke-linejoin:round; stroke-width:4; stroke-opacity:0; fill:none" points="953.078,557.438 953.078,557.438 "/>
<polyline clip-path="url(#clip070)" style="stroke:#000000; stroke-linecap:round; stroke-linejoin:round; stroke-width:4; stroke-opacity:0; fill:none" points="953.078,251.824 953.078,251.824 "/>
<path clip-path="url(#clip070)" d="M50.9921 1169.12 L80.6679 1169.12 L80.6679 1173.05 L50.9921 1173.05 L50.9921 1169.12 Z" fill="#000000" fill-rule="nonzero" fill-opacity="1" /><path clip-path="url(#clip070)" d="M100.76 1154.47 Q97.1493 1154.47 95.3206 1158.03 Q93.515 1161.57 93.515 1168.7 Q93.515 1175.81 95.3206 1179.37 Q97.1493 1182.92 100.76 1182.92 Q104.395 1182.92 106.2 1179.37 Q108.029 1175.81 108.029 1168.7 Q108.029 1161.57 106.2 1158.03 Q104.395 1154.47 100.76 1154.47 M100.76 1150.76 Q106.571 1150.76 109.626 1155.37 Q112.705 1159.95 112.705 1168.7 Q112.705 1177.43 109.626 1182.04 Q106.571 1186.62 100.76 1186.62 Q94.9502 1186.62 91.8715 1182.04 Q88.816 1177.43 88.816 1168.7 Q88.816 1159.95 91.8715 1155.37 Q94.9502 1150.76 100.76 1150.76 Z" fill="#000000" fill-rule="nonzero" fill-opacity="1" /><path clip-path="url(#clip070)" d="M120.922 1180.07 L125.807 1180.07 L125.807 1185.95 L120.922 1185.95 L120.922 1180.07 Z" fill="#000000" fill-rule="nonzero" fill-opacity="1" /><path clip-path="url(#clip070)" d="M140.019 1182.01 L156.339 1182.01 L156.339 1185.95 L134.394 1185.95 L134.394 1182.01 Q137.056 1179.26 141.64 1174.63 Q146.246 1169.98 147.427 1168.63 Q149.672 1166.11 150.552 1164.37 Q151.455 1162.61 151.455 1160.92 Q151.455 1158.17 149.51 1156.43 Q147.589 1154.7 144.487 1154.7 Q142.288 1154.7 139.834 1155.46 Q137.404 1156.23 134.626 1157.78 L134.626 1153.05 Q137.45 1151.92 139.904 1151.34 Q142.357 1150.76 144.394 1150.76 Q149.765 1150.76 152.959 1153.45 Q156.154 1156.13 156.154 1160.62 Q156.154 1162.75 155.343 1164.67 Q154.556 1166.57 152.45 1169.17 Q151.871 1169.84 148.769 1173.05 Q145.668 1176.25 140.019 1182.01 Z" fill="#000000" fill-rule="nonzero" fill-opacity="1" /><path clip-path="url(#clip070)" d="M166.2 1151.39 L184.556 1151.39 L184.556 1155.32 L170.482 1155.32 L170.482 1163.8 Q171.501 1163.45 172.519 1163.29 Q173.538 1163.1 174.556 1163.1 Q180.343 1163.1 183.723 1166.27 Q187.103 1169.44 187.103 1174.86 Q187.103 1180.44 183.63 1183.54 Q180.158 1186.62 173.839 1186.62 Q171.663 1186.62 169.394 1186.25 Q167.149 1185.88 164.742 1185.14 L164.742 1180.44 Q166.825 1181.57 169.047 1182.13 Q171.269 1182.68 173.746 1182.68 Q177.751 1182.68 180.089 1180.58 Q182.427 1178.47 182.427 1174.86 Q182.427 1171.25 180.089 1169.14 Q177.751 1167.04 173.746 1167.04 Q171.871 1167.04 169.996 1167.45 Q168.144 1167.87 166.2 1168.75 L166.2 1151.39 Z" fill="#000000" fill-rule="nonzero" fill-opacity="1" /><path clip-path="url(#clip070)" d="M99.765 848.852 Q96.1539 848.852 94.3252 852.417 Q92.5197 855.958 92.5197 863.088 Q92.5197 870.194 94.3252 873.759 Q96.1539 877.301 99.765 877.301 Q103.399 877.301 105.205 873.759 Q107.033 870.194 107.033 863.088 Q107.033 855.958 105.205 852.417 Q103.399 848.852 99.765 848.852 M99.765 845.148 Q105.575 845.148 108.631 849.755 Q111.709 854.338 111.709 863.088 Q111.709 871.815 108.631 876.421 Q105.575 881.004 99.765 881.004 Q93.9549 881.004 90.8762 876.421 Q87.8206 871.815 87.8206 863.088 Q87.8206 854.338 90.8762 849.755 Q93.9549 845.148 99.765 845.148 Z" fill="#000000" fill-rule="nonzero" fill-opacity="1" /><path clip-path="url(#clip070)" d="M119.927 874.454 L124.811 874.454 L124.811 880.333 L119.927 880.333 L119.927 874.454 Z" fill="#000000" fill-rule="nonzero" fill-opacity="1" /><path clip-path="url(#clip070)" d="M144.996 848.852 Q141.385 848.852 139.556 852.417 Q137.751 855.958 137.751 863.088 Q137.751 870.194 139.556 873.759 Q141.385 877.301 144.996 877.301 Q148.63 877.301 150.436 873.759 Q152.265 870.194 152.265 863.088 Q152.265 855.958 150.436 852.417 Q148.63 848.852 144.996 848.852 M144.996 845.148 Q150.806 845.148 153.862 849.755 Q156.941 854.338 156.941 863.088 Q156.941 871.815 153.862 876.421 Q150.806 881.004 144.996 881.004 Q139.186 881.004 136.107 876.421 Q133.052 871.815 133.052 863.088 Q133.052 854.338 136.107 849.755 Q139.186 845.148 144.996 845.148 Z" fill="#000000" fill-rule="nonzero" fill-opacity="1" /><path clip-path="url(#clip070)" d="M175.158 848.852 Q171.547 848.852 169.718 852.417 Q167.913 855.958 167.913 863.088 Q167.913 870.194 169.718 873.759 Q171.547 877.301 175.158 877.301 Q178.792 877.301 180.598 873.759 Q182.427 870.194 182.427 863.088 Q182.427 855.958 180.598 852.417 Q178.792 848.852 175.158 848.852 M175.158 845.148 Q180.968 845.148 184.024 849.755 Q187.103 854.338 187.103 863.088 Q187.103 871.815 184.024 876.421 Q180.968 881.004 175.158 881.004 Q169.348 881.004 166.269 876.421 Q163.214 871.815 163.214 863.088 Q163.214 854.338 166.269 849.755 Q169.348 845.148 175.158 845.148 Z" fill="#000000" fill-rule="nonzero" fill-opacity="1" /><path clip-path="url(#clip070)" d="M100.76 543.237 Q97.1493 543.237 95.3206 546.802 Q93.515 550.343 93.515 557.473 Q93.515 564.58 95.3206 568.144 Q97.1493 571.686 100.76 571.686 Q104.395 571.686 106.2 568.144 Q108.029 564.58 108.029 557.473 Q108.029 550.343 106.2 546.802 Q104.395 543.237 100.76 543.237 M100.76 539.533 Q106.571 539.533 109.626 544.14 Q112.705 548.723 112.705 557.473 Q112.705 566.2 109.626 570.806 Q106.571 575.39 100.76 575.39 Q94.9502 575.39 91.8715 570.806 Q88.816 566.2 88.816 557.473 Q88.816 548.723 91.8715 544.14 Q94.9502 539.533 100.76 539.533 Z" fill="#000000" fill-rule="nonzero" fill-opacity="1" /><path clip-path="url(#clip070)" d="M120.922 568.839 L125.807 568.839 L125.807 574.718 L120.922 574.718 L120.922 568.839 Z" fill="#000000" fill-rule="nonzero" fill-opacity="1" /><path clip-path="url(#clip070)" d="M140.019 570.783 L156.339 570.783 L156.339 574.718 L134.394 574.718 L134.394 570.783 Q137.056 568.029 141.64 563.399 Q146.246 558.746 147.427 557.404 Q149.672 554.881 150.552 553.144 Q151.455 551.385 151.455 549.695 Q151.455 546.941 149.51 545.205 Q147.589 543.469 144.487 543.469 Q142.288 543.469 139.834 544.232 Q137.404 544.996 134.626 546.547 L134.626 541.825 Q137.45 540.691 139.904 540.112 Q142.357 539.533 144.394 539.533 Q149.765 539.533 152.959 542.219 Q156.154 544.904 156.154 549.394 Q156.154 551.524 155.343 553.445 Q154.556 555.343 152.45 557.936 Q151.871 558.607 148.769 561.825 Q145.668 565.019 140.019 570.783 Z" fill="#000000" fill-rule="nonzero" fill-opacity="1" /><path clip-path="url(#clip070)" d="M166.2 540.158 L184.556 540.158 L184.556 544.094 L170.482 544.094 L170.482 552.566 Q171.501 552.218 172.519 552.056 Q173.538 551.871 174.556 551.871 Q180.343 551.871 183.723 555.043 Q187.103 558.214 187.103 563.63 Q187.103 569.209 183.63 572.311 Q180.158 575.39 173.839 575.39 Q171.663 575.39 169.394 575.019 Q167.149 574.649 164.742 573.908 L164.742 569.209 Q166.825 570.343 169.047 570.899 Q171.269 571.454 173.746 571.454 Q177.751 571.454 180.089 569.348 Q182.427 567.242 182.427 563.63 Q182.427 560.019 180.089 557.913 Q177.751 555.806 173.746 555.806 Q171.871 555.806 169.996 556.223 Q168.144 556.64 166.2 557.519 L166.2 540.158 Z" fill="#000000" fill-rule="nonzero" fill-opacity="1" /><path clip-path="url(#clip070)" d="M99.765 237.622 Q96.1539 237.622 94.3252 241.187 Q92.5197 244.729 92.5197 251.858 Q92.5197 258.965 94.3252 262.53 Q96.1539 266.071 99.765 266.071 Q103.399 266.071 105.205 262.53 Q107.033 258.965 107.033 251.858 Q107.033 244.729 105.205 241.187 Q103.399 237.622 99.765 237.622 M99.765 233.919 Q105.575 233.919 108.631 238.525 Q111.709 243.108 111.709 251.858 Q111.709 260.585 108.631 265.192 Q105.575 269.775 99.765 269.775 Q93.9549 269.775 90.8762 265.192 Q87.8206 260.585 87.8206 251.858 Q87.8206 243.108 90.8762 238.525 Q93.9549 233.919 99.765 233.919 Z" fill="#000000" fill-rule="nonzero" fill-opacity="1" /><path clip-path="url(#clip070)" d="M119.927 263.224 L124.811 263.224 L124.811 269.104 L119.927 269.104 L119.927 263.224 Z" fill="#000000" fill-rule="nonzero" fill-opacity="1" /><path clip-path="url(#clip070)" d="M135.043 234.544 L153.399 234.544 L153.399 238.479 L139.325 238.479 L139.325 246.951 Q140.343 246.604 141.362 246.442 Q142.381 246.256 143.399 246.256 Q149.186 246.256 152.566 249.428 Q155.945 252.599 155.945 258.016 Q155.945 263.594 152.473 266.696 Q149.001 269.775 142.681 269.775 Q140.506 269.775 138.237 269.405 Q135.992 269.034 133.584 268.293 L133.584 263.594 Q135.668 264.729 137.89 265.284 Q140.112 265.84 142.589 265.84 Q146.593 265.84 148.931 263.733 Q151.269 261.627 151.269 258.016 Q151.269 254.405 148.931 252.298 Q146.593 250.192 142.589 250.192 Q140.714 250.192 138.839 250.608 Q136.987 251.025 135.043 251.905 L135.043 234.544 Z" fill="#000000" fill-rule="nonzero" fill-opacity="1" /><path clip-path="url(#clip070)" d="M175.158 237.622 Q171.547 237.622 169.718 241.187 Q167.913 244.729 167.913 251.858 Q167.913 258.965 169.718 262.53 Q171.547 266.071 175.158 266.071 Q178.792 266.071 180.598 262.53 Q182.427 258.965 182.427 251.858 Q182.427 244.729 180.598 241.187 Q178.792 237.622 175.158 237.622 M175.158 233.919 Q180.968 233.919 184.024 238.525 Q187.103 243.108 187.103 251.858 Q187.103 260.585 184.024 265.192 Q180.968 269.775 175.158 269.775 Q169.348 269.775 166.269 265.192 Q163.214 260.585 163.214 251.858 Q163.214 243.108 166.269 238.525 Q169.348 233.919 175.158 233.919 Z" fill="#000000" fill-rule="nonzero" fill-opacity="1" /><path clip-path="url(#clip070)" d="M671.402 12.096 L679.585 12.096 L679.585 72.576 L671.402 72.576 L671.402 12.096 Z" fill="#000000" fill-rule="nonzero" fill-opacity="1" /><path clip-path="url(#clip070)" d="M733.259 45.1919 L733.259 72.576 L725.805 72.576 L725.805 45.4349 Q725.805 38.994 723.294 35.7938 Q720.782 32.5936 715.759 32.5936 Q709.723 32.5936 706.24 36.4419 Q702.756 40.2903 702.756 46.9338 L702.756 72.576 L695.262 72.576 L695.262 27.2059 L702.756 27.2059 L702.756 34.2544 Q705.429 30.163 709.035 28.1376 Q712.681 26.1121 717.42 26.1121 Q725.238 26.1121 729.249 30.9732 Q733.259 35.7938 733.259 45.1919 Z" fill="#000000" fill-rule="nonzero" fill-opacity="1" /><path clip-path="url(#clip070)" d="M755.337 65.7705 L755.337 89.8329 L747.842 89.8329 L747.842 27.2059 L755.337 27.2059 L755.337 34.0924 Q757.686 30.0415 761.251 28.0971 Q764.856 26.1121 769.839 26.1121 Q778.103 26.1121 783.247 32.6746 Q788.432 39.2371 788.432 49.9314 Q788.432 60.6258 783.247 67.1883 Q778.103 73.7508 769.839 73.7508 Q764.856 73.7508 761.251 71.8063 Q757.686 69.8214 755.337 65.7705 M780.695 49.9314 Q780.695 41.7081 777.292 37.0496 Q773.93 32.3505 768.016 32.3505 Q762.102 32.3505 758.699 37.0496 Q755.337 41.7081 755.337 49.9314 Q755.337 58.1548 758.699 62.8538 Q762.102 67.5124 768.016 67.5124 Q773.93 67.5124 777.292 62.8538 Q780.695 58.1548 780.695 49.9314 Z" fill="#000000" fill-rule="nonzero" fill-opacity="1" /><path clip-path="url(#clip070)" d="M800.018 54.671 L800.018 27.2059 L807.472 27.2059 L807.472 54.3874 Q807.472 60.8284 809.983 64.0691 Q812.495 67.2693 817.518 67.2693 Q823.554 67.2693 827.038 63.421 Q830.562 59.5726 830.562 52.9291 L830.562 27.2059 L838.016 27.2059 L838.016 72.576 L830.562 72.576 L830.562 65.6084 Q827.848 69.7404 824.242 71.7658 Q820.678 73.7508 815.938 73.7508 Q808.12 73.7508 804.069 68.8897 Q800.018 64.0286 800.018 54.671 M818.774 26.1121 L818.774 26.1121 Z" fill="#000000" fill-rule="nonzero" fill-opacity="1" /><path clip-path="url(#clip070)" d="M860.741 14.324 L860.741 27.2059 L876.094 27.2059 L876.094 32.9987 L860.741 32.9987 L860.741 57.6282 Q860.741 63.1779 862.24 64.7578 Q863.779 66.3376 868.438 66.3376 L876.094 66.3376 L876.094 72.576 L868.438 72.576 Q859.809 72.576 856.528 69.3758 Q853.247 66.1351 853.247 57.6282 L853.247 32.9987 L847.778 32.9987 L847.778 27.2059 L853.247 27.2059 L853.247 14.324 L860.741 14.324 Z" fill="#000000" fill-rule="nonzero" fill-opacity="1" /><path clip-path="url(#clip070)" d="M882.13 46.5287 L903.964 46.5287 L903.964 53.1722 L882.13 53.1722 L882.13 46.5287 Z" fill="#000000" fill-rule="nonzero" fill-opacity="1" /><path clip-path="url(#clip070)" d="M943.015 17.6457 Q934.103 17.6457 928.837 24.2892 Q923.611 30.9327 923.611 42.3968 Q923.611 53.8203 928.837 60.4638 Q934.103 67.1073 943.015 67.1073 Q951.927 67.1073 957.112 60.4638 Q962.338 53.8203 962.338 42.3968 Q962.338 30.9327 957.112 24.2892 Q951.927 17.6457 943.015 17.6457 M943.015 11.0023 Q955.735 11.0023 963.351 19.5497 Q970.966 28.0566 970.966 42.3968 Q970.966 56.6965 963.351 65.2439 Q955.735 73.7508 943.015 73.7508 Q930.255 73.7508 922.598 65.2439 Q914.983 56.737 914.983 42.3968 Q914.983 28.0566 922.598 19.5497 Q930.255 11.0023 943.015 11.0023 Z" fill="#000000" fill-rule="nonzero" fill-opacity="1" /><path clip-path="url(#clip070)" d="M982.673 54.671 L982.673 27.2059 L990.127 27.2059 L990.127 54.3874 Q990.127 60.8284 992.639 64.0691 Q995.15 67.2693 1000.17 67.2693 Q1006.21 67.2693 1009.69 63.421 Q1013.22 59.5726 1013.22 52.9291 L1013.22 27.2059 L1020.67 27.2059 L1020.67 72.576 L1013.22 72.576 L1013.22 65.6084 Q1010.5 69.7404 1006.9 71.7658 Q1003.33 73.7508 998.593 73.7508 Q990.775 73.7508 986.724 68.8897 Q982.673 64.0286 982.673 54.671 M1001.43 26.1121 L1001.43 26.1121 Z" fill="#000000" fill-rule="nonzero" fill-opacity="1" /><path clip-path="url(#clip070)" d="M1043.4 14.324 L1043.4 27.2059 L1058.75 27.2059 L1058.75 32.9987 L1043.4 32.9987 L1043.4 57.6282 Q1043.4 63.1779 1044.9 64.7578 Q1046.43 66.3376 1051.09 66.3376 L1058.75 66.3376 L1058.75 72.576 L1051.09 72.576 Q1042.46 72.576 1039.18 69.3758 Q1035.9 66.1351 1035.9 57.6282 L1035.9 32.9987 L1030.43 32.9987 L1030.43 27.2059 L1035.9 27.2059 L1035.9 14.324 L1043.4 14.324 Z" fill="#000000" fill-rule="nonzero" fill-opacity="1" /><path clip-path="url(#clip070)" d="M1075.76 65.7705 L1075.76 89.8329 L1068.27 89.8329 L1068.27 27.2059 L1075.76 27.2059 L1075.76 34.0924 Q1078.11 30.0415 1081.68 28.0971 Q1085.28 26.1121 1090.27 26.1121 Q1098.53 26.1121 1103.67 32.6746 Q1108.86 39.2371 1108.86 49.9314 Q1108.86 60.6258 1103.67 67.1883 Q1098.53 73.7508 1090.27 73.7508 Q1085.28 73.7508 1081.68 71.8063 Q1078.11 69.8214 1075.76 65.7705 M1101.12 49.9314 Q1101.12 41.7081 1097.72 37.0496 Q1094.36 32.3505 1088.44 32.3505 Q1082.53 32.3505 1079.13 37.0496 Q1075.76 41.7081 1075.76 49.9314 Q1075.76 58.1548 1079.13 62.8538 Q1082.53 67.5124 1088.44 67.5124 Q1094.36 67.5124 1097.72 62.8538 Q1101.12 58.1548 1101.12 49.9314 Z" fill="#000000" fill-rule="nonzero" fill-opacity="1" /><path clip-path="url(#clip070)" d="M1120.44 54.671 L1120.44 27.2059 L1127.9 27.2059 L1127.9 54.3874 Q1127.9 60.8284 1130.41 64.0691 Q1132.92 67.2693 1137.94 67.2693 Q1143.98 67.2693 1147.46 63.421 Q1150.99 59.5726 1150.99 52.9291 L1150.99 27.2059 L1158.44 27.2059 L1158.44 72.576 L1150.99 72.576 L1150.99 65.6084 Q1148.27 69.7404 1144.67 71.7658 Q1141.1 73.7508 1136.36 73.7508 Q1128.55 73.7508 1124.5 68.8897 Q1120.44 64.0286 1120.44 54.671 M1139.2 26.1121 L1139.2 26.1121 Z" fill="#000000" fill-rule="nonzero" fill-opacity="1" /><path clip-path="url(#clip070)" d="M1181.17 14.324 L1181.17 27.2059 L1196.52 27.2059 L1196.52 32.9987 L1181.17 32.9987 L1181.17 57.6282 Q1181.17 63.1779 1182.67 64.7578 Q1184.21 66.3376 1188.86 66.3376 L1196.52 66.3376 L1196.52 72.576 L1188.86 72.576 Q1180.24 72.576 1176.95 69.3758 Q1173.67 66.1351 1173.67 57.6282 L1173.67 32.9987 L1168.2 32.9987 L1168.2 27.2059 L1173.67 27.2059 L1173.67 14.324 L1181.17 14.324 Z" fill="#000000" fill-rule="nonzero" fill-opacity="1" /><path clip-path="url(#clip070)" d="M1265.35 28.9478 L1265.35 35.9153 Q1262.19 34.1734 1258.99 33.3227 Q1255.83 32.4315 1252.59 32.4315 Q1245.33 32.4315 1241.32 37.0496 Q1237.31 41.6271 1237.31 49.9314 Q1237.31 58.2358 1241.32 62.8538 Q1245.33 67.4314 1252.59 67.4314 Q1255.83 67.4314 1258.99 66.5807 Q1262.19 65.6895 1265.35 63.9476 L1265.35 70.8341 Q1262.23 72.2924 1258.86 73.0216 Q1255.54 73.7508 1251.77 73.7508 Q1241.53 73.7508 1235.49 67.3098 Q1229.45 60.8689 1229.45 49.9314 Q1229.45 38.832 1235.53 32.472 Q1241.65 26.1121 1252.26 26.1121 Q1255.7 26.1121 1258.99 26.8413 Q1262.27 27.5299 1265.35 28.9478 Z" fill="#000000" fill-rule="nonzero" fill-opacity="1" /><path clip-path="url(#clip070)" d="M1304.6 34.1734 Q1303.34 33.4443 1301.84 33.1202 Q1300.39 32.7556 1298.6 32.7556 Q1292.28 32.7556 1288.88 36.8875 Q1285.52 40.9789 1285.52 48.6757 L1285.52 72.576 L1278.02 72.576 L1278.02 27.2059 L1285.52 27.2059 L1285.52 34.2544 Q1287.87 30.1225 1291.64 28.1376 Q1295.4 26.1121 1300.79 26.1121 Q1301.56 26.1121 1302.49 26.2337 Q1303.42 26.3147 1304.56 26.5172 L1304.6 34.1734 Z" fill="#000000" fill-rule="nonzero" fill-opacity="1" /><path clip-path="url(#clip070)" d="M1328.17 32.4315 Q1322.18 32.4315 1318.7 37.1306 Q1315.21 41.7891 1315.21 49.9314 Q1315.21 58.0738 1318.66 62.7728 Q1322.14 67.4314 1328.17 67.4314 Q1334.13 67.4314 1337.61 62.7323 Q1341.1 58.0333 1341.1 49.9314 Q1341.1 41.8701 1337.61 37.1711 Q1334.13 32.4315 1328.17 32.4315 M1328.17 26.1121 Q1337.9 26.1121 1343.45 32.4315 Q1349 38.7509 1349 49.9314 Q1349 61.0714 1343.45 67.4314 Q1337.9 73.7508 1328.17 73.7508 Q1318.41 73.7508 1312.86 67.4314 Q1307.35 61.0714 1307.35 49.9314 Q1307.35 38.7509 1312.86 32.4315 Q1318.41 26.1121 1328.17 26.1121 Z" fill="#000000" fill-rule="nonzero" fill-opacity="1" /><path clip-path="url(#clip070)" d="M1390.28 28.5427 L1390.28 35.5912 Q1387.12 33.9709 1383.71 33.1607 Q1380.31 32.3505 1376.66 32.3505 Q1371.11 32.3505 1368.32 34.0519 Q1365.56 35.7533 1365.56 39.156 Q1365.56 41.7486 1367.55 43.2475 Q1369.53 44.7058 1375.53 46.0426 L1378.08 46.6097 Q1386.02 48.3111 1389.34 51.4303 Q1392.71 54.509 1392.71 60.0587 Q1392.71 66.3781 1387.68 70.0644 Q1382.7 73.7508 1373.95 73.7508 Q1370.3 73.7508 1366.33 73.0216 Q1362.41 72.3329 1358.03 70.9151 L1358.03 63.2184 Q1362.16 65.3654 1366.17 66.4591 Q1370.18 67.5124 1374.11 67.5124 Q1379.38 67.5124 1382.21 65.73 Q1385.05 63.9071 1385.05 60.6258 Q1385.05 57.5877 1382.98 55.9673 Q1380.96 54.3469 1374.03 52.8481 L1371.44 52.2405 Q1364.51 50.7821 1361.43 47.7845 Q1358.35 44.7463 1358.35 39.4801 Q1358.35 33.0797 1362.89 29.5959 Q1367.43 26.1121 1375.77 26.1121 Q1379.9 26.1121 1383.55 26.7198 Q1387.2 27.3274 1390.28 28.5427 Z" fill="#000000" fill-rule="nonzero" fill-opacity="1" /><path clip-path="url(#clip070)" d="M1433.5 28.5427 L1433.5 35.5912 Q1430.34 33.9709 1426.94 33.1607 Q1423.53 32.3505 1419.89 32.3505 Q1414.34 32.3505 1411.54 34.0519 Q1408.79 35.7533 1408.79 39.156 Q1408.79 41.7486 1410.77 43.2475 Q1412.76 44.7058 1418.75 46.0426 L1421.31 46.6097 Q1429.25 48.3111 1432.57 51.4303 Q1435.93 54.509 1435.93 60.0587 Q1435.93 66.3781 1430.91 70.0644 Q1425.92 73.7508 1417.17 73.7508 Q1413.53 73.7508 1409.56 73.0216 Q1405.63 72.3329 1401.25 70.9151 L1401.25 63.2184 Q1405.39 65.3654 1409.4 66.4591 Q1413.41 67.5124 1417.34 67.5124 Q1422.6 67.5124 1425.44 65.73 Q1428.27 63.9071 1428.27 60.6258 Q1428.27 57.5877 1426.21 55.9673 Q1424.18 54.3469 1417.25 52.8481 L1414.66 52.2405 Q1407.73 50.7821 1404.66 47.7845 Q1401.58 44.7463 1401.58 39.4801 Q1401.58 33.0797 1406.11 29.5959 Q1410.65 26.1121 1419 26.1121 Q1423.13 26.1121 1426.77 26.7198 Q1430.42 27.3274 1433.5 28.5427 Z" fill="#000000" fill-rule="nonzero" fill-opacity="1" /><path clip-path="url(#clip070)" d="M1506.82 28.9478 L1506.82 35.9153 Q1503.66 34.1734 1500.46 33.3227 Q1497.3 32.4315 1494.06 32.4315 Q1486.81 32.4315 1482.8 37.0496 Q1478.79 41.6271 1478.79 49.9314 Q1478.79 58.2358 1482.8 62.8538 Q1486.81 67.4314 1494.06 67.4314 Q1497.3 67.4314 1500.46 66.5807 Q1503.66 65.6895 1506.82 63.9476 L1506.82 70.8341 Q1503.7 72.2924 1500.34 73.0216 Q1497.02 73.7508 1493.25 73.7508 Q1483 73.7508 1476.96 67.3098 Q1470.93 60.8689 1470.93 49.9314 Q1470.93 38.832 1477.01 32.472 Q1483.12 26.1121 1493.74 26.1121 Q1497.18 26.1121 1500.46 26.8413 Q1503.74 27.5299 1506.82 28.9478 Z" fill="#000000" fill-rule="nonzero" fill-opacity="1" /><path clip-path="url(#clip070)" d="M1537.36 32.4315 Q1531.37 32.4315 1527.88 37.1306 Q1524.4 41.7891 1524.4 49.9314 Q1524.4 58.0738 1527.84 62.7728 Q1531.33 67.4314 1537.36 67.4314 Q1543.32 67.4314 1546.8 62.7323 Q1550.29 58.0333 1550.29 49.9314 Q1550.29 41.8701 1546.8 37.1711 Q1543.32 32.4315 1537.36 32.4315 M1537.36 26.1121 Q1547.09 26.1121 1552.64 32.4315 Q1558.19 38.7509 1558.19 49.9314 Q1558.19 61.0714 1552.64 67.4314 Q1547.09 73.7508 1537.36 73.7508 Q1527.6 73.7508 1522.05 67.4314 Q1516.54 61.0714 1516.54 49.9314 Q1516.54 38.7509 1522.05 32.4315 Q1527.6 26.1121 1537.36 26.1121 Z" fill="#000000" fill-rule="nonzero" fill-opacity="1" /><path clip-path="url(#clip070)" d="M1596.83 34.1734 Q1595.58 33.4443 1594.08 33.1202 Q1592.62 32.7556 1590.84 32.7556 Q1584.52 32.7556 1581.11 36.8875 Q1577.75 40.9789 1577.75 48.6757 L1577.75 72.576 L1570.26 72.576 L1570.26 27.2059 L1577.75 27.2059 L1577.75 34.2544 Q1580.1 30.1225 1583.87 28.1376 Q1587.64 26.1121 1593.02 26.1121 Q1593.79 26.1121 1594.72 26.2337 Q1595.66 26.3147 1596.79 26.5172 L1596.83 34.1734 Z" fill="#000000" fill-rule="nonzero" fill-opacity="1" /><path clip-path="url(#clip070)" d="M1629.48 34.1734 Q1628.23 33.4443 1626.73 33.1202 Q1625.27 32.7556 1623.49 32.7556 Q1617.17 32.7556 1613.76 36.8875 Q1610.4 40.9789 1610.4 48.6757 L1610.4 72.576 L1602.91 72.576 L1602.91 27.2059 L1610.4 27.2059 L1610.4 34.2544 Q1612.75 30.1225 1616.52 28.1376 Q1620.29 26.1121 1625.67 26.1121 Q1626.44 26.1121 1627.37 26.2337 Q1628.31 26.3147 1629.44 26.5172 L1629.48 34.1734 Z" fill="#000000" fill-rule="nonzero" fill-opacity="1" /><path clip-path="url(#clip070)" d="M1674.28 48.0275 L1674.28 51.6733 L1640.01 51.6733 Q1640.5 59.3701 1644.63 63.421 Q1648.8 67.4314 1656.22 67.4314 Q1660.51 67.4314 1664.52 66.3781 Q1668.57 65.3249 1672.54 63.2184 L1672.54 70.267 Q1668.53 71.9684 1664.32 72.8596 Q1660.11 73.7508 1655.77 73.7508 Q1644.92 73.7508 1638.56 67.4314 Q1632.24 61.1119 1632.24 50.3365 Q1632.24 39.1965 1638.23 32.6746 Q1644.27 26.1121 1654.48 26.1121 Q1663.63 26.1121 1668.94 32.0264 Q1674.28 37.9003 1674.28 48.0275 M1666.83 45.84 Q1666.75 39.7232 1663.39 36.0774 Q1660.07 32.4315 1654.56 32.4315 Q1648.32 32.4315 1644.55 35.9558 Q1640.82 39.4801 1640.26 45.8805 L1666.83 45.84 Z" fill="#000000" fill-rule="nonzero" fill-opacity="1" /><path clip-path="url(#clip070)" d="M1686.52 9.54393 L1693.97 9.54393 L1693.97 72.576 L1686.52 72.576 L1686.52 9.54393 Z" fill="#000000" fill-rule="nonzero" fill-opacity="1" /><path clip-path="url(#clip070)" d="M1730.19 49.7694 Q1721.15 49.7694 1717.67 51.8354 Q1714.19 53.9013 1714.19 58.8839 Q1714.19 62.8538 1716.78 65.2034 Q1719.41 67.5124 1723.91 67.5124 Q1730.11 67.5124 1733.83 63.1374 Q1737.6 58.7219 1737.6 51.4303 L1737.6 49.7694 L1730.19 49.7694 M1745.05 46.6907 L1745.05 72.576 L1737.6 72.576 L1737.6 65.6895 Q1735.05 69.8214 1731.24 71.8063 Q1727.43 73.7508 1721.92 73.7508 Q1714.96 73.7508 1710.82 69.8619 Q1706.73 65.9325 1706.73 59.3701 Q1706.73 51.7138 1711.84 47.825 Q1716.98 43.9361 1727.15 43.9361 L1737.6 43.9361 L1737.6 43.2069 Q1737.6 38.0623 1734.2 35.2672 Q1730.83 32.4315 1724.72 32.4315 Q1720.83 32.4315 1717.14 33.3632 Q1713.46 34.295 1710.05 36.1584 L1710.05 29.2718 Q1714.15 27.692 1717.99 26.9223 Q1721.84 26.1121 1725.49 26.1121 Q1735.33 26.1121 1740.19 31.2163 Q1745.05 36.3204 1745.05 46.6907 Z" fill="#000000" fill-rule="nonzero" fill-opacity="1" /><path clip-path="url(#clip070)" d="M1767.78 14.324 L1767.78 27.2059 L1783.13 27.2059 L1783.13 32.9987 L1767.78 32.9987 L1767.78 57.6282 Q1767.78 63.1779 1769.28 64.7578 Q1770.82 66.3376 1775.48 66.3376 L1783.13 66.3376 L1783.13 72.576 L1775.48 72.576 Q1766.85 72.576 1763.57 69.3758 Q1760.28 66.1351 1760.28 57.6282 L1760.28 32.9987 L1754.82 32.9987 L1754.82 27.2059 L1760.28 27.2059 L1760.28 14.324 L1767.78 14.324 Z" fill="#000000" fill-rule="nonzero" fill-opacity="1" /><path clip-path="url(#clip070)" d="M1792.94 27.2059 L1800.39 27.2059 L1800.39 72.576 L1792.94 72.576 L1792.94 27.2059 M1792.94 9.54393 L1800.39 9.54393 L1800.39 18.9825 L1792.94 18.9825 L1792.94 9.54393 Z" fill="#000000" fill-rule="nonzero" fill-opacity="1" /><path clip-path="url(#clip070)" d="M1833.57 32.4315 Q1827.57 32.4315 1824.09 37.1306 Q1820.6 41.7891 1820.6 49.9314 Q1820.6 58.0738 1824.05 62.7728 Q1827.53 67.4314 1833.57 67.4314 Q1839.52 67.4314 1843 62.7323 Q1846.49 58.0333 1846.49 49.9314 Q1846.49 41.8701 1843 37.1711 Q1839.52 32.4315 1833.57 32.4315 M1833.57 26.1121 Q1843.29 26.1121 1848.84 32.4315 Q1854.39 38.7509 1854.39 49.9314 Q1854.39 61.0714 1848.84 67.4314 Q1843.29 73.7508 1833.57 73.7508 Q1823.8 73.7508 1818.25 67.4314 Q1812.74 61.0714 1812.74 49.9314 Q1812.74 38.7509 1818.25 32.4315 Q1823.8 26.1121 1833.57 26.1121 Z" fill="#000000" fill-rule="nonzero" fill-opacity="1" /><path clip-path="url(#clip070)" d="M1904.46 45.1919 L1904.46 72.576 L1897 72.576 L1897 45.4349 Q1897 38.994 1894.49 35.7938 Q1891.98 32.5936 1886.96 32.5936 Q1880.92 32.5936 1877.44 36.4419 Q1873.95 40.2903 1873.95 46.9338 L1873.95 72.576 L1866.46 72.576 L1866.46 27.2059 L1873.95 27.2059 L1873.95 34.2544 Q1876.63 30.163 1880.23 28.1376 Q1883.88 26.1121 1888.62 26.1121 Q1896.44 26.1121 1900.45 30.9732 Q1904.46 35.7938 1904.46 45.1919 Z" fill="#000000" fill-rule="nonzero" fill-opacity="1" /><circle clip-path="url(#clip072)" cx="283.376" cy="896.588" r="14.4" fill="#009af9" fill-rule="evenodd" fill-opacity="1" stroke="#000000" stroke-opacity="1" stroke-width="3.2"/>
<circle clip-path="url(#clip072)" cx="417.316" cy="850.535" r="14.4" fill="#009af9" fill-rule="evenodd" fill-opacity="1" stroke="#000000" stroke-opacity="1" stroke-width="3.2"/>
<circle clip-path="url(#clip072)" cx="551.257" cy="960.514" r="14.4" fill="#009af9" fill-rule="evenodd" fill-opacity="1" stroke="#000000" stroke-opacity="1" stroke-width="3.2"/>
<circle clip-path="url(#clip072)" cx="685.197" cy="995.191" r="14.4" fill="#009af9" fill-rule="evenodd" fill-opacity="1" stroke="#000000" stroke-opacity="1" stroke-width="3.2"/>
<circle clip-path="url(#clip072)" cx="819.138" cy="1089.38" r="14.4" fill="#009af9" fill-rule="evenodd" fill-opacity="1" stroke="#000000" stroke-opacity="1" stroke-width="3.2"/>
<circle clip-path="url(#clip072)" cx="953.078" cy="1386.4" r="14.4" fill="#009af9" fill-rule="evenodd" fill-opacity="1" stroke="#000000" stroke-opacity="1" stroke-width="3.2"/>
<circle clip-path="url(#clip072)" cx="1087.02" cy="160.256" r="14.4" fill="#009af9" fill-rule="evenodd" fill-opacity="1" stroke="#000000" stroke-opacity="1" stroke-width="3.2"/>
<circle clip-path="url(#clip072)" cx="1220.96" cy="547.783" r="14.4" fill="#009af9" fill-rule="evenodd" fill-opacity="1" stroke="#000000" stroke-opacity="1" stroke-width="3.2"/>
<circle clip-path="url(#clip072)" cx="1354.9" cy="687.137" r="14.4" fill="#009af9" fill-rule="evenodd" fill-opacity="1" stroke="#000000" stroke-opacity="1" stroke-width="3.2"/>
<circle clip-path="url(#clip072)" cx="1488.84" cy="748.345" r="14.4" fill="#009af9" fill-rule="evenodd" fill-opacity="1" stroke="#000000" stroke-opacity="1" stroke-width="3.2"/>
<circle clip-path="url(#clip072)" cx="1622.78" cy="868.632" r="14.4" fill="#009af9" fill-rule="evenodd" fill-opacity="1" stroke="#000000" stroke-opacity="1" stroke-width="3.2"/>
<circle clip-path="url(#clip072)" cx="1756.72" cy="821.647" r="14.4" fill="#009af9" fill-rule="evenodd" fill-opacity="1" stroke="#000000" stroke-opacity="1" stroke-width="3.2"/>
<circle clip-path="url(#clip072)" cx="1890.66" cy="899.734" r="14.4" fill="#009af9" fill-rule="evenodd" fill-opacity="1" stroke="#000000" stroke-opacity="1" stroke-width="3.2"/>
<circle clip-path="url(#clip072)" cx="2024.6" cy="880.114" r="14.4" fill="#009af9" fill-rule="evenodd" fill-opacity="1" stroke="#000000" stroke-opacity="1" stroke-width="3.2"/>
<circle clip-path="url(#clip072)" cx="2158.54" cy="863.45" r="14.4" fill="#009af9" fill-rule="evenodd" fill-opacity="1" stroke="#000000" stroke-opacity="1" stroke-width="3.2"/>
<circle clip-path="url(#clip072)" cx="2292.48" cy="819.093" r="14.4" fill="#009af9" fill-rule="evenodd" fill-opacity="1" stroke="#000000" stroke-opacity="1" stroke-width="3.2"/>
<polyline clip-path="url(#clip072)" style="stroke:#009af9; stroke-linecap:round; stroke-linejoin:round; stroke-width:4; stroke-opacity:1; fill:none" points="283.376,863.053 283.376,896.588 "/>
<polyline clip-path="url(#clip072)" style="stroke:#009af9; stroke-linecap:round; stroke-linejoin:round; stroke-width:4; stroke-opacity:1; fill:none" points="417.316,863.053 417.316,850.535 "/>
<polyline clip-path="url(#clip072)" style="stroke:#009af9; stroke-linecap:round; stroke-linejoin:round; stroke-width:4; stroke-opacity:1; fill:none" points="551.257,863.053 551.257,960.514 "/>
<polyline clip-path="url(#clip072)" style="stroke:#009af9; stroke-linecap:round; stroke-linejoin:round; stroke-width:4; stroke-opacity:1; fill:none" points="685.197,863.053 685.197,995.191 "/>
<polyline clip-path="url(#clip072)" style="stroke:#009af9; stroke-linecap:round; stroke-linejoin:round; stroke-width:4; stroke-opacity:1; fill:none" points="819.138,863.053 819.138,1089.38 "/>
<polyline clip-path="url(#clip072)" style="stroke:#009af9; stroke-linecap:round; stroke-linejoin:round; stroke-width:4; stroke-opacity:1; fill:none" points="953.078,863.053 953.078,1386.4 "/>
<polyline clip-path="url(#clip072)" style="stroke:#009af9; stroke-linecap:round; stroke-linejoin:round; stroke-width:4; stroke-opacity:1; fill:none" points="1087.02,863.053 1087.02,160.256 "/>
<polyline clip-path="url(#clip072)" style="stroke:#009af9; stroke-linecap:round; stroke-linejoin:round; stroke-width:4; stroke-opacity:1; fill:none" points="1220.96,863.053 1220.96,547.783 "/>
<polyline clip-path="url(#clip072)" style="stroke:#009af9; stroke-linecap:round; stroke-linejoin:round; stroke-width:4; stroke-opacity:1; fill:none" points="1354.9,863.053 1354.9,687.137 "/>
<polyline clip-path="url(#clip072)" style="stroke:#009af9; stroke-linecap:round; stroke-linejoin:round; stroke-width:4; stroke-opacity:1; fill:none" points="1488.84,863.053 1488.84,748.345 "/>
<polyline clip-path="url(#clip072)" style="stroke:#009af9; stroke-linecap:round; stroke-linejoin:round; stroke-width:4; stroke-opacity:1; fill:none" points="1622.78,863.053 1622.78,868.632 "/>
<polyline clip-path="url(#clip072)" style="stroke:#009af9; stroke-linecap:round; stroke-linejoin:round; stroke-width:4; stroke-opacity:1; fill:none" points="1756.72,863.053 1756.72,821.647 "/>
<polyline clip-path="url(#clip072)" style="stroke:#009af9; stroke-linecap:round; stroke-linejoin:round; stroke-width:4; stroke-opacity:1; fill:none" points="1890.66,863.053 1890.66,899.734 "/>
<polyline clip-path="url(#clip072)" style="stroke:#009af9; stroke-linecap:round; stroke-linejoin:round; stroke-width:4; stroke-opacity:1; fill:none" points="2024.6,863.053 2024.6,880.114 "/>
<polyline clip-path="url(#clip072)" style="stroke:#009af9; stroke-linecap:round; stroke-linejoin:round; stroke-width:4; stroke-opacity:1; fill:none" points="2158.54,863.053 2158.54,863.45 "/>
<polyline clip-path="url(#clip072)" style="stroke:#009af9; stroke-linecap:round; stroke-linejoin:round; stroke-width:4; stroke-opacity:1; fill:none" points="2292.48,863.053 2292.48,819.093 "/>
<polyline clip-path="url(#clip072)" style="stroke:#000000; stroke-linecap:round; stroke-linejoin:round; stroke-width:4; stroke-opacity:1; fill:none" stroke-dasharray="16, 10" points="-1906.55,753.713 4482.41,753.713 "/>
<polyline clip-path="url(#clip072)" style="stroke:#000000; stroke-linecap:round; stroke-linejoin:round; stroke-width:4; stroke-opacity:1; fill:none" stroke-dasharray="16, 10" points="-1906.55,972.393 4482.41,972.393 "/>
</svg>
