<?xml version="1.0" encoding="utf-8"?>
<svg xmlns="http://www.w3.org/2000/svg" xmlns:xlink="http://www.w3.org/1999/xlink" width="600" height="400" viewBox="0 0 2400 1600">
<defs>
  <clipPath id="clip890">
    <rect x="0" y="0" width="2400" height="1600"/>
  </clipPath>
</defs>
<path clip-path="url(#clip890)" d="M0 1600 L2400 1600 L2400 0 L0 0  Z" fill="#ffffff" fill-rule="evenodd" fill-opacity="1"/>
<defs>
  <clipPath id="clip891">
    <rect x="480" y="0" width="1681" height="1600"/>
  </clipPath>
</defs>
<path clip-path="url(#clip890)" d="M221.637 1410.9 L2352.76 1410.9 L2352.76 123.472 L221.637 123.472  Z" fill="#ffffff" fill-rule="evenodd" fill-opacity="1"/>
<defs>
  <clipPath id="clip892">
    <rect x="221" y="123" width="2132" height="1288"/>
  </clipPath>
</defs>
<polyline clip-path="url(#clip892)" style="stroke:#000000; stroke-linecap:round; stroke-linejoin:round; stroke-width:2; stroke-opacity:0.1; fill:none" points="983.091,1410.9 983.091,123.472 "/>
<polyline clip-path="url(#clip892)" style="stroke:#000000; stroke-linecap:round; stroke-linejoin:round; stroke-width:2; stroke-opacity:0.1; fill:none" points="1857.65,1410.9 1857.65,123.472 "/>
<polyline clip-path="url(#clip892)" style="stroke:#000000; stroke-linecap:round; stroke-linejoin:round; stroke-width:2; stroke-opacity:0.1; fill:none" points="221.637,1246.24 2352.76,1246.24 "/>
<polyline clip-path="url(#clip892)" style="stroke:#000000; stroke-linecap:round; stroke-linejoin:round; stroke-width:2; stroke-opacity:0.1; fill:none" points="221.637,567.182 2352.76,567.182 "/>
<polyline clip-path="url(#clip890)" style="stroke:#000000; stroke-linecap:round; stroke-linejoin:round; stroke-width:4; stroke-opacity:1; fill:none" points="221.637,1410.9 2352.76,1410.9 "/>
<polyline clip-path="url(#clip890)" style="stroke:#000000; stroke-linecap:round; stroke-linejoin:round; stroke-width:4; stroke-opacity:1; fill:none" points="983.091,1410.9 983.091,1392 "/>
<polyline clip-path="url(#clip890)" style="stroke:#000000; stroke-linecap:round; stroke-linejoin:round; stroke-width:4; stroke-opacity:1; fill:none" points="1857.65,1410.9 1857.65,1392 "/>
<path clip-path="url(#clip890)" d="M933.206 1485.02 L940.845 1485.02 L940.845 1458.66 L932.535 1460.32 L932.535 1456.06 L940.799 1454.4 L945.475 1454.4 L945.475 1485.02 L953.113 1485.02 L953.113 1488.96 L933.206 1488.96 L933.206 1485.02 Z" fill="#000000" fill-rule="nonzero" fill-opacity="1" /><path clip-path="url(#clip890)" d="M972.558 1457.48 Q968.947 1457.48 967.118 1461.04 Q965.312 1464.58 965.312 1471.71 Q965.312 1478.82 967.118 1482.38 Q968.947 1485.92 972.558 1485.92 Q976.192 1485.92 977.998 1482.38 Q979.826 1478.82 979.826 1471.71 Q979.826 1464.58 977.998 1461.04 Q976.192 1457.48 972.558 1457.48 M972.558 1453.77 Q978.368 1453.77 981.424 1458.38 Q984.502 1462.96 984.502 1471.71 Q984.502 1480.44 981.424 1485.04 Q978.368 1489.63 972.558 1489.63 Q966.748 1489.63 963.669 1485.04 Q960.613 1480.44 960.613 1471.71 Q960.613 1462.96 963.669 1458.38 Q966.748 1453.77 972.558 1453.77 Z" fill="#000000" fill-rule="nonzero" fill-opacity="1" /><path clip-path="url(#clip890)" d="M984.502 1447.87 L1008.61 1447.87 L1008.61 1451.07 L984.502 1451.07 L984.502 1447.87 Z" fill="#000000" fill-rule="nonzero" fill-opacity="1" /><path clip-path="url(#clip890)" d="M1017.47 1458.35 L1023.68 1458.35 L1023.68 1436.93 L1016.93 1438.28 L1016.93 1434.82 L1023.64 1433.47 L1027.44 1433.47 L1027.44 1458.35 L1033.65 1458.35 L1033.65 1461.55 L1017.47 1461.55 L1017.47 1458.35 Z" fill="#000000" fill-rule="nonzero" fill-opacity="1" /><path clip-path="url(#clip890)" d="M1822.64 1485.02 L1830.27 1485.02 L1830.27 1458.66 L1821.96 1460.32 L1821.96 1456.06 L1830.23 1454.4 L1834.9 1454.4 L1834.9 1485.02 L1842.54 1485.02 L1842.54 1488.96 L1822.64 1488.96 L1822.64 1485.02 Z" fill="#000000" fill-rule="nonzero" fill-opacity="1" /><path clip-path="url(#clip890)" d="M1861.99 1457.48 Q1858.38 1457.48 1856.55 1461.04 Q1854.74 1464.58 1854.74 1471.71 Q1854.74 1478.82 1856.55 1482.38 Q1858.38 1485.92 1861.99 1485.92 Q1865.62 1485.92 1867.43 1482.38 Q1869.26 1478.82 1869.26 1471.71 Q1869.26 1464.58 1867.43 1461.04 Q1865.62 1457.48 1861.99 1457.48 M1861.99 1453.77 Q1867.8 1453.77 1870.85 1458.38 Q1873.93 1462.96 1873.93 1471.71 Q1873.93 1480.44 1870.85 1485.04 Q1867.8 1489.63 1861.99 1489.63 Q1856.18 1489.63 1853.1 1485.04 Q1850.04 1480.44 1850.04 1471.71 Q1850.04 1462.96 1853.1 1458.38 Q1856.18 1453.77 1861.99 1453.77 Z" fill="#000000" fill-rule="nonzero" fill-opacity="1" /><path clip-path="url(#clip890)" d="M1883.64 1435.97 Q1880.7 1435.97 1879.22 1438.86 Q1877.75 1441.74 1877.75 1447.53 Q1877.75 1453.31 1879.22 1456.2 Q1880.7 1459.08 1883.64 1459.08 Q1886.59 1459.08 1888.06 1456.2 Q1889.54 1453.31 1889.54 1447.53 Q1889.54 1441.74 1888.06 1438.86 Q1886.59 1435.97 1883.64 1435.97 M1883.64 1432.96 Q1888.36 1432.96 1890.84 1436.7 Q1893.34 1440.43 1893.34 1447.53 Q1893.34 1454.62 1890.84 1458.37 Q1888.36 1462.09 1883.64 1462.09 Q1878.92 1462.09 1876.41 1458.37 Q1873.93 1454.62 1873.93 1447.53 Q1873.93 1440.43 1876.41 1436.7 Q1878.92 1432.96 1883.64 1432.96 Z" fill="#000000" fill-rule="nonzero" fill-opacity="1" /><path clip-path="url(#clip890)" d="M1007.01 1526.67 L1034.32 1526.67 L1034.32 1532.08 L1013.44 1532.08 L1013.44 1546.08 L1032.28 1546.08 L1032.28 1551.49 L1013.44 1551.49 L1013.44 1574.19 L1007.01 1574.19 L1007.01 1526.67 Z" fill="#000000" fill-rule="nonzero" fill-opacity="1" /><path clip-path="url(#clip890)" d="M1060.16 1544.01 Q1059.18 1543.44 1058 1543.18 Q1056.85 1542.9 1055.45 1542.9 Q1050.49 1542.9 1047.81 1546.14 Q1045.17 1549.36 1045.17 1555.41 L1045.17 1574.19 L1039.28 1574.19 L1039.28 1538.54 L1045.17 1538.54 L1045.17 1544.08 Q1047.02 1540.83 1049.98 1539.27 Q1052.94 1537.68 1057.17 1537.68 Q1057.78 1537.68 1058.51 1537.77 Q1059.24 1537.84 1060.13 1538 L1060.16 1544.01 Z" fill="#000000" fill-rule="nonzero" fill-opacity="1" /><path clip-path="url(#clip890)" d="M1095.37 1554.9 L1095.37 1557.76 L1068.44 1557.76 Q1068.82 1563.81 1072.07 1566.99 Q1075.35 1570.14 1081.17 1570.14 Q1084.54 1570.14 1087.7 1569.32 Q1090.88 1568.49 1094 1566.83 L1094 1572.37 Q1090.85 1573.71 1087.54 1574.41 Q1084.23 1575.11 1080.82 1575.11 Q1072.29 1575.11 1067.29 1570.14 Q1062.33 1565.18 1062.33 1556.71 Q1062.33 1547.96 1067.04 1542.83 Q1071.78 1537.68 1079.8 1537.68 Q1087 1537.68 1091.16 1542.33 Q1095.37 1546.94 1095.37 1554.9 M1089.51 1553.18 Q1089.45 1548.37 1086.8 1545.51 Q1084.19 1542.64 1079.87 1542.64 Q1074.96 1542.64 1072 1545.41 Q1069.08 1548.18 1068.63 1553.21 L1089.51 1553.18 Z" fill="#000000" fill-rule="nonzero" fill-opacity="1" /><path clip-path="url(#clip890)" d="M1108.48 1556.39 Q1108.48 1562.85 1111.12 1566.55 Q1113.79 1570.21 1118.44 1570.21 Q1123.09 1570.21 1125.76 1566.55 Q1128.44 1562.85 1128.44 1556.39 Q1128.44 1549.93 1125.76 1546.27 Q1123.09 1542.58 1118.44 1542.58 Q1113.79 1542.58 1111.12 1546.27 Q1108.48 1549.93 1108.48 1556.39 M1128.44 1568.84 Q1126.59 1572.02 1123.76 1573.58 Q1120.96 1575.11 1117.01 1575.11 Q1110.55 1575.11 1106.47 1569.95 Q1102.43 1564.8 1102.43 1556.39 Q1102.43 1547.99 1106.47 1542.83 Q1110.55 1537.68 1117.01 1537.68 Q1120.96 1537.68 1123.76 1539.24 Q1126.59 1540.77 1128.44 1543.95 L1128.44 1538.54 L1134.29 1538.54 L1134.29 1587.74 L1128.44 1587.74 L1128.44 1568.84 Z" fill="#000000" fill-rule="nonzero" fill-opacity="1" /><path clip-path="url(#clip890)" d="M1145.75 1560.12 L1145.75 1538.54 L1151.61 1538.54 L1151.61 1559.89 Q1151.61 1564.96 1153.58 1567.5 Q1155.55 1570.02 1159.5 1570.02 Q1164.24 1570.02 1166.98 1566.99 Q1169.75 1563.97 1169.75 1558.75 L1169.75 1538.54 L1175.61 1538.54 L1175.61 1574.19 L1169.75 1574.19 L1169.75 1568.71 Q1167.62 1571.96 1164.78 1573.55 Q1161.98 1575.11 1158.26 1575.11 Q1152.12 1575.11 1148.93 1571.29 Q1145.75 1567.47 1145.75 1560.12 M1160.49 1537.68 L1160.49 1537.68 Z" fill="#000000" fill-rule="nonzero" fill-opacity="1" /><path clip-path="url(#clip890)" d="M1218.16 1554.9 L1218.16 1557.76 L1191.23 1557.76 Q1191.62 1563.81 1194.86 1566.99 Q1198.14 1570.14 1203.96 1570.14 Q1207.34 1570.14 1210.49 1569.32 Q1213.67 1568.49 1216.79 1566.83 L1216.79 1572.37 Q1213.64 1573.71 1210.33 1574.41 Q1207.02 1575.11 1203.61 1575.11 Q1195.08 1575.11 1190.09 1570.14 Q1185.12 1565.18 1185.12 1556.71 Q1185.12 1547.96 1189.83 1542.83 Q1194.58 1537.68 1202.6 1537.68 Q1209.79 1537.68 1213.96 1542.33 Q1218.16 1546.94 1218.16 1554.9 M1212.3 1553.18 Q1212.24 1548.37 1209.6 1545.51 Q1206.99 1542.64 1202.66 1542.64 Q1197.76 1542.64 1194.8 1545.41 Q1191.87 1548.18 1191.42 1553.21 L1212.3 1553.18 Z" fill="#000000" fill-rule="nonzero" fill-opacity="1" /><path clip-path="url(#clip890)" d="M1257.4 1552.67 L1257.4 1574.19 L1251.55 1574.19 L1251.55 1552.86 Q1251.55 1547.8 1249.58 1545.29 Q1247.6 1542.77 1243.66 1542.77 Q1238.91 1542.77 1236.18 1545.79 Q1233.44 1548.82 1233.44 1554.04 L1233.44 1574.19 L1227.55 1574.19 L1227.55 1538.54 L1233.44 1538.54 L1233.44 1544.08 Q1235.54 1540.86 1238.37 1539.27 Q1241.24 1537.68 1244.96 1537.68 Q1251.1 1537.68 1254.25 1541.5 Q1257.4 1545.29 1257.4 1552.67 Z" fill="#000000" fill-rule="nonzero" fill-opacity="1" /><path clip-path="url(#clip890)" d="M1294.74 1539.91 L1294.74 1545.38 Q1292.26 1544.01 1289.74 1543.34 Q1287.26 1542.64 1284.71 1542.64 Q1279.02 1542.64 1275.87 1546.27 Q1272.71 1549.87 1272.71 1556.39 Q1272.71 1562.92 1275.87 1566.55 Q1279.02 1570.14 1284.71 1570.14 Q1287.26 1570.14 1289.74 1569.47 Q1292.26 1568.77 1294.74 1567.41 L1294.74 1572.82 Q1292.29 1573.96 1289.65 1574.54 Q1287.04 1575.11 1284.08 1575.11 Q1276.02 1575.11 1271.28 1570.05 Q1266.54 1564.99 1266.54 1556.39 Q1266.54 1547.67 1271.31 1542.68 Q1276.12 1537.68 1284.46 1537.68 Q1287.16 1537.68 1289.74 1538.25 Q1292.32 1538.79 1294.74 1539.91 Z" fill="#000000" fill-rule="nonzero" fill-opacity="1" /><path clip-path="url(#clip890)" d="M1319.76 1577.5 Q1317.27 1583.86 1314.92 1585.8 Q1312.56 1587.74 1308.62 1587.74 L1303.94 1587.74 L1303.94 1582.84 L1307.38 1582.84 Q1309.79 1582.84 1311.13 1581.7 Q1312.47 1580.55 1314.09 1576.29 L1315.14 1573.61 L1300.72 1538.54 L1306.93 1538.54 L1318.07 1566.42 L1329.21 1538.54 L1335.42 1538.54 L1319.76 1577.5 Z" fill="#000000" fill-rule="nonzero" fill-opacity="1" /><path clip-path="url(#clip890)" d="M1363.68 1524.66 L1377.18 1524.66 L1377.18 1529.21 L1369.54 1529.21 L1369.54 1578.23 L1377.18 1578.23 L1377.18 1582.78 L1363.68 1582.78 L1363.68 1524.66 Z" fill="#000000" fill-rule="nonzero" fill-opacity="1" /><path clip-path="url(#clip890)" d="M1410.31 1544.01 Q1409.32 1543.44 1408.14 1543.18 Q1407 1542.9 1405.6 1542.9 Q1400.63 1542.9 1397.96 1546.14 Q1395.32 1549.36 1395.32 1555.41 L1395.32 1574.19 L1389.43 1574.19 L1389.43 1538.54 L1395.32 1538.54 L1395.32 1544.08 Q1397.16 1540.83 1400.12 1539.27 Q1403.08 1537.68 1407.32 1537.68 Q1407.92 1537.68 1408.65 1537.77 Q1409.39 1537.84 1410.28 1538 L1410.31 1544.01 Z" fill="#000000" fill-rule="nonzero" fill-opacity="1" /><path clip-path="url(#clip890)" d="M1432.65 1556.27 Q1425.56 1556.27 1422.82 1557.89 Q1420.08 1559.51 1420.08 1563.43 Q1420.08 1566.55 1422.12 1568.39 Q1424.19 1570.21 1427.72 1570.21 Q1432.59 1570.21 1435.52 1566.77 Q1438.48 1563.3 1438.48 1557.57 L1438.48 1556.27 L1432.65 1556.27 M1444.33 1553.85 L1444.33 1574.19 L1438.48 1574.19 L1438.48 1568.77 Q1436.47 1572.02 1433.48 1573.58 Q1430.49 1575.11 1426.16 1575.11 Q1420.69 1575.11 1417.44 1572.05 Q1414.22 1568.97 1414.22 1563.81 Q1414.22 1557.79 1418.23 1554.74 Q1422.28 1551.68 1430.27 1551.68 L1438.48 1551.68 L1438.48 1551.11 Q1438.48 1547.07 1435.8 1544.87 Q1433.16 1542.64 1428.36 1542.64 Q1425.3 1542.64 1422.4 1543.38 Q1419.51 1544.11 1416.83 1545.57 L1416.83 1540.16 Q1420.05 1538.92 1423.07 1538.31 Q1426.1 1537.68 1428.96 1537.68 Q1436.7 1537.68 1440.51 1541.69 Q1444.33 1545.7 1444.33 1553.85 Z" fill="#000000" fill-rule="nonzero" fill-opacity="1" /><path clip-path="url(#clip890)" d="M1479.85 1543.95 L1479.85 1524.66 L1485.71 1524.66 L1485.71 1574.19 L1479.85 1574.19 L1479.85 1568.84 Q1478.01 1572.02 1475.18 1573.58 Q1472.37 1575.11 1468.43 1575.11 Q1461.97 1575.11 1457.89 1569.95 Q1453.85 1564.8 1453.85 1556.39 Q1453.85 1547.99 1457.89 1542.83 Q1461.97 1537.68 1468.43 1537.68 Q1472.37 1537.68 1475.18 1539.24 Q1478.01 1540.77 1479.85 1543.95 M1459.9 1556.39 Q1459.9 1562.85 1462.54 1566.55 Q1465.21 1570.21 1469.86 1570.21 Q1474.51 1570.21 1477.18 1566.55 Q1479.85 1562.85 1479.85 1556.39 Q1479.85 1549.93 1477.18 1546.27 Q1474.51 1542.58 1469.86 1542.58 Q1465.21 1542.58 1462.54 1546.27 Q1459.9 1549.93 1459.9 1556.39 Z" fill="#000000" fill-rule="nonzero" fill-opacity="1" /><path clip-path="url(#clip890)" d="M1508.18 1526.67 L1513.59 1526.67 L1497.04 1580.23 L1491.63 1580.23 L1508.18 1526.67 Z" fill="#000000" fill-rule="nonzero" fill-opacity="1" /><path clip-path="url(#clip890)" d="M1542.46 1539.59 L1542.46 1545.13 Q1539.98 1543.85 1537.31 1543.22 Q1534.63 1542.58 1531.77 1542.58 Q1527.41 1542.58 1525.21 1543.92 Q1523.05 1545.25 1523.05 1547.93 Q1523.05 1549.96 1524.61 1551.14 Q1526.17 1552.29 1530.88 1553.34 L1532.88 1553.78 Q1539.12 1555.12 1541.73 1557.57 Q1544.37 1559.99 1544.37 1564.35 Q1544.37 1569.32 1540.42 1572.21 Q1536.51 1575.11 1529.63 1575.11 Q1526.77 1575.11 1523.65 1574.54 Q1520.56 1573.99 1517.13 1572.88 L1517.13 1566.83 Q1520.37 1568.52 1523.52 1569.38 Q1526.67 1570.21 1529.76 1570.21 Q1533.9 1570.21 1536.13 1568.81 Q1538.36 1567.37 1538.36 1564.8 Q1538.36 1562.41 1536.73 1561.14 Q1535.14 1559.86 1529.7 1558.68 L1527.66 1558.21 Q1522.22 1557.06 1519.8 1554.71 Q1517.38 1552.32 1517.38 1548.18 Q1517.38 1543.15 1520.95 1540.42 Q1524.51 1537.68 1531.07 1537.68 Q1534.31 1537.68 1537.18 1538.16 Q1540.04 1538.63 1542.46 1539.59 Z" fill="#000000" fill-rule="nonzero" fill-opacity="1" /><path clip-path="url(#clip890)" d="M1567.38 1524.66 L1567.38 1582.78 L1553.89 1582.78 L1553.89 1578.23 L1561.49 1578.23 L1561.49 1529.21 L1553.89 1529.21 L1553.89 1524.66 L1567.38 1524.66 Z" fill="#000000" fill-rule="nonzero" fill-opacity="1" /><polyline clip-path="url(#clip890)" style="stroke:#000000; stroke-linecap:round; stroke-linejoin:round; stroke-width:4; stroke-opacity:1; fill:none" points="221.637,1410.9 221.637,123.472 "/>
<polyline clip-path="url(#clip890)" style="stroke:#000000; stroke-linecap:round; stroke-linejoin:round; stroke-width:4; stroke-opacity:1; fill:none" points="221.637,1246.24 240.535,1246.24 "/>
<polyline clip-path="url(#clip890)" style="stroke:#000000; stroke-linecap:round; stroke-linejoin:round; stroke-width:4; stroke-opacity:1; fill:none" points="221.637,567.182 240.535,567.182 "/>
<path clip-path="url(#clip890)" d="M114.931 1266.04 L122.57 1266.04 L122.57 1239.67 L114.26 1241.34 L114.26 1237.08 L122.524 1235.41 L127.2 1235.41 L127.2 1266.04 L134.839 1266.04 L134.839 1269.97 L114.931 1269.97 L114.931 1266.04 Z" fill="#000000" fill-rule="nonzero" fill-opacity="1" /><path clip-path="url(#clip890)" d="M154.283 1238.49 Q150.672 1238.49 148.843 1242.06 Q147.038 1245.6 147.038 1252.73 Q147.038 1259.83 148.843 1263.4 Q150.672 1266.94 154.283 1266.94 Q157.917 1266.94 159.723 1263.4 Q161.552 1259.83 161.552 1252.73 Q161.552 1245.6 159.723 1242.06 Q157.917 1238.49 154.283 1238.49 M154.283 1234.79 Q160.093 1234.79 163.149 1239.39 Q166.227 1243.98 166.227 1252.73 Q166.227 1261.45 163.149 1266.06 Q160.093 1270.64 154.283 1270.64 Q148.473 1270.64 145.394 1266.06 Q142.339 1261.45 142.339 1252.73 Q142.339 1243.98 145.394 1239.39 Q148.473 1234.79 154.283 1234.79 Z" fill="#000000" fill-rule="nonzero" fill-opacity="1" /><path clip-path="url(#clip890)" d="M175.932 1216.98 Q172.998 1216.98 171.512 1219.88 Q170.045 1222.76 170.045 1228.55 Q170.045 1234.32 171.512 1237.22 Q172.998 1240.1 175.932 1240.1 Q178.885 1240.1 180.352 1237.22 Q181.838 1234.32 181.838 1228.55 Q181.838 1222.76 180.352 1219.88 Q178.885 1216.98 175.932 1216.98 M175.932 1213.97 Q180.653 1213.97 183.136 1217.72 Q185.637 1221.44 185.637 1228.55 Q185.637 1235.64 183.136 1239.38 Q180.653 1243.11 175.932 1243.11 Q171.212 1243.11 168.71 1239.38 Q166.227 1235.64 166.227 1228.55 Q166.227 1221.44 168.71 1217.72 Q171.212 1213.97 175.932 1213.97 Z" fill="#000000" fill-rule="nonzero" fill-opacity="1" /><path clip-path="url(#clip890)" d="M117.621 586.974 L125.26 586.974 L125.26 560.608 L116.95 562.275 L116.95 558.016 L125.214 556.349 L129.889 556.349 L129.889 586.974 L137.528 586.974 L137.528 590.909 L117.621 590.909 L117.621 586.974 Z" fill="#000000" fill-rule="nonzero" fill-opacity="1" /><path clip-path="url(#clip890)" d="M156.973 559.428 Q153.362 559.428 151.533 562.993 Q149.727 566.534 149.727 573.664 Q149.727 580.77 151.533 584.335 Q153.362 587.877 156.973 587.877 Q160.607 587.877 162.412 584.335 Q164.241 580.77 164.241 573.664 Q164.241 566.534 162.412 562.993 Q160.607 559.428 156.973 559.428 M156.973 555.724 Q162.783 555.724 165.838 560.331 Q168.917 564.914 168.917 573.664 Q168.917 582.391 165.838 586.997 Q162.783 591.58 156.973 591.58 Q151.162 591.58 148.084 586.997 Q145.028 582.391 145.028 573.664 Q145.028 564.914 148.084 560.331 Q151.162 555.724 156.973 555.724 Z" fill="#000000" fill-rule="nonzero" fill-opacity="1" /><path clip-path="url(#clip890)" d="M169.462 560.301 L175.669 560.301 L175.669 538.879 L168.917 540.233 L168.917 536.773 L175.631 535.419 L179.431 535.419 L179.431 560.301 L185.637 560.301 L185.637 563.499 L169.462 563.499 L169.462 560.301 Z" fill="#000000" fill-rule="nonzero" fill-opacity="1" /><path clip-path="url(#clip890)" d="M18.0438 995.825 L24.314 995.825 Q22.5634 999.485 21.704 1002.73 Q20.8447 1005.98 20.8447 1009 Q20.8447 1014.25 22.8817 1017.12 Q24.9187 1019.95 28.6745 1019.95 Q31.8255 1019.95 33.4488 1018.07 Q35.0402 1016.16 36.0269 1010.88 L36.8226 1007 Q38.1912 999.803 41.6605 996.398 Q45.098 992.96 50.8908 992.96 Q57.7976 992.96 61.3624 997.607 Q64.9272 1002.22 64.9272 1011.17 Q64.9272 1014.54 64.1633 1018.36 Q63.3994 1022.15 61.9035 1026.22 L55.2831 1026.22 Q57.4793 1022.31 58.5933 1018.55 Q59.7073 1014.79 59.7073 1011.17 Q59.7073 1005.66 57.543 1002.67 Q55.3786 999.676 51.3682 999.676 Q47.8671 999.676 45.8937 1001.84 Q43.9204 1003.97 42.9337 1008.87 L42.1698 1012.79 Q40.7375 1019.98 37.682 1023.2 Q34.6264 1026.41 29.1837 1026.41 Q22.8817 1026.41 19.2532 1021.99 Q15.6248 1017.53 15.6248 1009.73 Q15.6248 1006.39 16.2295 1002.92 Q16.8343 999.453 18.0438 995.825 Z" fill="#000000" fill-rule="nonzero" fill-opacity="1" /><path clip-path="url(#clip890)" d="M28.3562 983.189 L28.3562 977.332 L64.0042 977.332 L64.0042 983.189 L28.3562 983.189 M14.479 983.189 L14.479 977.332 L21.895 977.332 L21.895 983.189 L14.479 983.189 Z" fill="#000000" fill-rule="nonzero" fill-opacity="1" /><path clip-path="url(#clip890)" d="M42.4881 935.446 L64.0042 935.446 L64.0042 941.302 L42.679 941.302 Q37.6183 941.302 35.1038 943.276 Q32.5894 945.249 32.5894 949.196 Q32.5894 953.938 35.6131 956.676 Q38.6368 959.413 43.8567 959.413 L64.0042 959.413 L64.0042 965.301 L28.3562 965.301 L28.3562 959.413 L33.8944 959.413 Q30.6797 957.312 29.0883 954.479 Q27.4968 951.615 27.4968 947.891 Q27.4968 941.748 31.3163 938.597 Q35.1038 935.446 42.4881 935.446 Z" fill="#000000" fill-rule="nonzero" fill-opacity="1" /><path clip-path="url(#clip890)" d="M45.7664 900.307 Q39.4007 900.307 35.8996 902.949 Q32.3984 905.559 32.3984 910.301 Q32.3984 915.012 35.8996 917.654 Q39.4007 920.264 45.7664 920.264 Q52.1003 920.264 55.6014 917.654 Q59.1026 915.012 59.1026 910.301 Q59.1026 905.559 55.6014 902.949 Q52.1003 900.307 45.7664 900.307 M59.58 894.451 Q68.683 894.451 73.1071 898.493 Q77.5631 902.535 77.5631 910.874 Q77.5631 913.962 77.0857 916.699 Q76.6401 919.436 75.6852 922.014 L69.9879 922.014 Q71.3884 919.436 72.0568 916.922 Q72.7252 914.407 72.7252 911.797 Q72.7252 906.036 69.7015 903.172 Q66.7096 900.307 60.6303 900.307 L57.7339 900.307 Q60.885 902.121 62.4446 904.954 Q64.0042 907.787 64.0042 911.734 Q64.0042 918.29 59.0071 922.301 Q54.01 926.311 45.7664 926.311 Q37.491 926.311 32.4939 922.301 Q27.4968 918.29 27.4968 911.734 Q27.4968 907.787 29.0564 904.954 Q30.616 902.121 33.7671 900.307 L28.3562 900.307 L28.3562 894.451 L59.58 894.451 Z" fill="#000000" fill-rule="nonzero" fill-opacity="1" /><path clip-path="url(#clip890)" d="M49.9359 882.993 L28.3562 882.993 L28.3562 877.136 L49.7131 877.136 Q54.7739 877.136 57.3202 875.163 Q59.8346 873.189 59.8346 869.243 Q59.8346 864.5 56.8109 861.763 Q53.7872 858.994 48.5673 858.994 L28.3562 858.994 L28.3562 853.137 L64.0042 853.137 L64.0042 858.994 L58.5296 858.994 Q61.7762 861.126 63.3676 863.959 Q64.9272 866.76 64.9272 870.484 Q64.9272 876.627 61.1078 879.81 Q57.2883 882.993 49.9359 882.993 M27.4968 868.256 L27.4968 868.256 Z" fill="#000000" fill-rule="nonzero" fill-opacity="1" /><path clip-path="url(#clip890)" d="M14.479 841.074 L14.479 835.218 L64.0042 835.218 L64.0042 841.074 L14.479 841.074 Z" fill="#000000" fill-rule="nonzero" fill-opacity="1" /><path clip-path="url(#clip890)" d="M46.0847 806.763 Q46.0847 813.861 47.7079 816.598 Q49.3312 819.335 53.2461 819.335 Q56.3653 819.335 58.2114 817.298 Q60.0256 815.23 60.0256 811.697 Q60.0256 806.827 56.5881 803.899 Q53.1188 800.939 47.3897 800.939 L46.0847 800.939 L46.0847 806.763 M43.6657 795.082 L64.0042 795.082 L64.0042 800.939 L58.5933 800.939 Q61.8398 802.944 63.3994 805.936 Q64.9272 808.928 64.9272 813.256 Q64.9272 818.731 61.8716 821.977 Q58.7843 825.192 53.6281 825.192 Q47.6125 825.192 44.5569 821.181 Q41.5014 817.139 41.5014 809.15 L41.5014 800.939 L40.9285 800.939 Q36.8862 800.939 34.6901 803.612 Q32.4621 806.254 32.4621 811.06 Q32.4621 814.116 33.1941 817.012 Q33.9262 819.908 35.3903 822.582 L29.9795 822.582 Q28.7381 819.367 28.1334 816.344 Q27.4968 813.32 27.4968 810.455 Q27.4968 802.721 31.5072 798.902 Q35.5176 795.082 43.6657 795.082 Z" fill="#000000" fill-rule="nonzero" fill-opacity="1" /><path clip-path="url(#clip890)" d="M33.8307 762.362 Q33.2578 763.349 33.0032 764.527 Q32.7167 765.673 32.7167 767.073 Q32.7167 772.038 35.9632 774.712 Q39.1779 777.354 45.2253 777.354 L64.0042 777.354 L64.0042 783.242 L28.3562 783.242 L28.3562 777.354 L33.8944 777.354 Q30.6479 775.508 29.0883 772.547 Q27.4968 769.587 27.4968 765.354 Q27.4968 764.75 27.5923 764.017 Q27.656 763.285 27.8151 762.394 L33.8307 762.362 Z" fill="#000000" fill-rule="nonzero" fill-opacity="1" /><path clip-path="url(#clip890)" d="M64.0042 722.99 L16.4842 741.133 L16.4842 734.417 L56.4926 719.362 L16.4842 704.275 L16.4842 697.591 L64.0042 715.702 L64.0042 722.99 Z" fill="#000000" fill-rule="nonzero" fill-opacity="1" /><path clip-path="url(#clip890)" d="M46.0847 679.767 Q46.0847 686.865 47.7079 689.602 Q49.3312 692.34 53.2461 692.34 Q56.3653 692.34 58.2114 690.303 Q60.0256 688.234 60.0256 684.701 Q60.0256 679.831 56.5881 676.903 Q53.1188 673.943 47.3897 673.943 L46.0847 673.943 L46.0847 679.767 M43.6657 668.086 L64.0042 668.086 L64.0042 673.943 L58.5933 673.943 Q61.8398 675.948 63.3994 678.94 Q64.9272 681.932 64.9272 686.26 Q64.9272 691.735 61.8716 694.981 Q58.7843 698.196 53.6281 698.196 Q47.6125 698.196 44.5569 694.186 Q41.5014 690.143 41.5014 682.154 L41.5014 673.943 L40.9285 673.943 Q36.8862 673.943 34.6901 676.616 Q32.4621 679.258 32.4621 684.064 Q32.4621 687.12 33.1941 690.016 Q33.9262 692.913 35.3903 695.586 L29.9795 695.586 Q28.7381 692.371 28.1334 689.348 Q27.4968 686.324 27.4968 683.459 Q27.4968 675.725 31.5072 671.906 Q35.5176 668.086 43.6657 668.086 Z" fill="#000000" fill-rule="nonzero" fill-opacity="1" /><path clip-path="url(#clip890)" d="M14.479 656.023 L14.479 650.167 L64.0042 650.167 L64.0042 656.023 L14.479 656.023 Z" fill="#000000" fill-rule="nonzero" fill-opacity="1" /><path clip-path="url(#clip890)" d="M49.9359 638.518 L28.3562 638.518 L28.3562 632.661 L49.7131 632.661 Q54.7739 632.661 57.3202 630.688 Q59.8346 628.714 59.8346 624.768 Q59.8346 620.025 56.8109 617.288 Q53.7872 614.519 48.5673 614.519 L28.3562 614.519 L28.3562 608.662 L64.0042 608.662 L64.0042 614.519 L58.5296 614.519 Q61.7762 616.651 63.3676 619.484 Q64.9272 622.285 64.9272 626.009 Q64.9272 632.152 61.1078 635.335 Q57.2883 638.518 49.9359 638.518 M27.4968 623.781 L27.4968 623.781 Z" fill="#000000" fill-rule="nonzero" fill-opacity="1" /><path clip-path="url(#clip890)" d="M44.7161 566.108 L47.5806 566.108 L47.5806 593.035 Q53.6281 592.653 56.8109 589.406 Q59.9619 586.128 59.9619 580.303 Q59.9619 576.929 59.1344 573.778 Q58.3069 570.595 56.6518 567.476 L62.1899 567.476 Q63.5267 570.627 64.227 573.937 Q64.9272 577.248 64.9272 580.653 Q64.9272 589.183 59.9619 594.18 Q54.9967 599.146 46.5303 599.146 Q37.7774 599.146 32.6531 594.435 Q27.4968 589.693 27.4968 581.672 Q27.4968 574.479 32.1438 570.309 Q36.7589 566.108 44.7161 566.108 M42.9973 571.964 Q38.1912 572.028 35.3266 574.67 Q32.4621 577.279 32.4621 581.608 Q32.4621 586.51 35.2312 589.47 Q38.0002 592.398 43.0292 592.844 L42.9973 571.964 Z" fill="#000000" fill-rule="nonzero" fill-opacity="1" /><path clip-path="url(#clip890)" d="M29.4065 533.77 L34.9447 533.77 Q33.6716 536.252 33.035 538.926 Q32.3984 541.6 32.3984 544.464 Q32.3984 548.825 33.7352 551.021 Q35.072 553.185 37.7456 553.185 Q39.7826 553.185 40.9603 551.626 Q42.1061 550.066 43.1565 545.355 L43.6021 543.35 Q44.9389 537.112 47.3897 534.502 Q49.8086 531.86 54.1691 531.86 Q59.1344 531.86 62.0308 535.807 Q64.9272 539.722 64.9272 546.597 Q64.9272 549.461 64.3543 552.58 Q63.8132 555.668 62.6992 559.105 L56.6518 559.105 Q58.3387 555.859 59.198 552.708 Q60.0256 549.557 60.0256 546.469 Q60.0256 542.332 58.6251 540.104 Q57.1929 537.876 54.6147 537.876 Q52.2276 537.876 50.9545 539.499 Q49.6813 541.09 48.5037 546.533 L48.0262 548.57 Q46.8804 554.013 44.5251 556.432 Q42.138 558.851 38.0002 558.851 Q32.9713 558.851 30.2341 555.286 Q27.4968 551.721 27.4968 545.164 Q27.4968 541.918 27.9743 539.053 Q28.4517 536.189 29.4065 533.77 Z" fill="#000000" fill-rule="nonzero" fill-opacity="1" /><path clip-path="url(#clip890)" d="M1108.47 14.0809 L1108.47 22.0612 Q1103.81 19.8332 1099.68 18.7395 Q1095.55 17.6457 1091.7 17.6457 Q1085.02 17.6457 1081.37 20.2383 Q1077.76 22.8309 1077.76 27.611 Q1077.76 31.6214 1080.15 33.6873 Q1082.59 35.7128 1089.31 36.9686 L1094.25 37.9813 Q1103.41 39.7232 1107.74 44.1387 Q1112.12 48.5136 1112.12 55.8863 Q1112.12 64.6767 1106.2 69.2137 Q1100.33 73.7508 1088.95 73.7508 Q1084.65 73.7508 1079.79 72.7785 Q1074.97 71.8063 1069.78 69.9024 L1069.78 61.4765 Q1074.77 64.2716 1079.55 65.6895 Q1084.33 67.1073 1088.95 67.1073 Q1095.95 67.1073 1099.76 64.3527 Q1103.57 61.598 1103.57 56.4939 Q1103.57 52.0379 1100.81 49.5264 Q1098.1 47.0148 1091.86 45.759 L1086.88 44.7868 Q1077.72 42.9639 1073.63 39.075 Q1069.54 35.1862 1069.54 28.2591 Q1069.54 20.2383 1075.17 15.6203 Q1080.84 11.0023 1090.77 11.0023 Q1095.02 11.0023 1099.44 11.7719 Q1103.85 12.5416 1108.47 14.0809 Z" fill="#000000" fill-rule="nonzero" fill-opacity="1" /><path clip-path="url(#clip890)" d="M1124.55 27.2059 L1132.01 27.2059 L1132.01 72.576 L1124.55 72.576 L1124.55 27.2059 M1124.55 9.54393 L1132.01 9.54393 L1132.01 18.9825 L1124.55 18.9825 L1124.55 9.54393 Z" fill="#000000" fill-rule="nonzero" fill-opacity="1" /><path clip-path="url(#clip890)" d="M1177.46 49.3643 Q1177.46 41.2625 1174.1 36.8065 Q1170.77 32.3505 1164.74 32.3505 Q1158.74 32.3505 1155.38 36.8065 Q1152.06 41.2625 1152.06 49.3643 Q1152.06 57.4256 1155.38 61.8816 Q1158.74 66.3376 1164.74 66.3376 Q1170.77 66.3376 1174.1 61.8816 Q1177.46 57.4256 1177.46 49.3643 M1184.91 66.9452 Q1184.91 78.5308 1179.77 84.1616 Q1174.62 89.8329 1164.01 89.8329 Q1160.08 89.8329 1156.6 89.2252 Q1153.11 88.6581 1149.83 87.4428 L1149.83 80.1917 Q1153.11 81.9741 1156.31 82.8248 Q1159.51 83.6755 1162.83 83.6755 Q1170.17 83.6755 1173.81 79.8271 Q1177.46 76.0193 1177.46 68.282 L1177.46 64.5957 Q1175.15 68.6061 1171.54 70.5911 Q1167.94 72.576 1162.91 72.576 Q1154.57 72.576 1149.47 66.2161 Q1144.36 59.8562 1144.36 49.3643 Q1144.36 38.832 1149.47 32.472 Q1154.57 26.1121 1162.91 26.1121 Q1167.94 26.1121 1171.54 28.0971 Q1175.15 30.082 1177.46 34.0924 L1177.46 27.2059 L1184.91 27.2059 L1184.91 66.9452 Z" fill="#000000" fill-rule="nonzero" fill-opacity="1" /><path clip-path="url(#clip890)" d="M1235.59 35.9153 Q1238.38 30.8922 1242.27 28.5022 Q1246.16 26.1121 1251.43 26.1121 Q1258.52 26.1121 1262.36 31.0947 Q1266.21 36.0368 1266.21 45.1919 L1266.21 72.576 L1258.72 72.576 L1258.72 45.4349 Q1258.72 38.913 1256.41 35.7533 Q1254.1 32.5936 1249.36 32.5936 Q1243.57 32.5936 1240.21 36.4419 Q1236.84 40.2903 1236.84 46.9338 L1236.84 72.576 L1229.35 72.576 L1229.35 45.4349 Q1229.35 38.8725 1227.04 35.7533 Q1224.73 32.5936 1219.91 32.5936 Q1214.2 32.5936 1210.84 36.4824 Q1207.47 40.3308 1207.47 46.9338 L1207.47 72.576 L1199.98 72.576 L1199.98 27.2059 L1207.47 27.2059 L1207.47 34.2544 Q1210.03 30.082 1213.59 28.0971 Q1217.16 26.1121 1222.06 26.1121 Q1227 26.1121 1230.44 28.6237 Q1233.93 31.1352 1235.59 35.9153 Z" fill="#000000" fill-rule="nonzero" fill-opacity="1" /><path clip-path="url(#clip890)" d="M1301.7 49.7694 Q1292.67 49.7694 1289.18 51.8354 Q1285.7 53.9013 1285.7 58.8839 Q1285.7 62.8538 1288.29 65.2034 Q1290.92 67.5124 1295.42 67.5124 Q1301.62 67.5124 1305.34 63.1374 Q1309.11 58.7219 1309.11 51.4303 L1309.11 49.7694 L1301.7 49.7694 M1316.57 46.6907 L1316.57 72.576 L1309.11 72.576 L1309.11 65.6895 Q1306.56 69.8214 1302.75 71.8063 Q1298.94 73.7508 1293.43 73.7508 Q1286.47 73.7508 1282.34 69.8619 Q1278.24 65.9325 1278.24 59.3701 Q1278.24 51.7138 1283.35 47.825 Q1288.49 43.9361 1298.66 43.9361 L1309.11 43.9361 L1309.11 43.2069 Q1309.11 38.0623 1305.71 35.2672 Q1302.35 32.4315 1296.23 32.4315 Q1292.34 32.4315 1288.65 33.3632 Q1284.97 34.295 1281.57 36.1584 L1281.57 29.2718 Q1285.66 27.692 1289.51 26.9223 Q1293.35 26.1121 1297 26.1121 Q1306.84 26.1121 1311.7 31.2163 Q1316.57 36.3204 1316.57 46.6907 Z" fill="#000000" fill-rule="nonzero" fill-opacity="1" /><path clip-path="url(#clip890)" d="M1366.8 18.8205 L1366.8 41.5461 L1377.09 41.5461 Q1382.8 41.5461 1385.92 38.5889 Q1389.04 35.6318 1389.04 30.163 Q1389.04 24.7348 1385.92 21.7777 Q1382.8 18.8205 1377.09 18.8205 L1366.8 18.8205 M1358.61 12.096 L1377.09 12.096 Q1387.25 12.096 1392.44 16.714 Q1397.66 21.2916 1397.66 30.163 Q1397.66 39.1155 1392.44 43.6931 Q1387.25 48.2706 1377.09 48.2706 L1366.8 48.2706 L1366.8 72.576 L1358.61 72.576 L1358.61 12.096 Z" fill="#000000" fill-rule="nonzero" fill-opacity="1" /><path clip-path="url(#clip890)" d="M1408.32 9.54393 L1415.77 9.54393 L1415.77 72.576 L1408.32 72.576 L1408.32 9.54393 Z" fill="#000000" fill-rule="nonzero" fill-opacity="1" /><path clip-path="url(#clip890)" d="M1448.95 32.4315 Q1442.95 32.4315 1439.47 37.1306 Q1435.99 41.7891 1435.99 49.9314 Q1435.99 58.0738 1439.43 62.7728 Q1442.91 67.4314 1448.95 67.4314 Q1454.9 67.4314 1458.39 62.7323 Q1461.87 58.0333 1461.87 49.9314 Q1461.87 41.8701 1458.39 37.1711 Q1454.9 32.4315 1448.95 32.4315 M1448.95 26.1121 Q1458.67 26.1121 1464.22 32.4315 Q1469.77 38.7509 1469.77 49.9314 Q1469.77 61.0714 1464.22 67.4314 Q1458.67 73.7508 1448.95 73.7508 Q1439.19 73.7508 1433.64 67.4314 Q1428.13 61.0714 1428.13 49.9314 Q1428.13 38.7509 1433.64 32.4315 Q1439.19 26.1121 1448.95 26.1121 Z" fill="#000000" fill-rule="nonzero" fill-opacity="1" /><path clip-path="url(#clip890)" d="M1489.5 14.324 L1489.5 27.2059 L1504.85 27.2059 L1504.85 32.9987 L1489.5 32.9987 L1489.5 57.6282 Q1489.5 63.1779 1491 64.7578 Q1492.54 66.3376 1497.2 66.3376 L1504.85 66.3376 L1504.85 72.576 L1497.2 72.576 Q1488.57 72.576 1485.29 69.3758 Q1482 66.1351 1482 57.6282 L1482 32.9987 L1476.54 32.9987 L1476.54 27.2059 L1482 27.2059 L1482 14.324 L1489.5 14.324 Z" fill="#000000" fill-rule="nonzero" fill-opacity="1" /><polyline clip-path="url(#clip892)" style="stroke:#009af9; stroke-linecap:round; stroke-linejoin:round; stroke-width:4; stroke-opacity:1; fill:none" points="281.952,805.166 545.221,804.941 699.224,804.566 808.491,804.04 893.244,803.363 962.493,802.534 1021.04,801.552 1071.76,800.417 1116.5,799.127 1156.51,797.68 1192.71,796.076 1225.76,794.313 1256.16,792.39 1284.31,790.304 1310.52,788.054 1335.03,785.638 1358.06,783.054 1379.77,780.3 1400.3,777.376 1419.78,774.278 1438.31,771.005 1455.98,767.556 1472.87,763.93 1489.03,760.125 1504.54,756.141 1519.43,751.978 1533.77,747.636 1547.58,743.115 1560.91,738.418 1573.79,733.548 1586.24,728.506 1598.3,723.3 1609.99,717.934 1621.32,712.418 1632.33,706.761 1643.03,700.974 1653.44,695.074 1663.57,689.078 1673.44,683.008 1683.05,676.887 1692.43,670.745 1701.58,664.616 1710.52,658.537 1719.25,652.552 1727.79,646.708 1736.14,641.06 1744.3,635.665 1752.3,630.584 1760.13,625.883 1767.81,621.629 1775.33,617.887 1782.7,614.722 1789.94,612.192 1797.04,610.351 1804.01,609.241 1810.85,608.893 1817.57,609.324 1824.18,610.537 1830.67,612.52 1837.06,615.249 1843.33,618.685 1849.51,622.779 1855.59,627.475 1861.57,632.711 1867.46,638.421 1873.26,644.537 1878.97,650.995 1884.59,657.73 1890.14,664.682 1895.6,671.795 1900.99,679.017 1906.3,686.301 1911.54,693.607 1916.71,700.894 1921.81,708.132 1926.84,715.289 1931.8,722.339 1936.71,729.259 1941.54,736.028 1946.32,742.628 1951.04,749.041 1955.7,755.254 1960.3,761.252 1964.85,767.022 1969.35,772.553 1973.79,777.833 1978.18,782.853 1982.52,787.602 1986.81,792.072 1991.06,796.253 1995.25,800.138 1999.41,803.719 2003.51,806.99 2007.57,809.947 2011.59,812.583 2015.57,814.898 2019.51,816.887 2023.4,818.551 2027.26,819.892 2031.08,820.91 2034.85,821.61 2038.6,821.996 2042.3,822.075 2045.97,821.853 2049.61,821.337 2053.21,820.536 2056.77,819.459 2060.31,818.113 2063.81,816.507 2067.28,814.65 2070.71,812.55 2074.12,810.214 2077.5,807.65 2080.84,804.864 2084.16,801.862 2087.45,798.649 2090.71,795.231 2093.94,791.61 2097.15,787.79 2100.32,783.774 2103.48,779.563 2106.6,775.158 2109.7,770.561 2112.78,765.771 2115.83,760.787 2118.86,755.607 2121.86,750.23 2124.84,744.653 2127.79,738.872 2130.73,732.883 2133.64,726.682 2136.53,720.262 2139.39,713.619 2142.24,706.744 2145.06,699.631 2147.86,692.271 2150.65,684.654 2153.41,676.77 2156.15,668.608 2158.87,660.156 2161.58,651.401 2164.26,642.326 2166.93,632.918 2169.57,623.158 2172.2,613.028 2174.81,602.506 2177.41,591.571 2179.98,580.199 2182.54,568.362 2185.08,556.032 2187.6,543.179 2190.11,529.767 2192.6,515.762 2195.07,501.123 2197.53,485.809 2199.98,469.776 2202.4,452.98 2204.81,435.375 2207.21,416.918 2209.59,397.572 2211.96,377.311 2214.31,356.13 2216.65,334.06 2218.97,311.19 2221.28,287.697 2223.57,263.894 2225.86,240.286 2228.12,217.633 2230.38,196.986 2232.62,179.658 2234.85,167.042 2237.06,160.284 2239.26,159.909 2241.45,165.613 2243.63,176.384 2245.79,190.848 2247.94,207.629 2250.08,225.577 2252.21,243.835 2254.33,261.815 2256.43,279.14 2258.52,295.585 2260.61,311.024 2262.68,325.4 2264.73,338.693 2266.78,350.91 2268.82,362.071 2270.84,372.204 2272.86,381.338 2274.86,389.504 2276.86,396.73 2278.84,403.043 2280.81,408.466 2282.78,413.021 2284.73,416.724 2286.67,419.589 2288.6,421.628 2290.53,422.849 2292.44,423.255 "/>
<polyline clip-path="url(#clip892)" style="stroke:#009af9; stroke-linecap:round; stroke-linejoin:round; stroke-width:4; stroke-opacity:1; fill:none" points="281.952,1374.46 545.221,1373.64 699.224,1372.29 808.491,1370.43 893.244,1368.06 962.493,1365.22 1021.04,1361.93 1071.76,1358.22 1116.5,1354.14 1156.51,1349.71 1192.71,1344.97 1225.76,1339.95 1256.16,1334.68 1284.31,1329.21 1310.52,1323.56 1335.03,1317.76 1358.06,1311.83 1379.77,1305.82 1400.3,1299.72 1419.78,1293.58 1438.31,1287.41 1455.98,1281.22 1472.87,1275.03 1489.03,1268.86 1504.54,1262.71 1519.43,1256.61 1533.77,1250.55 1547.58,1244.55 1560.91,1238.61 1573.79,1232.74 1586.24,1226.94 1598.3,1221.23 1609.99,1215.6 1621.32,1210.05 1632.33,1204.6 1643.03,1199.23 1653.44,1193.96 1663.57,1188.78 1673.44,1183.7 1683.05,1178.71 1692.43,1173.81 1701.58,1169.01 1710.52,1164.3 1719.25,1159.69 1727.79,1155.17 1736.14,1150.73 1744.3,1146.39 1752.3,1142.14 1760.13,1137.97 1767.81,1133.89 1775.33,1129.9 1782.7,1125.98 1789.94,1122.15 1797.04,1118.4 1804.01,1114.72 1810.85,1111.12 1817.57,1107.59 1824.18,1104.14 1830.67,1100.76 1837.06,1097.45 1843.33,1094.21 1849.51,1091.04 1855.59,1087.93 1861.57,1084.89 1867.46,1081.92 1873.26,1079.01 1878.97,1076.17 1884.59,1073.39 1890.14,1070.68 1895.6,1068.04 1900.99,1065.46 1906.3,1062.95 1911.54,1060.51 1916.71,1058.14 1921.81,1055.85 1926.84,1053.63 1931.8,1051.49 1936.71,1049.43 1941.54,1047.46 1946.32,1045.58 1951.04,1043.79 1955.7,1042.1 1960.3,1040.52 1964.85,1039.04 1969.35,1037.69 1973.79,1036.45 1978.18,1035.34 1982.52,1034.37 1986.81,1033.55 1991.06,1032.87 1995.25,1032.35 1999.41,1031.99 2003.51,1031.8 2007.57,1031.78 2011.59,1031.94 2015.57,1032.28 2019.51,1032.8 2023.4,1033.5 2027.26,1034.38 2031.08,1035.44 2034.85,1036.68 2038.6,1038.08 2042.3,1039.65 2045.97,1041.37 2049.61,1043.24 2053.21,1045.25 2056.77,1047.39 2060.31,1049.65 2063.81,1052.03 2067.28,1054.5 2070.71,1057.07 2074.12,1059.72 2077.5,1062.45 2080.84,1065.24 2084.16,1068.09 2087.45,1070.99 2090.71,1073.94 2093.94,1076.93 2097.15,1079.95 2100.32,1082.99 2103.48,1086.06 2106.6,1089.14 2109.7,1092.24 2112.78,1095.34 2115.83,1098.45 2118.86,1101.56 2121.86,1104.67 2124.84,1107.78 2127.79,1110.88 2130.73,1113.97 2133.64,1117.05 2136.53,1120.12 2139.39,1123.17 2142.24,1126.21 2145.06,1129.23 2147.86,1132.23 2150.65,1135.22 2153.41,1138.18 2156.15,1141.11 2158.87,1144.03 2161.58,1146.92 2164.26,1149.79 2166.93,1152.63 2169.57,1155.44 2172.2,1158.23 2174.81,1160.99 2177.41,1163.72 2179.98,1166.43 2182.54,1169.1 2185.08,1171.74 2187.6,1174.36 2190.11,1176.94 2192.6,1179.49 2195.07,1182.01 2197.53,1184.5 2199.98,1186.95 2202.4,1189.37 2204.81,1191.75 2207.21,1194.1 2209.59,1196.42 2211.96,1198.7 2214.31,1200.94 2216.65,1203.15 2218.97,1205.32 2221.28,1207.45 2223.57,1209.54 2225.86,1211.59 2228.12,1213.59 2230.38,1215.56 2232.62,1217.48 2234.85,1219.36 2237.06,1221.19 2239.26,1222.98 2241.45,1224.72 2243.63,1226.4 2245.79,1228.04 2247.94,1229.63 2250.08,1231.16 2252.21,1232.63 2254.33,1234.05 2256.43,1235.42 2258.52,1236.72 2260.61,1237.95 2262.68,1239.13 2264.73,1240.24 2266.78,1241.28 2268.82,1242.25 2270.84,1243.16 2272.86,1243.99 2274.86,1244.74 2276.86,1245.42 2278.84,1246.03 2280.81,1246.56 2282.78,1247 2284.73,1247.37 2286.67,1247.66 2288.6,1247.86 2290.53,1247.99 2292.44,1248.03 "/>
<polyline clip-path="url(#clip892)" style="stroke:#e26f46; stroke-linecap:round; stroke-linejoin:round; stroke-width:4; stroke-opacity:1; fill:none" points="281.952,805.166 545.221,804.941 699.224,804.566 808.491,804.04 893.244,803.363 962.493,802.534 1021.04,801.552 1071.76,800.417 1116.5,799.127 1156.51,797.68 1192.71,796.076 1225.76,794.313 1256.16,792.39 1284.31,790.304 1310.52,788.054 1335.03,785.638 1358.06,783.054 1379.77,780.3 1400.3,777.376 1419.78,774.278 1438.31,771.005 1455.98,767.556 1472.87,763.93 1489.03,760.125 1504.54,756.141 1519.43,751.978 1533.77,747.636 1547.58,743.115 1560.91,738.418 1573.79,733.548 1586.24,728.506 1598.3,723.3 1609.99,717.934 1621.32,712.418 1632.33,706.761 1643.03,700.974 1653.44,695.074 1663.57,689.078 1673.44,683.008 1683.05,676.887 1692.43,670.745 1701.58,664.616 1710.52,658.537 1719.25,652.552 1727.79,646.708 1736.14,641.06 1744.3,635.665 1752.3,630.584 1760.13,625.883 1767.81,621.629 1775.33,617.887 1782.7,614.722 1789.94,612.192 1797.04,610.351 1804.01,609.241 1810.85,608.893 1817.57,609.324 1824.18,610.537 1830.67,612.52 1837.06,615.249 1843.33,618.685 1849.51,622.779 1855.59,627.475 1861.57,632.711 1867.46,638.421 1873.26,644.537 1878.97,650.995 1884.59,657.73 1890.14,664.682 1895.6,671.795 1900.99,679.017 1906.3,686.301 1911.54,693.607 1916.71,700.894 1921.81,708.132 1926.84,715.289 1931.8,722.339 1936.71,729.259 1941.54,736.028 1946.32,742.628 1951.04,749.041 1955.7,755.254 1960.3,761.252 1964.85,767.022 1969.35,772.553 1973.79,777.833 1978.18,782.853 1982.52,787.602 1986.81,792.072 1991.06,796.253 1995.25,800.138 1999.41,803.719 2003.51,806.99 2007.57,809.947 2011.59,812.583 2015.57,814.898 2019.51,816.887 2023.4,818.551 2027.26,819.892 2031.08,820.91 2034.85,821.61 2038.6,821.996 2042.3,822.075 2045.97,821.853 2049.61,821.337 2053.21,820.536 2056.77,819.459 2060.31,818.113 2063.81,816.507 2067.28,814.65 2070.71,812.55 2074.12,810.214 2077.5,807.65 2080.84,804.864 2084.16,801.862 2087.45,798.649 2090.71,795.231 2093.94,791.61 2097.15,787.79 2100.32,783.774 2103.48,779.563 2106.6,775.158 2109.7,770.561 2112.78,765.771 2115.83,760.787 2118.86,755.607 2121.86,750.23 2124.84,744.653 2127.79,738.872 2130.73,732.883 2133.64,726.682 2136.53,720.262 2139.39,713.619 2142.24,706.744 2145.06,699.631 2147.86,692.271 2150.65,684.654 2153.41,676.77 2156.15,668.608 2158.87,660.156 2161.58,651.401 2164.26,642.326 2166.93,632.918 2169.57,623.158 2172.2,613.028 2174.81,602.506 2177.41,591.571 2179.98,580.199 2182.54,568.362 2185.08,556.032 2187.6,543.179 2190.11,529.767 2192.6,515.762 2195.07,501.123 2197.53,485.809 2199.98,469.776 2202.4,452.98 2204.81,435.375 2207.21,416.918 2209.59,397.572 2211.96,377.311 2214.31,356.13 2216.65,334.06 2218.97,311.19 2221.28,287.697 2223.57,263.894 2225.86,240.286 2228.12,217.633 2230.38,196.986 2232.62,179.658 2234.85,167.042 2237.06,160.284 2239.26,159.909 2241.45,165.613 2243.63,176.384 2245.79,190.848 2247.94,207.629 2250.08,225.577 2252.21,243.835 2254.33,261.815 2256.43,279.14 2258.52,295.585 2260.61,311.024 2262.68,325.4 2264.73,338.693 2266.78,350.91 2268.82,362.071 2270.84,372.204 2272.86,381.338 2274.86,389.504 2276.86,396.73 2278.84,403.043 2280.81,408.466 2282.78,413.021 2284.73,416.724 2286.67,419.589 2288.6,421.628 2290.53,422.849 2292.44,423.255 "/>
<polyline clip-path="url(#clip892)" style="stroke:#e26f46; stroke-linecap:round; stroke-linejoin:round; stroke-width:4; stroke-opacity:1; fill:none" points="281.952,1374.46 545.221,1373.64 699.224,1372.29 808.491,1370.43 893.244,1368.06 962.493,1365.22 1021.04,1361.93 1071.76,1358.22 1116.5,1354.14 1156.51,1349.71 1192.71,1344.97 1225.76,1339.95 1256.16,1334.68 1284.31,1329.21 1310.52,1323.56 1335.03,1317.76 1358.06,1311.83 1379.77,1305.82 1400.3,1299.72 1419.78,1293.58 1438.31,1287.41 1455.98,1281.22 1472.87,1275.03 1489.03,1268.86 1504.54,1262.71 1519.43,1256.61 1533.77,1250.55 1547.58,1244.55 1560.91,1238.61 1573.79,1232.74 1586.24,1226.94 1598.3,1221.23 1609.99,1215.6 1621.32,1210.05 1632.33,1204.6 1643.03,1199.23 1653.44,1193.96 1663.57,1188.78 1673.44,1183.7 1683.05,1178.71 1692.43,1173.81 1701.58,1169.01 1710.52,1164.3 1719.25,1159.69 1727.79,1155.17 1736.14,1150.73 1744.3,1146.39 1752.3,1142.14 1760.13,1137.97 1767.81,1133.89 1775.33,1129.9 1782.7,1125.98 1789.94,1122.15 1797.04,1118.4 1804.01,1114.72 1810.85,1111.12 1817.57,1107.59 1824.18,1104.14 1830.67,1100.76 1837.06,1097.45 1843.33,1094.21 1849.51,1091.04 1855.59,1087.93 1861.57,1084.89 1867.46,1081.92 1873.26,1079.01 1878.97,1076.17 1884.59,1073.39 1890.14,1070.68 1895.6,1068.04 1900.99,1065.46 1906.3,1062.95 1911.54,1060.51 1916.71,1058.14 1921.81,1055.85 1926.84,1053.63 1931.8,1051.49 1936.71,1049.43 1941.54,1047.46 1946.32,1045.58 1951.04,1043.79 1955.7,1042.1 1960.3,1040.52 1964.85,1039.04 1969.35,1037.69 1973.79,1036.45 1978.18,1035.34 1982.52,1034.37 1986.81,1033.55 1991.06,1032.87 1995.25,1032.35 1999.41,1031.99 2003.51,1031.8 2007.57,1031.78 2011.59,1031.94 2015.57,1032.28 2019.51,1032.8 2023.4,1033.5 2027.26,1034.38 2031.08,1035.44 2034.85,1036.68 2038.6,1038.08 2042.3,1039.65 2045.97,1041.37 2049.61,1043.24 2053.21,1045.25 2056.77,1047.39 2060.31,1049.65 2063.81,1052.03 2067.28,1054.5 2070.71,1057.07 2074.12,1059.72 2077.5,1062.45 2080.84,1065.24 2084.16,1068.09 2087.45,1070.99 2090.71,1073.94 2093.94,1076.93 2097.15,1079.95 2100.32,1082.99 2103.48,1086.06 2106.6,1089.14 2109.7,1092.24 2112.78,1095.34 2115.83,1098.45 2118.86,1101.56 2121.86,1104.67 2124.84,1107.78 2127.79,1110.88 2130.73,1113.97 2133.64,1117.05 2136.53,1120.12 2139.39,1123.17 2142.24,1126.21 2145.06,1129.23 2147.86,1132.23 2150.65,1135.22 2153.41,1138.18 2156.15,1141.11 2158.87,1144.03 2161.58,1146.92 2164.26,1149.79 2166.93,1152.63 2169.57,1155.44 2172.2,1158.23 2174.81,1160.99 2177.41,1163.72 2179.98,1166.43 2182.54,1169.1 2185.08,1171.74 2187.6,1174.36 2190.11,1176.94 2192.6,1179.49 2195.07,1182.01 2197.53,1184.5 2199.98,1186.95 2202.4,1189.37 2204.81,1191.75 2207.21,1194.1 2209.59,1196.42 2211.96,1198.7 2214.31,1200.94 2216.65,1203.15 2218.97,1205.32 2221.28,1207.45 2223.57,1209.54 2225.86,1211.59 2228.12,1213.59 2230.38,1215.56 2232.62,1217.48 2234.85,1219.36 2237.06,1221.19 2239.26,1222.98 2241.45,1224.72 2243.63,1226.4 2245.79,1228.04 2247.94,1229.63 2250.08,1231.16 2252.21,1232.63 2254.33,1234.05 2256.43,1235.42 2258.52,1236.72 2260.61,1237.95 2262.68,1239.13 2264.73,1240.24 2266.78,1241.28 2268.82,1242.25 2270.84,1243.16 2272.86,1243.99 2274.86,1244.74 2276.86,1245.42 2278.84,1246.03 2280.81,1246.56 2282.78,1247 2284.73,1247.37 2286.67,1247.66 2288.6,1247.86 2290.53,1247.99 2292.44,1248.03 "/>
<path clip-path="url(#clip890)" d="M292.674 321.906 L898.863 321.906 L898.863 166.386 L292.674 166.386  Z" fill="#ffffff" fill-rule="evenodd" fill-opacity="1"/>
<polyline clip-path="url(#clip890)" style="stroke:#000000; stroke-linecap:round; stroke-linejoin:round; stroke-width:4; stroke-opacity:1; fill:none" points="292.674,321.906 898.863,321.906 898.863,166.386 292.674,166.386 292.674,321.906 "/>
<polyline clip-path="url(#clip890)" style="stroke:#009af9; stroke-linecap:round; stroke-linejoin:round; stroke-width:4; stroke-opacity:1; fill:none" points="316.353,218.226 458.428,218.226 "/>
<path clip-path="url(#clip890)" d="M482.107 200.946 L511.343 200.946 L511.343 204.881 L499.075 204.881 L499.075 235.506 L494.376 235.506 L494.376 204.881 L482.107 204.881 L482.107 200.946 Z" fill="#000000" fill-rule="nonzero" fill-opacity="1" /><path clip-path="url(#clip890)" d="M523.727 213.562 Q523.01 213.145 522.153 212.96 Q521.32 212.752 520.301 212.752 Q516.69 212.752 514.746 215.113 Q512.825 217.451 512.825 221.849 L512.825 235.506 L508.542 235.506 L508.542 209.58 L512.825 209.58 L512.825 213.608 Q514.167 211.247 516.32 210.113 Q518.473 208.955 521.551 208.955 Q521.991 208.955 522.524 209.025 Q523.056 209.071 523.704 209.187 L523.727 213.562 Z" fill="#000000" fill-rule="nonzero" fill-opacity="1" /><path clip-path="url(#clip890)" d="M527.755 225.275 L527.755 209.58 L532.014 209.58 L532.014 225.113 Q532.014 228.793 533.449 230.645 Q534.885 232.474 537.755 232.474 Q541.204 232.474 543.195 230.275 Q545.209 228.076 545.209 224.279 L545.209 209.58 L549.468 209.58 L549.468 235.506 L545.209 235.506 L545.209 231.525 Q543.658 233.886 541.598 235.043 Q539.561 236.178 536.852 236.178 Q532.385 236.178 530.07 233.4 Q527.755 230.622 527.755 225.275 M538.473 208.955 L538.473 208.955 Z" fill="#000000" fill-rule="nonzero" fill-opacity="1" /><path clip-path="url(#clip890)" d="M580.417 221.479 L580.417 223.562 L560.834 223.562 Q561.111 227.96 563.472 230.275 Q565.857 232.566 570.093 232.566 Q572.546 232.566 574.838 231.965 Q577.153 231.363 579.421 230.159 L579.421 234.187 Q577.13 235.159 574.722 235.668 Q572.315 236.178 569.838 236.178 Q563.635 236.178 560 232.566 Q556.389 228.955 556.389 222.798 Q556.389 216.432 559.815 212.705 Q563.264 208.955 569.097 208.955 Q574.329 208.955 577.361 212.335 Q580.417 215.692 580.417 221.479 M576.158 220.229 Q576.111 216.733 574.19 214.65 Q572.292 212.567 569.144 212.567 Q565.579 212.567 563.426 214.58 Q561.297 216.594 560.972 220.252 L576.158 220.229 Z" fill="#000000" fill-rule="nonzero" fill-opacity="1" /><path clip-path="url(#clip890)" d="M619.005 210.344 L619.005 214.372 Q617.199 213.446 615.255 212.983 Q613.31 212.52 611.227 212.52 Q608.056 212.52 606.458 213.493 Q604.884 214.465 604.884 216.409 Q604.884 217.891 606.019 218.747 Q607.153 219.58 610.579 220.344 L612.037 220.668 Q616.574 221.641 618.472 223.423 Q620.393 225.182 620.393 228.354 Q620.393 231.965 617.523 234.071 Q614.676 236.178 609.676 236.178 Q607.593 236.178 605.324 235.761 Q603.079 235.367 600.579 234.557 L600.579 230.159 Q602.94 231.386 605.232 232.011 Q607.523 232.613 609.769 232.613 Q612.778 232.613 614.398 231.594 Q616.018 230.553 616.018 228.678 Q616.018 226.942 614.838 226.016 Q613.681 225.09 609.722 224.233 L608.241 223.886 Q604.282 223.053 602.523 221.34 Q600.764 219.604 600.764 216.594 Q600.764 212.937 603.357 210.946 Q605.949 208.955 610.718 208.955 Q613.079 208.955 615.162 209.303 Q617.245 209.65 619.005 210.344 Z" fill="#000000" fill-rule="nonzero" fill-opacity="1" /><path clip-path="url(#clip890)" d="M637.963 237.914 Q636.157 242.543 634.444 243.955 Q632.731 245.367 629.861 245.367 L626.458 245.367 L626.458 241.803 L628.958 241.803 Q630.717 241.803 631.69 240.969 Q632.662 240.136 633.842 237.034 L634.606 235.09 L624.12 209.58 L628.634 209.58 L636.736 229.858 L644.838 209.58 L649.352 209.58 L637.963 237.914 Z" fill="#000000" fill-rule="nonzero" fill-opacity="1" /><path clip-path="url(#clip890)" d="M671.759 210.344 L671.759 214.372 Q669.953 213.446 668.009 212.983 Q666.065 212.52 663.981 212.52 Q660.81 212.52 659.213 213.493 Q657.639 214.465 657.639 216.409 Q657.639 217.891 658.773 218.747 Q659.907 219.58 663.333 220.344 L664.791 220.668 Q669.328 221.641 671.227 223.423 Q673.148 225.182 673.148 228.354 Q673.148 231.965 670.277 234.071 Q667.43 236.178 662.43 236.178 Q660.347 236.178 658.078 235.761 Q655.833 235.367 653.333 234.557 L653.333 230.159 Q655.694 231.386 657.986 232.011 Q660.278 232.613 662.523 232.613 Q665.532 232.613 667.152 231.594 Q668.773 230.553 668.773 228.678 Q668.773 226.942 667.592 226.016 Q666.435 225.09 662.477 224.233 L660.995 223.886 Q657.037 223.053 655.278 221.34 Q653.518 219.604 653.518 216.594 Q653.518 212.937 656.111 210.946 Q658.703 208.955 663.472 208.955 Q665.833 208.955 667.916 209.303 Q670 209.65 671.759 210.344 Z" fill="#000000" fill-rule="nonzero" fill-opacity="1" /><path clip-path="url(#clip890)" d="M684.143 202.219 L684.143 209.58 L692.916 209.58 L692.916 212.891 L684.143 212.891 L684.143 226.965 Q684.143 230.136 685 231.039 Q685.879 231.941 688.541 231.941 L692.916 231.941 L692.916 235.506 L688.541 235.506 Q683.611 235.506 681.736 233.678 Q679.861 231.826 679.861 226.965 L679.861 212.891 L676.736 212.891 L676.736 209.58 L679.861 209.58 L679.861 202.219 L684.143 202.219 Z" fill="#000000" fill-rule="nonzero" fill-opacity="1" /><path clip-path="url(#clip890)" d="M720.694 221.479 L720.694 223.562 L701.111 223.562 Q701.388 227.96 703.749 230.275 Q706.134 232.566 710.37 232.566 Q712.824 232.566 715.115 231.965 Q717.43 231.363 719.698 230.159 L719.698 234.187 Q717.407 235.159 714.999 235.668 Q712.592 236.178 710.115 236.178 Q703.912 236.178 700.277 232.566 Q696.666 228.955 696.666 222.798 Q696.666 216.432 700.092 212.705 Q703.541 208.955 709.374 208.955 Q714.606 208.955 717.638 212.335 Q720.694 215.692 720.694 221.479 M716.435 220.229 Q716.388 216.733 714.467 214.65 Q712.569 212.567 709.421 212.567 Q705.856 212.567 703.703 214.58 Q701.574 216.594 701.25 220.252 L716.435 220.229 Z" fill="#000000" fill-rule="nonzero" fill-opacity="1" /><path clip-path="url(#clip890)" d="M747.87 214.557 Q749.467 211.687 751.689 210.321 Q753.911 208.955 756.921 208.955 Q760.971 208.955 763.17 211.803 Q765.37 214.627 765.37 219.858 L765.37 235.506 L761.087 235.506 L761.087 219.997 Q761.087 216.27 759.768 214.465 Q758.448 212.659 755.74 212.659 Q752.43 212.659 750.509 214.858 Q748.587 217.057 748.587 220.854 L748.587 235.506 L744.305 235.506 L744.305 219.997 Q744.305 216.247 742.985 214.465 Q741.666 212.659 738.911 212.659 Q735.647 212.659 733.726 214.881 Q731.805 217.08 731.805 220.854 L731.805 235.506 L727.523 235.506 L727.523 209.58 L731.805 209.58 L731.805 213.608 Q733.263 211.224 735.3 210.09 Q737.337 208.955 740.138 208.955 Q742.962 208.955 744.93 210.391 Q746.921 211.826 747.87 214.557 Z" fill="#000000" fill-rule="nonzero" fill-opacity="1" /><polyline clip-path="url(#clip890)" style="stroke:#e26f46; stroke-linecap:round; stroke-linejoin:round; stroke-width:4; stroke-opacity:1; fill:none" points="316.353,270.066 458.428,270.066 "/>
<path clip-path="url(#clip890)" d="M482.107 252.786 L503.959 252.786 L503.959 256.721 L486.783 256.721 L486.783 266.953 L503.241 266.953 L503.241 270.888 L486.783 270.888 L486.783 283.411 L504.376 283.411 L504.376 287.346 L482.107 287.346 L482.107 252.786 Z" fill="#000000" fill-rule="nonzero" fill-opacity="1" /><path clip-path="url(#clip890)" d="M528.403 262.184 L528.403 266.212 Q526.598 265.286 524.653 264.823 Q522.709 264.36 520.625 264.36 Q517.454 264.36 515.857 265.333 Q514.283 266.305 514.283 268.249 Q514.283 269.731 515.417 270.587 Q516.551 271.42 519.977 272.184 L521.436 272.508 Q525.973 273.481 527.871 275.263 Q529.792 277.022 529.792 280.194 Q529.792 283.805 526.922 285.911 Q524.075 288.018 519.075 288.018 Q516.991 288.018 514.723 287.601 Q512.477 287.207 509.977 286.397 L509.977 281.999 Q512.338 283.226 514.63 283.851 Q516.922 284.453 519.167 284.453 Q522.176 284.453 523.797 283.434 Q525.417 282.393 525.417 280.518 Q525.417 278.782 524.237 277.856 Q523.079 276.93 519.121 276.073 L517.639 275.726 Q513.681 274.893 511.922 273.18 Q510.163 271.444 510.163 268.434 Q510.163 264.777 512.755 262.786 Q515.348 260.795 520.116 260.795 Q522.477 260.795 524.561 261.143 Q526.644 261.49 528.403 262.184 Z" fill="#000000" fill-rule="nonzero" fill-opacity="1" /><path clip-path="url(#clip890)" d="M540.787 254.059 L540.787 261.42 L549.561 261.42 L549.561 264.731 L540.787 264.731 L540.787 278.805 Q540.787 281.976 541.644 282.879 Q542.524 283.781 545.186 283.781 L549.561 283.781 L549.561 287.346 L545.186 287.346 Q540.255 287.346 538.38 285.518 Q536.505 283.666 536.505 278.805 L536.505 264.731 L533.38 264.731 L533.38 261.42 L536.505 261.42 L536.505 254.059 L540.787 254.059 Z" fill="#000000" fill-rule="nonzero" fill-opacity="1" /><path clip-path="url(#clip890)" d="M555.162 261.42 L559.422 261.42 L559.422 287.346 L555.162 287.346 L555.162 261.42 M555.162 251.328 L559.422 251.328 L559.422 256.721 L555.162 256.721 L555.162 251.328 Z" fill="#000000" fill-rule="nonzero" fill-opacity="1" /><path clip-path="url(#clip890)" d="M588.519 266.397 Q590.116 263.527 592.338 262.161 Q594.56 260.795 597.57 260.795 Q601.62 260.795 603.819 263.643 Q606.019 266.467 606.019 271.698 L606.019 287.346 L601.736 287.346 L601.736 271.837 Q601.736 268.11 600.417 266.305 Q599.097 264.499 596.389 264.499 Q593.079 264.499 591.158 266.698 Q589.236 268.897 589.236 272.694 L589.236 287.346 L584.954 287.346 L584.954 271.837 Q584.954 268.087 583.634 266.305 Q582.315 264.499 579.56 264.499 Q576.296 264.499 574.375 266.721 Q572.454 268.92 572.454 272.694 L572.454 287.346 L568.172 287.346 L568.172 261.42 L572.454 261.42 L572.454 265.448 Q573.912 263.064 575.949 261.93 Q577.986 260.795 580.787 260.795 Q583.611 260.795 585.579 262.231 Q587.57 263.666 588.519 266.397 Z" fill="#000000" fill-rule="nonzero" fill-opacity="1" /><path clip-path="url(#clip890)" d="M626.296 274.314 Q621.134 274.314 619.143 275.494 Q617.153 276.675 617.153 279.522 Q617.153 281.791 618.634 283.133 Q620.139 284.453 622.708 284.453 Q626.25 284.453 628.38 281.953 Q630.532 279.43 630.532 275.263 L630.532 274.314 L626.296 274.314 M634.792 272.555 L634.792 287.346 L630.532 287.346 L630.532 283.411 Q629.074 285.772 626.898 286.906 Q624.722 288.018 621.574 288.018 Q617.593 288.018 615.231 285.795 Q612.894 283.55 612.894 279.8 Q612.894 275.425 615.81 273.203 Q618.75 270.981 624.56 270.981 L630.532 270.981 L630.532 270.564 Q630.532 267.624 628.588 266.027 Q626.667 264.407 623.171 264.407 Q620.949 264.407 618.843 264.939 Q616.736 265.471 614.792 266.536 L614.792 262.601 Q617.13 261.698 619.329 261.258 Q621.528 260.795 623.611 260.795 Q629.236 260.795 632.014 263.712 Q634.792 266.629 634.792 272.555 Z" fill="#000000" fill-rule="nonzero" fill-opacity="1" /><path clip-path="url(#clip890)" d="M647.778 254.059 L647.778 261.42 L656.551 261.42 L656.551 264.731 L647.778 264.731 L647.778 278.805 Q647.778 281.976 648.634 282.879 Q649.514 283.781 652.176 283.781 L656.551 283.781 L656.551 287.346 L652.176 287.346 Q647.245 287.346 645.37 285.518 Q643.495 283.666 643.495 278.805 L643.495 264.731 L640.37 264.731 L640.37 261.42 L643.495 261.42 L643.495 254.059 L647.778 254.059 Z" fill="#000000" fill-rule="nonzero" fill-opacity="1" /><path clip-path="url(#clip890)" d="M684.328 273.319 L684.328 275.402 L664.745 275.402 Q665.023 279.8 667.384 282.115 Q669.768 284.406 674.004 284.406 Q676.458 284.406 678.75 283.805 Q681.064 283.203 683.333 281.999 L683.333 286.027 Q681.041 286.999 678.634 287.508 Q676.226 288.018 673.75 288.018 Q667.546 288.018 663.912 284.406 Q660.301 280.795 660.301 274.638 Q660.301 268.272 663.727 264.545 Q667.176 260.795 673.009 260.795 Q678.24 260.795 681.273 264.175 Q684.328 267.532 684.328 273.319 M680.069 272.069 Q680.023 268.573 678.101 266.49 Q676.203 264.407 673.055 264.407 Q669.49 264.407 667.338 266.42 Q665.208 268.434 664.884 272.092 L680.069 272.069 Z" fill="#000000" fill-rule="nonzero" fill-opacity="1" /><path clip-path="url(#clip890)" d="M708.379 265.356 L708.379 251.328 L712.638 251.328 L712.638 287.346 L708.379 287.346 L708.379 283.457 Q707.037 285.772 704.976 286.906 Q702.939 288.018 700.069 288.018 Q695.37 288.018 692.407 284.268 Q689.467 280.518 689.467 274.407 Q689.467 268.295 692.407 264.545 Q695.37 260.795 700.069 260.795 Q702.939 260.795 704.976 261.93 Q707.037 263.041 708.379 265.356 M693.865 274.407 Q693.865 279.106 695.787 281.791 Q697.731 284.453 701.111 284.453 Q704.49 284.453 706.435 281.791 Q708.379 279.106 708.379 274.407 Q708.379 269.707 706.435 267.045 Q704.49 264.36 701.111 264.36 Q697.731 264.36 695.787 267.045 Q693.865 269.707 693.865 274.407 Z" fill="#000000" fill-rule="nonzero" fill-opacity="1" /><path clip-path="url(#clip890)" d="M756.666 266.397 Q758.263 263.527 760.485 262.161 Q762.708 260.795 765.717 260.795 Q769.768 260.795 771.967 263.643 Q774.166 266.467 774.166 271.698 L774.166 287.346 L769.883 287.346 L769.883 271.837 Q769.883 268.11 768.564 266.305 Q767.245 264.499 764.536 264.499 Q761.226 264.499 759.305 266.698 Q757.383 268.897 757.383 272.694 L757.383 287.346 L753.101 287.346 L753.101 271.837 Q753.101 268.087 751.782 266.305 Q750.462 264.499 747.708 264.499 Q744.444 264.499 742.522 266.721 Q740.601 268.92 740.601 272.694 L740.601 287.346 L736.319 287.346 L736.319 261.42 L740.601 261.42 L740.601 265.448 Q742.059 263.064 744.097 261.93 Q746.134 260.795 748.934 260.795 Q751.759 260.795 753.726 262.231 Q755.717 263.666 756.666 266.397 Z" fill="#000000" fill-rule="nonzero" fill-opacity="1" /><path clip-path="url(#clip890)" d="M792.707 264.407 Q789.281 264.407 787.291 267.092 Q785.3 269.754 785.3 274.407 Q785.3 279.059 787.268 281.744 Q789.258 284.406 792.707 284.406 Q796.11 284.406 798.101 281.721 Q800.092 279.036 800.092 274.407 Q800.092 269.8 798.101 267.115 Q796.11 264.407 792.707 264.407 M792.707 260.795 Q798.263 260.795 801.434 264.407 Q804.605 268.018 804.605 274.407 Q804.605 280.772 801.434 284.406 Q798.263 288.018 792.707 288.018 Q787.129 288.018 783.957 284.406 Q780.809 280.772 780.809 274.407 Q780.809 268.018 783.957 264.407 Q787.129 260.795 792.707 260.795 Z" fill="#000000" fill-rule="nonzero" fill-opacity="1" /><path clip-path="url(#clip890)" d="M828.726 265.356 L828.726 251.328 L832.985 251.328 L832.985 287.346 L828.726 287.346 L828.726 283.457 Q827.383 285.772 825.323 286.906 Q823.286 288.018 820.416 288.018 Q815.716 288.018 812.754 284.268 Q809.814 280.518 809.814 274.407 Q809.814 268.295 812.754 264.545 Q815.716 260.795 820.416 260.795 Q823.286 260.795 825.323 261.93 Q827.383 263.041 828.726 265.356 M814.212 274.407 Q814.212 279.106 816.133 281.791 Q818.078 284.453 821.457 284.453 Q824.837 284.453 826.781 281.791 Q828.726 279.106 828.726 274.407 Q828.726 269.707 826.781 267.045 Q824.837 264.36 821.457 264.36 Q818.078 264.36 816.133 267.045 Q814.212 269.707 814.212 274.407 Z" fill="#000000" fill-rule="nonzero" fill-opacity="1" /><path clip-path="url(#clip890)" d="M863.934 273.319 L863.934 275.402 L844.351 275.402 Q844.628 279.8 846.989 282.115 Q849.374 284.406 853.61 284.406 Q856.063 284.406 858.355 283.805 Q860.67 283.203 862.938 281.999 L862.938 286.027 Q860.647 286.999 858.239 287.508 Q855.832 288.018 853.355 288.018 Q847.152 288.018 843.517 284.406 Q839.906 280.795 839.906 274.638 Q839.906 268.272 843.332 264.545 Q846.781 260.795 852.614 260.795 Q857.846 260.795 860.878 264.175 Q863.934 267.532 863.934 273.319 M859.675 272.069 Q859.628 268.573 857.707 266.49 Q855.809 264.407 852.661 264.407 Q849.096 264.407 846.943 266.42 Q844.814 268.434 844.489 272.092 L859.675 272.069 Z" fill="#000000" fill-rule="nonzero" fill-opacity="1" /><path clip-path="url(#clip890)" d="M870.925 251.328 L875.184 251.328 L875.184 287.346 L870.925 287.346 L870.925 251.328 Z" fill="#000000" fill-rule="nonzero" fill-opacity="1" /></svg>
