<?xml version="1.0" encoding="utf-8"?>
<svg xmlns="http://www.w3.org/2000/svg" xmlns:xlink="http://www.w3.org/1999/xlink" width="600" height="400" viewBox="0 0 2400 1600">
<defs>
  <clipPath id="clip660">
    <rect x="0" y="0" width="2400" height="1600"/>
  </clipPath>
</defs>
<path clip-path="url(#clip660)" d="M0 1600 L2400 1600 L2400 0 L0 0  Z" fill="#ffffff" fill-rule="evenodd" fill-opacity="1"/>
<defs>
  <clipPath id="clip661">
    <rect x="480" y="0" width="1681" height="1600"/>
  </clipPath>
</defs>
<path clip-path="url(#clip660)" d="M287.366 1423.18 L2352.76 1423.18 L2352.76 123.472 L287.366 123.472  Z" fill="#ffffff" fill-rule="evenodd" fill-opacity="1"/>
<defs>
  <clipPath id="clip662">
    <rect x="287" y="123" width="2066" height="1301"/>
  </clipPath>
</defs>
<polyline clip-path="url(#clip662)" style="stroke:#000000; stroke-linecap:round; stroke-linejoin:round; stroke-width:2; stroke-opacity:0.1; fill:none" points="345.82,1423.18 345.82,123.472 "/>
<polyline clip-path="url(#clip662)" style="stroke:#000000; stroke-linecap:round; stroke-linejoin:round; stroke-width:2; stroke-opacity:0.1; fill:none" points="670.567,1423.18 670.567,123.472 "/>
<polyline clip-path="url(#clip662)" style="stroke:#000000; stroke-linecap:round; stroke-linejoin:round; stroke-width:2; stroke-opacity:0.1; fill:none" points="995.314,1423.18 995.314,123.472 "/>
<polyline clip-path="url(#clip662)" style="stroke:#000000; stroke-linecap:round; stroke-linejoin:round; stroke-width:2; stroke-opacity:0.1; fill:none" points="1320.06,1423.18 1320.06,123.472 "/>
<polyline clip-path="url(#clip662)" style="stroke:#000000; stroke-linecap:round; stroke-linejoin:round; stroke-width:2; stroke-opacity:0.1; fill:none" points="1644.81,1423.18 1644.81,123.472 "/>
<polyline clip-path="url(#clip662)" style="stroke:#000000; stroke-linecap:round; stroke-linejoin:round; stroke-width:2; stroke-opacity:0.1; fill:none" points="1969.55,1423.18 1969.55,123.472 "/>
<polyline clip-path="url(#clip662)" style="stroke:#000000; stroke-linecap:round; stroke-linejoin:round; stroke-width:2; stroke-opacity:0.1; fill:none" points="2294.3,1423.18 2294.3,123.472 "/>
<polyline clip-path="url(#clip662)" style="stroke:#000000; stroke-linecap:round; stroke-linejoin:round; stroke-width:2; stroke-opacity:0.1; fill:none" points="287.366,1260.65 2352.76,1260.65 "/>
<polyline clip-path="url(#clip662)" style="stroke:#000000; stroke-linecap:round; stroke-linejoin:round; stroke-width:2; stroke-opacity:0.1; fill:none" points="287.366,1078.8 2352.76,1078.8 "/>
<polyline clip-path="url(#clip662)" style="stroke:#000000; stroke-linecap:round; stroke-linejoin:round; stroke-width:2; stroke-opacity:0.1; fill:none" points="287.366,896.94 2352.76,896.94 "/>
<polyline clip-path="url(#clip662)" style="stroke:#000000; stroke-linecap:round; stroke-linejoin:round; stroke-width:2; stroke-opacity:0.1; fill:none" points="287.366,715.082 2352.76,715.082 "/>
<polyline clip-path="url(#clip662)" style="stroke:#000000; stroke-linecap:round; stroke-linejoin:round; stroke-width:2; stroke-opacity:0.1; fill:none" points="287.366,533.225 2352.76,533.225 "/>
<polyline clip-path="url(#clip662)" style="stroke:#000000; stroke-linecap:round; stroke-linejoin:round; stroke-width:2; stroke-opacity:0.1; fill:none" points="287.366,351.368 2352.76,351.368 "/>
<polyline clip-path="url(#clip662)" style="stroke:#000000; stroke-linecap:round; stroke-linejoin:round; stroke-width:2; stroke-opacity:0.1; fill:none" points="287.366,169.51 2352.76,169.51 "/>
<polyline clip-path="url(#clip660)" style="stroke:#000000; stroke-linecap:round; stroke-linejoin:round; stroke-width:4; stroke-opacity:1; fill:none" points="287.366,715.082 2352.76,715.082 "/>
<polyline clip-path="url(#clip660)" style="stroke:#000000; stroke-linecap:round; stroke-linejoin:round; stroke-width:4; stroke-opacity:0; fill:none" points="345.82,715.082 345.82,715.082 "/>
<polyline clip-path="url(#clip660)" style="stroke:#000000; stroke-linecap:round; stroke-linejoin:round; stroke-width:4; stroke-opacity:0; fill:none" points="670.567,715.082 670.567,715.082 "/>
<polyline clip-path="url(#clip660)" style="stroke:#000000; stroke-linecap:round; stroke-linejoin:round; stroke-width:4; stroke-opacity:0; fill:none" points="995.314,715.082 995.314,715.082 "/>
<polyline clip-path="url(#clip660)" style="stroke:#000000; stroke-linecap:round; stroke-linejoin:round; stroke-width:4; stroke-opacity:0; fill:none" points="1320.06,715.082 1320.06,715.082 "/>
<polyline clip-path="url(#clip660)" style="stroke:#000000; stroke-linecap:round; stroke-linejoin:round; stroke-width:4; stroke-opacity:0; fill:none" points="1644.81,715.082 1644.81,715.082 "/>
<polyline clip-path="url(#clip660)" style="stroke:#000000; stroke-linecap:round; stroke-linejoin:round; stroke-width:4; stroke-opacity:0; fill:none" points="1969.55,715.082 1969.55,715.082 "/>
<polyline clip-path="url(#clip660)" style="stroke:#000000; stroke-linecap:round; stroke-linejoin:round; stroke-width:4; stroke-opacity:0; fill:none" points="2294.3,715.082 2294.3,715.082 "/>
<path clip-path="url(#clip660)" d="M345.82 1454.1 Q342.209 1454.1 340.381 1457.66 Q338.575 1461.2 338.575 1468.33 Q338.575 1475.44 340.381 1479.01 Q342.209 1482.55 345.82 1482.55 Q349.455 1482.55 351.26 1479.01 Q353.089 1475.44 353.089 1468.33 Q353.089 1461.2 351.26 1457.66 Q349.455 1454.1 345.82 1454.1 M345.82 1450.39 Q351.63 1450.39 354.686 1455 Q357.765 1459.58 357.765 1468.33 Q357.765 1477.06 354.686 1481.67 Q351.63 1486.25 345.82 1486.25 Q340.01 1486.25 336.931 1481.67 Q333.876 1477.06 333.876 1468.33 Q333.876 1459.58 336.931 1455 Q340.01 1450.39 345.82 1450.39 Z" fill="#000000" fill-rule="nonzero" fill-opacity="1" /><path clip-path="url(#clip660)" d="M660.949 1481.64 L668.588 1481.64 L668.588 1455.28 L660.278 1456.95 L660.278 1452.69 L668.542 1451.02 L673.218 1451.02 L673.218 1481.64 L680.856 1481.64 L680.856 1485.58 L660.949 1485.58 L660.949 1481.64 Z" fill="#000000" fill-rule="nonzero" fill-opacity="1" /><path clip-path="url(#clip660)" d="M989.967 1481.64 L1006.29 1481.64 L1006.29 1485.58 L984.342 1485.58 L984.342 1481.64 Q987.004 1478.89 991.587 1474.26 Q996.194 1469.61 997.374 1468.27 Q999.62 1465.74 1000.5 1464.01 Q1001.4 1462.25 1001.4 1460.56 Q1001.4 1457.8 999.458 1456.07 Q997.536 1454.33 994.434 1454.33 Q992.235 1454.33 989.782 1455.09 Q987.351 1455.86 984.573 1457.41 L984.573 1452.69 Q987.397 1451.55 989.851 1450.97 Q992.305 1450.39 994.342 1450.39 Q999.712 1450.39 1002.91 1453.08 Q1006.1 1455.77 1006.1 1460.26 Q1006.1 1462.39 1005.29 1464.31 Q1004.5 1466.2 1002.4 1468.8 Q1001.82 1469.47 998.717 1472.69 Q995.615 1475.88 989.967 1481.64 Z" fill="#000000" fill-rule="nonzero" fill-opacity="1" /><path clip-path="url(#clip660)" d="M1324.31 1466.95 Q1327.67 1467.66 1329.54 1469.93 Q1331.44 1472.2 1331.44 1475.53 Q1331.44 1480.65 1327.92 1483.45 Q1324.4 1486.25 1317.92 1486.25 Q1315.74 1486.25 1313.43 1485.81 Q1311.14 1485.39 1308.68 1484.54 L1308.68 1480.02 Q1310.63 1481.16 1312.94 1481.74 Q1315.26 1482.32 1317.78 1482.32 Q1322.18 1482.32 1324.47 1480.58 Q1326.79 1478.84 1326.79 1475.53 Q1326.79 1472.48 1324.63 1470.77 Q1322.5 1469.03 1318.68 1469.03 L1314.66 1469.03 L1314.66 1465.19 L1318.87 1465.19 Q1322.32 1465.19 1324.15 1463.82 Q1325.98 1462.43 1325.98 1459.84 Q1325.98 1457.18 1324.08 1455.77 Q1322.2 1454.33 1318.68 1454.33 Q1316.76 1454.33 1314.56 1454.75 Q1312.36 1455.16 1309.73 1456.04 L1309.73 1451.88 Q1312.39 1451.14 1314.7 1450.77 Q1317.04 1450.39 1319.1 1450.39 Q1324.42 1450.39 1327.53 1452.83 Q1330.63 1455.23 1330.63 1459.35 Q1330.63 1462.22 1328.98 1464.21 Q1327.34 1466.18 1324.31 1466.95 Z" fill="#000000" fill-rule="nonzero" fill-opacity="1" /><path clip-path="url(#clip660)" d="M1647.82 1455.09 L1636.01 1473.54 L1647.82 1473.54 L1647.82 1455.09 M1646.59 1451.02 L1652.47 1451.02 L1652.47 1473.54 L1657.4 1473.54 L1657.4 1477.43 L1652.47 1477.43 L1652.47 1485.58 L1647.82 1485.58 L1647.82 1477.43 L1632.22 1477.43 L1632.22 1472.92 L1646.59 1451.02 Z" fill="#000000" fill-rule="nonzero" fill-opacity="1" /><path clip-path="url(#clip660)" d="M1959.83 1451.02 L1978.19 1451.02 L1978.19 1454.96 L1964.11 1454.96 L1964.11 1463.43 Q1965.13 1463.08 1966.15 1462.92 Q1967.17 1462.73 1968.19 1462.73 Q1973.98 1462.73 1977.36 1465.9 Q1980.74 1469.08 1980.74 1474.49 Q1980.74 1480.07 1977.26 1483.17 Q1973.79 1486.25 1967.47 1486.25 Q1965.3 1486.25 1963.03 1485.88 Q1960.78 1485.51 1958.37 1484.77 L1958.37 1480.07 Q1960.46 1481.2 1962.68 1481.76 Q1964.9 1482.32 1967.38 1482.32 Q1971.38 1482.32 1973.72 1480.21 Q1976.06 1478.1 1976.06 1474.49 Q1976.06 1470.88 1973.72 1468.77 Q1971.38 1466.67 1967.38 1466.67 Q1965.5 1466.67 1963.63 1467.08 Q1961.78 1467.5 1959.83 1468.38 L1959.83 1451.02 Z" fill="#000000" fill-rule="nonzero" fill-opacity="1" /><path clip-path="url(#clip660)" d="M2294.71 1466.44 Q2291.56 1466.44 2289.71 1468.59 Q2287.88 1470.74 2287.88 1474.49 Q2287.88 1478.22 2289.71 1480.39 Q2291.56 1482.55 2294.71 1482.55 Q2297.85 1482.55 2299.68 1480.39 Q2301.54 1478.22 2301.54 1474.49 Q2301.54 1470.74 2299.68 1468.59 Q2297.85 1466.44 2294.71 1466.44 M2303.99 1451.78 L2303.99 1456.04 Q2302.23 1455.21 2300.42 1454.77 Q2298.64 1454.33 2296.88 1454.33 Q2292.25 1454.33 2289.8 1457.45 Q2287.37 1460.58 2287.02 1466.9 Q2288.39 1464.89 2290.45 1463.82 Q2292.51 1462.73 2294.98 1462.73 Q2300.19 1462.73 2303.2 1465.9 Q2306.23 1469.05 2306.23 1474.49 Q2306.23 1479.82 2303.09 1483.03 Q2299.94 1486.25 2294.71 1486.25 Q2288.71 1486.25 2285.54 1481.67 Q2282.37 1477.06 2282.37 1468.33 Q2282.37 1460.14 2286.26 1455.28 Q2290.15 1450.39 2296.7 1450.39 Q2298.46 1450.39 2300.24 1450.74 Q2302.04 1451.09 2303.99 1451.78 Z" fill="#000000" fill-rule="nonzero" fill-opacity="1" /><path clip-path="url(#clip660)" d="M1190.23 1520.52 L1230.43 1520.52 L1230.43 1525.93 L1213.56 1525.93 L1213.56 1568.04 L1207.1 1568.04 L1207.1 1525.93 L1190.23 1525.93 L1190.23 1520.52 Z" fill="#000000" fill-rule="nonzero" fill-opacity="1" /><path clip-path="url(#clip660)" d="M1234.38 1532.4 L1240.23 1532.4 L1240.23 1568.04 L1234.38 1568.04 L1234.38 1532.4 M1234.38 1518.52 L1240.23 1518.52 L1240.23 1525.93 L1234.38 1525.93 L1234.38 1518.52 Z" fill="#000000" fill-rule="nonzero" fill-opacity="1" /><path clip-path="url(#clip660)" d="M1280.24 1539.24 Q1282.44 1535.29 1285.5 1533.41 Q1288.55 1531.54 1292.69 1531.54 Q1298.26 1531.54 1301.28 1535.45 Q1304.31 1539.33 1304.31 1546.53 L1304.31 1568.04 L1298.42 1568.04 L1298.42 1546.72 Q1298.42 1541.59 1296.6 1539.11 Q1294.79 1536.63 1291.07 1536.63 Q1286.51 1536.63 1283.87 1539.65 Q1281.23 1542.68 1281.23 1547.9 L1281.23 1568.04 L1275.34 1568.04 L1275.34 1546.72 Q1275.34 1541.56 1273.53 1539.11 Q1271.71 1536.63 1267.93 1536.63 Q1263.44 1536.63 1260.8 1539.68 Q1258.15 1542.71 1258.15 1547.9 L1258.15 1568.04 L1252.27 1568.04 L1252.27 1532.4 L1258.15 1532.4 L1258.15 1537.93 Q1260.16 1534.66 1262.96 1533.1 Q1265.76 1531.54 1269.61 1531.54 Q1273.5 1531.54 1276.2 1533.51 Q1278.94 1535.48 1280.24 1539.24 Z" fill="#000000" fill-rule="nonzero" fill-opacity="1" /><path clip-path="url(#clip660)" d="M1346.48 1548.76 L1346.48 1551.62 L1319.55 1551.62 Q1319.93 1557.67 1323.18 1560.85 Q1326.46 1564 1332.28 1564 Q1335.66 1564 1338.81 1563.17 Q1341.99 1562.35 1345.11 1560.69 L1345.11 1566.23 Q1341.96 1567.57 1338.65 1568.27 Q1335.34 1568.97 1331.93 1568.97 Q1323.4 1568.97 1318.41 1564 Q1313.44 1559.04 1313.44 1550.57 Q1313.44 1541.82 1318.15 1536.69 Q1322.89 1531.54 1330.91 1531.54 Q1338.11 1531.54 1342.28 1536.18 Q1346.48 1540.8 1346.48 1548.76 M1340.62 1547.04 Q1340.56 1542.23 1337.92 1539.37 Q1335.31 1536.5 1330.98 1536.5 Q1326.08 1536.5 1323.12 1539.27 Q1320.19 1542.04 1319.74 1547.07 L1340.62 1547.04 Z" fill="#000000" fill-rule="nonzero" fill-opacity="1" /><path clip-path="url(#clip660)" d="M1390.88 1518.58 Q1386.61 1525.9 1384.55 1533.06 Q1382.48 1540.23 1382.48 1547.58 Q1382.48 1554.93 1384.55 1562.16 Q1386.65 1569.35 1390.88 1576.64 L1385.79 1576.64 Q1381.01 1569.16 1378.63 1561.93 Q1376.27 1554.71 1376.27 1547.58 Q1376.27 1540.48 1378.63 1533.29 Q1380.98 1526.09 1385.79 1518.58 L1390.88 1518.58 Z" fill="#000000" fill-rule="nonzero" fill-opacity="1" /><path clip-path="url(#clip660)" d="M1424.97 1533.45 L1424.97 1538.98 Q1422.49 1537.71 1419.81 1537.07 Q1417.14 1536.44 1414.27 1536.44 Q1409.91 1536.44 1407.72 1537.77 Q1405.55 1539.11 1405.55 1541.79 Q1405.55 1543.82 1407.11 1545 Q1408.67 1546.15 1413.38 1547.2 L1415.39 1547.64 Q1421.63 1548.98 1424.24 1551.43 Q1426.88 1553.85 1426.88 1558.21 Q1426.88 1563.17 1422.93 1566.07 Q1419.02 1568.97 1412.14 1568.97 Q1409.28 1568.97 1406.16 1568.39 Q1403.07 1567.85 1399.63 1566.74 L1399.63 1560.69 Q1402.88 1562.38 1406.03 1563.24 Q1409.18 1564.07 1412.27 1564.07 Q1416.41 1564.07 1418.63 1562.66 Q1420.86 1561.23 1420.86 1558.65 Q1420.86 1556.27 1419.24 1554.99 Q1417.65 1553.72 1412.2 1552.54 L1410.17 1552.07 Q1404.72 1550.92 1402.31 1548.56 Q1399.89 1546.18 1399.89 1542.04 Q1399.89 1537.01 1403.45 1534.27 Q1407.02 1531.54 1413.57 1531.54 Q1416.82 1531.54 1419.68 1532.01 Q1422.55 1532.49 1424.97 1533.45 Z" fill="#000000" fill-rule="nonzero" fill-opacity="1" /><path clip-path="url(#clip660)" d="M1435.28 1518.58 L1440.37 1518.58 Q1445.15 1526.09 1447.5 1533.29 Q1449.89 1540.48 1449.89 1547.58 Q1449.89 1554.71 1447.5 1561.93 Q1445.15 1569.16 1440.37 1576.64 L1435.28 1576.64 Q1439.51 1569.35 1441.58 1562.16 Q1443.68 1554.93 1443.68 1547.58 Q1443.68 1540.23 1441.58 1533.06 Q1439.51 1525.9 1435.28 1518.58 Z" fill="#000000" fill-rule="nonzero" fill-opacity="1" /><polyline clip-path="url(#clip660)" style="stroke:#000000; stroke-linecap:round; stroke-linejoin:round; stroke-width:4; stroke-opacity:1; fill:none" points="345.82,1423.18 345.82,123.472 "/>
<polyline clip-path="url(#clip660)" style="stroke:#000000; stroke-linecap:round; stroke-linejoin:round; stroke-width:4; stroke-opacity:0; fill:none" points="345.82,1260.65 345.82,1260.65 "/>
<polyline clip-path="url(#clip660)" style="stroke:#000000; stroke-linecap:round; stroke-linejoin:round; stroke-width:4; stroke-opacity:0; fill:none" points="345.82,1078.8 345.82,1078.8 "/>
<polyline clip-path="url(#clip660)" style="stroke:#000000; stroke-linecap:round; stroke-linejoin:round; stroke-width:4; stroke-opacity:0; fill:none" points="345.82,896.94 345.82,896.94 "/>
<polyline clip-path="url(#clip660)" style="stroke:#000000; stroke-linecap:round; stroke-linejoin:round; stroke-width:4; stroke-opacity:0; fill:none" points="345.82,715.082 345.82,715.082 "/>
<polyline clip-path="url(#clip660)" style="stroke:#000000; stroke-linecap:round; stroke-linejoin:round; stroke-width:4; stroke-opacity:0; fill:none" points="345.82,533.225 345.82,533.225 "/>
<polyline clip-path="url(#clip660)" style="stroke:#000000; stroke-linecap:round; stroke-linejoin:round; stroke-width:4; stroke-opacity:0; fill:none" points="345.82,351.368 345.82,351.368 "/>
<polyline clip-path="url(#clip660)" style="stroke:#000000; stroke-linecap:round; stroke-linejoin:round; stroke-width:4; stroke-opacity:0; fill:none" points="345.82,169.51 345.82,169.51 "/>
<path clip-path="url(#clip660)" d="M115.256 1261.11 L144.931 1261.11 L144.931 1265.04 L115.256 1265.04 L115.256 1261.11 Z" fill="#000000" fill-rule="nonzero" fill-opacity="1" /><path clip-path="url(#clip660)" d="M165.024 1246.45 Q161.413 1246.45 159.584 1250.02 Q157.778 1253.56 157.778 1260.69 Q157.778 1267.8 159.584 1271.36 Q161.413 1274.9 165.024 1274.9 Q168.658 1274.9 170.464 1271.36 Q172.292 1267.8 172.292 1260.69 Q172.292 1253.56 170.464 1250.02 Q168.658 1246.45 165.024 1246.45 M165.024 1242.75 Q170.834 1242.75 173.889 1247.36 Q176.968 1251.94 176.968 1260.69 Q176.968 1269.42 173.889 1274.02 Q170.834 1278.61 165.024 1278.61 Q159.214 1278.61 156.135 1274.02 Q153.079 1269.42 153.079 1260.69 Q153.079 1251.94 156.135 1247.36 Q159.214 1242.75 165.024 1242.75 Z" fill="#000000" fill-rule="nonzero" fill-opacity="1" /><path clip-path="url(#clip660)" d="M185.186 1272.05 L190.07 1272.05 L190.07 1277.93 L185.186 1277.93 L185.186 1272.05 Z" fill="#000000" fill-rule="nonzero" fill-opacity="1" /><path clip-path="url(#clip660)" d="M199.075 1243.37 L221.297 1243.37 L221.297 1245.37 L208.75 1277.93 L203.866 1277.93 L215.672 1247.31 L199.075 1247.31 L199.075 1243.37 Z" fill="#000000" fill-rule="nonzero" fill-opacity="1" /><path clip-path="url(#clip660)" d="M230.463 1243.37 L248.82 1243.37 L248.82 1247.31 L234.746 1247.31 L234.746 1255.78 Q235.764 1255.43 236.783 1255.27 Q237.801 1255.09 238.82 1255.09 Q244.607 1255.09 247.986 1258.26 Q251.366 1261.43 251.366 1266.85 Q251.366 1272.43 247.894 1275.53 Q244.421 1278.61 238.102 1278.61 Q235.926 1278.61 233.658 1278.24 Q231.412 1277.86 229.005 1277.12 L229.005 1272.43 Q231.088 1273.56 233.31 1274.11 Q235.533 1274.67 238.009 1274.67 Q242.014 1274.67 244.352 1272.56 Q246.69 1270.46 246.69 1266.85 Q246.69 1263.24 244.352 1261.13 Q242.014 1259.02 238.009 1259.02 Q236.135 1259.02 234.26 1259.44 Q232.408 1259.86 230.463 1260.74 L230.463 1243.37 Z" fill="#000000" fill-rule="nonzero" fill-opacity="1" /><path clip-path="url(#clip660)" d="M114.26 1079.25 L143.936 1079.25 L143.936 1083.18 L114.26 1083.18 L114.26 1079.25 Z" fill="#000000" fill-rule="nonzero" fill-opacity="1" /><path clip-path="url(#clip660)" d="M164.028 1064.6 Q160.417 1064.6 158.589 1068.16 Q156.783 1071.7 156.783 1078.83 Q156.783 1085.94 158.589 1089.5 Q160.417 1093.04 164.028 1093.04 Q167.663 1093.04 169.468 1089.5 Q171.297 1085.94 171.297 1078.83 Q171.297 1071.7 169.468 1068.16 Q167.663 1064.6 164.028 1064.6 M164.028 1060.89 Q169.839 1060.89 172.894 1065.5 Q175.973 1070.08 175.973 1078.83 Q175.973 1087.56 172.894 1092.16 Q169.839 1096.75 164.028 1096.75 Q158.218 1096.75 155.14 1092.16 Q152.084 1087.56 152.084 1078.83 Q152.084 1070.08 155.14 1065.5 Q158.218 1060.89 164.028 1060.89 Z" fill="#000000" fill-rule="nonzero" fill-opacity="1" /><path clip-path="url(#clip660)" d="M184.19 1090.2 L189.075 1090.2 L189.075 1096.08 L184.19 1096.08 L184.19 1090.2 Z" fill="#000000" fill-rule="nonzero" fill-opacity="1" /><path clip-path="url(#clip660)" d="M199.306 1061.52 L217.662 1061.52 L217.662 1065.45 L203.588 1065.45 L203.588 1073.92 Q204.607 1073.58 205.625 1073.42 Q206.644 1073.23 207.662 1073.23 Q213.449 1073.23 216.829 1076.4 Q220.209 1079.57 220.209 1084.99 Q220.209 1090.57 216.736 1093.67 Q213.264 1096.75 206.945 1096.75 Q204.769 1096.75 202.5 1096.38 Q200.255 1096.01 197.848 1095.27 L197.848 1090.57 Q199.931 1091.7 202.153 1092.26 Q204.375 1092.81 206.852 1092.81 Q210.857 1092.81 213.195 1090.71 Q215.533 1088.6 215.533 1084.99 Q215.533 1081.38 213.195 1079.27 Q210.857 1077.17 206.852 1077.17 Q204.977 1077.17 203.102 1077.58 Q201.25 1078 199.306 1078.88 L199.306 1061.52 Z" fill="#000000" fill-rule="nonzero" fill-opacity="1" /><path clip-path="url(#clip660)" d="M239.422 1064.6 Q235.81 1064.6 233.982 1068.16 Q232.176 1071.7 232.176 1078.83 Q232.176 1085.94 233.982 1089.5 Q235.81 1093.04 239.422 1093.04 Q243.056 1093.04 244.861 1089.5 Q246.69 1085.94 246.69 1078.83 Q246.69 1071.7 244.861 1068.16 Q243.056 1064.6 239.422 1064.6 M239.422 1060.89 Q245.232 1060.89 248.287 1065.5 Q251.366 1070.08 251.366 1078.83 Q251.366 1087.56 248.287 1092.16 Q245.232 1096.75 239.422 1096.75 Q233.611 1096.75 230.533 1092.16 Q227.477 1087.56 227.477 1078.83 Q227.477 1070.08 230.533 1065.5 Q233.611 1060.89 239.422 1060.89 Z" fill="#000000" fill-rule="nonzero" fill-opacity="1" /><path clip-path="url(#clip660)" d="M115.256 897.391 L144.931 897.391 L144.931 901.326 L115.256 901.326 L115.256 897.391 Z" fill="#000000" fill-rule="nonzero" fill-opacity="1" /><path clip-path="url(#clip660)" d="M165.024 882.738 Q161.413 882.738 159.584 886.303 Q157.778 889.845 157.778 896.974 Q157.778 904.081 159.584 907.646 Q161.413 911.187 165.024 911.187 Q168.658 911.187 170.464 907.646 Q172.292 904.081 172.292 896.974 Q172.292 889.845 170.464 886.303 Q168.658 882.738 165.024 882.738 M165.024 879.035 Q170.834 879.035 173.889 883.641 Q176.968 888.224 176.968 896.974 Q176.968 905.701 173.889 910.308 Q170.834 914.891 165.024 914.891 Q159.214 914.891 156.135 910.308 Q153.079 905.701 153.079 896.974 Q153.079 888.224 156.135 883.641 Q159.214 879.035 165.024 879.035 Z" fill="#000000" fill-rule="nonzero" fill-opacity="1" /><path clip-path="url(#clip660)" d="M185.186 908.34 L190.07 908.34 L190.07 914.22 L185.186 914.22 L185.186 908.34 Z" fill="#000000" fill-rule="nonzero" fill-opacity="1" /><path clip-path="url(#clip660)" d="M204.283 910.284 L220.602 910.284 L220.602 914.22 L198.658 914.22 L198.658 910.284 Q201.32 907.53 205.903 902.9 Q210.51 898.248 211.69 896.905 Q213.936 894.382 214.815 892.646 Q215.718 890.886 215.718 889.197 Q215.718 886.442 213.774 884.706 Q211.852 882.97 208.75 882.97 Q206.551 882.97 204.098 883.734 Q201.667 884.498 198.889 886.049 L198.889 881.326 Q201.713 880.192 204.167 879.613 Q206.621 879.035 208.658 879.035 Q214.028 879.035 217.223 881.72 Q220.417 884.405 220.417 888.896 Q220.417 891.025 219.607 892.947 Q218.82 894.845 216.713 897.437 Q216.135 898.109 213.033 901.326 Q209.931 904.521 204.283 910.284 Z" fill="#000000" fill-rule="nonzero" fill-opacity="1" /><path clip-path="url(#clip660)" d="M230.463 879.66 L248.82 879.66 L248.82 883.595 L234.746 883.595 L234.746 892.067 Q235.764 891.72 236.783 891.558 Q237.801 891.373 238.82 891.373 Q244.607 891.373 247.986 894.544 Q251.366 897.715 251.366 903.132 Q251.366 908.71 247.894 911.812 Q244.421 914.891 238.102 914.891 Q235.926 914.891 233.658 914.521 Q231.412 914.15 229.005 913.409 L229.005 908.71 Q231.088 909.845 233.31 910.4 Q235.533 910.956 238.009 910.956 Q242.014 910.956 244.352 908.849 Q246.69 906.743 246.69 903.132 Q246.69 899.521 244.352 897.414 Q242.014 895.308 238.009 895.308 Q236.135 895.308 234.26 895.724 Q232.408 896.141 230.463 897.021 L230.463 879.66 Z" fill="#000000" fill-rule="nonzero" fill-opacity="1" /><path clip-path="url(#clip660)" d="M164.028 700.881 Q160.417 700.881 158.589 704.446 Q156.783 707.987 156.783 715.117 Q156.783 722.223 158.589 725.788 Q160.417 729.33 164.028 729.33 Q167.663 729.33 169.468 725.788 Q171.297 722.223 171.297 715.117 Q171.297 707.987 169.468 704.446 Q167.663 700.881 164.028 700.881 M164.028 697.177 Q169.839 697.177 172.894 701.784 Q175.973 706.367 175.973 715.117 Q175.973 723.844 172.894 728.45 Q169.839 733.034 164.028 733.034 Q158.218 733.034 155.14 728.45 Q152.084 723.844 152.084 715.117 Q152.084 706.367 155.14 701.784 Q158.218 697.177 164.028 697.177 Z" fill="#000000" fill-rule="nonzero" fill-opacity="1" /><path clip-path="url(#clip660)" d="M184.19 726.483 L189.075 726.483 L189.075 732.362 L184.19 732.362 L184.19 726.483 Z" fill="#000000" fill-rule="nonzero" fill-opacity="1" /><path clip-path="url(#clip660)" d="M209.26 700.881 Q205.649 700.881 203.82 704.446 Q202.014 707.987 202.014 715.117 Q202.014 722.223 203.82 725.788 Q205.649 729.33 209.26 729.33 Q212.894 729.33 214.699 725.788 Q216.528 722.223 216.528 715.117 Q216.528 707.987 214.699 704.446 Q212.894 700.881 209.26 700.881 M209.26 697.177 Q215.07 697.177 218.125 701.784 Q221.204 706.367 221.204 715.117 Q221.204 723.844 218.125 728.45 Q215.07 733.034 209.26 733.034 Q203.449 733.034 200.371 728.45 Q197.315 723.844 197.315 715.117 Q197.315 706.367 200.371 701.784 Q203.449 697.177 209.26 697.177 Z" fill="#000000" fill-rule="nonzero" fill-opacity="1" /><path clip-path="url(#clip660)" d="M239.422 700.881 Q235.81 700.881 233.982 704.446 Q232.176 707.987 232.176 715.117 Q232.176 722.223 233.982 725.788 Q235.81 729.33 239.422 729.33 Q243.056 729.33 244.861 725.788 Q246.69 722.223 246.69 715.117 Q246.69 707.987 244.861 704.446 Q243.056 700.881 239.422 700.881 M239.422 697.177 Q245.232 697.177 248.287 701.784 Q251.366 706.367 251.366 715.117 Q251.366 723.844 248.287 728.45 Q245.232 733.034 239.422 733.034 Q233.611 733.034 230.533 728.45 Q227.477 723.844 227.477 715.117 Q227.477 706.367 230.533 701.784 Q233.611 697.177 239.422 697.177 Z" fill="#000000" fill-rule="nonzero" fill-opacity="1" /><path clip-path="url(#clip660)" d="M165.024 519.024 Q161.413 519.024 159.584 522.588 Q157.778 526.13 157.778 533.26 Q157.778 540.366 159.584 543.931 Q161.413 547.473 165.024 547.473 Q168.658 547.473 170.464 543.931 Q172.292 540.366 172.292 533.26 Q172.292 526.13 170.464 522.588 Q168.658 519.024 165.024 519.024 M165.024 515.32 Q170.834 515.32 173.889 519.926 Q176.968 524.51 176.968 533.26 Q176.968 541.987 173.889 546.593 Q170.834 551.176 165.024 551.176 Q159.214 551.176 156.135 546.593 Q153.079 541.987 153.079 533.26 Q153.079 524.51 156.135 519.926 Q159.214 515.32 165.024 515.32 Z" fill="#000000" fill-rule="nonzero" fill-opacity="1" /><path clip-path="url(#clip660)" d="M185.186 544.625 L190.07 544.625 L190.07 550.505 L185.186 550.505 L185.186 544.625 Z" fill="#000000" fill-rule="nonzero" fill-opacity="1" /><path clip-path="url(#clip660)" d="M204.283 546.57 L220.602 546.57 L220.602 550.505 L198.658 550.505 L198.658 546.57 Q201.32 543.815 205.903 539.186 Q210.51 534.533 211.69 533.19 Q213.936 530.667 214.815 528.931 Q215.718 527.172 215.718 525.482 Q215.718 522.727 213.774 520.991 Q211.852 519.255 208.75 519.255 Q206.551 519.255 204.098 520.019 Q201.667 520.783 198.889 522.334 L198.889 517.612 Q201.713 516.477 204.167 515.899 Q206.621 515.32 208.658 515.32 Q214.028 515.32 217.223 518.005 Q220.417 520.69 220.417 525.181 Q220.417 527.311 219.607 529.232 Q218.82 531.13 216.713 533.723 Q216.135 534.394 213.033 537.612 Q209.931 540.806 204.283 546.57 Z" fill="#000000" fill-rule="nonzero" fill-opacity="1" /><path clip-path="url(#clip660)" d="M230.463 515.945 L248.82 515.945 L248.82 519.88 L234.746 519.88 L234.746 528.352 Q235.764 528.005 236.783 527.843 Q237.801 527.658 238.82 527.658 Q244.607 527.658 247.986 530.829 Q251.366 534 251.366 539.417 Q251.366 544.996 247.894 548.098 Q244.421 551.176 238.102 551.176 Q235.926 551.176 233.658 550.806 Q231.412 550.436 229.005 549.695 L229.005 544.996 Q231.088 546.13 233.31 546.686 Q235.533 547.241 238.009 547.241 Q242.014 547.241 244.352 545.135 Q246.69 543.028 246.69 539.417 Q246.69 535.806 244.352 533.7 Q242.014 531.593 238.009 531.593 Q236.135 531.593 234.26 532.01 Q232.408 532.426 230.463 533.306 L230.463 515.945 Z" fill="#000000" fill-rule="nonzero" fill-opacity="1" /><path clip-path="url(#clip660)" d="M164.028 337.166 Q160.417 337.166 158.589 340.731 Q156.783 344.273 156.783 351.402 Q156.783 358.509 158.589 362.074 Q160.417 365.615 164.028 365.615 Q167.663 365.615 169.468 362.074 Q171.297 358.509 171.297 351.402 Q171.297 344.273 169.468 340.731 Q167.663 337.166 164.028 337.166 M164.028 333.463 Q169.839 333.463 172.894 338.069 Q175.973 342.652 175.973 351.402 Q175.973 360.129 172.894 364.736 Q169.839 369.319 164.028 369.319 Q158.218 369.319 155.14 364.736 Q152.084 360.129 152.084 351.402 Q152.084 342.652 155.14 338.069 Q158.218 333.463 164.028 333.463 Z" fill="#000000" fill-rule="nonzero" fill-opacity="1" /><path clip-path="url(#clip660)" d="M184.19 362.768 L189.075 362.768 L189.075 368.648 L184.19 368.648 L184.19 362.768 Z" fill="#000000" fill-rule="nonzero" fill-opacity="1" /><path clip-path="url(#clip660)" d="M199.306 334.088 L217.662 334.088 L217.662 338.023 L203.588 338.023 L203.588 346.495 Q204.607 346.148 205.625 345.986 Q206.644 345.801 207.662 345.801 Q213.449 345.801 216.829 348.972 Q220.209 352.143 220.209 357.56 Q220.209 363.138 216.736 366.24 Q213.264 369.319 206.945 369.319 Q204.769 369.319 202.5 368.949 Q200.255 368.578 197.848 367.837 L197.848 363.138 Q199.931 364.273 202.153 364.828 Q204.375 365.384 206.852 365.384 Q210.857 365.384 213.195 363.277 Q215.533 361.171 215.533 357.56 Q215.533 353.949 213.195 351.842 Q210.857 349.736 206.852 349.736 Q204.977 349.736 203.102 350.152 Q201.25 350.569 199.306 351.449 L199.306 334.088 Z" fill="#000000" fill-rule="nonzero" fill-opacity="1" /><path clip-path="url(#clip660)" d="M239.422 337.166 Q235.81 337.166 233.982 340.731 Q232.176 344.273 232.176 351.402 Q232.176 358.509 233.982 362.074 Q235.81 365.615 239.422 365.615 Q243.056 365.615 244.861 362.074 Q246.69 358.509 246.69 351.402 Q246.69 344.273 244.861 340.731 Q243.056 337.166 239.422 337.166 M239.422 333.463 Q245.232 333.463 248.287 338.069 Q251.366 342.652 251.366 351.402 Q251.366 360.129 248.287 364.736 Q245.232 369.319 239.422 369.319 Q233.611 369.319 230.533 364.736 Q227.477 360.129 227.477 351.402 Q227.477 342.652 230.533 338.069 Q233.611 333.463 239.422 333.463 Z" fill="#000000" fill-rule="nonzero" fill-opacity="1" /><path clip-path="url(#clip660)" d="M165.024 155.309 Q161.413 155.309 159.584 158.874 Q157.778 162.415 157.778 169.545 Q157.778 176.652 159.584 180.216 Q161.413 183.758 165.024 183.758 Q168.658 183.758 170.464 180.216 Q172.292 176.652 172.292 169.545 Q172.292 162.415 170.464 158.874 Q168.658 155.309 165.024 155.309 M165.024 151.605 Q170.834 151.605 173.889 156.212 Q176.968 160.795 176.968 169.545 Q176.968 178.272 173.889 182.878 Q170.834 187.462 165.024 187.462 Q159.214 187.462 156.135 182.878 Q153.079 178.272 153.079 169.545 Q153.079 160.795 156.135 156.212 Q159.214 151.605 165.024 151.605 Z" fill="#000000" fill-rule="nonzero" fill-opacity="1" /><path clip-path="url(#clip660)" d="M185.186 180.911 L190.07 180.911 L190.07 186.79 L185.186 186.79 L185.186 180.911 Z" fill="#000000" fill-rule="nonzero" fill-opacity="1" /><path clip-path="url(#clip660)" d="M199.075 152.23 L221.297 152.23 L221.297 154.221 L208.75 186.79 L203.866 186.79 L215.672 156.166 L199.075 156.166 L199.075 152.23 Z" fill="#000000" fill-rule="nonzero" fill-opacity="1" /><path clip-path="url(#clip660)" d="M230.463 152.23 L248.82 152.23 L248.82 156.166 L234.746 156.166 L234.746 164.638 Q235.764 164.29 236.783 164.128 Q237.801 163.943 238.82 163.943 Q244.607 163.943 247.986 167.115 Q251.366 170.286 251.366 175.702 Q251.366 181.281 247.894 184.383 Q244.421 187.462 238.102 187.462 Q235.926 187.462 233.658 187.091 Q231.412 186.721 229.005 185.98 L229.005 181.281 Q231.088 182.415 233.31 182.971 Q235.533 183.526 238.009 183.526 Q242.014 183.526 244.352 181.42 Q246.69 179.314 246.69 175.702 Q246.69 172.091 244.352 169.985 Q242.014 167.878 238.009 167.878 Q236.135 167.878 234.26 168.295 Q232.408 168.712 230.463 169.591 L230.463 152.23 Z" fill="#000000" fill-rule="nonzero" fill-opacity="1" /><path clip-path="url(#clip660)" d="M67.3143 771.639 Q73.68 774.122 75.6216 776.477 Q77.5631 778.832 77.5631 782.779 L77.5631 787.458 L72.6615 787.458 L72.6615 784.02 Q72.6615 781.601 71.5157 780.265 Q70.3699 778.928 66.1048 777.305 L63.4312 776.254 L28.3562 790.673 L28.3562 784.466 L56.238 773.326 L28.3562 762.186 L28.3562 755.979 L67.3143 771.639 Z" fill="#000000" fill-rule="nonzero" fill-opacity="1" /><path clip-path="url(#clip660)" d="M619.295 12.096 L627.478 12.096 L627.478 72.576 L619.295 72.576 L619.295 12.096 Z" fill="#000000" fill-rule="nonzero" fill-opacity="1" /><path clip-path="url(#clip660)" d="M678.762 35.9153 Q681.557 30.8922 685.446 28.5022 Q689.335 26.1121 694.601 26.1121 Q701.69 26.1121 705.539 31.0947 Q709.387 36.0368 709.387 45.1919 L709.387 72.576 L701.893 72.576 L701.893 45.4349 Q701.893 38.913 699.584 35.7533 Q697.275 32.5936 692.535 32.5936 Q686.743 32.5936 683.38 36.4419 Q680.018 40.2903 680.018 46.9338 L680.018 72.576 L672.524 72.576 L672.524 45.4349 Q672.524 38.8725 670.215 35.7533 Q667.906 32.5936 663.085 32.5936 Q657.373 32.5936 654.011 36.4824 Q650.649 40.3308 650.649 46.9338 L650.649 72.576 L643.155 72.576 L643.155 27.2059 L650.649 27.2059 L650.649 34.2544 Q653.201 30.082 656.766 28.0971 Q660.331 26.1121 665.232 26.1121 Q670.174 26.1121 673.618 28.6237 Q677.101 31.1352 678.762 35.9153 Z" fill="#000000" fill-rule="nonzero" fill-opacity="1" /><path clip-path="url(#clip660)" d="M731.465 65.7705 L731.465 89.8329 L723.97 89.8329 L723.97 27.2059 L731.465 27.2059 L731.465 34.0924 Q733.814 30.0415 737.379 28.0971 Q740.984 26.1121 745.967 26.1121 Q754.231 26.1121 759.375 32.6746 Q764.56 39.2371 764.56 49.9314 Q764.56 60.6258 759.375 67.1883 Q754.231 73.7508 745.967 73.7508 Q740.984 73.7508 737.379 71.8063 Q733.814 69.8214 731.465 65.7705 M756.823 49.9314 Q756.823 41.7081 753.42 37.0496 Q750.058 32.3505 744.144 32.3505 Q738.23 32.3505 734.827 37.0496 Q731.465 41.7081 731.465 49.9314 Q731.465 58.1548 734.827 62.8538 Q738.23 67.5124 744.144 67.5124 Q750.058 67.5124 753.42 62.8538 Q756.823 58.1548 756.823 49.9314 Z" fill="#000000" fill-rule="nonzero" fill-opacity="1" /><path clip-path="url(#clip660)" d="M776.146 54.671 L776.146 27.2059 L783.6 27.2059 L783.6 54.3874 Q783.6 60.8284 786.111 64.0691 Q788.623 67.2693 793.646 67.2693 Q799.682 67.2693 803.166 63.421 Q806.69 59.5726 806.69 52.9291 L806.69 27.2059 L814.143 27.2059 L814.143 72.576 L806.69 72.576 L806.69 65.6084 Q803.976 69.7404 800.37 71.7658 Q796.806 73.7508 792.066 73.7508 Q784.248 73.7508 780.197 68.8897 Q776.146 64.0286 776.146 54.671 M794.902 26.1121 L794.902 26.1121 Z" fill="#000000" fill-rule="nonzero" fill-opacity="1" /><path clip-path="url(#clip660)" d="M829.496 9.54393 L836.95 9.54393 L836.95 72.576 L829.496 72.576 L829.496 9.54393 Z" fill="#000000" fill-rule="nonzero" fill-opacity="1" /><path clip-path="url(#clip660)" d="M881.47 28.5427 L881.47 35.5912 Q878.31 33.9709 874.907 33.1607 Q871.504 32.3505 867.858 32.3505 Q862.309 32.3505 859.514 34.0519 Q856.759 35.7533 856.759 39.156 Q856.759 41.7486 858.744 43.2475 Q860.729 44.7058 866.724 46.0426 L869.276 46.6097 Q877.216 48.3111 880.538 51.4303 Q883.9 54.509 883.9 60.0587 Q883.9 66.3781 878.877 70.0644 Q873.894 73.7508 865.144 73.7508 Q861.499 73.7508 857.529 73.0216 Q853.599 72.3329 849.224 70.9151 L849.224 63.2184 Q853.356 65.3654 857.367 66.4591 Q861.377 67.5124 865.306 67.5124 Q870.573 67.5124 873.408 65.73 Q876.244 63.9071 876.244 60.6258 Q876.244 57.5877 874.178 55.9673 Q872.152 54.3469 865.225 52.8481 L862.633 52.2405 Q855.706 50.7821 852.627 47.7845 Q849.548 44.7463 849.548 39.4801 Q849.548 33.0797 854.085 29.5959 Q858.622 26.1121 866.967 26.1121 Q871.099 26.1121 874.745 26.7198 Q878.391 27.3274 881.47 28.5427 Z" fill="#000000" fill-rule="nonzero" fill-opacity="1" /><path clip-path="url(#clip660)" d="M934.577 48.0275 L934.577 51.6733 L900.306 51.6733 Q900.792 59.3701 904.924 63.421 Q909.097 67.4314 916.51 67.4314 Q920.804 67.4314 924.814 66.3781 Q928.865 65.3249 932.835 63.2184 L932.835 70.267 Q928.825 71.9684 924.612 72.8596 Q920.399 73.7508 916.064 73.7508 Q905.208 73.7508 898.848 67.4314 Q892.528 61.1119 892.528 50.3365 Q892.528 39.1965 898.524 32.6746 Q904.56 26.1121 914.768 26.1121 Q923.923 26.1121 929.23 32.0264 Q934.577 37.9003 934.577 48.0275 M927.123 45.84 Q927.042 39.7232 923.68 36.0774 Q920.358 32.4315 914.849 32.4315 Q908.611 32.4315 904.843 35.9558 Q901.116 39.4801 900.549 45.8805 L927.123 45.84 Z" fill="#000000" fill-rule="nonzero" fill-opacity="1" /><path clip-path="url(#clip660)" d="M999.472 34.1734 Q998.217 33.4443 996.718 33.1202 Q995.259 32.7556 993.477 32.7556 Q987.158 32.7556 983.755 36.8875 Q980.393 40.9789 980.393 48.6757 L980.393 72.576 L972.898 72.576 L972.898 27.2059 L980.393 27.2059 L980.393 34.2544 Q982.742 30.1225 986.509 28.1376 Q990.277 26.1121 995.664 26.1121 Q996.434 26.1121 997.366 26.2337 Q998.298 26.3147 999.432 26.5172 L999.472 34.1734 Z" fill="#000000" fill-rule="nonzero" fill-opacity="1" /><path clip-path="url(#clip660)" d="M1044.28 48.0275 L1044.28 51.6733 L1010 51.6733 Q1010.49 59.3701 1014.62 63.421 Q1018.8 67.4314 1026.21 67.4314 Q1030.5 67.4314 1034.51 66.3781 Q1038.56 65.3249 1042.53 63.2184 L1042.53 70.267 Q1038.52 71.9684 1034.31 72.8596 Q1030.1 73.7508 1025.76 73.7508 Q1014.91 73.7508 1008.55 67.4314 Q1002.23 61.1119 1002.23 50.3365 Q1002.23 39.1965 1008.22 32.6746 Q1014.26 26.1121 1024.47 26.1121 Q1033.62 26.1121 1038.93 32.0264 Q1044.28 37.9003 1044.28 48.0275 M1036.82 45.84 Q1036.74 39.7232 1033.38 36.0774 Q1030.06 32.4315 1024.55 32.4315 Q1018.31 32.4315 1014.54 35.9558 Q1010.81 39.4801 1010.25 45.8805 L1036.82 45.84 Z" fill="#000000" fill-rule="nonzero" fill-opacity="1" /><path clip-path="url(#clip660)" d="M1085.43 28.5427 L1085.43 35.5912 Q1082.27 33.9709 1078.87 33.1607 Q1075.47 32.3505 1071.82 32.3505 Q1066.27 32.3505 1063.48 34.0519 Q1060.72 35.7533 1060.72 39.156 Q1060.72 41.7486 1062.71 43.2475 Q1064.69 44.7058 1070.69 46.0426 L1073.24 46.6097 Q1081.18 48.3111 1084.5 51.4303 Q1087.86 54.509 1087.86 60.0587 Q1087.86 66.3781 1082.84 70.0644 Q1077.86 73.7508 1069.11 73.7508 Q1065.46 73.7508 1061.49 73.0216 Q1057.56 72.3329 1053.19 70.9151 L1053.19 63.2184 Q1057.32 65.3654 1061.33 66.4591 Q1065.34 67.5124 1069.27 67.5124 Q1074.54 67.5124 1077.37 65.73 Q1080.21 63.9071 1080.21 60.6258 Q1080.21 57.5877 1078.14 55.9673 Q1076.12 54.3469 1069.19 52.8481 L1066.6 52.2405 Q1059.67 50.7821 1056.59 47.7845 Q1053.51 44.7463 1053.51 39.4801 Q1053.51 33.0797 1058.05 29.5959 Q1062.59 26.1121 1070.93 26.1121 Q1075.06 26.1121 1078.71 26.7198 Q1082.35 27.3274 1085.43 28.5427 Z" fill="#000000" fill-rule="nonzero" fill-opacity="1" /><path clip-path="url(#clip660)" d="M1106.94 65.7705 L1106.94 89.8329 L1099.45 89.8329 L1099.45 27.2059 L1106.94 27.2059 L1106.94 34.0924 Q1109.29 30.0415 1112.86 28.0971 Q1116.46 26.1121 1121.45 26.1121 Q1129.71 26.1121 1134.85 32.6746 Q1140.04 39.2371 1140.04 49.9314 Q1140.04 60.6258 1134.85 67.1883 Q1129.71 73.7508 1121.45 73.7508 Q1116.46 73.7508 1112.86 71.8063 Q1109.29 69.8214 1106.94 65.7705 M1132.3 49.9314 Q1132.3 41.7081 1128.9 37.0496 Q1125.54 32.3505 1119.62 32.3505 Q1113.71 32.3505 1110.31 37.0496 Q1106.94 41.7081 1106.94 49.9314 Q1106.94 58.1548 1110.31 62.8538 Q1113.71 67.5124 1119.62 67.5124 Q1125.54 67.5124 1128.9 62.8538 Q1132.3 58.1548 1132.3 49.9314 Z" fill="#000000" fill-rule="nonzero" fill-opacity="1" /><path clip-path="url(#clip660)" d="M1169.97 32.4315 Q1163.98 32.4315 1160.5 37.1306 Q1157.01 41.7891 1157.01 49.9314 Q1157.01 58.0738 1160.46 62.7728 Q1163.94 67.4314 1169.97 67.4314 Q1175.93 67.4314 1179.41 62.7323 Q1182.9 58.0333 1182.9 49.9314 Q1182.9 41.8701 1179.41 37.1711 Q1175.93 32.4315 1169.97 32.4315 M1169.97 26.1121 Q1179.7 26.1121 1185.25 32.4315 Q1190.8 38.7509 1190.8 49.9314 Q1190.8 61.0714 1185.25 67.4314 Q1179.7 73.7508 1169.97 73.7508 Q1160.21 73.7508 1154.66 67.4314 Q1149.15 61.0714 1149.15 49.9314 Q1149.15 38.7509 1154.66 32.4315 Q1160.21 26.1121 1169.97 26.1121 Z" fill="#000000" fill-rule="nonzero" fill-opacity="1" /><path clip-path="url(#clip660)" d="M1240.87 45.1919 L1240.87 72.576 L1233.41 72.576 L1233.41 45.4349 Q1233.41 38.994 1230.9 35.7938 Q1228.39 32.5936 1223.37 32.5936 Q1217.33 32.5936 1213.85 36.4419 Q1210.36 40.2903 1210.36 46.9338 L1210.36 72.576 L1202.87 72.576 L1202.87 27.2059 L1210.36 27.2059 L1210.36 34.2544 Q1213.04 30.163 1216.64 28.1376 Q1220.29 26.1121 1225.03 26.1121 Q1232.84 26.1121 1236.86 30.9732 Q1240.87 35.7938 1240.87 45.1919 Z" fill="#000000" fill-rule="nonzero" fill-opacity="1" /><path clip-path="url(#clip660)" d="M1284.66 28.5427 L1284.66 35.5912 Q1281.5 33.9709 1278.09 33.1607 Q1274.69 32.3505 1271.04 32.3505 Q1265.5 32.3505 1262.7 34.0519 Q1259.95 35.7533 1259.95 39.156 Q1259.95 41.7486 1261.93 43.2475 Q1263.92 44.7058 1269.91 46.0426 L1272.46 46.6097 Q1280.4 48.3111 1283.72 51.4303 Q1287.09 54.509 1287.09 60.0587 Q1287.09 66.3781 1282.06 70.0644 Q1277.08 73.7508 1268.33 73.7508 Q1264.69 73.7508 1260.72 73.0216 Q1256.79 72.3329 1252.41 70.9151 L1252.41 63.2184 Q1256.54 65.3654 1260.55 66.4591 Q1264.56 67.5124 1268.49 67.5124 Q1273.76 67.5124 1276.59 65.73 Q1279.43 63.9071 1279.43 60.6258 Q1279.43 57.5877 1277.36 55.9673 Q1275.34 54.3469 1268.41 52.8481 L1265.82 52.2405 Q1258.89 50.7821 1255.81 47.7845 Q1252.73 44.7463 1252.73 39.4801 Q1252.73 33.0797 1257.27 29.5959 Q1261.81 26.1121 1270.15 26.1121 Q1274.29 26.1121 1277.93 26.7198 Q1281.58 27.3274 1284.66 28.5427 Z" fill="#000000" fill-rule="nonzero" fill-opacity="1" /><path clip-path="url(#clip660)" d="M1337.76 48.0275 L1337.76 51.6733 L1303.49 51.6733 Q1303.98 59.3701 1308.11 63.421 Q1312.28 67.4314 1319.7 67.4314 Q1323.99 67.4314 1328 66.3781 Q1332.05 65.3249 1336.02 63.2184 L1336.02 70.267 Q1332.01 71.9684 1327.8 72.8596 Q1323.59 73.7508 1319.25 73.7508 Q1308.39 73.7508 1302.03 67.4314 Q1295.71 61.1119 1295.71 50.3365 Q1295.71 39.1965 1301.71 32.6746 Q1307.75 26.1121 1317.95 26.1121 Q1327.11 26.1121 1332.42 32.0264 Q1337.76 37.9003 1337.76 48.0275 M1330.31 45.84 Q1330.23 39.7232 1326.87 36.0774 Q1323.54 32.4315 1318.04 32.4315 Q1311.8 32.4315 1308.03 35.9558 Q1304.3 39.4801 1303.74 45.8805 L1330.31 45.84 Z" fill="#000000" fill-rule="nonzero" fill-opacity="1" /><path clip-path="url(#clip660)" d="M1393.95 32.4315 Q1387.95 32.4315 1384.47 37.1306 Q1380.99 41.7891 1380.99 49.9314 Q1380.99 58.0738 1384.43 62.7728 Q1387.91 67.4314 1393.95 67.4314 Q1399.9 67.4314 1403.39 62.7323 Q1406.87 58.0333 1406.87 49.9314 Q1406.87 41.8701 1403.39 37.1711 Q1399.9 32.4315 1393.95 32.4315 M1393.95 26.1121 Q1403.67 26.1121 1409.22 32.4315 Q1414.77 38.7509 1414.77 49.9314 Q1414.77 61.0714 1409.22 67.4314 Q1403.67 73.7508 1393.95 73.7508 Q1384.19 73.7508 1378.64 67.4314 Q1373.13 61.0714 1373.13 49.9314 Q1373.13 38.7509 1378.64 32.4315 Q1384.19 26.1121 1393.95 26.1121 Z" fill="#000000" fill-rule="nonzero" fill-opacity="1" /><path clip-path="url(#clip660)" d="M1450.09 9.54393 L1450.09 15.7418 L1442.97 15.7418 Q1438.95 15.7418 1437.38 17.3622 Q1435.84 18.9825 1435.84 23.1955 L1435.84 27.2059 L1448.11 27.2059 L1448.11 32.9987 L1435.84 32.9987 L1435.84 72.576 L1428.34 72.576 L1428.34 32.9987 L1421.21 32.9987 L1421.21 27.2059 L1428.34 27.2059 L1428.34 24.0462 Q1428.34 16.471 1431.87 13.0277 Q1435.39 9.54393 1443.05 9.54393 L1450.09 9.54393 Z" fill="#000000" fill-rule="nonzero" fill-opacity="1" /><path clip-path="url(#clip660)" d="M1512.56 34.0924 L1512.56 9.54393 L1520.01 9.54393 L1520.01 72.576 L1512.56 72.576 L1512.56 65.7705 Q1510.21 69.8214 1506.61 71.8063 Q1503.04 73.7508 1498.02 73.7508 Q1489.79 73.7508 1484.61 67.1883 Q1479.46 60.6258 1479.46 49.9314 Q1479.46 39.2371 1484.61 32.6746 Q1489.79 26.1121 1498.02 26.1121 Q1503.04 26.1121 1506.61 28.0971 Q1510.21 30.0415 1512.56 34.0924 M1487.16 49.9314 Q1487.16 58.1548 1490.52 62.8538 Q1493.93 67.5124 1499.84 67.5124 Q1505.75 67.5124 1509.16 62.8538 Q1512.56 58.1548 1512.56 49.9314 Q1512.56 41.7081 1509.16 37.0496 Q1505.75 32.3505 1499.84 32.3505 Q1493.93 32.3505 1490.52 37.0496 Q1487.16 41.7081 1487.16 49.9314 Z" fill="#000000" fill-rule="nonzero" fill-opacity="1" /><path clip-path="url(#clip660)" d="M1574.17 48.0275 L1574.17 51.6733 L1539.9 51.6733 Q1540.39 59.3701 1544.52 63.421 Q1548.69 67.4314 1556.11 67.4314 Q1560.4 67.4314 1564.41 66.3781 Q1568.46 65.3249 1572.43 63.2184 L1572.43 70.267 Q1568.42 71.9684 1564.21 72.8596 Q1560 73.7508 1555.66 73.7508 Q1544.81 73.7508 1538.45 67.4314 Q1532.13 61.1119 1532.13 50.3365 Q1532.13 39.1965 1538.12 32.6746 Q1544.16 26.1121 1554.37 26.1121 Q1563.52 26.1121 1568.83 32.0264 Q1574.17 37.9003 1574.17 48.0275 M1566.72 45.84 Q1566.64 39.7232 1563.28 36.0774 Q1559.96 32.4315 1554.45 32.4315 Q1548.21 32.4315 1544.44 35.9558 Q1540.71 39.4801 1540.15 45.8805 L1566.72 45.84 Z" fill="#000000" fill-rule="nonzero" fill-opacity="1" /><path clip-path="url(#clip660)" d="M1586.41 9.54393 L1593.86 9.54393 L1593.86 72.576 L1586.41 72.576 L1586.41 9.54393 Z" fill="#000000" fill-rule="nonzero" fill-opacity="1" /><path clip-path="url(#clip660)" d="M1630.08 49.7694 Q1621.04 49.7694 1617.56 51.8354 Q1614.08 53.9013 1614.08 58.8839 Q1614.08 62.8538 1616.67 65.2034 Q1619.3 67.5124 1623.8 67.5124 Q1630 67.5124 1633.72 63.1374 Q1637.49 58.7219 1637.49 51.4303 L1637.49 49.7694 L1630.08 49.7694 M1644.94 46.6907 L1644.94 72.576 L1637.49 72.576 L1637.49 65.6895 Q1634.94 69.8214 1631.13 71.8063 Q1627.32 73.7508 1621.81 73.7508 Q1614.85 73.7508 1610.71 69.8619 Q1606.62 65.9325 1606.62 59.3701 Q1606.62 51.7138 1611.73 47.825 Q1616.87 43.9361 1627.04 43.9361 L1637.49 43.9361 L1637.49 43.2069 Q1637.49 38.0623 1634.09 35.2672 Q1630.72 32.4315 1624.61 32.4315 Q1620.72 32.4315 1617.03 33.3632 Q1613.35 34.295 1609.94 36.1584 L1609.94 29.2718 Q1614.04 27.692 1617.88 26.9223 Q1621.73 26.1121 1625.38 26.1121 Q1635.22 26.1121 1640.08 31.2163 Q1644.94 36.3204 1644.94 46.6907 Z" fill="#000000" fill-rule="nonzero" fill-opacity="1" /><path clip-path="url(#clip660)" d="M1679.17 76.7889 Q1676.01 84.8907 1673.02 87.3618 Q1670.02 89.8329 1665 89.8329 L1659.04 89.8329 L1659.04 83.5945 L1663.42 83.5945 Q1666.49 83.5945 1668.2 82.1361 Q1669.9 80.6778 1671.96 75.2496 L1673.3 71.8468 L1654.95 27.2059 L1662.85 27.2059 L1677.03 62.6918 L1691.2 27.2059 L1699.1 27.2059 L1679.17 76.7889 Z" fill="#000000" fill-rule="nonzero" fill-opacity="1" /><path clip-path="url(#clip660)" d="M1764.69 28.5427 L1764.69 35.5912 Q1761.53 33.9709 1758.13 33.1607 Q1754.72 32.3505 1751.08 32.3505 Q1745.53 32.3505 1742.73 34.0519 Q1739.98 35.7533 1739.98 39.156 Q1739.98 41.7486 1741.96 43.2475 Q1743.95 44.7058 1749.94 46.0426 L1752.49 46.6097 Q1760.43 48.3111 1763.76 51.4303 Q1767.12 54.509 1767.12 60.0587 Q1767.12 66.3781 1762.1 70.0644 Q1757.11 73.7508 1748.36 73.7508 Q1744.72 73.7508 1740.75 73.0216 Q1736.82 72.3329 1732.44 70.9151 L1732.44 63.2184 Q1736.57 65.3654 1740.59 66.4591 Q1744.6 67.5124 1748.53 67.5124 Q1753.79 67.5124 1756.63 65.73 Q1759.46 63.9071 1759.46 60.6258 Q1759.46 57.5877 1757.4 55.9673 Q1755.37 54.3469 1748.44 52.8481 L1745.85 52.2405 Q1738.92 50.7821 1735.85 47.7845 Q1732.77 44.7463 1732.77 39.4801 Q1732.77 33.0797 1737.3 29.5959 Q1741.84 26.1121 1750.19 26.1121 Q1754.32 26.1121 1757.96 26.7198 Q1761.61 27.3274 1764.69 28.5427 Z" fill="#000000" fill-rule="nonzero" fill-opacity="1" /><path clip-path="url(#clip660)" d="M1797.87 76.7889 Q1794.71 84.8907 1791.71 87.3618 Q1788.71 89.8329 1783.69 89.8329 L1777.73 89.8329 L1777.73 83.5945 L1782.11 83.5945 Q1785.19 83.5945 1786.89 82.1361 Q1788.59 80.6778 1790.65 75.2496 L1791.99 71.8468 L1773.64 27.2059 L1781.54 27.2059 L1795.72 62.6918 L1809.9 27.2059 L1817.8 27.2059 L1797.87 76.7889 Z" fill="#000000" fill-rule="nonzero" fill-opacity="1" /><path clip-path="url(#clip660)" d="M1857.01 28.5427 L1857.01 35.5912 Q1853.85 33.9709 1850.45 33.1607 Q1847.04 32.3505 1843.4 32.3505 Q1837.85 32.3505 1835.05 34.0519 Q1832.3 35.7533 1832.3 39.156 Q1832.3 41.7486 1834.28 43.2475 Q1836.27 44.7058 1842.26 46.0426 L1844.82 46.6097 Q1852.75 48.3111 1856.08 51.4303 Q1859.44 54.509 1859.44 60.0587 Q1859.44 66.3781 1854.42 70.0644 Q1849.43 73.7508 1840.68 73.7508 Q1837.04 73.7508 1833.07 73.0216 Q1829.14 72.3329 1824.76 70.9151 L1824.76 63.2184 Q1828.89 65.3654 1832.91 66.4591 Q1836.92 67.5124 1840.85 67.5124 Q1846.11 67.5124 1848.95 65.73 Q1851.78 63.9071 1851.78 60.6258 Q1851.78 57.5877 1849.72 55.9673 Q1847.69 54.3469 1840.76 52.8481 L1838.17 52.2405 Q1831.24 50.7821 1828.17 47.7845 Q1825.09 44.7463 1825.09 39.4801 Q1825.09 33.0797 1829.62 29.5959 Q1834.16 26.1121 1842.51 26.1121 Q1846.64 26.1121 1850.28 26.7198 Q1853.93 27.3274 1857.01 28.5427 Z" fill="#000000" fill-rule="nonzero" fill-opacity="1" /><path clip-path="url(#clip660)" d="M1878.68 14.324 L1878.68 27.2059 L1894.03 27.2059 L1894.03 32.9987 L1878.68 32.9987 L1878.68 57.6282 Q1878.68 63.1779 1880.18 64.7578 Q1881.72 66.3376 1886.38 66.3376 L1894.03 66.3376 L1894.03 72.576 L1886.38 72.576 Q1877.75 72.576 1874.47 69.3758 Q1871.19 66.1351 1871.19 57.6282 L1871.19 32.9987 L1865.72 32.9987 L1865.72 27.2059 L1871.19 27.2059 L1871.19 14.324 L1878.68 14.324 Z" fill="#000000" fill-rule="nonzero" fill-opacity="1" /><path clip-path="url(#clip660)" d="M1942.64 48.0275 L1942.64 51.6733 L1908.37 51.6733 Q1908.86 59.3701 1912.99 63.421 Q1917.16 67.4314 1924.58 67.4314 Q1928.87 67.4314 1932.88 66.3781 Q1936.93 65.3249 1940.9 63.2184 L1940.9 70.267 Q1936.89 71.9684 1932.68 72.8596 Q1928.47 73.7508 1924.13 73.7508 Q1913.28 73.7508 1906.92 67.4314 Q1900.6 61.1119 1900.6 50.3365 Q1900.6 39.1965 1906.59 32.6746 Q1912.63 26.1121 1922.84 26.1121 Q1931.99 26.1121 1937.3 32.0264 Q1942.64 37.9003 1942.64 48.0275 M1935.19 45.84 Q1935.11 39.7232 1931.75 36.0774 Q1928.43 32.4315 1922.92 32.4315 Q1916.68 32.4315 1912.91 35.9558 Q1909.18 39.4801 1908.62 45.8805 L1935.19 45.84 Z" fill="#000000" fill-rule="nonzero" fill-opacity="1" /><path clip-path="url(#clip660)" d="M1990.2 35.9153 Q1993 30.8922 1996.89 28.5022 Q2000.77 26.1121 2006.04 26.1121 Q2013.13 26.1121 2016.98 31.0947 Q2020.83 36.0368 2020.83 45.1919 L2020.83 72.576 L2013.33 72.576 L2013.33 45.4349 Q2013.33 38.913 2011.02 35.7533 Q2008.71 32.5936 2003.98 32.5936 Q1998.18 32.5936 1994.82 36.4419 Q1991.46 40.2903 1991.46 46.9338 L1991.46 72.576 L1983.96 72.576 L1983.96 45.4349 Q1983.96 38.8725 1981.65 35.7533 Q1979.35 32.5936 1974.52 32.5936 Q1968.81 32.5936 1965.45 36.4824 Q1962.09 40.3308 1962.09 46.9338 L1962.09 72.576 L1954.59 72.576 L1954.59 27.2059 L1962.09 27.2059 L1962.09 34.2544 Q1964.64 30.082 1968.21 28.0971 Q1971.77 26.1121 1976.67 26.1121 Q1981.61 26.1121 1985.06 28.6237 Q1988.54 31.1352 1990.2 35.9153 Z" fill="#000000" fill-rule="nonzero" fill-opacity="1" /><polyline clip-path="url(#clip662)" style="stroke:#009af9; stroke-linecap:round; stroke-linejoin:round; stroke-width:4; stroke-opacity:1; fill:none" points="345.82,715.082 345.82,797.185 "/>
<polyline clip-path="url(#clip662)" style="stroke:#009af9; stroke-linecap:round; stroke-linejoin:round; stroke-width:4; stroke-opacity:1; fill:none" points="378.295,715.082 378.295,743.13 "/>
<polyline clip-path="url(#clip662)" style="stroke:#009af9; stroke-linecap:round; stroke-linejoin:round; stroke-width:4; stroke-opacity:1; fill:none" points="410.77,715.082 410.77,709.325 "/>
<polyline clip-path="url(#clip662)" style="stroke:#009af9; stroke-linecap:round; stroke-linejoin:round; stroke-width:4; stroke-opacity:1; fill:none" points="443.244,715.082 443.244,699.933 "/>
<polyline clip-path="url(#clip662)" style="stroke:#009af9; stroke-linecap:round; stroke-linejoin:round; stroke-width:4; stroke-opacity:1; fill:none" points="475.719,715.082 475.719,711.623 "/>
<polyline clip-path="url(#clip662)" style="stroke:#009af9; stroke-linecap:round; stroke-linejoin:round; stroke-width:4; stroke-opacity:1; fill:none" points="508.194,715.082 508.194,735.344 "/>
<polyline clip-path="url(#clip662)" style="stroke:#009af9; stroke-linecap:round; stroke-linejoin:round; stroke-width:4; stroke-opacity:1; fill:none" points="540.668,715.082 540.668,759.742 "/>
<polyline clip-path="url(#clip662)" style="stroke:#009af9; stroke-linecap:round; stroke-linejoin:round; stroke-width:4; stroke-opacity:1; fill:none" points="573.143,715.082 573.143,775.021 "/>
<polyline clip-path="url(#clip662)" style="stroke:#009af9; stroke-linecap:round; stroke-linejoin:round; stroke-width:4; stroke-opacity:1; fill:none" points="605.618,715.082 605.618,775.979 "/>
<polyline clip-path="url(#clip662)" style="stroke:#009af9; stroke-linecap:round; stroke-linejoin:round; stroke-width:4; stroke-opacity:1; fill:none" points="638.093,715.082 638.093,763.29 "/>
<polyline clip-path="url(#clip662)" style="stroke:#009af9; stroke-linecap:round; stroke-linejoin:round; stroke-width:4; stroke-opacity:1; fill:none" points="670.567,715.082 670.567,742.736 "/>
<polyline clip-path="url(#clip662)" style="stroke:#009af9; stroke-linecap:round; stroke-linejoin:round; stroke-width:4; stroke-opacity:1; fill:none" points="703.042,715.082 703.042,722.789 "/>
<polyline clip-path="url(#clip662)" style="stroke:#009af9; stroke-linecap:round; stroke-linejoin:round; stroke-width:4; stroke-opacity:1; fill:none" points="735.517,715.082 735.517,711.417 "/>
<polyline clip-path="url(#clip662)" style="stroke:#009af9; stroke-linecap:round; stroke-linejoin:round; stroke-width:4; stroke-opacity:1; fill:none" points="767.991,715.082 767.991,713.241 "/>
<polyline clip-path="url(#clip662)" style="stroke:#009af9; stroke-linecap:round; stroke-linejoin:round; stroke-width:4; stroke-opacity:1; fill:none" points="800.466,715.082 800.466,727.925 "/>
<polyline clip-path="url(#clip662)" style="stroke:#009af9; stroke-linecap:round; stroke-linejoin:round; stroke-width:4; stroke-opacity:1; fill:none" points="832.941,715.082 832.941,750.261 "/>
<polyline clip-path="url(#clip662)" style="stroke:#009af9; stroke-linecap:round; stroke-linejoin:round; stroke-width:4; stroke-opacity:1; fill:none" points="865.415,715.082 865.415,771.849 "/>
<polyline clip-path="url(#clip662)" style="stroke:#009af9; stroke-linecap:round; stroke-linejoin:round; stroke-width:4; stroke-opacity:1; fill:none" points="897.89,715.082 897.89,783.719 "/>
<polyline clip-path="url(#clip662)" style="stroke:#009af9; stroke-linecap:round; stroke-linejoin:round; stroke-width:4; stroke-opacity:1; fill:none" points="930.365,715.082 930.365,779.036 "/>
<polyline clip-path="url(#clip662)" style="stroke:#009af9; stroke-linecap:round; stroke-linejoin:round; stroke-width:4; stroke-opacity:1; fill:none" points="962.839,715.082 962.839,755.007 "/>
<polyline clip-path="url(#clip662)" style="stroke:#009af9; stroke-linecap:round; stroke-linejoin:round; stroke-width:4; stroke-opacity:1; fill:none" points="995.314,715.082 995.314,713.449 "/>
<polyline clip-path="url(#clip662)" style="stroke:#009af9; stroke-linecap:round; stroke-linejoin:round; stroke-width:4; stroke-opacity:1; fill:none" points="1027.79,715.082 1027.79,659.919 "/>
<polyline clip-path="url(#clip662)" style="stroke:#009af9; stroke-linecap:round; stroke-linejoin:round; stroke-width:4; stroke-opacity:1; fill:none" points="1060.26,715.082 1060.26,601.77 "/>
<polyline clip-path="url(#clip662)" style="stroke:#009af9; stroke-linecap:round; stroke-linejoin:round; stroke-width:4; stroke-opacity:1; fill:none" points="1092.74,715.082 1092.74,545.838 "/>
<polyline clip-path="url(#clip662)" style="stroke:#009af9; stroke-linecap:round; stroke-linejoin:round; stroke-width:4; stroke-opacity:1; fill:none" points="1125.21,715.082 1125.21,496.502 "/>
<polyline clip-path="url(#clip662)" style="stroke:#009af9; stroke-linecap:round; stroke-linejoin:round; stroke-width:4; stroke-opacity:1; fill:none" points="1157.69,715.082 1157.69,454.747 "/>
<polyline clip-path="url(#clip662)" style="stroke:#009af9; stroke-linecap:round; stroke-linejoin:round; stroke-width:4; stroke-opacity:1; fill:none" points="1190.16,715.082 1190.16,418.448 "/>
<polyline clip-path="url(#clip662)" style="stroke:#009af9; stroke-linecap:round; stroke-linejoin:round; stroke-width:4; stroke-opacity:1; fill:none" points="1222.64,715.082 1222.64,383.724 "/>
<polyline clip-path="url(#clip662)" style="stroke:#009af9; stroke-linecap:round; stroke-linejoin:round; stroke-width:4; stroke-opacity:1; fill:none" points="1255.11,715.082 1255.11,346.847 "/>
<polyline clip-path="url(#clip662)" style="stroke:#009af9; stroke-linecap:round; stroke-linejoin:round; stroke-width:4; stroke-opacity:1; fill:none" points="1287.59,715.082 1287.59,306.037 "/>
<polyline clip-path="url(#clip662)" style="stroke:#009af9; stroke-linecap:round; stroke-linejoin:round; stroke-width:4; stroke-opacity:1; fill:none" points="1320.06,715.082 1320.06,262.509 "/>
<polyline clip-path="url(#clip662)" style="stroke:#009af9; stroke-linecap:round; stroke-linejoin:round; stroke-width:4; stroke-opacity:1; fill:none" points="1352.54,715.082 1352.54,220.432 "/>
<polyline clip-path="url(#clip662)" style="stroke:#009af9; stroke-linecap:round; stroke-linejoin:round; stroke-width:4; stroke-opacity:1; fill:none" points="1385.01,715.082 1385.01,185.777 "/>
<polyline clip-path="url(#clip662)" style="stroke:#009af9; stroke-linecap:round; stroke-linejoin:round; stroke-width:4; stroke-opacity:1; fill:none" points="1417.48,715.082 1417.48,164.446 "/>
<polyline clip-path="url(#clip662)" style="stroke:#009af9; stroke-linecap:round; stroke-linejoin:round; stroke-width:4; stroke-opacity:1; fill:none" points="1449.96,715.082 1449.96,160.256 "/>
<polyline clip-path="url(#clip662)" style="stroke:#009af9; stroke-linecap:round; stroke-linejoin:round; stroke-width:4; stroke-opacity:1; fill:none" points="1482.43,715.082 1482.43,173.475 "/>
<polyline clip-path="url(#clip662)" style="stroke:#009af9; stroke-linecap:round; stroke-linejoin:round; stroke-width:4; stroke-opacity:1; fill:none" points="1514.91,715.082 1514.91,200.385 "/>
<polyline clip-path="url(#clip662)" style="stroke:#009af9; stroke-linecap:round; stroke-linejoin:round; stroke-width:4; stroke-opacity:1; fill:none" points="1547.38,715.082 1547.38,234.096 "/>
<polyline clip-path="url(#clip662)" style="stroke:#009af9; stroke-linecap:round; stroke-linejoin:round; stroke-width:4; stroke-opacity:1; fill:none" points="1579.86,715.082 1579.86,266.402 "/>
<polyline clip-path="url(#clip662)" style="stroke:#009af9; stroke-linecap:round; stroke-linejoin:round; stroke-width:4; stroke-opacity:1; fill:none" points="1612.33,715.082 1612.33,290.184 "/>
<polyline clip-path="url(#clip662)" style="stroke:#009af9; stroke-linecap:round; stroke-linejoin:round; stroke-width:4; stroke-opacity:1; fill:none" points="1644.81,715.082 1644.81,301.645 "/>
<polyline clip-path="url(#clip662)" style="stroke:#009af9; stroke-linecap:round; stroke-linejoin:round; stroke-width:4; stroke-opacity:1; fill:none" points="1677.28,715.082 1677.28,301.692 "/>
<polyline clip-path="url(#clip662)" style="stroke:#009af9; stroke-linecap:round; stroke-linejoin:round; stroke-width:4; stroke-opacity:1; fill:none" points="1709.76,715.082 1709.76,295.979 "/>
<polyline clip-path="url(#clip662)" style="stroke:#009af9; stroke-linecap:round; stroke-linejoin:round; stroke-width:4; stroke-opacity:1; fill:none" points="1742.23,715.082 1742.23,293.519 "/>
<polyline clip-path="url(#clip662)" style="stroke:#009af9; stroke-linecap:round; stroke-linejoin:round; stroke-width:4; stroke-opacity:1; fill:none" points="1774.71,715.082 1774.71,304.128 "/>
<polyline clip-path="url(#clip662)" style="stroke:#009af9; stroke-linecap:round; stroke-linejoin:round; stroke-width:4; stroke-opacity:1; fill:none" points="1807.18,715.082 1807.18,335.382 "/>
<polyline clip-path="url(#clip662)" style="stroke:#009af9; stroke-linecap:round; stroke-linejoin:round; stroke-width:4; stroke-opacity:1; fill:none" points="1839.66,715.082 1839.66,389.882 "/>
<polyline clip-path="url(#clip662)" style="stroke:#009af9; stroke-linecap:round; stroke-linejoin:round; stroke-width:4; stroke-opacity:1; fill:none" points="1872.13,715.082 1872.13,463.673 "/>
<polyline clip-path="url(#clip662)" style="stroke:#009af9; stroke-linecap:round; stroke-linejoin:round; stroke-width:4; stroke-opacity:1; fill:none" points="1904.61,715.082 1904.61,546.375 "/>
<polyline clip-path="url(#clip662)" style="stroke:#009af9; stroke-linecap:round; stroke-linejoin:round; stroke-width:4; stroke-opacity:1; fill:none" points="1937.08,715.082 1937.08,623.196 "/>
<polyline clip-path="url(#clip662)" style="stroke:#009af9; stroke-linecap:round; stroke-linejoin:round; stroke-width:4; stroke-opacity:1; fill:none" points="1969.55,715.082 1969.55,678.551 "/>
<polyline clip-path="url(#clip662)" style="stroke:#009af9; stroke-linecap:round; stroke-linejoin:round; stroke-width:4; stroke-opacity:1; fill:none" points="2002.03,715.082 2002.03,700.562 "/>
<polyline clip-path="url(#clip662)" style="stroke:#009af9; stroke-linecap:round; stroke-linejoin:round; stroke-width:4; stroke-opacity:1; fill:none" points="2034.5,715.082 2034.5,685.438 "/>
<polyline clip-path="url(#clip662)" style="stroke:#009af9; stroke-linecap:round; stroke-linejoin:round; stroke-width:4; stroke-opacity:1; fill:none" points="2066.98,715.082 2066.98,640.701 "/>
<polyline clip-path="url(#clip662)" style="stroke:#009af9; stroke-linecap:round; stroke-linejoin:round; stroke-width:4; stroke-opacity:1; fill:none" points="2099.45,715.082 2099.45,586.371 "/>
<polyline clip-path="url(#clip662)" style="stroke:#009af9; stroke-linecap:round; stroke-linejoin:round; stroke-width:4; stroke-opacity:1; fill:none" points="2131.93,715.082 2131.93,553.608 "/>
<polyline clip-path="url(#clip662)" style="stroke:#009af9; stroke-linecap:round; stroke-linejoin:round; stroke-width:4; stroke-opacity:1; fill:none" points="2164.4,715.082 2164.4,580.836 "/>
<polyline clip-path="url(#clip662)" style="stroke:#009af9; stroke-linecap:round; stroke-linejoin:round; stroke-width:4; stroke-opacity:1; fill:none" points="2196.88,715.082 2196.88,707.871 "/>
<polyline clip-path="url(#clip662)" style="stroke:#009af9; stroke-linecap:round; stroke-linejoin:round; stroke-width:4; stroke-opacity:1; fill:none" points="2229.35,715.082 2229.35,969.024 "/>
<polyline clip-path="url(#clip662)" style="stroke:#009af9; stroke-linecap:round; stroke-linejoin:round; stroke-width:4; stroke-opacity:1; fill:none" points="2261.83,715.082 2261.83,1386.4 "/>
<polyline clip-path="url(#clip662)" style="stroke:#000000; stroke-linecap:round; stroke-linejoin:round; stroke-width:4; stroke-opacity:1; fill:none" stroke-dasharray="16, 10" points="345.82,570.845 378.295,623.151 410.77,636.417 443.244,634.473 475.719,638.45 508.194,646.998 540.668,651.379 573.143,649.157 605.618,645.857 638.093,645.317 670.567,646.709 703.042,647.763 735.517,648.132 767.991,649.229 800.466,651.711 832.941,654.381 865.415,655.532 897.89,654.967 930.365,653.992 962.839,653.69 995.314,654.037 1027.79,654.504 1060.26,654.965 1092.74,655.772 1125.21,657.089 1157.69,658.511 1190.16,659.447 1222.64,659.751 1255.11,659.755 1287.59,659.755 1320.06,659.711 1352.54,659.529 1385.01,659.409 1417.48,659.706 1449.96,660.441 1482.43,661.142 1514.91,661.325 1547.38,661.106 1579.86,661.104 1612.33,661.656 1644.81,662.284 1677.28,662.114 1709.76,660.975 1742.23,659.814 1774.71,659.73 1807.18,660.725 1839.66,661.445 1872.13,660.475 1904.61,658.207 1937.08,656.705 1969.55,657.527 2002.03,659.753 2034.5,659.878 2066.98,655.389 2099.45,648.975 2131.93,646.191 2164.4,649.659 2196.88,651.189 2229.35,628.166 2261.83,574.006 "/>
<polyline clip-path="url(#clip662)" style="stroke:#000000; stroke-linecap:round; stroke-linejoin:round; stroke-width:4; stroke-opacity:1; fill:none" stroke-dasharray="16, 10" points="345.82,859.32 378.295,807.014 410.77,793.747 443.244,795.692 475.719,791.715 508.194,783.167 540.668,778.786 573.143,781.007 605.618,784.308 638.093,784.848 670.567,783.456 703.042,782.402 735.517,782.033 767.991,780.936 800.466,778.454 832.941,775.784 865.415,774.632 897.89,775.198 930.365,776.173 962.839,776.475 995.314,776.127 1027.79,775.661 1060.26,775.199 1092.74,774.392 1125.21,773.076 1157.69,771.654 1190.16,770.717 1222.64,770.414 1255.11,770.41 1287.59,770.41 1320.06,770.454 1352.54,770.636 1385.01,770.755 1417.48,770.458 1449.96,769.724 1482.43,769.023 1514.91,768.84 1547.38,769.059 1579.86,769.061 1612.33,768.508 1644.81,767.88 1677.28,768.051 1709.76,769.189 1742.23,770.35 1774.71,770.435 1807.18,769.44 1839.66,768.72 1872.13,769.689 1904.61,771.958 1937.08,773.459 1969.55,772.638 2002.03,770.412 2034.5,770.287 2066.98,774.776 2099.45,781.189 2131.93,783.973 2164.4,780.506 2196.88,778.975 2229.35,801.998 2261.83,856.159 "/>
<polyline clip-path="url(#clip662)" style="stroke:#c271d2; stroke-linecap:round; stroke-linejoin:round; stroke-width:4; stroke-opacity:1; fill:none" points="345.82,715.082 378.295,715.082 410.77,715.082 443.244,715.082 475.719,715.082 508.194,715.082 540.668,715.082 573.143,715.082 605.618,715.082 638.093,715.082 670.567,715.082 703.042,715.082 735.517,715.082 767.991,715.082 800.466,715.082 832.941,715.082 865.415,715.082 897.89,715.082 930.365,715.082 962.839,715.082 995.314,715.082 1027.79,715.082 1027.79,679.339 1060.26,679.339 1060.26,610.536 1092.74,610.536 1092.74,546.107 1125.21,546.107 1125.21,486.466 1157.69,486.466 1157.69,431.963 1190.16,431.963 1190.16,382.877 1222.64,382.877 1222.64,339.423 1255.11,339.423 1255.11,301.749 1287.59,301.749 1287.59,269.941 1320.06,269.941 1320.06,244.023 1352.54,244.023 1352.54,223.959 1385.01,223.959 1385.01,209.661 1417.48,209.661 1417.48,200.986 1449.96,200.986 1449.96,197.744 1482.43,197.744 1482.43,199.702 1514.91,199.702 1514.91,206.588 1547.38,206.588 1547.38,218.094 1579.86,218.094 1579.86,233.882 1612.33,233.882 1612.33,253.59 1644.81,253.59 1644.81,276.834 1677.28,276.834 1677.28,303.216 1709.76,303.216 1709.76,332.325 1742.23,332.325 1742.23,363.745 1774.71,363.745 1774.71,397.057 1807.18,397.057 1807.18,431.844 1839.66,431.844 1839.66,467.694 1872.13,467.694 1872.13,504.207 1904.61,504.207 1904.61,540.995 1937.08,540.995 1937.08,577.685 1969.55,577.685 1969.55,613.925 2002.03,613.925 2002.03,649.383 2034.5,649.383 2034.5,683.752 2066.98,683.752 2066.98,716.75 2099.45,716.75 2099.45,748.123 2131.93,748.123 2131.93,777.643 2164.4,777.643 2164.4,805.115 2196.88,805.115 2196.88,830.368 2229.35,830.368 2229.35,853.267 2261.83,853.267 2261.83,873.702 2294.3,873.702 2294.3,891.595 "/>
<path clip-path="url(#clip660)" d="M356.212 322.316 L793.282 322.316 L793.282 166.796 L356.212 166.796  Z" fill="#ffffff" fill-rule="evenodd" fill-opacity="1"/>
<polyline clip-path="url(#clip660)" style="stroke:#000000; stroke-linecap:round; stroke-linejoin:round; stroke-width:4; stroke-opacity:1; fill:none" points="356.212,322.316 793.282,322.316 793.282,166.796 356.212,166.796 356.212,322.316 "/>
<polyline clip-path="url(#clip660)" style="stroke:#009af9; stroke-linecap:round; stroke-linejoin:round; stroke-width:4; stroke-opacity:1; fill:none" points="379.161,218.636 516.854,218.636 "/>
<path clip-path="url(#clip660)" d="M539.802 201.356 L561.654 201.356 L561.654 205.291 L544.478 205.291 L544.478 215.522 L560.937 215.522 L560.937 219.457 L544.478 219.457 L544.478 231.981 L562.071 231.981 L562.071 235.916 L539.802 235.916 L539.802 201.356 Z" fill="#000000" fill-rule="nonzero" fill-opacity="1" /><path clip-path="url(#clip660)" d="M586.099 210.754 L586.099 214.782 Q584.293 213.856 582.349 213.393 Q580.404 212.93 578.321 212.93 Q575.149 212.93 573.552 213.902 Q571.978 214.874 571.978 216.819 Q571.978 218.3 573.112 219.157 Q574.247 219.99 577.673 220.754 L579.131 221.078 Q583.668 222.05 585.566 223.832 Q587.487 225.592 587.487 228.763 Q587.487 232.374 584.617 234.481 Q581.77 236.587 576.77 236.587 Q574.687 236.587 572.418 236.17 Q570.173 235.777 567.673 234.967 L567.673 230.569 Q570.034 231.795 572.325 232.42 Q574.617 233.022 576.862 233.022 Q579.872 233.022 581.492 232.004 Q583.112 230.962 583.112 229.087 Q583.112 227.351 581.932 226.425 Q580.774 225.499 576.816 224.643 L575.335 224.295 Q571.376 223.462 569.617 221.749 Q567.858 220.013 567.858 217.004 Q567.858 213.346 570.45 211.356 Q573.043 209.365 577.812 209.365 Q580.173 209.365 582.256 209.712 Q584.339 210.059 586.099 210.754 Z" fill="#000000" fill-rule="nonzero" fill-opacity="1" /><path clip-path="url(#clip660)" d="M598.483 202.629 L598.483 209.99 L607.256 209.99 L607.256 213.3 L598.483 213.3 L598.483 227.374 Q598.483 230.545 599.339 231.448 Q600.219 232.351 602.881 232.351 L607.256 232.351 L607.256 235.916 L602.881 235.916 Q597.95 235.916 596.075 234.087 Q594.2 232.235 594.2 227.374 L594.2 213.3 L591.075 213.3 L591.075 209.99 L594.2 209.99 L594.2 202.629 L598.483 202.629 Z" fill="#000000" fill-rule="nonzero" fill-opacity="1" /><path clip-path="url(#clip660)" d="M612.858 209.99 L617.117 209.99 L617.117 235.916 L612.858 235.916 L612.858 209.99 M612.858 199.897 L617.117 199.897 L617.117 205.291 L612.858 205.291 L612.858 199.897 Z" fill="#000000" fill-rule="nonzero" fill-opacity="1" /><path clip-path="url(#clip660)" d="M646.214 214.967 Q647.811 212.096 650.033 210.731 Q652.256 209.365 655.265 209.365 Q659.316 209.365 661.515 212.212 Q663.714 215.036 663.714 220.268 L663.714 235.916 L659.431 235.916 L659.431 220.407 Q659.431 216.68 658.112 214.874 Q656.793 213.069 654.084 213.069 Q650.774 213.069 648.853 215.268 Q646.932 217.467 646.932 221.263 L646.932 235.916 L642.649 235.916 L642.649 220.407 Q642.649 216.657 641.33 214.874 Q640.01 213.069 637.256 213.069 Q633.992 213.069 632.07 215.291 Q630.149 217.49 630.149 221.263 L630.149 235.916 L625.867 235.916 L625.867 209.99 L630.149 209.99 L630.149 214.018 Q631.608 211.633 633.645 210.499 Q635.682 209.365 638.482 209.365 Q641.307 209.365 643.274 210.8 Q645.265 212.235 646.214 214.967 Z" fill="#000000" fill-rule="nonzero" fill-opacity="1" /><path clip-path="url(#clip660)" d="M683.992 222.883 Q678.829 222.883 676.839 224.064 Q674.848 225.244 674.848 228.092 Q674.848 230.36 676.33 231.703 Q677.834 233.022 680.404 233.022 Q683.945 233.022 686.075 230.522 Q688.228 227.999 688.228 223.832 L688.228 222.883 L683.992 222.883 M692.487 221.124 L692.487 235.916 L688.228 235.916 L688.228 231.981 Q686.769 234.342 684.593 235.476 Q682.417 236.587 679.269 236.587 Q675.288 236.587 672.927 234.365 Q670.589 232.119 670.589 228.369 Q670.589 223.994 673.505 221.772 Q676.445 219.55 682.255 219.55 L688.228 219.55 L688.228 219.133 Q688.228 216.194 686.283 214.596 Q684.362 212.976 680.867 212.976 Q678.644 212.976 676.538 213.508 Q674.431 214.041 672.487 215.106 L672.487 211.17 Q674.825 210.268 677.024 209.828 Q679.223 209.365 681.306 209.365 Q686.931 209.365 689.709 212.282 Q692.487 215.198 692.487 221.124 Z" fill="#000000" fill-rule="nonzero" fill-opacity="1" /><path clip-path="url(#clip660)" d="M705.473 202.629 L705.473 209.99 L714.246 209.99 L714.246 213.3 L705.473 213.3 L705.473 227.374 Q705.473 230.545 706.329 231.448 Q707.209 232.351 709.871 232.351 L714.246 232.351 L714.246 235.916 L709.871 235.916 Q704.94 235.916 703.065 234.087 Q701.19 232.235 701.19 227.374 L701.19 213.3 L698.066 213.3 L698.066 209.99 L701.19 209.99 L701.19 202.629 L705.473 202.629 Z" fill="#000000" fill-rule="nonzero" fill-opacity="1" /><path clip-path="url(#clip660)" d="M742.024 221.888 L742.024 223.971 L722.44 223.971 Q722.718 228.369 725.079 230.684 Q727.463 232.976 731.7 232.976 Q734.153 232.976 736.445 232.374 Q738.76 231.772 741.028 230.569 L741.028 234.596 Q738.737 235.568 736.329 236.078 Q733.922 236.587 731.445 236.587 Q725.241 236.587 721.607 232.976 Q717.996 229.365 717.996 223.207 Q717.996 216.842 721.422 213.115 Q724.871 209.365 730.704 209.365 Q735.936 209.365 738.968 212.745 Q742.024 216.101 742.024 221.888 M737.764 220.638 Q737.718 217.143 735.797 215.059 Q733.899 212.976 730.751 212.976 Q727.186 212.976 725.033 214.99 Q722.903 217.004 722.579 220.661 L737.764 220.638 Z" fill="#000000" fill-rule="nonzero" fill-opacity="1" /><path clip-path="url(#clip660)" d="M766.074 213.925 L766.074 199.897 L770.334 199.897 L770.334 235.916 L766.074 235.916 L766.074 232.027 Q764.732 234.342 762.672 235.476 Q760.635 236.587 757.764 236.587 Q753.065 236.587 750.102 232.837 Q747.162 229.087 747.162 222.976 Q747.162 216.865 750.102 213.115 Q753.065 209.365 757.764 209.365 Q760.635 209.365 762.672 210.499 Q764.732 211.61 766.074 213.925 M751.561 222.976 Q751.561 227.675 753.482 230.36 Q755.426 233.022 758.806 233.022 Q762.186 233.022 764.13 230.36 Q766.074 227.675 766.074 222.976 Q766.074 218.277 764.13 215.615 Q762.186 212.93 758.806 212.93 Q755.426 212.93 753.482 215.615 Q751.561 218.277 751.561 222.976 Z" fill="#000000" fill-rule="nonzero" fill-opacity="1" /><polyline clip-path="url(#clip660)" style="stroke:#c271d2; stroke-linecap:round; stroke-linejoin:round; stroke-width:4; stroke-opacity:1; fill:none" points="379.161,270.476 516.854,270.476 "/>
<path clip-path="url(#clip660)" d="M539.802 253.196 L569.038 253.196 L569.038 257.131 L556.77 257.131 L556.77 287.756 L552.071 287.756 L552.071 257.131 L539.802 257.131 L539.802 253.196 Z" fill="#000000" fill-rule="nonzero" fill-opacity="1" /><path clip-path="url(#clip660)" d="M581.423 265.811 Q580.705 265.395 579.849 265.21 Q579.015 265.001 577.997 265.001 Q574.386 265.001 572.441 267.362 Q570.52 269.7 570.52 274.098 L570.52 287.756 L566.238 287.756 L566.238 261.83 L570.52 261.83 L570.52 265.858 Q571.862 263.497 574.015 262.362 Q576.168 261.205 579.247 261.205 Q579.687 261.205 580.219 261.274 Q580.751 261.321 581.399 261.436 L581.423 265.811 Z" fill="#000000" fill-rule="nonzero" fill-opacity="1" /><path clip-path="url(#clip660)" d="M585.45 277.524 L585.45 261.83 L589.71 261.83 L589.71 277.362 Q589.71 281.043 591.145 282.895 Q592.58 284.723 595.45 284.723 Q598.899 284.723 600.89 282.524 Q602.904 280.325 602.904 276.529 L602.904 261.83 L607.163 261.83 L607.163 287.756 L602.904 287.756 L602.904 283.774 Q601.353 286.135 599.293 287.293 Q597.256 288.427 594.548 288.427 Q590.08 288.427 587.765 285.649 Q585.45 282.871 585.45 277.524 M596.168 261.205 L596.168 261.205 Z" fill="#000000" fill-rule="nonzero" fill-opacity="1" /><path clip-path="url(#clip660)" d="M638.112 273.728 L638.112 275.811 L618.529 275.811 Q618.807 280.209 621.168 282.524 Q623.552 284.816 627.788 284.816 Q630.242 284.816 632.533 284.214 Q634.848 283.612 637.117 282.409 L637.117 286.436 Q634.825 287.408 632.418 287.918 Q630.01 288.427 627.533 288.427 Q621.33 288.427 617.696 284.816 Q614.084 281.205 614.084 275.047 Q614.084 268.682 617.51 264.955 Q620.959 261.205 626.793 261.205 Q632.024 261.205 635.057 264.585 Q638.112 267.941 638.112 273.728 M633.853 272.478 Q633.807 268.983 631.885 266.899 Q629.987 264.816 626.839 264.816 Q623.274 264.816 621.121 266.83 Q618.992 268.844 618.668 272.501 L633.853 272.478 Z" fill="#000000" fill-rule="nonzero" fill-opacity="1" /></svg>
