<?xml version="1.0" encoding="utf-8"?>
<svg xmlns="http://www.w3.org/2000/svg" xmlns:xlink="http://www.w3.org/1999/xlink" width="600" height="400" viewBox="0 0 2400 1600">
<defs>
  <clipPath id="clip260">
    <rect x="0" y="0" width="2400" height="1600"/>
  </clipPath>
</defs>
<path clip-path="url(#clip260)" d="M0 1600 L2400 1600 L2400 0 L0 0  Z" fill="#ffffff" fill-rule="evenodd" fill-opacity="1"/>
<defs>
  <clipPath id="clip261">
    <rect x="480" y="0" width="1681" height="1600"/>
  </clipPath>
</defs>
<path clip-path="url(#clip260)" d="M255.977 1423.18 L2352.76 1423.18 L2352.76 47.2441 L255.977 47.2441  Z" fill="#ffffff" fill-rule="evenodd" fill-opacity="1"/>
<defs>
  <clipPath id="clip262">
    <rect x="255" y="47" width="2098" height="1377"/>
  </clipPath>
</defs>
<polyline clip-path="url(#clip262)" style="stroke:#000000; stroke-linecap:round; stroke-linejoin:round; stroke-width:2; stroke-opacity:0.1; fill:none" points="315.32,1423.18 315.32,47.2441 "/>
<polyline clip-path="url(#clip262)" style="stroke:#000000; stroke-linecap:round; stroke-linejoin:round; stroke-width:2; stroke-opacity:0.1; fill:none" points="711.731,1423.18 711.731,47.2441 "/>
<polyline clip-path="url(#clip262)" style="stroke:#000000; stroke-linecap:round; stroke-linejoin:round; stroke-width:2; stroke-opacity:0.1; fill:none" points="1108.14,1423.18 1108.14,47.2441 "/>
<polyline clip-path="url(#clip262)" style="stroke:#000000; stroke-linecap:round; stroke-linejoin:round; stroke-width:2; stroke-opacity:0.1; fill:none" points="1504.55,1423.18 1504.55,47.2441 "/>
<polyline clip-path="url(#clip262)" style="stroke:#000000; stroke-linecap:round; stroke-linejoin:round; stroke-width:2; stroke-opacity:0.1; fill:none" points="1900.97,1423.18 1900.97,47.2441 "/>
<polyline clip-path="url(#clip262)" style="stroke:#000000; stroke-linecap:round; stroke-linejoin:round; stroke-width:2; stroke-opacity:0.1; fill:none" points="2297.38,1423.18 2297.38,47.2441 "/>
<polyline clip-path="url(#clip262)" style="stroke:#000000; stroke-linecap:round; stroke-linejoin:round; stroke-width:2; stroke-opacity:0.1; fill:none" points="255.977,1126.36 2352.76,1126.36 "/>
<polyline clip-path="url(#clip262)" style="stroke:#000000; stroke-linecap:round; stroke-linejoin:round; stroke-width:2; stroke-opacity:0.1; fill:none" points="255.977,773.407 2352.76,773.407 "/>
<polyline clip-path="url(#clip262)" style="stroke:#000000; stroke-linecap:round; stroke-linejoin:round; stroke-width:2; stroke-opacity:0.1; fill:none" points="255.977,420.448 2352.76,420.448 "/>
<polyline clip-path="url(#clip262)" style="stroke:#000000; stroke-linecap:round; stroke-linejoin:round; stroke-width:2; stroke-opacity:0.1; fill:none" points="255.977,67.4897 2352.76,67.4897 "/>
<polyline clip-path="url(#clip260)" style="stroke:#000000; stroke-linecap:round; stroke-linejoin:round; stroke-width:4; stroke-opacity:1; fill:none" points="255.977,1423.18 2352.76,1423.18 "/>
<polyline clip-path="url(#clip260)" style="stroke:#000000; stroke-linecap:round; stroke-linejoin:round; stroke-width:4; stroke-opacity:1; fill:none" points="315.32,1423.18 315.32,1404.28 "/>
<polyline clip-path="url(#clip260)" style="stroke:#000000; stroke-linecap:round; stroke-linejoin:round; stroke-width:4; stroke-opacity:1; fill:none" points="711.731,1423.18 711.731,1404.28 "/>
<polyline clip-path="url(#clip260)" style="stroke:#000000; stroke-linecap:round; stroke-linejoin:round; stroke-width:4; stroke-opacity:1; fill:none" points="1108.14,1423.18 1108.14,1404.28 "/>
<polyline clip-path="url(#clip260)" style="stroke:#000000; stroke-linecap:round; stroke-linejoin:round; stroke-width:4; stroke-opacity:1; fill:none" points="1504.55,1423.18 1504.55,1404.28 "/>
<polyline clip-path="url(#clip260)" style="stroke:#000000; stroke-linecap:round; stroke-linejoin:round; stroke-width:4; stroke-opacity:1; fill:none" points="1900.97,1423.18 1900.97,1404.28 "/>
<polyline clip-path="url(#clip260)" style="stroke:#000000; stroke-linecap:round; stroke-linejoin:round; stroke-width:4; stroke-opacity:1; fill:none" points="2297.38,1423.18 2297.38,1404.28 "/>
<path clip-path="url(#clip260)" d="M315.32 1454.1 Q311.709 1454.1 309.88 1457.66 Q308.075 1461.2 308.075 1468.33 Q308.075 1475.44 309.88 1479.01 Q311.709 1482.55 315.32 1482.55 Q318.954 1482.55 320.76 1479.01 Q322.588 1475.44 322.588 1468.33 Q322.588 1461.2 320.76 1457.66 Q318.954 1454.1 315.32 1454.1 M315.32 1450.39 Q321.13 1450.39 324.186 1455 Q327.264 1459.58 327.264 1468.33 Q327.264 1477.06 324.186 1481.67 Q321.13 1486.25 315.32 1486.25 Q309.51 1486.25 306.431 1481.67 Q303.376 1477.06 303.376 1468.33 Q303.376 1459.58 306.431 1455 Q309.51 1450.39 315.32 1450.39 Z" fill="#000000" fill-rule="nonzero" fill-opacity="1" /><path clip-path="url(#clip260)" d="M702.113 1481.64 L709.752 1481.64 L709.752 1455.28 L701.442 1456.95 L701.442 1452.69 L709.706 1451.02 L714.382 1451.02 L714.382 1481.64 L722.021 1481.64 L722.021 1485.58 L702.113 1485.58 L702.113 1481.64 Z" fill="#000000" fill-rule="nonzero" fill-opacity="1" /><path clip-path="url(#clip260)" d="M1102.8 1481.64 L1119.12 1481.64 L1119.12 1485.58 L1097.17 1485.58 L1097.17 1481.64 Q1099.83 1478.89 1104.42 1474.26 Q1109.02 1469.61 1110.2 1468.27 Q1112.45 1465.74 1113.33 1464.01 Q1114.23 1462.25 1114.23 1460.56 Q1114.23 1457.8 1112.29 1456.07 Q1110.37 1454.33 1107.26 1454.33 Q1105.06 1454.33 1102.61 1455.09 Q1100.18 1455.86 1097.4 1457.41 L1097.4 1452.69 Q1100.23 1451.55 1102.68 1450.97 Q1105.13 1450.39 1107.17 1450.39 Q1112.54 1450.39 1115.74 1453.08 Q1118.93 1455.77 1118.93 1460.26 Q1118.93 1462.39 1118.12 1464.31 Q1117.33 1466.2 1115.23 1468.8 Q1114.65 1469.47 1111.55 1472.69 Q1108.44 1475.88 1102.8 1481.64 Z" fill="#000000" fill-rule="nonzero" fill-opacity="1" /><path clip-path="url(#clip260)" d="M1508.8 1466.95 Q1512.16 1467.66 1514.03 1469.93 Q1515.93 1472.2 1515.93 1475.53 Q1515.93 1480.65 1512.41 1483.45 Q1508.89 1486.25 1502.41 1486.25 Q1500.24 1486.25 1497.92 1485.81 Q1495.63 1485.39 1493.18 1484.54 L1493.18 1480.02 Q1495.12 1481.16 1497.44 1481.74 Q1499.75 1482.32 1502.27 1482.32 Q1506.67 1482.32 1508.96 1480.58 Q1511.28 1478.84 1511.28 1475.53 Q1511.28 1472.48 1509.13 1470.77 Q1507 1469.03 1503.18 1469.03 L1499.15 1469.03 L1499.15 1465.19 L1503.36 1465.19 Q1506.81 1465.19 1508.64 1463.82 Q1510.47 1462.43 1510.47 1459.84 Q1510.47 1457.18 1508.57 1455.77 Q1506.7 1454.33 1503.18 1454.33 Q1501.26 1454.33 1499.06 1454.75 Q1496.86 1455.16 1494.22 1456.04 L1494.22 1451.88 Q1496.88 1451.14 1499.2 1450.77 Q1501.53 1450.39 1503.59 1450.39 Q1508.92 1450.39 1512.02 1452.83 Q1515.12 1455.23 1515.12 1459.35 Q1515.12 1462.22 1513.48 1464.21 Q1511.83 1466.18 1508.8 1466.95 Z" fill="#000000" fill-rule="nonzero" fill-opacity="1" /><path clip-path="url(#clip260)" d="M1903.98 1455.09 L1892.17 1473.54 L1903.98 1473.54 L1903.98 1455.09 M1902.75 1451.02 L1908.63 1451.02 L1908.63 1473.54 L1913.56 1473.54 L1913.56 1477.43 L1908.63 1477.43 L1908.63 1485.58 L1903.98 1485.58 L1903.98 1477.43 L1888.37 1477.43 L1888.37 1472.92 L1902.75 1451.02 Z" fill="#000000" fill-rule="nonzero" fill-opacity="1" /><path clip-path="url(#clip260)" d="M2287.66 1451.02 L2306.01 1451.02 L2306.01 1454.96 L2291.94 1454.96 L2291.94 1463.43 Q2292.96 1463.08 2293.97 1462.92 Q2294.99 1462.73 2296.01 1462.73 Q2301.8 1462.73 2305.18 1465.9 Q2308.56 1469.08 2308.56 1474.49 Q2308.56 1480.07 2305.09 1483.17 Q2301.61 1486.25 2295.29 1486.25 Q2293.12 1486.25 2290.85 1485.88 Q2288.6 1485.51 2286.2 1484.77 L2286.2 1480.07 Q2288.28 1481.2 2290.5 1481.76 Q2292.72 1482.32 2295.2 1482.32 Q2299.21 1482.32 2301.54 1480.21 Q2303.88 1478.1 2303.88 1474.49 Q2303.88 1470.88 2301.54 1468.77 Q2299.21 1466.67 2295.2 1466.67 Q2293.33 1466.67 2291.45 1467.08 Q2289.6 1467.5 2287.66 1468.38 L2287.66 1451.02 Z" fill="#000000" fill-rule="nonzero" fill-opacity="1" /><path clip-path="url(#clip260)" d="M1174.54 1520.52 L1214.74 1520.52 L1214.74 1525.93 L1197.87 1525.93 L1197.87 1568.04 L1191.41 1568.04 L1191.41 1525.93 L1174.54 1525.93 L1174.54 1520.52 Z" fill="#000000" fill-rule="nonzero" fill-opacity="1" /><path clip-path="url(#clip260)" d="M1218.68 1532.4 L1224.54 1532.4 L1224.54 1568.04 L1218.68 1568.04 L1218.68 1532.4 M1218.68 1518.52 L1224.54 1518.52 L1224.54 1525.93 L1218.68 1525.93 L1218.68 1518.52 Z" fill="#000000" fill-rule="nonzero" fill-opacity="1" /><path clip-path="url(#clip260)" d="M1264.55 1539.24 Q1266.75 1535.29 1269.8 1533.41 Q1272.86 1531.54 1276.99 1531.54 Q1282.56 1531.54 1285.59 1535.45 Q1288.61 1539.33 1288.61 1546.53 L1288.61 1568.04 L1282.72 1568.04 L1282.72 1546.72 Q1282.72 1541.59 1280.91 1539.11 Q1279.09 1536.63 1275.37 1536.63 Q1270.82 1536.63 1268.18 1539.65 Q1265.54 1542.68 1265.54 1547.9 L1265.54 1568.04 L1259.65 1568.04 L1259.65 1546.72 Q1259.65 1541.56 1257.83 1539.11 Q1256.02 1536.63 1252.23 1536.63 Q1247.74 1536.63 1245.1 1539.68 Q1242.46 1542.71 1242.46 1547.9 L1242.46 1568.04 L1236.57 1568.04 L1236.57 1532.4 L1242.46 1532.4 L1242.46 1537.93 Q1244.47 1534.66 1247.27 1533.1 Q1250.07 1531.54 1253.92 1531.54 Q1257.8 1531.54 1260.51 1533.51 Q1263.24 1535.48 1264.55 1539.24 Z" fill="#000000" fill-rule="nonzero" fill-opacity="1" /><path clip-path="url(#clip260)" d="M1330.78 1548.76 L1330.78 1551.62 L1303.86 1551.62 Q1304.24 1557.67 1307.49 1560.85 Q1310.76 1564 1316.59 1564 Q1319.96 1564 1323.11 1563.17 Q1326.3 1562.35 1329.42 1560.69 L1329.42 1566.23 Q1326.26 1567.57 1322.95 1568.27 Q1319.64 1568.97 1316.24 1568.97 Q1307.71 1568.97 1302.71 1564 Q1297.75 1559.04 1297.75 1550.57 Q1297.75 1541.82 1302.46 1536.69 Q1307.2 1531.54 1315.22 1531.54 Q1322.41 1531.54 1326.58 1536.18 Q1330.78 1540.8 1330.78 1548.76 M1324.93 1547.04 Q1324.86 1542.23 1322.22 1539.37 Q1319.61 1536.5 1315.28 1536.5 Q1310.38 1536.5 1307.42 1539.27 Q1304.49 1542.04 1304.05 1547.07 L1324.93 1547.04 Z" fill="#000000" fill-rule="nonzero" fill-opacity="1" /><path clip-path="url(#clip260)" d="M1360.58 1518.52 L1374.07 1518.52 L1374.07 1523.07 L1366.43 1523.07 L1366.43 1572.09 L1374.07 1572.09 L1374.07 1576.64 L1360.58 1576.64 L1360.58 1518.52 Z" fill="#000000" fill-rule="nonzero" fill-opacity="1" /><path clip-path="url(#clip260)" d="M1409.27 1533.45 L1409.27 1538.98 Q1406.79 1537.71 1404.12 1537.07 Q1401.44 1536.44 1398.58 1536.44 Q1394.22 1536.44 1392.02 1537.77 Q1389.86 1539.11 1389.86 1541.79 Q1389.86 1543.82 1391.42 1545 Q1392.98 1546.15 1397.69 1547.2 L1399.69 1547.64 Q1405.93 1548.98 1408.54 1551.43 Q1411.18 1553.85 1411.18 1558.21 Q1411.18 1563.17 1407.24 1566.07 Q1403.32 1568.97 1396.45 1568.97 Q1393.58 1568.97 1390.46 1568.39 Q1387.38 1567.85 1383.94 1566.74 L1383.94 1560.69 Q1387.18 1562.38 1390.34 1563.24 Q1393.49 1564.07 1396.57 1564.07 Q1400.71 1564.07 1402.94 1562.66 Q1405.17 1561.23 1405.17 1558.65 Q1405.17 1556.27 1403.54 1554.99 Q1401.95 1553.72 1396.51 1552.54 L1394.47 1552.07 Q1389.03 1550.92 1386.61 1548.56 Q1384.19 1546.18 1384.19 1542.04 Q1384.19 1537.01 1387.76 1534.27 Q1391.32 1531.54 1397.88 1531.54 Q1401.13 1531.54 1403.99 1532.01 Q1406.85 1532.49 1409.27 1533.45 Z" fill="#000000" fill-rule="nonzero" fill-opacity="1" /><path clip-path="url(#clip260)" d="M1434.2 1518.52 L1434.2 1576.64 L1420.7 1576.64 L1420.7 1572.09 L1428.31 1572.09 L1428.31 1523.07 L1420.7 1523.07 L1420.7 1518.52 L1434.2 1518.52 Z" fill="#000000" fill-rule="nonzero" fill-opacity="1" /><polyline clip-path="url(#clip260)" style="stroke:#000000; stroke-linecap:round; stroke-linejoin:round; stroke-width:4; stroke-opacity:1; fill:none" points="255.977,1423.18 255.977,47.2441 "/>
<polyline clip-path="url(#clip260)" style="stroke:#000000; stroke-linecap:round; stroke-linejoin:round; stroke-width:4; stroke-opacity:1; fill:none" points="255.977,1126.36 274.875,1126.36 "/>
<polyline clip-path="url(#clip260)" style="stroke:#000000; stroke-linecap:round; stroke-linejoin:round; stroke-width:4; stroke-opacity:1; fill:none" points="255.977,773.407 274.875,773.407 "/>
<polyline clip-path="url(#clip260)" style="stroke:#000000; stroke-linecap:round; stroke-linejoin:round; stroke-width:4; stroke-opacity:1; fill:none" points="255.977,420.448 274.875,420.448 "/>
<polyline clip-path="url(#clip260)" style="stroke:#000000; stroke-linecap:round; stroke-linejoin:round; stroke-width:4; stroke-opacity:1; fill:none" points="255.977,67.4897 274.875,67.4897 "/>
<path clip-path="url(#clip260)" d="M114.26 1126.82 L143.936 1126.82 L143.936 1130.75 L114.26 1130.75 L114.26 1126.82 Z" fill="#000000" fill-rule="nonzero" fill-opacity="1" /><path clip-path="url(#clip260)" d="M164.028 1112.16 Q160.417 1112.16 158.589 1115.73 Q156.783 1119.27 156.783 1126.4 Q156.783 1133.51 158.589 1137.07 Q160.417 1140.61 164.028 1140.61 Q167.663 1140.61 169.468 1137.07 Q171.297 1133.51 171.297 1126.4 Q171.297 1119.27 169.468 1115.73 Q167.663 1112.16 164.028 1112.16 M164.028 1108.46 Q169.839 1108.46 172.894 1113.07 Q175.973 1117.65 175.973 1126.4 Q175.973 1135.13 172.894 1139.73 Q169.839 1144.32 164.028 1144.32 Q158.218 1144.32 155.14 1139.73 Q152.084 1135.13 152.084 1126.4 Q152.084 1117.65 155.14 1113.07 Q158.218 1108.46 164.028 1108.46 Z" fill="#000000" fill-rule="nonzero" fill-opacity="1" /><path clip-path="url(#clip260)" d="M184.19 1137.77 L189.075 1137.77 L189.075 1143.64 L184.19 1143.64 L184.19 1137.77 Z" fill="#000000" fill-rule="nonzero" fill-opacity="1" /><path clip-path="url(#clip260)" d="M200.07 1139.71 L207.709 1139.71 L207.709 1113.34 L199.399 1115.01 L199.399 1110.75 L207.662 1109.08 L212.338 1109.08 L212.338 1139.71 L219.977 1139.71 L219.977 1143.64 L200.07 1143.64 L200.07 1139.71 Z" fill="#000000" fill-rule="nonzero" fill-opacity="1" /><path clip-path="url(#clip260)" d="M162.802 759.205 Q159.19 759.205 157.362 762.77 Q155.556 766.312 155.556 773.441 Q155.556 780.548 157.362 784.112 Q159.19 787.654 162.802 787.654 Q166.436 787.654 168.241 784.112 Q170.07 780.548 170.07 773.441 Q170.07 766.312 168.241 762.77 Q166.436 759.205 162.802 759.205 M162.802 755.502 Q168.612 755.502 171.667 760.108 Q174.746 764.691 174.746 773.441 Q174.746 782.168 171.667 786.774 Q168.612 791.358 162.802 791.358 Q156.991 791.358 153.913 786.774 Q150.857 782.168 150.857 773.441 Q150.857 764.691 153.913 760.108 Q156.991 755.502 162.802 755.502 Z" fill="#000000" fill-rule="nonzero" fill-opacity="1" /><path clip-path="url(#clip260)" d="M182.963 784.807 L187.848 784.807 L187.848 790.687 L182.963 790.687 L182.963 784.807 Z" fill="#000000" fill-rule="nonzero" fill-opacity="1" /><path clip-path="url(#clip260)" d="M208.033 759.205 Q204.422 759.205 202.593 762.77 Q200.787 766.312 200.787 773.441 Q200.787 780.548 202.593 784.112 Q204.422 787.654 208.033 787.654 Q211.667 787.654 213.473 784.112 Q215.301 780.548 215.301 773.441 Q215.301 766.312 213.473 762.77 Q211.667 759.205 208.033 759.205 M208.033 755.502 Q213.843 755.502 216.898 760.108 Q219.977 764.691 219.977 773.441 Q219.977 782.168 216.898 786.774 Q213.843 791.358 208.033 791.358 Q202.223 791.358 199.144 786.774 Q196.088 782.168 196.088 773.441 Q196.088 764.691 199.144 760.108 Q202.223 755.502 208.033 755.502 Z" fill="#000000" fill-rule="nonzero" fill-opacity="1" /><path clip-path="url(#clip260)" d="M164.028 406.247 Q160.417 406.247 158.589 409.812 Q156.783 413.353 156.783 420.483 Q156.783 427.589 158.589 431.154 Q160.417 434.696 164.028 434.696 Q167.663 434.696 169.468 431.154 Q171.297 427.589 171.297 420.483 Q171.297 413.353 169.468 409.812 Q167.663 406.247 164.028 406.247 M164.028 402.543 Q169.839 402.543 172.894 407.15 Q175.973 411.733 175.973 420.483 Q175.973 429.21 172.894 433.816 Q169.839 438.399 164.028 438.399 Q158.218 438.399 155.14 433.816 Q152.084 429.21 152.084 420.483 Q152.084 411.733 155.14 407.15 Q158.218 402.543 164.028 402.543 Z" fill="#000000" fill-rule="nonzero" fill-opacity="1" /><path clip-path="url(#clip260)" d="M184.19 431.848 L189.075 431.848 L189.075 437.728 L184.19 437.728 L184.19 431.848 Z" fill="#000000" fill-rule="nonzero" fill-opacity="1" /><path clip-path="url(#clip260)" d="M200.07 433.793 L207.709 433.793 L207.709 407.427 L199.399 409.094 L199.399 404.835 L207.662 403.168 L212.338 403.168 L212.338 433.793 L219.977 433.793 L219.977 437.728 L200.07 437.728 L200.07 433.793 Z" fill="#000000" fill-rule="nonzero" fill-opacity="1" /><path clip-path="url(#clip260)" d="M164.399 53.2884 Q160.788 53.2884 158.959 56.8532 Q157.153 60.3948 157.153 67.5244 Q157.153 74.6308 158.959 78.1956 Q160.788 81.7373 164.399 81.7373 Q168.033 81.7373 169.839 78.1956 Q171.667 74.6308 171.667 67.5244 Q171.667 60.3948 169.839 56.8532 Q168.033 53.2884 164.399 53.2884 M164.399 49.5847 Q170.209 49.5847 173.264 54.1911 Q176.343 58.7745 176.343 67.5244 Q176.343 76.2512 173.264 80.8577 Q170.209 85.441 164.399 85.441 Q158.589 85.441 155.51 80.8577 Q152.454 76.2512 152.454 67.5244 Q152.454 58.7745 155.51 54.1911 Q158.589 49.5847 164.399 49.5847 Z" fill="#000000" fill-rule="nonzero" fill-opacity="1" /><path clip-path="url(#clip260)" d="M184.561 78.8901 L189.445 78.8901 L189.445 84.7697 L184.561 84.7697 L184.561 78.8901 Z" fill="#000000" fill-rule="nonzero" fill-opacity="1" /><path clip-path="url(#clip260)" d="M203.658 80.8345 L219.977 80.8345 L219.977 84.7697 L198.033 84.7697 L198.033 80.8345 Q200.695 78.0799 205.278 73.4503 Q209.885 68.7975 211.065 67.455 Q213.311 64.9318 214.19 63.1957 Q215.093 61.4365 215.093 59.7467 Q215.093 56.9921 213.149 55.256 Q211.227 53.5199 208.125 53.5199 Q205.926 53.5199 203.473 54.2837 Q201.042 55.0476 198.264 56.5985 L198.264 51.8763 Q201.088 50.7421 203.542 50.1634 Q205.996 49.5847 208.033 49.5847 Q213.403 49.5847 216.598 52.2699 Q219.792 54.955 219.792 59.4457 Q219.792 61.5754 218.982 63.4966 Q218.195 65.3948 216.088 67.9874 Q215.51 68.6587 212.408 71.8762 Q209.306 75.0707 203.658 80.8345 Z" fill="#000000" fill-rule="nonzero" fill-opacity="1" /><path clip-path="url(#clip260)" d="M20.8447 823.791 Q20.8447 830.793 26.0645 834.931 Q31.2844 839.037 40.2919 839.037 Q49.2675 839.037 54.4874 834.931 Q59.7073 830.793 59.7073 823.791 Q59.7073 816.788 54.4874 812.714 Q49.2675 808.609 40.2919 808.609 Q31.2844 808.609 26.0645 812.714 Q20.8447 816.788 20.8447 823.791 M15.6248 823.791 Q15.6248 813.797 22.3406 807.813 Q29.0246 801.829 40.2919 801.829 Q51.5274 801.829 58.2432 807.813 Q64.9272 813.797 64.9272 823.791 Q64.9272 833.817 58.2432 839.832 Q51.5592 845.816 40.2919 845.816 Q29.0246 845.816 22.3406 839.832 Q15.6248 833.817 15.6248 823.791 Z" fill="#000000" fill-rule="nonzero" fill-opacity="1" /><path clip-path="url(#clip260)" d="M49.9359 792.631 L28.3562 792.631 L28.3562 786.774 L49.7131 786.774 Q54.7739 786.774 57.3202 784.801 Q59.8346 782.827 59.8346 778.881 Q59.8346 774.138 56.8109 771.401 Q53.7872 768.632 48.5673 768.632 L28.3562 768.632 L28.3562 762.775 L64.0042 762.775 L64.0042 768.632 L58.5296 768.632 Q61.7762 770.764 63.3676 773.597 Q64.9272 776.398 64.9272 780.122 Q64.9272 786.265 61.1078 789.448 Q57.2883 792.631 49.9359 792.631 M27.4968 777.894 L27.4968 777.894 Z" fill="#000000" fill-rule="nonzero" fill-opacity="1" /><path clip-path="url(#clip260)" d="M18.2347 744.92 L28.3562 744.92 L28.3562 732.857 L32.9077 732.857 L32.9077 744.92 L52.2594 744.92 Q56.6199 744.92 57.8613 743.742 Q59.1026 742.533 59.1026 738.872 L59.1026 732.857 L64.0042 732.857 L64.0042 738.872 Q64.0042 745.652 61.4897 748.23 Q58.9434 750.808 52.2594 750.808 L32.9077 750.808 L32.9077 755.105 L28.3562 755.105 L28.3562 750.808 L18.2347 750.808 L18.2347 744.92 Z" fill="#000000" fill-rule="nonzero" fill-opacity="1" /><path clip-path="url(#clip260)" d="M58.657 719.489 L77.5631 719.489 L77.5631 725.377 L28.3562 725.377 L28.3562 719.489 L33.7671 719.489 Q30.5842 717.643 29.0564 714.842 Q27.4968 712.009 27.4968 708.094 Q27.4968 701.601 32.6531 697.559 Q37.8093 693.485 46.212 693.485 Q54.6147 693.485 59.771 697.559 Q64.9272 701.601 64.9272 708.094 Q64.9272 712.009 63.3994 714.842 Q61.8398 717.643 58.657 719.489 M46.212 699.564 Q39.7508 699.564 36.0905 702.238 Q32.3984 704.879 32.3984 709.526 Q32.3984 714.173 36.0905 716.847 Q39.7508 719.489 46.212 719.489 Q52.6732 719.489 56.3653 716.847 Q60.0256 714.173 60.0256 709.526 Q60.0256 704.879 56.3653 702.238 Q52.6732 699.564 46.212 699.564 Z" fill="#000000" fill-rule="nonzero" fill-opacity="1" /><path clip-path="url(#clip260)" d="M49.9359 684.382 L28.3562 684.382 L28.3562 678.525 L49.7131 678.525 Q54.7739 678.525 57.3202 676.552 Q59.8346 674.579 59.8346 670.632 Q59.8346 665.889 56.8109 663.152 Q53.7872 660.383 48.5673 660.383 L28.3562 660.383 L28.3562 654.527 L64.0042 654.527 L64.0042 660.383 L58.5296 660.383 Q61.7762 662.516 63.3676 665.348 Q64.9272 668.149 64.9272 671.873 Q64.9272 678.016 61.1078 681.199 Q57.2883 684.382 49.9359 684.382 M27.4968 669.645 L27.4968 669.645 Z" fill="#000000" fill-rule="nonzero" fill-opacity="1" /><path clip-path="url(#clip260)" d="M18.2347 636.671 L28.3562 636.671 L28.3562 624.608 L32.9077 624.608 L32.9077 636.671 L52.2594 636.671 Q56.6199 636.671 57.8613 635.493 Q59.1026 634.284 59.1026 630.623 L59.1026 624.608 L64.0042 624.608 L64.0042 630.623 Q64.0042 637.403 61.4897 639.981 Q58.9434 642.559 52.2594 642.559 L32.9077 642.559 L32.9077 646.856 L28.3562 646.856 L28.3562 642.559 L18.2347 642.559 L18.2347 636.671 Z" fill="#000000" fill-rule="nonzero" fill-opacity="1" /><polyline clip-path="url(#clip262)" style="stroke:#009af9; stroke-linecap:round; stroke-linejoin:round; stroke-width:4; stroke-opacity:1; fill:none" points="315.32,773.407 319.284,773.407 323.248,773.407 323.248,808.294 327.212,808.294 327.212,842.155 331.176,842.155 331.176,874.69 335.141,874.69 335.141,905.635 339.105,905.635 339.105,934.76 343.069,934.76 343.069,892.098 347.033,892.098 347.033,849.332 350.997,849.332 350.997,806.951 354.961,806.951 354.961,765.426 358.925,765.426 358.925,725.2 362.889,725.2 362.889,686.682 366.853,686.682 366.853,650.237 370.818,650.237 370.818,616.184 374.782,616.184 374.782,584.788 378.746,584.788 378.746,556.255 382.71,556.255 382.71,600.512 386.674,600.512 386.674,645.815 390.638,645.815 390.638,691.598 394.602,691.598 394.602,737.298 398.566,737.298 398.566,782.368 402.53,782.368 402.53,826.285 406.495,826.285 406.495,868.562 410.459,868.562 410.459,908.753 414.423,908.753 414.423,946.465 418.387,946.465 418.387,981.361 422.351,981.361 422.351,943.391 426.315,943.391 426.315,904.176 430.279,904.176 430.279,864.17 434.243,864.17 434.243,823.831 438.208,823.831 438.208,783.615 442.172,783.615 442.172,813.74 446.136,813.74 446.136,842.797 450.1,842.797 450.1,870.585 454.064,870.585 454.064,896.931 458.028,896.931 458.028,921.692 461.992,921.692 461.992,874.982 465.956,874.982 465.956,828.554 469.92,828.554 469.92,782.957 473.885,782.957 473.885,738.715 477.849,738.715 477.849,696.31 481.813,696.31 481.813,656.177 485.777,656.177 485.777,618.699 489.741,618.699 489.741,584.197 493.705,584.197 493.705,552.928 497.669,552.928 497.669,525.081 501.633,525.081 501.633,500.777 505.597,500.777 505.597,480.063 509.562,480.063 509.562,462.922 513.526,462.922 513.526,449.266 517.49,449.266 517.49,438.948 521.454,438.948 521.454,501.537 525.418,501.537 525.418,564.941 529.382,564.941 529.382,628.263 533.346,628.263 533.346,690.626 537.31,690.626 537.31,751.198 541.275,751.198 541.275,739.425 545.239,739.425 545.239,726.431 549.203,726.431 549.203,712.184 553.167,712.184 553.167,696.683 557.131,696.683 557.131,679.951 561.095,679.951 561.095,662.041 565.059,662.041 565.059,643.03 569.023,643.03 569.023,623.016 572.987,623.016 572.987,602.119 576.952,602.119 576.952,580.475 580.916,580.475 580.916,628.008 584.88,628.008 584.88,673.048 588.844,673.048 588.844,715.167 592.808,715.167 592.808,754.004 596.772,754.004 596.772,789.268 600.736,789.268 600.736,820.746 604.7,820.746 604.7,848.299 608.664,848.299 608.664,871.867 612.629,871.867 612.629,891.467 616.593,891.467 616.593,907.19 620.557,907.19 620.557,919.195 624.521,919.195 624.521,927.709 628.485,927.709 628.485,933.014 632.449,933.014 632.449,935.446 636.413,935.446 636.413,935.383 640.377,935.383 640.377,933.239 644.341,933.239 644.341,929.451 648.306,929.451 648.306,924.473 652.27,924.473 652.27,918.766 656.234,918.766 656.234,912.789 660.198,912.789 660.198,906.988 664.162,906.988 664.162,901.791 668.126,901.791 668.126,897.597 672.09,897.597 672.09,894.77 676.054,894.77 676.054,893.635 680.019,893.635 680.019,894.469 683.983,894.469 683.983,897.5 687.947,897.5 687.947,902.905 691.911,902.905 691.911,910.802 695.875,910.802 695.875,921.256 699.839,921.256 699.839,934.277 703.803,934.277 703.803,949.821 707.767,949.821 707.767,967.792 711.731,967.792 711.731,988.048 715.696,988.048 715.696,1010.4 719.66,1010.4 719.66,1034.63 723.624,1034.63 723.624,1060.47 727.588,1060.47 727.588,1087.64 731.552,1087.64 731.552,1115.83 735.516,1115.83 735.516,1144.73 739.48,1144.73 739.48,1104.24 743.444,1104.24 743.444,1065.85 747.408,1065.85 747.408,1029.84 751.373,1029.84 751.373,996.433 755.337,996.433 755.337,965.803 759.301,965.803 759.301,938.059 763.265,938.059 763.265,913.26 767.229,913.26 767.229,891.407 771.193,891.407 771.193,872.45 775.157,872.45 775.157,856.283 779.121,856.283 779.121,912.532 783.085,912.532 783.085,969.169 787.05,969.169 787.05,1025.37 791.014,1025.37 791.014,1080.33 794.978,1080.33 794.978,1133.31 798.942,1133.31 798.942,1113.82 802.906,1113.82 802.906,1093.08 806.87,1093.08 806.87,1071.15 810.834,1071.15 810.834,1048.08 814.798,1048.08 814.798,1024 818.763,1024 818.763,1068.79 822.727,1068.79 822.727,1110.76 826.691,1110.76 826.691,1149.48 830.655,1149.48 830.655,1184.57 834.619,1184.57 834.619,1215.76 838.583,1215.76 838.583,1242.83 842.547,1242.83 842.547,1265.67 846.511,1265.67 846.511,1284.23 850.475,1284.23 850.475,1298.58 854.44,1298.58 854.44,1308.82 858.404,1308.82 858.404,1245.38 862.368,1245.38 862.368,1180.37 866.332,1180.37 866.332,1114.7 870.296,1114.7 870.296,1049.29 874.26,1049.29 874.26,985.012 878.224,985.012 878.224,992.491 882.188,992.491 882.188,1000.67 886.152,1000.67 886.152,1009.66 890.117,1009.66 890.117,1019.56 894.081,1019.56 894.081,1030.43 898.045,1030.43 898.045,972.531 902.009,972.531 902.009,917.719 905.973,917.719 905.973,866.581 909.937,866.581 909.937,819.62 913.901,819.62 913.901,777.247 917.865,777.247 917.865,739.773 921.829,739.773 921.829,707.408 925.794,707.408 925.794,680.259 929.758,680.259 929.758,658.331 933.722,658.331 933.722,641.53 937.686,641.53 937.686,699.443 941.65,699.443 941.65,759.962 945.614,759.962 945.614,822.138 949.578,822.138 949.578,885.012 953.542,885.012 953.542,947.637 957.507,947.637 957.507,939.32 961.471,939.32 961.471,931.023 965.435,931.023 965.435,922.532 969.399,922.532 969.399,913.649 973.363,913.649 973.363,904.192 977.327,904.192 977.327,963.774 981.291,963.774 981.291,1020.43 985.255,1020.43 985.255,1073.44 989.219,1073.44 989.219,1122.2 993.184,1122.2 993.184,1166.18 997.148,1166.18 997.148,1204.97 1001.11,1204.97 1001.11,1238.27 1005.08,1238.27 1005.08,1265.89 1009.04,1265.89 1009.04,1287.75 1013,1287.75 1013,1303.9 1016.97,1303.9 1016.97,1244.7 1020.93,1244.7 1020.93,1182.23 1024.9,1182.23 1024.9,1117.44 1028.86,1117.44 1028.86,1051.27 1032.82,1051.27 1032.82,984.7 1036.79,984.7 1036.79,988.442 1040.75,988.442 1040.75,991.577 1044.72,991.577 1044.72,994.37 1048.68,994.37 1048.68,997.081 1052.65,997.081 1052.65,999.961 1056.61,999.961 1056.61,933.471 1060.57,933.471 1060.57,869.664 1064.54,869.664 1064.54,809.329 1068.5,809.329 1068.5,753.173 1072.47,753.173 1072.47,701.799 1076.43,701.799 1076.43,655.704 1080.39,655.704 1080.39,615.27 1084.36,615.27 1084.36,580.76 1088.32,580.76 1088.32,552.316 1092.29,552.316 1092.29,529.961 1096.25,529.961 1096.25,583.376 1100.21,583.376 1100.21,640.522 1104.18,640.522 1104.18,700.497 1108.14,700.497 1108.14,762.362 1112.11,762.362 1112.11,825.169 1116.07,825.169 1116.07,887.974 1120.04,887.974 1120.04,949.859 1124,949.859 1124,1009.95 1127.96,1009.95 1127.96,1067.42 1131.93,1067.42 1131.93,1121.53 1135.89,1121.53 1135.89,1171.62 1139.86,1171.62 1139.86,1217.13 1143.82,1217.13 1143.82,1257.58 1147.78,1257.58 1147.78,1292.64 1151.75,1292.64 1151.75,1322.06 1155.71,1322.06 1155.71,1345.72 1159.68,1345.72 1159.68,1363.62 1163.64,1363.62 1163.64,1375.85 1167.6,1375.85 1167.6,1382.62 1171.57,1382.62 1171.57,1384.24 1175.53,1384.24 1175.53,1311.33 1179.5,1311.33 1179.5,1236.19 1183.46,1236.19 1183.46,1159.97 1187.43,1159.97 1187.43,1083.78 1191.39,1083.78 1191.39,1008.74 1195.35,1008.74 1195.35,1005.65 1199.32,1005.65 1199.32,1003.68 1203.28,1003.68 1203.28,1003.11 1207.25,1003.11 1207.25,1004.19 1211.21,1004.19 1211.21,1007.16 1215.17,1007.16 1215.17,942.384 1219.14,942.384 1219.14,881.829 1223.1,881.829 1223.1,826.156 1227.07,826.156 1227.07,775.918 1231.03,775.918 1231.03,731.549 1234.99,731.549 1234.99,763.136 1238.96,763.136 1238.96,799.029 1242.92,799.029 1242.92,838.691 1246.89,838.691 1246.89,881.523 1250.85,881.523 1250.85,926.877 1254.82,926.877 1254.82,904.298 1258.78,904.298 1258.78,884.918 1262.74,884.918 1262.74,868.627 1266.71,868.627 1266.71,855.262 1270.67,855.262 1270.67,844.612 1274.64,844.612 1274.64,906.196 1278.6,906.196 1278.6,967.892 1282.56,967.892 1282.56,1028.78 1286.53,1028.78 1286.53,1087.99 1290.49,1087.99 1290.49,1144.7 1294.46,1144.7 1294.46,1128.37 1298.42,1128.37 1298.42,1110.19 1302.38,1110.19 1302.38,1090.16 1306.35,1090.16 1306.35,1068.35 1310.31,1068.35 1310.31,1044.85 1314.28,1044.85 1314.28,1019.8 1318.24,1019.8 1318.24,993.362 1322.21,993.362 1322.21,965.722 1326.17,965.722 1326.17,937.092 1330.13,937.092 1330.13,907.699 1334.1,907.699 1334.1,947.557 1338.06,947.557 1338.06,985.082 1342.03,985.082 1342.03,1019.93 1345.99,1019.93 1345.99,1051.81 1349.95,1051.81 1349.95,1080.5 1353.92,1080.5 1353.92,1036.07 1357.88,1036.07 1357.88,990.253 1361.85,990.253 1361.85,943.633 1365.81,943.633 1365.81,896.78 1369.77,896.78 1369.77,850.258 1373.74,850.258 1373.74,804.615 1377.7,804.615 1377.7,760.367 1381.67,760.367 1381.67,717.99 1385.63,717.99 1385.63,677.916 1389.6,677.916 1389.6,640.518 1393.56,640.518 1393.56,675.888 1397.52,675.888 1397.52,712.444 1401.49,712.444 1401.49,749.776 1405.45,749.776 1405.45,787.463 1409.42,787.463 1409.42,825.091 1413.38,825.091 1413.38,862.253 1417.34,862.253 1417.34,898.56 1421.31,898.56 1421.31,933.65 1425.27,933.65 1425.27,967.19 1429.24,967.19 1429.24,998.886 1433.2,998.886 1433.2,958.708 1437.16,958.708 1437.16,918.281 1441.13,918.281 1441.13,878.04 1445.09,878.04 1445.09,838.406 1449.06,838.406 1449.06,799.783 1453.02,799.783 1453.02,832.318 1456.98,832.318 1456.98,864.52 1460.95,864.52 1460.95,896.092 1464.91,896.092 1464.91,926.756 1468.88,926.756 1468.88,956.258 1472.84,956.258 1472.84,914.592 1476.81,914.592 1476.81,873.395 1480.77,873.395 1480.77,833.096 1484.73,833.096 1484.73,794.099 1488.7,794.099 1488.7,756.776 1492.66,756.776 1492.66,791.233 1496.63,791.233 1496.63,825.921 1500.59,825.921 1500.59,860.482 1504.55,860.482 1504.55,894.567 1508.52,894.567 1508.52,927.84 1512.48,927.84 1512.48,959.992 1516.45,959.992 1516.45,990.74 1520.41,990.74 1520.41,1019.83 1524.37,1019.83 1524.37,1047.06 1528.34,1047.06 1528.34,1072.25 1532.3,1072.25 1532.3,1025.49 1536.27,1025.49 1536.27,978.522 1540.23,978.522 1540.23,931.905 1544.2,931.905 1544.2,886.168 1548.16,886.168 1548.16,841.811 1552.12,841.811 1552.12,869.076 1556.09,869.076 1556.09,896.547 1560.05,896.547 1560.05,923.996 1564.02,923.996 1564.02,951.197 1567.98,951.197 1567.98,977.932 1571.94,977.932 1571.94,934.22 1575.91,934.22 1575.91,891.705 1579.87,891.705 1579.87,850.81 1583.84,850.81 1583.84,811.921 1587.8,811.921 1587.8,775.375 1591.76,775.375 1591.76,741.455 1595.73,741.455 1595.73,710.392 1599.69,710.392 1599.69,682.353 1603.66,682.353 1603.66,657.448 1607.62,657.448 1607.62,635.721 1611.59,635.721 1611.59,617.161 1615.55,617.161 1615.55,601.695 1619.51,601.695 1619.51,589.196 1623.48,589.196 1623.48,579.484 1627.44,579.484 1627.44,572.336 1631.41,572.336 1631.41,637.261 1635.37,637.261 1635.37,702.13 1639.33,702.13 1639.33,766.021 1643.3,766.021 1643.3,828.057 1647.26,828.057 1647.26,887.418 1651.23,887.418 1651.23,943.36 1655.19,943.36 1655.19,995.223 1659.15,995.223 1659.15,1042.44 1663.12,1042.44 1663.12,1084.56 1667.08,1084.56 1667.08,1121.23 1671.05,1121.23 1671.05,1082.44 1675.01,1082.44 1675.01,1039.9 1678.98,1039.9 1678.98,994.209 1682.94,994.209 1682.94,945.998 1686.9,945.998 1686.9,895.942 1690.87,895.942 1690.87,914.51 1694.83,914.51 1694.83,930.567 1698.8,930.567 1698.8,944.21 1702.76,944.21 1702.76,955.576 1706.72,955.576 1706.72,964.838 1710.69,964.838 1710.69,972.205 1714.65,972.205 1714.65,977.912 1718.62,977.912 1718.62,982.216 1722.58,982.216 1722.58,985.391 1726.54,985.391 1726.54,987.724 1730.51,987.724 1730.51,919.728 1734.47,919.728 1734.47,853.524 1738.44,853.524 1738.44,789.99 1742.4,789.99 1742.4,729.929 1746.37,729.929 1746.37,674.054 1750.33,674.054 1750.33,622.981 1754.29,622.981 1754.29,577.214 1758.26,577.214 1758.26,537.143 1762.22,537.143 1762.22,503.038 1766.19,503.038 1766.19,475.047 1770.15,475.047 1770.15,522.972 1774.11,522.972 1774.11,574.89 1778.08,574.89 1778.08,630.003 1782.04,630.003 1782.04,687.469 1786.01,687.469 1786.01,746.422 1789.97,746.422 1789.97,736.214 1793.93,736.214 1793.93,727.813 1797.9,727.813 1797.9,720.978 1801.86,720.978 1801.86,715.447 1805.83,715.447 1805.83,710.944 1809.79,710.944 1809.79,707.186 1813.76,707.186 1813.76,703.884 1817.72,703.884 1817.72,700.754 1821.68,700.754 1821.68,697.521 1825.65,697.521 1825.65,693.921 1829.61,693.921 1829.61,759.486 1833.58,759.486 1833.58,822.163 1837.54,822.163 1837.54,881.162 1841.5,881.162 1841.5,935.786 1845.47,935.786 1845.47,985.439 1849.43,985.439 1849.43,1029.64 1853.4,1029.64 1853.4,1068.02 1857.36,1068.02 1857.36,1100.34 1861.32,1100.34 1861.32,1126.48 1865.29,1126.48 1865.29,1146.45 1869.25,1146.45 1869.25,1160.35 1873.22,1160.35 1873.22,1168.43 1877.18,1168.43 1877.18,1171.02 1881.15,1171.02 1881.15,1168.55 1885.11,1168.55 1885.11,1161.54 1889.07,1161.54 1889.07,1080.79 1893.04,1080.79 1893.04,998.789 1897,998.789 1897,916.811 1900.97,916.811 1900.97,836.102 1904.93,836.102 1904.93,757.851 1908.89,757.851 1908.89,752.941 1912.86,752.941 1912.86,750.551 1916.82,750.551 1916.82,750.979 1920.79,750.979 1920.79,754.454 1924.75,754.454 1924.75,761.14 1928.71,761.14 1928.71,771.124 1932.68,771.124 1932.68,784.427 1936.64,784.427 1936.64,800.998 1940.61,800.998 1940.61,820.722 1944.57,820.722 1944.57,843.421 1948.54,843.421 1948.54,868.862 1952.5,868.862 1952.5,896.761 1956.46,896.761 1956.46,926.791 1960.43,926.791 1960.43,958.591 1964.39,958.591 1964.39,991.771 1968.36,991.771 1968.36,956.149 1972.32,956.149 1972.32,923.138 1976.28,923.138 1976.28,892.914 1980.25,892.914 1980.25,865.595 1984.21,865.595 1984.21,841.246 1988.18,841.246 1988.18,889.648 1992.14,889.648 1992.14,938.92 1996.1,938.92 1996.1,988.369 2000.07,988.369 2000.07,1037.31 2004.03,1037.31 2004.03,1085.1 2008,1085.1 2008,1061.33 2011.96,1061.33 2011.96,1037.28 2015.93,1037.28 2015.93,1013.04 2019.89,1013.04 2019.89,988.697 2023.85,988.697 2023.85,964.354 2027.82,964.354 2027.82,940.107 2031.78,940.107 2031.78,916.055 2035.75,916.055 2035.75,892.292 2039.71,892.292 2039.71,868.907 2043.67,868.907 2043.67,845.985 2047.64,845.985 2047.64,823.599 2051.6,823.599 2051.6,801.818 2055.57,801.818 2055.57,780.696 2059.53,780.696 2059.53,760.278 2063.49,760.278 2063.49,740.598 2067.46,740.598 2067.46,791.453 2071.42,791.453 2071.42,841.02 2075.39,841.02 2075.39,888.702 2079.35,888.702 2079.35,933.953 2083.32,933.953 2083.32,976.289 2087.28,976.289 2087.28,1015.29 2091.24,1015.29 2091.24,1050.62 2095.21,1050.62 2095.21,1082.01 2099.17,1082.01 2099.17,1109.28 2103.14,1109.28 2103.14,1132.33 2107.1,1132.33 2107.1,1151.15 2111.06,1151.15 2111.06,1165.81 2115.03,1165.81 2115.03,1176.43 2118.99,1176.43 2118.99,1183.25 2122.96,1183.25 2122.96,1186.54 2126.92,1186.54 2126.92,1116.86 2130.88,1116.86 2130.88,1046.43 2134.85,1046.43 2134.85,976.271 2138.81,976.271 2138.81,907.378 2142.78,907.378 2142.78,840.691 2146.74,840.691 2146.74,777.082 2150.7,777.082 2150.7,717.342 2154.67,717.342 2154.67,662.166 2158.63,662.166 2158.63,612.142 2162.6,612.142 2162.6,567.743 2166.56,567.743 2166.56,529.321 2170.53,529.321 2170.53,497.104 2174.49,497.104 2174.49,471.193 2178.45,471.193 2178.45,451.568 2182.42,451.568 2182.42,438.088 2186.38,438.088 2186.38,430.498 2190.35,430.498 2190.35,428.44 2194.31,428.44 2194.31,431.458 2198.27,431.458 2198.27,439.016 2202.24,439.016 2202.24,450.507 2206.2,450.507 2206.2,535.042 2210.17,535.042 2210.17,620.086 2214.13,620.086 2214.13,704.313 2218.09,704.313 2218.09,786.449 2222.06,786.449 2222.06,865.294 2226.02,865.294 2226.02,939.747 2229.99,939.747 2229.99,1008.82 2233.95,1008.82 2233.95,1071.66 2237.92,1071.66 2237.92,1127.56 2241.88,1127.56 2241.88,1175.95 2245.84,1175.95 2245.84,1146.67 2249.81,1146.67 2249.81,1111.31 2253.77,1111.31 2253.77,1070.41 2257.74,1070.41 2257.74,1024.58 2261.7,1024.58 2261.7,974.528 2265.66,974.528 2265.66,921.026 2269.63,921.026 2269.63,864.89 2273.59,864.89 2273.59,806.972 2277.56,806.972 2277.56,748.134 2281.52,748.134 2281.52,689.234 2285.48,689.234 2285.48,700.886 2289.45,700.886 2289.45,712.061 2293.41,712.061 2293.41,722.912 "/>
<polyline clip-path="url(#clip262)" style="stroke:#e26f46; stroke-linecap:round; stroke-linejoin:round; stroke-width:4; stroke-opacity:1; fill:none" points="315.32,776.395 319.284,623.063 323.248,652.455 327.212,685.145 331.176,717.412 335.141,748.969 339.105,779.82 343.069,739.932 347.033,700.384 350.997,662.774 354.961,627.327 358.925,594.216 362.889,563.588 366.853,535.567 370.818,510.252 374.782,487.719 378.746,467.81 382.71,520.398 386.674,574.238 390.638,627.559 394.602,679.963 398.566,731.1 402.53,780.645 406.495,828.296 410.459,873.781 414.423,916.854 418.387,957.503 422.351,925.695 426.315,892.519 430.279,859.599 434.243,827.194 438.208,795.312 442.172,834.003 446.136,872.203 450.1,908.33 454.064,942.176 458.028,973.795 461.992,933.208 465.956,891.562 469.92,850.529 473.885,810.413 477.849,771.473 481.813,733.947 485.777,698.055 489.741,663.995 493.705,631.941 497.669,602.049 501.633,574.448 505.597,549.25 509.562,526.54 513.526,506.383 517.49,488.614 521.454,543.1 525.418,598.592 529.382,653.317 533.346,706.876 537.31,759.13 541.275,739.913 545.239,720.179 549.203,701.419 553.167,683.756 557.131,667.276 561.095,652.051 565.059,638.143 569.023,625.599 572.987,614.456 576.952,604.529 580.916,665.677 584.88,726.649 588.844,785.68 592.808,842.39 596.772,896.455 600.736,947.584 604.7,995.521 608.664,1040.04 612.629,1080.97 616.593,1118.13 620.557,1151.42 624.521,1180.76 628.485,1206.07 632.449,1227.36 636.413,1244.62 640.377,1257.89 644.341,1267.25 648.306,1272.78 652.27,1274.6 656.234,1272.85 660.198,1267.7 664.162,1259.32 668.126,1247.9 672.09,1233.66 676.054,1216.82 680.019,1197.6 683.983,1176.26 687.947,1153.04 691.911,1128.18 695.875,1101.94 699.839,1074.57 703.803,1046.31 707.767,1017.42 711.731,988.127 715.696,958.672 719.66,929.277 723.624,900.157 727.588,871.515 731.552,843.543 735.516,816.629 739.48,721.093 743.444,628.338 747.408,540.256 751.373,457.329 755.337,379.958 759.301,308.485 763.265,243.194 767.229,184.311 771.193,132.006 775.157,86.1857 779.121,116.754 783.085,152.469 787.05,191.53 791.014,233.487 794.978,278.116 798.942,255.143 802.906,235.392 806.87,220.197 810.834,209.507 814.798,203.008 818.763,270.407 822.727,340.293 826.691,410.725 830.655,481.135 834.619,551.001 838.583,619.831 842.547,687.159 846.511,752.549 850.475,815.598 854.44,876.147 858.404,864.016 862.368,850.159 866.332,836.071 870.296,821.893 874.26,807.524 878.224,862.912 882.188,916.907 886.152,967.843 890.117,1015.45 894.081,1059.71 898.045,1030.61 902.009,999.262 905.973,967.301 909.937,935.019 913.901,902.668 917.865,870.489 921.829,838.715 925.794,807.561 929.758,777.234 933.722,747.714 937.686,789.02 941.65,830.061 945.614,869.222 949.578,906.265 953.542,941.214 957.507,904.061 961.471,865.921 965.435,828.44 969.399,791.891 973.363,756.298 977.327,791.72 981.291,827.1 985.255,860.855 989.219,892.779 993.184,922.711 997.148,950.511 1001.11,976.063 1005.08,999.271 1009.04,1020.06 1013,1038.59 1016.97,984.97 1020.93,930.45 1024.9,876.79 1028.86,824.374 1032.82,773.331 1036.79,793.815 1040.75,814.86 1044.72,834.964 1048.68,853.993 1052.65,872.058 1056.61,819.231 1060.57,766.692 1064.54,716.141 1068.5,667.892 1072.47,622.209 1076.43,579.323 1080.39,539.435 1084.36,502.715 1088.32,469.304 1092.29,439.104 1096.25,482.038 1100.21,526.908 1104.18,571.979 1108.14,616.885 1112.11,661.3 1116.07,704.917 1120.04,747.445 1124,788.617 1127.96,828.183 1131.93,865.918 1135.89,901.618 1139.86,935.105 1143.82,966.222 1147.78,994.837 1151.75,1020.84 1155.71,1044.15 1159.68,1064.71 1163.64,1082.48 1167.6,1097.43 1171.57,1109.79 1175.53,1049.74 1179.5,988.578 1183.46,928.116 1187.43,868.801 1191.39,810.815 1195.35,824.368 1199.32,838.541 1203.28,851.884 1207.25,864.305 1211.21,875.96 1215.17,816.96 1219.14,758.52 1223.1,702.371 1227.07,648.859 1231.03,598.062 1234.99,620.078 1238.96,643.874 1242.92,667.879 1246.89,691.882 1250.85,715.913 1254.82,669.96 1258.78,625.113 1262.74,582.982 1266.71,543.789 1270.67,507.495 1274.64,544.083 1278.6,582.41 1282.56,620.8 1286.53,658.94 1290.49,696.767 1294.46,664.18 1298.42,632.189 1302.38,602.33 1306.35,574.758 1310.31,549.585 1314.28,526.897 1318.24,506.758 1322.21,489.213 1326.17,474.283 1330.13,461.762 1334.1,521.477 1338.06,582.142 1342.03,641.946 1345.99,700.459 1349.95,757.51 1353.92,742.902 1357.88,727.566 1361.85,712.967 1365.81,699.207 1369.77,686.354 1373.74,674.466 1377.7,663.591 1381.67,653.767 1385.63,645.022 1389.6,637.169 1393.56,700.063 1397.52,762.456 1401.49,822.585 1405.45,880.073 1409.42,934.606 1413.38,985.902 1417.34,1033.72 1421.31,1077.84 1425.27,1118.1 1429.24,1154.56 1433.2,1117.29 1437.16,1077.46 1441.13,1036.79 1445.09,995.645 1449.06,954.143 1453.02,982.439 1456.98,1009.58 1460.95,1034.08 1464.91,1055.86 1468.88,1075.07 1472.84,1021.84 1476.81,967.418 1480.77,913.577 1484.73,860.717 1488.7,808.979 1492.66,828.534 1496.63,848.431 1500.59,867.188 1504.55,884.686 1508.52,900.848 1512.48,915.61 1516.45,928.922 1520.41,940.743 1524.37,951.05 1528.34,960.037 1532.3,897.857 1536.27,835.772 1540.23,775.557 1544.2,717.607 1548.16,662.048 1552.12,679.025 1556.09,697.556 1560.05,716.117 1564.02,734.544 1567.98,752.915 1571.94,701.263 1575.91,650.721 1579.87,602.941 1583.84,558.186 1587.8,516.662 1591.76,478.543 1595.73,443.97 1599.69,413.05 1603.66,385.862 1607.62,362.452 1611.59,342.837 1615.55,327.005 1619.51,314.915 1623.48,306.504 1627.44,301.471 1631.41,369.549 1635.37,439.353 1639.33,508.975 1643.3,577.881 1647.26,645.592 1651.23,711.656 1655.19,775.654 1659.15,837.199 1663.12,895.936 1667.08,951.757 1671.05,934.535 1675.01,915.278 1678.98,895.531 1682.94,875.489 1686.9,855.102 1690.87,904.371 1694.83,952.192 1698.8,996.95 1702.76,1038.42 1706.72,1076.42 1710.69,1110.82 1714.65,1141.51 1718.62,1168.43 1722.58,1191.52 1726.54,1210.99 1730.51,1157.01 1734.47,1100.86 1738.44,1044.38 1742.4,988.026 1746.37,932.205 1750.33,877.31 1754.29,823.708 1758.26,771.741 1762.22,721.726 1766.19,673.743 1770.15,697.897 1774.11,723.167 1778.08,748 1782.04,772.204 1786.01,795.835 1789.97,748.908 1793.93,702.544 1797.9,658.385 1801.86,616.692 1805.83,577.672 1809.79,541.502 1813.76,508.331 1817.72,478.281 1821.68,451.445 1825.65,427.678 1829.61,476.865 1833.58,527.767 1837.54,578.614 1841.5,629.008 1845.47,678.595 1849.43,727.042 1853.4,774.037 1857.36,819.293 1861.32,862.549 1865.29,903.567 1869.25,942.137 1873.22,978.075 1877.18,1011.22 1881.15,1041.45 1885.11,1068.87 1889.07,1023.56 1893.04,976.712 1897,930.064 1900.97,883.978 1904.93,838.563 1908.89,863.96 1912.86,889.196 1916.82,912.768 1920.79,934.547 1924.75,954.444 1928.71,972.391 1932.68,988.335 1936.64,1002.24 1940.61,1014.09 1944.57,1023.89 1948.54,1031.63 1952.5,1037.36 1956.46,1041.11 1960.43,1042.94 1964.39,1043.12 1968.36,971.886 1972.32,900.573 1976.28,831.033 1980.25,763.734 1984.21,698.871 1988.18,706.658 1992.14,716.173 1996.1,725.955 2000.07,735.894 2004.03,746.117 2008,686.704 2011.96,628.831 2015.93,574.184 2019.89,523.059 2023.85,475.688 2027.82,432.267 2031.78,392.952 2035.75,357.864 2039.71,327.089 2043.67,300.674 2047.64,278.634 2051.6,260.952 2055.57,247.578 2059.53,238.432 2063.49,233.198 2067.46,301.588 2071.42,372.194 2075.39,443.079 2079.35,513.684 2083.32,583.498 2087.28,652.037 2091.24,718.848 2095.21,783.509 2099.17,845.63 2103.14,904.859 2107.1,960.876 2111.06,1013.4 2115.03,1062.19 2118.99,1107.04 2122.96,1147.98 2126.92,1115.05 2130.88,1079.4 2134.85,1042.72 2138.81,1005.37 2142.78,967.628 2146.74,929.807 2150.7,892.184 2154.67,855.029 2158.63,818.598 2162.6,783.13 2166.56,748.847 2170.53,715.954 2174.49,684.635 2178.45,655.058 2182.42,627.368 2186.38,601.692 2190.35,578.138 2194.31,556.79 2198.27,537.715 2202.24,520.752 2206.2,575.774 2210.17,631.537 2214.13,686.279 2218.09,739.611 2222.06,791.197 2226.02,840.727 2229.99,887.921 2233.95,932.527 2237.92,974.323 2241.88,1013.32 2245.84,979.523 2249.81,944.039 2253.77,908.526 2257.74,873.272 2261.7,838.529 2265.66,804.532 2269.63,771.5 2273.59,739.639 2277.56,709.135 2281.52,679.949 2285.48,722.076 2289.45,764.398 2293.41,805.272 "/>
<polyline clip-path="url(#clip262)" style="stroke:#3da44d; stroke-linecap:round; stroke-linejoin:round; stroke-width:4; stroke-opacity:1; fill:none" points="315.32,773.407 319.284,773.407 323.248,808.294 327.212,842.155 331.176,874.69 335.141,905.635 339.105,934.76 343.069,892.098 347.033,849.332 350.997,806.951 354.961,765.426 358.925,725.2 362.889,686.682 366.853,650.237 370.818,616.184 374.782,584.788 378.746,556.255 382.71,600.512 386.674,645.815 390.638,691.598 394.602,737.298 398.566,782.368 402.53,826.285 406.495,868.562 410.459,908.753 414.423,946.465 418.387,981.361 422.351,943.391 426.315,904.176 430.279,864.17 434.243,823.831 438.208,783.615 442.172,813.74 446.136,842.797 450.1,870.585 454.064,896.931 458.028,921.692 461.992,874.982 465.956,828.554 469.92,782.957 473.885,738.715 477.849,696.31 481.813,656.177 485.777,618.699 489.741,584.197 493.705,552.928 497.669,525.081 501.633,500.777 505.597,480.063 509.562,462.922 513.526,449.266 517.49,438.948 521.454,501.537 525.418,564.941 529.382,628.263 533.346,690.626 537.31,751.198 541.275,739.425 545.239,726.431 549.203,712.184 553.167,696.683 557.131,679.951 561.095,662.041 565.059,643.03 569.023,623.016 572.987,602.119 576.952,580.475 580.916,628.008 584.88,673.048 588.844,715.167 592.808,754.004 596.772,789.268 600.736,820.746 604.7,848.299 608.664,871.867 612.629,891.467 616.593,907.19 620.557,919.195 624.521,927.709 628.485,933.014 632.449,935.446 636.413,935.383 640.377,933.239 644.341,929.451 648.306,924.473 652.27,918.766 656.234,912.789 660.198,906.988 664.162,901.791 668.126,897.597 672.09,894.77 676.054,893.635 680.019,894.469 683.983,897.5 687.947,902.905 691.911,910.802 695.875,921.256 699.839,934.277 703.803,949.821 707.767,967.792 711.731,988.048 715.696,1010.4 719.66,1034.63 723.624,1060.47 727.588,1087.64 731.552,1115.83 735.516,1144.73 739.48,1104.24 743.444,1065.85 747.408,1029.84 751.373,996.433 755.337,965.803 759.301,938.059 763.265,913.26 767.229,891.407 771.193,872.45 775.157,856.283 779.121,912.532 783.085,969.169 787.05,1025.37 791.014,1080.33 794.978,1133.31 798.942,1113.82 802.906,1093.08 806.87,1071.15 810.834,1048.08 814.798,1024 818.763,1068.79 822.727,1110.76 826.691,1149.48 830.655,1184.57 834.619,1215.76 838.583,1242.83 842.547,1265.67 846.511,1284.23 850.475,1298.58 854.44,1308.82 858.404,1245.38 862.368,1180.37 866.332,1114.7 870.296,1049.29 874.26,985.012 878.224,992.491 882.188,1000.67 886.152,1009.66 890.117,1019.56 894.081,1030.43 898.045,972.531 902.009,917.719 905.973,866.581 909.937,819.62 913.901,777.247 917.865,739.773 921.829,707.408 925.794,680.259 929.758,658.331 933.722,641.53 937.686,699.443 941.65,759.962 945.614,822.138 949.578,885.012 953.542,947.637 957.507,939.32 961.471,931.023 965.435,922.532 969.399,913.649 973.363,904.192 977.327,963.774 981.291,1020.43 985.255,1073.44 989.219,1122.2 993.184,1166.18 997.148,1204.97 1001.11,1238.27 1005.08,1265.89 1009.04,1287.75 1013,1303.9 1016.97,1244.7 1020.93,1182.23 1024.9,1117.44 1028.86,1051.27 1032.82,984.7 1036.79,988.442 1040.75,991.577 1044.72,994.37 1048.68,997.081 1052.65,999.961 1056.61,933.471 1060.57,869.664 1064.54,809.329 1068.5,753.173 1072.47,701.799 1076.43,655.704 1080.39,615.27 1084.36,580.76 1088.32,552.316 1092.29,529.961 1096.25,583.376 1100.21,640.522 1104.18,700.497 1108.14,762.362 1112.11,825.169 1116.07,887.974 1120.04,949.859 1124,1009.95 1127.96,1067.42 1131.93,1121.53 1135.89,1171.62 1139.86,1217.13 1143.82,1257.58 1147.78,1292.64 1151.75,1322.06 1155.71,1345.72 1159.68,1363.62 1163.64,1375.85 1167.6,1382.62 1171.57,1384.24 1175.53,1311.33 1179.5,1236.19 1183.46,1159.97 1187.43,1083.78 1191.39,1008.74 1195.35,1005.65 1199.32,1003.68 1203.28,1003.11 1207.25,1004.19 1211.21,1007.16 1215.17,942.384 1219.14,881.829 1223.1,826.156 1227.07,775.918 1231.03,731.549 1234.99,763.136 1238.96,799.029 1242.92,838.691 1246.89,881.523 1250.85,926.877 1254.82,904.298 1258.78,884.918 1262.74,868.627 1266.71,855.262 1270.67,844.612 1274.64,906.196 1278.6,967.892 1282.56,1028.78 1286.53,1087.99 1290.49,1144.7 1294.46,1128.37 1298.42,1110.19 1302.38,1090.16 1306.35,1068.35 1310.31,1044.85 1314.28,1019.8 1318.24,993.362 1322.21,965.722 1326.17,937.092 1330.13,907.699 1334.1,947.557 1338.06,985.082 1342.03,1019.93 1345.99,1051.81 1349.95,1080.5 1353.92,1036.07 1357.88,990.253 1361.85,943.633 1365.81,896.78 1369.77,850.258 1373.74,804.615 1377.7,760.367 1381.67,717.99 1385.63,677.916 1389.6,640.518 1393.56,675.888 1397.52,712.444 1401.49,749.776 1405.45,787.463 1409.42,825.091 1413.38,862.253 1417.34,898.56 1421.31,933.65 1425.27,967.19 1429.24,998.886 1433.2,958.708 1437.16,918.281 1441.13,878.04 1445.09,838.406 1449.06,799.783 1453.02,832.318 1456.98,864.52 1460.95,896.092 1464.91,926.756 1468.88,956.258 1472.84,914.592 1476.81,873.395 1480.77,833.096 1484.73,794.099 1488.7,756.776 1492.66,791.233 1496.63,825.921 1500.59,860.482 1504.55,894.567 1508.52,927.84 1512.48,959.992 1516.45,990.74 1520.41,1019.83 1524.37,1047.06 1528.34,1072.25 1532.3,1025.49 1536.27,978.522 1540.23,931.905 1544.2,886.168 1548.16,841.811 1552.12,869.076 1556.09,896.547 1560.05,923.996 1564.02,951.197 1567.98,977.932 1571.94,934.22 1575.91,891.705 1579.87,850.81 1583.84,811.921 1587.8,775.375 1591.76,741.455 1595.73,710.392 1599.69,682.353 1603.66,657.448 1607.62,635.721 1611.59,617.161 1615.55,601.695 1619.51,589.196 1623.48,579.484 1627.44,572.336 1631.41,637.261 1635.37,702.13 1639.33,766.021 1643.3,828.057 1647.26,887.418 1651.23,943.36 1655.19,995.223 1659.15,1042.44 1663.12,1084.56 1667.08,1121.23 1671.05,1082.44 1675.01,1039.9 1678.98,994.209 1682.94,945.998 1686.9,895.942 1690.87,914.51 1694.83,930.567 1698.8,944.21 1702.76,955.576 1706.72,964.838 1710.69,972.205 1714.65,977.912 1718.62,982.216 1722.58,985.391 1726.54,987.724 1730.51,919.728 1734.47,853.524 1738.44,789.99 1742.4,729.929 1746.37,674.054 1750.33,622.981 1754.29,577.214 1758.26,537.143 1762.22,503.038 1766.19,475.047 1770.15,522.972 1774.11,574.89 1778.08,630.003 1782.04,687.469 1786.01,746.422 1789.97,736.214 1793.93,727.813 1797.9,720.978 1801.86,715.447 1805.83,710.944 1809.79,707.186 1813.76,703.884 1817.72,700.754 1821.68,697.521 1825.65,693.921 1829.61,759.486 1833.58,822.163 1837.54,881.162 1841.5,935.786 1845.47,985.439 1849.43,1029.64 1853.4,1068.02 1857.36,1100.34 1861.32,1126.48 1865.29,1146.45 1869.25,1160.35 1873.22,1168.43 1877.18,1171.02 1881.15,1168.55 1885.11,1161.54 1889.07,1080.79 1893.04,998.789 1897,916.811 1900.97,836.102 1904.93,757.851 1908.89,752.941 1912.86,750.551 1916.82,750.979 1920.79,754.454 1924.75,761.14 1928.71,771.124 1932.68,784.427 1936.64,800.998 1940.61,820.722 1944.57,843.421 1948.54,868.862 1952.5,896.761 1956.46,926.791 1960.43,958.591 1964.39,991.771 1968.36,956.149 1972.32,923.138 1976.28,892.914 1980.25,865.595 1984.21,841.246 1988.18,889.648 1992.14,938.92 1996.1,988.369 2000.07,1037.31 2004.03,1085.1 2008,1061.33 2011.96,1037.28 2015.93,1013.04 2019.89,988.697 2023.85,964.354 2027.82,940.107 2031.78,916.055 2035.75,892.292 2039.71,868.907 2043.67,845.985 2047.64,823.599 2051.6,801.818 2055.57,780.696 2059.53,760.278 2063.49,740.598 2067.46,791.453 2071.42,841.02 2075.39,888.702 2079.35,933.953 2083.32,976.289 2087.28,1015.29 2091.24,1050.62 2095.21,1082.01 2099.17,1109.28 2103.14,1132.33 2107.1,1151.15 2111.06,1165.81 2115.03,1176.43 2118.99,1183.25 2122.96,1186.54 2126.92,1116.86 2130.88,1046.43 2134.85,976.271 2138.81,907.378 2142.78,840.691 2146.74,777.082 2150.7,717.342 2154.67,662.166 2158.63,612.142 2162.6,567.743 2166.56,529.321 2170.53,497.104 2174.49,471.193 2178.45,451.568 2182.42,438.088 2186.38,430.498 2190.35,428.44 2194.31,431.458 2198.27,439.016 2202.24,450.507 2206.2,535.042 2210.17,620.086 2214.13,704.313 2218.09,786.449 2222.06,865.294 2226.02,939.747 2229.99,1008.82 2233.95,1071.66 2237.92,1127.56 2241.88,1175.95 2245.84,1146.67 2249.81,1111.31 2253.77,1070.41 2257.74,1024.58 2261.7,974.528 2265.66,921.026 2269.63,864.89 2273.59,806.972 2277.56,748.134 2281.52,689.234 2285.48,700.886 2289.45,712.061 2293.41,722.912 "/>
<path clip-path="url(#clip260)" d="M325.87 300.469 L1442.86 300.469 L1442.86 93.1086 L325.87 93.1086  Z" fill="#ffffff" fill-rule="evenodd" fill-opacity="1"/>
<polyline clip-path="url(#clip260)" style="stroke:#000000; stroke-linecap:round; stroke-linejoin:round; stroke-width:4; stroke-opacity:1; fill:none" points="325.87,300.469 1442.86,300.469 1442.86,93.1086 325.87,93.1086 325.87,300.469 "/>
<polyline clip-path="url(#clip260)" style="stroke:#009af9; stroke-linecap:round; stroke-linejoin:round; stroke-width:4; stroke-opacity:1; fill:none" points="349.167,144.949 488.953,144.949 "/>
<path clip-path="url(#clip260)" d="M516.926 131.511 L516.926 158.386 L522.574 158.386 Q529.727 158.386 533.037 155.145 Q536.37 151.905 536.37 144.914 Q536.37 137.969 533.037 134.752 Q529.727 131.511 522.574 131.511 L516.926 131.511 M512.25 127.669 L521.857 127.669 Q531.903 127.669 536.602 131.858 Q541.301 136.025 541.301 144.914 Q541.301 153.849 536.579 158.039 Q531.857 162.229 521.857 162.229 L512.25 162.229 L512.25 127.669 Z" fill="#000000" fill-rule="nonzero" fill-opacity="1" /><path clip-path="url(#clip260)" d="M560.352 149.196 Q555.19 149.196 553.199 150.377 Q551.208 151.557 551.208 154.405 Q551.208 156.673 552.69 158.016 Q554.194 159.335 556.764 159.335 Q560.305 159.335 562.435 156.835 Q564.588 154.312 564.588 150.145 L564.588 149.196 L560.352 149.196 M568.847 147.437 L568.847 162.229 L564.588 162.229 L564.588 158.293 Q563.129 160.655 560.954 161.789 Q558.778 162.9 555.63 162.9 Q551.648 162.9 549.287 160.678 Q546.949 158.432 546.949 154.682 Q546.949 150.307 549.866 148.085 Q552.805 145.863 558.616 145.863 L564.588 145.863 L564.588 145.446 Q564.588 142.507 562.643 140.909 Q560.722 139.289 557.227 139.289 Q555.005 139.289 552.898 139.821 Q550.792 140.354 548.847 141.419 L548.847 137.483 Q551.185 136.581 553.384 136.141 Q555.583 135.678 557.667 135.678 Q563.292 135.678 566.069 138.594 Q568.847 141.511 568.847 147.437 Z" fill="#000000" fill-rule="nonzero" fill-opacity="1" /><path clip-path="url(#clip260)" d="M581.833 128.942 L581.833 136.303 L590.606 136.303 L590.606 139.613 L581.833 139.613 L581.833 153.687 Q581.833 156.858 582.69 157.761 Q583.569 158.664 586.231 158.664 L590.606 158.664 L590.606 162.229 L586.231 162.229 Q581.301 162.229 579.426 160.4 Q577.551 158.548 577.551 153.687 L577.551 139.613 L574.426 139.613 L574.426 136.303 L577.551 136.303 L577.551 128.942 L581.833 128.942 Z" fill="#000000" fill-rule="nonzero" fill-opacity="1" /><path clip-path="url(#clip260)" d="M607.99 149.196 Q602.828 149.196 600.838 150.377 Q598.847 151.557 598.847 154.405 Q598.847 156.673 600.328 158.016 Q601.833 159.335 604.402 159.335 Q607.944 159.335 610.074 156.835 Q612.226 154.312 612.226 150.145 L612.226 149.196 L607.99 149.196 M616.486 147.437 L616.486 162.229 L612.226 162.229 L612.226 158.293 Q610.768 160.655 608.592 161.789 Q606.416 162.9 603.268 162.9 Q599.287 162.9 596.926 160.678 Q594.588 158.432 594.588 154.682 Q594.588 150.307 597.504 148.085 Q600.444 145.863 606.254 145.863 L612.226 145.863 L612.226 145.446 Q612.226 142.507 610.282 140.909 Q608.361 139.289 604.865 139.289 Q602.643 139.289 600.537 139.821 Q598.43 140.354 596.486 141.419 L596.486 137.483 Q598.824 136.581 601.023 136.141 Q603.222 135.678 605.305 135.678 Q610.93 135.678 613.708 138.594 Q616.486 141.511 616.486 147.437 Z" fill="#000000" fill-rule="nonzero" fill-opacity="1" /><polyline clip-path="url(#clip260)" style="stroke:#e26f46; stroke-linecap:round; stroke-linejoin:round; stroke-width:4; stroke-opacity:1; fill:none" points="349.167,196.789 488.953,196.789 "/>
<path clip-path="url(#clip260)" d="M528.083 184.115 L521.741 201.314 L534.449 201.314 L528.083 184.115 M525.445 179.509 L530.745 179.509 L543.917 214.069 L539.056 214.069 L535.907 205.203 L520.329 205.203 L517.181 214.069 L512.25 214.069 L525.445 179.509 Z" fill="#000000" fill-rule="nonzero" fill-opacity="1" /><path clip-path="url(#clip260)" d="M565.352 197.865 Q566.856 198.374 568.268 200.041 Q569.704 201.708 571.139 204.624 L575.884 214.069 L570.861 214.069 L566.44 205.203 Q564.727 201.731 563.106 200.596 Q561.509 199.462 558.731 199.462 L553.639 199.462 L553.639 214.069 L548.963 214.069 L548.963 179.509 L559.518 179.509 Q565.444 179.509 568.361 181.985 Q571.278 184.462 571.278 189.462 Q571.278 192.726 569.75 194.879 Q568.245 197.032 565.352 197.865 M553.639 183.351 L553.639 195.62 L559.518 195.62 Q562.898 195.62 564.611 194.069 Q566.347 192.495 566.347 189.462 Q566.347 186.43 564.611 184.902 Q562.898 183.351 559.518 183.351 L553.639 183.351 Z" fill="#000000" fill-rule="nonzero" fill-opacity="1" /><path clip-path="url(#clip260)" d="M580.236 179.509 L585.259 179.509 L593.847 192.356 L602.481 179.509 L607.504 179.509 L596.393 196.106 L608.245 214.069 L603.222 214.069 L593.5 199.37 L583.708 214.069 L578.662 214.069 L591 195.62 L580.236 179.509 Z" fill="#000000" fill-rule="nonzero" fill-opacity="1" /><path clip-path="url(#clip260)" d="M649.448 193.12 Q651.046 190.249 653.268 188.884 Q655.49 187.518 658.499 187.518 Q662.55 187.518 664.749 190.365 Q666.948 193.189 666.948 198.421 L666.948 214.069 L662.666 214.069 L662.666 198.559 Q662.666 194.833 661.347 193.027 Q660.027 191.222 657.319 191.222 Q654.009 191.222 652.087 193.421 Q650.166 195.62 650.166 199.416 L650.166 214.069 L645.884 214.069 L645.884 198.559 Q645.884 194.809 644.564 193.027 Q643.245 191.222 640.49 191.222 Q637.226 191.222 635.305 193.444 Q633.384 195.643 633.384 199.416 L633.384 214.069 L629.101 214.069 L629.101 188.143 L633.384 188.143 L633.384 192.171 Q634.842 189.786 636.879 188.652 Q638.916 187.518 641.717 187.518 Q644.541 187.518 646.509 188.953 Q648.499 190.388 649.448 193.12 Z" fill="#000000" fill-rule="nonzero" fill-opacity="1" /><path clip-path="url(#clip260)" d="M685.49 191.129 Q682.064 191.129 680.073 193.814 Q678.083 196.476 678.083 201.129 Q678.083 205.782 680.05 208.467 Q682.041 211.129 685.49 211.129 Q688.893 211.129 690.883 208.444 Q692.874 205.758 692.874 201.129 Q692.874 196.522 690.883 193.837 Q688.893 191.129 685.49 191.129 M685.49 187.518 Q691.045 187.518 694.217 191.129 Q697.388 194.74 697.388 201.129 Q697.388 207.495 694.217 211.129 Q691.045 214.74 685.49 214.74 Q679.911 214.74 676.74 211.129 Q673.592 207.495 673.592 201.129 Q673.592 194.74 676.74 191.129 Q679.911 187.518 685.49 187.518 Z" fill="#000000" fill-rule="nonzero" fill-opacity="1" /><path clip-path="url(#clip260)" d="M721.508 192.078 L721.508 178.05 L725.768 178.05 L725.768 214.069 L721.508 214.069 L721.508 210.18 Q720.166 212.495 718.106 213.629 Q716.068 214.74 713.198 214.74 Q708.499 214.74 705.536 210.99 Q702.596 207.24 702.596 201.129 Q702.596 195.018 705.536 191.268 Q708.499 187.518 713.198 187.518 Q716.068 187.518 718.106 188.652 Q720.166 189.763 721.508 192.078 M706.994 201.129 Q706.994 205.828 708.916 208.513 Q710.86 211.175 714.24 211.175 Q717.619 211.175 719.564 208.513 Q721.508 205.828 721.508 201.129 Q721.508 196.43 719.564 193.768 Q717.619 191.083 714.24 191.083 Q710.86 191.083 708.916 193.768 Q706.994 196.43 706.994 201.129 Z" fill="#000000" fill-rule="nonzero" fill-opacity="1" /><path clip-path="url(#clip260)" d="M756.716 200.041 L756.716 202.124 L737.133 202.124 Q737.411 206.522 739.772 208.837 Q742.156 211.129 746.392 211.129 Q748.846 211.129 751.138 210.527 Q753.453 209.925 755.721 208.721 L755.721 212.749 Q753.429 213.721 751.022 214.231 Q748.615 214.74 746.138 214.74 Q739.934 214.74 736.3 211.129 Q732.689 207.518 732.689 201.36 Q732.689 194.995 736.115 191.268 Q739.564 187.518 745.397 187.518 Q750.628 187.518 753.661 190.897 Q756.716 194.254 756.716 200.041 M752.457 198.791 Q752.411 195.296 750.49 193.212 Q748.591 191.129 745.443 191.129 Q741.879 191.129 739.726 193.143 Q737.596 195.157 737.272 198.814 L752.457 198.791 Z" fill="#000000" fill-rule="nonzero" fill-opacity="1" /><path clip-path="url(#clip260)" d="M763.707 178.05 L767.966 178.05 L767.966 214.069 L763.707 214.069 L763.707 178.05 Z" fill="#000000" fill-rule="nonzero" fill-opacity="1" /><path clip-path="url(#clip260)" d="M808.475 188.907 L808.475 192.934 Q806.67 192.009 804.725 191.546 Q802.781 191.083 800.698 191.083 Q797.526 191.083 795.929 192.055 Q794.355 193.027 794.355 194.971 Q794.355 196.453 795.489 197.309 Q796.624 198.143 800.05 198.907 L801.508 199.231 Q806.045 200.203 807.943 201.985 Q809.864 203.745 809.864 206.916 Q809.864 210.527 806.994 212.633 Q804.147 214.74 799.147 214.74 Q797.063 214.74 794.795 214.323 Q792.55 213.93 790.05 213.12 L790.05 208.721 Q792.411 209.948 794.702 210.573 Q796.994 211.175 799.239 211.175 Q802.249 211.175 803.869 210.157 Q805.489 209.115 805.489 207.24 Q805.489 205.504 804.309 204.578 Q803.151 203.652 799.193 202.796 L797.712 202.448 Q793.753 201.615 791.994 199.902 Q790.235 198.166 790.235 195.157 Q790.235 191.499 792.827 189.509 Q795.42 187.518 800.188 187.518 Q802.55 187.518 804.633 187.865 Q806.716 188.212 808.475 188.907 Z" fill="#000000" fill-rule="nonzero" fill-opacity="1" /><path clip-path="url(#clip260)" d="M816.647 188.143 L820.906 188.143 L820.906 214.069 L816.647 214.069 L816.647 188.143 M816.647 178.05 L820.906 178.05 L820.906 183.444 L816.647 183.444 L816.647 178.05 Z" fill="#000000" fill-rule="nonzero" fill-opacity="1" /><path clip-path="url(#clip260)" d="M850.003 193.12 Q851.6 190.249 853.822 188.884 Q856.045 187.518 859.054 187.518 Q863.105 187.518 865.304 190.365 Q867.503 193.189 867.503 198.421 L867.503 214.069 L863.22 214.069 L863.22 198.559 Q863.22 194.833 861.901 193.027 Q860.582 191.222 857.873 191.222 Q854.563 191.222 852.642 193.421 Q850.721 195.62 850.721 199.416 L850.721 214.069 L846.438 214.069 L846.438 198.559 Q846.438 194.809 845.119 193.027 Q843.799 191.222 841.045 191.222 Q837.781 191.222 835.86 193.444 Q833.938 195.643 833.938 199.416 L833.938 214.069 L829.656 214.069 L829.656 188.143 L833.938 188.143 L833.938 192.171 Q835.397 189.786 837.434 188.652 Q839.471 187.518 842.272 187.518 Q845.096 187.518 847.063 188.953 Q849.054 190.388 850.003 193.12 Z" fill="#000000" fill-rule="nonzero" fill-opacity="1" /><path clip-path="url(#clip260)" d="M904.192 178.05 L904.192 181.592 L900.118 181.592 Q897.827 181.592 896.924 182.518 Q896.044 183.444 896.044 185.851 L896.044 188.143 L903.058 188.143 L903.058 191.453 L896.044 191.453 L896.044 214.069 L891.762 214.069 L891.762 191.453 L887.688 191.453 L887.688 188.143 L891.762 188.143 L891.762 186.337 Q891.762 182.009 893.776 180.041 Q895.79 178.05 900.165 178.05 L904.192 178.05 Z" fill="#000000" fill-rule="nonzero" fill-opacity="1" /><path clip-path="url(#clip260)" d="M907.757 188.143 L912.017 188.143 L912.017 214.069 L907.757 214.069 L907.757 188.143 M907.757 178.05 L912.017 178.05 L912.017 183.444 L907.757 183.444 L907.757 178.05 Z" fill="#000000" fill-rule="nonzero" fill-opacity="1" /><path clip-path="url(#clip260)" d="M925.141 180.782 L925.141 188.143 L933.915 188.143 L933.915 191.453 L925.141 191.453 L925.141 205.527 Q925.141 208.698 925.998 209.601 Q926.878 210.504 929.54 210.504 L933.915 210.504 L933.915 214.069 L929.54 214.069 Q924.609 214.069 922.734 212.24 Q920.859 210.388 920.859 205.527 L920.859 191.453 L917.734 191.453 L917.734 188.143 L920.859 188.143 L920.859 180.782 L925.141 180.782 Z" fill="#000000" fill-rule="nonzero" fill-opacity="1" /><path clip-path="url(#clip260)" d="M970.743 208.189 L975.627 208.189 L975.627 214.069 L970.743 214.069 L970.743 208.189 M970.743 189.555 L975.627 189.555 L975.627 195.434 L970.743 195.434 L970.743 189.555 Z" fill="#000000" fill-rule="nonzero" fill-opacity="1" /><path clip-path="url(#clip260)" d="M983.474 199.184 L995.951 199.184 L995.951 202.981 L983.474 202.981 L983.474 199.184 Z" fill="#000000" fill-rule="nonzero" fill-opacity="1" /><path clip-path="url(#clip260)" d="M1016.18 183.583 L1004.38 202.032 L1016.18 202.032 L1016.18 183.583 M1014.96 179.509 L1020.84 179.509 L1020.84 202.032 L1025.77 202.032 L1025.77 205.921 L1020.84 205.921 L1020.84 214.069 L1016.18 214.069 L1016.18 205.921 L1000.58 205.921 L1000.58 201.407 L1014.96 179.509 Z" fill="#000000" fill-rule="nonzero" fill-opacity="1" /><path clip-path="url(#clip260)" d="M1037.53 210.133 L1053.84 210.133 L1053.84 214.069 L1031.9 214.069 L1031.9 210.133 Q1034.56 207.379 1039.15 202.749 Q1043.75 198.096 1044.93 196.754 Q1047.18 194.231 1048.06 192.495 Q1048.96 190.735 1048.96 189.046 Q1048.96 186.291 1047.02 184.555 Q1045.09 182.819 1041.99 182.819 Q1039.79 182.819 1037.34 183.583 Q1034.91 184.347 1032.13 185.897 L1032.13 181.175 Q1034.96 180.041 1037.41 179.462 Q1039.86 178.884 1041.9 178.884 Q1047.27 178.884 1050.46 181.569 Q1053.66 184.254 1053.66 188.745 Q1053.66 190.874 1052.85 192.796 Q1052.06 194.694 1049.96 197.286 Q1049.38 197.958 1046.28 201.175 Q1043.17 204.37 1037.53 210.133 Z" fill="#000000" fill-rule="nonzero" fill-opacity="1" /><path clip-path="url(#clip260)" d="M1063.66 208.189 L1068.54 208.189 L1068.54 214.069 L1063.66 214.069 L1063.66 208.189 Z" fill="#000000" fill-rule="nonzero" fill-opacity="1" /><path clip-path="url(#clip260)" d="M1079.54 210.133 L1087.18 210.133 L1087.18 183.768 L1078.87 185.435 L1078.87 181.175 L1087.13 179.509 L1091.81 179.509 L1091.81 210.133 L1099.45 210.133 L1099.45 214.069 L1079.54 214.069 L1079.54 210.133 Z" fill="#000000" fill-rule="nonzero" fill-opacity="1" /><path clip-path="url(#clip260)" d="M1118.89 197.657 Q1115.56 197.657 1113.64 199.439 Q1111.74 201.221 1111.74 204.346 Q1111.74 207.471 1113.64 209.254 Q1115.56 211.036 1118.89 211.036 Q1122.22 211.036 1124.15 209.254 Q1126.07 207.448 1126.07 204.346 Q1126.07 201.221 1124.15 199.439 Q1122.25 197.657 1118.89 197.657 M1114.21 195.666 Q1111.21 194.925 1109.52 192.865 Q1107.85 190.805 1107.85 187.842 Q1107.85 183.698 1110.79 181.291 Q1113.75 178.884 1118.89 178.884 Q1124.05 178.884 1126.99 181.291 Q1129.93 183.698 1129.93 187.842 Q1129.93 190.805 1128.24 192.865 Q1126.58 194.925 1123.59 195.666 Q1126.97 196.453 1128.84 198.745 Q1130.74 201.036 1130.74 204.346 Q1130.74 209.37 1127.66 212.055 Q1124.61 214.74 1118.89 214.74 Q1113.17 214.74 1110.09 212.055 Q1107.04 209.37 1107.04 204.346 Q1107.04 201.036 1108.94 198.745 Q1110.83 196.453 1114.21 195.666 M1112.5 188.282 Q1112.5 190.967 1114.17 192.472 Q1115.86 193.976 1118.89 193.976 Q1121.9 193.976 1123.59 192.472 Q1125.3 190.967 1125.3 188.282 Q1125.3 185.597 1123.59 184.092 Q1121.9 182.587 1118.89 182.587 Q1115.86 182.587 1114.17 184.092 Q1112.5 185.597 1112.5 188.282 Z" fill="#000000" fill-rule="nonzero" fill-opacity="1" /><path clip-path="url(#clip260)" d="M1168.45 198.86 Q1166.44 198.86 1165.28 200.573 Q1164.14 202.286 1164.14 205.342 Q1164.14 208.351 1165.28 210.087 Q1166.44 211.8 1168.45 211.8 Q1170.42 211.8 1171.55 210.087 Q1172.71 208.351 1172.71 205.342 Q1172.71 202.309 1171.55 200.596 Q1170.42 198.86 1168.45 198.86 M1168.45 195.921 Q1172.11 195.921 1174.26 198.467 Q1176.41 201.013 1176.41 205.342 Q1176.41 209.67 1174.24 212.217 Q1172.08 214.74 1168.45 214.74 Q1164.75 214.74 1162.59 212.217 Q1160.44 209.67 1160.44 205.342 Q1160.44 200.99 1162.59 198.467 Q1164.77 195.921 1168.45 195.921 M1144.56 181.823 Q1142.57 181.823 1141.41 183.56 Q1140.28 185.272 1140.28 188.282 Q1140.28 191.337 1141.41 193.05 Q1142.55 194.763 1144.56 194.763 Q1146.58 194.763 1147.71 193.05 Q1148.87 191.337 1148.87 188.282 Q1148.87 185.296 1147.71 183.56 Q1146.55 181.823 1144.56 181.823 M1165.46 178.884 L1169.17 178.884 L1147.55 214.74 L1143.84 214.74 L1165.46 178.884 M1144.56 178.884 Q1148.22 178.884 1150.39 181.43 Q1152.57 183.953 1152.57 188.282 Q1152.57 192.657 1150.39 195.18 Q1148.24 197.703 1144.56 197.703 Q1140.88 197.703 1138.73 195.18 Q1136.6 192.634 1136.6 188.282 Q1136.6 183.976 1138.75 181.43 Q1140.9 178.884 1144.56 178.884 Z" fill="#000000" fill-rule="nonzero" fill-opacity="1" /><polyline clip-path="url(#clip260)" style="stroke:#3da44d; stroke-linecap:round; stroke-linejoin:round; stroke-width:4; stroke-opacity:1; fill:none" points="349.167,248.629 488.953,248.629 "/>
<path clip-path="url(#clip260)" d="M528.083 235.955 L521.741 253.154 L534.449 253.154 L528.083 235.955 M525.445 231.349 L530.745 231.349 L543.917 265.909 L539.056 265.909 L535.907 257.043 L520.329 257.043 L517.181 265.909 L512.25 265.909 L525.445 231.349 Z" fill="#000000" fill-rule="nonzero" fill-opacity="1" /><path clip-path="url(#clip260)" d="M565.352 249.705 Q566.856 250.214 568.268 251.881 Q569.704 253.548 571.139 256.464 L575.884 265.909 L570.861 265.909 L566.44 257.043 Q564.727 253.571 563.106 252.436 Q561.509 251.302 558.731 251.302 L553.639 251.302 L553.639 265.909 L548.963 265.909 L548.963 231.349 L559.518 231.349 Q565.444 231.349 568.361 233.825 Q571.278 236.302 571.278 241.302 Q571.278 244.566 569.75 246.719 Q568.245 248.872 565.352 249.705 M553.639 235.191 L553.639 247.46 L559.518 247.46 Q562.898 247.46 564.611 245.909 Q566.347 244.335 566.347 241.302 Q566.347 238.27 564.611 236.742 Q562.898 235.191 559.518 235.191 L553.639 235.191 Z" fill="#000000" fill-rule="nonzero" fill-opacity="1" /><path clip-path="url(#clip260)" d="M580.236 231.349 L585.259 231.349 L593.847 244.196 L602.481 231.349 L607.504 231.349 L596.393 247.946 L608.245 265.909 L603.222 265.909 L593.5 251.21 L583.708 265.909 L578.662 265.909 L591 247.46 L580.236 231.349 Z" fill="#000000" fill-rule="nonzero" fill-opacity="1" /><path clip-path="url(#clip260)" d="M649.448 244.96 Q651.046 242.089 653.268 240.724 Q655.49 239.358 658.499 239.358 Q662.55 239.358 664.749 242.205 Q666.948 245.029 666.948 250.261 L666.948 265.909 L662.666 265.909 L662.666 250.399 Q662.666 246.673 661.347 244.867 Q660.027 243.062 657.319 243.062 Q654.009 243.062 652.087 245.261 Q650.166 247.46 650.166 251.256 L650.166 265.909 L645.884 265.909 L645.884 250.399 Q645.884 246.649 644.564 244.867 Q643.245 243.062 640.49 243.062 Q637.226 243.062 635.305 245.284 Q633.384 247.483 633.384 251.256 L633.384 265.909 L629.101 265.909 L629.101 239.983 L633.384 239.983 L633.384 244.011 Q634.842 241.626 636.879 240.492 Q638.916 239.358 641.717 239.358 Q644.541 239.358 646.509 240.793 Q648.499 242.228 649.448 244.96 Z" fill="#000000" fill-rule="nonzero" fill-opacity="1" /><path clip-path="url(#clip260)" d="M685.49 242.969 Q682.064 242.969 680.073 245.654 Q678.083 248.316 678.083 252.969 Q678.083 257.622 680.05 260.307 Q682.041 262.969 685.49 262.969 Q688.893 262.969 690.883 260.284 Q692.874 257.598 692.874 252.969 Q692.874 248.362 690.883 245.677 Q688.893 242.969 685.49 242.969 M685.49 239.358 Q691.045 239.358 694.217 242.969 Q697.388 246.58 697.388 252.969 Q697.388 259.335 694.217 262.969 Q691.045 266.58 685.49 266.58 Q679.911 266.58 676.74 262.969 Q673.592 259.335 673.592 252.969 Q673.592 246.58 676.74 242.969 Q679.911 239.358 685.49 239.358 Z" fill="#000000" fill-rule="nonzero" fill-opacity="1" /><path clip-path="url(#clip260)" d="M721.508 243.918 L721.508 229.89 L725.768 229.89 L725.768 265.909 L721.508 265.909 L721.508 262.02 Q720.166 264.335 718.106 265.469 Q716.068 266.58 713.198 266.58 Q708.499 266.58 705.536 262.83 Q702.596 259.08 702.596 252.969 Q702.596 246.858 705.536 243.108 Q708.499 239.358 713.198 239.358 Q716.068 239.358 718.106 240.492 Q720.166 241.603 721.508 243.918 M706.994 252.969 Q706.994 257.668 708.916 260.353 Q710.86 263.015 714.24 263.015 Q717.619 263.015 719.564 260.353 Q721.508 257.668 721.508 252.969 Q721.508 248.27 719.564 245.608 Q717.619 242.923 714.24 242.923 Q710.86 242.923 708.916 245.608 Q706.994 248.27 706.994 252.969 Z" fill="#000000" fill-rule="nonzero" fill-opacity="1" /><path clip-path="url(#clip260)" d="M756.716 251.881 L756.716 253.964 L737.133 253.964 Q737.411 258.362 739.772 260.677 Q742.156 262.969 746.392 262.969 Q748.846 262.969 751.138 262.367 Q753.453 261.765 755.721 260.561 L755.721 264.589 Q753.429 265.561 751.022 266.071 Q748.615 266.58 746.138 266.58 Q739.934 266.58 736.3 262.969 Q732.689 259.358 732.689 253.2 Q732.689 246.835 736.115 243.108 Q739.564 239.358 745.397 239.358 Q750.628 239.358 753.661 242.737 Q756.716 246.094 756.716 251.881 M752.457 250.631 Q752.411 247.136 750.49 245.052 Q748.591 242.969 745.443 242.969 Q741.879 242.969 739.726 244.983 Q737.596 246.997 737.272 250.654 L752.457 250.631 Z" fill="#000000" fill-rule="nonzero" fill-opacity="1" /><path clip-path="url(#clip260)" d="M763.707 229.89 L767.966 229.89 L767.966 265.909 L763.707 265.909 L763.707 229.89 Z" fill="#000000" fill-rule="nonzero" fill-opacity="1" /><path clip-path="url(#clip260)" d="M789.471 239.983 L793.73 239.983 L799.054 260.214 L804.355 239.983 L809.378 239.983 L814.702 260.214 L820.003 239.983 L824.262 239.983 L817.48 265.909 L812.457 265.909 L806.878 244.659 L801.276 265.909 L796.253 265.909 L789.471 239.983 Z" fill="#000000" fill-rule="nonzero" fill-opacity="1" /><path clip-path="url(#clip260)" d="M830.721 239.983 L834.98 239.983 L834.98 265.909 L830.721 265.909 L830.721 239.983 M830.721 229.89 L834.98 229.89 L834.98 235.284 L830.721 235.284 L830.721 229.89 Z" fill="#000000" fill-rule="nonzero" fill-opacity="1" /><path clip-path="url(#clip260)" d="M848.105 232.622 L848.105 239.983 L856.878 239.983 L856.878 243.293 L848.105 243.293 L848.105 257.367 Q848.105 260.538 848.961 261.441 Q849.841 262.344 852.503 262.344 L856.878 262.344 L856.878 265.909 L852.503 265.909 Q847.572 265.909 845.697 264.08 Q843.822 262.228 843.822 257.367 L843.822 243.293 L840.697 243.293 L840.697 239.983 L843.822 239.983 L843.822 232.622 L848.105 232.622 Z" fill="#000000" fill-rule="nonzero" fill-opacity="1" /><path clip-path="url(#clip260)" d="M884.031 250.261 L884.031 265.909 L879.771 265.909 L879.771 250.399 Q879.771 246.719 878.336 244.89 Q876.901 243.062 874.031 243.062 Q870.582 243.062 868.591 245.261 Q866.6 247.46 866.6 251.256 L866.6 265.909 L862.318 265.909 L862.318 229.89 L866.6 229.89 L866.6 244.011 Q868.128 241.673 870.188 240.515 Q872.271 239.358 874.98 239.358 Q879.447 239.358 881.739 242.136 Q884.031 244.89 884.031 250.261 Z" fill="#000000" fill-rule="nonzero" fill-opacity="1" /><path clip-path="url(#clip260)" d="M924.655 243.918 L924.655 229.89 L928.915 229.89 L928.915 265.909 L924.655 265.909 L924.655 262.02 Q923.313 264.335 921.253 265.469 Q919.216 266.58 916.345 266.58 Q911.646 266.58 908.683 262.83 Q905.743 259.08 905.743 252.969 Q905.743 246.858 908.683 243.108 Q911.646 239.358 916.345 239.358 Q919.216 239.358 921.253 240.492 Q923.313 241.603 924.655 243.918 M910.142 252.969 Q910.142 257.668 912.063 260.353 Q914.007 263.015 917.387 263.015 Q920.766 263.015 922.711 260.353 Q924.655 257.668 924.655 252.969 Q924.655 248.27 922.711 245.608 Q920.766 242.923 917.387 242.923 Q914.007 242.923 912.063 245.608 Q910.142 248.27 910.142 252.969 Z" fill="#000000" fill-rule="nonzero" fill-opacity="1" /><path clip-path="url(#clip260)" d="M959.863 251.881 L959.863 253.964 L940.28 253.964 Q940.558 258.362 942.919 260.677 Q945.303 262.969 949.539 262.969 Q951.993 262.969 954.285 262.367 Q956.6 261.765 958.868 260.561 L958.868 264.589 Q956.576 265.561 954.169 266.071 Q951.762 266.58 949.285 266.58 Q943.081 266.58 939.447 262.969 Q935.836 259.358 935.836 253.2 Q935.836 246.835 939.262 243.108 Q942.711 239.358 948.544 239.358 Q953.776 239.358 956.808 242.737 Q959.863 246.094 959.863 251.881 M955.604 250.631 Q955.558 247.136 953.637 245.052 Q951.739 242.969 948.59 242.969 Q945.026 242.969 942.873 244.983 Q940.743 246.997 940.419 250.654 L955.604 250.631 Z" fill="#000000" fill-rule="nonzero" fill-opacity="1" /><path clip-path="url(#clip260)" d="M966.854 229.89 L971.113 229.89 L971.113 265.909 L966.854 265.909 L966.854 229.89 Z" fill="#000000" fill-rule="nonzero" fill-opacity="1" /><path clip-path="url(#clip260)" d="M991.808 252.876 Q986.646 252.876 984.655 254.057 Q982.664 255.237 982.664 258.085 Q982.664 260.353 984.146 261.696 Q985.65 263.015 988.22 263.015 Q991.761 263.015 993.891 260.515 Q996.044 257.992 996.044 253.825 L996.044 252.876 L991.808 252.876 M1000.3 251.117 L1000.3 265.909 L996.044 265.909 L996.044 261.973 Q994.586 264.335 992.41 265.469 Q990.234 266.58 987.086 266.58 Q983.104 266.58 980.743 264.358 Q978.405 262.112 978.405 258.362 Q978.405 253.987 981.322 251.765 Q984.261 249.543 990.072 249.543 L996.044 249.543 L996.044 249.126 Q996.044 246.187 994.099 244.589 Q992.178 242.969 988.683 242.969 Q986.461 242.969 984.354 243.501 Q982.248 244.034 980.303 245.099 L980.303 241.163 Q982.641 240.261 984.84 239.821 Q987.039 239.358 989.123 239.358 Q994.748 239.358 997.525 242.274 Q1000.3 245.191 1000.3 251.117 Z" fill="#000000" fill-rule="nonzero" fill-opacity="1" /><path clip-path="url(#clip260)" d="M1019.86 268.316 Q1018.06 272.946 1016.34 274.358 Q1014.63 275.77 1011.76 275.77 L1008.36 275.77 L1008.36 272.205 L1010.86 272.205 Q1012.62 272.205 1013.59 271.372 Q1014.56 270.538 1015.74 267.436 L1016.51 265.492 L1006.02 239.983 L1010.53 239.983 L1018.64 260.261 L1026.74 239.983 L1031.25 239.983 L1019.86 268.316 Z" fill="#000000" fill-rule="nonzero" fill-opacity="1" /><path clip-path="url(#clip260)" d="M1068.73 240.747 L1068.73 244.774 Q1066.92 243.849 1064.98 243.386 Q1063.03 242.923 1060.95 242.923 Q1057.78 242.923 1056.18 243.895 Q1054.61 244.867 1054.61 246.811 Q1054.61 248.293 1055.74 249.149 Q1056.88 249.983 1060.3 250.747 L1061.76 251.071 Q1066.3 252.043 1068.2 253.825 Q1070.12 255.585 1070.12 258.756 Q1070.12 262.367 1067.25 264.473 Q1064.4 266.58 1059.4 266.58 Q1057.32 266.58 1055.05 266.163 Q1052.8 265.77 1050.3 264.96 L1050.3 260.561 Q1052.66 261.788 1054.96 262.413 Q1057.25 263.015 1059.49 263.015 Q1062.5 263.015 1064.12 261.997 Q1065.74 260.955 1065.74 259.08 Q1065.74 257.344 1064.56 256.418 Q1063.4 255.492 1059.45 254.636 L1057.96 254.288 Q1054.01 253.455 1052.25 251.742 Q1050.49 250.006 1050.49 246.997 Q1050.49 243.339 1053.08 241.349 Q1055.67 239.358 1060.44 239.358 Q1062.8 239.358 1064.89 239.705 Q1066.97 240.052 1068.73 240.747 Z" fill="#000000" fill-rule="nonzero" fill-opacity="1" /><path clip-path="url(#clip260)" d="M1076.9 239.983 L1081.16 239.983 L1081.16 265.909 L1076.9 265.909 L1076.9 239.983 M1076.9 229.89 L1081.16 229.89 L1081.16 235.284 L1076.9 235.284 L1076.9 229.89 Z" fill="#000000" fill-rule="nonzero" fill-opacity="1" /><path clip-path="url(#clip260)" d="M1110.26 244.96 Q1111.85 242.089 1114.08 240.724 Q1116.3 239.358 1119.31 239.358 Q1123.36 239.358 1125.56 242.205 Q1127.76 245.029 1127.76 250.261 L1127.76 265.909 L1123.47 265.909 L1123.47 250.399 Q1123.47 246.673 1122.15 244.867 Q1120.83 243.062 1118.13 243.062 Q1114.82 243.062 1112.9 245.261 Q1110.97 247.46 1110.97 251.256 L1110.97 265.909 L1106.69 265.909 L1106.69 250.399 Q1106.69 246.649 1105.37 244.867 Q1104.05 243.062 1101.3 243.062 Q1098.03 243.062 1096.11 245.284 Q1094.19 247.483 1094.19 251.256 L1094.19 265.909 L1089.91 265.909 L1089.91 239.983 L1094.19 239.983 L1094.19 244.011 Q1095.65 241.626 1097.69 240.492 Q1099.72 239.358 1102.52 239.358 Q1105.35 239.358 1107.32 240.793 Q1109.31 242.228 1110.26 244.96 Z" fill="#000000" fill-rule="nonzero" fill-opacity="1" /><path clip-path="url(#clip260)" d="M1164.45 229.89 L1164.45 233.432 L1160.37 233.432 Q1158.08 233.432 1157.18 234.358 Q1156.3 235.284 1156.3 237.691 L1156.3 239.983 L1163.31 239.983 L1163.31 243.293 L1156.3 243.293 L1156.3 265.909 L1152.02 265.909 L1152.02 243.293 L1147.94 243.293 L1147.94 239.983 L1152.02 239.983 L1152.02 238.177 Q1152.02 233.849 1154.03 231.881 Q1156.04 229.89 1160.42 229.89 L1164.45 229.89 Z" fill="#000000" fill-rule="nonzero" fill-opacity="1" /><path clip-path="url(#clip260)" d="M1168.01 239.983 L1172.27 239.983 L1172.27 265.909 L1168.01 265.909 L1168.01 239.983 M1168.01 229.89 L1172.27 229.89 L1172.27 235.284 L1168.01 235.284 L1168.01 229.89 Z" fill="#000000" fill-rule="nonzero" fill-opacity="1" /><path clip-path="url(#clip260)" d="M1185.39 232.622 L1185.39 239.983 L1194.17 239.983 L1194.17 243.293 L1185.39 243.293 L1185.39 257.367 Q1185.39 260.538 1186.25 261.441 Q1187.13 262.344 1189.79 262.344 L1194.17 262.344 L1194.17 265.909 L1189.79 265.909 Q1184.86 265.909 1182.99 264.08 Q1181.11 262.228 1181.11 257.367 L1181.11 243.293 L1177.99 243.293 L1177.99 239.983 L1181.11 239.983 L1181.11 232.622 L1185.39 232.622 Z" fill="#000000" fill-rule="nonzero" fill-opacity="1" /><path clip-path="url(#clip260)" d="M1231 260.029 L1235.88 260.029 L1235.88 265.909 L1231 265.909 L1231 260.029 M1231 241.395 L1235.88 241.395 L1235.88 247.274 L1231 247.274 L1231 241.395 Z" fill="#000000" fill-rule="nonzero" fill-opacity="1" /><path clip-path="url(#clip260)" d="M1247.29 261.973 L1254.93 261.973 L1254.93 235.608 L1246.62 237.275 L1246.62 233.015 L1254.89 231.349 L1259.56 231.349 L1259.56 261.973 L1267.2 261.973 L1267.2 265.909 L1247.29 265.909 L1247.29 261.973 Z" fill="#000000" fill-rule="nonzero" fill-opacity="1" /><path clip-path="url(#clip260)" d="M1286.64 234.427 Q1283.03 234.427 1281.2 237.992 Q1279.4 241.534 1279.4 248.663 Q1279.4 255.77 1281.2 259.335 Q1283.03 262.876 1286.64 262.876 Q1290.28 262.876 1292.08 259.335 Q1293.91 255.77 1293.91 248.663 Q1293.91 241.534 1292.08 237.992 Q1290.28 234.427 1286.64 234.427 M1286.64 230.724 Q1292.45 230.724 1295.51 235.33 Q1298.59 239.913 1298.59 248.663 Q1298.59 257.39 1295.51 261.997 Q1292.45 266.58 1286.64 266.58 Q1280.83 266.58 1277.76 261.997 Q1274.7 257.39 1274.7 248.663 Q1274.7 239.913 1277.76 235.33 Q1280.83 230.724 1286.64 230.724 Z" fill="#000000" fill-rule="nonzero" fill-opacity="1" /><path clip-path="url(#clip260)" d="M1316.81 234.427 Q1313.19 234.427 1311.37 237.992 Q1309.56 241.534 1309.56 248.663 Q1309.56 255.77 1311.37 259.335 Q1313.19 262.876 1316.81 262.876 Q1320.44 262.876 1322.25 259.335 Q1324.07 255.77 1324.07 248.663 Q1324.07 241.534 1322.25 237.992 Q1320.44 234.427 1316.81 234.427 M1316.81 230.724 Q1322.62 230.724 1325.67 235.33 Q1328.75 239.913 1328.75 248.663 Q1328.75 257.39 1325.67 261.997 Q1322.62 266.58 1316.81 266.58 Q1311 266.58 1307.92 261.997 Q1304.86 257.39 1304.86 248.663 Q1304.86 239.913 1307.92 235.33 Q1311 230.724 1316.81 230.724 Z" fill="#000000" fill-rule="nonzero" fill-opacity="1" /><path clip-path="url(#clip260)" d="M1336.97 260.029 L1341.85 260.029 L1341.85 265.909 L1336.97 265.909 L1336.97 260.029 Z" fill="#000000" fill-rule="nonzero" fill-opacity="1" /><path clip-path="url(#clip260)" d="M1362.04 234.427 Q1358.43 234.427 1356.6 237.992 Q1354.79 241.534 1354.79 248.663 Q1354.79 255.77 1356.6 259.335 Q1358.43 262.876 1362.04 262.876 Q1365.67 262.876 1367.48 259.335 Q1369.31 255.77 1369.31 248.663 Q1369.31 241.534 1367.48 237.992 Q1365.67 234.427 1362.04 234.427 M1362.04 230.724 Q1367.85 230.724 1370.9 235.33 Q1373.98 239.913 1373.98 248.663 Q1373.98 257.39 1370.9 261.997 Q1367.85 266.58 1362.04 266.58 Q1356.23 266.58 1353.15 261.997 Q1350.09 257.39 1350.09 248.663 Q1350.09 239.913 1353.15 235.33 Q1356.23 230.724 1362.04 230.724 Z" fill="#000000" fill-rule="nonzero" fill-opacity="1" /><path clip-path="url(#clip260)" d="M1411.6 250.7 Q1409.58 250.7 1408.43 252.413 Q1407.29 254.126 1407.29 257.182 Q1407.29 260.191 1408.43 261.927 Q1409.58 263.64 1411.6 263.64 Q1413.56 263.64 1414.7 261.927 Q1415.86 260.191 1415.86 257.182 Q1415.86 254.149 1414.7 252.436 Q1413.56 250.7 1411.6 250.7 M1411.6 247.761 Q1415.25 247.761 1417.41 250.307 Q1419.56 252.853 1419.56 257.182 Q1419.56 261.51 1417.38 264.057 Q1415.23 266.58 1411.6 266.58 Q1407.89 266.58 1405.74 264.057 Q1403.59 261.51 1403.59 257.182 Q1403.59 252.83 1405.74 250.307 Q1407.92 247.761 1411.6 247.761 M1387.71 233.663 Q1385.72 233.663 1384.56 235.4 Q1383.43 237.112 1383.43 240.122 Q1383.43 243.177 1384.56 244.89 Q1385.69 246.603 1387.71 246.603 Q1389.72 246.603 1390.86 244.89 Q1392.01 243.177 1392.01 240.122 Q1392.01 237.136 1390.86 235.4 Q1389.7 233.663 1387.71 233.663 M1408.61 230.724 L1412.31 230.724 L1390.69 266.58 L1386.99 266.58 L1408.61 230.724 M1387.71 230.724 Q1391.37 230.724 1393.54 233.27 Q1395.72 235.793 1395.72 240.122 Q1395.72 244.497 1393.54 247.02 Q1391.39 249.543 1387.71 249.543 Q1384.03 249.543 1381.88 247.02 Q1379.75 244.474 1379.75 240.122 Q1379.75 235.816 1381.9 233.27 Q1384.05 230.724 1387.71 230.724 Z" fill="#000000" fill-rule="nonzero" fill-opacity="1" /></svg>
