<?xml version="1.0" encoding="utf-8"?>
<svg xmlns="http://www.w3.org/2000/svg" xmlns:xlink="http://www.w3.org/1999/xlink" width="600" height="400" viewBox="0 0 2400 1600">
<defs>
  <clipPath id="clip170">
    <rect x="0" y="0" width="2400" height="1600"/>
  </clipPath>
</defs>
<path clip-path="url(#clip170)" d="M0 1600 L2400 1600 L2400 0 L0 0  Z" fill="#ffffff" fill-rule="evenodd" fill-opacity="1"/>
<defs>
  <clipPath id="clip171">
    <rect x="480" y="0" width="1681" height="1600"/>
  </clipPath>
</defs>
<path clip-path="url(#clip170)" d="M287.366 623.18 L2352.76 623.18 L2352.76 47.2441 L287.366 47.2441  Z" fill="#ffffff" fill-rule="evenodd" fill-opacity="1"/>
<defs>
  <clipPath id="clip172">
    <rect x="287" y="47" width="2066" height="577"/>
  </clipPath>
</defs>
<polyline clip-path="url(#clip172)" style="stroke:#000000; stroke-linecap:round; stroke-linejoin:round; stroke-width:2; stroke-opacity:0.1; fill:none" points="345.82,623.18 345.82,47.2441 "/>
<polyline clip-path="url(#clip172)" style="stroke:#000000; stroke-linecap:round; stroke-linejoin:round; stroke-width:2; stroke-opacity:0.1; fill:none" points="736.298,623.18 736.298,47.2441 "/>
<polyline clip-path="url(#clip172)" style="stroke:#000000; stroke-linecap:round; stroke-linejoin:round; stroke-width:2; stroke-opacity:0.1; fill:none" points="1126.77,623.18 1126.77,47.2441 "/>
<polyline clip-path="url(#clip172)" style="stroke:#000000; stroke-linecap:round; stroke-linejoin:round; stroke-width:2; stroke-opacity:0.1; fill:none" points="1517.25,623.18 1517.25,47.2441 "/>
<polyline clip-path="url(#clip172)" style="stroke:#000000; stroke-linecap:round; stroke-linejoin:round; stroke-width:2; stroke-opacity:0.1; fill:none" points="1907.73,623.18 1907.73,47.2441 "/>
<polyline clip-path="url(#clip172)" style="stroke:#000000; stroke-linecap:round; stroke-linejoin:round; stroke-width:2; stroke-opacity:0.1; fill:none" points="2298.21,623.18 2298.21,47.2441 "/>
<polyline clip-path="url(#clip172)" style="stroke:#000000; stroke-linecap:round; stroke-linejoin:round; stroke-width:2; stroke-opacity:0.1; fill:none" points="287.366,560.61 2352.76,560.61 "/>
<polyline clip-path="url(#clip172)" style="stroke:#000000; stroke-linecap:round; stroke-linejoin:round; stroke-width:2; stroke-opacity:0.1; fill:none" points="287.366,460.288 2352.76,460.288 "/>
<polyline clip-path="url(#clip172)" style="stroke:#000000; stroke-linecap:round; stroke-linejoin:round; stroke-width:2; stroke-opacity:0.1; fill:none" points="287.366,359.967 2352.76,359.967 "/>
<polyline clip-path="url(#clip172)" style="stroke:#000000; stroke-linecap:round; stroke-linejoin:round; stroke-width:2; stroke-opacity:0.1; fill:none" points="287.366,259.645 2352.76,259.645 "/>
<polyline clip-path="url(#clip172)" style="stroke:#000000; stroke-linecap:round; stroke-linejoin:round; stroke-width:2; stroke-opacity:0.1; fill:none" points="287.366,159.323 2352.76,159.323 "/>
<polyline clip-path="url(#clip172)" style="stroke:#000000; stroke-linecap:round; stroke-linejoin:round; stroke-width:2; stroke-opacity:0.1; fill:none" points="287.366,59.0014 2352.76,59.0014 "/>
<polyline clip-path="url(#clip170)" style="stroke:#000000; stroke-linecap:round; stroke-linejoin:round; stroke-width:4; stroke-opacity:1; fill:none" points="287.366,623.18 2352.76,623.18 "/>
<polyline clip-path="url(#clip170)" style="stroke:#000000; stroke-linecap:round; stroke-linejoin:round; stroke-width:4; stroke-opacity:1; fill:none" points="345.82,623.18 345.82,604.282 "/>
<polyline clip-path="url(#clip170)" style="stroke:#000000; stroke-linecap:round; stroke-linejoin:round; stroke-width:4; stroke-opacity:1; fill:none" points="736.298,623.18 736.298,604.282 "/>
<polyline clip-path="url(#clip170)" style="stroke:#000000; stroke-linecap:round; stroke-linejoin:round; stroke-width:4; stroke-opacity:1; fill:none" points="1126.77,623.18 1126.77,604.282 "/>
<polyline clip-path="url(#clip170)" style="stroke:#000000; stroke-linecap:round; stroke-linejoin:round; stroke-width:4; stroke-opacity:1; fill:none" points="1517.25,623.18 1517.25,604.282 "/>
<polyline clip-path="url(#clip170)" style="stroke:#000000; stroke-linecap:round; stroke-linejoin:round; stroke-width:4; stroke-opacity:1; fill:none" points="1907.73,623.18 1907.73,604.282 "/>
<polyline clip-path="url(#clip170)" style="stroke:#000000; stroke-linecap:round; stroke-linejoin:round; stroke-width:4; stroke-opacity:1; fill:none" points="2298.21,623.18 2298.21,604.282 "/>
<path clip-path="url(#clip170)" d="M345.82 654.099 Q342.209 654.099 340.381 657.663 Q338.575 661.205 338.575 668.335 Q338.575 675.441 340.381 679.006 Q342.209 682.547 345.82 682.547 Q349.455 682.547 351.26 679.006 Q353.089 675.441 353.089 668.335 Q353.089 661.205 351.26 657.663 Q349.455 654.099 345.82 654.099 M345.82 650.395 Q351.63 650.395 354.686 655.001 Q357.765 659.585 357.765 668.335 Q357.765 677.061 354.686 681.668 Q351.63 686.251 345.82 686.251 Q340.01 686.251 336.931 681.668 Q333.876 677.061 333.876 668.335 Q333.876 659.585 336.931 655.001 Q340.01 650.395 345.82 650.395 Z" fill="#000000" fill-rule="nonzero" fill-opacity="1" /><path clip-path="url(#clip170)" d="M726.68 681.645 L734.318 681.645 L734.318 655.279 L726.008 656.946 L726.008 652.687 L734.272 651.02 L738.948 651.02 L738.948 681.645 L746.587 681.645 L746.587 685.58 L726.68 685.58 L726.68 681.645 Z" fill="#000000" fill-rule="nonzero" fill-opacity="1" /><path clip-path="url(#clip170)" d="M1121.43 681.645 L1137.75 681.645 L1137.75 685.58 L1115.8 685.58 L1115.8 681.645 Q1118.46 678.89 1123.05 674.26 Q1127.65 669.608 1128.83 668.265 Q1131.08 665.742 1131.96 664.006 Q1132.86 662.247 1132.86 660.557 Q1132.86 657.802 1130.92 656.066 Q1129 654.33 1125.9 654.33 Q1123.7 654.33 1121.24 655.094 Q1118.81 655.858 1116.03 657.409 L1116.03 652.687 Q1118.86 651.552 1121.31 650.974 Q1123.77 650.395 1125.8 650.395 Q1131.17 650.395 1134.37 653.08 Q1137.56 655.765 1137.56 660.256 Q1137.56 662.386 1136.75 664.307 Q1135.96 666.205 1133.86 668.798 Q1133.28 669.469 1130.18 672.686 Q1127.08 675.881 1121.43 681.645 Z" fill="#000000" fill-rule="nonzero" fill-opacity="1" /><path clip-path="url(#clip170)" d="M1521.5 666.946 Q1524.86 667.663 1526.73 669.932 Q1528.63 672.2 1528.63 675.534 Q1528.63 680.649 1525.11 683.45 Q1521.59 686.251 1515.11 686.251 Q1512.93 686.251 1510.62 685.811 Q1508.33 685.395 1505.87 684.538 L1505.87 680.024 Q1507.82 681.159 1510.13 681.737 Q1512.45 682.316 1514.97 682.316 Q1519.37 682.316 1521.66 680.58 Q1523.98 678.844 1523.98 675.534 Q1523.98 672.478 1521.82 670.765 Q1519.69 669.029 1515.87 669.029 L1511.85 669.029 L1511.85 665.186 L1516.06 665.186 Q1519.51 665.186 1521.34 663.821 Q1523.17 662.432 1523.17 659.839 Q1523.17 657.177 1521.27 655.765 Q1519.39 654.33 1515.87 654.33 Q1513.95 654.33 1511.75 654.747 Q1509.56 655.163 1506.92 656.043 L1506.92 651.876 Q1509.58 651.136 1511.89 650.765 Q1514.23 650.395 1516.29 650.395 Q1521.62 650.395 1524.72 652.825 Q1527.82 655.233 1527.82 659.353 Q1527.82 662.223 1526.18 664.214 Q1524.53 666.182 1521.5 666.946 Z" fill="#000000" fill-rule="nonzero" fill-opacity="1" /><path clip-path="url(#clip170)" d="M1910.74 655.094 L1898.93 673.543 L1910.74 673.543 L1910.74 655.094 M1909.51 651.02 L1915.39 651.02 L1915.39 673.543 L1920.32 673.543 L1920.32 677.432 L1915.39 677.432 L1915.39 685.58 L1910.74 685.58 L1910.74 677.432 L1895.14 677.432 L1895.14 672.918 L1909.51 651.02 Z" fill="#000000" fill-rule="nonzero" fill-opacity="1" /><path clip-path="url(#clip170)" d="M2288.48 651.02 L2306.84 651.02 L2306.84 654.955 L2292.77 654.955 L2292.77 663.427 Q2293.78 663.08 2294.8 662.918 Q2295.82 662.733 2296.84 662.733 Q2302.63 662.733 2306.01 665.904 Q2309.39 669.075 2309.39 674.492 Q2309.39 680.071 2305.91 683.172 Q2302.44 686.251 2296.12 686.251 Q2293.95 686.251 2291.68 685.881 Q2289.43 685.51 2287.03 684.77 L2287.03 680.071 Q2289.11 681.205 2291.33 681.76 Q2293.55 682.316 2296.03 682.316 Q2300.03 682.316 2302.37 680.21 Q2304.71 678.103 2304.71 674.492 Q2304.71 670.881 2302.37 668.774 Q2300.03 666.668 2296.03 666.668 Q2294.16 666.668 2292.28 667.085 Q2290.43 667.501 2288.48 668.381 L2288.48 651.02 Z" fill="#000000" fill-rule="nonzero" fill-opacity="1" /><path clip-path="url(#clip170)" d="M1190.23 720.524 L1230.43 720.524 L1230.43 725.935 L1213.56 725.935 L1213.56 768.044 L1207.1 768.044 L1207.1 725.935 L1190.23 725.935 L1190.23 720.524 Z" fill="#000000" fill-rule="nonzero" fill-opacity="1" /><path clip-path="url(#clip170)" d="M1234.38 732.396 L1240.23 732.396 L1240.23 768.044 L1234.38 768.044 L1234.38 732.396 M1234.38 718.519 L1240.23 718.519 L1240.23 725.935 L1234.38 725.935 L1234.38 718.519 Z" fill="#000000" fill-rule="nonzero" fill-opacity="1" /><path clip-path="url(#clip170)" d="M1280.24 739.239 Q1282.44 735.292 1285.5 733.414 Q1288.55 731.537 1292.69 731.537 Q1298.26 731.537 1301.28 735.451 Q1304.31 739.335 1304.31 746.528 L1304.31 768.044 L1298.42 768.044 L1298.42 746.719 Q1298.42 741.594 1296.6 739.112 Q1294.79 736.629 1291.07 736.629 Q1286.51 736.629 1283.87 739.653 Q1281.23 742.677 1281.23 747.896 L1281.23 768.044 L1275.34 768.044 L1275.34 746.719 Q1275.34 741.563 1273.53 739.112 Q1271.71 736.629 1267.93 736.629 Q1263.44 736.629 1260.8 739.685 Q1258.15 742.708 1258.15 747.896 L1258.15 768.044 L1252.27 768.044 L1252.27 732.396 L1258.15 732.396 L1258.15 737.934 Q1260.16 734.656 1262.96 733.096 Q1265.76 731.537 1269.61 731.537 Q1273.5 731.537 1276.2 733.51 Q1278.94 735.483 1280.24 739.239 Z" fill="#000000" fill-rule="nonzero" fill-opacity="1" /><path clip-path="url(#clip170)" d="M1346.48 748.756 L1346.48 751.62 L1319.55 751.62 Q1319.93 757.668 1323.18 760.851 Q1326.46 764.002 1332.28 764.002 Q1335.66 764.002 1338.81 763.174 Q1341.99 762.347 1345.11 760.691 L1345.11 766.23 Q1341.96 767.566 1338.65 768.267 Q1335.34 768.967 1331.93 768.967 Q1323.4 768.967 1318.41 764.002 Q1313.44 759.036 1313.44 750.57 Q1313.44 741.817 1318.15 736.693 Q1322.89 731.537 1330.91 731.537 Q1338.11 731.537 1342.28 736.183 Q1346.48 740.799 1346.48 748.756 M1340.62 747.037 Q1340.56 742.231 1337.92 739.366 Q1335.31 736.502 1330.98 736.502 Q1326.08 736.502 1323.12 739.271 Q1320.19 742.04 1319.74 747.069 L1340.62 747.037 Z" fill="#000000" fill-rule="nonzero" fill-opacity="1" /><path clip-path="url(#clip170)" d="M1390.88 718.582 Q1386.61 725.903 1384.55 733.064 Q1382.48 740.226 1382.48 747.578 Q1382.48 754.93 1384.55 762.156 Q1386.65 769.349 1390.88 776.638 L1385.79 776.638 Q1381.01 769.158 1378.63 761.933 Q1376.27 754.708 1376.27 747.578 Q1376.27 740.48 1378.63 733.287 Q1380.98 726.094 1385.79 718.582 L1390.88 718.582 Z" fill="#000000" fill-rule="nonzero" fill-opacity="1" /><path clip-path="url(#clip170)" d="M1424.97 733.446 L1424.97 738.984 Q1422.49 737.711 1419.81 737.075 Q1417.14 736.438 1414.27 736.438 Q1409.91 736.438 1407.72 737.775 Q1405.55 739.112 1405.55 741.785 Q1405.55 743.822 1407.11 745 Q1408.67 746.146 1413.38 747.196 L1415.39 747.642 Q1421.63 748.979 1424.24 751.429 Q1426.88 753.848 1426.88 758.209 Q1426.88 763.174 1422.93 766.07 Q1419.02 768.967 1412.14 768.967 Q1409.28 768.967 1406.16 768.394 Q1403.07 767.853 1399.63 766.739 L1399.63 760.691 Q1402.88 762.378 1406.03 763.238 Q1409.18 764.065 1412.27 764.065 Q1416.41 764.065 1418.63 762.665 Q1420.86 761.233 1420.86 758.654 Q1420.86 756.267 1419.24 754.994 Q1417.65 753.721 1412.2 752.543 L1410.17 752.066 Q1404.72 750.92 1402.31 748.565 Q1399.89 746.178 1399.89 742.04 Q1399.89 737.011 1403.45 734.274 Q1407.02 731.537 1413.57 731.537 Q1416.82 731.537 1419.68 732.014 Q1422.55 732.491 1424.97 733.446 Z" fill="#000000" fill-rule="nonzero" fill-opacity="1" /><path clip-path="url(#clip170)" d="M1435.28 718.582 L1440.37 718.582 Q1445.15 726.094 1447.5 733.287 Q1449.89 740.48 1449.89 747.578 Q1449.89 754.708 1447.5 761.933 Q1445.15 769.158 1440.37 776.638 L1435.28 776.638 Q1439.51 769.349 1441.58 762.156 Q1443.68 754.93 1443.68 747.578 Q1443.68 740.226 1441.58 733.064 Q1439.51 725.903 1435.28 718.582 Z" fill="#000000" fill-rule="nonzero" fill-opacity="1" /><polyline clip-path="url(#clip170)" style="stroke:#000000; stroke-linecap:round; stroke-linejoin:round; stroke-width:4; stroke-opacity:1; fill:none" points="287.366,623.18 287.366,47.2441 "/>
<polyline clip-path="url(#clip170)" style="stroke:#000000; stroke-linecap:round; stroke-linejoin:round; stroke-width:4; stroke-opacity:1; fill:none" points="287.366,560.61 306.264,560.61 "/>
<polyline clip-path="url(#clip170)" style="stroke:#000000; stroke-linecap:round; stroke-linejoin:round; stroke-width:4; stroke-opacity:1; fill:none" points="287.366,460.288 306.264,460.288 "/>
<polyline clip-path="url(#clip170)" style="stroke:#000000; stroke-linecap:round; stroke-linejoin:round; stroke-width:4; stroke-opacity:1; fill:none" points="287.366,359.967 306.264,359.967 "/>
<polyline clip-path="url(#clip170)" style="stroke:#000000; stroke-linecap:round; stroke-linejoin:round; stroke-width:4; stroke-opacity:1; fill:none" points="287.366,259.645 306.264,259.645 "/>
<polyline clip-path="url(#clip170)" style="stroke:#000000; stroke-linecap:round; stroke-linejoin:round; stroke-width:4; stroke-opacity:1; fill:none" points="287.366,159.323 306.264,159.323 "/>
<polyline clip-path="url(#clip170)" style="stroke:#000000; stroke-linecap:round; stroke-linejoin:round; stroke-width:4; stroke-opacity:1; fill:none" points="287.366,59.0014 306.264,59.0014 "/>
<path clip-path="url(#clip170)" d="M115.256 561.062 L144.931 561.062 L144.931 564.997 L115.256 564.997 L115.256 561.062 Z" fill="#000000" fill-rule="nonzero" fill-opacity="1" /><path clip-path="url(#clip170)" d="M165.024 546.409 Q161.413 546.409 159.584 549.974 Q157.778 553.515 157.778 560.645 Q157.778 567.751 159.584 571.316 Q161.413 574.858 165.024 574.858 Q168.658 574.858 170.464 571.316 Q172.292 567.751 172.292 560.645 Q172.292 553.515 170.464 549.974 Q168.658 546.409 165.024 546.409 M165.024 542.705 Q170.834 542.705 173.889 547.312 Q176.968 551.895 176.968 560.645 Q176.968 569.372 173.889 573.978 Q170.834 578.562 165.024 578.562 Q159.214 578.562 156.135 573.978 Q153.079 569.372 153.079 560.645 Q153.079 551.895 156.135 547.312 Q159.214 542.705 165.024 542.705 Z" fill="#000000" fill-rule="nonzero" fill-opacity="1" /><path clip-path="url(#clip170)" d="M185.186 572.011 L190.07 572.011 L190.07 577.89 L185.186 577.89 L185.186 572.011 Z" fill="#000000" fill-rule="nonzero" fill-opacity="1" /><path clip-path="url(#clip170)" d="M201.065 573.955 L208.704 573.955 L208.704 547.59 L200.394 549.256 L200.394 544.997 L208.658 543.33 L213.334 543.33 L213.334 573.955 L220.973 573.955 L220.973 577.89 L201.065 577.89 L201.065 573.955 Z" fill="#000000" fill-rule="nonzero" fill-opacity="1" /><path clip-path="url(#clip170)" d="M230.463 543.33 L248.82 543.33 L248.82 547.265 L234.746 547.265 L234.746 555.738 Q235.764 555.39 236.783 555.228 Q237.801 555.043 238.82 555.043 Q244.607 555.043 247.986 558.214 Q251.366 561.386 251.366 566.802 Q251.366 572.381 247.894 575.483 Q244.421 578.562 238.102 578.562 Q235.926 578.562 233.658 578.191 Q231.412 577.821 229.005 577.08 L229.005 572.381 Q231.088 573.515 233.31 574.071 Q235.533 574.626 238.009 574.626 Q242.014 574.626 244.352 572.52 Q246.69 570.413 246.69 566.802 Q246.69 563.191 244.352 561.085 Q242.014 558.978 238.009 558.978 Q236.135 558.978 234.26 559.395 Q232.408 559.812 230.463 560.691 L230.463 543.33 Z" fill="#000000" fill-rule="nonzero" fill-opacity="1" /><path clip-path="url(#clip170)" d="M114.26 460.74 L143.936 460.74 L143.936 464.675 L114.26 464.675 L114.26 460.74 Z" fill="#000000" fill-rule="nonzero" fill-opacity="1" /><path clip-path="url(#clip170)" d="M164.028 446.087 Q160.417 446.087 158.589 449.652 Q156.783 453.194 156.783 460.323 Q156.783 467.43 158.589 470.994 Q160.417 474.536 164.028 474.536 Q167.663 474.536 169.468 470.994 Q171.297 467.43 171.297 460.323 Q171.297 453.194 169.468 449.652 Q167.663 446.087 164.028 446.087 M164.028 442.383 Q169.839 442.383 172.894 446.99 Q175.973 451.573 175.973 460.323 Q175.973 469.05 172.894 473.656 Q169.839 478.24 164.028 478.24 Q158.218 478.24 155.14 473.656 Q152.084 469.05 152.084 460.323 Q152.084 451.573 155.14 446.99 Q158.218 442.383 164.028 442.383 Z" fill="#000000" fill-rule="nonzero" fill-opacity="1" /><path clip-path="url(#clip170)" d="M184.19 471.689 L189.075 471.689 L189.075 477.568 L184.19 477.568 L184.19 471.689 Z" fill="#000000" fill-rule="nonzero" fill-opacity="1" /><path clip-path="url(#clip170)" d="M200.07 473.633 L207.709 473.633 L207.709 447.268 L199.399 448.934 L199.399 444.675 L207.662 443.008 L212.338 443.008 L212.338 473.633 L219.977 473.633 L219.977 477.568 L200.07 477.568 L200.07 473.633 Z" fill="#000000" fill-rule="nonzero" fill-opacity="1" /><path clip-path="url(#clip170)" d="M239.422 446.087 Q235.81 446.087 233.982 449.652 Q232.176 453.194 232.176 460.323 Q232.176 467.43 233.982 470.994 Q235.81 474.536 239.422 474.536 Q243.056 474.536 244.861 470.994 Q246.69 467.43 246.69 460.323 Q246.69 453.194 244.861 449.652 Q243.056 446.087 239.422 446.087 M239.422 442.383 Q245.232 442.383 248.287 446.99 Q251.366 451.573 251.366 460.323 Q251.366 469.05 248.287 473.656 Q245.232 478.24 239.422 478.24 Q233.611 478.24 230.533 473.656 Q227.477 469.05 227.477 460.323 Q227.477 451.573 230.533 446.99 Q233.611 442.383 239.422 442.383 Z" fill="#000000" fill-rule="nonzero" fill-opacity="1" /><path clip-path="url(#clip170)" d="M115.256 360.418 L144.931 360.418 L144.931 364.353 L115.256 364.353 L115.256 360.418 Z" fill="#000000" fill-rule="nonzero" fill-opacity="1" /><path clip-path="url(#clip170)" d="M165.024 345.765 Q161.413 345.765 159.584 349.33 Q157.778 352.872 157.778 360.001 Q157.778 367.108 159.584 370.673 Q161.413 374.214 165.024 374.214 Q168.658 374.214 170.464 370.673 Q172.292 367.108 172.292 360.001 Q172.292 352.872 170.464 349.33 Q168.658 345.765 165.024 345.765 M165.024 342.062 Q170.834 342.062 173.889 346.668 Q176.968 351.251 176.968 360.001 Q176.968 368.728 173.889 373.335 Q170.834 377.918 165.024 377.918 Q159.214 377.918 156.135 373.335 Q153.079 368.728 153.079 360.001 Q153.079 351.251 156.135 346.668 Q159.214 342.062 165.024 342.062 Z" fill="#000000" fill-rule="nonzero" fill-opacity="1" /><path clip-path="url(#clip170)" d="M185.186 371.367 L190.07 371.367 L190.07 377.247 L185.186 377.247 L185.186 371.367 Z" fill="#000000" fill-rule="nonzero" fill-opacity="1" /><path clip-path="url(#clip170)" d="M210.255 345.765 Q206.644 345.765 204.815 349.33 Q203.01 352.872 203.01 360.001 Q203.01 367.108 204.815 370.673 Q206.644 374.214 210.255 374.214 Q213.889 374.214 215.695 370.673 Q217.523 367.108 217.523 360.001 Q217.523 352.872 215.695 349.33 Q213.889 345.765 210.255 345.765 M210.255 342.062 Q216.065 342.062 219.121 346.668 Q222.199 351.251 222.199 360.001 Q222.199 368.728 219.121 373.335 Q216.065 377.918 210.255 377.918 Q204.445 377.918 201.366 373.335 Q198.311 368.728 198.311 360.001 Q198.311 351.251 201.366 346.668 Q204.445 342.062 210.255 342.062 Z" fill="#000000" fill-rule="nonzero" fill-opacity="1" /><path clip-path="url(#clip170)" d="M230.463 342.687 L248.82 342.687 L248.82 346.622 L234.746 346.622 L234.746 355.094 Q235.764 354.747 236.783 354.585 Q237.801 354.4 238.82 354.4 Q244.607 354.4 247.986 357.571 Q251.366 360.742 251.366 366.159 Q251.366 371.737 247.894 374.839 Q244.421 377.918 238.102 377.918 Q235.926 377.918 233.658 377.548 Q231.412 377.177 229.005 376.437 L229.005 371.737 Q231.088 372.872 233.31 373.427 Q235.533 373.983 238.009 373.983 Q242.014 373.983 244.352 371.876 Q246.69 369.77 246.69 366.159 Q246.69 362.548 244.352 360.441 Q242.014 358.335 238.009 358.335 Q236.135 358.335 234.26 358.751 Q232.408 359.168 230.463 360.048 L230.463 342.687 Z" fill="#000000" fill-rule="nonzero" fill-opacity="1" /><path clip-path="url(#clip170)" d="M164.028 245.444 Q160.417 245.444 158.589 249.008 Q156.783 252.55 156.783 259.68 Q156.783 266.786 158.589 270.351 Q160.417 273.893 164.028 273.893 Q167.663 273.893 169.468 270.351 Q171.297 266.786 171.297 259.68 Q171.297 252.55 169.468 249.008 Q167.663 245.444 164.028 245.444 M164.028 241.74 Q169.839 241.74 172.894 246.346 Q175.973 250.93 175.973 259.68 Q175.973 268.406 172.894 273.013 Q169.839 277.596 164.028 277.596 Q158.218 277.596 155.14 273.013 Q152.084 268.406 152.084 259.68 Q152.084 250.93 155.14 246.346 Q158.218 241.74 164.028 241.74 Z" fill="#000000" fill-rule="nonzero" fill-opacity="1" /><path clip-path="url(#clip170)" d="M184.19 271.045 L189.075 271.045 L189.075 276.925 L184.19 276.925 L184.19 271.045 Z" fill="#000000" fill-rule="nonzero" fill-opacity="1" /><path clip-path="url(#clip170)" d="M209.26 245.444 Q205.649 245.444 203.82 249.008 Q202.014 252.55 202.014 259.68 Q202.014 266.786 203.82 270.351 Q205.649 273.893 209.26 273.893 Q212.894 273.893 214.699 270.351 Q216.528 266.786 216.528 259.68 Q216.528 252.55 214.699 249.008 Q212.894 245.444 209.26 245.444 M209.26 241.74 Q215.07 241.74 218.125 246.346 Q221.204 250.93 221.204 259.68 Q221.204 268.406 218.125 273.013 Q215.07 277.596 209.26 277.596 Q203.449 277.596 200.371 273.013 Q197.315 268.406 197.315 259.68 Q197.315 250.93 200.371 246.346 Q203.449 241.74 209.26 241.74 Z" fill="#000000" fill-rule="nonzero" fill-opacity="1" /><path clip-path="url(#clip170)" d="M239.422 245.444 Q235.81 245.444 233.982 249.008 Q232.176 252.55 232.176 259.68 Q232.176 266.786 233.982 270.351 Q235.81 273.893 239.422 273.893 Q243.056 273.893 244.861 270.351 Q246.69 266.786 246.69 259.68 Q246.69 252.55 244.861 249.008 Q243.056 245.444 239.422 245.444 M239.422 241.74 Q245.232 241.74 248.287 246.346 Q251.366 250.93 251.366 259.68 Q251.366 268.406 248.287 273.013 Q245.232 277.596 239.422 277.596 Q233.611 277.596 230.533 273.013 Q227.477 268.406 227.477 259.68 Q227.477 250.93 230.533 246.346 Q233.611 241.74 239.422 241.74 Z" fill="#000000" fill-rule="nonzero" fill-opacity="1" /><path clip-path="url(#clip170)" d="M165.024 145.122 Q161.413 145.122 159.584 148.687 Q157.778 152.228 157.778 159.358 Q157.778 166.464 159.584 170.029 Q161.413 173.571 165.024 173.571 Q168.658 173.571 170.464 170.029 Q172.292 166.464 172.292 159.358 Q172.292 152.228 170.464 148.687 Q168.658 145.122 165.024 145.122 M165.024 141.418 Q170.834 141.418 173.889 146.025 Q176.968 150.608 176.968 159.358 Q176.968 168.085 173.889 172.691 Q170.834 177.274 165.024 177.274 Q159.214 177.274 156.135 172.691 Q153.079 168.085 153.079 159.358 Q153.079 150.608 156.135 146.025 Q159.214 141.418 165.024 141.418 Z" fill="#000000" fill-rule="nonzero" fill-opacity="1" /><path clip-path="url(#clip170)" d="M185.186 170.724 L190.07 170.724 L190.07 176.603 L185.186 176.603 L185.186 170.724 Z" fill="#000000" fill-rule="nonzero" fill-opacity="1" /><path clip-path="url(#clip170)" d="M210.255 145.122 Q206.644 145.122 204.815 148.687 Q203.01 152.228 203.01 159.358 Q203.01 166.464 204.815 170.029 Q206.644 173.571 210.255 173.571 Q213.889 173.571 215.695 170.029 Q217.523 166.464 217.523 159.358 Q217.523 152.228 215.695 148.687 Q213.889 145.122 210.255 145.122 M210.255 141.418 Q216.065 141.418 219.121 146.025 Q222.199 150.608 222.199 159.358 Q222.199 168.085 219.121 172.691 Q216.065 177.274 210.255 177.274 Q204.445 177.274 201.366 172.691 Q198.311 168.085 198.311 159.358 Q198.311 150.608 201.366 146.025 Q204.445 141.418 210.255 141.418 Z" fill="#000000" fill-rule="nonzero" fill-opacity="1" /><path clip-path="url(#clip170)" d="M230.463 142.043 L248.82 142.043 L248.82 145.978 L234.746 145.978 L234.746 154.45 Q235.764 154.103 236.783 153.941 Q237.801 153.756 238.82 153.756 Q244.607 153.756 247.986 156.927 Q251.366 160.099 251.366 165.515 Q251.366 171.094 247.894 174.196 Q244.421 177.274 238.102 177.274 Q235.926 177.274 233.658 176.904 Q231.412 176.534 229.005 175.793 L229.005 171.094 Q231.088 172.228 233.31 172.784 Q235.533 173.339 238.009 173.339 Q242.014 173.339 244.352 171.233 Q246.69 169.126 246.69 165.515 Q246.69 161.904 244.352 159.798 Q242.014 157.691 238.009 157.691 Q236.135 157.691 234.26 158.108 Q232.408 158.525 230.463 159.404 L230.463 142.043 Z" fill="#000000" fill-rule="nonzero" fill-opacity="1" /><path clip-path="url(#clip170)" d="M164.028 44.8 Q160.417 44.8 158.589 48.3648 Q156.783 51.9065 156.783 59.0361 Q156.783 66.1425 158.589 69.7073 Q160.417 73.249 164.028 73.249 Q167.663 73.249 169.468 69.7073 Q171.297 66.1425 171.297 59.0361 Q171.297 51.9065 169.468 48.3648 Q167.663 44.8 164.028 44.8 M164.028 41.0964 Q169.839 41.0964 172.894 45.7028 Q175.973 50.2861 175.973 59.0361 Q175.973 67.7629 172.894 72.3693 Q169.839 76.9526 164.028 76.9526 Q158.218 76.9526 155.14 72.3693 Q152.084 67.7629 152.084 59.0361 Q152.084 50.2861 155.14 45.7028 Q158.218 41.0964 164.028 41.0964 Z" fill="#000000" fill-rule="nonzero" fill-opacity="1" /><path clip-path="url(#clip170)" d="M184.19 70.4018 L189.075 70.4018 L189.075 76.2814 L184.19 76.2814 L184.19 70.4018 Z" fill="#000000" fill-rule="nonzero" fill-opacity="1" /><path clip-path="url(#clip170)" d="M200.07 72.3462 L207.709 72.3462 L207.709 45.9806 L199.399 47.6472 L199.399 43.388 L207.662 41.7214 L212.338 41.7214 L212.338 72.3462 L219.977 72.3462 L219.977 76.2814 L200.07 76.2814 L200.07 72.3462 Z" fill="#000000" fill-rule="nonzero" fill-opacity="1" /><path clip-path="url(#clip170)" d="M239.422 44.8 Q235.81 44.8 233.982 48.3648 Q232.176 51.9065 232.176 59.0361 Q232.176 66.1425 233.982 69.7073 Q235.81 73.249 239.422 73.249 Q243.056 73.249 244.861 69.7073 Q246.69 66.1425 246.69 59.0361 Q246.69 51.9065 244.861 48.3648 Q243.056 44.8 239.422 44.8 M239.422 41.0964 Q245.232 41.0964 248.287 45.7028 Q251.366 50.2861 251.366 59.0361 Q251.366 67.7629 248.287 72.3693 Q245.232 76.9526 239.422 76.9526 Q233.611 76.9526 230.533 72.3693 Q227.477 67.7629 227.477 59.0361 Q227.477 50.2861 230.533 45.7028 Q233.611 41.0964 239.422 41.0964 Z" fill="#000000" fill-rule="nonzero" fill-opacity="1" /><path clip-path="url(#clip170)" d="M67.3143 333.525 Q73.68 336.008 75.6216 338.363 Q77.5631 340.718 77.5631 344.665 L77.5631 349.344 L72.6615 349.344 L72.6615 345.906 Q72.6615 343.487 71.5157 342.151 Q70.3699 340.814 66.1048 339.191 L63.4312 338.14 L28.3562 352.559 L28.3562 346.352 L56.238 335.212 L28.3562 324.072 L28.3562 317.865 L67.3143 333.525 Z" fill="#000000" fill-rule="nonzero" fill-opacity="1" /><polyline clip-path="url(#clip172)" style="stroke:#009af9; stroke-linecap:round; stroke-linejoin:round; stroke-width:4; stroke-opacity:1; fill:none" points="345.82,259.645 349.725,259.645 353.63,259.645 353.63,279.477 357.535,279.477 357.535,298.726 361.439,298.726 361.439,317.221 365.344,317.221 365.344,334.812 369.249,334.812 369.249,351.368 373.154,351.368 373.154,327.116 377.059,327.116 377.059,302.805 380.963,302.805 380.963,278.713 384.868,278.713 384.868,255.108 388.773,255.108 388.773,232.241 392.678,232.241 392.678,210.345 396.582,210.345 396.582,189.628 400.487,189.628 400.487,170.27 404.392,170.27 404.392,152.422 408.297,152.422 408.297,136.203 412.201,136.203 412.201,161.361 416.106,161.361 416.106,187.114 420.011,187.114 420.011,213.14 423.916,213.14 423.916,239.119 427.821,239.119 427.821,264.739 431.725,264.739 431.725,289.705 435.63,289.705 435.63,313.737 439.535,313.737 439.535,336.584 443.44,336.584 443.44,358.022 447.344,358.022 447.344,377.859 451.249,377.859 451.249,356.275 455.154,356.275 455.154,333.983 459.059,333.983 459.059,311.24 462.963,311.24 462.963,288.309 466.868,288.309 466.868,265.448 470.773,265.448 470.773,282.573 474.678,282.573 474.678,299.091 478.583,299.091 478.583,314.887 482.487,314.887 482.487,329.864 486.392,329.864 486.392,343.94 490.297,343.94 490.297,317.387 494.202,317.387 494.202,290.994 498.106,290.994 498.106,265.074 502.011,265.074 502.011,239.924 505.916,239.924 505.916,215.818 509.821,215.818 509.821,193.004 513.726,193.004 513.726,171.699 517.63,171.699 517.63,152.086 521.535,152.086 521.535,134.311 525.44,134.311 525.44,118.481 529.345,118.481 529.345,104.665 533.249,104.665 533.249,92.8903 537.154,92.8903 537.154,83.146 541.059,83.146 541.059,75.3834 544.964,75.3834 544.964,69.5181 548.868,69.5181 548.868,105.097 552.773,105.097 552.773,141.14 556.678,141.14 556.678,177.136 560.583,177.136 560.583,212.587 564.488,212.587 564.488,247.02 568.392,247.02 568.392,240.328 572.297,240.328 572.297,232.941 576.202,232.941 576.202,224.842 580.107,224.842 580.107,216.03 584.011,216.03 584.011,206.519 587.916,206.519 587.916,196.338 591.821,196.338 591.821,185.531 595.726,185.531 595.726,174.154 599.631,174.154 599.631,162.275 603.535,162.275 603.535,149.971 607.44,149.971 607.44,176.992 611.345,176.992 611.345,202.595 615.25,202.595 615.25,226.538 619.154,226.538 619.154,248.615 623.059,248.615 623.059,268.662 626.964,268.662 626.964,286.555 630.869,286.555 630.869,302.218 634.773,302.218 634.773,315.616 638.678,315.616 638.678,326.758 642.583,326.758 642.583,335.696 646.488,335.696 646.488,342.52 650.393,342.52 650.393,347.36 654.297,347.36 654.297,350.376 658.202,350.376 658.202,351.758 662.107,351.758 662.107,351.723 666.012,351.723 666.012,350.504 669.916,350.504 669.916,348.35 673.821,348.35 673.821,345.52 677.726,345.52 677.726,342.276 681.631,342.276 681.631,338.878 685.535,338.878 685.535,335.581 689.44,335.581 689.44,332.627 693.345,332.627 693.345,330.242 697.25,330.242 697.25,328.635 701.155,328.635 701.155,327.99 705.059,327.99 705.059,328.464 708.964,328.464 708.964,330.188 712.869,330.188 712.869,333.26 716.774,333.26 716.774,337.749 720.678,337.749 720.678,343.692 724.583,343.692 724.583,351.094 728.488,351.094 728.488,359.93 732.393,359.93 732.393,370.146 736.298,370.146 736.298,381.66 740.202,381.66 740.202,394.367 744.107,394.367 744.107,408.139 748.012,408.139 748.012,422.828 751.917,422.828 751.917,438.274 755.821,438.274 755.821,454.301 759.726,454.301 759.726,470.73 763.631,470.73 763.631,447.708 767.536,447.708 767.536,425.886 771.44,425.886 771.44,405.416 775.345,405.416 775.345,386.427 779.25,386.427 779.25,369.015 783.155,369.015 783.155,353.244 787.06,353.244 787.06,339.146 790.964,339.146 790.964,326.724 794.869,326.724 794.869,315.947 798.774,315.947 798.774,306.757 802.679,306.757 802.679,338.732 806.583,338.732 806.583,370.929 810.488,370.929 810.488,402.876 814.393,402.876 814.393,434.12 818.298,434.12 818.298,464.234 822.202,464.234 822.202,453.157 826.107,453.157 826.107,441.369 830.012,441.369 830.012,428.898 833.917,428.898 833.917,415.788 837.822,415.788 837.822,402.097 841.726,402.097 841.726,427.559 845.631,427.559 845.631,451.42 849.536,451.42 849.536,473.429 853.441,473.429 853.441,493.378 857.345,493.378 857.345,511.106 861.25,511.106 861.25,526.495 865.155,526.495 865.155,539.477 869.06,539.477 869.06,550.032 872.965,550.032 872.965,558.185 876.869,558.185 876.869,564.007 880.774,564.007 880.774,527.947 884.679,527.947 884.679,490.989 888.584,490.989 888.584,453.659 892.488,453.659 892.488,416.473 896.393,416.473 896.393,379.935 900.298,379.935 900.298,384.186 904.203,384.186 904.203,388.836 908.107,388.836 908.107,393.949 912.012,393.949 912.012,399.575 915.917,399.575 915.917,405.752 919.822,405.752 919.822,372.84 923.727,372.84 923.727,341.681 927.631,341.681 927.631,312.611 931.536,312.611 931.536,285.916 935.441,285.916 935.441,261.828 939.346,261.828 939.346,240.525 943.25,240.525 943.25,222.127 947.155,222.127 947.155,206.694 951.06,206.694 951.06,194.229 954.965,194.229 954.965,184.678 958.87,184.678 958.87,217.599 962.774,217.599 962.774,252.002 966.679,252.002 966.679,287.347 970.584,287.347 970.584,323.088 974.489,323.088 974.489,358.688 978.393,358.688 978.393,353.96 982.298,353.96 982.298,349.244 986.203,349.244 986.203,344.417 990.108,344.417 990.108,339.368 994.012,339.368 994.012,333.991 997.917,333.991 997.917,367.862 1001.82,367.862 1001.82,400.067 1005.73,400.067 1005.73,430.203 1009.63,430.203 1009.63,457.92 1013.54,457.92 1013.54,482.922 1017.44,482.922 1017.44,504.974 1021.35,504.974 1021.35,523.903 1025.25,523.903 1025.25,539.603 1029.16,539.603 1029.16,552.031 1033.06,552.031 1033.06,561.209 1036.96,561.209 1036.96,527.556 1040.87,527.556 1040.87,492.046 1044.77,492.046 1044.77,455.213 1048.68,455.213 1048.68,417.601 1052.58,417.601 1052.58,379.757 1056.49,379.757 1056.49,381.885 1060.39,381.885 1060.39,383.667 1064.3,383.667 1064.3,385.254 1068.2,385.254 1068.2,386.795 1072.11,386.795 1072.11,388.432 1076.01,388.432 1076.01,350.636 1079.92,350.636 1079.92,314.363 1083.82,314.363 1083.82,280.066 1087.73,280.066 1087.73,248.143 1091.63,248.143 1091.63,218.939 1095.54,218.939 1095.54,192.735 1099.44,192.735 1099.44,169.75 1103.35,169.75 1103.35,150.133 1107.25,150.133 1107.25,133.964 1111.16,133.964 1111.16,121.255 1115.06,121.255 1115.06,151.619 1118.97,151.619 1118.97,184.105 1122.87,184.105 1122.87,218.199 1126.77,218.199 1126.77,253.367 1130.68,253.367 1130.68,289.07 1134.58,289.07 1134.58,324.772 1138.49,324.772 1138.49,359.951 1142.39,359.951 1142.39,394.109 1146.3,394.109 1146.3,426.78 1150.2,426.78 1150.2,457.541 1154.11,457.541 1154.11,486.015 1158.01,486.015 1158.01,511.883 1161.92,511.883 1161.92,534.88 1165.82,534.88 1165.82,554.809 1169.73,554.809 1169.73,571.534 1173.63,571.534 1173.63,584.985 1177.54,584.985 1177.54,595.157 1181.44,595.157 1181.44,602.109 1185.35,602.109 1185.35,605.958 1189.25,605.958 1189.25,606.88 1193.16,606.88 1193.16,565.433 1197.06,565.433 1197.06,522.721 1200.97,522.721 1200.97,479.391 1204.87,479.391 1204.87,436.083 1208.77,436.083 1208.77,393.423 1212.68,393.423 1212.68,391.669 1216.58,391.669 1216.58,390.546 1220.49,390.546 1220.49,390.221 1224.39,390.221 1224.39,390.839 1228.3,390.839 1228.3,392.523 1232.2,392.523 1232.2,355.702 1236.11,355.702 1236.11,321.279 1240.01,321.279 1240.01,289.631 1243.92,289.631 1243.92,261.073 1247.82,261.073 1247.82,235.851 1251.73,235.851 1251.73,253.807 1255.63,253.807 1255.63,274.211 1259.54,274.211 1259.54,296.757 1263.44,296.757 1263.44,321.105 1267.35,321.105 1267.35,346.887 1271.25,346.887 1271.25,334.052 1275.16,334.052 1275.16,323.035 1279.06,323.035 1279.06,313.774 1282.97,313.774 1282.97,306.177 1286.87,306.177 1286.87,300.123 1290.78,300.123 1290.78,335.131 1294.68,335.131 1294.68,370.203 1298.58,370.203 1298.58,404.817 1302.49,404.817 1302.49,438.474 1306.39,438.474 1306.39,470.71 1310.3,470.71 1310.3,461.431 1314.2,461.431 1314.2,451.092 1318.11,451.092 1318.11,439.706 1322.01,439.706 1322.01,427.306 1325.92,427.306 1325.92,413.95 1329.82,413.95 1329.82,399.71 1333.73,399.71 1333.73,384.681 1337.63,384.681 1337.63,368.969 1341.54,368.969 1341.54,352.694 1345.44,352.694 1345.44,335.985 1349.35,335.985 1349.35,358.643 1353.25,358.643 1353.25,379.974 1357.16,379.974 1357.16,399.783 1361.06,399.783 1361.06,417.905 1364.97,417.905 1364.97,434.214 1368.87,434.214 1368.87,408.956 1372.78,408.956 1372.78,382.914 1376.68,382.914 1376.68,356.412 1380.58,356.412 1380.58,329.778 1384.49,329.778 1384.49,303.332 1388.39,303.332 1388.39,277.386 1392.3,277.386 1392.3,252.232 1396.2,252.232 1396.2,228.143 1400.11,228.143 1400.11,205.362 1404.01,205.362 1404.01,184.103 1407.92,184.103 1407.92,204.209 1411.82,204.209 1411.82,224.99 1415.73,224.99 1415.73,246.212 1419.63,246.212 1419.63,267.636 1423.54,267.636 1423.54,289.026 1427.44,289.026 1427.44,310.151 1431.35,310.151 1431.35,330.79 1435.25,330.79 1435.25,350.737 1439.16,350.737 1439.16,369.804 1443.06,369.804 1443.06,387.821 1446.97,387.821 1446.97,364.982 1450.87,364.982 1450.87,342.001 1454.78,342.001 1454.78,319.125 1458.68,319.125 1458.68,296.595 1462.59,296.595 1462.59,274.639 1466.49,274.639 1466.49,293.134 1470.39,293.134 1470.39,311.439 1474.3,311.439 1474.3,329.387 1478.2,329.387 1478.2,346.818 1482.11,346.818 1482.11,363.589 1486.01,363.589 1486.01,339.904 1489.92,339.904 1489.92,316.484 1493.82,316.484 1493.82,293.576 1497.73,293.576 1497.73,271.408 1501.63,271.408 1501.63,250.191 1505.54,250.191 1505.54,269.778 1509.44,269.778 1509.44,289.498 1513.35,289.498 1513.35,309.144 1517.25,309.144 1517.25,328.52 1521.16,328.52 1521.16,347.435 1525.06,347.435 1525.06,365.712 1528.97,365.712 1528.97,383.191 1532.87,383.191 1532.87,399.73 1536.78,399.73 1536.78,415.207 1540.68,415.207 1540.68,429.524 1544.59,429.524 1544.59,402.943 1548.49,402.943 1548.49,376.245 1552.39,376.245 1552.39,349.745 1556.3,349.745 1556.3,323.745 1560.2,323.745 1560.2,298.53 1564.11,298.53 1564.11,314.029 1568.01,314.029 1568.01,329.646 1571.92,329.646 1571.92,345.25 1575.82,345.25 1575.82,360.712 1579.73,360.712 1579.73,375.91 1583.63,375.91 1583.63,351.062 1587.54,351.062 1587.54,326.893 1591.44,326.893 1591.44,303.646 1595.35,303.646 1595.35,281.539 1599.25,281.539 1599.25,260.764 1603.16,260.764 1603.16,241.482 1607.06,241.482 1607.06,223.824 1610.97,223.824 1610.97,207.885 1614.87,207.885 1614.87,193.727 1618.78,193.727 1618.78,181.376 1622.68,181.376 1622.68,170.825 1626.59,170.825 1626.59,162.033 1630.49,162.033 1630.49,154.928 1634.4,154.928 1634.4,149.407 1638.3,149.407 1638.3,145.344 1642.2,145.344 1642.2,182.251 1646.11,182.251 1646.11,219.127 1650.01,219.127 1650.01,255.447 1653.92,255.447 1653.92,290.712 1657.82,290.712 1657.82,324.456 1661.73,324.456 1661.73,356.257 1665.63,356.257 1665.63,385.739 1669.54,385.739 1669.54,412.582 1673.44,412.582 1673.44,436.524 1677.35,436.524 1677.35,457.369 1681.25,457.369 1681.25,435.318 1685.16,435.318 1685.16,411.138 1689.06,411.138 1689.06,385.163 1692.97,385.163 1692.97,357.757 1696.87,357.757 1696.87,329.302 1700.78,329.302 1700.78,339.857 1704.68,339.857 1704.68,348.985 1708.59,348.985 1708.59,356.74 1712.49,356.74 1712.49,363.201 1716.4,363.201 1716.4,368.467 1720.3,368.467 1720.3,372.655 1724.2,372.655 1724.2,375.899 1728.11,375.899 1728.11,378.345 1732.01,378.345 1732.01,380.15 1735.92,380.15 1735.92,381.476 1739.82,381.476 1739.82,342.823 1743.73,342.823 1743.73,305.189 1747.63,305.189 1747.63,269.072 1751.54,269.072 1751.54,234.93 1755.44,234.93 1755.44,203.167 1759.35,203.167 1759.35,174.134 1763.25,174.134 1763.25,148.117 1767.16,148.117 1767.16,125.338 1771.06,125.338 1771.06,105.951 1774.97,105.951 1774.97,90.0389 1778.87,90.0389 1778.87,117.282 1782.78,117.282 1782.78,146.796 1786.68,146.796 1786.68,178.125 1790.59,178.125 1790.59,210.793 1794.49,210.793 1794.49,244.306 1798.4,244.306 1798.4,238.503 1802.3,238.503 1802.3,233.727 1806.2,233.727 1806.2,229.841 1810.11,229.841 1810.11,226.697 1814.01,226.697 1814.01,224.138 1817.92,224.138 1817.92,222.001 1821.82,222.001 1821.82,220.124 1825.73,220.124 1825.73,218.345 1829.63,218.345 1829.63,216.507 1833.54,216.507 1833.54,214.46 1837.44,214.46 1837.44,251.731 1841.35,251.731 1841.35,287.361 1845.25,287.361 1845.25,320.9 1849.16,320.9 1849.16,351.951 1853.06,351.951 1853.06,380.177 1856.97,380.177 1856.97,405.304 1860.87,405.304 1860.87,427.123 1864.78,427.123 1864.78,445.496 1868.68,445.496 1868.68,460.357 1872.59,460.357 1872.59,471.705 1876.49,471.705 1876.49,479.608 1880.4,479.608 1880.4,484.2 1884.3,484.2 1884.3,485.671 1888.21,485.671 1888.21,484.268 1892.11,484.268 1892.11,480.281 1896.01,480.281 1896.01,434.381 1899.92,434.381 1899.92,387.766 1903.82,387.766 1903.82,341.165 1907.73,341.165 1907.73,295.285 1911.63,295.285 1911.63,250.802 1915.54,250.802 1915.54,248.011 1919.44,248.011 1919.44,246.652 1923.35,246.652 1923.35,246.895 1927.25,246.895 1927.25,248.871 1931.16,248.871 1931.16,252.672 1935.06,252.672 1935.06,258.348 1938.97,258.348 1938.97,265.91 1942.87,265.91 1942.87,275.33 1946.78,275.33 1946.78,286.542 1950.68,286.542 1950.68,299.446 1954.59,299.446 1954.59,313.908 1958.49,313.908 1958.49,329.767 1962.4,329.767 1962.4,346.838 1966.3,346.838 1966.3,364.915 1970.21,364.915 1970.21,383.777 1974.11,383.777 1974.11,363.527 1978.01,363.527 1978.01,344.762 1981.92,344.762 1981.92,327.58 1985.82,327.58 1985.82,312.051 1989.73,312.051 1989.73,298.209 1993.63,298.209 1993.63,325.724 1997.54,325.724 1997.54,353.733 2001.44,353.733 2001.44,381.843 2005.35,381.843 2005.35,409.665 2009.25,409.665 2009.25,436.829 2013.16,436.829 2013.16,423.319 2017.06,423.319 2017.06,409.648 2020.97,409.648 2020.97,395.867 2024.87,395.867 2024.87,382.029 2028.78,382.029 2028.78,368.191 2032.68,368.191 2032.68,354.408 2036.59,354.408 2036.59,340.735 2040.49,340.735 2040.49,327.227 2044.4,327.227 2044.4,313.933 2048.3,313.933 2048.3,300.903 2052.21,300.903 2052.21,288.178 2056.11,288.178 2056.11,275.796 2060.02,275.796 2060.02,263.789 2063.92,263.789 2063.92,252.182 2067.82,252.182 2067.82,240.995 2071.73,240.995 2071.73,269.904 2075.63,269.904 2075.63,298.081 2079.54,298.081 2079.54,325.186 2083.44,325.186 2083.44,350.91 2087.35,350.91 2087.35,374.976 2091.25,374.976 2091.25,397.147 2095.16,397.147 2095.16,417.23 2099.06,417.23 2099.06,435.073 2102.97,435.073 2102.97,450.575 2106.87,450.575 2106.87,463.68 2110.78,463.68 2110.78,474.379 2114.68,474.379 2114.68,482.709 2118.59,482.709 2118.59,488.751 2122.49,488.751 2122.49,492.627 2126.4,492.627 2126.4,494.495 2130.3,494.495 2130.3,454.884 2134.21,454.884 2134.21,414.847 2138.11,414.847 2138.11,374.966 2142.02,374.966 2142.02,335.803 2145.92,335.803 2145.92,297.894 2149.82,297.894 2149.82,261.734 2153.73,261.734 2153.73,227.774 2157.63,227.774 2157.63,196.409 2161.54,196.409 2161.54,167.972 2165.44,167.972 2165.44,142.733 2169.35,142.733 2169.35,120.891 2173.25,120.891 2173.25,102.577 2177.16,102.577 2177.16,87.848 2181.06,87.848 2181.06,76.692 2184.97,76.692 2184.97,69.029 2188.87,69.029 2188.87,64.7145 2192.78,64.7145 2192.78,63.5442 2196.68,63.5442 2196.68,65.26 2200.59,65.26 2200.59,69.5566 2204.49,69.5566 2204.49,76.0886 2208.4,76.0886 2208.4,124.144 2212.3,124.144 2212.3,172.488 2216.21,172.488 2216.21,220.368 2220.11,220.368 2220.11,267.059 2224.02,267.059 2224.02,311.88 2227.92,311.88 2227.92,354.203 2231.83,354.203 2231.83,393.469 2235.73,393.469 2235.73,429.191 2239.63,429.191 2239.63,460.965 2243.54,460.965 2243.54,488.475 2247.44,488.475 2247.44,471.83 2251.35,471.83 2251.35,451.732 2255.25,451.732 2255.25,428.48 2259.16,428.48 2259.16,402.427 2263.06,402.427 2263.06,373.975 2266.97,373.975 2266.97,343.561 2270.87,343.561 2270.87,311.65 2274.78,311.65 2274.78,278.726 2278.68,278.726 2278.68,245.278 2282.59,245.278 2282.59,211.796 2286.49,211.796 2286.49,218.42 2290.4,218.42 2290.4,224.772 2294.3,224.772 2294.3,230.941 "/>
<path clip-path="url(#clip170)" d="M287.366 1423.18 L2352.76 1423.18 L2352.76 847.244 L287.366 847.244  Z" fill="#ffffff" fill-rule="evenodd" fill-opacity="1"/>
<defs>
  <clipPath id="clip173">
    <rect x="287" y="847" width="2066" height="577"/>
  </clipPath>
</defs>
<polyline clip-path="url(#clip173)" style="stroke:#000000; stroke-linecap:round; stroke-linejoin:round; stroke-width:2; stroke-opacity:0.1; fill:none" points="345.82,1423.18 345.82,847.244 "/>
<polyline clip-path="url(#clip173)" style="stroke:#000000; stroke-linecap:round; stroke-linejoin:round; stroke-width:2; stroke-opacity:0.1; fill:none" points="736.298,1423.18 736.298,847.244 "/>
<polyline clip-path="url(#clip173)" style="stroke:#000000; stroke-linecap:round; stroke-linejoin:round; stroke-width:2; stroke-opacity:0.1; fill:none" points="1126.77,1423.18 1126.77,847.244 "/>
<polyline clip-path="url(#clip173)" style="stroke:#000000; stroke-linecap:round; stroke-linejoin:round; stroke-width:2; stroke-opacity:0.1; fill:none" points="1517.25,1423.18 1517.25,847.244 "/>
<polyline clip-path="url(#clip173)" style="stroke:#000000; stroke-linecap:round; stroke-linejoin:round; stroke-width:2; stroke-opacity:0.1; fill:none" points="1907.73,1423.18 1907.73,847.244 "/>
<polyline clip-path="url(#clip173)" style="stroke:#000000; stroke-linecap:round; stroke-linejoin:round; stroke-width:2; stroke-opacity:0.1; fill:none" points="2298.21,1423.18 2298.21,847.244 "/>
<polyline clip-path="url(#clip173)" style="stroke:#000000; stroke-linecap:round; stroke-linejoin:round; stroke-width:2; stroke-opacity:0.1; fill:none" points="287.366,1406.88 2352.76,1406.88 "/>
<polyline clip-path="url(#clip173)" style="stroke:#000000; stroke-linecap:round; stroke-linejoin:round; stroke-width:2; stroke-opacity:0.1; fill:none" points="287.366,1271.05 2352.76,1271.05 "/>
<polyline clip-path="url(#clip173)" style="stroke:#000000; stroke-linecap:round; stroke-linejoin:round; stroke-width:2; stroke-opacity:0.1; fill:none" points="287.366,1135.21 2352.76,1135.21 "/>
<polyline clip-path="url(#clip173)" style="stroke:#000000; stroke-linecap:round; stroke-linejoin:round; stroke-width:2; stroke-opacity:0.1; fill:none" points="287.366,999.378 2352.76,999.378 "/>
<polyline clip-path="url(#clip173)" style="stroke:#000000; stroke-linecap:round; stroke-linejoin:round; stroke-width:2; stroke-opacity:0.1; fill:none" points="287.366,863.544 2352.76,863.544 "/>
<polyline clip-path="url(#clip170)" style="stroke:#000000; stroke-linecap:round; stroke-linejoin:round; stroke-width:4; stroke-opacity:1; fill:none" points="287.366,1423.18 2352.76,1423.18 "/>
<polyline clip-path="url(#clip170)" style="stroke:#000000; stroke-linecap:round; stroke-linejoin:round; stroke-width:4; stroke-opacity:1; fill:none" points="345.82,1423.18 345.82,1404.28 "/>
<polyline clip-path="url(#clip170)" style="stroke:#000000; stroke-linecap:round; stroke-linejoin:round; stroke-width:4; stroke-opacity:1; fill:none" points="736.298,1423.18 736.298,1404.28 "/>
<polyline clip-path="url(#clip170)" style="stroke:#000000; stroke-linecap:round; stroke-linejoin:round; stroke-width:4; stroke-opacity:1; fill:none" points="1126.77,1423.18 1126.77,1404.28 "/>
<polyline clip-path="url(#clip170)" style="stroke:#000000; stroke-linecap:round; stroke-linejoin:round; stroke-width:4; stroke-opacity:1; fill:none" points="1517.25,1423.18 1517.25,1404.28 "/>
<polyline clip-path="url(#clip170)" style="stroke:#000000; stroke-linecap:round; stroke-linejoin:round; stroke-width:4; stroke-opacity:1; fill:none" points="1907.73,1423.18 1907.73,1404.28 "/>
<polyline clip-path="url(#clip170)" style="stroke:#000000; stroke-linecap:round; stroke-linejoin:round; stroke-width:4; stroke-opacity:1; fill:none" points="2298.21,1423.18 2298.21,1404.28 "/>
<path clip-path="url(#clip170)" d="M345.82 1454.1 Q342.209 1454.1 340.381 1457.66 Q338.575 1461.2 338.575 1468.33 Q338.575 1475.44 340.381 1479.01 Q342.209 1482.55 345.82 1482.55 Q349.455 1482.55 351.26 1479.01 Q353.089 1475.44 353.089 1468.33 Q353.089 1461.2 351.26 1457.66 Q349.455 1454.1 345.82 1454.1 M345.82 1450.39 Q351.63 1450.39 354.686 1455 Q357.765 1459.58 357.765 1468.33 Q357.765 1477.06 354.686 1481.67 Q351.63 1486.25 345.82 1486.25 Q340.01 1486.25 336.931 1481.67 Q333.876 1477.06 333.876 1468.33 Q333.876 1459.58 336.931 1455 Q340.01 1450.39 345.82 1450.39 Z" fill="#000000" fill-rule="nonzero" fill-opacity="1" /><path clip-path="url(#clip170)" d="M726.68 1481.64 L734.318 1481.64 L734.318 1455.28 L726.008 1456.95 L726.008 1452.69 L734.272 1451.02 L738.948 1451.02 L738.948 1481.64 L746.587 1481.64 L746.587 1485.58 L726.68 1485.58 L726.68 1481.64 Z" fill="#000000" fill-rule="nonzero" fill-opacity="1" /><path clip-path="url(#clip170)" d="M1121.43 1481.64 L1137.75 1481.64 L1137.75 1485.58 L1115.8 1485.58 L1115.8 1481.64 Q1118.46 1478.89 1123.05 1474.26 Q1127.65 1469.61 1128.83 1468.27 Q1131.08 1465.74 1131.96 1464.01 Q1132.86 1462.25 1132.86 1460.56 Q1132.86 1457.8 1130.92 1456.07 Q1129 1454.33 1125.9 1454.33 Q1123.7 1454.33 1121.24 1455.09 Q1118.81 1455.86 1116.03 1457.41 L1116.03 1452.69 Q1118.86 1451.55 1121.31 1450.97 Q1123.77 1450.39 1125.8 1450.39 Q1131.17 1450.39 1134.37 1453.08 Q1137.56 1455.77 1137.56 1460.26 Q1137.56 1462.39 1136.75 1464.31 Q1135.96 1466.2 1133.86 1468.8 Q1133.28 1469.47 1130.18 1472.69 Q1127.08 1475.88 1121.43 1481.64 Z" fill="#000000" fill-rule="nonzero" fill-opacity="1" /><path clip-path="url(#clip170)" d="M1521.5 1466.95 Q1524.86 1467.66 1526.73 1469.93 Q1528.63 1472.2 1528.63 1475.53 Q1528.63 1480.65 1525.11 1483.45 Q1521.59 1486.25 1515.11 1486.25 Q1512.93 1486.25 1510.62 1485.81 Q1508.33 1485.39 1505.87 1484.54 L1505.87 1480.02 Q1507.82 1481.16 1510.13 1481.74 Q1512.45 1482.32 1514.97 1482.32 Q1519.37 1482.32 1521.66 1480.58 Q1523.98 1478.84 1523.98 1475.53 Q1523.98 1472.48 1521.82 1470.77 Q1519.69 1469.03 1515.87 1469.03 L1511.85 1469.03 L1511.85 1465.19 L1516.06 1465.19 Q1519.51 1465.19 1521.34 1463.82 Q1523.17 1462.43 1523.17 1459.84 Q1523.17 1457.18 1521.27 1455.77 Q1519.39 1454.33 1515.87 1454.33 Q1513.95 1454.33 1511.75 1454.75 Q1509.56 1455.16 1506.92 1456.04 L1506.92 1451.88 Q1509.58 1451.14 1511.89 1450.77 Q1514.23 1450.39 1516.29 1450.39 Q1521.62 1450.39 1524.72 1452.83 Q1527.82 1455.23 1527.82 1459.35 Q1527.82 1462.22 1526.18 1464.21 Q1524.53 1466.18 1521.5 1466.95 Z" fill="#000000" fill-rule="nonzero" fill-opacity="1" /><path clip-path="url(#clip170)" d="M1910.74 1455.09 L1898.93 1473.54 L1910.74 1473.54 L1910.74 1455.09 M1909.51 1451.02 L1915.39 1451.02 L1915.39 1473.54 L1920.32 1473.54 L1920.32 1477.43 L1915.39 1477.43 L1915.39 1485.58 L1910.74 1485.58 L1910.74 1477.43 L1895.14 1477.43 L1895.14 1472.92 L1909.51 1451.02 Z" fill="#000000" fill-rule="nonzero" fill-opacity="1" /><path clip-path="url(#clip170)" d="M2288.48 1451.02 L2306.84 1451.02 L2306.84 1454.96 L2292.77 1454.96 L2292.77 1463.43 Q2293.78 1463.08 2294.8 1462.92 Q2295.82 1462.73 2296.84 1462.73 Q2302.63 1462.73 2306.01 1465.9 Q2309.39 1469.08 2309.39 1474.49 Q2309.39 1480.07 2305.91 1483.17 Q2302.44 1486.25 2296.12 1486.25 Q2293.95 1486.25 2291.68 1485.88 Q2289.43 1485.51 2287.03 1484.77 L2287.03 1480.07 Q2289.11 1481.2 2291.33 1481.76 Q2293.55 1482.32 2296.03 1482.32 Q2300.03 1482.32 2302.37 1480.21 Q2304.71 1478.1 2304.71 1474.49 Q2304.71 1470.88 2302.37 1468.77 Q2300.03 1466.67 2296.03 1466.67 Q2294.16 1466.67 2292.28 1467.08 Q2290.43 1467.5 2288.48 1468.38 L2288.48 1451.02 Z" fill="#000000" fill-rule="nonzero" fill-opacity="1" /><path clip-path="url(#clip170)" d="M1190.23 1520.52 L1230.43 1520.52 L1230.43 1525.93 L1213.56 1525.93 L1213.56 1568.04 L1207.1 1568.04 L1207.1 1525.93 L1190.23 1525.93 L1190.23 1520.52 Z" fill="#000000" fill-rule="nonzero" fill-opacity="1" /><path clip-path="url(#clip170)" d="M1234.38 1532.4 L1240.23 1532.4 L1240.23 1568.04 L1234.38 1568.04 L1234.38 1532.4 M1234.38 1518.52 L1240.23 1518.52 L1240.23 1525.93 L1234.38 1525.93 L1234.38 1518.52 Z" fill="#000000" fill-rule="nonzero" fill-opacity="1" /><path clip-path="url(#clip170)" d="M1280.24 1539.24 Q1282.44 1535.29 1285.5 1533.41 Q1288.55 1531.54 1292.69 1531.54 Q1298.26 1531.54 1301.28 1535.45 Q1304.31 1539.33 1304.31 1546.53 L1304.31 1568.04 L1298.42 1568.04 L1298.42 1546.72 Q1298.42 1541.59 1296.6 1539.11 Q1294.79 1536.63 1291.07 1536.63 Q1286.51 1536.63 1283.87 1539.65 Q1281.23 1542.68 1281.23 1547.9 L1281.23 1568.04 L1275.34 1568.04 L1275.34 1546.72 Q1275.34 1541.56 1273.53 1539.11 Q1271.71 1536.63 1267.93 1536.63 Q1263.44 1536.63 1260.8 1539.68 Q1258.15 1542.71 1258.15 1547.9 L1258.15 1568.04 L1252.27 1568.04 L1252.27 1532.4 L1258.15 1532.4 L1258.15 1537.93 Q1260.16 1534.66 1262.96 1533.1 Q1265.76 1531.54 1269.61 1531.54 Q1273.5 1531.54 1276.2 1533.51 Q1278.94 1535.48 1280.24 1539.24 Z" fill="#000000" fill-rule="nonzero" fill-opacity="1" /><path clip-path="url(#clip170)" d="M1346.48 1548.76 L1346.48 1551.62 L1319.55 1551.62 Q1319.93 1557.67 1323.18 1560.85 Q1326.46 1564 1332.28 1564 Q1335.66 1564 1338.81 1563.17 Q1341.99 1562.35 1345.11 1560.69 L1345.11 1566.23 Q1341.96 1567.57 1338.65 1568.27 Q1335.34 1568.97 1331.93 1568.97 Q1323.4 1568.97 1318.41 1564 Q1313.44 1559.04 1313.44 1550.57 Q1313.44 1541.82 1318.15 1536.69 Q1322.89 1531.54 1330.91 1531.54 Q1338.11 1531.54 1342.28 1536.18 Q1346.48 1540.8 1346.48 1548.76 M1340.62 1547.04 Q1340.56 1542.23 1337.92 1539.37 Q1335.31 1536.5 1330.98 1536.5 Q1326.08 1536.5 1323.12 1539.27 Q1320.19 1542.04 1319.74 1547.07 L1340.62 1547.04 Z" fill="#000000" fill-rule="nonzero" fill-opacity="1" /><path clip-path="url(#clip170)" d="M1390.88 1518.58 Q1386.61 1525.9 1384.55 1533.06 Q1382.48 1540.23 1382.48 1547.58 Q1382.48 1554.93 1384.55 1562.16 Q1386.65 1569.35 1390.88 1576.64 L1385.79 1576.64 Q1381.01 1569.16 1378.63 1561.93 Q1376.27 1554.71 1376.27 1547.58 Q1376.27 1540.48 1378.63 1533.29 Q1380.98 1526.09 1385.79 1518.58 L1390.88 1518.58 Z" fill="#000000" fill-rule="nonzero" fill-opacity="1" /><path clip-path="url(#clip170)" d="M1424.97 1533.45 L1424.97 1538.98 Q1422.49 1537.71 1419.81 1537.07 Q1417.14 1536.44 1414.27 1536.44 Q1409.91 1536.44 1407.72 1537.77 Q1405.55 1539.11 1405.55 1541.79 Q1405.55 1543.82 1407.11 1545 Q1408.67 1546.15 1413.38 1547.2 L1415.39 1547.64 Q1421.63 1548.98 1424.24 1551.43 Q1426.88 1553.85 1426.88 1558.21 Q1426.88 1563.17 1422.93 1566.07 Q1419.02 1568.97 1412.14 1568.97 Q1409.28 1568.97 1406.16 1568.39 Q1403.07 1567.85 1399.63 1566.74 L1399.63 1560.69 Q1402.88 1562.38 1406.03 1563.24 Q1409.18 1564.07 1412.27 1564.07 Q1416.41 1564.07 1418.63 1562.66 Q1420.86 1561.23 1420.86 1558.65 Q1420.86 1556.27 1419.24 1554.99 Q1417.65 1553.72 1412.2 1552.54 L1410.17 1552.07 Q1404.72 1550.92 1402.31 1548.56 Q1399.89 1546.18 1399.89 1542.04 Q1399.89 1537.01 1403.45 1534.27 Q1407.02 1531.54 1413.57 1531.54 Q1416.82 1531.54 1419.68 1532.01 Q1422.55 1532.49 1424.97 1533.45 Z" fill="#000000" fill-rule="nonzero" fill-opacity="1" /><path clip-path="url(#clip170)" d="M1435.28 1518.58 L1440.37 1518.58 Q1445.15 1526.09 1447.5 1533.29 Q1449.89 1540.48 1449.89 1547.58 Q1449.89 1554.71 1447.5 1561.93 Q1445.15 1569.16 1440.37 1576.64 L1435.28 1576.64 Q1439.51 1569.35 1441.58 1562.16 Q1443.68 1554.93 1443.68 1547.58 Q1443.68 1540.23 1441.58 1533.06 Q1439.51 1525.9 1435.28 1518.58 Z" fill="#000000" fill-rule="nonzero" fill-opacity="1" /><polyline clip-path="url(#clip170)" style="stroke:#000000; stroke-linecap:round; stroke-linejoin:round; stroke-width:4; stroke-opacity:1; fill:none" points="287.366,1423.18 287.366,847.244 "/>
<polyline clip-path="url(#clip170)" style="stroke:#000000; stroke-linecap:round; stroke-linejoin:round; stroke-width:4; stroke-opacity:1; fill:none" points="287.366,1406.88 306.264,1406.88 "/>
<polyline clip-path="url(#clip170)" style="stroke:#000000; stroke-linecap:round; stroke-linejoin:round; stroke-width:4; stroke-opacity:1; fill:none" points="287.366,1271.05 306.264,1271.05 "/>
<polyline clip-path="url(#clip170)" style="stroke:#000000; stroke-linecap:round; stroke-linejoin:round; stroke-width:4; stroke-opacity:1; fill:none" points="287.366,1135.21 306.264,1135.21 "/>
<polyline clip-path="url(#clip170)" style="stroke:#000000; stroke-linecap:round; stroke-linejoin:round; stroke-width:4; stroke-opacity:1; fill:none" points="287.366,999.378 306.264,999.378 "/>
<polyline clip-path="url(#clip170)" style="stroke:#000000; stroke-linecap:round; stroke-linejoin:round; stroke-width:4; stroke-opacity:1; fill:none" points="287.366,863.544 306.264,863.544 "/>
<path clip-path="url(#clip170)" d="M144.422 1407.33 L174.098 1407.33 L174.098 1411.27 L144.422 1411.27 L144.422 1407.33 Z" fill="#000000" fill-rule="nonzero" fill-opacity="1" /><path clip-path="url(#clip170)" d="M185.001 1420.22 L192.639 1420.22 L192.639 1393.86 L184.329 1395.53 L184.329 1391.27 L192.593 1389.6 L197.269 1389.6 L197.269 1420.22 L204.908 1420.22 L204.908 1424.16 L185.001 1424.16 L185.001 1420.22 Z" fill="#000000" fill-rule="nonzero" fill-opacity="1" /><path clip-path="url(#clip170)" d="M214.352 1418.28 L219.236 1418.28 L219.236 1424.16 L214.352 1424.16 L214.352 1418.28 Z" fill="#000000" fill-rule="nonzero" fill-opacity="1" /><path clip-path="url(#clip170)" d="M239.422 1392.68 Q235.81 1392.68 233.982 1396.24 Q232.176 1399.78 232.176 1406.91 Q232.176 1414.02 233.982 1417.59 Q235.81 1421.13 239.422 1421.13 Q243.056 1421.13 244.861 1417.59 Q246.69 1414.02 246.69 1406.91 Q246.69 1399.78 244.861 1396.24 Q243.056 1392.68 239.422 1392.68 M239.422 1388.97 Q245.232 1388.97 248.287 1393.58 Q251.366 1398.16 251.366 1406.91 Q251.366 1415.64 248.287 1420.25 Q245.232 1424.83 239.422 1424.83 Q233.611 1424.83 230.533 1420.25 Q227.477 1415.64 227.477 1406.91 Q227.477 1398.16 230.533 1393.58 Q233.611 1388.97 239.422 1388.97 Z" fill="#000000" fill-rule="nonzero" fill-opacity="1" /><path clip-path="url(#clip170)" d="M145.417 1271.5 L175.093 1271.5 L175.093 1275.43 L145.417 1275.43 L145.417 1271.5 Z" fill="#000000" fill-rule="nonzero" fill-opacity="1" /><path clip-path="url(#clip170)" d="M195.186 1256.84 Q191.575 1256.84 189.746 1260.41 Q187.94 1263.95 187.94 1271.08 Q187.94 1278.19 189.746 1281.75 Q191.575 1285.29 195.186 1285.29 Q198.82 1285.29 200.625 1281.75 Q202.454 1278.19 202.454 1271.08 Q202.454 1263.95 200.625 1260.41 Q198.82 1256.84 195.186 1256.84 M195.186 1253.14 Q200.996 1253.14 204.051 1257.75 Q207.13 1262.33 207.13 1271.08 Q207.13 1279.81 204.051 1284.41 Q200.996 1289 195.186 1289 Q189.375 1289 186.297 1284.41 Q183.241 1279.81 183.241 1271.08 Q183.241 1262.33 186.297 1257.75 Q189.375 1253.14 195.186 1253.14 Z" fill="#000000" fill-rule="nonzero" fill-opacity="1" /><path clip-path="url(#clip170)" d="M215.348 1282.45 L220.232 1282.45 L220.232 1288.33 L215.348 1288.33 L215.348 1282.45 Z" fill="#000000" fill-rule="nonzero" fill-opacity="1" /><path clip-path="url(#clip170)" d="M230.463 1253.77 L248.82 1253.77 L248.82 1257.7 L234.746 1257.7 L234.746 1266.17 Q235.764 1265.83 236.783 1265.66 Q237.801 1265.48 238.82 1265.48 Q244.607 1265.48 247.986 1268.65 Q251.366 1271.82 251.366 1277.24 Q251.366 1282.82 247.894 1285.92 Q244.421 1289 238.102 1289 Q235.926 1289 233.658 1288.63 Q231.412 1288.26 229.005 1287.52 L229.005 1282.82 Q231.088 1283.95 233.31 1284.51 Q235.533 1285.06 238.009 1285.06 Q242.014 1285.06 244.352 1282.96 Q246.69 1280.85 246.69 1277.24 Q246.69 1273.63 244.352 1271.52 Q242.014 1269.41 238.009 1269.41 Q236.135 1269.41 234.26 1269.83 Q232.408 1270.25 230.463 1271.13 L230.463 1253.77 Z" fill="#000000" fill-rule="nonzero" fill-opacity="1" /><path clip-path="url(#clip170)" d="M194.19 1121.01 Q190.579 1121.01 188.75 1124.58 Q186.945 1128.12 186.945 1135.25 Q186.945 1142.35 188.75 1145.92 Q190.579 1149.46 194.19 1149.46 Q197.825 1149.46 199.63 1145.92 Q201.459 1142.35 201.459 1135.25 Q201.459 1128.12 199.63 1124.58 Q197.825 1121.01 194.19 1121.01 M194.19 1117.31 Q200 1117.31 203.056 1121.91 Q206.135 1126.5 206.135 1135.25 Q206.135 1143.97 203.056 1148.58 Q200 1153.16 194.19 1153.16 Q188.38 1153.16 185.301 1148.58 Q182.246 1143.97 182.246 1135.25 Q182.246 1126.5 185.301 1121.91 Q188.38 1117.31 194.19 1117.31 Z" fill="#000000" fill-rule="nonzero" fill-opacity="1" /><path clip-path="url(#clip170)" d="M214.352 1146.61 L219.236 1146.61 L219.236 1152.49 L214.352 1152.49 L214.352 1146.61 Z" fill="#000000" fill-rule="nonzero" fill-opacity="1" /><path clip-path="url(#clip170)" d="M239.422 1121.01 Q235.81 1121.01 233.982 1124.58 Q232.176 1128.12 232.176 1135.25 Q232.176 1142.35 233.982 1145.92 Q235.81 1149.46 239.422 1149.46 Q243.056 1149.46 244.861 1145.92 Q246.69 1142.35 246.69 1135.25 Q246.69 1128.12 244.861 1124.58 Q243.056 1121.01 239.422 1121.01 M239.422 1117.31 Q245.232 1117.31 248.287 1121.91 Q251.366 1126.5 251.366 1135.25 Q251.366 1143.97 248.287 1148.58 Q245.232 1153.16 239.422 1153.16 Q233.611 1153.16 230.533 1148.58 Q227.477 1143.97 227.477 1135.25 Q227.477 1126.5 230.533 1121.91 Q233.611 1117.31 239.422 1117.31 Z" fill="#000000" fill-rule="nonzero" fill-opacity="1" /><path clip-path="url(#clip170)" d="M195.186 985.177 Q191.575 985.177 189.746 988.742 Q187.94 992.283 187.94 999.413 Q187.94 1006.52 189.746 1010.08 Q191.575 1013.63 195.186 1013.63 Q198.82 1013.63 200.625 1010.08 Q202.454 1006.52 202.454 999.413 Q202.454 992.283 200.625 988.742 Q198.82 985.177 195.186 985.177 M195.186 981.473 Q200.996 981.473 204.051 986.08 Q207.13 990.663 207.13 999.413 Q207.13 1008.14 204.051 1012.75 Q200.996 1017.33 195.186 1017.33 Q189.375 1017.33 186.297 1012.75 Q183.241 1008.14 183.241 999.413 Q183.241 990.663 186.297 986.08 Q189.375 981.473 195.186 981.473 Z" fill="#000000" fill-rule="nonzero" fill-opacity="1" /><path clip-path="url(#clip170)" d="M215.348 1010.78 L220.232 1010.78 L220.232 1016.66 L215.348 1016.66 L215.348 1010.78 Z" fill="#000000" fill-rule="nonzero" fill-opacity="1" /><path clip-path="url(#clip170)" d="M230.463 982.098 L248.82 982.098 L248.82 986.033 L234.746 986.033 L234.746 994.505 Q235.764 994.158 236.783 993.996 Q237.801 993.811 238.82 993.811 Q244.607 993.811 247.986 996.982 Q251.366 1000.15 251.366 1005.57 Q251.366 1011.15 247.894 1014.25 Q244.421 1017.33 238.102 1017.33 Q235.926 1017.33 233.658 1016.96 Q231.412 1016.59 229.005 1015.85 L229.005 1011.15 Q231.088 1012.28 233.31 1012.84 Q235.533 1013.39 238.009 1013.39 Q242.014 1013.39 244.352 1011.29 Q246.69 1009.18 246.69 1005.57 Q246.69 1001.96 244.352 999.853 Q242.014 997.746 238.009 997.746 Q236.135 997.746 234.26 998.163 Q232.408 998.579 230.463 999.459 L230.463 982.098 Z" fill="#000000" fill-rule="nonzero" fill-opacity="1" /><path clip-path="url(#clip170)" d="M185.001 876.889 L192.639 876.889 L192.639 850.523 L184.329 852.19 L184.329 847.931 L192.593 846.264 L197.269 846.264 L197.269 876.889 L204.908 876.889 L204.908 880.824 L185.001 880.824 L185.001 876.889 Z" fill="#000000" fill-rule="nonzero" fill-opacity="1" /><path clip-path="url(#clip170)" d="M214.352 874.945 L219.236 874.945 L219.236 880.824 L214.352 880.824 L214.352 874.945 Z" fill="#000000" fill-rule="nonzero" fill-opacity="1" /><path clip-path="url(#clip170)" d="M239.422 849.343 Q235.81 849.343 233.982 852.908 Q232.176 856.449 232.176 863.579 Q232.176 870.685 233.982 874.25 Q235.81 877.792 239.422 877.792 Q243.056 877.792 244.861 874.25 Q246.69 870.685 246.69 863.579 Q246.69 856.449 244.861 852.908 Q243.056 849.343 239.422 849.343 M239.422 845.639 Q245.232 845.639 248.287 850.246 Q251.366 854.829 251.366 863.579 Q251.366 872.306 248.287 876.912 Q245.232 881.495 239.422 881.495 Q233.611 881.495 230.533 876.912 Q227.477 872.306 227.477 863.579 Q227.477 854.829 230.533 850.246 Q233.611 845.639 239.422 845.639 Z" fill="#000000" fill-rule="nonzero" fill-opacity="1" /><path clip-path="url(#clip170)" d="M80.0978 1150.14 L58.5181 1150.14 L58.5181 1144.28 L79.875 1144.28 Q84.9358 1144.28 87.482 1142.31 Q89.9965 1140.34 89.9965 1136.39 Q89.9965 1131.65 86.9728 1128.91 Q83.9491 1126.14 78.7292 1126.14 L58.5181 1126.14 L58.5181 1120.28 L94.166 1120.28 L94.166 1126.14 L88.6915 1126.14 Q91.938 1128.27 93.5295 1131.11 Q95.0891 1133.91 95.0891 1137.63 Q95.0891 1143.77 91.2696 1146.96 Q87.4502 1150.14 80.0978 1150.14 M57.6587 1135.4 L57.6587 1135.4 Z" fill="#000000" fill-rule="nonzero" fill-opacity="1" /><polyline clip-path="url(#clip173)" style="stroke:#009af9; stroke-linecap:round; stroke-linejoin:round; stroke-width:4; stroke-opacity:1; fill:none" points="345.82,1406.88 349.725,1406.88 353.63,1406.88 357.535,1406.88 361.439,1406.88 365.344,1406.88 365.344,863.544 369.249,863.544 373.154,863.544 377.059,863.544 380.963,863.544 384.868,863.544 388.773,863.544 392.678,863.544 396.582,863.544 400.487,863.544 404.392,863.544 404.392,1406.88 408.297,1406.88 412.201,1406.88 416.106,1406.88 420.011,1406.88 423.916,1406.88 427.821,1406.88 431.725,1406.88 435.63,1406.88 439.535,1406.88 443.44,1406.88 443.44,863.544 447.344,863.544 451.249,863.544 455.154,863.544 459.059,863.544 462.963,863.544 462.963,1406.88 466.868,1406.88 470.773,1406.88 474.678,1406.88 478.583,1406.88 482.487,1406.88 482.487,863.544 486.392,863.544 490.297,863.544 494.202,863.544 498.106,863.544 502.011,863.544 505.916,863.544 509.821,863.544 513.726,863.544 517.63,863.544 521.535,863.544 525.44,863.544 529.345,863.544 533.249,863.544 537.154,863.544 541.059,863.544 541.059,1406.88 544.964,1406.88 548.868,1406.88 552.773,1406.88 556.678,1406.88 560.583,1406.88 560.583,863.544 564.488,863.544 568.392,863.544 572.297,863.544 576.202,863.544 580.107,863.544 584.011,863.544 587.916,863.544 591.821,863.544 595.726,863.544 599.631,863.544 599.631,1406.88 603.535,1406.88 607.44,1406.88 611.345,1406.88 615.25,1406.88 619.154,1406.88 623.059,1406.88 626.964,1406.88 630.869,1406.88 634.773,1406.88 638.678,1406.88 642.583,1406.88 646.488,1406.88 650.393,1406.88 654.297,1406.88 658.202,1406.88 662.107,1406.88 666.012,1406.88 669.916,1406.88 673.821,1406.88 677.726,1406.88 681.631,1406.88 685.535,1406.88 689.44,1406.88 693.345,1406.88 697.25,1406.88 701.155,1406.88 705.059,1406.88 708.964,1406.88 712.869,1406.88 716.774,1406.88 720.678,1406.88 724.583,1406.88 728.488,1406.88 732.393,1406.88 736.298,1406.88 740.202,1406.88 744.107,1406.88 748.012,1406.88 751.917,1406.88 755.821,1406.88 755.821,863.544 759.726,863.544 763.631,863.544 767.536,863.544 771.44,863.544 775.345,863.544 779.25,863.544 783.155,863.544 787.06,863.544 790.964,863.544 794.869,863.544 794.869,1406.88 798.774,1406.88 802.679,1406.88 806.583,1406.88 810.488,1406.88 814.393,1406.88 814.393,863.544 818.298,863.544 822.202,863.544 826.107,863.544 830.012,863.544 833.917,863.544 833.917,1406.88 837.822,1406.88 841.726,1406.88 845.631,1406.88 849.536,1406.88 853.441,1406.88 857.345,1406.88 861.25,1406.88 865.155,1406.88 869.06,1406.88 872.965,1406.88 872.965,863.544 876.869,863.544 880.774,863.544 884.679,863.544 888.584,863.544 892.488,863.544 892.488,1406.88 896.393,1406.88 900.298,1406.88 904.203,1406.88 908.107,1406.88 912.012,1406.88 912.012,863.544 915.917,863.544 919.822,863.544 923.727,863.544 927.631,863.544 931.536,863.544 935.441,863.544 939.346,863.544 943.25,863.544 947.155,863.544 951.06,863.544 951.06,1406.88 954.965,1406.88 958.87,1406.88 962.774,1406.88 966.679,1406.88 970.584,1406.88 970.584,863.544 974.489,863.544 978.393,863.544 982.298,863.544 986.203,863.544 990.108,863.544 990.108,1406.88 994.012,1406.88 997.917,1406.88 1001.82,1406.88 1005.73,1406.88 1009.63,1406.88 1013.54,1406.88 1017.44,1406.88 1021.35,1406.88 1025.25,1406.88 1029.16,1406.88 1029.16,863.544 1033.06,863.544 1036.96,863.544 1040.87,863.544 1044.77,863.544 1048.68,863.544 1048.68,1406.88 1052.58,1406.88 1056.49,1406.88 1060.39,1406.88 1064.3,1406.88 1068.2,1406.88 1068.2,863.544 1072.11,863.544 1076.01,863.544 1079.92,863.544 1083.82,863.544 1087.73,863.544 1091.63,863.544 1095.54,863.544 1099.44,863.544 1103.35,863.544 1107.25,863.544 1107.25,1406.88 1111.16,1406.88 1115.06,1406.88 1118.97,1406.88 1122.87,1406.88 1126.77,1406.88 1130.68,1406.88 1134.58,1406.88 1138.49,1406.88 1142.39,1406.88 1146.3,1406.88 1150.2,1406.88 1154.11,1406.88 1158.01,1406.88 1161.92,1406.88 1165.82,1406.88 1169.73,1406.88 1173.63,1406.88 1177.54,1406.88 1181.44,1406.88 1185.35,1406.88 1185.35,863.544 1189.25,863.544 1193.16,863.544 1197.06,863.544 1200.97,863.544 1204.87,863.544 1204.87,1406.88 1208.77,1406.88 1212.68,1406.88 1216.58,1406.88 1220.49,1406.88 1224.39,1406.88 1224.39,863.544 1228.3,863.544 1232.2,863.544 1236.11,863.544 1240.01,863.544 1243.92,863.544 1243.92,1406.88 1247.82,1406.88 1251.73,1406.88 1255.63,1406.88 1259.54,1406.88 1263.44,1406.88 1263.44,863.544 1267.35,863.544 1271.25,863.544 1275.16,863.544 1279.06,863.544 1282.97,863.544 1282.97,1406.88 1286.87,1406.88 1290.78,1406.88 1294.68,1406.88 1298.58,1406.88 1302.49,1406.88 1302.49,863.544 1306.39,863.544 1310.3,863.544 1314.2,863.544 1318.11,863.544 1322.01,863.544 1325.92,863.544 1329.82,863.544 1333.73,863.544 1337.63,863.544 1341.54,863.544 1341.54,1406.88 1345.44,1406.88 1349.35,1406.88 1353.25,1406.88 1357.16,1406.88 1361.06,1406.88 1361.06,863.544 1364.97,863.544 1368.87,863.544 1372.78,863.544 1376.68,863.544 1380.58,863.544 1384.49,863.544 1388.39,863.544 1392.3,863.544 1396.2,863.544 1400.11,863.544 1400.11,1406.88 1404.01,1406.88 1407.92,1406.88 1411.82,1406.88 1415.73,1406.88 1419.63,1406.88 1423.54,1406.88 1427.44,1406.88 1431.35,1406.88 1435.25,1406.88 1439.16,1406.88 1439.16,863.544 1443.06,863.544 1446.97,863.544 1450.87,863.544 1454.78,863.544 1458.68,863.544 1458.68,1406.88 1462.59,1406.88 1466.49,1406.88 1470.39,1406.88 1474.3,1406.88 1478.2,1406.88 1478.2,863.544 1482.11,863.544 1486.01,863.544 1489.92,863.544 1493.82,863.544 1497.73,863.544 1497.73,1406.88 1501.63,1406.88 1505.54,1406.88 1509.44,1406.88 1513.35,1406.88 1517.25,1406.88 1521.16,1406.88 1525.06,1406.88 1528.97,1406.88 1532.87,1406.88 1536.78,1406.88 1536.78,863.544 1540.68,863.544 1544.59,863.544 1548.49,863.544 1552.39,863.544 1556.3,863.544 1556.3,1406.88 1560.2,1406.88 1564.11,1406.88 1568.01,1406.88 1571.92,1406.88 1575.82,1406.88 1575.82,863.544 1579.73,863.544 1583.63,863.544 1587.54,863.544 1591.44,863.544 1595.35,863.544 1599.25,863.544 1603.16,863.544 1607.06,863.544 1610.97,863.544 1614.87,863.544 1618.78,863.544 1622.68,863.544 1626.59,863.544 1630.49,863.544 1634.4,863.544 1634.4,1406.88 1638.3,1406.88 1642.2,1406.88 1646.11,1406.88 1650.01,1406.88 1653.92,1406.88 1657.82,1406.88 1661.73,1406.88 1665.63,1406.88 1669.54,1406.88 1673.44,1406.88 1673.44,863.544 1677.35,863.544 1681.25,863.544 1685.16,863.544 1689.06,863.544 1692.97,863.544 1692.97,1406.88 1696.87,1406.88 1700.78,1406.88 1704.68,1406.88 1708.59,1406.88 1712.49,1406.88 1716.4,1406.88 1720.3,1406.88 1724.2,1406.88 1728.11,1406.88 1732.01,1406.88 1732.01,863.544 1735.92,863.544 1739.82,863.544 1743.73,863.544 1747.63,863.544 1751.54,863.544 1755.44,863.544 1759.35,863.544 1763.25,863.544 1767.16,863.544 1771.06,863.544 1771.06,1406.88 1774.97,1406.88 1778.87,1406.88 1782.78,1406.88 1786.68,1406.88 1790.59,1406.88 1790.59,863.544 1794.49,863.544 1798.4,863.544 1802.3,863.544 1806.2,863.544 1810.11,863.544 1814.01,863.544 1817.92,863.544 1821.82,863.544 1825.73,863.544 1829.63,863.544 1829.63,1406.88 1833.54,1406.88 1837.44,1406.88 1841.35,1406.88 1845.25,1406.88 1849.16,1406.88 1853.06,1406.88 1856.97,1406.88 1860.87,1406.88 1864.78,1406.88 1868.68,1406.88 1872.59,1406.88 1876.49,1406.88 1880.4,1406.88 1884.3,1406.88 1888.21,1406.88 1888.21,863.544 1892.11,863.544 1896.01,863.544 1899.92,863.544 1903.82,863.544 1907.73,863.544 1907.73,1406.88 1911.63,1406.88 1915.54,1406.88 1919.44,1406.88 1923.35,1406.88 1927.25,1406.88 1931.16,1406.88 1935.06,1406.88 1938.97,1406.88 1942.87,1406.88 1946.78,1406.88 1950.68,1406.88 1954.59,1406.88 1958.49,1406.88 1962.4,1406.88 1966.3,1406.88 1966.3,863.544 1970.21,863.544 1974.11,863.544 1978.01,863.544 1981.92,863.544 1985.82,863.544 1985.82,1406.88 1989.73,1406.88 1993.63,1406.88 1997.54,1406.88 2001.44,1406.88 2005.35,1406.88 2005.35,863.544 2009.25,863.544 2013.16,863.544 2017.06,863.544 2020.97,863.544 2024.87,863.544 2028.78,863.544 2032.68,863.544 2036.59,863.544 2040.49,863.544 2044.4,863.544 2048.3,863.544 2052.21,863.544 2056.11,863.544 2060.02,863.544 2063.92,863.544 2063.92,1406.88 2067.82,1406.88 2071.73,1406.88 2075.63,1406.88 2079.54,1406.88 2083.44,1406.88 2087.35,1406.88 2091.25,1406.88 2095.16,1406.88 2099.06,1406.88 2102.97,1406.88 2106.87,1406.88 2110.78,1406.88 2114.68,1406.88 2118.59,1406.88 2122.49,1406.88 2122.49,863.544 2126.4,863.544 2130.3,863.544 2134.21,863.544 2138.11,863.544 2142.02,863.544 2145.92,863.544 2149.82,863.544 2153.73,863.544 2157.63,863.544 2161.54,863.544 2165.44,863.544 2169.35,863.544 2173.25,863.544 2177.16,863.544 2181.06,863.544 2184.97,863.544 2188.87,863.544 2192.78,863.544 2196.68,863.544 2200.59,863.544 2200.59,1406.88 2204.49,1406.88 2208.4,1406.88 2212.3,1406.88 2216.21,1406.88 2220.11,1406.88 2224.02,1406.88 2227.92,1406.88 2231.83,1406.88 2235.73,1406.88 2239.63,1406.88 2239.63,863.544 2243.54,863.544 2247.44,863.544 2251.35,863.544 2255.25,863.544 2259.16,863.544 2263.06,863.544 2266.97,863.544 2270.87,863.544 2274.78,863.544 2278.68,863.544 2278.68,1406.88 2282.59,1406.88 2286.49,1406.88 2290.4,1406.88 2294.3,1406.88 "/>
</svg>
