<?xml version="1.0" encoding="utf-8"?>
<svg xmlns="http://www.w3.org/2000/svg" xmlns:xlink="http://www.w3.org/1999/xlink" width="600" height="400" viewBox="0 0 2400 1600">
<defs>
  <clipPath id="clip930">
    <rect x="0" y="0" width="2400" height="1600"/>
  </clipPath>
</defs>
<path clip-path="url(#clip930)" d="M0 1600 L2400 1600 L2400 0 L0 0  Z" fill="#ffffff" fill-rule="evenodd" fill-opacity="1"/>
<defs>
  <clipPath id="clip931">
    <rect x="480" y="0" width="1681" height="1600"/>
  </clipPath>
</defs>
<path clip-path="url(#clip930)" d="M257.204 1423.18 L2352.76 1423.18 L2352.76 47.2441 L257.204 47.2441  Z" fill="#ffffff" fill-rule="evenodd" fill-opacity="1"/>
<defs>
  <clipPath id="clip932">
    <rect x="257" y="47" width="2097" height="1377"/>
  </clipPath>
</defs>
<polyline clip-path="url(#clip932)" style="stroke:#000000; stroke-linecap:round; stroke-linejoin:round; stroke-width:2; stroke-opacity:0.1; fill:none" points="316.512,1423.18 316.512,47.2441 "/>
<polyline clip-path="url(#clip932)" style="stroke:#000000; stroke-linecap:round; stroke-linejoin:round; stroke-width:2; stroke-opacity:0.1; fill:none" points="711.899,1423.18 711.899,47.2441 "/>
<polyline clip-path="url(#clip932)" style="stroke:#000000; stroke-linecap:round; stroke-linejoin:round; stroke-width:2; stroke-opacity:0.1; fill:none" points="1107.29,1423.18 1107.29,47.2441 "/>
<polyline clip-path="url(#clip932)" style="stroke:#000000; stroke-linecap:round; stroke-linejoin:round; stroke-width:2; stroke-opacity:0.1; fill:none" points="1502.67,1423.18 1502.67,47.2441 "/>
<polyline clip-path="url(#clip932)" style="stroke:#000000; stroke-linecap:round; stroke-linejoin:round; stroke-width:2; stroke-opacity:0.1; fill:none" points="1898.06,1423.18 1898.06,47.2441 "/>
<polyline clip-path="url(#clip932)" style="stroke:#000000; stroke-linecap:round; stroke-linejoin:round; stroke-width:2; stroke-opacity:0.1; fill:none" points="2293.45,1423.18 2293.45,47.2441 "/>
<polyline clip-path="url(#clip932)" style="stroke:#000000; stroke-linecap:round; stroke-linejoin:round; stroke-width:2; stroke-opacity:0.1; fill:none" points="257.204,1343.4 2352.76,1343.4 "/>
<polyline clip-path="url(#clip932)" style="stroke:#000000; stroke-linecap:round; stroke-linejoin:round; stroke-width:2; stroke-opacity:0.1; fill:none" points="257.204,1035.41 2352.76,1035.41 "/>
<polyline clip-path="url(#clip932)" style="stroke:#000000; stroke-linecap:round; stroke-linejoin:round; stroke-width:2; stroke-opacity:0.1; fill:none" points="257.204,727.414 2352.76,727.414 "/>
<polyline clip-path="url(#clip932)" style="stroke:#000000; stroke-linecap:round; stroke-linejoin:round; stroke-width:2; stroke-opacity:0.1; fill:none" points="257.204,419.421 2352.76,419.421 "/>
<polyline clip-path="url(#clip932)" style="stroke:#000000; stroke-linecap:round; stroke-linejoin:round; stroke-width:2; stroke-opacity:0.1; fill:none" points="257.204,111.428 2352.76,111.428 "/>
<polyline clip-path="url(#clip930)" style="stroke:#000000; stroke-linecap:round; stroke-linejoin:round; stroke-width:4; stroke-opacity:1; fill:none" points="257.204,1423.18 2352.76,1423.18 "/>
<polyline clip-path="url(#clip930)" style="stroke:#000000; stroke-linecap:round; stroke-linejoin:round; stroke-width:4; stroke-opacity:1; fill:none" points="316.512,1423.18 316.512,1404.28 "/>
<polyline clip-path="url(#clip930)" style="stroke:#000000; stroke-linecap:round; stroke-linejoin:round; stroke-width:4; stroke-opacity:1; fill:none" points="711.899,1423.18 711.899,1404.28 "/>
<polyline clip-path="url(#clip930)" style="stroke:#000000; stroke-linecap:round; stroke-linejoin:round; stroke-width:4; stroke-opacity:1; fill:none" points="1107.29,1423.18 1107.29,1404.28 "/>
<polyline clip-path="url(#clip930)" style="stroke:#000000; stroke-linecap:round; stroke-linejoin:round; stroke-width:4; stroke-opacity:1; fill:none" points="1502.67,1423.18 1502.67,1404.28 "/>
<polyline clip-path="url(#clip930)" style="stroke:#000000; stroke-linecap:round; stroke-linejoin:round; stroke-width:4; stroke-opacity:1; fill:none" points="1898.06,1423.18 1898.06,1404.28 "/>
<polyline clip-path="url(#clip930)" style="stroke:#000000; stroke-linecap:round; stroke-linejoin:round; stroke-width:4; stroke-opacity:1; fill:none" points="2293.45,1423.18 2293.45,1404.28 "/>
<path clip-path="url(#clip930)" d="M316.512 1454.1 Q312.901 1454.1 311.072 1457.66 Q309.267 1461.2 309.267 1468.33 Q309.267 1475.44 311.072 1479.01 Q312.901 1482.55 316.512 1482.55 Q320.146 1482.55 321.952 1479.01 Q323.781 1475.44 323.781 1468.33 Q323.781 1461.2 321.952 1457.66 Q320.146 1454.1 316.512 1454.1 M316.512 1450.39 Q322.322 1450.39 325.378 1455 Q328.456 1459.58 328.456 1468.33 Q328.456 1477.06 325.378 1481.67 Q322.322 1486.25 316.512 1486.25 Q310.702 1486.25 307.623 1481.67 Q304.568 1477.06 304.568 1468.33 Q304.568 1459.58 307.623 1455 Q310.702 1450.39 316.512 1450.39 Z" fill="#000000" fill-rule="nonzero" fill-opacity="1" /><path clip-path="url(#clip930)" d="M686.587 1481.64 L694.226 1481.64 L694.226 1455.28 L685.916 1456.95 L685.916 1452.69 L694.179 1451.02 L698.855 1451.02 L698.855 1481.64 L706.494 1481.64 L706.494 1485.58 L686.587 1485.58 L686.587 1481.64 Z" fill="#000000" fill-rule="nonzero" fill-opacity="1" /><path clip-path="url(#clip930)" d="M725.939 1454.1 Q722.327 1454.1 720.499 1457.66 Q718.693 1461.2 718.693 1468.33 Q718.693 1475.44 720.499 1479.01 Q722.327 1482.55 725.939 1482.55 Q729.573 1482.55 731.378 1479.01 Q733.207 1475.44 733.207 1468.33 Q733.207 1461.2 731.378 1457.66 Q729.573 1454.1 725.939 1454.1 M725.939 1450.39 Q731.749 1450.39 734.804 1455 Q737.883 1459.58 737.883 1468.33 Q737.883 1477.06 734.804 1481.67 Q731.749 1486.25 725.939 1486.25 Q720.128 1486.25 717.05 1481.67 Q713.994 1477.06 713.994 1468.33 Q713.994 1459.58 717.05 1455 Q720.128 1450.39 725.939 1450.39 Z" fill="#000000" fill-rule="nonzero" fill-opacity="1" /><path clip-path="url(#clip930)" d="M1086.06 1481.64 L1102.38 1481.64 L1102.38 1485.58 L1080.43 1485.58 L1080.43 1481.64 Q1083.1 1478.89 1087.68 1474.26 Q1092.29 1469.61 1093.47 1468.27 Q1095.71 1465.74 1096.59 1464.01 Q1097.49 1462.25 1097.49 1460.56 Q1097.49 1457.8 1095.55 1456.07 Q1093.63 1454.33 1090.53 1454.33 Q1088.33 1454.33 1085.87 1455.09 Q1083.44 1455.86 1080.67 1457.41 L1080.67 1452.69 Q1083.49 1451.55 1085.94 1450.97 Q1088.4 1450.39 1090.43 1450.39 Q1095.8 1450.39 1099 1453.08 Q1102.19 1455.77 1102.19 1460.26 Q1102.19 1462.39 1101.38 1464.31 Q1100.6 1466.2 1098.49 1468.8 Q1097.91 1469.47 1094.81 1472.69 Q1091.71 1475.88 1086.06 1481.64 Z" fill="#000000" fill-rule="nonzero" fill-opacity="1" /><path clip-path="url(#clip930)" d="M1122.19 1454.1 Q1118.58 1454.1 1116.75 1457.66 Q1114.95 1461.2 1114.95 1468.33 Q1114.95 1475.44 1116.75 1479.01 Q1118.58 1482.55 1122.19 1482.55 Q1125.83 1482.55 1127.63 1479.01 Q1129.46 1475.44 1129.46 1468.33 Q1129.46 1461.2 1127.63 1457.66 Q1125.83 1454.1 1122.19 1454.1 M1122.19 1450.39 Q1128 1450.39 1131.06 1455 Q1134.14 1459.58 1134.14 1468.33 Q1134.14 1477.06 1131.06 1481.67 Q1128 1486.25 1122.19 1486.25 Q1116.38 1486.25 1113.3 1481.67 Q1110.25 1477.06 1110.25 1468.33 Q1110.25 1459.58 1113.3 1455 Q1116.38 1450.39 1122.19 1450.39 Z" fill="#000000" fill-rule="nonzero" fill-opacity="1" /><path clip-path="url(#clip930)" d="M1491.52 1466.95 Q1494.87 1467.66 1496.75 1469.93 Q1498.65 1472.2 1498.65 1475.53 Q1498.65 1480.65 1495.13 1483.45 Q1491.61 1486.25 1485.13 1486.25 Q1482.95 1486.25 1480.64 1485.81 Q1478.34 1485.39 1475.89 1484.54 L1475.89 1480.02 Q1477.84 1481.16 1480.15 1481.74 Q1482.47 1482.32 1484.99 1482.32 Q1489.39 1482.32 1491.68 1480.58 Q1493.99 1478.84 1493.99 1475.53 Q1493.99 1472.48 1491.84 1470.77 Q1489.71 1469.03 1485.89 1469.03 L1481.86 1469.03 L1481.86 1465.19 L1486.08 1465.19 Q1489.53 1465.19 1491.35 1463.82 Q1493.18 1462.43 1493.18 1459.84 Q1493.18 1457.18 1491.28 1455.77 Q1489.41 1454.33 1485.89 1454.33 Q1483.97 1454.33 1481.77 1454.75 Q1479.57 1455.16 1476.93 1456.04 L1476.93 1451.88 Q1479.59 1451.14 1481.91 1450.77 Q1484.25 1450.39 1486.31 1450.39 Q1491.63 1450.39 1494.73 1452.83 Q1497.84 1455.23 1497.84 1459.35 Q1497.84 1462.22 1496.19 1464.21 Q1494.55 1466.18 1491.52 1466.95 Z" fill="#000000" fill-rule="nonzero" fill-opacity="1" /><path clip-path="url(#clip930)" d="M1517.51 1454.1 Q1513.9 1454.1 1512.07 1457.66 Q1510.27 1461.2 1510.27 1468.33 Q1510.27 1475.44 1512.07 1479.01 Q1513.9 1482.55 1517.51 1482.55 Q1521.15 1482.55 1522.95 1479.01 Q1524.78 1475.44 1524.78 1468.33 Q1524.78 1461.2 1522.95 1457.66 Q1521.15 1454.1 1517.51 1454.1 M1517.51 1450.39 Q1523.32 1450.39 1526.38 1455 Q1529.46 1459.58 1529.46 1468.33 Q1529.46 1477.06 1526.38 1481.67 Q1523.32 1486.25 1517.51 1486.25 Q1511.7 1486.25 1508.62 1481.67 Q1505.57 1477.06 1505.57 1468.33 Q1505.57 1459.58 1508.62 1455 Q1511.7 1450.39 1517.51 1450.39 Z" fill="#000000" fill-rule="nonzero" fill-opacity="1" /><path clip-path="url(#clip930)" d="M1886.23 1455.09 L1874.43 1473.54 L1886.23 1473.54 L1886.23 1455.09 M1885.01 1451.02 L1890.88 1451.02 L1890.88 1473.54 L1895.82 1473.54 L1895.82 1477.43 L1890.88 1477.43 L1890.88 1485.58 L1886.23 1485.58 L1886.23 1477.43 L1870.63 1477.43 L1870.63 1472.92 L1885.01 1451.02 Z" fill="#000000" fill-rule="nonzero" fill-opacity="1" /><path clip-path="url(#clip930)" d="M1913.55 1454.1 Q1909.94 1454.1 1908.11 1457.66 Q1906.3 1461.2 1906.3 1468.33 Q1906.3 1475.44 1908.11 1479.01 Q1909.94 1482.55 1913.55 1482.55 Q1917.18 1482.55 1918.99 1479.01 Q1920.82 1475.44 1920.82 1468.33 Q1920.82 1461.2 1918.99 1457.66 Q1917.18 1454.1 1913.55 1454.1 M1913.55 1450.39 Q1919.36 1450.39 1922.41 1455 Q1925.49 1459.58 1925.49 1468.33 Q1925.49 1477.06 1922.41 1481.67 Q1919.36 1486.25 1913.55 1486.25 Q1907.74 1486.25 1904.66 1481.67 Q1901.6 1477.06 1901.6 1468.33 Q1901.6 1459.58 1904.66 1455 Q1907.74 1450.39 1913.55 1450.39 Z" fill="#000000" fill-rule="nonzero" fill-opacity="1" /><path clip-path="url(#clip930)" d="M2268.15 1451.02 L2286.5 1451.02 L2286.5 1454.96 L2272.43 1454.96 L2272.43 1463.43 Q2273.45 1463.08 2274.47 1462.92 Q2275.48 1462.73 2276.5 1462.73 Q2282.29 1462.73 2285.67 1465.9 Q2289.05 1469.08 2289.05 1474.49 Q2289.05 1480.07 2285.58 1483.17 Q2282.11 1486.25 2275.79 1486.25 Q2273.61 1486.25 2271.34 1485.88 Q2269.1 1485.51 2266.69 1484.77 L2266.69 1480.07 Q2268.77 1481.2 2270.99 1481.76 Q2273.22 1482.32 2275.69 1482.32 Q2279.7 1482.32 2282.04 1480.21 Q2284.37 1478.1 2284.37 1474.49 Q2284.37 1470.88 2282.04 1468.77 Q2279.7 1466.67 2275.69 1466.67 Q2273.82 1466.67 2271.94 1467.08 Q2270.09 1467.5 2268.15 1468.38 L2268.15 1451.02 Z" fill="#000000" fill-rule="nonzero" fill-opacity="1" /><path clip-path="url(#clip930)" d="M2308.26 1454.1 Q2304.65 1454.1 2302.82 1457.66 Q2301.02 1461.2 2301.02 1468.33 Q2301.02 1475.44 2302.82 1479.01 Q2304.65 1482.55 2308.26 1482.55 Q2311.9 1482.55 2313.7 1479.01 Q2315.53 1475.44 2315.53 1468.33 Q2315.53 1461.2 2313.7 1457.66 Q2311.9 1454.1 2308.26 1454.1 M2308.26 1450.39 Q2314.07 1450.39 2317.13 1455 Q2320.21 1459.58 2320.21 1468.33 Q2320.21 1477.06 2317.13 1481.67 Q2314.07 1486.25 2308.26 1486.25 Q2302.45 1486.25 2299.37 1481.67 Q2296.32 1477.06 2296.32 1468.33 Q2296.32 1459.58 2299.37 1455 Q2302.45 1450.39 2308.26 1450.39 Z" fill="#000000" fill-rule="nonzero" fill-opacity="1" /><path clip-path="url(#clip930)" d="M1175.15 1520.52 L1215.35 1520.52 L1215.35 1525.93 L1198.48 1525.93 L1198.48 1568.04 L1192.02 1568.04 L1192.02 1525.93 L1175.15 1525.93 L1175.15 1520.52 Z" fill="#000000" fill-rule="nonzero" fill-opacity="1" /><path clip-path="url(#clip930)" d="M1219.3 1532.4 L1225.15 1532.4 L1225.15 1568.04 L1219.3 1568.04 L1219.3 1532.4 M1219.3 1518.52 L1225.15 1518.52 L1225.15 1525.93 L1219.3 1525.93 L1219.3 1518.52 Z" fill="#000000" fill-rule="nonzero" fill-opacity="1" /><path clip-path="url(#clip930)" d="M1265.16 1539.24 Q1267.36 1535.29 1270.41 1533.41 Q1273.47 1531.54 1277.61 1531.54 Q1283.18 1531.54 1286.2 1535.45 Q1289.22 1539.33 1289.22 1546.53 L1289.22 1568.04 L1283.34 1568.04 L1283.34 1546.72 Q1283.34 1541.59 1281.52 1539.11 Q1279.71 1536.63 1275.98 1536.63 Q1271.43 1536.63 1268.79 1539.65 Q1266.15 1542.68 1266.15 1547.9 L1266.15 1568.04 L1260.26 1568.04 L1260.26 1546.72 Q1260.26 1541.56 1258.45 1539.11 Q1256.63 1536.63 1252.84 1536.63 Q1248.36 1536.63 1245.72 1539.68 Q1243.07 1542.71 1243.07 1547.9 L1243.07 1568.04 L1237.19 1568.04 L1237.19 1532.4 L1243.07 1532.4 L1243.07 1537.93 Q1245.08 1534.66 1247.88 1533.1 Q1250.68 1531.54 1254.53 1531.54 Q1258.41 1531.54 1261.12 1533.51 Q1263.86 1535.48 1265.16 1539.24 Z" fill="#000000" fill-rule="nonzero" fill-opacity="1" /><path clip-path="url(#clip930)" d="M1331.4 1548.76 L1331.4 1551.62 L1304.47 1551.62 Q1304.85 1557.67 1308.1 1560.85 Q1311.38 1564 1317.2 1564 Q1320.58 1564 1323.73 1563.17 Q1326.91 1562.35 1330.03 1560.69 L1330.03 1566.23 Q1326.88 1567.57 1323.57 1568.27 Q1320.26 1568.97 1316.85 1568.97 Q1308.32 1568.97 1303.32 1564 Q1298.36 1559.04 1298.36 1550.57 Q1298.36 1541.82 1303.07 1536.69 Q1307.81 1531.54 1315.83 1531.54 Q1323.03 1531.54 1327.2 1536.18 Q1331.4 1540.8 1331.4 1548.76 M1325.54 1547.04 Q1325.48 1542.23 1322.84 1539.37 Q1320.23 1536.5 1315.9 1536.5 Q1311 1536.5 1308.04 1539.27 Q1305.11 1542.04 1304.66 1547.07 L1325.54 1547.04 Z" fill="#000000" fill-rule="nonzero" fill-opacity="1" /><path clip-path="url(#clip930)" d="M1361.19 1518.52 L1374.68 1518.52 L1374.68 1523.07 L1367.05 1523.07 L1367.05 1572.09 L1374.68 1572.09 L1374.68 1576.64 L1361.19 1576.64 L1361.19 1518.52 Z" fill="#000000" fill-rule="nonzero" fill-opacity="1" /><path clip-path="url(#clip930)" d="M1409.89 1533.45 L1409.89 1538.98 Q1407.4 1537.71 1404.73 1537.07 Q1402.06 1536.44 1399.19 1536.44 Q1394.83 1536.44 1392.64 1537.77 Q1390.47 1539.11 1390.47 1541.79 Q1390.47 1543.82 1392.03 1545 Q1393.59 1546.15 1398.3 1547.2 L1400.31 1547.64 Q1406.54 1548.98 1409.15 1551.43 Q1411.8 1553.85 1411.8 1558.21 Q1411.8 1563.17 1407.85 1566.07 Q1403.93 1568.97 1397.06 1568.97 Q1394.2 1568.97 1391.08 1568.39 Q1387.99 1567.85 1384.55 1566.74 L1384.55 1560.69 Q1387.8 1562.38 1390.95 1563.24 Q1394.1 1564.07 1397.19 1564.07 Q1401.32 1564.07 1403.55 1562.66 Q1405.78 1561.23 1405.78 1558.65 Q1405.78 1556.27 1404.16 1554.99 Q1402.57 1553.72 1397.12 1552.54 L1395.09 1552.07 Q1389.64 1550.92 1387.22 1548.56 Q1384.81 1546.18 1384.81 1542.04 Q1384.81 1537.01 1388.37 1534.27 Q1391.94 1531.54 1398.49 1531.54 Q1401.74 1531.54 1404.6 1532.01 Q1407.47 1532.49 1409.89 1533.45 Z" fill="#000000" fill-rule="nonzero" fill-opacity="1" /><path clip-path="url(#clip930)" d="M1434.81 1518.52 L1434.81 1576.64 L1421.31 1576.64 L1421.31 1572.09 L1428.92 1572.09 L1428.92 1523.07 L1421.31 1523.07 L1421.31 1518.52 L1434.81 1518.52 Z" fill="#000000" fill-rule="nonzero" fill-opacity="1" /><polyline clip-path="url(#clip930)" style="stroke:#000000; stroke-linecap:round; stroke-linejoin:round; stroke-width:4; stroke-opacity:1; fill:none" points="257.204,1423.18 257.204,47.2441 "/>
<polyline clip-path="url(#clip930)" style="stroke:#000000; stroke-linecap:round; stroke-linejoin:round; stroke-width:4; stroke-opacity:1; fill:none" points="257.204,1343.4 276.102,1343.4 "/>
<polyline clip-path="url(#clip930)" style="stroke:#000000; stroke-linecap:round; stroke-linejoin:round; stroke-width:4; stroke-opacity:1; fill:none" points="257.204,1035.41 276.102,1035.41 "/>
<polyline clip-path="url(#clip930)" style="stroke:#000000; stroke-linecap:round; stroke-linejoin:round; stroke-width:4; stroke-opacity:1; fill:none" points="257.204,727.414 276.102,727.414 "/>
<polyline clip-path="url(#clip930)" style="stroke:#000000; stroke-linecap:round; stroke-linejoin:round; stroke-width:4; stroke-opacity:1; fill:none" points="257.204,419.421 276.102,419.421 "/>
<polyline clip-path="url(#clip930)" style="stroke:#000000; stroke-linecap:round; stroke-linejoin:round; stroke-width:4; stroke-opacity:1; fill:none" points="257.204,111.428 276.102,111.428 "/>
<path clip-path="url(#clip930)" d="M114.26 1343.85 L143.936 1343.85 L143.936 1347.79 L114.26 1347.79 L114.26 1343.85 Z" fill="#000000" fill-rule="nonzero" fill-opacity="1" /><path clip-path="url(#clip930)" d="M154.839 1356.74 L162.477 1356.74 L162.477 1330.38 L154.167 1332.05 L154.167 1327.79 L162.431 1326.12 L167.107 1326.12 L167.107 1356.74 L174.746 1356.74 L174.746 1360.68 L154.839 1360.68 L154.839 1356.74 Z" fill="#000000" fill-rule="nonzero" fill-opacity="1" /><path clip-path="url(#clip930)" d="M184.19 1354.8 L189.075 1354.8 L189.075 1360.68 L184.19 1360.68 L184.19 1354.8 Z" fill="#000000" fill-rule="nonzero" fill-opacity="1" /><path clip-path="url(#clip930)" d="M209.26 1329.2 Q205.649 1329.2 203.82 1332.76 Q202.014 1336.3 202.014 1343.43 Q202.014 1350.54 203.82 1354.11 Q205.649 1357.65 209.26 1357.65 Q212.894 1357.65 214.699 1354.11 Q216.528 1350.54 216.528 1343.43 Q216.528 1336.3 214.699 1332.76 Q212.894 1329.2 209.26 1329.2 M209.26 1325.49 Q215.07 1325.49 218.125 1330.1 Q221.204 1334.68 221.204 1343.43 Q221.204 1352.16 218.125 1356.77 Q215.07 1361.35 209.26 1361.35 Q203.449 1361.35 200.371 1356.77 Q197.315 1352.16 197.315 1343.43 Q197.315 1334.68 200.371 1330.1 Q203.449 1325.49 209.26 1325.49 Z" fill="#000000" fill-rule="nonzero" fill-opacity="1" /><path clip-path="url(#clip930)" d="M115.256 1035.86 L144.931 1035.86 L144.931 1039.79 L115.256 1039.79 L115.256 1035.86 Z" fill="#000000" fill-rule="nonzero" fill-opacity="1" /><path clip-path="url(#clip930)" d="M165.024 1021.21 Q161.413 1021.21 159.584 1024.77 Q157.778 1028.31 157.778 1035.44 Q157.778 1042.55 159.584 1046.11 Q161.413 1049.65 165.024 1049.65 Q168.658 1049.65 170.464 1046.11 Q172.292 1042.55 172.292 1035.44 Q172.292 1028.31 170.464 1024.77 Q168.658 1021.21 165.024 1021.21 M165.024 1017.5 Q170.834 1017.5 173.889 1022.11 Q176.968 1026.69 176.968 1035.44 Q176.968 1044.17 173.889 1048.77 Q170.834 1053.36 165.024 1053.36 Q159.214 1053.36 156.135 1048.77 Q153.079 1044.17 153.079 1035.44 Q153.079 1026.69 156.135 1022.11 Q159.214 1017.5 165.024 1017.5 Z" fill="#000000" fill-rule="nonzero" fill-opacity="1" /><path clip-path="url(#clip930)" d="M185.186 1046.81 L190.07 1046.81 L190.07 1052.69 L185.186 1052.69 L185.186 1046.81 Z" fill="#000000" fill-rule="nonzero" fill-opacity="1" /><path clip-path="url(#clip930)" d="M200.301 1018.13 L218.658 1018.13 L218.658 1022.06 L204.584 1022.06 L204.584 1030.53 Q205.602 1030.19 206.621 1030.02 Q207.639 1029.84 208.658 1029.84 Q214.445 1029.84 217.824 1033.01 Q221.204 1036.18 221.204 1041.6 Q221.204 1047.18 217.732 1050.28 Q214.26 1053.36 207.94 1053.36 Q205.764 1053.36 203.496 1052.99 Q201.25 1052.62 198.843 1051.88 L198.843 1047.18 Q200.926 1048.31 203.149 1048.87 Q205.371 1049.42 207.848 1049.42 Q211.852 1049.42 214.19 1047.32 Q216.528 1045.21 216.528 1041.6 Q216.528 1037.99 214.19 1035.88 Q211.852 1033.77 207.848 1033.77 Q205.973 1033.77 204.098 1034.19 Q202.246 1034.61 200.301 1035.49 L200.301 1018.13 Z" fill="#000000" fill-rule="nonzero" fill-opacity="1" /><path clip-path="url(#clip930)" d="M164.028 713.212 Q160.417 713.212 158.589 716.777 Q156.783 720.319 156.783 727.448 Q156.783 734.555 158.589 738.12 Q160.417 741.661 164.028 741.661 Q167.663 741.661 169.468 738.12 Q171.297 734.555 171.297 727.448 Q171.297 720.319 169.468 716.777 Q167.663 713.212 164.028 713.212 M164.028 709.509 Q169.839 709.509 172.894 714.115 Q175.973 718.698 175.973 727.448 Q175.973 736.175 172.894 740.782 Q169.839 745.365 164.028 745.365 Q158.218 745.365 155.14 740.782 Q152.084 736.175 152.084 727.448 Q152.084 718.698 155.14 714.115 Q158.218 709.509 164.028 709.509 Z" fill="#000000" fill-rule="nonzero" fill-opacity="1" /><path clip-path="url(#clip930)" d="M184.19 738.814 L189.075 738.814 L189.075 744.694 L184.19 744.694 L184.19 738.814 Z" fill="#000000" fill-rule="nonzero" fill-opacity="1" /><path clip-path="url(#clip930)" d="M209.26 713.212 Q205.649 713.212 203.82 716.777 Q202.014 720.319 202.014 727.448 Q202.014 734.555 203.82 738.12 Q205.649 741.661 209.26 741.661 Q212.894 741.661 214.699 738.12 Q216.528 734.555 216.528 727.448 Q216.528 720.319 214.699 716.777 Q212.894 713.212 209.26 713.212 M209.26 709.509 Q215.07 709.509 218.125 714.115 Q221.204 718.698 221.204 727.448 Q221.204 736.175 218.125 740.782 Q215.07 745.365 209.26 745.365 Q203.449 745.365 200.371 740.782 Q197.315 736.175 197.315 727.448 Q197.315 718.698 200.371 714.115 Q203.449 709.509 209.26 709.509 Z" fill="#000000" fill-rule="nonzero" fill-opacity="1" /><path clip-path="url(#clip930)" d="M165.024 405.219 Q161.413 405.219 159.584 408.784 Q157.778 412.326 157.778 419.455 Q157.778 426.562 159.584 430.127 Q161.413 433.668 165.024 433.668 Q168.658 433.668 170.464 430.127 Q172.292 426.562 172.292 419.455 Q172.292 412.326 170.464 408.784 Q168.658 405.219 165.024 405.219 M165.024 401.516 Q170.834 401.516 173.889 406.122 Q176.968 410.706 176.968 419.455 Q176.968 428.182 173.889 432.789 Q170.834 437.372 165.024 437.372 Q159.214 437.372 156.135 432.789 Q153.079 428.182 153.079 419.455 Q153.079 410.706 156.135 406.122 Q159.214 401.516 165.024 401.516 Z" fill="#000000" fill-rule="nonzero" fill-opacity="1" /><path clip-path="url(#clip930)" d="M185.186 430.821 L190.07 430.821 L190.07 436.701 L185.186 436.701 L185.186 430.821 Z" fill="#000000" fill-rule="nonzero" fill-opacity="1" /><path clip-path="url(#clip930)" d="M200.301 402.141 L218.658 402.141 L218.658 406.076 L204.584 406.076 L204.584 414.548 Q205.602 414.201 206.621 414.039 Q207.639 413.854 208.658 413.854 Q214.445 413.854 217.824 417.025 Q221.204 420.196 221.204 425.613 Q221.204 431.192 217.732 434.293 Q214.26 437.372 207.94 437.372 Q205.764 437.372 203.496 437.002 Q201.25 436.631 198.843 435.891 L198.843 431.192 Q200.926 432.326 203.149 432.881 Q205.371 433.437 207.848 433.437 Q211.852 433.437 214.19 431.33 Q216.528 429.224 216.528 425.613 Q216.528 422.002 214.19 419.895 Q211.852 417.789 207.848 417.789 Q205.973 417.789 204.098 418.205 Q202.246 418.622 200.301 419.502 L200.301 402.141 Z" fill="#000000" fill-rule="nonzero" fill-opacity="1" /><path clip-path="url(#clip930)" d="M154.839 124.773 L162.477 124.773 L162.477 98.4071 L154.167 100.074 L154.167 95.8145 L162.431 94.1479 L167.107 94.1479 L167.107 124.773 L174.746 124.773 L174.746 128.708 L154.839 128.708 L154.839 124.773 Z" fill="#000000" fill-rule="nonzero" fill-opacity="1" /><path clip-path="url(#clip930)" d="M184.19 122.828 L189.075 122.828 L189.075 128.708 L184.19 128.708 L184.19 122.828 Z" fill="#000000" fill-rule="nonzero" fill-opacity="1" /><path clip-path="url(#clip930)" d="M209.26 97.2265 Q205.649 97.2265 203.82 100.791 Q202.014 104.333 202.014 111.463 Q202.014 118.569 203.82 122.134 Q205.649 125.675 209.26 125.675 Q212.894 125.675 214.699 122.134 Q216.528 118.569 216.528 111.463 Q216.528 104.333 214.699 100.791 Q212.894 97.2265 209.26 97.2265 M209.26 93.5229 Q215.07 93.5229 218.125 98.1293 Q221.204 102.713 221.204 111.463 Q221.204 120.189 218.125 124.796 Q215.07 129.379 209.26 129.379 Q203.449 129.379 200.371 124.796 Q197.315 120.189 197.315 111.463 Q197.315 102.713 200.371 98.1293 Q203.449 93.5229 209.26 93.5229 Z" fill="#000000" fill-rule="nonzero" fill-opacity="1" /><path clip-path="url(#clip930)" d="M20.8447 823.791 Q20.8447 830.793 26.0645 834.931 Q31.2844 839.037 40.2919 839.037 Q49.2675 839.037 54.4874 834.931 Q59.7073 830.793 59.7073 823.791 Q59.7073 816.788 54.4874 812.714 Q49.2675 808.609 40.2919 808.609 Q31.2844 808.609 26.0645 812.714 Q20.8447 816.788 20.8447 823.791 M15.6248 823.791 Q15.6248 813.797 22.3406 807.813 Q29.0246 801.829 40.2919 801.829 Q51.5274 801.829 58.2432 807.813 Q64.9272 813.797 64.9272 823.791 Q64.9272 833.817 58.2432 839.832 Q51.5592 845.816 40.2919 845.816 Q29.0246 845.816 22.3406 839.832 Q15.6248 833.817 15.6248 823.791 Z" fill="#000000" fill-rule="nonzero" fill-opacity="1" /><path clip-path="url(#clip930)" d="M49.9359 792.631 L28.3562 792.631 L28.3562 786.774 L49.7131 786.774 Q54.7739 786.774 57.3202 784.801 Q59.8346 782.827 59.8346 778.881 Q59.8346 774.138 56.8109 771.401 Q53.7872 768.632 48.5673 768.632 L28.3562 768.632 L28.3562 762.775 L64.0042 762.775 L64.0042 768.632 L58.5296 768.632 Q61.7762 770.764 63.3676 773.597 Q64.9272 776.398 64.9272 780.122 Q64.9272 786.265 61.1078 789.448 Q57.2883 792.631 49.9359 792.631 M27.4968 777.894 L27.4968 777.894 Z" fill="#000000" fill-rule="nonzero" fill-opacity="1" /><path clip-path="url(#clip930)" d="M18.2347 744.92 L28.3562 744.92 L28.3562 732.857 L32.9077 732.857 L32.9077 744.92 L52.2594 744.92 Q56.6199 744.92 57.8613 743.742 Q59.1026 742.533 59.1026 738.872 L59.1026 732.857 L64.0042 732.857 L64.0042 738.872 Q64.0042 745.652 61.4897 748.23 Q58.9434 750.808 52.2594 750.808 L32.9077 750.808 L32.9077 755.105 L28.3562 755.105 L28.3562 750.808 L18.2347 750.808 L18.2347 744.92 Z" fill="#000000" fill-rule="nonzero" fill-opacity="1" /><path clip-path="url(#clip930)" d="M58.657 719.489 L77.5631 719.489 L77.5631 725.377 L28.3562 725.377 L28.3562 719.489 L33.7671 719.489 Q30.5842 717.643 29.0564 714.842 Q27.4968 712.009 27.4968 708.094 Q27.4968 701.601 32.6531 697.559 Q37.8093 693.485 46.212 693.485 Q54.6147 693.485 59.771 697.559 Q64.9272 701.601 64.9272 708.094 Q64.9272 712.009 63.3994 714.842 Q61.8398 717.643 58.657 719.489 M46.212 699.564 Q39.7508 699.564 36.0905 702.238 Q32.3984 704.879 32.3984 709.526 Q32.3984 714.173 36.0905 716.847 Q39.7508 719.489 46.212 719.489 Q52.6732 719.489 56.3653 716.847 Q60.0256 714.173 60.0256 709.526 Q60.0256 704.879 56.3653 702.238 Q52.6732 699.564 46.212 699.564 Z" fill="#000000" fill-rule="nonzero" fill-opacity="1" /><path clip-path="url(#clip930)" d="M49.9359 684.382 L28.3562 684.382 L28.3562 678.525 L49.7131 678.525 Q54.7739 678.525 57.3202 676.552 Q59.8346 674.579 59.8346 670.632 Q59.8346 665.889 56.8109 663.152 Q53.7872 660.383 48.5673 660.383 L28.3562 660.383 L28.3562 654.527 L64.0042 654.527 L64.0042 660.383 L58.5296 660.383 Q61.7762 662.516 63.3676 665.348 Q64.9272 668.149 64.9272 671.873 Q64.9272 678.016 61.1078 681.199 Q57.2883 684.382 49.9359 684.382 M27.4968 669.645 L27.4968 669.645 Z" fill="#000000" fill-rule="nonzero" fill-opacity="1" /><path clip-path="url(#clip930)" d="M18.2347 636.671 L28.3562 636.671 L28.3562 624.608 L32.9077 624.608 L32.9077 636.671 L52.2594 636.671 Q56.6199 636.671 57.8613 635.493 Q59.1026 634.284 59.1026 630.623 L59.1026 624.608 L64.0042 624.608 L64.0042 630.623 Q64.0042 637.403 61.4897 639.981 Q58.9434 642.559 52.2594 642.559 L32.9077 642.559 L32.9077 646.856 L28.3562 646.856 L28.3562 642.559 L18.2347 642.559 L18.2347 636.671 Z" fill="#000000" fill-rule="nonzero" fill-opacity="1" /><polyline clip-path="url(#clip932)" style="stroke:#009af9; stroke-linecap:round; stroke-linejoin:round; stroke-width:4; stroke-opacity:1; fill:none" points="316.512,727.414 320.466,727.414 324.42,727.414 328.374,727.414 332.328,727.414 336.281,727.414 340.235,727.414 344.189,727.414 348.143,727.414 352.097,727.414 356.051,727.414 360.005,727.414 363.959,727.414 367.912,727.414 371.866,727.414 375.82,727.414 379.774,727.414 383.728,727.414 387.682,727.414 391.636,727.414 395.59,727.414 399.543,727.414 403.497,727.081 407.451,726.046 411.405,724.235 415.359,721.582 419.313,718.033 423.267,713.549 427.221,708.096 431.174,701.657 435.128,694.221 439.082,685.79 443.036,676.375 446.99,665.994 450.944,654.676 454.898,642.458 458.851,629.382 462.805,615.497 466.759,600.858 470.713,585.525 474.667,569.56 478.621,553.03 482.575,536.003 486.529,518.55 490.482,500.743 494.436,482.654 498.39,464.355 502.344,445.919 506.298,427.42 510.252,408.926 514.206,390.508 518.16,372.234 522.113,354.169 526.067,336.375 530.021,318.912 533.975,301.837 537.929,285.203 541.883,269.059 545.837,253.451 549.791,238.421 553.744,224.007 557.698,210.241 561.652,197.152 565.606,184.767 569.56,173.104 573.514,162.181 577.468,152.009 581.421,142.597 585.375,133.947 589.329,126.061 593.283,118.933 597.237,112.558 601.191,106.922 605.145,102.013 609.099,97.8133 613.052,94.3016 617.006,91.4554 620.96,89.2493 624.914,87.6556 628.868,86.6449 632.822,86.1857 636.776,86.2451 640.73,86.7891 644.683,87.7826 648.637,89.1895 652.591,90.9735 656.545,93.0976 660.499,95.5251 664.453,98.2189 668.407,101.143 672.361,104.26 676.314,107.536 680.268,110.936 684.222,114.426 688.176,117.973 692.13,121.548 696.084,125.119 700.038,128.659 703.992,132.141 707.945,135.54 711.899,138.833 715.853,141.998 719.807,145.016 723.761,147.87 727.715,150.543 731.669,153.021 735.622,155.294 739.576,157.35 743.53,159.181 747.484,160.782 751.438,162.148 755.392,163.275 759.346,164.164 763.3,164.813 767.253,165.227 771.207,165.406 775.161,165.358 779.115,165.088 783.069,164.602 787.023,163.911 790.977,163.022 794.931,161.947 798.884,160.697 802.838,159.282 806.792,157.716 810.746,156.012 814.7,154.182 818.654,152.241 822.608,150.201 826.562,148.077 830.515,145.883 834.469,143.633 838.423,141.339 842.377,139.016 846.331,136.676 850.285,134.332 854.239,131.996 858.192,129.681 862.146,127.397 866.1,125.156 870.054,122.966 874.008,120.838 877.962,118.78 881.916,116.799 885.87,114.905 889.823,113.101 893.777,111.395 897.731,110.458 901.685,111.029 905.639,113.265 909.593,117.297 913.547,123.232 917.501,131.157 921.454,141.133 925.408,153.198 929.362,167.371 933.316,183.649 937.27,202.007 941.224,222.405 945.178,244.781 949.132,269.062 953.085,295.157 957.039,322.964 960.993,352.368 964.947,383.245 968.901,415.463 972.855,448.886 976.809,483.369 980.763,518.766 984.716,554.927 988.67,591.703 992.624,628.942 996.578,666.491 1000.53,704.201 1004.49,741.923 1008.44,779.514 1012.39,816.832 1016.35,853.741 1020.3,890.11 1024.26,925.815 1028.21,960.737 1032.16,994.767 1036.12,1027.8 1040.07,1059.74 1044.02,1090.5 1047.98,1120.01 1051.93,1148.18 1055.89,1174.97 1059.84,1200.32 1063.79,1224.18 1067.75,1246.52 1071.7,1267.32 1075.66,1286.56 1079.61,1304.23 1083.56,1320.33 1087.52,1334.87 1091.47,1347.85 1095.42,1359.32 1099.38,1369.29 1103.33,1377.13 1107.29,1382.15 1111.24,1384.24 1115.19,1383.33 1119.15,1379.36 1123.1,1372.33 1127.06,1362.22 1131.01,1349.06 1134.96,1332.91 1138.92,1313.85 1142.87,1291.96 1146.83,1267.37 1150.78,1240.2 1154.73,1210.61 1158.69,1178.75 1162.64,1144.8 1166.59,1108.94 1170.55,1071.37 1174.5,1032.28 1178.46,991.875 1182.41,950.361 1186.36,907.941 1190.32,864.821 1194.27,821.203 1198.23,777.289 1202.18,733.276 1206.13,689.355 1210.09,645.714 1214.04,602.531 1217.99,559.978 1221.95,518.218 1225.9,477.406 1229.86,437.686 1233.81,399.192 1237.76,362.046 1241.72,326.361 1245.67,292.238 1249.63,259.765 1253.58,229.021 1257.53,200.07 1261.49,173.633 1265.44,150.49 1269.4,130.822 1273.35,114.779 1277.3,102.475 1281.26,93.9929 1285.21,89.3822 1289.16,88.6606 1293.12,91.8157 1297.07,98.806 1301.03,109.563 1304.98,123.991 1308.93,141.971 1312.89,163.365 1316.84,188.01 1320.8,215.73 1324.75,246.33 1328.7,279.604 1332.66,315.336 1336.61,353.298 1340.56,393.258 1344.52,434.979 1348.47,478.221 1352.43,522.741 1356.38,568.297 1360.33,614.646 1364.29,661.551 1368.24,708.778 1372.2,756.096 1376.15,803.283 1380.1,850.125 1384.06,896.416 1388.01,941.96 1391.97,985.904 1395.92,1027.34 1399.87,1065.95 1403.83,1101.45 1407.78,1133.61 1411.73,1162.21 1415.69,1187.09 1419.64,1208.1 1423.6,1225.15 1427.55,1238.16 1431.5,1247.11 1435.46,1251.99 1439.41,1252.82 1443.37,1249.66 1447.32,1242.6 1451.27,1231.74 1455.23,1217.2 1459.18,1199.14 1463.13,1177.73 1467.09,1153.14 1471.04,1125.58 1475,1095.24 1478.95,1062.36 1482.9,1027.16 1486.86,989.868 1490.81,950.729 1494.77,909.985 1498.72,867.88 1502.67,824.659 1506.63,780.566 1510.58,736.508 1514.54,693.457 1518.49,651.797 1522.44,611.882 1526.4,574.033 1530.35,538.542 1534.3,505.67 1538.26,475.642 1542.21,448.655 1546.17,424.869 1550.12,404.415 1554.07,387.394 1558.03,373.874 1561.98,363.895 1565.94,357.471 1569.89,354.588 1573.84,355.207 1577.8,359.267 1581.75,366.685 1585.7,377.361 1589.66,391.174 1593.61,407.99 1597.57,427.66 1601.52,450.019 1605.47,474.894 1609.43,502.101 1613.38,530.779 1617.34,559.992 1621.29,589.382 1625.24,618.612 1629.2,647.362 1633.15,675.337 1637.11,702.263 1641.06,727.889 1645.01,751.989 1648.97,774.361 1652.92,794.828 1656.87,813.237 1660.83,829.458 1664.78,843.387 1668.74,854.94 1672.69,864.058 1676.64,870.699 1680.6,874.845 1684.55,876.495 1688.51,875.664 1692.46,872.387 1696.41,866.709 1700.37,858.695 1704.32,848.42 1708.27,835.972 1712.23,822.118 1716.18,807.704 1720.14,793.004 1724.09,778.272 1728.04,763.75 1732,749.662 1735.95,736.214 1739.91,723.595 1743.86,711.972 1747.81,701.498 1751.77,692.302 1755.72,684.497 1759.68,678.177 1763.63,673.42 1767.58,670.282 1771.54,668.807 1775.49,669.022 1779.44,670.937 1783.4,674.552 1787.35,679.851 1791.31,686.809 1795.26,695.389 1799.21,705.542 1803.17,716.547 1807.12,727.601 1811.08,738.476 1815.03,748.964 1818.98,758.869 1822.94,768.015 1826.89,776.241 1830.84,783.406 1834.8,789.387 1838.75,794.078 1842.71,797.391 1846.66,799.256 1850.61,799.619 1854.57,798.445 1858.52,795.71 1862.48,791.408 1866.43,785.545 1870.38,778.141 1874.34,769.225 1878.29,758.84 1882.25,747.034 1886.2,734.531 1890.15,722.135 1894.11,710.071 1898.06,698.547 1902.01,687.756 1905.97,677.871 1909.92,669.049 1913.88,661.426 1917.83,655.121 1921.78,650.235 1925.74,646.849 1929.69,645.026 1933.65,644.814 1937.6,646.243 1941.55,649.325 1945.51,654.062 1949.46,660.439 1953.41,668.43 1957.37,677.994 1961.32,689.085 1965.28,701.645 1969.23,714.941 1973.18,728.164 1977.14,741.08 1981.09,753.473 1985.05,765.145 1989,775.915 1992.95,785.621 1996.91,794.118 2000.86,801.283 2004.82,807.011 2008.77,811.214 2012.72,813.823 2016.68,814.789 2020.63,814.077 2024.58,811.67 2028.54,807.564 2032.49,801.772 2036.45,794.318 2040.4,785.238 2044.35,775.246 2048.31,765.135 2052.26,755.122 2056.22,745.409 2060.17,736.184 2064.12,727.618 2068.08,719.864 2072.03,713.063 2075.98,707.332 2079.94,702.777 2083.89,699.484 2087.85,697.522 2091.8,696.947 2095.75,697.795 2099.71,700.092 2103.66,703.846 2107.62,709.056 2111.57,715.706 2115.52,723.771 2119.48,732.549 2123.43,741.259 2127.39,749.698 2131.34,757.677 2135.29,765.023 2139.25,771.58 2143.2,777.207 2147.15,781.782 2151.11,785.2 2155.06,787.372 2159.02,788.227 2162.97,787.709 2166.92,785.779 2170.88,782.412 2174.83,777.598 2178.79,771.34 2182.74,763.655 2186.69,755.233 2190.65,746.85 2194.6,738.704 2198.55,730.976 2202.51,723.834 2206.46,717.431 2210.42,711.901 2214.37,707.363 2218.32,703.92 2222.28,701.659 2226.23,700.648 2230.19,700.943 2234.14,702.582 2238.09,705.591 2242.05,709.98 2246,715.746 2249.96,722.877 2253.91,730.681 2257.86,738.388 2261.82,745.802 2265.77,752.744 2269.72,759.049 2273.68,764.571 2277.63,769.178 2281.59,772.754 2285.54,775.203 2289.49,776.441 2293.45,776.405 "/>
<polyline clip-path="url(#clip932)" style="stroke:#e26f46; stroke-linecap:round; stroke-linejoin:round; stroke-width:4; stroke-opacity:1; fill:none" points="316.512,727.414 320.466,727.414 324.42,727.414 328.374,727.414 332.328,727.414 336.281,727.414 340.235,727.414 344.189,727.414 348.143,727.414 352.097,727.414 356.051,727.414 360.005,727.414 363.959,727.414 367.912,727.414 371.866,727.414 375.82,727.414 379.774,727.414 383.728,727.414 387.682,727.414 391.636,727.414 395.59,727.414 399.543,727.414 403.497,727.081 407.451,726.046 411.405,724.235 415.359,721.582 419.313,718.033 423.267,713.549 427.221,708.096 431.174,701.657 435.128,694.221 439.082,685.79 443.036,676.375 446.99,665.994 450.944,654.676 454.898,642.458 458.851,629.382 462.805,615.497 466.759,600.858 470.713,585.525 474.667,569.56 478.621,553.03 482.575,536.003 486.529,518.55 490.482,500.743 494.436,482.654 498.39,464.355 502.344,445.919 506.298,427.42 510.252,408.926 514.206,390.508 518.16,372.234 522.113,354.169 526.067,336.375 530.021,318.912 533.975,301.837 537.929,285.203 541.883,269.059 545.837,253.451 549.791,238.421 553.744,224.007 557.698,210.241 561.652,197.152 565.606,184.767 569.56,173.104 573.514,162.181 577.468,152.009 581.421,142.597 585.375,133.947 589.329,126.061 593.283,118.933 597.237,112.558 601.191,106.922 605.145,102.013 609.099,97.8133 613.052,94.3016 617.006,91.4554 620.96,89.2493 624.914,87.6556 628.868,86.6449 632.822,86.1857 636.776,86.2451 640.73,86.7891 644.683,87.7826 648.637,89.1895 652.591,90.9735 656.545,93.0976 660.499,95.5251 664.453,98.2189 668.407,101.143 672.361,104.26 676.314,107.536 680.268,110.936 684.222,114.426 688.176,117.973 692.13,121.548 696.084,125.119 700.038,128.659 703.992,132.141 707.945,135.54 711.899,138.833 715.853,141.998 719.807,145.016 723.761,147.87 727.715,150.543 731.669,153.021 735.622,155.294 739.576,157.35 743.53,159.181 747.484,160.782 751.438,162.148 755.392,163.275 759.346,164.164 763.3,164.813 767.253,165.227 771.207,165.406 775.161,165.358 779.115,165.088 783.069,164.602 787.023,163.911 790.977,163.022 794.931,161.947 798.884,160.697 802.838,159.282 806.792,157.716 810.746,156.012 814.7,154.182 818.654,152.241 822.608,150.201 826.562,148.077 830.515,145.883 834.469,143.633 838.423,141.339 842.377,139.016 846.331,136.676 850.285,134.332 854.239,131.996 858.192,129.681 862.146,127.397 866.1,125.156 870.054,122.966 874.008,120.838 877.962,118.78 881.916,116.799 885.87,114.905 889.823,113.101 893.777,111.395 897.731,110.458 901.685,111.029 905.639,113.265 909.593,117.297 913.547,123.232 917.501,131.157 921.454,141.133 925.408,153.198 929.362,167.371 933.316,183.649 937.27,202.007 941.224,222.405 945.178,244.781 949.132,269.062 953.085,295.157 957.039,322.964 960.993,352.368 964.947,383.245 968.901,415.463 972.855,448.886 976.809,483.369 980.763,518.766 984.716,554.927 988.67,591.703 992.624,628.942 996.578,666.491 1000.53,704.201 1004.49,741.923 1008.44,779.514 1012.39,816.832 1016.35,853.741 1020.3,890.11 1024.26,925.815 1028.21,960.737 1032.16,994.767 1036.12,1027.8 1040.07,1059.74 1044.02,1090.5 1047.98,1120.01 1051.93,1148.18 1055.89,1174.97 1059.84,1200.32 1063.79,1224.18 1067.75,1246.52 1071.7,1267.32 1075.66,1286.56 1079.61,1304.23 1083.56,1320.33 1087.52,1334.87 1091.47,1347.85 1095.42,1359.32 1099.38,1369.29 1103.33,1377.13 1107.29,1382.15 1111.24,1384.24 1115.19,1383.33 1119.15,1379.36 1123.1,1372.33 1127.06,1362.22 1131.01,1349.06 1134.96,1332.91 1138.92,1313.85 1142.87,1291.96 1146.83,1267.37 1150.78,1240.2 1154.73,1210.61 1158.69,1178.75 1162.64,1144.8 1166.59,1108.94 1170.55,1071.37 1174.5,1032.28 1178.46,991.875 1182.41,950.361 1186.36,907.941 1190.32,864.821 1194.27,821.203 1198.23,777.289 1202.18,733.276 1206.13,689.355 1210.09,645.714 1214.04,602.531 1217.99,559.978 1221.95,518.218 1225.9,477.406 1229.86,437.686 1233.81,399.192 1237.76,362.046 1241.72,326.361 1245.67,292.238 1249.63,259.765 1253.58,229.021 1257.53,200.07 1261.49,173.633 1265.44,150.49 1269.4,130.822 1273.35,114.779 1277.3,102.475 1281.26,93.9929 1285.21,89.3822 1289.16,88.6606 1293.12,91.8157 1297.07,98.806 1301.03,109.563 1304.98,123.991 1308.93,141.971 1312.89,163.365 1316.84,188.01 1320.8,215.73 1324.75,246.33 1328.7,279.604 1332.66,315.336 1336.61,353.298 1340.56,393.258 1344.52,434.979 1348.47,478.221 1352.43,522.741 1356.38,568.297 1360.33,614.646 1364.29,661.551 1368.24,708.778 1372.2,756.096 1376.15,803.283 1380.1,850.125 1384.06,896.416 1388.01,941.96 1391.97,985.904 1395.92,1027.34 1399.87,1065.95 1403.83,1101.45 1407.78,1133.61 1411.73,1162.21 1415.69,1187.09 1419.64,1208.1 1423.6,1225.15 1427.55,1238.16 1431.5,1247.11 1435.46,1251.99 1439.41,1252.82 1443.37,1249.66 1447.32,1242.6 1451.27,1231.74 1455.23,1217.2 1459.18,1199.14 1463.13,1177.73 1467.09,1153.14 1471.04,1125.58 1475,1095.24 1478.95,1062.36 1482.9,1027.16 1486.86,989.868 1490.81,950.729 1494.77,909.985 1498.72,867.88 1502.67,824.659 1506.63,780.566 1510.58,736.508 1514.54,693.457 1518.49,651.797 1522.44,611.882 1526.4,574.033 1530.35,538.542 1534.3,505.67 1538.26,475.642 1542.21,448.655 1546.17,424.869 1550.12,404.415 1554.07,387.394 1558.03,373.874 1561.98,363.895 1565.94,357.471 1569.89,354.588 1573.84,355.207 1577.8,359.267 1581.75,366.685 1585.7,377.361 1589.66,391.174 1593.61,407.99 1597.57,427.66 1601.52,450.019 1605.47,474.894 1609.43,502.101 1613.38,530.779 1617.34,559.992 1621.29,589.382 1625.24,618.612 1629.2,647.362 1633.15,675.337 1637.11,702.263 1641.06,727.889 1645.01,751.989 1648.97,774.361 1652.92,794.828 1656.87,813.237 1660.83,829.458 1664.78,843.387 1668.74,854.94 1672.69,864.058 1676.64,870.699 1680.6,874.845 1684.55,876.495 1688.51,875.664 1692.46,872.387 1696.41,866.709 1700.37,858.695 1704.32,848.42 1708.27,835.972 1712.23,822.118 1716.18,807.704 1720.14,793.004 1724.09,778.272 1728.04,763.75 1732,749.662 1735.95,736.214 1739.91,723.595 1743.86,711.972 1747.81,701.498 1751.77,692.302 1755.72,684.497 1759.68,678.177 1763.63,673.42 1767.58,670.282 1771.54,668.807 1775.49,669.022 1779.44,670.937 1783.4,674.552 1787.35,679.851 1791.31,686.809 1795.26,695.389 1799.21,705.542 1803.17,716.547 1807.12,727.601 1811.08,738.476 1815.03,748.964 1818.98,758.869 1822.94,768.015 1826.89,776.241 1830.84,783.406 1834.8,789.387 1838.75,794.078 1842.71,797.391 1846.66,799.256 1850.61,799.619 1854.57,798.445 1858.52,795.71 1862.48,791.408 1866.43,785.545 1870.38,778.141 1874.34,769.225 1878.29,758.84 1882.25,747.034 1886.2,734.531 1890.15,722.135 1894.11,710.071 1898.06,698.547 1902.01,687.756 1905.97,677.871 1909.92,669.049 1913.88,661.426 1917.83,655.121 1921.78,650.235 1925.74,646.849 1929.69,645.026 1933.65,644.814 1937.6,646.243 1941.55,649.325 1945.51,654.062 1949.46,660.439 1953.41,668.43 1957.37,677.994 1961.32,689.085 1965.28,701.645 1969.23,714.941 1973.18,728.164 1977.14,741.08 1981.09,753.473 1985.05,765.145 1989,775.915 1992.95,785.621 1996.91,794.118 2000.86,801.283 2004.82,807.011 2008.77,811.214 2012.72,813.823 2016.68,814.789 2020.63,814.077 2024.58,811.67 2028.54,807.564 2032.49,801.772 2036.45,794.318 2040.4,785.238 2044.35,775.246 2048.31,765.135 2052.26,755.122 2056.22,745.409 2060.17,736.184 2064.12,727.618 2068.08,719.864 2072.03,713.063 2075.98,707.332 2079.94,702.777 2083.89,699.484 2087.85,697.522 2091.8,696.947 2095.75,697.795 2099.71,700.092 2103.66,703.846 2107.62,709.056 2111.57,715.706 2115.52,723.771 2119.48,732.549 2123.43,741.259 2127.39,749.698 2131.34,757.677 2135.29,765.023 2139.25,771.58 2143.2,777.207 2147.15,781.782 2151.11,785.2 2155.06,787.372 2159.02,788.227 2162.97,787.709 2166.92,785.779 2170.88,782.412 2174.83,777.598 2178.79,771.34 2182.74,763.655 2186.69,755.233 2190.65,746.85 2194.6,738.704 2198.55,730.976 2202.51,723.834 2206.46,717.431 2210.42,711.901 2214.37,707.363 2218.32,703.92 2222.28,701.659 2226.23,700.648 2230.19,700.943 2234.14,702.582 2238.09,705.591 2242.05,709.98 2246,715.746 2249.96,722.877 2253.91,730.681 2257.86,738.388 2261.82,745.802 2265.77,752.744 2269.72,759.049 2273.68,764.571 2277.63,769.178 2281.59,772.754 2285.54,775.203 2289.49,776.441 2293.45,776.405 "/>
<path clip-path="url(#clip930)" d="M1686.45 248.629 L2282.9 248.629 L2282.9 93.1086 L1686.45 93.1086  Z" fill="#ffffff" fill-rule="evenodd" fill-opacity="1"/>
<polyline clip-path="url(#clip930)" style="stroke:#000000; stroke-linecap:round; stroke-linejoin:round; stroke-width:4; stroke-opacity:1; fill:none" points="1686.45,248.629 2282.9,248.629 2282.9,93.1086 1686.45,93.1086 1686.45,248.629 "/>
<polyline clip-path="url(#clip930)" style="stroke:#009af9; stroke-linecap:round; stroke-linejoin:round; stroke-width:4; stroke-opacity:1; fill:none" points="1709.74,144.949 1849.44,144.949 "/>
<path clip-path="url(#clip930)" d="M1886.57 164.636 Q1884.76 169.266 1883.05 170.678 Q1881.34 172.09 1878.46 172.09 L1875.06 172.09 L1875.06 168.525 L1877.56 168.525 Q1879.32 168.525 1880.29 167.692 Q1881.27 166.858 1882.45 163.756 L1883.21 161.812 L1872.72 136.303 L1877.24 136.303 L1885.34 156.581 L1893.44 136.303 L1897.96 136.303 L1886.57 164.636 Z" fill="#000000" fill-rule="nonzero" fill-opacity="1" /><path clip-path="url(#clip930)" d="M1905.25 158.293 L1912.89 158.293 L1912.89 131.928 L1904.58 133.595 L1904.58 129.335 L1912.84 127.669 L1917.52 127.669 L1917.52 158.293 L1925.15 158.293 L1925.15 162.229 L1905.25 162.229 L1905.25 158.293 Z" fill="#000000" fill-rule="nonzero" fill-opacity="1" /><polyline clip-path="url(#clip930)" style="stroke:#e26f46; stroke-linecap:round; stroke-linejoin:round; stroke-width:4; stroke-opacity:1; fill:none" points="1709.74,196.789 1849.44,196.789 "/>
<path clip-path="url(#clip930)" d="M1908.79 188.907 L1908.79 192.934 Q1906.98 192.009 1905.04 191.546 Q1903.09 191.083 1901.01 191.083 Q1897.84 191.083 1896.24 192.055 Q1894.67 193.027 1894.67 194.971 Q1894.67 196.453 1895.8 197.309 Q1896.94 198.143 1900.36 198.907 L1901.82 199.231 Q1906.36 200.203 1908.26 201.985 Q1910.18 203.745 1910.18 206.916 Q1910.18 210.527 1907.31 212.633 Q1904.46 214.74 1899.46 214.74 Q1897.38 214.74 1895.11 214.323 Q1892.86 213.93 1890.36 213.12 L1890.36 208.721 Q1892.72 209.948 1895.02 210.573 Q1897.31 211.175 1899.55 211.175 Q1902.56 211.175 1904.18 210.157 Q1905.8 209.115 1905.8 207.24 Q1905.8 205.504 1904.62 204.578 Q1903.46 203.652 1899.51 202.796 L1898.02 202.448 Q1894.07 201.615 1892.31 199.902 Q1890.55 198.166 1890.55 195.157 Q1890.55 191.499 1893.14 189.509 Q1895.73 187.518 1900.5 187.518 Q1902.86 187.518 1904.95 187.865 Q1907.03 188.212 1908.79 188.907 Z" fill="#000000" fill-rule="nonzero" fill-opacity="1" /><path clip-path="url(#clip930)" d="M1916.96 188.143 L1921.22 188.143 L1921.22 214.069 L1916.96 214.069 L1916.96 188.143 M1916.96 178.05 L1921.22 178.05 L1921.22 183.444 L1916.96 183.444 L1916.96 178.05 Z" fill="#000000" fill-rule="nonzero" fill-opacity="1" /><path clip-path="url(#clip930)" d="M1950.32 193.12 Q1951.91 190.249 1954.14 188.884 Q1956.36 187.518 1959.37 187.518 Q1963.42 187.518 1965.62 190.365 Q1967.82 193.189 1967.82 198.421 L1967.82 214.069 L1963.53 214.069 L1963.53 198.559 Q1963.53 194.833 1962.21 193.027 Q1960.9 191.222 1958.19 191.222 Q1954.88 191.222 1952.96 193.421 Q1951.03 195.62 1951.03 199.416 L1951.03 214.069 L1946.75 214.069 L1946.75 198.559 Q1946.75 194.809 1945.43 193.027 Q1944.11 191.222 1941.36 191.222 Q1938.09 191.222 1936.17 193.444 Q1934.25 195.643 1934.25 199.416 L1934.25 214.069 L1929.97 214.069 L1929.97 188.143 L1934.25 188.143 L1934.25 192.171 Q1935.71 189.786 1937.75 188.652 Q1939.78 187.518 1942.58 187.518 Q1945.41 187.518 1947.38 188.953 Q1949.37 190.388 1950.32 193.12 Z" fill="#000000" fill-rule="nonzero" fill-opacity="1" /><path clip-path="url(#clip930)" d="M2004.51 178.05 L2004.51 181.592 L2000.43 181.592 Q1998.14 181.592 1997.24 182.518 Q1996.36 183.444 1996.36 185.851 L1996.36 188.143 L2003.37 188.143 L2003.37 191.453 L1996.36 191.453 L1996.36 214.069 L1992.08 214.069 L1992.08 191.453 L1988 191.453 L1988 188.143 L1992.08 188.143 L1992.08 186.337 Q1992.08 182.009 1994.09 180.041 Q1996.1 178.05 2000.48 178.05 L2004.51 178.05 Z" fill="#000000" fill-rule="nonzero" fill-opacity="1" /><path clip-path="url(#clip930)" d="M2008.07 188.143 L2012.33 188.143 L2012.33 214.069 L2008.07 214.069 L2008.07 188.143 M2008.07 178.05 L2012.33 178.05 L2012.33 183.444 L2008.07 183.444 L2008.07 178.05 Z" fill="#000000" fill-rule="nonzero" fill-opacity="1" /><path clip-path="url(#clip930)" d="M2025.45 180.782 L2025.45 188.143 L2034.23 188.143 L2034.23 191.453 L2025.45 191.453 L2025.45 205.527 Q2025.45 208.698 2026.31 209.601 Q2027.19 210.504 2029.85 210.504 L2034.23 210.504 L2034.23 214.069 L2029.85 214.069 Q2024.92 214.069 2023.05 212.24 Q2021.17 210.388 2021.17 205.527 L2021.17 191.453 L2018.05 191.453 L2018.05 188.143 L2021.17 188.143 L2021.17 180.782 L2025.45 180.782 Z" fill="#000000" fill-rule="nonzero" fill-opacity="1" /><path clip-path="url(#clip930)" d="M2071.06 208.189 L2075.94 208.189 L2075.94 214.069 L2071.06 214.069 L2071.06 208.189 M2071.06 189.555 L2075.94 189.555 L2075.94 195.434 L2071.06 195.434 L2071.06 189.555 Z" fill="#000000" fill-rule="nonzero" fill-opacity="1" /><path clip-path="url(#clip930)" d="M2087.35 210.133 L2094.99 210.133 L2094.99 183.768 L2086.68 185.435 L2086.68 181.175 L2094.95 179.509 L2099.62 179.509 L2099.62 210.133 L2107.26 210.133 L2107.26 214.069 L2087.35 214.069 L2087.35 210.133 Z" fill="#000000" fill-rule="nonzero" fill-opacity="1" /><path clip-path="url(#clip930)" d="M2126.7 182.587 Q2123.09 182.587 2121.26 186.152 Q2119.46 189.694 2119.46 196.823 Q2119.46 203.93 2121.26 207.495 Q2123.09 211.036 2126.7 211.036 Q2130.34 211.036 2132.14 207.495 Q2133.97 203.93 2133.97 196.823 Q2133.97 189.694 2132.14 186.152 Q2130.34 182.587 2126.7 182.587 M2126.7 178.884 Q2132.51 178.884 2135.57 183.49 Q2138.65 188.073 2138.65 196.823 Q2138.65 205.55 2135.57 210.157 Q2132.51 214.74 2126.7 214.74 Q2120.89 214.74 2117.82 210.157 Q2114.76 205.55 2114.76 196.823 Q2114.76 188.073 2117.82 183.49 Q2120.89 178.884 2126.7 178.884 Z" fill="#000000" fill-rule="nonzero" fill-opacity="1" /><path clip-path="url(#clip930)" d="M2156.87 182.587 Q2153.26 182.587 2151.43 186.152 Q2149.62 189.694 2149.62 196.823 Q2149.62 203.93 2151.43 207.495 Q2153.26 211.036 2156.87 211.036 Q2160.5 211.036 2162.31 207.495 Q2164.13 203.93 2164.13 196.823 Q2164.13 189.694 2162.31 186.152 Q2160.5 182.587 2156.87 182.587 M2156.87 178.884 Q2162.68 178.884 2165.73 183.49 Q2168.81 188.073 2168.81 196.823 Q2168.81 205.55 2165.73 210.157 Q2162.68 214.74 2156.87 214.74 Q2151.06 214.74 2147.98 210.157 Q2144.92 205.55 2144.92 196.823 Q2144.92 188.073 2147.98 183.49 Q2151.06 178.884 2156.87 178.884 Z" fill="#000000" fill-rule="nonzero" fill-opacity="1" /><path clip-path="url(#clip930)" d="M2177.03 208.189 L2181.91 208.189 L2181.91 214.069 L2177.03 214.069 L2177.03 208.189 Z" fill="#000000" fill-rule="nonzero" fill-opacity="1" /><path clip-path="url(#clip930)" d="M2202.1 182.587 Q2198.49 182.587 2196.66 186.152 Q2194.85 189.694 2194.85 196.823 Q2194.85 203.93 2196.66 207.495 Q2198.49 211.036 2202.1 211.036 Q2205.73 211.036 2207.54 207.495 Q2209.37 203.93 2209.37 196.823 Q2209.37 189.694 2207.54 186.152 Q2205.73 182.587 2202.1 182.587 M2202.1 178.884 Q2207.91 178.884 2210.96 183.49 Q2214.04 188.073 2214.04 196.823 Q2214.04 205.55 2210.96 210.157 Q2207.91 214.74 2202.1 214.74 Q2196.29 214.74 2193.21 210.157 Q2190.15 205.55 2190.15 196.823 Q2190.15 188.073 2193.21 183.49 Q2196.29 178.884 2202.1 178.884 Z" fill="#000000" fill-rule="nonzero" fill-opacity="1" /><path clip-path="url(#clip930)" d="M2251.66 198.86 Q2249.64 198.86 2248.49 200.573 Q2247.35 202.286 2247.35 205.342 Q2247.35 208.351 2248.49 210.087 Q2249.64 211.8 2251.66 211.8 Q2253.62 211.8 2254.76 210.087 Q2255.92 208.351 2255.92 205.342 Q2255.92 202.309 2254.76 200.596 Q2253.62 198.86 2251.66 198.86 M2251.66 195.921 Q2255.31 195.921 2257.47 198.467 Q2259.62 201.013 2259.62 205.342 Q2259.62 209.67 2257.44 212.217 Q2255.29 214.74 2251.66 214.74 Q2247.95 214.74 2245.8 212.217 Q2243.65 209.67 2243.65 205.342 Q2243.65 200.99 2245.8 198.467 Q2247.98 195.921 2251.66 195.921 M2227.77 181.823 Q2225.78 181.823 2224.62 183.56 Q2223.49 185.272 2223.49 188.282 Q2223.49 191.337 2224.62 193.05 Q2225.75 194.763 2227.77 194.763 Q2229.78 194.763 2230.92 193.05 Q2232.07 191.337 2232.07 188.282 Q2232.07 185.296 2230.92 183.56 Q2229.76 181.823 2227.77 181.823 M2248.67 178.884 L2252.37 178.884 L2230.75 214.74 L2227.05 214.74 L2248.67 178.884 M2227.77 178.884 Q2231.43 178.884 2233.6 181.43 Q2235.78 183.953 2235.78 188.282 Q2235.78 192.657 2233.6 195.18 Q2231.45 197.703 2227.77 197.703 Q2224.09 197.703 2221.94 195.18 Q2219.81 192.634 2219.81 188.282 Q2219.81 183.976 2221.96 181.43 Q2224.11 178.884 2227.77 178.884 Z" fill="#000000" fill-rule="nonzero" fill-opacity="1" /></svg>
