<?xml version="1.0" encoding="utf-8"?>
<svg xmlns="http://www.w3.org/2000/svg" xmlns:xlink="http://www.w3.org/1999/xlink" width="600" height="400" viewBox="0 0 2400 1600">
<defs>
  <clipPath id="clip320">
    <rect x="0" y="0" width="2400" height="1600"/>
  </clipPath>
</defs>
<path clip-path="url(#clip320)" d="M0 1600 L2400 1600 L2400 0 L0 0  Z" fill="#ffffff" fill-rule="evenodd" fill-opacity="1"/>
<defs>
  <clipPath id="clip321">
    <rect x="480" y="0" width="1681" height="1600"/>
  </clipPath>
</defs>
<path clip-path="url(#clip320)" d="M287.366 1423.18 L2352.76 1423.18 L2352.76 47.2441 L287.366 47.2441  Z" fill="#ffffff" fill-rule="evenodd" fill-opacity="1"/>
<defs>
  <clipPath id="clip322">
    <rect x="287" y="47" width="2066" height="1377"/>
  </clipPath>
</defs>
<polyline clip-path="url(#clip322)" style="stroke:#000000; stroke-linecap:round; stroke-linejoin:round; stroke-width:2; stroke-opacity:0.1; fill:none" points="345.82,1423.18 345.82,47.2441 "/>
<polyline clip-path="url(#clip322)" style="stroke:#000000; stroke-linecap:round; stroke-linejoin:round; stroke-width:2; stroke-opacity:0.1; fill:none" points="736.298,1423.18 736.298,47.2441 "/>
<polyline clip-path="url(#clip322)" style="stroke:#000000; stroke-linecap:round; stroke-linejoin:round; stroke-width:2; stroke-opacity:0.1; fill:none" points="1126.77,1423.18 1126.77,47.2441 "/>
<polyline clip-path="url(#clip322)" style="stroke:#000000; stroke-linecap:round; stroke-linejoin:round; stroke-width:2; stroke-opacity:0.1; fill:none" points="1517.25,1423.18 1517.25,47.2441 "/>
<polyline clip-path="url(#clip322)" style="stroke:#000000; stroke-linecap:round; stroke-linejoin:round; stroke-width:2; stroke-opacity:0.1; fill:none" points="1907.73,1423.18 1907.73,47.2441 "/>
<polyline clip-path="url(#clip322)" style="stroke:#000000; stroke-linecap:round; stroke-linejoin:round; stroke-width:2; stroke-opacity:0.1; fill:none" points="2298.21,1423.18 2298.21,47.2441 "/>
<polyline clip-path="url(#clip322)" style="stroke:#000000; stroke-linecap:round; stroke-linejoin:round; stroke-width:2; stroke-opacity:0.1; fill:none" points="287.366,1267.34 2352.76,1267.34 "/>
<polyline clip-path="url(#clip322)" style="stroke:#000000; stroke-linecap:round; stroke-linejoin:round; stroke-width:2; stroke-opacity:0.1; fill:none" points="287.366,1038.04 2352.76,1038.04 "/>
<polyline clip-path="url(#clip322)" style="stroke:#000000; stroke-linecap:round; stroke-linejoin:round; stroke-width:2; stroke-opacity:0.1; fill:none" points="287.366,808.735 2352.76,808.735 "/>
<polyline clip-path="url(#clip322)" style="stroke:#000000; stroke-linecap:round; stroke-linejoin:round; stroke-width:2; stroke-opacity:0.1; fill:none" points="287.366,579.435 2352.76,579.435 "/>
<polyline clip-path="url(#clip322)" style="stroke:#000000; stroke-linecap:round; stroke-linejoin:round; stroke-width:2; stroke-opacity:0.1; fill:none" points="287.366,350.134 2352.76,350.134 "/>
<polyline clip-path="url(#clip322)" style="stroke:#000000; stroke-linecap:round; stroke-linejoin:round; stroke-width:2; stroke-opacity:0.1; fill:none" points="287.366,120.834 2352.76,120.834 "/>
<polyline clip-path="url(#clip320)" style="stroke:#000000; stroke-linecap:round; stroke-linejoin:round; stroke-width:4; stroke-opacity:1; fill:none" points="287.366,1423.18 2352.76,1423.18 "/>
<polyline clip-path="url(#clip320)" style="stroke:#000000; stroke-linecap:round; stroke-linejoin:round; stroke-width:4; stroke-opacity:1; fill:none" points="345.82,1423.18 345.82,1404.28 "/>
<polyline clip-path="url(#clip320)" style="stroke:#000000; stroke-linecap:round; stroke-linejoin:round; stroke-width:4; stroke-opacity:1; fill:none" points="736.298,1423.18 736.298,1404.28 "/>
<polyline clip-path="url(#clip320)" style="stroke:#000000; stroke-linecap:round; stroke-linejoin:round; stroke-width:4; stroke-opacity:1; fill:none" points="1126.77,1423.18 1126.77,1404.28 "/>
<polyline clip-path="url(#clip320)" style="stroke:#000000; stroke-linecap:round; stroke-linejoin:round; stroke-width:4; stroke-opacity:1; fill:none" points="1517.25,1423.18 1517.25,1404.28 "/>
<polyline clip-path="url(#clip320)" style="stroke:#000000; stroke-linecap:round; stroke-linejoin:round; stroke-width:4; stroke-opacity:1; fill:none" points="1907.73,1423.18 1907.73,1404.28 "/>
<polyline clip-path="url(#clip320)" style="stroke:#000000; stroke-linecap:round; stroke-linejoin:round; stroke-width:4; stroke-opacity:1; fill:none" points="2298.21,1423.18 2298.21,1404.28 "/>
<path clip-path="url(#clip320)" d="M345.82 1454.1 Q342.209 1454.1 340.381 1457.66 Q338.575 1461.2 338.575 1468.33 Q338.575 1475.44 340.381 1479.01 Q342.209 1482.55 345.82 1482.55 Q349.455 1482.55 351.26 1479.01 Q353.089 1475.44 353.089 1468.33 Q353.089 1461.2 351.26 1457.66 Q349.455 1454.1 345.82 1454.1 M345.82 1450.39 Q351.63 1450.39 354.686 1455 Q357.765 1459.58 357.765 1468.33 Q357.765 1477.06 354.686 1481.67 Q351.63 1486.25 345.82 1486.25 Q340.01 1486.25 336.931 1481.67 Q333.876 1477.06 333.876 1468.33 Q333.876 1459.58 336.931 1455 Q340.01 1450.39 345.82 1450.39 Z" fill="#000000" fill-rule="nonzero" fill-opacity="1" /><path clip-path="url(#clip320)" d="M726.68 1481.64 L734.318 1481.64 L734.318 1455.28 L726.008 1456.95 L726.008 1452.69 L734.272 1451.02 L738.948 1451.02 L738.948 1481.64 L746.587 1481.64 L746.587 1485.58 L726.68 1485.58 L726.68 1481.64 Z" fill="#000000" fill-rule="nonzero" fill-opacity="1" /><path clip-path="url(#clip320)" d="M1121.43 1481.64 L1137.75 1481.64 L1137.75 1485.58 L1115.8 1485.58 L1115.8 1481.64 Q1118.46 1478.89 1123.05 1474.26 Q1127.65 1469.61 1128.83 1468.27 Q1131.08 1465.74 1131.96 1464.01 Q1132.86 1462.25 1132.86 1460.56 Q1132.86 1457.8 1130.92 1456.07 Q1129 1454.33 1125.9 1454.33 Q1123.7 1454.33 1121.24 1455.09 Q1118.81 1455.86 1116.03 1457.41 L1116.03 1452.69 Q1118.86 1451.55 1121.31 1450.97 Q1123.77 1450.39 1125.8 1450.39 Q1131.17 1450.39 1134.37 1453.08 Q1137.56 1455.77 1137.56 1460.26 Q1137.56 1462.39 1136.75 1464.31 Q1135.96 1466.2 1133.86 1468.8 Q1133.28 1469.47 1130.18 1472.69 Q1127.08 1475.88 1121.43 1481.64 Z" fill="#000000" fill-rule="nonzero" fill-opacity="1" /><path clip-path="url(#clip320)" d="M1521.5 1466.95 Q1524.86 1467.66 1526.73 1469.93 Q1528.63 1472.2 1528.63 1475.53 Q1528.63 1480.65 1525.11 1483.45 Q1521.59 1486.25 1515.11 1486.25 Q1512.93 1486.25 1510.62 1485.81 Q1508.33 1485.39 1505.87 1484.54 L1505.87 1480.02 Q1507.82 1481.16 1510.13 1481.74 Q1512.45 1482.32 1514.97 1482.32 Q1519.37 1482.32 1521.66 1480.58 Q1523.98 1478.84 1523.98 1475.53 Q1523.98 1472.48 1521.82 1470.77 Q1519.69 1469.03 1515.87 1469.03 L1511.85 1469.03 L1511.85 1465.19 L1516.06 1465.19 Q1519.51 1465.19 1521.34 1463.82 Q1523.17 1462.43 1523.17 1459.84 Q1523.17 1457.18 1521.27 1455.77 Q1519.39 1454.33 1515.87 1454.33 Q1513.95 1454.33 1511.75 1454.75 Q1509.56 1455.16 1506.92 1456.04 L1506.92 1451.88 Q1509.58 1451.14 1511.89 1450.77 Q1514.23 1450.39 1516.29 1450.39 Q1521.62 1450.39 1524.72 1452.83 Q1527.82 1455.23 1527.82 1459.35 Q1527.82 1462.22 1526.18 1464.21 Q1524.53 1466.18 1521.5 1466.95 Z" fill="#000000" fill-rule="nonzero" fill-opacity="1" /><path clip-path="url(#clip320)" d="M1910.74 1455.09 L1898.93 1473.54 L1910.74 1473.54 L1910.74 1455.09 M1909.51 1451.02 L1915.39 1451.02 L1915.39 1473.54 L1920.32 1473.54 L1920.32 1477.43 L1915.39 1477.43 L1915.39 1485.58 L1910.74 1485.58 L1910.74 1477.43 L1895.14 1477.43 L1895.14 1472.92 L1909.51 1451.02 Z" fill="#000000" fill-rule="nonzero" fill-opacity="1" /><path clip-path="url(#clip320)" d="M2288.48 1451.02 L2306.84 1451.02 L2306.84 1454.96 L2292.77 1454.96 L2292.77 1463.43 Q2293.78 1463.08 2294.8 1462.92 Q2295.82 1462.73 2296.84 1462.73 Q2302.63 1462.73 2306.01 1465.9 Q2309.39 1469.08 2309.39 1474.49 Q2309.39 1480.07 2305.91 1483.17 Q2302.44 1486.25 2296.12 1486.25 Q2293.95 1486.25 2291.68 1485.88 Q2289.43 1485.51 2287.03 1484.77 L2287.03 1480.07 Q2289.11 1481.2 2291.33 1481.76 Q2293.55 1482.32 2296.03 1482.32 Q2300.03 1482.32 2302.37 1480.21 Q2304.71 1478.1 2304.71 1474.49 Q2304.71 1470.88 2302.37 1468.77 Q2300.03 1466.67 2296.03 1466.67 Q2294.16 1466.67 2292.28 1467.08 Q2290.43 1467.5 2288.48 1468.38 L2288.48 1451.02 Z" fill="#000000" fill-rule="nonzero" fill-opacity="1" /><path clip-path="url(#clip320)" d="M1190.23 1520.52 L1230.43 1520.52 L1230.43 1525.93 L1213.56 1525.93 L1213.56 1568.04 L1207.1 1568.04 L1207.1 1525.93 L1190.23 1525.93 L1190.23 1520.52 Z" fill="#000000" fill-rule="nonzero" fill-opacity="1" /><path clip-path="url(#clip320)" d="M1234.38 1532.4 L1240.23 1532.4 L1240.23 1568.04 L1234.38 1568.04 L1234.38 1532.4 M1234.38 1518.52 L1240.23 1518.52 L1240.23 1525.93 L1234.38 1525.93 L1234.38 1518.52 Z" fill="#000000" fill-rule="nonzero" fill-opacity="1" /><path clip-path="url(#clip320)" d="M1280.24 1539.24 Q1282.44 1535.29 1285.5 1533.41 Q1288.55 1531.54 1292.69 1531.54 Q1298.26 1531.54 1301.28 1535.45 Q1304.31 1539.33 1304.31 1546.53 L1304.31 1568.04 L1298.42 1568.04 L1298.42 1546.72 Q1298.42 1541.59 1296.6 1539.11 Q1294.79 1536.63 1291.07 1536.63 Q1286.51 1536.63 1283.87 1539.65 Q1281.23 1542.68 1281.23 1547.9 L1281.23 1568.04 L1275.34 1568.04 L1275.34 1546.72 Q1275.34 1541.56 1273.53 1539.11 Q1271.71 1536.63 1267.93 1536.63 Q1263.44 1536.63 1260.8 1539.68 Q1258.15 1542.71 1258.15 1547.9 L1258.15 1568.04 L1252.27 1568.04 L1252.27 1532.4 L1258.15 1532.4 L1258.15 1537.93 Q1260.16 1534.66 1262.96 1533.1 Q1265.76 1531.54 1269.61 1531.54 Q1273.5 1531.54 1276.2 1533.51 Q1278.94 1535.48 1280.24 1539.24 Z" fill="#000000" fill-rule="nonzero" fill-opacity="1" /><path clip-path="url(#clip320)" d="M1346.48 1548.76 L1346.48 1551.62 L1319.55 1551.62 Q1319.93 1557.67 1323.18 1560.85 Q1326.46 1564 1332.28 1564 Q1335.66 1564 1338.81 1563.17 Q1341.99 1562.35 1345.11 1560.69 L1345.11 1566.23 Q1341.96 1567.57 1338.65 1568.27 Q1335.34 1568.97 1331.93 1568.97 Q1323.4 1568.97 1318.41 1564 Q1313.44 1559.04 1313.44 1550.57 Q1313.44 1541.82 1318.15 1536.69 Q1322.89 1531.54 1330.91 1531.54 Q1338.11 1531.54 1342.28 1536.18 Q1346.48 1540.8 1346.48 1548.76 M1340.62 1547.04 Q1340.56 1542.23 1337.92 1539.37 Q1335.31 1536.5 1330.98 1536.5 Q1326.08 1536.5 1323.12 1539.27 Q1320.19 1542.04 1319.74 1547.07 L1340.62 1547.04 Z" fill="#000000" fill-rule="nonzero" fill-opacity="1" /><path clip-path="url(#clip320)" d="M1376.27 1518.52 L1389.77 1518.52 L1389.77 1523.07 L1382.13 1523.07 L1382.13 1572.09 L1389.77 1572.09 L1389.77 1576.64 L1376.27 1576.64 L1376.27 1518.52 Z" fill="#000000" fill-rule="nonzero" fill-opacity="1" /><path clip-path="url(#clip320)" d="M1424.97 1533.45 L1424.97 1538.98 Q1422.49 1537.71 1419.81 1537.07 Q1417.14 1536.44 1414.27 1536.44 Q1409.91 1536.44 1407.72 1537.77 Q1405.55 1539.11 1405.55 1541.79 Q1405.55 1543.82 1407.11 1545 Q1408.67 1546.15 1413.38 1547.2 L1415.39 1547.64 Q1421.63 1548.98 1424.24 1551.43 Q1426.88 1553.85 1426.88 1558.21 Q1426.88 1563.17 1422.93 1566.07 Q1419.02 1568.97 1412.14 1568.97 Q1409.28 1568.97 1406.16 1568.39 Q1403.07 1567.85 1399.63 1566.74 L1399.63 1560.69 Q1402.88 1562.38 1406.03 1563.24 Q1409.18 1564.07 1412.27 1564.07 Q1416.41 1564.07 1418.63 1562.66 Q1420.86 1561.23 1420.86 1558.65 Q1420.86 1556.27 1419.24 1554.99 Q1417.65 1553.72 1412.2 1552.54 L1410.17 1552.07 Q1404.72 1550.92 1402.31 1548.56 Q1399.89 1546.18 1399.89 1542.04 Q1399.89 1537.01 1403.45 1534.27 Q1407.02 1531.54 1413.57 1531.54 Q1416.82 1531.54 1419.68 1532.01 Q1422.55 1532.49 1424.97 1533.45 Z" fill="#000000" fill-rule="nonzero" fill-opacity="1" /><path clip-path="url(#clip320)" d="M1449.89 1518.52 L1449.89 1576.64 L1436.39 1576.64 L1436.39 1572.09 L1444 1572.09 L1444 1523.07 L1436.39 1523.07 L1436.39 1518.52 L1449.89 1518.52 Z" fill="#000000" fill-rule="nonzero" fill-opacity="1" /><polyline clip-path="url(#clip320)" style="stroke:#000000; stroke-linecap:round; stroke-linejoin:round; stroke-width:4; stroke-opacity:1; fill:none" points="287.366,1423.18 287.366,47.2441 "/>
<polyline clip-path="url(#clip320)" style="stroke:#000000; stroke-linecap:round; stroke-linejoin:round; stroke-width:4; stroke-opacity:1; fill:none" points="287.366,1267.34 306.264,1267.34 "/>
<polyline clip-path="url(#clip320)" style="stroke:#000000; stroke-linecap:round; stroke-linejoin:round; stroke-width:4; stroke-opacity:1; fill:none" points="287.366,1038.04 306.264,1038.04 "/>
<polyline clip-path="url(#clip320)" style="stroke:#000000; stroke-linecap:round; stroke-linejoin:round; stroke-width:4; stroke-opacity:1; fill:none" points="287.366,808.735 306.264,808.735 "/>
<polyline clip-path="url(#clip320)" style="stroke:#000000; stroke-linecap:round; stroke-linejoin:round; stroke-width:4; stroke-opacity:1; fill:none" points="287.366,579.435 306.264,579.435 "/>
<polyline clip-path="url(#clip320)" style="stroke:#000000; stroke-linecap:round; stroke-linejoin:round; stroke-width:4; stroke-opacity:1; fill:none" points="287.366,350.134 306.264,350.134 "/>
<polyline clip-path="url(#clip320)" style="stroke:#000000; stroke-linecap:round; stroke-linejoin:round; stroke-width:4; stroke-opacity:1; fill:none" points="287.366,120.834 306.264,120.834 "/>
<path clip-path="url(#clip320)" d="M115.256 1267.79 L144.931 1267.79 L144.931 1271.72 L115.256 1271.72 L115.256 1267.79 Z" fill="#000000" fill-rule="nonzero" fill-opacity="1" /><path clip-path="url(#clip320)" d="M165.024 1253.13 Q161.413 1253.13 159.584 1256.7 Q157.778 1260.24 157.778 1267.37 Q157.778 1274.48 159.584 1278.04 Q161.413 1281.58 165.024 1281.58 Q168.658 1281.58 170.464 1278.04 Q172.292 1274.48 172.292 1267.37 Q172.292 1260.24 170.464 1256.7 Q168.658 1253.13 165.024 1253.13 M165.024 1249.43 Q170.834 1249.43 173.889 1254.04 Q176.968 1258.62 176.968 1267.37 Q176.968 1276.1 173.889 1280.7 Q170.834 1285.29 165.024 1285.29 Q159.214 1285.29 156.135 1280.7 Q153.079 1276.1 153.079 1267.37 Q153.079 1258.62 156.135 1254.04 Q159.214 1249.43 165.024 1249.43 Z" fill="#000000" fill-rule="nonzero" fill-opacity="1" /><path clip-path="url(#clip320)" d="M185.186 1278.74 L190.07 1278.74 L190.07 1284.62 L185.186 1284.62 L185.186 1278.74 Z" fill="#000000" fill-rule="nonzero" fill-opacity="1" /><path clip-path="url(#clip320)" d="M201.065 1280.68 L208.704 1280.68 L208.704 1254.31 L200.394 1255.98 L200.394 1251.72 L208.658 1250.06 L213.334 1250.06 L213.334 1280.68 L220.973 1280.68 L220.973 1284.62 L201.065 1284.62 L201.065 1280.68 Z" fill="#000000" fill-rule="nonzero" fill-opacity="1" /><path clip-path="url(#clip320)" d="M230.463 1250.06 L248.82 1250.06 L248.82 1253.99 L234.746 1253.99 L234.746 1262.46 Q235.764 1262.12 236.783 1261.95 Q237.801 1261.77 238.82 1261.77 Q244.607 1261.77 247.986 1264.94 Q251.366 1268.11 251.366 1273.53 Q251.366 1279.11 247.894 1282.21 Q244.421 1285.29 238.102 1285.29 Q235.926 1285.29 233.658 1284.92 Q231.412 1284.55 229.005 1283.81 L229.005 1279.11 Q231.088 1280.24 233.31 1280.8 Q235.533 1281.35 238.009 1281.35 Q242.014 1281.35 244.352 1279.25 Q246.69 1277.14 246.69 1273.53 Q246.69 1269.92 244.352 1267.81 Q242.014 1265.7 238.009 1265.7 Q236.135 1265.7 234.26 1266.12 Q232.408 1266.54 230.463 1267.42 L230.463 1250.06 Z" fill="#000000" fill-rule="nonzero" fill-opacity="1" /><path clip-path="url(#clip320)" d="M114.26 1038.49 L143.936 1038.49 L143.936 1042.42 L114.26 1042.42 L114.26 1038.49 Z" fill="#000000" fill-rule="nonzero" fill-opacity="1" /><path clip-path="url(#clip320)" d="M164.028 1023.83 Q160.417 1023.83 158.589 1027.4 Q156.783 1030.94 156.783 1038.07 Q156.783 1045.18 158.589 1048.74 Q160.417 1052.28 164.028 1052.28 Q167.663 1052.28 169.468 1048.74 Q171.297 1045.18 171.297 1038.07 Q171.297 1030.94 169.468 1027.4 Q167.663 1023.83 164.028 1023.83 M164.028 1020.13 Q169.839 1020.13 172.894 1024.74 Q175.973 1029.32 175.973 1038.07 Q175.973 1046.8 172.894 1051.4 Q169.839 1055.99 164.028 1055.99 Q158.218 1055.99 155.14 1051.4 Q152.084 1046.8 152.084 1038.07 Q152.084 1029.32 155.14 1024.74 Q158.218 1020.13 164.028 1020.13 Z" fill="#000000" fill-rule="nonzero" fill-opacity="1" /><path clip-path="url(#clip320)" d="M184.19 1049.44 L189.075 1049.44 L189.075 1055.32 L184.19 1055.32 L184.19 1049.44 Z" fill="#000000" fill-rule="nonzero" fill-opacity="1" /><path clip-path="url(#clip320)" d="M200.07 1051.38 L207.709 1051.38 L207.709 1025.01 L199.399 1026.68 L199.399 1022.42 L207.662 1020.76 L212.338 1020.76 L212.338 1051.38 L219.977 1051.38 L219.977 1055.32 L200.07 1055.32 L200.07 1051.38 Z" fill="#000000" fill-rule="nonzero" fill-opacity="1" /><path clip-path="url(#clip320)" d="M239.422 1023.83 Q235.81 1023.83 233.982 1027.4 Q232.176 1030.94 232.176 1038.07 Q232.176 1045.18 233.982 1048.74 Q235.81 1052.28 239.422 1052.28 Q243.056 1052.28 244.861 1048.74 Q246.69 1045.18 246.69 1038.07 Q246.69 1030.94 244.861 1027.4 Q243.056 1023.83 239.422 1023.83 M239.422 1020.13 Q245.232 1020.13 248.287 1024.74 Q251.366 1029.32 251.366 1038.07 Q251.366 1046.8 248.287 1051.4 Q245.232 1055.99 239.422 1055.99 Q233.611 1055.99 230.533 1051.4 Q227.477 1046.8 227.477 1038.07 Q227.477 1029.32 230.533 1024.74 Q233.611 1020.13 239.422 1020.13 Z" fill="#000000" fill-rule="nonzero" fill-opacity="1" /><path clip-path="url(#clip320)" d="M115.256 809.186 L144.931 809.186 L144.931 813.121 L115.256 813.121 L115.256 809.186 Z" fill="#000000" fill-rule="nonzero" fill-opacity="1" /><path clip-path="url(#clip320)" d="M165.024 794.534 Q161.413 794.534 159.584 798.098 Q157.778 801.64 157.778 808.77 Q157.778 815.876 159.584 819.441 Q161.413 822.983 165.024 822.983 Q168.658 822.983 170.464 819.441 Q172.292 815.876 172.292 808.77 Q172.292 801.64 170.464 798.098 Q168.658 794.534 165.024 794.534 M165.024 790.83 Q170.834 790.83 173.889 795.436 Q176.968 800.02 176.968 808.77 Q176.968 817.496 173.889 822.103 Q170.834 826.686 165.024 826.686 Q159.214 826.686 156.135 822.103 Q153.079 817.496 153.079 808.77 Q153.079 800.02 156.135 795.436 Q159.214 790.83 165.024 790.83 Z" fill="#000000" fill-rule="nonzero" fill-opacity="1" /><path clip-path="url(#clip320)" d="M185.186 820.135 L190.07 820.135 L190.07 826.015 L185.186 826.015 L185.186 820.135 Z" fill="#000000" fill-rule="nonzero" fill-opacity="1" /><path clip-path="url(#clip320)" d="M210.255 794.534 Q206.644 794.534 204.815 798.098 Q203.01 801.64 203.01 808.77 Q203.01 815.876 204.815 819.441 Q206.644 822.983 210.255 822.983 Q213.889 822.983 215.695 819.441 Q217.523 815.876 217.523 808.77 Q217.523 801.64 215.695 798.098 Q213.889 794.534 210.255 794.534 M210.255 790.83 Q216.065 790.83 219.121 795.436 Q222.199 800.02 222.199 808.77 Q222.199 817.496 219.121 822.103 Q216.065 826.686 210.255 826.686 Q204.445 826.686 201.366 822.103 Q198.311 817.496 198.311 808.77 Q198.311 800.02 201.366 795.436 Q204.445 790.83 210.255 790.83 Z" fill="#000000" fill-rule="nonzero" fill-opacity="1" /><path clip-path="url(#clip320)" d="M230.463 791.455 L248.82 791.455 L248.82 795.39 L234.746 795.39 L234.746 803.862 Q235.764 803.515 236.783 803.353 Q237.801 803.168 238.82 803.168 Q244.607 803.168 247.986 806.339 Q251.366 809.51 251.366 814.927 Q251.366 820.506 247.894 823.608 Q244.421 826.686 238.102 826.686 Q235.926 826.686 233.658 826.316 Q231.412 825.946 229.005 825.205 L229.005 820.506 Q231.088 821.64 233.31 822.196 Q235.533 822.751 238.009 822.751 Q242.014 822.751 244.352 820.645 Q246.69 818.538 246.69 814.927 Q246.69 811.316 244.352 809.209 Q242.014 807.103 238.009 807.103 Q236.135 807.103 234.26 807.52 Q232.408 807.936 230.463 808.816 L230.463 791.455 Z" fill="#000000" fill-rule="nonzero" fill-opacity="1" /><path clip-path="url(#clip320)" d="M164.028 565.233 Q160.417 565.233 158.589 568.798 Q156.783 572.34 156.783 579.469 Q156.783 586.576 158.589 590.141 Q160.417 593.682 164.028 593.682 Q167.663 593.682 169.468 590.141 Q171.297 586.576 171.297 579.469 Q171.297 572.34 169.468 568.798 Q167.663 565.233 164.028 565.233 M164.028 561.53 Q169.839 561.53 172.894 566.136 Q175.973 570.719 175.973 579.469 Q175.973 588.196 172.894 592.803 Q169.839 597.386 164.028 597.386 Q158.218 597.386 155.14 592.803 Q152.084 588.196 152.084 579.469 Q152.084 570.719 155.14 566.136 Q158.218 561.53 164.028 561.53 Z" fill="#000000" fill-rule="nonzero" fill-opacity="1" /><path clip-path="url(#clip320)" d="M184.19 590.835 L189.075 590.835 L189.075 596.715 L184.19 596.715 L184.19 590.835 Z" fill="#000000" fill-rule="nonzero" fill-opacity="1" /><path clip-path="url(#clip320)" d="M209.26 565.233 Q205.649 565.233 203.82 568.798 Q202.014 572.34 202.014 579.469 Q202.014 586.576 203.82 590.141 Q205.649 593.682 209.26 593.682 Q212.894 593.682 214.699 590.141 Q216.528 586.576 216.528 579.469 Q216.528 572.34 214.699 568.798 Q212.894 565.233 209.26 565.233 M209.26 561.53 Q215.07 561.53 218.125 566.136 Q221.204 570.719 221.204 579.469 Q221.204 588.196 218.125 592.803 Q215.07 597.386 209.26 597.386 Q203.449 597.386 200.371 592.803 Q197.315 588.196 197.315 579.469 Q197.315 570.719 200.371 566.136 Q203.449 561.53 209.26 561.53 Z" fill="#000000" fill-rule="nonzero" fill-opacity="1" /><path clip-path="url(#clip320)" d="M239.422 565.233 Q235.81 565.233 233.982 568.798 Q232.176 572.34 232.176 579.469 Q232.176 586.576 233.982 590.141 Q235.81 593.682 239.422 593.682 Q243.056 593.682 244.861 590.141 Q246.69 586.576 246.69 579.469 Q246.69 572.34 244.861 568.798 Q243.056 565.233 239.422 565.233 M239.422 561.53 Q245.232 561.53 248.287 566.136 Q251.366 570.719 251.366 579.469 Q251.366 588.196 248.287 592.803 Q245.232 597.386 239.422 597.386 Q233.611 597.386 230.533 592.803 Q227.477 588.196 227.477 579.469 Q227.477 570.719 230.533 566.136 Q233.611 561.53 239.422 561.53 Z" fill="#000000" fill-rule="nonzero" fill-opacity="1" /><path clip-path="url(#clip320)" d="M165.024 335.933 Q161.413 335.933 159.584 339.498 Q157.778 343.04 157.778 350.169 Q157.778 357.276 159.584 360.84 Q161.413 364.382 165.024 364.382 Q168.658 364.382 170.464 360.84 Q172.292 357.276 172.292 350.169 Q172.292 343.04 170.464 339.498 Q168.658 335.933 165.024 335.933 M165.024 332.229 Q170.834 332.229 173.889 336.836 Q176.968 341.419 176.968 350.169 Q176.968 358.896 173.889 363.502 Q170.834 368.086 165.024 368.086 Q159.214 368.086 156.135 363.502 Q153.079 358.896 153.079 350.169 Q153.079 341.419 156.135 336.836 Q159.214 332.229 165.024 332.229 Z" fill="#000000" fill-rule="nonzero" fill-opacity="1" /><path clip-path="url(#clip320)" d="M185.186 361.535 L190.07 361.535 L190.07 367.414 L185.186 367.414 L185.186 361.535 Z" fill="#000000" fill-rule="nonzero" fill-opacity="1" /><path clip-path="url(#clip320)" d="M210.255 335.933 Q206.644 335.933 204.815 339.498 Q203.01 343.04 203.01 350.169 Q203.01 357.276 204.815 360.84 Q206.644 364.382 210.255 364.382 Q213.889 364.382 215.695 360.84 Q217.523 357.276 217.523 350.169 Q217.523 343.04 215.695 339.498 Q213.889 335.933 210.255 335.933 M210.255 332.229 Q216.065 332.229 219.121 336.836 Q222.199 341.419 222.199 350.169 Q222.199 358.896 219.121 363.502 Q216.065 368.086 210.255 368.086 Q204.445 368.086 201.366 363.502 Q198.311 358.896 198.311 350.169 Q198.311 341.419 201.366 336.836 Q204.445 332.229 210.255 332.229 Z" fill="#000000" fill-rule="nonzero" fill-opacity="1" /><path clip-path="url(#clip320)" d="M230.463 332.854 L248.82 332.854 L248.82 336.79 L234.746 336.79 L234.746 345.262 Q235.764 344.915 236.783 344.752 Q237.801 344.567 238.82 344.567 Q244.607 344.567 247.986 347.739 Q251.366 350.91 251.366 356.326 Q251.366 361.905 247.894 365.007 Q244.421 368.086 238.102 368.086 Q235.926 368.086 233.658 367.715 Q231.412 367.345 229.005 366.604 L229.005 361.905 Q231.088 363.039 233.31 363.595 Q235.533 364.151 238.009 364.151 Q242.014 364.151 244.352 362.044 Q246.69 359.938 246.69 356.326 Q246.69 352.715 244.352 350.609 Q242.014 348.502 238.009 348.502 Q236.135 348.502 234.26 348.919 Q232.408 349.336 230.463 350.215 L230.463 332.854 Z" fill="#000000" fill-rule="nonzero" fill-opacity="1" /><path clip-path="url(#clip320)" d="M164.028 106.633 Q160.417 106.633 158.589 110.198 Q156.783 113.739 156.783 120.869 Q156.783 127.975 158.589 131.54 Q160.417 135.082 164.028 135.082 Q167.663 135.082 169.468 131.54 Q171.297 127.975 171.297 120.869 Q171.297 113.739 169.468 110.198 Q167.663 106.633 164.028 106.633 M164.028 102.929 Q169.839 102.929 172.894 107.536 Q175.973 112.119 175.973 120.869 Q175.973 129.596 172.894 134.202 Q169.839 138.785 164.028 138.785 Q158.218 138.785 155.14 134.202 Q152.084 129.596 152.084 120.869 Q152.084 112.119 155.14 107.536 Q158.218 102.929 164.028 102.929 Z" fill="#000000" fill-rule="nonzero" fill-opacity="1" /><path clip-path="url(#clip320)" d="M184.19 132.235 L189.075 132.235 L189.075 138.114 L184.19 138.114 L184.19 132.235 Z" fill="#000000" fill-rule="nonzero" fill-opacity="1" /><path clip-path="url(#clip320)" d="M200.07 134.179 L207.709 134.179 L207.709 107.813 L199.399 109.48 L199.399 105.221 L207.662 103.554 L212.338 103.554 L212.338 134.179 L219.977 134.179 L219.977 138.114 L200.07 138.114 L200.07 134.179 Z" fill="#000000" fill-rule="nonzero" fill-opacity="1" /><path clip-path="url(#clip320)" d="M239.422 106.633 Q235.81 106.633 233.982 110.198 Q232.176 113.739 232.176 120.869 Q232.176 127.975 233.982 131.54 Q235.81 135.082 239.422 135.082 Q243.056 135.082 244.861 131.54 Q246.69 127.975 246.69 120.869 Q246.69 113.739 244.861 110.198 Q243.056 106.633 239.422 106.633 M239.422 102.929 Q245.232 102.929 248.287 107.536 Q251.366 112.119 251.366 120.869 Q251.366 129.596 248.287 134.202 Q245.232 138.785 239.422 138.785 Q233.611 138.785 230.533 134.202 Q227.477 129.596 227.477 120.869 Q227.477 112.119 230.533 107.536 Q233.611 102.929 239.422 102.929 Z" fill="#000000" fill-rule="nonzero" fill-opacity="1" /><path clip-path="url(#clip320)" d="M20.8447 823.791 Q20.8447 830.793 26.0645 834.931 Q31.2844 839.037 40.2919 839.037 Q49.2675 839.037 54.4874 834.931 Q59.7073 830.793 59.7073 823.791 Q59.7073 816.788 54.4874 812.714 Q49.2675 808.609 40.2919 808.609 Q31.2844 808.609 26.0645 812.714 Q20.8447 816.788 20.8447 823.791 M15.6248 823.791 Q15.6248 813.797 22.3406 807.813 Q29.0246 801.829 40.2919 801.829 Q51.5274 801.829 58.2432 807.813 Q64.9272 813.797 64.9272 823.791 Q64.9272 833.817 58.2432 839.832 Q51.5592 845.816 40.2919 845.816 Q29.0246 845.816 22.3406 839.832 Q15.6248 833.817 15.6248 823.791 Z" fill="#000000" fill-rule="nonzero" fill-opacity="1" /><path clip-path="url(#clip320)" d="M49.9359 792.631 L28.3562 792.631 L28.3562 786.774 L49.7131 786.774 Q54.7739 786.774 57.3202 784.801 Q59.8346 782.827 59.8346 778.881 Q59.8346 774.138 56.8109 771.401 Q53.7872 768.632 48.5673 768.632 L28.3562 768.632 L28.3562 762.775 L64.0042 762.775 L64.0042 768.632 L58.5296 768.632 Q61.7762 770.764 63.3676 773.597 Q64.9272 776.398 64.9272 780.122 Q64.9272 786.265 61.1078 789.448 Q57.2883 792.631 49.9359 792.631 M27.4968 777.894 L27.4968 777.894 Z" fill="#000000" fill-rule="nonzero" fill-opacity="1" /><path clip-path="url(#clip320)" d="M18.2347 744.92 L28.3562 744.92 L28.3562 732.857 L32.9077 732.857 L32.9077 744.92 L52.2594 744.92 Q56.6199 744.92 57.8613 743.742 Q59.1026 742.533 59.1026 738.872 L59.1026 732.857 L64.0042 732.857 L64.0042 738.872 Q64.0042 745.652 61.4897 748.23 Q58.9434 750.808 52.2594 750.808 L32.9077 750.808 L32.9077 755.105 L28.3562 755.105 L28.3562 750.808 L18.2347 750.808 L18.2347 744.92 Z" fill="#000000" fill-rule="nonzero" fill-opacity="1" /><path clip-path="url(#clip320)" d="M58.657 719.489 L77.5631 719.489 L77.5631 725.377 L28.3562 725.377 L28.3562 719.489 L33.7671 719.489 Q30.5842 717.643 29.0564 714.842 Q27.4968 712.009 27.4968 708.094 Q27.4968 701.601 32.6531 697.559 Q37.8093 693.485 46.212 693.485 Q54.6147 693.485 59.771 697.559 Q64.9272 701.601 64.9272 708.094 Q64.9272 712.009 63.3994 714.842 Q61.8398 717.643 58.657 719.489 M46.212 699.564 Q39.7508 699.564 36.0905 702.238 Q32.3984 704.879 32.3984 709.526 Q32.3984 714.173 36.0905 716.847 Q39.7508 719.489 46.212 719.489 Q52.6732 719.489 56.3653 716.847 Q60.0256 714.173 60.0256 709.526 Q60.0256 704.879 56.3653 702.238 Q52.6732 699.564 46.212 699.564 Z" fill="#000000" fill-rule="nonzero" fill-opacity="1" /><path clip-path="url(#clip320)" d="M49.9359 684.382 L28.3562 684.382 L28.3562 678.525 L49.7131 678.525 Q54.7739 678.525 57.3202 676.552 Q59.8346 674.579 59.8346 670.632 Q59.8346 665.889 56.8109 663.152 Q53.7872 660.383 48.5673 660.383 L28.3562 660.383 L28.3562 654.527 L64.0042 654.527 L64.0042 660.383 L58.5296 660.383 Q61.7762 662.516 63.3676 665.348 Q64.9272 668.149 64.9272 671.873 Q64.9272 678.016 61.1078 681.199 Q57.2883 684.382 49.9359 684.382 M27.4968 669.645 L27.4968 669.645 Z" fill="#000000" fill-rule="nonzero" fill-opacity="1" /><path clip-path="url(#clip320)" d="M18.2347 636.671 L28.3562 636.671 L28.3562 624.608 L32.9077 624.608 L32.9077 636.671 L52.2594 636.671 Q56.6199 636.671 57.8613 635.493 Q59.1026 634.284 59.1026 630.623 L59.1026 624.608 L64.0042 624.608 L64.0042 630.623 Q64.0042 637.403 61.4897 639.981 Q58.9434 642.559 52.2594 642.559 L32.9077 642.559 L32.9077 646.856 L28.3562 646.856 L28.3562 642.559 L18.2347 642.559 L18.2347 636.671 Z" fill="#000000" fill-rule="nonzero" fill-opacity="1" /><polyline clip-path="url(#clip322)" style="stroke:#009af9; stroke-linecap:round; stroke-linejoin:round; stroke-width:4; stroke-opacity:1; fill:none" points="345.82,579.435 349.725,579.435 353.63,579.435 353.63,624.765 357.535,624.765 357.535,668.759 361.439,668.759 361.439,711.033 365.344,711.033 365.344,751.24 369.249,751.24 369.249,789.082 373.154,789.082 373.154,733.651 377.059,733.651 377.059,678.085 380.963,678.085 380.963,623.019 384.868,623.019 384.868,569.065 388.773,569.065 388.773,516.799 392.678,516.799 392.678,466.753 396.582,466.753 396.582,419.4 400.487,419.4 400.487,375.155 404.392,375.155 404.392,334.361 408.297,334.361 408.297,297.289 412.201,297.289 412.201,354.792 416.106,354.792 416.106,413.654 420.011,413.654 420.011,473.14 423.916,473.14 423.916,532.519 427.821,532.519 427.821,591.079 431.725,591.079 431.725,648.141 435.63,648.141 435.63,703.071 439.535,703.071 439.535,755.291 443.44,755.291 443.44,804.291 447.344,804.291 447.344,849.631 451.249,849.631 451.249,800.296 455.154,800.296 455.154,749.344 459.059,749.344 459.059,697.364 462.963,697.364 462.963,644.952 466.868,644.952 466.868,592.698 470.773,592.698 470.773,631.84 474.678,631.84 474.678,669.594 478.583,669.594 478.583,705.699 482.487,705.699 482.487,739.931 486.392,739.931 486.392,772.103 490.297,772.103 490.297,711.412 494.202,711.412 494.202,651.088 498.106,651.088 498.106,591.844 502.011,591.844 502.011,534.36 505.916,534.36 505.916,479.263 509.821,479.263 509.821,427.118 513.726,427.118 513.726,378.422 517.63,378.422 517.63,333.594 521.535,333.594 521.535,292.966 525.44,292.966 525.44,256.785 529.345,256.785 529.345,225.205 533.249,225.205 533.249,198.292 537.154,198.292 537.154,176.02 541.059,176.02 541.059,158.278 544.964,158.278 544.964,144.872 548.868,144.872 548.868,226.193 552.773,226.193 552.773,308.575 556.678,308.575 556.678,390.849 560.583,390.849 560.583,471.878 564.488,471.878 564.488,550.579 568.392,550.579 568.392,535.282 572.297,535.282 572.297,518.399 576.202,518.399 576.202,499.889 580.107,499.889 580.107,479.747 584.011,479.747 584.011,458.007 587.916,458.007 587.916,434.737 591.821,434.737 591.821,410.036 595.726,410.036 595.726,384.032 599.631,384.032 599.631,356.88 603.535,356.88 603.535,328.758 607.44,328.758 607.44,390.518 611.345,390.518 611.345,449.039 615.25,449.039 615.25,503.764 619.154,503.764 619.154,554.225 623.059,554.225 623.059,600.044 626.964,600.044 626.964,640.943 630.869,640.943 630.869,676.742 634.773,676.742 634.773,707.365 638.678,707.365 638.678,732.832 642.583,732.832 642.583,753.26 646.488,753.26 646.488,768.859 650.393,768.859 650.393,779.92 654.297,779.92 654.297,786.813 658.202,786.813 658.202,789.973 662.107,789.973 662.107,789.892 666.012,789.892 666.012,787.106 669.916,787.106 669.916,782.183 673.821,782.183 673.821,775.715 677.726,775.715 677.726,768.301 681.631,768.301 681.631,760.534 685.535,760.534 685.535,752.998 689.44,752.998 689.44,746.245 693.345,746.245 693.345,740.795 697.25,740.795 697.25,737.123 701.155,737.123 701.155,735.648 705.059,735.648 705.059,736.731 708.964,736.731 708.964,740.671 712.869,740.671 712.869,747.692 716.774,747.692 716.774,757.953 720.678,757.953 720.678,771.536 724.583,771.536 724.583,788.454 728.488,788.454 728.488,808.65 732.393,808.65 732.393,832.001 736.298,832.001 736.298,858.319 740.202,858.319 740.202,887.363 744.107,887.363 744.107,918.84 748.012,918.84 748.012,952.415 751.917,952.415 751.917,987.717 755.821,987.717 755.821,1024.35 759.726,1024.35 759.726,1061.9 763.631,1061.9 763.631,1009.28 767.536,1009.28 767.536,959.402 771.44,959.402 771.44,912.617 775.345,912.617 775.345,869.214 779.25,869.214 779.25,829.416 783.155,829.416 783.155,793.368 787.06,793.368 787.06,761.147 790.964,761.147 790.964,732.754 794.869,732.754 794.869,708.122 798.774,708.122 798.774,687.116 802.679,687.116 802.679,760.201 806.583,760.201 806.583,833.79 810.488,833.79 810.488,906.81 814.393,906.81 814.393,978.224 818.298,978.224 818.298,1047.05 822.202,1047.05 822.202,1021.74 826.107,1021.74 826.107,994.792 830.012,994.792 830.012,966.288 833.917,966.288 833.917,936.324 837.822,936.324 837.822,905.031 841.726,905.031 841.726,963.227 845.631,963.227 845.631,1017.76 849.536,1017.76 849.536,1068.07 853.441,1068.07 853.441,1113.67 857.345,1113.67 857.345,1154.19 861.25,1154.19 861.25,1189.36 865.155,1189.36 865.155,1219.03 869.06,1219.03 869.06,1243.16 872.965,1243.16 872.965,1261.79 876.869,1261.79 876.869,1275.1 880.774,1275.1 880.774,1192.68 884.679,1192.68 884.679,1108.21 888.584,1108.21 888.584,1022.88 892.488,1022.88 892.488,937.888 896.393,937.888 896.393,854.375 900.298,854.375 900.298,864.092 904.203,864.092 904.203,874.72 908.107,874.72 908.107,886.406 912.012,886.406 912.012,899.266 915.917,899.266 915.917,913.385 919.822,913.385 919.822,838.158 923.727,838.158 923.727,766.94 927.631,766.94 927.631,700.496 931.536,700.496 931.536,639.48 935.441,639.48 935.441,584.425 939.346,584.425 939.346,535.734 943.25,535.734 943.25,493.682 947.155,493.682 947.155,458.407 951.06,458.407 951.06,429.916 954.965,429.916 954.965,408.086 958.87,408.086 958.87,483.333 962.774,483.333 962.774,561.967 966.679,561.967 966.679,642.752 970.584,642.752 970.584,724.444 974.489,724.444 974.489,805.813 978.393,805.813 978.393,795.007 982.298,795.007 982.298,784.226 986.203,784.226 986.203,773.194 990.108,773.194 990.108,761.653 994.012,761.653 994.012,749.364 997.917,749.364 997.917,826.78 1001.82,826.78 1001.82,900.389 1005.73,900.389 1005.73,969.271 1009.63,969.271 1009.63,1032.62 1013.54,1032.62 1013.54,1089.77 1017.44,1089.77 1017.44,1140.17 1021.35,1140.17 1021.35,1183.44 1025.25,1183.44 1025.25,1219.32 1029.16,1219.32 1029.16,1247.73 1033.06,1247.73 1033.06,1268.7 1036.96,1268.7 1036.96,1191.79 1040.87,1191.79 1040.87,1110.62 1044.77,1110.62 1044.77,1026.43 1048.68,1026.43 1048.68,940.466 1052.58,940.466 1052.58,853.969 1056.49,853.969 1056.49,858.832 1060.39,858.832 1060.39,862.905 1064.3,862.905 1064.3,866.534 1068.2,866.534 1068.2,870.056 1072.11,870.056 1072.11,873.797 1076.01,873.797 1076.01,787.408 1079.92,787.408 1079.92,704.502 1083.82,704.502 1083.82,626.109 1087.73,626.109 1087.73,553.145 1091.63,553.145 1091.63,486.394 1095.54,486.394 1095.54,426.503 1099.44,426.503 1099.44,373.967 1103.35,373.967 1103.35,329.128 1107.25,329.128 1107.25,292.171 1111.16,292.171 1111.16,263.125 1115.06,263.125 1115.06,332.527 1118.97,332.527 1118.97,406.778 1122.87,406.778 1122.87,484.703 1126.77,484.703 1126.77,565.085 1130.68,565.085 1130.68,646.69 1134.58,646.69 1134.58,728.293 1138.49,728.293 1138.49,808.7 1142.39,808.7 1142.39,886.772 1146.3,886.772 1146.3,961.447 1150.2,961.447 1150.2,1031.75 1154.11,1031.75 1154.11,1096.84 1158.01,1096.84 1158.01,1155.96 1161.92,1155.96 1161.92,1208.53 1165.82,1208.53 1165.82,1254.08 1169.73,1254.08 1169.73,1292.3 1173.63,1292.3 1173.63,1323.05 1177.54,1323.05 1177.54,1346.3 1181.44,1346.3 1181.44,1362.19 1185.35,1362.19 1185.35,1370.99 1189.25,1370.99 1189.25,1373.09 1193.16,1373.09 1193.16,1278.36 1197.06,1278.36 1197.06,1180.73 1200.97,1180.73 1200.97,1081.7 1204.87,1081.7 1204.87,982.71 1208.77,982.71 1208.77,885.203 1212.68,885.203 1212.68,881.196 1216.58,881.196 1216.58,878.628 1220.49,878.628 1220.49,877.884 1224.39,877.884 1224.39,879.298 1228.3,879.298 1228.3,883.147 1232.2,883.147 1232.2,798.988 1236.11,798.988 1236.11,720.309 1240.01,720.309 1240.01,647.972 1243.92,647.972 1243.92,582.698 1247.82,582.698 1247.82,525.05 1251.73,525.05 1251.73,566.09 1255.63,566.09 1255.63,612.726 1259.54,612.726 1259.54,664.259 1263.44,664.259 1263.44,719.911 1267.35,719.911 1267.35,778.84 1271.25,778.84 1271.25,749.503 1275.16,749.503 1275.16,724.322 1279.06,724.322 1279.06,703.155 1282.97,703.155 1282.97,685.79 1286.87,685.79 1286.87,671.952 1290.78,671.952 1290.78,751.969 1294.68,751.969 1294.68,832.131 1298.58,832.131 1298.58,911.246 1302.49,911.246 1302.49,988.176 1306.39,988.176 1306.39,1061.85 1310.3,1061.85 1310.3,1040.65 1314.2,1040.65 1314.2,1017.02 1318.11,1017.02 1318.11,990.99 1322.01,990.99 1322.01,962.65 1325.92,962.65 1325.92,932.121 1329.82,932.121 1329.82,899.575 1333.73,899.575 1333.73,865.224 1337.63,865.224 1337.63,829.312 1341.54,829.312 1341.54,792.112 1345.44,792.112 1345.44,753.921 1349.35,753.921 1349.35,805.709 1353.25,805.709 1353.25,854.466 1357.16,854.466 1357.16,899.741 1361.06,899.741 1361.06,941.162 1364.97,941.162 1364.97,978.439 1368.87,978.439 1368.87,920.708 1372.78,920.708 1372.78,861.185 1376.68,861.185 1376.68,800.611 1380.58,800.611 1380.58,739.734 1384.49,739.734 1384.49,679.289 1388.39,679.289 1388.39,619.984 1392.3,619.984 1392.3,562.492 1396.2,562.492 1396.2,507.432 1400.11,507.432 1400.11,455.363 1404.01,455.363 1404.01,406.772 1407.92,406.772 1407.92,452.728 1411.82,452.728 1411.82,500.226 1415.73,500.226 1415.73,548.731 1419.63,548.731 1419.63,597.699 1423.54,597.699 1423.54,646.589 1427.44,646.589 1427.44,694.873 1431.35,694.873 1431.35,742.048 1435.25,742.048 1435.25,787.64 1439.16,787.64 1439.16,831.219 1443.06,831.219 1443.06,872.401 1446.97,872.401 1446.97,820.198 1450.87,820.198 1450.87,767.671 1454.78,767.671 1454.78,715.385 1458.68,715.385 1458.68,663.889 1462.59,663.889 1462.59,613.706 1466.49,613.706 1466.49,655.979 1470.39,655.979 1470.39,697.818 1474.3,697.818 1474.3,738.84 1478.2,738.84 1478.2,778.682 1482.11,778.682 1482.11,817.014 1486.01,817.014 1486.01,762.878 1489.92,762.878 1489.92,709.35 1493.82,709.35 1493.82,656.989 1497.73,656.989 1497.73,606.321 1501.63,606.321 1501.63,557.827 1505.54,557.827 1505.54,602.596 1509.44,602.596 1509.44,647.667 1513.35,647.667 1513.35,692.573 1517.25,692.573 1517.25,736.858 1521.16,736.858 1521.16,780.091 1525.06,780.091 1525.06,821.866 1528.97,821.866 1528.97,861.817 1532.87,861.817 1532.87,899.619 1536.78,899.619 1536.78,934.995 1540.68,934.995 1540.68,967.719 1544.59,967.719 1544.59,906.963 1548.49,906.963 1548.49,845.942 1552.39,845.942 1552.39,785.373 1556.3,785.373 1556.3,725.946 1560.2,725.946 1560.2,668.313 1564.11,668.313 1564.11,703.738 1568.01,703.738 1568.01,739.432 1571.92,739.432 1571.92,775.097 1575.82,775.097 1575.82,810.439 1579.73,810.439 1579.73,845.175 1583.63,845.175 1583.63,788.381 1587.54,788.381 1587.54,733.14 1591.44,733.14 1591.44,680.006 1595.35,680.006 1595.35,629.477 1599.25,629.477 1599.25,581.992 1603.16,581.992 1603.16,537.921 1607.06,537.921 1607.06,497.56 1610.97,497.56 1610.97,461.129 1614.87,461.129 1614.87,428.769 1618.78,428.769 1618.78,400.54 1622.68,400.54 1622.68,376.425 1626.59,376.425 1626.59,356.329 1630.49,356.329 1630.49,340.089 1634.4,340.089 1634.4,327.47 1638.3,327.47 1638.3,318.182 1642.2,318.182 1642.2,402.54 1646.11,402.54 1646.11,486.825 1650.01,486.825 1650.01,569.839 1653.92,569.839 1653.92,650.442 1657.82,650.442 1657.82,727.571 1661.73,727.571 1661.73,800.256 1665.63,800.256 1665.63,867.641 1669.54,867.641 1669.54,928.994 1673.44,928.994 1673.44,983.719 1677.35,983.719 1677.35,1031.36 1681.25,1031.36 1681.25,980.962 1685.16,980.962 1685.16,925.694 1689.06,925.694 1689.06,866.325 1692.97,866.325 1692.97,803.684 1696.87,803.684 1696.87,738.646 1700.78,738.646 1700.78,762.771 1704.68,762.771 1704.68,783.634 1708.59,783.634 1708.59,801.36 1712.49,801.36 1712.49,816.128 1716.4,816.128 1716.4,828.163 1720.3,828.163 1720.3,837.735 1724.2,837.735 1724.2,845.15 1728.11,845.15 1728.11,850.741 1732.01,850.741 1732.01,854.867 1735.92,854.867 1735.92,857.898 1739.82,857.898 1739.82,769.55 1743.73,769.55 1743.73,683.532 1747.63,683.532 1747.63,600.982 1751.54,600.982 1751.54,522.944 1755.44,522.944 1755.44,450.346 1759.35,450.346 1759.35,383.986 1763.25,383.986 1763.25,324.521 1767.16,324.521 1767.16,272.457 1771.06,272.457 1771.06,228.144 1774.97,228.144 1774.97,191.775 1778.87,191.775 1778.87,254.044 1782.78,254.044 1782.78,321.501 1786.68,321.501 1786.68,393.11 1790.59,393.11 1790.59,467.776 1794.49,467.776 1794.49,544.374 1798.4,544.374 1798.4,531.111 1802.3,531.111 1802.3,520.195 1806.2,520.195 1806.2,511.314 1810.11,511.314 1810.11,504.128 1814.01,504.128 1814.01,498.277 1817.92,498.277 1817.92,493.394 1821.82,493.394 1821.82,489.104 1825.73,489.104 1825.73,485.037 1829.63,485.037 1829.63,480.836 1833.54,480.836 1833.54,476.158 1837.44,476.158 1837.44,561.347 1841.35,561.347 1841.35,642.784 1845.25,642.784 1845.25,719.442 1849.16,719.442 1849.16,790.415 1853.06,790.415 1853.06,854.93 1856.97,854.93 1856.97,912.359 1860.87,912.359 1860.87,962.23 1864.78,962.23 1864.78,1004.23 1868.68,1004.23 1868.68,1038.19 1872.59,1038.19 1872.59,1064.13 1876.49,1064.13 1876.49,1082.19 1880.4,1082.19 1880.4,1092.69 1884.3,1092.69 1884.3,1096.05 1888.21,1096.05 1888.21,1092.84 1892.11,1092.84 1892.11,1083.73 1896.01,1083.73 1896.01,978.821 1899.92,978.821 1899.92,872.275 1903.82,872.275 1903.82,765.76 1907.73,765.76 1907.73,660.895 1911.63,660.895 1911.63,559.223 1915.54,559.223 1915.54,552.844 1919.44,552.844 1919.44,549.739 1923.35,549.739 1923.35,550.294 1927.25,550.294 1927.25,554.81 1931.16,554.81 1931.16,563.496 1935.06,563.496 1935.06,576.469 1938.97,576.469 1938.97,593.754 1942.87,593.754 1942.87,615.285 1946.78,615.285 1946.78,640.912 1950.68,640.912 1950.68,670.405 1954.59,670.405 1954.59,703.461 1958.49,703.461 1958.49,739.71 1962.4,739.71 1962.4,778.728 1966.3,778.728 1966.3,820.046 1970.21,820.046 1970.21,863.157 1974.11,863.157 1974.11,816.873 1978.01,816.873 1978.01,773.981 1981.92,773.981 1981.92,734.711 1985.82,734.711 1985.82,699.216 1989.73,699.216 1989.73,667.579 1993.63,667.579 1993.63,730.467 1997.54,730.467 1997.54,794.487 2001.44,794.487 2001.44,858.736 2005.35,858.736 2005.35,922.328 2009.25,922.328 2009.25,984.414 2013.16,984.414 2013.16,953.535 2017.06,953.535 2017.06,922.288 2020.97,922.288 2020.97,890.79 2024.87,890.79 2024.87,859.163 2028.78,859.163 2028.78,827.533 2032.68,827.533 2032.68,796.03 2036.59,796.03 2036.59,764.779 2040.49,764.779 2040.49,733.903 2044.4,733.903 2044.4,703.519 2048.3,703.519 2048.3,673.736 2052.21,673.736 2052.21,644.651 2056.11,644.651 2056.11,616.35 2060.02,616.35 2060.02,588.906 2063.92,588.906 2063.92,562.377 2067.82,562.377 2067.82,536.807 2071.73,536.807 2071.73,602.882 2075.63,602.882 2075.63,667.285 2079.54,667.285 2079.54,729.239 2083.44,729.239 2083.44,788.034 2087.35,788.034 2087.35,843.041 2091.25,843.041 2091.25,893.717 2095.16,893.717 2095.16,939.618 2099.06,939.618 2099.06,980.403 2102.97,980.403 2102.97,1015.83 2106.87,1015.83 2106.87,1045.79 2110.78,1045.79 2110.78,1070.24 2114.68,1070.24 2114.68,1089.28 2118.59,1089.28 2118.59,1103.09 2122.49,1103.09 2122.49,1111.95 2126.4,1111.95 2126.4,1116.22 2130.3,1116.22 2130.3,1025.68 2134.21,1025.68 2134.21,934.173 2138.11,934.173 2138.11,843.017 2142.02,843.017 2142.02,753.505 2145.92,753.505 2145.92,666.858 2149.82,666.858 2149.82,584.21 2153.73,584.21 2153.73,506.59 2157.63,506.59 2157.63,434.899 2161.54,434.899 2161.54,369.903 2165.44,369.903 2165.44,312.215 2169.35,312.215 2169.35,262.293 2173.25,262.293 2173.25,220.433 2177.16,220.433 2177.16,186.768 2181.06,186.768 2181.06,161.269 2184.97,161.269 2184.97,143.754 2188.87,143.754 2188.87,133.892 2192.78,133.892 2192.78,131.217 2196.68,131.217 2196.68,135.139 2200.59,135.139 2200.59,144.96 2204.49,144.96 2204.49,159.89 2208.4,159.89 2208.4,269.727 2212.3,269.727 2212.3,380.225 2216.21,380.225 2216.21,489.661 2220.11,489.661 2220.11,596.38 2224.02,596.38 2224.02,698.825 2227.92,698.825 2227.92,795.562 2231.83,795.562 2231.83,885.31 2235.73,885.31 2235.73,966.958 2239.63,966.958 2239.63,1039.58 2243.54,1039.58 2243.54,1102.46 2247.44,1102.46 2247.44,1064.41 2251.35,1064.41 2251.35,1018.48 2255.25,1018.48 2255.25,965.332 2259.16,965.332 2259.16,905.785 2263.06,905.785 2263.06,840.753 2266.97,840.753 2266.97,771.237 2270.87,771.237 2270.87,698.3 2274.78,698.3 2274.78,623.046 2278.68,623.046 2278.68,546.597 2282.59,546.597 2282.59,470.068 2286.49,470.068 2286.49,485.209 2290.4,485.209 2290.4,499.728 2294.3,499.728 2294.3,513.827 "/>
<polyline clip-path="url(#clip322)" style="stroke:#e26f46; stroke-linecap:round; stroke-linejoin:round; stroke-width:4; stroke-opacity:1; fill:none" points="345.82,580.615 349.725,611.049 353.63,642.441 357.535,674.233 361.439,705.884 365.344,794.105 369.249,755.272 373.154,712.908 377.059,667.958 380.963,621.387 384.868,574.145 388.773,527.153 392.678,481.279 396.582,437.32 400.487,395.99 404.392,300.678 408.297,335.045 412.201,375.54 416.106,421.126 420.011,470.696 423.916,523.104 427.821,577.192 431.725,631.823 435.63,685.903 439.535,738.406 443.44,845.619 447.344,823.555 451.249,795.451 455.154,762.04 459.059,724.147 462.963,625.438 466.868,650.003 470.773,674.846 474.678,699.601 478.583,723.919 482.487,804.705 486.392,758.515 490.297,709.045 494.202,657.399 498.106,604.678 502.011,551.956 505.916,500.247 509.821,450.496 513.726,403.55 517.63,360.147 521.535,320.903 525.44,286.305 529.345,256.704 533.249,232.314 537.154,213.213 541.059,142.128 544.964,202.042 548.868,268.728 552.773,340.493 556.678,415.608 560.583,549.572 564.488,557.557 568.392,561.917 572.297,562.492 576.202,559.223 580.107,552.145 584.011,541.385 587.916,527.149 591.821,509.721 595.726,489.444 599.631,409.489 603.535,453.449 607.44,497.843 611.345,541.836 615.25,584.647 619.154,625.561 623.059,663.944 626.964,699.256 630.869,731.055 634.773,759.006 638.678,782.884 642.583,802.569 646.488,818.049 650.393,829.412 654.297,836.84 658.202,840.599 662.107,841.028 666.012,838.527 669.916,833.547 673.821,826.574 677.726,818.116 681.631,808.689 685.535,798.807 689.44,788.968 693.345,779.64 697.25,771.259 701.155,764.21 705.059,758.831 708.964,755.4 712.869,754.131 716.774,755.179 720.678,758.633 724.583,764.519 728.488,772.803 732.393,783.395 736.298,796.154 740.202,810.892 744.107,827.385 748.012,845.376 751.917,864.586 755.821,941.942 759.726,893.985 763.631,844.354 767.536,794.063 771.44,744.09 775.345,695.357 779.25,648.71 783.155,604.902 787.06,564.58 790.964,528.277 794.869,439.178 798.774,480.725 802.679,529.13 806.583,583.117 810.488,641.341 814.393,759.646 818.298,753.498 822.202,745.495 826.107,735.669 830.012,724.091 833.917,653.652 837.822,707.654 841.726,762.33 845.631,816.568 849.536,869.325 853.441,919.645 857.345,966.677 861.25,1009.69 865.155,1048.1 869.06,1081.43 872.965,1166.61 876.869,1120.31 880.774,1066.45 884.679,1006.43 888.584,941.763 892.488,816.74 896.393,816.048 900.298,817.231 904.203,820.394 908.107,825.59 912.012,890.042 915.917,830.543 919.822,770.943 923.727,712.413 927.631,656.044 931.536,602.817 935.441,553.59 939.346,509.082 943.25,469.863 947.155,436.348 951.06,351.573 954.965,398.796 958.87,454.028 962.774,515.773 966.679,582.454 970.584,709.676 974.489,712.672 978.393,713.811 982.298,712.906 986.203,709.83 990.108,647.29 994.012,708.433 997.917,769.361 1001.82,828.859 1005.73,885.81 1009.63,939.213 1013.54,988.202 1017.44,1032.06 1021.35,1070.23 1025.25,1102.32 1029.16,1185.32 1033.06,1136.01 1036.96,1078.42 1040.87,1014.09 1044.77,944.654 1048.68,814.551 1052.58,808.602 1056.49,804.489 1060.39,802.447 1064.3,802.649 1068.2,862.429 1072.11,798.678 1076.01,735.325 1079.92,673.609 1083.82,614.667 1087.73,559.515 1091.63,509.023 1095.54,463.909 1099.44,424.725 1103.35,391.854 1107.25,308.285 1111.16,357.222 1115.06,414.611 1118.97,478.881 1122.87,548.376 1126.77,621.402 1130.68,696.262 1134.58,771.303 1138.49,844.952 1142.39,915.746 1146.3,982.369 1150.2,1043.67 1154.11,1098.67 1158.01,1146.62 1161.92,1186.95 1165.82,1219.3 1169.73,1243.55 1173.63,1259.75 1177.54,1268.14 1181.44,1269.14 1185.35,1320.57 1189.25,1239.96 1193.16,1152.08 1197.06,1059.14 1200.97,963.366 1204.87,809.703 1208.77,783.393 1212.68,762.436 1216.58,747.284 1220.49,738.23 1224.39,792.627 1228.3,727.293 1232.2,665.994 1236.11,609.732 1240.01,559.334 1243.92,458.225 1247.82,490.019 1251.73,531.042 1255.63,580.069 1259.54,635.744 1263.44,753.842 1267.35,749.71 1271.25,745.779 1275.16,741.871 1279.06,737.818 1282.97,676.241 1286.87,740.158 1290.78,805.504 1294.68,870.868 1298.58,934.912 1302.49,1053.62 1306.39,1042.71 1310.3,1025.17 1314.2,1001.48 1318.11,972.273 1322.01,938.261 1325.92,900.248 1329.82,859.089 1333.73,815.673 1337.63,770.896 1341.54,668.421 1345.44,692.257 1349.35,719.26 1353.25,748.855 1357.16,780.429 1361.06,870.58 1364.97,835.521 1368.87,798.582 1372.78,760.485 1376.68,721.944 1380.58,683.65 1384.49,646.251 1388.39,610.342 1392.3,576.454 1396.2,545.042 1400.11,459.256 1404.01,502.54 1407.92,551.15 1411.82,603.884 1415.73,659.503 1419.63,716.764 1423.54,774.444 1427.44,831.373 1431.35,886.458 1435.25,938.705 1439.16,1044.46 1443.06,1019.83 1446.97,988.146 1450.87,950.279 1454.78,907.193 1458.68,802.707 1462.59,821.066 1466.49,839.439 1470.39,857.615 1474.3,875.4 1478.2,949.842 1482.11,897.631 1486.01,842.58 1489.92,785.895 1493.82,728.762 1497.73,615.092 1501.63,629.104 1505.54,647.823 1509.44,670.792 1513.35,697.476 1517.25,727.277 1521.16,759.554 1525.06,793.636 1528.97,828.845 1532.87,864.509 1536.78,957.2 1540.68,923.151 1544.59,885.742 1548.49,845.78 1552.39,804.095 1556.3,704.29 1560.2,730.331 1564.11,759.045 1568.01,789.837 1571.92,822.093 1575.82,912.417 1579.73,877.045 1583.63,839.334 1587.54,800.05 1591.44,759.954 1595.35,719.791 1599.25,680.269 1603.16,642.045 1607.06,605.713 1610.97,571.793 1614.87,540.72 1618.78,512.839 1622.68,488.403 1626.59,467.569 1630.49,450.403 1634.4,379.655 1638.3,438.37 1642.2,502.416 1646.11,570.226 1650.01,640.219 1653.92,710.846 1657.82,780.617 1661.73,848.14 1665.63,912.146 1669.54,971.517 1673.44,1082.52 1677.35,1061.23 1681.25,1031.01 1685.16,992.788 1689.06,947.624 1692.97,839.483 1696.87,852.778 1700.78,864.873 1704.68,875.772 1708.59,885.509 1712.49,894.141 1716.4,901.749 1720.3,908.436 1724.2,914.318 1728.11,919.524 1732.01,981.417 1735.92,916.985 1739.82,850.314 1743.73,782.858 1747.63,716.014 1751.54,651.096 1755.44,589.303 1759.35,531.701 1763.25,479.201 1767.16,432.546 1771.06,335.081 1774.97,370.345 1778.87,414.599 1782.78,466.56 1786.68,524.825 1790.59,645.134 1794.49,642.807 1798.4,640.26 1802.3,637.314 1806.2,633.805 1810.11,629.595 1814.01,624.569 1817.92,618.638 1821.82,611.739 1825.73,603.84 1829.63,537.707 1833.54,596.515 1837.44,656.36 1841.35,715.997 1845.25,774.244 1849.16,830.017 1853.06,882.341 1856.97,930.375 1860.87,973.424 1864.78,1010.94 1868.68,1042.55 1872.59,1068.03 1876.49,1087.31 1880.4,1100.47 1884.3,1107.75 1888.21,1166.72 1892.11,1094.7 1896.01,1016.2 1899.92,933.16 1903.82,847.554 1907.73,704.081 1911.63,687.741 1915.54,676.312 1919.44,670.049 1923.35,669.069 1927.25,673.358 1931.16,682.773 1935.06,697.057 1938.97,715.848 1942.87,738.694 1946.78,765.069 1950.68,794.389 1954.59,826.028 1958.49,859.335 1962.4,893.652 1966.3,985.555 1970.21,951.262 1974.11,914.127 1978.01,874.922 1981.92,834.43 1985.82,736.202 1989.73,764.141 1993.63,795.011 1997.54,828.148 2001.44,862.868 2005.35,955.709 2009.25,922.838 2013.16,887.554 2017.06,850.561 2020.97,812.572 2024.87,774.286 2028.78,736.375 2032.68,699.469 2036.59,664.142 2040.49,630.901 2044.4,600.18 2048.3,572.328 2052.21,547.612 2056.11,526.208 2060.02,508.207 2063.92,436.388 2067.82,493.833 2071.73,556.447 2075.63,622.701 2079.54,691.056 2083.44,760.002 2087.35,828.09 2091.25,893.964 2095.16,956.392 2099.06,1014.28 2102.97,1066.71 2106.87,1112.94 2110.78,1152.39 2114.68,1184.69 2118.59,1209.67 2122.49,1284.55 2126.4,1226.35 2130.3,1159.35 2134.21,1085.33 2138.11,1006.18 2142.02,923.776 2145.92,840.013 2149.82,756.702 2153.73,675.557 2157.63,598.154 2161.54,525.899 2165.44,460.005 2169.35,401.47 2173.25,351.066 2177.16,309.332 2181.06,276.574 2184.97,252.867 2188.87,238.066 2192.78,231.821 2196.68,233.596 2200.59,185.469 2204.49,269.758 2208.4,361.569 2212.3,458.559 2216.21,558.381 2220.11,658.737 2224.02,757.435 2227.92,852.431 2231.83,941.877 2235.73,1024.15 2239.63,1155.1 2243.54,1150.47 2247.44,1133.4 2251.35,1104.68 2255.25,1065.34 2259.16,1016.61 2263.06,959.878 2266.97,896.667 2270.87,828.568 2274.78,757.212 2278.68,627.001 2282.59,622.676 2286.49,621.796 2290.4,624.446 2294.3,630.62 "/>
<polyline clip-path="url(#clip322)" style="stroke:#3da44d; stroke-linecap:round; stroke-linejoin:round; stroke-width:4; stroke-opacity:1; fill:none" points="345.82,538.82 349.725,576.857 353.63,616.263 357.535,656.301 361.439,696.256 365.344,781.7 369.249,747.576 373.154,708.565 377.059,665.573 380.963,619.554 384.868,571.488 388.773,522.354 392.678,473.108 396.582,424.661 400.487,377.857 404.392,287.212 408.297,317.825 412.201,355.013 416.106,397.833 420.011,445.25 423.916,496.173 427.821,549.483 431.725,604.059 435.63,658.806 439.535,712.68 443.44,810.96 447.344,788.337 451.249,759.285 455.154,724.55 459.059,684.976 462.963,595.231 466.868,620.711 470.773,647.162 474.678,674.177 478.583,701.355 482.487,774.562 486.392,729.006 490.297,679.602 494.202,627.45 498.106,573.661 502.011,519.33 505.916,465.51 509.821,413.187 513.726,363.264 517.63,316.54 521.535,273.698 525.44,235.293 529.345,201.747 533.249,173.346 537.154,150.237 541.059,86.1857 544.964,145.511 548.868,212.739 552.773,286.141 556.678,363.93 560.583,490.55 564.488,499.797 568.392,505.209 572.297,506.583 576.202,503.821 580.107,496.931 584.011,486.022 587.916,471.291 591.821,453.019 595.726,431.559 599.631,361.071 603.535,406.445 607.44,452.928 611.345,499.637 615.25,545.73 619.154,590.42 623.059,632.994 626.964,672.824 630.869,709.38 634.773,742.236 638.678,771.077 642.583,795.697 646.488,816.001 650.393,832.004 654.297,843.82 658.202,851.657 662.107,855.808 666.012,856.636 669.916,854.567 673.821,850.072 677.726,843.657 681.631,835.845 685.535,827.168 689.44,818.149 693.345,809.291 697.25,801.068 701.155,793.914 705.059,788.214 708.964,784.298 712.869,782.437 716.774,782.835 720.678,785.633 724.583,790.908 728.488,798.67 732.393,808.871 736.298,821.404 740.202,836.112 744.107,852.794 748.012,871.21 751.917,891.091 755.821,958.394 759.726,908.383 763.631,855.988 767.536,802.294 771.44,748.358 775.345,695.192 779.25,643.739 783.155,594.853 787.06,549.284 790.964,507.665 794.869,424.254 798.774,463.857 802.679,511.474 806.583,565.82 810.488,625.517 814.393,735.375 818.298,729.504 822.202,721.703 826.107,711.967 830.012,700.341 833.917,640.663 837.822,697.491 841.726,755.743 845.631,814.217 849.536,871.768 853.441,927.329 857.345,979.934 861.25,1028.74 865.155,1073.03 869.06,1112.23 872.965,1192.18 876.869,1148.19 880.774,1095.36 884.679,1035.14 888.584,969.04 892.488,852.407 896.393,851.287 900.298,852.031 904.203,854.789 908.107,859.653 912.012,912.909 915.917,850.109 919.822,786.427 923.727,723.142 927.631,661.457 931.536,602.475 935.441,547.183 939.346,496.427 943.25,450.902 947.155,411.146 951.06,331.278 954.965,375.939 958.87,429.928 962.774,491.746 966.679,559.778 970.584,678.594 974.489,682.058 978.393,683.729 982.298,683.37 986.203,680.807 990.108,629.679 994.012,694.366 997.917,759.636 1001.82,824.163 1005.73,886.707 1009.63,946.137 1013.54,1001.45 1017.44,1051.81 1021.35,1096.51 1025.25,1135.04 1029.16,1213.3 1033.06,1166.68 1036.96,1110.43 1040.87,1046.1 1044.77,975.334 1048.68,853.628 1052.58,847.168 1056.49,842.447 1060.39,839.755 1064.3,839.315 1068.2,887.534 1072.11,820.071 1076.01,752.196 1079.92,685.263 1083.82,620.538 1087.73,559.167 1091.63,502.161 1095.54,450.375 1099.44,404.496 1103.35,365.034 1107.25,286.074 1111.16,332.2 1115.06,388.154 1118.97,452.362 1122.87,523.133 1126.77,598.706 1130.68,677.291 1134.58,757.12 1138.49,836.483 1142.39,913.766 1146.3,987.489 1150.2,1056.33 1154.11,1119.15 1158.01,1175.02 1161.92,1223.21 1165.82,1263.22 1169.73,1294.76 1173.63,1317.77 1177.54,1332.4 1181.44,1338.97 1185.35,1384.24 1189.25,1304.44 1193.16,1215.62 1197.06,1120.06 1200.97,1020.09 1204.87,871.787 1208.77,841.838 1212.68,817.135 1216.58,798.258 1220.49,785.62 1224.39,825.71 1228.3,754.169 1232.2,686.15 1236.11,622.806 1240.01,565.12 1243.92,467.638 1247.82,495.397 1251.73,533.556 1255.63,580.932 1259.54,636.176 1263.44,744.071 1267.35,738.641 1271.25,733.543 1275.16,728.586 1279.06,723.588 1282.97,672.127 1286.87,738.476 1290.78,807.252 1294.68,876.945 1298.58,946.096 1302.49,1059.59 1306.39,1051.73 1310.3,1036.64 1314.2,1014.77 1318.11,986.687 1322.01,953.084 1325.92,914.755 1329.82,872.568 1333.73,827.437 1337.63,780.302 1341.54,685.854 1345.44,709.445 1349.35,736.706 1353.25,767.063 1357.16,799.891 1361.06,880.792 1364.97,844.67 1368.87,806.114 1372.78,765.879 1376.68,724.724 1380.58,683.392 1384.49,642.593 1388.39,602.987 1392.3,565.177 1396.2,529.689 1400.11,450.719 1404.01,493.057 1407.92,541.724 1411.82,595.502 1415.73,653.108 1419.63,713.234 1423.54,774.578 1427.44,835.874 1431.35,895.92 1435.25,953.606 1439.16,1054.18 1443.06,1032.35 1446.97,1002.63 1450.87,965.852 1454.78,922.955 1458.68,828.745 1462.59,848.772 1466.49,868.949 1470.39,889.05 1474.3,908.86 1478.2,974.432 1482.11,921.159 1486.01,864.132 1489.92,804.617 1493.82,743.877 1497.73,636.89 1501.63,649.254 1505.54,666.805 1509.44,689.123 1513.35,715.695 1517.25,745.93 1521.16,779.18 1525.06,814.757 1528.97,851.951 1532.87,890.049 1536.78,974.602 1540.68,940.511 1544.59,902.392 1548.49,861.072 1552.39,817.41 1556.3,726.03 1560.2,752.227 1564.11,781.594 1568.01,813.528 1571.92,847.394 1575.82,928.792 1579.73,892.643 1583.63,853.559 1587.54,812.332 1591.44,769.768 1595.35,726.661 1599.25,683.781 1603.16,641.854 1607.06,601.545 1610.97,563.45 1614.87,528.08 1618.78,495.857 1622.68,467.107 1626.59,442.055 1630.49,420.829 1634.4,357.21 1638.3,415.566 1642.2,480.504 1646.11,550.403 1650.01,623.608 1653.92,698.464 1657.82,773.363 1661.73,846.777 1665.63,917.29 1669.54,983.627 1673.44,1090.93 1677.35,1073.83 1681.25,1046.85 1685.16,1010.84 1689.06,966.846 1692.97,869.784 1696.87,885.366 1700.78,899.696 1704.68,912.76 1708.59,924.575 1712.49,935.187 1716.4,944.666 1720.3,953.107 1724.2,960.623 1728.11,967.343 1732.01,1019.66 1735.92,953.28 1739.82,883.61 1743.73,812.191 1747.63,740.529 1751.54,670.063 1755.44,602.13 1759.35,537.937 1763.25,478.545 1767.16,424.842 1771.06,331.289 1774.97,362.838 1778.87,404.576 1782.78,455.252 1786.68,513.461 1790.59,623.943 1794.49,620.685 1798.4,617.324 1802.3,613.659 1806.2,609.507 1810.11,604.707 1814.01,599.121 1817.92,592.641 1821.82,585.183 1825.73,576.693 1829.63,520.898 1833.54,582.228 1837.44,645.471 1841.35,709.284 1845.25,772.382 1849.16,833.56 1853.06,891.722 1856.97,945.895 1860.87,995.255 1864.78,1039.13 1868.68,1077.02 1872.59,1108.58 1876.49,1133.65 1880.4,1152.22 1884.3,1164.44 1888.21,1216.86 1892.11,1145.45 1896.01,1066.01 1899.92,980.556 1903.82,891.145 1907.73,753.583 1911.63,734.296 1915.54,719.932 1919.44,710.849 1923.35,707.257 1927.25,709.225 1931.16,716.684 1935.06,729.436 1938.97,747.166 1942.87,769.455 1946.78,795.797 1950.68,825.612 1954.59,858.266 1958.49,893.091 1962.4,929.397 1966.3,1012.75 1970.21,978.03 1974.11,939.851 1978.01,899.002 1981.92,856.301 1985.82,766.319 1989.73,794.292 1993.63,825.747 1997.54,860.012 2001.44,896.379 2005.35,980.376 2009.25,946.852 2013.16,910.352 2017.06,871.605 2020.97,831.357 2024.87,790.354 2028.78,749.32 2032.68,708.947 2036.59,669.875 2040.49,632.681 2044.4,597.869 2048.3,565.861 2052.21,536.99 2056.11,511.5 2060.02,489.541 2063.92,424.922 2067.82,482.046 2071.73,545.557 2075.63,613.874 2079.54,685.384 2083.44,758.476 2087.35,831.583 2091.25,903.218 2095.16,972.003 2099.06,1036.7 2102.97,1096.22 2106.87,1149.68 2110.78,1196.36 2114.68,1235.74 2118.59,1267.51 2122.49,1337.81 2126.4,1282.29 2130.3,1216.42 2134.21,1142.03 2138.11,1061.04 2142.02,975.419 2145.92,887.169 2149.82,798.241 2153.73,710.509 2157.63,625.719 2161.54,545.462 2165.44,471.14 2169.35,403.94 2173.25,344.82 2177.16,294.498 2181.06,253.443 2184.97,221.882 2188.87,199.801 2192.78,186.963 2196.68,182.921 2200.59,140.792 2204.49,224.214 2208.4,317.011 2212.3,416.755 2216.21,520.976 2220.11,627.22 2224.02,733.11 2227.92,836.397 2231.83,935.008 2235.73,1027.09 2239.63,1157.28 2243.54,1159.83 2247.44,1148.94 2251.35,1125.26 2255.25,1089.74 2259.16,1043.54 2263.06,988.027 2266.97,924.719 2270.87,855.248 2274.78,781.309 2278.68,658.368 2282.59,652.553 2286.49,650.256 2290.4,651.623 2294.3,656.705 "/>
<path clip-path="url(#clip320)" d="M356.212 1377.32 L1361.73 1377.32 L1361.73 1169.96 L356.212 1169.96  Z" fill="#ffffff" fill-rule="evenodd" fill-opacity="1"/>
<polyline clip-path="url(#clip320)" style="stroke:#000000; stroke-linecap:round; stroke-linejoin:round; stroke-width:4; stroke-opacity:1; fill:none" points="356.212,1377.32 1361.73,1377.32 1361.73,1169.96 356.212,1169.96 356.212,1377.32 "/>
<polyline clip-path="url(#clip320)" style="stroke:#009af9; stroke-linecap:round; stroke-linejoin:round; stroke-width:4; stroke-opacity:1; fill:none" points="379.161,1221.8 516.854,1221.8 "/>
<path clip-path="url(#clip320)" d="M544.478 1208.36 L544.478 1235.23 L550.126 1235.23 Q557.279 1235.23 560.589 1231.99 Q563.923 1228.75 563.923 1221.76 Q563.923 1214.82 560.589 1211.6 Q557.279 1208.36 550.126 1208.36 L544.478 1208.36 M539.802 1204.52 L549.409 1204.52 Q559.455 1204.52 564.154 1208.71 Q568.853 1212.87 568.853 1221.76 Q568.853 1230.7 564.131 1234.89 Q559.409 1239.08 549.409 1239.08 L539.802 1239.08 L539.802 1204.52 Z" fill="#000000" fill-rule="nonzero" fill-opacity="1" /><path clip-path="url(#clip320)" d="M587.904 1226.04 Q582.742 1226.04 580.751 1227.22 Q578.761 1228.4 578.761 1231.25 Q578.761 1233.52 580.242 1234.86 Q581.747 1236.18 584.316 1236.18 Q587.858 1236.18 589.987 1233.68 Q592.14 1231.16 592.14 1226.99 L592.14 1226.04 L587.904 1226.04 M596.399 1224.28 L596.399 1239.08 L592.14 1239.08 L592.14 1235.14 Q590.682 1237.5 588.506 1238.64 Q586.33 1239.75 583.182 1239.75 Q579.2 1239.75 576.839 1237.52 Q574.501 1235.28 574.501 1231.53 Q574.501 1227.15 577.418 1224.93 Q580.358 1222.71 586.168 1222.71 L592.14 1222.71 L592.14 1222.29 Q592.14 1219.35 590.196 1217.76 Q588.274 1216.14 584.779 1216.14 Q582.557 1216.14 580.45 1216.67 Q578.344 1217.2 576.399 1218.27 L576.399 1214.33 Q578.737 1213.43 580.936 1212.99 Q583.136 1212.52 585.219 1212.52 Q590.844 1212.52 593.622 1215.44 Q596.399 1218.36 596.399 1224.28 Z" fill="#000000" fill-rule="nonzero" fill-opacity="1" /><path clip-path="url(#clip320)" d="M609.385 1205.79 L609.385 1213.15 L618.159 1213.15 L618.159 1216.46 L609.385 1216.46 L609.385 1230.53 Q609.385 1233.7 610.242 1234.61 Q611.122 1235.51 613.784 1235.51 L618.159 1235.51 L618.159 1239.08 L613.784 1239.08 Q608.853 1239.08 606.978 1237.25 Q605.103 1235.39 605.103 1230.53 L605.103 1216.46 L601.978 1216.46 L601.978 1213.15 L605.103 1213.15 L605.103 1205.79 L609.385 1205.79 Z" fill="#000000" fill-rule="nonzero" fill-opacity="1" /><path clip-path="url(#clip320)" d="M635.543 1226.04 Q630.381 1226.04 628.39 1227.22 Q626.399 1228.4 626.399 1231.25 Q626.399 1233.52 627.881 1234.86 Q629.385 1236.18 631.955 1236.18 Q635.496 1236.18 637.626 1233.68 Q639.779 1231.16 639.779 1226.99 L639.779 1226.04 L635.543 1226.04 M644.038 1224.28 L644.038 1239.08 L639.779 1239.08 L639.779 1235.14 Q638.32 1237.5 636.145 1238.64 Q633.969 1239.75 630.82 1239.75 Q626.839 1239.75 624.478 1237.52 Q622.14 1235.28 622.14 1231.53 Q622.14 1227.15 625.057 1224.93 Q627.996 1222.71 633.807 1222.71 L639.779 1222.71 L639.779 1222.29 Q639.779 1219.35 637.834 1217.76 Q635.913 1216.14 632.418 1216.14 Q630.195 1216.14 628.089 1216.67 Q625.983 1217.2 624.038 1218.27 L624.038 1214.33 Q626.376 1213.43 628.575 1212.99 Q630.774 1212.52 632.858 1212.52 Q638.482 1212.52 641.26 1215.44 Q644.038 1218.36 644.038 1224.28 Z" fill="#000000" fill-rule="nonzero" fill-opacity="1" /><polyline clip-path="url(#clip320)" style="stroke:#e26f46; stroke-linecap:round; stroke-linejoin:round; stroke-width:4; stroke-opacity:1; fill:none" points="379.161,1273.64 516.854,1273.64 "/>
<path clip-path="url(#clip320)" d="M562.048 1257.49 L562.048 1262.05 Q559.386 1260.78 557.025 1260.15 Q554.663 1259.53 552.464 1259.53 Q548.645 1259.53 546.562 1261.01 Q544.502 1262.49 544.502 1265.22 Q544.502 1267.51 545.867 1268.69 Q547.256 1269.85 551.099 1270.57 L553.923 1271.15 Q559.154 1272.14 561.631 1274.67 Q564.131 1277.17 564.131 1281.38 Q564.131 1286.4 560.751 1288.99 Q557.395 1291.59 550.89 1291.59 Q548.437 1291.59 545.659 1291.03 Q542.904 1290.48 539.941 1289.39 L539.941 1284.57 Q542.789 1286.17 545.52 1286.98 Q548.251 1287.79 550.89 1287.79 Q554.895 1287.79 557.071 1286.22 Q559.247 1284.64 559.247 1281.73 Q559.247 1279.18 557.673 1277.74 Q556.122 1276.31 552.557 1275.59 L549.71 1275.04 Q544.478 1273.99 542.14 1271.77 Q539.802 1269.55 539.802 1265.59 Q539.802 1261.01 543.02 1258.37 Q546.261 1255.73 551.932 1255.73 Q554.363 1255.73 556.886 1256.17 Q559.409 1256.61 562.048 1257.49 Z" fill="#000000" fill-rule="nonzero" fill-opacity="1" /><path clip-path="url(#clip320)" d="M571.237 1264.99 L575.497 1264.99 L575.497 1290.92 L571.237 1290.92 L571.237 1264.99 M571.237 1254.9 L575.497 1254.9 L575.497 1260.29 L571.237 1260.29 L571.237 1254.9 Z" fill="#000000" fill-rule="nonzero" fill-opacity="1" /><path clip-path="url(#clip320)" d="M604.594 1269.97 Q606.191 1267.1 608.413 1265.73 Q610.635 1264.36 613.645 1264.36 Q617.696 1264.36 619.895 1267.21 Q622.094 1270.04 622.094 1275.27 L622.094 1290.92 L617.811 1290.92 L617.811 1275.41 Q617.811 1271.68 616.492 1269.87 Q615.172 1268.07 612.464 1268.07 Q609.154 1268.07 607.233 1270.27 Q605.311 1272.47 605.311 1276.26 L605.311 1290.92 L601.029 1290.92 L601.029 1275.41 Q601.029 1271.66 599.71 1269.87 Q598.39 1268.07 595.635 1268.07 Q592.372 1268.07 590.45 1270.29 Q588.529 1272.49 588.529 1276.26 L588.529 1290.92 L584.247 1290.92 L584.247 1264.99 L588.529 1264.99 L588.529 1269.02 Q589.987 1266.63 592.024 1265.5 Q594.061 1264.36 596.862 1264.36 Q599.686 1264.36 601.654 1265.8 Q603.645 1267.23 604.594 1269.97 Z" fill="#000000" fill-rule="nonzero" fill-opacity="1" /><path clip-path="url(#clip320)" d="M630.149 1280.68 L630.149 1264.99 L634.408 1264.99 L634.408 1280.52 Q634.408 1284.2 635.844 1286.05 Q637.279 1287.88 640.149 1287.88 Q643.598 1287.88 645.589 1285.68 Q647.603 1283.48 647.603 1279.69 L647.603 1264.99 L651.862 1264.99 L651.862 1290.92 L647.603 1290.92 L647.603 1286.93 Q646.052 1289.29 643.992 1290.45 Q641.955 1291.59 639.246 1291.59 Q634.779 1291.59 632.464 1288.81 Q630.149 1286.03 630.149 1280.68 M640.867 1264.36 L640.867 1264.36 Z" fill="#000000" fill-rule="nonzero" fill-opacity="1" /><path clip-path="url(#clip320)" d="M660.635 1254.9 L664.894 1254.9 L664.894 1290.92 L660.635 1290.92 L660.635 1254.9 Z" fill="#000000" fill-rule="nonzero" fill-opacity="1" /><path clip-path="url(#clip320)" d="M685.589 1277.88 Q680.427 1277.88 678.436 1279.06 Q676.445 1280.24 676.445 1283.09 Q676.445 1285.36 677.927 1286.7 Q679.431 1288.02 682.001 1288.02 Q685.542 1288.02 687.672 1285.52 Q689.825 1283 689.825 1278.83 L689.825 1277.88 L685.589 1277.88 M694.084 1276.12 L694.084 1290.92 L689.825 1290.92 L689.825 1286.98 Q688.366 1289.34 686.191 1290.48 Q684.015 1291.59 680.867 1291.59 Q676.885 1291.59 674.524 1289.36 Q672.186 1287.12 672.186 1283.37 Q672.186 1278.99 675.103 1276.77 Q678.042 1274.55 683.853 1274.55 L689.825 1274.55 L689.825 1274.13 Q689.825 1271.19 687.88 1269.6 Q685.959 1267.98 682.464 1267.98 Q680.242 1267.98 678.135 1268.51 Q676.029 1269.04 674.084 1270.11 L674.084 1266.17 Q676.422 1265.27 678.621 1264.83 Q680.82 1264.36 682.904 1264.36 Q688.529 1264.36 691.306 1267.28 Q694.084 1270.2 694.084 1276.12 Z" fill="#000000" fill-rule="nonzero" fill-opacity="1" /><path clip-path="url(#clip320)" d="M707.07 1257.63 L707.07 1264.99 L715.843 1264.99 L715.843 1268.3 L707.07 1268.3 L707.07 1282.37 Q707.07 1285.54 707.927 1286.45 Q708.806 1287.35 711.468 1287.35 L715.843 1287.35 L715.843 1290.92 L711.468 1290.92 Q706.538 1290.92 704.663 1289.09 Q702.788 1287.23 702.788 1282.37 L702.788 1268.3 L699.663 1268.3 L699.663 1264.99 L702.788 1264.99 L702.788 1257.63 L707.07 1257.63 Z" fill="#000000" fill-rule="nonzero" fill-opacity="1" /><path clip-path="url(#clip320)" d="M721.445 1264.99 L725.704 1264.99 L725.704 1290.92 L721.445 1290.92 L721.445 1264.99 M721.445 1254.9 L725.704 1254.9 L725.704 1260.29 L721.445 1260.29 L721.445 1254.9 Z" fill="#000000" fill-rule="nonzero" fill-opacity="1" /><path clip-path="url(#clip320)" d="M744.662 1267.98 Q741.237 1267.98 739.246 1270.66 Q737.255 1273.32 737.255 1277.98 Q737.255 1282.63 739.223 1285.31 Q741.213 1287.98 744.662 1287.98 Q748.065 1287.98 750.056 1285.29 Q752.047 1282.61 752.047 1277.98 Q752.047 1273.37 750.056 1270.68 Q748.065 1267.98 744.662 1267.98 M744.662 1264.36 Q750.218 1264.36 753.389 1267.98 Q756.561 1271.59 756.561 1277.98 Q756.561 1284.34 753.389 1287.98 Q750.218 1291.59 744.662 1291.59 Q739.084 1291.59 735.913 1287.98 Q732.764 1284.34 732.764 1277.98 Q732.764 1271.59 735.913 1267.98 Q739.084 1264.36 744.662 1264.36 Z" fill="#000000" fill-rule="nonzero" fill-opacity="1" /><path clip-path="url(#clip320)" d="M785.172 1275.27 L785.172 1290.92 L780.912 1290.92 L780.912 1275.41 Q780.912 1271.73 779.477 1269.9 Q778.042 1268.07 775.172 1268.07 Q771.723 1268.07 769.732 1270.27 Q767.741 1272.47 767.741 1276.26 L767.741 1290.92 L763.459 1290.92 L763.459 1264.99 L767.741 1264.99 L767.741 1269.02 Q769.269 1266.68 771.329 1265.52 Q773.412 1264.36 776.121 1264.36 Q780.588 1264.36 782.88 1267.14 Q785.172 1269.9 785.172 1275.27 Z" fill="#000000" fill-rule="nonzero" fill-opacity="1" /><path clip-path="url(#clip320)" d="M828.921 1269.97 Q830.518 1267.1 832.741 1265.73 Q834.963 1264.36 837.972 1264.36 Q842.023 1264.36 844.222 1267.21 Q846.421 1270.04 846.421 1275.27 L846.421 1290.92 L842.139 1290.92 L842.139 1275.41 Q842.139 1271.68 840.819 1269.87 Q839.5 1268.07 836.792 1268.07 Q833.481 1268.07 831.56 1270.27 Q829.639 1272.47 829.639 1276.26 L829.639 1290.92 L825.356 1290.92 L825.356 1275.41 Q825.356 1271.66 824.037 1269.87 Q822.718 1268.07 819.963 1268.07 Q816.699 1268.07 814.778 1270.29 Q812.857 1272.49 812.857 1276.26 L812.857 1290.92 L808.574 1290.92 L808.574 1264.99 L812.857 1264.99 L812.857 1269.02 Q814.315 1266.63 816.352 1265.5 Q818.389 1264.36 821.19 1264.36 Q824.014 1264.36 825.981 1265.8 Q827.972 1267.23 828.921 1269.97 Z" fill="#000000" fill-rule="nonzero" fill-opacity="1" /><path clip-path="url(#clip320)" d="M864.963 1267.98 Q861.537 1267.98 859.546 1270.66 Q857.555 1273.32 857.555 1277.98 Q857.555 1282.63 859.523 1285.31 Q861.514 1287.98 864.963 1287.98 Q868.366 1287.98 870.356 1285.29 Q872.347 1282.61 872.347 1277.98 Q872.347 1273.37 870.356 1270.68 Q868.366 1267.98 864.963 1267.98 M864.963 1264.36 Q870.518 1264.36 873.69 1267.98 Q876.861 1271.59 876.861 1277.98 Q876.861 1284.34 873.69 1287.98 Q870.518 1291.59 864.963 1291.59 Q859.384 1291.59 856.213 1287.98 Q853.065 1284.34 853.065 1277.98 Q853.065 1271.59 856.213 1267.98 Q859.384 1264.36 864.963 1264.36 Z" fill="#000000" fill-rule="nonzero" fill-opacity="1" /><path clip-path="url(#clip320)" d="M900.981 1268.92 L900.981 1254.9 L905.24 1254.9 L905.24 1290.92 L900.981 1290.92 L900.981 1287.03 Q899.638 1289.34 897.578 1290.48 Q895.541 1291.59 892.671 1291.59 Q887.972 1291.59 885.009 1287.84 Q882.069 1284.09 882.069 1277.98 Q882.069 1271.86 885.009 1268.11 Q887.972 1264.36 892.671 1264.36 Q895.541 1264.36 897.578 1265.5 Q899.638 1266.61 900.981 1268.92 M886.467 1277.98 Q886.467 1282.67 888.389 1285.36 Q890.333 1288.02 893.713 1288.02 Q897.092 1288.02 899.037 1285.36 Q900.981 1282.67 900.981 1277.98 Q900.981 1273.28 899.037 1270.61 Q897.092 1267.93 893.713 1267.93 Q890.333 1267.93 888.389 1270.61 Q886.467 1273.28 886.467 1277.98 Z" fill="#000000" fill-rule="nonzero" fill-opacity="1" /><path clip-path="url(#clip320)" d="M936.189 1276.89 L936.189 1278.97 L916.606 1278.97 Q916.884 1283.37 919.245 1285.68 Q921.629 1287.98 925.865 1287.98 Q928.319 1287.98 930.611 1287.37 Q932.925 1286.77 935.194 1285.57 L935.194 1289.6 Q932.902 1290.57 930.495 1291.08 Q928.087 1291.59 925.611 1291.59 Q919.407 1291.59 915.773 1287.98 Q912.162 1284.36 912.162 1278.21 Q912.162 1271.84 915.587 1268.11 Q919.037 1264.36 924.87 1264.36 Q930.101 1264.36 933.134 1267.74 Q936.189 1271.1 936.189 1276.89 M931.93 1275.64 Q931.884 1272.14 929.962 1270.06 Q928.064 1267.98 924.916 1267.98 Q921.351 1267.98 919.199 1269.99 Q917.069 1272 916.745 1275.66 L931.93 1275.64 Z" fill="#000000" fill-rule="nonzero" fill-opacity="1" /><path clip-path="url(#clip320)" d="M943.18 1254.9 L947.439 1254.9 L947.439 1290.92 L943.18 1290.92 L943.18 1254.9 Z" fill="#000000" fill-rule="nonzero" fill-opacity="1" /><path clip-path="url(#clip320)" d="M987.948 1265.75 L987.948 1269.78 Q986.143 1268.86 984.198 1268.39 Q982.254 1267.93 980.17 1267.93 Q976.999 1267.93 975.402 1268.9 Q973.828 1269.87 973.828 1271.82 Q973.828 1273.3 974.962 1274.16 Q976.096 1274.99 979.522 1275.75 L980.981 1276.08 Q985.518 1277.05 987.416 1278.83 Q989.337 1280.59 989.337 1283.76 Q989.337 1287.37 986.467 1289.48 Q983.62 1291.59 978.62 1291.59 Q976.536 1291.59 974.268 1291.17 Q972.022 1290.78 969.522 1289.97 L969.522 1285.57 Q971.883 1286.79 974.175 1287.42 Q976.467 1288.02 978.712 1288.02 Q981.721 1288.02 983.342 1287 Q984.962 1285.96 984.962 1284.09 Q984.962 1282.35 983.782 1281.42 Q982.624 1280.5 978.666 1279.64 L977.184 1279.3 Q973.226 1278.46 971.467 1276.75 Q969.708 1275.01 969.708 1272 Q969.708 1268.35 972.3 1266.36 Q974.893 1264.36 979.661 1264.36 Q982.022 1264.36 984.106 1264.71 Q986.189 1265.06 987.948 1265.75 Z" fill="#000000" fill-rule="nonzero" fill-opacity="1" /><path clip-path="url(#clip320)" d="M996.119 1264.99 L1000.38 1264.99 L1000.38 1290.92 L996.119 1290.92 L996.119 1264.99 M996.119 1254.9 L1000.38 1254.9 L1000.38 1260.29 L996.119 1260.29 L996.119 1254.9 Z" fill="#000000" fill-rule="nonzero" fill-opacity="1" /><path clip-path="url(#clip320)" d="M1029.48 1269.97 Q1031.07 1267.1 1033.3 1265.73 Q1035.52 1264.36 1038.53 1264.36 Q1042.58 1264.36 1044.78 1267.21 Q1046.98 1270.04 1046.98 1275.27 L1046.98 1290.92 L1042.69 1290.92 L1042.69 1275.41 Q1042.69 1271.68 1041.37 1269.87 Q1040.05 1268.07 1037.35 1268.07 Q1034.04 1268.07 1032.11 1270.27 Q1030.19 1272.47 1030.19 1276.26 L1030.19 1290.92 L1025.91 1290.92 L1025.91 1275.41 Q1025.91 1271.66 1024.59 1269.87 Q1023.27 1268.07 1020.52 1268.07 Q1017.25 1268.07 1015.33 1270.29 Q1013.41 1272.49 1013.41 1276.26 L1013.41 1290.92 L1009.13 1290.92 L1009.13 1264.99 L1013.41 1264.99 L1013.41 1269.02 Q1014.87 1266.63 1016.91 1265.5 Q1018.94 1264.36 1021.74 1264.36 Q1024.57 1264.36 1026.54 1265.8 Q1028.53 1267.23 1029.48 1269.97 Z" fill="#000000" fill-rule="nonzero" fill-opacity="1" /><path clip-path="url(#clip320)" d="M1083.67 1254.9 L1083.67 1258.44 L1079.59 1258.44 Q1077.3 1258.44 1076.4 1259.36 Q1075.52 1260.29 1075.52 1262.7 L1075.52 1264.99 L1082.53 1264.99 L1082.53 1268.3 L1075.52 1268.3 L1075.52 1290.92 L1071.23 1290.92 L1071.23 1268.3 L1067.16 1268.3 L1067.16 1264.99 L1071.23 1264.99 L1071.23 1263.18 Q1071.23 1258.86 1073.25 1256.89 Q1075.26 1254.9 1079.64 1254.9 L1083.67 1254.9 Z" fill="#000000" fill-rule="nonzero" fill-opacity="1" /><path clip-path="url(#clip320)" d="M1087.23 1264.99 L1091.49 1264.99 L1091.49 1290.92 L1087.23 1290.92 L1087.23 1264.99 M1087.23 1254.9 L1091.49 1254.9 L1091.49 1260.29 L1087.23 1260.29 L1087.23 1254.9 Z" fill="#000000" fill-rule="nonzero" fill-opacity="1" /><path clip-path="url(#clip320)" d="M1104.61 1257.63 L1104.61 1264.99 L1113.39 1264.99 L1113.39 1268.3 L1104.61 1268.3 L1104.61 1282.37 Q1104.61 1285.54 1105.47 1286.45 Q1106.35 1287.35 1109.01 1287.35 L1113.39 1287.35 L1113.39 1290.92 L1109.01 1290.92 Q1104.08 1290.92 1102.21 1289.09 Q1100.33 1287.23 1100.33 1282.37 L1100.33 1268.3 L1097.21 1268.3 L1097.21 1264.99 L1100.33 1264.99 L1100.33 1257.63 L1104.61 1257.63 Z" fill="#000000" fill-rule="nonzero" fill-opacity="1" /><path clip-path="url(#clip320)" d="M1150.22 1285.04 L1155.1 1285.04 L1155.1 1290.92 L1150.22 1290.92 L1150.22 1285.04 M1150.22 1266.4 L1155.1 1266.4 L1155.1 1272.28 L1150.22 1272.28 L1150.22 1266.4 Z" fill="#000000" fill-rule="nonzero" fill-opacity="1" /><path clip-path="url(#clip320)" d="M1176.28 1271.77 Q1173.13 1271.77 1171.28 1273.92 Q1169.45 1276.08 1169.45 1279.83 Q1169.45 1283.55 1171.28 1285.73 Q1173.13 1287.88 1176.28 1287.88 Q1179.43 1287.88 1181.26 1285.73 Q1183.11 1283.55 1183.11 1279.83 Q1183.11 1276.08 1181.26 1273.92 Q1179.43 1271.77 1176.28 1271.77 M1185.56 1257.12 L1185.56 1261.38 Q1183.8 1260.55 1182 1260.11 Q1180.22 1259.67 1178.46 1259.67 Q1173.83 1259.67 1171.37 1262.79 Q1168.94 1265.92 1168.6 1272.23 Q1169.96 1270.22 1172.02 1269.16 Q1174.08 1268.07 1176.56 1268.07 Q1181.77 1268.07 1184.78 1271.24 Q1187.81 1274.39 1187.81 1279.83 Q1187.81 1285.15 1184.66 1288.37 Q1181.51 1291.59 1176.28 1291.59 Q1170.29 1291.59 1167.11 1287 Q1163.94 1282.4 1163.94 1273.67 Q1163.94 1265.48 1167.83 1260.61 Q1171.72 1255.73 1178.27 1255.73 Q1180.03 1255.73 1181.81 1256.08 Q1183.62 1256.42 1185.56 1257.12 Z" fill="#000000" fill-rule="nonzero" fill-opacity="1" /><path clip-path="url(#clip320)" d="M1205.86 1259.43 Q1202.25 1259.43 1200.42 1263 Q1198.62 1266.54 1198.62 1273.67 Q1198.62 1280.78 1200.42 1284.34 Q1202.25 1287.88 1205.86 1287.88 Q1209.5 1287.88 1211.3 1284.34 Q1213.13 1280.78 1213.13 1273.67 Q1213.13 1266.54 1211.3 1263 Q1209.5 1259.43 1205.86 1259.43 M1205.86 1255.73 Q1211.67 1255.73 1214.73 1260.34 Q1217.81 1264.92 1217.81 1273.67 Q1217.81 1282.4 1214.73 1287 Q1211.67 1291.59 1205.86 1291.59 Q1200.05 1291.59 1196.97 1287 Q1193.92 1282.4 1193.92 1273.67 Q1193.92 1264.92 1196.97 1260.34 Q1200.05 1255.73 1205.86 1255.73 Z" fill="#000000" fill-rule="nonzero" fill-opacity="1" /><path clip-path="url(#clip320)" d="M1226.03 1285.04 L1230.91 1285.04 L1230.91 1290.92 L1226.03 1290.92 L1226.03 1285.04 Z" fill="#000000" fill-rule="nonzero" fill-opacity="1" /><path clip-path="url(#clip320)" d="M1251.09 1274.5 Q1247.76 1274.5 1245.84 1276.29 Q1243.94 1278.07 1243.94 1281.19 Q1243.94 1284.32 1245.84 1286.1 Q1247.76 1287.88 1251.09 1287.88 Q1254.43 1287.88 1256.35 1286.1 Q1258.27 1284.29 1258.27 1281.19 Q1258.27 1278.07 1256.35 1276.29 Q1254.45 1274.5 1251.09 1274.5 M1246.42 1272.51 Q1243.41 1271.77 1241.72 1269.71 Q1240.05 1267.65 1240.05 1264.69 Q1240.05 1260.55 1242.99 1258.14 Q1245.96 1255.73 1251.09 1255.73 Q1256.26 1255.73 1259.2 1258.14 Q1262.14 1260.55 1262.14 1264.69 Q1262.14 1267.65 1260.45 1269.71 Q1258.78 1271.77 1255.79 1272.51 Q1259.17 1273.3 1261.05 1275.59 Q1262.95 1277.88 1262.95 1281.19 Q1262.95 1286.22 1259.87 1288.9 Q1256.81 1291.59 1251.09 1291.59 Q1245.38 1291.59 1242.3 1288.9 Q1239.24 1286.22 1239.24 1281.19 Q1239.24 1277.88 1241.14 1275.59 Q1243.04 1273.3 1246.42 1272.51 M1244.71 1265.13 Q1244.71 1267.81 1246.37 1269.32 Q1248.06 1270.82 1251.09 1270.82 Q1254.1 1270.82 1255.79 1269.32 Q1257.51 1267.81 1257.51 1265.13 Q1257.51 1262.44 1255.79 1260.94 Q1254.1 1259.43 1251.09 1259.43 Q1248.06 1259.43 1246.37 1260.94 Q1244.71 1262.44 1244.71 1265.13 Z" fill="#000000" fill-rule="nonzero" fill-opacity="1" /><path clip-path="url(#clip320)" d="M1275.28 1286.98 L1291.6 1286.98 L1291.6 1290.92 L1269.66 1290.92 L1269.66 1286.98 Q1272.32 1284.23 1276.9 1279.6 Q1281.51 1274.94 1282.69 1273.6 Q1284.94 1271.08 1285.82 1269.34 Q1286.72 1267.58 1286.72 1265.89 Q1286.72 1263.14 1284.78 1261.4 Q1282.85 1259.67 1279.75 1259.67 Q1277.55 1259.67 1275.1 1260.43 Q1272.67 1261.19 1269.89 1262.74 L1269.89 1258.02 Q1272.72 1256.89 1275.17 1256.31 Q1277.62 1255.73 1279.66 1255.73 Q1285.03 1255.73 1288.22 1258.42 Q1291.42 1261.1 1291.42 1265.59 Q1291.42 1267.72 1290.61 1269.64 Q1289.82 1271.54 1287.72 1274.13 Q1287.14 1274.8 1284.03 1278.02 Q1280.93 1281.22 1275.28 1286.98 Z" fill="#000000" fill-rule="nonzero" fill-opacity="1" /><path clip-path="url(#clip320)" d="M1330.82 1275.71 Q1328.8 1275.71 1327.65 1277.42 Q1326.51 1279.13 1326.51 1282.19 Q1326.51 1285.2 1327.65 1286.93 Q1328.8 1288.65 1330.82 1288.65 Q1332.78 1288.65 1333.92 1286.93 Q1335.08 1285.2 1335.08 1282.19 Q1335.08 1279.16 1333.92 1277.44 Q1332.78 1275.71 1330.82 1275.71 M1330.82 1272.77 Q1334.47 1272.77 1336.63 1275.31 Q1338.78 1277.86 1338.78 1282.19 Q1338.78 1286.52 1336.6 1289.06 Q1334.45 1291.59 1330.82 1291.59 Q1327.11 1291.59 1324.96 1289.06 Q1322.81 1286.52 1322.81 1282.19 Q1322.81 1277.84 1324.96 1275.31 Q1327.14 1272.77 1330.82 1272.77 M1306.93 1258.67 Q1304.94 1258.67 1303.78 1260.41 Q1302.65 1262.12 1302.65 1265.13 Q1302.65 1268.18 1303.78 1269.9 Q1304.91 1271.61 1306.93 1271.61 Q1308.94 1271.61 1310.08 1269.9 Q1311.23 1268.18 1311.23 1265.13 Q1311.23 1262.14 1310.08 1260.41 Q1308.92 1258.67 1306.93 1258.67 M1327.83 1255.73 L1331.53 1255.73 L1309.91 1291.59 L1306.21 1291.59 L1327.83 1255.73 M1306.93 1255.73 Q1310.59 1255.73 1312.76 1258.28 Q1314.94 1260.8 1314.94 1265.13 Q1314.94 1269.5 1312.76 1272.03 Q1310.61 1274.55 1306.93 1274.55 Q1303.25 1274.55 1301.09 1272.03 Q1298.97 1269.48 1298.97 1265.13 Q1298.97 1260.82 1301.12 1258.28 Q1303.27 1255.73 1306.93 1255.73 Z" fill="#000000" fill-rule="nonzero" fill-opacity="1" /><polyline clip-path="url(#clip320)" style="stroke:#3da44d; stroke-linecap:round; stroke-linejoin:round; stroke-width:4; stroke-opacity:1; fill:none" points="379.161,1325.48 516.854,1325.48 "/>
<path clip-path="url(#clip320)" d="M544.478 1312.04 L544.478 1325.02 L550.358 1325.02 Q553.622 1325.02 555.404 1323.33 Q557.187 1321.64 557.187 1318.52 Q557.187 1315.42 555.404 1313.73 Q553.622 1312.04 550.358 1312.04 L544.478 1312.04 M539.802 1308.2 L550.358 1308.2 Q556.168 1308.2 559.131 1310.83 Q562.117 1313.45 562.117 1318.52 Q562.117 1323.64 559.131 1326.25 Q556.168 1328.87 550.358 1328.87 L544.478 1328.87 L544.478 1342.76 L539.802 1342.76 L539.802 1308.2 Z" fill="#000000" fill-rule="nonzero" fill-opacity="1" /><path clip-path="url(#clip320)" d="M582.395 1320.81 Q581.677 1320.39 580.821 1320.21 Q579.987 1320 578.969 1320 Q575.358 1320 573.413 1322.36 Q571.492 1324.7 571.492 1329.1 L571.492 1342.76 L567.21 1342.76 L567.21 1316.83 L571.492 1316.83 L571.492 1320.86 Q572.835 1318.5 574.987 1317.36 Q577.14 1316.2 580.219 1316.2 Q580.659 1316.2 581.191 1316.27 Q581.724 1316.32 582.372 1316.44 L582.395 1320.81 Z" fill="#000000" fill-rule="nonzero" fill-opacity="1" /><path clip-path="url(#clip320)" d="M607.997 1328.73 L607.997 1330.81 L588.413 1330.81 Q588.691 1335.21 591.052 1337.52 Q593.436 1339.82 597.673 1339.82 Q600.126 1339.82 602.418 1339.21 Q604.733 1338.61 607.001 1337.41 L607.001 1341.44 Q604.71 1342.41 602.302 1342.92 Q599.895 1343.43 597.418 1343.43 Q591.214 1343.43 587.58 1339.82 Q583.969 1336.2 583.969 1330.05 Q583.969 1323.68 587.395 1319.95 Q590.844 1316.2 596.677 1316.2 Q601.909 1316.2 604.941 1319.58 Q607.997 1322.94 607.997 1328.73 M603.737 1327.48 Q603.691 1323.98 601.77 1321.9 Q599.872 1319.82 596.723 1319.82 Q593.159 1319.82 591.006 1321.83 Q588.876 1323.84 588.552 1327.5 L603.737 1327.48 Z" fill="#000000" fill-rule="nonzero" fill-opacity="1" /><path clip-path="url(#clip320)" d="M632.047 1320.76 L632.047 1306.74 L636.307 1306.74 L636.307 1342.76 L632.047 1342.76 L632.047 1338.87 Q630.705 1341.18 628.645 1342.32 Q626.608 1343.43 623.737 1343.43 Q619.038 1343.43 616.075 1339.68 Q613.135 1335.93 613.135 1329.82 Q613.135 1323.7 616.075 1319.95 Q619.038 1316.2 623.737 1316.2 Q626.608 1316.2 628.645 1317.34 Q630.705 1318.45 632.047 1320.76 M617.534 1329.82 Q617.534 1334.51 619.455 1337.2 Q621.399 1339.86 624.779 1339.86 Q628.158 1339.86 630.103 1337.2 Q632.047 1334.51 632.047 1329.82 Q632.047 1325.12 630.103 1322.45 Q628.158 1319.77 624.779 1319.77 Q621.399 1319.77 619.455 1322.45 Q617.534 1325.12 617.534 1329.82 Z" fill="#000000" fill-rule="nonzero" fill-opacity="1" /><path clip-path="url(#clip320)" d="M645.08 1316.83 L649.339 1316.83 L649.339 1342.76 L645.08 1342.76 L645.08 1316.83 M645.08 1306.74 L649.339 1306.74 L649.339 1312.13 L645.08 1312.13 L645.08 1306.74 Z" fill="#000000" fill-rule="nonzero" fill-opacity="1" /><path clip-path="url(#clip320)" d="M676.908 1317.82 L676.908 1321.81 Q675.103 1320.81 673.274 1320.32 Q671.468 1319.82 669.617 1319.82 Q665.473 1319.82 663.181 1322.45 Q660.89 1325.07 660.89 1329.82 Q660.89 1334.56 663.181 1337.2 Q665.473 1339.82 669.617 1339.82 Q671.468 1339.82 673.274 1339.33 Q675.103 1338.82 676.908 1337.82 L676.908 1341.76 Q675.126 1342.59 673.205 1343.01 Q671.306 1343.43 669.154 1343.43 Q663.297 1343.43 659.848 1339.75 Q656.399 1336.07 656.399 1329.82 Q656.399 1323.47 659.871 1319.84 Q663.367 1316.2 669.431 1316.2 Q671.399 1316.2 673.274 1316.62 Q675.149 1317.01 676.908 1317.82 Z" fill="#000000" fill-rule="nonzero" fill-opacity="1" /><path clip-path="url(#clip320)" d="M688.529 1309.47 L688.529 1316.83 L697.302 1316.83 L697.302 1320.14 L688.529 1320.14 L688.529 1334.21 Q688.529 1337.38 689.385 1338.29 Q690.265 1339.19 692.927 1339.19 L697.302 1339.19 L697.302 1342.76 L692.927 1342.76 Q687.996 1342.76 686.121 1340.93 Q684.246 1339.07 684.246 1334.21 L684.246 1320.14 L681.121 1320.14 L681.121 1316.83 L684.246 1316.83 L684.246 1309.47 L688.529 1309.47 Z" fill="#000000" fill-rule="nonzero" fill-opacity="1" /><path clip-path="url(#clip320)" d="M702.903 1316.83 L707.163 1316.83 L707.163 1342.76 L702.903 1342.76 L702.903 1316.83 M702.903 1306.74 L707.163 1306.74 L707.163 1312.13 L702.903 1312.13 L702.903 1306.74 Z" fill="#000000" fill-rule="nonzero" fill-opacity="1" /><path clip-path="url(#clip320)" d="M726.121 1319.82 Q722.695 1319.82 720.704 1322.5 Q718.714 1325.16 718.714 1329.82 Q718.714 1334.47 720.681 1337.15 Q722.672 1339.82 726.121 1339.82 Q729.524 1339.82 731.514 1337.13 Q733.505 1334.45 733.505 1329.82 Q733.505 1325.21 731.514 1322.52 Q729.524 1319.82 726.121 1319.82 M726.121 1316.2 Q731.676 1316.2 734.848 1319.82 Q738.019 1323.43 738.019 1329.82 Q738.019 1336.18 734.848 1339.82 Q731.676 1343.43 726.121 1343.43 Q720.542 1343.43 717.371 1339.82 Q714.223 1336.18 714.223 1329.82 Q714.223 1323.43 717.371 1319.82 Q720.542 1316.2 726.121 1316.2 Z" fill="#000000" fill-rule="nonzero" fill-opacity="1" /><path clip-path="url(#clip320)" d="M766.63 1327.11 L766.63 1342.76 L762.371 1342.76 L762.371 1327.25 Q762.371 1323.57 760.936 1321.74 Q759.5 1319.91 756.63 1319.91 Q753.181 1319.91 751.19 1322.11 Q749.199 1324.31 749.199 1328.1 L749.199 1342.76 L744.917 1342.76 L744.917 1316.83 L749.199 1316.83 L749.199 1320.86 Q750.727 1318.52 752.787 1317.36 Q754.871 1316.2 757.579 1316.2 Q762.047 1316.2 764.338 1318.98 Q766.63 1321.74 766.63 1327.11 Z" fill="#000000" fill-rule="nonzero" fill-opacity="1" /><path clip-path="url(#clip320)" d="M810.38 1321.81 Q811.977 1318.94 814.199 1317.57 Q816.421 1316.2 819.431 1316.2 Q823.481 1316.2 825.681 1319.05 Q827.88 1321.88 827.88 1327.11 L827.88 1342.76 L823.597 1342.76 L823.597 1327.25 Q823.597 1323.52 822.278 1321.71 Q820.958 1319.91 818.25 1319.91 Q814.94 1319.91 813.019 1322.11 Q811.097 1324.31 811.097 1328.1 L811.097 1342.76 L806.815 1342.76 L806.815 1327.25 Q806.815 1323.5 805.495 1321.71 Q804.176 1319.91 801.421 1319.91 Q798.158 1319.91 796.236 1322.13 Q794.315 1324.33 794.315 1328.1 L794.315 1342.76 L790.033 1342.76 L790.033 1316.83 L794.315 1316.83 L794.315 1320.86 Q795.773 1318.47 797.81 1317.34 Q799.847 1316.2 802.648 1316.2 Q805.472 1316.2 807.44 1317.64 Q809.431 1319.07 810.38 1321.81 Z" fill="#000000" fill-rule="nonzero" fill-opacity="1" /><path clip-path="url(#clip320)" d="M846.421 1319.82 Q842.995 1319.82 841.005 1322.5 Q839.014 1325.16 839.014 1329.82 Q839.014 1334.47 840.981 1337.15 Q842.972 1339.82 846.421 1339.82 Q849.824 1339.82 851.815 1337.13 Q853.805 1334.45 853.805 1329.82 Q853.805 1325.21 851.815 1322.52 Q849.824 1319.82 846.421 1319.82 M846.421 1316.2 Q851.977 1316.2 855.148 1319.82 Q858.319 1323.43 858.319 1329.82 Q858.319 1336.18 855.148 1339.82 Q851.977 1343.43 846.421 1343.43 Q840.843 1343.43 837.671 1339.82 Q834.523 1336.18 834.523 1329.82 Q834.523 1323.43 837.671 1319.82 Q840.843 1316.2 846.421 1316.2 Z" fill="#000000" fill-rule="nonzero" fill-opacity="1" /><path clip-path="url(#clip320)" d="M882.44 1320.76 L882.44 1306.74 L886.699 1306.74 L886.699 1342.76 L882.44 1342.76 L882.44 1338.87 Q881.097 1341.18 879.037 1342.32 Q877 1343.43 874.129 1343.43 Q869.43 1343.43 866.467 1339.68 Q863.528 1335.93 863.528 1329.82 Q863.528 1323.7 866.467 1319.95 Q869.43 1316.2 874.129 1316.2 Q877 1316.2 879.037 1317.34 Q881.097 1318.45 882.44 1320.76 M867.926 1329.82 Q867.926 1334.51 869.847 1337.2 Q871.791 1339.86 875.171 1339.86 Q878.551 1339.86 880.495 1337.2 Q882.44 1334.51 882.44 1329.82 Q882.44 1325.12 880.495 1322.45 Q878.551 1319.77 875.171 1319.77 Q871.791 1319.77 869.847 1322.45 Q867.926 1325.12 867.926 1329.82 Z" fill="#000000" fill-rule="nonzero" fill-opacity="1" /><path clip-path="url(#clip320)" d="M917.648 1328.73 L917.648 1330.81 L898.064 1330.81 Q898.342 1335.21 900.703 1337.52 Q903.088 1339.82 907.324 1339.82 Q909.777 1339.82 912.069 1339.21 Q914.384 1338.61 916.652 1337.41 L916.652 1341.44 Q914.361 1342.41 911.953 1342.92 Q909.546 1343.43 907.069 1343.43 Q900.865 1343.43 897.231 1339.82 Q893.62 1336.2 893.62 1330.05 Q893.62 1323.68 897.046 1319.95 Q900.495 1316.2 906.328 1316.2 Q911.56 1316.2 914.592 1319.58 Q917.648 1322.94 917.648 1328.73 M913.388 1327.48 Q913.342 1323.98 911.421 1321.9 Q909.523 1319.82 906.375 1319.82 Q902.81 1319.82 900.657 1321.83 Q898.527 1323.84 898.203 1327.5 L913.388 1327.48 Z" fill="#000000" fill-rule="nonzero" fill-opacity="1" /><path clip-path="url(#clip320)" d="M924.638 1306.74 L928.898 1306.74 L928.898 1342.76 L924.638 1342.76 L924.638 1306.74 Z" fill="#000000" fill-rule="nonzero" fill-opacity="1" /><path clip-path="url(#clip320)" d="M969.407 1317.59 L969.407 1321.62 Q967.601 1320.7 965.657 1320.23 Q963.712 1319.77 961.629 1319.77 Q958.458 1319.77 956.86 1320.74 Q955.286 1321.71 955.286 1323.66 Q955.286 1325.14 956.421 1326 Q957.555 1326.83 960.981 1327.59 L962.439 1327.92 Q966.976 1328.89 968.874 1330.67 Q970.796 1332.43 970.796 1335.6 Q970.796 1339.21 967.925 1341.32 Q965.078 1343.43 960.078 1343.43 Q957.995 1343.43 955.726 1343.01 Q953.481 1342.62 950.981 1341.81 L950.981 1337.41 Q953.342 1338.63 955.634 1339.26 Q957.925 1339.86 960.171 1339.86 Q963.18 1339.86 964.8 1338.84 Q966.421 1337.8 966.421 1335.93 Q966.421 1334.19 965.24 1333.26 Q964.083 1332.34 960.124 1331.48 L958.643 1331.14 Q954.684 1330.3 952.925 1328.59 Q951.166 1326.85 951.166 1323.84 Q951.166 1320.19 953.759 1318.2 Q956.351 1316.2 961.12 1316.2 Q963.481 1316.2 965.564 1316.55 Q967.647 1316.9 969.407 1317.59 Z" fill="#000000" fill-rule="nonzero" fill-opacity="1" /><path clip-path="url(#clip320)" d="M977.578 1316.83 L981.837 1316.83 L981.837 1342.76 L977.578 1342.76 L977.578 1316.83 M977.578 1306.74 L981.837 1306.74 L981.837 1312.13 L977.578 1312.13 L977.578 1306.74 Z" fill="#000000" fill-rule="nonzero" fill-opacity="1" /><path clip-path="url(#clip320)" d="M1010.93 1321.81 Q1012.53 1318.94 1014.75 1317.57 Q1016.98 1316.2 1019.99 1316.2 Q1024.04 1316.2 1026.24 1319.05 Q1028.43 1321.88 1028.43 1327.11 L1028.43 1342.76 L1024.15 1342.76 L1024.15 1327.25 Q1024.15 1323.52 1022.83 1321.71 Q1021.51 1319.91 1018.8 1319.91 Q1015.49 1319.91 1013.57 1322.11 Q1011.65 1324.31 1011.65 1328.1 L1011.65 1342.76 L1007.37 1342.76 L1007.37 1327.25 Q1007.37 1323.5 1006.05 1321.71 Q1004.73 1319.91 1001.98 1319.91 Q998.712 1319.91 996.791 1322.13 Q994.869 1324.33 994.869 1328.1 L994.869 1342.76 L990.587 1342.76 L990.587 1316.83 L994.869 1316.83 L994.869 1320.86 Q996.328 1318.47 998.365 1317.34 Q1000.4 1316.2 1003.2 1316.2 Q1006.03 1316.2 1007.99 1317.64 Q1009.99 1319.07 1010.93 1321.81 Z" fill="#000000" fill-rule="nonzero" fill-opacity="1" /><path clip-path="url(#clip320)" d="M1065.12 1306.74 L1065.12 1310.28 L1061.05 1310.28 Q1058.76 1310.28 1057.86 1311.2 Q1056.98 1312.13 1056.98 1314.54 L1056.98 1316.83 L1063.99 1316.83 L1063.99 1320.14 L1056.98 1320.14 L1056.98 1342.76 L1052.69 1342.76 L1052.69 1320.14 L1048.62 1320.14 L1048.62 1316.83 L1052.69 1316.83 L1052.69 1315.02 Q1052.69 1310.7 1054.71 1308.73 Q1056.72 1306.74 1061.1 1306.74 L1065.12 1306.74 Z" fill="#000000" fill-rule="nonzero" fill-opacity="1" /><path clip-path="url(#clip320)" d="M1068.69 1316.83 L1072.95 1316.83 L1072.95 1342.76 L1068.69 1342.76 L1068.69 1316.83 M1068.69 1306.74 L1072.95 1306.74 L1072.95 1312.13 L1068.69 1312.13 L1068.69 1306.74 Z" fill="#000000" fill-rule="nonzero" fill-opacity="1" /><path clip-path="url(#clip320)" d="M1086.07 1309.47 L1086.07 1316.83 L1094.85 1316.83 L1094.85 1320.14 L1086.07 1320.14 L1086.07 1334.21 Q1086.07 1337.38 1086.93 1338.29 Q1087.81 1339.19 1090.47 1339.19 L1094.85 1339.19 L1094.85 1342.76 L1090.47 1342.76 Q1085.54 1342.76 1083.67 1340.93 Q1081.79 1339.07 1081.79 1334.21 L1081.79 1320.14 L1078.67 1320.14 L1078.67 1316.83 L1081.79 1316.83 L1081.79 1309.47 L1086.07 1309.47 Z" fill="#000000" fill-rule="nonzero" fill-opacity="1" /><path clip-path="url(#clip320)" d="M1131.67 1336.88 L1136.56 1336.88 L1136.56 1342.76 L1131.67 1342.76 L1131.67 1336.88 M1131.67 1318.24 L1136.56 1318.24 L1136.56 1324.12 L1131.67 1324.12 L1131.67 1318.24 Z" fill="#000000" fill-rule="nonzero" fill-opacity="1" /><path clip-path="url(#clip320)" d="M1147.21 1308.2 L1165.56 1308.2 L1165.56 1312.13 L1151.49 1312.13 L1151.49 1320.6 Q1152.51 1320.26 1153.53 1320.09 Q1154.54 1319.91 1155.56 1319.91 Q1161.35 1319.91 1164.73 1323.08 Q1168.11 1326.25 1168.11 1331.67 Q1168.11 1337.25 1164.64 1340.35 Q1161.16 1343.43 1154.85 1343.43 Q1152.67 1343.43 1150.4 1343.06 Q1148.16 1342.69 1145.75 1341.95 L1145.75 1337.25 Q1147.83 1338.38 1150.05 1338.94 Q1152.28 1339.49 1154.75 1339.49 Q1158.76 1339.49 1161.1 1337.38 Q1163.43 1335.28 1163.43 1331.67 Q1163.43 1328.06 1161.1 1325.95 Q1158.76 1323.84 1154.75 1323.84 Q1152.88 1323.84 1151 1324.26 Q1149.15 1324.68 1147.21 1325.56 L1147.21 1308.2 Z" fill="#000000" fill-rule="nonzero" fill-opacity="1" /><path clip-path="url(#clip320)" d="M1177.46 1342.04 L1177.46 1337.78 Q1179.22 1338.61 1181.03 1339.05 Q1182.83 1339.49 1184.57 1339.49 Q1189.2 1339.49 1191.63 1336.39 Q1194.08 1333.26 1194.43 1326.92 Q1193.09 1328.91 1191.03 1329.98 Q1188.97 1331.04 1186.47 1331.04 Q1181.28 1331.04 1178.25 1327.92 Q1175.24 1324.77 1175.24 1319.33 Q1175.24 1314.01 1178.39 1310.79 Q1181.54 1307.57 1186.77 1307.57 Q1192.76 1307.57 1195.91 1312.18 Q1199.08 1316.76 1199.08 1325.51 Q1199.08 1333.68 1195.19 1338.57 Q1191.33 1343.43 1184.78 1343.43 Q1183.02 1343.43 1181.21 1343.08 Q1179.41 1342.73 1177.46 1342.04 M1186.77 1327.39 Q1189.91 1327.39 1191.74 1325.23 Q1193.6 1323.08 1193.6 1319.33 Q1193.6 1315.6 1191.74 1313.45 Q1189.91 1311.27 1186.77 1311.27 Q1183.62 1311.27 1181.77 1313.45 Q1179.94 1315.6 1179.94 1319.33 Q1179.94 1323.08 1181.77 1325.23 Q1183.62 1327.39 1186.77 1327.39 Z" fill="#000000" fill-rule="nonzero" fill-opacity="1" /><path clip-path="url(#clip320)" d="M1207.48 1336.88 L1212.37 1336.88 L1212.37 1342.76 L1207.48 1342.76 L1207.48 1336.88 Z" fill="#000000" fill-rule="nonzero" fill-opacity="1" /><path clip-path="url(#clip320)" d="M1223.36 1338.82 L1231 1338.82 L1231 1312.45 L1222.69 1314.12 L1222.69 1309.86 L1230.96 1308.2 L1235.63 1308.2 L1235.63 1338.82 L1243.27 1338.82 L1243.27 1342.76 L1223.36 1342.76 L1223.36 1338.82 Z" fill="#000000" fill-rule="nonzero" fill-opacity="1" /><path clip-path="url(#clip320)" d="M1251.53 1308.2 L1273.76 1308.2 L1273.76 1310.19 L1261.21 1342.76 L1256.33 1342.76 L1268.13 1312.13 L1251.53 1312.13 L1251.53 1308.2 Z" fill="#000000" fill-rule="nonzero" fill-opacity="1" /><path clip-path="url(#clip320)" d="M1312.28 1327.55 Q1310.26 1327.55 1309.1 1329.26 Q1307.97 1330.97 1307.97 1334.03 Q1307.97 1337.04 1309.1 1338.77 Q1310.26 1340.49 1312.28 1340.49 Q1314.24 1340.49 1315.38 1338.77 Q1316.53 1337.04 1316.53 1334.03 Q1316.53 1331 1315.38 1329.28 Q1314.24 1327.55 1312.28 1327.55 M1312.28 1324.61 Q1315.93 1324.61 1318.09 1327.15 Q1320.24 1329.7 1320.24 1334.03 Q1320.24 1338.36 1318.06 1340.9 Q1315.91 1343.43 1312.28 1343.43 Q1308.57 1343.43 1306.42 1340.9 Q1304.27 1338.36 1304.27 1334.03 Q1304.27 1329.68 1306.42 1327.15 Q1308.59 1324.61 1312.28 1324.61 M1288.39 1310.51 Q1286.4 1310.51 1285.24 1312.25 Q1284.1 1313.96 1284.1 1316.97 Q1284.1 1320.02 1285.24 1321.74 Q1286.37 1323.45 1288.39 1323.45 Q1290.4 1323.45 1291.53 1321.74 Q1292.69 1320.02 1292.69 1316.97 Q1292.69 1313.98 1291.53 1312.25 Q1290.38 1310.51 1288.39 1310.51 M1309.29 1307.57 L1312.99 1307.57 L1291.37 1343.43 L1287.67 1343.43 L1309.29 1307.57 M1288.39 1307.57 Q1292.04 1307.57 1294.22 1310.12 Q1296.4 1312.64 1296.4 1316.97 Q1296.4 1321.34 1294.22 1323.87 Q1292.07 1326.39 1288.39 1326.39 Q1284.71 1326.39 1282.55 1323.87 Q1280.42 1321.32 1280.42 1316.97 Q1280.42 1312.66 1282.58 1310.12 Q1284.73 1307.57 1288.39 1307.57 Z" fill="#000000" fill-rule="nonzero" fill-opacity="1" /></svg>
