<?xml version="1.0" encoding="utf-8"?>
<svg xmlns="http://www.w3.org/2000/svg" xmlns:xlink="http://www.w3.org/1999/xlink" width="600" height="400" viewBox="0 0 2400 1600">
<defs>
  <clipPath id="clip930">
    <rect x="0" y="0" width="2400" height="1600"/>
  </clipPath>
</defs>
<path clip-path="url(#clip930)" d="M0 1600 L2400 1600 L2400 0 L0 0  Z" fill="#ffffff" fill-rule="evenodd" fill-opacity="1"/>
<defs>
  <clipPath id="clip931">
    <rect x="480" y="0" width="1681" height="1600"/>
  </clipPath>
</defs>
<path clip-path="url(#clip930)" d="M242.135 1423.18 L1149.05 1423.18 L1149.05 123.472 L242.135 123.472  Z" fill="#ffffff" fill-rule="evenodd" fill-opacity="1"/>
<defs>
  <clipPath id="clip932">
    <rect x="242" y="123" width="908" height="1301"/>
  </clipPath>
</defs>
<polyline clip-path="url(#clip932)" style="stroke:#000000; stroke-linecap:round; stroke-linejoin:round; stroke-width:2; stroke-opacity:0.1; fill:none" points="263.728,1423.18 263.728,123.472 "/>
<polyline clip-path="url(#clip932)" style="stroke:#000000; stroke-linecap:round; stroke-linejoin:round; stroke-width:2; stroke-opacity:0.1; fill:none" points="479.661,1423.18 479.661,123.472 "/>
<polyline clip-path="url(#clip932)" style="stroke:#000000; stroke-linecap:round; stroke-linejoin:round; stroke-width:2; stroke-opacity:0.1; fill:none" points="695.593,1423.18 695.593,123.472 "/>
<polyline clip-path="url(#clip932)" style="stroke:#000000; stroke-linecap:round; stroke-linejoin:round; stroke-width:2; stroke-opacity:0.1; fill:none" points="911.526,1423.18 911.526,123.472 "/>
<polyline clip-path="url(#clip932)" style="stroke:#000000; stroke-linecap:round; stroke-linejoin:round; stroke-width:2; stroke-opacity:0.1; fill:none" points="1127.46,1423.18 1127.46,123.472 "/>
<polyline clip-path="url(#clip930)" style="stroke:#000000; stroke-linecap:round; stroke-linejoin:round; stroke-width:4; stroke-opacity:1; fill:none" points="242.135,188.31 1149.05,188.31 "/>
<polyline clip-path="url(#clip930)" style="stroke:#000000; stroke-linecap:round; stroke-linejoin:round; stroke-width:4; stroke-opacity:0; fill:none" points="263.728,188.31 263.728,188.31 "/>
<polyline clip-path="url(#clip930)" style="stroke:#000000; stroke-linecap:round; stroke-linejoin:round; stroke-width:4; stroke-opacity:0; fill:none" points="479.661,188.31 479.661,188.31 "/>
<polyline clip-path="url(#clip930)" style="stroke:#000000; stroke-linecap:round; stroke-linejoin:round; stroke-width:4; stroke-opacity:0; fill:none" points="695.593,188.31 695.593,188.31 "/>
<polyline clip-path="url(#clip930)" style="stroke:#000000; stroke-linecap:round; stroke-linejoin:round; stroke-width:4; stroke-opacity:0; fill:none" points="911.526,188.31 911.526,188.31 "/>
<polyline clip-path="url(#clip930)" style="stroke:#000000; stroke-linecap:round; stroke-linejoin:round; stroke-width:4; stroke-opacity:0; fill:none" points="1127.46,188.31 1127.46,188.31 "/>
<path clip-path="url(#clip930)" d="M210.256 1468.75 L239.932 1468.75 L239.932 1472.69 L210.256 1472.69 L210.256 1468.75 Z" fill="#000000" fill-rule="nonzero" fill-opacity="1" /><path clip-path="url(#clip930)" d="M250.834 1481.64 L258.473 1481.64 L258.473 1455.28 L250.163 1456.95 L250.163 1452.69 L258.427 1451.02 L263.103 1451.02 L263.103 1481.64 L270.742 1481.64 L270.742 1485.58 L250.834 1485.58 L250.834 1481.64 Z" fill="#000000" fill-rule="nonzero" fill-opacity="1" /><path clip-path="url(#clip930)" d="M280.186 1479.7 L285.07 1479.7 L285.07 1485.58 L280.186 1485.58 L280.186 1479.7 Z" fill="#000000" fill-rule="nonzero" fill-opacity="1" /><path clip-path="url(#clip930)" d="M305.255 1454.1 Q301.644 1454.1 299.816 1457.66 Q298.01 1461.2 298.01 1468.33 Q298.01 1475.44 299.816 1479.01 Q301.644 1482.55 305.255 1482.55 Q308.89 1482.55 310.695 1479.01 Q312.524 1475.44 312.524 1468.33 Q312.524 1461.2 310.695 1457.66 Q308.89 1454.1 305.255 1454.1 M305.255 1450.39 Q311.066 1450.39 314.121 1455 Q317.2 1459.58 317.2 1468.33 Q317.2 1477.06 314.121 1481.67 Q311.066 1486.25 305.255 1486.25 Q299.445 1486.25 296.367 1481.67 Q293.311 1477.06 293.311 1468.33 Q293.311 1459.58 296.367 1455 Q299.445 1450.39 305.255 1450.39 Z" fill="#000000" fill-rule="nonzero" fill-opacity="1" /><path clip-path="url(#clip930)" d="M426.686 1468.75 L456.362 1468.75 L456.362 1472.69 L426.686 1472.69 L426.686 1468.75 Z" fill="#000000" fill-rule="nonzero" fill-opacity="1" /><path clip-path="url(#clip930)" d="M476.455 1454.1 Q472.844 1454.1 471.015 1457.66 Q469.209 1461.2 469.209 1468.33 Q469.209 1475.44 471.015 1479.01 Q472.844 1482.55 476.455 1482.55 Q480.089 1482.55 481.894 1479.01 Q483.723 1475.44 483.723 1468.33 Q483.723 1461.2 481.894 1457.66 Q480.089 1454.1 476.455 1454.1 M476.455 1450.39 Q482.265 1450.39 485.32 1455 Q488.399 1459.58 488.399 1468.33 Q488.399 1477.06 485.32 1481.67 Q482.265 1486.25 476.455 1486.25 Q470.645 1486.25 467.566 1481.67 Q464.51 1477.06 464.51 1468.33 Q464.51 1459.58 467.566 1455 Q470.645 1450.39 476.455 1450.39 Z" fill="#000000" fill-rule="nonzero" fill-opacity="1" /><path clip-path="url(#clip930)" d="M496.617 1479.7 L501.501 1479.7 L501.501 1485.58 L496.617 1485.58 L496.617 1479.7 Z" fill="#000000" fill-rule="nonzero" fill-opacity="1" /><path clip-path="url(#clip930)" d="M511.732 1451.02 L530.089 1451.02 L530.089 1454.96 L516.015 1454.96 L516.015 1463.43 Q517.033 1463.08 518.052 1462.92 Q519.07 1462.73 520.089 1462.73 Q525.876 1462.73 529.255 1465.9 Q532.635 1469.08 532.635 1474.49 Q532.635 1480.07 529.163 1483.17 Q525.691 1486.25 519.371 1486.25 Q517.195 1486.25 514.927 1485.88 Q512.681 1485.51 510.274 1484.77 L510.274 1480.07 Q512.357 1481.2 514.579 1481.76 Q516.802 1482.32 519.279 1482.32 Q523.283 1482.32 525.621 1480.21 Q527.959 1478.1 527.959 1474.49 Q527.959 1470.88 525.621 1468.77 Q523.283 1466.67 519.279 1466.67 Q517.404 1466.67 515.529 1467.08 Q513.677 1467.5 511.732 1468.38 L511.732 1451.02 Z" fill="#000000" fill-rule="nonzero" fill-opacity="1" /><path clip-path="url(#clip930)" d="M672.978 1454.1 Q669.367 1454.1 667.538 1457.66 Q665.732 1461.2 665.732 1468.33 Q665.732 1475.44 667.538 1479.01 Q669.367 1482.55 672.978 1482.55 Q676.612 1482.55 678.418 1479.01 Q680.246 1475.44 680.246 1468.33 Q680.246 1461.2 678.418 1457.66 Q676.612 1454.1 672.978 1454.1 M672.978 1450.39 Q678.788 1450.39 681.844 1455 Q684.922 1459.58 684.922 1468.33 Q684.922 1477.06 681.844 1481.67 Q678.788 1486.25 672.978 1486.25 Q667.168 1486.25 664.089 1481.67 Q661.033 1477.06 661.033 1468.33 Q661.033 1459.58 664.089 1455 Q667.168 1450.39 672.978 1450.39 Z" fill="#000000" fill-rule="nonzero" fill-opacity="1" /><path clip-path="url(#clip930)" d="M693.14 1479.7 L698.024 1479.7 L698.024 1485.58 L693.14 1485.58 L693.14 1479.7 Z" fill="#000000" fill-rule="nonzero" fill-opacity="1" /><path clip-path="url(#clip930)" d="M718.209 1454.1 Q714.598 1454.1 712.769 1457.66 Q710.964 1461.2 710.964 1468.33 Q710.964 1475.44 712.769 1479.01 Q714.598 1482.55 718.209 1482.55 Q721.843 1482.55 723.649 1479.01 Q725.478 1475.44 725.478 1468.33 Q725.478 1461.2 723.649 1457.66 Q721.843 1454.1 718.209 1454.1 M718.209 1450.39 Q724.019 1450.39 727.075 1455 Q730.153 1459.58 730.153 1468.33 Q730.153 1477.06 727.075 1481.67 Q724.019 1486.25 718.209 1486.25 Q712.399 1486.25 709.32 1481.67 Q706.265 1477.06 706.265 1468.33 Q706.265 1459.58 709.32 1455 Q712.399 1450.39 718.209 1450.39 Z" fill="#000000" fill-rule="nonzero" fill-opacity="1" /><path clip-path="url(#clip930)" d="M889.408 1454.1 Q885.797 1454.1 883.968 1457.66 Q882.163 1461.2 882.163 1468.33 Q882.163 1475.44 883.968 1479.01 Q885.797 1482.55 889.408 1482.55 Q893.042 1482.55 894.848 1479.01 Q896.677 1475.44 896.677 1468.33 Q896.677 1461.2 894.848 1457.66 Q893.042 1454.1 889.408 1454.1 M889.408 1450.39 Q895.218 1450.39 898.274 1455 Q901.353 1459.58 901.353 1468.33 Q901.353 1477.06 898.274 1481.67 Q895.218 1486.25 889.408 1486.25 Q883.598 1486.25 880.519 1481.67 Q877.464 1477.06 877.464 1468.33 Q877.464 1459.58 880.519 1455 Q883.598 1450.39 889.408 1450.39 Z" fill="#000000" fill-rule="nonzero" fill-opacity="1" /><path clip-path="url(#clip930)" d="M909.57 1479.7 L914.454 1479.7 L914.454 1485.58 L909.57 1485.58 L909.57 1479.7 Z" fill="#000000" fill-rule="nonzero" fill-opacity="1" /><path clip-path="url(#clip930)" d="M924.686 1451.02 L943.042 1451.02 L943.042 1454.96 L928.968 1454.96 L928.968 1463.43 Q929.987 1463.08 931.005 1462.92 Q932.024 1462.73 933.042 1462.73 Q938.829 1462.73 942.209 1465.9 Q945.589 1469.08 945.589 1474.49 Q945.589 1480.07 942.116 1483.17 Q938.644 1486.25 932.325 1486.25 Q930.149 1486.25 927.88 1485.88 Q925.635 1485.51 923.228 1484.77 L923.228 1480.07 Q925.311 1481.2 927.533 1481.76 Q929.755 1482.32 932.232 1482.32 Q936.237 1482.32 938.575 1480.21 Q940.913 1478.1 940.913 1474.49 Q940.913 1470.88 938.575 1468.77 Q936.237 1466.67 932.232 1466.67 Q930.357 1466.67 928.482 1467.08 Q926.63 1467.5 924.686 1468.38 L924.686 1451.02 Z" fill="#000000" fill-rule="nonzero" fill-opacity="1" /><path clip-path="url(#clip930)" d="M1094.61 1481.64 L1102.25 1481.64 L1102.25 1455.28 L1093.94 1456.95 L1093.94 1452.69 L1102.2 1451.02 L1106.88 1451.02 L1106.88 1481.64 L1114.52 1481.64 L1114.52 1485.58 L1094.61 1485.58 L1094.61 1481.64 Z" fill="#000000" fill-rule="nonzero" fill-opacity="1" /><path clip-path="url(#clip930)" d="M1123.96 1479.7 L1128.85 1479.7 L1128.85 1485.58 L1123.96 1485.58 L1123.96 1479.7 Z" fill="#000000" fill-rule="nonzero" fill-opacity="1" /><path clip-path="url(#clip930)" d="M1149.03 1454.1 Q1145.42 1454.1 1143.59 1457.66 Q1141.79 1461.2 1141.79 1468.33 Q1141.79 1475.44 1143.59 1479.01 Q1145.42 1482.55 1149.03 1482.55 Q1152.67 1482.55 1154.47 1479.01 Q1156.3 1475.44 1156.3 1468.33 Q1156.3 1461.2 1154.47 1457.66 Q1152.67 1454.1 1149.03 1454.1 M1149.03 1450.39 Q1154.84 1450.39 1157.9 1455 Q1160.98 1459.58 1160.98 1468.33 Q1160.98 1477.06 1157.9 1481.67 Q1154.84 1486.25 1149.03 1486.25 Q1143.22 1486.25 1140.14 1481.67 Q1137.09 1477.06 1137.09 1468.33 Q1137.09 1459.58 1140.14 1455 Q1143.22 1450.39 1149.03 1450.39 Z" fill="#000000" fill-rule="nonzero" fill-opacity="1" /><polyline clip-path="url(#clip932)" style="stroke:#000000; stroke-linecap:round; stroke-linejoin:round; stroke-width:2; stroke-opacity:0.1; fill:none" points="242.135,1114.56 1149.05,1114.56 "/>
<polyline clip-path="url(#clip932)" style="stroke:#000000; stroke-linecap:round; stroke-linejoin:round; stroke-width:2; stroke-opacity:0.1; fill:none" points="242.135,805.813 1149.05,805.813 "/>
<polyline clip-path="url(#clip932)" style="stroke:#000000; stroke-linecap:round; stroke-linejoin:round; stroke-width:2; stroke-opacity:0.1; fill:none" points="242.135,497.061 1149.05,497.061 "/>
<polyline clip-path="url(#clip932)" style="stroke:#000000; stroke-linecap:round; stroke-linejoin:round; stroke-width:2; stroke-opacity:0.1; fill:none" points="242.135,188.31 1149.05,188.31 "/>
<polyline clip-path="url(#clip930)" style="stroke:#000000; stroke-linecap:round; stroke-linejoin:round; stroke-width:4; stroke-opacity:1; fill:none" points="695.593,1423.18 695.593,123.472 "/>
<polyline clip-path="url(#clip930)" style="stroke:#000000; stroke-linecap:round; stroke-linejoin:round; stroke-width:4; stroke-opacity:0; fill:none" points="695.593,1114.56 695.593,1114.56 "/>
<polyline clip-path="url(#clip930)" style="stroke:#000000; stroke-linecap:round; stroke-linejoin:round; stroke-width:4; stroke-opacity:0; fill:none" points="695.593,805.813 695.593,805.813 "/>
<polyline clip-path="url(#clip930)" style="stroke:#000000; stroke-linecap:round; stroke-linejoin:round; stroke-width:4; stroke-opacity:0; fill:none" points="695.593,497.061 695.593,497.061 "/>
<polyline clip-path="url(#clip930)" style="stroke:#000000; stroke-linecap:round; stroke-linejoin:round; stroke-width:4; stroke-opacity:0; fill:none" points="695.593,188.31 695.593,188.31 "/>
<path clip-path="url(#clip930)" d="M115.256 1115.02 L144.931 1115.02 L144.931 1118.95 L115.256 1118.95 L115.256 1115.02 Z" fill="#000000" fill-rule="nonzero" fill-opacity="1" /><path clip-path="url(#clip930)" d="M155.834 1127.91 L163.473 1127.91 L163.473 1101.54 L155.163 1103.21 L155.163 1098.95 L163.427 1097.28 L168.102 1097.28 L168.102 1127.91 L175.741 1127.91 L175.741 1131.84 L155.834 1131.84 L155.834 1127.91 Z" fill="#000000" fill-rule="nonzero" fill-opacity="1" /><path clip-path="url(#clip930)" d="M185.232 1097.28 L203.588 1097.28 L203.588 1101.22 L189.514 1101.22 L189.514 1109.69 Q190.533 1109.34 191.551 1109.18 Q192.57 1109 193.588 1109 Q199.375 1109 202.755 1112.17 Q206.135 1115.34 206.135 1120.76 Q206.135 1126.34 202.662 1129.44 Q199.19 1132.52 192.871 1132.52 Q190.695 1132.52 188.426 1132.15 Q186.181 1131.78 183.774 1131.03 L183.774 1126.34 Q185.857 1127.47 188.079 1128.03 Q190.301 1128.58 192.778 1128.58 Q196.783 1128.58 199.121 1126.47 Q201.459 1124.37 201.459 1120.76 Q201.459 1117.15 199.121 1115.04 Q196.783 1112.93 192.778 1112.93 Q190.903 1112.93 189.028 1113.35 Q187.176 1113.77 185.232 1114.65 L185.232 1097.28 Z" fill="#000000" fill-rule="nonzero" fill-opacity="1" /><path clip-path="url(#clip930)" d="M114.26 806.264 L143.936 806.264 L143.936 810.2 L114.26 810.2 L114.26 806.264 Z" fill="#000000" fill-rule="nonzero" fill-opacity="1" /><path clip-path="url(#clip930)" d="M154.839 819.158 L162.477 819.158 L162.477 792.792 L154.167 794.459 L154.167 790.2 L162.431 788.533 L167.107 788.533 L167.107 819.158 L174.746 819.158 L174.746 823.093 L154.839 823.093 L154.839 819.158 Z" fill="#000000" fill-rule="nonzero" fill-opacity="1" /><path clip-path="url(#clip930)" d="M194.19 791.612 Q190.579 791.612 188.75 795.176 Q186.945 798.718 186.945 805.848 Q186.945 812.954 188.75 816.519 Q190.579 820.061 194.19 820.061 Q197.825 820.061 199.63 816.519 Q201.459 812.954 201.459 805.848 Q201.459 798.718 199.63 795.176 Q197.825 791.612 194.19 791.612 M194.19 787.908 Q200 787.908 203.056 792.514 Q206.135 797.098 206.135 805.848 Q206.135 814.575 203.056 819.181 Q200 823.764 194.19 823.764 Q188.38 823.764 185.301 819.181 Q182.246 814.575 182.246 805.848 Q182.246 797.098 185.301 792.514 Q188.38 787.908 194.19 787.908 Z" fill="#000000" fill-rule="nonzero" fill-opacity="1" /><path clip-path="url(#clip930)" d="M145.417 497.513 L175.093 497.513 L175.093 501.448 L145.417 501.448 L145.417 497.513 Z" fill="#000000" fill-rule="nonzero" fill-opacity="1" /><path clip-path="url(#clip930)" d="M185.232 479.781 L203.588 479.781 L203.588 483.717 L189.514 483.717 L189.514 492.189 Q190.533 491.842 191.551 491.68 Q192.57 491.494 193.588 491.494 Q199.375 491.494 202.755 494.666 Q206.135 497.837 206.135 503.254 Q206.135 508.832 202.662 511.934 Q199.19 515.013 192.871 515.013 Q190.695 515.013 188.426 514.642 Q186.181 514.272 183.774 513.531 L183.774 508.832 Q185.857 509.966 188.079 510.522 Q190.301 511.078 192.778 511.078 Q196.783 511.078 199.121 508.971 Q201.459 506.865 201.459 503.254 Q201.459 499.642 199.121 497.536 Q196.783 495.43 192.778 495.43 Q190.903 495.43 189.028 495.846 Q187.176 496.263 185.232 497.142 L185.232 479.781 Z" fill="#000000" fill-rule="nonzero" fill-opacity="1" /><path clip-path="url(#clip930)" d="M194.19 174.109 Q190.579 174.109 188.75 177.673 Q186.945 181.215 186.945 188.345 Q186.945 195.451 188.75 199.016 Q190.579 202.558 194.19 202.558 Q197.825 202.558 199.63 199.016 Q201.459 195.451 201.459 188.345 Q201.459 181.215 199.63 177.673 Q197.825 174.109 194.19 174.109 M194.19 170.405 Q200 170.405 203.056 175.011 Q206.135 179.595 206.135 188.345 Q206.135 197.071 203.056 201.678 Q200 206.261 194.19 206.261 Q188.38 206.261 185.301 201.678 Q182.246 197.071 182.246 188.345 Q182.246 179.595 185.301 175.011 Q188.38 170.405 194.19 170.405 Z" fill="#000000" fill-rule="nonzero" fill-opacity="1" /><path clip-path="url(#clip930)" d="M16.4842 847.391 L16.4842 807.192 L21.895 807.192 L21.895 824.061 L64.0042 824.061 L64.0042 830.522 L21.895 830.522 L21.895 847.391 L16.4842 847.391 Z" fill="#000000" fill-rule="nonzero" fill-opacity="1" /><path clip-path="url(#clip930)" d="M32.4621 798.502 Q32.4621 803.213 36.1542 805.95 Q39.8145 808.687 46.212 808.687 Q52.6095 808.687 56.3017 805.982 Q59.9619 803.245 59.9619 798.502 Q59.9619 793.824 56.2698 791.086 Q52.5777 788.349 46.212 788.349 Q39.8781 788.349 36.186 791.086 Q32.4621 793.824 32.4621 798.502 M27.4968 798.502 Q27.4968 790.864 32.4621 786.503 Q37.4273 782.142 46.212 782.142 Q54.9649 782.142 59.9619 786.503 Q64.9272 790.864 64.9272 798.502 Q64.9272 806.173 59.9619 810.534 Q54.9649 814.862 46.212 814.862 Q37.4273 814.862 32.4621 810.534 Q27.4968 806.173 27.4968 798.502 Z" fill="#000000" fill-rule="nonzero" fill-opacity="1" /><path clip-path="url(#clip930)" d="M55.9197 770.939 L55.9197 764.223 L64.0042 764.223 L64.0042 770.939 L55.9197 770.939 M30.2977 770.939 L30.2977 764.223 L38.3822 764.223 L38.3822 770.939 L30.2977 770.939 Z" fill="#000000" fill-rule="nonzero" fill-opacity="1" /><path clip-path="url(#clip930)" d="M67.3143 714.921 Q73.68 717.403 75.6216 719.759 Q77.5631 722.114 77.5631 726.061 L77.5631 730.739 L72.6615 730.739 L72.6615 727.302 Q72.6615 724.883 71.5157 723.546 Q70.3699 722.209 66.1048 720.586 L63.4312 719.536 L28.3562 733.954 L28.3562 727.748 L56.238 716.608 L28.3562 705.468 L28.3562 699.261 L67.3143 714.921 Z" fill="#000000" fill-rule="nonzero" fill-opacity="1" /><path clip-path="url(#clip930)" d="M289.976 12.096 L300.995 12.096 L327.812 62.6918 L327.812 12.096 L335.752 12.096 L335.752 72.576 L324.733 72.576 L297.916 21.9802 L297.916 72.576 L289.976 72.576 L289.976 12.096 Z" fill="#000000" fill-rule="nonzero" fill-opacity="1" /><path clip-path="url(#clip930)" d="M370.589 76.7889 Q367.43 84.8907 364.432 87.3618 Q361.434 89.8329 356.411 89.8329 L350.456 89.8329 L350.456 83.5945 L354.831 83.5945 Q357.91 83.5945 359.611 82.1361 Q361.313 80.6778 363.379 75.2496 L364.716 71.8468 L346.365 27.2059 L354.264 27.2059 L368.442 62.6918 L382.621 27.2059 L390.52 27.2059 L370.589 76.7889 Z" fill="#000000" fill-rule="nonzero" fill-opacity="1" /><path clip-path="url(#clip930)" d="M405.265 49.9314 Q405.265 58.1548 408.627 62.8538 Q412.03 67.5124 417.944 67.5124 Q423.859 67.5124 427.262 62.8538 Q430.664 58.1548 430.664 49.9314 Q430.664 41.7081 427.262 37.0496 Q423.859 32.3505 417.944 32.3505 Q412.03 32.3505 408.627 37.0496 Q405.265 41.7081 405.265 49.9314 M430.664 65.7705 Q428.315 69.8214 424.709 71.8063 Q421.145 73.7508 416.122 73.7508 Q407.898 73.7508 402.713 67.1883 Q397.568 60.6258 397.568 49.9314 Q397.568 39.2371 402.713 32.6746 Q407.898 26.1121 416.122 26.1121 Q421.145 26.1121 424.709 28.0971 Q428.315 30.0415 430.664 34.0924 L430.664 27.2059 L438.118 27.2059 L438.118 89.8329 L430.664 89.8329 L430.664 65.7705 Z" fill="#000000" fill-rule="nonzero" fill-opacity="1" /><path clip-path="url(#clip930)" d="M452.701 54.671 L452.701 27.2059 L460.155 27.2059 L460.155 54.3874 Q460.155 60.8284 462.666 64.0691 Q465.178 67.2693 470.201 67.2693 Q476.237 67.2693 479.721 63.421 Q483.245 59.5726 483.245 52.9291 L483.245 27.2059 L490.699 27.2059 L490.699 72.576 L483.245 72.576 L483.245 65.6084 Q480.531 69.7404 476.926 71.7658 Q473.361 73.7508 468.621 73.7508 Q460.803 73.7508 456.752 68.8897 Q452.701 64.0286 452.701 54.671 M471.457 26.1121 L471.457 26.1121 Z" fill="#000000" fill-rule="nonzero" fill-opacity="1" /><path clip-path="url(#clip930)" d="M506.052 27.2059 L513.505 27.2059 L513.505 72.576 L506.052 72.576 L506.052 27.2059 M506.052 9.54393 L513.505 9.54393 L513.505 18.9825 L506.052 18.9825 L506.052 9.54393 Z" fill="#000000" fill-rule="nonzero" fill-opacity="1" /><path clip-path="url(#clip930)" d="M558.025 28.5427 L558.025 35.5912 Q554.865 33.9709 551.462 33.1607 Q548.06 32.3505 544.414 32.3505 Q538.864 32.3505 536.069 34.0519 Q533.314 35.7533 533.314 39.156 Q533.314 41.7486 535.299 43.2475 Q537.284 44.7058 543.279 46.0426 L545.832 46.6097 Q553.771 48.3111 557.093 51.4303 Q560.455 54.509 560.455 60.0587 Q560.455 66.3781 555.432 70.0644 Q550.45 73.7508 541.7 73.7508 Q538.054 73.7508 534.084 73.0216 Q530.155 72.3329 525.78 70.9151 L525.78 63.2184 Q529.911 65.3654 533.922 66.4591 Q537.932 67.5124 541.862 67.5124 Q547.128 67.5124 549.963 65.73 Q552.799 63.9071 552.799 60.6258 Q552.799 57.5877 550.733 55.9673 Q548.708 54.3469 541.781 52.8481 L539.188 52.2405 Q532.261 50.7821 529.182 47.7845 Q526.104 44.7463 526.104 39.4801 Q526.104 33.0797 530.641 29.5959 Q535.178 26.1121 543.522 26.1121 Q547.654 26.1121 551.3 26.7198 Q554.946 27.3274 558.025 28.5427 Z" fill="#000000" fill-rule="nonzero" fill-opacity="1" /><path clip-path="url(#clip930)" d="M579.697 14.324 L579.697 27.2059 L595.05 27.2059 L595.05 32.9987 L579.697 32.9987 L579.697 57.6282 Q579.697 63.1779 581.196 64.7578 Q582.735 66.3376 587.394 66.3376 L595.05 66.3376 L595.05 72.576 L587.394 72.576 Q578.765 72.576 575.484 69.3758 Q572.203 66.1351 572.203 57.6282 L572.203 32.9987 L566.734 32.9987 L566.734 27.2059 L572.203 27.2059 L572.203 14.324 L579.697 14.324 Z" fill="#000000" fill-rule="nonzero" fill-opacity="1" /><path clip-path="url(#clip930)" d="M638.435 65.7705 L638.435 89.8329 L630.941 89.8329 L630.941 27.2059 L638.435 27.2059 L638.435 34.0924 Q640.785 30.0415 644.35 28.0971 Q647.955 26.1121 652.937 26.1121 Q661.201 26.1121 666.346 32.6746 Q671.531 39.2371 671.531 49.9314 Q671.531 60.6258 666.346 67.1883 Q661.201 73.7508 652.937 73.7508 Q647.955 73.7508 644.35 71.8063 Q640.785 69.8214 638.435 65.7705 M663.794 49.9314 Q663.794 41.7081 660.391 37.0496 Q657.029 32.3505 651.115 32.3505 Q645.2 32.3505 641.797 37.0496 Q638.435 41.7081 638.435 49.9314 Q638.435 58.1548 641.797 62.8538 Q645.2 67.5124 651.115 67.5124 Q657.029 67.5124 660.391 62.8538 Q663.794 58.1548 663.794 49.9314 Z" fill="#000000" fill-rule="nonzero" fill-opacity="1" /><path clip-path="url(#clip930)" d="M683.886 9.54393 L691.34 9.54393 L691.34 72.576 L683.886 72.576 L683.886 9.54393 Z" fill="#000000" fill-rule="nonzero" fill-opacity="1" /><path clip-path="url(#clip930)" d="M724.517 32.4315 Q718.522 32.4315 715.038 37.1306 Q711.554 41.7891 711.554 49.9314 Q711.554 58.0738 714.997 62.7728 Q718.481 67.4314 724.517 67.4314 Q730.472 67.4314 733.956 62.7323 Q737.439 58.0333 737.439 49.9314 Q737.439 41.8701 733.956 37.1711 Q730.472 32.4315 724.517 32.4315 M724.517 26.1121 Q734.239 26.1121 739.789 32.4315 Q745.339 38.7509 745.339 49.9314 Q745.339 61.0714 739.789 67.4314 Q734.239 73.7508 724.517 73.7508 Q714.754 73.7508 709.204 67.4314 Q703.695 61.0714 703.695 49.9314 Q703.695 38.7509 709.204 32.4315 Q714.754 26.1121 724.517 26.1121 Z" fill="#000000" fill-rule="nonzero" fill-opacity="1" /><path clip-path="url(#clip930)" d="M765.066 14.324 L765.066 27.2059 L780.419 27.2059 L780.419 32.9987 L765.066 32.9987 L765.066 57.6282 Q765.066 63.1779 766.565 64.7578 Q768.105 66.3376 772.763 66.3376 L780.419 66.3376 L780.419 72.576 L772.763 72.576 Q764.135 72.576 760.854 69.3758 Q757.572 66.1351 757.572 57.6282 L757.572 32.9987 L752.104 32.9987 L752.104 27.2059 L757.572 27.2059 L757.572 14.324 L765.066 14.324 Z" fill="#000000" fill-rule="nonzero" fill-opacity="1" /><path clip-path="url(#clip930)" d="M839.563 9.54393 L839.563 15.7418 L832.433 15.7418 Q828.423 15.7418 826.843 17.3622 Q825.303 18.9825 825.303 23.1955 L825.303 27.2059 L837.578 27.2059 L837.578 32.9987 L825.303 32.9987 L825.303 72.576 L817.809 72.576 L817.809 32.9987 L810.68 32.9987 L810.68 27.2059 L817.809 27.2059 L817.809 24.0462 Q817.809 16.471 821.334 13.0277 Q824.858 9.54393 832.514 9.54393 L839.563 9.54393 Z" fill="#000000" fill-rule="nonzero" fill-opacity="1" /><path clip-path="url(#clip930)" d="M872.091 34.1734 Q870.836 33.4443 869.337 33.1202 Q867.878 32.7556 866.096 32.7556 Q859.777 32.7556 856.374 36.8875 Q853.012 40.9789 853.012 48.6757 L853.012 72.576 L845.517 72.576 L845.517 27.2059 L853.012 27.2059 L853.012 34.2544 Q855.361 30.1225 859.128 28.1376 Q862.896 26.1121 868.283 26.1121 Q869.053 26.1121 869.985 26.2337 Q870.917 26.3147 872.051 26.5172 L872.091 34.1734 Z" fill="#000000" fill-rule="nonzero" fill-opacity="1" /><path clip-path="url(#clip930)" d="M895.668 32.4315 Q889.672 32.4315 886.188 37.1306 Q882.705 41.7891 882.705 49.9314 Q882.705 58.0738 886.148 62.7728 Q889.632 67.4314 895.668 67.4314 Q901.622 67.4314 905.106 62.7323 Q908.59 58.0333 908.59 49.9314 Q908.59 41.8701 905.106 37.1711 Q901.622 32.4315 895.668 32.4315 M895.668 26.1121 Q905.39 26.1121 910.94 32.4315 Q916.489 38.7509 916.489 49.9314 Q916.489 61.0714 910.94 67.4314 Q905.39 73.7508 895.668 73.7508 Q885.905 73.7508 880.355 67.4314 Q874.846 61.0714 874.846 49.9314 Q874.846 38.7509 880.355 32.4315 Q885.905 26.1121 895.668 26.1121 Z" fill="#000000" fill-rule="nonzero" fill-opacity="1" /><path clip-path="url(#clip930)" d="M964.168 35.9153 Q966.964 30.8922 970.852 28.5022 Q974.741 26.1121 980.007 26.1121 Q987.097 26.1121 990.945 31.0947 Q994.793 36.0368 994.793 45.1919 L994.793 72.576 L987.299 72.576 L987.299 45.4349 Q987.299 38.913 984.99 35.7533 Q982.681 32.5936 977.941 32.5936 Q972.149 32.5936 968.786 36.4419 Q965.424 40.2903 965.424 46.9338 L965.424 72.576 L957.93 72.576 L957.93 45.4349 Q957.93 38.8725 955.621 35.7533 Q953.312 32.5936 948.491 32.5936 Q942.78 32.5936 939.417 36.4824 Q936.055 40.3308 936.055 46.9338 L936.055 72.576 L928.561 72.576 L928.561 27.2059 L936.055 27.2059 L936.055 34.2544 Q938.607 30.082 942.172 28.0971 Q945.737 26.1121 950.638 26.1121 Q955.58 26.1121 959.024 28.6237 Q962.508 31.1352 964.168 35.9153 Z" fill="#000000" fill-rule="nonzero" fill-opacity="1" /><path clip-path="url(#clip930)" d="M1011.56 62.2867 L1020.11 62.2867 L1020.11 72.576 L1011.56 72.576 L1011.56 62.2867 M1011.56 29.6769 L1020.11 29.6769 L1020.11 39.9662 L1011.56 39.9662 L1011.56 29.6769 Z" fill="#000000" fill-rule="nonzero" fill-opacity="1" /><path clip-path="url(#clip930)" d="M1063.21 54.671 L1063.21 27.2059 L1070.67 27.2059 L1070.67 54.3874 Q1070.67 60.8284 1073.18 64.0691 Q1075.69 67.2693 1080.71 67.2693 Q1086.75 67.2693 1090.23 63.421 Q1093.76 59.5726 1093.76 52.9291 L1093.76 27.2059 L1101.21 27.2059 L1101.21 72.576 L1093.76 72.576 L1093.76 65.6084 Q1091.04 69.7404 1087.44 71.7658 Q1083.87 73.7508 1079.13 73.7508 Q1071.31 73.7508 1067.26 68.8897 Q1063.21 64.0286 1063.21 54.671 M1081.97 26.1121 L1081.97 26.1121 Z" fill="#000000" fill-rule="nonzero" fill-opacity="1" /><polyline clip-path="url(#clip932)" style="stroke:#009af9; stroke-linecap:round; stroke-linejoin:round; stroke-width:4; stroke-opacity:1; fill:none" points="518.519,1423.18 518.518,1376.5 518.517,1331.58 518.516,1288.35 518.516,1246.77 518.514,1206.75 518.513,1168.24 518.512,1131.19 518.511,1095.54 518.509,1061.24 518.508,1028.23 518.506,996.469 518.504,965.908 518.502,936.501 518.5,908.205 518.498,880.978 518.496,854.779 518.493,829.57 518.49,805.313 518.487,781.972 518.484,759.512 518.48,737.9 518.476,717.104 518.472,697.094 518.468,677.838 518.463,659.31 518.457,641.48 518.452,624.324 518.446,607.814 518.439,591.928 518.432,576.641 518.424,561.93 518.416,547.774 518.407,534.151 518.397,521.042 518.386,508.428 518.375,496.288 518.362,484.605 518.349,473.363 518.335,462.543 518.319,452.131 518.302,442.11 518.284,432.466 518.265,423.185 518.244,414.252 518.221,405.655 518.196,397.38 518.169,389.416 518.141,381.75 518.109,374.371 518.076,367.268 518.04,360.431 518,353.85 517.958,347.514 517.912,341.414 517.863,335.542 517.809,329.888 517.752,324.444 517.689,319.202 517.622,314.154 517.549,309.293 517.471,304.611 517.386,300.101 517.294,295.757 517.195,291.572 517.087,287.541 516.972,283.656 516.847,279.912 516.711,276.303 516.565,272.824 516.407,269.471 516.237,266.236 516.052,263.117 515.853,260.107 515.638,257.203 515.405,254.4 515.153,251.694 514.881,249.079 514.587,246.553 514.269,244.112 513.926,241.75 513.554,239.465 513.153,237.253 512.719,235.109 512.25,233.031 511.743,231.014 511.196,229.055 510.604,227.15 509.964,225.296 509.274,223.489 508.528,221.724 507.724,219.997 506.856,218.305 505.921,216.644 504.914,215.007 503.832,213.39 502.67,211.788 501.426,210.195 500.098,208.603 498.685,207.005 497.189,205.392 495.617,203.755 493.981,202.081 492.301,200.358 490.609,198.569 488.956,196.697 487.417,194.719 486.108,192.61 485.197,190.342 484.934,187.881 485.68,185.193 487.959,182.247 492.508,179.02 500.334,175.515 512.735,171.791 531.209,167.997 557.138,164.423 591.1,161.523 631.913,159.863 675.938,159.929 717.622,161.874 751.516,165.368 774.497,169.731 786.49,174.243 789.539,178.381 786.385,181.886 779.496,184.698 770.704,186.866 761.222,188.488 751.783,189.665 742.802,190.489 734.488,191.036 726.93,191.369 720.149,191.534 714.13,191.569 708.839,191.503 704.237,191.359 700.281,191.155 696.932,190.906 694.153,190.625 691.91,190.321 690.173,190.005 688.91,189.684 688.091,189.367 687.684,189.061 687.656,188.773 687.969,188.509 688.58,188.276 689.439,188.079 690.493,187.922 691.68,187.809 692.934,187.742 694.185,187.721 695.363,187.744 696.399,187.805 697.232,187.899 697.813,188.016 698.11,188.146 698.115,188.275 697.843,188.391 697.341,188.483 696.68,188.542 695.952,188.561 695.262,188.54 694.712,188.485 694.382,188.407 694.32,188.32 694.523,188.241 694.935,188.188 695.451,188.17 695.941,188.189 696.275,188.24 696.366,188.305 696.199,188.363 695.844,188.397 695.44,188.393 695.147,188.357 695.083,188.305 695.264,188.262 695.587,188.248 695.872,188.269 695.96,188.311 695.808,188.347 695.533,188.353 695.337,188.328 695.365,188.292 695.578,188.276 695.776,188.292 695.772,188.323 695.587,188.336 695.436,188.319 695.491,188.294 695.664,188.293 695.717,188.315 695.587,188.327 695.489,188.311 695.575,188.297 695.676,188.307 695.611,188.321 695.526,188.311 695.593,188.301 695.645,188.312 695.572,188.316 695.568,188.306 695.624,188.309 695.588,188.313 695.58,188.308 695.606,188.31 695.59,188.311 695.593,188.31 "/>
<line clip-path="url(#clip932)" x1="263.728" y1="188.31" x2="243.728" y2="168.31" style="stroke:#ff0000; stroke-width:4; stroke-opacity:1"/>
<line clip-path="url(#clip932)" x1="263.728" y1="188.31" x2="243.728" y2="208.31" style="stroke:#ff0000; stroke-width:4; stroke-opacity:1"/>
<line clip-path="url(#clip932)" x1="263.728" y1="188.31" x2="283.728" y2="208.31" style="stroke:#ff0000; stroke-width:4; stroke-opacity:1"/>
<line clip-path="url(#clip932)" x1="263.728" y1="188.31" x2="283.728" y2="168.31" style="stroke:#ff0000; stroke-width:4; stroke-opacity:1"/>
<path clip-path="url(#clip930)" d="M975.7 270.476 L1118.82 270.476 L1118.82 166.796 L975.7 166.796  Z" fill="#ffffff" fill-rule="evenodd" fill-opacity="1"/>
<polyline clip-path="url(#clip930)" style="stroke:#000000; stroke-linecap:round; stroke-linejoin:round; stroke-width:4; stroke-opacity:1; fill:none" points="975.7,270.476 1118.82,270.476 1118.82,166.796 975.7,166.796 975.7,270.476 "/>
<polyline clip-path="url(#clip930)" style="stroke:#009af9; stroke-linecap:round; stroke-linejoin:round; stroke-width:4; stroke-opacity:1; fill:none" points="985.776,218.636 1046.24,218.636 "/>
<path clip-path="url(#clip930)" d="M1070.16 238.323 Q1068.35 242.953 1066.64 244.365 Q1064.93 245.777 1062.06 245.777 L1058.65 245.777 L1058.65 242.212 L1061.15 242.212 Q1062.91 242.212 1063.88 241.379 Q1064.86 240.545 1066.04 237.443 L1066.8 235.499 L1056.31 209.99 L1060.83 209.99 L1068.93 230.268 L1077.03 209.99 L1081.55 209.99 L1070.16 238.323 Z" fill="#000000" fill-rule="nonzero" fill-opacity="1" /><path clip-path="url(#clip930)" d="M1088.84 231.981 L1096.48 231.981 L1096.48 205.615 L1088.17 207.282 L1088.17 203.022 L1096.43 201.356 L1101.11 201.356 L1101.11 231.981 L1108.74 231.981 L1108.74 235.916 L1088.84 235.916 L1088.84 231.981 Z" fill="#000000" fill-rule="nonzero" fill-opacity="1" /><path clip-path="url(#clip930)" d="M1445.84 1423.18 L2352.76 1423.18 L2352.76 123.472 L1445.84 123.472  Z" fill="#ffffff" fill-rule="evenodd" fill-opacity="1"/>
<defs>
  <clipPath id="clip933">
    <rect x="1445" y="123" width="908" height="1301"/>
  </clipPath>
</defs>
<polyline clip-path="url(#clip933)" style="stroke:#000000; stroke-linecap:round; stroke-linejoin:round; stroke-width:2; stroke-opacity:0.1; fill:none" points="1471.51,1423.18 1471.51,123.472 "/>
<polyline clip-path="url(#clip933)" style="stroke:#000000; stroke-linecap:round; stroke-linejoin:round; stroke-width:2; stroke-opacity:0.1; fill:none" points="1642.62,1423.18 1642.62,123.472 "/>
<polyline clip-path="url(#clip933)" style="stroke:#000000; stroke-linecap:round; stroke-linejoin:round; stroke-width:2; stroke-opacity:0.1; fill:none" points="1813.74,1423.18 1813.74,123.472 "/>
<polyline clip-path="url(#clip933)" style="stroke:#000000; stroke-linecap:round; stroke-linejoin:round; stroke-width:2; stroke-opacity:0.1; fill:none" points="1984.86,1423.18 1984.86,123.472 "/>
<polyline clip-path="url(#clip933)" style="stroke:#000000; stroke-linecap:round; stroke-linejoin:round; stroke-width:2; stroke-opacity:0.1; fill:none" points="2155.97,1423.18 2155.97,123.472 "/>
<polyline clip-path="url(#clip933)" style="stroke:#000000; stroke-linecap:round; stroke-linejoin:round; stroke-width:2; stroke-opacity:0.1; fill:none" points="2327.09,1423.18 2327.09,123.472 "/>
<polyline clip-path="url(#clip930)" style="stroke:#000000; stroke-linecap:round; stroke-linejoin:round; stroke-width:4; stroke-opacity:1; fill:none" points="1445.84,1423.18 2352.76,1423.18 "/>
<polyline clip-path="url(#clip930)" style="stroke:#000000; stroke-linecap:round; stroke-linejoin:round; stroke-width:4; stroke-opacity:1; fill:none" points="1471.51,1423.18 1471.51,1404.28 "/>
<polyline clip-path="url(#clip930)" style="stroke:#000000; stroke-linecap:round; stroke-linejoin:round; stroke-width:4; stroke-opacity:1; fill:none" points="1642.62,1423.18 1642.62,1404.28 "/>
<polyline clip-path="url(#clip930)" style="stroke:#000000; stroke-linecap:round; stroke-linejoin:round; stroke-width:4; stroke-opacity:1; fill:none" points="1813.74,1423.18 1813.74,1404.28 "/>
<polyline clip-path="url(#clip930)" style="stroke:#000000; stroke-linecap:round; stroke-linejoin:round; stroke-width:4; stroke-opacity:1; fill:none" points="1984.86,1423.18 1984.86,1404.28 "/>
<polyline clip-path="url(#clip930)" style="stroke:#000000; stroke-linecap:round; stroke-linejoin:round; stroke-width:4; stroke-opacity:1; fill:none" points="2155.97,1423.18 2155.97,1404.28 "/>
<polyline clip-path="url(#clip930)" style="stroke:#000000; stroke-linecap:round; stroke-linejoin:round; stroke-width:4; stroke-opacity:1; fill:none" points="2327.09,1423.18 2327.09,1404.28 "/>
<path clip-path="url(#clip930)" d="M1471.51 1454.1 Q1467.89 1454.1 1466.07 1457.66 Q1464.26 1461.2 1464.26 1468.33 Q1464.26 1475.44 1466.07 1479.01 Q1467.89 1482.55 1471.51 1482.55 Q1475.14 1482.55 1476.95 1479.01 Q1478.77 1475.44 1478.77 1468.33 Q1478.77 1461.2 1476.95 1457.66 Q1475.14 1454.1 1471.51 1454.1 M1471.51 1450.39 Q1477.32 1450.39 1480.37 1455 Q1483.45 1459.58 1483.45 1468.33 Q1483.45 1477.06 1480.37 1481.67 Q1477.32 1486.25 1471.51 1486.25 Q1465.7 1486.25 1462.62 1481.67 Q1459.56 1477.06 1459.56 1468.33 Q1459.56 1459.58 1462.62 1455 Q1465.7 1450.39 1471.51 1450.39 Z" fill="#000000" fill-rule="nonzero" fill-opacity="1" /><path clip-path="url(#clip930)" d="M1617.31 1481.64 L1624.95 1481.64 L1624.95 1455.28 L1616.64 1456.95 L1616.64 1452.69 L1624.9 1451.02 L1629.58 1451.02 L1629.58 1481.64 L1637.22 1481.64 L1637.22 1485.58 L1617.31 1485.58 L1617.31 1481.64 Z" fill="#000000" fill-rule="nonzero" fill-opacity="1" /><path clip-path="url(#clip930)" d="M1656.66 1454.1 Q1653.05 1454.1 1651.22 1457.66 Q1649.42 1461.2 1649.42 1468.33 Q1649.42 1475.44 1651.22 1479.01 Q1653.05 1482.55 1656.66 1482.55 Q1660.3 1482.55 1662.1 1479.01 Q1663.93 1475.44 1663.93 1468.33 Q1663.93 1461.2 1662.1 1457.66 Q1660.3 1454.1 1656.66 1454.1 M1656.66 1450.39 Q1662.47 1450.39 1665.53 1455 Q1668.61 1459.58 1668.61 1468.33 Q1668.61 1477.06 1665.53 1481.67 Q1662.47 1486.25 1656.66 1486.25 Q1650.85 1486.25 1647.77 1481.67 Q1644.72 1477.06 1644.72 1468.33 Q1644.72 1459.58 1647.77 1455 Q1650.85 1450.39 1656.66 1450.39 Z" fill="#000000" fill-rule="nonzero" fill-opacity="1" /><path clip-path="url(#clip930)" d="M1792.51 1481.64 L1808.83 1481.64 L1808.83 1485.58 L1786.89 1485.58 L1786.89 1481.64 Q1789.55 1478.89 1794.13 1474.26 Q1798.74 1469.61 1799.92 1468.27 Q1802.16 1465.74 1803.04 1464.01 Q1803.95 1462.25 1803.95 1460.56 Q1803.95 1457.8 1802 1456.07 Q1800.08 1454.33 1796.98 1454.33 Q1794.78 1454.33 1792.33 1455.09 Q1789.9 1455.86 1787.12 1457.41 L1787.12 1452.69 Q1789.94 1451.55 1792.4 1450.97 Q1794.85 1450.39 1796.89 1450.39 Q1802.26 1450.39 1805.45 1453.08 Q1808.65 1455.77 1808.65 1460.26 Q1808.65 1462.39 1807.84 1464.31 Q1807.05 1466.2 1804.94 1468.8 Q1804.36 1469.47 1801.26 1472.69 Q1798.16 1475.88 1792.51 1481.64 Z" fill="#000000" fill-rule="nonzero" fill-opacity="1" /><path clip-path="url(#clip930)" d="M1828.65 1454.1 Q1825.04 1454.1 1823.21 1457.66 Q1821.4 1461.2 1821.4 1468.33 Q1821.4 1475.44 1823.21 1479.01 Q1825.04 1482.55 1828.65 1482.55 Q1832.28 1482.55 1834.09 1479.01 Q1835.91 1475.44 1835.91 1468.33 Q1835.91 1461.2 1834.09 1457.66 Q1832.28 1454.1 1828.65 1454.1 M1828.65 1450.39 Q1834.46 1450.39 1837.51 1455 Q1840.59 1459.58 1840.59 1468.33 Q1840.59 1477.06 1837.51 1481.67 Q1834.46 1486.25 1828.65 1486.25 Q1822.84 1486.25 1819.76 1481.67 Q1816.7 1477.06 1816.7 1468.33 Q1816.7 1459.58 1819.76 1455 Q1822.84 1450.39 1828.65 1450.39 Z" fill="#000000" fill-rule="nonzero" fill-opacity="1" /><path clip-path="url(#clip930)" d="M1973.7 1466.95 Q1977.05 1467.66 1978.93 1469.93 Q1980.83 1472.2 1980.83 1475.53 Q1980.83 1480.65 1977.31 1483.45 Q1973.79 1486.25 1967.31 1486.25 Q1965.13 1486.25 1962.82 1485.81 Q1960.53 1485.39 1958.07 1484.54 L1958.07 1480.02 Q1960.02 1481.16 1962.33 1481.74 Q1964.65 1482.32 1967.17 1482.32 Q1971.57 1482.32 1973.86 1480.58 Q1976.17 1478.84 1976.17 1475.53 Q1976.17 1472.48 1974.02 1470.77 Q1971.89 1469.03 1968.07 1469.03 L1964.05 1469.03 L1964.05 1465.19 L1968.26 1465.19 Q1971.71 1465.19 1973.54 1463.82 Q1975.36 1462.43 1975.36 1459.84 Q1975.36 1457.18 1973.47 1455.77 Q1971.59 1454.33 1968.07 1454.33 Q1966.15 1454.33 1963.95 1454.75 Q1961.75 1455.16 1959.11 1456.04 L1959.11 1451.88 Q1961.78 1451.14 1964.09 1450.77 Q1966.43 1450.39 1968.49 1450.39 Q1973.81 1450.39 1976.92 1452.83 Q1980.02 1455.23 1980.02 1459.35 Q1980.02 1462.22 1978.37 1464.21 Q1976.73 1466.18 1973.7 1466.95 Z" fill="#000000" fill-rule="nonzero" fill-opacity="1" /><path clip-path="url(#clip930)" d="M1999.69 1454.1 Q1996.08 1454.1 1994.25 1457.66 Q1992.45 1461.2 1992.45 1468.33 Q1992.45 1475.44 1994.25 1479.01 Q1996.08 1482.55 1999.69 1482.55 Q2003.33 1482.55 2005.13 1479.01 Q2006.96 1475.44 2006.96 1468.33 Q2006.96 1461.2 2005.13 1457.66 Q2003.33 1454.1 1999.69 1454.1 M1999.69 1450.39 Q2005.5 1450.39 2008.56 1455 Q2011.64 1459.58 2011.64 1468.33 Q2011.64 1477.06 2008.56 1481.67 Q2005.5 1486.25 1999.69 1486.25 Q1993.88 1486.25 1990.8 1481.67 Q1987.75 1477.06 1987.75 1468.33 Q1987.75 1459.58 1990.8 1455 Q1993.88 1450.39 1999.69 1450.39 Z" fill="#000000" fill-rule="nonzero" fill-opacity="1" /><path clip-path="url(#clip930)" d="M2144.14 1455.09 L2132.34 1473.54 L2144.14 1473.54 L2144.14 1455.09 M2142.92 1451.02 L2148.8 1451.02 L2148.8 1473.54 L2153.73 1473.54 L2153.73 1477.43 L2148.8 1477.43 L2148.8 1485.58 L2144.14 1485.58 L2144.14 1477.43 L2128.54 1477.43 L2128.54 1472.92 L2142.92 1451.02 Z" fill="#000000" fill-rule="nonzero" fill-opacity="1" /><path clip-path="url(#clip930)" d="M2171.46 1454.1 Q2167.85 1454.1 2166.02 1457.66 Q2164.21 1461.2 2164.21 1468.33 Q2164.21 1475.44 2166.02 1479.01 Q2167.85 1482.55 2171.46 1482.55 Q2175.09 1482.55 2176.9 1479.01 Q2178.73 1475.44 2178.73 1468.33 Q2178.73 1461.2 2176.9 1457.66 Q2175.09 1454.1 2171.46 1454.1 M2171.46 1450.39 Q2177.27 1450.39 2180.32 1455 Q2183.4 1459.58 2183.4 1468.33 Q2183.4 1477.06 2180.32 1481.67 Q2177.27 1486.25 2171.46 1486.25 Q2165.65 1486.25 2162.57 1481.67 Q2159.51 1477.06 2159.51 1468.33 Q2159.51 1459.58 2162.57 1455 Q2165.65 1450.39 2171.46 1450.39 Z" fill="#000000" fill-rule="nonzero" fill-opacity="1" /><path clip-path="url(#clip930)" d="M2301.79 1451.02 L2320.14 1451.02 L2320.14 1454.96 L2306.07 1454.96 L2306.07 1463.43 Q2307.09 1463.08 2308.11 1462.92 Q2309.13 1462.73 2310.14 1462.73 Q2315.93 1462.73 2319.31 1465.9 Q2322.69 1469.08 2322.69 1474.49 Q2322.69 1480.07 2319.22 1483.17 Q2315.75 1486.25 2309.43 1486.25 Q2307.25 1486.25 2304.98 1485.88 Q2302.74 1485.51 2300.33 1484.77 L2300.33 1480.07 Q2302.41 1481.2 2304.63 1481.76 Q2306.86 1482.32 2309.33 1482.32 Q2313.34 1482.32 2315.68 1480.21 Q2318.01 1478.1 2318.01 1474.49 Q2318.01 1470.88 2315.68 1468.77 Q2313.34 1466.67 2309.33 1466.67 Q2307.46 1466.67 2305.58 1467.08 Q2303.73 1467.5 2301.79 1468.38 L2301.79 1451.02 Z" fill="#000000" fill-rule="nonzero" fill-opacity="1" /><path clip-path="url(#clip930)" d="M2341.9 1454.1 Q2338.29 1454.1 2336.46 1457.66 Q2334.66 1461.2 2334.66 1468.33 Q2334.66 1475.44 2336.46 1479.01 Q2338.29 1482.55 2341.9 1482.55 Q2345.54 1482.55 2347.34 1479.01 Q2349.17 1475.44 2349.17 1468.33 Q2349.17 1461.2 2347.34 1457.66 Q2345.54 1454.1 2341.9 1454.1 M2341.9 1450.39 Q2347.71 1450.39 2350.77 1455 Q2353.85 1459.58 2353.85 1468.33 Q2353.85 1477.06 2350.77 1481.67 Q2347.71 1486.25 2341.9 1486.25 Q2336.09 1486.25 2333.01 1481.67 Q2329.96 1477.06 2329.96 1468.33 Q2329.96 1459.58 2333.01 1455 Q2336.09 1450.39 2341.9 1450.39 Z" fill="#000000" fill-rule="nonzero" fill-opacity="1" /><path clip-path="url(#clip930)" d="M1769.47 1520.52 L1809.67 1520.52 L1809.67 1525.93 L1792.8 1525.93 L1792.8 1568.04 L1786.34 1568.04 L1786.34 1525.93 L1769.47 1525.93 L1769.47 1520.52 Z" fill="#000000" fill-rule="nonzero" fill-opacity="1" /><path clip-path="url(#clip930)" d="M1813.61 1532.4 L1819.47 1532.4 L1819.47 1568.04 L1813.61 1568.04 L1813.61 1532.4 M1813.61 1518.52 L1819.47 1518.52 L1819.47 1525.93 L1813.61 1525.93 L1813.61 1518.52 Z" fill="#000000" fill-rule="nonzero" fill-opacity="1" /><path clip-path="url(#clip930)" d="M1859.48 1539.24 Q1861.68 1535.29 1864.73 1533.41 Q1867.79 1531.54 1871.92 1531.54 Q1877.49 1531.54 1880.52 1535.45 Q1883.54 1539.33 1883.54 1546.53 L1883.54 1568.04 L1877.65 1568.04 L1877.65 1546.72 Q1877.65 1541.59 1875.84 1539.11 Q1874.03 1536.63 1870.3 1536.63 Q1865.75 1536.63 1863.11 1539.65 Q1860.47 1542.68 1860.47 1547.9 L1860.47 1568.04 L1854.58 1568.04 L1854.58 1546.72 Q1854.58 1541.56 1852.76 1539.11 Q1850.95 1536.63 1847.16 1536.63 Q1842.67 1536.63 1840.03 1539.68 Q1837.39 1542.71 1837.39 1547.9 L1837.39 1568.04 L1831.5 1568.04 L1831.5 1532.4 L1837.39 1532.4 L1837.39 1537.93 Q1839.4 1534.66 1842.2 1533.1 Q1845 1531.54 1848.85 1531.54 Q1852.73 1531.54 1855.44 1533.51 Q1858.17 1535.48 1859.48 1539.24 Z" fill="#000000" fill-rule="nonzero" fill-opacity="1" /><path clip-path="url(#clip930)" d="M1925.71 1548.76 L1925.71 1551.62 L1898.79 1551.62 Q1899.17 1557.67 1902.42 1560.85 Q1905.69 1564 1911.52 1564 Q1914.89 1564 1918.04 1563.17 Q1921.23 1562.35 1924.35 1560.69 L1924.35 1566.23 Q1921.2 1567.57 1917.88 1568.27 Q1914.57 1568.97 1911.17 1568.97 Q1902.64 1568.97 1897.64 1564 Q1892.68 1559.04 1892.68 1550.57 Q1892.68 1541.82 1897.39 1536.69 Q1902.13 1531.54 1910.15 1531.54 Q1917.34 1531.54 1921.51 1536.18 Q1925.71 1540.8 1925.71 1548.76 M1919.86 1547.04 Q1919.79 1542.23 1917.15 1539.37 Q1914.54 1536.5 1910.21 1536.5 Q1905.31 1536.5 1902.35 1539.27 Q1899.42 1542.04 1898.98 1547.07 L1919.86 1547.04 Z" fill="#000000" fill-rule="nonzero" fill-opacity="1" /><path clip-path="url(#clip930)" d="M1970.12 1518.58 Q1965.85 1525.9 1963.78 1533.06 Q1961.71 1540.23 1961.71 1547.58 Q1961.71 1554.93 1963.78 1562.16 Q1965.88 1569.35 1970.12 1576.64 L1965.02 1576.64 Q1960.25 1569.16 1957.86 1561.93 Q1955.51 1554.71 1955.51 1547.58 Q1955.51 1540.48 1957.86 1533.29 Q1960.22 1526.09 1965.02 1518.58 L1970.12 1518.58 Z" fill="#000000" fill-rule="nonzero" fill-opacity="1" /><path clip-path="url(#clip930)" d="M2004.2 1533.45 L2004.2 1538.98 Q2001.72 1537.71 1999.05 1537.07 Q1996.37 1536.44 1993.51 1536.44 Q1989.15 1536.44 1986.95 1537.77 Q1984.79 1539.11 1984.79 1541.79 Q1984.79 1543.82 1986.35 1545 Q1987.91 1546.15 1992.62 1547.2 L1994.62 1547.64 Q2000.86 1548.98 2003.47 1551.43 Q2006.11 1553.85 2006.11 1558.21 Q2006.11 1563.17 2002.17 1566.07 Q1998.25 1568.97 1991.38 1568.97 Q1988.51 1568.97 1985.39 1568.39 Q1982.31 1567.85 1978.87 1566.74 L1978.87 1560.69 Q1982.11 1562.38 1985.27 1563.24 Q1988.42 1564.07 1991.5 1564.07 Q1995.64 1564.07 1997.87 1562.66 Q2000.1 1561.23 2000.1 1558.65 Q2000.1 1556.27 1998.47 1554.99 Q1996.88 1553.72 1991.44 1552.54 L1989.4 1552.07 Q1983.96 1550.92 1981.54 1548.56 Q1979.12 1546.18 1979.12 1542.04 Q1979.12 1537.01 1982.69 1534.27 Q1986.25 1531.54 1992.81 1531.54 Q1996.06 1531.54 1998.92 1532.01 Q2001.79 1532.49 2004.2 1533.45 Z" fill="#000000" fill-rule="nonzero" fill-opacity="1" /><path clip-path="url(#clip930)" d="M2014.52 1518.58 L2019.61 1518.58 Q2024.38 1526.09 2026.74 1533.29 Q2029.13 1540.48 2029.13 1547.58 Q2029.13 1554.71 2026.74 1561.93 Q2024.38 1569.16 2019.61 1576.64 L2014.52 1576.64 Q2018.75 1569.35 2020.82 1562.16 Q2022.92 1554.93 2022.92 1547.58 Q2022.92 1540.23 2020.82 1533.06 Q2018.75 1525.9 2014.52 1518.58 Z" fill="#000000" fill-rule="nonzero" fill-opacity="1" /><polyline clip-path="url(#clip933)" style="stroke:#000000; stroke-linecap:round; stroke-linejoin:round; stroke-width:2; stroke-opacity:0.1; fill:none" points="1445.84,1386.4 2352.76,1386.4 "/>
<polyline clip-path="url(#clip933)" style="stroke:#000000; stroke-linecap:round; stroke-linejoin:round; stroke-width:2; stroke-opacity:0.1; fill:none" points="1445.84,1091.93 2352.76,1091.93 "/>
<polyline clip-path="url(#clip933)" style="stroke:#000000; stroke-linecap:round; stroke-linejoin:round; stroke-width:2; stroke-opacity:0.1; fill:none" points="1445.84,797.46 2352.76,797.46 "/>
<polyline clip-path="url(#clip933)" style="stroke:#000000; stroke-linecap:round; stroke-linejoin:round; stroke-width:2; stroke-opacity:0.1; fill:none" points="1445.84,502.992 2352.76,502.992 "/>
<polyline clip-path="url(#clip933)" style="stroke:#000000; stroke-linecap:round; stroke-linejoin:round; stroke-width:2; stroke-opacity:0.1; fill:none" points="1445.84,208.524 2352.76,208.524 "/>
<polyline clip-path="url(#clip930)" style="stroke:#000000; stroke-linecap:round; stroke-linejoin:round; stroke-width:4; stroke-opacity:1; fill:none" points="1445.84,1423.18 1445.84,123.472 "/>
<polyline clip-path="url(#clip930)" style="stroke:#000000; stroke-linecap:round; stroke-linejoin:round; stroke-width:4; stroke-opacity:1; fill:none" points="1445.84,1386.4 1464.74,1386.4 "/>
<polyline clip-path="url(#clip930)" style="stroke:#000000; stroke-linecap:round; stroke-linejoin:round; stroke-width:4; stroke-opacity:1; fill:none" points="1445.84,1091.93 1464.74,1091.93 "/>
<polyline clip-path="url(#clip930)" style="stroke:#000000; stroke-linecap:round; stroke-linejoin:round; stroke-width:4; stroke-opacity:1; fill:none" points="1445.84,797.46 1464.74,797.46 "/>
<polyline clip-path="url(#clip930)" style="stroke:#000000; stroke-linecap:round; stroke-linejoin:round; stroke-width:4; stroke-opacity:1; fill:none" points="1445.84,502.992 1464.74,502.992 "/>
<polyline clip-path="url(#clip930)" style="stroke:#000000; stroke-linecap:round; stroke-linejoin:round; stroke-width:4; stroke-opacity:1; fill:none" points="1445.84,208.524 1464.74,208.524 "/>
<path clip-path="url(#clip930)" d="M1322.5 1372.19 Q1318.89 1372.19 1317.06 1375.76 Q1315.26 1379.3 1315.26 1386.43 Q1315.26 1393.54 1317.06 1397.1 Q1318.89 1400.64 1322.5 1400.64 Q1326.14 1400.64 1327.94 1397.1 Q1329.77 1393.54 1329.77 1386.43 Q1329.77 1379.3 1327.94 1375.76 Q1326.14 1372.19 1322.5 1372.19 M1322.5 1368.49 Q1328.31 1368.49 1331.37 1373.1 Q1334.45 1377.68 1334.45 1386.43 Q1334.45 1395.16 1331.37 1399.76 Q1328.31 1404.35 1322.5 1404.35 Q1316.69 1404.35 1313.61 1399.76 Q1310.56 1395.16 1310.56 1386.43 Q1310.56 1377.68 1313.61 1373.1 Q1316.69 1368.49 1322.5 1368.49 Z" fill="#000000" fill-rule="nonzero" fill-opacity="1" /><path clip-path="url(#clip930)" d="M1342.66 1397.8 L1347.55 1397.8 L1347.55 1403.68 L1342.66 1403.68 L1342.66 1397.8 Z" fill="#000000" fill-rule="nonzero" fill-opacity="1" /><path clip-path="url(#clip930)" d="M1367.73 1372.19 Q1364.12 1372.19 1362.29 1375.76 Q1360.49 1379.3 1360.49 1386.43 Q1360.49 1393.54 1362.29 1397.1 Q1364.12 1400.64 1367.73 1400.64 Q1371.37 1400.64 1373.17 1397.1 Q1375 1393.54 1375 1386.43 Q1375 1379.3 1373.17 1375.76 Q1371.37 1372.19 1367.73 1372.19 M1367.73 1368.49 Q1373.54 1368.49 1376.6 1373.1 Q1379.68 1377.68 1379.68 1386.43 Q1379.68 1395.16 1376.6 1399.76 Q1373.54 1404.35 1367.73 1404.35 Q1361.92 1404.35 1358.84 1399.76 Q1355.79 1395.16 1355.79 1386.43 Q1355.79 1377.68 1358.84 1373.1 Q1361.92 1368.49 1367.73 1368.49 Z" fill="#000000" fill-rule="nonzero" fill-opacity="1" /><path clip-path="url(#clip930)" d="M1397.89 1372.19 Q1394.28 1372.19 1392.45 1375.76 Q1390.65 1379.3 1390.65 1386.43 Q1390.65 1393.54 1392.45 1397.1 Q1394.28 1400.64 1397.89 1400.64 Q1401.53 1400.64 1403.33 1397.1 Q1405.16 1393.54 1405.16 1386.43 Q1405.16 1379.3 1403.33 1375.76 Q1401.53 1372.19 1397.89 1372.19 M1397.89 1368.49 Q1403.7 1368.49 1406.76 1373.1 Q1409.84 1377.68 1409.84 1386.43 Q1409.84 1395.16 1406.76 1399.76 Q1403.7 1404.35 1397.89 1404.35 Q1392.08 1404.35 1389.01 1399.76 Q1385.95 1395.16 1385.95 1386.43 Q1385.95 1377.68 1389.01 1373.1 Q1392.08 1368.49 1397.89 1368.49 Z" fill="#000000" fill-rule="nonzero" fill-opacity="1" /><path clip-path="url(#clip930)" d="M1323.5 1077.73 Q1319.89 1077.73 1318.06 1081.29 Q1316.25 1084.83 1316.25 1091.96 Q1316.25 1099.07 1318.06 1102.63 Q1319.89 1106.18 1323.5 1106.18 Q1327.13 1106.18 1328.94 1102.63 Q1330.76 1099.07 1330.76 1091.96 Q1330.76 1084.83 1328.94 1081.29 Q1327.13 1077.73 1323.5 1077.73 M1323.5 1074.02 Q1329.31 1074.02 1332.36 1078.63 Q1335.44 1083.21 1335.44 1091.96 Q1335.44 1100.69 1332.36 1105.3 Q1329.31 1109.88 1323.5 1109.88 Q1317.69 1109.88 1314.61 1105.3 Q1311.55 1100.69 1311.55 1091.96 Q1311.55 1083.21 1314.61 1078.63 Q1317.69 1074.02 1323.5 1074.02 Z" fill="#000000" fill-rule="nonzero" fill-opacity="1" /><path clip-path="url(#clip930)" d="M1343.66 1103.33 L1348.54 1103.33 L1348.54 1109.21 L1343.66 1109.21 L1343.66 1103.33 Z" fill="#000000" fill-rule="nonzero" fill-opacity="1" /><path clip-path="url(#clip930)" d="M1362.76 1105.27 L1379.07 1105.27 L1379.07 1109.21 L1357.13 1109.21 L1357.13 1105.27 Q1359.79 1102.52 1364.38 1097.89 Q1368.98 1093.24 1370.16 1091.89 Q1372.41 1089.37 1373.29 1087.63 Q1374.19 1085.87 1374.19 1084.18 Q1374.19 1081.43 1372.25 1079.69 Q1370.32 1077.96 1367.22 1077.96 Q1365.02 1077.96 1362.57 1078.72 Q1360.14 1079.49 1357.36 1081.04 L1357.36 1076.31 Q1360.19 1075.18 1362.64 1074.6 Q1365.09 1074.02 1367.13 1074.02 Q1372.5 1074.02 1375.7 1076.71 Q1378.89 1079.39 1378.89 1083.88 Q1378.89 1086.01 1378.08 1087.93 Q1377.29 1089.83 1375.19 1092.43 Q1374.61 1093.1 1371.51 1096.31 Q1368.4 1099.51 1362.76 1105.27 Z" fill="#000000" fill-rule="nonzero" fill-opacity="1" /><path clip-path="url(#clip930)" d="M1388.94 1074.65 L1407.29 1074.65 L1407.29 1078.58 L1393.22 1078.58 L1393.22 1087.06 Q1394.24 1086.71 1395.26 1086.55 Q1396.27 1086.36 1397.29 1086.36 Q1403.08 1086.36 1406.46 1089.53 Q1409.84 1092.7 1409.84 1098.12 Q1409.84 1103.7 1406.37 1106.8 Q1402.89 1109.88 1396.57 1109.88 Q1394.4 1109.88 1392.13 1109.51 Q1389.88 1109.14 1387.48 1108.4 L1387.48 1103.7 Q1389.56 1104.83 1391.78 1105.39 Q1394.01 1105.94 1396.48 1105.94 Q1400.49 1105.94 1402.82 1103.84 Q1405.16 1101.73 1405.16 1098.12 Q1405.16 1094.51 1402.82 1092.4 Q1400.49 1090.3 1396.48 1090.3 Q1394.61 1090.3 1392.73 1090.71 Q1390.88 1091.13 1388.94 1092.01 L1388.94 1074.65 Z" fill="#000000" fill-rule="nonzero" fill-opacity="1" /><path clip-path="url(#clip930)" d="M1322.5 783.258 Q1318.89 783.258 1317.06 786.823 Q1315.26 790.365 1315.26 797.494 Q1315.26 804.601 1317.06 808.166 Q1318.89 811.707 1322.5 811.707 Q1326.14 811.707 1327.94 808.166 Q1329.77 804.601 1329.77 797.494 Q1329.77 790.365 1327.94 786.823 Q1326.14 783.258 1322.5 783.258 M1322.5 779.555 Q1328.31 779.555 1331.37 784.161 Q1334.45 788.744 1334.45 797.494 Q1334.45 806.221 1331.37 810.828 Q1328.31 815.411 1322.5 815.411 Q1316.69 815.411 1313.61 810.828 Q1310.56 806.221 1310.56 797.494 Q1310.56 788.744 1313.61 784.161 Q1316.69 779.555 1322.5 779.555 Z" fill="#000000" fill-rule="nonzero" fill-opacity="1" /><path clip-path="url(#clip930)" d="M1342.66 808.86 L1347.55 808.86 L1347.55 814.74 L1342.66 814.74 L1342.66 808.86 Z" fill="#000000" fill-rule="nonzero" fill-opacity="1" /><path clip-path="url(#clip930)" d="M1357.78 780.18 L1376.13 780.18 L1376.13 784.115 L1362.06 784.115 L1362.06 792.587 Q1363.08 792.24 1364.1 792.078 Q1365.12 791.893 1366.13 791.893 Q1371.92 791.893 1375.3 795.064 Q1378.68 798.235 1378.68 803.652 Q1378.68 809.23 1375.21 812.332 Q1371.74 815.411 1365.42 815.411 Q1363.24 815.411 1360.97 815.041 Q1358.73 814.67 1356.32 813.93 L1356.32 809.23 Q1358.4 810.365 1360.63 810.92 Q1362.85 811.476 1365.32 811.476 Q1369.33 811.476 1371.67 809.369 Q1374.01 807.263 1374.01 803.652 Q1374.01 800.041 1371.67 797.934 Q1369.33 795.828 1365.32 795.828 Q1363.45 795.828 1361.57 796.244 Q1359.72 796.661 1357.78 797.541 L1357.78 780.18 Z" fill="#000000" fill-rule="nonzero" fill-opacity="1" /><path clip-path="url(#clip930)" d="M1397.89 783.258 Q1394.28 783.258 1392.45 786.823 Q1390.65 790.365 1390.65 797.494 Q1390.65 804.601 1392.45 808.166 Q1394.28 811.707 1397.89 811.707 Q1401.53 811.707 1403.33 808.166 Q1405.16 804.601 1405.16 797.494 Q1405.16 790.365 1403.33 786.823 Q1401.53 783.258 1397.89 783.258 M1397.89 779.555 Q1403.7 779.555 1406.76 784.161 Q1409.84 788.744 1409.84 797.494 Q1409.84 806.221 1406.76 810.828 Q1403.7 815.411 1397.89 815.411 Q1392.08 815.411 1389.01 810.828 Q1385.95 806.221 1385.95 797.494 Q1385.95 788.744 1389.01 784.161 Q1392.08 779.555 1397.89 779.555 Z" fill="#000000" fill-rule="nonzero" fill-opacity="1" /><path clip-path="url(#clip930)" d="M1323.5 488.79 Q1319.89 488.79 1318.06 492.355 Q1316.25 495.897 1316.25 503.026 Q1316.25 510.133 1318.06 513.698 Q1319.89 517.239 1323.5 517.239 Q1327.13 517.239 1328.94 513.698 Q1330.76 510.133 1330.76 503.026 Q1330.76 495.897 1328.94 492.355 Q1327.13 488.79 1323.5 488.79 M1323.5 485.087 Q1329.31 485.087 1332.36 489.693 Q1335.44 494.277 1335.44 503.026 Q1335.44 511.753 1332.36 516.36 Q1329.31 520.943 1323.5 520.943 Q1317.69 520.943 1314.61 516.36 Q1311.55 511.753 1311.55 503.026 Q1311.55 494.277 1314.61 489.693 Q1317.69 485.087 1323.5 485.087 Z" fill="#000000" fill-rule="nonzero" fill-opacity="1" /><path clip-path="url(#clip930)" d="M1343.66 514.392 L1348.54 514.392 L1348.54 520.272 L1343.66 520.272 L1343.66 514.392 Z" fill="#000000" fill-rule="nonzero" fill-opacity="1" /><path clip-path="url(#clip930)" d="M1357.55 485.712 L1379.77 485.712 L1379.77 487.702 L1367.22 520.272 L1362.34 520.272 L1374.14 489.647 L1357.55 489.647 L1357.55 485.712 Z" fill="#000000" fill-rule="nonzero" fill-opacity="1" /><path clip-path="url(#clip930)" d="M1388.94 485.712 L1407.29 485.712 L1407.29 489.647 L1393.22 489.647 L1393.22 498.119 Q1394.24 497.772 1395.26 497.61 Q1396.27 497.425 1397.29 497.425 Q1403.08 497.425 1406.46 500.596 Q1409.84 503.767 1409.84 509.184 Q1409.84 514.763 1406.37 517.864 Q1402.89 520.943 1396.57 520.943 Q1394.4 520.943 1392.13 520.573 Q1389.88 520.202 1387.48 519.462 L1387.48 514.763 Q1389.56 515.897 1391.78 516.452 Q1394.01 517.008 1396.48 517.008 Q1400.49 517.008 1402.82 514.901 Q1405.16 512.795 1405.16 509.184 Q1405.16 505.573 1402.82 503.466 Q1400.49 501.36 1396.48 501.36 Q1394.61 501.36 1392.73 501.776 Q1390.88 502.193 1388.94 503.073 L1388.94 485.712 Z" fill="#000000" fill-rule="nonzero" fill-opacity="1" /><path clip-path="url(#clip930)" d="M1313.31 221.869 L1320.95 221.869 L1320.95 195.503 L1312.64 197.17 L1312.64 192.91 L1320.9 191.244 L1325.58 191.244 L1325.58 221.869 L1333.22 221.869 L1333.22 225.804 L1313.31 225.804 L1313.31 221.869 Z" fill="#000000" fill-rule="nonzero" fill-opacity="1" /><path clip-path="url(#clip930)" d="M1342.66 219.924 L1347.55 219.924 L1347.55 225.804 L1342.66 225.804 L1342.66 219.924 Z" fill="#000000" fill-rule="nonzero" fill-opacity="1" /><path clip-path="url(#clip930)" d="M1367.73 194.322 Q1364.12 194.322 1362.29 197.887 Q1360.49 201.429 1360.49 208.558 Q1360.49 215.665 1362.29 219.23 Q1364.12 222.771 1367.73 222.771 Q1371.37 222.771 1373.17 219.23 Q1375 215.665 1375 208.558 Q1375 201.429 1373.17 197.887 Q1371.37 194.322 1367.73 194.322 M1367.73 190.619 Q1373.54 190.619 1376.6 195.225 Q1379.68 199.809 1379.68 208.558 Q1379.68 217.285 1376.6 221.892 Q1373.54 226.475 1367.73 226.475 Q1361.92 226.475 1358.84 221.892 Q1355.79 217.285 1355.79 208.558 Q1355.79 199.809 1358.84 195.225 Q1361.92 190.619 1367.73 190.619 Z" fill="#000000" fill-rule="nonzero" fill-opacity="1" /><path clip-path="url(#clip930)" d="M1397.89 194.322 Q1394.28 194.322 1392.45 197.887 Q1390.65 201.429 1390.65 208.558 Q1390.65 215.665 1392.45 219.23 Q1394.28 222.771 1397.89 222.771 Q1401.53 222.771 1403.33 219.23 Q1405.16 215.665 1405.16 208.558 Q1405.16 201.429 1403.33 197.887 Q1401.53 194.322 1397.89 194.322 M1397.89 190.619 Q1403.7 190.619 1406.76 195.225 Q1409.84 199.809 1409.84 208.558 Q1409.84 217.285 1406.76 221.892 Q1403.7 226.475 1397.89 226.475 Q1392.08 226.475 1389.01 221.892 Q1385.95 217.285 1385.95 208.558 Q1385.95 199.809 1389.01 195.225 Q1392.08 190.619 1397.89 190.619 Z" fill="#000000" fill-rule="nonzero" fill-opacity="1" /><path clip-path="url(#clip930)" d="M1263.61 771.639 Q1269.98 774.122 1271.92 776.477 Q1273.86 778.832 1273.86 782.779 L1273.86 787.458 L1268.96 787.458 L1268.96 784.02 Q1268.96 781.601 1267.81 780.265 Q1266.67 778.928 1262.4 777.305 L1259.73 776.254 L1224.65 790.673 L1224.65 784.466 L1252.53 773.326 L1224.65 762.186 L1224.65 755.979 L1263.61 771.639 Z" fill="#000000" fill-rule="nonzero" fill-opacity="1" /><polyline clip-path="url(#clip933)" style="stroke:#009af9; stroke-linecap:round; stroke-linejoin:round; stroke-width:4; stroke-opacity:1; fill:none" points="1471.51,1386.4 1473.22,1386.4 1474.93,1386.4 1476.64,1386.4 1478.35,1386.4 1480.06,1386.4 1481.77,1386.4 1483.48,1386.4 1485.2,1386.4 1486.91,1386.4 1488.62,1386.4 1490.33,1386.4 1492.04,1386.4 1493.75,1386.4 1495.46,1386.4 1497.17,1386.4 1498.88,1386.4 1500.6,1386.4 1502.31,1386.4 1504.02,1386.4 1505.73,1386.4 1507.44,1386.4 1507.44,1385.76 1509.15,1385.76 1509.15,1383.78 1510.86,1383.78 1510.86,1380.32 1512.57,1380.32 1512.57,1375.24 1514.28,1375.24 1514.28,1368.46 1516,1368.46 1516,1359.88 1517.71,1359.88 1517.71,1349.46 1519.42,1349.46 1519.42,1337.14 1521.13,1337.14 1521.13,1322.93 1522.84,1322.93 1522.84,1306.8 1524.55,1306.8 1524.55,1288.8 1526.26,1288.8 1526.26,1268.95 1527.97,1268.95 1527.97,1247.31 1529.69,1247.31 1529.69,1223.95 1531.4,1223.95 1531.4,1198.94 1533.11,1198.94 1533.11,1172.39 1534.82,1172.39 1534.82,1144.4 1536.53,1144.4 1536.53,1115.08 1538.24,1115.08 1538.24,1084.55 1539.95,1084.55 1539.95,1052.94 1541.66,1052.94 1541.66,1020.39 1543.37,1020.39 1543.37,987.013 1545.09,987.013 1545.09,952.962 1546.8,952.962 1546.8,918.372 1548.51,918.372 1548.51,883.382 1550.22,883.382 1550.22,848.13 1551.93,848.13 1551.93,812.755 1553.64,812.755 1553.64,777.392 1555.35,777.392 1555.35,742.174 1557.06,742.174 1557.06,707.23 1558.78,707.23 1558.78,672.686 1560.49,672.686 1560.49,638.661 1562.2,638.661 1562.2,605.269 1563.91,605.269 1563.91,572.618 1565.62,572.618 1565.62,540.811 1567.33,540.811 1567.33,509.942 1569.04,509.942 1569.04,480.097 1570.75,480.097 1570.75,451.357 1572.46,451.357 1572.46,423.794 1574.18,423.794 1574.18,397.471 1575.89,397.471 1575.89,372.444 1577.6,372.444 1577.6,348.76 1579.31,348.76 1579.31,326.46 1581.02,326.46 1581.02,305.573 1582.73,305.573 1582.73,286.122 1584.44,286.122 1584.44,268.124 1586.15,268.124 1586.15,251.585 1587.87,251.585 1587.87,236.504 1589.58,236.504 1589.58,222.876 1591.29,222.876 1591.29,210.684 1593,210.684 1593,199.909 1594.71,199.909 1594.71,190.522 1596.42,190.522 1596.42,182.49 1598.13,182.49 1598.13,175.775 1599.84,175.775 1599.84,170.333 1601.55,170.333 1601.55,166.114 1603.27,166.114 1603.27,163.067 1604.98,163.067 1604.98,161.134 1606.69,161.134 1606.69,160.256 1608.4,160.256 1608.4,160.37 1610.11,160.37 1610.11,161.41 1611.82,161.41 1611.82,163.31 1613.53,163.31 1613.53,166 1615.24,166 1615.24,169.411 1616.95,169.411 1616.95,173.473 1618.67,173.473 1618.67,178.115 1620.38,178.115 1620.38,183.266 1622.09,183.266 1622.09,188.857 1623.8,188.857 1623.8,194.818 1625.51,194.818 1625.51,201.082 1627.22,201.082 1627.22,207.583 1628.93,207.583 1628.93,214.256 1630.64,214.256 1630.64,221.04 1632.36,221.04 1632.36,227.875 1634.07,227.875 1634.07,234.704 1635.78,234.704 1635.78,241.473 1637.49,241.473 1637.49,248.131 1639.2,248.131 1639.2,254.631 1640.91,254.631 1640.91,260.927 1642.62,260.927 1642.62,266.98 1644.33,266.98 1644.33,272.751 1646.04,272.751 1646.04,278.207 1647.76,278.207 1647.76,283.318 1649.47,283.318 1649.47,288.058 1651.18,288.058 1651.18,292.403 1652.89,292.403 1652.89,296.334 1654.6,296.334 1654.6,299.837 1656.31,299.837 1656.31,302.898 1658.02,302.898 1658.02,305.509 1659.73,305.509 1659.73,307.665 1661.45,307.665 1661.45,309.364 1663.16,309.364 1663.16,310.606 1664.87,310.606 1664.87,311.396 1666.58,311.396 1666.58,311.74 1668.29,311.74 1668.29,311.648 1670,311.648 1670,311.131 1671.71,311.131 1671.71,310.203 1673.42,310.203 1673.42,308.88 1675.13,308.88 1675.13,307.181 1676.85,307.181 1676.85,305.126 1678.56,305.126 1678.56,302.734 1680.27,302.734 1680.27,300.029 1681.98,300.029 1681.98,297.035 1683.69,297.035 1683.69,293.776 1685.4,293.776 1685.4,290.277 1687.11,290.277 1687.11,286.565 1688.82,286.565 1688.82,282.665 1690.53,282.665 1690.53,278.604 1692.25,278.604 1692.25,274.409 1693.96,274.409 1693.96,270.105 1695.67,270.105 1695.67,265.719 1697.38,265.719 1697.38,261.276 1699.09,261.276 1699.09,256.802 1700.8,256.802 1700.8,252.32 1702.51,252.32 1702.51,247.854 1704.22,247.854 1704.22,243.427 1705.94,243.427 1705.94,239.06 1707.65,239.06 1707.65,234.774 1709.36,234.774 1709.36,230.587 1711.07,230.587 1711.07,226.517 1712.78,226.517 1712.78,222.582 1714.49,222.582 1714.49,218.795 1716.2,218.795 1716.2,215.172 1717.91,215.172 1717.91,211.724 1719.62,211.724 1719.62,208.462 1721.34,208.462 1721.34,205.395 1723.05,205.395 1723.05,202.532 1724.76,202.532 1724.76,199.879 1726.47,199.879 1726.47,197.442 1728.18,197.442 1728.18,195.222 1729.89,195.222 1729.89,193.224 1731.6,193.224 1731.6,191.448 1733.31,191.448 1733.31,189.893 1735.03,189.893 1735.03,188.558 1736.74,188.558 1736.74,187.44 1738.45,187.44 1738.45,186.536 1740.16,186.536 1740.16,185.84 1741.87,185.84 1741.87,185.347 1743.58,185.347 1743.58,185.049 1745.29,185.049 1745.29,184.939 1747,184.939 1747,185.009 1748.71,185.009 1748.71,185.25 1750.43,185.25 1750.43,185.652 1752.14,185.652 1752.14,186.204 1753.85,186.204 1753.85,186.897 1755.56,186.897 1755.56,187.719 1757.27,187.719 1757.27,188.659 1758.98,188.659 1758.98,189.705 1760.69,189.705 1760.69,190.847 1762.4,190.847 1762.4,192.072 1764.12,192.072 1764.12,193.369 1765.83,193.369 1765.83,194.726 1767.54,194.726 1767.54,196.133 1769.25,196.133 1769.25,197.577 1770.96,197.577 1770.96,199.048 1772.67,199.048 1772.67,200.536 1774.38,200.536 1774.38,202.029 1776.09,202.029 1776.09,203.519 1777.8,203.519 1777.8,204.997 1779.52,204.997 1779.52,206.452 1781.23,206.452 1781.23,207.877 1782.94,207.877 1782.94,209.264 1784.65,209.264 1784.65,210.605 1786.36,210.605 1786.36,211.895 1788.07,211.895 1788.07,213.127 1789.78,213.127 1789.78,214.295 1791.49,214.295 1791.49,215.396 1793.2,215.396 1793.2,216.423 1794.92,216.423 1794.92,217.375 1796.63,217.375 1796.63,218.248 1798.34,218.248 1798.34,219.039 1800.05,219.039 1800.05,219.747 1801.76,219.747 1801.76,220.371 1803.47,220.371 1803.47,220.91 1805.18,220.91 1805.18,221.364 1806.89,221.364 1806.89,221.733 1808.61,221.733 1808.61,222.019 1810.32,222.019 1810.32,222.222 1812.03,222.222 1812.03,222.345 1813.74,222.345 1813.74,222.39 1815.45,222.39 1815.45,222.359 1817.16,222.359 1817.16,222.256 1818.87,222.256 1818.87,222.083 1820.58,222.083 1820.58,221.845 1822.29,221.845 1822.29,221.545 1824.01,221.545 1824.01,221.187 1825.72,221.187 1825.72,220.775 1827.43,220.775 1827.43,220.315 1829.14,220.315 1829.14,219.809 1830.85,219.809 1830.85,219.264 1832.56,219.264 1832.56,218.684 1834.27,218.684 1834.27,218.072 1835.98,218.072 1835.98,217.435 1837.7,217.435 1837.7,216.776 1839.41,216.776 1839.41,216.101 1841.12,216.101 1841.12,215.413 1842.83,215.413 1842.83,214.718 1844.54,214.718 1844.54,214.018 1846.25,214.018 1846.25,213.32 1847.96,213.32 1847.96,212.626 1849.67,212.626 1849.67,211.94 1851.38,211.94 1851.38,211.266 1853.1,211.266 1853.1,210.607 1854.81,210.607 1854.81,209.966 1856.52,209.966 1856.52,209.347 1858.23,209.347 1858.23,208.752 1859.94,208.752 1859.94,208.183 1861.65,208.183 1861.65,207.642 1863.36,207.642 1863.36,207.132 1865.07,207.132 1865.07,206.654 1866.78,206.654 1866.78,206.21 1868.5,206.21 1868.5,205.8 1870.21,205.8 1870.21,205.425 1871.92,205.425 1871.92,205.087 1873.63,205.087 1873.63,204.786 1875.34,204.786 1875.34,204.522 1877.05,204.522 1877.05,204.294 1878.76,204.294 1878.76,204.103 1880.47,204.103 1880.47,203.948 1882.19,203.948 1882.19,203.828 1883.9,203.828 1883.9,203.743 1885.61,203.743 1885.61,203.692 1887.32,203.692 1887.32,203.673 1889.03,203.673 1889.03,203.686 1890.74,203.686 1890.74,203.728 1892.45,203.728 1892.45,203.799 1894.16,203.799 1894.16,203.896 1895.87,203.896 1895.87,204.018 1897.59,204.018 1897.59,204.164 1899.3,204.164 1899.3,204.33 1901.01,204.33 1901.01,204.516 1902.72,204.516 1902.72,204.719 1904.43,204.719 1904.43,204.938 1906.14,204.938 1906.14,205.17 1907.85,205.17 1907.85,205.414 1909.56,205.414 1909.56,205.667 1911.28,205.667 1911.28,205.928 1912.99,205.928 1912.99,206.195 1914.7,206.195 1914.7,206.465 1916.41,206.465 1916.41,206.738 1918.12,206.738 1918.12,207.011 1919.83,207.011 1919.83,207.282 1921.54,207.282 1921.54,207.551 1923.25,207.551 1923.25,207.815 1924.96,207.815 1924.96,208.073 1926.68,208.073 1926.68,208.325 1928.39,208.325 1928.39,208.567 1930.1,208.567 1930.1,208.801 1931.81,208.801 1931.81,209.024 1933.52,209.024 1933.52,209.235 1935.23,209.235 1935.23,209.434 1936.94,209.434 1936.94,209.621 1938.65,209.621 1938.65,209.793 1940.37,209.793 1940.37,209.952 1942.08,209.952 1942.08,210.097 1943.79,210.097 1943.79,210.226 1945.5,210.226 1945.5,210.341 1947.21,210.341 1947.21,210.441 1948.92,210.441 1948.92,210.526 1950.63,210.526 1950.63,210.596 1952.34,210.596 1952.34,210.651 1954.05,210.651 1954.05,210.692 1955.77,210.692 1955.77,210.719 1957.48,210.719 1957.48,210.732 1959.19,210.732 1959.19,210.732 1960.9,210.732 1960.9,210.72 1962.61,210.72 1962.61,210.695 1964.32,210.695 1964.32,210.658 1966.03,210.658 1966.03,210.611 1967.74,210.611 1967.74,210.554 1969.45,210.554 1969.45,210.488 1971.17,210.488 1971.17,210.412 1972.88,210.412 1972.88,210.33 1974.59,210.33 1974.59,210.24 1976.3,210.24 1976.3,210.144 1978.01,210.144 1978.01,210.042 1979.72,210.042 1979.72,209.936 1981.43,209.936 1981.43,209.826 1983.14,209.826 1983.14,209.714 1984.86,209.714 1984.86,209.599 1986.57,209.599 1986.57,209.482 1988.28,209.482 1988.28,209.365 1989.99,209.365 1989.99,209.248 1991.7,209.248 1991.7,209.132 1993.41,209.132 1993.41,209.017 1995.12,209.017 1995.12,208.904 1996.83,208.904 1996.83,208.794 1998.54,208.794 1998.54,208.686 2000.26,208.686 2000.26,208.583 2001.97,208.583 2001.97,208.483 2003.68,208.483 2003.68,208.388 2005.39,208.388 2005.39,208.298 2007.1,208.298 2007.1,208.213 2008.81,208.213 2008.81,208.133 2010.52,208.133 2010.52,208.059 2012.23,208.059 2012.23,207.991 2013.95,207.991 2013.95,207.929 2015.66,207.929 2015.66,207.874 2017.37,207.874 2017.37,207.824 2019.08,207.824 2019.08,207.781 2020.79,207.781 2020.79,207.744 2022.5,207.744 2022.5,207.713 2024.21,207.713 2024.21,207.689 2025.92,207.689 2025.92,207.67 2027.63,207.67 2027.63,207.658 2029.35,207.658 2029.35,207.651 2031.06,207.651 2031.06,207.65 2032.77,207.65 2032.77,207.654 2034.48,207.654 2034.48,207.663 2036.19,207.663 2036.19,207.676 2037.9,207.676 2037.9,207.695 2039.61,207.695 2039.61,207.717 2041.32,207.717 2041.32,207.744 2043.04,207.744 2043.04,207.774 2044.75,207.774 2044.75,207.808 2046.46,207.808 2046.46,207.844 2048.17,207.844 2048.17,207.883 2049.88,207.883 2049.88,207.924 2051.59,207.924 2051.59,207.967 2053.3,207.967 2053.3,208.012 2055.01,208.012 2055.01,208.058 2056.72,208.058 2056.72,208.104 2058.44,208.104 2058.44,208.152 2060.15,208.152 2060.15,208.2 2061.86,208.2 2061.86,208.247 2063.57,208.247 2063.57,208.295 2065.28,208.295 2065.28,208.342 2066.99,208.342 2066.99,208.388 2068.7,208.388 2068.7,208.433 2070.41,208.433 2070.41,208.477 2072.12,208.477 2072.12,208.519 2073.84,208.519 2073.84,208.56 2075.55,208.56 2075.55,208.598 2077.26,208.598 2077.26,208.635 2078.97,208.635 2078.97,208.67 2080.68,208.67 2080.68,208.702 2082.39,208.702 2082.39,208.732 2084.1,208.732 2084.1,208.76 2085.81,208.76 2085.81,208.785 2087.53,208.785 2087.53,208.808 2089.24,208.808 2089.24,208.828 2090.95,208.828 2090.95,208.845 2092.66,208.845 2092.66,208.86 2094.37,208.86 2094.37,208.872 2096.08,208.872 2096.08,208.882 2097.79,208.882 2097.79,208.889 2099.5,208.889 2099.5,208.893 2101.21,208.893 2101.21,208.896 2102.93,208.896 2102.93,208.896 2104.64,208.896 2104.64,208.894 2106.35,208.894 2106.35,208.89 2108.06,208.89 2108.06,208.884 2109.77,208.884 2109.77,208.876 2111.48,208.876 2111.48,208.866 2113.19,208.866 2113.19,208.854 2114.9,208.854 2114.9,208.842 2116.62,208.842 2116.62,208.827 2118.33,208.827 2118.33,208.812 2120.04,208.812 2120.04,208.796 2121.75,208.796 2121.75,208.778 2123.46,208.778 2123.46,208.76 2125.17,208.76 2125.17,208.741 2126.88,208.741 2126.88,208.722 2128.59,208.722 2128.59,208.702 2130.3,208.702 2130.3,208.682 2132.02,208.682 2132.02,208.662 2133.73,208.662 2133.73,208.642 2135.44,208.642 2135.44,208.623 2137.15,208.623 2137.15,208.603 2138.86,208.603 2138.86,208.584 2140.57,208.584 2140.57,208.565 2142.28,208.565 2142.28,208.546 2143.99,208.546 2143.99,208.529 2145.7,208.529 2145.7,208.512 2147.42,208.512 2147.42,208.496 2149.13,208.496 2149.13,208.48 2150.84,208.48 2150.84,208.466 2152.55,208.466 2152.55,208.452 2154.26,208.452 2154.26,208.44 2155.97,208.44 2155.97,208.428 2157.68,208.428 2157.68,208.418 2159.39,208.418 2159.39,208.408 2161.11,208.408 2161.11,208.4 2162.82,208.4 2162.82,208.393 2164.53,208.393 2164.53,208.387 2166.24,208.387 2166.24,208.381 2167.95,208.381 2167.95,208.377 2169.66,208.377 2169.66,208.374 2171.37,208.374 2171.37,208.372 2173.08,208.372 2173.08,208.371 2174.79,208.371 2174.79,208.371 2176.51,208.371 2176.51,208.372 2178.22,208.372 2178.22,208.374 2179.93,208.374 2179.93,208.376 2181.64,208.376 2181.64,208.38 2183.35,208.38 2183.35,208.384 2185.06,208.384 2185.06,208.388 2186.77,208.388 2186.77,208.394 2188.48,208.394 2188.48,208.4 2190.2,208.4 2190.2,208.406 2191.91,208.406 2191.91,208.413 2193.62,208.413 2193.62,208.42 2195.33,208.42 2195.33,208.427 2197.04,208.427 2197.04,208.435 2198.75,208.435 2198.75,208.443 2200.46,208.443 2200.46,208.451 2202.17,208.451 2202.17,208.459 2203.88,208.459 2203.88,208.468 2205.6,208.468 2205.6,208.476 2207.31,208.476 2207.31,208.484 2209.02,208.484 2209.02,208.492 2210.73,208.492 2210.73,208.5 2212.44,208.5 2212.44,208.508 2214.15,208.508 2214.15,208.516 2215.86,208.516 2215.86,208.523 2217.57,208.523 2217.57,208.53 2219.29,208.53 2219.29,208.537 2221,208.537 2221,208.543 2222.71,208.543 2222.71,208.549 2224.42,208.549 2224.42,208.554 2226.13,208.554 2226.13,208.56 2227.84,208.56 2227.84,208.564 2229.55,208.564 2229.55,208.569 2231.26,208.569 2231.26,208.572 2232.97,208.572 2232.97,208.576 2234.69,208.576 2234.69,208.579 2236.4,208.579 2236.4,208.581 2238.11,208.581 2238.11,208.583 2239.82,208.583 2239.82,208.585 2241.53,208.585 2241.53,208.586 2243.24,208.586 2243.24,208.587 2244.95,208.587 2244.95,208.587 2246.66,208.587 2246.66,208.587 2248.37,208.587 2248.37,208.587 2250.09,208.587 2250.09,208.586 2251.8,208.586 2251.8,208.585 2253.51,208.585 2253.51,208.584 2255.22,208.584 2255.22,208.582 2256.93,208.582 2256.93,208.58 2258.64,208.58 2258.64,208.578 2260.35,208.578 2260.35,208.576 2262.06,208.576 2262.06,208.573 2263.78,208.573 2263.78,208.57 2265.49,208.57 2265.49,208.567 2267.2,208.567 2267.2,208.564 2268.91,208.564 2268.91,208.561 2270.62,208.561 2270.62,208.557 2272.33,208.557 2272.33,208.554 2274.04,208.554 2274.04,208.551 2275.75,208.551 2275.75,208.547 2277.46,208.547 2277.46,208.544 2279.18,208.544 2279.18,208.54 2280.89,208.54 2280.89,208.537 2282.6,208.537 2282.6,208.534 2284.31,208.534 2284.31,208.53 2286.02,208.53 2286.02,208.527 2287.73,208.527 2287.73,208.524 2289.44,208.524 2289.44,208.521 2291.15,208.521 2291.15,208.519 2292.87,208.519 2292.87,208.516 2294.58,208.516 2294.58,208.513 2296.29,208.513 2296.29,208.511 2298,208.511 2298,208.509 2299.71,208.509 2299.71,208.507 2301.42,208.507 2301.42,208.505 2303.13,208.505 2303.13,208.504 2304.84,208.504 2304.84,208.502 2306.55,208.502 2306.55,208.501 2308.27,208.501 2308.27,208.5 2309.98,208.5 2309.98,208.499 2311.69,208.499 2311.69,208.498 2313.4,208.498 2313.4,208.498 2315.11,208.498 2315.11,208.498 2316.82,208.498 2316.82,208.497 2318.53,208.497 2318.53,208.497 2320.24,208.497 2320.24,208.498 2321.95,208.498 2321.95,208.498 2323.67,208.498 2323.67,208.498 2325.38,208.498 2325.38,208.499 2327.09,208.499 2327.09,208.5 "/>
</svg>
