<?xml version="1.0" encoding="utf-8"?>
<svg xmlns="http://www.w3.org/2000/svg" xmlns:xlink="http://www.w3.org/1999/xlink" width="600" height="400" viewBox="0 0 2400 1600">
<defs>
  <clipPath id="clip400">
    <rect x="0" y="0" width="2400" height="1600"/>
  </clipPath>
</defs>
<path clip-path="url(#clip400)" d="M0 1600 L2400 1600 L2400 0 L0 0  Z" fill="#ffffff" fill-rule="evenodd" fill-opacity="1"/>
<defs>
  <clipPath id="clip401">
    <rect x="480" y="0" width="1681" height="1600"/>
  </clipPath>
</defs>
<path clip-path="url(#clip400)" d="M255.977 1423.18 L2352.76 1423.18 L2352.76 47.2441 L255.977 47.2441  Z" fill="#ffffff" fill-rule="evenodd" fill-opacity="1"/>
<defs>
  <clipPath id="clip402">
    <rect x="255" y="47" width="2098" height="1377"/>
  </clipPath>
</defs>
<polyline clip-path="url(#clip402)" style="stroke:#000000; stroke-linecap:round; stroke-linejoin:round; stroke-width:2; stroke-opacity:0.1; fill:none" points="315.32,1423.18 315.32,47.2441 "/>
<polyline clip-path="url(#clip402)" style="stroke:#000000; stroke-linecap:round; stroke-linejoin:round; stroke-width:2; stroke-opacity:0.1; fill:none" points="711.731,1423.18 711.731,47.2441 "/>
<polyline clip-path="url(#clip402)" style="stroke:#000000; stroke-linecap:round; stroke-linejoin:round; stroke-width:2; stroke-opacity:0.1; fill:none" points="1108.14,1423.18 1108.14,47.2441 "/>
<polyline clip-path="url(#clip402)" style="stroke:#000000; stroke-linecap:round; stroke-linejoin:round; stroke-width:2; stroke-opacity:0.1; fill:none" points="1504.55,1423.18 1504.55,47.2441 "/>
<polyline clip-path="url(#clip402)" style="stroke:#000000; stroke-linecap:round; stroke-linejoin:round; stroke-width:2; stroke-opacity:0.1; fill:none" points="1900.97,1423.18 1900.97,47.2441 "/>
<polyline clip-path="url(#clip402)" style="stroke:#000000; stroke-linecap:round; stroke-linejoin:round; stroke-width:2; stroke-opacity:0.1; fill:none" points="2297.38,1423.18 2297.38,47.2441 "/>
<polyline clip-path="url(#clip400)" style="stroke:#000000; stroke-linecap:round; stroke-linejoin:round; stroke-width:4; stroke-opacity:1; fill:none" points="255.977,1423.18 2352.76,1423.18 "/>
<polyline clip-path="url(#clip400)" style="stroke:#000000; stroke-linecap:round; stroke-linejoin:round; stroke-width:4; stroke-opacity:1; fill:none" points="315.32,1423.18 315.32,1404.28 "/>
<polyline clip-path="url(#clip400)" style="stroke:#000000; stroke-linecap:round; stroke-linejoin:round; stroke-width:4; stroke-opacity:1; fill:none" points="711.731,1423.18 711.731,1404.28 "/>
<polyline clip-path="url(#clip400)" style="stroke:#000000; stroke-linecap:round; stroke-linejoin:round; stroke-width:4; stroke-opacity:1; fill:none" points="1108.14,1423.18 1108.14,1404.28 "/>
<polyline clip-path="url(#clip400)" style="stroke:#000000; stroke-linecap:round; stroke-linejoin:round; stroke-width:4; stroke-opacity:1; fill:none" points="1504.55,1423.18 1504.55,1404.28 "/>
<polyline clip-path="url(#clip400)" style="stroke:#000000; stroke-linecap:round; stroke-linejoin:round; stroke-width:4; stroke-opacity:1; fill:none" points="1900.97,1423.18 1900.97,1404.28 "/>
<polyline clip-path="url(#clip400)" style="stroke:#000000; stroke-linecap:round; stroke-linejoin:round; stroke-width:4; stroke-opacity:1; fill:none" points="2297.38,1423.18 2297.38,1404.28 "/>
<path clip-path="url(#clip400)" d="M315.32 1454.1 Q311.709 1454.1 309.88 1457.66 Q308.075 1461.2 308.075 1468.33 Q308.075 1475.44 309.88 1479.01 Q311.709 1482.55 315.32 1482.55 Q318.954 1482.55 320.76 1479.01 Q322.588 1475.44 322.588 1468.33 Q322.588 1461.2 320.76 1457.66 Q318.954 1454.1 315.32 1454.1 M315.32 1450.39 Q321.13 1450.39 324.186 1455 Q327.264 1459.58 327.264 1468.33 Q327.264 1477.06 324.186 1481.67 Q321.13 1486.25 315.32 1486.25 Q309.51 1486.25 306.431 1481.67 Q303.376 1477.06 303.376 1468.33 Q303.376 1459.58 306.431 1455 Q309.51 1450.39 315.32 1450.39 Z" fill="#000000" fill-rule="nonzero" fill-opacity="1" /><path clip-path="url(#clip400)" d="M702.113 1481.64 L709.752 1481.64 L709.752 1455.28 L701.442 1456.95 L701.442 1452.69 L709.706 1451.02 L714.382 1451.02 L714.382 1481.64 L722.021 1481.64 L722.021 1485.58 L702.113 1485.58 L702.113 1481.64 Z" fill="#000000" fill-rule="nonzero" fill-opacity="1" /><path clip-path="url(#clip400)" d="M1102.8 1481.64 L1119.12 1481.64 L1119.12 1485.58 L1097.17 1485.58 L1097.17 1481.64 Q1099.83 1478.89 1104.42 1474.26 Q1109.02 1469.61 1110.2 1468.27 Q1112.45 1465.74 1113.33 1464.01 Q1114.23 1462.25 1114.23 1460.56 Q1114.23 1457.8 1112.29 1456.07 Q1110.37 1454.33 1107.26 1454.33 Q1105.06 1454.33 1102.61 1455.09 Q1100.18 1455.86 1097.4 1457.41 L1097.4 1452.69 Q1100.23 1451.55 1102.68 1450.97 Q1105.13 1450.39 1107.17 1450.39 Q1112.54 1450.39 1115.74 1453.08 Q1118.93 1455.77 1118.93 1460.26 Q1118.93 1462.39 1118.12 1464.31 Q1117.33 1466.2 1115.23 1468.8 Q1114.65 1469.47 1111.55 1472.69 Q1108.44 1475.88 1102.8 1481.64 Z" fill="#000000" fill-rule="nonzero" fill-opacity="1" /><path clip-path="url(#clip400)" d="M1508.8 1466.95 Q1512.16 1467.66 1514.03 1469.93 Q1515.93 1472.2 1515.93 1475.53 Q1515.93 1480.65 1512.41 1483.45 Q1508.89 1486.25 1502.41 1486.25 Q1500.24 1486.25 1497.92 1485.81 Q1495.63 1485.39 1493.18 1484.54 L1493.18 1480.02 Q1495.12 1481.16 1497.44 1481.74 Q1499.75 1482.32 1502.27 1482.32 Q1506.67 1482.32 1508.96 1480.58 Q1511.28 1478.84 1511.28 1475.53 Q1511.28 1472.48 1509.13 1470.77 Q1507 1469.03 1503.18 1469.03 L1499.15 1469.03 L1499.15 1465.19 L1503.36 1465.19 Q1506.81 1465.19 1508.64 1463.82 Q1510.47 1462.43 1510.47 1459.84 Q1510.47 1457.18 1508.57 1455.77 Q1506.7 1454.33 1503.18 1454.33 Q1501.26 1454.33 1499.06 1454.75 Q1496.86 1455.16 1494.22 1456.04 L1494.22 1451.88 Q1496.88 1451.14 1499.2 1450.77 Q1501.53 1450.39 1503.59 1450.39 Q1508.92 1450.39 1512.02 1452.83 Q1515.12 1455.23 1515.12 1459.35 Q1515.12 1462.22 1513.48 1464.21 Q1511.83 1466.18 1508.8 1466.95 Z" fill="#000000" fill-rule="nonzero" fill-opacity="1" /><path clip-path="url(#clip400)" d="M1903.98 1455.09 L1892.17 1473.54 L1903.98 1473.54 L1903.98 1455.09 M1902.75 1451.02 L1908.63 1451.02 L1908.63 1473.54 L1913.56 1473.54 L1913.56 1477.43 L1908.63 1477.43 L1908.63 1485.58 L1903.98 1485.58 L1903.98 1477.43 L1888.37 1477.43 L1888.37 1472.92 L1902.75 1451.02 Z" fill="#000000" fill-rule="nonzero" fill-opacity="1" /><path clip-path="url(#clip400)" d="M2287.66 1451.02 L2306.01 1451.02 L2306.01 1454.96 L2291.94 1454.96 L2291.94 1463.43 Q2292.96 1463.08 2293.97 1462.92 Q2294.99 1462.73 2296.01 1462.73 Q2301.8 1462.73 2305.18 1465.9 Q2308.56 1469.08 2308.56 1474.49 Q2308.56 1480.07 2305.09 1483.17 Q2301.61 1486.25 2295.29 1486.25 Q2293.12 1486.25 2290.85 1485.88 Q2288.6 1485.51 2286.2 1484.77 L2286.2 1480.07 Q2288.28 1481.2 2290.5 1481.76 Q2292.72 1482.32 2295.2 1482.32 Q2299.21 1482.32 2301.54 1480.21 Q2303.88 1478.1 2303.88 1474.49 Q2303.88 1470.88 2301.54 1468.77 Q2299.21 1466.67 2295.2 1466.67 Q2293.33 1466.67 2291.45 1467.08 Q2289.6 1467.5 2287.66 1468.38 L2287.66 1451.02 Z" fill="#000000" fill-rule="nonzero" fill-opacity="1" /><path clip-path="url(#clip400)" d="M1174.54 1520.52 L1214.74 1520.52 L1214.74 1525.93 L1197.87 1525.93 L1197.87 1568.04 L1191.41 1568.04 L1191.41 1525.93 L1174.54 1525.93 L1174.54 1520.52 Z" fill="#000000" fill-rule="nonzero" fill-opacity="1" /><path clip-path="url(#clip400)" d="M1218.68 1532.4 L1224.54 1532.4 L1224.54 1568.04 L1218.68 1568.04 L1218.68 1532.4 M1218.68 1518.52 L1224.54 1518.52 L1224.54 1525.93 L1218.68 1525.93 L1218.68 1518.52 Z" fill="#000000" fill-rule="nonzero" fill-opacity="1" /><path clip-path="url(#clip400)" d="M1264.55 1539.24 Q1266.75 1535.29 1269.8 1533.41 Q1272.86 1531.54 1276.99 1531.54 Q1282.56 1531.54 1285.59 1535.45 Q1288.61 1539.33 1288.61 1546.53 L1288.61 1568.04 L1282.72 1568.04 L1282.72 1546.72 Q1282.72 1541.59 1280.91 1539.11 Q1279.09 1536.63 1275.37 1536.63 Q1270.82 1536.63 1268.18 1539.65 Q1265.54 1542.68 1265.54 1547.9 L1265.54 1568.04 L1259.65 1568.04 L1259.65 1546.72 Q1259.65 1541.56 1257.83 1539.11 Q1256.02 1536.63 1252.23 1536.63 Q1247.74 1536.63 1245.1 1539.68 Q1242.46 1542.71 1242.46 1547.9 L1242.46 1568.04 L1236.57 1568.04 L1236.57 1532.4 L1242.46 1532.4 L1242.46 1537.93 Q1244.47 1534.66 1247.27 1533.1 Q1250.07 1531.54 1253.92 1531.54 Q1257.8 1531.54 1260.51 1533.51 Q1263.24 1535.48 1264.55 1539.24 Z" fill="#000000" fill-rule="nonzero" fill-opacity="1" /><path clip-path="url(#clip400)" d="M1330.78 1548.76 L1330.78 1551.62 L1303.86 1551.62 Q1304.24 1557.67 1307.49 1560.85 Q1310.76 1564 1316.59 1564 Q1319.96 1564 1323.11 1563.17 Q1326.3 1562.35 1329.42 1560.69 L1329.42 1566.23 Q1326.26 1567.57 1322.95 1568.27 Q1319.64 1568.97 1316.24 1568.97 Q1307.71 1568.97 1302.71 1564 Q1297.75 1559.04 1297.75 1550.57 Q1297.75 1541.82 1302.46 1536.69 Q1307.2 1531.54 1315.22 1531.54 Q1322.41 1531.54 1326.58 1536.18 Q1330.78 1540.8 1330.78 1548.76 M1324.93 1547.04 Q1324.86 1542.23 1322.22 1539.37 Q1319.61 1536.5 1315.28 1536.5 Q1310.38 1536.5 1307.42 1539.27 Q1304.49 1542.04 1304.05 1547.07 L1324.93 1547.04 Z" fill="#000000" fill-rule="nonzero" fill-opacity="1" /><path clip-path="url(#clip400)" d="M1360.58 1518.52 L1374.07 1518.52 L1374.07 1523.07 L1366.43 1523.07 L1366.43 1572.09 L1374.07 1572.09 L1374.07 1576.64 L1360.58 1576.64 L1360.58 1518.52 Z" fill="#000000" fill-rule="nonzero" fill-opacity="1" /><path clip-path="url(#clip400)" d="M1409.27 1533.45 L1409.27 1538.98 Q1406.79 1537.71 1404.12 1537.07 Q1401.44 1536.44 1398.58 1536.44 Q1394.22 1536.44 1392.02 1537.77 Q1389.86 1539.11 1389.86 1541.79 Q1389.86 1543.82 1391.42 1545 Q1392.98 1546.15 1397.69 1547.2 L1399.69 1547.64 Q1405.93 1548.98 1408.54 1551.43 Q1411.18 1553.85 1411.18 1558.21 Q1411.18 1563.17 1407.24 1566.07 Q1403.32 1568.97 1396.45 1568.97 Q1393.58 1568.97 1390.46 1568.39 Q1387.38 1567.85 1383.94 1566.74 L1383.94 1560.69 Q1387.18 1562.38 1390.34 1563.24 Q1393.49 1564.07 1396.57 1564.07 Q1400.71 1564.07 1402.94 1562.66 Q1405.17 1561.23 1405.17 1558.65 Q1405.17 1556.27 1403.54 1554.99 Q1401.95 1553.72 1396.51 1552.54 L1394.47 1552.07 Q1389.03 1550.92 1386.61 1548.56 Q1384.19 1546.18 1384.19 1542.04 Q1384.19 1537.01 1387.76 1534.27 Q1391.32 1531.54 1397.88 1531.54 Q1401.13 1531.54 1403.99 1532.01 Q1406.85 1532.49 1409.27 1533.45 Z" fill="#000000" fill-rule="nonzero" fill-opacity="1" /><path clip-path="url(#clip400)" d="M1434.2 1518.52 L1434.2 1576.64 L1420.7 1576.64 L1420.7 1572.09 L1428.31 1572.09 L1428.31 1523.07 L1420.7 1523.07 L1420.7 1518.52 L1434.2 1518.52 Z" fill="#000000" fill-rule="nonzero" fill-opacity="1" /><polyline clip-path="url(#clip402)" style="stroke:#000000; stroke-linecap:round; stroke-linejoin:round; stroke-width:2; stroke-opacity:0.1; fill:none" points="255.977,1337.78 2352.76,1337.78 "/>
<polyline clip-path="url(#clip402)" style="stroke:#000000; stroke-linecap:round; stroke-linejoin:round; stroke-width:2; stroke-opacity:0.1; fill:none" points="255.977,1022.04 2352.76,1022.04 "/>
<polyline clip-path="url(#clip402)" style="stroke:#000000; stroke-linecap:round; stroke-linejoin:round; stroke-width:2; stroke-opacity:0.1; fill:none" points="255.977,706.291 2352.76,706.291 "/>
<polyline clip-path="url(#clip402)" style="stroke:#000000; stroke-linecap:round; stroke-linejoin:round; stroke-width:2; stroke-opacity:0.1; fill:none" points="255.977,390.544 2352.76,390.544 "/>
<polyline clip-path="url(#clip402)" style="stroke:#000000; stroke-linecap:round; stroke-linejoin:round; stroke-width:2; stroke-opacity:0.1; fill:none" points="255.977,74.7975 2352.76,74.7975 "/>
<polyline clip-path="url(#clip400)" style="stroke:#000000; stroke-linecap:round; stroke-linejoin:round; stroke-width:4; stroke-opacity:1; fill:none" points="255.977,1423.18 255.977,47.2441 "/>
<polyline clip-path="url(#clip400)" style="stroke:#000000; stroke-linecap:round; stroke-linejoin:round; stroke-width:4; stroke-opacity:1; fill:none" points="255.977,1337.78 274.875,1337.78 "/>
<polyline clip-path="url(#clip400)" style="stroke:#000000; stroke-linecap:round; stroke-linejoin:round; stroke-width:4; stroke-opacity:1; fill:none" points="255.977,1022.04 274.875,1022.04 "/>
<polyline clip-path="url(#clip400)" style="stroke:#000000; stroke-linecap:round; stroke-linejoin:round; stroke-width:4; stroke-opacity:1; fill:none" points="255.977,706.291 274.875,706.291 "/>
<polyline clip-path="url(#clip400)" style="stroke:#000000; stroke-linecap:round; stroke-linejoin:round; stroke-width:4; stroke-opacity:1; fill:none" points="255.977,390.544 274.875,390.544 "/>
<polyline clip-path="url(#clip400)" style="stroke:#000000; stroke-linecap:round; stroke-linejoin:round; stroke-width:4; stroke-opacity:1; fill:none" points="255.977,74.7975 274.875,74.7975 "/>
<path clip-path="url(#clip400)" d="M114.631 1338.23 L144.306 1338.23 L144.306 1342.17 L114.631 1342.17 L114.631 1338.23 Z" fill="#000000" fill-rule="nonzero" fill-opacity="1" /><path clip-path="url(#clip400)" d="M164.399 1323.58 Q160.788 1323.58 158.959 1327.15 Q157.153 1330.69 157.153 1337.82 Q157.153 1344.92 158.959 1348.49 Q160.788 1352.03 164.399 1352.03 Q168.033 1352.03 169.839 1348.49 Q171.667 1344.92 171.667 1337.82 Q171.667 1330.69 169.839 1327.15 Q168.033 1323.58 164.399 1323.58 M164.399 1319.88 Q170.209 1319.88 173.264 1324.49 Q176.343 1329.07 176.343 1337.82 Q176.343 1346.55 173.264 1351.15 Q170.209 1355.73 164.399 1355.73 Q158.589 1355.73 155.51 1351.15 Q152.454 1346.55 152.454 1337.82 Q152.454 1329.07 155.51 1324.49 Q158.589 1319.88 164.399 1319.88 Z" fill="#000000" fill-rule="nonzero" fill-opacity="1" /><path clip-path="url(#clip400)" d="M184.561 1349.18 L189.445 1349.18 L189.445 1355.06 L184.561 1355.06 L184.561 1349.18 Z" fill="#000000" fill-rule="nonzero" fill-opacity="1" /><path clip-path="url(#clip400)" d="M203.658 1351.13 L219.977 1351.13 L219.977 1355.06 L198.033 1355.06 L198.033 1351.13 Q200.695 1348.37 205.278 1343.74 Q209.885 1339.09 211.065 1337.75 Q213.311 1335.23 214.19 1333.49 Q215.093 1331.73 215.093 1330.04 Q215.093 1327.29 213.149 1325.55 Q211.227 1323.81 208.125 1323.81 Q205.926 1323.81 203.473 1324.58 Q201.042 1325.34 198.264 1326.89 L198.264 1322.17 Q201.088 1321.04 203.542 1320.46 Q205.996 1319.88 208.033 1319.88 Q213.403 1319.88 216.598 1322.56 Q219.792 1325.25 219.792 1329.74 Q219.792 1331.87 218.982 1333.79 Q218.195 1335.69 216.088 1338.28 Q215.51 1338.95 212.408 1342.17 Q209.306 1345.36 203.658 1351.13 Z" fill="#000000" fill-rule="nonzero" fill-opacity="1" /><path clip-path="url(#clip400)" d="M114.26 1022.49 L143.936 1022.49 L143.936 1026.42 L114.26 1026.42 L114.26 1022.49 Z" fill="#000000" fill-rule="nonzero" fill-opacity="1" /><path clip-path="url(#clip400)" d="M164.028 1007.84 Q160.417 1007.84 158.589 1011.4 Q156.783 1014.94 156.783 1022.07 Q156.783 1029.18 158.589 1032.74 Q160.417 1036.28 164.028 1036.28 Q167.663 1036.28 169.468 1032.74 Q171.297 1029.18 171.297 1022.07 Q171.297 1014.94 169.468 1011.4 Q167.663 1007.84 164.028 1007.84 M164.028 1004.13 Q169.839 1004.13 172.894 1008.74 Q175.973 1013.32 175.973 1022.07 Q175.973 1030.8 172.894 1035.41 Q169.839 1039.99 164.028 1039.99 Q158.218 1039.99 155.14 1035.41 Q152.084 1030.8 152.084 1022.07 Q152.084 1013.32 155.14 1008.74 Q158.218 1004.13 164.028 1004.13 Z" fill="#000000" fill-rule="nonzero" fill-opacity="1" /><path clip-path="url(#clip400)" d="M184.19 1033.44 L189.075 1033.44 L189.075 1039.32 L184.19 1039.32 L184.19 1033.44 Z" fill="#000000" fill-rule="nonzero" fill-opacity="1" /><path clip-path="url(#clip400)" d="M200.07 1035.38 L207.709 1035.38 L207.709 1009.02 L199.399 1010.68 L199.399 1006.42 L207.662 1004.76 L212.338 1004.76 L212.338 1035.38 L219.977 1035.38 L219.977 1039.32 L200.07 1039.32 L200.07 1035.38 Z" fill="#000000" fill-rule="nonzero" fill-opacity="1" /><path clip-path="url(#clip400)" d="M162.802 692.089 Q159.19 692.089 157.362 695.654 Q155.556 699.196 155.556 706.325 Q155.556 713.432 157.362 716.997 Q159.19 720.538 162.802 720.538 Q166.436 720.538 168.241 716.997 Q170.07 713.432 170.07 706.325 Q170.07 699.196 168.241 695.654 Q166.436 692.089 162.802 692.089 M162.802 688.386 Q168.612 688.386 171.667 692.992 Q174.746 697.575 174.746 706.325 Q174.746 715.052 171.667 719.659 Q168.612 724.242 162.802 724.242 Q156.991 724.242 153.913 719.659 Q150.857 715.052 150.857 706.325 Q150.857 697.575 153.913 692.992 Q156.991 688.386 162.802 688.386 Z" fill="#000000" fill-rule="nonzero" fill-opacity="1" /><path clip-path="url(#clip400)" d="M182.963 717.691 L187.848 717.691 L187.848 723.571 L182.963 723.571 L182.963 717.691 Z" fill="#000000" fill-rule="nonzero" fill-opacity="1" /><path clip-path="url(#clip400)" d="M208.033 692.089 Q204.422 692.089 202.593 695.654 Q200.787 699.196 200.787 706.325 Q200.787 713.432 202.593 716.997 Q204.422 720.538 208.033 720.538 Q211.667 720.538 213.473 716.997 Q215.301 713.432 215.301 706.325 Q215.301 699.196 213.473 695.654 Q211.667 692.089 208.033 692.089 M208.033 688.386 Q213.843 688.386 216.898 692.992 Q219.977 697.575 219.977 706.325 Q219.977 715.052 216.898 719.659 Q213.843 724.242 208.033 724.242 Q202.223 724.242 199.144 719.659 Q196.088 715.052 196.088 706.325 Q196.088 697.575 199.144 692.992 Q202.223 688.386 208.033 688.386 Z" fill="#000000" fill-rule="nonzero" fill-opacity="1" /><path clip-path="url(#clip400)" d="M164.028 376.343 Q160.417 376.343 158.589 379.907 Q156.783 383.449 156.783 390.579 Q156.783 397.685 158.589 401.25 Q160.417 404.792 164.028 404.792 Q167.663 404.792 169.468 401.25 Q171.297 397.685 171.297 390.579 Q171.297 383.449 169.468 379.907 Q167.663 376.343 164.028 376.343 M164.028 372.639 Q169.839 372.639 172.894 377.245 Q175.973 381.829 175.973 390.579 Q175.973 399.306 172.894 403.912 Q169.839 408.495 164.028 408.495 Q158.218 408.495 155.14 403.912 Q152.084 399.306 152.084 390.579 Q152.084 381.829 155.14 377.245 Q158.218 372.639 164.028 372.639 Z" fill="#000000" fill-rule="nonzero" fill-opacity="1" /><path clip-path="url(#clip400)" d="M184.19 401.944 L189.075 401.944 L189.075 407.824 L184.19 407.824 L184.19 401.944 Z" fill="#000000" fill-rule="nonzero" fill-opacity="1" /><path clip-path="url(#clip400)" d="M200.07 403.889 L207.709 403.889 L207.709 377.523 L199.399 379.19 L199.399 374.931 L207.662 373.264 L212.338 373.264 L212.338 403.889 L219.977 403.889 L219.977 407.824 L200.07 407.824 L200.07 403.889 Z" fill="#000000" fill-rule="nonzero" fill-opacity="1" /><path clip-path="url(#clip400)" d="M164.399 60.5962 Q160.788 60.5962 158.959 64.161 Q157.153 67.7026 157.153 74.8322 Q157.153 81.9386 158.959 85.5034 Q160.788 89.0451 164.399 89.0451 Q168.033 89.0451 169.839 85.5034 Q171.667 81.9386 171.667 74.8322 Q171.667 67.7026 169.839 64.161 Q168.033 60.5962 164.399 60.5962 M164.399 56.8925 Q170.209 56.8925 173.264 61.4989 Q176.343 66.0822 176.343 74.8322 Q176.343 83.559 173.264 88.1655 Q170.209 92.7488 164.399 92.7488 Q158.589 92.7488 155.51 88.1655 Q152.454 83.559 152.454 74.8322 Q152.454 66.0822 155.51 61.4989 Q158.589 56.8925 164.399 56.8925 Z" fill="#000000" fill-rule="nonzero" fill-opacity="1" /><path clip-path="url(#clip400)" d="M184.561 86.1979 L189.445 86.1979 L189.445 92.0775 L184.561 92.0775 L184.561 86.1979 Z" fill="#000000" fill-rule="nonzero" fill-opacity="1" /><path clip-path="url(#clip400)" d="M203.658 88.1423 L219.977 88.1423 L219.977 92.0775 L198.033 92.0775 L198.033 88.1423 Q200.695 85.3877 205.278 80.7581 Q209.885 76.1053 211.065 74.7628 Q213.311 72.2396 214.19 70.5035 Q215.093 68.7443 215.093 67.0545 Q215.093 64.2998 213.149 62.5637 Q211.227 60.8276 208.125 60.8276 Q205.926 60.8276 203.473 61.5915 Q201.042 62.3554 198.264 63.9063 L198.264 59.1841 Q201.088 58.0499 203.542 57.4712 Q205.996 56.8925 208.033 56.8925 Q213.403 56.8925 216.598 59.5776 Q219.792 62.2628 219.792 66.7535 Q219.792 68.8832 218.982 70.8044 Q218.195 72.7026 216.088 75.2952 Q215.51 75.9664 212.408 79.184 Q209.306 82.3785 203.658 88.1423 Z" fill="#000000" fill-rule="nonzero" fill-opacity="1" /><path clip-path="url(#clip400)" d="M20.8447 823.791 Q20.8447 830.793 26.0645 834.931 Q31.2844 839.037 40.2919 839.037 Q49.2675 839.037 54.4874 834.931 Q59.7073 830.793 59.7073 823.791 Q59.7073 816.788 54.4874 812.714 Q49.2675 808.609 40.2919 808.609 Q31.2844 808.609 26.0645 812.714 Q20.8447 816.788 20.8447 823.791 M15.6248 823.791 Q15.6248 813.797 22.3406 807.813 Q29.0246 801.829 40.2919 801.829 Q51.5274 801.829 58.2432 807.813 Q64.9272 813.797 64.9272 823.791 Q64.9272 833.817 58.2432 839.832 Q51.5592 845.816 40.2919 845.816 Q29.0246 845.816 22.3406 839.832 Q15.6248 833.817 15.6248 823.791 Z" fill="#000000" fill-rule="nonzero" fill-opacity="1" /><path clip-path="url(#clip400)" d="M49.9359 792.631 L28.3562 792.631 L28.3562 786.774 L49.7131 786.774 Q54.7739 786.774 57.3202 784.801 Q59.8346 782.827 59.8346 778.881 Q59.8346 774.138 56.8109 771.401 Q53.7872 768.632 48.5673 768.632 L28.3562 768.632 L28.3562 762.775 L64.0042 762.775 L64.0042 768.632 L58.5296 768.632 Q61.7762 770.764 63.3676 773.597 Q64.9272 776.398 64.9272 780.122 Q64.9272 786.265 61.1078 789.448 Q57.2883 792.631 49.9359 792.631 M27.4968 777.894 L27.4968 777.894 Z" fill="#000000" fill-rule="nonzero" fill-opacity="1" /><path clip-path="url(#clip400)" d="M18.2347 744.92 L28.3562 744.92 L28.3562 732.857 L32.9077 732.857 L32.9077 744.92 L52.2594 744.92 Q56.6199 744.92 57.8613 743.742 Q59.1026 742.533 59.1026 738.872 L59.1026 732.857 L64.0042 732.857 L64.0042 738.872 Q64.0042 745.652 61.4897 748.23 Q58.9434 750.808 52.2594 750.808 L32.9077 750.808 L32.9077 755.105 L28.3562 755.105 L28.3562 750.808 L18.2347 750.808 L18.2347 744.92 Z" fill="#000000" fill-rule="nonzero" fill-opacity="1" /><path clip-path="url(#clip400)" d="M58.657 719.489 L77.5631 719.489 L77.5631 725.377 L28.3562 725.377 L28.3562 719.489 L33.7671 719.489 Q30.5842 717.643 29.0564 714.842 Q27.4968 712.009 27.4968 708.094 Q27.4968 701.601 32.6531 697.559 Q37.8093 693.485 46.212 693.485 Q54.6147 693.485 59.771 697.559 Q64.9272 701.601 64.9272 708.094 Q64.9272 712.009 63.3994 714.842 Q61.8398 717.643 58.657 719.489 M46.212 699.564 Q39.7508 699.564 36.0905 702.238 Q32.3984 704.879 32.3984 709.526 Q32.3984 714.173 36.0905 716.847 Q39.7508 719.489 46.212 719.489 Q52.6732 719.489 56.3653 716.847 Q60.0256 714.173 60.0256 709.526 Q60.0256 704.879 56.3653 702.238 Q52.6732 699.564 46.212 699.564 Z" fill="#000000" fill-rule="nonzero" fill-opacity="1" /><path clip-path="url(#clip400)" d="M49.9359 684.382 L28.3562 684.382 L28.3562 678.525 L49.7131 678.525 Q54.7739 678.525 57.3202 676.552 Q59.8346 674.579 59.8346 670.632 Q59.8346 665.889 56.8109 663.152 Q53.7872 660.383 48.5673 660.383 L28.3562 660.383 L28.3562 654.527 L64.0042 654.527 L64.0042 660.383 L58.5296 660.383 Q61.7762 662.516 63.3676 665.348 Q64.9272 668.149 64.9272 671.873 Q64.9272 678.016 61.1078 681.199 Q57.2883 684.382 49.9359 684.382 M27.4968 669.645 L27.4968 669.645 Z" fill="#000000" fill-rule="nonzero" fill-opacity="1" /><path clip-path="url(#clip400)" d="M18.2347 636.671 L28.3562 636.671 L28.3562 624.608 L32.9077 624.608 L32.9077 636.671 L52.2594 636.671 Q56.6199 636.671 57.8613 635.493 Q59.1026 634.284 59.1026 630.623 L59.1026 624.608 L64.0042 624.608 L64.0042 630.623 Q64.0042 637.403 61.4897 639.981 Q58.9434 642.559 52.2594 642.559 L32.9077 642.559 L32.9077 646.856 L28.3562 646.856 L28.3562 642.559 L18.2347 642.559 L18.2347 636.671 Z" fill="#000000" fill-rule="nonzero" fill-opacity="1" /><polyline clip-path="url(#clip402)" style="stroke:#009af9; stroke-linecap:round; stroke-linejoin:round; stroke-width:4; stroke-opacity:1; fill:none" points="315.32,706.291 319.284,706.291 323.248,706.291 323.248,737.5 327.212,737.5 327.212,767.791 331.176,767.791 331.176,796.896 335.141,796.896 335.141,824.578 339.105,824.578 339.105,850.633 343.069,850.633 343.069,874.888 347.033,874.888 347.033,897.211 350.997,897.211 350.997,917.509 354.961,917.509 354.961,935.727 358.925,935.727 358.925,951.85 362.889,951.85 362.889,903.484 366.853,903.484 366.853,854.948 370.818,854.948 370.818,806.87 374.782,806.87 374.782,759.854 378.746,759.854 378.746,714.469 382.71,714.469 382.71,733.655 386.674,733.655 386.674,753.625 390.638,753.625 390.638,774.251 394.602,774.251 394.602,795.395 398.566,795.395 398.566,816.912 402.53,816.912 402.53,838.648 406.495,838.648 406.495,860.449 410.459,860.449 410.459,882.159 414.423,882.159 414.423,903.628 418.387,903.628 418.387,924.711 422.351,924.711 422.351,882.853 426.315,882.853 426.315,842.188 430.279,842.188 430.279,803.138 434.243,803.138 434.243,766.084 438.208,766.084 438.208,731.359 442.172,731.359 442.172,761.664 446.136,761.664 446.136,792.965 450.1,792.965 450.1,824.898 454.064,824.898 454.064,857.091 458.028,857.091 458.028,889.177 461.992,889.177 461.992,858.38 465.956,858.38 465.956,828.619 469.92,828.619 469.92,800.108 473.885,800.108 473.885,773.034 477.849,773.034 477.849,747.554 481.813,747.554 481.813,723.792 485.777,723.792 485.777,701.839 489.741,701.839 489.741,681.748 493.705,681.748 493.705,663.541 497.669,663.541 497.669,647.202 501.633,647.202 501.633,695.104 505.597,695.104 505.597,742.909 509.562,742.909 509.562,789.977 513.526,789.977 513.526,835.7 517.49,835.7 517.49,879.511 521.454,879.511 521.454,858.473 525.418,858.473 525.418,836.39 529.382,836.39 529.382,813.404 533.346,813.404 533.346,789.674 537.31,789.674 537.31,765.375 541.275,765.375 541.275,740.688 545.239,740.688 545.239,715.801 549.203,715.801 549.203,690.903 553.167,690.903 553.167,666.179 557.131,666.179 557.131,641.812 561.095,641.812 561.095,680.392 565.059,680.392 565.059,717.819 569.023,717.819 569.023,753.706 572.987,753.706 572.987,787.703 576.952,787.703 576.952,819.506 580.916,819.506 580.916,848.859 584.88,848.859 584.88,875.558 588.844,875.558 588.844,899.455 592.808,899.455 592.808,920.46 596.772,920.46 596.772,938.537 600.736,938.537 600.736,953.708 604.7,953.708 604.7,966.047 608.664,966.047 608.664,975.679 612.629,975.679 612.629,982.777 616.593,982.777 616.593,987.554 620.557,987.554 620.557,990.261 624.521,990.261 624.521,991.178 628.485,991.178 628.485,990.612 632.449,990.612 632.449,988.885 636.413,988.885 636.413,986.33 640.377,986.33 640.377,983.284 644.341,983.284 644.341,980.082 648.306,980.082 648.306,977.048 652.27,977.048 652.27,974.492 656.234,974.492 656.234,972.702 660.198,972.702 660.198,971.941 664.162,971.941 664.162,972.439 668.126,972.439 668.126,974.395 672.09,974.395 672.09,977.97 676.054,977.97 676.054,983.284 680.019,983.284 680.019,990.42 683.983,990.42 683.983,999.419 687.947,999.419 687.947,1010.28 691.911,1010.28 691.911,1022.97 695.875,1022.97 695.875,1037.4 699.839,1037.4 699.839,1053.48 703.803,1053.48 703.803,1071.05 707.767,1071.05 707.767,1089.96 711.731,1089.96 711.731,1110 715.696,1110 715.696,1130.97 719.66,1130.97 719.66,1152.64 723.624,1152.64 723.624,1174.78 727.588,1174.78 727.588,1197.15 731.552,1197.15 731.552,1219.51 735.516,1219.51 735.516,1241.63 739.48,1241.63 739.48,1263.28 743.444,1263.28 743.444,1284.26 747.408,1284.26 747.408,1304.37 751.373,1304.37 751.373,1323.44 755.337,1323.44 755.337,1341.32 759.301,1341.32 759.301,1295.47 763.265,1295.47 763.265,1250.06 767.229,1250.06 767.229,1205.54 771.193,1205.54 771.193,1162.37 775.157,1162.37 775.157,1120.93 779.121,1120.93 779.121,1144.02 783.085,1144.02 783.085,1167.68 787.05,1167.68 787.05,1191.64 791.014,1191.64 791.014,1215.64 794.978,1215.64 794.978,1239.4 798.942,1239.4 798.942,1200.25 802.906,1200.25 802.906,1162.21 806.87,1162.21 806.87,1125.59 810.834,1125.59 810.834,1090.66 814.798,1090.66 814.798,1057.67 818.763,1057.67 818.763,1089.23 822.727,1089.23 822.727,1121.24 826.691,1121.24 826.691,1153.28 830.655,1153.28 830.655,1184.93 834.619,1184.93 834.619,1215.8 838.583,1215.8 838.583,1183.1 842.547,1183.1 842.547,1150.75 846.511,1150.75 846.511,1118.97 850.475,1118.97 850.475,1087.99 854.44,1087.99 854.44,1058 858.404,1058 858.404,1091.6 862.368,1091.6 862.368,1124.68 866.332,1124.68 866.332,1156.83 870.296,1156.83 870.296,1187.68 874.26,1187.68 874.26,1216.88 878.224,1216.88 878.224,1181.71 882.188,1181.71 882.188,1146.17 886.152,1146.17 886.152,1110.58 890.117,1110.58 890.117,1075.26 894.081,1075.26 894.081,1040.51 898.045,1040.51 898.045,1069.04 902.009,1069.04 902.009,1096.87 905.973,1096.87 905.973,1123.71 909.937,1123.71 909.937,1149.28 913.901,1149.28 913.901,1173.36 917.865,1173.36 917.865,1195.75 921.829,1195.75 921.829,1216.28 925.794,1216.28 925.794,1234.82 929.758,1234.82 929.758,1251.31 933.722,1251.31 933.722,1265.69 937.686,1265.69 937.686,1215.54 941.65,1215.54 941.65,1165.15 945.614,1165.15 945.614,1115.15 949.578,1115.15 949.578,1066.09 953.542,1066.09 953.542,1018.55 957.507,1018.55 957.507,973.036 961.471,973.036 961.471,929.999 965.435,929.999 965.435,889.843 969.399,889.843 969.399,852.905 973.363,852.905 973.363,819.451 977.327,819.451 977.327,789.674 981.291,789.674 981.291,763.694 985.255,763.694 985.255,741.555 989.219,741.555 989.219,723.228 993.184,723.228 993.184,708.614 997.148,708.614 997.148,759.967 1001.11,759.967 1001.11,812.799 1005.08,812.799 1005.08,866.298 1009.04,866.298 1009.04,919.657 1013,919.657 1013,972.094 1016.97,972.094 1016.97,1022.86 1020.93,1022.86 1020.93,1071.28 1024.9,1071.28 1024.9,1116.71 1028.86,1116.71 1028.86,1158.6 1032.82,1158.6 1032.82,1196.49 1036.79,1196.49 1036.79,1230 1040.75,1230 1040.75,1258.83 1044.72,1258.83 1044.72,1282.81 1048.68,1282.81 1048.68,1301.85 1052.65,1301.85 1052.65,1315.96 1056.61,1315.96 1056.61,1262.82 1060.57,1262.82 1060.57,1206.88 1064.54,1206.88 1064.54,1148.96 1068.5,1148.96 1068.5,1089.88 1072.47,1089.88 1072.47,1030.47 1076.43,1030.47 1076.43,971.537 1080.39,971.537 1080.39,913.878 1084.36,913.878 1084.36,858.229 1088.32,858.229 1088.32,805.273 1092.29,805.273 1092.29,755.622 1096.25,755.622 1096.25,709.81 1100.21,709.81 1100.21,668.282 1104.18,668.282 1104.18,631.389 1108.14,631.389 1108.14,599.386 1112.11,599.386 1112.11,572.424 1116.07,572.424 1116.07,550.556 1120.04,550.556 1120.04,533.737 1124,533.737 1124,521.825 1127.96,521.825 1127.96,514.592 1131.93,514.592 1131.93,511.724 1135.89,511.724 1135.89,575.255 1139.86,575.255 1139.86,640.48 1143.82,640.48 1143.82,706.363 1147.78,706.363 1147.78,771.886 1151.75,771.886 1151.75,836.063 1155.71,836.063 1155.71,897.962 1159.68,897.962 1159.68,956.721 1163.64,956.721 1163.64,1011.56 1167.6,1011.56 1167.6,1061.8 1171.57,1061.8 1171.57,1106.86 1175.53,1106.86 1175.53,1083.88 1179.5,1083.88 1179.5,1056.76 1183.46,1056.76 1183.46,1025.84 1187.43,1025.84 1187.43,991.502 1191.39,991.502 1191.39,954.191 1195.35,954.191 1195.35,914.405 1199.32,914.405 1199.32,872.678 1203.28,872.678 1203.28,829.571 1207.25,829.571 1207.25,785.655 1211.21,785.655 1211.21,741.507 1215.17,741.507 1215.17,760.112 1219.14,760.112 1219.14,777.758 1223.1,777.758 1223.1,794.427 1227.07,794.427 1227.07,810.121 1231.03,810.121 1231.03,824.857 1234.99,824.857 1234.99,838.666 1238.96,838.666 1238.96,851.595 1242.92,851.595 1242.92,863.704 1246.89,863.704 1246.89,875.063 1250.85,875.063 1250.85,885.753 1254.82,885.753 1254.82,895.863 1258.78,895.863 1258.78,905.487 1262.74,905.487 1262.74,914.725 1266.71,914.725 1266.71,923.678 1270.67,923.678 1270.67,932.445 1274.64,932.445 1274.64,941.126 1278.6,941.126 1278.6,949.815 1282.56,949.815 1282.56,958.601 1286.53,958.601 1286.53,967.568 1290.49,967.568 1290.49,976.787 1294.46,976.787 1294.46,986.324 1298.42,986.324 1298.42,996.231 1302.38,996.231 1302.38,1006.55 1306.35,1006.55 1306.35,1017.31 1310.31,1017.31 1310.31,1028.53 1314.28,1028.53 1314.28,977.803 1318.24,977.803 1318.24,929.371 1322.21,929.371 1322.21,883.753 1326.17,883.753 1326.17,841.396 1330.13,841.396 1330.13,802.675 1334.1,802.675 1334.1,767.885 1338.06,767.885 1338.06,737.239 1342.03,737.239 1342.03,710.863 1345.99,710.863 1345.99,688.804 1349.95,688.804 1349.95,671.021 1353.92,671.021 1353.92,657.397 1357.88,657.397 1357.88,647.739 1361.85,647.739 1361.85,641.784 1365.81,641.784 1365.81,639.208 1369.77,639.208 1369.77,639.635 1373.74,639.635 1373.74,705.061 1377.7,705.061 1377.7,770.771 1381.67,770.771 1381.67,835.752 1385.63,835.752 1385.63,899.031 1389.6,899.031 1389.6,959.695 1393.56,959.695 1393.56,1016.91 1397.52,1016.91 1397.52,1069.92 1401.49,1069.92 1401.49,1118.09 1405.45,1118.09 1405.45,1160.87 1409.42,1160.87 1409.42,1197.87 1413.38,1197.87 1413.38,1228.78 1417.34,1228.78 1417.34,1253.44 1421.31,1253.44 1421.31,1271.8 1425.27,1271.8 1425.27,1283.96 1429.24,1283.96 1429.24,1290.11 1433.2,1290.11 1433.2,1290.56 1437.16,1290.56 1437.16,1285.71 1441.13,1285.71 1441.13,1276.07 1445.09,1276.07 1445.09,1262.21 1449.06,1262.21 1449.06,1244.78 1453.02,1244.78 1453.02,1162.04 1456.98,1162.04 1456.98,1078.96 1460.95,1078.96 1460.95,996.839 1464.91,996.839 1464.91,916.879 1468.88,916.879 1468.88,840.23 1472.84,840.23 1472.84,767.943 1476.81,767.943 1476.81,700.954 1480.77,700.954 1480.77,640.072 1484.73,640.072 1484.73,585.965 1488.7,585.965 1488.7,539.152 1492.66,539.152 1492.66,499.996 1496.63,499.996 1496.63,468.702 1500.59,468.702 1500.59,445.317 1504.55,445.317 1504.55,429.737 1508.52,429.737 1508.52,421.708 1512.48,421.708 1512.48,483.258 1516.45,483.258 1516.45,549.614 1520.41,549.614 1520.41,619.615 1524.37,619.615 1524.37,692.059 1528.34,692.059 1528.34,765.731 1532.3,765.731 1532.3,777.005 1536.27,777.005 1536.27,788.962 1540.23,788.962 1540.23,801.016 1544.2,801.016 1544.2,812.597 1548.16,812.597 1548.16,823.164 1552.12,823.164 1552.12,894.635 1556.09,894.635 1556.09,962.301 1560.05,962.301 1560.05,1025.23 1564.02,1025.23 1564.02,1082.61 1567.98,1082.61 1567.98,1133.76 1571.94,1133.76 1571.94,1178.15 1575.91,1178.15 1575.91,1215.36 1579.87,1215.36 1579.87,1245.16 1583.84,1245.16 1583.84,1267.46 1587.8,1267.46 1587.8,1282.31 1591.76,1282.31 1591.76,1289.89 1595.73,1289.89 1595.73,1290.55 1599.69,1290.55 1599.69,1284.73 1603.66,1284.73 1603.66,1272.99 1607.62,1272.99 1607.62,1256.01 1611.59,1256.01 1611.59,1234.53 1615.55,1234.53 1615.55,1209.34 1619.51,1209.34 1619.51,1181.31 1623.48,1181.31 1623.48,1151.31 1627.44,1151.31 1627.44,1120.24 1631.41,1120.24 1631.41,1026.57 1635.37,1026.57 1635.37,935.401 1639.33,935.401 1639.33,848.095 1643.3,848.095 1643.3,765.887 1647.26,765.887 1647.26,689.881 1651.23,689.881 1651.23,621.031 1655.19,621.031 1655.19,560.125 1659.15,560.125 1659.15,507.775 1663.12,507.775 1663.12,464.411 1667.08,464.411 1667.08,430.275 1671.05,430.275 1671.05,467.846 1675.01,467.846 1675.01,512.742 1678.98,512.742 1678.98,564.135 1682.94,564.135 1682.94,621.091 1686.9,621.091 1686.9,682.592 1690.87,682.592 1690.87,747.557 1694.83,747.557 1694.83,814.868 1698.8,814.868 1698.8,883.389 1702.76,883.389 1702.76,951.993 1706.72,951.993 1706.72,1019.58 1710.69,1019.58 1710.69,1085.11 1714.65,1085.11 1714.65,1147.59 1718.62,1147.59 1718.62,1206.13 1722.58,1206.13 1722.58,1259.94 1726.54,1259.94 1726.54,1308.35 1730.51,1308.35 1730.51,1288.38 1734.47,1288.38 1734.47,1263.86 1738.44,1263.86 1738.44,1235.04 1742.4,1235.04 1742.4,1202.25 1746.37,1202.25 1746.37,1165.89 1750.33,1165.89 1750.33,1188.82 1754.29,1188.82 1754.29,1207.32 1758.26,1207.32 1758.26,1221.39 1762.22,1221.39 1762.22,1231.14 1766.19,1231.14 1766.19,1236.76 1770.15,1236.76 1770.15,1238.49 1774.11,1238.49 1774.11,1236.67 1778.08,1236.67 1778.08,1231.67 1782.04,1231.67 1782.04,1223.92 1786.01,1223.92 1786.01,1213.89 1789.97,1213.89 1789.97,1202.08 1793.93,1202.08 1793.93,1189 1797.9,1189 1797.9,1175.18 1801.86,1175.18 1801.86,1161.14 1805.83,1161.14 1805.83,1147.38 1809.79,1147.38 1809.79,1071.96 1813.76,1071.96 1813.76,999.604 1817.72,999.604 1817.72,931.246 1821.68,931.246 1821.68,867.73 1825.65,867.73 1825.65,809.782 1829.61,809.782 1829.61,757.998 1833.58,757.998 1833.58,712.843 1837.54,712.843 1837.54,674.639 1841.5,674.639 1841.5,643.565 1845.47,643.565 1845.47,619.66 1849.43,619.66 1849.43,665.243 1853.4,665.243 1853.4,715.821 1857.36,715.821 1857.36,770.507 1861.32,770.507 1861.32,828.355 1865.29,828.355 1865.29,888.383 1869.25,888.383 1869.25,887.172 1873.22,887.172 1873.22,887.985 1877.18,887.985 1877.18,890.383 1881.15,890.383 1881.15,893.911 1885.11,893.911 1885.11,898.109 1889.07,898.109 1889.07,964.941 1893.04,964.941 1893.04,1029.7 1897,1029.7 1897,1091.45 1900.97,1091.45 1900.97,1149.3 1904.93,1149.3 1904.93,1202.5 1908.89,1202.5 1908.89,1187.96 1912.86,1187.96 1912.86,1169.41 1916.82,1169.41 1916.82,1146.97 1920.79,1146.97 1920.79,1120.84 1924.75,1120.84 1924.75,1091.3 1928.71,1091.3 1928.71,1058.67 1932.68,1058.67 1932.68,1023.35 1936.64,1023.35 1936.64,985.773 1940.61,985.773 1940.61,946.398 1944.57,946.398 1944.57,905.721 1948.54,905.721 1948.54,864.25 1952.5,864.25 1952.5,822.497 1956.46,822.497 1956.46,780.964 1960.43,780.964 1960.43,740.143 1964.39,740.143 1964.39,700.495 1968.36,700.495 1968.36,662.452 1972.32,662.452 1972.32,626.4 1976.28,626.4 1976.28,592.683 1980.25,592.683 1980.25,561.588 1984.21,561.588 1984.21,533.346 1988.18,533.346 1988.18,570.548 1992.14,570.548 1992.14,609.046 1996.1,609.046 1996.1,648.356 2000.07,648.356 2000.07,687.989 2004.03,687.989 2004.03,727.461 2008,727.461 2008,703.884 2011.96,703.884 2011.96,681.071 2015.93,681.071 2015.93,659.138 2019.89,659.138 2019.89,638.184 2023.85,638.184 2023.85,618.29 2027.82,618.29 2027.82,599.516 2031.78,599.516 2031.78,581.9 2035.75,581.9 2035.75,565.461 2039.71,565.461 2039.71,550.197 2043.67,550.197 2043.67,536.084 2047.64,536.084 2047.64,585.501 2051.6,585.501 2051.6,634.128 2055.57,634.128 2055.57,681.36 2059.53,681.36 2059.53,726.632 2063.49,726.632 2063.49,769.429 2067.46,769.429 2067.46,746.88 2071.42,746.88 2071.42,722.859 2075.39,722.859 2075.39,697.586 2079.35,697.586 2079.35,671.303 2083.32,671.303 2083.32,644.266 2087.28,644.266 2087.28,616.743 2091.24,616.743 2091.24,589.005 2095.21,589.005 2095.21,561.324 2099.17,561.324 2099.17,533.963 2103.14,533.963 2103.14,507.175 2107.1,507.175 2107.1,481.198 2111.06,481.198 2111.06,456.249 2115.03,456.249 2115.03,432.52 2118.99,432.52 2118.99,410.176 2122.96,410.176 2122.96,389.356 2126.92,389.356 2126.92,370.163 2130.88,370.163 2130.88,352.669 2134.85,352.669 2134.85,336.915 2138.81,336.915 2138.81,322.906 2142.78,322.906 2142.78,310.618 2146.74,310.618 2146.74,299.993 2150.7,299.993 2150.7,290.949 2154.67,290.949 2154.67,283.373 2158.63,283.373 2158.63,277.131 2162.6,277.131 2162.6,272.07 2166.56,272.07 2166.56,268.02 2170.53,268.02 2170.53,264.797 2174.49,264.797 2174.49,262.21 2178.45,262.21 2178.45,260.064 2182.42,260.064 2182.42,258.162 2186.38,258.162 2186.38,256.311 2190.35,256.311 2190.35,254.323 2194.31,254.323 2194.31,252.025 2198.27,252.025 2198.27,249.252 2202.24,249.252 2202.24,245.859 2206.2,245.859 2206.2,241.719 2210.17,241.719 2210.17,236.724 2214.13,236.724 2214.13,230.79 2218.09,230.79 2218.09,223.854 2222.06,223.854 2222.06,215.88 2226.02,215.88 2226.02,206.851 2229.99,206.851 2229.99,196.777 2233.95,196.777 2233.95,185.688 2237.92,185.688 2237.92,173.637 2241.88,173.637 2241.88,160.694 2245.84,160.694 2245.84,146.949 2249.81,146.949 2249.81,132.504 2253.77,132.504 2253.77,117.477 2257.74,117.477 2257.74,101.993 2261.7,101.993 2261.7,86.1857 2265.66,86.1857 2265.66,132.612 2269.63,132.612 2269.63,177.153 2273.59,177.153 2273.59,219.414 2277.56,219.414 2277.56,259.054 2281.52,259.054 2281.52,295.788 2285.48,295.788 2285.48,266.974 2289.45,266.974 2289.45,236.711 2293.41,236.711 2293.41,205.438 "/>
<polyline clip-path="url(#clip402)" style="stroke:#e26f46; stroke-linecap:round; stroke-linejoin:round; stroke-width:4; stroke-opacity:1; fill:none" points="315.32,682.29 319.284,689.773 323.248,699.276 327.212,710.715 331.176,723.963 335.141,738.859 339.105,755.208 343.069,772.792 347.033,791.372 350.997,810.696 354.961,819.621 358.925,789.209 362.889,756.723 366.853,722.774 370.818,687.979 374.782,663.833 378.746,679.605 382.71,698.331 386.674,719.67 390.638,743.234 394.602,768.601 398.566,795.327 402.53,822.954 406.495,851.026 410.459,879.094 414.423,895.842 418.387,872.193 422.351,845.298 426.315,815.689 430.279,783.935 434.243,761.518 438.208,777.72 442.172,795.623 446.136,814.958 450.1,835.43 454.064,845.847 458.028,817.217 461.992,786.747 465.956,754.985 469.92,722.486 473.885,689.798 477.849,657.45 481.813,625.937 485.777,595.718 489.741,567.2 493.705,551.621 497.669,577.948 501.633,608.889 505.597,643.749 509.562,681.772 513.526,711.277 517.49,702.772 521.454,692.96 525.418,681.9 529.382,669.677 533.346,656.399 537.31,642.195 541.275,627.21 545.239,611.603 549.203,595.537 553.167,590.071 557.131,624.051 561.095,660.127 565.059,697.604 569.023,735.788 572.987,773.997 576.952,811.578 580.916,847.923 584.88,882.478 588.844,914.753 592.808,944.333 596.772,970.882 600.736,994.148 604.7,1013.96 608.664,1030.24 612.629,1042.99 616.593,1052.3 620.557,1058.31 624.521,1061.24 628.485,1061.4 632.449,1059.09 636.413,1054.7 640.377,1048.63 644.341,1041.3 648.306,1033.14 652.27,1024.58 656.234,1016.04 660.198,1007.91 664.162,1000.56 668.126,994.324 672.09,989.497 676.054,986.324 680.019,985 683.983,985.667 687.947,988.418 691.911,993.29 695.875,1000.27 699.839,1009.3 703.803,1020.26 707.767,1033.02 711.731,1047.4 715.696,1063.17 719.66,1080.11 723.624,1097.96 727.588,1116.47 731.552,1135.36 735.516,1154.38 739.48,1173.27 743.444,1191.78 747.408,1209.7 751.373,1215.94 755.337,1181.64 759.301,1144.18 763.265,1104.3 767.229,1062.76 771.193,1031.21 775.157,1039.09 779.121,1049.59 783.085,1062.56 787.05,1077.76 791.014,1084.05 794.978,1052.44 798.942,1020.14 802.906,987.643 806.87,955.453 810.834,934.919 814.798,955.148 818.763,979.006 822.727,1005.97 826.691,1035.47 830.655,1056.02 834.619,1038.31 838.583,1019.24 842.547,999.051 846.511,977.996 850.475,967.229 854.44,995.695 858.404,1026.14 862.368,1057.98 866.332,1090.6 870.296,1112.52 874.26,1094.49 878.224,1073.5 882.188,1049.89 886.152,1024.08 890.117,1007.38 894.081,1028.94 898.045,1051.7 902.009,1075.29 905.973,1099.31 909.937,1123.38 913.901,1147.15 917.865,1170.26 921.829,1192.41 925.794,1213.32 929.758,1221.87 933.722,1189.18 937.686,1152.62 941.65,1112.96 945.614,1070.96 949.578,1027.46 953.542,983.242 957.507,939.11 961.471,895.812 965.435,854.048 969.399,814.453 973.363,777.582 977.327,743.908 981.291,713.806 985.255,687.558 989.219,676.229 993.184,708.579 997.148,747.076 1001.11,790.761 1005.08,838.597 1009.04,889.5 1013,942.365 1016.97,996.088 1020.93,1049.6 1024.9,1101.88 1028.86,1151.98 1032.82,1199.05 1036.79,1242.33 1040.75,1281.22 1044.72,1315.19 1048.68,1333.01 1052.65,1305.76 1056.61,1270.87 1060.57,1229.23 1064.54,1181.83 1068.5,1129.78 1072.47,1074.22 1076.43,1016.34 1080.39,957.302 1084.36,898.271 1088.32,840.346 1092.29,784.555 1096.25,731.833 1100.21,683.001 1104.18,638.756 1108.14,599.66 1112.11,566.132 1116.07,538.447 1120.04,516.734 1124,500.98 1127.96,501.927 1131.93,547.981 1135.89,601.241 1139.86,660.371 1143.82,723.959 1147.78,790.557 1151.75,858.71 1155.71,926.995 1159.68,994.047 1163.64,1058.59 1167.6,1108.59 1171.57,1114.32 1175.53,1112.45 1179.5,1103.11 1183.46,1086.62 1187.43,1063.43 1191.39,1034.14 1195.35,999.47 1199.32,960.206 1203.28,917.223 1207.25,882.324 1211.21,885.129 1215.17,889.061 1219.14,894.19 1223.1,900.553 1227.07,908.155 1231.03,916.975 1234.99,926.96 1238.96,938.035 1242.92,950.1 1246.89,963.04 1250.85,976.719 1254.82,990.994 1258.78,1005.71 1262.74,1020.71 1266.71,1035.85 1270.67,1050.95 1274.64,1065.88 1278.6,1080.51 1282.56,1094.69 1286.53,1108.33 1290.49,1121.34 1294.46,1133.62 1298.42,1145.14 1302.38,1155.84 1306.35,1154.84 1310.31,1113.44 1314.28,1069.18 1318.24,1022.96 1322.21,975.653 1326.17,928.155 1330.13,881.303 1334.1,835.89 1338.06,792.641 1342.03,752.2 1345.99,715.117 1349.95,681.842 1353.92,652.721 1357.88,627.987 1361.85,607.764 1365.81,602.958 1369.77,642.16 1373.74,687.672 1377.7,738.37 1381.67,793.063 1385.63,850.523 1389.6,909.51 1393.56,968.809 1397.52,1027.25 1401.49,1083.73 1405.45,1137.25 1409.42,1186.91 1413.38,1231.96 1417.34,1271.76 1421.31,1305.84 1425.27,1333.87 1429.24,1355.68 1433.2,1371.24 1437.16,1380.68 1441.13,1384.24 1445.09,1371.41 1449.06,1314 1453.02,1250.09 1456.98,1181.19 1460.95,1108.84 1464.91,1034.61 1468.88,960.016 1472.84,886.539 1476.81,815.556 1480.77,748.329 1484.73,685.976 1488.7,629.457 1492.66,579.553 1496.63,536.862 1500.59,501.79 1504.55,485.438 1508.52,516.511 1512.48,557.34 1516.45,606.753 1520.41,663.432 1524.37,715.066 1528.34,731.483 1532.3,748.672 1536.27,765.962 1540.23,782.712 1544.2,809.21 1548.16,873.59 1552.12,937.856 1556.09,1000.75 1560.05,1061.09 1564.02,1117.83 1567.98,1170.02 1571.94,1216.89 1575.91,1257.8 1579.87,1292.29 1583.84,1320.06 1587.8,1340.96 1591.76,1355.05 1595.73,1362.48 1599.69,1363.6 1603.66,1358.86 1607.62,1348.82 1611.59,1334.14 1615.55,1315.57 1619.51,1293.88 1623.48,1259.03 1627.44,1183.17 1631.41,1104.65 1635.37,1025.13 1639.33,946.23 1643.3,869.459 1647.26,796.23 1651.23,727.806 1655.19,665.282 1659.15,609.574 1663.12,572.284 1667.08,582.606 1671.05,603.329 1675.01,633.707 1678.98,672.804 1682.94,719.525 1686.9,772.652 1690.87,830.874 1694.83,892.821 1698.8,957.102 1702.76,1022.33 1706.72,1087.17 1710.69,1150.33 1714.65,1210.65 1718.62,1267.06 1722.58,1307.75 1726.54,1303.27 1730.51,1290.52 1734.47,1269.91 1738.44,1242.01 1742.4,1218.44 1746.37,1228.69 1750.33,1236.18 1754.29,1241.05 1758.26,1243.51 1762.22,1243.78 1766.19,1242.17 1770.15,1238.96 1774.11,1234.5 1778.08,1229.13 1782.04,1223.2 1786.01,1217.05 1789.97,1211.01 1793.93,1205.41 1797.9,1200.53 1801.86,1185.74 1805.83,1132.59 1809.79,1078.79 1813.76,1025.32 1817.72,973.128 1821.68,923.096 1825.65,876.008 1829.61,832.546 1833.58,793.284 1837.54,758.671 1841.5,739.919 1845.47,765.906 1849.43,799.186 1853.4,838.858 1857.36,883.914 1861.32,922.379 1865.29,924.44 1869.25,926.455 1873.22,928.124 1877.18,929.17 1881.15,940.231 1885.11,989.768 1889.07,1040.09 1893.04,1090.19 1897,1139.13 1900.97,1175.15 1904.93,1168.77 1908.89,1156.83 1912.86,1139.58 1916.82,1117.42 1920.79,1090.83 1924.75,1060.35 1928.71,1026.61 1932.68,990.288 1936.64,952.077 1940.61,912.692 1944.57,872.84 1948.54,833.209 1952.5,794.452 1956.46,757.173 1960.43,721.915 1964.39,689.154 1968.36,659.285 1972.32,632.623 1976.28,609.394 1980.25,600.624 1984.21,635.046 1988.18,675.11 1992.14,719.853 1996.1,768.249 2000.07,808.344 2004.03,810.384 2008,810.82 2011.96,809.478 2015.93,806.234 2019.89,801.012 2023.85,793.788 2027.82,784.585 2031.78,773.47 2035.75,760.554 2039.71,756.871 2043.67,791.278 2047.64,826.465 2051.6,861.808 2055.57,896.703 2059.53,919.7 2063.49,901.602 2067.46,879.466 2071.42,853.75 2075.39,824.972 2079.35,793.702 2083.32,760.537 2087.28,726.094 2091.24,690.993 2095.21,655.839 2099.17,621.215 2103.14,587.664 2107.1,555.681 2111.06,525.706 2115.03,498.112 2118.99,473.202 2122.96,451.205 2126.92,432.274 2130.88,416.486 2134.85,403.844 2138.81,394.278 2142.78,387.655 2146.74,383.779 2150.7,382.403 2154.67,383.233 2158.63,385.941 2162.6,390.17 2166.56,395.547 2170.53,401.689 2174.49,408.215 2178.45,414.753 2182.42,420.948 2186.38,426.472 2190.35,431.025 2194.31,434.347 2198.27,436.215 2202.24,436.454 2206.2,434.933 2210.17,431.568 2214.13,426.323 2218.09,419.206 2222.06,410.271 2226.02,399.608 2229.99,387.347 2233.95,373.646 2237.92,358.694 2241.88,342.696 2245.84,325.877 2249.81,308.467 2253.77,290.704 2257.74,283.709 2261.7,316.387 2265.66,351.437 2269.63,388.208 2273.59,426.034 2277.56,453.37 2281.52,440.898 2285.48,425.528 2289.45,407.553 2293.41,387.311 "/>
<polyline clip-path="url(#clip402)" style="stroke:#3da44d; stroke-linecap:round; stroke-linejoin:round; stroke-width:4; stroke-opacity:1; fill:none" points="315.32,651.89 319.284,660.964 323.248,671.717 327.212,684.065 331.176,697.888 335.141,713.036 339.105,729.337 343.069,746.597 347.033,764.609 350.997,783.158 354.961,834.035 358.925,802.021 362.889,768.413 366.853,733.816 370.818,698.829 374.782,632.023 378.746,648.953 382.71,668.622 386.674,690.686 390.638,714.762 394.602,740.437 398.566,767.28 402.53,794.852 406.495,822.715 410.459,850.443 414.423,909.646 418.387,884.946 422.351,857.515 426.315,827.863 430.279,796.528 434.243,732.049 438.208,749.987 442.172,769.373 446.136,789.926 450.1,811.348 454.064,865.346 458.028,836.612 461.992,806.359 465.956,775.105 469.92,743.37 473.885,711.662 477.849,680.466 481.813,650.234 485.777,621.378 489.741,594.26 493.705,537.175 497.669,565.372 501.633,597.527 505.597,632.957 509.562,670.933 513.526,742.716 517.49,732.538 521.454,721.159 525.418,708.658 529.382,695.136 533.346,680.715 537.31,665.531 541.275,649.735 545.239,633.486 549.203,616.944 553.167,568.26 557.131,602.597 561.095,638.597 565.059,675.599 569.023,712.946 572.987,750.005 576.952,786.176 580.916,820.904 584.88,853.694 588.844,884.114 592.808,911.806 596.772,936.491 600.736,957.967 604.7,976.117 608.664,990.901 612.629,1002.36 616.593,1010.61 620.557,1015.82 624.521,1018.24 628.485,1018.16 632.449,1015.92 636.413,1011.87 640.377,1006.42 644.341,999.975 648.306,992.935 652.27,985.706 656.234,978.675 660.198,972.207 664.162,966.638 668.126,962.263 672.09,959.34 676.054,958.077 680.019,958.638 683.983,961.134 687.947,965.626 691.911,972.126 695.875,980.6 699.839,990.967 703.803,1003.11 707.767,1016.87 711.731,1032.06 715.696,1048.46 719.66,1065.86 723.624,1083.99 727.588,1102.62 731.552,1121.49 735.516,1140.36 739.48,1158.98 743.444,1177.14 747.408,1194.63 751.373,1243.3 755.337,1207.98 759.301,1170.07 763.265,1130.27 767.229,1089.31 771.193,1015.89 775.157,1025.72 779.121,1037.94 783.085,1052.37 787.05,1068.76 791.014,1118.87 794.978,1087.38 798.942,1055.5 802.906,1023.69 806.87,992.419 810.834,930.085 814.798,952.076 818.763,977.219 822.727,1004.99 826.691,1034.84 830.655,1098.19 834.619,1079.45 838.583,1059.55 842.547,1038.72 846.511,1017.22 850.475,963.291 854.44,992.182 858.404,1022.64 862.368,1054.08 866.332,1085.96 870.296,1149.72 874.26,1129.85 878.224,1107.36 882.188,1082.62 886.152,1056.03 890.117,996.007 894.081,1017.99 898.045,1040.92 902.009,1064.42 905.973,1088.13 909.937,1111.7 913.901,1134.8 917.865,1157.11 921.829,1178.35 925.794,1198.29 929.758,1248.73 933.722,1214.52 937.686,1177.04 941.65,1137.03 945.614,1095.25 949.578,1052.47 953.542,1009.44 957.507,966.89 961.471,925.508 965.435,885.921 969.399,848.69 973.363,814.299 977.327,783.143 981.291,755.528 985.255,731.668 989.219,679.668 993.184,714.556 997.148,754.758 1001.11,799.324 1005.08,847.246 1009.04,897.482 1013,948.986 1016.97,1000.73 1020.93,1051.72 1024.9,1101.03 1028.86,1147.82 1032.82,1191.33 1036.79,1230.92 1040.75,1266.05 1044.72,1296.33 1048.68,1353.5 1052.65,1322.4 1056.61,1284.54 1060.57,1240.81 1064.54,1192.22 1068.5,1139.82 1072.47,1084.74 1076.43,1028.08 1080.39,970.957 1084.36,914.432 1088.32,859.512 1092.29,807.123 1096.25,758.09 1100.21,713.127 1104.18,672.822 1108.14,637.632 1112.11,607.877 1116.07,583.739 1120.04,565.267 1124,552.376 1127.96,512.847 1131.93,561.365 1135.89,616.003 1139.86,675.45 1143.82,738.348 1147.78,803.32 1151.75,869 1155.71,934.071 1159.68,997.286 1163.64,1057.5 1167.6,1145.69 1171.57,1145.97 1175.53,1139.11 1179.5,1125.33 1183.46,1105.01 1187.43,1078.67 1191.39,1046.92 1195.35,1010.49 1199.32,970.181 1203.28,926.833 1207.25,849.321 1211.21,853.542 1215.17,858.866 1219.14,865.343 1223.1,872.991 1227.07,881.801 1231.03,891.734 1234.99,902.73 1238.96,914.704 1242.92,927.551 1246.89,941.153 1250.85,955.377 1254.82,970.079 1258.78,985.114 1262.74,1000.33 1266.71,1015.58 1270.67,1030.73 1274.64,1045.63 1278.6,1060.17 1282.56,1074.23 1286.53,1087.72 1290.49,1100.55 1294.46,1112.68 1298.42,1124.04 1302.38,1134.63 1306.35,1176.44 1310.31,1134.47 1314.28,1090.28 1318.24,1044.7 1322.21,998.572 1326.17,952.714 1330.13,907.898 1334.1,864.84 1338.06,824.185 1342.03,786.494 1345.99,752.236 1349.95,721.782 1353.92,695.4 1357.88,673.254 1361.85,655.404 1365.81,609.799 1369.77,651.308 1373.74,698.202 1377.7,749.378 1381.67,803.685 1385.63,859.951 1389.6,917.012 1393.56,973.739 1397.52,1029.06 1401.49,1081.98 1405.45,1131.61 1409.42,1177.17 1413.38,1218 1417.34,1253.6 1421.31,1283.59 1425.27,1307.75 1429.24,1325.98 1433.2,1338.34 1437.16,1345.02 1441.13,1346.32 1445.09,1374.66 1449.06,1315.55 1453.02,1251.09 1456.98,1182.72 1460.95,1111.91 1464.91,1040.14 1468.88,968.82 1472.84,899.3 1476.81,832.828 1480.77,770.523 1484.73,713.362 1488.7,662.16 1492.66,617.561 1496.63,580.03 1500.59,549.848 1504.55,495.108 1508.52,530.742 1512.48,575.003 1516.45,626.703 1520.41,684.533 1524.37,779.118 1528.34,794.018 1532.3,809.296 1536.27,824.333 1540.23,838.542 1544.2,819.372 1548.16,881.342 1552.12,942.527 1556.09,1001.78 1560.05,1058.04 1564.02,1110.37 1567.98,1157.97 1571.94,1200.17 1575.91,1236.46 1579.87,1266.5 1583.84,1290.08 1587.8,1307.16 1591.76,1317.86 1595.73,1322.42 1599.69,1321.23 1603.66,1314.76 1607.62,1303.63 1611.59,1288.48 1615.55,1270.05 1619.51,1249.11 1623.48,1258.46 1627.44,1183.89 1631.41,1107.69 1635.37,1031.41 1639.33,956.531 1643.3,884.435 1647.26,816.381 1651.23,753.477 1655.19,696.668 1659.15,646.715 1663.12,572.178 1667.08,588.437 1671.05,614.164 1675.01,648.55 1678.98,690.622 1682.94,739.274 1686.9,793.301 1690.87,851.427 1694.83,912.341 1698.8,974.725 1702.76,1037.29 1706.72,1098.79 1710.69,1158.08 1714.65,1214.09 1718.62,1265.89 1722.58,1344.7 1726.54,1334.87 1730.51,1317.41 1734.47,1292.81 1738.44,1261.68 1742.4,1192.75 1746.37,1201.88 1750.33,1208.45 1754.29,1212.64 1758.26,1214.66 1762.22,1214.76 1766.19,1213.23 1770.15,1210.36 1774.11,1206.48 1778.08,1201.92 1782.04,1197.01 1786.01,1192.06 1789.97,1187.4 1793.93,1183.29 1797.9,1180 1801.86,1209.77 1805.83,1157.78 1809.79,1105.71 1813.76,1054.47 1817.72,1004.92 1821.68,957.848 1825.65,913.936 1829.61,873.777 1833.58,837.848 1837.54,806.512 1841.5,747.995 1845.47,777.423 1849.43,813.286 1853.4,854.673 1857.36,900.584 1861.32,981.975 1865.29,982.752 1869.25,983.33 1873.22,983.436 1877.18,982.823 1881.15,949.259 1885.11,997.561 1889.07,1046.07 1893.04,1093.86 1897,1140.08 1900.97,1215.95 1904.93,1205.77 1908.89,1190.46 1912.86,1170.33 1916.82,1145.79 1920.79,1117.34 1924.75,1085.55 1928.71,1051.03 1932.68,1014.44 1936.64,976.434 1940.61,937.701 1944.57,898.898 1948.54,860.66 1952.5,823.578 1956.46,788.195 1960.43,754.989 1964.39,724.368 1968.36,696.666 1972.32,672.133 1976.28,650.937 1980.25,601.152 1984.21,637.787 1988.18,679.259 1992.14,724.618 1996.1,772.869 2000.07,855.007 2004.03,855.014 2008,853.411 2011.96,850.058 2015.93,844.865 2019.89,837.786 2023.85,828.823 2027.82,818.024 2031.78,805.473 2035.75,791.297 2039.71,743.638 2043.67,777.685 2047.64,812.133 2051.6,846.403 2055.57,879.942 2059.53,944.253 2063.49,923.871 2067.46,899.907 2071.42,872.826 2075.39,843.149 2079.35,811.43 2083.32,778.247 2087.28,744.188 2091.24,709.832 2095.21,675.742 2099.17,642.45 2103.14,610.446 2107.1,580.17 2111.06,552.003 2115.03,526.262 2118.99,503.196 2122.96,482.98 2126.92,465.72 2130.88,451.449 2134.85,440.13 2138.81,431.664 2142.78,425.891 2146.74,422.597 2150.7,421.523 2154.67,422.371 2158.63,424.815 2162.6,428.507 2166.56,433.088 2170.53,438.196 2174.49,443.473 2178.45,448.576 2182.42,453.182 2186.38,456.995 2190.35,459.751 2194.31,461.223 2198.27,461.226 2202.24,459.617 2206.2,456.297 2210.17,451.211 2214.13,444.35 2218.09,435.744 2222.06,425.465 2226.02,413.619 2229.99,400.345 2233.95,385.81 2237.92,370.2 2241.88,353.722 2245.84,336.592 2249.81,319.032 2253.77,301.265 2257.74,251.498 2261.7,284.943 2265.66,320.285 2269.63,356.9 2273.59,394.159 2277.56,463.461 2281.52,449.212 2285.48,432.373 2289.45,413.246 2293.41,392.173 "/>
<path clip-path="url(#clip400)" d="M325.87 300.469 L1334.52 300.469 L1334.52 93.1086 L325.87 93.1086  Z" fill="#ffffff" fill-rule="evenodd" fill-opacity="1"/>
<polyline clip-path="url(#clip400)" style="stroke:#000000; stroke-linecap:round; stroke-linejoin:round; stroke-width:4; stroke-opacity:1; fill:none" points="325.87,300.469 1334.52,300.469 1334.52,93.1086 325.87,93.1086 325.87,300.469 "/>
<polyline clip-path="url(#clip400)" style="stroke:#009af9; stroke-linecap:round; stroke-linejoin:round; stroke-width:4; stroke-opacity:1; fill:none" points="349.167,144.949 488.953,144.949 "/>
<path clip-path="url(#clip400)" d="M516.926 131.511 L516.926 158.386 L522.574 158.386 Q529.727 158.386 533.037 155.145 Q536.37 151.905 536.37 144.914 Q536.37 137.969 533.037 134.752 Q529.727 131.511 522.574 131.511 L516.926 131.511 M512.25 127.669 L521.857 127.669 Q531.903 127.669 536.602 131.858 Q541.301 136.025 541.301 144.914 Q541.301 153.849 536.579 158.039 Q531.857 162.229 521.857 162.229 L512.25 162.229 L512.25 127.669 Z" fill="#000000" fill-rule="nonzero" fill-opacity="1" /><path clip-path="url(#clip400)" d="M560.352 149.196 Q555.19 149.196 553.199 150.377 Q551.208 151.557 551.208 154.405 Q551.208 156.673 552.69 158.016 Q554.194 159.335 556.764 159.335 Q560.305 159.335 562.435 156.835 Q564.588 154.312 564.588 150.145 L564.588 149.196 L560.352 149.196 M568.847 147.437 L568.847 162.229 L564.588 162.229 L564.588 158.293 Q563.129 160.655 560.954 161.789 Q558.778 162.9 555.63 162.9 Q551.648 162.9 549.287 160.678 Q546.949 158.432 546.949 154.682 Q546.949 150.307 549.866 148.085 Q552.805 145.863 558.616 145.863 L564.588 145.863 L564.588 145.446 Q564.588 142.507 562.643 140.909 Q560.722 139.289 557.227 139.289 Q555.005 139.289 552.898 139.821 Q550.792 140.354 548.847 141.419 L548.847 137.483 Q551.185 136.581 553.384 136.141 Q555.583 135.678 557.667 135.678 Q563.292 135.678 566.069 138.594 Q568.847 141.511 568.847 147.437 Z" fill="#000000" fill-rule="nonzero" fill-opacity="1" /><path clip-path="url(#clip400)" d="M581.833 128.942 L581.833 136.303 L590.606 136.303 L590.606 139.613 L581.833 139.613 L581.833 153.687 Q581.833 156.858 582.69 157.761 Q583.569 158.664 586.231 158.664 L590.606 158.664 L590.606 162.229 L586.231 162.229 Q581.301 162.229 579.426 160.4 Q577.551 158.548 577.551 153.687 L577.551 139.613 L574.426 139.613 L574.426 136.303 L577.551 136.303 L577.551 128.942 L581.833 128.942 Z" fill="#000000" fill-rule="nonzero" fill-opacity="1" /><path clip-path="url(#clip400)" d="M607.99 149.196 Q602.828 149.196 600.838 150.377 Q598.847 151.557 598.847 154.405 Q598.847 156.673 600.328 158.016 Q601.833 159.335 604.402 159.335 Q607.944 159.335 610.074 156.835 Q612.226 154.312 612.226 150.145 L612.226 149.196 L607.99 149.196 M616.486 147.437 L616.486 162.229 L612.226 162.229 L612.226 158.293 Q610.768 160.655 608.592 161.789 Q606.416 162.9 603.268 162.9 Q599.287 162.9 596.926 160.678 Q594.588 158.432 594.588 154.682 Q594.588 150.307 597.504 148.085 Q600.444 145.863 606.254 145.863 L612.226 145.863 L612.226 145.446 Q612.226 142.507 610.282 140.909 Q608.361 139.289 604.865 139.289 Q602.643 139.289 600.537 139.821 Q598.43 140.354 596.486 141.419 L596.486 137.483 Q598.824 136.581 601.023 136.141 Q603.222 135.678 605.305 135.678 Q610.93 135.678 613.708 138.594 Q616.486 141.511 616.486 147.437 Z" fill="#000000" fill-rule="nonzero" fill-opacity="1" /><polyline clip-path="url(#clip400)" style="stroke:#e26f46; stroke-linecap:round; stroke-linejoin:round; stroke-width:4; stroke-opacity:1; fill:none" points="349.167,196.789 488.953,196.789 "/>
<path clip-path="url(#clip400)" d="M534.495 180.643 L534.495 185.203 Q531.833 183.93 529.472 183.305 Q527.111 182.68 524.912 182.68 Q521.093 182.68 519.009 184.161 Q516.949 185.643 516.949 188.374 Q516.949 190.666 518.315 191.847 Q519.704 193.004 523.546 193.722 L526.37 194.3 Q531.602 195.296 534.079 197.819 Q536.579 200.319 536.579 204.532 Q536.579 209.555 533.199 212.147 Q529.843 214.74 523.338 214.74 Q520.884 214.74 518.107 214.184 Q515.352 213.629 512.389 212.541 L512.389 207.726 Q515.236 209.323 517.968 210.133 Q520.699 210.944 523.338 210.944 Q527.343 210.944 529.519 209.37 Q531.694 207.796 531.694 204.879 Q531.694 202.333 530.12 200.897 Q528.569 199.462 525.005 198.745 L522.157 198.189 Q516.926 197.147 514.588 194.925 Q512.25 192.703 512.25 188.745 Q512.25 184.161 515.468 181.522 Q518.708 178.884 524.38 178.884 Q526.81 178.884 529.333 179.323 Q531.857 179.763 534.495 180.643 Z" fill="#000000" fill-rule="nonzero" fill-opacity="1" /><path clip-path="url(#clip400)" d="M543.685 188.143 L547.944 188.143 L547.944 214.069 L543.685 214.069 L543.685 188.143 M543.685 178.05 L547.944 178.05 L547.944 183.444 L543.685 183.444 L543.685 178.05 Z" fill="#000000" fill-rule="nonzero" fill-opacity="1" /><path clip-path="url(#clip400)" d="M577.041 193.12 Q578.639 190.249 580.861 188.884 Q583.083 187.518 586.092 187.518 Q590.143 187.518 592.342 190.365 Q594.541 193.189 594.541 198.421 L594.541 214.069 L590.259 214.069 L590.259 198.559 Q590.259 194.833 588.94 193.027 Q587.62 191.222 584.912 191.222 Q581.602 191.222 579.68 193.421 Q577.759 195.62 577.759 199.416 L577.759 214.069 L573.477 214.069 L573.477 198.559 Q573.477 194.809 572.157 193.027 Q570.838 191.222 568.083 191.222 Q564.819 191.222 562.898 193.444 Q560.977 195.643 560.977 199.416 L560.977 214.069 L556.694 214.069 L556.694 188.143 L560.977 188.143 L560.977 192.171 Q562.435 189.786 564.472 188.652 Q566.509 187.518 569.31 187.518 Q572.134 187.518 574.102 188.953 Q576.092 190.388 577.041 193.12 Z" fill="#000000" fill-rule="nonzero" fill-opacity="1" /><path clip-path="url(#clip400)" d="M602.597 203.837 L602.597 188.143 L606.856 188.143 L606.856 203.675 Q606.856 207.356 608.291 209.208 Q609.726 211.036 612.597 211.036 Q616.046 211.036 618.037 208.837 Q620.05 206.638 620.05 202.842 L620.05 188.143 L624.31 188.143 L624.31 214.069 L620.05 214.069 L620.05 210.087 Q618.5 212.448 616.439 213.606 Q614.402 214.74 611.694 214.74 Q607.226 214.74 604.912 211.962 Q602.597 209.184 602.597 203.837 M613.314 187.518 L613.314 187.518 Z" fill="#000000" fill-rule="nonzero" fill-opacity="1" /><path clip-path="url(#clip400)" d="M633.083 178.05 L637.342 178.05 L637.342 214.069 L633.083 214.069 L633.083 178.05 Z" fill="#000000" fill-rule="nonzero" fill-opacity="1" /><path clip-path="url(#clip400)" d="M658.036 201.036 Q652.874 201.036 650.884 202.217 Q648.893 203.397 648.893 206.245 Q648.893 208.513 650.374 209.856 Q651.879 211.175 654.448 211.175 Q657.99 211.175 660.12 208.675 Q662.272 206.152 662.272 201.985 L662.272 201.036 L658.036 201.036 M666.532 199.277 L666.532 214.069 L662.272 214.069 L662.272 210.133 Q660.814 212.495 658.638 213.629 Q656.462 214.74 653.314 214.74 Q649.333 214.74 646.972 212.518 Q644.634 210.272 644.634 206.522 Q644.634 202.147 647.55 199.925 Q650.49 197.703 656.3 197.703 L662.272 197.703 L662.272 197.286 Q662.272 194.347 660.328 192.749 Q658.407 191.129 654.911 191.129 Q652.689 191.129 650.583 191.661 Q648.476 192.194 646.532 193.259 L646.532 189.323 Q648.87 188.421 651.069 187.981 Q653.268 187.518 655.351 187.518 Q660.976 187.518 663.754 190.434 Q666.532 193.351 666.532 199.277 Z" fill="#000000" fill-rule="nonzero" fill-opacity="1" /><path clip-path="url(#clip400)" d="M679.518 180.782 L679.518 188.143 L688.291 188.143 L688.291 191.453 L679.518 191.453 L679.518 205.527 Q679.518 208.698 680.374 209.601 Q681.254 210.504 683.916 210.504 L688.291 210.504 L688.291 214.069 L683.916 214.069 Q678.985 214.069 677.11 212.24 Q675.235 210.388 675.235 205.527 L675.235 191.453 L672.11 191.453 L672.11 188.143 L675.235 188.143 L675.235 180.782 L679.518 180.782 Z" fill="#000000" fill-rule="nonzero" fill-opacity="1" /><path clip-path="url(#clip400)" d="M693.893 188.143 L698.152 188.143 L698.152 214.069 L693.893 214.069 L693.893 188.143 M693.893 178.05 L698.152 178.05 L698.152 183.444 L693.893 183.444 L693.893 178.05 Z" fill="#000000" fill-rule="nonzero" fill-opacity="1" /><path clip-path="url(#clip400)" d="M717.11 191.129 Q713.684 191.129 711.694 193.814 Q709.703 196.476 709.703 201.129 Q709.703 205.782 711.67 208.467 Q713.661 211.129 717.11 211.129 Q720.513 211.129 722.504 208.444 Q724.494 205.758 724.494 201.129 Q724.494 196.522 722.504 193.837 Q720.513 191.129 717.11 191.129 M717.11 187.518 Q722.666 187.518 725.837 191.129 Q729.008 194.74 729.008 201.129 Q729.008 207.495 725.837 211.129 Q722.666 214.74 717.11 214.74 Q711.531 214.74 708.36 211.129 Q705.212 207.495 705.212 201.129 Q705.212 194.74 708.36 191.129 Q711.531 187.518 717.11 187.518 Z" fill="#000000" fill-rule="nonzero" fill-opacity="1" /><path clip-path="url(#clip400)" d="M757.619 198.421 L757.619 214.069 L753.36 214.069 L753.36 198.559 Q753.36 194.879 751.925 193.05 Q750.49 191.222 747.619 191.222 Q744.17 191.222 742.179 193.421 Q740.189 195.62 740.189 199.416 L740.189 214.069 L735.906 214.069 L735.906 188.143 L740.189 188.143 L740.189 192.171 Q741.717 189.833 743.777 188.675 Q745.86 187.518 748.568 187.518 Q753.036 187.518 755.328 190.296 Q757.619 193.05 757.619 198.421 Z" fill="#000000" fill-rule="nonzero" fill-opacity="1" /><path clip-path="url(#clip400)" d="M801.369 193.12 Q802.966 190.249 805.188 188.884 Q807.411 187.518 810.42 187.518 Q814.471 187.518 816.67 190.365 Q818.869 193.189 818.869 198.421 L818.869 214.069 L814.586 214.069 L814.586 198.559 Q814.586 194.833 813.267 193.027 Q811.948 191.222 809.239 191.222 Q805.929 191.222 804.008 193.421 Q802.087 195.62 802.087 199.416 L802.087 214.069 L797.804 214.069 L797.804 198.559 Q797.804 194.809 796.485 193.027 Q795.165 191.222 792.411 191.222 Q789.147 191.222 787.226 193.444 Q785.304 195.643 785.304 199.416 L785.304 214.069 L781.022 214.069 L781.022 188.143 L785.304 188.143 L785.304 192.171 Q786.763 189.786 788.8 188.652 Q790.837 187.518 793.638 187.518 Q796.462 187.518 798.429 188.953 Q800.42 190.388 801.369 193.12 Z" fill="#000000" fill-rule="nonzero" fill-opacity="1" /><path clip-path="url(#clip400)" d="M837.41 191.129 Q833.985 191.129 831.994 193.814 Q830.003 196.476 830.003 201.129 Q830.003 205.782 831.971 208.467 Q833.961 211.129 837.41 211.129 Q840.813 211.129 842.804 208.444 Q844.795 205.758 844.795 201.129 Q844.795 196.522 842.804 193.837 Q840.813 191.129 837.41 191.129 M837.41 187.518 Q842.966 187.518 846.137 191.129 Q849.309 194.74 849.309 201.129 Q849.309 207.495 846.137 211.129 Q842.966 214.74 837.41 214.74 Q831.832 214.74 828.66 211.129 Q825.512 207.495 825.512 201.129 Q825.512 194.74 828.66 191.129 Q831.832 187.518 837.41 187.518 Z" fill="#000000" fill-rule="nonzero" fill-opacity="1" /><path clip-path="url(#clip400)" d="M873.429 192.078 L873.429 178.05 L877.688 178.05 L877.688 214.069 L873.429 214.069 L873.429 210.18 Q872.086 212.495 870.026 213.629 Q867.989 214.74 865.119 214.74 Q860.42 214.74 857.457 210.99 Q854.517 207.24 854.517 201.129 Q854.517 195.018 857.457 191.268 Q860.42 187.518 865.119 187.518 Q867.989 187.518 870.026 188.652 Q872.086 189.763 873.429 192.078 M858.915 201.129 Q858.915 205.828 860.836 208.513 Q862.781 211.175 866.16 211.175 Q869.54 211.175 871.484 208.513 Q873.429 205.828 873.429 201.129 Q873.429 196.43 871.484 193.768 Q869.54 191.083 866.16 191.083 Q862.781 191.083 860.836 193.768 Q858.915 196.43 858.915 201.129 Z" fill="#000000" fill-rule="nonzero" fill-opacity="1" /><path clip-path="url(#clip400)" d="M908.637 200.041 L908.637 202.124 L889.054 202.124 Q889.331 206.522 891.693 208.837 Q894.077 211.129 898.313 211.129 Q900.767 211.129 903.058 210.527 Q905.373 209.925 907.642 208.721 L907.642 212.749 Q905.35 213.721 902.942 214.231 Q900.535 214.74 898.058 214.74 Q891.855 214.74 888.22 211.129 Q884.609 207.518 884.609 201.36 Q884.609 194.995 888.035 191.268 Q891.484 187.518 897.318 187.518 Q902.549 187.518 905.581 190.897 Q908.637 194.254 908.637 200.041 M904.378 198.791 Q904.331 195.296 902.41 193.212 Q900.512 191.129 897.364 191.129 Q893.799 191.129 891.646 193.143 Q889.517 195.157 889.193 198.814 L904.378 198.791 Z" fill="#000000" fill-rule="nonzero" fill-opacity="1" /><path clip-path="url(#clip400)" d="M915.628 178.05 L919.887 178.05 L919.887 214.069 L915.628 214.069 L915.628 178.05 Z" fill="#000000" fill-rule="nonzero" fill-opacity="1" /><path clip-path="url(#clip400)" d="M960.396 188.907 L960.396 192.934 Q958.59 192.009 956.646 191.546 Q954.701 191.083 952.618 191.083 Q949.447 191.083 947.85 192.055 Q946.276 193.027 946.276 194.971 Q946.276 196.453 947.41 197.309 Q948.544 198.143 951.97 198.907 L953.428 199.231 Q957.965 200.203 959.863 201.985 Q961.785 203.745 961.785 206.916 Q961.785 210.527 958.914 212.633 Q956.067 214.74 951.067 214.74 Q948.984 214.74 946.715 214.323 Q944.47 213.93 941.97 213.12 L941.97 208.721 Q944.331 209.948 946.623 210.573 Q948.914 211.175 951.16 211.175 Q954.169 211.175 955.789 210.157 Q957.41 209.115 957.41 207.24 Q957.41 205.504 956.229 204.578 Q955.072 203.652 951.114 202.796 L949.632 202.448 Q945.674 201.615 943.914 199.902 Q942.155 198.166 942.155 195.157 Q942.155 191.499 944.748 189.509 Q947.34 187.518 952.109 187.518 Q954.47 187.518 956.553 187.865 Q958.637 188.212 960.396 188.907 Z" fill="#000000" fill-rule="nonzero" fill-opacity="1" /><path clip-path="url(#clip400)" d="M968.567 188.143 L972.826 188.143 L972.826 214.069 L968.567 214.069 L968.567 188.143 M968.567 178.05 L972.826 178.05 L972.826 183.444 L968.567 183.444 L968.567 178.05 Z" fill="#000000" fill-rule="nonzero" fill-opacity="1" /><path clip-path="url(#clip400)" d="M1001.92 193.12 Q1003.52 190.249 1005.74 188.884 Q1007.97 187.518 1010.97 187.518 Q1015.03 187.518 1017.22 190.365 Q1019.42 193.189 1019.42 198.421 L1019.42 214.069 L1015.14 214.069 L1015.14 198.559 Q1015.14 194.833 1013.82 193.027 Q1012.5 191.222 1009.79 191.222 Q1006.48 191.222 1004.56 193.421 Q1002.64 195.62 1002.64 199.416 L1002.64 214.069 L998.359 214.069 L998.359 198.559 Q998.359 194.809 997.039 193.027 Q995.72 191.222 992.965 191.222 Q989.701 191.222 987.78 193.444 Q985.859 195.643 985.859 199.416 L985.859 214.069 L981.576 214.069 L981.576 188.143 L985.859 188.143 L985.859 192.171 Q987.317 189.786 989.354 188.652 Q991.391 187.518 994.192 187.518 Q997.016 187.518 998.984 188.953 Q1000.97 190.388 1001.92 193.12 Z" fill="#000000" fill-rule="nonzero" fill-opacity="1" /><path clip-path="url(#clip400)" d="M1056.11 178.05 L1056.11 181.592 L1052.04 181.592 Q1049.75 181.592 1048.84 182.518 Q1047.96 183.444 1047.96 185.851 L1047.96 188.143 L1054.98 188.143 L1054.98 191.453 L1047.96 191.453 L1047.96 214.069 L1043.68 214.069 L1043.68 191.453 L1039.61 191.453 L1039.61 188.143 L1043.68 188.143 L1043.68 186.337 Q1043.68 182.009 1045.7 180.041 Q1047.71 178.05 1052.09 178.05 L1056.11 178.05 Z" fill="#000000" fill-rule="nonzero" fill-opacity="1" /><path clip-path="url(#clip400)" d="M1059.68 188.143 L1063.94 188.143 L1063.94 214.069 L1059.68 214.069 L1059.68 188.143 M1059.68 178.05 L1063.94 178.05 L1063.94 183.444 L1059.68 183.444 L1059.68 178.05 Z" fill="#000000" fill-rule="nonzero" fill-opacity="1" /><path clip-path="url(#clip400)" d="M1077.06 180.782 L1077.06 188.143 L1085.84 188.143 L1085.84 191.453 L1077.06 191.453 L1077.06 205.527 Q1077.06 208.698 1077.92 209.601 Q1078.8 210.504 1081.46 210.504 L1085.84 210.504 L1085.84 214.069 L1081.46 214.069 Q1076.53 214.069 1074.65 212.24 Q1072.78 210.388 1072.78 205.527 L1072.78 191.453 L1069.65 191.453 L1069.65 188.143 L1072.78 188.143 L1072.78 180.782 L1077.06 180.782 Z" fill="#000000" fill-rule="nonzero" fill-opacity="1" /><path clip-path="url(#clip400)" d="M1122.66 208.189 L1127.55 208.189 L1127.55 214.069 L1122.66 214.069 L1122.66 208.189 M1122.66 189.555 L1127.55 189.555 L1127.55 195.434 L1122.66 195.434 L1122.66 189.555 Z" fill="#000000" fill-rule="nonzero" fill-opacity="1" /><path clip-path="url(#clip400)" d="M1148.73 194.925 Q1145.58 194.925 1143.73 197.078 Q1141.9 199.231 1141.9 202.981 Q1141.9 206.708 1143.73 208.883 Q1145.58 211.036 1148.73 211.036 Q1151.88 211.036 1153.71 208.883 Q1155.56 206.708 1155.56 202.981 Q1155.56 199.231 1153.71 197.078 Q1151.88 194.925 1148.73 194.925 M1158.01 180.273 L1158.01 184.532 Q1156.25 183.698 1154.45 183.259 Q1152.66 182.819 1150.9 182.819 Q1146.27 182.819 1143.82 185.944 Q1141.39 189.069 1141.04 195.388 Q1142.41 193.374 1144.47 192.309 Q1146.53 191.222 1149.01 191.222 Q1154.21 191.222 1157.22 194.393 Q1160.26 197.541 1160.26 202.981 Q1160.26 208.305 1157.11 211.522 Q1153.96 214.74 1148.73 214.74 Q1142.73 214.74 1139.56 210.157 Q1136.39 205.55 1136.39 196.823 Q1136.39 188.629 1140.28 183.768 Q1144.17 178.884 1150.72 178.884 Q1152.48 178.884 1154.26 179.231 Q1156.07 179.578 1158.01 180.273 Z" fill="#000000" fill-rule="nonzero" fill-opacity="1" /><path clip-path="url(#clip400)" d="M1167.13 179.509 L1189.35 179.509 L1189.35 181.499 L1176.81 214.069 L1171.92 214.069 L1183.73 183.444 L1167.13 183.444 L1167.13 179.509 Z" fill="#000000" fill-rule="nonzero" fill-opacity="1" /><path clip-path="url(#clip400)" d="M1198.47 208.189 L1203.36 208.189 L1203.36 214.069 L1198.47 214.069 L1198.47 208.189 Z" fill="#000000" fill-rule="nonzero" fill-opacity="1" /><path clip-path="url(#clip400)" d="M1223.54 197.657 Q1220.21 197.657 1218.29 199.439 Q1216.39 201.221 1216.39 204.346 Q1216.39 207.471 1218.29 209.254 Q1220.21 211.036 1223.54 211.036 Q1226.88 211.036 1228.8 209.254 Q1230.72 207.448 1230.72 204.346 Q1230.72 201.221 1228.8 199.439 Q1226.9 197.657 1223.54 197.657 M1218.87 195.666 Q1215.86 194.925 1214.17 192.865 Q1212.5 190.805 1212.5 187.842 Q1212.5 183.698 1215.44 181.291 Q1218.4 178.884 1223.54 178.884 Q1228.7 178.884 1231.64 181.291 Q1234.58 183.698 1234.58 187.842 Q1234.58 190.805 1232.89 192.865 Q1231.23 194.925 1228.24 195.666 Q1231.62 196.453 1233.5 198.745 Q1235.39 201.036 1235.39 204.346 Q1235.39 209.37 1232.32 212.055 Q1229.26 214.74 1223.54 214.74 Q1217.83 214.74 1214.75 212.055 Q1211.69 209.37 1211.69 204.346 Q1211.69 201.036 1213.59 198.745 Q1215.49 196.453 1218.87 195.666 M1217.15 188.282 Q1217.15 190.967 1218.82 192.472 Q1220.51 193.976 1223.54 193.976 Q1226.55 193.976 1228.24 192.472 Q1229.95 190.967 1229.95 188.282 Q1229.95 185.597 1228.24 184.092 Q1226.55 182.587 1223.54 182.587 Q1220.51 182.587 1218.82 184.092 Q1217.15 185.597 1217.15 188.282 Z" fill="#000000" fill-rule="nonzero" fill-opacity="1" /><path clip-path="url(#clip400)" d="M1253.7 197.657 Q1250.37 197.657 1248.45 199.439 Q1246.55 201.221 1246.55 204.346 Q1246.55 207.471 1248.45 209.254 Q1250.37 211.036 1253.7 211.036 Q1257.04 211.036 1258.96 209.254 Q1260.88 207.448 1260.88 204.346 Q1260.88 201.221 1258.96 199.439 Q1257.06 197.657 1253.7 197.657 M1249.03 195.666 Q1246.02 194.925 1244.33 192.865 Q1242.66 190.805 1242.66 187.842 Q1242.66 183.698 1245.6 181.291 Q1248.57 178.884 1253.7 178.884 Q1258.87 178.884 1261.81 181.291 Q1264.75 183.698 1264.75 187.842 Q1264.75 190.805 1263.06 192.865 Q1261.39 194.925 1258.4 195.666 Q1261.78 196.453 1263.66 198.745 Q1265.56 201.036 1265.56 204.346 Q1265.56 209.37 1262.48 212.055 Q1259.42 214.74 1253.7 214.74 Q1247.99 214.74 1244.91 212.055 Q1241.85 209.37 1241.85 204.346 Q1241.85 201.036 1243.75 198.745 Q1245.65 196.453 1249.03 195.666 M1247.32 188.282 Q1247.32 190.967 1248.98 192.472 Q1250.67 193.976 1253.7 193.976 Q1256.71 193.976 1258.4 192.472 Q1260.12 190.967 1260.12 188.282 Q1260.12 185.597 1258.4 184.092 Q1256.71 182.587 1253.7 182.587 Q1250.67 182.587 1248.98 184.092 Q1247.32 185.597 1247.32 188.282 Z" fill="#000000" fill-rule="nonzero" fill-opacity="1" /><path clip-path="url(#clip400)" d="M1303.26 198.86 Q1301.25 198.86 1300.09 200.573 Q1298.96 202.286 1298.96 205.342 Q1298.96 208.351 1300.09 210.087 Q1301.25 211.8 1303.26 211.8 Q1305.23 211.8 1306.37 210.087 Q1307.52 208.351 1307.52 205.342 Q1307.52 202.309 1306.37 200.596 Q1305.23 198.86 1303.26 198.86 M1303.26 195.921 Q1306.92 195.921 1309.07 198.467 Q1311.23 201.013 1311.23 205.342 Q1311.23 209.67 1309.05 212.217 Q1306.9 214.74 1303.26 214.74 Q1299.56 214.74 1297.41 212.217 Q1295.26 209.67 1295.26 205.342 Q1295.26 200.99 1297.41 198.467 Q1299.58 195.921 1303.26 195.921 M1279.38 181.823 Q1277.38 181.823 1276.23 183.56 Q1275.09 185.272 1275.09 188.282 Q1275.09 191.337 1276.23 193.05 Q1277.36 194.763 1279.38 194.763 Q1281.39 194.763 1282.52 193.05 Q1283.68 191.337 1283.68 188.282 Q1283.68 185.296 1282.52 183.56 Q1281.37 181.823 1279.38 181.823 M1300.28 178.884 L1303.98 178.884 L1282.36 214.74 L1278.66 214.74 L1300.28 178.884 M1279.38 178.884 Q1283.03 178.884 1285.21 181.43 Q1287.38 183.953 1287.38 188.282 Q1287.38 192.657 1285.21 195.18 Q1283.06 197.703 1279.38 197.703 Q1275.7 197.703 1273.54 195.18 Q1271.41 192.634 1271.41 188.282 Q1271.41 183.976 1273.57 181.43 Q1275.72 178.884 1279.38 178.884 Z" fill="#000000" fill-rule="nonzero" fill-opacity="1" /><polyline clip-path="url(#clip400)" style="stroke:#3da44d; stroke-linecap:round; stroke-linejoin:round; stroke-width:4; stroke-opacity:1; fill:none" points="349.167,248.629 488.953,248.629 "/>
<path clip-path="url(#clip400)" d="M516.926 235.191 L516.926 248.177 L522.806 248.177 Q526.07 248.177 527.852 246.487 Q529.634 244.798 529.634 241.673 Q529.634 238.571 527.852 236.881 Q526.07 235.191 522.806 235.191 L516.926 235.191 M512.25 231.349 L522.806 231.349 Q528.616 231.349 531.579 233.987 Q534.565 236.603 534.565 241.673 Q534.565 246.788 531.579 249.404 Q528.616 252.02 522.806 252.02 L516.926 252.02 L516.926 265.909 L512.25 265.909 L512.25 231.349 Z" fill="#000000" fill-rule="nonzero" fill-opacity="1" /><path clip-path="url(#clip400)" d="M554.843 243.964 Q554.125 243.548 553.268 243.362 Q552.435 243.154 551.417 243.154 Q547.806 243.154 545.861 245.515 Q543.94 247.853 543.94 252.251 L543.94 265.909 L539.657 265.909 L539.657 239.983 L543.94 239.983 L543.94 244.011 Q545.282 241.649 547.435 240.515 Q549.588 239.358 552.667 239.358 Q553.106 239.358 553.639 239.427 Q554.171 239.474 554.819 239.589 L554.843 243.964 Z" fill="#000000" fill-rule="nonzero" fill-opacity="1" /><path clip-path="url(#clip400)" d="M580.444 251.881 L580.444 253.964 L560.861 253.964 Q561.139 258.362 563.5 260.677 Q565.884 262.969 570.12 262.969 Q572.574 262.969 574.866 262.367 Q577.18 261.765 579.449 260.561 L579.449 264.589 Q577.157 265.561 574.75 266.071 Q572.342 266.58 569.866 266.58 Q563.662 266.58 560.028 262.969 Q556.417 259.358 556.417 253.2 Q556.417 246.835 559.842 243.108 Q563.292 239.358 569.125 239.358 Q574.356 239.358 577.389 242.737 Q580.444 246.094 580.444 251.881 M576.185 250.631 Q576.139 247.136 574.217 245.052 Q572.319 242.969 569.171 242.969 Q565.606 242.969 563.454 244.983 Q561.324 246.997 561 250.654 L576.185 250.631 Z" fill="#000000" fill-rule="nonzero" fill-opacity="1" /><path clip-path="url(#clip400)" d="M604.495 243.918 L604.495 229.89 L608.754 229.89 L608.754 265.909 L604.495 265.909 L604.495 262.02 Q603.152 264.335 601.092 265.469 Q599.055 266.58 596.185 266.58 Q591.486 266.58 588.523 262.83 Q585.583 259.08 585.583 252.969 Q585.583 246.858 588.523 243.108 Q591.486 239.358 596.185 239.358 Q599.055 239.358 601.092 240.492 Q603.152 241.603 604.495 243.918 M589.981 252.969 Q589.981 257.668 591.902 260.353 Q593.847 263.015 597.227 263.015 Q600.606 263.015 602.551 260.353 Q604.495 257.668 604.495 252.969 Q604.495 248.27 602.551 245.608 Q600.606 242.923 597.227 242.923 Q593.847 242.923 591.902 245.608 Q589.981 248.27 589.981 252.969 Z" fill="#000000" fill-rule="nonzero" fill-opacity="1" /><path clip-path="url(#clip400)" d="M617.527 239.983 L621.787 239.983 L621.787 265.909 L617.527 265.909 L617.527 239.983 M617.527 229.89 L621.787 229.89 L621.787 235.284 L617.527 235.284 L617.527 229.89 Z" fill="#000000" fill-rule="nonzero" fill-opacity="1" /><path clip-path="url(#clip400)" d="M649.356 240.978 L649.356 244.96 Q647.55 243.964 645.722 243.478 Q643.916 242.969 642.064 242.969 Q637.921 242.969 635.629 245.608 Q633.337 248.224 633.337 252.969 Q633.337 257.714 635.629 260.353 Q637.921 262.969 642.064 262.969 Q643.916 262.969 645.722 262.483 Q647.55 261.973 649.356 260.978 L649.356 264.913 Q647.573 265.747 645.652 266.163 Q643.754 266.58 641.601 266.58 Q635.745 266.58 632.296 262.899 Q628.847 259.219 628.847 252.969 Q628.847 246.626 632.319 242.992 Q635.814 239.358 641.879 239.358 Q643.847 239.358 645.722 239.775 Q647.597 240.168 649.356 240.978 Z" fill="#000000" fill-rule="nonzero" fill-opacity="1" /><path clip-path="url(#clip400)" d="M660.976 232.622 L660.976 239.983 L669.749 239.983 L669.749 243.293 L660.976 243.293 L660.976 257.367 Q660.976 260.538 661.833 261.441 Q662.712 262.344 665.374 262.344 L669.749 262.344 L669.749 265.909 L665.374 265.909 Q660.444 265.909 658.569 264.08 Q656.694 262.228 656.694 257.367 L656.694 243.293 L653.569 243.293 L653.569 239.983 L656.694 239.983 L656.694 232.622 L660.976 232.622 Z" fill="#000000" fill-rule="nonzero" fill-opacity="1" /><path clip-path="url(#clip400)" d="M675.351 239.983 L679.61 239.983 L679.61 265.909 L675.351 265.909 L675.351 239.983 M675.351 229.89 L679.61 229.89 L679.61 235.284 L675.351 235.284 L675.351 229.89 Z" fill="#000000" fill-rule="nonzero" fill-opacity="1" /><path clip-path="url(#clip400)" d="M698.569 242.969 Q695.143 242.969 693.152 245.654 Q691.161 248.316 691.161 252.969 Q691.161 257.622 693.129 260.307 Q695.12 262.969 698.569 262.969 Q701.971 262.969 703.962 260.284 Q705.953 257.598 705.953 252.969 Q705.953 248.362 703.962 245.677 Q701.971 242.969 698.569 242.969 M698.569 239.358 Q704.124 239.358 707.295 242.969 Q710.467 246.58 710.467 252.969 Q710.467 259.335 707.295 262.969 Q704.124 266.58 698.569 266.58 Q692.99 266.58 689.819 262.969 Q686.671 259.335 686.671 252.969 Q686.671 246.58 689.819 242.969 Q692.99 239.358 698.569 239.358 Z" fill="#000000" fill-rule="nonzero" fill-opacity="1" /><path clip-path="url(#clip400)" d="M739.078 250.261 L739.078 265.909 L734.818 265.909 L734.818 250.399 Q734.818 246.719 733.383 244.89 Q731.948 243.062 729.078 243.062 Q725.629 243.062 723.638 245.261 Q721.647 247.46 721.647 251.256 L721.647 265.909 L717.365 265.909 L717.365 239.983 L721.647 239.983 L721.647 244.011 Q723.175 241.673 725.235 240.515 Q727.318 239.358 730.027 239.358 Q734.494 239.358 736.786 242.136 Q739.078 244.89 739.078 250.261 Z" fill="#000000" fill-rule="nonzero" fill-opacity="1" /><path clip-path="url(#clip400)" d="M782.827 244.96 Q784.425 242.089 786.647 240.724 Q788.869 239.358 791.878 239.358 Q795.929 239.358 798.128 242.205 Q800.327 245.029 800.327 250.261 L800.327 265.909 L796.045 265.909 L796.045 250.399 Q796.045 246.673 794.725 244.867 Q793.406 243.062 790.698 243.062 Q787.388 243.062 785.466 245.261 Q783.545 247.46 783.545 251.256 L783.545 265.909 L779.263 265.909 L779.263 250.399 Q779.263 246.649 777.943 244.867 Q776.624 243.062 773.869 243.062 Q770.605 243.062 768.684 245.284 Q766.763 247.483 766.763 251.256 L766.763 265.909 L762.48 265.909 L762.48 239.983 L766.763 239.983 L766.763 244.011 Q768.221 241.626 770.258 240.492 Q772.295 239.358 775.096 239.358 Q777.92 239.358 779.888 240.793 Q781.878 242.228 782.827 244.96 Z" fill="#000000" fill-rule="nonzero" fill-opacity="1" /><path clip-path="url(#clip400)" d="M818.869 242.969 Q815.443 242.969 813.452 245.654 Q811.461 248.316 811.461 252.969 Q811.461 257.622 813.429 260.307 Q815.42 262.969 818.869 262.969 Q822.272 262.969 824.262 260.284 Q826.253 257.598 826.253 252.969 Q826.253 248.362 824.262 245.677 Q822.272 242.969 818.869 242.969 M818.869 239.358 Q824.424 239.358 827.596 242.969 Q830.767 246.58 830.767 252.969 Q830.767 259.335 827.596 262.969 Q824.424 266.58 818.869 266.58 Q813.29 266.58 810.119 262.969 Q806.971 259.335 806.971 252.969 Q806.971 246.58 810.119 242.969 Q813.29 239.358 818.869 239.358 Z" fill="#000000" fill-rule="nonzero" fill-opacity="1" /><path clip-path="url(#clip400)" d="M854.887 243.918 L854.887 229.89 L859.146 229.89 L859.146 265.909 L854.887 265.909 L854.887 262.02 Q853.545 264.335 851.484 265.469 Q849.447 266.58 846.577 266.58 Q841.878 266.58 838.915 262.83 Q835.975 259.08 835.975 252.969 Q835.975 246.858 838.915 243.108 Q841.878 239.358 846.577 239.358 Q849.447 239.358 851.484 240.492 Q853.545 241.603 854.887 243.918 M840.373 252.969 Q840.373 257.668 842.295 260.353 Q844.239 263.015 847.619 263.015 Q850.998 263.015 852.943 260.353 Q854.887 257.668 854.887 252.969 Q854.887 248.27 852.943 245.608 Q850.998 242.923 847.619 242.923 Q844.239 242.923 842.295 245.608 Q840.373 248.27 840.373 252.969 Z" fill="#000000" fill-rule="nonzero" fill-opacity="1" /><path clip-path="url(#clip400)" d="M890.095 251.881 L890.095 253.964 L870.512 253.964 Q870.79 258.362 873.151 260.677 Q875.535 262.969 879.771 262.969 Q882.225 262.969 884.517 262.367 Q886.831 261.765 889.1 260.561 L889.1 264.589 Q886.808 265.561 884.401 266.071 Q881.994 266.58 879.517 266.58 Q873.313 266.58 869.679 262.969 Q866.068 259.358 866.068 253.2 Q866.068 246.835 869.494 243.108 Q872.943 239.358 878.776 239.358 Q884.007 239.358 887.04 242.737 Q890.095 246.094 890.095 251.881 M885.836 250.631 Q885.79 247.136 883.869 245.052 Q881.97 242.969 878.822 242.969 Q875.257 242.969 873.105 244.983 Q870.975 246.997 870.651 250.654 L885.836 250.631 Z" fill="#000000" fill-rule="nonzero" fill-opacity="1" /><path clip-path="url(#clip400)" d="M897.086 229.89 L901.345 229.89 L901.345 265.909 L897.086 265.909 L897.086 229.89 Z" fill="#000000" fill-rule="nonzero" fill-opacity="1" /><path clip-path="url(#clip400)" d="M941.854 240.747 L941.854 244.774 Q940.049 243.849 938.104 243.386 Q936.16 242.923 934.077 242.923 Q930.905 242.923 929.308 243.895 Q927.734 244.867 927.734 246.811 Q927.734 248.293 928.868 249.149 Q930.003 249.983 933.428 250.747 L934.887 251.071 Q939.424 252.043 941.322 253.825 Q943.243 255.585 943.243 258.756 Q943.243 262.367 940.373 264.473 Q937.526 266.58 932.526 266.58 Q930.442 266.58 928.174 266.163 Q925.928 265.77 923.428 264.96 L923.428 260.561 Q925.79 261.788 928.081 262.413 Q930.373 263.015 932.618 263.015 Q935.627 263.015 937.248 261.997 Q938.868 260.955 938.868 259.08 Q938.868 257.344 937.688 256.418 Q936.53 255.492 932.572 254.636 L931.09 254.288 Q927.132 253.455 925.373 251.742 Q923.614 250.006 923.614 246.997 Q923.614 243.339 926.206 241.349 Q928.799 239.358 933.567 239.358 Q935.928 239.358 938.012 239.705 Q940.095 240.052 941.854 240.747 Z" fill="#000000" fill-rule="nonzero" fill-opacity="1" /><path clip-path="url(#clip400)" d="M950.026 239.983 L954.285 239.983 L954.285 265.909 L950.026 265.909 L950.026 239.983 M950.026 229.89 L954.285 229.89 L954.285 235.284 L950.026 235.284 L950.026 229.89 Z" fill="#000000" fill-rule="nonzero" fill-opacity="1" /><path clip-path="url(#clip400)" d="M983.382 244.96 Q984.979 242.089 987.201 240.724 Q989.424 239.358 992.433 239.358 Q996.484 239.358 998.683 242.205 Q1000.88 245.029 1000.88 250.261 L1000.88 265.909 L996.599 265.909 L996.599 250.399 Q996.599 246.673 995.28 244.867 Q993.961 243.062 991.252 243.062 Q987.942 243.062 986.021 245.261 Q984.099 247.46 984.099 251.256 L984.099 265.909 L979.817 265.909 L979.817 250.399 Q979.817 246.649 978.498 244.867 Q977.178 243.062 974.424 243.062 Q971.16 243.062 969.238 245.284 Q967.317 247.483 967.317 251.256 L967.317 265.909 L963.035 265.909 L963.035 239.983 L967.317 239.983 L967.317 244.011 Q968.775 241.626 970.812 240.492 Q972.85 239.358 975.65 239.358 Q978.474 239.358 980.442 240.793 Q982.433 242.228 983.382 244.96 Z" fill="#000000" fill-rule="nonzero" fill-opacity="1" /><path clip-path="url(#clip400)" d="M1037.57 229.89 L1037.57 233.432 L1033.5 233.432 Q1031.21 233.432 1030.3 234.358 Q1029.42 235.284 1029.42 237.691 L1029.42 239.983 L1036.44 239.983 L1036.44 243.293 L1029.42 243.293 L1029.42 265.909 L1025.14 265.909 L1025.14 243.293 L1021.07 243.293 L1021.07 239.983 L1025.14 239.983 L1025.14 238.177 Q1025.14 233.849 1027.15 231.881 Q1029.17 229.89 1033.54 229.89 L1037.57 229.89 Z" fill="#000000" fill-rule="nonzero" fill-opacity="1" /><path clip-path="url(#clip400)" d="M1041.14 239.983 L1045.4 239.983 L1045.4 265.909 L1041.14 265.909 L1041.14 239.983 M1041.14 229.89 L1045.4 229.89 L1045.4 235.284 L1041.14 235.284 L1041.14 229.89 Z" fill="#000000" fill-rule="nonzero" fill-opacity="1" /><path clip-path="url(#clip400)" d="M1058.52 232.622 L1058.52 239.983 L1067.29 239.983 L1067.29 243.293 L1058.52 243.293 L1058.52 257.367 Q1058.52 260.538 1059.38 261.441 Q1060.26 262.344 1062.92 262.344 L1067.29 262.344 L1067.29 265.909 L1062.92 265.909 Q1057.99 265.909 1056.11 264.08 Q1054.24 262.228 1054.24 257.367 L1054.24 243.293 L1051.11 243.293 L1051.11 239.983 L1054.24 239.983 L1054.24 232.622 L1058.52 232.622 Z" fill="#000000" fill-rule="nonzero" fill-opacity="1" /><path clip-path="url(#clip400)" d="M1104.12 260.029 L1109.01 260.029 L1109.01 265.909 L1104.12 265.909 L1104.12 260.029 M1104.12 241.395 L1109.01 241.395 L1109.01 247.274 L1104.12 247.274 L1104.12 241.395 Z" fill="#000000" fill-rule="nonzero" fill-opacity="1" /><path clip-path="url(#clip400)" d="M1130.19 246.765 Q1127.04 246.765 1125.19 248.918 Q1123.36 251.071 1123.36 254.821 Q1123.36 258.548 1125.19 260.723 Q1127.04 262.876 1130.19 262.876 Q1133.33 262.876 1135.16 260.723 Q1137.02 258.548 1137.02 254.821 Q1137.02 251.071 1135.16 248.918 Q1133.33 246.765 1130.19 246.765 M1139.47 232.113 L1139.47 236.372 Q1137.71 235.538 1135.9 235.099 Q1134.12 234.659 1132.36 234.659 Q1127.73 234.659 1125.28 237.784 Q1122.85 240.909 1122.5 247.228 Q1123.87 245.214 1125.93 244.149 Q1127.99 243.062 1130.46 243.062 Q1135.67 243.062 1138.68 246.233 Q1141.71 249.381 1141.71 254.821 Q1141.71 260.145 1138.57 263.362 Q1135.42 266.58 1130.19 266.58 Q1124.19 266.58 1121.02 261.997 Q1117.85 257.39 1117.85 248.663 Q1117.85 240.469 1121.74 235.608 Q1125.63 230.724 1132.18 230.724 Q1133.94 230.724 1135.72 231.071 Q1137.52 231.418 1139.47 232.113 Z" fill="#000000" fill-rule="nonzero" fill-opacity="1" /><path clip-path="url(#clip400)" d="M1160.35 246.765 Q1157.2 246.765 1155.35 248.918 Q1153.52 251.071 1153.52 254.821 Q1153.52 258.548 1155.35 260.723 Q1157.2 262.876 1160.35 262.876 Q1163.5 262.876 1165.33 260.723 Q1167.18 258.548 1167.18 254.821 Q1167.18 251.071 1165.33 248.918 Q1163.5 246.765 1160.35 246.765 M1169.63 232.113 L1169.63 236.372 Q1167.87 235.538 1166.07 235.099 Q1164.28 234.659 1162.52 234.659 Q1157.89 234.659 1155.44 237.784 Q1153.01 240.909 1152.66 247.228 Q1154.03 245.214 1156.09 244.149 Q1158.15 243.062 1160.63 243.062 Q1165.83 243.062 1168.84 246.233 Q1171.88 249.381 1171.88 254.821 Q1171.88 260.145 1168.73 263.362 Q1165.58 266.58 1160.35 266.58 Q1154.35 266.58 1151.18 261.997 Q1148.01 257.39 1148.01 248.663 Q1148.01 240.469 1151.9 235.608 Q1155.79 230.724 1162.34 230.724 Q1164.1 230.724 1165.88 231.071 Q1167.69 231.418 1169.63 232.113 Z" fill="#000000" fill-rule="nonzero" fill-opacity="1" /><path clip-path="url(#clip400)" d="M1179.93 260.029 L1184.82 260.029 L1184.82 265.909 L1179.93 265.909 L1179.93 260.029 Z" fill="#000000" fill-rule="nonzero" fill-opacity="1" /><path clip-path="url(#clip400)" d="M1195.05 231.349 L1213.4 231.349 L1213.4 235.284 L1199.33 235.284 L1199.33 243.756 Q1200.35 243.409 1201.37 243.247 Q1202.39 243.062 1203.4 243.062 Q1209.19 243.062 1212.57 246.233 Q1215.95 249.404 1215.95 254.821 Q1215.95 260.399 1212.48 263.501 Q1209.01 266.58 1202.69 266.58 Q1200.51 266.58 1198.24 266.21 Q1196 265.839 1193.59 265.098 L1193.59 260.399 Q1195.67 261.534 1197.89 262.089 Q1200.12 262.645 1202.59 262.645 Q1206.6 262.645 1208.94 260.538 Q1211.27 258.432 1211.27 254.821 Q1211.27 251.21 1208.94 249.103 Q1206.6 246.997 1202.59 246.997 Q1200.72 246.997 1198.84 247.413 Q1196.99 247.83 1195.05 248.71 L1195.05 231.349 Z" fill="#000000" fill-rule="nonzero" fill-opacity="1" /><path clip-path="url(#clip400)" d="M1225.3 265.191 L1225.3 260.932 Q1227.06 261.765 1228.87 262.205 Q1230.67 262.645 1232.41 262.645 Q1237.04 262.645 1239.47 259.543 Q1241.92 256.418 1242.27 250.075 Q1240.93 252.066 1238.87 253.131 Q1236.81 254.196 1234.31 254.196 Q1229.12 254.196 1226.09 251.071 Q1223.08 247.923 1223.08 242.483 Q1223.08 237.159 1226.23 233.941 Q1229.38 230.724 1234.61 230.724 Q1240.6 230.724 1243.75 235.33 Q1246.92 239.913 1246.92 248.663 Q1246.92 256.835 1243.03 261.719 Q1239.17 266.58 1232.62 266.58 Q1230.86 266.58 1229.05 266.233 Q1227.25 265.885 1225.3 265.191 M1234.61 250.538 Q1237.76 250.538 1239.58 248.386 Q1241.44 246.233 1241.44 242.483 Q1241.44 238.756 1239.58 236.603 Q1237.76 234.427 1234.61 234.427 Q1231.46 234.427 1229.61 236.603 Q1227.78 238.756 1227.78 242.483 Q1227.78 246.233 1229.61 248.386 Q1231.46 250.538 1234.61 250.538 Z" fill="#000000" fill-rule="nonzero" fill-opacity="1" /><path clip-path="url(#clip400)" d="M1284.72 250.7 Q1282.71 250.7 1281.55 252.413 Q1280.42 254.126 1280.42 257.182 Q1280.42 260.191 1281.55 261.927 Q1282.71 263.64 1284.72 263.64 Q1286.69 263.64 1287.82 261.927 Q1288.98 260.191 1288.98 257.182 Q1288.98 254.149 1287.82 252.436 Q1286.69 250.7 1284.72 250.7 M1284.72 247.761 Q1288.38 247.761 1290.53 250.307 Q1292.69 252.853 1292.69 257.182 Q1292.69 261.51 1290.51 264.057 Q1288.36 266.58 1284.72 266.58 Q1281.02 266.58 1278.87 264.057 Q1276.71 261.51 1276.71 257.182 Q1276.71 252.83 1278.87 250.307 Q1281.04 247.761 1284.72 247.761 M1260.83 233.663 Q1258.84 233.663 1257.69 235.4 Q1256.55 237.112 1256.55 240.122 Q1256.55 243.177 1257.69 244.89 Q1258.82 246.603 1260.83 246.603 Q1262.85 246.603 1263.98 244.89 Q1265.14 243.177 1265.14 240.122 Q1265.14 237.136 1263.98 235.4 Q1262.82 233.663 1260.83 233.663 M1281.74 230.724 L1285.44 230.724 L1263.82 266.58 L1260.12 266.58 L1281.74 230.724 M1260.83 230.724 Q1264.49 230.724 1266.67 233.27 Q1268.84 235.793 1268.84 240.122 Q1268.84 244.497 1266.67 247.02 Q1264.51 249.543 1260.83 249.543 Q1257.15 249.543 1255 247.02 Q1252.87 244.474 1252.87 240.122 Q1252.87 235.816 1255.02 233.27 Q1257.18 230.724 1260.83 230.724 Z" fill="#000000" fill-rule="nonzero" fill-opacity="1" /></svg>
