<?xml version="1.0" encoding="utf-8"?>
<svg xmlns="http://www.w3.org/2000/svg" xmlns:xlink="http://www.w3.org/1999/xlink" width="600" height="400" viewBox="0 0 2400 1600">
<defs>
  <clipPath id="clip250">
    <rect x="0" y="0" width="2400" height="1600"/>
  </clipPath>
</defs>
<path clip-path="url(#clip250)" d="M0 1600 L2400 1600 L2400 0 L0 0  Z" fill="#ffffff" fill-rule="evenodd" fill-opacity="1"/>
<defs>
  <clipPath id="clip251">
    <rect x="480" y="0" width="1681" height="1600"/>
  </clipPath>
</defs>
<path clip-path="url(#clip250)" d="M257.204 623.18 L2352.76 623.18 L2352.76 47.2441 L257.204 47.2441  Z" fill="#ffffff" fill-rule="evenodd" fill-opacity="1"/>
<defs>
  <clipPath id="clip252">
    <rect x="257" y="47" width="2097" height="577"/>
  </clipPath>
</defs>
<polyline clip-path="url(#clip252)" style="stroke:#000000; stroke-linecap:round; stroke-linejoin:round; stroke-width:2; stroke-opacity:0.1; fill:none" points="316.512,623.18 316.512,47.2441 "/>
<polyline clip-path="url(#clip252)" style="stroke:#000000; stroke-linecap:round; stroke-linejoin:round; stroke-width:2; stroke-opacity:0.1; fill:none" points="712.692,623.18 712.692,47.2441 "/>
<polyline clip-path="url(#clip252)" style="stroke:#000000; stroke-linecap:round; stroke-linejoin:round; stroke-width:2; stroke-opacity:0.1; fill:none" points="1108.87,623.18 1108.87,47.2441 "/>
<polyline clip-path="url(#clip252)" style="stroke:#000000; stroke-linecap:round; stroke-linejoin:round; stroke-width:2; stroke-opacity:0.1; fill:none" points="1505.05,623.18 1505.05,47.2441 "/>
<polyline clip-path="url(#clip252)" style="stroke:#000000; stroke-linecap:round; stroke-linejoin:round; stroke-width:2; stroke-opacity:0.1; fill:none" points="1901.23,623.18 1901.23,47.2441 "/>
<polyline clip-path="url(#clip252)" style="stroke:#000000; stroke-linecap:round; stroke-linejoin:round; stroke-width:2; stroke-opacity:0.1; fill:none" points="2297.41,623.18 2297.41,47.2441 "/>
<polyline clip-path="url(#clip250)" style="stroke:#000000; stroke-linecap:round; stroke-linejoin:round; stroke-width:4; stroke-opacity:1; fill:none" points="257.204,623.18 2352.76,623.18 "/>
<polyline clip-path="url(#clip250)" style="stroke:#000000; stroke-linecap:round; stroke-linejoin:round; stroke-width:4; stroke-opacity:1; fill:none" points="316.512,623.18 316.512,604.282 "/>
<polyline clip-path="url(#clip250)" style="stroke:#000000; stroke-linecap:round; stroke-linejoin:round; stroke-width:4; stroke-opacity:1; fill:none" points="712.692,623.18 712.692,604.282 "/>
<polyline clip-path="url(#clip250)" style="stroke:#000000; stroke-linecap:round; stroke-linejoin:round; stroke-width:4; stroke-opacity:1; fill:none" points="1108.87,623.18 1108.87,604.282 "/>
<polyline clip-path="url(#clip250)" style="stroke:#000000; stroke-linecap:round; stroke-linejoin:round; stroke-width:4; stroke-opacity:1; fill:none" points="1505.05,623.18 1505.05,604.282 "/>
<polyline clip-path="url(#clip250)" style="stroke:#000000; stroke-linecap:round; stroke-linejoin:round; stroke-width:4; stroke-opacity:1; fill:none" points="1901.23,623.18 1901.23,604.282 "/>
<polyline clip-path="url(#clip250)" style="stroke:#000000; stroke-linecap:round; stroke-linejoin:round; stroke-width:4; stroke-opacity:1; fill:none" points="2297.41,623.18 2297.41,604.282 "/>
<path clip-path="url(#clip250)" d="M316.512 654.099 Q312.901 654.099 311.072 657.663 Q309.267 661.205 309.267 668.335 Q309.267 675.441 311.072 679.006 Q312.901 682.547 316.512 682.547 Q320.146 682.547 321.952 679.006 Q323.781 675.441 323.781 668.335 Q323.781 661.205 321.952 657.663 Q320.146 654.099 316.512 654.099 M316.512 650.395 Q322.322 650.395 325.378 655.001 Q328.456 659.585 328.456 668.335 Q328.456 677.061 325.378 681.668 Q322.322 686.251 316.512 686.251 Q310.702 686.251 307.623 681.668 Q304.568 677.061 304.568 668.335 Q304.568 659.585 307.623 655.001 Q310.702 650.395 316.512 650.395 Z" fill="#000000" fill-rule="nonzero" fill-opacity="1" /><path clip-path="url(#clip250)" d="M703.074 681.645 L710.712 681.645 L710.712 655.279 L702.402 656.946 L702.402 652.687 L710.666 651.02 L715.342 651.02 L715.342 681.645 L722.981 681.645 L722.981 685.58 L703.074 685.58 L703.074 681.645 Z" fill="#000000" fill-rule="nonzero" fill-opacity="1" /><path clip-path="url(#clip250)" d="M1103.52 681.645 L1119.84 681.645 L1119.84 685.58 L1097.9 685.58 L1097.9 681.645 Q1100.56 678.89 1105.14 674.26 Q1109.75 669.608 1110.93 668.265 Q1113.18 665.742 1114.06 664.006 Q1114.96 662.247 1114.96 660.557 Q1114.96 657.802 1113.01 656.066 Q1111.09 654.33 1107.99 654.33 Q1105.79 654.33 1103.34 655.094 Q1100.91 655.858 1098.13 657.409 L1098.13 652.687 Q1100.95 651.552 1103.41 650.974 Q1105.86 650.395 1107.9 650.395 Q1113.27 650.395 1116.46 653.08 Q1119.66 655.765 1119.66 660.256 Q1119.66 662.386 1118.85 664.307 Q1118.06 666.205 1115.95 668.798 Q1115.38 669.469 1112.27 672.686 Q1109.17 675.881 1103.52 681.645 Z" fill="#000000" fill-rule="nonzero" fill-opacity="1" /><path clip-path="url(#clip250)" d="M1509.3 666.946 Q1512.65 667.663 1514.53 669.932 Q1516.43 672.2 1516.43 675.534 Q1516.43 680.649 1512.91 683.45 Q1509.39 686.251 1502.91 686.251 Q1500.73 686.251 1498.42 685.811 Q1496.13 685.395 1493.67 684.538 L1493.67 680.024 Q1495.62 681.159 1497.93 681.737 Q1500.25 682.316 1502.77 682.316 Q1507.17 682.316 1509.46 680.58 Q1511.78 678.844 1511.78 675.534 Q1511.78 672.478 1509.62 670.765 Q1507.49 669.029 1503.67 669.029 L1499.65 669.029 L1499.65 665.186 L1503.86 665.186 Q1507.31 665.186 1509.14 663.821 Q1510.96 662.432 1510.96 659.839 Q1510.96 657.177 1509.07 655.765 Q1507.19 654.33 1503.67 654.33 Q1501.75 654.33 1499.55 654.747 Q1497.35 655.163 1494.72 656.043 L1494.72 651.876 Q1497.38 651.136 1499.69 650.765 Q1502.03 650.395 1504.09 650.395 Q1509.41 650.395 1512.52 652.825 Q1515.62 655.233 1515.62 659.353 Q1515.62 662.223 1513.97 664.214 Q1512.33 666.182 1509.3 666.946 Z" fill="#000000" fill-rule="nonzero" fill-opacity="1" /><path clip-path="url(#clip250)" d="M1904.24 655.094 L1892.43 673.543 L1904.24 673.543 L1904.24 655.094 M1903.01 651.02 L1908.89 651.02 L1908.89 673.543 L1913.82 673.543 L1913.82 677.432 L1908.89 677.432 L1908.89 685.58 L1904.24 685.58 L1904.24 677.432 L1888.64 677.432 L1888.64 672.918 L1903.01 651.02 Z" fill="#000000" fill-rule="nonzero" fill-opacity="1" /><path clip-path="url(#clip250)" d="M2287.69 651.02 L2306.04 651.02 L2306.04 654.955 L2291.97 654.955 L2291.97 663.427 Q2292.99 663.08 2294.01 662.918 Q2295.03 662.733 2296.04 662.733 Q2301.83 662.733 2305.21 665.904 Q2308.59 669.075 2308.59 674.492 Q2308.59 680.071 2305.12 683.172 Q2301.65 686.251 2295.33 686.251 Q2293.15 686.251 2290.88 685.881 Q2288.64 685.51 2286.23 684.77 L2286.23 680.071 Q2288.31 681.205 2290.53 681.76 Q2292.76 682.316 2295.23 682.316 Q2299.24 682.316 2301.58 680.21 Q2303.91 678.103 2303.91 674.492 Q2303.91 670.881 2301.58 668.774 Q2299.24 666.668 2295.23 666.668 Q2293.36 666.668 2291.48 667.085 Q2289.63 667.501 2287.69 668.381 L2287.69 651.02 Z" fill="#000000" fill-rule="nonzero" fill-opacity="1" /><path clip-path="url(#clip250)" d="M1175.15 720.524 L1215.35 720.524 L1215.35 725.935 L1198.48 725.935 L1198.48 768.044 L1192.02 768.044 L1192.02 725.935 L1175.15 725.935 L1175.15 720.524 Z" fill="#000000" fill-rule="nonzero" fill-opacity="1" /><path clip-path="url(#clip250)" d="M1219.3 732.396 L1225.15 732.396 L1225.15 768.044 L1219.3 768.044 L1219.3 732.396 M1219.3 718.519 L1225.15 718.519 L1225.15 725.935 L1219.3 725.935 L1219.3 718.519 Z" fill="#000000" fill-rule="nonzero" fill-opacity="1" /><path clip-path="url(#clip250)" d="M1265.16 739.239 Q1267.36 735.292 1270.41 733.414 Q1273.47 731.537 1277.61 731.537 Q1283.18 731.537 1286.2 735.451 Q1289.22 739.335 1289.22 746.528 L1289.22 768.044 L1283.34 768.044 L1283.34 746.719 Q1283.34 741.594 1281.52 739.112 Q1279.71 736.629 1275.98 736.629 Q1271.43 736.629 1268.79 739.653 Q1266.15 742.677 1266.15 747.896 L1266.15 768.044 L1260.26 768.044 L1260.26 746.719 Q1260.26 741.563 1258.45 739.112 Q1256.63 736.629 1252.84 736.629 Q1248.36 736.629 1245.72 739.685 Q1243.07 742.708 1243.07 747.896 L1243.07 768.044 L1237.19 768.044 L1237.19 732.396 L1243.07 732.396 L1243.07 737.934 Q1245.08 734.656 1247.88 733.096 Q1250.68 731.537 1254.53 731.537 Q1258.41 731.537 1261.12 733.51 Q1263.86 735.483 1265.16 739.239 Z" fill="#000000" fill-rule="nonzero" fill-opacity="1" /><path clip-path="url(#clip250)" d="M1331.4 748.756 L1331.4 751.62 L1304.47 751.62 Q1304.85 757.668 1308.1 760.851 Q1311.38 764.002 1317.2 764.002 Q1320.58 764.002 1323.73 763.174 Q1326.91 762.347 1330.03 760.691 L1330.03 766.23 Q1326.88 767.566 1323.57 768.267 Q1320.26 768.967 1316.85 768.967 Q1308.32 768.967 1303.32 764.002 Q1298.36 759.036 1298.36 750.57 Q1298.36 741.817 1303.07 736.693 Q1307.81 731.537 1315.83 731.537 Q1323.03 731.537 1327.2 736.183 Q1331.4 740.799 1331.4 748.756 M1325.54 747.037 Q1325.48 742.231 1322.84 739.366 Q1320.23 736.502 1315.9 736.502 Q1311 736.502 1308.04 739.271 Q1305.11 742.04 1304.66 747.069 L1325.54 747.037 Z" fill="#000000" fill-rule="nonzero" fill-opacity="1" /><path clip-path="url(#clip250)" d="M1375.8 718.582 Q1371.53 725.903 1369.46 733.064 Q1367.4 740.226 1367.4 747.578 Q1367.4 754.93 1369.46 762.156 Q1371.57 769.349 1375.8 776.638 L1370.71 776.638 Q1365.93 769.158 1363.54 761.933 Q1361.19 754.708 1361.19 747.578 Q1361.19 740.48 1363.54 733.287 Q1365.9 726.094 1370.71 718.582 L1375.8 718.582 Z" fill="#000000" fill-rule="nonzero" fill-opacity="1" /><path clip-path="url(#clip250)" d="M1409.89 733.446 L1409.89 738.984 Q1407.4 737.711 1404.73 737.075 Q1402.06 736.438 1399.19 736.438 Q1394.83 736.438 1392.64 737.775 Q1390.47 739.112 1390.47 741.785 Q1390.47 743.822 1392.03 745 Q1393.59 746.146 1398.3 747.196 L1400.31 747.642 Q1406.54 748.979 1409.15 751.429 Q1411.8 753.848 1411.8 758.209 Q1411.8 763.174 1407.85 766.07 Q1403.93 768.967 1397.06 768.967 Q1394.2 768.967 1391.08 768.394 Q1387.99 767.853 1384.55 766.739 L1384.55 760.691 Q1387.8 762.378 1390.95 763.238 Q1394.1 764.065 1397.19 764.065 Q1401.32 764.065 1403.55 762.665 Q1405.78 761.233 1405.78 758.654 Q1405.78 756.267 1404.16 754.994 Q1402.57 753.721 1397.12 752.543 L1395.09 752.066 Q1389.64 750.92 1387.22 748.565 Q1384.81 746.178 1384.81 742.04 Q1384.81 737.011 1388.37 734.274 Q1391.94 731.537 1398.49 731.537 Q1401.74 731.537 1404.6 732.014 Q1407.47 732.491 1409.89 733.446 Z" fill="#000000" fill-rule="nonzero" fill-opacity="1" /><path clip-path="url(#clip250)" d="M1420.2 718.582 L1425.29 718.582 Q1430.07 726.094 1432.42 733.287 Q1434.81 740.48 1434.81 747.578 Q1434.81 754.708 1432.42 761.933 Q1430.07 769.158 1425.29 776.638 L1420.2 776.638 Q1424.43 769.349 1426.5 762.156 Q1428.6 754.93 1428.6 747.578 Q1428.6 740.226 1426.5 733.064 Q1424.43 725.903 1420.2 718.582 Z" fill="#000000" fill-rule="nonzero" fill-opacity="1" /><polyline clip-path="url(#clip252)" style="stroke:#000000; stroke-linecap:round; stroke-linejoin:round; stroke-width:2; stroke-opacity:0.1; fill:none" points="257.204,605.35 2352.76,605.35 "/>
<polyline clip-path="url(#clip252)" style="stroke:#000000; stroke-linecap:round; stroke-linejoin:round; stroke-width:2; stroke-opacity:0.1; fill:none" points="257.204,468.666 2352.76,468.666 "/>
<polyline clip-path="url(#clip252)" style="stroke:#000000; stroke-linecap:round; stroke-linejoin:round; stroke-width:2; stroke-opacity:0.1; fill:none" points="257.204,331.982 2352.76,331.982 "/>
<polyline clip-path="url(#clip252)" style="stroke:#000000; stroke-linecap:round; stroke-linejoin:round; stroke-width:2; stroke-opacity:0.1; fill:none" points="257.204,195.298 2352.76,195.298 "/>
<polyline clip-path="url(#clip252)" style="stroke:#000000; stroke-linecap:round; stroke-linejoin:round; stroke-width:2; stroke-opacity:0.1; fill:none" points="257.204,58.6143 2352.76,58.6143 "/>
<polyline clip-path="url(#clip250)" style="stroke:#000000; stroke-linecap:round; stroke-linejoin:round; stroke-width:4; stroke-opacity:1; fill:none" points="257.204,623.18 257.204,47.2441 "/>
<polyline clip-path="url(#clip250)" style="stroke:#000000; stroke-linecap:round; stroke-linejoin:round; stroke-width:4; stroke-opacity:1; fill:none" points="257.204,605.35 276.102,605.35 "/>
<polyline clip-path="url(#clip250)" style="stroke:#000000; stroke-linecap:round; stroke-linejoin:round; stroke-width:4; stroke-opacity:1; fill:none" points="257.204,468.666 276.102,468.666 "/>
<polyline clip-path="url(#clip250)" style="stroke:#000000; stroke-linecap:round; stroke-linejoin:round; stroke-width:4; stroke-opacity:1; fill:none" points="257.204,331.982 276.102,331.982 "/>
<polyline clip-path="url(#clip250)" style="stroke:#000000; stroke-linecap:round; stroke-linejoin:round; stroke-width:4; stroke-opacity:1; fill:none" points="257.204,195.298 276.102,195.298 "/>
<polyline clip-path="url(#clip250)" style="stroke:#000000; stroke-linecap:round; stroke-linejoin:round; stroke-width:4; stroke-opacity:1; fill:none" points="257.204,58.6143 276.102,58.6143 "/>
<path clip-path="url(#clip250)" d="M115.857 605.801 L145.533 605.801 L145.533 609.736 L115.857 609.736 L115.857 605.801 Z" fill="#000000" fill-rule="nonzero" fill-opacity="1" /><path clip-path="url(#clip250)" d="M165.626 591.148 Q162.015 591.148 160.186 594.713 Q158.38 598.255 158.38 605.384 Q158.38 612.491 160.186 616.056 Q162.015 619.597 165.626 619.597 Q169.26 619.597 171.065 616.056 Q172.894 612.491 172.894 605.384 Q172.894 598.255 171.065 594.713 Q169.26 591.148 165.626 591.148 M165.626 587.445 Q171.436 587.445 174.491 592.051 Q177.57 596.634 177.57 605.384 Q177.57 614.111 174.491 618.718 Q171.436 623.301 165.626 623.301 Q159.815 623.301 156.737 618.718 Q153.681 614.111 153.681 605.384 Q153.681 596.634 156.737 592.051 Q159.815 587.445 165.626 587.445 Z" fill="#000000" fill-rule="nonzero" fill-opacity="1" /><path clip-path="url(#clip250)" d="M185.788 616.75 L190.672 616.75 L190.672 622.63 L185.788 622.63 L185.788 616.75 Z" fill="#000000" fill-rule="nonzero" fill-opacity="1" /><path clip-path="url(#clip250)" d="M204.885 618.694 L221.204 618.694 L221.204 622.63 L199.26 622.63 L199.26 618.694 Q201.922 615.94 206.505 611.31 Q211.111 606.657 212.292 605.315 Q214.537 602.792 215.417 601.056 Q216.32 599.296 216.32 597.607 Q216.32 594.852 214.375 593.116 Q212.454 591.38 209.352 591.38 Q207.153 591.38 204.699 592.144 Q202.269 592.908 199.491 594.458 L199.491 589.736 Q202.315 588.602 204.769 588.023 Q207.223 587.445 209.26 587.445 Q214.63 587.445 217.824 590.13 Q221.019 592.815 221.019 597.306 Q221.019 599.435 220.209 601.357 Q219.422 603.255 217.315 605.847 Q216.736 606.519 213.635 609.736 Q210.533 612.931 204.885 618.694 Z" fill="#000000" fill-rule="nonzero" fill-opacity="1" /><path clip-path="url(#clip250)" d="M115.487 469.117 L145.163 469.117 L145.163 473.052 L115.487 473.052 L115.487 469.117 Z" fill="#000000" fill-rule="nonzero" fill-opacity="1" /><path clip-path="url(#clip250)" d="M165.255 454.464 Q161.644 454.464 159.815 458.029 Q158.01 461.571 158.01 468.7 Q158.01 475.807 159.815 479.372 Q161.644 482.913 165.255 482.913 Q168.889 482.913 170.695 479.372 Q172.524 475.807 172.524 468.7 Q172.524 461.571 170.695 458.029 Q168.889 454.464 165.255 454.464 M165.255 450.761 Q171.065 450.761 174.121 455.367 Q177.2 459.951 177.2 468.7 Q177.2 477.427 174.121 482.034 Q171.065 486.617 165.255 486.617 Q159.445 486.617 156.366 482.034 Q153.311 477.427 153.311 468.7 Q153.311 459.951 156.366 455.367 Q159.445 450.761 165.255 450.761 Z" fill="#000000" fill-rule="nonzero" fill-opacity="1" /><path clip-path="url(#clip250)" d="M185.417 480.066 L190.301 480.066 L190.301 485.946 L185.417 485.946 L185.417 480.066 Z" fill="#000000" fill-rule="nonzero" fill-opacity="1" /><path clip-path="url(#clip250)" d="M201.297 482.011 L208.936 482.011 L208.936 455.645 L200.625 457.312 L200.625 453.052 L208.889 451.386 L213.565 451.386 L213.565 482.011 L221.204 482.011 L221.204 485.946 L201.297 485.946 L201.297 482.011 Z" fill="#000000" fill-rule="nonzero" fill-opacity="1" /><path clip-path="url(#clip250)" d="M164.028 317.781 Q160.417 317.781 158.589 321.345 Q156.783 324.887 156.783 332.017 Q156.783 339.123 158.589 342.688 Q160.417 346.23 164.028 346.23 Q167.663 346.23 169.468 342.688 Q171.297 339.123 171.297 332.017 Q171.297 324.887 169.468 321.345 Q167.663 317.781 164.028 317.781 M164.028 314.077 Q169.839 314.077 172.894 318.683 Q175.973 323.267 175.973 332.017 Q175.973 340.743 172.894 345.35 Q169.839 349.933 164.028 349.933 Q158.218 349.933 155.14 345.35 Q152.084 340.743 152.084 332.017 Q152.084 323.267 155.14 318.683 Q158.218 314.077 164.028 314.077 Z" fill="#000000" fill-rule="nonzero" fill-opacity="1" /><path clip-path="url(#clip250)" d="M184.19 343.382 L189.075 343.382 L189.075 349.262 L184.19 349.262 L184.19 343.382 Z" fill="#000000" fill-rule="nonzero" fill-opacity="1" /><path clip-path="url(#clip250)" d="M209.26 317.781 Q205.649 317.781 203.82 321.345 Q202.014 324.887 202.014 332.017 Q202.014 339.123 203.82 342.688 Q205.649 346.23 209.26 346.23 Q212.894 346.23 214.699 342.688 Q216.528 339.123 216.528 332.017 Q216.528 324.887 214.699 321.345 Q212.894 317.781 209.26 317.781 M209.26 314.077 Q215.07 314.077 218.125 318.683 Q221.204 323.267 221.204 332.017 Q221.204 340.743 218.125 345.35 Q215.07 349.933 209.26 349.933 Q203.449 349.933 200.371 345.35 Q197.315 340.743 197.315 332.017 Q197.315 323.267 200.371 318.683 Q203.449 314.077 209.26 314.077 Z" fill="#000000" fill-rule="nonzero" fill-opacity="1" /><path clip-path="url(#clip250)" d="M165.255 181.097 Q161.644 181.097 159.815 184.662 Q158.01 188.203 158.01 195.333 Q158.01 202.439 159.815 206.004 Q161.644 209.546 165.255 209.546 Q168.889 209.546 170.695 206.004 Q172.524 202.439 172.524 195.333 Q172.524 188.203 170.695 184.662 Q168.889 181.097 165.255 181.097 M165.255 177.393 Q171.065 177.393 174.121 182 Q177.2 186.583 177.2 195.333 Q177.2 204.06 174.121 208.666 Q171.065 213.249 165.255 213.249 Q159.445 213.249 156.366 208.666 Q153.311 204.06 153.311 195.333 Q153.311 186.583 156.366 182 Q159.445 177.393 165.255 177.393 Z" fill="#000000" fill-rule="nonzero" fill-opacity="1" /><path clip-path="url(#clip250)" d="M185.417 206.699 L190.301 206.699 L190.301 212.578 L185.417 212.578 L185.417 206.699 Z" fill="#000000" fill-rule="nonzero" fill-opacity="1" /><path clip-path="url(#clip250)" d="M201.297 208.643 L208.936 208.643 L208.936 182.277 L200.625 183.944 L200.625 179.685 L208.889 178.018 L213.565 178.018 L213.565 208.643 L221.204 208.643 L221.204 212.578 L201.297 212.578 L201.297 208.643 Z" fill="#000000" fill-rule="nonzero" fill-opacity="1" /><path clip-path="url(#clip250)" d="M165.626 44.413 Q162.015 44.413 160.186 47.9778 Q158.38 51.5194 158.38 58.649 Q158.38 65.7555 160.186 69.3203 Q162.015 72.8619 165.626 72.8619 Q169.26 72.8619 171.065 69.3203 Q172.894 65.7555 172.894 58.649 Q172.894 51.5194 171.065 47.9778 Q169.26 44.413 165.626 44.413 M165.626 40.7093 Q171.436 40.7093 174.491 45.3158 Q177.57 49.8991 177.57 58.649 Q177.57 67.3758 174.491 71.9823 Q171.436 76.5656 165.626 76.5656 Q159.815 76.5656 156.737 71.9823 Q153.681 67.3758 153.681 58.649 Q153.681 49.8991 156.737 45.3158 Q159.815 40.7093 165.626 40.7093 Z" fill="#000000" fill-rule="nonzero" fill-opacity="1" /><path clip-path="url(#clip250)" d="M185.788 70.0147 L190.672 70.0147 L190.672 75.8943 L185.788 75.8943 L185.788 70.0147 Z" fill="#000000" fill-rule="nonzero" fill-opacity="1" /><path clip-path="url(#clip250)" d="M204.885 71.9592 L221.204 71.9592 L221.204 75.8943 L199.26 75.8943 L199.26 71.9592 Q201.922 69.2045 206.505 64.5749 Q211.111 59.9222 212.292 58.5796 Q214.537 56.0565 215.417 54.3204 Q216.32 52.5611 216.32 50.8713 Q216.32 48.1167 214.375 46.3806 Q212.454 44.6445 209.352 44.6445 Q207.153 44.6445 204.699 45.4084 Q202.269 46.1723 199.491 47.7232 L199.491 43.001 Q202.315 41.8667 204.769 41.288 Q207.223 40.7093 209.26 40.7093 Q214.63 40.7093 217.824 43.3945 Q221.019 46.0797 221.019 50.5704 Q221.019 52.7 220.209 54.6213 Q219.422 56.5194 217.315 59.112 Q216.736 59.7833 213.635 63.0009 Q210.533 66.1953 204.885 71.9592 Z" fill="#000000" fill-rule="nonzero" fill-opacity="1" /><path clip-path="url(#clip250)" d="M68.5412 333.525 Q74.9069 336.008 76.8484 338.363 Q78.79 340.718 78.79 344.665 L78.79 349.344 L73.8884 349.344 L73.8884 345.906 Q73.8884 343.487 72.7425 342.151 Q71.5967 340.814 67.3317 339.191 L64.6581 338.14 L29.583 352.559 L29.583 346.352 L57.4648 335.212 L29.583 324.072 L29.583 317.865 L68.5412 333.525 Z" fill="#000000" fill-rule="nonzero" fill-opacity="1" /><polyline clip-path="url(#clip252)" style="stroke:#009af9; stroke-linecap:round; stroke-linejoin:round; stroke-width:4; stroke-opacity:1; fill:none" points="316.512,331.982 320.474,331.982 324.436,331.982 324.436,345.492 328.397,345.492 328.397,358.605 332.359,358.605 332.359,371.204 336.321,371.204 336.321,383.188 340.283,383.188 340.283,394.466 344.245,394.466 344.245,404.966 348.206,404.966 348.206,414.63 352.168,414.63 352.168,423.416 356.13,423.416 356.13,431.303 360.092,431.303 360.092,438.282 364.054,438.282 364.054,417.345 368.015,417.345 368.015,396.334 371.977,396.334 371.977,375.522 375.939,375.522 375.939,355.169 379.901,355.169 379.901,335.522 383.863,335.522 383.863,343.828 387.824,343.828 387.824,352.472 391.786,352.472 391.786,361.401 395.748,361.401 395.748,370.555 399.71,370.555 399.71,379.869 403.672,379.869 403.672,389.278 407.633,389.278 407.633,398.716 411.595,398.716 411.595,408.114 415.557,408.114 415.557,417.408 419.519,417.408 419.519,426.534 423.481,426.534 423.481,408.414 427.442,408.414 427.442,390.811 431.404,390.811 431.404,373.906 435.366,373.906 435.366,357.866 439.328,357.866 439.328,342.834 443.29,342.834 443.29,355.953 447.251,355.953 447.251,369.503 451.213,369.503 451.213,383.326 455.175,383.326 455.175,397.262 459.137,397.262 459.137,411.152 463.099,411.152 463.099,397.82 467.06,397.82 467.06,384.937 471.022,384.937 471.022,372.595 474.984,372.595 474.984,360.874 478.946,360.874 478.946,349.844 482.907,349.844 482.907,339.558 486.869,339.558 486.869,330.055 490.831,330.055 490.831,321.358 494.793,321.358 494.793,313.476 498.755,313.476 498.755,306.403 502.716,306.403 502.716,327.139 506.678,327.139 506.678,347.834 510.64,347.834 510.64,368.209 514.602,368.209 514.602,388.002 518.564,388.002 518.564,406.967 522.525,406.967 522.525,397.86 526.487,397.86 526.487,388.301 530.449,388.301 530.449,378.35 534.411,378.35 534.411,368.078 538.373,368.078 538.373,357.559 542.334,357.559 542.334,346.872 546.296,346.872 546.296,336.099 550.258,336.099 550.258,325.321 554.22,325.321 554.22,314.618 558.182,314.618 558.182,304.07 562.143,304.07 562.143,320.771 566.105,320.771 566.105,336.973 570.067,336.973 570.067,352.508 574.029,352.508 574.029,367.225 577.991,367.225 577.991,380.992 581.952,380.992 581.952,393.698 585.914,393.698 585.914,405.256 589.876,405.256 589.876,415.601 593.838,415.601 593.838,424.694 597.8,424.694 597.8,432.519 601.761,432.519 601.761,439.087 605.723,439.087 605.723,444.428 609.685,444.428 609.685,448.598 613.647,448.598 613.647,451.67 617.609,451.67 617.609,453.738 621.57,453.738 621.57,454.91 625.532,454.91 625.532,455.307 629.494,455.307 629.494,455.062 633.456,455.062 633.456,454.314 637.418,454.314 637.418,453.208 641.379,453.208 641.379,451.89 645.341,451.89 645.341,450.504 649.303,450.504 649.303,449.19 653.265,449.19 653.265,448.084 657.226,448.084 657.226,447.309 661.188,447.309 661.188,446.979 665.15,446.979 665.15,447.195 669.112,447.195 669.112,448.042 673.074,448.042 673.074,449.589 677.035,449.589 677.035,451.89 680.997,451.89 680.997,454.979 684.959,454.979 684.959,458.874 688.921,458.874 688.921,463.576 692.883,463.576 692.883,469.068 696.844,469.068 696.844,475.317 700.806,475.317 700.806,482.276 704.768,482.276 704.768,489.884 708.73,489.884 708.73,498.068 712.692,498.068 712.692,506.744 716.653,506.744 716.653,515.822 720.615,515.822 720.615,525.203 724.577,525.203 724.577,534.788 728.539,534.788 728.539,544.471 732.501,544.471 732.501,554.151 736.462,554.151 736.462,563.725 740.424,563.725 740.424,573.098 744.386,573.098 744.386,582.179 748.348,582.179 748.348,590.884 752.31,590.884 752.31,599.139 756.271,599.139 756.271,606.88 760.233,606.88 760.233,587.033 764.195,587.033 764.195,567.374 768.157,567.374 768.157,548.105 772.119,548.105 772.119,529.414 776.08,529.414 776.08,511.477 780.042,511.477 780.042,521.47 784.004,521.47 784.004,531.713 787.966,531.713 787.966,542.086 791.928,542.086 791.928,552.474 795.889,552.474 795.889,562.76 799.851,562.76 799.851,545.813 803.813,545.813 803.813,529.345 807.775,529.345 807.775,513.491 811.736,513.491 811.736,498.372 815.698,498.372 815.698,484.09 819.66,484.09 819.66,497.752 823.622,497.752 823.622,511.609 827.584,511.609 827.584,525.478 831.545,525.478 831.545,539.18 835.507,539.18 835.507,552.543 839.469,552.543 839.469,538.387 843.431,538.387 843.431,524.382 847.393,524.382 847.393,510.628 851.354,510.628 851.354,497.217 855.316,497.217 855.316,484.235 859.278,484.235 859.278,498.78 863.24,498.78 863.24,513.099 867.202,513.099 867.202,527.018 871.163,527.018 871.163,540.372 875.125,540.372 875.125,553.013 879.087,553.013 879.087,537.788 883.049,537.788 883.049,522.403 887.011,522.403 887.011,506.996 890.972,506.996 890.972,491.705 894.934,491.705 894.934,476.662 898.896,476.662 898.896,489.015 902.858,489.015 902.858,501.062 906.82,501.062 906.82,512.678 910.781,512.678 910.781,523.748 914.743,523.748 914.743,534.172 918.705,534.172 918.705,543.863 922.667,543.863 922.667,552.75 926.629,552.75 926.629,560.779 930.59,560.779 930.59,567.916 934.552,567.916 934.552,574.14 938.514,574.14 938.514,552.43 942.476,552.43 942.476,530.62 946.438,530.62 946.438,508.971 950.399,508.971 950.399,487.738 954.361,487.738 954.361,467.158 958.323,467.158 958.323,447.454 962.285,447.454 962.285,428.823 966.246,428.823 966.246,411.44 970.208,411.44 970.208,395.45 974.17,395.45 974.17,380.968 978.132,380.968 978.132,368.078 982.094,368.078 982.094,356.831 986.055,356.831 986.055,347.248 990.017,347.248 990.017,339.314 993.979,339.314 993.979,332.988 997.941,332.988 997.941,355.218 1001.9,355.218 1001.9,378.089 1005.86,378.089 1005.86,401.248 1009.83,401.248 1009.83,424.346 1013.79,424.346 1013.79,447.046 1017.75,447.046 1017.75,469.024 1021.71,469.024 1021.71,489.982 1025.67,489.982 1025.67,509.649 1029.64,509.649 1029.64,527.784 1033.6,527.784 1033.6,544.186 1037.56,544.186 1037.56,558.689 1041.52,558.689 1041.52,571.172 1045.48,571.172 1045.48,581.554 1049.44,581.554 1049.44,589.796 1053.41,589.796 1053.41,595.903 1057.37,595.903 1057.37,572.899 1061.33,572.899 1061.33,548.685 1065.29,548.685 1065.29,523.61 1069.25,523.61 1069.25,498.034 1073.21,498.034 1073.21,472.314 1077.18,472.314 1077.18,446.805 1081.14,446.805 1081.14,421.845 1085.1,421.845 1085.1,397.755 1089.06,397.755 1089.06,374.83 1093.02,374.83 1093.02,353.337 1096.99,353.337 1096.99,333.505 1100.95,333.505 1100.95,315.528 1104.91,315.528 1104.91,299.558 1108.87,299.558 1108.87,285.704 1112.83,285.704 1112.83,274.032 1116.79,274.032 1116.79,264.566 1120.76,264.566 1120.76,257.285 1124.72,257.285 1124.72,252.129 1128.68,252.129 1128.68,248.997 1132.64,248.997 1132.64,247.756 1136.6,247.756 1136.6,275.258 1140.57,275.258 1140.57,303.493 1144.53,303.493 1144.53,332.013 1148.49,332.013 1148.49,360.378 1152.45,360.378 1152.45,388.159 1156.41,388.159 1156.41,414.955 1160.37,414.955 1160.37,440.391 1164.34,440.391 1164.34,464.13 1168.3,464.13 1168.3,485.878 1172.26,485.878 1172.26,505.387 1176.22,505.387 1176.22,495.436 1180.18,495.436 1180.18,483.699 1184.15,483.699 1184.15,470.313 1188.11,470.313 1188.11,455.448 1192.07,455.448 1192.07,439.296 1196.03,439.296 1196.03,422.073 1199.99,422.073 1199.99,404.01 1203.95,404.01 1203.95,385.349 1207.92,385.349 1207.92,366.338 1211.88,366.338 1211.88,347.227 1215.84,347.227 1215.84,355.281 1219.8,355.281 1219.8,362.919 1223.76,362.919 1223.76,370.135 1227.72,370.135 1227.72,376.929 1231.69,376.929 1231.69,383.308 1235.65,383.308 1235.65,389.286 1239.61,389.286 1239.61,394.883 1243.57,394.883 1243.57,400.125 1247.53,400.125 1247.53,405.042 1251.5,405.042 1251.5,409.669 1255.46,409.669 1255.46,414.046 1259.42,414.046 1259.42,418.212 1263.38,418.212 1263.38,422.211 1267.34,422.211 1267.34,426.087 1271.3,426.087 1271.3,429.882 1275.27,429.882 1275.27,433.64 1279.23,433.64 1279.23,437.401 1283.19,437.401 1283.19,441.205 1287.15,441.205 1287.15,445.087 1291.11,445.087 1291.11,449.078 1295.08,449.078 1295.08,453.206 1299.04,453.206 1299.04,457.495 1303,457.495 1303,461.962 1306.96,461.962 1306.96,466.62 1310.92,466.62 1310.92,471.478 1314.88,471.478 1314.88,449.517 1318.85,449.517 1318.85,428.551 1322.81,428.551 1322.81,408.804 1326.77,408.804 1326.77,390.468 1330.73,390.468 1330.73,373.706 1334.69,373.706 1334.69,358.646 1338.66,358.646 1338.66,345.379 1342.62,345.379 1342.62,333.962 1346.58,333.962 1346.58,324.412 1350.54,324.412 1350.54,316.714 1354.5,316.714 1354.5,310.817 1358.46,310.817 1358.46,306.635 1362.43,306.635 1362.43,304.058 1366.39,304.058 1366.39,302.943 1370.35,302.943 1370.35,303.127 1374.31,303.127 1374.31,331.45 1378.27,331.45 1378.27,359.895 1382.23,359.895 1382.23,388.025 1386.2,388.025 1386.2,415.417 1390.16,415.417 1390.16,441.678 1394.12,441.678 1394.12,466.445 1398.08,466.445 1398.08,489.393 1402.04,489.393 1402.04,510.245 1406.01,510.245 1406.01,528.767 1409.97,528.767 1409.97,544.782 1413.93,544.782 1413.93,558.162 1417.89,558.162 1417.89,568.837 1421.85,568.837 1421.85,576.788 1425.81,576.788 1425.81,582.051 1429.78,582.051 1429.78,584.712 1433.74,584.712 1433.74,584.905 1437.7,584.905 1437.7,582.807 1441.66,582.807 1441.66,578.634 1445.62,578.634 1445.62,572.636 1449.59,572.636 1449.59,565.089 1453.55,565.089 1453.55,529.27 1457.51,529.27 1457.51,493.309 1461.47,493.309 1461.47,457.758 1465.43,457.758 1465.43,423.144 1469.39,423.144 1469.39,389.963 1473.36,389.963 1473.36,358.671 1477.32,358.671 1477.32,329.672 1481.28,329.672 1481.28,303.317 1485.24,303.317 1485.24,279.894 1489.2,279.894 1489.2,259.629 1493.17,259.629 1493.17,242.679 1497.13,242.679 1497.13,229.132 1501.09,229.132 1501.09,219.009 1505.05,219.009 1505.05,212.264 1509.01,212.264 1509.01,208.789 1512.97,208.789 1512.97,235.433 1516.94,235.433 1516.94,264.158 1520.9,264.158 1520.9,294.461 1524.86,294.461 1524.86,325.821 1528.82,325.821 1528.82,357.713 1532.78,357.713 1532.78,362.593 1536.74,362.593 1536.74,367.77 1540.71,367.77 1540.71,372.988 1544.67,372.988 1544.67,378.001 1548.63,378.001 1548.63,382.575 1552.59,382.575 1552.59,413.515 1556.55,413.515 1556.55,442.806 1560.52,442.806 1560.52,470.048 1564.48,470.048 1564.48,494.888 1568.44,494.888 1568.44,517.031 1572.4,517.031 1572.4,536.244 1576.36,536.244 1576.36,552.354 1580.32,552.354 1580.32,565.256 1584.29,565.256 1584.29,574.908 1588.25,574.908 1588.25,581.334 1592.21,581.334 1592.21,584.617 1596.17,584.617 1596.17,584.901 1600.13,584.901 1600.13,582.381 1604.1,582.381 1604.1,577.303 1608.06,577.303 1608.06,569.952 1612.02,569.952 1612.02,560.651 1615.98,560.651 1615.98,549.748 1619.94,549.748 1619.94,537.613 1623.9,537.613 1623.9,524.628 1627.87,524.628 1627.87,511.178 1631.83,511.178 1631.83,470.627 1635.79,470.627 1635.79,431.162 1639.75,431.162 1639.75,393.368 1643.71,393.368 1643.71,357.781 1647.68,357.781 1647.68,324.878 1651.64,324.878 1651.64,295.074 1655.6,295.074 1655.6,268.708 1659.56,268.708 1659.56,246.046 1663.52,246.046 1663.52,227.274 1667.48,227.274 1667.48,212.498 1671.45,212.498 1671.45,228.762 1675.41,228.762 1675.41,248.196 1679.37,248.196 1679.37,270.444 1683.33,270.444 1683.33,295.1 1687.29,295.1 1687.29,321.723 1691.25,321.723 1691.25,349.846 1695.22,349.846 1695.22,378.984 1699.18,378.984 1699.18,408.646 1703.14,408.646 1703.14,438.344 1707.1,438.344 1707.1,467.603 1711.06,467.603 1711.06,495.967 1715.03,495.967 1715.03,523.014 1718.99,523.014 1718.99,548.357 1722.95,548.357 1722.95,571.653 1726.91,571.653 1726.91,592.608 1730.87,592.608 1730.87,583.962 1734.83,583.962 1734.83,573.349 1738.8,573.349 1738.8,560.874 1742.76,560.874 1742.76,546.68 1746.72,546.68 1746.72,530.937 1750.68,530.937 1750.68,540.867 1754.64,540.867 1754.64,548.873 1758.61,548.873 1758.61,554.964 1762.57,554.964 1762.57,559.186 1766.53,559.186 1766.53,561.616 1770.49,561.616 1770.49,562.367 1774.45,562.367 1774.45,561.577 1778.41,561.577 1778.41,559.412 1782.38,559.412 1782.38,556.058 1786.34,556.058 1786.34,551.717 1790.3,551.717 1790.3,546.605 1794.26,546.605 1794.26,540.944 1798.22,540.944 1798.22,534.962 1802.19,534.962 1802.19,528.882 1806.15,528.882 1806.15,522.925 1810.11,522.925 1810.11,490.278 1814.07,490.278 1814.07,458.955 1818.03,458.955 1818.03,429.363 1821.99,429.363 1821.99,401.868 1825.96,401.868 1825.96,376.782 1829.92,376.782 1829.92,354.366 1833.88,354.366 1833.88,334.819 1837.84,334.819 1837.84,318.28 1841.8,318.28 1841.8,304.829 1845.76,304.829 1845.76,294.48 1849.73,294.48 1849.73,314.213 1853.69,314.213 1853.69,336.108 1857.65,336.108 1857.65,359.781 1861.61,359.781 1861.61,384.823 1865.57,384.823 1865.57,410.808 1869.54,410.808 1869.54,410.284 1873.5,410.284 1873.5,410.636 1877.46,410.636 1877.46,411.674 1881.42,411.674 1881.42,413.201 1885.38,413.201 1885.38,415.018 1889.34,415.018 1889.34,443.949 1893.31,443.949 1893.31,471.985 1897.27,471.985 1897.27,498.713 1901.23,498.713 1901.23,523.758 1905.19,523.758 1905.19,546.786 1909.15,546.786 1909.15,540.492 1913.12,540.492 1913.12,532.461 1917.08,532.461 1917.08,522.747 1921.04,522.747 1921.04,511.438 1925,511.438 1925,498.649 1928.96,498.649 1928.96,484.526 1932.92,484.526 1932.92,469.236 1936.89,469.236 1936.89,452.968 1940.85,452.968 1940.85,435.922 1944.81,435.922 1944.81,418.314 1948.77,418.314 1948.77,400.361 1952.73,400.361 1952.73,382.286 1956.7,382.286 1956.7,364.308 1960.66,364.308 1960.66,346.636 1964.62,346.636 1964.62,329.473 1968.58,329.473 1968.58,313.004 1972.54,313.004 1972.54,297.398 1976.5,297.398 1976.5,282.802 1980.47,282.802 1980.47,269.342 1984.43,269.342 1984.43,257.116 1988.39,257.116 1988.39,273.22 1992.35,273.22 1992.35,289.886 1996.31,289.886 1996.31,306.902 2000.27,306.902 2000.27,324.059 2004.24,324.059 2004.24,341.146 2008.2,341.146 2008.2,330.94 2012.16,330.94 2012.16,321.065 2016.12,321.065 2016.12,311.57 2020.08,311.57 2020.08,302.499 2024.05,302.499 2024.05,293.887 2028.01,293.887 2028.01,285.76 2031.97,285.76 2031.97,278.134 2035.93,278.134 2035.93,271.018 2039.89,271.018 2039.89,264.41 2043.85,264.41 2043.85,258.301 2047.82,258.301 2047.82,279.693 2051.78,279.693 2051.78,300.744 2055.74,300.744 2055.74,321.19 2059.7,321.19 2059.7,340.787 2063.66,340.787 2063.66,359.314 2067.63,359.314 2067.63,349.553 2071.59,349.553 2071.59,339.154 2075.55,339.154 2075.55,328.214 2079.51,328.214 2079.51,316.836 2083.47,316.836 2083.47,305.132 2087.43,305.132 2087.43,293.218 2091.4,293.218 2091.4,281.21 2095.36,281.21 2095.36,269.227 2099.32,269.227 2099.32,257.383 2103.28,257.383 2103.28,245.787 2107.24,245.787 2107.24,234.542 2111.21,234.542 2111.21,223.741 2115.17,223.741 2115.17,213.469 2119.13,213.469 2119.13,203.797 2123.09,203.797 2123.09,194.784 2127.05,194.784 2127.05,186.475 2131.01,186.475 2131.01,178.902 2134.98,178.902 2134.98,172.082 2138.94,172.082 2138.94,166.018 2142.9,166.018 2142.9,160.699 2146.86,160.699 2146.86,156.1 2150.82,156.1 2150.82,152.184 2154.79,152.184 2154.79,148.905 2158.75,148.905 2158.75,146.203 2162.71,146.203 2162.71,144.012 2166.67,144.012 2166.67,142.258 2170.63,142.258 2170.63,140.863 2174.59,140.863 2174.59,139.744 2178.56,139.744 2178.56,138.815 2182.52,138.815 2182.52,137.991 2186.48,137.991 2186.48,137.19 2190.44,137.19 2190.44,136.329 2194.4,136.329 2194.4,135.334 2198.36,135.334 2198.36,134.134 2202.33,134.134 2202.33,132.665 2206.29,132.665 2206.29,130.873 2210.25,130.873 2210.25,128.711 2214.21,128.711 2214.21,126.142 2218.17,126.142 2218.17,123.14 2222.14,123.14 2222.14,119.687 2226.1,119.687 2226.1,115.779 2230.06,115.779 2230.06,111.418 2234.02,111.418 2234.02,106.618 2237.98,106.618 2237.98,101.401 2241.94,101.401 2241.94,95.7983 2245.91,95.7983 2245.91,89.848 2249.87,89.848 2249.87,83.5951 2253.83,83.5951 2253.83,77.0899 2257.79,77.0899 2257.79,70.387 2261.75,70.387 2261.75,63.5442 2265.72,63.5442 2265.72,83.6417 2269.68,83.6417 2269.68,102.923 2273.64,102.923 2273.64,121.217 2277.6,121.217 2277.6,138.377 2281.56,138.377 2281.56,154.279 2285.52,154.279 2285.52,141.806 2289.49,141.806 2289.49,128.705 2293.45,128.705 2293.45,115.167 "/>
<path clip-path="url(#clip250)" d="M257.204 1423.18 L2352.76 1423.18 L2352.76 847.244 L257.204 847.244  Z" fill="#ffffff" fill-rule="evenodd" fill-opacity="1"/>
<defs>
  <clipPath id="clip253">
    <rect x="257" y="847" width="2097" height="577"/>
  </clipPath>
</defs>
<polyline clip-path="url(#clip253)" style="stroke:#000000; stroke-linecap:round; stroke-linejoin:round; stroke-width:2; stroke-opacity:0.1; fill:none" points="316.512,1423.18 316.512,847.244 "/>
<polyline clip-path="url(#clip253)" style="stroke:#000000; stroke-linecap:round; stroke-linejoin:round; stroke-width:2; stroke-opacity:0.1; fill:none" points="712.692,1423.18 712.692,847.244 "/>
<polyline clip-path="url(#clip253)" style="stroke:#000000; stroke-linecap:round; stroke-linejoin:round; stroke-width:2; stroke-opacity:0.1; fill:none" points="1108.87,1423.18 1108.87,847.244 "/>
<polyline clip-path="url(#clip253)" style="stroke:#000000; stroke-linecap:round; stroke-linejoin:round; stroke-width:2; stroke-opacity:0.1; fill:none" points="1505.05,1423.18 1505.05,847.244 "/>
<polyline clip-path="url(#clip253)" style="stroke:#000000; stroke-linecap:round; stroke-linejoin:round; stroke-width:2; stroke-opacity:0.1; fill:none" points="1901.23,1423.18 1901.23,847.244 "/>
<polyline clip-path="url(#clip253)" style="stroke:#000000; stroke-linecap:round; stroke-linejoin:round; stroke-width:2; stroke-opacity:0.1; fill:none" points="2297.41,1423.18 2297.41,847.244 "/>
<polyline clip-path="url(#clip250)" style="stroke:#000000; stroke-linecap:round; stroke-linejoin:round; stroke-width:4; stroke-opacity:1; fill:none" points="257.204,1423.18 2352.76,1423.18 "/>
<polyline clip-path="url(#clip250)" style="stroke:#000000; stroke-linecap:round; stroke-linejoin:round; stroke-width:4; stroke-opacity:1; fill:none" points="316.512,1423.18 316.512,1404.28 "/>
<polyline clip-path="url(#clip250)" style="stroke:#000000; stroke-linecap:round; stroke-linejoin:round; stroke-width:4; stroke-opacity:1; fill:none" points="712.692,1423.18 712.692,1404.28 "/>
<polyline clip-path="url(#clip250)" style="stroke:#000000; stroke-linecap:round; stroke-linejoin:round; stroke-width:4; stroke-opacity:1; fill:none" points="1108.87,1423.18 1108.87,1404.28 "/>
<polyline clip-path="url(#clip250)" style="stroke:#000000; stroke-linecap:round; stroke-linejoin:round; stroke-width:4; stroke-opacity:1; fill:none" points="1505.05,1423.18 1505.05,1404.28 "/>
<polyline clip-path="url(#clip250)" style="stroke:#000000; stroke-linecap:round; stroke-linejoin:round; stroke-width:4; stroke-opacity:1; fill:none" points="1901.23,1423.18 1901.23,1404.28 "/>
<polyline clip-path="url(#clip250)" style="stroke:#000000; stroke-linecap:round; stroke-linejoin:round; stroke-width:4; stroke-opacity:1; fill:none" points="2297.41,1423.18 2297.41,1404.28 "/>
<path clip-path="url(#clip250)" d="M316.512 1454.1 Q312.901 1454.1 311.072 1457.66 Q309.267 1461.2 309.267 1468.33 Q309.267 1475.44 311.072 1479.01 Q312.901 1482.55 316.512 1482.55 Q320.146 1482.55 321.952 1479.01 Q323.781 1475.44 323.781 1468.33 Q323.781 1461.2 321.952 1457.66 Q320.146 1454.1 316.512 1454.1 M316.512 1450.39 Q322.322 1450.39 325.378 1455 Q328.456 1459.58 328.456 1468.33 Q328.456 1477.06 325.378 1481.67 Q322.322 1486.25 316.512 1486.25 Q310.702 1486.25 307.623 1481.67 Q304.568 1477.06 304.568 1468.33 Q304.568 1459.58 307.623 1455 Q310.702 1450.39 316.512 1450.39 Z" fill="#000000" fill-rule="nonzero" fill-opacity="1" /><path clip-path="url(#clip250)" d="M703.074 1481.64 L710.712 1481.64 L710.712 1455.28 L702.402 1456.95 L702.402 1452.69 L710.666 1451.02 L715.342 1451.02 L715.342 1481.64 L722.981 1481.64 L722.981 1485.58 L703.074 1485.58 L703.074 1481.64 Z" fill="#000000" fill-rule="nonzero" fill-opacity="1" /><path clip-path="url(#clip250)" d="M1103.52 1481.64 L1119.84 1481.64 L1119.84 1485.58 L1097.9 1485.58 L1097.9 1481.64 Q1100.56 1478.89 1105.14 1474.26 Q1109.75 1469.61 1110.93 1468.27 Q1113.18 1465.74 1114.06 1464.01 Q1114.96 1462.25 1114.96 1460.56 Q1114.96 1457.8 1113.01 1456.07 Q1111.09 1454.33 1107.99 1454.33 Q1105.79 1454.33 1103.34 1455.09 Q1100.91 1455.86 1098.13 1457.41 L1098.13 1452.69 Q1100.95 1451.55 1103.41 1450.97 Q1105.86 1450.39 1107.9 1450.39 Q1113.27 1450.39 1116.46 1453.08 Q1119.66 1455.77 1119.66 1460.26 Q1119.66 1462.39 1118.85 1464.31 Q1118.06 1466.2 1115.95 1468.8 Q1115.38 1469.47 1112.27 1472.69 Q1109.17 1475.88 1103.52 1481.64 Z" fill="#000000" fill-rule="nonzero" fill-opacity="1" /><path clip-path="url(#clip250)" d="M1509.3 1466.95 Q1512.65 1467.66 1514.53 1469.93 Q1516.43 1472.2 1516.43 1475.53 Q1516.43 1480.65 1512.91 1483.45 Q1509.39 1486.25 1502.91 1486.25 Q1500.73 1486.25 1498.42 1485.81 Q1496.13 1485.39 1493.67 1484.54 L1493.67 1480.02 Q1495.62 1481.16 1497.93 1481.74 Q1500.25 1482.32 1502.77 1482.32 Q1507.17 1482.32 1509.46 1480.58 Q1511.78 1478.84 1511.78 1475.53 Q1511.78 1472.48 1509.62 1470.77 Q1507.49 1469.03 1503.67 1469.03 L1499.65 1469.03 L1499.65 1465.19 L1503.86 1465.19 Q1507.31 1465.19 1509.14 1463.82 Q1510.96 1462.43 1510.96 1459.84 Q1510.96 1457.18 1509.07 1455.77 Q1507.19 1454.33 1503.67 1454.33 Q1501.75 1454.33 1499.55 1454.75 Q1497.35 1455.16 1494.72 1456.04 L1494.72 1451.88 Q1497.38 1451.14 1499.69 1450.77 Q1502.03 1450.39 1504.09 1450.39 Q1509.41 1450.39 1512.52 1452.83 Q1515.62 1455.23 1515.62 1459.35 Q1515.62 1462.22 1513.97 1464.21 Q1512.33 1466.18 1509.3 1466.95 Z" fill="#000000" fill-rule="nonzero" fill-opacity="1" /><path clip-path="url(#clip250)" d="M1904.24 1455.09 L1892.43 1473.54 L1904.24 1473.54 L1904.24 1455.09 M1903.01 1451.02 L1908.89 1451.02 L1908.89 1473.54 L1913.82 1473.54 L1913.82 1477.43 L1908.89 1477.43 L1908.89 1485.58 L1904.24 1485.58 L1904.24 1477.43 L1888.64 1477.43 L1888.64 1472.92 L1903.01 1451.02 Z" fill="#000000" fill-rule="nonzero" fill-opacity="1" /><path clip-path="url(#clip250)" d="M2287.69 1451.02 L2306.04 1451.02 L2306.04 1454.96 L2291.97 1454.96 L2291.97 1463.43 Q2292.99 1463.08 2294.01 1462.92 Q2295.03 1462.73 2296.04 1462.73 Q2301.83 1462.73 2305.21 1465.9 Q2308.59 1469.08 2308.59 1474.49 Q2308.59 1480.07 2305.12 1483.17 Q2301.65 1486.25 2295.33 1486.25 Q2293.15 1486.25 2290.88 1485.88 Q2288.64 1485.51 2286.23 1484.77 L2286.23 1480.07 Q2288.31 1481.2 2290.53 1481.76 Q2292.76 1482.32 2295.23 1482.32 Q2299.24 1482.32 2301.58 1480.21 Q2303.91 1478.1 2303.91 1474.49 Q2303.91 1470.88 2301.58 1468.77 Q2299.24 1466.67 2295.23 1466.67 Q2293.36 1466.67 2291.48 1467.08 Q2289.63 1467.5 2287.69 1468.38 L2287.69 1451.02 Z" fill="#000000" fill-rule="nonzero" fill-opacity="1" /><path clip-path="url(#clip250)" d="M1175.15 1520.52 L1215.35 1520.52 L1215.35 1525.93 L1198.48 1525.93 L1198.48 1568.04 L1192.02 1568.04 L1192.02 1525.93 L1175.15 1525.93 L1175.15 1520.52 Z" fill="#000000" fill-rule="nonzero" fill-opacity="1" /><path clip-path="url(#clip250)" d="M1219.3 1532.4 L1225.15 1532.4 L1225.15 1568.04 L1219.3 1568.04 L1219.3 1532.4 M1219.3 1518.52 L1225.15 1518.52 L1225.15 1525.93 L1219.3 1525.93 L1219.3 1518.52 Z" fill="#000000" fill-rule="nonzero" fill-opacity="1" /><path clip-path="url(#clip250)" d="M1265.16 1539.24 Q1267.36 1535.29 1270.41 1533.41 Q1273.47 1531.54 1277.61 1531.54 Q1283.18 1531.54 1286.2 1535.45 Q1289.22 1539.33 1289.22 1546.53 L1289.22 1568.04 L1283.34 1568.04 L1283.34 1546.72 Q1283.34 1541.59 1281.52 1539.11 Q1279.71 1536.63 1275.98 1536.63 Q1271.43 1536.63 1268.79 1539.65 Q1266.15 1542.68 1266.15 1547.9 L1266.15 1568.04 L1260.26 1568.04 L1260.26 1546.72 Q1260.26 1541.56 1258.45 1539.11 Q1256.63 1536.63 1252.84 1536.63 Q1248.36 1536.63 1245.72 1539.68 Q1243.07 1542.71 1243.07 1547.9 L1243.07 1568.04 L1237.19 1568.04 L1237.19 1532.4 L1243.07 1532.4 L1243.07 1537.93 Q1245.08 1534.66 1247.88 1533.1 Q1250.68 1531.54 1254.53 1531.54 Q1258.41 1531.54 1261.12 1533.51 Q1263.86 1535.48 1265.16 1539.24 Z" fill="#000000" fill-rule="nonzero" fill-opacity="1" /><path clip-path="url(#clip250)" d="M1331.4 1548.76 L1331.4 1551.62 L1304.47 1551.62 Q1304.85 1557.67 1308.1 1560.85 Q1311.38 1564 1317.2 1564 Q1320.58 1564 1323.73 1563.17 Q1326.91 1562.35 1330.03 1560.69 L1330.03 1566.23 Q1326.88 1567.57 1323.57 1568.27 Q1320.26 1568.97 1316.85 1568.97 Q1308.32 1568.97 1303.32 1564 Q1298.36 1559.04 1298.36 1550.57 Q1298.36 1541.82 1303.07 1536.69 Q1307.81 1531.54 1315.83 1531.54 Q1323.03 1531.54 1327.2 1536.18 Q1331.4 1540.8 1331.4 1548.76 M1325.54 1547.04 Q1325.48 1542.23 1322.84 1539.37 Q1320.23 1536.5 1315.9 1536.5 Q1311 1536.5 1308.04 1539.27 Q1305.11 1542.04 1304.66 1547.07 L1325.54 1547.04 Z" fill="#000000" fill-rule="nonzero" fill-opacity="1" /><path clip-path="url(#clip250)" d="M1375.8 1518.58 Q1371.53 1525.9 1369.46 1533.06 Q1367.4 1540.23 1367.4 1547.58 Q1367.4 1554.93 1369.46 1562.16 Q1371.57 1569.35 1375.8 1576.64 L1370.71 1576.64 Q1365.93 1569.16 1363.54 1561.93 Q1361.19 1554.71 1361.19 1547.58 Q1361.19 1540.48 1363.54 1533.29 Q1365.9 1526.09 1370.71 1518.58 L1375.8 1518.58 Z" fill="#000000" fill-rule="nonzero" fill-opacity="1" /><path clip-path="url(#clip250)" d="M1409.89 1533.45 L1409.89 1538.98 Q1407.4 1537.71 1404.73 1537.07 Q1402.06 1536.44 1399.19 1536.44 Q1394.83 1536.44 1392.64 1537.77 Q1390.47 1539.11 1390.47 1541.79 Q1390.47 1543.82 1392.03 1545 Q1393.59 1546.15 1398.3 1547.2 L1400.31 1547.64 Q1406.54 1548.98 1409.15 1551.43 Q1411.8 1553.85 1411.8 1558.21 Q1411.8 1563.17 1407.85 1566.07 Q1403.93 1568.97 1397.06 1568.97 Q1394.2 1568.97 1391.08 1568.39 Q1387.99 1567.85 1384.55 1566.74 L1384.55 1560.69 Q1387.8 1562.38 1390.95 1563.24 Q1394.1 1564.07 1397.19 1564.07 Q1401.32 1564.07 1403.55 1562.66 Q1405.78 1561.23 1405.78 1558.65 Q1405.78 1556.27 1404.16 1554.99 Q1402.57 1553.72 1397.12 1552.54 L1395.09 1552.07 Q1389.64 1550.92 1387.22 1548.56 Q1384.81 1546.18 1384.81 1542.04 Q1384.81 1537.01 1388.37 1534.27 Q1391.94 1531.54 1398.49 1531.54 Q1401.74 1531.54 1404.6 1532.01 Q1407.47 1532.49 1409.89 1533.45 Z" fill="#000000" fill-rule="nonzero" fill-opacity="1" /><path clip-path="url(#clip250)" d="M1420.2 1518.58 L1425.29 1518.58 Q1430.07 1526.09 1432.42 1533.29 Q1434.81 1540.48 1434.81 1547.58 Q1434.81 1554.71 1432.42 1561.93 Q1430.07 1569.16 1425.29 1576.64 L1420.2 1576.64 Q1424.43 1569.35 1426.5 1562.16 Q1428.6 1554.93 1428.6 1547.58 Q1428.6 1540.23 1426.5 1533.06 Q1424.43 1525.9 1420.2 1518.58 Z" fill="#000000" fill-rule="nonzero" fill-opacity="1" /><polyline clip-path="url(#clip253)" style="stroke:#000000; stroke-linecap:round; stroke-linejoin:round; stroke-width:2; stroke-opacity:0.1; fill:none" points="257.204,1406.88 2352.76,1406.88 "/>
<polyline clip-path="url(#clip253)" style="stroke:#000000; stroke-linecap:round; stroke-linejoin:round; stroke-width:2; stroke-opacity:0.1; fill:none" points="257.204,1271.05 2352.76,1271.05 "/>
<polyline clip-path="url(#clip253)" style="stroke:#000000; stroke-linecap:round; stroke-linejoin:round; stroke-width:2; stroke-opacity:0.1; fill:none" points="257.204,1135.21 2352.76,1135.21 "/>
<polyline clip-path="url(#clip253)" style="stroke:#000000; stroke-linecap:round; stroke-linejoin:round; stroke-width:2; stroke-opacity:0.1; fill:none" points="257.204,999.378 2352.76,999.378 "/>
<polyline clip-path="url(#clip253)" style="stroke:#000000; stroke-linecap:round; stroke-linejoin:round; stroke-width:2; stroke-opacity:0.1; fill:none" points="257.204,863.544 2352.76,863.544 "/>
<polyline clip-path="url(#clip250)" style="stroke:#000000; stroke-linecap:round; stroke-linejoin:round; stroke-width:4; stroke-opacity:1; fill:none" points="257.204,1423.18 257.204,847.244 "/>
<polyline clip-path="url(#clip250)" style="stroke:#000000; stroke-linecap:round; stroke-linejoin:round; stroke-width:4; stroke-opacity:1; fill:none" points="257.204,1406.88 276.102,1406.88 "/>
<polyline clip-path="url(#clip250)" style="stroke:#000000; stroke-linecap:round; stroke-linejoin:round; stroke-width:4; stroke-opacity:1; fill:none" points="257.204,1271.05 276.102,1271.05 "/>
<polyline clip-path="url(#clip250)" style="stroke:#000000; stroke-linecap:round; stroke-linejoin:round; stroke-width:4; stroke-opacity:1; fill:none" points="257.204,1135.21 276.102,1135.21 "/>
<polyline clip-path="url(#clip250)" style="stroke:#000000; stroke-linecap:round; stroke-linejoin:round; stroke-width:4; stroke-opacity:1; fill:none" points="257.204,999.378 276.102,999.378 "/>
<polyline clip-path="url(#clip250)" style="stroke:#000000; stroke-linecap:round; stroke-linejoin:round; stroke-width:4; stroke-opacity:1; fill:none" points="257.204,863.544 276.102,863.544 "/>
<path clip-path="url(#clip250)" d="M114.26 1407.33 L143.936 1407.33 L143.936 1411.27 L114.26 1411.27 L114.26 1407.33 Z" fill="#000000" fill-rule="nonzero" fill-opacity="1" /><path clip-path="url(#clip250)" d="M154.839 1420.22 L162.477 1420.22 L162.477 1393.86 L154.167 1395.53 L154.167 1391.27 L162.431 1389.6 L167.107 1389.6 L167.107 1420.22 L174.746 1420.22 L174.746 1424.16 L154.839 1424.16 L154.839 1420.22 Z" fill="#000000" fill-rule="nonzero" fill-opacity="1" /><path clip-path="url(#clip250)" d="M184.19 1418.28 L189.075 1418.28 L189.075 1424.16 L184.19 1424.16 L184.19 1418.28 Z" fill="#000000" fill-rule="nonzero" fill-opacity="1" /><path clip-path="url(#clip250)" d="M209.26 1392.68 Q205.649 1392.68 203.82 1396.24 Q202.014 1399.78 202.014 1406.91 Q202.014 1414.02 203.82 1417.59 Q205.649 1421.13 209.26 1421.13 Q212.894 1421.13 214.699 1417.59 Q216.528 1414.02 216.528 1406.91 Q216.528 1399.78 214.699 1396.24 Q212.894 1392.68 209.26 1392.68 M209.26 1388.97 Q215.07 1388.97 218.125 1393.58 Q221.204 1398.16 221.204 1406.91 Q221.204 1415.64 218.125 1420.25 Q215.07 1424.83 209.26 1424.83 Q203.449 1424.83 200.371 1420.25 Q197.315 1415.64 197.315 1406.91 Q197.315 1398.16 200.371 1393.58 Q203.449 1388.97 209.26 1388.97 Z" fill="#000000" fill-rule="nonzero" fill-opacity="1" /><path clip-path="url(#clip250)" d="M115.256 1271.5 L144.931 1271.5 L144.931 1275.43 L115.256 1275.43 L115.256 1271.5 Z" fill="#000000" fill-rule="nonzero" fill-opacity="1" /><path clip-path="url(#clip250)" d="M165.024 1256.84 Q161.413 1256.84 159.584 1260.41 Q157.778 1263.95 157.778 1271.08 Q157.778 1278.19 159.584 1281.75 Q161.413 1285.29 165.024 1285.29 Q168.658 1285.29 170.464 1281.75 Q172.292 1278.19 172.292 1271.08 Q172.292 1263.95 170.464 1260.41 Q168.658 1256.84 165.024 1256.84 M165.024 1253.14 Q170.834 1253.14 173.889 1257.75 Q176.968 1262.33 176.968 1271.08 Q176.968 1279.81 173.889 1284.41 Q170.834 1289 165.024 1289 Q159.214 1289 156.135 1284.41 Q153.079 1279.81 153.079 1271.08 Q153.079 1262.33 156.135 1257.75 Q159.214 1253.14 165.024 1253.14 Z" fill="#000000" fill-rule="nonzero" fill-opacity="1" /><path clip-path="url(#clip250)" d="M185.186 1282.45 L190.07 1282.45 L190.07 1288.33 L185.186 1288.33 L185.186 1282.45 Z" fill="#000000" fill-rule="nonzero" fill-opacity="1" /><path clip-path="url(#clip250)" d="M200.301 1253.77 L218.658 1253.77 L218.658 1257.7 L204.584 1257.7 L204.584 1266.17 Q205.602 1265.83 206.621 1265.66 Q207.639 1265.48 208.658 1265.48 Q214.445 1265.48 217.824 1268.65 Q221.204 1271.82 221.204 1277.24 Q221.204 1282.82 217.732 1285.92 Q214.26 1289 207.94 1289 Q205.764 1289 203.496 1288.63 Q201.25 1288.26 198.843 1287.52 L198.843 1282.82 Q200.926 1283.95 203.149 1284.51 Q205.371 1285.06 207.848 1285.06 Q211.852 1285.06 214.19 1282.96 Q216.528 1280.85 216.528 1277.24 Q216.528 1273.63 214.19 1271.52 Q211.852 1269.41 207.848 1269.41 Q205.973 1269.41 204.098 1269.83 Q202.246 1270.25 200.301 1271.13 L200.301 1253.77 Z" fill="#000000" fill-rule="nonzero" fill-opacity="1" /><path clip-path="url(#clip250)" d="M164.028 1121.01 Q160.417 1121.01 158.589 1124.58 Q156.783 1128.12 156.783 1135.25 Q156.783 1142.35 158.589 1145.92 Q160.417 1149.46 164.028 1149.46 Q167.663 1149.46 169.468 1145.92 Q171.297 1142.35 171.297 1135.25 Q171.297 1128.12 169.468 1124.58 Q167.663 1121.01 164.028 1121.01 M164.028 1117.31 Q169.839 1117.31 172.894 1121.91 Q175.973 1126.5 175.973 1135.25 Q175.973 1143.97 172.894 1148.58 Q169.839 1153.16 164.028 1153.16 Q158.218 1153.16 155.14 1148.58 Q152.084 1143.97 152.084 1135.25 Q152.084 1126.5 155.14 1121.91 Q158.218 1117.31 164.028 1117.31 Z" fill="#000000" fill-rule="nonzero" fill-opacity="1" /><path clip-path="url(#clip250)" d="M184.19 1146.61 L189.075 1146.61 L189.075 1152.49 L184.19 1152.49 L184.19 1146.61 Z" fill="#000000" fill-rule="nonzero" fill-opacity="1" /><path clip-path="url(#clip250)" d="M209.26 1121.01 Q205.649 1121.01 203.82 1124.58 Q202.014 1128.12 202.014 1135.25 Q202.014 1142.35 203.82 1145.92 Q205.649 1149.46 209.26 1149.46 Q212.894 1149.46 214.699 1145.92 Q216.528 1142.35 216.528 1135.25 Q216.528 1128.12 214.699 1124.58 Q212.894 1121.01 209.26 1121.01 M209.26 1117.31 Q215.07 1117.31 218.125 1121.91 Q221.204 1126.5 221.204 1135.25 Q221.204 1143.97 218.125 1148.58 Q215.07 1153.16 209.26 1153.16 Q203.449 1153.16 200.371 1148.58 Q197.315 1143.97 197.315 1135.25 Q197.315 1126.5 200.371 1121.91 Q203.449 1117.31 209.26 1117.31 Z" fill="#000000" fill-rule="nonzero" fill-opacity="1" /><path clip-path="url(#clip250)" d="M165.024 985.177 Q161.413 985.177 159.584 988.742 Q157.778 992.283 157.778 999.413 Q157.778 1006.52 159.584 1010.08 Q161.413 1013.63 165.024 1013.63 Q168.658 1013.63 170.464 1010.08 Q172.292 1006.52 172.292 999.413 Q172.292 992.283 170.464 988.742 Q168.658 985.177 165.024 985.177 M165.024 981.473 Q170.834 981.473 173.889 986.08 Q176.968 990.663 176.968 999.413 Q176.968 1008.14 173.889 1012.75 Q170.834 1017.33 165.024 1017.33 Q159.214 1017.33 156.135 1012.75 Q153.079 1008.14 153.079 999.413 Q153.079 990.663 156.135 986.08 Q159.214 981.473 165.024 981.473 Z" fill="#000000" fill-rule="nonzero" fill-opacity="1" /><path clip-path="url(#clip250)" d="M185.186 1010.78 L190.07 1010.78 L190.07 1016.66 L185.186 1016.66 L185.186 1010.78 Z" fill="#000000" fill-rule="nonzero" fill-opacity="1" /><path clip-path="url(#clip250)" d="M200.301 982.098 L218.658 982.098 L218.658 986.033 L204.584 986.033 L204.584 994.505 Q205.602 994.158 206.621 993.996 Q207.639 993.811 208.658 993.811 Q214.445 993.811 217.824 996.982 Q221.204 1000.15 221.204 1005.57 Q221.204 1011.15 217.732 1014.25 Q214.26 1017.33 207.94 1017.33 Q205.764 1017.33 203.496 1016.96 Q201.25 1016.59 198.843 1015.85 L198.843 1011.15 Q200.926 1012.28 203.149 1012.84 Q205.371 1013.39 207.848 1013.39 Q211.852 1013.39 214.19 1011.29 Q216.528 1009.18 216.528 1005.57 Q216.528 1001.96 214.19 999.853 Q211.852 997.746 207.848 997.746 Q205.973 997.746 204.098 998.163 Q202.246 998.579 200.301 999.459 L200.301 982.098 Z" fill="#000000" fill-rule="nonzero" fill-opacity="1" /><path clip-path="url(#clip250)" d="M154.839 876.889 L162.477 876.889 L162.477 850.523 L154.167 852.19 L154.167 847.931 L162.431 846.264 L167.107 846.264 L167.107 876.889 L174.746 876.889 L174.746 880.824 L154.839 880.824 L154.839 876.889 Z" fill="#000000" fill-rule="nonzero" fill-opacity="1" /><path clip-path="url(#clip250)" d="M184.19 874.945 L189.075 874.945 L189.075 880.824 L184.19 880.824 L184.19 874.945 Z" fill="#000000" fill-rule="nonzero" fill-opacity="1" /><path clip-path="url(#clip250)" d="M209.26 849.343 Q205.649 849.343 203.82 852.908 Q202.014 856.449 202.014 863.579 Q202.014 870.685 203.82 874.25 Q205.649 877.792 209.26 877.792 Q212.894 877.792 214.699 874.25 Q216.528 870.685 216.528 863.579 Q216.528 856.449 214.699 852.908 Q212.894 849.343 209.26 849.343 M209.26 845.639 Q215.07 845.639 218.125 850.246 Q221.204 854.829 221.204 863.579 Q221.204 872.306 218.125 876.912 Q215.07 881.495 209.26 881.495 Q203.449 881.495 200.371 876.912 Q197.315 872.306 197.315 863.579 Q197.315 854.829 200.371 850.246 Q203.449 845.639 209.26 845.639 Z" fill="#000000" fill-rule="nonzero" fill-opacity="1" /><path clip-path="url(#clip250)" d="M49.9359 1150.14 L28.3562 1150.14 L28.3562 1144.28 L49.7131 1144.28 Q54.7739 1144.28 57.3202 1142.31 Q59.8346 1140.34 59.8346 1136.39 Q59.8346 1131.65 56.8109 1128.91 Q53.7872 1126.14 48.5673 1126.14 L28.3562 1126.14 L28.3562 1120.28 L64.0042 1120.28 L64.0042 1126.14 L58.5296 1126.14 Q61.7762 1128.27 63.3676 1131.11 Q64.9272 1133.91 64.9272 1137.63 Q64.9272 1143.77 61.1078 1146.96 Q57.2883 1150.14 49.9359 1150.14 M27.4968 1135.4 L27.4968 1135.4 Z" fill="#000000" fill-rule="nonzero" fill-opacity="1" /><polyline clip-path="url(#clip253)" style="stroke:#009af9; stroke-linecap:round; stroke-linejoin:round; stroke-width:4; stroke-opacity:1; fill:none" points="316.512,1406.88 320.474,1406.88 324.436,1406.88 328.397,1406.88 332.359,1406.88 336.321,1406.88 340.283,1406.88 344.245,1406.88 348.206,1406.88 352.168,1406.88 356.13,1406.88 356.13,863.544 360.092,863.544 364.054,863.544 368.015,863.544 371.977,863.544 375.939,863.544 375.939,1406.88 379.901,1406.88 383.863,1406.88 387.824,1406.88 391.786,1406.88 395.748,1406.88 399.71,1406.88 403.672,1406.88 407.633,1406.88 411.595,1406.88 415.557,1406.88 415.557,863.544 419.519,863.544 423.481,863.544 427.442,863.544 431.404,863.544 435.366,863.544 435.366,1406.88 439.328,1406.88 443.29,1406.88 447.251,1406.88 451.213,1406.88 455.175,1406.88 455.175,863.544 459.137,863.544 463.099,863.544 467.06,863.544 471.022,863.544 474.984,863.544 478.946,863.544 482.907,863.544 486.869,863.544 490.831,863.544 494.793,863.544 494.793,1406.88 498.755,1406.88 502.716,1406.88 506.678,1406.88 510.64,1406.88 514.602,1406.88 514.602,863.544 518.564,863.544 522.525,863.544 526.487,863.544 530.449,863.544 534.411,863.544 538.373,863.544 542.334,863.544 546.296,863.544 550.258,863.544 554.22,863.544 554.22,1406.88 558.182,1406.88 562.143,1406.88 566.105,1406.88 570.067,1406.88 574.029,1406.88 577.991,1406.88 581.952,1406.88 585.914,1406.88 589.876,1406.88 593.838,1406.88 597.8,1406.88 601.761,1406.88 605.723,1406.88 609.685,1406.88 613.647,1406.88 617.609,1406.88 621.57,1406.88 625.532,1406.88 629.494,1406.88 633.456,1406.88 637.418,1406.88 641.379,1406.88 645.341,1406.88 649.303,1406.88 653.265,1406.88 657.226,1406.88 661.188,1406.88 665.15,1406.88 669.112,1406.88 673.074,1406.88 677.035,1406.88 680.997,1406.88 684.959,1406.88 688.921,1406.88 692.883,1406.88 696.844,1406.88 700.806,1406.88 704.768,1406.88 708.73,1406.88 712.692,1406.88 716.653,1406.88 720.615,1406.88 724.577,1406.88 728.539,1406.88 732.501,1406.88 736.462,1406.88 740.424,1406.88 744.386,1406.88 748.348,1406.88 752.31,1406.88 752.31,863.544 756.271,863.544 760.233,863.544 764.195,863.544 768.157,863.544 772.119,863.544 772.119,1406.88 776.08,1406.88 780.042,1406.88 784.004,1406.88 787.966,1406.88 791.928,1406.88 791.928,863.544 795.889,863.544 799.851,863.544 803.813,863.544 807.775,863.544 811.736,863.544 811.736,1406.88 815.698,1406.88 819.66,1406.88 823.622,1406.88 827.584,1406.88 831.545,1406.88 831.545,863.544 835.507,863.544 839.469,863.544 843.431,863.544 847.393,863.544 851.354,863.544 851.354,1406.88 855.316,1406.88 859.278,1406.88 863.24,1406.88 867.202,1406.88 871.163,1406.88 871.163,863.544 875.125,863.544 879.087,863.544 883.049,863.544 887.011,863.544 890.972,863.544 890.972,1406.88 894.934,1406.88 898.896,1406.88 902.858,1406.88 906.82,1406.88 910.781,1406.88 914.743,1406.88 918.705,1406.88 922.667,1406.88 926.629,1406.88 930.59,1406.88 930.59,863.544 934.552,863.544 938.514,863.544 942.476,863.544 946.438,863.544 950.399,863.544 954.361,863.544 958.323,863.544 962.285,863.544 966.246,863.544 970.208,863.544 974.17,863.544 978.132,863.544 982.094,863.544 986.055,863.544 990.017,863.544 990.017,1406.88 993.979,1406.88 997.941,1406.88 1001.9,1406.88 1005.86,1406.88 1009.83,1406.88 1013.79,1406.88 1017.75,1406.88 1021.71,1406.88 1025.67,1406.88 1029.64,1406.88 1033.6,1406.88 1037.56,1406.88 1041.52,1406.88 1045.48,1406.88 1049.44,1406.88 1049.44,863.544 1053.41,863.544 1057.37,863.544 1061.33,863.544 1065.29,863.544 1069.25,863.544 1073.21,863.544 1077.18,863.544 1081.14,863.544 1085.1,863.544 1089.06,863.544 1093.02,863.544 1096.99,863.544 1100.95,863.544 1104.91,863.544 1108.87,863.544 1112.83,863.544 1116.79,863.544 1120.76,863.544 1124.72,863.544 1128.68,863.544 1128.68,1406.88 1132.64,1406.88 1136.6,1406.88 1140.57,1406.88 1144.53,1406.88 1148.49,1406.88 1152.45,1406.88 1156.41,1406.88 1160.37,1406.88 1164.34,1406.88 1168.3,1406.88 1168.3,863.544 1172.26,863.544 1176.22,863.544 1180.18,863.544 1184.15,863.544 1188.11,863.544 1192.07,863.544 1196.03,863.544 1199.99,863.544 1203.95,863.544 1207.92,863.544 1207.92,1406.88 1211.88,1406.88 1215.84,1406.88 1219.8,1406.88 1223.76,1406.88 1227.72,1406.88 1231.69,1406.88 1235.65,1406.88 1239.61,1406.88 1243.57,1406.88 1247.53,1406.88 1251.5,1406.88 1255.46,1406.88 1259.42,1406.88 1263.38,1406.88 1267.34,1406.88 1271.3,1406.88 1275.27,1406.88 1279.23,1406.88 1283.19,1406.88 1287.15,1406.88 1291.11,1406.88 1295.08,1406.88 1299.04,1406.88 1303,1406.88 1306.96,1406.88 1306.96,863.544 1310.92,863.544 1314.88,863.544 1318.85,863.544 1322.81,863.544 1326.77,863.544 1330.73,863.544 1334.69,863.544 1338.66,863.544 1342.62,863.544 1346.58,863.544 1350.54,863.544 1354.5,863.544 1358.46,863.544 1362.43,863.544 1366.39,863.544 1366.39,1406.88 1370.35,1406.88 1374.31,1406.88 1378.27,1406.88 1382.23,1406.88 1386.2,1406.88 1390.16,1406.88 1394.12,1406.88 1398.08,1406.88 1402.04,1406.88 1406.01,1406.88 1409.97,1406.88 1413.93,1406.88 1417.89,1406.88 1421.85,1406.88 1425.81,1406.88 1429.78,1406.88 1433.74,1406.88 1437.7,1406.88 1441.66,1406.88 1445.62,1406.88 1445.62,863.544 1449.59,863.544 1453.55,863.544 1457.51,863.544 1461.47,863.544 1465.43,863.544 1469.39,863.544 1473.36,863.544 1477.32,863.544 1481.28,863.544 1485.24,863.544 1489.2,863.544 1493.17,863.544 1497.13,863.544 1501.09,863.544 1505.05,863.544 1505.05,1406.88 1509.01,1406.88 1512.97,1406.88 1516.94,1406.88 1520.9,1406.88 1524.86,1406.88 1524.86,863.544 1528.82,863.544 1532.78,863.544 1536.74,863.544 1540.71,863.544 1544.67,863.544 1544.67,1406.88 1548.63,1406.88 1552.59,1406.88 1556.55,1406.88 1560.52,1406.88 1564.48,1406.88 1568.44,1406.88 1572.4,1406.88 1576.36,1406.88 1580.32,1406.88 1584.29,1406.88 1588.25,1406.88 1592.21,1406.88 1596.17,1406.88 1600.13,1406.88 1604.1,1406.88 1608.06,1406.88 1612.02,1406.88 1615.98,1406.88 1619.94,1406.88 1623.9,1406.88 1623.9,863.544 1627.87,863.544 1631.83,863.544 1635.79,863.544 1639.75,863.544 1643.71,863.544 1647.68,863.544 1651.64,863.544 1655.6,863.544 1659.56,863.544 1663.52,863.544 1663.52,1406.88 1667.48,1406.88 1671.45,1406.88 1675.41,1406.88 1679.37,1406.88 1683.33,1406.88 1687.29,1406.88 1691.25,1406.88 1695.22,1406.88 1699.18,1406.88 1703.14,1406.88 1707.1,1406.88 1711.06,1406.88 1715.03,1406.88 1718.99,1406.88 1722.95,1406.88 1722.95,863.544 1726.91,863.544 1730.87,863.544 1734.83,863.544 1738.8,863.544 1742.76,863.544 1742.76,1406.88 1746.72,1406.88 1750.68,1406.88 1754.64,1406.88 1758.61,1406.88 1762.57,1406.88 1766.53,1406.88 1770.49,1406.88 1774.45,1406.88 1778.41,1406.88 1782.38,1406.88 1786.34,1406.88 1790.3,1406.88 1794.26,1406.88 1798.22,1406.88 1802.19,1406.88 1802.19,863.544 1806.15,863.544 1810.11,863.544 1814.07,863.544 1818.03,863.544 1821.99,863.544 1825.96,863.544 1829.92,863.544 1833.88,863.544 1837.84,863.544 1841.8,863.544 1841.8,1406.88 1845.76,1406.88 1849.73,1406.88 1853.69,1406.88 1857.65,1406.88 1861.61,1406.88 1861.61,863.544 1865.57,863.544 1869.54,863.544 1873.5,863.544 1877.46,863.544 1881.42,863.544 1881.42,1406.88 1885.38,1406.88 1889.34,1406.88 1893.31,1406.88 1897.27,1406.88 1901.23,1406.88 1901.23,863.544 1905.19,863.544 1909.15,863.544 1913.12,863.544 1917.08,863.544 1921.04,863.544 1925,863.544 1928.96,863.544 1932.92,863.544 1936.89,863.544 1940.85,863.544 1944.81,863.544 1948.77,863.544 1952.73,863.544 1956.7,863.544 1960.66,863.544 1964.62,863.544 1968.58,863.544 1972.54,863.544 1976.5,863.544 1980.47,863.544 1980.47,1406.88 1984.43,1406.88 1988.39,1406.88 1992.35,1406.88 1996.31,1406.88 2000.27,1406.88 2000.27,863.544 2004.24,863.544 2008.2,863.544 2012.16,863.544 2016.12,863.544 2020.08,863.544 2024.05,863.544 2028.01,863.544 2031.97,863.544 2035.93,863.544 2039.89,863.544 2039.89,1406.88 2043.85,1406.88 2047.82,1406.88 2051.78,1406.88 2055.74,1406.88 2059.7,1406.88 2059.7,863.544 2063.66,863.544 2067.63,863.544 2071.59,863.544 2075.55,863.544 2079.51,863.544 2083.47,863.544 2087.43,863.544 2091.4,863.544 2095.36,863.544 2099.32,863.544 2103.28,863.544 2107.24,863.544 2111.21,863.544 2115.17,863.544 2119.13,863.544 2123.09,863.544 2127.05,863.544 2131.01,863.544 2134.98,863.544 2138.94,863.544 2142.9,863.544 2146.86,863.544 2150.82,863.544 2154.79,863.544 2158.75,863.544 2162.71,863.544 2166.67,863.544 2170.63,863.544 2174.59,863.544 2178.56,863.544 2182.52,863.544 2186.48,863.544 2190.44,863.544 2194.4,863.544 2198.36,863.544 2202.33,863.544 2206.29,863.544 2210.25,863.544 2214.21,863.544 2218.17,863.544 2222.14,863.544 2226.1,863.544 2230.06,863.544 2234.02,863.544 2237.98,863.544 2241.94,863.544 2245.91,863.544 2249.87,863.544 2253.83,863.544 2257.79,863.544 2257.79,1406.88 2261.75,1406.88 2265.72,1406.88 2269.68,1406.88 2273.64,1406.88 2277.6,1406.88 2277.6,863.544 2281.56,863.544 2285.52,863.544 2289.49,863.544 2293.45,863.544 "/>
</svg>
