<?xml version="1.0" encoding="utf-8"?>
<svg xmlns="http://www.w3.org/2000/svg" xmlns:xlink="http://www.w3.org/1999/xlink" width="600" height="400" viewBox="0 0 2400 1600">
<defs>
  <clipPath id="clip340">
    <rect x="0" y="0" width="2400" height="1600"/>
  </clipPath>
</defs>
<path clip-path="url(#clip340)" d="M0 1600 L2400 1600 L2400 0 L0 0  Z" fill="#ffffff" fill-rule="evenodd" fill-opacity="1"/>
<defs>
  <clipPath id="clip341">
    <rect x="480" y="0" width="1681" height="1600"/>
  </clipPath>
</defs>
<path clip-path="url(#clip340)" d="M255.977 1423.18 L2352.76 1423.18 L2352.76 47.2441 L255.977 47.2441  Z" fill="#ffffff" fill-rule="evenodd" fill-opacity="1"/>
<defs>
  <clipPath id="clip342">
    <rect x="255" y="47" width="2098" height="1377"/>
  </clipPath>
</defs>
<polyline clip-path="url(#clip342)" style="stroke:#000000; stroke-linecap:round; stroke-linejoin:round; stroke-width:2; stroke-opacity:0.1; fill:none" points="315.32,1423.18 315.32,47.2441 "/>
<polyline clip-path="url(#clip342)" style="stroke:#000000; stroke-linecap:round; stroke-linejoin:round; stroke-width:2; stroke-opacity:0.1; fill:none" points="711.731,1423.18 711.731,47.2441 "/>
<polyline clip-path="url(#clip342)" style="stroke:#000000; stroke-linecap:round; stroke-linejoin:round; stroke-width:2; stroke-opacity:0.1; fill:none" points="1108.14,1423.18 1108.14,47.2441 "/>
<polyline clip-path="url(#clip342)" style="stroke:#000000; stroke-linecap:round; stroke-linejoin:round; stroke-width:2; stroke-opacity:0.1; fill:none" points="1504.55,1423.18 1504.55,47.2441 "/>
<polyline clip-path="url(#clip342)" style="stroke:#000000; stroke-linecap:round; stroke-linejoin:round; stroke-width:2; stroke-opacity:0.1; fill:none" points="1900.97,1423.18 1900.97,47.2441 "/>
<polyline clip-path="url(#clip342)" style="stroke:#000000; stroke-linecap:round; stroke-linejoin:round; stroke-width:2; stroke-opacity:0.1; fill:none" points="2297.38,1423.18 2297.38,47.2441 "/>
<polyline clip-path="url(#clip340)" style="stroke:#000000; stroke-linecap:round; stroke-linejoin:round; stroke-width:4; stroke-opacity:1; fill:none" points="255.977,1423.18 2352.76,1423.18 "/>
<polyline clip-path="url(#clip340)" style="stroke:#000000; stroke-linecap:round; stroke-linejoin:round; stroke-width:4; stroke-opacity:1; fill:none" points="315.32,1423.18 315.32,1404.28 "/>
<polyline clip-path="url(#clip340)" style="stroke:#000000; stroke-linecap:round; stroke-linejoin:round; stroke-width:4; stroke-opacity:1; fill:none" points="711.731,1423.18 711.731,1404.28 "/>
<polyline clip-path="url(#clip340)" style="stroke:#000000; stroke-linecap:round; stroke-linejoin:round; stroke-width:4; stroke-opacity:1; fill:none" points="1108.14,1423.18 1108.14,1404.28 "/>
<polyline clip-path="url(#clip340)" style="stroke:#000000; stroke-linecap:round; stroke-linejoin:round; stroke-width:4; stroke-opacity:1; fill:none" points="1504.55,1423.18 1504.55,1404.28 "/>
<polyline clip-path="url(#clip340)" style="stroke:#000000; stroke-linecap:round; stroke-linejoin:round; stroke-width:4; stroke-opacity:1; fill:none" points="1900.97,1423.18 1900.97,1404.28 "/>
<polyline clip-path="url(#clip340)" style="stroke:#000000; stroke-linecap:round; stroke-linejoin:round; stroke-width:4; stroke-opacity:1; fill:none" points="2297.38,1423.18 2297.38,1404.28 "/>
<path clip-path="url(#clip340)" d="M315.32 1454.1 Q311.709 1454.1 309.88 1457.66 Q308.075 1461.2 308.075 1468.33 Q308.075 1475.44 309.88 1479.01 Q311.709 1482.55 315.32 1482.55 Q318.954 1482.55 320.76 1479.01 Q322.588 1475.44 322.588 1468.33 Q322.588 1461.2 320.76 1457.66 Q318.954 1454.1 315.32 1454.1 M315.32 1450.39 Q321.13 1450.39 324.186 1455 Q327.264 1459.58 327.264 1468.33 Q327.264 1477.06 324.186 1481.67 Q321.13 1486.25 315.32 1486.25 Q309.51 1486.25 306.431 1481.67 Q303.376 1477.06 303.376 1468.33 Q303.376 1459.58 306.431 1455 Q309.51 1450.39 315.32 1450.39 Z" fill="#000000" fill-rule="nonzero" fill-opacity="1" /><path clip-path="url(#clip340)" d="M702.113 1481.64 L709.752 1481.64 L709.752 1455.28 L701.442 1456.95 L701.442 1452.69 L709.706 1451.02 L714.382 1451.02 L714.382 1481.64 L722.021 1481.64 L722.021 1485.58 L702.113 1485.58 L702.113 1481.64 Z" fill="#000000" fill-rule="nonzero" fill-opacity="1" /><path clip-path="url(#clip340)" d="M1102.8 1481.64 L1119.12 1481.64 L1119.12 1485.58 L1097.17 1485.58 L1097.17 1481.64 Q1099.83 1478.89 1104.42 1474.26 Q1109.02 1469.61 1110.2 1468.27 Q1112.45 1465.74 1113.33 1464.01 Q1114.23 1462.25 1114.23 1460.56 Q1114.23 1457.8 1112.29 1456.07 Q1110.37 1454.33 1107.26 1454.33 Q1105.06 1454.33 1102.61 1455.09 Q1100.18 1455.86 1097.4 1457.41 L1097.4 1452.69 Q1100.23 1451.55 1102.68 1450.97 Q1105.13 1450.39 1107.17 1450.39 Q1112.54 1450.39 1115.74 1453.08 Q1118.93 1455.77 1118.93 1460.26 Q1118.93 1462.39 1118.12 1464.31 Q1117.33 1466.2 1115.23 1468.8 Q1114.65 1469.47 1111.55 1472.69 Q1108.44 1475.88 1102.8 1481.64 Z" fill="#000000" fill-rule="nonzero" fill-opacity="1" /><path clip-path="url(#clip340)" d="M1508.8 1466.95 Q1512.16 1467.66 1514.03 1469.93 Q1515.93 1472.2 1515.93 1475.53 Q1515.93 1480.65 1512.41 1483.45 Q1508.89 1486.25 1502.41 1486.25 Q1500.24 1486.25 1497.92 1485.81 Q1495.63 1485.39 1493.18 1484.54 L1493.18 1480.02 Q1495.12 1481.16 1497.44 1481.74 Q1499.75 1482.32 1502.27 1482.32 Q1506.67 1482.32 1508.96 1480.58 Q1511.28 1478.84 1511.28 1475.53 Q1511.28 1472.48 1509.13 1470.77 Q1507 1469.03 1503.18 1469.03 L1499.15 1469.03 L1499.15 1465.19 L1503.36 1465.19 Q1506.81 1465.19 1508.64 1463.82 Q1510.47 1462.43 1510.47 1459.84 Q1510.47 1457.18 1508.57 1455.77 Q1506.7 1454.33 1503.18 1454.33 Q1501.26 1454.33 1499.06 1454.75 Q1496.86 1455.16 1494.22 1456.04 L1494.22 1451.88 Q1496.88 1451.14 1499.2 1450.77 Q1501.53 1450.39 1503.59 1450.39 Q1508.92 1450.39 1512.02 1452.83 Q1515.12 1455.23 1515.12 1459.35 Q1515.12 1462.22 1513.48 1464.21 Q1511.83 1466.18 1508.8 1466.95 Z" fill="#000000" fill-rule="nonzero" fill-opacity="1" /><path clip-path="url(#clip340)" d="M1903.98 1455.09 L1892.17 1473.54 L1903.98 1473.54 L1903.98 1455.09 M1902.75 1451.02 L1908.63 1451.02 L1908.63 1473.54 L1913.56 1473.54 L1913.56 1477.43 L1908.63 1477.43 L1908.63 1485.58 L1903.98 1485.58 L1903.98 1477.43 L1888.37 1477.43 L1888.37 1472.92 L1902.75 1451.02 Z" fill="#000000" fill-rule="nonzero" fill-opacity="1" /><path clip-path="url(#clip340)" d="M2287.66 1451.02 L2306.01 1451.02 L2306.01 1454.96 L2291.94 1454.96 L2291.94 1463.43 Q2292.96 1463.08 2293.97 1462.92 Q2294.99 1462.73 2296.01 1462.73 Q2301.8 1462.73 2305.18 1465.9 Q2308.56 1469.08 2308.56 1474.49 Q2308.56 1480.07 2305.09 1483.17 Q2301.61 1486.25 2295.29 1486.25 Q2293.12 1486.25 2290.85 1485.88 Q2288.6 1485.51 2286.2 1484.77 L2286.2 1480.07 Q2288.28 1481.2 2290.5 1481.76 Q2292.72 1482.32 2295.2 1482.32 Q2299.21 1482.32 2301.54 1480.21 Q2303.88 1478.1 2303.88 1474.49 Q2303.88 1470.88 2301.54 1468.77 Q2299.21 1466.67 2295.2 1466.67 Q2293.33 1466.67 2291.45 1467.08 Q2289.6 1467.5 2287.66 1468.38 L2287.66 1451.02 Z" fill="#000000" fill-rule="nonzero" fill-opacity="1" /><path clip-path="url(#clip340)" d="M1174.54 1520.52 L1214.74 1520.52 L1214.74 1525.93 L1197.87 1525.93 L1197.87 1568.04 L1191.41 1568.04 L1191.41 1525.93 L1174.54 1525.93 L1174.54 1520.52 Z" fill="#000000" fill-rule="nonzero" fill-opacity="1" /><path clip-path="url(#clip340)" d="M1218.68 1532.4 L1224.54 1532.4 L1224.54 1568.04 L1218.68 1568.04 L1218.68 1532.4 M1218.68 1518.52 L1224.54 1518.52 L1224.54 1525.93 L1218.68 1525.93 L1218.68 1518.52 Z" fill="#000000" fill-rule="nonzero" fill-opacity="1" /><path clip-path="url(#clip340)" d="M1264.55 1539.24 Q1266.75 1535.29 1269.8 1533.41 Q1272.86 1531.54 1276.99 1531.54 Q1282.56 1531.54 1285.59 1535.45 Q1288.61 1539.33 1288.61 1546.53 L1288.61 1568.04 L1282.72 1568.04 L1282.72 1546.72 Q1282.72 1541.59 1280.91 1539.11 Q1279.09 1536.63 1275.37 1536.63 Q1270.82 1536.63 1268.18 1539.65 Q1265.54 1542.68 1265.54 1547.9 L1265.54 1568.04 L1259.65 1568.04 L1259.65 1546.72 Q1259.65 1541.56 1257.83 1539.11 Q1256.02 1536.63 1252.23 1536.63 Q1247.74 1536.63 1245.1 1539.68 Q1242.46 1542.71 1242.46 1547.9 L1242.46 1568.04 L1236.57 1568.04 L1236.57 1532.4 L1242.46 1532.4 L1242.46 1537.93 Q1244.47 1534.66 1247.27 1533.1 Q1250.07 1531.54 1253.92 1531.54 Q1257.8 1531.54 1260.51 1533.51 Q1263.24 1535.48 1264.55 1539.24 Z" fill="#000000" fill-rule="nonzero" fill-opacity="1" /><path clip-path="url(#clip340)" d="M1330.78 1548.76 L1330.78 1551.62 L1303.86 1551.62 Q1304.24 1557.67 1307.49 1560.85 Q1310.76 1564 1316.59 1564 Q1319.96 1564 1323.11 1563.17 Q1326.3 1562.35 1329.42 1560.69 L1329.42 1566.23 Q1326.26 1567.57 1322.95 1568.27 Q1319.64 1568.97 1316.24 1568.97 Q1307.71 1568.97 1302.71 1564 Q1297.75 1559.04 1297.75 1550.57 Q1297.75 1541.82 1302.46 1536.69 Q1307.2 1531.54 1315.22 1531.54 Q1322.41 1531.54 1326.58 1536.18 Q1330.78 1540.8 1330.78 1548.76 M1324.93 1547.04 Q1324.86 1542.23 1322.22 1539.37 Q1319.61 1536.5 1315.28 1536.5 Q1310.38 1536.5 1307.42 1539.27 Q1304.49 1542.04 1304.05 1547.07 L1324.93 1547.04 Z" fill="#000000" fill-rule="nonzero" fill-opacity="1" /><path clip-path="url(#clip340)" d="M1360.58 1518.52 L1374.07 1518.52 L1374.07 1523.07 L1366.43 1523.07 L1366.43 1572.09 L1374.07 1572.09 L1374.07 1576.64 L1360.58 1576.64 L1360.58 1518.52 Z" fill="#000000" fill-rule="nonzero" fill-opacity="1" /><path clip-path="url(#clip340)" d="M1409.27 1533.45 L1409.27 1538.98 Q1406.79 1537.71 1404.12 1537.07 Q1401.44 1536.44 1398.58 1536.44 Q1394.22 1536.44 1392.02 1537.77 Q1389.86 1539.11 1389.86 1541.79 Q1389.86 1543.82 1391.42 1545 Q1392.98 1546.15 1397.69 1547.2 L1399.69 1547.64 Q1405.93 1548.98 1408.54 1551.43 Q1411.18 1553.85 1411.18 1558.21 Q1411.18 1563.17 1407.24 1566.07 Q1403.32 1568.97 1396.45 1568.97 Q1393.58 1568.97 1390.46 1568.39 Q1387.38 1567.85 1383.94 1566.74 L1383.94 1560.69 Q1387.18 1562.38 1390.34 1563.24 Q1393.49 1564.07 1396.57 1564.07 Q1400.71 1564.07 1402.94 1562.66 Q1405.17 1561.23 1405.17 1558.65 Q1405.17 1556.27 1403.54 1554.99 Q1401.95 1553.72 1396.51 1552.54 L1394.47 1552.07 Q1389.03 1550.92 1386.61 1548.56 Q1384.19 1546.18 1384.19 1542.04 Q1384.19 1537.01 1387.76 1534.27 Q1391.32 1531.54 1397.88 1531.54 Q1401.13 1531.54 1403.99 1532.01 Q1406.85 1532.49 1409.27 1533.45 Z" fill="#000000" fill-rule="nonzero" fill-opacity="1" /><path clip-path="url(#clip340)" d="M1434.2 1518.52 L1434.2 1576.64 L1420.7 1576.64 L1420.7 1572.09 L1428.31 1572.09 L1428.31 1523.07 L1420.7 1523.07 L1420.7 1518.52 L1434.2 1518.52 Z" fill="#000000" fill-rule="nonzero" fill-opacity="1" /><polyline clip-path="url(#clip342)" style="stroke:#000000; stroke-linecap:round; stroke-linejoin:round; stroke-width:2; stroke-opacity:0.1; fill:none" points="255.977,1380.58 2352.76,1380.58 "/>
<polyline clip-path="url(#clip342)" style="stroke:#000000; stroke-linecap:round; stroke-linejoin:round; stroke-width:2; stroke-opacity:0.1; fill:none" points="255.977,1054.04 2352.76,1054.04 "/>
<polyline clip-path="url(#clip342)" style="stroke:#000000; stroke-linecap:round; stroke-linejoin:round; stroke-width:2; stroke-opacity:0.1; fill:none" points="255.977,727.495 2352.76,727.495 "/>
<polyline clip-path="url(#clip342)" style="stroke:#000000; stroke-linecap:round; stroke-linejoin:round; stroke-width:2; stroke-opacity:0.1; fill:none" points="255.977,400.952 2352.76,400.952 "/>
<polyline clip-path="url(#clip342)" style="stroke:#000000; stroke-linecap:round; stroke-linejoin:round; stroke-width:2; stroke-opacity:0.1; fill:none" points="255.977,74.408 2352.76,74.408 "/>
<polyline clip-path="url(#clip340)" style="stroke:#000000; stroke-linecap:round; stroke-linejoin:round; stroke-width:4; stroke-opacity:1; fill:none" points="255.977,1423.18 255.977,47.2441 "/>
<polyline clip-path="url(#clip340)" style="stroke:#000000; stroke-linecap:round; stroke-linejoin:round; stroke-width:4; stroke-opacity:1; fill:none" points="255.977,1380.58 274.875,1380.58 "/>
<polyline clip-path="url(#clip340)" style="stroke:#000000; stroke-linecap:round; stroke-linejoin:round; stroke-width:4; stroke-opacity:1; fill:none" points="255.977,1054.04 274.875,1054.04 "/>
<polyline clip-path="url(#clip340)" style="stroke:#000000; stroke-linecap:round; stroke-linejoin:round; stroke-width:4; stroke-opacity:1; fill:none" points="255.977,727.495 274.875,727.495 "/>
<polyline clip-path="url(#clip340)" style="stroke:#000000; stroke-linecap:round; stroke-linejoin:round; stroke-width:4; stroke-opacity:1; fill:none" points="255.977,400.952 274.875,400.952 "/>
<polyline clip-path="url(#clip340)" style="stroke:#000000; stroke-linecap:round; stroke-linejoin:round; stroke-width:4; stroke-opacity:1; fill:none" points="255.977,74.408 274.875,74.408 "/>
<path clip-path="url(#clip340)" d="M114.631 1381.03 L144.306 1381.03 L144.306 1384.97 L114.631 1384.97 L114.631 1381.03 Z" fill="#000000" fill-rule="nonzero" fill-opacity="1" /><path clip-path="url(#clip340)" d="M164.399 1366.38 Q160.788 1366.38 158.959 1369.95 Q157.153 1373.49 157.153 1380.62 Q157.153 1387.72 158.959 1391.29 Q160.788 1394.83 164.399 1394.83 Q168.033 1394.83 169.839 1391.29 Q171.667 1387.72 171.667 1380.62 Q171.667 1373.49 169.839 1369.95 Q168.033 1366.38 164.399 1366.38 M164.399 1362.68 Q170.209 1362.68 173.264 1367.28 Q176.343 1371.87 176.343 1380.62 Q176.343 1389.34 173.264 1393.95 Q170.209 1398.53 164.399 1398.53 Q158.589 1398.53 155.51 1393.95 Q152.454 1389.34 152.454 1380.62 Q152.454 1371.87 155.51 1367.28 Q158.589 1362.68 164.399 1362.68 Z" fill="#000000" fill-rule="nonzero" fill-opacity="1" /><path clip-path="url(#clip340)" d="M184.561 1391.98 L189.445 1391.98 L189.445 1397.86 L184.561 1397.86 L184.561 1391.98 Z" fill="#000000" fill-rule="nonzero" fill-opacity="1" /><path clip-path="url(#clip340)" d="M203.658 1393.93 L219.977 1393.93 L219.977 1397.86 L198.033 1397.86 L198.033 1393.93 Q200.695 1391.17 205.278 1386.54 Q209.885 1381.89 211.065 1380.55 Q213.311 1378.02 214.19 1376.29 Q215.093 1374.53 215.093 1372.84 Q215.093 1370.08 213.149 1368.35 Q211.227 1366.61 208.125 1366.61 Q205.926 1366.61 203.473 1367.38 Q201.042 1368.14 198.264 1369.69 L198.264 1364.97 Q201.088 1363.83 203.542 1363.26 Q205.996 1362.68 208.033 1362.68 Q213.403 1362.68 216.598 1365.36 Q219.792 1368.05 219.792 1372.54 Q219.792 1374.67 218.982 1376.59 Q218.195 1378.49 216.088 1381.08 Q215.51 1381.75 212.408 1384.97 Q209.306 1388.16 203.658 1393.93 Z" fill="#000000" fill-rule="nonzero" fill-opacity="1" /><path clip-path="url(#clip340)" d="M114.26 1054.49 L143.936 1054.49 L143.936 1058.43 L114.26 1058.43 L114.26 1054.49 Z" fill="#000000" fill-rule="nonzero" fill-opacity="1" /><path clip-path="url(#clip340)" d="M164.028 1039.84 Q160.417 1039.84 158.589 1043.4 Q156.783 1046.94 156.783 1054.07 Q156.783 1061.18 158.589 1064.74 Q160.417 1068.29 164.028 1068.29 Q167.663 1068.29 169.468 1064.74 Q171.297 1061.18 171.297 1054.07 Q171.297 1046.94 169.468 1043.4 Q167.663 1039.84 164.028 1039.84 M164.028 1036.13 Q169.839 1036.13 172.894 1040.74 Q175.973 1045.32 175.973 1054.07 Q175.973 1062.8 172.894 1067.41 Q169.839 1071.99 164.028 1071.99 Q158.218 1071.99 155.14 1067.41 Q152.084 1062.8 152.084 1054.07 Q152.084 1045.32 155.14 1040.74 Q158.218 1036.13 164.028 1036.13 Z" fill="#000000" fill-rule="nonzero" fill-opacity="1" /><path clip-path="url(#clip340)" d="M184.19 1065.44 L189.075 1065.44 L189.075 1071.32 L184.19 1071.32 L184.19 1065.44 Z" fill="#000000" fill-rule="nonzero" fill-opacity="1" /><path clip-path="url(#clip340)" d="M200.07 1067.38 L207.709 1067.38 L207.709 1041.02 L199.399 1042.68 L199.399 1038.43 L207.662 1036.76 L212.338 1036.76 L212.338 1067.38 L219.977 1067.38 L219.977 1071.32 L200.07 1071.32 L200.07 1067.38 Z" fill="#000000" fill-rule="nonzero" fill-opacity="1" /><path clip-path="url(#clip340)" d="M162.802 713.294 Q159.19 713.294 157.362 716.859 Q155.556 720.4 155.556 727.53 Q155.556 734.636 157.362 738.201 Q159.19 741.743 162.802 741.743 Q166.436 741.743 168.241 738.201 Q170.07 734.636 170.07 727.53 Q170.07 720.4 168.241 716.859 Q166.436 713.294 162.802 713.294 M162.802 709.59 Q168.612 709.59 171.667 714.197 Q174.746 718.78 174.746 727.53 Q174.746 736.257 171.667 740.863 Q168.612 745.447 162.802 745.447 Q156.991 745.447 153.913 740.863 Q150.857 736.257 150.857 727.53 Q150.857 718.78 153.913 714.197 Q156.991 709.59 162.802 709.59 Z" fill="#000000" fill-rule="nonzero" fill-opacity="1" /><path clip-path="url(#clip340)" d="M182.963 738.896 L187.848 738.896 L187.848 744.775 L182.963 744.775 L182.963 738.896 Z" fill="#000000" fill-rule="nonzero" fill-opacity="1" /><path clip-path="url(#clip340)" d="M208.033 713.294 Q204.422 713.294 202.593 716.859 Q200.787 720.4 200.787 727.53 Q200.787 734.636 202.593 738.201 Q204.422 741.743 208.033 741.743 Q211.667 741.743 213.473 738.201 Q215.301 734.636 215.301 727.53 Q215.301 720.4 213.473 716.859 Q211.667 713.294 208.033 713.294 M208.033 709.59 Q213.843 709.59 216.898 714.197 Q219.977 718.78 219.977 727.53 Q219.977 736.257 216.898 740.863 Q213.843 745.447 208.033 745.447 Q202.223 745.447 199.144 740.863 Q196.088 736.257 196.088 727.53 Q196.088 718.78 199.144 714.197 Q202.223 709.59 208.033 709.59 Z" fill="#000000" fill-rule="nonzero" fill-opacity="1" /><path clip-path="url(#clip340)" d="M164.028 386.75 Q160.417 386.75 158.589 390.315 Q156.783 393.857 156.783 400.986 Q156.783 408.093 158.589 411.658 Q160.417 415.199 164.028 415.199 Q167.663 415.199 169.468 411.658 Q171.297 408.093 171.297 400.986 Q171.297 393.857 169.468 390.315 Q167.663 386.75 164.028 386.75 M164.028 383.047 Q169.839 383.047 172.894 387.653 Q175.973 392.236 175.973 400.986 Q175.973 409.713 172.894 414.32 Q169.839 418.903 164.028 418.903 Q158.218 418.903 155.14 414.32 Q152.084 409.713 152.084 400.986 Q152.084 392.236 155.14 387.653 Q158.218 383.047 164.028 383.047 Z" fill="#000000" fill-rule="nonzero" fill-opacity="1" /><path clip-path="url(#clip340)" d="M184.19 412.352 L189.075 412.352 L189.075 418.232 L184.19 418.232 L184.19 412.352 Z" fill="#000000" fill-rule="nonzero" fill-opacity="1" /><path clip-path="url(#clip340)" d="M200.07 414.297 L207.709 414.297 L207.709 387.931 L199.399 389.598 L199.399 385.338 L207.662 383.672 L212.338 383.672 L212.338 414.297 L219.977 414.297 L219.977 418.232 L200.07 418.232 L200.07 414.297 Z" fill="#000000" fill-rule="nonzero" fill-opacity="1" /><path clip-path="url(#clip340)" d="M164.399 60.2067 Q160.788 60.2067 158.959 63.7715 Q157.153 67.3132 157.153 74.4428 Q157.153 81.5492 158.959 85.114 Q160.788 88.6557 164.399 88.6557 Q168.033 88.6557 169.839 85.114 Q171.667 81.5492 171.667 74.4428 Q171.667 67.3132 169.839 63.7715 Q168.033 60.2067 164.399 60.2067 M164.399 56.5031 Q170.209 56.5031 173.264 61.1095 Q176.343 65.6928 176.343 74.4428 Q176.343 83.1696 173.264 87.776 Q170.209 92.3593 164.399 92.3593 Q158.589 92.3593 155.51 87.776 Q152.454 83.1696 152.454 74.4428 Q152.454 65.6928 155.51 61.1095 Q158.589 56.5031 164.399 56.5031 Z" fill="#000000" fill-rule="nonzero" fill-opacity="1" /><path clip-path="url(#clip340)" d="M184.561 85.8085 L189.445 85.8085 L189.445 91.688 L184.561 91.688 L184.561 85.8085 Z" fill="#000000" fill-rule="nonzero" fill-opacity="1" /><path clip-path="url(#clip340)" d="M203.658 87.7529 L219.977 87.7529 L219.977 91.688 L198.033 91.688 L198.033 87.7529 Q200.695 84.9983 205.278 80.3687 Q209.885 75.7159 211.065 74.3733 Q213.311 71.8502 214.19 70.1141 Q215.093 68.3548 215.093 66.665 Q215.093 63.9104 213.149 62.1743 Q211.227 60.4382 208.125 60.4382 Q205.926 60.4382 203.473 61.2021 Q201.042 61.966 198.264 63.5169 L198.264 58.7947 Q201.088 57.6605 203.542 57.0818 Q205.996 56.5031 208.033 56.5031 Q213.403 56.5031 216.598 59.1882 Q219.792 61.8734 219.792 66.3641 Q219.792 68.4937 218.982 70.415 Q218.195 72.3132 216.088 74.9057 Q215.51 75.577 212.408 78.7946 Q209.306 81.989 203.658 87.7529 Z" fill="#000000" fill-rule="nonzero" fill-opacity="1" /><path clip-path="url(#clip340)" d="M20.8447 823.791 Q20.8447 830.793 26.0645 834.931 Q31.2844 839.037 40.2919 839.037 Q49.2675 839.037 54.4874 834.931 Q59.7073 830.793 59.7073 823.791 Q59.7073 816.788 54.4874 812.714 Q49.2675 808.609 40.2919 808.609 Q31.2844 808.609 26.0645 812.714 Q20.8447 816.788 20.8447 823.791 M15.6248 823.791 Q15.6248 813.797 22.3406 807.813 Q29.0246 801.829 40.2919 801.829 Q51.5274 801.829 58.2432 807.813 Q64.9272 813.797 64.9272 823.791 Q64.9272 833.817 58.2432 839.832 Q51.5592 845.816 40.2919 845.816 Q29.0246 845.816 22.3406 839.832 Q15.6248 833.817 15.6248 823.791 Z" fill="#000000" fill-rule="nonzero" fill-opacity="1" /><path clip-path="url(#clip340)" d="M49.9359 792.631 L28.3562 792.631 L28.3562 786.774 L49.7131 786.774 Q54.7739 786.774 57.3202 784.801 Q59.8346 782.827 59.8346 778.881 Q59.8346 774.138 56.8109 771.401 Q53.7872 768.632 48.5673 768.632 L28.3562 768.632 L28.3562 762.775 L64.0042 762.775 L64.0042 768.632 L58.5296 768.632 Q61.7762 770.764 63.3676 773.597 Q64.9272 776.398 64.9272 780.122 Q64.9272 786.265 61.1078 789.448 Q57.2883 792.631 49.9359 792.631 M27.4968 777.894 L27.4968 777.894 Z" fill="#000000" fill-rule="nonzero" fill-opacity="1" /><path clip-path="url(#clip340)" d="M18.2347 744.92 L28.3562 744.92 L28.3562 732.857 L32.9077 732.857 L32.9077 744.92 L52.2594 744.92 Q56.6199 744.92 57.8613 743.742 Q59.1026 742.533 59.1026 738.872 L59.1026 732.857 L64.0042 732.857 L64.0042 738.872 Q64.0042 745.652 61.4897 748.23 Q58.9434 750.808 52.2594 750.808 L32.9077 750.808 L32.9077 755.105 L28.3562 755.105 L28.3562 750.808 L18.2347 750.808 L18.2347 744.92 Z" fill="#000000" fill-rule="nonzero" fill-opacity="1" /><path clip-path="url(#clip340)" d="M58.657 719.489 L77.5631 719.489 L77.5631 725.377 L28.3562 725.377 L28.3562 719.489 L33.7671 719.489 Q30.5842 717.643 29.0564 714.842 Q27.4968 712.009 27.4968 708.094 Q27.4968 701.601 32.6531 697.559 Q37.8093 693.485 46.212 693.485 Q54.6147 693.485 59.771 697.559 Q64.9272 701.601 64.9272 708.094 Q64.9272 712.009 63.3994 714.842 Q61.8398 717.643 58.657 719.489 M46.212 699.564 Q39.7508 699.564 36.0905 702.238 Q32.3984 704.879 32.3984 709.526 Q32.3984 714.173 36.0905 716.847 Q39.7508 719.489 46.212 719.489 Q52.6732 719.489 56.3653 716.847 Q60.0256 714.173 60.0256 709.526 Q60.0256 704.879 56.3653 702.238 Q52.6732 699.564 46.212 699.564 Z" fill="#000000" fill-rule="nonzero" fill-opacity="1" /><path clip-path="url(#clip340)" d="M49.9359 684.382 L28.3562 684.382 L28.3562 678.525 L49.7131 678.525 Q54.7739 678.525 57.3202 676.552 Q59.8346 674.579 59.8346 670.632 Q59.8346 665.889 56.8109 663.152 Q53.7872 660.383 48.5673 660.383 L28.3562 660.383 L28.3562 654.527 L64.0042 654.527 L64.0042 660.383 L58.5296 660.383 Q61.7762 662.516 63.3676 665.348 Q64.9272 668.149 64.9272 671.873 Q64.9272 678.016 61.1078 681.199 Q57.2883 684.382 49.9359 684.382 M27.4968 669.645 L27.4968 669.645 Z" fill="#000000" fill-rule="nonzero" fill-opacity="1" /><path clip-path="url(#clip340)" d="M18.2347 636.671 L28.3562 636.671 L28.3562 624.608 L32.9077 624.608 L32.9077 636.671 L52.2594 636.671 Q56.6199 636.671 57.8613 635.493 Q59.1026 634.284 59.1026 630.623 L59.1026 624.608 L64.0042 624.608 L64.0042 630.623 Q64.0042 637.403 61.4897 639.981 Q58.9434 642.559 52.2594 642.559 L32.9077 642.559 L32.9077 646.856 L28.3562 646.856 L28.3562 642.559 L18.2347 642.559 L18.2347 636.671 Z" fill="#000000" fill-rule="nonzero" fill-opacity="1" /><polyline clip-path="url(#clip342)" style="stroke:#009af9; stroke-linecap:round; stroke-linejoin:round; stroke-width:4; stroke-opacity:1; fill:none" points="315.32,727.495 319.284,727.495 323.248,727.495 323.248,759.772 327.212,759.772 327.212,791.098 331.176,791.098 331.176,821.199 335.141,821.199 335.141,849.828 339.105,849.828 339.105,876.773 343.069,876.773 343.069,901.858 347.033,901.858 347.033,924.945 350.997,924.945 350.997,945.936 354.961,945.936 354.961,964.777 358.925,964.777 358.925,981.452 362.889,981.452 362.889,931.432 366.853,931.432 366.853,881.236 370.818,881.236 370.818,831.514 374.782,831.514 374.782,782.891 378.746,782.891 378.746,735.953 382.71,735.953 382.71,755.796 386.674,755.796 386.674,776.448 390.638,776.448 390.638,797.779 394.602,797.779 394.602,819.647 398.566,819.647 398.566,841.9 402.53,841.9 402.53,864.379 406.495,864.379 406.495,886.925 410.459,886.925 410.459,909.378 414.423,909.378 414.423,931.581 418.387,931.581 418.387,953.384 422.351,953.384 422.351,910.095 426.315,910.095 426.315,868.04 430.279,868.04 430.279,827.654 434.243,827.654 434.243,789.333 438.208,789.333 438.208,753.421 442.172,753.421 442.172,784.762 446.136,784.762 446.136,817.134 450.1,817.134 450.1,850.158 454.064,850.158 454.064,883.452 458.028,883.452 458.028,916.636 461.992,916.636 461.992,884.786 465.956,884.786 465.956,854.007 469.92,854.007 469.92,824.521 473.885,824.521 473.885,796.521 477.849,796.521 477.849,770.17 481.813,770.17 481.813,745.595 485.777,745.595 485.777,722.891 489.741,722.891 489.741,702.114 493.705,702.114 493.705,683.284 497.669,683.284 497.669,666.387 501.633,666.387 501.633,715.926 505.597,715.926 505.597,765.366 509.562,765.366 509.562,814.044 513.526,814.044 513.526,861.33 517.49,861.33 517.49,906.639 521.454,906.639 521.454,884.882 525.418,884.882 525.418,862.043 529.382,862.043 529.382,838.271 533.346,838.271 533.346,813.731 537.31,813.731 537.31,788.601 541.275,788.601 541.275,763.069 545.239,763.069 545.239,737.331 549.203,737.331 549.203,711.581 553.167,711.581 553.167,686.012 557.131,686.012 557.131,660.812 561.095,660.812 561.095,700.711 565.059,700.711 565.059,739.418 569.023,739.418 569.023,776.532 572.987,776.532 572.987,811.692 576.952,811.692 576.952,844.582 580.916,844.582 580.916,874.939 584.88,874.939 584.88,902.551 588.844,902.551 588.844,927.265 592.808,927.265 592.808,948.988 596.772,948.988 596.772,967.684 600.736,967.684 600.736,983.373 604.7,983.373 604.7,996.134 608.664,996.134 608.664,1006.1 612.629,1006.1 612.629,1013.44 616.593,1013.44 616.593,1018.38 620.557,1018.38 620.557,1021.18 624.521,1021.18 624.521,1022.13 628.485,1022.13 628.485,1021.54 632.449,1021.54 632.449,1019.75 636.413,1019.75 636.413,1017.11 640.377,1017.11 640.377,1013.96 644.341,1013.96 644.341,1010.65 648.306,1010.65 648.306,1007.51 652.27,1007.51 652.27,1004.87 656.234,1004.87 656.234,1003.02 660.198,1003.02 660.198,1002.23 664.162,1002.23 664.162,1002.74 668.126,1002.74 668.126,1004.77 672.09,1004.77 672.09,1008.46 676.054,1008.46 676.054,1013.96 680.019,1013.96 680.019,1021.34 683.983,1021.34 683.983,1030.65 687.947,1030.65 687.947,1041.88 691.911,1041.88 691.911,1055 695.875,1055 695.875,1069.93 699.839,1069.93 699.839,1086.56 703.803,1086.56 703.803,1104.73 707.767,1104.73 707.767,1124.28 711.731,1124.28 711.731,1145.01 715.696,1145.01 715.696,1166.7 719.66,1166.7 719.66,1189.11 723.624,1189.11 723.624,1212.01 727.588,1212.01 727.588,1235.14 731.552,1235.14 731.552,1258.27 735.516,1258.27 735.516,1281.14 739.48,1281.14 739.48,1303.53 743.444,1303.53 743.444,1325.23 747.408,1325.23 747.408,1346.02 751.373,1346.02 751.373,1365.74 755.337,1365.74 755.337,1384.24 759.301,1384.24 759.301,1336.82 763.265,1336.82 763.265,1289.86 767.229,1289.86 767.229,1243.82 771.193,1243.82 771.193,1199.17 775.157,1199.17 775.157,1156.32 779.121,1156.32 779.121,1180.19 783.085,1180.19 783.085,1204.66 787.05,1204.66 787.05,1229.44 791.014,1229.44 791.014,1254.26 794.978,1254.26 794.978,1278.83 798.942,1278.83 798.942,1238.35 802.906,1238.35 802.906,1199 806.87,1199 806.87,1161.13 810.834,1161.13 810.834,1125.01 814.798,1125.01 814.798,1090.89 818.763,1090.89 818.763,1123.53 822.727,1123.53 822.727,1156.63 826.691,1156.63 826.691,1189.77 830.655,1189.77 830.655,1222.5 834.619,1222.5 834.619,1254.43 838.583,1254.43 838.583,1220.61 842.547,1220.61 842.547,1187.15 846.511,1187.15 846.511,1154.29 850.475,1154.29 850.475,1122.25 854.44,1122.25 854.44,1091.23 858.404,1091.23 858.404,1125.98 862.368,1125.98 862.368,1160.19 866.332,1160.19 866.332,1193.45 870.296,1193.45 870.296,1225.35 874.26,1225.35 874.26,1255.55 878.224,1255.55 878.224,1219.18 882.188,1219.18 882.188,1182.42 886.152,1182.42 886.152,1145.61 890.117,1145.61 890.117,1109.08 894.081,1109.08 894.081,1073.14 898.045,1073.14 898.045,1102.65 902.009,1102.65 902.009,1131.43 905.973,1131.43 905.973,1159.19 909.937,1159.19 909.937,1185.63 913.901,1185.63 913.901,1210.54 917.865,1210.54 917.865,1233.69 921.829,1233.69 921.829,1254.92 925.794,1254.92 925.794,1274.1 929.758,1274.1 929.758,1291.15 933.722,1291.15 933.722,1306.02 937.686,1306.02 937.686,1254.16 941.65,1254.16 941.65,1202.05 945.614,1202.05 945.614,1150.33 949.578,1150.33 949.578,1099.6 953.542,1099.6 953.542,1050.44 957.507,1050.44 957.507,1003.36 961.471,1003.36 961.471,958.853 965.435,958.853 965.435,917.324 969.399,917.324 969.399,879.123 973.363,879.123 973.363,844.525 977.327,844.525 977.327,813.73 981.291,813.73 981.291,786.862 985.255,786.862 985.255,763.966 989.219,763.966 989.219,745.012 993.184,745.012 993.184,729.899 997.148,729.899 997.148,783.007 1001.11,783.007 1001.11,837.646 1005.08,837.646 1005.08,892.974 1009.04,892.974 1009.04,948.158 1013,948.158 1013,1002.39 1016.97,1002.39 1016.97,1054.89 1020.93,1054.89 1020.93,1104.96 1024.9,1104.96 1024.9,1151.95 1028.86,1151.95 1028.86,1195.28 1032.82,1195.28 1032.82,1234.46 1036.79,1234.46 1036.79,1269.11 1040.75,1269.11 1040.75,1298.93 1044.72,1298.93 1044.72,1323.73 1048.68,1323.73 1048.68,1343.42 1052.65,1343.42 1052.65,1358.01 1056.61,1358.01 1056.61,1303.06 1060.57,1303.06 1060.57,1245.21 1064.54,1245.21 1064.54,1185.3 1068.5,1185.3 1068.5,1124.2 1072.47,1124.2 1072.47,1062.76 1076.43,1062.76 1076.43,1001.81 1080.39,1001.81 1080.39,942.181 1084.36,942.181 1084.36,884.629 1088.32,884.629 1088.32,829.862 1092.29,829.862 1092.29,778.513 1096.25,778.513 1096.25,731.135 1100.21,731.135 1100.21,688.187 1104.18,688.187 1104.18,650.033 1108.14,650.033 1108.14,616.935 1112.11,616.935 1112.11,589.051 1116.07,589.051 1116.07,566.436 1120.04,566.436 1120.04,549.041 1124,549.041 1124,536.722 1127.96,536.722 1127.96,529.241 1131.93,529.241 1131.93,526.275 1135.89,526.275 1135.89,591.979 1139.86,591.979 1139.86,659.434 1143.82,659.434 1143.82,727.57 1147.78,727.57 1147.78,795.334 1151.75,795.334 1151.75,861.705 1155.71,861.705 1155.71,925.721 1159.68,925.721 1159.68,986.489 1163.64,986.489 1163.64,1043.2 1167.6,1043.2 1167.6,1095.16 1171.57,1095.16 1171.57,1141.77 1175.53,1141.77 1175.53,1118 1179.5,1118 1179.5,1089.95 1183.46,1089.95 1183.46,1057.98 1187.43,1057.98 1187.43,1022.46 1191.39,1022.46 1191.39,983.873 1195.35,983.873 1195.35,942.726 1199.32,942.726 1199.32,899.573 1203.28,899.573 1203.28,854.991 1207.25,854.991 1207.25,809.574 1211.21,809.574 1211.21,763.916 1215.17,763.916 1215.17,783.157 1219.14,783.157 1219.14,801.406 1223.1,801.406 1223.1,818.646 1227.07,818.646 1227.07,834.877 1231.03,834.877 1231.03,850.116 1234.99,850.116 1234.99,864.398 1238.96,864.398 1238.96,877.769 1242.92,877.769 1242.92,890.291 1246.89,890.291 1246.89,902.039 1250.85,902.039 1250.85,913.094 1254.82,913.094 1254.82,923.55 1258.78,923.55 1258.78,933.504 1262.74,933.504 1262.74,943.058 1266.71,943.058 1266.71,952.316 1270.67,952.316 1270.67,961.383 1274.64,961.383 1274.64,970.361 1278.6,970.361 1278.6,979.347 1282.56,979.347 1282.56,988.434 1286.53,988.434 1286.53,997.707 1290.49,997.707 1290.49,1007.24 1294.46,1007.24 1294.46,1017.1 1298.42,1017.1 1298.42,1027.35 1302.38,1027.35 1302.38,1038.02 1306.35,1038.02 1306.35,1049.15 1310.31,1049.15 1310.31,1060.76 1314.28,1060.76 1314.28,1008.29 1318.24,1008.29 1318.24,958.204 1322.21,958.204 1322.21,911.026 1326.17,911.026 1326.17,867.221 1330.13,867.221 1330.13,827.176 1334.1,827.176 1334.1,791.196 1338.06,791.196 1338.06,759.502 1342.03,759.502 1342.03,732.225 1345.99,732.225 1345.99,709.411 1349.95,709.411 1349.95,691.02 1353.92,691.02 1353.92,676.93 1357.88,676.93 1357.88,666.941 1361.85,666.941 1361.85,660.783 1365.81,660.783 1365.81,658.119 1369.77,658.119 1369.77,658.56 1373.74,658.56 1373.74,726.224 1377.7,726.224 1377.7,794.181 1381.67,794.181 1381.67,861.384 1385.63,861.384 1385.63,926.826 1389.6,926.826 1389.6,989.565 1393.56,989.565 1393.56,1048.73 1397.52,1048.73 1397.52,1103.56 1401.49,1103.56 1401.49,1153.37 1405.45,1153.37 1405.45,1197.62 1409.42,1197.62 1409.42,1235.88 1413.38,1235.88 1413.38,1267.85 1417.34,1267.85 1417.34,1293.35 1421.31,1293.35 1421.31,1312.35 1425.27,1312.35 1425.27,1324.92 1429.24,1324.92 1429.24,1331.28 1433.2,1331.28 1433.2,1331.74 1437.16,1331.74 1437.16,1326.73 1441.13,1326.73 1441.13,1316.76 1445.09,1316.76 1445.09,1302.43 1449.06,1302.43 1449.06,1284.4 1453.02,1284.4 1453.02,1198.82 1456.98,1198.82 1456.98,1112.91 1460.95,1112.91 1460.95,1027.98 1464.91,1027.98 1464.91,945.285 1468.88,945.285 1468.88,866.015 1472.84,866.015 1472.84,791.256 1476.81,791.256 1476.81,721.976 1480.77,721.976 1480.77,659.013 1484.73,659.013 1484.73,603.056 1488.7,603.056 1488.7,554.642 1492.66,554.642 1492.66,514.147 1496.63,514.147 1496.63,481.782 1500.59,481.782 1500.59,457.598 1504.55,457.598 1504.55,441.485 1508.52,441.485 1508.52,433.181 1512.48,433.181 1512.48,496.836 1516.45,496.836 1516.45,565.461 1520.41,565.461 1520.41,637.856 1524.37,637.856 1524.37,712.777 1528.34,712.777 1528.34,788.969 1532.3,788.969 1532.3,800.628 1536.27,800.628 1536.27,812.994 1540.23,812.994 1540.23,825.46 1544.2,825.46 1544.2,837.437 1548.16,837.437 1548.16,848.365 1552.12,848.365 1552.12,922.281 1556.09,922.281 1556.09,992.26 1560.05,992.26 1560.05,1057.34 1564.02,1057.34 1564.02,1116.68 1567.98,1116.68 1567.98,1169.59 1571.94,1169.59 1571.94,1215.49 1575.91,1215.49 1575.91,1253.97 1579.87,1253.97 1579.87,1284.8 1583.84,1284.8 1583.84,1307.86 1587.8,1307.86 1587.8,1323.21 1591.76,1323.21 1591.76,1331.05 1595.73,1331.05 1595.73,1331.73 1599.69,1331.73 1599.69,1325.71 1603.66,1325.71 1603.66,1313.58 1607.62,1313.58 1607.62,1296.02 1611.59,1296.02 1611.59,1273.8 1615.55,1273.8 1615.55,1247.75 1619.51,1247.75 1619.51,1218.76 1623.48,1218.76 1623.48,1187.73 1627.44,1187.73 1627.44,1155.6 1631.41,1155.6 1631.41,1058.72 1635.37,1058.72 1635.37,964.441 1639.33,964.441 1639.33,874.149 1643.3,874.149 1643.3,789.13 1647.26,789.13 1647.26,710.524 1651.23,710.524 1651.23,639.32 1655.19,639.32 1655.19,576.331 1659.15,576.331 1659.15,522.192 1663.12,522.192 1663.12,477.345 1667.08,477.345 1667.08,442.042 1671.05,442.042 1671.05,480.897 1675.01,480.897 1675.01,527.328 1678.98,527.328 1678.98,580.479 1682.94,580.479 1682.94,639.382 1686.9,639.382 1686.9,702.986 1690.87,702.986 1690.87,770.173 1694.83,770.173 1694.83,839.786 1698.8,839.786 1698.8,910.65 1702.76,910.65 1702.76,981.6 1706.72,981.6 1706.72,1051.5 1710.69,1051.5 1710.69,1119.26 1714.65,1119.26 1714.65,1183.88 1718.62,1183.88 1718.62,1244.42 1722.58,1244.42 1722.58,1300.08 1726.54,1300.08 1726.54,1350.14 1730.51,1350.14 1730.51,1329.49 1734.47,1329.49 1734.47,1304.13 1738.44,1304.13 1738.44,1274.33 1742.4,1274.33 1742.4,1240.42 1746.37,1240.42 1746.37,1202.81 1750.33,1202.81 1750.33,1226.53 1754.29,1226.53 1754.29,1245.66 1758.26,1245.66 1758.26,1260.21 1762.22,1260.21 1762.22,1270.29 1766.19,1270.29 1766.19,1276.1 1770.15,1276.1 1770.15,1277.89 1774.11,1277.89 1774.11,1276.01 1778.08,1276.01 1778.08,1270.84 1782.04,1270.84 1782.04,1262.82 1786.01,1262.82 1786.01,1252.45 1789.97,1252.45 1789.97,1240.24 1793.93,1240.24 1793.93,1226.72 1797.9,1226.72 1797.9,1212.42 1801.86,1212.42 1801.86,1197.9 1805.83,1197.9 1805.83,1183.67 1809.79,1183.67 1809.79,1105.67 1813.76,1105.67 1813.76,1030.84 1817.72,1030.84 1817.72,960.143 1821.68,960.143 1821.68,894.455 1825.65,894.455 1825.65,834.525 1829.61,834.525 1829.61,780.971 1833.58,780.971 1833.58,734.272 1837.54,734.272 1837.54,694.762 1841.5,694.762 1841.5,662.625 1845.47,662.625 1845.47,637.903 1849.43,637.903 1849.43,685.044 1853.4,685.044 1853.4,737.352 1857.36,737.352 1857.36,793.908 1861.32,793.908 1861.32,853.734 1865.29,853.734 1865.29,915.815 1869.25,915.815 1869.25,914.562 1873.22,914.562 1873.22,915.403 1877.18,915.403 1877.18,917.883 1881.15,917.883 1881.15,921.531 1885.11,921.531 1885.11,925.873 1889.07,925.873 1889.07,994.99 1893.04,994.99 1893.04,1061.97 1897,1061.97 1897,1125.82 1900.97,1125.82 1900.97,1185.66 1904.93,1185.66 1904.93,1240.67 1908.89,1240.67 1908.89,1225.63 1912.86,1225.63 1912.86,1206.45 1916.82,1206.45 1916.82,1183.24 1920.79,1183.24 1920.79,1156.22 1924.75,1156.22 1924.75,1125.67 1928.71,1125.67 1928.71,1091.93 1932.68,1091.93 1932.68,1055.4 1936.64,1055.4 1936.64,1016.54 1940.61,1016.54 1940.61,975.813 1944.57,975.813 1944.57,933.745 1948.54,933.745 1948.54,890.857 1952.5,890.857 1952.5,847.675 1956.46,847.675 1956.46,804.723 1960.43,804.723 1960.43,762.505 1964.39,762.505 1964.39,721.502 1968.36,721.502 1968.36,682.157 1972.32,682.157 1972.32,644.873 1976.28,644.873 1976.28,610.003 1980.25,610.003 1980.25,577.845 1984.21,577.845 1984.21,548.637 1988.18,548.637 1988.18,587.111 1992.14,587.111 1992.14,626.926 1996.1,626.926 1996.1,667.579 2000.07,667.579 2000.07,708.567 2004.03,708.567 2004.03,749.39 2008,749.39 2008,725.007 2011.96,725.007 2011.96,701.413 2015.93,701.413 2015.93,678.73 2019.89,678.73 2019.89,657.06 2023.85,657.06 2023.85,636.486 2027.82,636.486 2027.82,617.069 2031.78,617.069 2031.78,598.851 2035.75,598.851 2035.75,581.85 2039.71,581.85 2039.71,566.064 2043.67,566.064 2043.67,551.469 2047.64,551.469 2047.64,602.575 2051.6,602.575 2051.6,652.866 2055.57,652.866 2055.57,701.713 2059.53,701.713 2059.53,748.532 2063.49,748.532 2063.49,792.793 2067.46,792.793 2067.46,769.473 2071.42,769.473 2071.42,744.631 2075.39,744.631 2075.39,718.494 2079.35,718.494 2079.35,691.311 2083.32,691.311 2083.32,663.35 2087.28,663.35 2087.28,634.886 2091.24,634.886 2091.24,606.199 2095.21,606.199 2095.21,577.571 2099.17,577.571 2099.17,549.275 2103.14,549.275 2103.14,521.571 2107.1,521.571 2107.1,494.706 2111.06,494.706 2111.06,468.903 2115.03,468.903 2115.03,444.363 2118.99,444.363 2118.99,421.255 2122.96,421.255 2122.96,399.723 2126.92,399.723 2126.92,379.873 2130.88,379.873 2130.88,361.782 2134.85,361.782 2134.85,345.488 2138.81,345.488 2138.81,331.001 2142.78,331.001 2142.78,318.292 2146.74,318.292 2146.74,307.305 2150.7,307.305 2150.7,297.951 2154.67,297.951 2154.67,290.115 2158.63,290.115 2158.63,283.66 2162.6,283.66 2162.6,278.427 2166.56,278.427 2166.56,274.238 2170.53,274.238 2170.53,270.905 2174.49,270.905 2174.49,268.23 2178.45,268.23 2178.45,266.01 2182.42,266.01 2182.42,264.043 2186.38,264.043 2186.38,262.128 2190.35,262.128 2190.35,260.073 2194.31,260.073 2194.31,257.696 2198.27,257.696 2198.27,254.828 2202.24,254.828 2202.24,251.319 2206.2,251.319 2206.2,247.037 2210.17,247.037 2210.17,241.872 2214.13,241.872 2214.13,235.735 2218.09,235.735 2218.09,228.562 2222.06,228.562 2222.06,220.315 2226.02,220.315 2226.02,210.977 2229.99,210.977 2229.99,200.558 2233.95,200.558 2233.95,189.091 2237.92,189.091 2237.92,176.627 2241.88,176.627 2241.88,163.242 2245.84,163.242 2245.84,149.027 2249.81,149.027 2249.81,134.088 2253.77,134.088 2253.77,118.547 2257.74,118.547 2257.74,102.534 2261.7,102.534 2261.7,86.1857 2265.66,86.1857 2265.66,134.199 2269.63,134.199 2269.63,180.263 2273.59,180.263 2273.59,223.97 2277.56,223.97 2277.56,264.965 2281.52,264.965 2281.52,302.955 2285.48,302.955 2285.48,273.156 2289.45,273.156 2289.45,241.859 2293.41,241.859 2293.41,209.516 "/>
<polyline clip-path="url(#clip342)" style="stroke:#e26f46; stroke-linecap:round; stroke-linejoin:round; stroke-width:4; stroke-opacity:1; fill:none" points="315.32,734.26 319.284,573.546 323.248,616.199 327.212,665.669 331.176,713.582 335.141,759.515 339.105,803.39 343.069,845.153 347.033,884.758 350.997,922.17 354.961,957.36 358.925,989.977 362.889,955.322 366.853,918.688 370.818,882.908 374.782,848.171 378.746,814.88 382.71,847.782 386.674,881.635 390.638,913.657 394.602,943.711 398.566,971.778 402.53,997.852 406.495,1021.93 410.459,1044.02 414.423,1064.14 418.387,1081.96 422.351,1032.84 426.315,982.081 430.279,932.56 434.243,884.491 438.208,838.303 442.172,858.765 446.136,880.655 450.1,901.21 454.064,920.309 458.028,937.614 461.992,888.444 465.956,838.104 469.92,789.437 473.885,742.639 477.849,697.786 481.813,654.94 485.777,614.153 489.741,575.469 493.705,538.925 497.669,504.879 501.633,538.038 505.597,573.116 509.562,607.288 513.526,640.372 517.49,671.971 521.454,637.346 525.418,601.747 529.382,567.961 533.346,536.131 537.31,506.282 541.275,478.427 545.239,452.573 549.203,428.718 553.167,406.855 557.131,387.304 561.095,434.732 565.059,483.818 569.023,531.703 572.987,578.175 576.952,623.139 580.916,666.517 584.88,708.235 588.844,748.23 592.808,786.448 596.772,822.839 600.736,857.365 604.7,889.993 608.664,920.698 612.629,949.463 616.593,976.275 620.557,1001.13 624.521,1024.03 628.485,1044.99 632.449,1064.01 636.413,1081.12 640.377,1096.35 644.341,1109.71 648.306,1121.25 652.27,1131.01 656.234,1139.02 660.198,1145.33 664.162,1150 668.126,1153.08 672.09,1154.61 676.054,1154.67 680.019,1153.31 683.983,1150.6 687.947,1146.59 691.911,1141.36 695.875,1134.97 699.839,1127.49 703.803,1118.99 707.767,1109.53 711.731,1099.19 715.696,1088.04 719.66,1076.14 723.624,1063.56 727.588,1050.37 731.552,1036.64 735.516,1022.43 739.48,1007.81 743.444,992.842 747.408,977.584 751.373,962.099 755.337,946.112 759.301,864.994 763.265,784.096 767.229,706.301 771.193,631.837 775.157,561.139 779.121,558.978 783.085,560.124 787.05,561.802 791.014,563.875 794.978,565.982 798.942,503.415 802.906,441.447 806.87,382.886 810.834,327.886 814.798,276.812 818.763,294.365 822.727,315.249 826.691,336.628 830.655,358.301 834.619,379.852 838.583,336.515 842.547,293.515 846.511,253.606 850.475,216.9 854.44,183.717 858.404,218.718 862.368,256.572 866.332,294.406 870.296,331.991 874.26,368.881 878.224,340.287 882.188,311.41 886.152,284.986 890.117,261.11 894.081,240.09 898.045,286.574 902.009,335.224 905.973,383.16 909.937,430.151 913.901,476.081 917.865,520.849 921.829,564.361 925.794,606.532 929.758,647.283 933.722,686.211 937.686,658.568 941.65,629.596 945.614,602.077 949.578,576.147 953.542,551.829 957.507,529.134 961.471,508.066 965.435,488.624 969.399,470.804 973.363,454.595 977.327,439.981 981.291,426.944 985.255,415.459 989.219,405.499 993.184,397.365 997.148,455.709 1001.11,515.194 1005.08,572.951 1009.04,628.757 1013,682.512 1016.97,734.13 1020.93,783.536 1024.9,830.664 1028.86,875.46 1032.82,917.877 1036.79,957.881 1040.75,995.443 1044.72,1030.55 1048.68,1063.18 1052.65,1093.01 1056.61,1055.36 1060.57,1015.53 1064.54,976.39 1068.5,938.131 1072.47,900.847 1076.43,864.616 1080.39,829.509 1084.36,795.591 1088.32,762.92 1092.29,731.547 1096.25,701.52 1100.21,672.877 1104.18,645.651 1108.14,619.871 1112.11,595.558 1116.07,572.729 1120.04,551.395 1124,531.562 1127.96,513.231 1131.93,496.729 1135.89,546.735 1139.86,597.939 1143.82,647.494 1147.78,695.2 1151.75,740.979 1155.71,784.764 1159.68,826.5 1163.64,866.138 1167.6,903.64 1171.57,938.643 1175.53,906.439 1179.5,872.309 1183.46,839.077 1187.43,806.921 1191.39,775.903 1195.35,746.076 1199.32,717.483 1203.28,690.165 1207.25,664.156 1211.21,639.815 1215.17,681.853 1219.14,724.989 1223.1,766.407 1227.07,805.936 1231.03,843.524 1234.99,879.131 1238.96,912.727 1242.92,944.289 1246.89,973.8 1250.85,1001.25 1254.82,1026.64 1258.78,1049.97 1262.74,1071.26 1266.71,1090.52 1270.67,1107.77 1274.64,1123.04 1278.6,1136.37 1282.56,1147.8 1286.53,1157.35 1290.49,1165.09 1294.46,1171.06 1298.42,1175.32 1302.38,1177.92 1306.35,1178.93 1310.31,1178.06 1314.28,1110.72 1318.24,1042.24 1322.21,975.546 1326.17,910.871 1330.13,848.345 1334.1,788.078 1338.06,730.166 1342.03,674.697 1345.99,621.744 1349.95,571.372 1353.92,523.634 1357.88,478.572 1361.85,436.218 1365.81,396.594 1369.77,360.046 1373.74,391.264 1377.7,424.944 1381.67,458.244 1385.63,490.964 1389.6,523.019 1393.56,554.334 1397.52,584.842 1401.49,614.479 1405.45,643.188 1409.42,670.915 1413.38,697.614 1417.34,723.242 1421.31,747.762 1425.27,771.144 1429.24,793.359 1433.2,814.385 1437.16,834.206 1441.13,852.807 1445.09,870.181 1449.06,885.99 1453.02,835.549 1456.98,784.158 1460.95,734.654 1464.91,687.226 1468.88,641.944 1472.84,598.863 1476.81,558.029 1480.77,519.477 1484.73,483.236 1488.7,449.326 1492.66,417.757 1496.63,388.532 1500.59,361.649 1504.55,337.094 1508.52,315.183 1512.48,360.576 1516.45,407.945 1520.41,454.424 1524.37,499.792 1528.34,543.613 1532.3,521.113 1536.27,497.507 1540.23,475.549 1544.2,455.353 1548.16,437.246 1552.12,485.901 1556.09,536.001 1560.05,584.694 1564.02,631.773 1567.98,677.15 1571.94,720.752 1575.91,762.514 1579.87,802.381 1583.84,840.303 1587.8,876.241 1591.76,910.163 1595.73,942.046 1599.69,971.872 1603.66,999.631 1607.62,1025.32 1611.59,1048.95 1615.55,1070.52 1619.51,1090.05 1623.48,1107.57 1627.44,1122.76 1631.41,1070.98 1635.37,1017.57 1639.33,965.381 1643.3,914.653 1647.26,865.489 1651.23,817.978 1655.19,772.203 1659.15,728.238 1663.12,686.146 1667.08,646.317 1671.05,673.482 1675.01,702.385 1678.98,730.228 1682.94,756.855 1686.9,782.228 1690.87,806.316 1694.83,829.099 1698.8,850.556 1702.76,870.675 1706.72,889.448 1710.69,906.87 1714.65,922.941 1718.62,937.668 1722.58,951.058 1726.54,962.793 1730.51,908.202 1734.47,852.602 1738.44,798.846 1742.4,747.139 1746.37,697.896 1750.33,715.874 1754.29,735.833 1758.26,754.995 1762.22,773.22 1766.19,790.485 1770.15,806.774 1774.11,822.077 1778.08,836.384 1782.04,849.693 1786.01,862.002 1789.97,873.313 1793.93,883.632 1797.9,892.967 1801.86,901.329 1805.83,908.4 1809.79,849.508 1813.76,789.971 1817.72,732.638 1821.68,677.711 1825.65,625.268 1829.61,575.373 1833.58,528.08 1837.54,483.431 1841.5,441.457 1845.47,402.514 1849.43,431.3 1853.4,462.523 1857.36,493.349 1861.32,523.584 1865.29,552.822 1869.25,516.31 1873.22,479.283 1877.18,444.515 1881.15,412.135 1885.11,382.482 1889.07,420.24 1893.04,460.099 1897,499.213 1900.97,537.378 1904.93,574.174 1908.89,544.841 1912.86,514.609 1916.82,486.243 1920.79,459.869 1924.75,435.493 1928.71,413.109 1932.68,392.707 1936.64,374.268 1940.61,357.771 1944.57,343.188 1948.54,330.486 1952.5,319.627 1956.46,310.571 1960.43,303.271 1964.39,297.678 1968.36,293.74 1972.32,291.401 1976.28,290.603 1980.25,291.283 1984.21,293.713 1988.18,362.512 1992.14,432.318 1996.1,500.232 2000.07,566.007 2004.03,629.187 2008,624.976 2011.96,618.578 2015.93,612.737 2019.89,607.56 2023.85,603.041 2027.82,599.166 2031.78,595.922 2035.75,593.293 2039.71,591.263 2043.67,590.144 2047.64,654.603 2051.6,719.324 2055.57,781.456 2059.53,840.798 2063.49,896.941 2067.46,885.137 2071.42,870.635 2075.39,856.228 2079.35,842.067 2083.32,828.192 2087.28,814.636 2091.24,801.428 2095.21,788.596 2099.17,776.165 2103.14,764.157 2107.1,752.593 2111.06,741.491 2115.03,730.868 2118.99,720.737 2122.96,711.11 2126.92,701.997 2130.88,693.405 2134.85,685.34 2138.81,677.806 2142.78,670.805 2146.74,664.336 2150.7,658.4 2154.67,652.991 2158.63,648.106 2162.6,643.739 2166.56,639.882 2170.53,636.526 2174.49,633.662 2178.45,631.277 2182.42,629.361 2186.38,627.898 2190.35,626.877 2194.31,626.281 2198.27,626.095 2202.24,626.302 2206.2,626.887 2210.17,627.83 2214.13,629.116 2218.09,630.725 2222.06,632.639 2226.02,634.839 2229.99,637.307 2233.95,640.024 2237.92,642.971 2241.88,646.13 2245.84,649.481 2249.81,653.006 2253.77,656.687 2257.74,660.505 2261.7,664.775 2265.66,734.167 2269.63,803.365 2273.59,869.524 2277.56,932.448 2281.52,991.736 2285.48,982.648 2289.45,970.442 2293.41,957.92 "/>
<polyline clip-path="url(#clip342)" style="stroke:#3da44d; stroke-linecap:round; stroke-linejoin:round; stroke-width:4; stroke-opacity:1; fill:none" points="315.32,727.495 319.284,727.495 323.248,759.772 327.212,791.098 331.176,821.199 335.141,849.828 339.105,876.773 343.069,901.858 347.033,924.945 350.997,945.936 354.961,964.777 358.925,981.452 362.889,931.432 366.853,881.236 370.818,831.514 374.782,782.891 378.746,735.953 382.71,755.796 386.674,776.448 390.638,797.779 394.602,819.647 398.566,841.9 402.53,864.379 406.495,886.925 410.459,909.378 414.423,931.581 418.387,953.384 422.351,910.095 426.315,868.04 430.279,827.654 434.243,789.333 438.208,753.421 442.172,784.762 446.136,817.134 450.1,850.158 454.064,883.452 458.028,916.636 461.992,884.786 465.956,854.007 469.92,824.521 473.885,796.521 477.849,770.17 481.813,745.595 485.777,722.891 489.741,702.114 493.705,683.284 497.669,666.387 501.633,715.926 505.597,765.366 509.562,814.044 513.526,861.33 517.49,906.639 521.454,884.882 525.418,862.043 529.382,838.271 533.346,813.731 537.31,788.601 541.275,763.069 545.239,737.331 549.203,711.581 553.167,686.012 557.131,660.812 561.095,700.711 565.059,739.418 569.023,776.532 572.987,811.692 576.952,844.582 580.916,874.939 584.88,902.551 588.844,927.265 592.808,948.988 596.772,967.684 600.736,983.373 604.7,996.134 608.664,1006.1 612.629,1013.44 616.593,1018.38 620.557,1021.18 624.521,1022.13 628.485,1021.54 632.449,1019.75 636.413,1017.11 640.377,1013.96 644.341,1010.65 648.306,1007.51 652.27,1004.87 656.234,1003.02 660.198,1002.23 664.162,1002.74 668.126,1004.77 672.09,1008.46 676.054,1013.96 680.019,1021.34 683.983,1030.65 687.947,1041.88 691.911,1055 695.875,1069.93 699.839,1086.56 703.803,1104.73 707.767,1124.28 711.731,1145.01 715.696,1166.7 719.66,1189.11 723.624,1212.01 727.588,1235.14 731.552,1258.27 735.516,1281.14 739.48,1303.53 743.444,1325.23 747.408,1346.02 751.373,1365.74 755.337,1384.24 759.301,1336.82 763.265,1289.86 767.229,1243.82 771.193,1199.17 775.157,1156.32 779.121,1180.19 783.085,1204.66 787.05,1229.44 791.014,1254.26 794.978,1278.83 798.942,1238.35 802.906,1199 806.87,1161.13 810.834,1125.01 814.798,1090.89 818.763,1123.53 822.727,1156.63 826.691,1189.77 830.655,1222.5 834.619,1254.43 838.583,1220.61 842.547,1187.15 846.511,1154.29 850.475,1122.25 854.44,1091.23 858.404,1125.98 862.368,1160.19 866.332,1193.45 870.296,1225.35 874.26,1255.55 878.224,1219.18 882.188,1182.42 886.152,1145.61 890.117,1109.08 894.081,1073.14 898.045,1102.65 902.009,1131.43 905.973,1159.19 909.937,1185.63 913.901,1210.54 917.865,1233.69 921.829,1254.92 925.794,1274.1 929.758,1291.15 933.722,1306.02 937.686,1254.16 941.65,1202.05 945.614,1150.33 949.578,1099.6 953.542,1050.44 957.507,1003.36 961.471,958.853 965.435,917.324 969.399,879.123 973.363,844.525 977.327,813.73 981.291,786.862 985.255,763.966 989.219,745.012 993.184,729.899 997.148,783.007 1001.11,837.646 1005.08,892.974 1009.04,948.158 1013,1002.39 1016.97,1054.89 1020.93,1104.96 1024.9,1151.95 1028.86,1195.28 1032.82,1234.46 1036.79,1269.11 1040.75,1298.93 1044.72,1323.73 1048.68,1343.42 1052.65,1358.01 1056.61,1303.06 1060.57,1245.21 1064.54,1185.3 1068.5,1124.2 1072.47,1062.76 1076.43,1001.81 1080.39,942.181 1084.36,884.629 1088.32,829.862 1092.29,778.513 1096.25,731.135 1100.21,688.187 1104.18,650.033 1108.14,616.935 1112.11,589.051 1116.07,566.436 1120.04,549.041 1124,536.722 1127.96,529.241 1131.93,526.275 1135.89,591.979 1139.86,659.434 1143.82,727.57 1147.78,795.334 1151.75,861.705 1155.71,925.721 1159.68,986.489 1163.64,1043.2 1167.6,1095.16 1171.57,1141.77 1175.53,1118 1179.5,1089.95 1183.46,1057.98 1187.43,1022.46 1191.39,983.873 1195.35,942.726 1199.32,899.573 1203.28,854.991 1207.25,809.574 1211.21,763.916 1215.17,783.157 1219.14,801.406 1223.1,818.646 1227.07,834.877 1231.03,850.116 1234.99,864.398 1238.96,877.769 1242.92,890.291 1246.89,902.039 1250.85,913.094 1254.82,923.55 1258.78,933.504 1262.74,943.058 1266.71,952.316 1270.67,961.383 1274.64,970.361 1278.6,979.347 1282.56,988.434 1286.53,997.707 1290.49,1007.24 1294.46,1017.1 1298.42,1027.35 1302.38,1038.02 1306.35,1049.15 1310.31,1060.76 1314.28,1008.29 1318.24,958.204 1322.21,911.026 1326.17,867.221 1330.13,827.176 1334.1,791.196 1338.06,759.502 1342.03,732.225 1345.99,709.411 1349.95,691.02 1353.92,676.93 1357.88,666.941 1361.85,660.783 1365.81,658.119 1369.77,658.56 1373.74,726.224 1377.7,794.181 1381.67,861.384 1385.63,926.826 1389.6,989.565 1393.56,1048.73 1397.52,1103.56 1401.49,1153.37 1405.45,1197.62 1409.42,1235.88 1413.38,1267.85 1417.34,1293.35 1421.31,1312.35 1425.27,1324.92 1429.24,1331.28 1433.2,1331.74 1437.16,1326.73 1441.13,1316.76 1445.09,1302.43 1449.06,1284.4 1453.02,1198.82 1456.98,1112.91 1460.95,1027.98 1464.91,945.285 1468.88,866.015 1472.84,791.256 1476.81,721.976 1480.77,659.013 1484.73,603.056 1488.7,554.642 1492.66,514.147 1496.63,481.782 1500.59,457.598 1504.55,441.485 1508.52,433.181 1512.48,496.836 1516.45,565.461 1520.41,637.856 1524.37,712.777 1528.34,788.969 1532.3,800.628 1536.27,812.994 1540.23,825.46 1544.2,837.437 1548.16,848.365 1552.12,922.281 1556.09,992.26 1560.05,1057.34 1564.02,1116.68 1567.98,1169.59 1571.94,1215.49 1575.91,1253.97 1579.87,1284.8 1583.84,1307.86 1587.8,1323.21 1591.76,1331.05 1595.73,1331.73 1599.69,1325.71 1603.66,1313.58 1607.62,1296.02 1611.59,1273.8 1615.55,1247.75 1619.51,1218.76 1623.48,1187.73 1627.44,1155.6 1631.41,1058.72 1635.37,964.441 1639.33,874.149 1643.3,789.13 1647.26,710.524 1651.23,639.32 1655.19,576.331 1659.15,522.192 1663.12,477.345 1667.08,442.042 1671.05,480.897 1675.01,527.328 1678.98,580.479 1682.94,639.382 1686.9,702.986 1690.87,770.173 1694.83,839.786 1698.8,910.65 1702.76,981.6 1706.72,1051.5 1710.69,1119.26 1714.65,1183.88 1718.62,1244.42 1722.58,1300.08 1726.54,1350.14 1730.51,1329.49 1734.47,1304.13 1738.44,1274.33 1742.4,1240.42 1746.37,1202.81 1750.33,1226.53 1754.29,1245.66 1758.26,1260.21 1762.22,1270.29 1766.19,1276.1 1770.15,1277.89 1774.11,1276.01 1778.08,1270.84 1782.04,1262.82 1786.01,1252.45 1789.97,1240.24 1793.93,1226.72 1797.9,1212.42 1801.86,1197.9 1805.83,1183.67 1809.79,1105.67 1813.76,1030.84 1817.72,960.143 1821.68,894.455 1825.65,834.525 1829.61,780.971 1833.58,734.272 1837.54,694.762 1841.5,662.625 1845.47,637.903 1849.43,685.044 1853.4,737.352 1857.36,793.908 1861.32,853.734 1865.29,915.815 1869.25,914.562 1873.22,915.403 1877.18,917.883 1881.15,921.531 1885.11,925.873 1889.07,994.99 1893.04,1061.97 1897,1125.82 1900.97,1185.66 1904.93,1240.67 1908.89,1225.63 1912.86,1206.45 1916.82,1183.24 1920.79,1156.22 1924.75,1125.67 1928.71,1091.93 1932.68,1055.4 1936.64,1016.54 1940.61,975.813 1944.57,933.745 1948.54,890.857 1952.5,847.675 1956.46,804.723 1960.43,762.505 1964.39,721.502 1968.36,682.157 1972.32,644.873 1976.28,610.003 1980.25,577.845 1984.21,548.637 1988.18,587.111 1992.14,626.926 1996.1,667.579 2000.07,708.567 2004.03,749.39 2008,725.007 2011.96,701.413 2015.93,678.73 2019.89,657.06 2023.85,636.486 2027.82,617.069 2031.78,598.851 2035.75,581.85 2039.71,566.064 2043.67,551.469 2047.64,602.575 2051.6,652.866 2055.57,701.713 2059.53,748.532 2063.49,792.793 2067.46,769.473 2071.42,744.631 2075.39,718.494 2079.35,691.311 2083.32,663.35 2087.28,634.886 2091.24,606.199 2095.21,577.571 2099.17,549.275 2103.14,521.571 2107.1,494.706 2111.06,468.903 2115.03,444.363 2118.99,421.255 2122.96,399.723 2126.92,379.873 2130.88,361.782 2134.85,345.488 2138.81,331.001 2142.78,318.292 2146.74,307.305 2150.7,297.951 2154.67,290.115 2158.63,283.66 2162.6,278.427 2166.56,274.238 2170.53,270.905 2174.49,268.23 2178.45,266.01 2182.42,264.043 2186.38,262.128 2190.35,260.073 2194.31,257.696 2198.27,254.828 2202.24,251.319 2206.2,247.037 2210.17,241.872 2214.13,235.735 2218.09,228.562 2222.06,220.315 2226.02,210.977 2229.99,200.558 2233.95,189.091 2237.92,176.627 2241.88,163.242 2245.84,149.027 2249.81,134.088 2253.77,118.547 2257.74,102.534 2261.7,86.1857 2265.66,134.199 2269.63,180.263 2273.59,223.97 2277.56,264.965 2281.52,302.955 2285.48,273.156 2289.45,241.859 2293.41,209.516 "/>
<path clip-path="url(#clip340)" d="M325.87 300.469 L1442.86 300.469 L1442.86 93.1086 L325.87 93.1086  Z" fill="#ffffff" fill-rule="evenodd" fill-opacity="1"/>
<polyline clip-path="url(#clip340)" style="stroke:#000000; stroke-linecap:round; stroke-linejoin:round; stroke-width:4; stroke-opacity:1; fill:none" points="325.87,300.469 1442.86,300.469 1442.86,93.1086 325.87,93.1086 325.87,300.469 "/>
<polyline clip-path="url(#clip340)" style="stroke:#009af9; stroke-linecap:round; stroke-linejoin:round; stroke-width:4; stroke-opacity:1; fill:none" points="349.167,144.949 488.953,144.949 "/>
<path clip-path="url(#clip340)" d="M516.926 131.511 L516.926 158.386 L522.574 158.386 Q529.727 158.386 533.037 155.145 Q536.37 151.905 536.37 144.914 Q536.37 137.969 533.037 134.752 Q529.727 131.511 522.574 131.511 L516.926 131.511 M512.25 127.669 L521.857 127.669 Q531.903 127.669 536.602 131.858 Q541.301 136.025 541.301 144.914 Q541.301 153.849 536.579 158.039 Q531.857 162.229 521.857 162.229 L512.25 162.229 L512.25 127.669 Z" fill="#000000" fill-rule="nonzero" fill-opacity="1" /><path clip-path="url(#clip340)" d="M560.352 149.196 Q555.19 149.196 553.199 150.377 Q551.208 151.557 551.208 154.405 Q551.208 156.673 552.69 158.016 Q554.194 159.335 556.764 159.335 Q560.305 159.335 562.435 156.835 Q564.588 154.312 564.588 150.145 L564.588 149.196 L560.352 149.196 M568.847 147.437 L568.847 162.229 L564.588 162.229 L564.588 158.293 Q563.129 160.655 560.954 161.789 Q558.778 162.9 555.63 162.9 Q551.648 162.9 549.287 160.678 Q546.949 158.432 546.949 154.682 Q546.949 150.307 549.866 148.085 Q552.805 145.863 558.616 145.863 L564.588 145.863 L564.588 145.446 Q564.588 142.507 562.643 140.909 Q560.722 139.289 557.227 139.289 Q555.005 139.289 552.898 139.821 Q550.792 140.354 548.847 141.419 L548.847 137.483 Q551.185 136.581 553.384 136.141 Q555.583 135.678 557.667 135.678 Q563.292 135.678 566.069 138.594 Q568.847 141.511 568.847 147.437 Z" fill="#000000" fill-rule="nonzero" fill-opacity="1" /><path clip-path="url(#clip340)" d="M581.833 128.942 L581.833 136.303 L590.606 136.303 L590.606 139.613 L581.833 139.613 L581.833 153.687 Q581.833 156.858 582.69 157.761 Q583.569 158.664 586.231 158.664 L590.606 158.664 L590.606 162.229 L586.231 162.229 Q581.301 162.229 579.426 160.4 Q577.551 158.548 577.551 153.687 L577.551 139.613 L574.426 139.613 L574.426 136.303 L577.551 136.303 L577.551 128.942 L581.833 128.942 Z" fill="#000000" fill-rule="nonzero" fill-opacity="1" /><path clip-path="url(#clip340)" d="M607.99 149.196 Q602.828 149.196 600.838 150.377 Q598.847 151.557 598.847 154.405 Q598.847 156.673 600.328 158.016 Q601.833 159.335 604.402 159.335 Q607.944 159.335 610.074 156.835 Q612.226 154.312 612.226 150.145 L612.226 149.196 L607.99 149.196 M616.486 147.437 L616.486 162.229 L612.226 162.229 L612.226 158.293 Q610.768 160.655 608.592 161.789 Q606.416 162.9 603.268 162.9 Q599.287 162.9 596.926 160.678 Q594.588 158.432 594.588 154.682 Q594.588 150.307 597.504 148.085 Q600.444 145.863 606.254 145.863 L612.226 145.863 L612.226 145.446 Q612.226 142.507 610.282 140.909 Q608.361 139.289 604.865 139.289 Q602.643 139.289 600.537 139.821 Q598.43 140.354 596.486 141.419 L596.486 137.483 Q598.824 136.581 601.023 136.141 Q603.222 135.678 605.305 135.678 Q610.93 135.678 613.708 138.594 Q616.486 141.511 616.486 147.437 Z" fill="#000000" fill-rule="nonzero" fill-opacity="1" /><polyline clip-path="url(#clip340)" style="stroke:#e26f46; stroke-linecap:round; stroke-linejoin:round; stroke-width:4; stroke-opacity:1; fill:none" points="349.167,196.789 488.953,196.789 "/>
<path clip-path="url(#clip340)" d="M528.083 184.115 L521.741 201.314 L534.449 201.314 L528.083 184.115 M525.445 179.509 L530.745 179.509 L543.917 214.069 L539.056 214.069 L535.907 205.203 L520.329 205.203 L517.181 214.069 L512.25 214.069 L525.445 179.509 Z" fill="#000000" fill-rule="nonzero" fill-opacity="1" /><path clip-path="url(#clip340)" d="M565.352 197.865 Q566.856 198.374 568.268 200.041 Q569.704 201.708 571.139 204.624 L575.884 214.069 L570.861 214.069 L566.44 205.203 Q564.727 201.731 563.106 200.596 Q561.509 199.462 558.731 199.462 L553.639 199.462 L553.639 214.069 L548.963 214.069 L548.963 179.509 L559.518 179.509 Q565.444 179.509 568.361 181.985 Q571.278 184.462 571.278 189.462 Q571.278 192.726 569.75 194.879 Q568.245 197.032 565.352 197.865 M553.639 183.351 L553.639 195.62 L559.518 195.62 Q562.898 195.62 564.611 194.069 Q566.347 192.495 566.347 189.462 Q566.347 186.43 564.611 184.902 Q562.898 183.351 559.518 183.351 L553.639 183.351 Z" fill="#000000" fill-rule="nonzero" fill-opacity="1" /><path clip-path="url(#clip340)" d="M580.236 179.509 L585.259 179.509 L593.847 192.356 L602.481 179.509 L607.504 179.509 L596.393 196.106 L608.245 214.069 L603.222 214.069 L593.5 199.37 L583.708 214.069 L578.662 214.069 L591 195.62 L580.236 179.509 Z" fill="#000000" fill-rule="nonzero" fill-opacity="1" /><path clip-path="url(#clip340)" d="M649.448 193.12 Q651.046 190.249 653.268 188.884 Q655.49 187.518 658.499 187.518 Q662.55 187.518 664.749 190.365 Q666.948 193.189 666.948 198.421 L666.948 214.069 L662.666 214.069 L662.666 198.559 Q662.666 194.833 661.347 193.027 Q660.027 191.222 657.319 191.222 Q654.009 191.222 652.087 193.421 Q650.166 195.62 650.166 199.416 L650.166 214.069 L645.884 214.069 L645.884 198.559 Q645.884 194.809 644.564 193.027 Q643.245 191.222 640.49 191.222 Q637.226 191.222 635.305 193.444 Q633.384 195.643 633.384 199.416 L633.384 214.069 L629.101 214.069 L629.101 188.143 L633.384 188.143 L633.384 192.171 Q634.842 189.786 636.879 188.652 Q638.916 187.518 641.717 187.518 Q644.541 187.518 646.509 188.953 Q648.499 190.388 649.448 193.12 Z" fill="#000000" fill-rule="nonzero" fill-opacity="1" /><path clip-path="url(#clip340)" d="M685.49 191.129 Q682.064 191.129 680.073 193.814 Q678.083 196.476 678.083 201.129 Q678.083 205.782 680.05 208.467 Q682.041 211.129 685.49 211.129 Q688.893 211.129 690.883 208.444 Q692.874 205.758 692.874 201.129 Q692.874 196.522 690.883 193.837 Q688.893 191.129 685.49 191.129 M685.49 187.518 Q691.045 187.518 694.217 191.129 Q697.388 194.74 697.388 201.129 Q697.388 207.495 694.217 211.129 Q691.045 214.74 685.49 214.74 Q679.911 214.74 676.74 211.129 Q673.592 207.495 673.592 201.129 Q673.592 194.74 676.74 191.129 Q679.911 187.518 685.49 187.518 Z" fill="#000000" fill-rule="nonzero" fill-opacity="1" /><path clip-path="url(#clip340)" d="M721.508 192.078 L721.508 178.05 L725.768 178.05 L725.768 214.069 L721.508 214.069 L721.508 210.18 Q720.166 212.495 718.106 213.629 Q716.068 214.74 713.198 214.74 Q708.499 214.74 705.536 210.99 Q702.596 207.24 702.596 201.129 Q702.596 195.018 705.536 191.268 Q708.499 187.518 713.198 187.518 Q716.068 187.518 718.106 188.652 Q720.166 189.763 721.508 192.078 M706.994 201.129 Q706.994 205.828 708.916 208.513 Q710.86 211.175 714.24 211.175 Q717.619 211.175 719.564 208.513 Q721.508 205.828 721.508 201.129 Q721.508 196.43 719.564 193.768 Q717.619 191.083 714.24 191.083 Q710.86 191.083 708.916 193.768 Q706.994 196.43 706.994 201.129 Z" fill="#000000" fill-rule="nonzero" fill-opacity="1" /><path clip-path="url(#clip340)" d="M756.716 200.041 L756.716 202.124 L737.133 202.124 Q737.411 206.522 739.772 208.837 Q742.156 211.129 746.392 211.129 Q748.846 211.129 751.138 210.527 Q753.453 209.925 755.721 208.721 L755.721 212.749 Q753.429 213.721 751.022 214.231 Q748.615 214.74 746.138 214.74 Q739.934 214.74 736.3 211.129 Q732.689 207.518 732.689 201.36 Q732.689 194.995 736.115 191.268 Q739.564 187.518 745.397 187.518 Q750.628 187.518 753.661 190.897 Q756.716 194.254 756.716 200.041 M752.457 198.791 Q752.411 195.296 750.49 193.212 Q748.591 191.129 745.443 191.129 Q741.879 191.129 739.726 193.143 Q737.596 195.157 737.272 198.814 L752.457 198.791 Z" fill="#000000" fill-rule="nonzero" fill-opacity="1" /><path clip-path="url(#clip340)" d="M763.707 178.05 L767.966 178.05 L767.966 214.069 L763.707 214.069 L763.707 178.05 Z" fill="#000000" fill-rule="nonzero" fill-opacity="1" /><path clip-path="url(#clip340)" d="M808.475 188.907 L808.475 192.934 Q806.67 192.009 804.725 191.546 Q802.781 191.083 800.698 191.083 Q797.526 191.083 795.929 192.055 Q794.355 193.027 794.355 194.971 Q794.355 196.453 795.489 197.309 Q796.624 198.143 800.05 198.907 L801.508 199.231 Q806.045 200.203 807.943 201.985 Q809.864 203.745 809.864 206.916 Q809.864 210.527 806.994 212.633 Q804.147 214.74 799.147 214.74 Q797.063 214.74 794.795 214.323 Q792.55 213.93 790.05 213.12 L790.05 208.721 Q792.411 209.948 794.702 210.573 Q796.994 211.175 799.239 211.175 Q802.249 211.175 803.869 210.157 Q805.489 209.115 805.489 207.24 Q805.489 205.504 804.309 204.578 Q803.151 203.652 799.193 202.796 L797.712 202.448 Q793.753 201.615 791.994 199.902 Q790.235 198.166 790.235 195.157 Q790.235 191.499 792.827 189.509 Q795.42 187.518 800.188 187.518 Q802.55 187.518 804.633 187.865 Q806.716 188.212 808.475 188.907 Z" fill="#000000" fill-rule="nonzero" fill-opacity="1" /><path clip-path="url(#clip340)" d="M816.647 188.143 L820.906 188.143 L820.906 214.069 L816.647 214.069 L816.647 188.143 M816.647 178.05 L820.906 178.05 L820.906 183.444 L816.647 183.444 L816.647 178.05 Z" fill="#000000" fill-rule="nonzero" fill-opacity="1" /><path clip-path="url(#clip340)" d="M850.003 193.12 Q851.6 190.249 853.822 188.884 Q856.045 187.518 859.054 187.518 Q863.105 187.518 865.304 190.365 Q867.503 193.189 867.503 198.421 L867.503 214.069 L863.22 214.069 L863.22 198.559 Q863.22 194.833 861.901 193.027 Q860.582 191.222 857.873 191.222 Q854.563 191.222 852.642 193.421 Q850.721 195.62 850.721 199.416 L850.721 214.069 L846.438 214.069 L846.438 198.559 Q846.438 194.809 845.119 193.027 Q843.799 191.222 841.045 191.222 Q837.781 191.222 835.86 193.444 Q833.938 195.643 833.938 199.416 L833.938 214.069 L829.656 214.069 L829.656 188.143 L833.938 188.143 L833.938 192.171 Q835.397 189.786 837.434 188.652 Q839.471 187.518 842.272 187.518 Q845.096 187.518 847.063 188.953 Q849.054 190.388 850.003 193.12 Z" fill="#000000" fill-rule="nonzero" fill-opacity="1" /><path clip-path="url(#clip340)" d="M904.192 178.05 L904.192 181.592 L900.118 181.592 Q897.827 181.592 896.924 182.518 Q896.044 183.444 896.044 185.851 L896.044 188.143 L903.058 188.143 L903.058 191.453 L896.044 191.453 L896.044 214.069 L891.762 214.069 L891.762 191.453 L887.688 191.453 L887.688 188.143 L891.762 188.143 L891.762 186.337 Q891.762 182.009 893.776 180.041 Q895.79 178.05 900.165 178.05 L904.192 178.05 Z" fill="#000000" fill-rule="nonzero" fill-opacity="1" /><path clip-path="url(#clip340)" d="M907.757 188.143 L912.017 188.143 L912.017 214.069 L907.757 214.069 L907.757 188.143 M907.757 178.05 L912.017 178.05 L912.017 183.444 L907.757 183.444 L907.757 178.05 Z" fill="#000000" fill-rule="nonzero" fill-opacity="1" /><path clip-path="url(#clip340)" d="M925.141 180.782 L925.141 188.143 L933.915 188.143 L933.915 191.453 L925.141 191.453 L925.141 205.527 Q925.141 208.698 925.998 209.601 Q926.878 210.504 929.54 210.504 L933.915 210.504 L933.915 214.069 L929.54 214.069 Q924.609 214.069 922.734 212.24 Q920.859 210.388 920.859 205.527 L920.859 191.453 L917.734 191.453 L917.734 188.143 L920.859 188.143 L920.859 180.782 L925.141 180.782 Z" fill="#000000" fill-rule="nonzero" fill-opacity="1" /><path clip-path="url(#clip340)" d="M970.743 208.189 L975.627 208.189 L975.627 214.069 L970.743 214.069 L970.743 208.189 M970.743 189.555 L975.627 189.555 L975.627 195.434 L970.743 195.434 L970.743 189.555 Z" fill="#000000" fill-rule="nonzero" fill-opacity="1" /><path clip-path="url(#clip340)" d="M983.474 199.184 L995.951 199.184 L995.951 202.981 L983.474 202.981 L983.474 199.184 Z" fill="#000000" fill-rule="nonzero" fill-opacity="1" /><path clip-path="url(#clip340)" d="M1007.36 210.133 L1023.68 210.133 L1023.68 214.069 L1001.74 214.069 L1001.74 210.133 Q1004.4 207.379 1008.98 202.749 Q1013.59 198.096 1014.77 196.754 Q1017.02 194.231 1017.9 192.495 Q1018.8 190.735 1018.8 189.046 Q1018.8 186.291 1016.85 184.555 Q1014.93 182.819 1011.83 182.819 Q1009.63 182.819 1007.18 183.583 Q1004.75 184.347 1001.97 185.897 L1001.97 181.175 Q1004.79 180.041 1007.25 179.462 Q1009.7 178.884 1011.74 178.884 Q1017.11 178.884 1020.3 181.569 Q1023.5 184.254 1023.5 188.745 Q1023.5 190.874 1022.69 192.796 Q1021.9 194.694 1019.79 197.286 Q1019.22 197.958 1016.11 201.175 Q1013.01 204.37 1007.36 210.133 Z" fill="#000000" fill-rule="nonzero" fill-opacity="1" /><path clip-path="url(#clip340)" d="M1033.54 179.509 L1051.9 179.509 L1051.9 183.444 L1037.83 183.444 L1037.83 191.916 Q1038.84 191.569 1039.86 191.407 Q1040.88 191.222 1041.9 191.222 Q1047.69 191.222 1051.07 194.393 Q1054.45 197.564 1054.45 202.981 Q1054.45 208.559 1050.97 211.661 Q1047.5 214.74 1041.18 214.74 Q1039.01 214.74 1036.74 214.37 Q1034.49 213.999 1032.09 213.258 L1032.09 208.559 Q1034.17 209.694 1036.39 210.249 Q1038.61 210.805 1041.09 210.805 Q1045.09 210.805 1047.43 208.698 Q1049.77 206.592 1049.77 202.981 Q1049.77 199.37 1047.43 197.263 Q1045.09 195.157 1041.09 195.157 Q1039.21 195.157 1037.34 195.573 Q1035.49 195.99 1033.54 196.87 L1033.54 179.509 Z" fill="#000000" fill-rule="nonzero" fill-opacity="1" /><path clip-path="url(#clip340)" d="M1063.66 208.189 L1068.54 208.189 L1068.54 214.069 L1063.66 214.069 L1063.66 208.189 Z" fill="#000000" fill-rule="nonzero" fill-opacity="1" /><path clip-path="url(#clip340)" d="M1079.54 210.133 L1087.18 210.133 L1087.18 183.768 L1078.87 185.435 L1078.87 181.175 L1087.13 179.509 L1091.81 179.509 L1091.81 210.133 L1099.45 210.133 L1099.45 214.069 L1079.54 214.069 L1079.54 210.133 Z" fill="#000000" fill-rule="nonzero" fill-opacity="1" /><path clip-path="url(#clip340)" d="M1123.06 195.434 Q1126.41 196.152 1128.29 198.421 Q1130.19 200.689 1130.19 204.022 Q1130.19 209.138 1126.67 211.939 Q1123.15 214.74 1116.67 214.74 Q1114.49 214.74 1112.18 214.3 Q1109.89 213.883 1107.43 213.027 L1107.43 208.513 Q1109.38 209.647 1111.69 210.226 Q1114.01 210.805 1116.53 210.805 Q1120.93 210.805 1123.22 209.069 Q1125.53 207.333 1125.53 204.022 Q1125.53 200.967 1123.38 199.254 Q1121.25 197.518 1117.43 197.518 L1113.4 197.518 L1113.4 193.675 L1117.62 193.675 Q1121.07 193.675 1122.9 192.309 Q1124.72 190.921 1124.72 188.328 Q1124.72 185.666 1122.83 184.254 Q1120.95 182.819 1117.43 182.819 Q1115.51 182.819 1113.31 183.235 Q1111.11 183.652 1108.47 184.532 L1108.47 180.365 Q1111.14 179.624 1113.45 179.254 Q1115.79 178.884 1117.85 178.884 Q1123.17 178.884 1126.27 181.314 Q1129.38 183.722 1129.38 187.842 Q1129.38 190.712 1127.73 192.703 Q1126.09 194.671 1123.06 195.434 Z" fill="#000000" fill-rule="nonzero" fill-opacity="1" /><path clip-path="url(#clip340)" d="M1168.45 198.86 Q1166.44 198.86 1165.28 200.573 Q1164.14 202.286 1164.14 205.342 Q1164.14 208.351 1165.28 210.087 Q1166.44 211.8 1168.45 211.8 Q1170.42 211.8 1171.55 210.087 Q1172.71 208.351 1172.71 205.342 Q1172.71 202.309 1171.55 200.596 Q1170.42 198.86 1168.45 198.86 M1168.45 195.921 Q1172.11 195.921 1174.26 198.467 Q1176.41 201.013 1176.41 205.342 Q1176.41 209.67 1174.24 212.217 Q1172.08 214.74 1168.45 214.74 Q1164.75 214.74 1162.59 212.217 Q1160.44 209.67 1160.44 205.342 Q1160.44 200.99 1162.59 198.467 Q1164.77 195.921 1168.45 195.921 M1144.56 181.823 Q1142.57 181.823 1141.41 183.56 Q1140.28 185.272 1140.28 188.282 Q1140.28 191.337 1141.41 193.05 Q1142.55 194.763 1144.56 194.763 Q1146.58 194.763 1147.71 193.05 Q1148.87 191.337 1148.87 188.282 Q1148.87 185.296 1147.71 183.56 Q1146.55 181.823 1144.56 181.823 M1165.46 178.884 L1169.17 178.884 L1147.55 214.74 L1143.84 214.74 L1165.46 178.884 M1144.56 178.884 Q1148.22 178.884 1150.39 181.43 Q1152.57 183.953 1152.57 188.282 Q1152.57 192.657 1150.39 195.18 Q1148.24 197.703 1144.56 197.703 Q1140.88 197.703 1138.73 195.18 Q1136.6 192.634 1136.6 188.282 Q1136.6 183.976 1138.75 181.43 Q1140.9 178.884 1144.56 178.884 Z" fill="#000000" fill-rule="nonzero" fill-opacity="1" /><polyline clip-path="url(#clip340)" style="stroke:#3da44d; stroke-linecap:round; stroke-linejoin:round; stroke-width:4; stroke-opacity:1; fill:none" points="349.167,248.629 488.953,248.629 "/>
<path clip-path="url(#clip340)" d="M528.083 235.955 L521.741 253.154 L534.449 253.154 L528.083 235.955 M525.445 231.349 L530.745 231.349 L543.917 265.909 L539.056 265.909 L535.907 257.043 L520.329 257.043 L517.181 265.909 L512.25 265.909 L525.445 231.349 Z" fill="#000000" fill-rule="nonzero" fill-opacity="1" /><path clip-path="url(#clip340)" d="M565.352 249.705 Q566.856 250.214 568.268 251.881 Q569.704 253.548 571.139 256.464 L575.884 265.909 L570.861 265.909 L566.44 257.043 Q564.727 253.571 563.106 252.436 Q561.509 251.302 558.731 251.302 L553.639 251.302 L553.639 265.909 L548.963 265.909 L548.963 231.349 L559.518 231.349 Q565.444 231.349 568.361 233.825 Q571.278 236.302 571.278 241.302 Q571.278 244.566 569.75 246.719 Q568.245 248.872 565.352 249.705 M553.639 235.191 L553.639 247.46 L559.518 247.46 Q562.898 247.46 564.611 245.909 Q566.347 244.335 566.347 241.302 Q566.347 238.27 564.611 236.742 Q562.898 235.191 559.518 235.191 L553.639 235.191 Z" fill="#000000" fill-rule="nonzero" fill-opacity="1" /><path clip-path="url(#clip340)" d="M580.236 231.349 L585.259 231.349 L593.847 244.196 L602.481 231.349 L607.504 231.349 L596.393 247.946 L608.245 265.909 L603.222 265.909 L593.5 251.21 L583.708 265.909 L578.662 265.909 L591 247.46 L580.236 231.349 Z" fill="#000000" fill-rule="nonzero" fill-opacity="1" /><path clip-path="url(#clip340)" d="M649.448 244.96 Q651.046 242.089 653.268 240.724 Q655.49 239.358 658.499 239.358 Q662.55 239.358 664.749 242.205 Q666.948 245.029 666.948 250.261 L666.948 265.909 L662.666 265.909 L662.666 250.399 Q662.666 246.673 661.347 244.867 Q660.027 243.062 657.319 243.062 Q654.009 243.062 652.087 245.261 Q650.166 247.46 650.166 251.256 L650.166 265.909 L645.884 265.909 L645.884 250.399 Q645.884 246.649 644.564 244.867 Q643.245 243.062 640.49 243.062 Q637.226 243.062 635.305 245.284 Q633.384 247.483 633.384 251.256 L633.384 265.909 L629.101 265.909 L629.101 239.983 L633.384 239.983 L633.384 244.011 Q634.842 241.626 636.879 240.492 Q638.916 239.358 641.717 239.358 Q644.541 239.358 646.509 240.793 Q648.499 242.228 649.448 244.96 Z" fill="#000000" fill-rule="nonzero" fill-opacity="1" /><path clip-path="url(#clip340)" d="M685.49 242.969 Q682.064 242.969 680.073 245.654 Q678.083 248.316 678.083 252.969 Q678.083 257.622 680.05 260.307 Q682.041 262.969 685.49 262.969 Q688.893 262.969 690.883 260.284 Q692.874 257.598 692.874 252.969 Q692.874 248.362 690.883 245.677 Q688.893 242.969 685.49 242.969 M685.49 239.358 Q691.045 239.358 694.217 242.969 Q697.388 246.58 697.388 252.969 Q697.388 259.335 694.217 262.969 Q691.045 266.58 685.49 266.58 Q679.911 266.58 676.74 262.969 Q673.592 259.335 673.592 252.969 Q673.592 246.58 676.74 242.969 Q679.911 239.358 685.49 239.358 Z" fill="#000000" fill-rule="nonzero" fill-opacity="1" /><path clip-path="url(#clip340)" d="M721.508 243.918 L721.508 229.89 L725.768 229.89 L725.768 265.909 L721.508 265.909 L721.508 262.02 Q720.166 264.335 718.106 265.469 Q716.068 266.58 713.198 266.58 Q708.499 266.58 705.536 262.83 Q702.596 259.08 702.596 252.969 Q702.596 246.858 705.536 243.108 Q708.499 239.358 713.198 239.358 Q716.068 239.358 718.106 240.492 Q720.166 241.603 721.508 243.918 M706.994 252.969 Q706.994 257.668 708.916 260.353 Q710.86 263.015 714.24 263.015 Q717.619 263.015 719.564 260.353 Q721.508 257.668 721.508 252.969 Q721.508 248.27 719.564 245.608 Q717.619 242.923 714.24 242.923 Q710.86 242.923 708.916 245.608 Q706.994 248.27 706.994 252.969 Z" fill="#000000" fill-rule="nonzero" fill-opacity="1" /><path clip-path="url(#clip340)" d="M756.716 251.881 L756.716 253.964 L737.133 253.964 Q737.411 258.362 739.772 260.677 Q742.156 262.969 746.392 262.969 Q748.846 262.969 751.138 262.367 Q753.453 261.765 755.721 260.561 L755.721 264.589 Q753.429 265.561 751.022 266.071 Q748.615 266.58 746.138 266.58 Q739.934 266.58 736.3 262.969 Q732.689 259.358 732.689 253.2 Q732.689 246.835 736.115 243.108 Q739.564 239.358 745.397 239.358 Q750.628 239.358 753.661 242.737 Q756.716 246.094 756.716 251.881 M752.457 250.631 Q752.411 247.136 750.49 245.052 Q748.591 242.969 745.443 242.969 Q741.879 242.969 739.726 244.983 Q737.596 246.997 737.272 250.654 L752.457 250.631 Z" fill="#000000" fill-rule="nonzero" fill-opacity="1" /><path clip-path="url(#clip340)" d="M763.707 229.89 L767.966 229.89 L767.966 265.909 L763.707 265.909 L763.707 229.89 Z" fill="#000000" fill-rule="nonzero" fill-opacity="1" /><path clip-path="url(#clip340)" d="M789.471 239.983 L793.73 239.983 L799.054 260.214 L804.355 239.983 L809.378 239.983 L814.702 260.214 L820.003 239.983 L824.262 239.983 L817.48 265.909 L812.457 265.909 L806.878 244.659 L801.276 265.909 L796.253 265.909 L789.471 239.983 Z" fill="#000000" fill-rule="nonzero" fill-opacity="1" /><path clip-path="url(#clip340)" d="M830.721 239.983 L834.98 239.983 L834.98 265.909 L830.721 265.909 L830.721 239.983 M830.721 229.89 L834.98 229.89 L834.98 235.284 L830.721 235.284 L830.721 229.89 Z" fill="#000000" fill-rule="nonzero" fill-opacity="1" /><path clip-path="url(#clip340)" d="M848.105 232.622 L848.105 239.983 L856.878 239.983 L856.878 243.293 L848.105 243.293 L848.105 257.367 Q848.105 260.538 848.961 261.441 Q849.841 262.344 852.503 262.344 L856.878 262.344 L856.878 265.909 L852.503 265.909 Q847.572 265.909 845.697 264.08 Q843.822 262.228 843.822 257.367 L843.822 243.293 L840.697 243.293 L840.697 239.983 L843.822 239.983 L843.822 232.622 L848.105 232.622 Z" fill="#000000" fill-rule="nonzero" fill-opacity="1" /><path clip-path="url(#clip340)" d="M884.031 250.261 L884.031 265.909 L879.771 265.909 L879.771 250.399 Q879.771 246.719 878.336 244.89 Q876.901 243.062 874.031 243.062 Q870.582 243.062 868.591 245.261 Q866.6 247.46 866.6 251.256 L866.6 265.909 L862.318 265.909 L862.318 229.89 L866.6 229.89 L866.6 244.011 Q868.128 241.673 870.188 240.515 Q872.271 239.358 874.98 239.358 Q879.447 239.358 881.739 242.136 Q884.031 244.89 884.031 250.261 Z" fill="#000000" fill-rule="nonzero" fill-opacity="1" /><path clip-path="url(#clip340)" d="M924.655 243.918 L924.655 229.89 L928.915 229.89 L928.915 265.909 L924.655 265.909 L924.655 262.02 Q923.313 264.335 921.253 265.469 Q919.216 266.58 916.345 266.58 Q911.646 266.58 908.683 262.83 Q905.743 259.08 905.743 252.969 Q905.743 246.858 908.683 243.108 Q911.646 239.358 916.345 239.358 Q919.216 239.358 921.253 240.492 Q923.313 241.603 924.655 243.918 M910.142 252.969 Q910.142 257.668 912.063 260.353 Q914.007 263.015 917.387 263.015 Q920.766 263.015 922.711 260.353 Q924.655 257.668 924.655 252.969 Q924.655 248.27 922.711 245.608 Q920.766 242.923 917.387 242.923 Q914.007 242.923 912.063 245.608 Q910.142 248.27 910.142 252.969 Z" fill="#000000" fill-rule="nonzero" fill-opacity="1" /><path clip-path="url(#clip340)" d="M959.863 251.881 L959.863 253.964 L940.28 253.964 Q940.558 258.362 942.919 260.677 Q945.303 262.969 949.539 262.969 Q951.993 262.969 954.285 262.367 Q956.6 261.765 958.868 260.561 L958.868 264.589 Q956.576 265.561 954.169 266.071 Q951.762 266.58 949.285 266.58 Q943.081 266.58 939.447 262.969 Q935.836 259.358 935.836 253.2 Q935.836 246.835 939.262 243.108 Q942.711 239.358 948.544 239.358 Q953.776 239.358 956.808 242.737 Q959.863 246.094 959.863 251.881 M955.604 250.631 Q955.558 247.136 953.637 245.052 Q951.739 242.969 948.59 242.969 Q945.026 242.969 942.873 244.983 Q940.743 246.997 940.419 250.654 L955.604 250.631 Z" fill="#000000" fill-rule="nonzero" fill-opacity="1" /><path clip-path="url(#clip340)" d="M966.854 229.89 L971.113 229.89 L971.113 265.909 L966.854 265.909 L966.854 229.89 Z" fill="#000000" fill-rule="nonzero" fill-opacity="1" /><path clip-path="url(#clip340)" d="M991.808 252.876 Q986.646 252.876 984.655 254.057 Q982.664 255.237 982.664 258.085 Q982.664 260.353 984.146 261.696 Q985.65 263.015 988.22 263.015 Q991.761 263.015 993.891 260.515 Q996.044 257.992 996.044 253.825 L996.044 252.876 L991.808 252.876 M1000.3 251.117 L1000.3 265.909 L996.044 265.909 L996.044 261.973 Q994.586 264.335 992.41 265.469 Q990.234 266.58 987.086 266.58 Q983.104 266.58 980.743 264.358 Q978.405 262.112 978.405 258.362 Q978.405 253.987 981.322 251.765 Q984.261 249.543 990.072 249.543 L996.044 249.543 L996.044 249.126 Q996.044 246.187 994.099 244.589 Q992.178 242.969 988.683 242.969 Q986.461 242.969 984.354 243.501 Q982.248 244.034 980.303 245.099 L980.303 241.163 Q982.641 240.261 984.84 239.821 Q987.039 239.358 989.123 239.358 Q994.748 239.358 997.525 242.274 Q1000.3 245.191 1000.3 251.117 Z" fill="#000000" fill-rule="nonzero" fill-opacity="1" /><path clip-path="url(#clip340)" d="M1019.86 268.316 Q1018.06 272.946 1016.34 274.358 Q1014.63 275.77 1011.76 275.77 L1008.36 275.77 L1008.36 272.205 L1010.86 272.205 Q1012.62 272.205 1013.59 271.372 Q1014.56 270.538 1015.74 267.436 L1016.51 265.492 L1006.02 239.983 L1010.53 239.983 L1018.64 260.261 L1026.74 239.983 L1031.25 239.983 L1019.86 268.316 Z" fill="#000000" fill-rule="nonzero" fill-opacity="1" /><path clip-path="url(#clip340)" d="M1068.73 240.747 L1068.73 244.774 Q1066.92 243.849 1064.98 243.386 Q1063.03 242.923 1060.95 242.923 Q1057.78 242.923 1056.18 243.895 Q1054.61 244.867 1054.61 246.811 Q1054.61 248.293 1055.74 249.149 Q1056.88 249.983 1060.3 250.747 L1061.76 251.071 Q1066.3 252.043 1068.2 253.825 Q1070.12 255.585 1070.12 258.756 Q1070.12 262.367 1067.25 264.473 Q1064.4 266.58 1059.4 266.58 Q1057.32 266.58 1055.05 266.163 Q1052.8 265.77 1050.3 264.96 L1050.3 260.561 Q1052.66 261.788 1054.96 262.413 Q1057.25 263.015 1059.49 263.015 Q1062.5 263.015 1064.12 261.997 Q1065.74 260.955 1065.74 259.08 Q1065.74 257.344 1064.56 256.418 Q1063.4 255.492 1059.45 254.636 L1057.96 254.288 Q1054.01 253.455 1052.25 251.742 Q1050.49 250.006 1050.49 246.997 Q1050.49 243.339 1053.08 241.349 Q1055.67 239.358 1060.44 239.358 Q1062.8 239.358 1064.89 239.705 Q1066.97 240.052 1068.73 240.747 Z" fill="#000000" fill-rule="nonzero" fill-opacity="1" /><path clip-path="url(#clip340)" d="M1076.9 239.983 L1081.16 239.983 L1081.16 265.909 L1076.9 265.909 L1076.9 239.983 M1076.9 229.89 L1081.16 229.89 L1081.16 235.284 L1076.9 235.284 L1076.9 229.89 Z" fill="#000000" fill-rule="nonzero" fill-opacity="1" /><path clip-path="url(#clip340)" d="M1110.26 244.96 Q1111.85 242.089 1114.08 240.724 Q1116.3 239.358 1119.31 239.358 Q1123.36 239.358 1125.56 242.205 Q1127.76 245.029 1127.76 250.261 L1127.76 265.909 L1123.47 265.909 L1123.47 250.399 Q1123.47 246.673 1122.15 244.867 Q1120.83 243.062 1118.13 243.062 Q1114.82 243.062 1112.9 245.261 Q1110.97 247.46 1110.97 251.256 L1110.97 265.909 L1106.69 265.909 L1106.69 250.399 Q1106.69 246.649 1105.37 244.867 Q1104.05 243.062 1101.3 243.062 Q1098.03 243.062 1096.11 245.284 Q1094.19 247.483 1094.19 251.256 L1094.19 265.909 L1089.91 265.909 L1089.91 239.983 L1094.19 239.983 L1094.19 244.011 Q1095.65 241.626 1097.69 240.492 Q1099.72 239.358 1102.52 239.358 Q1105.35 239.358 1107.32 240.793 Q1109.31 242.228 1110.26 244.96 Z" fill="#000000" fill-rule="nonzero" fill-opacity="1" /><path clip-path="url(#clip340)" d="M1164.45 229.89 L1164.45 233.432 L1160.37 233.432 Q1158.08 233.432 1157.18 234.358 Q1156.3 235.284 1156.3 237.691 L1156.3 239.983 L1163.31 239.983 L1163.31 243.293 L1156.3 243.293 L1156.3 265.909 L1152.02 265.909 L1152.02 243.293 L1147.94 243.293 L1147.94 239.983 L1152.02 239.983 L1152.02 238.177 Q1152.02 233.849 1154.03 231.881 Q1156.04 229.89 1160.42 229.89 L1164.45 229.89 Z" fill="#000000" fill-rule="nonzero" fill-opacity="1" /><path clip-path="url(#clip340)" d="M1168.01 239.983 L1172.27 239.983 L1172.27 265.909 L1168.01 265.909 L1168.01 239.983 M1168.01 229.89 L1172.27 229.89 L1172.27 235.284 L1168.01 235.284 L1168.01 229.89 Z" fill="#000000" fill-rule="nonzero" fill-opacity="1" /><path clip-path="url(#clip340)" d="M1185.39 232.622 L1185.39 239.983 L1194.17 239.983 L1194.17 243.293 L1185.39 243.293 L1185.39 257.367 Q1185.39 260.538 1186.25 261.441 Q1187.13 262.344 1189.79 262.344 L1194.17 262.344 L1194.17 265.909 L1189.79 265.909 Q1184.86 265.909 1182.99 264.08 Q1181.11 262.228 1181.11 257.367 L1181.11 243.293 L1177.99 243.293 L1177.99 239.983 L1181.11 239.983 L1181.11 232.622 L1185.39 232.622 Z" fill="#000000" fill-rule="nonzero" fill-opacity="1" /><path clip-path="url(#clip340)" d="M1231 260.029 L1235.88 260.029 L1235.88 265.909 L1231 265.909 L1231 260.029 M1231 241.395 L1235.88 241.395 L1235.88 247.274 L1231 247.274 L1231 241.395 Z" fill="#000000" fill-rule="nonzero" fill-opacity="1" /><path clip-path="url(#clip340)" d="M1247.29 261.973 L1254.93 261.973 L1254.93 235.608 L1246.62 237.275 L1246.62 233.015 L1254.89 231.349 L1259.56 231.349 L1259.56 261.973 L1267.2 261.973 L1267.2 265.909 L1247.29 265.909 L1247.29 261.973 Z" fill="#000000" fill-rule="nonzero" fill-opacity="1" /><path clip-path="url(#clip340)" d="M1286.64 234.427 Q1283.03 234.427 1281.2 237.992 Q1279.4 241.534 1279.4 248.663 Q1279.4 255.77 1281.2 259.335 Q1283.03 262.876 1286.64 262.876 Q1290.28 262.876 1292.08 259.335 Q1293.91 255.77 1293.91 248.663 Q1293.91 241.534 1292.08 237.992 Q1290.28 234.427 1286.64 234.427 M1286.64 230.724 Q1292.45 230.724 1295.51 235.33 Q1298.59 239.913 1298.59 248.663 Q1298.59 257.39 1295.51 261.997 Q1292.45 266.58 1286.64 266.58 Q1280.83 266.58 1277.76 261.997 Q1274.7 257.39 1274.7 248.663 Q1274.7 239.913 1277.76 235.33 Q1280.83 230.724 1286.64 230.724 Z" fill="#000000" fill-rule="nonzero" fill-opacity="1" /><path clip-path="url(#clip340)" d="M1316.81 234.427 Q1313.19 234.427 1311.37 237.992 Q1309.56 241.534 1309.56 248.663 Q1309.56 255.77 1311.37 259.335 Q1313.19 262.876 1316.81 262.876 Q1320.44 262.876 1322.25 259.335 Q1324.07 255.77 1324.07 248.663 Q1324.07 241.534 1322.25 237.992 Q1320.44 234.427 1316.81 234.427 M1316.81 230.724 Q1322.62 230.724 1325.67 235.33 Q1328.75 239.913 1328.75 248.663 Q1328.75 257.39 1325.67 261.997 Q1322.62 266.58 1316.81 266.58 Q1311 266.58 1307.92 261.997 Q1304.86 257.39 1304.86 248.663 Q1304.86 239.913 1307.92 235.33 Q1311 230.724 1316.81 230.724 Z" fill="#000000" fill-rule="nonzero" fill-opacity="1" /><path clip-path="url(#clip340)" d="M1336.97 260.029 L1341.85 260.029 L1341.85 265.909 L1336.97 265.909 L1336.97 260.029 Z" fill="#000000" fill-rule="nonzero" fill-opacity="1" /><path clip-path="url(#clip340)" d="M1362.04 234.427 Q1358.43 234.427 1356.6 237.992 Q1354.79 241.534 1354.79 248.663 Q1354.79 255.77 1356.6 259.335 Q1358.43 262.876 1362.04 262.876 Q1365.67 262.876 1367.48 259.335 Q1369.31 255.77 1369.31 248.663 Q1369.31 241.534 1367.48 237.992 Q1365.67 234.427 1362.04 234.427 M1362.04 230.724 Q1367.85 230.724 1370.9 235.33 Q1373.98 239.913 1373.98 248.663 Q1373.98 257.39 1370.9 261.997 Q1367.85 266.58 1362.04 266.58 Q1356.23 266.58 1353.15 261.997 Q1350.09 257.39 1350.09 248.663 Q1350.09 239.913 1353.15 235.33 Q1356.23 230.724 1362.04 230.724 Z" fill="#000000" fill-rule="nonzero" fill-opacity="1" /><path clip-path="url(#clip340)" d="M1411.6 250.7 Q1409.58 250.7 1408.43 252.413 Q1407.29 254.126 1407.29 257.182 Q1407.29 260.191 1408.43 261.927 Q1409.58 263.64 1411.6 263.64 Q1413.56 263.64 1414.7 261.927 Q1415.86 260.191 1415.86 257.182 Q1415.86 254.149 1414.7 252.436 Q1413.56 250.7 1411.6 250.7 M1411.6 247.761 Q1415.25 247.761 1417.41 250.307 Q1419.56 252.853 1419.56 257.182 Q1419.56 261.51 1417.38 264.057 Q1415.23 266.58 1411.6 266.58 Q1407.89 266.58 1405.74 264.057 Q1403.59 261.51 1403.59 257.182 Q1403.59 252.83 1405.74 250.307 Q1407.92 247.761 1411.6 247.761 M1387.71 233.663 Q1385.72 233.663 1384.56 235.4 Q1383.43 237.112 1383.43 240.122 Q1383.43 243.177 1384.56 244.89 Q1385.69 246.603 1387.71 246.603 Q1389.72 246.603 1390.86 244.89 Q1392.01 243.177 1392.01 240.122 Q1392.01 237.136 1390.86 235.4 Q1389.7 233.663 1387.71 233.663 M1408.61 230.724 L1412.31 230.724 L1390.69 266.58 L1386.99 266.58 L1408.61 230.724 M1387.71 230.724 Q1391.37 230.724 1393.54 233.27 Q1395.72 235.793 1395.72 240.122 Q1395.72 244.497 1393.54 247.02 Q1391.39 249.543 1387.71 249.543 Q1384.03 249.543 1381.88 247.02 Q1379.75 244.474 1379.75 240.122 Q1379.75 235.816 1381.9 233.27 Q1384.05 230.724 1387.71 230.724 Z" fill="#000000" fill-rule="nonzero" fill-opacity="1" /></svg>
