<?xml version="1.0" encoding="utf-8"?>
<svg xmlns="http://www.w3.org/2000/svg" xmlns:xlink="http://www.w3.org/1999/xlink" width="600" height="400" viewBox="0 0 2400 1600">
<defs>
  <clipPath id="clip740">
    <rect x="0" y="0" width="2400" height="1600"/>
  </clipPath>
</defs>
<path clip-path="url(#clip740)" d="M0 1600 L2400 1600 L2400 0 L0 0  Z" fill="#ffffff" fill-rule="evenodd" fill-opacity="1"/>
<defs>
  <clipPath id="clip741">
    <rect x="480" y="0" width="1681" height="1600"/>
  </clipPath>
</defs>
<path clip-path="url(#clip740)" d="M287.366 623.18 L2352.76 623.18 L2352.76 47.2441 L287.366 47.2441  Z" fill="#ffffff" fill-rule="evenodd" fill-opacity="1"/>
<defs>
  <clipPath id="clip742">
    <rect x="287" y="47" width="2066" height="577"/>
  </clipPath>
</defs>
<polyline clip-path="url(#clip742)" style="stroke:#000000; stroke-linecap:round; stroke-linejoin:round; stroke-width:2; stroke-opacity:0.1; fill:none" points="345.82,623.18 345.82,47.2441 "/>
<polyline clip-path="url(#clip742)" style="stroke:#000000; stroke-linecap:round; stroke-linejoin:round; stroke-width:2; stroke-opacity:0.1; fill:none" points="736.298,623.18 736.298,47.2441 "/>
<polyline clip-path="url(#clip742)" style="stroke:#000000; stroke-linecap:round; stroke-linejoin:round; stroke-width:2; stroke-opacity:0.1; fill:none" points="1126.77,623.18 1126.77,47.2441 "/>
<polyline clip-path="url(#clip742)" style="stroke:#000000; stroke-linecap:round; stroke-linejoin:round; stroke-width:2; stroke-opacity:0.1; fill:none" points="1517.25,623.18 1517.25,47.2441 "/>
<polyline clip-path="url(#clip742)" style="stroke:#000000; stroke-linecap:round; stroke-linejoin:round; stroke-width:2; stroke-opacity:0.1; fill:none" points="1907.73,623.18 1907.73,47.2441 "/>
<polyline clip-path="url(#clip742)" style="stroke:#000000; stroke-linecap:round; stroke-linejoin:round; stroke-width:2; stroke-opacity:0.1; fill:none" points="2298.21,623.18 2298.21,47.2441 "/>
<polyline clip-path="url(#clip742)" style="stroke:#000000; stroke-linecap:round; stroke-linejoin:round; stroke-width:2; stroke-opacity:0.1; fill:none" points="287.366,585.356 2352.76,585.356 "/>
<polyline clip-path="url(#clip742)" style="stroke:#000000; stroke-linecap:round; stroke-linejoin:round; stroke-width:2; stroke-opacity:0.1; fill:none" points="287.366,506.478 2352.76,506.478 "/>
<polyline clip-path="url(#clip742)" style="stroke:#000000; stroke-linecap:round; stroke-linejoin:round; stroke-width:2; stroke-opacity:0.1; fill:none" points="287.366,427.601 2352.76,427.601 "/>
<polyline clip-path="url(#clip742)" style="stroke:#000000; stroke-linecap:round; stroke-linejoin:round; stroke-width:2; stroke-opacity:0.1; fill:none" points="287.366,348.723 2352.76,348.723 "/>
<polyline clip-path="url(#clip742)" style="stroke:#000000; stroke-linecap:round; stroke-linejoin:round; stroke-width:2; stroke-opacity:0.1; fill:none" points="287.366,269.845 2352.76,269.845 "/>
<polyline clip-path="url(#clip742)" style="stroke:#000000; stroke-linecap:round; stroke-linejoin:round; stroke-width:2; stroke-opacity:0.1; fill:none" points="287.366,190.968 2352.76,190.968 "/>
<polyline clip-path="url(#clip742)" style="stroke:#000000; stroke-linecap:round; stroke-linejoin:round; stroke-width:2; stroke-opacity:0.1; fill:none" points="287.366,112.09 2352.76,112.09 "/>
<polyline clip-path="url(#clip740)" style="stroke:#000000; stroke-linecap:round; stroke-linejoin:round; stroke-width:4; stroke-opacity:1; fill:none" points="287.366,623.18 2352.76,623.18 "/>
<polyline clip-path="url(#clip740)" style="stroke:#000000; stroke-linecap:round; stroke-linejoin:round; stroke-width:4; stroke-opacity:1; fill:none" points="345.82,623.18 345.82,604.282 "/>
<polyline clip-path="url(#clip740)" style="stroke:#000000; stroke-linecap:round; stroke-linejoin:round; stroke-width:4; stroke-opacity:1; fill:none" points="736.298,623.18 736.298,604.282 "/>
<polyline clip-path="url(#clip740)" style="stroke:#000000; stroke-linecap:round; stroke-linejoin:round; stroke-width:4; stroke-opacity:1; fill:none" points="1126.77,623.18 1126.77,604.282 "/>
<polyline clip-path="url(#clip740)" style="stroke:#000000; stroke-linecap:round; stroke-linejoin:round; stroke-width:4; stroke-opacity:1; fill:none" points="1517.25,623.18 1517.25,604.282 "/>
<polyline clip-path="url(#clip740)" style="stroke:#000000; stroke-linecap:round; stroke-linejoin:round; stroke-width:4; stroke-opacity:1; fill:none" points="1907.73,623.18 1907.73,604.282 "/>
<polyline clip-path="url(#clip740)" style="stroke:#000000; stroke-linecap:round; stroke-linejoin:round; stroke-width:4; stroke-opacity:1; fill:none" points="2298.21,623.18 2298.21,604.282 "/>
<path clip-path="url(#clip740)" d="M345.82 654.099 Q342.209 654.099 340.381 657.663 Q338.575 661.205 338.575 668.335 Q338.575 675.441 340.381 679.006 Q342.209 682.547 345.82 682.547 Q349.455 682.547 351.26 679.006 Q353.089 675.441 353.089 668.335 Q353.089 661.205 351.26 657.663 Q349.455 654.099 345.82 654.099 M345.82 650.395 Q351.63 650.395 354.686 655.001 Q357.765 659.585 357.765 668.335 Q357.765 677.061 354.686 681.668 Q351.63 686.251 345.82 686.251 Q340.01 686.251 336.931 681.668 Q333.876 677.061 333.876 668.335 Q333.876 659.585 336.931 655.001 Q340.01 650.395 345.82 650.395 Z" fill="#000000" fill-rule="nonzero" fill-opacity="1" /><path clip-path="url(#clip740)" d="M726.68 681.645 L734.318 681.645 L734.318 655.279 L726.008 656.946 L726.008 652.687 L734.272 651.02 L738.948 651.02 L738.948 681.645 L746.587 681.645 L746.587 685.58 L726.68 685.58 L726.68 681.645 Z" fill="#000000" fill-rule="nonzero" fill-opacity="1" /><path clip-path="url(#clip740)" d="M1121.43 681.645 L1137.75 681.645 L1137.75 685.58 L1115.8 685.58 L1115.8 681.645 Q1118.46 678.89 1123.05 674.26 Q1127.65 669.608 1128.83 668.265 Q1131.08 665.742 1131.96 664.006 Q1132.86 662.247 1132.86 660.557 Q1132.86 657.802 1130.92 656.066 Q1129 654.33 1125.9 654.33 Q1123.7 654.33 1121.24 655.094 Q1118.81 655.858 1116.03 657.409 L1116.03 652.687 Q1118.86 651.552 1121.31 650.974 Q1123.77 650.395 1125.8 650.395 Q1131.17 650.395 1134.37 653.08 Q1137.56 655.765 1137.56 660.256 Q1137.56 662.386 1136.75 664.307 Q1135.96 666.205 1133.86 668.798 Q1133.28 669.469 1130.18 672.686 Q1127.08 675.881 1121.43 681.645 Z" fill="#000000" fill-rule="nonzero" fill-opacity="1" /><path clip-path="url(#clip740)" d="M1521.5 666.946 Q1524.86 667.663 1526.73 669.932 Q1528.63 672.2 1528.63 675.534 Q1528.63 680.649 1525.11 683.45 Q1521.59 686.251 1515.11 686.251 Q1512.93 686.251 1510.62 685.811 Q1508.33 685.395 1505.87 684.538 L1505.87 680.024 Q1507.82 681.159 1510.13 681.737 Q1512.45 682.316 1514.97 682.316 Q1519.37 682.316 1521.66 680.58 Q1523.98 678.844 1523.98 675.534 Q1523.98 672.478 1521.82 670.765 Q1519.69 669.029 1515.87 669.029 L1511.85 669.029 L1511.85 665.186 L1516.06 665.186 Q1519.51 665.186 1521.34 663.821 Q1523.17 662.432 1523.17 659.839 Q1523.17 657.177 1521.27 655.765 Q1519.39 654.33 1515.87 654.33 Q1513.95 654.33 1511.75 654.747 Q1509.56 655.163 1506.92 656.043 L1506.92 651.876 Q1509.58 651.136 1511.89 650.765 Q1514.23 650.395 1516.29 650.395 Q1521.62 650.395 1524.72 652.825 Q1527.82 655.233 1527.82 659.353 Q1527.82 662.223 1526.18 664.214 Q1524.53 666.182 1521.5 666.946 Z" fill="#000000" fill-rule="nonzero" fill-opacity="1" /><path clip-path="url(#clip740)" d="M1910.74 655.094 L1898.93 673.543 L1910.74 673.543 L1910.74 655.094 M1909.51 651.02 L1915.39 651.02 L1915.39 673.543 L1920.32 673.543 L1920.32 677.432 L1915.39 677.432 L1915.39 685.58 L1910.74 685.58 L1910.74 677.432 L1895.14 677.432 L1895.14 672.918 L1909.51 651.02 Z" fill="#000000" fill-rule="nonzero" fill-opacity="1" /><path clip-path="url(#clip740)" d="M2288.48 651.02 L2306.84 651.02 L2306.84 654.955 L2292.77 654.955 L2292.77 663.427 Q2293.78 663.08 2294.8 662.918 Q2295.82 662.733 2296.84 662.733 Q2302.63 662.733 2306.01 665.904 Q2309.39 669.075 2309.39 674.492 Q2309.39 680.071 2305.91 683.172 Q2302.44 686.251 2296.12 686.251 Q2293.95 686.251 2291.68 685.881 Q2289.43 685.51 2287.03 684.77 L2287.03 680.071 Q2289.11 681.205 2291.33 681.76 Q2293.55 682.316 2296.03 682.316 Q2300.03 682.316 2302.37 680.21 Q2304.71 678.103 2304.71 674.492 Q2304.71 670.881 2302.37 668.774 Q2300.03 666.668 2296.03 666.668 Q2294.16 666.668 2292.28 667.085 Q2290.43 667.501 2288.48 668.381 L2288.48 651.02 Z" fill="#000000" fill-rule="nonzero" fill-opacity="1" /><path clip-path="url(#clip740)" d="M1190.23 720.524 L1230.43 720.524 L1230.43 725.935 L1213.56 725.935 L1213.56 768.044 L1207.1 768.044 L1207.1 725.935 L1190.23 725.935 L1190.23 720.524 Z" fill="#000000" fill-rule="nonzero" fill-opacity="1" /><path clip-path="url(#clip740)" d="M1234.38 732.396 L1240.23 732.396 L1240.23 768.044 L1234.38 768.044 L1234.38 732.396 M1234.38 718.519 L1240.23 718.519 L1240.23 725.935 L1234.38 725.935 L1234.38 718.519 Z" fill="#000000" fill-rule="nonzero" fill-opacity="1" /><path clip-path="url(#clip740)" d="M1280.24 739.239 Q1282.44 735.292 1285.5 733.414 Q1288.55 731.537 1292.69 731.537 Q1298.26 731.537 1301.28 735.451 Q1304.31 739.335 1304.31 746.528 L1304.31 768.044 L1298.42 768.044 L1298.42 746.719 Q1298.42 741.594 1296.6 739.112 Q1294.79 736.629 1291.07 736.629 Q1286.51 736.629 1283.87 739.653 Q1281.23 742.677 1281.23 747.896 L1281.23 768.044 L1275.34 768.044 L1275.34 746.719 Q1275.34 741.563 1273.53 739.112 Q1271.71 736.629 1267.93 736.629 Q1263.44 736.629 1260.8 739.685 Q1258.15 742.708 1258.15 747.896 L1258.15 768.044 L1252.27 768.044 L1252.27 732.396 L1258.15 732.396 L1258.15 737.934 Q1260.16 734.656 1262.96 733.096 Q1265.76 731.537 1269.61 731.537 Q1273.5 731.537 1276.2 733.51 Q1278.94 735.483 1280.24 739.239 Z" fill="#000000" fill-rule="nonzero" fill-opacity="1" /><path clip-path="url(#clip740)" d="M1346.48 748.756 L1346.48 751.62 L1319.55 751.62 Q1319.93 757.668 1323.18 760.851 Q1326.46 764.002 1332.28 764.002 Q1335.66 764.002 1338.81 763.174 Q1341.99 762.347 1345.11 760.691 L1345.11 766.23 Q1341.96 767.566 1338.65 768.267 Q1335.34 768.967 1331.93 768.967 Q1323.4 768.967 1318.41 764.002 Q1313.44 759.036 1313.44 750.57 Q1313.44 741.817 1318.15 736.693 Q1322.89 731.537 1330.91 731.537 Q1338.11 731.537 1342.28 736.183 Q1346.48 740.799 1346.48 748.756 M1340.62 747.037 Q1340.56 742.231 1337.92 739.366 Q1335.31 736.502 1330.98 736.502 Q1326.08 736.502 1323.12 739.271 Q1320.19 742.04 1319.74 747.069 L1340.62 747.037 Z" fill="#000000" fill-rule="nonzero" fill-opacity="1" /><path clip-path="url(#clip740)" d="M1390.88 718.582 Q1386.61 725.903 1384.55 733.064 Q1382.48 740.226 1382.48 747.578 Q1382.48 754.93 1384.55 762.156 Q1386.65 769.349 1390.88 776.638 L1385.79 776.638 Q1381.01 769.158 1378.63 761.933 Q1376.27 754.708 1376.27 747.578 Q1376.27 740.48 1378.63 733.287 Q1380.98 726.094 1385.79 718.582 L1390.88 718.582 Z" fill="#000000" fill-rule="nonzero" fill-opacity="1" /><path clip-path="url(#clip740)" d="M1424.97 733.446 L1424.97 738.984 Q1422.49 737.711 1419.81 737.075 Q1417.14 736.438 1414.27 736.438 Q1409.91 736.438 1407.72 737.775 Q1405.55 739.112 1405.55 741.785 Q1405.55 743.822 1407.11 745 Q1408.67 746.146 1413.38 747.196 L1415.39 747.642 Q1421.63 748.979 1424.24 751.429 Q1426.88 753.848 1426.88 758.209 Q1426.88 763.174 1422.93 766.07 Q1419.02 768.967 1412.14 768.967 Q1409.28 768.967 1406.16 768.394 Q1403.07 767.853 1399.63 766.739 L1399.63 760.691 Q1402.88 762.378 1406.03 763.238 Q1409.18 764.065 1412.27 764.065 Q1416.41 764.065 1418.63 762.665 Q1420.86 761.233 1420.86 758.654 Q1420.86 756.267 1419.24 754.994 Q1417.65 753.721 1412.2 752.543 L1410.17 752.066 Q1404.72 750.92 1402.31 748.565 Q1399.89 746.178 1399.89 742.04 Q1399.89 737.011 1403.45 734.274 Q1407.02 731.537 1413.57 731.537 Q1416.82 731.537 1419.68 732.014 Q1422.55 732.491 1424.97 733.446 Z" fill="#000000" fill-rule="nonzero" fill-opacity="1" /><path clip-path="url(#clip740)" d="M1435.28 718.582 L1440.37 718.582 Q1445.15 726.094 1447.5 733.287 Q1449.89 740.48 1449.89 747.578 Q1449.89 754.708 1447.5 761.933 Q1445.15 769.158 1440.37 776.638 L1435.28 776.638 Q1439.51 769.349 1441.58 762.156 Q1443.68 754.93 1443.68 747.578 Q1443.68 740.226 1441.58 733.064 Q1439.51 725.903 1435.28 718.582 Z" fill="#000000" fill-rule="nonzero" fill-opacity="1" /><polyline clip-path="url(#clip740)" style="stroke:#000000; stroke-linecap:round; stroke-linejoin:round; stroke-width:4; stroke-opacity:1; fill:none" points="287.366,623.18 287.366,47.2441 "/>
<polyline clip-path="url(#clip740)" style="stroke:#000000; stroke-linecap:round; stroke-linejoin:round; stroke-width:4; stroke-opacity:1; fill:none" points="287.366,585.356 306.264,585.356 "/>
<polyline clip-path="url(#clip740)" style="stroke:#000000; stroke-linecap:round; stroke-linejoin:round; stroke-width:4; stroke-opacity:1; fill:none" points="287.366,506.478 306.264,506.478 "/>
<polyline clip-path="url(#clip740)" style="stroke:#000000; stroke-linecap:round; stroke-linejoin:round; stroke-width:4; stroke-opacity:1; fill:none" points="287.366,427.601 306.264,427.601 "/>
<polyline clip-path="url(#clip740)" style="stroke:#000000; stroke-linecap:round; stroke-linejoin:round; stroke-width:4; stroke-opacity:1; fill:none" points="287.366,348.723 306.264,348.723 "/>
<polyline clip-path="url(#clip740)" style="stroke:#000000; stroke-linecap:round; stroke-linejoin:round; stroke-width:4; stroke-opacity:1; fill:none" points="287.366,269.845 306.264,269.845 "/>
<polyline clip-path="url(#clip740)" style="stroke:#000000; stroke-linecap:round; stroke-linejoin:round; stroke-width:4; stroke-opacity:1; fill:none" points="287.366,190.968 306.264,190.968 "/>
<polyline clip-path="url(#clip740)" style="stroke:#000000; stroke-linecap:round; stroke-linejoin:round; stroke-width:4; stroke-opacity:1; fill:none" points="287.366,112.09 306.264,112.09 "/>
<path clip-path="url(#clip740)" d="M115.256 585.808 L144.931 585.808 L144.931 589.743 L115.256 589.743 L115.256 585.808 Z" fill="#000000" fill-rule="nonzero" fill-opacity="1" /><path clip-path="url(#clip740)" d="M165.024 571.155 Q161.413 571.155 159.584 574.72 Q157.778 578.261 157.778 585.391 Q157.778 592.497 159.584 596.062 Q161.413 599.604 165.024 599.604 Q168.658 599.604 170.464 596.062 Q172.292 592.497 172.292 585.391 Q172.292 578.261 170.464 574.72 Q168.658 571.155 165.024 571.155 M165.024 567.451 Q170.834 567.451 173.889 572.058 Q176.968 576.641 176.968 585.391 Q176.968 594.118 173.889 598.724 Q170.834 603.307 165.024 603.307 Q159.214 603.307 156.135 598.724 Q153.079 594.118 153.079 585.391 Q153.079 576.641 156.135 572.058 Q159.214 567.451 165.024 567.451 Z" fill="#000000" fill-rule="nonzero" fill-opacity="1" /><path clip-path="url(#clip740)" d="M185.186 596.757 L190.07 596.757 L190.07 602.636 L185.186 602.636 L185.186 596.757 Z" fill="#000000" fill-rule="nonzero" fill-opacity="1" /><path clip-path="url(#clip740)" d="M201.065 598.701 L208.704 598.701 L208.704 572.335 L200.394 574.002 L200.394 569.743 L208.658 568.076 L213.334 568.076 L213.334 598.701 L220.973 598.701 L220.973 602.636 L201.065 602.636 L201.065 598.701 Z" fill="#000000" fill-rule="nonzero" fill-opacity="1" /><path clip-path="url(#clip740)" d="M230.463 568.076 L248.82 568.076 L248.82 572.011 L234.746 572.011 L234.746 580.483 Q235.764 580.136 236.783 579.974 Q237.801 579.789 238.82 579.789 Q244.607 579.789 247.986 582.96 Q251.366 586.132 251.366 591.548 Q251.366 597.127 247.894 600.229 Q244.421 603.307 238.102 603.307 Q235.926 603.307 233.658 602.937 Q231.412 602.567 229.005 601.826 L229.005 597.127 Q231.088 598.261 233.31 598.817 Q235.533 599.372 238.009 599.372 Q242.014 599.372 244.352 597.266 Q246.69 595.159 246.69 591.548 Q246.69 587.937 244.352 585.831 Q242.014 583.724 238.009 583.724 Q236.135 583.724 234.26 584.141 Q232.408 584.558 230.463 585.437 L230.463 568.076 Z" fill="#000000" fill-rule="nonzero" fill-opacity="1" /><path clip-path="url(#clip740)" d="M114.26 506.93 L143.936 506.93 L143.936 510.865 L114.26 510.865 L114.26 506.93 Z" fill="#000000" fill-rule="nonzero" fill-opacity="1" /><path clip-path="url(#clip740)" d="M164.028 492.277 Q160.417 492.277 158.589 495.842 Q156.783 499.384 156.783 506.513 Q156.783 513.62 158.589 517.184 Q160.417 520.726 164.028 520.726 Q167.663 520.726 169.468 517.184 Q171.297 513.62 171.297 506.513 Q171.297 499.384 169.468 495.842 Q167.663 492.277 164.028 492.277 M164.028 488.573 Q169.839 488.573 172.894 493.18 Q175.973 497.763 175.973 506.513 Q175.973 515.24 172.894 519.846 Q169.839 524.43 164.028 524.43 Q158.218 524.43 155.14 519.846 Q152.084 515.24 152.084 506.513 Q152.084 497.763 155.14 493.18 Q158.218 488.573 164.028 488.573 Z" fill="#000000" fill-rule="nonzero" fill-opacity="1" /><path clip-path="url(#clip740)" d="M184.19 517.879 L189.075 517.879 L189.075 523.758 L184.19 523.758 L184.19 517.879 Z" fill="#000000" fill-rule="nonzero" fill-opacity="1" /><path clip-path="url(#clip740)" d="M200.07 519.823 L207.709 519.823 L207.709 493.458 L199.399 495.124 L199.399 490.865 L207.662 489.198 L212.338 489.198 L212.338 519.823 L219.977 519.823 L219.977 523.758 L200.07 523.758 L200.07 519.823 Z" fill="#000000" fill-rule="nonzero" fill-opacity="1" /><path clip-path="url(#clip740)" d="M239.422 492.277 Q235.81 492.277 233.982 495.842 Q232.176 499.384 232.176 506.513 Q232.176 513.62 233.982 517.184 Q235.81 520.726 239.422 520.726 Q243.056 520.726 244.861 517.184 Q246.69 513.62 246.69 506.513 Q246.69 499.384 244.861 495.842 Q243.056 492.277 239.422 492.277 M239.422 488.573 Q245.232 488.573 248.287 493.18 Q251.366 497.763 251.366 506.513 Q251.366 515.24 248.287 519.846 Q245.232 524.43 239.422 524.43 Q233.611 524.43 230.533 519.846 Q227.477 515.24 227.477 506.513 Q227.477 497.763 230.533 493.18 Q233.611 488.573 239.422 488.573 Z" fill="#000000" fill-rule="nonzero" fill-opacity="1" /><path clip-path="url(#clip740)" d="M115.256 428.052 L144.931 428.052 L144.931 431.987 L115.256 431.987 L115.256 428.052 Z" fill="#000000" fill-rule="nonzero" fill-opacity="1" /><path clip-path="url(#clip740)" d="M165.024 413.399 Q161.413 413.399 159.584 416.964 Q157.778 420.506 157.778 427.635 Q157.778 434.742 159.584 438.307 Q161.413 441.848 165.024 441.848 Q168.658 441.848 170.464 438.307 Q172.292 434.742 172.292 427.635 Q172.292 420.506 170.464 416.964 Q168.658 413.399 165.024 413.399 M165.024 409.696 Q170.834 409.696 173.889 414.302 Q176.968 418.885 176.968 427.635 Q176.968 436.362 173.889 440.969 Q170.834 445.552 165.024 445.552 Q159.214 445.552 156.135 440.969 Q153.079 436.362 153.079 427.635 Q153.079 418.885 156.135 414.302 Q159.214 409.696 165.024 409.696 Z" fill="#000000" fill-rule="nonzero" fill-opacity="1" /><path clip-path="url(#clip740)" d="M185.186 439.001 L190.07 439.001 L190.07 444.881 L185.186 444.881 L185.186 439.001 Z" fill="#000000" fill-rule="nonzero" fill-opacity="1" /><path clip-path="url(#clip740)" d="M210.255 413.399 Q206.644 413.399 204.815 416.964 Q203.01 420.506 203.01 427.635 Q203.01 434.742 204.815 438.307 Q206.644 441.848 210.255 441.848 Q213.889 441.848 215.695 438.307 Q217.523 434.742 217.523 427.635 Q217.523 420.506 215.695 416.964 Q213.889 413.399 210.255 413.399 M210.255 409.696 Q216.065 409.696 219.121 414.302 Q222.199 418.885 222.199 427.635 Q222.199 436.362 219.121 440.969 Q216.065 445.552 210.255 445.552 Q204.445 445.552 201.366 440.969 Q198.311 436.362 198.311 427.635 Q198.311 418.885 201.366 414.302 Q204.445 409.696 210.255 409.696 Z" fill="#000000" fill-rule="nonzero" fill-opacity="1" /><path clip-path="url(#clip740)" d="M230.463 410.321 L248.82 410.321 L248.82 414.256 L234.746 414.256 L234.746 422.728 Q235.764 422.381 236.783 422.219 Q237.801 422.034 238.82 422.034 Q244.607 422.034 247.986 425.205 Q251.366 428.376 251.366 433.793 Q251.366 439.371 247.894 442.473 Q244.421 445.552 238.102 445.552 Q235.926 445.552 233.658 445.182 Q231.412 444.811 229.005 444.071 L229.005 439.371 Q231.088 440.506 233.31 441.061 Q235.533 441.617 238.009 441.617 Q242.014 441.617 244.352 439.51 Q246.69 437.404 246.69 433.793 Q246.69 430.182 244.352 428.075 Q242.014 425.969 238.009 425.969 Q236.135 425.969 234.26 426.385 Q232.408 426.802 230.463 427.682 L230.463 410.321 Z" fill="#000000" fill-rule="nonzero" fill-opacity="1" /><path clip-path="url(#clip740)" d="M164.028 334.522 Q160.417 334.522 158.589 338.086 Q156.783 341.628 156.783 348.758 Q156.783 355.864 158.589 359.429 Q160.417 362.971 164.028 362.971 Q167.663 362.971 169.468 359.429 Q171.297 355.864 171.297 348.758 Q171.297 341.628 169.468 338.086 Q167.663 334.522 164.028 334.522 M164.028 330.818 Q169.839 330.818 172.894 335.424 Q175.973 340.008 175.973 348.758 Q175.973 357.485 172.894 362.091 Q169.839 366.674 164.028 366.674 Q158.218 366.674 155.14 362.091 Q152.084 357.485 152.084 348.758 Q152.084 340.008 155.14 335.424 Q158.218 330.818 164.028 330.818 Z" fill="#000000" fill-rule="nonzero" fill-opacity="1" /><path clip-path="url(#clip740)" d="M184.19 360.123 L189.075 360.123 L189.075 366.003 L184.19 366.003 L184.19 360.123 Z" fill="#000000" fill-rule="nonzero" fill-opacity="1" /><path clip-path="url(#clip740)" d="M209.26 334.522 Q205.649 334.522 203.82 338.086 Q202.014 341.628 202.014 348.758 Q202.014 355.864 203.82 359.429 Q205.649 362.971 209.26 362.971 Q212.894 362.971 214.699 359.429 Q216.528 355.864 216.528 348.758 Q216.528 341.628 214.699 338.086 Q212.894 334.522 209.26 334.522 M209.26 330.818 Q215.07 330.818 218.125 335.424 Q221.204 340.008 221.204 348.758 Q221.204 357.485 218.125 362.091 Q215.07 366.674 209.26 366.674 Q203.449 366.674 200.371 362.091 Q197.315 357.485 197.315 348.758 Q197.315 340.008 200.371 335.424 Q203.449 330.818 209.26 330.818 Z" fill="#000000" fill-rule="nonzero" fill-opacity="1" /><path clip-path="url(#clip740)" d="M239.422 334.522 Q235.81 334.522 233.982 338.086 Q232.176 341.628 232.176 348.758 Q232.176 355.864 233.982 359.429 Q235.81 362.971 239.422 362.971 Q243.056 362.971 244.861 359.429 Q246.69 355.864 246.69 348.758 Q246.69 341.628 244.861 338.086 Q243.056 334.522 239.422 334.522 M239.422 330.818 Q245.232 330.818 248.287 335.424 Q251.366 340.008 251.366 348.758 Q251.366 357.485 248.287 362.091 Q245.232 366.674 239.422 366.674 Q233.611 366.674 230.533 362.091 Q227.477 357.485 227.477 348.758 Q227.477 340.008 230.533 335.424 Q233.611 330.818 239.422 330.818 Z" fill="#000000" fill-rule="nonzero" fill-opacity="1" /><path clip-path="url(#clip740)" d="M165.024 255.644 Q161.413 255.644 159.584 259.209 Q157.778 262.75 157.778 269.88 Q157.778 276.986 159.584 280.551 Q161.413 284.093 165.024 284.093 Q168.658 284.093 170.464 280.551 Q172.292 276.986 172.292 269.88 Q172.292 262.75 170.464 259.209 Q168.658 255.644 165.024 255.644 M165.024 251.94 Q170.834 251.94 173.889 256.547 Q176.968 261.13 176.968 269.88 Q176.968 278.607 173.889 283.213 Q170.834 287.797 165.024 287.797 Q159.214 287.797 156.135 283.213 Q153.079 278.607 153.079 269.88 Q153.079 261.13 156.135 256.547 Q159.214 251.94 165.024 251.94 Z" fill="#000000" fill-rule="nonzero" fill-opacity="1" /><path clip-path="url(#clip740)" d="M185.186 281.246 L190.07 281.246 L190.07 287.125 L185.186 287.125 L185.186 281.246 Z" fill="#000000" fill-rule="nonzero" fill-opacity="1" /><path clip-path="url(#clip740)" d="M210.255 255.644 Q206.644 255.644 204.815 259.209 Q203.01 262.75 203.01 269.88 Q203.01 276.986 204.815 280.551 Q206.644 284.093 210.255 284.093 Q213.889 284.093 215.695 280.551 Q217.523 276.986 217.523 269.88 Q217.523 262.75 215.695 259.209 Q213.889 255.644 210.255 255.644 M210.255 251.94 Q216.065 251.94 219.121 256.547 Q222.199 261.13 222.199 269.88 Q222.199 278.607 219.121 283.213 Q216.065 287.797 210.255 287.797 Q204.445 287.797 201.366 283.213 Q198.311 278.607 198.311 269.88 Q198.311 261.13 201.366 256.547 Q204.445 251.94 210.255 251.94 Z" fill="#000000" fill-rule="nonzero" fill-opacity="1" /><path clip-path="url(#clip740)" d="M230.463 252.565 L248.82 252.565 L248.82 256.5 L234.746 256.5 L234.746 264.973 Q235.764 264.625 236.783 264.463 Q237.801 264.278 238.82 264.278 Q244.607 264.278 247.986 267.449 Q251.366 270.621 251.366 276.037 Q251.366 281.616 247.894 284.718 Q244.421 287.797 238.102 287.797 Q235.926 287.797 233.658 287.426 Q231.412 287.056 229.005 286.315 L229.005 281.616 Q231.088 282.75 233.31 283.306 Q235.533 283.861 238.009 283.861 Q242.014 283.861 244.352 281.755 Q246.69 279.648 246.69 276.037 Q246.69 272.426 244.352 270.32 Q242.014 268.213 238.009 268.213 Q236.135 268.213 234.26 268.63 Q232.408 269.047 230.463 269.926 L230.463 252.565 Z" fill="#000000" fill-rule="nonzero" fill-opacity="1" /><path clip-path="url(#clip740)" d="M164.028 176.766 Q160.417 176.766 158.589 180.331 Q156.783 183.873 156.783 191.002 Q156.783 198.109 158.589 201.673 Q160.417 205.215 164.028 205.215 Q167.663 205.215 169.468 201.673 Q171.297 198.109 171.297 191.002 Q171.297 183.873 169.468 180.331 Q167.663 176.766 164.028 176.766 M164.028 173.063 Q169.839 173.063 172.894 177.669 Q175.973 182.252 175.973 191.002 Q175.973 199.729 172.894 204.336 Q169.839 208.919 164.028 208.919 Q158.218 208.919 155.14 204.336 Q152.084 199.729 152.084 191.002 Q152.084 182.252 155.14 177.669 Q158.218 173.063 164.028 173.063 Z" fill="#000000" fill-rule="nonzero" fill-opacity="1" /><path clip-path="url(#clip740)" d="M184.19 202.368 L189.075 202.368 L189.075 208.248 L184.19 208.248 L184.19 202.368 Z" fill="#000000" fill-rule="nonzero" fill-opacity="1" /><path clip-path="url(#clip740)" d="M200.07 204.312 L207.709 204.312 L207.709 177.947 L199.399 179.613 L199.399 175.354 L207.662 173.688 L212.338 173.688 L212.338 204.312 L219.977 204.312 L219.977 208.248 L200.07 208.248 L200.07 204.312 Z" fill="#000000" fill-rule="nonzero" fill-opacity="1" /><path clip-path="url(#clip740)" d="M239.422 176.766 Q235.81 176.766 233.982 180.331 Q232.176 183.873 232.176 191.002 Q232.176 198.109 233.982 201.673 Q235.81 205.215 239.422 205.215 Q243.056 205.215 244.861 201.673 Q246.69 198.109 246.69 191.002 Q246.69 183.873 244.861 180.331 Q243.056 176.766 239.422 176.766 M239.422 173.063 Q245.232 173.063 248.287 177.669 Q251.366 182.252 251.366 191.002 Q251.366 199.729 248.287 204.336 Q245.232 208.919 239.422 208.919 Q233.611 208.919 230.533 204.336 Q227.477 199.729 227.477 191.002 Q227.477 182.252 230.533 177.669 Q233.611 173.063 239.422 173.063 Z" fill="#000000" fill-rule="nonzero" fill-opacity="1" /><path clip-path="url(#clip740)" d="M165.024 97.8885 Q161.413 97.8885 159.584 101.453 Q157.778 104.995 157.778 112.125 Q157.778 119.231 159.584 122.796 Q161.413 126.337 165.024 126.337 Q168.658 126.337 170.464 122.796 Q172.292 119.231 172.292 112.125 Q172.292 104.995 170.464 101.453 Q168.658 97.8885 165.024 97.8885 M165.024 94.1848 Q170.834 94.1848 173.889 98.7913 Q176.968 103.375 176.968 112.125 Q176.968 120.851 173.889 125.458 Q170.834 130.041 165.024 130.041 Q159.214 130.041 156.135 125.458 Q153.079 120.851 153.079 112.125 Q153.079 103.375 156.135 98.7913 Q159.214 94.1848 165.024 94.1848 Z" fill="#000000" fill-rule="nonzero" fill-opacity="1" /><path clip-path="url(#clip740)" d="M185.186 123.49 L190.07 123.49 L190.07 129.37 L185.186 129.37 L185.186 123.49 Z" fill="#000000" fill-rule="nonzero" fill-opacity="1" /><path clip-path="url(#clip740)" d="M201.065 125.435 L208.704 125.435 L208.704 99.0691 L200.394 100.736 L200.394 96.4765 L208.658 94.8098 L213.334 94.8098 L213.334 125.435 L220.973 125.435 L220.973 129.37 L201.065 129.37 L201.065 125.435 Z" fill="#000000" fill-rule="nonzero" fill-opacity="1" /><path clip-path="url(#clip740)" d="M230.463 94.8098 L248.82 94.8098 L248.82 98.745 L234.746 98.745 L234.746 107.217 Q235.764 106.87 236.783 106.708 Q237.801 106.523 238.82 106.523 Q244.607 106.523 247.986 109.694 Q251.366 112.865 251.366 118.282 Q251.366 123.861 247.894 126.962 Q244.421 130.041 238.102 130.041 Q235.926 130.041 233.658 129.671 Q231.412 129.3 229.005 128.56 L229.005 123.861 Q231.088 124.995 233.31 125.55 Q235.533 126.106 238.009 126.106 Q242.014 126.106 244.352 123.999 Q246.69 121.893 246.69 118.282 Q246.69 114.671 244.352 112.564 Q242.014 110.458 238.009 110.458 Q236.135 110.458 234.26 110.875 Q232.408 111.291 230.463 112.171 L230.463 94.8098 Z" fill="#000000" fill-rule="nonzero" fill-opacity="1" /><path clip-path="url(#clip740)" d="M67.3143 333.525 Q73.68 336.008 75.6216 338.363 Q77.5631 340.718 77.5631 344.665 L77.5631 349.344 L72.6615 349.344 L72.6615 345.906 Q72.6615 343.487 71.5157 342.151 Q70.3699 340.814 66.1048 339.191 L63.4312 338.14 L28.3562 352.559 L28.3562 346.352 L56.238 335.212 L28.3562 324.072 L28.3562 317.865 L67.3143 333.525 Z" fill="#000000" fill-rule="nonzero" fill-opacity="1" /><polyline clip-path="url(#clip742)" style="stroke:#009af9; stroke-linecap:round; stroke-linejoin:round; stroke-width:4; stroke-opacity:1; fill:none" points="345.82,348.723 349.725,348.723 353.63,348.723 353.63,364.316 357.535,364.316 357.535,379.45 361.439,379.45 361.439,393.992 365.344,393.992 365.344,407.823 369.249,407.823 369.249,420.84 373.154,420.84 373.154,432.959 377.059,432.959 377.059,444.112 380.963,444.112 380.963,454.253 384.868,454.253 384.868,463.355 388.773,463.355 388.773,471.411 392.678,471.411 392.678,478.433 396.582,478.433 396.582,484.45 400.487,484.45 400.487,489.513 404.392,489.513 404.392,493.684 408.297,493.684 408.297,497.043 412.201,497.043 412.201,499.68 416.106,499.68 416.106,501.696 420.011,501.696 420.011,503.201 423.916,503.201 423.916,504.307 427.821,504.307 427.821,505.135 431.725,505.135 431.725,474.614 435.63,474.614 435.63,444.967 439.535,444.967 439.535,416.573 443.44,416.573 443.44,389.776 447.344,389.776 447.344,364.881 451.249,364.881 451.249,373.335 455.154,373.335 455.154,383.243 459.059,383.243 459.059,394.501 462.963,394.501 462.963,406.978 466.868,406.978 466.868,420.523 470.773,420.523 470.773,403.78 474.678,403.78 474.678,388.671 478.583,388.671 478.583,375.269 482.487,375.269 482.487,363.612 486.392,363.612 486.392,353.704 490.297,353.704 490.297,345.518 494.202,345.518 494.202,338.994 498.106,338.994 498.106,334.043 502.011,334.043 502.011,330.55 505.916,330.55 505.916,328.377 509.821,328.377 509.821,327.363 513.726,327.363 513.726,327.334 517.63,327.334 517.63,328.101 521.535,328.101 521.535,329.468 525.44,329.468 525.44,331.232 529.345,331.232 529.345,364.38 533.249,364.38 533.249,396.608 537.154,396.608 537.154,427.461 541.059,427.461 541.059,456.521 544.964,456.521 544.964,483.417 548.868,483.417 548.868,476.644 552.773,476.644 552.773,468.046 556.678,468.046 556.678,457.685 560.583,457.685 560.583,445.661 564.488,445.661 564.488,432.103 568.392,432.103 568.392,448.354 572.297,448.354 572.297,462.491 576.202,462.491 576.202,474.45 580.107,474.45 580.107,484.209 584.011,484.209 584.011,491.79 587.916,491.79 587.916,497.254 591.821,497.254 591.821,500.702 595.726,500.702 595.726,502.27 599.631,502.27 599.631,502.124 603.535,502.124 603.535,500.458 607.44,500.458 607.44,466.304 611.345,466.304 611.345,432.002 615.25,432.002 615.25,398.065 619.154,398.065 619.154,364.985 623.059,364.985 623.059,333.225 626.964,333.225 626.964,334.397 630.869,334.397 630.869,336.774 634.773,336.774 634.773,340.42 638.678,340.42 638.678,345.368 642.583,345.368 642.583,351.624 646.488,351.624 646.488,359.168 650.393,359.168 650.393,367.952 654.297,367.952 654.297,377.904 658.202,377.904 658.202,388.931 662.107,388.931 662.107,400.919 666.012,400.919 666.012,382.55 669.916,382.55 669.916,365.787 673.821,365.787 673.821,350.739 677.726,350.739 677.726,337.482 681.631,337.482 681.631,326.056 685.535,326.056 685.535,316.464 689.44,316.464 689.44,308.677 693.345,308.677 693.345,302.631 697.25,302.631 697.25,298.232 701.155,298.232 701.155,295.357 705.059,295.357 705.059,325.047 708.964,325.047 708.964,355.029 712.869,355.029 712.869,384.85 716.774,384.85 716.774,414.076 720.678,414.076 720.678,442.293 724.583,442.293 724.583,469.119 728.488,469.119 728.488,494.21 732.393,494.21 732.393,517.263 736.298,517.263 736.298,538.024 740.202,538.024 740.202,556.289 744.107,556.289 744.107,571.91 748.012,571.91 748.012,584.791 751.917,584.791 751.917,594.894 755.821,594.894 755.821,602.235 759.726,602.235 759.726,606.88 763.631,606.88 763.631,577.761 767.536,577.761 767.536,547.148 771.44,547.148 771.44,515.51 775.345,515.51 775.345,483.327 779.25,483.327 779.25,451.075 783.155,451.075 783.155,450.406 787.06,450.406 787.06,449.661 790.964,449.661 790.964,448.993 794.869,448.993 794.869,448.547 798.774,448.547 798.774,448.457 802.679,448.457 802.679,417.66 806.583,417.66 806.583,388.369 810.488,388.369 810.488,360.942 814.393,360.942 814.393,335.692 818.298,335.692 818.298,312.879 822.202,312.879 822.202,292.714 826.107,292.714 826.107,275.345 830.012,275.345 830.012,260.869 833.917,260.869 833.917,249.319 837.822,249.319 837.822,240.675 841.726,240.675 841.726,234.861 845.631,234.861 845.631,231.747 849.536,231.747 849.536,231.159 853.441,231.159 853.441,232.878 857.345,232.878 857.345,236.647 861.25,236.647 861.25,242.18 865.155,242.18 865.155,249.163 869.06,249.163 869.06,257.268 872.965,257.268 872.965,266.154 876.869,266.154 876.869,275.475 880.774,275.475 880.774,284.891 884.679,284.891 884.679,294.071 888.584,294.071 888.584,302.697 892.488,302.697 892.488,310.476 896.393,310.476 896.393,317.141 900.298,317.141 900.298,322.455 904.203,322.455 904.203,326.217 908.107,326.217 908.107,328.263 912.012,328.263 912.012,328.47 915.917,328.47 915.917,326.755 919.822,326.755 919.822,354.265 923.727,354.265 923.727,378.893 927.631,378.893 927.631,400.416 931.536,400.416 931.536,418.672 935.441,418.672 935.441,433.571 939.346,433.571 939.346,445.087 943.25,445.087 943.25,453.261 947.155,453.261 947.155,458.196 951.06,458.196 951.06,460.054 954.965,460.054 954.965,459.052 958.87,459.052 958.87,424.268 962.774,424.268 962.774,388.114 966.679,388.114 966.679,351.196 970.584,351.196 970.584,314.119 974.489,314.119 974.489,277.474 978.393,277.474 978.393,241.829 982.298,241.829 982.298,207.716 986.203,207.716 986.203,175.621 990.108,175.621 990.108,145.981 994.012,145.981 994.012,119.169 997.917,119.169 997.917,126.682 1001.82,126.682 1001.82,136.655 1005.73,136.655 1005.73,148.991 1009.63,148.991 1009.63,163.546 1013.54,163.546 1013.54,180.136 1017.44,180.136 1017.44,198.54 1021.35,198.54 1021.35,218.509 1025.25,218.509 1025.25,239.764 1029.16,239.764 1029.16,262.012 1033.06,262.012 1033.06,284.945 1036.96,284.945 1036.96,308.25 1040.87,308.25 1040.87,331.613 1044.77,331.613 1044.77,354.729 1048.68,354.729 1048.68,377.303 1052.58,377.303 1052.58,399.059 1056.49,399.059 1056.49,388.557 1060.39,388.557 1060.39,377.676 1064.3,377.676 1064.3,366.485 1068.2,366.485 1068.2,355.061 1072.11,355.061 1072.11,343.482 1076.01,343.482 1076.01,331.83 1079.92,331.83 1079.92,320.188 1083.82,320.188 1083.82,308.636 1087.73,308.636 1087.73,297.253 1091.63,297.253 1091.63,286.112 1095.54,286.112 1095.54,306.469 1099.44,306.469 1099.44,326.28 1103.35,326.28 1103.35,345.335 1107.25,345.335 1107.25,363.44 1111.16,363.44 1111.16,380.428 1115.06,380.428 1115.06,364.967 1118.97,364.967 1118.97,349.046 1122.87,349.046 1122.87,332.845 1126.77,332.845 1126.77,316.542 1130.68,316.542 1130.68,300.315 1134.58,300.315 1134.58,284.339 1138.49,284.339 1138.49,268.777 1142.39,268.777 1142.39,253.781 1146.3,253.781 1146.3,239.491 1150.2,239.491 1150.2,226.027 1154.11,226.027 1154.11,213.494 1158.01,213.494 1158.01,201.975 1161.92,201.975 1161.92,191.531 1165.82,191.531 1165.82,182.205 1169.73,182.205 1169.73,174.013 1173.63,174.013 1173.63,198.141 1177.54,198.141 1177.54,222.459 1181.44,222.459 1181.44,246.659 1185.35,246.659 1185.35,270.44 1189.25,270.44 1189.25,293.52 1193.16,293.52 1193.16,315.633 1197.06,315.633 1197.06,336.542 1200.97,336.542 1200.97,356.038 1204.87,356.038 1204.87,373.944 1208.77,373.944 1208.77,390.117 1212.68,390.117 1212.68,404.451 1216.58,404.451 1216.58,416.88 1220.49,416.88 1220.49,427.373 1224.39,427.373 1224.39,435.937 1228.3,435.937 1228.3,442.617 1232.2,442.617 1232.2,447.489 1236.11,447.489 1236.11,450.664 1240.01,450.664 1240.01,452.28 1243.92,452.28 1243.92,452.5 1247.82,452.5 1247.82,451.509 1251.73,451.509 1251.73,418.322 1255.63,418.322 1255.63,385.256 1259.54,385.256 1259.54,352.801 1263.44,352.801 1263.44,321.417 1267.35,321.417 1267.35,291.536 1271.25,291.536 1271.25,263.544 1275.16,263.544 1275.16,237.784 1279.06,237.784 1279.06,214.546 1282.97,214.546 1282.97,194.06 1286.87,194.06 1286.87,176.5 1290.78,176.5 1290.78,161.979 1294.68,161.979 1294.68,150.545 1298.58,150.545 1298.58,142.189 1302.49,142.189 1302.49,136.84 1306.39,136.84 1306.39,134.375 1310.3,134.375 1310.3,134.615 1314.2,134.615 1314.2,137.338 1318.11,137.338 1318.11,142.28 1322.01,142.28 1322.01,149.142 1325.92,149.142 1325.92,157.597 1329.82,157.597 1329.82,198.486 1333.73,198.486 1333.73,239.343 1337.63,239.343 1337.63,279.539 1341.54,279.539 1341.54,318.472 1345.44,318.472 1345.44,355.583 1349.35,355.583 1349.35,390.362 1353.25,390.362 1353.25,422.359 1357.16,422.359 1357.16,451.192 1361.06,451.192 1361.06,476.548 1364.97,476.548 1364.97,498.192 1368.87,498.192 1368.87,484.781 1372.78,484.781 1372.78,468.34 1376.68,468.34 1376.68,449.137 1380.58,449.137 1380.58,427.486 1384.49,427.486 1384.49,403.739 1388.39,403.739 1388.39,378.285 1392.3,378.285 1392.3,351.532 1396.2,351.532 1396.2,323.907 1400.11,323.907 1400.11,295.838 1404.01,295.838 1404.01,267.756 1407.92,267.756 1407.92,240.076 1411.82,240.076 1411.82,213.198 1415.73,213.198 1415.73,187.492 1419.63,187.492 1419.63,163.3 1423.54,163.3 1423.54,140.921 1427.44,140.921 1427.44,120.613 1431.35,120.613 1431.35,102.586 1435.25,102.586 1435.25,87.0017 1439.16,87.0017 1439.16,73.9687 1443.06,73.9687 1443.06,63.5442 1446.97,63.5442 1446.97,86.9197 1450.87,86.9197 1450.87,111.945 1454.78,111.945 1454.78,138.262 1458.68,138.262 1458.68,165.494 1462.59,165.494 1462.59,193.258 1466.49,193.258 1466.49,221.17 1470.39,221.17 1470.39,248.85 1474.3,248.85 1474.3,275.935 1478.2,275.935 1478.2,302.08 1482.11,302.08 1482.11,326.971 1486.01,326.971 1486.01,319.135 1489.92,319.135 1489.92,310.431 1493.82,310.431 1493.82,300.919 1497.73,300.919 1497.73,290.672 1501.63,290.672 1501.63,279.779 1505.54,279.779 1505.54,299.527 1509.44,299.527 1509.44,317.919 1513.35,317.919 1513.35,334.805 1517.25,334.805 1517.25,350.068 1521.16,350.068 1521.16,363.623 1525.06,363.623 1525.06,375.421 1528.97,375.421 1528.97,385.447 1532.87,385.447 1532.87,393.72 1536.78,393.72 1536.78,400.289 1540.68,400.289 1540.68,405.237 1544.59,405.237 1544.59,377.486 1548.49,377.486 1548.49,349.274 1552.39,349.274 1552.39,321.025 1556.3,321.025 1556.3,293.147 1560.2,293.147 1560.2,266.035 1564.11,266.035 1564.11,271.242 1568.01,271.242 1568.01,277 1571.92,277 1571.92,283.341 1575.82,283.341 1575.82,290.285 1579.73,290.285 1579.73,297.836 1583.63,297.836 1583.63,305.986 1587.54,305.986 1587.54,314.713 1591.44,314.713 1591.44,323.982 1595.35,323.982 1595.35,333.748 1599.25,333.748 1599.25,343.957 1603.16,343.957 1603.16,323.358 1607.06,323.358 1607.06,303.984 1610.97,303.984 1610.97,286.026 1614.87,286.026 1614.87,269.641 1618.78,269.641 1618.78,254.952 1622.68,254.952 1622.68,242.047 1626.59,242.047 1626.59,230.977 1630.49,230.977 1630.49,221.759 1634.4,221.759 1634.4,214.371 1638.3,214.371 1638.3,208.761 1642.2,208.761 1642.2,204.843 1646.11,204.843 1646.11,202.501 1650.01,202.501 1650.01,201.595 1653.92,201.595 1653.92,201.96 1657.82,201.96 1657.82,203.413 1661.73,203.413 1661.73,205.758 1665.63,205.758 1665.63,208.786 1669.54,208.786 1669.54,212.284 1673.44,212.284 1673.44,216.036 1677.35,216.036 1677.35,219.831 1681.25,219.831 1681.25,254.648 1685.16,254.648 1685.16,288.188 1689.06,288.188 1689.06,320.003 1692.97,320.003 1692.97,349.693 1696.87,349.693 1696.87,376.908 1700.78,376.908 1700.78,401.355 1704.68,401.355 1704.68,422.805 1708.59,422.805 1708.59,441.09 1712.49,441.09 1712.49,456.11 1716.4,456.11 1716.4,467.828 1720.3,467.828 1720.3,476.275 1724.2,476.275 1724.2,481.54 1728.11,481.54 1728.11,483.772 1732.01,483.772 1732.01,483.175 1735.92,483.175 1735.92,479.999 1739.82,479.999 1739.82,443.35 1743.73,443.35 1743.73,405.661 1747.63,405.661 1747.63,367.553 1751.54,367.553 1751.54,329.636 1755.44,329.636 1755.44,292.502 1759.35,292.502 1759.35,287.898 1763.25,287.898 1763.25,284.237 1767.16,284.237 1767.16,281.721 1771.06,281.721 1771.06,280.523 1774.97,280.523 1774.97,280.783 1778.87,280.783 1778.87,251.419 1782.78,251.419 1782.78,224.607 1786.68,224.607 1786.68,200.646 1790.59,200.646 1790.59,179.773 1794.49,179.773 1794.49,162.158 1798.4,162.158 1798.4,179.091 1802.3,179.091 1802.3,198.5 1806.2,198.5 1806.2,220.09 1810.11,220.09 1810.11,243.526 1814.01,243.526 1814.01,268.45 1817.92,268.45 1817.92,294.478 1821.82,294.478 1821.82,321.22 1825.73,321.22 1825.73,348.277 1829.63,348.277 1829.63,375.258 1833.54,375.258 1833.54,401.78 1837.44,401.78 1837.44,396.296 1841.35,396.296 1841.35,390.573 1845.25,390.573 1845.25,384.571 1849.16,384.571 1849.16,378.258 1853.06,378.258 1853.06,371.612 1856.97,371.612 1856.97,364.617 1860.87,364.617 1860.87,357.269 1864.78,357.269 1864.78,349.57 1868.68,349.57 1868.68,341.532 1872.59,341.532 1872.59,333.173 1876.49,333.173 1876.49,324.521 1880.4,324.521 1880.4,315.609 1884.3,315.609 1884.3,306.474 1888.21,306.474 1888.21,297.16 1892.11,297.16 1892.11,287.714 1896.01,287.714 1896.01,309.372 1899.92,309.372 1899.92,330.08 1903.82,330.08 1903.82,349.623 1907.73,349.623 1907.73,367.815 1911.63,367.815 1911.63,384.501 1915.54,384.501 1915.54,368.369 1919.44,368.369 1919.44,351.437 1923.35,351.437 1923.35,333.915 1927.25,333.915 1927.25,316.022 1931.16,316.022 1931.16,297.977 1935.06,297.977 1935.06,311.186 1938.97,311.186 1938.97,323.755 1942.87,323.755 1942.87,335.619 1946.78,335.619 1946.78,346.73 1950.68,346.73 1950.68,357.051 1954.59,357.051 1954.59,366.563 1958.49,366.563 1958.49,375.26 1962.4,375.26 1962.4,383.151 1966.3,383.151 1966.3,390.259 1970.21,390.259 1970.21,396.621 1974.11,396.621 1974.11,371.099 1978.01,371.099 1978.01,345.857 1981.92,345.857 1981.92,321.229 1985.82,321.229 1985.82,297.53 1989.73,297.53 1989.73,275.047 1993.63,275.047 1993.63,254.037 1997.54,254.037 1997.54,234.721 2001.44,234.721 2001.44,217.282 2005.35,217.282 2005.35,201.865 2009.25,201.865 2009.25,188.567 2013.16,188.567 2013.16,208.633 2017.06,208.633 2017.06,229.97 2020.97,229.97 2020.97,252.286 2024.87,252.286 2024.87,275.273 2028.78,275.273 2028.78,298.62 2032.68,298.62 2032.68,290.828 2036.59,290.828 2036.59,283.699 2040.49,283.699 2040.49,277.204 2044.4,277.204 2044.4,271.309 2048.3,271.309 2048.3,265.965 2052.21,265.965 2052.21,261.12 2056.11,261.12 2056.11,256.712 2060.02,256.712 2060.02,252.675 2063.92,252.675 2063.92,248.938 2067.82,248.938 2067.82,245.428 2071.73,245.428 2071.73,273.26 2075.63,273.26 2075.63,300.253 2079.54,300.253 2079.54,326.071 2083.44,326.071 2083.44,350.41 2087.35,350.41 2087.35,372.998 2091.25,372.998 2091.25,362.423 2095.16,362.423 2095.16,350.605 2099.06,350.605 2099.06,337.67 2102.97,337.67 2102.97,323.768 2106.87,323.768 2106.87,309.06 2110.78,309.06 2110.78,293.722 2114.68,293.722 2114.68,277.94 2118.59,277.94 2118.59,261.901 2122.49,261.901 2122.49,245.796 2126.4,245.796 2126.4,229.811 2130.3,229.811 2130.3,245.312 2134.21,245.312 2134.21,260.366 2138.11,260.366 2138.11,274.863 2142.02,274.863 2142.02,288.708 2145.92,288.708 2145.92,301.819 2149.82,301.819 2149.82,314.129 2153.73,314.129 2153.73,325.587 2157.63,325.587 2157.63,336.158 2161.54,336.158 2161.54,345.827 2165.44,345.827 2165.44,354.59 2169.35,354.59 2169.35,362.466 2173.25,362.466 2173.25,369.483 2177.16,369.483 2177.16,375.687 2181.06,375.687 2181.06,381.137 2184.97,381.137 2184.97,385.903 2188.87,385.903 2188.87,390.064 2192.78,390.064 2192.78,393.708 2196.68,393.708 2196.68,396.928 2200.59,396.928 2200.59,399.823 2204.49,399.823 2204.49,402.493 2208.4,402.493 2208.4,405.037 2212.3,405.037 2212.3,407.554 2216.21,407.554 2216.21,410.138 2220.11,410.138 2220.11,412.876 2224.02,412.876 2224.02,415.852 2227.92,415.852 2227.92,387.951 2231.83,387.951 2231.83,361.343 2235.73,361.343 2235.73,336.345 2239.63,336.345 2239.63,313.237 2243.54,313.237 2243.54,292.254 2247.44,292.254 2247.44,304.77 2251.35,304.77 2251.35,318.82 2255.25,318.82 2255.25,334.226 2259.16,334.226 2259.16,350.786 2263.06,350.786 2263.06,368.283 2266.97,368.283 2266.97,355.298 2270.87,355.298 2270.87,343.695 2274.78,343.695 2274.78,333.497 2278.68,333.497 2278.68,324.698 2282.59,324.698 2282.59,317.268 2286.49,317.268 2286.49,311.152 2290.4,311.152 2290.4,306.273 2294.3,306.273 2294.3,302.531 "/>
<path clip-path="url(#clip740)" d="M287.366 1423.18 L2352.76 1423.18 L2352.76 847.244 L287.366 847.244  Z" fill="#ffffff" fill-rule="evenodd" fill-opacity="1"/>
<defs>
  <clipPath id="clip743">
    <rect x="287" y="847" width="2066" height="577"/>
  </clipPath>
</defs>
<polyline clip-path="url(#clip743)" style="stroke:#000000; stroke-linecap:round; stroke-linejoin:round; stroke-width:2; stroke-opacity:0.1; fill:none" points="345.82,1423.18 345.82,847.244 "/>
<polyline clip-path="url(#clip743)" style="stroke:#000000; stroke-linecap:round; stroke-linejoin:round; stroke-width:2; stroke-opacity:0.1; fill:none" points="736.298,1423.18 736.298,847.244 "/>
<polyline clip-path="url(#clip743)" style="stroke:#000000; stroke-linecap:round; stroke-linejoin:round; stroke-width:2; stroke-opacity:0.1; fill:none" points="1126.77,1423.18 1126.77,847.244 "/>
<polyline clip-path="url(#clip743)" style="stroke:#000000; stroke-linecap:round; stroke-linejoin:round; stroke-width:2; stroke-opacity:0.1; fill:none" points="1517.25,1423.18 1517.25,847.244 "/>
<polyline clip-path="url(#clip743)" style="stroke:#000000; stroke-linecap:round; stroke-linejoin:round; stroke-width:2; stroke-opacity:0.1; fill:none" points="1907.73,1423.18 1907.73,847.244 "/>
<polyline clip-path="url(#clip743)" style="stroke:#000000; stroke-linecap:round; stroke-linejoin:round; stroke-width:2; stroke-opacity:0.1; fill:none" points="2298.21,1423.18 2298.21,847.244 "/>
<polyline clip-path="url(#clip743)" style="stroke:#000000; stroke-linecap:round; stroke-linejoin:round; stroke-width:2; stroke-opacity:0.1; fill:none" points="287.366,1406.88 2352.76,1406.88 "/>
<polyline clip-path="url(#clip743)" style="stroke:#000000; stroke-linecap:round; stroke-linejoin:round; stroke-width:2; stroke-opacity:0.1; fill:none" points="287.366,1271.05 2352.76,1271.05 "/>
<polyline clip-path="url(#clip743)" style="stroke:#000000; stroke-linecap:round; stroke-linejoin:round; stroke-width:2; stroke-opacity:0.1; fill:none" points="287.366,1135.21 2352.76,1135.21 "/>
<polyline clip-path="url(#clip743)" style="stroke:#000000; stroke-linecap:round; stroke-linejoin:round; stroke-width:2; stroke-opacity:0.1; fill:none" points="287.366,999.378 2352.76,999.378 "/>
<polyline clip-path="url(#clip743)" style="stroke:#000000; stroke-linecap:round; stroke-linejoin:round; stroke-width:2; stroke-opacity:0.1; fill:none" points="287.366,863.544 2352.76,863.544 "/>
<polyline clip-path="url(#clip740)" style="stroke:#000000; stroke-linecap:round; stroke-linejoin:round; stroke-width:4; stroke-opacity:1; fill:none" points="287.366,1423.18 2352.76,1423.18 "/>
<polyline clip-path="url(#clip740)" style="stroke:#000000; stroke-linecap:round; stroke-linejoin:round; stroke-width:4; stroke-opacity:1; fill:none" points="345.82,1423.18 345.82,1404.28 "/>
<polyline clip-path="url(#clip740)" style="stroke:#000000; stroke-linecap:round; stroke-linejoin:round; stroke-width:4; stroke-opacity:1; fill:none" points="736.298,1423.18 736.298,1404.28 "/>
<polyline clip-path="url(#clip740)" style="stroke:#000000; stroke-linecap:round; stroke-linejoin:round; stroke-width:4; stroke-opacity:1; fill:none" points="1126.77,1423.18 1126.77,1404.28 "/>
<polyline clip-path="url(#clip740)" style="stroke:#000000; stroke-linecap:round; stroke-linejoin:round; stroke-width:4; stroke-opacity:1; fill:none" points="1517.25,1423.18 1517.25,1404.28 "/>
<polyline clip-path="url(#clip740)" style="stroke:#000000; stroke-linecap:round; stroke-linejoin:round; stroke-width:4; stroke-opacity:1; fill:none" points="1907.73,1423.18 1907.73,1404.28 "/>
<polyline clip-path="url(#clip740)" style="stroke:#000000; stroke-linecap:round; stroke-linejoin:round; stroke-width:4; stroke-opacity:1; fill:none" points="2298.21,1423.18 2298.21,1404.28 "/>
<path clip-path="url(#clip740)" d="M345.82 1454.1 Q342.209 1454.1 340.381 1457.66 Q338.575 1461.2 338.575 1468.33 Q338.575 1475.44 340.381 1479.01 Q342.209 1482.55 345.82 1482.55 Q349.455 1482.55 351.26 1479.01 Q353.089 1475.44 353.089 1468.33 Q353.089 1461.2 351.26 1457.66 Q349.455 1454.1 345.82 1454.1 M345.82 1450.39 Q351.63 1450.39 354.686 1455 Q357.765 1459.58 357.765 1468.33 Q357.765 1477.06 354.686 1481.67 Q351.63 1486.25 345.82 1486.25 Q340.01 1486.25 336.931 1481.67 Q333.876 1477.06 333.876 1468.33 Q333.876 1459.58 336.931 1455 Q340.01 1450.39 345.82 1450.39 Z" fill="#000000" fill-rule="nonzero" fill-opacity="1" /><path clip-path="url(#clip740)" d="M726.68 1481.64 L734.318 1481.64 L734.318 1455.28 L726.008 1456.95 L726.008 1452.69 L734.272 1451.02 L738.948 1451.02 L738.948 1481.64 L746.587 1481.64 L746.587 1485.58 L726.68 1485.58 L726.68 1481.64 Z" fill="#000000" fill-rule="nonzero" fill-opacity="1" /><path clip-path="url(#clip740)" d="M1121.43 1481.64 L1137.75 1481.64 L1137.75 1485.58 L1115.8 1485.58 L1115.8 1481.64 Q1118.46 1478.89 1123.05 1474.26 Q1127.65 1469.61 1128.83 1468.27 Q1131.08 1465.74 1131.96 1464.01 Q1132.86 1462.25 1132.86 1460.56 Q1132.86 1457.8 1130.92 1456.07 Q1129 1454.33 1125.9 1454.33 Q1123.7 1454.33 1121.24 1455.09 Q1118.81 1455.86 1116.03 1457.41 L1116.03 1452.69 Q1118.86 1451.55 1121.31 1450.97 Q1123.77 1450.39 1125.8 1450.39 Q1131.17 1450.39 1134.37 1453.08 Q1137.56 1455.77 1137.56 1460.26 Q1137.56 1462.39 1136.75 1464.31 Q1135.96 1466.2 1133.86 1468.8 Q1133.28 1469.47 1130.18 1472.69 Q1127.08 1475.88 1121.43 1481.64 Z" fill="#000000" fill-rule="nonzero" fill-opacity="1" /><path clip-path="url(#clip740)" d="M1521.5 1466.95 Q1524.86 1467.66 1526.73 1469.93 Q1528.63 1472.2 1528.63 1475.53 Q1528.63 1480.65 1525.11 1483.45 Q1521.59 1486.25 1515.11 1486.25 Q1512.93 1486.25 1510.62 1485.81 Q1508.33 1485.39 1505.87 1484.54 L1505.87 1480.02 Q1507.82 1481.16 1510.13 1481.74 Q1512.45 1482.32 1514.97 1482.32 Q1519.37 1482.32 1521.66 1480.58 Q1523.98 1478.84 1523.98 1475.53 Q1523.98 1472.48 1521.82 1470.77 Q1519.69 1469.03 1515.87 1469.03 L1511.85 1469.03 L1511.85 1465.19 L1516.06 1465.19 Q1519.51 1465.19 1521.34 1463.82 Q1523.17 1462.43 1523.17 1459.84 Q1523.17 1457.18 1521.27 1455.77 Q1519.39 1454.33 1515.87 1454.33 Q1513.95 1454.33 1511.75 1454.75 Q1509.56 1455.16 1506.92 1456.04 L1506.92 1451.88 Q1509.58 1451.14 1511.89 1450.77 Q1514.23 1450.39 1516.29 1450.39 Q1521.62 1450.39 1524.72 1452.83 Q1527.82 1455.23 1527.82 1459.35 Q1527.82 1462.22 1526.18 1464.21 Q1524.53 1466.18 1521.5 1466.95 Z" fill="#000000" fill-rule="nonzero" fill-opacity="1" /><path clip-path="url(#clip740)" d="M1910.74 1455.09 L1898.93 1473.54 L1910.74 1473.54 L1910.74 1455.09 M1909.51 1451.02 L1915.39 1451.02 L1915.39 1473.54 L1920.32 1473.54 L1920.32 1477.43 L1915.39 1477.43 L1915.39 1485.58 L1910.74 1485.58 L1910.74 1477.43 L1895.14 1477.43 L1895.14 1472.92 L1909.51 1451.02 Z" fill="#000000" fill-rule="nonzero" fill-opacity="1" /><path clip-path="url(#clip740)" d="M2288.48 1451.02 L2306.84 1451.02 L2306.84 1454.96 L2292.77 1454.96 L2292.77 1463.43 Q2293.78 1463.08 2294.8 1462.92 Q2295.82 1462.73 2296.84 1462.73 Q2302.63 1462.73 2306.01 1465.9 Q2309.39 1469.08 2309.39 1474.49 Q2309.39 1480.07 2305.91 1483.17 Q2302.44 1486.25 2296.12 1486.25 Q2293.95 1486.25 2291.68 1485.88 Q2289.43 1485.51 2287.03 1484.77 L2287.03 1480.07 Q2289.11 1481.2 2291.33 1481.76 Q2293.55 1482.32 2296.03 1482.32 Q2300.03 1482.32 2302.37 1480.21 Q2304.71 1478.1 2304.71 1474.49 Q2304.71 1470.88 2302.37 1468.77 Q2300.03 1466.67 2296.03 1466.67 Q2294.16 1466.67 2292.28 1467.08 Q2290.43 1467.5 2288.48 1468.38 L2288.48 1451.02 Z" fill="#000000" fill-rule="nonzero" fill-opacity="1" /><path clip-path="url(#clip740)" d="M1190.23 1520.52 L1230.43 1520.52 L1230.43 1525.93 L1213.56 1525.93 L1213.56 1568.04 L1207.1 1568.04 L1207.1 1525.93 L1190.23 1525.93 L1190.23 1520.52 Z" fill="#000000" fill-rule="nonzero" fill-opacity="1" /><path clip-path="url(#clip740)" d="M1234.38 1532.4 L1240.23 1532.4 L1240.23 1568.04 L1234.38 1568.04 L1234.38 1532.4 M1234.38 1518.52 L1240.23 1518.52 L1240.23 1525.93 L1234.38 1525.93 L1234.38 1518.52 Z" fill="#000000" fill-rule="nonzero" fill-opacity="1" /><path clip-path="url(#clip740)" d="M1280.24 1539.24 Q1282.44 1535.29 1285.5 1533.41 Q1288.55 1531.54 1292.69 1531.54 Q1298.26 1531.54 1301.28 1535.45 Q1304.31 1539.33 1304.31 1546.53 L1304.31 1568.04 L1298.42 1568.04 L1298.42 1546.72 Q1298.42 1541.59 1296.6 1539.11 Q1294.79 1536.63 1291.07 1536.63 Q1286.51 1536.63 1283.87 1539.65 Q1281.23 1542.68 1281.23 1547.9 L1281.23 1568.04 L1275.34 1568.04 L1275.34 1546.72 Q1275.34 1541.56 1273.53 1539.11 Q1271.71 1536.63 1267.93 1536.63 Q1263.44 1536.63 1260.8 1539.68 Q1258.15 1542.71 1258.15 1547.9 L1258.15 1568.04 L1252.27 1568.04 L1252.27 1532.4 L1258.15 1532.4 L1258.15 1537.93 Q1260.16 1534.66 1262.96 1533.1 Q1265.76 1531.54 1269.61 1531.54 Q1273.5 1531.54 1276.2 1533.51 Q1278.94 1535.48 1280.24 1539.24 Z" fill="#000000" fill-rule="nonzero" fill-opacity="1" /><path clip-path="url(#clip740)" d="M1346.48 1548.76 L1346.48 1551.62 L1319.55 1551.62 Q1319.93 1557.67 1323.18 1560.85 Q1326.46 1564 1332.28 1564 Q1335.66 1564 1338.81 1563.17 Q1341.99 1562.35 1345.11 1560.69 L1345.11 1566.23 Q1341.96 1567.57 1338.65 1568.27 Q1335.34 1568.97 1331.93 1568.97 Q1323.4 1568.97 1318.41 1564 Q1313.44 1559.04 1313.44 1550.57 Q1313.44 1541.82 1318.15 1536.69 Q1322.89 1531.54 1330.91 1531.54 Q1338.11 1531.54 1342.28 1536.18 Q1346.48 1540.8 1346.48 1548.76 M1340.62 1547.04 Q1340.56 1542.23 1337.92 1539.37 Q1335.31 1536.5 1330.98 1536.5 Q1326.08 1536.5 1323.12 1539.27 Q1320.19 1542.04 1319.74 1547.07 L1340.62 1547.04 Z" fill="#000000" fill-rule="nonzero" fill-opacity="1" /><path clip-path="url(#clip740)" d="M1390.88 1518.58 Q1386.61 1525.9 1384.55 1533.06 Q1382.48 1540.23 1382.48 1547.58 Q1382.48 1554.93 1384.55 1562.16 Q1386.65 1569.35 1390.88 1576.64 L1385.79 1576.64 Q1381.01 1569.16 1378.63 1561.93 Q1376.27 1554.71 1376.27 1547.58 Q1376.27 1540.48 1378.63 1533.29 Q1380.98 1526.09 1385.79 1518.58 L1390.88 1518.58 Z" fill="#000000" fill-rule="nonzero" fill-opacity="1" /><path clip-path="url(#clip740)" d="M1424.97 1533.45 L1424.97 1538.98 Q1422.49 1537.71 1419.81 1537.07 Q1417.14 1536.44 1414.27 1536.44 Q1409.91 1536.44 1407.72 1537.77 Q1405.55 1539.11 1405.55 1541.79 Q1405.55 1543.82 1407.11 1545 Q1408.67 1546.15 1413.38 1547.2 L1415.39 1547.64 Q1421.63 1548.98 1424.24 1551.43 Q1426.88 1553.85 1426.88 1558.21 Q1426.88 1563.17 1422.93 1566.07 Q1419.02 1568.97 1412.14 1568.97 Q1409.28 1568.97 1406.16 1568.39 Q1403.07 1567.85 1399.63 1566.74 L1399.63 1560.69 Q1402.88 1562.38 1406.03 1563.24 Q1409.18 1564.07 1412.27 1564.07 Q1416.41 1564.07 1418.63 1562.66 Q1420.86 1561.23 1420.86 1558.65 Q1420.86 1556.27 1419.24 1554.99 Q1417.65 1553.72 1412.2 1552.54 L1410.17 1552.07 Q1404.72 1550.92 1402.31 1548.56 Q1399.89 1546.18 1399.89 1542.04 Q1399.89 1537.01 1403.45 1534.27 Q1407.02 1531.54 1413.57 1531.54 Q1416.82 1531.54 1419.68 1532.01 Q1422.55 1532.49 1424.97 1533.45 Z" fill="#000000" fill-rule="nonzero" fill-opacity="1" /><path clip-path="url(#clip740)" d="M1435.28 1518.58 L1440.37 1518.58 Q1445.15 1526.09 1447.5 1533.29 Q1449.89 1540.48 1449.89 1547.58 Q1449.89 1554.71 1447.5 1561.93 Q1445.15 1569.16 1440.37 1576.64 L1435.28 1576.64 Q1439.51 1569.35 1441.58 1562.16 Q1443.68 1554.93 1443.68 1547.58 Q1443.68 1540.23 1441.58 1533.06 Q1439.51 1525.9 1435.28 1518.58 Z" fill="#000000" fill-rule="nonzero" fill-opacity="1" /><polyline clip-path="url(#clip740)" style="stroke:#000000; stroke-linecap:round; stroke-linejoin:round; stroke-width:4; stroke-opacity:1; fill:none" points="287.366,1423.18 287.366,847.244 "/>
<polyline clip-path="url(#clip740)" style="stroke:#000000; stroke-linecap:round; stroke-linejoin:round; stroke-width:4; stroke-opacity:1; fill:none" points="287.366,1406.88 306.264,1406.88 "/>
<polyline clip-path="url(#clip740)" style="stroke:#000000; stroke-linecap:round; stroke-linejoin:round; stroke-width:4; stroke-opacity:1; fill:none" points="287.366,1271.05 306.264,1271.05 "/>
<polyline clip-path="url(#clip740)" style="stroke:#000000; stroke-linecap:round; stroke-linejoin:round; stroke-width:4; stroke-opacity:1; fill:none" points="287.366,1135.21 306.264,1135.21 "/>
<polyline clip-path="url(#clip740)" style="stroke:#000000; stroke-linecap:round; stroke-linejoin:round; stroke-width:4; stroke-opacity:1; fill:none" points="287.366,999.378 306.264,999.378 "/>
<polyline clip-path="url(#clip740)" style="stroke:#000000; stroke-linecap:round; stroke-linejoin:round; stroke-width:4; stroke-opacity:1; fill:none" points="287.366,863.544 306.264,863.544 "/>
<path clip-path="url(#clip740)" d="M144.422 1407.33 L174.098 1407.33 L174.098 1411.27 L144.422 1411.27 L144.422 1407.33 Z" fill="#000000" fill-rule="nonzero" fill-opacity="1" /><path clip-path="url(#clip740)" d="M185.001 1420.22 L192.639 1420.22 L192.639 1393.86 L184.329 1395.53 L184.329 1391.27 L192.593 1389.6 L197.269 1389.6 L197.269 1420.22 L204.908 1420.22 L204.908 1424.16 L185.001 1424.16 L185.001 1420.22 Z" fill="#000000" fill-rule="nonzero" fill-opacity="1" /><path clip-path="url(#clip740)" d="M214.352 1418.28 L219.236 1418.28 L219.236 1424.16 L214.352 1424.16 L214.352 1418.28 Z" fill="#000000" fill-rule="nonzero" fill-opacity="1" /><path clip-path="url(#clip740)" d="M239.422 1392.68 Q235.81 1392.68 233.982 1396.24 Q232.176 1399.78 232.176 1406.91 Q232.176 1414.02 233.982 1417.59 Q235.81 1421.13 239.422 1421.13 Q243.056 1421.13 244.861 1417.59 Q246.69 1414.02 246.69 1406.91 Q246.69 1399.78 244.861 1396.24 Q243.056 1392.68 239.422 1392.68 M239.422 1388.97 Q245.232 1388.97 248.287 1393.58 Q251.366 1398.16 251.366 1406.91 Q251.366 1415.64 248.287 1420.25 Q245.232 1424.83 239.422 1424.83 Q233.611 1424.83 230.533 1420.25 Q227.477 1415.64 227.477 1406.91 Q227.477 1398.16 230.533 1393.58 Q233.611 1388.97 239.422 1388.97 Z" fill="#000000" fill-rule="nonzero" fill-opacity="1" /><path clip-path="url(#clip740)" d="M145.417 1271.5 L175.093 1271.5 L175.093 1275.43 L145.417 1275.43 L145.417 1271.5 Z" fill="#000000" fill-rule="nonzero" fill-opacity="1" /><path clip-path="url(#clip740)" d="M195.186 1256.84 Q191.575 1256.84 189.746 1260.41 Q187.94 1263.95 187.94 1271.08 Q187.94 1278.19 189.746 1281.75 Q191.575 1285.29 195.186 1285.29 Q198.82 1285.29 200.625 1281.75 Q202.454 1278.19 202.454 1271.08 Q202.454 1263.95 200.625 1260.41 Q198.82 1256.84 195.186 1256.84 M195.186 1253.14 Q200.996 1253.14 204.051 1257.75 Q207.13 1262.33 207.13 1271.08 Q207.13 1279.81 204.051 1284.41 Q200.996 1289 195.186 1289 Q189.375 1289 186.297 1284.41 Q183.241 1279.81 183.241 1271.08 Q183.241 1262.33 186.297 1257.75 Q189.375 1253.14 195.186 1253.14 Z" fill="#000000" fill-rule="nonzero" fill-opacity="1" /><path clip-path="url(#clip740)" d="M215.348 1282.45 L220.232 1282.45 L220.232 1288.33 L215.348 1288.33 L215.348 1282.45 Z" fill="#000000" fill-rule="nonzero" fill-opacity="1" /><path clip-path="url(#clip740)" d="M230.463 1253.77 L248.82 1253.77 L248.82 1257.7 L234.746 1257.7 L234.746 1266.17 Q235.764 1265.83 236.783 1265.66 Q237.801 1265.48 238.82 1265.48 Q244.607 1265.48 247.986 1268.65 Q251.366 1271.82 251.366 1277.24 Q251.366 1282.82 247.894 1285.92 Q244.421 1289 238.102 1289 Q235.926 1289 233.658 1288.63 Q231.412 1288.26 229.005 1287.52 L229.005 1282.82 Q231.088 1283.95 233.31 1284.51 Q235.533 1285.06 238.009 1285.06 Q242.014 1285.06 244.352 1282.96 Q246.69 1280.85 246.69 1277.24 Q246.69 1273.63 244.352 1271.52 Q242.014 1269.41 238.009 1269.41 Q236.135 1269.41 234.26 1269.83 Q232.408 1270.25 230.463 1271.13 L230.463 1253.77 Z" fill="#000000" fill-rule="nonzero" fill-opacity="1" /><path clip-path="url(#clip740)" d="M194.19 1121.01 Q190.579 1121.01 188.75 1124.58 Q186.945 1128.12 186.945 1135.25 Q186.945 1142.35 188.75 1145.92 Q190.579 1149.46 194.19 1149.46 Q197.825 1149.46 199.63 1145.92 Q201.459 1142.35 201.459 1135.25 Q201.459 1128.12 199.63 1124.58 Q197.825 1121.01 194.19 1121.01 M194.19 1117.31 Q200 1117.31 203.056 1121.91 Q206.135 1126.5 206.135 1135.25 Q206.135 1143.97 203.056 1148.58 Q200 1153.16 194.19 1153.16 Q188.38 1153.16 185.301 1148.58 Q182.246 1143.97 182.246 1135.25 Q182.246 1126.5 185.301 1121.91 Q188.38 1117.31 194.19 1117.31 Z" fill="#000000" fill-rule="nonzero" fill-opacity="1" /><path clip-path="url(#clip740)" d="M214.352 1146.61 L219.236 1146.61 L219.236 1152.49 L214.352 1152.49 L214.352 1146.61 Z" fill="#000000" fill-rule="nonzero" fill-opacity="1" /><path clip-path="url(#clip740)" d="M239.422 1121.01 Q235.81 1121.01 233.982 1124.58 Q232.176 1128.12 232.176 1135.25 Q232.176 1142.35 233.982 1145.92 Q235.81 1149.46 239.422 1149.46 Q243.056 1149.46 244.861 1145.92 Q246.69 1142.35 246.69 1135.25 Q246.69 1128.12 244.861 1124.58 Q243.056 1121.01 239.422 1121.01 M239.422 1117.31 Q245.232 1117.31 248.287 1121.91 Q251.366 1126.5 251.366 1135.25 Q251.366 1143.97 248.287 1148.58 Q245.232 1153.16 239.422 1153.16 Q233.611 1153.16 230.533 1148.58 Q227.477 1143.97 227.477 1135.25 Q227.477 1126.5 230.533 1121.91 Q233.611 1117.31 239.422 1117.31 Z" fill="#000000" fill-rule="nonzero" fill-opacity="1" /><path clip-path="url(#clip740)" d="M195.186 985.177 Q191.575 985.177 189.746 988.742 Q187.94 992.283 187.94 999.413 Q187.94 1006.52 189.746 1010.08 Q191.575 1013.63 195.186 1013.63 Q198.82 1013.63 200.625 1010.08 Q202.454 1006.52 202.454 999.413 Q202.454 992.283 200.625 988.742 Q198.82 985.177 195.186 985.177 M195.186 981.473 Q200.996 981.473 204.051 986.08 Q207.13 990.663 207.13 999.413 Q207.13 1008.14 204.051 1012.75 Q200.996 1017.33 195.186 1017.33 Q189.375 1017.33 186.297 1012.75 Q183.241 1008.14 183.241 999.413 Q183.241 990.663 186.297 986.08 Q189.375 981.473 195.186 981.473 Z" fill="#000000" fill-rule="nonzero" fill-opacity="1" /><path clip-path="url(#clip740)" d="M215.348 1010.78 L220.232 1010.78 L220.232 1016.66 L215.348 1016.66 L215.348 1010.78 Z" fill="#000000" fill-rule="nonzero" fill-opacity="1" /><path clip-path="url(#clip740)" d="M230.463 982.098 L248.82 982.098 L248.82 986.033 L234.746 986.033 L234.746 994.505 Q235.764 994.158 236.783 993.996 Q237.801 993.811 238.82 993.811 Q244.607 993.811 247.986 996.982 Q251.366 1000.15 251.366 1005.57 Q251.366 1011.15 247.894 1014.25 Q244.421 1017.33 238.102 1017.33 Q235.926 1017.33 233.658 1016.96 Q231.412 1016.59 229.005 1015.85 L229.005 1011.15 Q231.088 1012.28 233.31 1012.84 Q235.533 1013.39 238.009 1013.39 Q242.014 1013.39 244.352 1011.29 Q246.69 1009.18 246.69 1005.57 Q246.69 1001.96 244.352 999.853 Q242.014 997.746 238.009 997.746 Q236.135 997.746 234.26 998.163 Q232.408 998.579 230.463 999.459 L230.463 982.098 Z" fill="#000000" fill-rule="nonzero" fill-opacity="1" /><path clip-path="url(#clip740)" d="M185.001 876.889 L192.639 876.889 L192.639 850.523 L184.329 852.19 L184.329 847.931 L192.593 846.264 L197.269 846.264 L197.269 876.889 L204.908 876.889 L204.908 880.824 L185.001 880.824 L185.001 876.889 Z" fill="#000000" fill-rule="nonzero" fill-opacity="1" /><path clip-path="url(#clip740)" d="M214.352 874.945 L219.236 874.945 L219.236 880.824 L214.352 880.824 L214.352 874.945 Z" fill="#000000" fill-rule="nonzero" fill-opacity="1" /><path clip-path="url(#clip740)" d="M239.422 849.343 Q235.81 849.343 233.982 852.908 Q232.176 856.449 232.176 863.579 Q232.176 870.685 233.982 874.25 Q235.81 877.792 239.422 877.792 Q243.056 877.792 244.861 874.25 Q246.69 870.685 246.69 863.579 Q246.69 856.449 244.861 852.908 Q243.056 849.343 239.422 849.343 M239.422 845.639 Q245.232 845.639 248.287 850.246 Q251.366 854.829 251.366 863.579 Q251.366 872.306 248.287 876.912 Q245.232 881.495 239.422 881.495 Q233.611 881.495 230.533 876.912 Q227.477 872.306 227.477 863.579 Q227.477 854.829 230.533 850.246 Q233.611 845.639 239.422 845.639 Z" fill="#000000" fill-rule="nonzero" fill-opacity="1" /><path clip-path="url(#clip740)" d="M80.0978 1150.14 L58.5181 1150.14 L58.5181 1144.28 L79.875 1144.28 Q84.9358 1144.28 87.482 1142.31 Q89.9965 1140.34 89.9965 1136.39 Q89.9965 1131.65 86.9728 1128.91 Q83.9491 1126.14 78.7292 1126.14 L58.5181 1126.14 L58.5181 1120.28 L94.166 1120.28 L94.166 1126.14 L88.6915 1126.14 Q91.938 1128.27 93.5295 1131.11 Q95.0891 1133.91 95.0891 1137.63 Q95.0891 1143.77 91.2696 1146.96 Q87.4502 1150.14 80.0978 1150.14 M57.6587 1135.4 L57.6587 1135.4 Z" fill="#000000" fill-rule="nonzero" fill-opacity="1" /><polyline clip-path="url(#clip743)" style="stroke:#009af9; stroke-linecap:round; stroke-linejoin:round; stroke-width:4; stroke-opacity:1; fill:none" points="345.82,1406.88 349.725,1406.88 353.63,1406.88 357.535,1406.88 361.439,1406.88 365.344,1406.88 369.249,1406.88 373.154,1406.88 377.059,1406.88 380.963,1406.88 384.868,1406.88 388.773,1406.88 392.678,1406.88 396.582,1406.88 400.487,1406.88 404.392,1406.88 408.297,1406.88 412.201,1406.88 416.106,1406.88 420.011,1406.88 423.916,1406.88 423.916,863.544 427.821,863.544 431.725,863.544 435.63,863.544 439.535,863.544 443.44,863.544 443.44,1406.88 447.344,1406.88 451.249,1406.88 455.154,1406.88 459.059,1406.88 462.963,1406.88 462.963,863.544 466.868,863.544 470.773,863.544 474.678,863.544 478.583,863.544 482.487,863.544 486.392,863.544 490.297,863.544 494.202,863.544 498.106,863.544 502.011,863.544 505.916,863.544 509.821,863.544 513.726,863.544 517.63,863.544 521.535,863.544 521.535,1406.88 525.44,1406.88 529.345,1406.88 533.249,1406.88 537.154,1406.88 541.059,1406.88 541.059,863.544 544.964,863.544 548.868,863.544 552.773,863.544 556.678,863.544 560.583,863.544 560.583,1406.88 564.488,1406.88 568.392,1406.88 572.297,1406.88 576.202,1406.88 580.107,1406.88 584.011,1406.88 587.916,1406.88 591.821,1406.88 595.726,1406.88 599.631,1406.88 599.631,863.544 603.535,863.544 607.44,863.544 611.345,863.544 615.25,863.544 619.154,863.544 619.154,1406.88 623.059,1406.88 626.964,1406.88 630.869,1406.88 634.773,1406.88 638.678,1406.88 642.583,1406.88 646.488,1406.88 650.393,1406.88 654.297,1406.88 658.202,1406.88 658.202,863.544 662.107,863.544 666.012,863.544 669.916,863.544 673.821,863.544 677.726,863.544 681.631,863.544 685.535,863.544 689.44,863.544 693.345,863.544 697.25,863.544 697.25,1406.88 701.155,1406.88 705.059,1406.88 708.964,1406.88 712.869,1406.88 716.774,1406.88 720.678,1406.88 724.583,1406.88 728.488,1406.88 732.393,1406.88 736.298,1406.88 740.202,1406.88 744.107,1406.88 748.012,1406.88 751.917,1406.88 755.821,1406.88 755.821,863.544 759.726,863.544 763.631,863.544 767.536,863.544 771.44,863.544 775.345,863.544 775.345,1406.88 779.25,1406.88 783.155,1406.88 787.06,1406.88 790.964,1406.88 794.869,1406.88 794.869,863.544 798.774,863.544 802.679,863.544 806.583,863.544 810.488,863.544 814.393,863.544 818.298,863.544 822.202,863.544 826.107,863.544 830.012,863.544 833.917,863.544 837.822,863.544 841.726,863.544 845.631,863.544 849.536,863.544 853.441,863.544 857.345,863.544 861.25,863.544 865.155,863.544 869.06,863.544 872.965,863.544 876.869,863.544 880.774,863.544 884.679,863.544 888.584,863.544 892.488,863.544 896.393,863.544 900.298,863.544 904.203,863.544 908.107,863.544 912.012,863.544 912.012,1406.88 915.917,1406.88 919.822,1406.88 923.727,1406.88 927.631,1406.88 931.536,1406.88 935.441,1406.88 939.346,1406.88 943.25,1406.88 947.155,1406.88 951.06,1406.88 951.06,863.544 954.965,863.544 958.87,863.544 962.774,863.544 966.679,863.544 970.584,863.544 974.489,863.544 978.393,863.544 982.298,863.544 986.203,863.544 990.108,863.544 990.108,1406.88 994.012,1406.88 997.917,1406.88 1001.82,1406.88 1005.73,1406.88 1009.63,1406.88 1013.54,1406.88 1017.44,1406.88 1021.35,1406.88 1025.25,1406.88 1029.16,1406.88 1033.06,1406.88 1036.96,1406.88 1040.87,1406.88 1044.77,1406.88 1048.68,1406.88 1048.68,863.544 1052.58,863.544 1056.49,863.544 1060.39,863.544 1064.3,863.544 1068.2,863.544 1072.11,863.544 1076.01,863.544 1079.92,863.544 1083.82,863.544 1087.73,863.544 1087.73,1406.88 1091.63,1406.88 1095.54,1406.88 1099.44,1406.88 1103.35,1406.88 1107.25,1406.88 1107.25,863.544 1111.16,863.544 1115.06,863.544 1118.97,863.544 1122.87,863.544 1126.77,863.544 1130.68,863.544 1134.58,863.544 1138.49,863.544 1142.39,863.544 1146.3,863.544 1150.2,863.544 1154.11,863.544 1158.01,863.544 1161.92,863.544 1165.82,863.544 1165.82,1406.88 1169.73,1406.88 1173.63,1406.88 1177.54,1406.88 1181.44,1406.88 1185.35,1406.88 1189.25,1406.88 1193.16,1406.88 1197.06,1406.88 1200.97,1406.88 1204.87,1406.88 1208.77,1406.88 1212.68,1406.88 1216.58,1406.88 1220.49,1406.88 1224.39,1406.88 1228.3,1406.88 1232.2,1406.88 1236.11,1406.88 1240.01,1406.88 1243.92,1406.88 1243.92,863.544 1247.82,863.544 1251.73,863.544 1255.63,863.544 1259.54,863.544 1263.44,863.544 1267.35,863.544 1271.25,863.544 1275.16,863.544 1279.06,863.544 1282.97,863.544 1286.87,863.544 1290.78,863.544 1294.68,863.544 1298.58,863.544 1302.49,863.544 1306.39,863.544 1310.3,863.544 1314.2,863.544 1318.11,863.544 1322.01,863.544 1322.01,1406.88 1325.92,1406.88 1329.82,1406.88 1333.73,1406.88 1337.63,1406.88 1341.54,1406.88 1345.44,1406.88 1349.35,1406.88 1353.25,1406.88 1357.16,1406.88 1361.06,1406.88 1361.06,863.544 1364.97,863.544 1368.87,863.544 1372.78,863.544 1376.68,863.544 1380.58,863.544 1384.49,863.544 1388.39,863.544 1392.3,863.544 1396.2,863.544 1400.11,863.544 1404.01,863.544 1407.92,863.544 1411.82,863.544 1415.73,863.544 1419.63,863.544 1423.54,863.544 1427.44,863.544 1431.35,863.544 1435.25,863.544 1439.16,863.544 1439.16,1406.88 1443.06,1406.88 1446.97,1406.88 1450.87,1406.88 1454.78,1406.88 1458.68,1406.88 1462.59,1406.88 1466.49,1406.88 1470.39,1406.88 1474.3,1406.88 1478.2,1406.88 1478.2,863.544 1482.11,863.544 1486.01,863.544 1489.92,863.544 1493.82,863.544 1497.73,863.544 1497.73,1406.88 1501.63,1406.88 1505.54,1406.88 1509.44,1406.88 1513.35,1406.88 1517.25,1406.88 1521.16,1406.88 1525.06,1406.88 1528.97,1406.88 1532.87,1406.88 1536.78,1406.88 1536.78,863.544 1540.68,863.544 1544.59,863.544 1548.49,863.544 1552.39,863.544 1556.3,863.544 1556.3,1406.88 1560.2,1406.88 1564.11,1406.88 1568.01,1406.88 1571.92,1406.88 1575.82,1406.88 1579.73,1406.88 1583.63,1406.88 1587.54,1406.88 1591.44,1406.88 1595.35,1406.88 1595.35,863.544 1599.25,863.544 1603.16,863.544 1607.06,863.544 1610.97,863.544 1614.87,863.544 1618.78,863.544 1622.68,863.544 1626.59,863.544 1630.49,863.544 1634.4,863.544 1638.3,863.544 1642.2,863.544 1646.11,863.544 1650.01,863.544 1653.92,863.544 1657.82,863.544 1661.73,863.544 1665.63,863.544 1669.54,863.544 1673.44,863.544 1673.44,1406.88 1677.35,1406.88 1681.25,1406.88 1685.16,1406.88 1689.06,1406.88 1692.97,1406.88 1696.87,1406.88 1700.78,1406.88 1704.68,1406.88 1708.59,1406.88 1712.49,1406.88 1716.4,1406.88 1720.3,1406.88 1724.2,1406.88 1728.11,1406.88 1732.01,1406.88 1732.01,863.544 1735.92,863.544 1739.82,863.544 1743.73,863.544 1747.63,863.544 1751.54,863.544 1751.54,1406.88 1755.44,1406.88 1759.35,1406.88 1763.25,1406.88 1767.16,1406.88 1771.06,1406.88 1771.06,863.544 1774.97,863.544 1778.87,863.544 1782.78,863.544 1786.68,863.544 1790.59,863.544 1790.59,1406.88 1794.49,1406.88 1798.4,1406.88 1802.3,1406.88 1806.2,1406.88 1810.11,1406.88 1814.01,1406.88 1817.92,1406.88 1821.82,1406.88 1825.73,1406.88 1829.63,1406.88 1829.63,863.544 1833.54,863.544 1837.44,863.544 1841.35,863.544 1845.25,863.544 1849.16,863.544 1853.06,863.544 1856.97,863.544 1860.87,863.544 1864.78,863.544 1868.68,863.544 1872.59,863.544 1876.49,863.544 1880.4,863.544 1884.3,863.544 1888.21,863.544 1888.21,1406.88 1892.11,1406.88 1896.01,1406.88 1899.92,1406.88 1903.82,1406.88 1907.73,1406.88 1907.73,863.544 1911.63,863.544 1915.54,863.544 1919.44,863.544 1923.35,863.544 1927.25,863.544 1927.25,1406.88 1931.16,1406.88 1935.06,1406.88 1938.97,1406.88 1942.87,1406.88 1946.78,1406.88 1950.68,1406.88 1954.59,1406.88 1958.49,1406.88 1962.4,1406.88 1966.3,1406.88 1966.3,863.544 1970.21,863.544 1974.11,863.544 1978.01,863.544 1981.92,863.544 1985.82,863.544 1989.73,863.544 1993.63,863.544 1997.54,863.544 2001.44,863.544 2005.35,863.544 2005.35,1406.88 2009.25,1406.88 2013.16,1406.88 2017.06,1406.88 2020.97,1406.88 2024.87,1406.88 2024.87,863.544 2028.78,863.544 2032.68,863.544 2036.59,863.544 2040.49,863.544 2044.4,863.544 2048.3,863.544 2052.21,863.544 2056.11,863.544 2060.02,863.544 2063.92,863.544 2063.92,1406.88 2067.82,1406.88 2071.73,1406.88 2075.63,1406.88 2079.54,1406.88 2083.44,1406.88 2083.44,863.544 2087.35,863.544 2091.25,863.544 2095.16,863.544 2099.06,863.544 2102.97,863.544 2106.87,863.544 2110.78,863.544 2114.68,863.544 2118.59,863.544 2122.49,863.544 2122.49,1406.88 2126.4,1406.88 2130.3,1406.88 2134.21,1406.88 2138.11,1406.88 2142.02,1406.88 2145.92,1406.88 2149.82,1406.88 2153.73,1406.88 2157.63,1406.88 2161.54,1406.88 2165.44,1406.88 2169.35,1406.88 2173.25,1406.88 2177.16,1406.88 2181.06,1406.88 2184.97,1406.88 2188.87,1406.88 2192.78,1406.88 2196.68,1406.88 2200.59,1406.88 2204.49,1406.88 2208.4,1406.88 2212.3,1406.88 2216.21,1406.88 2220.11,1406.88 2220.11,863.544 2224.02,863.544 2227.92,863.544 2231.83,863.544 2235.73,863.544 2239.63,863.544 2239.63,1406.88 2243.54,1406.88 2247.44,1406.88 2251.35,1406.88 2255.25,1406.88 2259.16,1406.88 2259.16,863.544 2263.06,863.544 2266.97,863.544 2270.87,863.544 2274.78,863.544 2278.68,863.544 2282.59,863.544 2286.49,863.544 2290.4,863.544 2294.3,863.544 "/>
</svg>
