<?xml version="1.0" encoding="utf-8"?>
<svg xmlns="http://www.w3.org/2000/svg" xmlns:xlink="http://www.w3.org/1999/xlink" width="600" height="400" viewBox="0 0 2400 1600">
<defs>
  <clipPath id="clip830">
    <rect x="0" y="0" width="2400" height="1600"/>
  </clipPath>
</defs>
<path clip-path="url(#clip830)" d="M0 1600 L2400 1600 L2400 0 L0 0  Z" fill="#ffffff" fill-rule="evenodd" fill-opacity="1"/>
<defs>
  <clipPath id="clip831">
    <rect x="480" y="0" width="1681" height="1600"/>
  </clipPath>
</defs>
<path clip-path="url(#clip830)" d="M287.366 1423.18 L2352.76 1423.18 L2352.76 47.2441 L287.366 47.2441  Z" fill="#ffffff" fill-rule="evenodd" fill-opacity="1"/>
<defs>
  <clipPath id="clip832">
    <rect x="287" y="47" width="2066" height="1377"/>
  </clipPath>
</defs>
<polyline clip-path="url(#clip832)" style="stroke:#000000; stroke-linecap:round; stroke-linejoin:round; stroke-width:2; stroke-opacity:0.1; fill:none" points="345.82,1423.18 345.82,47.2441 "/>
<polyline clip-path="url(#clip832)" style="stroke:#000000; stroke-linecap:round; stroke-linejoin:round; stroke-width:2; stroke-opacity:0.1; fill:none" points="736.298,1423.18 736.298,47.2441 "/>
<polyline clip-path="url(#clip832)" style="stroke:#000000; stroke-linecap:round; stroke-linejoin:round; stroke-width:2; stroke-opacity:0.1; fill:none" points="1126.77,1423.18 1126.77,47.2441 "/>
<polyline clip-path="url(#clip832)" style="stroke:#000000; stroke-linecap:round; stroke-linejoin:round; stroke-width:2; stroke-opacity:0.1; fill:none" points="1517.25,1423.18 1517.25,47.2441 "/>
<polyline clip-path="url(#clip832)" style="stroke:#000000; stroke-linecap:round; stroke-linejoin:round; stroke-width:2; stroke-opacity:0.1; fill:none" points="1907.73,1423.18 1907.73,47.2441 "/>
<polyline clip-path="url(#clip832)" style="stroke:#000000; stroke-linecap:round; stroke-linejoin:round; stroke-width:2; stroke-opacity:0.1; fill:none" points="2298.21,1423.18 2298.21,47.2441 "/>
<polyline clip-path="url(#clip832)" style="stroke:#000000; stroke-linecap:round; stroke-linejoin:round; stroke-width:2; stroke-opacity:0.1; fill:none" points="287.366,1330.64 2352.76,1330.64 "/>
<polyline clip-path="url(#clip832)" style="stroke:#000000; stroke-linecap:round; stroke-linejoin:round; stroke-width:2; stroke-opacity:0.1; fill:none" points="287.366,1142.52 2352.76,1142.52 "/>
<polyline clip-path="url(#clip832)" style="stroke:#000000; stroke-linecap:round; stroke-linejoin:round; stroke-width:2; stroke-opacity:0.1; fill:none" points="287.366,954.411 2352.76,954.411 "/>
<polyline clip-path="url(#clip832)" style="stroke:#000000; stroke-linecap:round; stroke-linejoin:round; stroke-width:2; stroke-opacity:0.1; fill:none" points="287.366,766.298 2352.76,766.298 "/>
<polyline clip-path="url(#clip832)" style="stroke:#000000; stroke-linecap:round; stroke-linejoin:round; stroke-width:2; stroke-opacity:0.1; fill:none" points="287.366,578.186 2352.76,578.186 "/>
<polyline clip-path="url(#clip832)" style="stroke:#000000; stroke-linecap:round; stroke-linejoin:round; stroke-width:2; stroke-opacity:0.1; fill:none" points="287.366,390.073 2352.76,390.073 "/>
<polyline clip-path="url(#clip832)" style="stroke:#000000; stroke-linecap:round; stroke-linejoin:round; stroke-width:2; stroke-opacity:0.1; fill:none" points="287.366,201.96 2352.76,201.96 "/>
<polyline clip-path="url(#clip830)" style="stroke:#000000; stroke-linecap:round; stroke-linejoin:round; stroke-width:4; stroke-opacity:1; fill:none" points="287.366,1423.18 2352.76,1423.18 "/>
<polyline clip-path="url(#clip830)" style="stroke:#000000; stroke-linecap:round; stroke-linejoin:round; stroke-width:4; stroke-opacity:1; fill:none" points="345.82,1423.18 345.82,1404.28 "/>
<polyline clip-path="url(#clip830)" style="stroke:#000000; stroke-linecap:round; stroke-linejoin:round; stroke-width:4; stroke-opacity:1; fill:none" points="736.298,1423.18 736.298,1404.28 "/>
<polyline clip-path="url(#clip830)" style="stroke:#000000; stroke-linecap:round; stroke-linejoin:round; stroke-width:4; stroke-opacity:1; fill:none" points="1126.77,1423.18 1126.77,1404.28 "/>
<polyline clip-path="url(#clip830)" style="stroke:#000000; stroke-linecap:round; stroke-linejoin:round; stroke-width:4; stroke-opacity:1; fill:none" points="1517.25,1423.18 1517.25,1404.28 "/>
<polyline clip-path="url(#clip830)" style="stroke:#000000; stroke-linecap:round; stroke-linejoin:round; stroke-width:4; stroke-opacity:1; fill:none" points="1907.73,1423.18 1907.73,1404.28 "/>
<polyline clip-path="url(#clip830)" style="stroke:#000000; stroke-linecap:round; stroke-linejoin:round; stroke-width:4; stroke-opacity:1; fill:none" points="2298.21,1423.18 2298.21,1404.28 "/>
<path clip-path="url(#clip830)" d="M345.82 1454.1 Q342.209 1454.1 340.381 1457.66 Q338.575 1461.2 338.575 1468.33 Q338.575 1475.44 340.381 1479.01 Q342.209 1482.55 345.82 1482.55 Q349.455 1482.55 351.26 1479.01 Q353.089 1475.44 353.089 1468.33 Q353.089 1461.2 351.26 1457.66 Q349.455 1454.1 345.82 1454.1 M345.82 1450.39 Q351.63 1450.39 354.686 1455 Q357.765 1459.58 357.765 1468.33 Q357.765 1477.06 354.686 1481.67 Q351.63 1486.25 345.82 1486.25 Q340.01 1486.25 336.931 1481.67 Q333.876 1477.06 333.876 1468.33 Q333.876 1459.58 336.931 1455 Q340.01 1450.39 345.82 1450.39 Z" fill="#000000" fill-rule="nonzero" fill-opacity="1" /><path clip-path="url(#clip830)" d="M726.68 1481.64 L734.318 1481.64 L734.318 1455.28 L726.008 1456.95 L726.008 1452.69 L734.272 1451.02 L738.948 1451.02 L738.948 1481.64 L746.587 1481.64 L746.587 1485.58 L726.68 1485.58 L726.68 1481.64 Z" fill="#000000" fill-rule="nonzero" fill-opacity="1" /><path clip-path="url(#clip830)" d="M1121.43 1481.64 L1137.75 1481.64 L1137.75 1485.58 L1115.8 1485.58 L1115.8 1481.64 Q1118.46 1478.89 1123.05 1474.26 Q1127.65 1469.61 1128.83 1468.27 Q1131.08 1465.74 1131.96 1464.01 Q1132.86 1462.25 1132.86 1460.56 Q1132.86 1457.8 1130.92 1456.07 Q1129 1454.33 1125.9 1454.33 Q1123.7 1454.33 1121.24 1455.09 Q1118.81 1455.86 1116.03 1457.41 L1116.03 1452.69 Q1118.86 1451.55 1121.31 1450.97 Q1123.77 1450.39 1125.8 1450.39 Q1131.17 1450.39 1134.37 1453.08 Q1137.56 1455.77 1137.56 1460.26 Q1137.56 1462.39 1136.75 1464.31 Q1135.96 1466.2 1133.86 1468.8 Q1133.28 1469.47 1130.18 1472.69 Q1127.08 1475.88 1121.43 1481.64 Z" fill="#000000" fill-rule="nonzero" fill-opacity="1" /><path clip-path="url(#clip830)" d="M1521.5 1466.95 Q1524.86 1467.66 1526.73 1469.93 Q1528.63 1472.2 1528.63 1475.53 Q1528.63 1480.65 1525.11 1483.45 Q1521.59 1486.25 1515.11 1486.25 Q1512.93 1486.25 1510.62 1485.81 Q1508.33 1485.39 1505.87 1484.54 L1505.87 1480.02 Q1507.82 1481.16 1510.13 1481.74 Q1512.45 1482.32 1514.97 1482.32 Q1519.37 1482.32 1521.66 1480.58 Q1523.98 1478.84 1523.98 1475.53 Q1523.98 1472.48 1521.82 1470.77 Q1519.69 1469.03 1515.87 1469.03 L1511.85 1469.03 L1511.85 1465.19 L1516.06 1465.19 Q1519.51 1465.19 1521.34 1463.82 Q1523.17 1462.43 1523.17 1459.84 Q1523.17 1457.18 1521.27 1455.77 Q1519.39 1454.33 1515.87 1454.33 Q1513.95 1454.33 1511.75 1454.75 Q1509.56 1455.16 1506.92 1456.04 L1506.92 1451.88 Q1509.58 1451.14 1511.89 1450.77 Q1514.23 1450.39 1516.29 1450.39 Q1521.62 1450.39 1524.72 1452.83 Q1527.82 1455.23 1527.82 1459.35 Q1527.82 1462.22 1526.18 1464.21 Q1524.53 1466.18 1521.5 1466.95 Z" fill="#000000" fill-rule="nonzero" fill-opacity="1" /><path clip-path="url(#clip830)" d="M1910.74 1455.09 L1898.93 1473.54 L1910.74 1473.54 L1910.74 1455.09 M1909.51 1451.02 L1915.39 1451.02 L1915.39 1473.54 L1920.32 1473.54 L1920.32 1477.43 L1915.39 1477.43 L1915.39 1485.58 L1910.74 1485.58 L1910.74 1477.43 L1895.14 1477.43 L1895.14 1472.92 L1909.51 1451.02 Z" fill="#000000" fill-rule="nonzero" fill-opacity="1" /><path clip-path="url(#clip830)" d="M2288.48 1451.02 L2306.84 1451.02 L2306.84 1454.96 L2292.77 1454.96 L2292.77 1463.43 Q2293.78 1463.08 2294.8 1462.92 Q2295.82 1462.73 2296.84 1462.73 Q2302.63 1462.73 2306.01 1465.9 Q2309.39 1469.08 2309.39 1474.49 Q2309.39 1480.07 2305.91 1483.17 Q2302.44 1486.25 2296.12 1486.25 Q2293.95 1486.25 2291.68 1485.88 Q2289.43 1485.51 2287.03 1484.77 L2287.03 1480.07 Q2289.11 1481.2 2291.33 1481.76 Q2293.55 1482.32 2296.03 1482.32 Q2300.03 1482.32 2302.37 1480.21 Q2304.71 1478.1 2304.71 1474.49 Q2304.71 1470.88 2302.37 1468.77 Q2300.03 1466.67 2296.03 1466.67 Q2294.16 1466.67 2292.28 1467.08 Q2290.43 1467.5 2288.48 1468.38 L2288.48 1451.02 Z" fill="#000000" fill-rule="nonzero" fill-opacity="1" /><path clip-path="url(#clip830)" d="M1190.23 1520.52 L1230.43 1520.52 L1230.43 1525.93 L1213.56 1525.93 L1213.56 1568.04 L1207.1 1568.04 L1207.1 1525.93 L1190.23 1525.93 L1190.23 1520.52 Z" fill="#000000" fill-rule="nonzero" fill-opacity="1" /><path clip-path="url(#clip830)" d="M1234.38 1532.4 L1240.23 1532.4 L1240.23 1568.04 L1234.38 1568.04 L1234.38 1532.4 M1234.38 1518.52 L1240.23 1518.52 L1240.23 1525.93 L1234.38 1525.93 L1234.38 1518.52 Z" fill="#000000" fill-rule="nonzero" fill-opacity="1" /><path clip-path="url(#clip830)" d="M1280.24 1539.24 Q1282.44 1535.29 1285.5 1533.41 Q1288.55 1531.54 1292.69 1531.54 Q1298.26 1531.54 1301.28 1535.45 Q1304.31 1539.33 1304.31 1546.53 L1304.31 1568.04 L1298.42 1568.04 L1298.42 1546.72 Q1298.42 1541.59 1296.6 1539.11 Q1294.79 1536.63 1291.07 1536.63 Q1286.51 1536.63 1283.87 1539.65 Q1281.23 1542.68 1281.23 1547.9 L1281.23 1568.04 L1275.34 1568.04 L1275.34 1546.72 Q1275.34 1541.56 1273.53 1539.11 Q1271.71 1536.63 1267.93 1536.63 Q1263.44 1536.63 1260.8 1539.68 Q1258.15 1542.71 1258.15 1547.9 L1258.15 1568.04 L1252.27 1568.04 L1252.27 1532.4 L1258.15 1532.4 L1258.15 1537.93 Q1260.16 1534.66 1262.96 1533.1 Q1265.76 1531.54 1269.61 1531.54 Q1273.5 1531.54 1276.2 1533.51 Q1278.94 1535.48 1280.24 1539.24 Z" fill="#000000" fill-rule="nonzero" fill-opacity="1" /><path clip-path="url(#clip830)" d="M1346.48 1548.76 L1346.48 1551.62 L1319.55 1551.62 Q1319.93 1557.67 1323.18 1560.85 Q1326.46 1564 1332.28 1564 Q1335.66 1564 1338.81 1563.17 Q1341.99 1562.35 1345.11 1560.69 L1345.11 1566.23 Q1341.96 1567.57 1338.65 1568.27 Q1335.34 1568.97 1331.93 1568.97 Q1323.4 1568.97 1318.41 1564 Q1313.44 1559.04 1313.44 1550.57 Q1313.44 1541.82 1318.15 1536.69 Q1322.89 1531.54 1330.91 1531.54 Q1338.11 1531.54 1342.28 1536.18 Q1346.48 1540.8 1346.48 1548.76 M1340.62 1547.04 Q1340.56 1542.23 1337.92 1539.37 Q1335.31 1536.5 1330.98 1536.5 Q1326.08 1536.5 1323.12 1539.27 Q1320.19 1542.04 1319.74 1547.07 L1340.62 1547.04 Z" fill="#000000" fill-rule="nonzero" fill-opacity="1" /><path clip-path="url(#clip830)" d="M1376.27 1518.52 L1389.77 1518.52 L1389.77 1523.07 L1382.13 1523.07 L1382.13 1572.09 L1389.77 1572.09 L1389.77 1576.64 L1376.27 1576.64 L1376.27 1518.52 Z" fill="#000000" fill-rule="nonzero" fill-opacity="1" /><path clip-path="url(#clip830)" d="M1424.97 1533.45 L1424.97 1538.98 Q1422.49 1537.71 1419.81 1537.07 Q1417.14 1536.44 1414.27 1536.44 Q1409.91 1536.44 1407.72 1537.77 Q1405.55 1539.11 1405.55 1541.79 Q1405.55 1543.82 1407.11 1545 Q1408.67 1546.15 1413.38 1547.2 L1415.39 1547.64 Q1421.63 1548.98 1424.24 1551.43 Q1426.88 1553.85 1426.88 1558.21 Q1426.88 1563.17 1422.93 1566.07 Q1419.02 1568.97 1412.14 1568.97 Q1409.28 1568.97 1406.16 1568.39 Q1403.07 1567.85 1399.63 1566.74 L1399.63 1560.69 Q1402.88 1562.38 1406.03 1563.24 Q1409.18 1564.07 1412.27 1564.07 Q1416.41 1564.07 1418.63 1562.66 Q1420.86 1561.23 1420.86 1558.65 Q1420.86 1556.27 1419.24 1554.99 Q1417.65 1553.72 1412.2 1552.54 L1410.17 1552.07 Q1404.72 1550.92 1402.31 1548.56 Q1399.89 1546.18 1399.89 1542.04 Q1399.89 1537.01 1403.45 1534.27 Q1407.02 1531.54 1413.57 1531.54 Q1416.82 1531.54 1419.68 1532.01 Q1422.55 1532.49 1424.97 1533.45 Z" fill="#000000" fill-rule="nonzero" fill-opacity="1" /><path clip-path="url(#clip830)" d="M1449.89 1518.52 L1449.89 1576.64 L1436.39 1576.64 L1436.39 1572.09 L1444 1572.09 L1444 1523.07 L1436.39 1523.07 L1436.39 1518.52 L1449.89 1518.52 Z" fill="#000000" fill-rule="nonzero" fill-opacity="1" /><polyline clip-path="url(#clip830)" style="stroke:#000000; stroke-linecap:round; stroke-linejoin:round; stroke-width:4; stroke-opacity:1; fill:none" points="287.366,1423.18 287.366,47.2441 "/>
<polyline clip-path="url(#clip830)" style="stroke:#000000; stroke-linecap:round; stroke-linejoin:round; stroke-width:4; stroke-opacity:1; fill:none" points="287.366,1330.64 306.264,1330.64 "/>
<polyline clip-path="url(#clip830)" style="stroke:#000000; stroke-linecap:round; stroke-linejoin:round; stroke-width:4; stroke-opacity:1; fill:none" points="287.366,1142.52 306.264,1142.52 "/>
<polyline clip-path="url(#clip830)" style="stroke:#000000; stroke-linecap:round; stroke-linejoin:round; stroke-width:4; stroke-opacity:1; fill:none" points="287.366,954.411 306.264,954.411 "/>
<polyline clip-path="url(#clip830)" style="stroke:#000000; stroke-linecap:round; stroke-linejoin:round; stroke-width:4; stroke-opacity:1; fill:none" points="287.366,766.298 306.264,766.298 "/>
<polyline clip-path="url(#clip830)" style="stroke:#000000; stroke-linecap:round; stroke-linejoin:round; stroke-width:4; stroke-opacity:1; fill:none" points="287.366,578.186 306.264,578.186 "/>
<polyline clip-path="url(#clip830)" style="stroke:#000000; stroke-linecap:round; stroke-linejoin:round; stroke-width:4; stroke-opacity:1; fill:none" points="287.366,390.073 306.264,390.073 "/>
<polyline clip-path="url(#clip830)" style="stroke:#000000; stroke-linecap:round; stroke-linejoin:round; stroke-width:4; stroke-opacity:1; fill:none" points="287.366,201.96 306.264,201.96 "/>
<path clip-path="url(#clip830)" d="M115.256 1331.09 L144.931 1331.09 L144.931 1335.02 L115.256 1335.02 L115.256 1331.09 Z" fill="#000000" fill-rule="nonzero" fill-opacity="1" /><path clip-path="url(#clip830)" d="M165.024 1316.43 Q161.413 1316.43 159.584 1320 Q157.778 1323.54 157.778 1330.67 Q157.778 1337.78 159.584 1341.34 Q161.413 1344.88 165.024 1344.88 Q168.658 1344.88 170.464 1341.34 Q172.292 1337.78 172.292 1330.67 Q172.292 1323.54 170.464 1320 Q168.658 1316.43 165.024 1316.43 M165.024 1312.73 Q170.834 1312.73 173.889 1317.34 Q176.968 1321.92 176.968 1330.67 Q176.968 1339.4 173.889 1344 Q170.834 1348.59 165.024 1348.59 Q159.214 1348.59 156.135 1344 Q153.079 1339.4 153.079 1330.67 Q153.079 1321.92 156.135 1317.34 Q159.214 1312.73 165.024 1312.73 Z" fill="#000000" fill-rule="nonzero" fill-opacity="1" /><path clip-path="url(#clip830)" d="M185.186 1342.04 L190.07 1342.04 L190.07 1347.92 L185.186 1347.92 L185.186 1342.04 Z" fill="#000000" fill-rule="nonzero" fill-opacity="1" /><path clip-path="url(#clip830)" d="M201.065 1343.98 L208.704 1343.98 L208.704 1317.62 L200.394 1319.28 L200.394 1315.02 L208.658 1313.36 L213.334 1313.36 L213.334 1343.98 L220.973 1343.98 L220.973 1347.92 L201.065 1347.92 L201.065 1343.98 Z" fill="#000000" fill-rule="nonzero" fill-opacity="1" /><path clip-path="url(#clip830)" d="M230.463 1313.36 L248.82 1313.36 L248.82 1317.29 L234.746 1317.29 L234.746 1325.76 Q235.764 1325.42 236.783 1325.25 Q237.801 1325.07 238.82 1325.07 Q244.607 1325.07 247.986 1328.24 Q251.366 1331.41 251.366 1336.83 Q251.366 1342.41 247.894 1345.51 Q244.421 1348.59 238.102 1348.59 Q235.926 1348.59 233.658 1348.22 Q231.412 1347.85 229.005 1347.11 L229.005 1342.41 Q231.088 1343.54 233.31 1344.1 Q235.533 1344.65 238.009 1344.65 Q242.014 1344.65 244.352 1342.55 Q246.69 1340.44 246.69 1336.83 Q246.69 1333.22 244.352 1331.11 Q242.014 1329 238.009 1329 Q236.135 1329 234.26 1329.42 Q232.408 1329.84 230.463 1330.72 L230.463 1313.36 Z" fill="#000000" fill-rule="nonzero" fill-opacity="1" /><path clip-path="url(#clip830)" d="M114.26 1142.97 L143.936 1142.97 L143.936 1146.91 L114.26 1146.91 L114.26 1142.97 Z" fill="#000000" fill-rule="nonzero" fill-opacity="1" /><path clip-path="url(#clip830)" d="M164.028 1128.32 Q160.417 1128.32 158.589 1131.89 Q156.783 1135.43 156.783 1142.56 Q156.783 1149.66 158.589 1153.23 Q160.417 1156.77 164.028 1156.77 Q167.663 1156.77 169.468 1153.23 Q171.297 1149.66 171.297 1142.56 Q171.297 1135.43 169.468 1131.89 Q167.663 1128.32 164.028 1128.32 M164.028 1124.62 Q169.839 1124.62 172.894 1129.22 Q175.973 1133.81 175.973 1142.56 Q175.973 1151.28 172.894 1155.89 Q169.839 1160.47 164.028 1160.47 Q158.218 1160.47 155.14 1155.89 Q152.084 1151.28 152.084 1142.56 Q152.084 1133.81 155.14 1129.22 Q158.218 1124.62 164.028 1124.62 Z" fill="#000000" fill-rule="nonzero" fill-opacity="1" /><path clip-path="url(#clip830)" d="M184.19 1153.92 L189.075 1153.92 L189.075 1159.8 L184.19 1159.8 L184.19 1153.92 Z" fill="#000000" fill-rule="nonzero" fill-opacity="1" /><path clip-path="url(#clip830)" d="M200.07 1155.87 L207.709 1155.87 L207.709 1129.5 L199.399 1131.17 L199.399 1126.91 L207.662 1125.24 L212.338 1125.24 L212.338 1155.87 L219.977 1155.87 L219.977 1159.8 L200.07 1159.8 L200.07 1155.87 Z" fill="#000000" fill-rule="nonzero" fill-opacity="1" /><path clip-path="url(#clip830)" d="M239.422 1128.32 Q235.81 1128.32 233.982 1131.89 Q232.176 1135.43 232.176 1142.56 Q232.176 1149.66 233.982 1153.23 Q235.81 1156.77 239.422 1156.77 Q243.056 1156.77 244.861 1153.23 Q246.69 1149.66 246.69 1142.56 Q246.69 1135.43 244.861 1131.89 Q243.056 1128.32 239.422 1128.32 M239.422 1124.62 Q245.232 1124.62 248.287 1129.22 Q251.366 1133.81 251.366 1142.56 Q251.366 1151.28 248.287 1155.89 Q245.232 1160.47 239.422 1160.47 Q233.611 1160.47 230.533 1155.89 Q227.477 1151.28 227.477 1142.56 Q227.477 1133.81 230.533 1129.22 Q233.611 1124.62 239.422 1124.62 Z" fill="#000000" fill-rule="nonzero" fill-opacity="1" /><path clip-path="url(#clip830)" d="M115.256 954.862 L144.931 954.862 L144.931 958.797 L115.256 958.797 L115.256 954.862 Z" fill="#000000" fill-rule="nonzero" fill-opacity="1" /><path clip-path="url(#clip830)" d="M165.024 940.21 Q161.413 940.21 159.584 943.774 Q157.778 947.316 157.778 954.446 Q157.778 961.552 159.584 965.117 Q161.413 968.658 165.024 968.658 Q168.658 968.658 170.464 965.117 Q172.292 961.552 172.292 954.446 Q172.292 947.316 170.464 943.774 Q168.658 940.21 165.024 940.21 M165.024 936.506 Q170.834 936.506 173.889 941.112 Q176.968 945.696 176.968 954.446 Q176.968 963.172 173.889 967.779 Q170.834 972.362 165.024 972.362 Q159.214 972.362 156.135 967.779 Q153.079 963.172 153.079 954.446 Q153.079 945.696 156.135 941.112 Q159.214 936.506 165.024 936.506 Z" fill="#000000" fill-rule="nonzero" fill-opacity="1" /><path clip-path="url(#clip830)" d="M185.186 965.811 L190.07 965.811 L190.07 971.691 L185.186 971.691 L185.186 965.811 Z" fill="#000000" fill-rule="nonzero" fill-opacity="1" /><path clip-path="url(#clip830)" d="M210.255 940.21 Q206.644 940.21 204.815 943.774 Q203.01 947.316 203.01 954.446 Q203.01 961.552 204.815 965.117 Q206.644 968.658 210.255 968.658 Q213.889 968.658 215.695 965.117 Q217.523 961.552 217.523 954.446 Q217.523 947.316 215.695 943.774 Q213.889 940.21 210.255 940.21 M210.255 936.506 Q216.065 936.506 219.121 941.112 Q222.199 945.696 222.199 954.446 Q222.199 963.172 219.121 967.779 Q216.065 972.362 210.255 972.362 Q204.445 972.362 201.366 967.779 Q198.311 963.172 198.311 954.446 Q198.311 945.696 201.366 941.112 Q204.445 936.506 210.255 936.506 Z" fill="#000000" fill-rule="nonzero" fill-opacity="1" /><path clip-path="url(#clip830)" d="M230.463 937.131 L248.82 937.131 L248.82 941.066 L234.746 941.066 L234.746 949.538 Q235.764 949.191 236.783 949.029 Q237.801 948.844 238.82 948.844 Q244.607 948.844 247.986 952.015 Q251.366 955.186 251.366 960.603 Q251.366 966.182 247.894 969.283 Q244.421 972.362 238.102 972.362 Q235.926 972.362 233.658 971.992 Q231.412 971.621 229.005 970.881 L229.005 966.182 Q231.088 967.316 233.31 967.871 Q235.533 968.427 238.009 968.427 Q242.014 968.427 244.352 966.32 Q246.69 964.214 246.69 960.603 Q246.69 956.992 244.352 954.885 Q242.014 952.779 238.009 952.779 Q236.135 952.779 234.26 953.196 Q232.408 953.612 230.463 954.492 L230.463 937.131 Z" fill="#000000" fill-rule="nonzero" fill-opacity="1" /><path clip-path="url(#clip830)" d="M164.028 752.097 Q160.417 752.097 158.589 755.662 Q156.783 759.203 156.783 766.333 Q156.783 773.439 158.589 777.004 Q160.417 780.546 164.028 780.546 Q167.663 780.546 169.468 777.004 Q171.297 773.439 171.297 766.333 Q171.297 759.203 169.468 755.662 Q167.663 752.097 164.028 752.097 M164.028 748.393 Q169.839 748.393 172.894 753 Q175.973 757.583 175.973 766.333 Q175.973 775.06 172.894 779.666 Q169.839 784.25 164.028 784.25 Q158.218 784.25 155.14 779.666 Q152.084 775.06 152.084 766.333 Q152.084 757.583 155.14 753 Q158.218 748.393 164.028 748.393 Z" fill="#000000" fill-rule="nonzero" fill-opacity="1" /><path clip-path="url(#clip830)" d="M184.19 777.699 L189.075 777.699 L189.075 783.578 L184.19 783.578 L184.19 777.699 Z" fill="#000000" fill-rule="nonzero" fill-opacity="1" /><path clip-path="url(#clip830)" d="M209.26 752.097 Q205.649 752.097 203.82 755.662 Q202.014 759.203 202.014 766.333 Q202.014 773.439 203.82 777.004 Q205.649 780.546 209.26 780.546 Q212.894 780.546 214.699 777.004 Q216.528 773.439 216.528 766.333 Q216.528 759.203 214.699 755.662 Q212.894 752.097 209.26 752.097 M209.26 748.393 Q215.07 748.393 218.125 753 Q221.204 757.583 221.204 766.333 Q221.204 775.06 218.125 779.666 Q215.07 784.25 209.26 784.25 Q203.449 784.25 200.371 779.666 Q197.315 775.06 197.315 766.333 Q197.315 757.583 200.371 753 Q203.449 748.393 209.26 748.393 Z" fill="#000000" fill-rule="nonzero" fill-opacity="1" /><path clip-path="url(#clip830)" d="M239.422 752.097 Q235.81 752.097 233.982 755.662 Q232.176 759.203 232.176 766.333 Q232.176 773.439 233.982 777.004 Q235.81 780.546 239.422 780.546 Q243.056 780.546 244.861 777.004 Q246.69 773.439 246.69 766.333 Q246.69 759.203 244.861 755.662 Q243.056 752.097 239.422 752.097 M239.422 748.393 Q245.232 748.393 248.287 753 Q251.366 757.583 251.366 766.333 Q251.366 775.06 248.287 779.666 Q245.232 784.25 239.422 784.25 Q233.611 784.25 230.533 779.666 Q227.477 775.06 227.477 766.333 Q227.477 757.583 230.533 753 Q233.611 748.393 239.422 748.393 Z" fill="#000000" fill-rule="nonzero" fill-opacity="1" /><path clip-path="url(#clip830)" d="M165.024 563.984 Q161.413 563.984 159.584 567.549 Q157.778 571.091 157.778 578.22 Q157.778 585.327 159.584 588.892 Q161.413 592.433 165.024 592.433 Q168.658 592.433 170.464 588.892 Q172.292 585.327 172.292 578.22 Q172.292 571.091 170.464 567.549 Q168.658 563.984 165.024 563.984 M165.024 560.281 Q170.834 560.281 173.889 564.887 Q176.968 569.47 176.968 578.22 Q176.968 586.947 173.889 591.554 Q170.834 596.137 165.024 596.137 Q159.214 596.137 156.135 591.554 Q153.079 586.947 153.079 578.22 Q153.079 569.47 156.135 564.887 Q159.214 560.281 165.024 560.281 Z" fill="#000000" fill-rule="nonzero" fill-opacity="1" /><path clip-path="url(#clip830)" d="M185.186 589.586 L190.07 589.586 L190.07 595.466 L185.186 595.466 L185.186 589.586 Z" fill="#000000" fill-rule="nonzero" fill-opacity="1" /><path clip-path="url(#clip830)" d="M210.255 563.984 Q206.644 563.984 204.815 567.549 Q203.01 571.091 203.01 578.22 Q203.01 585.327 204.815 588.892 Q206.644 592.433 210.255 592.433 Q213.889 592.433 215.695 588.892 Q217.523 585.327 217.523 578.22 Q217.523 571.091 215.695 567.549 Q213.889 563.984 210.255 563.984 M210.255 560.281 Q216.065 560.281 219.121 564.887 Q222.199 569.47 222.199 578.22 Q222.199 586.947 219.121 591.554 Q216.065 596.137 210.255 596.137 Q204.445 596.137 201.366 591.554 Q198.311 586.947 198.311 578.22 Q198.311 569.47 201.366 564.887 Q204.445 560.281 210.255 560.281 Z" fill="#000000" fill-rule="nonzero" fill-opacity="1" /><path clip-path="url(#clip830)" d="M230.463 560.906 L248.82 560.906 L248.82 564.841 L234.746 564.841 L234.746 573.313 Q235.764 572.966 236.783 572.804 Q237.801 572.619 238.82 572.619 Q244.607 572.619 247.986 575.79 Q251.366 578.961 251.366 584.378 Q251.366 589.956 247.894 593.058 Q244.421 596.137 238.102 596.137 Q235.926 596.137 233.658 595.767 Q231.412 595.396 229.005 594.655 L229.005 589.956 Q231.088 591.091 233.31 591.646 Q235.533 592.202 238.009 592.202 Q242.014 592.202 244.352 590.095 Q246.69 587.989 246.69 584.378 Q246.69 580.767 244.352 578.66 Q242.014 576.554 238.009 576.554 Q236.135 576.554 234.26 576.97 Q232.408 577.387 230.463 578.267 L230.463 560.906 Z" fill="#000000" fill-rule="nonzero" fill-opacity="1" /><path clip-path="url(#clip830)" d="M164.028 375.872 Q160.417 375.872 158.589 379.437 Q156.783 382.978 156.783 390.108 Q156.783 397.214 158.589 400.779 Q160.417 404.321 164.028 404.321 Q167.663 404.321 169.468 400.779 Q171.297 397.214 171.297 390.108 Q171.297 382.978 169.468 379.437 Q167.663 375.872 164.028 375.872 M164.028 372.168 Q169.839 372.168 172.894 376.774 Q175.973 381.358 175.973 390.108 Q175.973 398.835 172.894 403.441 Q169.839 408.024 164.028 408.024 Q158.218 408.024 155.14 403.441 Q152.084 398.835 152.084 390.108 Q152.084 381.358 155.14 376.774 Q158.218 372.168 164.028 372.168 Z" fill="#000000" fill-rule="nonzero" fill-opacity="1" /><path clip-path="url(#clip830)" d="M184.19 401.473 L189.075 401.473 L189.075 407.353 L184.19 407.353 L184.19 401.473 Z" fill="#000000" fill-rule="nonzero" fill-opacity="1" /><path clip-path="url(#clip830)" d="M200.07 403.418 L207.709 403.418 L207.709 377.052 L199.399 378.719 L199.399 374.46 L207.662 372.793 L212.338 372.793 L212.338 403.418 L219.977 403.418 L219.977 407.353 L200.07 407.353 L200.07 403.418 Z" fill="#000000" fill-rule="nonzero" fill-opacity="1" /><path clip-path="url(#clip830)" d="M239.422 375.872 Q235.81 375.872 233.982 379.437 Q232.176 382.978 232.176 390.108 Q232.176 397.214 233.982 400.779 Q235.81 404.321 239.422 404.321 Q243.056 404.321 244.861 400.779 Q246.69 397.214 246.69 390.108 Q246.69 382.978 244.861 379.437 Q243.056 375.872 239.422 375.872 M239.422 372.168 Q245.232 372.168 248.287 376.774 Q251.366 381.358 251.366 390.108 Q251.366 398.835 248.287 403.441 Q245.232 408.024 239.422 408.024 Q233.611 408.024 230.533 403.441 Q227.477 398.835 227.477 390.108 Q227.477 381.358 230.533 376.774 Q233.611 372.168 239.422 372.168 Z" fill="#000000" fill-rule="nonzero" fill-opacity="1" /><path clip-path="url(#clip830)" d="M165.024 187.759 Q161.413 187.759 159.584 191.324 Q157.778 194.866 157.778 201.995 Q157.778 209.102 159.584 212.666 Q161.413 216.208 165.024 216.208 Q168.658 216.208 170.464 212.666 Q172.292 209.102 172.292 201.995 Q172.292 194.866 170.464 191.324 Q168.658 187.759 165.024 187.759 M165.024 184.055 Q170.834 184.055 173.889 188.662 Q176.968 193.245 176.968 201.995 Q176.968 210.722 173.889 215.328 Q170.834 219.912 165.024 219.912 Q159.214 219.912 156.135 215.328 Q153.079 210.722 153.079 201.995 Q153.079 193.245 156.135 188.662 Q159.214 184.055 165.024 184.055 Z" fill="#000000" fill-rule="nonzero" fill-opacity="1" /><path clip-path="url(#clip830)" d="M185.186 213.361 L190.07 213.361 L190.07 219.24 L185.186 219.24 L185.186 213.361 Z" fill="#000000" fill-rule="nonzero" fill-opacity="1" /><path clip-path="url(#clip830)" d="M201.065 215.305 L208.704 215.305 L208.704 188.94 L200.394 190.606 L200.394 186.347 L208.658 184.68 L213.334 184.68 L213.334 215.305 L220.973 215.305 L220.973 219.24 L201.065 219.24 L201.065 215.305 Z" fill="#000000" fill-rule="nonzero" fill-opacity="1" /><path clip-path="url(#clip830)" d="M230.463 184.68 L248.82 184.68 L248.82 188.616 L234.746 188.616 L234.746 197.088 Q235.764 196.741 236.783 196.579 Q237.801 196.393 238.82 196.393 Q244.607 196.393 247.986 199.565 Q251.366 202.736 251.366 208.153 Q251.366 213.731 247.894 216.833 Q244.421 219.912 238.102 219.912 Q235.926 219.912 233.658 219.541 Q231.412 219.171 229.005 218.43 L229.005 213.731 Q231.088 214.865 233.31 215.421 Q235.533 215.977 238.009 215.977 Q242.014 215.977 244.352 213.87 Q246.69 211.764 246.69 208.153 Q246.69 204.541 244.352 202.435 Q242.014 200.328 238.009 200.328 Q236.135 200.328 234.26 200.745 Q232.408 201.162 230.463 202.041 L230.463 184.68 Z" fill="#000000" fill-rule="nonzero" fill-opacity="1" /><path clip-path="url(#clip830)" d="M20.8447 823.791 Q20.8447 830.793 26.0645 834.931 Q31.2844 839.037 40.2919 839.037 Q49.2675 839.037 54.4874 834.931 Q59.7073 830.793 59.7073 823.791 Q59.7073 816.788 54.4874 812.714 Q49.2675 808.609 40.2919 808.609 Q31.2844 808.609 26.0645 812.714 Q20.8447 816.788 20.8447 823.791 M15.6248 823.791 Q15.6248 813.797 22.3406 807.813 Q29.0246 801.829 40.2919 801.829 Q51.5274 801.829 58.2432 807.813 Q64.9272 813.797 64.9272 823.791 Q64.9272 833.817 58.2432 839.832 Q51.5592 845.816 40.2919 845.816 Q29.0246 845.816 22.3406 839.832 Q15.6248 833.817 15.6248 823.791 Z" fill="#000000" fill-rule="nonzero" fill-opacity="1" /><path clip-path="url(#clip830)" d="M49.9359 792.631 L28.3562 792.631 L28.3562 786.774 L49.7131 786.774 Q54.7739 786.774 57.3202 784.801 Q59.8346 782.827 59.8346 778.881 Q59.8346 774.138 56.8109 771.401 Q53.7872 768.632 48.5673 768.632 L28.3562 768.632 L28.3562 762.775 L64.0042 762.775 L64.0042 768.632 L58.5296 768.632 Q61.7762 770.764 63.3676 773.597 Q64.9272 776.398 64.9272 780.122 Q64.9272 786.265 61.1078 789.448 Q57.2883 792.631 49.9359 792.631 M27.4968 777.894 L27.4968 777.894 Z" fill="#000000" fill-rule="nonzero" fill-opacity="1" /><path clip-path="url(#clip830)" d="M18.2347 744.92 L28.3562 744.92 L28.3562 732.857 L32.9077 732.857 L32.9077 744.92 L52.2594 744.92 Q56.6199 744.92 57.8613 743.742 Q59.1026 742.533 59.1026 738.872 L59.1026 732.857 L64.0042 732.857 L64.0042 738.872 Q64.0042 745.652 61.4897 748.23 Q58.9434 750.808 52.2594 750.808 L32.9077 750.808 L32.9077 755.105 L28.3562 755.105 L28.3562 750.808 L18.2347 750.808 L18.2347 744.92 Z" fill="#000000" fill-rule="nonzero" fill-opacity="1" /><path clip-path="url(#clip830)" d="M58.657 719.489 L77.5631 719.489 L77.5631 725.377 L28.3562 725.377 L28.3562 719.489 L33.7671 719.489 Q30.5842 717.643 29.0564 714.842 Q27.4968 712.009 27.4968 708.094 Q27.4968 701.601 32.6531 697.559 Q37.8093 693.485 46.212 693.485 Q54.6147 693.485 59.771 697.559 Q64.9272 701.601 64.9272 708.094 Q64.9272 712.009 63.3994 714.842 Q61.8398 717.643 58.657 719.489 M46.212 699.564 Q39.7508 699.564 36.0905 702.238 Q32.3984 704.879 32.3984 709.526 Q32.3984 714.173 36.0905 716.847 Q39.7508 719.489 46.212 719.489 Q52.6732 719.489 56.3653 716.847 Q60.0256 714.173 60.0256 709.526 Q60.0256 704.879 56.3653 702.238 Q52.6732 699.564 46.212 699.564 Z" fill="#000000" fill-rule="nonzero" fill-opacity="1" /><path clip-path="url(#clip830)" d="M49.9359 684.382 L28.3562 684.382 L28.3562 678.525 L49.7131 678.525 Q54.7739 678.525 57.3202 676.552 Q59.8346 674.579 59.8346 670.632 Q59.8346 665.889 56.8109 663.152 Q53.7872 660.383 48.5673 660.383 L28.3562 660.383 L28.3562 654.527 L64.0042 654.527 L64.0042 660.383 L58.5296 660.383 Q61.7762 662.516 63.3676 665.348 Q64.9272 668.149 64.9272 671.873 Q64.9272 678.016 61.1078 681.199 Q57.2883 684.382 49.9359 684.382 M27.4968 669.645 L27.4968 669.645 Z" fill="#000000" fill-rule="nonzero" fill-opacity="1" /><path clip-path="url(#clip830)" d="M18.2347 636.671 L28.3562 636.671 L28.3562 624.608 L32.9077 624.608 L32.9077 636.671 L52.2594 636.671 Q56.6199 636.671 57.8613 635.493 Q59.1026 634.284 59.1026 630.623 L59.1026 624.608 L64.0042 624.608 L64.0042 630.623 Q64.0042 637.403 61.4897 639.981 Q58.9434 642.559 52.2594 642.559 L32.9077 642.559 L32.9077 646.856 L28.3562 646.856 L28.3562 642.559 L18.2347 642.559 L18.2347 636.671 Z" fill="#000000" fill-rule="nonzero" fill-opacity="1" /><polyline clip-path="url(#clip832)" style="stroke:#009af9; stroke-linecap:round; stroke-linejoin:round; stroke-width:4; stroke-opacity:1; fill:none" points="345.82,766.298 349.725,766.298 353.63,766.298 353.63,803.486 357.535,803.486 357.535,839.578 361.439,839.578 361.439,874.258 365.344,874.258 365.344,907.243 369.249,907.243 369.249,938.288 373.154,938.288 373.154,967.189 377.059,967.189 377.059,993.788 380.963,993.788 380.963,1017.97 384.868,1017.97 384.868,1039.68 388.773,1039.68 388.773,1058.89 392.678,1058.89 392.678,1075.64 396.582,1075.64 396.582,1089.99 400.487,1089.99 400.487,1102.06 404.392,1102.06 404.392,1112.01 408.297,1112.01 408.297,1120.02 412.201,1120.02 412.201,1126.31 416.106,1126.31 416.106,1131.12 420.011,1131.12 420.011,1134.71 423.916,1134.71 423.916,1137.35 427.821,1137.35 427.821,1139.32 431.725,1139.32 431.725,1066.53 435.63,1066.53 435.63,995.828 439.535,995.828 439.535,928.112 443.44,928.112 443.44,864.205 447.344,864.205 447.344,804.834 451.249,804.834 451.249,824.994 455.154,824.994 455.154,848.624 459.059,848.624 459.059,875.472 462.963,875.472 462.963,905.228 466.868,905.228 466.868,937.531 470.773,937.531 470.773,897.602 474.678,897.602 474.678,861.569 478.583,861.569 478.583,829.607 482.487,829.607 482.487,801.806 486.392,801.806 486.392,778.177 490.297,778.177 490.297,758.654 494.202,758.654 494.202,743.095 498.106,743.095 498.106,731.288 502.011,731.288 502.011,722.959 505.916,722.959 505.916,717.775 509.821,717.775 509.821,715.358 513.726,715.358 513.726,715.289 517.63,715.289 517.63,717.118 521.535,717.118 521.535,720.377 525.44,720.377 525.44,724.585 529.345,724.585 529.345,803.638 533.249,803.638 533.249,880.498 537.154,880.498 537.154,954.078 541.059,954.078 541.059,1023.38 544.964,1023.38 544.964,1087.53 548.868,1087.53 548.868,1071.37 552.773,1071.37 552.773,1050.87 556.678,1050.87 556.678,1026.16 560.583,1026.16 560.583,997.482 564.488,997.482 564.488,965.147 568.392,965.147 568.392,1003.9 572.297,1003.9 572.297,1037.62 576.202,1037.62 576.202,1066.14 580.107,1066.14 580.107,1089.41 584.011,1089.41 584.011,1107.49 587.916,1107.49 587.916,1120.53 591.821,1120.53 591.821,1128.75 595.726,1128.75 595.726,1132.49 599.631,1132.49 599.631,1132.14 603.535,1132.14 603.535,1128.17 607.44,1128.17 607.44,1046.71 611.345,1046.71 611.345,964.908 615.25,964.908 615.25,883.972 619.154,883.972 619.154,805.081 623.059,805.081 623.059,729.338 626.964,729.338 626.964,732.133 630.869,732.133 630.869,737.802 634.773,737.802 634.773,746.496 638.678,746.496 638.678,758.296 642.583,758.296 642.583,773.217 646.488,773.217 646.488,791.208 650.393,791.208 650.393,812.156 654.297,812.156 654.297,835.891 658.202,835.891 658.202,862.188 662.107,862.188 662.107,890.777 666.012,890.777 666.012,846.972 669.916,846.972 669.916,806.993 673.821,806.993 673.821,771.106 677.726,771.106 677.726,739.49 681.631,739.49 681.631,712.24 685.535,712.24 685.535,689.365 689.44,689.365 689.44,670.794 693.345,670.794 693.345,656.375 697.25,656.375 697.25,645.884 701.155,645.884 701.155,639.029 705.059,639.029 705.059,709.835 708.964,709.835 708.964,781.336 712.869,781.336 712.869,852.456 716.774,852.456 716.774,922.156 720.678,922.156 720.678,989.45 724.583,989.45 724.583,1053.43 728.488,1053.43 728.488,1113.27 732.393,1113.27 732.393,1168.24 736.298,1168.24 736.298,1217.76 740.202,1217.76 740.202,1261.32 744.107,1261.32 744.107,1298.57 748.012,1298.57 748.012,1329.29 751.917,1329.29 751.917,1353.38 755.821,1353.38 755.821,1370.89 759.726,1370.89 759.726,1381.97 763.631,1381.97 763.631,1312.52 767.536,1312.52 767.536,1239.52 771.44,1239.52 771.44,1164.06 775.345,1164.06 775.345,1087.31 779.25,1087.31 779.25,1010.39 783.155,1010.39 783.155,1008.8 787.06,1008.8 787.06,1007.02 790.964,1007.02 790.964,1005.43 794.869,1005.43 794.869,1004.36 798.774,1004.36 798.774,1004.15 802.679,1004.15 802.679,930.703 806.583,930.703 806.583,860.849 810.488,860.849 810.488,795.439 814.393,795.439 814.393,735.22 818.298,735.22 818.298,680.816 822.202,680.816 822.202,632.723 826.107,632.723 826.107,591.303 830.012,591.303 830.012,556.778 833.917,556.778 833.917,529.234 837.822,529.234 837.822,508.619 841.726,508.619 841.726,494.752 845.631,494.752 845.631,487.327 849.536,487.327 849.536,485.925 853.441,485.925 853.441,490.024 857.345,490.024 857.345,499.013 861.25,499.013 861.25,512.207 865.155,512.207 865.155,528.862 869.06,528.862 869.06,548.191 872.965,548.191 872.965,569.382 876.869,569.382 876.869,591.612 880.774,591.612 880.774,614.069 884.679,614.069 884.679,635.96 888.584,635.96 888.584,656.533 892.488,656.533 892.488,675.085 896.393,675.085 896.393,690.98 900.298,690.98 900.298,703.653 904.203,703.653 904.203,712.624 908.107,712.624 908.107,717.503 912.012,717.503 912.012,717.997 915.917,717.997 915.917,713.908 919.822,713.908 919.822,779.514 923.727,779.514 923.727,838.25 927.631,838.25 927.631,889.578 931.536,889.578 931.536,933.118 935.441,933.118 935.441,968.65 939.346,968.65 939.346,996.114 943.25,996.114 943.25,1015.61 947.155,1015.61 947.155,1027.38 951.06,1027.38 951.06,1031.81 954.965,1031.81 954.965,1029.42 958.87,1029.42 958.87,946.463 962.774,946.463 962.774,860.241 966.679,860.241 966.679,772.196 970.584,772.196 970.584,683.772 974.489,683.772 974.489,596.38 978.393,596.38 978.393,511.371 982.298,511.371 982.298,430.015 986.203,430.015 986.203,353.474 990.108,353.474 990.108,282.785 994.012,282.785 994.012,218.843 997.917,218.843 997.917,236.761 1001.82,236.761 1001.82,260.546 1005.73,260.546 1005.73,289.965 1009.63,289.965 1009.63,324.676 1013.54,324.676 1013.54,364.241 1017.44,364.241 1017.44,408.133 1021.35,408.133 1021.35,455.755 1025.25,455.755 1025.25,506.446 1029.16,506.446 1029.16,559.505 1033.06,559.505 1033.06,614.197 1036.96,614.197 1036.96,669.775 1040.87,669.775 1040.87,725.494 1044.77,725.494 1044.77,780.622 1048.68,780.622 1048.68,834.457 1052.58,834.457 1052.58,886.342 1056.49,886.342 1056.49,861.296 1060.39,861.296 1060.39,835.346 1064.3,835.346 1064.3,808.658 1068.2,808.658 1068.2,781.413 1072.11,781.413 1072.11,753.799 1076.01,753.799 1076.01,726.012 1079.92,726.012 1079.92,698.246 1083.82,698.246 1083.82,670.696 1087.73,670.696 1087.73,643.549 1091.63,643.549 1091.63,616.979 1095.54,616.979 1095.54,665.528 1099.44,665.528 1099.44,712.776 1103.35,712.776 1103.35,758.218 1107.25,758.218 1107.25,801.397 1111.16,801.397 1111.16,841.91 1115.06,841.91 1115.06,805.038 1118.97,805.038 1118.97,767.07 1122.87,767.07 1122.87,728.43 1126.77,728.43 1126.77,689.55 1130.68,689.55 1130.68,650.853 1134.58,650.853 1134.58,612.751 1138.49,612.751 1138.49,575.637 1142.39,575.637 1142.39,539.875 1146.3,539.875 1146.3,505.794 1150.2,505.794 1150.2,473.686 1154.11,473.686 1154.11,443.796 1158.01,443.796 1158.01,416.324 1161.92,416.324 1161.92,391.418 1165.82,391.418 1165.82,369.175 1169.73,369.175 1169.73,349.64 1173.63,349.64 1173.63,407.181 1177.54,407.181 1177.54,465.177 1181.44,465.177 1181.44,522.889 1185.35,522.889 1185.35,579.605 1189.25,579.605 1189.25,634.645 1193.16,634.645 1193.16,687.383 1197.06,687.383 1197.06,737.249 1200.97,737.249 1200.97,783.745 1204.87,783.745 1204.87,826.447 1208.77,826.447 1208.77,865.017 1212.68,865.017 1212.68,899.203 1216.58,899.203 1216.58,928.843 1220.49,928.843 1220.49,953.867 1224.39,953.867 1224.39,974.292 1228.3,974.292 1228.3,990.222 1232.2,990.222 1232.2,1001.84 1236.11,1001.84 1236.11,1009.41 1240.01,1009.41 1240.01,1013.27 1243.92,1013.27 1243.92,1013.79 1247.82,1013.79 1247.82,1011.43 1251.73,1011.43 1251.73,932.281 1255.63,932.281 1255.63,853.425 1259.54,853.425 1259.54,776.023 1263.44,776.023 1263.44,701.178 1267.35,701.178 1267.35,629.914 1271.25,629.914 1271.25,563.158 1275.16,563.158 1275.16,501.725 1279.06,501.725 1279.06,446.303 1282.97,446.303 1282.97,397.448 1286.87,397.448 1286.87,355.571 1290.78,355.571 1290.78,320.939 1294.68,320.939 1294.68,293.671 1298.58,293.671 1298.58,273.742 1302.49,273.742 1302.49,260.987 1306.39,260.987 1306.39,255.107 1310.3,255.107 1310.3,255.68 1314.2,255.68 1314.2,262.175 1318.11,262.175 1318.11,273.96 1322.01,273.96 1322.01,290.324 1325.92,290.324 1325.92,310.489 1329.82,310.489 1329.82,408.003 1333.73,408.003 1333.73,505.443 1337.63,505.443 1337.63,601.304 1341.54,601.304 1341.54,694.154 1345.44,694.154 1345.44,782.658 1349.35,782.658 1349.35,865.601 1353.25,865.601 1353.25,941.911 1357.16,941.911 1357.16,1010.67 1361.06,1010.67 1361.06,1071.14 1364.97,1071.14 1364.97,1122.76 1368.87,1122.76 1368.87,1090.78 1372.78,1090.78 1372.78,1051.57 1376.68,1051.57 1376.68,1005.77 1380.58,1005.77 1380.58,954.136 1384.49,954.136 1384.49,897.505 1388.39,897.505 1388.39,836.799 1392.3,836.799 1392.3,772.998 1396.2,772.998 1396.2,707.114 1400.11,707.114 1400.11,640.175 1404.01,640.175 1404.01,573.202 1407.92,573.202 1407.92,507.19 1411.82,507.19 1411.82,443.089 1415.73,443.089 1415.73,381.785 1419.63,381.785 1419.63,324.089 1423.54,324.089 1423.54,270.718 1427.44,270.718 1427.44,222.286 1431.35,222.286 1431.35,179.295 1435.25,179.295 1435.25,142.129 1439.16,142.129 1439.16,111.047 1443.06,111.047 1443.06,86.1857 1446.97,86.1857 1446.97,141.933 1450.87,141.933 1450.87,201.615 1454.78,201.615 1454.78,264.377 1458.68,264.377 1458.68,329.322 1462.59,329.322 1462.59,395.537 1466.49,395.537 1466.49,462.101 1470.39,462.101 1470.39,528.114 1474.3,528.114 1474.3,592.708 1478.2,592.708 1478.2,655.062 1482.11,655.062 1482.11,714.422 1486.01,714.422 1486.01,695.735 1489.92,695.735 1489.92,674.978 1493.82,674.978 1493.82,652.292 1497.73,652.292 1497.73,627.855 1501.63,627.855 1501.63,601.877 1505.54,601.877 1505.54,648.973 1509.44,648.973 1509.44,692.835 1513.35,692.835 1513.35,733.106 1517.25,733.106 1517.25,769.506 1521.16,769.506 1521.16,801.833 1525.06,801.833 1525.06,829.97 1528.97,829.97 1528.97,853.881 1532.87,853.881 1532.87,873.609 1536.78,873.609 1536.78,889.276 1540.68,889.276 1540.68,901.076 1544.59,901.076 1544.59,834.893 1548.49,834.893 1548.49,767.613 1552.39,767.613 1552.39,700.241 1556.3,700.241 1556.3,633.757 1560.2,633.757 1560.2,569.098 1564.11,569.098 1564.11,581.517 1568.01,581.517 1568.01,595.249 1571.92,595.249 1571.92,610.372 1575.82,610.372 1575.82,626.932 1579.73,626.932 1579.73,644.941 1583.63,644.941 1583.63,664.377 1587.54,664.377 1587.54,685.188 1591.44,685.188 1591.44,707.294 1595.35,707.294 1595.35,730.586 1599.25,730.586 1599.25,754.932 1603.16,754.932 1603.16,705.806 1607.06,705.806 1607.06,659.603 1610.97,659.603 1610.97,616.775 1614.87,616.775 1614.87,577.699 1618.78,577.699 1618.78,542.667 1622.68,542.667 1622.68,511.89 1626.59,511.89 1626.59,485.49 1630.49,485.49 1630.49,463.505 1634.4,463.505 1634.4,445.888 1638.3,445.888 1638.3,432.509 1642.2,432.509 1642.2,423.164 1646.11,423.164 1646.11,417.58 1650.01,417.58 1650.01,415.418 1653.92,415.418 1653.92,416.288 1657.82,416.288 1657.82,419.754 1661.73,419.754 1661.73,425.345 1665.63,425.345 1665.63,432.567 1669.54,432.567 1669.54,440.909 1673.44,440.909 1673.44,449.859 1677.35,449.859 1677.35,458.908 1681.25,458.908 1681.25,541.943 1685.16,541.943 1685.16,621.93 1689.06,621.93 1689.06,697.806 1692.97,697.806 1692.97,768.612 1696.87,768.612 1696.87,833.515 1700.78,833.515 1700.78,891.819 1704.68,891.819 1704.68,942.973 1708.59,942.973 1708.59,986.581 1712.49,986.581 1712.49,1022.4 1716.4,1022.4 1716.4,1050.35 1720.3,1050.35 1720.3,1070.49 1724.2,1070.49 1724.2,1083.05 1728.11,1083.05 1728.11,1088.37 1732.01,1088.37 1732.01,1086.95 1735.92,1086.95 1735.92,1079.37 1739.82,1079.37 1739.82,991.972 1743.73,991.972 1743.73,902.089 1747.63,902.089 1747.63,811.204 1751.54,811.204 1751.54,720.777 1755.44,720.777 1755.44,632.218 1759.35,632.218 1759.35,621.238 1763.25,621.238 1763.25,612.507 1767.16,612.507 1767.16,606.508 1771.06,606.508 1771.06,603.651 1774.97,603.651 1774.97,604.27 1778.87,604.27 1778.87,534.242 1782.78,534.242 1782.78,470.298 1786.68,470.298 1786.68,413.155 1790.59,413.155 1790.59,363.375 1794.49,363.375 1794.49,321.367 1798.4,321.367 1798.4,361.748 1802.3,361.748 1802.3,408.037 1806.2,408.037 1806.2,459.525 1810.11,459.525 1810.11,515.419 1814.01,515.419 1814.01,574.857 1817.92,574.857 1817.92,636.932 1821.82,636.932 1821.82,700.707 1825.73,700.707 1825.73,765.236 1829.63,765.236 1829.63,829.581 1833.54,829.581 1833.54,892.833 1837.44,892.833 1837.44,879.754 1841.35,879.754 1841.35,866.105 1845.25,866.105 1845.25,851.791 1849.16,851.791 1849.16,836.736 1853.06,836.736 1853.06,820.885 1856.97,820.885 1856.97,804.204 1860.87,804.204 1860.87,786.68 1864.78,786.68 1864.78,768.318 1868.68,768.318 1868.68,749.148 1872.59,749.148 1872.59,729.215 1876.49,729.215 1876.49,708.581 1880.4,708.581 1880.4,687.326 1884.3,687.326 1884.3,665.54 1888.21,665.54 1888.21,643.328 1892.11,643.328 1892.11,620.801 1896.01,620.801 1896.01,672.452 1899.92,672.452 1899.92,721.836 1903.82,721.836 1903.82,768.444 1907.73,768.444 1907.73,811.83 1911.63,811.83 1911.63,851.623 1915.54,851.623 1915.54,813.152 1919.44,813.152 1919.44,772.771 1923.35,772.771 1923.35,730.984 1927.25,730.984 1927.25,688.311 1931.16,688.311 1931.16,645.277 1935.06,645.277 1935.06,676.778 1938.97,676.778 1938.97,706.752 1942.87,706.752 1942.87,735.048 1946.78,735.048 1946.78,761.546 1950.68,761.546 1950.68,786.161 1954.59,786.161 1954.59,808.845 1958.49,808.845 1958.49,829.585 1962.4,829.585 1962.4,848.403 1966.3,848.403 1966.3,865.355 1970.21,865.355 1970.21,880.528 1974.11,880.528 1974.11,819.661 1978.01,819.661 1978.01,759.463 1981.92,759.463 1981.92,700.73 1985.82,700.73 1985.82,644.211 1989.73,644.211 1989.73,590.591 1993.63,590.591 1993.63,540.484 1997.54,540.484 1997.54,494.418 2001.44,494.418 2001.44,452.831 2005.35,452.831 2005.35,416.061 2009.25,416.061 2009.25,384.348 2013.16,384.348 2013.16,432.202 2017.06,432.202 2017.06,483.09 2020.97,483.09 2020.97,536.309 2024.87,536.309 2024.87,591.13 2028.78,591.13 2028.78,646.809 2032.68,646.809 2032.68,628.227 2036.59,628.227 2036.59,611.224 2040.49,611.224 2040.49,595.736 2044.4,595.736 2044.4,581.676 2048.3,581.676 2048.3,568.933 2052.21,568.933 2052.21,557.377 2056.11,557.377 2056.11,546.865 2060.02,546.865 2060.02,537.236 2063.92,537.236 2063.92,528.324 2067.82,528.324 2067.82,519.955 2071.73,519.955 2071.73,586.328 2075.63,586.328 2075.63,650.704 2079.54,650.704 2079.54,712.277 2083.44,712.277 2083.44,770.321 2087.35,770.321 2087.35,824.192 2091.25,824.192 2091.25,798.971 2095.16,798.971 2095.16,770.786 2099.06,770.786 2099.06,739.939 2102.97,739.939 2102.97,706.783 2106.87,706.783 2106.87,671.707 2110.78,671.707 2110.78,635.129 2114.68,635.129 2114.68,597.49 2118.59,597.49 2118.59,559.24 2122.49,559.24 2122.49,520.831 2126.4,520.831 2126.4,482.708 2130.3,482.708 2130.3,519.678 2134.21,519.678 2134.21,555.579 2138.11,555.579 2138.11,590.153 2142.02,590.153 2142.02,623.172 2145.92,623.172 2145.92,654.439 2149.82,654.439 2149.82,683.796 2153.73,683.796 2153.73,711.121 2157.63,711.121 2157.63,736.333 2161.54,736.333 2161.54,759.391 2165.44,759.391 2165.44,780.291 2169.35,780.291 2169.35,799.073 2173.25,799.073 2173.25,815.808 2177.16,815.808 2177.16,830.604 2181.06,830.604 2181.06,843.602 2184.97,843.602 2184.97,854.968 2188.87,854.968 2188.87,864.89 2192.78,864.89 2192.78,873.58 2196.68,873.58 2196.68,881.261 2200.59,881.261 2200.59,888.166 2204.49,888.166 2204.49,894.533 2208.4,894.533 2208.4,900.601 2212.3,900.601 2212.3,906.603 2216.21,906.603 2216.21,912.764 2220.11,912.764 2220.11,919.295 2224.02,919.295 2224.02,926.392 2227.92,926.392 2227.92,859.853 2231.83,859.853 2231.83,796.395 2235.73,796.395 2235.73,736.779 2239.63,736.779 2239.63,681.669 2243.54,681.669 2243.54,631.627 2247.44,631.627 2247.44,661.477 2251.35,661.477 2251.35,694.984 2255.25,694.984 2255.25,731.724 2259.16,731.724 2259.16,771.218 2263.06,771.218 2263.06,812.946 2266.97,812.946 2266.97,781.978 2270.87,781.978 2270.87,754.308 2274.78,754.308 2274.78,729.986 2278.68,729.986 2278.68,709.003 2282.59,709.003 2282.59,691.283 2286.49,691.283 2286.49,676.697 2290.4,676.697 2290.4,665.06 2294.3,665.06 2294.3,656.136 "/>
<polyline clip-path="url(#clip832)" style="stroke:#e26f46; stroke-linecap:round; stroke-linejoin:round; stroke-width:4; stroke-opacity:1; fill:none" points="345.82,770.229 349.725,523.385 353.63,543.791 357.535,570.074 361.439,597.722 365.344,626.313 369.249,655.494 373.154,684.927 377.059,714.284 380.963,743.256 384.868,771.551 388.773,798.899 392.678,825.052 396.582,849.788 400.487,872.91 404.392,894.247 408.297,913.656 412.201,931.02 416.106,946.253 420.011,959.291 423.916,970.101 427.821,979.369 431.725,912.751 435.63,846.121 439.535,781.33 443.44,719.003 447.344,658.989 451.249,676.142 455.154,695.053 459.059,714.299 462.963,733.639 466.868,753.561 470.773,699.502 474.678,647.115 478.583,598.018 482.487,552.598 486.392,511.166 490.297,473.975 494.202,441.222 498.106,413.046 502.011,389.53 505.916,370.705 509.821,356.549 513.726,346.991 517.63,341.917 521.535,341.166 525.44,343.843 529.345,424.079 533.249,505.772 537.154,586.841 541.059,666.431 544.964,744.46 548.868,745.848 552.773,745.78 556.678,745.463 560.583,744.931 564.488,743.502 568.392,815.555 572.297,885.269 576.202,950.873 580.107,1011.84 584.011,1067.75 587.916,1118.22 591.821,1163 595.726,1201.86 599.631,1234.67 603.535,1262.07 607.44,1209.7 611.345,1153.47 615.25,1095.3 619.154,1035.93 623.059,975.339 626.964,988.562 630.869,1000.39 634.773,1009.63 638.678,1016.28 642.583,1020.39 646.488,1022.05 650.393,1021.35 654.297,1018.41 658.202,1013.36 662.107,1007.07 666.012,925.328 669.916,844.161 673.821,765.544 677.726,690.216 681.631,618.825 685.535,551.947 689.44,490.082 693.345,433.655 697.25,383.009 701.155,337.714 705.059,372.319 708.964,411.102 712.869,452.309 716.774,495.369 720.678,539.732 724.583,584.862 728.488,630.241 732.393,675.372 736.298,719.784 740.202,763.038 744.107,804.724 748.012,844.474 751.917,881.953 755.821,916.868 759.726,949.668 763.631,905.78 767.536,860.877 771.44,816.623 775.345,773.481 779.25,731.159 783.155,764.393 787.06,797.678 790.964,829.518 794.869,859.623 798.774,888.453 802.679,841.438 806.583,794.242 810.488,748.519 814.393,704.703 818.298,663.174 822.202,624.266 826.107,588.271 830.012,555.435 833.917,525.96 837.822,499.999 841.726,477.665 845.631,459.024 849.536,444.099 853.441,432.874 857.345,425.293 861.25,421.263 865.155,420.66 869.06,423.327 872.965,429.08 876.869,437.712 880.774,448.993 884.679,462.677 888.584,478.504 892.488,496.203 896.393,515.495 900.298,536.1 904.203,557.734 908.107,580.117 912.012,602.975 915.917,625.342 919.822,721.324 923.727,814.839 927.631,903.866 931.536,987.648 935.441,1065.54 939.346,1136.99 943.25,1201.53 947.155,1258.82 951.06,1308.57 954.965,1351.31 958.87,1312.6 962.774,1268.29 966.679,1220.24 970.584,1169.17 974.489,1115.76 978.393,1060.71 982.298,1004.67 986.203,948.289 990.108,892.188 994.012,836.256 997.917,855.401 1001.82,874.295 1005.73,891.608 1009.63,907.212 1013.54,921.022 1017.44,932.976 1021.35,943.033 1025.25,951.176 1029.16,957.408 1033.06,961.755 1036.96,964.26 1040.87,964.982 1044.77,963.998 1048.68,961.402 1052.58,957.993 1056.49,879.528 1060.39,801.969 1064.3,727.241 1068.2,656.025 1072.11,588.916 1076.01,526.437 1079.92,469.036 1083.82,417.084 1087.73,370.879 1091.63,329.943 1095.54,368.784 1099.44,411.638 1103.35,456.718 1107.25,503.42 1111.16,551.864 1115.06,527.129 1118.97,504.516 1122.87,485.303 1126.77,469.553 1130.68,457.27 1134.58,448.42 1138.49,442.935 1142.39,440.713 1146.3,441.625 1150.2,445.51 1154.11,452.187 1158.01,461.452 1161.92,473.082 1165.82,486.841 1169.73,501.783 1173.63,592.012 1177.54,681.43 1181.44,767.979 1185.35,850.854 1189.25,929.343 1193.16,1002.82 1197.06,1070.72 1200.97,1132.61 1204.87,1188.09 1208.77,1236.88 1212.68,1278.78 1216.58,1313.67 1220.49,1341.5 1224.39,1362.32 1228.3,1376.23 1232.2,1383.41 1236.11,1384.11 1240.01,1378.63 1243.92,1367.31 1247.82,1351.26 1251.73,1256.55 1255.63,1159.49 1259.54,1062.37 1263.44,966.234 1267.35,872.078 1271.25,780.809 1275.16,693.266 1279.06,610.208 1282.97,532.309 1286.87,460.156 1290.78,394.249 1294.68,334.995 1298.58,282.711 1302.49,237.625 1306.39,199.878 1310.3,169.523 1314.2,146.535 1318.11,130.81 1322.01,122.171 1325.92,119.674 1329.82,197.378 1333.73,279.081 1337.63,362.582 1341.54,446.887 1345.44,531.054 1349.35,614.192 1353.25,695.461 1357.16,774.08 1361.06,849.336 1364.97,921.282 1368.87,914.986 1372.78,905.79 1376.68,895.069 1380.58,883.029 1384.49,869.86 1388.39,855.757 1392.3,840.916 1396.2,825.529 1400.11,809.787 1404.01,793.876 1407.92,777.973 1411.82,762.248 1415.73,746.86 1419.63,731.958 1423.54,717.679 1427.44,704.144 1431.35,691.464 1435.25,679.734 1439.16,669.033 1443.06,658.729 1446.97,723.234 1450.87,786.746 1454.78,847.494 1458.68,904.943 1462.59,958.636 1466.49,1008.18 1470.39,1053.23 1474.3,1093.53 1478.2,1128.88 1482.11,1159.82 1486.01,1111.91 1489.92,1060.98 1493.82,1008.85 1497.73,956.145 1501.63,902.765 1505.54,923.63 1509.44,943.433 1513.35,960.873 1517.25,975.859 1521.16,988.345 1525.06,998.319 1528.97,1005.79 1532.87,1010.8 1536.78,1013.41 1540.68,1014.41 1544.59,939.54 1548.49,864.763 1552.39,792.013 1556.3,721.99 1560.2,654.614 1564.11,664.801 1568.01,677.198 1571.92,690.429 1575.82,704.296 1579.73,718.62 1583.63,733.225 1587.54,747.943 1591.44,762.61 1595.35,777.073 1599.25,791.885 1603.16,732.55 1607.06,674.783 1610.97,620.267 1614.87,569.447 1618.78,522.691 1622.68,480.306 1626.59,442.537 1630.49,409.569 1634.4,381.527 1638.3,358.476 1642.2,340.425 1646.11,327.33 1650.01,319.096 1653.92,315.58 1657.82,316.595 1661.73,321.915 1665.63,331.28 1669.54,344.396 1673.44,360.947 1677.35,379.893 1681.25,475.239 1685.16,570.778 1689.06,664.341 1692.97,755.005 1696.87,841.937 1700.78,924.385 1704.68,1001.68 1708.59,1073.25 1712.49,1138.58 1716.4,1197.29 1720.3,1249.06 1724.2,1293.66 1728.11,1330.97 1732.01,1360.92 1735.92,1384.24 1739.82,1326.68 1743.73,1264.26 1747.63,1199 1751.54,1131.77 1755.44,1062.68 1759.35,1066.86 1763.25,1069.25 1767.16,1068.75 1771.06,1065.5 1774.97,1060.36 1778.87,979.148 1782.78,897.908 1786.68,818.648 1790.59,742.139 1794.49,668.37 1798.4,672.32 1802.3,678.696 1806.2,686.177 1810.11,694.611 1814.01,703.863 1817.92,713.796 1821.82,724.271 1825.73,735.15 1829.63,746.297 1833.54,758.28 1837.44,696.609 1841.35,637.002 1845.25,581.136 1849.16,529.449 1853.06,482.295 1856.97,439.962 1860.87,402.674 1864.78,370.59 1868.68,343.806 1872.59,322.357 1876.49,306.218 1880.4,295.31 1884.3,289.501 1888.21,288.611 1892.11,291.717 1896.01,372.919 1899.92,456.078 1903.82,539.075 1907.73,621.012 1911.63,701.762 1915.54,706.198 1919.44,709.457 1923.35,712.697 1927.25,715.904 1931.16,718.346 1935.06,794.355 1938.97,868.065 1942.87,937.658 1946.78,1002.57 1950.68,1062.32 1954.59,1116.53 1958.49,1164.87 1962.4,1207.12 1966.3,1243.09 1970.21,1273.41 1974.11,1223.71 1978.01,1169.86 1981.92,1113.79 1985.82,1056.22 1989.73,997.826 1993.63,939.279 1997.54,881.211 2001.44,824.22 2005.35,768.863 2009.25,714.956 2013.16,737.327 2017.06,760.556 2020.97,783.213 2024.87,805.067 2028.78,826.619 2032.68,773.333 2036.59,720.893 2040.49,670.957 2044.4,623.958 2048.3,580.26 2052.21,540.172 2056.11,503.951 2060.02,471.802 2063.92,443.874 2067.82,419.567 2071.73,473.29 2075.63,529.203 2079.54,585.466 2083.44,641.442 2087.35,697.246 2091.25,677.968 2095.16,658.941 2099.06,641.493 2102.97,625.755 2106.87,611.814 2110.78,599.733 2114.68,589.553 2118.59,581.293 2122.49,574.95 2126.4,569.803 2130.3,640.17 2134.21,710.154 2138.11,777.885 2142.02,842.73 2145.92,904.131 2149.82,961.596 2153.73,1014.7 2157.63,1063.08 2161.54,1106.44 2165.44,1144.56 2169.35,1177.28 2173.25,1204.51 2177.16,1226.21 2181.06,1242.42 2184.97,1253.23 2188.87,1258.77 2192.78,1259.24 2196.68,1254.87 2200.59,1245.93 2204.49,1232.75 2208.4,1215.66 2212.3,1195.04 2216.21,1171.26 2220.11,1144.73 2224.02,1116.58 2227.92,1012.84 2231.83,909.787 2235.73,809.621 2239.63,713.296 2243.54,620.96 2247.44,607.732 2251.35,598.435 2255.25,591.845 2259.16,587.885 2263.06,587.17 2266.97,515.233 2270.87,447.785 2274.78,386.473 2278.68,331.679 2282.59,283.679 2286.49,242.663 2290.4,208.738 2294.3,181.93 "/>
<polyline clip-path="url(#clip832)" style="stroke:#3da44d; stroke-linecap:round; stroke-linejoin:round; stroke-width:4; stroke-opacity:1; fill:none" points="345.82,766.298 349.725,766.298 353.63,803.486 357.535,839.578 361.439,874.258 365.344,907.243 369.249,938.288 373.154,967.189 377.059,993.788 380.963,1017.97 384.868,1039.68 388.773,1058.89 392.678,1075.64 396.582,1089.99 400.487,1102.06 404.392,1112.01 408.297,1120.02 412.201,1126.31 416.106,1131.12 420.011,1134.71 423.916,1137.35 427.821,1139.32 431.725,1066.53 435.63,995.828 439.535,928.112 443.44,864.205 447.344,804.834 451.249,824.994 455.154,848.624 459.059,875.472 462.963,905.228 466.868,937.531 470.773,897.602 474.678,861.569 478.583,829.607 482.487,801.806 486.392,778.177 490.297,758.654 494.202,743.095 498.106,731.288 502.011,722.959 505.916,717.775 509.821,715.358 513.726,715.289 517.63,717.118 521.535,720.377 525.44,724.585 529.345,803.638 533.249,880.498 537.154,954.078 541.059,1023.38 544.964,1087.53 548.868,1071.37 552.773,1050.87 556.678,1026.16 560.583,997.482 564.488,965.147 568.392,1003.9 572.297,1037.62 576.202,1066.14 580.107,1089.41 584.011,1107.49 587.916,1120.53 591.821,1128.75 595.726,1132.49 599.631,1132.14 603.535,1128.17 607.44,1046.71 611.345,964.908 615.25,883.972 619.154,805.081 623.059,729.338 626.964,732.133 630.869,737.802 634.773,746.496 638.678,758.296 642.583,773.217 646.488,791.208 650.393,812.156 654.297,835.891 658.202,862.188 662.107,890.777 666.012,846.972 669.916,806.993 673.821,771.106 677.726,739.49 681.631,712.24 685.535,689.365 689.44,670.794 693.345,656.375 697.25,645.884 701.155,639.029 705.059,709.835 708.964,781.336 712.869,852.456 716.774,922.156 720.678,989.45 724.583,1053.43 728.488,1113.27 732.393,1168.24 736.298,1217.76 740.202,1261.32 744.107,1298.57 748.012,1329.29 751.917,1353.38 755.821,1370.89 759.726,1381.97 763.631,1312.52 767.536,1239.52 771.44,1164.06 775.345,1087.31 779.25,1010.39 783.155,1008.8 787.06,1007.02 790.964,1005.43 794.869,1004.36 798.774,1004.15 802.679,930.703 806.583,860.849 810.488,795.439 814.393,735.22 818.298,680.816 822.202,632.723 826.107,591.303 830.012,556.778 833.917,529.234 837.822,508.619 841.726,494.752 845.631,487.327 849.536,485.925 853.441,490.024 857.345,499.013 861.25,512.207 865.155,528.862 869.06,548.191 872.965,569.382 876.869,591.612 880.774,614.069 884.679,635.96 888.584,656.533 892.488,675.085 896.393,690.98 900.298,703.653 904.203,712.624 908.107,717.503 912.012,717.997 915.917,713.908 919.822,779.514 923.727,838.25 927.631,889.578 931.536,933.118 935.441,968.65 939.346,996.114 943.25,1015.61 947.155,1027.38 951.06,1031.81 954.965,1029.42 958.87,946.463 962.774,860.241 966.679,772.196 970.584,683.772 974.489,596.38 978.393,511.371 982.298,430.015 986.203,353.474 990.108,282.785 994.012,218.843 997.917,236.761 1001.82,260.546 1005.73,289.965 1009.63,324.676 1013.54,364.241 1017.44,408.133 1021.35,455.755 1025.25,506.446 1029.16,559.505 1033.06,614.197 1036.96,669.775 1040.87,725.494 1044.77,780.622 1048.68,834.457 1052.58,886.342 1056.49,861.296 1060.39,835.346 1064.3,808.658 1068.2,781.413 1072.11,753.799 1076.01,726.012 1079.92,698.246 1083.82,670.696 1087.73,643.549 1091.63,616.979 1095.54,665.528 1099.44,712.776 1103.35,758.218 1107.25,801.397 1111.16,841.91 1115.06,805.038 1118.97,767.07 1122.87,728.43 1126.77,689.55 1130.68,650.853 1134.58,612.751 1138.49,575.637 1142.39,539.875 1146.3,505.794 1150.2,473.686 1154.11,443.796 1158.01,416.324 1161.92,391.418 1165.82,369.175 1169.73,349.64 1173.63,407.181 1177.54,465.177 1181.44,522.889 1185.35,579.605 1189.25,634.645 1193.16,687.383 1197.06,737.249 1200.97,783.745 1204.87,826.447 1208.77,865.017 1212.68,899.203 1216.58,928.843 1220.49,953.867 1224.39,974.292 1228.3,990.222 1232.2,1001.84 1236.11,1009.41 1240.01,1013.27 1243.92,1013.79 1247.82,1011.43 1251.73,932.281 1255.63,853.425 1259.54,776.023 1263.44,701.178 1267.35,629.914 1271.25,563.158 1275.16,501.725 1279.06,446.303 1282.97,397.448 1286.87,355.571 1290.78,320.939 1294.68,293.671 1298.58,273.742 1302.49,260.987 1306.39,255.107 1310.3,255.68 1314.2,262.175 1318.11,273.96 1322.01,290.324 1325.92,310.489 1329.82,408.003 1333.73,505.443 1337.63,601.304 1341.54,694.154 1345.44,782.658 1349.35,865.601 1353.25,941.911 1357.16,1010.67 1361.06,1071.14 1364.97,1122.76 1368.87,1090.78 1372.78,1051.57 1376.68,1005.77 1380.58,954.136 1384.49,897.505 1388.39,836.799 1392.3,772.998 1396.2,707.114 1400.11,640.175 1404.01,573.202 1407.92,507.19 1411.82,443.089 1415.73,381.785 1419.63,324.089 1423.54,270.718 1427.44,222.286 1431.35,179.295 1435.25,142.129 1439.16,111.047 1443.06,86.1857 1446.97,141.933 1450.87,201.615 1454.78,264.377 1458.68,329.322 1462.59,395.537 1466.49,462.101 1470.39,528.114 1474.3,592.708 1478.2,655.062 1482.11,714.422 1486.01,695.735 1489.92,674.978 1493.82,652.292 1497.73,627.855 1501.63,601.877 1505.54,648.973 1509.44,692.835 1513.35,733.106 1517.25,769.506 1521.16,801.833 1525.06,829.97 1528.97,853.881 1532.87,873.609 1536.78,889.276 1540.68,901.076 1544.59,834.893 1548.49,767.613 1552.39,700.241 1556.3,633.757 1560.2,569.098 1564.11,581.517 1568.01,595.249 1571.92,610.372 1575.82,626.932 1579.73,644.941 1583.63,664.377 1587.54,685.188 1591.44,707.294 1595.35,730.586 1599.25,754.932 1603.16,705.806 1607.06,659.603 1610.97,616.775 1614.87,577.699 1618.78,542.667 1622.68,511.89 1626.59,485.49 1630.49,463.505 1634.4,445.888 1638.3,432.509 1642.2,423.164 1646.11,417.58 1650.01,415.418 1653.92,416.288 1657.82,419.754 1661.73,425.345 1665.63,432.567 1669.54,440.909 1673.44,449.859 1677.35,458.908 1681.25,541.943 1685.16,621.93 1689.06,697.806 1692.97,768.612 1696.87,833.515 1700.78,891.819 1704.68,942.973 1708.59,986.581 1712.49,1022.4 1716.4,1050.35 1720.3,1070.49 1724.2,1083.05 1728.11,1088.37 1732.01,1086.95 1735.92,1079.37 1739.82,991.972 1743.73,902.089 1747.63,811.204 1751.54,720.777 1755.44,632.218 1759.35,621.238 1763.25,612.507 1767.16,606.508 1771.06,603.651 1774.97,604.27 1778.87,534.242 1782.78,470.298 1786.68,413.155 1790.59,363.375 1794.49,321.367 1798.4,361.748 1802.3,408.037 1806.2,459.525 1810.11,515.419 1814.01,574.857 1817.92,636.932 1821.82,700.707 1825.73,765.236 1829.63,829.581 1833.54,892.833 1837.44,879.754 1841.35,866.105 1845.25,851.791 1849.16,836.736 1853.06,820.885 1856.97,804.204 1860.87,786.68 1864.78,768.318 1868.68,749.148 1872.59,729.215 1876.49,708.581 1880.4,687.326 1884.3,665.54 1888.21,643.328 1892.11,620.801 1896.01,672.452 1899.92,721.836 1903.82,768.444 1907.73,811.83 1911.63,851.623 1915.54,813.152 1919.44,772.771 1923.35,730.984 1927.25,688.311 1931.16,645.277 1935.06,676.778 1938.97,706.752 1942.87,735.048 1946.78,761.546 1950.68,786.161 1954.59,808.845 1958.49,829.585 1962.4,848.403 1966.3,865.355 1970.21,880.528 1974.11,819.661 1978.01,759.463 1981.92,700.73 1985.82,644.211 1989.73,590.591 1993.63,540.484 1997.54,494.418 2001.44,452.831 2005.35,416.061 2009.25,384.348 2013.16,432.202 2017.06,483.09 2020.97,536.309 2024.87,591.13 2028.78,646.809 2032.68,628.227 2036.59,611.224 2040.49,595.736 2044.4,581.676 2048.3,568.933 2052.21,557.377 2056.11,546.865 2060.02,537.236 2063.92,528.324 2067.82,519.955 2071.73,586.328 2075.63,650.704 2079.54,712.277 2083.44,770.321 2087.35,824.192 2091.25,798.971 2095.16,770.786 2099.06,739.939 2102.97,706.783 2106.87,671.707 2110.78,635.129 2114.68,597.49 2118.59,559.24 2122.49,520.831 2126.4,482.708 2130.3,519.678 2134.21,555.579 2138.11,590.153 2142.02,623.172 2145.92,654.439 2149.82,683.796 2153.73,711.121 2157.63,736.333 2161.54,759.391 2165.44,780.291 2169.35,799.073 2173.25,815.808 2177.16,830.604 2181.06,843.602 2184.97,854.968 2188.87,864.89 2192.78,873.58 2196.68,881.261 2200.59,888.166 2204.49,894.533 2208.4,900.601 2212.3,906.603 2216.21,912.764 2220.11,919.295 2224.02,926.392 2227.92,859.853 2231.83,796.395 2235.73,736.779 2239.63,681.669 2243.54,631.627 2247.44,661.477 2251.35,694.984 2255.25,731.724 2259.16,771.218 2263.06,812.946 2266.97,781.978 2270.87,754.308 2274.78,729.986 2278.68,709.003 2282.59,691.283 2286.49,676.697 2290.4,665.06 2294.3,656.136 "/>
<path clip-path="url(#clip830)" d="M356.212 300.469 L1470.06 300.469 L1470.06 93.1086 L356.212 93.1086  Z" fill="#ffffff" fill-rule="evenodd" fill-opacity="1"/>
<polyline clip-path="url(#clip830)" style="stroke:#000000; stroke-linecap:round; stroke-linejoin:round; stroke-width:4; stroke-opacity:1; fill:none" points="356.212,300.469 1470.06,300.469 1470.06,93.1086 356.212,93.1086 356.212,300.469 "/>
<polyline clip-path="url(#clip830)" style="stroke:#009af9; stroke-linecap:round; stroke-linejoin:round; stroke-width:4; stroke-opacity:1; fill:none" points="379.161,144.949 516.854,144.949 "/>
<path clip-path="url(#clip830)" d="M544.478 131.511 L544.478 158.386 L550.126 158.386 Q557.279 158.386 560.589 155.145 Q563.923 151.905 563.923 144.914 Q563.923 137.969 560.589 134.752 Q557.279 131.511 550.126 131.511 L544.478 131.511 M539.802 127.669 L549.409 127.669 Q559.455 127.669 564.154 131.858 Q568.853 136.025 568.853 144.914 Q568.853 153.849 564.131 158.039 Q559.409 162.229 549.409 162.229 L539.802 162.229 L539.802 127.669 Z" fill="#000000" fill-rule="nonzero" fill-opacity="1" /><path clip-path="url(#clip830)" d="M587.904 149.196 Q582.742 149.196 580.751 150.377 Q578.761 151.557 578.761 154.405 Q578.761 156.673 580.242 158.016 Q581.747 159.335 584.316 159.335 Q587.858 159.335 589.987 156.835 Q592.14 154.312 592.14 150.145 L592.14 149.196 L587.904 149.196 M596.399 147.437 L596.399 162.229 L592.14 162.229 L592.14 158.293 Q590.682 160.655 588.506 161.789 Q586.33 162.9 583.182 162.9 Q579.2 162.9 576.839 160.678 Q574.501 158.432 574.501 154.682 Q574.501 150.307 577.418 148.085 Q580.358 145.863 586.168 145.863 L592.14 145.863 L592.14 145.446 Q592.14 142.507 590.196 140.909 Q588.274 139.289 584.779 139.289 Q582.557 139.289 580.45 139.821 Q578.344 140.354 576.399 141.419 L576.399 137.483 Q578.737 136.581 580.936 136.141 Q583.136 135.678 585.219 135.678 Q590.844 135.678 593.622 138.594 Q596.399 141.511 596.399 147.437 Z" fill="#000000" fill-rule="nonzero" fill-opacity="1" /><path clip-path="url(#clip830)" d="M609.385 128.942 L609.385 136.303 L618.159 136.303 L618.159 139.613 L609.385 139.613 L609.385 153.687 Q609.385 156.858 610.242 157.761 Q611.122 158.664 613.784 158.664 L618.159 158.664 L618.159 162.229 L613.784 162.229 Q608.853 162.229 606.978 160.4 Q605.103 158.548 605.103 153.687 L605.103 139.613 L601.978 139.613 L601.978 136.303 L605.103 136.303 L605.103 128.942 L609.385 128.942 Z" fill="#000000" fill-rule="nonzero" fill-opacity="1" /><path clip-path="url(#clip830)" d="M635.543 149.196 Q630.381 149.196 628.39 150.377 Q626.399 151.557 626.399 154.405 Q626.399 156.673 627.881 158.016 Q629.385 159.335 631.955 159.335 Q635.496 159.335 637.626 156.835 Q639.779 154.312 639.779 150.145 L639.779 149.196 L635.543 149.196 M644.038 147.437 L644.038 162.229 L639.779 162.229 L639.779 158.293 Q638.32 160.655 636.145 161.789 Q633.969 162.9 630.82 162.9 Q626.839 162.9 624.478 160.678 Q622.14 158.432 622.14 154.682 Q622.14 150.307 625.057 148.085 Q627.996 145.863 633.807 145.863 L639.779 145.863 L639.779 145.446 Q639.779 142.507 637.834 140.909 Q635.913 139.289 632.418 139.289 Q630.195 139.289 628.089 139.821 Q625.983 140.354 624.038 141.419 L624.038 137.483 Q626.376 136.581 628.575 136.141 Q630.774 135.678 632.858 135.678 Q638.482 135.678 641.26 138.594 Q644.038 141.511 644.038 147.437 Z" fill="#000000" fill-rule="nonzero" fill-opacity="1" /><polyline clip-path="url(#clip830)" style="stroke:#e26f46; stroke-linecap:round; stroke-linejoin:round; stroke-width:4; stroke-opacity:1; fill:none" points="379.161,196.789 516.854,196.789 "/>
<path clip-path="url(#clip830)" d="M555.636 184.115 L549.293 201.314 L562.001 201.314 L555.636 184.115 M552.997 179.509 L558.298 179.509 L571.469 214.069 L566.608 214.069 L563.46 205.203 L547.881 205.203 L544.733 214.069 L539.802 214.069 L552.997 179.509 Z" fill="#000000" fill-rule="nonzero" fill-opacity="1" /><path clip-path="url(#clip830)" d="M592.904 197.865 Q594.409 198.374 595.821 200.041 Q597.256 201.708 598.691 204.624 L603.436 214.069 L598.413 214.069 L593.992 205.203 Q592.279 201.731 590.659 200.596 Q589.061 199.462 586.284 199.462 L581.191 199.462 L581.191 214.069 L576.515 214.069 L576.515 179.509 L587.071 179.509 Q592.997 179.509 595.913 181.985 Q598.83 184.462 598.83 189.462 Q598.83 192.726 597.302 194.879 Q595.798 197.032 592.904 197.865 M581.191 183.351 L581.191 195.62 L587.071 195.62 Q590.45 195.62 592.163 194.069 Q593.899 192.495 593.899 189.462 Q593.899 186.43 592.163 184.902 Q590.45 183.351 587.071 183.351 L581.191 183.351 Z" fill="#000000" fill-rule="nonzero" fill-opacity="1" /><path clip-path="url(#clip830)" d="M607.788 179.509 L612.811 179.509 L621.399 192.356 L630.033 179.509 L635.057 179.509 L623.946 196.106 L635.797 214.069 L630.774 214.069 L621.052 199.37 L611.26 214.069 L606.214 214.069 L618.552 195.62 L607.788 179.509 Z" fill="#000000" fill-rule="nonzero" fill-opacity="1" /><path clip-path="url(#clip830)" d="M677.001 193.12 Q678.598 190.249 680.82 188.884 Q683.042 187.518 686.052 187.518 Q690.103 187.518 692.302 190.365 Q694.501 193.189 694.501 198.421 L694.501 214.069 L690.218 214.069 L690.218 198.559 Q690.218 194.833 688.899 193.027 Q687.579 191.222 684.871 191.222 Q681.561 191.222 679.64 193.421 Q677.718 195.62 677.718 199.416 L677.718 214.069 L673.436 214.069 L673.436 198.559 Q673.436 194.809 672.117 193.027 Q670.797 191.222 668.043 191.222 Q664.779 191.222 662.857 193.444 Q660.936 195.643 660.936 199.416 L660.936 214.069 L656.654 214.069 L656.654 188.143 L660.936 188.143 L660.936 192.171 Q662.394 189.786 664.431 188.652 Q666.468 187.518 669.269 187.518 Q672.093 187.518 674.061 188.953 Q676.052 190.388 677.001 193.12 Z" fill="#000000" fill-rule="nonzero" fill-opacity="1" /><path clip-path="url(#clip830)" d="M713.042 191.129 Q709.616 191.129 707.626 193.814 Q705.635 196.476 705.635 201.129 Q705.635 205.782 707.602 208.467 Q709.593 211.129 713.042 211.129 Q716.445 211.129 718.436 208.444 Q720.426 205.758 720.426 201.129 Q720.426 196.522 718.436 193.837 Q716.445 191.129 713.042 191.129 M713.042 187.518 Q718.598 187.518 721.769 191.129 Q724.94 194.74 724.94 201.129 Q724.94 207.495 721.769 211.129 Q718.598 214.74 713.042 214.74 Q707.464 214.74 704.292 211.129 Q701.144 207.495 701.144 201.129 Q701.144 194.74 704.292 191.129 Q707.464 187.518 713.042 187.518 Z" fill="#000000" fill-rule="nonzero" fill-opacity="1" /><path clip-path="url(#clip830)" d="M749.061 192.078 L749.061 178.05 L753.32 178.05 L753.32 214.069 L749.061 214.069 L749.061 210.18 Q747.718 212.495 745.658 213.629 Q743.621 214.74 740.75 214.74 Q736.051 214.74 733.088 210.99 Q730.149 207.24 730.149 201.129 Q730.149 195.018 733.088 191.268 Q736.051 187.518 740.75 187.518 Q743.621 187.518 745.658 188.652 Q747.718 189.763 749.061 192.078 M734.547 201.129 Q734.547 205.828 736.468 208.513 Q738.413 211.175 741.792 211.175 Q745.172 211.175 747.116 208.513 Q749.061 205.828 749.061 201.129 Q749.061 196.43 747.116 193.768 Q745.172 191.083 741.792 191.083 Q738.413 191.083 736.468 193.768 Q734.547 196.43 734.547 201.129 Z" fill="#000000" fill-rule="nonzero" fill-opacity="1" /><path clip-path="url(#clip830)" d="M784.269 200.041 L784.269 202.124 L764.686 202.124 Q764.963 206.522 767.324 208.837 Q769.709 211.129 773.945 211.129 Q776.398 211.129 778.69 210.527 Q781.005 209.925 783.273 208.721 L783.273 212.749 Q780.982 213.721 778.574 214.231 Q776.167 214.74 773.69 214.74 Q767.486 214.74 763.852 211.129 Q760.241 207.518 760.241 201.36 Q760.241 194.995 763.667 191.268 Q767.116 187.518 772.949 187.518 Q778.181 187.518 781.213 190.897 Q784.269 194.254 784.269 200.041 M780.01 198.791 Q779.963 195.296 778.042 193.212 Q776.144 191.129 772.996 191.129 Q769.431 191.129 767.278 193.143 Q765.148 195.157 764.824 198.814 L780.01 198.791 Z" fill="#000000" fill-rule="nonzero" fill-opacity="1" /><path clip-path="url(#clip830)" d="M791.259 178.05 L795.519 178.05 L795.519 214.069 L791.259 214.069 L791.259 178.05 Z" fill="#000000" fill-rule="nonzero" fill-opacity="1" /><path clip-path="url(#clip830)" d="M836.028 188.907 L836.028 192.934 Q834.222 192.009 832.278 191.546 Q830.333 191.083 828.25 191.083 Q825.079 191.083 823.481 192.055 Q821.907 193.027 821.907 194.971 Q821.907 196.453 823.042 197.309 Q824.176 198.143 827.602 198.907 L829.06 199.231 Q833.597 200.203 835.495 201.985 Q837.417 203.745 837.417 206.916 Q837.417 210.527 834.546 212.633 Q831.699 214.74 826.699 214.74 Q824.616 214.74 822.347 214.323 Q820.102 213.93 817.602 213.12 L817.602 208.721 Q819.963 209.948 822.255 210.573 Q824.546 211.175 826.792 211.175 Q829.801 211.175 831.421 210.157 Q833.042 209.115 833.042 207.24 Q833.042 205.504 831.861 204.578 Q830.704 203.652 826.745 202.796 L825.264 202.448 Q821.306 201.615 819.546 199.902 Q817.787 198.166 817.787 195.157 Q817.787 191.499 820.38 189.509 Q822.972 187.518 827.741 187.518 Q830.102 187.518 832.185 187.865 Q834.268 188.212 836.028 188.907 Z" fill="#000000" fill-rule="nonzero" fill-opacity="1" /><path clip-path="url(#clip830)" d="M844.199 188.143 L848.458 188.143 L848.458 214.069 L844.199 214.069 L844.199 188.143 M844.199 178.05 L848.458 178.05 L848.458 183.444 L844.199 183.444 L844.199 178.05 Z" fill="#000000" fill-rule="nonzero" fill-opacity="1" /><path clip-path="url(#clip830)" d="M877.555 193.12 Q879.152 190.249 881.375 188.884 Q883.597 187.518 886.606 187.518 Q890.657 187.518 892.856 190.365 Q895.055 193.189 895.055 198.421 L895.055 214.069 L890.773 214.069 L890.773 198.559 Q890.773 194.833 889.453 193.027 Q888.134 191.222 885.426 191.222 Q882.115 191.222 880.194 193.421 Q878.273 195.62 878.273 199.416 L878.273 214.069 L873.99 214.069 L873.99 198.559 Q873.99 194.809 872.671 193.027 Q871.352 191.222 868.597 191.222 Q865.333 191.222 863.412 193.444 Q861.491 195.643 861.491 199.416 L861.491 214.069 L857.208 214.069 L857.208 188.143 L861.491 188.143 L861.491 192.171 Q862.949 189.786 864.986 188.652 Q867.023 187.518 869.824 187.518 Q872.648 187.518 874.615 188.953 Q876.606 190.388 877.555 193.12 Z" fill="#000000" fill-rule="nonzero" fill-opacity="1" /><path clip-path="url(#clip830)" d="M931.745 178.05 L931.745 181.592 L927.671 181.592 Q925.379 181.592 924.476 182.518 Q923.597 183.444 923.597 185.851 L923.597 188.143 L930.611 188.143 L930.611 191.453 L923.597 191.453 L923.597 214.069 L919.314 214.069 L919.314 191.453 L915.24 191.453 L915.24 188.143 L919.314 188.143 L919.314 186.337 Q919.314 182.009 921.328 180.041 Q923.342 178.05 927.717 178.05 L931.745 178.05 Z" fill="#000000" fill-rule="nonzero" fill-opacity="1" /><path clip-path="url(#clip830)" d="M935.31 188.143 L939.569 188.143 L939.569 214.069 L935.31 214.069 L935.31 188.143 M935.31 178.05 L939.569 178.05 L939.569 183.444 L935.31 183.444 L935.31 178.05 Z" fill="#000000" fill-rule="nonzero" fill-opacity="1" /><path clip-path="url(#clip830)" d="M952.694 180.782 L952.694 188.143 L961.467 188.143 L961.467 191.453 L952.694 191.453 L952.694 205.527 Q952.694 208.698 953.55 209.601 Q954.43 210.504 957.092 210.504 L961.467 210.504 L961.467 214.069 L957.092 214.069 Q952.161 214.069 950.286 212.24 Q948.411 210.388 948.411 205.527 L948.411 191.453 L945.286 191.453 L945.286 188.143 L948.411 188.143 L948.411 180.782 L952.694 180.782 Z" fill="#000000" fill-rule="nonzero" fill-opacity="1" /><path clip-path="url(#clip830)" d="M998.295 208.189 L1003.18 208.189 L1003.18 214.069 L998.295 214.069 L998.295 208.189 M998.295 189.555 L1003.18 189.555 L1003.18 195.434 L998.295 195.434 L998.295 189.555 Z" fill="#000000" fill-rule="nonzero" fill-opacity="1" /><path clip-path="url(#clip830)" d="M1011.03 199.184 L1023.5 199.184 L1023.5 202.981 L1011.03 202.981 L1011.03 199.184 Z" fill="#000000" fill-rule="nonzero" fill-opacity="1" /><path clip-path="url(#clip830)" d="M1031.7 210.133 L1039.34 210.133 L1039.34 183.768 L1031.03 185.435 L1031.03 181.175 L1039.29 179.509 L1043.97 179.509 L1043.97 210.133 L1051.61 210.133 L1051.61 214.069 L1031.7 214.069 L1031.7 210.133 Z" fill="#000000" fill-rule="nonzero" fill-opacity="1" /><path clip-path="url(#clip830)" d="M1061.19 213.351 L1061.19 209.092 Q1062.95 209.925 1064.75 210.365 Q1066.56 210.805 1068.29 210.805 Q1072.92 210.805 1075.36 207.703 Q1077.81 204.578 1078.16 198.235 Q1076.81 200.226 1074.75 201.291 Q1072.69 202.356 1070.19 202.356 Q1065.01 202.356 1061.98 199.231 Q1058.97 196.083 1058.97 190.643 Q1058.97 185.319 1062.11 182.101 Q1065.26 178.884 1070.49 178.884 Q1076.49 178.884 1079.64 183.49 Q1082.81 188.073 1082.81 196.823 Q1082.81 204.995 1078.92 209.879 Q1075.05 214.74 1068.5 214.74 Q1066.74 214.74 1064.94 214.393 Q1063.13 214.045 1061.19 213.351 M1070.49 198.698 Q1073.64 198.698 1075.47 196.546 Q1077.32 194.393 1077.32 190.643 Q1077.32 186.916 1075.47 184.763 Q1073.64 182.587 1070.49 182.587 Q1067.35 182.587 1065.49 184.763 Q1063.67 186.916 1063.67 190.643 Q1063.67 194.393 1065.49 196.546 Q1067.35 198.698 1070.49 198.698 Z" fill="#000000" fill-rule="nonzero" fill-opacity="1" /><path clip-path="url(#clip830)" d="M1091.21 208.189 L1096.1 208.189 L1096.1 214.069 L1091.21 214.069 L1091.21 208.189 Z" fill="#000000" fill-rule="nonzero" fill-opacity="1" /><path clip-path="url(#clip830)" d="M1119.13 183.583 L1107.32 202.032 L1119.13 202.032 L1119.13 183.583 M1117.9 179.509 L1123.78 179.509 L1123.78 202.032 L1128.71 202.032 L1128.71 205.921 L1123.78 205.921 L1123.78 214.069 L1119.13 214.069 L1119.13 205.921 L1103.53 205.921 L1103.53 201.407 L1117.9 179.509 Z" fill="#000000" fill-rule="nonzero" fill-opacity="1" /><path clip-path="url(#clip830)" d="M1165.84 198.86 Q1163.83 198.86 1162.67 200.573 Q1161.54 202.286 1161.54 205.342 Q1161.54 208.351 1162.67 210.087 Q1163.83 211.8 1165.84 211.8 Q1167.81 211.8 1168.94 210.087 Q1170.1 208.351 1170.1 205.342 Q1170.1 202.309 1168.94 200.596 Q1167.81 198.86 1165.84 198.86 M1165.84 195.921 Q1169.5 195.921 1171.65 198.467 Q1173.8 201.013 1173.8 205.342 Q1173.8 209.67 1171.63 212.217 Q1169.48 214.74 1165.84 214.74 Q1162.14 214.74 1159.98 212.217 Q1157.83 209.67 1157.83 205.342 Q1157.83 200.99 1159.98 198.467 Q1162.16 195.921 1165.84 195.921 M1141.95 181.823 Q1139.96 181.823 1138.8 183.56 Q1137.67 185.272 1137.67 188.282 Q1137.67 191.337 1138.8 193.05 Q1139.94 194.763 1141.95 194.763 Q1143.97 194.763 1145.1 193.05 Q1146.26 191.337 1146.26 188.282 Q1146.26 185.296 1145.1 183.56 Q1143.94 181.823 1141.95 181.823 M1162.85 178.884 L1166.56 178.884 L1144.94 214.74 L1141.23 214.74 L1162.85 178.884 M1141.95 178.884 Q1145.61 178.884 1147.79 181.43 Q1149.96 183.953 1149.96 188.282 Q1149.96 192.657 1147.79 195.18 Q1145.63 197.703 1141.95 197.703 Q1138.27 197.703 1136.12 195.18 Q1133.99 192.634 1133.99 188.282 Q1133.99 183.976 1136.14 181.43 Q1138.29 178.884 1141.95 178.884 Z" fill="#000000" fill-rule="nonzero" fill-opacity="1" /><polyline clip-path="url(#clip830)" style="stroke:#3da44d; stroke-linecap:round; stroke-linejoin:round; stroke-width:4; stroke-opacity:1; fill:none" points="379.161,248.629 516.854,248.629 "/>
<path clip-path="url(#clip830)" d="M555.636 235.955 L549.293 253.154 L562.001 253.154 L555.636 235.955 M552.997 231.349 L558.298 231.349 L571.469 265.909 L566.608 265.909 L563.46 257.043 L547.881 257.043 L544.733 265.909 L539.802 265.909 L552.997 231.349 Z" fill="#000000" fill-rule="nonzero" fill-opacity="1" /><path clip-path="url(#clip830)" d="M592.904 249.705 Q594.409 250.214 595.821 251.881 Q597.256 253.548 598.691 256.464 L603.436 265.909 L598.413 265.909 L593.992 257.043 Q592.279 253.571 590.659 252.436 Q589.061 251.302 586.284 251.302 L581.191 251.302 L581.191 265.909 L576.515 265.909 L576.515 231.349 L587.071 231.349 Q592.997 231.349 595.913 233.825 Q598.83 236.302 598.83 241.302 Q598.83 244.566 597.302 246.719 Q595.798 248.872 592.904 249.705 M581.191 235.191 L581.191 247.46 L587.071 247.46 Q590.45 247.46 592.163 245.909 Q593.899 244.335 593.899 241.302 Q593.899 238.27 592.163 236.742 Q590.45 235.191 587.071 235.191 L581.191 235.191 Z" fill="#000000" fill-rule="nonzero" fill-opacity="1" /><path clip-path="url(#clip830)" d="M607.788 231.349 L612.811 231.349 L621.399 244.196 L630.033 231.349 L635.057 231.349 L623.946 247.946 L635.797 265.909 L630.774 265.909 L621.052 251.21 L611.26 265.909 L606.214 265.909 L618.552 247.46 L607.788 231.349 Z" fill="#000000" fill-rule="nonzero" fill-opacity="1" /><path clip-path="url(#clip830)" d="M677.001 244.96 Q678.598 242.089 680.82 240.724 Q683.042 239.358 686.052 239.358 Q690.103 239.358 692.302 242.205 Q694.501 245.029 694.501 250.261 L694.501 265.909 L690.218 265.909 L690.218 250.399 Q690.218 246.673 688.899 244.867 Q687.579 243.062 684.871 243.062 Q681.561 243.062 679.64 245.261 Q677.718 247.46 677.718 251.256 L677.718 265.909 L673.436 265.909 L673.436 250.399 Q673.436 246.649 672.117 244.867 Q670.797 243.062 668.043 243.062 Q664.779 243.062 662.857 245.284 Q660.936 247.483 660.936 251.256 L660.936 265.909 L656.654 265.909 L656.654 239.983 L660.936 239.983 L660.936 244.011 Q662.394 241.626 664.431 240.492 Q666.468 239.358 669.269 239.358 Q672.093 239.358 674.061 240.793 Q676.052 242.228 677.001 244.96 Z" fill="#000000" fill-rule="nonzero" fill-opacity="1" /><path clip-path="url(#clip830)" d="M713.042 242.969 Q709.616 242.969 707.626 245.654 Q705.635 248.316 705.635 252.969 Q705.635 257.622 707.602 260.307 Q709.593 262.969 713.042 262.969 Q716.445 262.969 718.436 260.284 Q720.426 257.598 720.426 252.969 Q720.426 248.362 718.436 245.677 Q716.445 242.969 713.042 242.969 M713.042 239.358 Q718.598 239.358 721.769 242.969 Q724.94 246.58 724.94 252.969 Q724.94 259.335 721.769 262.969 Q718.598 266.58 713.042 266.58 Q707.464 266.58 704.292 262.969 Q701.144 259.335 701.144 252.969 Q701.144 246.58 704.292 242.969 Q707.464 239.358 713.042 239.358 Z" fill="#000000" fill-rule="nonzero" fill-opacity="1" /><path clip-path="url(#clip830)" d="M749.061 243.918 L749.061 229.89 L753.32 229.89 L753.32 265.909 L749.061 265.909 L749.061 262.02 Q747.718 264.335 745.658 265.469 Q743.621 266.58 740.75 266.58 Q736.051 266.58 733.088 262.83 Q730.149 259.08 730.149 252.969 Q730.149 246.858 733.088 243.108 Q736.051 239.358 740.75 239.358 Q743.621 239.358 745.658 240.492 Q747.718 241.603 749.061 243.918 M734.547 252.969 Q734.547 257.668 736.468 260.353 Q738.413 263.015 741.792 263.015 Q745.172 263.015 747.116 260.353 Q749.061 257.668 749.061 252.969 Q749.061 248.27 747.116 245.608 Q745.172 242.923 741.792 242.923 Q738.413 242.923 736.468 245.608 Q734.547 248.27 734.547 252.969 Z" fill="#000000" fill-rule="nonzero" fill-opacity="1" /><path clip-path="url(#clip830)" d="M784.269 251.881 L784.269 253.964 L764.686 253.964 Q764.963 258.362 767.324 260.677 Q769.709 262.969 773.945 262.969 Q776.398 262.969 778.69 262.367 Q781.005 261.765 783.273 260.561 L783.273 264.589 Q780.982 265.561 778.574 266.071 Q776.167 266.58 773.69 266.58 Q767.486 266.58 763.852 262.969 Q760.241 259.358 760.241 253.2 Q760.241 246.835 763.667 243.108 Q767.116 239.358 772.949 239.358 Q778.181 239.358 781.213 242.737 Q784.269 246.094 784.269 251.881 M780.01 250.631 Q779.963 247.136 778.042 245.052 Q776.144 242.969 772.996 242.969 Q769.431 242.969 767.278 244.983 Q765.148 246.997 764.824 250.654 L780.01 250.631 Z" fill="#000000" fill-rule="nonzero" fill-opacity="1" /><path clip-path="url(#clip830)" d="M791.259 229.89 L795.519 229.89 L795.519 265.909 L791.259 265.909 L791.259 229.89 Z" fill="#000000" fill-rule="nonzero" fill-opacity="1" /><path clip-path="url(#clip830)" d="M817.023 239.983 L821.282 239.983 L826.606 260.214 L831.907 239.983 L836.93 239.983 L842.255 260.214 L847.555 239.983 L851.815 239.983 L845.032 265.909 L840.009 265.909 L834.431 244.659 L828.829 265.909 L823.806 265.909 L817.023 239.983 Z" fill="#000000" fill-rule="nonzero" fill-opacity="1" /><path clip-path="url(#clip830)" d="M858.273 239.983 L862.532 239.983 L862.532 265.909 L858.273 265.909 L858.273 239.983 M858.273 229.89 L862.532 229.89 L862.532 235.284 L858.273 235.284 L858.273 229.89 Z" fill="#000000" fill-rule="nonzero" fill-opacity="1" /><path clip-path="url(#clip830)" d="M875.657 232.622 L875.657 239.983 L884.43 239.983 L884.43 243.293 L875.657 243.293 L875.657 257.367 Q875.657 260.538 876.514 261.441 Q877.393 262.344 880.055 262.344 L884.43 262.344 L884.43 265.909 L880.055 265.909 Q875.125 265.909 873.25 264.08 Q871.375 262.228 871.375 257.367 L871.375 243.293 L868.25 243.293 L868.25 239.983 L871.375 239.983 L871.375 232.622 L875.657 232.622 Z" fill="#000000" fill-rule="nonzero" fill-opacity="1" /><path clip-path="url(#clip830)" d="M911.583 250.261 L911.583 265.909 L907.324 265.909 L907.324 250.399 Q907.324 246.719 905.888 244.89 Q904.453 243.062 901.583 243.062 Q898.134 243.062 896.143 245.261 Q894.152 247.46 894.152 251.256 L894.152 265.909 L889.87 265.909 L889.87 229.89 L894.152 229.89 L894.152 244.011 Q895.68 241.673 897.74 240.515 Q899.824 239.358 902.532 239.358 Q907 239.358 909.291 242.136 Q911.583 244.89 911.583 250.261 Z" fill="#000000" fill-rule="nonzero" fill-opacity="1" /><path clip-path="url(#clip830)" d="M952.208 243.918 L952.208 229.89 L956.467 229.89 L956.467 265.909 L952.208 265.909 L952.208 262.02 Q950.865 264.335 948.805 265.469 Q946.768 266.58 943.898 266.58 Q939.198 266.58 936.236 262.83 Q933.296 259.08 933.296 252.969 Q933.296 246.858 936.236 243.108 Q939.198 239.358 943.898 239.358 Q946.768 239.358 948.805 240.492 Q950.865 241.603 952.208 243.918 M937.694 252.969 Q937.694 257.668 939.615 260.353 Q941.56 263.015 944.939 263.015 Q948.319 263.015 950.263 260.353 Q952.208 257.668 952.208 252.969 Q952.208 248.27 950.263 245.608 Q948.319 242.923 944.939 242.923 Q941.56 242.923 939.615 245.608 Q937.694 248.27 937.694 252.969 Z" fill="#000000" fill-rule="nonzero" fill-opacity="1" /><path clip-path="url(#clip830)" d="M987.416 251.881 L987.416 253.964 L967.833 253.964 Q968.11 258.362 970.471 260.677 Q972.856 262.969 977.092 262.969 Q979.545 262.969 981.837 262.367 Q984.152 261.765 986.42 260.561 L986.42 264.589 Q984.129 265.561 981.721 266.071 Q979.314 266.58 976.837 266.58 Q970.633 266.58 966.999 262.969 Q963.388 259.358 963.388 253.2 Q963.388 246.835 966.814 243.108 Q970.263 239.358 976.096 239.358 Q981.328 239.358 984.36 242.737 Q987.416 246.094 987.416 251.881 M983.157 250.631 Q983.11 247.136 981.189 245.052 Q979.291 242.969 976.143 242.969 Q972.578 242.969 970.425 244.983 Q968.296 246.997 967.971 250.654 L983.157 250.631 Z" fill="#000000" fill-rule="nonzero" fill-opacity="1" /><path clip-path="url(#clip830)" d="M994.407 229.89 L998.666 229.89 L998.666 265.909 L994.407 265.909 L994.407 229.89 Z" fill="#000000" fill-rule="nonzero" fill-opacity="1" /><path clip-path="url(#clip830)" d="M1019.36 252.876 Q1014.2 252.876 1012.21 254.057 Q1010.22 255.237 1010.22 258.085 Q1010.22 260.353 1011.7 261.696 Q1013.2 263.015 1015.77 263.015 Q1019.31 263.015 1021.44 260.515 Q1023.6 257.992 1023.6 253.825 L1023.6 252.876 L1019.36 252.876 M1027.86 251.117 L1027.86 265.909 L1023.6 265.909 L1023.6 261.973 Q1022.14 264.335 1019.96 265.469 Q1017.79 266.58 1014.64 266.58 Q1010.66 266.58 1008.3 264.358 Q1005.96 262.112 1005.96 258.362 Q1005.96 253.987 1008.87 251.765 Q1011.81 249.543 1017.62 249.543 L1023.6 249.543 L1023.6 249.126 Q1023.6 246.187 1021.65 244.589 Q1019.73 242.969 1016.24 242.969 Q1014.01 242.969 1011.91 243.501 Q1009.8 244.034 1007.86 245.099 L1007.86 241.163 Q1010.19 240.261 1012.39 239.821 Q1014.59 239.358 1016.67 239.358 Q1022.3 239.358 1025.08 242.274 Q1027.86 245.191 1027.86 251.117 Z" fill="#000000" fill-rule="nonzero" fill-opacity="1" /><path clip-path="url(#clip830)" d="M1047.42 268.316 Q1045.61 272.946 1043.9 274.358 Q1042.18 275.77 1039.31 275.77 L1035.91 275.77 L1035.91 272.205 L1038.41 272.205 Q1040.17 272.205 1041.14 271.372 Q1042.11 270.538 1043.3 267.436 L1044.06 265.492 L1033.57 239.983 L1038.09 239.983 L1046.19 260.261 L1054.29 239.983 L1058.8 239.983 L1047.42 268.316 Z" fill="#000000" fill-rule="nonzero" fill-opacity="1" /><path clip-path="url(#clip830)" d="M1096.28 240.747 L1096.28 244.774 Q1094.48 243.849 1092.53 243.386 Q1090.59 242.923 1088.5 242.923 Q1085.33 242.923 1083.73 243.895 Q1082.16 244.867 1082.16 246.811 Q1082.16 248.293 1083.29 249.149 Q1084.43 249.983 1087.86 250.747 L1089.31 251.071 Q1093.85 252.043 1095.75 253.825 Q1097.67 255.585 1097.67 258.756 Q1097.67 262.367 1094.8 264.473 Q1091.95 266.58 1086.95 266.58 Q1084.87 266.58 1082.6 266.163 Q1080.36 265.77 1077.86 264.96 L1077.86 260.561 Q1080.22 261.788 1082.51 262.413 Q1084.8 263.015 1087.04 263.015 Q1090.05 263.015 1091.67 261.997 Q1093.29 260.955 1093.29 259.08 Q1093.29 257.344 1092.11 256.418 Q1090.96 255.492 1087 254.636 L1085.52 254.288 Q1081.56 253.455 1079.8 251.742 Q1078.04 250.006 1078.04 246.997 Q1078.04 243.339 1080.63 241.349 Q1083.23 239.358 1087.99 239.358 Q1090.36 239.358 1092.44 239.705 Q1094.52 240.052 1096.28 240.747 Z" fill="#000000" fill-rule="nonzero" fill-opacity="1" /><path clip-path="url(#clip830)" d="M1104.45 239.983 L1108.71 239.983 L1108.71 265.909 L1104.45 265.909 L1104.45 239.983 M1104.45 229.89 L1108.71 229.89 L1108.71 235.284 L1104.45 235.284 L1104.45 229.89 Z" fill="#000000" fill-rule="nonzero" fill-opacity="1" /><path clip-path="url(#clip830)" d="M1137.81 244.96 Q1139.41 242.089 1141.63 240.724 Q1143.85 239.358 1146.86 239.358 Q1150.91 239.358 1153.11 242.205 Q1155.31 245.029 1155.31 250.261 L1155.31 265.909 L1151.03 265.909 L1151.03 250.399 Q1151.03 246.673 1149.71 244.867 Q1148.39 243.062 1145.68 243.062 Q1142.37 243.062 1140.45 245.261 Q1138.53 247.46 1138.53 251.256 L1138.53 265.909 L1134.24 265.909 L1134.24 250.399 Q1134.24 246.649 1132.92 244.867 Q1131.6 243.062 1128.85 243.062 Q1125.59 243.062 1123.67 245.284 Q1121.74 247.483 1121.74 251.256 L1121.74 265.909 L1117.46 265.909 L1117.46 239.983 L1121.74 239.983 L1121.74 244.011 Q1123.2 241.626 1125.24 240.492 Q1127.28 239.358 1130.08 239.358 Q1132.9 239.358 1134.87 240.793 Q1136.86 242.228 1137.81 244.96 Z" fill="#000000" fill-rule="nonzero" fill-opacity="1" /><path clip-path="url(#clip830)" d="M1192 229.89 L1192 233.432 L1187.92 233.432 Q1185.63 233.432 1184.73 234.358 Q1183.85 235.284 1183.85 237.691 L1183.85 239.983 L1190.86 239.983 L1190.86 243.293 L1183.85 243.293 L1183.85 265.909 L1179.57 265.909 L1179.57 243.293 L1175.49 243.293 L1175.49 239.983 L1179.57 239.983 L1179.57 238.177 Q1179.57 233.849 1181.58 231.881 Q1183.6 229.89 1187.97 229.89 L1192 229.89 Z" fill="#000000" fill-rule="nonzero" fill-opacity="1" /><path clip-path="url(#clip830)" d="M1195.56 239.983 L1199.82 239.983 L1199.82 265.909 L1195.56 265.909 L1195.56 239.983 M1195.56 229.89 L1199.82 229.89 L1199.82 235.284 L1195.56 235.284 L1195.56 229.89 Z" fill="#000000" fill-rule="nonzero" fill-opacity="1" /><path clip-path="url(#clip830)" d="M1212.95 232.622 L1212.95 239.983 L1221.72 239.983 L1221.72 243.293 L1212.95 243.293 L1212.95 257.367 Q1212.95 260.538 1213.8 261.441 Q1214.68 262.344 1217.35 262.344 L1221.72 262.344 L1221.72 265.909 L1217.35 265.909 Q1212.41 265.909 1210.54 264.08 Q1208.66 262.228 1208.66 257.367 L1208.66 243.293 L1205.54 243.293 L1205.54 239.983 L1208.66 239.983 L1208.66 232.622 L1212.95 232.622 Z" fill="#000000" fill-rule="nonzero" fill-opacity="1" /><path clip-path="url(#clip830)" d="M1258.55 260.029 L1263.43 260.029 L1263.43 265.909 L1258.55 265.909 L1258.55 260.029 M1258.55 241.395 L1263.43 241.395 L1263.43 247.274 L1258.55 247.274 L1258.55 241.395 Z" fill="#000000" fill-rule="nonzero" fill-opacity="1" /><path clip-path="url(#clip830)" d="M1274.84 261.973 L1282.48 261.973 L1282.48 235.608 L1274.17 237.275 L1274.17 233.015 L1282.44 231.349 L1287.11 231.349 L1287.11 261.973 L1294.75 261.973 L1294.75 265.909 L1274.84 265.909 L1274.84 261.973 Z" fill="#000000" fill-rule="nonzero" fill-opacity="1" /><path clip-path="url(#clip830)" d="M1314.2 234.427 Q1310.59 234.427 1308.76 237.992 Q1306.95 241.534 1306.95 248.663 Q1306.95 255.77 1308.76 259.335 Q1310.59 262.876 1314.2 262.876 Q1317.83 262.876 1319.64 259.335 Q1321.46 255.77 1321.46 248.663 Q1321.46 241.534 1319.64 237.992 Q1317.83 234.427 1314.2 234.427 M1314.2 230.724 Q1320.01 230.724 1323.06 235.33 Q1326.14 239.913 1326.14 248.663 Q1326.14 257.39 1323.06 261.997 Q1320.01 266.58 1314.2 266.58 Q1308.39 266.58 1305.31 261.997 Q1302.25 257.39 1302.25 248.663 Q1302.25 239.913 1305.31 235.33 Q1308.39 230.724 1314.2 230.724 Z" fill="#000000" fill-rule="nonzero" fill-opacity="1" /><path clip-path="url(#clip830)" d="M1344.36 234.427 Q1340.75 234.427 1338.92 237.992 Q1337.11 241.534 1337.11 248.663 Q1337.11 255.77 1338.92 259.335 Q1340.75 262.876 1344.36 262.876 Q1347.99 262.876 1349.8 259.335 Q1351.63 255.77 1351.63 248.663 Q1351.63 241.534 1349.8 237.992 Q1347.99 234.427 1344.36 234.427 M1344.36 230.724 Q1350.17 230.724 1353.22 235.33 Q1356.3 239.913 1356.3 248.663 Q1356.3 257.39 1353.22 261.997 Q1350.17 266.58 1344.36 266.58 Q1338.55 266.58 1335.47 261.997 Q1332.41 257.39 1332.41 248.663 Q1332.41 239.913 1335.47 235.33 Q1338.55 230.724 1344.36 230.724 Z" fill="#000000" fill-rule="nonzero" fill-opacity="1" /><path clip-path="url(#clip830)" d="M1364.52 260.029 L1369.4 260.029 L1369.4 265.909 L1364.52 265.909 L1364.52 260.029 Z" fill="#000000" fill-rule="nonzero" fill-opacity="1" /><path clip-path="url(#clip830)" d="M1389.59 234.427 Q1385.98 234.427 1384.15 237.992 Q1382.34 241.534 1382.34 248.663 Q1382.34 255.77 1384.15 259.335 Q1385.98 262.876 1389.59 262.876 Q1393.22 262.876 1395.03 259.335 Q1396.86 255.77 1396.86 248.663 Q1396.86 241.534 1395.03 237.992 Q1393.22 234.427 1389.59 234.427 M1389.59 230.724 Q1395.4 230.724 1398.46 235.33 Q1401.53 239.913 1401.53 248.663 Q1401.53 257.39 1398.46 261.997 Q1395.4 266.58 1389.59 266.58 Q1383.78 266.58 1380.7 261.997 Q1377.65 257.39 1377.65 248.663 Q1377.65 239.913 1380.7 235.33 Q1383.78 230.724 1389.59 230.724 Z" fill="#000000" fill-rule="nonzero" fill-opacity="1" /><path clip-path="url(#clip830)" d="M1439.15 250.7 Q1437.14 250.7 1435.98 252.413 Q1434.84 254.126 1434.84 257.182 Q1434.84 260.191 1435.98 261.927 Q1437.14 263.64 1439.15 263.64 Q1441.12 263.64 1442.25 261.927 Q1443.41 260.191 1443.41 257.182 Q1443.41 254.149 1442.25 252.436 Q1441.12 250.7 1439.15 250.7 M1439.15 247.761 Q1442.81 247.761 1444.96 250.307 Q1447.11 252.853 1447.11 257.182 Q1447.11 261.51 1444.94 264.057 Q1442.78 266.58 1439.15 266.58 Q1435.45 266.58 1433.29 264.057 Q1431.14 261.51 1431.14 257.182 Q1431.14 252.83 1433.29 250.307 Q1435.47 247.761 1439.15 247.761 M1415.26 233.663 Q1413.27 233.663 1412.11 235.4 Q1410.98 237.112 1410.98 240.122 Q1410.98 243.177 1412.11 244.89 Q1413.25 246.603 1415.26 246.603 Q1417.27 246.603 1418.41 244.89 Q1419.57 243.177 1419.57 240.122 Q1419.57 237.136 1418.41 235.4 Q1417.25 233.663 1415.26 233.663 M1436.16 230.724 L1439.87 230.724 L1418.25 266.58 L1414.54 266.58 L1436.16 230.724 M1415.26 230.724 Q1418.92 230.724 1421.09 233.27 Q1423.27 235.793 1423.27 240.122 Q1423.27 244.497 1421.09 247.02 Q1418.94 249.543 1415.26 249.543 Q1411.58 249.543 1409.43 247.02 Q1407.3 244.474 1407.3 240.122 Q1407.3 235.816 1409.45 233.27 Q1411.6 230.724 1415.26 230.724 Z" fill="#000000" fill-rule="nonzero" fill-opacity="1" /></svg>
