<?xml version="1.0" encoding="utf-8"?>
<svg xmlns="http://www.w3.org/2000/svg" xmlns:xlink="http://www.w3.org/1999/xlink" width="600" height="400" viewBox="0 0 2400 1600">
<defs>
  <clipPath id="clip450">
    <rect x="0" y="0" width="2400" height="1600"/>
  </clipPath>
</defs>
<path clip-path="url(#clip450)" d="M0 1600 L2400 1600 L2400 0 L0 0  Z" fill="#ffffff" fill-rule="evenodd" fill-opacity="1"/>
<defs>
  <clipPath id="clip451">
    <rect x="287" y="47" width="2066" height="1377"/>
  </clipPath>
</defs>
<path clip-path="url(#clip450)" d="M287.366 1423.18 L2352.76 1423.18 L2352.76 47.2441 L287.366 47.2441  Z" fill="#ffffff" fill-rule="evenodd" fill-opacity="1"/>
<polyline clip-path="url(#clip451)" style="stroke:#000000; stroke-linecap:round; stroke-linejoin:round; stroke-width:2; stroke-opacity:0.1; fill:none" points="345.82,1423.18 345.82,47.2441 "/>
<polyline clip-path="url(#clip451)" style="stroke:#000000; stroke-linecap:round; stroke-linejoin:round; stroke-width:2; stroke-opacity:0.1; fill:none" points="736.298,1423.18 736.298,47.2441 "/>
<polyline clip-path="url(#clip451)" style="stroke:#000000; stroke-linecap:round; stroke-linejoin:round; stroke-width:2; stroke-opacity:0.1; fill:none" points="1126.77,1423.18 1126.77,47.2441 "/>
<polyline clip-path="url(#clip451)" style="stroke:#000000; stroke-linecap:round; stroke-linejoin:round; stroke-width:2; stroke-opacity:0.1; fill:none" points="1517.25,1423.18 1517.25,47.2441 "/>
<polyline clip-path="url(#clip451)" style="stroke:#000000; stroke-linecap:round; stroke-linejoin:round; stroke-width:2; stroke-opacity:0.1; fill:none" points="1907.73,1423.18 1907.73,47.2441 "/>
<polyline clip-path="url(#clip451)" style="stroke:#000000; stroke-linecap:round; stroke-linejoin:round; stroke-width:2; stroke-opacity:0.1; fill:none" points="2298.21,1423.18 2298.21,47.2441 "/>
<polyline clip-path="url(#clip451)" style="stroke:#000000; stroke-linecap:round; stroke-linejoin:round; stroke-width:2; stroke-opacity:0.1; fill:none" points="287.366,1329.77 2352.76,1329.77 "/>
<polyline clip-path="url(#clip451)" style="stroke:#000000; stroke-linecap:round; stroke-linejoin:round; stroke-width:2; stroke-opacity:0.1; fill:none" points="287.366,1118.32 2352.76,1118.32 "/>
<polyline clip-path="url(#clip451)" style="stroke:#000000; stroke-linecap:round; stroke-linejoin:round; stroke-width:2; stroke-opacity:0.1; fill:none" points="287.366,906.876 2352.76,906.876 "/>
<polyline clip-path="url(#clip451)" style="stroke:#000000; stroke-linecap:round; stroke-linejoin:round; stroke-width:2; stroke-opacity:0.1; fill:none" points="287.366,695.43 2352.76,695.43 "/>
<polyline clip-path="url(#clip451)" style="stroke:#000000; stroke-linecap:round; stroke-linejoin:round; stroke-width:2; stroke-opacity:0.1; fill:none" points="287.366,483.984 2352.76,483.984 "/>
<polyline clip-path="url(#clip451)" style="stroke:#000000; stroke-linecap:round; stroke-linejoin:round; stroke-width:2; stroke-opacity:0.1; fill:none" points="287.366,272.538 2352.76,272.538 "/>
<polyline clip-path="url(#clip451)" style="stroke:#000000; stroke-linecap:round; stroke-linejoin:round; stroke-width:2; stroke-opacity:0.1; fill:none" points="287.366,61.0927 2352.76,61.0927 "/>
<polyline clip-path="url(#clip450)" style="stroke:#000000; stroke-linecap:round; stroke-linejoin:round; stroke-width:4; stroke-opacity:1; fill:none" points="287.366,1423.18 2352.76,1423.18 "/>
<polyline clip-path="url(#clip450)" style="stroke:#000000; stroke-linecap:round; stroke-linejoin:round; stroke-width:4; stroke-opacity:1; fill:none" points="345.82,1423.18 345.82,1404.28 "/>
<polyline clip-path="url(#clip450)" style="stroke:#000000; stroke-linecap:round; stroke-linejoin:round; stroke-width:4; stroke-opacity:1; fill:none" points="736.298,1423.18 736.298,1404.28 "/>
<polyline clip-path="url(#clip450)" style="stroke:#000000; stroke-linecap:round; stroke-linejoin:round; stroke-width:4; stroke-opacity:1; fill:none" points="1126.77,1423.18 1126.77,1404.28 "/>
<polyline clip-path="url(#clip450)" style="stroke:#000000; stroke-linecap:round; stroke-linejoin:round; stroke-width:4; stroke-opacity:1; fill:none" points="1517.25,1423.18 1517.25,1404.28 "/>
<polyline clip-path="url(#clip450)" style="stroke:#000000; stroke-linecap:round; stroke-linejoin:round; stroke-width:4; stroke-opacity:1; fill:none" points="1907.73,1423.18 1907.73,1404.28 "/>
<polyline clip-path="url(#clip450)" style="stroke:#000000; stroke-linecap:round; stroke-linejoin:round; stroke-width:4; stroke-opacity:1; fill:none" points="2298.21,1423.18 2298.21,1404.28 "/>
<path clip-path="url(#clip450)" d="M345.82 1454.1 Q342.209 1454.1 340.381 1457.66 Q338.575 1461.2 338.575 1468.33 Q338.575 1475.44 340.381 1479.01 Q342.209 1482.55 345.82 1482.55 Q349.455 1482.55 351.26 1479.01 Q353.089 1475.44 353.089 1468.33 Q353.089 1461.2 351.26 1457.66 Q349.455 1454.1 345.82 1454.1 M345.82 1450.39 Q351.63 1450.39 354.686 1455 Q357.765 1459.58 357.765 1468.33 Q357.765 1477.06 354.686 1481.67 Q351.63 1486.25 345.82 1486.25 Q340.01 1486.25 336.931 1481.67 Q333.876 1477.06 333.876 1468.33 Q333.876 1459.58 336.931 1455 Q340.01 1450.39 345.82 1450.39 Z" fill="#000000" fill-rule="nonzero" fill-opacity="1" /><path clip-path="url(#clip450)" d="M726.68 1481.64 L734.318 1481.64 L734.318 1455.28 L726.008 1456.95 L726.008 1452.69 L734.272 1451.02 L738.948 1451.02 L738.948 1481.64 L746.587 1481.64 L746.587 1485.58 L726.68 1485.58 L726.68 1481.64 Z" fill="#000000" fill-rule="nonzero" fill-opacity="1" /><path clip-path="url(#clip450)" d="M1121.43 1481.64 L1137.75 1481.64 L1137.75 1485.58 L1115.8 1485.58 L1115.8 1481.64 Q1118.46 1478.89 1123.05 1474.26 Q1127.65 1469.61 1128.83 1468.27 Q1131.08 1465.74 1131.96 1464.01 Q1132.86 1462.25 1132.86 1460.56 Q1132.86 1457.8 1130.92 1456.07 Q1129 1454.33 1125.9 1454.33 Q1123.7 1454.33 1121.24 1455.09 Q1118.81 1455.86 1116.03 1457.41 L1116.03 1452.69 Q1118.86 1451.55 1121.31 1450.97 Q1123.77 1450.39 1125.8 1450.39 Q1131.17 1450.39 1134.37 1453.08 Q1137.56 1455.77 1137.56 1460.26 Q1137.56 1462.39 1136.75 1464.31 Q1135.96 1466.2 1133.86 1468.8 Q1133.28 1469.47 1130.18 1472.69 Q1127.08 1475.88 1121.43 1481.64 Z" fill="#000000" fill-rule="nonzero" fill-opacity="1" /><path clip-path="url(#clip450)" d="M1521.5 1466.95 Q1524.86 1467.66 1526.73 1469.93 Q1528.63 1472.2 1528.63 1475.53 Q1528.63 1480.65 1525.11 1483.45 Q1521.59 1486.25 1515.11 1486.25 Q1512.93 1486.25 1510.62 1485.81 Q1508.33 1485.39 1505.87 1484.54 L1505.87 1480.02 Q1507.82 1481.16 1510.13 1481.74 Q1512.45 1482.32 1514.97 1482.32 Q1519.37 1482.32 1521.66 1480.58 Q1523.98 1478.84 1523.98 1475.53 Q1523.98 1472.48 1521.82 1470.77 Q1519.69 1469.03 1515.87 1469.03 L1511.85 1469.03 L1511.85 1465.19 L1516.06 1465.19 Q1519.51 1465.19 1521.34 1463.82 Q1523.17 1462.43 1523.17 1459.84 Q1523.17 1457.18 1521.27 1455.77 Q1519.39 1454.33 1515.87 1454.33 Q1513.95 1454.33 1511.75 1454.75 Q1509.56 1455.16 1506.92 1456.04 L1506.92 1451.88 Q1509.58 1451.14 1511.89 1450.77 Q1514.23 1450.39 1516.29 1450.39 Q1521.62 1450.39 1524.72 1452.83 Q1527.82 1455.23 1527.82 1459.35 Q1527.82 1462.22 1526.18 1464.21 Q1524.53 1466.18 1521.5 1466.95 Z" fill="#000000" fill-rule="nonzero" fill-opacity="1" /><path clip-path="url(#clip450)" d="M1910.74 1455.09 L1898.93 1473.54 L1910.74 1473.54 L1910.74 1455.09 M1909.51 1451.02 L1915.39 1451.02 L1915.39 1473.54 L1920.32 1473.54 L1920.32 1477.43 L1915.39 1477.43 L1915.39 1485.58 L1910.74 1485.58 L1910.74 1477.43 L1895.14 1477.43 L1895.14 1472.92 L1909.51 1451.02 Z" fill="#000000" fill-rule="nonzero" fill-opacity="1" /><path clip-path="url(#clip450)" d="M2288.48 1451.02 L2306.84 1451.02 L2306.84 1454.96 L2292.77 1454.96 L2292.77 1463.43 Q2293.78 1463.08 2294.8 1462.92 Q2295.82 1462.73 2296.84 1462.73 Q2302.63 1462.73 2306.01 1465.9 Q2309.39 1469.08 2309.39 1474.49 Q2309.39 1480.07 2305.91 1483.17 Q2302.44 1486.25 2296.12 1486.25 Q2293.95 1486.25 2291.68 1485.88 Q2289.43 1485.51 2287.03 1484.77 L2287.03 1480.07 Q2289.11 1481.2 2291.33 1481.76 Q2293.55 1482.32 2296.03 1482.32 Q2300.03 1482.32 2302.37 1480.21 Q2304.71 1478.1 2304.71 1474.49 Q2304.71 1470.88 2302.37 1468.77 Q2300.03 1466.67 2296.03 1466.67 Q2294.16 1466.67 2292.28 1467.08 Q2290.43 1467.5 2288.48 1468.38 L2288.48 1451.02 Z" fill="#000000" fill-rule="nonzero" fill-opacity="1" /><path clip-path="url(#clip450)" d="M1190.23 1520.52 L1230.43 1520.52 L1230.43 1525.93 L1213.56 1525.93 L1213.56 1568.04 L1207.1 1568.04 L1207.1 1525.93 L1190.23 1525.93 L1190.23 1520.52 Z" fill="#000000" fill-rule="nonzero" fill-opacity="1" /><path clip-path="url(#clip450)" d="M1234.38 1532.4 L1240.23 1532.4 L1240.23 1568.04 L1234.38 1568.04 L1234.38 1532.4 M1234.38 1518.52 L1240.23 1518.52 L1240.23 1525.93 L1234.38 1525.93 L1234.38 1518.52 Z" fill="#000000" fill-rule="nonzero" fill-opacity="1" /><path clip-path="url(#clip450)" d="M1280.24 1539.24 Q1282.44 1535.29 1285.5 1533.41 Q1288.55 1531.54 1292.69 1531.54 Q1298.26 1531.54 1301.28 1535.45 Q1304.31 1539.33 1304.31 1546.53 L1304.31 1568.04 L1298.42 1568.04 L1298.42 1546.72 Q1298.42 1541.59 1296.6 1539.11 Q1294.79 1536.63 1291.07 1536.63 Q1286.51 1536.63 1283.87 1539.65 Q1281.23 1542.68 1281.23 1547.9 L1281.23 1568.04 L1275.34 1568.04 L1275.34 1546.72 Q1275.34 1541.56 1273.53 1539.11 Q1271.71 1536.63 1267.93 1536.63 Q1263.44 1536.63 1260.8 1539.68 Q1258.15 1542.71 1258.15 1547.9 L1258.15 1568.04 L1252.27 1568.04 L1252.27 1532.4 L1258.15 1532.4 L1258.15 1537.93 Q1260.16 1534.66 1262.96 1533.1 Q1265.76 1531.54 1269.61 1531.54 Q1273.5 1531.54 1276.2 1533.51 Q1278.94 1535.48 1280.24 1539.24 Z" fill="#000000" fill-rule="nonzero" fill-opacity="1" /><path clip-path="url(#clip450)" d="M1346.48 1548.76 L1346.48 1551.62 L1319.55 1551.62 Q1319.93 1557.67 1323.18 1560.85 Q1326.46 1564 1332.28 1564 Q1335.66 1564 1338.81 1563.17 Q1341.99 1562.35 1345.11 1560.69 L1345.11 1566.23 Q1341.96 1567.57 1338.65 1568.27 Q1335.34 1568.97 1331.93 1568.97 Q1323.4 1568.97 1318.41 1564 Q1313.44 1559.04 1313.44 1550.57 Q1313.44 1541.82 1318.15 1536.69 Q1322.89 1531.54 1330.91 1531.54 Q1338.11 1531.54 1342.28 1536.18 Q1346.48 1540.8 1346.48 1548.76 M1340.62 1547.04 Q1340.56 1542.23 1337.92 1539.37 Q1335.31 1536.5 1330.98 1536.5 Q1326.08 1536.5 1323.12 1539.27 Q1320.19 1542.04 1319.74 1547.07 L1340.62 1547.04 Z" fill="#000000" fill-rule="nonzero" fill-opacity="1" /><path clip-path="url(#clip450)" d="M1376.27 1518.52 L1389.77 1518.52 L1389.77 1523.07 L1382.13 1523.07 L1382.13 1572.09 L1389.77 1572.09 L1389.77 1576.64 L1376.27 1576.64 L1376.27 1518.52 Z" fill="#000000" fill-rule="nonzero" fill-opacity="1" /><path clip-path="url(#clip450)" d="M1424.97 1533.45 L1424.97 1538.98 Q1422.49 1537.71 1419.81 1537.07 Q1417.14 1536.44 1414.27 1536.44 Q1409.91 1536.44 1407.72 1537.77 Q1405.55 1539.11 1405.55 1541.79 Q1405.55 1543.82 1407.11 1545 Q1408.67 1546.15 1413.38 1547.2 L1415.39 1547.64 Q1421.63 1548.98 1424.24 1551.43 Q1426.88 1553.85 1426.88 1558.21 Q1426.88 1563.17 1422.93 1566.07 Q1419.02 1568.97 1412.14 1568.97 Q1409.28 1568.97 1406.16 1568.39 Q1403.07 1567.85 1399.63 1566.74 L1399.63 1560.69 Q1402.88 1562.38 1406.03 1563.24 Q1409.18 1564.07 1412.27 1564.07 Q1416.41 1564.07 1418.63 1562.66 Q1420.86 1561.23 1420.86 1558.65 Q1420.86 1556.27 1419.24 1554.99 Q1417.65 1553.72 1412.2 1552.54 L1410.17 1552.07 Q1404.72 1550.92 1402.31 1548.56 Q1399.89 1546.18 1399.89 1542.04 Q1399.89 1537.01 1403.45 1534.27 Q1407.02 1531.54 1413.57 1531.54 Q1416.82 1531.54 1419.68 1532.01 Q1422.55 1532.49 1424.97 1533.45 Z" fill="#000000" fill-rule="nonzero" fill-opacity="1" /><path clip-path="url(#clip450)" d="M1449.89 1518.52 L1449.89 1576.64 L1436.39 1576.64 L1436.39 1572.09 L1444 1572.09 L1444 1523.07 L1436.39 1523.07 L1436.39 1518.52 L1449.89 1518.52 Z" fill="#000000" fill-rule="nonzero" fill-opacity="1" /><polyline clip-path="url(#clip450)" style="stroke:#000000; stroke-linecap:round; stroke-linejoin:round; stroke-width:4; stroke-opacity:1; fill:none" points="287.366,1423.18 287.366,47.2441 "/>
<polyline clip-path="url(#clip450)" style="stroke:#000000; stroke-linecap:round; stroke-linejoin:round; stroke-width:4; stroke-opacity:1; fill:none" points="287.366,1329.77 306.264,1329.77 "/>
<polyline clip-path="url(#clip450)" style="stroke:#000000; stroke-linecap:round; stroke-linejoin:round; stroke-width:4; stroke-opacity:1; fill:none" points="287.366,1118.32 306.264,1118.32 "/>
<polyline clip-path="url(#clip450)" style="stroke:#000000; stroke-linecap:round; stroke-linejoin:round; stroke-width:4; stroke-opacity:1; fill:none" points="287.366,906.876 306.264,906.876 "/>
<polyline clip-path="url(#clip450)" style="stroke:#000000; stroke-linecap:round; stroke-linejoin:round; stroke-width:4; stroke-opacity:1; fill:none" points="287.366,695.43 306.264,695.43 "/>
<polyline clip-path="url(#clip450)" style="stroke:#000000; stroke-linecap:round; stroke-linejoin:round; stroke-width:4; stroke-opacity:1; fill:none" points="287.366,483.984 306.264,483.984 "/>
<polyline clip-path="url(#clip450)" style="stroke:#000000; stroke-linecap:round; stroke-linejoin:round; stroke-width:4; stroke-opacity:1; fill:none" points="287.366,272.538 306.264,272.538 "/>
<polyline clip-path="url(#clip450)" style="stroke:#000000; stroke-linecap:round; stroke-linejoin:round; stroke-width:4; stroke-opacity:1; fill:none" points="287.366,61.0927 306.264,61.0927 "/>
<path clip-path="url(#clip450)" d="M115.256 1330.22 L144.931 1330.22 L144.931 1334.15 L115.256 1334.15 L115.256 1330.22 Z" fill="#000000" fill-rule="nonzero" fill-opacity="1" /><path clip-path="url(#clip450)" d="M165.024 1315.57 Q161.413 1315.57 159.584 1319.13 Q157.778 1322.67 157.778 1329.8 Q157.778 1336.91 159.584 1340.47 Q161.413 1344.02 165.024 1344.02 Q168.658 1344.02 170.464 1340.47 Q172.292 1336.91 172.292 1329.8 Q172.292 1322.67 170.464 1319.13 Q168.658 1315.57 165.024 1315.57 M165.024 1311.86 Q170.834 1311.86 173.889 1316.47 Q176.968 1321.05 176.968 1329.8 Q176.968 1338.53 173.889 1343.14 Q170.834 1347.72 165.024 1347.72 Q159.214 1347.72 156.135 1343.14 Q153.079 1338.53 153.079 1329.8 Q153.079 1321.05 156.135 1316.47 Q159.214 1311.86 165.024 1311.86 Z" fill="#000000" fill-rule="nonzero" fill-opacity="1" /><path clip-path="url(#clip450)" d="M185.186 1341.17 L190.07 1341.17 L190.07 1347.05 L185.186 1347.05 L185.186 1341.17 Z" fill="#000000" fill-rule="nonzero" fill-opacity="1" /><path clip-path="url(#clip450)" d="M201.065 1343.11 L208.704 1343.11 L208.704 1316.75 L200.394 1318.41 L200.394 1314.15 L208.658 1312.49 L213.334 1312.49 L213.334 1343.11 L220.973 1343.11 L220.973 1347.05 L201.065 1347.05 L201.065 1343.11 Z" fill="#000000" fill-rule="nonzero" fill-opacity="1" /><path clip-path="url(#clip450)" d="M230.463 1312.49 L248.82 1312.49 L248.82 1316.42 L234.746 1316.42 L234.746 1324.89 Q235.764 1324.55 236.783 1324.39 Q237.801 1324.2 238.82 1324.2 Q244.607 1324.2 247.986 1327.37 Q251.366 1330.54 251.366 1335.96 Q251.366 1341.54 247.894 1344.64 Q244.421 1347.72 238.102 1347.72 Q235.926 1347.72 233.658 1347.35 Q231.412 1346.98 229.005 1346.24 L229.005 1341.54 Q231.088 1342.67 233.31 1343.23 Q235.533 1343.78 238.009 1343.78 Q242.014 1343.78 244.352 1341.68 Q246.69 1339.57 246.69 1335.96 Q246.69 1332.35 244.352 1330.24 Q242.014 1328.14 238.009 1328.14 Q236.135 1328.14 234.26 1328.55 Q232.408 1328.97 230.463 1329.85 L230.463 1312.49 Z" fill="#000000" fill-rule="nonzero" fill-opacity="1" /><path clip-path="url(#clip450)" d="M114.26 1118.77 L143.936 1118.77 L143.936 1122.71 L114.26 1122.71 L114.26 1118.77 Z" fill="#000000" fill-rule="nonzero" fill-opacity="1" /><path clip-path="url(#clip450)" d="M164.028 1104.12 Q160.417 1104.12 158.589 1107.69 Q156.783 1111.23 156.783 1118.36 Q156.783 1125.46 158.589 1129.03 Q160.417 1132.57 164.028 1132.57 Q167.663 1132.57 169.468 1129.03 Q171.297 1125.46 171.297 1118.36 Q171.297 1111.23 169.468 1107.69 Q167.663 1104.12 164.028 1104.12 M164.028 1100.42 Q169.839 1100.42 172.894 1105.02 Q175.973 1109.61 175.973 1118.36 Q175.973 1127.08 172.894 1131.69 Q169.839 1136.27 164.028 1136.27 Q158.218 1136.27 155.14 1131.69 Q152.084 1127.08 152.084 1118.36 Q152.084 1109.61 155.14 1105.02 Q158.218 1100.42 164.028 1100.42 Z" fill="#000000" fill-rule="nonzero" fill-opacity="1" /><path clip-path="url(#clip450)" d="M184.19 1129.72 L189.075 1129.72 L189.075 1135.6 L184.19 1135.6 L184.19 1129.72 Z" fill="#000000" fill-rule="nonzero" fill-opacity="1" /><path clip-path="url(#clip450)" d="M200.07 1131.67 L207.709 1131.67 L207.709 1105.3 L199.399 1106.97 L199.399 1102.71 L207.662 1101.04 L212.338 1101.04 L212.338 1131.67 L219.977 1131.67 L219.977 1135.6 L200.07 1135.6 L200.07 1131.67 Z" fill="#000000" fill-rule="nonzero" fill-opacity="1" /><path clip-path="url(#clip450)" d="M239.422 1104.12 Q235.81 1104.12 233.982 1107.69 Q232.176 1111.23 232.176 1118.36 Q232.176 1125.46 233.982 1129.03 Q235.81 1132.57 239.422 1132.57 Q243.056 1132.57 244.861 1129.03 Q246.69 1125.46 246.69 1118.36 Q246.69 1111.23 244.861 1107.69 Q243.056 1104.12 239.422 1104.12 M239.422 1100.42 Q245.232 1100.42 248.287 1105.02 Q251.366 1109.61 251.366 1118.36 Q251.366 1127.08 248.287 1131.69 Q245.232 1136.27 239.422 1136.27 Q233.611 1136.27 230.533 1131.69 Q227.477 1127.08 227.477 1118.36 Q227.477 1109.61 230.533 1105.02 Q233.611 1100.42 239.422 1100.42 Z" fill="#000000" fill-rule="nonzero" fill-opacity="1" /><path clip-path="url(#clip450)" d="M115.256 907.327 L144.931 907.327 L144.931 911.262 L115.256 911.262 L115.256 907.327 Z" fill="#000000" fill-rule="nonzero" fill-opacity="1" /><path clip-path="url(#clip450)" d="M165.024 892.675 Q161.413 892.675 159.584 896.239 Q157.778 899.781 157.778 906.911 Q157.778 914.017 159.584 917.582 Q161.413 921.124 165.024 921.124 Q168.658 921.124 170.464 917.582 Q172.292 914.017 172.292 906.911 Q172.292 899.781 170.464 896.239 Q168.658 892.675 165.024 892.675 M165.024 888.971 Q170.834 888.971 173.889 893.577 Q176.968 898.161 176.968 906.911 Q176.968 915.637 173.889 920.244 Q170.834 924.827 165.024 924.827 Q159.214 924.827 156.135 920.244 Q153.079 915.637 153.079 906.911 Q153.079 898.161 156.135 893.577 Q159.214 888.971 165.024 888.971 Z" fill="#000000" fill-rule="nonzero" fill-opacity="1" /><path clip-path="url(#clip450)" d="M185.186 918.276 L190.07 918.276 L190.07 924.156 L185.186 924.156 L185.186 918.276 Z" fill="#000000" fill-rule="nonzero" fill-opacity="1" /><path clip-path="url(#clip450)" d="M210.255 892.675 Q206.644 892.675 204.815 896.239 Q203.01 899.781 203.01 906.911 Q203.01 914.017 204.815 917.582 Q206.644 921.124 210.255 921.124 Q213.889 921.124 215.695 917.582 Q217.523 914.017 217.523 906.911 Q217.523 899.781 215.695 896.239 Q213.889 892.675 210.255 892.675 M210.255 888.971 Q216.065 888.971 219.121 893.577 Q222.199 898.161 222.199 906.911 Q222.199 915.637 219.121 920.244 Q216.065 924.827 210.255 924.827 Q204.445 924.827 201.366 920.244 Q198.311 915.637 198.311 906.911 Q198.311 898.161 201.366 893.577 Q204.445 888.971 210.255 888.971 Z" fill="#000000" fill-rule="nonzero" fill-opacity="1" /><path clip-path="url(#clip450)" d="M230.463 889.596 L248.82 889.596 L248.82 893.531 L234.746 893.531 L234.746 902.003 Q235.764 901.656 236.783 901.494 Q237.801 901.309 238.82 901.309 Q244.607 901.309 247.986 904.48 Q251.366 907.651 251.366 913.068 Q251.366 918.647 247.894 921.749 Q244.421 924.827 238.102 924.827 Q235.926 924.827 233.658 924.457 Q231.412 924.086 229.005 923.346 L229.005 918.647 Q231.088 919.781 233.31 920.336 Q235.533 920.892 238.009 920.892 Q242.014 920.892 244.352 918.786 Q246.69 916.679 246.69 913.068 Q246.69 909.457 244.352 907.35 Q242.014 905.244 238.009 905.244 Q236.135 905.244 234.26 905.661 Q232.408 906.077 230.463 906.957 L230.463 889.596 Z" fill="#000000" fill-rule="nonzero" fill-opacity="1" /><path clip-path="url(#clip450)" d="M164.028 681.229 Q160.417 681.229 158.589 684.794 Q156.783 688.335 156.783 695.465 Q156.783 702.571 158.589 706.136 Q160.417 709.678 164.028 709.678 Q167.663 709.678 169.468 706.136 Q171.297 702.571 171.297 695.465 Q171.297 688.335 169.468 684.794 Q167.663 681.229 164.028 681.229 M164.028 677.525 Q169.839 677.525 172.894 682.132 Q175.973 686.715 175.973 695.465 Q175.973 704.192 172.894 708.798 Q169.839 713.381 164.028 713.381 Q158.218 713.381 155.14 708.798 Q152.084 704.192 152.084 695.465 Q152.084 686.715 155.14 682.132 Q158.218 677.525 164.028 677.525 Z" fill="#000000" fill-rule="nonzero" fill-opacity="1" /><path clip-path="url(#clip450)" d="M184.19 706.83 L189.075 706.83 L189.075 712.71 L184.19 712.71 L184.19 706.83 Z" fill="#000000" fill-rule="nonzero" fill-opacity="1" /><path clip-path="url(#clip450)" d="M209.26 681.229 Q205.649 681.229 203.82 684.794 Q202.014 688.335 202.014 695.465 Q202.014 702.571 203.82 706.136 Q205.649 709.678 209.26 709.678 Q212.894 709.678 214.699 706.136 Q216.528 702.571 216.528 695.465 Q216.528 688.335 214.699 684.794 Q212.894 681.229 209.26 681.229 M209.26 677.525 Q215.07 677.525 218.125 682.132 Q221.204 686.715 221.204 695.465 Q221.204 704.192 218.125 708.798 Q215.07 713.381 209.26 713.381 Q203.449 713.381 200.371 708.798 Q197.315 704.192 197.315 695.465 Q197.315 686.715 200.371 682.132 Q203.449 677.525 209.26 677.525 Z" fill="#000000" fill-rule="nonzero" fill-opacity="1" /><path clip-path="url(#clip450)" d="M239.422 681.229 Q235.81 681.229 233.982 684.794 Q232.176 688.335 232.176 695.465 Q232.176 702.571 233.982 706.136 Q235.81 709.678 239.422 709.678 Q243.056 709.678 244.861 706.136 Q246.69 702.571 246.69 695.465 Q246.69 688.335 244.861 684.794 Q243.056 681.229 239.422 681.229 M239.422 677.525 Q245.232 677.525 248.287 682.132 Q251.366 686.715 251.366 695.465 Q251.366 704.192 248.287 708.798 Q245.232 713.381 239.422 713.381 Q233.611 713.381 230.533 708.798 Q227.477 704.192 227.477 695.465 Q227.477 686.715 230.533 682.132 Q233.611 677.525 239.422 677.525 Z" fill="#000000" fill-rule="nonzero" fill-opacity="1" /><path clip-path="url(#clip450)" d="M165.024 469.783 Q161.413 469.783 159.584 473.348 Q157.778 476.889 157.778 484.019 Q157.778 491.125 159.584 494.69 Q161.413 498.232 165.024 498.232 Q168.658 498.232 170.464 494.69 Q172.292 491.125 172.292 484.019 Q172.292 476.889 170.464 473.348 Q168.658 469.783 165.024 469.783 M165.024 466.079 Q170.834 466.079 173.889 470.686 Q176.968 475.269 176.968 484.019 Q176.968 492.746 173.889 497.352 Q170.834 501.936 165.024 501.936 Q159.214 501.936 156.135 497.352 Q153.079 492.746 153.079 484.019 Q153.079 475.269 156.135 470.686 Q159.214 466.079 165.024 466.079 Z" fill="#000000" fill-rule="nonzero" fill-opacity="1" /><path clip-path="url(#clip450)" d="M185.186 495.385 L190.07 495.385 L190.07 501.264 L185.186 501.264 L185.186 495.385 Z" fill="#000000" fill-rule="nonzero" fill-opacity="1" /><path clip-path="url(#clip450)" d="M210.255 469.783 Q206.644 469.783 204.815 473.348 Q203.01 476.889 203.01 484.019 Q203.01 491.125 204.815 494.69 Q206.644 498.232 210.255 498.232 Q213.889 498.232 215.695 494.69 Q217.523 491.125 217.523 484.019 Q217.523 476.889 215.695 473.348 Q213.889 469.783 210.255 469.783 M210.255 466.079 Q216.065 466.079 219.121 470.686 Q222.199 475.269 222.199 484.019 Q222.199 492.746 219.121 497.352 Q216.065 501.936 210.255 501.936 Q204.445 501.936 201.366 497.352 Q198.311 492.746 198.311 484.019 Q198.311 475.269 201.366 470.686 Q204.445 466.079 210.255 466.079 Z" fill="#000000" fill-rule="nonzero" fill-opacity="1" /><path clip-path="url(#clip450)" d="M230.463 466.704 L248.82 466.704 L248.82 470.639 L234.746 470.639 L234.746 479.112 Q235.764 478.764 236.783 478.602 Q237.801 478.417 238.82 478.417 Q244.607 478.417 247.986 481.588 Q251.366 484.76 251.366 490.176 Q251.366 495.755 247.894 498.857 Q244.421 501.936 238.102 501.936 Q235.926 501.936 233.658 501.565 Q231.412 501.195 229.005 500.454 L229.005 495.755 Q231.088 496.889 233.31 497.445 Q235.533 498 238.009 498 Q242.014 498 244.352 495.894 Q246.69 493.787 246.69 490.176 Q246.69 486.565 244.352 484.459 Q242.014 482.352 238.009 482.352 Q236.135 482.352 234.26 482.769 Q232.408 483.186 230.463 484.065 L230.463 466.704 Z" fill="#000000" fill-rule="nonzero" fill-opacity="1" /><path clip-path="url(#clip450)" d="M164.028 258.337 Q160.417 258.337 158.589 261.902 Q156.783 265.444 156.783 272.573 Q156.783 279.68 158.589 283.244 Q160.417 286.786 164.028 286.786 Q167.663 286.786 169.468 283.244 Q171.297 279.68 171.297 272.573 Q171.297 265.444 169.468 261.902 Q167.663 258.337 164.028 258.337 M164.028 254.633 Q169.839 254.633 172.894 259.24 Q175.973 263.823 175.973 272.573 Q175.973 281.3 172.894 285.906 Q169.839 290.49 164.028 290.49 Q158.218 290.49 155.14 285.906 Q152.084 281.3 152.084 272.573 Q152.084 263.823 155.14 259.24 Q158.218 254.633 164.028 254.633 Z" fill="#000000" fill-rule="nonzero" fill-opacity="1" /><path clip-path="url(#clip450)" d="M184.19 283.939 L189.075 283.939 L189.075 289.818 L184.19 289.818 L184.19 283.939 Z" fill="#000000" fill-rule="nonzero" fill-opacity="1" /><path clip-path="url(#clip450)" d="M200.07 285.883 L207.709 285.883 L207.709 259.518 L199.399 261.184 L199.399 256.925 L207.662 255.258 L212.338 255.258 L212.338 285.883 L219.977 285.883 L219.977 289.818 L200.07 289.818 L200.07 285.883 Z" fill="#000000" fill-rule="nonzero" fill-opacity="1" /><path clip-path="url(#clip450)" d="M239.422 258.337 Q235.81 258.337 233.982 261.902 Q232.176 265.444 232.176 272.573 Q232.176 279.68 233.982 283.244 Q235.81 286.786 239.422 286.786 Q243.056 286.786 244.861 283.244 Q246.69 279.68 246.69 272.573 Q246.69 265.444 244.861 261.902 Q243.056 258.337 239.422 258.337 M239.422 254.633 Q245.232 254.633 248.287 259.24 Q251.366 263.823 251.366 272.573 Q251.366 281.3 248.287 285.906 Q245.232 290.49 239.422 290.49 Q233.611 290.49 230.533 285.906 Q227.477 281.3 227.477 272.573 Q227.477 263.823 230.533 259.24 Q233.611 254.633 239.422 254.633 Z" fill="#000000" fill-rule="nonzero" fill-opacity="1" /><path clip-path="url(#clip450)" d="M165.024 46.8914 Q161.413 46.8914 159.584 50.4562 Q157.778 53.9978 157.778 61.1274 Q157.778 68.2339 159.584 71.7986 Q161.413 75.3403 165.024 75.3403 Q168.658 75.3403 170.464 71.7986 Q172.292 68.2339 172.292 61.1274 Q172.292 53.9978 170.464 50.4562 Q168.658 46.8914 165.024 46.8914 M165.024 43.1877 Q170.834 43.1877 173.889 47.7941 Q176.968 52.3775 176.968 61.1274 Q176.968 69.8542 173.889 74.4607 Q170.834 79.044 165.024 79.044 Q159.214 79.044 156.135 74.4607 Q153.079 69.8542 153.079 61.1274 Q153.079 52.3775 156.135 47.7941 Q159.214 43.1877 165.024 43.1877 Z" fill="#000000" fill-rule="nonzero" fill-opacity="1" /><path clip-path="url(#clip450)" d="M185.186 72.4931 L190.07 72.4931 L190.07 78.3727 L185.186 78.3727 L185.186 72.4931 Z" fill="#000000" fill-rule="nonzero" fill-opacity="1" /><path clip-path="url(#clip450)" d="M201.065 74.4375 L208.704 74.4375 L208.704 48.0719 L200.394 49.7386 L200.394 45.4793 L208.658 43.8127 L213.334 43.8127 L213.334 74.4375 L220.973 74.4375 L220.973 78.3727 L201.065 78.3727 L201.065 74.4375 Z" fill="#000000" fill-rule="nonzero" fill-opacity="1" /><path clip-path="url(#clip450)" d="M230.463 43.8127 L248.82 43.8127 L248.82 47.7479 L234.746 47.7479 L234.746 56.22 Q235.764 55.8728 236.783 55.7108 Q237.801 55.5256 238.82 55.5256 Q244.607 55.5256 247.986 58.6969 Q251.366 61.8681 251.366 67.2848 Q251.366 72.8635 247.894 75.9653 Q244.421 79.044 238.102 79.044 Q235.926 79.044 233.658 78.6736 Q231.412 78.3032 229.005 77.5625 L229.005 72.8635 Q231.088 73.9977 233.31 74.5533 Q235.533 75.1088 238.009 75.1088 Q242.014 75.1088 244.352 73.0023 Q246.69 70.8959 246.69 67.2848 Q246.69 63.6737 244.352 61.5672 Q242.014 59.4608 238.009 59.4608 Q236.135 59.4608 234.26 59.8774 Q232.408 60.2941 230.463 61.1737 L230.463 43.8127 Z" fill="#000000" fill-rule="nonzero" fill-opacity="1" /><path clip-path="url(#clip450)" d="M20.8447 823.791 Q20.8447 830.793 26.0645 834.931 Q31.2844 839.037 40.2919 839.037 Q49.2675 839.037 54.4874 834.931 Q59.7073 830.793 59.7073 823.791 Q59.7073 816.788 54.4874 812.714 Q49.2675 808.609 40.2919 808.609 Q31.2844 808.609 26.0645 812.714 Q20.8447 816.788 20.8447 823.791 M15.6248 823.791 Q15.6248 813.797 22.3406 807.813 Q29.0246 801.829 40.2919 801.829 Q51.5274 801.829 58.2432 807.813 Q64.9272 813.797 64.9272 823.791 Q64.9272 833.817 58.2432 839.832 Q51.5592 845.816 40.2919 845.816 Q29.0246 845.816 22.3406 839.832 Q15.6248 833.817 15.6248 823.791 Z" fill="#000000" fill-rule="nonzero" fill-opacity="1" /><path clip-path="url(#clip450)" d="M49.9359 792.631 L28.3562 792.631 L28.3562 786.774 L49.7131 786.774 Q54.7739 786.774 57.3202 784.801 Q59.8346 782.827 59.8346 778.881 Q59.8346 774.138 56.8109 771.401 Q53.7872 768.632 48.5673 768.632 L28.3562 768.632 L28.3562 762.775 L64.0042 762.775 L64.0042 768.632 L58.5296 768.632 Q61.7762 770.764 63.3676 773.597 Q64.9272 776.398 64.9272 780.122 Q64.9272 786.265 61.1078 789.448 Q57.2883 792.631 49.9359 792.631 M27.4968 777.894 L27.4968 777.894 Z" fill="#000000" fill-rule="nonzero" fill-opacity="1" /><path clip-path="url(#clip450)" d="M18.2347 744.92 L28.3562 744.92 L28.3562 732.857 L32.9077 732.857 L32.9077 744.92 L52.2594 744.92 Q56.6199 744.92 57.8613 743.742 Q59.1026 742.533 59.1026 738.872 L59.1026 732.857 L64.0042 732.857 L64.0042 738.872 Q64.0042 745.652 61.4897 748.23 Q58.9434 750.808 52.2594 750.808 L32.9077 750.808 L32.9077 755.105 L28.3562 755.105 L28.3562 750.808 L18.2347 750.808 L18.2347 744.92 Z" fill="#000000" fill-rule="nonzero" fill-opacity="1" /><path clip-path="url(#clip450)" d="M58.657 719.489 L77.5631 719.489 L77.5631 725.377 L28.3562 725.377 L28.3562 719.489 L33.7671 719.489 Q30.5842 717.643 29.0564 714.842 Q27.4968 712.009 27.4968 708.094 Q27.4968 701.601 32.6531 697.559 Q37.8093 693.485 46.212 693.485 Q54.6147 693.485 59.771 697.559 Q64.9272 701.601 64.9272 708.094 Q64.9272 712.009 63.3994 714.842 Q61.8398 717.643 58.657 719.489 M46.212 699.564 Q39.7508 699.564 36.0905 702.238 Q32.3984 704.879 32.3984 709.526 Q32.3984 714.173 36.0905 716.847 Q39.7508 719.489 46.212 719.489 Q52.6732 719.489 56.3653 716.847 Q60.0256 714.173 60.0256 709.526 Q60.0256 704.879 56.3653 702.238 Q52.6732 699.564 46.212 699.564 Z" fill="#000000" fill-rule="nonzero" fill-opacity="1" /><path clip-path="url(#clip450)" d="M49.9359 684.382 L28.3562 684.382 L28.3562 678.525 L49.7131 678.525 Q54.7739 678.525 57.3202 676.552 Q59.8346 674.579 59.8346 670.632 Q59.8346 665.889 56.8109 663.152 Q53.7872 660.383 48.5673 660.383 L28.3562 660.383 L28.3562 654.527 L64.0042 654.527 L64.0042 660.383 L58.5296 660.383 Q61.7762 662.516 63.3676 665.348 Q64.9272 668.149 64.9272 671.873 Q64.9272 678.016 61.1078 681.199 Q57.2883 684.382 49.9359 684.382 M27.4968 669.645 L27.4968 669.645 Z" fill="#000000" fill-rule="nonzero" fill-opacity="1" /><path clip-path="url(#clip450)" d="M18.2347 636.671 L28.3562 636.671 L28.3562 624.608 L32.9077 624.608 L32.9077 636.671 L52.2594 636.671 Q56.6199 636.671 57.8613 635.493 Q59.1026 634.284 59.1026 630.623 L59.1026 624.608 L64.0042 624.608 L64.0042 630.623 Q64.0042 637.403 61.4897 639.981 Q58.9434 642.559 52.2594 642.559 L32.9077 642.559 L32.9077 646.856 L28.3562 646.856 L28.3562 642.559 L18.2347 642.559 L18.2347 636.671 Z" fill="#000000" fill-rule="nonzero" fill-opacity="1" /><polyline clip-path="url(#clip451)" style="stroke:#009af9; stroke-linecap:round; stroke-linejoin:round; stroke-width:4; stroke-opacity:1; fill:none" points="345.82,695.43 349.725,695.43 353.63,695.43 353.63,737.23 357.535,737.23 357.535,777.8 361.439,777.8 361.439,816.781 365.344,816.781 365.344,853.858 369.249,853.858 369.249,888.753 373.154,888.753 373.154,837.638 377.059,837.638 377.059,786.399 380.963,786.399 380.963,735.62 384.868,735.62 384.868,685.868 388.773,685.868 388.773,637.672 392.678,637.672 392.678,591.522 396.582,591.522 396.582,547.857 400.487,547.857 400.487,507.057 404.392,507.057 404.392,469.439 408.297,469.439 408.297,435.254 412.201,435.254 412.201,488.279 416.106,488.279 416.106,542.558 420.011,542.558 420.011,597.412 423.916,597.412 423.916,652.167 427.821,652.167 427.821,706.167 431.725,706.167 431.725,758.786 435.63,758.786 435.63,809.439 439.535,809.439 439.535,857.594 443.44,857.594 443.44,902.778 447.344,902.778 447.344,944.588 451.249,944.588 451.249,982.695 455.154,982.695 455.154,1016.85 459.059,1016.85 459.059,1046.88 462.963,1046.88 462.963,1072.7 466.868,1072.7 466.868,1094.31 470.773,1094.31 470.773,1111.77 474.678,1111.77 474.678,1125.24 478.583,1125.24 478.583,1134.95 482.487,1134.95 482.487,1141.16 486.392,1141.16 486.392,1144.23 490.297,1144.23 490.297,1060.93 494.202,1060.93 494.202,977.772 498.106,977.772 498.106,895.913 502.011,895.913 502.011,816.47 505.916,816.47 505.916,740.48 509.821,740.48 509.821,752.49 513.726,752.49 513.726,767.27 517.63,767.27 517.63,784.818 521.535,784.818 521.535,805.076 525.44,805.076 525.44,827.93 529.345,827.93 529.345,853.213 533.249,853.213 533.249,880.713 537.154,880.713 537.154,910.178 541.059,910.178 541.059,941.32 544.964,941.32 544.964,973.823 548.868,973.823 548.868,923.75 552.773,923.75 552.773,876.814 556.678,876.814 556.678,833.371 560.583,833.371 560.583,793.701 564.488,793.701 564.488,758.008 568.392,758.008 568.392,726.415 572.297,726.415 572.297,698.967 576.202,698.967 576.202,675.628 580.107,675.628 580.107,656.289 584.011,656.289 584.011,640.77 587.916,640.77 587.916,628.823 591.821,628.823 591.821,620.146 595.726,620.146 595.726,614.381 599.631,614.381 599.631,611.13 603.535,611.13 603.535,609.962 607.44,609.962 607.44,610.422 611.345,610.422 611.345,612.038 615.25,612.038 615.25,614.337 619.154,614.337 619.154,616.847 623.059,616.847 623.059,619.113 626.964,619.113 626.964,620.701 630.869,620.701 630.869,621.206 634.773,621.206 634.773,620.262 638.678,620.262 638.678,617.545 642.583,617.545 642.583,612.779 646.488,612.779 646.488,605.742 650.393,605.742 650.393,596.266 654.297,596.266 654.297,584.238 658.202,584.238 658.202,569.605 662.107,569.605 662.107,552.369 666.012,552.369 666.012,616.187 669.916,616.187 669.916,675.106 673.821,675.106 673.821,728.569 677.726,728.569 677.726,776.143 681.631,776.143 681.631,817.515 685.535,817.515 685.535,768.9 689.44,768.9 689.44,716.302 693.345,716.302 693.345,660.501 697.25,660.501 697.25,602.317 701.155,602.317 701.155,542.599 705.059,542.599 705.059,565.805 708.964,565.805 708.964,586.718 712.869,586.718 712.869,605.452 716.774,605.452 716.774,622.152 720.678,622.152 720.678,636.996 724.583,636.996 724.583,650.189 728.488,650.189 728.488,661.957 732.393,661.957 732.393,672.545 736.298,672.545 736.298,682.207 740.202,682.207 740.202,691.205 744.107,691.205 744.107,616.201 748.012,616.201 748.012,543.517 751.917,543.517 751.917,474.116 755.821,474.116 755.821,408.869 759.726,408.869 759.726,348.547 763.631,348.547 763.631,377.402 767.536,377.402 767.536,409.901 771.44,409.901 771.44,445.727 775.345,445.727 775.345,484.505 779.25,484.505 779.25,525.807 783.155,525.807 783.155,569.165 787.06,569.165 787.06,614.08 790.964,614.08 790.964,660.033 794.869,660.033 794.869,706.495 798.774,706.495 798.774,752.939 802.679,752.939 802.679,798.851 806.583,798.851 806.583,843.737 810.488,843.737 810.488,887.136 814.393,887.136 814.393,928.624 818.298,928.624 818.298,967.823 822.202,967.823 822.202,920.809 826.107,920.809 826.107,873.378 830.012,873.378 830.012,826.034 833.917,826.034 833.917,779.271 837.822,779.271 837.822,733.56 841.726,733.56 841.726,689.342 845.631,689.342 845.631,647.021 849.536,647.021 849.536,606.954 853.441,606.954 853.441,569.448 857.345,569.448 857.345,534.756 861.25,534.756 861.25,586.67 865.155,586.67 865.155,639.26 869.06,639.26 869.06,691.885 872.965,691.885 872.965,743.917 876.869,743.917 876.869,794.756 880.774,794.756 880.774,843.838 884.679,843.838 884.679,890.645 888.584,890.645 888.584,934.719 892.488,934.719 892.488,975.66 896.393,975.66 896.393,1013.14 900.298,1013.14 900.298,1046.91 904.203,1046.91 904.203,1076.79 908.107,1076.79 908.107,1102.69 912.012,1102.69 912.012,1124.57 915.917,1124.57 915.917,1142.49 919.822,1142.49 919.822,1156.59 923.727,1156.59 923.727,1167.06 927.631,1167.06 927.631,1174.15 931.536,1174.15 931.536,1178.17 935.441,1178.17 935.441,1179.49 939.346,1179.49 939.346,1094.91 943.25,1094.91 943.25,1010.91 947.155,1010.91 947.155,928.658 951.06,928.658 951.06,849.255 954.965,849.255 954.965,773.714 958.87,773.714 958.87,702.945 962.774,702.945 962.774,637.747 966.679,637.747 966.679,578.787 970.584,578.787 970.584,526.594 974.489,526.594 974.489,481.555 978.393,481.555 978.393,527.509 982.298,527.509 982.298,578.481 986.203,578.481 986.203,633.703 990.108,633.703 990.108,692.345 994.012,692.345 994.012,753.526 997.917,753.526 997.917,816.339 1001.82,816.339 1001.82,879.871 1005.73,879.871 1005.73,943.213 1009.63,943.213 1009.63,1005.49 1013.54,1005.49 1013.54,1065.86 1017.44,1065.86 1017.44,1123.55 1021.35,1123.55 1021.35,1177.85 1025.25,1177.85 1025.25,1228.14 1029.16,1228.14 1029.16,1273.9 1033.06,1273.9 1033.06,1314.69 1036.96,1314.69 1036.96,1266.61 1040.87,1266.61 1040.87,1215.49 1044.77,1215.49 1044.77,1161.97 1048.68,1161.97 1048.68,1106.67 1052.58,1106.67 1052.58,1050.28 1056.49,1050.28 1056.49,993.463 1060.39,993.463 1060.39,936.89 1064.3,936.89 1064.3,881.208 1068.2,881.208 1068.2,827.034 1072.11,827.034 1072.11,774.938 1076.01,774.938 1076.01,725.441 1079.92,725.441 1079.92,678.999 1083.82,678.999 1083.82,636 1087.73,636 1087.73,596.756 1091.63,596.756 1091.63,561.502 1095.54,561.502 1095.54,613.991 1099.44,613.991 1099.44,668.231 1103.35,668.231 1103.35,723.5 1107.25,723.5 1107.25,779.074 1111.16,779.074 1111.16,834.239 1115.06,834.239 1115.06,888.308 1118.97,888.308 1118.97,940.63 1122.87,940.63 1122.87,990.607 1126.77,990.607 1126.77,1037.7 1130.68,1037.7 1130.68,1081.43 1134.58,1081.43 1134.58,1037.81 1138.49,1037.81 1138.49,992.591 1142.39,992.591 1142.39,946.254 1146.3,946.254 1146.3,899.296 1150.2,899.296 1150.2,852.217 1154.11,852.217 1154.11,805.507 1158.01,805.507 1158.01,759.641 1161.92,759.641 1161.92,715.065 1165.82,715.065 1165.82,672.192 1169.73,672.192 1169.73,631.395 1173.63,631.395 1173.63,592.995 1177.54,592.995 1177.54,557.266 1181.44,557.266 1181.44,524.421 1185.35,524.421 1185.35,494.617 1189.25,494.617 1189.25,467.948 1193.16,467.948 1193.16,444.45 1197.06,444.45 1197.06,424.099 1200.97,424.099 1200.97,406.812 1204.87,406.812 1204.87,392.454 1208.77,392.454 1208.77,380.839 1212.68,380.839 1212.68,371.737 1216.58,371.737 1216.58,364.879 1220.49,364.879 1220.49,359.963 1224.39,359.963 1224.39,356.662 1228.3,356.662 1228.3,354.631 1232.2,354.631 1232.2,437.113 1236.11,437.113 1236.11,517.685 1240.01,517.685 1240.01,595.277 1243.92,595.277 1243.92,668.906 1247.82,668.906 1247.82,737.69 1251.73,737.69 1251.73,800.866 1255.63,800.866 1255.63,857.797 1259.54,857.797 1259.54,907.985 1263.44,907.985 1263.44,951.075 1267.35,951.075 1267.35,986.857 1271.25,986.857 1271.25,931.666 1275.16,931.666 1275.16,871.644 1279.06,871.644 1279.06,807.719 1282.97,807.719 1282.97,740.872 1286.87,740.872 1286.87,672.116 1290.78,672.116 1290.78,602.475 1294.68,602.475 1294.68,532.966 1298.58,532.966 1298.58,464.576 1302.49,464.576 1302.49,398.243 1306.39,398.243 1306.39,334.843 1310.3,334.843 1310.3,275.171 1314.2,275.171 1314.2,219.929 1318.11,219.929 1318.11,169.714 1322.01,169.714 1322.01,125.011 1325.92,125.011 1325.92,86.1857 1329.82,86.1857 1329.82,137.081 1333.73,137.081 1333.73,191.751 1337.63,191.751 1337.63,249.481 1341.54,249.481 1341.54,309.509 1345.44,309.509 1345.44,371.05 1349.35,371.05 1349.35,349.703 1353.25,349.703 1353.25,330.738 1357.16,330.738 1357.16,314.094 1361.06,314.094 1361.06,299.671 1364.97,299.671 1364.97,287.329 1368.87,287.329 1368.87,360.498 1372.78,360.498 1372.78,432.915 1376.68,432.915 1376.68,503.641 1380.58,503.641 1380.58,571.797 1384.49,571.797 1384.49,636.574 1388.39,636.574 1388.39,697.25 1392.3,697.25 1392.3,753.199 1396.2,753.199 1396.2,803.903 1400.11,803.903 1400.11,848.958 1404.01,848.958 1404.01,888.079 1407.92,888.079 1407.92,921.101 1411.82,921.101 1411.82,947.98 1415.73,947.98 1415.73,968.79 1419.63,968.79 1419.63,983.718 1423.54,983.718 1423.54,993.057 1427.44,993.057 1427.44,913.596 1431.35,913.596 1431.35,831.876 1435.25,831.876 1435.25,749.16 1439.16,749.16 1439.16,666.698 1443.06,666.698 1443.06,585.701 1446.97,585.701 1446.97,590.923 1450.87,590.923 1450.87,597.369 1454.78,597.369 1454.78,605.297 1458.68,605.297 1458.68,614.923 1462.59,614.923 1462.59,626.421 1466.49,626.421 1466.49,639.917 1470.39,639.917 1470.39,655.49 1474.3,655.49 1474.3,673.174 1478.2,673.174 1478.2,692.953 1482.11,692.953 1482.11,714.769 1486.01,714.769 1486.01,738.521 1489.92,738.521 1489.92,764.069 1493.82,764.069 1493.82,791.238 1497.73,791.238 1497.73,819.821 1501.63,819.821 1501.63,849.59 1505.54,849.59 1505.54,880.291 1509.44,880.291 1509.44,911.659 1513.35,911.659 1513.35,943.419 1517.25,943.419 1517.25,975.294 1521.16,975.294 1521.16,1007.01 1525.06,1007.01 1525.06,1038.29 1528.97,1038.29 1528.97,1068.89 1532.87,1068.89 1532.87,1098.57 1536.78,1098.57 1536.78,1127.12 1540.68,1127.12 1540.68,1154.33 1544.59,1154.33 1544.59,1180.06 1548.49,1180.06 1548.49,1204.17 1552.39,1204.17 1552.39,1226.56 1556.3,1226.56 1556.3,1247.16 1560.2,1247.16 1560.2,1265.95 1564.11,1265.95 1564.11,1199.32 1568.01,1199.32 1568.01,1133.38 1571.92,1133.38 1571.92,1068.89 1575.82,1068.89 1575.82,1006.6 1579.73,1006.6 1579.73,947.17 1583.63,947.17 1583.63,891.201 1587.54,891.201 1587.54,839.212 1591.44,839.212 1591.44,791.632 1595.35,791.632 1595.35,748.797 1599.25,748.797 1599.25,710.943 1603.16,710.943 1603.16,678.206 1607.06,678.206 1607.06,650.622 1610.97,650.622 1610.97,628.129 1614.87,628.129 1614.87,610.573 1618.78,610.573 1618.78,597.708 1622.68,597.708 1622.68,672.812 1626.59,672.812 1626.59,749.424 1630.49,749.424 1630.49,826.375 1634.4,826.375 1634.4,902.517 1638.3,902.517 1638.3,976.752 1642.2,976.752 1642.2,1048.04 1646.11,1048.04 1646.11,1115.45 1650.01,1115.45 1650.01,1178.11 1653.92,1178.11 1653.92,1235.3 1657.82,1235.3 1657.82,1286.4 1661.73,1286.4 1661.73,1247.36 1665.63,1247.36 1665.63,1203.88 1669.54,1203.88 1669.54,1156.5 1673.44,1156.5 1673.44,1105.8 1677.35,1105.8 1677.35,1052.42 1681.25,1052.42 1681.25,997.03 1685.16,997.03 1685.16,940.336 1689.06,940.336 1689.06,883.047 1692.97,883.047 1692.97,825.869 1696.87,825.869 1696.87,769.488 1700.78,769.488 1700.78,714.558 1704.68,714.558 1704.68,661.692 1708.59,661.692 1708.59,611.447 1712.49,611.447 1712.49,564.315 1716.4,564.315 1716.4,520.718 1720.3,520.718 1720.3,480.999 1724.2,480.999 1724.2,445.42 1728.11,445.42 1728.11,414.157 1732.01,414.157 1732.01,387.3 1735.92,387.3 1735.92,364.853 1739.82,364.853 1739.82,430.339 1743.73,430.339 1743.73,497.538 1747.63,497.538 1747.63,565.505 1751.54,565.505 1751.54,633.307 1755.44,633.307 1755.44,700.036 1759.35,700.036 1759.35,764.828 1763.25,764.828 1763.25,826.878 1767.16,826.878 1767.16,885.455 1771.06,885.455 1771.06,939.914 1774.97,939.914 1774.97,989.706 1778.87,989.706 1778.87,950.785 1782.78,950.785 1782.78,908.878 1786.68,908.878 1786.68,864.477 1790.59,864.477 1790.59,818.11 1794.49,818.11 1794.49,770.331 1798.4,770.331 1798.4,721.714 1802.3,721.714 1802.3,672.832 1806.2,672.832 1806.2,624.254 1810.11,624.254 1810.11,576.527 1814.01,576.527 1814.01,530.171 1817.92,530.171 1817.92,569.268 1821.82,569.268 1821.82,608.189 1825.73,608.189 1825.73,646.602 1829.63,646.602 1829.63,684.192 1833.54,684.192 1833.54,720.663 1837.44,720.663 1837.44,755.748 1841.35,755.748 1841.35,789.209 1845.25,789.209 1845.25,820.843 1849.16,820.843 1849.16,850.487 1853.06,850.487 1853.06,878.016 1856.97,878.016 1856.97,903.347 1860.87,903.347 1860.87,926.438 1864.78,926.438 1864.78,947.289 1868.68,947.289 1868.68,965.941 1872.59,965.941 1872.59,982.472 1876.49,982.472 1876.49,913.395 1880.4,913.395 1880.4,844.92 1884.3,844.92 1884.3,777.934 1888.21,777.934 1888.21,713.273 1892.11,713.273 1892.11,651.706 1896.01,651.706 1896.01,593.924 1899.92,593.924 1899.92,540.527 1903.82,540.527 1903.82,492.015 1907.73,492.015 1907.73,448.781 1911.63,448.781 1911.63,411.108 1915.54,411.108 1915.54,462.765 1919.44,462.765 1919.44,517.743 1923.35,517.743 1923.35,575.275 1927.25,575.275 1927.25,634.558 1931.16,634.558 1931.16,694.78 1935.06,694.78 1935.06,755.127 1938.97,755.127 1938.97,814.802 1942.87,814.802 1942.87,873.044 1946.78,873.044 1946.78,929.135 1950.68,929.135 1950.68,982.42 1954.59,982.42 1954.59,948.712 1958.49,948.712 1958.49,913.569 1962.4,913.569 1962.4,877.286 1966.3,877.286 1966.3,840.175 1970.21,840.175 1970.21,802.56 1974.11,802.56 1974.11,848.37 1978.01,848.37 1978.01,891.869 1981.92,891.869 1981.92,932.663 1985.82,932.663 1985.82,970.418 1989.73,970.418 1989.73,1004.87 1993.63,1004.87 1993.63,1035.81 1997.54,1035.81 1997.54,1063.13 2001.44,1063.13 2001.44,1086.76 2005.35,1086.76 2005.35,1106.71 2009.25,1106.71 2009.25,1123.08 2013.16,1123.08 2013.16,1052.41 2017.06,1052.41 2017.06,980.96 2020.97,980.96 2020.97,909.714 2024.87,909.714 2024.87,839.614 2028.78,839.614 2028.78,771.558 2032.68,771.558 2032.68,789.984 2036.59,789.984 2036.59,809.587 2040.49,809.587 2040.49,830.326 2044.4,830.326 2044.4,852.134 2048.3,852.134 2048.3,874.92 2052.21,874.92 2052.21,814.974 2056.11,814.974 2056.11,758.231 2060.02,758.231 2060.02,705.262 2063.92,705.262 2063.92,656.55 2067.82,656.55 2067.82,612.485 2071.73,612.485 2071.73,573.357 2075.63,573.357 2075.63,539.358 2079.54,539.358 2079.54,510.574 2083.44,510.574 2083.44,486.993 2087.35,486.993 2087.35,468.503 2091.25,468.503 2091.25,538.503 2095.16,538.503 2095.16,610.638 2099.06,610.638 2099.06,683.83 2102.97,683.83 2102.97,757.006 2106.87,757.006 2106.87,829.123 2110.78,829.123 2110.78,899.183 2114.68,899.183 2114.68,966.256 2118.59,966.256 2118.59,1029.5 2122.49,1029.5 2122.49,1088.15 2126.4,1088.15 2126.4,1141.57 2130.3,1141.57 2130.3,1189.24 2134.21,1189.24 2134.21,1230.76 2138.11,1230.76 2138.11,1265.86 2142.02,1265.86 2142.02,1294.39 2145.92,1294.39 2145.92,1316.35 2149.82,1316.35 2149.82,1331.85 2153.73,1331.85 2153.73,1341.13 2157.63,1341.13 2157.63,1344.54 2161.54,1344.54 2161.54,1342.53 2165.44,1342.53 2165.44,1335.63 2169.35,1335.63 2169.35,1240.86 2173.25,1240.86 2173.25,1144.97 2177.16,1144.97 2177.16,1049.39 2181.06,1049.39 2181.06,955.51 2184.97,955.51 2184.97,864.666 2188.87,864.666 2188.87,861.682 2192.78,861.682 2192.78,861.611 2196.68,861.611 2196.68,864.721 2200.59,864.721 2200.59,871.206 2204.49,871.206 2204.49,881.186 2208.4,881.186 2208.4,811.102 2212.3,811.102 2212.3,746.987 2216.21,746.987 2216.21,689.451 2220.11,689.451 2220.11,638.96 2224.02,638.96 2224.02,595.833 2227.92,595.833 2227.92,643.841 2231.83,643.841 2231.83,696.941 2235.73,696.941 2235.73,754.297 2239.63,754.297 2239.63,815.011 2243.54,815.011 2243.54,878.141 2247.44,878.141 2247.44,942.723 2251.35,942.723 2251.35,1007.79 2255.25,1007.79 2255.25,1072.39 2259.16,1072.39 2259.16,1135.59 2263.06,1135.59 2263.06,1196.55 2266.97,1196.55 2266.97,1170.85 2270.87,1170.85 2270.87,1143.83 2274.78,1143.83 2274.78,1115.58 2278.68,1115.58 2278.68,1086.22 2282.59,1086.22 2282.59,1055.87 2286.49,1055.87 2286.49,1108.29 2290.4,1108.29 2290.4,1157.59 2294.3,1157.59 2294.3,1203.24 "/>
<polyline clip-path="url(#clip451)" style="stroke:#e26f46; stroke-linecap:round; stroke-linejoin:round; stroke-width:4; stroke-opacity:1; fill:none" points="345.82,646.614 349.725,680.856 353.63,715.115 357.535,748.882 361.439,781.693 365.344,881.24 369.249,841.096 373.154,797.686 377.059,751.957 380.963,704.85 384.868,657.283 388.773,610.124 392.678,564.177 396.582,520.162 400.487,478.707 404.392,372.233 408.297,407.232 412.201,447.292 416.106,491.437 420.011,538.654 423.916,587.917 427.821,638.218 431.725,688.584 435.63,738.109 439.535,785.96 443.44,831.402 447.344,873.806 451.249,912.657 455.154,947.562 459.059,978.248 462.963,1004.56 466.868,1026.48 470.773,1044.06 474.678,1057.5 478.583,1067.05 482.487,1141.17 486.392,1074.19 490.297,1003.28 494.202,930.096 498.106,856.257 502.011,715.175 505.916,714.33 509.821,718.266 513.726,726.904 517.63,740.055 521.535,757.431 525.44,778.657 529.345,803.287 533.249,830.818 537.154,860.711 541.059,960.505 544.964,923.549 548.868,885.991 552.773,848.45 556.678,811.505 560.583,775.684 564.488,741.455 568.392,709.214 572.297,679.285 576.202,651.916 580.107,627.273 584.011,605.447 587.916,586.454 591.821,570.241 595.726,556.688 599.631,545.619 603.535,536.81 607.44,529.996 611.345,524.879 615.25,521.142 619.154,518.452 623.059,516.476 626.964,514.884 630.869,513.357 634.773,511.599 638.678,509.337 642.583,506.33 646.488,502.371 650.393,497.291 654.297,490.961 658.202,415.186 662.107,475.991 666.012,536.653 669.916,596.027 673.821,653.078 677.726,774.996 681.631,754.931 685.535,728.968 689.44,697.802 693.345,662.21 697.25,554.926 701.155,582.897 705.059,610.294 708.964,636.821 712.869,662.225 716.774,686.293 720.678,708.86 724.583,729.807 728.488,749.064 732.393,766.604 736.298,850.549 740.202,794.882 744.107,736.407 748.012,676.417 751.917,616.156 755.821,488.693 759.726,501.177 763.631,517.852 767.536,538.376 771.44,562.33 775.345,589.241 779.25,618.591 783.155,649.834 787.06,682.415 790.964,715.779 794.869,749.387 798.774,782.73 802.679,815.337 806.583,846.785 810.488,876.705 814.393,972.898 818.298,929.042 822.202,881.676 826.107,831.856 830.012,780.63 833.917,729.015 837.822,677.972 841.726,628.385 845.631,581.046 849.536,536.642 853.441,427.637 857.345,460.555 861.25,499.004 865.155,542.014 869.06,588.564 872.965,637.613 876.869,688.123 880.774,739.088 884.679,789.556 888.584,838.648 892.488,885.574 896.393,929.649 900.298,970.303 904.203,1007.08 908.107,1039.67 912.012,1067.85 915.917,1091.56 919.822,1110.81 923.727,1125.76 927.631,1136.64 931.536,1211.87 935.441,1145.77 939.346,1075.51 943.25,1002.74 947.155,929.067 951.06,856.028 954.965,785.036 958.87,717.366 962.774,654.128 966.679,596.252 970.584,476.37 974.489,501.1 978.393,534.07 982.298,574.264 986.203,620.55 990.108,671.722 994.012,726.529 997.917,783.711 1001.82,842.032 1005.73,900.306 1009.63,957.425 1013.54,1012.38 1017.44,1064.29 1021.35,1112.38 1025.25,1156.05 1029.16,1262.93 1033.06,1226.63 1036.96,1183.69 1040.87,1135.26 1044.77,1082.54 1048.68,1026.76 1052.58,969.137 1056.49,910.879 1060.39,853.113 1064.3,796.888 1068.2,743.145 1072.11,692.705 1076.01,646.255 1079.92,604.339 1083.82,567.356 1087.73,467.451 1091.63,510.81 1095.54,560.691 1099.44,615.77 1103.35,674.684 1107.25,736.061 1111.16,798.556 1115.06,860.884 1118.97,921.847 1122.87,980.358 1126.77,1103.57 1130.68,1084.58 1134.58,1059.46 1138.49,1028.88 1142.39,993.599 1146.3,954.454 1150.2,912.316 1154.11,868.076 1158.01,822.62 1161.92,776.808 1165.82,731.451 1169.73,687.298 1173.63,645.022 1177.54,605.205 1181.44,568.332 1185.35,534.783 1189.25,504.835 1193.16,478.657 1197.06,456.314 1200.97,437.775 1204.87,422.918 1208.77,411.536 1212.68,403.353 1216.58,398.032 1220.49,395.188 1224.39,326.297 1228.3,396.99 1232.2,470.103 1236.11,544.016 1240.01,617.196 1243.92,688.228 1247.82,755.837 1251.73,818.918 1255.63,876.548 1259.54,927.997 1263.44,1040.84 1267.35,1008.67 1271.25,968.053 1275.16,920.215 1279.06,866.467 1282.97,808.184 1286.87,746.764 1290.78,683.592 1294.68,620.009 1298.58,557.277 1302.49,496.558 1306.39,438.888 1310.3,385.162 1314.2,336.121 1318.11,292.341 1322.01,186.13 1325.92,223.808 1329.82,268.746 1333.73,319.71 1337.63,375.396 1341.54,502.571 1345.44,493.826 1349.35,484.575 1353.25,474.751 1357.16,464.306 1361.06,385.106 1364.97,443.217 1368.87,501.934 1372.78,560.114 1376.68,616.701 1380.58,670.746 1384.49,721.423 1388.39,768.045 1392.3,810.064 1396.2,847.084 1400.11,878.855 1404.01,905.275 1407.92,926.376 1411.82,942.321 1415.73,953.388 1419.63,1028.06 1423.54,960.728 1427.44,888.637 1431.35,813.537 1435.25,737.141 1439.16,592.978 1443.06,588.644 1446.97,588.801 1450.87,593.492 1454.78,602.642 1458.68,616.073 1462.59,633.509 1466.49,654.596 1470.39,678.911 1474.3,705.976 1478.2,735.28 1482.11,766.286 1486.01,798.449 1489.92,831.233 1493.82,864.119 1497.73,896.619 1501.63,928.284 1505.54,958.716 1509.44,987.573 1513.35,1014.57 1517.25,1039.49 1521.16,1062.18 1525.06,1082.55 1528.97,1100.56 1532.87,1116.26 1536.78,1129.73 1540.68,1141.1 1544.59,1150.55 1548.49,1158.29 1552.39,1164.56 1556.3,1237.73 1560.2,1172 1564.11,1104.34 1568.01,1036.21 1571.92,968.957 1575.82,903.839 1579.73,841.972 1583.63,784.32 1587.54,731.683 1591.44,684.687 1595.35,643.776 1599.25,609.219 1603.16,581.109 1607.06,559.378 1610.97,543.802 1614.87,465.918 1618.78,531.327 1622.68,602.737 1626.59,678.326 1630.49,756.289 1634.4,834.874 1638.3,912.432 1642.2,987.441 1646.11,1058.54 1650.01,1124.57 1653.92,1252.64 1657.82,1235.92 1661.73,1210.57 1665.63,1177.45 1669.54,1137.51 1673.44,1091.84 1677.35,1041.6 1681.25,987.966 1685.16,932.147 1689.06,875.314 1692.97,818.591 1696.87,763.028 1700.78,709.578 1704.68,659.08 1708.59,612.247 1712.49,569.657 1716.4,531.746 1720.3,498.806 1724.2,470.99 1728.11,448.314 1732.01,362.564 1735.92,419.588 1739.82,482.344 1743.73,549.249 1747.63,618.718 1751.54,689.207 1755.44,759.243 1759.35,827.464 1763.25,892.636 1767.16,953.683 1771.06,1077.8 1774.97,1058.19 1778.87,1031.03 1782.78,997.138 1786.68,957.445 1790.59,912.969 1794.49,864.777 1798.4,813.962 1802.3,761.609 1806.2,708.771 1810.11,588.343 1814.01,607.323 1817.92,629.823 1821.82,655.395 1825.73,683.545 1829.63,713.745 1833.54,745.45 1837.44,778.113 1841.35,811.199 1845.25,844.196 1849.16,876.625 1853.06,908.056 1856.97,938.106 1860.87,966.453 1864.78,992.836 1868.68,1085.16 1872.59,1037.23 1876.49,985.684 1880.4,931.683 1884.3,876.376 1888.21,820.868 1892.11,766.201 1896.01,713.324 1899.92,663.087 1903.82,616.215 1907.73,505.203 1911.63,536.588 1915.54,573.983 1919.44,616.406 1923.35,662.817 1927.25,712.144 1931.16,763.312 1935.06,815.268 1938.97,867.011 1942.87,917.606 1946.78,1034.31 1950.68,1010.31 1954.59,981.692 1958.49,949.113 1962.4,913.293 1966.3,806.878 1970.21,836.71 1974.11,866.833 1978.01,896.816 1981.92,926.257 1985.82,954.792 1989.73,982.103 1993.63,1007.92 1997.54,1032.04 2001.44,1054.29 2005.35,1142.68 2009.25,1091.08 2013.16,1036.21 2017.06,979.28 2020.97,921.493 2024.87,795.873 2028.78,809.554 2032.68,826.776 2036.59,847.212 2040.49,870.474 2044.4,964.234 2048.3,921.952 2052.21,879.859 2056.11,838.632 2060.02,798.888 2063.92,761.164 2067.82,725.916 2071.73,693.507 2075.63,664.21 2079.54,638.202 2083.44,547.465 2087.35,598.074 2091.25,653.231 2095.16,711.611 2099.06,771.895 2102.97,832.8 2106.87,893.114 2110.78,951.713 2114.68,1007.59 2118.59,1059.87 2122.49,1107.83 2126.4,1150.88 2130.3,1188.61 2134.21,1220.76 2138.11,1247.21 2142.02,1268.01 2145.92,1283.33 2149.82,1293.47 2153.73,1298.83 2157.63,1299.92 2161.54,1365.41 2165.44,1289.83 2169.35,1210.58 2173.25,1129.47 2177.16,1048.28 2181.06,900.571 2184.97,893.916 2188.87,892.942 2192.78,897.623 2196.68,907.798 2200.59,991.281 2204.49,941.597 2208.4,894.968 2212.3,851.991 2216.21,813.138 2220.11,710.644 2224.02,750.793 2227.92,796.952 2231.83,847.915 2235.73,902.431 2239.63,959.247 2243.54,1017.13 2247.44,1074.9 2251.35,1131.46 2255.25,1185.82 2259.16,1305.18 2263.06,1282.74 2266.97,1254.6 2270.87,1221.46 2274.78,1184.11 2278.68,1075.3 2282.59,1101.96 2286.49,1128.26 2290.4,1153.89 2294.3,1178.58 "/>
<polyline clip-path="url(#clip451)" style="stroke:#3da44d; stroke-linecap:round; stroke-linejoin:round; stroke-width:4; stroke-opacity:1; fill:none" points="345.82,641.357 349.725,677.037 353.63,713.575 357.535,750.346 361.439,786.759 365.344,861.591 369.249,828.21 373.154,790.522 377.059,749.403 380.963,705.762 384.868,660.508 388.773,614.533 392.678,568.689 396.582,523.77 400.487,480.498 404.392,400.185 408.297,429.514 412.201,464.589 416.106,504.509 420.011,548.308 423.916,594.989 427.821,643.546 431.725,692.992 435.63,742.383 439.535,790.836 443.44,837.546 447.344,881.806 451.249,923.011 455.154,960.673 459.059,994.421 462.963,1024 466.868,1049.29 470.773,1070.25 474.678,1086.99 478.583,1099.69 482.487,1147.93 486.392,1085.93 490.297,1018.42 494.202,947.084 498.106,873.592 502.011,760.24 505.916,754.697 509.821,754.038 513.726,758.286 517.63,767.342 521.535,780.995 525.44,798.933 529.345,820.757 533.249,845.998 537.154,874.134 541.059,943.923 544.964,908.64 548.868,872.022 552.773,834.718 556.678,797.354 560.583,760.515 564.488,724.737 568.392,690.497 572.297,658.201 576.202,628.183 580.107,600.7 584.011,575.931 587.916,553.975 591.821,534.858 595.726,518.534 599.631,504.892 603.535,493.764 607.44,484.929 611.345,478.127 615.25,473.063 619.154,469.422 623.059,466.873 626.964,465.081 630.869,463.713 634.773,462.45 638.678,460.991 642.583,459.061 646.488,456.412 650.393,452.835 654.297,448.154 658.202,402.913 662.107,463.164 666.012,524.521 669.916,585.739 673.821,645.657 677.726,742.538 681.631,729.309 685.535,709.509 689.44,683.729 693.345,652.669 697.25,577.794 701.155,606.097 705.059,634.131 708.964,661.561 712.869,688.086 716.774,713.45 720.678,737.437 724.583,759.882 728.488,780.665 732.393,799.718 736.298,856.335 740.202,804.393 744.107,748.281 748.012,689.325 751.917,628.837 755.821,528.76 759.726,536.429 763.631,548.606 767.536,565.034 771.44,585.366 775.345,609.179 779.25,635.994 783.155,665.287 787.06,696.506 790.964,729.087 794.869,762.469 798.774,796.106 802.679,829.481 806.583,862.116 810.488,893.584 814.393,962.83 818.298,923.399 822.202,879.372 826.107,831.799 830.012,781.75 833.917,730.287 837.822,678.438 841.726,627.175 845.631,577.393 849.536,529.894 853.441,446.049 857.345,472.581 861.25,505.612 865.155,544.238 869.06,587.474 872.965,634.285 876.869,683.614 880.774,734.412 884.679,785.658 888.584,836.389 892.488,885.713 896.393,932.832 900.298,977.054 904.203,1017.8 908.107,1054.62 912.012,1087.18 915.917,1115.28 919.822,1138.84 923.727,1157.89 927.631,1172.57 931.536,1222.46 935.441,1161.73 939.346,1095.11 943.25,1024.27 947.155,950.913 951.06,876.658 954.965,803.058 958.87,731.547 962.774,663.416 966.679,599.788 970.584,502.284 974.489,517.793 978.393,542.534 982.298,575.623 986.203,616.026 990.108,662.597 994.012,714.111 997.917,769.299 1001.82,826.885 1005.73,885.614 1009.63,944.286 1013.54,1001.78 1017.44,1057.07 1021.35,1109.26 1025.25,1157.58 1029.16,1240.73 1033.06,1212.09 1036.96,1175.67 1040.87,1132.53 1044.77,1083.83 1048.68,1030.79 1052.58,974.651 1056.49,916.663 1060.39,858.036 1064.3,799.916 1068.2,743.365 1072.11,689.337 1076.01,638.663 1079.92,592.039 1083.82,550.014 1087.73,473.672 1091.63,509.409 1095.54,553.008 1099.44,603.207 1103.35,658.667 1107.25,718.004 1111.16,779.826 1115.06,842.772 1118.97,905.539 1122.87,966.915 1126.77,1065.12 1130.68,1053.03 1134.58,1034.17 1138.49,1009.09 1142.39,978.485 1146.3,943.121 1150.2,903.844 1154.11,861.54 1158.01,817.113 1161.92,771.46 1165.82,725.451 1169.73,679.91 1173.63,635.595 1177.54,593.187 1181.44,553.275 1185.35,516.349 1189.25,482.795 1193.16,452.892 1197.06,426.81 1200.97,404.616 1204.87,386.276 1208.77,371.665 1212.68,360.574 1216.58,352.722 1220.49,347.767 1224.39,305.999 1228.3,373.135 1232.2,444.398 1236.11,518.1 1240.01,592.601 1243.92,666.347 1247.82,737.903 1251.73,805.981 1255.63,869.461 1259.54,927.409 1263.44,1018.41 1267.35,995.774 1271.25,963.504 1275.16,922.688 1279.06,874.559 1282.97,820.448 1286.87,761.752 1290.78,699.888 1294.68,636.259 1298.58,572.224 1302.49,509.061 1306.39,447.948 1310.3,389.934 1314.2,335.924 1318.11,286.668 1322.01,203.428 1325.92,232.766 1329.82,270.599 1333.73,315.782 1337.63,367.064 1341.54,462.441 1345.44,454.415 1349.35,445.961 1353.25,436.993 1357.16,427.442 1361.06,377.94 1364.97,434.601 1368.87,493.089 1372.78,552.182 1376.68,610.721 1380.58,667.637 1384.49,721.97 1388.39,772.884 1392.3,819.68 1396.2,861.809 1400.11,898.867 1404.01,930.605 1407.92,956.918 1411.82,977.841 1415.73,993.54 1419.63,1043.62 1423.54,982.317 1427.44,914.435 1431.35,841.743 1435.25,766.017 1439.16,649.67 1443.06,640.502 1446.97,635.725 1450.87,635.503 1454.78,639.877 1458.68,648.772 1462.59,662.005 1466.49,679.296 1470.39,700.286 1474.3,724.544 1478.2,751.587 1482.11,780.896 1486.01,811.925 1489.92,844.125 1493.82,876.95 1497.73,909.875 1501.63,942.404 1505.54,974.085 1509.44,1004.51 1513.35,1033.34 1517.25,1060.29 1521.16,1085.12 1525.06,1107.7 1528.97,1127.92 1532.87,1145.76 1536.78,1161.25 1540.68,1174.48 1544.59,1185.59 1548.49,1194.75 1552.39,1202.18 1556.3,1247.45 1560.2,1184.68 1564.11,1118.46 1568.01,1050.31 1571.92,981.682 1575.82,913.964 1579.73,848.417 1583.63,786.173 1587.54,728.21 1591.44,675.336 1595.35,628.183 1599.25,587.201 1603.16,552.662 1607.06,524.657 1610.97,503.116 1614.87,448.491 1618.78,506.562 1622.68,572.518 1626.59,644.542 1630.49,720.788 1634.4,799.425 1638.3,878.679 1642.2,956.878 1646.11,1032.48 1650.01,1104.12 1653.92,1209.91 1657.82,1202.73 1661.73,1186.15 1665.63,1160.82 1669.54,1127.61 1673.44,1087.51 1677.35,1041.61 1681.25,991.072 1685.16,937.115 1689.06,880.949 1692.97,823.765 1696.87,766.701 1700.78,710.821 1704.68,657.089 1708.59,606.356 1712.49,559.343 1716.4,516.635 1720.3,478.672 1724.2,445.75 1728.11,418.022 1732.01,356.182 1735.92,406.264 1739.82,463.707 1743.73,526.949 1747.63,594.383 1751.54,664.403 1755.44,735.444 1759.35,806.016 1763.25,874.736 1767.16,940.357 1771.06,1041.11 1774.97,1029.93 1778.87,1010.41 1782.78,983.243 1786.68,949.258 1790.59,909.402 1794.49,864.705 1798.4,816.25 1802.3,765.145 1806.2,712.489 1810.11,620.03 1814.01,634.924 1817.92,653.776 1821.82,676.194 1825.73,701.724 1829.63,729.863 1833.54,760.076 1837.44,791.811 1841.35,824.513 1845.25,857.64 1849.16,890.673 1853.06,923.129 1856.97,954.568 1860.87,984.606 1864.78,1012.92 1868.68,1078.55 1872.59,1035.18 1876.49,986.986 1880.4,935.138 1884.3,880.811 1888.21,825.17 1892.11,769.335 1896.01,714.359 1899.92,661.206 1903.82,610.733 1907.73,524.357 1911.63,548.828 1915.54,580.285 1919.44,617.825 1923.35,660.455 1927.25,707.12 1931.16,756.731 1935.06,808.2 1938.97,860.46 1942.87,912.496 1946.78,1002.68 1950.68,984.018 1954.59,960.079 1958.49,931.461 1962.4,898.836 1966.3,823.609 1970.21,852.689 1974.11,882.523 1978.01,912.649 1981.92,942.63 1985.82,972.058 1989.73,1000.57 1993.63,1027.83 1997.54,1053.58 2001.44,1077.61 2005.35,1139.06 2009.25,1091.7 2013.16,1039.79 2017.06,984.583 2020.97,927.3 2024.87,829.832 2028.78,839.473 2032.68,852.965 2036.59,870.046 2040.49,890.382 2044.4,952.9 2048.3,911.017 2052.21,868.591 2056.11,826.361 2060.02,785.015 2063.92,745.176 2067.82,707.388 2071.73,672.112 2075.63,639.717 2079.54,610.477 2083.44,545.251 2087.35,590.271 2091.25,641.207 2095.16,696.743 2099.06,755.535 2102.97,816.245 2106.87,877.577 2110.78,938.298 2114.68,997.274 2118.59,1053.48 2122.49,1106.04 2126.4,1154.21 2130.3,1197.4 2134.21,1235.2 2138.11,1267.33 2142.02,1293.69 2145.92,1314.33 2149.82,1329.41 2153.73,1339.25 2157.63,1344.25 2161.54,1384.24 2165.44,1313.65 2169.35,1237.45 2173.25,1157.52 2177.16,1075.74 2181.06,954.565 2184.97,941.83 2188.87,934.731 2192.78,933.393 2196.68,937.788 2200.59,987.071 2204.49,934.803 2208.4,884.906 2212.3,838.109 2216.21,795.02 2220.11,716.793 2224.02,749.916 2227.92,790.272 2231.83,836.711 2235.73,888.008 2239.63,942.899 2243.54,1000.11 2247.44,1058.39 2251.35,1116.56 2255.25,1173.48 2259.16,1267.48 2263.06,1251.52 2266.97,1229.16 2270.87,1201.03 2274.78,1167.85 2278.68,1091.08 2282.59,1117.74 2286.49,1144.36 2290.4,1170.62 2294.3,1196.2 "/>
<path clip-path="url(#clip450)" d="M1278.39 300.469 L2283.91 300.469 L2283.91 93.1086 L1278.39 93.1086  Z" fill="#ffffff" fill-rule="evenodd" fill-opacity="1"/>
<polyline clip-path="url(#clip450)" style="stroke:#000000; stroke-linecap:round; stroke-linejoin:round; stroke-width:4; stroke-opacity:1; fill:none" points="1278.39,300.469 2283.91,300.469 2283.91,93.1086 1278.39,93.1086 1278.39,300.469 "/>
<polyline clip-path="url(#clip450)" style="stroke:#009af9; stroke-linecap:round; stroke-linejoin:round; stroke-width:4; stroke-opacity:1; fill:none" points="1301.34,144.949 1439.03,144.949 "/>
<path clip-path="url(#clip450)" d="M1466.66 131.511 L1466.66 158.386 L1472.31 158.386 Q1479.46 158.386 1482.77 155.145 Q1486.1 151.905 1486.1 144.914 Q1486.1 137.969 1482.77 134.752 Q1479.46 131.511 1472.31 131.511 L1466.66 131.511 M1461.98 127.669 L1471.59 127.669 Q1481.64 127.669 1486.34 131.858 Q1491.03 136.025 1491.03 144.914 Q1491.03 153.849 1486.31 158.039 Q1481.59 162.229 1471.59 162.229 L1461.98 162.229 L1461.98 127.669 Z" fill="#000000" fill-rule="nonzero" fill-opacity="1" /><path clip-path="url(#clip450)" d="M1510.09 149.196 Q1504.92 149.196 1502.93 150.377 Q1500.94 151.557 1500.94 154.405 Q1500.94 156.673 1502.42 158.016 Q1503.93 159.335 1506.5 159.335 Q1510.04 159.335 1512.17 156.835 Q1514.32 154.312 1514.32 150.145 L1514.32 149.196 L1510.09 149.196 M1518.58 147.437 L1518.58 162.229 L1514.32 162.229 L1514.32 158.293 Q1512.86 160.655 1510.69 161.789 Q1508.51 162.9 1505.36 162.9 Q1501.38 162.9 1499.02 160.678 Q1496.68 158.432 1496.68 154.682 Q1496.68 150.307 1499.6 148.085 Q1502.54 145.863 1508.35 145.863 L1514.32 145.863 L1514.32 145.446 Q1514.32 142.507 1512.38 140.909 Q1510.46 139.289 1506.96 139.289 Q1504.74 139.289 1502.63 139.821 Q1500.53 140.354 1498.58 141.419 L1498.58 137.483 Q1500.92 136.581 1503.12 136.141 Q1505.32 135.678 1507.4 135.678 Q1513.02 135.678 1515.8 138.594 Q1518.58 141.511 1518.58 147.437 Z" fill="#000000" fill-rule="nonzero" fill-opacity="1" /><path clip-path="url(#clip450)" d="M1531.57 128.942 L1531.57 136.303 L1540.34 136.303 L1540.34 139.613 L1531.57 139.613 L1531.57 153.687 Q1531.57 156.858 1532.42 157.761 Q1533.3 158.664 1535.96 158.664 L1540.34 158.664 L1540.34 162.229 L1535.96 162.229 Q1531.03 162.229 1529.16 160.4 Q1527.28 158.548 1527.28 153.687 L1527.28 139.613 L1524.16 139.613 L1524.16 136.303 L1527.28 136.303 L1527.28 128.942 L1531.57 128.942 Z" fill="#000000" fill-rule="nonzero" fill-opacity="1" /><path clip-path="url(#clip450)" d="M1557.72 149.196 Q1552.56 149.196 1550.57 150.377 Q1548.58 151.557 1548.58 154.405 Q1548.58 156.673 1550.06 158.016 Q1551.57 159.335 1554.14 159.335 Q1557.68 159.335 1559.81 156.835 Q1561.96 154.312 1561.96 150.145 L1561.96 149.196 L1557.72 149.196 M1566.22 147.437 L1566.22 162.229 L1561.96 162.229 L1561.96 158.293 Q1560.5 160.655 1558.33 161.789 Q1556.15 162.9 1553 162.9 Q1549.02 162.9 1546.66 160.678 Q1544.32 158.432 1544.32 154.682 Q1544.32 150.307 1547.24 148.085 Q1550.18 145.863 1555.99 145.863 L1561.96 145.863 L1561.96 145.446 Q1561.96 142.507 1560.02 140.909 Q1558.09 139.289 1554.6 139.289 Q1552.38 139.289 1550.27 139.821 Q1548.16 140.354 1546.22 141.419 L1546.22 137.483 Q1548.56 136.581 1550.76 136.141 Q1552.96 135.678 1555.04 135.678 Q1560.66 135.678 1563.44 138.594 Q1566.22 141.511 1566.22 147.437 Z" fill="#000000" fill-rule="nonzero" fill-opacity="1" /><polyline clip-path="url(#clip450)" style="stroke:#e26f46; stroke-linecap:round; stroke-linejoin:round; stroke-width:4; stroke-opacity:1; fill:none" points="1301.34,196.789 1439.03,196.789 "/>
<path clip-path="url(#clip450)" d="M1484.23 180.643 L1484.23 185.203 Q1481.57 183.93 1479.21 183.305 Q1476.84 182.68 1474.65 182.68 Q1470.83 182.68 1468.74 184.161 Q1466.68 185.643 1466.68 188.374 Q1466.68 190.666 1468.05 191.847 Q1469.44 193.004 1473.28 193.722 L1476.1 194.3 Q1481.34 195.296 1483.81 197.819 Q1486.31 200.319 1486.31 204.532 Q1486.31 209.555 1482.93 212.147 Q1479.58 214.74 1473.07 214.74 Q1470.62 214.74 1467.84 214.184 Q1465.09 213.629 1462.12 212.541 L1462.12 207.726 Q1464.97 209.323 1467.7 210.133 Q1470.43 210.944 1473.07 210.944 Q1477.08 210.944 1479.25 209.37 Q1481.43 207.796 1481.43 204.879 Q1481.43 202.333 1479.85 200.897 Q1478.3 199.462 1474.74 198.745 L1471.89 198.189 Q1466.66 197.147 1464.32 194.925 Q1461.98 192.703 1461.98 188.745 Q1461.98 184.161 1465.2 181.522 Q1468.44 178.884 1474.11 178.884 Q1476.54 178.884 1479.07 179.323 Q1481.59 179.763 1484.23 180.643 Z" fill="#000000" fill-rule="nonzero" fill-opacity="1" /><path clip-path="url(#clip450)" d="M1493.42 188.143 L1497.68 188.143 L1497.68 214.069 L1493.42 214.069 L1493.42 188.143 M1493.42 178.05 L1497.68 178.05 L1497.68 183.444 L1493.42 183.444 L1493.42 178.05 Z" fill="#000000" fill-rule="nonzero" fill-opacity="1" /><path clip-path="url(#clip450)" d="M1526.77 193.12 Q1528.37 190.249 1530.59 188.884 Q1532.82 187.518 1535.83 187.518 Q1539.88 187.518 1542.08 190.365 Q1544.27 193.189 1544.27 198.421 L1544.27 214.069 L1539.99 214.069 L1539.99 198.559 Q1539.99 194.833 1538.67 193.027 Q1537.35 191.222 1534.65 191.222 Q1531.34 191.222 1529.41 193.421 Q1527.49 195.62 1527.49 199.416 L1527.49 214.069 L1523.21 214.069 L1523.21 198.559 Q1523.21 194.809 1521.89 193.027 Q1520.57 191.222 1517.82 191.222 Q1514.55 191.222 1512.63 193.444 Q1510.71 195.643 1510.71 199.416 L1510.71 214.069 L1506.43 214.069 L1506.43 188.143 L1510.71 188.143 L1510.71 192.171 Q1512.17 189.786 1514.21 188.652 Q1516.24 187.518 1519.04 187.518 Q1521.87 187.518 1523.84 188.953 Q1525.83 190.388 1526.77 193.12 Z" fill="#000000" fill-rule="nonzero" fill-opacity="1" /><path clip-path="url(#clip450)" d="M1552.33 203.837 L1552.33 188.143 L1556.59 188.143 L1556.59 203.675 Q1556.59 207.356 1558.02 209.208 Q1559.46 211.036 1562.33 211.036 Q1565.78 211.036 1567.77 208.837 Q1569.78 206.638 1569.78 202.842 L1569.78 188.143 L1574.04 188.143 L1574.04 214.069 L1569.78 214.069 L1569.78 210.087 Q1568.23 212.448 1566.17 213.606 Q1564.14 214.74 1561.43 214.74 Q1556.96 214.74 1554.65 211.962 Q1552.33 209.184 1552.33 203.837 M1563.05 187.518 L1563.05 187.518 Z" fill="#000000" fill-rule="nonzero" fill-opacity="1" /><path clip-path="url(#clip450)" d="M1582.82 178.05 L1587.08 178.05 L1587.08 214.069 L1582.82 214.069 L1582.82 178.05 Z" fill="#000000" fill-rule="nonzero" fill-opacity="1" /><path clip-path="url(#clip450)" d="M1607.77 201.036 Q1602.61 201.036 1600.62 202.217 Q1598.63 203.397 1598.63 206.245 Q1598.63 208.513 1600.11 209.856 Q1601.61 211.175 1604.18 211.175 Q1607.72 211.175 1609.85 208.675 Q1612.01 206.152 1612.01 201.985 L1612.01 201.036 L1607.77 201.036 M1616.27 199.277 L1616.27 214.069 L1612.01 214.069 L1612.01 210.133 Q1610.55 212.495 1608.37 213.629 Q1606.2 214.74 1603.05 214.74 Q1599.07 214.74 1596.71 212.518 Q1594.37 210.272 1594.37 206.522 Q1594.37 202.147 1597.28 199.925 Q1600.22 197.703 1606.03 197.703 L1612.01 197.703 L1612.01 197.286 Q1612.01 194.347 1610.06 192.749 Q1608.14 191.129 1604.64 191.129 Q1602.42 191.129 1600.32 191.661 Q1598.21 192.194 1596.27 193.259 L1596.27 189.323 Q1598.6 188.421 1600.8 187.981 Q1603 187.518 1605.08 187.518 Q1610.71 187.518 1613.49 190.434 Q1616.27 193.351 1616.27 199.277 Z" fill="#000000" fill-rule="nonzero" fill-opacity="1" /><path clip-path="url(#clip450)" d="M1629.25 180.782 L1629.25 188.143 L1638.02 188.143 L1638.02 191.453 L1629.25 191.453 L1629.25 205.527 Q1629.25 208.698 1630.11 209.601 Q1630.99 210.504 1633.65 210.504 L1638.02 210.504 L1638.02 214.069 L1633.65 214.069 Q1628.72 214.069 1626.84 212.24 Q1624.97 210.388 1624.97 205.527 L1624.97 191.453 L1621.84 191.453 L1621.84 188.143 L1624.97 188.143 L1624.97 180.782 L1629.25 180.782 Z" fill="#000000" fill-rule="nonzero" fill-opacity="1" /><path clip-path="url(#clip450)" d="M1643.63 188.143 L1647.89 188.143 L1647.89 214.069 L1643.63 214.069 L1643.63 188.143 M1643.63 178.05 L1647.89 178.05 L1647.89 183.444 L1643.63 183.444 L1643.63 178.05 Z" fill="#000000" fill-rule="nonzero" fill-opacity="1" /><path clip-path="url(#clip450)" d="M1666.84 191.129 Q1663.42 191.129 1661.43 193.814 Q1659.44 196.476 1659.44 201.129 Q1659.44 205.782 1661.4 208.467 Q1663.39 211.129 1666.84 211.129 Q1670.25 211.129 1672.24 208.444 Q1674.23 205.758 1674.23 201.129 Q1674.23 196.522 1672.24 193.837 Q1670.25 191.129 1666.84 191.129 M1666.84 187.518 Q1672.4 187.518 1675.57 191.129 Q1678.74 194.74 1678.74 201.129 Q1678.74 207.495 1675.57 211.129 Q1672.4 214.74 1666.84 214.74 Q1661.26 214.74 1658.09 211.129 Q1654.95 207.495 1654.95 201.129 Q1654.95 194.74 1658.09 191.129 Q1661.26 187.518 1666.84 187.518 Z" fill="#000000" fill-rule="nonzero" fill-opacity="1" /><path clip-path="url(#clip450)" d="M1707.35 198.421 L1707.35 214.069 L1703.09 214.069 L1703.09 198.559 Q1703.09 194.879 1701.66 193.05 Q1700.22 191.222 1697.35 191.222 Q1693.9 191.222 1691.91 193.421 Q1689.92 195.62 1689.92 199.416 L1689.92 214.069 L1685.64 214.069 L1685.64 188.143 L1689.92 188.143 L1689.92 192.171 Q1691.45 189.833 1693.51 188.675 Q1695.59 187.518 1698.3 187.518 Q1702.77 187.518 1705.06 190.296 Q1707.35 193.05 1707.35 198.421 Z" fill="#000000" fill-rule="nonzero" fill-opacity="1" /><path clip-path="url(#clip450)" d="M1751.1 193.12 Q1752.7 190.249 1754.92 188.884 Q1757.14 187.518 1760.15 187.518 Q1764.2 187.518 1766.4 190.365 Q1768.6 193.189 1768.6 198.421 L1768.6 214.069 L1764.32 214.069 L1764.32 198.559 Q1764.32 194.833 1763 193.027 Q1761.68 191.222 1758.97 191.222 Q1755.66 191.222 1753.74 193.421 Q1751.82 195.62 1751.82 199.416 L1751.82 214.069 L1747.54 214.069 L1747.54 198.559 Q1747.54 194.809 1746.22 193.027 Q1744.9 191.222 1742.14 191.222 Q1738.88 191.222 1736.96 193.444 Q1735.04 195.643 1735.04 199.416 L1735.04 214.069 L1730.76 214.069 L1730.76 188.143 L1735.04 188.143 L1735.04 192.171 Q1736.5 189.786 1738.53 188.652 Q1740.57 187.518 1743.37 187.518 Q1746.2 187.518 1748.16 188.953 Q1750.15 190.388 1751.1 193.12 Z" fill="#000000" fill-rule="nonzero" fill-opacity="1" /><path clip-path="url(#clip450)" d="M1787.14 191.129 Q1783.72 191.129 1781.73 193.814 Q1779.74 196.476 1779.74 201.129 Q1779.74 205.782 1781.7 208.467 Q1783.69 211.129 1787.14 211.129 Q1790.55 211.129 1792.54 208.444 Q1794.53 205.758 1794.53 201.129 Q1794.53 196.522 1792.54 193.837 Q1790.55 191.129 1787.14 191.129 M1787.14 187.518 Q1792.7 187.518 1795.87 191.129 Q1799.04 194.74 1799.04 201.129 Q1799.04 207.495 1795.87 211.129 Q1792.7 214.74 1787.14 214.74 Q1781.57 214.74 1778.39 211.129 Q1775.25 207.495 1775.25 201.129 Q1775.25 194.74 1778.39 191.129 Q1781.57 187.518 1787.14 187.518 Z" fill="#000000" fill-rule="nonzero" fill-opacity="1" /><path clip-path="url(#clip450)" d="M1823.16 192.078 L1823.16 178.05 L1827.42 178.05 L1827.42 214.069 L1823.16 214.069 L1823.16 210.18 Q1821.82 212.495 1819.76 213.629 Q1817.72 214.74 1814.85 214.74 Q1810.15 214.74 1807.19 210.99 Q1804.25 207.24 1804.25 201.129 Q1804.25 195.018 1807.19 191.268 Q1810.15 187.518 1814.85 187.518 Q1817.72 187.518 1819.76 188.652 Q1821.82 189.763 1823.16 192.078 M1808.65 201.129 Q1808.65 205.828 1810.57 208.513 Q1812.51 211.175 1815.89 211.175 Q1819.27 211.175 1821.22 208.513 Q1823.16 205.828 1823.16 201.129 Q1823.16 196.43 1821.22 193.768 Q1819.27 191.083 1815.89 191.083 Q1812.51 191.083 1810.57 193.768 Q1808.65 196.43 1808.65 201.129 Z" fill="#000000" fill-rule="nonzero" fill-opacity="1" /><path clip-path="url(#clip450)" d="M1858.37 200.041 L1858.37 202.124 L1838.79 202.124 Q1839.06 206.522 1841.43 208.837 Q1843.81 211.129 1848.05 211.129 Q1850.5 211.129 1852.79 210.527 Q1855.11 209.925 1857.37 208.721 L1857.37 212.749 Q1855.08 213.721 1852.68 214.231 Q1850.27 214.74 1847.79 214.74 Q1841.59 214.74 1837.95 211.129 Q1834.34 207.518 1834.34 201.36 Q1834.34 194.995 1837.77 191.268 Q1841.22 187.518 1847.05 187.518 Q1852.28 187.518 1855.31 190.897 Q1858.37 194.254 1858.37 200.041 M1854.11 198.791 Q1854.06 195.296 1852.14 193.212 Q1850.25 191.129 1847.1 191.129 Q1843.53 191.129 1841.38 193.143 Q1839.25 195.157 1838.93 198.814 L1854.11 198.791 Z" fill="#000000" fill-rule="nonzero" fill-opacity="1" /><path clip-path="url(#clip450)" d="M1865.36 178.05 L1869.62 178.05 L1869.62 214.069 L1865.36 214.069 L1865.36 178.05 Z" fill="#000000" fill-rule="nonzero" fill-opacity="1" /><path clip-path="url(#clip450)" d="M1910.13 188.907 L1910.13 192.934 Q1908.32 192.009 1906.38 191.546 Q1904.43 191.083 1902.35 191.083 Q1899.18 191.083 1897.58 192.055 Q1896.01 193.027 1896.01 194.971 Q1896.01 196.453 1897.14 197.309 Q1898.28 198.143 1901.7 198.907 L1903.16 199.231 Q1907.7 200.203 1909.6 201.985 Q1911.52 203.745 1911.52 206.916 Q1911.52 210.527 1908.65 212.633 Q1905.8 214.74 1900.8 214.74 Q1898.72 214.74 1896.45 214.323 Q1894.2 213.93 1891.7 213.12 L1891.7 208.721 Q1894.06 209.948 1896.36 210.573 Q1898.65 211.175 1900.89 211.175 Q1903.9 211.175 1905.52 210.157 Q1907.14 209.115 1907.14 207.24 Q1907.14 205.504 1905.96 204.578 Q1904.81 203.652 1900.85 202.796 L1899.37 202.448 Q1895.41 201.615 1893.65 199.902 Q1891.89 198.166 1891.89 195.157 Q1891.89 191.499 1894.48 189.509 Q1897.07 187.518 1901.84 187.518 Q1904.2 187.518 1906.29 187.865 Q1908.37 188.212 1910.13 188.907 Z" fill="#000000" fill-rule="nonzero" fill-opacity="1" /><path clip-path="url(#clip450)" d="M1918.3 188.143 L1922.56 188.143 L1922.56 214.069 L1918.3 214.069 L1918.3 188.143 M1918.3 178.05 L1922.56 178.05 L1922.56 183.444 L1918.3 183.444 L1918.3 178.05 Z" fill="#000000" fill-rule="nonzero" fill-opacity="1" /><path clip-path="url(#clip450)" d="M1951.66 193.12 Q1953.25 190.249 1955.48 188.884 Q1957.7 187.518 1960.71 187.518 Q1964.76 187.518 1966.96 190.365 Q1969.16 193.189 1969.16 198.421 L1969.16 214.069 L1964.87 214.069 L1964.87 198.559 Q1964.87 194.833 1963.55 193.027 Q1962.24 191.222 1959.53 191.222 Q1956.22 191.222 1954.3 193.421 Q1952.37 195.62 1952.37 199.416 L1952.37 214.069 L1948.09 214.069 L1948.09 198.559 Q1948.09 194.809 1946.77 193.027 Q1945.45 191.222 1942.7 191.222 Q1939.43 191.222 1937.51 193.444 Q1935.59 195.643 1935.59 199.416 L1935.59 214.069 L1931.31 214.069 L1931.31 188.143 L1935.59 188.143 L1935.59 192.171 Q1937.05 189.786 1939.09 188.652 Q1941.12 187.518 1943.93 187.518 Q1946.75 187.518 1948.72 188.953 Q1950.71 190.388 1951.66 193.12 Z" fill="#000000" fill-rule="nonzero" fill-opacity="1" /><path clip-path="url(#clip450)" d="M2005.85 178.05 L2005.85 181.592 L2001.77 181.592 Q1999.48 181.592 1998.58 182.518 Q1997.7 183.444 1997.7 185.851 L1997.7 188.143 L2004.71 188.143 L2004.71 191.453 L1997.7 191.453 L1997.7 214.069 L1993.42 214.069 L1993.42 191.453 L1989.34 191.453 L1989.34 188.143 L1993.42 188.143 L1993.42 186.337 Q1993.42 182.009 1995.43 180.041 Q1997.44 178.05 2001.82 178.05 L2005.85 178.05 Z" fill="#000000" fill-rule="nonzero" fill-opacity="1" /><path clip-path="url(#clip450)" d="M2009.41 188.143 L2013.67 188.143 L2013.67 214.069 L2009.41 214.069 L2009.41 188.143 M2009.41 178.05 L2013.67 178.05 L2013.67 183.444 L2009.41 183.444 L2009.41 178.05 Z" fill="#000000" fill-rule="nonzero" fill-opacity="1" /><path clip-path="url(#clip450)" d="M2026.8 180.782 L2026.8 188.143 L2035.57 188.143 L2035.57 191.453 L2026.8 191.453 L2026.8 205.527 Q2026.8 208.698 2027.65 209.601 Q2028.53 210.504 2031.19 210.504 L2035.57 210.504 L2035.57 214.069 L2031.19 214.069 Q2026.26 214.069 2024.39 212.24 Q2022.51 210.388 2022.51 205.527 L2022.51 191.453 L2019.39 191.453 L2019.39 188.143 L2022.51 188.143 L2022.51 180.782 L2026.8 180.782 Z" fill="#000000" fill-rule="nonzero" fill-opacity="1" /><path clip-path="url(#clip450)" d="M2072.4 208.189 L2077.28 208.189 L2077.28 214.069 L2072.4 214.069 L2072.4 208.189 M2072.4 189.555 L2077.28 189.555 L2077.28 195.434 L2072.4 195.434 L2072.4 189.555 Z" fill="#000000" fill-rule="nonzero" fill-opacity="1" /><path clip-path="url(#clip450)" d="M2086.7 179.509 L2108.92 179.509 L2108.92 181.499 L2096.38 214.069 L2091.49 214.069 L2103.3 183.444 L2086.7 183.444 L2086.7 179.509 Z" fill="#000000" fill-rule="nonzero" fill-opacity="1" /><path clip-path="url(#clip450)" d="M2128.04 182.587 Q2124.43 182.587 2122.61 186.152 Q2120.8 189.694 2120.8 196.823 Q2120.8 203.93 2122.61 207.495 Q2124.43 211.036 2128.04 211.036 Q2131.68 211.036 2133.48 207.495 Q2135.31 203.93 2135.31 196.823 Q2135.31 189.694 2133.48 186.152 Q2131.68 182.587 2128.04 182.587 M2128.04 178.884 Q2133.85 178.884 2136.91 183.49 Q2139.99 188.073 2139.99 196.823 Q2139.99 205.55 2136.91 210.157 Q2133.85 214.74 2128.04 214.74 Q2122.23 214.74 2119.16 210.157 Q2116.1 205.55 2116.1 196.823 Q2116.1 188.073 2119.16 183.49 Q2122.23 178.884 2128.04 178.884 Z" fill="#000000" fill-rule="nonzero" fill-opacity="1" /><path clip-path="url(#clip450)" d="M2148.21 208.189 L2153.09 208.189 L2153.09 214.069 L2148.21 214.069 L2148.21 208.189 Z" fill="#000000" fill-rule="nonzero" fill-opacity="1" /><path clip-path="url(#clip450)" d="M2163.42 213.351 L2163.42 209.092 Q2165.17 209.925 2166.98 210.365 Q2168.79 210.805 2170.52 210.805 Q2175.15 210.805 2177.58 207.703 Q2180.04 204.578 2180.38 198.235 Q2179.04 200.226 2176.98 201.291 Q2174.92 202.356 2172.42 202.356 Q2167.23 202.356 2164.2 199.231 Q2161.19 196.083 2161.19 190.643 Q2161.19 185.319 2164.34 182.101 Q2167.49 178.884 2172.72 178.884 Q2178.72 178.884 2181.86 183.49 Q2185.04 188.073 2185.04 196.823 Q2185.04 204.995 2181.15 209.879 Q2177.28 214.74 2170.73 214.74 Q2168.97 214.74 2167.17 214.393 Q2165.36 214.045 2163.42 213.351 M2172.72 198.698 Q2175.87 198.698 2177.7 196.546 Q2179.55 194.393 2179.55 190.643 Q2179.55 186.916 2177.7 184.763 Q2175.87 182.587 2172.72 182.587 Q2169.57 182.587 2167.72 184.763 Q2165.89 186.916 2165.89 190.643 Q2165.89 194.393 2167.72 196.546 Q2169.57 198.698 2172.72 198.698 Z" fill="#000000" fill-rule="nonzero" fill-opacity="1" /><path clip-path="url(#clip450)" d="M2192.26 179.509 L2214.48 179.509 L2214.48 181.499 L2201.93 214.069 L2197.05 214.069 L2208.85 183.444 L2192.26 183.444 L2192.26 179.509 Z" fill="#000000" fill-rule="nonzero" fill-opacity="1" /><path clip-path="url(#clip450)" d="M2253 198.86 Q2250.98 198.86 2249.83 200.573 Q2248.69 202.286 2248.69 205.342 Q2248.69 208.351 2249.83 210.087 Q2250.98 211.8 2253 211.8 Q2254.97 211.8 2256.1 210.087 Q2257.26 208.351 2257.26 205.342 Q2257.26 202.309 2256.1 200.596 Q2254.97 198.86 2253 198.86 M2253 195.921 Q2256.66 195.921 2258.81 198.467 Q2260.96 201.013 2260.96 205.342 Q2260.96 209.67 2258.78 212.217 Q2256.63 214.74 2253 214.74 Q2249.29 214.74 2247.14 212.217 Q2244.99 209.67 2244.99 205.342 Q2244.99 200.99 2247.14 198.467 Q2249.32 195.921 2253 195.921 M2229.11 181.823 Q2227.12 181.823 2225.96 183.56 Q2224.83 185.272 2224.83 188.282 Q2224.83 191.337 2225.96 193.05 Q2227.1 194.763 2229.11 194.763 Q2231.12 194.763 2232.26 193.05 Q2233.41 191.337 2233.41 188.282 Q2233.41 185.296 2232.26 183.56 Q2231.1 181.823 2229.11 181.823 M2250.01 178.884 L2253.72 178.884 L2232.1 214.74 L2228.39 214.74 L2250.01 178.884 M2229.11 178.884 Q2232.77 178.884 2234.94 181.43 Q2237.12 183.953 2237.12 188.282 Q2237.12 192.657 2234.94 195.18 Q2232.79 197.703 2229.11 197.703 Q2225.43 197.703 2223.28 195.18 Q2221.15 192.634 2221.15 188.282 Q2221.15 183.976 2223.3 181.43 Q2225.45 178.884 2229.11 178.884 Z" fill="#000000" fill-rule="nonzero" fill-opacity="1" /><polyline clip-path="url(#clip450)" style="stroke:#3da44d; stroke-linecap:round; stroke-linejoin:round; stroke-width:4; stroke-opacity:1; fill:none" points="1301.34,248.629 1439.03,248.629 "/>
<path clip-path="url(#clip450)" d="M1466.66 235.191 L1466.66 248.177 L1472.54 248.177 Q1475.8 248.177 1477.59 246.487 Q1479.37 244.798 1479.37 241.673 Q1479.37 238.571 1477.59 236.881 Q1475.8 235.191 1472.54 235.191 L1466.66 235.191 M1461.98 231.349 L1472.54 231.349 Q1478.35 231.349 1481.31 233.987 Q1484.3 236.603 1484.3 241.673 Q1484.3 246.788 1481.31 249.404 Q1478.35 252.02 1472.54 252.02 L1466.66 252.02 L1466.66 265.909 L1461.98 265.909 L1461.98 231.349 Z" fill="#000000" fill-rule="nonzero" fill-opacity="1" /><path clip-path="url(#clip450)" d="M1504.58 243.964 Q1503.86 243.548 1503 243.362 Q1502.17 243.154 1501.15 243.154 Q1497.54 243.154 1495.59 245.515 Q1493.67 247.853 1493.67 252.251 L1493.67 265.909 L1489.39 265.909 L1489.39 239.983 L1493.67 239.983 L1493.67 244.011 Q1495.02 241.649 1497.17 240.515 Q1499.32 239.358 1502.4 239.358 Q1502.84 239.358 1503.37 239.427 Q1503.9 239.474 1504.55 239.589 L1504.58 243.964 Z" fill="#000000" fill-rule="nonzero" fill-opacity="1" /><path clip-path="url(#clip450)" d="M1530.18 251.881 L1530.18 253.964 L1510.59 253.964 Q1510.87 258.362 1513.23 260.677 Q1515.62 262.969 1519.85 262.969 Q1522.31 262.969 1524.6 262.367 Q1526.91 261.765 1529.18 260.561 L1529.18 264.589 Q1526.89 265.561 1524.48 266.071 Q1522.08 266.58 1519.6 266.58 Q1513.4 266.58 1509.76 262.969 Q1506.15 259.358 1506.15 253.2 Q1506.15 246.835 1509.58 243.108 Q1513.02 239.358 1518.86 239.358 Q1524.09 239.358 1527.12 242.737 Q1530.18 246.094 1530.18 251.881 M1525.92 250.631 Q1525.87 247.136 1523.95 245.052 Q1522.05 242.969 1518.9 242.969 Q1515.34 242.969 1513.19 244.983 Q1511.06 246.997 1510.73 250.654 L1525.92 250.631 Z" fill="#000000" fill-rule="nonzero" fill-opacity="1" /><path clip-path="url(#clip450)" d="M1554.23 243.918 L1554.23 229.89 L1558.49 229.89 L1558.49 265.909 L1554.23 265.909 L1554.23 262.02 Q1552.89 264.335 1550.83 265.469 Q1548.79 266.58 1545.92 266.58 Q1541.22 266.58 1538.26 262.83 Q1535.32 259.08 1535.32 252.969 Q1535.32 246.858 1538.26 243.108 Q1541.22 239.358 1545.92 239.358 Q1548.79 239.358 1550.83 240.492 Q1552.89 241.603 1554.23 243.918 M1539.71 252.969 Q1539.71 257.668 1541.64 260.353 Q1543.58 263.015 1546.96 263.015 Q1550.34 263.015 1552.28 260.353 Q1554.23 257.668 1554.23 252.969 Q1554.23 248.27 1552.28 245.608 Q1550.34 242.923 1546.96 242.923 Q1543.58 242.923 1541.64 245.608 Q1539.71 248.27 1539.71 252.969 Z" fill="#000000" fill-rule="nonzero" fill-opacity="1" /><path clip-path="url(#clip450)" d="M1567.26 239.983 L1571.52 239.983 L1571.52 265.909 L1567.26 265.909 L1567.26 239.983 M1567.26 229.89 L1571.52 229.89 L1571.52 235.284 L1567.26 235.284 L1567.26 229.89 Z" fill="#000000" fill-rule="nonzero" fill-opacity="1" /><path clip-path="url(#clip450)" d="M1599.09 240.978 L1599.09 244.96 Q1597.28 243.964 1595.46 243.478 Q1593.65 242.969 1591.8 242.969 Q1587.65 242.969 1585.36 245.608 Q1583.07 248.224 1583.07 252.969 Q1583.07 257.714 1585.36 260.353 Q1587.65 262.969 1591.8 262.969 Q1593.65 262.969 1595.46 262.483 Q1597.28 261.973 1599.09 260.978 L1599.09 264.913 Q1597.31 265.747 1595.39 266.163 Q1593.49 266.58 1591.33 266.58 Q1585.48 266.58 1582.03 262.899 Q1578.58 259.219 1578.58 252.969 Q1578.58 246.626 1582.05 242.992 Q1585.55 239.358 1591.61 239.358 Q1593.58 239.358 1595.46 239.775 Q1597.33 240.168 1599.09 240.978 Z" fill="#000000" fill-rule="nonzero" fill-opacity="1" /><path clip-path="url(#clip450)" d="M1610.71 232.622 L1610.71 239.983 L1619.48 239.983 L1619.48 243.293 L1610.71 243.293 L1610.71 257.367 Q1610.71 260.538 1611.57 261.441 Q1612.45 262.344 1615.11 262.344 L1619.48 262.344 L1619.48 265.909 L1615.11 265.909 Q1610.18 265.909 1608.3 264.08 Q1606.43 262.228 1606.43 257.367 L1606.43 243.293 L1603.3 243.293 L1603.3 239.983 L1606.43 239.983 L1606.43 232.622 L1610.71 232.622 Z" fill="#000000" fill-rule="nonzero" fill-opacity="1" /><path clip-path="url(#clip450)" d="M1625.08 239.983 L1629.34 239.983 L1629.34 265.909 L1625.08 265.909 L1625.08 239.983 M1625.08 229.89 L1629.34 229.89 L1629.34 235.284 L1625.08 235.284 L1625.08 229.89 Z" fill="#000000" fill-rule="nonzero" fill-opacity="1" /><path clip-path="url(#clip450)" d="M1648.3 242.969 Q1644.88 242.969 1642.89 245.654 Q1640.89 248.316 1640.89 252.969 Q1640.89 257.622 1642.86 260.307 Q1644.85 262.969 1648.3 262.969 Q1651.7 262.969 1653.7 260.284 Q1655.69 257.598 1655.69 252.969 Q1655.69 248.362 1653.7 245.677 Q1651.7 242.969 1648.3 242.969 M1648.3 239.358 Q1653.86 239.358 1657.03 242.969 Q1660.2 246.58 1660.2 252.969 Q1660.2 259.335 1657.03 262.969 Q1653.86 266.58 1648.3 266.58 Q1642.72 266.58 1639.55 262.969 Q1636.4 259.335 1636.4 252.969 Q1636.4 246.58 1639.55 242.969 Q1642.72 239.358 1648.3 239.358 Z" fill="#000000" fill-rule="nonzero" fill-opacity="1" /><path clip-path="url(#clip450)" d="M1688.81 250.261 L1688.81 265.909 L1684.55 265.909 L1684.55 250.399 Q1684.55 246.719 1683.12 244.89 Q1681.68 243.062 1678.81 243.062 Q1675.36 243.062 1673.37 245.261 Q1671.38 247.46 1671.38 251.256 L1671.38 265.909 L1667.1 265.909 L1667.1 239.983 L1671.38 239.983 L1671.38 244.011 Q1672.91 241.673 1674.97 240.515 Q1677.05 239.358 1679.76 239.358 Q1684.23 239.358 1686.52 242.136 Q1688.81 244.89 1688.81 250.261 Z" fill="#000000" fill-rule="nonzero" fill-opacity="1" /><path clip-path="url(#clip450)" d="M1732.56 244.96 Q1734.16 242.089 1736.38 240.724 Q1738.6 239.358 1741.61 239.358 Q1745.66 239.358 1747.86 242.205 Q1750.06 245.029 1750.06 250.261 L1750.06 265.909 L1745.78 265.909 L1745.78 250.399 Q1745.78 246.673 1744.46 244.867 Q1743.14 243.062 1740.43 243.062 Q1737.12 243.062 1735.2 245.261 Q1733.28 247.46 1733.28 251.256 L1733.28 265.909 L1729 265.909 L1729 250.399 Q1729 246.649 1727.68 244.867 Q1726.36 243.062 1723.6 243.062 Q1720.34 243.062 1718.42 245.284 Q1716.5 247.483 1716.5 251.256 L1716.5 265.909 L1712.21 265.909 L1712.21 239.983 L1716.5 239.983 L1716.5 244.011 Q1717.95 241.626 1719.99 240.492 Q1722.03 239.358 1724.83 239.358 Q1727.65 239.358 1729.62 240.793 Q1731.61 242.228 1732.56 244.96 Z" fill="#000000" fill-rule="nonzero" fill-opacity="1" /><path clip-path="url(#clip450)" d="M1768.6 242.969 Q1765.18 242.969 1763.19 245.654 Q1761.19 248.316 1761.19 252.969 Q1761.19 257.622 1763.16 260.307 Q1765.15 262.969 1768.6 262.969 Q1772.01 262.969 1774 260.284 Q1775.99 257.598 1775.99 252.969 Q1775.99 248.362 1774 245.677 Q1772.01 242.969 1768.6 242.969 M1768.6 239.358 Q1774.16 239.358 1777.33 242.969 Q1780.5 246.58 1780.5 252.969 Q1780.5 259.335 1777.33 262.969 Q1774.16 266.58 1768.6 266.58 Q1763.02 266.58 1759.85 262.969 Q1756.7 259.335 1756.7 252.969 Q1756.7 246.58 1759.85 242.969 Q1763.02 239.358 1768.6 239.358 Z" fill="#000000" fill-rule="nonzero" fill-opacity="1" /><path clip-path="url(#clip450)" d="M1804.62 243.918 L1804.62 229.89 L1808.88 229.89 L1808.88 265.909 L1804.62 265.909 L1804.62 262.02 Q1803.28 264.335 1801.22 265.469 Q1799.18 266.58 1796.31 266.58 Q1791.61 266.58 1788.65 262.83 Q1785.71 259.08 1785.71 252.969 Q1785.71 246.858 1788.65 243.108 Q1791.61 239.358 1796.31 239.358 Q1799.18 239.358 1801.22 240.492 Q1803.28 241.603 1804.62 243.918 M1790.11 252.969 Q1790.11 257.668 1792.03 260.353 Q1793.97 263.015 1797.35 263.015 Q1800.73 263.015 1802.68 260.353 Q1804.62 257.668 1804.62 252.969 Q1804.62 248.27 1802.68 245.608 Q1800.73 242.923 1797.35 242.923 Q1793.97 242.923 1792.03 245.608 Q1790.11 248.27 1790.11 252.969 Z" fill="#000000" fill-rule="nonzero" fill-opacity="1" /><path clip-path="url(#clip450)" d="M1839.83 251.881 L1839.83 253.964 L1820.25 253.964 Q1820.52 258.362 1822.88 260.677 Q1825.27 262.969 1829.5 262.969 Q1831.96 262.969 1834.25 262.367 Q1836.56 261.765 1838.83 260.561 L1838.83 264.589 Q1836.54 265.561 1834.13 266.071 Q1831.73 266.58 1829.25 266.58 Q1823.05 266.58 1819.41 262.969 Q1815.8 259.358 1815.8 253.2 Q1815.8 246.835 1819.23 243.108 Q1822.68 239.358 1828.51 239.358 Q1833.74 239.358 1836.77 242.737 Q1839.83 246.094 1839.83 251.881 M1835.57 250.631 Q1835.52 247.136 1833.6 245.052 Q1831.7 242.969 1828.56 242.969 Q1824.99 242.969 1822.84 244.983 Q1820.71 246.997 1820.38 250.654 L1835.57 250.631 Z" fill="#000000" fill-rule="nonzero" fill-opacity="1" /><path clip-path="url(#clip450)" d="M1846.82 229.89 L1851.08 229.89 L1851.08 265.909 L1846.82 265.909 L1846.82 229.89 Z" fill="#000000" fill-rule="nonzero" fill-opacity="1" /><path clip-path="url(#clip450)" d="M1891.59 240.747 L1891.59 244.774 Q1889.78 243.849 1887.84 243.386 Q1885.89 242.923 1883.81 242.923 Q1880.64 242.923 1879.04 243.895 Q1877.47 244.867 1877.47 246.811 Q1877.47 248.293 1878.6 249.149 Q1879.74 249.983 1883.16 250.747 L1884.62 251.071 Q1889.16 252.043 1891.06 253.825 Q1892.98 255.585 1892.98 258.756 Q1892.98 262.367 1890.11 264.473 Q1887.26 266.58 1882.26 266.58 Q1880.18 266.58 1877.91 266.163 Q1875.66 265.77 1873.16 264.96 L1873.16 260.561 Q1875.52 261.788 1877.81 262.413 Q1880.11 263.015 1882.35 263.015 Q1885.36 263.015 1886.98 261.997 Q1888.6 260.955 1888.6 259.08 Q1888.6 257.344 1887.42 256.418 Q1886.26 255.492 1882.31 254.636 L1880.82 254.288 Q1876.87 253.455 1875.11 251.742 Q1873.35 250.006 1873.35 246.997 Q1873.35 243.339 1875.94 241.349 Q1878.53 239.358 1883.3 239.358 Q1885.66 239.358 1887.75 239.705 Q1889.83 240.052 1891.59 240.747 Z" fill="#000000" fill-rule="nonzero" fill-opacity="1" /><path clip-path="url(#clip450)" d="M1899.76 239.983 L1904.02 239.983 L1904.02 265.909 L1899.76 265.909 L1899.76 239.983 M1899.76 229.89 L1904.02 229.89 L1904.02 235.284 L1899.76 235.284 L1899.76 229.89 Z" fill="#000000" fill-rule="nonzero" fill-opacity="1" /><path clip-path="url(#clip450)" d="M1933.12 244.96 Q1934.71 242.089 1936.93 240.724 Q1939.16 239.358 1942.17 239.358 Q1946.22 239.358 1948.42 242.205 Q1950.62 245.029 1950.62 250.261 L1950.62 265.909 L1946.33 265.909 L1946.33 250.399 Q1946.33 246.673 1945.01 244.867 Q1943.69 243.062 1940.99 243.062 Q1937.68 243.062 1935.75 245.261 Q1933.83 247.46 1933.83 251.256 L1933.83 265.909 L1929.55 265.909 L1929.55 250.399 Q1929.55 246.649 1928.23 244.867 Q1926.91 243.062 1924.16 243.062 Q1920.89 243.062 1918.97 245.284 Q1917.05 247.483 1917.05 251.256 L1917.05 265.909 L1912.77 265.909 L1912.77 239.983 L1917.05 239.983 L1917.05 244.011 Q1918.51 241.626 1920.55 240.492 Q1922.58 239.358 1925.38 239.358 Q1928.21 239.358 1930.18 240.793 Q1932.17 242.228 1933.12 244.96 Z" fill="#000000" fill-rule="nonzero" fill-opacity="1" /><path clip-path="url(#clip450)" d="M1987.3 229.89 L1987.3 233.432 L1983.23 233.432 Q1980.94 233.432 1980.04 234.358 Q1979.16 235.284 1979.16 237.691 L1979.16 239.983 L1986.17 239.983 L1986.17 243.293 L1979.16 243.293 L1979.16 265.909 L1974.87 265.909 L1974.87 243.293 L1970.8 243.293 L1970.8 239.983 L1974.87 239.983 L1974.87 238.177 Q1974.87 233.849 1976.89 231.881 Q1978.9 229.89 1983.28 229.89 L1987.3 229.89 Z" fill="#000000" fill-rule="nonzero" fill-opacity="1" /><path clip-path="url(#clip450)" d="M1990.87 239.983 L1995.13 239.983 L1995.13 265.909 L1990.87 265.909 L1990.87 239.983 M1990.87 229.89 L1995.13 229.89 L1995.13 235.284 L1990.87 235.284 L1990.87 229.89 Z" fill="#000000" fill-rule="nonzero" fill-opacity="1" /><path clip-path="url(#clip450)" d="M2008.25 232.622 L2008.25 239.983 L2017.03 239.983 L2017.03 243.293 L2008.25 243.293 L2008.25 257.367 Q2008.25 260.538 2009.11 261.441 Q2009.99 262.344 2012.65 262.344 L2017.03 262.344 L2017.03 265.909 L2012.65 265.909 Q2007.72 265.909 2005.85 264.08 Q2003.97 262.228 2003.97 257.367 L2003.97 243.293 L2000.85 243.293 L2000.85 239.983 L2003.97 239.983 L2003.97 232.622 L2008.25 232.622 Z" fill="#000000" fill-rule="nonzero" fill-opacity="1" /><path clip-path="url(#clip450)" d="M2053.86 260.029 L2058.74 260.029 L2058.74 265.909 L2053.86 265.909 L2053.86 260.029 M2053.86 241.395 L2058.74 241.395 L2058.74 247.274 L2053.86 247.274 L2053.86 241.395 Z" fill="#000000" fill-rule="nonzero" fill-opacity="1" /><path clip-path="url(#clip450)" d="M2079.92 246.765 Q2076.77 246.765 2074.92 248.918 Q2073.09 251.071 2073.09 254.821 Q2073.09 258.548 2074.92 260.723 Q2076.77 262.876 2079.92 262.876 Q2083.07 262.876 2084.9 260.723 Q2086.75 258.548 2086.75 254.821 Q2086.75 251.071 2084.9 248.918 Q2083.07 246.765 2079.92 246.765 M2089.2 232.113 L2089.2 236.372 Q2087.44 235.538 2085.64 235.099 Q2083.86 234.659 2082.1 234.659 Q2077.47 234.659 2075.01 237.784 Q2072.58 240.909 2072.23 247.228 Q2073.6 245.214 2075.66 244.149 Q2077.72 243.062 2080.2 243.062 Q2085.41 243.062 2088.42 246.233 Q2091.45 249.381 2091.45 254.821 Q2091.45 260.145 2088.3 263.362 Q2085.15 266.58 2079.92 266.58 Q2073.92 266.58 2070.75 261.997 Q2067.58 257.39 2067.58 248.663 Q2067.58 240.469 2071.47 235.608 Q2075.36 230.724 2081.91 230.724 Q2083.67 230.724 2085.45 231.071 Q2087.26 231.418 2089.2 232.113 Z" fill="#000000" fill-rule="nonzero" fill-opacity="1" /><path clip-path="url(#clip450)" d="M2099.64 265.191 L2099.64 260.932 Q2101.4 261.765 2103.21 262.205 Q2105.01 262.645 2106.75 262.645 Q2111.38 262.645 2113.81 259.543 Q2116.26 256.418 2116.61 250.075 Q2115.27 252.066 2113.21 253.131 Q2111.15 254.196 2108.65 254.196 Q2103.46 254.196 2100.43 251.071 Q2097.42 247.923 2097.42 242.483 Q2097.42 237.159 2100.57 233.941 Q2103.72 230.724 2108.95 230.724 Q2114.94 230.724 2118.09 235.33 Q2121.26 239.913 2121.26 248.663 Q2121.26 256.835 2117.37 261.719 Q2113.51 266.58 2106.96 266.58 Q2105.2 266.58 2103.39 266.233 Q2101.59 265.885 2099.64 265.191 M2108.95 250.538 Q2112.1 250.538 2113.92 248.386 Q2115.78 246.233 2115.78 242.483 Q2115.78 238.756 2113.92 236.603 Q2112.1 234.427 2108.95 234.427 Q2105.8 234.427 2103.95 236.603 Q2102.12 238.756 2102.12 242.483 Q2102.12 246.233 2103.95 248.386 Q2105.8 250.538 2108.95 250.538 Z" fill="#000000" fill-rule="nonzero" fill-opacity="1" /><path clip-path="url(#clip450)" d="M2129.67 260.029 L2134.55 260.029 L2134.55 265.909 L2129.67 265.909 L2129.67 260.029 Z" fill="#000000" fill-rule="nonzero" fill-opacity="1" /><path clip-path="url(#clip450)" d="M2155.31 246.765 Q2152.17 246.765 2150.31 248.918 Q2148.48 251.071 2148.48 254.821 Q2148.48 258.548 2150.31 260.723 Q2152.17 262.876 2155.31 262.876 Q2158.46 262.876 2160.29 260.723 Q2162.14 258.548 2162.14 254.821 Q2162.14 251.071 2160.29 248.918 Q2158.46 246.765 2155.31 246.765 M2164.6 232.113 L2164.6 236.372 Q2162.84 235.538 2161.03 235.099 Q2159.25 234.659 2157.49 234.659 Q2152.86 234.659 2150.41 237.784 Q2147.98 240.909 2147.63 247.228 Q2148.99 245.214 2151.05 244.149 Q2153.11 243.062 2155.59 243.062 Q2160.8 243.062 2163.81 246.233 Q2166.84 249.381 2166.84 254.821 Q2166.84 260.145 2163.69 263.362 Q2160.54 266.58 2155.31 266.58 Q2149.32 266.58 2146.15 261.997 Q2142.98 257.39 2142.98 248.663 Q2142.98 240.469 2146.86 235.608 Q2150.75 230.724 2157.3 230.724 Q2159.06 230.724 2160.85 231.071 Q2162.65 231.418 2164.6 232.113 Z" fill="#000000" fill-rule="nonzero" fill-opacity="1" /><path clip-path="url(#clip450)" d="M2173.72 231.349 L2195.94 231.349 L2195.94 233.339 L2183.39 265.909 L2178.51 265.909 L2190.31 235.284 L2173.72 235.284 L2173.72 231.349 Z" fill="#000000" fill-rule="nonzero" fill-opacity="1" /><path clip-path="url(#clip450)" d="M2234.46 250.7 Q2232.44 250.7 2231.29 252.413 Q2230.15 254.126 2230.15 257.182 Q2230.15 260.191 2231.29 261.927 Q2232.44 263.64 2234.46 263.64 Q2236.42 263.64 2237.56 261.927 Q2238.72 260.191 2238.72 257.182 Q2238.72 254.149 2237.56 252.436 Q2236.42 250.7 2234.46 250.7 M2234.46 247.761 Q2238.11 247.761 2240.27 250.307 Q2242.42 252.853 2242.42 257.182 Q2242.42 261.51 2240.24 264.057 Q2238.09 266.58 2234.46 266.58 Q2230.75 266.58 2228.6 264.057 Q2226.45 261.51 2226.45 257.182 Q2226.45 252.83 2228.6 250.307 Q2230.78 247.761 2234.46 247.761 M2210.57 233.663 Q2208.58 233.663 2207.42 235.4 Q2206.29 237.112 2206.29 240.122 Q2206.29 243.177 2207.42 244.89 Q2208.55 246.603 2210.57 246.603 Q2212.58 246.603 2213.72 244.89 Q2214.87 243.177 2214.87 240.122 Q2214.87 237.136 2213.72 235.4 Q2212.56 233.663 2210.57 233.663 M2231.47 230.724 L2235.17 230.724 L2213.55 266.58 L2209.85 266.58 L2231.47 230.724 M2210.57 230.724 Q2214.22 230.724 2216.4 233.27 Q2218.58 235.793 2218.58 240.122 Q2218.58 244.497 2216.4 247.02 Q2214.25 249.543 2210.57 249.543 Q2206.89 249.543 2204.73 247.02 Q2202.6 244.474 2202.6 240.122 Q2202.6 235.816 2204.76 233.27 Q2206.91 230.724 2210.57 230.724 Z" fill="#000000" fill-rule="nonzero" fill-opacity="1" /></svg>
