<?xml version="1.0" encoding="utf-8"?>
<svg xmlns="http://www.w3.org/2000/svg" xmlns:xlink="http://www.w3.org/1999/xlink" width="600" height="400" viewBox="0 0 2400 1600">
<defs>
  <clipPath id="clip200">
    <rect x="0" y="0" width="2400" height="1600"/>
  </clipPath>
</defs>
<path clip-path="url(#clip200)" d="M0 1600 L2400 1600 L2400 0 L0 0  Z" fill="#ffffff" fill-rule="evenodd" fill-opacity="1"/>
<defs>
  <clipPath id="clip201">
    <rect x="224" y="123" width="2130" height="1301"/>
  </clipPath>
</defs>
<path clip-path="url(#clip200)" d="M224.098 1423.18 L2352.76 1423.18 L2352.76 123.472 L224.098 123.472  Z" fill="#ffffff" fill-rule="evenodd" fill-opacity="1"/>
<polyline clip-path="url(#clip201)" style="stroke:#000000; stroke-linecap:round; stroke-linejoin:round; stroke-width:2; stroke-opacity:0.1; fill:none" points="552.099,1423.18 552.099,123.472 "/>
<polyline clip-path="url(#clip201)" style="stroke:#000000; stroke-linecap:round; stroke-linejoin:round; stroke-width:2; stroke-opacity:0.1; fill:none" points="953.732,1423.18 953.732,123.472 "/>
<polyline clip-path="url(#clip201)" style="stroke:#000000; stroke-linecap:round; stroke-linejoin:round; stroke-width:2; stroke-opacity:0.1; fill:none" points="1355.37,1423.18 1355.37,123.472 "/>
<polyline clip-path="url(#clip201)" style="stroke:#000000; stroke-linecap:round; stroke-linejoin:round; stroke-width:2; stroke-opacity:0.1; fill:none" points="1757,1423.18 1757,123.472 "/>
<polyline clip-path="url(#clip201)" style="stroke:#000000; stroke-linecap:round; stroke-linejoin:round; stroke-width:2; stroke-opacity:0.1; fill:none" points="2158.63,1423.18 2158.63,123.472 "/>
<polyline clip-path="url(#clip201)" style="stroke:#000000; stroke-linecap:round; stroke-linejoin:round; stroke-width:2; stroke-opacity:0.1; fill:none" points="224.098,1375.35 2352.76,1375.35 "/>
<polyline clip-path="url(#clip201)" style="stroke:#000000; stroke-linecap:round; stroke-linejoin:round; stroke-width:2; stroke-opacity:0.1; fill:none" points="224.098,1104.47 2352.76,1104.47 "/>
<polyline clip-path="url(#clip201)" style="stroke:#000000; stroke-linecap:round; stroke-linejoin:round; stroke-width:2; stroke-opacity:0.1; fill:none" points="224.098,833.585 2352.76,833.585 "/>
<polyline clip-path="url(#clip201)" style="stroke:#000000; stroke-linecap:round; stroke-linejoin:round; stroke-width:2; stroke-opacity:0.1; fill:none" points="224.098,562.702 2352.76,562.702 "/>
<polyline clip-path="url(#clip201)" style="stroke:#000000; stroke-linecap:round; stroke-linejoin:round; stroke-width:2; stroke-opacity:0.1; fill:none" points="224.098,291.818 2352.76,291.818 "/>
<polyline clip-path="url(#clip200)" style="stroke:#000000; stroke-linecap:round; stroke-linejoin:round; stroke-width:4; stroke-opacity:1; fill:none" points="224.098,833.585 2352.76,833.585 "/>
<polyline clip-path="url(#clip200)" style="stroke:#000000; stroke-linecap:round; stroke-linejoin:round; stroke-width:4; stroke-opacity:0; fill:none" points="552.099,833.585 552.099,833.585 "/>
<polyline clip-path="url(#clip200)" style="stroke:#000000; stroke-linecap:round; stroke-linejoin:round; stroke-width:4; stroke-opacity:0; fill:none" points="953.732,833.585 953.732,833.585 "/>
<polyline clip-path="url(#clip200)" style="stroke:#000000; stroke-linecap:round; stroke-linejoin:round; stroke-width:4; stroke-opacity:0; fill:none" points="1355.37,833.585 1355.37,833.585 "/>
<polyline clip-path="url(#clip200)" style="stroke:#000000; stroke-linecap:round; stroke-linejoin:round; stroke-width:4; stroke-opacity:0; fill:none" points="1757,833.585 1757,833.585 "/>
<polyline clip-path="url(#clip200)" style="stroke:#000000; stroke-linecap:round; stroke-linejoin:round; stroke-width:4; stroke-opacity:0; fill:none" points="2158.63,833.585 2158.63,833.585 "/>
<path clip-path="url(#clip200)" d="M521.566 1468.75 L551.242 1468.75 L551.242 1472.69 L521.566 1472.69 L521.566 1468.75 Z" fill="#000000" fill-rule="nonzero" fill-opacity="1" /><path clip-path="url(#clip200)" d="M575.501 1466.95 Q578.858 1467.66 580.733 1469.93 Q582.631 1472.2 582.631 1475.53 Q582.631 1480.65 579.112 1483.45 Q575.594 1486.25 569.112 1486.25 Q566.937 1486.25 564.622 1485.81 Q562.33 1485.39 559.876 1484.54 L559.876 1480.02 Q561.821 1481.16 564.136 1481.74 Q566.45 1482.32 568.974 1482.32 Q573.372 1482.32 575.663 1480.58 Q577.978 1478.84 577.978 1475.53 Q577.978 1472.48 575.825 1470.77 Q573.696 1469.03 569.876 1469.03 L565.849 1469.03 L565.849 1465.19 L570.062 1465.19 Q573.511 1465.19 575.339 1463.82 Q577.168 1462.43 577.168 1459.84 Q577.168 1457.18 575.27 1455.77 Q573.395 1454.33 569.876 1454.33 Q567.955 1454.33 565.756 1454.75 Q563.557 1455.16 560.918 1456.04 L560.918 1451.88 Q563.58 1451.14 565.895 1450.77 Q568.233 1450.39 570.293 1450.39 Q575.617 1450.39 578.719 1452.83 Q581.821 1455.23 581.821 1459.35 Q581.821 1462.22 580.177 1464.21 Q578.534 1466.18 575.501 1466.95 Z" fill="#000000" fill-rule="nonzero" fill-opacity="1" /><path clip-path="url(#clip200)" d="M953.732 1454.1 Q950.121 1454.1 948.292 1457.66 Q946.487 1461.2 946.487 1468.33 Q946.487 1475.44 948.292 1479.01 Q950.121 1482.55 953.732 1482.55 Q957.366 1482.55 959.172 1479.01 Q961.001 1475.44 961.001 1468.33 Q961.001 1461.2 959.172 1457.66 Q957.366 1454.1 953.732 1454.1 M953.732 1450.39 Q959.542 1450.39 962.598 1455 Q965.677 1459.58 965.677 1468.33 Q965.677 1477.06 962.598 1481.67 Q959.542 1486.25 953.732 1486.25 Q947.922 1486.25 944.843 1481.67 Q941.788 1477.06 941.788 1468.33 Q941.788 1459.58 944.843 1455 Q947.922 1450.39 953.732 1450.39 Z" fill="#000000" fill-rule="nonzero" fill-opacity="1" /><path clip-path="url(#clip200)" d="M1359.61 1466.95 Q1362.97 1467.66 1364.84 1469.93 Q1366.74 1472.2 1366.74 1475.53 Q1366.74 1480.65 1363.22 1483.45 Q1359.71 1486.25 1353.22 1486.25 Q1351.05 1486.25 1348.73 1485.81 Q1346.44 1485.39 1343.99 1484.54 L1343.99 1480.02 Q1345.93 1481.16 1348.25 1481.74 Q1350.56 1482.32 1353.09 1482.32 Q1357.48 1482.32 1359.78 1480.58 Q1362.09 1478.84 1362.09 1475.53 Q1362.09 1472.48 1359.94 1470.77 Q1357.81 1469.03 1353.99 1469.03 L1349.96 1469.03 L1349.96 1465.19 L1354.17 1465.19 Q1357.62 1465.19 1359.45 1463.82 Q1361.28 1462.43 1361.28 1459.84 Q1361.28 1457.18 1359.38 1455.77 Q1357.51 1454.33 1353.99 1454.33 Q1352.07 1454.33 1349.87 1454.75 Q1347.67 1455.16 1345.03 1456.04 L1345.03 1451.88 Q1347.69 1451.14 1350.01 1450.77 Q1352.35 1450.39 1354.41 1450.39 Q1359.73 1450.39 1362.83 1452.83 Q1365.93 1455.23 1365.93 1459.35 Q1365.93 1462.22 1364.29 1464.21 Q1362.65 1466.18 1359.61 1466.95 Z" fill="#000000" fill-rule="nonzero" fill-opacity="1" /><path clip-path="url(#clip200)" d="M1757.4 1466.44 Q1754.26 1466.44 1752.4 1468.59 Q1750.58 1470.74 1750.58 1474.49 Q1750.58 1478.22 1752.4 1480.39 Q1754.26 1482.55 1757.4 1482.55 Q1760.55 1482.55 1762.38 1480.39 Q1764.23 1478.22 1764.23 1474.49 Q1764.23 1470.74 1762.38 1468.59 Q1760.55 1466.44 1757.4 1466.44 M1766.69 1451.78 L1766.69 1456.04 Q1764.93 1455.21 1763.12 1454.77 Q1761.34 1454.33 1759.58 1454.33 Q1754.95 1454.33 1752.5 1457.45 Q1750.07 1460.58 1749.72 1466.9 Q1751.09 1464.89 1753.15 1463.82 Q1755.21 1462.73 1757.68 1462.73 Q1762.89 1462.73 1765.9 1465.9 Q1768.93 1469.05 1768.93 1474.49 Q1768.93 1479.82 1765.78 1483.03 Q1762.64 1486.25 1757.4 1486.25 Q1751.41 1486.25 1748.24 1481.67 Q1745.07 1477.06 1745.07 1468.33 Q1745.07 1460.14 1748.96 1455.28 Q1752.84 1450.39 1759.4 1450.39 Q1761.15 1450.39 1762.94 1450.74 Q1764.74 1451.09 1766.69 1451.78 Z" fill="#000000" fill-rule="nonzero" fill-opacity="1" /><path clip-path="url(#clip200)" d="M2148.93 1484.86 L2148.93 1480.6 Q2150.69 1481.44 2152.5 1481.88 Q2154.3 1482.32 2156.04 1482.32 Q2160.67 1482.32 2163.1 1479.21 Q2165.55 1476.09 2165.9 1469.75 Q2164.56 1471.74 2162.5 1472.8 Q2160.44 1473.87 2157.94 1473.87 Q2152.75 1473.87 2149.72 1470.74 Q2146.71 1467.59 2146.71 1462.15 Q2146.71 1456.83 2149.86 1453.61 Q2153.01 1450.39 2158.24 1450.39 Q2164.23 1450.39 2167.38 1455 Q2170.55 1459.58 2170.55 1468.33 Q2170.55 1476.51 2166.67 1481.39 Q2162.8 1486.25 2156.25 1486.25 Q2154.49 1486.25 2152.68 1485.9 Q2150.88 1485.56 2148.93 1484.86 M2158.24 1470.21 Q2161.39 1470.21 2163.22 1468.06 Q2165.07 1465.9 2165.07 1462.15 Q2165.07 1458.43 2163.22 1456.27 Q2161.39 1454.1 2158.24 1454.1 Q2155.09 1454.1 2153.24 1456.27 Q2151.41 1458.43 2151.41 1462.15 Q2151.41 1465.9 2153.24 1468.06 Q2155.09 1470.21 2158.24 1470.21 Z" fill="#000000" fill-rule="nonzero" fill-opacity="1" /><path clip-path="url(#clip200)" d="M1182.84 1520.52 L1189.27 1520.52 L1189.27 1562.63 L1212.4 1562.63 L1212.4 1568.04 L1182.84 1568.04 L1182.84 1520.52 Z" fill="#000000" fill-rule="nonzero" fill-opacity="1" /><path clip-path="url(#clip200)" d="M1235.1 1550.12 Q1228 1550.12 1225.26 1551.75 Q1222.53 1553.37 1222.53 1557.29 Q1222.53 1560.4 1224.56 1562.25 Q1226.63 1564.07 1230.16 1564.07 Q1235.03 1564.07 1237.96 1560.63 Q1240.92 1557.16 1240.92 1551.43 L1240.92 1550.12 L1235.1 1550.12 M1246.78 1547.71 L1246.78 1568.04 L1240.92 1568.04 L1240.92 1562.63 Q1238.92 1565.88 1235.93 1567.44 Q1232.93 1568.97 1228.61 1568.97 Q1223.13 1568.97 1219.88 1565.91 Q1216.67 1562.82 1216.67 1557.67 Q1216.67 1551.65 1220.68 1548.6 Q1224.72 1545.54 1232.71 1545.54 L1240.92 1545.54 L1240.92 1544.97 Q1240.92 1540.93 1238.25 1538.73 Q1235.61 1536.5 1230.8 1536.5 Q1227.75 1536.5 1224.85 1537.23 Q1221.95 1537.97 1219.28 1539.43 L1219.28 1534.02 Q1222.49 1532.78 1225.52 1532.17 Q1228.54 1531.54 1231.41 1531.54 Q1239.14 1531.54 1242.96 1535.55 Q1246.78 1539.56 1246.78 1547.71 Z" fill="#000000" fill-rule="nonzero" fill-opacity="1" /><path clip-path="url(#clip200)" d="M1282.3 1549.81 Q1282.3 1543.44 1279.66 1539.94 Q1277.05 1536.44 1272.31 1536.44 Q1267.6 1536.44 1264.95 1539.94 Q1262.34 1543.44 1262.34 1549.81 Q1262.34 1556.14 1264.95 1559.64 Q1267.6 1563.14 1272.31 1563.14 Q1277.05 1563.14 1279.66 1559.64 Q1282.3 1556.14 1282.3 1549.81 M1288.16 1563.62 Q1288.16 1572.72 1284.11 1577.15 Q1280.07 1581.6 1271.73 1581.6 Q1268.65 1581.6 1265.91 1581.13 Q1263.17 1580.68 1260.59 1579.72 L1260.59 1574.03 Q1263.17 1575.43 1265.69 1576.1 Q1268.2 1576.76 1270.81 1576.76 Q1276.57 1576.76 1279.44 1573.74 Q1282.3 1570.75 1282.3 1564.67 L1282.3 1561.77 Q1280.49 1564.92 1277.65 1566.48 Q1274.82 1568.04 1270.87 1568.04 Q1264.32 1568.04 1260.31 1563.05 Q1256.3 1558.05 1256.3 1549.81 Q1256.3 1541.53 1260.31 1536.53 Q1264.32 1531.54 1270.87 1531.54 Q1274.82 1531.54 1277.65 1533.1 Q1280.49 1534.66 1282.3 1537.81 L1282.3 1532.4 L1288.16 1532.4 L1288.16 1563.62 Z" fill="#000000" fill-rule="nonzero" fill-opacity="1" /><path clip-path="url(#clip200)" d="M1320.4 1518.52 L1333.89 1518.52 L1333.89 1523.07 L1326.26 1523.07 L1326.26 1572.09 L1333.89 1572.09 L1333.89 1576.64 L1320.4 1576.64 L1320.4 1518.52 Z" fill="#000000" fill-rule="nonzero" fill-opacity="1" /><path clip-path="url(#clip200)" d="M1369.1 1533.45 L1369.1 1538.98 Q1366.61 1537.71 1363.94 1537.07 Q1361.27 1536.44 1358.4 1536.44 Q1354.04 1536.44 1351.85 1537.77 Q1349.68 1539.11 1349.68 1541.79 Q1349.68 1543.82 1351.24 1545 Q1352.8 1546.15 1357.51 1547.2 L1359.52 1547.64 Q1365.75 1548.98 1368.36 1551.43 Q1371.01 1553.85 1371.01 1558.21 Q1371.01 1563.17 1367.06 1566.07 Q1363.14 1568.97 1356.27 1568.97 Q1353.4 1568.97 1350.29 1568.39 Q1347.2 1567.85 1343.76 1566.74 L1343.76 1560.69 Q1347.01 1562.38 1350.16 1563.24 Q1353.31 1564.07 1356.4 1564.07 Q1360.53 1564.07 1362.76 1562.66 Q1364.99 1561.23 1364.99 1558.65 Q1364.99 1556.27 1363.37 1554.99 Q1361.78 1553.72 1356.33 1552.54 L1354.3 1552.07 Q1348.85 1550.92 1346.43 1548.56 Q1344.02 1546.18 1344.02 1542.04 Q1344.02 1537.01 1347.58 1534.27 Q1351.15 1531.54 1357.7 1531.54 Q1360.95 1531.54 1363.81 1532.01 Q1366.68 1532.49 1369.1 1533.45 Z" fill="#000000" fill-rule="nonzero" fill-opacity="1" /><path clip-path="url(#clip200)" d="M1394.02 1518.52 L1394.02 1576.64 L1380.52 1576.64 L1380.52 1572.09 L1388.13 1572.09 L1388.13 1523.07 L1380.52 1523.07 L1380.52 1518.52 L1394.02 1518.52 Z" fill="#000000" fill-rule="nonzero" fill-opacity="1" /><polyline clip-path="url(#clip200)" style="stroke:#000000; stroke-linecap:round; stroke-linejoin:round; stroke-width:4; stroke-opacity:1; fill:none" points="953.732,1423.18 953.732,123.472 "/>
<polyline clip-path="url(#clip200)" style="stroke:#000000; stroke-linecap:round; stroke-linejoin:round; stroke-width:4; stroke-opacity:0; fill:none" points="953.732,1375.35 953.732,1375.35 "/>
<polyline clip-path="url(#clip200)" style="stroke:#000000; stroke-linecap:round; stroke-linejoin:round; stroke-width:4; stroke-opacity:0; fill:none" points="953.732,1104.47 953.732,1104.47 "/>
<polyline clip-path="url(#clip200)" style="stroke:#000000; stroke-linecap:round; stroke-linejoin:round; stroke-width:4; stroke-opacity:0; fill:none" points="953.732,833.585 953.732,833.585 "/>
<polyline clip-path="url(#clip200)" style="stroke:#000000; stroke-linecap:round; stroke-linejoin:round; stroke-width:4; stroke-opacity:0; fill:none" points="953.732,562.702 953.732,562.702 "/>
<polyline clip-path="url(#clip200)" style="stroke:#000000; stroke-linecap:round; stroke-linejoin:round; stroke-width:4; stroke-opacity:0; fill:none" points="953.732,291.818 953.732,291.818 "/>
<path clip-path="url(#clip200)" d="M50.9921 1375.8 L80.6679 1375.8 L80.6679 1379.74 L50.9921 1379.74 L50.9921 1375.8 Z" fill="#000000" fill-rule="nonzero" fill-opacity="1" /><path clip-path="url(#clip200)" d="M100.76 1361.15 Q97.1493 1361.15 95.3206 1364.72 Q93.515 1368.26 93.515 1375.39 Q93.515 1382.49 95.3206 1386.06 Q97.1493 1389.6 100.76 1389.6 Q104.395 1389.6 106.2 1386.06 Q108.029 1382.49 108.029 1375.39 Q108.029 1368.26 106.2 1364.72 Q104.395 1361.15 100.76 1361.15 M100.76 1357.45 Q106.571 1357.45 109.626 1362.05 Q112.705 1366.64 112.705 1375.39 Q112.705 1384.11 109.626 1388.72 Q106.571 1393.3 100.76 1393.3 Q94.9502 1393.3 91.8715 1388.72 Q88.816 1384.11 88.816 1375.39 Q88.816 1366.64 91.8715 1362.05 Q94.9502 1357.45 100.76 1357.45 Z" fill="#000000" fill-rule="nonzero" fill-opacity="1" /><path clip-path="url(#clip200)" d="M120.922 1386.75 L125.807 1386.75 L125.807 1392.63 L120.922 1392.63 L120.922 1386.75 Z" fill="#000000" fill-rule="nonzero" fill-opacity="1" /><path clip-path="url(#clip200)" d="M136.038 1358.07 L154.394 1358.07 L154.394 1362.01 L140.32 1362.01 L140.32 1370.48 Q141.339 1370.13 142.357 1369.97 Q143.376 1369.78 144.394 1369.78 Q150.181 1369.78 153.561 1372.96 Q156.941 1376.13 156.941 1381.54 Q156.941 1387.12 153.468 1390.22 Q149.996 1393.3 143.677 1393.3 Q141.501 1393.3 139.232 1392.93 Q136.987 1392.56 134.58 1391.82 L134.58 1387.12 Q136.663 1388.26 138.885 1388.81 Q141.107 1389.37 143.584 1389.37 Q147.589 1389.37 149.927 1387.26 Q152.265 1385.16 152.265 1381.54 Q152.265 1377.93 149.927 1375.83 Q147.589 1373.72 143.584 1373.72 Q141.709 1373.72 139.834 1374.14 Q137.982 1374.55 136.038 1375.43 L136.038 1358.07 Z" fill="#000000" fill-rule="nonzero" fill-opacity="1" /><path clip-path="url(#clip200)" d="M176.153 1361.15 Q172.542 1361.15 170.714 1364.72 Q168.908 1368.26 168.908 1375.39 Q168.908 1382.49 170.714 1386.06 Q172.542 1389.6 176.153 1389.6 Q179.788 1389.6 181.593 1386.06 Q183.422 1382.49 183.422 1375.39 Q183.422 1368.26 181.593 1364.72 Q179.788 1361.15 176.153 1361.15 M176.153 1357.45 Q181.964 1357.45 185.019 1362.05 Q188.098 1366.64 188.098 1375.39 Q188.098 1384.11 185.019 1388.72 Q181.964 1393.3 176.153 1393.3 Q170.343 1393.3 167.265 1388.72 Q164.209 1384.11 164.209 1375.39 Q164.209 1366.64 167.265 1362.05 Q170.343 1357.45 176.153 1357.45 Z" fill="#000000" fill-rule="nonzero" fill-opacity="1" /><path clip-path="url(#clip200)" d="M51.9875 1104.92 L81.6633 1104.92 L81.6633 1108.86 L51.9875 1108.86 L51.9875 1104.92 Z" fill="#000000" fill-rule="nonzero" fill-opacity="1" /><path clip-path="url(#clip200)" d="M101.756 1090.27 Q98.1447 1090.27 96.316 1093.83 Q94.5104 1097.37 94.5104 1104.5 Q94.5104 1111.61 96.316 1115.17 Q98.1447 1118.72 101.756 1118.72 Q105.39 1118.72 107.196 1115.17 Q109.024 1111.61 109.024 1104.5 Q109.024 1097.37 107.196 1093.83 Q105.39 1090.27 101.756 1090.27 M101.756 1086.56 Q107.566 1086.56 110.621 1091.17 Q113.7 1095.75 113.7 1104.5 Q113.7 1113.23 110.621 1117.84 Q107.566 1122.42 101.756 1122.42 Q95.9456 1122.42 92.8669 1117.84 Q89.8114 1113.23 89.8114 1104.5 Q89.8114 1095.75 92.8669 1091.17 Q95.9456 1086.56 101.756 1086.56 Z" fill="#000000" fill-rule="nonzero" fill-opacity="1" /><path clip-path="url(#clip200)" d="M121.918 1115.87 L126.802 1115.87 L126.802 1121.75 L121.918 1121.75 L121.918 1115.87 Z" fill="#000000" fill-rule="nonzero" fill-opacity="1" /><path clip-path="url(#clip200)" d="M141.015 1117.81 L157.334 1117.81 L157.334 1121.75 L135.39 1121.75 L135.39 1117.81 Q138.052 1115.06 142.635 1110.43 Q147.242 1105.78 148.422 1104.43 Q150.668 1101.91 151.547 1100.17 Q152.45 1098.42 152.45 1096.73 Q152.45 1093.97 150.505 1092.23 Q148.584 1090.5 145.482 1090.5 Q143.283 1090.5 140.83 1091.26 Q138.399 1092.03 135.621 1093.58 L135.621 1088.86 Q138.445 1087.72 140.899 1087.14 Q143.353 1086.56 145.39 1086.56 Q150.76 1086.56 153.955 1089.25 Q157.149 1091.93 157.149 1096.42 Q157.149 1098.55 156.339 1100.48 Q155.552 1102.37 153.445 1104.97 Q152.867 1105.64 149.765 1108.86 Q146.663 1112.05 141.015 1117.81 Z" fill="#000000" fill-rule="nonzero" fill-opacity="1" /><path clip-path="url(#clip200)" d="M167.195 1087.19 L185.552 1087.19 L185.552 1091.12 L171.478 1091.12 L171.478 1099.6 Q172.496 1099.25 173.515 1099.09 Q174.533 1098.9 175.552 1098.9 Q181.339 1098.9 184.718 1102.07 Q188.098 1105.24 188.098 1110.66 Q188.098 1116.24 184.626 1119.34 Q181.153 1122.42 174.834 1122.42 Q172.658 1122.42 170.39 1122.05 Q168.144 1121.68 165.737 1120.94 L165.737 1116.24 Q167.82 1117.37 170.042 1117.93 Q172.265 1118.48 174.741 1118.48 Q178.746 1118.48 181.084 1116.38 Q183.422 1114.27 183.422 1110.66 Q183.422 1107.05 181.084 1104.94 Q178.746 1102.84 174.741 1102.84 Q172.866 1102.84 170.991 1103.25 Q169.14 1103.67 167.195 1104.55 L167.195 1087.19 Z" fill="#000000" fill-rule="nonzero" fill-opacity="1" /><path clip-path="url(#clip200)" d="M100.76 819.384 Q97.1493 819.384 95.3206 822.949 Q93.515 826.49 93.515 833.62 Q93.515 840.726 95.3206 844.291 Q97.1493 847.833 100.76 847.833 Q104.395 847.833 106.2 844.291 Q108.029 840.726 108.029 833.62 Q108.029 826.49 106.2 822.949 Q104.395 819.384 100.76 819.384 M100.76 815.68 Q106.571 815.68 109.626 820.287 Q112.705 824.87 112.705 833.62 Q112.705 842.347 109.626 846.953 Q106.571 851.537 100.76 851.537 Q94.9502 851.537 91.8715 846.953 Q88.816 842.347 88.816 833.62 Q88.816 824.87 91.8715 820.287 Q94.9502 815.68 100.76 815.68 Z" fill="#000000" fill-rule="nonzero" fill-opacity="1" /><path clip-path="url(#clip200)" d="M120.922 844.986 L125.807 844.986 L125.807 850.865 L120.922 850.865 L120.922 844.986 Z" fill="#000000" fill-rule="nonzero" fill-opacity="1" /><path clip-path="url(#clip200)" d="M145.992 819.384 Q142.381 819.384 140.552 822.949 Q138.746 826.49 138.746 833.62 Q138.746 840.726 140.552 844.291 Q142.381 847.833 145.992 847.833 Q149.626 847.833 151.431 844.291 Q153.26 840.726 153.26 833.62 Q153.26 826.49 151.431 822.949 Q149.626 819.384 145.992 819.384 M145.992 815.68 Q151.802 815.68 154.857 820.287 Q157.936 824.87 157.936 833.62 Q157.936 842.347 154.857 846.953 Q151.802 851.537 145.992 851.537 Q140.181 851.537 137.103 846.953 Q134.047 842.347 134.047 833.62 Q134.047 824.87 137.103 820.287 Q140.181 815.68 145.992 815.68 Z" fill="#000000" fill-rule="nonzero" fill-opacity="1" /><path clip-path="url(#clip200)" d="M176.153 819.384 Q172.542 819.384 170.714 822.949 Q168.908 826.49 168.908 833.62 Q168.908 840.726 170.714 844.291 Q172.542 847.833 176.153 847.833 Q179.788 847.833 181.593 844.291 Q183.422 840.726 183.422 833.62 Q183.422 826.49 181.593 822.949 Q179.788 819.384 176.153 819.384 M176.153 815.68 Q181.964 815.68 185.019 820.287 Q188.098 824.87 188.098 833.62 Q188.098 842.347 185.019 846.953 Q181.964 851.537 176.153 851.537 Q170.343 851.537 167.265 846.953 Q164.209 842.347 164.209 833.62 Q164.209 824.87 167.265 820.287 Q170.343 815.68 176.153 815.68 Z" fill="#000000" fill-rule="nonzero" fill-opacity="1" /><path clip-path="url(#clip200)" d="M101.756 548.501 Q98.1447 548.501 96.316 552.065 Q94.5104 555.607 94.5104 562.737 Q94.5104 569.843 96.316 573.408 Q98.1447 576.949 101.756 576.949 Q105.39 576.949 107.196 573.408 Q109.024 569.843 109.024 562.737 Q109.024 555.607 107.196 552.065 Q105.39 548.501 101.756 548.501 M101.756 544.797 Q107.566 544.797 110.621 549.403 Q113.7 553.987 113.7 562.737 Q113.7 571.463 110.621 576.07 Q107.566 580.653 101.756 580.653 Q95.9456 580.653 92.8669 576.07 Q89.8114 571.463 89.8114 562.737 Q89.8114 553.987 92.8669 549.403 Q95.9456 544.797 101.756 544.797 Z" fill="#000000" fill-rule="nonzero" fill-opacity="1" /><path clip-path="url(#clip200)" d="M121.918 574.102 L126.802 574.102 L126.802 579.982 L121.918 579.982 L121.918 574.102 Z" fill="#000000" fill-rule="nonzero" fill-opacity="1" /><path clip-path="url(#clip200)" d="M141.015 576.047 L157.334 576.047 L157.334 579.982 L135.39 579.982 L135.39 576.047 Q138.052 573.292 142.635 568.662 Q147.242 564.01 148.422 562.667 Q150.668 560.144 151.547 558.408 Q152.45 556.649 152.45 554.959 Q152.45 552.204 150.505 550.468 Q148.584 548.732 145.482 548.732 Q143.283 548.732 140.83 549.496 Q138.399 550.26 135.621 551.811 L135.621 547.088 Q138.445 545.954 140.899 545.376 Q143.353 544.797 145.39 544.797 Q150.76 544.797 153.955 547.482 Q157.149 550.167 157.149 554.658 Q157.149 556.788 156.339 558.709 Q155.552 560.607 153.445 563.2 Q152.867 563.871 149.765 567.088 Q146.663 570.283 141.015 576.047 Z" fill="#000000" fill-rule="nonzero" fill-opacity="1" /><path clip-path="url(#clip200)" d="M167.195 545.422 L185.552 545.422 L185.552 549.357 L171.478 549.357 L171.478 557.829 Q172.496 557.482 173.515 557.32 Q174.533 557.135 175.552 557.135 Q181.339 557.135 184.718 560.306 Q188.098 563.477 188.098 568.894 Q188.098 574.473 184.626 577.574 Q181.153 580.653 174.834 580.653 Q172.658 580.653 170.39 580.283 Q168.144 579.912 165.737 579.172 L165.737 574.473 Q167.82 575.607 170.042 576.162 Q172.265 576.718 174.741 576.718 Q178.746 576.718 181.084 574.611 Q183.422 572.505 183.422 568.894 Q183.422 565.283 181.084 563.176 Q178.746 561.07 174.741 561.07 Q172.866 561.07 170.991 561.487 Q169.14 561.903 167.195 562.783 L167.195 545.422 Z" fill="#000000" fill-rule="nonzero" fill-opacity="1" /><path clip-path="url(#clip200)" d="M100.76 277.617 Q97.1493 277.617 95.3206 281.182 Q93.515 284.724 93.515 291.853 Q93.515 298.96 95.3206 302.524 Q97.1493 306.066 100.76 306.066 Q104.395 306.066 106.2 302.524 Q108.029 298.96 108.029 291.853 Q108.029 284.724 106.2 281.182 Q104.395 277.617 100.76 277.617 M100.76 273.913 Q106.571 273.913 109.626 278.52 Q112.705 283.103 112.705 291.853 Q112.705 300.58 109.626 305.186 Q106.571 309.77 100.76 309.77 Q94.9502 309.77 91.8715 305.186 Q88.816 300.58 88.816 291.853 Q88.816 283.103 91.8715 278.52 Q94.9502 273.913 100.76 273.913 Z" fill="#000000" fill-rule="nonzero" fill-opacity="1" /><path clip-path="url(#clip200)" d="M120.922 303.219 L125.807 303.219 L125.807 309.098 L120.922 309.098 L120.922 303.219 Z" fill="#000000" fill-rule="nonzero" fill-opacity="1" /><path clip-path="url(#clip200)" d="M136.038 274.538 L154.394 274.538 L154.394 278.474 L140.32 278.474 L140.32 286.946 Q141.339 286.599 142.357 286.437 Q143.376 286.251 144.394 286.251 Q150.181 286.251 153.561 289.423 Q156.941 292.594 156.941 298.011 Q156.941 303.589 153.468 306.691 Q149.996 309.77 143.677 309.77 Q141.501 309.77 139.232 309.399 Q136.987 309.029 134.58 308.288 L134.58 303.589 Q136.663 304.723 138.885 305.279 Q141.107 305.835 143.584 305.835 Q147.589 305.835 149.927 303.728 Q152.265 301.622 152.265 298.011 Q152.265 294.399 149.927 292.293 Q147.589 290.187 143.584 290.187 Q141.709 290.187 139.834 290.603 Q137.982 291.02 136.038 291.899 L136.038 274.538 Z" fill="#000000" fill-rule="nonzero" fill-opacity="1" /><path clip-path="url(#clip200)" d="M176.153 277.617 Q172.542 277.617 170.714 281.182 Q168.908 284.724 168.908 291.853 Q168.908 298.96 170.714 302.524 Q172.542 306.066 176.153 306.066 Q179.788 306.066 181.593 302.524 Q183.422 298.96 183.422 291.853 Q183.422 284.724 181.593 281.182 Q179.788 277.617 176.153 277.617 M176.153 273.913 Q181.964 273.913 185.019 278.52 Q188.098 283.103 188.098 291.853 Q188.098 300.58 185.019 305.186 Q181.964 309.77 176.153 309.77 Q170.343 309.77 167.265 305.186 Q164.209 300.58 164.209 291.853 Q164.209 283.103 167.265 278.52 Q170.343 273.913 176.153 273.913 Z" fill="#000000" fill-rule="nonzero" fill-opacity="1" /><path clip-path="url(#clip200)" d="M671.9 12.096 L680.082 12.096 L680.082 72.576 L671.9 72.576 L671.9 12.096 Z" fill="#000000" fill-rule="nonzero" fill-opacity="1" /><path clip-path="url(#clip200)" d="M733.757 45.1919 L733.757 72.576 L726.303 72.576 L726.303 45.4349 Q726.303 38.994 723.792 35.7938 Q721.28 32.5936 716.257 32.5936 Q710.221 32.5936 706.737 36.4419 Q703.254 40.2903 703.254 46.9338 L703.254 72.576 L695.759 72.576 L695.759 27.2059 L703.254 27.2059 L703.254 34.2544 Q705.927 30.163 709.532 28.1376 Q713.178 26.1121 717.918 26.1121 Q725.736 26.1121 729.746 30.9732 Q733.757 35.7938 733.757 45.1919 Z" fill="#000000" fill-rule="nonzero" fill-opacity="1" /><path clip-path="url(#clip200)" d="M755.834 65.7705 L755.834 89.8329 L748.34 89.8329 L748.34 27.2059 L755.834 27.2059 L755.834 34.0924 Q758.184 30.0415 761.749 28.0971 Q765.354 26.1121 770.336 26.1121 Q778.6 26.1121 783.745 32.6746 Q788.93 39.2371 788.93 49.9314 Q788.93 60.6258 783.745 67.1883 Q778.6 73.7508 770.336 73.7508 Q765.354 73.7508 761.749 71.8063 Q758.184 69.8214 755.834 65.7705 M781.193 49.9314 Q781.193 41.7081 777.79 37.0496 Q774.428 32.3505 768.514 32.3505 Q762.599 32.3505 759.197 37.0496 Q755.834 41.7081 755.834 49.9314 Q755.834 58.1548 759.197 62.8538 Q762.599 67.5124 768.514 67.5124 Q774.428 67.5124 777.79 62.8538 Q781.193 58.1548 781.193 49.9314 Z" fill="#000000" fill-rule="nonzero" fill-opacity="1" /><path clip-path="url(#clip200)" d="M800.516 54.671 L800.516 27.2059 L807.969 27.2059 L807.969 54.3874 Q807.969 60.8284 810.481 64.0691 Q812.993 67.2693 818.016 67.2693 Q824.051 67.2693 827.535 63.421 Q831.06 59.5726 831.06 52.9291 L831.06 27.2059 L838.513 27.2059 L838.513 72.576 L831.06 72.576 L831.06 65.6084 Q828.345 69.7404 824.74 71.7658 Q821.175 73.7508 816.436 73.7508 Q808.618 73.7508 804.567 68.8897 Q800.516 64.0286 800.516 54.671 M819.271 26.1121 L819.271 26.1121 Z" fill="#000000" fill-rule="nonzero" fill-opacity="1" /><path clip-path="url(#clip200)" d="M861.239 14.324 L861.239 27.2059 L876.592 27.2059 L876.592 32.9987 L861.239 32.9987 L861.239 57.6282 Q861.239 63.1779 862.738 64.7578 Q864.277 66.3376 868.936 66.3376 L876.592 66.3376 L876.592 72.576 L868.936 72.576 Q860.307 72.576 857.026 69.3758 Q853.745 66.1351 853.745 57.6282 L853.745 32.9987 L848.276 32.9987 L848.276 27.2059 L853.745 27.2059 L853.745 14.324 L861.239 14.324 Z" fill="#000000" fill-rule="nonzero" fill-opacity="1" /><path clip-path="url(#clip200)" d="M882.628 46.5287 L904.462 46.5287 L904.462 53.1722 L882.628 53.1722 L882.628 46.5287 Z" fill="#000000" fill-rule="nonzero" fill-opacity="1" /><path clip-path="url(#clip200)" d="M943.513 17.6457 Q934.601 17.6457 929.334 24.2892 Q924.109 30.9327 924.109 42.3968 Q924.109 53.8203 929.334 60.4638 Q934.601 67.1073 943.513 67.1073 Q952.425 67.1073 957.61 60.4638 Q962.835 53.8203 962.835 42.3968 Q962.835 30.9327 957.61 24.2892 Q952.425 17.6457 943.513 17.6457 M943.513 11.0023 Q956.232 11.0023 963.848 19.5497 Q971.464 28.0566 971.464 42.3968 Q971.464 56.6965 963.848 65.2439 Q956.232 73.7508 943.513 73.7508 Q930.752 73.7508 923.096 65.2439 Q915.48 56.737 915.48 42.3968 Q915.48 28.0566 923.096 19.5497 Q930.752 11.0023 943.513 11.0023 Z" fill="#000000" fill-rule="nonzero" fill-opacity="1" /><path clip-path="url(#clip200)" d="M983.171 54.671 L983.171 27.2059 L990.625 27.2059 L990.625 54.3874 Q990.625 60.8284 993.136 64.0691 Q995.648 67.2693 1000.67 67.2693 Q1006.71 67.2693 1010.19 63.421 Q1013.71 59.5726 1013.71 52.9291 L1013.71 27.2059 L1021.17 27.2059 L1021.17 72.576 L1013.71 72.576 L1013.71 65.6084 Q1011 69.7404 1007.4 71.7658 Q1003.83 73.7508 999.091 73.7508 Q991.273 73.7508 987.222 68.8897 Q983.171 64.0286 983.171 54.671 M1001.93 26.1121 L1001.93 26.1121 Z" fill="#000000" fill-rule="nonzero" fill-opacity="1" /><path clip-path="url(#clip200)" d="M1043.89 14.324 L1043.89 27.2059 L1059.25 27.2059 L1059.25 32.9987 L1043.89 32.9987 L1043.89 57.6282 Q1043.89 63.1779 1045.39 64.7578 Q1046.93 66.3376 1051.59 66.3376 L1059.25 66.3376 L1059.25 72.576 L1051.59 72.576 Q1042.96 72.576 1039.68 69.3758 Q1036.4 66.1351 1036.4 57.6282 L1036.4 32.9987 L1030.93 32.9987 L1030.93 27.2059 L1036.4 27.2059 L1036.4 14.324 L1043.89 14.324 Z" fill="#000000" fill-rule="nonzero" fill-opacity="1" /><path clip-path="url(#clip200)" d="M1076.26 65.7705 L1076.26 89.8329 L1068.77 89.8329 L1068.77 27.2059 L1076.26 27.2059 L1076.26 34.0924 Q1078.61 30.0415 1082.18 28.0971 Q1085.78 26.1121 1090.76 26.1121 Q1099.03 26.1121 1104.17 32.6746 Q1109.36 39.2371 1109.36 49.9314 Q1109.36 60.6258 1104.17 67.1883 Q1099.03 73.7508 1090.76 73.7508 Q1085.78 73.7508 1082.18 71.8063 Q1078.61 69.8214 1076.26 65.7705 M1101.62 49.9314 Q1101.62 41.7081 1098.22 37.0496 Q1094.85 32.3505 1088.94 32.3505 Q1083.03 32.3505 1079.62 37.0496 Q1076.26 41.7081 1076.26 49.9314 Q1076.26 58.1548 1079.62 62.8538 Q1083.03 67.5124 1088.94 67.5124 Q1094.85 67.5124 1098.22 62.8538 Q1101.62 58.1548 1101.62 49.9314 Z" fill="#000000" fill-rule="nonzero" fill-opacity="1" /><path clip-path="url(#clip200)" d="M1120.94 54.671 L1120.94 27.2059 L1128.4 27.2059 L1128.4 54.3874 Q1128.4 60.8284 1130.91 64.0691 Q1133.42 67.2693 1138.44 67.2693 Q1144.48 67.2693 1147.96 63.421 Q1151.49 59.5726 1151.49 52.9291 L1151.49 27.2059 L1158.94 27.2059 L1158.94 72.576 L1151.49 72.576 L1151.49 65.6084 Q1148.77 69.7404 1145.17 71.7658 Q1141.6 73.7508 1136.86 73.7508 Q1129.04 73.7508 1124.99 68.8897 Q1120.94 64.0286 1120.94 54.671 M1139.7 26.1121 L1139.7 26.1121 Z" fill="#000000" fill-rule="nonzero" fill-opacity="1" /><path clip-path="url(#clip200)" d="M1181.67 14.324 L1181.67 27.2059 L1197.02 27.2059 L1197.02 32.9987 L1181.67 32.9987 L1181.67 57.6282 Q1181.67 63.1779 1183.16 64.7578 Q1184.7 66.3376 1189.36 66.3376 L1197.02 66.3376 L1197.02 72.576 L1189.36 72.576 Q1180.73 72.576 1177.45 69.3758 Q1174.17 66.1351 1174.17 57.6282 L1174.17 32.9987 L1168.7 32.9987 L1168.7 27.2059 L1174.17 27.2059 L1174.17 14.324 L1181.67 14.324 Z" fill="#000000" fill-rule="nonzero" fill-opacity="1" /><path clip-path="url(#clip200)" d="M1265.84 28.9478 L1265.84 35.9153 Q1262.68 34.1734 1259.48 33.3227 Q1256.32 32.4315 1253.08 32.4315 Q1245.83 32.4315 1241.82 37.0496 Q1237.81 41.6271 1237.81 49.9314 Q1237.81 58.2358 1241.82 62.8538 Q1245.83 67.4314 1253.08 67.4314 Q1256.32 67.4314 1259.48 66.5807 Q1262.68 65.6895 1265.84 63.9476 L1265.84 70.8341 Q1262.72 72.2924 1259.36 73.0216 Q1256.04 73.7508 1252.27 73.7508 Q1242.02 73.7508 1235.99 67.3098 Q1229.95 60.8689 1229.95 49.9314 Q1229.95 38.832 1236.03 32.472 Q1242.15 26.1121 1252.76 26.1121 Q1256.2 26.1121 1259.48 26.8413 Q1262.76 27.5299 1265.84 28.9478 Z" fill="#000000" fill-rule="nonzero" fill-opacity="1" /><path clip-path="url(#clip200)" d="M1305.1 34.1734 Q1303.84 33.4443 1302.34 33.1202 Q1300.88 32.7556 1299.1 32.7556 Q1292.78 32.7556 1289.38 36.8875 Q1286.02 40.9789 1286.02 48.6757 L1286.02 72.576 L1278.52 72.576 L1278.52 27.2059 L1286.02 27.2059 L1286.02 34.2544 Q1288.37 30.1225 1292.13 28.1376 Q1295.9 26.1121 1301.29 26.1121 Q1302.06 26.1121 1302.99 26.2337 Q1303.92 26.3147 1305.06 26.5172 L1305.1 34.1734 Z" fill="#000000" fill-rule="nonzero" fill-opacity="1" /><path clip-path="url(#clip200)" d="M1328.67 32.4315 Q1322.68 32.4315 1319.19 37.1306 Q1315.71 41.7891 1315.71 49.9314 Q1315.71 58.0738 1319.15 62.7728 Q1322.64 67.4314 1328.67 67.4314 Q1334.63 67.4314 1338.11 62.7323 Q1341.6 58.0333 1341.6 49.9314 Q1341.6 41.8701 1338.11 37.1711 Q1334.63 32.4315 1328.67 32.4315 M1328.67 26.1121 Q1338.39 26.1121 1343.94 32.4315 Q1349.49 38.7509 1349.49 49.9314 Q1349.49 61.0714 1343.94 67.4314 Q1338.39 73.7508 1328.67 73.7508 Q1318.91 73.7508 1313.36 67.4314 Q1307.85 61.0714 1307.85 49.9314 Q1307.85 38.7509 1313.36 32.4315 Q1318.91 26.1121 1328.67 26.1121 Z" fill="#000000" fill-rule="nonzero" fill-opacity="1" /><path clip-path="url(#clip200)" d="M1390.77 28.5427 L1390.77 35.5912 Q1387.61 33.9709 1384.21 33.1607 Q1380.81 32.3505 1377.16 32.3505 Q1371.61 32.3505 1368.82 34.0519 Q1366.06 35.7533 1366.06 39.156 Q1366.06 41.7486 1368.05 43.2475 Q1370.03 44.7058 1376.03 46.0426 L1378.58 46.6097 Q1386.52 48.3111 1389.84 51.4303 Q1393.2 54.509 1393.2 60.0587 Q1393.2 66.3781 1388.18 70.0644 Q1383.2 73.7508 1374.45 73.7508 Q1370.8 73.7508 1366.83 73.0216 Q1362.9 72.3329 1358.53 70.9151 L1358.53 63.2184 Q1362.66 65.3654 1366.67 66.4591 Q1370.68 67.5124 1374.61 67.5124 Q1379.88 67.5124 1382.71 65.73 Q1385.55 63.9071 1385.55 60.6258 Q1385.55 57.5877 1383.48 55.9673 Q1381.46 54.3469 1374.53 52.8481 L1371.94 52.2405 Q1365.01 50.7821 1361.93 47.7845 Q1358.85 44.7463 1358.85 39.4801 Q1358.85 33.0797 1363.39 29.5959 Q1367.93 26.1121 1376.27 26.1121 Q1380.4 26.1121 1384.05 26.7198 Q1387.69 27.3274 1390.77 28.5427 Z" fill="#000000" fill-rule="nonzero" fill-opacity="1" /><path clip-path="url(#clip200)" d="M1434 28.5427 L1434 35.5912 Q1430.84 33.9709 1427.43 33.1607 Q1424.03 32.3505 1420.39 32.3505 Q1414.84 32.3505 1412.04 34.0519 Q1409.29 35.7533 1409.29 39.156 Q1409.29 41.7486 1411.27 43.2475 Q1413.26 44.7058 1419.25 46.0426 L1421.8 46.6097 Q1429.74 48.3111 1433.06 51.4303 Q1436.43 54.509 1436.43 60.0587 Q1436.43 66.3781 1431.4 70.0644 Q1426.42 73.7508 1417.67 73.7508 Q1414.03 73.7508 1410.06 73.0216 Q1406.13 72.3329 1401.75 70.9151 L1401.75 63.2184 Q1405.88 65.3654 1409.89 66.4591 Q1413.9 67.5124 1417.83 67.5124 Q1423.1 67.5124 1425.93 65.73 Q1428.77 63.9071 1428.77 60.6258 Q1428.77 57.5877 1426.7 55.9673 Q1424.68 54.3469 1417.75 52.8481 L1415.16 52.2405 Q1408.23 50.7821 1405.15 47.7845 Q1402.08 44.7463 1402.08 39.4801 Q1402.08 33.0797 1406.61 29.5959 Q1411.15 26.1121 1419.49 26.1121 Q1423.63 26.1121 1427.27 26.7198 Q1430.92 27.3274 1434 28.5427 Z" fill="#000000" fill-rule="nonzero" fill-opacity="1" /><path clip-path="url(#clip200)" d="M1507.32 28.9478 L1507.32 35.9153 Q1504.16 34.1734 1500.96 33.3227 Q1497.8 32.4315 1494.56 32.4315 Q1487.31 32.4315 1483.3 37.0496 Q1479.29 41.6271 1479.29 49.9314 Q1479.29 58.2358 1483.3 62.8538 Q1487.31 67.4314 1494.56 67.4314 Q1497.8 67.4314 1500.96 66.5807 Q1504.16 65.6895 1507.32 63.9476 L1507.32 70.8341 Q1504.2 72.2924 1500.84 73.0216 Q1497.51 73.7508 1493.75 73.7508 Q1483.5 73.7508 1477.46 67.3098 Q1471.43 60.8689 1471.43 49.9314 Q1471.43 38.832 1477.5 32.472 Q1483.62 26.1121 1494.23 26.1121 Q1497.68 26.1121 1500.96 26.8413 Q1504.24 27.5299 1507.32 28.9478 Z" fill="#000000" fill-rule="nonzero" fill-opacity="1" /><path clip-path="url(#clip200)" d="M1537.86 32.4315 Q1531.87 32.4315 1528.38 37.1306 Q1524.9 41.7891 1524.9 49.9314 Q1524.9 58.0738 1528.34 62.7728 Q1531.83 67.4314 1537.86 67.4314 Q1543.82 67.4314 1547.3 62.7323 Q1550.78 58.0333 1550.78 49.9314 Q1550.78 41.8701 1547.3 37.1711 Q1543.82 32.4315 1537.86 32.4315 M1537.86 26.1121 Q1547.58 26.1121 1553.13 32.4315 Q1558.68 38.7509 1558.68 49.9314 Q1558.68 61.0714 1553.13 67.4314 Q1547.58 73.7508 1537.86 73.7508 Q1528.1 73.7508 1522.55 67.4314 Q1517.04 61.0714 1517.04 49.9314 Q1517.04 38.7509 1522.55 32.4315 Q1528.1 26.1121 1537.86 26.1121 Z" fill="#000000" fill-rule="nonzero" fill-opacity="1" /><path clip-path="url(#clip200)" d="M1597.33 34.1734 Q1596.07 33.4443 1594.57 33.1202 Q1593.12 32.7556 1591.33 32.7556 Q1585.01 32.7556 1581.61 36.8875 Q1578.25 40.9789 1578.25 48.6757 L1578.25 72.576 L1570.75 72.576 L1570.75 27.2059 L1578.25 27.2059 L1578.25 34.2544 Q1580.6 30.1225 1584.37 28.1376 Q1588.13 26.1121 1593.52 26.1121 Q1594.29 26.1121 1595.22 26.2337 Q1596.15 26.3147 1597.29 26.5172 L1597.33 34.1734 Z" fill="#000000" fill-rule="nonzero" fill-opacity="1" /><path clip-path="url(#clip200)" d="M1629.98 34.1734 Q1628.72 33.4443 1627.22 33.1202 Q1625.77 32.7556 1623.98 32.7556 Q1617.66 32.7556 1614.26 36.8875 Q1610.9 40.9789 1610.9 48.6757 L1610.9 72.576 L1603.4 72.576 L1603.4 27.2059 L1610.9 27.2059 L1610.9 34.2544 Q1613.25 30.1225 1617.02 28.1376 Q1620.78 26.1121 1626.17 26.1121 Q1626.94 26.1121 1627.87 26.2337 Q1628.8 26.3147 1629.94 26.5172 L1629.98 34.1734 Z" fill="#000000" fill-rule="nonzero" fill-opacity="1" /><path clip-path="url(#clip200)" d="M1674.78 48.0275 L1674.78 51.6733 L1640.51 51.6733 Q1641 59.3701 1645.13 63.421 Q1649.3 67.4314 1656.71 67.4314 Q1661.01 67.4314 1665.02 66.3781 Q1669.07 65.3249 1673.04 63.2184 L1673.04 70.267 Q1669.03 71.9684 1664.82 72.8596 Q1660.6 73.7508 1656.27 73.7508 Q1645.41 73.7508 1639.05 67.4314 Q1632.73 61.1119 1632.73 50.3365 Q1632.73 39.1965 1638.73 32.6746 Q1644.76 26.1121 1654.97 26.1121 Q1664.13 26.1121 1669.43 32.0264 Q1674.78 37.9003 1674.78 48.0275 M1667.33 45.84 Q1667.25 39.7232 1663.88 36.0774 Q1660.56 32.4315 1655.05 32.4315 Q1648.82 32.4315 1645.05 35.9558 Q1641.32 39.4801 1640.75 45.8805 L1667.33 45.84 Z" fill="#000000" fill-rule="nonzero" fill-opacity="1" /><path clip-path="url(#clip200)" d="M1687.02 9.54393 L1694.47 9.54393 L1694.47 72.576 L1687.02 72.576 L1687.02 9.54393 Z" fill="#000000" fill-rule="nonzero" fill-opacity="1" /><path clip-path="url(#clip200)" d="M1730.68 49.7694 Q1721.65 49.7694 1718.17 51.8354 Q1714.68 53.9013 1714.68 58.8839 Q1714.68 62.8538 1717.28 65.2034 Q1719.91 67.5124 1724.41 67.5124 Q1730.6 67.5124 1734.33 63.1374 Q1738.1 58.7219 1738.1 51.4303 L1738.1 49.7694 L1730.68 49.7694 M1745.55 46.6907 L1745.55 72.576 L1738.1 72.576 L1738.1 65.6895 Q1735.55 69.8214 1731.74 71.8063 Q1727.93 73.7508 1722.42 73.7508 Q1715.45 73.7508 1711.32 69.8619 Q1707.23 65.9325 1707.23 59.3701 Q1707.23 51.7138 1712.33 47.825 Q1717.48 43.9361 1727.65 43.9361 L1738.1 43.9361 L1738.1 43.2069 Q1738.1 38.0623 1734.69 35.2672 Q1731.33 32.4315 1725.22 32.4315 Q1721.33 32.4315 1717.64 33.3632 Q1713.95 34.295 1710.55 36.1584 L1710.55 29.2718 Q1714.64 27.692 1718.49 26.9223 Q1722.34 26.1121 1725.99 26.1121 Q1735.83 26.1121 1740.69 31.2163 Q1745.55 36.3204 1745.55 46.6907 Z" fill="#000000" fill-rule="nonzero" fill-opacity="1" /><path clip-path="url(#clip200)" d="M1768.28 14.324 L1768.28 27.2059 L1783.63 27.2059 L1783.63 32.9987 L1768.28 32.9987 L1768.28 57.6282 Q1768.28 63.1779 1769.78 64.7578 Q1771.31 66.3376 1775.97 66.3376 L1783.63 66.3376 L1783.63 72.576 L1775.97 72.576 Q1767.35 72.576 1764.06 69.3758 Q1760.78 66.1351 1760.78 57.6282 L1760.78 32.9987 L1755.31 32.9987 L1755.31 27.2059 L1760.78 27.2059 L1760.78 14.324 L1768.28 14.324 Z" fill="#000000" fill-rule="nonzero" fill-opacity="1" /><path clip-path="url(#clip200)" d="M1793.43 27.2059 L1800.89 27.2059 L1800.89 72.576 L1793.43 72.576 L1793.43 27.2059 M1793.43 9.54393 L1800.89 9.54393 L1800.89 18.9825 L1793.43 18.9825 L1793.43 9.54393 Z" fill="#000000" fill-rule="nonzero" fill-opacity="1" /><path clip-path="url(#clip200)" d="M1834.06 32.4315 Q1828.07 32.4315 1824.58 37.1306 Q1821.1 41.7891 1821.1 49.9314 Q1821.1 58.0738 1824.54 62.7728 Q1828.03 67.4314 1834.06 67.4314 Q1840.02 67.4314 1843.5 62.7323 Q1846.99 58.0333 1846.99 49.9314 Q1846.99 41.8701 1843.5 37.1711 Q1840.02 32.4315 1834.06 32.4315 M1834.06 26.1121 Q1843.79 26.1121 1849.34 32.4315 Q1854.89 38.7509 1854.89 49.9314 Q1854.89 61.0714 1849.34 67.4314 Q1843.79 73.7508 1834.06 73.7508 Q1824.3 73.7508 1818.75 67.4314 Q1813.24 61.0714 1813.24 49.9314 Q1813.24 38.7509 1818.75 32.4315 Q1824.3 26.1121 1834.06 26.1121 Z" fill="#000000" fill-rule="nonzero" fill-opacity="1" /><path clip-path="url(#clip200)" d="M1904.95 45.1919 L1904.95 72.576 L1897.5 72.576 L1897.5 45.4349 Q1897.5 38.994 1894.99 35.7938 Q1892.48 32.5936 1887.45 32.5936 Q1881.42 32.5936 1877.93 36.4419 Q1874.45 40.2903 1874.45 46.9338 L1874.45 72.576 L1866.96 72.576 L1866.96 27.2059 L1874.45 27.2059 L1874.45 34.2544 Q1877.12 30.163 1880.73 28.1376 Q1884.38 26.1121 1889.12 26.1121 Q1896.93 26.1121 1900.94 30.9732 Q1904.95 35.7938 1904.95 45.1919 Z" fill="#000000" fill-rule="nonzero" fill-opacity="1" /><circle clip-path="url(#clip201)" cx="284.343" cy="804.229" r="14.4" fill="#009af9" fill-rule="evenodd" fill-opacity="1" stroke="#000000" stroke-opacity="1" stroke-width="3.2"/>
<circle clip-path="url(#clip201)" cx="418.221" cy="885.43" r="14.4" fill="#009af9" fill-rule="evenodd" fill-opacity="1" stroke="#000000" stroke-opacity="1" stroke-width="3.2"/>
<circle clip-path="url(#clip201)" cx="552.099" cy="859.649" r="14.4" fill="#009af9" fill-rule="evenodd" fill-opacity="1" stroke="#000000" stroke-opacity="1" stroke-width="3.2"/>
<circle clip-path="url(#clip201)" cx="685.977" cy="849.723" r="14.4" fill="#009af9" fill-rule="evenodd" fill-opacity="1" stroke="#000000" stroke-opacity="1" stroke-width="3.2"/>
<circle clip-path="url(#clip201)" cx="819.854" cy="970.938" r="14.4" fill="#009af9" fill-rule="evenodd" fill-opacity="1" stroke="#000000" stroke-opacity="1" stroke-width="3.2"/>
<circle clip-path="url(#clip201)" cx="953.732" cy="1386.4" r="14.4" fill="#009af9" fill-rule="evenodd" fill-opacity="1" stroke="#000000" stroke-opacity="1" stroke-width="3.2"/>
<circle clip-path="url(#clip201)" cx="1087.61" cy="160.256" r="14.4" fill="#009af9" fill-rule="evenodd" fill-opacity="1" stroke="#000000" stroke-opacity="1" stroke-width="3.2"/>
<circle clip-path="url(#clip201)" cx="1221.49" cy="660.579" r="14.4" fill="#009af9" fill-rule="evenodd" fill-opacity="1" stroke="#000000" stroke-opacity="1" stroke-width="3.2"/>
<circle clip-path="url(#clip201)" cx="1355.37" cy="793.55" r="14.4" fill="#009af9" fill-rule="evenodd" fill-opacity="1" stroke="#000000" stroke-opacity="1" stroke-width="3.2"/>
<circle clip-path="url(#clip201)" cx="1489.24" cy="790.713" r="14.4" fill="#009af9" fill-rule="evenodd" fill-opacity="1" stroke="#000000" stroke-opacity="1" stroke-width="3.2"/>
<circle clip-path="url(#clip201)" cx="1623.12" cy="768.002" r="14.4" fill="#009af9" fill-rule="evenodd" fill-opacity="1" stroke="#000000" stroke-opacity="1" stroke-width="3.2"/>
<circle clip-path="url(#clip201)" cx="1757" cy="853.314" r="14.4" fill="#009af9" fill-rule="evenodd" fill-opacity="1" stroke="#000000" stroke-opacity="1" stroke-width="3.2"/>
<circle clip-path="url(#clip201)" cx="1890.88" cy="781.869" r="14.4" fill="#009af9" fill-rule="evenodd" fill-opacity="1" stroke="#000000" stroke-opacity="1" stroke-width="3.2"/>
<circle clip-path="url(#clip201)" cx="2024.76" cy="851.852" r="14.4" fill="#009af9" fill-rule="evenodd" fill-opacity="1" stroke="#000000" stroke-opacity="1" stroke-width="3.2"/>
<circle clip-path="url(#clip201)" cx="2158.63" cy="825.334" r="14.4" fill="#009af9" fill-rule="evenodd" fill-opacity="1" stroke="#000000" stroke-opacity="1" stroke-width="3.2"/>
<circle clip-path="url(#clip201)" cx="2292.51" cy="831.999" r="14.4" fill="#009af9" fill-rule="evenodd" fill-opacity="1" stroke="#000000" stroke-opacity="1" stroke-width="3.2"/>
<polyline clip-path="url(#clip201)" style="stroke:#009af9; stroke-linecap:round; stroke-linejoin:round; stroke-width:4; stroke-opacity:1; fill:none" points="284.343,833.585 284.343,804.229 "/>
<polyline clip-path="url(#clip201)" style="stroke:#009af9; stroke-linecap:round; stroke-linejoin:round; stroke-width:4; stroke-opacity:1; fill:none" points="418.221,833.585 418.221,885.43 "/>
<polyline clip-path="url(#clip201)" style="stroke:#009af9; stroke-linecap:round; stroke-linejoin:round; stroke-width:4; stroke-opacity:1; fill:none" points="552.099,833.585 552.099,859.649 "/>
<polyline clip-path="url(#clip201)" style="stroke:#009af9; stroke-linecap:round; stroke-linejoin:round; stroke-width:4; stroke-opacity:1; fill:none" points="685.977,833.585 685.977,849.723 "/>
<polyline clip-path="url(#clip201)" style="stroke:#009af9; stroke-linecap:round; stroke-linejoin:round; stroke-width:4; stroke-opacity:1; fill:none" points="819.854,833.585 819.854,970.938 "/>
<polyline clip-path="url(#clip201)" style="stroke:#009af9; stroke-linecap:round; stroke-linejoin:round; stroke-width:4; stroke-opacity:1; fill:none" points="953.732,833.585 953.732,1386.4 "/>
<polyline clip-path="url(#clip201)" style="stroke:#009af9; stroke-linecap:round; stroke-linejoin:round; stroke-width:4; stroke-opacity:1; fill:none" points="1087.61,833.585 1087.61,160.256 "/>
<polyline clip-path="url(#clip201)" style="stroke:#009af9; stroke-linecap:round; stroke-linejoin:round; stroke-width:4; stroke-opacity:1; fill:none" points="1221.49,833.585 1221.49,660.579 "/>
<polyline clip-path="url(#clip201)" style="stroke:#009af9; stroke-linecap:round; stroke-linejoin:round; stroke-width:4; stroke-opacity:1; fill:none" points="1355.37,833.585 1355.37,793.55 "/>
<polyline clip-path="url(#clip201)" style="stroke:#009af9; stroke-linecap:round; stroke-linejoin:round; stroke-width:4; stroke-opacity:1; fill:none" points="1489.24,833.585 1489.24,790.713 "/>
<polyline clip-path="url(#clip201)" style="stroke:#009af9; stroke-linecap:round; stroke-linejoin:round; stroke-width:4; stroke-opacity:1; fill:none" points="1623.12,833.585 1623.12,768.002 "/>
<polyline clip-path="url(#clip201)" style="stroke:#009af9; stroke-linecap:round; stroke-linejoin:round; stroke-width:4; stroke-opacity:1; fill:none" points="1757,833.585 1757,853.314 "/>
<polyline clip-path="url(#clip201)" style="stroke:#009af9; stroke-linecap:round; stroke-linejoin:round; stroke-width:4; stroke-opacity:1; fill:none" points="1890.88,833.585 1890.88,781.869 "/>
<polyline clip-path="url(#clip201)" style="stroke:#009af9; stroke-linecap:round; stroke-linejoin:round; stroke-width:4; stroke-opacity:1; fill:none" points="2024.76,833.585 2024.76,851.852 "/>
<polyline clip-path="url(#clip201)" style="stroke:#009af9; stroke-linecap:round; stroke-linejoin:round; stroke-width:4; stroke-opacity:1; fill:none" points="2158.63,833.585 2158.63,825.334 "/>
<polyline clip-path="url(#clip201)" style="stroke:#009af9; stroke-linecap:round; stroke-linejoin:round; stroke-width:4; stroke-opacity:1; fill:none" points="2292.51,833.585 2292.51,831.999 "/>
<polyline clip-path="url(#clip201)" style="stroke:#000000; stroke-linecap:round; stroke-linejoin:round; stroke-width:4; stroke-opacity:1; fill:none" stroke-dasharray="16, 10" points="-1904.56,736.671 4481.41,736.671 "/>
<polyline clip-path="url(#clip201)" style="stroke:#000000; stroke-linecap:round; stroke-linejoin:round; stroke-width:4; stroke-opacity:1; fill:none" stroke-dasharray="16, 10" points="-1904.56,930.499 4481.41,930.499 "/>
</svg>
