<?xml version="1.0" encoding="utf-8"?>
<svg xmlns="http://www.w3.org/2000/svg" xmlns:xlink="http://www.w3.org/1999/xlink" width="600" height="400" viewBox="0 0 2400 1600">
<defs>
  <clipPath id="clip840">
    <rect x="0" y="0" width="2400" height="1600"/>
  </clipPath>
</defs>
<path clip-path="url(#clip840)" d="M0 1600 L2400 1600 L2400 0 L0 0  Z" fill="#ffffff" fill-rule="evenodd" fill-opacity="1"/>
<defs>
  <clipPath id="clip841">
    <rect x="480" y="0" width="1681" height="1600"/>
  </clipPath>
</defs>
<path clip-path="url(#clip840)" d="M257.579 1410.9 L2352.76 1410.9 L2352.76 123.472 L257.579 123.472  Z" fill="#ffffff" fill-rule="evenodd" fill-opacity="1"/>
<defs>
  <clipPath id="clip842">
    <rect x="257" y="123" width="2096" height="1288"/>
  </clipPath>
</defs>
<polyline clip-path="url(#clip842)" style="stroke:#000000; stroke-linecap:round; stroke-linejoin:round; stroke-width:2; stroke-opacity:0.1; fill:none" points="1006.19,1410.9 1006.19,123.472 "/>
<polyline clip-path="url(#clip842)" style="stroke:#000000; stroke-linecap:round; stroke-linejoin:round; stroke-width:2; stroke-opacity:0.1; fill:none" points="1866,1410.9 1866,123.472 "/>
<polyline clip-path="url(#clip840)" style="stroke:#000000; stroke-linecap:round; stroke-linejoin:round; stroke-width:4; stroke-opacity:1; fill:none" points="257.579,1410.9 2352.76,1410.9 "/>
<polyline clip-path="url(#clip840)" style="stroke:#000000; stroke-linecap:round; stroke-linejoin:round; stroke-width:4; stroke-opacity:1; fill:none" points="1006.19,1410.9 1006.19,1392 "/>
<polyline clip-path="url(#clip840)" style="stroke:#000000; stroke-linecap:round; stroke-linejoin:round; stroke-width:4; stroke-opacity:1; fill:none" points="1866,1410.9 1866,1392 "/>
<path clip-path="url(#clip840)" d="M956.306 1485.02 L963.945 1485.02 L963.945 1458.66 L955.635 1460.32 L955.635 1456.06 L963.898 1454.4 L968.574 1454.4 L968.574 1485.02 L976.213 1485.02 L976.213 1488.96 L956.306 1488.96 L956.306 1485.02 Z" fill="#000000" fill-rule="nonzero" fill-opacity="1" /><path clip-path="url(#clip840)" d="M995.657 1457.48 Q992.046 1457.48 990.218 1461.04 Q988.412 1464.58 988.412 1471.71 Q988.412 1478.82 990.218 1482.38 Q992.046 1485.92 995.657 1485.92 Q999.292 1485.92 1001.1 1482.38 Q1002.93 1478.82 1002.93 1471.71 Q1002.93 1464.58 1001.1 1461.04 Q999.292 1457.48 995.657 1457.48 M995.657 1453.77 Q1001.47 1453.77 1004.52 1458.38 Q1007.6 1462.96 1007.6 1471.71 Q1007.6 1480.44 1004.52 1485.04 Q1001.47 1489.63 995.657 1489.63 Q989.847 1489.63 986.769 1485.04 Q983.713 1480.44 983.713 1471.71 Q983.713 1462.96 986.769 1458.38 Q989.847 1453.77 995.657 1453.77 Z" fill="#000000" fill-rule="nonzero" fill-opacity="1" /><path clip-path="url(#clip840)" d="M1007.6 1447.87 L1031.71 1447.87 L1031.71 1451.07 L1007.6 1451.07 L1007.6 1447.87 Z" fill="#000000" fill-rule="nonzero" fill-opacity="1" /><path clip-path="url(#clip840)" d="M1040.57 1458.35 L1046.78 1458.35 L1046.78 1436.93 L1040.03 1438.28 L1040.03 1434.82 L1046.74 1433.47 L1050.54 1433.47 L1050.54 1458.35 L1056.75 1458.35 L1056.75 1461.55 L1040.57 1461.55 L1040.57 1458.35 Z" fill="#000000" fill-rule="nonzero" fill-opacity="1" /><path clip-path="url(#clip840)" d="M1830.99 1485.02 L1838.62 1485.02 L1838.62 1458.66 L1830.31 1460.32 L1830.31 1456.06 L1838.58 1454.4 L1843.25 1454.4 L1843.25 1485.02 L1850.89 1485.02 L1850.89 1488.96 L1830.99 1488.96 L1830.99 1485.02 Z" fill="#000000" fill-rule="nonzero" fill-opacity="1" /><path clip-path="url(#clip840)" d="M1870.34 1457.48 Q1866.73 1457.48 1864.9 1461.04 Q1863.09 1464.58 1863.09 1471.71 Q1863.09 1478.82 1864.9 1482.38 Q1866.73 1485.92 1870.34 1485.92 Q1873.97 1485.92 1875.78 1482.38 Q1877.61 1478.82 1877.61 1471.71 Q1877.61 1464.58 1875.78 1461.04 Q1873.97 1457.48 1870.34 1457.48 M1870.34 1453.77 Q1876.15 1453.77 1879.2 1458.38 Q1882.28 1462.96 1882.28 1471.71 Q1882.28 1480.44 1879.2 1485.04 Q1876.15 1489.63 1870.34 1489.63 Q1864.53 1489.63 1861.45 1485.04 Q1858.39 1480.44 1858.39 1471.71 Q1858.39 1462.96 1861.45 1458.38 Q1864.53 1453.77 1870.34 1453.77 Z" fill="#000000" fill-rule="nonzero" fill-opacity="1" /><path clip-path="url(#clip840)" d="M1891.99 1435.97 Q1889.05 1435.97 1887.57 1438.86 Q1886.1 1441.74 1886.1 1447.53 Q1886.1 1453.31 1887.57 1456.2 Q1889.05 1459.08 1891.99 1459.08 Q1894.94 1459.08 1896.41 1456.2 Q1897.89 1453.31 1897.89 1447.53 Q1897.89 1441.74 1896.41 1438.86 Q1894.94 1435.97 1891.99 1435.97 M1891.99 1432.96 Q1896.71 1432.96 1899.19 1436.7 Q1901.69 1440.43 1901.69 1447.53 Q1901.69 1454.62 1899.19 1458.37 Q1896.71 1462.09 1891.99 1462.09 Q1887.27 1462.09 1884.76 1458.37 Q1882.28 1454.62 1882.28 1447.53 Q1882.28 1440.43 1884.76 1436.7 Q1887.27 1432.96 1891.99 1432.96 Z" fill="#000000" fill-rule="nonzero" fill-opacity="1" /><path clip-path="url(#clip840)" d="M1024.98 1526.67 L1052.29 1526.67 L1052.29 1532.08 L1031.41 1532.08 L1031.41 1546.08 L1050.25 1546.08 L1050.25 1551.49 L1031.41 1551.49 L1031.41 1574.19 L1024.98 1574.19 L1024.98 1526.67 Z" fill="#000000" fill-rule="nonzero" fill-opacity="1" /><path clip-path="url(#clip840)" d="M1078.13 1544.01 Q1077.15 1543.44 1075.97 1543.18 Q1074.82 1542.9 1073.42 1542.9 Q1068.46 1542.9 1065.78 1546.14 Q1063.14 1549.36 1063.14 1555.41 L1063.14 1574.19 L1057.25 1574.19 L1057.25 1538.54 L1063.14 1538.54 L1063.14 1544.08 Q1064.99 1540.83 1067.95 1539.27 Q1070.91 1537.68 1075.14 1537.68 Q1075.75 1537.68 1076.48 1537.77 Q1077.21 1537.84 1078.1 1538 L1078.13 1544.01 Z" fill="#000000" fill-rule="nonzero" fill-opacity="1" /><path clip-path="url(#clip840)" d="M1113.34 1554.9 L1113.34 1557.76 L1086.41 1557.76 Q1086.79 1563.81 1090.04 1566.99 Q1093.32 1570.14 1099.14 1570.14 Q1102.52 1570.14 1105.67 1569.32 Q1108.85 1568.49 1111.97 1566.83 L1111.97 1572.37 Q1108.82 1573.71 1105.51 1574.41 Q1102.2 1575.11 1098.79 1575.11 Q1090.26 1575.11 1085.26 1570.14 Q1080.3 1565.18 1080.3 1556.71 Q1080.3 1547.96 1085.01 1542.83 Q1089.75 1537.68 1097.77 1537.68 Q1104.97 1537.68 1109.14 1542.33 Q1113.34 1546.94 1113.34 1554.9 M1107.48 1553.18 Q1107.42 1548.37 1104.77 1545.51 Q1102.16 1542.64 1097.84 1542.64 Q1092.93 1542.64 1089.97 1545.41 Q1087.05 1548.18 1086.6 1553.21 L1107.48 1553.18 Z" fill="#000000" fill-rule="nonzero" fill-opacity="1" /><path clip-path="url(#clip840)" d="M1126.45 1556.39 Q1126.45 1562.85 1129.09 1566.55 Q1131.77 1570.21 1136.41 1570.21 Q1141.06 1570.21 1143.73 1566.55 Q1146.41 1562.85 1146.41 1556.39 Q1146.41 1549.93 1143.73 1546.27 Q1141.06 1542.58 1136.41 1542.58 Q1131.77 1542.58 1129.09 1546.27 Q1126.45 1549.93 1126.45 1556.39 M1146.41 1568.84 Q1144.56 1572.02 1141.73 1573.58 Q1138.93 1575.11 1134.98 1575.11 Q1128.52 1575.11 1124.44 1569.95 Q1120.4 1564.8 1120.4 1556.39 Q1120.4 1547.99 1124.44 1542.83 Q1128.52 1537.68 1134.98 1537.68 Q1138.93 1537.68 1141.73 1539.24 Q1144.56 1540.77 1146.41 1543.95 L1146.41 1538.54 L1152.26 1538.54 L1152.26 1587.74 L1146.41 1587.74 L1146.41 1568.84 Z" fill="#000000" fill-rule="nonzero" fill-opacity="1" /><path clip-path="url(#clip840)" d="M1163.72 1560.12 L1163.72 1538.54 L1169.58 1538.54 L1169.58 1559.89 Q1169.58 1564.96 1171.55 1567.5 Q1173.52 1570.02 1177.47 1570.02 Q1182.21 1570.02 1184.95 1566.99 Q1187.72 1563.97 1187.72 1558.75 L1187.72 1538.54 L1193.58 1538.54 L1193.58 1574.19 L1187.72 1574.19 L1187.72 1568.71 Q1185.59 1571.96 1182.75 1573.55 Q1179.95 1575.11 1176.23 1575.11 Q1170.09 1575.11 1166.9 1571.29 Q1163.72 1567.47 1163.72 1560.12 M1178.46 1537.68 L1178.46 1537.68 Z" fill="#000000" fill-rule="nonzero" fill-opacity="1" /><path clip-path="url(#clip840)" d="M1236.13 1554.9 L1236.13 1557.76 L1209.2 1557.76 Q1209.59 1563.81 1212.83 1566.99 Q1216.11 1570.14 1221.94 1570.14 Q1225.31 1570.14 1228.46 1569.32 Q1231.64 1568.49 1234.76 1566.83 L1234.76 1572.37 Q1231.61 1573.71 1228.3 1574.41 Q1224.99 1575.11 1221.59 1575.11 Q1213.06 1575.11 1208.06 1570.14 Q1203.09 1565.18 1203.09 1556.71 Q1203.09 1547.96 1207.8 1542.83 Q1212.55 1537.68 1220.57 1537.68 Q1227.76 1537.68 1231.93 1542.33 Q1236.13 1546.94 1236.13 1554.9 M1230.27 1553.18 Q1230.21 1548.37 1227.57 1545.51 Q1224.96 1542.64 1220.63 1542.64 Q1215.73 1542.64 1212.77 1545.41 Q1209.84 1548.18 1209.4 1553.21 L1230.27 1553.18 Z" fill="#000000" fill-rule="nonzero" fill-opacity="1" /><path clip-path="url(#clip840)" d="M1275.38 1552.67 L1275.38 1574.19 L1269.52 1574.19 L1269.52 1552.86 Q1269.52 1547.8 1267.55 1545.29 Q1265.57 1542.77 1261.63 1542.77 Q1256.88 1542.77 1254.15 1545.79 Q1251.41 1548.82 1251.41 1554.04 L1251.41 1574.19 L1245.52 1574.19 L1245.52 1538.54 L1251.41 1538.54 L1251.41 1544.08 Q1253.51 1540.86 1256.34 1539.27 Q1259.21 1537.68 1262.93 1537.68 Q1269.07 1537.68 1272.22 1541.5 Q1275.38 1545.29 1275.38 1552.67 Z" fill="#000000" fill-rule="nonzero" fill-opacity="1" /><path clip-path="url(#clip840)" d="M1312.71 1539.91 L1312.71 1545.38 Q1310.23 1544.01 1307.71 1543.34 Q1305.23 1542.64 1302.68 1542.64 Q1296.99 1542.64 1293.84 1546.27 Q1290.69 1549.87 1290.69 1556.39 Q1290.69 1562.92 1293.84 1566.55 Q1296.99 1570.14 1302.68 1570.14 Q1305.23 1570.14 1307.71 1569.47 Q1310.23 1568.77 1312.71 1567.41 L1312.71 1572.82 Q1310.26 1573.96 1307.62 1574.54 Q1305.01 1575.11 1302.05 1575.11 Q1294 1575.11 1289.25 1570.05 Q1284.51 1564.99 1284.51 1556.39 Q1284.51 1547.67 1289.28 1542.68 Q1294.09 1537.68 1302.43 1537.68 Q1305.14 1537.68 1307.71 1538.25 Q1310.29 1538.79 1312.71 1539.91 Z" fill="#000000" fill-rule="nonzero" fill-opacity="1" /><path clip-path="url(#clip840)" d="M1337.73 1577.5 Q1335.25 1583.86 1332.89 1585.8 Q1330.53 1587.74 1326.59 1587.74 L1321.91 1587.74 L1321.91 1582.84 L1325.35 1582.84 Q1327.77 1582.84 1329.1 1581.7 Q1330.44 1580.55 1332.06 1576.29 L1333.11 1573.61 L1318.69 1538.54 L1324.9 1538.54 L1336.04 1566.42 L1347.18 1538.54 L1353.39 1538.54 L1337.73 1577.5 Z" fill="#000000" fill-rule="nonzero" fill-opacity="1" /><path clip-path="url(#clip840)" d="M1381.65 1524.66 L1395.15 1524.66 L1395.15 1529.21 L1387.51 1529.21 L1387.51 1578.23 L1395.15 1578.23 L1395.15 1582.78 L1381.65 1582.78 L1381.65 1524.66 Z" fill="#000000" fill-rule="nonzero" fill-opacity="1" /><path clip-path="url(#clip840)" d="M1428.28 1544.01 Q1427.29 1543.44 1426.12 1543.18 Q1424.97 1542.9 1423.57 1542.9 Q1418.6 1542.9 1415.93 1546.14 Q1413.29 1549.36 1413.29 1555.41 L1413.29 1574.19 L1407.4 1574.19 L1407.4 1538.54 L1413.29 1538.54 L1413.29 1544.08 Q1415.13 1540.83 1418.09 1539.27 Q1421.06 1537.68 1425.29 1537.68 Q1425.89 1537.68 1426.63 1537.77 Q1427.36 1537.84 1428.25 1538 L1428.28 1544.01 Z" fill="#000000" fill-rule="nonzero" fill-opacity="1" /><path clip-path="url(#clip840)" d="M1450.62 1556.27 Q1443.53 1556.27 1440.79 1557.89 Q1438.05 1559.51 1438.05 1563.43 Q1438.05 1566.55 1440.09 1568.39 Q1442.16 1570.21 1445.69 1570.21 Q1450.56 1570.21 1453.49 1566.77 Q1456.45 1563.3 1456.45 1557.57 L1456.45 1556.27 L1450.62 1556.27 M1462.3 1553.85 L1462.3 1574.19 L1456.45 1574.19 L1456.45 1568.77 Q1454.44 1572.02 1451.45 1573.58 Q1448.46 1575.11 1444.13 1575.11 Q1438.66 1575.11 1435.41 1572.05 Q1432.19 1568.97 1432.19 1563.81 Q1432.19 1557.79 1436.21 1554.74 Q1440.25 1551.68 1448.24 1551.68 L1456.45 1551.68 L1456.45 1551.11 Q1456.45 1547.07 1453.77 1544.87 Q1451.13 1542.64 1446.33 1542.64 Q1443.27 1542.64 1440.37 1543.38 Q1437.48 1544.11 1434.8 1545.57 L1434.8 1540.16 Q1438.02 1538.92 1441.04 1538.31 Q1444.07 1537.68 1446.93 1537.68 Q1454.67 1537.68 1458.49 1541.69 Q1462.3 1545.7 1462.3 1553.85 Z" fill="#000000" fill-rule="nonzero" fill-opacity="1" /><path clip-path="url(#clip840)" d="M1497.83 1543.95 L1497.83 1524.66 L1503.68 1524.66 L1503.68 1574.19 L1497.83 1574.19 L1497.83 1568.84 Q1495.98 1572.02 1493.15 1573.58 Q1490.35 1575.11 1486.4 1575.11 Q1479.94 1575.11 1475.86 1569.95 Q1471.82 1564.8 1471.82 1556.39 Q1471.82 1547.99 1475.86 1542.83 Q1479.94 1537.68 1486.4 1537.68 Q1490.35 1537.68 1493.15 1539.24 Q1495.98 1540.77 1497.83 1543.95 M1477.87 1556.39 Q1477.87 1562.85 1480.51 1566.55 Q1483.18 1570.21 1487.83 1570.21 Q1492.48 1570.21 1495.15 1566.55 Q1497.83 1562.85 1497.83 1556.39 Q1497.83 1549.93 1495.15 1546.27 Q1492.48 1542.58 1487.83 1542.58 Q1483.18 1542.58 1480.51 1546.27 Q1477.87 1549.93 1477.87 1556.39 Z" fill="#000000" fill-rule="nonzero" fill-opacity="1" /><path clip-path="url(#clip840)" d="M1526.15 1526.67 L1531.56 1526.67 L1515.01 1580.23 L1509.6 1580.23 L1526.15 1526.67 Z" fill="#000000" fill-rule="nonzero" fill-opacity="1" /><path clip-path="url(#clip840)" d="M1560.43 1539.59 L1560.43 1545.13 Q1557.95 1543.85 1555.28 1543.22 Q1552.6 1542.58 1549.74 1542.58 Q1545.38 1542.58 1543.18 1543.92 Q1541.02 1545.25 1541.02 1547.93 Q1541.02 1549.96 1542.58 1551.14 Q1544.14 1552.29 1548.85 1553.34 L1550.85 1553.78 Q1557.09 1555.12 1559.7 1557.57 Q1562.34 1559.99 1562.34 1564.35 Q1562.34 1569.32 1558.4 1572.21 Q1554.48 1575.11 1547.61 1575.11 Q1544.74 1575.11 1541.62 1574.54 Q1538.53 1573.99 1535.1 1572.88 L1535.1 1566.83 Q1538.34 1568.52 1541.49 1569.38 Q1544.65 1570.21 1547.73 1570.21 Q1551.87 1570.21 1554.1 1568.81 Q1556.33 1567.37 1556.33 1564.8 Q1556.33 1562.41 1554.7 1561.14 Q1553.11 1559.86 1547.67 1558.68 L1545.63 1558.21 Q1540.19 1557.06 1537.77 1554.71 Q1535.35 1552.32 1535.35 1548.18 Q1535.35 1543.15 1538.92 1540.42 Q1542.48 1537.68 1549.04 1537.68 Q1552.28 1537.68 1555.15 1538.16 Q1558.01 1538.63 1560.43 1539.59 Z" fill="#000000" fill-rule="nonzero" fill-opacity="1" /><path clip-path="url(#clip840)" d="M1585.35 1524.66 L1585.35 1582.78 L1571.86 1582.78 L1571.86 1578.23 L1579.47 1578.23 L1579.47 1529.21 L1571.86 1529.21 L1571.86 1524.66 L1585.35 1524.66 Z" fill="#000000" fill-rule="nonzero" fill-opacity="1" /><polyline clip-path="url(#clip842)" style="stroke:#000000; stroke-linecap:round; stroke-linejoin:round; stroke-width:2; stroke-opacity:0.1; fill:none" points="257.579,1024.4 2352.76,1024.4 "/>
<polyline clip-path="url(#clip842)" style="stroke:#000000; stroke-linecap:round; stroke-linejoin:round; stroke-width:2; stroke-opacity:0.1; fill:none" points="257.579,527.901 2352.76,527.901 "/>
<polyline clip-path="url(#clip840)" style="stroke:#000000; stroke-linecap:round; stroke-linejoin:round; stroke-width:4; stroke-opacity:1; fill:none" points="257.579,1410.9 257.579,123.472 "/>
<polyline clip-path="url(#clip840)" style="stroke:#000000; stroke-linecap:round; stroke-linejoin:round; stroke-width:4; stroke-opacity:1; fill:none" points="257.579,1024.4 276.476,1024.4 "/>
<polyline clip-path="url(#clip840)" style="stroke:#000000; stroke-linecap:round; stroke-linejoin:round; stroke-width:4; stroke-opacity:1; fill:none" points="257.579,527.901 276.476,527.901 "/>
<path clip-path="url(#clip840)" d="M114.931 1044.19 L122.57 1044.19 L122.57 1017.82 L114.26 1019.49 L114.26 1015.23 L122.524 1013.56 L127.2 1013.56 L127.2 1044.19 L134.839 1044.19 L134.839 1048.12 L114.931 1048.12 L114.931 1044.19 Z" fill="#000000" fill-rule="nonzero" fill-opacity="1" /><path clip-path="url(#clip840)" d="M154.283 1016.64 Q150.672 1016.64 148.843 1020.21 Q147.038 1023.75 147.038 1030.88 Q147.038 1037.98 148.843 1041.55 Q150.672 1045.09 154.283 1045.09 Q157.917 1045.09 159.723 1041.55 Q161.552 1037.98 161.552 1030.88 Q161.552 1023.75 159.723 1020.21 Q157.917 1016.64 154.283 1016.64 M154.283 1012.94 Q160.093 1012.94 163.149 1017.54 Q166.227 1022.13 166.227 1030.88 Q166.227 1039.6 163.149 1044.21 Q160.093 1048.79 154.283 1048.79 Q148.473 1048.79 145.394 1044.21 Q142.339 1039.6 142.339 1030.88 Q142.339 1022.13 145.394 1017.54 Q148.473 1012.94 154.283 1012.94 Z" fill="#000000" fill-rule="nonzero" fill-opacity="1" /><path clip-path="url(#clip840)" d="M175.932 995.134 Q172.998 995.134 171.512 998.03 Q170.045 1000.91 170.045 1006.7 Q170.045 1012.47 171.512 1015.37 Q172.998 1018.25 175.932 1018.25 Q178.885 1018.25 180.352 1015.37 Q181.838 1012.47 181.838 1006.7 Q181.838 1000.91 180.352 998.03 Q178.885 995.134 175.932 995.134 M175.932 992.125 Q180.653 992.125 183.136 995.867 Q185.637 999.591 185.637 1006.7 Q185.637 1013.79 183.136 1017.53 Q180.653 1021.26 175.932 1021.26 Q171.212 1021.26 168.71 1017.53 Q166.227 1013.79 166.227 1006.7 Q166.227 999.591 168.71 995.867 Q171.212 992.125 175.932 992.125 Z" fill="#000000" fill-rule="nonzero" fill-opacity="1" /><path clip-path="url(#clip840)" d="M192.314 1015.94 L196.282 1015.94 L196.282 1020.71 L192.314 1020.71 L192.314 1015.94 Z" fill="#000000" fill-rule="nonzero" fill-opacity="1" /><path clip-path="url(#clip840)" d="M204.595 992.632 L219.51 992.632 L219.51 995.83 L208.075 995.83 L208.075 1002.71 Q208.902 1002.43 209.73 1002.3 Q210.557 1002.15 211.385 1002.15 Q216.087 1002.15 218.833 1004.73 Q221.579 1007.3 221.579 1011.7 Q221.579 1016.24 218.758 1018.76 Q215.936 1021.26 210.802 1021.26 Q209.034 1021.26 207.191 1020.96 Q205.366 1020.66 203.41 1020.05 L203.41 1016.24 Q205.103 1017.16 206.909 1017.61 Q208.714 1018.06 210.727 1018.06 Q213.98 1018.06 215.88 1016.35 Q217.78 1014.64 217.78 1011.7 Q217.78 1008.77 215.88 1007.06 Q213.98 1005.35 210.727 1005.35 Q209.203 1005.35 207.68 1005.69 Q206.175 1006.02 204.595 1006.74 L204.595 992.632 Z" fill="#000000" fill-rule="nonzero" fill-opacity="1" /><path clip-path="url(#clip840)" d="M115.815 547.693 L123.454 547.693 L123.454 521.328 L115.144 522.994 L115.144 518.735 L123.408 517.068 L128.084 517.068 L128.084 547.693 L135.723 547.693 L135.723 551.628 L115.815 551.628 L115.815 547.693 Z" fill="#000000" fill-rule="nonzero" fill-opacity="1" /><path clip-path="url(#clip840)" d="M155.167 520.147 Q151.556 520.147 149.727 523.712 Q147.922 527.253 147.922 534.383 Q147.922 541.49 149.727 545.054 Q151.556 548.596 155.167 548.596 Q158.801 548.596 160.607 545.054 Q162.436 541.49 162.436 534.383 Q162.436 527.253 160.607 523.712 Q158.801 520.147 155.167 520.147 M155.167 516.443 Q160.977 516.443 164.033 521.05 Q167.111 525.633 167.111 534.383 Q167.111 543.11 164.033 547.716 Q160.977 552.3 155.167 552.3 Q149.357 552.3 146.278 547.716 Q143.223 543.11 143.223 534.383 Q143.223 525.633 146.278 521.05 Q149.357 516.443 155.167 516.443 Z" fill="#000000" fill-rule="nonzero" fill-opacity="1" /><path clip-path="url(#clip840)" d="M167.657 521.021 L173.863 521.021 L173.863 499.599 L167.111 500.953 L167.111 497.492 L173.826 496.138 L177.625 496.138 L177.625 521.021 L183.832 521.021 L183.832 524.218 L167.657 524.218 L167.657 521.021 Z" fill="#000000" fill-rule="nonzero" fill-opacity="1" /><path clip-path="url(#clip840)" d="M191.505 519.441 L195.474 519.441 L195.474 524.218 L191.505 524.218 L191.505 519.441 Z" fill="#000000" fill-rule="nonzero" fill-opacity="1" /><path clip-path="url(#clip840)" d="M211.874 498.639 Q208.94 498.639 207.454 501.536 Q205.987 504.413 205.987 510.206 Q205.987 515.98 207.454 518.877 Q208.94 521.754 211.874 521.754 Q214.827 521.754 216.294 518.877 Q217.78 515.98 217.78 510.206 Q217.78 504.413 216.294 501.536 Q214.827 498.639 211.874 498.639 M211.874 495.63 Q216.595 495.63 219.077 499.373 Q221.579 503.097 221.579 510.206 Q221.579 517.297 219.077 521.039 Q216.595 524.763 211.874 524.763 Q207.153 524.763 204.652 521.039 Q202.169 517.297 202.169 510.206 Q202.169 503.097 204.652 499.373 Q207.153 495.63 211.874 495.63 Z" fill="#000000" fill-rule="nonzero" fill-opacity="1" /><path clip-path="url(#clip840)" d="M18.0438 995.825 L24.314 995.825 Q22.5634 999.485 21.704 1002.73 Q20.8447 1005.98 20.8447 1009 Q20.8447 1014.25 22.8817 1017.12 Q24.9187 1019.95 28.6745 1019.95 Q31.8255 1019.95 33.4488 1018.07 Q35.0402 1016.16 36.0269 1010.88 L36.8226 1007 Q38.1912 999.803 41.6605 996.398 Q45.098 992.96 50.8908 992.96 Q57.7976 992.96 61.3624 997.607 Q64.9272 1002.22 64.9272 1011.17 Q64.9272 1014.54 64.1633 1018.36 Q63.3994 1022.15 61.9035 1026.22 L55.2831 1026.22 Q57.4793 1022.31 58.5933 1018.55 Q59.7073 1014.79 59.7073 1011.17 Q59.7073 1005.66 57.543 1002.67 Q55.3786 999.676 51.3682 999.676 Q47.8671 999.676 45.8937 1001.84 Q43.9204 1003.97 42.9337 1008.87 L42.1698 1012.79 Q40.7375 1019.98 37.682 1023.2 Q34.6264 1026.41 29.1837 1026.41 Q22.8817 1026.41 19.2532 1021.99 Q15.6248 1017.53 15.6248 1009.73 Q15.6248 1006.39 16.2295 1002.92 Q16.8343 999.453 18.0438 995.825 Z" fill="#000000" fill-rule="nonzero" fill-opacity="1" /><path clip-path="url(#clip840)" d="M28.3562 983.189 L28.3562 977.332 L64.0042 977.332 L64.0042 983.189 L28.3562 983.189 M14.479 983.189 L14.479 977.332 L21.895 977.332 L21.895 983.189 L14.479 983.189 Z" fill="#000000" fill-rule="nonzero" fill-opacity="1" /><path clip-path="url(#clip840)" d="M42.4881 935.446 L64.0042 935.446 L64.0042 941.302 L42.679 941.302 Q37.6183 941.302 35.1038 943.276 Q32.5894 945.249 32.5894 949.196 Q32.5894 953.938 35.6131 956.676 Q38.6368 959.413 43.8567 959.413 L64.0042 959.413 L64.0042 965.301 L28.3562 965.301 L28.3562 959.413 L33.8944 959.413 Q30.6797 957.312 29.0883 954.479 Q27.4968 951.615 27.4968 947.891 Q27.4968 941.748 31.3163 938.597 Q35.1038 935.446 42.4881 935.446 Z" fill="#000000" fill-rule="nonzero" fill-opacity="1" /><path clip-path="url(#clip840)" d="M45.7664 900.307 Q39.4007 900.307 35.8996 902.949 Q32.3984 905.559 32.3984 910.301 Q32.3984 915.012 35.8996 917.654 Q39.4007 920.264 45.7664 920.264 Q52.1003 920.264 55.6014 917.654 Q59.1026 915.012 59.1026 910.301 Q59.1026 905.559 55.6014 902.949 Q52.1003 900.307 45.7664 900.307 M59.58 894.451 Q68.683 894.451 73.1071 898.493 Q77.5631 902.535 77.5631 910.874 Q77.5631 913.962 77.0857 916.699 Q76.6401 919.436 75.6852 922.014 L69.9879 922.014 Q71.3884 919.436 72.0568 916.922 Q72.7252 914.407 72.7252 911.797 Q72.7252 906.036 69.7015 903.172 Q66.7096 900.307 60.6303 900.307 L57.7339 900.307 Q60.885 902.121 62.4446 904.954 Q64.0042 907.787 64.0042 911.734 Q64.0042 918.29 59.0071 922.301 Q54.01 926.311 45.7664 926.311 Q37.491 926.311 32.4939 922.301 Q27.4968 918.29 27.4968 911.734 Q27.4968 907.787 29.0564 904.954 Q30.616 902.121 33.7671 900.307 L28.3562 900.307 L28.3562 894.451 L59.58 894.451 Z" fill="#000000" fill-rule="nonzero" fill-opacity="1" /><path clip-path="url(#clip840)" d="M49.9359 882.993 L28.3562 882.993 L28.3562 877.136 L49.7131 877.136 Q54.7739 877.136 57.3202 875.163 Q59.8346 873.189 59.8346 869.243 Q59.8346 864.5 56.8109 861.763 Q53.7872 858.994 48.5673 858.994 L28.3562 858.994 L28.3562 853.137 L64.0042 853.137 L64.0042 858.994 L58.5296 858.994 Q61.7762 861.126 63.3676 863.959 Q64.9272 866.76 64.9272 870.484 Q64.9272 876.627 61.1078 879.81 Q57.2883 882.993 49.9359 882.993 M27.4968 868.256 L27.4968 868.256 Z" fill="#000000" fill-rule="nonzero" fill-opacity="1" /><path clip-path="url(#clip840)" d="M14.479 841.074 L14.479 835.218 L64.0042 835.218 L64.0042 841.074 L14.479 841.074 Z" fill="#000000" fill-rule="nonzero" fill-opacity="1" /><path clip-path="url(#clip840)" d="M46.0847 806.763 Q46.0847 813.861 47.7079 816.598 Q49.3312 819.335 53.2461 819.335 Q56.3653 819.335 58.2114 817.298 Q60.0256 815.23 60.0256 811.697 Q60.0256 806.827 56.5881 803.899 Q53.1188 800.939 47.3897 800.939 L46.0847 800.939 L46.0847 806.763 M43.6657 795.082 L64.0042 795.082 L64.0042 800.939 L58.5933 800.939 Q61.8398 802.944 63.3994 805.936 Q64.9272 808.928 64.9272 813.256 Q64.9272 818.731 61.8716 821.977 Q58.7843 825.192 53.6281 825.192 Q47.6125 825.192 44.5569 821.181 Q41.5014 817.139 41.5014 809.15 L41.5014 800.939 L40.9285 800.939 Q36.8862 800.939 34.6901 803.612 Q32.4621 806.254 32.4621 811.06 Q32.4621 814.116 33.1941 817.012 Q33.9262 819.908 35.3903 822.582 L29.9795 822.582 Q28.7381 819.367 28.1334 816.344 Q27.4968 813.32 27.4968 810.455 Q27.4968 802.721 31.5072 798.902 Q35.5176 795.082 43.6657 795.082 Z" fill="#000000" fill-rule="nonzero" fill-opacity="1" /><path clip-path="url(#clip840)" d="M33.8307 762.362 Q33.2578 763.349 33.0032 764.527 Q32.7167 765.673 32.7167 767.073 Q32.7167 772.038 35.9632 774.712 Q39.1779 777.354 45.2253 777.354 L64.0042 777.354 L64.0042 783.242 L28.3562 783.242 L28.3562 777.354 L33.8944 777.354 Q30.6479 775.508 29.0883 772.547 Q27.4968 769.587 27.4968 765.354 Q27.4968 764.75 27.5923 764.017 Q27.656 763.285 27.8151 762.394 L33.8307 762.362 Z" fill="#000000" fill-rule="nonzero" fill-opacity="1" /><path clip-path="url(#clip840)" d="M64.0042 722.99 L16.4842 741.133 L16.4842 734.417 L56.4926 719.362 L16.4842 704.275 L16.4842 697.591 L64.0042 715.702 L64.0042 722.99 Z" fill="#000000" fill-rule="nonzero" fill-opacity="1" /><path clip-path="url(#clip840)" d="M46.0847 679.767 Q46.0847 686.865 47.7079 689.602 Q49.3312 692.34 53.2461 692.34 Q56.3653 692.34 58.2114 690.303 Q60.0256 688.234 60.0256 684.701 Q60.0256 679.831 56.5881 676.903 Q53.1188 673.943 47.3897 673.943 L46.0847 673.943 L46.0847 679.767 M43.6657 668.086 L64.0042 668.086 L64.0042 673.943 L58.5933 673.943 Q61.8398 675.948 63.3994 678.94 Q64.9272 681.932 64.9272 686.26 Q64.9272 691.735 61.8716 694.981 Q58.7843 698.196 53.6281 698.196 Q47.6125 698.196 44.5569 694.186 Q41.5014 690.143 41.5014 682.154 L41.5014 673.943 L40.9285 673.943 Q36.8862 673.943 34.6901 676.616 Q32.4621 679.258 32.4621 684.064 Q32.4621 687.12 33.1941 690.016 Q33.9262 692.913 35.3903 695.586 L29.9795 695.586 Q28.7381 692.371 28.1334 689.348 Q27.4968 686.324 27.4968 683.459 Q27.4968 675.725 31.5072 671.906 Q35.5176 668.086 43.6657 668.086 Z" fill="#000000" fill-rule="nonzero" fill-opacity="1" /><path clip-path="url(#clip840)" d="M14.479 656.023 L14.479 650.167 L64.0042 650.167 L64.0042 656.023 L14.479 656.023 Z" fill="#000000" fill-rule="nonzero" fill-opacity="1" /><path clip-path="url(#clip840)" d="M49.9359 638.518 L28.3562 638.518 L28.3562 632.661 L49.7131 632.661 Q54.7739 632.661 57.3202 630.688 Q59.8346 628.714 59.8346 624.768 Q59.8346 620.025 56.8109 617.288 Q53.7872 614.519 48.5673 614.519 L28.3562 614.519 L28.3562 608.662 L64.0042 608.662 L64.0042 614.519 L58.5296 614.519 Q61.7762 616.651 63.3676 619.484 Q64.9272 622.285 64.9272 626.009 Q64.9272 632.152 61.1078 635.335 Q57.2883 638.518 49.9359 638.518 M27.4968 623.781 L27.4968 623.781 Z" fill="#000000" fill-rule="nonzero" fill-opacity="1" /><path clip-path="url(#clip840)" d="M44.7161 566.108 L47.5806 566.108 L47.5806 593.035 Q53.6281 592.653 56.8109 589.406 Q59.9619 586.128 59.9619 580.303 Q59.9619 576.929 59.1344 573.778 Q58.3069 570.595 56.6518 567.476 L62.1899 567.476 Q63.5267 570.627 64.227 573.937 Q64.9272 577.248 64.9272 580.653 Q64.9272 589.183 59.9619 594.18 Q54.9967 599.146 46.5303 599.146 Q37.7774 599.146 32.6531 594.435 Q27.4968 589.693 27.4968 581.672 Q27.4968 574.479 32.1438 570.309 Q36.7589 566.108 44.7161 566.108 M42.9973 571.964 Q38.1912 572.028 35.3266 574.67 Q32.4621 577.279 32.4621 581.608 Q32.4621 586.51 35.2312 589.47 Q38.0002 592.398 43.0292 592.844 L42.9973 571.964 Z" fill="#000000" fill-rule="nonzero" fill-opacity="1" /><path clip-path="url(#clip840)" d="M29.4065 533.77 L34.9447 533.77 Q33.6716 536.252 33.035 538.926 Q32.3984 541.6 32.3984 544.464 Q32.3984 548.825 33.7352 551.021 Q35.072 553.185 37.7456 553.185 Q39.7826 553.185 40.9603 551.626 Q42.1061 550.066 43.1565 545.355 L43.6021 543.35 Q44.9389 537.112 47.3897 534.502 Q49.8086 531.86 54.1691 531.86 Q59.1344 531.86 62.0308 535.807 Q64.9272 539.722 64.9272 546.597 Q64.9272 549.461 64.3543 552.58 Q63.8132 555.668 62.6992 559.105 L56.6518 559.105 Q58.3387 555.859 59.198 552.708 Q60.0256 549.557 60.0256 546.469 Q60.0256 542.332 58.6251 540.104 Q57.1929 537.876 54.6147 537.876 Q52.2276 537.876 50.9545 539.499 Q49.6813 541.09 48.5037 546.533 L48.0262 548.57 Q46.8804 554.013 44.5251 556.432 Q42.138 558.851 38.0002 558.851 Q32.9713 558.851 30.2341 555.286 Q27.4968 551.721 27.4968 545.164 Q27.4968 541.918 27.9743 539.053 Q28.4517 536.189 29.4065 533.77 Z" fill="#000000" fill-rule="nonzero" fill-opacity="1" /><path clip-path="url(#clip840)" d="M1126.44 14.0809 L1126.44 22.0612 Q1121.78 19.8332 1117.65 18.7395 Q1113.52 17.6457 1109.67 17.6457 Q1102.99 17.6457 1099.34 20.2383 Q1095.74 22.8309 1095.74 27.611 Q1095.74 31.6214 1098.13 33.6873 Q1100.56 35.7128 1107.28 36.9686 L1112.22 37.9813 Q1121.38 39.7232 1125.71 44.1387 Q1130.09 48.5136 1130.09 55.8863 Q1130.09 64.6767 1124.17 69.2137 Q1118.3 73.7508 1106.92 73.7508 Q1102.62 73.7508 1097.76 72.7785 Q1092.94 71.8063 1087.76 69.9024 L1087.76 61.4765 Q1092.74 64.2716 1097.52 65.6895 Q1102.3 67.1073 1106.92 67.1073 Q1113.92 67.1073 1117.73 64.3527 Q1121.54 61.598 1121.54 56.4939 Q1121.54 52.0379 1118.79 49.5264 Q1116.07 47.0148 1109.83 45.759 L1104.85 44.7868 Q1095.7 42.9639 1091.6 39.075 Q1087.51 35.1862 1087.51 28.2591 Q1087.51 20.2383 1093.14 15.6203 Q1098.81 11.0023 1108.74 11.0023 Q1112.99 11.0023 1117.41 11.7719 Q1121.82 12.5416 1126.44 14.0809 Z" fill="#000000" fill-rule="nonzero" fill-opacity="1" /><path clip-path="url(#clip840)" d="M1142.52 27.2059 L1149.98 27.2059 L1149.98 72.576 L1142.52 72.576 L1142.52 27.2059 M1142.52 9.54393 L1149.98 9.54393 L1149.98 18.9825 L1142.52 18.9825 L1142.52 9.54393 Z" fill="#000000" fill-rule="nonzero" fill-opacity="1" /><path clip-path="url(#clip840)" d="M1195.43 49.3643 Q1195.43 41.2625 1192.07 36.8065 Q1188.74 32.3505 1182.71 32.3505 Q1176.71 32.3505 1173.35 36.8065 Q1170.03 41.2625 1170.03 49.3643 Q1170.03 57.4256 1173.35 61.8816 Q1176.71 66.3376 1182.71 66.3376 Q1188.74 66.3376 1192.07 61.8816 Q1195.43 57.4256 1195.43 49.3643 M1202.88 66.9452 Q1202.88 78.5308 1197.74 84.1616 Q1192.59 89.8329 1181.98 89.8329 Q1178.05 89.8329 1174.57 89.2252 Q1171.08 88.6581 1167.8 87.4428 L1167.8 80.1917 Q1171.08 81.9741 1174.28 82.8248 Q1177.48 83.6755 1180.8 83.6755 Q1188.14 83.6755 1191.78 79.8271 Q1195.43 76.0193 1195.43 68.282 L1195.43 64.5957 Q1193.12 68.6061 1189.51 70.5911 Q1185.91 72.576 1180.89 72.576 Q1172.54 72.576 1167.44 66.2161 Q1162.33 59.8562 1162.33 49.3643 Q1162.33 38.832 1167.44 32.472 Q1172.54 26.1121 1180.89 26.1121 Q1185.91 26.1121 1189.51 28.0971 Q1193.12 30.082 1195.43 34.0924 L1195.43 27.2059 L1202.88 27.2059 L1202.88 66.9452 Z" fill="#000000" fill-rule="nonzero" fill-opacity="1" /><path clip-path="url(#clip840)" d="M1253.56 35.9153 Q1256.35 30.8922 1260.24 28.5022 Q1264.13 26.1121 1269.4 26.1121 Q1276.49 26.1121 1280.34 31.0947 Q1284.18 36.0368 1284.18 45.1919 L1284.18 72.576 L1276.69 72.576 L1276.69 45.4349 Q1276.69 38.913 1274.38 35.7533 Q1272.07 32.5936 1267.33 32.5936 Q1261.54 32.5936 1258.18 36.4419 Q1254.81 40.2903 1254.81 46.9338 L1254.81 72.576 L1247.32 72.576 L1247.32 45.4349 Q1247.32 38.8725 1245.01 35.7533 Q1242.7 32.5936 1237.88 32.5936 Q1232.17 32.5936 1228.81 36.4824 Q1225.45 40.3308 1225.45 46.9338 L1225.45 72.576 L1217.95 72.576 L1217.95 27.2059 L1225.45 27.2059 L1225.45 34.2544 Q1228 30.082 1231.56 28.0971 Q1235.13 26.1121 1240.03 26.1121 Q1244.97 26.1121 1248.41 28.6237 Q1251.9 31.1352 1253.56 35.9153 Z" fill="#000000" fill-rule="nonzero" fill-opacity="1" /><path clip-path="url(#clip840)" d="M1319.67 49.7694 Q1310.64 49.7694 1307.15 51.8354 Q1303.67 53.9013 1303.67 58.8839 Q1303.67 62.8538 1306.26 65.2034 Q1308.89 67.5124 1313.39 67.5124 Q1319.59 67.5124 1323.32 63.1374 Q1327.08 58.7219 1327.08 51.4303 L1327.08 49.7694 L1319.67 49.7694 M1334.54 46.6907 L1334.54 72.576 L1327.08 72.576 L1327.08 65.6895 Q1324.53 69.8214 1320.72 71.8063 Q1316.91 73.7508 1311.41 73.7508 Q1304.44 73.7508 1300.31 69.8619 Q1296.21 65.9325 1296.21 59.3701 Q1296.21 51.7138 1301.32 47.825 Q1306.46 43.9361 1316.63 43.9361 L1327.08 43.9361 L1327.08 43.2069 Q1327.08 38.0623 1323.68 35.2672 Q1320.32 32.4315 1314.2 32.4315 Q1310.31 32.4315 1306.63 33.3632 Q1302.94 34.295 1299.54 36.1584 L1299.54 29.2718 Q1303.63 27.692 1307.48 26.9223 Q1311.32 26.1121 1314.97 26.1121 Q1324.81 26.1121 1329.68 31.2163 Q1334.54 36.3204 1334.54 46.6907 Z" fill="#000000" fill-rule="nonzero" fill-opacity="1" /><path clip-path="url(#clip840)" d="M1384.77 18.8205 L1384.77 41.5461 L1395.06 41.5461 Q1400.77 41.5461 1403.89 38.5889 Q1407.01 35.6318 1407.01 30.163 Q1407.01 24.7348 1403.89 21.7777 Q1400.77 18.8205 1395.06 18.8205 L1384.77 18.8205 M1376.58 12.096 L1395.06 12.096 Q1405.22 12.096 1410.41 16.714 Q1415.64 21.2916 1415.64 30.163 Q1415.64 39.1155 1410.41 43.6931 Q1405.22 48.2706 1395.06 48.2706 L1384.77 48.2706 L1384.77 72.576 L1376.58 72.576 L1376.58 12.096 Z" fill="#000000" fill-rule="nonzero" fill-opacity="1" /><path clip-path="url(#clip840)" d="M1426.29 9.54393 L1433.74 9.54393 L1433.74 72.576 L1426.29 72.576 L1426.29 9.54393 Z" fill="#000000" fill-rule="nonzero" fill-opacity="1" /><path clip-path="url(#clip840)" d="M1466.92 32.4315 Q1460.92 32.4315 1457.44 37.1306 Q1453.96 41.7891 1453.96 49.9314 Q1453.96 58.0738 1457.4 62.7728 Q1460.88 67.4314 1466.92 67.4314 Q1472.87 67.4314 1476.36 62.7323 Q1479.84 58.0333 1479.84 49.9314 Q1479.84 41.8701 1476.36 37.1711 Q1472.87 32.4315 1466.92 32.4315 M1466.92 26.1121 Q1476.64 26.1121 1482.19 32.4315 Q1487.74 38.7509 1487.74 49.9314 Q1487.74 61.0714 1482.19 67.4314 Q1476.64 73.7508 1466.92 73.7508 Q1457.16 73.7508 1451.61 67.4314 Q1446.1 61.0714 1446.1 49.9314 Q1446.1 38.7509 1451.61 32.4315 Q1457.16 26.1121 1466.92 26.1121 Z" fill="#000000" fill-rule="nonzero" fill-opacity="1" /><path clip-path="url(#clip840)" d="M1507.47 14.324 L1507.47 27.2059 L1522.82 27.2059 L1522.82 32.9987 L1507.47 32.9987 L1507.47 57.6282 Q1507.47 63.1779 1508.97 64.7578 Q1510.51 66.3376 1515.17 66.3376 L1522.82 66.3376 L1522.82 72.576 L1515.17 72.576 Q1506.54 72.576 1503.26 69.3758 Q1499.98 66.1351 1499.98 57.6282 L1499.98 32.9987 L1494.51 32.9987 L1494.51 27.2059 L1499.98 27.2059 L1499.98 14.324 L1507.47 14.324 Z" fill="#000000" fill-rule="nonzero" fill-opacity="1" /><polyline clip-path="url(#clip842)" style="stroke:#009af9; stroke-linecap:round; stroke-linejoin:round; stroke-width:4; stroke-opacity:1; fill:none" points="316.876,832.703 575.706,832.779 727.111,832.905 834.535,833.078 917.859,833.296 985.94,833.555 1043.5,833.853 1093.36,834.185 1137.35,834.545 1176.69,834.928 1212.28,835.327 1244.77,835.737 1274.66,836.149 1302.33,836.555 1328.09,836.949 1352.19,837.32 1374.83,837.661 1396.17,837.963 1416.36,838.214 1435.52,838.406 1453.74,838.529 1471.11,838.571 1487.71,838.523 1503.6,838.373 1518.84,838.11 1533.49,837.722 1547.58,837.197 1561.16,836.524 1574.26,835.689 1586.92,834.681 1599.17,833.485 1611.02,832.09 1622.51,830.481 1633.66,828.644 1644.48,826.566 1655,824.231 1665.24,821.627 1675.19,818.737 1684.89,815.546 1694.35,812.041 1703.57,808.205 1712.57,804.022 1721.35,799.479 1729.94,794.558 1738.33,789.246 1746.54,783.527 1754.57,777.385 1762.43,770.805 1770.13,763.773 1777.67,756.274 1785.07,748.294 1792.32,739.818 1799.43,730.832 1806.41,721.323 1813.26,711.275 1819.99,700.677 1826.6,689.514 1833.09,677.772 1839.48,665.439 1845.75,652.502 1851.92,638.948 1858,624.763 1863.97,609.936 1869.85,594.455 1875.64,578.309 1881.34,561.49 1886.96,543.991 1892.49,525.807 1897.94,506.938 1903.31,487.39 1908.61,467.176 1913.83,446.32 1918.98,424.859 1924.06,402.848 1929.08,380.367 1934.02,357.525 1938.9,334.47 1943.72,311.395 1948.48,288.553 1953.18,266.255 1957.82,244.883 1962.4,224.881 1966.92,206.742 1971.4,190.978 1975.81,178.077 1980.18,168.447 1984.5,162.359 1988.77,159.909 1992.99,161 1997.16,165.361 2001.28,172.587 2005.37,182.201 2009.4,193.698 2013.4,206.6 2017.35,220.476 2021.26,234.961 2025.13,249.755 2028.96,264.622 2032.75,279.381 2036.5,293.896 2040.22,308.071 2043.9,321.837 2047.54,335.149 2051.15,347.979 2054.72,360.314 2058.26,372.149 2061.77,383.487 2065.24,394.337 2068.68,404.709 2072.09,414.619 2075.47,424.081 2078.82,433.113 2082.14,441.732 2085.43,449.955 2088.69,457.799 2091.92,465.282 2095.13,472.419 2098.31,479.227 2101.46,485.72 2104.58,491.914 2107.68,497.821 2110.75,503.457 2113.8,508.832 2116.83,513.96 2119.83,518.851 2122.8,523.517 2125.75,527.968 2128.68,532.213 2131.59,536.262 2134.47,540.124 2137.33,543.807 2140.17,547.319 2142.99,550.666 2145.79,553.858 2148.56,556.899 2151.32,559.796 2154.05,562.556 2156.77,565.184 2159.47,567.684 2162.14,570.064 2164.8,572.326 2167.44,574.476 2170.06,576.517 2172.66,578.455 2175.25,580.292 2177.81,582.032 2180.36,583.678 2182.89,585.234 2185.41,586.702 2187.91,588.084 2190.39,589.385 2192.85,590.604 2195.3,591.745 2197.73,592.808 2200.15,593.797 2202.55,594.711 2204.94,595.551 2207.31,596.319 2209.66,597.015 2212.01,597.638 2214.33,598.189 2216.64,598.667 2218.94,599.07 2221.23,599.396 2223.5,599.645 2225.75,599.811 2228,599.893 2230.22,599.886 2232.44,599.783 2234.64,599.579 2236.83,599.264 2239.01,598.83 2241.18,598.264 2243.33,597.552 2245.47,596.677 2247.6,595.618 2249.71,594.35 2251.82,592.842 2253.91,591.057 2255.99,588.95 2258.06,586.466 2260.11,583.537 2262.16,580.08 2264.19,575.994 2266.22,571.157 2268.23,565.422 2270.23,558.616 2272.23,550.544 2274.21,540.992 2276.18,529.752 2278.14,516.662 2280.09,501.666 2282.03,484.908 2283.96,466.855 2285.88,448.409 2287.79,430.971 2289.69,416.371 2291.58,406.563 2293.46,403.094 "/>
<polyline clip-path="url(#clip842)" style="stroke:#009af9; stroke-linecap:round; stroke-linejoin:round; stroke-width:4; stroke-opacity:1; fill:none" points="316.876,1340.76 575.706,1340.59 727.111,1340.29 834.535,1339.88 917.859,1339.36 985.94,1338.72 1043.5,1337.96 1093.36,1337.1 1137.35,1336.12 1176.69,1335.03 1212.28,1333.83 1244.77,1332.52 1274.66,1331.12 1302.33,1329.6 1328.09,1327.99 1352.19,1326.29 1374.83,1324.49 1396.17,1322.6 1416.36,1320.62 1435.52,1318.56 1453.74,1316.42 1471.11,1314.21 1487.71,1311.93 1503.6,1309.58 1518.84,1307.17 1533.49,1304.71 1547.58,1302.2 1561.16,1299.65 1574.26,1297.07 1586.92,1294.45 1599.17,1291.82 1611.02,1289.17 1622.51,1286.51 1633.66,1283.86 1644.48,1281.22 1655,1278.59 1665.24,1276 1675.19,1273.44 1684.89,1270.92 1694.35,1268.46 1703.57,1266.07 1712.57,1263.74 1721.35,1261.49 1729.94,1259.34 1738.33,1257.28 1746.54,1255.32 1754.57,1253.48 1762.43,1251.75 1770.13,1250.15 1777.67,1248.68 1785.07,1247.34 1792.32,1246.15 1799.43,1245.1 1806.41,1244.19 1813.26,1243.44 1819.99,1242.84 1826.6,1242.39 1833.09,1242.09 1839.48,1241.94 1845.75,1241.95 1851.92,1242.11 1858,1242.42 1863.97,1242.87 1869.85,1243.47 1875.64,1244.21 1881.34,1245.09 1886.96,1246.1 1892.49,1247.25 1897.94,1248.52 1903.31,1249.91 1908.61,1251.43 1913.83,1253.05 1918.98,1254.79 1924.06,1256.62 1929.08,1258.56 1934.02,1260.59 1938.9,1262.71 1943.72,1264.92 1948.48,1267.2 1953.18,1269.56 1957.82,1271.98 1962.4,1274.47 1966.92,1277.01 1971.4,1279.6 1975.81,1282.25 1980.18,1284.93 1984.5,1287.65 1988.77,1290.4 1992.99,1293.17 1997.16,1295.96 2001.28,1298.77 2005.37,1301.59 2009.4,1304.42 2013.4,1307.24 2017.35,1310.07 2021.26,1312.88 2025.13,1315.67 2028.96,1318.45 2032.75,1321.21 2036.5,1323.93 2040.22,1326.63 2043.9,1329.29 2047.54,1331.91 2051.15,1334.48 2054.72,1337.01 2058.26,1339.49 2061.77,1341.91 2065.24,1344.26 2068.68,1346.56 2072.09,1348.79 2075.47,1350.95 2078.82,1353.04 2082.14,1355.05 2085.43,1356.97 2088.69,1358.82 2091.92,1360.58 2095.13,1362.25 2098.31,1363.82 2101.46,1365.3 2104.58,1366.69 2107.68,1367.96 2110.75,1369.14 2113.8,1370.2 2116.83,1371.16 2119.83,1372 2122.8,1372.72 2125.75,1373.32 2128.68,1373.8 2131.59,1374.15 2134.47,1374.37 2137.33,1374.46 2140.17,1374.41 2142.99,1374.22 2145.79,1373.88 2148.56,1373.4 2151.32,1372.76 2154.05,1371.97 2156.77,1371.02 2159.47,1369.91 2162.14,1368.62 2164.8,1367.17 2167.44,1365.53 2170.06,1363.72 2172.66,1361.71 2175.25,1359.52 2177.81,1357.12 2180.36,1354.52 2182.89,1351.71 2185.41,1348.69 2187.91,1345.44 2190.39,1341.97 2192.85,1338.25 2195.3,1334.3 2197.73,1330.09 2200.15,1325.62 2202.55,1320.88 2204.94,1315.87 2207.31,1310.57 2209.66,1304.98 2212.01,1299.07 2214.33,1292.85 2216.64,1286.3 2218.94,1279.41 2221.23,1272.17 2223.5,1264.56 2225.75,1256.57 2228,1248.18 2230.22,1239.38 2232.44,1230.16 2234.64,1220.5 2236.83,1210.38 2239.01,1199.79 2241.18,1188.7 2243.33,1177.11 2245.47,1164.99 2247.6,1152.32 2249.71,1139.1 2251.82,1125.3 2253.91,1110.92 2255.99,1095.95 2258.06,1080.4 2260.11,1064.27 2262.16,1047.58 2264.19,1030.37 2266.22,1012.71 2268.23,994.681 2270.23,976.406 2272.23,958.056 2274.21,939.847 2276.18,922.047 2278.14,904.972 2280.09,888.966 2282.03,874.385 2283.96,861.557 2285.88,850.762 2287.79,842.204 2289.69,836.021 2291.58,832.288 2293.46,831.041 "/>
<polyline clip-path="url(#clip842)" style="stroke:#e26f46; stroke-linecap:round; stroke-linejoin:round; stroke-width:4; stroke-opacity:1; fill:none" points="316.876,832.703 575.706,832.779 727.111,832.905 834.535,833.078 917.859,833.296 985.94,833.555 1043.5,833.853 1093.36,834.185 1137.35,834.545 1176.69,834.928 1212.28,835.327 1244.77,835.737 1274.66,836.149 1302.33,836.555 1328.09,836.949 1352.19,837.32 1374.83,837.661 1396.17,837.963 1416.36,838.214 1435.52,838.406 1453.74,838.529 1471.11,838.571 1487.71,838.523 1503.6,838.373 1518.84,838.11 1533.49,837.722 1547.58,837.197 1561.16,836.524 1574.26,835.689 1586.92,834.681 1599.17,833.485 1611.02,832.09 1622.51,830.481 1633.66,828.644 1644.48,826.566 1655,824.231 1665.24,821.627 1675.19,818.737 1684.89,815.546 1694.35,812.041 1703.57,808.205 1712.57,804.022 1721.35,799.479 1729.94,794.558 1738.33,789.246 1746.54,783.527 1754.57,777.385 1762.43,770.805 1770.13,763.773 1777.67,756.274 1785.07,748.294 1792.32,739.818 1799.43,730.832 1806.41,721.323 1813.26,711.275 1819.99,700.677 1826.6,689.514 1833.09,677.772 1839.48,665.439 1845.75,652.502 1851.92,638.948 1858,624.763 1863.97,609.936 1869.85,594.455 1875.64,578.309 1881.34,561.49 1886.96,543.991 1892.49,525.807 1897.94,506.938 1903.31,487.39 1908.61,467.176 1913.83,446.32 1918.98,424.859 1924.06,402.848 1929.08,380.367 1934.02,357.525 1938.9,334.47 1943.72,311.395 1948.48,288.553 1953.18,266.255 1957.82,244.883 1962.4,224.881 1966.92,206.742 1971.4,190.978 1975.81,178.077 1980.18,168.447 1984.5,162.359 1988.77,159.909 1992.99,161 1997.16,165.361 2001.28,172.587 2005.37,182.201 2009.4,193.698 2013.4,206.6 2017.35,220.476 2021.26,234.961 2025.13,249.755 2028.96,264.622 2032.75,279.381 2036.5,293.896 2040.22,308.071 2043.9,321.837 2047.54,335.149 2051.15,347.979 2054.72,360.314 2058.26,372.149 2061.77,383.487 2065.24,394.337 2068.68,404.709 2072.09,414.619 2075.47,424.081 2078.82,433.113 2082.14,441.732 2085.43,449.955 2088.69,457.799 2091.92,465.282 2095.13,472.419 2098.31,479.227 2101.46,485.72 2104.58,491.914 2107.68,497.821 2110.75,503.457 2113.8,508.832 2116.83,513.96 2119.83,518.851 2122.8,523.517 2125.75,527.968 2128.68,532.213 2131.59,536.262 2134.47,540.124 2137.33,543.807 2140.17,547.319 2142.99,550.666 2145.79,553.858 2148.56,556.899 2151.32,559.796 2154.05,562.556 2156.77,565.184 2159.47,567.684 2162.14,570.064 2164.8,572.326 2167.44,574.476 2170.06,576.517 2172.66,578.455 2175.25,580.292 2177.81,582.032 2180.36,583.678 2182.89,585.234 2185.41,586.702 2187.91,588.084 2190.39,589.385 2192.85,590.604 2195.3,591.745 2197.73,592.808 2200.15,593.797 2202.55,594.711 2204.94,595.551 2207.31,596.319 2209.66,597.015 2212.01,597.638 2214.33,598.189 2216.64,598.667 2218.94,599.07 2221.23,599.396 2223.5,599.645 2225.75,599.811 2228,599.893 2230.22,599.886 2232.44,599.783 2234.64,599.579 2236.83,599.264 2239.01,598.83 2241.18,598.264 2243.33,597.552 2245.47,596.677 2247.6,595.618 2249.71,594.35 2251.82,592.842 2253.91,591.057 2255.99,588.95 2258.06,586.466 2260.11,583.537 2262.16,580.08 2264.19,575.994 2266.22,571.157 2268.23,565.422 2270.23,558.616 2272.23,550.544 2274.21,540.992 2276.18,529.752 2278.14,516.662 2280.09,501.666 2282.03,484.908 2283.96,466.855 2285.88,448.409 2287.79,430.971 2289.69,416.371 2291.58,406.563 2293.46,403.094 "/>
<polyline clip-path="url(#clip842)" style="stroke:#e26f46; stroke-linecap:round; stroke-linejoin:round; stroke-width:4; stroke-opacity:1; fill:none" points="316.876,1340.76 575.706,1340.59 727.111,1340.29 834.535,1339.88 917.859,1339.36 985.94,1338.72 1043.5,1337.96 1093.36,1337.1 1137.35,1336.12 1176.69,1335.03 1212.28,1333.83 1244.77,1332.52 1274.66,1331.12 1302.33,1329.6 1328.09,1327.99 1352.19,1326.29 1374.83,1324.49 1396.17,1322.6 1416.36,1320.62 1435.52,1318.56 1453.74,1316.42 1471.11,1314.21 1487.71,1311.93 1503.6,1309.58 1518.84,1307.17 1533.49,1304.71 1547.58,1302.2 1561.16,1299.65 1574.26,1297.07 1586.92,1294.45 1599.17,1291.82 1611.02,1289.17 1622.51,1286.51 1633.66,1283.86 1644.48,1281.22 1655,1278.59 1665.24,1276 1675.19,1273.44 1684.89,1270.92 1694.35,1268.46 1703.57,1266.07 1712.57,1263.74 1721.35,1261.49 1729.94,1259.34 1738.33,1257.28 1746.54,1255.32 1754.57,1253.48 1762.43,1251.75 1770.13,1250.15 1777.67,1248.68 1785.07,1247.34 1792.32,1246.15 1799.43,1245.1 1806.41,1244.19 1813.26,1243.44 1819.99,1242.84 1826.6,1242.39 1833.09,1242.09 1839.48,1241.94 1845.75,1241.95 1851.92,1242.11 1858,1242.42 1863.97,1242.87 1869.85,1243.47 1875.64,1244.21 1881.34,1245.09 1886.96,1246.1 1892.49,1247.25 1897.94,1248.52 1903.31,1249.91 1908.61,1251.43 1913.83,1253.05 1918.98,1254.79 1924.06,1256.62 1929.08,1258.56 1934.02,1260.59 1938.9,1262.71 1943.72,1264.92 1948.48,1267.2 1953.18,1269.56 1957.82,1271.98 1962.4,1274.47 1966.92,1277.01 1971.4,1279.6 1975.81,1282.25 1980.18,1284.93 1984.5,1287.65 1988.77,1290.4 1992.99,1293.17 1997.16,1295.96 2001.28,1298.77 2005.37,1301.59 2009.4,1304.42 2013.4,1307.24 2017.35,1310.07 2021.26,1312.88 2025.13,1315.67 2028.96,1318.45 2032.75,1321.21 2036.5,1323.93 2040.22,1326.63 2043.9,1329.29 2047.54,1331.91 2051.15,1334.48 2054.72,1337.01 2058.26,1339.49 2061.77,1341.91 2065.24,1344.26 2068.68,1346.56 2072.09,1348.79 2075.47,1350.95 2078.82,1353.04 2082.14,1355.05 2085.43,1356.97 2088.69,1358.82 2091.92,1360.58 2095.13,1362.25 2098.31,1363.82 2101.46,1365.3 2104.58,1366.69 2107.68,1367.96 2110.75,1369.14 2113.8,1370.2 2116.83,1371.16 2119.83,1372 2122.8,1372.72 2125.75,1373.32 2128.68,1373.8 2131.59,1374.15 2134.47,1374.37 2137.33,1374.46 2140.17,1374.41 2142.99,1374.22 2145.79,1373.88 2148.56,1373.4 2151.32,1372.76 2154.05,1371.97 2156.77,1371.02 2159.47,1369.91 2162.14,1368.62 2164.8,1367.17 2167.44,1365.53 2170.06,1363.72 2172.66,1361.71 2175.25,1359.52 2177.81,1357.12 2180.36,1354.52 2182.89,1351.71 2185.41,1348.69 2187.91,1345.44 2190.39,1341.97 2192.85,1338.25 2195.3,1334.3 2197.73,1330.09 2200.15,1325.62 2202.55,1320.88 2204.94,1315.87 2207.31,1310.57 2209.66,1304.98 2212.01,1299.07 2214.33,1292.85 2216.64,1286.3 2218.94,1279.41 2221.23,1272.17 2223.5,1264.56 2225.75,1256.57 2228,1248.18 2230.22,1239.38 2232.44,1230.16 2234.64,1220.5 2236.83,1210.38 2239.01,1199.79 2241.18,1188.7 2243.33,1177.11 2245.47,1164.99 2247.6,1152.32 2249.71,1139.1 2251.82,1125.3 2253.91,1110.92 2255.99,1095.95 2258.06,1080.4 2260.11,1064.27 2262.16,1047.58 2264.19,1030.37 2266.22,1012.71 2268.23,994.681 2270.23,976.406 2272.23,958.056 2274.21,939.847 2276.18,922.047 2278.14,904.972 2280.09,888.966 2282.03,874.385 2283.96,861.557 2285.88,850.762 2287.79,842.204 2289.69,836.021 2291.58,832.288 2293.46,831.041 "/>
<path clip-path="url(#clip840)" d="M1680.32 321.906 L2282.92 321.906 L2282.92 166.386 L1680.32 166.386  Z" fill="#ffffff" fill-rule="evenodd" fill-opacity="1"/>
<polyline clip-path="url(#clip840)" style="stroke:#000000; stroke-linecap:round; stroke-linejoin:round; stroke-width:4; stroke-opacity:1; fill:none" points="1680.32,321.906 2282.92,321.906 2282.92,166.386 1680.32,166.386 1680.32,321.906 "/>
<polyline clip-path="url(#clip840)" style="stroke:#009af9; stroke-linecap:round; stroke-linejoin:round; stroke-width:4; stroke-opacity:1; fill:none" points="1703.6,218.226 1843.28,218.226 "/>
<path clip-path="url(#clip840)" d="M1866.56 200.946 L1895.8 200.946 L1895.8 204.881 L1883.53 204.881 L1883.53 235.506 L1878.83 235.506 L1878.83 204.881 L1866.56 204.881 L1866.56 200.946 Z" fill="#000000" fill-rule="nonzero" fill-opacity="1" /><path clip-path="url(#clip840)" d="M1908.18 213.562 Q1907.46 213.145 1906.61 212.96 Q1905.77 212.752 1904.75 212.752 Q1901.14 212.752 1899.2 215.113 Q1897.28 217.451 1897.28 221.849 L1897.28 235.506 L1893 235.506 L1893 209.58 L1897.28 209.58 L1897.28 213.608 Q1898.62 211.247 1900.77 210.113 Q1902.93 208.955 1906 208.955 Q1906.44 208.955 1906.98 209.025 Q1907.51 209.071 1908.16 209.187 L1908.18 213.562 Z" fill="#000000" fill-rule="nonzero" fill-opacity="1" /><path clip-path="url(#clip840)" d="M1912.21 225.275 L1912.21 209.58 L1916.47 209.58 L1916.47 225.113 Q1916.47 228.793 1917.9 230.645 Q1919.34 232.474 1922.21 232.474 Q1925.66 232.474 1927.65 230.275 Q1929.66 228.076 1929.66 224.279 L1929.66 209.58 L1933.92 209.58 L1933.92 235.506 L1929.66 235.506 L1929.66 231.525 Q1928.11 233.886 1926.05 235.043 Q1924.01 236.178 1921.31 236.178 Q1916.84 236.178 1914.52 233.4 Q1912.21 230.622 1912.21 225.275 M1922.93 208.955 L1922.93 208.955 Z" fill="#000000" fill-rule="nonzero" fill-opacity="1" /><path clip-path="url(#clip840)" d="M1964.87 221.479 L1964.87 223.562 L1945.29 223.562 Q1945.56 227.96 1947.93 230.275 Q1950.31 232.566 1954.55 232.566 Q1957 232.566 1959.29 231.965 Q1961.61 231.363 1963.87 230.159 L1963.87 234.187 Q1961.58 235.159 1959.18 235.668 Q1956.77 236.178 1954.29 236.178 Q1948.09 236.178 1944.45 232.566 Q1940.84 228.955 1940.84 222.798 Q1940.84 216.432 1944.27 212.705 Q1947.72 208.955 1953.55 208.955 Q1958.78 208.955 1961.81 212.335 Q1964.87 215.692 1964.87 221.479 M1960.61 220.229 Q1960.56 216.733 1958.64 214.65 Q1956.75 212.567 1953.6 212.567 Q1950.03 212.567 1947.88 214.58 Q1945.75 216.594 1945.43 220.252 L1960.61 220.229 Z" fill="#000000" fill-rule="nonzero" fill-opacity="1" /><path clip-path="url(#clip840)" d="M2003.46 210.344 L2003.46 214.372 Q2001.65 213.446 1999.71 212.983 Q1997.76 212.52 1995.68 212.52 Q1992.51 212.52 1990.91 213.493 Q1989.34 214.465 1989.34 216.409 Q1989.34 217.891 1990.47 218.747 Q1991.61 219.58 1995.03 220.344 L1996.49 220.668 Q2001.03 221.641 2002.93 223.423 Q2004.85 225.182 2004.85 228.354 Q2004.85 231.965 2001.98 234.071 Q1999.13 236.178 1994.13 236.178 Q1992.05 236.178 1989.78 235.761 Q1987.53 235.367 1985.03 234.557 L1985.03 230.159 Q1987.39 231.386 1989.68 232.011 Q1991.98 232.613 1994.22 232.613 Q1997.23 232.613 1998.85 231.594 Q2000.47 230.553 2000.47 228.678 Q2000.47 226.942 1999.29 226.016 Q1998.13 225.09 1994.18 224.233 L1992.69 223.886 Q1988.74 223.053 1986.98 221.34 Q1985.22 219.604 1985.22 216.594 Q1985.22 212.937 1987.81 210.946 Q1990.4 208.955 1995.17 208.955 Q1997.53 208.955 1999.62 209.303 Q2001.7 209.65 2003.46 210.344 Z" fill="#000000" fill-rule="nonzero" fill-opacity="1" /><path clip-path="url(#clip840)" d="M2022.42 237.914 Q2020.61 242.543 2018.9 243.955 Q2017.18 245.367 2014.31 245.367 L2010.91 245.367 L2010.91 241.803 L2013.41 241.803 Q2015.17 241.803 2016.14 240.969 Q2017.12 240.136 2018.3 237.034 L2019.06 235.09 L2008.57 209.58 L2013.09 209.58 L2021.19 229.858 L2029.29 209.58 L2033.8 209.58 L2022.42 237.914 Z" fill="#000000" fill-rule="nonzero" fill-opacity="1" /><path clip-path="url(#clip840)" d="M2056.21 210.344 L2056.21 214.372 Q2054.41 213.446 2052.46 212.983 Q2050.52 212.52 2048.43 212.52 Q2045.26 212.52 2043.67 213.493 Q2042.09 214.465 2042.09 216.409 Q2042.09 217.891 2043.23 218.747 Q2044.36 219.58 2047.79 220.344 L2049.24 220.668 Q2053.78 221.641 2055.68 223.423 Q2057.6 225.182 2057.6 228.354 Q2057.6 231.965 2054.73 234.071 Q2051.88 236.178 2046.88 236.178 Q2044.8 236.178 2042.53 235.761 Q2040.29 235.367 2037.79 234.557 L2037.79 230.159 Q2040.15 231.386 2042.44 232.011 Q2044.73 232.613 2046.98 232.613 Q2049.99 232.613 2051.61 231.594 Q2053.23 230.553 2053.23 228.678 Q2053.23 226.942 2052.05 226.016 Q2050.89 225.09 2046.93 224.233 L2045.45 223.886 Q2041.49 223.053 2039.73 221.34 Q2037.97 219.604 2037.97 216.594 Q2037.97 212.937 2040.56 210.946 Q2043.16 208.955 2047.93 208.955 Q2050.29 208.955 2052.37 209.303 Q2054.45 209.65 2056.21 210.344 Z" fill="#000000" fill-rule="nonzero" fill-opacity="1" /><path clip-path="url(#clip840)" d="M2068.6 202.219 L2068.6 209.58 L2077.37 209.58 L2077.37 212.891 L2068.6 212.891 L2068.6 226.965 Q2068.6 230.136 2069.45 231.039 Q2070.33 231.941 2072.99 231.941 L2077.37 231.941 L2077.37 235.506 L2072.99 235.506 Q2068.06 235.506 2066.19 233.678 Q2064.31 231.826 2064.31 226.965 L2064.31 212.891 L2061.19 212.891 L2061.19 209.58 L2064.31 209.58 L2064.31 202.219 L2068.6 202.219 Z" fill="#000000" fill-rule="nonzero" fill-opacity="1" /><path clip-path="url(#clip840)" d="M2105.15 221.479 L2105.15 223.562 L2085.56 223.562 Q2085.84 227.96 2088.2 230.275 Q2090.59 232.566 2094.82 232.566 Q2097.28 232.566 2099.57 231.965 Q2101.88 231.363 2104.15 230.159 L2104.15 234.187 Q2101.86 235.159 2099.45 235.668 Q2097.05 236.178 2094.57 236.178 Q2088.36 236.178 2084.73 232.566 Q2081.12 228.955 2081.12 222.798 Q2081.12 216.432 2084.55 212.705 Q2087.99 208.955 2093.83 208.955 Q2099.06 208.955 2102.09 212.335 Q2105.15 215.692 2105.15 221.479 M2100.89 220.229 Q2100.84 216.733 2098.92 214.65 Q2097.02 212.567 2093.87 212.567 Q2090.31 212.567 2088.16 214.58 Q2086.03 216.594 2085.7 220.252 L2100.89 220.229 Z" fill="#000000" fill-rule="nonzero" fill-opacity="1" /><path clip-path="url(#clip840)" d="M2132.32 214.557 Q2133.92 211.687 2136.14 210.321 Q2138.36 208.955 2141.37 208.955 Q2145.42 208.955 2147.62 211.803 Q2149.82 214.627 2149.82 219.858 L2149.82 235.506 L2145.54 235.506 L2145.54 219.997 Q2145.54 216.27 2144.22 214.465 Q2142.9 212.659 2140.19 212.659 Q2136.88 212.659 2134.96 214.858 Q2133.04 217.057 2133.04 220.854 L2133.04 235.506 L2128.76 235.506 L2128.76 219.997 Q2128.76 216.247 2127.44 214.465 Q2126.12 212.659 2123.36 212.659 Q2120.1 212.659 2118.18 214.881 Q2116.26 217.08 2116.26 220.854 L2116.26 235.506 L2111.98 235.506 L2111.98 209.58 L2116.26 209.58 L2116.26 213.608 Q2117.72 211.224 2119.75 210.09 Q2121.79 208.955 2124.59 208.955 Q2127.42 208.955 2129.38 210.391 Q2131.37 211.826 2132.32 214.557 Z" fill="#000000" fill-rule="nonzero" fill-opacity="1" /><polyline clip-path="url(#clip840)" style="stroke:#e26f46; stroke-linecap:round; stroke-linejoin:round; stroke-width:4; stroke-opacity:1; fill:none" points="1703.6,270.066 1843.28,270.066 "/>
<path clip-path="url(#clip840)" d="M1866.56 252.786 L1888.41 252.786 L1888.41 256.721 L1871.24 256.721 L1871.24 266.953 L1887.69 266.953 L1887.69 270.888 L1871.24 270.888 L1871.24 283.411 L1888.83 283.411 L1888.83 287.346 L1866.56 287.346 L1866.56 252.786 Z" fill="#000000" fill-rule="nonzero" fill-opacity="1" /><path clip-path="url(#clip840)" d="M1912.86 262.184 L1912.86 266.212 Q1911.05 265.286 1909.11 264.823 Q1907.16 264.36 1905.08 264.36 Q1901.91 264.36 1900.31 265.333 Q1898.74 266.305 1898.74 268.249 Q1898.74 269.731 1899.87 270.587 Q1901 271.42 1904.43 272.184 L1905.89 272.508 Q1910.43 273.481 1912.32 275.263 Q1914.25 277.022 1914.25 280.194 Q1914.25 283.805 1911.37 285.911 Q1908.53 288.018 1903.53 288.018 Q1901.44 288.018 1899.18 287.601 Q1896.93 287.207 1894.43 286.397 L1894.43 281.999 Q1896.79 283.226 1899.08 283.851 Q1901.37 284.453 1903.62 284.453 Q1906.63 284.453 1908.25 283.434 Q1909.87 282.393 1909.87 280.518 Q1909.87 278.782 1908.69 277.856 Q1907.53 276.93 1903.57 276.073 L1902.09 275.726 Q1898.13 274.893 1896.37 273.18 Q1894.62 271.444 1894.62 268.434 Q1894.62 264.777 1897.21 262.786 Q1899.8 260.795 1904.57 260.795 Q1906.93 260.795 1909.01 261.143 Q1911.1 261.49 1912.86 262.184 Z" fill="#000000" fill-rule="nonzero" fill-opacity="1" /><path clip-path="url(#clip840)" d="M1925.24 254.059 L1925.24 261.42 L1934.01 261.42 L1934.01 264.731 L1925.24 264.731 L1925.24 278.805 Q1925.24 281.976 1926.1 282.879 Q1926.98 283.781 1929.64 283.781 L1934.01 283.781 L1934.01 287.346 L1929.64 287.346 Q1924.71 287.346 1922.83 285.518 Q1920.96 283.666 1920.96 278.805 L1920.96 264.731 L1917.83 264.731 L1917.83 261.42 L1920.96 261.42 L1920.96 254.059 L1925.24 254.059 Z" fill="#000000" fill-rule="nonzero" fill-opacity="1" /><path clip-path="url(#clip840)" d="M1939.62 261.42 L1943.87 261.42 L1943.87 287.346 L1939.62 287.346 L1939.62 261.42 M1939.62 251.328 L1943.87 251.328 L1943.87 256.721 L1939.62 256.721 L1939.62 251.328 Z" fill="#000000" fill-rule="nonzero" fill-opacity="1" /><path clip-path="url(#clip840)" d="M1972.97 266.397 Q1974.57 263.527 1976.79 262.161 Q1979.01 260.795 1982.02 260.795 Q1986.07 260.795 1988.27 263.643 Q1990.47 266.467 1990.47 271.698 L1990.47 287.346 L1986.19 287.346 L1986.19 271.837 Q1986.19 268.11 1984.87 266.305 Q1983.55 264.499 1980.84 264.499 Q1977.53 264.499 1975.61 266.698 Q1973.69 268.897 1973.69 272.694 L1973.69 287.346 L1969.41 287.346 L1969.41 271.837 Q1969.41 268.087 1968.09 266.305 Q1966.77 264.499 1964.01 264.499 Q1960.75 264.499 1958.83 266.721 Q1956.91 268.92 1956.91 272.694 L1956.91 287.346 L1952.62 287.346 L1952.62 261.42 L1956.91 261.42 L1956.91 265.448 Q1958.37 263.064 1960.4 261.93 Q1962.44 260.795 1965.24 260.795 Q1968.06 260.795 1970.03 262.231 Q1972.02 263.666 1972.97 266.397 Z" fill="#000000" fill-rule="nonzero" fill-opacity="1" /><path clip-path="url(#clip840)" d="M2010.75 274.314 Q2005.59 274.314 2003.6 275.494 Q2001.61 276.675 2001.61 279.522 Q2001.61 281.791 2003.09 283.133 Q2004.59 284.453 2007.16 284.453 Q2010.7 284.453 2012.83 281.953 Q2014.99 279.43 2014.99 275.263 L2014.99 274.314 L2010.75 274.314 M2019.24 272.555 L2019.24 287.346 L2014.99 287.346 L2014.99 283.411 Q2013.53 285.772 2011.35 286.906 Q2009.18 288.018 2006.03 288.018 Q2002.05 288.018 1999.68 285.795 Q1997.35 283.55 1997.35 279.8 Q1997.35 275.425 2000.26 273.203 Q2003.2 270.981 2009.01 270.981 L2014.99 270.981 L2014.99 270.564 Q2014.99 267.624 2013.04 266.027 Q2011.12 264.407 2007.62 264.407 Q2005.4 264.407 2003.3 264.939 Q2001.19 265.471 1999.24 266.536 L1999.24 262.601 Q2001.58 261.698 2003.78 261.258 Q2005.98 260.795 2008.06 260.795 Q2013.69 260.795 2016.47 263.712 Q2019.24 266.629 2019.24 272.555 Z" fill="#000000" fill-rule="nonzero" fill-opacity="1" /><path clip-path="url(#clip840)" d="M2032.23 254.059 L2032.23 261.42 L2041 261.42 L2041 264.731 L2032.23 264.731 L2032.23 278.805 Q2032.23 281.976 2033.09 282.879 Q2033.97 283.781 2036.63 283.781 L2041 283.781 L2041 287.346 L2036.63 287.346 Q2031.7 287.346 2029.82 285.518 Q2027.95 283.666 2027.95 278.805 L2027.95 264.731 L2024.82 264.731 L2024.82 261.42 L2027.95 261.42 L2027.95 254.059 L2032.23 254.059 Z" fill="#000000" fill-rule="nonzero" fill-opacity="1" /><path clip-path="url(#clip840)" d="M2068.78 273.319 L2068.78 275.402 L2049.2 275.402 Q2049.48 279.8 2051.84 282.115 Q2054.22 284.406 2058.46 284.406 Q2060.91 284.406 2063.2 283.805 Q2065.52 283.203 2067.79 281.999 L2067.79 286.027 Q2065.49 286.999 2063.09 287.508 Q2060.68 288.018 2058.2 288.018 Q2052 288.018 2048.36 284.406 Q2044.75 280.795 2044.75 274.638 Q2044.75 268.272 2048.18 264.545 Q2051.63 260.795 2057.46 260.795 Q2062.69 260.795 2065.73 264.175 Q2068.78 267.532 2068.78 273.319 M2064.52 272.069 Q2064.48 268.573 2062.55 266.49 Q2060.66 264.407 2057.51 264.407 Q2053.94 264.407 2051.79 266.42 Q2049.66 268.434 2049.34 272.092 L2064.52 272.069 Z" fill="#000000" fill-rule="nonzero" fill-opacity="1" /><path clip-path="url(#clip840)" d="M2092.83 265.356 L2092.83 251.328 L2097.09 251.328 L2097.09 287.346 L2092.83 287.346 L2092.83 283.457 Q2091.49 285.772 2089.43 286.906 Q2087.39 288.018 2084.52 288.018 Q2079.82 288.018 2076.86 284.268 Q2073.92 280.518 2073.92 274.407 Q2073.92 268.295 2076.86 264.545 Q2079.82 260.795 2084.52 260.795 Q2087.39 260.795 2089.43 261.93 Q2091.49 263.041 2092.83 265.356 M2078.32 274.407 Q2078.32 279.106 2080.24 281.791 Q2082.18 284.453 2085.56 284.453 Q2088.94 284.453 2090.89 281.791 Q2092.83 279.106 2092.83 274.407 Q2092.83 269.707 2090.89 267.045 Q2088.94 264.36 2085.56 264.36 Q2082.18 264.36 2080.24 267.045 Q2078.32 269.707 2078.32 274.407 Z" fill="#000000" fill-rule="nonzero" fill-opacity="1" /><path clip-path="url(#clip840)" d="M2141.12 266.397 Q2142.72 263.527 2144.94 262.161 Q2147.16 260.795 2150.17 260.795 Q2154.22 260.795 2156.42 263.643 Q2158.62 266.467 2158.62 271.698 L2158.62 287.346 L2154.34 287.346 L2154.34 271.837 Q2154.34 268.11 2153.02 266.305 Q2151.7 264.499 2148.99 264.499 Q2145.68 264.499 2143.76 266.698 Q2141.84 268.897 2141.84 272.694 L2141.84 287.346 L2137.55 287.346 L2137.55 271.837 Q2137.55 268.087 2136.23 266.305 Q2134.92 264.499 2132.16 264.499 Q2128.9 264.499 2126.98 266.721 Q2125.05 268.92 2125.05 272.694 L2125.05 287.346 L2120.77 287.346 L2120.77 261.42 L2125.05 261.42 L2125.05 265.448 Q2126.51 263.064 2128.55 261.93 Q2130.59 260.795 2133.39 260.795 Q2136.21 260.795 2138.18 262.231 Q2140.17 263.666 2141.12 266.397 Z" fill="#000000" fill-rule="nonzero" fill-opacity="1" /><path clip-path="url(#clip840)" d="M2177.16 264.407 Q2173.73 264.407 2171.74 267.092 Q2169.75 269.754 2169.75 274.407 Q2169.75 279.059 2171.72 281.744 Q2173.71 284.406 2177.16 284.406 Q2180.56 284.406 2182.55 281.721 Q2184.54 279.036 2184.54 274.407 Q2184.54 269.8 2182.55 267.115 Q2180.56 264.407 2177.16 264.407 M2177.16 260.795 Q2182.72 260.795 2185.89 264.407 Q2189.06 268.018 2189.06 274.407 Q2189.06 280.772 2185.89 284.406 Q2182.72 288.018 2177.16 288.018 Q2171.58 288.018 2168.41 284.406 Q2165.26 280.772 2165.26 274.407 Q2165.26 268.018 2168.41 264.407 Q2171.58 260.795 2177.16 260.795 Z" fill="#000000" fill-rule="nonzero" fill-opacity="1" /><path clip-path="url(#clip840)" d="M2213.18 265.356 L2213.18 251.328 L2217.44 251.328 L2217.44 287.346 L2213.18 287.346 L2213.18 283.457 Q2211.84 285.772 2209.78 286.906 Q2207.74 288.018 2204.87 288.018 Q2200.17 288.018 2197.21 284.268 Q2194.27 280.518 2194.27 274.407 Q2194.27 268.295 2197.21 264.545 Q2200.17 260.795 2204.87 260.795 Q2207.74 260.795 2209.78 261.93 Q2211.84 263.041 2213.18 265.356 M2198.67 274.407 Q2198.67 279.106 2200.59 281.791 Q2202.53 284.453 2205.91 284.453 Q2209.29 284.453 2211.23 281.791 Q2213.18 279.106 2213.18 274.407 Q2213.18 269.707 2211.23 267.045 Q2209.29 264.36 2205.91 264.36 Q2202.53 264.36 2200.59 267.045 Q2198.67 269.707 2198.67 274.407 Z" fill="#000000" fill-rule="nonzero" fill-opacity="1" /><path clip-path="url(#clip840)" d="M2248.39 273.319 L2248.39 275.402 L2228.8 275.402 Q2229.08 279.8 2231.44 282.115 Q2233.83 284.406 2238.06 284.406 Q2240.52 284.406 2242.81 283.805 Q2245.12 283.203 2247.39 281.999 L2247.39 286.027 Q2245.1 286.999 2242.69 287.508 Q2240.29 288.018 2237.81 288.018 Q2231.6 288.018 2227.97 284.406 Q2224.36 280.795 2224.36 274.638 Q2224.36 268.272 2227.79 264.545 Q2231.23 260.795 2237.07 260.795 Q2242.3 260.795 2245.33 264.175 Q2248.39 267.532 2248.39 273.319 M2244.13 272.069 Q2244.08 268.573 2242.16 266.49 Q2240.26 264.407 2237.11 264.407 Q2233.55 264.407 2231.4 266.42 Q2229.27 268.434 2228.94 272.092 L2244.13 272.069 Z" fill="#000000" fill-rule="nonzero" fill-opacity="1" /><path clip-path="url(#clip840)" d="M2255.38 251.328 L2259.64 251.328 L2259.64 287.346 L2255.38 287.346 L2255.38 251.328 Z" fill="#000000" fill-rule="nonzero" fill-opacity="1" /></svg>
