<?xml version="1.0" encoding="utf-8"?>
<svg xmlns="http://www.w3.org/2000/svg" xmlns:xlink="http://www.w3.org/1999/xlink" width="600" height="400" viewBox="0 0 2400 1600">
<defs>
  <clipPath id="clip720">
    <rect x="0" y="0" width="2400" height="1600"/>
  </clipPath>
</defs>
<path clip-path="url(#clip720)" d="M0 1600 L2400 1600 L2400 0 L0 0  Z" fill="#ffffff" fill-rule="evenodd" fill-opacity="1"/>
<defs>
  <clipPath id="clip721">
    <rect x="480" y="0" width="1681" height="1600"/>
  </clipPath>
</defs>
<path clip-path="url(#clip720)" d="M257.204 623.18 L2352.76 623.18 L2352.76 47.2441 L257.204 47.2441  Z" fill="#ffffff" fill-rule="evenodd" fill-opacity="1"/>
<defs>
  <clipPath id="clip722">
    <rect x="257" y="47" width="2097" height="577"/>
  </clipPath>
</defs>
<polyline clip-path="url(#clip722)" style="stroke:#000000; stroke-linecap:round; stroke-linejoin:round; stroke-width:2; stroke-opacity:0.1; fill:none" points="316.512,623.18 316.512,47.2441 "/>
<polyline clip-path="url(#clip722)" style="stroke:#000000; stroke-linecap:round; stroke-linejoin:round; stroke-width:2; stroke-opacity:0.1; fill:none" points="712.692,623.18 712.692,47.2441 "/>
<polyline clip-path="url(#clip722)" style="stroke:#000000; stroke-linecap:round; stroke-linejoin:round; stroke-width:2; stroke-opacity:0.1; fill:none" points="1108.87,623.18 1108.87,47.2441 "/>
<polyline clip-path="url(#clip722)" style="stroke:#000000; stroke-linecap:round; stroke-linejoin:round; stroke-width:2; stroke-opacity:0.1; fill:none" points="1505.05,623.18 1505.05,47.2441 "/>
<polyline clip-path="url(#clip722)" style="stroke:#000000; stroke-linecap:round; stroke-linejoin:round; stroke-width:2; stroke-opacity:0.1; fill:none" points="1901.23,623.18 1901.23,47.2441 "/>
<polyline clip-path="url(#clip722)" style="stroke:#000000; stroke-linecap:round; stroke-linejoin:round; stroke-width:2; stroke-opacity:0.1; fill:none" points="2297.41,623.18 2297.41,47.2441 "/>
<polyline clip-path="url(#clip722)" style="stroke:#000000; stroke-linecap:round; stroke-linejoin:round; stroke-width:2; stroke-opacity:0.1; fill:none" points="257.204,581.732 2352.76,581.732 "/>
<polyline clip-path="url(#clip722)" style="stroke:#000000; stroke-linecap:round; stroke-linejoin:round; stroke-width:2; stroke-opacity:0.1; fill:none" points="257.204,442.992 2352.76,442.992 "/>
<polyline clip-path="url(#clip722)" style="stroke:#000000; stroke-linecap:round; stroke-linejoin:round; stroke-width:2; stroke-opacity:0.1; fill:none" points="257.204,304.252 2352.76,304.252 "/>
<polyline clip-path="url(#clip722)" style="stroke:#000000; stroke-linecap:round; stroke-linejoin:round; stroke-width:2; stroke-opacity:0.1; fill:none" points="257.204,165.512 2352.76,165.512 "/>
<polyline clip-path="url(#clip720)" style="stroke:#000000; stroke-linecap:round; stroke-linejoin:round; stroke-width:4; stroke-opacity:1; fill:none" points="257.204,623.18 2352.76,623.18 "/>
<polyline clip-path="url(#clip720)" style="stroke:#000000; stroke-linecap:round; stroke-linejoin:round; stroke-width:4; stroke-opacity:1; fill:none" points="316.512,623.18 316.512,604.282 "/>
<polyline clip-path="url(#clip720)" style="stroke:#000000; stroke-linecap:round; stroke-linejoin:round; stroke-width:4; stroke-opacity:1; fill:none" points="712.692,623.18 712.692,604.282 "/>
<polyline clip-path="url(#clip720)" style="stroke:#000000; stroke-linecap:round; stroke-linejoin:round; stroke-width:4; stroke-opacity:1; fill:none" points="1108.87,623.18 1108.87,604.282 "/>
<polyline clip-path="url(#clip720)" style="stroke:#000000; stroke-linecap:round; stroke-linejoin:round; stroke-width:4; stroke-opacity:1; fill:none" points="1505.05,623.18 1505.05,604.282 "/>
<polyline clip-path="url(#clip720)" style="stroke:#000000; stroke-linecap:round; stroke-linejoin:round; stroke-width:4; stroke-opacity:1; fill:none" points="1901.23,623.18 1901.23,604.282 "/>
<polyline clip-path="url(#clip720)" style="stroke:#000000; stroke-linecap:round; stroke-linejoin:round; stroke-width:4; stroke-opacity:1; fill:none" points="2297.41,623.18 2297.41,604.282 "/>
<path clip-path="url(#clip720)" d="M316.512 654.099 Q312.901 654.099 311.072 657.663 Q309.267 661.205 309.267 668.335 Q309.267 675.441 311.072 679.006 Q312.901 682.547 316.512 682.547 Q320.146 682.547 321.952 679.006 Q323.781 675.441 323.781 668.335 Q323.781 661.205 321.952 657.663 Q320.146 654.099 316.512 654.099 M316.512 650.395 Q322.322 650.395 325.378 655.001 Q328.456 659.585 328.456 668.335 Q328.456 677.061 325.378 681.668 Q322.322 686.251 316.512 686.251 Q310.702 686.251 307.623 681.668 Q304.568 677.061 304.568 668.335 Q304.568 659.585 307.623 655.001 Q310.702 650.395 316.512 650.395 Z" fill="#000000" fill-rule="nonzero" fill-opacity="1" /><path clip-path="url(#clip720)" d="M703.074 681.645 L710.712 681.645 L710.712 655.279 L702.402 656.946 L702.402 652.687 L710.666 651.02 L715.342 651.02 L715.342 681.645 L722.981 681.645 L722.981 685.58 L703.074 685.58 L703.074 681.645 Z" fill="#000000" fill-rule="nonzero" fill-opacity="1" /><path clip-path="url(#clip720)" d="M1103.52 681.645 L1119.84 681.645 L1119.84 685.58 L1097.9 685.58 L1097.9 681.645 Q1100.56 678.89 1105.14 674.26 Q1109.75 669.608 1110.93 668.265 Q1113.18 665.742 1114.06 664.006 Q1114.96 662.247 1114.96 660.557 Q1114.96 657.802 1113.01 656.066 Q1111.09 654.33 1107.99 654.33 Q1105.79 654.33 1103.34 655.094 Q1100.91 655.858 1098.13 657.409 L1098.13 652.687 Q1100.95 651.552 1103.41 650.974 Q1105.86 650.395 1107.9 650.395 Q1113.27 650.395 1116.46 653.08 Q1119.66 655.765 1119.66 660.256 Q1119.66 662.386 1118.85 664.307 Q1118.06 666.205 1115.95 668.798 Q1115.38 669.469 1112.27 672.686 Q1109.17 675.881 1103.52 681.645 Z" fill="#000000" fill-rule="nonzero" fill-opacity="1" /><path clip-path="url(#clip720)" d="M1509.3 666.946 Q1512.65 667.663 1514.53 669.932 Q1516.43 672.2 1516.43 675.534 Q1516.43 680.649 1512.91 683.45 Q1509.39 686.251 1502.91 686.251 Q1500.73 686.251 1498.42 685.811 Q1496.13 685.395 1493.67 684.538 L1493.67 680.024 Q1495.62 681.159 1497.93 681.737 Q1500.25 682.316 1502.77 682.316 Q1507.17 682.316 1509.46 680.58 Q1511.78 678.844 1511.78 675.534 Q1511.78 672.478 1509.62 670.765 Q1507.49 669.029 1503.67 669.029 L1499.65 669.029 L1499.65 665.186 L1503.86 665.186 Q1507.31 665.186 1509.14 663.821 Q1510.96 662.432 1510.96 659.839 Q1510.96 657.177 1509.07 655.765 Q1507.19 654.33 1503.67 654.33 Q1501.75 654.33 1499.55 654.747 Q1497.35 655.163 1494.72 656.043 L1494.72 651.876 Q1497.38 651.136 1499.69 650.765 Q1502.03 650.395 1504.09 650.395 Q1509.41 650.395 1512.52 652.825 Q1515.62 655.233 1515.62 659.353 Q1515.62 662.223 1513.97 664.214 Q1512.33 666.182 1509.3 666.946 Z" fill="#000000" fill-rule="nonzero" fill-opacity="1" /><path clip-path="url(#clip720)" d="M1904.24 655.094 L1892.43 673.543 L1904.24 673.543 L1904.24 655.094 M1903.01 651.02 L1908.89 651.02 L1908.89 673.543 L1913.82 673.543 L1913.82 677.432 L1908.89 677.432 L1908.89 685.58 L1904.24 685.58 L1904.24 677.432 L1888.64 677.432 L1888.64 672.918 L1903.01 651.02 Z" fill="#000000" fill-rule="nonzero" fill-opacity="1" /><path clip-path="url(#clip720)" d="M2287.69 651.02 L2306.04 651.02 L2306.04 654.955 L2291.97 654.955 L2291.97 663.427 Q2292.99 663.08 2294.01 662.918 Q2295.03 662.733 2296.04 662.733 Q2301.83 662.733 2305.21 665.904 Q2308.59 669.075 2308.59 674.492 Q2308.59 680.071 2305.12 683.172 Q2301.65 686.251 2295.33 686.251 Q2293.15 686.251 2290.88 685.881 Q2288.64 685.51 2286.23 684.77 L2286.23 680.071 Q2288.31 681.205 2290.53 681.76 Q2292.76 682.316 2295.23 682.316 Q2299.24 682.316 2301.58 680.21 Q2303.91 678.103 2303.91 674.492 Q2303.91 670.881 2301.58 668.774 Q2299.24 666.668 2295.23 666.668 Q2293.36 666.668 2291.48 667.085 Q2289.63 667.501 2287.69 668.381 L2287.69 651.02 Z" fill="#000000" fill-rule="nonzero" fill-opacity="1" /><path clip-path="url(#clip720)" d="M1175.15 720.524 L1215.35 720.524 L1215.35 725.935 L1198.48 725.935 L1198.48 768.044 L1192.02 768.044 L1192.02 725.935 L1175.15 725.935 L1175.15 720.524 Z" fill="#000000" fill-rule="nonzero" fill-opacity="1" /><path clip-path="url(#clip720)" d="M1219.3 732.396 L1225.15 732.396 L1225.15 768.044 L1219.3 768.044 L1219.3 732.396 M1219.3 718.519 L1225.15 718.519 L1225.15 725.935 L1219.3 725.935 L1219.3 718.519 Z" fill="#000000" fill-rule="nonzero" fill-opacity="1" /><path clip-path="url(#clip720)" d="M1265.16 739.239 Q1267.36 735.292 1270.41 733.414 Q1273.47 731.537 1277.61 731.537 Q1283.18 731.537 1286.2 735.451 Q1289.22 739.335 1289.22 746.528 L1289.22 768.044 L1283.34 768.044 L1283.34 746.719 Q1283.34 741.594 1281.52 739.112 Q1279.71 736.629 1275.98 736.629 Q1271.43 736.629 1268.79 739.653 Q1266.15 742.677 1266.15 747.896 L1266.15 768.044 L1260.26 768.044 L1260.26 746.719 Q1260.26 741.563 1258.45 739.112 Q1256.63 736.629 1252.84 736.629 Q1248.36 736.629 1245.72 739.685 Q1243.07 742.708 1243.07 747.896 L1243.07 768.044 L1237.19 768.044 L1237.19 732.396 L1243.07 732.396 L1243.07 737.934 Q1245.08 734.656 1247.88 733.096 Q1250.68 731.537 1254.53 731.537 Q1258.41 731.537 1261.12 733.51 Q1263.86 735.483 1265.16 739.239 Z" fill="#000000" fill-rule="nonzero" fill-opacity="1" /><path clip-path="url(#clip720)" d="M1331.4 748.756 L1331.4 751.62 L1304.47 751.62 Q1304.85 757.668 1308.1 760.851 Q1311.38 764.002 1317.2 764.002 Q1320.58 764.002 1323.73 763.174 Q1326.91 762.347 1330.03 760.691 L1330.03 766.23 Q1326.88 767.566 1323.57 768.267 Q1320.26 768.967 1316.85 768.967 Q1308.32 768.967 1303.32 764.002 Q1298.36 759.036 1298.36 750.57 Q1298.36 741.817 1303.07 736.693 Q1307.81 731.537 1315.83 731.537 Q1323.03 731.537 1327.2 736.183 Q1331.4 740.799 1331.4 748.756 M1325.54 747.037 Q1325.48 742.231 1322.84 739.366 Q1320.23 736.502 1315.9 736.502 Q1311 736.502 1308.04 739.271 Q1305.11 742.04 1304.66 747.069 L1325.54 747.037 Z" fill="#000000" fill-rule="nonzero" fill-opacity="1" /><path clip-path="url(#clip720)" d="M1375.8 718.582 Q1371.53 725.903 1369.46 733.064 Q1367.4 740.226 1367.4 747.578 Q1367.4 754.93 1369.46 762.156 Q1371.57 769.349 1375.8 776.638 L1370.71 776.638 Q1365.93 769.158 1363.54 761.933 Q1361.19 754.708 1361.19 747.578 Q1361.19 740.48 1363.54 733.287 Q1365.9 726.094 1370.71 718.582 L1375.8 718.582 Z" fill="#000000" fill-rule="nonzero" fill-opacity="1" /><path clip-path="url(#clip720)" d="M1409.89 733.446 L1409.89 738.984 Q1407.4 737.711 1404.73 737.075 Q1402.06 736.438 1399.19 736.438 Q1394.83 736.438 1392.64 737.775 Q1390.47 739.112 1390.47 741.785 Q1390.47 743.822 1392.03 745 Q1393.59 746.146 1398.3 747.196 L1400.31 747.642 Q1406.54 748.979 1409.15 751.429 Q1411.8 753.848 1411.8 758.209 Q1411.8 763.174 1407.85 766.07 Q1403.93 768.967 1397.06 768.967 Q1394.2 768.967 1391.08 768.394 Q1387.99 767.853 1384.55 766.739 L1384.55 760.691 Q1387.8 762.378 1390.95 763.238 Q1394.1 764.065 1397.19 764.065 Q1401.32 764.065 1403.55 762.665 Q1405.78 761.233 1405.78 758.654 Q1405.78 756.267 1404.16 754.994 Q1402.57 753.721 1397.12 752.543 L1395.09 752.066 Q1389.64 750.92 1387.22 748.565 Q1384.81 746.178 1384.81 742.04 Q1384.81 737.011 1388.37 734.274 Q1391.94 731.537 1398.49 731.537 Q1401.74 731.537 1404.6 732.014 Q1407.47 732.491 1409.89 733.446 Z" fill="#000000" fill-rule="nonzero" fill-opacity="1" /><path clip-path="url(#clip720)" d="M1420.2 718.582 L1425.29 718.582 Q1430.07 726.094 1432.42 733.287 Q1434.81 740.48 1434.81 747.578 Q1434.81 754.708 1432.42 761.933 Q1430.07 769.158 1425.29 776.638 L1420.2 776.638 Q1424.43 769.349 1426.5 762.156 Q1428.6 754.93 1428.6 747.578 Q1428.6 740.226 1426.5 733.064 Q1424.43 725.903 1420.2 718.582 Z" fill="#000000" fill-rule="nonzero" fill-opacity="1" /><polyline clip-path="url(#clip720)" style="stroke:#000000; stroke-linecap:round; stroke-linejoin:round; stroke-width:4; stroke-opacity:1; fill:none" points="257.204,623.18 257.204,47.2441 "/>
<polyline clip-path="url(#clip720)" style="stroke:#000000; stroke-linecap:round; stroke-linejoin:round; stroke-width:4; stroke-opacity:1; fill:none" points="257.204,581.732 276.102,581.732 "/>
<polyline clip-path="url(#clip720)" style="stroke:#000000; stroke-linecap:round; stroke-linejoin:round; stroke-width:4; stroke-opacity:1; fill:none" points="257.204,442.992 276.102,442.992 "/>
<polyline clip-path="url(#clip720)" style="stroke:#000000; stroke-linecap:round; stroke-linejoin:round; stroke-width:4; stroke-opacity:1; fill:none" points="257.204,304.252 276.102,304.252 "/>
<polyline clip-path="url(#clip720)" style="stroke:#000000; stroke-linecap:round; stroke-linejoin:round; stroke-width:4; stroke-opacity:1; fill:none" points="257.204,165.512 276.102,165.512 "/>
<path clip-path="url(#clip720)" d="M115.857 582.184 L145.533 582.184 L145.533 586.119 L115.857 586.119 L115.857 582.184 Z" fill="#000000" fill-rule="nonzero" fill-opacity="1" /><path clip-path="url(#clip720)" d="M165.626 567.531 Q162.015 567.531 160.186 571.096 Q158.38 574.638 158.38 581.767 Q158.38 588.874 160.186 592.438 Q162.015 595.98 165.626 595.98 Q169.26 595.98 171.065 592.438 Q172.894 588.874 172.894 581.767 Q172.894 574.638 171.065 571.096 Q169.26 567.531 165.626 567.531 M165.626 563.827 Q171.436 563.827 174.491 568.434 Q177.57 573.017 177.57 581.767 Q177.57 590.494 174.491 595.1 Q171.436 599.684 165.626 599.684 Q159.815 599.684 156.737 595.1 Q153.681 590.494 153.681 581.767 Q153.681 573.017 156.737 568.434 Q159.815 563.827 165.626 563.827 Z" fill="#000000" fill-rule="nonzero" fill-opacity="1" /><path clip-path="url(#clip720)" d="M185.788 593.133 L190.672 593.133 L190.672 599.012 L185.788 599.012 L185.788 593.133 Z" fill="#000000" fill-rule="nonzero" fill-opacity="1" /><path clip-path="url(#clip720)" d="M204.885 595.077 L221.204 595.077 L221.204 599.012 L199.26 599.012 L199.26 595.077 Q201.922 592.323 206.505 587.693 Q211.111 583.04 212.292 581.698 Q214.537 579.175 215.417 577.438 Q216.32 575.679 216.32 573.989 Q216.32 571.235 214.375 569.499 Q212.454 567.763 209.352 567.763 Q207.153 567.763 204.699 568.526 Q202.269 569.29 199.491 570.841 L199.491 566.119 Q202.315 564.985 204.769 564.406 Q207.223 563.827 209.26 563.827 Q214.63 563.827 217.824 566.513 Q221.019 569.198 221.019 573.688 Q221.019 575.818 220.209 577.739 Q219.422 579.638 217.315 582.23 Q216.736 582.901 213.635 586.119 Q210.533 589.313 204.885 595.077 Z" fill="#000000" fill-rule="nonzero" fill-opacity="1" /><path clip-path="url(#clip720)" d="M115.487 443.444 L145.163 443.444 L145.163 447.379 L115.487 447.379 L115.487 443.444 Z" fill="#000000" fill-rule="nonzero" fill-opacity="1" /><path clip-path="url(#clip720)" d="M165.255 428.791 Q161.644 428.791 159.815 432.356 Q158.01 435.898 158.01 443.027 Q158.01 450.134 159.815 453.698 Q161.644 457.24 165.255 457.24 Q168.889 457.24 170.695 453.698 Q172.524 450.134 172.524 443.027 Q172.524 435.898 170.695 432.356 Q168.889 428.791 165.255 428.791 M165.255 425.087 Q171.065 425.087 174.121 429.694 Q177.2 434.277 177.2 443.027 Q177.2 451.754 174.121 456.36 Q171.065 460.944 165.255 460.944 Q159.445 460.944 156.366 456.36 Q153.311 451.754 153.311 443.027 Q153.311 434.277 156.366 429.694 Q159.445 425.087 165.255 425.087 Z" fill="#000000" fill-rule="nonzero" fill-opacity="1" /><path clip-path="url(#clip720)" d="M185.417 454.393 L190.301 454.393 L190.301 460.272 L185.417 460.272 L185.417 454.393 Z" fill="#000000" fill-rule="nonzero" fill-opacity="1" /><path clip-path="url(#clip720)" d="M201.297 456.337 L208.936 456.337 L208.936 429.972 L200.625 431.638 L200.625 427.379 L208.889 425.712 L213.565 425.712 L213.565 456.337 L221.204 456.337 L221.204 460.272 L201.297 460.272 L201.297 456.337 Z" fill="#000000" fill-rule="nonzero" fill-opacity="1" /><path clip-path="url(#clip720)" d="M164.028 290.051 Q160.417 290.051 158.589 293.616 Q156.783 297.157 156.783 304.287 Q156.783 311.394 158.589 314.958 Q160.417 318.5 164.028 318.5 Q167.663 318.5 169.468 314.958 Q171.297 311.394 171.297 304.287 Q171.297 297.157 169.468 293.616 Q167.663 290.051 164.028 290.051 M164.028 286.347 Q169.839 286.347 172.894 290.954 Q175.973 295.537 175.973 304.287 Q175.973 313.014 172.894 317.62 Q169.839 322.204 164.028 322.204 Q158.218 322.204 155.14 317.62 Q152.084 313.014 152.084 304.287 Q152.084 295.537 155.14 290.954 Q158.218 286.347 164.028 286.347 Z" fill="#000000" fill-rule="nonzero" fill-opacity="1" /><path clip-path="url(#clip720)" d="M184.19 315.653 L189.075 315.653 L189.075 321.532 L184.19 321.532 L184.19 315.653 Z" fill="#000000" fill-rule="nonzero" fill-opacity="1" /><path clip-path="url(#clip720)" d="M209.26 290.051 Q205.649 290.051 203.82 293.616 Q202.014 297.157 202.014 304.287 Q202.014 311.394 203.82 314.958 Q205.649 318.5 209.26 318.5 Q212.894 318.5 214.699 314.958 Q216.528 311.394 216.528 304.287 Q216.528 297.157 214.699 293.616 Q212.894 290.051 209.26 290.051 M209.26 286.347 Q215.07 286.347 218.125 290.954 Q221.204 295.537 221.204 304.287 Q221.204 313.014 218.125 317.62 Q215.07 322.204 209.26 322.204 Q203.449 322.204 200.371 317.62 Q197.315 313.014 197.315 304.287 Q197.315 295.537 200.371 290.954 Q203.449 286.347 209.26 286.347 Z" fill="#000000" fill-rule="nonzero" fill-opacity="1" /><path clip-path="url(#clip720)" d="M165.255 151.311 Q161.644 151.311 159.815 154.876 Q158.01 158.417 158.01 165.547 Q158.01 172.653 159.815 176.218 Q161.644 179.76 165.255 179.76 Q168.889 179.76 170.695 176.218 Q172.524 172.653 172.524 165.547 Q172.524 158.417 170.695 154.876 Q168.889 151.311 165.255 151.311 M165.255 147.607 Q171.065 147.607 174.121 152.214 Q177.2 156.797 177.2 165.547 Q177.2 174.274 174.121 178.88 Q171.065 183.464 165.255 183.464 Q159.445 183.464 156.366 178.88 Q153.311 174.274 153.311 165.547 Q153.311 156.797 156.366 152.214 Q159.445 147.607 165.255 147.607 Z" fill="#000000" fill-rule="nonzero" fill-opacity="1" /><path clip-path="url(#clip720)" d="M185.417 176.913 L190.301 176.913 L190.301 182.792 L185.417 182.792 L185.417 176.913 Z" fill="#000000" fill-rule="nonzero" fill-opacity="1" /><path clip-path="url(#clip720)" d="M201.297 178.857 L208.936 178.857 L208.936 152.492 L200.625 154.158 L200.625 149.899 L208.889 148.232 L213.565 148.232 L213.565 178.857 L221.204 178.857 L221.204 182.792 L201.297 182.792 L201.297 178.857 Z" fill="#000000" fill-rule="nonzero" fill-opacity="1" /><path clip-path="url(#clip720)" d="M68.5412 333.525 Q74.9069 336.008 76.8484 338.363 Q78.79 340.718 78.79 344.665 L78.79 349.344 L73.8884 349.344 L73.8884 345.906 Q73.8884 343.487 72.7425 342.151 Q71.5967 340.814 67.3317 339.191 L64.6581 338.14 L29.583 352.559 L29.583 346.352 L57.4648 335.212 L29.583 324.072 L29.583 317.865 L68.5412 333.525 Z" fill="#000000" fill-rule="nonzero" fill-opacity="1" /><polyline clip-path="url(#clip722)" style="stroke:#009af9; stroke-linecap:round; stroke-linejoin:round; stroke-width:4; stroke-opacity:1; fill:none" points="316.512,304.252 320.474,304.252 324.436,304.252 324.436,317.966 328.397,317.966 328.397,331.276 332.359,331.276 332.359,344.065 336.321,344.065 336.321,356.228 340.283,356.228 340.283,367.677 344.245,367.677 344.245,350.907 348.206,350.907 348.206,334.097 352.168,334.097 352.168,317.438 356.13,317.438 356.13,301.115 360.092,301.115 360.092,285.303 364.054,285.303 364.054,270.163 368.015,270.163 368.015,255.837 371.977,255.837 371.977,242.452 375.939,242.452 375.939,230.111 379.901,230.111 379.901,218.895 383.863,218.895 383.863,236.291 387.824,236.291 387.824,254.099 391.786,254.099 391.786,272.095 395.748,272.095 395.748,290.059 399.71,290.059 399.71,307.775 403.672,307.775 403.672,297.611 407.633,297.611 407.633,287.609 411.595,287.609 411.595,277.83 415.557,277.83 415.557,268.326 419.519,268.326 419.519,259.146 423.481,259.146 423.481,250.332 427.442,250.332 427.442,241.919 431.404,241.919 431.404,233.934 435.366,233.934 435.366,226.395 439.328,226.395 439.328,219.314 443.29,219.314 443.29,240.121 447.251,240.121 447.251,260.576 451.213,260.576 451.213,280.432 455.175,280.432 455.175,299.461 459.137,299.461 459.137,317.455 463.099,317.455 463.099,306.806 467.06,306.806 467.06,295.595 471.022,295.595 471.022,283.931 474.984,283.931 474.984,271.931 478.946,271.931 478.946,259.715 482.907,259.715 482.907,274.835 486.869,274.835 486.869,289.176 490.831,289.176 490.831,302.625 494.793,302.625 494.793,315.087 498.755,315.087 498.755,326.488 502.716,326.488 502.716,309.348 506.678,309.348 506.678,291.872 510.64,291.872 510.64,274.285 514.602,274.285 514.602,256.811 518.564,256.811 518.564,239.662 522.525,239.662 522.525,250.47 526.487,250.47 526.487,261.187 530.449,261.187 530.449,271.749 534.411,271.749 534.411,282.096 538.373,282.096 538.373,292.171 542.334,292.171 542.334,274.497 546.296,274.497 546.296,257.266 550.258,257.266 550.258,240.673 554.22,240.673 554.22,224.898 558.182,224.898 558.182,210.102 562.143,210.102 562.143,196.42 566.105,196.42 566.105,183.965 570.067,183.965 570.067,172.823 574.029,172.823 574.029,163.053 577.991,163.053 577.991,154.685 581.952,154.685 581.952,147.724 585.914,147.724 585.914,142.146 589.876,142.146 589.876,137.905 593.838,137.905 593.838,134.928 597.8,134.928 597.8,133.122 601.761,133.122 601.761,132.374 605.723,132.374 605.723,132.555 609.685,132.555 609.685,133.524 613.647,133.524 613.647,135.128 617.609,135.128 617.609,137.207 621.57,137.207 621.57,167.027 625.532,167.027 625.532,196.188 629.494,196.188 629.494,224.298 633.456,224.298 633.456,250.992 637.418,250.992 637.418,275.945 641.379,275.945 641.379,298.874 645.341,298.874 645.341,319.541 649.303,319.541 649.303,337.759 653.265,337.759 653.265,353.393 657.226,353.393 657.226,366.362 661.188,366.362 661.188,349.21 665.15,349.21 665.15,330.196 669.112,330.196 669.112,309.629 673.074,309.629 673.074,287.839 677.035,287.839 677.035,265.172 680.997,265.172 680.997,241.983 684.959,241.983 684.959,218.627 688.921,218.627 688.921,195.453 692.883,195.453 692.883,172.797 696.844,172.797 696.844,150.978 700.806,150.978 700.806,130.287 704.768,130.287 704.768,110.989 708.73,110.989 708.73,93.3111 712.692,93.3111 712.692,77.4458 716.653,77.4458 716.653,63.5442 720.615,63.5442 720.615,79.1425 724.577,79.1425 724.577,96.0718 728.539,96.0718 728.539,114.122 732.501,114.122 732.501,133.065 736.462,133.065 736.462,152.66 740.424,152.66 740.424,172.661 744.386,172.661 744.386,192.817 748.348,192.817 748.348,212.882 752.31,212.882 752.31,232.615 756.271,232.615 756.271,251.791 760.233,251.791 760.233,270.197 764.195,270.197 764.195,287.642 768.157,287.642 768.157,303.958 772.119,303.958 772.119,319.003 776.08,319.003 776.08,332.662 780.042,332.662 780.042,344.85 784.004,344.85 784.004,355.511 787.966,355.511 787.966,364.619 791.928,364.619 791.928,372.181 795.889,372.181 795.889,378.229 799.851,378.229 799.851,355.397 803.813,355.397 803.813,332.007 807.775,332.007 807.775,308.402 811.736,308.402 811.736,284.92 815.698,284.92 815.698,261.889 819.66,261.889 819.66,267.047 823.622,267.047 823.622,272.445 827.584,272.445 827.584,278.109 831.545,278.109 831.545,284.057 835.507,284.057 835.507,290.302 839.469,290.302 839.469,296.845 843.431,296.845 843.431,303.684 847.393,303.684 847.393,310.807 851.354,310.807 851.354,318.197 855.316,318.197 855.316,325.83 859.278,325.83 859.278,306.251 863.24,306.251 863.24,287.66 867.202,287.66 867.202,270.254 871.163,270.254 871.163,254.202 875.125,254.202 875.125,239.642 879.087,239.642 879.087,254.107 883.049,254.107 883.049,269.436 887.011,269.436 887.011,285.433 890.972,285.433 890.972,301.896 894.934,301.896 894.934,318.617 898.896,318.617 898.896,307.962 902.858,307.962 902.858,297.961 906.82,297.961 906.82,288.653 910.781,288.653 910.781,280.061 914.743,280.061 914.743,272.196 918.705,272.196 918.705,265.055 922.667,265.055 922.667,258.624 926.629,258.624 926.629,252.874 930.59,252.874 930.59,247.768 934.552,247.768 934.552,243.255 938.514,243.255 938.514,239.278 942.476,239.278 942.476,235.772 946.438,235.772 946.438,232.664 950.399,232.664 950.399,229.88 954.361,229.88 954.361,227.34 958.323,227.34 958.323,252.392 962.285,252.392 962.285,276.72 966.246,276.72 966.246,300.013 970.208,300.013 970.208,321.987 974.17,321.987 974.17,342.394 978.132,342.394 978.132,333.59 982.094,333.59 982.094,323.639 986.055,323.639 986.055,312.642 990.017,312.642 990.017,300.721 993.979,300.721 993.979,288.011 997.941,288.011 997.941,274.663 1001.9,274.663 1001.9,260.836 1005.86,260.836 1005.86,246.694 1009.83,246.694 1009.83,232.405 1013.79,232.405 1013.79,218.135 1017.75,218.135 1017.75,204.047 1021.71,204.047 1021.71,190.296 1025.67,190.296 1025.67,177.027 1029.64,177.027 1029.64,164.373 1033.6,164.373 1033.6,152.451 1037.56,152.451 1037.56,168.79 1041.52,168.79 1041.52,185.236 1045.48,185.236 1045.48,201.621 1049.44,201.621 1049.44,217.777 1053.41,217.777 1053.41,233.548 1057.37,233.548 1057.37,221.358 1061.33,221.358 1061.33,209.311 1065.29,209.311 1065.29,197.52 1069.25,197.52 1069.25,186.094 1073.21,186.094 1073.21,175.132 1077.18,175.132 1077.18,164.722 1081.14,164.722 1081.14,154.94 1085.1,154.94 1085.1,145.847 1089.06,145.847 1089.06,137.493 1093.02,137.493 1093.02,129.909 1096.99,129.909 1096.99,150.542 1100.95,150.542 1100.95,171.158 1104.91,171.158 1104.91,191.514 1108.87,191.514 1108.87,211.374 1112.83,211.374 1112.83,230.52 1116.79,230.52 1116.79,248.751 1120.76,248.751 1120.76,265.889 1124.72,265.889 1124.72,281.782 1128.68,281.782 1128.68,296.304 1132.64,296.304 1132.64,309.359 1136.6,309.359 1136.6,293.455 1140.57,293.455 1140.57,276.791 1144.53,276.791 1144.53,259.596 1148.49,259.596 1148.49,242.104 1152.45,242.104 1152.45,224.549 1156.41,224.549 1156.41,207.16 1160.37,207.16 1160.37,190.157 1164.34,190.157 1164.34,173.749 1168.3,173.749 1168.3,158.125 1172.26,158.125 1172.26,143.457 1176.22,143.457 1176.22,129.893 1180.18,129.893 1180.18,117.556 1184.15,117.556 1184.15,106.543 1188.11,106.543 1188.11,96.9219 1192.07,96.9219 1192.07,88.7341 1196.03,88.7341 1196.03,109.418 1199.99,109.418 1199.99,130.724 1203.95,130.724 1203.95,152.376 1207.92,152.376 1207.92,174.096 1211.88,174.096 1211.88,195.616 1215.84,195.616 1215.84,189.246 1219.8,189.246 1219.8,182.977 1223.76,182.977 1223.76,176.817 1227.72,176.817 1227.72,170.773 1231.69,170.773 1231.69,164.849 1235.65,164.849 1235.65,186.477 1239.61,186.477 1239.61,207.424 1243.57,207.424 1243.57,227.458 1247.53,227.458 1247.53,246.368 1251.5,246.368 1251.5,263.973 1255.46,263.973 1255.46,280.119 1259.42,280.119 1259.42,294.685 1263.38,294.685 1263.38,307.583 1267.34,307.583 1267.34,318.757 1271.3,318.757 1271.3,328.187 1275.27,328.187 1275.27,308.46 1279.23,308.46 1279.23,287.856 1283.19,287.856 1283.19,266.683 1287.15,266.683 1287.15,245.255 1291.11,245.255 1291.11,223.88 1295.08,223.88 1295.08,230.287 1299.04,230.287 1299.04,236.525 1303,236.525 1303,242.628 1306.96,242.628 1306.96,248.627 1310.92,248.627 1310.92,254.556 1314.88,254.556 1314.88,233.016 1318.85,233.016 1318.85,212.275 1322.81,212.275 1322.81,192.591 1326.77,192.591 1326.77,174.199 1330.73,174.199 1330.73,157.303 1334.69,157.303 1334.69,169.496 1338.66,169.496 1338.66,182.677 1342.62,182.677 1342.62,196.704 1346.58,196.704 1346.58,211.426 1350.54,211.426 1350.54,226.677 1354.5,226.677 1354.5,214.858 1358.46,214.858 1358.46,204.031 1362.43,204.031 1362.43,194.254 1366.39,194.254 1366.39,185.565 1370.35,185.565 1370.35,177.981 1374.31,177.981 1374.31,171.498 1378.27,171.498 1378.27,166.089 1382.23,166.089 1382.23,161.712 1386.2,161.712 1386.2,158.305 1390.16,158.305 1390.16,155.79 1394.12,155.79 1394.12,181.502 1398.08,181.502 1398.08,207.102 1402.04,207.102 1402.04,232.243 1406.01,232.243 1406.01,256.597 1409.97,256.597 1409.97,279.856 1413.93,279.856 1413.93,274.319 1417.89,274.319 1417.89,267.978 1421.85,267.978 1421.85,260.859 1425.81,260.859 1425.81,253.009 1429.78,253.009 1429.78,244.484 1433.74,244.484 1433.74,235.356 1437.7,235.356 1437.7,225.706 1441.66,225.706 1441.66,215.625 1445.62,215.625 1445.62,205.211 1449.59,205.211 1449.59,194.567 1453.55,194.567 1453.55,211.225 1457.51,211.225 1457.51,227.055 1461.47,227.055 1461.47,241.928 1465.43,241.928 1465.43,255.735 1469.39,255.735 1469.39,268.39 1473.36,268.39 1473.36,252.404 1477.32,252.404 1477.32,235.975 1481.28,235.975 1481.28,219.321 1485.24,219.321 1485.24,202.661 1489.2,202.661 1489.2,186.21 1493.17,186.21 1493.17,170.172 1497.13,170.172 1497.13,154.738 1501.09,154.738 1501.09,140.083 1505.05,140.083 1505.05,126.362 1509.01,126.362 1509.01,113.709 1512.97,113.709 1512.97,129.662 1516.94,129.662 1516.94,146.069 1520.9,146.069 1520.9,162.754 1524.86,162.754 1524.86,179.542 1528.82,179.542 1528.82,196.255 1532.78,196.255 1532.78,212.724 1536.74,212.724 1536.74,228.786 1540.71,228.786 1540.71,244.29 1544.67,244.29 1544.67,259.099 1548.63,259.099 1548.63,273.092 1552.59,273.092 1552.59,258.739 1556.55,258.739 1556.55,244.192 1560.52,244.192 1560.52,229.623 1564.48,229.623 1564.48,215.198 1568.44,215.198 1568.44,201.08 1572.4,201.08 1572.4,214.846 1576.36,214.846 1576.36,228.402 1580.32,228.402 1580.32,241.637 1584.29,241.637 1584.29,254.451 1588.25,254.451 1588.25,266.753 1592.21,266.753 1592.21,278.462 1596.17,278.462 1596.17,289.511 1600.13,289.511 1600.13,299.847 1604.1,299.847 1604.1,309.429 1608.06,309.429 1608.06,318.232 1612.02,318.232 1612.02,326.247 1615.98,326.247 1615.98,333.476 1619.94,333.476 1619.94,339.938 1623.9,339.938 1623.9,345.664 1627.87,345.664 1627.87,350.697 1631.83,350.697 1631.83,355.092 1635.79,355.092 1635.79,358.913 1639.75,358.913 1639.75,362.231 1643.71,362.231 1643.71,365.126 1647.68,365.126 1647.68,367.68 1651.64,367.68 1651.64,369.979 1655.6,369.979 1655.6,372.112 1659.56,372.112 1659.56,374.164 1663.52,374.164 1663.52,376.222 1667.48,376.222 1667.48,378.364 1671.45,378.364 1671.45,380.668 1675.41,380.668 1675.41,383.202 1679.37,383.202 1679.37,386.027 1683.33,386.027 1683.33,389.195 1687.29,389.195 1687.29,392.751 1691.25,392.751 1691.25,369.298 1695.22,369.298 1695.22,347.096 1699.18,347.096 1699.18,326.39 1703.14,326.39 1703.14,307.391 1707.1,307.391 1707.1,290.27 1711.06,290.27 1711.06,302.588 1715.03,302.588 1715.03,316.198 1718.99,316.198 1718.99,330.914 1722.95,330.914 1722.95,346.532 1726.91,346.532 1726.91,362.836 1730.87,362.836 1730.87,352.174 1734.83,352.174 1734.83,342.552 1738.8,342.552 1738.8,333.977 1742.76,333.977 1742.76,326.435 1746.72,326.435 1746.72,319.895 1750.68,319.895 1750.68,314.308 1754.64,314.308 1754.64,309.609 1758.61,309.609 1758.61,305.72 1762.57,305.72 1762.57,302.55 1766.53,302.55 1766.53,299.997 1770.49,299.997 1770.49,297.954 1774.45,297.954 1774.45,296.305 1778.41,296.305 1778.41,294.934 1782.38,294.934 1782.38,293.723 1786.34,293.723 1786.34,292.556 1790.3,292.556 1790.3,291.322 1794.26,291.322 1794.26,289.912 1798.22,289.912 1798.22,288.231 1802.19,288.231 1802.19,286.188 1806.15,286.188 1806.15,283.706 1810.11,283.706 1810.11,280.72 1814.07,280.72 1814.07,277.177 1818.03,277.177 1818.03,273.038 1821.99,273.038 1821.99,268.28 1825.96,268.28 1825.96,262.891 1829.92,262.891 1829.92,256.876 1833.88,256.876 1833.88,250.251 1837.84,250.251 1837.84,243.046 1841.8,243.046 1841.8,235.303 1845.76,235.303 1845.76,227.072 1849.73,227.072 1849.73,218.416 1853.69,218.416 1853.69,209.404 1857.65,209.404 1857.65,200.109 1861.61,200.109 1861.61,190.612 1865.57,190.612 1865.57,180.995 1869.54,180.995 1869.54,198.768 1873.5,198.768 1873.5,215.779 1877.46,215.779 1877.46,231.873 1881.42,231.873 1881.42,246.92 1885.38,246.92 1885.38,260.809 1889.34,260.809 1889.34,273.456 1893.31,273.456 1893.31,284.801 1897.27,284.801 1897.27,294.811 1901.23,294.811 1901.23,303.477 1905.19,303.477 1905.19,310.817 1909.15,310.817 1909.15,289.445 1913.12,289.445 1913.12,267.661 1917.08,267.661 1917.08,245.781 1921.04,245.781 1921.04,224.119 1925,224.119 1925,202.974 1928.96,202.974 1928.96,210.055 1932.92,210.055 1932.92,217.385 1936.89,217.385 1936.89,224.964 1940.85,224.964 1940.85,232.782 1944.81,232.782 1944.81,240.825 1948.77,240.825 1948.77,249.074 1952.73,249.074 1952.73,257.504 1956.7,257.504 1956.7,266.087 1960.66,266.087 1960.66,274.789 1964.62,274.789 1964.62,283.576 1968.58,283.576 1968.58,292.411 1972.54,292.411 1972.54,301.254 1976.5,301.254 1976.5,310.068 1980.47,310.068 1980.47,318.814 1984.43,318.814 1984.43,327.455 1988.39,327.455 1988.39,308.527 1992.35,308.527 1992.35,290.233 1996.31,290.233 1996.31,272.777 2000.27,272.777 2000.27,256.341 2004.24,256.341 2004.24,241.085 2008.2,241.085 2008.2,227.139 2012.16,227.139 2012.16,214.608 2016.12,214.608 2016.12,203.566 2020.08,203.566 2020.08,194.055 2024.05,194.055 2024.05,186.091 2028.01,186.091 2028.01,207.085 2031.97,207.085 2031.97,228.757 2035.93,228.757 2035.93,250.802 2039.89,250.802 2039.89,272.917 2043.85,272.917 2043.85,294.803 2047.82,294.803 2047.82,316.175 2051.78,316.175 2051.78,336.763 2055.74,336.763 2055.74,356.321 2059.7,356.321 2059.7,374.628 2063.66,374.628 2063.66,391.493 2067.63,391.493 2067.63,406.758 2071.59,406.758 2071.59,420.3 2075.55,420.3 2075.55,432.032 2079.51,432.032 2079.51,441.902 2083.47,441.902 2083.47,449.899 2087.43,449.899 2087.43,456.045 2091.4,456.045 2091.4,460.397 2095.36,460.397 2095.36,463.044 2099.32,463.044 2099.32,464.105 2103.28,464.105 2103.28,463.727 2107.24,463.727 2107.24,462.078 2111.21,462.078 2111.21,459.345 2115.17,459.345 2115.17,455.73 2119.13,455.73 2119.13,451.445 2123.09,451.445 2123.09,446.708 2127.05,446.708 2127.05,441.739 2131.01,441.739 2131.01,436.753 2134.98,436.753 2134.98,431.96 2138.94,431.96 2138.94,427.558 2142.9,427.558 2142.9,423.73 2146.86,423.73 2146.86,420.641 2150.82,420.641 2150.82,418.437 2154.79,418.437 2154.79,417.239 2158.75,417.239 2158.75,417.147 2162.71,417.147 2162.71,418.231 2166.67,418.231 2166.67,420.539 2170.63,420.539 2170.63,424.088 2174.59,424.088 2174.59,428.873 2178.56,428.873 2178.56,434.863 2182.52,434.863 2182.52,442.001 2186.48,442.001 2186.48,422.783 2190.44,422.783 2190.44,405.347 2194.4,405.347 2194.4,389.812 2198.36,389.812 2198.36,376.259 2202.33,376.259 2202.33,364.728 2206.29,364.728 2206.29,382.647 2210.25,382.647 2210.25,401.743 2214.21,401.743 2214.21,421.711 2218.17,421.711 2218.17,442.233 2222.14,442.233 2222.14,462.991 2226.1,462.991 2226.1,456.243 2230.06,456.243 2230.06,449.92 2234.02,449.92 2234.02,443.964 2237.98,443.964 2237.98,438.316 2241.94,438.316 2241.94,432.915 2245.91,432.915 2245.91,455.123 2249.87,455.123 2249.87,476.641 2253.83,476.641 2253.83,497.172 2257.79,497.172 2257.79,516.449 2261.75,516.449 2261.75,534.233 2265.72,534.233 2265.72,550.321 2269.68,550.321 2269.68,564.551 2273.64,564.551 2273.64,576.798 2277.6,576.798 2277.6,586.98 2281.56,586.98 2281.56,595.057 2285.52,595.057 2285.52,601.032 2289.49,601.032 2289.49,604.946 2293.45,604.946 2293.45,606.88 "/>
<path clip-path="url(#clip720)" d="M257.204 1423.18 L2352.76 1423.18 L2352.76 847.244 L257.204 847.244  Z" fill="#ffffff" fill-rule="evenodd" fill-opacity="1"/>
<defs>
  <clipPath id="clip723">
    <rect x="257" y="847" width="2097" height="577"/>
  </clipPath>
</defs>
<polyline clip-path="url(#clip723)" style="stroke:#000000; stroke-linecap:round; stroke-linejoin:round; stroke-width:2; stroke-opacity:0.1; fill:none" points="316.512,1423.18 316.512,847.244 "/>
<polyline clip-path="url(#clip723)" style="stroke:#000000; stroke-linecap:round; stroke-linejoin:round; stroke-width:2; stroke-opacity:0.1; fill:none" points="712.692,1423.18 712.692,847.244 "/>
<polyline clip-path="url(#clip723)" style="stroke:#000000; stroke-linecap:round; stroke-linejoin:round; stroke-width:2; stroke-opacity:0.1; fill:none" points="1108.87,1423.18 1108.87,847.244 "/>
<polyline clip-path="url(#clip723)" style="stroke:#000000; stroke-linecap:round; stroke-linejoin:round; stroke-width:2; stroke-opacity:0.1; fill:none" points="1505.05,1423.18 1505.05,847.244 "/>
<polyline clip-path="url(#clip723)" style="stroke:#000000; stroke-linecap:round; stroke-linejoin:round; stroke-width:2; stroke-opacity:0.1; fill:none" points="1901.23,1423.18 1901.23,847.244 "/>
<polyline clip-path="url(#clip723)" style="stroke:#000000; stroke-linecap:round; stroke-linejoin:round; stroke-width:2; stroke-opacity:0.1; fill:none" points="2297.41,1423.18 2297.41,847.244 "/>
<polyline clip-path="url(#clip723)" style="stroke:#000000; stroke-linecap:round; stroke-linejoin:round; stroke-width:2; stroke-opacity:0.1; fill:none" points="257.204,1406.88 2352.76,1406.88 "/>
<polyline clip-path="url(#clip723)" style="stroke:#000000; stroke-linecap:round; stroke-linejoin:round; stroke-width:2; stroke-opacity:0.1; fill:none" points="257.204,1271.05 2352.76,1271.05 "/>
<polyline clip-path="url(#clip723)" style="stroke:#000000; stroke-linecap:round; stroke-linejoin:round; stroke-width:2; stroke-opacity:0.1; fill:none" points="257.204,1135.21 2352.76,1135.21 "/>
<polyline clip-path="url(#clip723)" style="stroke:#000000; stroke-linecap:round; stroke-linejoin:round; stroke-width:2; stroke-opacity:0.1; fill:none" points="257.204,999.378 2352.76,999.378 "/>
<polyline clip-path="url(#clip723)" style="stroke:#000000; stroke-linecap:round; stroke-linejoin:round; stroke-width:2; stroke-opacity:0.1; fill:none" points="257.204,863.544 2352.76,863.544 "/>
<polyline clip-path="url(#clip720)" style="stroke:#000000; stroke-linecap:round; stroke-linejoin:round; stroke-width:4; stroke-opacity:1; fill:none" points="257.204,1423.18 2352.76,1423.18 "/>
<polyline clip-path="url(#clip720)" style="stroke:#000000; stroke-linecap:round; stroke-linejoin:round; stroke-width:4; stroke-opacity:1; fill:none" points="316.512,1423.18 316.512,1404.28 "/>
<polyline clip-path="url(#clip720)" style="stroke:#000000; stroke-linecap:round; stroke-linejoin:round; stroke-width:4; stroke-opacity:1; fill:none" points="712.692,1423.18 712.692,1404.28 "/>
<polyline clip-path="url(#clip720)" style="stroke:#000000; stroke-linecap:round; stroke-linejoin:round; stroke-width:4; stroke-opacity:1; fill:none" points="1108.87,1423.18 1108.87,1404.28 "/>
<polyline clip-path="url(#clip720)" style="stroke:#000000; stroke-linecap:round; stroke-linejoin:round; stroke-width:4; stroke-opacity:1; fill:none" points="1505.05,1423.18 1505.05,1404.28 "/>
<polyline clip-path="url(#clip720)" style="stroke:#000000; stroke-linecap:round; stroke-linejoin:round; stroke-width:4; stroke-opacity:1; fill:none" points="1901.23,1423.18 1901.23,1404.28 "/>
<polyline clip-path="url(#clip720)" style="stroke:#000000; stroke-linecap:round; stroke-linejoin:round; stroke-width:4; stroke-opacity:1; fill:none" points="2297.41,1423.18 2297.41,1404.28 "/>
<path clip-path="url(#clip720)" d="M316.512 1454.1 Q312.901 1454.1 311.072 1457.66 Q309.267 1461.2 309.267 1468.33 Q309.267 1475.44 311.072 1479.01 Q312.901 1482.55 316.512 1482.55 Q320.146 1482.55 321.952 1479.01 Q323.781 1475.44 323.781 1468.33 Q323.781 1461.2 321.952 1457.66 Q320.146 1454.1 316.512 1454.1 M316.512 1450.39 Q322.322 1450.39 325.378 1455 Q328.456 1459.58 328.456 1468.33 Q328.456 1477.06 325.378 1481.67 Q322.322 1486.25 316.512 1486.25 Q310.702 1486.25 307.623 1481.67 Q304.568 1477.06 304.568 1468.33 Q304.568 1459.58 307.623 1455 Q310.702 1450.39 316.512 1450.39 Z" fill="#000000" fill-rule="nonzero" fill-opacity="1" /><path clip-path="url(#clip720)" d="M703.074 1481.64 L710.712 1481.64 L710.712 1455.28 L702.402 1456.95 L702.402 1452.69 L710.666 1451.02 L715.342 1451.02 L715.342 1481.64 L722.981 1481.64 L722.981 1485.58 L703.074 1485.58 L703.074 1481.64 Z" fill="#000000" fill-rule="nonzero" fill-opacity="1" /><path clip-path="url(#clip720)" d="M1103.52 1481.64 L1119.84 1481.64 L1119.84 1485.58 L1097.9 1485.58 L1097.9 1481.64 Q1100.56 1478.89 1105.14 1474.26 Q1109.75 1469.61 1110.93 1468.27 Q1113.18 1465.74 1114.06 1464.01 Q1114.96 1462.25 1114.96 1460.56 Q1114.96 1457.8 1113.01 1456.07 Q1111.09 1454.33 1107.99 1454.33 Q1105.79 1454.33 1103.34 1455.09 Q1100.91 1455.86 1098.13 1457.41 L1098.13 1452.69 Q1100.95 1451.55 1103.41 1450.97 Q1105.86 1450.39 1107.9 1450.39 Q1113.27 1450.39 1116.46 1453.08 Q1119.66 1455.77 1119.66 1460.26 Q1119.66 1462.39 1118.85 1464.31 Q1118.06 1466.2 1115.95 1468.8 Q1115.38 1469.47 1112.27 1472.69 Q1109.17 1475.88 1103.52 1481.64 Z" fill="#000000" fill-rule="nonzero" fill-opacity="1" /><path clip-path="url(#clip720)" d="M1509.3 1466.95 Q1512.65 1467.66 1514.53 1469.93 Q1516.43 1472.2 1516.43 1475.53 Q1516.43 1480.65 1512.91 1483.45 Q1509.39 1486.25 1502.91 1486.25 Q1500.73 1486.25 1498.42 1485.81 Q1496.13 1485.39 1493.67 1484.54 L1493.67 1480.02 Q1495.62 1481.16 1497.93 1481.74 Q1500.25 1482.32 1502.77 1482.32 Q1507.17 1482.32 1509.46 1480.58 Q1511.78 1478.84 1511.78 1475.53 Q1511.78 1472.48 1509.62 1470.77 Q1507.49 1469.03 1503.67 1469.03 L1499.65 1469.03 L1499.65 1465.19 L1503.86 1465.19 Q1507.31 1465.19 1509.14 1463.82 Q1510.96 1462.43 1510.96 1459.84 Q1510.96 1457.18 1509.07 1455.77 Q1507.19 1454.33 1503.67 1454.33 Q1501.75 1454.33 1499.55 1454.75 Q1497.35 1455.16 1494.72 1456.04 L1494.72 1451.88 Q1497.38 1451.14 1499.69 1450.77 Q1502.03 1450.39 1504.09 1450.39 Q1509.41 1450.39 1512.52 1452.83 Q1515.62 1455.23 1515.62 1459.35 Q1515.62 1462.22 1513.97 1464.21 Q1512.33 1466.18 1509.3 1466.95 Z" fill="#000000" fill-rule="nonzero" fill-opacity="1" /><path clip-path="url(#clip720)" d="M1904.24 1455.09 L1892.43 1473.54 L1904.24 1473.54 L1904.24 1455.09 M1903.01 1451.02 L1908.89 1451.02 L1908.89 1473.54 L1913.82 1473.54 L1913.82 1477.43 L1908.89 1477.43 L1908.89 1485.58 L1904.24 1485.58 L1904.24 1477.43 L1888.64 1477.43 L1888.64 1472.92 L1903.01 1451.02 Z" fill="#000000" fill-rule="nonzero" fill-opacity="1" /><path clip-path="url(#clip720)" d="M2287.69 1451.02 L2306.04 1451.02 L2306.04 1454.96 L2291.97 1454.96 L2291.97 1463.43 Q2292.99 1463.08 2294.01 1462.92 Q2295.03 1462.73 2296.04 1462.73 Q2301.83 1462.73 2305.21 1465.9 Q2308.59 1469.08 2308.59 1474.49 Q2308.59 1480.07 2305.12 1483.17 Q2301.65 1486.25 2295.33 1486.25 Q2293.15 1486.25 2290.88 1485.88 Q2288.64 1485.51 2286.23 1484.77 L2286.23 1480.07 Q2288.31 1481.2 2290.53 1481.76 Q2292.76 1482.32 2295.23 1482.32 Q2299.24 1482.32 2301.58 1480.21 Q2303.91 1478.1 2303.91 1474.49 Q2303.91 1470.88 2301.58 1468.77 Q2299.24 1466.67 2295.23 1466.67 Q2293.36 1466.67 2291.48 1467.08 Q2289.63 1467.5 2287.69 1468.38 L2287.69 1451.02 Z" fill="#000000" fill-rule="nonzero" fill-opacity="1" /><path clip-path="url(#clip720)" d="M1175.15 1520.52 L1215.35 1520.52 L1215.35 1525.93 L1198.48 1525.93 L1198.48 1568.04 L1192.02 1568.04 L1192.02 1525.93 L1175.15 1525.93 L1175.15 1520.52 Z" fill="#000000" fill-rule="nonzero" fill-opacity="1" /><path clip-path="url(#clip720)" d="M1219.3 1532.4 L1225.15 1532.4 L1225.15 1568.04 L1219.3 1568.04 L1219.3 1532.4 M1219.3 1518.52 L1225.15 1518.52 L1225.15 1525.93 L1219.3 1525.93 L1219.3 1518.52 Z" fill="#000000" fill-rule="nonzero" fill-opacity="1" /><path clip-path="url(#clip720)" d="M1265.16 1539.24 Q1267.36 1535.29 1270.41 1533.41 Q1273.47 1531.54 1277.61 1531.54 Q1283.18 1531.54 1286.2 1535.45 Q1289.22 1539.33 1289.22 1546.53 L1289.22 1568.04 L1283.34 1568.04 L1283.34 1546.72 Q1283.34 1541.59 1281.52 1539.11 Q1279.71 1536.63 1275.98 1536.63 Q1271.43 1536.63 1268.79 1539.65 Q1266.15 1542.68 1266.15 1547.9 L1266.15 1568.04 L1260.26 1568.04 L1260.26 1546.72 Q1260.26 1541.56 1258.45 1539.11 Q1256.63 1536.63 1252.84 1536.63 Q1248.36 1536.63 1245.72 1539.68 Q1243.07 1542.71 1243.07 1547.9 L1243.07 1568.04 L1237.19 1568.04 L1237.19 1532.4 L1243.07 1532.4 L1243.07 1537.93 Q1245.08 1534.66 1247.88 1533.1 Q1250.68 1531.54 1254.53 1531.54 Q1258.41 1531.54 1261.12 1533.51 Q1263.86 1535.48 1265.16 1539.24 Z" fill="#000000" fill-rule="nonzero" fill-opacity="1" /><path clip-path="url(#clip720)" d="M1331.4 1548.76 L1331.4 1551.62 L1304.47 1551.62 Q1304.85 1557.67 1308.1 1560.85 Q1311.38 1564 1317.2 1564 Q1320.58 1564 1323.73 1563.17 Q1326.91 1562.35 1330.03 1560.69 L1330.03 1566.23 Q1326.88 1567.57 1323.57 1568.27 Q1320.26 1568.97 1316.85 1568.97 Q1308.32 1568.97 1303.32 1564 Q1298.36 1559.04 1298.36 1550.57 Q1298.36 1541.82 1303.07 1536.69 Q1307.81 1531.54 1315.83 1531.54 Q1323.03 1531.54 1327.2 1536.18 Q1331.4 1540.8 1331.4 1548.76 M1325.54 1547.04 Q1325.48 1542.23 1322.84 1539.37 Q1320.23 1536.5 1315.9 1536.5 Q1311 1536.5 1308.04 1539.27 Q1305.11 1542.04 1304.66 1547.07 L1325.54 1547.04 Z" fill="#000000" fill-rule="nonzero" fill-opacity="1" /><path clip-path="url(#clip720)" d="M1375.8 1518.58 Q1371.53 1525.9 1369.46 1533.06 Q1367.4 1540.23 1367.4 1547.58 Q1367.4 1554.93 1369.46 1562.16 Q1371.57 1569.35 1375.8 1576.64 L1370.71 1576.64 Q1365.93 1569.16 1363.54 1561.93 Q1361.19 1554.71 1361.19 1547.58 Q1361.19 1540.48 1363.54 1533.29 Q1365.9 1526.09 1370.71 1518.58 L1375.8 1518.58 Z" fill="#000000" fill-rule="nonzero" fill-opacity="1" /><path clip-path="url(#clip720)" d="M1409.89 1533.45 L1409.89 1538.98 Q1407.4 1537.71 1404.73 1537.07 Q1402.06 1536.44 1399.19 1536.44 Q1394.83 1536.44 1392.64 1537.77 Q1390.47 1539.11 1390.47 1541.79 Q1390.47 1543.82 1392.03 1545 Q1393.59 1546.15 1398.3 1547.2 L1400.31 1547.64 Q1406.54 1548.98 1409.15 1551.43 Q1411.8 1553.85 1411.8 1558.21 Q1411.8 1563.17 1407.85 1566.07 Q1403.93 1568.97 1397.06 1568.97 Q1394.2 1568.97 1391.08 1568.39 Q1387.99 1567.85 1384.55 1566.74 L1384.55 1560.69 Q1387.8 1562.38 1390.95 1563.24 Q1394.1 1564.07 1397.19 1564.07 Q1401.32 1564.07 1403.55 1562.66 Q1405.78 1561.23 1405.78 1558.65 Q1405.78 1556.27 1404.16 1554.99 Q1402.57 1553.72 1397.12 1552.54 L1395.09 1552.07 Q1389.64 1550.92 1387.22 1548.56 Q1384.81 1546.18 1384.81 1542.04 Q1384.81 1537.01 1388.37 1534.27 Q1391.94 1531.54 1398.49 1531.54 Q1401.74 1531.54 1404.6 1532.01 Q1407.47 1532.49 1409.89 1533.45 Z" fill="#000000" fill-rule="nonzero" fill-opacity="1" /><path clip-path="url(#clip720)" d="M1420.2 1518.58 L1425.29 1518.58 Q1430.07 1526.09 1432.42 1533.29 Q1434.81 1540.48 1434.81 1547.58 Q1434.81 1554.71 1432.42 1561.93 Q1430.07 1569.16 1425.29 1576.64 L1420.2 1576.64 Q1424.43 1569.35 1426.5 1562.16 Q1428.6 1554.93 1428.6 1547.58 Q1428.6 1540.23 1426.5 1533.06 Q1424.43 1525.9 1420.2 1518.58 Z" fill="#000000" fill-rule="nonzero" fill-opacity="1" /><polyline clip-path="url(#clip720)" style="stroke:#000000; stroke-linecap:round; stroke-linejoin:round; stroke-width:4; stroke-opacity:1; fill:none" points="257.204,1423.18 257.204,847.244 "/>
<polyline clip-path="url(#clip720)" style="stroke:#000000; stroke-linecap:round; stroke-linejoin:round; stroke-width:4; stroke-opacity:1; fill:none" points="257.204,1406.88 276.102,1406.88 "/>
<polyline clip-path="url(#clip720)" style="stroke:#000000; stroke-linecap:round; stroke-linejoin:round; stroke-width:4; stroke-opacity:1; fill:none" points="257.204,1271.05 276.102,1271.05 "/>
<polyline clip-path="url(#clip720)" style="stroke:#000000; stroke-linecap:round; stroke-linejoin:round; stroke-width:4; stroke-opacity:1; fill:none" points="257.204,1135.21 276.102,1135.21 "/>
<polyline clip-path="url(#clip720)" style="stroke:#000000; stroke-linecap:round; stroke-linejoin:round; stroke-width:4; stroke-opacity:1; fill:none" points="257.204,999.378 276.102,999.378 "/>
<polyline clip-path="url(#clip720)" style="stroke:#000000; stroke-linecap:round; stroke-linejoin:round; stroke-width:4; stroke-opacity:1; fill:none" points="257.204,863.544 276.102,863.544 "/>
<path clip-path="url(#clip720)" d="M114.26 1407.33 L143.936 1407.33 L143.936 1411.27 L114.26 1411.27 L114.26 1407.33 Z" fill="#000000" fill-rule="nonzero" fill-opacity="1" /><path clip-path="url(#clip720)" d="M154.839 1420.22 L162.477 1420.22 L162.477 1393.86 L154.167 1395.53 L154.167 1391.27 L162.431 1389.6 L167.107 1389.6 L167.107 1420.22 L174.746 1420.22 L174.746 1424.16 L154.839 1424.16 L154.839 1420.22 Z" fill="#000000" fill-rule="nonzero" fill-opacity="1" /><path clip-path="url(#clip720)" d="M184.19 1418.28 L189.075 1418.28 L189.075 1424.16 L184.19 1424.16 L184.19 1418.28 Z" fill="#000000" fill-rule="nonzero" fill-opacity="1" /><path clip-path="url(#clip720)" d="M209.26 1392.68 Q205.649 1392.68 203.82 1396.24 Q202.014 1399.78 202.014 1406.91 Q202.014 1414.02 203.82 1417.59 Q205.649 1421.13 209.26 1421.13 Q212.894 1421.13 214.699 1417.59 Q216.528 1414.02 216.528 1406.91 Q216.528 1399.78 214.699 1396.24 Q212.894 1392.68 209.26 1392.68 M209.26 1388.97 Q215.07 1388.97 218.125 1393.58 Q221.204 1398.16 221.204 1406.91 Q221.204 1415.64 218.125 1420.25 Q215.07 1424.83 209.26 1424.83 Q203.449 1424.83 200.371 1420.25 Q197.315 1415.64 197.315 1406.91 Q197.315 1398.16 200.371 1393.58 Q203.449 1388.97 209.26 1388.97 Z" fill="#000000" fill-rule="nonzero" fill-opacity="1" /><path clip-path="url(#clip720)" d="M115.256 1271.5 L144.931 1271.5 L144.931 1275.43 L115.256 1275.43 L115.256 1271.5 Z" fill="#000000" fill-rule="nonzero" fill-opacity="1" /><path clip-path="url(#clip720)" d="M165.024 1256.84 Q161.413 1256.84 159.584 1260.41 Q157.778 1263.95 157.778 1271.08 Q157.778 1278.19 159.584 1281.75 Q161.413 1285.29 165.024 1285.29 Q168.658 1285.29 170.464 1281.75 Q172.292 1278.19 172.292 1271.08 Q172.292 1263.95 170.464 1260.41 Q168.658 1256.84 165.024 1256.84 M165.024 1253.14 Q170.834 1253.14 173.889 1257.75 Q176.968 1262.33 176.968 1271.08 Q176.968 1279.81 173.889 1284.41 Q170.834 1289 165.024 1289 Q159.214 1289 156.135 1284.41 Q153.079 1279.81 153.079 1271.08 Q153.079 1262.33 156.135 1257.75 Q159.214 1253.14 165.024 1253.14 Z" fill="#000000" fill-rule="nonzero" fill-opacity="1" /><path clip-path="url(#clip720)" d="M185.186 1282.45 L190.07 1282.45 L190.07 1288.33 L185.186 1288.33 L185.186 1282.45 Z" fill="#000000" fill-rule="nonzero" fill-opacity="1" /><path clip-path="url(#clip720)" d="M200.301 1253.77 L218.658 1253.77 L218.658 1257.7 L204.584 1257.7 L204.584 1266.17 Q205.602 1265.83 206.621 1265.66 Q207.639 1265.48 208.658 1265.48 Q214.445 1265.48 217.824 1268.65 Q221.204 1271.82 221.204 1277.24 Q221.204 1282.82 217.732 1285.92 Q214.26 1289 207.94 1289 Q205.764 1289 203.496 1288.63 Q201.25 1288.26 198.843 1287.52 L198.843 1282.82 Q200.926 1283.95 203.149 1284.51 Q205.371 1285.06 207.848 1285.06 Q211.852 1285.06 214.19 1282.96 Q216.528 1280.85 216.528 1277.24 Q216.528 1273.63 214.19 1271.52 Q211.852 1269.41 207.848 1269.41 Q205.973 1269.41 204.098 1269.83 Q202.246 1270.25 200.301 1271.13 L200.301 1253.77 Z" fill="#000000" fill-rule="nonzero" fill-opacity="1" /><path clip-path="url(#clip720)" d="M164.028 1121.01 Q160.417 1121.01 158.589 1124.58 Q156.783 1128.12 156.783 1135.25 Q156.783 1142.35 158.589 1145.92 Q160.417 1149.46 164.028 1149.46 Q167.663 1149.46 169.468 1145.92 Q171.297 1142.35 171.297 1135.25 Q171.297 1128.12 169.468 1124.58 Q167.663 1121.01 164.028 1121.01 M164.028 1117.31 Q169.839 1117.31 172.894 1121.91 Q175.973 1126.5 175.973 1135.25 Q175.973 1143.97 172.894 1148.58 Q169.839 1153.16 164.028 1153.16 Q158.218 1153.16 155.14 1148.58 Q152.084 1143.97 152.084 1135.25 Q152.084 1126.5 155.14 1121.91 Q158.218 1117.31 164.028 1117.31 Z" fill="#000000" fill-rule="nonzero" fill-opacity="1" /><path clip-path="url(#clip720)" d="M184.19 1146.61 L189.075 1146.61 L189.075 1152.49 L184.19 1152.49 L184.19 1146.61 Z" fill="#000000" fill-rule="nonzero" fill-opacity="1" /><path clip-path="url(#clip720)" d="M209.26 1121.01 Q205.649 1121.01 203.82 1124.58 Q202.014 1128.12 202.014 1135.25 Q202.014 1142.35 203.82 1145.92 Q205.649 1149.46 209.26 1149.46 Q212.894 1149.46 214.699 1145.92 Q216.528 1142.35 216.528 1135.25 Q216.528 1128.12 214.699 1124.58 Q212.894 1121.01 209.26 1121.01 M209.26 1117.31 Q215.07 1117.31 218.125 1121.91 Q221.204 1126.5 221.204 1135.25 Q221.204 1143.97 218.125 1148.58 Q215.07 1153.16 209.26 1153.16 Q203.449 1153.16 200.371 1148.58 Q197.315 1143.97 197.315 1135.25 Q197.315 1126.5 200.371 1121.91 Q203.449 1117.31 209.26 1117.31 Z" fill="#000000" fill-rule="nonzero" fill-opacity="1" /><path clip-path="url(#clip720)" d="M165.024 985.177 Q161.413 985.177 159.584 988.742 Q157.778 992.283 157.778 999.413 Q157.778 1006.52 159.584 1010.08 Q161.413 1013.63 165.024 1013.63 Q168.658 1013.63 170.464 1010.08 Q172.292 1006.52 172.292 999.413 Q172.292 992.283 170.464 988.742 Q168.658 985.177 165.024 985.177 M165.024 981.473 Q170.834 981.473 173.889 986.08 Q176.968 990.663 176.968 999.413 Q176.968 1008.14 173.889 1012.75 Q170.834 1017.33 165.024 1017.33 Q159.214 1017.33 156.135 1012.75 Q153.079 1008.14 153.079 999.413 Q153.079 990.663 156.135 986.08 Q159.214 981.473 165.024 981.473 Z" fill="#000000" fill-rule="nonzero" fill-opacity="1" /><path clip-path="url(#clip720)" d="M185.186 1010.78 L190.07 1010.78 L190.07 1016.66 L185.186 1016.66 L185.186 1010.78 Z" fill="#000000" fill-rule="nonzero" fill-opacity="1" /><path clip-path="url(#clip720)" d="M200.301 982.098 L218.658 982.098 L218.658 986.033 L204.584 986.033 L204.584 994.505 Q205.602 994.158 206.621 993.996 Q207.639 993.811 208.658 993.811 Q214.445 993.811 217.824 996.982 Q221.204 1000.15 221.204 1005.57 Q221.204 1011.15 217.732 1014.25 Q214.26 1017.33 207.94 1017.33 Q205.764 1017.33 203.496 1016.96 Q201.25 1016.59 198.843 1015.85 L198.843 1011.15 Q200.926 1012.28 203.149 1012.84 Q205.371 1013.39 207.848 1013.39 Q211.852 1013.39 214.19 1011.29 Q216.528 1009.18 216.528 1005.57 Q216.528 1001.96 214.19 999.853 Q211.852 997.746 207.848 997.746 Q205.973 997.746 204.098 998.163 Q202.246 998.579 200.301 999.459 L200.301 982.098 Z" fill="#000000" fill-rule="nonzero" fill-opacity="1" /><path clip-path="url(#clip720)" d="M154.839 876.889 L162.477 876.889 L162.477 850.523 L154.167 852.19 L154.167 847.931 L162.431 846.264 L167.107 846.264 L167.107 876.889 L174.746 876.889 L174.746 880.824 L154.839 880.824 L154.839 876.889 Z" fill="#000000" fill-rule="nonzero" fill-opacity="1" /><path clip-path="url(#clip720)" d="M184.19 874.945 L189.075 874.945 L189.075 880.824 L184.19 880.824 L184.19 874.945 Z" fill="#000000" fill-rule="nonzero" fill-opacity="1" /><path clip-path="url(#clip720)" d="M209.26 849.343 Q205.649 849.343 203.82 852.908 Q202.014 856.449 202.014 863.579 Q202.014 870.685 203.82 874.25 Q205.649 877.792 209.26 877.792 Q212.894 877.792 214.699 874.25 Q216.528 870.685 216.528 863.579 Q216.528 856.449 214.699 852.908 Q212.894 849.343 209.26 849.343 M209.26 845.639 Q215.07 845.639 218.125 850.246 Q221.204 854.829 221.204 863.579 Q221.204 872.306 218.125 876.912 Q215.07 881.495 209.26 881.495 Q203.449 881.495 200.371 876.912 Q197.315 872.306 197.315 863.579 Q197.315 854.829 200.371 850.246 Q203.449 845.639 209.26 845.639 Z" fill="#000000" fill-rule="nonzero" fill-opacity="1" /><path clip-path="url(#clip720)" d="M49.9359 1150.14 L28.3562 1150.14 L28.3562 1144.28 L49.7131 1144.28 Q54.7739 1144.28 57.3202 1142.31 Q59.8346 1140.34 59.8346 1136.39 Q59.8346 1131.65 56.8109 1128.91 Q53.7872 1126.14 48.5673 1126.14 L28.3562 1126.14 L28.3562 1120.28 L64.0042 1120.28 L64.0042 1126.14 L58.5296 1126.14 Q61.7762 1128.27 63.3676 1131.11 Q64.9272 1133.91 64.9272 1137.63 Q64.9272 1143.77 61.1078 1146.96 Q57.2883 1150.14 49.9359 1150.14 M27.4968 1135.4 L27.4968 1135.4 Z" fill="#000000" fill-rule="nonzero" fill-opacity="1" /><polyline clip-path="url(#clip723)" style="stroke:#009af9; stroke-linecap:round; stroke-linejoin:round; stroke-width:4; stroke-opacity:1; fill:none" points="316.512,1406.88 320.474,1406.88 324.436,1406.88 328.397,1406.88 332.359,1406.88 336.321,1406.88 336.321,863.544 340.283,863.544 344.245,863.544 348.206,863.544 352.168,863.544 356.13,863.544 360.092,863.544 364.054,863.544 368.015,863.544 371.977,863.544 375.939,863.544 375.939,1406.88 379.901,1406.88 383.863,1406.88 387.824,1406.88 391.786,1406.88 395.748,1406.88 395.748,863.544 399.71,863.544 403.672,863.544 407.633,863.544 411.595,863.544 415.557,863.544 419.519,863.544 423.481,863.544 427.442,863.544 431.404,863.544 435.366,863.544 435.366,1406.88 439.328,1406.88 443.29,1406.88 447.251,1406.88 451.213,1406.88 455.175,1406.88 455.175,863.544 459.137,863.544 463.099,863.544 467.06,863.544 471.022,863.544 474.984,863.544 474.984,1406.88 478.946,1406.88 482.907,1406.88 486.869,1406.88 490.831,1406.88 494.793,1406.88 494.793,863.544 498.755,863.544 502.716,863.544 506.678,863.544 510.64,863.544 514.602,863.544 514.602,1406.88 518.564,1406.88 522.525,1406.88 526.487,1406.88 530.449,1406.88 534.411,1406.88 534.411,863.544 538.373,863.544 542.334,863.544 546.296,863.544 550.258,863.544 554.22,863.544 558.182,863.544 562.143,863.544 566.105,863.544 570.067,863.544 574.029,863.544 577.991,863.544 581.952,863.544 585.914,863.544 589.876,863.544 593.838,863.544 597.8,863.544 601.761,863.544 605.723,863.544 609.685,863.544 613.647,863.544 613.647,1406.88 617.609,1406.88 621.57,1406.88 625.532,1406.88 629.494,1406.88 633.456,1406.88 637.418,1406.88 641.379,1406.88 645.341,1406.88 649.303,1406.88 653.265,1406.88 653.265,863.544 657.226,863.544 661.188,863.544 665.15,863.544 669.112,863.544 673.074,863.544 677.035,863.544 680.997,863.544 684.959,863.544 688.921,863.544 692.883,863.544 696.844,863.544 700.806,863.544 704.768,863.544 708.73,863.544 712.692,863.544 712.692,1406.88 716.653,1406.88 720.615,1406.88 724.577,1406.88 728.539,1406.88 732.501,1406.88 736.462,1406.88 740.424,1406.88 744.386,1406.88 748.348,1406.88 752.31,1406.88 756.271,1406.88 760.233,1406.88 764.195,1406.88 768.157,1406.88 772.119,1406.88 776.08,1406.88 780.042,1406.88 784.004,1406.88 787.966,1406.88 791.928,1406.88 791.928,863.544 795.889,863.544 799.851,863.544 803.813,863.544 807.775,863.544 811.736,863.544 811.736,1406.88 815.698,1406.88 819.66,1406.88 823.622,1406.88 827.584,1406.88 831.545,1406.88 835.507,1406.88 839.469,1406.88 843.431,1406.88 847.393,1406.88 851.354,1406.88 851.354,863.544 855.316,863.544 859.278,863.544 863.24,863.544 867.202,863.544 871.163,863.544 871.163,1406.88 875.125,1406.88 879.087,1406.88 883.049,1406.88 887.011,1406.88 890.972,1406.88 890.972,863.544 894.934,863.544 898.896,863.544 902.858,863.544 906.82,863.544 910.781,863.544 914.743,863.544 918.705,863.544 922.667,863.544 926.629,863.544 930.59,863.544 934.552,863.544 938.514,863.544 942.476,863.544 946.438,863.544 950.399,863.544 950.399,1406.88 954.361,1406.88 958.323,1406.88 962.285,1406.88 966.246,1406.88 970.208,1406.88 970.208,863.544 974.17,863.544 978.132,863.544 982.094,863.544 986.055,863.544 990.017,863.544 993.979,863.544 997.941,863.544 1001.9,863.544 1005.86,863.544 1009.83,863.544 1013.79,863.544 1017.75,863.544 1021.71,863.544 1025.67,863.544 1029.64,863.544 1029.64,1406.88 1033.6,1406.88 1037.56,1406.88 1041.52,1406.88 1045.48,1406.88 1049.44,1406.88 1049.44,863.544 1053.41,863.544 1057.37,863.544 1061.33,863.544 1065.29,863.544 1069.25,863.544 1073.21,863.544 1077.18,863.544 1081.14,863.544 1085.1,863.544 1089.06,863.544 1089.06,1406.88 1093.02,1406.88 1096.99,1406.88 1100.95,1406.88 1104.91,1406.88 1108.87,1406.88 1112.83,1406.88 1116.79,1406.88 1120.76,1406.88 1124.72,1406.88 1128.68,1406.88 1128.68,863.544 1132.64,863.544 1136.6,863.544 1140.57,863.544 1144.53,863.544 1148.49,863.544 1152.45,863.544 1156.41,863.544 1160.37,863.544 1164.34,863.544 1168.3,863.544 1172.26,863.544 1176.22,863.544 1180.18,863.544 1184.15,863.544 1188.11,863.544 1188.11,1406.88 1192.07,1406.88 1196.03,1406.88 1199.99,1406.88 1203.95,1406.88 1207.92,1406.88 1207.92,863.544 1211.88,863.544 1215.84,863.544 1219.8,863.544 1223.76,863.544 1227.72,863.544 1227.72,1406.88 1231.69,1406.88 1235.65,1406.88 1239.61,1406.88 1243.57,1406.88 1247.53,1406.88 1251.5,1406.88 1255.46,1406.88 1259.42,1406.88 1263.38,1406.88 1267.34,1406.88 1267.34,863.544 1271.3,863.544 1275.27,863.544 1279.23,863.544 1283.19,863.544 1287.15,863.544 1287.15,1406.88 1291.11,1406.88 1295.08,1406.88 1299.04,1406.88 1303,1406.88 1306.96,1406.88 1306.96,863.544 1310.92,863.544 1314.88,863.544 1318.85,863.544 1322.81,863.544 1326.77,863.544 1326.77,1406.88 1330.73,1406.88 1334.69,1406.88 1338.66,1406.88 1342.62,1406.88 1346.58,1406.88 1346.58,863.544 1350.54,863.544 1354.5,863.544 1358.46,863.544 1362.43,863.544 1366.39,863.544 1370.35,863.544 1374.31,863.544 1378.27,863.544 1382.23,863.544 1386.2,863.544 1386.2,1406.88 1390.16,1406.88 1394.12,1406.88 1398.08,1406.88 1402.04,1406.88 1406.01,1406.88 1406.01,863.544 1409.97,863.544 1413.93,863.544 1417.89,863.544 1421.85,863.544 1425.81,863.544 1429.78,863.544 1433.74,863.544 1437.7,863.544 1441.66,863.544 1445.62,863.544 1445.62,1406.88 1449.59,1406.88 1453.55,1406.88 1457.51,1406.88 1461.47,1406.88 1465.43,1406.88 1465.43,863.544 1469.39,863.544 1473.36,863.544 1477.32,863.544 1481.28,863.544 1485.24,863.544 1489.2,863.544 1493.17,863.544 1497.13,863.544 1501.09,863.544 1505.05,863.544 1505.05,1406.88 1509.01,1406.88 1512.97,1406.88 1516.94,1406.88 1520.9,1406.88 1524.86,1406.88 1528.82,1406.88 1532.78,1406.88 1536.74,1406.88 1540.71,1406.88 1544.67,1406.88 1544.67,863.544 1548.63,863.544 1552.59,863.544 1556.55,863.544 1560.52,863.544 1564.48,863.544 1564.48,1406.88 1568.44,1406.88 1572.4,1406.88 1576.36,1406.88 1580.32,1406.88 1584.29,1406.88 1588.25,1406.88 1592.21,1406.88 1596.17,1406.88 1600.13,1406.88 1604.1,1406.88 1608.06,1406.88 1612.02,1406.88 1615.98,1406.88 1619.94,1406.88 1623.9,1406.88 1627.87,1406.88 1631.83,1406.88 1635.79,1406.88 1639.75,1406.88 1643.71,1406.88 1647.68,1406.88 1651.64,1406.88 1655.6,1406.88 1659.56,1406.88 1663.52,1406.88 1667.48,1406.88 1671.45,1406.88 1675.41,1406.88 1679.37,1406.88 1683.33,1406.88 1683.33,863.544 1687.29,863.544 1691.25,863.544 1695.22,863.544 1699.18,863.544 1703.14,863.544 1703.14,1406.88 1707.1,1406.88 1711.06,1406.88 1715.03,1406.88 1718.99,1406.88 1722.95,1406.88 1722.95,863.544 1726.91,863.544 1730.87,863.544 1734.83,863.544 1738.8,863.544 1742.76,863.544 1746.72,863.544 1750.68,863.544 1754.64,863.544 1758.61,863.544 1762.57,863.544 1766.53,863.544 1770.49,863.544 1774.45,863.544 1778.41,863.544 1782.38,863.544 1786.34,863.544 1790.3,863.544 1794.26,863.544 1798.22,863.544 1802.19,863.544 1806.15,863.544 1810.11,863.544 1814.07,863.544 1818.03,863.544 1821.99,863.544 1825.96,863.544 1829.92,863.544 1833.88,863.544 1837.84,863.544 1841.8,863.544 1845.76,863.544 1849.73,863.544 1853.69,863.544 1857.65,863.544 1861.61,863.544 1861.61,1406.88 1865.57,1406.88 1869.54,1406.88 1873.5,1406.88 1877.46,1406.88 1881.42,1406.88 1885.38,1406.88 1889.34,1406.88 1893.31,1406.88 1897.27,1406.88 1901.23,1406.88 1901.23,863.544 1905.19,863.544 1909.15,863.544 1913.12,863.544 1917.08,863.544 1921.04,863.544 1921.04,1406.88 1925,1406.88 1928.96,1406.88 1932.92,1406.88 1936.89,1406.88 1940.85,1406.88 1944.81,1406.88 1948.77,1406.88 1952.73,1406.88 1956.7,1406.88 1960.66,1406.88 1964.62,1406.88 1968.58,1406.88 1972.54,1406.88 1976.5,1406.88 1980.47,1406.88 1980.47,863.544 1984.43,863.544 1988.39,863.544 1992.35,863.544 1996.31,863.544 2000.27,863.544 2004.24,863.544 2008.2,863.544 2012.16,863.544 2016.12,863.544 2020.08,863.544 2020.08,1406.88 2024.05,1406.88 2028.01,1406.88 2031.97,1406.88 2035.93,1406.88 2039.89,1406.88 2043.85,1406.88 2047.82,1406.88 2051.78,1406.88 2055.74,1406.88 2059.7,1406.88 2063.66,1406.88 2067.63,1406.88 2071.59,1406.88 2075.55,1406.88 2079.51,1406.88 2083.47,1406.88 2087.43,1406.88 2091.4,1406.88 2095.36,1406.88 2099.32,1406.88 2103.28,1406.88 2107.24,1406.88 2111.21,1406.88 2115.17,1406.88 2119.13,1406.88 2123.09,1406.88 2127.05,1406.88 2131.01,1406.88 2134.98,1406.88 2138.94,1406.88 2142.9,1406.88 2146.86,1406.88 2150.82,1406.88 2154.79,1406.88 2158.75,1406.88 2162.71,1406.88 2166.67,1406.88 2170.63,1406.88 2174.59,1406.88 2178.56,1406.88 2178.56,863.544 2182.52,863.544 2186.48,863.544 2190.44,863.544 2194.4,863.544 2198.36,863.544 2198.36,1406.88 2202.33,1406.88 2206.29,1406.88 2210.25,1406.88 2214.21,1406.88 2218.17,1406.88 2218.17,863.544 2222.14,863.544 2226.1,863.544 2230.06,863.544 2234.02,863.544 2237.98,863.544 2237.98,1406.88 2241.94,1406.88 2245.91,1406.88 2249.87,1406.88 2253.83,1406.88 2257.79,1406.88 2261.75,1406.88 2265.72,1406.88 2269.68,1406.88 2273.64,1406.88 2277.6,1406.88 2281.56,1406.88 2285.52,1406.88 2289.49,1406.88 2293.45,1406.88 "/>
</svg>
