<?xml version="1.0" encoding="utf-8"?>
<svg xmlns="http://www.w3.org/2000/svg" xmlns:xlink="http://www.w3.org/1999/xlink" width="600" height="400" viewBox="0 0 2400 1600">
<defs>
  <clipPath id="clip870">
    <rect x="0" y="0" width="2400" height="1600"/>
  </clipPath>
</defs>
<path clip-path="url(#clip870)" d="M0 1600 L2400 1600 L2400 0 L0 0  Z" fill="#ffffff" fill-rule="evenodd" fill-opacity="1"/>
<defs>
  <clipPath id="clip871">
    <rect x="480" y="0" width="1681" height="1600"/>
  </clipPath>
</defs>
<path clip-path="url(#clip870)" d="M255.977 1423.18 L2352.76 1423.18 L2352.76 47.2441 L255.977 47.2441  Z" fill="#ffffff" fill-rule="evenodd" fill-opacity="1"/>
<defs>
  <clipPath id="clip872">
    <rect x="255" y="47" width="2098" height="1377"/>
  </clipPath>
</defs>
<polyline clip-path="url(#clip872)" style="stroke:#000000; stroke-linecap:round; stroke-linejoin:round; stroke-width:2; stroke-opacity:0.1; fill:none" points="315.32,1423.18 315.32,47.2441 "/>
<polyline clip-path="url(#clip872)" style="stroke:#000000; stroke-linecap:round; stroke-linejoin:round; stroke-width:2; stroke-opacity:0.1; fill:none" points="711.731,1423.18 711.731,47.2441 "/>
<polyline clip-path="url(#clip872)" style="stroke:#000000; stroke-linecap:round; stroke-linejoin:round; stroke-width:2; stroke-opacity:0.1; fill:none" points="1108.14,1423.18 1108.14,47.2441 "/>
<polyline clip-path="url(#clip872)" style="stroke:#000000; stroke-linecap:round; stroke-linejoin:round; stroke-width:2; stroke-opacity:0.1; fill:none" points="1504.55,1423.18 1504.55,47.2441 "/>
<polyline clip-path="url(#clip872)" style="stroke:#000000; stroke-linecap:round; stroke-linejoin:round; stroke-width:2; stroke-opacity:0.1; fill:none" points="1900.97,1423.18 1900.97,47.2441 "/>
<polyline clip-path="url(#clip872)" style="stroke:#000000; stroke-linecap:round; stroke-linejoin:round; stroke-width:2; stroke-opacity:0.1; fill:none" points="2297.38,1423.18 2297.38,47.2441 "/>
<polyline clip-path="url(#clip872)" style="stroke:#000000; stroke-linecap:round; stroke-linejoin:round; stroke-width:2; stroke-opacity:0.1; fill:none" points="255.977,1324.16 2352.76,1324.16 "/>
<polyline clip-path="url(#clip872)" style="stroke:#000000; stroke-linecap:round; stroke-linejoin:round; stroke-width:2; stroke-opacity:0.1; fill:none" points="255.977,992.704 2352.76,992.704 "/>
<polyline clip-path="url(#clip872)" style="stroke:#000000; stroke-linecap:round; stroke-linejoin:round; stroke-width:2; stroke-opacity:0.1; fill:none" points="255.977,661.248 2352.76,661.248 "/>
<polyline clip-path="url(#clip872)" style="stroke:#000000; stroke-linecap:round; stroke-linejoin:round; stroke-width:2; stroke-opacity:0.1; fill:none" points="255.977,329.792 2352.76,329.792 "/>
<polyline clip-path="url(#clip870)" style="stroke:#000000; stroke-linecap:round; stroke-linejoin:round; stroke-width:4; stroke-opacity:1; fill:none" points="255.977,1423.18 2352.76,1423.18 "/>
<polyline clip-path="url(#clip870)" style="stroke:#000000; stroke-linecap:round; stroke-linejoin:round; stroke-width:4; stroke-opacity:1; fill:none" points="315.32,1423.18 315.32,1404.28 "/>
<polyline clip-path="url(#clip870)" style="stroke:#000000; stroke-linecap:round; stroke-linejoin:round; stroke-width:4; stroke-opacity:1; fill:none" points="711.731,1423.18 711.731,1404.28 "/>
<polyline clip-path="url(#clip870)" style="stroke:#000000; stroke-linecap:round; stroke-linejoin:round; stroke-width:4; stroke-opacity:1; fill:none" points="1108.14,1423.18 1108.14,1404.28 "/>
<polyline clip-path="url(#clip870)" style="stroke:#000000; stroke-linecap:round; stroke-linejoin:round; stroke-width:4; stroke-opacity:1; fill:none" points="1504.55,1423.18 1504.55,1404.28 "/>
<polyline clip-path="url(#clip870)" style="stroke:#000000; stroke-linecap:round; stroke-linejoin:round; stroke-width:4; stroke-opacity:1; fill:none" points="1900.97,1423.18 1900.97,1404.28 "/>
<polyline clip-path="url(#clip870)" style="stroke:#000000; stroke-linecap:round; stroke-linejoin:round; stroke-width:4; stroke-opacity:1; fill:none" points="2297.38,1423.18 2297.38,1404.28 "/>
<path clip-path="url(#clip870)" d="M315.32 1454.1 Q311.709 1454.1 309.88 1457.66 Q308.075 1461.2 308.075 1468.33 Q308.075 1475.44 309.88 1479.01 Q311.709 1482.55 315.32 1482.55 Q318.954 1482.55 320.76 1479.01 Q322.588 1475.44 322.588 1468.33 Q322.588 1461.2 320.76 1457.66 Q318.954 1454.1 315.32 1454.1 M315.32 1450.39 Q321.13 1450.39 324.186 1455 Q327.264 1459.58 327.264 1468.33 Q327.264 1477.06 324.186 1481.67 Q321.13 1486.25 315.32 1486.25 Q309.51 1486.25 306.431 1481.67 Q303.376 1477.06 303.376 1468.33 Q303.376 1459.58 306.431 1455 Q309.51 1450.39 315.32 1450.39 Z" fill="#000000" fill-rule="nonzero" fill-opacity="1" /><path clip-path="url(#clip870)" d="M702.113 1481.64 L709.752 1481.64 L709.752 1455.28 L701.442 1456.95 L701.442 1452.69 L709.706 1451.02 L714.382 1451.02 L714.382 1481.64 L722.021 1481.64 L722.021 1485.58 L702.113 1485.58 L702.113 1481.64 Z" fill="#000000" fill-rule="nonzero" fill-opacity="1" /><path clip-path="url(#clip870)" d="M1102.8 1481.64 L1119.12 1481.64 L1119.12 1485.58 L1097.17 1485.58 L1097.17 1481.64 Q1099.83 1478.89 1104.42 1474.26 Q1109.02 1469.61 1110.2 1468.27 Q1112.45 1465.74 1113.33 1464.01 Q1114.23 1462.25 1114.23 1460.56 Q1114.23 1457.8 1112.29 1456.07 Q1110.37 1454.33 1107.26 1454.33 Q1105.06 1454.33 1102.61 1455.09 Q1100.18 1455.86 1097.4 1457.41 L1097.4 1452.69 Q1100.23 1451.55 1102.68 1450.97 Q1105.13 1450.39 1107.17 1450.39 Q1112.54 1450.39 1115.74 1453.08 Q1118.93 1455.77 1118.93 1460.26 Q1118.93 1462.39 1118.12 1464.31 Q1117.33 1466.2 1115.23 1468.8 Q1114.65 1469.47 1111.55 1472.69 Q1108.44 1475.88 1102.8 1481.64 Z" fill="#000000" fill-rule="nonzero" fill-opacity="1" /><path clip-path="url(#clip870)" d="M1508.8 1466.95 Q1512.16 1467.66 1514.03 1469.93 Q1515.93 1472.2 1515.93 1475.53 Q1515.93 1480.65 1512.41 1483.45 Q1508.89 1486.25 1502.41 1486.25 Q1500.24 1486.25 1497.92 1485.81 Q1495.63 1485.39 1493.18 1484.54 L1493.18 1480.02 Q1495.12 1481.16 1497.44 1481.74 Q1499.75 1482.32 1502.27 1482.32 Q1506.67 1482.32 1508.96 1480.58 Q1511.28 1478.84 1511.28 1475.53 Q1511.28 1472.48 1509.13 1470.77 Q1507 1469.03 1503.18 1469.03 L1499.15 1469.03 L1499.15 1465.19 L1503.36 1465.19 Q1506.81 1465.19 1508.64 1463.82 Q1510.47 1462.43 1510.47 1459.84 Q1510.47 1457.18 1508.57 1455.77 Q1506.7 1454.33 1503.18 1454.33 Q1501.26 1454.33 1499.06 1454.75 Q1496.86 1455.16 1494.22 1456.04 L1494.22 1451.88 Q1496.88 1451.14 1499.2 1450.77 Q1501.53 1450.39 1503.59 1450.39 Q1508.92 1450.39 1512.02 1452.83 Q1515.12 1455.23 1515.12 1459.35 Q1515.12 1462.22 1513.48 1464.21 Q1511.83 1466.18 1508.8 1466.95 Z" fill="#000000" fill-rule="nonzero" fill-opacity="1" /><path clip-path="url(#clip870)" d="M1903.98 1455.09 L1892.17 1473.54 L1903.98 1473.54 L1903.98 1455.09 M1902.75 1451.02 L1908.63 1451.02 L1908.63 1473.54 L1913.56 1473.54 L1913.56 1477.43 L1908.63 1477.43 L1908.63 1485.58 L1903.98 1485.58 L1903.98 1477.43 L1888.37 1477.43 L1888.37 1472.92 L1902.75 1451.02 Z" fill="#000000" fill-rule="nonzero" fill-opacity="1" /><path clip-path="url(#clip870)" d="M2287.66 1451.02 L2306.01 1451.02 L2306.01 1454.96 L2291.94 1454.96 L2291.94 1463.43 Q2292.96 1463.08 2293.97 1462.92 Q2294.99 1462.73 2296.01 1462.73 Q2301.8 1462.73 2305.18 1465.9 Q2308.56 1469.08 2308.56 1474.49 Q2308.56 1480.07 2305.09 1483.17 Q2301.61 1486.25 2295.29 1486.25 Q2293.12 1486.25 2290.85 1485.88 Q2288.6 1485.51 2286.2 1484.77 L2286.2 1480.07 Q2288.28 1481.2 2290.5 1481.76 Q2292.72 1482.32 2295.2 1482.32 Q2299.21 1482.32 2301.54 1480.21 Q2303.88 1478.1 2303.88 1474.49 Q2303.88 1470.88 2301.54 1468.77 Q2299.21 1466.67 2295.2 1466.67 Q2293.33 1466.67 2291.45 1467.08 Q2289.6 1467.5 2287.66 1468.38 L2287.66 1451.02 Z" fill="#000000" fill-rule="nonzero" fill-opacity="1" /><path clip-path="url(#clip870)" d="M1174.54 1520.52 L1214.74 1520.52 L1214.74 1525.93 L1197.87 1525.93 L1197.87 1568.04 L1191.41 1568.04 L1191.41 1525.93 L1174.54 1525.93 L1174.54 1520.52 Z" fill="#000000" fill-rule="nonzero" fill-opacity="1" /><path clip-path="url(#clip870)" d="M1218.68 1532.4 L1224.54 1532.4 L1224.54 1568.04 L1218.68 1568.04 L1218.68 1532.4 M1218.68 1518.52 L1224.54 1518.52 L1224.54 1525.93 L1218.68 1525.93 L1218.68 1518.52 Z" fill="#000000" fill-rule="nonzero" fill-opacity="1" /><path clip-path="url(#clip870)" d="M1264.55 1539.24 Q1266.75 1535.29 1269.8 1533.41 Q1272.86 1531.54 1276.99 1531.54 Q1282.56 1531.54 1285.59 1535.45 Q1288.61 1539.33 1288.61 1546.53 L1288.61 1568.04 L1282.72 1568.04 L1282.72 1546.72 Q1282.72 1541.59 1280.91 1539.11 Q1279.09 1536.63 1275.37 1536.63 Q1270.82 1536.63 1268.18 1539.65 Q1265.54 1542.68 1265.54 1547.9 L1265.54 1568.04 L1259.65 1568.04 L1259.65 1546.72 Q1259.65 1541.56 1257.83 1539.11 Q1256.02 1536.63 1252.23 1536.63 Q1247.74 1536.63 1245.1 1539.68 Q1242.46 1542.71 1242.46 1547.9 L1242.46 1568.04 L1236.57 1568.04 L1236.57 1532.4 L1242.46 1532.4 L1242.46 1537.93 Q1244.47 1534.66 1247.27 1533.1 Q1250.07 1531.54 1253.92 1531.54 Q1257.8 1531.54 1260.51 1533.51 Q1263.24 1535.48 1264.55 1539.24 Z" fill="#000000" fill-rule="nonzero" fill-opacity="1" /><path clip-path="url(#clip870)" d="M1330.78 1548.76 L1330.78 1551.62 L1303.86 1551.62 Q1304.24 1557.67 1307.49 1560.85 Q1310.76 1564 1316.59 1564 Q1319.96 1564 1323.11 1563.17 Q1326.3 1562.35 1329.42 1560.69 L1329.42 1566.23 Q1326.26 1567.57 1322.95 1568.27 Q1319.64 1568.97 1316.24 1568.97 Q1307.71 1568.97 1302.71 1564 Q1297.75 1559.04 1297.75 1550.57 Q1297.75 1541.82 1302.46 1536.69 Q1307.2 1531.54 1315.22 1531.54 Q1322.41 1531.54 1326.58 1536.18 Q1330.78 1540.8 1330.78 1548.76 M1324.93 1547.04 Q1324.86 1542.23 1322.22 1539.37 Q1319.61 1536.5 1315.28 1536.5 Q1310.38 1536.5 1307.42 1539.27 Q1304.49 1542.04 1304.05 1547.07 L1324.93 1547.04 Z" fill="#000000" fill-rule="nonzero" fill-opacity="1" /><path clip-path="url(#clip870)" d="M1360.58 1518.52 L1374.07 1518.52 L1374.07 1523.07 L1366.43 1523.07 L1366.43 1572.09 L1374.07 1572.09 L1374.07 1576.64 L1360.58 1576.64 L1360.58 1518.52 Z" fill="#000000" fill-rule="nonzero" fill-opacity="1" /><path clip-path="url(#clip870)" d="M1409.27 1533.45 L1409.27 1538.98 Q1406.79 1537.71 1404.12 1537.07 Q1401.44 1536.44 1398.58 1536.44 Q1394.22 1536.44 1392.02 1537.77 Q1389.86 1539.11 1389.86 1541.79 Q1389.86 1543.82 1391.42 1545 Q1392.98 1546.15 1397.69 1547.2 L1399.69 1547.64 Q1405.93 1548.98 1408.54 1551.43 Q1411.18 1553.85 1411.18 1558.21 Q1411.18 1563.17 1407.24 1566.07 Q1403.32 1568.97 1396.45 1568.97 Q1393.58 1568.97 1390.46 1568.39 Q1387.38 1567.85 1383.94 1566.74 L1383.94 1560.69 Q1387.18 1562.38 1390.34 1563.24 Q1393.49 1564.07 1396.57 1564.07 Q1400.71 1564.07 1402.94 1562.66 Q1405.17 1561.23 1405.17 1558.65 Q1405.17 1556.27 1403.54 1554.99 Q1401.95 1553.72 1396.51 1552.54 L1394.47 1552.07 Q1389.03 1550.92 1386.61 1548.56 Q1384.19 1546.18 1384.19 1542.04 Q1384.19 1537.01 1387.76 1534.27 Q1391.32 1531.54 1397.88 1531.54 Q1401.13 1531.54 1403.99 1532.01 Q1406.85 1532.49 1409.27 1533.45 Z" fill="#000000" fill-rule="nonzero" fill-opacity="1" /><path clip-path="url(#clip870)" d="M1434.2 1518.52 L1434.2 1576.64 L1420.7 1576.64 L1420.7 1572.09 L1428.31 1572.09 L1428.31 1523.07 L1420.7 1523.07 L1420.7 1518.52 L1434.2 1518.52 Z" fill="#000000" fill-rule="nonzero" fill-opacity="1" /><polyline clip-path="url(#clip870)" style="stroke:#000000; stroke-linecap:round; stroke-linejoin:round; stroke-width:4; stroke-opacity:1; fill:none" points="255.977,1423.18 255.977,47.2441 "/>
<polyline clip-path="url(#clip870)" style="stroke:#000000; stroke-linecap:round; stroke-linejoin:round; stroke-width:4; stroke-opacity:1; fill:none" points="255.977,1324.16 274.875,1324.16 "/>
<polyline clip-path="url(#clip870)" style="stroke:#000000; stroke-linecap:round; stroke-linejoin:round; stroke-width:4; stroke-opacity:1; fill:none" points="255.977,992.704 274.875,992.704 "/>
<polyline clip-path="url(#clip870)" style="stroke:#000000; stroke-linecap:round; stroke-linejoin:round; stroke-width:4; stroke-opacity:1; fill:none" points="255.977,661.248 274.875,661.248 "/>
<polyline clip-path="url(#clip870)" style="stroke:#000000; stroke-linecap:round; stroke-linejoin:round; stroke-width:4; stroke-opacity:1; fill:none" points="255.977,329.792 274.875,329.792 "/>
<path clip-path="url(#clip870)" d="M114.631 1324.61 L144.306 1324.61 L144.306 1328.55 L114.631 1328.55 L114.631 1324.61 Z" fill="#000000" fill-rule="nonzero" fill-opacity="1" /><path clip-path="url(#clip870)" d="M164.399 1309.96 Q160.788 1309.96 158.959 1313.52 Q157.153 1317.07 157.153 1324.19 Q157.153 1331.3 158.959 1334.87 Q160.788 1338.41 164.399 1338.41 Q168.033 1338.41 169.839 1334.87 Q171.667 1331.3 171.667 1324.19 Q171.667 1317.07 169.839 1313.52 Q168.033 1309.96 164.399 1309.96 M164.399 1306.26 Q170.209 1306.26 173.264 1310.86 Q176.343 1315.44 176.343 1324.19 Q176.343 1332.92 173.264 1337.53 Q170.209 1342.11 164.399 1342.11 Q158.589 1342.11 155.51 1337.53 Q152.454 1332.92 152.454 1324.19 Q152.454 1315.44 155.51 1310.86 Q158.589 1306.26 164.399 1306.26 Z" fill="#000000" fill-rule="nonzero" fill-opacity="1" /><path clip-path="url(#clip870)" d="M184.561 1335.56 L189.445 1335.56 L189.445 1341.44 L184.561 1341.44 L184.561 1335.56 Z" fill="#000000" fill-rule="nonzero" fill-opacity="1" /><path clip-path="url(#clip870)" d="M203.658 1337.5 L219.977 1337.5 L219.977 1341.44 L198.033 1341.44 L198.033 1337.5 Q200.695 1334.75 205.278 1330.12 Q209.885 1325.47 211.065 1324.13 Q213.311 1321.6 214.19 1319.87 Q215.093 1318.11 215.093 1316.42 Q215.093 1313.66 213.149 1311.93 Q211.227 1310.19 208.125 1310.19 Q205.926 1310.19 203.473 1310.95 Q201.042 1311.72 198.264 1313.27 L198.264 1308.55 Q201.088 1307.41 203.542 1306.83 Q205.996 1306.26 208.033 1306.26 Q213.403 1306.26 216.598 1308.94 Q219.792 1311.63 219.792 1316.12 Q219.792 1318.25 218.982 1320.17 Q218.195 1322.07 216.088 1324.66 Q215.51 1325.33 212.408 1328.55 Q209.306 1331.74 203.658 1337.5 Z" fill="#000000" fill-rule="nonzero" fill-opacity="1" /><path clip-path="url(#clip870)" d="M114.26 993.155 L143.936 993.155 L143.936 997.091 L114.26 997.091 L114.26 993.155 Z" fill="#000000" fill-rule="nonzero" fill-opacity="1" /><path clip-path="url(#clip870)" d="M164.028 978.503 Q160.417 978.503 158.589 982.068 Q156.783 985.609 156.783 992.739 Q156.783 999.845 158.589 1003.41 Q160.417 1006.95 164.028 1006.95 Q167.663 1006.95 169.468 1003.41 Q171.297 999.845 171.297 992.739 Q171.297 985.609 169.468 982.068 Q167.663 978.503 164.028 978.503 M164.028 974.799 Q169.839 974.799 172.894 979.406 Q175.973 983.989 175.973 992.739 Q175.973 1001.47 172.894 1006.07 Q169.839 1010.66 164.028 1010.66 Q158.218 1010.66 155.14 1006.07 Q152.084 1001.47 152.084 992.739 Q152.084 983.989 155.14 979.406 Q158.218 974.799 164.028 974.799 Z" fill="#000000" fill-rule="nonzero" fill-opacity="1" /><path clip-path="url(#clip870)" d="M184.19 1004.1 L189.075 1004.1 L189.075 1009.98 L184.19 1009.98 L184.19 1004.1 Z" fill="#000000" fill-rule="nonzero" fill-opacity="1" /><path clip-path="url(#clip870)" d="M200.07 1006.05 L207.709 1006.05 L207.709 979.683 L199.399 981.35 L199.399 977.091 L207.662 975.424 L212.338 975.424 L212.338 1006.05 L219.977 1006.05 L219.977 1009.98 L200.07 1009.98 L200.07 1006.05 Z" fill="#000000" fill-rule="nonzero" fill-opacity="1" /><path clip-path="url(#clip870)" d="M162.802 647.047 Q159.19 647.047 157.362 650.612 Q155.556 654.153 155.556 661.283 Q155.556 668.389 157.362 671.954 Q159.19 675.496 162.802 675.496 Q166.436 675.496 168.241 671.954 Q170.07 668.389 170.07 661.283 Q170.07 654.153 168.241 650.612 Q166.436 647.047 162.802 647.047 M162.802 643.343 Q168.612 643.343 171.667 647.95 Q174.746 652.533 174.746 661.283 Q174.746 670.01 171.667 674.616 Q168.612 679.199 162.802 679.199 Q156.991 679.199 153.913 674.616 Q150.857 670.01 150.857 661.283 Q150.857 652.533 153.913 647.95 Q156.991 643.343 162.802 643.343 Z" fill="#000000" fill-rule="nonzero" fill-opacity="1" /><path clip-path="url(#clip870)" d="M182.963 672.648 L187.848 672.648 L187.848 678.528 L182.963 678.528 L182.963 672.648 Z" fill="#000000" fill-rule="nonzero" fill-opacity="1" /><path clip-path="url(#clip870)" d="M208.033 647.047 Q204.422 647.047 202.593 650.612 Q200.787 654.153 200.787 661.283 Q200.787 668.389 202.593 671.954 Q204.422 675.496 208.033 675.496 Q211.667 675.496 213.473 671.954 Q215.301 668.389 215.301 661.283 Q215.301 654.153 213.473 650.612 Q211.667 647.047 208.033 647.047 M208.033 643.343 Q213.843 643.343 216.898 647.95 Q219.977 652.533 219.977 661.283 Q219.977 670.01 216.898 674.616 Q213.843 679.199 208.033 679.199 Q202.223 679.199 199.144 674.616 Q196.088 670.01 196.088 661.283 Q196.088 652.533 199.144 647.95 Q202.223 643.343 208.033 643.343 Z" fill="#000000" fill-rule="nonzero" fill-opacity="1" /><path clip-path="url(#clip870)" d="M164.028 315.591 Q160.417 315.591 158.589 319.155 Q156.783 322.697 156.783 329.827 Q156.783 336.933 158.589 340.498 Q160.417 344.04 164.028 344.04 Q167.663 344.04 169.468 340.498 Q171.297 336.933 171.297 329.827 Q171.297 322.697 169.468 319.155 Q167.663 315.591 164.028 315.591 M164.028 311.887 Q169.839 311.887 172.894 316.493 Q175.973 321.077 175.973 329.827 Q175.973 338.554 172.894 343.16 Q169.839 347.743 164.028 347.743 Q158.218 347.743 155.14 343.16 Q152.084 338.554 152.084 329.827 Q152.084 321.077 155.14 316.493 Q158.218 311.887 164.028 311.887 Z" fill="#000000" fill-rule="nonzero" fill-opacity="1" /><path clip-path="url(#clip870)" d="M184.19 341.192 L189.075 341.192 L189.075 347.072 L184.19 347.072 L184.19 341.192 Z" fill="#000000" fill-rule="nonzero" fill-opacity="1" /><path clip-path="url(#clip870)" d="M200.07 343.137 L207.709 343.137 L207.709 316.771 L199.399 318.438 L199.399 314.179 L207.662 312.512 L212.338 312.512 L212.338 343.137 L219.977 343.137 L219.977 347.072 L200.07 347.072 L200.07 343.137 Z" fill="#000000" fill-rule="nonzero" fill-opacity="1" /><path clip-path="url(#clip870)" d="M20.8447 823.791 Q20.8447 830.793 26.0645 834.931 Q31.2844 839.037 40.2919 839.037 Q49.2675 839.037 54.4874 834.931 Q59.7073 830.793 59.7073 823.791 Q59.7073 816.788 54.4874 812.714 Q49.2675 808.609 40.2919 808.609 Q31.2844 808.609 26.0645 812.714 Q20.8447 816.788 20.8447 823.791 M15.6248 823.791 Q15.6248 813.797 22.3406 807.813 Q29.0246 801.829 40.2919 801.829 Q51.5274 801.829 58.2432 807.813 Q64.9272 813.797 64.9272 823.791 Q64.9272 833.817 58.2432 839.832 Q51.5592 845.816 40.2919 845.816 Q29.0246 845.816 22.3406 839.832 Q15.6248 833.817 15.6248 823.791 Z" fill="#000000" fill-rule="nonzero" fill-opacity="1" /><path clip-path="url(#clip870)" d="M49.9359 792.631 L28.3562 792.631 L28.3562 786.774 L49.7131 786.774 Q54.7739 786.774 57.3202 784.801 Q59.8346 782.827 59.8346 778.881 Q59.8346 774.138 56.8109 771.401 Q53.7872 768.632 48.5673 768.632 L28.3562 768.632 L28.3562 762.775 L64.0042 762.775 L64.0042 768.632 L58.5296 768.632 Q61.7762 770.764 63.3676 773.597 Q64.9272 776.398 64.9272 780.122 Q64.9272 786.265 61.1078 789.448 Q57.2883 792.631 49.9359 792.631 M27.4968 777.894 L27.4968 777.894 Z" fill="#000000" fill-rule="nonzero" fill-opacity="1" /><path clip-path="url(#clip870)" d="M18.2347 744.92 L28.3562 744.92 L28.3562 732.857 L32.9077 732.857 L32.9077 744.92 L52.2594 744.92 Q56.6199 744.92 57.8613 743.742 Q59.1026 742.533 59.1026 738.872 L59.1026 732.857 L64.0042 732.857 L64.0042 738.872 Q64.0042 745.652 61.4897 748.23 Q58.9434 750.808 52.2594 750.808 L32.9077 750.808 L32.9077 755.105 L28.3562 755.105 L28.3562 750.808 L18.2347 750.808 L18.2347 744.92 Z" fill="#000000" fill-rule="nonzero" fill-opacity="1" /><path clip-path="url(#clip870)" d="M58.657 719.489 L77.5631 719.489 L77.5631 725.377 L28.3562 725.377 L28.3562 719.489 L33.7671 719.489 Q30.5842 717.643 29.0564 714.842 Q27.4968 712.009 27.4968 708.094 Q27.4968 701.601 32.6531 697.559 Q37.8093 693.485 46.212 693.485 Q54.6147 693.485 59.771 697.559 Q64.9272 701.601 64.9272 708.094 Q64.9272 712.009 63.3994 714.842 Q61.8398 717.643 58.657 719.489 M46.212 699.564 Q39.7508 699.564 36.0905 702.238 Q32.3984 704.879 32.3984 709.526 Q32.3984 714.173 36.0905 716.847 Q39.7508 719.489 46.212 719.489 Q52.6732 719.489 56.3653 716.847 Q60.0256 714.173 60.0256 709.526 Q60.0256 704.879 56.3653 702.238 Q52.6732 699.564 46.212 699.564 Z" fill="#000000" fill-rule="nonzero" fill-opacity="1" /><path clip-path="url(#clip870)" d="M49.9359 684.382 L28.3562 684.382 L28.3562 678.525 L49.7131 678.525 Q54.7739 678.525 57.3202 676.552 Q59.8346 674.579 59.8346 670.632 Q59.8346 665.889 56.8109 663.152 Q53.7872 660.383 48.5673 660.383 L28.3562 660.383 L28.3562 654.527 L64.0042 654.527 L64.0042 660.383 L58.5296 660.383 Q61.7762 662.516 63.3676 665.348 Q64.9272 668.149 64.9272 671.873 Q64.9272 678.016 61.1078 681.199 Q57.2883 684.382 49.9359 684.382 M27.4968 669.645 L27.4968 669.645 Z" fill="#000000" fill-rule="nonzero" fill-opacity="1" /><path clip-path="url(#clip870)" d="M18.2347 636.671 L28.3562 636.671 L28.3562 624.608 L32.9077 624.608 L32.9077 636.671 L52.2594 636.671 Q56.6199 636.671 57.8613 635.493 Q59.1026 634.284 59.1026 630.623 L59.1026 624.608 L64.0042 624.608 L64.0042 630.623 Q64.0042 637.403 61.4897 639.981 Q58.9434 642.559 52.2594 642.559 L32.9077 642.559 L32.9077 646.856 L28.3562 646.856 L28.3562 642.559 L18.2347 642.559 L18.2347 636.671 Z" fill="#000000" fill-rule="nonzero" fill-opacity="1" /><polyline clip-path="url(#clip872)" style="stroke:#009af9; stroke-linecap:round; stroke-linejoin:round; stroke-width:4; stroke-opacity:1; fill:none" points="315.32,661.248 319.284,661.248 323.248,661.248 323.248,694.011 327.212,694.011 327.212,725.808 331.176,725.808 331.176,756.361 335.141,756.361 335.141,785.421 339.105,785.421 339.105,812.772 343.069,812.772 343.069,772.709 347.033,772.709 347.033,732.548 350.997,732.548 350.997,692.749 354.961,692.749 354.961,653.753 358.925,653.753 358.925,615.978 362.889,615.978 362.889,579.807 366.853,579.807 366.853,545.582 370.818,545.582 370.818,513.604 374.782,513.604 374.782,484.12 378.746,484.12 378.746,457.326 382.71,457.326 382.71,498.886 386.674,498.886 386.674,541.429 390.638,541.429 390.638,584.423 394.602,584.423 394.602,627.339 398.566,627.339 398.566,669.664 402.53,669.664 402.53,645.381 406.495,645.381 406.495,621.487 410.459,621.487 410.459,598.123 414.423,598.123 414.423,575.418 418.387,575.418 418.387,553.487 422.351,553.487 422.351,532.431 426.315,532.431 426.315,512.332 430.279,512.332 430.279,493.254 434.243,493.254 434.243,475.244 438.208,475.244 438.208,458.327 442.172,458.327 442.172,508.036 446.136,508.036 446.136,556.903 450.1,556.903 450.1,604.34 454.064,604.34 454.064,649.801 458.028,649.801 458.028,692.791 461.992,692.791 461.992,667.35 465.956,667.35 465.956,640.566 469.92,640.566 469.92,612.7 473.885,612.7 473.885,584.03 477.849,584.03 477.849,554.847 481.813,554.847 481.813,590.968 485.777,590.968 485.777,625.23 489.741,625.23 489.741,657.36 493.705,657.36 493.705,687.132 497.669,687.132 497.669,714.369 501.633,714.369 501.633,673.421 505.597,673.421 505.597,631.67 509.562,631.67 509.562,589.656 513.526,589.656 513.526,547.908 517.49,547.908 517.49,506.939 521.454,506.939 521.454,532.76 525.418,532.76 525.418,558.363 529.382,558.363 529.382,583.597 533.346,583.597 533.346,608.316 537.31,608.316 537.31,632.386 541.275,632.386 541.275,590.162 545.239,590.162 545.239,548.995 549.203,548.995 549.203,509.353 553.167,509.353 553.167,471.667 557.131,471.667 557.131,436.318 561.095,436.318 561.095,403.632 565.059,403.632 565.059,373.877 569.023,373.877 569.023,347.258 572.987,347.258 572.987,323.916 576.952,323.916 576.952,303.925 580.916,303.925 580.916,287.294 584.88,287.294 584.88,273.97 588.844,273.97 588.844,263.837 592.808,263.837 592.808,256.725 596.772,256.725 596.772,252.41 600.736,252.41 600.736,250.623 604.7,250.623 604.7,251.057 608.664,251.057 608.664,253.371 612.629,253.371 612.629,257.203 616.593,257.203 616.593,262.17 620.557,262.17 620.557,333.411 624.521,333.411 624.521,403.078 628.485,403.078 628.485,470.233 632.449,470.233 632.449,534.007 636.413,534.007 636.413,593.621 640.377,593.621 640.377,648.399 644.341,648.399 644.341,697.773 648.306,697.773 648.306,741.297 652.27,741.297 652.27,778.648 656.234,778.648 656.234,809.631 660.198,809.631 660.198,768.654 664.162,768.654 664.162,723.23 668.126,723.23 668.126,674.094 672.09,674.094 672.09,622.036 676.054,622.036 676.054,567.884 680.019,567.884 680.019,512.484 683.983,512.484 683.983,456.685 687.947,456.685 687.947,401.321 691.911,401.321 691.911,347.195 695.875,347.195 695.875,295.068 699.839,295.068 699.839,245.638 703.803,245.638 703.803,199.533 707.767,199.533 707.767,157.3 711.731,157.3 711.731,119.397 715.696,119.397 715.696,86.1857 719.66,86.1857 719.66,123.451 723.624,123.451 723.624,163.896 727.588,163.896 727.588,207.018 731.552,207.018 731.552,252.273 735.516,252.273 735.516,299.088 739.48,299.088 739.48,346.871 743.444,346.871 743.444,395.024 747.408,395.024 747.408,442.96 751.373,442.96 751.373,490.104 755.337,490.104 755.337,535.915 759.301,535.915 759.301,579.887 763.265,579.887 763.265,621.565 767.229,621.565 767.229,660.545 771.193,660.545 771.193,696.488 775.157,696.488 775.157,729.12 779.121,729.12 779.121,758.237 783.085,758.237 783.085,783.706 787.05,783.706 787.05,805.467 791.014,805.467 791.014,823.532 794.978,823.532 794.978,837.981 798.942,837.981 798.942,783.434 802.906,783.434 802.906,727.554 806.87,727.554 806.87,671.161 810.834,671.161 810.834,615.062 814.798,615.062 814.798,560.041 818.763,560.041 818.763,572.362 822.727,572.362 822.727,585.258 826.691,585.258 826.691,598.79 830.655,598.79 830.655,613.001 834.619,613.001 834.619,627.919 838.583,627.919 838.583,643.552 842.547,643.552 842.547,659.89 846.511,659.89 846.511,676.907 850.475,676.907 850.475,694.562 854.44,694.562 854.44,712.798 858.404,712.798 858.404,666.022 862.368,666.022 862.368,621.608 866.332,621.608 866.332,580.025 870.296,580.025 870.296,541.676 874.26,541.676 874.26,506.891 878.224,506.891 878.224,541.449 882.188,541.449 882.188,578.069 886.152,578.069 886.152,616.288 890.117,616.288 890.117,655.618 894.081,655.618 894.081,695.567 898.045,695.567 898.045,670.111 902.009,670.111 902.009,646.219 905.973,646.219 905.973,623.981 909.937,623.981 909.937,603.454 913.901,603.454 913.901,584.664 917.865,584.664 917.865,567.605 921.829,567.605 921.829,552.24 925.794,552.24 925.794,538.504 929.758,538.504 929.758,526.304 933.722,526.304 933.722,515.522 937.686,515.522 937.686,506.021 941.65,506.021 941.65,497.644 945.614,497.644 945.614,490.221 949.578,490.221 949.578,483.569 953.542,483.569 953.542,477.501 957.507,477.501 957.507,537.35 961.471,537.35 961.471,595.471 965.435,595.471 965.435,651.119 969.399,651.119 969.399,703.618 973.363,703.618 973.363,752.369 977.327,752.369 977.327,731.338 981.291,731.338 981.291,707.564 985.255,707.564 985.255,681.292 989.219,681.292 989.219,652.811 993.184,652.811 993.184,622.447 997.148,622.447 997.148,590.558 1001.11,590.558 1001.11,557.524 1005.08,557.524 1005.08,523.738 1009.04,523.738 1009.04,489.601 1013,489.601 1013,455.51 1016.97,455.51 1016.97,421.853 1020.93,421.853 1020.93,389.001 1024.9,389.001 1024.9,357.301 1028.86,357.301 1028.86,327.07 1032.82,327.07 1032.82,298.588 1036.79,298.588 1036.79,337.622 1040.75,337.622 1040.75,376.913 1044.72,376.913 1044.72,416.056 1048.68,416.056 1048.68,454.655 1052.65,454.655 1052.65,492.332 1056.61,492.332 1056.61,463.211 1060.57,463.211 1060.57,434.428 1064.54,434.428 1064.54,406.259 1068.5,406.259 1068.5,378.962 1072.47,378.962 1072.47,352.774 1076.43,352.774 1076.43,327.904 1080.39,327.904 1080.39,304.534 1084.36,304.534 1084.36,282.812 1088.32,282.812 1088.32,262.852 1092.29,262.852 1092.29,244.734 1096.25,244.734 1096.25,294.027 1100.21,294.027 1100.21,343.281 1104.18,343.281 1104.18,391.911 1108.14,391.911 1108.14,439.358 1112.11,439.358 1112.11,485.098 1116.07,485.098 1116.07,528.652 1120.04,528.652 1120.04,569.596 1124,569.596 1124,607.564 1127.96,607.564 1127.96,642.258 1131.93,642.258 1131.93,673.448 1135.89,673.448 1135.89,635.452 1139.86,635.452 1139.86,595.642 1143.82,595.642 1143.82,554.563 1147.78,554.563 1147.78,512.774 1151.75,512.774 1151.75,470.834 1155.71,470.834 1155.71,429.29 1159.68,429.29 1159.68,388.67 1163.64,388.67 1163.64,349.469 1167.6,349.469 1167.6,312.143 1171.57,312.143 1171.57,277.1 1175.53,277.1 1175.53,244.695 1179.5,244.695 1179.5,215.222 1183.46,215.222 1183.46,188.911 1187.43,188.911 1187.43,165.927 1191.39,165.927 1191.39,146.365 1195.35,146.365 1195.35,195.781 1199.32,195.781 1199.32,246.682 1203.28,246.682 1203.28,298.408 1207.25,298.408 1207.25,350.3 1211.21,350.3 1211.21,401.711 1215.17,401.711 1215.17,386.493 1219.14,386.493 1219.14,371.517 1223.1,371.517 1223.1,356.8 1227.07,356.8 1227.07,342.359 1231.03,342.359 1231.03,328.207 1234.99,328.207 1234.99,379.877 1238.96,379.877 1238.96,429.921 1242.92,429.921 1242.92,477.782 1246.89,477.782 1246.89,522.961 1250.85,522.961 1250.85,565.02 1254.82,565.02 1254.82,603.594 1258.78,603.594 1258.78,638.392 1262.74,638.392 1262.74,669.204 1266.71,669.204 1266.71,695.899 1270.67,695.899 1270.67,718.43 1274.64,718.43 1274.64,671.301 1278.6,671.301 1278.6,622.076 1282.56,622.076 1282.56,571.494 1286.53,571.494 1286.53,520.3 1290.49,520.3 1290.49,469.235 1294.46,469.235 1294.46,484.541 1298.42,484.541 1298.42,499.445 1302.38,499.445 1302.38,514.025 1306.35,514.025 1306.35,528.358 1310.31,528.358 1310.31,542.52 1314.28,542.52 1314.28,491.062 1318.24,491.062 1318.24,441.509 1322.21,441.509 1322.21,394.484 1326.17,394.484 1326.17,350.546 1330.13,350.546 1330.13,310.179 1334.1,310.179 1334.1,339.309 1338.06,339.309 1338.06,370.798 1342.03,370.798 1342.03,404.311 1345.99,404.311 1345.99,439.482 1349.95,439.482 1349.95,475.916 1353.92,475.916 1353.92,447.682 1357.88,447.682 1357.88,421.815 1361.85,421.815 1361.85,398.458 1365.81,398.458 1365.81,377.7 1369.77,377.7 1369.77,359.581 1373.74,359.581 1373.74,344.091 1377.7,344.091 1377.7,331.171 1381.67,331.171 1381.67,320.714 1385.63,320.714 1385.63,312.574 1389.6,312.574 1389.6,306.565 1393.56,306.565 1393.56,367.992 1397.52,367.992 1397.52,429.152 1401.49,429.152 1401.49,489.215 1405.45,489.215 1405.45,547.396 1409.42,547.396 1409.42,602.965 1413.38,602.965 1413.38,589.737 1417.34,589.737 1417.34,574.586 1421.31,574.586 1421.31,557.581 1425.27,557.581 1425.27,538.825 1429.24,538.825 1429.24,518.459 1433.2,518.459 1433.2,496.651 1437.16,496.651 1437.16,473.597 1441.13,473.597 1441.13,449.513 1445.09,449.513 1445.09,424.635 1449.06,424.635 1449.06,399.205 1453.02,399.205 1453.02,439.001 1456.98,439.001 1456.98,476.82 1460.95,476.82 1460.95,512.352 1464.91,512.352 1464.91,545.337 1468.88,545.337 1468.88,575.572 1472.84,575.572 1472.84,537.381 1476.81,537.381 1476.81,498.13 1480.77,498.13 1480.77,458.343 1484.73,458.343 1484.73,418.543 1488.7,418.543 1488.7,379.241 1492.66,379.241 1492.66,340.925 1496.63,340.925 1496.63,304.052 1500.59,304.052 1500.59,269.039 1504.55,269.039 1504.55,236.26 1508.52,236.26 1508.52,206.032 1512.48,206.032 1512.48,244.143 1516.45,244.143 1516.45,283.34 1520.41,283.34 1520.41,323.203 1524.37,323.203 1524.37,363.309 1528.34,363.309 1528.34,403.239 1532.3,403.239 1532.3,442.583 1536.27,442.583 1536.27,480.956 1540.23,480.956 1540.23,517.996 1544.2,517.996 1544.2,553.375 1548.16,553.375 1548.16,586.805 1552.12,586.805 1552.12,552.515 1556.09,552.515 1556.09,517.762 1560.05,517.762 1560.05,482.955 1564.02,482.955 1564.02,448.494 1567.98,448.494 1567.98,414.765 1571.94,414.765 1571.94,447.653 1575.91,447.653 1575.91,480.038 1579.87,480.038 1579.87,511.658 1583.84,511.658 1583.84,542.271 1587.8,542.271 1587.8,571.66 1591.76,571.66 1591.76,599.634 1595.73,599.634 1595.73,626.031 1599.69,626.031 1599.69,650.723 1603.66,650.723 1603.66,673.615 1607.62,673.615 1607.62,694.647 1611.59,694.647 1611.59,713.793 1615.55,713.793 1615.55,731.064 1619.51,731.064 1619.51,746.503 1623.48,746.503 1623.48,760.182 1627.44,760.182 1627.44,772.207 1631.41,772.207 1631.41,782.707 1635.37,782.707 1635.37,791.835 1639.33,791.835 1639.33,799.762 1643.3,799.762 1643.3,806.677 1647.26,806.677 1647.26,812.778 1651.23,812.778 1651.23,818.272 1655.19,818.272 1655.19,823.367 1659.15,823.367 1659.15,828.271 1663.12,828.271 1663.12,833.186 1667.08,833.186 1667.08,838.305 1671.05,838.305 1671.05,843.809 1675.01,843.809 1675.01,849.862 1678.98,849.862 1678.98,856.611 1682.94,856.611 1682.94,864.18 1686.9,864.18 1686.9,872.674 1690.87,872.674 1690.87,816.646 1694.83,816.646 1694.83,763.604 1698.8,763.604 1698.8,714.137 1702.76,714.137 1702.76,668.746 1706.72,668.746 1706.72,627.845 1710.69,627.845 1710.69,657.271 1714.65,657.271 1714.65,689.786 1718.62,689.786 1718.62,724.943 1722.58,724.943 1722.58,762.256 1726.54,762.256 1726.54,801.208 1730.51,801.208 1730.51,775.735 1734.47,775.735 1734.47,752.748 1738.44,752.748 1738.44,732.261 1742.4,732.261 1742.4,714.243 1746.37,714.243 1746.37,698.619 1750.33,698.619 1750.33,685.271 1754.29,685.271 1754.29,674.046 1758.26,674.046 1758.26,664.755 1762.22,664.755 1762.22,657.181 1766.19,657.181 1766.19,651.082 1770.15,651.082 1770.15,646.2 1774.11,646.2 1774.11,642.261 1778.08,642.261 1778.08,638.986 1782.04,638.986 1782.04,636.093 1786.01,636.093 1786.01,633.306 1789.97,633.306 1789.97,630.356 1793.93,630.356 1793.93,626.989 1797.9,626.989 1797.9,622.972 1801.86,622.972 1801.86,618.091 1805.83,618.091 1805.83,612.162 1809.79,612.162 1809.79,605.027 1813.76,605.027 1813.76,596.563 1817.72,596.563 1817.72,586.676 1821.68,586.676 1821.68,575.308 1825.65,575.308 1825.65,562.435 1829.61,562.435 1829.61,548.064 1833.58,548.064 1833.58,532.237 1837.54,532.237 1837.54,515.024 1841.5,515.024 1841.5,496.524 1845.47,496.524 1845.47,476.861 1849.43,476.861 1849.43,456.182 1853.4,456.182 1853.4,434.65 1857.36,434.65 1857.36,412.445 1861.32,412.445 1861.32,389.757 1865.29,389.757 1865.29,366.781 1869.25,366.781 1869.25,409.241 1873.22,409.241 1873.22,449.88 1877.18,449.88 1877.18,488.332 1881.15,488.332 1881.15,524.279 1885.11,524.279 1885.11,557.461 1889.07,557.461 1889.07,587.675 1893.04,587.675 1893.04,614.779 1897,614.779 1897,638.692 1900.97,638.692 1900.97,659.396 1904.93,659.396 1904.93,676.932 1908.89,676.932 1908.89,625.874 1912.86,625.874 1912.86,573.829 1916.82,573.829 1916.82,521.558 1920.79,521.558 1920.79,469.806 1924.75,469.806 1924.75,419.29 1928.71,419.29 1928.71,436.206 1932.68,436.206 1932.68,453.719 1936.64,453.719 1936.64,471.824 1940.61,471.824 1940.61,490.501 1944.57,490.501 1944.57,509.717 1948.54,509.717 1948.54,529.424 1952.5,529.424 1952.5,549.564 1956.46,549.564 1956.46,570.068 1960.43,570.068 1960.43,590.859 1964.39,590.859 1964.39,611.851 1968.36,611.851 1968.36,632.958 1972.32,632.958 1972.32,654.086 1976.28,654.086 1976.28,675.143 1980.25,675.143 1980.25,696.037 1984.21,696.037 1984.21,716.679 1988.18,716.679 1988.18,671.46 1992.14,671.46 1992.14,627.755 1996.1,627.755 1996.1,586.052 2000.07,586.052 2000.07,546.787 2004.03,546.787 2004.03,510.338 2008,510.338 2008,477.022 2011.96,477.022 2011.96,447.084 2015.93,447.084 2015.93,420.703 2019.89,420.703 2019.89,397.983 2023.85,397.983 2023.85,378.956 2027.82,378.956 2027.82,429.111 2031.78,429.111 2031.78,480.885 2035.75,480.885 2035.75,533.553 2039.71,533.553 2039.71,586.386 2043.67,586.386 2043.67,638.674 2047.64,638.674 2047.64,689.732 2051.6,689.732 2051.6,738.918 2055.57,738.918 2055.57,785.643 2059.53,785.643 2059.53,829.379 2063.49,829.379 2063.49,869.671 2067.46,869.671 2067.46,906.14 2071.42,906.14 2071.42,938.492 2075.39,938.492 2075.39,966.518 2079.35,966.518 2079.35,990.1 2083.32,990.1 2083.32,1009.21 2087.28,1009.21 2087.28,1023.89 2091.24,1023.89 2091.24,1034.28 2095.21,1034.28 2095.21,1040.61 2099.17,1040.61 2099.17,1043.14 2103.14,1043.14 2103.14,1042.24 2107.1,1042.24 2107.1,1038.3 2111.06,1038.3 2111.06,1031.77 2115.03,1031.77 2115.03,1023.13 2118.99,1023.13 2118.99,1012.9 2122.96,1012.9 2122.96,1001.58 2126.92,1001.58 2126.92,989.71 2130.88,989.71 2130.88,977.799 2134.85,977.799 2134.85,966.348 2138.81,966.348 2138.81,955.831 2142.78,955.831 2142.78,946.685 2146.74,946.685 2146.74,939.306 2150.7,939.306 2150.7,934.04 2154.67,934.04 2154.67,931.179 2158.63,931.179 2158.63,930.958 2162.6,930.958 2162.6,933.549 2166.56,933.549 2166.56,939.061 2170.53,939.061 2170.53,947.541 2174.49,947.541 2174.49,958.973 2178.45,958.973 2178.45,973.282 2182.42,973.282 2182.42,990.335 2186.38,990.335 2186.38,944.422 2190.35,944.422 2190.35,902.767 2194.31,902.767 2194.31,865.654 2198.27,865.654 2198.27,833.275 2202.24,833.275 2202.24,805.727 2206.2,805.727 2206.2,848.535 2210.17,848.535 2210.17,894.158 2214.13,894.158 2214.13,941.861 2218.09,941.861 2218.09,990.89 2222.06,990.89 2222.06,1040.48 2226.02,1040.48 2226.02,1024.36 2229.99,1024.36 2229.99,1009.25 2233.95,1009.25 2233.95,995.025 2237.92,995.025 2237.92,981.533 2241.88,981.533 2241.88,968.628 2245.84,968.628 2245.84,1021.68 2249.81,1021.68 2249.81,1073.09 2253.77,1073.09 2253.77,1122.14 2257.74,1122.14 2257.74,1168.2 2261.7,1168.2 2261.7,1210.68 2265.66,1210.68 2265.66,1249.12 2269.63,1249.12 2269.63,1283.11 2273.59,1283.11 2273.59,1312.37 2277.56,1312.37 2277.56,1336.7 2281.52,1336.7 2281.52,1355.99 2285.48,1355.99 2285.48,1370.27 2289.45,1370.27 2289.45,1379.62 2293.41,1379.62 2293.41,1384.24 "/>
<polyline clip-path="url(#clip872)" style="stroke:#e26f46; stroke-linecap:round; stroke-linejoin:round; stroke-width:4; stroke-opacity:1; fill:none" points="315.32,693.528 319.284,709.255 323.248,729.058 327.212,752.446 331.176,778.861 335.141,813.218 339.105,795.125 343.069,775.234 347.033,753.916 350.997,731.556 354.961,708.546 358.925,685.275 362.889,662.116 366.853,639.421 370.818,617.513 374.782,591.16 378.746,620.366 382.71,654.034 386.674,691.304 390.638,731.272 394.602,778.533 398.566,772.404 402.53,763.289 406.495,751.352 410.459,736.818 414.423,719.965 418.387,701.115 422.351,680.624 426.315,658.87 430.279,636.243 434.243,607.616 438.208,633.135 442.172,661.868 446.136,693.145 450.1,726.271 454.064,766.054 458.028,752.036 461.992,734.839 465.956,714.84 469.92,692.466 473.885,662.663 477.849,685.682 481.813,710.721 485.777,737.267 489.741,764.796 493.705,798.304 497.669,777.524 501.633,753.273 505.597,726.121 509.562,696.678 513.526,660.064 517.49,676.685 521.454,695.88 525.418,717.252 529.382,740.371 533.346,770.304 537.31,746.829 541.275,720.785 545.239,692.74 549.203,663.278 553.167,632.992 557.131,602.462 561.095,572.245 565.059,542.861 569.023,514.782 572.987,488.422 576.952,464.132 580.916,442.191 584.88,422.806 588.844,406.109 592.808,392.157 596.772,380.938 600.736,372.37 604.7,366.309 608.664,362.558 612.629,355.352 616.593,404.17 620.557,457.4 624.521,513.7 628.485,571.721 632.449,630.141 636.413,687.698 640.377,743.218 644.341,795.637 648.306,844.028 652.27,893.129 656.234,882.559 660.198,863.166 664.162,835.679 668.126,800.992 672.09,760.131 676.054,714.225 680.019,664.469 683.983,612.092 687.947,558.325 691.911,504.368 695.875,451.365 699.839,400.374 703.803,352.349 707.767,308.119 711.731,262.858 715.696,276.868 719.66,299.242 723.624,329.202 727.588,365.823 731.552,408.061 735.516,454.786 739.48,504.814 743.444,556.943 747.408,609.977 751.373,662.763 755.337,714.214 759.301,763.332 763.265,809.233 767.229,851.155 771.193,888.478 775.157,920.731 779.121,947.592 783.085,968.891 787.05,984.607 791.014,1000.38 794.978,956.691 798.942,905.211 802.906,847.415 806.87,784.862 810.834,713.63 814.798,695.073 818.763,679.439 822.727,667.188 826.691,658.668 830.655,654.118 834.619,653.662 838.583,657.317 842.547,664.996 846.511,676.513 850.475,697.117 854.44,666.699 858.404,636.149 862.368,606.016 866.332,576.814 870.296,543.485 874.26,566.194 878.224,593.98 882.188,626.101 886.152,661.744 890.117,705.568 894.081,696.932 898.045,686.255 902.009,673.69 905.973,659.431 909.937,643.701 913.901,626.751 917.865,608.85 921.829,590.274 925.794,571.305 929.758,552.218 933.722,533.276 937.686,514.728 941.65,496.797 945.614,479.681 949.578,458.028 953.542,491.733 957.507,529.599 961.471,570.679 965.435,613.997 969.399,664.089 973.363,660.233 977.327,652.807 981.291,641.966 985.255,627.94 989.219,611.028 993.184,591.587 997.148,570.016 1001.11,546.75 1005.08,522.241 1009.04,496.949 1013,471.331 1016.97,445.827 1020.93,420.852 1024.9,396.786 1028.86,368.448 1032.82,395.889 1036.79,428.046 1040.75,464.09 1044.72,503.136 1048.68,549.789 1052.65,543.371 1056.61,534.279 1060.57,522.665 1064.54,508.733 1068.5,492.737 1072.47,474.967 1076.43,455.745 1080.39,435.411 1084.36,414.315 1088.32,387.292 1092.29,414.446 1096.25,444.806 1100.21,477.669 1104.18,512.302 1108.14,547.97 1112.11,583.948 1116.07,619.541 1120.04,654.101 1124,687.041 1127.96,723.359 1131.93,702.857 1135.89,676.484 1139.86,644.99 1143.82,609.215 1147.78,570.061 1151.75,528.469 1155.71,485.39 1159.68,441.764 1163.64,398.496 1167.6,356.432 1171.57,316.347 1175.53,278.924 1179.5,244.743 1183.46,214.275 1187.43,182.354 1191.39,208.974 1195.35,242.949 1199.32,283.267 1203.28,328.809 1207.25,383.904 1211.21,387.559 1215.17,389.838 1219.14,390.539 1223.1,389.512 1227.07,381.139 1231.03,425.133 1234.99,470.197 1238.96,515.373 1242.92,559.746 1246.89,602.471 1250.85,642.79 1254.82,680.042 1258.78,713.678 1262.74,743.271 1266.71,774.031 1270.67,746.016 1274.64,710.466 1278.6,668.449 1282.56,621.139 1286.53,564.264 1290.49,558.867 1294.46,554.935 1298.42,552.713 1302.38,552.389 1306.35,559.612 1310.31,514.696 1314.28,468.954 1318.24,423.359 1322.21,378.826 1326.17,330.681 1330.13,339.436 1334.1,354.438 1338.06,375.207 1342.03,401.144 1345.99,437.069 1349.95,422.447 1353.92,407.751 1357.88,393.135 1361.85,378.744 1365.81,364.709 1369.77,351.147 1373.74,338.156 1377.7,325.814 1381.67,314.18 1385.63,297.774 1389.6,336.376 1393.56,378.686 1397.52,423.674 1401.49,470.296 1405.45,523.042 1409.42,521.158 1413.38,515.014 1417.34,504.77 1421.31,490.681 1425.27,473.086 1429.24,452.394 1433.2,429.068 1437.16,403.617 1441.13,376.572 1445.09,342.962 1449.06,363.092 1453.02,386.191 1456.98,411.75 1460.95,439.225 1464.91,473.569 1468.88,454.454 1472.84,432.617 1476.81,408.534 1480.77,382.708 1484.73,355.664 1488.7,327.926 1492.66,300.011 1496.63,272.413 1500.59,245.59 1504.55,214.441 1508.52,239.094 1512.48,268.556 1516.45,302.065 1520.41,338.793 1524.37,377.878 1528.34,418.443 1532.3,459.619 1536.27,500.568 1540.23,540.502 1544.2,584.215 1548.16,571.306 1552.12,552.524 1556.09,528.433 1560.05,499.697 1564.02,461.548 1567.98,474.553 1571.94,488.255 1575.91,502.501 1579.87,517.129 1583.84,531.978 1587.8,546.888 1591.76,561.708 1595.73,576.294 1599.69,590.519 1603.66,604.267 1607.62,617.445 1611.59,629.974 1615.55,641.798 1619.51,652.882 1623.48,663.209 1627.44,672.784 1631.41,681.628 1635.37,689.781 1639.33,697.297 1643.3,704.243 1647.26,710.697 1651.23,716.746 1655.19,722.48 1659.15,727.993 1663.12,733.381 1667.08,738.736 1671.05,744.147 1675.01,749.695 1678.98,755.456 1682.94,767.012 1686.9,724.655 1690.87,679.726 1694.83,633.267 1698.8,586.299 1702.76,534.289 1706.72,537.918 1710.69,546.726 1714.65,560.44 1718.62,578.68 1722.58,606.49 1726.54,583.557 1730.51,560.571 1734.47,537.889 1738.44,515.843 1742.4,494.733 1746.37,474.818 1750.33,456.315 1754.29,439.394 1758.26,424.177 1762.22,410.736 1766.19,399.097 1770.15,389.237 1774.11,381.091 1778.08,374.557 1782.04,369.494 1786.01,365.734 1789.97,363.086 1793.93,361.339 1797.9,360.273 1801.86,359.662 1805.83,359.28 1809.79,358.908 1813.76,358.337 1817.72,357.377 1821.68,355.854 1825.65,353.62 1829.61,350.553 1833.58,346.558 1837.54,341.566 1841.5,335.54 1845.47,328.469 1849.43,320.371 1853.4,311.286 1857.36,301.28 1861.32,284.917 1865.29,322.062 1869.25,361.531 1873.22,402.438 1877.18,443.91 1881.15,485.103 1885.11,525.226 1889.07,563.556 1893.04,599.451 1897,632.364 1900.97,667.371 1904.93,644.374 1908.89,614.449 1912.86,578.492 1916.82,537.505 1920.79,487.044 1924.75,487.989 1928.71,490.171 1932.68,493.697 1936.64,498.631 1940.61,505 1944.57,512.795 1948.54,521.969 1952.5,532.443 1956.46,544.112 1960.43,556.843 1964.39,570.485 1968.36,584.873 1972.32,599.83 1976.28,615.174 1980.25,636.241 1984.21,603.091 1988.18,566.854 1992.14,528.381 1996.1,488.536 2000.07,448.169 2004.03,408.104 2008,369.109 2011.96,331.888 2015.93,297.064 2019.89,259.648 2023.85,279.831 2027.82,306.638 2031.78,339.274 2035.75,376.839 2039.71,418.358 2043.67,462.806 2047.64,509.141 2051.6,556.325 2055.57,603.357 2059.53,649.288 2063.49,693.249 2067.46,734.465 2071.42,772.269 2075.39,806.117 2079.35,835.59 2083.32,860.401 2087.28,880.395 2091.24,895.545 2095.21,905.948 2099.17,911.812 2103.14,913.451 2107.1,911.265 2111.06,905.73 2115.03,897.381 2118.99,886.794 2122.96,874.573 2126.92,861.328 2130.88,847.665 2134.85,834.168 2138.81,821.384 2142.78,809.816 2146.74,799.908 2150.7,792.041 2154.67,786.522 2158.63,783.586 2162.6,783.389 2166.56,786.01 2170.53,791.454 2174.49,799.653 2178.45,815.995 2182.42,780.524 2186.38,744.298 2190.35,708.04 2194.31,672.438 2198.27,632.607 2202.24,648.881 2206.2,670.453 2210.17,696.723 2214.13,727.006 2218.09,766.067 2222.06,753.352 2226.02,739.344 2229.99,724.239 2233.95,708.251 2237.92,686.087 2241.88,717.736 2245.84,752.131 2249.81,788.482 2253.77,825.997 2257.74,863.891 2261.7,901.413 2265.66,937.862 2269.63,972.597 2273.59,1005.06 2277.56,1034.76 2281.52,1061.33 2285.48,1084.49 2289.45,1104.04 2293.41,1119.9 "/>
<polyline clip-path="url(#clip872)" style="stroke:#3da44d; stroke-linecap:round; stroke-linejoin:round; stroke-width:4; stroke-opacity:1; fill:none" points="315.32,731.234 319.284,745.09 323.248,762.833 327.212,784.083 331.176,808.393 335.141,868.461 339.105,844.443 343.069,819.795 347.033,794.891 350.997,770.094 354.961,745.741 358.925,722.145 362.889,699.582 366.853,678.286 370.818,658.45 374.782,607.02 378.746,643.401 382.71,683.625 386.674,726.752 390.638,771.821 394.602,851.069 398.566,844.255 402.53,834.51 406.495,821.958 410.459,806.784 414.423,789.232 418.387,769.591 422.351,748.189 426.315,725.38 430.279,701.535 434.243,643.833 438.208,671.956 442.172,702.246 446.136,734.103 450.1,766.918 454.064,833.289 458.028,813.33 461.992,790.517 465.956,765.296 469.92,738.153 473.885,676.394 477.849,699.843 481.813,724.992 485.777,751.394 489.741,778.593 493.705,839.336 497.669,813.879 501.633,785.828 505.597,755.747 509.562,724.224 513.526,658.649 517.49,678.913 521.454,701.554 525.418,726.153 529.382,752.26 533.346,812.614 537.31,787.443 541.275,760.312 545.239,731.727 549.203,702.208 553.167,672.27 557.131,642.409 561.095,613.098 565.059,584.768 569.023,557.804 572.987,532.537 576.952,509.238 580.916,488.116 584.88,469.313 588.844,452.906 592.808,438.91 596.772,427.276 600.736,417.901 604.7,410.631 608.664,405.265 612.629,368.37 616.593,418.986 620.557,472.809 624.521,528.596 628.485,585.122 632.449,641.207 636.413,695.742 640.377,747.717 644.341,796.239 648.306,840.545 652.27,913.221 656.234,894.496 660.198,868.083 664.162,834.776 668.126,795.498 672.09,751.274 676.054,703.2 680.019,652.411 683.983,600.049 687.947,547.238 691.911,495.054 695.875,444.499 699.839,396.483 703.803,351.807 707.767,311.143 711.731,241.832 715.696,263.575 719.66,292.606 723.624,328.091 727.588,369.077 731.552,414.524 735.516,463.336 739.48,514.387 743.444,566.557 747.408,618.753 751.373,669.942 755.337,719.168 759.301,765.575 763.265,808.421 767.229,847.095 771.193,881.119 775.157,910.157 779.121,934.017 783.085,952.646 787.05,966.122 791.014,1007.85 794.978,958.839 798.942,903.527 802.906,843.355 806.87,779.812 810.834,681.195 814.798,668.275 818.763,658.43 822.727,652.017 826.691,649.29 830.655,650.395 834.619,655.374 838.583,664.171 842.547,676.637 846.511,692.538 850.475,744.765 854.44,713.642 858.404,682.767 862.368,652.626 866.332,623.662 870.296,563.065 874.26,590.474 878.224,622.134 882.188,657.302 886.152,695.183 890.117,768.156 894.081,756.09 898.045,742.196 902.009,726.642 905.973,709.632 909.937,691.394 913.901,672.177 917.865,652.239 921.829,631.844 925.794,611.255 929.758,590.725 933.722,570.491 937.686,550.774 941.65,531.767 945.614,513.638 949.578,463.324 953.542,500.236 957.507,540.425 961.471,582.988 965.435,627.005 969.399,704.771 973.363,696.106 977.327,684.212 981.291,669.282 985.255,651.579 989.219,631.42 993.184,609.166 997.148,585.215 1001.11,559.983 1005.08,533.899 1009.04,507.391 1013,480.873 1016.97,454.741 1020.93,429.358 1024.9,405.051 1028.86,348.904 1032.82,380.457 1036.79,415.874 1040.75,454.34 1044.72,495.008 1048.68,570.217 1052.65,559.812 1056.61,546.997 1060.57,531.949 1064.54,514.892 1068.5,496.089 1072.47,475.833 1076.43,454.439 1080.39,432.233 1084.36,409.544 1088.32,353.499 1092.29,383.717 1096.25,416.47 1100.21,451.082 1104.18,486.864 1108.14,523.135 1112.11,559.237 1116.07,594.55 1120.04,628.505 1124,660.6 1127.96,723.602 1131.93,697.852 1135.89,667.103 1139.86,632.116 1143.82,593.72 1147.78,552.786 1151.75,510.203 1155.71,466.854 1159.68,423.596 1163.64,381.238 1167.6,340.526 1171.57,302.123 1175.53,266.603 1179.5,234.434 1183.46,205.981 1187.43,148.292 1191.39,180.813 1195.35,219.553 1199.32,263.493 1203.28,311.537 1207.25,395.742 1211.21,395.646 1215.17,394.125 1219.14,391.026 1223.1,386.24 1227.07,346.51 1231.03,391.13 1234.99,436.113 1238.96,480.591 1242.92,523.754 1246.89,564.868 1250.85,603.285 1254.82,638.463 1258.78,669.967 1262.74,697.476 1266.71,753.985 1270.67,720.1 1274.64,679.864 1278.6,634.348 1282.56,584.7 1286.53,498.913 1290.49,497.495 1294.46,497.611 1298.42,499.455 1302.38,503.164 1306.35,542.023 1310.31,496.756 1314.28,451.362 1318.24,406.715 1322.21,363.626 1326.17,289.623 1330.13,304.647 1334.1,325.205 1338.06,350.77 1342.03,380.714 1345.99,447.531 1349.95,431.157 1353.92,414.817 1357.88,398.649 1361.85,382.78 1365.81,367.324 1369.77,352.376 1373.74,338.017 1377.7,324.306 1381.67,311.286 1385.63,265.779 1389.6,307.095 1393.56,351.201 1397.52,397.123 1401.49,443.893 1405.45,523.77 1409.42,516.561 1413.38,505.468 1417.34,490.703 1421.31,472.561 1425.27,451.406 1429.24,427.658 1433.2,401.78 1437.16,374.265 1441.13,345.621 1445.09,283.158 1449.06,306.683 1453.02,332.651 1456.98,360.563 1460.95,389.895 1464.91,453.315 1468.88,430.991 1472.84,406.432 1476.81,380.104 1480.77,352.493 1484.73,324.09 1488.7,295.38 1492.66,266.834 1496.63,238.89 1500.59,211.951 1504.55,153.174 1508.52,182.169 1512.48,215.164 1516.45,251.401 1520.41,290.081 1524.37,330.387 1528.34,371.502 1532.3,412.632 1536.27,453.024 1540.23,491.984 1544.2,562.087 1548.16,543.488 1552.12,519.76 1556.09,491.498 1560.05,459.381 1564.02,390.95 1567.98,406.29 1571.94,422.179 1575.91,438.469 1579.87,455.009 1583.84,471.647 1587.8,488.241 1591.76,504.653 1595.73,520.76 1599.69,536.449 1603.66,551.628 1607.62,566.219 1611.59,580.162 1615.55,593.42 1619.51,605.971 1623.48,617.814 1627.44,628.964 1631.41,639.454 1635.37,649.329 1639.33,658.651 1643.3,667.488 1647.26,675.919 1651.23,684.029 1655.19,691.904 1659.15,699.633 1663.12,707.304 1667.08,715 1671.05,722.801 1675.01,730.779 1678.98,738.997 1682.94,780.707 1686.9,736.647 1690.87,690.868 1694.83,644.333 1698.8,597.977 1702.76,519.478 1706.72,528.951 1710.69,543.095 1714.65,561.584 1718.62,583.999 1722.58,643.043 1726.54,618.857 1730.51,594.858 1734.47,571.367 1738.44,548.673 1742.4,527.03 1746.37,506.653 1750.33,487.713 1754.29,470.339 1758.26,454.613 1762.22,440.569 1766.19,428.202 1770.15,417.461 1774.11,408.261 1778.08,400.48 1782.04,393.968 1786.01,388.553 1789.97,384.043 1793.93,380.233 1797.9,376.914 1801.86,373.873 1805.83,370.904 1809.79,367.807 1813.76,364.4 1817.72,360.515 1821.68,356.007 1825.65,350.753 1829.61,344.657 1833.58,337.648 1837.54,329.682 1841.5,320.741 1845.47,310.835 1849.43,299.995 1853.4,288.274 1857.36,275.748 1861.32,229.305 1865.29,268.358 1869.25,309 1873.22,350.409 1877.18,391.786 1881.15,432.376 1885.11,471.481 1889.07,508.479 1893.04,542.83 1897,574.091 1900.97,635.118 1904.93,606.364 1908.89,571.713 1912.86,532.074 1916.82,488.434 1920.79,408.631 1924.75,413.025 1928.71,418.648 1932.68,425.57 1936.64,433.829 1940.61,443.424 1944.57,454.322 1948.54,466.459 1952.5,479.742 1956.46,494.055 1960.43,509.262 1964.39,525.211 1968.36,541.74 1972.32,558.679 1976.28,575.859 1980.25,626.311 1984.21,590.567 1988.18,552.495 1992.14,512.902 1996.1,472.589 2000.07,432.334 2004.03,392.873 2008,354.883 2011.96,318.971 2015.93,285.658 2019.89,222.175 2023.85,248.159 2027.82,279.823 2031.78,316.351 2035.75,356.851 2039.71,400.375 2043.67,445.952 2047.64,492.609 2051.6,539.395 2055.57,585.407 2059.53,629.81 2063.49,671.851 2067.46,710.876 2071.42,746.34 2075.39,777.817 2079.35,805.001 2083.32,827.711 2087.28,845.887 2091.24,859.585 2095.21,868.97 2099.17,874.306 2103.14,875.946 2107.1,874.315 2111.06,869.897 2115.03,863.222 2118.99,854.847 2122.96,845.343 2126.92,835.28 2130.88,825.208 2134.85,815.654 2138.81,807.099 2142.78,799.976 2146.74,794.659 2150.7,791.457 2154.67,790.61 2158.63,792.284 2162.6,796.576 2166.56,803.51 2170.53,813.043 2174.49,825.071 2178.45,872.627 2182.42,836.193 2186.38,799.533 2190.35,763.3 2194.31,728.104 2198.27,661.298 2202.24,682.67 2206.2,708.61 2210.17,738.496 2214.13,771.642 2218.09,840.516 2222.06,825.054 2226.02,808.512 2229.99,791.085 2233.95,772.982 2237.92,721.215 2241.88,755.307 2245.84,791.448 2249.81,828.894 2253.77,866.909 2257.74,904.781 2261.7,941.836 2265.66,977.46 2269.63,1011.1 2273.59,1042.29 2277.56,1070.65 2281.52,1095.88 2285.48,1117.78 2289.45,1136.24 2293.41,1151.26 "/>
<path clip-path="url(#clip870)" d="M325.87 1377.32 L1334.52 1377.32 L1334.52 1169.96 L325.87 1169.96  Z" fill="#ffffff" fill-rule="evenodd" fill-opacity="1"/>
<polyline clip-path="url(#clip870)" style="stroke:#000000; stroke-linecap:round; stroke-linejoin:round; stroke-width:4; stroke-opacity:1; fill:none" points="325.87,1377.32 1334.52,1377.32 1334.52,1169.96 325.87,1169.96 325.87,1377.32 "/>
<polyline clip-path="url(#clip870)" style="stroke:#009af9; stroke-linecap:round; stroke-linejoin:round; stroke-width:4; stroke-opacity:1; fill:none" points="349.167,1221.8 488.953,1221.8 "/>
<path clip-path="url(#clip870)" d="M516.926 1208.36 L516.926 1235.23 L522.574 1235.23 Q529.727 1235.23 533.037 1231.99 Q536.37 1228.75 536.37 1221.76 Q536.37 1214.82 533.037 1211.6 Q529.727 1208.36 522.574 1208.36 L516.926 1208.36 M512.25 1204.52 L521.857 1204.52 Q531.903 1204.52 536.602 1208.71 Q541.301 1212.87 541.301 1221.76 Q541.301 1230.7 536.579 1234.89 Q531.857 1239.08 521.857 1239.08 L512.25 1239.08 L512.25 1204.52 Z" fill="#000000" fill-rule="nonzero" fill-opacity="1" /><path clip-path="url(#clip870)" d="M560.352 1226.04 Q555.19 1226.04 553.199 1227.22 Q551.208 1228.4 551.208 1231.25 Q551.208 1233.52 552.69 1234.86 Q554.194 1236.18 556.764 1236.18 Q560.305 1236.18 562.435 1233.68 Q564.588 1231.16 564.588 1226.99 L564.588 1226.04 L560.352 1226.04 M568.847 1224.28 L568.847 1239.08 L564.588 1239.08 L564.588 1235.14 Q563.129 1237.5 560.954 1238.64 Q558.778 1239.75 555.63 1239.75 Q551.648 1239.75 549.287 1237.52 Q546.949 1235.28 546.949 1231.53 Q546.949 1227.15 549.866 1224.93 Q552.805 1222.71 558.616 1222.71 L564.588 1222.71 L564.588 1222.29 Q564.588 1219.35 562.643 1217.76 Q560.722 1216.14 557.227 1216.14 Q555.005 1216.14 552.898 1216.67 Q550.792 1217.2 548.847 1218.27 L548.847 1214.33 Q551.185 1213.43 553.384 1212.99 Q555.583 1212.52 557.667 1212.52 Q563.292 1212.52 566.069 1215.44 Q568.847 1218.36 568.847 1224.28 Z" fill="#000000" fill-rule="nonzero" fill-opacity="1" /><path clip-path="url(#clip870)" d="M581.833 1205.79 L581.833 1213.15 L590.606 1213.15 L590.606 1216.46 L581.833 1216.46 L581.833 1230.53 Q581.833 1233.7 582.69 1234.61 Q583.569 1235.51 586.231 1235.51 L590.606 1235.51 L590.606 1239.08 L586.231 1239.08 Q581.301 1239.08 579.426 1237.25 Q577.551 1235.39 577.551 1230.53 L577.551 1216.46 L574.426 1216.46 L574.426 1213.15 L577.551 1213.15 L577.551 1205.79 L581.833 1205.79 Z" fill="#000000" fill-rule="nonzero" fill-opacity="1" /><path clip-path="url(#clip870)" d="M607.99 1226.04 Q602.828 1226.04 600.838 1227.22 Q598.847 1228.4 598.847 1231.25 Q598.847 1233.52 600.328 1234.86 Q601.833 1236.18 604.402 1236.18 Q607.944 1236.18 610.074 1233.68 Q612.226 1231.16 612.226 1226.99 L612.226 1226.04 L607.99 1226.04 M616.486 1224.28 L616.486 1239.08 L612.226 1239.08 L612.226 1235.14 Q610.768 1237.5 608.592 1238.64 Q606.416 1239.75 603.268 1239.75 Q599.287 1239.75 596.926 1237.52 Q594.588 1235.28 594.588 1231.53 Q594.588 1227.15 597.504 1224.93 Q600.444 1222.71 606.254 1222.71 L612.226 1222.71 L612.226 1222.29 Q612.226 1219.35 610.282 1217.76 Q608.361 1216.14 604.865 1216.14 Q602.643 1216.14 600.537 1216.67 Q598.43 1217.2 596.486 1218.27 L596.486 1214.33 Q598.824 1213.43 601.023 1212.99 Q603.222 1212.52 605.305 1212.52 Q610.93 1212.52 613.708 1215.44 Q616.486 1218.36 616.486 1224.28 Z" fill="#000000" fill-rule="nonzero" fill-opacity="1" /><polyline clip-path="url(#clip870)" style="stroke:#e26f46; stroke-linecap:round; stroke-linejoin:round; stroke-width:4; stroke-opacity:1; fill:none" points="349.167,1273.64 488.953,1273.64 "/>
<path clip-path="url(#clip870)" d="M534.495 1257.49 L534.495 1262.05 Q531.833 1260.78 529.472 1260.15 Q527.111 1259.53 524.912 1259.53 Q521.093 1259.53 519.009 1261.01 Q516.949 1262.49 516.949 1265.22 Q516.949 1267.51 518.315 1268.69 Q519.704 1269.85 523.546 1270.57 L526.37 1271.15 Q531.602 1272.14 534.079 1274.67 Q536.579 1277.17 536.579 1281.38 Q536.579 1286.4 533.199 1288.99 Q529.843 1291.59 523.338 1291.59 Q520.884 1291.59 518.107 1291.03 Q515.352 1290.48 512.389 1289.39 L512.389 1284.57 Q515.236 1286.17 517.968 1286.98 Q520.699 1287.79 523.338 1287.79 Q527.343 1287.79 529.519 1286.22 Q531.694 1284.64 531.694 1281.73 Q531.694 1279.18 530.12 1277.74 Q528.569 1276.31 525.005 1275.59 L522.157 1275.04 Q516.926 1273.99 514.588 1271.77 Q512.25 1269.55 512.25 1265.59 Q512.25 1261.01 515.468 1258.37 Q518.708 1255.73 524.38 1255.73 Q526.81 1255.73 529.333 1256.17 Q531.857 1256.61 534.495 1257.49 Z" fill="#000000" fill-rule="nonzero" fill-opacity="1" /><path clip-path="url(#clip870)" d="M543.685 1264.99 L547.944 1264.99 L547.944 1290.92 L543.685 1290.92 L543.685 1264.99 M543.685 1254.9 L547.944 1254.9 L547.944 1260.29 L543.685 1260.29 L543.685 1254.9 Z" fill="#000000" fill-rule="nonzero" fill-opacity="1" /><path clip-path="url(#clip870)" d="M577.041 1269.97 Q578.639 1267.1 580.861 1265.73 Q583.083 1264.36 586.092 1264.36 Q590.143 1264.36 592.342 1267.21 Q594.541 1270.04 594.541 1275.27 L594.541 1290.92 L590.259 1290.92 L590.259 1275.41 Q590.259 1271.68 588.94 1269.87 Q587.62 1268.07 584.912 1268.07 Q581.602 1268.07 579.68 1270.27 Q577.759 1272.47 577.759 1276.26 L577.759 1290.92 L573.477 1290.92 L573.477 1275.41 Q573.477 1271.66 572.157 1269.87 Q570.838 1268.07 568.083 1268.07 Q564.819 1268.07 562.898 1270.29 Q560.977 1272.49 560.977 1276.26 L560.977 1290.92 L556.694 1290.92 L556.694 1264.99 L560.977 1264.99 L560.977 1269.02 Q562.435 1266.63 564.472 1265.5 Q566.509 1264.36 569.31 1264.36 Q572.134 1264.36 574.102 1265.8 Q576.092 1267.23 577.041 1269.97 Z" fill="#000000" fill-rule="nonzero" fill-opacity="1" /><path clip-path="url(#clip870)" d="M602.597 1280.68 L602.597 1264.99 L606.856 1264.99 L606.856 1280.52 Q606.856 1284.2 608.291 1286.05 Q609.726 1287.88 612.597 1287.88 Q616.046 1287.88 618.037 1285.68 Q620.05 1283.48 620.05 1279.69 L620.05 1264.99 L624.31 1264.99 L624.31 1290.92 L620.05 1290.92 L620.05 1286.93 Q618.5 1289.29 616.439 1290.45 Q614.402 1291.59 611.694 1291.59 Q607.226 1291.59 604.912 1288.81 Q602.597 1286.03 602.597 1280.68 M613.314 1264.36 L613.314 1264.36 Z" fill="#000000" fill-rule="nonzero" fill-opacity="1" /><path clip-path="url(#clip870)" d="M633.083 1254.9 L637.342 1254.9 L637.342 1290.92 L633.083 1290.92 L633.083 1254.9 Z" fill="#000000" fill-rule="nonzero" fill-opacity="1" /><path clip-path="url(#clip870)" d="M658.036 1277.88 Q652.874 1277.88 650.884 1279.06 Q648.893 1280.24 648.893 1283.09 Q648.893 1285.36 650.374 1286.7 Q651.879 1288.02 654.448 1288.02 Q657.99 1288.02 660.12 1285.52 Q662.272 1283 662.272 1278.83 L662.272 1277.88 L658.036 1277.88 M666.532 1276.12 L666.532 1290.92 L662.272 1290.92 L662.272 1286.98 Q660.814 1289.34 658.638 1290.48 Q656.462 1291.59 653.314 1291.59 Q649.333 1291.59 646.972 1289.36 Q644.634 1287.12 644.634 1283.37 Q644.634 1278.99 647.55 1276.77 Q650.49 1274.55 656.3 1274.55 L662.272 1274.55 L662.272 1274.13 Q662.272 1271.19 660.328 1269.6 Q658.407 1267.98 654.911 1267.98 Q652.689 1267.98 650.583 1268.51 Q648.476 1269.04 646.532 1270.11 L646.532 1266.17 Q648.87 1265.27 651.069 1264.83 Q653.268 1264.36 655.351 1264.36 Q660.976 1264.36 663.754 1267.28 Q666.532 1270.2 666.532 1276.12 Z" fill="#000000" fill-rule="nonzero" fill-opacity="1" /><path clip-path="url(#clip870)" d="M679.518 1257.63 L679.518 1264.99 L688.291 1264.99 L688.291 1268.3 L679.518 1268.3 L679.518 1282.37 Q679.518 1285.54 680.374 1286.45 Q681.254 1287.35 683.916 1287.35 L688.291 1287.35 L688.291 1290.92 L683.916 1290.92 Q678.985 1290.92 677.11 1289.09 Q675.235 1287.23 675.235 1282.37 L675.235 1268.3 L672.11 1268.3 L672.11 1264.99 L675.235 1264.99 L675.235 1257.63 L679.518 1257.63 Z" fill="#000000" fill-rule="nonzero" fill-opacity="1" /><path clip-path="url(#clip870)" d="M693.893 1264.99 L698.152 1264.99 L698.152 1290.92 L693.893 1290.92 L693.893 1264.99 M693.893 1254.9 L698.152 1254.9 L698.152 1260.29 L693.893 1260.29 L693.893 1254.9 Z" fill="#000000" fill-rule="nonzero" fill-opacity="1" /><path clip-path="url(#clip870)" d="M717.11 1267.98 Q713.684 1267.98 711.694 1270.66 Q709.703 1273.32 709.703 1277.98 Q709.703 1282.63 711.67 1285.31 Q713.661 1287.98 717.11 1287.98 Q720.513 1287.98 722.504 1285.29 Q724.494 1282.61 724.494 1277.98 Q724.494 1273.37 722.504 1270.68 Q720.513 1267.98 717.11 1267.98 M717.11 1264.36 Q722.666 1264.36 725.837 1267.98 Q729.008 1271.59 729.008 1277.98 Q729.008 1284.34 725.837 1287.98 Q722.666 1291.59 717.11 1291.59 Q711.531 1291.59 708.36 1287.98 Q705.212 1284.34 705.212 1277.98 Q705.212 1271.59 708.36 1267.98 Q711.531 1264.36 717.11 1264.36 Z" fill="#000000" fill-rule="nonzero" fill-opacity="1" /><path clip-path="url(#clip870)" d="M757.619 1275.27 L757.619 1290.92 L753.36 1290.92 L753.36 1275.41 Q753.36 1271.73 751.925 1269.9 Q750.49 1268.07 747.619 1268.07 Q744.17 1268.07 742.179 1270.27 Q740.189 1272.47 740.189 1276.26 L740.189 1290.92 L735.906 1290.92 L735.906 1264.99 L740.189 1264.99 L740.189 1269.02 Q741.717 1266.68 743.777 1265.52 Q745.86 1264.36 748.568 1264.36 Q753.036 1264.36 755.328 1267.14 Q757.619 1269.9 757.619 1275.27 Z" fill="#000000" fill-rule="nonzero" fill-opacity="1" /><path clip-path="url(#clip870)" d="M801.369 1269.97 Q802.966 1267.1 805.188 1265.73 Q807.411 1264.36 810.42 1264.36 Q814.471 1264.36 816.67 1267.21 Q818.869 1270.04 818.869 1275.27 L818.869 1290.92 L814.586 1290.92 L814.586 1275.41 Q814.586 1271.68 813.267 1269.87 Q811.948 1268.07 809.239 1268.07 Q805.929 1268.07 804.008 1270.27 Q802.087 1272.47 802.087 1276.26 L802.087 1290.92 L797.804 1290.92 L797.804 1275.41 Q797.804 1271.66 796.485 1269.87 Q795.165 1268.07 792.411 1268.07 Q789.147 1268.07 787.226 1270.29 Q785.304 1272.49 785.304 1276.26 L785.304 1290.92 L781.022 1290.92 L781.022 1264.99 L785.304 1264.99 L785.304 1269.02 Q786.763 1266.63 788.8 1265.5 Q790.837 1264.36 793.638 1264.36 Q796.462 1264.36 798.429 1265.8 Q800.42 1267.23 801.369 1269.97 Z" fill="#000000" fill-rule="nonzero" fill-opacity="1" /><path clip-path="url(#clip870)" d="M837.41 1267.98 Q833.985 1267.98 831.994 1270.66 Q830.003 1273.32 830.003 1277.98 Q830.003 1282.63 831.971 1285.31 Q833.961 1287.98 837.41 1287.98 Q840.813 1287.98 842.804 1285.29 Q844.795 1282.61 844.795 1277.98 Q844.795 1273.37 842.804 1270.68 Q840.813 1267.98 837.41 1267.98 M837.41 1264.36 Q842.966 1264.36 846.137 1267.98 Q849.309 1271.59 849.309 1277.98 Q849.309 1284.34 846.137 1287.98 Q842.966 1291.59 837.41 1291.59 Q831.832 1291.59 828.66 1287.98 Q825.512 1284.34 825.512 1277.98 Q825.512 1271.59 828.66 1267.98 Q831.832 1264.36 837.41 1264.36 Z" fill="#000000" fill-rule="nonzero" fill-opacity="1" /><path clip-path="url(#clip870)" d="M873.429 1268.92 L873.429 1254.9 L877.688 1254.9 L877.688 1290.92 L873.429 1290.92 L873.429 1287.03 Q872.086 1289.34 870.026 1290.48 Q867.989 1291.59 865.119 1291.59 Q860.42 1291.59 857.457 1287.84 Q854.517 1284.09 854.517 1277.98 Q854.517 1271.86 857.457 1268.11 Q860.42 1264.36 865.119 1264.36 Q867.989 1264.36 870.026 1265.5 Q872.086 1266.61 873.429 1268.92 M858.915 1277.98 Q858.915 1282.67 860.836 1285.36 Q862.781 1288.02 866.16 1288.02 Q869.54 1288.02 871.484 1285.36 Q873.429 1282.67 873.429 1277.98 Q873.429 1273.28 871.484 1270.61 Q869.54 1267.93 866.16 1267.93 Q862.781 1267.93 860.836 1270.61 Q858.915 1273.28 858.915 1277.98 Z" fill="#000000" fill-rule="nonzero" fill-opacity="1" /><path clip-path="url(#clip870)" d="M908.637 1276.89 L908.637 1278.97 L889.054 1278.97 Q889.331 1283.37 891.693 1285.68 Q894.077 1287.98 898.313 1287.98 Q900.767 1287.98 903.058 1287.37 Q905.373 1286.77 907.642 1285.57 L907.642 1289.6 Q905.35 1290.57 902.942 1291.08 Q900.535 1291.59 898.058 1291.59 Q891.855 1291.59 888.22 1287.98 Q884.609 1284.36 884.609 1278.21 Q884.609 1271.84 888.035 1268.11 Q891.484 1264.36 897.318 1264.36 Q902.549 1264.36 905.581 1267.74 Q908.637 1271.1 908.637 1276.89 M904.378 1275.64 Q904.331 1272.14 902.41 1270.06 Q900.512 1267.98 897.364 1267.98 Q893.799 1267.98 891.646 1269.99 Q889.517 1272 889.193 1275.66 L904.378 1275.64 Z" fill="#000000" fill-rule="nonzero" fill-opacity="1" /><path clip-path="url(#clip870)" d="M915.628 1254.9 L919.887 1254.9 L919.887 1290.92 L915.628 1290.92 L915.628 1254.9 Z" fill="#000000" fill-rule="nonzero" fill-opacity="1" /><path clip-path="url(#clip870)" d="M960.396 1265.75 L960.396 1269.78 Q958.59 1268.86 956.646 1268.39 Q954.701 1267.93 952.618 1267.93 Q949.447 1267.93 947.85 1268.9 Q946.276 1269.87 946.276 1271.82 Q946.276 1273.3 947.41 1274.16 Q948.544 1274.99 951.97 1275.75 L953.428 1276.08 Q957.965 1277.05 959.863 1278.83 Q961.785 1280.59 961.785 1283.76 Q961.785 1287.37 958.914 1289.48 Q956.067 1291.59 951.067 1291.59 Q948.984 1291.59 946.715 1291.17 Q944.47 1290.78 941.97 1289.97 L941.97 1285.57 Q944.331 1286.79 946.623 1287.42 Q948.914 1288.02 951.16 1288.02 Q954.169 1288.02 955.789 1287 Q957.41 1285.96 957.41 1284.09 Q957.41 1282.35 956.229 1281.42 Q955.072 1280.5 951.114 1279.64 L949.632 1279.3 Q945.674 1278.46 943.914 1276.75 Q942.155 1275.01 942.155 1272 Q942.155 1268.35 944.748 1266.36 Q947.34 1264.36 952.109 1264.36 Q954.47 1264.36 956.553 1264.71 Q958.637 1265.06 960.396 1265.75 Z" fill="#000000" fill-rule="nonzero" fill-opacity="1" /><path clip-path="url(#clip870)" d="M968.567 1264.99 L972.826 1264.99 L972.826 1290.92 L968.567 1290.92 L968.567 1264.99 M968.567 1254.9 L972.826 1254.9 L972.826 1260.29 L968.567 1260.29 L968.567 1254.9 Z" fill="#000000" fill-rule="nonzero" fill-opacity="1" /><path clip-path="url(#clip870)" d="M1001.92 1269.97 Q1003.52 1267.1 1005.74 1265.73 Q1007.97 1264.36 1010.97 1264.36 Q1015.03 1264.36 1017.22 1267.21 Q1019.42 1270.04 1019.42 1275.27 L1019.42 1290.92 L1015.14 1290.92 L1015.14 1275.41 Q1015.14 1271.68 1013.82 1269.87 Q1012.5 1268.07 1009.79 1268.07 Q1006.48 1268.07 1004.56 1270.27 Q1002.64 1272.47 1002.64 1276.26 L1002.64 1290.92 L998.359 1290.92 L998.359 1275.41 Q998.359 1271.66 997.039 1269.87 Q995.72 1268.07 992.965 1268.07 Q989.701 1268.07 987.78 1270.29 Q985.859 1272.49 985.859 1276.26 L985.859 1290.92 L981.576 1290.92 L981.576 1264.99 L985.859 1264.99 L985.859 1269.02 Q987.317 1266.63 989.354 1265.5 Q991.391 1264.36 994.192 1264.36 Q997.016 1264.36 998.984 1265.8 Q1000.97 1267.23 1001.92 1269.97 Z" fill="#000000" fill-rule="nonzero" fill-opacity="1" /><path clip-path="url(#clip870)" d="M1056.11 1254.9 L1056.11 1258.44 L1052.04 1258.44 Q1049.75 1258.44 1048.84 1259.36 Q1047.96 1260.29 1047.96 1262.7 L1047.96 1264.99 L1054.98 1264.99 L1054.98 1268.3 L1047.96 1268.3 L1047.96 1290.92 L1043.68 1290.92 L1043.68 1268.3 L1039.61 1268.3 L1039.61 1264.99 L1043.68 1264.99 L1043.68 1263.18 Q1043.68 1258.86 1045.7 1256.89 Q1047.71 1254.9 1052.09 1254.9 L1056.11 1254.9 Z" fill="#000000" fill-rule="nonzero" fill-opacity="1" /><path clip-path="url(#clip870)" d="M1059.68 1264.99 L1063.94 1264.99 L1063.94 1290.92 L1059.68 1290.92 L1059.68 1264.99 M1059.68 1254.9 L1063.94 1254.9 L1063.94 1260.29 L1059.68 1260.29 L1059.68 1254.9 Z" fill="#000000" fill-rule="nonzero" fill-opacity="1" /><path clip-path="url(#clip870)" d="M1077.06 1257.63 L1077.06 1264.99 L1085.84 1264.99 L1085.84 1268.3 L1077.06 1268.3 L1077.06 1282.37 Q1077.06 1285.54 1077.92 1286.45 Q1078.8 1287.35 1081.46 1287.35 L1085.84 1287.35 L1085.84 1290.92 L1081.46 1290.92 Q1076.53 1290.92 1074.65 1289.09 Q1072.78 1287.23 1072.78 1282.37 L1072.78 1268.3 L1069.65 1268.3 L1069.65 1264.99 L1072.78 1264.99 L1072.78 1257.63 L1077.06 1257.63 Z" fill="#000000" fill-rule="nonzero" fill-opacity="1" /><path clip-path="url(#clip870)" d="M1122.66 1285.04 L1127.55 1285.04 L1127.55 1290.92 L1122.66 1290.92 L1122.66 1285.04 M1122.66 1266.4 L1127.55 1266.4 L1127.55 1272.28 L1122.66 1272.28 L1122.66 1266.4 Z" fill="#000000" fill-rule="nonzero" fill-opacity="1" /><path clip-path="url(#clip870)" d="M1151 1260.43 L1139.19 1278.88 L1151 1278.88 L1151 1260.43 M1149.77 1256.36 L1155.65 1256.36 L1155.65 1278.88 L1160.58 1278.88 L1160.58 1282.77 L1155.65 1282.77 L1155.65 1290.92 L1151 1290.92 L1151 1282.77 L1135.39 1282.77 L1135.39 1278.25 L1149.77 1256.36 Z" fill="#000000" fill-rule="nonzero" fill-opacity="1" /><path clip-path="url(#clip870)" d="M1182.48 1272.28 Q1185.83 1273 1187.71 1275.27 Q1189.61 1277.54 1189.61 1280.87 Q1189.61 1285.98 1186.09 1288.79 Q1182.57 1291.59 1176.09 1291.59 Q1173.91 1291.59 1171.6 1291.15 Q1169.31 1290.73 1166.85 1289.87 L1166.85 1285.36 Q1168.8 1286.49 1171.11 1287.07 Q1173.43 1287.65 1175.95 1287.65 Q1180.35 1287.65 1182.64 1285.92 Q1184.95 1284.18 1184.95 1280.87 Q1184.95 1277.81 1182.8 1276.1 Q1180.67 1274.36 1176.85 1274.36 L1172.83 1274.36 L1172.83 1270.52 L1177.04 1270.52 Q1180.49 1270.52 1182.32 1269.16 Q1184.14 1267.77 1184.14 1265.17 Q1184.14 1262.51 1182.25 1261.1 Q1180.37 1259.67 1176.85 1259.67 Q1174.93 1259.67 1172.73 1260.08 Q1170.53 1260.5 1167.89 1261.38 L1167.89 1257.21 Q1170.56 1256.47 1172.87 1256.1 Q1175.21 1255.73 1177.27 1255.73 Q1182.59 1255.73 1185.7 1258.16 Q1188.8 1260.57 1188.8 1264.69 Q1188.8 1267.56 1187.15 1269.55 Q1185.51 1271.52 1182.48 1272.28 Z" fill="#000000" fill-rule="nonzero" fill-opacity="1" /><path clip-path="url(#clip870)" d="M1198.47 1285.04 L1203.36 1285.04 L1203.36 1290.92 L1198.47 1290.92 L1198.47 1285.04 Z" fill="#000000" fill-rule="nonzero" fill-opacity="1" /><path clip-path="url(#clip870)" d="M1217.57 1286.98 L1233.89 1286.98 L1233.89 1290.92 L1211.95 1290.92 L1211.95 1286.98 Q1214.61 1284.23 1219.19 1279.6 Q1223.8 1274.94 1224.98 1273.6 Q1227.22 1271.08 1228.1 1269.34 Q1229.01 1267.58 1229.01 1265.89 Q1229.01 1263.14 1227.06 1261.4 Q1225.14 1259.67 1222.04 1259.67 Q1219.84 1259.67 1217.39 1260.43 Q1214.95 1261.19 1212.18 1262.74 L1212.18 1258.02 Q1215 1256.89 1217.45 1256.31 Q1219.91 1255.73 1221.95 1255.73 Q1227.32 1255.73 1230.51 1258.42 Q1233.7 1261.1 1233.7 1265.59 Q1233.7 1267.72 1232.89 1269.64 Q1232.11 1271.54 1230 1274.13 Q1229.42 1274.8 1226.32 1278.02 Q1223.22 1281.22 1217.57 1286.98 Z" fill="#000000" fill-rule="nonzero" fill-opacity="1" /><path clip-path="url(#clip870)" d="M1244.51 1286.98 L1252.15 1286.98 L1252.15 1260.61 L1243.84 1262.28 L1243.84 1258.02 L1252.11 1256.36 L1256.78 1256.36 L1256.78 1286.98 L1264.42 1286.98 L1264.42 1290.92 L1244.51 1290.92 L1244.51 1286.98 Z" fill="#000000" fill-rule="nonzero" fill-opacity="1" /><path clip-path="url(#clip870)" d="M1303.26 1275.71 Q1301.25 1275.71 1300.09 1277.42 Q1298.96 1279.13 1298.96 1282.19 Q1298.96 1285.2 1300.09 1286.93 Q1301.25 1288.65 1303.26 1288.65 Q1305.23 1288.65 1306.37 1286.93 Q1307.52 1285.2 1307.52 1282.19 Q1307.52 1279.16 1306.37 1277.44 Q1305.23 1275.71 1303.26 1275.71 M1303.26 1272.77 Q1306.92 1272.77 1309.07 1275.31 Q1311.23 1277.86 1311.23 1282.19 Q1311.23 1286.52 1309.05 1289.06 Q1306.9 1291.59 1303.26 1291.59 Q1299.56 1291.59 1297.41 1289.06 Q1295.26 1286.52 1295.26 1282.19 Q1295.26 1277.84 1297.41 1275.31 Q1299.58 1272.77 1303.26 1272.77 M1279.38 1258.67 Q1277.38 1258.67 1276.23 1260.41 Q1275.09 1262.12 1275.09 1265.13 Q1275.09 1268.18 1276.23 1269.9 Q1277.36 1271.61 1279.38 1271.61 Q1281.39 1271.61 1282.52 1269.9 Q1283.68 1268.18 1283.68 1265.13 Q1283.68 1262.14 1282.52 1260.41 Q1281.37 1258.67 1279.38 1258.67 M1300.28 1255.73 L1303.98 1255.73 L1282.36 1291.59 L1278.66 1291.59 L1300.28 1255.73 M1279.38 1255.73 Q1283.03 1255.73 1285.21 1258.28 Q1287.38 1260.8 1287.38 1265.13 Q1287.38 1269.5 1285.21 1272.03 Q1283.06 1274.55 1279.38 1274.55 Q1275.7 1274.55 1273.54 1272.03 Q1271.41 1269.48 1271.41 1265.13 Q1271.41 1260.82 1273.57 1258.28 Q1275.72 1255.73 1279.38 1255.73 Z" fill="#000000" fill-rule="nonzero" fill-opacity="1" /><polyline clip-path="url(#clip870)" style="stroke:#3da44d; stroke-linecap:round; stroke-linejoin:round; stroke-width:4; stroke-opacity:1; fill:none" points="349.167,1325.48 488.953,1325.48 "/>
<path clip-path="url(#clip870)" d="M516.926 1312.04 L516.926 1325.02 L522.806 1325.02 Q526.07 1325.02 527.852 1323.33 Q529.634 1321.64 529.634 1318.52 Q529.634 1315.42 527.852 1313.73 Q526.07 1312.04 522.806 1312.04 L516.926 1312.04 M512.25 1308.2 L522.806 1308.2 Q528.616 1308.2 531.579 1310.83 Q534.565 1313.45 534.565 1318.52 Q534.565 1323.64 531.579 1326.25 Q528.616 1328.87 522.806 1328.87 L516.926 1328.87 L516.926 1342.76 L512.25 1342.76 L512.25 1308.2 Z" fill="#000000" fill-rule="nonzero" fill-opacity="1" /><path clip-path="url(#clip870)" d="M554.843 1320.81 Q554.125 1320.39 553.268 1320.21 Q552.435 1320 551.417 1320 Q547.806 1320 545.861 1322.36 Q543.94 1324.7 543.94 1329.1 L543.94 1342.76 L539.657 1342.76 L539.657 1316.83 L543.94 1316.83 L543.94 1320.86 Q545.282 1318.5 547.435 1317.36 Q549.588 1316.2 552.667 1316.2 Q553.106 1316.2 553.639 1316.27 Q554.171 1316.32 554.819 1316.44 L554.843 1320.81 Z" fill="#000000" fill-rule="nonzero" fill-opacity="1" /><path clip-path="url(#clip870)" d="M580.444 1328.73 L580.444 1330.81 L560.861 1330.81 Q561.139 1335.21 563.5 1337.52 Q565.884 1339.82 570.12 1339.82 Q572.574 1339.82 574.866 1339.21 Q577.18 1338.61 579.449 1337.41 L579.449 1341.44 Q577.157 1342.41 574.75 1342.92 Q572.342 1343.43 569.866 1343.43 Q563.662 1343.43 560.028 1339.82 Q556.417 1336.2 556.417 1330.05 Q556.417 1323.68 559.842 1319.95 Q563.292 1316.2 569.125 1316.2 Q574.356 1316.2 577.389 1319.58 Q580.444 1322.94 580.444 1328.73 M576.185 1327.48 Q576.139 1323.98 574.217 1321.9 Q572.319 1319.82 569.171 1319.82 Q565.606 1319.82 563.454 1321.83 Q561.324 1323.84 561 1327.5 L576.185 1327.48 Z" fill="#000000" fill-rule="nonzero" fill-opacity="1" /><path clip-path="url(#clip870)" d="M604.495 1320.76 L604.495 1306.74 L608.754 1306.74 L608.754 1342.76 L604.495 1342.76 L604.495 1338.87 Q603.152 1341.18 601.092 1342.32 Q599.055 1343.43 596.185 1343.43 Q591.486 1343.43 588.523 1339.68 Q585.583 1335.93 585.583 1329.82 Q585.583 1323.7 588.523 1319.95 Q591.486 1316.2 596.185 1316.2 Q599.055 1316.2 601.092 1317.34 Q603.152 1318.45 604.495 1320.76 M589.981 1329.82 Q589.981 1334.51 591.902 1337.2 Q593.847 1339.86 597.227 1339.86 Q600.606 1339.86 602.551 1337.2 Q604.495 1334.51 604.495 1329.82 Q604.495 1325.12 602.551 1322.45 Q600.606 1319.77 597.227 1319.77 Q593.847 1319.77 591.902 1322.45 Q589.981 1325.12 589.981 1329.82 Z" fill="#000000" fill-rule="nonzero" fill-opacity="1" /><path clip-path="url(#clip870)" d="M617.527 1316.83 L621.787 1316.83 L621.787 1342.76 L617.527 1342.76 L617.527 1316.83 M617.527 1306.74 L621.787 1306.74 L621.787 1312.13 L617.527 1312.13 L617.527 1306.74 Z" fill="#000000" fill-rule="nonzero" fill-opacity="1" /><path clip-path="url(#clip870)" d="M649.356 1317.82 L649.356 1321.81 Q647.55 1320.81 645.722 1320.32 Q643.916 1319.82 642.064 1319.82 Q637.921 1319.82 635.629 1322.45 Q633.337 1325.07 633.337 1329.82 Q633.337 1334.56 635.629 1337.2 Q637.921 1339.82 642.064 1339.82 Q643.916 1339.82 645.722 1339.33 Q647.55 1338.82 649.356 1337.82 L649.356 1341.76 Q647.573 1342.59 645.652 1343.01 Q643.754 1343.43 641.601 1343.43 Q635.745 1343.43 632.296 1339.75 Q628.847 1336.07 628.847 1329.82 Q628.847 1323.47 632.319 1319.84 Q635.814 1316.2 641.879 1316.2 Q643.847 1316.2 645.722 1316.62 Q647.597 1317.01 649.356 1317.82 Z" fill="#000000" fill-rule="nonzero" fill-opacity="1" /><path clip-path="url(#clip870)" d="M660.976 1309.47 L660.976 1316.83 L669.749 1316.83 L669.749 1320.14 L660.976 1320.14 L660.976 1334.21 Q660.976 1337.38 661.833 1338.29 Q662.712 1339.19 665.374 1339.19 L669.749 1339.19 L669.749 1342.76 L665.374 1342.76 Q660.444 1342.76 658.569 1340.93 Q656.694 1339.07 656.694 1334.21 L656.694 1320.14 L653.569 1320.14 L653.569 1316.83 L656.694 1316.83 L656.694 1309.47 L660.976 1309.47 Z" fill="#000000" fill-rule="nonzero" fill-opacity="1" /><path clip-path="url(#clip870)" d="M675.351 1316.83 L679.61 1316.83 L679.61 1342.76 L675.351 1342.76 L675.351 1316.83 M675.351 1306.74 L679.61 1306.74 L679.61 1312.13 L675.351 1312.13 L675.351 1306.74 Z" fill="#000000" fill-rule="nonzero" fill-opacity="1" /><path clip-path="url(#clip870)" d="M698.569 1319.82 Q695.143 1319.82 693.152 1322.5 Q691.161 1325.16 691.161 1329.82 Q691.161 1334.47 693.129 1337.15 Q695.12 1339.82 698.569 1339.82 Q701.971 1339.82 703.962 1337.13 Q705.953 1334.45 705.953 1329.82 Q705.953 1325.21 703.962 1322.52 Q701.971 1319.82 698.569 1319.82 M698.569 1316.2 Q704.124 1316.2 707.295 1319.82 Q710.467 1323.43 710.467 1329.82 Q710.467 1336.18 707.295 1339.82 Q704.124 1343.43 698.569 1343.43 Q692.99 1343.43 689.819 1339.82 Q686.671 1336.18 686.671 1329.82 Q686.671 1323.43 689.819 1319.82 Q692.99 1316.2 698.569 1316.2 Z" fill="#000000" fill-rule="nonzero" fill-opacity="1" /><path clip-path="url(#clip870)" d="M739.078 1327.11 L739.078 1342.76 L734.818 1342.76 L734.818 1327.25 Q734.818 1323.57 733.383 1321.74 Q731.948 1319.91 729.078 1319.91 Q725.629 1319.91 723.638 1322.11 Q721.647 1324.31 721.647 1328.1 L721.647 1342.76 L717.365 1342.76 L717.365 1316.83 L721.647 1316.83 L721.647 1320.86 Q723.175 1318.52 725.235 1317.36 Q727.318 1316.2 730.027 1316.2 Q734.494 1316.2 736.786 1318.98 Q739.078 1321.74 739.078 1327.11 Z" fill="#000000" fill-rule="nonzero" fill-opacity="1" /><path clip-path="url(#clip870)" d="M782.827 1321.81 Q784.425 1318.94 786.647 1317.57 Q788.869 1316.2 791.878 1316.2 Q795.929 1316.2 798.128 1319.05 Q800.327 1321.88 800.327 1327.11 L800.327 1342.76 L796.045 1342.76 L796.045 1327.25 Q796.045 1323.52 794.725 1321.71 Q793.406 1319.91 790.698 1319.91 Q787.388 1319.91 785.466 1322.11 Q783.545 1324.31 783.545 1328.1 L783.545 1342.76 L779.263 1342.76 L779.263 1327.25 Q779.263 1323.5 777.943 1321.71 Q776.624 1319.91 773.869 1319.91 Q770.605 1319.91 768.684 1322.13 Q766.763 1324.33 766.763 1328.1 L766.763 1342.76 L762.48 1342.76 L762.48 1316.83 L766.763 1316.83 L766.763 1320.86 Q768.221 1318.47 770.258 1317.34 Q772.295 1316.2 775.096 1316.2 Q777.92 1316.2 779.888 1317.64 Q781.878 1319.07 782.827 1321.81 Z" fill="#000000" fill-rule="nonzero" fill-opacity="1" /><path clip-path="url(#clip870)" d="M818.869 1319.82 Q815.443 1319.82 813.452 1322.5 Q811.461 1325.16 811.461 1329.82 Q811.461 1334.47 813.429 1337.15 Q815.42 1339.82 818.869 1339.82 Q822.272 1339.82 824.262 1337.13 Q826.253 1334.45 826.253 1329.82 Q826.253 1325.21 824.262 1322.52 Q822.272 1319.82 818.869 1319.82 M818.869 1316.2 Q824.424 1316.2 827.596 1319.82 Q830.767 1323.43 830.767 1329.82 Q830.767 1336.18 827.596 1339.82 Q824.424 1343.43 818.869 1343.43 Q813.29 1343.43 810.119 1339.82 Q806.971 1336.18 806.971 1329.82 Q806.971 1323.43 810.119 1319.82 Q813.29 1316.2 818.869 1316.2 Z" fill="#000000" fill-rule="nonzero" fill-opacity="1" /><path clip-path="url(#clip870)" d="M854.887 1320.76 L854.887 1306.74 L859.146 1306.74 L859.146 1342.76 L854.887 1342.76 L854.887 1338.87 Q853.545 1341.18 851.484 1342.32 Q849.447 1343.43 846.577 1343.43 Q841.878 1343.43 838.915 1339.68 Q835.975 1335.93 835.975 1329.82 Q835.975 1323.7 838.915 1319.95 Q841.878 1316.2 846.577 1316.2 Q849.447 1316.2 851.484 1317.34 Q853.545 1318.45 854.887 1320.76 M840.373 1329.82 Q840.373 1334.51 842.295 1337.2 Q844.239 1339.86 847.619 1339.86 Q850.998 1339.86 852.943 1337.2 Q854.887 1334.51 854.887 1329.82 Q854.887 1325.12 852.943 1322.45 Q850.998 1319.77 847.619 1319.77 Q844.239 1319.77 842.295 1322.45 Q840.373 1325.12 840.373 1329.82 Z" fill="#000000" fill-rule="nonzero" fill-opacity="1" /><path clip-path="url(#clip870)" d="M890.095 1328.73 L890.095 1330.81 L870.512 1330.81 Q870.79 1335.21 873.151 1337.52 Q875.535 1339.82 879.771 1339.82 Q882.225 1339.82 884.517 1339.21 Q886.831 1338.61 889.1 1337.41 L889.1 1341.44 Q886.808 1342.41 884.401 1342.92 Q881.994 1343.43 879.517 1343.43 Q873.313 1343.43 869.679 1339.82 Q866.068 1336.2 866.068 1330.05 Q866.068 1323.68 869.494 1319.95 Q872.943 1316.2 878.776 1316.2 Q884.007 1316.2 887.04 1319.58 Q890.095 1322.94 890.095 1328.73 M885.836 1327.48 Q885.79 1323.98 883.869 1321.9 Q881.97 1319.82 878.822 1319.82 Q875.257 1319.82 873.105 1321.83 Q870.975 1323.84 870.651 1327.5 L885.836 1327.48 Z" fill="#000000" fill-rule="nonzero" fill-opacity="1" /><path clip-path="url(#clip870)" d="M897.086 1306.74 L901.345 1306.74 L901.345 1342.76 L897.086 1342.76 L897.086 1306.74 Z" fill="#000000" fill-rule="nonzero" fill-opacity="1" /><path clip-path="url(#clip870)" d="M941.854 1317.59 L941.854 1321.62 Q940.049 1320.7 938.104 1320.23 Q936.16 1319.77 934.077 1319.77 Q930.905 1319.77 929.308 1320.74 Q927.734 1321.71 927.734 1323.66 Q927.734 1325.14 928.868 1326 Q930.003 1326.83 933.428 1327.59 L934.887 1327.92 Q939.424 1328.89 941.322 1330.67 Q943.243 1332.43 943.243 1335.6 Q943.243 1339.21 940.373 1341.32 Q937.526 1343.43 932.526 1343.43 Q930.442 1343.43 928.174 1343.01 Q925.928 1342.62 923.428 1341.81 L923.428 1337.41 Q925.79 1338.63 928.081 1339.26 Q930.373 1339.86 932.618 1339.86 Q935.627 1339.86 937.248 1338.84 Q938.868 1337.8 938.868 1335.93 Q938.868 1334.19 937.688 1333.26 Q936.53 1332.34 932.572 1331.48 L931.09 1331.14 Q927.132 1330.3 925.373 1328.59 Q923.614 1326.85 923.614 1323.84 Q923.614 1320.19 926.206 1318.2 Q928.799 1316.2 933.567 1316.2 Q935.928 1316.2 938.012 1316.55 Q940.095 1316.9 941.854 1317.59 Z" fill="#000000" fill-rule="nonzero" fill-opacity="1" /><path clip-path="url(#clip870)" d="M950.026 1316.83 L954.285 1316.83 L954.285 1342.76 L950.026 1342.76 L950.026 1316.83 M950.026 1306.74 L954.285 1306.74 L954.285 1312.13 L950.026 1312.13 L950.026 1306.74 Z" fill="#000000" fill-rule="nonzero" fill-opacity="1" /><path clip-path="url(#clip870)" d="M983.382 1321.81 Q984.979 1318.94 987.201 1317.57 Q989.424 1316.2 992.433 1316.2 Q996.484 1316.2 998.683 1319.05 Q1000.88 1321.88 1000.88 1327.11 L1000.88 1342.76 L996.599 1342.76 L996.599 1327.25 Q996.599 1323.52 995.28 1321.71 Q993.961 1319.91 991.252 1319.91 Q987.942 1319.91 986.021 1322.11 Q984.099 1324.31 984.099 1328.1 L984.099 1342.76 L979.817 1342.76 L979.817 1327.25 Q979.817 1323.5 978.498 1321.71 Q977.178 1319.91 974.424 1319.91 Q971.16 1319.91 969.238 1322.13 Q967.317 1324.33 967.317 1328.1 L967.317 1342.76 L963.035 1342.76 L963.035 1316.83 L967.317 1316.83 L967.317 1320.86 Q968.775 1318.47 970.812 1317.34 Q972.85 1316.2 975.65 1316.2 Q978.474 1316.2 980.442 1317.64 Q982.433 1319.07 983.382 1321.81 Z" fill="#000000" fill-rule="nonzero" fill-opacity="1" /><path clip-path="url(#clip870)" d="M1037.57 1306.74 L1037.57 1310.28 L1033.5 1310.28 Q1031.21 1310.28 1030.3 1311.2 Q1029.42 1312.13 1029.42 1314.54 L1029.42 1316.83 L1036.44 1316.83 L1036.44 1320.14 L1029.42 1320.14 L1029.42 1342.76 L1025.14 1342.76 L1025.14 1320.14 L1021.07 1320.14 L1021.07 1316.83 L1025.14 1316.83 L1025.14 1315.02 Q1025.14 1310.7 1027.15 1308.73 Q1029.17 1306.74 1033.54 1306.74 L1037.57 1306.74 Z" fill="#000000" fill-rule="nonzero" fill-opacity="1" /><path clip-path="url(#clip870)" d="M1041.14 1316.83 L1045.4 1316.83 L1045.4 1342.76 L1041.14 1342.76 L1041.14 1316.83 M1041.14 1306.74 L1045.4 1306.74 L1045.4 1312.13 L1041.14 1312.13 L1041.14 1306.74 Z" fill="#000000" fill-rule="nonzero" fill-opacity="1" /><path clip-path="url(#clip870)" d="M1058.52 1309.47 L1058.52 1316.83 L1067.29 1316.83 L1067.29 1320.14 L1058.52 1320.14 L1058.52 1334.21 Q1058.52 1337.38 1059.38 1338.29 Q1060.26 1339.19 1062.92 1339.19 L1067.29 1339.19 L1067.29 1342.76 L1062.92 1342.76 Q1057.99 1342.76 1056.11 1340.93 Q1054.24 1339.07 1054.24 1334.21 L1054.24 1320.14 L1051.11 1320.14 L1051.11 1316.83 L1054.24 1316.83 L1054.24 1309.47 L1058.52 1309.47 Z" fill="#000000" fill-rule="nonzero" fill-opacity="1" /><path clip-path="url(#clip870)" d="M1104.12 1336.88 L1109.01 1336.88 L1109.01 1342.76 L1104.12 1342.76 L1104.12 1336.88 M1104.12 1318.24 L1109.01 1318.24 L1109.01 1324.12 L1104.12 1324.12 L1104.12 1318.24 Z" fill="#000000" fill-rule="nonzero" fill-opacity="1" /><path clip-path="url(#clip870)" d="M1132.46 1312.27 L1120.65 1330.72 L1132.46 1330.72 L1132.46 1312.27 M1131.23 1308.2 L1137.11 1308.2 L1137.11 1330.72 L1142.04 1330.72 L1142.04 1334.61 L1137.11 1334.61 L1137.11 1342.76 L1132.46 1342.76 L1132.46 1334.61 L1116.85 1334.61 L1116.85 1330.09 L1131.23 1308.2 Z" fill="#000000" fill-rule="nonzero" fill-opacity="1" /><path clip-path="url(#clip870)" d="M1150.58 1338.82 L1158.22 1338.82 L1158.22 1312.45 L1149.91 1314.12 L1149.91 1309.86 L1158.17 1308.2 L1162.85 1308.2 L1162.85 1338.82 L1170.49 1338.82 L1170.49 1342.76 L1150.58 1342.76 L1150.58 1338.82 Z" fill="#000000" fill-rule="nonzero" fill-opacity="1" /><path clip-path="url(#clip870)" d="M1179.93 1336.88 L1184.82 1336.88 L1184.82 1342.76 L1179.93 1342.76 L1179.93 1336.88 Z" fill="#000000" fill-rule="nonzero" fill-opacity="1" /><path clip-path="url(#clip870)" d="M1195.81 1338.82 L1203.45 1338.82 L1203.45 1312.45 L1195.14 1314.12 L1195.14 1309.86 L1203.4 1308.2 L1208.08 1308.2 L1208.08 1338.82 L1215.72 1338.82 L1215.72 1342.76 L1195.81 1342.76 L1195.81 1338.82 Z" fill="#000000" fill-rule="nonzero" fill-opacity="1" /><path clip-path="url(#clip870)" d="M1225.97 1338.82 L1233.61 1338.82 L1233.61 1312.45 L1225.3 1314.12 L1225.3 1309.86 L1233.57 1308.2 L1238.24 1308.2 L1238.24 1338.82 L1245.88 1338.82 L1245.88 1342.76 L1225.97 1342.76 L1225.97 1338.82 Z" fill="#000000" fill-rule="nonzero" fill-opacity="1" /><path clip-path="url(#clip870)" d="M1284.72 1327.55 Q1282.71 1327.55 1281.55 1329.26 Q1280.42 1330.97 1280.42 1334.03 Q1280.42 1337.04 1281.55 1338.77 Q1282.71 1340.49 1284.72 1340.49 Q1286.69 1340.49 1287.82 1338.77 Q1288.98 1337.04 1288.98 1334.03 Q1288.98 1331 1287.82 1329.28 Q1286.69 1327.55 1284.72 1327.55 M1284.72 1324.61 Q1288.38 1324.61 1290.53 1327.15 Q1292.69 1329.7 1292.69 1334.03 Q1292.69 1338.36 1290.51 1340.9 Q1288.36 1343.43 1284.72 1343.43 Q1281.02 1343.43 1278.87 1340.9 Q1276.71 1338.36 1276.71 1334.03 Q1276.71 1329.68 1278.87 1327.15 Q1281.04 1324.61 1284.72 1324.61 M1260.83 1310.51 Q1258.84 1310.51 1257.69 1312.25 Q1256.55 1313.96 1256.55 1316.97 Q1256.55 1320.02 1257.69 1321.74 Q1258.82 1323.45 1260.83 1323.45 Q1262.85 1323.45 1263.98 1321.74 Q1265.14 1320.02 1265.14 1316.97 Q1265.14 1313.98 1263.98 1312.25 Q1262.82 1310.51 1260.83 1310.51 M1281.74 1307.57 L1285.44 1307.57 L1263.82 1343.43 L1260.12 1343.43 L1281.74 1307.57 M1260.83 1307.57 Q1264.49 1307.57 1266.67 1310.12 Q1268.84 1312.64 1268.84 1316.97 Q1268.84 1321.34 1266.67 1323.87 Q1264.51 1326.39 1260.83 1326.39 Q1257.15 1326.39 1255 1323.87 Q1252.87 1321.32 1252.87 1316.97 Q1252.87 1312.66 1255.02 1310.12 Q1257.18 1307.57 1260.83 1307.57 Z" fill="#000000" fill-rule="nonzero" fill-opacity="1" /></svg>
