<?xml version="1.0" encoding="utf-8"?>
<svg xmlns="http://www.w3.org/2000/svg" xmlns:xlink="http://www.w3.org/1999/xlink" width="600" height="400" viewBox="0 0 2400 1600">
<defs>
  <clipPath id="clip810">
    <rect x="0" y="0" width="2400" height="1600"/>
  </clipPath>
</defs>
<path clip-path="url(#clip810)" d="M0 1600 L2400 1600 L2400 0 L0 0  Z" fill="#ffffff" fill-rule="evenodd" fill-opacity="1"/>
<defs>
  <clipPath id="clip811">
    <rect x="480" y="0" width="1681" height="1600"/>
  </clipPath>
</defs>
<path clip-path="url(#clip810)" d="M255.977 1423.18 L2352.76 1423.18 L2352.76 47.2441 L255.977 47.2441  Z" fill="#ffffff" fill-rule="evenodd" fill-opacity="1"/>
<defs>
  <clipPath id="clip812">
    <rect x="255" y="47" width="2098" height="1377"/>
  </clipPath>
</defs>
<polyline clip-path="url(#clip812)" style="stroke:#000000; stroke-linecap:round; stroke-linejoin:round; stroke-width:2; stroke-opacity:0.1; fill:none" points="315.32,1423.18 315.32,47.2441 "/>
<polyline clip-path="url(#clip812)" style="stroke:#000000; stroke-linecap:round; stroke-linejoin:round; stroke-width:2; stroke-opacity:0.1; fill:none" points="711.731,1423.18 711.731,47.2441 "/>
<polyline clip-path="url(#clip812)" style="stroke:#000000; stroke-linecap:round; stroke-linejoin:round; stroke-width:2; stroke-opacity:0.1; fill:none" points="1108.14,1423.18 1108.14,47.2441 "/>
<polyline clip-path="url(#clip812)" style="stroke:#000000; stroke-linecap:round; stroke-linejoin:round; stroke-width:2; stroke-opacity:0.1; fill:none" points="1504.55,1423.18 1504.55,47.2441 "/>
<polyline clip-path="url(#clip812)" style="stroke:#000000; stroke-linecap:round; stroke-linejoin:round; stroke-width:2; stroke-opacity:0.1; fill:none" points="1900.97,1423.18 1900.97,47.2441 "/>
<polyline clip-path="url(#clip812)" style="stroke:#000000; stroke-linecap:round; stroke-linejoin:round; stroke-width:2; stroke-opacity:0.1; fill:none" points="2297.38,1423.18 2297.38,47.2441 "/>
<polyline clip-path="url(#clip812)" style="stroke:#000000; stroke-linecap:round; stroke-linejoin:round; stroke-width:2; stroke-opacity:0.1; fill:none" points="255.977,1331.34 2352.76,1331.34 "/>
<polyline clip-path="url(#clip812)" style="stroke:#000000; stroke-linecap:round; stroke-linejoin:round; stroke-width:2; stroke-opacity:0.1; fill:none" points="255.977,1039.53 2352.76,1039.53 "/>
<polyline clip-path="url(#clip812)" style="stroke:#000000; stroke-linecap:round; stroke-linejoin:round; stroke-width:2; stroke-opacity:0.1; fill:none" points="255.977,747.707 2352.76,747.707 "/>
<polyline clip-path="url(#clip812)" style="stroke:#000000; stroke-linecap:round; stroke-linejoin:round; stroke-width:2; stroke-opacity:0.1; fill:none" points="255.977,455.888 2352.76,455.888 "/>
<polyline clip-path="url(#clip812)" style="stroke:#000000; stroke-linecap:round; stroke-linejoin:round; stroke-width:2; stroke-opacity:0.1; fill:none" points="255.977,164.07 2352.76,164.07 "/>
<polyline clip-path="url(#clip810)" style="stroke:#000000; stroke-linecap:round; stroke-linejoin:round; stroke-width:4; stroke-opacity:1; fill:none" points="255.977,1423.18 2352.76,1423.18 "/>
<polyline clip-path="url(#clip810)" style="stroke:#000000; stroke-linecap:round; stroke-linejoin:round; stroke-width:4; stroke-opacity:1; fill:none" points="315.32,1423.18 315.32,1404.28 "/>
<polyline clip-path="url(#clip810)" style="stroke:#000000; stroke-linecap:round; stroke-linejoin:round; stroke-width:4; stroke-opacity:1; fill:none" points="711.731,1423.18 711.731,1404.28 "/>
<polyline clip-path="url(#clip810)" style="stroke:#000000; stroke-linecap:round; stroke-linejoin:round; stroke-width:4; stroke-opacity:1; fill:none" points="1108.14,1423.18 1108.14,1404.28 "/>
<polyline clip-path="url(#clip810)" style="stroke:#000000; stroke-linecap:round; stroke-linejoin:round; stroke-width:4; stroke-opacity:1; fill:none" points="1504.55,1423.18 1504.55,1404.28 "/>
<polyline clip-path="url(#clip810)" style="stroke:#000000; stroke-linecap:round; stroke-linejoin:round; stroke-width:4; stroke-opacity:1; fill:none" points="1900.97,1423.18 1900.97,1404.28 "/>
<polyline clip-path="url(#clip810)" style="stroke:#000000; stroke-linecap:round; stroke-linejoin:round; stroke-width:4; stroke-opacity:1; fill:none" points="2297.38,1423.18 2297.38,1404.28 "/>
<path clip-path="url(#clip810)" d="M315.32 1454.1 Q311.709 1454.1 309.88 1457.66 Q308.075 1461.2 308.075 1468.33 Q308.075 1475.44 309.88 1479.01 Q311.709 1482.55 315.32 1482.55 Q318.954 1482.55 320.76 1479.01 Q322.588 1475.44 322.588 1468.33 Q322.588 1461.2 320.76 1457.66 Q318.954 1454.1 315.32 1454.1 M315.32 1450.39 Q321.13 1450.39 324.186 1455 Q327.264 1459.58 327.264 1468.33 Q327.264 1477.06 324.186 1481.67 Q321.13 1486.25 315.32 1486.25 Q309.51 1486.25 306.431 1481.67 Q303.376 1477.06 303.376 1468.33 Q303.376 1459.58 306.431 1455 Q309.51 1450.39 315.32 1450.39 Z" fill="#000000" fill-rule="nonzero" fill-opacity="1" /><path clip-path="url(#clip810)" d="M702.113 1481.64 L709.752 1481.64 L709.752 1455.28 L701.442 1456.95 L701.442 1452.69 L709.706 1451.02 L714.382 1451.02 L714.382 1481.64 L722.021 1481.64 L722.021 1485.58 L702.113 1485.58 L702.113 1481.64 Z" fill="#000000" fill-rule="nonzero" fill-opacity="1" /><path clip-path="url(#clip810)" d="M1102.8 1481.64 L1119.12 1481.64 L1119.12 1485.58 L1097.17 1485.58 L1097.17 1481.64 Q1099.83 1478.89 1104.42 1474.26 Q1109.02 1469.61 1110.2 1468.27 Q1112.45 1465.74 1113.33 1464.01 Q1114.23 1462.25 1114.23 1460.56 Q1114.23 1457.8 1112.29 1456.07 Q1110.37 1454.33 1107.26 1454.33 Q1105.06 1454.33 1102.61 1455.09 Q1100.18 1455.86 1097.4 1457.41 L1097.4 1452.69 Q1100.23 1451.55 1102.68 1450.97 Q1105.13 1450.39 1107.17 1450.39 Q1112.54 1450.39 1115.74 1453.08 Q1118.93 1455.77 1118.93 1460.26 Q1118.93 1462.39 1118.12 1464.31 Q1117.33 1466.2 1115.23 1468.8 Q1114.65 1469.47 1111.55 1472.69 Q1108.44 1475.88 1102.8 1481.64 Z" fill="#000000" fill-rule="nonzero" fill-opacity="1" /><path clip-path="url(#clip810)" d="M1508.8 1466.95 Q1512.16 1467.66 1514.03 1469.93 Q1515.93 1472.2 1515.93 1475.53 Q1515.93 1480.65 1512.41 1483.45 Q1508.89 1486.25 1502.41 1486.25 Q1500.24 1486.25 1497.92 1485.81 Q1495.63 1485.39 1493.18 1484.54 L1493.18 1480.02 Q1495.12 1481.16 1497.44 1481.74 Q1499.75 1482.32 1502.27 1482.32 Q1506.67 1482.32 1508.96 1480.58 Q1511.28 1478.84 1511.28 1475.53 Q1511.28 1472.48 1509.13 1470.77 Q1507 1469.03 1503.18 1469.03 L1499.15 1469.03 L1499.15 1465.19 L1503.36 1465.19 Q1506.81 1465.19 1508.64 1463.82 Q1510.47 1462.43 1510.47 1459.84 Q1510.47 1457.18 1508.57 1455.77 Q1506.7 1454.33 1503.18 1454.33 Q1501.26 1454.33 1499.06 1454.75 Q1496.86 1455.16 1494.22 1456.04 L1494.22 1451.88 Q1496.88 1451.14 1499.2 1450.77 Q1501.53 1450.39 1503.59 1450.39 Q1508.92 1450.39 1512.02 1452.83 Q1515.12 1455.23 1515.12 1459.35 Q1515.12 1462.22 1513.48 1464.21 Q1511.83 1466.18 1508.8 1466.95 Z" fill="#000000" fill-rule="nonzero" fill-opacity="1" /><path clip-path="url(#clip810)" d="M1903.98 1455.09 L1892.17 1473.54 L1903.98 1473.54 L1903.98 1455.09 M1902.75 1451.02 L1908.63 1451.02 L1908.63 1473.54 L1913.56 1473.54 L1913.56 1477.43 L1908.63 1477.43 L1908.63 1485.58 L1903.98 1485.58 L1903.98 1477.43 L1888.37 1477.43 L1888.37 1472.92 L1902.75 1451.02 Z" fill="#000000" fill-rule="nonzero" fill-opacity="1" /><path clip-path="url(#clip810)" d="M2287.66 1451.02 L2306.01 1451.02 L2306.01 1454.96 L2291.94 1454.96 L2291.94 1463.43 Q2292.96 1463.08 2293.97 1462.92 Q2294.99 1462.73 2296.01 1462.73 Q2301.8 1462.73 2305.18 1465.9 Q2308.56 1469.08 2308.56 1474.49 Q2308.56 1480.07 2305.09 1483.17 Q2301.61 1486.25 2295.29 1486.25 Q2293.12 1486.25 2290.85 1485.88 Q2288.6 1485.51 2286.2 1484.77 L2286.2 1480.07 Q2288.28 1481.2 2290.5 1481.76 Q2292.72 1482.32 2295.2 1482.32 Q2299.21 1482.32 2301.54 1480.21 Q2303.88 1478.1 2303.88 1474.49 Q2303.88 1470.88 2301.54 1468.77 Q2299.21 1466.67 2295.2 1466.67 Q2293.33 1466.67 2291.45 1467.08 Q2289.6 1467.5 2287.66 1468.38 L2287.66 1451.02 Z" fill="#000000" fill-rule="nonzero" fill-opacity="1" /><path clip-path="url(#clip810)" d="M1174.54 1520.52 L1214.74 1520.52 L1214.74 1525.93 L1197.87 1525.93 L1197.87 1568.04 L1191.41 1568.04 L1191.41 1525.93 L1174.54 1525.93 L1174.54 1520.52 Z" fill="#000000" fill-rule="nonzero" fill-opacity="1" /><path clip-path="url(#clip810)" d="M1218.68 1532.4 L1224.54 1532.4 L1224.54 1568.04 L1218.68 1568.04 L1218.68 1532.4 M1218.68 1518.52 L1224.54 1518.52 L1224.54 1525.93 L1218.68 1525.93 L1218.68 1518.52 Z" fill="#000000" fill-rule="nonzero" fill-opacity="1" /><path clip-path="url(#clip810)" d="M1264.55 1539.24 Q1266.75 1535.29 1269.8 1533.41 Q1272.86 1531.54 1276.99 1531.54 Q1282.56 1531.54 1285.59 1535.45 Q1288.61 1539.33 1288.61 1546.53 L1288.61 1568.04 L1282.72 1568.04 L1282.72 1546.72 Q1282.72 1541.59 1280.91 1539.11 Q1279.09 1536.63 1275.37 1536.63 Q1270.82 1536.63 1268.18 1539.65 Q1265.54 1542.68 1265.54 1547.9 L1265.54 1568.04 L1259.65 1568.04 L1259.65 1546.72 Q1259.65 1541.56 1257.83 1539.11 Q1256.02 1536.63 1252.23 1536.63 Q1247.74 1536.63 1245.1 1539.68 Q1242.46 1542.71 1242.46 1547.9 L1242.46 1568.04 L1236.57 1568.04 L1236.57 1532.4 L1242.46 1532.4 L1242.46 1537.93 Q1244.47 1534.66 1247.27 1533.1 Q1250.07 1531.54 1253.92 1531.54 Q1257.8 1531.54 1260.51 1533.51 Q1263.24 1535.48 1264.55 1539.24 Z" fill="#000000" fill-rule="nonzero" fill-opacity="1" /><path clip-path="url(#clip810)" d="M1330.78 1548.76 L1330.78 1551.62 L1303.86 1551.62 Q1304.24 1557.67 1307.49 1560.85 Q1310.76 1564 1316.59 1564 Q1319.96 1564 1323.11 1563.17 Q1326.3 1562.35 1329.42 1560.69 L1329.42 1566.23 Q1326.26 1567.57 1322.95 1568.27 Q1319.64 1568.97 1316.24 1568.97 Q1307.71 1568.97 1302.71 1564 Q1297.75 1559.04 1297.75 1550.57 Q1297.75 1541.82 1302.46 1536.69 Q1307.2 1531.54 1315.22 1531.54 Q1322.41 1531.54 1326.58 1536.18 Q1330.78 1540.8 1330.78 1548.76 M1324.93 1547.04 Q1324.86 1542.23 1322.22 1539.37 Q1319.61 1536.5 1315.28 1536.5 Q1310.38 1536.5 1307.42 1539.27 Q1304.49 1542.04 1304.05 1547.07 L1324.93 1547.04 Z" fill="#000000" fill-rule="nonzero" fill-opacity="1" /><path clip-path="url(#clip810)" d="M1360.58 1518.52 L1374.07 1518.52 L1374.07 1523.07 L1366.43 1523.07 L1366.43 1572.09 L1374.07 1572.09 L1374.07 1576.64 L1360.58 1576.64 L1360.58 1518.52 Z" fill="#000000" fill-rule="nonzero" fill-opacity="1" /><path clip-path="url(#clip810)" d="M1409.27 1533.45 L1409.27 1538.98 Q1406.79 1537.71 1404.12 1537.07 Q1401.44 1536.44 1398.58 1536.44 Q1394.22 1536.44 1392.02 1537.77 Q1389.86 1539.11 1389.86 1541.79 Q1389.86 1543.82 1391.42 1545 Q1392.98 1546.15 1397.69 1547.2 L1399.69 1547.64 Q1405.93 1548.98 1408.54 1551.43 Q1411.18 1553.85 1411.18 1558.21 Q1411.18 1563.17 1407.24 1566.07 Q1403.32 1568.97 1396.45 1568.97 Q1393.58 1568.97 1390.46 1568.39 Q1387.38 1567.85 1383.94 1566.74 L1383.94 1560.69 Q1387.18 1562.38 1390.34 1563.24 Q1393.49 1564.07 1396.57 1564.07 Q1400.71 1564.07 1402.94 1562.66 Q1405.17 1561.23 1405.17 1558.65 Q1405.17 1556.27 1403.54 1554.99 Q1401.95 1553.72 1396.51 1552.54 L1394.47 1552.07 Q1389.03 1550.92 1386.61 1548.56 Q1384.19 1546.18 1384.19 1542.04 Q1384.19 1537.01 1387.76 1534.27 Q1391.32 1531.54 1397.88 1531.54 Q1401.13 1531.54 1403.99 1532.01 Q1406.85 1532.49 1409.27 1533.45 Z" fill="#000000" fill-rule="nonzero" fill-opacity="1" /><path clip-path="url(#clip810)" d="M1434.2 1518.52 L1434.2 1576.64 L1420.7 1576.64 L1420.7 1572.09 L1428.31 1572.09 L1428.31 1523.07 L1420.7 1523.07 L1420.7 1518.52 L1434.2 1518.52 Z" fill="#000000" fill-rule="nonzero" fill-opacity="1" /><polyline clip-path="url(#clip810)" style="stroke:#000000; stroke-linecap:round; stroke-linejoin:round; stroke-width:4; stroke-opacity:1; fill:none" points="255.977,1423.18 255.977,47.2441 "/>
<polyline clip-path="url(#clip810)" style="stroke:#000000; stroke-linecap:round; stroke-linejoin:round; stroke-width:4; stroke-opacity:1; fill:none" points="255.977,1331.34 274.875,1331.34 "/>
<polyline clip-path="url(#clip810)" style="stroke:#000000; stroke-linecap:round; stroke-linejoin:round; stroke-width:4; stroke-opacity:1; fill:none" points="255.977,1039.53 274.875,1039.53 "/>
<polyline clip-path="url(#clip810)" style="stroke:#000000; stroke-linecap:round; stroke-linejoin:round; stroke-width:4; stroke-opacity:1; fill:none" points="255.977,747.707 274.875,747.707 "/>
<polyline clip-path="url(#clip810)" style="stroke:#000000; stroke-linecap:round; stroke-linejoin:round; stroke-width:4; stroke-opacity:1; fill:none" points="255.977,455.888 274.875,455.888 "/>
<polyline clip-path="url(#clip810)" style="stroke:#000000; stroke-linecap:round; stroke-linejoin:round; stroke-width:4; stroke-opacity:1; fill:none" points="255.977,164.07 274.875,164.07 "/>
<path clip-path="url(#clip810)" d="M114.631 1331.8 L144.306 1331.8 L144.306 1335.73 L114.631 1335.73 L114.631 1331.8 Z" fill="#000000" fill-rule="nonzero" fill-opacity="1" /><path clip-path="url(#clip810)" d="M164.399 1317.14 Q160.788 1317.14 158.959 1320.71 Q157.153 1324.25 157.153 1331.38 Q157.153 1338.49 158.959 1342.05 Q160.788 1345.59 164.399 1345.59 Q168.033 1345.59 169.839 1342.05 Q171.667 1338.49 171.667 1331.38 Q171.667 1324.25 169.839 1320.71 Q168.033 1317.14 164.399 1317.14 M164.399 1313.44 Q170.209 1313.44 173.264 1318.05 Q176.343 1322.63 176.343 1331.38 Q176.343 1340.11 173.264 1344.71 Q170.209 1349.3 164.399 1349.3 Q158.589 1349.3 155.51 1344.71 Q152.454 1340.11 152.454 1331.38 Q152.454 1322.63 155.51 1318.05 Q158.589 1313.44 164.399 1313.44 Z" fill="#000000" fill-rule="nonzero" fill-opacity="1" /><path clip-path="url(#clip810)" d="M184.561 1342.75 L189.445 1342.75 L189.445 1348.62 L184.561 1348.62 L184.561 1342.75 Z" fill="#000000" fill-rule="nonzero" fill-opacity="1" /><path clip-path="url(#clip810)" d="M203.658 1344.69 L219.977 1344.69 L219.977 1348.62 L198.033 1348.62 L198.033 1344.69 Q200.695 1341.93 205.278 1337.31 Q209.885 1332.65 211.065 1331.31 Q213.311 1328.79 214.19 1327.05 Q215.093 1325.29 215.093 1323.6 Q215.093 1320.85 213.149 1319.11 Q211.227 1317.37 208.125 1317.37 Q205.926 1317.37 203.473 1318.14 Q201.042 1318.9 198.264 1320.45 L198.264 1315.73 Q201.088 1314.6 203.542 1314.02 Q205.996 1313.44 208.033 1313.44 Q213.403 1313.44 216.598 1316.12 Q219.792 1318.81 219.792 1323.3 Q219.792 1325.43 218.982 1327.35 Q218.195 1329.25 216.088 1331.84 Q215.51 1332.51 212.408 1335.73 Q209.306 1338.93 203.658 1344.69 Z" fill="#000000" fill-rule="nonzero" fill-opacity="1" /><path clip-path="url(#clip810)" d="M114.26 1039.98 L143.936 1039.98 L143.936 1043.91 L114.26 1043.91 L114.26 1039.98 Z" fill="#000000" fill-rule="nonzero" fill-opacity="1" /><path clip-path="url(#clip810)" d="M164.028 1025.32 Q160.417 1025.32 158.589 1028.89 Q156.783 1032.43 156.783 1039.56 Q156.783 1046.67 158.589 1050.23 Q160.417 1053.77 164.028 1053.77 Q167.663 1053.77 169.468 1050.23 Q171.297 1046.67 171.297 1039.56 Q171.297 1032.43 169.468 1028.89 Q167.663 1025.32 164.028 1025.32 M164.028 1021.62 Q169.839 1021.62 172.894 1026.23 Q175.973 1030.81 175.973 1039.56 Q175.973 1048.29 172.894 1052.89 Q169.839 1057.48 164.028 1057.48 Q158.218 1057.48 155.14 1052.89 Q152.084 1048.29 152.084 1039.56 Q152.084 1030.81 155.14 1026.23 Q158.218 1021.62 164.028 1021.62 Z" fill="#000000" fill-rule="nonzero" fill-opacity="1" /><path clip-path="url(#clip810)" d="M184.19 1050.93 L189.075 1050.93 L189.075 1056.81 L184.19 1056.81 L184.19 1050.93 Z" fill="#000000" fill-rule="nonzero" fill-opacity="1" /><path clip-path="url(#clip810)" d="M200.07 1052.87 L207.709 1052.87 L207.709 1026.51 L199.399 1028.17 L199.399 1023.91 L207.662 1022.25 L212.338 1022.25 L212.338 1052.87 L219.977 1052.87 L219.977 1056.81 L200.07 1056.81 L200.07 1052.87 Z" fill="#000000" fill-rule="nonzero" fill-opacity="1" /><path clip-path="url(#clip810)" d="M162.802 733.506 Q159.19 733.506 157.362 737.071 Q155.556 740.612 155.556 747.742 Q155.556 754.848 157.362 758.413 Q159.19 761.955 162.802 761.955 Q166.436 761.955 168.241 758.413 Q170.07 754.848 170.07 747.742 Q170.07 740.612 168.241 737.071 Q166.436 733.506 162.802 733.506 M162.802 729.802 Q168.612 729.802 171.667 734.409 Q174.746 738.992 174.746 747.742 Q174.746 756.469 171.667 761.075 Q168.612 765.658 162.802 765.658 Q156.991 765.658 153.913 761.075 Q150.857 756.469 150.857 747.742 Q150.857 738.992 153.913 734.409 Q156.991 729.802 162.802 729.802 Z" fill="#000000" fill-rule="nonzero" fill-opacity="1" /><path clip-path="url(#clip810)" d="M182.963 759.108 L187.848 759.108 L187.848 764.987 L182.963 764.987 L182.963 759.108 Z" fill="#000000" fill-rule="nonzero" fill-opacity="1" /><path clip-path="url(#clip810)" d="M208.033 733.506 Q204.422 733.506 202.593 737.071 Q200.787 740.612 200.787 747.742 Q200.787 754.848 202.593 758.413 Q204.422 761.955 208.033 761.955 Q211.667 761.955 213.473 758.413 Q215.301 754.848 215.301 747.742 Q215.301 740.612 213.473 737.071 Q211.667 733.506 208.033 733.506 M208.033 729.802 Q213.843 729.802 216.898 734.409 Q219.977 738.992 219.977 747.742 Q219.977 756.469 216.898 761.075 Q213.843 765.658 208.033 765.658 Q202.223 765.658 199.144 761.075 Q196.088 756.469 196.088 747.742 Q196.088 738.992 199.144 734.409 Q202.223 729.802 208.033 729.802 Z" fill="#000000" fill-rule="nonzero" fill-opacity="1" /><path clip-path="url(#clip810)" d="M164.028 441.687 Q160.417 441.687 158.589 445.252 Q156.783 448.794 156.783 455.923 Q156.783 463.03 158.589 466.594 Q160.417 470.136 164.028 470.136 Q167.663 470.136 169.468 466.594 Q171.297 463.03 171.297 455.923 Q171.297 448.794 169.468 445.252 Q167.663 441.687 164.028 441.687 M164.028 437.984 Q169.839 437.984 172.894 442.59 Q175.973 447.173 175.973 455.923 Q175.973 464.65 172.894 469.256 Q169.839 473.84 164.028 473.84 Q158.218 473.84 155.14 469.256 Q152.084 464.65 152.084 455.923 Q152.084 447.173 155.14 442.59 Q158.218 437.984 164.028 437.984 Z" fill="#000000" fill-rule="nonzero" fill-opacity="1" /><path clip-path="url(#clip810)" d="M184.19 467.289 L189.075 467.289 L189.075 473.168 L184.19 473.168 L184.19 467.289 Z" fill="#000000" fill-rule="nonzero" fill-opacity="1" /><path clip-path="url(#clip810)" d="M200.07 469.233 L207.709 469.233 L207.709 442.868 L199.399 444.534 L199.399 440.275 L207.662 438.608 L212.338 438.608 L212.338 469.233 L219.977 469.233 L219.977 473.168 L200.07 473.168 L200.07 469.233 Z" fill="#000000" fill-rule="nonzero" fill-opacity="1" /><path clip-path="url(#clip810)" d="M164.399 149.868 Q160.788 149.868 158.959 153.433 Q157.153 156.975 157.153 164.105 Q157.153 171.211 158.959 174.776 Q160.788 178.317 164.399 178.317 Q168.033 178.317 169.839 174.776 Q171.667 171.211 171.667 164.105 Q171.667 156.975 169.839 153.433 Q168.033 149.868 164.399 149.868 M164.399 146.165 Q170.209 146.165 173.264 150.771 Q176.343 155.355 176.343 164.105 Q176.343 172.831 173.264 177.438 Q170.209 182.021 164.399 182.021 Q158.589 182.021 155.51 177.438 Q152.454 172.831 152.454 164.105 Q152.454 155.355 155.51 150.771 Q158.589 146.165 164.399 146.165 Z" fill="#000000" fill-rule="nonzero" fill-opacity="1" /><path clip-path="url(#clip810)" d="M184.561 175.47 L189.445 175.47 L189.445 181.35 L184.561 181.35 L184.561 175.47 Z" fill="#000000" fill-rule="nonzero" fill-opacity="1" /><path clip-path="url(#clip810)" d="M203.658 177.415 L219.977 177.415 L219.977 181.35 L198.033 181.35 L198.033 177.415 Q200.695 174.66 205.278 170.03 Q209.885 165.378 211.065 164.035 Q213.311 161.512 214.19 159.776 Q215.093 158.017 215.093 156.327 Q215.093 153.572 213.149 151.836 Q211.227 150.1 208.125 150.1 Q205.926 150.1 203.473 150.864 Q201.042 151.628 198.264 153.179 L198.264 148.456 Q201.088 147.322 203.542 146.743 Q205.996 146.165 208.033 146.165 Q213.403 146.165 216.598 148.85 Q219.792 151.535 219.792 156.026 Q219.792 158.155 218.982 160.077 Q218.195 161.975 216.088 164.567 Q215.51 165.239 212.408 168.456 Q209.306 171.651 203.658 177.415 Z" fill="#000000" fill-rule="nonzero" fill-opacity="1" /><path clip-path="url(#clip810)" d="M20.8447 823.791 Q20.8447 830.793 26.0645 834.931 Q31.2844 839.037 40.2919 839.037 Q49.2675 839.037 54.4874 834.931 Q59.7073 830.793 59.7073 823.791 Q59.7073 816.788 54.4874 812.714 Q49.2675 808.609 40.2919 808.609 Q31.2844 808.609 26.0645 812.714 Q20.8447 816.788 20.8447 823.791 M15.6248 823.791 Q15.6248 813.797 22.3406 807.813 Q29.0246 801.829 40.2919 801.829 Q51.5274 801.829 58.2432 807.813 Q64.9272 813.797 64.9272 823.791 Q64.9272 833.817 58.2432 839.832 Q51.5592 845.816 40.2919 845.816 Q29.0246 845.816 22.3406 839.832 Q15.6248 833.817 15.6248 823.791 Z" fill="#000000" fill-rule="nonzero" fill-opacity="1" /><path clip-path="url(#clip810)" d="M49.9359 792.631 L28.3562 792.631 L28.3562 786.774 L49.7131 786.774 Q54.7739 786.774 57.3202 784.801 Q59.8346 782.827 59.8346 778.881 Q59.8346 774.138 56.8109 771.401 Q53.7872 768.632 48.5673 768.632 L28.3562 768.632 L28.3562 762.775 L64.0042 762.775 L64.0042 768.632 L58.5296 768.632 Q61.7762 770.764 63.3676 773.597 Q64.9272 776.398 64.9272 780.122 Q64.9272 786.265 61.1078 789.448 Q57.2883 792.631 49.9359 792.631 M27.4968 777.894 L27.4968 777.894 Z" fill="#000000" fill-rule="nonzero" fill-opacity="1" /><path clip-path="url(#clip810)" d="M18.2347 744.92 L28.3562 744.92 L28.3562 732.857 L32.9077 732.857 L32.9077 744.92 L52.2594 744.92 Q56.6199 744.92 57.8613 743.742 Q59.1026 742.533 59.1026 738.872 L59.1026 732.857 L64.0042 732.857 L64.0042 738.872 Q64.0042 745.652 61.4897 748.23 Q58.9434 750.808 52.2594 750.808 L32.9077 750.808 L32.9077 755.105 L28.3562 755.105 L28.3562 750.808 L18.2347 750.808 L18.2347 744.92 Z" fill="#000000" fill-rule="nonzero" fill-opacity="1" /><path clip-path="url(#clip810)" d="M58.657 719.489 L77.5631 719.489 L77.5631 725.377 L28.3562 725.377 L28.3562 719.489 L33.7671 719.489 Q30.5842 717.643 29.0564 714.842 Q27.4968 712.009 27.4968 708.094 Q27.4968 701.601 32.6531 697.559 Q37.8093 693.485 46.212 693.485 Q54.6147 693.485 59.771 697.559 Q64.9272 701.601 64.9272 708.094 Q64.9272 712.009 63.3994 714.842 Q61.8398 717.643 58.657 719.489 M46.212 699.564 Q39.7508 699.564 36.0905 702.238 Q32.3984 704.879 32.3984 709.526 Q32.3984 714.173 36.0905 716.847 Q39.7508 719.489 46.212 719.489 Q52.6732 719.489 56.3653 716.847 Q60.0256 714.173 60.0256 709.526 Q60.0256 704.879 56.3653 702.238 Q52.6732 699.564 46.212 699.564 Z" fill="#000000" fill-rule="nonzero" fill-opacity="1" /><path clip-path="url(#clip810)" d="M49.9359 684.382 L28.3562 684.382 L28.3562 678.525 L49.7131 678.525 Q54.7739 678.525 57.3202 676.552 Q59.8346 674.579 59.8346 670.632 Q59.8346 665.889 56.8109 663.152 Q53.7872 660.383 48.5673 660.383 L28.3562 660.383 L28.3562 654.527 L64.0042 654.527 L64.0042 660.383 L58.5296 660.383 Q61.7762 662.516 63.3676 665.348 Q64.9272 668.149 64.9272 671.873 Q64.9272 678.016 61.1078 681.199 Q57.2883 684.382 49.9359 684.382 M27.4968 669.645 L27.4968 669.645 Z" fill="#000000" fill-rule="nonzero" fill-opacity="1" /><path clip-path="url(#clip810)" d="M18.2347 636.671 L28.3562 636.671 L28.3562 624.608 L32.9077 624.608 L32.9077 636.671 L52.2594 636.671 Q56.6199 636.671 57.8613 635.493 Q59.1026 634.284 59.1026 630.623 L59.1026 624.608 L64.0042 624.608 L64.0042 630.623 Q64.0042 637.403 61.4897 639.981 Q58.9434 642.559 52.2594 642.559 L32.9077 642.559 L32.9077 646.856 L28.3562 646.856 L28.3562 642.559 L18.2347 642.559 L18.2347 636.671 Z" fill="#000000" fill-rule="nonzero" fill-opacity="1" /><polyline clip-path="url(#clip812)" style="stroke:#009af9; stroke-linecap:round; stroke-linejoin:round; stroke-width:4; stroke-opacity:1; fill:none" points="315.32,747.707 319.284,747.707 323.248,747.707 323.248,776.552 327.212,776.552 327.212,804.547 331.176,804.547 331.176,831.446 335.141,831.446 335.141,857.031 339.105,857.031 339.105,881.111 343.069,881.111 343.069,845.839 347.033,845.839 347.033,810.481 350.997,810.481 350.997,775.441 354.961,775.441 354.961,741.109 358.925,741.109 358.925,707.851 362.889,707.851 362.889,676.005 366.853,676.005 366.853,645.873 370.818,645.873 370.818,617.719 374.782,617.719 374.782,591.761 378.746,591.761 378.746,568.171 382.71,568.171 382.71,604.762 386.674,604.762 386.674,642.217 390.638,642.217 390.638,680.069 394.602,680.069 394.602,717.853 398.566,717.853 398.566,755.117 402.53,755.117 402.53,733.737 406.495,733.737 406.495,712.701 410.459,712.701 410.459,692.131 414.423,692.131 414.423,672.141 418.387,672.141 418.387,652.833 422.351,652.833 422.351,634.295 426.315,634.295 426.315,616.599 430.279,616.599 430.279,599.803 434.243,599.803 434.243,583.947 438.208,583.947 438.208,569.053 442.172,569.053 442.172,612.817 446.136,612.817 446.136,655.84 450.1,655.84 450.1,697.605 454.064,697.605 454.064,737.629 458.028,737.629 458.028,775.478 461.992,775.478 461.992,753.079 465.956,753.079 465.956,729.498 469.92,729.498 469.92,704.965 473.885,704.965 473.885,679.724 477.849,679.724 477.849,654.03 481.813,654.03 481.813,685.831 485.777,685.831 485.777,715.996 489.741,715.996 489.741,744.284 493.705,744.284 493.705,770.496 497.669,770.496 497.669,794.476 501.633,794.476 501.633,758.424 505.597,758.424 505.597,721.667 509.562,721.667 509.562,684.676 513.526,684.676 513.526,647.921 517.49,647.921 517.49,611.851 521.454,611.851 521.454,634.584 525.418,634.584 525.418,657.126 529.382,657.126 529.382,679.342 533.346,679.342 533.346,701.105 537.31,701.105 537.31,722.297 541.275,722.297 541.275,685.122 545.239,685.122 545.239,648.878 549.203,648.878 549.203,613.977 553.167,613.977 553.167,580.798 557.131,580.798 557.131,549.676 561.095,549.676 561.095,520.898 565.059,520.898 565.059,494.701 569.023,494.701 569.023,471.266 572.987,471.266 572.987,450.715 576.952,450.715 576.952,433.115 580.916,433.115 580.916,418.473 584.88,418.473 584.88,406.742 588.844,406.742 588.844,397.821 592.808,397.821 592.808,391.559 596.772,391.559 596.772,387.76 600.736,387.76 600.736,386.187 604.7,386.187 604.7,386.569 608.664,386.569 608.664,388.607 612.629,388.607 612.629,391.98 616.593,391.98 616.593,396.353 620.557,396.353 620.557,459.074 624.521,459.074 624.521,520.411 628.485,520.411 628.485,579.534 632.449,579.534 632.449,635.682 636.413,635.682 636.413,688.168 640.377,688.168 640.377,736.395 644.341,736.395 644.341,779.864 648.306,779.864 648.306,818.183 652.27,818.183 652.27,851.067 656.234,851.067 656.234,878.346 660.198,878.346 660.198,842.269 664.162,842.269 664.162,802.277 668.126,802.277 668.126,759.017 672.09,759.017 672.09,713.185 676.054,713.185 676.054,665.508 680.019,665.508 680.019,616.733 683.983,616.733 683.983,567.607 687.947,567.607 687.947,518.863 691.911,518.863 691.911,471.211 695.875,471.211 695.875,425.317 699.839,425.317 699.839,381.798 703.803,381.798 703.803,341.206 707.767,341.206 707.767,304.024 711.731,304.024 711.731,270.654 715.696,270.654 715.696,241.414 719.66,241.414 719.66,274.223 723.624,274.223 723.624,309.831 727.588,309.831 727.588,347.796 731.552,347.796 731.552,387.64 735.516,387.64 735.516,428.856 739.48,428.856 739.48,470.925 743.444,470.925 743.444,513.32 747.408,513.32 747.408,555.523 751.373,555.523 751.373,597.03 755.337,597.03 755.337,637.362 759.301,637.362 759.301,676.076 763.265,676.076 763.265,712.769 767.229,712.769 767.229,747.088 771.193,747.088 771.193,778.733 775.157,778.733 775.157,807.463 779.121,807.463 779.121,833.098 783.085,833.098 783.085,855.521 787.05,855.521 787.05,874.68 791.014,874.68 791.014,890.584 794.978,890.584 794.978,903.305 798.942,903.305 798.942,855.281 802.906,855.281 802.906,806.084 806.87,806.084 806.87,756.434 810.834,756.434 810.834,707.045 814.798,707.045 814.798,658.603 818.763,658.603 818.763,669.451 822.727,669.451 822.727,680.804 826.691,680.804 826.691,692.718 830.655,692.718 830.655,705.23 834.619,705.23 834.619,718.364 838.583,718.364 838.583,732.127 842.547,732.127 842.547,746.511 846.511,746.511 846.511,761.494 850.475,761.494 850.475,777.037 854.44,777.037 854.44,793.093 858.404,793.093 858.404,751.91 862.368,751.91 862.368,712.807 866.332,712.807 866.332,676.197 870.296,676.197 870.296,642.434 874.26,642.434 874.26,611.809 878.224,611.809 878.224,642.235 882.188,642.235 882.188,674.476 886.152,674.476 886.152,708.123 890.117,708.123 890.117,742.751 894.081,742.751 894.081,777.922 898.045,777.922 898.045,755.51 902.009,755.51 902.009,734.475 905.973,734.475 905.973,714.896 909.937,714.896 909.937,696.824 913.901,696.824 913.901,680.281 917.865,680.281 917.865,665.262 921.829,665.262 921.829,651.735 925.794,651.735 925.794,639.641 929.758,639.641 929.758,628.9 933.722,628.9 933.722,619.408 937.686,619.408 937.686,611.043 941.65,611.043 941.65,603.668 945.614,603.668 945.614,597.133 949.578,597.133 949.578,591.276 953.542,591.276 953.542,585.934 957.507,585.934 957.507,638.626 961.471,638.626 961.471,689.796 965.435,689.796 965.435,738.789 969.399,738.789 969.399,785.01 973.363,785.01 973.363,827.932 977.327,827.932 977.327,809.415 981.291,809.415 981.291,788.485 985.255,788.485 985.255,765.354 989.219,765.354 989.219,740.279 993.184,740.279 993.184,713.546 997.148,713.546 997.148,685.471 1001.11,685.471 1001.11,656.387 1005.08,656.387 1005.08,626.641 1009.04,626.641 1009.04,596.586 1013,596.586 1013,566.572 1016.97,566.572 1016.97,536.94 1020.93,536.94 1020.93,508.017 1024.9,508.017 1024.9,480.108 1028.86,480.108 1028.86,453.492 1032.82,453.492 1032.82,428.416 1036.79,428.416 1036.79,462.782 1040.75,462.782 1040.75,497.375 1044.72,497.375 1044.72,531.837 1048.68,531.837 1048.68,565.819 1052.65,565.819 1052.65,598.991 1056.61,598.991 1056.61,573.352 1060.57,573.352 1060.57,548.011 1064.54,548.011 1064.54,523.211 1068.5,523.211 1068.5,499.179 1072.47,499.179 1072.47,476.122 1076.43,476.122 1076.43,454.226 1080.39,454.226 1080.39,433.651 1084.36,433.651 1084.36,414.526 1088.32,414.526 1088.32,396.954 1092.29,396.954 1092.29,381.003 1096.25,381.003 1096.25,424.4 1100.21,424.4 1100.21,467.764 1104.18,467.764 1104.18,510.579 1108.14,510.579 1108.14,552.352 1112.11,552.352 1112.11,592.622 1116.07,592.622 1116.07,630.968 1120.04,630.968 1120.04,667.015 1124,667.015 1124,700.443 1127.96,700.443 1127.96,730.988 1131.93,730.988 1131.93,758.449 1135.89,758.449 1135.89,724.996 1139.86,724.996 1139.86,689.946 1143.82,689.946 1143.82,653.78 1147.78,653.78 1147.78,616.988 1151.75,616.988 1151.75,580.064 1155.71,580.064 1155.71,543.488 1159.68,543.488 1159.68,507.725 1163.64,507.725 1163.64,473.212 1167.6,473.212 1167.6,440.35 1171.57,440.35 1171.57,409.498 1175.53,409.498 1175.53,380.968 1179.5,380.968 1179.5,355.019 1183.46,355.019 1183.46,331.855 1187.43,331.855 1187.43,311.619 1191.39,311.619 1191.39,294.397 1195.35,294.397 1195.35,337.904 1199.32,337.904 1199.32,382.717 1203.28,382.717 1203.28,428.257 1207.25,428.257 1207.25,473.944 1211.21,473.944 1211.21,519.207 1215.17,519.207 1215.17,505.809 1219.14,505.809 1219.14,492.624 1223.1,492.624 1223.1,479.667 1227.07,479.667 1227.07,466.953 1231.03,466.953 1231.03,454.493 1234.99,454.493 1234.99,499.984 1238.96,499.984 1238.96,544.043 1242.92,544.043 1242.92,586.181 1246.89,586.181 1246.89,625.957 1250.85,625.957 1250.85,662.986 1254.82,662.986 1254.82,696.947 1258.78,696.947 1258.78,727.584 1262.74,727.584 1262.74,754.712 1266.71,754.712 1266.71,778.215 1270.67,778.215 1270.67,798.051 1274.64,798.051 1274.64,756.558 1278.6,756.558 1278.6,713.219 1282.56,713.219 1282.56,668.686 1286.53,668.686 1286.53,623.615 1290.49,623.615 1290.49,578.656 1294.46,578.656 1294.46,592.132 1298.42,592.132 1298.42,605.254 1302.38,605.254 1302.38,618.09 1306.35,618.09 1306.35,630.709 1310.31,630.709 1310.31,643.178 1314.28,643.178 1314.28,597.873 1318.24,597.873 1318.24,554.246 1322.21,554.246 1322.21,512.844 1326.17,512.844 1326.17,474.161 1330.13,474.161 1330.13,438.621 1334.1,438.621 1334.1,464.268 1338.06,464.268 1338.06,491.991 1342.03,491.991 1342.03,521.496 1345.99,521.496 1345.99,552.461 1349.95,552.461 1349.95,584.539 1353.92,584.539 1353.92,559.68 1357.88,559.68 1357.88,536.907 1361.85,536.907 1361.85,516.343 1365.81,516.343 1365.81,498.067 1369.77,498.067 1369.77,482.115 1373.74,482.115 1373.74,468.478 1377.7,468.478 1377.7,457.102 1381.67,457.102 1381.67,447.896 1385.63,447.896 1385.63,440.73 1389.6,440.73 1389.6,435.439 1393.56,435.439 1393.56,489.52 1397.52,489.52 1397.52,543.366 1401.49,543.366 1401.49,596.247 1405.45,596.247 1405.45,647.47 1409.42,647.47 1409.42,696.394 1413.38,696.394 1413.38,684.748 1417.34,684.748 1417.34,671.409 1421.31,671.409 1421.31,656.437 1425.27,656.437 1425.27,639.924 1429.24,639.924 1429.24,621.993 1433.2,621.993 1433.2,602.793 1437.16,602.793 1437.16,582.496 1441.13,582.496 1441.13,561.293 1445.09,561.293 1445.09,539.389 1449.06,539.389 1449.06,517.001 1453.02,517.001 1453.02,552.038 1456.98,552.038 1456.98,585.334 1460.95,585.334 1460.95,616.617 1464.91,616.617 1464.91,645.658 1468.88,645.658 1468.88,672.277 1472.84,672.277 1472.84,638.653 1476.81,638.653 1476.81,604.095 1480.77,604.095 1480.77,569.066 1484.73,569.066 1484.73,534.026 1488.7,534.026 1488.7,499.424 1492.66,499.424 1492.66,465.69 1496.63,465.69 1496.63,433.226 1500.59,433.226 1500.59,402.401 1504.55,402.401 1504.55,373.541 1508.52,373.541 1508.52,346.928 1512.48,346.928 1512.48,380.482 1516.45,380.482 1516.45,414.992 1520.41,414.992 1520.41,450.088 1524.37,450.088 1524.37,485.398 1528.34,485.398 1528.34,520.552 1532.3,520.552 1532.3,555.192 1536.27,555.192 1536.27,588.976 1540.23,588.976 1540.23,621.586 1544.2,621.586 1544.2,652.734 1548.16,652.734 1548.16,682.167 1552.12,682.167 1552.12,651.977 1556.09,651.977 1556.09,621.38 1560.05,621.38 1560.05,590.735 1564.02,590.735 1564.02,560.396 1567.98,560.396 1567.98,530.7 1571.94,530.7 1571.94,559.655 1575.91,559.655 1575.91,588.167 1579.87,588.167 1579.87,616.006 1583.84,616.006 1583.84,642.958 1587.8,642.958 1587.8,668.833 1591.76,668.833 1591.76,693.461 1595.73,693.461 1595.73,716.702 1599.69,716.702 1599.69,738.441 1603.66,738.441 1603.66,758.595 1607.62,758.595 1607.62,777.112 1611.59,777.112 1611.59,793.969 1615.55,793.969 1615.55,809.175 1619.51,809.175 1619.51,822.767 1623.48,822.767 1623.48,834.81 1627.44,834.81 1627.44,845.397 1631.41,845.397 1631.41,854.642 1635.37,854.642 1635.37,862.678 1639.33,862.678 1639.33,869.657 1643.3,869.657 1643.3,875.745 1647.26,875.745 1647.26,881.117 1651.23,881.117 1651.23,885.953 1655.19,885.953 1655.19,890.439 1659.15,890.439 1659.15,894.757 1663.12,894.757 1663.12,899.084 1667.08,899.084 1667.08,903.591 1671.05,903.591 1671.05,908.436 1675.01,908.436 1675.01,913.765 1678.98,913.765 1678.98,919.707 1682.94,919.707 1682.94,926.372 1686.9,926.372 1686.9,933.85 1690.87,933.85 1690.87,884.522 1694.83,884.522 1694.83,837.823 1698.8,837.823 1698.8,794.271 1702.76,794.271 1702.76,754.309 1706.72,754.309 1706.72,718.298 1710.69,718.298 1710.69,744.206 1714.65,744.206 1714.65,772.832 1718.62,772.832 1718.62,803.785 1722.58,803.785 1722.58,836.636 1726.54,836.636 1726.54,870.93 1730.51,870.93 1730.51,848.503 1734.47,848.503 1734.47,828.265 1738.44,828.265 1738.44,810.228 1742.4,810.228 1742.4,794.365 1746.37,794.365 1746.37,780.609 1750.33,780.609 1750.33,768.858 1754.29,768.858 1754.29,758.975 1758.26,758.975 1758.26,750.795 1762.22,750.795 1762.22,744.126 1766.19,744.126 1766.19,738.757 1770.15,738.757 1770.15,734.459 1774.11,734.459 1774.11,730.991 1778.08,730.991 1778.08,728.107 1782.04,728.107 1782.04,725.561 1786.01,725.561 1786.01,723.107 1789.97,723.107 1789.97,720.509 1793.93,720.509 1793.93,717.545 1797.9,717.545 1797.9,714.008 1801.86,714.008 1801.86,709.711 1805.83,709.711 1805.83,704.491 1809.79,704.491 1809.79,698.21 1813.76,698.21 1813.76,690.757 1817.72,690.757 1817.72,682.053 1821.68,682.053 1821.68,672.044 1825.65,672.044 1825.65,660.71 1829.61,660.71 1829.61,648.058 1833.58,648.058 1833.58,634.124 1837.54,634.124 1837.54,618.969 1841.5,618.969 1841.5,602.682 1845.47,602.682 1845.47,585.371 1849.43,585.371 1849.43,567.164 1853.4,567.164 1853.4,548.207 1857.36,548.207 1857.36,528.658 1861.32,528.658 1861.32,508.682 1865.29,508.682 1865.29,488.454 1869.25,488.454 1869.25,525.837 1873.22,525.837 1873.22,561.616 1877.18,561.616 1877.18,595.469 1881.15,595.469 1881.15,627.118 1885.11,627.118 1885.11,656.332 1889.07,656.332 1889.07,682.933 1893.04,682.933 1893.04,706.795 1897,706.795 1897,727.849 1900.97,727.849 1900.97,746.077 1904.93,746.077 1904.93,761.516 1908.89,761.516 1908.89,716.563 1912.86,716.563 1912.86,670.742 1916.82,670.742 1916.82,624.722 1920.79,624.722 1920.79,579.159 1924.75,579.159 1924.75,534.684 1928.71,534.684 1928.71,549.577 1932.68,549.577 1932.68,564.996 1936.64,564.996 1936.64,580.936 1940.61,580.936 1940.61,597.379 1944.57,597.379 1944.57,614.297 1948.54,614.297 1948.54,631.648 1952.5,631.648 1952.5,649.379 1956.46,649.379 1956.46,667.431 1960.43,667.431 1960.43,685.735 1964.39,685.735 1964.39,704.218 1968.36,704.218 1968.36,722.8 1972.32,722.8 1972.32,741.402 1976.28,741.402 1976.28,759.94 1980.25,759.94 1980.25,778.336 1984.21,778.336 1984.21,796.51 1988.18,796.51 1988.18,756.698 1992.14,756.698 1992.14,718.22 1996.1,718.22 1996.1,681.504 2000.07,681.504 2000.07,646.934 2004.03,646.934 2004.03,614.844 2008,614.844 2008,585.512 2011.96,585.512 2011.96,559.154 2015.93,559.154 2015.93,535.928 2019.89,535.928 2019.89,515.925 2023.85,515.925 2023.85,499.173 2027.82,499.173 2027.82,543.33 2031.78,543.33 2031.78,588.913 2035.75,588.913 2035.75,635.282 2039.71,635.282 2039.71,681.798 2043.67,681.798 2043.67,727.832 2047.64,727.832 2047.64,772.785 2051.6,772.785 2051.6,816.089 2055.57,816.089 2055.57,857.226 2059.53,857.226 2059.53,895.732 2063.49,895.732 2063.49,931.205 2067.46,931.205 2067.46,963.313 2071.42,963.313 2071.42,991.796 2075.39,991.796 2075.39,1016.47 2079.35,1016.47 2079.35,1037.23 2083.32,1037.23 2083.32,1054.05 2087.28,1054.05 2087.28,1066.98 2091.24,1066.98 2091.24,1076.13 2095.21,1076.13 2095.21,1081.7 2099.17,1081.7 2099.17,1083.93 2103.14,1083.93 2103.14,1083.14 2107.1,1083.14 2107.1,1079.67 2111.06,1079.67 2111.06,1073.92 2115.03,1073.92 2115.03,1066.32 2118.99,1066.32 2118.99,1057.3 2122.96,1057.3 2122.96,1047.34 2126.92,1047.34 2126.92,1036.89 2130.88,1036.89 2130.88,1026.4 2134.85,1026.4 2134.85,1016.32 2138.81,1016.32 2138.81,1007.06 2142.78,1007.06 2142.78,999.01 2146.74,999.01 2146.74,992.513 2150.7,992.513 2150.7,987.877 2154.67,987.877 2154.67,985.359 2158.63,985.359 2158.63,985.164 2162.6,985.164 2162.6,987.445 2166.56,987.445 2166.56,992.298 2170.53,992.298 2170.53,999.764 2174.49,999.764 2174.49,1009.83 2178.45,1009.83 2178.45,1022.43 2182.42,1022.43 2182.42,1037.44 2186.38,1037.44 2186.38,997.018 2190.35,997.018 2190.35,960.344 2194.31,960.344 2194.31,927.669 2198.27,927.669 2198.27,899.163 2202.24,899.163 2202.24,874.908 2206.2,874.908 2206.2,912.598 2210.17,912.598 2210.17,952.765 2214.13,952.765 2214.13,994.763 2218.09,994.763 2218.09,1037.93 2222.06,1037.93 2222.06,1081.59 2226.02,1081.59 2226.02,1067.4 2229.99,1067.4 2229.99,1054.1 2233.95,1054.1 2233.95,1041.57 2237.92,1041.57 2237.92,1029.69 2241.88,1029.69 2241.88,1018.33 2245.84,1018.33 2245.84,1065.04 2249.81,1065.04 2249.81,1110.3 2253.77,1110.3 2253.77,1153.49 2257.74,1153.49 2257.74,1194.03 2261.7,1194.03 2261.7,1231.44 2265.66,1231.44 2265.66,1265.28 2269.63,1265.28 2269.63,1295.21 2273.59,1295.21 2273.59,1320.97 2277.56,1320.97 2277.56,1342.38 2281.52,1342.38 2281.52,1359.37 2285.48,1359.37 2285.48,1371.94 2289.45,1371.94 2289.45,1380.17 2293.41,1380.17 2293.41,1384.24 "/>
<polyline clip-path="url(#clip812)" style="stroke:#e26f46; stroke-linecap:round; stroke-linejoin:round; stroke-width:4; stroke-opacity:1; fill:none" points="315.32,748.312 319.284,723.32 323.248,758.979 327.212,794.764 331.176,829.157 335.141,862.085 339.105,893.342 343.069,865.044 347.033,836.011 350.997,807.727 354.961,780.273 358.925,753.693 362.889,728.026 366.853,703.306 370.818,679.564 374.782,656.827 378.746,635.289 382.71,672.827 386.674,710.613 390.638,747.159 394.602,782.382 398.566,816.062 402.53,790.304 406.495,763.917 410.459,738.373 414.423,713.742 418.387,690.057 422.351,667.344 426.315,645.629 430.279,624.932 434.243,605.269 438.208,586.826 442.172,627.469 446.136,668.362 450.1,708.008 454.064,746.315 458.028,783.057 461.992,760.329 465.956,736.936 469.92,714.34 473.885,692.605 477.849,671.932 481.813,710.198 485.777,748.58 489.741,785.593 493.705,821.157 497.669,855.059 501.633,829.405 505.597,803.01 509.562,777.35 513.526,752.5 517.49,728.669 521.454,763.746 525.418,798.918 529.382,832.711 533.346,865.052 537.31,895.738 541.275,866.884 545.239,837.313 549.203,808.509 553.167,780.553 557.131,753.491 561.095,727.361 565.059,702.198 569.023,678.035 572.987,654.897 576.952,632.807 580.916,611.786 584.88,591.849 588.844,573.007 592.808,555.269 596.772,538.64 600.736,523.122 604.7,508.714 608.664,495.411 612.629,483.206 616.593,472.26 620.557,520.42 624.521,568.825 628.485,615.96 632.449,661.711 636.413,706.006 640.377,748.781 644.341,789.977 648.306,829.545 652.27,867.439 656.234,903.448 660.198,879.685 664.162,854.967 668.126,830.772 672.09,807.181 676.054,784.235 680.019,761.972 683.983,740.427 687.947,719.63 691.911,699.61 695.875,680.39 699.839,661.992 703.803,644.435 707.767,627.732 711.731,611.897 715.696,597.11 719.66,641.236 723.624,685.434 727.588,728.207 731.552,769.459 735.516,809.137 739.48,847.193 743.444,883.587 747.408,918.284 751.373,951.256 755.337,982.481 759.301,1011.94 763.265,1039.63 767.229,1065.53 771.193,1089.65 775.157,1112 779.121,1132.57 783.085,1151.39 787.05,1168.48 791.014,1183.85 794.978,1197.35 798.942,1151.17 802.906,1104.18 806.87,1057.91 810.834,1012.49 814.798,968.198 818.763,982.965 822.727,998.029 826.691,1011.97 830.655,1024.75 834.619,1036.38 838.583,1046.88 842.547,1056.27 846.511,1064.56 850.475,1071.77 854.44,1077.76 858.404,1024.69 862.368,971.433 866.332,919.515 870.296,869.061 874.26,820.323 878.224,831.235 882.188,843.019 886.152,854.234 890.117,864.838 894.081,874.654 898.045,825.822 902.009,777.183 905.973,730.238 909.937,685.081 913.901,641.768 917.865,600.345 921.829,560.851 925.794,523.319 929.758,487.774 933.722,454.234 937.686,422.714 941.65,393.22 945.614,365.752 949.578,340.306 953.542,317.043 957.507,353.806 961.471,391.73 965.435,429.292 969.399,466.369 973.363,502.705 977.327,480.363 981.291,458.115 985.255,437.39 989.219,418.219 993.184,400.594 997.148,384.501 1001.11,369.925 1005.08,356.844 1009.04,345.236 1013,335.073 1016.97,326.328 1020.93,318.966 1024.9,312.953 1028.86,308.252 1032.82,304.996 1036.79,361.002 1040.75,417.381 1044.72,472.591 1048.68,526.491 1052.65,578.814 1056.61,571.61 1060.57,563.644 1064.54,556.339 1068.5,549.724 1072.47,543.789 1076.43,538.525 1080.39,533.919 1084.36,529.956 1088.32,526.624 1092.29,524.077 1096.25,580.157 1100.21,636.002 1104.18,690.093 1108.14,742.318 1112.11,792.606 1116.07,840.894 1120.04,887.13 1124,931.267 1127.96,973.266 1131.93,1012.92 1135.89,992.361 1139.86,970.403 1143.82,948.54 1147.78,926.861 1151.75,905.42 1155.71,884.266 1159.68,863.448 1163.64,843.008 1167.6,822.989 1171.57,803.43 1175.53,784.365 1179.5,765.828 1183.46,747.85 1187.43,730.457 1191.39,713.847 1195.35,755.899 1199.32,797.789 1203.28,838.034 1207.25,876.556 1211.21,913.144 1215.17,889.909 1219.14,865.669 1223.1,841.904 1227.07,818.695 1231.03,796.256 1234.99,832.484 1238.96,868.57 1242.92,903.047 1246.89,935.851 1250.85,966.956 1254.82,996.346 1258.78,1024.01 1262.74,1049.93 1266.71,1074.11 1270.67,1096.39 1274.64,1058.9 1278.6,1020.51 1282.56,982.735 1286.53,945.682 1290.49,909.6 1294.46,932.415 1298.42,955.346 1302.38,976.954 1306.35,997.197 1310.31,1015.9 1314.28,975.211 1318.24,933.976 1322.21,893.706 1326.17,854.506 1330.13,816.614 1334.1,837.95 1338.06,859.722 1342.03,880.482 1345.99,900.177 1349.95,918.624 1353.92,877.957 1357.88,837.013 1361.85,797.29 1365.81,758.882 1369.77,721.844 1373.74,686.225 1377.7,652.065 1381.67,619.402 1385.63,588.265 1389.6,558.853 1393.56,589.042 1397.52,620.004 1401.49,650.25 1405.45,679.691 1409.42,708.105 1413.38,677.589 1417.34,646.947 1421.31,617.64 1425.27,589.731 1429.24,563.241 1433.2,538.187 1437.16,514.582 1441.13,492.432 1445.09,471.741 1449.06,452.68 1453.02,493.102 1456.98,534.154 1460.95,574.325 1464.91,613.505 1468.88,651.453 1472.84,630.247 1476.81,608.675 1480.77,588.183 1484.73,568.818 1488.7,550.589 1492.66,533.502 1496.63,517.558 1500.59,502.757 1504.55,489.092 1508.52,476.73 1512.48,523.516 1516.45,570.594 1520.41,616.45 1524.37,660.972 1528.34,704.089 1532.3,745.738 1536.27,785.863 1540.23,824.412 1544.2,861.342 1548.16,896.444 1552.12,871.828 1556.09,846.312 1560.05,821.376 1564.02,797.1 1567.98,773.695 1571.94,809.059 1575.91,844.379 1579.87,878.189 1583.84,910.421 1587.8,941.047 1591.76,970.048 1595.73,997.408 1599.69,1023.12 1603.66,1047.17 1607.62,1069.56 1611.59,1090.31 1615.55,1109.4 1619.51,1126.87 1623.48,1142.72 1627.44,1156.97 1631.41,1169.66 1635.37,1180.8 1639.33,1190.43 1643.3,1198.59 1647.26,1205.3 1651.23,1210.6 1655.19,1214.55 1659.15,1217.18 1663.12,1218.53 1667.08,1218.66 1671.05,1217.61 1675.01,1215.43 1678.98,1212.18 1682.94,1207.9 1686.9,1202.48 1690.87,1138.11 1694.83,1073.68 1698.8,1010.77 1702.76,949.496 1706.72,890.153 1710.69,890.689 1714.65,892.345 1718.62,893.701 1722.58,894.73 1726.54,895.27 1730.51,837.474 1734.47,780.198 1738.44,724.951 1742.4,671.838 1746.37,620.924 1750.33,572.259 1754.29,525.891 1758.26,481.855 1762.22,440.18 1766.19,400.888 1770.15,363.992 1774.11,329.498 1778.08,297.407 1782.04,267.711 1786.01,240.396 1789.97,215.445 1793.93,192.83 1797.9,172.523 1801.86,154.486 1805.83,138.68 1809.79,125.058 1813.76,113.572 1817.72,104.168 1821.68,96.7894 1825.65,91.3755 1829.61,87.863 1833.58,86.1857 1837.54,86.2751 1841.5,88.0605 1845.47,91.4693 1849.43,96.4274 1853.4,102.859 1857.36,110.688 1861.32,119.837 1865.29,130.399 1869.25,200.154 1873.22,270.18 1877.18,338.9 1881.15,406.142 1885.11,471.778 1889.07,535.691 1893.04,597.772 1897,657.923 1900.97,716.054 1904.93,771.913 1908.89,767.571 1912.86,761.81 1916.82,756.074 1920.79,750.411 1924.75,745.009 1928.71,797.735 1932.68,849.757 1936.64,899.587 1940.61,947.141 1944.57,992.378 1948.54,1035.26 1952.5,1075.77 1956.46,1113.89 1960.43,1149.61 1964.39,1182.91 1968.36,1213.82 1972.32,1242.34 1976.28,1268.48 1980.25,1292.26 1984.21,1313.55 1988.18,1274.52 1992.14,1234.05 1996.1,1193.68 2000.07,1153.56 2004.03,1113.78 2008,1074.45 2011.96,1035.65 2015.93,997.469 2019.89,959.989 2023.85,923.457 2027.82,945.802 2031.78,968.246 2035.75,989.349 2039.71,1009.07 2043.67,1027.42 2047.64,1044.39 2051.6,1059.99 2055.57,1074.24 2059.53,1087.15 2063.49,1098.73 2067.46,1109.01 2071.42,1118.01 2075.39,1125.76 2079.35,1132.29 2083.32,1137.62 2087.28,1141.79 2091.24,1144.83 2095.21,1146.79 2099.17,1147.69 2103.14,1147.58 2107.1,1146.5 2111.06,1144.49 2115.03,1141.59 2118.99,1137.85 2122.96,1133.31 2126.92,1128.02 2130.88,1122.01 2134.85,1115.34 2138.81,1108.05 2142.78,1100.19 2146.74,1091.79 2150.7,1082.9 2154.67,1073.58 2158.63,1063.85 2162.6,1053.77 2166.56,1043.38 2170.53,1032.71 2174.49,1021.81 2178.45,1010.72 2182.42,999.298 2186.38,929.732 2190.35,860.899 2194.31,794.334 2198.27,730.163 2202.24,668.64 2206.2,667.697 2210.17,668.55 2214.13,669.754 2218.09,671.257 2222.06,672.871 2226.02,616.721 2229.99,561.636 2233.95,509.098 2237.92,459.184 2241.88,412.1 2245.84,425.729 2249.81,441.244 2253.77,457.153 2257.74,473.363 2261.7,489.817 2265.66,506.459 2269.63,523.236 2273.59,540.096 2277.56,556.99 2281.52,573.868 2285.48,590.685 2289.45,607.397 2293.41,623.961 "/>
<polyline clip-path="url(#clip812)" style="stroke:#3da44d; stroke-linecap:round; stroke-linejoin:round; stroke-width:4; stroke-opacity:1; fill:none" points="315.32,747.707 319.284,747.707 323.248,776.552 327.212,804.547 331.176,831.446 335.141,857.031 339.105,881.111 343.069,845.839 347.033,810.481 350.997,775.441 354.961,741.109 358.925,707.851 362.889,676.005 366.853,645.873 370.818,617.719 374.782,591.761 378.746,568.171 382.71,604.762 386.674,642.217 390.638,680.069 394.602,717.853 398.566,755.117 402.53,733.737 406.495,712.701 410.459,692.131 414.423,672.141 418.387,652.833 422.351,634.295 426.315,616.599 430.279,599.803 434.243,583.947 438.208,569.053 442.172,612.817 446.136,655.84 450.1,697.605 454.064,737.629 458.028,775.478 461.992,753.079 465.956,729.498 469.92,704.965 473.885,679.724 477.849,654.03 481.813,685.831 485.777,715.996 489.741,744.284 493.705,770.496 497.669,794.476 501.633,758.424 505.597,721.667 509.562,684.676 513.526,647.921 517.49,611.851 521.454,634.584 525.418,657.126 529.382,679.342 533.346,701.105 537.31,722.297 541.275,685.122 545.239,648.878 549.203,613.977 553.167,580.798 557.131,549.676 561.095,520.898 565.059,494.701 569.023,471.266 572.987,450.715 576.952,433.115 580.916,418.473 584.88,406.742 588.844,397.821 592.808,391.559 596.772,387.76 600.736,386.187 604.7,386.569 608.664,388.607 612.629,391.98 616.593,396.353 620.557,459.074 624.521,520.411 628.485,579.534 632.449,635.682 636.413,688.168 640.377,736.395 644.341,779.864 648.306,818.183 652.27,851.067 656.234,878.346 660.198,842.269 664.162,802.277 668.126,759.017 672.09,713.185 676.054,665.508 680.019,616.733 683.983,567.607 687.947,518.863 691.911,471.211 695.875,425.317 699.839,381.798 703.803,341.206 707.767,304.024 711.731,270.654 715.696,241.414 719.66,274.223 723.624,309.831 727.588,347.796 731.552,387.64 735.516,428.856 739.48,470.925 743.444,513.32 747.408,555.523 751.373,597.03 755.337,637.362 759.301,676.076 763.265,712.769 767.229,747.088 771.193,778.733 775.157,807.463 779.121,833.098 783.085,855.521 787.05,874.68 791.014,890.584 794.978,903.305 798.942,855.281 802.906,806.084 806.87,756.434 810.834,707.045 814.798,658.603 818.763,669.451 822.727,680.804 826.691,692.718 830.655,705.23 834.619,718.364 838.583,732.127 842.547,746.511 846.511,761.494 850.475,777.037 854.44,793.093 858.404,751.91 862.368,712.807 866.332,676.197 870.296,642.434 874.26,611.809 878.224,642.235 882.188,674.476 886.152,708.123 890.117,742.751 894.081,777.922 898.045,755.51 902.009,734.475 905.973,714.896 909.937,696.824 913.901,680.281 917.865,665.262 921.829,651.735 925.794,639.641 929.758,628.9 933.722,619.408 937.686,611.043 941.65,603.668 945.614,597.133 949.578,591.276 953.542,585.934 957.507,638.626 961.471,689.796 965.435,738.789 969.399,785.01 973.363,827.932 977.327,809.415 981.291,788.485 985.255,765.354 989.219,740.279 993.184,713.546 997.148,685.471 1001.11,656.387 1005.08,626.641 1009.04,596.586 1013,566.572 1016.97,536.94 1020.93,508.017 1024.9,480.108 1028.86,453.492 1032.82,428.416 1036.79,462.782 1040.75,497.375 1044.72,531.837 1048.68,565.819 1052.65,598.991 1056.61,573.352 1060.57,548.011 1064.54,523.211 1068.5,499.179 1072.47,476.122 1076.43,454.226 1080.39,433.651 1084.36,414.526 1088.32,396.954 1092.29,381.003 1096.25,424.4 1100.21,467.764 1104.18,510.579 1108.14,552.352 1112.11,592.622 1116.07,630.968 1120.04,667.015 1124,700.443 1127.96,730.988 1131.93,758.449 1135.89,724.996 1139.86,689.946 1143.82,653.78 1147.78,616.988 1151.75,580.064 1155.71,543.488 1159.68,507.725 1163.64,473.212 1167.6,440.35 1171.57,409.498 1175.53,380.968 1179.5,355.019 1183.46,331.855 1187.43,311.619 1191.39,294.397 1195.35,337.904 1199.32,382.717 1203.28,428.257 1207.25,473.944 1211.21,519.207 1215.17,505.809 1219.14,492.624 1223.1,479.667 1227.07,466.953 1231.03,454.493 1234.99,499.984 1238.96,544.043 1242.92,586.181 1246.89,625.957 1250.85,662.986 1254.82,696.947 1258.78,727.584 1262.74,754.712 1266.71,778.215 1270.67,798.051 1274.64,756.558 1278.6,713.219 1282.56,668.686 1286.53,623.615 1290.49,578.656 1294.46,592.132 1298.42,605.254 1302.38,618.09 1306.35,630.709 1310.31,643.178 1314.28,597.873 1318.24,554.246 1322.21,512.844 1326.17,474.161 1330.13,438.621 1334.1,464.268 1338.06,491.991 1342.03,521.496 1345.99,552.461 1349.95,584.539 1353.92,559.68 1357.88,536.907 1361.85,516.343 1365.81,498.067 1369.77,482.115 1373.74,468.478 1377.7,457.102 1381.67,447.896 1385.63,440.73 1389.6,435.439 1393.56,489.52 1397.52,543.366 1401.49,596.247 1405.45,647.47 1409.42,696.394 1413.38,684.748 1417.34,671.409 1421.31,656.437 1425.27,639.924 1429.24,621.993 1433.2,602.793 1437.16,582.496 1441.13,561.293 1445.09,539.389 1449.06,517.001 1453.02,552.038 1456.98,585.334 1460.95,616.617 1464.91,645.658 1468.88,672.277 1472.84,638.653 1476.81,604.095 1480.77,569.066 1484.73,534.026 1488.7,499.424 1492.66,465.69 1496.63,433.226 1500.59,402.401 1504.55,373.541 1508.52,346.928 1512.48,380.482 1516.45,414.992 1520.41,450.088 1524.37,485.398 1528.34,520.552 1532.3,555.192 1536.27,588.976 1540.23,621.586 1544.2,652.734 1548.16,682.167 1552.12,651.977 1556.09,621.38 1560.05,590.735 1564.02,560.396 1567.98,530.7 1571.94,559.655 1575.91,588.167 1579.87,616.006 1583.84,642.958 1587.8,668.833 1591.76,693.461 1595.73,716.702 1599.69,738.441 1603.66,758.595 1607.62,777.112 1611.59,793.969 1615.55,809.175 1619.51,822.767 1623.48,834.81 1627.44,845.397 1631.41,854.642 1635.37,862.678 1639.33,869.657 1643.3,875.745 1647.26,881.117 1651.23,885.953 1655.19,890.439 1659.15,894.757 1663.12,899.084 1667.08,903.591 1671.05,908.436 1675.01,913.765 1678.98,919.707 1682.94,926.372 1686.9,933.85 1690.87,884.522 1694.83,837.823 1698.8,794.271 1702.76,754.309 1706.72,718.298 1710.69,744.206 1714.65,772.832 1718.62,803.785 1722.58,836.636 1726.54,870.93 1730.51,848.503 1734.47,828.265 1738.44,810.228 1742.4,794.365 1746.37,780.609 1750.33,768.858 1754.29,758.975 1758.26,750.795 1762.22,744.126 1766.19,738.757 1770.15,734.459 1774.11,730.991 1778.08,728.107 1782.04,725.561 1786.01,723.107 1789.97,720.509 1793.93,717.545 1797.9,714.008 1801.86,709.711 1805.83,704.491 1809.79,698.21 1813.76,690.757 1817.72,682.053 1821.68,672.044 1825.65,660.71 1829.61,648.058 1833.58,634.124 1837.54,618.969 1841.5,602.682 1845.47,585.371 1849.43,567.164 1853.4,548.207 1857.36,528.658 1861.32,508.682 1865.29,488.454 1869.25,525.837 1873.22,561.616 1877.18,595.469 1881.15,627.118 1885.11,656.332 1889.07,682.933 1893.04,706.795 1897,727.849 1900.97,746.077 1904.93,761.516 1908.89,716.563 1912.86,670.742 1916.82,624.722 1920.79,579.159 1924.75,534.684 1928.71,549.577 1932.68,564.996 1936.64,580.936 1940.61,597.379 1944.57,614.297 1948.54,631.648 1952.5,649.379 1956.46,667.431 1960.43,685.735 1964.39,704.218 1968.36,722.8 1972.32,741.402 1976.28,759.94 1980.25,778.336 1984.21,796.51 1988.18,756.698 1992.14,718.22 1996.1,681.504 2000.07,646.934 2004.03,614.844 2008,585.512 2011.96,559.154 2015.93,535.928 2019.89,515.925 2023.85,499.173 2027.82,543.33 2031.78,588.913 2035.75,635.282 2039.71,681.798 2043.67,727.832 2047.64,772.785 2051.6,816.089 2055.57,857.226 2059.53,895.732 2063.49,931.205 2067.46,963.313 2071.42,991.796 2075.39,1016.47 2079.35,1037.23 2083.32,1054.05 2087.28,1066.98 2091.24,1076.13 2095.21,1081.7 2099.17,1083.93 2103.14,1083.14 2107.1,1079.67 2111.06,1073.92 2115.03,1066.32 2118.99,1057.3 2122.96,1047.34 2126.92,1036.89 2130.88,1026.4 2134.85,1016.32 2138.81,1007.06 2142.78,999.01 2146.74,992.513 2150.7,987.877 2154.67,985.359 2158.63,985.164 2162.6,987.445 2166.56,992.298 2170.53,999.764 2174.49,1009.83 2178.45,1022.43 2182.42,1037.44 2186.38,997.018 2190.35,960.344 2194.31,927.669 2198.27,899.163 2202.24,874.908 2206.2,912.598 2210.17,952.765 2214.13,994.763 2218.09,1037.93 2222.06,1081.59 2226.02,1067.4 2229.99,1054.1 2233.95,1041.57 2237.92,1029.69 2241.88,1018.33 2245.84,1065.04 2249.81,1110.3 2253.77,1153.49 2257.74,1194.03 2261.7,1231.44 2265.66,1265.28 2269.63,1295.21 2273.59,1320.97 2277.56,1342.38 2281.52,1359.37 2285.48,1371.94 2289.45,1380.17 2293.41,1384.24 "/>
<path clip-path="url(#clip810)" d="M325.87 1377.32 L1442.86 1377.32 L1442.86 1169.96 L325.87 1169.96  Z" fill="#ffffff" fill-rule="evenodd" fill-opacity="1"/>
<polyline clip-path="url(#clip810)" style="stroke:#000000; stroke-linecap:round; stroke-linejoin:round; stroke-width:4; stroke-opacity:1; fill:none" points="325.87,1377.32 1442.86,1377.32 1442.86,1169.96 325.87,1169.96 325.87,1377.32 "/>
<polyline clip-path="url(#clip810)" style="stroke:#009af9; stroke-linecap:round; stroke-linejoin:round; stroke-width:4; stroke-opacity:1; fill:none" points="349.167,1221.8 488.953,1221.8 "/>
<path clip-path="url(#clip810)" d="M516.926 1208.36 L516.926 1235.23 L522.574 1235.23 Q529.727 1235.23 533.037 1231.99 Q536.37 1228.75 536.37 1221.76 Q536.37 1214.82 533.037 1211.6 Q529.727 1208.36 522.574 1208.36 L516.926 1208.36 M512.25 1204.52 L521.857 1204.52 Q531.903 1204.52 536.602 1208.71 Q541.301 1212.87 541.301 1221.76 Q541.301 1230.7 536.579 1234.89 Q531.857 1239.08 521.857 1239.08 L512.25 1239.08 L512.25 1204.52 Z" fill="#000000" fill-rule="nonzero" fill-opacity="1" /><path clip-path="url(#clip810)" d="M560.352 1226.04 Q555.19 1226.04 553.199 1227.22 Q551.208 1228.4 551.208 1231.25 Q551.208 1233.52 552.69 1234.86 Q554.194 1236.18 556.764 1236.18 Q560.305 1236.18 562.435 1233.68 Q564.588 1231.16 564.588 1226.99 L564.588 1226.04 L560.352 1226.04 M568.847 1224.28 L568.847 1239.08 L564.588 1239.08 L564.588 1235.14 Q563.129 1237.5 560.954 1238.64 Q558.778 1239.75 555.63 1239.75 Q551.648 1239.75 549.287 1237.52 Q546.949 1235.28 546.949 1231.53 Q546.949 1227.15 549.866 1224.93 Q552.805 1222.71 558.616 1222.71 L564.588 1222.71 L564.588 1222.29 Q564.588 1219.35 562.643 1217.76 Q560.722 1216.14 557.227 1216.14 Q555.005 1216.14 552.898 1216.67 Q550.792 1217.2 548.847 1218.27 L548.847 1214.33 Q551.185 1213.43 553.384 1212.99 Q555.583 1212.52 557.667 1212.52 Q563.292 1212.52 566.069 1215.44 Q568.847 1218.36 568.847 1224.28 Z" fill="#000000" fill-rule="nonzero" fill-opacity="1" /><path clip-path="url(#clip810)" d="M581.833 1205.79 L581.833 1213.15 L590.606 1213.15 L590.606 1216.46 L581.833 1216.46 L581.833 1230.53 Q581.833 1233.7 582.69 1234.61 Q583.569 1235.51 586.231 1235.51 L590.606 1235.51 L590.606 1239.08 L586.231 1239.08 Q581.301 1239.08 579.426 1237.25 Q577.551 1235.39 577.551 1230.53 L577.551 1216.46 L574.426 1216.46 L574.426 1213.15 L577.551 1213.15 L577.551 1205.79 L581.833 1205.79 Z" fill="#000000" fill-rule="nonzero" fill-opacity="1" /><path clip-path="url(#clip810)" d="M607.99 1226.04 Q602.828 1226.04 600.838 1227.22 Q598.847 1228.4 598.847 1231.25 Q598.847 1233.52 600.328 1234.86 Q601.833 1236.18 604.402 1236.18 Q607.944 1236.18 610.074 1233.68 Q612.226 1231.16 612.226 1226.99 L612.226 1226.04 L607.99 1226.04 M616.486 1224.28 L616.486 1239.08 L612.226 1239.08 L612.226 1235.14 Q610.768 1237.5 608.592 1238.64 Q606.416 1239.75 603.268 1239.75 Q599.287 1239.75 596.926 1237.52 Q594.588 1235.28 594.588 1231.53 Q594.588 1227.15 597.504 1224.93 Q600.444 1222.71 606.254 1222.71 L612.226 1222.71 L612.226 1222.29 Q612.226 1219.35 610.282 1217.76 Q608.361 1216.14 604.865 1216.14 Q602.643 1216.14 600.537 1216.67 Q598.43 1217.2 596.486 1218.27 L596.486 1214.33 Q598.824 1213.43 601.023 1212.99 Q603.222 1212.52 605.305 1212.52 Q610.93 1212.52 613.708 1215.44 Q616.486 1218.36 616.486 1224.28 Z" fill="#000000" fill-rule="nonzero" fill-opacity="1" /><polyline clip-path="url(#clip810)" style="stroke:#e26f46; stroke-linecap:round; stroke-linejoin:round; stroke-width:4; stroke-opacity:1; fill:none" points="349.167,1273.64 488.953,1273.64 "/>
<path clip-path="url(#clip810)" d="M528.083 1260.96 L521.741 1278.16 L534.449 1278.16 L528.083 1260.96 M525.445 1256.36 L530.745 1256.36 L543.917 1290.92 L539.056 1290.92 L535.907 1282.05 L520.329 1282.05 L517.181 1290.92 L512.25 1290.92 L525.445 1256.36 Z" fill="#000000" fill-rule="nonzero" fill-opacity="1" /><path clip-path="url(#clip810)" d="M565.352 1274.71 Q566.856 1275.22 568.268 1276.89 Q569.704 1278.55 571.139 1281.47 L575.884 1290.92 L570.861 1290.92 L566.44 1282.05 Q564.727 1278.58 563.106 1277.44 Q561.509 1276.31 558.731 1276.31 L553.639 1276.31 L553.639 1290.92 L548.963 1290.92 L548.963 1256.36 L559.518 1256.36 Q565.444 1256.36 568.361 1258.83 Q571.278 1261.31 571.278 1266.31 Q571.278 1269.57 569.75 1271.73 Q568.245 1273.88 565.352 1274.71 M553.639 1260.2 L553.639 1272.47 L559.518 1272.47 Q562.898 1272.47 564.611 1270.92 Q566.347 1269.34 566.347 1266.31 Q566.347 1263.28 564.611 1261.75 Q562.898 1260.2 559.518 1260.2 L553.639 1260.2 Z" fill="#000000" fill-rule="nonzero" fill-opacity="1" /><path clip-path="url(#clip810)" d="M580.236 1256.36 L585.259 1256.36 L593.847 1269.2 L602.481 1256.36 L607.504 1256.36 L596.393 1272.95 L608.245 1290.92 L603.222 1290.92 L593.5 1276.22 L583.708 1290.92 L578.662 1290.92 L591 1272.47 L580.236 1256.36 Z" fill="#000000" fill-rule="nonzero" fill-opacity="1" /><path clip-path="url(#clip810)" d="M649.448 1269.97 Q651.046 1267.1 653.268 1265.73 Q655.49 1264.36 658.499 1264.36 Q662.55 1264.36 664.749 1267.21 Q666.948 1270.04 666.948 1275.27 L666.948 1290.92 L662.666 1290.92 L662.666 1275.41 Q662.666 1271.68 661.347 1269.87 Q660.027 1268.07 657.319 1268.07 Q654.009 1268.07 652.087 1270.27 Q650.166 1272.47 650.166 1276.26 L650.166 1290.92 L645.884 1290.92 L645.884 1275.41 Q645.884 1271.66 644.564 1269.87 Q643.245 1268.07 640.49 1268.07 Q637.226 1268.07 635.305 1270.29 Q633.384 1272.49 633.384 1276.26 L633.384 1290.92 L629.101 1290.92 L629.101 1264.99 L633.384 1264.99 L633.384 1269.02 Q634.842 1266.63 636.879 1265.5 Q638.916 1264.36 641.717 1264.36 Q644.541 1264.36 646.509 1265.8 Q648.499 1267.23 649.448 1269.97 Z" fill="#000000" fill-rule="nonzero" fill-opacity="1" /><path clip-path="url(#clip810)" d="M685.49 1267.98 Q682.064 1267.98 680.073 1270.66 Q678.083 1273.32 678.083 1277.98 Q678.083 1282.63 680.05 1285.31 Q682.041 1287.98 685.49 1287.98 Q688.893 1287.98 690.883 1285.29 Q692.874 1282.61 692.874 1277.98 Q692.874 1273.37 690.883 1270.68 Q688.893 1267.98 685.49 1267.98 M685.49 1264.36 Q691.045 1264.36 694.217 1267.98 Q697.388 1271.59 697.388 1277.98 Q697.388 1284.34 694.217 1287.98 Q691.045 1291.59 685.49 1291.59 Q679.911 1291.59 676.74 1287.98 Q673.592 1284.34 673.592 1277.98 Q673.592 1271.59 676.74 1267.98 Q679.911 1264.36 685.49 1264.36 Z" fill="#000000" fill-rule="nonzero" fill-opacity="1" /><path clip-path="url(#clip810)" d="M721.508 1268.92 L721.508 1254.9 L725.768 1254.9 L725.768 1290.92 L721.508 1290.92 L721.508 1287.03 Q720.166 1289.34 718.106 1290.48 Q716.068 1291.59 713.198 1291.59 Q708.499 1291.59 705.536 1287.84 Q702.596 1284.09 702.596 1277.98 Q702.596 1271.86 705.536 1268.11 Q708.499 1264.36 713.198 1264.36 Q716.068 1264.36 718.106 1265.5 Q720.166 1266.61 721.508 1268.92 M706.994 1277.98 Q706.994 1282.67 708.916 1285.36 Q710.86 1288.02 714.24 1288.02 Q717.619 1288.02 719.564 1285.36 Q721.508 1282.67 721.508 1277.98 Q721.508 1273.28 719.564 1270.61 Q717.619 1267.93 714.24 1267.93 Q710.86 1267.93 708.916 1270.61 Q706.994 1273.28 706.994 1277.98 Z" fill="#000000" fill-rule="nonzero" fill-opacity="1" /><path clip-path="url(#clip810)" d="M756.716 1276.89 L756.716 1278.97 L737.133 1278.97 Q737.411 1283.37 739.772 1285.68 Q742.156 1287.98 746.392 1287.98 Q748.846 1287.98 751.138 1287.37 Q753.453 1286.77 755.721 1285.57 L755.721 1289.6 Q753.429 1290.57 751.022 1291.08 Q748.615 1291.59 746.138 1291.59 Q739.934 1291.59 736.3 1287.98 Q732.689 1284.36 732.689 1278.21 Q732.689 1271.84 736.115 1268.11 Q739.564 1264.36 745.397 1264.36 Q750.628 1264.36 753.661 1267.74 Q756.716 1271.1 756.716 1276.89 M752.457 1275.64 Q752.411 1272.14 750.49 1270.06 Q748.591 1267.98 745.443 1267.98 Q741.879 1267.98 739.726 1269.99 Q737.596 1272 737.272 1275.66 L752.457 1275.64 Z" fill="#000000" fill-rule="nonzero" fill-opacity="1" /><path clip-path="url(#clip810)" d="M763.707 1254.9 L767.966 1254.9 L767.966 1290.92 L763.707 1290.92 L763.707 1254.9 Z" fill="#000000" fill-rule="nonzero" fill-opacity="1" /><path clip-path="url(#clip810)" d="M808.475 1265.75 L808.475 1269.78 Q806.67 1268.86 804.725 1268.39 Q802.781 1267.93 800.698 1267.93 Q797.526 1267.93 795.929 1268.9 Q794.355 1269.87 794.355 1271.82 Q794.355 1273.3 795.489 1274.16 Q796.624 1274.99 800.05 1275.75 L801.508 1276.08 Q806.045 1277.05 807.943 1278.83 Q809.864 1280.59 809.864 1283.76 Q809.864 1287.37 806.994 1289.48 Q804.147 1291.59 799.147 1291.59 Q797.063 1291.59 794.795 1291.17 Q792.55 1290.78 790.05 1289.97 L790.05 1285.57 Q792.411 1286.79 794.702 1287.42 Q796.994 1288.02 799.239 1288.02 Q802.249 1288.02 803.869 1287 Q805.489 1285.96 805.489 1284.09 Q805.489 1282.35 804.309 1281.42 Q803.151 1280.5 799.193 1279.64 L797.712 1279.3 Q793.753 1278.46 791.994 1276.75 Q790.235 1275.01 790.235 1272 Q790.235 1268.35 792.827 1266.36 Q795.42 1264.36 800.188 1264.36 Q802.55 1264.36 804.633 1264.71 Q806.716 1265.06 808.475 1265.75 Z" fill="#000000" fill-rule="nonzero" fill-opacity="1" /><path clip-path="url(#clip810)" d="M816.647 1264.99 L820.906 1264.99 L820.906 1290.92 L816.647 1290.92 L816.647 1264.99 M816.647 1254.9 L820.906 1254.9 L820.906 1260.29 L816.647 1260.29 L816.647 1254.9 Z" fill="#000000" fill-rule="nonzero" fill-opacity="1" /><path clip-path="url(#clip810)" d="M850.003 1269.97 Q851.6 1267.1 853.822 1265.73 Q856.045 1264.36 859.054 1264.36 Q863.105 1264.36 865.304 1267.21 Q867.503 1270.04 867.503 1275.27 L867.503 1290.92 L863.22 1290.92 L863.22 1275.41 Q863.22 1271.68 861.901 1269.87 Q860.582 1268.07 857.873 1268.07 Q854.563 1268.07 852.642 1270.27 Q850.721 1272.47 850.721 1276.26 L850.721 1290.92 L846.438 1290.92 L846.438 1275.41 Q846.438 1271.66 845.119 1269.87 Q843.799 1268.07 841.045 1268.07 Q837.781 1268.07 835.86 1270.29 Q833.938 1272.49 833.938 1276.26 L833.938 1290.92 L829.656 1290.92 L829.656 1264.99 L833.938 1264.99 L833.938 1269.02 Q835.397 1266.63 837.434 1265.5 Q839.471 1264.36 842.272 1264.36 Q845.096 1264.36 847.063 1265.8 Q849.054 1267.23 850.003 1269.97 Z" fill="#000000" fill-rule="nonzero" fill-opacity="1" /><path clip-path="url(#clip810)" d="M904.192 1254.9 L904.192 1258.44 L900.118 1258.44 Q897.827 1258.44 896.924 1259.36 Q896.044 1260.29 896.044 1262.7 L896.044 1264.99 L903.058 1264.99 L903.058 1268.3 L896.044 1268.3 L896.044 1290.92 L891.762 1290.92 L891.762 1268.3 L887.688 1268.3 L887.688 1264.99 L891.762 1264.99 L891.762 1263.18 Q891.762 1258.86 893.776 1256.89 Q895.79 1254.9 900.165 1254.9 L904.192 1254.9 Z" fill="#000000" fill-rule="nonzero" fill-opacity="1" /><path clip-path="url(#clip810)" d="M907.757 1264.99 L912.017 1264.99 L912.017 1290.92 L907.757 1290.92 L907.757 1264.99 M907.757 1254.9 L912.017 1254.9 L912.017 1260.29 L907.757 1260.29 L907.757 1254.9 Z" fill="#000000" fill-rule="nonzero" fill-opacity="1" /><path clip-path="url(#clip810)" d="M925.141 1257.63 L925.141 1264.99 L933.915 1264.99 L933.915 1268.3 L925.141 1268.3 L925.141 1282.37 Q925.141 1285.54 925.998 1286.45 Q926.878 1287.35 929.54 1287.35 L933.915 1287.35 L933.915 1290.92 L929.54 1290.92 Q924.609 1290.92 922.734 1289.09 Q920.859 1287.23 920.859 1282.37 L920.859 1268.3 L917.734 1268.3 L917.734 1264.99 L920.859 1264.99 L920.859 1257.63 L925.141 1257.63 Z" fill="#000000" fill-rule="nonzero" fill-opacity="1" /><path clip-path="url(#clip810)" d="M970.743 1285.04 L975.627 1285.04 L975.627 1290.92 L970.743 1290.92 L970.743 1285.04 M970.743 1266.4 L975.627 1266.4 L975.627 1272.28 L970.743 1272.28 L970.743 1266.4 Z" fill="#000000" fill-rule="nonzero" fill-opacity="1" /><path clip-path="url(#clip810)" d="M983.474 1276.03 L995.951 1276.03 L995.951 1279.83 L983.474 1279.83 L983.474 1276.03 Z" fill="#000000" fill-rule="nonzero" fill-opacity="1" /><path clip-path="url(#clip810)" d="M1016.18 1260.43 L1004.38 1278.88 L1016.18 1278.88 L1016.18 1260.43 M1014.96 1256.36 L1020.84 1256.36 L1020.84 1278.88 L1025.77 1278.88 L1025.77 1282.77 L1020.84 1282.77 L1020.84 1290.92 L1016.18 1290.92 L1016.18 1282.77 L1000.58 1282.77 L1000.58 1278.25 L1014.96 1256.36 Z" fill="#000000" fill-rule="nonzero" fill-opacity="1" /><path clip-path="url(#clip810)" d="M1032.32 1256.36 L1054.54 1256.36 L1054.54 1258.35 L1041.99 1290.92 L1037.11 1290.92 L1048.91 1260.29 L1032.32 1260.29 L1032.32 1256.36 Z" fill="#000000" fill-rule="nonzero" fill-opacity="1" /><path clip-path="url(#clip810)" d="M1063.66 1285.04 L1068.54 1285.04 L1068.54 1290.92 L1063.66 1290.92 L1063.66 1285.04 Z" fill="#000000" fill-rule="nonzero" fill-opacity="1" /><path clip-path="url(#clip810)" d="M1088.73 1259.43 Q1085.12 1259.43 1083.29 1263 Q1081.48 1266.54 1081.48 1273.67 Q1081.48 1280.78 1083.29 1284.34 Q1085.12 1287.88 1088.73 1287.88 Q1092.36 1287.88 1094.17 1284.34 Q1096 1280.78 1096 1273.67 Q1096 1266.54 1094.17 1263 Q1092.36 1259.43 1088.73 1259.43 M1088.73 1255.73 Q1094.54 1255.73 1097.59 1260.34 Q1100.67 1264.92 1100.67 1273.67 Q1100.67 1282.4 1097.59 1287 Q1094.54 1291.59 1088.73 1291.59 Q1082.92 1291.59 1079.84 1287 Q1076.78 1282.4 1076.78 1273.67 Q1076.78 1264.92 1079.84 1260.34 Q1082.92 1255.73 1088.73 1255.73 Z" fill="#000000" fill-rule="nonzero" fill-opacity="1" /><path clip-path="url(#clip810)" d="M1119.47 1271.77 Q1116.32 1271.77 1114.47 1273.92 Q1112.64 1276.08 1112.64 1279.83 Q1112.64 1283.55 1114.47 1285.73 Q1116.32 1287.88 1119.47 1287.88 Q1122.62 1287.88 1124.45 1285.73 Q1126.3 1283.55 1126.3 1279.83 Q1126.3 1276.08 1124.45 1273.92 Q1122.62 1271.77 1119.47 1271.77 M1128.75 1257.12 L1128.75 1261.38 Q1126.99 1260.55 1125.19 1260.11 Q1123.4 1259.67 1121.65 1259.67 Q1117.02 1259.67 1114.56 1262.79 Q1112.13 1265.92 1111.78 1272.23 Q1113.15 1270.22 1115.21 1269.16 Q1117.27 1268.07 1119.75 1268.07 Q1124.96 1268.07 1127.96 1271.24 Q1131 1274.39 1131 1279.83 Q1131 1285.15 1127.85 1288.37 Q1124.7 1291.59 1119.47 1291.59 Q1113.47 1291.59 1110.3 1287 Q1107.13 1282.4 1107.13 1273.67 Q1107.13 1265.48 1111.02 1260.61 Q1114.91 1255.73 1121.46 1255.73 Q1123.22 1255.73 1125 1256.08 Q1126.81 1256.42 1128.75 1257.12 Z" fill="#000000" fill-rule="nonzero" fill-opacity="1" /><path clip-path="url(#clip810)" d="M1168.45 1275.71 Q1166.44 1275.71 1165.28 1277.42 Q1164.14 1279.13 1164.14 1282.19 Q1164.14 1285.2 1165.28 1286.93 Q1166.44 1288.65 1168.45 1288.65 Q1170.42 1288.65 1171.55 1286.93 Q1172.71 1285.2 1172.71 1282.19 Q1172.71 1279.16 1171.55 1277.44 Q1170.42 1275.71 1168.45 1275.71 M1168.45 1272.77 Q1172.11 1272.77 1174.26 1275.31 Q1176.41 1277.86 1176.41 1282.19 Q1176.41 1286.52 1174.24 1289.06 Q1172.08 1291.59 1168.45 1291.59 Q1164.75 1291.59 1162.59 1289.06 Q1160.44 1286.52 1160.44 1282.19 Q1160.44 1277.84 1162.59 1275.31 Q1164.77 1272.77 1168.45 1272.77 M1144.56 1258.67 Q1142.57 1258.67 1141.41 1260.41 Q1140.28 1262.12 1140.28 1265.13 Q1140.28 1268.18 1141.41 1269.9 Q1142.55 1271.61 1144.56 1271.61 Q1146.58 1271.61 1147.71 1269.9 Q1148.87 1268.18 1148.87 1265.13 Q1148.87 1262.14 1147.71 1260.41 Q1146.55 1258.67 1144.56 1258.67 M1165.46 1255.73 L1169.17 1255.73 L1147.55 1291.59 L1143.84 1291.59 L1165.46 1255.73 M1144.56 1255.73 Q1148.22 1255.73 1150.39 1258.28 Q1152.57 1260.8 1152.57 1265.13 Q1152.57 1269.5 1150.39 1272.03 Q1148.24 1274.55 1144.56 1274.55 Q1140.88 1274.55 1138.73 1272.03 Q1136.6 1269.48 1136.6 1265.13 Q1136.6 1260.82 1138.75 1258.28 Q1140.9 1255.73 1144.56 1255.73 Z" fill="#000000" fill-rule="nonzero" fill-opacity="1" /><polyline clip-path="url(#clip810)" style="stroke:#3da44d; stroke-linecap:round; stroke-linejoin:round; stroke-width:4; stroke-opacity:1; fill:none" points="349.167,1325.48 488.953,1325.48 "/>
<path clip-path="url(#clip810)" d="M528.083 1312.8 L521.741 1330 L534.449 1330 L528.083 1312.8 M525.445 1308.2 L530.745 1308.2 L543.917 1342.76 L539.056 1342.76 L535.907 1333.89 L520.329 1333.89 L517.181 1342.76 L512.25 1342.76 L525.445 1308.2 Z" fill="#000000" fill-rule="nonzero" fill-opacity="1" /><path clip-path="url(#clip810)" d="M565.352 1326.55 Q566.856 1327.06 568.268 1328.73 Q569.704 1330.39 571.139 1333.31 L575.884 1342.76 L570.861 1342.76 L566.44 1333.89 Q564.727 1330.42 563.106 1329.28 Q561.509 1328.15 558.731 1328.15 L553.639 1328.15 L553.639 1342.76 L548.963 1342.76 L548.963 1308.2 L559.518 1308.2 Q565.444 1308.2 568.361 1310.67 Q571.278 1313.15 571.278 1318.15 Q571.278 1321.41 569.75 1323.57 Q568.245 1325.72 565.352 1326.55 M553.639 1312.04 L553.639 1324.31 L559.518 1324.31 Q562.898 1324.31 564.611 1322.76 Q566.347 1321.18 566.347 1318.15 Q566.347 1315.12 564.611 1313.59 Q562.898 1312.04 559.518 1312.04 L553.639 1312.04 Z" fill="#000000" fill-rule="nonzero" fill-opacity="1" /><path clip-path="url(#clip810)" d="M580.236 1308.2 L585.259 1308.2 L593.847 1321.04 L602.481 1308.2 L607.504 1308.2 L596.393 1324.79 L608.245 1342.76 L603.222 1342.76 L593.5 1328.06 L583.708 1342.76 L578.662 1342.76 L591 1324.31 L580.236 1308.2 Z" fill="#000000" fill-rule="nonzero" fill-opacity="1" /><path clip-path="url(#clip810)" d="M649.448 1321.81 Q651.046 1318.94 653.268 1317.57 Q655.49 1316.2 658.499 1316.2 Q662.55 1316.2 664.749 1319.05 Q666.948 1321.88 666.948 1327.11 L666.948 1342.76 L662.666 1342.76 L662.666 1327.25 Q662.666 1323.52 661.347 1321.71 Q660.027 1319.91 657.319 1319.91 Q654.009 1319.91 652.087 1322.11 Q650.166 1324.31 650.166 1328.1 L650.166 1342.76 L645.884 1342.76 L645.884 1327.25 Q645.884 1323.5 644.564 1321.71 Q643.245 1319.91 640.49 1319.91 Q637.226 1319.91 635.305 1322.13 Q633.384 1324.33 633.384 1328.1 L633.384 1342.76 L629.101 1342.76 L629.101 1316.83 L633.384 1316.83 L633.384 1320.86 Q634.842 1318.47 636.879 1317.34 Q638.916 1316.2 641.717 1316.2 Q644.541 1316.2 646.509 1317.64 Q648.499 1319.07 649.448 1321.81 Z" fill="#000000" fill-rule="nonzero" fill-opacity="1" /><path clip-path="url(#clip810)" d="M685.49 1319.82 Q682.064 1319.82 680.073 1322.5 Q678.083 1325.16 678.083 1329.82 Q678.083 1334.47 680.05 1337.15 Q682.041 1339.82 685.49 1339.82 Q688.893 1339.82 690.883 1337.13 Q692.874 1334.45 692.874 1329.82 Q692.874 1325.21 690.883 1322.52 Q688.893 1319.82 685.49 1319.82 M685.49 1316.2 Q691.045 1316.2 694.217 1319.82 Q697.388 1323.43 697.388 1329.82 Q697.388 1336.18 694.217 1339.82 Q691.045 1343.43 685.49 1343.43 Q679.911 1343.43 676.74 1339.82 Q673.592 1336.18 673.592 1329.82 Q673.592 1323.43 676.74 1319.82 Q679.911 1316.2 685.49 1316.2 Z" fill="#000000" fill-rule="nonzero" fill-opacity="1" /><path clip-path="url(#clip810)" d="M721.508 1320.76 L721.508 1306.74 L725.768 1306.74 L725.768 1342.76 L721.508 1342.76 L721.508 1338.87 Q720.166 1341.18 718.106 1342.32 Q716.068 1343.43 713.198 1343.43 Q708.499 1343.43 705.536 1339.68 Q702.596 1335.93 702.596 1329.82 Q702.596 1323.7 705.536 1319.95 Q708.499 1316.2 713.198 1316.2 Q716.068 1316.2 718.106 1317.34 Q720.166 1318.45 721.508 1320.76 M706.994 1329.82 Q706.994 1334.51 708.916 1337.2 Q710.86 1339.86 714.24 1339.86 Q717.619 1339.86 719.564 1337.2 Q721.508 1334.51 721.508 1329.82 Q721.508 1325.12 719.564 1322.45 Q717.619 1319.77 714.24 1319.77 Q710.86 1319.77 708.916 1322.45 Q706.994 1325.12 706.994 1329.82 Z" fill="#000000" fill-rule="nonzero" fill-opacity="1" /><path clip-path="url(#clip810)" d="M756.716 1328.73 L756.716 1330.81 L737.133 1330.81 Q737.411 1335.21 739.772 1337.52 Q742.156 1339.82 746.392 1339.82 Q748.846 1339.82 751.138 1339.21 Q753.453 1338.61 755.721 1337.41 L755.721 1341.44 Q753.429 1342.41 751.022 1342.92 Q748.615 1343.43 746.138 1343.43 Q739.934 1343.43 736.3 1339.82 Q732.689 1336.2 732.689 1330.05 Q732.689 1323.68 736.115 1319.95 Q739.564 1316.2 745.397 1316.2 Q750.628 1316.2 753.661 1319.58 Q756.716 1322.94 756.716 1328.73 M752.457 1327.48 Q752.411 1323.98 750.49 1321.9 Q748.591 1319.82 745.443 1319.82 Q741.879 1319.82 739.726 1321.83 Q737.596 1323.84 737.272 1327.5 L752.457 1327.48 Z" fill="#000000" fill-rule="nonzero" fill-opacity="1" /><path clip-path="url(#clip810)" d="M763.707 1306.74 L767.966 1306.74 L767.966 1342.76 L763.707 1342.76 L763.707 1306.74 Z" fill="#000000" fill-rule="nonzero" fill-opacity="1" /><path clip-path="url(#clip810)" d="M789.471 1316.83 L793.73 1316.83 L799.054 1337.06 L804.355 1316.83 L809.378 1316.83 L814.702 1337.06 L820.003 1316.83 L824.262 1316.83 L817.48 1342.76 L812.457 1342.76 L806.878 1321.51 L801.276 1342.76 L796.253 1342.76 L789.471 1316.83 Z" fill="#000000" fill-rule="nonzero" fill-opacity="1" /><path clip-path="url(#clip810)" d="M830.721 1316.83 L834.98 1316.83 L834.98 1342.76 L830.721 1342.76 L830.721 1316.83 M830.721 1306.74 L834.98 1306.74 L834.98 1312.13 L830.721 1312.13 L830.721 1306.74 Z" fill="#000000" fill-rule="nonzero" fill-opacity="1" /><path clip-path="url(#clip810)" d="M848.105 1309.47 L848.105 1316.83 L856.878 1316.83 L856.878 1320.14 L848.105 1320.14 L848.105 1334.21 Q848.105 1337.38 848.961 1338.29 Q849.841 1339.19 852.503 1339.19 L856.878 1339.19 L856.878 1342.76 L852.503 1342.76 Q847.572 1342.76 845.697 1340.93 Q843.822 1339.07 843.822 1334.21 L843.822 1320.14 L840.697 1320.14 L840.697 1316.83 L843.822 1316.83 L843.822 1309.47 L848.105 1309.47 Z" fill="#000000" fill-rule="nonzero" fill-opacity="1" /><path clip-path="url(#clip810)" d="M884.031 1327.11 L884.031 1342.76 L879.771 1342.76 L879.771 1327.25 Q879.771 1323.57 878.336 1321.74 Q876.901 1319.91 874.031 1319.91 Q870.582 1319.91 868.591 1322.11 Q866.6 1324.31 866.6 1328.1 L866.6 1342.76 L862.318 1342.76 L862.318 1306.74 L866.6 1306.74 L866.6 1320.86 Q868.128 1318.52 870.188 1317.36 Q872.271 1316.2 874.98 1316.2 Q879.447 1316.2 881.739 1318.98 Q884.031 1321.74 884.031 1327.11 Z" fill="#000000" fill-rule="nonzero" fill-opacity="1" /><path clip-path="url(#clip810)" d="M924.655 1320.76 L924.655 1306.74 L928.915 1306.74 L928.915 1342.76 L924.655 1342.76 L924.655 1338.87 Q923.313 1341.18 921.253 1342.32 Q919.216 1343.43 916.345 1343.43 Q911.646 1343.43 908.683 1339.68 Q905.743 1335.93 905.743 1329.82 Q905.743 1323.7 908.683 1319.95 Q911.646 1316.2 916.345 1316.2 Q919.216 1316.2 921.253 1317.34 Q923.313 1318.45 924.655 1320.76 M910.142 1329.82 Q910.142 1334.51 912.063 1337.2 Q914.007 1339.86 917.387 1339.86 Q920.766 1339.86 922.711 1337.2 Q924.655 1334.51 924.655 1329.82 Q924.655 1325.12 922.711 1322.45 Q920.766 1319.77 917.387 1319.77 Q914.007 1319.77 912.063 1322.45 Q910.142 1325.12 910.142 1329.82 Z" fill="#000000" fill-rule="nonzero" fill-opacity="1" /><path clip-path="url(#clip810)" d="M959.863 1328.73 L959.863 1330.81 L940.28 1330.81 Q940.558 1335.21 942.919 1337.52 Q945.303 1339.82 949.539 1339.82 Q951.993 1339.82 954.285 1339.21 Q956.6 1338.61 958.868 1337.41 L958.868 1341.44 Q956.576 1342.41 954.169 1342.92 Q951.762 1343.43 949.285 1343.43 Q943.081 1343.43 939.447 1339.82 Q935.836 1336.2 935.836 1330.05 Q935.836 1323.68 939.262 1319.95 Q942.711 1316.2 948.544 1316.2 Q953.776 1316.2 956.808 1319.58 Q959.863 1322.94 959.863 1328.73 M955.604 1327.48 Q955.558 1323.98 953.637 1321.9 Q951.739 1319.82 948.59 1319.82 Q945.026 1319.82 942.873 1321.83 Q940.743 1323.84 940.419 1327.5 L955.604 1327.48 Z" fill="#000000" fill-rule="nonzero" fill-opacity="1" /><path clip-path="url(#clip810)" d="M966.854 1306.74 L971.113 1306.74 L971.113 1342.76 L966.854 1342.76 L966.854 1306.74 Z" fill="#000000" fill-rule="nonzero" fill-opacity="1" /><path clip-path="url(#clip810)" d="M991.808 1329.72 Q986.646 1329.72 984.655 1330.9 Q982.664 1332.08 982.664 1334.93 Q982.664 1337.2 984.146 1338.54 Q985.65 1339.86 988.22 1339.86 Q991.761 1339.86 993.891 1337.36 Q996.044 1334.84 996.044 1330.67 L996.044 1329.72 L991.808 1329.72 M1000.3 1327.96 L1000.3 1342.76 L996.044 1342.76 L996.044 1338.82 Q994.586 1341.18 992.41 1342.32 Q990.234 1343.43 987.086 1343.43 Q983.104 1343.43 980.743 1341.2 Q978.405 1338.96 978.405 1335.21 Q978.405 1330.83 981.322 1328.61 Q984.261 1326.39 990.072 1326.39 L996.044 1326.39 L996.044 1325.97 Q996.044 1323.03 994.099 1321.44 Q992.178 1319.82 988.683 1319.82 Q986.461 1319.82 984.354 1320.35 Q982.248 1320.88 980.303 1321.95 L980.303 1318.01 Q982.641 1317.11 984.84 1316.67 Q987.039 1316.2 989.123 1316.2 Q994.748 1316.2 997.525 1319.12 Q1000.3 1322.04 1000.3 1327.96 Z" fill="#000000" fill-rule="nonzero" fill-opacity="1" /><path clip-path="url(#clip810)" d="M1019.86 1345.16 Q1018.06 1349.79 1016.34 1351.2 Q1014.63 1352.62 1011.76 1352.62 L1008.36 1352.62 L1008.36 1349.05 L1010.86 1349.05 Q1012.62 1349.05 1013.59 1348.22 Q1014.56 1347.38 1015.74 1344.28 L1016.51 1342.34 L1006.02 1316.83 L1010.53 1316.83 L1018.64 1337.11 L1026.74 1316.83 L1031.25 1316.83 L1019.86 1345.16 Z" fill="#000000" fill-rule="nonzero" fill-opacity="1" /><path clip-path="url(#clip810)" d="M1068.73 1317.59 L1068.73 1321.62 Q1066.92 1320.7 1064.98 1320.23 Q1063.03 1319.77 1060.95 1319.77 Q1057.78 1319.77 1056.18 1320.74 Q1054.61 1321.71 1054.61 1323.66 Q1054.61 1325.14 1055.74 1326 Q1056.88 1326.83 1060.3 1327.59 L1061.76 1327.92 Q1066.3 1328.89 1068.2 1330.67 Q1070.12 1332.43 1070.12 1335.6 Q1070.12 1339.21 1067.25 1341.32 Q1064.4 1343.43 1059.4 1343.43 Q1057.32 1343.43 1055.05 1343.01 Q1052.8 1342.62 1050.3 1341.81 L1050.3 1337.41 Q1052.66 1338.63 1054.96 1339.26 Q1057.25 1339.86 1059.49 1339.86 Q1062.5 1339.86 1064.12 1338.84 Q1065.74 1337.8 1065.74 1335.93 Q1065.74 1334.19 1064.56 1333.26 Q1063.4 1332.34 1059.45 1331.48 L1057.96 1331.14 Q1054.01 1330.3 1052.25 1328.59 Q1050.49 1326.85 1050.49 1323.84 Q1050.49 1320.19 1053.08 1318.2 Q1055.67 1316.2 1060.44 1316.2 Q1062.8 1316.2 1064.89 1316.55 Q1066.97 1316.9 1068.73 1317.59 Z" fill="#000000" fill-rule="nonzero" fill-opacity="1" /><path clip-path="url(#clip810)" d="M1076.9 1316.83 L1081.16 1316.83 L1081.16 1342.76 L1076.9 1342.76 L1076.9 1316.83 M1076.9 1306.74 L1081.16 1306.74 L1081.16 1312.13 L1076.9 1312.13 L1076.9 1306.74 Z" fill="#000000" fill-rule="nonzero" fill-opacity="1" /><path clip-path="url(#clip810)" d="M1110.26 1321.81 Q1111.85 1318.94 1114.08 1317.57 Q1116.3 1316.2 1119.31 1316.2 Q1123.36 1316.2 1125.56 1319.05 Q1127.76 1321.88 1127.76 1327.11 L1127.76 1342.76 L1123.47 1342.76 L1123.47 1327.25 Q1123.47 1323.52 1122.15 1321.71 Q1120.83 1319.91 1118.13 1319.91 Q1114.82 1319.91 1112.9 1322.11 Q1110.97 1324.31 1110.97 1328.1 L1110.97 1342.76 L1106.69 1342.76 L1106.69 1327.25 Q1106.69 1323.5 1105.37 1321.71 Q1104.05 1319.91 1101.3 1319.91 Q1098.03 1319.91 1096.11 1322.13 Q1094.19 1324.33 1094.19 1328.1 L1094.19 1342.76 L1089.91 1342.76 L1089.91 1316.83 L1094.19 1316.83 L1094.19 1320.86 Q1095.65 1318.47 1097.69 1317.34 Q1099.72 1316.2 1102.52 1316.2 Q1105.35 1316.2 1107.32 1317.64 Q1109.31 1319.07 1110.26 1321.81 Z" fill="#000000" fill-rule="nonzero" fill-opacity="1" /><path clip-path="url(#clip810)" d="M1164.45 1306.74 L1164.45 1310.28 L1160.37 1310.28 Q1158.08 1310.28 1157.18 1311.2 Q1156.3 1312.13 1156.3 1314.54 L1156.3 1316.83 L1163.31 1316.83 L1163.31 1320.14 L1156.3 1320.14 L1156.3 1342.76 L1152.02 1342.76 L1152.02 1320.14 L1147.94 1320.14 L1147.94 1316.83 L1152.02 1316.83 L1152.02 1315.02 Q1152.02 1310.7 1154.03 1308.73 Q1156.04 1306.74 1160.42 1306.74 L1164.45 1306.74 Z" fill="#000000" fill-rule="nonzero" fill-opacity="1" /><path clip-path="url(#clip810)" d="M1168.01 1316.83 L1172.27 1316.83 L1172.27 1342.76 L1168.01 1342.76 L1168.01 1316.83 M1168.01 1306.74 L1172.27 1306.74 L1172.27 1312.13 L1168.01 1312.13 L1168.01 1306.74 Z" fill="#000000" fill-rule="nonzero" fill-opacity="1" /><path clip-path="url(#clip810)" d="M1185.39 1309.47 L1185.39 1316.83 L1194.17 1316.83 L1194.17 1320.14 L1185.39 1320.14 L1185.39 1334.21 Q1185.39 1337.38 1186.25 1338.29 Q1187.13 1339.19 1189.79 1339.19 L1194.17 1339.19 L1194.17 1342.76 L1189.79 1342.76 Q1184.86 1342.76 1182.99 1340.93 Q1181.11 1339.07 1181.11 1334.21 L1181.11 1320.14 L1177.99 1320.14 L1177.99 1316.83 L1181.11 1316.83 L1181.11 1309.47 L1185.39 1309.47 Z" fill="#000000" fill-rule="nonzero" fill-opacity="1" /><path clip-path="url(#clip810)" d="M1231 1336.88 L1235.88 1336.88 L1235.88 1342.76 L1231 1342.76 L1231 1336.88 M1231 1318.24 L1235.88 1318.24 L1235.88 1324.12 L1231 1324.12 L1231 1318.24 Z" fill="#000000" fill-rule="nonzero" fill-opacity="1" /><path clip-path="url(#clip810)" d="M1247.29 1338.82 L1254.93 1338.82 L1254.93 1312.45 L1246.62 1314.12 L1246.62 1309.86 L1254.89 1308.2 L1259.56 1308.2 L1259.56 1338.82 L1267.2 1338.82 L1267.2 1342.76 L1247.29 1342.76 L1247.29 1338.82 Z" fill="#000000" fill-rule="nonzero" fill-opacity="1" /><path clip-path="url(#clip810)" d="M1286.64 1311.27 Q1283.03 1311.27 1281.2 1314.84 Q1279.4 1318.38 1279.4 1325.51 Q1279.4 1332.62 1281.2 1336.18 Q1283.03 1339.72 1286.64 1339.72 Q1290.28 1339.72 1292.08 1336.18 Q1293.91 1332.62 1293.91 1325.51 Q1293.91 1318.38 1292.08 1314.84 Q1290.28 1311.27 1286.64 1311.27 M1286.64 1307.57 Q1292.45 1307.57 1295.51 1312.18 Q1298.59 1316.76 1298.59 1325.51 Q1298.59 1334.24 1295.51 1338.84 Q1292.45 1343.43 1286.64 1343.43 Q1280.83 1343.43 1277.76 1338.84 Q1274.7 1334.24 1274.7 1325.51 Q1274.7 1316.76 1277.76 1312.18 Q1280.83 1307.57 1286.64 1307.57 Z" fill="#000000" fill-rule="nonzero" fill-opacity="1" /><path clip-path="url(#clip810)" d="M1316.81 1311.27 Q1313.19 1311.27 1311.37 1314.84 Q1309.56 1318.38 1309.56 1325.51 Q1309.56 1332.62 1311.37 1336.18 Q1313.19 1339.72 1316.81 1339.72 Q1320.44 1339.72 1322.25 1336.18 Q1324.07 1332.62 1324.07 1325.51 Q1324.07 1318.38 1322.25 1314.84 Q1320.44 1311.27 1316.81 1311.27 M1316.81 1307.57 Q1322.62 1307.57 1325.67 1312.18 Q1328.75 1316.76 1328.75 1325.51 Q1328.75 1334.24 1325.67 1338.84 Q1322.62 1343.43 1316.81 1343.43 Q1311 1343.43 1307.92 1338.84 Q1304.86 1334.24 1304.86 1325.51 Q1304.86 1316.76 1307.92 1312.18 Q1311 1307.57 1316.81 1307.57 Z" fill="#000000" fill-rule="nonzero" fill-opacity="1" /><path clip-path="url(#clip810)" d="M1336.97 1336.88 L1341.85 1336.88 L1341.85 1342.76 L1336.97 1342.76 L1336.97 1336.88 Z" fill="#000000" fill-rule="nonzero" fill-opacity="1" /><path clip-path="url(#clip810)" d="M1362.04 1311.27 Q1358.43 1311.27 1356.6 1314.84 Q1354.79 1318.38 1354.79 1325.51 Q1354.79 1332.62 1356.6 1336.18 Q1358.43 1339.72 1362.04 1339.72 Q1365.67 1339.72 1367.48 1336.18 Q1369.31 1332.62 1369.31 1325.51 Q1369.31 1318.38 1367.48 1314.84 Q1365.67 1311.27 1362.04 1311.27 M1362.04 1307.57 Q1367.85 1307.57 1370.9 1312.18 Q1373.98 1316.76 1373.98 1325.51 Q1373.98 1334.24 1370.9 1338.84 Q1367.85 1343.43 1362.04 1343.43 Q1356.23 1343.43 1353.15 1338.84 Q1350.09 1334.24 1350.09 1325.51 Q1350.09 1316.76 1353.15 1312.18 Q1356.23 1307.57 1362.04 1307.57 Z" fill="#000000" fill-rule="nonzero" fill-opacity="1" /><path clip-path="url(#clip810)" d="M1411.6 1327.55 Q1409.58 1327.55 1408.43 1329.26 Q1407.29 1330.97 1407.29 1334.03 Q1407.29 1337.04 1408.43 1338.77 Q1409.58 1340.49 1411.6 1340.49 Q1413.56 1340.49 1414.7 1338.77 Q1415.86 1337.04 1415.86 1334.03 Q1415.86 1331 1414.7 1329.28 Q1413.56 1327.55 1411.6 1327.55 M1411.6 1324.61 Q1415.25 1324.61 1417.41 1327.15 Q1419.56 1329.7 1419.56 1334.03 Q1419.56 1338.36 1417.38 1340.9 Q1415.23 1343.43 1411.6 1343.43 Q1407.89 1343.43 1405.74 1340.9 Q1403.59 1338.36 1403.59 1334.03 Q1403.59 1329.68 1405.74 1327.15 Q1407.92 1324.61 1411.6 1324.61 M1387.71 1310.51 Q1385.72 1310.51 1384.56 1312.25 Q1383.43 1313.96 1383.43 1316.97 Q1383.43 1320.02 1384.56 1321.74 Q1385.69 1323.45 1387.71 1323.45 Q1389.72 1323.45 1390.86 1321.74 Q1392.01 1320.02 1392.01 1316.97 Q1392.01 1313.98 1390.86 1312.25 Q1389.7 1310.51 1387.71 1310.51 M1408.61 1307.57 L1412.31 1307.57 L1390.69 1343.43 L1386.99 1343.43 L1408.61 1307.57 M1387.71 1307.57 Q1391.37 1307.57 1393.54 1310.12 Q1395.72 1312.64 1395.72 1316.97 Q1395.72 1321.34 1393.54 1323.87 Q1391.39 1326.39 1387.71 1326.39 Q1384.03 1326.39 1381.88 1323.87 Q1379.75 1321.32 1379.75 1316.97 Q1379.75 1312.66 1381.9 1310.12 Q1384.05 1307.57 1387.71 1307.57 Z" fill="#000000" fill-rule="nonzero" fill-opacity="1" /></svg>
