<?xml version="1.0" encoding="utf-8"?>
<svg xmlns="http://www.w3.org/2000/svg" xmlns:xlink="http://www.w3.org/1999/xlink" width="600" height="400" viewBox="0 0 2400 1600">
<defs>
  <clipPath id="clip930">
    <rect x="0" y="0" width="2400" height="1600"/>
  </clipPath>
</defs>
<path clip-path="url(#clip930)" d="M0 1600 L2400 1600 L2400 0 L0 0  Z" fill="#ffffff" fill-rule="evenodd" fill-opacity="1"/>
<defs>
  <clipPath id="clip931">
    <rect x="251" y="47" width="2102" height="1365"/>
  </clipPath>
</defs>
<path clip-path="url(#clip930)" d="M251.56 1410.9 L2352.76 1410.9 L2352.76 47.2441 L251.56 47.2441  Z" fill="#ffffff" fill-rule="evenodd" fill-opacity="1"/>
<polyline clip-path="url(#clip931)" style="stroke:#000000; stroke-linecap:round; stroke-linejoin:round; stroke-width:2; stroke-opacity:0.1; fill:none" points="643.049,1410.9 643.049,47.2441 "/>
<polyline clip-path="url(#clip931)" style="stroke:#000000; stroke-linecap:round; stroke-linejoin:round; stroke-width:2; stroke-opacity:0.1; fill:none" points="1303.9,1410.9 1303.9,47.2441 "/>
<polyline clip-path="url(#clip931)" style="stroke:#000000; stroke-linecap:round; stroke-linejoin:round; stroke-width:2; stroke-opacity:0.1; fill:none" points="1964.75,1410.9 1964.75,47.2441 "/>
<polyline clip-path="url(#clip931)" style="stroke:#000000; stroke-linecap:round; stroke-linejoin:round; stroke-width:2; stroke-opacity:0.1; fill:none" points="251.56,1123.76 2352.76,1123.76 "/>
<polyline clip-path="url(#clip931)" style="stroke:#000000; stroke-linecap:round; stroke-linejoin:round; stroke-width:2; stroke-opacity:0.1; fill:none" points="251.56,383.314 2352.76,383.314 "/>
<polyline clip-path="url(#clip930)" style="stroke:#000000; stroke-linecap:round; stroke-linejoin:round; stroke-width:4; stroke-opacity:1; fill:none" points="251.56,1410.9 2352.76,1410.9 "/>
<polyline clip-path="url(#clip930)" style="stroke:#000000; stroke-linecap:round; stroke-linejoin:round; stroke-width:4; stroke-opacity:1; fill:none" points="643.049,1410.9 643.049,1392 "/>
<polyline clip-path="url(#clip930)" style="stroke:#000000; stroke-linecap:round; stroke-linejoin:round; stroke-width:4; stroke-opacity:1; fill:none" points="1303.9,1410.9 1303.9,1392 "/>
<polyline clip-path="url(#clip930)" style="stroke:#000000; stroke-linecap:round; stroke-linejoin:round; stroke-width:4; stroke-opacity:1; fill:none" points="1964.75,1410.9 1964.75,1392 "/>
<path clip-path="url(#clip930)" d="M593.164 1485.02 L600.803 1485.02 L600.803 1458.66 L592.493 1460.32 L592.493 1456.06 L600.757 1454.4 L605.433 1454.4 L605.433 1485.02 L613.072 1485.02 L613.072 1488.96 L593.164 1488.96 L593.164 1485.02 Z" fill="#000000" fill-rule="nonzero" fill-opacity="1" /><path clip-path="url(#clip930)" d="M632.516 1457.48 Q628.905 1457.48 627.076 1461.04 Q625.271 1464.58 625.271 1471.71 Q625.271 1478.82 627.076 1482.38 Q628.905 1485.92 632.516 1485.92 Q636.15 1485.92 637.956 1482.38 Q639.784 1478.82 639.784 1471.71 Q639.784 1464.58 637.956 1461.04 Q636.15 1457.48 632.516 1457.48 M632.516 1453.77 Q638.326 1453.77 641.382 1458.38 Q644.46 1462.96 644.46 1471.71 Q644.46 1480.44 641.382 1485.04 Q638.326 1489.63 632.516 1489.63 Q626.706 1489.63 623.627 1485.04 Q620.571 1480.44 620.571 1471.71 Q620.571 1462.96 623.627 1458.38 Q626.706 1453.77 632.516 1453.77 Z" fill="#000000" fill-rule="nonzero" fill-opacity="1" /><path clip-path="url(#clip930)" d="M644.46 1447.87 L668.572 1447.87 L668.572 1451.07 L644.46 1451.07 L644.46 1447.87 Z" fill="#000000" fill-rule="nonzero" fill-opacity="1" /><path clip-path="url(#clip930)" d="M677.43 1458.35 L683.637 1458.35 L683.637 1436.93 L676.885 1438.28 L676.885 1434.82 L683.599 1433.47 L687.398 1433.47 L687.398 1458.35 L693.605 1458.35 L693.605 1461.55 L677.43 1461.55 L677.43 1458.35 Z" fill="#000000" fill-rule="nonzero" fill-opacity="1" /><path clip-path="url(#clip930)" d="M1268.88 1485.02 L1276.52 1485.02 L1276.52 1458.66 L1268.21 1460.32 L1268.21 1456.06 L1276.47 1454.4 L1281.15 1454.4 L1281.15 1485.02 L1288.79 1485.02 L1288.79 1488.96 L1268.88 1488.96 L1268.88 1485.02 Z" fill="#000000" fill-rule="nonzero" fill-opacity="1" /><path clip-path="url(#clip930)" d="M1308.23 1457.48 Q1304.62 1457.48 1302.79 1461.04 Q1300.99 1464.58 1300.99 1471.71 Q1300.99 1478.82 1302.79 1482.38 Q1304.62 1485.92 1308.23 1485.92 Q1311.87 1485.92 1313.67 1482.38 Q1315.5 1478.82 1315.5 1471.71 Q1315.5 1464.58 1313.67 1461.04 Q1311.87 1457.48 1308.23 1457.48 M1308.23 1453.77 Q1314.04 1453.77 1317.1 1458.38 Q1320.18 1462.96 1320.18 1471.71 Q1320.18 1480.44 1317.1 1485.04 Q1314.04 1489.63 1308.23 1489.63 Q1302.42 1489.63 1299.34 1485.04 Q1296.29 1480.44 1296.29 1471.71 Q1296.29 1462.96 1299.34 1458.38 Q1302.42 1453.77 1308.23 1453.77 Z" fill="#000000" fill-rule="nonzero" fill-opacity="1" /><path clip-path="url(#clip930)" d="M1329.88 1435.97 Q1326.95 1435.97 1325.46 1438.86 Q1323.99 1441.74 1323.99 1447.53 Q1323.99 1453.31 1325.46 1456.2 Q1326.95 1459.08 1329.88 1459.08 Q1332.83 1459.08 1334.3 1456.2 Q1335.79 1453.31 1335.79 1447.53 Q1335.79 1441.74 1334.3 1438.86 Q1332.83 1435.97 1329.88 1435.97 M1329.88 1432.96 Q1334.6 1432.96 1337.09 1436.7 Q1339.59 1440.43 1339.59 1447.53 Q1339.59 1454.62 1337.09 1458.37 Q1334.6 1462.09 1329.88 1462.09 Q1325.16 1462.09 1322.66 1458.37 Q1320.18 1454.62 1320.18 1447.53 Q1320.18 1440.43 1322.66 1436.7 Q1325.16 1432.96 1329.88 1432.96 Z" fill="#000000" fill-rule="nonzero" fill-opacity="1" /><path clip-path="url(#clip930)" d="M1931.07 1485.02 L1938.71 1485.02 L1938.71 1458.66 L1930.4 1460.32 L1930.4 1456.06 L1938.67 1454.4 L1943.34 1454.4 L1943.34 1485.02 L1950.98 1485.02 L1950.98 1488.96 L1931.07 1488.96 L1931.07 1485.02 Z" fill="#000000" fill-rule="nonzero" fill-opacity="1" /><path clip-path="url(#clip930)" d="M1970.43 1457.48 Q1966.82 1457.48 1964.99 1461.04 Q1963.18 1464.58 1963.18 1471.71 Q1963.18 1478.82 1964.99 1482.38 Q1966.82 1485.92 1970.43 1485.92 Q1974.06 1485.92 1975.87 1482.38 Q1977.69 1478.82 1977.69 1471.71 Q1977.69 1464.58 1975.87 1461.04 Q1974.06 1457.48 1970.43 1457.48 M1970.43 1453.77 Q1976.24 1453.77 1979.29 1458.38 Q1982.37 1462.96 1982.37 1471.71 Q1982.37 1480.44 1979.29 1485.04 Q1976.24 1489.63 1970.43 1489.63 Q1964.62 1489.63 1961.54 1485.04 Q1958.48 1480.44 1958.48 1471.71 Q1958.48 1462.96 1961.54 1458.38 Q1964.62 1453.77 1970.43 1453.77 Z" fill="#000000" fill-rule="nonzero" fill-opacity="1" /><path clip-path="url(#clip930)" d="M1982.92 1458.35 L1989.12 1458.35 L1989.12 1436.93 L1982.37 1438.28 L1982.37 1434.82 L1989.09 1433.47 L1992.88 1433.47 L1992.88 1458.35 L1999.09 1458.35 L1999.09 1461.55 L1982.92 1461.55 L1982.92 1458.35 Z" fill="#000000" fill-rule="nonzero" fill-opacity="1" /><path clip-path="url(#clip930)" d="M1021.97 1526.67 L1049.28 1526.67 L1049.28 1532.08 L1028.4 1532.08 L1028.4 1546.08 L1047.24 1546.08 L1047.24 1551.49 L1028.4 1551.49 L1028.4 1574.19 L1021.97 1574.19 L1021.97 1526.67 Z" fill="#000000" fill-rule="nonzero" fill-opacity="1" /><path clip-path="url(#clip930)" d="M1075.13 1544.01 Q1074.14 1543.44 1072.96 1543.18 Q1071.81 1542.9 1070.41 1542.9 Q1065.45 1542.9 1062.78 1546.14 Q1060.13 1549.36 1060.13 1555.41 L1060.13 1574.19 L1054.25 1574.19 L1054.25 1538.54 L1060.13 1538.54 L1060.13 1544.08 Q1061.98 1540.83 1064.94 1539.27 Q1067.9 1537.68 1072.13 1537.68 Q1072.74 1537.68 1073.47 1537.77 Q1074.2 1537.84 1075.09 1538 L1075.13 1544.01 Z" fill="#000000" fill-rule="nonzero" fill-opacity="1" /><path clip-path="url(#clip930)" d="M1110.33 1554.9 L1110.33 1557.76 L1083.4 1557.76 Q1083.78 1563.81 1087.03 1566.99 Q1090.31 1570.14 1096.13 1570.14 Q1099.51 1570.14 1102.66 1569.32 Q1105.84 1568.49 1108.96 1566.83 L1108.96 1572.37 Q1105.81 1573.71 1102.5 1574.41 Q1099.19 1575.11 1095.78 1575.11 Q1087.25 1575.11 1082.25 1570.14 Q1077.29 1565.18 1077.29 1556.71 Q1077.29 1547.96 1082 1542.83 Q1086.74 1537.68 1094.76 1537.68 Q1101.96 1537.68 1106.13 1542.33 Q1110.33 1546.94 1110.33 1554.9 M1104.47 1553.18 Q1104.41 1548.37 1101.77 1545.51 Q1099.16 1542.64 1094.83 1542.64 Q1089.93 1542.64 1086.97 1545.41 Q1084.04 1548.18 1083.59 1553.21 L1104.47 1553.18 Z" fill="#000000" fill-rule="nonzero" fill-opacity="1" /><path clip-path="url(#clip930)" d="M1123.44 1556.39 Q1123.44 1562.85 1126.08 1566.55 Q1128.76 1570.21 1133.4 1570.21 Q1138.05 1570.21 1140.72 1566.55 Q1143.4 1562.85 1143.4 1556.39 Q1143.4 1549.93 1140.72 1546.27 Q1138.05 1542.58 1133.4 1542.58 Q1128.76 1542.58 1126.08 1546.27 Q1123.44 1549.93 1123.44 1556.39 M1143.4 1568.84 Q1141.55 1572.02 1138.72 1573.58 Q1135.92 1575.11 1131.97 1575.11 Q1125.51 1575.11 1121.44 1569.95 Q1117.39 1564.8 1117.39 1556.39 Q1117.39 1547.99 1121.44 1542.83 Q1125.51 1537.68 1131.97 1537.68 Q1135.92 1537.68 1138.72 1539.24 Q1141.55 1540.77 1143.4 1543.95 L1143.4 1538.54 L1149.25 1538.54 L1149.25 1587.74 L1143.4 1587.74 L1143.4 1568.84 Z" fill="#000000" fill-rule="nonzero" fill-opacity="1" /><path clip-path="url(#clip930)" d="M1160.71 1560.12 L1160.71 1538.54 L1166.57 1538.54 L1166.57 1559.89 Q1166.57 1564.96 1168.54 1567.5 Q1170.52 1570.02 1174.46 1570.02 Q1179.2 1570.02 1181.94 1566.99 Q1184.71 1563.97 1184.71 1558.75 L1184.71 1538.54 L1190.57 1538.54 L1190.57 1574.19 L1184.71 1574.19 L1184.71 1568.71 Q1182.58 1571.96 1179.75 1573.55 Q1176.94 1575.11 1173.22 1575.11 Q1167.08 1575.11 1163.89 1571.29 Q1160.71 1567.47 1160.71 1560.12 M1175.45 1537.68 L1175.45 1537.68 Z" fill="#000000" fill-rule="nonzero" fill-opacity="1" /><path clip-path="url(#clip930)" d="M1233.12 1554.9 L1233.12 1557.76 L1206.2 1557.76 Q1206.58 1563.81 1209.82 1566.99 Q1213.1 1570.14 1218.93 1570.14 Q1222.3 1570.14 1225.45 1569.32 Q1228.63 1568.49 1231.75 1566.83 L1231.75 1572.37 Q1228.6 1573.71 1225.29 1574.41 Q1221.98 1575.11 1218.58 1575.11 Q1210.05 1575.11 1205.05 1570.14 Q1200.08 1565.18 1200.08 1556.71 Q1200.08 1547.96 1204.79 1542.83 Q1209.54 1537.68 1217.56 1537.68 Q1224.75 1537.68 1228.92 1542.33 Q1233.12 1546.94 1233.12 1554.9 M1227.27 1553.18 Q1227.2 1548.37 1224.56 1545.51 Q1221.95 1542.64 1217.62 1542.64 Q1212.72 1542.64 1209.76 1545.41 Q1206.83 1548.18 1206.39 1553.21 L1227.27 1553.18 Z" fill="#000000" fill-rule="nonzero" fill-opacity="1" /><path clip-path="url(#clip930)" d="M1272.37 1552.67 L1272.37 1574.19 L1266.51 1574.19 L1266.51 1552.86 Q1266.51 1547.8 1264.54 1545.29 Q1262.56 1542.77 1258.62 1542.77 Q1253.87 1542.77 1251.14 1545.79 Q1248.4 1548.82 1248.4 1554.04 L1248.4 1574.19 L1242.51 1574.19 L1242.51 1538.54 L1248.4 1538.54 L1248.4 1544.08 Q1250.5 1540.86 1253.33 1539.27 Q1256.2 1537.68 1259.92 1537.68 Q1266.06 1537.68 1269.22 1541.5 Q1272.37 1545.29 1272.37 1552.67 Z" fill="#000000" fill-rule="nonzero" fill-opacity="1" /><path clip-path="url(#clip930)" d="M1309.7 1539.91 L1309.7 1545.38 Q1307.22 1544.01 1304.7 1543.34 Q1302.22 1542.64 1299.68 1542.64 Q1293.98 1542.64 1290.83 1546.27 Q1287.68 1549.87 1287.68 1556.39 Q1287.68 1562.92 1290.83 1566.55 Q1293.98 1570.14 1299.68 1570.14 Q1302.22 1570.14 1304.7 1569.47 Q1307.22 1568.77 1309.7 1567.41 L1309.7 1572.82 Q1307.25 1573.96 1304.61 1574.54 Q1302 1575.11 1299.04 1575.11 Q1290.99 1575.11 1286.24 1570.05 Q1281.5 1564.99 1281.5 1556.39 Q1281.5 1547.67 1286.28 1542.68 Q1291.08 1537.68 1299.42 1537.68 Q1302.13 1537.68 1304.7 1538.25 Q1307.28 1538.79 1309.7 1539.91 Z" fill="#000000" fill-rule="nonzero" fill-opacity="1" /><path clip-path="url(#clip930)" d="M1334.72 1577.5 Q1332.24 1583.86 1329.88 1585.8 Q1327.53 1587.74 1323.58 1587.74 L1318.9 1587.74 L1318.9 1582.84 L1322.34 1582.84 Q1324.76 1582.84 1326.09 1581.7 Q1327.43 1580.55 1329.05 1576.29 L1330.1 1573.61 L1315.69 1538.54 L1321.89 1538.54 L1333.03 1566.42 L1344.17 1538.54 L1350.38 1538.54 L1334.72 1577.5 Z" fill="#000000" fill-rule="nonzero" fill-opacity="1" /><path clip-path="url(#clip930)" d="M1378.64 1524.66 L1392.14 1524.66 L1392.14 1529.21 L1384.5 1529.21 L1384.5 1578.23 L1392.14 1578.23 L1392.14 1582.78 L1378.64 1582.78 L1378.64 1524.66 Z" fill="#000000" fill-rule="nonzero" fill-opacity="1" /><path clip-path="url(#clip930)" d="M1425.27 1544.01 Q1424.28 1543.44 1423.11 1543.18 Q1421.96 1542.9 1420.56 1542.9 Q1415.59 1542.9 1412.92 1546.14 Q1410.28 1549.36 1410.28 1555.41 L1410.28 1574.19 L1404.39 1574.19 L1404.39 1538.54 L1410.28 1538.54 L1410.28 1544.08 Q1412.13 1540.83 1415.09 1539.27 Q1418.05 1537.68 1422.28 1537.68 Q1422.88 1537.68 1423.62 1537.77 Q1424.35 1537.84 1425.24 1538 L1425.27 1544.01 Z" fill="#000000" fill-rule="nonzero" fill-opacity="1" /><path clip-path="url(#clip930)" d="M1447.61 1556.27 Q1440.52 1556.27 1437.78 1557.89 Q1435.04 1559.51 1435.04 1563.43 Q1435.04 1566.55 1437.08 1568.39 Q1439.15 1570.21 1442.68 1570.21 Q1447.55 1570.21 1450.48 1566.77 Q1453.44 1563.3 1453.44 1557.57 L1453.44 1556.27 L1447.61 1556.27 M1459.3 1553.85 L1459.3 1574.19 L1453.44 1574.19 L1453.44 1568.77 Q1451.43 1572.02 1448.44 1573.58 Q1445.45 1575.11 1441.12 1575.11 Q1435.65 1575.11 1432.4 1572.05 Q1429.19 1568.97 1429.19 1563.81 Q1429.19 1557.79 1433.2 1554.74 Q1437.24 1551.68 1445.23 1551.68 L1453.44 1551.68 L1453.44 1551.11 Q1453.44 1547.07 1450.77 1544.87 Q1448.12 1542.64 1443.32 1542.64 Q1440.26 1542.64 1437.37 1543.38 Q1434.47 1544.11 1431.8 1545.57 L1431.8 1540.16 Q1435.01 1538.92 1438.03 1538.31 Q1441.06 1537.68 1443.92 1537.68 Q1451.66 1537.68 1455.48 1541.69 Q1459.3 1545.7 1459.3 1553.85 Z" fill="#000000" fill-rule="nonzero" fill-opacity="1" /><path clip-path="url(#clip930)" d="M1494.82 1543.95 L1494.82 1524.66 L1500.67 1524.66 L1500.67 1574.19 L1494.82 1574.19 L1494.82 1568.84 Q1492.97 1572.02 1490.14 1573.58 Q1487.34 1575.11 1483.39 1575.11 Q1476.93 1575.11 1472.85 1569.95 Q1468.81 1564.8 1468.81 1556.39 Q1468.81 1547.99 1472.85 1542.83 Q1476.93 1537.68 1483.39 1537.68 Q1487.34 1537.68 1490.14 1539.24 Q1492.97 1540.77 1494.82 1543.95 M1474.86 1556.39 Q1474.86 1562.85 1477.5 1566.55 Q1480.18 1570.21 1484.82 1570.21 Q1489.47 1570.21 1492.14 1566.55 Q1494.82 1562.85 1494.82 1556.39 Q1494.82 1549.93 1492.14 1546.27 Q1489.47 1542.58 1484.82 1542.58 Q1480.18 1542.58 1477.5 1546.27 Q1474.86 1549.93 1474.86 1556.39 Z" fill="#000000" fill-rule="nonzero" fill-opacity="1" /><path clip-path="url(#clip930)" d="M1523.14 1526.67 L1528.55 1526.67 L1512 1580.23 L1506.59 1580.23 L1523.14 1526.67 Z" fill="#000000" fill-rule="nonzero" fill-opacity="1" /><path clip-path="url(#clip930)" d="M1557.42 1539.59 L1557.42 1545.13 Q1554.94 1543.85 1552.27 1543.22 Q1549.59 1542.58 1546.73 1542.58 Q1542.37 1542.58 1540.17 1543.92 Q1538.01 1545.25 1538.01 1547.93 Q1538.01 1549.96 1539.57 1551.14 Q1541.13 1552.29 1545.84 1553.34 L1547.84 1553.78 Q1554.08 1555.12 1556.69 1557.57 Q1559.33 1559.99 1559.33 1564.35 Q1559.33 1569.32 1555.39 1572.21 Q1551.47 1575.11 1544.6 1575.11 Q1541.73 1575.11 1538.61 1574.54 Q1535.52 1573.99 1532.09 1572.88 L1532.09 1566.83 Q1535.33 1568.52 1538.48 1569.38 Q1541.64 1570.21 1544.72 1570.21 Q1548.86 1570.21 1551.09 1568.81 Q1553.32 1567.37 1553.32 1564.8 Q1553.32 1562.41 1551.69 1561.14 Q1550.1 1559.86 1544.66 1558.68 L1542.62 1558.21 Q1537.18 1557.06 1534.76 1554.71 Q1532.34 1552.32 1532.34 1548.18 Q1532.34 1543.15 1535.91 1540.42 Q1539.47 1537.68 1546.03 1537.68 Q1549.27 1537.68 1552.14 1538.16 Q1555 1538.63 1557.42 1539.59 Z" fill="#000000" fill-rule="nonzero" fill-opacity="1" /><path clip-path="url(#clip930)" d="M1582.34 1524.66 L1582.34 1582.78 L1568.85 1582.78 L1568.85 1578.23 L1576.46 1578.23 L1576.46 1529.21 L1568.85 1529.21 L1568.85 1524.66 L1582.34 1524.66 Z" fill="#000000" fill-rule="nonzero" fill-opacity="1" /><polyline clip-path="url(#clip930)" style="stroke:#000000; stroke-linecap:round; stroke-linejoin:round; stroke-width:4; stroke-opacity:1; fill:none" points="251.56,1410.9 251.56,47.2441 "/>
<polyline clip-path="url(#clip930)" style="stroke:#000000; stroke-linecap:round; stroke-linejoin:round; stroke-width:4; stroke-opacity:1; fill:none" points="251.56,1123.76 270.458,1123.76 "/>
<polyline clip-path="url(#clip930)" style="stroke:#000000; stroke-linecap:round; stroke-linejoin:round; stroke-width:4; stroke-opacity:1; fill:none" points="251.56,383.314 270.458,383.314 "/>
<path clip-path="url(#clip930)" d="M114.931 1143.55 L122.57 1143.55 L122.57 1117.19 L114.26 1118.85 L114.26 1114.59 L122.524 1112.93 L127.2 1112.93 L127.2 1143.55 L134.839 1143.55 L134.839 1147.49 L114.931 1147.49 L114.931 1143.55 Z" fill="#000000" fill-rule="nonzero" fill-opacity="1" /><path clip-path="url(#clip930)" d="M154.283 1116 Q150.672 1116 148.843 1119.57 Q147.038 1123.11 147.038 1130.24 Q147.038 1137.35 148.843 1140.91 Q150.672 1144.45 154.283 1144.45 Q157.917 1144.45 159.723 1140.91 Q161.552 1137.35 161.552 1130.24 Q161.552 1123.11 159.723 1119.57 Q157.917 1116 154.283 1116 M154.283 1112.3 Q160.093 1112.3 163.149 1116.91 Q166.227 1121.49 166.227 1130.24 Q166.227 1138.97 163.149 1143.57 Q160.093 1148.16 154.283 1148.16 Q148.473 1148.16 145.394 1143.57 Q142.339 1138.97 142.339 1130.24 Q142.339 1121.49 145.394 1116.91 Q148.473 1112.3 154.283 1112.3 Z" fill="#000000" fill-rule="nonzero" fill-opacity="1" /><path clip-path="url(#clip930)" d="M166.227 1106.4 L190.339 1106.4 L190.339 1109.6 L166.227 1109.6 L166.227 1106.4 Z" fill="#000000" fill-rule="nonzero" fill-opacity="1" /><path clip-path="url(#clip930)" d="M198.577 1092 L213.491 1092 L213.491 1095.19 L202.056 1095.19 L202.056 1102.08 Q202.884 1101.79 203.711 1101.66 Q204.539 1101.51 205.366 1101.51 Q210.068 1101.51 212.814 1104.09 Q215.56 1106.67 215.56 1111.07 Q215.56 1115.6 212.739 1118.12 Q209.918 1120.62 204.783 1120.62 Q203.015 1120.62 201.172 1120.32 Q199.348 1120.02 197.392 1119.42 L197.392 1115.6 Q199.085 1116.52 200.89 1116.97 Q202.696 1117.42 204.708 1117.42 Q207.962 1117.42 209.861 1115.71 Q211.761 1114 211.761 1111.07 Q211.761 1108.13 209.861 1106.42 Q207.962 1104.71 204.708 1104.71 Q203.185 1104.71 201.661 1105.05 Q200.157 1105.39 198.577 1106.1 L198.577 1092 Z" fill="#000000" fill-rule="nonzero" fill-opacity="1" /><path clip-path="url(#clip930)" d="M144.855 403.106 L152.493 403.106 L152.493 376.74 L144.183 378.407 L144.183 374.148 L152.447 372.481 L157.123 372.481 L157.123 403.106 L164.762 403.106 L164.762 407.041 L144.855 407.041 L144.855 403.106 Z" fill="#000000" fill-rule="nonzero" fill-opacity="1" /><path clip-path="url(#clip930)" d="M184.206 375.56 Q180.595 375.56 178.766 379.125 Q176.961 382.666 176.961 389.796 Q176.961 396.902 178.766 400.467 Q180.595 404.009 184.206 404.009 Q187.84 404.009 189.646 400.467 Q191.475 396.902 191.475 389.796 Q191.475 382.666 189.646 379.125 Q187.84 375.56 184.206 375.56 M184.206 371.856 Q190.016 371.856 193.072 376.463 Q196.151 381.046 196.151 389.796 Q196.151 398.523 193.072 403.129 Q190.016 407.712 184.206 407.712 Q178.396 407.712 175.317 403.129 Q172.262 398.523 172.262 389.796 Q172.262 381.046 175.317 376.463 Q178.396 371.856 184.206 371.856 Z" fill="#000000" fill-rule="nonzero" fill-opacity="1" /><path clip-path="url(#clip930)" d="M205.855 354.052 Q202.921 354.052 201.436 356.949 Q199.969 359.826 199.969 365.619 Q199.969 371.393 201.436 374.289 Q202.921 377.167 205.855 377.167 Q208.808 377.167 210.275 374.289 Q211.761 371.393 211.761 365.619 Q211.761 359.826 210.275 356.949 Q208.808 354.052 205.855 354.052 M205.855 351.043 Q210.576 351.043 213.059 354.786 Q215.56 358.51 215.56 365.619 Q215.56 372.709 213.059 376.452 Q210.576 380.176 205.855 380.176 Q201.135 380.176 198.633 376.452 Q196.151 372.709 196.151 365.619 Q196.151 358.51 198.633 354.786 Q201.135 351.043 205.855 351.043 Z" fill="#000000" fill-rule="nonzero" fill-opacity="1" /><path clip-path="url(#clip930)" d="M16.4842 896.807 L16.4842 887.226 L48.8219 875.1 L16.4842 862.909 L16.4842 853.329 L64.0042 853.329 L64.0042 859.599 L22.277 859.599 L54.8694 871.853 L54.8694 878.314 L22.277 890.568 L64.0042 890.568 L64.0042 896.807 L16.4842 896.807 Z" fill="#000000" fill-rule="nonzero" fill-opacity="1" /><path clip-path="url(#clip930)" d="M46.0847 824.62 Q46.0847 831.717 47.7079 834.455 Q49.3312 837.192 53.2461 837.192 Q56.3653 837.192 58.2114 835.155 Q60.0256 833.086 60.0256 829.553 Q60.0256 824.683 56.5881 821.755 Q53.1188 818.795 47.3897 818.795 L46.0847 818.795 L46.0847 824.62 M43.6657 812.939 L64.0042 812.939 L64.0042 818.795 L58.5933 818.795 Q61.8398 820.8 63.3994 823.792 Q64.9272 826.784 64.9272 831.113 Q64.9272 836.587 61.8716 839.834 Q58.7843 843.048 53.6281 843.048 Q47.6125 843.048 44.5569 839.038 Q41.5014 834.996 41.5014 827.007 L41.5014 818.795 L40.9285 818.795 Q36.8862 818.795 34.6901 821.469 Q32.4621 824.11 32.4621 828.916 Q32.4621 831.972 33.1941 834.868 Q33.9262 837.765 35.3903 840.438 L29.9795 840.438 Q28.7381 837.224 28.1334 834.2 Q27.4968 831.176 27.4968 828.312 Q27.4968 820.577 31.5072 816.758 Q35.5176 812.939 43.6657 812.939 Z" fill="#000000" fill-rule="nonzero" fill-opacity="1" /><path clip-path="url(#clip930)" d="M45.7664 777.418 Q39.4007 777.418 35.8996 780.06 Q32.3984 782.67 32.3984 787.412 Q32.3984 792.123 35.8996 794.764 Q39.4007 797.374 45.7664 797.374 Q52.1003 797.374 55.6014 794.764 Q59.1026 792.123 59.1026 787.412 Q59.1026 782.67 55.6014 780.06 Q52.1003 777.418 45.7664 777.418 M59.58 771.561 Q68.683 771.561 73.1071 775.604 Q77.5631 779.646 77.5631 787.985 Q77.5631 791.072 77.0857 793.81 Q76.6401 796.547 75.6852 799.125 L69.9879 799.125 Q71.3884 796.547 72.0568 794.032 Q72.7252 791.518 72.7252 788.908 Q72.7252 783.147 69.7015 780.282 Q66.7096 777.418 60.6303 777.418 L57.7339 777.418 Q60.885 779.232 62.4446 782.065 Q64.0042 784.898 64.0042 788.844 Q64.0042 795.401 59.0071 799.411 Q54.01 803.422 45.7664 803.422 Q37.491 803.422 32.4939 799.411 Q27.4968 795.401 27.4968 788.844 Q27.4968 784.898 29.0564 782.065 Q30.616 779.232 33.7671 777.418 L28.3562 777.418 L28.3562 771.561 L59.58 771.561 Z" fill="#000000" fill-rule="nonzero" fill-opacity="1" /><path clip-path="url(#clip930)" d="M42.4881 729.866 L64.0042 729.866 L64.0042 735.723 L42.679 735.723 Q37.6183 735.723 35.1038 737.696 Q32.5894 739.669 32.5894 743.616 Q32.5894 748.358 35.6131 751.096 Q38.6368 753.833 43.8567 753.833 L64.0042 753.833 L64.0042 759.721 L28.3562 759.721 L28.3562 753.833 L33.8944 753.833 Q30.6797 751.732 29.0883 748.9 Q27.4968 746.035 27.4968 742.311 Q27.4968 736.168 31.3163 733.017 Q35.1038 729.866 42.4881 729.866 Z" fill="#000000" fill-rule="nonzero" fill-opacity="1" /><path clip-path="url(#clip930)" d="M28.3562 718.185 L28.3562 712.329 L64.0042 712.329 L64.0042 718.185 L28.3562 718.185 M14.479 718.185 L14.479 712.329 L21.895 712.329 L21.895 718.185 L14.479 718.185 Z" fill="#000000" fill-rule="nonzero" fill-opacity="1" /><path clip-path="url(#clip930)" d="M18.2347 694.282 L28.3562 694.282 L28.3562 682.219 L32.9077 682.219 L32.9077 694.282 L52.2594 694.282 Q56.6199 694.282 57.8613 693.104 Q59.1026 691.895 59.1026 688.234 L59.1026 682.219 L64.0042 682.219 L64.0042 688.234 Q64.0042 695.014 61.4897 697.592 Q58.9434 700.17 52.2594 700.17 L32.9077 700.17 L32.9077 704.467 L28.3562 704.467 L28.3562 700.17 L18.2347 700.17 L18.2347 694.282 Z" fill="#000000" fill-rule="nonzero" fill-opacity="1" /><path clip-path="url(#clip930)" d="M49.9359 675.121 L28.3562 675.121 L28.3562 669.265 L49.7131 669.265 Q54.7739 669.265 57.3202 667.291 Q59.8346 665.318 59.8346 661.371 Q59.8346 656.629 56.8109 653.891 Q53.7872 651.122 48.5673 651.122 L28.3562 651.122 L28.3562 645.266 L64.0042 645.266 L64.0042 651.122 L58.5296 651.122 Q61.7762 653.255 63.3676 656.088 Q64.9272 658.888 64.9272 662.612 Q64.9272 668.755 61.1078 671.938 Q57.2883 675.121 49.9359 675.121 M27.4968 660.384 L27.4968 660.384 Z" fill="#000000" fill-rule="nonzero" fill-opacity="1" /><path clip-path="url(#clip930)" d="M33.7671 609.745 L14.479 609.745 L14.479 603.889 L64.0042 603.889 L64.0042 609.745 L58.657 609.745 Q61.8398 611.591 63.3994 614.424 Q64.9272 617.225 64.9272 621.172 Q64.9272 627.633 59.771 631.707 Q54.6147 635.749 46.212 635.749 Q37.8093 635.749 32.6531 631.707 Q27.4968 627.633 27.4968 621.172 Q27.4968 617.225 29.0564 614.424 Q30.5842 611.591 33.7671 609.745 M46.212 629.702 Q52.6732 629.702 56.3653 627.06 Q60.0256 624.386 60.0256 619.739 Q60.0256 615.092 56.3653 612.419 Q52.6732 609.745 46.212 609.745 Q39.7508 609.745 36.0905 612.419 Q32.3984 615.092 32.3984 619.739 Q32.3984 624.386 36.0905 627.06 Q39.7508 629.702 46.212 629.702 Z" fill="#000000" fill-rule="nonzero" fill-opacity="1" /><path clip-path="url(#clip930)" d="M44.7161 561.334 L47.5806 561.334 L47.5806 588.261 Q53.6281 587.879 56.8109 584.632 Q59.9619 581.354 59.9619 575.53 Q59.9619 572.156 59.1344 569.005 Q58.3069 565.822 56.6518 562.703 L62.1899 562.703 Q63.5267 565.854 64.227 569.164 Q64.9272 572.474 64.9272 575.88 Q64.9272 584.41 59.9619 589.407 Q54.9967 594.372 46.5303 594.372 Q37.7774 594.372 32.6531 589.661 Q27.4968 584.919 27.4968 576.898 Q27.4968 569.705 32.1438 565.535 Q36.7589 561.334 44.7161 561.334 M42.9973 567.19 Q38.1912 567.254 35.3266 569.896 Q32.4621 572.506 32.4621 576.834 Q32.4621 581.736 35.2312 584.696 Q38.0002 587.624 43.0292 588.07 L42.9973 567.19 Z" fill="#000000" fill-rule="nonzero" fill-opacity="1" /><polyline clip-path="url(#clip931)" style="stroke:#009af9; stroke-linecap:round; stroke-linejoin:round; stroke-width:4; stroke-opacity:1; fill:none" points="312.624,85.838 491.78,91.3538 631.123,101.751 700.795,110.173 760.513,119.472 830.185,132.926 889.903,146.745 999.387,177.462 1118.82,218.073 1238.26,264.063 1477.14,361.831 1576.67,401.184 1686.15,441.243 1785.68,473.72 1925.02,512.622 2004.65,531.728 2074.32,546.601 2134.04,557.723 2193.76,566.804 2243.52,572.101 2293.29,574.228 "/>
<polyline clip-path="url(#clip931)" style="stroke:#e26f46; stroke-linecap:round; stroke-linejoin:round; stroke-width:4; stroke-opacity:1; fill:none" points="311.028,188.168 509.963,184.771 626.333,181.463 708.899,179.47 772.942,179.17 825.269,180.505 869.51,183.205 907.834,186.86 941.638,191.024 971.877,195.365 999.231,199.755 1024.2,204.239 1047.18,208.902 1068.45,213.741 1088.25,218.612 1106.77,223.324 1124.17,227.779 1140.57,232.015 1156.09,236.134 1170.81,240.226 1184.82,244.365 1198.17,248.661 1210.92,253.282 1223.14,258.355 1234.86,263.77 1246.11,269.072 1256.94,273.687 1267.38,277.297 1277.45,279.95 1287.18,281.901 1296.59,283.442 1305.71,284.833 1314.54,286.308 1323.1,288.096 1331.42,290.403 1339.51,293.332 1347.37,296.767 1355.03,300.376 1362.48,303.812 1369.75,306.945 1376.83,309.883 1383.75,312.83 1390.5,315.899 1397.1,319.01 1403.55,321.915 1409.86,324.394 1416.03,326.454 1422.07,328.375 1427.99,330.63 1433.79,333.691 1439.47,337.619 1445.05,341.766 1450.51,345.324 1455.88,348.075 1461.15,350.298 1466.32,352.371 1471.4,354.578 1476.39,357.08 1481.29,359.895 1486.12,362.856 1490.86,365.607 1495.53,367.721 1500.12,368.952 1504.64,369.42 1509.09,369.538 1513.47,369.774 1517.79,370.468 1522.04,371.756 1526.23,373.567 1530.36,375.679 1534.43,377.812 1538.44,379.757 1542.4,381.451 1546.31,382.976 1550.16,384.47 1553.96,386.013 1557.71,387.582 1561.42,389.103 1565.07,390.524 1568.68,391.864 1572.25,393.188 1575.77,394.551 1579.25,395.949 1582.69,397.296 1586.08,398.447 1589.44,399.257 1592.76,399.666 1596.04,399.762 1599.28,399.732 1602.49,399.746 1605.66,399.906 1608.8,400.295 1611.9,401.061 1614.97,402.486 1618,404.934 1621.01,408.626 1623.98,413.303 1626.93,418.084 1629.84,421.739 1632.73,423.232 1635.58,422.239 1638.41,419.389 1641.21,415.965 1643.98,413.235 1646.73,412.007 1649.45,412.544 1652.14,414.654 1654.81,417.85 1657.46,421.523 1660.08,425.118 1662.68,428.222 1665.25,430.542 1667.8,431.818 1670.33,431.747 1672.84,430.04 1675.32,426.744 1677.79,422.651 1680.23,419.219 1682.65,417.721 1685.05,418.425 1687.43,420.631 1689.8,423.257 1692.14,425.344 1694.46,426.268 1696.77,425.759 1699.06,423.872 1701.32,420.954 1703.58,417.567 1705.81,414.284 1708.03,411.44 1710.22,409.313 1712.41,408.649 1714.57,409.81 1716.72,410.424 1718.86,406.3 1720.98,397.718 1723.08,388.982 1725.17,382.913 1727.24,380.386 1729.29,381.708 1731.34,387.435 1733.37,398.831 1735.38,418.617 1737.38,453.778 1739.37,530.827 1741.34,494.143 1743.3,451.011 1745.24,435.61 1747.18,434.87 1749.1,444.57 1751,461.953 1752.9,485.408 1754.78,514.614 1756.65,541.489 1758.51,532.469 1760.35,504.986 1762.19,481.525 1764.01,462.634 1765.82,447.178 1767.62,434.929 1769.41,426.227 1771.18,421.275 1772.95,419.723 1774.71,420.798 1776.45,423.589 1778.18,427.236 1779.91,431.212 1781.62,435.678 1783.32,441.156 1785.02,446.576 1786.7,446.862 1788.37,438.537 1790.04,427.692 1791.69,420.974 1793.34,420.452 1794.97,425.562 1796.6,434.355 1798.22,444 1799.82,451.93 1801.42,457.267 1803.01,460.205 1804.59,460.46 1806.17,457.738 1807.73,452.983 1809.29,447.858 1810.83,443.539 1812.37,440.475 1813.9,438.733 1815.43,438.326 1816.94,439.384 1818.45,442.228 1819.95,447.372 1821.44,455.313 1822.92,465.833 1824.4,477.037 1825.86,486.151 1827.32,492.207 1828.78,495.426 1830.22,494.625 1831.66,487.784 1833.09,475.659 1834.52,461.936 1835.93,449.594 1837.34,439.695 1838.75,432.157 1840.15,426.475 1841.53,422.035 1842.92,418.25 1844.29,414.793 1845.66,411.865 1847.03,410.059 1848.38,409.824 1849.74,411.234 1851.08,414.238 1852.42,418.966 1853.75,425.782 1855.08,434.945 1856.39,445.577 1857.71,454.232 1859.02,456.942 1860.32,455.391 1861.61,454.892 1862.9,459.059 1864.19,469.581 1865.47,485.777 1866.74,498.828 1868.01,496.511 1869.27,489.969 1870.52,492.186 1871.77,509.774 1873.02,559.384 1874.26,578.911 1875.49,510.002 1876.72,481.437 1877.95,468.037 1879.16,462.596 1880.38,461.41 1881.59,461.801 1882.79,461.343 1883.99,458.163 1885.18,452.072 1886.37,444.603 1887.55,437.645 1888.73,432.541 1889.91,430.065 1891.08,430.627 1892.24,434.283 1893.4,440.494 1894.55,447.826 1895.7,454.239 1896.85,458.44 1897.99,460.89 1899.13,462.925 1900.26,465.271 1901.39,466.959 1902.51,464.987 1903.63,457.273 1904.74,446.566 1905.85,437.23 1906.96,431.177 1908.06,427.856 1909.16,425.72 1910.25,423.701 1911.34,421.591 1912.43,419.651 1913.51,418.53 1914.59,419.115 1915.66,421.756 1916.73,424.738 1917.79,423.484 1918.85,416.334 1919.91,408.721 1920.96,405.615 1922.01,408.206 1923.06,415.359 1924.1,424.579 1925.14,432.271 1926.17,434.685 1927.2,430.226 1928.23,420.532 1929.25,408.882 1930.27,398.264 1931.29,390.366 1932.3,385.516 1933.31,383.224 1934.32,382.794 1935.32,383.694 1936.32,385.651 1937.31,388.606 1938.3,392.627 1939.29,397.793 1940.27,403.877 1941.26,410.179 1942.23,416.455 1943.21,423.984 1944.18,434.852 1945.15,450.655 1946.11,471.375 1947.07,491.088 1948.03,494.9 1948.99,485.585 1949.94,477.749 1950.89,475.687 1951.83,476.92 1952.78,472.531 1953.71,457.515 1954.65,439.817 1955.58,425.239 1956.51,414.515 1957.44,406.916 1958.37,401.678 1959.29,398.348 1960.21,396.832 1961.12,397.309 1962.03,400.005 1962.94,404.94 1963.85,411.79 1964.75,419.929 1965.66,428.548 1966.55,436.719 1967.45,443.354 1968.34,447.415 1969.23,448.721 1970.12,448.457 1971,448.364 1971.89,449.572 1972.76,452.13 1973.64,455.052 1974.51,456.585 1975.39,454.996 1976.25,449.904 1977.12,442.595 1977.98,434.712 1978.84,427.293 1979.7,420.958 1980.56,416.457 1981.41,414.898 1982.26,417.603 1983.11,425.795 1983.95,440.169 1984.8,460.05 1985.64,481.223 1986.47,493.009 1987.31,485.715 1988.14,465.454 1988.97,442.971 1989.8,423.117 1990.63,407.146 1991.45,395.287 1992.27,387.654 1993.09,384.463 1993.91,386.125 1994.72,393.432 1995.53,407.831 1996.34,431.12 1997.15,457.186 1997.96,453.054 1998.76,433.593 1999.56,421.815 2000.36,416.643 2001.15,413.894 2001.95,410.49 2002.74,405.91 2003.53,401.385 2004.32,398.201 2005.1,397.097 2005.89,398.338 2006.67,401.806 2007.45,407.062 2008.22,413.353 2009,419.495 2009.77,423.94 2010.54,426.061 2011.31,427.594 2012.07,431.719 2012.84,441.629 2013.6,460.908 2014.36,496.484 2015.12,577.339 2015.88,564.091 2016.63,518.331 2017.38,506.05 2018.13,507.921 2018.88,518.702 2019.63,533.6 2020.37,540.547 2021.11,527.496 2021.86,504.194 2022.59,480.687 2023.33,459.387 2024.07,440.621 2024.8,424.699 2025.53,412.066 2026.26,403.014 2026.99,397.614 2027.71,395.815 2028.44,397.513 2029.16,402.467 2029.88,410.037 2030.6,418.765 2031.31,425.897 2032.03,427.245 2032.74,419.938 2033.45,406.87 2034.16,393.269 2034.87,381.966 2035.58,373.693 2036.28,368.343 2036.98,365.562 2037.68,364.922 2038.38,365.977 2039.08,368.378 2039.78,372.111 2040.47,377.718 2041.16,386.318 2041.85,399.462 2042.54,418.994 2043.23,446.931 2043.92,484.32 2044.6,517.351 2045.28,510.844 2045.96,495.286 2046.64,488.206 2047.32,490.229 2048,500.947 2048.67,518.39 2049.34,535.102 2050.02,545.3 2050.68,561.696 2051.35,604.335 2052.02,567.463 2052.69,510.599 2053.35,475.003 2054.01,449.803 2054.67,430.973 2055.33,416.624 2055.99,405.616 2056.64,397.115 2057.3,390.418 2057.95,384.89 2058.6,380.029 2059.25,375.665 2059.9,372.064 2060.55,369.672 2061.19,368.704 2061.84,369.004 2062.48,370.208 2063.12,371.94 2063.76,373.873 2064.4,375.736 2065.04,377.442 2065.67,379.351 2066.31,382.322 2066.94,387.354 2067.57,395.138 2068.2,405.806 2068.83,418.675 2069.46,431.679 2070.08,441.153 2070.71,444.233 2071.33,441.99 2071.95,437.448 2072.57,433.013 2073.19,430.932 2073.81,434.198 2074.43,447.044 2075.04,473.272 2075.66,477.781 2076.27,441.26 2076.88,416.202 2077.49,402.933 2078.1,397.261 2078.71,396.381 2079.31,398.38 2079.92,401.901 2080.52,405.888 2081.12,409.302 2081.73,410.982 2082.33,409.96 2082.92,406.242 2083.52,401.114 2084.12,396.303 2084.71,392.995 2085.31,391.579 2085.9,391.843 2086.49,393.233 2087.08,395.247 2087.67,397.973 2088.26,402.443 2088.84,410.551 2089.43,424.893 2090.01,449.307 2090.59,491.918 2091.17,542.862 2091.76,490.225 2092.33,455.507 2092.91,433.767 2093.49,418.473 2094.07,407.66 2094.64,400.833 2095.21,397.927 2095.79,398.83 2096.36,403.015 2096.93,409.314 2097.5,416.367 2098.06,423.726 2098.63,432.268 2099.2,443.586 2099.76,459.699 2100.32,484.025 2100.89,526.354 2101.45,618.183 2102.01,522.256 2102.57,476.334 2103.12,446.922 2103.68,424.626 2104.24,406.947 2104.79,393.369 2105.34,384.031 2105.9,379.043 2106.45,378.088 2107,380.298 2107.55,384.288 2108.1,388.405 2108.64,391.47 2109.19,393.541 2109.73,395.74 2110.28,399.605 2110.82,406.957 2111.36,420.266 2111.9,443.427 2112.44,481.353 2112.98,494.442 2113.52,457.786 2114.06,432.622 2114.59,416.694 2115.13,405.798 2115.66,398.078 2116.2,392.807 2116.73,389.72 2117.26,388.762 2117.79,389.974 2118.32,393.39 2118.85,398.952 2119.37,406.465 2119.9,415.609 2120.42,426.024 2120.95,437.855 2121.47,452.58 2121.99,472.705 2122.52,499.608 2123.04,527.869 2123.56,530.74 2124.07,494.343 2124.59,455.127 2125.11,425.608 2125.62,405.46 2126.14,392.718 2126.65,385.451 2127.17,382.122 2127.68,381.695 2128.19,383.573 2128.7,387.423 2129.21,392.901 2129.72,399.291 2130.22,405.093 2130.73,407.802 2131.24,404.967 2131.74,396.686 2132.25,385.821 2132.75,375.426 2133.25,367.389 2133.75,362.6 2134.25,361.312 2134.75,363.311 2135.25,367.949 2135.75,374.179 2136.25,380.712 2136.74,386.376 2137.24,390.509 2137.73,393.072 2138.22,394.38 2138.72,394.738 2139.21,394.355 2139.7,393.635 2140.19,393.301 2140.68,393.88 2141.17,395.215 2141.66,396.808 2142.14,398.639 2142.63,401.507 2143.11,406.732 2143.6,415.929 2144.08,431.232 2144.56,455.405 2145.05,483.486 2145.53,473.87 2146.01,446.194 2146.49,427.169 2146.97,415.891 2147.44,410.416 2147.92,409.75 2148.4,413.283 2148.87,420.177 2149.35,428.658 2149.82,435.559 2150.3,437.926 2150.77,436.447 2151.24,434.689 2151.71,435.144 2152.18,436.715 2152.65,434.054 2153.12,424.272 2153.59,412.663 2154.05,404.776 2154.52,402.934 2154.99,407.919 2155.45,419.989 2155.91,439.162 2156.38,465.126 2156.84,495.384 2157.3,517.37 2157.76,517.099 2158.22,507.265 2158.68,495.659 2159.14,481.107 2159.6,463.671 2160.06,445.48 2160.51,428.093 2160.97,411.999 2161.42,397.389 2161.88,384.663 2162.33,374.426 2162.79,367.28 2163.24,363.738 2163.69,364.286 2164.14,369.452 2164.59,379.658 2165.04,394.626 2165.49,412.206 2165.94,427.437 2166.38,435.468 2166.83,436.97 2167.28,436.255 2167.72,437.159 2168.17,442.469 2168.61,454.591 2169.05,476.469 2169.5,510.532 2169.94,524.35 2170.38,493.498 2170.82,466.986 2171.26,444.378 2171.7,422.8 2172.14,403.753 2172.58,388.856 2173.01,378.492 2173.45,372.375 2173.89,370.015 2174.32,370.781 2174.76,373.805 2175.19,377.974 2175.62,382.223 2176.06,385.937 2176.49,388.95 2176.92,391.13 2177.35,392.038 2177.78,391.121 2178.21,388.392 2178.64,384.75 2179.06,381.438 2179.49,379.398 2179.92,379.176 2180.35,381.153 2180.77,385.784 2181.2,393.688 2181.62,405.597 2182.04,422.314 2182.47,444.897 2182.89,474.255 2183.31,496.858 2183.73,476.694 2184.15,448.139 2184.57,427.949 2184.99,415.303 2185.41,408.656 2185.83,406.794 2186.25,408.819 2186.66,414.161 2187.08,422.591 2187.49,434.008 2187.91,447.37 2188.32,457.695 2188.74,456.447 2189.15,444.707 2189.56,430.953 2189.98,419.794 2190.39,412.613 2190.8,409.24 2191.21,408.545 2191.62,409.232 2192.03,411.155 2192.44,415.869 2192.84,425.682 2193.25,442.424 2193.66,464.224 2194.06,472.578 2194.47,455.471 2194.87,435.174 2195.28,419.11 2195.68,406.902 2196.09,397.85 2196.49,391.664 2196.89,388.336 2197.29,387.91 2197.69,390.275 2198.1,395.046 2198.5,401.539 2198.89,408.72 2199.29,415.119 2199.69,418.999 2200.09,419.415 2200.49,417.611 2200.88,416.469 2201.28,418.541 2201.68,425.032 2202.07,435.526 2202.46,446.677 2202.86,451.072 2203.25,445.681 2203.65,437.404 2204.04,432.096 2204.43,431.63 2204.82,436.028 2205.21,444.142 2205.6,453.276 2205.99,459.338 2206.38,459.614 2206.77,455.962 2207.16,453.005 2207.54,454.47 2207.93,460.458 2208.32,462.527 2208.7,451.678 2209.09,437.063 2209.47,426.403 2209.86,420.003 2210.24,416.223 2210.63,413.289 2211.01,409.553 2211.39,403.822 2211.77,395.981 2212.16,387.063 2212.54,378.506 2212.92,371.549 2213.3,367.134 2213.68,365.993 2214.05,368.693 2214.43,375.618 2214.81,386.796 2215.19,401.241 2215.57,415.318 2215.94,422.082 2216.32,418.804 2216.69,411.475 2217.07,405.923 2217.44,404.726 2217.82,408.789 2218.19,418.269 2218.56,432.564 2218.94,449.161 2219.31,461.335 2219.68,461.57 2220.05,452.299 2220.42,440.05 2220.79,427.473 2221.16,414.421 2221.53,400.11 2221.9,384.766 2222.27,369.845 2222.63,357.083 2223,347.689 2223.37,342.105 2223.73,340.18 2224.1,341.502 2224.47,345.595 2224.83,351.903 2225.19,359.644 2225.56,367.743 2225.92,375.028 2226.29,380.62 2226.65,384.029 2227.01,384.845 2227.37,383.085 2227.73,380.395 2228.09,379.695 2228.45,383.423 2228.81,393.088 2229.17,410.341 2229.53,439.338 2229.89,497.113 2230.25,543.962 2230.61,461.639 2230.96,429.579 2231.32,410.681 2231.68,397.64 2232.03,387.826 2232.39,380.258 2232.74,374.78 2233.1,371.649 2233.45,371.25 2233.81,373.89 2234.16,379.7 2234.51,388.578 2234.86,399.882 2235.22,411.48 2235.57,419.145 2235.92,420.322 2236.27,418.303 2236.62,417.906 2236.97,422.075 2237.32,432.767 2237.67,451.209 2238.02,466.634 2238.36,447.414 2238.71,418.105 2239.06,396.445 2239.41,381.864 2239.75,372.368 2240.1,366.455 2240.44,363.309 2240.79,362.816 2241.13,365.464 2241.48,372.187 2241.82,384.136 2242.17,402.269 2242.51,426.319 2242.85,452.105 2243.19,469.243 2243.54,471.159 2243.88,462.721 2244.22,451.937 2244.56,444.306 2244.9,441.488 2245.24,442.715 2245.58,446.376 2245.92,452.331 2246.26,464.159 2246.59,487.044 2246.93,493.941 2247.27,456.589 2247.61,427.603 2247.94,410.239 2248.28,400.737 2248.62,396.91 2248.95,397.729 2249.29,402.841 2249.62,411.942 2249.95,423.566 2250.29,433.396 2250.62,435.478 2250.96,429.004 2251.29,418.123 2251.62,405.709 2251.95,392.716 2252.28,379.722 2252.62,367.728 2252.95,358.12 2253.28,352.113 2253.61,350.099 2253.94,351.369 2254.27,354.41 2254.59,357.422 2254.92,358.801 2255.25,358.013 2255.58,356.19 2255.91,355.179 2256.23,356.425 2256.56,360.827 2256.89,368.98 2257.21,381.163 2257.54,396.745 2257.86,412.656 2258.19,422.728 2258.51,424.331 2258.84,422.642 2259.16,422.536 2259.48,425.238 2259.81,429.331 2260.13,431.562 2260.45,429.257 2260.77,423.41 2261.1,417.038 2261.42,412.079 2261.74,409.006 2262.06,407.536 2262.38,407.222 2262.7,407.806 2263.02,409.369 2263.34,412.365 2263.66,417.639 2263.97,426.38 2264.29,439.8 2264.61,456.831 2264.93,465.233 2265.24,452.255 2265.56,433.948 2265.88,420.207 2266.19,411.385 2266.51,406.057 2266.82,402.572 2267.14,399.483 2267.45,396.07 2267.77,392.065 2268.08,386.699 2268.39,379.246 2268.71,370.636 2269.02,362.927 2269.33,357.584 2269.64,355.053 2269.96,355.22 2270.27,357.84 2270.58,362.675 2270.89,369.3 2271.2,376.673 2271.51,383.193 2271.82,388.179 2272.13,393.166 2272.44,400.735 2272.75,412.785 2273.06,429.11 2273.36,443.23 2273.67,442.185 2273.98,428.822 2274.29,414.267 2274.59,402.14 2274.9,392.917 2275.21,386.616 2275.51,383.22 2275.82,382.692 2276.12,385.025 2276.43,390.41 2276.73,399.403 2277.04,412.889 2277.34,431.682 2277.64,455.475 2277.95,479.424 2278.25,488.709 2278.55,480.758 2278.85,472.815 2279.16,471.428 2279.46,471.189 2279.76,460.255 2280.06,441.847 2280.36,426.223 2280.66,416.091 2280.96,410.711 2281.26,408.731 2281.56,408.75 2281.86,409.293 2282.16,409.171 2282.46,408.501 2282.75,408.741 2283.05,411.367 2283.35,417.051 2283.65,425.719 2283.94,436.689 2284.24,448.831 2284.54,462.048 2284.83,480.897 2285.13,521.492 2285.42,568.06 2285.72,487.614 2286.01,455.806 2286.31,443.779 2286.6,443.089 2286.9,448.179 2287.19,454.185 2287.48,461.297 2287.78,476.369 2288.07,509.192 2288.36,526.854 2288.65,484.127 2288.95,459.916 2289.24,452.024 2289.53,457.197 2289.82,475.394 2290.11,499.202 2290.4,489.703 2290.69,467.59 2290.98,457.418 2291.27,457.754 2291.56,460.684 2291.85,453.549 2292.14,439.049 2292.42,429.139 2292.71,429.645 2293,445.144 2293.29,481.435 "/>
<polyline clip-path="url(#clip931)" style="stroke:#3da44d; stroke-linecap:round; stroke-linejoin:round; stroke-width:4; stroke-opacity:1; fill:none" points="311.028,478.397 509.963,485.542 626.333,497.459 708.899,513.947 772.942,534.409 825.269,557.615 869.51,581.525 907.834,603.578 941.638,621.652 971.877,635.032 999.231,644.46 1024.2,651.479 1047.18,657.821 1068.45,664.901 1088.25,673.328 1106.77,682.649 1124.17,691.659 1140.57,699.277 1156.09,705.359 1170.81,710.62 1184.82,715.738 1198.17,720.617 1210.92,724.619 1223.14,727.748 1234.86,731.48 1246.11,737.908 1256.94,748.141 1267.38,761.729 1277.45,777.124 1287.18,792.3 1296.59,805.148 1305.71,813.833 1314.54,817.473 1323.1,817.029 1331.42,815.31 1339.51,815.678 1347.37,820.478 1355.03,830.024 1362.48,842.478 1369.75,854.894 1376.83,865.243 1383.75,873.95 1390.5,883.305 1397.1,895.608 1403.55,911.721 1409.86,930.433 1416.03,948.52 1422.07,961.917 1427.99,968.428 1433.79,970.039 1439.47,971.288 1445.05,974.641 1450.51,977.939 1455.88,977.092 1461.15,970.828 1466.32,961.652 1471.4,953.177 1476.39,948.205 1481.29,948.47 1486.12,954.831 1490.86,967.269 1495.53,984.693 1500.12,1004.86 1504.64,1024.7 1509.09,1040.82 1513.47,1050.36 1517.79,1052.8 1522.04,1051.12 1526.23,1049.56 1530.36,1050.98 1534.43,1056.23 1538.44,1064.6 1542.4,1074.38 1546.31,1083.33 1550.16,1089.42 1553.96,1091.79 1557.71,1090.75 1561.42,1087.1 1565.07,1081.82 1568.68,1076.03 1572.25,1071 1575.77,1067.85 1579.25,1067.34 1582.69,1069.84 1586.08,1075.33 1589.44,1083.47 1592.76,1093.63 1596.04,1104.78 1599.28,1115.38 1602.49,1123.84 1605.66,1129.28 1608.8,1131.92 1611.9,1132.55 1614.97,1132.03 1618,1131.16 1621.01,1130.78 1623.98,1131.51 1626.93,1133.35 1629.84,1135.68 1632.73,1138.13 1635.58,1141.03 1638.41,1145.15 1641.21,1150.82 1643.98,1157.53 1646.73,1164.24 1649.45,1170.29 1652.14,1175.96 1654.81,1182.2 1657.46,1189.6 1660.08,1197.65 1662.68,1204.38 1665.25,1206.78 1667.8,1202.41 1670.33,1191.39 1672.84,1176.42 1675.32,1160.79 1677.79,1146.86 1680.23,1135.79 1682.65,1127.98 1685.05,1123.64 1687.43,1122.88 1689.8,1125.47 1692.14,1130.59 1694.46,1136.6 1696.77,1141.31 1699.06,1142.78 1701.32,1140.55 1703.58,1135.96 1705.81,1131.26 1708.03,1128.44 1710.22,1128.57 1712.41,1131.67 1714.57,1137 1716.72,1143.79 1718.86,1151.68 1720.98,1160.11 1723.08,1167.17 1725.17,1169.09 1727.24,1162.59 1729.29,1148.76 1731.34,1132.23 1733.37,1117.34 1735.38,1106.54 1737.38,1100.76 1739.37,1099.93 1741.34,1103.2 1743.3,1109.07 1745.24,1115.57 1747.18,1120.93 1749.1,1124.4 1751,1126.38 1752.9,1127.69 1754.78,1129.13 1756.65,1131.21 1758.51,1134.13 1760.35,1137.78 1762.19,1141.85 1764.01,1146.04 1765.82,1150.28 1767.62,1154.69 1769.41,1159.28 1771.18,1163.68 1772.95,1167.25 1774.71,1169.49 1776.45,1170.35 1778.18,1170.15 1779.91,1169.25 1781.62,1167.89 1783.32,1166.28 1785.02,1165.02 1786.7,1165.02 1788.37,1167.06 1790.04,1171.25 1791.69,1176.94 1793.34,1183.29 1794.97,1190.03 1796.6,1197.41 1798.22,1205.49 1799.82,1213.68 1801.42,1221.09 1803.01,1227.19 1804.59,1232.24 1806.17,1237.03 1807.73,1242.42 1809.29,1248.98 1810.83,1256.72 1812.37,1264.95 1813.9,1272.43 1815.43,1277.88 1816.94,1280.79 1818.45,1281.84 1819.95,1282.55 1821.44,1284.48 1822.92,1288.56 1824.4,1294.7 1825.86,1301.8 1827.32,1308.17 1828.78,1312.13 1830.22,1312.52 1831.66,1309.26 1833.09,1303.41 1834.52,1296.39 1835.93,1289.17 1837.34,1281.9 1838.75,1274.27 1840.15,1265.91 1841.53,1256.91 1842.92,1247.89 1844.29,1239.57 1845.66,1232.36 1847.03,1226.11 1848.38,1220.42 1849.74,1214.94 1851.08,1209.6 1852.42,1204.6 1853.75,1200.33 1855.08,1197.26 1856.39,1195.79 1857.71,1196.18 1859.02,1198.5 1860.32,1202.61 1861.61,1208.09 1862.9,1214.34 1864.19,1220.76 1865.47,1226.96 1866.74,1232.79 1868.01,1237.95 1869.27,1241.6 1870.52,1242.52 1871.77,1240.11 1873.02,1235.11 1874.26,1229.02 1875.49,1223.18 1876.72,1218.38 1877.95,1215.19 1879.16,1214.11 1880.38,1215.61 1881.59,1219.99 1882.79,1227.41 1883.99,1237.79 1885.18,1250.74 1886.37,1265.37 1887.55,1280.05 1888.73,1292.16 1889.91,1298.59 1891.08,1297.55 1892.24,1289.97 1893.4,1278.46 1894.55,1265.33 1895.7,1252.03 1896.85,1239.41 1897.99,1228.01 1899.13,1218.26 1900.26,1210.52 1901.39,1205.18 1902.51,1202.67 1903.63,1203.37 1904.74,1207.48 1905.85,1214.9 1906.96,1225.17 1908.06,1237.55 1909.16,1250.78 1910.25,1262.86 1911.34,1271.28 1912.43,1274.02 1913.51,1270.44 1914.59,1261.46 1915.66,1249.16 1916.73,1236.2 1917.79,1224.84 1918.85,1216.42 1919.91,1211.26 1920.96,1209.23 1922.01,1210.23 1923.06,1214.29 1924.1,1221.15 1925.14,1229.86 1926.17,1238.74 1927.2,1246.01 1928.23,1250.89 1929.25,1254.05 1930.27,1256.7 1931.29,1259.45 1932.3,1262.13 1933.31,1264.2 1934.32,1265.07 1935.32,1264.31 1936.32,1261.68 1937.31,1257.35 1938.3,1251.89 1939.29,1246.15 1940.27,1241.01 1941.26,1237.08 1942.23,1234.48 1943.21,1232.79 1944.18,1231.46 1945.15,1230.19 1946.11,1229.02 1947.07,1228.07 1948.03,1227.24 1948.99,1226.17 1949.94,1224.44 1950.89,1221.9 1951.83,1218.89 1952.78,1216.13 1953.71,1214.42 1954.65,1214.35 1955.58,1216.19 1956.51,1220.02 1957.44,1225.7 1958.37,1232.99 1959.29,1241.41 1960.21,1250.28 1961.12,1258.65 1962.03,1265.51 1962.94,1270.19 1963.85,1272.77 1964.75,1274.06 1965.66,1275.27 1966.55,1277.59 1967.45,1281.99 1968.34,1289.08 1969.23,1298.94 1970.12,1310.85 1971,1322.97 1971.89,1332.4 1972.76,1336.27 1973.64,1333.54 1974.51,1325.4 1975.39,1313.87 1976.25,1300.59 1977.12,1286.75 1977.98,1273.41 1978.84,1261.64 1979.7,1252.33 1980.56,1245.96 1981.41,1242.54 1982.26,1241.71 1983.11,1242.89 1983.95,1245.4 1984.8,1248.32 1985.64,1250.45 1986.47,1250.8 1987.31,1249.19 1988.14,1246.31 1988.97,1243.15 1989.8,1240.42 1990.63,1238.39 1991.45,1236.85 1992.27,1235.22 1993.09,1232.64 1993.91,1228.46 1994.72,1222.66 1995.53,1216.06 1996.34,1209.9 1997.15,1205.26 1997.96,1202.63 1998.76,1201.97 1999.56,1203.01 2000.36,1205.52 2001.15,1209.24 2001.95,1213.74 2002.74,1218.37 2003.53,1222.51 2004.32,1225.77 2005.1,1227.81 2005.89,1228.13 2006.67,1225.83 2007.45,1220.16 2008.22,1211.26 2009,1200.5 2009.77,1189.87 2010.54,1181.14 2011.31,1175.5 2012.07,1173.59 2012.84,1175.68 2013.6,1181.72 2014.36,1191.42 2015.12,1204.12 2015.88,1218.75 2016.63,1233.9 2017.38,1248.11 2018.13,1260.19 2018.88,1269.39 2019.63,1275.15 2020.37,1277.01 2021.11,1274.9 2021.86,1269.55 2022.59,1262.45 2023.33,1255.14 2024.07,1248.78 2024.8,1243.99 2025.53,1240.8 2026.26,1238.8 2026.99,1237.23 2027.71,1235.33 2028.44,1232.74 2029.16,1229.69 2029.88,1226.86 2030.6,1224.89 2031.31,1224.18 2032.03,1224.83 2032.74,1226.83 2033.45,1230.09 2034.16,1234.25 2034.87,1238.47 2035.58,1241.36 2036.28,1241.47 2036.98,1238.24 2037.68,1232.57 2038.38,1226.33 2039.08,1221.27 2039.78,1218.44 2040.47,1218.23 2041.16,1220.62 2041.85,1225.56 2042.54,1232.99 2043.23,1242.83 2043.92,1254.72 2044.6,1268.07 2045.28,1282.26 2045.96,1296.85 2046.64,1311.46 2047.32,1325.49 2048,1337.81 2048.67,1346.62 2049.34,1349.92 2050.02,1347 2050.68,1339.32 2051.35,1329.4 2052.02,1319.08 2052.69,1308.98 2053.35,1298.94 2054.01,1288.61 2054.67,1277.89 2055.33,1267.06 2055.99,1256.66 2056.64,1247.32 2057.3,1239.6 2057.95,1233.94 2058.6,1230.58 2059.25,1229.53 2059.9,1230.55 2060.55,1233.23 2061.19,1237.12 2061.84,1241.96 2062.48,1247.65 2063.12,1254.26 2063.76,1261.84 2064.4,1270.3 2065.04,1279.14 2065.67,1287.36 2066.31,1293.61 2066.94,1297.21 2067.57,1298.95 2068.2,1300.56 2068.83,1303.58 2069.46,1308.62 2070.08,1315.16 2070.71,1321.69 2071.33,1325.97 2071.95,1325.72 2072.57,1319.36 2073.19,1306.6 2073.81,1288.82 2074.43,1268.77 2075.04,1249.52 2075.66,1233.33 2076.27,1221.34 2076.88,1213.82 2077.49,1210.64 2078.1,1211.59 2078.71,1216.5 2079.31,1225.08 2079.92,1236.82 2080.52,1250.85 2081.12,1265.82 2081.73,1280.08 2082.33,1292.21 2082.92,1301.63 2083.52,1308.72 2084.12,1314.06 2084.71,1317.73 2085.31,1319.23 2085.9,1317.96 2086.49,1313.73 2087.08,1306.91 2087.67,1298.27 2088.26,1288.93 2088.84,1280.25 2089.43,1273.63 2090.01,1270.05 2090.59,1269.81 2091.17,1272.43 2091.76,1276.86 2092.33,1282.08 2092.91,1287.59 2093.49,1293.56 2094.07,1300.37 2094.64,1307.94 2095.21,1315.26 2095.79,1320.68 2096.36,1322.68 2096.93,1320.47 2097.5,1314.04 2098.06,1304.24 2098.63,1292.87 2099.2,1282.14 2099.76,1273.86 2100.32,1269.06 2100.89,1268.09 2101.45,1270.59 2102.01,1275.5 2102.57,1281.13 2103.12,1285.51 2103.68,1287.4 2104.24,1286.96 2104.79,1285.43 2105.34,1283.98 2105.9,1283.14 2106.45,1282.86 2107,1282.82 2107.55,1282.65 2108.1,1282.03 2108.64,1280.74 2109.19,1278.75 2109.73,1276.35 2110.28,1274.1 2110.82,1272.72 2111.36,1272.93 2111.9,1275.42 2112.44,1280.6 2112.98,1288.47 2113.52,1298.31 2114.06,1308.81 2114.59,1318.4 2115.13,1325.81 2115.66,1330.25 2116.2,1331.36 2116.73,1329.2 2117.26,1324.35 2117.79,1317.9 2118.32,1311.15 2118.85,1305.14 2119.37,1300.43 2119.9,1297.2 2120.42,1295.4 2120.95,1294.96 2121.47,1295.88 2121.99,1298.26 2122.52,1302.2 2123.04,1307.37 2123.56,1312.83 2124.07,1317.38 2124.59,1320.5 2125.11,1322.76 2125.62,1325.09 2126.14,1327.98 2126.65,1331.57 2127.17,1335.93 2127.68,1341.07 2128.19,1346.49 2128.7,1350.71 2129.21,1351.37 2129.72,1346.31 2130.22,1335.37 2130.73,1320.76 2131.24,1305.53 2131.74,1292.11 2132.25,1281.91 2132.75,1275.48 2133.25,1272.74 2133.75,1273.08 2134.25,1275.55 2134.75,1279.03 2135.25,1282.56 2135.75,1285.49 2136.25,1287.54 2136.74,1288.67 2137.24,1289.01 2137.73,1288.73 2138.22,1288.15 2138.72,1287.73 2139.21,1288.04 2139.7,1289.58 2140.19,1292.57 2140.68,1296.92 2141.17,1302.32 2141.66,1308.15 2142.14,1313.23 2142.63,1315.92 2143.11,1315.02 2143.6,1310.73 2144.08,1304.34 2144.56,1297.27 2145.05,1290.43 2145.53,1284.32 2146.01,1279.39 2146.49,1276.27 2146.97,1275.61 2147.44,1277.87 2147.92,1283.25 2148.4,1291.55 2148.87,1302.06 2149.35,1313.17 2149.82,1322.09 2150.3,1325.23 2150.77,1320.61 2151.24,1309.79 2151.71,1296.65 2152.18,1284.72 2152.65,1276.25 2153.12,1272.33 2153.59,1273.26 2154.05,1278.71 2154.52,1288.02 2154.99,1300.38 2155.45,1315.13 2155.91,1331.65 2156.38,1348.78 2156.84,1363.85 2157.3,1372.3 2157.76,1369.99 2158.22,1357.32 2158.68,1338.9 2159.14,1319.3 2159.6,1301.29 2160.06,1286.17 2160.51,1274.47 2160.97,1266.27 2161.42,1261.42 2161.88,1259.48 2162.33,1259.65 2162.79,1260.81 2163.24,1261.69 2163.69,1261.53 2164.14,1260.67 2164.59,1260.36 2165.04,1262.05 2165.49,1266.57 2165.94,1273.87 2166.38,1283.13 2166.83,1293.07 2167.28,1302.46 2167.72,1310.49 2168.17,1317.05 2168.61,1322.39 2169.05,1326.69 2169.5,1329.71 2169.94,1330.89 2170.38,1329.73 2170.82,1326.28 2171.26,1321.36 2171.7,1316.16 2172.14,1311.64 2172.58,1308.12 2173.01,1305.31 2173.45,1302.73 2173.89,1300.18 2174.32,1297.97 2174.76,1296.6 2175.19,1296.29 2175.62,1296.72 2176.06,1297.22 2176.49,1297.19 2176.92,1296.37 2177.35,1294.73 2177.78,1292.26 2178.21,1288.92 2178.64,1284.76 2179.06,1280.18 2179.49,1275.81 2179.92,1272.26 2180.35,1269.91 2180.77,1268.78 2181.2,1268.79 2181.62,1269.81 2182.04,1271.75 2182.47,1274.39 2182.89,1277.33 2183.31,1280.05 2183.73,1282.22 2184.15,1283.94 2184.57,1285.76 2184.99,1288.27 2185.41,1291.79 2185.83,1296.22 2186.25,1301.03 2186.66,1305.37 2187.08,1308.22 2187.49,1308.69 2187.91,1306.46 2188.32,1301.95 2188.74,1296.15 2189.15,1290.16 2189.56,1284.96 2189.98,1281.05 2190.39,1278.44 2190.8,1276.79 2191.21,1275.67 2191.62,1274.5 2192.03,1272.55 2192.44,1269.24 2192.84,1264.75 2193.25,1260.18 2193.66,1256.98 2194.06,1256.31 2194.47,1258.86 2194.87,1264.84 2195.28,1273.92 2195.68,1285.09 2196.09,1296.45 2196.49,1305.49 2196.89,1310.3 2197.29,1310.98 2197.69,1309.48 2198.1,1308.07 2198.5,1308.13 2198.89,1309.85 2199.29,1312.48 2199.69,1314.86 2200.09,1316.13 2200.49,1316.14 2200.88,1315.38 2201.28,1314.55 2201.68,1314.27 2202.07,1314.95 2202.46,1316.64 2202.86,1319.15 2203.25,1322.18 2203.65,1325.53 2204.04,1329.18 2204.43,1333.33 2204.82,1338.25 2205.21,1344.04 2205.6,1350.25 2205.99,1355.93 2206.38,1360.05 2206.77,1361.87 2207.16,1361.05 2207.54,1357.67 2207.93,1352.49 2208.32,1346.87 2208.7,1342.04 2209.09,1338.49 2209.47,1336.11 2209.86,1334.76 2210.24,1334.52 2210.63,1335.59 2211.01,1338.21 2211.39,1342.46 2211.77,1348.05 2212.16,1354.04 2212.54,1358.8 2212.92,1360.31 2213.3,1356.83 2213.68,1348.12 2214.05,1335.96 2214.43,1323.28 2214.81,1312.44 2215.19,1304.49 2215.57,1299.33 2215.94,1296.33 2216.32,1294.94 2216.69,1294.95 2217.07,1296.32 2217.44,1299.02 2217.82,1303.08 2218.19,1308.61 2218.56,1315.54 2218.94,1323.07 2219.31,1329.34 2219.68,1331.66 2220.05,1328.05 2220.42,1318.79 2220.79,1306.22 2221.16,1293.14 2221.53,1281.75 2221.9,1273.49 2222.27,1269.19 2222.63,1269.19 2223,1273.2 2223.37,1280.1 2223.73,1287.88 2224.1,1294.21 2224.47,1297.65 2224.83,1298.44 2225.19,1297.63 2225.56,1295.76 2225.92,1292.67 2226.29,1288.3 2226.65,1283.35 2227.01,1279.08 2227.37,1276.55 2227.73,1276.12 2228.09,1277.31 2228.45,1279.2 2228.81,1281.2 2229.17,1283.32 2229.53,1285.84 2229.89,1289.03 2230.25,1292.83 2230.61,1296.99 2230.96,1301.19 2231.32,1305.21 2231.68,1308.99 2232.03,1312.63 2232.39,1316.29 2232.74,1319.96 2233.1,1323.22 2233.45,1325.08 2233.81,1324.4 2234.16,1320.51 2234.51,1313.89 2234.86,1305.94 2235.22,1298.21 2235.57,1291.75 2235.92,1286.79 2236.27,1282.84 2236.62,1279.25 2236.97,1275.77 2237.32,1272.95 2237.67,1271.82 2238.02,1273.38 2238.36,1278.1 2238.71,1285.62 2239.06,1294.56 2239.41,1302.56 2239.75,1307.13 2240.1,1307.07 2240.44,1302.91 2240.79,1296.15 2241.13,1288.32 2241.48,1280.94 2241.82,1275.53 2242.17,1273.44 2242.51,1275.44 2242.85,1281.56 2243.19,1291.18 2243.54,1303.28 2243.88,1316.58 2244.22,1329.57 2244.56,1340.5 2244.9,1348.04 2245.24,1352.04 2245.58,1353.31 2245.92,1352.52 2246.26,1349.88 2246.59,1346.01 2246.93,1342.52 2247.27,1341.19 2247.61,1342.91 2247.94,1347.3 2248.28,1352.93 2248.62,1357.53 2248.95,1358.6 2249.29,1354.57 2249.62,1345.91 2249.95,1334.63 2250.29,1322.77 2250.62,1311.57 2250.96,1301.6 2251.29,1293.14 2251.62,1286.45 2251.95,1281.96 2252.28,1280.17 2252.62,1281.43 2252.95,1285.63 2253.28,1291.91 2253.61,1298.92 2253.94,1305.22 2254.27,1309.56 2254.59,1311.23 2254.92,1310.63 2255.25,1308.96 2255.58,1307.01 2255.91,1304.47 2256.23,1300.65 2256.56,1295.66 2256.89,1290.7 2257.21,1287.36 2257.54,1286.78 2257.86,1289.31 2258.19,1294.58 2258.51,1301.58 2258.84,1308.69 2259.16,1314.06 2259.48,1316.52 2259.81,1316.49 2260.13,1315.51 2260.45,1315.14 2260.77,1316.05 2261.1,1317.91 2261.42,1319.56 2261.74,1319.74 2262.06,1317.9 2262.38,1314.59 2262.7,1311.11 2263.02,1308.75 2263.34,1308.37 2263.66,1310.29 2263.97,1314.34 2264.29,1320.06 2264.61,1326.84 2264.93,1333.88 2265.24,1340.06 2265.56,1343.75 2265.88,1343.09 2266.19,1337.35 2266.51,1327.78 2266.82,1316.87 2267.14,1306.75 2267.45,1298.51 2267.77,1292.36 2268.08,1288.02 2268.39,1284.91 2268.71,1282.08 2269.02,1278.18 2269.33,1272.11 2269.64,1263.92 2269.96,1254.87 2270.27,1246.66 2270.58,1240.71 2270.89,1237.92 2271.2,1238.82 2271.51,1243.52 2271.82,1251.65 2272.13,1262.22 2272.44,1273.66 2272.75,1283.94 2273.06,1291.03 2273.36,1293.61 2273.67,1291.8 2273.98,1287.25 2274.29,1282.32 2274.59,1278.96 2274.9,1278.21 2275.21,1280.1 2275.51,1283.62 2275.82,1286.75 2276.12,1287.18 2276.43,1283.66 2276.73,1277.06 2277.04,1269.62 2277.34,1263.39 2277.64,1259.44 2277.95,1257.76 2278.25,1257.57 2278.55,1257.61 2278.85,1256.82 2279.16,1254.99 2279.46,1253.01 2279.76,1252.35 2280.06,1254.25 2280.36,1259.21 2280.66,1266.91 2280.96,1276.12 2281.26,1284.87 2281.56,1291.02 2281.86,1293.32 2282.16,1292.3 2282.46,1289.6 2282.75,1286.88 2283.05,1285.24 2283.35,1285.28 2283.65,1287.24 2283.94,1291.1 2284.24,1296.57 2284.54,1302.92 2284.83,1308.78 2285.13,1312.21 2285.42,1311.49 2285.72,1306.17 2286.01,1297.24 2286.31,1286.66 2286.6,1276.56 2286.9,1268.57 2287.19,1263.5 2287.48,1261.49 2287.78,1262.33 2288.07,1265.72 2288.36,1271.32 2288.65,1278.29 2288.95,1284.82 2289.24,1288.2 2289.53,1286.21 2289.82,1279 2290.11,1269.02 2290.4,1258.93 2290.69,1250.45 2290.98,1244.35 2291.27,1240.78 2291.56,1239.48 2291.85,1239.69 2292.14,1240.22 2292.42,1239.91 2292.71,1238.32 2293,1236.09 2293.29,1234.5 "/>
<path clip-path="url(#clip930)" d="M1769.22 300.059 L2282.72 300.059 L2282.72 92.6992 L1769.22 92.6992  Z" fill="#ffffff" fill-rule="evenodd" fill-opacity="1"/>
<polyline clip-path="url(#clip930)" style="stroke:#000000; stroke-linecap:round; stroke-linejoin:round; stroke-width:4; stroke-opacity:1; fill:none" points="1769.22,300.059 2282.72,300.059 2282.72,92.6992 1769.22,92.6992 1769.22,300.059 "/>
<polyline clip-path="url(#clip930)" style="stroke:#009af9; stroke-linecap:round; stroke-linejoin:round; stroke-width:4; stroke-opacity:1; fill:none" points="1792.57,144.539 1932.64,144.539 "/>
<path clip-path="url(#clip930)" d="M1960.67 131.102 L1960.67 144.088 L1966.55 144.088 Q1969.81 144.088 1971.59 142.398 Q1973.38 140.708 1973.38 137.583 Q1973.38 134.481 1971.59 132.792 Q1969.81 131.102 1966.55 131.102 L1960.67 131.102 M1955.99 127.259 L1966.55 127.259 Q1972.36 127.259 1975.32 129.898 Q1978.31 132.514 1978.31 137.583 Q1978.31 142.699 1975.32 145.315 Q1972.36 147.93 1966.55 147.93 L1960.67 147.93 L1960.67 161.819 L1955.99 161.819 L1955.99 127.259 Z" fill="#000000" fill-rule="nonzero" fill-opacity="1" /><path clip-path="url(#clip930)" d="M1984.58 127.259 L2006.43 127.259 L2006.43 131.194 L1989.26 131.194 L1989.26 141.426 L2005.71 141.426 L2005.71 145.361 L1989.26 145.361 L1989.26 157.884 L2006.85 157.884 L2006.85 161.819 L1984.58 161.819 L1984.58 127.259 Z" fill="#000000" fill-rule="nonzero" fill-opacity="1" /><path clip-path="url(#clip930)" d="M2014.53 127.259 L2021.5 127.259 L2030.32 150.778 L2039.19 127.259 L2046.15 127.259 L2046.15 161.819 L2041.59 161.819 L2041.59 131.472 L2032.68 155.176 L2027.98 155.176 L2019.07 131.472 L2019.07 161.819 L2014.53 161.819 L2014.53 127.259 Z" fill="#000000" fill-rule="nonzero" fill-opacity="1" /><polyline clip-path="url(#clip930)" style="stroke:#e26f46; stroke-linecap:round; stroke-linejoin:round; stroke-width:4; stroke-opacity:1; fill:none" points="1792.57,196.379 1932.64,196.379 "/>
<path clip-path="url(#clip930)" d="M1955.99 179.099 L1977.84 179.099 L1977.84 183.034 L1960.67 183.034 L1960.67 193.266 L1977.13 193.266 L1977.13 197.201 L1960.67 197.201 L1960.67 209.724 L1978.26 209.724 L1978.26 213.659 L1955.99 213.659 L1955.99 179.099 Z" fill="#000000" fill-rule="nonzero" fill-opacity="1" /><path clip-path="url(#clip930)" d="M2002.29 188.497 L2002.29 192.525 Q2000.48 191.599 1998.54 191.136 Q1996.59 190.673 1994.51 190.673 Q1991.34 190.673 1989.74 191.645 Q1988.17 192.618 1988.17 194.562 Q1988.17 196.044 1989.3 196.9 Q1990.44 197.733 1993.86 198.497 L1995.32 198.821 Q1999.86 199.794 2001.76 201.576 Q2003.68 203.335 2003.68 206.506 Q2003.68 210.118 2000.81 212.224 Q1997.96 214.33 1992.96 214.33 Q1990.88 214.33 1988.61 213.914 Q1986.36 213.52 1983.86 212.71 L1983.86 208.312 Q1986.22 209.539 1988.51 210.164 Q1990.81 210.766 1993.05 210.766 Q1996.06 210.766 1997.68 209.747 Q1999.3 208.706 1999.3 206.831 Q1999.3 205.094 1998.12 204.168 Q1996.96 203.243 1993.01 202.386 L1991.52 202.039 Q1987.57 201.206 1985.81 199.493 Q1984.05 197.756 1984.05 194.747 Q1984.05 191.09 1986.64 189.099 Q1989.23 187.108 1994 187.108 Q1996.36 187.108 1998.44 187.456 Q2000.53 187.803 2002.29 188.497 Z" fill="#000000" fill-rule="nonzero" fill-opacity="1" /><path clip-path="url(#clip930)" d="M2014.67 180.372 L2014.67 187.733 L2023.44 187.733 L2023.44 191.044 L2014.67 191.044 L2014.67 205.118 Q2014.67 208.289 2015.53 209.192 Q2016.41 210.094 2019.07 210.094 L2023.44 210.094 L2023.44 213.659 L2019.07 213.659 Q2014.14 213.659 2012.26 211.83 Q2010.39 209.979 2010.39 205.118 L2010.39 191.044 L2007.26 191.044 L2007.26 187.733 L2010.39 187.733 L2010.39 180.372 L2014.67 180.372 Z" fill="#000000" fill-rule="nonzero" fill-opacity="1" /><path clip-path="url(#clip930)" d="M2029.05 187.733 L2033.31 187.733 L2033.31 213.659 L2029.05 213.659 L2029.05 187.733 M2029.05 177.641 L2033.31 177.641 L2033.31 183.034 L2029.05 183.034 L2029.05 177.641 Z" fill="#000000" fill-rule="nonzero" fill-opacity="1" /><path clip-path="url(#clip930)" d="M2062.4 192.71 Q2064 189.84 2066.22 188.474 Q2068.44 187.108 2071.45 187.108 Q2075.5 187.108 2077.7 189.956 Q2079.9 192.78 2079.9 198.011 L2079.9 213.659 L2075.62 213.659 L2075.62 198.15 Q2075.62 194.423 2074.3 192.618 Q2072.98 190.812 2070.27 190.812 Q2066.96 190.812 2065.04 193.011 Q2063.12 195.21 2063.12 199.006 L2063.12 213.659 L2058.84 213.659 L2058.84 198.15 Q2058.84 194.4 2057.52 192.618 Q2056.2 190.812 2053.44 190.812 Q2050.18 190.812 2048.26 193.034 Q2046.34 195.233 2046.34 199.006 L2046.34 213.659 L2042.06 213.659 L2042.06 187.733 L2046.34 187.733 L2046.34 191.761 Q2047.8 189.377 2049.83 188.243 Q2051.87 187.108 2054.67 187.108 Q2057.5 187.108 2059.46 188.544 Q2061.45 189.979 2062.4 192.71 Z" fill="#000000" fill-rule="nonzero" fill-opacity="1" /><path clip-path="url(#clip930)" d="M2100.18 200.627 Q2095.02 200.627 2093.03 201.807 Q2091.04 202.988 2091.04 205.835 Q2091.04 208.104 2092.52 209.446 Q2094.02 210.766 2096.59 210.766 Q2100.13 210.766 2102.26 208.266 Q2104.42 205.743 2104.42 201.576 L2104.42 200.627 L2100.18 200.627 M2108.68 198.868 L2108.68 213.659 L2104.42 213.659 L2104.42 209.724 Q2102.96 212.085 2100.78 213.219 Q2098.61 214.33 2095.46 214.33 Q2091.48 214.33 2089.12 212.108 Q2086.78 209.863 2086.78 206.113 Q2086.78 201.738 2089.69 199.516 Q2092.63 197.294 2098.44 197.294 L2104.42 197.294 L2104.42 196.877 Q2104.42 193.937 2102.47 192.34 Q2100.55 190.719 2097.06 190.719 Q2094.83 190.719 2092.73 191.252 Q2090.62 191.784 2088.68 192.849 L2088.68 188.914 Q2091.01 188.011 2093.21 187.571 Q2095.41 187.108 2097.5 187.108 Q2103.12 187.108 2105.9 190.025 Q2108.68 192.942 2108.68 198.868 Z" fill="#000000" fill-rule="nonzero" fill-opacity="1" /><path clip-path="url(#clip930)" d="M2121.66 180.372 L2121.66 187.733 L2130.43 187.733 L2130.43 191.044 L2121.66 191.044 L2121.66 205.118 Q2121.66 208.289 2122.52 209.192 Q2123.4 210.094 2126.06 210.094 L2130.43 210.094 L2130.43 213.659 L2126.06 213.659 Q2121.13 213.659 2119.25 211.83 Q2117.38 209.979 2117.38 205.118 L2117.38 191.044 L2114.25 191.044 L2114.25 187.733 L2117.38 187.733 L2117.38 180.372 L2121.66 180.372 Z" fill="#000000" fill-rule="nonzero" fill-opacity="1" /><path clip-path="url(#clip930)" d="M2158.21 199.631 L2158.21 201.715 L2138.63 201.715 Q2138.91 206.113 2141.27 208.428 Q2143.65 210.719 2147.89 210.719 Q2150.34 210.719 2152.63 210.118 Q2154.95 209.516 2157.22 208.312 L2157.22 212.34 Q2154.93 213.312 2152.52 213.821 Q2150.11 214.33 2147.63 214.33 Q2141.43 214.33 2137.8 210.719 Q2134.18 207.108 2134.18 200.951 Q2134.18 194.585 2137.61 190.858 Q2141.06 187.108 2146.89 187.108 Q2152.12 187.108 2155.16 190.488 Q2158.21 193.844 2158.21 199.631 M2153.95 198.381 Q2153.91 194.886 2151.99 192.803 Q2150.09 190.719 2146.94 190.719 Q2143.37 190.719 2141.22 192.733 Q2139.09 194.747 2138.77 198.405 L2153.95 198.381 Z" fill="#000000" fill-rule="nonzero" fill-opacity="1" /><path clip-path="url(#clip930)" d="M2182.26 191.669 L2182.26 177.641 L2186.52 177.641 L2186.52 213.659 L2182.26 213.659 L2182.26 209.77 Q2180.92 212.085 2178.86 213.219 Q2176.82 214.33 2173.95 214.33 Q2169.25 214.33 2166.29 210.58 Q2163.35 206.831 2163.35 200.719 Q2163.35 194.608 2166.29 190.858 Q2169.25 187.108 2173.95 187.108 Q2176.82 187.108 2178.86 188.243 Q2180.92 189.354 2182.26 191.669 M2167.75 200.719 Q2167.75 205.418 2169.67 208.104 Q2171.62 210.766 2174.99 210.766 Q2178.37 210.766 2180.32 208.104 Q2182.26 205.418 2182.26 200.719 Q2182.26 196.02 2180.32 193.358 Q2178.37 190.673 2174.99 190.673 Q2171.62 190.673 2169.67 193.358 Q2167.75 196.02 2167.75 200.719 Z" fill="#000000" fill-rule="nonzero" fill-opacity="1" /><path clip-path="url(#clip930)" d="M2205.76 179.099 L2234.99 179.099 L2234.99 183.034 L2222.73 183.034 L2222.73 213.659 L2218.03 213.659 L2218.03 183.034 L2205.76 183.034 L2205.76 179.099 Z" fill="#000000" fill-rule="nonzero" fill-opacity="1" /><path clip-path="url(#clip930)" d="M2239.51 179.099 L2259.37 179.099 L2259.37 183.034 L2244.18 183.034 L2244.18 193.219 L2257.89 193.219 L2257.89 197.155 L2244.18 197.155 L2244.18 213.659 L2239.51 213.659 L2239.51 179.099 Z" fill="#000000" fill-rule="nonzero" fill-opacity="1" /><polyline clip-path="url(#clip930)" style="stroke:#3da44d; stroke-linecap:round; stroke-linejoin:round; stroke-width:4; stroke-opacity:1; fill:none" points="1792.57,248.219 1932.64,248.219 "/>
<path clip-path="url(#clip930)" d="M1955.99 230.939 L1962.29 230.939 L1977.61 259.851 L1977.61 230.939 L1982.15 230.939 L1982.15 265.499 L1975.85 265.499 L1960.53 236.587 L1960.53 265.499 L1955.99 265.499 L1955.99 230.939 Z" fill="#000000" fill-rule="nonzero" fill-opacity="1" /><path clip-path="url(#clip930)" d="M2001.32 242.559 Q1997.89 242.559 1995.9 245.245 Q1993.91 247.907 1993.91 252.559 Q1993.91 257.212 1995.88 259.897 Q1997.87 262.559 2001.32 262.559 Q2004.72 262.559 2006.71 259.874 Q2008.7 257.189 2008.7 252.559 Q2008.7 247.953 2006.71 245.268 Q2004.72 242.559 2001.32 242.559 M2001.32 238.948 Q2006.87 238.948 2010.04 242.559 Q2013.21 246.171 2013.21 252.559 Q2013.21 258.925 2010.04 262.559 Q2006.87 266.17 2001.32 266.17 Q1995.74 266.17 1992.57 262.559 Q1989.42 258.925 1989.42 252.559 Q1989.42 246.171 1992.57 242.559 Q1995.74 238.948 2001.32 238.948 Z" fill="#000000" fill-rule="nonzero" fill-opacity="1" /><path clip-path="url(#clip930)" d="M2020.27 239.573 L2024.53 239.573 L2024.53 265.499 L2020.27 265.499 L2020.27 239.573 M2020.27 229.481 L2024.53 229.481 L2024.53 234.874 L2020.27 234.874 L2020.27 229.481 Z" fill="#000000" fill-rule="nonzero" fill-opacity="1" /><path clip-path="url(#clip930)" d="M2049.97 240.337 L2049.97 244.365 Q2048.17 243.439 2046.22 242.976 Q2044.28 242.513 2042.19 242.513 Q2039.02 242.513 2037.43 243.485 Q2035.85 244.458 2035.85 246.402 Q2035.85 247.884 2036.99 248.74 Q2038.12 249.573 2041.55 250.337 L2043 250.661 Q2047.54 251.634 2049.44 253.416 Q2051.36 255.175 2051.36 258.346 Q2051.36 261.958 2048.49 264.064 Q2045.64 266.17 2040.64 266.17 Q2038.56 266.17 2036.29 265.754 Q2034.05 265.36 2031.55 264.55 L2031.55 260.152 Q2033.91 261.379 2036.2 262.004 Q2038.49 262.606 2040.74 262.606 Q2043.75 262.606 2045.37 261.587 Q2046.99 260.546 2046.99 258.671 Q2046.99 256.934 2045.81 256.008 Q2044.65 255.083 2040.69 254.226 L2039.21 253.879 Q2035.25 253.046 2033.49 251.333 Q2031.73 249.596 2031.73 246.587 Q2031.73 242.93 2034.32 240.939 Q2036.92 238.948 2041.69 238.948 Q2044.05 238.948 2046.13 239.296 Q2048.21 239.643 2049.97 240.337 Z" fill="#000000" fill-rule="nonzero" fill-opacity="1" /><path clip-path="url(#clip930)" d="M2080.32 251.471 L2080.32 253.555 L2060.74 253.555 Q2061.01 257.953 2063.38 260.268 Q2065.76 262.559 2070 262.559 Q2072.45 262.559 2074.74 261.958 Q2077.06 261.356 2079.32 260.152 L2079.32 264.18 Q2077.03 265.152 2074.63 265.661 Q2072.22 266.17 2069.74 266.17 Q2063.54 266.17 2059.9 262.559 Q2056.29 258.948 2056.29 252.791 Q2056.29 246.425 2059.72 242.698 Q2063.17 238.948 2069 238.948 Q2074.23 238.948 2077.26 242.328 Q2080.32 245.684 2080.32 251.471 M2076.06 250.221 Q2076.01 246.726 2074.09 244.643 Q2072.19 242.559 2069.05 242.559 Q2065.48 242.559 2063.33 244.573 Q2061.2 246.587 2060.88 250.245 L2076.06 250.221 Z" fill="#000000" fill-rule="nonzero" fill-opacity="1" /></svg>
