<?xml version="1.0" encoding="utf-8"?>
<svg xmlns="http://www.w3.org/2000/svg" xmlns:xlink="http://www.w3.org/1999/xlink" width="600" height="400" viewBox="0 0 2400 1600">
<defs>
  <clipPath id="clip050">
    <rect x="0" y="0" width="2400" height="1600"/>
  </clipPath>
</defs>
<path clip-path="url(#clip050)" d="M0 1600 L2400 1600 L2400 0 L0 0  Z" fill="#ffffff" fill-rule="evenodd" fill-opacity="1"/>
<defs>
  <clipPath id="clip051">
    <rect x="480" y="0" width="1681" height="1600"/>
  </clipPath>
</defs>
<path clip-path="url(#clip050)" d="M287.366 623.18 L2352.76 623.18 L2352.76 47.2441 L287.366 47.2441  Z" fill="#ffffff" fill-rule="evenodd" fill-opacity="1"/>
<defs>
  <clipPath id="clip052">
    <rect x="287" y="47" width="2066" height="577"/>
  </clipPath>
</defs>
<polyline clip-path="url(#clip052)" style="stroke:#000000; stroke-linecap:round; stroke-linejoin:round; stroke-width:2; stroke-opacity:0.1; fill:none" points="345.82,623.18 345.82,47.2441 "/>
<polyline clip-path="url(#clip052)" style="stroke:#000000; stroke-linecap:round; stroke-linejoin:round; stroke-width:2; stroke-opacity:0.1; fill:none" points="736.298,623.18 736.298,47.2441 "/>
<polyline clip-path="url(#clip052)" style="stroke:#000000; stroke-linecap:round; stroke-linejoin:round; stroke-width:2; stroke-opacity:0.1; fill:none" points="1126.77,623.18 1126.77,47.2441 "/>
<polyline clip-path="url(#clip052)" style="stroke:#000000; stroke-linecap:round; stroke-linejoin:round; stroke-width:2; stroke-opacity:0.1; fill:none" points="1517.25,623.18 1517.25,47.2441 "/>
<polyline clip-path="url(#clip052)" style="stroke:#000000; stroke-linecap:round; stroke-linejoin:round; stroke-width:2; stroke-opacity:0.1; fill:none" points="1907.73,623.18 1907.73,47.2441 "/>
<polyline clip-path="url(#clip052)" style="stroke:#000000; stroke-linecap:round; stroke-linejoin:round; stroke-width:2; stroke-opacity:0.1; fill:none" points="2298.21,623.18 2298.21,47.2441 "/>
<polyline clip-path="url(#clip052)" style="stroke:#000000; stroke-linecap:round; stroke-linejoin:round; stroke-width:2; stroke-opacity:0.1; fill:none" points="287.366,565.989 2352.76,565.989 "/>
<polyline clip-path="url(#clip052)" style="stroke:#000000; stroke-linecap:round; stroke-linejoin:round; stroke-width:2; stroke-opacity:0.1; fill:none" points="287.366,483.955 2352.76,483.955 "/>
<polyline clip-path="url(#clip052)" style="stroke:#000000; stroke-linecap:round; stroke-linejoin:round; stroke-width:2; stroke-opacity:0.1; fill:none" points="287.366,401.922 2352.76,401.922 "/>
<polyline clip-path="url(#clip052)" style="stroke:#000000; stroke-linecap:round; stroke-linejoin:round; stroke-width:2; stroke-opacity:0.1; fill:none" points="287.366,319.888 2352.76,319.888 "/>
<polyline clip-path="url(#clip052)" style="stroke:#000000; stroke-linecap:round; stroke-linejoin:round; stroke-width:2; stroke-opacity:0.1; fill:none" points="287.366,237.854 2352.76,237.854 "/>
<polyline clip-path="url(#clip052)" style="stroke:#000000; stroke-linecap:round; stroke-linejoin:round; stroke-width:2; stroke-opacity:0.1; fill:none" points="287.366,155.821 2352.76,155.821 "/>
<polyline clip-path="url(#clip052)" style="stroke:#000000; stroke-linecap:round; stroke-linejoin:round; stroke-width:2; stroke-opacity:0.1; fill:none" points="287.366,73.7869 2352.76,73.7869 "/>
<polyline clip-path="url(#clip050)" style="stroke:#000000; stroke-linecap:round; stroke-linejoin:round; stroke-width:4; stroke-opacity:1; fill:none" points="287.366,623.18 2352.76,623.18 "/>
<polyline clip-path="url(#clip050)" style="stroke:#000000; stroke-linecap:round; stroke-linejoin:round; stroke-width:4; stroke-opacity:1; fill:none" points="345.82,623.18 345.82,604.282 "/>
<polyline clip-path="url(#clip050)" style="stroke:#000000; stroke-linecap:round; stroke-linejoin:round; stroke-width:4; stroke-opacity:1; fill:none" points="736.298,623.18 736.298,604.282 "/>
<polyline clip-path="url(#clip050)" style="stroke:#000000; stroke-linecap:round; stroke-linejoin:round; stroke-width:4; stroke-opacity:1; fill:none" points="1126.77,623.18 1126.77,604.282 "/>
<polyline clip-path="url(#clip050)" style="stroke:#000000; stroke-linecap:round; stroke-linejoin:round; stroke-width:4; stroke-opacity:1; fill:none" points="1517.25,623.18 1517.25,604.282 "/>
<polyline clip-path="url(#clip050)" style="stroke:#000000; stroke-linecap:round; stroke-linejoin:round; stroke-width:4; stroke-opacity:1; fill:none" points="1907.73,623.18 1907.73,604.282 "/>
<polyline clip-path="url(#clip050)" style="stroke:#000000; stroke-linecap:round; stroke-linejoin:round; stroke-width:4; stroke-opacity:1; fill:none" points="2298.21,623.18 2298.21,604.282 "/>
<path clip-path="url(#clip050)" d="M345.82 654.099 Q342.209 654.099 340.381 657.663 Q338.575 661.205 338.575 668.335 Q338.575 675.441 340.381 679.006 Q342.209 682.547 345.82 682.547 Q349.455 682.547 351.26 679.006 Q353.089 675.441 353.089 668.335 Q353.089 661.205 351.26 657.663 Q349.455 654.099 345.82 654.099 M345.82 650.395 Q351.63 650.395 354.686 655.001 Q357.765 659.585 357.765 668.335 Q357.765 677.061 354.686 681.668 Q351.63 686.251 345.82 686.251 Q340.01 686.251 336.931 681.668 Q333.876 677.061 333.876 668.335 Q333.876 659.585 336.931 655.001 Q340.01 650.395 345.82 650.395 Z" fill="#000000" fill-rule="nonzero" fill-opacity="1" /><path clip-path="url(#clip050)" d="M726.68 681.645 L734.318 681.645 L734.318 655.279 L726.008 656.946 L726.008 652.687 L734.272 651.02 L738.948 651.02 L738.948 681.645 L746.587 681.645 L746.587 685.58 L726.68 685.58 L726.68 681.645 Z" fill="#000000" fill-rule="nonzero" fill-opacity="1" /><path clip-path="url(#clip050)" d="M1121.43 681.645 L1137.75 681.645 L1137.75 685.58 L1115.8 685.58 L1115.8 681.645 Q1118.46 678.89 1123.05 674.26 Q1127.65 669.608 1128.83 668.265 Q1131.08 665.742 1131.96 664.006 Q1132.86 662.247 1132.86 660.557 Q1132.86 657.802 1130.92 656.066 Q1129 654.33 1125.9 654.33 Q1123.7 654.33 1121.24 655.094 Q1118.81 655.858 1116.03 657.409 L1116.03 652.687 Q1118.86 651.552 1121.31 650.974 Q1123.77 650.395 1125.8 650.395 Q1131.17 650.395 1134.37 653.08 Q1137.56 655.765 1137.56 660.256 Q1137.56 662.386 1136.75 664.307 Q1135.96 666.205 1133.86 668.798 Q1133.28 669.469 1130.18 672.686 Q1127.08 675.881 1121.43 681.645 Z" fill="#000000" fill-rule="nonzero" fill-opacity="1" /><path clip-path="url(#clip050)" d="M1521.5 666.946 Q1524.86 667.663 1526.73 669.932 Q1528.63 672.2 1528.63 675.534 Q1528.63 680.649 1525.11 683.45 Q1521.59 686.251 1515.11 686.251 Q1512.93 686.251 1510.62 685.811 Q1508.33 685.395 1505.87 684.538 L1505.87 680.024 Q1507.82 681.159 1510.13 681.737 Q1512.45 682.316 1514.97 682.316 Q1519.37 682.316 1521.66 680.58 Q1523.98 678.844 1523.98 675.534 Q1523.98 672.478 1521.82 670.765 Q1519.69 669.029 1515.87 669.029 L1511.85 669.029 L1511.85 665.186 L1516.06 665.186 Q1519.51 665.186 1521.34 663.821 Q1523.17 662.432 1523.17 659.839 Q1523.17 657.177 1521.27 655.765 Q1519.39 654.33 1515.87 654.33 Q1513.95 654.33 1511.75 654.747 Q1509.56 655.163 1506.92 656.043 L1506.92 651.876 Q1509.58 651.136 1511.89 650.765 Q1514.23 650.395 1516.29 650.395 Q1521.62 650.395 1524.72 652.825 Q1527.82 655.233 1527.82 659.353 Q1527.82 662.223 1526.18 664.214 Q1524.53 666.182 1521.5 666.946 Z" fill="#000000" fill-rule="nonzero" fill-opacity="1" /><path clip-path="url(#clip050)" d="M1910.74 655.094 L1898.93 673.543 L1910.74 673.543 L1910.74 655.094 M1909.51 651.02 L1915.39 651.02 L1915.39 673.543 L1920.32 673.543 L1920.32 677.432 L1915.39 677.432 L1915.39 685.58 L1910.74 685.58 L1910.74 677.432 L1895.14 677.432 L1895.14 672.918 L1909.51 651.02 Z" fill="#000000" fill-rule="nonzero" fill-opacity="1" /><path clip-path="url(#clip050)" d="M2288.48 651.02 L2306.84 651.02 L2306.84 654.955 L2292.77 654.955 L2292.77 663.427 Q2293.78 663.08 2294.8 662.918 Q2295.82 662.733 2296.84 662.733 Q2302.63 662.733 2306.01 665.904 Q2309.39 669.075 2309.39 674.492 Q2309.39 680.071 2305.91 683.172 Q2302.44 686.251 2296.12 686.251 Q2293.95 686.251 2291.68 685.881 Q2289.43 685.51 2287.03 684.77 L2287.03 680.071 Q2289.11 681.205 2291.33 681.76 Q2293.55 682.316 2296.03 682.316 Q2300.03 682.316 2302.37 680.21 Q2304.71 678.103 2304.71 674.492 Q2304.71 670.881 2302.37 668.774 Q2300.03 666.668 2296.03 666.668 Q2294.16 666.668 2292.28 667.085 Q2290.43 667.501 2288.48 668.381 L2288.48 651.02 Z" fill="#000000" fill-rule="nonzero" fill-opacity="1" /><path clip-path="url(#clip050)" d="M1190.23 720.524 L1230.43 720.524 L1230.43 725.935 L1213.56 725.935 L1213.56 768.044 L1207.1 768.044 L1207.1 725.935 L1190.23 725.935 L1190.23 720.524 Z" fill="#000000" fill-rule="nonzero" fill-opacity="1" /><path clip-path="url(#clip050)" d="M1234.38 732.396 L1240.23 732.396 L1240.23 768.044 L1234.38 768.044 L1234.38 732.396 M1234.38 718.519 L1240.23 718.519 L1240.23 725.935 L1234.38 725.935 L1234.38 718.519 Z" fill="#000000" fill-rule="nonzero" fill-opacity="1" /><path clip-path="url(#clip050)" d="M1280.24 739.239 Q1282.44 735.292 1285.5 733.414 Q1288.55 731.537 1292.69 731.537 Q1298.26 731.537 1301.28 735.451 Q1304.31 739.335 1304.31 746.528 L1304.31 768.044 L1298.42 768.044 L1298.42 746.719 Q1298.42 741.594 1296.6 739.112 Q1294.79 736.629 1291.07 736.629 Q1286.51 736.629 1283.87 739.653 Q1281.23 742.677 1281.23 747.896 L1281.23 768.044 L1275.34 768.044 L1275.34 746.719 Q1275.34 741.563 1273.53 739.112 Q1271.71 736.629 1267.93 736.629 Q1263.44 736.629 1260.8 739.685 Q1258.15 742.708 1258.15 747.896 L1258.15 768.044 L1252.27 768.044 L1252.27 732.396 L1258.15 732.396 L1258.15 737.934 Q1260.16 734.656 1262.96 733.096 Q1265.76 731.537 1269.61 731.537 Q1273.5 731.537 1276.2 733.51 Q1278.94 735.483 1280.24 739.239 Z" fill="#000000" fill-rule="nonzero" fill-opacity="1" /><path clip-path="url(#clip050)" d="M1346.48 748.756 L1346.48 751.62 L1319.55 751.62 Q1319.93 757.668 1323.18 760.851 Q1326.46 764.002 1332.28 764.002 Q1335.66 764.002 1338.81 763.174 Q1341.99 762.347 1345.11 760.691 L1345.11 766.23 Q1341.96 767.566 1338.65 768.267 Q1335.34 768.967 1331.93 768.967 Q1323.4 768.967 1318.41 764.002 Q1313.44 759.036 1313.44 750.57 Q1313.44 741.817 1318.15 736.693 Q1322.89 731.537 1330.91 731.537 Q1338.11 731.537 1342.28 736.183 Q1346.48 740.799 1346.48 748.756 M1340.62 747.037 Q1340.56 742.231 1337.92 739.366 Q1335.31 736.502 1330.98 736.502 Q1326.08 736.502 1323.12 739.271 Q1320.19 742.04 1319.74 747.069 L1340.62 747.037 Z" fill="#000000" fill-rule="nonzero" fill-opacity="1" /><path clip-path="url(#clip050)" d="M1390.88 718.582 Q1386.61 725.903 1384.55 733.064 Q1382.48 740.226 1382.48 747.578 Q1382.48 754.93 1384.55 762.156 Q1386.65 769.349 1390.88 776.638 L1385.79 776.638 Q1381.01 769.158 1378.63 761.933 Q1376.27 754.708 1376.27 747.578 Q1376.27 740.48 1378.63 733.287 Q1380.98 726.094 1385.79 718.582 L1390.88 718.582 Z" fill="#000000" fill-rule="nonzero" fill-opacity="1" /><path clip-path="url(#clip050)" d="M1424.97 733.446 L1424.97 738.984 Q1422.49 737.711 1419.81 737.075 Q1417.14 736.438 1414.27 736.438 Q1409.91 736.438 1407.72 737.775 Q1405.55 739.112 1405.55 741.785 Q1405.55 743.822 1407.11 745 Q1408.67 746.146 1413.38 747.196 L1415.39 747.642 Q1421.63 748.979 1424.24 751.429 Q1426.88 753.848 1426.88 758.209 Q1426.88 763.174 1422.93 766.07 Q1419.02 768.967 1412.14 768.967 Q1409.28 768.967 1406.16 768.394 Q1403.07 767.853 1399.63 766.739 L1399.63 760.691 Q1402.88 762.378 1406.03 763.238 Q1409.18 764.065 1412.27 764.065 Q1416.41 764.065 1418.63 762.665 Q1420.86 761.233 1420.86 758.654 Q1420.86 756.267 1419.24 754.994 Q1417.65 753.721 1412.2 752.543 L1410.17 752.066 Q1404.72 750.92 1402.31 748.565 Q1399.89 746.178 1399.89 742.04 Q1399.89 737.011 1403.45 734.274 Q1407.02 731.537 1413.57 731.537 Q1416.82 731.537 1419.68 732.014 Q1422.55 732.491 1424.97 733.446 Z" fill="#000000" fill-rule="nonzero" fill-opacity="1" /><path clip-path="url(#clip050)" d="M1435.28 718.582 L1440.37 718.582 Q1445.15 726.094 1447.5 733.287 Q1449.89 740.48 1449.89 747.578 Q1449.89 754.708 1447.5 761.933 Q1445.15 769.158 1440.37 776.638 L1435.28 776.638 Q1439.51 769.349 1441.58 762.156 Q1443.68 754.93 1443.68 747.578 Q1443.68 740.226 1441.58 733.064 Q1439.51 725.903 1435.28 718.582 Z" fill="#000000" fill-rule="nonzero" fill-opacity="1" /><polyline clip-path="url(#clip050)" style="stroke:#000000; stroke-linecap:round; stroke-linejoin:round; stroke-width:4; stroke-opacity:1; fill:none" points="287.366,623.18 287.366,47.2441 "/>
<polyline clip-path="url(#clip050)" style="stroke:#000000; stroke-linecap:round; stroke-linejoin:round; stroke-width:4; stroke-opacity:1; fill:none" points="287.366,565.989 306.264,565.989 "/>
<polyline clip-path="url(#clip050)" style="stroke:#000000; stroke-linecap:round; stroke-linejoin:round; stroke-width:4; stroke-opacity:1; fill:none" points="287.366,483.955 306.264,483.955 "/>
<polyline clip-path="url(#clip050)" style="stroke:#000000; stroke-linecap:round; stroke-linejoin:round; stroke-width:4; stroke-opacity:1; fill:none" points="287.366,401.922 306.264,401.922 "/>
<polyline clip-path="url(#clip050)" style="stroke:#000000; stroke-linecap:round; stroke-linejoin:round; stroke-width:4; stroke-opacity:1; fill:none" points="287.366,319.888 306.264,319.888 "/>
<polyline clip-path="url(#clip050)" style="stroke:#000000; stroke-linecap:round; stroke-linejoin:round; stroke-width:4; stroke-opacity:1; fill:none" points="287.366,237.854 306.264,237.854 "/>
<polyline clip-path="url(#clip050)" style="stroke:#000000; stroke-linecap:round; stroke-linejoin:round; stroke-width:4; stroke-opacity:1; fill:none" points="287.366,155.821 306.264,155.821 "/>
<polyline clip-path="url(#clip050)" style="stroke:#000000; stroke-linecap:round; stroke-linejoin:round; stroke-width:4; stroke-opacity:1; fill:none" points="287.366,73.7869 306.264,73.7869 "/>
<path clip-path="url(#clip050)" d="M115.256 566.44 L144.931 566.44 L144.931 570.375 L115.256 570.375 L115.256 566.44 Z" fill="#000000" fill-rule="nonzero" fill-opacity="1" /><path clip-path="url(#clip050)" d="M165.024 551.788 Q161.413 551.788 159.584 555.352 Q157.778 558.894 157.778 566.024 Q157.778 573.13 159.584 576.695 Q161.413 580.237 165.024 580.237 Q168.658 580.237 170.464 576.695 Q172.292 573.13 172.292 566.024 Q172.292 558.894 170.464 555.352 Q168.658 551.788 165.024 551.788 M165.024 548.084 Q170.834 548.084 173.889 552.69 Q176.968 557.274 176.968 566.024 Q176.968 574.75 173.889 579.357 Q170.834 583.94 165.024 583.94 Q159.214 583.94 156.135 579.357 Q153.079 574.75 153.079 566.024 Q153.079 557.274 156.135 552.69 Q159.214 548.084 165.024 548.084 Z" fill="#000000" fill-rule="nonzero" fill-opacity="1" /><path clip-path="url(#clip050)" d="M185.186 577.389 L190.07 577.389 L190.07 583.269 L185.186 583.269 L185.186 577.389 Z" fill="#000000" fill-rule="nonzero" fill-opacity="1" /><path clip-path="url(#clip050)" d="M201.065 579.334 L208.704 579.334 L208.704 552.968 L200.394 554.635 L200.394 550.376 L208.658 548.709 L213.334 548.709 L213.334 579.334 L220.973 579.334 L220.973 583.269 L201.065 583.269 L201.065 579.334 Z" fill="#000000" fill-rule="nonzero" fill-opacity="1" /><path clip-path="url(#clip050)" d="M230.463 548.709 L248.82 548.709 L248.82 552.644 L234.746 552.644 L234.746 561.116 Q235.764 560.769 236.783 560.607 Q237.801 560.422 238.82 560.422 Q244.607 560.422 247.986 563.593 Q251.366 566.764 251.366 572.181 Q251.366 577.76 247.894 580.862 Q244.421 583.94 238.102 583.94 Q235.926 583.94 233.658 583.57 Q231.412 583.199 229.005 582.459 L229.005 577.76 Q231.088 578.894 233.31 579.45 Q235.533 580.005 238.009 580.005 Q242.014 580.005 244.352 577.899 Q246.69 575.792 246.69 572.181 Q246.69 568.57 244.352 566.463 Q242.014 564.357 238.009 564.357 Q236.135 564.357 234.26 564.774 Q232.408 565.19 230.463 566.07 L230.463 548.709 Z" fill="#000000" fill-rule="nonzero" fill-opacity="1" /><path clip-path="url(#clip050)" d="M114.26 484.407 L143.936 484.407 L143.936 488.342 L114.26 488.342 L114.26 484.407 Z" fill="#000000" fill-rule="nonzero" fill-opacity="1" /><path clip-path="url(#clip050)" d="M164.028 469.754 Q160.417 469.754 158.589 473.319 Q156.783 476.86 156.783 483.99 Q156.783 491.096 158.589 494.661 Q160.417 498.203 164.028 498.203 Q167.663 498.203 169.468 494.661 Q171.297 491.096 171.297 483.99 Q171.297 476.86 169.468 473.319 Q167.663 469.754 164.028 469.754 M164.028 466.05 Q169.839 466.05 172.894 470.657 Q175.973 475.24 175.973 483.99 Q175.973 492.717 172.894 497.323 Q169.839 501.907 164.028 501.907 Q158.218 501.907 155.14 497.323 Q152.084 492.717 152.084 483.99 Q152.084 475.24 155.14 470.657 Q158.218 466.05 164.028 466.05 Z" fill="#000000" fill-rule="nonzero" fill-opacity="1" /><path clip-path="url(#clip050)" d="M184.19 495.356 L189.075 495.356 L189.075 501.235 L184.19 501.235 L184.19 495.356 Z" fill="#000000" fill-rule="nonzero" fill-opacity="1" /><path clip-path="url(#clip050)" d="M200.07 497.3 L207.709 497.3 L207.709 470.935 L199.399 472.601 L199.399 468.342 L207.662 466.675 L212.338 466.675 L212.338 497.3 L219.977 497.3 L219.977 501.235 L200.07 501.235 L200.07 497.3 Z" fill="#000000" fill-rule="nonzero" fill-opacity="1" /><path clip-path="url(#clip050)" d="M239.422 469.754 Q235.81 469.754 233.982 473.319 Q232.176 476.86 232.176 483.99 Q232.176 491.096 233.982 494.661 Q235.81 498.203 239.422 498.203 Q243.056 498.203 244.861 494.661 Q246.69 491.096 246.69 483.99 Q246.69 476.86 244.861 473.319 Q243.056 469.754 239.422 469.754 M239.422 466.05 Q245.232 466.05 248.287 470.657 Q251.366 475.24 251.366 483.99 Q251.366 492.717 248.287 497.323 Q245.232 501.907 239.422 501.907 Q233.611 501.907 230.533 497.323 Q227.477 492.717 227.477 483.99 Q227.477 475.24 230.533 470.657 Q233.611 466.05 239.422 466.05 Z" fill="#000000" fill-rule="nonzero" fill-opacity="1" /><path clip-path="url(#clip050)" d="M115.256 402.373 L144.931 402.373 L144.931 406.308 L115.256 406.308 L115.256 402.373 Z" fill="#000000" fill-rule="nonzero" fill-opacity="1" /><path clip-path="url(#clip050)" d="M165.024 387.72 Q161.413 387.72 159.584 391.285 Q157.778 394.827 157.778 401.956 Q157.778 409.063 159.584 412.628 Q161.413 416.169 165.024 416.169 Q168.658 416.169 170.464 412.628 Q172.292 409.063 172.292 401.956 Q172.292 394.827 170.464 391.285 Q168.658 387.72 165.024 387.72 M165.024 384.017 Q170.834 384.017 173.889 388.623 Q176.968 393.206 176.968 401.956 Q176.968 410.683 173.889 415.29 Q170.834 419.873 165.024 419.873 Q159.214 419.873 156.135 415.29 Q153.079 410.683 153.079 401.956 Q153.079 393.206 156.135 388.623 Q159.214 384.017 165.024 384.017 Z" fill="#000000" fill-rule="nonzero" fill-opacity="1" /><path clip-path="url(#clip050)" d="M185.186 413.322 L190.07 413.322 L190.07 419.202 L185.186 419.202 L185.186 413.322 Z" fill="#000000" fill-rule="nonzero" fill-opacity="1" /><path clip-path="url(#clip050)" d="M210.255 387.72 Q206.644 387.72 204.815 391.285 Q203.01 394.827 203.01 401.956 Q203.01 409.063 204.815 412.628 Q206.644 416.169 210.255 416.169 Q213.889 416.169 215.695 412.628 Q217.523 409.063 217.523 401.956 Q217.523 394.827 215.695 391.285 Q213.889 387.72 210.255 387.72 M210.255 384.017 Q216.065 384.017 219.121 388.623 Q222.199 393.206 222.199 401.956 Q222.199 410.683 219.121 415.29 Q216.065 419.873 210.255 419.873 Q204.445 419.873 201.366 415.29 Q198.311 410.683 198.311 401.956 Q198.311 393.206 201.366 388.623 Q204.445 384.017 210.255 384.017 Z" fill="#000000" fill-rule="nonzero" fill-opacity="1" /><path clip-path="url(#clip050)" d="M230.463 384.642 L248.82 384.642 L248.82 388.577 L234.746 388.577 L234.746 397.049 Q235.764 396.702 236.783 396.54 Q237.801 396.354 238.82 396.354 Q244.607 396.354 247.986 399.526 Q251.366 402.697 251.366 408.114 Q251.366 413.692 247.894 416.794 Q244.421 419.873 238.102 419.873 Q235.926 419.873 233.658 419.503 Q231.412 419.132 229.005 418.391 L229.005 413.692 Q231.088 414.827 233.31 415.382 Q235.533 415.938 238.009 415.938 Q242.014 415.938 244.352 413.831 Q246.69 411.725 246.69 408.114 Q246.69 404.503 244.352 402.396 Q242.014 400.29 238.009 400.29 Q236.135 400.29 234.26 400.706 Q232.408 401.123 230.463 402.003 L230.463 384.642 Z" fill="#000000" fill-rule="nonzero" fill-opacity="1" /><path clip-path="url(#clip050)" d="M164.028 305.687 Q160.417 305.687 158.589 309.251 Q156.783 312.793 156.783 319.923 Q156.783 327.029 158.589 330.594 Q160.417 334.136 164.028 334.136 Q167.663 334.136 169.468 330.594 Q171.297 327.029 171.297 319.923 Q171.297 312.793 169.468 309.251 Q167.663 305.687 164.028 305.687 M164.028 301.983 Q169.839 301.983 172.894 306.589 Q175.973 311.173 175.973 319.923 Q175.973 328.649 172.894 333.256 Q169.839 337.839 164.028 337.839 Q158.218 337.839 155.14 333.256 Q152.084 328.649 152.084 319.923 Q152.084 311.173 155.14 306.589 Q158.218 301.983 164.028 301.983 Z" fill="#000000" fill-rule="nonzero" fill-opacity="1" /><path clip-path="url(#clip050)" d="M184.19 331.288 L189.075 331.288 L189.075 337.168 L184.19 337.168 L184.19 331.288 Z" fill="#000000" fill-rule="nonzero" fill-opacity="1" /><path clip-path="url(#clip050)" d="M209.26 305.687 Q205.649 305.687 203.82 309.251 Q202.014 312.793 202.014 319.923 Q202.014 327.029 203.82 330.594 Q205.649 334.136 209.26 334.136 Q212.894 334.136 214.699 330.594 Q216.528 327.029 216.528 319.923 Q216.528 312.793 214.699 309.251 Q212.894 305.687 209.26 305.687 M209.26 301.983 Q215.07 301.983 218.125 306.589 Q221.204 311.173 221.204 319.923 Q221.204 328.649 218.125 333.256 Q215.07 337.839 209.26 337.839 Q203.449 337.839 200.371 333.256 Q197.315 328.649 197.315 319.923 Q197.315 311.173 200.371 306.589 Q203.449 301.983 209.26 301.983 Z" fill="#000000" fill-rule="nonzero" fill-opacity="1" /><path clip-path="url(#clip050)" d="M239.422 305.687 Q235.81 305.687 233.982 309.251 Q232.176 312.793 232.176 319.923 Q232.176 327.029 233.982 330.594 Q235.81 334.136 239.422 334.136 Q243.056 334.136 244.861 330.594 Q246.69 327.029 246.69 319.923 Q246.69 312.793 244.861 309.251 Q243.056 305.687 239.422 305.687 M239.422 301.983 Q245.232 301.983 248.287 306.589 Q251.366 311.173 251.366 319.923 Q251.366 328.649 248.287 333.256 Q245.232 337.839 239.422 337.839 Q233.611 337.839 230.533 333.256 Q227.477 328.649 227.477 319.923 Q227.477 311.173 230.533 306.589 Q233.611 301.983 239.422 301.983 Z" fill="#000000" fill-rule="nonzero" fill-opacity="1" /><path clip-path="url(#clip050)" d="M165.024 223.653 Q161.413 223.653 159.584 227.218 Q157.778 230.759 157.778 237.889 Q157.778 244.995 159.584 248.56 Q161.413 252.102 165.024 252.102 Q168.658 252.102 170.464 248.56 Q172.292 244.995 172.292 237.889 Q172.292 230.759 170.464 227.218 Q168.658 223.653 165.024 223.653 M165.024 219.949 Q170.834 219.949 173.889 224.556 Q176.968 229.139 176.968 237.889 Q176.968 246.616 173.889 251.222 Q170.834 255.806 165.024 255.806 Q159.214 255.806 156.135 251.222 Q153.079 246.616 153.079 237.889 Q153.079 229.139 156.135 224.556 Q159.214 219.949 165.024 219.949 Z" fill="#000000" fill-rule="nonzero" fill-opacity="1" /><path clip-path="url(#clip050)" d="M185.186 249.255 L190.07 249.255 L190.07 255.134 L185.186 255.134 L185.186 249.255 Z" fill="#000000" fill-rule="nonzero" fill-opacity="1" /><path clip-path="url(#clip050)" d="M210.255 223.653 Q206.644 223.653 204.815 227.218 Q203.01 230.759 203.01 237.889 Q203.01 244.995 204.815 248.56 Q206.644 252.102 210.255 252.102 Q213.889 252.102 215.695 248.56 Q217.523 244.995 217.523 237.889 Q217.523 230.759 215.695 227.218 Q213.889 223.653 210.255 223.653 M210.255 219.949 Q216.065 219.949 219.121 224.556 Q222.199 229.139 222.199 237.889 Q222.199 246.616 219.121 251.222 Q216.065 255.806 210.255 255.806 Q204.445 255.806 201.366 251.222 Q198.311 246.616 198.311 237.889 Q198.311 229.139 201.366 224.556 Q204.445 219.949 210.255 219.949 Z" fill="#000000" fill-rule="nonzero" fill-opacity="1" /><path clip-path="url(#clip050)" d="M230.463 220.574 L248.82 220.574 L248.82 224.509 L234.746 224.509 L234.746 232.982 Q235.764 232.634 236.783 232.472 Q237.801 232.287 238.82 232.287 Q244.607 232.287 247.986 235.458 Q251.366 238.63 251.366 244.046 Q251.366 249.625 247.894 252.727 Q244.421 255.806 238.102 255.806 Q235.926 255.806 233.658 255.435 Q231.412 255.065 229.005 254.324 L229.005 249.625 Q231.088 250.759 233.31 251.315 Q235.533 251.87 238.009 251.87 Q242.014 251.87 244.352 249.764 Q246.69 247.657 246.69 244.046 Q246.69 240.435 244.352 238.329 Q242.014 236.222 238.009 236.222 Q236.135 236.222 234.26 236.639 Q232.408 237.056 230.463 237.935 L230.463 220.574 Z" fill="#000000" fill-rule="nonzero" fill-opacity="1" /><path clip-path="url(#clip050)" d="M164.028 141.619 Q160.417 141.619 158.589 145.184 Q156.783 148.726 156.783 155.855 Q156.783 162.962 158.589 166.527 Q160.417 170.068 164.028 170.068 Q167.663 170.068 169.468 166.527 Q171.297 162.962 171.297 155.855 Q171.297 148.726 169.468 145.184 Q167.663 141.619 164.028 141.619 M164.028 137.916 Q169.839 137.916 172.894 142.522 Q175.973 147.105 175.973 155.855 Q175.973 164.582 172.894 169.189 Q169.839 173.772 164.028 173.772 Q158.218 173.772 155.14 169.189 Q152.084 164.582 152.084 155.855 Q152.084 147.105 155.14 142.522 Q158.218 137.916 164.028 137.916 Z" fill="#000000" fill-rule="nonzero" fill-opacity="1" /><path clip-path="url(#clip050)" d="M184.19 167.221 L189.075 167.221 L189.075 173.101 L184.19 173.101 L184.19 167.221 Z" fill="#000000" fill-rule="nonzero" fill-opacity="1" /><path clip-path="url(#clip050)" d="M200.07 169.165 L207.709 169.165 L207.709 142.8 L199.399 144.466 L199.399 140.207 L207.662 138.541 L212.338 138.541 L212.338 169.165 L219.977 169.165 L219.977 173.101 L200.07 173.101 L200.07 169.165 Z" fill="#000000" fill-rule="nonzero" fill-opacity="1" /><path clip-path="url(#clip050)" d="M239.422 141.619 Q235.81 141.619 233.982 145.184 Q232.176 148.726 232.176 155.855 Q232.176 162.962 233.982 166.527 Q235.81 170.068 239.422 170.068 Q243.056 170.068 244.861 166.527 Q246.69 162.962 246.69 155.855 Q246.69 148.726 244.861 145.184 Q243.056 141.619 239.422 141.619 M239.422 137.916 Q245.232 137.916 248.287 142.522 Q251.366 147.105 251.366 155.855 Q251.366 164.582 248.287 169.189 Q245.232 173.772 239.422 173.772 Q233.611 173.772 230.533 169.189 Q227.477 164.582 227.477 155.855 Q227.477 147.105 230.533 142.522 Q233.611 137.916 239.422 137.916 Z" fill="#000000" fill-rule="nonzero" fill-opacity="1" /><path clip-path="url(#clip050)" d="M165.024 59.5856 Q161.413 59.5856 159.584 63.1504 Q157.778 66.692 157.778 73.8216 Q157.778 80.928 159.584 84.4928 Q161.413 88.0345 165.024 88.0345 Q168.658 88.0345 170.464 84.4928 Q172.292 80.928 172.292 73.8216 Q172.292 66.692 170.464 63.1504 Q168.658 59.5856 165.024 59.5856 M165.024 55.8819 Q170.834 55.8819 173.889 60.4883 Q176.968 65.0717 176.968 73.8216 Q176.968 82.5484 173.889 87.1549 Q170.834 91.7382 165.024 91.7382 Q159.214 91.7382 156.135 87.1549 Q153.079 82.5484 153.079 73.8216 Q153.079 65.0717 156.135 60.4883 Q159.214 55.8819 165.024 55.8819 Z" fill="#000000" fill-rule="nonzero" fill-opacity="1" /><path clip-path="url(#clip050)" d="M185.186 85.1873 L190.07 85.1873 L190.07 91.0669 L185.186 91.0669 L185.186 85.1873 Z" fill="#000000" fill-rule="nonzero" fill-opacity="1" /><path clip-path="url(#clip050)" d="M201.065 87.1317 L208.704 87.1317 L208.704 60.7661 L200.394 62.4328 L200.394 58.1735 L208.658 56.5069 L213.334 56.5069 L213.334 87.1317 L220.973 87.1317 L220.973 91.0669 L201.065 91.0669 L201.065 87.1317 Z" fill="#000000" fill-rule="nonzero" fill-opacity="1" /><path clip-path="url(#clip050)" d="M230.463 56.5069 L248.82 56.5069 L248.82 60.442 L234.746 60.442 L234.746 68.9142 Q235.764 68.567 236.783 68.405 Q237.801 68.2198 238.82 68.2198 Q244.607 68.2198 247.986 71.3911 Q251.366 74.5623 251.366 79.979 Q251.366 85.5577 247.894 88.6595 Q244.421 91.7382 238.102 91.7382 Q235.926 91.7382 233.658 91.3678 Q231.412 90.9974 229.005 90.2567 L229.005 85.5577 Q231.088 86.6919 233.31 87.2475 Q235.533 87.803 238.009 87.803 Q242.014 87.803 244.352 85.6965 Q246.69 83.5901 246.69 79.979 Q246.69 76.3679 244.352 74.2614 Q242.014 72.1549 238.009 72.1549 Q236.135 72.1549 234.26 72.5716 Q232.408 72.9883 230.463 73.8679 L230.463 56.5069 Z" fill="#000000" fill-rule="nonzero" fill-opacity="1" /><path clip-path="url(#clip050)" d="M67.3143 333.525 Q73.68 336.008 75.6216 338.363 Q77.5631 340.718 77.5631 344.665 L77.5631 349.344 L72.6615 349.344 L72.6615 345.906 Q72.6615 343.487 71.5157 342.151 Q70.3699 340.814 66.1048 339.191 L63.4312 338.14 L28.3562 352.559 L28.3562 346.352 L56.238 335.212 L28.3562 324.072 L28.3562 317.865 L67.3143 333.525 Z" fill="#000000" fill-rule="nonzero" fill-opacity="1" /><polyline clip-path="url(#clip052)" style="stroke:#009af9; stroke-linecap:round; stroke-linejoin:round; stroke-width:4; stroke-opacity:1; fill:none" points="345.82,319.888 349.725,319.888 353.63,319.888 353.63,336.105 357.535,336.105 357.535,351.844 361.439,351.844 361.439,366.968 365.344,366.968 365.344,381.352 369.249,381.352 369.249,394.89 373.154,394.89 373.154,407.494 377.059,407.494 377.059,419.094 380.963,419.094 380.963,429.641 384.868,429.641 384.868,439.107 388.773,439.107 388.773,447.485 392.678,447.485 392.678,454.787 396.582,454.787 396.582,461.046 400.487,461.046 400.487,466.311 404.392,466.311 404.392,470.649 408.297,470.649 408.297,474.143 412.201,474.143 412.201,476.885 416.106,476.885 416.106,478.982 420.011,478.982 420.011,480.546 423.916,480.546 423.916,481.697 427.821,481.697 427.821,482.558 431.725,482.558 431.725,483.25 435.63,483.25 435.63,483.896 439.535,483.896 439.535,484.613 443.44,484.613 443.44,485.513 447.344,485.513 447.344,486.698 451.249,486.698 451.249,455.828 455.154,455.828 455.154,426.374 459.059,426.374 459.059,398.682 462.963,398.682 462.963,373.054 466.868,373.054 466.868,349.744 470.773,349.744 470.773,328.957 474.678,328.957 474.678,310.841 478.583,310.841 478.583,295.492 482.487,295.492 482.487,282.948 486.392,282.948 486.392,273.194 490.297,273.194 490.297,266.163 494.202,266.163 494.202,261.736 498.106,261.736 498.106,259.75 502.011,259.75 502.011,259.999 505.916,259.999 505.916,262.243 509.821,262.243 509.821,266.208 513.726,266.208 513.726,271.6 517.63,271.6 517.63,278.104 521.535,278.104 521.535,285.396 525.44,285.396 525.44,293.148 529.345,293.148 529.345,333.466 533.249,333.466 533.249,372.644 537.154,372.644 537.154,410.101 541.059,410.101 541.059,445.308 544.964,445.308 544.964,477.793 548.868,477.793 548.868,507.15 552.773,507.15 552.773,533.045 556.678,533.045 556.678,555.221 560.583,555.221 560.583,573.5 564.488,573.5 564.488,587.785 568.392,587.785 568.392,598.057 572.297,598.057 572.297,604.377 576.202,604.377 576.202,606.88 580.107,606.88 580.107,605.77 584.011,605.77 584.011,601.316 587.916,601.316 587.916,561.409 591.821,561.409 591.821,519.81 595.726,519.81 595.726,477.209 599.631,477.209 599.631,434.296 603.535,434.296 603.535,391.748 607.44,391.748 607.44,382.652 611.345,382.652 611.345,374.234 615.25,374.234 615.25,366.781 619.154,366.781 619.154,360.557 623.059,360.557 623.059,355.787 626.964,355.787 626.964,320.229 630.869,320.229 630.869,287.423 634.773,287.423 634.773,257.756 638.678,257.756 638.678,231.544 642.583,231.544 642.583,209.024 646.488,209.024 646.488,190.36 650.393,190.36 650.393,175.632 654.297,175.632 654.297,164.847 658.202,164.847 658.202,157.933 662.107,157.933 662.107,154.744 666.012,154.744 666.012,155.071 669.916,155.071 669.916,158.64 673.821,158.64 673.821,165.125 677.726,165.125 677.726,174.154 681.631,174.154 681.631,185.315 685.535,185.315 685.535,198.17 689.44,198.17 689.44,212.262 693.345,212.262 693.345,227.125 697.25,227.125 697.25,242.292 701.155,242.292 701.155,257.305 705.059,257.305 705.059,271.727 708.964,271.727 708.964,285.143 712.869,285.143 712.869,297.174 716.774,297.174 716.774,307.481 720.678,307.481 720.678,315.77 724.583,315.77 724.583,321.795 728.488,321.795 728.488,325.366 732.393,325.366 732.393,326.346 736.298,326.346 736.298,324.656 740.202,324.656 740.202,320.273 744.107,320.273 744.107,313.228 748.012,313.228 748.012,303.606 751.917,303.606 751.917,291.54 755.821,291.54 755.821,277.21 759.726,277.21 759.726,260.836 763.631,260.836 763.631,275.106 767.536,275.106 767.536,286.915 771.44,286.915 771.44,296.293 775.345,296.293 775.345,303.316 779.25,303.316 779.25,308.099 783.155,308.099 783.155,278.366 787.06,278.366 787.06,247.697 790.964,247.697 790.964,216.588 794.869,216.588 794.869,185.53 798.774,185.53 798.774,155.002 802.679,155.002 802.679,157.893 806.583,157.893 806.583,161.235 810.488,161.235 810.488,165.137 814.393,165.137 814.393,169.69 818.298,169.69 818.298,174.968 822.202,174.968 822.202,148.594 826.107,148.594 826.107,123.995 830.012,123.995 830.012,101.464 833.917,101.464 833.917,81.2489 837.822,81.2489 837.822,63.5442 841.726,63.5442 841.726,80.9252 845.631,80.9252 845.631,100.089 849.536,100.089 849.536,120.789 853.441,120.789 853.441,142.757 857.345,142.757 857.345,165.703 861.25,165.703 861.25,156.893 865.155,156.893 865.155,149.407 869.06,149.407 869.06,143.216 872.965,143.216 872.965,138.264 876.869,138.264 876.869,134.476 880.774,134.476 880.774,164.192 884.679,164.192 884.679,193.909 888.584,193.909 888.584,223.225 892.488,223.225 892.488,251.757 896.393,251.757 896.393,279.144 900.298,279.144 900.298,305.058 904.203,305.058 904.203,329.209 908.107,329.209 908.107,351.347 912.012,351.347 912.012,371.268 915.917,371.268 915.917,388.815 919.822,388.815 919.822,371.448 923.727,371.448 923.727,352.499 927.631,352.499 927.631,332.238 931.536,332.238 931.536,310.954 935.441,310.954 935.441,288.949 939.346,288.949 939.346,266.533 943.25,266.533 943.25,244.013 947.155,244.013 947.155,221.695 951.06,221.695 951.06,199.869 954.965,199.869 954.965,178.81 958.87,178.81 958.87,191.207 962.774,191.207 962.774,203.896 966.679,203.896 966.679,216.799 970.584,216.799 970.584,229.833 974.489,229.833 974.489,242.913 978.393,242.913 978.393,255.955 982.298,255.955 982.298,268.875 986.203,268.875 986.203,281.593 990.108,281.593 990.108,294.034 994.012,294.034 994.012,306.128 997.917,306.128 997.917,317.813 1001.82,317.813 1001.82,329.035 1005.73,329.035 1005.73,339.749 1009.63,339.749 1009.63,349.92 1013.54,349.92 1013.54,359.522 1017.44,359.522 1017.44,368.542 1021.35,368.542 1021.35,376.975 1025.25,376.975 1025.25,384.826 1029.16,384.826 1029.16,392.11 1033.06,392.11 1033.06,398.853 1036.96,398.853 1036.96,372.654 1040.87,372.654 1040.87,346.942 1044.77,346.942 1044.77,322.04 1048.68,322.04 1048.68,298.249 1052.58,298.249 1052.58,275.838 1056.49,275.838 1056.49,255.046 1060.39,255.046 1060.39,236.07 1064.3,236.07 1064.3,219.072 1068.2,219.072 1068.2,204.168 1072.11,204.168 1072.11,191.434 1076.01,191.434 1076.01,180.901 1079.92,180.901 1079.92,172.556 1083.82,172.556 1083.82,166.349 1087.73,166.349 1087.73,162.186 1091.63,162.186 1091.63,159.941 1095.54,159.941 1095.54,159.453 1099.44,159.453 1099.44,160.535 1103.35,160.535 1103.35,162.972 1107.25,162.972 1107.25,166.536 1111.16,166.536 1111.16,170.98 1115.06,170.98 1115.06,176.05 1118.97,176.05 1118.97,181.49 1122.87,181.49 1122.87,187.043 1126.77,187.043 1126.77,192.462 1130.68,192.462 1130.68,197.508 1134.58,197.508 1134.58,201.96 1138.49,201.96 1138.49,205.616 1142.39,205.616 1142.39,208.296 1146.3,208.296 1146.3,209.848 1150.2,209.848 1150.2,210.145 1154.11,210.145 1154.11,241.525 1158.01,241.525 1158.01,270.536 1161.92,270.536 1161.92,296.865 1165.82,296.865 1165.82,320.263 1169.73,320.263 1169.73,340.542 1173.63,340.542 1173.63,325.147 1177.54,325.147 1177.54,307.409 1181.44,307.409 1181.44,287.615 1185.35,287.615 1185.35,266.081 1189.25,266.081 1189.25,243.151 1193.16,243.151 1193.16,251.622 1197.06,251.622 1197.06,258.478 1200.97,258.478 1200.97,263.819 1204.87,263.819 1204.87,267.77 1208.77,267.77 1208.77,270.479 1212.68,270.479 1212.68,272.111 1216.58,272.111 1216.58,272.845 1220.49,272.845 1220.49,272.873 1224.39,272.873 1224.39,272.391 1228.3,272.391 1228.3,271.599 1232.2,271.599 1232.2,238.26 1236.11,238.26 1236.11,205.956 1240.01,205.956 1240.01,175.147 1243.92,175.147 1243.92,146.251 1247.82,146.251 1247.82,119.639 1251.73,119.639 1251.73,128.058 1255.63,128.058 1255.63,138.377 1259.54,138.377 1259.54,150.512 1263.44,150.512 1263.44,164.346 1267.35,164.346 1267.35,179.73 1271.25,179.73 1271.25,196.487 1275.16,196.487 1275.16,214.417 1279.06,214.417 1279.06,233.3 1282.97,233.3 1282.97,252.904 1286.87,252.904 1286.87,272.986 1290.78,272.986 1290.78,293.3 1294.68,293.3 1294.68,313.601 1298.58,313.601 1298.58,333.651 1302.49,333.651 1302.49,353.22 1306.39,353.22 1306.39,372.095 1310.3,372.095 1310.3,357.645 1314.2,357.645 1314.2,343.088 1318.11,343.088 1318.11,328.548 1322.01,328.548 1322.01,314.152 1325.92,314.152 1325.92,300.019 1329.82,300.019 1329.82,318.695 1333.73,318.695 1333.73,336.893 1337.63,336.893 1337.63,354.431 1341.54,354.431 1341.54,371.141 1345.44,371.141 1345.44,386.875 1349.35,386.875 1349.35,401.509 1353.25,401.509 1353.25,414.941 1357.16,414.941 1357.16,427.094 1361.06,427.094 1361.06,437.918 1364.97,437.918 1364.97,447.389 1368.87,447.389 1368.87,455.507 1372.78,455.507 1372.78,462.3 1376.68,462.3 1376.68,467.818 1380.58,467.818 1380.58,472.133 1384.49,472.133 1384.49,475.338 1388.39,475.338 1388.39,477.543 1392.3,477.543 1392.3,478.874 1396.2,478.874 1396.2,479.468 1400.11,479.468 1400.11,479.472 1404.01,479.472 1404.01,479.037 1407.92,479.037 1407.92,445.885 1411.82,445.885 1411.82,413.56 1415.73,413.56 1415.73,382.491 1419.63,382.491 1419.63,353.068 1423.54,353.068 1423.54,325.643 1427.44,325.643 1427.44,332.951 1431.35,332.951 1431.35,341.853 1435.25,341.853 1435.25,352.267 1439.16,352.267 1439.16,364.081 1443.06,364.081 1443.06,377.159 1446.97,377.159 1446.97,358.908 1450.87,358.908 1450.87,342.541 1454.78,342.541 1454.78,328.142 1458.68,328.142 1458.68,315.756 1462.59,315.756 1462.59,305.39 1466.49,305.39 1466.49,297.012 1470.39,297.012 1470.39,290.553 1474.3,290.553 1474.3,285.911 1478.2,285.911 1478.2,282.953 1482.11,282.953 1482.11,281.517 1486.01,281.517 1486.01,313.854 1489.92,313.854 1489.92,346.37 1493.82,346.37 1493.82,378.571 1497.73,378.571 1497.73,409.982 1501.63,409.982 1501.63,440.155 1505.54,440.155 1505.54,436.246 1509.44,436.246 1509.44,431.276 1513.35,431.276 1513.35,425.203 1517.25,425.203 1517.25,418.009 1521.16,418.009 1521.16,409.7 1525.06,409.7 1525.06,400.307 1528.97,400.307 1528.97,389.88 1532.87,389.88 1532.87,378.493 1536.78,378.493 1536.78,366.237 1540.68,366.237 1540.68,353.217 1544.59,353.217 1544.59,339.554 1548.49,339.554 1548.49,325.38 1552.39,325.38 1552.39,310.832 1556.3,310.832 1556.3,296.054 1560.2,296.054 1560.2,281.192 1564.11,281.192 1564.11,298.824 1568.01,298.824 1568.01,315.7 1571.92,315.7 1571.92,331.677 1575.82,331.677 1575.82,346.635 1579.73,346.635 1579.73,360.471 1583.63,360.471 1583.63,340.675 1587.54,340.675 1587.54,320.583 1591.44,320.583 1591.44,300.445 1595.35,300.445 1595.35,280.502 1599.25,280.502 1599.25,260.99 1603.16,260.99 1603.16,242.127 1607.06,242.127 1607.06,224.115 1610.97,224.115 1610.97,207.136 1614.87,207.136 1614.87,191.346 1618.78,191.346 1618.78,176.876 1622.68,176.876 1622.68,163.826 1626.59,163.826 1626.59,152.27 1630.49,152.27 1630.49,142.25 1634.4,142.25 1634.4,133.777 1638.3,133.777 1638.3,126.834 1642.2,126.834 1642.2,153.81 1646.11,153.81 1646.11,181.243 1650.01,181.243 1650.01,208.761 1653.92,208.761 1653.92,235.999 1657.82,235.999 1657.82,262.606 1661.73,262.606 1661.73,255.818 1665.63,255.818 1665.63,248.724 1669.54,248.724 1669.54,241.327 1673.44,241.327 1673.44,233.641 1677.35,233.641 1677.35,225.687 1681.25,225.687 1681.25,217.488 1685.16,217.488 1685.16,209.077 1689.06,209.077 1689.06,200.489 1692.97,200.489 1692.97,191.765 1696.87,191.765 1696.87,182.945 1700.78,182.945 1700.78,206.509 1704.68,206.509 1704.68,229.112 1708.59,229.112 1708.59,250.523 1712.49,250.523 1712.49,270.541 1716.4,270.541 1716.4,288.994 1720.3,288.994 1720.3,305.746 1724.2,305.746 1724.2,320.695 1728.11,320.695 1728.11,333.776 1732.01,333.776 1732.01,344.963 1735.92,344.963 1735.92,354.264 1739.82,354.264 1739.82,329.289 1743.73,329.289 1743.73,303.504 1747.63,303.504 1747.63,277.295 1751.54,277.295 1751.54,251.042 1755.44,251.042 1755.44,225.12 1759.35,225.12 1759.35,232.321 1763.25,232.321 1763.25,239.589 1767.16,239.589 1767.16,246.955 1771.06,246.955 1771.06,254.444 1774.97,254.444 1774.97,262.076 1778.87,262.076 1778.87,237.433 1782.78,237.433 1782.78,213.915 1786.68,213.915 1786.68,191.801 1790.59,191.801 1790.59,171.34 1794.49,171.34 1794.49,152.739 1798.4,152.739 1798.4,168.599 1802.3,168.599 1802.3,185.654 1806.2,185.654 1806.2,203.708 1810.11,203.708 1810.11,222.547 1814.01,222.547 1814.01,241.947 1817.92,241.947 1817.92,261.68 1821.82,261.68 1821.82,281.513 1825.73,281.513 1825.73,301.219 1829.63,301.219 1829.63,320.578 1833.54,320.578 1833.54,339.381 1837.44,339.381 1837.44,325 1841.35,325 1841.35,310.651 1845.25,310.651 1845.25,296.457 1849.16,296.457 1849.16,282.538 1853.06,282.538 1853.06,269.003 1856.97,269.003 1856.97,255.956 1860.87,255.956 1860.87,243.486 1864.78,243.486 1864.78,231.673 1868.68,231.673 1868.68,220.58 1872.59,220.58 1872.59,210.258 1876.49,210.258 1876.49,200.741 1880.4,200.741 1880.4,192.048 1884.3,192.048 1884.3,184.184 1888.21,184.184 1888.21,177.138 1892.11,177.138 1892.11,170.883 1896.01,170.883 1896.01,197.816 1899.92,197.816 1899.92,224.496 1903.82,224.496 1903.82,250.585 1907.73,250.585 1907.73,275.764 1911.63,275.764 1911.63,299.74 1915.54,299.74 1915.54,289.816 1919.44,289.816 1919.44,279.156 1923.35,279.156 1923.35,267.845 1927.25,267.845 1927.25,255.983 1931.16,255.983 1931.16,243.678 1935.06,243.678 1935.06,263.479 1938.97,263.479 1938.97,282.115 1942.87,282.115 1942.87,299.433 1946.78,299.433 1946.78,315.305 1950.68,315.305 1950.68,329.637 1954.59,329.637 1954.59,342.363 1958.49,342.363 1958.49,353.452 1962.4,353.452 1962.4,362.903 1966.3,362.903 1966.3,370.744 1970.21,370.744 1970.21,377.035 1974.11,377.035 1974.11,381.862 1978.01,381.862 1978.01,385.335 1981.92,385.335 1981.92,387.585 1985.82,387.585 1985.82,388.765 1989.73,388.765 1989.73,389.039 1993.63,389.039 1993.63,388.585 1997.54,388.585 1997.54,387.588 2001.44,387.588 2001.44,386.235 2005.35,386.235 2005.35,384.714 2009.25,384.714 2009.25,383.212 2013.16,383.212 2013.16,381.904 2017.06,381.904 2017.06,380.957 2020.97,380.957 2020.97,380.525 2024.87,380.525 2024.87,380.744 2028.78,380.744 2028.78,381.733 2032.68,381.733 2032.68,383.591 2036.59,383.591 2036.59,386.396 2040.49,386.396 2040.49,390.202 2044.4,390.202 2044.4,395.041 2048.3,395.041 2048.3,400.923 2052.21,400.923 2052.21,375.402 2056.11,375.402 2056.11,351.834 2060.02,351.834 2060.02,330.44 2063.92,330.44 2063.92,311.396 2067.82,311.396 2067.82,294.827 2071.73,294.827 2071.73,313.243 2075.63,313.243 2075.63,333.278 2079.54,333.278 2079.54,354.631 2083.44,354.631 2083.44,376.98 2087.35,376.98 2087.35,399.996 2091.25,399.996 2091.25,423.341 2095.16,423.341 2095.16,446.682 2099.06,446.682 2099.06,469.693 2102.97,469.693 2102.97,492.063 2106.87,492.063 2106.87,513.502 2110.78,513.502 2110.78,501.311 2114.68,501.311 2114.68,488.646 2118.59,488.646 2118.59,475.581 2122.49,475.581 2122.49,462.199 2126.4,462.199 2126.4,448.59 2130.3,448.59 2130.3,434.845 2134.21,434.845 2134.21,421.058 2138.11,421.058 2138.11,407.324 2142.02,407.324 2142.02,393.733 2145.92,393.733 2145.92,380.374 2149.82,380.374 2149.82,367.33 2153.73,367.33 2153.73,354.676 2157.63,354.676 2157.63,342.479 2161.54,342.479 2161.54,330.799 2165.44,330.799 2165.44,319.682 2169.35,319.682 2169.35,341.6 2173.25,341.6 2173.25,363.19 2177.16,363.19 2177.16,384.19 2181.06,384.19 2181.06,404.355 2184.97,404.355 2184.97,423.464 2188.87,423.464 2188.87,408.886 2192.78,408.886 2192.78,393.844 2196.68,393.844 2196.68,378.479 2200.59,378.479 2200.59,362.934 2204.49,362.934 2204.49,347.356 2208.4,347.356 2208.4,331.887 2212.3,331.887 2212.3,316.667 2216.21,316.667 2216.21,301.826 2220.11,301.826 2220.11,287.485 2224.02,287.485 2224.02,273.756 2227.92,273.756 2227.92,293.167 2231.83,293.167 2231.83,312.409 2235.73,312.409 2235.73,331.272 2239.63,331.272 2239.63,349.555 2243.54,349.555 2243.54,367.075 2247.44,367.075 2247.44,383.666 2251.35,383.666 2251.35,399.185 2255.25,399.185 2255.25,413.512 2259.16,413.512 2259.16,426.553 2263.06,426.553 2263.06,438.24 2266.97,438.24 2266.97,416.098 2270.87,416.098 2270.87,393.504 2274.78,393.504 2274.78,370.747 2278.68,370.747 2278.68,348.113 2282.59,348.113 2282.59,325.879 2286.49,325.879 2286.49,336.74 2290.4,336.74 2290.4,347.55 2294.3,347.55 2294.3,358.253 "/>
<path clip-path="url(#clip050)" d="M287.366 1423.18 L2352.76 1423.18 L2352.76 847.244 L287.366 847.244  Z" fill="#ffffff" fill-rule="evenodd" fill-opacity="1"/>
<defs>
  <clipPath id="clip053">
    <rect x="287" y="847" width="2066" height="577"/>
  </clipPath>
</defs>
<polyline clip-path="url(#clip053)" style="stroke:#000000; stroke-linecap:round; stroke-linejoin:round; stroke-width:2; stroke-opacity:0.1; fill:none" points="345.82,1423.18 345.82,847.244 "/>
<polyline clip-path="url(#clip053)" style="stroke:#000000; stroke-linecap:round; stroke-linejoin:round; stroke-width:2; stroke-opacity:0.1; fill:none" points="736.298,1423.18 736.298,847.244 "/>
<polyline clip-path="url(#clip053)" style="stroke:#000000; stroke-linecap:round; stroke-linejoin:round; stroke-width:2; stroke-opacity:0.1; fill:none" points="1126.77,1423.18 1126.77,847.244 "/>
<polyline clip-path="url(#clip053)" style="stroke:#000000; stroke-linecap:round; stroke-linejoin:round; stroke-width:2; stroke-opacity:0.1; fill:none" points="1517.25,1423.18 1517.25,847.244 "/>
<polyline clip-path="url(#clip053)" style="stroke:#000000; stroke-linecap:round; stroke-linejoin:round; stroke-width:2; stroke-opacity:0.1; fill:none" points="1907.73,1423.18 1907.73,847.244 "/>
<polyline clip-path="url(#clip053)" style="stroke:#000000; stroke-linecap:round; stroke-linejoin:round; stroke-width:2; stroke-opacity:0.1; fill:none" points="2298.21,1423.18 2298.21,847.244 "/>
<polyline clip-path="url(#clip053)" style="stroke:#000000; stroke-linecap:round; stroke-linejoin:round; stroke-width:2; stroke-opacity:0.1; fill:none" points="287.366,1406.88 2352.76,1406.88 "/>
<polyline clip-path="url(#clip053)" style="stroke:#000000; stroke-linecap:round; stroke-linejoin:round; stroke-width:2; stroke-opacity:0.1; fill:none" points="287.366,1271.05 2352.76,1271.05 "/>
<polyline clip-path="url(#clip053)" style="stroke:#000000; stroke-linecap:round; stroke-linejoin:round; stroke-width:2; stroke-opacity:0.1; fill:none" points="287.366,1135.21 2352.76,1135.21 "/>
<polyline clip-path="url(#clip053)" style="stroke:#000000; stroke-linecap:round; stroke-linejoin:round; stroke-width:2; stroke-opacity:0.1; fill:none" points="287.366,999.378 2352.76,999.378 "/>
<polyline clip-path="url(#clip053)" style="stroke:#000000; stroke-linecap:round; stroke-linejoin:round; stroke-width:2; stroke-opacity:0.1; fill:none" points="287.366,863.544 2352.76,863.544 "/>
<polyline clip-path="url(#clip050)" style="stroke:#000000; stroke-linecap:round; stroke-linejoin:round; stroke-width:4; stroke-opacity:1; fill:none" points="287.366,1423.18 2352.76,1423.18 "/>
<polyline clip-path="url(#clip050)" style="stroke:#000000; stroke-linecap:round; stroke-linejoin:round; stroke-width:4; stroke-opacity:1; fill:none" points="345.82,1423.18 345.82,1404.28 "/>
<polyline clip-path="url(#clip050)" style="stroke:#000000; stroke-linecap:round; stroke-linejoin:round; stroke-width:4; stroke-opacity:1; fill:none" points="736.298,1423.18 736.298,1404.28 "/>
<polyline clip-path="url(#clip050)" style="stroke:#000000; stroke-linecap:round; stroke-linejoin:round; stroke-width:4; stroke-opacity:1; fill:none" points="1126.77,1423.18 1126.77,1404.28 "/>
<polyline clip-path="url(#clip050)" style="stroke:#000000; stroke-linecap:round; stroke-linejoin:round; stroke-width:4; stroke-opacity:1; fill:none" points="1517.25,1423.18 1517.25,1404.28 "/>
<polyline clip-path="url(#clip050)" style="stroke:#000000; stroke-linecap:round; stroke-linejoin:round; stroke-width:4; stroke-opacity:1; fill:none" points="1907.73,1423.18 1907.73,1404.28 "/>
<polyline clip-path="url(#clip050)" style="stroke:#000000; stroke-linecap:round; stroke-linejoin:round; stroke-width:4; stroke-opacity:1; fill:none" points="2298.21,1423.18 2298.21,1404.28 "/>
<path clip-path="url(#clip050)" d="M345.82 1454.1 Q342.209 1454.1 340.381 1457.66 Q338.575 1461.2 338.575 1468.33 Q338.575 1475.44 340.381 1479.01 Q342.209 1482.55 345.82 1482.55 Q349.455 1482.55 351.26 1479.01 Q353.089 1475.44 353.089 1468.33 Q353.089 1461.2 351.26 1457.66 Q349.455 1454.1 345.82 1454.1 M345.82 1450.39 Q351.63 1450.39 354.686 1455 Q357.765 1459.58 357.765 1468.33 Q357.765 1477.06 354.686 1481.67 Q351.63 1486.25 345.82 1486.25 Q340.01 1486.25 336.931 1481.67 Q333.876 1477.06 333.876 1468.33 Q333.876 1459.58 336.931 1455 Q340.01 1450.39 345.82 1450.39 Z" fill="#000000" fill-rule="nonzero" fill-opacity="1" /><path clip-path="url(#clip050)" d="M726.68 1481.64 L734.318 1481.64 L734.318 1455.28 L726.008 1456.95 L726.008 1452.69 L734.272 1451.02 L738.948 1451.02 L738.948 1481.64 L746.587 1481.64 L746.587 1485.58 L726.68 1485.58 L726.68 1481.64 Z" fill="#000000" fill-rule="nonzero" fill-opacity="1" /><path clip-path="url(#clip050)" d="M1121.43 1481.64 L1137.75 1481.64 L1137.75 1485.58 L1115.8 1485.58 L1115.8 1481.64 Q1118.46 1478.89 1123.05 1474.26 Q1127.65 1469.61 1128.83 1468.27 Q1131.08 1465.74 1131.96 1464.01 Q1132.86 1462.25 1132.86 1460.56 Q1132.86 1457.8 1130.92 1456.07 Q1129 1454.33 1125.9 1454.33 Q1123.7 1454.33 1121.24 1455.09 Q1118.81 1455.86 1116.03 1457.41 L1116.03 1452.69 Q1118.86 1451.55 1121.31 1450.97 Q1123.77 1450.39 1125.8 1450.39 Q1131.17 1450.39 1134.37 1453.08 Q1137.56 1455.77 1137.56 1460.26 Q1137.56 1462.39 1136.75 1464.31 Q1135.96 1466.2 1133.86 1468.8 Q1133.28 1469.47 1130.18 1472.69 Q1127.08 1475.88 1121.43 1481.64 Z" fill="#000000" fill-rule="nonzero" fill-opacity="1" /><path clip-path="url(#clip050)" d="M1521.5 1466.95 Q1524.86 1467.66 1526.73 1469.93 Q1528.63 1472.2 1528.63 1475.53 Q1528.63 1480.65 1525.11 1483.45 Q1521.59 1486.25 1515.11 1486.25 Q1512.93 1486.25 1510.62 1485.81 Q1508.33 1485.39 1505.87 1484.54 L1505.87 1480.02 Q1507.82 1481.16 1510.13 1481.74 Q1512.45 1482.32 1514.97 1482.32 Q1519.37 1482.32 1521.66 1480.58 Q1523.98 1478.84 1523.98 1475.53 Q1523.98 1472.48 1521.82 1470.77 Q1519.69 1469.03 1515.87 1469.03 L1511.85 1469.03 L1511.85 1465.19 L1516.06 1465.19 Q1519.51 1465.19 1521.34 1463.82 Q1523.17 1462.43 1523.17 1459.84 Q1523.17 1457.18 1521.27 1455.77 Q1519.39 1454.33 1515.87 1454.33 Q1513.95 1454.33 1511.75 1454.75 Q1509.56 1455.16 1506.92 1456.04 L1506.92 1451.88 Q1509.58 1451.14 1511.89 1450.77 Q1514.23 1450.39 1516.29 1450.39 Q1521.62 1450.39 1524.72 1452.83 Q1527.82 1455.23 1527.82 1459.35 Q1527.82 1462.22 1526.18 1464.21 Q1524.53 1466.18 1521.5 1466.95 Z" fill="#000000" fill-rule="nonzero" fill-opacity="1" /><path clip-path="url(#clip050)" d="M1910.74 1455.09 L1898.93 1473.54 L1910.74 1473.54 L1910.74 1455.09 M1909.51 1451.02 L1915.39 1451.02 L1915.39 1473.54 L1920.32 1473.54 L1920.32 1477.43 L1915.39 1477.43 L1915.39 1485.58 L1910.74 1485.58 L1910.74 1477.43 L1895.14 1477.43 L1895.14 1472.92 L1909.51 1451.02 Z" fill="#000000" fill-rule="nonzero" fill-opacity="1" /><path clip-path="url(#clip050)" d="M2288.48 1451.02 L2306.84 1451.02 L2306.84 1454.96 L2292.77 1454.96 L2292.77 1463.43 Q2293.78 1463.08 2294.8 1462.92 Q2295.82 1462.73 2296.84 1462.73 Q2302.63 1462.73 2306.01 1465.9 Q2309.39 1469.08 2309.39 1474.49 Q2309.39 1480.07 2305.91 1483.17 Q2302.44 1486.25 2296.12 1486.25 Q2293.95 1486.25 2291.68 1485.88 Q2289.43 1485.51 2287.03 1484.77 L2287.03 1480.07 Q2289.11 1481.2 2291.33 1481.76 Q2293.55 1482.32 2296.03 1482.32 Q2300.03 1482.32 2302.37 1480.21 Q2304.71 1478.1 2304.71 1474.49 Q2304.71 1470.88 2302.37 1468.77 Q2300.03 1466.67 2296.03 1466.67 Q2294.16 1466.67 2292.28 1467.08 Q2290.43 1467.5 2288.48 1468.38 L2288.48 1451.02 Z" fill="#000000" fill-rule="nonzero" fill-opacity="1" /><path clip-path="url(#clip050)" d="M1190.23 1520.52 L1230.43 1520.52 L1230.43 1525.93 L1213.56 1525.93 L1213.56 1568.04 L1207.1 1568.04 L1207.1 1525.93 L1190.23 1525.93 L1190.23 1520.52 Z" fill="#000000" fill-rule="nonzero" fill-opacity="1" /><path clip-path="url(#clip050)" d="M1234.38 1532.4 L1240.23 1532.4 L1240.23 1568.04 L1234.38 1568.04 L1234.38 1532.4 M1234.38 1518.52 L1240.23 1518.52 L1240.23 1525.93 L1234.38 1525.93 L1234.38 1518.52 Z" fill="#000000" fill-rule="nonzero" fill-opacity="1" /><path clip-path="url(#clip050)" d="M1280.24 1539.24 Q1282.44 1535.29 1285.5 1533.41 Q1288.55 1531.54 1292.69 1531.54 Q1298.26 1531.54 1301.28 1535.45 Q1304.31 1539.33 1304.31 1546.53 L1304.31 1568.04 L1298.42 1568.04 L1298.42 1546.72 Q1298.42 1541.59 1296.6 1539.11 Q1294.79 1536.63 1291.07 1536.63 Q1286.51 1536.63 1283.87 1539.65 Q1281.23 1542.68 1281.23 1547.9 L1281.23 1568.04 L1275.34 1568.04 L1275.34 1546.72 Q1275.34 1541.56 1273.53 1539.11 Q1271.71 1536.63 1267.93 1536.63 Q1263.44 1536.63 1260.8 1539.68 Q1258.15 1542.71 1258.15 1547.9 L1258.15 1568.04 L1252.27 1568.04 L1252.27 1532.4 L1258.15 1532.4 L1258.15 1537.93 Q1260.16 1534.66 1262.96 1533.1 Q1265.76 1531.54 1269.61 1531.54 Q1273.5 1531.54 1276.2 1533.51 Q1278.94 1535.48 1280.24 1539.24 Z" fill="#000000" fill-rule="nonzero" fill-opacity="1" /><path clip-path="url(#clip050)" d="M1346.48 1548.76 L1346.48 1551.62 L1319.55 1551.62 Q1319.93 1557.67 1323.18 1560.85 Q1326.46 1564 1332.28 1564 Q1335.66 1564 1338.81 1563.17 Q1341.99 1562.35 1345.11 1560.69 L1345.11 1566.23 Q1341.96 1567.57 1338.65 1568.27 Q1335.34 1568.97 1331.93 1568.97 Q1323.4 1568.97 1318.41 1564 Q1313.44 1559.04 1313.44 1550.57 Q1313.44 1541.82 1318.15 1536.69 Q1322.89 1531.54 1330.91 1531.54 Q1338.11 1531.54 1342.28 1536.18 Q1346.48 1540.8 1346.48 1548.76 M1340.62 1547.04 Q1340.56 1542.23 1337.92 1539.37 Q1335.31 1536.5 1330.98 1536.5 Q1326.08 1536.5 1323.12 1539.27 Q1320.19 1542.04 1319.74 1547.07 L1340.62 1547.04 Z" fill="#000000" fill-rule="nonzero" fill-opacity="1" /><path clip-path="url(#clip050)" d="M1390.88 1518.58 Q1386.61 1525.9 1384.55 1533.06 Q1382.48 1540.23 1382.48 1547.58 Q1382.48 1554.93 1384.55 1562.16 Q1386.65 1569.35 1390.88 1576.64 L1385.79 1576.64 Q1381.01 1569.16 1378.63 1561.93 Q1376.27 1554.71 1376.27 1547.58 Q1376.27 1540.48 1378.63 1533.29 Q1380.98 1526.09 1385.79 1518.58 L1390.88 1518.58 Z" fill="#000000" fill-rule="nonzero" fill-opacity="1" /><path clip-path="url(#clip050)" d="M1424.97 1533.45 L1424.97 1538.98 Q1422.49 1537.71 1419.81 1537.07 Q1417.14 1536.44 1414.27 1536.44 Q1409.91 1536.44 1407.72 1537.77 Q1405.55 1539.11 1405.55 1541.79 Q1405.55 1543.82 1407.11 1545 Q1408.67 1546.15 1413.38 1547.2 L1415.39 1547.64 Q1421.63 1548.98 1424.24 1551.43 Q1426.88 1553.85 1426.88 1558.21 Q1426.88 1563.17 1422.93 1566.07 Q1419.02 1568.97 1412.14 1568.97 Q1409.28 1568.97 1406.16 1568.39 Q1403.07 1567.85 1399.63 1566.74 L1399.63 1560.69 Q1402.88 1562.38 1406.03 1563.24 Q1409.18 1564.07 1412.27 1564.07 Q1416.41 1564.07 1418.63 1562.66 Q1420.86 1561.23 1420.86 1558.65 Q1420.86 1556.27 1419.24 1554.99 Q1417.65 1553.72 1412.2 1552.54 L1410.17 1552.07 Q1404.72 1550.92 1402.31 1548.56 Q1399.89 1546.18 1399.89 1542.04 Q1399.89 1537.01 1403.45 1534.27 Q1407.02 1531.54 1413.57 1531.54 Q1416.82 1531.54 1419.68 1532.01 Q1422.55 1532.49 1424.97 1533.45 Z" fill="#000000" fill-rule="nonzero" fill-opacity="1" /><path clip-path="url(#clip050)" d="M1435.28 1518.58 L1440.37 1518.58 Q1445.15 1526.09 1447.5 1533.29 Q1449.89 1540.48 1449.89 1547.58 Q1449.89 1554.71 1447.5 1561.93 Q1445.15 1569.16 1440.37 1576.64 L1435.28 1576.64 Q1439.51 1569.35 1441.58 1562.16 Q1443.68 1554.93 1443.68 1547.58 Q1443.68 1540.23 1441.58 1533.06 Q1439.51 1525.9 1435.28 1518.58 Z" fill="#000000" fill-rule="nonzero" fill-opacity="1" /><polyline clip-path="url(#clip050)" style="stroke:#000000; stroke-linecap:round; stroke-linejoin:round; stroke-width:4; stroke-opacity:1; fill:none" points="287.366,1423.18 287.366,847.244 "/>
<polyline clip-path="url(#clip050)" style="stroke:#000000; stroke-linecap:round; stroke-linejoin:round; stroke-width:4; stroke-opacity:1; fill:none" points="287.366,1406.88 306.264,1406.88 "/>
<polyline clip-path="url(#clip050)" style="stroke:#000000; stroke-linecap:round; stroke-linejoin:round; stroke-width:4; stroke-opacity:1; fill:none" points="287.366,1271.05 306.264,1271.05 "/>
<polyline clip-path="url(#clip050)" style="stroke:#000000; stroke-linecap:round; stroke-linejoin:round; stroke-width:4; stroke-opacity:1; fill:none" points="287.366,1135.21 306.264,1135.21 "/>
<polyline clip-path="url(#clip050)" style="stroke:#000000; stroke-linecap:round; stroke-linejoin:round; stroke-width:4; stroke-opacity:1; fill:none" points="287.366,999.378 306.264,999.378 "/>
<polyline clip-path="url(#clip050)" style="stroke:#000000; stroke-linecap:round; stroke-linejoin:round; stroke-width:4; stroke-opacity:1; fill:none" points="287.366,863.544 306.264,863.544 "/>
<path clip-path="url(#clip050)" d="M144.422 1407.33 L174.098 1407.33 L174.098 1411.27 L144.422 1411.27 L144.422 1407.33 Z" fill="#000000" fill-rule="nonzero" fill-opacity="1" /><path clip-path="url(#clip050)" d="M185.001 1420.22 L192.639 1420.22 L192.639 1393.86 L184.329 1395.53 L184.329 1391.27 L192.593 1389.6 L197.269 1389.6 L197.269 1420.22 L204.908 1420.22 L204.908 1424.16 L185.001 1424.16 L185.001 1420.22 Z" fill="#000000" fill-rule="nonzero" fill-opacity="1" /><path clip-path="url(#clip050)" d="M214.352 1418.28 L219.236 1418.28 L219.236 1424.16 L214.352 1424.16 L214.352 1418.28 Z" fill="#000000" fill-rule="nonzero" fill-opacity="1" /><path clip-path="url(#clip050)" d="M239.422 1392.68 Q235.81 1392.68 233.982 1396.24 Q232.176 1399.78 232.176 1406.91 Q232.176 1414.02 233.982 1417.59 Q235.81 1421.13 239.422 1421.13 Q243.056 1421.13 244.861 1417.59 Q246.69 1414.02 246.69 1406.91 Q246.69 1399.78 244.861 1396.24 Q243.056 1392.68 239.422 1392.68 M239.422 1388.97 Q245.232 1388.97 248.287 1393.58 Q251.366 1398.16 251.366 1406.91 Q251.366 1415.64 248.287 1420.25 Q245.232 1424.83 239.422 1424.83 Q233.611 1424.83 230.533 1420.25 Q227.477 1415.64 227.477 1406.91 Q227.477 1398.16 230.533 1393.58 Q233.611 1388.97 239.422 1388.97 Z" fill="#000000" fill-rule="nonzero" fill-opacity="1" /><path clip-path="url(#clip050)" d="M145.417 1271.5 L175.093 1271.5 L175.093 1275.43 L145.417 1275.43 L145.417 1271.5 Z" fill="#000000" fill-rule="nonzero" fill-opacity="1" /><path clip-path="url(#clip050)" d="M195.186 1256.84 Q191.575 1256.84 189.746 1260.41 Q187.94 1263.95 187.94 1271.08 Q187.94 1278.19 189.746 1281.75 Q191.575 1285.29 195.186 1285.29 Q198.82 1285.29 200.625 1281.75 Q202.454 1278.19 202.454 1271.08 Q202.454 1263.95 200.625 1260.41 Q198.82 1256.84 195.186 1256.84 M195.186 1253.14 Q200.996 1253.14 204.051 1257.75 Q207.13 1262.33 207.13 1271.08 Q207.13 1279.81 204.051 1284.41 Q200.996 1289 195.186 1289 Q189.375 1289 186.297 1284.41 Q183.241 1279.81 183.241 1271.08 Q183.241 1262.33 186.297 1257.75 Q189.375 1253.14 195.186 1253.14 Z" fill="#000000" fill-rule="nonzero" fill-opacity="1" /><path clip-path="url(#clip050)" d="M215.348 1282.45 L220.232 1282.45 L220.232 1288.33 L215.348 1288.33 L215.348 1282.45 Z" fill="#000000" fill-rule="nonzero" fill-opacity="1" /><path clip-path="url(#clip050)" d="M230.463 1253.77 L248.82 1253.77 L248.82 1257.7 L234.746 1257.7 L234.746 1266.17 Q235.764 1265.83 236.783 1265.66 Q237.801 1265.48 238.82 1265.48 Q244.607 1265.48 247.986 1268.65 Q251.366 1271.82 251.366 1277.24 Q251.366 1282.82 247.894 1285.92 Q244.421 1289 238.102 1289 Q235.926 1289 233.658 1288.63 Q231.412 1288.26 229.005 1287.52 L229.005 1282.82 Q231.088 1283.95 233.31 1284.51 Q235.533 1285.06 238.009 1285.06 Q242.014 1285.06 244.352 1282.96 Q246.69 1280.85 246.69 1277.24 Q246.69 1273.63 244.352 1271.52 Q242.014 1269.41 238.009 1269.41 Q236.135 1269.41 234.26 1269.83 Q232.408 1270.25 230.463 1271.13 L230.463 1253.77 Z" fill="#000000" fill-rule="nonzero" fill-opacity="1" /><path clip-path="url(#clip050)" d="M194.19 1121.01 Q190.579 1121.01 188.75 1124.58 Q186.945 1128.12 186.945 1135.25 Q186.945 1142.35 188.75 1145.92 Q190.579 1149.46 194.19 1149.46 Q197.825 1149.46 199.63 1145.92 Q201.459 1142.35 201.459 1135.25 Q201.459 1128.12 199.63 1124.58 Q197.825 1121.01 194.19 1121.01 M194.19 1117.31 Q200 1117.31 203.056 1121.91 Q206.135 1126.5 206.135 1135.25 Q206.135 1143.97 203.056 1148.58 Q200 1153.16 194.19 1153.16 Q188.38 1153.16 185.301 1148.58 Q182.246 1143.97 182.246 1135.25 Q182.246 1126.5 185.301 1121.91 Q188.38 1117.31 194.19 1117.31 Z" fill="#000000" fill-rule="nonzero" fill-opacity="1" /><path clip-path="url(#clip050)" d="M214.352 1146.61 L219.236 1146.61 L219.236 1152.49 L214.352 1152.49 L214.352 1146.61 Z" fill="#000000" fill-rule="nonzero" fill-opacity="1" /><path clip-path="url(#clip050)" d="M239.422 1121.01 Q235.81 1121.01 233.982 1124.58 Q232.176 1128.12 232.176 1135.25 Q232.176 1142.35 233.982 1145.92 Q235.81 1149.46 239.422 1149.46 Q243.056 1149.46 244.861 1145.92 Q246.69 1142.35 246.69 1135.25 Q246.69 1128.12 244.861 1124.58 Q243.056 1121.01 239.422 1121.01 M239.422 1117.31 Q245.232 1117.31 248.287 1121.91 Q251.366 1126.5 251.366 1135.25 Q251.366 1143.97 248.287 1148.58 Q245.232 1153.16 239.422 1153.16 Q233.611 1153.16 230.533 1148.58 Q227.477 1143.97 227.477 1135.25 Q227.477 1126.5 230.533 1121.91 Q233.611 1117.31 239.422 1117.31 Z" fill="#000000" fill-rule="nonzero" fill-opacity="1" /><path clip-path="url(#clip050)" d="M195.186 985.177 Q191.575 985.177 189.746 988.742 Q187.94 992.283 187.94 999.413 Q187.94 1006.52 189.746 1010.08 Q191.575 1013.63 195.186 1013.63 Q198.82 1013.63 200.625 1010.08 Q202.454 1006.52 202.454 999.413 Q202.454 992.283 200.625 988.742 Q198.82 985.177 195.186 985.177 M195.186 981.473 Q200.996 981.473 204.051 986.08 Q207.13 990.663 207.13 999.413 Q207.13 1008.14 204.051 1012.75 Q200.996 1017.33 195.186 1017.33 Q189.375 1017.33 186.297 1012.75 Q183.241 1008.14 183.241 999.413 Q183.241 990.663 186.297 986.08 Q189.375 981.473 195.186 981.473 Z" fill="#000000" fill-rule="nonzero" fill-opacity="1" /><path clip-path="url(#clip050)" d="M215.348 1010.78 L220.232 1010.78 L220.232 1016.66 L215.348 1016.66 L215.348 1010.78 Z" fill="#000000" fill-rule="nonzero" fill-opacity="1" /><path clip-path="url(#clip050)" d="M230.463 982.098 L248.82 982.098 L248.82 986.033 L234.746 986.033 L234.746 994.505 Q235.764 994.158 236.783 993.996 Q237.801 993.811 238.82 993.811 Q244.607 993.811 247.986 996.982 Q251.366 1000.15 251.366 1005.57 Q251.366 1011.15 247.894 1014.25 Q244.421 1017.33 238.102 1017.33 Q235.926 1017.33 233.658 1016.96 Q231.412 1016.59 229.005 1015.85 L229.005 1011.15 Q231.088 1012.28 233.31 1012.84 Q235.533 1013.39 238.009 1013.39 Q242.014 1013.39 244.352 1011.29 Q246.69 1009.18 246.69 1005.57 Q246.69 1001.96 244.352 999.853 Q242.014 997.746 238.009 997.746 Q236.135 997.746 234.26 998.163 Q232.408 998.579 230.463 999.459 L230.463 982.098 Z" fill="#000000" fill-rule="nonzero" fill-opacity="1" /><path clip-path="url(#clip050)" d="M185.001 876.889 L192.639 876.889 L192.639 850.523 L184.329 852.19 L184.329 847.931 L192.593 846.264 L197.269 846.264 L197.269 876.889 L204.908 876.889 L204.908 880.824 L185.001 880.824 L185.001 876.889 Z" fill="#000000" fill-rule="nonzero" fill-opacity="1" /><path clip-path="url(#clip050)" d="M214.352 874.945 L219.236 874.945 L219.236 880.824 L214.352 880.824 L214.352 874.945 Z" fill="#000000" fill-rule="nonzero" fill-opacity="1" /><path clip-path="url(#clip050)" d="M239.422 849.343 Q235.81 849.343 233.982 852.908 Q232.176 856.449 232.176 863.579 Q232.176 870.685 233.982 874.25 Q235.81 877.792 239.422 877.792 Q243.056 877.792 244.861 874.25 Q246.69 870.685 246.69 863.579 Q246.69 856.449 244.861 852.908 Q243.056 849.343 239.422 849.343 M239.422 845.639 Q245.232 845.639 248.287 850.246 Q251.366 854.829 251.366 863.579 Q251.366 872.306 248.287 876.912 Q245.232 881.495 239.422 881.495 Q233.611 881.495 230.533 876.912 Q227.477 872.306 227.477 863.579 Q227.477 854.829 230.533 850.246 Q233.611 845.639 239.422 845.639 Z" fill="#000000" fill-rule="nonzero" fill-opacity="1" /><path clip-path="url(#clip050)" d="M80.0978 1150.14 L58.5181 1150.14 L58.5181 1144.28 L79.875 1144.28 Q84.9358 1144.28 87.482 1142.31 Q89.9965 1140.34 89.9965 1136.39 Q89.9965 1131.65 86.9728 1128.91 Q83.9491 1126.14 78.7292 1126.14 L58.5181 1126.14 L58.5181 1120.28 L94.166 1120.28 L94.166 1126.14 L88.6915 1126.14 Q91.938 1128.27 93.5295 1131.11 Q95.0891 1133.91 95.0891 1137.63 Q95.0891 1143.77 91.2696 1146.96 Q87.4502 1150.14 80.0978 1150.14 M57.6587 1135.4 L57.6587 1135.4 Z" fill="#000000" fill-rule="nonzero" fill-opacity="1" /><polyline clip-path="url(#clip053)" style="stroke:#009af9; stroke-linecap:round; stroke-linejoin:round; stroke-width:4; stroke-opacity:1; fill:none" points="345.82,1406.88 349.725,1406.88 353.63,1406.88 357.535,1406.88 361.439,1406.88 365.344,1406.88 369.249,1406.88 373.154,1406.88 377.059,1406.88 380.963,1406.88 384.868,1406.88 388.773,1406.88 392.678,1406.88 396.582,1406.88 400.487,1406.88 404.392,1406.88 408.297,1406.88 412.201,1406.88 416.106,1406.88 420.011,1406.88 423.916,1406.88 427.821,1406.88 431.725,1406.88 435.63,1406.88 439.535,1406.88 443.44,1406.88 443.44,863.544 447.344,863.544 451.249,863.544 455.154,863.544 459.059,863.544 462.963,863.544 466.868,863.544 470.773,863.544 474.678,863.544 478.583,863.544 482.487,863.544 486.392,863.544 490.297,863.544 494.202,863.544 498.106,863.544 502.011,863.544 505.916,863.544 509.821,863.544 513.726,863.544 517.63,863.544 521.535,863.544 521.535,1406.88 525.44,1406.88 529.345,1406.88 533.249,1406.88 537.154,1406.88 541.059,1406.88 544.964,1406.88 548.868,1406.88 552.773,1406.88 556.678,1406.88 560.583,1406.88 564.488,1406.88 568.392,1406.88 572.297,1406.88 576.202,1406.88 580.107,1406.88 580.107,863.544 584.011,863.544 587.916,863.544 591.821,863.544 595.726,863.544 599.631,863.544 599.631,1406.88 603.535,1406.88 607.44,1406.88 611.345,1406.88 615.25,1406.88 619.154,1406.88 619.154,863.544 623.059,863.544 626.964,863.544 630.869,863.544 634.773,863.544 638.678,863.544 642.583,863.544 646.488,863.544 650.393,863.544 654.297,863.544 658.202,863.544 662.107,863.544 666.012,863.544 669.916,863.544 673.821,863.544 677.726,863.544 681.631,863.544 685.535,863.544 689.44,863.544 693.345,863.544 697.25,863.544 701.155,863.544 705.059,863.544 708.964,863.544 712.869,863.544 716.774,863.544 720.678,863.544 724.583,863.544 728.488,863.544 732.393,863.544 736.298,863.544 740.202,863.544 744.107,863.544 748.012,863.544 751.917,863.544 755.821,863.544 755.821,1406.88 759.726,1406.88 763.631,1406.88 767.536,1406.88 771.44,1406.88 775.345,1406.88 775.345,863.544 779.25,863.544 783.155,863.544 787.06,863.544 790.964,863.544 794.869,863.544 794.869,1406.88 798.774,1406.88 802.679,1406.88 806.583,1406.88 810.488,1406.88 814.393,1406.88 814.393,863.544 818.298,863.544 822.202,863.544 826.107,863.544 830.012,863.544 833.917,863.544 833.917,1406.88 837.822,1406.88 841.726,1406.88 845.631,1406.88 849.536,1406.88 853.441,1406.88 853.441,863.544 857.345,863.544 861.25,863.544 865.155,863.544 869.06,863.544 872.965,863.544 872.965,1406.88 876.869,1406.88 880.774,1406.88 884.679,1406.88 888.584,1406.88 892.488,1406.88 896.393,1406.88 900.298,1406.88 904.203,1406.88 908.107,1406.88 912.012,1406.88 912.012,863.544 915.917,863.544 919.822,863.544 923.727,863.544 927.631,863.544 931.536,863.544 935.441,863.544 939.346,863.544 943.25,863.544 947.155,863.544 951.06,863.544 951.06,1406.88 954.965,1406.88 958.87,1406.88 962.774,1406.88 966.679,1406.88 970.584,1406.88 974.489,1406.88 978.393,1406.88 982.298,1406.88 986.203,1406.88 990.108,1406.88 994.012,1406.88 997.917,1406.88 1001.82,1406.88 1005.73,1406.88 1009.63,1406.88 1013.54,1406.88 1017.44,1406.88 1021.35,1406.88 1025.25,1406.88 1029.16,1406.88 1029.16,863.544 1033.06,863.544 1036.96,863.544 1040.87,863.544 1044.77,863.544 1048.68,863.544 1052.58,863.544 1056.49,863.544 1060.39,863.544 1064.3,863.544 1068.2,863.544 1072.11,863.544 1076.01,863.544 1079.92,863.544 1083.82,863.544 1087.73,863.544 1091.63,863.544 1095.54,863.544 1099.44,863.544 1103.35,863.544 1107.25,863.544 1111.16,863.544 1115.06,863.544 1118.97,863.544 1122.87,863.544 1126.77,863.544 1130.68,863.544 1134.58,863.544 1138.49,863.544 1142.39,863.544 1146.3,863.544 1146.3,1406.88 1150.2,1406.88 1154.11,1406.88 1158.01,1406.88 1161.92,1406.88 1165.82,1406.88 1165.82,863.544 1169.73,863.544 1173.63,863.544 1177.54,863.544 1181.44,863.544 1185.35,863.544 1185.35,1406.88 1189.25,1406.88 1193.16,1406.88 1197.06,1406.88 1200.97,1406.88 1204.87,1406.88 1208.77,1406.88 1212.68,1406.88 1216.58,1406.88 1220.49,1406.88 1224.39,1406.88 1224.39,863.544 1228.3,863.544 1232.2,863.544 1236.11,863.544 1240.01,863.544 1243.92,863.544 1243.92,1406.88 1247.82,1406.88 1251.73,1406.88 1255.63,1406.88 1259.54,1406.88 1263.44,1406.88 1267.35,1406.88 1271.25,1406.88 1275.16,1406.88 1279.06,1406.88 1282.97,1406.88 1286.87,1406.88 1290.78,1406.88 1294.68,1406.88 1298.58,1406.88 1302.49,1406.88 1302.49,863.544 1306.39,863.544 1310.3,863.544 1314.2,863.544 1318.11,863.544 1322.01,863.544 1322.01,1406.88 1325.92,1406.88 1329.82,1406.88 1333.73,1406.88 1337.63,1406.88 1341.54,1406.88 1345.44,1406.88 1349.35,1406.88 1353.25,1406.88 1357.16,1406.88 1361.06,1406.88 1364.97,1406.88 1368.87,1406.88 1372.78,1406.88 1376.68,1406.88 1380.58,1406.88 1384.49,1406.88 1388.39,1406.88 1392.3,1406.88 1396.2,1406.88 1400.11,1406.88 1400.11,863.544 1404.01,863.544 1407.92,863.544 1411.82,863.544 1415.73,863.544 1419.63,863.544 1419.63,1406.88 1423.54,1406.88 1427.44,1406.88 1431.35,1406.88 1435.25,1406.88 1439.16,1406.88 1439.16,863.544 1443.06,863.544 1446.97,863.544 1450.87,863.544 1454.78,863.544 1458.68,863.544 1462.59,863.544 1466.49,863.544 1470.39,863.544 1474.3,863.544 1478.2,863.544 1478.2,1406.88 1482.11,1406.88 1486.01,1406.88 1489.92,1406.88 1493.82,1406.88 1497.73,1406.88 1497.73,863.544 1501.63,863.544 1505.54,863.544 1509.44,863.544 1513.35,863.544 1517.25,863.544 1521.16,863.544 1525.06,863.544 1528.97,863.544 1532.87,863.544 1536.78,863.544 1540.68,863.544 1544.59,863.544 1548.49,863.544 1552.39,863.544 1556.3,863.544 1556.3,1406.88 1560.2,1406.88 1564.11,1406.88 1568.01,1406.88 1571.92,1406.88 1575.82,1406.88 1575.82,863.544 1579.73,863.544 1583.63,863.544 1587.54,863.544 1591.44,863.544 1595.35,863.544 1599.25,863.544 1603.16,863.544 1607.06,863.544 1610.97,863.544 1614.87,863.544 1618.78,863.544 1622.68,863.544 1626.59,863.544 1630.49,863.544 1634.4,863.544 1634.4,1406.88 1638.3,1406.88 1642.2,1406.88 1646.11,1406.88 1650.01,1406.88 1653.92,1406.88 1653.92,863.544 1657.82,863.544 1661.73,863.544 1665.63,863.544 1669.54,863.544 1673.44,863.544 1677.35,863.544 1681.25,863.544 1685.16,863.544 1689.06,863.544 1692.97,863.544 1692.97,1406.88 1696.87,1406.88 1700.78,1406.88 1704.68,1406.88 1708.59,1406.88 1712.49,1406.88 1716.4,1406.88 1720.3,1406.88 1724.2,1406.88 1728.11,1406.88 1732.01,1406.88 1732.01,863.544 1735.92,863.544 1739.82,863.544 1743.73,863.544 1747.63,863.544 1751.54,863.544 1751.54,1406.88 1755.44,1406.88 1759.35,1406.88 1763.25,1406.88 1767.16,1406.88 1771.06,1406.88 1771.06,863.544 1774.97,863.544 1778.87,863.544 1782.78,863.544 1786.68,863.544 1790.59,863.544 1790.59,1406.88 1794.49,1406.88 1798.4,1406.88 1802.3,1406.88 1806.2,1406.88 1810.11,1406.88 1814.01,1406.88 1817.92,1406.88 1821.82,1406.88 1825.73,1406.88 1829.63,1406.88 1829.63,863.544 1833.54,863.544 1837.44,863.544 1841.35,863.544 1845.25,863.544 1849.16,863.544 1853.06,863.544 1856.97,863.544 1860.87,863.544 1864.78,863.544 1868.68,863.544 1872.59,863.544 1876.49,863.544 1880.4,863.544 1884.3,863.544 1888.21,863.544 1888.21,1406.88 1892.11,1406.88 1896.01,1406.88 1899.92,1406.88 1903.82,1406.88 1907.73,1406.88 1907.73,863.544 1911.63,863.544 1915.54,863.544 1919.44,863.544 1923.35,863.544 1927.25,863.544 1927.25,1406.88 1931.16,1406.88 1935.06,1406.88 1938.97,1406.88 1942.87,1406.88 1946.78,1406.88 1950.68,1406.88 1954.59,1406.88 1958.49,1406.88 1962.4,1406.88 1966.3,1406.88 1970.21,1406.88 1974.11,1406.88 1978.01,1406.88 1981.92,1406.88 1985.82,1406.88 1989.73,1406.88 1993.63,1406.88 1997.54,1406.88 2001.44,1406.88 2005.35,1406.88 2009.25,1406.88 2013.16,1406.88 2017.06,1406.88 2020.97,1406.88 2024.87,1406.88 2028.78,1406.88 2032.68,1406.88 2036.59,1406.88 2040.49,1406.88 2044.4,1406.88 2044.4,863.544 2048.3,863.544 2052.21,863.544 2056.11,863.544 2060.02,863.544 2063.92,863.544 2063.92,1406.88 2067.82,1406.88 2071.73,1406.88 2075.63,1406.88 2079.54,1406.88 2083.44,1406.88 2087.35,1406.88 2091.25,1406.88 2095.16,1406.88 2099.06,1406.88 2102.97,1406.88 2102.97,863.544 2106.87,863.544 2110.78,863.544 2114.68,863.544 2118.59,863.544 2122.49,863.544 2126.4,863.544 2130.3,863.544 2134.21,863.544 2138.11,863.544 2142.02,863.544 2145.92,863.544 2149.82,863.544 2153.73,863.544 2157.63,863.544 2161.54,863.544 2161.54,1406.88 2165.44,1406.88 2169.35,1406.88 2173.25,1406.88 2177.16,1406.88 2181.06,1406.88 2181.06,863.544 2184.97,863.544 2188.87,863.544 2192.78,863.544 2196.68,863.544 2200.59,863.544 2204.49,863.544 2208.4,863.544 2212.3,863.544 2216.21,863.544 2220.11,863.544 2220.11,1406.88 2224.02,1406.88 2227.92,1406.88 2231.83,1406.88 2235.73,1406.88 2239.63,1406.88 2243.54,1406.88 2247.44,1406.88 2251.35,1406.88 2255.25,1406.88 2259.16,1406.88 2259.16,863.544 2263.06,863.544 2266.97,863.544 2270.87,863.544 2274.78,863.544 2278.68,863.544 2278.68,1406.88 2282.59,1406.88 2286.49,1406.88 2290.4,1406.88 2294.3,1406.88 "/>
</svg>
