<?xml version="1.0" encoding="utf-8"?>
<svg xmlns="http://www.w3.org/2000/svg" xmlns:xlink="http://www.w3.org/1999/xlink" width="600" height="400" viewBox="0 0 2400 1600">
<defs>
  <clipPath id="clip200">
    <rect x="0" y="0" width="2400" height="1600"/>
  </clipPath>
</defs>
<path clip-path="url(#clip200)" d="M0 1600 L2400 1600 L2400 0 L0 0  Z" fill="#ffffff" fill-rule="evenodd" fill-opacity="1"/>
<defs>
  <clipPath id="clip201">
    <rect x="480" y="0" width="1681" height="1600"/>
  </clipPath>
</defs>
<path clip-path="url(#clip200)" d="M255.977 1423.18 L2352.76 1423.18 L2352.76 47.2441 L255.977 47.2441  Z" fill="#ffffff" fill-rule="evenodd" fill-opacity="1"/>
<defs>
  <clipPath id="clip202">
    <rect x="255" y="47" width="2098" height="1377"/>
  </clipPath>
</defs>
<polyline clip-path="url(#clip202)" style="stroke:#000000; stroke-linecap:round; stroke-linejoin:round; stroke-width:2; stroke-opacity:0.1; fill:none" points="315.32,1423.18 315.32,47.2441 "/>
<polyline clip-path="url(#clip202)" style="stroke:#000000; stroke-linecap:round; stroke-linejoin:round; stroke-width:2; stroke-opacity:0.1; fill:none" points="711.731,1423.18 711.731,47.2441 "/>
<polyline clip-path="url(#clip202)" style="stroke:#000000; stroke-linecap:round; stroke-linejoin:round; stroke-width:2; stroke-opacity:0.1; fill:none" points="1108.14,1423.18 1108.14,47.2441 "/>
<polyline clip-path="url(#clip202)" style="stroke:#000000; stroke-linecap:round; stroke-linejoin:round; stroke-width:2; stroke-opacity:0.1; fill:none" points="1504.55,1423.18 1504.55,47.2441 "/>
<polyline clip-path="url(#clip202)" style="stroke:#000000; stroke-linecap:round; stroke-linejoin:round; stroke-width:2; stroke-opacity:0.1; fill:none" points="1900.97,1423.18 1900.97,47.2441 "/>
<polyline clip-path="url(#clip202)" style="stroke:#000000; stroke-linecap:round; stroke-linejoin:round; stroke-width:2; stroke-opacity:0.1; fill:none" points="2297.38,1423.18 2297.38,47.2441 "/>
<polyline clip-path="url(#clip202)" style="stroke:#000000; stroke-linecap:round; stroke-linejoin:round; stroke-width:2; stroke-opacity:0.1; fill:none" points="255.977,1400.79 2352.76,1400.79 "/>
<polyline clip-path="url(#clip202)" style="stroke:#000000; stroke-linecap:round; stroke-linejoin:round; stroke-width:2; stroke-opacity:0.1; fill:none" points="255.977,1031.77 2352.76,1031.77 "/>
<polyline clip-path="url(#clip202)" style="stroke:#000000; stroke-linecap:round; stroke-linejoin:round; stroke-width:2; stroke-opacity:0.1; fill:none" points="255.977,662.751 2352.76,662.751 "/>
<polyline clip-path="url(#clip202)" style="stroke:#000000; stroke-linecap:round; stroke-linejoin:round; stroke-width:2; stroke-opacity:0.1; fill:none" points="255.977,293.733 2352.76,293.733 "/>
<polyline clip-path="url(#clip200)" style="stroke:#000000; stroke-linecap:round; stroke-linejoin:round; stroke-width:4; stroke-opacity:1; fill:none" points="255.977,1423.18 2352.76,1423.18 "/>
<polyline clip-path="url(#clip200)" style="stroke:#000000; stroke-linecap:round; stroke-linejoin:round; stroke-width:4; stroke-opacity:1; fill:none" points="315.32,1423.18 315.32,1404.28 "/>
<polyline clip-path="url(#clip200)" style="stroke:#000000; stroke-linecap:round; stroke-linejoin:round; stroke-width:4; stroke-opacity:1; fill:none" points="711.731,1423.18 711.731,1404.28 "/>
<polyline clip-path="url(#clip200)" style="stroke:#000000; stroke-linecap:round; stroke-linejoin:round; stroke-width:4; stroke-opacity:1; fill:none" points="1108.14,1423.18 1108.14,1404.28 "/>
<polyline clip-path="url(#clip200)" style="stroke:#000000; stroke-linecap:round; stroke-linejoin:round; stroke-width:4; stroke-opacity:1; fill:none" points="1504.55,1423.18 1504.55,1404.28 "/>
<polyline clip-path="url(#clip200)" style="stroke:#000000; stroke-linecap:round; stroke-linejoin:round; stroke-width:4; stroke-opacity:1; fill:none" points="1900.97,1423.18 1900.97,1404.28 "/>
<polyline clip-path="url(#clip200)" style="stroke:#000000; stroke-linecap:round; stroke-linejoin:round; stroke-width:4; stroke-opacity:1; fill:none" points="2297.38,1423.18 2297.38,1404.28 "/>
<path clip-path="url(#clip200)" d="M315.32 1454.1 Q311.709 1454.1 309.88 1457.66 Q308.075 1461.2 308.075 1468.33 Q308.075 1475.44 309.88 1479.01 Q311.709 1482.55 315.32 1482.55 Q318.954 1482.55 320.76 1479.01 Q322.588 1475.44 322.588 1468.33 Q322.588 1461.2 320.76 1457.66 Q318.954 1454.1 315.32 1454.1 M315.32 1450.39 Q321.13 1450.39 324.186 1455 Q327.264 1459.58 327.264 1468.33 Q327.264 1477.06 324.186 1481.67 Q321.13 1486.25 315.32 1486.25 Q309.51 1486.25 306.431 1481.67 Q303.376 1477.06 303.376 1468.33 Q303.376 1459.58 306.431 1455 Q309.51 1450.39 315.32 1450.39 Z" fill="#000000" fill-rule="nonzero" fill-opacity="1" /><path clip-path="url(#clip200)" d="M702.113 1481.64 L709.752 1481.64 L709.752 1455.28 L701.442 1456.95 L701.442 1452.69 L709.706 1451.02 L714.382 1451.02 L714.382 1481.64 L722.021 1481.64 L722.021 1485.58 L702.113 1485.58 L702.113 1481.64 Z" fill="#000000" fill-rule="nonzero" fill-opacity="1" /><path clip-path="url(#clip200)" d="M1102.8 1481.64 L1119.12 1481.64 L1119.12 1485.58 L1097.17 1485.58 L1097.17 1481.64 Q1099.83 1478.89 1104.42 1474.26 Q1109.02 1469.61 1110.2 1468.27 Q1112.45 1465.74 1113.33 1464.01 Q1114.23 1462.25 1114.23 1460.56 Q1114.23 1457.8 1112.29 1456.07 Q1110.37 1454.33 1107.26 1454.33 Q1105.06 1454.33 1102.61 1455.09 Q1100.18 1455.86 1097.4 1457.41 L1097.4 1452.69 Q1100.23 1451.55 1102.68 1450.97 Q1105.13 1450.39 1107.17 1450.39 Q1112.54 1450.39 1115.74 1453.08 Q1118.93 1455.77 1118.93 1460.26 Q1118.93 1462.39 1118.12 1464.31 Q1117.33 1466.2 1115.23 1468.8 Q1114.65 1469.47 1111.55 1472.69 Q1108.44 1475.88 1102.8 1481.64 Z" fill="#000000" fill-rule="nonzero" fill-opacity="1" /><path clip-path="url(#clip200)" d="M1508.8 1466.95 Q1512.16 1467.66 1514.03 1469.93 Q1515.93 1472.2 1515.93 1475.53 Q1515.93 1480.65 1512.41 1483.45 Q1508.89 1486.25 1502.41 1486.25 Q1500.24 1486.25 1497.92 1485.81 Q1495.63 1485.39 1493.18 1484.54 L1493.18 1480.02 Q1495.12 1481.16 1497.44 1481.74 Q1499.75 1482.32 1502.27 1482.32 Q1506.67 1482.32 1508.96 1480.58 Q1511.28 1478.84 1511.28 1475.53 Q1511.28 1472.48 1509.13 1470.77 Q1507 1469.03 1503.18 1469.03 L1499.15 1469.03 L1499.15 1465.19 L1503.36 1465.19 Q1506.81 1465.19 1508.64 1463.82 Q1510.47 1462.43 1510.47 1459.84 Q1510.47 1457.18 1508.57 1455.77 Q1506.7 1454.33 1503.18 1454.33 Q1501.26 1454.33 1499.06 1454.75 Q1496.86 1455.16 1494.22 1456.04 L1494.22 1451.88 Q1496.88 1451.14 1499.2 1450.77 Q1501.53 1450.39 1503.59 1450.39 Q1508.92 1450.39 1512.02 1452.83 Q1515.12 1455.23 1515.12 1459.35 Q1515.12 1462.22 1513.48 1464.21 Q1511.83 1466.18 1508.8 1466.95 Z" fill="#000000" fill-rule="nonzero" fill-opacity="1" /><path clip-path="url(#clip200)" d="M1903.98 1455.09 L1892.17 1473.54 L1903.98 1473.54 L1903.98 1455.09 M1902.75 1451.02 L1908.63 1451.02 L1908.63 1473.54 L1913.56 1473.54 L1913.56 1477.43 L1908.63 1477.43 L1908.63 1485.58 L1903.98 1485.58 L1903.98 1477.43 L1888.37 1477.43 L1888.37 1472.92 L1902.75 1451.02 Z" fill="#000000" fill-rule="nonzero" fill-opacity="1" /><path clip-path="url(#clip200)" d="M2287.66 1451.02 L2306.01 1451.02 L2306.01 1454.96 L2291.94 1454.96 L2291.94 1463.43 Q2292.96 1463.08 2293.97 1462.92 Q2294.99 1462.73 2296.01 1462.73 Q2301.8 1462.73 2305.18 1465.9 Q2308.56 1469.08 2308.56 1474.49 Q2308.56 1480.07 2305.09 1483.17 Q2301.61 1486.25 2295.29 1486.25 Q2293.12 1486.25 2290.85 1485.88 Q2288.6 1485.51 2286.2 1484.77 L2286.2 1480.07 Q2288.28 1481.2 2290.5 1481.76 Q2292.72 1482.32 2295.2 1482.32 Q2299.21 1482.32 2301.54 1480.21 Q2303.88 1478.1 2303.88 1474.49 Q2303.88 1470.88 2301.54 1468.77 Q2299.21 1466.67 2295.2 1466.67 Q2293.33 1466.67 2291.45 1467.08 Q2289.6 1467.5 2287.66 1468.38 L2287.66 1451.02 Z" fill="#000000" fill-rule="nonzero" fill-opacity="1" /><path clip-path="url(#clip200)" d="M1174.54 1520.52 L1214.74 1520.52 L1214.74 1525.93 L1197.87 1525.93 L1197.87 1568.04 L1191.41 1568.04 L1191.41 1525.93 L1174.54 1525.93 L1174.54 1520.52 Z" fill="#000000" fill-rule="nonzero" fill-opacity="1" /><path clip-path="url(#clip200)" d="M1218.68 1532.4 L1224.54 1532.4 L1224.54 1568.04 L1218.68 1568.04 L1218.68 1532.4 M1218.68 1518.52 L1224.54 1518.52 L1224.54 1525.93 L1218.68 1525.93 L1218.68 1518.52 Z" fill="#000000" fill-rule="nonzero" fill-opacity="1" /><path clip-path="url(#clip200)" d="M1264.55 1539.24 Q1266.75 1535.29 1269.8 1533.41 Q1272.86 1531.54 1276.99 1531.54 Q1282.56 1531.54 1285.59 1535.45 Q1288.61 1539.33 1288.61 1546.53 L1288.61 1568.04 L1282.72 1568.04 L1282.72 1546.72 Q1282.72 1541.59 1280.91 1539.11 Q1279.09 1536.63 1275.37 1536.63 Q1270.82 1536.63 1268.18 1539.65 Q1265.54 1542.68 1265.54 1547.9 L1265.54 1568.04 L1259.65 1568.04 L1259.65 1546.72 Q1259.65 1541.56 1257.83 1539.11 Q1256.02 1536.63 1252.23 1536.63 Q1247.74 1536.63 1245.1 1539.68 Q1242.46 1542.71 1242.46 1547.9 L1242.46 1568.04 L1236.57 1568.04 L1236.57 1532.4 L1242.46 1532.4 L1242.46 1537.93 Q1244.47 1534.66 1247.27 1533.1 Q1250.07 1531.54 1253.92 1531.54 Q1257.8 1531.54 1260.51 1533.51 Q1263.24 1535.48 1264.55 1539.24 Z" fill="#000000" fill-rule="nonzero" fill-opacity="1" /><path clip-path="url(#clip200)" d="M1330.78 1548.76 L1330.78 1551.62 L1303.86 1551.62 Q1304.24 1557.67 1307.49 1560.85 Q1310.76 1564 1316.59 1564 Q1319.96 1564 1323.11 1563.17 Q1326.3 1562.35 1329.42 1560.69 L1329.42 1566.23 Q1326.26 1567.57 1322.95 1568.27 Q1319.64 1568.97 1316.24 1568.97 Q1307.71 1568.97 1302.71 1564 Q1297.75 1559.04 1297.75 1550.57 Q1297.75 1541.82 1302.46 1536.69 Q1307.2 1531.54 1315.22 1531.54 Q1322.41 1531.54 1326.58 1536.18 Q1330.78 1540.8 1330.78 1548.76 M1324.93 1547.04 Q1324.86 1542.23 1322.22 1539.37 Q1319.61 1536.5 1315.28 1536.5 Q1310.38 1536.5 1307.42 1539.27 Q1304.49 1542.04 1304.05 1547.07 L1324.93 1547.04 Z" fill="#000000" fill-rule="nonzero" fill-opacity="1" /><path clip-path="url(#clip200)" d="M1360.58 1518.52 L1374.07 1518.52 L1374.07 1523.07 L1366.43 1523.07 L1366.43 1572.09 L1374.07 1572.09 L1374.07 1576.64 L1360.58 1576.64 L1360.58 1518.52 Z" fill="#000000" fill-rule="nonzero" fill-opacity="1" /><path clip-path="url(#clip200)" d="M1409.27 1533.45 L1409.27 1538.98 Q1406.79 1537.71 1404.12 1537.07 Q1401.44 1536.44 1398.58 1536.44 Q1394.22 1536.44 1392.02 1537.77 Q1389.86 1539.11 1389.86 1541.79 Q1389.86 1543.82 1391.42 1545 Q1392.98 1546.15 1397.69 1547.2 L1399.69 1547.64 Q1405.93 1548.98 1408.54 1551.43 Q1411.18 1553.85 1411.18 1558.21 Q1411.18 1563.17 1407.24 1566.07 Q1403.32 1568.97 1396.45 1568.97 Q1393.58 1568.97 1390.46 1568.39 Q1387.38 1567.85 1383.94 1566.74 L1383.94 1560.69 Q1387.18 1562.38 1390.34 1563.24 Q1393.49 1564.07 1396.57 1564.07 Q1400.71 1564.07 1402.94 1562.66 Q1405.17 1561.23 1405.17 1558.65 Q1405.17 1556.27 1403.54 1554.99 Q1401.95 1553.72 1396.51 1552.54 L1394.47 1552.07 Q1389.03 1550.92 1386.61 1548.56 Q1384.19 1546.18 1384.19 1542.04 Q1384.19 1537.01 1387.76 1534.27 Q1391.32 1531.54 1397.88 1531.54 Q1401.13 1531.54 1403.99 1532.01 Q1406.85 1532.49 1409.27 1533.45 Z" fill="#000000" fill-rule="nonzero" fill-opacity="1" /><path clip-path="url(#clip200)" d="M1434.2 1518.52 L1434.2 1576.64 L1420.7 1576.64 L1420.7 1572.09 L1428.31 1572.09 L1428.31 1523.07 L1420.7 1523.07 L1420.7 1518.52 L1434.2 1518.52 Z" fill="#000000" fill-rule="nonzero" fill-opacity="1" /><polyline clip-path="url(#clip200)" style="stroke:#000000; stroke-linecap:round; stroke-linejoin:round; stroke-width:4; stroke-opacity:1; fill:none" points="255.977,1423.18 255.977,47.2441 "/>
<polyline clip-path="url(#clip200)" style="stroke:#000000; stroke-linecap:round; stroke-linejoin:round; stroke-width:4; stroke-opacity:1; fill:none" points="255.977,1400.79 274.875,1400.79 "/>
<polyline clip-path="url(#clip200)" style="stroke:#000000; stroke-linecap:round; stroke-linejoin:round; stroke-width:4; stroke-opacity:1; fill:none" points="255.977,1031.77 274.875,1031.77 "/>
<polyline clip-path="url(#clip200)" style="stroke:#000000; stroke-linecap:round; stroke-linejoin:round; stroke-width:4; stroke-opacity:1; fill:none" points="255.977,662.751 274.875,662.751 "/>
<polyline clip-path="url(#clip200)" style="stroke:#000000; stroke-linecap:round; stroke-linejoin:round; stroke-width:4; stroke-opacity:1; fill:none" points="255.977,293.733 274.875,293.733 "/>
<path clip-path="url(#clip200)" d="M114.631 1401.24 L144.306 1401.24 L144.306 1405.17 L114.631 1405.17 L114.631 1401.24 Z" fill="#000000" fill-rule="nonzero" fill-opacity="1" /><path clip-path="url(#clip200)" d="M164.399 1386.59 Q160.788 1386.59 158.959 1390.15 Q157.153 1393.69 157.153 1400.82 Q157.153 1407.93 158.959 1411.49 Q160.788 1415.04 164.399 1415.04 Q168.033 1415.04 169.839 1411.49 Q171.667 1407.93 171.667 1400.82 Q171.667 1393.69 169.839 1390.15 Q168.033 1386.59 164.399 1386.59 M164.399 1382.88 Q170.209 1382.88 173.264 1387.49 Q176.343 1392.07 176.343 1400.82 Q176.343 1409.55 173.264 1414.16 Q170.209 1418.74 164.399 1418.74 Q158.589 1418.74 155.51 1414.16 Q152.454 1409.55 152.454 1400.82 Q152.454 1392.07 155.51 1387.49 Q158.589 1382.88 164.399 1382.88 Z" fill="#000000" fill-rule="nonzero" fill-opacity="1" /><path clip-path="url(#clip200)" d="M184.561 1412.19 L189.445 1412.19 L189.445 1418.07 L184.561 1418.07 L184.561 1412.19 Z" fill="#000000" fill-rule="nonzero" fill-opacity="1" /><path clip-path="url(#clip200)" d="M203.658 1414.13 L219.977 1414.13 L219.977 1418.07 L198.033 1418.07 L198.033 1414.13 Q200.695 1411.38 205.278 1406.75 Q209.885 1402.1 211.065 1400.75 Q213.311 1398.23 214.19 1396.49 Q215.093 1394.73 215.093 1393.04 Q215.093 1390.29 213.149 1388.55 Q211.227 1386.82 208.125 1386.82 Q205.926 1386.82 203.473 1387.58 Q201.042 1388.35 198.264 1389.9 L198.264 1385.17 Q201.088 1384.04 203.542 1383.46 Q205.996 1382.88 208.033 1382.88 Q213.403 1382.88 216.598 1385.57 Q219.792 1388.25 219.792 1392.74 Q219.792 1394.87 218.982 1396.79 Q218.195 1398.69 216.088 1401.29 Q215.51 1401.96 212.408 1405.17 Q209.306 1408.37 203.658 1414.13 Z" fill="#000000" fill-rule="nonzero" fill-opacity="1" /><path clip-path="url(#clip200)" d="M114.26 1032.22 L143.936 1032.22 L143.936 1036.16 L114.26 1036.16 L114.26 1032.22 Z" fill="#000000" fill-rule="nonzero" fill-opacity="1" /><path clip-path="url(#clip200)" d="M164.028 1017.57 Q160.417 1017.57 158.589 1021.13 Q156.783 1024.67 156.783 1031.8 Q156.783 1038.91 158.589 1042.48 Q160.417 1046.02 164.028 1046.02 Q167.663 1046.02 169.468 1042.48 Q171.297 1038.91 171.297 1031.8 Q171.297 1024.67 169.468 1021.13 Q167.663 1017.57 164.028 1017.57 M164.028 1013.86 Q169.839 1013.86 172.894 1018.47 Q175.973 1023.05 175.973 1031.8 Q175.973 1040.53 172.894 1045.14 Q169.839 1049.72 164.028 1049.72 Q158.218 1049.72 155.14 1045.14 Q152.084 1040.53 152.084 1031.8 Q152.084 1023.05 155.14 1018.47 Q158.218 1013.86 164.028 1013.86 Z" fill="#000000" fill-rule="nonzero" fill-opacity="1" /><path clip-path="url(#clip200)" d="M184.19 1043.17 L189.075 1043.17 L189.075 1049.05 L184.19 1049.05 L184.19 1043.17 Z" fill="#000000" fill-rule="nonzero" fill-opacity="1" /><path clip-path="url(#clip200)" d="M200.07 1045.11 L207.709 1045.11 L207.709 1018.75 L199.399 1020.42 L199.399 1016.16 L207.662 1014.49 L212.338 1014.49 L212.338 1045.11 L219.977 1045.11 L219.977 1049.05 L200.07 1049.05 L200.07 1045.11 Z" fill="#000000" fill-rule="nonzero" fill-opacity="1" /><path clip-path="url(#clip200)" d="M162.802 648.55 Q159.19 648.55 157.362 652.115 Q155.556 655.656 155.556 662.786 Q155.556 669.892 157.362 673.457 Q159.19 676.999 162.802 676.999 Q166.436 676.999 168.241 673.457 Q170.07 669.892 170.07 662.786 Q170.07 655.656 168.241 652.115 Q166.436 648.55 162.802 648.55 M162.802 644.846 Q168.612 644.846 171.667 649.453 Q174.746 654.036 174.746 662.786 Q174.746 671.513 171.667 676.119 Q168.612 680.702 162.802 680.702 Q156.991 680.702 153.913 676.119 Q150.857 671.513 150.857 662.786 Q150.857 654.036 153.913 649.453 Q156.991 644.846 162.802 644.846 Z" fill="#000000" fill-rule="nonzero" fill-opacity="1" /><path clip-path="url(#clip200)" d="M182.963 674.152 L187.848 674.152 L187.848 680.031 L182.963 680.031 L182.963 674.152 Z" fill="#000000" fill-rule="nonzero" fill-opacity="1" /><path clip-path="url(#clip200)" d="M208.033 648.55 Q204.422 648.55 202.593 652.115 Q200.787 655.656 200.787 662.786 Q200.787 669.892 202.593 673.457 Q204.422 676.999 208.033 676.999 Q211.667 676.999 213.473 673.457 Q215.301 669.892 215.301 662.786 Q215.301 655.656 213.473 652.115 Q211.667 648.55 208.033 648.55 M208.033 644.846 Q213.843 644.846 216.898 649.453 Q219.977 654.036 219.977 662.786 Q219.977 671.513 216.898 676.119 Q213.843 680.702 208.033 680.702 Q202.223 680.702 199.144 676.119 Q196.088 671.513 196.088 662.786 Q196.088 654.036 199.144 649.453 Q202.223 644.846 208.033 644.846 Z" fill="#000000" fill-rule="nonzero" fill-opacity="1" /><path clip-path="url(#clip200)" d="M164.028 279.531 Q160.417 279.531 158.589 283.096 Q156.783 286.638 156.783 293.767 Q156.783 300.874 158.589 304.439 Q160.417 307.98 164.028 307.98 Q167.663 307.98 169.468 304.439 Q171.297 300.874 171.297 293.767 Q171.297 286.638 169.468 283.096 Q167.663 279.531 164.028 279.531 M164.028 275.828 Q169.839 275.828 172.894 280.434 Q175.973 285.017 175.973 293.767 Q175.973 302.494 172.894 307.101 Q169.839 311.684 164.028 311.684 Q158.218 311.684 155.14 307.101 Q152.084 302.494 152.084 293.767 Q152.084 285.017 155.14 280.434 Q158.218 275.828 164.028 275.828 Z" fill="#000000" fill-rule="nonzero" fill-opacity="1" /><path clip-path="url(#clip200)" d="M184.19 305.133 L189.075 305.133 L189.075 311.013 L184.19 311.013 L184.19 305.133 Z" fill="#000000" fill-rule="nonzero" fill-opacity="1" /><path clip-path="url(#clip200)" d="M200.07 307.078 L207.709 307.078 L207.709 280.712 L199.399 282.379 L199.399 278.119 L207.662 276.453 L212.338 276.453 L212.338 307.078 L219.977 307.078 L219.977 311.013 L200.07 311.013 L200.07 307.078 Z" fill="#000000" fill-rule="nonzero" fill-opacity="1" /><path clip-path="url(#clip200)" d="M20.8447 823.791 Q20.8447 830.793 26.0645 834.931 Q31.2844 839.037 40.2919 839.037 Q49.2675 839.037 54.4874 834.931 Q59.7073 830.793 59.7073 823.791 Q59.7073 816.788 54.4874 812.714 Q49.2675 808.609 40.2919 808.609 Q31.2844 808.609 26.0645 812.714 Q20.8447 816.788 20.8447 823.791 M15.6248 823.791 Q15.6248 813.797 22.3406 807.813 Q29.0246 801.829 40.2919 801.829 Q51.5274 801.829 58.2432 807.813 Q64.9272 813.797 64.9272 823.791 Q64.9272 833.817 58.2432 839.832 Q51.5592 845.816 40.2919 845.816 Q29.0246 845.816 22.3406 839.832 Q15.6248 833.817 15.6248 823.791 Z" fill="#000000" fill-rule="nonzero" fill-opacity="1" /><path clip-path="url(#clip200)" d="M49.9359 792.631 L28.3562 792.631 L28.3562 786.774 L49.7131 786.774 Q54.7739 786.774 57.3202 784.801 Q59.8346 782.827 59.8346 778.881 Q59.8346 774.138 56.8109 771.401 Q53.7872 768.632 48.5673 768.632 L28.3562 768.632 L28.3562 762.775 L64.0042 762.775 L64.0042 768.632 L58.5296 768.632 Q61.7762 770.764 63.3676 773.597 Q64.9272 776.398 64.9272 780.122 Q64.9272 786.265 61.1078 789.448 Q57.2883 792.631 49.9359 792.631 M27.4968 777.894 L27.4968 777.894 Z" fill="#000000" fill-rule="nonzero" fill-opacity="1" /><path clip-path="url(#clip200)" d="M18.2347 744.92 L28.3562 744.92 L28.3562 732.857 L32.9077 732.857 L32.9077 744.92 L52.2594 744.92 Q56.6199 744.92 57.8613 743.742 Q59.1026 742.533 59.1026 738.872 L59.1026 732.857 L64.0042 732.857 L64.0042 738.872 Q64.0042 745.652 61.4897 748.23 Q58.9434 750.808 52.2594 750.808 L32.9077 750.808 L32.9077 755.105 L28.3562 755.105 L28.3562 750.808 L18.2347 750.808 L18.2347 744.92 Z" fill="#000000" fill-rule="nonzero" fill-opacity="1" /><path clip-path="url(#clip200)" d="M58.657 719.489 L77.5631 719.489 L77.5631 725.377 L28.3562 725.377 L28.3562 719.489 L33.7671 719.489 Q30.5842 717.643 29.0564 714.842 Q27.4968 712.009 27.4968 708.094 Q27.4968 701.601 32.6531 697.559 Q37.8093 693.485 46.212 693.485 Q54.6147 693.485 59.771 697.559 Q64.9272 701.601 64.9272 708.094 Q64.9272 712.009 63.3994 714.842 Q61.8398 717.643 58.657 719.489 M46.212 699.564 Q39.7508 699.564 36.0905 702.238 Q32.3984 704.879 32.3984 709.526 Q32.3984 714.173 36.0905 716.847 Q39.7508 719.489 46.212 719.489 Q52.6732 719.489 56.3653 716.847 Q60.0256 714.173 60.0256 709.526 Q60.0256 704.879 56.3653 702.238 Q52.6732 699.564 46.212 699.564 Z" fill="#000000" fill-rule="nonzero" fill-opacity="1" /><path clip-path="url(#clip200)" d="M49.9359 684.382 L28.3562 684.382 L28.3562 678.525 L49.7131 678.525 Q54.7739 678.525 57.3202 676.552 Q59.8346 674.579 59.8346 670.632 Q59.8346 665.889 56.8109 663.152 Q53.7872 660.383 48.5673 660.383 L28.3562 660.383 L28.3562 654.527 L64.0042 654.527 L64.0042 660.383 L58.5296 660.383 Q61.7762 662.516 63.3676 665.348 Q64.9272 668.149 64.9272 671.873 Q64.9272 678.016 61.1078 681.199 Q57.2883 684.382 49.9359 684.382 M27.4968 669.645 L27.4968 669.645 Z" fill="#000000" fill-rule="nonzero" fill-opacity="1" /><path clip-path="url(#clip200)" d="M18.2347 636.671 L28.3562 636.671 L28.3562 624.608 L32.9077 624.608 L32.9077 636.671 L52.2594 636.671 Q56.6199 636.671 57.8613 635.493 Q59.1026 634.284 59.1026 630.623 L59.1026 624.608 L64.0042 624.608 L64.0042 630.623 Q64.0042 637.403 61.4897 639.981 Q58.9434 642.559 52.2594 642.559 L32.9077 642.559 L32.9077 646.856 L28.3562 646.856 L28.3562 642.559 L18.2347 642.559 L18.2347 636.671 Z" fill="#000000" fill-rule="nonzero" fill-opacity="1" /><polyline clip-path="url(#clip202)" style="stroke:#009af9; stroke-linecap:round; stroke-linejoin:round; stroke-width:4; stroke-opacity:1; fill:none" points="315.32,662.751 319.284,662.751 323.248,662.751 323.248,699.226 327.212,699.226 327.212,734.627 331.176,734.627 331.176,768.643 335.141,768.643 335.141,800.996 339.105,800.996 339.105,831.446 343.069,831.446 343.069,859.794 347.033,859.794 347.033,885.883 350.997,885.883 350.997,909.606 354.961,909.606 354.961,930.897 358.925,930.897 358.925,949.741 362.889,949.741 362.889,966.165 366.853,966.165 366.853,980.242 370.818,980.242 370.818,992.084 374.782,992.084 374.782,1001.84 378.746,1001.84 378.746,1009.7 382.71,1009.7 382.71,1015.87 386.674,1015.87 386.674,1020.58 390.638,1020.58 390.638,1024.1 394.602,1024.1 394.602,1026.69 398.566,1026.69 398.566,1028.63 402.53,1028.63 402.53,1030.18 406.495,1030.18 406.495,1031.64 410.459,1031.64 410.459,1033.25 414.423,1033.25 414.423,1035.27 418.387,1035.27 418.387,1037.94 422.351,1037.94 422.351,968.506 426.315,968.506 426.315,902.259 430.279,902.259 430.279,839.974 434.243,839.974 434.243,782.331 438.208,782.331 438.208,729.903 442.172,729.903 442.172,683.148 446.136,683.148 446.136,642.403 450.1,642.403 450.1,607.879 454.064,607.879 454.064,579.666 458.028,579.666 458.028,557.729 461.992,557.729 461.992,541.914 465.956,541.914 465.956,531.957 469.92,531.957 469.92,527.49 473.885,527.49 473.885,528.051 477.849,528.051 477.849,533.096 481.813,533.096 481.813,542.015 485.777,542.015 485.777,554.142 489.741,554.142 489.741,568.771 493.705,568.771 493.705,585.173 497.669,585.173 497.669,602.608 501.633,602.608 501.633,693.291 505.597,693.291 505.597,781.409 509.562,781.409 509.562,865.658 513.526,865.658 513.526,944.845 517.49,944.845 517.49,1017.91 521.454,1017.91 521.454,1083.94 525.418,1083.94 525.418,1142.18 529.382,1142.18 529.382,1192.06 533.346,1192.06 533.346,1233.17 537.31,1233.17 537.31,1265.3 541.275,1265.3 541.275,1288.41 545.239,1288.41 545.239,1302.62 549.203,1302.62 549.203,1308.25 553.167,1308.25 553.167,1305.75 557.131,1305.75 557.131,1295.74 561.095,1295.74 561.095,1205.98 565.059,1205.98 565.059,1112.41 569.023,1112.41 569.023,1016.6 572.987,1016.6 572.987,920.076 576.952,920.076 576.952,824.378 580.916,824.378 580.916,803.92 584.88,803.92 584.88,784.985 588.844,784.985 588.844,768.224 592.808,768.224 592.808,754.223 596.772,754.223 596.772,743.495 600.736,743.495 600.736,663.518 604.7,663.518 604.7,589.732 608.664,589.732 608.664,523.006 612.629,523.006 612.629,464.048 616.593,464.048 616.593,413.397 620.557,413.397 620.557,371.417 624.521,371.417 624.521,338.293 628.485,338.293 628.485,314.036 632.449,314.036 632.449,298.483 636.413,298.483 636.413,291.312 640.377,291.312 640.377,292.047 644.341,292.047 644.341,300.075 648.306,300.075 648.306,314.661 652.27,314.661 652.27,334.967 656.234,334.967 656.234,360.07 660.198,360.07 660.198,388.984 664.162,388.984 664.162,420.68 668.126,420.68 668.126,454.109 672.09,454.109 672.09,488.222 676.054,488.222 676.054,521.991 680.019,521.991 680.019,554.427 683.983,554.427 683.983,584.603 687.947,584.603 687.947,611.664 691.911,611.664 691.911,634.846 695.875,634.846 695.875,653.489 699.839,653.489 699.839,667.04 703.803,667.04 703.803,675.072 707.767,675.072 707.767,677.277 711.731,677.277 711.731,673.476 715.696,673.476 715.696,663.618 719.66,663.618 719.66,647.772 723.624,647.772 723.624,626.13 727.588,626.13 727.588,598.991 731.552,598.991 731.552,566.76 735.516,566.76 735.516,529.931 739.48,529.931 739.48,562.028 743.444,562.028 743.444,588.589 747.408,588.589 747.408,609.682 751.373,609.682 751.373,625.477 755.337,625.477 755.337,636.236 759.301,636.236 759.301,569.361 763.265,569.361 763.265,500.38 767.229,500.38 767.229,430.409 771.193,430.409 771.193,360.555 775.157,360.555 775.157,291.893 779.121,291.893 779.121,298.394 783.085,298.394 783.085,305.911 787.05,305.911 787.05,314.687 791.014,314.687 791.014,324.927 794.978,324.927 794.978,336.799 798.942,336.799 798.942,277.479 802.906,277.479 802.906,222.15 806.87,222.15 806.87,171.475 810.834,171.475 810.834,126.007 814.798,126.007 814.798,86.1857 818.763,86.1857 818.763,125.279 822.727,125.279 822.727,168.381 826.691,168.381 826.691,214.941 830.655,214.941 830.655,264.35 834.619,264.35 834.619,315.961 838.583,315.961 838.583,296.144 842.547,296.144 842.547,279.308 846.511,279.308 846.511,265.382 850.475,265.382 850.475,254.245 854.44,254.245 854.44,245.726 858.404,245.726 858.404,312.561 862.368,312.561 862.368,379.401 866.332,379.401 866.332,445.339 870.296,445.339 870.296,509.511 874.26,509.511 874.26,571.11 878.224,571.11 878.224,629.396 882.188,629.396 882.188,683.717 886.152,683.717 886.152,733.51 890.117,733.51 890.117,778.315 894.081,778.315 894.081,817.782 898.045,817.782 898.045,778.719 902.009,778.719 902.009,736.099 905.973,736.099 905.973,690.528 909.937,690.528 909.937,642.657 913.901,642.657 913.901,593.165 917.865,593.165 917.865,542.745 921.829,542.745 921.829,492.095 925.794,492.095 925.794,441.896 929.758,441.896 929.758,392.805 933.722,392.805 933.722,345.441 937.686,345.441 937.686,373.323 941.65,373.323 941.65,401.864 945.614,401.864 945.614,430.886 949.578,430.886 949.578,460.201 953.542,460.201 953.542,489.621 957.507,489.621 957.507,518.954 961.471,518.954 961.471,548.013 965.435,548.013 965.435,576.618 969.399,576.618 969.399,604.6 973.363,604.6 973.363,631.801 977.327,631.801 977.327,658.083 981.291,658.083 981.291,683.324 985.255,683.324 985.255,707.422 989.219,707.422 989.219,730.298 993.184,730.298 993.184,751.897 997.148,751.897 997.148,772.184 1001.11,772.184 1001.11,791.15 1005.08,791.15 1005.08,808.809 1009.04,808.809 1009.04,825.193 1013,825.193 1013,840.36 1016.97,840.36 1016.97,781.431 1020.93,781.431 1020.93,723.6 1024.9,723.6 1024.9,667.592 1028.86,667.592 1028.86,614.081 1032.82,614.081 1032.82,563.675 1036.79,563.675 1036.79,516.908 1040.75,516.908 1040.75,474.229 1044.72,474.229 1044.72,435.997 1048.68,435.997 1048.68,402.476 1052.65,402.476 1052.65,373.835 1056.61,373.835 1056.61,350.143 1060.57,350.143 1060.57,331.375 1064.54,331.375 1064.54,317.413 1068.5,317.413 1068.5,308.05 1072.47,308.05 1072.47,303 1076.43,303 1076.43,301.903 1080.39,301.903 1080.39,304.335 1084.36,304.335 1084.36,309.819 1088.32,309.819 1088.32,317.833 1092.29,317.833 1092.29,327.828 1096.25,327.828 1096.25,339.232 1100.21,339.232 1100.21,351.467 1104.18,351.467 1104.18,363.958 1108.14,363.958 1108.14,376.146 1112.11,376.146 1112.11,387.496 1116.07,387.496 1116.07,397.51 1120.04,397.51 1120.04,405.732 1124,405.732 1124,411.761 1127.96,411.761 1127.96,415.25 1131.93,415.25 1131.93,415.918 1135.89,415.918 1135.89,486.499 1139.86,486.499 1139.86,551.748 1143.82,551.748 1143.82,610.968 1147.78,610.968 1147.78,663.594 1151.75,663.594 1151.75,709.206 1155.71,709.206 1155.71,674.579 1159.68,674.579 1159.68,634.685 1163.64,634.685 1163.64,590.163 1167.6,590.163 1167.6,541.729 1171.57,541.729 1171.57,490.155 1175.53,490.155 1175.53,509.208 1179.5,509.208 1179.5,524.628 1183.46,524.628 1183.46,536.641 1187.43,536.641 1187.43,545.528 1191.39,545.528 1191.39,551.621 1195.35,551.621 1195.35,555.291 1199.32,555.291 1199.32,556.943 1203.28,556.943 1203.28,557.006 1207.25,557.006 1207.25,555.922 1211.21,555.922 1211.21,554.14 1215.17,554.14 1215.17,479.154 1219.14,479.154 1219.14,406.496 1223.1,406.496 1223.1,337.201 1227.07,337.201 1227.07,272.21 1231.03,272.21 1231.03,212.353 1234.99,212.353 1234.99,231.29 1238.96,231.29 1238.96,254.498 1242.92,254.498 1242.92,281.792 1246.89,281.792 1246.89,312.907 1250.85,312.907 1250.85,347.509 1254.82,347.509 1254.82,385.199 1258.78,385.199 1258.78,425.527 1262.74,425.527 1262.74,467.999 1266.71,467.999 1266.71,512.091 1270.67,512.091 1270.67,557.259 1274.64,557.259 1274.64,602.95 1278.6,602.95 1278.6,648.611 1282.56,648.611 1282.56,693.706 1286.53,693.706 1286.53,737.721 1290.49,737.721 1290.49,780.174 1294.46,780.174 1294.46,747.675 1298.42,747.675 1298.42,714.932 1302.38,714.932 1302.38,682.23 1306.35,682.23 1306.35,649.851 1310.31,649.851 1310.31,618.062 1314.28,618.062 1314.28,660.067 1318.24,660.067 1318.24,700.999 1322.21,700.999 1322.21,740.445 1326.17,740.445 1326.17,778.028 1330.13,778.028 1330.13,813.418 1334.1,813.418 1334.1,846.333 1338.06,846.333 1338.06,876.543 1342.03,876.543 1342.03,903.878 1345.99,903.878 1345.99,928.224 1349.95,928.224 1349.95,949.525 1353.92,949.525 1353.92,967.785 1357.88,967.785 1357.88,983.063 1361.85,983.063 1361.85,995.474 1365.81,995.474 1365.81,1005.18 1369.77,1005.18 1369.77,1012.39 1373.74,1012.39 1373.74,1017.35 1377.7,1017.35 1377.7,1020.34 1381.67,1020.34 1381.67,1021.68 1385.63,1021.68 1385.63,1021.69 1389.6,1021.69 1389.6,1020.71 1393.56,1020.71 1393.56,946.143 1397.52,946.143 1397.52,873.438 1401.49,873.438 1401.49,803.557 1405.45,803.557 1405.45,737.38 1409.42,737.38 1409.42,675.696 1413.38,675.696 1413.38,692.134 1417.34,692.134 1417.34,712.156 1421.31,712.156 1421.31,735.578 1425.27,735.578 1425.27,762.15 1429.24,762.15 1429.24,791.565 1433.2,791.565 1433.2,750.515 1437.16,750.515 1437.16,713.702 1441.13,713.702 1441.13,681.315 1445.09,681.315 1445.09,653.458 1449.06,653.458 1449.06,630.143 1453.02,630.143 1453.02,611.299 1456.98,611.299 1456.98,596.772 1460.95,596.772 1460.95,586.331 1464.91,586.331 1464.91,579.677 1468.88,579.677 1468.88,576.448 1472.84,576.448 1472.84,649.18 1476.81,649.18 1476.81,722.314 1480.77,722.314 1480.77,794.74 1484.73,794.74 1484.73,865.389 1488.7,865.389 1488.7,933.254 1492.66,933.254 1492.66,924.462 1496.63,924.462 1496.63,913.284 1500.59,913.284 1500.59,899.625 1504.55,899.625 1504.55,883.444 1508.52,883.444 1508.52,864.756 1512.48,864.756 1512.48,843.628 1516.45,843.628 1516.45,820.177 1520.41,820.177 1520.41,794.566 1524.37,794.566 1524.37,766.998 1528.34,766.998 1528.34,737.714 1532.3,737.714 1532.3,706.984 1536.27,706.984 1536.27,675.103 1540.23,675.103 1540.23,642.382 1544.2,642.382 1544.2,609.145 1548.16,609.145 1548.16,575.717 1552.12,575.717 1552.12,615.374 1556.09,615.374 1556.09,653.331 1560.05,653.331 1560.05,689.268 1564.02,689.268 1564.02,722.909 1567.98,722.909 1567.98,754.029 1571.94,754.029 1571.94,709.504 1575.91,709.504 1575.91,664.315 1579.87,664.315 1579.87,619.02 1583.84,619.02 1583.84,574.166 1587.8,574.166 1587.8,530.278 1591.76,530.278 1591.76,487.851 1595.73,487.851 1595.73,447.34 1599.69,447.34 1599.69,409.151 1603.66,409.151 1603.66,373.637 1607.62,373.637 1607.62,341.09 1611.59,341.09 1611.59,311.739 1615.55,311.739 1615.55,285.748 1619.51,285.748 1619.51,263.209 1623.48,263.209 1623.48,244.152 1627.44,244.152 1627.44,228.536 1631.41,228.536 1631.41,289.21 1635.37,289.21 1635.37,350.913 1639.33,350.913 1639.33,412.806 1643.3,412.806 1643.3,474.069 1647.26,474.069 1647.26,533.913 1651.23,533.913 1651.23,518.647 1655.19,518.647 1655.19,502.689 1659.15,502.689 1659.15,486.052 1663.12,486.052 1663.12,468.766 1667.08,468.766 1667.08,450.874 1671.05,450.874 1671.05,432.435 1675.01,432.435 1675.01,413.517 1678.98,413.517 1678.98,394.201 1682.94,394.201 1682.94,374.577 1686.9,374.577 1686.9,354.74 1690.87,354.74 1690.87,407.739 1694.83,407.739 1694.83,458.578 1698.8,458.578 1698.8,506.737 1702.76,506.737 1702.76,551.761 1706.72,551.761 1706.72,593.266 1710.69,593.266 1710.69,630.943 1714.65,630.943 1714.65,664.565 1718.62,664.565 1718.62,693.988 1722.58,693.988 1722.58,719.15 1726.54,719.15 1726.54,740.07 1730.51,740.07 1730.51,683.896 1734.47,683.896 1734.47,625.902 1738.44,625.902 1738.44,566.951 1742.4,566.951 1742.4,507.903 1746.37,507.903 1746.37,449.6 1750.33,449.6 1750.33,465.796 1754.29,465.796 1754.29,482.144 1758.26,482.144 1758.26,498.711 1762.22,498.711 1762.22,515.555 1766.19,515.555 1766.19,532.722 1770.15,532.722 1770.15,477.295 1774.11,477.295 1774.11,424.397 1778.08,424.397 1778.08,374.661 1782.04,374.661 1782.04,328.639 1786.01,328.639 1786.01,286.802 1789.97,286.802 1789.97,322.474 1793.93,322.474 1793.93,360.835 1797.9,360.835 1797.9,401.44 1801.86,401.44 1801.86,443.812 1805.83,443.812 1805.83,487.448 1809.79,487.448 1809.79,531.83 1813.76,531.83 1813.76,576.439 1817.72,576.439 1817.72,620.762 1821.68,620.762 1821.68,664.303 1825.65,664.303 1825.65,706.594 1829.61,706.594 1829.61,674.249 1833.58,674.249 1833.58,641.975 1837.54,641.975 1837.54,610.051 1841.5,610.051 1841.5,578.743 1845.47,578.743 1845.47,548.302 1849.43,548.302 1849.43,518.956 1853.4,518.956 1853.4,490.91 1857.36,490.91 1857.36,464.339 1861.32,464.339 1861.32,439.389 1865.29,439.389 1865.29,416.172 1869.25,416.172 1869.25,394.766 1873.22,394.766 1873.22,375.215 1877.18,375.215 1877.18,357.528 1881.15,357.528 1881.15,341.679 1885.11,341.679 1885.11,327.611 1889.07,327.611 1889.07,388.189 1893.04,388.189 1893.04,448.198 1897,448.198 1897,506.876 1900.97,506.876 1900.97,563.507 1904.93,563.507 1904.93,617.434 1908.89,617.434 1908.89,595.114 1912.86,595.114 1912.86,571.137 1916.82,571.137 1916.82,545.697 1920.79,545.697 1920.79,519.018 1924.75,519.018 1924.75,491.341 1928.71,491.341 1928.71,535.877 1932.68,535.877 1932.68,577.794 1936.64,577.794 1936.64,616.744 1940.61,616.744 1940.61,652.444 1944.57,652.444 1944.57,684.678 1948.54,684.678 1948.54,713.302 1952.5,713.302 1952.5,738.244 1956.46,738.244 1956.46,759.499 1960.43,759.499 1960.43,777.136 1964.39,777.136 1964.39,791.287 1968.36,791.287 1968.36,802.143 1972.32,802.143 1972.32,809.953 1976.28,809.953 1976.28,815.016 1980.25,815.016 1980.25,817.669 1984.21,817.669 1984.21,818.286 1988.18,818.286 1988.18,817.264 1992.14,817.264 1992.14,815.02 1996.1,815.02 1996.1,811.977 2000.07,811.977 2000.07,808.558 2004.03,808.558 2004.03,805.179 2008,805.179 2008,802.237 2011.96,802.237 2011.96,800.107 2015.93,800.107 2015.93,799.135 2019.89,799.135 2019.89,799.627 2023.85,799.627 2023.85,801.853 2027.82,801.853 2027.82,806.032 2031.78,806.032 2031.78,812.34 2035.75,812.34 2035.75,820.9 2039.71,820.9 2039.71,831.785 2043.67,831.785 2043.67,845.015 2047.64,845.015 2047.64,787.614 2051.6,787.614 2051.6,734.603 2055.57,734.603 2055.57,686.484 2059.53,686.484 2059.53,643.651 2063.49,643.651 2063.49,606.385 2067.46,606.385 2067.46,647.806 2071.42,647.806 2071.42,692.869 2075.39,692.869 2075.39,740.894 2079.35,740.894 2079.35,791.163 2083.32,791.163 2083.32,842.929 2087.28,842.929 2087.28,895.437 2091.24,895.437 2091.24,947.934 2095.21,947.934 2095.21,999.69 2099.17,999.69 2099.17,1050 2103.14,1050 2103.14,1098.23 2107.1,1098.23 2107.1,1070.81 2111.06,1070.81 2111.06,1042.32 2115.03,1042.32 2115.03,1012.93 2118.99,1012.93 2118.99,982.836 2122.96,982.836 2122.96,952.227 2126.92,952.227 2126.92,921.312 2130.88,921.312 2130.88,890.303 2134.85,890.303 2134.85,859.411 2138.81,859.411 2138.81,828.843 2142.78,828.843 2142.78,798.796 2146.74,798.796 2146.74,769.457 2150.7,769.457 2150.7,740.996 2154.67,740.996 2154.67,713.563 2158.63,713.563 2158.63,687.292 2162.6,687.292 2162.6,662.288 2166.56,662.288 2166.56,711.587 2170.53,711.587 2170.53,760.146 2174.49,760.146 2174.49,807.378 2178.45,807.378 2178.45,852.733 2182.42,852.733 2182.42,895.712 2186.38,895.712 2186.38,862.924 2190.35,862.924 2190.35,829.092 2194.31,829.092 2194.31,794.533 2198.27,794.533 2198.27,759.57 2202.24,759.57 2202.24,724.532 2206.2,724.532 2206.2,689.74 2210.17,689.74 2210.17,655.506 2214.13,655.506 2214.13,622.125 2218.09,622.125 2218.09,589.872 2222.06,589.872 2222.06,558.991 2226.02,558.991 2226.02,602.65 2229.99,602.65 2229.99,645.93 2233.95,645.93 2233.95,688.356 2237.92,688.356 2237.92,729.479 2241.88,729.479 2241.88,768.884 2245.84,768.884 2245.84,806.2 2249.81,806.2 2249.81,841.105 2253.77,841.105 2253.77,873.329 2257.74,873.329 2257.74,902.66 2261.7,902.66 2261.7,928.946 2265.66,928.946 2265.66,879.146 2269.63,879.146 2269.63,828.328 2273.59,828.328 2273.59,777.144 2277.56,777.144 2277.56,726.235 2281.52,726.235 2281.52,676.225 2285.48,676.225 2285.48,700.654 2289.45,700.654 2289.45,724.968 2293.41,724.968 2293.41,749.04 "/>
<polyline clip-path="url(#clip202)" style="stroke:#e26f46; stroke-linecap:round; stroke-linejoin:round; stroke-width:4; stroke-opacity:1; fill:none" points="315.32,655.901 319.284,681.381 323.248,708.028 327.212,735.495 331.176,763.431 335.141,791.481 339.105,819.303 343.069,846.568 347.033,872.971 350.997,898.238 354.961,922.127 358.925,944.439 362.889,965.014 366.853,983.739 370.818,1000.55 374.782,1015.42 378.746,1028.37 382.71,1039.48 386.674,1048.84 390.638,1056.61 394.602,1062.95 398.566,1068.06 402.53,1072.17 406.495,1075.52 410.459,1078.35 414.423,1115.79 418.387,1056.56 422.351,996.532 426.315,936.803 430.279,878.413 434.243,822.343 438.208,769.486 442.172,720.634 446.136,676.456 450.1,637.497 454.064,604.159 458.028,576.702 461.992,555.245 465.956,539.76 469.92,530.087 473.885,525.934 477.849,526.894 481.813,532.456 485.777,542.018 489.741,554.908 493.705,535.517 497.669,614.615 501.633,695.784 505.597,777.386 509.562,857.826 513.526,935.59 517.49,1009.27 521.454,1077.62 525.418,1139.52 529.382,1194.08 533.346,1240.58 537.31,1278.51 541.275,1307.59 545.239,1327.75 549.203,1339.11 553.167,1376.9 557.131,1310.11 561.095,1235.04 565.059,1153.39 569.023,1066.96 572.987,942.681 576.952,913.942 580.916,886.91 584.88,862.455 588.844,841.359 592.808,859.182 596.772,784.952 600.736,714.743 604.7,649.721 608.664,590.894 612.629,539.092 616.593,494.958 620.557,458.934 624.521,431.261 628.485,411.981 632.449,400.939 636.413,397.797 640.377,402.045 644.341,413.02 648.306,429.927 652.27,451.859 656.234,477.827 660.198,506.78 664.162,537.635 668.126,569.3 672.09,600.703 676.054,630.814 680.019,658.67 683.983,683.389 687.947,704.196 691.911,720.429 695.875,731.558 699.839,737.186 703.803,737.061 707.767,731.071 711.731,719.242 715.696,701.739 719.66,678.85 723.624,650.979 727.588,618.634 731.552,547.525 735.516,569.847 739.48,590.679 743.444,609.908 747.408,627.463 751.373,678.198 755.337,630.589 759.301,580.324 763.265,528.35 767.229,475.62 771.193,388.191 775.157,398.5 779.121,411.759 783.085,427.883 787.05,446.721 791.014,502.95 794.978,464.78 798.942,427.547 802.906,391.775 806.87,357.938 810.834,291.565 814.798,324.535 818.763,361.479 822.727,401.73 826.691,444.567 830.655,524.115 834.619,508.066 838.583,491.285 842.547,473.879 846.511,455.967 850.475,402.792 854.44,446.017 858.404,490.136 862.368,534.419 866.332,578.156 870.296,620.671 874.26,661.342 878.224,699.607 882.188,734.978 886.152,767.05 890.117,830.392 894.081,793.25 898.045,751.138 902.009,704.886 905.973,655.396 909.937,603.612 913.901,550.502 917.865,497.033 921.829,444.146 925.794,392.742 929.758,308.769 933.722,324.514 937.686,344.996 941.65,369.9 945.614,398.823 949.578,431.28 953.542,466.719 957.507,504.539 961.471,544.101 965.435,584.749 969.399,625.821 973.363,666.668 977.327,706.668 981.291,745.238 985.255,781.845 989.219,816.023 993.184,847.374 997.148,875.578 1001.11,900.399 1005.08,921.688 1009.04,974.263 1013,926.612 1016.97,874.478 1020.93,818.901 1024.9,760.967 1028.86,701.782 1032.82,642.444 1036.79,584.016 1040.75,527.508 1044.72,473.852 1048.68,423.882 1052.65,378.32 1056.61,337.762 1060.57,302.671 1064.54,273.366 1068.5,250.024 1072.47,232.677 1076.43,221.22 1080.39,215.413 1084.36,214.898 1088.32,219.204 1092.29,227.764 1096.25,239.937 1100.21,255.015 1104.18,272.25 1108.14,290.87 1112.11,310.097 1116.07,329.164 1120.04,347.335 1124,363.922 1127.96,343.41 1131.93,416.775 1135.89,487.903 1139.86,555.55 1143.82,618.592 1147.78,710.934 1151.75,700.225 1155.71,681.463 1159.68,655.049 1163.64,621.552 1167.6,546.8 1171.57,563.161 1175.53,575.934 1179.5,585.267 1183.46,591.386 1187.43,594.579 1191.39,595.194 1195.35,593.626 1199.32,590.306 1203.28,585.691 1207.25,615.136 1211.21,547.583 1215.17,479.136 1219.14,411.105 1223.1,344.746 1227.07,246.351 1231.03,248.524 1234.99,256.57 1238.96,270.428 1242.92,289.904 1246.89,314.681 1250.85,344.328 1254.82,378.315 1258.78,416.03 1262.74,456.793 1266.71,499.878 1270.67,544.528 1274.64,589.973 1278.6,635.452 1282.56,680.226 1286.53,758.483 1290.49,738.048 1294.46,713.987 1298.42,686.668 1302.38,656.522 1306.35,589.149 1310.31,616.602 1314.28,643.789 1318.24,670.404 1322.21,696.168 1326.17,720.826 1330.13,744.16 1334.1,765.987 1338.06,786.166 1342.03,804.597 1345.99,821.224 1349.95,836.034 1353.92,849.056 1357.88,860.357 1361.85,870.043 1365.81,878.252 1369.77,885.153 1373.74,890.937 1377.7,895.813 1381.67,900.006 1385.63,938.631 1389.6,880.39 1393.56,821.153 1397.52,762.004 1401.49,703.99 1405.45,613.213 1409.42,622.11 1413.38,635.846 1417.34,654.247 1421.31,677.038 1425.27,738.735 1429.24,707.356 1433.2,678.024 1437.16,651.028 1441.13,626.598 1445.09,604.894 1449.06,586.011 1453.02,569.974 1456.98,556.743 1460.95,546.215 1464.91,503.346 1468.88,559.451 1472.84,618.631 1476.81,679.724 1480.77,741.563 1484.73,837.885 1488.7,836.06 1492.66,830.698 1496.63,821.726 1500.59,809.158 1504.55,793.091 1508.52,773.698 1512.48,751.227 1516.45,725.989 1520.41,698.347 1524.37,668.709 1528.34,637.518 1532.3,605.236 1536.27,572.336 1540.23,539.292 1544.2,471.68 1548.16,501.47 1552.12,533.429 1556.09,567.062 1560.05,601.849 1564.02,672.147 1567.98,645.898 1571.94,618.23 1575.91,589.521 1579.87,560.161 1583.84,530.542 1587.8,501.049 1591.76,472.054 1595.73,443.903 1599.69,416.913 1603.66,391.363 1607.62,367.492 1611.59,345.491 1615.55,325.502 1619.51,307.617 1623.48,256.993 1627.44,305.151 1631.41,356.392 1635.37,409.752 1639.33,464.245 1643.3,553.778 1647.26,545.87 1651.23,535.261 1655.19,521.983 1659.15,506.128 1663.12,487.847 1667.08,467.342 1671.05,444.859 1675.01,420.685 1678.98,395.133 1682.94,333.657 1686.9,368.14 1690.87,403.297 1694.83,438.616 1698.8,473.6 1702.76,507.772 1706.72,540.694 1710.69,571.967 1714.65,601.245 1718.62,628.237 1722.58,687.601 1726.54,647.642 1730.51,603.903 1734.47,557.22 1738.44,508.465 1742.4,423.649 1746.37,435.195 1750.33,448.333 1754.29,463.025 1758.26,479.202 1762.22,531.643 1766.19,488.683 1770.15,445.805 1774.11,403.691 1778.08,362.988 1782.04,289.401 1786.01,314.988 1789.97,344.559 1793.93,377.618 1797.9,413.602 1801.86,451.903 1805.83,491.876 1809.79,532.859 1813.76,574.188 1817.72,615.213 1821.68,690.197 1825.65,667.026 1829.61,640.815 1833.58,611.964 1837.54,580.92 1841.5,548.169 1845.47,514.22 1849.43,479.592 1853.4,444.805 1857.36,410.363 1861.32,376.748 1865.29,344.407 1869.25,313.743 1873.22,285.107 1877.18,258.791 1881.15,200.143 1885.11,240.857 1889.07,285.39 1893.04,332.909 1897,382.537 1900.97,468.262 1904.93,457.658 1908.89,445.492 1912.86,431.795 1916.82,416.633 1920.79,365.223 1924.75,409.222 1928.71,453.144 1932.68,496.299 1936.64,538.037 1940.61,577.763 1944.57,614.947 1948.54,649.135 1952.5,679.957 1956.46,707.133 1960.43,730.475 1964.39,749.89 1968.36,765.379 1972.32,777.032 1976.28,785.025 1980.25,789.612 1984.21,791.116 1988.18,789.921 1992.14,786.458 1996.1,781.197 2000.07,774.634 2004.03,767.276 2008,759.632 2011.96,752.199 2015.93,745.453 2019.89,739.837 2023.85,735.753 2027.82,733.552 2031.78,733.53 2035.75,735.924 2039.71,775.787 2043.67,721.693 2047.64,669.319 2051.6,619.503 2055.57,572.993 2059.53,495.556 2063.49,519.258 2067.46,548.875 2071.42,583.832 2075.39,623.45 2079.35,666.964 2083.32,713.543 2087.28,762.313 2091.24,812.38 2095.21,862.845 2099.17,947.717 2103.14,934.628 2107.1,918.439 2111.06,899.307 2115.03,877.455 2118.99,853.16 2122.96,826.747 2126.92,798.581 2130.88,769.054 2134.85,738.578 2138.81,707.575 2142.78,676.464 2146.74,645.652 2150.7,615.53 2154.67,586.456 2158.63,523.871 2162.6,559.59 2166.56,598.208 2170.53,639.046 2174.49,681.396 2178.45,759.423 2182.42,740.881 2186.38,720.716 2190.35,699.135 2194.31,676.371 2198.27,652.677 2202.24,628.32 2206.2,603.574 2210.17,578.714 2214.13,554.007 2218.09,494.826 2222.06,532.942 2226.02,572.932 2229.99,614.123 2233.95,655.835 2237.92,697.4 2241.88,738.174 2245.84,777.554 2249.81,814.986 2253.77,849.981 2257.74,917.006 2261.7,884.191 2265.66,846.922 2269.63,805.897 2273.59,761.876 2277.56,680.781 2281.52,694.974 2285.48,709.649 2289.45,724.762 2293.41,740.26 "/>
<polyline clip-path="url(#clip202)" style="stroke:#3da44d; stroke-linecap:round; stroke-linejoin:round; stroke-width:4; stroke-opacity:1; fill:none" points="315.32,684.745 319.284,709.445 323.248,734.815 327.212,760.53 331.176,786.27 335.141,811.724 339.105,836.595 343.069,860.613 347.033,883.532 350.997,905.142 354.961,925.269 358.925,943.778 362.889,960.577 366.853,975.613 370.818,988.879 374.782,1000.41 378.746,1010.26 382.71,1018.56 386.674,1025.43 390.638,1031.04 394.602,1035.58 398.566,1039.25 402.53,1042.28 406.495,1044.9 410.459,1047.32 414.423,1088.61 418.387,1031.31 422.351,972.79 426.315,914.142 430.279,856.427 434.243,800.651 438.208,747.737 442.172,698.516 446.136,653.704 450.1,613.893 454.064,579.538 458.028,550.956 461.992,528.319 465.956,511.655 469.92,500.855 473.885,495.68 477.849,495.766 481.813,500.642 485.777,509.744 489.741,522.427 493.705,499.156 497.669,576.854 501.633,657.583 505.597,739.658 509.562,821.419 513.526,901.267 517.49,977.703 521.454,1049.35 525.418,1115 529.382,1173.61 533.346,1224.35 537.31,1266.57 541.275,1299.88 545.239,1324.07 549.203,1339.17 553.167,1384.24 557.131,1322.04 561.095,1250.35 565.059,1170.85 569.023,1085.33 572.987,956.86 576.952,925.014 580.916,894.531 584.88,866.347 588.844,841.316 592.808,859.019 596.772,782.42 600.736,709.196 604.7,640.629 608.664,577.853 612.629,521.828 616.593,473.33 620.557,432.932 624.521,401.003 628.485,377.703 632.449,362.99 636.413,356.622 640.377,358.176 644.341,367.058 648.306,382.526 652.27,403.712 656.234,429.644 660.198,459.273 664.162,491.502 668.126,525.21 672.09,559.279 676.054,592.623 680.019,624.208 683.983,653.075 687.947,678.364 691.911,699.323 695.875,715.328 699.839,725.891 703.803,730.667 707.767,729.456 711.731,722.203 715.696,708.998 719.66,690.064 723.624,665.748 727.588,636.515 731.552,564.094 735.516,586.799 739.48,608.171 743.444,628.054 747.408,646.334 751.373,701.765 755.337,656.644 759.301,608.143 763.265,557.218 767.229,504.847 771.193,413.178 775.157,420.841 779.121,431.582 783.085,445.345 787.05,462.005 791.014,520.203 794.978,482.025 798.942,444.344 802.906,407.733 806.87,372.722 810.834,300.959 814.798,330.523 818.763,364.591 822.727,402.517 826.691,443.59 830.655,525.879 834.619,510.921 838.583,495.083 842.547,478.478 846.511,461.235 850.475,404.665 854.44,446.583 858.404,489.975 862.368,534.08 866.332,578.15 870.296,621.46 874.26,663.326 878.224,703.121 882.188,740.286 886.152,774.341 890.117,843.724 894.081,810.465 898.045,771.53 902.009,727.727 905.973,679.947 909.937,629.146 913.901,576.317 917.865,522.469 921.829,468.598 925.794,415.672 929.758,325.771 933.722,337.405 937.686,354.155 941.65,375.757 945.614,401.842 949.578,431.951 953.542,465.545 957.507,502.022 961.471,540.734 965.435,581.002 969.399,622.134 973.363,663.438 977.327,704.243 981.291,743.911 985.255,781.851 989.219,817.532 993.184,850.49 997.148,880.341 1001.11,906.785 1005.08,929.611 1009.04,987.526 1013,942.83 1016.97,892.746 1020.93,838.324 1024.9,780.678 1028.86,720.96 1032.82,660.333 1036.79,599.941 1040.75,540.888 1044.72,484.207 1048.68,430.843 1052.65,381.635 1056.61,337.296 1060.57,298.405 1064.54,265.394 1068.5,238.548 1072.47,217.997 1076.43,203.725 1080.39,195.569 1084.36,193.233 1088.32,196.294 1092.29,204.222 1096.25,216.39 1100.21,232.097 1104.18,250.582 1108.14,271.047 1112.11,292.675 1116.07,314.65 1120.04,336.176 1124,356.494 1127.96,336.07 1131.93,411.937 1135.89,486.372 1139.86,558 1143.82,625.558 1147.78,726.749 1151.75,722.933 1155.71,710.481 1159.68,689.695 1163.64,661.058 1167.6,586.39 1171.57,604.155 1175.53,618.104 1179.5,628.34 1183.46,635.05 1187.43,638.494 1191.39,639.001 1195.35,636.954 1199.32,632.783 1203.28,626.95 1207.25,658.772 1211.21,591.076 1215.17,521.524 1219.14,451.507 1223.1,382.382 1227.07,276.608 1231.03,273.052 1234.99,275.626 1238.96,284.361 1242.92,299.146 1246.89,319.73 1250.85,345.738 1254.82,376.68 1258.78,411.97 1262.74,450.938 1266.71,492.853 1270.67,536.939 1274.64,582.393 1278.6,628.41 1282.56,674.197 1286.53,757.823 1290.49,740.904 1294.46,719.956 1298.42,695.315 1302.38,667.389 1306.35,597.82 1310.31,624.797 1314.28,651.713 1318.24,678.236 1322.21,704.056 1326.17,728.89 1330.13,752.484 1334.1,774.624 1338.06,795.134 1342.03,813.881 1345.99,830.778 1349.95,845.781 1353.92,858.894 1357.88,870.161 1361.85,879.668 1365.81,887.537 1369.77,893.927 1373.74,899.02 1377.7,903.026 1381.67,906.169 1385.63,947.518 1389.6,889.647 1393.56,829.966 1397.52,769.624 1401.49,709.745 1405.45,612.575 1409.42,616.791 1413.38,626.137 1417.34,640.51 1421.31,659.69 1425.27,722.184 1429.24,689.907 1433.2,659.528 1437.16,631.393 1441.13,605.785 1445.09,582.92 1449.06,562.943 1453.02,545.928 1456.98,531.879 1460.95,520.731 1464.91,473.525 1468.88,527.743 1472.84,585.977 1476.81,647.029 1480.77,709.68 1484.73,811.54 1488.7,813.754 1492.66,812.361 1496.63,807.223 1500.59,798.294 1504.55,785.619 1508.52,769.327 1512.48,749.628 1516.45,726.804 1520.41,701.201 1524.37,673.216 1528.34,643.291 1532.3,611.898 1536.27,579.526 1540.23,546.673 1544.2,475 1548.16,502.653 1552.12,532.913 1556.09,565.284 1560.05,599.237 1564.02,673.054 1567.98,648.511 1571.94,622.227 1575.91,594.585 1579.87,565.984 1583.84,536.834 1587.8,507.544 1591.76,478.513 1595.73,450.122 1599.69,422.725 1603.66,396.64 1607.62,372.146 1611.59,349.475 1615.55,328.813 1619.51,310.29 1623.48,255.153 1627.44,301.099 1631.41,350.93 1635.37,403.662 1639.33,458.272 1643.3,552.562 1647.26,547.843 1651.23,540.305 1655.19,529.938 1659.15,516.795 1663.12,500.996 1667.08,482.717 1671.05,462.185 1675.01,439.674 1678.98,415.495 1682.94,351.156 1686.9,384.685 1690.87,419.284 1694.83,454.418 1698.8,489.552 1702.76,524.172 1706.72,557.791 1710.69,589.963 1714.65,620.286 1718.62,648.418 1722.58,712.905 1726.54,675.862 1730.51,634.31 1734.47,589.079 1738.44,541.061 1742.4,452.348 1746.37,461.549 1750.33,472.423 1754.29,484.959 1758.26,499.107 1762.22,553.609 1766.19,510.678 1770.15,467.332 1774.11,424.306 1778.08,382.307 1782.04,303.16 1786.01,325.134 1789.97,351.585 1793.93,382.048 1797.9,415.978 1801.86,452.769 1805.83,491.768 1809.79,532.293 1813.76,573.647 1817.72,615.139 1821.68,694.928 1825.65,674.703 1829.61,651.044 1833.58,624.329 1837.54,594.996 1841.5,563.528 1845.47,530.443 1849.43,496.28 1853.4,461.585 1857.36,426.896 1861.32,392.738 1865.29,359.603 1869.25,327.945 1873.22,298.169 1877.18,270.623 1881.15,206.763 1885.11,244.476 1889.07,286.743 1893.04,332.732 1897,381.552 1900.97,471.107 1904.93,462.785 1908.89,452.824 1912.86,441.23 1916.82,428.048 1920.79,374.529 1924.75,418.457 1928.71,462.806 1932.68,506.835 1936.64,549.833 1940.61,591.136 1944.57,630.143 1948.54,666.323 1952.5,699.23 1956.46,728.506 1960.43,753.889 1964.39,775.217 1968.36,792.424 1972.32,805.543 1976.28,814.698 1980.25,820.102 1984.21,822.046 1988.18,820.89 1992.14,817.054 1996.1,811.006 2000.07,803.248 2004.03,794.303 2008,784.707 2011.96,774.988 2015.93,765.662 2019.89,757.218 2023.85,750.105 2027.82,744.727 2031.78,741.436 2035.75,740.52 2039.71,781.035 2043.67,725.466 2047.64,671.069 2051.6,618.769 2055.57,569.416 2059.53,484.93 2063.49,503.622 2067.46,528.846 2071.42,560.083 2075.39,596.693 2079.35,637.931 2083.32,682.972 2087.28,730.928 2091.24,780.874 2095.21,831.868 2099.17,921.807 2103.14,912.115 2107.1,899.101 2111.06,882.882 2115.03,863.649 2118.99,841.651 2122.96,817.199 2126.92,790.647 2130.88,762.388 2134.85,732.842 2138.81,702.443 2142.78,671.634 2146.74,640.852 2150.7,610.517 2154.67,581.029 2158.63,513.923 2162.6,547.193 2166.56,583.954 2170.53,623.523 2174.49,665.179 2178.45,747.005 2182.42,730.576 2186.38,712.318 2190.35,692.426 2194.31,671.124 2198.27,648.667 2202.24,625.323 2206.2,601.377 2210.17,577.115 2214.13,552.824 2218.09,489.951 2222.06,526.428 2226.02,565.332 2229.99,605.97 2233.95,647.634 2237.92,689.614 2241.88,731.216 2245.84,771.78 2249.81,810.687 2253.77,847.381 2257.74,920.202 2261.7,891.071 2265.66,856.831 2269.63,818.154 2273.59,775.797 2277.56,691.743 2281.52,704.516 2285.48,717.823 2289.45,731.623 2293.41,745.868 "/>
<path clip-path="url(#clip200)" d="M1274.21 1377.32 L2282.86 1377.32 L2282.86 1169.96 L1274.21 1169.96  Z" fill="#ffffff" fill-rule="evenodd" fill-opacity="1"/>
<polyline clip-path="url(#clip200)" style="stroke:#000000; stroke-linecap:round; stroke-linejoin:round; stroke-width:4; stroke-opacity:1; fill:none" points="1274.21,1377.32 2282.86,1377.32 2282.86,1169.96 1274.21,1169.96 1274.21,1377.32 "/>
<polyline clip-path="url(#clip200)" style="stroke:#009af9; stroke-linecap:round; stroke-linejoin:round; stroke-width:4; stroke-opacity:1; fill:none" points="1297.51,1221.8 1437.29,1221.8 "/>
<path clip-path="url(#clip200)" d="M1465.26 1208.36 L1465.26 1235.23 L1470.91 1235.23 Q1478.07 1235.23 1481.38 1231.99 Q1484.71 1228.75 1484.71 1221.76 Q1484.71 1214.82 1481.38 1211.6 Q1478.07 1208.36 1470.91 1208.36 L1465.26 1208.36 M1460.59 1204.52 L1470.19 1204.52 Q1480.24 1204.52 1484.94 1208.71 Q1489.64 1212.87 1489.64 1221.76 Q1489.64 1230.7 1484.92 1234.89 Q1480.19 1239.08 1470.19 1239.08 L1460.59 1239.08 L1460.59 1204.52 Z" fill="#000000" fill-rule="nonzero" fill-opacity="1" /><path clip-path="url(#clip200)" d="M1508.69 1226.04 Q1503.53 1226.04 1501.54 1227.22 Q1499.55 1228.4 1499.55 1231.25 Q1499.55 1233.52 1501.03 1234.86 Q1502.53 1236.18 1505.1 1236.18 Q1508.64 1236.18 1510.77 1233.68 Q1512.93 1231.16 1512.93 1226.99 L1512.93 1226.04 L1508.69 1226.04 M1517.19 1224.28 L1517.19 1239.08 L1512.93 1239.08 L1512.93 1235.14 Q1511.47 1237.5 1509.29 1238.64 Q1507.12 1239.75 1503.97 1239.75 Q1499.99 1239.75 1497.63 1237.52 Q1495.29 1235.28 1495.29 1231.53 Q1495.29 1227.15 1498.2 1224.93 Q1501.14 1222.71 1506.95 1222.71 L1512.93 1222.71 L1512.93 1222.29 Q1512.93 1219.35 1510.98 1217.76 Q1509.06 1216.14 1505.57 1216.14 Q1503.34 1216.14 1501.24 1216.67 Q1499.13 1217.2 1497.19 1218.27 L1497.19 1214.33 Q1499.52 1213.43 1501.72 1212.99 Q1503.92 1212.52 1506 1212.52 Q1511.63 1212.52 1514.41 1215.44 Q1517.19 1218.36 1517.19 1224.28 Z" fill="#000000" fill-rule="nonzero" fill-opacity="1" /><path clip-path="url(#clip200)" d="M1530.17 1205.79 L1530.17 1213.15 L1538.94 1213.15 L1538.94 1216.46 L1530.17 1216.46 L1530.17 1230.53 Q1530.17 1233.7 1531.03 1234.61 Q1531.91 1235.51 1534.57 1235.51 L1538.94 1235.51 L1538.94 1239.08 L1534.57 1239.08 Q1529.64 1239.08 1527.76 1237.25 Q1525.89 1235.39 1525.89 1230.53 L1525.89 1216.46 L1522.76 1216.46 L1522.76 1213.15 L1525.89 1213.15 L1525.89 1205.79 L1530.17 1205.79 Z" fill="#000000" fill-rule="nonzero" fill-opacity="1" /><path clip-path="url(#clip200)" d="M1556.33 1226.04 Q1551.17 1226.04 1549.18 1227.22 Q1547.19 1228.4 1547.19 1231.25 Q1547.19 1233.52 1548.67 1234.86 Q1550.17 1236.18 1552.74 1236.18 Q1556.28 1236.18 1558.41 1233.68 Q1560.56 1231.16 1560.56 1226.99 L1560.56 1226.04 L1556.33 1226.04 M1564.82 1224.28 L1564.82 1239.08 L1560.56 1239.08 L1560.56 1235.14 Q1559.11 1237.5 1556.93 1238.64 Q1554.75 1239.75 1551.61 1239.75 Q1547.63 1239.75 1545.26 1237.52 Q1542.93 1235.28 1542.93 1231.53 Q1542.93 1227.15 1545.84 1224.93 Q1548.78 1222.71 1554.59 1222.71 L1560.56 1222.71 L1560.56 1222.29 Q1560.56 1219.35 1558.62 1217.76 Q1556.7 1216.14 1553.2 1216.14 Q1550.98 1216.14 1548.88 1216.67 Q1546.77 1217.2 1544.82 1218.27 L1544.82 1214.33 Q1547.16 1213.43 1549.36 1212.99 Q1551.56 1212.52 1553.64 1212.52 Q1559.27 1212.52 1562.05 1215.44 Q1564.82 1218.36 1564.82 1224.28 Z" fill="#000000" fill-rule="nonzero" fill-opacity="1" /><polyline clip-path="url(#clip200)" style="stroke:#e26f46; stroke-linecap:round; stroke-linejoin:round; stroke-width:4; stroke-opacity:1; fill:none" points="1297.51,1273.64 1437.29,1273.64 "/>
<path clip-path="url(#clip200)" d="M1482.83 1257.49 L1482.83 1262.05 Q1480.17 1260.78 1477.81 1260.15 Q1475.45 1259.53 1473.25 1259.53 Q1469.43 1259.53 1467.35 1261.01 Q1465.29 1262.49 1465.29 1265.22 Q1465.29 1267.51 1466.65 1268.69 Q1468.04 1269.85 1471.88 1270.57 L1474.71 1271.15 Q1479.94 1272.14 1482.42 1274.67 Q1484.92 1277.17 1484.92 1281.38 Q1484.92 1286.4 1481.54 1288.99 Q1478.18 1291.59 1471.68 1291.59 Q1469.22 1291.59 1466.44 1291.03 Q1463.69 1290.48 1460.73 1289.39 L1460.73 1284.57 Q1463.57 1286.17 1466.31 1286.98 Q1469.04 1287.79 1471.68 1287.79 Q1475.68 1287.79 1477.86 1286.22 Q1480.03 1284.64 1480.03 1281.73 Q1480.03 1279.18 1478.46 1277.74 Q1476.91 1276.31 1473.34 1275.59 L1470.5 1275.04 Q1465.26 1273.99 1462.93 1271.77 Q1460.59 1269.55 1460.59 1265.59 Q1460.59 1261.01 1463.81 1258.37 Q1467.05 1255.73 1472.72 1255.73 Q1475.15 1255.73 1477.67 1256.17 Q1480.19 1256.61 1482.83 1257.49 Z" fill="#000000" fill-rule="nonzero" fill-opacity="1" /><path clip-path="url(#clip200)" d="M1492.02 1264.99 L1496.28 1264.99 L1496.28 1290.92 L1492.02 1290.92 L1492.02 1264.99 M1492.02 1254.9 L1496.28 1254.9 L1496.28 1260.29 L1492.02 1260.29 L1492.02 1254.9 Z" fill="#000000" fill-rule="nonzero" fill-opacity="1" /><path clip-path="url(#clip200)" d="M1525.38 1269.97 Q1526.98 1267.1 1529.2 1265.73 Q1531.42 1264.36 1534.43 1264.36 Q1538.48 1264.36 1540.68 1267.21 Q1542.88 1270.04 1542.88 1275.27 L1542.88 1290.92 L1538.6 1290.92 L1538.6 1275.41 Q1538.6 1271.68 1537.28 1269.87 Q1535.96 1268.07 1533.25 1268.07 Q1529.94 1268.07 1528.02 1270.27 Q1526.1 1272.47 1526.1 1276.26 L1526.1 1290.92 L1521.82 1290.92 L1521.82 1275.41 Q1521.82 1271.66 1520.5 1269.87 Q1519.18 1268.07 1516.42 1268.07 Q1513.16 1268.07 1511.24 1270.29 Q1509.32 1272.49 1509.32 1276.26 L1509.32 1290.92 L1505.03 1290.92 L1505.03 1264.99 L1509.32 1264.99 L1509.32 1269.02 Q1510.77 1266.63 1512.81 1265.5 Q1514.85 1264.36 1517.65 1264.36 Q1520.47 1264.36 1522.44 1265.8 Q1524.43 1267.23 1525.38 1269.97 Z" fill="#000000" fill-rule="nonzero" fill-opacity="1" /><path clip-path="url(#clip200)" d="M1550.94 1280.68 L1550.94 1264.99 L1555.19 1264.99 L1555.19 1280.52 Q1555.19 1284.2 1556.63 1286.05 Q1558.06 1287.88 1560.94 1287.88 Q1564.38 1287.88 1566.38 1285.68 Q1568.39 1283.48 1568.39 1279.69 L1568.39 1264.99 L1572.65 1264.99 L1572.65 1290.92 L1568.39 1290.92 L1568.39 1286.93 Q1566.84 1289.29 1564.78 1290.45 Q1562.74 1291.59 1560.03 1291.59 Q1555.56 1291.59 1553.25 1288.81 Q1550.94 1286.03 1550.94 1280.68 M1561.65 1264.36 L1561.65 1264.36 Z" fill="#000000" fill-rule="nonzero" fill-opacity="1" /><path clip-path="url(#clip200)" d="M1581.42 1254.9 L1585.68 1254.9 L1585.68 1290.92 L1581.42 1290.92 L1581.42 1254.9 Z" fill="#000000" fill-rule="nonzero" fill-opacity="1" /><path clip-path="url(#clip200)" d="M1606.37 1277.88 Q1601.21 1277.88 1599.22 1279.06 Q1597.23 1280.24 1597.23 1283.09 Q1597.23 1285.36 1598.71 1286.7 Q1600.22 1288.02 1602.79 1288.02 Q1606.33 1288.02 1608.46 1285.52 Q1610.61 1283 1610.61 1278.83 L1610.61 1277.88 L1606.37 1277.88 M1614.87 1276.12 L1614.87 1290.92 L1610.61 1290.92 L1610.61 1286.98 Q1609.15 1289.34 1606.98 1290.48 Q1604.8 1291.59 1601.65 1291.59 Q1597.67 1291.59 1595.31 1289.36 Q1592.97 1287.12 1592.97 1283.37 Q1592.97 1278.99 1595.89 1276.77 Q1598.83 1274.55 1604.64 1274.55 L1610.61 1274.55 L1610.61 1274.13 Q1610.61 1271.19 1608.67 1269.6 Q1606.75 1267.98 1603.25 1267.98 Q1601.03 1267.98 1598.92 1268.51 Q1596.81 1269.04 1594.87 1270.11 L1594.87 1266.17 Q1597.21 1265.27 1599.41 1264.83 Q1601.61 1264.36 1603.69 1264.36 Q1609.31 1264.36 1612.09 1267.28 Q1614.87 1270.2 1614.87 1276.12 Z" fill="#000000" fill-rule="nonzero" fill-opacity="1" /><path clip-path="url(#clip200)" d="M1627.86 1257.63 L1627.86 1264.99 L1636.63 1264.99 L1636.63 1268.3 L1627.86 1268.3 L1627.86 1282.37 Q1627.86 1285.54 1628.71 1286.45 Q1629.59 1287.35 1632.25 1287.35 L1636.63 1287.35 L1636.63 1290.92 L1632.25 1290.92 Q1627.32 1290.92 1625.45 1289.09 Q1623.57 1287.23 1623.57 1282.37 L1623.57 1268.3 L1620.45 1268.3 L1620.45 1264.99 L1623.57 1264.99 L1623.57 1257.63 L1627.86 1257.63 Z" fill="#000000" fill-rule="nonzero" fill-opacity="1" /><path clip-path="url(#clip200)" d="M1642.23 1264.99 L1646.49 1264.99 L1646.49 1290.92 L1642.23 1290.92 L1642.23 1264.99 M1642.23 1254.9 L1646.49 1254.9 L1646.49 1260.29 L1642.23 1260.29 L1642.23 1254.9 Z" fill="#000000" fill-rule="nonzero" fill-opacity="1" /><path clip-path="url(#clip200)" d="M1665.45 1267.98 Q1662.02 1267.98 1660.03 1270.66 Q1658.04 1273.32 1658.04 1277.98 Q1658.04 1282.63 1660.01 1285.31 Q1662 1287.98 1665.45 1287.98 Q1668.85 1287.98 1670.84 1285.29 Q1672.83 1282.61 1672.83 1277.98 Q1672.83 1273.37 1670.84 1270.68 Q1668.85 1267.98 1665.45 1267.98 M1665.45 1264.36 Q1671 1264.36 1674.18 1267.98 Q1677.35 1271.59 1677.35 1277.98 Q1677.35 1284.34 1674.18 1287.98 Q1671 1291.59 1665.45 1291.59 Q1659.87 1291.59 1656.7 1287.98 Q1653.55 1284.34 1653.55 1277.98 Q1653.55 1271.59 1656.7 1267.98 Q1659.87 1264.36 1665.45 1264.36 Z" fill="#000000" fill-rule="nonzero" fill-opacity="1" /><path clip-path="url(#clip200)" d="M1705.96 1275.27 L1705.96 1290.92 L1701.7 1290.92 L1701.7 1275.41 Q1701.7 1271.73 1700.26 1269.9 Q1698.83 1268.07 1695.96 1268.07 Q1692.51 1268.07 1690.52 1270.27 Q1688.53 1272.47 1688.53 1276.26 L1688.53 1290.92 L1684.24 1290.92 L1684.24 1264.99 L1688.53 1264.99 L1688.53 1269.02 Q1690.05 1266.68 1692.12 1265.52 Q1694.2 1264.36 1696.91 1264.36 Q1701.37 1264.36 1703.67 1267.14 Q1705.96 1269.9 1705.96 1275.27 Z" fill="#000000" fill-rule="nonzero" fill-opacity="1" /><path clip-path="url(#clip200)" d="M1749.71 1269.97 Q1751.3 1267.1 1753.53 1265.73 Q1755.75 1264.36 1758.76 1264.36 Q1762.81 1264.36 1765.01 1267.21 Q1767.21 1270.04 1767.21 1275.27 L1767.21 1290.92 L1762.92 1290.92 L1762.92 1275.41 Q1762.92 1271.68 1761.61 1269.87 Q1760.29 1268.07 1757.58 1268.07 Q1754.27 1268.07 1752.35 1270.27 Q1750.42 1272.47 1750.42 1276.26 L1750.42 1290.92 L1746.14 1290.92 L1746.14 1275.41 Q1746.14 1271.66 1744.82 1269.87 Q1743.5 1268.07 1740.75 1268.07 Q1737.49 1268.07 1735.56 1270.29 Q1733.64 1272.49 1733.64 1276.26 L1733.64 1290.92 L1729.36 1290.92 L1729.36 1264.99 L1733.64 1264.99 L1733.64 1269.02 Q1735.1 1266.63 1737.14 1265.5 Q1739.18 1264.36 1741.98 1264.36 Q1744.8 1264.36 1746.77 1265.8 Q1748.76 1267.23 1749.71 1269.97 Z" fill="#000000" fill-rule="nonzero" fill-opacity="1" /><path clip-path="url(#clip200)" d="M1785.75 1267.98 Q1782.32 1267.98 1780.33 1270.66 Q1778.34 1273.32 1778.34 1277.98 Q1778.34 1282.63 1780.31 1285.31 Q1782.3 1287.98 1785.75 1287.98 Q1789.15 1287.98 1791.14 1285.29 Q1793.13 1282.61 1793.13 1277.98 Q1793.13 1273.37 1791.14 1270.68 Q1789.15 1267.98 1785.75 1267.98 M1785.75 1264.36 Q1791.3 1264.36 1794.48 1267.98 Q1797.65 1271.59 1797.65 1277.98 Q1797.65 1284.34 1794.48 1287.98 Q1791.3 1291.59 1785.75 1291.59 Q1780.17 1291.59 1777 1287.98 Q1773.85 1284.34 1773.85 1277.98 Q1773.85 1271.59 1777 1267.98 Q1780.17 1264.36 1785.75 1264.36 Z" fill="#000000" fill-rule="nonzero" fill-opacity="1" /><path clip-path="url(#clip200)" d="M1821.77 1268.92 L1821.77 1254.9 L1826.03 1254.9 L1826.03 1290.92 L1821.77 1290.92 L1821.77 1287.03 Q1820.42 1289.34 1818.36 1290.48 Q1816.33 1291.59 1813.46 1291.59 Q1808.76 1291.59 1805.8 1287.84 Q1802.86 1284.09 1802.86 1277.98 Q1802.86 1271.86 1805.8 1268.11 Q1808.76 1264.36 1813.46 1264.36 Q1816.33 1264.36 1818.36 1265.5 Q1820.42 1266.61 1821.77 1268.92 M1807.25 1277.98 Q1807.25 1282.67 1809.17 1285.36 Q1811.12 1288.02 1814.5 1288.02 Q1817.88 1288.02 1819.82 1285.36 Q1821.77 1282.67 1821.77 1277.98 Q1821.77 1273.28 1819.82 1270.61 Q1817.88 1267.93 1814.5 1267.93 Q1811.12 1267.93 1809.17 1270.61 Q1807.25 1273.28 1807.25 1277.98 Z" fill="#000000" fill-rule="nonzero" fill-opacity="1" /><path clip-path="url(#clip200)" d="M1856.98 1276.89 L1856.98 1278.97 L1837.39 1278.97 Q1837.67 1283.37 1840.03 1285.68 Q1842.42 1287.98 1846.65 1287.98 Q1849.1 1287.98 1851.4 1287.37 Q1853.71 1286.77 1855.98 1285.57 L1855.98 1289.6 Q1853.69 1290.57 1851.28 1291.08 Q1848.87 1291.59 1846.4 1291.59 Q1840.19 1291.59 1836.56 1287.98 Q1832.95 1284.36 1832.95 1278.21 Q1832.95 1271.84 1836.37 1268.11 Q1839.82 1264.36 1845.66 1264.36 Q1850.89 1264.36 1853.92 1267.74 Q1856.98 1271.1 1856.98 1276.89 M1852.72 1275.64 Q1852.67 1272.14 1850.75 1270.06 Q1848.85 1267.98 1845.7 1267.98 Q1842.14 1267.98 1839.98 1269.99 Q1837.86 1272 1837.53 1275.66 L1852.72 1275.64 Z" fill="#000000" fill-rule="nonzero" fill-opacity="1" /><path clip-path="url(#clip200)" d="M1863.97 1254.9 L1868.23 1254.9 L1868.23 1290.92 L1863.97 1290.92 L1863.97 1254.9 Z" fill="#000000" fill-rule="nonzero" fill-opacity="1" /><path clip-path="url(#clip200)" d="M1908.73 1265.75 L1908.73 1269.78 Q1906.93 1268.86 1904.98 1268.39 Q1903.04 1267.93 1900.96 1267.93 Q1897.79 1267.93 1896.19 1268.9 Q1894.61 1269.87 1894.61 1271.82 Q1894.61 1273.3 1895.75 1274.16 Q1896.88 1274.99 1900.31 1275.75 L1901.77 1276.08 Q1906.3 1277.05 1908.2 1278.83 Q1910.12 1280.59 1910.12 1283.76 Q1910.12 1287.37 1907.25 1289.48 Q1904.41 1291.59 1899.41 1291.59 Q1897.32 1291.59 1895.05 1291.17 Q1892.81 1290.78 1890.31 1289.97 L1890.31 1285.57 Q1892.67 1286.79 1894.96 1287.42 Q1897.25 1288.02 1899.5 1288.02 Q1902.51 1288.02 1904.13 1287 Q1905.75 1285.96 1905.75 1284.09 Q1905.75 1282.35 1904.57 1281.42 Q1903.41 1280.5 1899.45 1279.64 L1897.97 1279.3 Q1894.01 1278.46 1892.25 1276.75 Q1890.49 1275.01 1890.49 1272 Q1890.49 1268.35 1893.09 1266.36 Q1895.68 1264.36 1900.45 1264.36 Q1902.81 1264.36 1904.89 1264.71 Q1906.98 1265.06 1908.73 1265.75 Z" fill="#000000" fill-rule="nonzero" fill-opacity="1" /><path clip-path="url(#clip200)" d="M1916.91 1264.99 L1921.16 1264.99 L1921.16 1290.92 L1916.91 1290.92 L1916.91 1264.99 M1916.91 1254.9 L1921.16 1254.9 L1921.16 1260.29 L1916.91 1260.29 L1916.91 1254.9 Z" fill="#000000" fill-rule="nonzero" fill-opacity="1" /><path clip-path="url(#clip200)" d="M1950.26 1269.97 Q1951.86 1267.1 1954.08 1265.73 Q1956.3 1264.36 1959.31 1264.36 Q1963.36 1264.36 1965.56 1267.21 Q1967.76 1270.04 1967.76 1275.27 L1967.76 1290.92 L1963.48 1290.92 L1963.48 1275.41 Q1963.48 1271.68 1962.16 1269.87 Q1960.84 1268.07 1958.13 1268.07 Q1954.82 1268.07 1952.9 1270.27 Q1950.98 1272.47 1950.98 1276.26 L1950.98 1290.92 L1946.7 1290.92 L1946.7 1275.41 Q1946.7 1271.66 1945.38 1269.87 Q1944.06 1268.07 1941.3 1268.07 Q1938.04 1268.07 1936.12 1270.29 Q1934.2 1272.49 1934.2 1276.26 L1934.2 1290.92 L1929.91 1290.92 L1929.91 1264.99 L1934.2 1264.99 L1934.2 1269.02 Q1935.66 1266.63 1937.69 1265.5 Q1939.73 1264.36 1942.53 1264.36 Q1945.35 1264.36 1947.32 1265.8 Q1949.31 1267.23 1950.26 1269.97 Z" fill="#000000" fill-rule="nonzero" fill-opacity="1" /><path clip-path="url(#clip200)" d="M2004.45 1254.9 L2004.45 1258.44 L2000.38 1258.44 Q1998.09 1258.44 1997.18 1259.36 Q1996.3 1260.29 1996.3 1262.7 L1996.3 1264.99 L2003.32 1264.99 L2003.32 1268.3 L1996.3 1268.3 L1996.3 1290.92 L1992.02 1290.92 L1992.02 1268.3 L1987.95 1268.3 L1987.95 1264.99 L1992.02 1264.99 L1992.02 1263.18 Q1992.02 1258.86 1994.03 1256.89 Q1996.05 1254.9 2000.42 1254.9 L2004.45 1254.9 Z" fill="#000000" fill-rule="nonzero" fill-opacity="1" /><path clip-path="url(#clip200)" d="M2008.02 1264.99 L2012.28 1264.99 L2012.28 1290.92 L2008.02 1290.92 L2008.02 1264.99 M2008.02 1254.9 L2012.28 1254.9 L2012.28 1260.29 L2008.02 1260.29 L2008.02 1254.9 Z" fill="#000000" fill-rule="nonzero" fill-opacity="1" /><path clip-path="url(#clip200)" d="M2025.4 1257.63 L2025.4 1264.99 L2034.17 1264.99 L2034.17 1268.3 L2025.4 1268.3 L2025.4 1282.37 Q2025.4 1285.54 2026.26 1286.45 Q2027.14 1287.35 2029.8 1287.35 L2034.17 1287.35 L2034.17 1290.92 L2029.8 1290.92 Q2024.87 1290.92 2022.99 1289.09 Q2021.12 1287.23 2021.12 1282.37 L2021.12 1268.3 L2017.99 1268.3 L2017.99 1264.99 L2021.12 1264.99 L2021.12 1257.63 L2025.4 1257.63 Z" fill="#000000" fill-rule="nonzero" fill-opacity="1" /><path clip-path="url(#clip200)" d="M2071 1285.04 L2075.89 1285.04 L2075.89 1290.92 L2071 1290.92 L2071 1285.04 M2071 1266.4 L2075.89 1266.4 L2075.89 1272.28 L2071 1272.28 L2071 1266.4 Z" fill="#000000" fill-rule="nonzero" fill-opacity="1" /><path clip-path="url(#clip200)" d="M2097.07 1271.77 Q2093.92 1271.77 2092.07 1273.92 Q2090.24 1276.08 2090.24 1279.83 Q2090.24 1283.55 2092.07 1285.73 Q2093.92 1287.88 2097.07 1287.88 Q2100.21 1287.88 2102.04 1285.73 Q2103.9 1283.55 2103.9 1279.83 Q2103.9 1276.08 2102.04 1273.92 Q2100.21 1271.77 2097.07 1271.77 M2106.35 1257.12 L2106.35 1261.38 Q2104.59 1260.55 2102.78 1260.11 Q2101 1259.67 2099.24 1259.67 Q2094.61 1259.67 2092.16 1262.79 Q2089.73 1265.92 2089.38 1272.23 Q2090.75 1270.22 2092.81 1269.16 Q2094.87 1268.07 2097.34 1268.07 Q2102.55 1268.07 2105.56 1271.24 Q2108.59 1274.39 2108.59 1279.83 Q2108.59 1285.15 2105.45 1288.37 Q2102.3 1291.59 2097.07 1291.59 Q2091.07 1291.59 2087.9 1287 Q2084.73 1282.4 2084.73 1273.67 Q2084.73 1265.48 2088.62 1260.61 Q2092.51 1255.73 2099.06 1255.73 Q2100.82 1255.73 2102.6 1256.08 Q2104.4 1256.42 2106.35 1257.12 Z" fill="#000000" fill-rule="nonzero" fill-opacity="1" /><path clip-path="url(#clip200)" d="M2116.7 1256.36 L2135.05 1256.36 L2135.05 1260.29 L2120.98 1260.29 L2120.98 1268.76 Q2122 1268.42 2123.02 1268.25 Q2124.03 1268.07 2125.05 1268.07 Q2130.84 1268.07 2134.22 1271.24 Q2137.6 1274.41 2137.6 1279.83 Q2137.6 1285.41 2134.13 1288.51 Q2130.65 1291.59 2124.33 1291.59 Q2122.16 1291.59 2119.89 1291.22 Q2117.65 1290.85 2115.24 1290.11 L2115.24 1285.41 Q2117.32 1286.54 2119.54 1287.1 Q2121.77 1287.65 2124.24 1287.65 Q2128.25 1287.65 2130.58 1285.54 Q2132.92 1283.44 2132.92 1279.83 Q2132.92 1276.22 2130.58 1274.11 Q2128.25 1272 2124.24 1272 Q2122.37 1272 2120.49 1272.42 Q2118.64 1272.84 2116.7 1273.72 L2116.7 1256.36 Z" fill="#000000" fill-rule="nonzero" fill-opacity="1" /><path clip-path="url(#clip200)" d="M2146.81 1285.04 L2151.7 1285.04 L2151.7 1290.92 L2146.81 1290.92 L2146.81 1285.04 Z" fill="#000000" fill-rule="nonzero" fill-opacity="1" /><path clip-path="url(#clip200)" d="M2161.93 1256.36 L2180.28 1256.36 L2180.28 1260.29 L2166.21 1260.29 L2166.21 1268.76 Q2167.23 1268.42 2168.25 1268.25 Q2169.27 1268.07 2170.28 1268.07 Q2176.07 1268.07 2179.45 1271.24 Q2182.83 1274.41 2182.83 1279.83 Q2182.83 1285.41 2179.36 1288.51 Q2175.89 1291.59 2169.57 1291.59 Q2167.39 1291.59 2165.12 1291.22 Q2162.88 1290.85 2160.47 1290.11 L2160.47 1285.41 Q2162.55 1286.54 2164.77 1287.1 Q2167 1287.65 2169.47 1287.65 Q2173.48 1287.65 2175.82 1285.54 Q2178.15 1283.44 2178.15 1279.83 Q2178.15 1276.22 2175.82 1274.11 Q2173.48 1272 2169.47 1272 Q2167.6 1272 2165.72 1272.42 Q2163.87 1272.84 2161.93 1273.72 L2161.93 1256.36 Z" fill="#000000" fill-rule="nonzero" fill-opacity="1" /><path clip-path="url(#clip200)" d="M2196.07 1286.98 L2212.39 1286.98 L2212.39 1290.92 L2190.45 1290.92 L2190.45 1286.98 Q2193.11 1284.23 2197.69 1279.6 Q2202.3 1274.94 2203.48 1273.6 Q2205.72 1271.08 2206.6 1269.34 Q2207.51 1267.58 2207.51 1265.89 Q2207.51 1263.14 2205.56 1261.4 Q2203.64 1259.67 2200.54 1259.67 Q2198.34 1259.67 2195.89 1260.43 Q2193.45 1261.19 2190.68 1262.74 L2190.68 1258.02 Q2193.5 1256.89 2195.95 1256.31 Q2198.41 1255.73 2200.45 1255.73 Q2205.82 1255.73 2209.01 1258.42 Q2212.2 1261.1 2212.2 1265.59 Q2212.2 1267.72 2211.39 1269.64 Q2210.61 1271.54 2208.5 1274.13 Q2207.92 1274.8 2204.82 1278.02 Q2201.72 1281.22 2196.07 1286.98 Z" fill="#000000" fill-rule="nonzero" fill-opacity="1" /><path clip-path="url(#clip200)" d="M2251.6 1275.71 Q2249.59 1275.71 2248.43 1277.42 Q2247.3 1279.13 2247.3 1282.19 Q2247.3 1285.2 2248.43 1286.93 Q2249.59 1288.65 2251.6 1288.65 Q2253.57 1288.65 2254.7 1286.93 Q2255.86 1285.2 2255.86 1282.19 Q2255.86 1279.16 2254.7 1277.44 Q2253.57 1275.71 2251.6 1275.71 M2251.6 1272.77 Q2255.26 1272.77 2257.41 1275.31 Q2259.57 1277.86 2259.57 1282.19 Q2259.57 1286.52 2257.39 1289.06 Q2255.24 1291.59 2251.6 1291.59 Q2247.9 1291.59 2245.75 1289.06 Q2243.59 1286.52 2243.59 1282.19 Q2243.59 1277.84 2245.75 1275.31 Q2247.92 1272.77 2251.6 1272.77 M2227.71 1258.67 Q2225.72 1258.67 2224.57 1260.41 Q2223.43 1262.12 2223.43 1265.13 Q2223.43 1268.18 2224.57 1269.9 Q2225.7 1271.61 2227.71 1271.61 Q2229.73 1271.61 2230.86 1269.9 Q2232.02 1268.18 2232.02 1265.13 Q2232.02 1262.14 2230.86 1260.41 Q2229.7 1258.67 2227.71 1258.67 M2248.62 1255.73 L2252.32 1255.73 L2230.7 1291.59 L2227 1291.59 L2248.62 1255.73 M2227.71 1255.73 Q2231.37 1255.73 2233.55 1258.28 Q2235.72 1260.8 2235.72 1265.13 Q2235.72 1269.5 2233.55 1272.03 Q2231.39 1274.55 2227.71 1274.55 Q2224.03 1274.55 2221.88 1272.03 Q2219.75 1269.48 2219.75 1265.13 Q2219.75 1260.82 2221.9 1258.28 Q2224.06 1255.73 2227.71 1255.73 Z" fill="#000000" fill-rule="nonzero" fill-opacity="1" /><polyline clip-path="url(#clip200)" style="stroke:#3da44d; stroke-linecap:round; stroke-linejoin:round; stroke-width:4; stroke-opacity:1; fill:none" points="1297.51,1325.48 1437.29,1325.48 "/>
<path clip-path="url(#clip200)" d="M1465.26 1312.04 L1465.26 1325.02 L1471.14 1325.02 Q1474.41 1325.02 1476.19 1323.33 Q1477.97 1321.64 1477.97 1318.52 Q1477.97 1315.42 1476.19 1313.73 Q1474.41 1312.04 1471.14 1312.04 L1465.26 1312.04 M1460.59 1308.2 L1471.14 1308.2 Q1476.95 1308.2 1479.92 1310.83 Q1482.9 1313.45 1482.9 1318.52 Q1482.9 1323.64 1479.92 1326.25 Q1476.95 1328.87 1471.14 1328.87 L1465.26 1328.87 L1465.26 1342.76 L1460.59 1342.76 L1460.59 1308.2 Z" fill="#000000" fill-rule="nonzero" fill-opacity="1" /><path clip-path="url(#clip200)" d="M1503.18 1320.81 Q1502.46 1320.39 1501.61 1320.21 Q1500.77 1320 1499.75 1320 Q1496.14 1320 1494.2 1322.36 Q1492.28 1324.7 1492.28 1329.1 L1492.28 1342.76 L1488 1342.76 L1488 1316.83 L1492.28 1316.83 L1492.28 1320.86 Q1493.62 1318.5 1495.77 1317.36 Q1497.93 1316.2 1501 1316.2 Q1501.44 1316.2 1501.98 1316.27 Q1502.51 1316.32 1503.16 1316.44 L1503.18 1320.81 Z" fill="#000000" fill-rule="nonzero" fill-opacity="1" /><path clip-path="url(#clip200)" d="M1528.78 1328.73 L1528.78 1330.81 L1509.2 1330.81 Q1509.48 1335.21 1511.84 1337.52 Q1514.22 1339.82 1518.46 1339.82 Q1520.91 1339.82 1523.2 1339.21 Q1525.52 1338.61 1527.79 1337.41 L1527.79 1341.44 Q1525.5 1342.41 1523.09 1342.92 Q1520.68 1343.43 1518.2 1343.43 Q1512 1343.43 1508.37 1339.82 Q1504.75 1336.2 1504.75 1330.05 Q1504.75 1323.68 1508.18 1319.95 Q1511.63 1316.2 1517.46 1316.2 Q1522.69 1316.2 1525.73 1319.58 Q1528.78 1322.94 1528.78 1328.73 M1524.52 1327.48 Q1524.48 1323.98 1522.56 1321.9 Q1520.66 1319.82 1517.51 1319.82 Q1513.94 1319.82 1511.79 1321.83 Q1509.66 1323.84 1509.34 1327.5 L1524.52 1327.48 Z" fill="#000000" fill-rule="nonzero" fill-opacity="1" /><path clip-path="url(#clip200)" d="M1552.83 1320.76 L1552.83 1306.74 L1557.09 1306.74 L1557.09 1342.76 L1552.83 1342.76 L1552.83 1338.87 Q1551.49 1341.18 1549.43 1342.32 Q1547.39 1343.43 1544.52 1343.43 Q1539.82 1343.43 1536.86 1339.68 Q1533.92 1335.93 1533.92 1329.82 Q1533.92 1323.7 1536.86 1319.95 Q1539.82 1316.2 1544.52 1316.2 Q1547.39 1316.2 1549.43 1317.34 Q1551.49 1318.45 1552.83 1320.76 M1538.32 1329.82 Q1538.32 1334.51 1540.24 1337.2 Q1542.19 1339.86 1545.56 1339.86 Q1548.94 1339.86 1550.89 1337.2 Q1552.83 1334.51 1552.83 1329.82 Q1552.83 1325.12 1550.89 1322.45 Q1548.94 1319.77 1545.56 1319.77 Q1542.19 1319.77 1540.24 1322.45 Q1538.32 1325.12 1538.32 1329.82 Z" fill="#000000" fill-rule="nonzero" fill-opacity="1" /><path clip-path="url(#clip200)" d="M1565.87 1316.83 L1570.12 1316.83 L1570.12 1342.76 L1565.87 1342.76 L1565.87 1316.83 M1565.87 1306.74 L1570.12 1306.74 L1570.12 1312.13 L1565.87 1312.13 L1565.87 1306.74 Z" fill="#000000" fill-rule="nonzero" fill-opacity="1" /><path clip-path="url(#clip200)" d="M1597.69 1317.82 L1597.69 1321.81 Q1595.89 1320.81 1594.06 1320.32 Q1592.25 1319.82 1590.4 1319.82 Q1586.26 1319.82 1583.97 1322.45 Q1581.68 1325.07 1581.68 1329.82 Q1581.68 1334.56 1583.97 1337.2 Q1586.26 1339.82 1590.4 1339.82 Q1592.25 1339.82 1594.06 1339.33 Q1595.89 1338.82 1597.69 1337.82 L1597.69 1341.76 Q1595.91 1342.59 1593.99 1343.01 Q1592.09 1343.43 1589.94 1343.43 Q1584.08 1343.43 1580.63 1339.75 Q1577.19 1336.07 1577.19 1329.82 Q1577.19 1323.47 1580.66 1319.84 Q1584.15 1316.2 1590.22 1316.2 Q1592.19 1316.2 1594.06 1316.62 Q1595.94 1317.01 1597.69 1317.82 Z" fill="#000000" fill-rule="nonzero" fill-opacity="1" /><path clip-path="url(#clip200)" d="M1609.31 1309.47 L1609.31 1316.83 L1618.09 1316.83 L1618.09 1320.14 L1609.31 1320.14 L1609.31 1334.21 Q1609.31 1337.38 1610.17 1338.29 Q1611.05 1339.19 1613.71 1339.19 L1618.09 1339.19 L1618.09 1342.76 L1613.71 1342.76 Q1608.78 1342.76 1606.91 1340.93 Q1605.03 1339.07 1605.03 1334.21 L1605.03 1320.14 L1601.91 1320.14 L1601.91 1316.83 L1605.03 1316.83 L1605.03 1309.47 L1609.31 1309.47 Z" fill="#000000" fill-rule="nonzero" fill-opacity="1" /><path clip-path="url(#clip200)" d="M1623.69 1316.83 L1627.95 1316.83 L1627.95 1342.76 L1623.69 1342.76 L1623.69 1316.83 M1623.69 1306.74 L1627.95 1306.74 L1627.95 1312.13 L1623.69 1312.13 L1623.69 1306.74 Z" fill="#000000" fill-rule="nonzero" fill-opacity="1" /><path clip-path="url(#clip200)" d="M1646.91 1319.82 Q1643.48 1319.82 1641.49 1322.5 Q1639.5 1325.16 1639.5 1329.82 Q1639.5 1334.47 1641.47 1337.15 Q1643.46 1339.82 1646.91 1339.82 Q1650.31 1339.82 1652.3 1337.13 Q1654.29 1334.45 1654.29 1329.82 Q1654.29 1325.21 1652.3 1322.52 Q1650.31 1319.82 1646.91 1319.82 M1646.91 1316.2 Q1652.46 1316.2 1655.63 1319.82 Q1658.81 1323.43 1658.81 1329.82 Q1658.81 1336.18 1655.63 1339.82 Q1652.46 1343.43 1646.91 1343.43 Q1641.33 1343.43 1638.16 1339.82 Q1635.01 1336.18 1635.01 1329.82 Q1635.01 1323.43 1638.16 1319.82 Q1641.33 1316.2 1646.91 1316.2 Z" fill="#000000" fill-rule="nonzero" fill-opacity="1" /><path clip-path="url(#clip200)" d="M1687.42 1327.11 L1687.42 1342.76 L1683.16 1342.76 L1683.16 1327.25 Q1683.16 1323.57 1681.72 1321.74 Q1680.29 1319.91 1677.42 1319.91 Q1673.97 1319.91 1671.98 1322.11 Q1669.99 1324.31 1669.99 1328.1 L1669.99 1342.76 L1665.7 1342.76 L1665.7 1316.83 L1669.99 1316.83 L1669.99 1320.86 Q1671.51 1318.52 1673.57 1317.36 Q1675.66 1316.2 1678.37 1316.2 Q1682.83 1316.2 1685.12 1318.98 Q1687.42 1321.74 1687.42 1327.11 Z" fill="#000000" fill-rule="nonzero" fill-opacity="1" /><path clip-path="url(#clip200)" d="M1731.17 1321.81 Q1732.76 1318.94 1734.99 1317.57 Q1737.21 1316.2 1740.22 1316.2 Q1744.27 1316.2 1746.47 1319.05 Q1748.67 1321.88 1748.67 1327.11 L1748.67 1342.76 L1744.38 1342.76 L1744.38 1327.25 Q1744.38 1323.52 1743.06 1321.71 Q1741.74 1319.91 1739.04 1319.91 Q1735.73 1319.91 1733.8 1322.11 Q1731.88 1324.31 1731.88 1328.1 L1731.88 1342.76 L1727.6 1342.76 L1727.6 1327.25 Q1727.6 1323.5 1726.28 1321.71 Q1724.96 1319.91 1722.21 1319.91 Q1718.94 1319.91 1717.02 1322.13 Q1715.1 1324.33 1715.1 1328.1 L1715.1 1342.76 L1710.82 1342.76 L1710.82 1316.83 L1715.1 1316.83 L1715.1 1320.86 Q1716.56 1318.47 1718.6 1317.34 Q1720.63 1316.2 1723.43 1316.2 Q1726.26 1316.2 1728.23 1317.64 Q1730.22 1319.07 1731.17 1321.81 Z" fill="#000000" fill-rule="nonzero" fill-opacity="1" /><path clip-path="url(#clip200)" d="M1767.21 1319.82 Q1763.78 1319.82 1761.79 1322.5 Q1759.8 1325.16 1759.8 1329.82 Q1759.8 1334.47 1761.77 1337.15 Q1763.76 1339.82 1767.21 1339.82 Q1770.61 1339.82 1772.6 1337.13 Q1774.59 1334.45 1774.59 1329.82 Q1774.59 1325.21 1772.6 1322.52 Q1770.61 1319.82 1767.21 1319.82 M1767.21 1316.2 Q1772.76 1316.2 1775.93 1319.82 Q1779.11 1323.43 1779.11 1329.82 Q1779.11 1336.18 1775.93 1339.82 Q1772.76 1343.43 1767.21 1343.43 Q1761.63 1343.43 1758.46 1339.82 Q1755.31 1336.18 1755.31 1329.82 Q1755.31 1323.43 1758.46 1319.82 Q1761.63 1316.2 1767.21 1316.2 Z" fill="#000000" fill-rule="nonzero" fill-opacity="1" /><path clip-path="url(#clip200)" d="M1803.23 1320.76 L1803.23 1306.74 L1807.48 1306.74 L1807.48 1342.76 L1803.23 1342.76 L1803.23 1338.87 Q1801.88 1341.18 1799.82 1342.32 Q1797.79 1343.43 1794.92 1343.43 Q1790.22 1343.43 1787.25 1339.68 Q1784.31 1335.93 1784.31 1329.82 Q1784.31 1323.7 1787.25 1319.95 Q1790.22 1316.2 1794.92 1316.2 Q1797.79 1316.2 1799.82 1317.34 Q1801.88 1318.45 1803.23 1320.76 M1788.71 1329.82 Q1788.71 1334.51 1790.63 1337.2 Q1792.58 1339.86 1795.96 1339.86 Q1799.34 1339.86 1801.28 1337.2 Q1803.23 1334.51 1803.23 1329.82 Q1803.23 1325.12 1801.28 1322.45 Q1799.34 1319.77 1795.96 1319.77 Q1792.58 1319.77 1790.63 1322.45 Q1788.71 1325.12 1788.71 1329.82 Z" fill="#000000" fill-rule="nonzero" fill-opacity="1" /><path clip-path="url(#clip200)" d="M1838.43 1328.73 L1838.43 1330.81 L1818.85 1330.81 Q1819.13 1335.21 1821.49 1337.52 Q1823.87 1339.82 1828.11 1339.82 Q1830.56 1339.82 1832.86 1339.21 Q1835.17 1338.61 1837.44 1337.41 L1837.44 1341.44 Q1835.15 1342.41 1832.74 1342.92 Q1830.33 1343.43 1827.86 1343.43 Q1821.65 1343.43 1818.02 1339.82 Q1814.41 1336.2 1814.41 1330.05 Q1814.41 1323.68 1817.83 1319.95 Q1821.28 1316.2 1827.11 1316.2 Q1832.35 1316.2 1835.38 1319.58 Q1838.43 1322.94 1838.43 1328.73 M1834.17 1327.48 Q1834.13 1323.98 1832.21 1321.9 Q1830.31 1319.82 1827.16 1319.82 Q1823.6 1319.82 1821.44 1321.83 Q1819.31 1323.84 1818.99 1327.5 L1834.17 1327.48 Z" fill="#000000" fill-rule="nonzero" fill-opacity="1" /><path clip-path="url(#clip200)" d="M1845.42 1306.74 L1849.68 1306.74 L1849.68 1342.76 L1845.42 1342.76 L1845.42 1306.74 Z" fill="#000000" fill-rule="nonzero" fill-opacity="1" /><path clip-path="url(#clip200)" d="M1890.19 1317.59 L1890.19 1321.62 Q1888.39 1320.7 1886.44 1320.23 Q1884.5 1319.77 1882.41 1319.77 Q1879.24 1319.77 1877.65 1320.74 Q1876.07 1321.71 1876.07 1323.66 Q1876.07 1325.14 1877.21 1326 Q1878.34 1326.83 1881.77 1327.59 L1883.23 1327.92 Q1887.76 1328.89 1889.66 1330.67 Q1891.58 1332.43 1891.58 1335.6 Q1891.58 1339.21 1888.71 1341.32 Q1885.86 1343.43 1880.86 1343.43 Q1878.78 1343.43 1876.51 1343.01 Q1874.27 1342.62 1871.77 1341.81 L1871.77 1337.41 Q1874.13 1338.63 1876.42 1339.26 Q1878.71 1339.86 1880.96 1339.86 Q1883.97 1339.86 1885.59 1338.84 Q1887.21 1337.8 1887.21 1335.93 Q1887.21 1334.19 1886.03 1333.26 Q1884.87 1332.34 1880.91 1331.48 L1879.43 1331.14 Q1875.47 1330.3 1873.71 1328.59 Q1871.95 1326.85 1871.95 1323.84 Q1871.95 1320.19 1874.54 1318.2 Q1877.14 1316.2 1881.91 1316.2 Q1884.27 1316.2 1886.35 1316.55 Q1888.43 1316.9 1890.19 1317.59 Z" fill="#000000" fill-rule="nonzero" fill-opacity="1" /><path clip-path="url(#clip200)" d="M1898.36 1316.83 L1902.62 1316.83 L1902.62 1342.76 L1898.36 1342.76 L1898.36 1316.83 M1898.36 1306.74 L1902.62 1306.74 L1902.62 1312.13 L1898.36 1312.13 L1898.36 1306.74 Z" fill="#000000" fill-rule="nonzero" fill-opacity="1" /><path clip-path="url(#clip200)" d="M1931.72 1321.81 Q1933.32 1318.94 1935.54 1317.57 Q1937.76 1316.2 1940.77 1316.2 Q1944.82 1316.2 1947.02 1319.05 Q1949.22 1321.88 1949.22 1327.11 L1949.22 1342.76 L1944.94 1342.76 L1944.94 1327.25 Q1944.94 1323.52 1943.62 1321.71 Q1942.3 1319.91 1939.59 1319.91 Q1936.28 1319.91 1934.36 1322.11 Q1932.44 1324.31 1932.44 1328.1 L1932.44 1342.76 L1928.16 1342.76 L1928.16 1327.25 Q1928.16 1323.5 1926.84 1321.71 Q1925.52 1319.91 1922.76 1319.91 Q1919.5 1319.91 1917.58 1322.13 Q1915.66 1324.33 1915.66 1328.1 L1915.66 1342.76 L1911.37 1342.76 L1911.37 1316.83 L1915.66 1316.83 L1915.66 1320.86 Q1917.11 1318.47 1919.15 1317.34 Q1921.19 1316.2 1923.99 1316.2 Q1926.81 1316.2 1928.78 1317.64 Q1930.77 1319.07 1931.72 1321.81 Z" fill="#000000" fill-rule="nonzero" fill-opacity="1" /><path clip-path="url(#clip200)" d="M1985.91 1306.74 L1985.91 1310.28 L1981.84 1310.28 Q1979.54 1310.28 1978.64 1311.2 Q1977.76 1312.13 1977.76 1314.54 L1977.76 1316.83 L1984.78 1316.83 L1984.78 1320.14 L1977.76 1320.14 L1977.76 1342.76 L1973.48 1342.76 L1973.48 1320.14 L1969.41 1320.14 L1969.41 1316.83 L1973.48 1316.83 L1973.48 1315.02 Q1973.48 1310.7 1975.49 1308.73 Q1977.51 1306.74 1981.88 1306.74 L1985.91 1306.74 Z" fill="#000000" fill-rule="nonzero" fill-opacity="1" /><path clip-path="url(#clip200)" d="M1989.47 1316.83 L1993.73 1316.83 L1993.73 1342.76 L1989.47 1342.76 L1989.47 1316.83 M1989.47 1306.74 L1993.73 1306.74 L1993.73 1312.13 L1989.47 1312.13 L1989.47 1306.74 Z" fill="#000000" fill-rule="nonzero" fill-opacity="1" /><path clip-path="url(#clip200)" d="M2006.86 1309.47 L2006.86 1316.83 L2015.63 1316.83 L2015.63 1320.14 L2006.86 1320.14 L2006.86 1334.21 Q2006.86 1337.38 2007.72 1338.29 Q2008.59 1339.19 2011.26 1339.19 L2015.63 1339.19 L2015.63 1342.76 L2011.26 1342.76 Q2006.33 1342.76 2004.45 1340.93 Q2002.58 1339.07 2002.58 1334.21 L2002.58 1320.14 L1999.45 1320.14 L1999.45 1316.83 L2002.58 1316.83 L2002.58 1309.47 L2006.86 1309.47 Z" fill="#000000" fill-rule="nonzero" fill-opacity="1" /><path clip-path="url(#clip200)" d="M2052.46 1336.88 L2057.34 1336.88 L2057.34 1342.76 L2052.46 1342.76 L2052.46 1336.88 M2052.46 1318.24 L2057.34 1318.24 L2057.34 1324.12 L2052.46 1324.12 L2052.46 1318.24 Z" fill="#000000" fill-rule="nonzero" fill-opacity="1" /><path clip-path="url(#clip200)" d="M2078.53 1323.61 Q2075.38 1323.61 2073.53 1325.76 Q2071.7 1327.92 2071.7 1331.67 Q2071.7 1335.39 2073.53 1337.57 Q2075.38 1339.72 2078.53 1339.72 Q2081.67 1339.72 2083.5 1337.57 Q2085.35 1335.39 2085.35 1331.67 Q2085.35 1327.92 2083.5 1325.76 Q2081.67 1323.61 2078.53 1323.61 M2087.81 1308.96 L2087.81 1313.22 Q2086.05 1312.39 2084.24 1311.95 Q2082.46 1311.51 2080.7 1311.51 Q2076.07 1311.51 2073.62 1314.63 Q2071.19 1317.76 2070.84 1324.07 Q2072.21 1322.06 2074.27 1321 Q2076.33 1319.91 2078.8 1319.91 Q2084.01 1319.91 2087.02 1323.08 Q2090.05 1326.23 2090.05 1331.67 Q2090.05 1336.99 2086.9 1340.21 Q2083.76 1343.43 2078.53 1343.43 Q2072.53 1343.43 2069.36 1338.84 Q2066.19 1334.24 2066.19 1325.51 Q2066.19 1317.32 2070.08 1312.45 Q2073.96 1307.57 2080.52 1307.57 Q2082.28 1307.57 2084.06 1307.92 Q2085.86 1308.26 2087.81 1308.96 Z" fill="#000000" fill-rule="nonzero" fill-opacity="1" /><path clip-path="url(#clip200)" d="M2110.96 1312.27 L2099.15 1330.72 L2110.96 1330.72 L2110.96 1312.27 M2109.73 1308.2 L2115.61 1308.2 L2115.61 1330.72 L2120.54 1330.72 L2120.54 1334.61 L2115.61 1334.61 L2115.61 1342.76 L2110.96 1342.76 L2110.96 1334.61 L2095.35 1334.61 L2095.35 1330.09 L2109.73 1308.2 Z" fill="#000000" fill-rule="nonzero" fill-opacity="1" /><path clip-path="url(#clip200)" d="M2128.27 1336.88 L2133.15 1336.88 L2133.15 1342.76 L2128.27 1342.76 L2128.27 1336.88 Z" fill="#000000" fill-rule="nonzero" fill-opacity="1" /><path clip-path="url(#clip200)" d="M2143.39 1308.2 L2161.74 1308.2 L2161.74 1312.13 L2147.67 1312.13 L2147.67 1320.6 Q2148.69 1320.26 2149.71 1320.09 Q2150.72 1319.91 2151.74 1319.91 Q2157.53 1319.91 2160.91 1323.08 Q2164.29 1326.25 2164.29 1331.67 Q2164.29 1337.25 2160.82 1340.35 Q2157.34 1343.43 2151.02 1343.43 Q2148.85 1343.43 2146.58 1343.06 Q2144.33 1342.69 2141.93 1341.95 L2141.93 1337.25 Q2144.01 1338.38 2146.23 1338.94 Q2148.46 1339.49 2150.93 1339.49 Q2154.94 1339.49 2157.27 1337.38 Q2159.61 1335.28 2159.61 1331.67 Q2159.61 1328.06 2157.27 1325.95 Q2154.94 1323.84 2150.93 1323.84 Q2149.06 1323.84 2147.18 1324.26 Q2145.33 1324.68 2143.39 1325.56 L2143.39 1308.2 Z" fill="#000000" fill-rule="nonzero" fill-opacity="1" /><path clip-path="url(#clip200)" d="M2174.31 1338.82 L2181.95 1338.82 L2181.95 1312.45 L2173.64 1314.12 L2173.64 1309.86 L2181.9 1308.2 L2186.58 1308.2 L2186.58 1338.82 L2194.22 1338.82 L2194.22 1342.76 L2174.31 1342.76 L2174.31 1338.82 Z" fill="#000000" fill-rule="nonzero" fill-opacity="1" /><path clip-path="url(#clip200)" d="M2233.06 1327.55 Q2231.05 1327.55 2229.89 1329.26 Q2228.76 1330.97 2228.76 1334.03 Q2228.76 1337.04 2229.89 1338.77 Q2231.05 1340.49 2233.06 1340.49 Q2235.03 1340.49 2236.16 1338.77 Q2237.32 1337.04 2237.32 1334.03 Q2237.32 1331 2236.16 1329.28 Q2235.03 1327.55 2233.06 1327.55 M2233.06 1324.61 Q2236.72 1324.61 2238.87 1327.15 Q2241.02 1329.7 2241.02 1334.03 Q2241.02 1338.36 2238.85 1340.9 Q2236.7 1343.43 2233.06 1343.43 Q2229.36 1343.43 2227.2 1340.9 Q2225.05 1338.36 2225.05 1334.03 Q2225.05 1329.68 2227.2 1327.15 Q2229.38 1324.61 2233.06 1324.61 M2209.17 1310.51 Q2207.18 1310.51 2206.02 1312.25 Q2204.89 1313.96 2204.89 1316.97 Q2204.89 1320.02 2206.02 1321.74 Q2207.16 1323.45 2209.17 1323.45 Q2211.19 1323.45 2212.32 1321.74 Q2213.48 1320.02 2213.48 1316.97 Q2213.48 1313.98 2212.32 1312.25 Q2211.16 1310.51 2209.17 1310.51 M2230.08 1307.57 L2233.78 1307.57 L2212.16 1343.43 L2208.45 1343.43 L2230.08 1307.57 M2209.17 1307.57 Q2212.83 1307.57 2215.01 1310.12 Q2217.18 1312.64 2217.18 1316.97 Q2217.18 1321.34 2215.01 1323.87 Q2212.85 1326.39 2209.17 1326.39 Q2205.49 1326.39 2203.34 1323.87 Q2201.21 1321.32 2201.21 1316.97 Q2201.21 1312.66 2203.36 1310.12 Q2205.52 1307.57 2209.17 1307.57 Z" fill="#000000" fill-rule="nonzero" fill-opacity="1" /></svg>
