<?xml version="1.0" encoding="utf-8"?>
<svg xmlns="http://www.w3.org/2000/svg" xmlns:xlink="http://www.w3.org/1999/xlink" width="600" height="400" viewBox="0 0 2400 1600">
<defs>
  <clipPath id="clip140">
    <rect x="0" y="0" width="2400" height="1600"/>
  </clipPath>
</defs>
<path clip-path="url(#clip140)" d="M0 1600 L2400 1600 L2400 0 L0 0  Z" fill="#ffffff" fill-rule="evenodd" fill-opacity="1"/>
<defs>
  <clipPath id="clip141">
    <rect x="480" y="0" width="1681" height="1600"/>
  </clipPath>
</defs>
<path clip-path="url(#clip140)" d="M287.366 1423.18 L2352.76 1423.18 L2352.76 47.2441 L287.366 47.2441  Z" fill="#ffffff" fill-rule="evenodd" fill-opacity="1"/>
<defs>
  <clipPath id="clip142">
    <rect x="287" y="47" width="2066" height="1377"/>
  </clipPath>
</defs>
<polyline clip-path="url(#clip142)" style="stroke:#000000; stroke-linecap:round; stroke-linejoin:round; stroke-width:2; stroke-opacity:0.1; fill:none" points="345.82,1423.18 345.82,47.2441 "/>
<polyline clip-path="url(#clip142)" style="stroke:#000000; stroke-linecap:round; stroke-linejoin:round; stroke-width:2; stroke-opacity:0.1; fill:none" points="736.298,1423.18 736.298,47.2441 "/>
<polyline clip-path="url(#clip142)" style="stroke:#000000; stroke-linecap:round; stroke-linejoin:round; stroke-width:2; stroke-opacity:0.1; fill:none" points="1126.77,1423.18 1126.77,47.2441 "/>
<polyline clip-path="url(#clip142)" style="stroke:#000000; stroke-linecap:round; stroke-linejoin:round; stroke-width:2; stroke-opacity:0.1; fill:none" points="1517.25,1423.18 1517.25,47.2441 "/>
<polyline clip-path="url(#clip142)" style="stroke:#000000; stroke-linecap:round; stroke-linejoin:round; stroke-width:2; stroke-opacity:0.1; fill:none" points="1907.73,1423.18 1907.73,47.2441 "/>
<polyline clip-path="url(#clip142)" style="stroke:#000000; stroke-linecap:round; stroke-linejoin:round; stroke-width:2; stroke-opacity:0.1; fill:none" points="2298.21,1423.18 2298.21,47.2441 "/>
<polyline clip-path="url(#clip142)" style="stroke:#000000; stroke-linecap:round; stroke-linejoin:round; stroke-width:2; stroke-opacity:0.1; fill:none" points="287.366,1291.65 2352.76,1291.65 "/>
<polyline clip-path="url(#clip142)" style="stroke:#000000; stroke-linecap:round; stroke-linejoin:round; stroke-width:2; stroke-opacity:0.1; fill:none" points="287.366,1105.9 2352.76,1105.9 "/>
<polyline clip-path="url(#clip142)" style="stroke:#000000; stroke-linecap:round; stroke-linejoin:round; stroke-width:2; stroke-opacity:0.1; fill:none" points="287.366,920.155 2352.76,920.155 "/>
<polyline clip-path="url(#clip142)" style="stroke:#000000; stroke-linecap:round; stroke-linejoin:round; stroke-width:2; stroke-opacity:0.1; fill:none" points="287.366,734.408 2352.76,734.408 "/>
<polyline clip-path="url(#clip142)" style="stroke:#000000; stroke-linecap:round; stroke-linejoin:round; stroke-width:2; stroke-opacity:0.1; fill:none" points="287.366,548.66 2352.76,548.66 "/>
<polyline clip-path="url(#clip142)" style="stroke:#000000; stroke-linecap:round; stroke-linejoin:round; stroke-width:2; stroke-opacity:0.1; fill:none" points="287.366,362.913 2352.76,362.913 "/>
<polyline clip-path="url(#clip142)" style="stroke:#000000; stroke-linecap:round; stroke-linejoin:round; stroke-width:2; stroke-opacity:0.1; fill:none" points="287.366,177.166 2352.76,177.166 "/>
<polyline clip-path="url(#clip140)" style="stroke:#000000; stroke-linecap:round; stroke-linejoin:round; stroke-width:4; stroke-opacity:1; fill:none" points="287.366,1423.18 2352.76,1423.18 "/>
<polyline clip-path="url(#clip140)" style="stroke:#000000; stroke-linecap:round; stroke-linejoin:round; stroke-width:4; stroke-opacity:1; fill:none" points="345.82,1423.18 345.82,1404.28 "/>
<polyline clip-path="url(#clip140)" style="stroke:#000000; stroke-linecap:round; stroke-linejoin:round; stroke-width:4; stroke-opacity:1; fill:none" points="736.298,1423.18 736.298,1404.28 "/>
<polyline clip-path="url(#clip140)" style="stroke:#000000; stroke-linecap:round; stroke-linejoin:round; stroke-width:4; stroke-opacity:1; fill:none" points="1126.77,1423.18 1126.77,1404.28 "/>
<polyline clip-path="url(#clip140)" style="stroke:#000000; stroke-linecap:round; stroke-linejoin:round; stroke-width:4; stroke-opacity:1; fill:none" points="1517.25,1423.18 1517.25,1404.28 "/>
<polyline clip-path="url(#clip140)" style="stroke:#000000; stroke-linecap:round; stroke-linejoin:round; stroke-width:4; stroke-opacity:1; fill:none" points="1907.73,1423.18 1907.73,1404.28 "/>
<polyline clip-path="url(#clip140)" style="stroke:#000000; stroke-linecap:round; stroke-linejoin:round; stroke-width:4; stroke-opacity:1; fill:none" points="2298.21,1423.18 2298.21,1404.28 "/>
<path clip-path="url(#clip140)" d="M345.82 1454.1 Q342.209 1454.1 340.381 1457.66 Q338.575 1461.2 338.575 1468.33 Q338.575 1475.44 340.381 1479.01 Q342.209 1482.55 345.82 1482.55 Q349.455 1482.55 351.26 1479.01 Q353.089 1475.44 353.089 1468.33 Q353.089 1461.2 351.26 1457.66 Q349.455 1454.1 345.82 1454.1 M345.82 1450.39 Q351.63 1450.39 354.686 1455 Q357.765 1459.58 357.765 1468.33 Q357.765 1477.06 354.686 1481.67 Q351.63 1486.25 345.82 1486.25 Q340.01 1486.25 336.931 1481.67 Q333.876 1477.06 333.876 1468.33 Q333.876 1459.58 336.931 1455 Q340.01 1450.39 345.82 1450.39 Z" fill="#000000" fill-rule="nonzero" fill-opacity="1" /><path clip-path="url(#clip140)" d="M726.68 1481.64 L734.318 1481.64 L734.318 1455.28 L726.008 1456.95 L726.008 1452.69 L734.272 1451.02 L738.948 1451.02 L738.948 1481.64 L746.587 1481.64 L746.587 1485.58 L726.68 1485.58 L726.68 1481.64 Z" fill="#000000" fill-rule="nonzero" fill-opacity="1" /><path clip-path="url(#clip140)" d="M1121.43 1481.64 L1137.75 1481.64 L1137.75 1485.58 L1115.8 1485.58 L1115.8 1481.64 Q1118.46 1478.89 1123.05 1474.26 Q1127.65 1469.61 1128.83 1468.27 Q1131.08 1465.74 1131.96 1464.01 Q1132.86 1462.25 1132.86 1460.56 Q1132.86 1457.8 1130.92 1456.07 Q1129 1454.33 1125.9 1454.33 Q1123.7 1454.33 1121.24 1455.09 Q1118.81 1455.86 1116.03 1457.41 L1116.03 1452.69 Q1118.86 1451.55 1121.31 1450.97 Q1123.77 1450.39 1125.8 1450.39 Q1131.17 1450.39 1134.37 1453.08 Q1137.56 1455.77 1137.56 1460.26 Q1137.56 1462.39 1136.75 1464.31 Q1135.96 1466.2 1133.86 1468.8 Q1133.28 1469.47 1130.18 1472.69 Q1127.08 1475.88 1121.43 1481.64 Z" fill="#000000" fill-rule="nonzero" fill-opacity="1" /><path clip-path="url(#clip140)" d="M1521.5 1466.95 Q1524.86 1467.66 1526.73 1469.93 Q1528.63 1472.2 1528.63 1475.53 Q1528.63 1480.65 1525.11 1483.45 Q1521.59 1486.25 1515.11 1486.25 Q1512.93 1486.25 1510.62 1485.81 Q1508.33 1485.39 1505.87 1484.54 L1505.87 1480.02 Q1507.82 1481.16 1510.13 1481.74 Q1512.45 1482.32 1514.97 1482.32 Q1519.37 1482.32 1521.66 1480.58 Q1523.98 1478.84 1523.98 1475.53 Q1523.98 1472.48 1521.82 1470.77 Q1519.69 1469.03 1515.87 1469.03 L1511.85 1469.03 L1511.85 1465.19 L1516.06 1465.19 Q1519.51 1465.19 1521.34 1463.82 Q1523.17 1462.43 1523.17 1459.84 Q1523.17 1457.18 1521.27 1455.77 Q1519.39 1454.33 1515.87 1454.33 Q1513.95 1454.33 1511.75 1454.75 Q1509.56 1455.16 1506.92 1456.04 L1506.92 1451.88 Q1509.58 1451.14 1511.89 1450.77 Q1514.23 1450.39 1516.29 1450.39 Q1521.62 1450.39 1524.72 1452.83 Q1527.82 1455.23 1527.82 1459.35 Q1527.82 1462.22 1526.18 1464.21 Q1524.53 1466.18 1521.5 1466.95 Z" fill="#000000" fill-rule="nonzero" fill-opacity="1" /><path clip-path="url(#clip140)" d="M1910.74 1455.09 L1898.93 1473.54 L1910.74 1473.54 L1910.74 1455.09 M1909.51 1451.02 L1915.39 1451.02 L1915.39 1473.54 L1920.32 1473.54 L1920.32 1477.43 L1915.39 1477.43 L1915.39 1485.58 L1910.74 1485.58 L1910.74 1477.43 L1895.14 1477.43 L1895.14 1472.92 L1909.51 1451.02 Z" fill="#000000" fill-rule="nonzero" fill-opacity="1" /><path clip-path="url(#clip140)" d="M2288.48 1451.02 L2306.84 1451.02 L2306.84 1454.96 L2292.77 1454.96 L2292.77 1463.43 Q2293.78 1463.08 2294.8 1462.92 Q2295.82 1462.73 2296.84 1462.73 Q2302.63 1462.73 2306.01 1465.9 Q2309.39 1469.08 2309.39 1474.49 Q2309.39 1480.07 2305.91 1483.17 Q2302.44 1486.25 2296.12 1486.25 Q2293.95 1486.25 2291.68 1485.88 Q2289.43 1485.51 2287.03 1484.77 L2287.03 1480.07 Q2289.11 1481.2 2291.33 1481.76 Q2293.55 1482.32 2296.03 1482.32 Q2300.03 1482.32 2302.37 1480.21 Q2304.71 1478.1 2304.71 1474.49 Q2304.71 1470.88 2302.37 1468.77 Q2300.03 1466.67 2296.03 1466.67 Q2294.16 1466.67 2292.28 1467.08 Q2290.43 1467.5 2288.48 1468.38 L2288.48 1451.02 Z" fill="#000000" fill-rule="nonzero" fill-opacity="1" /><path clip-path="url(#clip140)" d="M1190.23 1520.52 L1230.43 1520.52 L1230.43 1525.93 L1213.56 1525.93 L1213.56 1568.04 L1207.1 1568.04 L1207.1 1525.93 L1190.23 1525.93 L1190.23 1520.52 Z" fill="#000000" fill-rule="nonzero" fill-opacity="1" /><path clip-path="url(#clip140)" d="M1234.38 1532.4 L1240.23 1532.4 L1240.23 1568.04 L1234.38 1568.04 L1234.38 1532.4 M1234.38 1518.52 L1240.23 1518.52 L1240.23 1525.93 L1234.38 1525.93 L1234.38 1518.52 Z" fill="#000000" fill-rule="nonzero" fill-opacity="1" /><path clip-path="url(#clip140)" d="M1280.24 1539.24 Q1282.44 1535.29 1285.5 1533.41 Q1288.55 1531.54 1292.69 1531.54 Q1298.26 1531.54 1301.28 1535.45 Q1304.31 1539.33 1304.31 1546.53 L1304.31 1568.04 L1298.42 1568.04 L1298.42 1546.72 Q1298.42 1541.59 1296.6 1539.11 Q1294.79 1536.63 1291.07 1536.63 Q1286.51 1536.63 1283.87 1539.65 Q1281.23 1542.68 1281.23 1547.9 L1281.23 1568.04 L1275.34 1568.04 L1275.34 1546.72 Q1275.34 1541.56 1273.53 1539.11 Q1271.71 1536.63 1267.93 1536.63 Q1263.44 1536.63 1260.8 1539.68 Q1258.15 1542.71 1258.15 1547.9 L1258.15 1568.04 L1252.27 1568.04 L1252.27 1532.4 L1258.15 1532.4 L1258.15 1537.93 Q1260.16 1534.66 1262.96 1533.1 Q1265.76 1531.54 1269.61 1531.54 Q1273.5 1531.54 1276.2 1533.51 Q1278.94 1535.48 1280.24 1539.24 Z" fill="#000000" fill-rule="nonzero" fill-opacity="1" /><path clip-path="url(#clip140)" d="M1346.48 1548.76 L1346.48 1551.62 L1319.55 1551.62 Q1319.93 1557.67 1323.18 1560.85 Q1326.46 1564 1332.28 1564 Q1335.66 1564 1338.81 1563.17 Q1341.99 1562.35 1345.11 1560.69 L1345.11 1566.23 Q1341.96 1567.57 1338.65 1568.27 Q1335.34 1568.97 1331.93 1568.97 Q1323.4 1568.97 1318.41 1564 Q1313.44 1559.04 1313.44 1550.57 Q1313.44 1541.82 1318.15 1536.69 Q1322.89 1531.54 1330.91 1531.54 Q1338.11 1531.54 1342.28 1536.18 Q1346.48 1540.8 1346.48 1548.76 M1340.62 1547.04 Q1340.56 1542.23 1337.92 1539.37 Q1335.31 1536.5 1330.98 1536.5 Q1326.08 1536.5 1323.12 1539.27 Q1320.19 1542.04 1319.74 1547.07 L1340.62 1547.04 Z" fill="#000000" fill-rule="nonzero" fill-opacity="1" /><path clip-path="url(#clip140)" d="M1376.27 1518.52 L1389.77 1518.52 L1389.77 1523.07 L1382.13 1523.07 L1382.13 1572.09 L1389.77 1572.09 L1389.77 1576.64 L1376.27 1576.64 L1376.27 1518.52 Z" fill="#000000" fill-rule="nonzero" fill-opacity="1" /><path clip-path="url(#clip140)" d="M1424.97 1533.45 L1424.97 1538.98 Q1422.49 1537.71 1419.81 1537.07 Q1417.14 1536.44 1414.27 1536.44 Q1409.91 1536.44 1407.72 1537.77 Q1405.55 1539.11 1405.55 1541.79 Q1405.55 1543.82 1407.11 1545 Q1408.67 1546.15 1413.38 1547.2 L1415.39 1547.64 Q1421.63 1548.98 1424.24 1551.43 Q1426.88 1553.85 1426.88 1558.21 Q1426.88 1563.17 1422.93 1566.07 Q1419.02 1568.97 1412.14 1568.97 Q1409.28 1568.97 1406.16 1568.39 Q1403.07 1567.85 1399.63 1566.74 L1399.63 1560.69 Q1402.88 1562.38 1406.03 1563.24 Q1409.18 1564.07 1412.27 1564.07 Q1416.41 1564.07 1418.63 1562.66 Q1420.86 1561.23 1420.86 1558.65 Q1420.86 1556.27 1419.24 1554.99 Q1417.65 1553.72 1412.2 1552.54 L1410.17 1552.07 Q1404.72 1550.92 1402.31 1548.56 Q1399.89 1546.18 1399.89 1542.04 Q1399.89 1537.01 1403.45 1534.27 Q1407.02 1531.54 1413.57 1531.54 Q1416.82 1531.54 1419.68 1532.01 Q1422.55 1532.49 1424.97 1533.45 Z" fill="#000000" fill-rule="nonzero" fill-opacity="1" /><path clip-path="url(#clip140)" d="M1449.89 1518.52 L1449.89 1576.64 L1436.39 1576.64 L1436.39 1572.09 L1444 1572.09 L1444 1523.07 L1436.39 1523.07 L1436.39 1518.52 L1449.89 1518.52 Z" fill="#000000" fill-rule="nonzero" fill-opacity="1" /><polyline clip-path="url(#clip140)" style="stroke:#000000; stroke-linecap:round; stroke-linejoin:round; stroke-width:4; stroke-opacity:1; fill:none" points="287.366,1423.18 287.366,47.2441 "/>
<polyline clip-path="url(#clip140)" style="stroke:#000000; stroke-linecap:round; stroke-linejoin:round; stroke-width:4; stroke-opacity:1; fill:none" points="287.366,1291.65 306.264,1291.65 "/>
<polyline clip-path="url(#clip140)" style="stroke:#000000; stroke-linecap:round; stroke-linejoin:round; stroke-width:4; stroke-opacity:1; fill:none" points="287.366,1105.9 306.264,1105.9 "/>
<polyline clip-path="url(#clip140)" style="stroke:#000000; stroke-linecap:round; stroke-linejoin:round; stroke-width:4; stroke-opacity:1; fill:none" points="287.366,920.155 306.264,920.155 "/>
<polyline clip-path="url(#clip140)" style="stroke:#000000; stroke-linecap:round; stroke-linejoin:round; stroke-width:4; stroke-opacity:1; fill:none" points="287.366,734.408 306.264,734.408 "/>
<polyline clip-path="url(#clip140)" style="stroke:#000000; stroke-linecap:round; stroke-linejoin:round; stroke-width:4; stroke-opacity:1; fill:none" points="287.366,548.66 306.264,548.66 "/>
<polyline clip-path="url(#clip140)" style="stroke:#000000; stroke-linecap:round; stroke-linejoin:round; stroke-width:4; stroke-opacity:1; fill:none" points="287.366,362.913 306.264,362.913 "/>
<polyline clip-path="url(#clip140)" style="stroke:#000000; stroke-linecap:round; stroke-linejoin:round; stroke-width:4; stroke-opacity:1; fill:none" points="287.366,177.166 306.264,177.166 "/>
<path clip-path="url(#clip140)" d="M115.256 1292.1 L144.931 1292.1 L144.931 1296.04 L115.256 1296.04 L115.256 1292.1 Z" fill="#000000" fill-rule="nonzero" fill-opacity="1" /><path clip-path="url(#clip140)" d="M165.024 1277.45 Q161.413 1277.45 159.584 1281.01 Q157.778 1284.56 157.778 1291.68 Q157.778 1298.79 159.584 1302.36 Q161.413 1305.9 165.024 1305.9 Q168.658 1305.9 170.464 1302.36 Q172.292 1298.79 172.292 1291.68 Q172.292 1284.56 170.464 1281.01 Q168.658 1277.45 165.024 1277.45 M165.024 1273.74 Q170.834 1273.74 173.889 1278.35 Q176.968 1282.93 176.968 1291.68 Q176.968 1300.41 173.889 1305.02 Q170.834 1309.6 165.024 1309.6 Q159.214 1309.6 156.135 1305.02 Q153.079 1300.41 153.079 1291.68 Q153.079 1282.93 156.135 1278.35 Q159.214 1273.74 165.024 1273.74 Z" fill="#000000" fill-rule="nonzero" fill-opacity="1" /><path clip-path="url(#clip140)" d="M185.186 1303.05 L190.07 1303.05 L190.07 1308.93 L185.186 1308.93 L185.186 1303.05 Z" fill="#000000" fill-rule="nonzero" fill-opacity="1" /><path clip-path="url(#clip140)" d="M201.065 1304.99 L208.704 1304.99 L208.704 1278.63 L200.394 1280.3 L200.394 1276.04 L208.658 1274.37 L213.334 1274.37 L213.334 1304.99 L220.973 1304.99 L220.973 1308.93 L201.065 1308.93 L201.065 1304.99 Z" fill="#000000" fill-rule="nonzero" fill-opacity="1" /><path clip-path="url(#clip140)" d="M230.463 1274.37 L248.82 1274.37 L248.82 1278.31 L234.746 1278.31 L234.746 1286.78 Q235.764 1286.43 236.783 1286.27 Q237.801 1286.08 238.82 1286.08 Q244.607 1286.08 247.986 1289.25 Q251.366 1292.43 251.366 1297.84 Q251.366 1303.42 247.894 1306.52 Q244.421 1309.6 238.102 1309.6 Q235.926 1309.6 233.658 1309.23 Q231.412 1308.86 229.005 1308.12 L229.005 1303.42 Q231.088 1304.55 233.31 1305.11 Q235.533 1305.67 238.009 1305.67 Q242.014 1305.67 244.352 1303.56 Q246.69 1301.45 246.69 1297.84 Q246.69 1294.23 244.352 1292.12 Q242.014 1290.02 238.009 1290.02 Q236.135 1290.02 234.26 1290.43 Q232.408 1290.85 230.463 1291.73 L230.463 1274.37 Z" fill="#000000" fill-rule="nonzero" fill-opacity="1" /><path clip-path="url(#clip140)" d="M114.26 1106.35 L143.936 1106.35 L143.936 1110.29 L114.26 1110.29 L114.26 1106.35 Z" fill="#000000" fill-rule="nonzero" fill-opacity="1" /><path clip-path="url(#clip140)" d="M164.028 1091.7 Q160.417 1091.7 158.589 1095.27 Q156.783 1098.81 156.783 1105.94 Q156.783 1113.04 158.589 1116.61 Q160.417 1120.15 164.028 1120.15 Q167.663 1120.15 169.468 1116.61 Q171.297 1113.04 171.297 1105.94 Q171.297 1098.81 169.468 1095.27 Q167.663 1091.7 164.028 1091.7 M164.028 1088 Q169.839 1088 172.894 1092.6 Q175.973 1097.19 175.973 1105.94 Q175.973 1114.66 172.894 1119.27 Q169.839 1123.85 164.028 1123.85 Q158.218 1123.85 155.14 1119.27 Q152.084 1114.66 152.084 1105.94 Q152.084 1097.19 155.14 1092.6 Q158.218 1088 164.028 1088 Z" fill="#000000" fill-rule="nonzero" fill-opacity="1" /><path clip-path="url(#clip140)" d="M184.19 1117.3 L189.075 1117.3 L189.075 1123.18 L184.19 1123.18 L184.19 1117.3 Z" fill="#000000" fill-rule="nonzero" fill-opacity="1" /><path clip-path="url(#clip140)" d="M200.07 1119.25 L207.709 1119.25 L207.709 1092.88 L199.399 1094.55 L199.399 1090.29 L207.662 1088.62 L212.338 1088.62 L212.338 1119.25 L219.977 1119.25 L219.977 1123.18 L200.07 1123.18 L200.07 1119.25 Z" fill="#000000" fill-rule="nonzero" fill-opacity="1" /><path clip-path="url(#clip140)" d="M239.422 1091.7 Q235.81 1091.7 233.982 1095.27 Q232.176 1098.81 232.176 1105.94 Q232.176 1113.04 233.982 1116.61 Q235.81 1120.15 239.422 1120.15 Q243.056 1120.15 244.861 1116.61 Q246.69 1113.04 246.69 1105.94 Q246.69 1098.81 244.861 1095.27 Q243.056 1091.7 239.422 1091.7 M239.422 1088 Q245.232 1088 248.287 1092.6 Q251.366 1097.19 251.366 1105.94 Q251.366 1114.66 248.287 1119.27 Q245.232 1123.85 239.422 1123.85 Q233.611 1123.85 230.533 1119.27 Q227.477 1114.66 227.477 1105.94 Q227.477 1097.19 230.533 1092.6 Q233.611 1088 239.422 1088 Z" fill="#000000" fill-rule="nonzero" fill-opacity="1" /><path clip-path="url(#clip140)" d="M115.256 920.606 L144.931 920.606 L144.931 924.542 L115.256 924.542 L115.256 920.606 Z" fill="#000000" fill-rule="nonzero" fill-opacity="1" /><path clip-path="url(#clip140)" d="M165.024 905.954 Q161.413 905.954 159.584 909.519 Q157.778 913.06 157.778 920.19 Q157.778 927.296 159.584 930.861 Q161.413 934.403 165.024 934.403 Q168.658 934.403 170.464 930.861 Q172.292 927.296 172.292 920.19 Q172.292 913.06 170.464 909.519 Q168.658 905.954 165.024 905.954 M165.024 902.25 Q170.834 902.25 173.889 906.857 Q176.968 911.44 176.968 920.19 Q176.968 928.917 173.889 933.523 Q170.834 938.106 165.024 938.106 Q159.214 938.106 156.135 933.523 Q153.079 928.917 153.079 920.19 Q153.079 911.44 156.135 906.857 Q159.214 902.25 165.024 902.25 Z" fill="#000000" fill-rule="nonzero" fill-opacity="1" /><path clip-path="url(#clip140)" d="M185.186 931.556 L190.07 931.556 L190.07 937.435 L185.186 937.435 L185.186 931.556 Z" fill="#000000" fill-rule="nonzero" fill-opacity="1" /><path clip-path="url(#clip140)" d="M210.255 905.954 Q206.644 905.954 204.815 909.519 Q203.01 913.06 203.01 920.19 Q203.01 927.296 204.815 930.861 Q206.644 934.403 210.255 934.403 Q213.889 934.403 215.695 930.861 Q217.523 927.296 217.523 920.19 Q217.523 913.06 215.695 909.519 Q213.889 905.954 210.255 905.954 M210.255 902.25 Q216.065 902.25 219.121 906.857 Q222.199 911.44 222.199 920.19 Q222.199 928.917 219.121 933.523 Q216.065 938.106 210.255 938.106 Q204.445 938.106 201.366 933.523 Q198.311 928.917 198.311 920.19 Q198.311 911.44 201.366 906.857 Q204.445 902.25 210.255 902.25 Z" fill="#000000" fill-rule="nonzero" fill-opacity="1" /><path clip-path="url(#clip140)" d="M230.463 902.875 L248.82 902.875 L248.82 906.81 L234.746 906.81 L234.746 915.282 Q235.764 914.935 236.783 914.773 Q237.801 914.588 238.82 914.588 Q244.607 914.588 247.986 917.759 Q251.366 920.931 251.366 926.347 Q251.366 931.926 247.894 935.028 Q244.421 938.106 238.102 938.106 Q235.926 938.106 233.658 937.736 Q231.412 937.366 229.005 936.625 L229.005 931.926 Q231.088 933.06 233.31 933.616 Q235.533 934.171 238.009 934.171 Q242.014 934.171 244.352 932.065 Q246.69 929.958 246.69 926.347 Q246.69 922.736 244.352 920.63 Q242.014 918.523 238.009 918.523 Q236.135 918.523 234.26 918.94 Q232.408 919.357 230.463 920.236 L230.463 902.875 Z" fill="#000000" fill-rule="nonzero" fill-opacity="1" /><path clip-path="url(#clip140)" d="M164.028 720.206 Q160.417 720.206 158.589 723.771 Q156.783 727.313 156.783 734.442 Q156.783 741.549 158.589 745.114 Q160.417 748.655 164.028 748.655 Q167.663 748.655 169.468 745.114 Q171.297 741.549 171.297 734.442 Q171.297 727.313 169.468 723.771 Q167.663 720.206 164.028 720.206 M164.028 716.503 Q169.839 716.503 172.894 721.109 Q175.973 725.692 175.973 734.442 Q175.973 743.169 172.894 747.776 Q169.839 752.359 164.028 752.359 Q158.218 752.359 155.14 747.776 Q152.084 743.169 152.084 734.442 Q152.084 725.692 155.14 721.109 Q158.218 716.503 164.028 716.503 Z" fill="#000000" fill-rule="nonzero" fill-opacity="1" /><path clip-path="url(#clip140)" d="M184.19 745.808 L189.075 745.808 L189.075 751.688 L184.19 751.688 L184.19 745.808 Z" fill="#000000" fill-rule="nonzero" fill-opacity="1" /><path clip-path="url(#clip140)" d="M209.26 720.206 Q205.649 720.206 203.82 723.771 Q202.014 727.313 202.014 734.442 Q202.014 741.549 203.82 745.114 Q205.649 748.655 209.26 748.655 Q212.894 748.655 214.699 745.114 Q216.528 741.549 216.528 734.442 Q216.528 727.313 214.699 723.771 Q212.894 720.206 209.26 720.206 M209.26 716.503 Q215.07 716.503 218.125 721.109 Q221.204 725.692 221.204 734.442 Q221.204 743.169 218.125 747.776 Q215.07 752.359 209.26 752.359 Q203.449 752.359 200.371 747.776 Q197.315 743.169 197.315 734.442 Q197.315 725.692 200.371 721.109 Q203.449 716.503 209.26 716.503 Z" fill="#000000" fill-rule="nonzero" fill-opacity="1" /><path clip-path="url(#clip140)" d="M239.422 720.206 Q235.81 720.206 233.982 723.771 Q232.176 727.313 232.176 734.442 Q232.176 741.549 233.982 745.114 Q235.81 748.655 239.422 748.655 Q243.056 748.655 244.861 745.114 Q246.69 741.549 246.69 734.442 Q246.69 727.313 244.861 723.771 Q243.056 720.206 239.422 720.206 M239.422 716.503 Q245.232 716.503 248.287 721.109 Q251.366 725.692 251.366 734.442 Q251.366 743.169 248.287 747.776 Q245.232 752.359 239.422 752.359 Q233.611 752.359 230.533 747.776 Q227.477 743.169 227.477 734.442 Q227.477 725.692 230.533 721.109 Q233.611 716.503 239.422 716.503 Z" fill="#000000" fill-rule="nonzero" fill-opacity="1" /><path clip-path="url(#clip140)" d="M165.024 534.459 Q161.413 534.459 159.584 538.024 Q157.778 541.565 157.778 548.695 Q157.778 555.802 159.584 559.366 Q161.413 562.908 165.024 562.908 Q168.658 562.908 170.464 559.366 Q172.292 555.802 172.292 548.695 Q172.292 541.565 170.464 538.024 Q168.658 534.459 165.024 534.459 M165.024 530.755 Q170.834 530.755 173.889 535.362 Q176.968 539.945 176.968 548.695 Q176.968 557.422 173.889 562.028 Q170.834 566.612 165.024 566.612 Q159.214 566.612 156.135 562.028 Q153.079 557.422 153.079 548.695 Q153.079 539.945 156.135 535.362 Q159.214 530.755 165.024 530.755 Z" fill="#000000" fill-rule="nonzero" fill-opacity="1" /><path clip-path="url(#clip140)" d="M185.186 560.061 L190.07 560.061 L190.07 565.94 L185.186 565.94 L185.186 560.061 Z" fill="#000000" fill-rule="nonzero" fill-opacity="1" /><path clip-path="url(#clip140)" d="M210.255 534.459 Q206.644 534.459 204.815 538.024 Q203.01 541.565 203.01 548.695 Q203.01 555.802 204.815 559.366 Q206.644 562.908 210.255 562.908 Q213.889 562.908 215.695 559.366 Q217.523 555.802 217.523 548.695 Q217.523 541.565 215.695 538.024 Q213.889 534.459 210.255 534.459 M210.255 530.755 Q216.065 530.755 219.121 535.362 Q222.199 539.945 222.199 548.695 Q222.199 557.422 219.121 562.028 Q216.065 566.612 210.255 566.612 Q204.445 566.612 201.366 562.028 Q198.311 557.422 198.311 548.695 Q198.311 539.945 201.366 535.362 Q204.445 530.755 210.255 530.755 Z" fill="#000000" fill-rule="nonzero" fill-opacity="1" /><path clip-path="url(#clip140)" d="M230.463 531.38 L248.82 531.38 L248.82 535.316 L234.746 535.316 L234.746 543.788 Q235.764 543.44 236.783 543.278 Q237.801 543.093 238.82 543.093 Q244.607 543.093 247.986 546.265 Q251.366 549.436 251.366 554.852 Q251.366 560.431 247.894 563.533 Q244.421 566.612 238.102 566.612 Q235.926 566.612 233.658 566.241 Q231.412 565.871 229.005 565.13 L229.005 560.431 Q231.088 561.565 233.31 562.121 Q235.533 562.676 238.009 562.676 Q242.014 562.676 244.352 560.57 Q246.69 558.464 246.69 554.852 Q246.69 551.241 244.352 549.135 Q242.014 547.028 238.009 547.028 Q236.135 547.028 234.26 547.445 Q232.408 547.862 230.463 548.741 L230.463 531.38 Z" fill="#000000" fill-rule="nonzero" fill-opacity="1" /><path clip-path="url(#clip140)" d="M164.028 348.712 Q160.417 348.712 158.589 352.276 Q156.783 355.818 156.783 362.948 Q156.783 370.054 158.589 373.619 Q160.417 377.161 164.028 377.161 Q167.663 377.161 169.468 373.619 Q171.297 370.054 171.297 362.948 Q171.297 355.818 169.468 352.276 Q167.663 348.712 164.028 348.712 M164.028 345.008 Q169.839 345.008 172.894 349.614 Q175.973 354.198 175.973 362.948 Q175.973 371.674 172.894 376.281 Q169.839 380.864 164.028 380.864 Q158.218 380.864 155.14 376.281 Q152.084 371.674 152.084 362.948 Q152.084 354.198 155.14 349.614 Q158.218 345.008 164.028 345.008 Z" fill="#000000" fill-rule="nonzero" fill-opacity="1" /><path clip-path="url(#clip140)" d="M184.19 374.313 L189.075 374.313 L189.075 380.193 L184.19 380.193 L184.19 374.313 Z" fill="#000000" fill-rule="nonzero" fill-opacity="1" /><path clip-path="url(#clip140)" d="M200.07 376.258 L207.709 376.258 L207.709 349.892 L199.399 351.559 L199.399 347.3 L207.662 345.633 L212.338 345.633 L212.338 376.258 L219.977 376.258 L219.977 380.193 L200.07 380.193 L200.07 376.258 Z" fill="#000000" fill-rule="nonzero" fill-opacity="1" /><path clip-path="url(#clip140)" d="M239.422 348.712 Q235.81 348.712 233.982 352.276 Q232.176 355.818 232.176 362.948 Q232.176 370.054 233.982 373.619 Q235.81 377.161 239.422 377.161 Q243.056 377.161 244.861 373.619 Q246.69 370.054 246.69 362.948 Q246.69 355.818 244.861 352.276 Q243.056 348.712 239.422 348.712 M239.422 345.008 Q245.232 345.008 248.287 349.614 Q251.366 354.198 251.366 362.948 Q251.366 371.674 248.287 376.281 Q245.232 380.864 239.422 380.864 Q233.611 380.864 230.533 376.281 Q227.477 371.674 227.477 362.948 Q227.477 354.198 230.533 349.614 Q233.611 345.008 239.422 345.008 Z" fill="#000000" fill-rule="nonzero" fill-opacity="1" /><path clip-path="url(#clip140)" d="M165.024 162.964 Q161.413 162.964 159.584 166.529 Q157.778 170.071 157.778 177.2 Q157.778 184.307 159.584 187.872 Q161.413 191.413 165.024 191.413 Q168.658 191.413 170.464 187.872 Q172.292 184.307 172.292 177.2 Q172.292 170.071 170.464 166.529 Q168.658 162.964 165.024 162.964 M165.024 159.261 Q170.834 159.261 173.889 163.867 Q176.968 168.45 176.968 177.2 Q176.968 185.927 173.889 190.534 Q170.834 195.117 165.024 195.117 Q159.214 195.117 156.135 190.534 Q153.079 185.927 153.079 177.2 Q153.079 168.45 156.135 163.867 Q159.214 159.261 165.024 159.261 Z" fill="#000000" fill-rule="nonzero" fill-opacity="1" /><path clip-path="url(#clip140)" d="M185.186 188.566 L190.07 188.566 L190.07 194.446 L185.186 194.446 L185.186 188.566 Z" fill="#000000" fill-rule="nonzero" fill-opacity="1" /><path clip-path="url(#clip140)" d="M201.065 190.51 L208.704 190.51 L208.704 164.145 L200.394 165.811 L200.394 161.552 L208.658 159.886 L213.334 159.886 L213.334 190.51 L220.973 190.51 L220.973 194.446 L201.065 194.446 L201.065 190.51 Z" fill="#000000" fill-rule="nonzero" fill-opacity="1" /><path clip-path="url(#clip140)" d="M230.463 159.886 L248.82 159.886 L248.82 163.821 L234.746 163.821 L234.746 172.293 Q235.764 171.946 236.783 171.784 Q237.801 171.598 238.82 171.598 Q244.607 171.598 247.986 174.77 Q251.366 177.941 251.366 183.358 Q251.366 188.936 247.894 192.038 Q244.421 195.117 238.102 195.117 Q235.926 195.117 233.658 194.746 Q231.412 194.376 229.005 193.635 L229.005 188.936 Q231.088 190.071 233.31 190.626 Q235.533 191.182 238.009 191.182 Q242.014 191.182 244.352 189.075 Q246.69 186.969 246.69 183.358 Q246.69 179.747 244.352 177.64 Q242.014 175.534 238.009 175.534 Q236.135 175.534 234.26 175.95 Q232.408 176.367 230.463 177.247 L230.463 159.886 Z" fill="#000000" fill-rule="nonzero" fill-opacity="1" /><path clip-path="url(#clip140)" d="M20.8447 823.791 Q20.8447 830.793 26.0645 834.931 Q31.2844 839.037 40.2919 839.037 Q49.2675 839.037 54.4874 834.931 Q59.7073 830.793 59.7073 823.791 Q59.7073 816.788 54.4874 812.714 Q49.2675 808.609 40.2919 808.609 Q31.2844 808.609 26.0645 812.714 Q20.8447 816.788 20.8447 823.791 M15.6248 823.791 Q15.6248 813.797 22.3406 807.813 Q29.0246 801.829 40.2919 801.829 Q51.5274 801.829 58.2432 807.813 Q64.9272 813.797 64.9272 823.791 Q64.9272 833.817 58.2432 839.832 Q51.5592 845.816 40.2919 845.816 Q29.0246 845.816 22.3406 839.832 Q15.6248 833.817 15.6248 823.791 Z" fill="#000000" fill-rule="nonzero" fill-opacity="1" /><path clip-path="url(#clip140)" d="M49.9359 792.631 L28.3562 792.631 L28.3562 786.774 L49.7131 786.774 Q54.7739 786.774 57.3202 784.801 Q59.8346 782.827 59.8346 778.881 Q59.8346 774.138 56.8109 771.401 Q53.7872 768.632 48.5673 768.632 L28.3562 768.632 L28.3562 762.775 L64.0042 762.775 L64.0042 768.632 L58.5296 768.632 Q61.7762 770.764 63.3676 773.597 Q64.9272 776.398 64.9272 780.122 Q64.9272 786.265 61.1078 789.448 Q57.2883 792.631 49.9359 792.631 M27.4968 777.894 L27.4968 777.894 Z" fill="#000000" fill-rule="nonzero" fill-opacity="1" /><path clip-path="url(#clip140)" d="M18.2347 744.92 L28.3562 744.92 L28.3562 732.857 L32.9077 732.857 L32.9077 744.92 L52.2594 744.92 Q56.6199 744.92 57.8613 743.742 Q59.1026 742.533 59.1026 738.872 L59.1026 732.857 L64.0042 732.857 L64.0042 738.872 Q64.0042 745.652 61.4897 748.23 Q58.9434 750.808 52.2594 750.808 L32.9077 750.808 L32.9077 755.105 L28.3562 755.105 L28.3562 750.808 L18.2347 750.808 L18.2347 744.92 Z" fill="#000000" fill-rule="nonzero" fill-opacity="1" /><path clip-path="url(#clip140)" d="M58.657 719.489 L77.5631 719.489 L77.5631 725.377 L28.3562 725.377 L28.3562 719.489 L33.7671 719.489 Q30.5842 717.643 29.0564 714.842 Q27.4968 712.009 27.4968 708.094 Q27.4968 701.601 32.6531 697.559 Q37.8093 693.485 46.212 693.485 Q54.6147 693.485 59.771 697.559 Q64.9272 701.601 64.9272 708.094 Q64.9272 712.009 63.3994 714.842 Q61.8398 717.643 58.657 719.489 M46.212 699.564 Q39.7508 699.564 36.0905 702.238 Q32.3984 704.879 32.3984 709.526 Q32.3984 714.173 36.0905 716.847 Q39.7508 719.489 46.212 719.489 Q52.6732 719.489 56.3653 716.847 Q60.0256 714.173 60.0256 709.526 Q60.0256 704.879 56.3653 702.238 Q52.6732 699.564 46.212 699.564 Z" fill="#000000" fill-rule="nonzero" fill-opacity="1" /><path clip-path="url(#clip140)" d="M49.9359 684.382 L28.3562 684.382 L28.3562 678.525 L49.7131 678.525 Q54.7739 678.525 57.3202 676.552 Q59.8346 674.579 59.8346 670.632 Q59.8346 665.889 56.8109 663.152 Q53.7872 660.383 48.5673 660.383 L28.3562 660.383 L28.3562 654.527 L64.0042 654.527 L64.0042 660.383 L58.5296 660.383 Q61.7762 662.516 63.3676 665.348 Q64.9272 668.149 64.9272 671.873 Q64.9272 678.016 61.1078 681.199 Q57.2883 684.382 49.9359 684.382 M27.4968 669.645 L27.4968 669.645 Z" fill="#000000" fill-rule="nonzero" fill-opacity="1" /><path clip-path="url(#clip140)" d="M18.2347 636.671 L28.3562 636.671 L28.3562 624.608 L32.9077 624.608 L32.9077 636.671 L52.2594 636.671 Q56.6199 636.671 57.8613 635.493 Q59.1026 634.284 59.1026 630.623 L59.1026 624.608 L64.0042 624.608 L64.0042 630.623 Q64.0042 637.403 61.4897 639.981 Q58.9434 642.559 52.2594 642.559 L32.9077 642.559 L32.9077 646.856 L28.3562 646.856 L28.3562 642.559 L18.2347 642.559 L18.2347 636.671 Z" fill="#000000" fill-rule="nonzero" fill-opacity="1" /><polyline clip-path="url(#clip142)" style="stroke:#009af9; stroke-linecap:round; stroke-linejoin:round; stroke-width:4; stroke-opacity:1; fill:none" points="345.82,734.408 349.725,734.408 353.63,734.408 353.63,771.128 357.535,771.128 357.535,806.766 361.439,806.766 361.439,841.01 365.344,841.01 365.344,873.581 369.249,873.581 369.249,904.235 373.154,904.235 373.154,932.772 377.059,932.772 377.059,959.037 380.963,959.037 380.963,982.919 384.868,982.919 384.868,1004.35 388.773,1004.35 388.773,1023.32 392.678,1023.32 392.678,1039.86 396.582,1039.86 396.582,1054.03 400.487,1054.03 400.487,1065.95 404.392,1065.95 404.392,1075.77 408.297,1075.77 408.297,1083.68 412.201,1083.68 412.201,1089.89 416.106,1089.89 416.106,1094.64 420.011,1094.64 420.011,1098.18 423.916,1098.18 423.916,1100.79 427.821,1100.79 427.821,1102.74 431.725,1102.74 431.725,1104.31 435.63,1104.31 435.63,1105.77 439.535,1105.77 439.535,1107.39 443.44,1107.39 443.44,1109.43 447.344,1109.43 447.344,1112.11 451.249,1112.11 451.249,1042.21 455.154,1042.21 455.154,975.523 459.059,975.523 459.059,912.82 462.963,912.82 462.963,854.79 466.868,854.79 466.868,802.011 470.773,802.011 470.773,754.942 474.678,754.942 474.678,713.923 478.583,713.923 478.583,679.168 482.487,679.168 482.487,650.765 486.392,650.765 486.392,628.681 490.297,628.681 490.297,612.76 494.202,612.76 494.202,602.736 498.106,602.736 498.106,598.239 502.011,598.239 502.011,598.803 505.916,598.803 505.916,603.883 509.821,603.883 509.821,612.862 513.726,612.862 513.726,625.07 517.63,625.07 517.63,639.797 521.535,639.797 521.535,656.309 525.44,656.309 525.44,673.861 529.345,673.861 529.345,765.153 533.249,765.153 533.249,853.862 537.154,853.862 537.154,938.676 541.059,938.676 541.059,1018.39 544.964,1018.39 544.964,1091.95 548.868,1091.95 548.868,1158.42 552.773,1158.42 552.773,1217.06 556.678,1217.06 556.678,1267.27 560.583,1267.27 560.583,1308.66 564.488,1308.66 564.488,1341 568.392,1341 568.392,1364.26 572.297,1364.26 572.297,1378.57 576.202,1378.57 576.202,1384.24 580.107,1384.24 580.107,1381.73 584.011,1381.73 584.011,1371.64 587.916,1371.64 587.916,1281.28 591.821,1281.28 591.821,1187.09 595.726,1187.09 595.726,1090.63 599.631,1090.63 599.631,993.459 603.535,993.459 603.535,897.12 607.44,897.12 607.44,876.524 611.345,876.524 611.345,857.462 615.25,857.462 615.25,840.588 619.154,840.588 619.154,826.493 623.059,826.493 623.059,815.693 626.964,815.693 626.964,735.18 630.869,735.18 630.869,660.898 634.773,660.898 634.773,593.724 638.678,593.724 638.678,534.371 642.583,534.371 642.583,483.381 646.488,483.381 646.488,441.119 650.393,441.119 650.393,407.773 654.297,407.773 654.297,383.352 658.202,383.352 658.202,367.695 662.107,367.695 662.107,360.476 666.012,360.476 666.012,361.216 669.916,361.216 669.916,369.298 673.821,369.298 673.821,383.982 677.726,383.982 677.726,404.424 681.631,404.424 681.631,429.696 685.535,429.696 685.535,458.804 689.44,458.804 689.44,490.713 693.345,490.713 693.345,524.366 697.25,524.366 697.25,558.708 701.155,558.708 701.155,592.703 705.059,592.703 705.059,625.357 708.964,625.357 708.964,655.735 712.869,655.735 712.869,682.978 716.774,682.978 716.774,706.316 720.678,706.316 720.678,725.083 724.583,725.083 724.583,738.726 728.488,738.726 728.488,746.811 732.393,746.811 732.393,749.031 736.298,749.031 736.298,745.205 740.202,745.205 740.202,735.28 744.107,735.28 744.107,719.328 748.012,719.328 748.012,697.541 751.917,697.541 751.917,670.22 755.821,670.22 755.821,637.773 759.726,637.773 759.726,600.696 763.631,600.696 763.631,633.009 767.536,633.009 767.536,659.748 771.44,659.748 771.44,680.983 775.345,680.983 775.345,696.883 779.25,696.883 779.25,707.715 783.155,707.715 783.155,640.391 787.06,640.391 787.06,570.947 790.964,570.947 790.964,500.507 794.869,500.507 794.869,430.184 798.774,430.184 798.774,361.06 802.679,361.06 802.679,367.605 806.583,367.605 806.583,375.173 810.488,375.173 810.488,384.007 814.393,384.007 814.393,394.316 818.298,394.316 818.298,406.268 822.202,406.268 822.202,346.55 826.107,346.55 826.107,290.85 830.012,290.85 830.012,239.834 833.917,239.834 833.917,194.062 837.822,194.062 837.822,153.973 841.726,153.973 841.726,193.329 845.631,193.329 845.631,236.72 849.536,236.72 849.536,283.592 853.441,283.592 853.441,333.333 857.345,333.333 857.345,385.29 861.25,385.29 861.25,365.341 865.155,365.341 865.155,348.391 869.06,348.391 869.06,334.372 872.965,334.372 872.965,323.16 876.869,323.16 876.869,314.584 880.774,314.584 880.774,381.868 884.679,381.868 884.679,449.156 888.584,449.156 888.584,515.536 892.488,515.536 892.488,580.139 896.393,580.139 896.393,642.151 900.298,642.151 900.298,700.829 904.203,700.829 904.203,755.514 908.107,755.514 908.107,805.641 912.012,805.641 912.012,850.747 915.917,850.747 915.917,890.479 919.822,890.479 919.822,851.154 923.727,851.154 923.727,808.248 927.631,808.248 927.631,762.371 931.536,762.371 931.536,714.179 935.441,714.179 935.441,664.354 939.346,664.354 939.346,613.597 943.25,613.597 943.25,562.606 947.155,562.606 947.155,512.07 951.06,512.07 951.06,462.65 954.965,462.65 954.965,414.968 958.87,414.968 958.87,443.038 962.774,443.038 962.774,471.77 966.679,471.77 966.679,500.986 970.584,500.986 970.584,530.499 974.489,530.499 974.489,560.116 978.393,560.116 978.393,589.646 982.298,589.646 982.298,618.9 986.203,618.9 986.203,647.697 990.108,647.697 990.108,675.866 994.012,675.866 994.012,703.25 997.917,703.25 997.917,729.708 1001.82,729.708 1001.82,755.118 1005.73,755.118 1005.73,779.378 1009.63,779.378 1009.63,802.408 1013.54,802.408 1013.54,824.152 1017.44,824.152 1017.44,844.575 1021.35,844.575 1021.35,863.669 1025.25,863.669 1025.25,881.445 1029.16,881.445 1029.16,897.94 1033.06,897.94 1033.06,913.208 1036.96,913.208 1036.96,853.885 1040.87,853.885 1040.87,795.665 1044.77,795.665 1044.77,739.281 1048.68,739.281 1048.68,685.411 1052.58,685.411 1052.58,634.667 1056.49,634.667 1056.49,587.586 1060.39,587.586 1060.39,544.621 1064.3,544.621 1064.3,506.132 1068.2,506.132 1068.2,472.386 1072.11,472.386 1072.11,443.552 1076.01,443.552 1076.01,419.702 1079.92,419.702 1079.92,400.808 1083.82,400.808 1083.82,386.752 1087.73,386.752 1087.73,377.327 1091.63,377.327 1091.63,372.243 1095.54,372.243 1095.54,371.138 1099.44,371.138 1099.44,373.587 1103.35,373.587 1103.35,379.107 1107.25,379.107 1107.25,387.175 1111.16,387.175 1111.16,397.237 1115.06,397.237 1115.06,408.718 1118.97,408.718 1118.97,421.035 1122.87,421.035 1122.87,433.61 1126.77,433.61 1126.77,445.879 1130.68,445.879 1130.68,457.306 1134.58,457.306 1134.58,467.386 1138.49,467.386 1138.49,475.664 1142.39,475.664 1142.39,481.733 1146.3,481.733 1146.3,485.246 1150.2,485.246 1150.2,485.918 1154.11,485.918 1154.11,556.973 1158.01,556.973 1158.01,622.66 1161.92,622.66 1161.92,682.277 1165.82,682.277 1165.82,735.256 1169.73,735.256 1169.73,781.174 1173.63,781.174 1173.63,746.315 1177.54,746.315 1177.54,706.153 1181.44,706.153 1181.44,661.333 1185.35,661.333 1185.35,612.573 1189.25,612.573 1189.25,560.654 1193.16,560.654 1193.16,579.835 1197.06,579.835 1197.06,595.358 1200.97,595.358 1200.97,607.451 1204.87,607.451 1204.87,616.398 1208.77,616.398 1208.77,622.532 1212.68,622.532 1212.68,626.227 1216.58,626.227 1216.58,627.89 1220.49,627.89 1220.49,627.953 1224.39,627.953 1224.39,626.862 1228.3,626.862 1228.3,625.068 1232.2,625.068 1232.2,549.579 1236.11,549.579 1236.11,476.433 1240.01,476.433 1240.01,406.673 1243.92,406.673 1243.92,341.246 1247.82,341.246 1247.82,280.987 1251.73,280.987 1251.73,300.051 1255.63,300.051 1255.63,323.415 1259.54,323.415 1259.54,350.892 1263.44,350.892 1263.44,382.216 1267.35,382.216 1267.35,417.05 1271.25,417.05 1271.25,454.993 1275.16,454.993 1275.16,495.592 1279.06,495.592 1279.06,538.349 1282.97,538.349 1282.97,582.737 1286.87,582.737 1286.87,628.208 1290.78,628.208 1290.78,674.205 1294.68,674.205 1294.68,720.173 1298.58,720.173 1298.58,765.571 1302.49,765.571 1302.49,809.881 1306.39,809.881 1306.39,852.619 1310.3,852.619 1310.3,819.901 1314.2,819.901 1314.2,786.938 1318.11,786.938 1318.11,754.018 1322.01,754.018 1322.01,721.421 1325.92,721.421 1325.92,689.419 1329.82,689.419 1329.82,731.706 1333.73,731.706 1333.73,772.912 1337.63,772.912 1337.63,812.623 1341.54,812.623 1341.54,850.458 1345.44,850.458 1345.44,886.086 1349.35,886.086 1349.35,919.221 1353.25,919.221 1353.25,949.635 1357.16,949.635 1357.16,977.153 1361.06,977.153 1361.06,1001.66 1364.97,1001.66 1364.97,1023.11 1368.87,1023.11 1368.87,1041.49 1372.78,1041.49 1372.78,1056.87 1376.68,1056.87 1376.68,1069.36 1380.58,1069.36 1380.58,1079.13 1384.49,1079.13 1384.49,1086.39 1388.39,1086.39 1388.39,1091.38 1392.3,1091.38 1392.3,1094.4 1396.2,1094.4 1396.2,1095.74 1400.11,1095.74 1400.11,1095.75 1404.01,1095.75 1404.01,1094.77 1407.92,1094.77 1407.92,1019.7 1411.82,1019.7 1411.82,946.509 1415.73,946.509 1415.73,876.159 1419.63,876.159 1419.63,809.538 1423.54,809.538 1423.54,747.439 1427.44,747.439 1427.44,763.987 1431.35,763.987 1431.35,784.144 1435.25,784.144 1435.25,807.723 1439.16,807.723 1439.16,834.473 1443.06,834.473 1443.06,864.086 1446.97,864.086 1446.97,822.761 1450.87,822.761 1450.87,785.7 1454.78,785.7 1454.78,753.097 1458.68,753.097 1458.68,725.052 1462.59,725.052 1462.59,701.581 1466.49,701.581 1466.49,682.611 1470.39,682.611 1470.39,667.986 1474.3,667.986 1474.3,657.475 1478.2,657.475 1478.2,650.776 1482.11,650.776 1482.11,647.526 1486.01,647.526 1486.01,720.745 1489.92,720.745 1489.92,794.371 1493.82,794.371 1493.82,867.283 1497.73,867.283 1497.73,938.405 1501.63,938.405 1501.63,1006.73 1505.54,1006.73 1505.54,997.875 1509.44,997.875 1509.44,986.622 1513.35,986.622 1513.35,972.871 1517.25,972.871 1517.25,956.581 1521.16,956.581 1521.16,937.768 1525.06,937.768 1525.06,916.499 1528.97,916.499 1528.97,892.89 1532.87,892.89 1532.87,867.107 1536.78,867.107 1536.78,839.354 1540.68,839.354 1540.68,809.874 1544.59,809.874 1544.59,778.938 1548.49,778.938 1548.49,746.843 1552.39,746.843 1552.39,713.902 1556.3,713.902 1556.3,680.442 1560.2,680.442 1560.2,646.79 1564.11,646.79 1564.11,686.713 1568.01,686.713 1568.01,724.925 1571.92,724.925 1571.92,761.103 1575.82,761.103 1575.82,794.97 1579.73,794.97 1579.73,826.299 1583.63,826.299 1583.63,781.475 1587.54,781.475 1587.54,735.982 1591.44,735.982 1591.44,690.383 1595.35,690.383 1595.35,645.228 1599.25,645.228 1599.25,601.046 1603.16,601.046 1603.16,558.334 1607.06,558.334 1607.06,517.551 1610.97,517.551 1610.97,479.106 1614.87,479.106 1614.87,443.353 1618.78,443.353 1618.78,410.588 1622.68,410.588 1622.68,381.041 1626.59,381.041 1626.59,354.874 1630.49,354.874 1630.49,332.185 1634.4,332.185 1634.4,312.999 1638.3,312.999 1638.3,297.278 1642.2,297.278 1642.2,358.36 1646.11,358.36 1646.11,420.477 1650.01,420.477 1650.01,482.785 1653.92,482.785 1653.92,544.459 1657.82,544.459 1657.82,604.705 1661.73,604.705 1661.73,589.336 1665.63,589.336 1665.63,573.271 1669.54,573.271 1669.54,556.523 1673.44,556.523 1673.44,539.121 1677.35,539.121 1677.35,521.109 1681.25,521.109 1681.25,502.546 1685.16,502.546 1685.16,483.501 1689.06,483.501 1689.06,464.056 1692.97,464.056 1692.97,444.3 1696.87,444.3 1696.87,424.33 1700.78,424.33 1700.78,477.685 1704.68,477.685 1704.68,528.865 1708.59,528.865 1708.59,577.347 1712.49,577.347 1712.49,622.673 1716.4,622.673 1716.4,664.456 1720.3,664.456 1720.3,702.386 1724.2,702.386 1724.2,736.234 1728.11,736.234 1728.11,765.855 1732.01,765.855 1732.01,791.185 1735.92,791.185 1735.92,812.245 1739.82,812.245 1739.82,755.695 1743.73,755.695 1743.73,697.311 1747.63,697.311 1747.63,637.964 1751.54,637.964 1751.54,578.521 1755.44,578.521 1755.44,519.827 1759.35,519.827 1759.35,536.131 1763.25,536.131 1763.25,552.589 1767.16,552.589 1767.16,569.267 1771.06,569.267 1771.06,586.224 1774.97,586.224 1774.97,603.506 1778.87,603.506 1778.87,547.707 1782.78,547.707 1782.78,494.455 1786.68,494.455 1786.68,444.384 1790.59,444.384 1790.59,398.054 1794.49,398.054 1794.49,355.935 1798.4,355.935 1798.4,391.847 1802.3,391.847 1802.3,430.465 1806.2,430.465 1806.2,471.343 1810.11,471.343 1810.11,514 1814.01,514 1814.01,557.928 1817.92,557.928 1817.92,602.608 1821.82,602.608 1821.82,647.516 1825.73,647.516 1825.73,692.137 1829.63,692.137 1829.63,735.97 1833.54,735.97 1833.54,778.545 1837.44,778.545 1837.44,745.982 1841.35,745.982 1841.35,713.492 1845.25,713.492 1845.25,681.354 1849.16,681.354 1849.16,649.836 1853.06,649.836 1853.06,619.191 1856.97,619.191 1856.97,589.648 1860.87,589.648 1860.87,561.413 1864.78,561.413 1864.78,534.664 1868.68,534.664 1868.68,509.547 1872.59,509.547 1872.59,486.174 1876.49,486.174 1876.49,464.625 1880.4,464.625 1880.4,444.942 1884.3,444.942 1884.3,427.136 1888.21,427.136 1888.21,411.181 1892.11,411.181 1892.11,397.019 1896.01,397.019 1896.01,458.003 1899.92,458.003 1899.92,518.415 1903.82,518.415 1903.82,577.486 1907.73,577.486 1907.73,634.498 1911.63,634.498 1911.63,688.786 1915.54,688.786 1915.54,666.317 1919.44,666.317 1919.44,642.179 1923.35,642.179 1923.35,616.568 1927.25,616.568 1927.25,589.71 1931.16,589.71 1931.16,561.847 1935.06,561.847 1935.06,606.682 1938.97,606.682 1938.97,648.88 1942.87,648.88 1942.87,688.092 1946.78,688.092 1946.78,724.031 1950.68,724.031 1950.68,756.482 1954.59,756.482 1954.59,785.298 1958.49,785.298 1958.49,810.407 1962.4,810.407 1962.4,831.805 1966.3,831.805 1966.3,849.561 1970.21,849.561 1970.21,863.806 1974.11,863.806 1974.11,874.735 1978.01,874.735 1978.01,882.598 1981.92,882.598 1981.92,887.694 1985.82,887.694 1985.82,890.365 1989.73,890.365 1989.73,890.986 1993.63,890.986 1993.63,889.958 1997.54,889.958 1997.54,887.699 2001.44,887.699 2001.44,884.635 2005.35,884.635 2005.35,881.193 2009.25,881.193 2009.25,877.791 2013.16,877.791 2013.16,874.829 2017.06,874.829 2017.06,872.685 2020.97,872.685 2020.97,871.706 2024.87,871.706 2024.87,872.203 2028.78,872.203 2028.78,874.443 2032.68,874.443 2032.68,878.651 2036.59,878.651 2036.59,885.001 2040.49,885.001 2040.49,893.618 2044.4,893.618 2044.4,904.576 2048.3,904.576 2048.3,917.895 2052.21,917.895 2052.21,860.108 2056.11,860.108 2056.11,806.742 2060.02,806.742 2060.02,758.3 2063.92,758.3 2063.92,715.18 2067.82,715.18 2067.82,677.664 2071.73,677.664 2071.73,719.363 2075.63,719.363 2075.63,764.727 2079.54,764.727 2079.54,813.075 2083.44,813.075 2083.44,863.681 2087.35,863.681 2087.35,915.795 2091.25,915.795 2091.25,968.655 2095.16,968.655 2095.16,1021.5 2099.06,1021.5 2099.06,1073.61 2102.97,1073.61 2102.97,1124.26 2106.87,1124.26 2106.87,1172.8 2110.78,1172.8 2110.78,1145.2 2114.68,1145.2 2114.68,1116.52 2118.59,1116.52 2118.59,1086.94 2122.49,1086.94 2122.49,1056.64 2126.4,1056.64 2126.4,1025.83 2130.3,1025.83 2130.3,994.703 2134.21,994.703 2134.21,963.486 2138.11,963.486 2138.11,932.387 2142.02,932.387 2142.02,901.614 2145.92,901.614 2145.92,871.366 2149.82,871.366 2149.82,841.83 2153.73,841.83 2153.73,813.177 2157.63,813.177 2157.63,785.561 2161.54,785.561 2161.54,759.113 2165.44,759.113 2165.44,733.941 2169.35,733.941 2169.35,783.571 2173.25,783.571 2173.25,832.456 2177.16,832.456 2177.16,880.005 2181.06,880.005 2181.06,925.665 2184.97,925.665 2184.97,968.932 2188.87,968.932 2188.87,935.924 2192.78,935.924 2192.78,901.865 2196.68,901.865 2196.68,867.074 2200.59,867.074 2200.59,831.876 2204.49,831.876 2204.49,796.603 2208.4,796.603 2208.4,761.577 2212.3,761.577 2212.3,727.114 2216.21,727.114 2216.21,693.509 2220.11,693.509 2220.11,661.039 2224.02,661.039 2224.02,629.951 2227.92,629.951 2227.92,673.903 2231.83,673.903 2231.83,717.474 2235.73,717.474 2235.73,760.185 2239.63,760.185 2239.63,801.583 2243.54,801.583 2243.54,841.252 2247.44,841.252 2247.44,878.819 2251.35,878.819 2251.35,913.958 2255.25,913.958 2255.25,946.398 2259.16,946.398 2259.16,975.926 2263.06,975.926 2263.06,1002.39 2266.97,1002.39 2266.97,952.255 2270.87,952.255 2270.87,901.096 2274.78,901.096 2274.78,849.568 2278.68,849.568 2278.68,798.318 2282.59,798.318 2282.59,747.972 2286.49,747.972 2286.49,772.565 2290.4,772.565 2290.4,797.042 2294.3,797.042 2294.3,821.276 "/>
<polyline clip-path="url(#clip142)" style="stroke:#e26f46; stroke-linecap:round; stroke-linejoin:round; stroke-width:4; stroke-opacity:1; fill:none" points="345.82,742.846 349.725,393.621 353.63,435.03 357.535,485.714 361.439,536.124 365.344,585.718 369.249,634.192 373.154,681.27 377.059,726.698 380.963,770.246 384.868,811.706 388.773,850.897 392.678,887.659 396.582,921.858 400.487,953.385 404.392,982.151 408.297,1008.09 412.201,1031.17 416.106,1051.36 420.011,1068.66 423.916,1083.09 427.821,1094.7 431.725,1103.54 435.63,1109.67 439.535,1113.19 443.44,1114.2 447.344,1113.44 451.249,1037.48 455.154,961.093 459.059,886.533 462.963,814.259 466.868,744.654 470.773,678.064 474.678,614.8 478.583,555.133 482.487,499.297 486.392,447.491 490.297,399.873 494.202,356.569 498.106,317.668 502.011,283.224 505.916,253.26 509.821,227.766 513.726,206.701 517.63,189.999 521.535,177.565 525.44,168.655 529.345,236.67 533.249,306.813 537.154,376.797 541.059,446.111 544.964,514.315 548.868,580.999 552.773,645.78 556.678,708.309 560.583,768.267 564.488,825.369 568.392,879.363 572.297,930.029 576.202,977.182 580.107,1020.67 584.011,1060.99 587.916,1024.52 591.821,985.826 595.726,946.993 599.631,908.332 603.535,869.473 607.44,904.197 611.345,938.094 615.25,969.264 619.154,997.584 623.059,1023.62 626.964,973.797 630.869,922.736 634.773,872.554 638.678,823.59 642.583,776.121 646.488,730.398 650.393,686.649 654.297,645.079 658.202,605.865 662.107,569.162 666.012,535.101 669.916,503.787 673.821,475.303 677.726,449.707 681.631,427.036 685.535,407.304 689.44,390.506 693.345,376.616 697.25,365.591 701.155,357.368 705.059,351.87 708.964,349.005 712.869,348.666 716.774,350.735 720.678,355.084 724.583,361.574 728.488,370.059 732.393,380.386 736.298,392.397 740.202,405.931 744.107,420.821 748.012,436.904 751.917,454.011 755.821,471.978 759.726,490.017 763.631,581.51 767.536,671.664 771.44,758.223 775.345,840.727 779.25,919.432 783.155,920.476 787.06,918.221 790.964,914.548 794.869,909.591 798.774,902.821 802.679,967.878 806.583,1030.23 810.488,1087.87 814.393,1140.59 818.298,1188.89 822.202,1159.14 826.107,1125.95 830.012,1091.39 833.917,1055.82 837.822,1018.9 841.726,1054.45 845.631,1088.12 849.536,1118.04 853.441,1144.17 857.345,1167.12 861.25,1113.38 865.155,1057.64 869.06,1002.08 872.965,947.116 876.869,892.468 880.774,911.999 884.679,931.374 888.584,948.76 892.488,964.092 896.393,977.363 900.298,988.58 904.203,997.767 908.107,1004.96 912.012,1010.19 915.917,1014.16 919.822,943.387 923.727,872.582 927.631,803.937 931.536,737.857 935.441,674.671 939.346,614.671 943.25,558.113 947.155,505.218 951.06,456.172 954.965,410.5 958.87,441.859 962.774,475.697 966.679,509.957 970.584,544.345 974.489,578.619 978.393,612.553 982.298,645.93 986.203,678.551 990.108,710.23 994.012,740.795 997.917,770.093 1001.82,797.984 1005.73,824.345 1009.63,849.071 1013.54,872.07 1017.44,893.268 1021.35,912.608 1025.25,930.045 1029.16,945.553 1033.06,959.742 1036.96,899.072 1040.87,838.19 1044.77,779.229 1048.68,722.54 1052.58,668.401 1056.49,617.06 1060.39,568.732 1064.3,523.603 1068.2,481.826 1072.11,443.528 1076.01,408.801 1079.92,377.713 1083.82,350.302 1087.73,326.578 1091.63,306.528 1095.54,290.112 1099.44,277.269 1103.35,267.917 1107.25,261.952 1111.16,259.254 1115.06,259.685 1118.97,263.093 1122.87,269.313 1126.77,278.169 1130.68,289.474 1134.58,303.036 1138.49,318.653 1142.39,336.123 1146.3,355.237 1150.2,375.164 1154.11,469.234 1158.01,562.608 1161.92,652.975 1165.82,739.822 1169.73,823.35 1173.63,829.64 1177.54,832.999 1181.44,835.253 1185.35,836.479 1189.25,836.095 1193.16,907.688 1197.06,976.672 1200.97,1040.99 1204.87,1100.4 1208.77,1154.71 1212.68,1203.81 1216.58,1247.6 1220.49,1286.05 1224.39,1319.15 1228.3,1347.54 1232.2,1297.76 1236.11,1244.54 1240.01,1190.1 1243.92,1134.93 1247.82,1078.81 1251.73,1095.66 1255.63,1111.24 1259.54,1123.79 1263.44,1133.32 1267.35,1139.92 1271.25,1143.67 1275.16,1144.7 1279.06,1143.11 1282.97,1139.06 1286.87,1132.67 1290.78,1124.11 1294.68,1113.54 1298.58,1101.13 1302.49,1087.05 1306.39,1072.09 1310.3,982.905 1314.2,894.294 1318.11,808.543 1322.01,726.142 1325.92,646.868 1329.82,644.619 1333.73,645.071 1337.63,646.384 1341.54,648.467 1345.44,651.268 1349.35,654.734 1353.25,658.81 1357.16,663.438 1361.06,668.561 1364.97,674.12 1368.87,680.058 1372.78,686.314 1376.68,692.832 1380.58,699.555 1384.49,706.427 1388.39,713.395 1392.3,720.406 1396.2,727.411 1400.11,734.361 1404.01,741.838 1407.92,676.258 1411.82,612.217 1415.73,551.785 1419.63,495.243 1423.54,442.166 1427.44,466.258 1431.35,493.009 1435.25,520.403 1439.16,548.181 1443.06,576.758 1446.97,532.396 1450.87,489.541 1454.78,450.119 1458.68,414.278 1462.59,382.091 1466.49,353.602 1470.39,328.831 1474.3,307.767 1478.2,290.378 1482.11,275.982 1486.01,338.042 1489.92,401.824 1493.82,465.103 1497.73,527.432 1501.63,589.055 1505.54,576.08 1509.44,562.817 1513.35,551.079 1517.25,540.915 1521.16,532.319 1525.06,525.276 1528.97,519.758 1532.87,515.732 1536.78,513.153 1540.68,511.97 1544.59,512.125 1548.49,513.552 1552.39,516.181 1556.3,519.937 1560.2,524.116 1564.11,602.177 1568.01,679.4 1571.92,753.591 1575.82,824.348 1579.73,891.978 1583.63,882.661 1587.54,870.797 1591.44,858.296 1595.35,845.313 1599.25,831.963 1603.16,818.352 1607.06,804.586 1610.97,790.767 1614.87,776.99 1618.78,763.348 1622.68,749.926 1626.59,736.806 1630.49,724.063 1634.4,711.765 1638.3,699.35 1642.2,760.415 1646.11,820.376 1650.01,877.168 1653.92,930.515 1657.82,980.842 1661.73,954.443 1665.63,925.823 1669.54,896.989 1673.44,868.189 1677.35,839.62 1681.25,811.464 1685.16,783.894 1689.06,757.068 1692.97,731.134 1696.87,705.602 1700.78,754.132 1704.68,802.199 1708.59,847.787 1712.49,890.665 1716.4,930.668 1720.3,967.661 1724.2,1001.54 1728.11,1032.21 1732.01,1059.63 1735.92,1084.39 1739.82,1032.93 1743.73,979.915 1747.63,927.48 1751.54,875.997 1755.44,825.148 1759.35,848.755 1763.25,872.442 1767.16,894.336 1771.06,914.331 1774.97,933.006 1778.87,876.789 1782.78,820.3 1786.68,765.645 1790.59,713.149 1794.49,662.442 1798.4,687.293 1802.3,713.263 1806.2,738.413 1810.11,762.571 1814.01,785.618 1817.92,807.451 1821.82,827.979 1825.73,847.124 1829.63,864.821 1833.54,881.646 1837.44,824.016 1841.35,766.54 1845.25,711.311 1849.16,658.638 1853.06,608.759 1856.97,561.88 1860.87,518.177 1864.78,477.796 1868.68,440.853 1872.59,407.437 1876.49,377.605 1880.4,351.391 1884.3,328.8 1888.21,309.814 1892.11,293.764 1896.01,354.128 1899.92,416.185 1903.82,477.725 1907.73,538.31 1911.63,598.2 1915.54,583.511 1919.44,568.566 1923.35,555.187 1927.25,543.432 1931.16,532.679 1935.06,596.462 1938.97,660.126 1942.87,721.536 1946.78,780.339 1950.68,836.259 1954.59,889.053 1958.49,938.511 1962.4,984.455 1966.3,1026.74 1970.21,1065.25 1974.11,1099.91 1978.01,1130.66 1981.92,1157.48 1985.82,1180.38 1989.73,1199.39 1993.63,1214.55 1997.54,1225.96 2001.44,1233.71 2005.35,1237.93 2009.25,1238.76 2013.16,1236.34 2017.06,1230.86 2020.97,1222.49 2024.87,1211.43 2028.78,1197.89 2032.68,1182.07 2036.59,1164.2 2040.49,1144.48 2044.4,1123.14 2048.3,1101.04 2052.21,1004.84 2056.11,909.404 2060.02,817.053 2063.92,728.308 2067.82,642.977 2071.73,634.987 2075.63,630.037 2079.54,626.308 2083.44,623.726 2087.35,622.253 2091.25,621.846 2095.16,622.456 2099.06,624.032 2102.97,626.516 2106.87,630.474 2110.78,562.299 2114.68,496.563 2118.59,435.304 2122.49,378.766 2126.4,327.111 2130.3,280.457 2134.21,238.884 2138.11,202.431 2142.02,171.103 2145.92,144.869 2149.82,123.665 2153.73,107.394 2157.63,95.9333 2161.54,89.1306 2165.44,86.1857 2169.35,160.442 2173.25,237.047 2177.16,313.66 2181.06,389.717 2184.97,465.352 2188.87,466.561 2192.78,467.553 2196.68,470.038 2200.59,473.97 2204.49,479.254 2208.4,485.79 2212.3,493.473 2216.21,502.197 2220.11,511.852 2224.02,521.705 2227.92,605.185 2231.83,687.548 2235.73,766.579 2239.63,841.857 2243.54,913.049 2247.44,979.863 2251.35,1042.06 2255.25,1099.42 2259.16,1151.8 2263.06,1199.7 2266.97,1169.5 2270.87,1135.8 2274.78,1100.7 2278.68,1064.54 2282.59,1027.01 2286.49,1061.92 2290.4,1094.93 2294.3,1124.18 "/>
<polyline clip-path="url(#clip142)" style="stroke:#3da44d; stroke-linecap:round; stroke-linejoin:round; stroke-width:4; stroke-opacity:1; fill:none" points="345.82,734.408 349.725,734.408 353.63,771.128 357.535,806.766 361.439,841.01 365.344,873.581 369.249,904.235 373.154,932.772 377.059,959.037 380.963,982.919 384.868,1004.35 388.773,1023.32 392.678,1039.86 396.582,1054.03 400.487,1065.95 404.392,1075.77 408.297,1083.68 412.201,1089.89 416.106,1094.64 420.011,1098.18 423.916,1100.79 427.821,1102.74 431.725,1104.31 435.63,1105.77 439.535,1107.39 443.44,1109.43 447.344,1112.11 451.249,1042.21 455.154,975.523 459.059,912.82 462.963,854.79 466.868,802.011 470.773,754.942 474.678,713.923 478.583,679.168 482.487,650.765 486.392,628.681 490.297,612.76 494.202,602.736 498.106,598.239 502.011,598.803 505.916,603.883 509.821,612.862 513.726,625.07 517.63,639.797 521.535,656.309 525.44,673.861 529.345,765.153 533.249,853.862 537.154,938.676 541.059,1018.39 544.964,1091.95 548.868,1158.42 552.773,1217.06 556.678,1267.27 560.583,1308.66 564.488,1341 568.392,1364.26 572.297,1378.57 576.202,1384.24 580.107,1381.73 584.011,1371.64 587.916,1281.28 591.821,1187.09 595.726,1090.63 599.631,993.459 603.535,897.12 607.44,876.524 611.345,857.462 615.25,840.588 619.154,826.493 623.059,815.693 626.964,735.18 630.869,660.898 634.773,593.724 638.678,534.371 642.583,483.381 646.488,441.119 650.393,407.773 654.297,383.352 658.202,367.695 662.107,360.476 666.012,361.216 669.916,369.298 673.821,383.982 677.726,404.424 681.631,429.696 685.535,458.804 689.44,490.713 693.345,524.366 697.25,558.708 701.155,592.703 705.059,625.357 708.964,655.735 712.869,682.978 716.774,706.316 720.678,725.083 724.583,738.726 728.488,746.811 732.393,749.031 736.298,745.205 740.202,735.28 744.107,719.328 748.012,697.541 751.917,670.22 755.821,637.773 759.726,600.696 763.631,633.009 767.536,659.748 771.44,680.983 775.345,696.883 779.25,707.715 783.155,640.391 787.06,570.947 790.964,500.507 794.869,430.184 798.774,361.06 802.679,367.605 806.583,375.173 810.488,384.007 814.393,394.316 818.298,406.268 822.202,346.55 826.107,290.85 830.012,239.834 833.917,194.062 837.822,153.973 841.726,193.329 845.631,236.72 849.536,283.592 853.441,333.333 857.345,385.29 861.25,365.341 865.155,348.391 869.06,334.372 872.965,323.16 876.869,314.584 880.774,381.868 884.679,449.156 888.584,515.536 892.488,580.139 896.393,642.151 900.298,700.829 904.203,755.514 908.107,805.641 912.012,850.747 915.917,890.479 919.822,851.154 923.727,808.248 927.631,762.371 931.536,714.179 935.441,664.354 939.346,613.597 943.25,562.606 947.155,512.07 951.06,462.65 954.965,414.968 958.87,443.038 962.774,471.77 966.679,500.986 970.584,530.499 974.489,560.116 978.393,589.646 982.298,618.9 986.203,647.697 990.108,675.866 994.012,703.25 997.917,729.708 1001.82,755.118 1005.73,779.378 1009.63,802.408 1013.54,824.152 1017.44,844.575 1021.35,863.669 1025.25,881.445 1029.16,897.94 1033.06,913.208 1036.96,853.885 1040.87,795.665 1044.77,739.281 1048.68,685.411 1052.58,634.667 1056.49,587.586 1060.39,544.621 1064.3,506.132 1068.2,472.386 1072.11,443.552 1076.01,419.702 1079.92,400.808 1083.82,386.752 1087.73,377.327 1091.63,372.243 1095.54,371.138 1099.44,373.587 1103.35,379.107 1107.25,387.175 1111.16,397.237 1115.06,408.718 1118.97,421.035 1122.87,433.61 1126.77,445.879 1130.68,457.306 1134.58,467.386 1138.49,475.664 1142.39,481.733 1146.3,485.246 1150.2,485.918 1154.11,556.973 1158.01,622.66 1161.92,682.277 1165.82,735.256 1169.73,781.174 1173.63,746.315 1177.54,706.153 1181.44,661.333 1185.35,612.573 1189.25,560.654 1193.16,579.835 1197.06,595.358 1200.97,607.451 1204.87,616.398 1208.77,622.532 1212.68,626.227 1216.58,627.89 1220.49,627.953 1224.39,626.862 1228.3,625.068 1232.2,549.579 1236.11,476.433 1240.01,406.673 1243.92,341.246 1247.82,280.987 1251.73,300.051 1255.63,323.415 1259.54,350.892 1263.44,382.216 1267.35,417.05 1271.25,454.993 1275.16,495.592 1279.06,538.349 1282.97,582.737 1286.87,628.208 1290.78,674.205 1294.68,720.173 1298.58,765.571 1302.49,809.881 1306.39,852.619 1310.3,819.901 1314.2,786.938 1318.11,754.018 1322.01,721.421 1325.92,689.419 1329.82,731.706 1333.73,772.912 1337.63,812.623 1341.54,850.458 1345.44,886.086 1349.35,919.221 1353.25,949.635 1357.16,977.153 1361.06,1001.66 1364.97,1023.11 1368.87,1041.49 1372.78,1056.87 1376.68,1069.36 1380.58,1079.13 1384.49,1086.39 1388.39,1091.38 1392.3,1094.4 1396.2,1095.74 1400.11,1095.75 1404.01,1094.77 1407.92,1019.7 1411.82,946.509 1415.73,876.159 1419.63,809.538 1423.54,747.439 1427.44,763.987 1431.35,784.144 1435.25,807.723 1439.16,834.473 1443.06,864.086 1446.97,822.761 1450.87,785.7 1454.78,753.097 1458.68,725.052 1462.59,701.581 1466.49,682.611 1470.39,667.986 1474.3,657.475 1478.2,650.776 1482.11,647.526 1486.01,720.745 1489.92,794.371 1493.82,867.283 1497.73,938.405 1501.63,1006.73 1505.54,997.875 1509.44,986.622 1513.35,972.871 1517.25,956.581 1521.16,937.768 1525.06,916.499 1528.97,892.89 1532.87,867.107 1536.78,839.354 1540.68,809.874 1544.59,778.938 1548.49,746.843 1552.39,713.902 1556.3,680.442 1560.2,646.79 1564.11,686.713 1568.01,724.925 1571.92,761.103 1575.82,794.97 1579.73,826.299 1583.63,781.475 1587.54,735.982 1591.44,690.383 1595.35,645.228 1599.25,601.046 1603.16,558.334 1607.06,517.551 1610.97,479.106 1614.87,443.353 1618.78,410.588 1622.68,381.041 1626.59,354.874 1630.49,332.185 1634.4,312.999 1638.3,297.278 1642.2,358.36 1646.11,420.477 1650.01,482.785 1653.92,544.459 1657.82,604.705 1661.73,589.336 1665.63,573.271 1669.54,556.523 1673.44,539.121 1677.35,521.109 1681.25,502.546 1685.16,483.501 1689.06,464.056 1692.97,444.3 1696.87,424.33 1700.78,477.685 1704.68,528.865 1708.59,577.347 1712.49,622.673 1716.4,664.456 1720.3,702.386 1724.2,736.234 1728.11,765.855 1732.01,791.185 1735.92,812.245 1739.82,755.695 1743.73,697.311 1747.63,637.964 1751.54,578.521 1755.44,519.827 1759.35,536.131 1763.25,552.589 1767.16,569.267 1771.06,586.224 1774.97,603.506 1778.87,547.707 1782.78,494.455 1786.68,444.384 1790.59,398.054 1794.49,355.935 1798.4,391.847 1802.3,430.465 1806.2,471.343 1810.11,514 1814.01,557.928 1817.92,602.608 1821.82,647.516 1825.73,692.137 1829.63,735.97 1833.54,778.545 1837.44,745.982 1841.35,713.492 1845.25,681.354 1849.16,649.836 1853.06,619.191 1856.97,589.648 1860.87,561.413 1864.78,534.664 1868.68,509.547 1872.59,486.174 1876.49,464.625 1880.4,444.942 1884.3,427.136 1888.21,411.181 1892.11,397.019 1896.01,458.003 1899.92,518.415 1903.82,577.486 1907.73,634.498 1911.63,688.786 1915.54,666.317 1919.44,642.179 1923.35,616.568 1927.25,589.71 1931.16,561.847 1935.06,606.682 1938.97,648.88 1942.87,688.092 1946.78,724.031 1950.68,756.482 1954.59,785.298 1958.49,810.407 1962.4,831.805 1966.3,849.561 1970.21,863.806 1974.11,874.735 1978.01,882.598 1981.92,887.694 1985.82,890.365 1989.73,890.986 1993.63,889.958 1997.54,887.699 2001.44,884.635 2005.35,881.193 2009.25,877.791 2013.16,874.829 2017.06,872.685 2020.97,871.706 2024.87,872.203 2028.78,874.443 2032.68,878.651 2036.59,885.001 2040.49,893.618 2044.4,904.576 2048.3,917.895 2052.21,860.108 2056.11,806.742 2060.02,758.3 2063.92,715.18 2067.82,677.664 2071.73,719.363 2075.63,764.727 2079.54,813.075 2083.44,863.681 2087.35,915.795 2091.25,968.655 2095.16,1021.5 2099.06,1073.61 2102.97,1124.26 2106.87,1172.8 2110.78,1145.2 2114.68,1116.52 2118.59,1086.94 2122.49,1056.64 2126.4,1025.83 2130.3,994.703 2134.21,963.486 2138.11,932.387 2142.02,901.614 2145.92,871.366 2149.82,841.83 2153.73,813.177 2157.63,785.561 2161.54,759.113 2165.44,733.941 2169.35,783.571 2173.25,832.456 2177.16,880.005 2181.06,925.665 2184.97,968.932 2188.87,935.924 2192.78,901.865 2196.68,867.074 2200.59,831.876 2204.49,796.603 2208.4,761.577 2212.3,727.114 2216.21,693.509 2220.11,661.039 2224.02,629.951 2227.92,673.903 2231.83,717.474 2235.73,760.185 2239.63,801.583 2243.54,841.252 2247.44,878.819 2251.35,913.958 2255.25,946.398 2259.16,975.926 2263.06,1002.39 2266.97,952.255 2270.87,901.096 2274.78,849.568 2278.68,798.318 2282.59,747.972 2286.49,772.565 2290.4,797.042 2294.3,821.276 "/>
<path clip-path="url(#clip140)" d="M1170.06 300.469 L2283.91 300.469 L2283.91 93.1086 L1170.06 93.1086  Z" fill="#ffffff" fill-rule="evenodd" fill-opacity="1"/>
<polyline clip-path="url(#clip140)" style="stroke:#000000; stroke-linecap:round; stroke-linejoin:round; stroke-width:4; stroke-opacity:1; fill:none" points="1170.06,300.469 2283.91,300.469 2283.91,93.1086 1170.06,93.1086 1170.06,300.469 "/>
<polyline clip-path="url(#clip140)" style="stroke:#009af9; stroke-linecap:round; stroke-linejoin:round; stroke-width:4; stroke-opacity:1; fill:none" points="1193.01,144.949 1330.7,144.949 "/>
<path clip-path="url(#clip140)" d="M1358.33 131.511 L1358.33 158.386 L1363.97 158.386 Q1371.13 158.386 1374.44 155.145 Q1377.77 151.905 1377.77 144.914 Q1377.77 137.969 1374.44 134.752 Q1371.13 131.511 1363.97 131.511 L1358.33 131.511 M1353.65 127.669 L1363.26 127.669 Q1373.3 127.669 1378 131.858 Q1382.7 136.025 1382.7 144.914 Q1382.7 153.849 1377.98 158.039 Q1373.26 162.229 1363.26 162.229 L1353.65 162.229 L1353.65 127.669 Z" fill="#000000" fill-rule="nonzero" fill-opacity="1" /><path clip-path="url(#clip140)" d="M1401.75 149.196 Q1396.59 149.196 1394.6 150.377 Q1392.61 151.557 1392.61 154.405 Q1392.61 156.673 1394.09 158.016 Q1395.6 159.335 1398.16 159.335 Q1401.71 159.335 1403.84 156.835 Q1405.99 154.312 1405.99 150.145 L1405.99 149.196 L1401.75 149.196 M1410.25 147.437 L1410.25 162.229 L1405.99 162.229 L1405.99 158.293 Q1404.53 160.655 1402.35 161.789 Q1400.18 162.9 1397.03 162.9 Q1393.05 162.9 1390.69 160.678 Q1388.35 158.432 1388.35 154.682 Q1388.35 150.307 1391.27 148.085 Q1394.21 145.863 1400.02 145.863 L1405.99 145.863 L1405.99 145.446 Q1405.99 142.507 1404.04 140.909 Q1402.12 139.289 1398.63 139.289 Q1396.41 139.289 1394.3 139.821 Q1392.19 140.354 1390.25 141.419 L1390.25 137.483 Q1392.59 136.581 1394.78 136.141 Q1396.98 135.678 1399.07 135.678 Q1404.69 135.678 1407.47 138.594 Q1410.25 141.511 1410.25 147.437 Z" fill="#000000" fill-rule="nonzero" fill-opacity="1" /><path clip-path="url(#clip140)" d="M1423.23 128.942 L1423.23 136.303 L1432.01 136.303 L1432.01 139.613 L1423.23 139.613 L1423.23 153.687 Q1423.23 156.858 1424.09 157.761 Q1424.97 158.664 1427.63 158.664 L1432.01 158.664 L1432.01 162.229 L1427.63 162.229 Q1422.7 162.229 1420.83 160.4 Q1418.95 158.548 1418.95 153.687 L1418.95 139.613 L1415.83 139.613 L1415.83 136.303 L1418.95 136.303 L1418.95 128.942 L1423.23 128.942 Z" fill="#000000" fill-rule="nonzero" fill-opacity="1" /><path clip-path="url(#clip140)" d="M1449.39 149.196 Q1444.23 149.196 1442.24 150.377 Q1440.25 151.557 1440.25 154.405 Q1440.25 156.673 1441.73 158.016 Q1443.23 159.335 1445.8 159.335 Q1449.34 159.335 1451.47 156.835 Q1453.63 154.312 1453.63 150.145 L1453.63 149.196 L1449.39 149.196 M1457.89 147.437 L1457.89 162.229 L1453.63 162.229 L1453.63 158.293 Q1452.17 160.655 1449.99 161.789 Q1447.82 162.9 1444.67 162.9 Q1440.69 162.9 1438.33 160.678 Q1435.99 158.432 1435.99 154.682 Q1435.99 150.307 1438.91 148.085 Q1441.84 145.863 1447.65 145.863 L1453.63 145.863 L1453.63 145.446 Q1453.63 142.507 1451.68 140.909 Q1449.76 139.289 1446.27 139.289 Q1444.04 139.289 1441.94 139.821 Q1439.83 140.354 1437.89 141.419 L1437.89 137.483 Q1440.22 136.581 1442.42 136.141 Q1444.62 135.678 1446.71 135.678 Q1452.33 135.678 1455.11 138.594 Q1457.89 141.511 1457.89 147.437 Z" fill="#000000" fill-rule="nonzero" fill-opacity="1" /><polyline clip-path="url(#clip140)" style="stroke:#e26f46; stroke-linecap:round; stroke-linejoin:round; stroke-width:4; stroke-opacity:1; fill:none" points="1193.01,196.789 1330.7,196.789 "/>
<path clip-path="url(#clip140)" d="M1369.48 184.115 L1363.14 201.314 L1375.85 201.314 L1369.48 184.115 M1366.85 179.509 L1372.15 179.509 L1385.32 214.069 L1380.46 214.069 L1377.31 205.203 L1361.73 205.203 L1358.58 214.069 L1353.65 214.069 L1366.85 179.509 Z" fill="#000000" fill-rule="nonzero" fill-opacity="1" /><path clip-path="url(#clip140)" d="M1406.75 197.865 Q1408.26 198.374 1409.67 200.041 Q1411.1 201.708 1412.54 204.624 L1417.28 214.069 L1412.26 214.069 L1407.84 205.203 Q1406.13 201.731 1404.51 200.596 Q1402.91 199.462 1400.13 199.462 L1395.04 199.462 L1395.04 214.069 L1390.36 214.069 L1390.36 179.509 L1400.92 179.509 Q1406.85 179.509 1409.76 181.985 Q1412.68 184.462 1412.68 189.462 Q1412.68 192.726 1411.15 194.879 Q1409.65 197.032 1406.75 197.865 M1395.04 183.351 L1395.04 195.62 L1400.92 195.62 Q1404.3 195.62 1406.01 194.069 Q1407.75 192.495 1407.75 189.462 Q1407.75 186.43 1406.01 184.902 Q1404.3 183.351 1400.92 183.351 L1395.04 183.351 Z" fill="#000000" fill-rule="nonzero" fill-opacity="1" /><path clip-path="url(#clip140)" d="M1421.64 179.509 L1426.66 179.509 L1435.25 192.356 L1443.88 179.509 L1448.9 179.509 L1437.79 196.106 L1449.65 214.069 L1444.62 214.069 L1434.9 199.37 L1425.11 214.069 L1420.06 214.069 L1432.4 195.62 L1421.64 179.509 Z" fill="#000000" fill-rule="nonzero" fill-opacity="1" /><path clip-path="url(#clip140)" d="M1490.85 193.12 Q1492.45 190.249 1494.67 188.884 Q1496.89 187.518 1499.9 187.518 Q1503.95 187.518 1506.15 190.365 Q1508.35 193.189 1508.35 198.421 L1508.35 214.069 L1504.07 214.069 L1504.07 198.559 Q1504.07 194.833 1502.75 193.027 Q1501.43 191.222 1498.72 191.222 Q1495.41 191.222 1493.49 193.421 Q1491.57 195.62 1491.57 199.416 L1491.57 214.069 L1487.28 214.069 L1487.28 198.559 Q1487.28 194.809 1485.96 193.027 Q1484.65 191.222 1481.89 191.222 Q1478.63 191.222 1476.71 193.444 Q1474.78 195.643 1474.78 199.416 L1474.78 214.069 L1470.5 214.069 L1470.5 188.143 L1474.78 188.143 L1474.78 192.171 Q1476.24 189.786 1478.28 188.652 Q1480.32 187.518 1483.12 187.518 Q1485.94 187.518 1487.91 188.953 Q1489.9 190.388 1490.85 193.12 Z" fill="#000000" fill-rule="nonzero" fill-opacity="1" /><path clip-path="url(#clip140)" d="M1526.89 191.129 Q1523.46 191.129 1521.47 193.814 Q1519.48 196.476 1519.48 201.129 Q1519.48 205.782 1521.45 208.467 Q1523.44 211.129 1526.89 211.129 Q1530.29 211.129 1532.28 208.444 Q1534.27 205.758 1534.27 201.129 Q1534.27 196.522 1532.28 193.837 Q1530.29 191.129 1526.89 191.129 M1526.89 187.518 Q1532.45 187.518 1535.62 191.129 Q1538.79 194.74 1538.79 201.129 Q1538.79 207.495 1535.62 211.129 Q1532.45 214.74 1526.89 214.74 Q1521.31 214.74 1518.14 211.129 Q1514.99 207.495 1514.99 201.129 Q1514.99 194.74 1518.14 191.129 Q1521.31 187.518 1526.89 187.518 Z" fill="#000000" fill-rule="nonzero" fill-opacity="1" /><path clip-path="url(#clip140)" d="M1562.91 192.078 L1562.91 178.05 L1567.17 178.05 L1567.17 214.069 L1562.91 214.069 L1562.91 210.18 Q1561.57 212.495 1559.51 213.629 Q1557.47 214.74 1554.6 214.74 Q1549.9 214.74 1546.94 210.99 Q1544 207.24 1544 201.129 Q1544 195.018 1546.94 191.268 Q1549.9 187.518 1554.6 187.518 Q1557.47 187.518 1559.51 188.652 Q1561.57 189.763 1562.91 192.078 M1548.4 201.129 Q1548.4 205.828 1550.32 208.513 Q1552.26 211.175 1555.64 211.175 Q1559.02 211.175 1560.96 208.513 Q1562.91 205.828 1562.91 201.129 Q1562.91 196.43 1560.96 193.768 Q1559.02 191.083 1555.64 191.083 Q1552.26 191.083 1550.32 193.768 Q1548.4 196.43 1548.4 201.129 Z" fill="#000000" fill-rule="nonzero" fill-opacity="1" /><path clip-path="url(#clip140)" d="M1598.12 200.041 L1598.12 202.124 L1578.53 202.124 Q1578.81 206.522 1581.17 208.837 Q1583.56 211.129 1587.79 211.129 Q1590.25 211.129 1592.54 210.527 Q1594.85 209.925 1597.12 208.721 L1597.12 212.749 Q1594.83 213.721 1592.42 214.231 Q1590.02 214.74 1587.54 214.74 Q1581.33 214.74 1577.7 211.129 Q1574.09 207.518 1574.09 201.36 Q1574.09 194.995 1577.52 191.268 Q1580.96 187.518 1586.8 187.518 Q1592.03 187.518 1595.06 190.897 Q1598.12 194.254 1598.12 200.041 M1593.86 198.791 Q1593.81 195.296 1591.89 193.212 Q1589.99 191.129 1586.84 191.129 Q1583.28 191.129 1581.13 193.143 Q1579 195.157 1578.67 198.814 L1593.86 198.791 Z" fill="#000000" fill-rule="nonzero" fill-opacity="1" /><path clip-path="url(#clip140)" d="M1605.11 178.05 L1609.37 178.05 L1609.37 214.069 L1605.11 214.069 L1605.11 178.05 Z" fill="#000000" fill-rule="nonzero" fill-opacity="1" /><path clip-path="url(#clip140)" d="M1649.88 188.907 L1649.88 192.934 Q1648.07 192.009 1646.13 191.546 Q1644.18 191.083 1642.1 191.083 Q1638.93 191.083 1637.33 192.055 Q1635.76 193.027 1635.76 194.971 Q1635.76 196.453 1636.89 197.309 Q1638.02 198.143 1641.45 198.907 L1642.91 199.231 Q1647.45 200.203 1649.34 201.985 Q1651.26 203.745 1651.26 206.916 Q1651.26 210.527 1648.39 212.633 Q1645.55 214.74 1640.55 214.74 Q1638.46 214.74 1636.2 214.323 Q1633.95 213.93 1631.45 213.12 L1631.45 208.721 Q1633.81 209.948 1636.1 210.573 Q1638.39 211.175 1640.64 211.175 Q1643.65 211.175 1645.27 210.157 Q1646.89 209.115 1646.89 207.24 Q1646.89 205.504 1645.71 204.578 Q1644.55 203.652 1640.59 202.796 L1639.11 202.448 Q1635.15 201.615 1633.39 199.902 Q1631.64 198.166 1631.64 195.157 Q1631.64 191.499 1634.23 189.509 Q1636.82 187.518 1641.59 187.518 Q1643.95 187.518 1646.03 187.865 Q1648.12 188.212 1649.88 188.907 Z" fill="#000000" fill-rule="nonzero" fill-opacity="1" /><path clip-path="url(#clip140)" d="M1658.05 188.143 L1662.31 188.143 L1662.31 214.069 L1658.05 214.069 L1658.05 188.143 M1658.05 178.05 L1662.31 178.05 L1662.31 183.444 L1658.05 183.444 L1658.05 178.05 Z" fill="#000000" fill-rule="nonzero" fill-opacity="1" /><path clip-path="url(#clip140)" d="M1691.4 193.12 Q1693 190.249 1695.22 188.884 Q1697.45 187.518 1700.45 187.518 Q1704.51 187.518 1706.7 190.365 Q1708.9 193.189 1708.9 198.421 L1708.9 214.069 L1704.62 214.069 L1704.62 198.559 Q1704.62 194.833 1703.3 193.027 Q1701.98 191.222 1699.27 191.222 Q1695.96 191.222 1694.04 193.421 Q1692.12 195.62 1692.12 199.416 L1692.12 214.069 L1687.84 214.069 L1687.84 198.559 Q1687.84 194.809 1686.52 193.027 Q1685.2 191.222 1682.45 191.222 Q1679.18 191.222 1677.26 193.444 Q1675.34 195.643 1675.34 199.416 L1675.34 214.069 L1671.06 214.069 L1671.06 188.143 L1675.34 188.143 L1675.34 192.171 Q1676.8 189.786 1678.83 188.652 Q1680.87 187.518 1683.67 187.518 Q1686.5 187.518 1688.46 188.953 Q1690.45 190.388 1691.4 193.12 Z" fill="#000000" fill-rule="nonzero" fill-opacity="1" /><path clip-path="url(#clip140)" d="M1745.59 178.05 L1745.59 181.592 L1741.52 181.592 Q1739.23 181.592 1738.32 182.518 Q1737.45 183.444 1737.45 185.851 L1737.45 188.143 L1744.46 188.143 L1744.46 191.453 L1737.45 191.453 L1737.45 214.069 L1733.16 214.069 L1733.16 191.453 L1729.09 191.453 L1729.09 188.143 L1733.16 188.143 L1733.16 186.337 Q1733.16 182.009 1735.18 180.041 Q1737.19 178.05 1741.57 178.05 L1745.59 178.05 Z" fill="#000000" fill-rule="nonzero" fill-opacity="1" /><path clip-path="url(#clip140)" d="M1749.16 188.143 L1753.42 188.143 L1753.42 214.069 L1749.16 214.069 L1749.16 188.143 M1749.16 178.05 L1753.42 178.05 L1753.42 183.444 L1749.16 183.444 L1749.16 178.05 Z" fill="#000000" fill-rule="nonzero" fill-opacity="1" /><path clip-path="url(#clip140)" d="M1766.54 180.782 L1766.54 188.143 L1775.32 188.143 L1775.32 191.453 L1766.54 191.453 L1766.54 205.527 Q1766.54 208.698 1767.4 209.601 Q1768.28 210.504 1770.94 210.504 L1775.32 210.504 L1775.32 214.069 L1770.94 214.069 Q1766.01 214.069 1764.13 212.24 Q1762.26 210.388 1762.26 205.527 L1762.26 191.453 L1759.13 191.453 L1759.13 188.143 L1762.26 188.143 L1762.26 180.782 L1766.54 180.782 Z" fill="#000000" fill-rule="nonzero" fill-opacity="1" /><path clip-path="url(#clip140)" d="M1812.14 208.189 L1817.03 208.189 L1817.03 214.069 L1812.14 214.069 L1812.14 208.189 M1812.14 189.555 L1817.03 189.555 L1817.03 195.434 L1812.14 195.434 L1812.14 189.555 Z" fill="#000000" fill-rule="nonzero" fill-opacity="1" /><path clip-path="url(#clip140)" d="M1824.88 199.184 L1837.35 199.184 L1837.35 202.981 L1824.88 202.981 L1824.88 199.184 Z" fill="#000000" fill-rule="nonzero" fill-opacity="1" /><path clip-path="url(#clip140)" d="M1844.78 179.509 L1863.14 179.509 L1863.14 183.444 L1849.06 183.444 L1849.06 191.916 Q1850.08 191.569 1851.1 191.407 Q1852.12 191.222 1853.14 191.222 Q1858.93 191.222 1862.31 194.393 Q1865.69 197.564 1865.69 202.981 Q1865.69 208.559 1862.21 211.661 Q1858.74 214.74 1852.42 214.74 Q1850.25 214.74 1847.98 214.37 Q1845.73 213.999 1843.32 213.258 L1843.32 208.559 Q1845.41 209.694 1847.63 210.249 Q1849.85 210.805 1852.33 210.805 Q1856.33 210.805 1858.67 208.698 Q1861.01 206.592 1861.01 202.981 Q1861.01 199.37 1858.67 197.263 Q1856.33 195.157 1852.33 195.157 Q1850.45 195.157 1848.58 195.573 Q1846.73 195.99 1844.78 196.87 L1844.78 179.509 Z" fill="#000000" fill-rule="nonzero" fill-opacity="1" /><path clip-path="url(#clip140)" d="M1884.9 182.587 Q1881.29 182.587 1879.46 186.152 Q1877.65 189.694 1877.65 196.823 Q1877.65 203.93 1879.46 207.495 Q1881.29 211.036 1884.9 211.036 Q1888.53 211.036 1890.34 207.495 Q1892.17 203.93 1892.17 196.823 Q1892.17 189.694 1890.34 186.152 Q1888.53 182.587 1884.9 182.587 M1884.9 178.884 Q1890.71 178.884 1893.76 183.49 Q1896.84 188.073 1896.84 196.823 Q1896.84 205.55 1893.76 210.157 Q1890.71 214.74 1884.9 214.74 Q1879.09 214.74 1876.01 210.157 Q1872.95 205.55 1872.95 196.823 Q1872.95 188.073 1876.01 183.49 Q1879.09 178.884 1884.9 178.884 Z" fill="#000000" fill-rule="nonzero" fill-opacity="1" /><path clip-path="url(#clip140)" d="M1905.06 208.189 L1909.94 208.189 L1909.94 214.069 L1905.06 214.069 L1905.06 208.189 Z" fill="#000000" fill-rule="nonzero" fill-opacity="1" /><path clip-path="url(#clip140)" d="M1920.27 213.351 L1920.27 209.092 Q1922.03 209.925 1923.83 210.365 Q1925.64 210.805 1927.37 210.805 Q1932 210.805 1934.43 207.703 Q1936.89 204.578 1937.24 198.235 Q1935.89 200.226 1933.83 201.291 Q1931.77 202.356 1929.27 202.356 Q1924.09 202.356 1921.06 199.231 Q1918.05 196.083 1918.05 190.643 Q1918.05 185.319 1921.19 182.101 Q1924.34 178.884 1929.57 178.884 Q1935.57 178.884 1938.72 183.49 Q1941.89 188.073 1941.89 196.823 Q1941.89 204.995 1938 209.879 Q1934.13 214.74 1927.58 214.74 Q1925.82 214.74 1924.02 214.393 Q1922.21 214.045 1920.27 213.351 M1929.57 198.698 Q1932.72 198.698 1934.55 196.546 Q1936.4 194.393 1936.4 190.643 Q1936.4 186.916 1934.55 184.763 Q1932.72 182.587 1929.57 182.587 Q1926.43 182.587 1924.57 184.763 Q1922.75 186.916 1922.75 190.643 Q1922.75 194.393 1924.57 196.546 Q1926.43 198.698 1929.57 198.698 Z" fill="#000000" fill-rule="nonzero" fill-opacity="1" /><path clip-path="url(#clip140)" d="M1950.43 213.351 L1950.43 209.092 Q1952.19 209.925 1953.99 210.365 Q1955.8 210.805 1957.54 210.805 Q1962.17 210.805 1964.6 207.703 Q1967.05 204.578 1967.4 198.235 Q1966.05 200.226 1963.99 201.291 Q1961.93 202.356 1959.43 202.356 Q1954.25 202.356 1951.22 199.231 Q1948.21 196.083 1948.21 190.643 Q1948.21 185.319 1951.36 182.101 Q1954.5 178.884 1959.74 178.884 Q1965.73 178.884 1968.88 183.49 Q1972.05 188.073 1972.05 196.823 Q1972.05 204.995 1968.16 209.879 Q1964.3 214.74 1957.74 214.74 Q1955.99 214.74 1954.18 214.393 Q1952.37 214.045 1950.43 213.351 M1959.74 198.698 Q1962.88 198.698 1964.71 196.546 Q1966.56 194.393 1966.56 190.643 Q1966.56 186.916 1964.71 184.763 Q1962.88 182.587 1959.74 182.587 Q1956.59 182.587 1954.74 184.763 Q1952.91 186.916 1952.91 190.643 Q1952.91 194.393 1954.74 196.546 Q1956.59 198.698 1959.74 198.698 Z" fill="#000000" fill-rule="nonzero" fill-opacity="1" /><path clip-path="url(#clip140)" d="M2009.85 198.86 Q2007.84 198.86 2006.68 200.573 Q2005.55 202.286 2005.55 205.342 Q2005.55 208.351 2006.68 210.087 Q2007.84 211.8 2009.85 211.8 Q2011.82 211.8 2012.95 210.087 Q2014.11 208.351 2014.11 205.342 Q2014.11 202.309 2012.95 200.596 Q2011.82 198.86 2009.85 198.86 M2009.85 195.921 Q2013.51 195.921 2015.66 198.467 Q2017.81 201.013 2017.81 205.342 Q2017.81 209.67 2015.64 212.217 Q2013.49 214.74 2009.85 214.74 Q2006.15 214.74 2003.99 212.217 Q2001.84 209.67 2001.84 205.342 Q2001.84 200.99 2003.99 198.467 Q2006.17 195.921 2009.85 195.921 M1985.96 181.823 Q1983.97 181.823 1982.81 183.56 Q1981.68 185.272 1981.68 188.282 Q1981.68 191.337 1982.81 193.05 Q1983.95 194.763 1985.96 194.763 Q1987.98 194.763 1989.11 193.05 Q1990.27 191.337 1990.27 188.282 Q1990.27 185.296 1989.11 183.56 Q1987.95 181.823 1985.96 181.823 M2006.86 178.884 L2010.57 178.884 L1988.95 214.74 L1985.24 214.74 L2006.86 178.884 M1985.96 178.884 Q1989.62 178.884 1991.8 181.43 Q1993.97 183.953 1993.97 188.282 Q1993.97 192.657 1991.8 195.18 Q1989.64 197.703 1985.96 197.703 Q1982.28 197.703 1980.13 195.18 Q1978 192.634 1978 188.282 Q1978 183.976 1980.15 181.43 Q1982.3 178.884 1985.96 178.884 Z" fill="#000000" fill-rule="nonzero" fill-opacity="1" /><polyline clip-path="url(#clip140)" style="stroke:#3da44d; stroke-linecap:round; stroke-linejoin:round; stroke-width:4; stroke-opacity:1; fill:none" points="1193.01,248.629 1330.7,248.629 "/>
<path clip-path="url(#clip140)" d="M1369.48 235.955 L1363.14 253.154 L1375.85 253.154 L1369.48 235.955 M1366.85 231.349 L1372.15 231.349 L1385.32 265.909 L1380.46 265.909 L1377.31 257.043 L1361.73 257.043 L1358.58 265.909 L1353.65 265.909 L1366.85 231.349 Z" fill="#000000" fill-rule="nonzero" fill-opacity="1" /><path clip-path="url(#clip140)" d="M1406.75 249.705 Q1408.26 250.214 1409.67 251.881 Q1411.1 253.548 1412.54 256.464 L1417.28 265.909 L1412.26 265.909 L1407.84 257.043 Q1406.13 253.571 1404.51 252.436 Q1402.91 251.302 1400.13 251.302 L1395.04 251.302 L1395.04 265.909 L1390.36 265.909 L1390.36 231.349 L1400.92 231.349 Q1406.85 231.349 1409.76 233.825 Q1412.68 236.302 1412.68 241.302 Q1412.68 244.566 1411.15 246.719 Q1409.65 248.872 1406.75 249.705 M1395.04 235.191 L1395.04 247.46 L1400.92 247.46 Q1404.3 247.46 1406.01 245.909 Q1407.75 244.335 1407.75 241.302 Q1407.75 238.27 1406.01 236.742 Q1404.3 235.191 1400.92 235.191 L1395.04 235.191 Z" fill="#000000" fill-rule="nonzero" fill-opacity="1" /><path clip-path="url(#clip140)" d="M1421.64 231.349 L1426.66 231.349 L1435.25 244.196 L1443.88 231.349 L1448.9 231.349 L1437.79 247.946 L1449.65 265.909 L1444.62 265.909 L1434.9 251.21 L1425.11 265.909 L1420.06 265.909 L1432.4 247.46 L1421.64 231.349 Z" fill="#000000" fill-rule="nonzero" fill-opacity="1" /><path clip-path="url(#clip140)" d="M1490.85 244.96 Q1492.45 242.089 1494.67 240.724 Q1496.89 239.358 1499.9 239.358 Q1503.95 239.358 1506.15 242.205 Q1508.35 245.029 1508.35 250.261 L1508.35 265.909 L1504.07 265.909 L1504.07 250.399 Q1504.07 246.673 1502.75 244.867 Q1501.43 243.062 1498.72 243.062 Q1495.41 243.062 1493.49 245.261 Q1491.57 247.46 1491.57 251.256 L1491.57 265.909 L1487.28 265.909 L1487.28 250.399 Q1487.28 246.649 1485.96 244.867 Q1484.65 243.062 1481.89 243.062 Q1478.63 243.062 1476.71 245.284 Q1474.78 247.483 1474.78 251.256 L1474.78 265.909 L1470.5 265.909 L1470.5 239.983 L1474.78 239.983 L1474.78 244.011 Q1476.24 241.626 1478.28 240.492 Q1480.32 239.358 1483.12 239.358 Q1485.94 239.358 1487.91 240.793 Q1489.9 242.228 1490.85 244.96 Z" fill="#000000" fill-rule="nonzero" fill-opacity="1" /><path clip-path="url(#clip140)" d="M1526.89 242.969 Q1523.46 242.969 1521.47 245.654 Q1519.48 248.316 1519.48 252.969 Q1519.48 257.622 1521.45 260.307 Q1523.44 262.969 1526.89 262.969 Q1530.29 262.969 1532.28 260.284 Q1534.27 257.598 1534.27 252.969 Q1534.27 248.362 1532.28 245.677 Q1530.29 242.969 1526.89 242.969 M1526.89 239.358 Q1532.45 239.358 1535.62 242.969 Q1538.79 246.58 1538.79 252.969 Q1538.79 259.335 1535.62 262.969 Q1532.45 266.58 1526.89 266.58 Q1521.31 266.58 1518.14 262.969 Q1514.99 259.335 1514.99 252.969 Q1514.99 246.58 1518.14 242.969 Q1521.31 239.358 1526.89 239.358 Z" fill="#000000" fill-rule="nonzero" fill-opacity="1" /><path clip-path="url(#clip140)" d="M1562.91 243.918 L1562.91 229.89 L1567.17 229.89 L1567.17 265.909 L1562.91 265.909 L1562.91 262.02 Q1561.57 264.335 1559.51 265.469 Q1557.47 266.58 1554.6 266.58 Q1549.9 266.58 1546.94 262.83 Q1544 259.08 1544 252.969 Q1544 246.858 1546.94 243.108 Q1549.9 239.358 1554.6 239.358 Q1557.47 239.358 1559.51 240.492 Q1561.57 241.603 1562.91 243.918 M1548.4 252.969 Q1548.4 257.668 1550.32 260.353 Q1552.26 263.015 1555.64 263.015 Q1559.02 263.015 1560.96 260.353 Q1562.91 257.668 1562.91 252.969 Q1562.91 248.27 1560.96 245.608 Q1559.02 242.923 1555.64 242.923 Q1552.26 242.923 1550.32 245.608 Q1548.4 248.27 1548.4 252.969 Z" fill="#000000" fill-rule="nonzero" fill-opacity="1" /><path clip-path="url(#clip140)" d="M1598.12 251.881 L1598.12 253.964 L1578.53 253.964 Q1578.81 258.362 1581.17 260.677 Q1583.56 262.969 1587.79 262.969 Q1590.25 262.969 1592.54 262.367 Q1594.85 261.765 1597.12 260.561 L1597.12 264.589 Q1594.83 265.561 1592.42 266.071 Q1590.02 266.58 1587.54 266.58 Q1581.33 266.58 1577.7 262.969 Q1574.09 259.358 1574.09 253.2 Q1574.09 246.835 1577.52 243.108 Q1580.96 239.358 1586.8 239.358 Q1592.03 239.358 1595.06 242.737 Q1598.12 246.094 1598.12 251.881 M1593.86 250.631 Q1593.81 247.136 1591.89 245.052 Q1589.99 242.969 1586.84 242.969 Q1583.28 242.969 1581.13 244.983 Q1579 246.997 1578.67 250.654 L1593.86 250.631 Z" fill="#000000" fill-rule="nonzero" fill-opacity="1" /><path clip-path="url(#clip140)" d="M1605.11 229.89 L1609.37 229.89 L1609.37 265.909 L1605.11 265.909 L1605.11 229.89 Z" fill="#000000" fill-rule="nonzero" fill-opacity="1" /><path clip-path="url(#clip140)" d="M1630.87 239.983 L1635.13 239.983 L1640.45 260.214 L1645.76 239.983 L1650.78 239.983 L1656.1 260.214 L1661.4 239.983 L1665.66 239.983 L1658.88 265.909 L1653.86 265.909 L1648.28 244.659 L1642.68 265.909 L1637.65 265.909 L1630.87 239.983 Z" fill="#000000" fill-rule="nonzero" fill-opacity="1" /><path clip-path="url(#clip140)" d="M1672.12 239.983 L1676.38 239.983 L1676.38 265.909 L1672.12 265.909 L1672.12 239.983 M1672.12 229.89 L1676.38 229.89 L1676.38 235.284 L1672.12 235.284 L1672.12 229.89 Z" fill="#000000" fill-rule="nonzero" fill-opacity="1" /><path clip-path="url(#clip140)" d="M1689.51 232.622 L1689.51 239.983 L1698.28 239.983 L1698.28 243.293 L1689.51 243.293 L1689.51 257.367 Q1689.51 260.538 1690.36 261.441 Q1691.24 262.344 1693.9 262.344 L1698.28 262.344 L1698.28 265.909 L1693.9 265.909 Q1688.97 265.909 1687.1 264.08 Q1685.22 262.228 1685.22 257.367 L1685.22 243.293 L1682.1 243.293 L1682.1 239.983 L1685.22 239.983 L1685.22 232.622 L1689.51 232.622 Z" fill="#000000" fill-rule="nonzero" fill-opacity="1" /><path clip-path="url(#clip140)" d="M1725.43 250.261 L1725.43 265.909 L1721.17 265.909 L1721.17 250.399 Q1721.17 246.719 1719.74 244.89 Q1718.3 243.062 1715.43 243.062 Q1711.98 243.062 1709.99 245.261 Q1708 247.46 1708 251.256 L1708 265.909 L1703.72 265.909 L1703.72 229.89 L1708 229.89 L1708 244.011 Q1709.53 241.673 1711.59 240.515 Q1713.67 239.358 1716.38 239.358 Q1720.85 239.358 1723.14 242.136 Q1725.43 244.89 1725.43 250.261 Z" fill="#000000" fill-rule="nonzero" fill-opacity="1" /><path clip-path="url(#clip140)" d="M1766.06 243.918 L1766.06 229.89 L1770.32 229.89 L1770.32 265.909 L1766.06 265.909 L1766.06 262.02 Q1764.71 264.335 1762.65 265.469 Q1760.62 266.58 1757.75 266.58 Q1753.05 266.58 1750.08 262.83 Q1747.14 259.08 1747.14 252.969 Q1747.14 246.858 1750.08 243.108 Q1753.05 239.358 1757.75 239.358 Q1760.62 239.358 1762.65 240.492 Q1764.71 241.603 1766.06 243.918 M1751.54 252.969 Q1751.54 257.668 1753.46 260.353 Q1755.41 263.015 1758.79 263.015 Q1762.17 263.015 1764.11 260.353 Q1766.06 257.668 1766.06 252.969 Q1766.06 248.27 1764.11 245.608 Q1762.17 242.923 1758.79 242.923 Q1755.41 242.923 1753.46 245.608 Q1751.54 248.27 1751.54 252.969 Z" fill="#000000" fill-rule="nonzero" fill-opacity="1" /><path clip-path="url(#clip140)" d="M1801.26 251.881 L1801.26 253.964 L1781.68 253.964 Q1781.96 258.362 1784.32 260.677 Q1786.7 262.969 1790.94 262.969 Q1793.39 262.969 1795.69 262.367 Q1798 261.765 1800.27 260.561 L1800.27 264.589 Q1797.98 265.561 1795.57 266.071 Q1793.16 266.58 1790.69 266.58 Q1784.48 266.58 1780.85 262.969 Q1777.24 259.358 1777.24 253.2 Q1777.24 246.835 1780.66 243.108 Q1784.11 239.358 1789.94 239.358 Q1795.18 239.358 1798.21 242.737 Q1801.26 246.094 1801.26 251.881 M1797 250.631 Q1796.96 247.136 1795.04 245.052 Q1793.14 242.969 1789.99 242.969 Q1786.43 242.969 1784.27 244.983 Q1782.14 246.997 1781.82 250.654 L1797 250.631 Z" fill="#000000" fill-rule="nonzero" fill-opacity="1" /><path clip-path="url(#clip140)" d="M1808.25 229.89 L1812.51 229.89 L1812.51 265.909 L1808.25 265.909 L1808.25 229.89 Z" fill="#000000" fill-rule="nonzero" fill-opacity="1" /><path clip-path="url(#clip140)" d="M1833.21 252.876 Q1828.05 252.876 1826.06 254.057 Q1824.06 255.237 1824.06 258.085 Q1824.06 260.353 1825.55 261.696 Q1827.05 263.015 1829.62 263.015 Q1833.16 263.015 1835.29 260.515 Q1837.44 257.992 1837.44 253.825 L1837.44 252.876 L1833.21 252.876 M1841.7 251.117 L1841.7 265.909 L1837.44 265.909 L1837.44 261.973 Q1835.99 264.335 1833.81 265.469 Q1831.63 266.58 1828.49 266.58 Q1824.5 266.58 1822.14 264.358 Q1819.81 262.112 1819.81 258.362 Q1819.81 253.987 1822.72 251.765 Q1825.66 249.543 1831.47 249.543 L1837.44 249.543 L1837.44 249.126 Q1837.44 246.187 1835.5 244.589 Q1833.58 242.969 1830.08 242.969 Q1827.86 242.969 1825.75 243.501 Q1823.65 244.034 1821.7 245.099 L1821.7 241.163 Q1824.04 240.261 1826.24 239.821 Q1828.44 239.358 1830.52 239.358 Q1836.15 239.358 1838.93 242.274 Q1841.7 245.191 1841.7 251.117 Z" fill="#000000" fill-rule="nonzero" fill-opacity="1" /><path clip-path="url(#clip140)" d="M1861.26 268.316 Q1859.46 272.946 1857.75 274.358 Q1856.03 275.77 1853.16 275.77 L1849.76 275.77 L1849.76 272.205 L1852.26 272.205 Q1854.02 272.205 1854.99 271.372 Q1855.96 270.538 1857.14 267.436 L1857.91 265.492 L1847.42 239.983 L1851.94 239.983 L1860.04 260.261 L1868.14 239.983 L1872.65 239.983 L1861.26 268.316 Z" fill="#000000" fill-rule="nonzero" fill-opacity="1" /><path clip-path="url(#clip140)" d="M1910.13 240.747 L1910.13 244.774 Q1908.32 243.849 1906.38 243.386 Q1904.43 242.923 1902.35 242.923 Q1899.18 242.923 1897.58 243.895 Q1896.01 244.867 1896.01 246.811 Q1896.01 248.293 1897.14 249.149 Q1898.28 249.983 1901.7 250.747 L1903.16 251.071 Q1907.7 252.043 1909.6 253.825 Q1911.52 255.585 1911.52 258.756 Q1911.52 262.367 1908.65 264.473 Q1905.8 266.58 1900.8 266.58 Q1898.72 266.58 1896.45 266.163 Q1894.2 265.77 1891.7 264.96 L1891.7 260.561 Q1894.06 261.788 1896.36 262.413 Q1898.65 263.015 1900.89 263.015 Q1903.9 263.015 1905.52 261.997 Q1907.14 260.955 1907.14 259.08 Q1907.14 257.344 1905.96 256.418 Q1904.81 255.492 1900.85 254.636 L1899.37 254.288 Q1895.41 253.455 1893.65 251.742 Q1891.89 250.006 1891.89 246.997 Q1891.89 243.339 1894.48 241.349 Q1897.07 239.358 1901.84 239.358 Q1904.2 239.358 1906.29 239.705 Q1908.37 240.052 1910.13 240.747 Z" fill="#000000" fill-rule="nonzero" fill-opacity="1" /><path clip-path="url(#clip140)" d="M1918.3 239.983 L1922.56 239.983 L1922.56 265.909 L1918.3 265.909 L1918.3 239.983 M1918.3 229.89 L1922.56 229.89 L1922.56 235.284 L1918.3 235.284 L1918.3 229.89 Z" fill="#000000" fill-rule="nonzero" fill-opacity="1" /><path clip-path="url(#clip140)" d="M1951.66 244.96 Q1953.25 242.089 1955.48 240.724 Q1957.7 239.358 1960.71 239.358 Q1964.76 239.358 1966.96 242.205 Q1969.16 245.029 1969.16 250.261 L1969.16 265.909 L1964.87 265.909 L1964.87 250.399 Q1964.87 246.673 1963.55 244.867 Q1962.24 243.062 1959.53 243.062 Q1956.22 243.062 1954.3 245.261 Q1952.37 247.46 1952.37 251.256 L1952.37 265.909 L1948.09 265.909 L1948.09 250.399 Q1948.09 246.649 1946.77 244.867 Q1945.45 243.062 1942.7 243.062 Q1939.43 243.062 1937.51 245.284 Q1935.59 247.483 1935.59 251.256 L1935.59 265.909 L1931.31 265.909 L1931.31 239.983 L1935.59 239.983 L1935.59 244.011 Q1937.05 241.626 1939.09 240.492 Q1941.12 239.358 1943.93 239.358 Q1946.75 239.358 1948.72 240.793 Q1950.71 242.228 1951.66 244.96 Z" fill="#000000" fill-rule="nonzero" fill-opacity="1" /><path clip-path="url(#clip140)" d="M2005.85 229.89 L2005.85 233.432 L2001.77 233.432 Q1999.48 233.432 1998.58 234.358 Q1997.7 235.284 1997.7 237.691 L1997.7 239.983 L2004.71 239.983 L2004.71 243.293 L1997.7 243.293 L1997.7 265.909 L1993.42 265.909 L1993.42 243.293 L1989.34 243.293 L1989.34 239.983 L1993.42 239.983 L1993.42 238.177 Q1993.42 233.849 1995.43 231.881 Q1997.44 229.89 2001.82 229.89 L2005.85 229.89 Z" fill="#000000" fill-rule="nonzero" fill-opacity="1" /><path clip-path="url(#clip140)" d="M2009.41 239.983 L2013.67 239.983 L2013.67 265.909 L2009.41 265.909 L2009.41 239.983 M2009.41 229.89 L2013.67 229.89 L2013.67 235.284 L2009.41 235.284 L2009.41 229.89 Z" fill="#000000" fill-rule="nonzero" fill-opacity="1" /><path clip-path="url(#clip140)" d="M2026.8 232.622 L2026.8 239.983 L2035.57 239.983 L2035.57 243.293 L2026.8 243.293 L2026.8 257.367 Q2026.8 260.538 2027.65 261.441 Q2028.53 262.344 2031.19 262.344 L2035.57 262.344 L2035.57 265.909 L2031.19 265.909 Q2026.26 265.909 2024.39 264.08 Q2022.51 262.228 2022.51 257.367 L2022.51 243.293 L2019.39 243.293 L2019.39 239.983 L2022.51 239.983 L2022.51 232.622 L2026.8 232.622 Z" fill="#000000" fill-rule="nonzero" fill-opacity="1" /><path clip-path="url(#clip140)" d="M2072.4 260.029 L2077.28 260.029 L2077.28 265.909 L2072.4 265.909 L2072.4 260.029 M2072.4 241.395 L2077.28 241.395 L2077.28 247.274 L2072.4 247.274 L2072.4 241.395 Z" fill="#000000" fill-rule="nonzero" fill-opacity="1" /><path clip-path="url(#clip140)" d="M2088.69 261.973 L2096.33 261.973 L2096.33 235.608 L2088.02 237.275 L2088.02 233.015 L2096.29 231.349 L2100.96 231.349 L2100.96 261.973 L2108.6 261.973 L2108.6 265.909 L2088.69 265.909 L2088.69 261.973 Z" fill="#000000" fill-rule="nonzero" fill-opacity="1" /><path clip-path="url(#clip140)" d="M2128.04 234.427 Q2124.43 234.427 2122.61 237.992 Q2120.8 241.534 2120.8 248.663 Q2120.8 255.77 2122.61 259.335 Q2124.43 262.876 2128.04 262.876 Q2131.68 262.876 2133.48 259.335 Q2135.31 255.77 2135.31 248.663 Q2135.31 241.534 2133.48 237.992 Q2131.68 234.427 2128.04 234.427 M2128.04 230.724 Q2133.85 230.724 2136.91 235.33 Q2139.99 239.913 2139.99 248.663 Q2139.99 257.39 2136.91 261.997 Q2133.85 266.58 2128.04 266.58 Q2122.23 266.58 2119.16 261.997 Q2116.1 257.39 2116.1 248.663 Q2116.1 239.913 2119.16 235.33 Q2122.23 230.724 2128.04 230.724 Z" fill="#000000" fill-rule="nonzero" fill-opacity="1" /><path clip-path="url(#clip140)" d="M2158.21 234.427 Q2154.6 234.427 2152.77 237.992 Q2150.96 241.534 2150.96 248.663 Q2150.96 255.77 2152.77 259.335 Q2154.6 262.876 2158.21 262.876 Q2161.84 262.876 2163.65 259.335 Q2165.48 255.77 2165.48 248.663 Q2165.48 241.534 2163.65 237.992 Q2161.84 234.427 2158.21 234.427 M2158.21 230.724 Q2164.02 230.724 2167.07 235.33 Q2170.15 239.913 2170.15 248.663 Q2170.15 257.39 2167.07 261.997 Q2164.02 266.58 2158.21 266.58 Q2152.4 266.58 2149.32 261.997 Q2146.26 257.39 2146.26 248.663 Q2146.26 239.913 2149.32 235.33 Q2152.4 230.724 2158.21 230.724 Z" fill="#000000" fill-rule="nonzero" fill-opacity="1" /><path clip-path="url(#clip140)" d="M2178.37 260.029 L2183.25 260.029 L2183.25 265.909 L2178.37 265.909 L2178.37 260.029 Z" fill="#000000" fill-rule="nonzero" fill-opacity="1" /><path clip-path="url(#clip140)" d="M2203.44 234.427 Q2199.83 234.427 2198 237.992 Q2196.19 241.534 2196.19 248.663 Q2196.19 255.77 2198 259.335 Q2199.83 262.876 2203.44 262.876 Q2207.07 262.876 2208.88 259.335 Q2210.71 255.77 2210.71 248.663 Q2210.71 241.534 2208.88 237.992 Q2207.07 234.427 2203.44 234.427 M2203.44 230.724 Q2209.25 230.724 2212.3 235.33 Q2215.38 239.913 2215.38 248.663 Q2215.38 257.39 2212.3 261.997 Q2209.25 266.58 2203.44 266.58 Q2197.63 266.58 2194.55 261.997 Q2191.49 257.39 2191.49 248.663 Q2191.49 239.913 2194.55 235.33 Q2197.63 230.724 2203.44 230.724 Z" fill="#000000" fill-rule="nonzero" fill-opacity="1" /><path clip-path="url(#clip140)" d="M2253 250.7 Q2250.98 250.7 2249.83 252.413 Q2248.69 254.126 2248.69 257.182 Q2248.69 260.191 2249.83 261.927 Q2250.98 263.64 2253 263.64 Q2254.97 263.64 2256.1 261.927 Q2257.26 260.191 2257.26 257.182 Q2257.26 254.149 2256.1 252.436 Q2254.97 250.7 2253 250.7 M2253 247.761 Q2256.66 247.761 2258.81 250.307 Q2260.96 252.853 2260.96 257.182 Q2260.96 261.51 2258.78 264.057 Q2256.63 266.58 2253 266.58 Q2249.29 266.58 2247.14 264.057 Q2244.99 261.51 2244.99 257.182 Q2244.99 252.83 2247.14 250.307 Q2249.32 247.761 2253 247.761 M2229.11 233.663 Q2227.12 233.663 2225.96 235.4 Q2224.83 237.112 2224.83 240.122 Q2224.83 243.177 2225.96 244.89 Q2227.1 246.603 2229.11 246.603 Q2231.12 246.603 2232.26 244.89 Q2233.41 243.177 2233.41 240.122 Q2233.41 237.136 2232.26 235.4 Q2231.1 233.663 2229.11 233.663 M2250.01 230.724 L2253.72 230.724 L2232.1 266.58 L2228.39 266.58 L2250.01 230.724 M2229.11 230.724 Q2232.77 230.724 2234.94 233.27 Q2237.12 235.793 2237.12 240.122 Q2237.12 244.497 2234.94 247.02 Q2232.79 249.543 2229.11 249.543 Q2225.43 249.543 2223.28 247.02 Q2221.15 244.474 2221.15 240.122 Q2221.15 235.816 2223.3 233.27 Q2225.45 230.724 2229.11 230.724 Z" fill="#000000" fill-rule="nonzero" fill-opacity="1" /></svg>
