<?xml version="1.0" encoding="utf-8"?>
<svg xmlns="http://www.w3.org/2000/svg" xmlns:xlink="http://www.w3.org/1999/xlink" width="600" height="400" viewBox="0 0 2400 1600">
<defs>
  <clipPath id="clip540">
    <rect x="0" y="0" width="2400" height="1600"/>
  </clipPath>
</defs>
<path clip-path="url(#clip540)" d="M0 1600 L2400 1600 L2400 0 L0 0  Z" fill="#ffffff" fill-rule="evenodd" fill-opacity="1"/>
<defs>
  <clipPath id="clip541">
    <rect x="480" y="0" width="1681" height="1600"/>
  </clipPath>
</defs>
<path clip-path="url(#clip540)" d="M192.709 1423.18 L2352.76 1423.18 L2352.76 123.472 L192.709 123.472  Z" fill="#ffffff" fill-rule="evenodd" fill-opacity="1"/>
<defs>
  <clipPath id="clip542">
    <rect x="192" y="123" width="2161" height="1301"/>
  </clipPath>
</defs>
<polyline clip-path="url(#clip542)" style="stroke:#000000; stroke-linecap:round; stroke-linejoin:round; stroke-width:2; stroke-opacity:0.1; fill:none" points="525.547,1423.18 525.547,123.472 "/>
<polyline clip-path="url(#clip542)" style="stroke:#000000; stroke-linecap:round; stroke-linejoin:round; stroke-width:2; stroke-opacity:0.1; fill:none" points="933.103,1423.18 933.103,123.472 "/>
<polyline clip-path="url(#clip542)" style="stroke:#000000; stroke-linecap:round; stroke-linejoin:round; stroke-width:2; stroke-opacity:0.1; fill:none" points="1340.66,1423.18 1340.66,123.472 "/>
<polyline clip-path="url(#clip542)" style="stroke:#000000; stroke-linecap:round; stroke-linejoin:round; stroke-width:2; stroke-opacity:0.1; fill:none" points="1748.21,1423.18 1748.21,123.472 "/>
<polyline clip-path="url(#clip542)" style="stroke:#000000; stroke-linecap:round; stroke-linejoin:round; stroke-width:2; stroke-opacity:0.1; fill:none" points="2155.77,1423.18 2155.77,123.472 "/>
<polyline clip-path="url(#clip542)" style="stroke:#000000; stroke-linecap:round; stroke-linejoin:round; stroke-width:2; stroke-opacity:0.1; fill:none" points="192.709,1391.17 2352.76,1391.17 "/>
<polyline clip-path="url(#clip542)" style="stroke:#000000; stroke-linecap:round; stroke-linejoin:round; stroke-width:2; stroke-opacity:0.1; fill:none" points="192.709,1163.13 2352.76,1163.13 "/>
<polyline clip-path="url(#clip542)" style="stroke:#000000; stroke-linecap:round; stroke-linejoin:round; stroke-width:2; stroke-opacity:0.1; fill:none" points="192.709,935.084 2352.76,935.084 "/>
<polyline clip-path="url(#clip542)" style="stroke:#000000; stroke-linecap:round; stroke-linejoin:round; stroke-width:2; stroke-opacity:0.1; fill:none" points="192.709,707.042 2352.76,707.042 "/>
<polyline clip-path="url(#clip542)" style="stroke:#000000; stroke-linecap:round; stroke-linejoin:round; stroke-width:2; stroke-opacity:0.1; fill:none" points="192.709,479 2352.76,479 "/>
<polyline clip-path="url(#clip542)" style="stroke:#000000; stroke-linecap:round; stroke-linejoin:round; stroke-width:2; stroke-opacity:0.1; fill:none" points="192.709,250.958 2352.76,250.958 "/>
<polyline clip-path="url(#clip540)" style="stroke:#000000; stroke-linecap:round; stroke-linejoin:round; stroke-width:4; stroke-opacity:1; fill:none" points="192.709,1163.13 2352.76,1163.13 "/>
<polyline clip-path="url(#clip540)" style="stroke:#000000; stroke-linecap:round; stroke-linejoin:round; stroke-width:4; stroke-opacity:0; fill:none" points="525.547,1163.13 525.547,1163.13 "/>
<polyline clip-path="url(#clip540)" style="stroke:#000000; stroke-linecap:round; stroke-linejoin:round; stroke-width:4; stroke-opacity:0; fill:none" points="933.103,1163.13 933.103,1163.13 "/>
<polyline clip-path="url(#clip540)" style="stroke:#000000; stroke-linecap:round; stroke-linejoin:round; stroke-width:4; stroke-opacity:0; fill:none" points="1340.66,1163.13 1340.66,1163.13 "/>
<polyline clip-path="url(#clip540)" style="stroke:#000000; stroke-linecap:round; stroke-linejoin:round; stroke-width:4; stroke-opacity:0; fill:none" points="1748.21,1163.13 1748.21,1163.13 "/>
<polyline clip-path="url(#clip540)" style="stroke:#000000; stroke-linecap:round; stroke-linejoin:round; stroke-width:4; stroke-opacity:0; fill:none" points="2155.77,1163.13 2155.77,1163.13 "/>
<path clip-path="url(#clip540)" d="M495.014 1468.75 L524.69 1468.75 L524.69 1472.69 L495.014 1472.69 L495.014 1468.75 Z" fill="#000000" fill-rule="nonzero" fill-opacity="1" /><path clip-path="url(#clip540)" d="M548.949 1466.95 Q552.306 1467.66 554.181 1469.93 Q556.079 1472.2 556.079 1475.53 Q556.079 1480.65 552.56 1483.45 Q549.042 1486.25 542.56 1486.25 Q540.384 1486.25 538.07 1485.81 Q535.778 1485.39 533.324 1484.54 L533.324 1480.02 Q535.269 1481.16 537.584 1481.74 Q539.898 1482.32 542.421 1482.32 Q546.82 1482.32 549.111 1480.58 Q551.426 1478.84 551.426 1475.53 Q551.426 1472.48 549.273 1470.77 Q547.144 1469.03 543.324 1469.03 L539.296 1469.03 L539.296 1465.19 L543.509 1465.19 Q546.958 1465.19 548.787 1463.82 Q550.616 1462.43 550.616 1459.84 Q550.616 1457.18 548.718 1455.77 Q546.843 1454.33 543.324 1454.33 Q541.403 1454.33 539.204 1454.75 Q537.005 1455.16 534.366 1456.04 L534.366 1451.88 Q537.028 1451.14 539.343 1450.77 Q541.681 1450.39 543.741 1450.39 Q549.065 1450.39 552.167 1452.83 Q555.269 1455.23 555.269 1459.35 Q555.269 1462.22 553.625 1464.21 Q551.982 1466.18 548.949 1466.95 Z" fill="#000000" fill-rule="nonzero" fill-opacity="1" /><path clip-path="url(#clip540)" d="M933.103 1454.1 Q929.491 1454.1 927.663 1457.66 Q925.857 1461.2 925.857 1468.33 Q925.857 1475.44 927.663 1479.01 Q929.491 1482.55 933.103 1482.55 Q936.737 1482.55 938.542 1479.01 Q940.371 1475.44 940.371 1468.33 Q940.371 1461.2 938.542 1457.66 Q936.737 1454.1 933.103 1454.1 M933.103 1450.39 Q938.913 1450.39 941.968 1455 Q945.047 1459.58 945.047 1468.33 Q945.047 1477.06 941.968 1481.67 Q938.913 1486.25 933.103 1486.25 Q927.292 1486.25 924.214 1481.67 Q921.158 1477.06 921.158 1468.33 Q921.158 1459.58 924.214 1455 Q927.292 1450.39 933.103 1450.39 Z" fill="#000000" fill-rule="nonzero" fill-opacity="1" /><path clip-path="url(#clip540)" d="M1344.91 1466.95 Q1348.26 1467.66 1350.14 1469.93 Q1352.04 1472.2 1352.04 1475.53 Q1352.04 1480.65 1348.52 1483.45 Q1345 1486.25 1338.52 1486.25 Q1336.34 1486.25 1334.03 1485.81 Q1331.73 1485.39 1329.28 1484.54 L1329.28 1480.02 Q1331.23 1481.16 1333.54 1481.74 Q1335.86 1482.32 1338.38 1482.32 Q1342.78 1482.32 1345.07 1480.58 Q1347.38 1478.84 1347.38 1475.53 Q1347.38 1472.48 1345.23 1470.77 Q1343.1 1469.03 1339.28 1469.03 L1335.25 1469.03 L1335.25 1465.19 L1339.47 1465.19 Q1342.92 1465.19 1344.74 1463.82 Q1346.57 1462.43 1346.57 1459.84 Q1346.57 1457.18 1344.67 1455.77 Q1342.8 1454.33 1339.28 1454.33 Q1337.36 1454.33 1335.16 1454.75 Q1332.96 1455.16 1330.32 1456.04 L1330.32 1451.88 Q1332.98 1451.14 1335.3 1450.77 Q1337.64 1450.39 1339.7 1450.39 Q1345.02 1450.39 1348.12 1452.83 Q1351.23 1455.23 1351.23 1459.35 Q1351.23 1462.22 1349.58 1464.21 Q1347.94 1466.18 1344.91 1466.95 Z" fill="#000000" fill-rule="nonzero" fill-opacity="1" /><path clip-path="url(#clip540)" d="M1748.62 1466.44 Q1745.47 1466.44 1743.62 1468.59 Q1741.79 1470.74 1741.79 1474.49 Q1741.79 1478.22 1743.62 1480.39 Q1745.47 1482.55 1748.62 1482.55 Q1751.77 1482.55 1753.6 1480.39 Q1755.45 1478.22 1755.45 1474.49 Q1755.45 1470.74 1753.6 1468.59 Q1751.77 1466.44 1748.62 1466.44 M1757.9 1451.78 L1757.9 1456.04 Q1756.14 1455.21 1754.34 1454.77 Q1752.55 1454.33 1750.8 1454.33 Q1746.17 1454.33 1743.71 1457.45 Q1741.28 1460.58 1740.93 1466.9 Q1742.3 1464.89 1744.36 1463.82 Q1746.42 1462.73 1748.9 1462.73 Q1754.11 1462.73 1757.11 1465.9 Q1760.15 1469.05 1760.15 1474.49 Q1760.15 1479.82 1757 1483.03 Q1753.85 1486.25 1748.62 1486.25 Q1742.62 1486.25 1739.45 1481.67 Q1736.28 1477.06 1736.28 1468.33 Q1736.28 1460.14 1740.17 1455.28 Q1744.06 1450.39 1750.61 1450.39 Q1752.37 1450.39 1754.15 1450.74 Q1755.96 1451.09 1757.9 1451.78 Z" fill="#000000" fill-rule="nonzero" fill-opacity="1" /><path clip-path="url(#clip540)" d="M2146.07 1484.86 L2146.07 1480.6 Q2147.83 1481.44 2149.64 1481.88 Q2151.44 1482.32 2153.18 1482.32 Q2157.81 1482.32 2160.24 1479.21 Q2162.69 1476.09 2163.04 1469.75 Q2161.7 1471.74 2159.64 1472.8 Q2157.58 1473.87 2155.08 1473.87 Q2149.89 1473.87 2146.86 1470.74 Q2143.85 1467.59 2143.85 1462.15 Q2143.85 1456.83 2147 1453.61 Q2150.15 1450.39 2155.38 1450.39 Q2161.37 1450.39 2164.52 1455 Q2167.69 1459.58 2167.69 1468.33 Q2167.69 1476.51 2163.8 1481.39 Q2159.94 1486.25 2153.39 1486.25 Q2151.63 1486.25 2149.82 1485.9 Q2148.02 1485.56 2146.07 1484.86 M2155.38 1470.21 Q2158.53 1470.21 2160.35 1468.06 Q2162.21 1465.9 2162.21 1462.15 Q2162.21 1458.43 2160.35 1456.27 Q2158.53 1454.1 2155.38 1454.1 Q2152.23 1454.1 2150.38 1456.27 Q2148.55 1458.43 2148.55 1462.15 Q2148.55 1465.9 2150.38 1468.06 Q2152.23 1470.21 2155.38 1470.21 Z" fill="#000000" fill-rule="nonzero" fill-opacity="1" /><path clip-path="url(#clip540)" d="M1167.14 1520.52 L1173.57 1520.52 L1173.57 1562.63 L1196.71 1562.63 L1196.71 1568.04 L1167.14 1568.04 L1167.14 1520.52 Z" fill="#000000" fill-rule="nonzero" fill-opacity="1" /><path clip-path="url(#clip540)" d="M1219.4 1550.12 Q1212.31 1550.12 1209.57 1551.75 Q1206.83 1553.37 1206.83 1557.29 Q1206.83 1560.4 1208.87 1562.25 Q1210.94 1564.07 1214.47 1564.07 Q1219.34 1564.07 1222.27 1560.63 Q1225.23 1557.16 1225.23 1551.43 L1225.23 1550.12 L1219.4 1550.12 M1231.08 1547.71 L1231.08 1568.04 L1225.23 1568.04 L1225.23 1562.63 Q1223.22 1565.88 1220.23 1567.44 Q1217.24 1568.97 1212.91 1568.97 Q1207.44 1568.97 1204.19 1565.91 Q1200.98 1562.82 1200.98 1557.67 Q1200.98 1551.65 1204.99 1548.6 Q1209.03 1545.54 1217.02 1545.54 L1225.23 1545.54 L1225.23 1544.97 Q1225.23 1540.93 1222.55 1538.73 Q1219.91 1536.5 1215.11 1536.5 Q1212.05 1536.5 1209.16 1537.23 Q1206.26 1537.97 1203.59 1539.43 L1203.59 1534.02 Q1206.8 1532.78 1209.82 1532.17 Q1212.85 1531.54 1215.71 1531.54 Q1223.45 1531.54 1227.27 1535.55 Q1231.08 1539.56 1231.08 1547.71 Z" fill="#000000" fill-rule="nonzero" fill-opacity="1" /><path clip-path="url(#clip540)" d="M1266.61 1549.81 Q1266.61 1543.44 1263.96 1539.94 Q1261.35 1536.44 1256.61 1536.44 Q1251.9 1536.44 1249.26 1539.94 Q1246.65 1543.44 1246.65 1549.81 Q1246.65 1556.14 1249.26 1559.64 Q1251.9 1563.14 1256.61 1563.14 Q1261.35 1563.14 1263.96 1559.64 Q1266.61 1556.14 1266.61 1549.81 M1272.46 1563.62 Q1272.46 1572.72 1268.42 1577.15 Q1264.38 1581.6 1256.04 1581.6 Q1252.95 1581.6 1250.21 1581.13 Q1247.48 1580.68 1244.9 1579.72 L1244.9 1574.03 Q1247.48 1575.43 1249.99 1576.1 Q1252.51 1576.76 1255.12 1576.76 Q1260.88 1576.76 1263.74 1573.74 Q1266.61 1570.75 1266.61 1564.67 L1266.61 1561.77 Q1264.79 1564.92 1261.96 1566.48 Q1259.13 1568.04 1255.18 1568.04 Q1248.62 1568.04 1244.61 1563.05 Q1240.6 1558.05 1240.6 1549.81 Q1240.6 1541.53 1244.61 1536.53 Q1248.62 1531.54 1255.18 1531.54 Q1259.13 1531.54 1261.96 1533.1 Q1264.79 1534.66 1266.61 1537.81 L1266.61 1532.4 L1272.46 1532.4 L1272.46 1563.62 Z" fill="#000000" fill-rule="nonzero" fill-opacity="1" /><path clip-path="url(#clip540)" d="M1304.7 1518.52 L1318.2 1518.52 L1318.2 1523.07 L1310.56 1523.07 L1310.56 1572.09 L1318.2 1572.09 L1318.2 1576.64 L1304.7 1576.64 L1304.7 1518.52 Z" fill="#000000" fill-rule="nonzero" fill-opacity="1" /><path clip-path="url(#clip540)" d="M1353.4 1533.45 L1353.4 1538.98 Q1350.92 1537.71 1348.25 1537.07 Q1345.57 1536.44 1342.71 1536.44 Q1338.35 1536.44 1336.15 1537.77 Q1333.99 1539.11 1333.99 1541.79 Q1333.99 1543.82 1335.55 1545 Q1337.11 1546.15 1341.82 1547.2 L1343.82 1547.64 Q1350.06 1548.98 1352.67 1551.43 Q1355.31 1553.85 1355.31 1558.21 Q1355.31 1563.17 1351.36 1566.07 Q1347.45 1568.97 1340.58 1568.97 Q1337.71 1568.97 1334.59 1568.39 Q1331.5 1567.85 1328.07 1566.74 L1328.07 1560.69 Q1331.31 1562.38 1334.46 1563.24 Q1337.61 1564.07 1340.7 1564.07 Q1344.84 1564.07 1347.07 1562.66 Q1349.3 1561.23 1349.3 1558.65 Q1349.3 1556.27 1347.67 1554.99 Q1346.08 1553.72 1340.64 1552.54 L1338.6 1552.07 Q1333.16 1550.92 1330.74 1548.56 Q1328.32 1546.18 1328.32 1542.04 Q1328.32 1537.01 1331.89 1534.27 Q1335.45 1531.54 1342.01 1531.54 Q1345.25 1531.54 1348.12 1532.01 Q1350.98 1532.49 1353.4 1533.45 Z" fill="#000000" fill-rule="nonzero" fill-opacity="1" /><path clip-path="url(#clip540)" d="M1378.32 1518.52 L1378.32 1576.64 L1364.83 1576.64 L1364.83 1572.09 L1372.44 1572.09 L1372.44 1523.07 L1364.83 1523.07 L1364.83 1518.52 L1378.32 1518.52 Z" fill="#000000" fill-rule="nonzero" fill-opacity="1" /><polyline clip-path="url(#clip540)" style="stroke:#000000; stroke-linecap:round; stroke-linejoin:round; stroke-width:4; stroke-opacity:1; fill:none" points="933.103,1423.18 933.103,123.472 "/>
<polyline clip-path="url(#clip540)" style="stroke:#000000; stroke-linecap:round; stroke-linejoin:round; stroke-width:4; stroke-opacity:0; fill:none" points="933.103,1391.17 933.103,1391.17 "/>
<polyline clip-path="url(#clip540)" style="stroke:#000000; stroke-linecap:round; stroke-linejoin:round; stroke-width:4; stroke-opacity:0; fill:none" points="933.103,1163.13 933.103,1163.13 "/>
<polyline clip-path="url(#clip540)" style="stroke:#000000; stroke-linecap:round; stroke-linejoin:round; stroke-width:4; stroke-opacity:0; fill:none" points="933.103,935.084 933.103,935.084 "/>
<polyline clip-path="url(#clip540)" style="stroke:#000000; stroke-linecap:round; stroke-linejoin:round; stroke-width:4; stroke-opacity:0; fill:none" points="933.103,707.042 933.103,707.042 "/>
<polyline clip-path="url(#clip540)" style="stroke:#000000; stroke-linecap:round; stroke-linejoin:round; stroke-width:4; stroke-opacity:0; fill:none" points="933.103,479 933.103,479 "/>
<polyline clip-path="url(#clip540)" style="stroke:#000000; stroke-linecap:round; stroke-linejoin:round; stroke-width:4; stroke-opacity:0; fill:none" points="933.103,250.958 933.103,250.958 "/>
<path clip-path="url(#clip540)" d="M50.9921 1391.62 L80.6679 1391.62 L80.6679 1395.56 L50.9921 1395.56 L50.9921 1391.62 Z" fill="#000000" fill-rule="nonzero" fill-opacity="1" /><path clip-path="url(#clip540)" d="M100.76 1376.97 Q97.1493 1376.97 95.3206 1380.53 Q93.515 1384.07 93.515 1391.2 Q93.515 1398.31 95.3206 1401.87 Q97.1493 1405.42 100.76 1405.42 Q104.395 1405.42 106.2 1401.87 Q108.029 1398.31 108.029 1391.2 Q108.029 1384.07 106.2 1380.53 Q104.395 1376.97 100.76 1376.97 M100.76 1373.26 Q106.571 1373.26 109.626 1377.87 Q112.705 1382.45 112.705 1391.2 Q112.705 1399.93 109.626 1404.54 Q106.571 1409.12 100.76 1409.12 Q94.9502 1409.12 91.8715 1404.54 Q88.816 1399.93 88.816 1391.2 Q88.816 1382.45 91.8715 1377.87 Q94.9502 1373.26 100.76 1373.26 Z" fill="#000000" fill-rule="nonzero" fill-opacity="1" /><path clip-path="url(#clip540)" d="M120.922 1402.57 L125.807 1402.57 L125.807 1408.45 L120.922 1408.45 L120.922 1402.57 Z" fill="#000000" fill-rule="nonzero" fill-opacity="1" /><path clip-path="url(#clip540)" d="M136.802 1404.51 L144.441 1404.51 L144.441 1378.15 L136.131 1379.81 L136.131 1375.56 L144.394 1373.89 L149.07 1373.89 L149.07 1404.51 L156.709 1404.51 L156.709 1408.45 L136.802 1408.45 L136.802 1404.51 Z" fill="#000000" fill-rule="nonzero" fill-opacity="1" /><path clip-path="url(#clip540)" d="M99.5335 1148.93 Q95.9224 1148.93 94.0937 1152.49 Q92.2882 1156.03 92.2882 1163.16 Q92.2882 1170.27 94.0937 1173.83 Q95.9224 1177.37 99.5335 1177.37 Q103.168 1177.37 104.973 1173.83 Q106.802 1170.27 106.802 1163.16 Q106.802 1156.03 104.973 1152.49 Q103.168 1148.93 99.5335 1148.93 M99.5335 1145.22 Q105.344 1145.22 108.399 1149.83 Q111.478 1154.41 111.478 1163.16 Q111.478 1171.89 108.399 1176.49 Q105.344 1181.08 99.5335 1181.08 Q93.7234 1181.08 90.6447 1176.49 Q87.5892 1171.89 87.5892 1163.16 Q87.5892 1154.41 90.6447 1149.83 Q93.7234 1145.22 99.5335 1145.22 Z" fill="#000000" fill-rule="nonzero" fill-opacity="1" /><path clip-path="url(#clip540)" d="M119.695 1174.53 L124.58 1174.53 L124.58 1180.41 L119.695 1180.41 L119.695 1174.53 Z" fill="#000000" fill-rule="nonzero" fill-opacity="1" /><path clip-path="url(#clip540)" d="M144.765 1148.93 Q141.154 1148.93 139.325 1152.49 Q137.519 1156.03 137.519 1163.16 Q137.519 1170.27 139.325 1173.83 Q141.154 1177.37 144.765 1177.37 Q148.399 1177.37 150.205 1173.83 Q152.033 1170.27 152.033 1163.16 Q152.033 1156.03 150.205 1152.49 Q148.399 1148.93 144.765 1148.93 M144.765 1145.22 Q150.575 1145.22 153.63 1149.83 Q156.709 1154.41 156.709 1163.16 Q156.709 1171.89 153.63 1176.49 Q150.575 1181.08 144.765 1181.08 Q138.955 1181.08 135.876 1176.49 Q132.82 1171.89 132.82 1163.16 Q132.82 1154.41 135.876 1149.83 Q138.955 1145.22 144.765 1145.22 Z" fill="#000000" fill-rule="nonzero" fill-opacity="1" /><path clip-path="url(#clip540)" d="M100.76 920.883 Q97.1493 920.883 95.3206 924.448 Q93.515 927.99 93.515 935.119 Q93.515 942.226 95.3206 945.79 Q97.1493 949.332 100.76 949.332 Q104.395 949.332 106.2 945.79 Q108.029 942.226 108.029 935.119 Q108.029 927.99 106.2 924.448 Q104.395 920.883 100.76 920.883 M100.76 917.179 Q106.571 917.179 109.626 921.786 Q112.705 926.369 112.705 935.119 Q112.705 943.846 109.626 948.452 Q106.571 953.036 100.76 953.036 Q94.9502 953.036 91.8715 948.452 Q88.816 943.846 88.816 935.119 Q88.816 926.369 91.8715 921.786 Q94.9502 917.179 100.76 917.179 Z" fill="#000000" fill-rule="nonzero" fill-opacity="1" /><path clip-path="url(#clip540)" d="M120.922 946.485 L125.807 946.485 L125.807 952.364 L120.922 952.364 L120.922 946.485 Z" fill="#000000" fill-rule="nonzero" fill-opacity="1" /><path clip-path="url(#clip540)" d="M136.802 948.429 L144.441 948.429 L144.441 922.064 L136.131 923.73 L136.131 919.471 L144.394 917.804 L149.07 917.804 L149.07 948.429 L156.709 948.429 L156.709 952.364 L136.802 952.364 L136.802 948.429 Z" fill="#000000" fill-rule="nonzero" fill-opacity="1" /><path clip-path="url(#clip540)" d="M101.131 692.841 Q97.5197 692.841 95.691 696.406 Q93.8854 699.947 93.8854 707.077 Q93.8854 714.184 95.691 717.748 Q97.5197 721.29 101.131 721.29 Q104.765 721.29 106.571 717.748 Q108.399 714.184 108.399 707.077 Q108.399 699.947 106.571 696.406 Q104.765 692.841 101.131 692.841 M101.131 689.137 Q106.941 689.137 109.996 693.744 Q113.075 698.327 113.075 707.077 Q113.075 715.804 109.996 720.41 Q106.941 724.994 101.131 724.994 Q95.3206 724.994 92.2419 720.41 Q89.1864 715.804 89.1864 707.077 Q89.1864 698.327 92.2419 693.744 Q95.3206 689.137 101.131 689.137 Z" fill="#000000" fill-rule="nonzero" fill-opacity="1" /><path clip-path="url(#clip540)" d="M121.293 718.443 L126.177 718.443 L126.177 724.322 L121.293 724.322 L121.293 718.443 Z" fill="#000000" fill-rule="nonzero" fill-opacity="1" /><path clip-path="url(#clip540)" d="M140.39 720.387 L156.709 720.387 L156.709 724.322 L134.765 724.322 L134.765 720.387 Q137.427 717.633 142.01 713.003 Q146.617 708.35 147.797 707.008 Q150.043 704.484 150.922 702.748 Q151.825 700.989 151.825 699.299 Q151.825 696.545 149.88 694.809 Q147.959 693.073 144.857 693.073 Q142.658 693.073 140.205 693.836 Q137.774 694.6 134.996 696.151 L134.996 691.429 Q137.82 690.295 140.274 689.716 Q142.728 689.137 144.765 689.137 Q150.135 689.137 153.33 691.823 Q156.524 694.508 156.524 698.998 Q156.524 701.128 155.714 703.049 Q154.927 704.947 152.82 707.54 Q152.242 708.211 149.14 711.429 Q146.038 714.623 140.39 720.387 Z" fill="#000000" fill-rule="nonzero" fill-opacity="1" /><path clip-path="url(#clip540)" d="M100.182 464.799 Q96.5706 464.799 94.7419 468.364 Q92.9363 471.905 92.9363 479.035 Q92.9363 486.141 94.7419 489.706 Q96.5706 493.248 100.182 493.248 Q103.816 493.248 105.621 489.706 Q107.45 486.141 107.45 479.035 Q107.45 471.905 105.621 468.364 Q103.816 464.799 100.182 464.799 M100.182 461.095 Q105.992 461.095 109.047 465.702 Q112.126 470.285 112.126 479.035 Q112.126 487.762 109.047 492.368 Q105.992 496.952 100.182 496.952 Q94.3715 496.952 91.2928 492.368 Q88.2373 487.762 88.2373 479.035 Q88.2373 470.285 91.2928 465.702 Q94.3715 461.095 100.182 461.095 Z" fill="#000000" fill-rule="nonzero" fill-opacity="1" /><path clip-path="url(#clip540)" d="M120.344 490.401 L125.228 490.401 L125.228 496.28 L120.344 496.28 L120.344 490.401 Z" fill="#000000" fill-rule="nonzero" fill-opacity="1" /><path clip-path="url(#clip540)" d="M149.58 477.646 Q152.936 478.364 154.811 480.632 Q156.709 482.901 156.709 486.234 Q156.709 491.35 153.191 494.151 Q149.672 496.952 143.191 496.952 Q141.015 496.952 138.7 496.512 Q136.408 496.095 133.955 495.239 L133.955 490.725 Q135.899 491.859 138.214 492.438 Q140.529 493.016 143.052 493.016 Q147.45 493.016 149.742 491.28 Q152.056 489.544 152.056 486.234 Q152.056 483.179 149.904 481.466 Q147.774 479.729 143.955 479.729 L139.927 479.729 L139.927 475.887 L144.14 475.887 Q147.589 475.887 149.418 474.521 Q151.246 473.132 151.246 470.54 Q151.246 467.878 149.348 466.466 Q147.473 465.03 143.955 465.03 Q142.033 465.03 139.834 465.447 Q137.635 465.864 134.996 466.743 L134.996 462.577 Q137.658 461.836 139.973 461.466 Q142.311 461.095 144.371 461.095 Q149.695 461.095 152.797 463.526 Q155.899 465.933 155.899 470.054 Q155.899 472.924 154.255 474.915 Q152.612 476.882 149.58 477.646 Z" fill="#000000" fill-rule="nonzero" fill-opacity="1" /><path clip-path="url(#clip540)" d="M99.0474 236.757 Q95.4363 236.757 93.6076 240.322 Q91.8021 243.863 91.8021 250.993 Q91.8021 258.099 93.6076 261.664 Q95.4363 265.206 99.0474 265.206 Q102.682 265.206 104.487 261.664 Q106.316 258.099 106.316 250.993 Q106.316 243.863 104.487 240.322 Q102.682 236.757 99.0474 236.757 M99.0474 233.053 Q104.858 233.053 107.913 237.66 Q110.992 242.243 110.992 250.993 Q110.992 259.72 107.913 264.326 Q104.858 268.91 99.0474 268.91 Q93.2373 268.91 90.1586 264.326 Q87.103 259.72 87.103 250.993 Q87.103 242.243 90.1586 237.66 Q93.2373 233.053 99.0474 233.053 Z" fill="#000000" fill-rule="nonzero" fill-opacity="1" /><path clip-path="url(#clip540)" d="M119.209 262.359 L124.094 262.359 L124.094 268.238 L119.209 268.238 L119.209 262.359 Z" fill="#000000" fill-rule="nonzero" fill-opacity="1" /><path clip-path="url(#clip540)" d="M147.126 237.752 L135.32 256.201 L147.126 256.201 L147.126 237.752 M145.899 233.678 L151.779 233.678 L151.779 256.201 L156.709 256.201 L156.709 260.09 L151.779 260.09 L151.779 268.238 L147.126 268.238 L147.126 260.09 L131.524 260.09 L131.524 255.576 L145.899 233.678 Z" fill="#000000" fill-rule="nonzero" fill-opacity="1" /><path clip-path="url(#clip540)" d="M656.205 12.096 L664.388 12.096 L664.388 72.576 L656.205 72.576 L656.205 12.096 Z" fill="#000000" fill-rule="nonzero" fill-opacity="1" /><path clip-path="url(#clip540)" d="M718.062 45.1919 L718.062 72.576 L710.609 72.576 L710.609 45.4349 Q710.609 38.994 708.097 35.7938 Q705.586 32.5936 700.563 32.5936 Q694.527 32.5936 691.043 36.4419 Q687.559 40.2903 687.559 46.9338 L687.559 72.576 L680.065 72.576 L680.065 27.2059 L687.559 27.2059 L687.559 34.2544 Q690.233 30.163 693.838 28.1376 Q697.484 26.1121 702.223 26.1121 Q710.042 26.1121 714.052 30.9732 Q718.062 35.7938 718.062 45.1919 Z" fill="#000000" fill-rule="nonzero" fill-opacity="1" /><path clip-path="url(#clip540)" d="M740.14 65.7705 L740.14 89.8329 L732.646 89.8329 L732.646 27.2059 L740.14 27.2059 L740.14 34.0924 Q742.489 30.0415 746.054 28.0971 Q749.66 26.1121 754.642 26.1121 Q762.906 26.1121 768.051 32.6746 Q773.236 39.2371 773.236 49.9314 Q773.236 60.6258 768.051 67.1883 Q762.906 73.7508 754.642 73.7508 Q749.66 73.7508 746.054 71.8063 Q742.489 69.8214 740.14 65.7705 M765.499 49.9314 Q765.499 41.7081 762.096 37.0496 Q758.734 32.3505 752.819 32.3505 Q746.905 32.3505 743.502 37.0496 Q740.14 41.7081 740.14 49.9314 Q740.14 58.1548 743.502 62.8538 Q746.905 67.5124 752.819 67.5124 Q758.734 67.5124 762.096 62.8538 Q765.499 58.1548 765.499 49.9314 Z" fill="#000000" fill-rule="nonzero" fill-opacity="1" /><path clip-path="url(#clip540)" d="M784.821 54.671 L784.821 27.2059 L792.275 27.2059 L792.275 54.3874 Q792.275 60.8284 794.787 64.0691 Q797.298 67.2693 802.321 67.2693 Q808.357 67.2693 811.841 63.421 Q815.365 59.5726 815.365 52.9291 L815.365 27.2059 L822.819 27.2059 L822.819 72.576 L815.365 72.576 L815.365 65.6084 Q812.651 69.7404 809.046 71.7658 Q805.481 73.7508 800.741 73.7508 Q792.923 73.7508 788.872 68.8897 Q784.821 64.0286 784.821 54.671 M803.577 26.1121 L803.577 26.1121 Z" fill="#000000" fill-rule="nonzero" fill-opacity="1" /><path clip-path="url(#clip540)" d="M845.544 14.324 L845.544 27.2059 L860.897 27.2059 L860.897 32.9987 L845.544 32.9987 L845.544 57.6282 Q845.544 63.1779 847.043 64.7578 Q848.583 66.3376 853.241 66.3376 L860.897 66.3376 L860.897 72.576 L853.241 72.576 Q844.613 72.576 841.331 69.3758 Q838.05 66.1351 838.05 57.6282 L838.05 32.9987 L832.582 32.9987 L832.582 27.2059 L838.05 27.2059 L838.05 14.324 L845.544 14.324 Z" fill="#000000" fill-rule="nonzero" fill-opacity="1" /><path clip-path="url(#clip540)" d="M866.933 46.5287 L888.768 46.5287 L888.768 53.1722 L866.933 53.1722 L866.933 46.5287 Z" fill="#000000" fill-rule="nonzero" fill-opacity="1" /><path clip-path="url(#clip540)" d="M927.818 17.6457 Q918.906 17.6457 913.64 24.2892 Q908.414 30.9327 908.414 42.3968 Q908.414 53.8203 913.64 60.4638 Q918.906 67.1073 927.818 67.1073 Q936.73 67.1073 941.915 60.4638 Q947.141 53.8203 947.141 42.3968 Q947.141 30.9327 941.915 24.2892 Q936.73 17.6457 927.818 17.6457 M927.818 11.0023 Q940.538 11.0023 948.154 19.5497 Q955.77 28.0566 955.77 42.3968 Q955.77 56.6965 948.154 65.2439 Q940.538 73.7508 927.818 73.7508 Q915.058 73.7508 907.402 65.2439 Q899.786 56.737 899.786 42.3968 Q899.786 28.0566 907.402 19.5497 Q915.058 11.0023 927.818 11.0023 Z" fill="#000000" fill-rule="nonzero" fill-opacity="1" /><path clip-path="url(#clip540)" d="M967.477 54.671 L967.477 27.2059 L974.93 27.2059 L974.93 54.3874 Q974.93 60.8284 977.442 64.0691 Q979.953 67.2693 984.977 67.2693 Q991.012 67.2693 994.496 63.421 Q998.02 59.5726 998.02 52.9291 L998.02 27.2059 L1005.47 27.2059 L1005.47 72.576 L998.02 72.576 L998.02 65.6084 Q995.306 69.7404 991.701 71.7658 Q988.136 73.7508 983.397 73.7508 Q975.578 73.7508 971.528 68.8897 Q967.477 64.0286 967.477 54.671 M986.232 26.1121 L986.232 26.1121 Z" fill="#000000" fill-rule="nonzero" fill-opacity="1" /><path clip-path="url(#clip540)" d="M1028.2 14.324 L1028.2 27.2059 L1043.55 27.2059 L1043.55 32.9987 L1028.2 32.9987 L1028.2 57.6282 Q1028.2 63.1779 1029.7 64.7578 Q1031.24 66.3376 1035.9 66.3376 L1043.55 66.3376 L1043.55 72.576 L1035.9 72.576 Q1027.27 72.576 1023.99 69.3758 Q1020.71 66.1351 1020.71 57.6282 L1020.71 32.9987 L1015.24 32.9987 L1015.24 27.2059 L1020.71 27.2059 L1020.71 14.324 L1028.2 14.324 Z" fill="#000000" fill-rule="nonzero" fill-opacity="1" /><path clip-path="url(#clip540)" d="M1060.57 65.7705 L1060.57 89.8329 L1053.07 89.8329 L1053.07 27.2059 L1060.57 27.2059 L1060.57 34.0924 Q1062.92 30.0415 1066.48 28.0971 Q1070.09 26.1121 1075.07 26.1121 Q1083.33 26.1121 1088.48 32.6746 Q1093.66 39.2371 1093.66 49.9314 Q1093.66 60.6258 1088.48 67.1883 Q1083.33 73.7508 1075.07 73.7508 Q1070.09 73.7508 1066.48 71.8063 Q1062.92 69.8214 1060.57 65.7705 M1085.93 49.9314 Q1085.93 41.7081 1082.52 37.0496 Q1079.16 32.3505 1073.25 32.3505 Q1067.33 32.3505 1063.93 37.0496 Q1060.57 41.7081 1060.57 49.9314 Q1060.57 58.1548 1063.93 62.8538 Q1067.33 67.5124 1073.25 67.5124 Q1079.16 67.5124 1082.52 62.8538 Q1085.93 58.1548 1085.93 49.9314 Z" fill="#000000" fill-rule="nonzero" fill-opacity="1" /><path clip-path="url(#clip540)" d="M1105.25 54.671 L1105.25 27.2059 L1112.7 27.2059 L1112.7 54.3874 Q1112.7 60.8284 1115.21 64.0691 Q1117.72 67.2693 1122.75 67.2693 Q1128.78 67.2693 1132.27 63.421 Q1135.79 59.5726 1135.79 52.9291 L1135.79 27.2059 L1143.25 27.2059 L1143.25 72.576 L1135.79 72.576 L1135.79 65.6084 Q1133.08 69.7404 1129.47 71.7658 Q1125.91 73.7508 1121.17 73.7508 Q1113.35 73.7508 1109.3 68.8897 Q1105.25 64.0286 1105.25 54.671 M1124 26.1121 L1124 26.1121 Z" fill="#000000" fill-rule="nonzero" fill-opacity="1" /><path clip-path="url(#clip540)" d="M1165.97 14.324 L1165.97 27.2059 L1181.32 27.2059 L1181.32 32.9987 L1165.97 32.9987 L1165.97 57.6282 Q1165.97 63.1779 1167.47 64.7578 Q1169.01 66.3376 1173.67 66.3376 L1181.32 66.3376 L1181.32 72.576 L1173.67 72.576 Q1165.04 72.576 1161.76 69.3758 Q1158.48 66.1351 1158.48 57.6282 L1158.48 32.9987 L1153.01 32.9987 L1153.01 27.2059 L1158.48 27.2059 L1158.48 14.324 L1165.97 14.324 Z" fill="#000000" fill-rule="nonzero" fill-opacity="1" /><path clip-path="url(#clip540)" d="M1250.15 28.9478 L1250.15 35.9153 Q1246.99 34.1734 1243.79 33.3227 Q1240.63 32.4315 1237.39 32.4315 Q1230.14 32.4315 1226.13 37.0496 Q1222.12 41.6271 1222.12 49.9314 Q1222.12 58.2358 1226.13 62.8538 Q1230.14 67.4314 1237.39 67.4314 Q1240.63 67.4314 1243.79 66.5807 Q1246.99 65.6895 1250.15 63.9476 L1250.15 70.8341 Q1247.03 72.2924 1243.67 73.0216 Q1240.35 73.7508 1236.58 73.7508 Q1226.33 73.7508 1220.29 67.3098 Q1214.26 60.8689 1214.26 49.9314 Q1214.26 38.832 1220.33 32.472 Q1226.45 26.1121 1237.06 26.1121 Q1240.51 26.1121 1243.79 26.8413 Q1247.07 27.5299 1250.15 28.9478 Z" fill="#000000" fill-rule="nonzero" fill-opacity="1" /><path clip-path="url(#clip540)" d="M1289.4 34.1734 Q1288.15 33.4443 1286.65 33.1202 Q1285.19 32.7556 1283.41 32.7556 Q1277.09 32.7556 1273.68 36.8875 Q1270.32 40.9789 1270.32 48.6757 L1270.32 72.576 L1262.83 72.576 L1262.83 27.2059 L1270.32 27.2059 L1270.32 34.2544 Q1272.67 30.1225 1276.44 28.1376 Q1280.21 26.1121 1285.59 26.1121 Q1286.36 26.1121 1287.3 26.2337 Q1288.23 26.3147 1289.36 26.5172 L1289.4 34.1734 Z" fill="#000000" fill-rule="nonzero" fill-opacity="1" /><path clip-path="url(#clip540)" d="M1312.98 32.4315 Q1306.98 32.4315 1303.5 37.1306 Q1300.02 41.7891 1300.02 49.9314 Q1300.02 58.0738 1303.46 62.7728 Q1306.94 67.4314 1312.98 67.4314 Q1318.93 67.4314 1322.42 62.7323 Q1325.9 58.0333 1325.9 49.9314 Q1325.9 41.8701 1322.42 37.1711 Q1318.93 32.4315 1312.98 32.4315 M1312.98 26.1121 Q1322.7 26.1121 1328.25 32.4315 Q1333.8 38.7509 1333.8 49.9314 Q1333.8 61.0714 1328.25 67.4314 Q1322.7 73.7508 1312.98 73.7508 Q1303.22 73.7508 1297.67 67.4314 Q1292.16 61.0714 1292.16 49.9314 Q1292.16 38.7509 1297.67 32.4315 Q1303.22 26.1121 1312.98 26.1121 Z" fill="#000000" fill-rule="nonzero" fill-opacity="1" /><path clip-path="url(#clip540)" d="M1375.08 28.5427 L1375.08 35.5912 Q1371.92 33.9709 1368.52 33.1607 Q1365.11 32.3505 1361.47 32.3505 Q1355.92 32.3505 1353.12 34.0519 Q1350.37 35.7533 1350.37 39.156 Q1350.37 41.7486 1352.35 43.2475 Q1354.34 44.7058 1360.33 46.0426 L1362.89 46.6097 Q1370.83 48.3111 1374.15 51.4303 Q1377.51 54.509 1377.51 60.0587 Q1377.51 66.3781 1372.49 70.0644 Q1367.5 73.7508 1358.75 73.7508 Q1355.11 73.7508 1351.14 73.0216 Q1347.21 72.3329 1342.83 70.9151 L1342.83 63.2184 Q1346.97 65.3654 1350.98 66.4591 Q1354.99 67.5124 1358.92 67.5124 Q1364.18 67.5124 1367.02 65.73 Q1369.85 63.9071 1369.85 60.6258 Q1369.85 57.5877 1367.79 55.9673 Q1365.76 54.3469 1358.83 52.8481 L1356.24 52.2405 Q1349.31 50.7821 1346.24 47.7845 Q1343.16 44.7463 1343.16 39.4801 Q1343.16 33.0797 1347.69 29.5959 Q1352.23 26.1121 1360.58 26.1121 Q1364.71 26.1121 1368.35 26.7198 Q1372 27.3274 1375.08 28.5427 Z" fill="#000000" fill-rule="nonzero" fill-opacity="1" /><path clip-path="url(#clip540)" d="M1418.3 28.5427 L1418.3 35.5912 Q1415.14 33.9709 1411.74 33.1607 Q1408.34 32.3505 1404.69 32.3505 Q1399.14 32.3505 1396.35 34.0519 Q1393.59 35.7533 1393.59 39.156 Q1393.59 41.7486 1395.58 43.2475 Q1397.56 44.7058 1403.56 46.0426 L1406.11 46.6097 Q1414.05 48.3111 1417.37 51.4303 Q1420.73 54.509 1420.73 60.0587 Q1420.73 66.3781 1415.71 70.0644 Q1410.73 73.7508 1401.98 73.7508 Q1398.33 73.7508 1394.36 73.0216 Q1390.43 72.3329 1386.06 70.9151 L1386.06 63.2184 Q1390.19 65.3654 1394.2 66.4591 Q1398.21 67.5124 1402.14 67.5124 Q1407.4 67.5124 1410.24 65.73 Q1413.08 63.9071 1413.08 60.6258 Q1413.08 57.5877 1411.01 55.9673 Q1408.98 54.3469 1402.06 52.8481 L1399.47 52.2405 Q1392.54 50.7821 1389.46 47.7845 Q1386.38 44.7463 1386.38 39.4801 Q1386.38 33.0797 1390.92 29.5959 Q1395.45 26.1121 1403.8 26.1121 Q1407.93 26.1121 1411.58 26.7198 Q1415.22 27.3274 1418.3 28.5427 Z" fill="#000000" fill-rule="nonzero" fill-opacity="1" /><path clip-path="url(#clip540)" d="M1491.62 28.9478 L1491.62 35.9153 Q1488.46 34.1734 1485.26 33.3227 Q1482.1 32.4315 1478.86 32.4315 Q1471.61 32.4315 1467.6 37.0496 Q1463.59 41.6271 1463.59 49.9314 Q1463.59 58.2358 1467.6 62.8538 Q1471.61 67.4314 1478.86 67.4314 Q1482.1 67.4314 1485.26 66.5807 Q1488.46 65.6895 1491.62 63.9476 L1491.62 70.8341 Q1488.5 72.2924 1485.14 73.0216 Q1481.82 73.7508 1478.05 73.7508 Q1467.8 73.7508 1461.77 67.3098 Q1455.73 60.8689 1455.73 49.9314 Q1455.73 38.832 1461.81 32.472 Q1467.93 26.1121 1478.54 26.1121 Q1481.98 26.1121 1485.26 26.8413 Q1488.54 27.5299 1491.62 28.9478 Z" fill="#000000" fill-rule="nonzero" fill-opacity="1" /><path clip-path="url(#clip540)" d="M1522.17 32.4315 Q1516.17 32.4315 1512.69 37.1306 Q1509.2 41.7891 1509.2 49.9314 Q1509.2 58.0738 1512.65 62.7728 Q1516.13 67.4314 1522.17 67.4314 Q1528.12 67.4314 1531.61 62.7323 Q1535.09 58.0333 1535.09 49.9314 Q1535.09 41.8701 1531.61 37.1711 Q1528.12 32.4315 1522.17 32.4315 M1522.17 26.1121 Q1531.89 26.1121 1537.44 32.4315 Q1542.99 38.7509 1542.99 49.9314 Q1542.99 61.0714 1537.44 67.4314 Q1531.89 73.7508 1522.17 73.7508 Q1512.4 73.7508 1506.85 67.4314 Q1501.35 61.0714 1501.35 49.9314 Q1501.35 38.7509 1506.85 32.4315 Q1512.4 26.1121 1522.17 26.1121 Z" fill="#000000" fill-rule="nonzero" fill-opacity="1" /><path clip-path="url(#clip540)" d="M1581.63 34.1734 Q1580.38 33.4443 1578.88 33.1202 Q1577.42 32.7556 1575.64 32.7556 Q1569.32 32.7556 1565.92 36.8875 Q1562.55 40.9789 1562.55 48.6757 L1562.55 72.576 L1555.06 72.576 L1555.06 27.2059 L1562.55 27.2059 L1562.55 34.2544 Q1564.9 30.1225 1568.67 28.1376 Q1572.44 26.1121 1577.83 26.1121 Q1578.6 26.1121 1579.53 26.2337 Q1580.46 26.3147 1581.59 26.5172 L1581.63 34.1734 Z" fill="#000000" fill-rule="nonzero" fill-opacity="1" /><path clip-path="url(#clip540)" d="M1614.28 34.1734 Q1613.03 33.4443 1611.53 33.1202 Q1610.07 32.7556 1608.29 32.7556 Q1601.97 32.7556 1598.57 36.8875 Q1595.2 40.9789 1595.2 48.6757 L1595.2 72.576 L1587.71 72.576 L1587.71 27.2059 L1595.2 27.2059 L1595.2 34.2544 Q1597.55 30.1225 1601.32 28.1376 Q1605.09 26.1121 1610.48 26.1121 Q1611.25 26.1121 1612.18 26.2337 Q1613.11 26.3147 1614.24 26.5172 L1614.28 34.1734 Z" fill="#000000" fill-rule="nonzero" fill-opacity="1" /><path clip-path="url(#clip540)" d="M1659.09 48.0275 L1659.09 51.6733 L1624.82 51.6733 Q1625.3 59.3701 1629.43 63.421 Q1633.61 67.4314 1641.02 67.4314 Q1645.31 67.4314 1649.32 66.3781 Q1653.38 65.3249 1657.35 63.2184 L1657.35 70.267 Q1653.34 71.9684 1649.12 72.8596 Q1644.91 73.7508 1640.57 73.7508 Q1629.72 73.7508 1623.36 67.4314 Q1617.04 61.1119 1617.04 50.3365 Q1617.04 39.1965 1623.03 32.6746 Q1629.07 26.1121 1639.28 26.1121 Q1648.43 26.1121 1653.74 32.0264 Q1659.09 37.9003 1659.09 48.0275 M1651.63 45.84 Q1651.55 39.7232 1648.19 36.0774 Q1644.87 32.4315 1639.36 32.4315 Q1633.12 32.4315 1629.35 35.9558 Q1625.63 39.4801 1625.06 45.8805 L1651.63 45.84 Z" fill="#000000" fill-rule="nonzero" fill-opacity="1" /><path clip-path="url(#clip540)" d="M1671.32 9.54393 L1678.77 9.54393 L1678.77 72.576 L1671.32 72.576 L1671.32 9.54393 Z" fill="#000000" fill-rule="nonzero" fill-opacity="1" /><path clip-path="url(#clip540)" d="M1714.99 49.7694 Q1705.96 49.7694 1702.47 51.8354 Q1698.99 53.9013 1698.99 58.8839 Q1698.99 62.8538 1701.58 65.2034 Q1704.21 67.5124 1708.71 67.5124 Q1714.91 67.5124 1718.64 63.1374 Q1722.4 58.7219 1722.4 51.4303 L1722.4 49.7694 L1714.99 49.7694 M1729.86 46.6907 L1729.86 72.576 L1722.4 72.576 L1722.4 65.6895 Q1719.85 69.8214 1716.04 71.8063 Q1712.24 73.7508 1706.73 73.7508 Q1699.76 73.7508 1695.63 69.8619 Q1691.54 65.9325 1691.54 59.3701 Q1691.54 51.7138 1696.64 47.825 Q1701.78 43.9361 1711.95 43.9361 L1722.4 43.9361 L1722.4 43.2069 Q1722.4 38.0623 1719 35.2672 Q1715.64 32.4315 1709.52 32.4315 Q1705.63 32.4315 1701.95 33.3632 Q1698.26 34.295 1694.86 36.1584 L1694.86 29.2718 Q1698.95 27.692 1702.8 26.9223 Q1706.65 26.1121 1710.29 26.1121 Q1720.13 26.1121 1725 31.2163 Q1729.86 36.3204 1729.86 46.6907 Z" fill="#000000" fill-rule="nonzero" fill-opacity="1" /><path clip-path="url(#clip540)" d="M1752.58 14.324 L1752.58 27.2059 L1767.94 27.2059 L1767.94 32.9987 L1752.58 32.9987 L1752.58 57.6282 Q1752.58 63.1779 1754.08 64.7578 Q1755.62 66.3376 1760.28 66.3376 L1767.94 66.3376 L1767.94 72.576 L1760.28 72.576 Q1751.65 72.576 1748.37 69.3758 Q1745.09 66.1351 1745.09 57.6282 L1745.09 32.9987 L1739.62 32.9987 L1739.62 27.2059 L1745.09 27.2059 L1745.09 14.324 L1752.58 14.324 Z" fill="#000000" fill-rule="nonzero" fill-opacity="1" /><path clip-path="url(#clip540)" d="M1777.74 27.2059 L1785.19 27.2059 L1785.19 72.576 L1777.74 72.576 L1777.74 27.2059 M1777.74 9.54393 L1785.19 9.54393 L1785.19 18.9825 L1777.74 18.9825 L1777.74 9.54393 Z" fill="#000000" fill-rule="nonzero" fill-opacity="1" /><path clip-path="url(#clip540)" d="M1818.37 32.4315 Q1812.37 32.4315 1808.89 37.1306 Q1805.41 41.7891 1805.41 49.9314 Q1805.41 58.0738 1808.85 62.7728 Q1812.33 67.4314 1818.37 67.4314 Q1824.32 67.4314 1827.81 62.7323 Q1831.29 58.0333 1831.29 49.9314 Q1831.29 41.8701 1827.81 37.1711 Q1824.32 32.4315 1818.37 32.4315 M1818.37 26.1121 Q1828.09 26.1121 1833.64 32.4315 Q1839.19 38.7509 1839.19 49.9314 Q1839.19 61.0714 1833.64 67.4314 Q1828.09 73.7508 1818.37 73.7508 Q1808.61 73.7508 1803.06 67.4314 Q1797.55 61.0714 1797.55 49.9314 Q1797.55 38.7509 1803.06 32.4315 Q1808.61 26.1121 1818.37 26.1121 Z" fill="#000000" fill-rule="nonzero" fill-opacity="1" /><path clip-path="url(#clip540)" d="M1889.26 45.1919 L1889.26 72.576 L1881.81 72.576 L1881.81 45.4349 Q1881.81 38.994 1879.29 35.7938 Q1876.78 32.5936 1871.76 32.5936 Q1865.72 32.5936 1862.24 36.4419 Q1858.76 40.2903 1858.76 46.9338 L1858.76 72.576 L1851.26 72.576 L1851.26 27.2059 L1858.76 27.2059 L1858.76 34.2544 Q1861.43 30.163 1865.04 28.1376 Q1868.68 26.1121 1873.42 26.1121 Q1881.24 26.1121 1885.25 30.9732 Q1889.26 35.7938 1889.26 45.1919 Z" fill="#000000" fill-rule="nonzero" fill-opacity="1" /><circle clip-path="url(#clip542)" cx="253.843" cy="1386.4" r="14.4" fill="#009af9" fill-rule="evenodd" fill-opacity="1" stroke="#000000" stroke-opacity="1" stroke-width="3.2"/>
<circle clip-path="url(#clip542)" cx="389.695" cy="1296.88" r="14.4" fill="#009af9" fill-rule="evenodd" fill-opacity="1" stroke="#000000" stroke-opacity="1" stroke-width="3.2"/>
<circle clip-path="url(#clip542)" cx="525.547" cy="1274.3" r="14.4" fill="#009af9" fill-rule="evenodd" fill-opacity="1" stroke="#000000" stroke-opacity="1" stroke-width="3.2"/>
<circle clip-path="url(#clip542)" cx="661.399" cy="1278.41" r="14.4" fill="#009af9" fill-rule="evenodd" fill-opacity="1" stroke="#000000" stroke-opacity="1" stroke-width="3.2"/>
<circle clip-path="url(#clip542)" cx="797.251" cy="1220.85" r="14.4" fill="#009af9" fill-rule="evenodd" fill-opacity="1" stroke="#000000" stroke-opacity="1" stroke-width="3.2"/>
<circle clip-path="url(#clip542)" cx="933.103" cy="1254.04" r="14.4" fill="#009af9" fill-rule="evenodd" fill-opacity="1" stroke="#000000" stroke-opacity="1" stroke-width="3.2"/>
<circle clip-path="url(#clip542)" cx="1068.95" cy="160.256" r="14.4" fill="#009af9" fill-rule="evenodd" fill-opacity="1" stroke="#000000" stroke-opacity="1" stroke-width="3.2"/>
<circle clip-path="url(#clip542)" cx="1204.81" cy="300.359" r="14.4" fill="#009af9" fill-rule="evenodd" fill-opacity="1" stroke="#000000" stroke-opacity="1" stroke-width="3.2"/>
<circle clip-path="url(#clip542)" cx="1340.66" cy="343.526" r="14.4" fill="#009af9" fill-rule="evenodd" fill-opacity="1" stroke="#000000" stroke-opacity="1" stroke-width="3.2"/>
<circle clip-path="url(#clip542)" cx="1476.51" cy="442.371" r="14.4" fill="#009af9" fill-rule="evenodd" fill-opacity="1" stroke="#000000" stroke-opacity="1" stroke-width="3.2"/>
<circle clip-path="url(#clip542)" cx="1612.36" cy="503.473" r="14.4" fill="#009af9" fill-rule="evenodd" fill-opacity="1" stroke="#000000" stroke-opacity="1" stroke-width="3.2"/>
<circle clip-path="url(#clip542)" cx="1748.21" cy="500.681" r="14.4" fill="#009af9" fill-rule="evenodd" fill-opacity="1" stroke="#000000" stroke-opacity="1" stroke-width="3.2"/>
<circle clip-path="url(#clip542)" cx="1884.07" cy="689.932" r="14.4" fill="#009af9" fill-rule="evenodd" fill-opacity="1" stroke="#000000" stroke-opacity="1" stroke-width="3.2"/>
<circle clip-path="url(#clip542)" cx="2019.92" cy="764.795" r="14.4" fill="#009af9" fill-rule="evenodd" fill-opacity="1" stroke="#000000" stroke-opacity="1" stroke-width="3.2"/>
<circle clip-path="url(#clip542)" cx="2155.77" cy="880.652" r="14.4" fill="#009af9" fill-rule="evenodd" fill-opacity="1" stroke="#000000" stroke-opacity="1" stroke-width="3.2"/>
<circle clip-path="url(#clip542)" cx="2291.62" cy="931.305" r="14.4" fill="#009af9" fill-rule="evenodd" fill-opacity="1" stroke="#000000" stroke-opacity="1" stroke-width="3.2"/>
<polyline clip-path="url(#clip542)" style="stroke:#009af9; stroke-linecap:round; stroke-linejoin:round; stroke-width:4; stroke-opacity:1; fill:none" points="253.843,1163.13 253.843,1386.4 "/>
<polyline clip-path="url(#clip542)" style="stroke:#009af9; stroke-linecap:round; stroke-linejoin:round; stroke-width:4; stroke-opacity:1; fill:none" points="389.695,1163.13 389.695,1296.88 "/>
<polyline clip-path="url(#clip542)" style="stroke:#009af9; stroke-linecap:round; stroke-linejoin:round; stroke-width:4; stroke-opacity:1; fill:none" points="525.547,1163.13 525.547,1274.3 "/>
<polyline clip-path="url(#clip542)" style="stroke:#009af9; stroke-linecap:round; stroke-linejoin:round; stroke-width:4; stroke-opacity:1; fill:none" points="661.399,1163.13 661.399,1278.41 "/>
<polyline clip-path="url(#clip542)" style="stroke:#009af9; stroke-linecap:round; stroke-linejoin:round; stroke-width:4; stroke-opacity:1; fill:none" points="797.251,1163.13 797.251,1220.85 "/>
<polyline clip-path="url(#clip542)" style="stroke:#009af9; stroke-linecap:round; stroke-linejoin:round; stroke-width:4; stroke-opacity:1; fill:none" points="933.103,1163.13 933.103,1254.04 "/>
<polyline clip-path="url(#clip542)" style="stroke:#009af9; stroke-linecap:round; stroke-linejoin:round; stroke-width:4; stroke-opacity:1; fill:none" points="1068.95,1163.13 1068.95,160.256 "/>
<polyline clip-path="url(#clip542)" style="stroke:#009af9; stroke-linecap:round; stroke-linejoin:round; stroke-width:4; stroke-opacity:1; fill:none" points="1204.81,1163.13 1204.81,300.359 "/>
<polyline clip-path="url(#clip542)" style="stroke:#009af9; stroke-linecap:round; stroke-linejoin:round; stroke-width:4; stroke-opacity:1; fill:none" points="1340.66,1163.13 1340.66,343.526 "/>
<polyline clip-path="url(#clip542)" style="stroke:#009af9; stroke-linecap:round; stroke-linejoin:round; stroke-width:4; stroke-opacity:1; fill:none" points="1476.51,1163.13 1476.51,442.371 "/>
<polyline clip-path="url(#clip542)" style="stroke:#009af9; stroke-linecap:round; stroke-linejoin:round; stroke-width:4; stroke-opacity:1; fill:none" points="1612.36,1163.13 1612.36,503.473 "/>
<polyline clip-path="url(#clip542)" style="stroke:#009af9; stroke-linecap:round; stroke-linejoin:round; stroke-width:4; stroke-opacity:1; fill:none" points="1748.21,1163.13 1748.21,500.681 "/>
<polyline clip-path="url(#clip542)" style="stroke:#009af9; stroke-linecap:round; stroke-linejoin:round; stroke-width:4; stroke-opacity:1; fill:none" points="1884.07,1163.13 1884.07,689.932 "/>
<polyline clip-path="url(#clip542)" style="stroke:#009af9; stroke-linecap:round; stroke-linejoin:round; stroke-width:4; stroke-opacity:1; fill:none" points="2019.92,1163.13 2019.92,764.795 "/>
<polyline clip-path="url(#clip542)" style="stroke:#009af9; stroke-linecap:round; stroke-linejoin:round; stroke-width:4; stroke-opacity:1; fill:none" points="2155.77,1163.13 2155.77,880.652 "/>
<polyline clip-path="url(#clip542)" style="stroke:#009af9; stroke-linecap:round; stroke-linejoin:round; stroke-width:4; stroke-opacity:1; fill:none" points="2291.62,1163.13 2291.62,931.305 "/>
<polyline clip-path="url(#clip542)" style="stroke:#000000; stroke-linecap:round; stroke-linejoin:round; stroke-width:4; stroke-opacity:1; fill:none" stroke-dasharray="16, 10" points="-1967.34,959.159 4512.8,959.159 "/>
<polyline clip-path="url(#clip542)" style="stroke:#000000; stroke-linecap:round; stroke-linejoin:round; stroke-width:4; stroke-opacity:1; fill:none" stroke-dasharray="16, 10" points="-1967.34,1367.09 4512.8,1367.09 "/>
</svg>
