<?xml version="1.0" encoding="utf-8"?>
<svg xmlns="http://www.w3.org/2000/svg" xmlns:xlink="http://www.w3.org/1999/xlink" width="600" height="400" viewBox="0 0 2400 1600">
<defs>
  <clipPath id="clip960">
    <rect x="0" y="0" width="2400" height="1600"/>
  </clipPath>
</defs>
<path clip-path="url(#clip960)" d="M0 1600 L2400 1600 L2400 0 L0 0  Z" fill="#ffffff" fill-rule="evenodd" fill-opacity="1"/>
<defs>
  <clipPath id="clip961">
    <rect x="480" y="0" width="1681" height="1600"/>
  </clipPath>
</defs>
<path clip-path="url(#clip960)" d="M255.977 1423.18 L2352.76 1423.18 L2352.76 47.2441 L255.977 47.2441  Z" fill="#ffffff" fill-rule="evenodd" fill-opacity="1"/>
<defs>
  <clipPath id="clip962">
    <rect x="255" y="47" width="2098" height="1377"/>
  </clipPath>
</defs>
<polyline clip-path="url(#clip962)" style="stroke:#000000; stroke-linecap:round; stroke-linejoin:round; stroke-width:2; stroke-opacity:0.1; fill:none" points="315.32,1423.18 315.32,47.2441 "/>
<polyline clip-path="url(#clip962)" style="stroke:#000000; stroke-linecap:round; stroke-linejoin:round; stroke-width:2; stroke-opacity:0.1; fill:none" points="711.731,1423.18 711.731,47.2441 "/>
<polyline clip-path="url(#clip962)" style="stroke:#000000; stroke-linecap:round; stroke-linejoin:round; stroke-width:2; stroke-opacity:0.1; fill:none" points="1108.14,1423.18 1108.14,47.2441 "/>
<polyline clip-path="url(#clip962)" style="stroke:#000000; stroke-linecap:round; stroke-linejoin:round; stroke-width:2; stroke-opacity:0.1; fill:none" points="1504.55,1423.18 1504.55,47.2441 "/>
<polyline clip-path="url(#clip962)" style="stroke:#000000; stroke-linecap:round; stroke-linejoin:round; stroke-width:2; stroke-opacity:0.1; fill:none" points="1900.97,1423.18 1900.97,47.2441 "/>
<polyline clip-path="url(#clip962)" style="stroke:#000000; stroke-linecap:round; stroke-linejoin:round; stroke-width:2; stroke-opacity:0.1; fill:none" points="2297.38,1423.18 2297.38,47.2441 "/>
<polyline clip-path="url(#clip962)" style="stroke:#000000; stroke-linecap:round; stroke-linejoin:round; stroke-width:2; stroke-opacity:0.1; fill:none" points="255.977,1368.6 2352.76,1368.6 "/>
<polyline clip-path="url(#clip962)" style="stroke:#000000; stroke-linecap:round; stroke-linejoin:round; stroke-width:2; stroke-opacity:0.1; fill:none" points="255.977,1060.51 2352.76,1060.51 "/>
<polyline clip-path="url(#clip962)" style="stroke:#000000; stroke-linecap:round; stroke-linejoin:round; stroke-width:2; stroke-opacity:0.1; fill:none" points="255.977,752.418 2352.76,752.418 "/>
<polyline clip-path="url(#clip962)" style="stroke:#000000; stroke-linecap:round; stroke-linejoin:round; stroke-width:2; stroke-opacity:0.1; fill:none" points="255.977,444.328 2352.76,444.328 "/>
<polyline clip-path="url(#clip962)" style="stroke:#000000; stroke-linecap:round; stroke-linejoin:round; stroke-width:2; stroke-opacity:0.1; fill:none" points="255.977,136.238 2352.76,136.238 "/>
<polyline clip-path="url(#clip960)" style="stroke:#000000; stroke-linecap:round; stroke-linejoin:round; stroke-width:4; stroke-opacity:1; fill:none" points="255.977,1423.18 2352.76,1423.18 "/>
<polyline clip-path="url(#clip960)" style="stroke:#000000; stroke-linecap:round; stroke-linejoin:round; stroke-width:4; stroke-opacity:1; fill:none" points="315.32,1423.18 315.32,1404.28 "/>
<polyline clip-path="url(#clip960)" style="stroke:#000000; stroke-linecap:round; stroke-linejoin:round; stroke-width:4; stroke-opacity:1; fill:none" points="711.731,1423.18 711.731,1404.28 "/>
<polyline clip-path="url(#clip960)" style="stroke:#000000; stroke-linecap:round; stroke-linejoin:round; stroke-width:4; stroke-opacity:1; fill:none" points="1108.14,1423.18 1108.14,1404.28 "/>
<polyline clip-path="url(#clip960)" style="stroke:#000000; stroke-linecap:round; stroke-linejoin:round; stroke-width:4; stroke-opacity:1; fill:none" points="1504.55,1423.18 1504.55,1404.28 "/>
<polyline clip-path="url(#clip960)" style="stroke:#000000; stroke-linecap:round; stroke-linejoin:round; stroke-width:4; stroke-opacity:1; fill:none" points="1900.97,1423.18 1900.97,1404.28 "/>
<polyline clip-path="url(#clip960)" style="stroke:#000000; stroke-linecap:round; stroke-linejoin:round; stroke-width:4; stroke-opacity:1; fill:none" points="2297.38,1423.18 2297.38,1404.28 "/>
<path clip-path="url(#clip960)" d="M315.32 1454.1 Q311.709 1454.1 309.88 1457.66 Q308.075 1461.2 308.075 1468.33 Q308.075 1475.44 309.88 1479.01 Q311.709 1482.55 315.32 1482.55 Q318.954 1482.55 320.76 1479.01 Q322.588 1475.44 322.588 1468.33 Q322.588 1461.2 320.76 1457.66 Q318.954 1454.1 315.32 1454.1 M315.32 1450.39 Q321.13 1450.39 324.186 1455 Q327.264 1459.58 327.264 1468.33 Q327.264 1477.06 324.186 1481.67 Q321.13 1486.25 315.32 1486.25 Q309.51 1486.25 306.431 1481.67 Q303.376 1477.06 303.376 1468.33 Q303.376 1459.58 306.431 1455 Q309.51 1450.39 315.32 1450.39 Z" fill="#000000" fill-rule="nonzero" fill-opacity="1" /><path clip-path="url(#clip960)" d="M702.113 1481.64 L709.752 1481.64 L709.752 1455.28 L701.442 1456.95 L701.442 1452.69 L709.706 1451.02 L714.382 1451.02 L714.382 1481.64 L722.021 1481.64 L722.021 1485.58 L702.113 1485.58 L702.113 1481.64 Z" fill="#000000" fill-rule="nonzero" fill-opacity="1" /><path clip-path="url(#clip960)" d="M1102.8 1481.64 L1119.12 1481.64 L1119.12 1485.58 L1097.17 1485.58 L1097.17 1481.64 Q1099.83 1478.89 1104.42 1474.26 Q1109.02 1469.61 1110.2 1468.27 Q1112.45 1465.74 1113.33 1464.01 Q1114.23 1462.25 1114.23 1460.56 Q1114.23 1457.8 1112.29 1456.07 Q1110.37 1454.33 1107.26 1454.33 Q1105.06 1454.33 1102.61 1455.09 Q1100.18 1455.86 1097.4 1457.41 L1097.4 1452.69 Q1100.23 1451.55 1102.68 1450.97 Q1105.13 1450.39 1107.17 1450.39 Q1112.54 1450.39 1115.74 1453.08 Q1118.93 1455.77 1118.93 1460.26 Q1118.93 1462.39 1118.12 1464.31 Q1117.33 1466.2 1115.23 1468.8 Q1114.65 1469.47 1111.55 1472.69 Q1108.44 1475.88 1102.8 1481.64 Z" fill="#000000" fill-rule="nonzero" fill-opacity="1" /><path clip-path="url(#clip960)" d="M1508.8 1466.95 Q1512.16 1467.66 1514.03 1469.93 Q1515.93 1472.2 1515.93 1475.53 Q1515.93 1480.65 1512.41 1483.45 Q1508.89 1486.25 1502.41 1486.25 Q1500.24 1486.25 1497.92 1485.81 Q1495.63 1485.39 1493.18 1484.54 L1493.18 1480.02 Q1495.12 1481.16 1497.44 1481.74 Q1499.75 1482.32 1502.27 1482.32 Q1506.67 1482.32 1508.96 1480.58 Q1511.28 1478.84 1511.28 1475.53 Q1511.28 1472.48 1509.13 1470.77 Q1507 1469.03 1503.18 1469.03 L1499.15 1469.03 L1499.15 1465.19 L1503.36 1465.19 Q1506.81 1465.19 1508.64 1463.82 Q1510.47 1462.43 1510.47 1459.84 Q1510.47 1457.18 1508.57 1455.77 Q1506.7 1454.33 1503.18 1454.33 Q1501.26 1454.33 1499.06 1454.75 Q1496.86 1455.16 1494.22 1456.04 L1494.22 1451.88 Q1496.88 1451.14 1499.2 1450.77 Q1501.53 1450.39 1503.59 1450.39 Q1508.92 1450.39 1512.02 1452.83 Q1515.12 1455.23 1515.12 1459.35 Q1515.12 1462.22 1513.48 1464.21 Q1511.83 1466.18 1508.8 1466.95 Z" fill="#000000" fill-rule="nonzero" fill-opacity="1" /><path clip-path="url(#clip960)" d="M1903.98 1455.09 L1892.17 1473.54 L1903.98 1473.54 L1903.98 1455.09 M1902.75 1451.02 L1908.63 1451.02 L1908.63 1473.54 L1913.56 1473.54 L1913.56 1477.43 L1908.63 1477.43 L1908.63 1485.58 L1903.98 1485.58 L1903.98 1477.43 L1888.37 1477.43 L1888.37 1472.92 L1902.75 1451.02 Z" fill="#000000" fill-rule="nonzero" fill-opacity="1" /><path clip-path="url(#clip960)" d="M2287.66 1451.02 L2306.01 1451.02 L2306.01 1454.96 L2291.94 1454.96 L2291.94 1463.43 Q2292.96 1463.08 2293.97 1462.92 Q2294.99 1462.73 2296.01 1462.73 Q2301.8 1462.73 2305.18 1465.9 Q2308.56 1469.08 2308.56 1474.49 Q2308.56 1480.07 2305.09 1483.17 Q2301.61 1486.25 2295.29 1486.25 Q2293.12 1486.25 2290.85 1485.88 Q2288.6 1485.51 2286.2 1484.77 L2286.2 1480.07 Q2288.28 1481.2 2290.5 1481.76 Q2292.72 1482.32 2295.2 1482.32 Q2299.21 1482.32 2301.54 1480.21 Q2303.88 1478.1 2303.88 1474.49 Q2303.88 1470.88 2301.54 1468.77 Q2299.21 1466.67 2295.2 1466.67 Q2293.33 1466.67 2291.45 1467.08 Q2289.6 1467.5 2287.66 1468.38 L2287.66 1451.02 Z" fill="#000000" fill-rule="nonzero" fill-opacity="1" /><path clip-path="url(#clip960)" d="M1174.54 1520.52 L1214.74 1520.52 L1214.74 1525.93 L1197.87 1525.93 L1197.87 1568.04 L1191.41 1568.04 L1191.41 1525.93 L1174.54 1525.93 L1174.54 1520.52 Z" fill="#000000" fill-rule="nonzero" fill-opacity="1" /><path clip-path="url(#clip960)" d="M1218.68 1532.4 L1224.54 1532.4 L1224.54 1568.04 L1218.68 1568.04 L1218.68 1532.4 M1218.68 1518.52 L1224.54 1518.52 L1224.54 1525.93 L1218.68 1525.93 L1218.68 1518.52 Z" fill="#000000" fill-rule="nonzero" fill-opacity="1" /><path clip-path="url(#clip960)" d="M1264.55 1539.24 Q1266.75 1535.29 1269.8 1533.41 Q1272.86 1531.54 1276.99 1531.54 Q1282.56 1531.54 1285.59 1535.45 Q1288.61 1539.33 1288.61 1546.53 L1288.61 1568.04 L1282.72 1568.04 L1282.72 1546.72 Q1282.72 1541.59 1280.91 1539.11 Q1279.09 1536.63 1275.37 1536.63 Q1270.82 1536.63 1268.18 1539.65 Q1265.54 1542.68 1265.54 1547.9 L1265.54 1568.04 L1259.65 1568.04 L1259.65 1546.72 Q1259.65 1541.56 1257.83 1539.11 Q1256.02 1536.63 1252.23 1536.63 Q1247.74 1536.63 1245.1 1539.68 Q1242.46 1542.71 1242.46 1547.9 L1242.46 1568.04 L1236.57 1568.04 L1236.57 1532.4 L1242.46 1532.4 L1242.46 1537.93 Q1244.47 1534.66 1247.27 1533.1 Q1250.07 1531.54 1253.92 1531.54 Q1257.8 1531.54 1260.51 1533.51 Q1263.24 1535.48 1264.55 1539.24 Z" fill="#000000" fill-rule="nonzero" fill-opacity="1" /><path clip-path="url(#clip960)" d="M1330.78 1548.76 L1330.78 1551.62 L1303.86 1551.62 Q1304.24 1557.67 1307.49 1560.85 Q1310.76 1564 1316.59 1564 Q1319.96 1564 1323.11 1563.17 Q1326.3 1562.35 1329.42 1560.69 L1329.42 1566.23 Q1326.26 1567.57 1322.95 1568.27 Q1319.64 1568.97 1316.24 1568.97 Q1307.71 1568.97 1302.71 1564 Q1297.75 1559.04 1297.75 1550.57 Q1297.75 1541.82 1302.46 1536.69 Q1307.2 1531.54 1315.22 1531.54 Q1322.41 1531.54 1326.58 1536.18 Q1330.78 1540.8 1330.78 1548.76 M1324.93 1547.04 Q1324.86 1542.23 1322.22 1539.37 Q1319.61 1536.5 1315.28 1536.5 Q1310.38 1536.5 1307.42 1539.27 Q1304.49 1542.04 1304.05 1547.07 L1324.93 1547.04 Z" fill="#000000" fill-rule="nonzero" fill-opacity="1" /><path clip-path="url(#clip960)" d="M1360.58 1518.52 L1374.07 1518.52 L1374.07 1523.07 L1366.43 1523.07 L1366.43 1572.09 L1374.07 1572.09 L1374.07 1576.64 L1360.58 1576.64 L1360.58 1518.52 Z" fill="#000000" fill-rule="nonzero" fill-opacity="1" /><path clip-path="url(#clip960)" d="M1409.27 1533.45 L1409.27 1538.98 Q1406.79 1537.71 1404.12 1537.07 Q1401.44 1536.44 1398.58 1536.44 Q1394.22 1536.44 1392.02 1537.77 Q1389.86 1539.11 1389.86 1541.79 Q1389.86 1543.82 1391.42 1545 Q1392.98 1546.15 1397.69 1547.2 L1399.69 1547.64 Q1405.93 1548.98 1408.54 1551.43 Q1411.18 1553.85 1411.18 1558.21 Q1411.18 1563.17 1407.24 1566.07 Q1403.32 1568.97 1396.45 1568.97 Q1393.58 1568.97 1390.46 1568.39 Q1387.38 1567.85 1383.94 1566.74 L1383.94 1560.69 Q1387.18 1562.38 1390.34 1563.24 Q1393.49 1564.07 1396.57 1564.07 Q1400.71 1564.07 1402.94 1562.66 Q1405.17 1561.23 1405.17 1558.65 Q1405.17 1556.27 1403.54 1554.99 Q1401.95 1553.72 1396.51 1552.54 L1394.47 1552.07 Q1389.03 1550.92 1386.61 1548.56 Q1384.19 1546.18 1384.19 1542.04 Q1384.19 1537.01 1387.76 1534.27 Q1391.32 1531.54 1397.88 1531.54 Q1401.13 1531.54 1403.99 1532.01 Q1406.85 1532.49 1409.27 1533.45 Z" fill="#000000" fill-rule="nonzero" fill-opacity="1" /><path clip-path="url(#clip960)" d="M1434.2 1518.52 L1434.2 1576.64 L1420.7 1576.64 L1420.7 1572.09 L1428.31 1572.09 L1428.31 1523.07 L1420.7 1523.07 L1420.7 1518.52 L1434.2 1518.52 Z" fill="#000000" fill-rule="nonzero" fill-opacity="1" /><polyline clip-path="url(#clip960)" style="stroke:#000000; stroke-linecap:round; stroke-linejoin:round; stroke-width:4; stroke-opacity:1; fill:none" points="255.977,1423.18 255.977,47.2441 "/>
<polyline clip-path="url(#clip960)" style="stroke:#000000; stroke-linecap:round; stroke-linejoin:round; stroke-width:4; stroke-opacity:1; fill:none" points="255.977,1368.6 274.875,1368.6 "/>
<polyline clip-path="url(#clip960)" style="stroke:#000000; stroke-linecap:round; stroke-linejoin:round; stroke-width:4; stroke-opacity:1; fill:none" points="255.977,1060.51 274.875,1060.51 "/>
<polyline clip-path="url(#clip960)" style="stroke:#000000; stroke-linecap:round; stroke-linejoin:round; stroke-width:4; stroke-opacity:1; fill:none" points="255.977,752.418 274.875,752.418 "/>
<polyline clip-path="url(#clip960)" style="stroke:#000000; stroke-linecap:round; stroke-linejoin:round; stroke-width:4; stroke-opacity:1; fill:none" points="255.977,444.328 274.875,444.328 "/>
<polyline clip-path="url(#clip960)" style="stroke:#000000; stroke-linecap:round; stroke-linejoin:round; stroke-width:4; stroke-opacity:1; fill:none" points="255.977,136.238 274.875,136.238 "/>
<path clip-path="url(#clip960)" d="M114.631 1369.05 L144.306 1369.05 L144.306 1372.98 L114.631 1372.98 L114.631 1369.05 Z" fill="#000000" fill-rule="nonzero" fill-opacity="1" /><path clip-path="url(#clip960)" d="M164.399 1354.4 Q160.788 1354.4 158.959 1357.96 Q157.153 1361.5 157.153 1368.63 Q157.153 1375.74 158.959 1379.3 Q160.788 1382.85 164.399 1382.85 Q168.033 1382.85 169.839 1379.3 Q171.667 1375.74 171.667 1368.63 Q171.667 1361.5 169.839 1357.96 Q168.033 1354.4 164.399 1354.4 M164.399 1350.69 Q170.209 1350.69 173.264 1355.3 Q176.343 1359.88 176.343 1368.63 Q176.343 1377.36 173.264 1381.97 Q170.209 1386.55 164.399 1386.55 Q158.589 1386.55 155.51 1381.97 Q152.454 1377.36 152.454 1368.63 Q152.454 1359.88 155.51 1355.3 Q158.589 1350.69 164.399 1350.69 Z" fill="#000000" fill-rule="nonzero" fill-opacity="1" /><path clip-path="url(#clip960)" d="M184.561 1380 L189.445 1380 L189.445 1385.88 L184.561 1385.88 L184.561 1380 Z" fill="#000000" fill-rule="nonzero" fill-opacity="1" /><path clip-path="url(#clip960)" d="M203.658 1381.94 L219.977 1381.94 L219.977 1385.88 L198.033 1385.88 L198.033 1381.94 Q200.695 1379.19 205.278 1374.56 Q209.885 1369.91 211.065 1368.56 Q213.311 1366.04 214.19 1364.3 Q215.093 1362.54 215.093 1360.85 Q215.093 1358.1 213.149 1356.36 Q211.227 1354.63 208.125 1354.63 Q205.926 1354.63 203.473 1355.39 Q201.042 1356.16 198.264 1357.71 L198.264 1352.98 Q201.088 1351.85 203.542 1351.27 Q205.996 1350.69 208.033 1350.69 Q213.403 1350.69 216.598 1353.38 Q219.792 1356.06 219.792 1360.55 Q219.792 1362.68 218.982 1364.6 Q218.195 1366.5 216.088 1369.1 Q215.51 1369.77 212.408 1372.98 Q209.306 1376.18 203.658 1381.94 Z" fill="#000000" fill-rule="nonzero" fill-opacity="1" /><path clip-path="url(#clip960)" d="M114.26 1060.96 L143.936 1060.96 L143.936 1064.89 L114.26 1064.89 L114.26 1060.96 Z" fill="#000000" fill-rule="nonzero" fill-opacity="1" /><path clip-path="url(#clip960)" d="M164.028 1046.31 Q160.417 1046.31 158.589 1049.87 Q156.783 1053.41 156.783 1060.54 Q156.783 1067.65 158.589 1071.21 Q160.417 1074.76 164.028 1074.76 Q167.663 1074.76 169.468 1071.21 Q171.297 1067.65 171.297 1060.54 Q171.297 1053.41 169.468 1049.87 Q167.663 1046.31 164.028 1046.31 M164.028 1042.6 Q169.839 1042.6 172.894 1047.21 Q175.973 1051.79 175.973 1060.54 Q175.973 1069.27 172.894 1073.88 Q169.839 1078.46 164.028 1078.46 Q158.218 1078.46 155.14 1073.88 Q152.084 1069.27 152.084 1060.54 Q152.084 1051.79 155.14 1047.21 Q158.218 1042.6 164.028 1042.6 Z" fill="#000000" fill-rule="nonzero" fill-opacity="1" /><path clip-path="url(#clip960)" d="M184.19 1071.91 L189.075 1071.91 L189.075 1077.79 L184.19 1077.79 L184.19 1071.91 Z" fill="#000000" fill-rule="nonzero" fill-opacity="1" /><path clip-path="url(#clip960)" d="M200.07 1073.85 L207.709 1073.85 L207.709 1047.49 L199.399 1049.15 L199.399 1044.89 L207.662 1043.23 L212.338 1043.23 L212.338 1073.85 L219.977 1073.85 L219.977 1077.79 L200.07 1077.79 L200.07 1073.85 Z" fill="#000000" fill-rule="nonzero" fill-opacity="1" /><path clip-path="url(#clip960)" d="M162.802 738.217 Q159.19 738.217 157.362 741.781 Q155.556 745.323 155.556 752.453 Q155.556 759.559 157.362 763.124 Q159.19 766.666 162.802 766.666 Q166.436 766.666 168.241 763.124 Q170.07 759.559 170.07 752.453 Q170.07 745.323 168.241 741.781 Q166.436 738.217 162.802 738.217 M162.802 734.513 Q168.612 734.513 171.667 739.119 Q174.746 743.703 174.746 752.453 Q174.746 761.18 171.667 765.786 Q168.612 770.369 162.802 770.369 Q156.991 770.369 153.913 765.786 Q150.857 761.18 150.857 752.453 Q150.857 743.703 153.913 739.119 Q156.991 734.513 162.802 734.513 Z" fill="#000000" fill-rule="nonzero" fill-opacity="1" /><path clip-path="url(#clip960)" d="M182.963 763.818 L187.848 763.818 L187.848 769.698 L182.963 769.698 L182.963 763.818 Z" fill="#000000" fill-rule="nonzero" fill-opacity="1" /><path clip-path="url(#clip960)" d="M208.033 738.217 Q204.422 738.217 202.593 741.781 Q200.787 745.323 200.787 752.453 Q200.787 759.559 202.593 763.124 Q204.422 766.666 208.033 766.666 Q211.667 766.666 213.473 763.124 Q215.301 759.559 215.301 752.453 Q215.301 745.323 213.473 741.781 Q211.667 738.217 208.033 738.217 M208.033 734.513 Q213.843 734.513 216.898 739.119 Q219.977 743.703 219.977 752.453 Q219.977 761.18 216.898 765.786 Q213.843 770.369 208.033 770.369 Q202.223 770.369 199.144 765.786 Q196.088 761.18 196.088 752.453 Q196.088 743.703 199.144 739.119 Q202.223 734.513 208.033 734.513 Z" fill="#000000" fill-rule="nonzero" fill-opacity="1" /><path clip-path="url(#clip960)" d="M164.028 430.127 Q160.417 430.127 158.589 433.692 Q156.783 437.233 156.783 444.363 Q156.783 451.469 158.589 455.034 Q160.417 458.576 164.028 458.576 Q167.663 458.576 169.468 455.034 Q171.297 451.469 171.297 444.363 Q171.297 437.233 169.468 433.692 Q167.663 430.127 164.028 430.127 M164.028 426.423 Q169.839 426.423 172.894 431.03 Q175.973 435.613 175.973 444.363 Q175.973 453.09 172.894 457.696 Q169.839 462.28 164.028 462.28 Q158.218 462.28 155.14 457.696 Q152.084 453.09 152.084 444.363 Q152.084 435.613 155.14 431.03 Q158.218 426.423 164.028 426.423 Z" fill="#000000" fill-rule="nonzero" fill-opacity="1" /><path clip-path="url(#clip960)" d="M184.19 455.729 L189.075 455.729 L189.075 461.608 L184.19 461.608 L184.19 455.729 Z" fill="#000000" fill-rule="nonzero" fill-opacity="1" /><path clip-path="url(#clip960)" d="M200.07 457.673 L207.709 457.673 L207.709 431.307 L199.399 432.974 L199.399 428.715 L207.662 427.048 L212.338 427.048 L212.338 457.673 L219.977 457.673 L219.977 461.608 L200.07 461.608 L200.07 457.673 Z" fill="#000000" fill-rule="nonzero" fill-opacity="1" /><path clip-path="url(#clip960)" d="M164.399 122.037 Q160.788 122.037 158.959 125.602 Q157.153 129.144 157.153 136.273 Q157.153 143.38 158.959 146.944 Q160.788 150.486 164.399 150.486 Q168.033 150.486 169.839 146.944 Q171.667 143.38 171.667 136.273 Q171.667 129.144 169.839 125.602 Q168.033 122.037 164.399 122.037 M164.399 118.333 Q170.209 118.333 173.264 122.94 Q176.343 127.523 176.343 136.273 Q176.343 145 173.264 149.606 Q170.209 154.19 164.399 154.19 Q158.589 154.19 155.51 149.606 Q152.454 145 152.454 136.273 Q152.454 127.523 155.51 122.94 Q158.589 118.333 164.399 118.333 Z" fill="#000000" fill-rule="nonzero" fill-opacity="1" /><path clip-path="url(#clip960)" d="M184.561 147.639 L189.445 147.639 L189.445 153.518 L184.561 153.518 L184.561 147.639 Z" fill="#000000" fill-rule="nonzero" fill-opacity="1" /><path clip-path="url(#clip960)" d="M203.658 149.583 L219.977 149.583 L219.977 153.518 L198.033 153.518 L198.033 149.583 Q200.695 146.829 205.278 142.199 Q209.885 137.546 211.065 136.204 Q213.311 133.681 214.19 131.945 Q215.093 130.185 215.093 128.495 Q215.093 125.741 213.149 124.005 Q211.227 122.269 208.125 122.269 Q205.926 122.269 203.473 123.033 Q201.042 123.796 198.264 125.347 L198.264 120.625 Q201.088 119.491 203.542 118.912 Q205.996 118.333 208.033 118.333 Q213.403 118.333 216.598 121.019 Q219.792 123.704 219.792 128.195 Q219.792 130.324 218.982 132.245 Q218.195 134.144 216.088 136.736 Q215.51 137.407 212.408 140.625 Q209.306 143.819 203.658 149.583 Z" fill="#000000" fill-rule="nonzero" fill-opacity="1" /><path clip-path="url(#clip960)" d="M20.8447 823.791 Q20.8447 830.793 26.0645 834.931 Q31.2844 839.037 40.2919 839.037 Q49.2675 839.037 54.4874 834.931 Q59.7073 830.793 59.7073 823.791 Q59.7073 816.788 54.4874 812.714 Q49.2675 808.609 40.2919 808.609 Q31.2844 808.609 26.0645 812.714 Q20.8447 816.788 20.8447 823.791 M15.6248 823.791 Q15.6248 813.797 22.3406 807.813 Q29.0246 801.829 40.2919 801.829 Q51.5274 801.829 58.2432 807.813 Q64.9272 813.797 64.9272 823.791 Q64.9272 833.817 58.2432 839.832 Q51.5592 845.816 40.2919 845.816 Q29.0246 845.816 22.3406 839.832 Q15.6248 833.817 15.6248 823.791 Z" fill="#000000" fill-rule="nonzero" fill-opacity="1" /><path clip-path="url(#clip960)" d="M49.9359 792.631 L28.3562 792.631 L28.3562 786.774 L49.7131 786.774 Q54.7739 786.774 57.3202 784.801 Q59.8346 782.827 59.8346 778.881 Q59.8346 774.138 56.8109 771.401 Q53.7872 768.632 48.5673 768.632 L28.3562 768.632 L28.3562 762.775 L64.0042 762.775 L64.0042 768.632 L58.5296 768.632 Q61.7762 770.764 63.3676 773.597 Q64.9272 776.398 64.9272 780.122 Q64.9272 786.265 61.1078 789.448 Q57.2883 792.631 49.9359 792.631 M27.4968 777.894 L27.4968 777.894 Z" fill="#000000" fill-rule="nonzero" fill-opacity="1" /><path clip-path="url(#clip960)" d="M18.2347 744.92 L28.3562 744.92 L28.3562 732.857 L32.9077 732.857 L32.9077 744.92 L52.2594 744.92 Q56.6199 744.92 57.8613 743.742 Q59.1026 742.533 59.1026 738.872 L59.1026 732.857 L64.0042 732.857 L64.0042 738.872 Q64.0042 745.652 61.4897 748.23 Q58.9434 750.808 52.2594 750.808 L32.9077 750.808 L32.9077 755.105 L28.3562 755.105 L28.3562 750.808 L18.2347 750.808 L18.2347 744.92 Z" fill="#000000" fill-rule="nonzero" fill-opacity="1" /><path clip-path="url(#clip960)" d="M58.657 719.489 L77.5631 719.489 L77.5631 725.377 L28.3562 725.377 L28.3562 719.489 L33.7671 719.489 Q30.5842 717.643 29.0564 714.842 Q27.4968 712.009 27.4968 708.094 Q27.4968 701.601 32.6531 697.559 Q37.8093 693.485 46.212 693.485 Q54.6147 693.485 59.771 697.559 Q64.9272 701.601 64.9272 708.094 Q64.9272 712.009 63.3994 714.842 Q61.8398 717.643 58.657 719.489 M46.212 699.564 Q39.7508 699.564 36.0905 702.238 Q32.3984 704.879 32.3984 709.526 Q32.3984 714.173 36.0905 716.847 Q39.7508 719.489 46.212 719.489 Q52.6732 719.489 56.3653 716.847 Q60.0256 714.173 60.0256 709.526 Q60.0256 704.879 56.3653 702.238 Q52.6732 699.564 46.212 699.564 Z" fill="#000000" fill-rule="nonzero" fill-opacity="1" /><path clip-path="url(#clip960)" d="M49.9359 684.382 L28.3562 684.382 L28.3562 678.525 L49.7131 678.525 Q54.7739 678.525 57.3202 676.552 Q59.8346 674.579 59.8346 670.632 Q59.8346 665.889 56.8109 663.152 Q53.7872 660.383 48.5673 660.383 L28.3562 660.383 L28.3562 654.527 L64.0042 654.527 L64.0042 660.383 L58.5296 660.383 Q61.7762 662.516 63.3676 665.348 Q64.9272 668.149 64.9272 671.873 Q64.9272 678.016 61.1078 681.199 Q57.2883 684.382 49.9359 684.382 M27.4968 669.645 L27.4968 669.645 Z" fill="#000000" fill-rule="nonzero" fill-opacity="1" /><path clip-path="url(#clip960)" d="M18.2347 636.671 L28.3562 636.671 L28.3562 624.608 L32.9077 624.608 L32.9077 636.671 L52.2594 636.671 Q56.6199 636.671 57.8613 635.493 Q59.1026 634.284 59.1026 630.623 L59.1026 624.608 L64.0042 624.608 L64.0042 630.623 Q64.0042 637.403 61.4897 639.981 Q58.9434 642.559 52.2594 642.559 L32.9077 642.559 L32.9077 646.856 L28.3562 646.856 L28.3562 642.559 L18.2347 642.559 L18.2347 636.671 Z" fill="#000000" fill-rule="nonzero" fill-opacity="1" /><polyline clip-path="url(#clip962)" style="stroke:#009af9; stroke-linecap:round; stroke-linejoin:round; stroke-width:4; stroke-opacity:1; fill:none" points="315.32,752.418 319.284,752.418 323.248,752.418 323.248,721.965 327.212,721.965 327.212,692.409 331.176,692.409 331.176,664.01 335.141,664.01 335.141,636.999 339.105,636.999 339.105,611.576 343.069,611.576 343.069,587.909 347.033,587.909 347.033,566.127 350.997,566.127 350.997,546.322 354.961,546.322 354.961,528.546 358.925,528.546 358.925,512.813 362.889,512.813 362.889,499.101 366.853,499.101 366.853,487.348 370.818,487.348 370.818,477.461 374.782,477.461 374.782,469.314 378.746,469.314 378.746,462.755 382.71,462.755 382.71,457.605 386.674,457.605 386.674,453.667 390.638,453.667 390.638,450.73 394.602,450.73 394.602,448.568 398.566,448.568 398.566,446.953 402.53,446.953 402.53,506.558 406.495,506.558 406.495,564.457 410.459,564.457 410.459,619.909 414.423,619.909 414.423,672.242 418.387,672.242 418.387,720.861 422.351,720.861 422.351,765.258 426.315,765.258 426.315,805.019 430.279,805.019 430.279,839.833 434.243,839.833 434.243,869.488 438.208,869.488 438.208,893.879 442.172,893.879 442.172,913.006 446.136,913.006 446.136,926.965 450.1,926.965 450.1,935.951 454.064,935.951 454.064,940.247 458.028,940.247 458.028,940.217 461.992,940.217 461.992,875.389 465.956,875.389 465.956,808.96 469.92,808.96 469.92,741.992 473.885,741.992 473.885,675.532 477.849,675.532 477.849,610.586 481.813,610.586 481.813,548.106 485.777,548.106 485.777,488.969 489.741,488.969 489.741,433.961 493.705,433.961 493.705,383.771 497.669,383.771 497.669,338.971 501.633,338.971 501.633,300.016 505.597,300.016 505.597,267.233 509.562,267.233 509.562,240.822 513.526,240.822 513.526,220.854 517.49,220.854 517.49,207.273 521.454,207.273 521.454,260.809 525.418,260.809 525.418,318.47 529.382,318.47 529.382,379.341 533.346,379.341 533.346,442.468 537.31,442.468 537.31,506.876 541.275,506.876 541.275,571.591 545.239,571.591 545.239,635.66 549.203,635.66 549.203,698.164 553.167,698.164 553.167,758.242 557.131,758.242 557.131,815.102 561.095,815.102 561.095,868.035 565.059,868.035 565.059,916.428 569.023,916.428 569.023,959.771 572.987,959.771 572.987,997.666 576.952,997.666 576.952,1029.83 580.916,1029.83 580.916,995.198 584.88,995.198 584.88,956.419 588.844,956.419 588.844,914.081 592.808,914.081 592.808,868.829 596.772,868.829 596.772,821.347 600.736,821.347 600.736,833.251 604.7,833.251 604.7,842.565 608.664,842.565 608.664,849.491 612.629,849.491 612.629,854.266 616.593,854.266 616.593,857.164 620.557,857.164 620.557,797.575 624.521,797.575 624.521,738.515 628.485,738.515 628.485,680.834 632.449,680.834 632.449,625.329 636.413,625.329 636.413,572.736 640.377,572.736 640.377,584.62 644.341,584.62 644.341,598.853 648.306,598.853 648.306,615.394 652.27,615.394 652.27,634.153 656.234,634.153 656.234,654.997 660.198,654.997 660.198,616.847 664.162,616.847 664.162,582.195 668.126,582.195 668.126,551.319 672.09,551.319 672.09,524.42 676.054,524.42 676.054,501.617 680.019,501.617 680.019,482.948 683.983,482.948 683.983,468.371 687.947,468.371 687.947,457.768 691.911,457.768 691.911,450.949 695.875,450.949 695.875,447.657 699.839,447.657 699.839,508.484 703.803,508.484 703.803,570.363 707.767,570.363 707.767,632.367 711.731,632.367 711.731,693.59 715.696,693.59 715.696,753.165 719.66,753.165 719.66,810.282 723.624,810.282 723.624,864.197 727.588,864.197 727.588,914.249 731.552,914.249 731.552,959.871 735.516,959.871 735.516,1000.6 739.48,1000.6 739.48,1036.06 743.444,1036.06 743.444,1066.02 747.408,1066.02 747.408,1090.34 751.373,1090.34 751.373,1108.99 755.337,1108.99 755.337,1122.05 759.301,1122.05 759.301,1129.73 763.265,1129.73 763.265,1132.3 767.229,1132.3 767.229,1130.14 771.193,1130.14 771.193,1123.71 775.157,1123.71 775.157,1113.53 779.121,1113.53 779.121,1100.18 783.085,1100.18 783.085,1084.28 787.05,1084.28 787.05,1066.49 791.014,1066.49 791.014,1047.46 794.978,1047.46 794.978,1027.87 798.942,1027.87 798.942,1008.37 802.906,1008.37 802.906,989.601 806.87,989.601 806.87,972.155 810.834,972.155 810.834,956.584 814.798,956.584 814.798,943.386 818.763,943.386 818.763,872.086 822.727,872.086 822.727,805.745 826.691,805.745 826.691,745.168 830.655,745.168 830.655,691.028 834.619,691.028 834.619,643.852 838.583,643.852 838.583,664.925 842.547,664.925 842.547,691.775 846.511,691.775 846.511,723.958 850.475,723.958 850.475,760.936 854.44,760.936 854.44,802.088 858.404,802.088 858.404,846.731 862.368,846.731 862.368,894.126 866.332,894.126 866.332,943.505 870.296,943.505 870.296,994.076 874.26,994.076 874.26,1045.05 878.224,1045.05 878.224,1095.64 882.188,1095.64 882.188,1145.1 886.152,1145.1 886.152,1192.73 890.117,1192.73 890.117,1237.86 894.081,1237.86 894.081,1279.91 898.045,1279.91 898.045,1257.46 902.009,1257.46 902.009,1232.79 905.973,1232.79 905.973,1206.06 909.937,1206.06 909.937,1177.51 913.901,1177.51 913.901,1147.38 917.865,1147.38 917.865,1176.86 921.829,1176.86 921.829,1203.54 925.794,1203.54 925.794,1227.22 929.758,1227.22 929.758,1247.77 933.722,1247.77 933.722,1265.09 937.686,1265.09 937.686,1218.27 941.65,1218.27 941.65,1170.07 945.614,1170.07 945.614,1121.09 949.578,1121.09 949.578,1071.97 953.542,1071.97 953.542,1023.31 957.507,1023.31 957.507,1036.62 961.471,1036.62 961.471,1049.75 965.435,1049.75 965.435,1062.68 969.399,1062.68 969.399,1075.42 973.363,1075.42 973.363,1087.95 977.327,1087.95 977.327,1039.37 981.291,1039.37 981.291,992.373 985.255,992.373 985.255,947.476 989.219,947.476 989.219,905.147 993.184,905.147 993.184,865.79 997.148,865.79 997.148,890.649 1001.11,890.649 1001.11,917.29 1005.08,917.29 1005.08,945.386 1009.04,945.386 1009.04,974.588 1013,974.588 1013,1004.53 1016.97,1004.53 1016.97,1034.85 1020.93,1034.85 1020.93,1065.18 1024.9,1065.18 1024.9,1095.15 1028.86,1095.15 1028.86,1124.43 1032.82,1124.43 1032.82,1152.69 1036.79,1152.69 1036.79,1179.63 1040.75,1179.63 1040.75,1204.99 1044.72,1204.99 1044.72,1228.55 1048.68,1228.55 1048.68,1250.12 1052.65,1250.12 1052.65,1269.55 1056.61,1269.55 1056.61,1286.74 1060.57,1286.74 1060.57,1301.64 1064.54,1301.64 1064.54,1314.25 1068.5,1314.25 1068.5,1324.58 1072.47,1324.58 1072.47,1332.71 1076.43,1332.71 1076.43,1277.86 1080.39,1277.86 1080.39,1222.87 1084.36,1222.87 1084.36,1168.44 1088.32,1168.44 1088.32,1115.25 1092.29,1115.25 1092.29,1063.91 1096.25,1063.91 1096.25,1015.01 1100.21,1015.01 1100.21,969.075 1104.18,969.075 1104.18,926.546 1108.14,926.546 1108.14,887.795 1112.11,887.795 1112.11,853.114 1116.07,853.114 1116.07,822.705 1120.04,822.705 1120.04,796.689 1124,796.689 1124,775.097 1127.96,775.097 1127.96,757.876 1131.93,757.876 1131.93,744.893 1135.89,744.893 1135.89,735.938 1139.86,735.938 1139.86,730.732 1143.82,730.732 1143.82,728.934 1147.78,728.934 1147.78,730.148 1151.75,730.148 1151.75,733.936 1155.71,733.936 1155.71,739.824 1159.68,739.824 1159.68,747.314 1163.64,747.314 1163.64,755.894 1167.6,755.894 1167.6,765.051 1171.57,765.051 1171.57,774.276 1175.53,774.276 1175.53,843.985 1179.5,843.985 1179.5,911.012 1183.46,911.012 1183.46,974.408 1187.43,974.408 1187.43,1033.32 1191.39,1033.32 1191.39,1087.01 1195.35,1087.01 1195.35,1073.94 1199.32,1073.94 1199.32,1056.33 1203.28,1056.33 1203.28,1034.35 1207.25,1034.35 1207.25,1008.24 1211.21,1008.24 1211.21,978.327 1215.17,978.327 1215.17,945.008 1219.14,945.008 1219.14,908.736 1223.1,908.736 1223.1,870.011 1227.07,870.011 1227.07,829.372 1231.03,829.372 1231.03,787.379 1234.99,787.379 1234.99,744.607 1238.96,744.607 1238.96,701.633 1242.92,701.633 1242.92,659.022 1246.89,659.022 1246.89,617.32 1250.85,617.32 1250.85,577.04 1254.82,577.04 1254.82,599.561 1258.78,599.561 1258.78,622.609 1262.74,622.609 1262.74,646.033 1266.71,646.033 1266.71,669.678 1270.67,669.678 1270.67,693.387 1274.64,693.387 1274.64,656.094 1278.6,656.094 1278.6,620.346 1282.56,620.346 1282.56,586.512 1286.53,586.512 1286.53,554.918 1290.49,554.918 1290.49,525.837 1294.46,525.837 1294.46,560.395 1298.42,560.395 1298.42,596.052 1302.38,596.052 1302.38,632.394 1306.35,632.394 1306.35,669.001 1310.31,669.001 1310.31,705.454 1314.28,705.454 1314.28,741.352 1318.24,741.352 1318.24,776.31 1322.21,776.31 1322.21,809.969 1326.17,809.969 1326.17,842.007 1330.13,842.007 1330.13,872.137 1334.1,872.137 1334.1,900.117 1338.06,900.117 1338.06,925.749 1342.03,925.749 1342.03,948.888 1345.99,948.888 1345.99,969.437 1349.95,969.437 1349.95,987.349 1353.92,987.349 1353.92,941.725 1357.88,941.725 1357.88,895.317 1361.85,895.317 1361.85,848.744 1365.81,848.744 1365.81,802.612 1369.77,802.612 1369.77,757.506 1373.74,757.506 1373.74,774.88 1377.7,774.88 1377.7,792.539 1381.67,792.539 1381.67,810.417 1385.63,810.417 1385.63,828.441 1389.6,828.441 1389.6,846.535 1393.56,846.535 1393.56,864.624 1397.52,864.624 1397.52,882.628 1401.49,882.628 1401.49,900.472 1405.45,900.472 1405.45,918.081 1409.42,918.081 1409.42,935.386 1413.38,935.386 1413.38,891.415 1417.34,891.415 1417.34,848.812 1421.31,848.812 1421.31,808.045 1425.27,808.045 1425.27,769.534 1429.24,769.534 1429.24,733.648 1433.2,733.648 1433.2,761.602 1437.16,761.602 1437.16,790.94 1441.13,790.94 1441.13,821.323 1445.09,821.323 1445.09,852.396 1449.06,852.396 1449.06,883.8 1453.02,883.8 1453.02,915.178 1456.98,915.178 1456.98,946.179 1460.95,946.179 1460.95,976.469 1464.91,976.469 1464.91,1005.74 1468.88,1005.74 1468.88,1033.69 1472.84,1033.69 1472.84,1060.08 1476.81,1060.08 1476.81,1084.69 1480.77,1084.69 1480.77,1107.33 1484.73,1107.33 1484.73,1127.87 1488.7,1127.87 1488.7,1146.21 1492.66,1146.21 1492.66,1162.29 1496.63,1162.29 1496.63,1176.13 1500.59,1176.13 1500.59,1187.73 1504.55,1187.73 1504.55,1197.18 1508.52,1197.18 1508.52,1204.6 1512.48,1204.6 1512.48,1149.22 1516.45,1149.22 1516.45,1093.91 1520.41,1093.91 1520.41,1039.4 1524.37,1039.4 1524.37,986.388 1528.34,986.388 1528.34,935.502 1532.3,935.502 1532.3,948.238 1536.27,948.238 1536.27,962.414 1540.23,962.414 1540.23,977.954 1544.2,977.954 1544.2,994.753 1548.16,994.753 1548.16,1012.69 1552.12,1012.69 1552.12,970.697 1556.09,970.697 1556.09,931.321 1560.05,931.321 1560.05,894.897 1564.02,894.897 1564.02,861.7 1567.98,861.7 1567.98,831.937 1571.94,831.937 1571.94,866.65 1575.91,866.65 1575.91,903.206 1579.87,903.206 1579.87,941.082 1583.84,941.082 1583.84,979.741 1587.8,979.741 1587.8,1018.65 1591.76,1018.65 1591.76,1057.27 1595.73,1057.27 1595.73,1095.09 1599.69,1095.09 1599.69,1131.64 1603.66,1131.64 1603.66,1166.47 1607.62,1166.47 1607.62,1199.18 1611.59,1199.18 1611.59,1229.41 1615.55,1229.41 1615.55,1256.88 1619.51,1256.88 1619.51,1281.36 1623.48,1281.36 1623.48,1302.67 1627.44,1302.67 1627.44,1320.71 1631.41,1320.71 1631.41,1335.45 1635.37,1335.45 1635.37,1346.9 1639.33,1346.9 1639.33,1355.17 1643.3,1355.17 1643.3,1360.38 1647.26,1360.38 1647.26,1362.75 1651.23,1362.75 1651.23,1362.51 1655.19,1362.51 1655.19,1359.96 1659.15,1359.96 1659.15,1355.43 1663.12,1355.43 1663.12,1349.25 1667.08,1349.25 1667.08,1341.81 1671.05,1341.81 1671.05,1333.48 1675.01,1333.48 1675.01,1324.66 1678.98,1324.66 1678.98,1315.72 1682.94,1315.72 1682.94,1307.04 1686.9,1307.04 1686.9,1298.97 1690.87,1298.97 1690.87,1291.85 1694.83,1291.85 1694.83,1285.97 1698.8,1285.97 1698.8,1281.59 1702.76,1281.59 1702.76,1278.95 1706.72,1278.95 1706.72,1278.23 1710.69,1278.23 1710.69,1279.56 1714.65,1279.56 1714.65,1283.03 1718.62,1283.03 1718.62,1288.69 1722.58,1288.69 1722.58,1296.54 1726.54,1296.54 1726.54,1306.53 1730.51,1306.53 1730.51,1318.58 1734.47,1318.58 1734.47,1332.55 1738.44,1332.55 1738.44,1348.29 1742.4,1348.29 1742.4,1365.59 1746.37,1365.59 1746.37,1384.24 1750.33,1384.24 1750.33,1343.08 1754.29,1343.08 1754.29,1304.56 1758.26,1304.56 1758.26,1268.92 1762.22,1268.92 1762.22,1236.36 1766.19,1236.36 1766.19,1206.99 1770.15,1206.99 1770.15,1180.89 1774.11,1180.89 1774.11,1158.06 1778.08,1158.06 1778.08,1138.44 1782.04,1138.44 1782.04,1121.91 1786.01,1121.91 1786.01,1108.31 1789.97,1108.31 1789.97,1158.33 1793.93,1158.33 1793.93,1208.99 1797.9,1208.99 1797.9,1259.5 1801.86,1259.5 1801.86,1309.06 1805.83,1309.06 1805.83,1356.92 1809.79,1356.92 1809.79,1341.48 1813.76,1341.48 1813.76,1324.8 1817.72,1324.8 1817.72,1306.86 1821.68,1306.86 1821.68,1287.64 1825.65,1287.64 1825.65,1267.18 1829.61,1267.18 1829.61,1245.51 1833.58,1245.51 1833.58,1222.72 1837.54,1222.72 1837.54,1198.92 1841.5,1198.92 1841.5,1174.21 1845.47,1174.21 1845.47,1148.74 1849.43,1148.74 1849.43,1122.67 1853.4,1122.67 1853.4,1096.16 1857.36,1096.16 1857.36,1069.38 1861.32,1069.38 1861.32,1042.52 1865.29,1042.52 1865.29,1015.73 1869.25,1015.73 1869.25,1050.11 1873.22,1050.11 1873.22,1083.12 1877.18,1083.12 1877.18,1114.4 1881.15,1114.4 1881.15,1143.63 1885.11,1143.63 1885.11,1170.54 1889.07,1170.54 1889.07,1133.99 1893.04,1133.99 1893.04,1096.53 1897,1096.53 1897,1058.56 1900.97,1058.56 1900.97,1020.48 1904.93,1020.48 1904.93,982.713 1908.89,982.713 1908.89,1006.54 1912.86,1006.54 1912.86,1029.63 1916.82,1029.63 1916.82,1051.8 1920.79,1051.8 1920.79,1072.89 1924.75,1072.89 1924.75,1092.77 1928.71,1092.77 1928.71,1111.33 1932.68,1111.33 1932.68,1128.48 1936.64,1128.48 1936.64,1144.17 1940.61,1144.17 1940.61,1158.36 1944.57,1158.36 1944.57,1171.07 1948.54,1171.07 1948.54,1121.4 1952.5,1121.4 1952.5,1072.12 1956.46,1072.12 1956.46,1023.82 1960.43,1023.82 1960.43,977.051 1964.39,977.051 1964.39,932.344 1968.36,932.344 1968.36,951.067 1972.32,951.067 1972.32,970.927 1976.28,970.927 1976.28,991.746 1980.25,991.746 1980.25,1013.33 1984.21,1013.33 1984.21,1035.47 1988.18,1035.47 1988.18,1057.95 1992.14,1057.95 1992.14,1080.57 1996.1,1080.57 1996.1,1103.09 2000.07,1103.09 2000.07,1125.32 2004.03,1125.32 2004.03,1147.06 2008,1147.06 2008,1168.11 2011.96,1168.11 2011.96,1188.32 2015.93,1188.32 2015.93,1207.52 2019.89,1207.52 2019.89,1225.59 2023.85,1225.59 2023.85,1242.44 2027.82,1242.44 2027.82,1257.97 2031.78,1257.97 2031.78,1272.13 2035.75,1272.13 2035.75,1284.91 2039.71,1284.91 2039.71,1296.29 2043.67,1296.29 2043.67,1306.31 2047.64,1306.31 2047.64,1315 2051.6,1315 2051.6,1322.45 2055.57,1322.45 2055.57,1328.75 2059.53,1328.75 2059.53,1333.99 2063.49,1333.99 2063.49,1338.32 2067.46,1338.32 2067.46,1341.86 2071.42,1341.86 2071.42,1344.77 2075.39,1344.77 2075.39,1347.19 2079.35,1347.19 2079.35,1349.28 2083.32,1349.28 2083.32,1351.2 2087.28,1351.2 2087.28,1292.2 2091.24,1292.2 2091.24,1235.12 2095.21,1235.12 2095.21,1180.62 2099.17,1180.62 2099.17,1129.29 2103.14,1129.29 2103.14,1081.64 2107.1,1081.64 2107.1,1038.11 2111.06,1038.11 2111.06,999.046 2115.03,999.046 2115.03,964.684 2118.99,964.684 2118.99,935.18 2122.96,935.18 2122.96,910.59 2126.92,910.59 2126.92,890.874 2130.88,890.874 2130.88,875.903 2134.85,875.903 2134.85,865.461 2138.81,865.461 2138.81,859.253 2142.78,859.253 2142.78,856.914 2146.74,856.914 2146.74,858.015 2150.7,858.015 2150.7,862.079 2154.67,862.079 2154.67,868.586 2158.63,868.586 2158.63,876.986 2162.6,876.986 2162.6,886.714 2166.56,886.714 2166.56,958.104 2170.53,958.104 2170.53,1027.89 2174.49,1027.89 2174.49,1095 2178.45,1095 2178.45,1158.45 2182.42,1158.45 2182.42,1217.35 2186.38,1217.35 2186.38,1210.02 2190.35,1210.02 2190.35,1198.5 2194.31,1198.5 2194.31,1182.81 2198.27,1182.81 2198.27,1163.02 2202.24,1163.02 2202.24,1139.32 2206.2,1139.32 2206.2,1172.84 2210.17,1172.84 2210.17,1201.21 2214.13,1201.21 2214.13,1224.28 2218.09,1224.28 2218.09,1242.01 2222.06,1242.01 2222.06,1254.46 2226.02,1254.46 2226.02,1200.89 2229.99,1200.89 2229.99,1144.27 2233.95,1144.27 2233.95,1085.44 2237.92,1085.44 2237.92,1025.3 2241.88,1025.3 2241.88,964.722 2245.84,964.722 2245.84,965.494 2249.81,965.494 2249.81,965.752 2253.77,965.752 2253.77,965.771 2257.74,965.771 2257.74,965.82 2261.7,965.82 2261.7,966.156 2265.66,966.156 2265.66,967.022 2269.63,967.022 2269.63,968.638 2273.59,968.638 2273.59,971.203 2277.56,971.203 2277.56,974.887 2281.52,974.887 2281.52,979.832 2285.48,979.832 2285.48,986.147 2289.45,986.147 2289.45,993.91 2293.41,993.91 2293.41,1003.16 "/>
<polyline clip-path="url(#clip962)" style="stroke:#e26f46; stroke-linecap:round; stroke-linejoin:round; stroke-width:4; stroke-opacity:1; fill:none" points="315.32,739.819 319.284,1071.21 323.248,1030.06 327.212,976.354 331.176,923.864 335.141,873.157 339.105,824.3 343.069,777.33 347.033,732.282 350.997,689.182 354.961,648.052 358.925,608.907 362.889,571.761 366.853,536.618 370.818,503.48 374.782,472.343 378.746,443.202 382.71,416.043 386.674,390.85 390.638,367.605 394.602,346.283 398.566,327.047 402.53,370.935 406.495,416.174 410.459,460.356 414.423,503.335 418.387,545.059 422.351,585.48 426.315,624.558 430.279,662.258 434.243,698.546 438.208,733.397 442.172,766.787 446.136,798.698 450.1,829.114 454.064,858.026 458.028,885.238 461.992,849.678 465.956,813.086 469.92,777.838 473.885,744.05 477.849,711.742 481.813,680.932 485.777,651.63 489.741,623.843 493.705,597.577 497.669,572.83 501.633,549.6 505.597,527.88 509.562,507.66 513.526,488.928 517.49,471.856 521.454,517.496 525.418,564.086 529.382,609.23 533.346,652.796 537.31,694.744 541.275,735.041 545.239,773.661 549.203,810.581 553.167,845.785 557.131,879.259 561.095,910.995 565.059,940.989 569.023,969.241 572.987,995.755 576.952,1020.35 580.916,981.968 584.88,942.365 588.844,903.931 592.808,866.794 596.772,831.178 600.736,858.183 604.7,886.094 608.664,912.558 612.629,937.485 616.593,960.688 620.557,921.105 624.521,880.485 628.485,841.214 632.449,803.415 636.413,767.307 640.377,793.984 644.341,821.726 648.306,848.173 652.27,873.23 656.234,896.704 660.198,857.526 664.162,817.44 668.126,778.825 672.09,741.798 676.054,706.384 680.019,672.6 683.983,640.46 687.947,609.972 691.911,581.141 695.875,554.155 699.839,590.081 703.803,627.172 707.767,663.046 711.731,697.581 715.696,730.75 719.66,762.53 723.624,792.902 727.588,821.854 731.552,849.375 735.516,875.458 739.48,900.101 743.444,923.303 747.408,945.069 751.373,965.405 755.337,984.321 759.301,1001.83 763.265,1017.95 767.229,1032.69 771.193,1046.08 775.157,1058.13 779.121,1068.88 783.085,1078.35 787.05,1086.57 791.014,1093.56 794.978,1099.37 798.942,1104.02 802.906,1107.54 806.87,1109.99 810.834,1111.38 814.798,1111.57 818.763,1049.54 822.727,987.05 826.691,926.525 830.655,868.109 834.619,812.043 838.583,819.44 842.547,828.597 846.511,837.17 850.475,845.077 854.44,852.323 858.404,858.918 862.368,864.87 866.332,870.193 870.296,874.898 874.26,879 878.224,882.512 882.188,885.449 886.152,887.827 890.117,889.664 894.081,890.786 898.045,830.144 902.009,769.494 905.973,711.228 909.937,655.471 913.901,602.443 917.865,613.235 921.829,626.122 925.794,638.739 929.758,650.982 933.722,662.647 937.686,612.653 941.65,562.728 945.614,515.238 949.578,470.28 953.542,428.05 957.507,449.613 961.471,473.222 965.435,496.489 969.399,519.288 973.363,541.396 977.327,501.711 981.291,461.945 985.255,424.446 989.219,389.294 993.184,356.67 997.148,387.627 1001.11,420.402 1005.08,452.598 1009.04,484.077 1013,514.792 1016.97,544.705 1020.93,573.778 1024.9,601.978 1028.86,629.276 1032.82,655.644 1036.79,681.059 1040.75,705.501 1044.72,728.953 1048.68,751.399 1052.65,772.828 1056.61,793.231 1060.57,812.602 1064.54,830.938 1068.5,848.237 1072.47,864.312 1076.43,818.098 1080.39,771.339 1084.36,726.418 1088.32,683.45 1092.29,642.459 1096.25,603.462 1100.21,566.469 1104.18,531.486 1108.14,498.513 1112.11,467.546 1116.07,438.579 1120.04,411.597 1124,386.586 1127.96,363.524 1131.93,342.388 1135.89,323.151 1139.86,305.781 1143.82,290.246 1147.78,276.509 1151.75,264.53 1155.71,254.27 1159.68,245.682 1163.64,238.722 1167.6,233.342 1171.57,229.681 1175.53,288.756 1179.5,348.776 1183.46,407.313 1187.43,464.208 1191.39,519.203 1195.35,511.171 1199.32,501.799 1203.28,493.415 1207.25,486.085 1211.21,479.788 1215.17,474.498 1219.14,470.187 1223.1,466.828 1227.07,464.39 1231.03,462.842 1234.99,462.155 1238.96,462.295 1242.92,463.23 1246.89,464.927 1250.85,467.54 1254.82,532.105 1258.78,596.848 1262.74,659.361 1266.71,719.504 1270.67,777.041 1274.64,770.867 1278.6,762.691 1282.56,754.864 1286.53,747.476 1290.49,740.718 1294.46,795.658 1298.42,850.554 1302.38,903.029 1306.35,952.973 1310.31,1000.37 1314.28,1045.21 1318.24,1087.49 1322.21,1127.21 1326.17,1164.39 1330.13,1199.04 1334.1,1231.18 1338.06,1260.84 1342.03,1288.04 1345.99,1312.82 1349.95,1335.03 1353.92,1293.65 1357.88,1250.45 1361.85,1207.86 1365.81,1166.04 1369.77,1125.25 1373.74,1146.61 1377.7,1168.44 1381.67,1188.43 1385.63,1206.5 1389.6,1222.7 1393.56,1237.05 1397.52,1249.6 1401.49,1260.39 1405.45,1269.47 1409.42,1276.68 1413.38,1221.02 1417.34,1164.27 1421.31,1108.85 1425.27,1054.93 1429.24,1002.76 1433.2,1013.47 1437.16,1025.36 1441.13,1036.12 1445.09,1045.68 1449.06,1054.06 1453.02,1061.28 1456.98,1067.38 1460.95,1072.38 1464.91,1076.32 1468.88,1079.23 1472.84,1081.14 1476.81,1082.08 1480.77,1082.1 1484.73,1081.23 1488.7,1079.51 1492.66,1076.97 1496.63,1073.64 1500.59,1069.58 1504.55,1064.82 1508.52,1059.2 1512.48,991.695 1516.45,924.086 1520.41,858.783 1524.37,795.928 1528.34,735.762 1532.3,739.391 1536.27,745.11 1540.23,750.568 1544.2,755.679 1548.16,760.252 1552.12,703.222 1556.09,646.331 1560.05,591.957 1564.02,540.21 1567.98,491.297 1571.94,506.295 1575.91,523.467 1579.87,540.435 1583.84,557.081 1587.8,573.379 1591.76,589.304 1595.73,604.835 1599.69,619.951 1603.66,634.636 1607.62,648.871 1611.59,662.644 1615.55,675.939 1619.51,688.747 1623.48,701.057 1627.44,712.86 1631.41,724.149 1635.37,734.92 1639.33,745.167 1643.3,754.888 1647.26,764.081 1651.23,772.747 1655.19,780.886 1659.15,788.5 1663.12,795.592 1667.08,802.168 1671.05,808.231 1675.01,813.789 1678.98,818.848 1682.94,823.417 1686.9,827.503 1690.87,831.118 1694.83,834.271 1698.8,836.973 1702.76,839.235 1706.72,841.069 1710.69,842.489 1714.65,843.507 1718.62,844.136 1722.58,844.39 1726.54,844.284 1730.51,843.831 1734.47,843.046 1738.44,841.945 1742.4,840.541 1746.37,838.661 1750.33,775.252 1754.29,712.068 1758.26,651.498 1762.22,593.662 1766.19,538.589 1770.15,486.295 1774.11,436.79 1778.08,390.078 1782.04,346.156 1786.01,305.203 1789.97,328.272 1793.93,353.603 1797.9,378.797 1801.86,403.715 1805.83,428.12 1809.79,390.901 1813.76,353.755 1817.72,319.018 1821.68,286.761 1825.65,256.964 1829.61,229.597 1833.58,204.628 1837.54,182.02 1841.5,161.731 1845.47,143.719 1849.43,127.933 1853.4,114.324 1857.36,102.836 1861.32,93.4141 1865.29,86.1857 1869.25,142.159 1873.22,199.531 1877.18,255.863 1881.15,310.981 1885.11,364.618 1889.07,355.631 1893.04,345.694 1897,337.122 1900.97,329.966 1904.93,324.378 1908.89,381.388 1912.86,439.212 1916.82,495.435 1920.79,549.906 1924.75,602.565 1928.71,653.365 1932.68,702.262 1936.64,749.22 1940.61,794.208 1944.57,837.013 1948.54,816.547 1952.5,794.533 1956.46,773.337 1960.43,753.06 1964.39,733.905 1968.36,776.947 1972.32,820.453 1976.28,862.052 1980.25,901.637 1984.21,939.195 1988.18,974.719 1992.14,1008.21 1996.1,1039.67 2000.07,1069.1 2004.03,1096.53 2008,1121.96 2011.96,1145.41 2015.93,1166.91 2019.89,1186.5 2023.85,1204.19 2027.82,1220.02 2031.78,1234.03 2035.75,1246.25 2039.71,1256.74 2043.67,1265.53 2047.64,1272.67 2051.6,1278.2 2055.57,1282.19 2059.53,1284.68 2063.49,1285.72 2067.46,1285.36 2071.42,1283.67 2075.39,1280.7 2079.35,1276.5 2083.32,1270.95 2087.28,1203.03 2091.24,1134.54 2095.21,1067.91 2099.17,1003.31 2103.14,940.802 2107.1,880.455 2111.06,822.318 2115.03,766.436 2118.99,712.847 2122.96,661.585 2126.92,612.674 2130.88,566.134 2134.85,521.977 2138.81,480.211 2142.78,440.837 2146.74,403.85 2150.7,369.242 2154.67,336.998 2158.63,307.099 2162.6,279.709 2166.56,315.869 2170.53,353.808 2174.49,391.116 2178.45,427.648 2182.42,463.159 2186.38,436.531 2190.35,409.459 2194.31,384.277 2198.27,361.053 2202.24,339.954 2206.2,382.024 2210.17,425.491 2214.13,467.948 2218.09,509.253 2222.06,549.166 2226.02,526.573 2229.99,503.174 2233.95,481.308 2237.92,461.051 2241.88,442.576 2245.84,486.934 2249.81,532.362 2253.77,576.462 2257.74,619.098 2261.7,660.229 2265.66,699.82 2269.63,737.841 2273.59,774.268 2277.56,809.079 2281.52,842.259 2285.48,873.796 2289.45,903.684 2293.41,931.919 "/>
<polyline clip-path="url(#clip962)" style="stroke:#3da44d; stroke-linecap:round; stroke-linejoin:round; stroke-width:4; stroke-opacity:1; fill:none" points="315.32,752.418 319.284,752.418 323.248,721.965 327.212,692.409 331.176,664.01 335.141,636.999 339.105,611.576 343.069,587.909 347.033,566.127 350.997,546.322 354.961,528.546 358.925,512.813 362.889,499.101 366.853,487.348 370.818,477.461 374.782,469.314 378.746,462.755 382.71,457.605 386.674,453.667 390.638,450.73 394.602,448.568 398.566,446.953 402.53,506.558 406.495,564.457 410.459,619.909 414.423,672.242 418.387,720.861 422.351,765.258 426.315,805.019 430.279,839.833 434.243,869.488 438.208,893.879 442.172,913.006 446.136,926.965 450.1,935.951 454.064,940.247 458.028,940.217 461.992,875.389 465.956,808.96 469.92,741.992 473.885,675.532 477.849,610.586 481.813,548.106 485.777,488.969 489.741,433.961 493.705,383.771 497.669,338.971 501.633,300.016 505.597,267.233 509.562,240.822 513.526,220.854 517.49,207.273 521.454,260.809 525.418,318.47 529.382,379.341 533.346,442.468 537.31,506.876 541.275,571.591 545.239,635.66 549.203,698.164 553.167,758.242 557.131,815.102 561.095,868.035 565.059,916.428 569.023,959.771 572.987,997.666 576.952,1029.83 580.916,995.198 584.88,956.419 588.844,914.081 592.808,868.829 596.772,821.347 600.736,833.251 604.7,842.565 608.664,849.491 612.629,854.266 616.593,857.164 620.557,797.575 624.521,738.515 628.485,680.834 632.449,625.329 636.413,572.736 640.377,584.62 644.341,598.853 648.306,615.394 652.27,634.153 656.234,654.997 660.198,616.847 664.162,582.195 668.126,551.319 672.09,524.42 676.054,501.617 680.019,482.948 683.983,468.371 687.947,457.768 691.911,450.949 695.875,447.657 699.839,508.484 703.803,570.363 707.767,632.367 711.731,693.59 715.696,753.165 719.66,810.282 723.624,864.197 727.588,914.249 731.552,959.871 735.516,1000.6 739.48,1036.06 743.444,1066.02 747.408,1090.34 751.373,1108.99 755.337,1122.05 759.301,1129.73 763.265,1132.3 767.229,1130.14 771.193,1123.71 775.157,1113.53 779.121,1100.18 783.085,1084.28 787.05,1066.49 791.014,1047.46 794.978,1027.87 798.942,1008.37 802.906,989.601 806.87,972.155 810.834,956.584 814.798,943.386 818.763,872.086 822.727,805.745 826.691,745.168 830.655,691.028 834.619,643.852 838.583,664.925 842.547,691.775 846.511,723.958 850.475,760.936 854.44,802.088 858.404,846.731 862.368,894.126 866.332,943.505 870.296,994.076 874.26,1045.05 878.224,1095.64 882.188,1145.1 886.152,1192.73 890.117,1237.86 894.081,1279.91 898.045,1257.46 902.009,1232.79 905.973,1206.06 909.937,1177.51 913.901,1147.38 917.865,1176.86 921.829,1203.54 925.794,1227.22 929.758,1247.77 933.722,1265.09 937.686,1218.27 941.65,1170.07 945.614,1121.09 949.578,1071.97 953.542,1023.31 957.507,1036.62 961.471,1049.75 965.435,1062.68 969.399,1075.42 973.363,1087.95 977.327,1039.37 981.291,992.373 985.255,947.476 989.219,905.147 993.184,865.79 997.148,890.649 1001.11,917.29 1005.08,945.386 1009.04,974.588 1013,1004.53 1016.97,1034.85 1020.93,1065.18 1024.9,1095.15 1028.86,1124.43 1032.82,1152.69 1036.79,1179.63 1040.75,1204.99 1044.72,1228.55 1048.68,1250.12 1052.65,1269.55 1056.61,1286.74 1060.57,1301.64 1064.54,1314.25 1068.5,1324.58 1072.47,1332.71 1076.43,1277.86 1080.39,1222.87 1084.36,1168.44 1088.32,1115.25 1092.29,1063.91 1096.25,1015.01 1100.21,969.075 1104.18,926.546 1108.14,887.795 1112.11,853.114 1116.07,822.705 1120.04,796.689 1124,775.097 1127.96,757.876 1131.93,744.893 1135.89,735.938 1139.86,730.732 1143.82,728.934 1147.78,730.148 1151.75,733.936 1155.71,739.824 1159.68,747.314 1163.64,755.894 1167.6,765.051 1171.57,774.276 1175.53,843.985 1179.5,911.012 1183.46,974.408 1187.43,1033.32 1191.39,1087.01 1195.35,1073.94 1199.32,1056.33 1203.28,1034.35 1207.25,1008.24 1211.21,978.327 1215.17,945.008 1219.14,908.736 1223.1,870.011 1227.07,829.372 1231.03,787.379 1234.99,744.607 1238.96,701.633 1242.92,659.022 1246.89,617.32 1250.85,577.04 1254.82,599.561 1258.78,622.609 1262.74,646.033 1266.71,669.678 1270.67,693.387 1274.64,656.094 1278.6,620.346 1282.56,586.512 1286.53,554.918 1290.49,525.837 1294.46,560.395 1298.42,596.052 1302.38,632.394 1306.35,669.001 1310.31,705.454 1314.28,741.352 1318.24,776.31 1322.21,809.969 1326.17,842.007 1330.13,872.137 1334.1,900.117 1338.06,925.749 1342.03,948.888 1345.99,969.437 1349.95,987.349 1353.92,941.725 1357.88,895.317 1361.85,848.744 1365.81,802.612 1369.77,757.506 1373.74,774.88 1377.7,792.539 1381.67,810.417 1385.63,828.441 1389.6,846.535 1393.56,864.624 1397.52,882.628 1401.49,900.472 1405.45,918.081 1409.42,935.386 1413.38,891.415 1417.34,848.812 1421.31,808.045 1425.27,769.534 1429.24,733.648 1433.2,761.602 1437.16,790.94 1441.13,821.323 1445.09,852.396 1449.06,883.8 1453.02,915.178 1456.98,946.179 1460.95,976.469 1464.91,1005.74 1468.88,1033.69 1472.84,1060.08 1476.81,1084.69 1480.77,1107.33 1484.73,1127.87 1488.7,1146.21 1492.66,1162.29 1496.63,1176.13 1500.59,1187.73 1504.55,1197.18 1508.52,1204.6 1512.48,1149.22 1516.45,1093.91 1520.41,1039.4 1524.37,986.388 1528.34,935.502 1532.3,948.238 1536.27,962.414 1540.23,977.954 1544.2,994.753 1548.16,1012.69 1552.12,970.697 1556.09,931.321 1560.05,894.897 1564.02,861.7 1567.98,831.937 1571.94,866.65 1575.91,903.206 1579.87,941.082 1583.84,979.741 1587.8,1018.65 1591.76,1057.27 1595.73,1095.09 1599.69,1131.64 1603.66,1166.47 1607.62,1199.18 1611.59,1229.41 1615.55,1256.88 1619.51,1281.36 1623.48,1302.67 1627.44,1320.71 1631.41,1335.45 1635.37,1346.9 1639.33,1355.17 1643.3,1360.38 1647.26,1362.75 1651.23,1362.51 1655.19,1359.96 1659.15,1355.43 1663.12,1349.25 1667.08,1341.81 1671.05,1333.48 1675.01,1324.66 1678.98,1315.72 1682.94,1307.04 1686.9,1298.97 1690.87,1291.85 1694.83,1285.97 1698.8,1281.59 1702.76,1278.95 1706.72,1278.23 1710.69,1279.56 1714.65,1283.03 1718.62,1288.69 1722.58,1296.54 1726.54,1306.53 1730.51,1318.58 1734.47,1332.55 1738.44,1348.29 1742.4,1365.59 1746.37,1384.24 1750.33,1343.08 1754.29,1304.56 1758.26,1268.92 1762.22,1236.36 1766.19,1206.99 1770.15,1180.89 1774.11,1158.06 1778.08,1138.44 1782.04,1121.91 1786.01,1108.31 1789.97,1158.33 1793.93,1208.99 1797.9,1259.5 1801.86,1309.06 1805.83,1356.92 1809.79,1341.48 1813.76,1324.8 1817.72,1306.86 1821.68,1287.64 1825.65,1267.18 1829.61,1245.51 1833.58,1222.72 1837.54,1198.92 1841.5,1174.21 1845.47,1148.74 1849.43,1122.67 1853.4,1096.16 1857.36,1069.38 1861.32,1042.52 1865.29,1015.73 1869.25,1050.11 1873.22,1083.12 1877.18,1114.4 1881.15,1143.63 1885.11,1170.54 1889.07,1133.99 1893.04,1096.53 1897,1058.56 1900.97,1020.48 1904.93,982.713 1908.89,1006.54 1912.86,1029.63 1916.82,1051.8 1920.79,1072.89 1924.75,1092.77 1928.71,1111.33 1932.68,1128.48 1936.64,1144.17 1940.61,1158.36 1944.57,1171.07 1948.54,1121.4 1952.5,1072.12 1956.46,1023.82 1960.43,977.051 1964.39,932.344 1968.36,951.067 1972.32,970.927 1976.28,991.746 1980.25,1013.33 1984.21,1035.47 1988.18,1057.95 1992.14,1080.57 1996.1,1103.09 2000.07,1125.32 2004.03,1147.06 2008,1168.11 2011.96,1188.32 2015.93,1207.52 2019.89,1225.59 2023.85,1242.44 2027.82,1257.97 2031.78,1272.13 2035.75,1284.91 2039.71,1296.29 2043.67,1306.31 2047.64,1315 2051.6,1322.45 2055.57,1328.75 2059.53,1333.99 2063.49,1338.32 2067.46,1341.86 2071.42,1344.77 2075.39,1347.19 2079.35,1349.28 2083.32,1351.2 2087.28,1292.2 2091.24,1235.12 2095.21,1180.62 2099.17,1129.29 2103.14,1081.64 2107.1,1038.11 2111.06,999.046 2115.03,964.684 2118.99,935.18 2122.96,910.59 2126.92,890.874 2130.88,875.903 2134.85,865.461 2138.81,859.253 2142.78,856.914 2146.74,858.015 2150.7,862.079 2154.67,868.586 2158.63,876.986 2162.6,886.714 2166.56,958.104 2170.53,1027.89 2174.49,1095 2178.45,1158.45 2182.42,1217.35 2186.38,1210.02 2190.35,1198.5 2194.31,1182.81 2198.27,1163.02 2202.24,1139.32 2206.2,1172.84 2210.17,1201.21 2214.13,1224.28 2218.09,1242.01 2222.06,1254.46 2226.02,1200.89 2229.99,1144.27 2233.95,1085.44 2237.92,1025.3 2241.88,964.722 2245.84,965.494 2249.81,965.752 2253.77,965.771 2257.74,965.82 2261.7,966.156 2265.66,967.022 2269.63,968.638 2273.59,971.203 2277.56,974.887 2281.52,979.832 2285.48,986.147 2289.45,993.91 2293.41,1003.16 "/>
<path clip-path="url(#clip960)" d="M325.87 1377.32 L1442.86 1377.32 L1442.86 1169.96 L325.87 1169.96  Z" fill="#ffffff" fill-rule="evenodd" fill-opacity="1"/>
<polyline clip-path="url(#clip960)" style="stroke:#000000; stroke-linecap:round; stroke-linejoin:round; stroke-width:4; stroke-opacity:1; fill:none" points="325.87,1377.32 1442.86,1377.32 1442.86,1169.96 325.87,1169.96 325.87,1377.32 "/>
<polyline clip-path="url(#clip960)" style="stroke:#009af9; stroke-linecap:round; stroke-linejoin:round; stroke-width:4; stroke-opacity:1; fill:none" points="349.167,1221.8 488.953,1221.8 "/>
<path clip-path="url(#clip960)" d="M516.926 1208.36 L516.926 1235.23 L522.574 1235.23 Q529.727 1235.23 533.037 1231.99 Q536.37 1228.75 536.37 1221.76 Q536.37 1214.82 533.037 1211.6 Q529.727 1208.36 522.574 1208.36 L516.926 1208.36 M512.25 1204.52 L521.857 1204.52 Q531.903 1204.52 536.602 1208.71 Q541.301 1212.87 541.301 1221.76 Q541.301 1230.7 536.579 1234.89 Q531.857 1239.08 521.857 1239.08 L512.25 1239.08 L512.25 1204.52 Z" fill="#000000" fill-rule="nonzero" fill-opacity="1" /><path clip-path="url(#clip960)" d="M560.352 1226.04 Q555.19 1226.04 553.199 1227.22 Q551.208 1228.4 551.208 1231.25 Q551.208 1233.52 552.69 1234.86 Q554.194 1236.18 556.764 1236.18 Q560.305 1236.18 562.435 1233.68 Q564.588 1231.16 564.588 1226.99 L564.588 1226.04 L560.352 1226.04 M568.847 1224.28 L568.847 1239.08 L564.588 1239.08 L564.588 1235.14 Q563.129 1237.5 560.954 1238.64 Q558.778 1239.75 555.63 1239.75 Q551.648 1239.75 549.287 1237.52 Q546.949 1235.28 546.949 1231.53 Q546.949 1227.15 549.866 1224.93 Q552.805 1222.71 558.616 1222.71 L564.588 1222.71 L564.588 1222.29 Q564.588 1219.35 562.643 1217.76 Q560.722 1216.14 557.227 1216.14 Q555.005 1216.14 552.898 1216.67 Q550.792 1217.2 548.847 1218.27 L548.847 1214.33 Q551.185 1213.43 553.384 1212.99 Q555.583 1212.52 557.667 1212.52 Q563.292 1212.52 566.069 1215.44 Q568.847 1218.36 568.847 1224.28 Z" fill="#000000" fill-rule="nonzero" fill-opacity="1" /><path clip-path="url(#clip960)" d="M581.833 1205.79 L581.833 1213.15 L590.606 1213.15 L590.606 1216.46 L581.833 1216.46 L581.833 1230.53 Q581.833 1233.7 582.69 1234.61 Q583.569 1235.51 586.231 1235.51 L590.606 1235.51 L590.606 1239.08 L586.231 1239.08 Q581.301 1239.08 579.426 1237.25 Q577.551 1235.39 577.551 1230.53 L577.551 1216.46 L574.426 1216.46 L574.426 1213.15 L577.551 1213.15 L577.551 1205.79 L581.833 1205.79 Z" fill="#000000" fill-rule="nonzero" fill-opacity="1" /><path clip-path="url(#clip960)" d="M607.99 1226.04 Q602.828 1226.04 600.838 1227.22 Q598.847 1228.4 598.847 1231.25 Q598.847 1233.52 600.328 1234.86 Q601.833 1236.18 604.402 1236.18 Q607.944 1236.18 610.074 1233.68 Q612.226 1231.16 612.226 1226.99 L612.226 1226.04 L607.99 1226.04 M616.486 1224.28 L616.486 1239.08 L612.226 1239.08 L612.226 1235.14 Q610.768 1237.5 608.592 1238.64 Q606.416 1239.75 603.268 1239.75 Q599.287 1239.75 596.926 1237.52 Q594.588 1235.28 594.588 1231.53 Q594.588 1227.15 597.504 1224.93 Q600.444 1222.71 606.254 1222.71 L612.226 1222.71 L612.226 1222.29 Q612.226 1219.35 610.282 1217.76 Q608.361 1216.14 604.865 1216.14 Q602.643 1216.14 600.537 1216.67 Q598.43 1217.2 596.486 1218.27 L596.486 1214.33 Q598.824 1213.43 601.023 1212.99 Q603.222 1212.52 605.305 1212.52 Q610.93 1212.52 613.708 1215.44 Q616.486 1218.36 616.486 1224.28 Z" fill="#000000" fill-rule="nonzero" fill-opacity="1" /><polyline clip-path="url(#clip960)" style="stroke:#e26f46; stroke-linecap:round; stroke-linejoin:round; stroke-width:4; stroke-opacity:1; fill:none" points="349.167,1273.64 488.953,1273.64 "/>
<path clip-path="url(#clip960)" d="M528.083 1260.96 L521.741 1278.16 L534.449 1278.16 L528.083 1260.96 M525.445 1256.36 L530.745 1256.36 L543.917 1290.92 L539.056 1290.92 L535.907 1282.05 L520.329 1282.05 L517.181 1290.92 L512.25 1290.92 L525.445 1256.36 Z" fill="#000000" fill-rule="nonzero" fill-opacity="1" /><path clip-path="url(#clip960)" d="M565.352 1274.71 Q566.856 1275.22 568.268 1276.89 Q569.704 1278.55 571.139 1281.47 L575.884 1290.92 L570.861 1290.92 L566.44 1282.05 Q564.727 1278.58 563.106 1277.44 Q561.509 1276.31 558.731 1276.31 L553.639 1276.31 L553.639 1290.92 L548.963 1290.92 L548.963 1256.36 L559.518 1256.36 Q565.444 1256.36 568.361 1258.83 Q571.278 1261.31 571.278 1266.31 Q571.278 1269.57 569.75 1271.73 Q568.245 1273.88 565.352 1274.71 M553.639 1260.2 L553.639 1272.47 L559.518 1272.47 Q562.898 1272.47 564.611 1270.92 Q566.347 1269.34 566.347 1266.31 Q566.347 1263.28 564.611 1261.75 Q562.898 1260.2 559.518 1260.2 L553.639 1260.2 Z" fill="#000000" fill-rule="nonzero" fill-opacity="1" /><path clip-path="url(#clip960)" d="M580.236 1256.36 L585.259 1256.36 L593.847 1269.2 L602.481 1256.36 L607.504 1256.36 L596.393 1272.95 L608.245 1290.92 L603.222 1290.92 L593.5 1276.22 L583.708 1290.92 L578.662 1290.92 L591 1272.47 L580.236 1256.36 Z" fill="#000000" fill-rule="nonzero" fill-opacity="1" /><path clip-path="url(#clip960)" d="M649.448 1269.97 Q651.046 1267.1 653.268 1265.73 Q655.49 1264.36 658.499 1264.36 Q662.55 1264.36 664.749 1267.21 Q666.948 1270.04 666.948 1275.27 L666.948 1290.92 L662.666 1290.92 L662.666 1275.41 Q662.666 1271.68 661.347 1269.87 Q660.027 1268.07 657.319 1268.07 Q654.009 1268.07 652.087 1270.27 Q650.166 1272.47 650.166 1276.26 L650.166 1290.92 L645.884 1290.92 L645.884 1275.41 Q645.884 1271.66 644.564 1269.87 Q643.245 1268.07 640.49 1268.07 Q637.226 1268.07 635.305 1270.29 Q633.384 1272.49 633.384 1276.26 L633.384 1290.92 L629.101 1290.92 L629.101 1264.99 L633.384 1264.99 L633.384 1269.02 Q634.842 1266.63 636.879 1265.5 Q638.916 1264.36 641.717 1264.36 Q644.541 1264.36 646.509 1265.8 Q648.499 1267.23 649.448 1269.97 Z" fill="#000000" fill-rule="nonzero" fill-opacity="1" /><path clip-path="url(#clip960)" d="M685.49 1267.98 Q682.064 1267.98 680.073 1270.66 Q678.083 1273.32 678.083 1277.98 Q678.083 1282.63 680.05 1285.31 Q682.041 1287.98 685.49 1287.98 Q688.893 1287.98 690.883 1285.29 Q692.874 1282.61 692.874 1277.98 Q692.874 1273.37 690.883 1270.68 Q688.893 1267.98 685.49 1267.98 M685.49 1264.36 Q691.045 1264.36 694.217 1267.98 Q697.388 1271.59 697.388 1277.98 Q697.388 1284.34 694.217 1287.98 Q691.045 1291.59 685.49 1291.59 Q679.911 1291.59 676.74 1287.98 Q673.592 1284.34 673.592 1277.98 Q673.592 1271.59 676.74 1267.98 Q679.911 1264.36 685.49 1264.36 Z" fill="#000000" fill-rule="nonzero" fill-opacity="1" /><path clip-path="url(#clip960)" d="M721.508 1268.92 L721.508 1254.9 L725.768 1254.9 L725.768 1290.92 L721.508 1290.92 L721.508 1287.03 Q720.166 1289.34 718.106 1290.48 Q716.068 1291.59 713.198 1291.59 Q708.499 1291.59 705.536 1287.84 Q702.596 1284.09 702.596 1277.98 Q702.596 1271.86 705.536 1268.11 Q708.499 1264.36 713.198 1264.36 Q716.068 1264.36 718.106 1265.5 Q720.166 1266.61 721.508 1268.92 M706.994 1277.98 Q706.994 1282.67 708.916 1285.36 Q710.86 1288.02 714.24 1288.02 Q717.619 1288.02 719.564 1285.36 Q721.508 1282.67 721.508 1277.98 Q721.508 1273.28 719.564 1270.61 Q717.619 1267.93 714.24 1267.93 Q710.86 1267.93 708.916 1270.61 Q706.994 1273.28 706.994 1277.98 Z" fill="#000000" fill-rule="nonzero" fill-opacity="1" /><path clip-path="url(#clip960)" d="M756.716 1276.89 L756.716 1278.97 L737.133 1278.97 Q737.411 1283.37 739.772 1285.68 Q742.156 1287.98 746.392 1287.98 Q748.846 1287.98 751.138 1287.37 Q753.453 1286.77 755.721 1285.57 L755.721 1289.6 Q753.429 1290.57 751.022 1291.08 Q748.615 1291.59 746.138 1291.59 Q739.934 1291.59 736.3 1287.98 Q732.689 1284.36 732.689 1278.21 Q732.689 1271.84 736.115 1268.11 Q739.564 1264.36 745.397 1264.36 Q750.628 1264.36 753.661 1267.74 Q756.716 1271.1 756.716 1276.89 M752.457 1275.64 Q752.411 1272.14 750.49 1270.06 Q748.591 1267.98 745.443 1267.98 Q741.879 1267.98 739.726 1269.99 Q737.596 1272 737.272 1275.66 L752.457 1275.64 Z" fill="#000000" fill-rule="nonzero" fill-opacity="1" /><path clip-path="url(#clip960)" d="M763.707 1254.9 L767.966 1254.9 L767.966 1290.92 L763.707 1290.92 L763.707 1254.9 Z" fill="#000000" fill-rule="nonzero" fill-opacity="1" /><path clip-path="url(#clip960)" d="M808.475 1265.75 L808.475 1269.78 Q806.67 1268.86 804.725 1268.39 Q802.781 1267.93 800.698 1267.93 Q797.526 1267.93 795.929 1268.9 Q794.355 1269.87 794.355 1271.82 Q794.355 1273.3 795.489 1274.16 Q796.624 1274.99 800.05 1275.75 L801.508 1276.08 Q806.045 1277.05 807.943 1278.83 Q809.864 1280.59 809.864 1283.76 Q809.864 1287.37 806.994 1289.48 Q804.147 1291.59 799.147 1291.59 Q797.063 1291.59 794.795 1291.17 Q792.55 1290.78 790.05 1289.97 L790.05 1285.57 Q792.411 1286.79 794.702 1287.42 Q796.994 1288.02 799.239 1288.02 Q802.249 1288.02 803.869 1287 Q805.489 1285.96 805.489 1284.09 Q805.489 1282.35 804.309 1281.42 Q803.151 1280.5 799.193 1279.64 L797.712 1279.3 Q793.753 1278.46 791.994 1276.75 Q790.235 1275.01 790.235 1272 Q790.235 1268.35 792.827 1266.36 Q795.42 1264.36 800.188 1264.36 Q802.55 1264.36 804.633 1264.71 Q806.716 1265.06 808.475 1265.75 Z" fill="#000000" fill-rule="nonzero" fill-opacity="1" /><path clip-path="url(#clip960)" d="M816.647 1264.99 L820.906 1264.99 L820.906 1290.92 L816.647 1290.92 L816.647 1264.99 M816.647 1254.9 L820.906 1254.9 L820.906 1260.29 L816.647 1260.29 L816.647 1254.9 Z" fill="#000000" fill-rule="nonzero" fill-opacity="1" /><path clip-path="url(#clip960)" d="M850.003 1269.97 Q851.6 1267.1 853.822 1265.73 Q856.045 1264.36 859.054 1264.36 Q863.105 1264.36 865.304 1267.21 Q867.503 1270.04 867.503 1275.27 L867.503 1290.92 L863.22 1290.92 L863.22 1275.41 Q863.22 1271.68 861.901 1269.87 Q860.582 1268.07 857.873 1268.07 Q854.563 1268.07 852.642 1270.27 Q850.721 1272.47 850.721 1276.26 L850.721 1290.92 L846.438 1290.92 L846.438 1275.41 Q846.438 1271.66 845.119 1269.87 Q843.799 1268.07 841.045 1268.07 Q837.781 1268.07 835.86 1270.29 Q833.938 1272.49 833.938 1276.26 L833.938 1290.92 L829.656 1290.92 L829.656 1264.99 L833.938 1264.99 L833.938 1269.02 Q835.397 1266.63 837.434 1265.5 Q839.471 1264.36 842.272 1264.36 Q845.096 1264.36 847.063 1265.8 Q849.054 1267.23 850.003 1269.97 Z" fill="#000000" fill-rule="nonzero" fill-opacity="1" /><path clip-path="url(#clip960)" d="M904.192 1254.9 L904.192 1258.44 L900.118 1258.44 Q897.827 1258.44 896.924 1259.36 Q896.044 1260.29 896.044 1262.7 L896.044 1264.99 L903.058 1264.99 L903.058 1268.3 L896.044 1268.3 L896.044 1290.92 L891.762 1290.92 L891.762 1268.3 L887.688 1268.3 L887.688 1264.99 L891.762 1264.99 L891.762 1263.18 Q891.762 1258.86 893.776 1256.89 Q895.79 1254.9 900.165 1254.9 L904.192 1254.9 Z" fill="#000000" fill-rule="nonzero" fill-opacity="1" /><path clip-path="url(#clip960)" d="M907.757 1264.99 L912.017 1264.99 L912.017 1290.92 L907.757 1290.92 L907.757 1264.99 M907.757 1254.9 L912.017 1254.9 L912.017 1260.29 L907.757 1260.29 L907.757 1254.9 Z" fill="#000000" fill-rule="nonzero" fill-opacity="1" /><path clip-path="url(#clip960)" d="M925.141 1257.63 L925.141 1264.99 L933.915 1264.99 L933.915 1268.3 L925.141 1268.3 L925.141 1282.37 Q925.141 1285.54 925.998 1286.45 Q926.878 1287.35 929.54 1287.35 L933.915 1287.35 L933.915 1290.92 L929.54 1290.92 Q924.609 1290.92 922.734 1289.09 Q920.859 1287.23 920.859 1282.37 L920.859 1268.3 L917.734 1268.3 L917.734 1264.99 L920.859 1264.99 L920.859 1257.63 L925.141 1257.63 Z" fill="#000000" fill-rule="nonzero" fill-opacity="1" /><path clip-path="url(#clip960)" d="M970.743 1285.04 L975.627 1285.04 L975.627 1290.92 L970.743 1290.92 L970.743 1285.04 M970.743 1266.4 L975.627 1266.4 L975.627 1272.28 L970.743 1272.28 L970.743 1266.4 Z" fill="#000000" fill-rule="nonzero" fill-opacity="1" /><path clip-path="url(#clip960)" d="M983.474 1276.03 L995.951 1276.03 L995.951 1279.83 L983.474 1279.83 L983.474 1276.03 Z" fill="#000000" fill-rule="nonzero" fill-opacity="1" /><path clip-path="url(#clip960)" d="M1013.91 1271.77 Q1010.77 1271.77 1008.91 1273.92 Q1007.09 1276.08 1007.09 1279.83 Q1007.09 1283.55 1008.91 1285.73 Q1010.77 1287.88 1013.91 1287.88 Q1017.06 1287.88 1018.89 1285.73 Q1020.74 1283.55 1020.74 1279.83 Q1020.74 1276.08 1018.89 1273.92 Q1017.06 1271.77 1013.91 1271.77 M1023.2 1257.12 L1023.2 1261.38 Q1021.44 1260.55 1019.63 1260.11 Q1017.85 1259.67 1016.09 1259.67 Q1011.46 1259.67 1009.01 1262.79 Q1006.58 1265.92 1006.23 1272.23 Q1007.59 1270.22 1009.65 1269.16 Q1011.72 1268.07 1014.19 1268.07 Q1019.4 1268.07 1022.41 1271.24 Q1025.44 1274.39 1025.44 1279.83 Q1025.44 1285.15 1022.29 1288.37 Q1019.15 1291.59 1013.91 1291.59 Q1007.92 1291.59 1004.75 1287 Q1001.58 1282.4 1001.58 1273.67 Q1001.58 1265.48 1005.47 1260.61 Q1009.35 1255.73 1015.9 1255.73 Q1017.66 1255.73 1019.45 1256.08 Q1021.25 1256.42 1023.2 1257.12 Z" fill="#000000" fill-rule="nonzero" fill-opacity="1" /><path clip-path="url(#clip960)" d="M1047.66 1272.28 Q1051.02 1273 1052.9 1275.27 Q1054.79 1277.54 1054.79 1280.87 Q1054.79 1285.98 1051.28 1288.79 Q1047.76 1291.59 1041.28 1291.59 Q1039.1 1291.59 1036.78 1291.15 Q1034.49 1290.73 1032.04 1289.87 L1032.04 1285.36 Q1033.98 1286.49 1036.3 1287.07 Q1038.61 1287.65 1041.14 1287.65 Q1045.53 1287.65 1047.83 1285.92 Q1050.14 1284.18 1050.14 1280.87 Q1050.14 1277.81 1047.99 1276.1 Q1045.86 1274.36 1042.04 1274.36 L1038.01 1274.36 L1038.01 1270.52 L1042.22 1270.52 Q1045.67 1270.52 1047.5 1269.16 Q1049.33 1267.77 1049.33 1265.17 Q1049.33 1262.51 1047.43 1261.1 Q1045.56 1259.67 1042.04 1259.67 Q1040.12 1259.67 1037.92 1260.08 Q1035.72 1260.5 1033.08 1261.38 L1033.08 1257.21 Q1035.74 1256.47 1038.06 1256.1 Q1040.4 1255.73 1042.46 1255.73 Q1047.78 1255.73 1050.88 1258.16 Q1053.98 1260.57 1053.98 1264.69 Q1053.98 1267.56 1052.34 1269.55 Q1050.7 1271.52 1047.66 1272.28 Z" fill="#000000" fill-rule="nonzero" fill-opacity="1" /><path clip-path="url(#clip960)" d="M1063.66 1285.04 L1068.54 1285.04 L1068.54 1290.92 L1063.66 1290.92 L1063.66 1285.04 Z" fill="#000000" fill-rule="nonzero" fill-opacity="1" /><path clip-path="url(#clip960)" d="M1088.73 1274.5 Q1085.4 1274.5 1083.47 1276.29 Q1081.58 1278.07 1081.58 1281.19 Q1081.58 1284.32 1083.47 1286.1 Q1085.4 1287.88 1088.73 1287.88 Q1092.06 1287.88 1093.98 1286.1 Q1095.9 1284.29 1095.9 1281.19 Q1095.9 1278.07 1093.98 1276.29 Q1092.08 1274.5 1088.73 1274.5 M1084.05 1272.51 Q1081.04 1271.77 1079.35 1269.71 Q1077.69 1267.65 1077.69 1264.69 Q1077.69 1260.55 1080.63 1258.14 Q1083.59 1255.73 1088.73 1255.73 Q1093.89 1255.73 1096.83 1258.14 Q1099.77 1260.55 1099.77 1264.69 Q1099.77 1267.65 1098.08 1269.71 Q1096.41 1271.77 1093.43 1272.51 Q1096.81 1273.3 1098.68 1275.59 Q1100.58 1277.88 1100.58 1281.19 Q1100.58 1286.22 1097.5 1288.9 Q1094.45 1291.59 1088.73 1291.59 Q1083.01 1291.59 1079.93 1288.9 Q1076.88 1286.22 1076.88 1281.19 Q1076.88 1277.88 1078.77 1275.59 Q1080.67 1273.3 1084.05 1272.51 M1082.34 1265.13 Q1082.34 1267.81 1084.01 1269.32 Q1085.7 1270.82 1088.73 1270.82 Q1091.74 1270.82 1093.43 1269.32 Q1095.14 1267.81 1095.14 1265.13 Q1095.14 1262.44 1093.43 1260.94 Q1091.74 1259.43 1088.73 1259.43 Q1085.7 1259.43 1084.01 1260.94 Q1082.34 1262.44 1082.34 1265.13 Z" fill="#000000" fill-rule="nonzero" fill-opacity="1" /><path clip-path="url(#clip960)" d="M1121.74 1260.43 L1109.93 1278.88 L1121.74 1278.88 L1121.74 1260.43 M1120.51 1256.36 L1126.39 1256.36 L1126.39 1278.88 L1131.32 1278.88 L1131.32 1282.77 L1126.39 1282.77 L1126.39 1290.92 L1121.74 1290.92 L1121.74 1282.77 L1106.14 1282.77 L1106.14 1278.25 L1120.51 1256.36 Z" fill="#000000" fill-rule="nonzero" fill-opacity="1" /><path clip-path="url(#clip960)" d="M1168.45 1275.71 Q1166.44 1275.71 1165.28 1277.42 Q1164.14 1279.13 1164.14 1282.19 Q1164.14 1285.2 1165.28 1286.93 Q1166.44 1288.65 1168.45 1288.65 Q1170.42 1288.65 1171.55 1286.93 Q1172.71 1285.2 1172.71 1282.19 Q1172.71 1279.16 1171.55 1277.44 Q1170.42 1275.71 1168.45 1275.71 M1168.45 1272.77 Q1172.11 1272.77 1174.26 1275.31 Q1176.41 1277.86 1176.41 1282.19 Q1176.41 1286.52 1174.24 1289.06 Q1172.08 1291.59 1168.45 1291.59 Q1164.75 1291.59 1162.59 1289.06 Q1160.44 1286.52 1160.44 1282.19 Q1160.44 1277.84 1162.59 1275.31 Q1164.77 1272.77 1168.45 1272.77 M1144.56 1258.67 Q1142.57 1258.67 1141.41 1260.41 Q1140.28 1262.12 1140.28 1265.13 Q1140.28 1268.18 1141.41 1269.9 Q1142.55 1271.61 1144.56 1271.61 Q1146.58 1271.61 1147.71 1269.9 Q1148.87 1268.18 1148.87 1265.13 Q1148.87 1262.14 1147.71 1260.41 Q1146.55 1258.67 1144.56 1258.67 M1165.46 1255.73 L1169.17 1255.73 L1147.55 1291.59 L1143.84 1291.59 L1165.46 1255.73 M1144.56 1255.73 Q1148.22 1255.73 1150.39 1258.28 Q1152.57 1260.8 1152.57 1265.13 Q1152.57 1269.5 1150.39 1272.03 Q1148.24 1274.55 1144.56 1274.55 Q1140.88 1274.55 1138.73 1272.03 Q1136.6 1269.48 1136.6 1265.13 Q1136.6 1260.82 1138.75 1258.28 Q1140.9 1255.73 1144.56 1255.73 Z" fill="#000000" fill-rule="nonzero" fill-opacity="1" /><polyline clip-path="url(#clip960)" style="stroke:#3da44d; stroke-linecap:round; stroke-linejoin:round; stroke-width:4; stroke-opacity:1; fill:none" points="349.167,1325.48 488.953,1325.48 "/>
<path clip-path="url(#clip960)" d="M528.083 1312.8 L521.741 1330 L534.449 1330 L528.083 1312.8 M525.445 1308.2 L530.745 1308.2 L543.917 1342.76 L539.056 1342.76 L535.907 1333.89 L520.329 1333.89 L517.181 1342.76 L512.25 1342.76 L525.445 1308.2 Z" fill="#000000" fill-rule="nonzero" fill-opacity="1" /><path clip-path="url(#clip960)" d="M565.352 1326.55 Q566.856 1327.06 568.268 1328.73 Q569.704 1330.39 571.139 1333.31 L575.884 1342.76 L570.861 1342.76 L566.44 1333.89 Q564.727 1330.42 563.106 1329.28 Q561.509 1328.15 558.731 1328.15 L553.639 1328.15 L553.639 1342.76 L548.963 1342.76 L548.963 1308.2 L559.518 1308.2 Q565.444 1308.2 568.361 1310.67 Q571.278 1313.15 571.278 1318.15 Q571.278 1321.41 569.75 1323.57 Q568.245 1325.72 565.352 1326.55 M553.639 1312.04 L553.639 1324.31 L559.518 1324.31 Q562.898 1324.31 564.611 1322.76 Q566.347 1321.18 566.347 1318.15 Q566.347 1315.12 564.611 1313.59 Q562.898 1312.04 559.518 1312.04 L553.639 1312.04 Z" fill="#000000" fill-rule="nonzero" fill-opacity="1" /><path clip-path="url(#clip960)" d="M580.236 1308.2 L585.259 1308.2 L593.847 1321.04 L602.481 1308.2 L607.504 1308.2 L596.393 1324.79 L608.245 1342.76 L603.222 1342.76 L593.5 1328.06 L583.708 1342.76 L578.662 1342.76 L591 1324.31 L580.236 1308.2 Z" fill="#000000" fill-rule="nonzero" fill-opacity="1" /><path clip-path="url(#clip960)" d="M649.448 1321.81 Q651.046 1318.94 653.268 1317.57 Q655.49 1316.2 658.499 1316.2 Q662.55 1316.2 664.749 1319.05 Q666.948 1321.88 666.948 1327.11 L666.948 1342.76 L662.666 1342.76 L662.666 1327.25 Q662.666 1323.52 661.347 1321.71 Q660.027 1319.91 657.319 1319.91 Q654.009 1319.91 652.087 1322.11 Q650.166 1324.31 650.166 1328.1 L650.166 1342.76 L645.884 1342.76 L645.884 1327.25 Q645.884 1323.5 644.564 1321.71 Q643.245 1319.91 640.49 1319.91 Q637.226 1319.91 635.305 1322.13 Q633.384 1324.33 633.384 1328.1 L633.384 1342.76 L629.101 1342.76 L629.101 1316.83 L633.384 1316.83 L633.384 1320.86 Q634.842 1318.47 636.879 1317.34 Q638.916 1316.2 641.717 1316.2 Q644.541 1316.2 646.509 1317.64 Q648.499 1319.07 649.448 1321.81 Z" fill="#000000" fill-rule="nonzero" fill-opacity="1" /><path clip-path="url(#clip960)" d="M685.49 1319.82 Q682.064 1319.82 680.073 1322.5 Q678.083 1325.16 678.083 1329.82 Q678.083 1334.47 680.05 1337.15 Q682.041 1339.82 685.49 1339.82 Q688.893 1339.82 690.883 1337.13 Q692.874 1334.45 692.874 1329.82 Q692.874 1325.21 690.883 1322.52 Q688.893 1319.82 685.49 1319.82 M685.49 1316.2 Q691.045 1316.2 694.217 1319.82 Q697.388 1323.43 697.388 1329.82 Q697.388 1336.18 694.217 1339.82 Q691.045 1343.43 685.49 1343.43 Q679.911 1343.43 676.74 1339.82 Q673.592 1336.18 673.592 1329.82 Q673.592 1323.43 676.74 1319.82 Q679.911 1316.2 685.49 1316.2 Z" fill="#000000" fill-rule="nonzero" fill-opacity="1" /><path clip-path="url(#clip960)" d="M721.508 1320.76 L721.508 1306.74 L725.768 1306.74 L725.768 1342.76 L721.508 1342.76 L721.508 1338.87 Q720.166 1341.18 718.106 1342.32 Q716.068 1343.43 713.198 1343.43 Q708.499 1343.43 705.536 1339.68 Q702.596 1335.93 702.596 1329.82 Q702.596 1323.7 705.536 1319.95 Q708.499 1316.2 713.198 1316.2 Q716.068 1316.2 718.106 1317.34 Q720.166 1318.45 721.508 1320.76 M706.994 1329.82 Q706.994 1334.51 708.916 1337.2 Q710.86 1339.86 714.24 1339.86 Q717.619 1339.86 719.564 1337.2 Q721.508 1334.51 721.508 1329.82 Q721.508 1325.12 719.564 1322.45 Q717.619 1319.77 714.24 1319.77 Q710.86 1319.77 708.916 1322.45 Q706.994 1325.12 706.994 1329.82 Z" fill="#000000" fill-rule="nonzero" fill-opacity="1" /><path clip-path="url(#clip960)" d="M756.716 1328.73 L756.716 1330.81 L737.133 1330.81 Q737.411 1335.21 739.772 1337.52 Q742.156 1339.82 746.392 1339.82 Q748.846 1339.82 751.138 1339.21 Q753.453 1338.61 755.721 1337.41 L755.721 1341.44 Q753.429 1342.41 751.022 1342.92 Q748.615 1343.43 746.138 1343.43 Q739.934 1343.43 736.3 1339.82 Q732.689 1336.2 732.689 1330.05 Q732.689 1323.68 736.115 1319.95 Q739.564 1316.2 745.397 1316.2 Q750.628 1316.2 753.661 1319.58 Q756.716 1322.94 756.716 1328.73 M752.457 1327.48 Q752.411 1323.98 750.49 1321.9 Q748.591 1319.82 745.443 1319.82 Q741.879 1319.82 739.726 1321.83 Q737.596 1323.84 737.272 1327.5 L752.457 1327.48 Z" fill="#000000" fill-rule="nonzero" fill-opacity="1" /><path clip-path="url(#clip960)" d="M763.707 1306.74 L767.966 1306.74 L767.966 1342.76 L763.707 1342.76 L763.707 1306.74 Z" fill="#000000" fill-rule="nonzero" fill-opacity="1" /><path clip-path="url(#clip960)" d="M789.471 1316.83 L793.73 1316.83 L799.054 1337.06 L804.355 1316.83 L809.378 1316.83 L814.702 1337.06 L820.003 1316.83 L824.262 1316.83 L817.48 1342.76 L812.457 1342.76 L806.878 1321.51 L801.276 1342.76 L796.253 1342.76 L789.471 1316.83 Z" fill="#000000" fill-rule="nonzero" fill-opacity="1" /><path clip-path="url(#clip960)" d="M830.721 1316.83 L834.98 1316.83 L834.98 1342.76 L830.721 1342.76 L830.721 1316.83 M830.721 1306.74 L834.98 1306.74 L834.98 1312.13 L830.721 1312.13 L830.721 1306.74 Z" fill="#000000" fill-rule="nonzero" fill-opacity="1" /><path clip-path="url(#clip960)" d="M848.105 1309.47 L848.105 1316.83 L856.878 1316.83 L856.878 1320.14 L848.105 1320.14 L848.105 1334.21 Q848.105 1337.38 848.961 1338.29 Q849.841 1339.19 852.503 1339.19 L856.878 1339.19 L856.878 1342.76 L852.503 1342.76 Q847.572 1342.76 845.697 1340.93 Q843.822 1339.07 843.822 1334.21 L843.822 1320.14 L840.697 1320.14 L840.697 1316.83 L843.822 1316.83 L843.822 1309.47 L848.105 1309.47 Z" fill="#000000" fill-rule="nonzero" fill-opacity="1" /><path clip-path="url(#clip960)" d="M884.031 1327.11 L884.031 1342.76 L879.771 1342.76 L879.771 1327.25 Q879.771 1323.57 878.336 1321.74 Q876.901 1319.91 874.031 1319.91 Q870.582 1319.91 868.591 1322.11 Q866.6 1324.31 866.6 1328.1 L866.6 1342.76 L862.318 1342.76 L862.318 1306.74 L866.6 1306.74 L866.6 1320.86 Q868.128 1318.52 870.188 1317.36 Q872.271 1316.2 874.98 1316.2 Q879.447 1316.2 881.739 1318.98 Q884.031 1321.74 884.031 1327.11 Z" fill="#000000" fill-rule="nonzero" fill-opacity="1" /><path clip-path="url(#clip960)" d="M924.655 1320.76 L924.655 1306.74 L928.915 1306.74 L928.915 1342.76 L924.655 1342.76 L924.655 1338.87 Q923.313 1341.18 921.253 1342.32 Q919.216 1343.43 916.345 1343.43 Q911.646 1343.43 908.683 1339.68 Q905.743 1335.93 905.743 1329.82 Q905.743 1323.7 908.683 1319.95 Q911.646 1316.2 916.345 1316.2 Q919.216 1316.2 921.253 1317.34 Q923.313 1318.45 924.655 1320.76 M910.142 1329.82 Q910.142 1334.51 912.063 1337.2 Q914.007 1339.86 917.387 1339.86 Q920.766 1339.86 922.711 1337.2 Q924.655 1334.51 924.655 1329.82 Q924.655 1325.12 922.711 1322.45 Q920.766 1319.77 917.387 1319.77 Q914.007 1319.77 912.063 1322.45 Q910.142 1325.12 910.142 1329.82 Z" fill="#000000" fill-rule="nonzero" fill-opacity="1" /><path clip-path="url(#clip960)" d="M959.863 1328.73 L959.863 1330.81 L940.28 1330.81 Q940.558 1335.21 942.919 1337.52 Q945.303 1339.82 949.539 1339.82 Q951.993 1339.82 954.285 1339.21 Q956.6 1338.61 958.868 1337.41 L958.868 1341.44 Q956.576 1342.41 954.169 1342.92 Q951.762 1343.43 949.285 1343.43 Q943.081 1343.43 939.447 1339.82 Q935.836 1336.2 935.836 1330.05 Q935.836 1323.68 939.262 1319.95 Q942.711 1316.2 948.544 1316.2 Q953.776 1316.2 956.808 1319.58 Q959.863 1322.94 959.863 1328.73 M955.604 1327.48 Q955.558 1323.98 953.637 1321.9 Q951.739 1319.82 948.59 1319.82 Q945.026 1319.82 942.873 1321.83 Q940.743 1323.84 940.419 1327.5 L955.604 1327.48 Z" fill="#000000" fill-rule="nonzero" fill-opacity="1" /><path clip-path="url(#clip960)" d="M966.854 1306.74 L971.113 1306.74 L971.113 1342.76 L966.854 1342.76 L966.854 1306.74 Z" fill="#000000" fill-rule="nonzero" fill-opacity="1" /><path clip-path="url(#clip960)" d="M991.808 1329.72 Q986.646 1329.72 984.655 1330.9 Q982.664 1332.08 982.664 1334.93 Q982.664 1337.2 984.146 1338.54 Q985.65 1339.86 988.22 1339.86 Q991.761 1339.86 993.891 1337.36 Q996.044 1334.84 996.044 1330.67 L996.044 1329.72 L991.808 1329.72 M1000.3 1327.96 L1000.3 1342.76 L996.044 1342.76 L996.044 1338.82 Q994.586 1341.18 992.41 1342.32 Q990.234 1343.43 987.086 1343.43 Q983.104 1343.43 980.743 1341.2 Q978.405 1338.96 978.405 1335.21 Q978.405 1330.83 981.322 1328.61 Q984.261 1326.39 990.072 1326.39 L996.044 1326.39 L996.044 1325.97 Q996.044 1323.03 994.099 1321.44 Q992.178 1319.82 988.683 1319.82 Q986.461 1319.82 984.354 1320.35 Q982.248 1320.88 980.303 1321.95 L980.303 1318.01 Q982.641 1317.11 984.84 1316.67 Q987.039 1316.2 989.123 1316.2 Q994.748 1316.2 997.525 1319.12 Q1000.3 1322.04 1000.3 1327.96 Z" fill="#000000" fill-rule="nonzero" fill-opacity="1" /><path clip-path="url(#clip960)" d="M1019.86 1345.16 Q1018.06 1349.79 1016.34 1351.2 Q1014.63 1352.62 1011.76 1352.62 L1008.36 1352.62 L1008.36 1349.05 L1010.86 1349.05 Q1012.62 1349.05 1013.59 1348.22 Q1014.56 1347.38 1015.74 1344.28 L1016.51 1342.34 L1006.02 1316.83 L1010.53 1316.83 L1018.64 1337.11 L1026.74 1316.83 L1031.25 1316.83 L1019.86 1345.16 Z" fill="#000000" fill-rule="nonzero" fill-opacity="1" /><path clip-path="url(#clip960)" d="M1068.73 1317.59 L1068.73 1321.62 Q1066.92 1320.7 1064.98 1320.23 Q1063.03 1319.77 1060.95 1319.77 Q1057.78 1319.77 1056.18 1320.74 Q1054.61 1321.71 1054.61 1323.66 Q1054.61 1325.14 1055.74 1326 Q1056.88 1326.83 1060.3 1327.59 L1061.76 1327.92 Q1066.3 1328.89 1068.2 1330.67 Q1070.12 1332.43 1070.12 1335.6 Q1070.12 1339.21 1067.25 1341.32 Q1064.4 1343.43 1059.4 1343.43 Q1057.32 1343.43 1055.05 1343.01 Q1052.8 1342.62 1050.3 1341.81 L1050.3 1337.41 Q1052.66 1338.63 1054.96 1339.26 Q1057.25 1339.86 1059.49 1339.86 Q1062.5 1339.86 1064.12 1338.84 Q1065.74 1337.8 1065.74 1335.93 Q1065.74 1334.19 1064.56 1333.26 Q1063.4 1332.34 1059.45 1331.48 L1057.96 1331.14 Q1054.01 1330.3 1052.25 1328.59 Q1050.49 1326.85 1050.49 1323.84 Q1050.49 1320.19 1053.08 1318.2 Q1055.67 1316.2 1060.44 1316.2 Q1062.8 1316.2 1064.89 1316.55 Q1066.97 1316.9 1068.73 1317.59 Z" fill="#000000" fill-rule="nonzero" fill-opacity="1" /><path clip-path="url(#clip960)" d="M1076.9 1316.83 L1081.16 1316.83 L1081.16 1342.76 L1076.9 1342.76 L1076.9 1316.83 M1076.9 1306.74 L1081.16 1306.74 L1081.16 1312.13 L1076.9 1312.13 L1076.9 1306.74 Z" fill="#000000" fill-rule="nonzero" fill-opacity="1" /><path clip-path="url(#clip960)" d="M1110.26 1321.81 Q1111.85 1318.94 1114.08 1317.57 Q1116.3 1316.2 1119.31 1316.2 Q1123.36 1316.2 1125.56 1319.05 Q1127.76 1321.88 1127.76 1327.11 L1127.76 1342.76 L1123.47 1342.76 L1123.47 1327.25 Q1123.47 1323.52 1122.15 1321.71 Q1120.83 1319.91 1118.13 1319.91 Q1114.82 1319.91 1112.9 1322.11 Q1110.97 1324.31 1110.97 1328.1 L1110.97 1342.76 L1106.69 1342.76 L1106.69 1327.25 Q1106.69 1323.5 1105.37 1321.71 Q1104.05 1319.91 1101.3 1319.91 Q1098.03 1319.91 1096.11 1322.13 Q1094.19 1324.33 1094.19 1328.1 L1094.19 1342.76 L1089.91 1342.76 L1089.91 1316.83 L1094.19 1316.83 L1094.19 1320.86 Q1095.65 1318.47 1097.69 1317.34 Q1099.72 1316.2 1102.52 1316.2 Q1105.35 1316.2 1107.32 1317.64 Q1109.31 1319.07 1110.26 1321.81 Z" fill="#000000" fill-rule="nonzero" fill-opacity="1" /><path clip-path="url(#clip960)" d="M1164.45 1306.74 L1164.45 1310.28 L1160.37 1310.28 Q1158.08 1310.28 1157.18 1311.2 Q1156.3 1312.13 1156.3 1314.54 L1156.3 1316.83 L1163.31 1316.83 L1163.31 1320.14 L1156.3 1320.14 L1156.3 1342.76 L1152.02 1342.76 L1152.02 1320.14 L1147.94 1320.14 L1147.94 1316.83 L1152.02 1316.83 L1152.02 1315.02 Q1152.02 1310.7 1154.03 1308.73 Q1156.04 1306.74 1160.42 1306.74 L1164.45 1306.74 Z" fill="#000000" fill-rule="nonzero" fill-opacity="1" /><path clip-path="url(#clip960)" d="M1168.01 1316.83 L1172.27 1316.83 L1172.27 1342.76 L1168.01 1342.76 L1168.01 1316.83 M1168.01 1306.74 L1172.27 1306.74 L1172.27 1312.13 L1168.01 1312.13 L1168.01 1306.74 Z" fill="#000000" fill-rule="nonzero" fill-opacity="1" /><path clip-path="url(#clip960)" d="M1185.39 1309.47 L1185.39 1316.83 L1194.17 1316.83 L1194.17 1320.14 L1185.39 1320.14 L1185.39 1334.21 Q1185.39 1337.38 1186.25 1338.29 Q1187.13 1339.19 1189.79 1339.19 L1194.17 1339.19 L1194.17 1342.76 L1189.79 1342.76 Q1184.86 1342.76 1182.99 1340.93 Q1181.11 1339.07 1181.11 1334.21 L1181.11 1320.14 L1177.99 1320.14 L1177.99 1316.83 L1181.11 1316.83 L1181.11 1309.47 L1185.39 1309.47 Z" fill="#000000" fill-rule="nonzero" fill-opacity="1" /><path clip-path="url(#clip960)" d="M1231 1336.88 L1235.88 1336.88 L1235.88 1342.76 L1231 1342.76 L1231 1336.88 M1231 1318.24 L1235.88 1318.24 L1235.88 1324.12 L1231 1324.12 L1231 1318.24 Z" fill="#000000" fill-rule="nonzero" fill-opacity="1" /><path clip-path="url(#clip960)" d="M1247.29 1338.82 L1254.93 1338.82 L1254.93 1312.45 L1246.62 1314.12 L1246.62 1309.86 L1254.89 1308.2 L1259.56 1308.2 L1259.56 1338.82 L1267.2 1338.82 L1267.2 1342.76 L1247.29 1342.76 L1247.29 1338.82 Z" fill="#000000" fill-rule="nonzero" fill-opacity="1" /><path clip-path="url(#clip960)" d="M1286.64 1311.27 Q1283.03 1311.27 1281.2 1314.84 Q1279.4 1318.38 1279.4 1325.51 Q1279.4 1332.62 1281.2 1336.18 Q1283.03 1339.72 1286.64 1339.72 Q1290.28 1339.72 1292.08 1336.18 Q1293.91 1332.62 1293.91 1325.51 Q1293.91 1318.38 1292.08 1314.84 Q1290.28 1311.27 1286.64 1311.27 M1286.64 1307.57 Q1292.45 1307.57 1295.51 1312.18 Q1298.59 1316.76 1298.59 1325.51 Q1298.59 1334.24 1295.51 1338.84 Q1292.45 1343.43 1286.64 1343.43 Q1280.83 1343.43 1277.76 1338.84 Q1274.7 1334.24 1274.7 1325.51 Q1274.7 1316.76 1277.76 1312.18 Q1280.83 1307.57 1286.64 1307.57 Z" fill="#000000" fill-rule="nonzero" fill-opacity="1" /><path clip-path="url(#clip960)" d="M1316.81 1311.27 Q1313.19 1311.27 1311.37 1314.84 Q1309.56 1318.38 1309.56 1325.51 Q1309.56 1332.62 1311.37 1336.18 Q1313.19 1339.72 1316.81 1339.72 Q1320.44 1339.72 1322.25 1336.18 Q1324.07 1332.62 1324.07 1325.51 Q1324.07 1318.38 1322.25 1314.84 Q1320.44 1311.27 1316.81 1311.27 M1316.81 1307.57 Q1322.62 1307.57 1325.67 1312.18 Q1328.75 1316.76 1328.75 1325.51 Q1328.75 1334.24 1325.67 1338.84 Q1322.62 1343.43 1316.81 1343.43 Q1311 1343.43 1307.92 1338.84 Q1304.86 1334.24 1304.86 1325.51 Q1304.86 1316.76 1307.92 1312.18 Q1311 1307.57 1316.81 1307.57 Z" fill="#000000" fill-rule="nonzero" fill-opacity="1" /><path clip-path="url(#clip960)" d="M1336.97 1336.88 L1341.85 1336.88 L1341.85 1342.76 L1336.97 1342.76 L1336.97 1336.88 Z" fill="#000000" fill-rule="nonzero" fill-opacity="1" /><path clip-path="url(#clip960)" d="M1362.04 1311.27 Q1358.43 1311.27 1356.6 1314.84 Q1354.79 1318.38 1354.79 1325.51 Q1354.79 1332.62 1356.6 1336.18 Q1358.43 1339.72 1362.04 1339.72 Q1365.67 1339.72 1367.48 1336.18 Q1369.31 1332.62 1369.31 1325.51 Q1369.31 1318.38 1367.48 1314.84 Q1365.67 1311.27 1362.04 1311.27 M1362.04 1307.57 Q1367.85 1307.57 1370.9 1312.18 Q1373.98 1316.76 1373.98 1325.51 Q1373.98 1334.24 1370.9 1338.84 Q1367.85 1343.43 1362.04 1343.43 Q1356.23 1343.43 1353.15 1338.84 Q1350.09 1334.24 1350.09 1325.51 Q1350.09 1316.76 1353.15 1312.18 Q1356.23 1307.57 1362.04 1307.57 Z" fill="#000000" fill-rule="nonzero" fill-opacity="1" /><path clip-path="url(#clip960)" d="M1411.6 1327.55 Q1409.58 1327.55 1408.43 1329.26 Q1407.29 1330.97 1407.29 1334.03 Q1407.29 1337.04 1408.43 1338.77 Q1409.58 1340.49 1411.6 1340.49 Q1413.56 1340.49 1414.7 1338.77 Q1415.86 1337.04 1415.86 1334.03 Q1415.86 1331 1414.7 1329.28 Q1413.56 1327.55 1411.6 1327.55 M1411.6 1324.61 Q1415.25 1324.61 1417.41 1327.15 Q1419.56 1329.7 1419.56 1334.03 Q1419.56 1338.36 1417.38 1340.9 Q1415.23 1343.43 1411.6 1343.43 Q1407.89 1343.43 1405.74 1340.9 Q1403.59 1338.36 1403.59 1334.03 Q1403.59 1329.68 1405.74 1327.15 Q1407.92 1324.61 1411.6 1324.61 M1387.71 1310.51 Q1385.72 1310.51 1384.56 1312.25 Q1383.43 1313.96 1383.43 1316.97 Q1383.43 1320.02 1384.56 1321.74 Q1385.69 1323.45 1387.71 1323.45 Q1389.72 1323.45 1390.86 1321.74 Q1392.01 1320.02 1392.01 1316.97 Q1392.01 1313.98 1390.86 1312.25 Q1389.7 1310.51 1387.71 1310.51 M1408.61 1307.57 L1412.31 1307.57 L1390.69 1343.43 L1386.99 1343.43 L1408.61 1307.57 M1387.71 1307.57 Q1391.37 1307.57 1393.54 1310.12 Q1395.72 1312.64 1395.72 1316.97 Q1395.72 1321.34 1393.54 1323.87 Q1391.39 1326.39 1387.71 1326.39 Q1384.03 1326.39 1381.88 1323.87 Q1379.75 1321.32 1379.75 1316.97 Q1379.75 1312.66 1381.9 1310.12 Q1384.05 1307.57 1387.71 1307.57 Z" fill="#000000" fill-rule="nonzero" fill-opacity="1" /></svg>
