<?xml version="1.0" encoding="utf-8"?>
<svg xmlns="http://www.w3.org/2000/svg" xmlns:xlink="http://www.w3.org/1999/xlink" width="600" height="400" viewBox="0 0 2400 1600">
<defs>
  <clipPath id="clip450">
    <rect x="0" y="0" width="2400" height="1600"/>
  </clipPath>
</defs>
<path clip-path="url(#clip450)" d="M0 1600 L2400 1600 L2400 0 L0 0  Z" fill="#ffffff" fill-rule="evenodd" fill-opacity="1"/>
<defs>
  <clipPath id="clip451">
    <rect x="480" y="0" width="1681" height="1600"/>
  </clipPath>
</defs>
<path clip-path="url(#clip450)" d="M192.339 1423.18 L2352.76 1423.18 L2352.76 123.472 L192.339 123.472  Z" fill="#ffffff" fill-rule="evenodd" fill-opacity="1"/>
<defs>
  <clipPath id="clip452">
    <rect x="192" y="123" width="2161" height="1301"/>
  </clipPath>
</defs>
<polyline clip-path="url(#clip452)" style="stroke:#000000; stroke-linecap:round; stroke-linejoin:round; stroke-width:2; stroke-opacity:0.1; fill:none" points="380.866,1423.18 380.866,123.472 "/>
<polyline clip-path="url(#clip452)" style="stroke:#000000; stroke-linecap:round; stroke-linejoin:round; stroke-width:2; stroke-opacity:0.1; fill:none" points="699.323,1423.18 699.323,123.472 "/>
<polyline clip-path="url(#clip452)" style="stroke:#000000; stroke-linecap:round; stroke-linejoin:round; stroke-width:2; stroke-opacity:0.1; fill:none" points="1017.78,1423.18 1017.78,123.472 "/>
<polyline clip-path="url(#clip452)" style="stroke:#000000; stroke-linecap:round; stroke-linejoin:round; stroke-width:2; stroke-opacity:0.1; fill:none" points="1336.24,1423.18 1336.24,123.472 "/>
<polyline clip-path="url(#clip452)" style="stroke:#000000; stroke-linecap:round; stroke-linejoin:round; stroke-width:2; stroke-opacity:0.1; fill:none" points="1654.7,1423.18 1654.7,123.472 "/>
<polyline clip-path="url(#clip452)" style="stroke:#000000; stroke-linecap:round; stroke-linejoin:round; stroke-width:2; stroke-opacity:0.1; fill:none" points="1973.15,1423.18 1973.15,123.472 "/>
<polyline clip-path="url(#clip452)" style="stroke:#000000; stroke-linecap:round; stroke-linejoin:round; stroke-width:2; stroke-opacity:0.1; fill:none" points="2291.61,1423.18 2291.61,123.472 "/>
<polyline clip-path="url(#clip452)" style="stroke:#000000; stroke-linecap:round; stroke-linejoin:round; stroke-width:2; stroke-opacity:0.1; fill:none" points="192.339,1259.78 2352.76,1259.78 "/>
<polyline clip-path="url(#clip452)" style="stroke:#000000; stroke-linecap:round; stroke-linejoin:round; stroke-width:2; stroke-opacity:0.1; fill:none" points="192.339,939.243 2352.76,939.243 "/>
<polyline clip-path="url(#clip452)" style="stroke:#000000; stroke-linecap:round; stroke-linejoin:round; stroke-width:2; stroke-opacity:0.1; fill:none" points="192.339,618.701 2352.76,618.701 "/>
<polyline clip-path="url(#clip452)" style="stroke:#000000; stroke-linecap:round; stroke-linejoin:round; stroke-width:2; stroke-opacity:0.1; fill:none" points="192.339,298.16 2352.76,298.16 "/>
<polyline clip-path="url(#clip450)" style="stroke:#000000; stroke-linecap:round; stroke-linejoin:round; stroke-width:4; stroke-opacity:1; fill:none" points="192.339,939.243 2352.76,939.243 "/>
<polyline clip-path="url(#clip450)" style="stroke:#000000; stroke-linecap:round; stroke-linejoin:round; stroke-width:4; stroke-opacity:0; fill:none" points="380.866,939.243 380.866,939.243 "/>
<polyline clip-path="url(#clip450)" style="stroke:#000000; stroke-linecap:round; stroke-linejoin:round; stroke-width:4; stroke-opacity:0; fill:none" points="699.323,939.243 699.323,939.243 "/>
<polyline clip-path="url(#clip450)" style="stroke:#000000; stroke-linecap:round; stroke-linejoin:round; stroke-width:4; stroke-opacity:0; fill:none" points="1017.78,939.243 1017.78,939.243 "/>
<polyline clip-path="url(#clip450)" style="stroke:#000000; stroke-linecap:round; stroke-linejoin:round; stroke-width:4; stroke-opacity:0; fill:none" points="1336.24,939.243 1336.24,939.243 "/>
<polyline clip-path="url(#clip450)" style="stroke:#000000; stroke-linecap:round; stroke-linejoin:round; stroke-width:4; stroke-opacity:0; fill:none" points="1654.7,939.243 1654.7,939.243 "/>
<polyline clip-path="url(#clip450)" style="stroke:#000000; stroke-linecap:round; stroke-linejoin:round; stroke-width:4; stroke-opacity:0; fill:none" points="1973.15,939.243 1973.15,939.243 "/>
<polyline clip-path="url(#clip450)" style="stroke:#000000; stroke-linecap:round; stroke-linejoin:round; stroke-width:4; stroke-opacity:0; fill:none" points="2291.61,939.243 2291.61,939.243 "/>
<path clip-path="url(#clip450)" d="M350.808 1468.75 L380.484 1468.75 L380.484 1472.69 L350.808 1472.69 L350.808 1468.75 Z" fill="#000000" fill-rule="nonzero" fill-opacity="1" /><path clip-path="url(#clip450)" d="M394.604 1481.64 L410.923 1481.64 L410.923 1485.58 L388.979 1485.58 L388.979 1481.64 Q391.641 1478.89 396.224 1474.26 Q400.831 1469.61 402.011 1468.27 Q404.257 1465.74 405.136 1464.01 Q406.039 1462.25 406.039 1460.56 Q406.039 1457.8 404.095 1456.07 Q402.174 1454.33 399.072 1454.33 Q396.873 1454.33 394.419 1455.09 Q391.988 1455.86 389.211 1457.41 L389.211 1452.69 Q392.035 1451.55 394.488 1450.97 Q396.942 1450.39 398.979 1450.39 Q404.349 1450.39 407.544 1453.08 Q410.738 1455.77 410.738 1460.26 Q410.738 1462.39 409.928 1464.31 Q409.141 1466.2 407.035 1468.8 Q406.456 1469.47 403.354 1472.69 Q400.252 1475.88 394.604 1481.64 Z" fill="#000000" fill-rule="nonzero" fill-opacity="1" /><path clip-path="url(#clip450)" d="M699.323 1454.1 Q695.712 1454.1 693.884 1457.66 Q692.078 1461.2 692.078 1468.33 Q692.078 1475.44 693.884 1479.01 Q695.712 1482.55 699.323 1482.55 Q702.958 1482.55 704.763 1479.01 Q706.592 1475.44 706.592 1468.33 Q706.592 1461.2 704.763 1457.66 Q702.958 1454.1 699.323 1454.1 M699.323 1450.39 Q705.134 1450.39 708.189 1455 Q711.268 1459.58 711.268 1468.33 Q711.268 1477.06 708.189 1481.67 Q705.134 1486.25 699.323 1486.25 Q693.513 1486.25 690.435 1481.67 Q687.379 1477.06 687.379 1468.33 Q687.379 1459.58 690.435 1455 Q693.513 1450.39 699.323 1450.39 Z" fill="#000000" fill-rule="nonzero" fill-opacity="1" /><path clip-path="url(#clip450)" d="M1012.43 1481.64 L1028.75 1481.64 L1028.75 1485.58 L1006.81 1485.58 L1006.81 1481.64 Q1009.47 1478.89 1014.05 1474.26 Q1018.66 1469.61 1019.84 1468.27 Q1022.09 1465.74 1022.97 1464.01 Q1023.87 1462.25 1023.87 1460.56 Q1023.87 1457.8 1021.92 1456.07 Q1020 1454.33 1016.9 1454.33 Q1014.7 1454.33 1012.25 1455.09 Q1009.82 1455.86 1007.04 1457.41 L1007.04 1452.69 Q1009.86 1451.55 1012.32 1450.97 Q1014.77 1450.39 1016.81 1450.39 Q1022.18 1450.39 1025.37 1453.08 Q1028.57 1455.77 1028.57 1460.26 Q1028.57 1462.39 1027.76 1464.31 Q1026.97 1466.2 1024.86 1468.8 Q1024.29 1469.47 1021.18 1472.69 Q1018.08 1475.88 1012.43 1481.64 Z" fill="#000000" fill-rule="nonzero" fill-opacity="1" /><path clip-path="url(#clip450)" d="M1339.25 1455.09 L1327.44 1473.54 L1339.25 1473.54 L1339.25 1455.09 M1338.02 1451.02 L1343.9 1451.02 L1343.9 1473.54 L1348.83 1473.54 L1348.83 1477.43 L1343.9 1477.43 L1343.9 1485.58 L1339.25 1485.58 L1339.25 1477.43 L1323.65 1477.43 L1323.65 1472.92 L1338.02 1451.02 Z" fill="#000000" fill-rule="nonzero" fill-opacity="1" /><path clip-path="url(#clip450)" d="M1655.1 1466.44 Q1651.95 1466.44 1650.1 1468.59 Q1648.27 1470.74 1648.27 1474.49 Q1648.27 1478.22 1650.1 1480.39 Q1651.95 1482.55 1655.1 1482.55 Q1658.25 1482.55 1660.08 1480.39 Q1661.93 1478.22 1661.93 1474.49 Q1661.93 1470.74 1660.08 1468.59 Q1658.25 1466.44 1655.1 1466.44 M1664.38 1451.78 L1664.38 1456.04 Q1662.62 1455.21 1660.82 1454.77 Q1659.04 1454.33 1657.28 1454.33 Q1652.65 1454.33 1650.19 1457.45 Q1647.76 1460.58 1647.42 1466.9 Q1648.78 1464.89 1650.84 1463.82 Q1652.9 1462.73 1655.38 1462.73 Q1660.59 1462.73 1663.6 1465.9 Q1666.63 1469.05 1666.63 1474.49 Q1666.63 1479.82 1663.48 1483.03 Q1660.33 1486.25 1655.1 1486.25 Q1649.11 1486.25 1645.94 1481.67 Q1642.76 1477.06 1642.76 1468.33 Q1642.76 1460.14 1646.65 1455.28 Q1650.54 1450.39 1657.09 1450.39 Q1658.85 1450.39 1660.63 1450.74 Q1662.44 1451.09 1664.38 1451.78 Z" fill="#000000" fill-rule="nonzero" fill-opacity="1" /><path clip-path="url(#clip450)" d="M1973.15 1469.17 Q1969.82 1469.17 1967.9 1470.95 Q1966 1472.73 1966 1475.86 Q1966 1478.98 1967.9 1480.77 Q1969.82 1482.55 1973.15 1482.55 Q1976.49 1482.55 1978.41 1480.77 Q1980.33 1478.96 1980.33 1475.86 Q1980.33 1472.73 1978.41 1470.95 Q1976.51 1469.17 1973.15 1469.17 M1968.48 1467.18 Q1965.47 1466.44 1963.78 1464.38 Q1962.11 1462.32 1962.11 1459.35 Q1962.11 1455.21 1965.05 1452.8 Q1968.02 1450.39 1973.15 1450.39 Q1978.32 1450.39 1981.26 1452.8 Q1984.2 1455.21 1984.2 1459.35 Q1984.2 1462.32 1982.51 1464.38 Q1980.84 1466.44 1977.85 1467.18 Q1981.23 1467.96 1983.11 1470.26 Q1985.01 1472.55 1985.01 1475.86 Q1985.01 1480.88 1981.93 1483.57 Q1978.87 1486.25 1973.15 1486.25 Q1967.44 1486.25 1964.36 1483.57 Q1961.3 1480.88 1961.3 1475.86 Q1961.3 1472.55 1963.2 1470.26 Q1965.1 1467.96 1968.48 1467.18 M1966.77 1459.79 Q1966.77 1462.48 1968.43 1463.98 Q1970.12 1465.49 1973.15 1465.49 Q1976.16 1465.49 1977.85 1463.98 Q1979.57 1462.48 1979.57 1459.79 Q1979.57 1457.11 1977.85 1455.6 Q1976.16 1454.1 1973.15 1454.1 Q1970.12 1454.1 1968.43 1455.6 Q1966.77 1457.11 1966.77 1459.79 Z" fill="#000000" fill-rule="nonzero" fill-opacity="1" /><path clip-path="url(#clip450)" d="M2266.3 1481.64 L2273.94 1481.64 L2273.94 1455.28 L2265.63 1456.95 L2265.63 1452.69 L2273.89 1451.02 L2278.57 1451.02 L2278.57 1481.64 L2286.21 1481.64 L2286.21 1485.58 L2266.3 1485.58 L2266.3 1481.64 Z" fill="#000000" fill-rule="nonzero" fill-opacity="1" /><path clip-path="url(#clip450)" d="M2305.65 1454.1 Q2302.04 1454.1 2300.21 1457.66 Q2298.41 1461.2 2298.41 1468.33 Q2298.41 1475.44 2300.21 1479.01 Q2302.04 1482.55 2305.65 1482.55 Q2309.29 1482.55 2311.09 1479.01 Q2312.92 1475.44 2312.92 1468.33 Q2312.92 1461.2 2311.09 1457.66 Q2309.29 1454.1 2305.65 1454.1 M2305.65 1450.39 Q2311.46 1450.39 2314.52 1455 Q2317.6 1459.58 2317.6 1468.33 Q2317.6 1477.06 2314.52 1481.67 Q2311.46 1486.25 2305.65 1486.25 Q2299.84 1486.25 2296.76 1481.67 Q2293.71 1477.06 2293.71 1468.33 Q2293.71 1459.58 2296.76 1455 Q2299.84 1450.39 2305.65 1450.39 Z" fill="#000000" fill-rule="nonzero" fill-opacity="1" /><path clip-path="url(#clip450)" d="M1166.96 1520.52 L1173.39 1520.52 L1173.39 1562.63 L1196.52 1562.63 L1196.52 1568.04 L1166.96 1568.04 L1166.96 1520.52 Z" fill="#000000" fill-rule="nonzero" fill-opacity="1" /><path clip-path="url(#clip450)" d="M1219.22 1550.12 Q1212.12 1550.12 1209.38 1551.75 Q1206.65 1553.37 1206.65 1557.29 Q1206.65 1560.4 1208.68 1562.25 Q1210.75 1564.07 1214.29 1564.07 Q1219.15 1564.07 1222.08 1560.63 Q1225.04 1557.16 1225.04 1551.43 L1225.04 1550.12 L1219.22 1550.12 M1230.9 1547.71 L1230.9 1568.04 L1225.04 1568.04 L1225.04 1562.63 Q1223.04 1565.88 1220.05 1567.44 Q1217.05 1568.97 1212.73 1568.97 Q1207.25 1568.97 1204 1565.91 Q1200.79 1562.82 1200.79 1557.67 Q1200.79 1551.65 1204.8 1548.6 Q1208.84 1545.54 1216.83 1545.54 L1225.04 1545.54 L1225.04 1544.97 Q1225.04 1540.93 1222.37 1538.73 Q1219.73 1536.5 1214.92 1536.5 Q1211.87 1536.5 1208.97 1537.23 Q1206.07 1537.97 1203.4 1539.43 L1203.4 1534.02 Q1206.61 1532.78 1209.64 1532.17 Q1212.66 1531.54 1215.53 1531.54 Q1223.26 1531.54 1227.08 1535.55 Q1230.9 1539.56 1230.9 1547.71 Z" fill="#000000" fill-rule="nonzero" fill-opacity="1" /><path clip-path="url(#clip450)" d="M1266.42 1549.81 Q1266.42 1543.44 1263.78 1539.94 Q1261.17 1536.44 1256.43 1536.44 Q1251.72 1536.44 1249.07 1539.94 Q1246.46 1543.44 1246.46 1549.81 Q1246.46 1556.14 1249.07 1559.64 Q1251.72 1563.14 1256.43 1563.14 Q1261.17 1563.14 1263.78 1559.64 Q1266.42 1556.14 1266.42 1549.81 M1272.28 1563.62 Q1272.28 1572.72 1268.23 1577.15 Q1264.19 1581.6 1255.85 1581.6 Q1252.77 1581.6 1250.03 1581.13 Q1247.29 1580.68 1244.71 1579.72 L1244.71 1574.03 Q1247.29 1575.43 1249.81 1576.1 Q1252.32 1576.76 1254.93 1576.76 Q1260.69 1576.76 1263.56 1573.74 Q1266.42 1570.75 1266.42 1564.67 L1266.42 1561.77 Q1264.61 1564.92 1261.77 1566.48 Q1258.94 1568.04 1254.99 1568.04 Q1248.44 1568.04 1244.43 1563.05 Q1240.42 1558.05 1240.42 1549.81 Q1240.42 1541.53 1244.43 1536.53 Q1248.44 1531.54 1254.99 1531.54 Q1258.94 1531.54 1261.77 1533.1 Q1264.61 1534.66 1266.42 1537.81 L1266.42 1532.4 L1272.28 1532.4 L1272.28 1563.62 Z" fill="#000000" fill-rule="nonzero" fill-opacity="1" /><path clip-path="url(#clip450)" d="M1304.52 1518.52 L1318.01 1518.52 L1318.01 1523.07 L1310.38 1523.07 L1310.38 1572.09 L1318.01 1572.09 L1318.01 1576.64 L1304.52 1576.64 L1304.52 1518.52 Z" fill="#000000" fill-rule="nonzero" fill-opacity="1" /><path clip-path="url(#clip450)" d="M1353.22 1533.45 L1353.22 1538.98 Q1350.73 1537.71 1348.06 1537.07 Q1345.39 1536.44 1342.52 1536.44 Q1338.16 1536.44 1335.97 1537.77 Q1333.8 1539.11 1333.8 1541.79 Q1333.8 1543.82 1335.36 1545 Q1336.92 1546.15 1341.63 1547.2 L1343.64 1547.64 Q1349.87 1548.98 1352.48 1551.43 Q1355.13 1553.85 1355.13 1558.21 Q1355.13 1563.17 1351.18 1566.07 Q1347.26 1568.97 1340.39 1568.97 Q1337.53 1568.97 1334.41 1568.39 Q1331.32 1567.85 1327.88 1566.74 L1327.88 1560.69 Q1331.13 1562.38 1334.28 1563.24 Q1337.43 1564.07 1340.52 1564.07 Q1344.65 1564.07 1346.88 1562.66 Q1349.11 1561.23 1349.11 1558.65 Q1349.11 1556.27 1347.49 1554.99 Q1345.9 1553.72 1340.45 1552.54 L1338.42 1552.07 Q1332.97 1550.92 1330.55 1548.56 Q1328.14 1546.18 1328.14 1542.04 Q1328.14 1537.01 1331.7 1534.27 Q1335.27 1531.54 1341.82 1531.54 Q1345.07 1531.54 1347.93 1532.01 Q1350.8 1532.49 1353.22 1533.45 Z" fill="#000000" fill-rule="nonzero" fill-opacity="1" /><path clip-path="url(#clip450)" d="M1378.14 1518.52 L1378.14 1576.64 L1364.64 1576.64 L1364.64 1572.09 L1372.25 1572.09 L1372.25 1523.07 L1364.64 1523.07 L1364.64 1518.52 L1378.14 1518.52 Z" fill="#000000" fill-rule="nonzero" fill-opacity="1" /><polyline clip-path="url(#clip450)" style="stroke:#000000; stroke-linecap:round; stroke-linejoin:round; stroke-width:4; stroke-opacity:1; fill:none" points="699.323,1423.18 699.323,123.472 "/>
<polyline clip-path="url(#clip450)" style="stroke:#000000; stroke-linecap:round; stroke-linejoin:round; stroke-width:4; stroke-opacity:0; fill:none" points="699.323,1259.78 699.323,1259.78 "/>
<polyline clip-path="url(#clip450)" style="stroke:#000000; stroke-linecap:round; stroke-linejoin:round; stroke-width:4; stroke-opacity:0; fill:none" points="699.323,939.243 699.323,939.243 "/>
<polyline clip-path="url(#clip450)" style="stroke:#000000; stroke-linecap:round; stroke-linejoin:round; stroke-width:4; stroke-opacity:0; fill:none" points="699.323,618.701 699.323,618.701 "/>
<polyline clip-path="url(#clip450)" style="stroke:#000000; stroke-linecap:round; stroke-linejoin:round; stroke-width:4; stroke-opacity:0; fill:none" points="699.323,298.16 699.323,298.16 "/>
<path clip-path="url(#clip450)" d="M50.9921 1260.24 L80.6679 1260.24 L80.6679 1264.17 L50.9921 1264.17 L50.9921 1260.24 Z" fill="#000000" fill-rule="nonzero" fill-opacity="1" /><path clip-path="url(#clip450)" d="M100.76 1245.58 Q97.1493 1245.58 95.3206 1249.15 Q93.515 1252.69 93.515 1259.82 Q93.515 1266.93 95.3206 1270.49 Q97.1493 1274.03 100.76 1274.03 Q104.395 1274.03 106.2 1270.49 Q108.029 1266.93 108.029 1259.82 Q108.029 1252.69 106.2 1249.15 Q104.395 1245.58 100.76 1245.58 M100.76 1241.88 Q106.571 1241.88 109.626 1246.49 Q112.705 1251.07 112.705 1259.82 Q112.705 1268.55 109.626 1273.15 Q106.571 1277.74 100.76 1277.74 Q94.9502 1277.74 91.8715 1273.15 Q88.816 1268.55 88.816 1259.82 Q88.816 1251.07 91.8715 1246.49 Q94.9502 1241.88 100.76 1241.88 Z" fill="#000000" fill-rule="nonzero" fill-opacity="1" /><path clip-path="url(#clip450)" d="M120.922 1271.18 L125.807 1271.18 L125.807 1277.06 L120.922 1277.06 L120.922 1271.18 Z" fill="#000000" fill-rule="nonzero" fill-opacity="1" /><path clip-path="url(#clip450)" d="M140.019 1273.13 L156.339 1273.13 L156.339 1277.06 L134.394 1277.06 L134.394 1273.13 Q137.056 1270.37 141.64 1265.74 Q146.246 1261.09 147.427 1259.75 Q149.672 1257.23 150.552 1255.49 Q151.455 1253.73 151.455 1252.04 Q151.455 1249.29 149.51 1247.55 Q147.589 1245.81 144.487 1245.81 Q142.288 1245.81 139.834 1246.58 Q137.404 1247.34 134.626 1248.89 L134.626 1244.17 Q137.45 1243.04 139.904 1242.46 Q142.357 1241.88 144.394 1241.88 Q149.765 1241.88 152.959 1244.56 Q156.154 1247.25 156.154 1251.74 Q156.154 1253.87 155.343 1255.79 Q154.556 1257.69 152.45 1260.28 Q151.871 1260.95 148.769 1264.17 Q145.668 1267.36 140.019 1273.13 Z" fill="#000000" fill-rule="nonzero" fill-opacity="1" /><path clip-path="url(#clip450)" d="M99.1632 925.041 Q95.5521 925.041 93.7234 928.606 Q91.9178 932.148 91.9178 939.277 Q91.9178 946.384 93.7234 949.949 Q95.5521 953.49 99.1632 953.49 Q102.797 953.49 104.603 949.949 Q106.432 946.384 106.432 939.277 Q106.432 932.148 104.603 928.606 Q102.797 925.041 99.1632 925.041 M99.1632 921.338 Q104.973 921.338 108.029 925.944 Q111.108 930.527 111.108 939.277 Q111.108 948.004 108.029 952.611 Q104.973 957.194 99.1632 957.194 Q93.353 957.194 90.2743 952.611 Q87.2188 948.004 87.2188 939.277 Q87.2188 930.527 90.2743 925.944 Q93.353 921.338 99.1632 921.338 Z" fill="#000000" fill-rule="nonzero" fill-opacity="1" /><path clip-path="url(#clip450)" d="M119.325 950.643 L124.209 950.643 L124.209 956.523 L119.325 956.523 L119.325 950.643 Z" fill="#000000" fill-rule="nonzero" fill-opacity="1" /><path clip-path="url(#clip450)" d="M144.394 925.041 Q140.783 925.041 138.955 928.606 Q137.149 932.148 137.149 939.277 Q137.149 946.384 138.955 949.949 Q140.783 953.49 144.394 953.49 Q148.029 953.49 149.834 949.949 Q151.663 946.384 151.663 939.277 Q151.663 932.148 149.834 928.606 Q148.029 925.041 144.394 925.041 M144.394 921.338 Q150.205 921.338 153.26 925.944 Q156.339 930.527 156.339 939.277 Q156.339 948.004 153.26 952.611 Q150.205 957.194 144.394 957.194 Q138.584 957.194 135.506 952.611 Q132.45 948.004 132.45 939.277 Q132.45 930.527 135.506 925.944 Q138.584 921.338 144.394 921.338 Z" fill="#000000" fill-rule="nonzero" fill-opacity="1" /><path clip-path="url(#clip450)" d="M100.76 604.5 Q97.1493 604.5 95.3206 608.065 Q93.515 611.606 93.515 618.736 Q93.515 625.843 95.3206 629.407 Q97.1493 632.949 100.76 632.949 Q104.395 632.949 106.2 629.407 Q108.029 625.843 108.029 618.736 Q108.029 611.606 106.2 608.065 Q104.395 604.5 100.76 604.5 M100.76 600.796 Q106.571 600.796 109.626 605.403 Q112.705 609.986 112.705 618.736 Q112.705 627.463 109.626 632.069 Q106.571 636.653 100.76 636.653 Q94.9502 636.653 91.8715 632.069 Q88.816 627.463 88.816 618.736 Q88.816 609.986 91.8715 605.403 Q94.9502 600.796 100.76 600.796 Z" fill="#000000" fill-rule="nonzero" fill-opacity="1" /><path clip-path="url(#clip450)" d="M120.922 630.102 L125.807 630.102 L125.807 635.981 L120.922 635.981 L120.922 630.102 Z" fill="#000000" fill-rule="nonzero" fill-opacity="1" /><path clip-path="url(#clip450)" d="M140.019 632.046 L156.339 632.046 L156.339 635.981 L134.394 635.981 L134.394 632.046 Q137.056 629.292 141.64 624.662 Q146.246 620.009 147.427 618.667 Q149.672 616.143 150.552 614.407 Q151.455 612.648 151.455 610.958 Q151.455 608.204 149.51 606.468 Q147.589 604.732 144.487 604.732 Q142.288 604.732 139.834 605.495 Q137.404 606.259 134.626 607.81 L134.626 603.088 Q137.45 601.954 139.904 601.375 Q142.357 600.796 144.394 600.796 Q149.765 600.796 152.959 603.482 Q156.154 606.167 156.154 610.657 Q156.154 612.787 155.343 614.708 Q154.556 616.606 152.45 619.199 Q151.871 619.87 148.769 623.088 Q145.668 626.282 140.019 632.046 Z" fill="#000000" fill-rule="nonzero" fill-opacity="1" /><path clip-path="url(#clip450)" d="M98.6771 283.959 Q95.066 283.959 93.2373 287.524 Q91.4317 291.065 91.4317 298.195 Q91.4317 305.301 93.2373 308.866 Q95.066 312.408 98.6771 312.408 Q102.311 312.408 104.117 308.866 Q105.946 305.301 105.946 298.195 Q105.946 291.065 104.117 287.524 Q102.311 283.959 98.6771 283.959 M98.6771 280.255 Q104.487 280.255 107.543 284.862 Q110.621 289.445 110.621 298.195 Q110.621 306.922 107.543 311.528 Q104.487 316.111 98.6771 316.111 Q92.8669 316.111 89.7882 311.528 Q86.7327 306.922 86.7327 298.195 Q86.7327 289.445 89.7882 284.862 Q92.8669 280.255 98.6771 280.255 Z" fill="#000000" fill-rule="nonzero" fill-opacity="1" /><path clip-path="url(#clip450)" d="M118.839 309.561 L123.723 309.561 L123.723 315.44 L118.839 315.44 L118.839 309.561 Z" fill="#000000" fill-rule="nonzero" fill-opacity="1" /><path clip-path="url(#clip450)" d="M146.756 284.954 L134.95 303.403 L146.756 303.403 L146.756 284.954 M145.529 280.88 L151.408 280.88 L151.408 303.403 L156.339 303.403 L156.339 307.292 L151.408 307.292 L151.408 315.44 L146.756 315.44 L146.756 307.292 L131.154 307.292 L131.154 302.778 L145.529 280.88 Z" fill="#000000" fill-rule="nonzero" fill-opacity="1" /><path clip-path="url(#clip450)" d="M656.02 12.096 L664.203 12.096 L664.203 72.576 L656.02 72.576 L656.02 12.096 Z" fill="#000000" fill-rule="nonzero" fill-opacity="1" /><path clip-path="url(#clip450)" d="M717.877 45.1919 L717.877 72.576 L710.424 72.576 L710.424 45.4349 Q710.424 38.994 707.912 35.7938 Q705.4 32.5936 700.377 32.5936 Q694.342 32.5936 690.858 36.4419 Q687.374 40.2903 687.374 46.9338 L687.374 72.576 L679.88 72.576 L679.88 27.2059 L687.374 27.2059 L687.374 34.2544 Q690.048 30.163 693.653 28.1376 Q697.299 26.1121 702.038 26.1121 Q709.856 26.1121 713.867 30.9732 Q717.877 35.7938 717.877 45.1919 Z" fill="#000000" fill-rule="nonzero" fill-opacity="1" /><path clip-path="url(#clip450)" d="M739.955 65.7705 L739.955 89.8329 L732.461 89.8329 L732.461 27.2059 L739.955 27.2059 L739.955 34.0924 Q742.304 30.0415 745.869 28.0971 Q749.474 26.1121 754.457 26.1121 Q762.721 26.1121 767.865 32.6746 Q773.051 39.2371 773.051 49.9314 Q773.051 60.6258 767.865 67.1883 Q762.721 73.7508 754.457 73.7508 Q749.474 73.7508 745.869 71.8063 Q742.304 69.8214 739.955 65.7705 M765.313 49.9314 Q765.313 41.7081 761.911 37.0496 Q758.548 32.3505 752.634 32.3505 Q746.72 32.3505 743.317 37.0496 Q739.955 41.7081 739.955 49.9314 Q739.955 58.1548 743.317 62.8538 Q746.72 67.5124 752.634 67.5124 Q758.548 67.5124 761.911 62.8538 Q765.313 58.1548 765.313 49.9314 Z" fill="#000000" fill-rule="nonzero" fill-opacity="1" /><path clip-path="url(#clip450)" d="M784.636 54.671 L784.636 27.2059 L792.09 27.2059 L792.09 54.3874 Q792.09 60.8284 794.601 64.0691 Q797.113 67.2693 802.136 67.2693 Q808.172 67.2693 811.656 63.421 Q815.18 59.5726 815.18 52.9291 L815.18 27.2059 L822.634 27.2059 L822.634 72.576 L815.18 72.576 L815.18 65.6084 Q812.466 69.7404 808.861 71.7658 Q805.296 73.7508 800.556 73.7508 Q792.738 73.7508 788.687 68.8897 Q784.636 64.0286 784.636 54.671 M803.392 26.1121 L803.392 26.1121 Z" fill="#000000" fill-rule="nonzero" fill-opacity="1" /><path clip-path="url(#clip450)" d="M845.359 14.324 L845.359 27.2059 L860.712 27.2059 L860.712 32.9987 L845.359 32.9987 L845.359 57.6282 Q845.359 63.1779 846.858 64.7578 Q848.397 66.3376 853.056 66.3376 L860.712 66.3376 L860.712 72.576 L853.056 72.576 Q844.428 72.576 841.146 69.3758 Q837.865 66.1351 837.865 57.6282 L837.865 32.9987 L832.396 32.9987 L832.396 27.2059 L837.865 27.2059 L837.865 14.324 L845.359 14.324 Z" fill="#000000" fill-rule="nonzero" fill-opacity="1" /><path clip-path="url(#clip450)" d="M866.748 46.5287 L888.582 46.5287 L888.582 53.1722 L866.748 53.1722 L866.748 46.5287 Z" fill="#000000" fill-rule="nonzero" fill-opacity="1" /><path clip-path="url(#clip450)" d="M927.633 17.6457 Q918.721 17.6457 913.455 24.2892 Q908.229 30.9327 908.229 42.3968 Q908.229 53.8203 913.455 60.4638 Q918.721 67.1073 927.633 67.1073 Q936.545 67.1073 941.73 60.4638 Q946.956 53.8203 946.956 42.3968 Q946.956 30.9327 941.73 24.2892 Q936.545 17.6457 927.633 17.6457 M927.633 11.0023 Q940.353 11.0023 947.969 19.5497 Q955.584 28.0566 955.584 42.3968 Q955.584 56.6965 947.969 65.2439 Q940.353 73.7508 927.633 73.7508 Q914.873 73.7508 907.217 65.2439 Q899.601 56.737 899.601 42.3968 Q899.601 28.0566 907.217 19.5497 Q914.873 11.0023 927.633 11.0023 Z" fill="#000000" fill-rule="nonzero" fill-opacity="1" /><path clip-path="url(#clip450)" d="M967.291 54.671 L967.291 27.2059 L974.745 27.2059 L974.745 54.3874 Q974.745 60.8284 977.257 64.0691 Q979.768 67.2693 984.791 67.2693 Q990.827 67.2693 994.311 63.421 Q997.835 59.5726 997.835 52.9291 L997.835 27.2059 L1005.29 27.2059 L1005.29 72.576 L997.835 72.576 L997.835 65.6084 Q995.121 69.7404 991.516 71.7658 Q987.951 73.7508 983.212 73.7508 Q975.393 73.7508 971.342 68.8897 Q967.291 64.0286 967.291 54.671 M986.047 26.1121 L986.047 26.1121 Z" fill="#000000" fill-rule="nonzero" fill-opacity="1" /><path clip-path="url(#clip450)" d="M1028.01 14.324 L1028.01 27.2059 L1043.37 27.2059 L1043.37 32.9987 L1028.01 32.9987 L1028.01 57.6282 Q1028.01 63.1779 1029.51 64.7578 Q1031.05 66.3376 1035.71 66.3376 L1043.37 66.3376 L1043.37 72.576 L1035.71 72.576 Q1027.08 72.576 1023.8 69.3758 Q1020.52 66.1351 1020.52 57.6282 L1020.52 32.9987 L1015.05 32.9987 L1015.05 27.2059 L1020.52 27.2059 L1020.52 14.324 L1028.01 14.324 Z" fill="#000000" fill-rule="nonzero" fill-opacity="1" /><path clip-path="url(#clip450)" d="M1060.38 65.7705 L1060.38 89.8329 L1052.89 89.8329 L1052.89 27.2059 L1060.38 27.2059 L1060.38 34.0924 Q1062.73 30.0415 1066.3 28.0971 Q1069.9 26.1121 1074.88 26.1121 Q1083.15 26.1121 1088.29 32.6746 Q1093.48 39.2371 1093.48 49.9314 Q1093.48 60.6258 1088.29 67.1883 Q1083.15 73.7508 1074.88 73.7508 Q1069.9 73.7508 1066.3 71.8063 Q1062.73 69.8214 1060.38 65.7705 M1085.74 49.9314 Q1085.74 41.7081 1082.34 37.0496 Q1078.97 32.3505 1073.06 32.3505 Q1067.15 32.3505 1063.74 37.0496 Q1060.38 41.7081 1060.38 49.9314 Q1060.38 58.1548 1063.74 62.8538 Q1067.15 67.5124 1073.06 67.5124 Q1078.97 67.5124 1082.34 62.8538 Q1085.74 58.1548 1085.74 49.9314 Z" fill="#000000" fill-rule="nonzero" fill-opacity="1" /><path clip-path="url(#clip450)" d="M1105.06 54.671 L1105.06 27.2059 L1112.52 27.2059 L1112.52 54.3874 Q1112.52 60.8284 1115.03 64.0691 Q1117.54 67.2693 1122.56 67.2693 Q1128.6 67.2693 1132.08 63.421 Q1135.61 59.5726 1135.61 52.9291 L1135.61 27.2059 L1143.06 27.2059 L1143.06 72.576 L1135.61 72.576 L1135.61 65.6084 Q1132.89 69.7404 1129.29 71.7658 Q1125.72 73.7508 1120.98 73.7508 Q1113.16 73.7508 1109.11 68.8897 Q1105.06 64.0286 1105.06 54.671 M1123.82 26.1121 L1123.82 26.1121 Z" fill="#000000" fill-rule="nonzero" fill-opacity="1" /><path clip-path="url(#clip450)" d="M1165.79 14.324 L1165.79 27.2059 L1181.14 27.2059 L1181.14 32.9987 L1165.79 32.9987 L1165.79 57.6282 Q1165.79 63.1779 1167.28 64.7578 Q1168.82 66.3376 1173.48 66.3376 L1181.14 66.3376 L1181.14 72.576 L1173.48 72.576 Q1164.85 72.576 1161.57 69.3758 Q1158.29 66.1351 1158.29 57.6282 L1158.29 32.9987 L1152.82 32.9987 L1152.82 27.2059 L1158.29 27.2059 L1158.29 14.324 L1165.79 14.324 Z" fill="#000000" fill-rule="nonzero" fill-opacity="1" /><path clip-path="url(#clip450)" d="M1249.96 28.9478 L1249.96 35.9153 Q1246.8 34.1734 1243.6 33.3227 Q1240.44 32.4315 1237.2 32.4315 Q1229.95 32.4315 1225.94 37.0496 Q1221.93 41.6271 1221.93 49.9314 Q1221.93 58.2358 1225.94 62.8538 Q1229.95 67.4314 1237.2 67.4314 Q1240.44 67.4314 1243.6 66.5807 Q1246.8 65.6895 1249.96 63.9476 L1249.96 70.8341 Q1246.84 72.2924 1243.48 73.0216 Q1240.16 73.7508 1236.39 73.7508 Q1226.14 73.7508 1220.11 67.3098 Q1214.07 60.8689 1214.07 49.9314 Q1214.07 38.832 1220.15 32.472 Q1226.27 26.1121 1236.88 26.1121 Q1240.32 26.1121 1243.6 26.8413 Q1246.88 27.5299 1249.96 28.9478 Z" fill="#000000" fill-rule="nonzero" fill-opacity="1" /><path clip-path="url(#clip450)" d="M1289.22 34.1734 Q1287.96 33.4443 1286.46 33.1202 Q1285 32.7556 1283.22 32.7556 Q1276.9 32.7556 1273.5 36.8875 Q1270.14 40.9789 1270.14 48.6757 L1270.14 72.576 L1262.64 72.576 L1262.64 27.2059 L1270.14 27.2059 L1270.14 34.2544 Q1272.49 30.1225 1276.25 28.1376 Q1280.02 26.1121 1285.41 26.1121 Q1286.18 26.1121 1287.11 26.2337 Q1288.04 26.3147 1289.18 26.5172 L1289.22 34.1734 Z" fill="#000000" fill-rule="nonzero" fill-opacity="1" /><path clip-path="url(#clip450)" d="M1312.79 32.4315 Q1306.8 32.4315 1303.31 37.1306 Q1299.83 41.7891 1299.83 49.9314 Q1299.83 58.0738 1303.27 62.7728 Q1306.76 67.4314 1312.79 67.4314 Q1318.75 67.4314 1322.23 62.7323 Q1325.72 58.0333 1325.72 49.9314 Q1325.72 41.8701 1322.23 37.1711 Q1318.75 32.4315 1312.79 32.4315 M1312.79 26.1121 Q1322.52 26.1121 1328.06 32.4315 Q1333.61 38.7509 1333.61 49.9314 Q1333.61 61.0714 1328.06 67.4314 Q1322.52 73.7508 1312.79 73.7508 Q1303.03 73.7508 1297.48 67.4314 Q1291.97 61.0714 1291.97 49.9314 Q1291.97 38.7509 1297.48 32.4315 Q1303.03 26.1121 1312.79 26.1121 Z" fill="#000000" fill-rule="nonzero" fill-opacity="1" /><path clip-path="url(#clip450)" d="M1374.89 28.5427 L1374.89 35.5912 Q1371.73 33.9709 1368.33 33.1607 Q1364.93 32.3505 1361.28 32.3505 Q1355.73 32.3505 1352.94 34.0519 Q1350.18 35.7533 1350.18 39.156 Q1350.18 41.7486 1352.17 43.2475 Q1354.15 44.7058 1360.15 46.0426 L1362.7 46.6097 Q1370.64 48.3111 1373.96 51.4303 Q1377.32 54.509 1377.32 60.0587 Q1377.32 66.3781 1372.3 70.0644 Q1367.32 73.7508 1358.57 73.7508 Q1354.92 73.7508 1350.95 73.0216 Q1347.02 72.3329 1342.65 70.9151 L1342.65 63.2184 Q1346.78 65.3654 1350.79 66.4591 Q1354.8 67.5124 1358.73 67.5124 Q1364 67.5124 1366.83 65.73 Q1369.67 63.9071 1369.67 60.6258 Q1369.67 57.5877 1367.6 55.9673 Q1365.58 54.3469 1358.65 52.8481 L1356.06 52.2405 Q1349.13 50.7821 1346.05 47.7845 Q1342.97 44.7463 1342.97 39.4801 Q1342.97 33.0797 1347.51 29.5959 Q1352.05 26.1121 1360.39 26.1121 Q1364.52 26.1121 1368.17 26.7198 Q1371.81 27.3274 1374.89 28.5427 Z" fill="#000000" fill-rule="nonzero" fill-opacity="1" /><path clip-path="url(#clip450)" d="M1418.12 28.5427 L1418.12 35.5912 Q1414.96 33.9709 1411.55 33.1607 Q1408.15 32.3505 1404.51 32.3505 Q1398.96 32.3505 1396.16 34.0519 Q1393.41 35.7533 1393.41 39.156 Q1393.41 41.7486 1395.39 43.2475 Q1397.38 44.7058 1403.37 46.0426 L1405.92 46.6097 Q1413.86 48.3111 1417.18 51.4303 Q1420.55 54.509 1420.55 60.0587 Q1420.55 66.3781 1415.52 70.0644 Q1410.54 73.7508 1401.79 73.7508 Q1398.15 73.7508 1394.18 73.0216 Q1390.25 72.3329 1385.87 70.9151 L1385.87 63.2184 Q1390 65.3654 1394.01 66.4591 Q1398.02 67.5124 1401.95 67.5124 Q1407.22 67.5124 1410.06 65.73 Q1412.89 63.9071 1412.89 60.6258 Q1412.89 57.5877 1410.82 55.9673 Q1408.8 54.3469 1401.87 52.8481 L1399.28 52.2405 Q1392.35 50.7821 1389.27 47.7845 Q1386.2 44.7463 1386.2 39.4801 Q1386.2 33.0797 1390.73 29.5959 Q1395.27 26.1121 1403.61 26.1121 Q1407.75 26.1121 1411.39 26.7198 Q1415.04 27.3274 1418.12 28.5427 Z" fill="#000000" fill-rule="nonzero" fill-opacity="1" /><path clip-path="url(#clip450)" d="M1491.44 28.9478 L1491.44 35.9153 Q1488.28 34.1734 1485.08 33.3227 Q1481.92 32.4315 1478.68 32.4315 Q1471.43 32.4315 1467.42 37.0496 Q1463.41 41.6271 1463.41 49.9314 Q1463.41 58.2358 1467.42 62.8538 Q1471.43 67.4314 1478.68 67.4314 Q1481.92 67.4314 1485.08 66.5807 Q1488.28 65.6895 1491.44 63.9476 L1491.44 70.8341 Q1488.32 72.2924 1484.96 73.0216 Q1481.63 73.7508 1477.87 73.7508 Q1467.62 73.7508 1461.58 67.3098 Q1455.55 60.8689 1455.55 49.9314 Q1455.55 38.832 1461.62 32.472 Q1467.74 26.1121 1478.35 26.1121 Q1481.8 26.1121 1485.08 26.8413 Q1488.36 27.5299 1491.44 28.9478 Z" fill="#000000" fill-rule="nonzero" fill-opacity="1" /><path clip-path="url(#clip450)" d="M1521.98 32.4315 Q1515.99 32.4315 1512.5 37.1306 Q1509.02 41.7891 1509.02 49.9314 Q1509.02 58.0738 1512.46 62.7728 Q1515.95 67.4314 1521.98 67.4314 Q1527.94 67.4314 1531.42 62.7323 Q1534.9 58.0333 1534.9 49.9314 Q1534.9 41.8701 1531.42 37.1711 Q1527.94 32.4315 1521.98 32.4315 M1521.98 26.1121 Q1531.7 26.1121 1537.25 32.4315 Q1542.8 38.7509 1542.8 49.9314 Q1542.8 61.0714 1537.25 67.4314 Q1531.7 73.7508 1521.98 73.7508 Q1512.22 73.7508 1506.67 67.4314 Q1501.16 61.0714 1501.16 49.9314 Q1501.16 38.7509 1506.67 32.4315 Q1512.22 26.1121 1521.98 26.1121 Z" fill="#000000" fill-rule="nonzero" fill-opacity="1" /><path clip-path="url(#clip450)" d="M1581.45 34.1734 Q1580.19 33.4443 1578.69 33.1202 Q1577.24 32.7556 1575.45 32.7556 Q1569.13 32.7556 1565.73 36.8875 Q1562.37 40.9789 1562.37 48.6757 L1562.37 72.576 L1554.88 72.576 L1554.88 27.2059 L1562.37 27.2059 L1562.37 34.2544 Q1564.72 30.1225 1568.49 28.1376 Q1572.25 26.1121 1577.64 26.1121 Q1578.41 26.1121 1579.34 26.2337 Q1580.27 26.3147 1581.41 26.5172 L1581.45 34.1734 Z" fill="#000000" fill-rule="nonzero" fill-opacity="1" /><path clip-path="url(#clip450)" d="M1614.1 34.1734 Q1612.84 33.4443 1611.34 33.1202 Q1609.89 32.7556 1608.1 32.7556 Q1601.78 32.7556 1598.38 36.8875 Q1595.02 40.9789 1595.02 48.6757 L1595.02 72.576 L1587.53 72.576 L1587.53 27.2059 L1595.02 27.2059 L1595.02 34.2544 Q1597.37 30.1225 1601.14 28.1376 Q1604.9 26.1121 1610.29 26.1121 Q1611.06 26.1121 1611.99 26.2337 Q1612.92 26.3147 1614.06 26.5172 L1614.1 34.1734 Z" fill="#000000" fill-rule="nonzero" fill-opacity="1" /><path clip-path="url(#clip450)" d="M1658.9 48.0275 L1658.9 51.6733 L1624.63 51.6733 Q1625.12 59.3701 1629.25 63.421 Q1633.42 67.4314 1640.84 67.4314 Q1645.13 67.4314 1649.14 66.3781 Q1653.19 65.3249 1657.16 63.2184 L1657.16 70.267 Q1653.15 71.9684 1648.94 72.8596 Q1644.72 73.7508 1640.39 73.7508 Q1629.53 73.7508 1623.17 67.4314 Q1616.85 61.1119 1616.85 50.3365 Q1616.85 39.1965 1622.85 32.6746 Q1628.89 26.1121 1639.09 26.1121 Q1648.25 26.1121 1653.56 32.0264 Q1658.9 37.9003 1658.9 48.0275 M1651.45 45.84 Q1651.37 39.7232 1648.01 36.0774 Q1644.68 32.4315 1639.17 32.4315 Q1632.94 32.4315 1629.17 35.9558 Q1625.44 39.4801 1624.87 45.8805 L1651.45 45.84 Z" fill="#000000" fill-rule="nonzero" fill-opacity="1" /><path clip-path="url(#clip450)" d="M1671.14 9.54393 L1678.59 9.54393 L1678.59 72.576 L1671.14 72.576 L1671.14 9.54393 Z" fill="#000000" fill-rule="nonzero" fill-opacity="1" /><path clip-path="url(#clip450)" d="M1714.8 49.7694 Q1705.77 49.7694 1702.29 51.8354 Q1698.8 53.9013 1698.8 58.8839 Q1698.8 62.8538 1701.4 65.2034 Q1704.03 67.5124 1708.53 67.5124 Q1714.72 67.5124 1718.45 63.1374 Q1722.22 58.7219 1722.22 51.4303 L1722.22 49.7694 L1714.8 49.7694 M1729.67 46.6907 L1729.67 72.576 L1722.22 72.576 L1722.22 65.6895 Q1719.67 69.8214 1715.86 71.8063 Q1712.05 73.7508 1706.54 73.7508 Q1699.57 73.7508 1695.44 69.8619 Q1691.35 65.9325 1691.35 59.3701 Q1691.35 51.7138 1696.45 47.825 Q1701.6 43.9361 1711.77 43.9361 L1722.22 43.9361 L1722.22 43.2069 Q1722.22 38.0623 1718.82 35.2672 Q1715.45 32.4315 1709.34 32.4315 Q1705.45 32.4315 1701.76 33.3632 Q1698.07 34.295 1694.67 36.1584 L1694.67 29.2718 Q1698.76 27.692 1702.61 26.9223 Q1706.46 26.1121 1710.11 26.1121 Q1719.95 26.1121 1724.81 31.2163 Q1729.67 36.3204 1729.67 46.6907 Z" fill="#000000" fill-rule="nonzero" fill-opacity="1" /><path clip-path="url(#clip450)" d="M1752.4 14.324 L1752.4 27.2059 L1767.75 27.2059 L1767.75 32.9987 L1752.4 32.9987 L1752.4 57.6282 Q1752.4 63.1779 1753.9 64.7578 Q1755.44 66.3376 1760.09 66.3376 L1767.75 66.3376 L1767.75 72.576 L1760.09 72.576 Q1751.47 72.576 1748.18 69.3758 Q1744.9 66.1351 1744.9 57.6282 L1744.9 32.9987 L1739.43 32.9987 L1739.43 27.2059 L1744.9 27.2059 L1744.9 14.324 L1752.4 14.324 Z" fill="#000000" fill-rule="nonzero" fill-opacity="1" /><path clip-path="url(#clip450)" d="M1777.55 27.2059 L1785.01 27.2059 L1785.01 72.576 L1777.55 72.576 L1777.55 27.2059 M1777.55 9.54393 L1785.01 9.54393 L1785.01 18.9825 L1777.55 18.9825 L1777.55 9.54393 Z" fill="#000000" fill-rule="nonzero" fill-opacity="1" /><path clip-path="url(#clip450)" d="M1818.18 32.4315 Q1812.19 32.4315 1808.7 37.1306 Q1805.22 41.7891 1805.22 49.9314 Q1805.22 58.0738 1808.66 62.7728 Q1812.15 67.4314 1818.18 67.4314 Q1824.14 67.4314 1827.62 62.7323 Q1831.11 58.0333 1831.11 49.9314 Q1831.11 41.8701 1827.62 37.1711 Q1824.14 32.4315 1818.18 32.4315 M1818.18 26.1121 Q1827.91 26.1121 1833.46 32.4315 Q1839.01 38.7509 1839.01 49.9314 Q1839.01 61.0714 1833.46 67.4314 Q1827.91 73.7508 1818.18 73.7508 Q1808.42 73.7508 1802.87 67.4314 Q1797.36 61.0714 1797.36 49.9314 Q1797.36 38.7509 1802.87 32.4315 Q1808.42 26.1121 1818.18 26.1121 Z" fill="#000000" fill-rule="nonzero" fill-opacity="1" /><path clip-path="url(#clip450)" d="M1889.07 45.1919 L1889.07 72.576 L1881.62 72.576 L1881.62 45.4349 Q1881.62 38.994 1879.11 35.7938 Q1876.6 32.5936 1871.57 32.5936 Q1865.54 32.5936 1862.06 36.4419 Q1858.57 40.2903 1858.57 46.9338 L1858.57 72.576 L1851.08 72.576 L1851.08 27.2059 L1858.57 27.2059 L1858.57 34.2544 Q1861.25 30.163 1864.85 28.1376 Q1868.5 26.1121 1873.24 26.1121 Q1881.05 26.1121 1885.06 30.9732 Q1889.07 35.7938 1889.07 45.1919 Z" fill="#000000" fill-rule="nonzero" fill-opacity="1" /><polyline clip-path="url(#clip452)" style="stroke:#009af9; stroke-linecap:round; stroke-linejoin:round; stroke-width:4; stroke-opacity:1; fill:none" points="253.483,939.243 253.483,1048.62 "/>
<polyline clip-path="url(#clip452)" style="stroke:#009af9; stroke-linecap:round; stroke-linejoin:round; stroke-width:4; stroke-opacity:1; fill:none" points="269.406,939.243 269.406,1058.74 "/>
<polyline clip-path="url(#clip452)" style="stroke:#009af9; stroke-linecap:round; stroke-linejoin:round; stroke-width:4; stroke-opacity:1; fill:none" points="285.328,939.243 285.328,1067.03 "/>
<polyline clip-path="url(#clip452)" style="stroke:#009af9; stroke-linecap:round; stroke-linejoin:round; stroke-width:4; stroke-opacity:1; fill:none" points="301.251,939.243 301.251,1073.3 "/>
<polyline clip-path="url(#clip452)" style="stroke:#009af9; stroke-linecap:round; stroke-linejoin:round; stroke-width:4; stroke-opacity:1; fill:none" points="317.174,939.243 317.174,1077.74 "/>
<polyline clip-path="url(#clip452)" style="stroke:#009af9; stroke-linecap:round; stroke-linejoin:round; stroke-width:4; stroke-opacity:1; fill:none" points="333.097,939.243 333.097,1080.93 "/>
<polyline clip-path="url(#clip452)" style="stroke:#009af9; stroke-linecap:round; stroke-linejoin:round; stroke-width:4; stroke-opacity:1; fill:none" points="349.02,939.243 349.02,1083.7 "/>
<polyline clip-path="url(#clip452)" style="stroke:#009af9; stroke-linecap:round; stroke-linejoin:round; stroke-width:4; stroke-opacity:1; fill:none" points="364.943,939.243 364.943,1086.95 "/>
<polyline clip-path="url(#clip452)" style="stroke:#009af9; stroke-linecap:round; stroke-linejoin:round; stroke-width:4; stroke-opacity:1; fill:none" points="380.866,939.243 380.866,1091.35 "/>
<polyline clip-path="url(#clip452)" style="stroke:#009af9; stroke-linecap:round; stroke-linejoin:round; stroke-width:4; stroke-opacity:1; fill:none" points="396.789,939.243 396.789,1097.2 "/>
<polyline clip-path="url(#clip452)" style="stroke:#009af9; stroke-linecap:round; stroke-linejoin:round; stroke-width:4; stroke-opacity:1; fill:none" points="412.712,939.243 412.712,1104.26 "/>
<polyline clip-path="url(#clip452)" style="stroke:#009af9; stroke-linecap:round; stroke-linejoin:round; stroke-width:4; stroke-opacity:1; fill:none" points="428.634,939.243 428.634,1111.76 "/>
<polyline clip-path="url(#clip452)" style="stroke:#009af9; stroke-linecap:round; stroke-linejoin:round; stroke-width:4; stroke-opacity:1; fill:none" points="444.557,939.243 444.557,1118.58 "/>
<polyline clip-path="url(#clip452)" style="stroke:#009af9; stroke-linecap:round; stroke-linejoin:round; stroke-width:4; stroke-opacity:1; fill:none" points="460.48,939.243 460.48,1123.48 "/>
<polyline clip-path="url(#clip452)" style="stroke:#009af9; stroke-linecap:round; stroke-linejoin:round; stroke-width:4; stroke-opacity:1; fill:none" points="476.403,939.243 476.403,1125.47 "/>
<polyline clip-path="url(#clip452)" style="stroke:#009af9; stroke-linecap:round; stroke-linejoin:round; stroke-width:4; stroke-opacity:1; fill:none" points="492.326,939.243 492.326,1124.1 "/>
<polyline clip-path="url(#clip452)" style="stroke:#009af9; stroke-linecap:round; stroke-linejoin:round; stroke-width:4; stroke-opacity:1; fill:none" points="508.249,939.243 508.249,1119.69 "/>
<polyline clip-path="url(#clip452)" style="stroke:#009af9; stroke-linecap:round; stroke-linejoin:round; stroke-width:4; stroke-opacity:1; fill:none" points="524.172,939.243 524.172,1113.38 "/>
<polyline clip-path="url(#clip452)" style="stroke:#009af9; stroke-linecap:round; stroke-linejoin:round; stroke-width:4; stroke-opacity:1; fill:none" points="540.095,939.243 540.095,1106.92 "/>
<polyline clip-path="url(#clip452)" style="stroke:#009af9; stroke-linecap:round; stroke-linejoin:round; stroke-width:4; stroke-opacity:1; fill:none" points="556.017,939.243 556.017,1102.29 "/>
<polyline clip-path="url(#clip452)" style="stroke:#009af9; stroke-linecap:round; stroke-linejoin:round; stroke-width:4; stroke-opacity:1; fill:none" points="571.94,939.243 571.94,1101.17 "/>
<polyline clip-path="url(#clip452)" style="stroke:#009af9; stroke-linecap:round; stroke-linejoin:round; stroke-width:4; stroke-opacity:1; fill:none" points="587.863,939.243 587.863,1104.38 "/>
<polyline clip-path="url(#clip452)" style="stroke:#009af9; stroke-linecap:round; stroke-linejoin:round; stroke-width:4; stroke-opacity:1; fill:none" points="603.786,939.243 603.786,1111.41 "/>
<polyline clip-path="url(#clip452)" style="stroke:#009af9; stroke-linecap:round; stroke-linejoin:round; stroke-width:4; stroke-opacity:1; fill:none" points="619.709,939.243 619.709,1120.21 "/>
<polyline clip-path="url(#clip452)" style="stroke:#009af9; stroke-linecap:round; stroke-linejoin:round; stroke-width:4; stroke-opacity:1; fill:none" points="635.632,939.243 635.632,1127.27 "/>
<polyline clip-path="url(#clip452)" style="stroke:#009af9; stroke-linecap:round; stroke-linejoin:round; stroke-width:4; stroke-opacity:1; fill:none" points="651.555,939.243 651.555,1128.03 "/>
<polyline clip-path="url(#clip452)" style="stroke:#009af9; stroke-linecap:round; stroke-linejoin:round; stroke-width:4; stroke-opacity:1; fill:none" points="667.478,939.243 667.478,1117.65 "/>
<polyline clip-path="url(#clip452)" style="stroke:#009af9; stroke-linecap:round; stroke-linejoin:round; stroke-width:4; stroke-opacity:1; fill:none" points="683.401,939.243 683.401,1091.8 "/>
<polyline clip-path="url(#clip452)" style="stroke:#009af9; stroke-linecap:round; stroke-linejoin:round; stroke-width:4; stroke-opacity:1; fill:none" points="699.323,939.243 699.323,1047.59 "/>
<polyline clip-path="url(#clip452)" style="stroke:#009af9; stroke-linecap:round; stroke-linejoin:round; stroke-width:4; stroke-opacity:1; fill:none" points="715.246,939.243 715.246,984.251 "/>
<polyline clip-path="url(#clip452)" style="stroke:#009af9; stroke-linecap:round; stroke-linejoin:round; stroke-width:4; stroke-opacity:1; fill:none" points="731.169,939.243 731.169,902.855 "/>
<polyline clip-path="url(#clip452)" style="stroke:#009af9; stroke-linecap:round; stroke-linejoin:round; stroke-width:4; stroke-opacity:1; fill:none" points="747.092,939.243 747.092,807.559 "/>
<polyline clip-path="url(#clip452)" style="stroke:#009af9; stroke-linecap:round; stroke-linejoin:round; stroke-width:4; stroke-opacity:1; fill:none" points="763.015,939.243 763.015,704.245 "/>
<polyline clip-path="url(#clip452)" style="stroke:#009af9; stroke-linecap:round; stroke-linejoin:round; stroke-width:4; stroke-opacity:1; fill:none" points="778.938,939.243 778.938,599.561 "/>
<polyline clip-path="url(#clip452)" style="stroke:#009af9; stroke-linecap:round; stroke-linejoin:round; stroke-width:4; stroke-opacity:1; fill:none" points="794.861,939.243 794.861,499.891 "/>
<polyline clip-path="url(#clip452)" style="stroke:#009af9; stroke-linecap:round; stroke-linejoin:round; stroke-width:4; stroke-opacity:1; fill:none" points="810.784,939.243 810.784,410.459 "/>
<polyline clip-path="url(#clip452)" style="stroke:#009af9; stroke-linecap:round; stroke-linejoin:round; stroke-width:4; stroke-opacity:1; fill:none" points="826.707,939.243 826.707,334.739 "/>
<polyline clip-path="url(#clip452)" style="stroke:#009af9; stroke-linecap:round; stroke-linejoin:round; stroke-width:4; stroke-opacity:1; fill:none" points="842.629,939.243 842.629,274.252 "/>
<polyline clip-path="url(#clip452)" style="stroke:#009af9; stroke-linecap:round; stroke-linejoin:round; stroke-width:4; stroke-opacity:1; fill:none" points="858.552,939.243 858.552,228.758 "/>
<polyline clip-path="url(#clip452)" style="stroke:#009af9; stroke-linecap:round; stroke-linejoin:round; stroke-width:4; stroke-opacity:1; fill:none" points="874.475,939.243 874.475,196.733 "/>
<polyline clip-path="url(#clip452)" style="stroke:#009af9; stroke-linecap:round; stroke-linejoin:round; stroke-width:4; stroke-opacity:1; fill:none" points="890.398,939.243 890.398,176.01 "/>
<polyline clip-path="url(#clip452)" style="stroke:#009af9; stroke-linecap:round; stroke-linejoin:round; stroke-width:4; stroke-opacity:1; fill:none" points="906.321,939.243 906.321,164.415 "/>
<polyline clip-path="url(#clip452)" style="stroke:#009af9; stroke-linecap:round; stroke-linejoin:round; stroke-width:4; stroke-opacity:1; fill:none" points="922.244,939.243 922.244,160.256 "/>
<polyline clip-path="url(#clip452)" style="stroke:#009af9; stroke-linecap:round; stroke-linejoin:round; stroke-width:4; stroke-opacity:1; fill:none" points="938.167,939.243 938.167,162.592 "/>
<polyline clip-path="url(#clip452)" style="stroke:#009af9; stroke-linecap:round; stroke-linejoin:round; stroke-width:4; stroke-opacity:1; fill:none" points="954.09,939.243 954.09,171.239 "/>
<polyline clip-path="url(#clip452)" style="stroke:#009af9; stroke-linecap:round; stroke-linejoin:round; stroke-width:4; stroke-opacity:1; fill:none" points="970.013,939.243 970.013,186.58 "/>
<polyline clip-path="url(#clip452)" style="stroke:#009af9; stroke-linecap:round; stroke-linejoin:round; stroke-width:4; stroke-opacity:1; fill:none" points="985.935,939.243 985.935,209.232 "/>
<polyline clip-path="url(#clip452)" style="stroke:#009af9; stroke-linecap:round; stroke-linejoin:round; stroke-width:4; stroke-opacity:1; fill:none" points="1001.86,939.243 1001.86,239.696 "/>
<polyline clip-path="url(#clip452)" style="stroke:#009af9; stroke-linecap:round; stroke-linejoin:round; stroke-width:4; stroke-opacity:1; fill:none" points="1017.78,939.243 1017.78,278.066 "/>
<polyline clip-path="url(#clip452)" style="stroke:#009af9; stroke-linecap:round; stroke-linejoin:round; stroke-width:4; stroke-opacity:1; fill:none" points="1033.7,939.243 1033.7,323.879 "/>
<polyline clip-path="url(#clip452)" style="stroke:#009af9; stroke-linecap:round; stroke-linejoin:round; stroke-width:4; stroke-opacity:1; fill:none" points="1049.63,939.243 1049.63,376.114 "/>
<polyline clip-path="url(#clip452)" style="stroke:#009af9; stroke-linecap:round; stroke-linejoin:round; stroke-width:4; stroke-opacity:1; fill:none" points="1065.55,939.243 1065.55,433.335 "/>
<polyline clip-path="url(#clip452)" style="stroke:#009af9; stroke-linecap:round; stroke-linejoin:round; stroke-width:4; stroke-opacity:1; fill:none" points="1081.47,939.243 1081.47,493.915 "/>
<polyline clip-path="url(#clip452)" style="stroke:#009af9; stroke-linecap:round; stroke-linejoin:round; stroke-width:4; stroke-opacity:1; fill:none" points="1097.4,939.243 1097.4,556.291 "/>
<polyline clip-path="url(#clip452)" style="stroke:#009af9; stroke-linecap:round; stroke-linejoin:round; stroke-width:4; stroke-opacity:1; fill:none" points="1113.32,939.243 1113.32,619.173 "/>
<polyline clip-path="url(#clip452)" style="stroke:#009af9; stroke-linecap:round; stroke-linejoin:round; stroke-width:4; stroke-opacity:1; fill:none" points="1129.24,939.243 1129.24,681.667 "/>
<polyline clip-path="url(#clip452)" style="stroke:#009af9; stroke-linecap:round; stroke-linejoin:round; stroke-width:4; stroke-opacity:1; fill:none" points="1145.16,939.243 1145.16,743.29 "/>
<polyline clip-path="url(#clip452)" style="stroke:#009af9; stroke-linecap:round; stroke-linejoin:round; stroke-width:4; stroke-opacity:1; fill:none" points="1161.09,939.243 1161.09,803.885 "/>
<polyline clip-path="url(#clip452)" style="stroke:#009af9; stroke-linecap:round; stroke-linejoin:round; stroke-width:4; stroke-opacity:1; fill:none" points="1177.01,939.243 1177.01,863.475 "/>
<polyline clip-path="url(#clip452)" style="stroke:#009af9; stroke-linecap:round; stroke-linejoin:round; stroke-width:4; stroke-opacity:1; fill:none" points="1192.93,939.243 1192.93,922.086 "/>
<polyline clip-path="url(#clip452)" style="stroke:#009af9; stroke-linecap:round; stroke-linejoin:round; stroke-width:4; stroke-opacity:1; fill:none" points="1208.86,939.243 1208.86,979.598 "/>
<polyline clip-path="url(#clip452)" style="stroke:#009af9; stroke-linecap:round; stroke-linejoin:round; stroke-width:4; stroke-opacity:1; fill:none" points="1224.78,939.243 1224.78,1035.66 "/>
<polyline clip-path="url(#clip452)" style="stroke:#009af9; stroke-linecap:round; stroke-linejoin:round; stroke-width:4; stroke-opacity:1; fill:none" points="1240.7,939.243 1240.7,1089.67 "/>
<polyline clip-path="url(#clip452)" style="stroke:#009af9; stroke-linecap:round; stroke-linejoin:round; stroke-width:4; stroke-opacity:1; fill:none" points="1256.62,939.243 1256.62,1140.82 "/>
<polyline clip-path="url(#clip452)" style="stroke:#009af9; stroke-linecap:round; stroke-linejoin:round; stroke-width:4; stroke-opacity:1; fill:none" points="1272.55,939.243 1272.55,1188.25 "/>
<polyline clip-path="url(#clip452)" style="stroke:#009af9; stroke-linecap:round; stroke-linejoin:round; stroke-width:4; stroke-opacity:1; fill:none" points="1288.47,939.243 1288.47,1231.13 "/>
<polyline clip-path="url(#clip452)" style="stroke:#009af9; stroke-linecap:round; stroke-linejoin:round; stroke-width:4; stroke-opacity:1; fill:none" points="1304.39,939.243 1304.39,1268.82 "/>
<polyline clip-path="url(#clip452)" style="stroke:#009af9; stroke-linecap:round; stroke-linejoin:round; stroke-width:4; stroke-opacity:1; fill:none" points="1320.32,939.243 1320.32,1300.96 "/>
<polyline clip-path="url(#clip452)" style="stroke:#009af9; stroke-linecap:round; stroke-linejoin:round; stroke-width:4; stroke-opacity:1; fill:none" points="1336.24,939.243 1336.24,1327.47 "/>
<polyline clip-path="url(#clip452)" style="stroke:#009af9; stroke-linecap:round; stroke-linejoin:round; stroke-width:4; stroke-opacity:1; fill:none" points="1352.16,939.243 1352.16,1348.52 "/>
<polyline clip-path="url(#clip452)" style="stroke:#009af9; stroke-linecap:round; stroke-linejoin:round; stroke-width:4; stroke-opacity:1; fill:none" points="1368.08,939.243 1368.08,1364.5 "/>
<polyline clip-path="url(#clip452)" style="stroke:#009af9; stroke-linecap:round; stroke-linejoin:round; stroke-width:4; stroke-opacity:1; fill:none" points="1384.01,939.243 1384.01,1375.87 "/>
<polyline clip-path="url(#clip452)" style="stroke:#009af9; stroke-linecap:round; stroke-linejoin:round; stroke-width:4; stroke-opacity:1; fill:none" points="1399.93,939.243 1399.93,1383.05 "/>
<polyline clip-path="url(#clip452)" style="stroke:#009af9; stroke-linecap:round; stroke-linejoin:round; stroke-width:4; stroke-opacity:1; fill:none" points="1415.85,939.243 1415.85,1386.4 "/>
<polyline clip-path="url(#clip452)" style="stroke:#009af9; stroke-linecap:round; stroke-linejoin:round; stroke-width:4; stroke-opacity:1; fill:none" points="1431.78,939.243 1431.78,1386.08 "/>
<polyline clip-path="url(#clip452)" style="stroke:#009af9; stroke-linecap:round; stroke-linejoin:round; stroke-width:4; stroke-opacity:1; fill:none" points="1447.7,939.243 1447.7,1382.12 "/>
<polyline clip-path="url(#clip452)" style="stroke:#009af9; stroke-linecap:round; stroke-linejoin:round; stroke-width:4; stroke-opacity:1; fill:none" points="1463.62,939.243 1463.62,1374.46 "/>
<polyline clip-path="url(#clip452)" style="stroke:#009af9; stroke-linecap:round; stroke-linejoin:round; stroke-width:4; stroke-opacity:1; fill:none" points="1479.54,939.243 1479.54,1362.97 "/>
<polyline clip-path="url(#clip452)" style="stroke:#009af9; stroke-linecap:round; stroke-linejoin:round; stroke-width:4; stroke-opacity:1; fill:none" points="1495.47,939.243 1495.47,1347.58 "/>
<polyline clip-path="url(#clip452)" style="stroke:#009af9; stroke-linecap:round; stroke-linejoin:round; stroke-width:4; stroke-opacity:1; fill:none" points="1511.39,939.243 1511.39,1328.33 "/>
<polyline clip-path="url(#clip452)" style="stroke:#009af9; stroke-linecap:round; stroke-linejoin:round; stroke-width:4; stroke-opacity:1; fill:none" points="1527.31,939.243 1527.31,1305.41 "/>
<polyline clip-path="url(#clip452)" style="stroke:#009af9; stroke-linecap:round; stroke-linejoin:round; stroke-width:4; stroke-opacity:1; fill:none" points="1543.24,939.243 1543.24,1279.21 "/>
<polyline clip-path="url(#clip452)" style="stroke:#009af9; stroke-linecap:round; stroke-linejoin:round; stroke-width:4; stroke-opacity:1; fill:none" points="1559.16,939.243 1559.16,1250.28 "/>
<polyline clip-path="url(#clip452)" style="stroke:#009af9; stroke-linecap:round; stroke-linejoin:round; stroke-width:4; stroke-opacity:1; fill:none" points="1575.08,939.243 1575.08,1219.26 "/>
<polyline clip-path="url(#clip452)" style="stroke:#009af9; stroke-linecap:round; stroke-linejoin:round; stroke-width:4; stroke-opacity:1; fill:none" points="1591.01,939.243 1591.01,1186.84 "/>
<polyline clip-path="url(#clip452)" style="stroke:#009af9; stroke-linecap:round; stroke-linejoin:round; stroke-width:4; stroke-opacity:1; fill:none" points="1606.93,939.243 1606.93,1153.68 "/>
<polyline clip-path="url(#clip452)" style="stroke:#009af9; stroke-linecap:round; stroke-linejoin:round; stroke-width:4; stroke-opacity:1; fill:none" points="1622.85,939.243 1622.85,1120.36 "/>
<polyline clip-path="url(#clip452)" style="stroke:#009af9; stroke-linecap:round; stroke-linejoin:round; stroke-width:4; stroke-opacity:1; fill:none" points="1638.77,939.243 1638.77,1087.29 "/>
<polyline clip-path="url(#clip452)" style="stroke:#009af9; stroke-linecap:round; stroke-linejoin:round; stroke-width:4; stroke-opacity:1; fill:none" points="1654.7,939.243 1654.7,1054.78 "/>
<polyline clip-path="url(#clip452)" style="stroke:#009af9; stroke-linecap:round; stroke-linejoin:round; stroke-width:4; stroke-opacity:1; fill:none" points="1670.62,939.243 1670.62,1022.97 "/>
<polyline clip-path="url(#clip452)" style="stroke:#009af9; stroke-linecap:round; stroke-linejoin:round; stroke-width:4; stroke-opacity:1; fill:none" points="1686.54,939.243 1686.54,991.916 "/>
<polyline clip-path="url(#clip452)" style="stroke:#009af9; stroke-linecap:round; stroke-linejoin:round; stroke-width:4; stroke-opacity:1; fill:none" points="1702.47,939.243 1702.47,961.642 "/>
<polyline clip-path="url(#clip452)" style="stroke:#009af9; stroke-linecap:round; stroke-linejoin:round; stroke-width:4; stroke-opacity:1; fill:none" points="1718.39,939.243 1718.39,932.171 "/>
<polyline clip-path="url(#clip452)" style="stroke:#009af9; stroke-linecap:round; stroke-linejoin:round; stroke-width:4; stroke-opacity:1; fill:none" points="1734.31,939.243 1734.31,903.586 "/>
<polyline clip-path="url(#clip452)" style="stroke:#009af9; stroke-linecap:round; stroke-linejoin:round; stroke-width:4; stroke-opacity:1; fill:none" points="1750.23,939.243 1750.23,876.055 "/>
<polyline clip-path="url(#clip452)" style="stroke:#009af9; stroke-linecap:round; stroke-linejoin:round; stroke-width:4; stroke-opacity:1; fill:none" points="1766.16,939.243 1766.16,849.835 "/>
<polyline clip-path="url(#clip452)" style="stroke:#009af9; stroke-linecap:round; stroke-linejoin:round; stroke-width:4; stroke-opacity:1; fill:none" points="1782.08,939.243 1782.08,825.264 "/>
<polyline clip-path="url(#clip452)" style="stroke:#009af9; stroke-linecap:round; stroke-linejoin:round; stroke-width:4; stroke-opacity:1; fill:none" points="1798,939.243 1798,802.719 "/>
<polyline clip-path="url(#clip452)" style="stroke:#009af9; stroke-linecap:round; stroke-linejoin:round; stroke-width:4; stroke-opacity:1; fill:none" points="1813.93,939.243 1813.93,782.579 "/>
<polyline clip-path="url(#clip452)" style="stroke:#009af9; stroke-linecap:round; stroke-linejoin:round; stroke-width:4; stroke-opacity:1; fill:none" points="1829.85,939.243 1829.85,765.173 "/>
<polyline clip-path="url(#clip452)" style="stroke:#009af9; stroke-linecap:round; stroke-linejoin:round; stroke-width:4; stroke-opacity:1; fill:none" points="1845.77,939.243 1845.77,750.741 "/>
<polyline clip-path="url(#clip452)" style="stroke:#009af9; stroke-linecap:round; stroke-linejoin:round; stroke-width:4; stroke-opacity:1; fill:none" points="1861.69,939.243 1861.69,739.408 "/>
<polyline clip-path="url(#clip452)" style="stroke:#009af9; stroke-linecap:round; stroke-linejoin:round; stroke-width:4; stroke-opacity:1; fill:none" points="1877.62,939.243 1877.62,731.168 "/>
<polyline clip-path="url(#clip452)" style="stroke:#009af9; stroke-linecap:round; stroke-linejoin:round; stroke-width:4; stroke-opacity:1; fill:none" points="1893.54,939.243 1893.54,725.894 "/>
<polyline clip-path="url(#clip452)" style="stroke:#009af9; stroke-linecap:round; stroke-linejoin:round; stroke-width:4; stroke-opacity:1; fill:none" points="1909.46,939.243 1909.46,723.364 "/>
<polyline clip-path="url(#clip452)" style="stroke:#009af9; stroke-linecap:round; stroke-linejoin:round; stroke-width:4; stroke-opacity:1; fill:none" points="1925.39,939.243 1925.39,723.29 "/>
<polyline clip-path="url(#clip452)" style="stroke:#009af9; stroke-linecap:round; stroke-linejoin:round; stroke-width:4; stroke-opacity:1; fill:none" points="1941.31,939.243 1941.31,725.364 "/>
<polyline clip-path="url(#clip452)" style="stroke:#009af9; stroke-linecap:round; stroke-linejoin:round; stroke-width:4; stroke-opacity:1; fill:none" points="1957.23,939.243 1957.23,729.294 "/>
<polyline clip-path="url(#clip452)" style="stroke:#009af9; stroke-linecap:round; stroke-linejoin:round; stroke-width:4; stroke-opacity:1; fill:none" points="1973.15,939.243 1973.15,734.832 "/>
<polyline clip-path="url(#clip452)" style="stroke:#009af9; stroke-linecap:round; stroke-linejoin:round; stroke-width:4; stroke-opacity:1; fill:none" points="1989.08,939.243 1989.08,741.798 "/>
<polyline clip-path="url(#clip452)" style="stroke:#009af9; stroke-linecap:round; stroke-linejoin:round; stroke-width:4; stroke-opacity:1; fill:none" points="2005,939.243 2005,750.081 "/>
<polyline clip-path="url(#clip452)" style="stroke:#009af9; stroke-linecap:round; stroke-linejoin:round; stroke-width:4; stroke-opacity:1; fill:none" points="2020.92,939.243 2020.92,759.63 "/>
<polyline clip-path="url(#clip452)" style="stroke:#009af9; stroke-linecap:round; stroke-linejoin:round; stroke-width:4; stroke-opacity:1; fill:none" points="2036.85,939.243 2036.85,770.435 "/>
<polyline clip-path="url(#clip452)" style="stroke:#009af9; stroke-linecap:round; stroke-linejoin:round; stroke-width:4; stroke-opacity:1; fill:none" points="2052.77,939.243 2052.77,782.5 "/>
<polyline clip-path="url(#clip452)" style="stroke:#009af9; stroke-linecap:round; stroke-linejoin:round; stroke-width:4; stroke-opacity:1; fill:none" points="2068.69,939.243 2068.69,795.811 "/>
<polyline clip-path="url(#clip452)" style="stroke:#009af9; stroke-linecap:round; stroke-linejoin:round; stroke-width:4; stroke-opacity:1; fill:none" points="2084.61,939.243 2084.61,810.312 "/>
<polyline clip-path="url(#clip452)" style="stroke:#009af9; stroke-linecap:round; stroke-linejoin:round; stroke-width:4; stroke-opacity:1; fill:none" points="2100.54,939.243 2100.54,825.887 "/>
<polyline clip-path="url(#clip452)" style="stroke:#009af9; stroke-linecap:round; stroke-linejoin:round; stroke-width:4; stroke-opacity:1; fill:none" points="2116.46,939.243 2116.46,842.348 "/>
<polyline clip-path="url(#clip452)" style="stroke:#009af9; stroke-linecap:round; stroke-linejoin:round; stroke-width:4; stroke-opacity:1; fill:none" points="2132.38,939.243 2132.38,859.441 "/>
<polyline clip-path="url(#clip452)" style="stroke:#009af9; stroke-linecap:round; stroke-linejoin:round; stroke-width:4; stroke-opacity:1; fill:none" points="2148.31,939.243 2148.31,876.857 "/>
<polyline clip-path="url(#clip452)" style="stroke:#009af9; stroke-linecap:round; stroke-linejoin:round; stroke-width:4; stroke-opacity:1; fill:none" points="2164.23,939.243 2164.23,894.255 "/>
<polyline clip-path="url(#clip452)" style="stroke:#009af9; stroke-linecap:round; stroke-linejoin:round; stroke-width:4; stroke-opacity:1; fill:none" points="2180.15,939.243 2180.15,911.288 "/>
<polyline clip-path="url(#clip452)" style="stroke:#009af9; stroke-linecap:round; stroke-linejoin:round; stroke-width:4; stroke-opacity:1; fill:none" points="2196.07,939.243 2196.07,927.63 "/>
<polyline clip-path="url(#clip452)" style="stroke:#009af9; stroke-linecap:round; stroke-linejoin:round; stroke-width:4; stroke-opacity:1; fill:none" points="2212,939.243 2212,943.004 "/>
<polyline clip-path="url(#clip452)" style="stroke:#009af9; stroke-linecap:round; stroke-linejoin:round; stroke-width:4; stroke-opacity:1; fill:none" points="2227.92,939.243 2227.92,957.199 "/>
<polyline clip-path="url(#clip452)" style="stroke:#009af9; stroke-linecap:round; stroke-linejoin:round; stroke-width:4; stroke-opacity:1; fill:none" points="2243.84,939.243 2243.84,970.081 "/>
<polyline clip-path="url(#clip452)" style="stroke:#009af9; stroke-linecap:round; stroke-linejoin:round; stroke-width:4; stroke-opacity:1; fill:none" points="2259.77,939.243 2259.77,981.598 "/>
<polyline clip-path="url(#clip452)" style="stroke:#009af9; stroke-linecap:round; stroke-linejoin:round; stroke-width:4; stroke-opacity:1; fill:none" points="2275.69,939.243 2275.69,991.768 "/>
<polyline clip-path="url(#clip452)" style="stroke:#009af9; stroke-linecap:round; stroke-linejoin:round; stroke-width:4; stroke-opacity:1; fill:none" points="2291.61,939.243 2291.61,1000.67 "/>
<polyline clip-path="url(#clip452)" style="stroke:#000000; stroke-linecap:round; stroke-linejoin:round; stroke-width:4; stroke-opacity:1; fill:none" stroke-dasharray="16, 10" points="-1968.08,748.024 4513.17,748.024 "/>
<polyline clip-path="url(#clip452)" style="stroke:#000000; stroke-linecap:round; stroke-linejoin:round; stroke-width:4; stroke-opacity:1; fill:none" stroke-dasharray="16, 10" points="-1968.08,1130.46 4513.17,1130.46 "/>
</svg>
