<?xml version="1.0" encoding="utf-8"?>
<svg xmlns="http://www.w3.org/2000/svg" xmlns:xlink="http://www.w3.org/1999/xlink" width="600" height="400" viewBox="0 0 2400 1600">
<defs>
  <clipPath id="clip020">
    <rect x="0" y="0" width="2400" height="1600"/>
  </clipPath>
</defs>
<path clip-path="url(#clip020)" d="M0 1600 L2400 1600 L2400 0 L0 0  Z" fill="#ffffff" fill-rule="evenodd" fill-opacity="1"/>
<defs>
  <clipPath id="clip021">
    <rect x="480" y="0" width="1681" height="1600"/>
  </clipPath>
</defs>
<path clip-path="url(#clip020)" d="M255.977 1423.18 L2352.76 1423.18 L2352.76 47.2441 L255.977 47.2441  Z" fill="#ffffff" fill-rule="evenodd" fill-opacity="1"/>
<defs>
  <clipPath id="clip022">
    <rect x="255" y="47" width="2098" height="1377"/>
  </clipPath>
</defs>
<polyline clip-path="url(#clip022)" style="stroke:#000000; stroke-linecap:round; stroke-linejoin:round; stroke-width:2; stroke-opacity:0.1; fill:none" points="315.32,1423.18 315.32,47.2441 "/>
<polyline clip-path="url(#clip022)" style="stroke:#000000; stroke-linecap:round; stroke-linejoin:round; stroke-width:2; stroke-opacity:0.1; fill:none" points="711.731,1423.18 711.731,47.2441 "/>
<polyline clip-path="url(#clip022)" style="stroke:#000000; stroke-linecap:round; stroke-linejoin:round; stroke-width:2; stroke-opacity:0.1; fill:none" points="1108.14,1423.18 1108.14,47.2441 "/>
<polyline clip-path="url(#clip022)" style="stroke:#000000; stroke-linecap:round; stroke-linejoin:round; stroke-width:2; stroke-opacity:0.1; fill:none" points="1504.55,1423.18 1504.55,47.2441 "/>
<polyline clip-path="url(#clip022)" style="stroke:#000000; stroke-linecap:round; stroke-linejoin:round; stroke-width:2; stroke-opacity:0.1; fill:none" points="1900.97,1423.18 1900.97,47.2441 "/>
<polyline clip-path="url(#clip022)" style="stroke:#000000; stroke-linecap:round; stroke-linejoin:round; stroke-width:2; stroke-opacity:0.1; fill:none" points="2297.38,1423.18 2297.38,47.2441 "/>
<polyline clip-path="url(#clip022)" style="stroke:#000000; stroke-linecap:round; stroke-linejoin:round; stroke-width:2; stroke-opacity:0.1; fill:none" points="255.977,1315.25 2352.76,1315.25 "/>
<polyline clip-path="url(#clip022)" style="stroke:#000000; stroke-linecap:round; stroke-linejoin:round; stroke-width:2; stroke-opacity:0.1; fill:none" points="255.977,989.192 2352.76,989.192 "/>
<polyline clip-path="url(#clip022)" style="stroke:#000000; stroke-linecap:round; stroke-linejoin:round; stroke-width:2; stroke-opacity:0.1; fill:none" points="255.977,663.13 2352.76,663.13 "/>
<polyline clip-path="url(#clip022)" style="stroke:#000000; stroke-linecap:round; stroke-linejoin:round; stroke-width:2; stroke-opacity:0.1; fill:none" points="255.977,337.069 2352.76,337.069 "/>
<polyline clip-path="url(#clip020)" style="stroke:#000000; stroke-linecap:round; stroke-linejoin:round; stroke-width:4; stroke-opacity:1; fill:none" points="255.977,1423.18 2352.76,1423.18 "/>
<polyline clip-path="url(#clip020)" style="stroke:#000000; stroke-linecap:round; stroke-linejoin:round; stroke-width:4; stroke-opacity:1; fill:none" points="315.32,1423.18 315.32,1404.28 "/>
<polyline clip-path="url(#clip020)" style="stroke:#000000; stroke-linecap:round; stroke-linejoin:round; stroke-width:4; stroke-opacity:1; fill:none" points="711.731,1423.18 711.731,1404.28 "/>
<polyline clip-path="url(#clip020)" style="stroke:#000000; stroke-linecap:round; stroke-linejoin:round; stroke-width:4; stroke-opacity:1; fill:none" points="1108.14,1423.18 1108.14,1404.28 "/>
<polyline clip-path="url(#clip020)" style="stroke:#000000; stroke-linecap:round; stroke-linejoin:round; stroke-width:4; stroke-opacity:1; fill:none" points="1504.55,1423.18 1504.55,1404.28 "/>
<polyline clip-path="url(#clip020)" style="stroke:#000000; stroke-linecap:round; stroke-linejoin:round; stroke-width:4; stroke-opacity:1; fill:none" points="1900.97,1423.18 1900.97,1404.28 "/>
<polyline clip-path="url(#clip020)" style="stroke:#000000; stroke-linecap:round; stroke-linejoin:round; stroke-width:4; stroke-opacity:1; fill:none" points="2297.38,1423.18 2297.38,1404.28 "/>
<path clip-path="url(#clip020)" d="M315.32 1454.1 Q311.709 1454.1 309.88 1457.66 Q308.075 1461.2 308.075 1468.33 Q308.075 1475.44 309.88 1479.01 Q311.709 1482.55 315.32 1482.55 Q318.954 1482.55 320.76 1479.01 Q322.588 1475.44 322.588 1468.33 Q322.588 1461.2 320.76 1457.66 Q318.954 1454.1 315.32 1454.1 M315.32 1450.39 Q321.13 1450.39 324.186 1455 Q327.264 1459.58 327.264 1468.33 Q327.264 1477.06 324.186 1481.67 Q321.13 1486.25 315.32 1486.25 Q309.51 1486.25 306.431 1481.67 Q303.376 1477.06 303.376 1468.33 Q303.376 1459.58 306.431 1455 Q309.51 1450.39 315.32 1450.39 Z" fill="#000000" fill-rule="nonzero" fill-opacity="1" /><path clip-path="url(#clip020)" d="M702.113 1481.64 L709.752 1481.64 L709.752 1455.28 L701.442 1456.95 L701.442 1452.69 L709.706 1451.02 L714.382 1451.02 L714.382 1481.64 L722.021 1481.64 L722.021 1485.58 L702.113 1485.58 L702.113 1481.64 Z" fill="#000000" fill-rule="nonzero" fill-opacity="1" /><path clip-path="url(#clip020)" d="M1102.8 1481.64 L1119.12 1481.64 L1119.12 1485.58 L1097.17 1485.58 L1097.17 1481.64 Q1099.83 1478.89 1104.42 1474.26 Q1109.02 1469.61 1110.2 1468.27 Q1112.45 1465.74 1113.33 1464.01 Q1114.23 1462.25 1114.23 1460.56 Q1114.23 1457.8 1112.29 1456.07 Q1110.37 1454.33 1107.26 1454.33 Q1105.06 1454.33 1102.61 1455.09 Q1100.18 1455.86 1097.4 1457.41 L1097.4 1452.69 Q1100.23 1451.55 1102.68 1450.97 Q1105.13 1450.39 1107.17 1450.39 Q1112.54 1450.39 1115.74 1453.08 Q1118.93 1455.77 1118.93 1460.26 Q1118.93 1462.39 1118.12 1464.31 Q1117.33 1466.2 1115.23 1468.8 Q1114.65 1469.47 1111.55 1472.69 Q1108.44 1475.88 1102.8 1481.64 Z" fill="#000000" fill-rule="nonzero" fill-opacity="1" /><path clip-path="url(#clip020)" d="M1508.8 1466.95 Q1512.16 1467.66 1514.03 1469.93 Q1515.93 1472.2 1515.93 1475.53 Q1515.93 1480.65 1512.41 1483.45 Q1508.89 1486.25 1502.41 1486.25 Q1500.24 1486.25 1497.92 1485.81 Q1495.63 1485.39 1493.18 1484.54 L1493.18 1480.02 Q1495.12 1481.16 1497.44 1481.74 Q1499.75 1482.32 1502.27 1482.32 Q1506.67 1482.32 1508.96 1480.58 Q1511.28 1478.84 1511.28 1475.53 Q1511.28 1472.48 1509.13 1470.77 Q1507 1469.03 1503.18 1469.03 L1499.15 1469.03 L1499.15 1465.19 L1503.36 1465.19 Q1506.81 1465.19 1508.64 1463.82 Q1510.47 1462.43 1510.47 1459.84 Q1510.47 1457.18 1508.57 1455.77 Q1506.7 1454.33 1503.18 1454.33 Q1501.26 1454.33 1499.06 1454.75 Q1496.86 1455.16 1494.22 1456.04 L1494.22 1451.88 Q1496.88 1451.14 1499.2 1450.77 Q1501.53 1450.39 1503.59 1450.39 Q1508.92 1450.39 1512.02 1452.83 Q1515.12 1455.23 1515.12 1459.35 Q1515.12 1462.22 1513.48 1464.21 Q1511.83 1466.18 1508.8 1466.95 Z" fill="#000000" fill-rule="nonzero" fill-opacity="1" /><path clip-path="url(#clip020)" d="M1903.98 1455.09 L1892.17 1473.54 L1903.98 1473.54 L1903.98 1455.09 M1902.75 1451.02 L1908.63 1451.02 L1908.63 1473.54 L1913.56 1473.54 L1913.56 1477.43 L1908.63 1477.43 L1908.63 1485.58 L1903.98 1485.58 L1903.98 1477.43 L1888.37 1477.43 L1888.37 1472.92 L1902.75 1451.02 Z" fill="#000000" fill-rule="nonzero" fill-opacity="1" /><path clip-path="url(#clip020)" d="M2287.66 1451.02 L2306.01 1451.02 L2306.01 1454.96 L2291.94 1454.96 L2291.94 1463.43 Q2292.96 1463.08 2293.97 1462.92 Q2294.99 1462.73 2296.01 1462.73 Q2301.8 1462.73 2305.18 1465.9 Q2308.56 1469.08 2308.56 1474.49 Q2308.56 1480.07 2305.09 1483.17 Q2301.61 1486.25 2295.29 1486.25 Q2293.12 1486.25 2290.85 1485.88 Q2288.6 1485.51 2286.2 1484.77 L2286.2 1480.07 Q2288.28 1481.2 2290.5 1481.76 Q2292.72 1482.32 2295.2 1482.32 Q2299.21 1482.32 2301.54 1480.21 Q2303.88 1478.1 2303.88 1474.49 Q2303.88 1470.88 2301.54 1468.77 Q2299.21 1466.67 2295.2 1466.67 Q2293.33 1466.67 2291.45 1467.08 Q2289.6 1467.5 2287.66 1468.38 L2287.66 1451.02 Z" fill="#000000" fill-rule="nonzero" fill-opacity="1" /><path clip-path="url(#clip020)" d="M1174.54 1520.52 L1214.74 1520.52 L1214.74 1525.93 L1197.87 1525.93 L1197.87 1568.04 L1191.41 1568.04 L1191.41 1525.93 L1174.54 1525.93 L1174.54 1520.52 Z" fill="#000000" fill-rule="nonzero" fill-opacity="1" /><path clip-path="url(#clip020)" d="M1218.68 1532.4 L1224.54 1532.4 L1224.54 1568.04 L1218.68 1568.04 L1218.68 1532.4 M1218.68 1518.52 L1224.54 1518.52 L1224.54 1525.93 L1218.68 1525.93 L1218.68 1518.52 Z" fill="#000000" fill-rule="nonzero" fill-opacity="1" /><path clip-path="url(#clip020)" d="M1264.55 1539.24 Q1266.75 1535.29 1269.8 1533.41 Q1272.86 1531.54 1276.99 1531.54 Q1282.56 1531.54 1285.59 1535.45 Q1288.61 1539.33 1288.61 1546.53 L1288.61 1568.04 L1282.72 1568.04 L1282.72 1546.72 Q1282.72 1541.59 1280.91 1539.11 Q1279.09 1536.63 1275.37 1536.63 Q1270.82 1536.63 1268.18 1539.65 Q1265.54 1542.68 1265.54 1547.9 L1265.54 1568.04 L1259.65 1568.04 L1259.65 1546.72 Q1259.65 1541.56 1257.83 1539.11 Q1256.02 1536.63 1252.23 1536.63 Q1247.74 1536.63 1245.1 1539.68 Q1242.46 1542.71 1242.46 1547.9 L1242.46 1568.04 L1236.57 1568.04 L1236.57 1532.4 L1242.46 1532.4 L1242.46 1537.93 Q1244.47 1534.66 1247.27 1533.1 Q1250.07 1531.54 1253.92 1531.54 Q1257.8 1531.54 1260.51 1533.51 Q1263.24 1535.48 1264.55 1539.24 Z" fill="#000000" fill-rule="nonzero" fill-opacity="1" /><path clip-path="url(#clip020)" d="M1330.78 1548.76 L1330.78 1551.62 L1303.86 1551.62 Q1304.24 1557.67 1307.49 1560.85 Q1310.76 1564 1316.59 1564 Q1319.96 1564 1323.11 1563.17 Q1326.3 1562.35 1329.42 1560.69 L1329.42 1566.23 Q1326.26 1567.57 1322.95 1568.27 Q1319.64 1568.97 1316.24 1568.97 Q1307.71 1568.97 1302.71 1564 Q1297.75 1559.04 1297.75 1550.57 Q1297.75 1541.82 1302.46 1536.69 Q1307.2 1531.54 1315.22 1531.54 Q1322.41 1531.54 1326.58 1536.18 Q1330.78 1540.8 1330.78 1548.76 M1324.93 1547.04 Q1324.86 1542.23 1322.22 1539.37 Q1319.61 1536.5 1315.28 1536.5 Q1310.38 1536.5 1307.42 1539.27 Q1304.49 1542.04 1304.05 1547.07 L1324.93 1547.04 Z" fill="#000000" fill-rule="nonzero" fill-opacity="1" /><path clip-path="url(#clip020)" d="M1360.58 1518.52 L1374.07 1518.52 L1374.07 1523.07 L1366.43 1523.07 L1366.43 1572.09 L1374.07 1572.09 L1374.07 1576.64 L1360.58 1576.64 L1360.58 1518.52 Z" fill="#000000" fill-rule="nonzero" fill-opacity="1" /><path clip-path="url(#clip020)" d="M1409.27 1533.45 L1409.27 1538.98 Q1406.79 1537.71 1404.12 1537.07 Q1401.44 1536.44 1398.58 1536.44 Q1394.22 1536.44 1392.02 1537.77 Q1389.86 1539.11 1389.86 1541.79 Q1389.86 1543.82 1391.42 1545 Q1392.98 1546.15 1397.69 1547.2 L1399.69 1547.64 Q1405.93 1548.98 1408.54 1551.43 Q1411.18 1553.85 1411.18 1558.21 Q1411.18 1563.17 1407.24 1566.07 Q1403.32 1568.97 1396.45 1568.97 Q1393.58 1568.97 1390.46 1568.39 Q1387.38 1567.85 1383.94 1566.74 L1383.94 1560.69 Q1387.18 1562.38 1390.34 1563.24 Q1393.49 1564.07 1396.57 1564.07 Q1400.71 1564.07 1402.94 1562.66 Q1405.17 1561.23 1405.17 1558.65 Q1405.17 1556.27 1403.54 1554.99 Q1401.95 1553.72 1396.51 1552.54 L1394.47 1552.07 Q1389.03 1550.92 1386.61 1548.56 Q1384.19 1546.18 1384.19 1542.04 Q1384.19 1537.01 1387.76 1534.27 Q1391.32 1531.54 1397.88 1531.54 Q1401.13 1531.54 1403.99 1532.01 Q1406.85 1532.49 1409.27 1533.45 Z" fill="#000000" fill-rule="nonzero" fill-opacity="1" /><path clip-path="url(#clip020)" d="M1434.2 1518.52 L1434.2 1576.64 L1420.7 1576.64 L1420.7 1572.09 L1428.31 1572.09 L1428.31 1523.07 L1420.7 1523.07 L1420.7 1518.52 L1434.2 1518.52 Z" fill="#000000" fill-rule="nonzero" fill-opacity="1" /><polyline clip-path="url(#clip020)" style="stroke:#000000; stroke-linecap:round; stroke-linejoin:round; stroke-width:4; stroke-opacity:1; fill:none" points="255.977,1423.18 255.977,47.2441 "/>
<polyline clip-path="url(#clip020)" style="stroke:#000000; stroke-linecap:round; stroke-linejoin:round; stroke-width:4; stroke-opacity:1; fill:none" points="255.977,1315.25 274.875,1315.25 "/>
<polyline clip-path="url(#clip020)" style="stroke:#000000; stroke-linecap:round; stroke-linejoin:round; stroke-width:4; stroke-opacity:1; fill:none" points="255.977,989.192 274.875,989.192 "/>
<polyline clip-path="url(#clip020)" style="stroke:#000000; stroke-linecap:round; stroke-linejoin:round; stroke-width:4; stroke-opacity:1; fill:none" points="255.977,663.13 274.875,663.13 "/>
<polyline clip-path="url(#clip020)" style="stroke:#000000; stroke-linecap:round; stroke-linejoin:round; stroke-width:4; stroke-opacity:1; fill:none" points="255.977,337.069 274.875,337.069 "/>
<path clip-path="url(#clip020)" d="M114.631 1315.7 L144.306 1315.7 L144.306 1319.64 L114.631 1319.64 L114.631 1315.7 Z" fill="#000000" fill-rule="nonzero" fill-opacity="1" /><path clip-path="url(#clip020)" d="M164.399 1301.05 Q160.788 1301.05 158.959 1304.62 Q157.153 1308.16 157.153 1315.29 Q157.153 1322.39 158.959 1325.96 Q160.788 1329.5 164.399 1329.5 Q168.033 1329.5 169.839 1325.96 Q171.667 1322.39 171.667 1315.29 Q171.667 1308.16 169.839 1304.62 Q168.033 1301.05 164.399 1301.05 M164.399 1297.35 Q170.209 1297.35 173.264 1301.95 Q176.343 1306.54 176.343 1315.29 Q176.343 1324.01 173.264 1328.62 Q170.209 1333.2 164.399 1333.2 Q158.589 1333.2 155.51 1328.62 Q152.454 1324.01 152.454 1315.29 Q152.454 1306.54 155.51 1301.95 Q158.589 1297.35 164.399 1297.35 Z" fill="#000000" fill-rule="nonzero" fill-opacity="1" /><path clip-path="url(#clip020)" d="M184.561 1326.65 L189.445 1326.65 L189.445 1332.53 L184.561 1332.53 L184.561 1326.65 Z" fill="#000000" fill-rule="nonzero" fill-opacity="1" /><path clip-path="url(#clip020)" d="M203.658 1328.6 L219.977 1328.6 L219.977 1332.53 L198.033 1332.53 L198.033 1328.6 Q200.695 1325.84 205.278 1321.21 Q209.885 1316.56 211.065 1315.22 Q213.311 1312.7 214.19 1310.96 Q215.093 1309.2 215.093 1307.51 Q215.093 1304.76 213.149 1303.02 Q211.227 1301.28 208.125 1301.28 Q205.926 1301.28 203.473 1302.05 Q201.042 1302.81 198.264 1304.36 L198.264 1299.64 Q201.088 1298.51 203.542 1297.93 Q205.996 1297.35 208.033 1297.35 Q213.403 1297.35 216.598 1300.03 Q219.792 1302.72 219.792 1307.21 Q219.792 1309.34 218.982 1311.26 Q218.195 1313.16 216.088 1315.75 Q215.51 1316.42 212.408 1319.64 Q209.306 1322.83 203.658 1328.6 Z" fill="#000000" fill-rule="nonzero" fill-opacity="1" /><path clip-path="url(#clip020)" d="M114.26 989.643 L143.936 989.643 L143.936 993.578 L114.26 993.578 L114.26 989.643 Z" fill="#000000" fill-rule="nonzero" fill-opacity="1" /><path clip-path="url(#clip020)" d="M164.028 974.991 Q160.417 974.991 158.589 978.555 Q156.783 982.097 156.783 989.227 Q156.783 996.333 158.589 999.898 Q160.417 1003.44 164.028 1003.44 Q167.663 1003.44 169.468 999.898 Q171.297 996.333 171.297 989.227 Q171.297 982.097 169.468 978.555 Q167.663 974.991 164.028 974.991 M164.028 971.287 Q169.839 971.287 172.894 975.893 Q175.973 980.477 175.973 989.227 Q175.973 997.953 172.894 1002.56 Q169.839 1007.14 164.028 1007.14 Q158.218 1007.14 155.14 1002.56 Q152.084 997.953 152.084 989.227 Q152.084 980.477 155.14 975.893 Q158.218 971.287 164.028 971.287 Z" fill="#000000" fill-rule="nonzero" fill-opacity="1" /><path clip-path="url(#clip020)" d="M184.19 1000.59 L189.075 1000.59 L189.075 1006.47 L184.19 1006.47 L184.19 1000.59 Z" fill="#000000" fill-rule="nonzero" fill-opacity="1" /><path clip-path="url(#clip020)" d="M200.07 1002.54 L207.709 1002.54 L207.709 976.171 L199.399 977.838 L199.399 973.579 L207.662 971.912 L212.338 971.912 L212.338 1002.54 L219.977 1002.54 L219.977 1006.47 L200.07 1006.47 L200.07 1002.54 Z" fill="#000000" fill-rule="nonzero" fill-opacity="1" /><path clip-path="url(#clip020)" d="M162.802 648.929 Q159.19 648.929 157.362 652.494 Q155.556 656.035 155.556 663.165 Q155.556 670.272 157.362 673.836 Q159.19 677.378 162.802 677.378 Q166.436 677.378 168.241 673.836 Q170.07 670.272 170.07 663.165 Q170.07 656.035 168.241 652.494 Q166.436 648.929 162.802 648.929 M162.802 645.225 Q168.612 645.225 171.667 649.832 Q174.746 654.415 174.746 663.165 Q174.746 671.892 171.667 676.498 Q168.612 681.082 162.802 681.082 Q156.991 681.082 153.913 676.498 Q150.857 671.892 150.857 663.165 Q150.857 654.415 153.913 649.832 Q156.991 645.225 162.802 645.225 Z" fill="#000000" fill-rule="nonzero" fill-opacity="1" /><path clip-path="url(#clip020)" d="M182.963 674.531 L187.848 674.531 L187.848 680.41 L182.963 680.41 L182.963 674.531 Z" fill="#000000" fill-rule="nonzero" fill-opacity="1" /><path clip-path="url(#clip020)" d="M208.033 648.929 Q204.422 648.929 202.593 652.494 Q200.787 656.035 200.787 663.165 Q200.787 670.272 202.593 673.836 Q204.422 677.378 208.033 677.378 Q211.667 677.378 213.473 673.836 Q215.301 670.272 215.301 663.165 Q215.301 656.035 213.473 652.494 Q211.667 648.929 208.033 648.929 M208.033 645.225 Q213.843 645.225 216.898 649.832 Q219.977 654.415 219.977 663.165 Q219.977 671.892 216.898 676.498 Q213.843 681.082 208.033 681.082 Q202.223 681.082 199.144 676.498 Q196.088 671.892 196.088 663.165 Q196.088 654.415 199.144 649.832 Q202.223 645.225 208.033 645.225 Z" fill="#000000" fill-rule="nonzero" fill-opacity="1" /><path clip-path="url(#clip020)" d="M164.028 322.868 Q160.417 322.868 158.589 326.432 Q156.783 329.974 156.783 337.104 Q156.783 344.21 158.589 347.775 Q160.417 351.316 164.028 351.316 Q167.663 351.316 169.468 347.775 Q171.297 344.21 171.297 337.104 Q171.297 329.974 169.468 326.432 Q167.663 322.868 164.028 322.868 M164.028 319.164 Q169.839 319.164 172.894 323.77 Q175.973 328.354 175.973 337.104 Q175.973 345.83 172.894 350.437 Q169.839 355.02 164.028 355.02 Q158.218 355.02 155.14 350.437 Q152.084 345.83 152.084 337.104 Q152.084 328.354 155.14 323.77 Q158.218 319.164 164.028 319.164 Z" fill="#000000" fill-rule="nonzero" fill-opacity="1" /><path clip-path="url(#clip020)" d="M184.19 348.469 L189.075 348.469 L189.075 354.349 L184.19 354.349 L184.19 348.469 Z" fill="#000000" fill-rule="nonzero" fill-opacity="1" /><path clip-path="url(#clip020)" d="M200.07 350.414 L207.709 350.414 L207.709 324.048 L199.399 325.715 L199.399 321.455 L207.662 319.789 L212.338 319.789 L212.338 350.414 L219.977 350.414 L219.977 354.349 L200.07 354.349 L200.07 350.414 Z" fill="#000000" fill-rule="nonzero" fill-opacity="1" /><path clip-path="url(#clip020)" d="M20.8447 823.791 Q20.8447 830.793 26.0645 834.931 Q31.2844 839.037 40.2919 839.037 Q49.2675 839.037 54.4874 834.931 Q59.7073 830.793 59.7073 823.791 Q59.7073 816.788 54.4874 812.714 Q49.2675 808.609 40.2919 808.609 Q31.2844 808.609 26.0645 812.714 Q20.8447 816.788 20.8447 823.791 M15.6248 823.791 Q15.6248 813.797 22.3406 807.813 Q29.0246 801.829 40.2919 801.829 Q51.5274 801.829 58.2432 807.813 Q64.9272 813.797 64.9272 823.791 Q64.9272 833.817 58.2432 839.832 Q51.5592 845.816 40.2919 845.816 Q29.0246 845.816 22.3406 839.832 Q15.6248 833.817 15.6248 823.791 Z" fill="#000000" fill-rule="nonzero" fill-opacity="1" /><path clip-path="url(#clip020)" d="M49.9359 792.631 L28.3562 792.631 L28.3562 786.774 L49.7131 786.774 Q54.7739 786.774 57.3202 784.801 Q59.8346 782.827 59.8346 778.881 Q59.8346 774.138 56.8109 771.401 Q53.7872 768.632 48.5673 768.632 L28.3562 768.632 L28.3562 762.775 L64.0042 762.775 L64.0042 768.632 L58.5296 768.632 Q61.7762 770.764 63.3676 773.597 Q64.9272 776.398 64.9272 780.122 Q64.9272 786.265 61.1078 789.448 Q57.2883 792.631 49.9359 792.631 M27.4968 777.894 L27.4968 777.894 Z" fill="#000000" fill-rule="nonzero" fill-opacity="1" /><path clip-path="url(#clip020)" d="M18.2347 744.92 L28.3562 744.92 L28.3562 732.857 L32.9077 732.857 L32.9077 744.92 L52.2594 744.92 Q56.6199 744.92 57.8613 743.742 Q59.1026 742.533 59.1026 738.872 L59.1026 732.857 L64.0042 732.857 L64.0042 738.872 Q64.0042 745.652 61.4897 748.23 Q58.9434 750.808 52.2594 750.808 L32.9077 750.808 L32.9077 755.105 L28.3562 755.105 L28.3562 750.808 L18.2347 750.808 L18.2347 744.92 Z" fill="#000000" fill-rule="nonzero" fill-opacity="1" /><path clip-path="url(#clip020)" d="M58.657 719.489 L77.5631 719.489 L77.5631 725.377 L28.3562 725.377 L28.3562 719.489 L33.7671 719.489 Q30.5842 717.643 29.0564 714.842 Q27.4968 712.009 27.4968 708.094 Q27.4968 701.601 32.6531 697.559 Q37.8093 693.485 46.212 693.485 Q54.6147 693.485 59.771 697.559 Q64.9272 701.601 64.9272 708.094 Q64.9272 712.009 63.3994 714.842 Q61.8398 717.643 58.657 719.489 M46.212 699.564 Q39.7508 699.564 36.0905 702.238 Q32.3984 704.879 32.3984 709.526 Q32.3984 714.173 36.0905 716.847 Q39.7508 719.489 46.212 719.489 Q52.6732 719.489 56.3653 716.847 Q60.0256 714.173 60.0256 709.526 Q60.0256 704.879 56.3653 702.238 Q52.6732 699.564 46.212 699.564 Z" fill="#000000" fill-rule="nonzero" fill-opacity="1" /><path clip-path="url(#clip020)" d="M49.9359 684.382 L28.3562 684.382 L28.3562 678.525 L49.7131 678.525 Q54.7739 678.525 57.3202 676.552 Q59.8346 674.579 59.8346 670.632 Q59.8346 665.889 56.8109 663.152 Q53.7872 660.383 48.5673 660.383 L28.3562 660.383 L28.3562 654.527 L64.0042 654.527 L64.0042 660.383 L58.5296 660.383 Q61.7762 662.516 63.3676 665.348 Q64.9272 668.149 64.9272 671.873 Q64.9272 678.016 61.1078 681.199 Q57.2883 684.382 49.9359 684.382 M27.4968 669.645 L27.4968 669.645 Z" fill="#000000" fill-rule="nonzero" fill-opacity="1" /><path clip-path="url(#clip020)" d="M18.2347 636.671 L28.3562 636.671 L28.3562 624.608 L32.9077 624.608 L32.9077 636.671 L52.2594 636.671 Q56.6199 636.671 57.8613 635.493 Q59.1026 634.284 59.1026 630.623 L59.1026 624.608 L64.0042 624.608 L64.0042 630.623 Q64.0042 637.403 61.4897 639.981 Q58.9434 642.559 52.2594 642.559 L32.9077 642.559 L32.9077 646.856 L28.3562 646.856 L28.3562 642.559 L18.2347 642.559 L18.2347 636.671 Z" fill="#000000" fill-rule="nonzero" fill-opacity="1" /><polyline clip-path="url(#clip022)" style="stroke:#009af9; stroke-linecap:round; stroke-linejoin:round; stroke-width:4; stroke-opacity:1; fill:none" points="315.32,663.13 319.284,663.13 323.248,663.13 323.248,630.901 327.212,630.901 327.212,599.621 331.176,599.621 331.176,569.565 335.141,569.565 335.141,540.978 339.105,540.978 339.105,514.073 343.069,514.073 343.069,489.025 347.033,489.025 347.033,465.973 350.997,465.973 350.997,445.012 354.961,445.012 354.961,426.199 358.925,426.199 358.925,409.549 362.889,409.549 362.889,395.036 366.853,395.036 366.853,382.598 370.818,382.598 370.818,372.134 374.782,372.134 374.782,363.513 378.746,363.513 378.746,356.57 382.71,356.57 382.71,351.12 386.674,351.12 386.674,346.953 390.638,346.953 390.638,343.844 394.602,343.844 394.602,341.556 398.566,341.556 398.566,339.846 402.53,339.846 402.53,402.929 406.495,402.929 406.495,464.205 410.459,464.205 410.459,522.892 414.423,522.892 414.423,578.278 418.387,578.278 418.387,629.733 422.351,629.733 422.351,676.719 426.315,676.719 426.315,718.8 430.279,718.8 430.279,755.644 434.243,755.644 434.243,787.029 438.208,787.029 438.208,812.844 442.172,812.844 442.172,833.086 446.136,833.086 446.136,847.859 450.1,847.859 450.1,857.369 454.064,857.369 454.064,861.916 458.028,861.916 458.028,861.884 461.992,861.884 461.992,793.275 465.956,793.275 465.956,722.971 469.92,722.971 469.92,652.097 473.885,652.097 473.885,581.759 477.849,581.759 477.849,513.025 481.813,513.025 481.813,446.901 485.777,446.901 485.777,384.313 489.741,384.313 489.741,326.097 493.705,326.097 493.705,272.979 497.669,272.979 497.669,225.566 501.633,225.566 501.633,184.338 505.597,184.338 505.597,149.643 509.562,149.643 509.562,121.692 513.526,121.692 513.526,100.559 517.49,100.559 517.49,86.1857 521.454,86.1857 521.454,142.844 525.418,142.844 525.418,203.869 529.382,203.869 529.382,268.291 533.346,268.291 533.346,335.1 537.31,335.1 537.31,403.265 541.275,403.265 541.275,471.756 545.239,471.756 545.239,539.561 549.203,539.561 549.203,605.712 553.167,605.712 553.167,669.294 557.131,669.294 557.131,729.471 561.095,729.471 561.095,785.492 565.059,785.492 565.059,836.707 569.023,836.707 569.023,882.579 572.987,882.579 572.987,922.684 576.952,922.684 576.952,956.726 580.916,956.726 580.916,920.072 584.88,920.072 584.88,879.031 588.844,879.031 588.844,834.224 592.808,834.224 592.808,786.332 596.772,786.332 596.772,736.08 600.736,736.08 600.736,748.679 604.7,748.679 604.7,758.536 608.664,758.536 608.664,765.866 612.629,765.866 612.629,770.92 616.593,770.92 616.593,773.986 620.557,773.986 620.557,710.921 624.521,710.921 624.521,648.417 628.485,648.417 628.485,587.371 632.449,587.371 632.449,528.628 636.413,528.628 636.413,472.967 640.377,472.967 640.377,485.544 644.341,485.544 644.341,500.608 648.306,500.608 648.306,518.114 652.27,518.114 652.27,537.967 656.234,537.967 656.234,560.027 660.198,560.027 660.198,519.651 664.162,519.651 664.162,482.977 668.126,482.977 668.126,450.3 672.09,450.3 672.09,421.833 676.054,421.833 676.054,397.7 680.019,397.7 680.019,377.942 683.983,377.942 683.983,362.515 687.947,362.515 687.947,351.293 691.911,351.293 691.911,344.076 695.875,344.076 695.875,340.592 699.839,340.592 699.839,404.967 703.803,404.967 703.803,470.455 707.767,470.455 707.767,536.076 711.731,536.076 711.731,600.871 715.696,600.871 715.696,663.921 719.66,663.921 719.66,724.37 723.624,724.37 723.624,781.43 727.588,781.43 727.588,834.402 731.552,834.402 731.552,882.685 735.516,882.685 735.516,925.785 739.48,925.785 739.48,963.32 743.444,963.32 743.444,995.027 747.408,995.027 747.408,1020.76 751.373,1020.76 751.373,1040.5 755.337,1040.5 755.337,1054.33 759.301,1054.33 759.301,1062.45 763.265,1062.45 763.265,1065.17 767.229,1065.17 767.229,1062.89 771.193,1062.89 771.193,1056.08 775.157,1056.08 775.157,1045.31 779.121,1045.31 779.121,1031.18 783.085,1031.18 783.085,1014.35 787.05,1014.35 787.05,995.52 791.014,995.52 791.014,975.382 794.978,975.382 794.978,954.648 798.942,954.648 798.942,934.014 802.906,934.014 802.906,914.148 806.87,914.148 806.87,895.685 810.834,895.685 810.834,879.206 814.798,879.206 814.798,865.238 818.763,865.238 818.763,789.778 822.727,789.778 822.727,719.568 826.691,719.568 826.691,655.458 830.655,655.458 830.655,598.159 834.619,598.159 834.619,548.231 838.583,548.231 838.583,570.534 842.547,570.534 842.547,598.95 846.511,598.95 846.511,633.011 850.475,633.011 850.475,672.145 854.44,672.145 854.44,715.698 858.404,715.698 858.404,762.944 862.368,762.944 862.368,813.105 866.332,813.105 866.332,865.364 870.296,865.364 870.296,918.885 874.26,918.885 874.26,972.829 878.224,972.829 878.224,1026.37 882.188,1026.37 882.188,1078.72 886.152,1078.72 886.152,1129.12 890.117,1129.12 890.117,1176.89 894.081,1176.89 894.081,1221.39 898.045,1221.39 898.045,1197.63 902.009,1197.63 902.009,1171.52 905.973,1171.52 905.973,1143.24 909.937,1143.24 909.937,1113.02 913.901,1113.02 913.901,1081.13 917.865,1081.13 917.865,1112.33 921.829,1112.33 921.829,1140.57 925.794,1140.57 925.794,1165.63 929.758,1165.63 929.758,1187.37 933.722,1187.37 933.722,1205.71 937.686,1205.71 937.686,1156.16 941.65,1156.16 941.65,1105.14 945.614,1105.14 945.614,1053.31 949.578,1053.31 949.578,1001.32 953.542,1001.32 953.542,949.827 957.507,949.827 957.507,963.913 961.471,963.913 961.471,977.805 965.435,977.805 965.435,991.496 969.399,991.496 969.399,1004.98 973.363,1004.98 973.363,1018.24 977.327,1018.24 977.327,966.822 981.291,966.822 981.291,917.082 985.255,917.082 985.255,869.567 989.219,869.567 989.219,824.768 993.184,824.768 993.184,783.116 997.148,783.116 997.148,809.425 1001.11,809.425 1001.11,837.62 1005.08,837.62 1005.08,867.355 1009.04,867.355 1009.04,898.26 1013,898.26 1013,929.953 1016.97,929.953 1016.97,962.041 1020.93,962.041 1020.93,994.137 1024.9,994.137 1024.9,1025.86 1028.86,1025.86 1028.86,1056.84 1032.82,1056.84 1032.82,1086.75 1036.79,1086.75 1036.79,1115.26 1040.75,1115.26 1040.75,1142.1 1044.72,1142.1 1044.72,1167.04 1048.68,1167.04 1048.68,1189.86 1052.65,1189.86 1052.65,1210.42 1056.61,1210.42 1056.61,1228.62 1060.57,1228.62 1060.57,1244.39 1064.54,1244.39 1064.54,1257.73 1068.5,1257.73 1068.5,1268.67 1072.47,1268.67 1072.47,1277.28 1076.43,1277.28 1076.43,1219.23 1080.39,1219.23 1080.39,1161.03 1084.36,1161.03 1084.36,1103.42 1088.32,1103.42 1088.32,1047.12 1092.29,1047.12 1092.29,992.791 1096.25,992.791 1096.25,941.042 1100.21,941.042 1100.21,892.426 1104.18,892.426 1104.18,847.416 1108.14,847.416 1108.14,806.405 1112.11,806.405 1112.11,769.7 1116.07,769.7 1116.07,737.518 1120.04,737.518 1120.04,709.984 1124,709.984 1124,687.132 1127.96,687.132 1127.96,668.907 1131.93,668.907 1131.93,655.166 1135.89,655.166 1135.89,645.689 1139.86,645.689 1139.86,640.179 1143.82,640.179 1143.82,638.276 1147.78,638.276 1147.78,639.562 1151.75,639.562 1151.75,643.571 1155.71,643.571 1155.71,649.802 1159.68,649.802 1159.68,657.729 1163.64,657.729 1163.64,666.81 1167.6,666.81 1167.6,676.5 1171.57,676.5 1171.57,686.263 1175.53,686.263 1175.53,760.038 1179.5,760.038 1179.5,830.975 1183.46,830.975 1183.46,898.07 1187.43,898.07 1187.43,960.419 1191.39,960.419 1191.39,1017.24 1195.35,1017.24 1195.35,1003.41 1199.32,1003.41 1199.32,984.776 1203.28,984.776 1203.28,961.509 1207.25,961.509 1207.25,933.874 1211.21,933.874 1211.21,902.217 1215.17,902.217 1215.17,866.954 1219.14,866.954 1219.14,828.567 1223.1,828.567 1223.1,787.583 1227.07,787.583 1227.07,744.573 1231.03,744.573 1231.03,700.13 1234.99,700.13 1234.99,654.864 1238.96,654.864 1238.96,609.383 1242.92,609.383 1242.92,564.287 1246.89,564.287 1246.89,520.152 1250.85,520.152 1250.85,477.522 1254.82,477.522 1254.82,501.357 1258.78,501.357 1258.78,525.749 1262.74,525.749 1262.74,550.54 1266.71,550.54 1266.71,575.564 1270.67,575.564 1270.67,600.656 1274.64,600.656 1274.64,561.188 1278.6,561.188 1278.6,523.354 1282.56,523.354 1282.56,487.547 1286.53,487.547 1286.53,454.109 1290.49,454.109 1290.49,423.332 1294.46,423.332 1294.46,459.906 1298.42,459.906 1298.42,497.644 1302.38,497.644 1302.38,536.106 1306.35,536.106 1306.35,574.847 1310.31,574.847 1310.31,613.427 1314.28,613.427 1314.28,651.419 1318.24,651.419 1318.24,688.416 1322.21,688.416 1322.21,724.039 1326.17,724.039 1326.17,757.945 1330.13,757.945 1330.13,789.833 1334.1,789.833 1334.1,819.445 1338.06,819.445 1338.06,846.573 1342.03,846.573 1342.03,871.061 1345.99,871.061 1345.99,892.809 1349.95,892.809 1349.95,911.766 1353.92,911.766 1353.92,863.48 1357.88,863.48 1357.88,814.365 1361.85,814.365 1361.85,765.075 1365.81,765.075 1365.81,716.253 1369.77,716.253 1369.77,668.516 1373.74,668.516 1373.74,686.903 1377.7,686.903 1377.7,705.592 1381.67,705.592 1381.67,724.512 1385.63,724.512 1385.63,743.588 1389.6,743.588 1389.6,762.738 1393.56,762.738 1393.56,781.882 1397.52,781.882 1397.52,800.936 1401.49,800.936 1401.49,819.821 1405.45,819.821 1405.45,838.457 1409.42,838.457 1409.42,856.771 1413.38,856.771 1413.38,810.236 1417.34,810.236 1417.34,765.148 1421.31,765.148 1421.31,722.002 1425.27,722.002 1425.27,681.245 1429.24,681.245 1429.24,643.266 1433.2,643.266 1433.2,672.85 1437.16,672.85 1437.16,703.9 1441.13,703.9 1441.13,736.055 1445.09,736.055 1445.09,768.94 1449.06,768.94 1449.06,802.176 1453.02,802.176 1453.02,835.384 1456.98,835.384 1456.98,868.194 1460.95,868.194 1460.95,900.251 1464.91,900.251 1464.91,931.224 1468.88,931.224 1468.88,960.81 1472.84,960.81 1472.84,988.74 1476.81,988.74 1476.81,1014.78 1480.77,1014.78 1480.77,1038.74 1484.73,1038.74 1484.73,1060.48 1488.7,1060.48 1488.7,1079.89 1492.66,1079.89 1492.66,1096.92 1496.63,1096.92 1496.63,1111.55 1500.59,1111.55 1500.59,1123.84 1504.55,1123.84 1504.55,1133.84 1508.52,1133.84 1508.52,1141.69 1512.48,1141.69 1512.48,1083.07 1516.45,1083.07 1516.45,1024.54 1520.41,1024.54 1520.41,966.858 1524.37,966.858 1524.37,910.748 1528.34,910.748 1528.34,856.894 1532.3,856.894 1532.3,870.373 1536.27,870.373 1536.27,885.376 1540.23,885.376 1540.23,901.822 1544.2,901.822 1544.2,919.602 1548.16,919.602 1548.16,938.58 1552.12,938.58 1552.12,894.142 1556.09,894.142 1556.09,852.469 1560.05,852.469 1560.05,813.92 1564.02,813.92 1564.02,778.787 1567.98,778.787 1567.98,747.288 1571.94,747.288 1571.94,784.026 1575.91,784.026 1575.91,822.715 1579.87,822.715 1579.87,862.8 1583.84,862.8 1583.84,903.714 1587.8,903.714 1587.8,944.888 1591.76,944.888 1591.76,985.761 1595.73,985.761 1595.73,1025.79 1599.69,1025.79 1599.69,1064.48 1603.66,1064.48 1603.66,1101.34 1607.62,1101.34 1607.62,1135.95 1611.59,1135.95 1611.59,1167.95 1615.55,1167.95 1615.55,1197.02 1619.51,1197.02 1619.51,1222.93 1623.48,1222.93 1623.48,1245.48 1627.44,1245.48 1627.44,1264.57 1631.41,1264.57 1631.41,1280.17 1635.37,1280.17 1635.37,1292.29 1639.33,1292.29 1639.33,1301.04 1643.3,1301.04 1643.3,1306.56 1647.26,1306.56 1647.26,1309.06 1651.23,1309.06 1651.23,1308.81 1655.19,1308.81 1655.19,1306.12 1659.15,1306.12 1659.15,1301.31 1663.12,1301.31 1663.12,1294.78 1667.08,1294.78 1667.08,1286.9 1671.05,1286.9 1671.05,1278.09 1675.01,1278.09 1675.01,1268.75 1678.98,1268.75 1678.98,1259.29 1682.94,1259.29 1682.94,1250.1 1686.9,1250.1 1686.9,1241.57 1690.87,1241.57 1690.87,1234.03 1694.83,1234.03 1694.83,1227.8 1698.8,1227.8 1698.8,1223.17 1702.76,1223.17 1702.76,1220.38 1706.72,1220.38 1706.72,1219.61 1710.69,1219.61 1710.69,1221.02 1714.65,1221.02 1714.65,1224.69 1718.62,1224.69 1718.62,1230.69 1722.58,1230.69 1722.58,1238.99 1726.54,1238.99 1726.54,1249.57 1730.51,1249.57 1730.51,1262.32 1734.47,1262.32 1734.47,1277.11 1738.44,1277.11 1738.44,1293.76 1742.4,1293.76 1742.4,1312.07 1746.37,1312.07 1746.37,1331.81 1750.33,1331.81 1750.33,1288.25 1754.29,1288.25 1754.29,1247.48 1758.26,1247.48 1758.26,1209.76 1762.22,1209.76 1762.22,1175.3 1766.19,1175.3 1766.19,1144.22 1770.15,1144.22 1770.15,1116.6 1774.11,1116.6 1774.11,1092.44 1778.08,1092.44 1778.08,1071.67 1782.04,1071.67 1782.04,1054.18 1786.01,1054.18 1786.01,1039.78 1789.97,1039.78 1789.97,1092.72 1793.93,1092.72 1793.93,1146.34 1797.9,1146.34 1797.9,1199.8 1801.86,1199.8 1801.86,1252.25 1805.83,1252.25 1805.83,1302.9 1809.79,1302.9 1809.79,1286.55 1813.76,1286.55 1813.76,1268.91 1817.72,1268.91 1817.72,1249.92 1821.68,1249.92 1821.68,1229.58 1825.65,1229.58 1825.65,1207.92 1829.61,1207.92 1829.61,1184.99 1833.58,1184.99 1833.58,1160.87 1837.54,1160.87 1837.54,1135.67 1841.5,1135.67 1841.5,1109.53 1845.47,1109.53 1845.47,1082.57 1849.43,1082.57 1849.43,1054.98 1853.4,1054.98 1853.4,1026.93 1857.36,1026.93 1857.36,998.586 1861.32,998.586 1861.32,970.15 1865.29,970.15 1865.29,941.804 1869.25,941.804 1869.25,978.19 1873.22,978.19 1873.22,1013.13 1877.18,1013.13 1877.18,1046.23 1881.15,1046.23 1881.15,1077.17 1885.11,1077.17 1885.11,1105.64 1889.07,1105.64 1889.07,1066.96 1893.04,1066.96 1893.04,1027.32 1897,1027.32 1897,987.128 1900.97,987.128 1900.97,946.833 1904.93,946.833 1904.93,906.859 1908.89,906.859 1908.89,932.074 1912.86,932.074 1912.86,956.508 1916.82,956.508 1916.82,979.972 1920.79,979.972 1920.79,1002.3 1924.75,1002.3 1924.75,1023.34 1928.71,1023.34 1928.71,1042.98 1932.68,1042.98 1932.68,1061.13 1936.64,1061.13 1936.64,1077.73 1940.61,1077.73 1940.61,1092.75 1944.57,1092.75 1944.57,1106.2 1948.54,1106.2 1948.54,1053.64 1952.5,1053.64 1952.5,1001.48 1956.46,1001.48 1956.46,950.36 1960.43,950.36 1960.43,900.867 1964.39,900.867 1964.39,853.552 1968.36,853.552 1968.36,873.367 1972.32,873.367 1972.32,894.386 1976.28,894.386 1976.28,916.419 1980.25,916.419 1980.25,939.261 1984.21,939.261 1984.21,962.693 1988.18,962.693 1988.18,986.489 1992.14,986.489 1992.14,1010.42 1996.1,1010.42 1996.1,1034.26 2000.07,1034.26 2000.07,1057.79 2004.03,1057.79 2004.03,1080.79 2008,1080.79 2008,1103.07 2011.96,1103.07 2011.96,1124.46 2015.93,1124.46 2015.93,1144.78 2019.89,1144.78 2019.89,1163.91 2023.85,1163.91 2023.85,1181.73 2027.82,1181.73 2027.82,1198.17 2031.78,1198.17 2031.78,1213.16 2035.75,1213.16 2035.75,1226.68 2039.71,1226.68 2039.71,1238.73 2043.67,1238.73 2043.67,1249.33 2047.64,1249.33 2047.64,1258.53 2051.6,1258.53 2051.6,1266.42 2055.57,1266.42 2055.57,1273.08 2059.53,1273.08 2059.53,1278.63 2063.49,1278.63 2063.49,1283.21 2067.46,1283.21 2067.46,1286.96 2071.42,1286.96 2071.42,1290.03 2075.39,1290.03 2075.39,1292.59 2079.35,1292.59 2079.35,1294.81 2083.32,1294.81 2083.32,1296.84 2087.28,1296.84 2087.28,1234.4 2091.24,1234.4 2091.24,1173.99 2095.21,1173.99 2095.21,1116.31 2099.17,1116.31 2099.17,1061.98 2103.14,1061.98 2103.14,1011.56 2107.1,1011.56 2107.1,965.492 2111.06,965.492 2111.06,924.145 2115.03,924.145 2115.03,887.778 2118.99,887.778 2118.99,856.553 2122.96,856.553 2122.96,830.529 2126.92,830.529 2126.92,809.663 2130.88,809.663 2130.88,793.819 2134.85,793.819 2134.85,782.768 2138.81,782.768 2138.81,776.198 2142.78,776.198 2142.78,773.722 2146.74,773.722 2146.74,774.888 2150.7,774.888 2150.7,779.188 2154.67,779.188 2154.67,786.074 2158.63,786.074 2158.63,794.965 2162.6,794.965 2162.6,805.261 2166.56,805.261 2166.56,880.815 2170.53,880.815 2170.53,954.671 2174.49,954.671 2174.49,1025.7 2178.45,1025.7 2178.45,1092.85 2182.42,1092.85 2182.42,1155.18 2186.38,1155.18 2186.38,1147.42 2190.35,1147.42 2190.35,1135.24 2194.31,1135.24 2194.31,1118.63 2198.27,1118.63 2198.27,1097.69 2202.24,1097.69 2202.24,1072.6 2206.2,1072.6 2206.2,1108.08 2210.17,1108.08 2210.17,1138.11 2214.13,1138.11 2214.13,1162.52 2218.09,1162.52 2218.09,1181.28 2222.06,1181.28 2222.06,1194.46 2226.02,1194.46 2226.02,1137.77 2229.99,1137.77 2229.99,1077.84 2233.95,1077.84 2233.95,1015.58 2237.92,1015.58 2237.92,951.926 2241.88,951.926 2241.88,887.819 2245.84,887.819 2245.84,888.636 2249.81,888.636 2249.81,888.909 2253.77,888.909 2253.77,888.929 2257.74,888.929 2257.74,888.981 2261.7,888.981 2261.7,889.337 2265.66,889.337 2265.66,890.253 2269.63,890.253 2269.63,891.963 2273.59,891.963 2273.59,894.678 2277.56,894.678 2277.56,898.577 2281.52,898.577 2281.52,903.81 2285.48,903.81 2285.48,910.494 2289.45,910.494 2289.45,918.709 2293.41,918.709 2293.41,928.504 "/>
<polyline clip-path="url(#clip022)" style="stroke:#e26f46; stroke-linecap:round; stroke-linejoin:round; stroke-width:4; stroke-opacity:1; fill:none" points="315.32,668.466 319.284,660.308 323.248,651.766 327.212,642.786 331.176,633.324 335.141,623.354 339.105,612.862 343.069,601.85 347.033,590.333 350.997,578.339 354.961,565.907 358.925,553.087 362.889,539.934 366.853,526.515 370.818,512.897 374.782,499.153 378.746,485.357 382.71,471.58 386.674,457.893 390.638,444.363 394.602,372.795 398.566,411.831 402.53,452.168 406.495,493.099 410.459,533.937 414.423,574.025 418.387,612.751 422.351,649.561 426.315,683.97 430.279,715.566 434.243,744.022 438.208,769.096 442.172,790.634 446.136,808.571 450.1,822.925 454.064,892.054 458.028,847.544 461.992,798.992 465.956,747.442 469.92,693.966 473.885,639.63 477.849,585.478 481.813,532.502 485.777,481.624 489.741,433.677 493.705,389.391 497.669,349.377 501.633,314.124 505.597,283.987 509.562,259.188 513.526,181.56 517.49,219.651 521.454,263.946 525.418,313.426 529.382,366.995 533.346,423.511 537.31,481.809 541.275,540.738 545.239,599.179 549.203,656.074 553.167,710.445 557.131,761.418 561.095,808.235 565.059,850.266 569.023,887.019 572.987,976.404 576.952,949.63 580.916,915.99 584.88,876.307 588.844,831.51 592.808,724.347 596.772,724.469 600.736,723.604 604.7,722.093 608.664,720.273 612.629,776.728 616.593,723.182 620.557,669.276 624.521,616.012 628.485,564.335 632.449,456.854 636.413,462.931 640.377,473.875 644.341,489.489 648.306,509.471 652.27,591.688 656.234,567.086 660.198,544.487 664.162,524.059 668.126,505.913 672.09,490.102 676.054,476.626 680.019,465.429 683.983,456.409 687.947,449.418 691.911,386.011 695.875,434.559 699.839,485.461 703.803,537.707 707.767,590.3 711.731,642.278 715.696,692.735 719.66,740.839 723.624,785.848 727.588,827.126 731.552,864.148 735.516,896.511 739.48,923.939 743.444,946.28 747.408,963.506 751.373,975.708 755.337,983.089 759.301,985.953 763.265,984.693 767.229,979.783 771.193,971.753 775.157,961.187 779.121,948.696 783.085,934.908 787.05,920.453 791.014,905.944 794.978,891.97 798.942,879.075 802.906,867.757 806.87,858.451 810.834,909.78 814.798,853.449 818.763,799.03 822.727,747.405 826.691,699.354 830.655,597.281 834.619,610.312 838.583,629.497 842.547,654.357 846.511,684.302 850.475,718.65 854.44,756.641 858.404,797.468 862.368,840.291 866.332,884.257 870.296,928.527 874.26,972.29 878.224,1014.78 882.188,1055.3 886.152,1093.22 890.117,1186.25 894.081,1165.38 898.045,1139.6 902.009,1109.44 905.973,1075.47 909.937,980.105 913.901,992.62 917.865,1004.39 921.829,1015.42 925.794,1025.7 929.758,1093.52 933.722,1050.33 937.686,1005.54 941.65,959.953 945.614,914.355 949.578,811.248 953.542,819.93 957.507,831.688 961.471,846.348 965.435,863.672 969.399,941.627 973.363,911.289 977.327,881.645 981.291,853.046 985.255,825.807 989.219,741.94 993.184,770.256 997.148,801.571 1001.11,835.259 1005.08,870.665 1009.04,907.121 1013,943.966 1016.97,980.554 1020.93,1016.28 1024.9,1050.57 1028.86,1082.93 1032.82,1112.9 1036.79,1140.14 1040.75,1164.35 1044.72,1185.32 1048.68,1202.93 1052.65,1217.15 1056.61,1228.01 1060.57,1235.62 1064.54,1240.19 1068.5,1300.19 1072.47,1247.36 1076.43,1191.38 1080.39,1133.37 1084.36,1074.45 1088.32,1015.72 1092.29,958.22 1096.25,902.911 1100.21,850.671 1104.18,802.266 1108.14,758.339 1112.11,719.403 1116.07,685.833 1120.04,657.864 1124,635.592 1127.96,618.977 1131.93,607.852 1135.89,601.93 1139.86,600.818 1143.82,604.031 1147.78,611.005 1151.75,621.116 1155.71,633.699 1159.68,648.059 1163.64,663.495 1167.6,621.057 1171.57,688.663 1175.53,756.33 1179.5,822.733 1183.46,886.636 1187.43,1005.17 1191.39,1008.76 1195.35,1005.92 1199.32,996.714 1203.28,981.354 1207.25,960.192 1211.21,933.698 1215.17,902.447 1219.14,867.102 1223.1,828.391 1227.07,787.092 1231.03,744.008 1234.99,699.95 1238.96,655.717 1242.92,612.077 1246.89,511.496 1250.85,523.222 1254.82,538.489 1258.78,557.054 1262.74,578.609 1266.71,661.043 1270.67,635.354 1274.64,610.449 1278.6,586.601 1282.56,564.049 1286.53,484.733 1290.49,517.401 1294.46,552.812 1298.42,590.289 1302.38,629.139 1306.35,668.663 1310.31,708.179 1314.28,747.033 1318.24,784.613 1322.21,820.365 1326.17,853.799 1330.13,884.501 1334.1,912.136 1338.06,936.455 1342.03,957.296 1345.99,1032.84 1349.95,994.509 1353.92,951.746 1357.88,905.458 1361.85,856.598 1365.81,747.88 1369.77,748.858 1373.74,751.117 1377.7,754.806 1381.67,760.032 1385.63,766.857 1389.6,775.305 1393.56,785.359 1397.52,796.963 1401.49,810.025 1405.45,882.68 1409.42,846.192 1413.38,809.74 1417.34,773.88 1421.31,739.129 1425.27,647.701 1429.24,668.598 1433.2,692.818 1437.16,719.899 1441.13,749.331 1445.09,780.573 1449.06,813.063 1453.02,846.233 1456.98,879.524 1460.95,912.399 1464.91,944.351 1468.88,974.918 1472.84,1003.69 1476.81,1030.31 1480.77,1054.49 1484.73,1076.02 1488.7,1094.74 1492.66,1110.58 1496.63,1123.53 1500.59,1133.64 1504.55,1199.29 1508.52,1152.06 1512.48,1101.55 1516.45,1048.76 1520.41,994.701 1524.37,882.139 1528.34,880.627 1532.3,881.722 1536.27,885.515 1540.23,892.028 1544.2,959.475 1548.16,919.16 1552.12,880.276 1556.09,843.354 1560.05,808.858 1564.02,718.92 1567.98,742.435 1571.94,770.271 1575.91,801.823 1579.87,836.421 1583.84,873.354 1587.8,911.89 1591.76,951.287 1595.73,990.817 1599.69,1029.78 1603.66,1067.52 1607.62,1103.43 1611.59,1136.99 1615.55,1167.74 1619.51,1195.31 1623.48,1219.42 1627.44,1239.88 1631.41,1256.59 1635.37,1269.55 1639.33,1278.84 1643.3,1284.61 1647.26,1287.11 1651.23,1286.64 1655.19,1283.54 1659.15,1278.21 1663.12,1271.09 1667.08,1262.63 1671.05,1253.29 1675.01,1243.52 1678.98,1233.78 1682.94,1224.49 1686.9,1216.06 1690.87,1208.82 1694.83,1203.11 1698.8,1199.17 1702.76,1197.22 1706.72,1197.4 1710.69,1199.81 1714.65,1204.49 1718.62,1211.4 1722.58,1220.49 1726.54,1231.62 1730.51,1244.64 1734.47,1259.34 1738.44,1275.49 1742.4,1351.08 1746.37,1317.27 1750.33,1283.1 1754.29,1249.05 1758.26,1215.53 1762.22,1182.97 1766.19,1151.72 1770.15,1122.11 1774.11,1094.4 1778.08,1068.82 1782.04,987.263 1786.01,1018.42 1789.97,1052.98 1793.93,1090.19 1797.9,1129.27 1801.86,1227.66 1805.83,1216 1809.79,1202.89 1813.76,1188.35 1817.72,1172.44 1821.68,1155.26 1825.65,1136.94 1829.61,1117.62 1833.58,1097.45 1837.54,1076.62 1841.5,1055.32 1845.47,1033.74 1849.43,1012.07 1853.4,990.493 1857.36,969.193 1861.32,890.075 1865.29,921.881 1869.25,955.387 1873.22,989.96 1877.18,1024.97 1881.15,1118.06 1885.11,1100.05 1889.07,1079.77 1893.04,1057.46 1897,1033.41 1900.97,949.704 1904.93,975.26 1908.89,1001.08 1912.86,1026.78 1916.82,1052 1920.79,1076.38 1924.75,1099.62 1928.71,1121.45 1932.68,1141.65 1936.64,1160.04 1940.61,1234.75 1944.57,1197.09 1948.54,1156.41 1952.5,1113.46 1956.46,1069.02 1960.43,965.619 1964.39,972.611 1968.36,981.376 1972.32,991.852 1976.28,1003.94 1980.25,1017.51 1984.21,1032.39 1988.18,1048.4 1992.14,1065.33 1996.1,1082.96 2000.07,1101.06 2004.03,1119.4 2008,1137.76 2011.96,1155.91 2015.93,1173.66 2019.89,1190.81 2023.85,1207.19 2027.82,1222.68 2031.78,1237.14 2035.75,1250.49 2039.71,1262.68 2043.67,1273.66 2047.64,1283.44 2051.6,1292.05 2055.57,1299.53 2059.53,1305.95 2063.49,1311.41 2067.46,1316.01 2071.42,1319.88 2075.39,1323.16 2079.35,1384.24 2083.32,1334.67 2087.28,1283.96 2091.24,1232.98 2095.21,1182.6 2099.17,1133.6 2103.14,1086.73 2107.1,1042.65 2111.06,1001.91 2115.03,964.972 2118.99,932.2 2122.96,903.833 2126.92,880.002 2130.88,860.73 2134.85,845.934 2138.81,835.432 2142.78,828.953 2146.74,826.144 2150.7,826.586 2154.67,829.806 2158.63,777.03 2162.6,836.304 2166.56,897.717 2170.53,959.966 2174.49,1021.79 2178.45,1140.25 2182.42,1145.64 2186.38,1146.32 2190.35,1142.18 2194.31,1133.2 2198.27,1061.25 2202.24,1095.13 2206.2,1125.8 2210.17,1152.93 2214.13,1176.26 2218.09,1253.91 2222.06,1217.24 2226.02,1175.63 2229.99,1129.98 2233.95,1081.21 2237.92,972.026 2241.88,971.996 2245.84,972.724 2249.81,974.392 2253.77,977.146 2257.74,981.103 2261.7,986.343 2265.66,992.912 2269.63,1000.82 2273.59,1010.05 2277.56,1020.54 2281.52,1032.22 2285.48,1044.98 2289.45,1058.69 2293.41,1073.2 "/>
<polyline clip-path="url(#clip022)" style="stroke:#3da44d; stroke-linecap:round; stroke-linejoin:round; stroke-width:4; stroke-opacity:1; fill:none" points="315.32,649.679 319.284,647.957 323.248,645.43 327.212,641.937 331.176,637.348 335.141,631.565 339.105,624.526 343.069,616.2 347.033,606.59 350.997,595.731 354.961,583.686 358.925,570.543 362.889,556.416 366.853,541.437 370.818,525.751 374.782,509.519 378.746,492.905 382.71,476.077 386.674,459.202 390.638,442.444 394.602,389.835 398.566,424.878 402.53,461.965 406.495,500.415 410.459,539.543 414.423,578.679 418.387,617.181 422.351,654.449 426.315,689.936 430.279,723.161 434.243,753.714 438.208,781.267 442.172,805.573 446.136,826.469 450.1,843.879 454.064,893.93 458.028,853.347 461.992,808.026 465.956,758.983 469.92,707.281 473.885,653.993 477.849,600.187 481.813,546.895 485.777,495.09 489.741,445.673 493.705,399.445 497.669,357.102 501.633,319.217 505.597,286.237 509.562,258.475 513.526,199.991 517.49,234.192 521.454,275.26 525.418,322.203 529.382,373.936 533.346,429.307 537.31,487.131 541.275,546.218 545.239,605.398 549.203,663.552 553.167,719.632 557.131,772.686 561.095,821.871 565.059,866.472 569.023,905.912 572.987,975.876 576.952,952.72 580.916,922.041 584.88,884.64 588.844,841.439 592.808,757.335 596.772,756.774 600.736,755.142 604.7,752.784 608.664,750.041 612.629,783.369 616.593,729.727 620.557,675.148 624.521,620.693 628.485,567.374 632.449,480.014 636.413,482.824 640.377,490.817 644.341,503.83 648.306,521.591 652.27,579.845 656.234,554.774 660.198,531.58 664.162,510.466 668.126,491.581 672.09,475.013 676.054,460.797 680.019,448.91 683.983,439.28 687.947,431.784 691.911,390.141 695.875,437.509 699.839,487.921 703.803,540.33 707.767,593.686 711.731,646.965 715.696,699.19 719.66,749.447 723.624,796.91 727.588,840.855 731.552,880.667 735.516,915.857 739.48,946.062 743.444,971.052 747.408,990.725 751.373,1005.11 755.337,1014.35 759.301,1018.7 763.265,1018.53 767.229,1014.28 771.193,1006.48 775.157,995.691 779.121,982.549 783.085,967.697 787.05,951.791 791.014,935.48 794.978,919.394 798.942,904.126 802.906,890.223 806.87,878.175 810.834,904.523 814.798,846.257 818.763,789.383 822.727,734.883 826.691,683.64 830.655,600.305 834.619,608.882 838.583,624.142 842.547,645.658 846.511,672.878 850.475,705.137 854.44,741.683 858.404,781.697 862.368,824.313 866.332,868.642 870.296,913.796 874.26,958.904 878.224,1003.13 882.188,1045.71 886.152,1085.94 890.117,1159.3 894.081,1141.94 898.045,1119.15 902.009,1091.43 905.973,1059.34 909.937,987.431 913.901,999.768 917.865,1011.37 921.829,1022.22 925.794,1032.31 929.758,1077.77 933.722,1035.29 937.686,990.633 941.65,944.651 945.614,898.185 949.578,815.935 953.542,822.036 957.507,831.466 961.471,844.079 965.435,859.655 969.399,914.038 973.363,883.535 977.327,853.514 981.291,824.363 985.255,796.436 989.219,733.924 993.184,760.451 997.148,790.492 1001.11,823.411 1005.08,858.534 1009.04,895.164 1013,932.598 1016.97,970.145 1020.93,1007.14 1024.9,1042.96 1028.86,1077.05 1032.82,1108.88 1036.79,1138.04 1040.75,1164.18 1044.72,1187.03 1048.68,1206.41 1052.65,1222.23 1056.61,1234.49 1060.57,1243.27 1064.54,1248.72 1068.5,1287.19 1072.47,1235.59 1076.43,1180.01 1080.39,1121.61 1084.36,1061.57 1088.32,1001.06 1092.29,941.228 1096.25,883.126 1100.21,827.739 1104.18,775.939 1108.14,728.482 1112.11,685.988 1116.07,648.934 1120.04,617.653 1124,592.329 1127.96,573 1131.93,559.566 1135.89,551.795 1139.86,549.335 1143.82,551.727 1147.78,558.421 1151.75,568.796 1155.71,582.171 1159.68,597.829 1163.64,615.033 1167.6,596.927 1171.57,666.149 1175.53,736.273 1179.5,805.863 1183.46,873.561 1187.43,974.229 1191.39,983.38 1195.35,985.772 1199.32,981.38 1203.28,970.345 1207.25,952.954 1211.21,929.632 1215.17,900.925 1219.14,867.482 1223.1,830.033 1227.07,789.372 1231.03,746.333 1234.99,701.769 1238.96,656.533 1242.92,611.456 1246.89,531.21 1250.85,539.891 1254.82,552.428 1258.78,568.611 1262.74,588.154 1266.71,646.822 1270.67,620.845 1274.64,595.506 1278.6,571.112 1282.56,547.936 1286.53,490.093 1290.49,521.133 1294.46,555.468 1298.42,592.404 1302.38,631.218 1306.35,671.173 1310.31,711.539 1314.28,751.606 1318.24,790.701 1322.21,828.205 1326.17,863.558 1330.13,896.279 1334.1,925.964 1338.06,952.3 1342.03,975.062 1345.99,1030.24 1349.95,994.423 1353.92,953.404 1357.88,908.099 1361.85,859.489 1365.81,772.471 1369.77,771.43 1373.74,771.639 1377.7,773.28 1381.67,776.489 1385.63,781.361 1389.6,787.945 1393.56,796.247 1397.52,806.231 1401.49,817.821 1405.45,867.027 1409.42,830.347 1413.38,793.348 1417.34,756.632 1421.31,720.768 1425.27,650.164 1429.24,668.651 1433.2,690.902 1437.16,716.467 1441.13,744.835 1445.09,775.452 1449.06,807.735 1453.02,841.089 1456.98,874.916 1460.95,908.635 1464.91,941.692 1468.88,973.57 1472.84,1003.8 1476.81,1031.98 1480.77,1057.77 1484.73,1080.88 1488.7,1101.13 1492.66,1118.37 1496.63,1132.57 1500.59,1143.75 1504.55,1188.1 1508.52,1142.42 1512.48,1092.67 1516.45,1039.88 1520.41,985.127 1524.37,893.375 1528.34,889.027 1532.3,887.347 1536.27,888.474 1540.23,892.47 1544.2,935.45 1548.16,893.979 1552.12,853.655 1556.09,815.075 1560.05,778.772 1564.02,709.082 1567.98,729.739 1571.94,755.295 1575.91,785.154 1579.87,818.647 1583.84,855.047 1587.8,893.593 1591.76,933.504 1595.73,974.004 1599.69,1014.33 1603.66,1053.78 1607.62,1091.66 1611.59,1127.38 1615.55,1160.41 1619.51,1190.3 1623.48,1216.72 1627.44,1239.39 1631.41,1258.17 1635.37,1272.99 1639.33,1283.88 1643.3,1290.97 1647.26,1294.46 1651.23,1294.63 1655.19,1291.82 1659.15,1286.42 1663.12,1278.87 1667.08,1269.63 1671.05,1259.18 1675.01,1248.02 1678.98,1236.62 1682.94,1225.45 1686.9,1214.94 1690.87,1205.5 1694.83,1197.48 1698.8,1191.19 1702.76,1186.88 1706.72,1184.74 1710.69,1184.91 1714.65,1187.45 1718.62,1192.39 1722.58,1199.67 1726.54,1209.19 1730.51,1220.82 1734.47,1234.35 1738.44,1249.56 1742.4,1302.31 1746.37,1268.97 1750.33,1234.96 1754.29,1200.78 1758.26,1166.9 1762.22,1133.77 1766.19,1101.79 1770.15,1071.35 1774.11,1042.74 1778.08,1016.24 1782.04,955.922 1786.01,985.298 1789.97,1018.71 1793.93,1055.38 1797.9,1094.51 1801.86,1171.36 1805.83,1161.75 1809.79,1150.6 1813.76,1137.9 1817.72,1123.72 1821.68,1108.12 1825.65,1091.23 1829.61,1073.18 1833.58,1054.13 1837.54,1034.26 1841.5,1013.77 1845.47,992.858 1849.43,971.721 1853.4,950.563 1857.36,929.578 1861.32,872.831 1865.29,903.848 1869.25,937.046 1873.22,971.762 1877.18,1007.33 1881.15,1079.2 1885.11,1063.39 1889.07,1045.03 1893.04,1024.36 1897,1001.68 1900.97,941.176 1904.93,966.573 1908.89,992.498 1912.86,1018.54 1916.82,1044.29 1920.79,1069.37 1924.75,1093.45 1928.71,1116.21 1932.68,1137.38 1936.64,1156.75 1940.61,1210.27 1944.57,1174.46 1948.54,1135 1952.5,1092.68 1956.46,1048.3 1960.43,966.566 1964.39,971.669 1968.36,978.665 1972.32,987.515 1976.28,998.137 1980.25,1010.41 1984.21,1024.18 1988.18,1039.26 1992.14,1055.45 1996.1,1072.52 2000.07,1090.23 2004.03,1108.34 2008,1126.61 2011.96,1144.8 2015.93,1162.7 2019.89,1180.08 2023.85,1196.76 2027.82,1212.58 2031.78,1227.4 2035.75,1241.1 2039.71,1253.61 2043.67,1264.88 2047.64,1274.88 2051.6,1283.63 2055.57,1291.17 2059.53,1297.55 2063.49,1302.86 2067.46,1307.2 2071.42,1310.71 2075.39,1313.51 2079.35,1351.87 2083.32,1302.58 2087.28,1251.52 2091.24,1199.64 2095.21,1147.85 2099.17,1097.04 2103.14,1048.03 2107.1,1001.55 2111.06,958.256 2115.03,918.699 2118.99,883.318 2122.96,852.438 2126.92,826.265 2130.88,804.889 2134.85,788.287 2138.81,776.324 2142.78,768.769 2146.74,765.299 2150.7,765.51 2154.67,768.934 2158.63,738.933 2162.6,798.308 2166.56,860.743 2170.53,924.857 2174.49,989.291 2178.45,1088.86 2182.42,1098.97 2186.38,1104.24 2190.35,1104.47 2194.31,1099.58 2198.27,1053.51 2202.24,1089.77 2206.2,1122.92 2210.17,1152.53 2214.13,1178.28 2218.09,1236.08 2222.06,1202.45 2226.02,1163.13 2229.99,1118.98 2233.95,1070.96 2237.92,983.946 2241.88,982.331 2245.84,981.4 2249.81,981.361 2253.77,982.389 2257.74,984.626 2261.7,988.178 2265.66,993.114 2269.63,999.468 2273.59,1007.24 2277.56,1016.38 2281.52,1026.84 2285.48,1038.51 2289.45,1051.26 2293.41,1064.97 "/>
<path clip-path="url(#clip020)" d="M1274.21 300.469 L2282.86 300.469 L2282.86 93.1086 L1274.21 93.1086  Z" fill="#ffffff" fill-rule="evenodd" fill-opacity="1"/>
<polyline clip-path="url(#clip020)" style="stroke:#000000; stroke-linecap:round; stroke-linejoin:round; stroke-width:4; stroke-opacity:1; fill:none" points="1274.21,300.469 2282.86,300.469 2282.86,93.1086 1274.21,93.1086 1274.21,300.469 "/>
<polyline clip-path="url(#clip020)" style="stroke:#009af9; stroke-linecap:round; stroke-linejoin:round; stroke-width:4; stroke-opacity:1; fill:none" points="1297.51,144.949 1437.29,144.949 "/>
<path clip-path="url(#clip020)" d="M1465.26 131.511 L1465.26 158.386 L1470.91 158.386 Q1478.07 158.386 1481.38 155.145 Q1484.71 151.905 1484.71 144.914 Q1484.71 137.969 1481.38 134.752 Q1478.07 131.511 1470.91 131.511 L1465.26 131.511 M1460.59 127.669 L1470.19 127.669 Q1480.24 127.669 1484.94 131.858 Q1489.64 136.025 1489.64 144.914 Q1489.64 153.849 1484.92 158.039 Q1480.19 162.229 1470.19 162.229 L1460.59 162.229 L1460.59 127.669 Z" fill="#000000" fill-rule="nonzero" fill-opacity="1" /><path clip-path="url(#clip020)" d="M1508.69 149.196 Q1503.53 149.196 1501.54 150.377 Q1499.55 151.557 1499.55 154.405 Q1499.55 156.673 1501.03 158.016 Q1502.53 159.335 1505.1 159.335 Q1508.64 159.335 1510.77 156.835 Q1512.93 154.312 1512.93 150.145 L1512.93 149.196 L1508.69 149.196 M1517.19 147.437 L1517.19 162.229 L1512.93 162.229 L1512.93 158.293 Q1511.47 160.655 1509.29 161.789 Q1507.12 162.9 1503.97 162.9 Q1499.99 162.9 1497.63 160.678 Q1495.29 158.432 1495.29 154.682 Q1495.29 150.307 1498.2 148.085 Q1501.14 145.863 1506.95 145.863 L1512.93 145.863 L1512.93 145.446 Q1512.93 142.507 1510.98 140.909 Q1509.06 139.289 1505.57 139.289 Q1503.34 139.289 1501.24 139.821 Q1499.13 140.354 1497.19 141.419 L1497.19 137.483 Q1499.52 136.581 1501.72 136.141 Q1503.92 135.678 1506 135.678 Q1511.63 135.678 1514.41 138.594 Q1517.19 141.511 1517.19 147.437 Z" fill="#000000" fill-rule="nonzero" fill-opacity="1" /><path clip-path="url(#clip020)" d="M1530.17 128.942 L1530.17 136.303 L1538.94 136.303 L1538.94 139.613 L1530.17 139.613 L1530.17 153.687 Q1530.17 156.858 1531.03 157.761 Q1531.91 158.664 1534.57 158.664 L1538.94 158.664 L1538.94 162.229 L1534.57 162.229 Q1529.64 162.229 1527.76 160.4 Q1525.89 158.548 1525.89 153.687 L1525.89 139.613 L1522.76 139.613 L1522.76 136.303 L1525.89 136.303 L1525.89 128.942 L1530.17 128.942 Z" fill="#000000" fill-rule="nonzero" fill-opacity="1" /><path clip-path="url(#clip020)" d="M1556.33 149.196 Q1551.17 149.196 1549.18 150.377 Q1547.19 151.557 1547.19 154.405 Q1547.19 156.673 1548.67 158.016 Q1550.17 159.335 1552.74 159.335 Q1556.28 159.335 1558.41 156.835 Q1560.56 154.312 1560.56 150.145 L1560.56 149.196 L1556.33 149.196 M1564.82 147.437 L1564.82 162.229 L1560.56 162.229 L1560.56 158.293 Q1559.11 160.655 1556.93 161.789 Q1554.75 162.9 1551.61 162.9 Q1547.63 162.9 1545.26 160.678 Q1542.93 158.432 1542.93 154.682 Q1542.93 150.307 1545.84 148.085 Q1548.78 145.863 1554.59 145.863 L1560.56 145.863 L1560.56 145.446 Q1560.56 142.507 1558.62 140.909 Q1556.7 139.289 1553.2 139.289 Q1550.98 139.289 1548.88 139.821 Q1546.77 140.354 1544.82 141.419 L1544.82 137.483 Q1547.16 136.581 1549.36 136.141 Q1551.56 135.678 1553.64 135.678 Q1559.27 135.678 1562.05 138.594 Q1564.82 141.511 1564.82 147.437 Z" fill="#000000" fill-rule="nonzero" fill-opacity="1" /><polyline clip-path="url(#clip020)" style="stroke:#e26f46; stroke-linecap:round; stroke-linejoin:round; stroke-width:4; stroke-opacity:1; fill:none" points="1297.51,196.789 1437.29,196.789 "/>
<path clip-path="url(#clip020)" d="M1482.83 180.643 L1482.83 185.203 Q1480.17 183.93 1477.81 183.305 Q1475.45 182.68 1473.25 182.68 Q1469.43 182.68 1467.35 184.161 Q1465.29 185.643 1465.29 188.374 Q1465.29 190.666 1466.65 191.847 Q1468.04 193.004 1471.88 193.722 L1474.71 194.3 Q1479.94 195.296 1482.42 197.819 Q1484.92 200.319 1484.92 204.532 Q1484.92 209.555 1481.54 212.147 Q1478.18 214.74 1471.68 214.74 Q1469.22 214.74 1466.44 214.184 Q1463.69 213.629 1460.73 212.541 L1460.73 207.726 Q1463.57 209.323 1466.31 210.133 Q1469.04 210.944 1471.68 210.944 Q1475.68 210.944 1477.86 209.37 Q1480.03 207.796 1480.03 204.879 Q1480.03 202.333 1478.46 200.897 Q1476.91 199.462 1473.34 198.745 L1470.5 198.189 Q1465.26 197.147 1462.93 194.925 Q1460.59 192.703 1460.59 188.745 Q1460.59 184.161 1463.81 181.522 Q1467.05 178.884 1472.72 178.884 Q1475.15 178.884 1477.67 179.323 Q1480.19 179.763 1482.83 180.643 Z" fill="#000000" fill-rule="nonzero" fill-opacity="1" /><path clip-path="url(#clip020)" d="M1492.02 188.143 L1496.28 188.143 L1496.28 214.069 L1492.02 214.069 L1492.02 188.143 M1492.02 178.05 L1496.28 178.05 L1496.28 183.444 L1492.02 183.444 L1492.02 178.05 Z" fill="#000000" fill-rule="nonzero" fill-opacity="1" /><path clip-path="url(#clip020)" d="M1525.38 193.12 Q1526.98 190.249 1529.2 188.884 Q1531.42 187.518 1534.43 187.518 Q1538.48 187.518 1540.68 190.365 Q1542.88 193.189 1542.88 198.421 L1542.88 214.069 L1538.6 214.069 L1538.6 198.559 Q1538.6 194.833 1537.28 193.027 Q1535.96 191.222 1533.25 191.222 Q1529.94 191.222 1528.02 193.421 Q1526.1 195.62 1526.1 199.416 L1526.1 214.069 L1521.82 214.069 L1521.82 198.559 Q1521.82 194.809 1520.5 193.027 Q1519.18 191.222 1516.42 191.222 Q1513.16 191.222 1511.24 193.444 Q1509.32 195.643 1509.32 199.416 L1509.32 214.069 L1505.03 214.069 L1505.03 188.143 L1509.32 188.143 L1509.32 192.171 Q1510.77 189.786 1512.81 188.652 Q1514.85 187.518 1517.65 187.518 Q1520.47 187.518 1522.44 188.953 Q1524.43 190.388 1525.38 193.12 Z" fill="#000000" fill-rule="nonzero" fill-opacity="1" /><path clip-path="url(#clip020)" d="M1550.94 203.837 L1550.94 188.143 L1555.19 188.143 L1555.19 203.675 Q1555.19 207.356 1556.63 209.208 Q1558.06 211.036 1560.94 211.036 Q1564.38 211.036 1566.38 208.837 Q1568.39 206.638 1568.39 202.842 L1568.39 188.143 L1572.65 188.143 L1572.65 214.069 L1568.39 214.069 L1568.39 210.087 Q1566.84 212.448 1564.78 213.606 Q1562.74 214.74 1560.03 214.74 Q1555.56 214.74 1553.25 211.962 Q1550.94 209.184 1550.94 203.837 M1561.65 187.518 L1561.65 187.518 Z" fill="#000000" fill-rule="nonzero" fill-opacity="1" /><path clip-path="url(#clip020)" d="M1581.42 178.05 L1585.68 178.05 L1585.68 214.069 L1581.42 214.069 L1581.42 178.05 Z" fill="#000000" fill-rule="nonzero" fill-opacity="1" /><path clip-path="url(#clip020)" d="M1606.37 201.036 Q1601.21 201.036 1599.22 202.217 Q1597.23 203.397 1597.23 206.245 Q1597.23 208.513 1598.71 209.856 Q1600.22 211.175 1602.79 211.175 Q1606.33 211.175 1608.46 208.675 Q1610.61 206.152 1610.61 201.985 L1610.61 201.036 L1606.37 201.036 M1614.87 199.277 L1614.87 214.069 L1610.61 214.069 L1610.61 210.133 Q1609.15 212.495 1606.98 213.629 Q1604.8 214.74 1601.65 214.74 Q1597.67 214.74 1595.31 212.518 Q1592.97 210.272 1592.97 206.522 Q1592.97 202.147 1595.89 199.925 Q1598.83 197.703 1604.64 197.703 L1610.61 197.703 L1610.61 197.286 Q1610.61 194.347 1608.67 192.749 Q1606.75 191.129 1603.25 191.129 Q1601.03 191.129 1598.92 191.661 Q1596.81 192.194 1594.87 193.259 L1594.87 189.323 Q1597.21 188.421 1599.41 187.981 Q1601.61 187.518 1603.69 187.518 Q1609.31 187.518 1612.09 190.434 Q1614.87 193.351 1614.87 199.277 Z" fill="#000000" fill-rule="nonzero" fill-opacity="1" /><path clip-path="url(#clip020)" d="M1627.86 180.782 L1627.86 188.143 L1636.63 188.143 L1636.63 191.453 L1627.86 191.453 L1627.86 205.527 Q1627.86 208.698 1628.71 209.601 Q1629.59 210.504 1632.25 210.504 L1636.63 210.504 L1636.63 214.069 L1632.25 214.069 Q1627.32 214.069 1625.45 212.24 Q1623.57 210.388 1623.57 205.527 L1623.57 191.453 L1620.45 191.453 L1620.45 188.143 L1623.57 188.143 L1623.57 180.782 L1627.86 180.782 Z" fill="#000000" fill-rule="nonzero" fill-opacity="1" /><path clip-path="url(#clip020)" d="M1642.23 188.143 L1646.49 188.143 L1646.49 214.069 L1642.23 214.069 L1642.23 188.143 M1642.23 178.05 L1646.49 178.05 L1646.49 183.444 L1642.23 183.444 L1642.23 178.05 Z" fill="#000000" fill-rule="nonzero" fill-opacity="1" /><path clip-path="url(#clip020)" d="M1665.45 191.129 Q1662.02 191.129 1660.03 193.814 Q1658.04 196.476 1658.04 201.129 Q1658.04 205.782 1660.01 208.467 Q1662 211.129 1665.45 211.129 Q1668.85 211.129 1670.84 208.444 Q1672.83 205.758 1672.83 201.129 Q1672.83 196.522 1670.84 193.837 Q1668.85 191.129 1665.45 191.129 M1665.45 187.518 Q1671 187.518 1674.18 191.129 Q1677.35 194.74 1677.35 201.129 Q1677.35 207.495 1674.18 211.129 Q1671 214.74 1665.45 214.74 Q1659.87 214.74 1656.7 211.129 Q1653.55 207.495 1653.55 201.129 Q1653.55 194.74 1656.7 191.129 Q1659.87 187.518 1665.45 187.518 Z" fill="#000000" fill-rule="nonzero" fill-opacity="1" /><path clip-path="url(#clip020)" d="M1705.96 198.421 L1705.96 214.069 L1701.7 214.069 L1701.7 198.559 Q1701.7 194.879 1700.26 193.05 Q1698.83 191.222 1695.96 191.222 Q1692.51 191.222 1690.52 193.421 Q1688.53 195.62 1688.53 199.416 L1688.53 214.069 L1684.24 214.069 L1684.24 188.143 L1688.53 188.143 L1688.53 192.171 Q1690.05 189.833 1692.12 188.675 Q1694.2 187.518 1696.91 187.518 Q1701.37 187.518 1703.67 190.296 Q1705.96 193.05 1705.96 198.421 Z" fill="#000000" fill-rule="nonzero" fill-opacity="1" /><path clip-path="url(#clip020)" d="M1749.71 193.12 Q1751.3 190.249 1753.53 188.884 Q1755.75 187.518 1758.76 187.518 Q1762.81 187.518 1765.01 190.365 Q1767.21 193.189 1767.21 198.421 L1767.21 214.069 L1762.92 214.069 L1762.92 198.559 Q1762.92 194.833 1761.61 193.027 Q1760.29 191.222 1757.58 191.222 Q1754.27 191.222 1752.35 193.421 Q1750.42 195.62 1750.42 199.416 L1750.42 214.069 L1746.14 214.069 L1746.14 198.559 Q1746.14 194.809 1744.82 193.027 Q1743.5 191.222 1740.75 191.222 Q1737.49 191.222 1735.56 193.444 Q1733.64 195.643 1733.64 199.416 L1733.64 214.069 L1729.36 214.069 L1729.36 188.143 L1733.64 188.143 L1733.64 192.171 Q1735.1 189.786 1737.14 188.652 Q1739.18 187.518 1741.98 187.518 Q1744.8 187.518 1746.77 188.953 Q1748.76 190.388 1749.71 193.12 Z" fill="#000000" fill-rule="nonzero" fill-opacity="1" /><path clip-path="url(#clip020)" d="M1785.75 191.129 Q1782.32 191.129 1780.33 193.814 Q1778.34 196.476 1778.34 201.129 Q1778.34 205.782 1780.31 208.467 Q1782.3 211.129 1785.75 211.129 Q1789.15 211.129 1791.14 208.444 Q1793.13 205.758 1793.13 201.129 Q1793.13 196.522 1791.14 193.837 Q1789.15 191.129 1785.75 191.129 M1785.75 187.518 Q1791.3 187.518 1794.48 191.129 Q1797.65 194.74 1797.65 201.129 Q1797.65 207.495 1794.48 211.129 Q1791.3 214.74 1785.75 214.74 Q1780.17 214.74 1777 211.129 Q1773.85 207.495 1773.85 201.129 Q1773.85 194.74 1777 191.129 Q1780.17 187.518 1785.75 187.518 Z" fill="#000000" fill-rule="nonzero" fill-opacity="1" /><path clip-path="url(#clip020)" d="M1821.77 192.078 L1821.77 178.05 L1826.03 178.05 L1826.03 214.069 L1821.77 214.069 L1821.77 210.18 Q1820.42 212.495 1818.36 213.629 Q1816.33 214.74 1813.46 214.74 Q1808.76 214.74 1805.8 210.99 Q1802.86 207.24 1802.86 201.129 Q1802.86 195.018 1805.8 191.268 Q1808.76 187.518 1813.46 187.518 Q1816.33 187.518 1818.36 188.652 Q1820.42 189.763 1821.77 192.078 M1807.25 201.129 Q1807.25 205.828 1809.17 208.513 Q1811.12 211.175 1814.5 211.175 Q1817.88 211.175 1819.82 208.513 Q1821.77 205.828 1821.77 201.129 Q1821.77 196.43 1819.82 193.768 Q1817.88 191.083 1814.5 191.083 Q1811.12 191.083 1809.17 193.768 Q1807.25 196.43 1807.25 201.129 Z" fill="#000000" fill-rule="nonzero" fill-opacity="1" /><path clip-path="url(#clip020)" d="M1856.98 200.041 L1856.98 202.124 L1837.39 202.124 Q1837.67 206.522 1840.03 208.837 Q1842.42 211.129 1846.65 211.129 Q1849.1 211.129 1851.4 210.527 Q1853.71 209.925 1855.98 208.721 L1855.98 212.749 Q1853.69 213.721 1851.28 214.231 Q1848.87 214.74 1846.4 214.74 Q1840.19 214.74 1836.56 211.129 Q1832.95 207.518 1832.95 201.36 Q1832.95 194.995 1836.37 191.268 Q1839.82 187.518 1845.66 187.518 Q1850.89 187.518 1853.92 190.897 Q1856.98 194.254 1856.98 200.041 M1852.72 198.791 Q1852.67 195.296 1850.75 193.212 Q1848.85 191.129 1845.7 191.129 Q1842.14 191.129 1839.98 193.143 Q1837.86 195.157 1837.53 198.814 L1852.72 198.791 Z" fill="#000000" fill-rule="nonzero" fill-opacity="1" /><path clip-path="url(#clip020)" d="M1863.97 178.05 L1868.23 178.05 L1868.23 214.069 L1863.97 214.069 L1863.97 178.05 Z" fill="#000000" fill-rule="nonzero" fill-opacity="1" /><path clip-path="url(#clip020)" d="M1908.73 188.907 L1908.73 192.934 Q1906.93 192.009 1904.98 191.546 Q1903.04 191.083 1900.96 191.083 Q1897.79 191.083 1896.19 192.055 Q1894.61 193.027 1894.61 194.971 Q1894.61 196.453 1895.75 197.309 Q1896.88 198.143 1900.31 198.907 L1901.77 199.231 Q1906.3 200.203 1908.2 201.985 Q1910.12 203.745 1910.12 206.916 Q1910.12 210.527 1907.25 212.633 Q1904.41 214.74 1899.41 214.74 Q1897.32 214.74 1895.05 214.323 Q1892.81 213.93 1890.31 213.12 L1890.31 208.721 Q1892.67 209.948 1894.96 210.573 Q1897.25 211.175 1899.5 211.175 Q1902.51 211.175 1904.13 210.157 Q1905.75 209.115 1905.75 207.24 Q1905.75 205.504 1904.57 204.578 Q1903.41 203.652 1899.45 202.796 L1897.97 202.448 Q1894.01 201.615 1892.25 199.902 Q1890.49 198.166 1890.49 195.157 Q1890.49 191.499 1893.09 189.509 Q1895.68 187.518 1900.45 187.518 Q1902.81 187.518 1904.89 187.865 Q1906.98 188.212 1908.73 188.907 Z" fill="#000000" fill-rule="nonzero" fill-opacity="1" /><path clip-path="url(#clip020)" d="M1916.91 188.143 L1921.16 188.143 L1921.16 214.069 L1916.91 214.069 L1916.91 188.143 M1916.91 178.05 L1921.16 178.05 L1921.16 183.444 L1916.91 183.444 L1916.91 178.05 Z" fill="#000000" fill-rule="nonzero" fill-opacity="1" /><path clip-path="url(#clip020)" d="M1950.26 193.12 Q1951.86 190.249 1954.08 188.884 Q1956.3 187.518 1959.31 187.518 Q1963.36 187.518 1965.56 190.365 Q1967.76 193.189 1967.76 198.421 L1967.76 214.069 L1963.48 214.069 L1963.48 198.559 Q1963.48 194.833 1962.16 193.027 Q1960.84 191.222 1958.13 191.222 Q1954.82 191.222 1952.9 193.421 Q1950.98 195.62 1950.98 199.416 L1950.98 214.069 L1946.7 214.069 L1946.7 198.559 Q1946.7 194.809 1945.38 193.027 Q1944.06 191.222 1941.3 191.222 Q1938.04 191.222 1936.12 193.444 Q1934.2 195.643 1934.2 199.416 L1934.2 214.069 L1929.91 214.069 L1929.91 188.143 L1934.2 188.143 L1934.2 192.171 Q1935.66 189.786 1937.69 188.652 Q1939.73 187.518 1942.53 187.518 Q1945.35 187.518 1947.32 188.953 Q1949.31 190.388 1950.26 193.12 Z" fill="#000000" fill-rule="nonzero" fill-opacity="1" /><path clip-path="url(#clip020)" d="M2004.45 178.05 L2004.45 181.592 L2000.38 181.592 Q1998.09 181.592 1997.18 182.518 Q1996.3 183.444 1996.3 185.851 L1996.3 188.143 L2003.32 188.143 L2003.32 191.453 L1996.3 191.453 L1996.3 214.069 L1992.02 214.069 L1992.02 191.453 L1987.95 191.453 L1987.95 188.143 L1992.02 188.143 L1992.02 186.337 Q1992.02 182.009 1994.03 180.041 Q1996.05 178.05 2000.42 178.05 L2004.45 178.05 Z" fill="#000000" fill-rule="nonzero" fill-opacity="1" /><path clip-path="url(#clip020)" d="M2008.02 188.143 L2012.28 188.143 L2012.28 214.069 L2008.02 214.069 L2008.02 188.143 M2008.02 178.05 L2012.28 178.05 L2012.28 183.444 L2008.02 183.444 L2008.02 178.05 Z" fill="#000000" fill-rule="nonzero" fill-opacity="1" /><path clip-path="url(#clip020)" d="M2025.4 180.782 L2025.4 188.143 L2034.17 188.143 L2034.17 191.453 L2025.4 191.453 L2025.4 205.527 Q2025.4 208.698 2026.26 209.601 Q2027.14 210.504 2029.8 210.504 L2034.17 210.504 L2034.17 214.069 L2029.8 214.069 Q2024.87 214.069 2022.99 212.24 Q2021.12 210.388 2021.12 205.527 L2021.12 191.453 L2017.99 191.453 L2017.99 188.143 L2021.12 188.143 L2021.12 180.782 L2025.4 180.782 Z" fill="#000000" fill-rule="nonzero" fill-opacity="1" /><path clip-path="url(#clip020)" d="M2071 208.189 L2075.89 208.189 L2075.89 214.069 L2071 214.069 L2071 208.189 M2071 189.555 L2075.89 189.555 L2075.89 195.434 L2071 195.434 L2071 189.555 Z" fill="#000000" fill-rule="nonzero" fill-opacity="1" /><path clip-path="url(#clip020)" d="M2085.31 179.509 L2107.53 179.509 L2107.53 181.499 L2094.98 214.069 L2090.1 214.069 L2101.9 183.444 L2085.31 183.444 L2085.31 179.509 Z" fill="#000000" fill-rule="nonzero" fill-opacity="1" /><path clip-path="url(#clip020)" d="M2115.47 179.509 L2137.69 179.509 L2137.69 181.499 L2125.15 214.069 L2120.26 214.069 L2132.07 183.444 L2115.47 183.444 L2115.47 179.509 Z" fill="#000000" fill-rule="nonzero" fill-opacity="1" /><path clip-path="url(#clip020)" d="M2146.81 208.189 L2151.7 208.189 L2151.7 214.069 L2146.81 214.069 L2146.81 208.189 Z" fill="#000000" fill-rule="nonzero" fill-opacity="1" /><path clip-path="url(#clip020)" d="M2165.91 210.133 L2182.23 210.133 L2182.23 214.069 L2160.28 214.069 L2160.28 210.133 Q2162.95 207.379 2167.53 202.749 Q2172.14 198.096 2173.32 196.754 Q2175.56 194.231 2176.44 192.495 Q2177.34 190.735 2177.34 189.046 Q2177.34 186.291 2175.4 184.555 Q2173.48 182.819 2170.38 182.819 Q2168.18 182.819 2165.72 183.583 Q2163.29 184.347 2160.52 185.897 L2160.52 181.175 Q2163.34 180.041 2165.79 179.462 Q2168.25 178.884 2170.28 178.884 Q2175.65 178.884 2178.85 181.569 Q2182.04 184.254 2182.04 188.745 Q2182.04 190.874 2181.23 192.796 Q2180.45 194.694 2178.34 197.286 Q2177.76 197.958 2174.66 201.175 Q2171.56 204.37 2165.91 210.133 Z" fill="#000000" fill-rule="nonzero" fill-opacity="1" /><path clip-path="url(#clip020)" d="M2202.62 194.925 Q2199.47 194.925 2197.62 197.078 Q2195.79 199.231 2195.79 202.981 Q2195.79 206.708 2197.62 208.883 Q2199.47 211.036 2202.62 211.036 Q2205.77 211.036 2207.6 208.883 Q2209.45 206.708 2209.45 202.981 Q2209.45 199.231 2207.6 197.078 Q2205.77 194.925 2202.62 194.925 M2211.9 180.273 L2211.9 184.532 Q2210.14 183.698 2208.34 183.259 Q2206.56 182.819 2204.8 182.819 Q2200.17 182.819 2197.71 185.944 Q2195.28 189.069 2194.94 195.388 Q2196.3 193.374 2198.36 192.309 Q2200.42 191.222 2202.9 191.222 Q2208.11 191.222 2211.12 194.393 Q2214.15 197.541 2214.15 202.981 Q2214.15 208.305 2211 211.522 Q2207.85 214.74 2202.62 214.74 Q2196.63 214.74 2193.45 210.157 Q2190.28 205.55 2190.28 196.823 Q2190.28 188.629 2194.17 183.768 Q2198.06 178.884 2204.61 178.884 Q2206.37 178.884 2208.15 179.231 Q2209.96 179.578 2211.9 180.273 Z" fill="#000000" fill-rule="nonzero" fill-opacity="1" /><path clip-path="url(#clip020)" d="M2251.6 198.86 Q2249.59 198.86 2248.43 200.573 Q2247.3 202.286 2247.3 205.342 Q2247.3 208.351 2248.43 210.087 Q2249.59 211.8 2251.6 211.8 Q2253.57 211.8 2254.7 210.087 Q2255.86 208.351 2255.86 205.342 Q2255.86 202.309 2254.7 200.596 Q2253.57 198.86 2251.6 198.86 M2251.6 195.921 Q2255.26 195.921 2257.41 198.467 Q2259.57 201.013 2259.57 205.342 Q2259.57 209.67 2257.39 212.217 Q2255.24 214.74 2251.6 214.74 Q2247.9 214.74 2245.75 212.217 Q2243.59 209.67 2243.59 205.342 Q2243.59 200.99 2245.75 198.467 Q2247.92 195.921 2251.6 195.921 M2227.71 181.823 Q2225.72 181.823 2224.57 183.56 Q2223.43 185.272 2223.43 188.282 Q2223.43 191.337 2224.57 193.05 Q2225.7 194.763 2227.71 194.763 Q2229.73 194.763 2230.86 193.05 Q2232.02 191.337 2232.02 188.282 Q2232.02 185.296 2230.86 183.56 Q2229.7 181.823 2227.71 181.823 M2248.62 178.884 L2252.32 178.884 L2230.7 214.74 L2227 214.74 L2248.62 178.884 M2227.71 178.884 Q2231.37 178.884 2233.55 181.43 Q2235.72 183.953 2235.72 188.282 Q2235.72 192.657 2233.55 195.18 Q2231.39 197.703 2227.71 197.703 Q2224.03 197.703 2221.88 195.18 Q2219.75 192.634 2219.75 188.282 Q2219.75 183.976 2221.9 181.43 Q2224.06 178.884 2227.71 178.884 Z" fill="#000000" fill-rule="nonzero" fill-opacity="1" /><polyline clip-path="url(#clip020)" style="stroke:#3da44d; stroke-linecap:round; stroke-linejoin:round; stroke-width:4; stroke-opacity:1; fill:none" points="1297.51,248.629 1437.29,248.629 "/>
<path clip-path="url(#clip020)" d="M1465.26 235.191 L1465.26 248.177 L1471.14 248.177 Q1474.41 248.177 1476.19 246.487 Q1477.97 244.798 1477.97 241.673 Q1477.97 238.571 1476.19 236.881 Q1474.41 235.191 1471.14 235.191 L1465.26 235.191 M1460.59 231.349 L1471.14 231.349 Q1476.95 231.349 1479.92 233.987 Q1482.9 236.603 1482.9 241.673 Q1482.9 246.788 1479.92 249.404 Q1476.95 252.02 1471.14 252.02 L1465.26 252.02 L1465.26 265.909 L1460.59 265.909 L1460.59 231.349 Z" fill="#000000" fill-rule="nonzero" fill-opacity="1" /><path clip-path="url(#clip020)" d="M1503.18 243.964 Q1502.46 243.548 1501.61 243.362 Q1500.77 243.154 1499.75 243.154 Q1496.14 243.154 1494.2 245.515 Q1492.28 247.853 1492.28 252.251 L1492.28 265.909 L1488 265.909 L1488 239.983 L1492.28 239.983 L1492.28 244.011 Q1493.62 241.649 1495.77 240.515 Q1497.93 239.358 1501 239.358 Q1501.44 239.358 1501.98 239.427 Q1502.51 239.474 1503.16 239.589 L1503.18 243.964 Z" fill="#000000" fill-rule="nonzero" fill-opacity="1" /><path clip-path="url(#clip020)" d="M1528.78 251.881 L1528.78 253.964 L1509.2 253.964 Q1509.48 258.362 1511.84 260.677 Q1514.22 262.969 1518.46 262.969 Q1520.91 262.969 1523.2 262.367 Q1525.52 261.765 1527.79 260.561 L1527.79 264.589 Q1525.5 265.561 1523.09 266.071 Q1520.68 266.58 1518.2 266.58 Q1512 266.58 1508.37 262.969 Q1504.75 259.358 1504.75 253.2 Q1504.75 246.835 1508.18 243.108 Q1511.63 239.358 1517.46 239.358 Q1522.69 239.358 1525.73 242.737 Q1528.78 246.094 1528.78 251.881 M1524.52 250.631 Q1524.48 247.136 1522.56 245.052 Q1520.66 242.969 1517.51 242.969 Q1513.94 242.969 1511.79 244.983 Q1509.66 246.997 1509.34 250.654 L1524.52 250.631 Z" fill="#000000" fill-rule="nonzero" fill-opacity="1" /><path clip-path="url(#clip020)" d="M1552.83 243.918 L1552.83 229.89 L1557.09 229.89 L1557.09 265.909 L1552.83 265.909 L1552.83 262.02 Q1551.49 264.335 1549.43 265.469 Q1547.39 266.58 1544.52 266.58 Q1539.82 266.58 1536.86 262.83 Q1533.92 259.08 1533.92 252.969 Q1533.92 246.858 1536.86 243.108 Q1539.82 239.358 1544.52 239.358 Q1547.39 239.358 1549.43 240.492 Q1551.49 241.603 1552.83 243.918 M1538.32 252.969 Q1538.32 257.668 1540.24 260.353 Q1542.19 263.015 1545.56 263.015 Q1548.94 263.015 1550.89 260.353 Q1552.83 257.668 1552.83 252.969 Q1552.83 248.27 1550.89 245.608 Q1548.94 242.923 1545.56 242.923 Q1542.19 242.923 1540.24 245.608 Q1538.32 248.27 1538.32 252.969 Z" fill="#000000" fill-rule="nonzero" fill-opacity="1" /><path clip-path="url(#clip020)" d="M1565.87 239.983 L1570.12 239.983 L1570.12 265.909 L1565.87 265.909 L1565.87 239.983 M1565.87 229.89 L1570.12 229.89 L1570.12 235.284 L1565.87 235.284 L1565.87 229.89 Z" fill="#000000" fill-rule="nonzero" fill-opacity="1" /><path clip-path="url(#clip020)" d="M1597.69 240.978 L1597.69 244.96 Q1595.89 243.964 1594.06 243.478 Q1592.25 242.969 1590.4 242.969 Q1586.26 242.969 1583.97 245.608 Q1581.68 248.224 1581.68 252.969 Q1581.68 257.714 1583.97 260.353 Q1586.26 262.969 1590.4 262.969 Q1592.25 262.969 1594.06 262.483 Q1595.89 261.973 1597.69 260.978 L1597.69 264.913 Q1595.91 265.747 1593.99 266.163 Q1592.09 266.58 1589.94 266.58 Q1584.08 266.58 1580.63 262.899 Q1577.19 259.219 1577.19 252.969 Q1577.19 246.626 1580.66 242.992 Q1584.15 239.358 1590.22 239.358 Q1592.19 239.358 1594.06 239.775 Q1595.94 240.168 1597.69 240.978 Z" fill="#000000" fill-rule="nonzero" fill-opacity="1" /><path clip-path="url(#clip020)" d="M1609.31 232.622 L1609.31 239.983 L1618.09 239.983 L1618.09 243.293 L1609.31 243.293 L1609.31 257.367 Q1609.31 260.538 1610.17 261.441 Q1611.05 262.344 1613.71 262.344 L1618.09 262.344 L1618.09 265.909 L1613.71 265.909 Q1608.78 265.909 1606.91 264.08 Q1605.03 262.228 1605.03 257.367 L1605.03 243.293 L1601.91 243.293 L1601.91 239.983 L1605.03 239.983 L1605.03 232.622 L1609.31 232.622 Z" fill="#000000" fill-rule="nonzero" fill-opacity="1" /><path clip-path="url(#clip020)" d="M1623.69 239.983 L1627.95 239.983 L1627.95 265.909 L1623.69 265.909 L1623.69 239.983 M1623.69 229.89 L1627.95 229.89 L1627.95 235.284 L1623.69 235.284 L1623.69 229.89 Z" fill="#000000" fill-rule="nonzero" fill-opacity="1" /><path clip-path="url(#clip020)" d="M1646.91 242.969 Q1643.48 242.969 1641.49 245.654 Q1639.5 248.316 1639.5 252.969 Q1639.5 257.622 1641.47 260.307 Q1643.46 262.969 1646.91 262.969 Q1650.31 262.969 1652.3 260.284 Q1654.29 257.598 1654.29 252.969 Q1654.29 248.362 1652.3 245.677 Q1650.31 242.969 1646.91 242.969 M1646.91 239.358 Q1652.46 239.358 1655.63 242.969 Q1658.81 246.58 1658.81 252.969 Q1658.81 259.335 1655.63 262.969 Q1652.46 266.58 1646.91 266.58 Q1641.33 266.58 1638.16 262.969 Q1635.01 259.335 1635.01 252.969 Q1635.01 246.58 1638.16 242.969 Q1641.33 239.358 1646.91 239.358 Z" fill="#000000" fill-rule="nonzero" fill-opacity="1" /><path clip-path="url(#clip020)" d="M1687.42 250.261 L1687.42 265.909 L1683.16 265.909 L1683.16 250.399 Q1683.16 246.719 1681.72 244.89 Q1680.29 243.062 1677.42 243.062 Q1673.97 243.062 1671.98 245.261 Q1669.99 247.46 1669.99 251.256 L1669.99 265.909 L1665.7 265.909 L1665.7 239.983 L1669.99 239.983 L1669.99 244.011 Q1671.51 241.673 1673.57 240.515 Q1675.66 239.358 1678.37 239.358 Q1682.83 239.358 1685.12 242.136 Q1687.42 244.89 1687.42 250.261 Z" fill="#000000" fill-rule="nonzero" fill-opacity="1" /><path clip-path="url(#clip020)" d="M1731.17 244.96 Q1732.76 242.089 1734.99 240.724 Q1737.21 239.358 1740.22 239.358 Q1744.27 239.358 1746.47 242.205 Q1748.67 245.029 1748.67 250.261 L1748.67 265.909 L1744.38 265.909 L1744.38 250.399 Q1744.38 246.673 1743.06 244.867 Q1741.74 243.062 1739.04 243.062 Q1735.73 243.062 1733.8 245.261 Q1731.88 247.46 1731.88 251.256 L1731.88 265.909 L1727.6 265.909 L1727.6 250.399 Q1727.6 246.649 1726.28 244.867 Q1724.96 243.062 1722.21 243.062 Q1718.94 243.062 1717.02 245.284 Q1715.1 247.483 1715.1 251.256 L1715.1 265.909 L1710.82 265.909 L1710.82 239.983 L1715.1 239.983 L1715.1 244.011 Q1716.56 241.626 1718.6 240.492 Q1720.63 239.358 1723.43 239.358 Q1726.26 239.358 1728.23 240.793 Q1730.22 242.228 1731.17 244.96 Z" fill="#000000" fill-rule="nonzero" fill-opacity="1" /><path clip-path="url(#clip020)" d="M1767.21 242.969 Q1763.78 242.969 1761.79 245.654 Q1759.8 248.316 1759.8 252.969 Q1759.8 257.622 1761.77 260.307 Q1763.76 262.969 1767.21 262.969 Q1770.61 262.969 1772.6 260.284 Q1774.59 257.598 1774.59 252.969 Q1774.59 248.362 1772.6 245.677 Q1770.61 242.969 1767.21 242.969 M1767.21 239.358 Q1772.76 239.358 1775.93 242.969 Q1779.11 246.58 1779.11 252.969 Q1779.11 259.335 1775.93 262.969 Q1772.76 266.58 1767.21 266.58 Q1761.63 266.58 1758.46 262.969 Q1755.31 259.335 1755.31 252.969 Q1755.31 246.58 1758.46 242.969 Q1761.63 239.358 1767.21 239.358 Z" fill="#000000" fill-rule="nonzero" fill-opacity="1" /><path clip-path="url(#clip020)" d="M1803.23 243.918 L1803.23 229.89 L1807.48 229.89 L1807.48 265.909 L1803.23 265.909 L1803.23 262.02 Q1801.88 264.335 1799.82 265.469 Q1797.79 266.58 1794.92 266.58 Q1790.22 266.58 1787.25 262.83 Q1784.31 259.08 1784.31 252.969 Q1784.31 246.858 1787.25 243.108 Q1790.22 239.358 1794.92 239.358 Q1797.79 239.358 1799.82 240.492 Q1801.88 241.603 1803.23 243.918 M1788.71 252.969 Q1788.71 257.668 1790.63 260.353 Q1792.58 263.015 1795.96 263.015 Q1799.34 263.015 1801.28 260.353 Q1803.23 257.668 1803.23 252.969 Q1803.23 248.27 1801.28 245.608 Q1799.34 242.923 1795.96 242.923 Q1792.58 242.923 1790.63 245.608 Q1788.71 248.27 1788.71 252.969 Z" fill="#000000" fill-rule="nonzero" fill-opacity="1" /><path clip-path="url(#clip020)" d="M1838.43 251.881 L1838.43 253.964 L1818.85 253.964 Q1819.13 258.362 1821.49 260.677 Q1823.87 262.969 1828.11 262.969 Q1830.56 262.969 1832.86 262.367 Q1835.17 261.765 1837.44 260.561 L1837.44 264.589 Q1835.15 265.561 1832.74 266.071 Q1830.33 266.58 1827.86 266.58 Q1821.65 266.58 1818.02 262.969 Q1814.41 259.358 1814.41 253.2 Q1814.41 246.835 1817.83 243.108 Q1821.28 239.358 1827.11 239.358 Q1832.35 239.358 1835.38 242.737 Q1838.43 246.094 1838.43 251.881 M1834.17 250.631 Q1834.13 247.136 1832.21 245.052 Q1830.31 242.969 1827.16 242.969 Q1823.6 242.969 1821.44 244.983 Q1819.31 246.997 1818.99 250.654 L1834.17 250.631 Z" fill="#000000" fill-rule="nonzero" fill-opacity="1" /><path clip-path="url(#clip020)" d="M1845.42 229.89 L1849.68 229.89 L1849.68 265.909 L1845.42 265.909 L1845.42 229.89 Z" fill="#000000" fill-rule="nonzero" fill-opacity="1" /><path clip-path="url(#clip020)" d="M1890.19 240.747 L1890.19 244.774 Q1888.39 243.849 1886.44 243.386 Q1884.5 242.923 1882.41 242.923 Q1879.24 242.923 1877.65 243.895 Q1876.07 244.867 1876.07 246.811 Q1876.07 248.293 1877.21 249.149 Q1878.34 249.983 1881.77 250.747 L1883.23 251.071 Q1887.76 252.043 1889.66 253.825 Q1891.58 255.585 1891.58 258.756 Q1891.58 262.367 1888.71 264.473 Q1885.86 266.58 1880.86 266.58 Q1878.78 266.58 1876.51 266.163 Q1874.27 265.77 1871.77 264.96 L1871.77 260.561 Q1874.13 261.788 1876.42 262.413 Q1878.71 263.015 1880.96 263.015 Q1883.97 263.015 1885.59 261.997 Q1887.21 260.955 1887.21 259.08 Q1887.21 257.344 1886.03 256.418 Q1884.87 255.492 1880.91 254.636 L1879.43 254.288 Q1875.47 253.455 1873.71 251.742 Q1871.95 250.006 1871.95 246.997 Q1871.95 243.339 1874.54 241.349 Q1877.14 239.358 1881.91 239.358 Q1884.27 239.358 1886.35 239.705 Q1888.43 240.052 1890.19 240.747 Z" fill="#000000" fill-rule="nonzero" fill-opacity="1" /><path clip-path="url(#clip020)" d="M1898.36 239.983 L1902.62 239.983 L1902.62 265.909 L1898.36 265.909 L1898.36 239.983 M1898.36 229.89 L1902.62 229.89 L1902.62 235.284 L1898.36 235.284 L1898.36 229.89 Z" fill="#000000" fill-rule="nonzero" fill-opacity="1" /><path clip-path="url(#clip020)" d="M1931.72 244.96 Q1933.32 242.089 1935.54 240.724 Q1937.76 239.358 1940.77 239.358 Q1944.82 239.358 1947.02 242.205 Q1949.22 245.029 1949.22 250.261 L1949.22 265.909 L1944.94 265.909 L1944.94 250.399 Q1944.94 246.673 1943.62 244.867 Q1942.3 243.062 1939.59 243.062 Q1936.28 243.062 1934.36 245.261 Q1932.44 247.46 1932.44 251.256 L1932.44 265.909 L1928.16 265.909 L1928.16 250.399 Q1928.16 246.649 1926.84 244.867 Q1925.52 243.062 1922.76 243.062 Q1919.5 243.062 1917.58 245.284 Q1915.66 247.483 1915.66 251.256 L1915.66 265.909 L1911.37 265.909 L1911.37 239.983 L1915.66 239.983 L1915.66 244.011 Q1917.11 241.626 1919.15 240.492 Q1921.19 239.358 1923.99 239.358 Q1926.81 239.358 1928.78 240.793 Q1930.77 242.228 1931.72 244.96 Z" fill="#000000" fill-rule="nonzero" fill-opacity="1" /><path clip-path="url(#clip020)" d="M1985.91 229.89 L1985.91 233.432 L1981.84 233.432 Q1979.54 233.432 1978.64 234.358 Q1977.76 235.284 1977.76 237.691 L1977.76 239.983 L1984.78 239.983 L1984.78 243.293 L1977.76 243.293 L1977.76 265.909 L1973.48 265.909 L1973.48 243.293 L1969.41 243.293 L1969.41 239.983 L1973.48 239.983 L1973.48 238.177 Q1973.48 233.849 1975.49 231.881 Q1977.51 229.89 1981.88 229.89 L1985.91 229.89 Z" fill="#000000" fill-rule="nonzero" fill-opacity="1" /><path clip-path="url(#clip020)" d="M1989.47 239.983 L1993.73 239.983 L1993.73 265.909 L1989.47 265.909 L1989.47 239.983 M1989.47 229.89 L1993.73 229.89 L1993.73 235.284 L1989.47 235.284 L1989.47 229.89 Z" fill="#000000" fill-rule="nonzero" fill-opacity="1" /><path clip-path="url(#clip020)" d="M2006.86 232.622 L2006.86 239.983 L2015.63 239.983 L2015.63 243.293 L2006.86 243.293 L2006.86 257.367 Q2006.86 260.538 2007.72 261.441 Q2008.59 262.344 2011.26 262.344 L2015.63 262.344 L2015.63 265.909 L2011.26 265.909 Q2006.33 265.909 2004.45 264.08 Q2002.58 262.228 2002.58 257.367 L2002.58 243.293 L1999.45 243.293 L1999.45 239.983 L2002.58 239.983 L2002.58 232.622 L2006.86 232.622 Z" fill="#000000" fill-rule="nonzero" fill-opacity="1" /><path clip-path="url(#clip020)" d="M2052.46 260.029 L2057.34 260.029 L2057.34 265.909 L2052.46 265.909 L2052.46 260.029 M2052.46 241.395 L2057.34 241.395 L2057.34 247.274 L2052.46 247.274 L2052.46 241.395 Z" fill="#000000" fill-rule="nonzero" fill-opacity="1" /><path clip-path="url(#clip020)" d="M2066.77 231.349 L2088.99 231.349 L2088.99 233.339 L2076.44 265.909 L2071.56 265.909 L2083.36 235.284 L2066.77 235.284 L2066.77 231.349 Z" fill="#000000" fill-rule="nonzero" fill-opacity="1" /><path clip-path="url(#clip020)" d="M2098.15 231.349 L2116.51 231.349 L2116.51 235.284 L2102.44 235.284 L2102.44 243.756 Q2103.46 243.409 2104.47 243.247 Q2105.49 243.062 2106.51 243.062 Q2112.3 243.062 2115.68 246.233 Q2119.06 249.404 2119.06 254.821 Q2119.06 260.399 2115.59 263.501 Q2112.11 266.58 2105.79 266.58 Q2103.62 266.58 2101.35 266.21 Q2099.1 265.839 2096.7 265.098 L2096.7 260.399 Q2098.78 261.534 2101 262.089 Q2103.22 262.645 2105.7 262.645 Q2109.71 262.645 2112.04 260.538 Q2114.38 258.432 2114.38 254.821 Q2114.38 251.21 2112.04 249.103 Q2109.71 246.997 2105.7 246.997 Q2103.83 246.997 2101.95 247.413 Q2100.1 247.83 2098.15 248.71 L2098.15 231.349 Z" fill="#000000" fill-rule="nonzero" fill-opacity="1" /><path clip-path="url(#clip020)" d="M2128.27 260.029 L2133.15 260.029 L2133.15 265.909 L2128.27 265.909 L2128.27 260.029 Z" fill="#000000" fill-rule="nonzero" fill-opacity="1" /><path clip-path="url(#clip020)" d="M2153.34 249.497 Q2150.01 249.497 2148.08 251.279 Q2146.19 253.061 2146.19 256.186 Q2146.19 259.311 2148.08 261.094 Q2150.01 262.876 2153.34 262.876 Q2156.67 262.876 2158.59 261.094 Q2160.52 259.288 2160.52 256.186 Q2160.52 253.061 2158.59 251.279 Q2156.7 249.497 2153.34 249.497 M2148.66 247.506 Q2145.65 246.765 2143.96 244.705 Q2142.3 242.645 2142.3 239.682 Q2142.3 235.538 2145.24 233.131 Q2148.2 230.724 2153.34 230.724 Q2158.5 230.724 2161.44 233.131 Q2164.38 235.538 2164.38 239.682 Q2164.38 242.645 2162.69 244.705 Q2161.02 246.765 2158.04 247.506 Q2161.42 248.293 2163.29 250.585 Q2165.19 252.876 2165.19 256.186 Q2165.19 261.21 2162.11 263.895 Q2159.06 266.58 2153.34 266.58 Q2147.62 266.58 2144.54 263.895 Q2141.49 261.21 2141.49 256.186 Q2141.49 252.876 2143.39 250.585 Q2145.28 248.293 2148.66 247.506 M2146.95 240.122 Q2146.95 242.807 2148.62 244.312 Q2150.31 245.816 2153.34 245.816 Q2156.35 245.816 2158.04 244.312 Q2159.75 242.807 2159.75 240.122 Q2159.75 237.437 2158.04 235.932 Q2156.35 234.427 2153.34 234.427 Q2150.31 234.427 2148.62 235.932 Q2146.95 237.437 2146.95 240.122 Z" fill="#000000" fill-rule="nonzero" fill-opacity="1" /><path clip-path="url(#clip020)" d="M2177.53 261.973 L2193.85 261.973 L2193.85 265.909 L2171.9 265.909 L2171.9 261.973 Q2174.57 259.219 2179.15 254.589 Q2183.76 249.936 2184.94 248.594 Q2187.18 246.071 2188.06 244.335 Q2188.96 242.575 2188.96 240.886 Q2188.96 238.131 2187.02 236.395 Q2185.1 234.659 2182 234.659 Q2179.8 234.659 2177.34 235.423 Q2174.91 236.187 2172.14 237.737 L2172.14 233.015 Q2174.96 231.881 2177.41 231.302 Q2179.87 230.724 2181.9 230.724 Q2187.27 230.724 2190.47 233.409 Q2193.66 236.094 2193.66 240.585 Q2193.66 242.714 2192.85 244.636 Q2192.07 246.534 2189.96 249.126 Q2189.38 249.798 2186.28 253.015 Q2183.18 256.21 2177.53 261.973 Z" fill="#000000" fill-rule="nonzero" fill-opacity="1" /><path clip-path="url(#clip020)" d="M2233.06 250.7 Q2231.05 250.7 2229.89 252.413 Q2228.76 254.126 2228.76 257.182 Q2228.76 260.191 2229.89 261.927 Q2231.05 263.64 2233.06 263.64 Q2235.03 263.64 2236.16 261.927 Q2237.32 260.191 2237.32 257.182 Q2237.32 254.149 2236.16 252.436 Q2235.03 250.7 2233.06 250.7 M2233.06 247.761 Q2236.72 247.761 2238.87 250.307 Q2241.02 252.853 2241.02 257.182 Q2241.02 261.51 2238.85 264.057 Q2236.7 266.58 2233.06 266.58 Q2229.36 266.58 2227.2 264.057 Q2225.05 261.51 2225.05 257.182 Q2225.05 252.83 2227.2 250.307 Q2229.38 247.761 2233.06 247.761 M2209.17 233.663 Q2207.18 233.663 2206.02 235.4 Q2204.89 237.112 2204.89 240.122 Q2204.89 243.177 2206.02 244.89 Q2207.16 246.603 2209.17 246.603 Q2211.19 246.603 2212.32 244.89 Q2213.48 243.177 2213.48 240.122 Q2213.48 237.136 2212.32 235.4 Q2211.16 233.663 2209.17 233.663 M2230.08 230.724 L2233.78 230.724 L2212.16 266.58 L2208.45 266.58 L2230.08 230.724 M2209.17 230.724 Q2212.83 230.724 2215.01 233.27 Q2217.18 235.793 2217.18 240.122 Q2217.18 244.497 2215.01 247.02 Q2212.85 249.543 2209.17 249.543 Q2205.49 249.543 2203.34 247.02 Q2201.21 244.474 2201.21 240.122 Q2201.21 235.816 2203.36 233.27 Q2205.52 230.724 2209.17 230.724 Z" fill="#000000" fill-rule="nonzero" fill-opacity="1" /></svg>
