<?xml version="1.0" encoding="utf-8"?>
<svg xmlns="http://www.w3.org/2000/svg" xmlns:xlink="http://www.w3.org/1999/xlink" width="600" height="400" viewBox="0 0 2400 1600">
<defs>
  <clipPath id="clip870">
    <rect x="0" y="0" width="2400" height="1600"/>
  </clipPath>
</defs>
<path clip-path="url(#clip870)" d="M0 1600 L2400 1600 L2400 0 L0 0  Z" fill="#ffffff" fill-rule="evenodd" fill-opacity="1"/>
<defs>
  <clipPath id="clip871">
    <rect x="480" y="0" width="1681" height="1600"/>
  </clipPath>
</defs>
<path clip-path="url(#clip870)" d="M257.204 623.18 L2352.76 623.18 L2352.76 47.2441 L257.204 47.2441  Z" fill="#ffffff" fill-rule="evenodd" fill-opacity="1"/>
<defs>
  <clipPath id="clip872">
    <rect x="257" y="47" width="2097" height="577"/>
  </clipPath>
</defs>
<polyline clip-path="url(#clip872)" style="stroke:#000000; stroke-linecap:round; stroke-linejoin:round; stroke-width:2; stroke-opacity:0.1; fill:none" points="316.512,623.18 316.512,47.2441 "/>
<polyline clip-path="url(#clip872)" style="stroke:#000000; stroke-linecap:round; stroke-linejoin:round; stroke-width:2; stroke-opacity:0.1; fill:none" points="712.692,623.18 712.692,47.2441 "/>
<polyline clip-path="url(#clip872)" style="stroke:#000000; stroke-linecap:round; stroke-linejoin:round; stroke-width:2; stroke-opacity:0.1; fill:none" points="1108.87,623.18 1108.87,47.2441 "/>
<polyline clip-path="url(#clip872)" style="stroke:#000000; stroke-linecap:round; stroke-linejoin:round; stroke-width:2; stroke-opacity:0.1; fill:none" points="1505.05,623.18 1505.05,47.2441 "/>
<polyline clip-path="url(#clip872)" style="stroke:#000000; stroke-linecap:round; stroke-linejoin:round; stroke-width:2; stroke-opacity:0.1; fill:none" points="1901.23,623.18 1901.23,47.2441 "/>
<polyline clip-path="url(#clip872)" style="stroke:#000000; stroke-linecap:round; stroke-linejoin:round; stroke-width:2; stroke-opacity:0.1; fill:none" points="2297.41,623.18 2297.41,47.2441 "/>
<polyline clip-path="url(#clip872)" style="stroke:#000000; stroke-linecap:round; stroke-linejoin:round; stroke-width:2; stroke-opacity:0.1; fill:none" points="257.204,599.659 2352.76,599.659 "/>
<polyline clip-path="url(#clip872)" style="stroke:#000000; stroke-linecap:round; stroke-linejoin:round; stroke-width:2; stroke-opacity:0.1; fill:none" points="257.204,457.432 2352.76,457.432 "/>
<polyline clip-path="url(#clip872)" style="stroke:#000000; stroke-linecap:round; stroke-linejoin:round; stroke-width:2; stroke-opacity:0.1; fill:none" points="257.204,315.205 2352.76,315.205 "/>
<polyline clip-path="url(#clip872)" style="stroke:#000000; stroke-linecap:round; stroke-linejoin:round; stroke-width:2; stroke-opacity:0.1; fill:none" points="257.204,172.979 2352.76,172.979 "/>
<polyline clip-path="url(#clip870)" style="stroke:#000000; stroke-linecap:round; stroke-linejoin:round; stroke-width:4; stroke-opacity:1; fill:none" points="257.204,623.18 2352.76,623.18 "/>
<polyline clip-path="url(#clip870)" style="stroke:#000000; stroke-linecap:round; stroke-linejoin:round; stroke-width:4; stroke-opacity:1; fill:none" points="316.512,623.18 316.512,604.282 "/>
<polyline clip-path="url(#clip870)" style="stroke:#000000; stroke-linecap:round; stroke-linejoin:round; stroke-width:4; stroke-opacity:1; fill:none" points="712.692,623.18 712.692,604.282 "/>
<polyline clip-path="url(#clip870)" style="stroke:#000000; stroke-linecap:round; stroke-linejoin:round; stroke-width:4; stroke-opacity:1; fill:none" points="1108.87,623.18 1108.87,604.282 "/>
<polyline clip-path="url(#clip870)" style="stroke:#000000; stroke-linecap:round; stroke-linejoin:round; stroke-width:4; stroke-opacity:1; fill:none" points="1505.05,623.18 1505.05,604.282 "/>
<polyline clip-path="url(#clip870)" style="stroke:#000000; stroke-linecap:round; stroke-linejoin:round; stroke-width:4; stroke-opacity:1; fill:none" points="1901.23,623.18 1901.23,604.282 "/>
<polyline clip-path="url(#clip870)" style="stroke:#000000; stroke-linecap:round; stroke-linejoin:round; stroke-width:4; stroke-opacity:1; fill:none" points="2297.41,623.18 2297.41,604.282 "/>
<path clip-path="url(#clip870)" d="M316.512 654.099 Q312.901 654.099 311.072 657.663 Q309.267 661.205 309.267 668.335 Q309.267 675.441 311.072 679.006 Q312.901 682.547 316.512 682.547 Q320.146 682.547 321.952 679.006 Q323.781 675.441 323.781 668.335 Q323.781 661.205 321.952 657.663 Q320.146 654.099 316.512 654.099 M316.512 650.395 Q322.322 650.395 325.378 655.001 Q328.456 659.585 328.456 668.335 Q328.456 677.061 325.378 681.668 Q322.322 686.251 316.512 686.251 Q310.702 686.251 307.623 681.668 Q304.568 677.061 304.568 668.335 Q304.568 659.585 307.623 655.001 Q310.702 650.395 316.512 650.395 Z" fill="#000000" fill-rule="nonzero" fill-opacity="1" /><path clip-path="url(#clip870)" d="M703.074 681.645 L710.712 681.645 L710.712 655.279 L702.402 656.946 L702.402 652.687 L710.666 651.02 L715.342 651.02 L715.342 681.645 L722.981 681.645 L722.981 685.58 L703.074 685.58 L703.074 681.645 Z" fill="#000000" fill-rule="nonzero" fill-opacity="1" /><path clip-path="url(#clip870)" d="M1103.52 681.645 L1119.84 681.645 L1119.84 685.58 L1097.9 685.58 L1097.9 681.645 Q1100.56 678.89 1105.14 674.26 Q1109.75 669.608 1110.93 668.265 Q1113.18 665.742 1114.06 664.006 Q1114.96 662.247 1114.96 660.557 Q1114.96 657.802 1113.01 656.066 Q1111.09 654.33 1107.99 654.33 Q1105.79 654.33 1103.34 655.094 Q1100.91 655.858 1098.13 657.409 L1098.13 652.687 Q1100.95 651.552 1103.41 650.974 Q1105.86 650.395 1107.9 650.395 Q1113.27 650.395 1116.46 653.08 Q1119.66 655.765 1119.66 660.256 Q1119.66 662.386 1118.85 664.307 Q1118.06 666.205 1115.95 668.798 Q1115.38 669.469 1112.27 672.686 Q1109.17 675.881 1103.52 681.645 Z" fill="#000000" fill-rule="nonzero" fill-opacity="1" /><path clip-path="url(#clip870)" d="M1509.3 666.946 Q1512.65 667.663 1514.53 669.932 Q1516.43 672.2 1516.43 675.534 Q1516.43 680.649 1512.91 683.45 Q1509.39 686.251 1502.91 686.251 Q1500.73 686.251 1498.42 685.811 Q1496.13 685.395 1493.67 684.538 L1493.67 680.024 Q1495.62 681.159 1497.93 681.737 Q1500.25 682.316 1502.77 682.316 Q1507.17 682.316 1509.46 680.58 Q1511.78 678.844 1511.78 675.534 Q1511.78 672.478 1509.62 670.765 Q1507.49 669.029 1503.67 669.029 L1499.65 669.029 L1499.65 665.186 L1503.86 665.186 Q1507.31 665.186 1509.14 663.821 Q1510.96 662.432 1510.96 659.839 Q1510.96 657.177 1509.07 655.765 Q1507.19 654.33 1503.67 654.33 Q1501.75 654.33 1499.55 654.747 Q1497.35 655.163 1494.72 656.043 L1494.72 651.876 Q1497.38 651.136 1499.69 650.765 Q1502.03 650.395 1504.09 650.395 Q1509.41 650.395 1512.52 652.825 Q1515.62 655.233 1515.62 659.353 Q1515.62 662.223 1513.97 664.214 Q1512.33 666.182 1509.3 666.946 Z" fill="#000000" fill-rule="nonzero" fill-opacity="1" /><path clip-path="url(#clip870)" d="M1904.24 655.094 L1892.43 673.543 L1904.24 673.543 L1904.24 655.094 M1903.01 651.02 L1908.89 651.02 L1908.89 673.543 L1913.82 673.543 L1913.82 677.432 L1908.89 677.432 L1908.89 685.58 L1904.24 685.58 L1904.24 677.432 L1888.64 677.432 L1888.64 672.918 L1903.01 651.02 Z" fill="#000000" fill-rule="nonzero" fill-opacity="1" /><path clip-path="url(#clip870)" d="M2287.69 651.02 L2306.04 651.02 L2306.04 654.955 L2291.97 654.955 L2291.97 663.427 Q2292.99 663.08 2294.01 662.918 Q2295.03 662.733 2296.04 662.733 Q2301.83 662.733 2305.21 665.904 Q2308.59 669.075 2308.59 674.492 Q2308.59 680.071 2305.12 683.172 Q2301.65 686.251 2295.33 686.251 Q2293.15 686.251 2290.88 685.881 Q2288.64 685.51 2286.23 684.77 L2286.23 680.071 Q2288.31 681.205 2290.53 681.76 Q2292.76 682.316 2295.23 682.316 Q2299.24 682.316 2301.58 680.21 Q2303.91 678.103 2303.91 674.492 Q2303.91 670.881 2301.58 668.774 Q2299.24 666.668 2295.23 666.668 Q2293.36 666.668 2291.48 667.085 Q2289.63 667.501 2287.69 668.381 L2287.69 651.02 Z" fill="#000000" fill-rule="nonzero" fill-opacity="1" /><path clip-path="url(#clip870)" d="M1175.15 720.524 L1215.35 720.524 L1215.35 725.935 L1198.48 725.935 L1198.48 768.044 L1192.02 768.044 L1192.02 725.935 L1175.15 725.935 L1175.15 720.524 Z" fill="#000000" fill-rule="nonzero" fill-opacity="1" /><path clip-path="url(#clip870)" d="M1219.3 732.396 L1225.15 732.396 L1225.15 768.044 L1219.3 768.044 L1219.3 732.396 M1219.3 718.519 L1225.15 718.519 L1225.15 725.935 L1219.3 725.935 L1219.3 718.519 Z" fill="#000000" fill-rule="nonzero" fill-opacity="1" /><path clip-path="url(#clip870)" d="M1265.16 739.239 Q1267.36 735.292 1270.41 733.414 Q1273.47 731.537 1277.61 731.537 Q1283.18 731.537 1286.2 735.451 Q1289.22 739.335 1289.22 746.528 L1289.22 768.044 L1283.34 768.044 L1283.34 746.719 Q1283.34 741.594 1281.52 739.112 Q1279.71 736.629 1275.98 736.629 Q1271.43 736.629 1268.79 739.653 Q1266.15 742.677 1266.15 747.896 L1266.15 768.044 L1260.26 768.044 L1260.26 746.719 Q1260.26 741.563 1258.45 739.112 Q1256.63 736.629 1252.84 736.629 Q1248.36 736.629 1245.72 739.685 Q1243.07 742.708 1243.07 747.896 L1243.07 768.044 L1237.19 768.044 L1237.19 732.396 L1243.07 732.396 L1243.07 737.934 Q1245.08 734.656 1247.88 733.096 Q1250.68 731.537 1254.53 731.537 Q1258.41 731.537 1261.12 733.51 Q1263.86 735.483 1265.16 739.239 Z" fill="#000000" fill-rule="nonzero" fill-opacity="1" /><path clip-path="url(#clip870)" d="M1331.4 748.756 L1331.4 751.62 L1304.47 751.62 Q1304.85 757.668 1308.1 760.851 Q1311.38 764.002 1317.2 764.002 Q1320.58 764.002 1323.73 763.174 Q1326.91 762.347 1330.03 760.691 L1330.03 766.23 Q1326.88 767.566 1323.57 768.267 Q1320.26 768.967 1316.85 768.967 Q1308.32 768.967 1303.32 764.002 Q1298.36 759.036 1298.36 750.57 Q1298.36 741.817 1303.07 736.693 Q1307.81 731.537 1315.83 731.537 Q1323.03 731.537 1327.2 736.183 Q1331.4 740.799 1331.4 748.756 M1325.54 747.037 Q1325.48 742.231 1322.84 739.366 Q1320.23 736.502 1315.9 736.502 Q1311 736.502 1308.04 739.271 Q1305.11 742.04 1304.66 747.069 L1325.54 747.037 Z" fill="#000000" fill-rule="nonzero" fill-opacity="1" /><path clip-path="url(#clip870)" d="M1375.8 718.582 Q1371.53 725.903 1369.46 733.064 Q1367.4 740.226 1367.4 747.578 Q1367.4 754.93 1369.46 762.156 Q1371.57 769.349 1375.8 776.638 L1370.71 776.638 Q1365.93 769.158 1363.54 761.933 Q1361.19 754.708 1361.19 747.578 Q1361.19 740.48 1363.54 733.287 Q1365.9 726.094 1370.71 718.582 L1375.8 718.582 Z" fill="#000000" fill-rule="nonzero" fill-opacity="1" /><path clip-path="url(#clip870)" d="M1409.89 733.446 L1409.89 738.984 Q1407.4 737.711 1404.73 737.075 Q1402.06 736.438 1399.19 736.438 Q1394.83 736.438 1392.64 737.775 Q1390.47 739.112 1390.47 741.785 Q1390.47 743.822 1392.03 745 Q1393.59 746.146 1398.3 747.196 L1400.31 747.642 Q1406.54 748.979 1409.15 751.429 Q1411.8 753.848 1411.8 758.209 Q1411.8 763.174 1407.85 766.07 Q1403.93 768.967 1397.06 768.967 Q1394.2 768.967 1391.08 768.394 Q1387.99 767.853 1384.55 766.739 L1384.55 760.691 Q1387.8 762.378 1390.95 763.238 Q1394.1 764.065 1397.19 764.065 Q1401.32 764.065 1403.55 762.665 Q1405.78 761.233 1405.78 758.654 Q1405.78 756.267 1404.16 754.994 Q1402.57 753.721 1397.12 752.543 L1395.09 752.066 Q1389.64 750.92 1387.22 748.565 Q1384.81 746.178 1384.81 742.04 Q1384.81 737.011 1388.37 734.274 Q1391.94 731.537 1398.49 731.537 Q1401.74 731.537 1404.6 732.014 Q1407.47 732.491 1409.89 733.446 Z" fill="#000000" fill-rule="nonzero" fill-opacity="1" /><path clip-path="url(#clip870)" d="M1420.2 718.582 L1425.29 718.582 Q1430.07 726.094 1432.42 733.287 Q1434.81 740.48 1434.81 747.578 Q1434.81 754.708 1432.42 761.933 Q1430.07 769.158 1425.29 776.638 L1420.2 776.638 Q1424.43 769.349 1426.5 762.156 Q1428.6 754.93 1428.6 747.578 Q1428.6 740.226 1426.5 733.064 Q1424.43 725.903 1420.2 718.582 Z" fill="#000000" fill-rule="nonzero" fill-opacity="1" /><polyline clip-path="url(#clip870)" style="stroke:#000000; stroke-linecap:round; stroke-linejoin:round; stroke-width:4; stroke-opacity:1; fill:none" points="257.204,623.18 257.204,47.2441 "/>
<polyline clip-path="url(#clip870)" style="stroke:#000000; stroke-linecap:round; stroke-linejoin:round; stroke-width:4; stroke-opacity:1; fill:none" points="257.204,599.659 276.102,599.659 "/>
<polyline clip-path="url(#clip870)" style="stroke:#000000; stroke-linecap:round; stroke-linejoin:round; stroke-width:4; stroke-opacity:1; fill:none" points="257.204,457.432 276.102,457.432 "/>
<polyline clip-path="url(#clip870)" style="stroke:#000000; stroke-linecap:round; stroke-linejoin:round; stroke-width:4; stroke-opacity:1; fill:none" points="257.204,315.205 276.102,315.205 "/>
<polyline clip-path="url(#clip870)" style="stroke:#000000; stroke-linecap:round; stroke-linejoin:round; stroke-width:4; stroke-opacity:1; fill:none" points="257.204,172.979 276.102,172.979 "/>
<path clip-path="url(#clip870)" d="M115.857 600.111 L145.533 600.111 L145.533 604.046 L115.857 604.046 L115.857 600.111 Z" fill="#000000" fill-rule="nonzero" fill-opacity="1" /><path clip-path="url(#clip870)" d="M165.626 585.458 Q162.015 585.458 160.186 589.023 Q158.38 592.564 158.38 599.694 Q158.38 606.801 160.186 610.365 Q162.015 613.907 165.626 613.907 Q169.26 613.907 171.065 610.365 Q172.894 606.801 172.894 599.694 Q172.894 592.564 171.065 589.023 Q169.26 585.458 165.626 585.458 M165.626 581.754 Q171.436 581.754 174.491 586.361 Q177.57 590.944 177.57 599.694 Q177.57 608.421 174.491 613.027 Q171.436 617.611 165.626 617.611 Q159.815 617.611 156.737 613.027 Q153.681 608.421 153.681 599.694 Q153.681 590.944 156.737 586.361 Q159.815 581.754 165.626 581.754 Z" fill="#000000" fill-rule="nonzero" fill-opacity="1" /><path clip-path="url(#clip870)" d="M185.788 611.06 L190.672 611.06 L190.672 616.939 L185.788 616.939 L185.788 611.06 Z" fill="#000000" fill-rule="nonzero" fill-opacity="1" /><path clip-path="url(#clip870)" d="M204.885 613.004 L221.204 613.004 L221.204 616.939 L199.26 616.939 L199.26 613.004 Q201.922 610.25 206.505 605.62 Q211.111 600.967 212.292 599.625 Q214.537 597.101 215.417 595.365 Q216.32 593.606 216.32 591.916 Q216.32 589.162 214.375 587.426 Q212.454 585.69 209.352 585.69 Q207.153 585.69 204.699 586.453 Q202.269 587.217 199.491 588.768 L199.491 584.046 Q202.315 582.912 204.769 582.333 Q207.223 581.754 209.26 581.754 Q214.63 581.754 217.824 584.44 Q221.019 587.125 221.019 591.615 Q221.019 593.745 220.209 595.666 Q219.422 597.564 217.315 600.157 Q216.736 600.828 213.635 604.046 Q210.533 607.24 204.885 613.004 Z" fill="#000000" fill-rule="nonzero" fill-opacity="1" /><path clip-path="url(#clip870)" d="M115.487 457.884 L145.163 457.884 L145.163 461.819 L115.487 461.819 L115.487 457.884 Z" fill="#000000" fill-rule="nonzero" fill-opacity="1" /><path clip-path="url(#clip870)" d="M165.255 443.231 Q161.644 443.231 159.815 446.796 Q158.01 450.338 158.01 457.467 Q158.01 464.574 159.815 468.138 Q161.644 471.68 165.255 471.68 Q168.889 471.68 170.695 468.138 Q172.524 464.574 172.524 457.467 Q172.524 450.338 170.695 446.796 Q168.889 443.231 165.255 443.231 M165.255 439.527 Q171.065 439.527 174.121 444.134 Q177.2 448.717 177.2 457.467 Q177.2 466.194 174.121 470.8 Q171.065 475.384 165.255 475.384 Q159.445 475.384 156.366 470.8 Q153.311 466.194 153.311 457.467 Q153.311 448.717 156.366 444.134 Q159.445 439.527 165.255 439.527 Z" fill="#000000" fill-rule="nonzero" fill-opacity="1" /><path clip-path="url(#clip870)" d="M185.417 468.833 L190.301 468.833 L190.301 474.712 L185.417 474.712 L185.417 468.833 Z" fill="#000000" fill-rule="nonzero" fill-opacity="1" /><path clip-path="url(#clip870)" d="M201.297 470.777 L208.936 470.777 L208.936 444.412 L200.625 446.078 L200.625 441.819 L208.889 440.152 L213.565 440.152 L213.565 470.777 L221.204 470.777 L221.204 474.712 L201.297 474.712 L201.297 470.777 Z" fill="#000000" fill-rule="nonzero" fill-opacity="1" /><path clip-path="url(#clip870)" d="M164.028 301.004 Q160.417 301.004 158.589 304.569 Q156.783 308.111 156.783 315.24 Q156.783 322.347 158.589 325.911 Q160.417 329.453 164.028 329.453 Q167.663 329.453 169.468 325.911 Q171.297 322.347 171.297 315.24 Q171.297 308.111 169.468 304.569 Q167.663 301.004 164.028 301.004 M164.028 297.3 Q169.839 297.3 172.894 301.907 Q175.973 306.49 175.973 315.24 Q175.973 323.967 172.894 328.573 Q169.839 333.157 164.028 333.157 Q158.218 333.157 155.14 328.573 Q152.084 323.967 152.084 315.24 Q152.084 306.49 155.14 301.907 Q158.218 297.3 164.028 297.3 Z" fill="#000000" fill-rule="nonzero" fill-opacity="1" /><path clip-path="url(#clip870)" d="M184.19 326.606 L189.075 326.606 L189.075 332.485 L184.19 332.485 L184.19 326.606 Z" fill="#000000" fill-rule="nonzero" fill-opacity="1" /><path clip-path="url(#clip870)" d="M209.26 301.004 Q205.649 301.004 203.82 304.569 Q202.014 308.111 202.014 315.24 Q202.014 322.347 203.82 325.911 Q205.649 329.453 209.26 329.453 Q212.894 329.453 214.699 325.911 Q216.528 322.347 216.528 315.24 Q216.528 308.111 214.699 304.569 Q212.894 301.004 209.26 301.004 M209.26 297.3 Q215.07 297.3 218.125 301.907 Q221.204 306.49 221.204 315.24 Q221.204 323.967 218.125 328.573 Q215.07 333.157 209.26 333.157 Q203.449 333.157 200.371 328.573 Q197.315 323.967 197.315 315.24 Q197.315 306.49 200.371 301.907 Q203.449 297.3 209.26 297.3 Z" fill="#000000" fill-rule="nonzero" fill-opacity="1" /><path clip-path="url(#clip870)" d="M165.255 158.777 Q161.644 158.777 159.815 162.342 Q158.01 165.884 158.01 173.013 Q158.01 180.12 159.815 183.685 Q161.644 187.226 165.255 187.226 Q168.889 187.226 170.695 183.685 Q172.524 180.12 172.524 173.013 Q172.524 165.884 170.695 162.342 Q168.889 158.777 165.255 158.777 M165.255 155.074 Q171.065 155.074 174.121 159.68 Q177.2 164.263 177.2 173.013 Q177.2 181.74 174.121 186.347 Q171.065 190.93 165.255 190.93 Q159.445 190.93 156.366 186.347 Q153.311 181.74 153.311 173.013 Q153.311 164.263 156.366 159.68 Q159.445 155.074 165.255 155.074 Z" fill="#000000" fill-rule="nonzero" fill-opacity="1" /><path clip-path="url(#clip870)" d="M185.417 184.379 L190.301 184.379 L190.301 190.259 L185.417 190.259 L185.417 184.379 Z" fill="#000000" fill-rule="nonzero" fill-opacity="1" /><path clip-path="url(#clip870)" d="M201.297 186.323 L208.936 186.323 L208.936 159.958 L200.625 161.624 L200.625 157.365 L208.889 155.699 L213.565 155.699 L213.565 186.323 L221.204 186.323 L221.204 190.259 L201.297 190.259 L201.297 186.323 Z" fill="#000000" fill-rule="nonzero" fill-opacity="1" /><path clip-path="url(#clip870)" d="M68.5412 333.525 Q74.9069 336.008 76.8484 338.363 Q78.79 340.718 78.79 344.665 L78.79 349.344 L73.8884 349.344 L73.8884 345.906 Q73.8884 343.487 72.7425 342.151 Q71.5967 340.814 67.3317 339.191 L64.6581 338.14 L29.583 352.559 L29.583 346.352 L57.4648 335.212 L29.583 324.072 L29.583 317.865 L68.5412 333.525 Z" fill="#000000" fill-rule="nonzero" fill-opacity="1" /><polyline clip-path="url(#clip872)" style="stroke:#009af9; stroke-linecap:round; stroke-linejoin:round; stroke-width:4; stroke-opacity:1; fill:none" points="316.512,315.205 320.474,315.205 324.436,315.205 324.436,301.147 328.397,301.147 328.397,287.503 332.359,287.503 332.359,274.393 336.321,274.393 336.321,261.923 340.283,261.923 340.283,250.187 344.245,250.187 344.245,239.261 348.206,239.261 348.206,229.206 352.168,229.206 352.168,220.063 356.13,220.063 356.13,211.857 360.092,211.857 360.092,204.594 364.054,204.594 364.054,198.264 368.015,198.264 368.015,192.838 371.977,192.838 371.977,188.274 375.939,188.274 375.939,184.513 379.901,184.513 379.901,181.485 383.863,181.485 383.863,179.108 387.824,179.108 387.824,177.29 391.786,177.29 391.786,175.934 395.748,175.934 395.748,174.936 399.71,174.936 399.71,174.19 403.672,174.19 403.672,201.707 407.633,201.707 407.633,228.435 411.595,228.435 411.595,254.034 415.557,254.034 415.557,278.193 419.519,278.193 419.519,300.638 423.481,300.638 423.481,321.133 427.442,321.133 427.442,339.488 431.404,339.488 431.404,355.56 435.366,355.56 435.366,369.25 439.328,369.25 439.328,380.51 443.29,380.51 443.29,389.339 447.251,389.339 447.251,395.784 451.213,395.784 451.213,399.932 455.175,399.932 455.175,401.915 459.137,401.915 459.137,401.901 463.099,401.901 463.099,371.974 467.06,371.974 467.06,341.308 471.022,341.308 471.022,310.393 474.984,310.393 474.984,279.712 478.946,279.712 478.946,249.73 482.907,249.73 482.907,220.887 486.869,220.887 486.869,193.586 490.831,193.586 490.831,168.193 494.793,168.193 494.793,145.023 498.755,145.023 498.755,124.341 502.716,124.341 502.716,106.358 506.678,106.358 506.678,91.2241 510.64,91.2241 510.64,79.0317 514.602,79.0317 514.602,69.8136 518.564,69.8136 518.564,63.5442 522.525,63.5442 522.525,88.2585 526.487,88.2585 526.487,114.877 530.449,114.877 530.449,142.978 534.411,142.978 534.411,172.12 538.373,172.12 538.373,201.853 542.334,201.853 542.334,231.729 546.296,231.729 546.296,261.305 550.258,261.305 550.258,290.16 554.22,290.16 554.22,317.894 558.182,317.894 558.182,344.143 562.143,344.143 562.143,368.579 566.105,368.579 566.105,390.919 570.067,390.919 570.067,410.928 574.029,410.928 574.029,428.422 577.991,428.422 577.991,443.271 581.952,443.271 581.952,427.283 585.914,427.283 585.914,409.381 589.876,409.381 589.876,389.836 593.838,389.836 593.838,368.946 597.8,368.946 597.8,347.026 601.761,347.026 601.761,352.521 605.723,352.521 605.723,356.821 609.685,356.821 609.685,360.018 613.647,360.018 613.647,362.223 617.609,362.223 617.609,363.561 621.57,363.561 621.57,336.052 625.532,336.052 625.532,308.787 629.494,308.787 629.494,282.159 633.456,282.159 633.456,256.536 637.418,256.536 637.418,232.257 641.379,232.257 641.379,237.743 645.341,237.743 645.341,244.314 649.303,244.314 649.303,251.95 653.265,251.95 653.265,260.61 657.226,260.61 657.226,270.232 661.188,270.232 661.188,252.62 665.15,252.62 665.15,236.623 669.112,236.623 669.112,222.37 673.074,222.37 673.074,209.952 677.035,209.952 677.035,199.426 680.997,199.426 680.997,190.807 684.959,190.807 684.959,184.078 688.921,184.078 688.921,179.183 692.883,179.183 692.883,176.035 696.844,176.035 696.844,174.515 700.806,174.515 700.806,202.595 704.768,202.595 704.768,231.161 708.73,231.161 708.73,259.785 712.692,259.785 712.692,288.048 716.653,288.048 716.653,315.551 720.615,315.551 720.615,341.918 724.577,341.918 724.577,366.807 728.539,366.807 728.539,389.914 732.501,389.914 732.501,410.975 736.462,410.975 736.462,429.774 740.424,429.774 740.424,446.147 744.386,446.147 744.386,459.978 748.348,459.978 748.348,471.203 752.31,471.203 752.31,479.812 756.271,479.812 756.271,485.845 760.233,485.845 760.233,489.388 764.195,489.388 764.195,490.575 768.157,490.575 768.157,489.578 772.119,489.578 772.119,486.61 776.08,486.61 776.08,481.91 780.042,481.91 780.042,475.747 784.004,475.747 784.004,468.408 787.966,468.408 787.966,460.193 791.928,460.193 791.928,451.409 795.889,451.409 795.889,442.365 799.851,442.365 799.851,433.364 803.813,433.364 803.813,424.699 807.775,424.699 807.775,416.645 811.736,416.645 811.736,409.457 815.698,409.457 815.698,403.364 819.66,403.364 819.66,370.449 823.622,370.449 823.622,339.823 827.584,339.823 827.584,311.859 831.545,311.859 831.545,286.865 835.507,286.865 835.507,265.087 839.469,265.087 839.469,274.815 843.431,274.815 843.431,287.21 847.393,287.21 847.393,302.067 851.354,302.067 851.354,319.138 855.316,319.138 855.316,338.135 859.278,338.135 859.278,358.744 863.24,358.744 863.24,380.624 867.202,380.624 867.202,403.419 871.163,403.419 871.163,426.765 875.125,426.765 875.125,450.295 879.087,450.295 879.087,473.651 883.049,473.651 883.049,496.485 887.011,496.485 887.011,518.47 890.972,518.47 890.972,539.305 894.934,539.305 894.934,558.717 898.896,558.717 898.896,548.354 902.858,548.354 902.858,536.963 906.82,536.963 906.82,524.627 910.781,524.627 910.781,511.446 914.743,511.446 914.743,497.537 918.705,497.537 918.705,511.144 922.667,511.144 922.667,523.462 926.629,523.462 926.629,534.395 930.59,534.395 930.59,543.879 934.552,543.879 934.552,551.876 938.514,551.876 938.514,530.264 942.476,530.264 942.476,508.009 946.438,508.009 946.438,485.399 950.399,485.399 950.399,462.722 954.361,462.722 954.361,440.261 958.323,440.261 958.323,446.406 962.285,446.406 962.285,452.466 966.246,452.466 966.246,458.437 970.208,458.437 970.208,464.317 974.17,464.317 974.17,470.102 978.132,470.102 978.132,447.675 982.094,447.675 982.094,425.978 986.055,425.978 986.055,405.252 990.017,405.252 990.017,385.711 993.979,385.711 993.979,367.543 997.941,367.543 997.941,379.019 1001.9,379.019 1001.9,391.317 1005.86,391.317 1005.86,404.288 1009.83,404.288 1009.83,417.768 1013.79,417.768 1013.79,431.592 1017.75,431.592 1017.75,445.589 1021.71,445.589 1021.71,459.589 1025.67,459.589 1025.67,473.426 1029.64,473.426 1029.64,486.942 1033.6,486.942 1033.6,499.986 1037.56,499.986 1037.56,512.423 1041.52,512.423 1041.52,524.132 1045.48,524.132 1045.48,535.007 1049.44,535.007 1049.44,544.963 1053.41,544.963 1053.41,553.933 1057.37,553.933 1057.37,561.871 1061.33,561.871 1061.33,568.751 1065.29,568.751 1065.29,574.568 1069.25,574.568 1069.25,579.338 1073.21,579.338 1073.21,583.094 1077.18,583.094 1077.18,557.773 1081.14,557.773 1081.14,532.388 1085.1,532.388 1085.1,507.26 1089.06,507.26 1089.06,482.702 1093.02,482.702 1093.02,459.002 1096.99,459.002 1096.99,436.43 1100.95,436.43 1100.95,415.223 1104.91,415.223 1104.91,395.59 1108.87,395.59 1108.87,377.701 1112.83,377.701 1112.83,361.691 1116.79,361.691 1116.79,347.653 1120.76,347.653 1120.76,335.643 1124.72,335.643 1124.72,325.675 1128.68,325.675 1128.68,317.725 1132.64,317.725 1132.64,311.732 1136.6,311.732 1136.6,307.598 1140.57,307.598 1140.57,305.194 1144.53,305.194 1144.53,304.364 1148.49,304.364 1148.49,304.925 1152.45,304.925 1152.45,306.674 1156.41,306.674 1156.41,309.392 1160.37,309.392 1160.37,312.849 1164.34,312.849 1164.34,316.81 1168.3,316.81 1168.3,321.037 1172.26,321.037 1172.26,325.296 1176.22,325.296 1176.22,357.476 1180.18,357.476 1180.18,388.419 1184.15,388.419 1184.15,417.685 1188.11,417.685 1188.11,444.882 1192.07,444.882 1192.07,469.666 1196.03,469.666 1196.03,463.634 1199.99,463.634 1199.99,455.506 1203.95,455.506 1203.95,445.357 1207.92,445.357 1207.92,433.303 1211.88,433.303 1211.88,419.494 1215.84,419.494 1215.84,404.113 1219.8,404.113 1219.8,387.368 1223.76,387.368 1223.76,369.491 1227.72,369.491 1227.72,350.73 1231.69,350.73 1231.69,331.345 1235.65,331.345 1235.65,311.6 1239.61,311.6 1239.61,291.761 1243.57,291.761 1243.57,272.09 1247.53,272.09 1247.53,252.839 1251.5,252.839 1251.5,234.244 1255.46,234.244 1255.46,244.641 1259.42,244.641 1259.42,255.28 1263.38,255.28 1263.38,266.094 1267.34,266.094 1267.34,277.009 1271.3,277.009 1271.3,287.954 1275.27,287.954 1275.27,270.738 1279.23,270.738 1279.23,254.235 1283.19,254.235 1283.19,238.616 1287.15,238.616 1287.15,224.031 1291.11,224.031 1291.11,210.606 1295.08,210.606 1295.08,226.56 1299.04,226.56 1299.04,243.021 1303,243.021 1303,259.798 1306.96,259.798 1306.96,276.697 1310.92,276.697 1310.92,293.525 1314.88,293.525 1314.88,310.097 1318.85,310.097 1318.85,326.235 1322.81,326.235 1322.81,341.774 1326.77,341.774 1326.77,356.564 1330.73,356.564 1330.73,370.473 1334.69,370.473 1334.69,383.389 1338.66,383.389 1338.66,395.222 1342.62,395.222 1342.62,405.904 1346.58,405.904 1346.58,415.39 1350.54,415.39 1350.54,423.659 1354.5,423.659 1354.5,402.597 1358.46,402.597 1358.46,381.173 1362.43,381.173 1362.43,359.673 1366.39,359.673 1366.39,338.377 1370.35,338.377 1370.35,317.555 1374.31,317.555 1374.31,325.575 1378.27,325.575 1378.27,333.727 1382.23,333.727 1382.23,341.98 1386.2,341.98 1386.2,350.301 1390.16,350.301 1390.16,358.654 1394.12,358.654 1394.12,367.004 1398.08,367.004 1398.08,375.316 1402.04,375.316 1402.04,383.553 1406.01,383.553 1406.01,391.682 1409.97,391.682 1409.97,399.671 1413.93,399.671 1413.93,379.372 1417.89,379.372 1417.89,359.705 1421.85,359.705 1421.85,340.885 1425.81,340.885 1425.81,323.107 1429.78,323.107 1429.78,306.541 1433.74,306.541 1433.74,319.445 1437.7,319.445 1437.7,332.989 1441.66,332.989 1441.66,347.015 1445.62,347.015 1445.62,361.359 1449.59,361.359 1449.59,375.857 1453.55,375.857 1453.55,390.342 1457.51,390.342 1457.51,404.653 1461.47,404.653 1461.47,418.637 1465.43,418.637 1465.43,432.147 1469.39,432.147 1469.39,445.053 1473.36,445.053 1473.36,457.235 1477.32,457.235 1477.32,468.594 1481.28,468.594 1481.28,479.046 1485.24,479.046 1485.24,488.528 1489.2,488.528 1489.2,496.994 1493.17,496.994 1493.17,504.421 1497.13,504.421 1497.13,510.806 1501.09,510.806 1501.09,516.164 1505.05,516.164 1505.05,520.528 1509.01,520.528 1509.01,523.951 1512.97,523.951 1512.97,498.384 1516.94,498.384 1516.94,472.852 1520.9,472.852 1520.9,447.69 1524.86,447.69 1524.86,423.216 1528.82,423.216 1528.82,399.725 1532.78,399.725 1532.78,405.604 1536.74,405.604 1536.74,412.148 1540.71,412.148 1540.71,419.322 1544.67,419.322 1544.67,427.077 1548.63,427.077 1548.63,435.356 1552.59,435.356 1552.59,415.972 1556.55,415.972 1556.55,397.794 1560.52,397.794 1560.52,380.979 1564.48,380.979 1564.48,365.654 1568.44,365.654 1568.44,351.915 1572.4,351.915 1572.4,367.94 1576.36,367.94 1576.36,384.816 1580.32,384.816 1580.32,402.301 1584.29,402.301 1584.29,420.147 1588.25,420.147 1588.25,438.107 1592.21,438.107 1592.21,455.936 1596.17,455.936 1596.17,473.398 1600.13,473.398 1600.13,490.271 1604.1,490.271 1604.1,506.35 1608.06,506.35 1608.06,521.448 1612.02,521.448 1612.02,535.406 1615.98,535.406 1615.98,548.088 1619.94,548.088 1619.94,559.386 1623.9,559.386 1623.9,569.224 1627.87,569.224 1627.87,577.553 1631.83,577.553 1631.83,584.356 1635.79,584.356 1635.79,589.645 1639.75,589.645 1639.75,593.459 1643.71,593.459 1643.71,595.867 1647.68,595.867 1647.68,596.959 1651.64,596.959 1651.64,596.851 1655.6,596.851 1655.6,595.674 1659.56,595.674 1659.56,593.579 1663.52,593.579 1663.52,590.728 1667.48,590.728 1667.48,587.292 1671.45,587.292 1671.45,583.448 1675.41,583.448 1675.41,579.374 1679.37,579.374 1679.37,575.248 1683.33,575.248 1683.33,571.241 1687.29,571.241 1687.29,567.517 1691.25,567.517 1691.25,564.229 1695.22,564.229 1695.22,561.514 1699.18,561.514 1699.18,559.495 1703.14,559.495 1703.14,558.276 1707.1,558.276 1707.1,557.941 1711.06,557.941 1711.06,558.554 1715.03,558.554 1715.03,560.157 1718.99,560.157 1718.99,562.771 1722.95,562.771 1722.95,566.395 1726.91,566.395 1726.91,571.009 1730.87,571.009 1730.87,576.57 1734.83,576.57 1734.83,583.021 1738.8,583.021 1738.8,590.284 1742.76,590.284 1742.76,598.272 1746.72,598.272 1746.72,606.88 1750.68,606.88 1750.68,587.88 1754.64,587.88 1754.64,570.096 1758.61,570.096 1758.61,553.645 1762.57,553.645 1762.57,538.612 1766.53,538.612 1766.53,525.056 1770.49,525.056 1770.49,513.008 1774.45,513.008 1774.45,502.467 1778.41,502.467 1778.41,493.409 1782.38,493.409 1782.38,485.779 1786.34,485.779 1786.34,479.5 1790.3,479.5 1790.3,502.589 1794.26,502.589 1794.26,525.98 1798.22,525.98 1798.22,549.297 1802.19,549.297 1802.19,572.176 1806.15,572.176 1806.15,594.269 1810.11,594.269 1810.11,587.14 1814.07,587.14 1814.07,579.442 1818.03,579.442 1818.03,571.159 1821.99,571.159 1821.99,562.288 1825.96,562.288 1825.96,552.839 1829.92,552.839 1829.92,542.838 1833.88,542.838 1833.88,532.318 1837.84,532.318 1837.84,521.327 1841.8,521.327 1841.8,509.922 1845.76,509.922 1845.76,498.166 1849.73,498.166 1849.73,486.13 1853.69,486.13 1853.69,473.892 1857.65,473.892 1857.65,461.53 1861.61,461.53 1861.61,449.126 1865.57,449.126 1865.57,436.762 1869.54,436.762 1869.54,452.633 1873.5,452.633 1873.5,467.873 1877.46,467.873 1877.46,482.313 1881.42,482.313 1881.42,495.806 1885.38,495.806 1885.38,508.227 1889.34,508.227 1889.34,491.356 1893.31,491.356 1893.31,474.062 1897.27,474.062 1897.27,456.532 1901.23,456.532 1901.23,438.956 1905.19,438.956 1905.19,421.519 1909.15,421.519 1909.15,432.518 1913.12,432.518 1913.12,443.176 1917.08,443.176 1917.08,453.411 1921.04,453.411 1921.04,463.149 1925,463.149 1925,472.326 1928.96,472.326 1928.96,480.893 1932.92,480.893 1932.92,488.811 1936.89,488.811 1936.89,496.053 1940.85,496.053 1940.85,502.606 1944.81,502.606 1944.81,508.472 1948.77,508.472 1948.77,485.544 1952.73,485.544 1952.73,462.793 1956.7,462.793 1956.7,440.494 1960.66,440.494 1960.66,418.905 1964.62,418.905 1964.62,398.267 1968.58,398.267 1968.58,406.91 1972.54,406.91 1972.54,416.078 1976.5,416.078 1976.5,425.689 1980.47,425.689 1980.47,435.653 1984.43,435.653 1984.43,445.874 1988.39,445.874 1988.39,456.253 1992.35,456.253 1992.35,466.692 1996.31,466.692 1996.31,477.091 2000.27,477.091 2000.27,487.354 2004.24,487.354 2004.24,497.388 2008.2,497.388 2008.2,507.107 2012.16,507.107 2012.16,516.434 2016.12,516.434 2016.12,525.299 2020.08,525.299 2020.08,533.643 2024.05,533.643 2024.05,541.418 2028.01,541.418 2028.01,548.588 2031.97,548.588 2031.97,555.128 2035.93,555.128 2035.93,561.025 2039.89,561.025 2039.89,566.28 2043.85,566.28 2043.85,570.904 2047.82,570.904 2047.82,574.919 2051.78,574.919 2051.78,578.358 2055.74,578.358 2055.74,581.263 2059.7,581.263 2059.7,583.685 2063.66,583.685 2063.66,585.682 2067.63,585.682 2067.63,587.317 2071.59,587.317 2071.59,588.658 2075.55,588.658 2075.55,589.775 2079.51,589.775 2079.51,590.741 2083.47,590.741 2083.47,591.628 2087.43,591.628 2087.43,564.39 2091.4,564.39 2091.4,538.039 2095.36,538.039 2095.36,512.88 2099.32,512.88 2099.32,489.183 2103.28,489.183 2103.28,467.189 2107.24,467.189 2107.24,447.095 2111.21,447.095 2111.21,429.059 2115.17,429.059 2115.17,413.196 2119.13,413.196 2119.13,399.576 2123.09,399.576 2123.09,388.224 2127.05,388.224 2127.05,379.123 2131.01,379.123 2131.01,372.211 2134.98,372.211 2134.98,367.391 2138.94,367.391 2138.94,364.525 2142.9,364.525 2142.9,363.445 2146.86,363.445 2146.86,363.954 2150.82,363.954 2150.82,365.83 2154.79,365.83 2154.79,368.833 2158.75,368.833 2158.75,372.711 2162.71,372.711 2162.71,377.202 2166.67,377.202 2166.67,410.159 2170.63,410.159 2170.63,442.374 2174.59,442.374 2174.59,473.355 2178.56,473.355 2178.56,502.646 2182.52,502.646 2182.52,529.836 2186.48,529.836 2186.48,526.451 2190.44,526.451 2190.44,521.136 2194.4,521.136 2194.4,513.891 2198.36,513.891 2198.36,504.758 2202.33,504.758 2202.33,493.815 2206.29,493.815 2206.29,509.292 2210.25,509.292 2210.25,522.388 2214.21,522.388 2214.21,533.037 2218.17,533.037 2218.17,541.22 2222.14,541.22 2222.14,546.968 2226.1,546.968 2226.1,522.24 2230.06,522.24 2230.06,496.098 2234.02,496.098 2234.02,468.942 2237.98,468.942 2237.98,441.177 2241.94,441.177 2241.94,413.214 2245.91,413.214 2245.91,413.57 2249.87,413.57 2249.87,413.689 2253.83,413.689 2253.83,413.698 2257.79,413.698 2257.79,413.721 2261.75,413.721 2261.75,413.876 2265.72,413.876 2265.72,414.276 2269.68,414.276 2269.68,415.022 2273.64,415.022 2273.64,416.206 2277.6,416.206 2277.6,417.907 2281.56,417.907 2281.56,420.189 2285.52,420.189 2285.52,423.105 2289.49,423.105 2289.49,426.688 2293.45,426.688 2293.45,430.96 "/>
<path clip-path="url(#clip870)" d="M257.204 1423.18 L2352.76 1423.18 L2352.76 847.244 L257.204 847.244  Z" fill="#ffffff" fill-rule="evenodd" fill-opacity="1"/>
<defs>
  <clipPath id="clip873">
    <rect x="257" y="847" width="2097" height="577"/>
  </clipPath>
</defs>
<polyline clip-path="url(#clip873)" style="stroke:#000000; stroke-linecap:round; stroke-linejoin:round; stroke-width:2; stroke-opacity:0.1; fill:none" points="316.512,1423.18 316.512,847.244 "/>
<polyline clip-path="url(#clip873)" style="stroke:#000000; stroke-linecap:round; stroke-linejoin:round; stroke-width:2; stroke-opacity:0.1; fill:none" points="712.692,1423.18 712.692,847.244 "/>
<polyline clip-path="url(#clip873)" style="stroke:#000000; stroke-linecap:round; stroke-linejoin:round; stroke-width:2; stroke-opacity:0.1; fill:none" points="1108.87,1423.18 1108.87,847.244 "/>
<polyline clip-path="url(#clip873)" style="stroke:#000000; stroke-linecap:round; stroke-linejoin:round; stroke-width:2; stroke-opacity:0.1; fill:none" points="1505.05,1423.18 1505.05,847.244 "/>
<polyline clip-path="url(#clip873)" style="stroke:#000000; stroke-linecap:round; stroke-linejoin:round; stroke-width:2; stroke-opacity:0.1; fill:none" points="1901.23,1423.18 1901.23,847.244 "/>
<polyline clip-path="url(#clip873)" style="stroke:#000000; stroke-linecap:round; stroke-linejoin:round; stroke-width:2; stroke-opacity:0.1; fill:none" points="2297.41,1423.18 2297.41,847.244 "/>
<polyline clip-path="url(#clip873)" style="stroke:#000000; stroke-linecap:round; stroke-linejoin:round; stroke-width:2; stroke-opacity:0.1; fill:none" points="257.204,1406.88 2352.76,1406.88 "/>
<polyline clip-path="url(#clip873)" style="stroke:#000000; stroke-linecap:round; stroke-linejoin:round; stroke-width:2; stroke-opacity:0.1; fill:none" points="257.204,1271.05 2352.76,1271.05 "/>
<polyline clip-path="url(#clip873)" style="stroke:#000000; stroke-linecap:round; stroke-linejoin:round; stroke-width:2; stroke-opacity:0.1; fill:none" points="257.204,1135.21 2352.76,1135.21 "/>
<polyline clip-path="url(#clip873)" style="stroke:#000000; stroke-linecap:round; stroke-linejoin:round; stroke-width:2; stroke-opacity:0.1; fill:none" points="257.204,999.378 2352.76,999.378 "/>
<polyline clip-path="url(#clip873)" style="stroke:#000000; stroke-linecap:round; stroke-linejoin:round; stroke-width:2; stroke-opacity:0.1; fill:none" points="257.204,863.544 2352.76,863.544 "/>
<polyline clip-path="url(#clip870)" style="stroke:#000000; stroke-linecap:round; stroke-linejoin:round; stroke-width:4; stroke-opacity:1; fill:none" points="257.204,1423.18 2352.76,1423.18 "/>
<polyline clip-path="url(#clip870)" style="stroke:#000000; stroke-linecap:round; stroke-linejoin:round; stroke-width:4; stroke-opacity:1; fill:none" points="316.512,1423.18 316.512,1404.28 "/>
<polyline clip-path="url(#clip870)" style="stroke:#000000; stroke-linecap:round; stroke-linejoin:round; stroke-width:4; stroke-opacity:1; fill:none" points="712.692,1423.18 712.692,1404.28 "/>
<polyline clip-path="url(#clip870)" style="stroke:#000000; stroke-linecap:round; stroke-linejoin:round; stroke-width:4; stroke-opacity:1; fill:none" points="1108.87,1423.18 1108.87,1404.28 "/>
<polyline clip-path="url(#clip870)" style="stroke:#000000; stroke-linecap:round; stroke-linejoin:round; stroke-width:4; stroke-opacity:1; fill:none" points="1505.05,1423.18 1505.05,1404.28 "/>
<polyline clip-path="url(#clip870)" style="stroke:#000000; stroke-linecap:round; stroke-linejoin:round; stroke-width:4; stroke-opacity:1; fill:none" points="1901.23,1423.18 1901.23,1404.28 "/>
<polyline clip-path="url(#clip870)" style="stroke:#000000; stroke-linecap:round; stroke-linejoin:round; stroke-width:4; stroke-opacity:1; fill:none" points="2297.41,1423.18 2297.41,1404.28 "/>
<path clip-path="url(#clip870)" d="M316.512 1454.1 Q312.901 1454.1 311.072 1457.66 Q309.267 1461.2 309.267 1468.33 Q309.267 1475.44 311.072 1479.01 Q312.901 1482.55 316.512 1482.55 Q320.146 1482.55 321.952 1479.01 Q323.781 1475.44 323.781 1468.33 Q323.781 1461.2 321.952 1457.66 Q320.146 1454.1 316.512 1454.1 M316.512 1450.39 Q322.322 1450.39 325.378 1455 Q328.456 1459.58 328.456 1468.33 Q328.456 1477.06 325.378 1481.67 Q322.322 1486.25 316.512 1486.25 Q310.702 1486.25 307.623 1481.67 Q304.568 1477.06 304.568 1468.33 Q304.568 1459.58 307.623 1455 Q310.702 1450.39 316.512 1450.39 Z" fill="#000000" fill-rule="nonzero" fill-opacity="1" /><path clip-path="url(#clip870)" d="M703.074 1481.64 L710.712 1481.64 L710.712 1455.28 L702.402 1456.95 L702.402 1452.69 L710.666 1451.02 L715.342 1451.02 L715.342 1481.64 L722.981 1481.64 L722.981 1485.58 L703.074 1485.58 L703.074 1481.64 Z" fill="#000000" fill-rule="nonzero" fill-opacity="1" /><path clip-path="url(#clip870)" d="M1103.52 1481.64 L1119.84 1481.64 L1119.84 1485.58 L1097.9 1485.58 L1097.9 1481.64 Q1100.56 1478.89 1105.14 1474.26 Q1109.75 1469.61 1110.93 1468.27 Q1113.18 1465.74 1114.06 1464.01 Q1114.96 1462.25 1114.96 1460.56 Q1114.96 1457.8 1113.01 1456.07 Q1111.09 1454.33 1107.99 1454.33 Q1105.79 1454.33 1103.34 1455.09 Q1100.91 1455.86 1098.13 1457.41 L1098.13 1452.69 Q1100.95 1451.55 1103.41 1450.97 Q1105.86 1450.39 1107.9 1450.39 Q1113.27 1450.39 1116.46 1453.08 Q1119.66 1455.77 1119.66 1460.26 Q1119.66 1462.39 1118.85 1464.31 Q1118.06 1466.2 1115.95 1468.8 Q1115.38 1469.47 1112.27 1472.69 Q1109.17 1475.88 1103.52 1481.64 Z" fill="#000000" fill-rule="nonzero" fill-opacity="1" /><path clip-path="url(#clip870)" d="M1509.3 1466.95 Q1512.65 1467.66 1514.53 1469.93 Q1516.43 1472.2 1516.43 1475.53 Q1516.43 1480.65 1512.91 1483.45 Q1509.39 1486.25 1502.91 1486.25 Q1500.73 1486.25 1498.42 1485.81 Q1496.13 1485.39 1493.67 1484.54 L1493.67 1480.02 Q1495.62 1481.16 1497.93 1481.74 Q1500.25 1482.32 1502.77 1482.32 Q1507.17 1482.32 1509.46 1480.58 Q1511.78 1478.84 1511.78 1475.53 Q1511.78 1472.48 1509.62 1470.77 Q1507.49 1469.03 1503.67 1469.03 L1499.65 1469.03 L1499.65 1465.19 L1503.86 1465.19 Q1507.31 1465.19 1509.14 1463.82 Q1510.96 1462.43 1510.96 1459.84 Q1510.96 1457.18 1509.07 1455.77 Q1507.19 1454.33 1503.67 1454.33 Q1501.75 1454.33 1499.55 1454.75 Q1497.35 1455.16 1494.72 1456.04 L1494.72 1451.88 Q1497.38 1451.14 1499.69 1450.77 Q1502.03 1450.39 1504.09 1450.39 Q1509.41 1450.39 1512.52 1452.83 Q1515.62 1455.23 1515.62 1459.35 Q1515.62 1462.22 1513.97 1464.21 Q1512.33 1466.18 1509.3 1466.95 Z" fill="#000000" fill-rule="nonzero" fill-opacity="1" /><path clip-path="url(#clip870)" d="M1904.24 1455.09 L1892.43 1473.54 L1904.24 1473.54 L1904.24 1455.09 M1903.01 1451.02 L1908.89 1451.02 L1908.89 1473.54 L1913.82 1473.54 L1913.82 1477.43 L1908.89 1477.43 L1908.89 1485.58 L1904.24 1485.58 L1904.24 1477.43 L1888.64 1477.43 L1888.64 1472.92 L1903.01 1451.02 Z" fill="#000000" fill-rule="nonzero" fill-opacity="1" /><path clip-path="url(#clip870)" d="M2287.69 1451.02 L2306.04 1451.02 L2306.04 1454.96 L2291.97 1454.96 L2291.97 1463.43 Q2292.99 1463.08 2294.01 1462.92 Q2295.03 1462.73 2296.04 1462.73 Q2301.83 1462.73 2305.21 1465.9 Q2308.59 1469.08 2308.59 1474.49 Q2308.59 1480.07 2305.12 1483.17 Q2301.65 1486.25 2295.33 1486.25 Q2293.15 1486.25 2290.88 1485.88 Q2288.64 1485.51 2286.23 1484.77 L2286.23 1480.07 Q2288.31 1481.2 2290.53 1481.76 Q2292.76 1482.32 2295.23 1482.32 Q2299.24 1482.32 2301.58 1480.21 Q2303.91 1478.1 2303.91 1474.49 Q2303.91 1470.88 2301.58 1468.77 Q2299.24 1466.67 2295.23 1466.67 Q2293.36 1466.67 2291.48 1467.08 Q2289.63 1467.5 2287.69 1468.38 L2287.69 1451.02 Z" fill="#000000" fill-rule="nonzero" fill-opacity="1" /><path clip-path="url(#clip870)" d="M1175.15 1520.52 L1215.35 1520.52 L1215.35 1525.93 L1198.48 1525.93 L1198.48 1568.04 L1192.02 1568.04 L1192.02 1525.93 L1175.15 1525.93 L1175.15 1520.52 Z" fill="#000000" fill-rule="nonzero" fill-opacity="1" /><path clip-path="url(#clip870)" d="M1219.3 1532.4 L1225.15 1532.4 L1225.15 1568.04 L1219.3 1568.04 L1219.3 1532.4 M1219.3 1518.52 L1225.15 1518.52 L1225.15 1525.93 L1219.3 1525.93 L1219.3 1518.52 Z" fill="#000000" fill-rule="nonzero" fill-opacity="1" /><path clip-path="url(#clip870)" d="M1265.16 1539.24 Q1267.36 1535.29 1270.41 1533.41 Q1273.47 1531.54 1277.61 1531.54 Q1283.18 1531.54 1286.2 1535.45 Q1289.22 1539.33 1289.22 1546.53 L1289.22 1568.04 L1283.34 1568.04 L1283.34 1546.72 Q1283.34 1541.59 1281.52 1539.11 Q1279.71 1536.63 1275.98 1536.63 Q1271.43 1536.63 1268.79 1539.65 Q1266.15 1542.68 1266.15 1547.9 L1266.15 1568.04 L1260.26 1568.04 L1260.26 1546.72 Q1260.26 1541.56 1258.45 1539.11 Q1256.63 1536.63 1252.84 1536.63 Q1248.36 1536.63 1245.72 1539.68 Q1243.07 1542.71 1243.07 1547.9 L1243.07 1568.04 L1237.19 1568.04 L1237.19 1532.4 L1243.07 1532.4 L1243.07 1537.93 Q1245.08 1534.66 1247.88 1533.1 Q1250.68 1531.54 1254.53 1531.54 Q1258.41 1531.54 1261.12 1533.51 Q1263.86 1535.48 1265.16 1539.24 Z" fill="#000000" fill-rule="nonzero" fill-opacity="1" /><path clip-path="url(#clip870)" d="M1331.4 1548.76 L1331.4 1551.62 L1304.47 1551.62 Q1304.85 1557.67 1308.1 1560.85 Q1311.38 1564 1317.2 1564 Q1320.58 1564 1323.73 1563.17 Q1326.91 1562.35 1330.03 1560.69 L1330.03 1566.23 Q1326.88 1567.57 1323.57 1568.27 Q1320.26 1568.97 1316.85 1568.97 Q1308.32 1568.97 1303.32 1564 Q1298.36 1559.04 1298.36 1550.57 Q1298.36 1541.82 1303.07 1536.69 Q1307.81 1531.54 1315.83 1531.54 Q1323.03 1531.54 1327.2 1536.18 Q1331.4 1540.8 1331.4 1548.76 M1325.54 1547.04 Q1325.48 1542.23 1322.84 1539.37 Q1320.23 1536.5 1315.9 1536.5 Q1311 1536.5 1308.04 1539.27 Q1305.11 1542.04 1304.66 1547.07 L1325.54 1547.04 Z" fill="#000000" fill-rule="nonzero" fill-opacity="1" /><path clip-path="url(#clip870)" d="M1375.8 1518.58 Q1371.53 1525.9 1369.46 1533.06 Q1367.4 1540.23 1367.4 1547.58 Q1367.4 1554.93 1369.46 1562.16 Q1371.57 1569.35 1375.8 1576.64 L1370.71 1576.64 Q1365.93 1569.16 1363.54 1561.93 Q1361.19 1554.71 1361.19 1547.58 Q1361.19 1540.48 1363.54 1533.29 Q1365.9 1526.09 1370.71 1518.58 L1375.8 1518.58 Z" fill="#000000" fill-rule="nonzero" fill-opacity="1" /><path clip-path="url(#clip870)" d="M1409.89 1533.45 L1409.89 1538.98 Q1407.4 1537.71 1404.73 1537.07 Q1402.06 1536.44 1399.19 1536.44 Q1394.83 1536.44 1392.64 1537.77 Q1390.47 1539.11 1390.47 1541.79 Q1390.47 1543.82 1392.03 1545 Q1393.59 1546.15 1398.3 1547.2 L1400.31 1547.64 Q1406.54 1548.98 1409.15 1551.43 Q1411.8 1553.85 1411.8 1558.21 Q1411.8 1563.17 1407.85 1566.07 Q1403.93 1568.97 1397.06 1568.97 Q1394.2 1568.97 1391.08 1568.39 Q1387.99 1567.85 1384.55 1566.74 L1384.55 1560.69 Q1387.8 1562.38 1390.95 1563.24 Q1394.1 1564.07 1397.19 1564.07 Q1401.32 1564.07 1403.55 1562.66 Q1405.78 1561.23 1405.78 1558.65 Q1405.78 1556.27 1404.16 1554.99 Q1402.57 1553.72 1397.12 1552.54 L1395.09 1552.07 Q1389.64 1550.92 1387.22 1548.56 Q1384.81 1546.18 1384.81 1542.04 Q1384.81 1537.01 1388.37 1534.27 Q1391.94 1531.54 1398.49 1531.54 Q1401.74 1531.54 1404.6 1532.01 Q1407.47 1532.49 1409.89 1533.45 Z" fill="#000000" fill-rule="nonzero" fill-opacity="1" /><path clip-path="url(#clip870)" d="M1420.2 1518.58 L1425.29 1518.58 Q1430.07 1526.09 1432.42 1533.29 Q1434.81 1540.48 1434.81 1547.58 Q1434.81 1554.71 1432.42 1561.93 Q1430.07 1569.16 1425.29 1576.64 L1420.2 1576.64 Q1424.43 1569.35 1426.5 1562.16 Q1428.6 1554.93 1428.6 1547.58 Q1428.6 1540.23 1426.5 1533.06 Q1424.43 1525.9 1420.2 1518.58 Z" fill="#000000" fill-rule="nonzero" fill-opacity="1" /><polyline clip-path="url(#clip870)" style="stroke:#000000; stroke-linecap:round; stroke-linejoin:round; stroke-width:4; stroke-opacity:1; fill:none" points="257.204,1423.18 257.204,847.244 "/>
<polyline clip-path="url(#clip870)" style="stroke:#000000; stroke-linecap:round; stroke-linejoin:round; stroke-width:4; stroke-opacity:1; fill:none" points="257.204,1406.88 276.102,1406.88 "/>
<polyline clip-path="url(#clip870)" style="stroke:#000000; stroke-linecap:round; stroke-linejoin:round; stroke-width:4; stroke-opacity:1; fill:none" points="257.204,1271.05 276.102,1271.05 "/>
<polyline clip-path="url(#clip870)" style="stroke:#000000; stroke-linecap:round; stroke-linejoin:round; stroke-width:4; stroke-opacity:1; fill:none" points="257.204,1135.21 276.102,1135.21 "/>
<polyline clip-path="url(#clip870)" style="stroke:#000000; stroke-linecap:round; stroke-linejoin:round; stroke-width:4; stroke-opacity:1; fill:none" points="257.204,999.378 276.102,999.378 "/>
<polyline clip-path="url(#clip870)" style="stroke:#000000; stroke-linecap:round; stroke-linejoin:round; stroke-width:4; stroke-opacity:1; fill:none" points="257.204,863.544 276.102,863.544 "/>
<path clip-path="url(#clip870)" d="M114.26 1407.33 L143.936 1407.33 L143.936 1411.27 L114.26 1411.27 L114.26 1407.33 Z" fill="#000000" fill-rule="nonzero" fill-opacity="1" /><path clip-path="url(#clip870)" d="M154.839 1420.22 L162.477 1420.22 L162.477 1393.86 L154.167 1395.53 L154.167 1391.27 L162.431 1389.6 L167.107 1389.6 L167.107 1420.22 L174.746 1420.22 L174.746 1424.16 L154.839 1424.16 L154.839 1420.22 Z" fill="#000000" fill-rule="nonzero" fill-opacity="1" /><path clip-path="url(#clip870)" d="M184.19 1418.28 L189.075 1418.28 L189.075 1424.16 L184.19 1424.16 L184.19 1418.28 Z" fill="#000000" fill-rule="nonzero" fill-opacity="1" /><path clip-path="url(#clip870)" d="M209.26 1392.68 Q205.649 1392.68 203.82 1396.24 Q202.014 1399.78 202.014 1406.91 Q202.014 1414.02 203.82 1417.59 Q205.649 1421.13 209.26 1421.13 Q212.894 1421.13 214.699 1417.59 Q216.528 1414.02 216.528 1406.91 Q216.528 1399.78 214.699 1396.24 Q212.894 1392.68 209.26 1392.68 M209.26 1388.97 Q215.07 1388.97 218.125 1393.58 Q221.204 1398.16 221.204 1406.91 Q221.204 1415.64 218.125 1420.25 Q215.07 1424.83 209.26 1424.83 Q203.449 1424.83 200.371 1420.25 Q197.315 1415.64 197.315 1406.91 Q197.315 1398.16 200.371 1393.58 Q203.449 1388.97 209.26 1388.97 Z" fill="#000000" fill-rule="nonzero" fill-opacity="1" /><path clip-path="url(#clip870)" d="M115.256 1271.5 L144.931 1271.5 L144.931 1275.43 L115.256 1275.43 L115.256 1271.5 Z" fill="#000000" fill-rule="nonzero" fill-opacity="1" /><path clip-path="url(#clip870)" d="M165.024 1256.84 Q161.413 1256.84 159.584 1260.41 Q157.778 1263.95 157.778 1271.08 Q157.778 1278.19 159.584 1281.75 Q161.413 1285.29 165.024 1285.29 Q168.658 1285.29 170.464 1281.75 Q172.292 1278.19 172.292 1271.08 Q172.292 1263.95 170.464 1260.41 Q168.658 1256.84 165.024 1256.84 M165.024 1253.14 Q170.834 1253.14 173.889 1257.75 Q176.968 1262.33 176.968 1271.08 Q176.968 1279.81 173.889 1284.41 Q170.834 1289 165.024 1289 Q159.214 1289 156.135 1284.41 Q153.079 1279.81 153.079 1271.08 Q153.079 1262.33 156.135 1257.75 Q159.214 1253.14 165.024 1253.14 Z" fill="#000000" fill-rule="nonzero" fill-opacity="1" /><path clip-path="url(#clip870)" d="M185.186 1282.45 L190.07 1282.45 L190.07 1288.33 L185.186 1288.33 L185.186 1282.45 Z" fill="#000000" fill-rule="nonzero" fill-opacity="1" /><path clip-path="url(#clip870)" d="M200.301 1253.77 L218.658 1253.77 L218.658 1257.7 L204.584 1257.7 L204.584 1266.17 Q205.602 1265.83 206.621 1265.66 Q207.639 1265.48 208.658 1265.48 Q214.445 1265.48 217.824 1268.65 Q221.204 1271.82 221.204 1277.24 Q221.204 1282.82 217.732 1285.92 Q214.26 1289 207.94 1289 Q205.764 1289 203.496 1288.63 Q201.25 1288.26 198.843 1287.52 L198.843 1282.82 Q200.926 1283.95 203.149 1284.51 Q205.371 1285.06 207.848 1285.06 Q211.852 1285.06 214.19 1282.96 Q216.528 1280.85 216.528 1277.24 Q216.528 1273.63 214.19 1271.52 Q211.852 1269.41 207.848 1269.41 Q205.973 1269.41 204.098 1269.83 Q202.246 1270.25 200.301 1271.13 L200.301 1253.77 Z" fill="#000000" fill-rule="nonzero" fill-opacity="1" /><path clip-path="url(#clip870)" d="M164.028 1121.01 Q160.417 1121.01 158.589 1124.58 Q156.783 1128.12 156.783 1135.25 Q156.783 1142.35 158.589 1145.92 Q160.417 1149.46 164.028 1149.46 Q167.663 1149.46 169.468 1145.92 Q171.297 1142.35 171.297 1135.25 Q171.297 1128.12 169.468 1124.58 Q167.663 1121.01 164.028 1121.01 M164.028 1117.31 Q169.839 1117.31 172.894 1121.91 Q175.973 1126.5 175.973 1135.25 Q175.973 1143.97 172.894 1148.58 Q169.839 1153.16 164.028 1153.16 Q158.218 1153.16 155.14 1148.58 Q152.084 1143.97 152.084 1135.25 Q152.084 1126.5 155.14 1121.91 Q158.218 1117.31 164.028 1117.31 Z" fill="#000000" fill-rule="nonzero" fill-opacity="1" /><path clip-path="url(#clip870)" d="M184.19 1146.61 L189.075 1146.61 L189.075 1152.49 L184.19 1152.49 L184.19 1146.61 Z" fill="#000000" fill-rule="nonzero" fill-opacity="1" /><path clip-path="url(#clip870)" d="M209.26 1121.01 Q205.649 1121.01 203.82 1124.58 Q202.014 1128.12 202.014 1135.25 Q202.014 1142.35 203.82 1145.92 Q205.649 1149.46 209.26 1149.46 Q212.894 1149.46 214.699 1145.92 Q216.528 1142.35 216.528 1135.25 Q216.528 1128.12 214.699 1124.58 Q212.894 1121.01 209.26 1121.01 M209.26 1117.31 Q215.07 1117.31 218.125 1121.91 Q221.204 1126.5 221.204 1135.25 Q221.204 1143.97 218.125 1148.58 Q215.07 1153.16 209.26 1153.16 Q203.449 1153.16 200.371 1148.58 Q197.315 1143.97 197.315 1135.25 Q197.315 1126.5 200.371 1121.91 Q203.449 1117.31 209.26 1117.31 Z" fill="#000000" fill-rule="nonzero" fill-opacity="1" /><path clip-path="url(#clip870)" d="M165.024 985.177 Q161.413 985.177 159.584 988.742 Q157.778 992.283 157.778 999.413 Q157.778 1006.52 159.584 1010.08 Q161.413 1013.63 165.024 1013.63 Q168.658 1013.63 170.464 1010.08 Q172.292 1006.52 172.292 999.413 Q172.292 992.283 170.464 988.742 Q168.658 985.177 165.024 985.177 M165.024 981.473 Q170.834 981.473 173.889 986.08 Q176.968 990.663 176.968 999.413 Q176.968 1008.14 173.889 1012.75 Q170.834 1017.33 165.024 1017.33 Q159.214 1017.33 156.135 1012.75 Q153.079 1008.14 153.079 999.413 Q153.079 990.663 156.135 986.08 Q159.214 981.473 165.024 981.473 Z" fill="#000000" fill-rule="nonzero" fill-opacity="1" /><path clip-path="url(#clip870)" d="M185.186 1010.78 L190.07 1010.78 L190.07 1016.66 L185.186 1016.66 L185.186 1010.78 Z" fill="#000000" fill-rule="nonzero" fill-opacity="1" /><path clip-path="url(#clip870)" d="M200.301 982.098 L218.658 982.098 L218.658 986.033 L204.584 986.033 L204.584 994.505 Q205.602 994.158 206.621 993.996 Q207.639 993.811 208.658 993.811 Q214.445 993.811 217.824 996.982 Q221.204 1000.15 221.204 1005.57 Q221.204 1011.15 217.732 1014.25 Q214.26 1017.33 207.94 1017.33 Q205.764 1017.33 203.496 1016.96 Q201.25 1016.59 198.843 1015.85 L198.843 1011.15 Q200.926 1012.28 203.149 1012.84 Q205.371 1013.39 207.848 1013.39 Q211.852 1013.39 214.19 1011.29 Q216.528 1009.18 216.528 1005.57 Q216.528 1001.96 214.19 999.853 Q211.852 997.746 207.848 997.746 Q205.973 997.746 204.098 998.163 Q202.246 998.579 200.301 999.459 L200.301 982.098 Z" fill="#000000" fill-rule="nonzero" fill-opacity="1" /><path clip-path="url(#clip870)" d="M154.839 876.889 L162.477 876.889 L162.477 850.523 L154.167 852.19 L154.167 847.931 L162.431 846.264 L167.107 846.264 L167.107 876.889 L174.746 876.889 L174.746 880.824 L154.839 880.824 L154.839 876.889 Z" fill="#000000" fill-rule="nonzero" fill-opacity="1" /><path clip-path="url(#clip870)" d="M184.19 874.945 L189.075 874.945 L189.075 880.824 L184.19 880.824 L184.19 874.945 Z" fill="#000000" fill-rule="nonzero" fill-opacity="1" /><path clip-path="url(#clip870)" d="M209.26 849.343 Q205.649 849.343 203.82 852.908 Q202.014 856.449 202.014 863.579 Q202.014 870.685 203.82 874.25 Q205.649 877.792 209.26 877.792 Q212.894 877.792 214.699 874.25 Q216.528 870.685 216.528 863.579 Q216.528 856.449 214.699 852.908 Q212.894 849.343 209.26 849.343 M209.26 845.639 Q215.07 845.639 218.125 850.246 Q221.204 854.829 221.204 863.579 Q221.204 872.306 218.125 876.912 Q215.07 881.495 209.26 881.495 Q203.449 881.495 200.371 876.912 Q197.315 872.306 197.315 863.579 Q197.315 854.829 200.371 850.246 Q203.449 845.639 209.26 845.639 Z" fill="#000000" fill-rule="nonzero" fill-opacity="1" /><path clip-path="url(#clip870)" d="M49.9359 1150.14 L28.3562 1150.14 L28.3562 1144.28 L49.7131 1144.28 Q54.7739 1144.28 57.3202 1142.31 Q59.8346 1140.34 59.8346 1136.39 Q59.8346 1131.65 56.8109 1128.91 Q53.7872 1126.14 48.5673 1126.14 L28.3562 1126.14 L28.3562 1120.28 L64.0042 1120.28 L64.0042 1126.14 L58.5296 1126.14 Q61.7762 1128.27 63.3676 1131.11 Q64.9272 1133.91 64.9272 1137.63 Q64.9272 1143.77 61.1078 1146.96 Q57.2883 1150.14 49.9359 1150.14 M27.4968 1135.4 L27.4968 1135.4 Z" fill="#000000" fill-rule="nonzero" fill-opacity="1" /><polyline clip-path="url(#clip873)" style="stroke:#009af9; stroke-linecap:round; stroke-linejoin:round; stroke-width:4; stroke-opacity:1; fill:none" points="316.512,863.544 320.474,863.544 324.436,863.544 328.397,863.544 332.359,863.544 336.321,863.544 340.283,863.544 344.245,863.544 348.206,863.544 352.168,863.544 356.13,863.544 360.092,863.544 364.054,863.544 368.015,863.544 371.977,863.544 375.939,863.544 379.901,863.544 383.863,863.544 387.824,863.544 391.786,863.544 395.748,863.544 395.748,1406.88 399.71,1406.88 403.672,1406.88 407.633,1406.88 411.595,1406.88 415.557,1406.88 419.519,1406.88 423.481,1406.88 427.442,1406.88 431.404,1406.88 435.366,1406.88 439.328,1406.88 443.29,1406.88 447.251,1406.88 451.213,1406.88 455.175,1406.88 455.175,863.544 459.137,863.544 463.099,863.544 467.06,863.544 471.022,863.544 474.984,863.544 478.946,863.544 482.907,863.544 486.869,863.544 490.831,863.544 494.793,863.544 498.755,863.544 502.716,863.544 506.678,863.544 510.64,863.544 514.602,863.544 514.602,1406.88 518.564,1406.88 522.525,1406.88 526.487,1406.88 530.449,1406.88 534.411,1406.88 538.373,1406.88 542.334,1406.88 546.296,1406.88 550.258,1406.88 554.22,1406.88 558.182,1406.88 562.143,1406.88 566.105,1406.88 570.067,1406.88 574.029,1406.88 574.029,863.544 577.991,863.544 581.952,863.544 585.914,863.544 589.876,863.544 593.838,863.544 593.838,1406.88 597.8,1406.88 601.761,1406.88 605.723,1406.88 609.685,1406.88 613.647,1406.88 613.647,863.544 617.609,863.544 621.57,863.544 625.532,863.544 629.494,863.544 633.456,863.544 633.456,1406.88 637.418,1406.88 641.379,1406.88 645.341,1406.88 649.303,1406.88 653.265,1406.88 653.265,863.544 657.226,863.544 661.188,863.544 665.15,863.544 669.112,863.544 673.074,863.544 677.035,863.544 680.997,863.544 684.959,863.544 688.921,863.544 692.883,863.544 692.883,1406.88 696.844,1406.88 700.806,1406.88 704.768,1406.88 708.73,1406.88 712.692,1406.88 716.653,1406.88 720.615,1406.88 724.577,1406.88 728.539,1406.88 732.501,1406.88 736.462,1406.88 740.424,1406.88 744.386,1406.88 748.348,1406.88 752.31,1406.88 756.271,1406.88 760.233,1406.88 764.195,1406.88 768.157,1406.88 772.119,1406.88 776.08,1406.88 780.042,1406.88 784.004,1406.88 787.966,1406.88 791.928,1406.88 795.889,1406.88 799.851,1406.88 803.813,1406.88 807.775,1406.88 811.736,1406.88 811.736,863.544 815.698,863.544 819.66,863.544 823.622,863.544 827.584,863.544 831.545,863.544 831.545,1406.88 835.507,1406.88 839.469,1406.88 843.431,1406.88 847.393,1406.88 851.354,1406.88 855.316,1406.88 859.278,1406.88 863.24,1406.88 867.202,1406.88 871.163,1406.88 875.125,1406.88 879.087,1406.88 883.049,1406.88 887.011,1406.88 890.972,1406.88 890.972,863.544 894.934,863.544 898.896,863.544 902.858,863.544 906.82,863.544 910.781,863.544 910.781,1406.88 914.743,1406.88 918.705,1406.88 922.667,1406.88 926.629,1406.88 930.59,1406.88 930.59,863.544 934.552,863.544 938.514,863.544 942.476,863.544 946.438,863.544 950.399,863.544 950.399,1406.88 954.361,1406.88 958.323,1406.88 962.285,1406.88 966.246,1406.88 970.208,1406.88 970.208,863.544 974.17,863.544 978.132,863.544 982.094,863.544 986.055,863.544 990.017,863.544 990.017,1406.88 993.979,1406.88 997.941,1406.88 1001.9,1406.88 1005.86,1406.88 1009.83,1406.88 1013.79,1406.88 1017.75,1406.88 1021.71,1406.88 1025.67,1406.88 1029.64,1406.88 1033.6,1406.88 1037.56,1406.88 1041.52,1406.88 1045.48,1406.88 1049.44,1406.88 1053.41,1406.88 1057.37,1406.88 1061.33,1406.88 1065.29,1406.88 1069.25,1406.88 1069.25,863.544 1073.21,863.544 1077.18,863.544 1081.14,863.544 1085.1,863.544 1089.06,863.544 1093.02,863.544 1096.99,863.544 1100.95,863.544 1104.91,863.544 1108.87,863.544 1112.83,863.544 1116.79,863.544 1120.76,863.544 1124.72,863.544 1128.68,863.544 1132.64,863.544 1136.6,863.544 1140.57,863.544 1144.53,863.544 1148.49,863.544 1152.45,863.544 1156.41,863.544 1160.37,863.544 1164.34,863.544 1168.3,863.544 1168.3,1406.88 1172.26,1406.88 1176.22,1406.88 1180.18,1406.88 1184.15,1406.88 1188.11,1406.88 1188.11,863.544 1192.07,863.544 1196.03,863.544 1199.99,863.544 1203.95,863.544 1207.92,863.544 1211.88,863.544 1215.84,863.544 1219.8,863.544 1223.76,863.544 1227.72,863.544 1231.69,863.544 1235.65,863.544 1239.61,863.544 1243.57,863.544 1247.53,863.544 1247.53,1406.88 1251.5,1406.88 1255.46,1406.88 1259.42,1406.88 1263.38,1406.88 1267.34,1406.88 1267.34,863.544 1271.3,863.544 1275.27,863.544 1279.23,863.544 1283.19,863.544 1287.15,863.544 1287.15,1406.88 1291.11,1406.88 1295.08,1406.88 1299.04,1406.88 1303,1406.88 1306.96,1406.88 1310.92,1406.88 1314.88,1406.88 1318.85,1406.88 1322.81,1406.88 1326.77,1406.88 1330.73,1406.88 1334.69,1406.88 1338.66,1406.88 1342.62,1406.88 1346.58,1406.88 1346.58,863.544 1350.54,863.544 1354.5,863.544 1358.46,863.544 1362.43,863.544 1366.39,863.544 1366.39,1406.88 1370.35,1406.88 1374.31,1406.88 1378.27,1406.88 1382.23,1406.88 1386.2,1406.88 1390.16,1406.88 1394.12,1406.88 1398.08,1406.88 1402.04,1406.88 1406.01,1406.88 1406.01,863.544 1409.97,863.544 1413.93,863.544 1417.89,863.544 1421.85,863.544 1425.81,863.544 1425.81,1406.88 1429.78,1406.88 1433.74,1406.88 1437.7,1406.88 1441.66,1406.88 1445.62,1406.88 1449.59,1406.88 1453.55,1406.88 1457.51,1406.88 1461.47,1406.88 1465.43,1406.88 1469.39,1406.88 1473.36,1406.88 1477.32,1406.88 1481.28,1406.88 1485.24,1406.88 1489.2,1406.88 1493.17,1406.88 1497.13,1406.88 1501.09,1406.88 1505.05,1406.88 1505.05,863.544 1509.01,863.544 1512.97,863.544 1516.94,863.544 1520.9,863.544 1524.86,863.544 1524.86,1406.88 1528.82,1406.88 1532.78,1406.88 1536.74,1406.88 1540.71,1406.88 1544.67,1406.88 1544.67,863.544 1548.63,863.544 1552.59,863.544 1556.55,863.544 1560.52,863.544 1564.48,863.544 1564.48,1406.88 1568.44,1406.88 1572.4,1406.88 1576.36,1406.88 1580.32,1406.88 1584.29,1406.88 1588.25,1406.88 1592.21,1406.88 1596.17,1406.88 1600.13,1406.88 1604.1,1406.88 1608.06,1406.88 1612.02,1406.88 1615.98,1406.88 1619.94,1406.88 1623.9,1406.88 1627.87,1406.88 1631.83,1406.88 1635.79,1406.88 1639.75,1406.88 1643.71,1406.88 1647.68,1406.88 1651.64,1406.88 1655.6,1406.88 1659.56,1406.88 1663.52,1406.88 1667.48,1406.88 1671.45,1406.88 1675.41,1406.88 1679.37,1406.88 1683.33,1406.88 1687.29,1406.88 1691.25,1406.88 1695.22,1406.88 1699.18,1406.88 1703.14,1406.88 1707.1,1406.88 1711.06,1406.88 1715.03,1406.88 1718.99,1406.88 1722.95,1406.88 1726.91,1406.88 1730.87,1406.88 1734.83,1406.88 1738.8,1406.88 1742.76,1406.88 1742.76,863.544 1746.72,863.544 1750.68,863.544 1754.64,863.544 1758.61,863.544 1762.57,863.544 1766.53,863.544 1770.49,863.544 1774.45,863.544 1778.41,863.544 1782.38,863.544 1782.38,1406.88 1786.34,1406.88 1790.3,1406.88 1794.26,1406.88 1798.22,1406.88 1802.19,1406.88 1802.19,863.544 1806.15,863.544 1810.11,863.544 1814.07,863.544 1818.03,863.544 1821.99,863.544 1825.96,863.544 1829.92,863.544 1833.88,863.544 1837.84,863.544 1841.8,863.544 1845.76,863.544 1849.73,863.544 1853.69,863.544 1857.65,863.544 1861.61,863.544 1861.61,1406.88 1865.57,1406.88 1869.54,1406.88 1873.5,1406.88 1877.46,1406.88 1881.42,1406.88 1881.42,863.544 1885.38,863.544 1889.34,863.544 1893.31,863.544 1897.27,863.544 1901.23,863.544 1901.23,1406.88 1905.19,1406.88 1909.15,1406.88 1913.12,1406.88 1917.08,1406.88 1921.04,1406.88 1925,1406.88 1928.96,1406.88 1932.92,1406.88 1936.89,1406.88 1940.85,1406.88 1940.85,863.544 1944.81,863.544 1948.77,863.544 1952.73,863.544 1956.7,863.544 1960.66,863.544 1960.66,1406.88 1964.62,1406.88 1968.58,1406.88 1972.54,1406.88 1976.5,1406.88 1980.47,1406.88 1984.43,1406.88 1988.39,1406.88 1992.35,1406.88 1996.31,1406.88 2000.27,1406.88 2004.24,1406.88 2008.2,1406.88 2012.16,1406.88 2016.12,1406.88 2020.08,1406.88 2024.05,1406.88 2028.01,1406.88 2031.97,1406.88 2035.93,1406.88 2039.89,1406.88 2043.85,1406.88 2047.82,1406.88 2051.78,1406.88 2055.74,1406.88 2059.7,1406.88 2063.66,1406.88 2067.63,1406.88 2071.59,1406.88 2075.55,1406.88 2079.51,1406.88 2079.51,863.544 2083.47,863.544 2087.43,863.544 2091.4,863.544 2095.36,863.544 2099.32,863.544 2103.28,863.544 2107.24,863.544 2111.21,863.544 2115.17,863.544 2119.13,863.544 2123.09,863.544 2127.05,863.544 2131.01,863.544 2134.98,863.544 2138.94,863.544 2142.9,863.544 2146.86,863.544 2150.82,863.544 2154.79,863.544 2158.75,863.544 2158.75,1406.88 2162.71,1406.88 2166.67,1406.88 2170.63,1406.88 2174.59,1406.88 2178.56,1406.88 2178.56,863.544 2182.52,863.544 2186.48,863.544 2190.44,863.544 2194.4,863.544 2198.36,863.544 2198.36,1406.88 2202.33,1406.88 2206.29,1406.88 2210.25,1406.88 2214.21,1406.88 2218.17,1406.88 2218.17,863.544 2222.14,863.544 2226.1,863.544 2230.06,863.544 2234.02,863.544 2237.98,863.544 2237.98,1406.88 2241.94,1406.88 2245.91,1406.88 2249.87,1406.88 2253.83,1406.88 2257.79,1406.88 2261.75,1406.88 2265.72,1406.88 2269.68,1406.88 2273.64,1406.88 2277.6,1406.88 2281.56,1406.88 2285.52,1406.88 2289.49,1406.88 2293.45,1406.88 "/>
</svg>
